<svg xmlns="http://www.w3.org/2000/svg" viewBox="0 0 52.34 36.98"><g fill-rule="evenodd" clip-rule="evenodd"><path d="M42.24 2.02c3.64 0 6.47 2.83 6.47 6.47 0 2.83-1.62 5.05-4.04 6.06 4.45 1.21 7.68 5.05 7.68 9.9v6.27c-4.04 1.62-7.88 2.43-11.92 2.02v-5.86c0-4.04-1.82-7.68-4.65-10.31 1.21-1.01 2.43-1.62 3.84-2.02-2.22-1.01-4.04-3.23-4.04-6.06-.01-3.64 3.02-6.47 6.66-6.47z" fill="#e80a89"/><path d="M10.31 2.02c3.64 0 6.47 2.83 6.47 6.47 0 2.83-1.62 5.05-4.04 6.06 1.41.4 2.83 1.01 3.84 2.02-2.83 2.63-4.45 6.27-4.45 10.31v5.86c-4.04.4-8.08-.4-12.13-2.02v-6.27c0-4.85 3.44-8.69 7.88-9.9-2.43-1.01-4.24-3.23-4.24-6.06 0-3.64 3.03-6.47 6.67-6.47z" fill="#45b88f"/><path d="M26.27 0c4.24 0 7.68 3.64 7.68 7.88 0 3.23-2.02 6.06-4.85 7.28 5.25 1.21 9.3 6.06 9.3 11.72v7.68c-8.08 3.23-16.17 3.23-24.25 0v-7.68c0-5.66 3.84-10.51 9.09-11.72-2.83-1.21-4.85-4.04-4.85-7.28 0-4.24 3.44-7.88 7.88-7.88z" fill="#6881c0"/></g></svg>