<svg version="1.1" id="Layer_1" xmlns="http://www.w3.org/2000/svg" x="0" y="0" viewBox="0 0 185.22 45.95" xml:space="preserve"><style>.st0{fill:#fff}</style><path class="st0" d="M10.51 37.49H2.6v8.46l3.95-2.82 3.96 2.82z"/><path class="st0" d="M38.53 22.26c-1.23-1.79-3.09-3.05-5.59-3.77 1.78-.87 3.14-1.99 4.08-3.37.94-1.38 1.42-3.07 1.42-5.08 0-1.89-.31-3.48-.94-4.76C36.88 4 36 2.96 34.86 2.19 33.73 1.42 32.37.86 30.78.52S27.44 0 25.51 0H6.46v40.49h19.62c1.81 0 3.58-.23 5.3-.68 1.72-.45 3.25-1.15 4.59-2.1 1.34-.94 2.41-2.16 3.2-3.66.79-1.49 1.19-3.26 1.19-5.3.01-2.53-.6-4.7-1.83-6.49z"/><path d="M35.3 22.26c-1.23-1.79-3.09-3.05-5.59-3.77 1.78-.87 3.14-1.99 4.08-3.37.94-1.38 1.42-3.07 1.42-5.08 0-1.89-.31-3.48-.94-4.76-.62-1.28-1.5-2.32-2.64-3.09C30.5 1.42 29.14.86 27.55.52 25.97.17 24.21 0 22.28 0H3.23v40.49h19.62c1.81 0 3.58-.23 5.3-.68 1.72-.45 3.25-1.15 4.59-2.1 1.34-.94 2.41-2.16 3.2-3.66.79-1.49 1.19-3.26 1.19-5.3.01-2.53-.6-4.7-1.83-6.49z" fill="#6669ae"/><path d="M32.07 22.26c-1.23-1.79-3.09-3.05-5.59-3.77 1.78-.87 3.14-1.99 4.08-3.37.94-1.38 1.42-3.07 1.42-5.08 0-1.89-.31-3.48-.94-4.76-.62-1.28-1.5-2.32-2.64-3.09-1.13-.77-2.49-1.33-4.08-1.67C22.74.17 20.98 0 19.05 0H0v40.49h19.62c1.81 0 3.58-.23 5.3-.68 1.72-.45 3.25-1.15 4.59-2.1 1.34-.94 2.41-2.16 3.2-3.66.79-1.49 1.19-3.26 1.19-5.3.01-2.53-.6-4.7-1.83-6.49z" fill="#f3886b"/><path class="st0" d="M10.7 15.12V25.4c0 1.45.35 2.46 1.04 3.05.69.59 1.68.88 2.97.88 1.29 0 2.29-.32 3-.96.71-.64 1.07-1.58 1.07-2.82V14.22l-1.8-.09V11.5h7.34v2.51l-1.02.09c-.6.06-.9.37-.9.93v11.06c0 2-.7 3.57-2.11 4.71-1.4 1.14-3.34 1.7-5.82 1.7s-4.35-.55-5.62-1.66c-1.27-1.1-1.9-2.85-1.9-5.25V14.22l-1.8-.09V11.5h7.49v2.51l-1.02.09c-.33.04-.57.13-.71.26-.13.14-.21.39-.21.76zm39.87-.89v12.23c0 1.72.41 2.93 1.23 3.63.82.7 2 1.05 3.54 1.05s2.73-.38 3.57-1.14c.85-.76 1.27-1.88 1.27-3.35V13.16l-2.14-.11V9.92h8.73v2.98l-1.22.11c-.71.07-1.07.44-1.07 1.11v13.16c0 2.38-.84 4.25-2.51 5.6-1.67 1.35-3.98 2.03-6.93 2.03-2.95 0-5.18-.66-6.69-1.97-1.51-1.31-2.27-3.4-2.27-6.25V13.16l-2.14-.11V9.92h8.92v2.98l-1.22.11c-.39.05-.68.15-.85.31-.14.17-.22.47-.22.91zm17.13 4.61v-2.95h6.23v2.4c.64-.91 1.49-1.63 2.54-2.16 1.06-.53 2.2-.79 3.43-.79 1.87 0 3.31.53 4.33 1.6s1.53 2.67 1.53 4.81v9.62l2.1.11v2.95h-8.77v-2.8l1.22-.11c.37-.05.64-.15.81-.31.17-.16.26-.46.26-.9v-7.59c0-1.35-.21-2.35-.63-3-.42-.65-1.21-.98-2.38-.98s-2.09.37-2.78 1.11c-.69.74-1.03 1.61-1.03 2.62v8.92l2.1.11v2.95h-8.77v-2.8l1.22-.11c.37-.05.64-.15.81-.31.17-.16.26-.46.26-.9V20.09c0-.74-.31-1.12-.92-1.14l-1.56-.11zm29-2.95v15.48l2.1.11v2.95h-8.77v-2.8l1.22-.11c.71-.07 1.07-.47 1.07-1.18V20.09c0-.42-.07-.7-.2-.85-.14-.15-.38-.22-.72-.22l-1.29-.07v-3.06h6.59zm-4.64-3.19c-.52-.5-.77-1.15-.77-1.93 0-.79.26-1.44.77-1.97.52-.53 1.19-.79 2.03-.79.84 0 1.52.26 2.05.79.53.53.79 1.19.79 1.97 0 .79-.26 1.43-.79 1.93s-1.21.76-2.05.76c-.84 0-1.51-.25-2.03-.76zm11.83 22.28c-.86 0-1.52-.24-1.99-.72s-.7-1.11-.7-1.88c0-.77.24-1.41.72-1.92.48-.5 1.13-.76 1.95-.76.82 0 1.48.24 1.97.72s.74 1.11.74 1.88c0 .77-.23 1.41-.7 1.92s-1.13.76-1.99.76zm5.6-25.06h10.39c5.31 0 7.96 2.05 7.96 6.15 0 2.26-1.13 3.98-3.39 5.16 1.45.37 2.59 1.04 3.41 2.03.82.98 1.23 2.26 1.23 3.83 0 2.38-.81 4.2-2.41 5.45-1.61 1.25-3.95 1.88-7.02 1.88H109.3v-2.99l1.22-.11c.71-.07 1.07-.42 1.07-1.03V13.16l-2.1-.11V9.92zm6.6 3.39v6.67h2.73c1.52 0 2.65-.31 3.37-.94.72-.63 1.09-1.5 1.09-2.64 0-1.13-.36-1.93-1.09-2.4-.73-.47-1.76-.7-3.11-.7h-2.99zm0 9.95v7.7h3.46c3.19 0 4.79-1.3 4.79-3.91 0-1.23-.4-2.17-1.2-2.82-.8-.65-1.93-.98-3.41-.98h-3.64zm34.16 8.26v2.91h-5.97v-2.4c-1.35 1.92-3.34 2.87-5.97 2.87-3.81 0-5.71-2.12-5.71-6.38v-8.51c0-.66-.31-1.01-.92-1.03l-1.18-.07v-3.02h6.49v11.68c0 1.3.18 2.28.55 2.95.37.66 1.13 1 2.28 1s2.08-.36 2.78-1.07c.7-.71 1.05-1.57 1.05-2.58v-7.78c0-.39-.07-.67-.2-.83-.14-.16-.38-.25-.72-.28l-1.18-.07v-3.02h6.49v14.45c0 .39.06.66.18.79.12.14.37.23.74.28l1.29.11zm17.17 2.91h-15.04v-2.8l9.47-12.46h-4.64c-.52 0-.84.1-.98.29-.14.2-.2.52-.2.96v1.29l-3.46-.26v-5.56h14.67v2.51l-9.58 12.71h5.23c.71 0 1.07-.42 1.07-1.25v-1.55l3.46.26v5.86zm17.8 0h-15.04v-2.8l9.47-12.46h-4.64c-.52 0-.84.1-.98.29-.14.2-.2.52-.2.96v1.29l-3.46-.26v-5.56h14.67v2.51l-9.58 12.71h5.23c.71 0 1.07-.42 1.07-1.25v-1.55l3.46.26v5.86z"/></svg>