<svg xmlns="http://www.w3.org/2000/svg" viewBox="0 0 24 24.3"><path d="M22.53 20l-4.99-4.98a9.505 9.505 0 0 0 1.67-5.34C19.25 4.38 14.97.04 9.67 0h-.06C4.35 0 .04 4.28 0 9.54c-.02 2.57.96 4.99 2.76 6.81a9.498 9.498 0 0 0 6.77 2.86h.07c1.79 0 3.52-.49 5.04-1.43l4.99 4.99-.28-.28 2.86-2.81.32.32zM9.74 15.82h-.05a6.179 6.179 0 0 1-4.38-1.85 6.202 6.202 0 0 1-1.79-4.4c.03-3.4 2.82-6.17 6.21-6.17h.05c3.42.03 6.19 2.83 6.16 6.26-.02 3.4-2.8 6.16-6.2 6.16z" fill="#fff"/><path d="M20.16 23.31l.68.69c.2.2.47.31.8.31.52 0 1.11-.28 1.59-.75.8-.79 1.01-1.83.48-2.38l-.91-.92.01.01.44.45-2.86 2.81-.23-.22z" fill="#9e5224"/><path fill="#5ebeaa" d="M20.15 23.29l-.22-.21z"/><path fill="#36b24a" d="M22.79 20.26l-.26-.26-.32-.32-2.86 2.82.29.28.29.3.22.21.01.02.23.22 2.85-2.81-.44-.45z"/></svg>