<svg version="1.1" id="Layer_1" xmlns="http://www.w3.org/2000/svg" xmlns:xlink="http://www.w3.org/1999/xlink" x="0" y="0" viewBox="0 0 68.72 68.72" xml:space="preserve"><style>.st3{fill:#f5891f}.st6{fill:#f9a21b}.st7{fill:#20140a}.st8{fill:#059c49}.st10{fill:#098040}</style><defs><circle id="SVGID_1_" cx="34.36" cy="34.36" r="34.36"/></defs><clipPath id="SVGID_2_"><use xlink:href="#SVGID_1_" overflow="visible"/></clipPath><g clip-path="url(#SVGID_2_)"><path fill="#765ea7" d="M0 0h68.72v68.72H0z"/><path d="M22.32 59.42c.17.11.35.22.53.33l-.11-.17c-.14-.06-.28-.11-.42-.16zm24.06.22c.35-.22.69-.45 1.03-.67-.28.12-.55.24-.83.35-.07.11-.13.21-.2.32z" fill="none"/><ellipse transform="matrix(1 -.00445 .00445 1 -.158 .153)" class="st3" cx="34.36" cy="35.65" rx="29.54" ry="26.01"/><path d="M34.24 9.64C17.93 9.71 4.76 21.41 4.82 35.78c.06 14.36 13.34 25.95 29.65 25.88s29.48-11.78 29.42-26.14C63.83 21.15 50.56 9.56 34.24 9.64zm.21 46.32c-14.19.06-25.74-10.02-25.79-22.51s11.4-22.68 25.59-22.74 25.74 10.01 25.79 22.51c.06 12.49-11.4 22.67-25.59 22.74z" fill="#ec6623"/><ellipse transform="matrix(1 -.00445 .00445 1 -.102 .153)" cx="34.3" cy="23.12" rx="14.28" ry="10.35" fill="#f7971d"/><path class="st3" d="M7.23 37.08c.32-7.74 5.44-14.67 9.69-19.11 2.98-3.11 5.95-5.5 7.99-6.97-.45.13-.89.27-1.32.43-5.84 4.4-16.32 14.2-16.79 25.64-.32 7.83 4.13 14.99 13.25 21.35.74.36 1.49.69 2.26 1C11.97 52.81 6.9 45.31 7.23 37.08z"/><path class="st3" d="M20.57 18.96c-.22.53-.46 1.08-.72 1.66-3.36 7.7-8.87 20.33 2.89 38.95l.66.24c-12.02-18.7-6.51-31.34-3.16-39.02.26-.59.5-1.14.72-1.68 1.06-2.82 4.95-6.77 7.35-8.93-.28.05-.55.11-.82.16-2.44 2.26-5.9 5.89-6.92 8.62zm7.15 25.31c-1.68-6.32-.78-11.44-.07-13.26.74-1.89.72-4.49.69-8.8l-.01-1.48c-.02-4.87 3.2-8.5 4.19-9.5l-.3-.3c-1.02 1.03-4.33 4.76-4.31 9.8l.01 1.48c.03 4.26.04 6.83-.66 8.65-.73 1.87-1.66 7.11.05 13.53 1.39 5.21 1.26 13.41-.01 16.53.14.03.28.06.41.09 1.35-3.47 1.31-11.83.01-16.74zm24.21-26.45c4.28 4.41 9.47 11.28 9.86 19.02.4 8.09-4.43 15.52-14.38 22.13.86-.37 1.69-.78 2.5-1.23 8.55-6.3 12.69-13.32 12.31-20.92-.56-11.26-10.83-20.85-16.75-25.29-.45-.16-.91-.31-1.37-.45 2.05 1.45 4.94 3.76 7.83 6.74z"/><path class="st3" d="M47.9 19c.23.53.47 1.08.73 1.66 3.41 7.63 9.02 20.18-2.72 38.91.22-.08.44-.17.66-.26 11.47-18.65 5.87-31.18 2.45-38.83-.26-.58-.51-1.13-.73-1.65-1.03-2.69-4.45-6.23-6.91-8.47-.28-.06-.56-.11-.84-.17 2.44 2.16 6.29 6.03 7.36 8.81zm-6.11 25.32c1.65-6.44.68-11.67-.07-13.53-.72-1.81-.73-4.38-.74-8.64v-1.48c-.02-5.04-3.37-8.75-4.4-9.76l-.3.3c1 .99 4.25 4.59 4.27 9.46v1.48c.01 4.31.02 6.92.77 8.8.73 1.82 1.68 6.93.05 13.26-1.26 4.89-1.23 13.19.14 16.66l.41-.09c-1.28-3.14-1.46-11.28-.13-16.46z"/><path class="st6" d="M12.4 27.88c-1.06 2.49-.33 9.84 5.93 12.34s11.71 1.26 14.37-1.33c-1.1-.42-5.33-2.47-5.33-2.47l-13.45-4.66-1.52-3.88z"/><path class="st7" d="M15.4 22.5c.68 1.9 4.72 10.13 16.09 15.85-1.23 1.29-7.71 3.37-14.26.06s-6.11-12.7-1.83-15.91z"/><path class="st6" d="M56.67 27.68c1.08 2.48.41 9.84-5.82 12.39-6.23 2.55-11.7 1.36-14.38-1.2 1.09-.43 5.3-2.52 5.3-2.52l13.4-4.78 1.5-3.89z"/><path class="st7" d="M53.63 22.33c-.66 1.91-4.63 10.18-15.95 16 1.25 1.28 7.74 3.3 14.26-.06s6-12.77 1.69-15.94z"/><path class="st6" d="M37.73 47.52l-1.56-.63-1.54.65-1.56-.64-1.54.65-.51.68 3.61-.01 3.61-.02z"/><path class="st7" d="M34.61 43.15l-3.08 4.4 3.1-.01 3.1-.02z"/><path class="st6" d="M46.62 51.13l.01 3-4.65.02s-.01-1.43-.01-2.04c-.89.79-6.72.85-7.33.86-.61 0-6.44-.01-7.33-.79 0 .61.01 2.04.01 2.04l-4.65.02-.01-3c-.39 0-6.38-3.25-9.22-7.44.48 6.58 8.17 14.23 18.57 15.09-.01-1.48-.01-3.34-.01-3.34l2.67-.01 2.67-.01s.01 1.86.01 3.34c10.39-.95 18.01-8.67 18.43-15.26-2.81 4.21-8.77 7.52-9.16 7.52z"/><path class="st7" d="M46.62 49.85l.01 3-4.65.02s-.01-1.43-.01-2.04c-.89.79-6.72.85-7.33.86-.61 0-6.44-.01-7.33-.79 0 .61.01 2.04.01 2.04l-4.65.02-.01-3c-.39 0-6.59-2.52-9.43-6.7 1.13 6.24 8.38 13.5 18.78 14.36-.01-1.48-.01-3.34-.01-3.34l2.67-.01 2.67-.01s.01 1.86.01 3.34c10.39-.95 17.58-8.28 18.65-14.53-2.82 4.2-8.99 6.77-9.38 6.78z"/><ellipse transform="matrix(1 -.00445 .00445 1 -.048 .153)" class="st8" cx="34.4" cy="10.82" rx="6.67" ry="2.43"/><ellipse transform="matrix(1 -.00445 .00445 1 -.048 .153)" class="st8" cx="34.4" cy="10.82" rx="6.67" ry="2.43"/><path d="M34.4 9.56c3.13-.01 5.76.76 6.48 1.81.13-.19.2-.39.2-.59-.01-1.34-3-2.42-6.69-2.4-3.69.02-6.67 1.12-6.66 2.46 0 .2.07.4.2.59.72-1.06 3.34-1.85 6.47-1.87z" fill="#017f40"/><path class="st8" d="M32.36 6.52s.16 3.55 1.23 4.51c1.08.96.82.48.82.48l-.02-4.52-2.03-.47z"/><path class="st8" d="M36.41 6.5s-.12 3.55-1.19 4.52-.81.49-.81.49l-.02-4.52 2.02-.49z"/><path class="st10" d="M34.4 11.52c.01 0 .01-.01 0 0v-.09c.09-.08.2-.17.33-.29 1.05-.95 1.19-4.39 1.19-4.52l.48-.12s-.12 3.55-1.19 4.52c-.56.51-.76.62-.82.6.01-.02.01-.06.01-.1z"/><path class="st10" d="M34.41 11.52s0-.01 0 0v-.09c-.09-.08-.2-.17-.34-.29-1.06-.94-1.23-4.37-1.23-4.51l-.48-.11s.16 3.55 1.23 4.51c.57.51.76.61.82.6v-.11z"/><ellipse transform="matrix(1 -.00445 .00445 1 -.029 .153)" cx="34.38" cy="6.51" rx="2.03" ry=".74" fill="#40b449"/><path d="M34.59 5.78c1.02.03 1.82.34 1.83.73 0 0-.01.22-.04.56v.02c-.01.12-.02.26-.04.41-.01.06-.01.13-.02.2-.01.11-.03.22-.04.33l-.03.18c-.01.08-.03.17-.04.25.06.01.12.01.17.02.21.02.41.05.61.08.1.01.2.03.3.05.19.03.38.07.57.11.18.04.36.08.53.13 1.27.34 2.19.84 2.54 1.43.15.03.31.06.46.1.08.02.16.03.24.05 1.32.29 2.6.66 3.84 1.11 1.65.59 3.23 1.3 4.71 2.13 1.2.67 2.34 1.42 3.42 2.23.36.27.71.55 1.05.83.86.71 1.67 1.47 2.42 2.27l.45.48c.88.98 1.68 2.01 2.4 3.1 1.31 1.99 2.33 4.15 3.01 6.43a22.967 22.967 0 0 1 .88 8.5 23.97 23.97 0 0 1-1.21 5.74c-.07.2-.14.41-.22.61-.15.4-.32.8-.49 1.2-.44.99-.94 1.94-1.5 2.87-2.91 4.76-7.45 8.64-12.97 11.04-3.9 1.7-8.29 2.66-12.94 2.68-.42 0-.84 0-1.25-.02-4.3-.14-8.37-1.09-12.02-2.69-.01-.01-.03-.01-.04-.02-.37-.16-.74-.34-1.1-.51-4.89-2.38-8.93-5.95-11.61-10.26-.57-.92-1.08-1.87-1.53-2.85-.18-.39-.35-.79-.5-1.19-.08-.2-.15-.4-.23-.61-.15-.41-.28-.82-.4-1.23a23.1 23.1 0 0 1-.86-4.5c-.06-.66-.09-1.33-.1-2-.01-2.24.3-4.42.9-6.5a24.37 24.37 0 0 1 2.95-6.46c.71-1.09 1.5-2.14 2.37-3.12.15-.16.29-.33.44-.49.75-.81 1.55-1.57 2.4-2.29.34-.29.69-.57 1.05-.84a29.5 29.5 0 0 1 3.4-2.26c2.03-1.16 4.24-2.1 6.57-2.8.64-.19 1.29-.36 1.95-.52.35-.08.7-.15 1.05-.22.37-.56 1.26-1.04 2.48-1.38.17-.05.35-.09.53-.13.18-.04.37-.08.57-.11.1-.02.2-.03.3-.05.2-.03.4-.06.61-.08.06-.01.11-.01.17-.02 0-.02-.01-.04-.01-.07-.03-.19-.06-.37-.08-.55-.1-.76-.13-1.35-.13-1.35 0-.41.9-.74 2.03-.75.06-.01.13 0 .2 0m.09-2.86h-.31c-3.14.01-4.66 1.59-4.85 3.25-1.26.36-2.27.86-3.02 1.48l-.27.06c-.55.13-1.11.27-1.67.43l-.46-.01-.41.28c-2.37.74-4.64 1.72-6.75 2.93-1.3.74-2.56 1.58-3.73 2.48-.39.3-.78.61-1.15.93-.94.79-1.83 1.64-2.65 2.53a28.945 28.945 0 0 0-3.12 4 26.897 26.897 0 0 0-3.3 7.22c-.68 2.38-1.02 4.83-1.01 7.31 0 .75.04 1.5.11 2.25.15 1.71.48 3.4.97 5.05.14.46.29.93.45 1.38.08.23.17.45.25.68.17.45.36.9.56 1.34.49 1.09 1.07 2.16 1.71 3.19 2.98 4.78 7.4 8.69 12.79 11.32.41.2.81.39 1.21.56l.04.02h-.01c4.11 1.8 8.51 2.78 13.08 2.93.45.01.91.02 1.36.02 4.93-.02 9.66-1.01 14.06-2.92 6.09-2.65 11.03-6.86 14.27-12.17.63-1.03 1.19-2.11 1.68-3.2.19-.44.38-.89.55-1.34.09-.23.17-.46.25-.68a26.368 26.368 0 0 0 1.37-6.45 25.804 25.804 0 0 0-.99-9.55c-.75-2.52-1.88-4.94-3.37-7.19-.79-1.2-1.69-2.36-2.66-3.44-.16-.18-.33-.36-.49-.54-.83-.88-1.73-1.72-2.67-2.51-.38-.31-.76-.62-1.16-.92-1.18-.89-2.44-1.71-3.75-2.44-1.58-.88-3.25-1.65-4.99-2.27l-.12-.04c-.01 0-.02-.01-.03-.01l-.12-.04c-1.28-.45-2.59-.83-3.9-1.13-.8-.71-1.86-1.22-3.18-1.59-.18-1.49-1.45-3.1-4.57-3.2z" fill="#0d100b"/></g></svg>