<svg version="1.1" id="Layer_1" xmlns="http://www.w3.org/2000/svg" xmlns:xlink="http://www.w3.org/1999/xlink" x="0" y="0" viewBox="0 0 41.81 42.11" xml:space="preserve"><style>.st5{fill:#e1e4d4}.st6{fill:#b2a768}.st7{fill:#f9bbab}.st10{fill:#ea7625}.st11{fill:#e27f6d}.st12{fill:#6a8c41}.st14{fill:#a87f58}</style><defs><circle id="SVGID_1_" cx="20.91" cy="20.91" r="20.91"/></defs><clipPath id="SVGID_2_"><use xlink:href="#SVGID_1_" overflow="visible"/></clipPath><g clip-path="url(#SVGID_2_)"><path fill="#d03d5a" d="M0 0h41.81v41.81H0z"/><defs><path id="SVGID_3_" d="M0 0h41.81v41.81H0z"/></defs><clipPath id="SVGID_4_"><use xlink:href="#SVGID_3_" overflow="visible"/></clipPath><g clip-path="url(#SVGID_4_)"><path d="M31.99 42.06v-3.7c0-5.49-4.49-9.98-9.98-9.98h-1.6c-5.49 0-9.98 4.49-9.98 9.98v3.7h21.56z" fill="#f2f2e8"/><path d="M31.88 36.86h-.02v-.13c-.08-.45-.18-.9-.31-1.33l-1.55.03c0-.38-.01-.75-.01-1.13l1.12-.06c-.04-.09-.08-.19-.13-.28-.33.02-.66.04-.99.05 0-.47.01-.93.01-1.4h.18c-.14-.2-.29-.4-.45-.6v.32h-1.01v-1.38c-.12-.11-.24-.21-.36-.31-.34 0-.68.01-1.02.01v-.75c-.09-.06-.19-.12-.28-.17v.92c-.52.01-1.03.01-1.55.01l.03-1.01c.44-.01.88-.02 1.32-.04l-.51-.27c-.27.01-.53.02-.8.02 0-.12.01-.24.01-.36-.09-.04-.19-.07-.28-.1 0 .16-.01.31-.02.47-.35.01-.71.01-1.06.02v-.79l-.28-.06v.85c-.42.01-.85.01-1.27.01l.03-1.02c-.09-.01-.19-.01-.28-.01l-.03 1.04h-1.06c0-.35 0-.7.01-1.05h-.28c0 .35 0 .7-.01 1.05-.46 0-.93-.01-1.39-.01v-1l-.28.03v.97l-1.51-.03c.01-.22.01-.44.02-.66-.1.03-.19.05-.29.08-.01.19-.01.38-.02.57l-1.06-.03v-.14c-.1.04-.19.08-.28.13v.01h-.01c-.18.08-.35.17-.52.26.18.01.35.01.53.02v1.09c-.37 0-.74 0-1.1-.01v-.76c-.1.06-.19.12-.28.19v.57c-.25 0-.5 0-.75-.01-.11.09-.22.18-.32.28.36 0 .71.01 1.07.01v1.4h-1.57c0-.31.01-.62.01-.93-.1.1-.19.2-.29.31 0 .21 0 .42-.01.62h-.51c-.07.09-.14.19-.2.28h.71c0 .45-.01.89-.01 1.34l-1-.06v-.82c-.1.16-.19.32-.28.48v.32c-.05 0-.11-.01-.16-.01-.05.09-.09.18-.13.27.1.01.19.01.29.02 0 .42.01.84.01 1.27-.26 0-.53-.01-.79-.01-.03.09-.05.19-.08.28.29 0 .58.01.87.01 0 .38.01.77.01 1.15h-1.13c-.01.09-.03.19-.04.28h1.17c0 .42.01.84.01 1.26-.42-.03-.83-.05-1.25-.08v.28c.42.03.83.05 1.25.08 0 .42.01.84.01 1.26-.46.03-.88.03-1.3.03v.28c.42 0 .84.01 1.27.01l.03 1.77h.28l-.03-1.76c.36 0 .71.01 1.07.01.02.58.06 1.17.09 1.75h.28l-.09-1.75c.49 0 .99.01 1.48.02 0 .58.01 1.16.01 1.73h.28c0-.58-.01-1.15-.01-1.73.38 0 .75 0 1.13.01l.03 1.73h.28l-.03-1.73h1.07c.02.58.06 1.15.09 1.72h.28l-.09-1.72h1.48c0 .57.01 1.15.01 1.72h.28c0-.57-.01-1.15-.01-1.72h1.41l.03 1.72h.28l-.03-1.72h1.07c.02.58.06 1.15.09 1.73h.28l-.09-1.73c.42 0 .84-.01 1.26-.01l.03 1.74h.28l-.03-1.74c.36 0 .71-.01 1.07-.01.02.58.06 1.17.09 1.75h.28l-.09-1.76c.49 0 .99-.01 1.48-.01 0 .59.01 1.18.01 1.77h.28c0-.59-.01-1.18-.01-1.77.38 0 .75-.01 1.13-.01l.03 1.78h.28l-.03-1.79c.36-.01.71-.01 1.07-.02.02.6.06 1.21.09 1.81h.28c-.03-.61-.07-1.21-.09-1.82l1.49-.03c0 .61.01 1.23.01 1.84h.28c0-.62-.01-1.23-.01-1.85h.12v-.28h-.12c0-.4 0-.8-.01-1.2.04 0 .08-.01.13-.01v-.28c-.04 0-.09.01-.13.01 0-.43 0-.87-.01-1.3h.06c.03-.1.02-.2.01-.29zm-19.96-2.63l1 .06c0 .4.01.8.01 1.2-.33 0-.67-.01-1-.01 0-.41-.01-.83-.01-1.25zm.01 1.54c.33 0 .67.01 1 .01 0 .38 0 .76.01 1.14h-1c0-.39 0-.77-.01-1.15zm.02 1.43h1c.01.45.03.89.04 1.34l-1.03-.06c-.01-.43-.01-.85-.01-1.28zm.02 2.81c-.01-.42-.01-.83-.01-1.25l1.04.06c.01.4.02.8.04 1.2-.36 0-.71 0-1.07-.01zm1.24-7.34h1.57v1.43c-.53-.02-1.06-.05-1.59-.08.01-.45.02-.9.02-1.35zm-.01 1.63c.53.03 1.06.05 1.59.08v1.13c-.53 0-1.05-.01-1.58-.02 0-.39-.01-.79-.01-1.19zm.02 1.48c.52 0 1.05.01 1.57.02 0 .37 0 .75.01 1.12h-1.57c-.01-.38-.01-.76-.01-1.14zm.01 1.42h1.56c0 .48 0 .95.01 1.43-.51-.02-1.02-.05-1.53-.07-.01-.46-.03-.91-.04-1.36zm.09 2.83c-.02-.4-.02-.79-.04-1.19.51.03 1.02.05 1.52.07 0 .38 0 .76.01 1.13-.5 0-1-.01-1.49-.01zm1.74-9.05c.37 0 .73 0 1.1.01v1.39h-1.1c.01-.46.01-.93 0-1.4zm.01 1.68h1.1v1.48c-.37-.01-.73-.02-1.1-.04v-1.44zm0 1.73c.37.01.73.03 1.1.04 0 .36.01.73.01 1.09-.37 0-.74 0-1.11-.01v-1.12zm0 1.41c.37 0 .74 0 1.11.01 0 .37.01.74.01 1.11h-1.11c0-.38-.01-.75-.01-1.12zm.01 1.4h1.11c0 .49.01.99.01 1.48-.37-.01-.75-.02-1.12-.04V37.2zm.01 2.84c0-.37 0-.75-.01-1.12.37.02.75.03 1.12.04 0 .36 0 .73.01 1.09-.37 0-.74 0-1.12-.01zm1.36-10.42l1.05.03-.03 1.05h-1.03c.01-.35.01-.71.01-1.08zm0 1.37h1.02c-.01.46-.01.93-.01 1.39h-1.01v-1.39zm0 1.67h1.01c0 .51-.01 1.01-.01 1.52l-1-.03v-1.49zm0 1.78l1 .03c0 .35.01.7.01 1.05h-1c0-.36-.01-.72-.01-1.08zm.01 1.36h1c0 .37 0 .74.01 1.1h-1c0-.36 0-.73-.01-1.1zm.02 1.39h1c.01.51.03 1.02.05 1.52l-1.04-.03c-.01-.49-.01-.99-.01-1.49zm.02 2.86c0-.36-.01-.72-.01-1.08l1.04.03.03 1.05H16.5zm1.29-10.39l1.52.03v1.02h-1.55l.03-1.05zm-.04 1.33h1.56v1.38h-1.57c.01-.45.01-.92.01-1.38zm-.01 1.67h1.57v1.56l-1.59-.03c.01-.51.02-1.02.02-1.53zm-.01 1.81l1.58.03v1.02h-1.58c.01-.35 0-.7 0-1.05zm.02 1.33h1.57c0 .37 0 .73.01 1.1h-1.57c-.01-.36-.01-.73-.01-1.1zm.01 1.39h1.56c0 .52.01 1.04.01 1.56l-1.53-.03c-.01-.51-.03-1.02-.04-1.53zm.09 2.86l-.03-1.04 1.52.03v1.02c-.5-.01-.99-.01-1.49-.01zm1.74-10.36c.46.01.93.01 1.39.01v1h-1.39v-1.01zm0 1.3h1.39v1.38H19.6c0-.46 0-.92-.01-1.38zm.01 1.67h1.38v1.58c-.46 0-.92-.01-1.38-.01v-1.57zm0 1.85c.46.01.92.01 1.38.01 0 .33.01.67.01 1H19.6v-1.01zm0 1.29h1.39c0 .37.01.73.01 1.1h-1.39c0-.36 0-.73-.01-1.1zm.01 1.39h1.4c0 .53.01 1.05.01 1.58-.47 0-.94-.01-1.4-.01 0-.53-.01-1.05-.01-1.57zm.01 2.86v-1.01c.47.01.94.01 1.4.01 0 .33 0 .67.01 1h-1.41zm1.64-10.34h1.05l-.03 1h-1.03c.01-.33.01-.67.01-1zm0 1.28h1.02c-.01.46-.01.92-.01 1.38h-1.01v-1.38zm0 1.67h1.01c0 .53-.01 1.06-.01 1.58h-1v-1.58zm.01 1.86h1c0 .33.01.67.01 1h-1c-.01-.33-.01-.66-.01-1zm.01 1.29h1c0 .37 0 .73.01 1.1h-1c-.01-.37-.01-.74-.01-1.1zm.01 1.38h1c.01.53.03 1.06.05 1.58H21.3c0-.53-.01-1.06-.01-1.58zm.03 2.86c0-.33-.01-.67-.01-1h1.04l.03 1h-1.06zM22.6 29.7c.43 0 .85-.01 1.28-.01v1c-.44 0-.87.01-1.31.01l.03-1zm-.03 1.29c.44 0 .88-.01 1.31-.01v1.39c-.44 0-.88 0-1.33.01.01-.47.01-.93.02-1.39zm-.02 1.66c.44 0 .89 0 1.33-.01v1.57c-.45.01-.89.01-1.34.01 0-.51.01-1.04.01-1.57zm0 1.87c.45 0 .89-.01 1.34-.01 0 .33.01.67.01 1-.45 0-.89.01-1.34.01-.01-.34-.01-.67-.01-1zm.01 1.28c.45 0 .89-.01 1.34-.01 0 .37.01.74.01 1.11-.44 0-.89 0-1.33.01-.02-.38-.02-.74-.02-1.11zm.02 1.38c.44 0 .89 0 1.33-.01 0 .52.01 1.05.01 1.57-.43.01-.87.01-1.3.01-.01-.51-.03-1.04-.04-1.57zm.08 2.87l-.03-1c.43 0 .86-.01 1.29-.01 0 .33 0 .67.01 1-.42 0-.84 0-1.27.01zm1.51-10.36c.35-.01.7-.01 1.05-.02l-.03 1.01c-.34 0-.68.01-1.03.01.01-.33 0-.67.01-1zm-.01 1.28c.34 0 .68-.01 1.02-.01-.01.47-.01.93-.01 1.4h-1.01v-1.39zm0 1.68h1.01c0 .52-.01 1.04-.01 1.56-.33.01-.67.01-1 .02v-1.58zm.01 1.85c.33-.01.67-.01 1-.02 0 .34.01.67.01 1.01-.33 0-.67.01-1 .01-.01-.33-.01-.66-.01-1zm.01 1.29c.33 0 .67-.01 1-.01 0 .37 0 .74.01 1.11h-1c0-.37-.01-.73-.01-1.1zm.01 1.39h1c.01.52.03 1.04.05 1.56-.35.01-.69.01-1.04.02 0-.54 0-1.06-.01-1.58zm.03 2.85c0-.33-.01-.67-.01-1 .35-.01.69-.01 1.04-.02l.03 1.01c-.36.01-.71.01-1.06.01zm1.25-9.07c.52-.01 1.04-.01 1.56-.01v1.41c-.52 0-1.05.01-1.57.01 0-.48 0-.94.01-1.41zm-.02 1.68c.52 0 1.05-.01 1.57-.01v1.51c-.53.02-1.06.03-1.59.05.01-.51.02-1.03.02-1.55zm0 1.84c.53-.01 1.06-.03 1.58-.05v1.05c-.53.01-1.05.01-1.58.01v-1.01zm.01 1.29c.52-.01 1.05-.01 1.57-.01 0 .37 0 .75.01 1.12-.52 0-1.05.01-1.57.01 0-.37 0-.74-.01-1.12zm.02 1.4c.52 0 1.04-.01 1.56-.01 0 .5 0 1.01.01 1.51-.51.02-1.02.03-1.53.05-.01-.51-.03-1.03-.04-1.55zm.08 2.85l-.03-1.01c.51-.01 1.01-.03 1.52-.05v1.05c-.49 0-.99.01-1.49.01zm1.75-9.08c.37 0 .73-.01 1.1-.01v1.41c-.37 0-.73 0-1.1.01v-1.41zm0 1.69c.37 0 .73 0 1.1-.01v1.47c-.37.02-.73.03-1.1.04v-1.5zm0 1.79c.37-.01.73-.03 1.1-.04 0 .36.01.72.01 1.08-.37.01-.74.01-1.1.01 0-.35 0-.7-.01-1.05zm.01 1.34c.37 0 .74-.01 1.11-.01 0 .38.01.75.01 1.13-.37 0-.74 0-1.11.01-.01-.38-.01-.76-.01-1.13zm.01 1.4c.37 0 .74 0 1.11-.01 0 .49.01.98.01 1.47-.37.02-.75.03-1.12.04v-1.5zm.01 2.84v-1.05c.37-.01.75-.03 1.12-.04 0 .36 0 .72.01 1.08-.38.01-.76.01-1.13.01zm1.35-7.37h1.01c0 .47-.01.94-.01 1.41-.33.02-.66.03-1 .05v-1.46zm.01 1.74c.33-.01.67-.03 1-.05 0 .37.01.75.01 1.12-.33.01-.67.01-1 .02-.01-.37-.01-.73-.01-1.09zm.01 1.37c.33 0 .67-.01 1-.02 0 .38 0 .77.01 1.15h-1c0-.37-.01-.75-.01-1.13zm.01 1.42h1c.01.47.03.94.04 1.41-.34.02-.69.04-1.03.05 0-.49 0-.98-.01-1.46zm.03 2.83c0-.36-.01-.73-.01-1.09.35-.02.69-.03 1.04-.05l.03 1.12c-.36 0-.71.01-1.06.02zm1.24-4.27l1.57-.03c0 .39 0 .78.01 1.18-.52 0-1.05 0-1.57.01 0-.4 0-.78-.01-1.16zm.02 1.43c.52 0 1.04 0 1.57-.01 0 .44 0 .88.01 1.32-.51.03-1.02.06-1.53.08-.03-.46-.04-.92-.05-1.39zm.08 2.81l-.03-1.13c.51-.03 1.02-.05 1.52-.08 0 .39 0 .79.01 1.19-.5 0-1 .01-1.5.02z" fill="#dfd7a3"/><path class="st5" d="M27.73 34.86v7.2h4.26v-3.7c0-2.6-1.01-4.98-2.65-6.76-.98.75-1.61 1.93-1.61 3.26z"/><path class="st6" d="M31.86 37.14h.06l-.03-.26v-.02h-.02v-.16c-.04-.21-.08-.42-.13-.63 0-.01 0-.02-.01-.03-.05-.2-.1-.39-.16-.59-.01-.02-.01-.04-.02-.06l-1.55.03c0-.38-.01-.75-.01-1.13l1.12-.06c-.02-.05-.05-.1-.07-.15l-.06-.12c-.33.02-.66.04-.99.05 0-.47.01-.93.01-1.4h.18a8.65 8.65 0 0 0-.46-.59v.31h-1.01v-.12c-.11.13-.21.27-.3.41h.02v1.47c-.2.01-.4.02-.61.02-.02.09-.04.19-.05.28.22-.01.44-.02.66-.02 0 .36.01.72.01 1.08-.23 0-.46.01-.69.01v.28c.23 0 .46 0 .7-.01 0 .38.01.75.01 1.13h-.71v.28h.71c0 .49.01.98.01 1.47l-.72.03v.28l.72-.03c0 .36 0 .72.01 1.08-.24 0-.49.01-.73.01v.28c.25 0 .49-.01.74-.01l.03 1.78h.28l-.03-1.79c.36-.01.71-.01 1.07-.02.02.6.06 1.21.09 1.81h.28c-.03-.61-.07-1.21-.09-1.82l1.49-.03c0 .61.01 1.23.01 1.84h.28c0-.62-.01-1.23-.01-1.85h.12v-.28h-.12c0-.4 0-.8-.01-1.2.04 0 .08-.01.13-.01v-.28c-.04 0-.09.01-.13.01-.02-.4-.02-.83-.02-1.27zm-3.17-4.51h1.01c0 .47-.01.94-.01 1.41-.33.02-.66.03-1 .05v-1.46zm.01 1.74c.33-.01.67-.03 1-.05 0 .37.01.75.01 1.12-.33.01-.67.01-1 .02-.01-.37-.01-.73-.01-1.09zm.01 1.37c.33 0 .67-.01 1-.02 0 .38 0 .77.01 1.15h-1c0-.37-.01-.75-.01-1.13zm.01 1.42h1c.01.47.03.94.04 1.41-.34.02-.69.04-1.03.05 0-.49 0-.98-.01-1.46zm.03 2.83c0-.36-.01-.73-.01-1.09.35-.02.69-.03 1.04-.05l.03 1.12c-.36 0-.71.01-1.06.02zm1.24-4.27l1.57-.03c0 .39 0 .78.01 1.18-.52 0-1.05 0-1.57.01 0-.4 0-.78-.01-1.16zm.02 1.43c.52 0 1.04 0 1.57-.01 0 .44 0 .88.01 1.32-.51.03-1.02.06-1.53.08-.03-.46-.04-.92-.05-1.39zm.08 2.81l-.03-1.13c.51-.03 1.02-.05 1.52-.08 0 .39 0 .79.01 1.19-.5 0-1 .01-1.5.02z"/><path class="st7" d="M18.29 25.42l-.1.26c-.21.56-.32 1.15-.32 1.75v3.5c0 1.7 1.38 3.08 3.08 3.08h.06c1.7 0 3.08-1.38 3.08-3.08V27c0-.31-.05-.62-.16-.92l-.2-.57c-.89-2.55-4.48-2.61-5.44-.09z"/><linearGradient id="SVGID_5_" gradientUnits="userSpaceOnUse" x1="17.864" y1="26.839" x2="24.089" y2="26.839"><stop offset="0" stop-color="#6b332b"/><stop offset="1" stop-color="#985448"/></linearGradient><path d="M24.09 28.78v-2.71c0-1.7-1.38-3.08-3.08-3.08h-.06c-1.7 0-3.08 1.38-3.08 3.08v3.6c0 .13 1.54 1.01 2.4 1.01 1.56 0 2.94-.74 3.82-1.9z" fill="url(#SVGID_5_)"/><path class="st7" d="M21.26 31.67h-.17c-4.69 0-8.49-3.79-8.49-8.48l-.19-8.13a7.68 7.68 0 0 1 7.67-7.68h1.8a7.68 7.68 0 0 1 7.68 7.67l.19 8.13c-.01 4.69-3.8 8.49-8.49 8.49z"/><path d="M13.04 14.64c0-.66.29-1.24.74-1.65.48-.43.75-1.03.75-1.67V9.77a7.667 7.667 0 0 0-2.12 5.3l.07 2.89c.31 0 .56-.25.56-.56v-2.76zm15.97 0c0-.66-.29-1.24-.74-1.65a2.23 2.23 0 0 1-.75-1.67V9.77a7.667 7.667 0 0 1 2.12 5.3l-.07 2.89a.56.56 0 0 1-.56-.56v-2.76z" fill="#bd8d68"/><path class="st5" d="M14.68 34.91v7.2h-4.26v-3.7c0-2.6 1.01-4.98 2.65-6.76.98.75 1.61 1.93 1.61 3.26z"/><path class="st6" d="M10.55 38.49c-.04 0-.09-.01-.13-.01v.28c.04 0 .08.01.13.01 0 .4 0 .8-.01 1.2h-.12v.28h.12c0 .62-.01 1.23-.01 1.85h.28c0-.61.01-1.23.01-1.84l1.49.03c-.02.61-.06 1.21-.09 1.82h.28c.03-.6.07-1.21.09-1.81.36.01.71.01 1.07.02l-.03 1.79h.28l.03-1.78c.25 0 .49.01.74.01v-.28c-.24 0-.49-.01-.73-.01 0-.36.01-.72.01-1.08l.72.03v-.3l-.72-.03c.01-.49.01-.98.01-1.47h.71v-.28h-.71c0-.38.01-.75.01-1.13.23 0 .46.01.7.01v-.28c-.23 0-.46 0-.69-.01 0-.36.01-.72.01-1.08.22.01.44.02.66.02-.01-.1-.03-.19-.05-.28-.2-.01-.4-.01-.61-.02v-1.47h.02c-.09-.14-.19-.28-.3-.41v.12h-1.01v-.31a.5.5 0 0 1-.07.08l-.39.51h.18c0 .47.01.93.01 1.4-.33-.02-.66-.04-.99-.05l-.06.12c-.02.05-.05.1-.07.15l1.12.06c0 .38-.01.75-.01 1.13l-1.55-.03c-.01.02-.01.04-.02.06-.06.19-.11.39-.16.59 0 .01 0 .02-.01.03-.05.21-.09.42-.13.63v.16h-.02v.02l-.03.26h.06c-.01.42-.01.86-.02 1.29zm3.17-4.36c-.33-.01-.66-.03-1-.05 0-.47-.01-.94-.01-1.41h1.01v1.46zm-.01 1.37c-.33 0-.67-.01-1-.02 0-.37.01-.75.01-1.12.33.02.66.03 1 .05 0 .37-.01.73-.01 1.09zm-.01 1.42h-1c.01-.38.01-.77.01-1.15.33.01.67.01 1 .02-.01.37-.01.75-.01 1.13zm-.02 1.74c-.34-.02-.69-.03-1.03-.05.01-.47.03-.94.04-1.41h1c0 .49 0 .97-.01 1.46zm-1.07 1.35l.03-1.12c.35.02.69.04 1.04.05 0 .36-.01.73-.01 1.09-.36 0-.71-.01-1.06-.02zm-.2-3.09c-.52 0-1.05 0-1.57-.01 0-.39 0-.78.01-1.18l1.57.03c0 .39 0 .77-.01 1.16zm-.04 1.68c-.51-.03-1.02-.05-1.53-.08 0-.44 0-.88.01-1.32.52 0 1.04 0 1.57.01-.02.45-.04.92-.05 1.39zm-1.54 1.38c0-.39 0-.79.01-1.19.51.03 1.01.06 1.52.08L12.33 40c-.5 0-1-.01-1.5-.02z"/><path transform="rotate(-180 14.565 37.952)" class="st10" d="M13.92 33.8h1.3v8.31h-1.3z"/><path class="st7" d="M13.07 21.04c-.68.92-1.97 1.11-2.89.44a2.073 2.073 0 0 1-.44-2.89c.68-.92 1.97-1.11 2.89-.44.93.68 1.12 1.97.44 2.89z"/><path class="st11" d="M10.89 21.18a.087.087 0 0 1-.06-.08c0-.05.04-.09.08-.09a1.182 1.182 0 0 0 .78-2.04c-.23-.22-.53-.33-.84-.32-.05 0-.09-.04-.09-.08 0-.05.04-.09.08-.09a1.35 1.35 0 0 1 1.39 1.32c.02.75-.57 1.37-1.32 1.39 0-.01-.01-.01-.02-.01z"/><path class="st11" d="M10.84 19.93c-.02-.01-.04-.02-.05-.05-.02-.04 0-.09.04-.11.41-.18.89-.15 1.27.09.04.03.05.08.03.12-.03.04-.08.05-.12.03-.33-.21-.75-.24-1.11-.08-.01.01-.04.01-.06 0z"/><path class="st10" d="M27.2 33.75h1.3v8.31h-1.3z"/><path class="st7" d="M28.76 18.58c.68-.92 1.97-1.11 2.89-.44.92.68 1.11 1.97.44 2.89-.68.92-1.97 1.11-2.89.44a2.063 2.063 0 0 1-.44-2.89z"/><path class="st11" d="M30.94 18.45c.03.01.06.04.06.08 0 .05-.04.09-.08.09a1.182 1.182 0 0 0-.78 2.04c.23.22.53.33.84.32.05 0 .09.04.09.08 0 .05-.04.09-.08.09a1.35 1.35 0 0 1-1.39-1.32c-.02-.75.57-1.37 1.32-1.39 0 0 .01 0 .02.01z"/><path class="st11" d="M30.99 19.87c.02-.01.04-.02.05-.05.02-.04 0-.09-.04-.11-.41-.18-.89-.15-1.27.09-.04.03-.05.08-.03.12.03.04.08.05.12.03.33-.21.75-.24 1.11-.08.02.01.04.01.06 0z"/><path class="st12" d="M19.49 18.59c0 .36-.29.64-.64.64-.36 0-.64-.29-.64-.64s.29-.64.64-.64c.35 0 .64.29.64.64z"/><path d="M22.01 28.37h-1.6c-3.25 0-6.14 1.57-7.97 3.99a8.448 8.448 0 0 0 8.38 7.37h.44c4.43 0 8.06-3.41 8.42-7.75-1.84-2.2-4.6-3.61-7.67-3.61z" opacity=".3" fill="#745032"/><path class="st12" d="M24.05 18.59c0 .36-.29.64-.64.64-.36 0-.64-.29-.64-.64s.29-.64.64-.64c.35 0 .64.29.64.64z"/><path class="st14" d="M28.84 19.77v3.74c0 .88-.77 1.57-1.66 1.46-.75-.1-1.27-.79-1.27-1.54-.01-1.21-1-2.19-2.22-2.19h-5.3c-1.24 0-2.19 1.01-2.22 2.25-.02.75-.57 1.42-1.32 1.49-.88.08-1.61-.6-1.61-1.46v-4.04a.86.86 0 0 0-.86.86v9.82c0 4.66 3.78 8.45 8.45 8.45h.44c4.66 0 8.45-3.78 8.45-8.45v-9.53a.877.877 0 0 0-.88-.86zm-12.59-2.46c-.07 0-.15-.01-.22-.05a.562.562 0 0 1-.3-.74c.34-.81 1.06-1.39 1.93-1.56.86-.17 1.75.1 2.37.72.22.22.22.58 0 .8-.22.22-.58.22-.8 0-.36-.35-.86-.51-1.35-.41-.49.1-.9.43-1.1.89-.1.22-.31.35-.53.35zm9.31 0c-.22 0-.43-.13-.52-.35a1.508 1.508 0 0 0-2.45-.48c-.22.22-.58.22-.8 0a.567.567 0 0 1 0-.8c.62-.62 1.51-.89 2.37-.72.86.17 1.58.75 1.93 1.56.12.29-.01.62-.3.74-.08.04-.16.05-.23.05z"/><path d="M21.67 25.99h-1.09c-1.11 0-2.02-.9-2.02-2.02v-.39h5.12v.39c0 1.12-.9 2.02-2.01 2.02z" fill="#fff"/><path d="M21.4 22.43h-.39c-.56 0-1.02-.46-1.02-1.02V19.9c0-.56.46-1.02 1.02-1.02h.39c.56 0 1.02.46 1.02 1.02v1.51c0 .56-.46 1.02-1.02 1.02z" fill="#f7a99a"/><path d="M21.54 22.38c.37-.11.67-.39.8-.75-.42 0-.77.33-.8.75zm-1.47-.75c.13.34.4.61.75.73a.804.804 0 0 0-.75-.73z" fill="#f18572"/><path d="M26.28 5.01c-1.78-1.82-4.58-1.99-6.78-.69-.38.22-.82.35-1.3.35h-.56c-1.08 0-1.99-.67-2.37-1.61-.21.19-.54.94-.9 1.87-1.04 2.67.39 5.7 3.12 6.55.48.15.98.29 1.5.4.41.09.83.13 1.26.13h8.14c.29 0 .53-.24.53-.53a9.27 9.27 0 0 0-2.64-6.47z" fill="#957051"/><path class="st14" d="M17.5 22.28c.01.05.02.11.02.17a.86.86 0 1 1-1.31-.73h-.01a1.82 1.82 0 1 0 1.82 1.82c-.01-.49-.2-.94-.52-1.26zm7.07.03a.88.88 0 0 0-.02.17.86.86 0 1 0 1.31-.73h.01a1.82 1.82 0 1 1-1.82 1.82c.02-.49.21-.93.52-1.26z"/></g></g></svg>