<?xml version="1.0" encoding="utf-8"?>
<!-- Generator: Adobe Illustrator 23.0.1, SVG Export Plug-In . SVG Version: 6.00 Build 0)  -->
<svg version="1.1" id="Layer_1" xmlns="http://www.w3.org/2000/svg" xmlns:xlink="http://www.w3.org/1999/xlink" x="0px" y="0px"
	 viewBox="0 0 180 4.4" style="enable-background:new 0 0 180 4.4;" xml:space="preserve">
<style type="text/css">
	.st0{fill:#BABABA;}
</style>
<g>
	<path class="st0" d="M73.5,2.2c0,0-7.4,1.4-9.8,1.7l-0.4,0.4c0,0-47.4-2-52.8-2C5.1,2.4,0,2.4,0,2.4V2.1c0,0,5.1,0,10.5,0
		c5.4,0,52.8-2,52.8-2l0.4,0.4C66.2,0.7,73.5,2.1,73.5,2.2"/>
	<path class="st0" d="M75.3,4.4c1.2,0,2.2-1,2.2-2.2S76.5,0,75.3,0c-1.2,0-2.2,1-2.2,2.2S74.1,4.4,75.3,4.4z"/>
	<path class="st0" d="M90,3.7c-6.8,0-13-1.5-13-1.5c0-0.1,6.5-1.6,13-1.6c6.4,0,13,1.5,13,1.6C103,2.2,96.8,3.7,90,3.7z"/>
	<path class="st0" d="M106.5,2.2c0,0,7.4,1.4,9.8,1.7l0.4,0.4c0,0,47.4-2,52.8-2c5.4,0,10.5,0,10.5,0V2.1c0,0-5.1,0-10.5,0
		c-5.4,0-52.8-2-52.8-2l-0.4,0.4C113.8,0.7,106.5,2.1,106.5,2.2"/>
	<path class="st0" d="M104.7,4.4c-1.2,0-2.2-1-2.2-2.2s1-2.2,2.2-2.2s2.2,1,2.2,2.2S105.9,4.4,104.7,4.4z"/>
</g>
</svg>
