<?xml version="1.0" encoding="utf-8"?>
<!-- Generator: Adobe Illustrator 23.0.1, SVG Export Plug-In . SVG Version: 6.00 Build 0)  -->
<svg version="1.1" id="Layer_1" xmlns="http://www.w3.org/2000/svg" xmlns:xlink="http://www.w3.org/1999/xlink" x="0px" y="0px"
	 viewBox="0 0 501.4 92.7" style="enable-background:new 0 0 501.4 92.7;" xml:space="preserve">
<style type="text/css">
	.st0{fill:#004185;}
	.st1{fill:#ED1C24;}
	.st2{fill:#010101;}
</style>
<path class="st0" d="M16.3,29.8l-9.5,6.9l3.6-11.2l-9.5-6.9h11.8l3.6-11.2l3.6,11.2h11.8l-9.5,6.9l1.9,5.8c5.8-3.5,12.6-7.3,20-11.2
	l-4.7-3.4l-5.4,3.9l2.1-6.4l-5.4-3.9h6.7L39.4,4l2.1,6.4h6.7l-5.4,3.9l1.8,5.6c4.3-2.2,8.9-4.4,13.7-6.6l-2.6-1.9l-4,2.9l1.5-4.7
	l-4-2.9h4.9l1.5-4.7l1.5,4.7h4.9l-4,2.9l1,3.2C68,9,77.4,5.3,87.4,2.1H0v45.4c0,0,7.8-6.1,21-14.3L16.3,29.8z"/>
<path class="st1" d="M0,54.1v4.4c0,0,40.5-22.1,87.7-37.6c0-3.9,0-9.2,0-9.2S39.9,27.6,0,54.1z"/>
<path class="st1" d="M0,63.6v4.4c0,0,44.6-15.9,87.7-28.3c0-3.9,0-8.4,0-8.4S43.7,42.8,0,63.6z"/>
<path class="st1" d="M0,72.5v4.4c0,0,38.2-9.7,87.7-20c0-3,0-7.5,0-7.5S38.8,60.3,0,72.5z"/>
<path class="st1" d="M0,80.6v3c0,0,63.7-7.1,87.7-9.2c0-2.1,0-7.5,0-7.5L0,80.6z"/>
<polygon class="st1" points="0,86.8 0,90.9 87.7,90.9 87.7,83.1 "/>
<g>
	<path class="st0" d="M114.9,48.3l-3.9,9.8H95.3l21.8-56.6h16.1l21.3,56.6h-15.7l-3.7-9.8H114.9z M125.2,19H125l-6.1,18h12.2
		L125.2,19z"/>
	<path class="st0" d="M165.3,1.5h14.5l11.5,30.3l12.2-30.3h14.6l8.6,56.6H212l-4.1-32.6h-0.2l-13.6,32.6h-5.9l-13-32.6h-0.2
		l-4.7,32.6h-14.6L165.3,1.5z"/>
	<path class="st0" d="M244.6,14v9.5h16.6v12.5h-16.6v9.8h17.5v12.5h-32.2V1.5h32.2V14H244.6z"/>
	<path class="st0" d="M315.3,58.1h-18.3l-13.9-21.8h-0.1v21.8h-14.7V1.5h22c11.2,0,19.7,5.3,19.7,17.4c0,7.8-4.4,14.6-12.4,16
		L315.3,58.1z M282.9,26.9h1.4c4.8,0,10.2-0.9,10.2-7.1c0-6.2-5.4-7.1-10.2-7.1h-1.4V26.9z"/>
	<path class="st0" d="M334,58.1h-14.7V1.5H334V58.1z"/>
	<path class="st0" d="M381,20.5c-3-4.1-7.9-6.2-12.9-6.2c-9,0-15.1,6.9-15.1,15.7c0,8.9,6.2,15.4,15.3,15.4c4.8,0,9.6-2.3,12.7-6V57
		c-4.9,1.5-8.4,2.6-13,2.6c-7.9,0-15.4-3-21.2-8.3c-6.2-5.6-9.1-13-9.1-21.4c0-7.7,2.9-15.2,8.3-20.7c5.6-5.7,13.6-9.2,21.6-9.2
		c4.7,0,9.1,1.1,13.4,2.9V20.5z"/>
	<path class="st0" d="M403,48.3l-3.9,9.8h-15.6l21.8-56.6h16.1l21.3,56.6H427l-3.7-9.8H403z M413.3,19h-0.2l-6.1,18h12.2L413.3,19z"
		/>
	<path class="st0" d="M463.4,1.5l-13.8,24.9h-8.7l9.8-24.9H463.4z"/>
	<path class="st0" d="M493.2,16.1c-2.7-2.3-6.2-3.8-9.8-3.8c-2.7,0-6.3,1.6-6.3,4.7c0,3.3,4,4.6,6.5,5.4l3.8,1.1
		c7.9,2.3,14,6.3,14,15.5c0,5.6-1.4,11.4-5.9,15.2c-4.4,3.8-10.4,5.3-16.1,5.3c-7.1,0-14.1-2.4-19.9-6.5l6.3-11.9
		c3.7,3.2,8,5.9,13.1,5.9c3.5,0,7.1-1.7,7.1-5.7c0-4.1-5.8-5.6-8.9-6.5c-9.2-2.6-15.3-5-15.3-16c0-11.5,8.2-19,19.5-19
		c5.7,0,12.7,1.8,17.7,4.7L493.2,16.1z"/>
	<path class="st2" d="M112.5,78.6v-8.9h2.4v21.9h-2.4V80.9h-11.2v10.7h-2.4V69.7h2.4v8.9H112.5z"/>
	<path class="st2" d="M119.4,69.7h11.3V72h-8.9v6.5h8.6v2.3h-8.6v8.6h8.9v2.3h-11.3V69.7z"/>
	<path class="st2" d="M138.2,85.4l-2.6,6.2h-2.7L143,68.7l9.8,22.9h-2.7l-2.6-6.2H138.2z M142.9,74.4l-3.7,8.8h7.4L142.9,74.4z"/>
	<path class="st2" d="M157.6,91.6h-2.4V69.7h3.2c4.1,0,8,1.1,8,6c0,3.4-2.1,5.7-5.5,6l7,9.8h-3l-6.6-9.6h-0.6V91.6z M157.6,79.9h0.8
		c2.8,0,5.5-0.5,5.5-3.9c0-3.6-2.6-3.9-5.6-3.9h-0.7V79.9z"/>
	<path class="st2" d="M176.1,91.6h-2.4V72h-5.3v-2.3h13.1V72h-5.3V91.6z"/>
	<path class="st2" d="M197.7,78.6v-8.9h2.4v21.9h-2.4V80.9h-11.2v10.7h-2.4V69.7h2.4v8.9H197.7z"/>
	<path class="st2" d="M225.9,88.5c-1.9,1.7-4.3,3.5-7,3.5c-3.3,0-6.4-2.5-6.4-6c0-3.7,2.6-5.4,5.4-7.2l0.3-0.2
		c-1-1.4-2.2-2.8-2.2-4.6c0-2.8,2.1-4.6,4.8-4.6c2.5,0,4.6,1.7,4.6,4.3c0,2.6-2,4-3.9,5.5l4.6,5.9l2.5-2.9l1.8,1.5l-2.8,3.2l3.7,4.8
		h-3.1L225.9,88.5z M218.5,81.1c-1.7,1.1-3.6,2.5-3.6,4.7c0,2.1,1.8,3.9,3.9,3.9c2.2,0,4.1-1.7,5.7-3.1l-4.9-6.3L218.5,81.1z
		 M220.4,77.2c1.2-1,2.7-1.8,2.7-3.5c0-1.3-1.1-2.2-2.4-2.2c-1.3,0-2.4,1-2.4,2.4c0,1.1,0.7,1.9,1.3,2.8l0.5,0.7L220.4,77.2z"/>
	<path class="st2" d="M245.1,91.6h-2.4V69.7h3.6c1.9,0,3.8,0.1,5.4,1.2c1.6,1.1,2.5,3,2.5,5c0,1.8-0.7,3.6-2.1,4.7
		c-1.5,1.2-3.4,1.5-5.2,1.5h-1.8V91.6z M245.1,79.8h1.6c2.7,0,5-0.8,5-3.9c0-3.6-2.9-3.8-5.7-3.8h-0.9V79.8z"/>
	<path class="st2" d="M258.2,85.4l-2.6,6.2h-2.7L263,68.7l9.8,22.9h-2.7l-2.6-6.2H258.2z M263,74.4l-3.7,8.8h7.4L263,74.4z"/>
	<path class="st2" d="M278.7,91.6h-2.4V72H271v-2.3h13.1V72h-5.3V91.6z"/>
	<path class="st2" d="M289,91.6h-2.4V69.7h2.4V91.6z"/>
	<path class="st2" d="M315.2,80.7c0,6.3-5.2,11.3-11.4,11.3c-6.2,0-11.4-5-11.4-11.3c0-6.3,5.2-11.3,11.4-11.3
		C310,69.4,315.2,74.4,315.2,80.7z M294.8,80.7c0,4.9,4,9,9,9c5,0,9-4.1,9-9c0-5-3.9-9-9-9C298.8,71.6,294.8,75.7,294.8,80.7z"/>
	<path class="st2" d="M334,86.1l7.1-17.5l7.1,17.5l5.7-16.4h2.6l-8.4,23L341,75.1L334,92.7l-8.4-23h2.6L334,86.1z"/>
	<path class="st2" d="M359.4,85.4l-2.6,6.2h-2.7l10.1-22.9l9.8,22.9h-2.7l-2.6-6.2H359.4z M364.2,74.4l-3.7,8.8h7.4L364.2,74.4z"/>
	<path class="st2" d="M378.9,91.6h-2.4V69.7h3.2c4.1,0,8,1.1,8,6c0,3.4-2.1,5.7-5.5,6l7,9.8h-3l-6.6-9.6h-0.6V91.6z M378.9,79.9h0.8
		c2.8,0,5.5-0.5,5.5-3.9c0-3.6-2.6-3.9-5.6-3.9h-0.7V79.9z"/>
	<path class="st2" d="M392.1,69.7h11.3V72h-8.9v6.5h8.6v2.3h-8.6v8.6h8.9v2.3h-11.3V69.7z"/>
	<path class="st2" d="M421.4,78.6v-8.9h2.4v21.9h-2.4V80.9h-11.2v10.7h-2.4V69.7h2.4v8.9H421.4z"/>
	<path class="st2" d="M450,80.7c0,6.3-5.2,11.3-11.4,11.3c-6.2,0-11.4-5-11.4-11.3c0-6.3,5.2-11.3,11.4-11.3
		C444.9,69.4,450,74.4,450,80.7z M429.7,80.7c0,4.9,4,9,9,9c5,0,9-4.1,9-9c0-5-3.9-9-9-9C433.6,71.6,429.7,75.7,429.7,80.7z"/>
	<path class="st2" d="M455.7,82.8c0,1.6-0.1,3.5,1,4.9c1,1.3,2.8,2.1,4.4,2.1c1.6,0,3.3-0.7,4.3-1.9c1.2-1.4,1.1-3.3,1.1-5v-13h2.4
		v13.7c0,2.4-0.2,4.3-1.9,6.1c-1.5,1.6-3.7,2.5-5.9,2.5c-2.1,0-4.2-0.8-5.7-2.2c-1.9-1.8-2.1-3.8-2.1-6.3V69.7h2.4V82.8z"/>
	<path class="st2" d="M483.1,74c-0.9-1.5-1.9-2.4-3.8-2.4c-1.9,0-3.6,1.4-3.6,3.4c0,1.9,1.9,2.8,3.4,3.4l1.5,0.6
		c2.8,1.2,5.2,2.7,5.2,6.1c0,3.8-3.1,6.8-6.9,6.8c-3.5,0-6.1-2.3-6.8-5.7l2.4-0.7c0.3,2.2,2,4.1,4.4,4.1c2.3,0,4.5-1.8,4.5-4.3
		c0-2.6-2-3.4-4-4.4l-1.3-0.6c-2.6-1.2-4.8-2.5-4.8-5.6c0-3.4,2.9-5.6,6.1-5.6c2.4,0,4.5,1.2,5.7,3.4L483.1,74z"/>
	<path class="st2" d="M489.4,69.7h11.3V72h-8.9v6.5h8.6v2.3h-8.6v8.6h8.9v2.3h-11.3V69.7z"/>
</g>
</svg>
