<?xml version="1.0" encoding="utf-8"?>
<!-- Generator: Adobe Illustrator 23.0.1, SVG Export Plug-In . SVG Version: 6.00 Build 0)  -->
<svg version="1.1" id="Layer_1" xmlns="http://www.w3.org/2000/svg" xmlns:xlink="http://www.w3.org/1999/xlink" x="0px" y="0px"
	 viewBox="0 0 518.8 104" style="enable-background:new 0 0 518.8 104;" xml:space="preserve">
<style type="text/css">
	.st0{fill:#D32027;}
	.st1{fill:#132147;}
	.st2{fill:#231F20;}
</style>
<g>
	<g>
		<rect x="62.1" class="st0" width="92.7" height="7.9"/>
		<rect x="62.1" y="15.7" class="st0" width="92.7" height="7.9"/>
		<rect x="62.1" y="31.9" class="st0" width="92.7" height="7.9"/>
		<rect x="62.1" y="47.8" class="st0" width="92.7" height="7.9"/>
		<rect x="0.4" y="62.9" class="st0" width="154.3" height="7.9"/>
		<rect x="0.4" y="78.7" class="st0" width="154.3" height="7.9"/>
		<rect x="0.4" y="95" class="st0" width="154.3" height="7.9"/>
	</g>
	<path class="st1" d="M0,0v55.7h62.5V0H0z M46,5.7l0.7-1.6l0.8,1.5l1.7,0.2l-1.2,1.3l0.3,1.7L46.8,8l-1.5,0.9l0.3-1.7L44.3,6L46,5.7
		z M46,16.5l0.7-1.6l0.8,1.5l1.7,0.2l-1.2,1.3l0.3,1.7l-1.6-0.8l-1.5,0.9l0.3-1.7l-1.3-1.2L46,16.5z M46,27.3l0.7-1.6l0.8,1.6
		l1.7,0.2l-1.2,1.3l0.3,1.7l-1.6-0.8l-1.5,0.9l0.3-1.7l-1.3-1.2L46,27.3z M46,38.1l0.7-1.6l0.8,1.6l1.7,0.2l-1.2,1.3l0.3,1.7
		l-1.6-0.8l-1.5,0.9l0.3-1.7l-1.3-1.2L46,38.1z M35.9,5.7l0.7-1.6l0.8,1.5l1.7,0.2L38,7.1l0.3,1.7L36.7,8l-1.5,0.9l0.3-1.7L34.2,6
		L35.9,5.7z M35.9,16.5l0.7-1.6l0.8,1.5l1.7,0.2L38,17.9l0.3,1.7l-1.6-0.8l-1.5,0.9l0.3-1.7l-1.3-1.2L35.9,16.5z M35.9,27.3l0.7-1.6
		l0.8,1.6l1.7,0.2L38,28.7l0.3,1.7l-1.6-0.8l-1.5,0.9l0.3-1.7l-1.3-1.2L35.9,27.3z M35.9,38.1l0.7-1.6l0.8,1.6l1.7,0.2L38,39.6
		l0.3,1.7l-1.6-0.8l-1.5,0.9l0.3-1.7l-1.3-1.2L35.9,38.1z M25.8,5.7l0.7-1.6l0.8,1.5l1.7,0.2l-1.2,1.3l0.3,1.7L26.7,8l-1.5,0.9
		l0.3-1.7L24.1,6L25.8,5.7z M25.8,16.5l0.7-1.6l0.8,1.5l1.7,0.2l-1.2,1.3l0.3,1.7l-1.6-0.8l-1.5,0.9l0.3-1.7l-1.3-1.2L25.8,16.5z
		 M25.8,27.3l0.7-1.6l0.8,1.6l1.7,0.2l-1.2,1.3l0.3,1.7l-1.6-0.8l-1.5,0.9l0.3-1.7l-1.3-1.2L25.8,27.3z M25.8,38.1l0.7-1.6l0.8,1.6
		l1.7,0.2l-1.2,1.3l0.3,1.7l-1.6-0.8l-1.5,0.9l0.3-1.7l-1.3-1.2L25.8,38.1z M15.7,5.7l0.7-1.6l0.8,1.5L19,5.9l-1.2,1.3l0.3,1.7
		L16.6,8L15,8.9l0.3-1.7L14,6L15.7,5.7z M15.7,16.5l0.7-1.6l0.8,1.5l1.8,0.2l-1.2,1.3l0.3,1.7l-1.6-0.8L15,19.7l0.3-1.7L14,16.8
		L15.7,16.5z M15.7,27.3l0.7-1.6l0.8,1.6l1.8,0.2l-1.2,1.3l0.3,1.7l-1.6-0.8L15,30.5l0.3-1.7L14,27.6L15.7,27.3z M15.7,38.1l0.7-1.6
		l0.8,1.6l1.8,0.2l-1.2,1.3l0.3,1.7l-1.6-0.8L15,41.4l0.3-1.7L14,38.4L15.7,38.1z M5.6,5.7l0.7-1.6l0.8,1.5l1.8,0.2L7.7,7.1L8,8.8
		L6.5,8L4.9,8.9l0.3-1.7L3.9,6L5.6,5.7z M5.6,16.5l0.7-1.6l0.8,1.5l1.8,0.2l-1.2,1.3L8,19.6l-1.6-0.8l-1.5,0.9L5.2,18l-1.3-1.2
		L5.6,16.5z M5.6,27.3l0.7-1.6l0.8,1.6l1.8,0.2l-1.2,1.3L8,30.5l-1.6-0.8l-1.5,0.9l0.3-1.7l-1.3-1.2L5.6,27.3z M5.6,38.1l0.7-1.6
		l0.8,1.6l1.8,0.2l-1.2,1.3L8,41.3l-1.6-0.8l-1.5,0.9l0.3-1.7l-1.3-1.2L5.6,38.1z M8,52.1l-1.6-0.8l-1.5,0.9l0.3-1.7l-1.3-1.2
		l1.7-0.3l0.7-1.6l0.8,1.6l1.8,0.2l-1.2,1.3L8,52.1z M12.8,47.3l-1.6-0.8l-1.5,0.9l0.3-1.7l-1.3-1.2l1.7-0.3l0.7-1.6l0.8,1.6
		l1.7,0.2l-1.2,1.3L12.8,47.3z M12.5,34.6l0.3,1.7l-1.6-0.8l-1.5,0.9l0.3-1.7l-1.3-1.2l1.7-0.3l0.7-1.6l0.8,1.6l1.7,0.2L12.5,34.6z
		 M12.5,23.7l0.3,1.7l-1.6-0.8l-1.5,0.9l0.3-1.7l-1.3-1.2l1.7-0.3l0.7-1.6l0.8,1.5l1.7,0.2L12.5,23.7z M12.5,12.8l0.3,1.7l-1.6-0.8
		l-1.5,0.9l0.3-1.7l-1.3-1.2l1.7-0.3l0.7-1.6l0.8,1.6l1.7,0.2L12.5,12.8z M18.1,52.1l-1.6-0.8L15,52.2l0.3-1.7L14,49.2l1.7-0.3
		l0.7-1.6l0.8,1.6l1.8,0.2l-1.2,1.3L18.1,52.1z M22.9,47.3l-1.6-0.8l-1.5,0.9l0.3-1.7l-1.3-1.2l1.7-0.3l0.7-1.6l0.8,1.6l1.7,0.2
		l-1.2,1.3L22.9,47.3z M22.6,34.6l0.3,1.7l-1.6-0.8l-1.5,0.9l0.3-1.7l-1.3-1.2l1.7-0.3l0.7-1.6l0.8,1.6l1.7,0.2L22.6,34.6z
		 M22.6,23.7l0.3,1.7l-1.6-0.8l-1.5,0.9l0.3-1.7l-1.3-1.2l1.7-0.3l0.7-1.6l0.8,1.5l1.7,0.2L22.6,23.7z M22.6,12.8l0.3,1.7l-1.6-0.8
		l-1.5,0.9l0.3-1.7l-1.3-1.2l1.7-0.3l0.7-1.6l0.8,1.6l1.7,0.2L22.6,12.8z M28.2,52.1l-1.6-0.8l-1.5,0.9l0.3-1.7l-1.3-1.2l1.7-0.3
		l0.7-1.6l0.8,1.6l1.7,0.2l-1.2,1.3L28.2,52.1z M33,47.3l-1.6-0.8l-1.5,0.9l0.2-1.7l-1.3-1.2l1.7-0.3l0.7-1.6l0.8,1.6l1.7,0.2
		l-1.2,1.3L33,47.3z M32.7,34.6l0.3,1.7l-1.6-0.8l-1.5,0.9l0.2-1.7l-1.3-1.2l1.7-0.3l0.7-1.6l0.8,1.6l1.7,0.2L32.7,34.6z M32.7,23.7
		l0.3,1.7l-1.6-0.8l-1.5,0.9l0.2-1.7l-1.3-1.2l1.7-0.3l0.7-1.6l0.8,1.5l1.7,0.2L32.7,23.7z M32.7,12.8l0.3,1.7l-1.6-0.8l-1.5,0.9
		l0.2-1.7l-1.3-1.2l1.7-0.3l0.7-1.6l0.8,1.6l1.7,0.2L32.7,12.8z M38.3,52.1l-1.6-0.8l-1.5,0.9l0.3-1.7l-1.3-1.2l1.7-0.3l0.7-1.6
		l0.8,1.6l1.7,0.2L38,50.4L38.3,52.1z M43.1,47.3l-1.6-0.8L40,47.4l0.3-1.7L39,44.4l1.7-0.3l0.7-1.6l0.8,1.6l1.7,0.2l-1.2,1.3
		L43.1,47.3z M42.8,34.6l0.3,1.7l-1.6-0.8L40,36.4l0.3-1.7L39,33.5l1.7-0.3l0.7-1.6l0.8,1.6l1.7,0.2L42.8,34.6z M42.8,23.7l0.3,1.7
		l-1.6-0.8L40,25.5l0.3-1.7L39,22.6l1.7-0.3l0.7-1.6l0.8,1.5l1.7,0.2L42.8,23.7z M42.8,12.8l0.3,1.7l-1.6-0.8L40,14.6l0.3-1.7
		L39,11.7l1.7-0.3l0.7-1.6l0.8,1.6l1.7,0.2L42.8,12.8z M48.4,52.1l-1.6-0.8l-1.5,0.9l0.3-1.7l-1.3-1.2l1.7-0.3l0.7-1.6l0.8,1.6
		l1.7,0.2l-1.2,1.3L48.4,52.1z M53.2,47.3l-1.6-0.8l-1.5,0.9l0.3-1.7l-1.3-1.2l1.7-0.3l0.7-1.6l0.8,1.6l1.7,0.2l-1.2,1.3L53.2,47.3z
		 M52.9,34.6l0.3,1.7l-1.6-0.8l-1.5,0.9l0.3-1.7l-1.3-1.2l1.7-0.3l0.7-1.6l0.8,1.6l1.7,0.2L52.9,34.6z M52.9,23.7l0.3,1.7l-1.6-0.8
		l-1.5,0.9l0.3-1.7l-1.3-1.2l1.7-0.3l0.7-1.6l0.8,1.5l1.7,0.2L52.9,23.7z M52.9,12.8l0.3,1.7l-1.6-0.8l-1.5,0.9l0.3-1.7l-1.3-1.2
		l1.7-0.3l0.7-1.6l0.8,1.6l1.7,0.2L52.9,12.8z M58.5,52.1l-1.6-0.8l-1.5,0.9l0.3-1.7l-1.3-1.2l1.7-0.3l0.7-1.6l0.8,1.6l1.7,0.2
		l-1.2,1.3L58.5,52.1z M58.2,39.6l0.3,1.7l-1.6-0.8l-1.5,0.9l0.3-1.7l-1.3-1.2l1.7-0.3l0.7-1.6l0.8,1.6l1.7,0.2L58.2,39.6z
		 M58.2,28.7l0.3,1.7l-1.6-0.8l-1.5,0.9l0.3-1.7l-1.3-1.2l1.7-0.3l0.7-1.6l0.8,1.6l1.7,0.2L58.2,28.7z M58.2,17.9l0.3,1.7l-1.6-0.8
		l-1.5,0.9l0.3-1.7l-1.3-1.2l1.7-0.3l0.7-1.6l0.8,1.5l1.7,0.2L58.2,17.9z M58.2,7.1l0.3,1.7L56.9,8l-1.5,0.9l0.3-1.7L54.4,6l1.7-0.3
		l0.7-1.6l0.8,1.5l1.7,0.2L58.2,7.1z"/>
	<g>
		<g>
			<path class="st2" d="M201.5,74.8h3.7v28.4h-2.6V78.7h-0.1l-11.2,24.6h-2.4l-11.1-24.6h-0.1v24.6h-2.6V74.8h3.8l11.3,24.7
				L201.5,74.8z"/>
			<path class="st2" d="M228,94.6h-13.3l-3.4,8.6h-2.8l11.5-28.4h3l11.5,28.4h-3L228,94.6z M221.4,77.8l-5.6,14.1h11.2L221.4,77.8z"
				/>
			<path class="st2" d="M237.6,74.8h12.3c7.4,0,11.2,5.3,11.2,14.2c0,8-3.7,14.2-10.8,14.2h-12.7V74.8z M240.2,100.5h9.6
				c4.5,0,8.5-2.8,8.5-11.5c0-7.5-2.6-11.5-8.5-11.5h-9.6V100.5z"/>
			<path class="st2" d="M265.9,74.8h20.1v2.7h-17.5v9.6h16.9v2.7h-16.9v10.7h17.8v2.7h-20.4V74.8z"/>
			<path class="st2" d="M304.2,74.8h2.6v28.4h-2.6V74.8z"/>
			<path class="st2" d="M312.8,74.8h3.2l17.7,24.3h0.1V74.8h2.6v28.4h-3L315.5,79h-0.1v24.3h-2.6V74.8z"/>
			<path class="st2" d="M359.8,77.5h-9.9v-2.7h22.5v2.7h-9.9v25.7h-2.6V77.5z"/>
			<path class="st2" d="M375.7,74.8h2.6v12h18.3v-12h2.6v28.4h-2.6V89.6h-18.3v13.7h-2.6V74.8z"/>
			<path class="st2" d="M404.7,74.8h20.1v2.7h-17.5v9.6h16.9v2.7h-16.9v10.7h17.8v2.7h-20.4V74.8z"/>
			<path class="st2" d="M465.4,92.3c0,5.2-1.3,11.7-11.3,11.7c-10,0-11.3-6.5-11.3-11.7V74.8h2.6v17.4c0,7.4,4.3,9,8.7,9
				c4.4,0,8.7-1.6,8.7-9V74.8h2.6V92.3z"/>
			<path class="st2" d="M487.8,82.9c-0.4-4.9-3.9-6.1-7.9-6.1s-7.2,1.8-7.2,5c0,3.7,3.1,4.6,9.3,5.7c4.6,0.9,9.2,2.1,9.2,7.5
				c0,7-5.6,8.9-10.6,8.9c-6.4,0-11.1-2.5-11.5-10.1h2.6c0.5,6,4,7.4,8.9,7.4c3.8,0,7.7-1.2,7.7-5.7c0-4.3-4.6-4.9-9.2-5.7
				c-6-1.1-9.3-3-9.3-7.6c0-6.2,5.1-8.2,10-8.2c5.2,0,10.4,2.1,10.6,8.8H487.8z"/>
			<path class="st2" d="M512.4,94.6h-13.3l-3.4,8.6h-2.8l11.5-28.4h3l11.5,28.4h-3L512.4,94.6z M505.8,77.8l-5.6,14.1h11.2
				L505.8,77.8z"/>
		</g>
	</g>
</g>
</svg>
