<svg width="842" height="136" viewBox="0 0 842 136" xmlns="http://www.w3.org/2000/svg" xmlns:xlink="http://www.w3.org/1999/xlink"><title>Page 1</title><defs><path id="a" d="M88.89 86.41V.58H.562v85.83H88.89z"/><path id="c" d="M135.43 136H0V.571h135.43V136z"/></defs><g fill="none" fill-rule="evenodd"><path d="M199.755 56.736h42.134c7.022 0 12.172-3.746 14.046-12.017 1.404-7.022-.625-12.016-13.11-12.016h-37.92l-5.15 24.033zm-9.675 45.88h44.631c9.363 0 14.2-6.086 15.761-13.108 1.873-8.74-2.653-13.422-13.264-13.422h-41.51l-5.618 26.53zM179 12.416h83.646c16.228 0 29.806 7.49 25.436 28.09-1.872 8.583-8.427 19.04-19.663 22.316v.312c12.484 2.185 16.542 14.981 14.045 26.998-3.122 14.824-14.045 33.707-47.753 33.707H155.28L179 12.416zm139.524 0h27.465l-23.648 111.423h-27.465zm98.508 100.187h-.312c-6.397 7.022-21.067 14.358-37.14 14.358-14.2 0-34.8-5.462-29.495-30.119l12.016-56.649h27.465l-10.3 48.377c-2.497 11.55 2.497 17.166 15.138 17.166 14.825 0 24.97-8.27 28.247-23.719l8.895-41.824h27.466l-17.79 83.646h-26.53l2.34-11.236zm132.763-39.481l.157-.312c.937-4.527-1.874-18.571-22.004-18.571-21.691 0-29.806 16.54-30.118 18.57l-.156.313h52.121zm21.38 25.749c-12.171 19.818-32.928 28.09-58.053 28.09-33.082 0-52.433-13.422-45.722-44.943 6.71-31.524 31.679-44.944 64.762-44.944 36.204 0 49.78 18.257 43.07 49.78l-.466 2.498H494.24v.31c-1.716 7.96 3.745 20.132 22.471 20.132 11.08 0 19.663-3.745 25.125-10.923h29.339zm94.132-15.761c-5.619 2.497-11.393 3.12-16.856 3.589l-16.23 1.405c-9.83.779-15.292 3.432-16.853 10.923-1.56 7.49 4.525 11.704 14.825 11.704 13.89 0 30.742-6.71 33.71-20.755l1.404-6.866zm-66.95-17.323c8.74-25.75 33.085-28.713 55.557-28.713 39.326 0 45.1 12.795 41.665 28.4l-8.738 41.512c-1.559 7.335-1.404 12.64-.47 16.853H658.91c-.316-2.965-.47-5.93 0-8.895-11.393 9.364-29.34 12.018-41.669 12.018-21.847 0-35.579-7.647-31.368-27.155 4.214-20.286 23.097-24.656 40.107-25.75l29.65-2.027c8.428-.625 11.547-2.03 12.952-8.74 1.562-6.71-3.43-9.988-19.35-9.988-11.703 0-17.945.937-24.344 12.485h-26.53zM728.24 12.416h27.463l-3.671 17.478h-27.466l3.674-17.478zm-5.858 27.778h27.465l-17.79 83.645h-27.465l17.79-83.645z" fill="#06C"/><g transform="translate(753 37.429)"><mask id="b" fill="#fff"><use xlink:href="#a"/></mask><path d="M18.352 2.765h26.531L41.45 19.15h.312C54.401 6.354 63.454.58 79.061.58c3.118 0 6.861.156 9.83.78l-5.463 25.75c-4.683-1.405-9.519-2.497-14.67-2.497-18.726 0-29.648 9.519-33.083 25.748L28.027 86.41H.562l17.79-83.646z" fill="#06C" mask="url(#b)"/></g><g transform="translate(0 -.571)"><mask id="d" fill="#fff"><use xlink:href="#c"/></mask><path d="M135.43 68.285c0 37.398-30.318 67.715-67.715 67.715C30.317 136 0 105.683 0 68.285 0 30.888 30.317.571 67.715.571c37.397 0 67.714 30.317 67.714 67.714" fill="#06C" mask="url(#d)"/></g></g></svg>