<svg xmlns="http://www.w3.org/2000/svg" width="24" height="33.999" viewBox="0 0 24 33.999"><path data-name="Fill 8" d="M13.149 34c.188-.094 4.616-2.313 4.616-4.1 0-1.939-2.6-2.842-8.2-2.842a15.8 15.8 0 01-7.005-1.264A4.106 4.106 0 010 22.017a6.031 6.031 0 012.185-4.663 8.35 8.35 0 011.787-1.091 7.261 7.261 0 01-3.6-6.043C.371 5.962 4.637 2.5 9.881 2.5a10.95 10.95 0 016.067 1.777L24 0l-2.5 4.945c-.006 0-.535-.01-1.308-.01h-.933l-1.625.834a6.72 6.72 0 011.757 4.446c0 4.257-4.266 7.721-9.509 7.721a11.29 11.29 0 01-4.588-.959 1.741 1.741 0 00-.472.48 2.669 2.669 0 00-.308 1.143c0 .666 0 2.051 5.488 2.051a26.217 26.217 0 018.053.949 6.822 6.822 0 012.977 1.859 4.989 4.989 0 011.176 3.381 5.152 5.152 0 01-1.416 3.533 9.849 9.849 0 01-3.116 2.194A19.07 19.07 0 0113.149 34zM10 4c-1.654 0-3 2.916-3 6.5S8.346 17 10 17s3-2.916 3-6.5S11.654 4 10 4z" fill="#394287"/></svg>