<?xml version="1.0" encoding="utf-8"?>
<!-- Generator: Adobe Illustrator 23.0.1, SVG Export Plug-In . SVG Version: 6.00 Build 0)  -->
<svg version="1.1" id="Layer_1" xmlns="http://www.w3.org/2000/svg" xmlns:xlink="http://www.w3.org/1999/xlink" x="0px" y="0px"
	 viewBox="0 0 52.34 36.98" style="enable-background:new 0 0 52.34 36.98;" xml:space="preserve">
<style type="text/css">
	.st0{fill-rule:evenodd;clip-rule:evenodd;fill:#E80A89;}
	.st1{fill-rule:evenodd;clip-rule:evenodd;fill:#45B88F;}
	.st2{fill-rule:evenodd;clip-rule:evenodd;fill:#6881C0;}
</style>
<g>
	<path class="st0" d="M42.24,2.02c3.64,0,6.47,2.83,6.47,6.47c0,2.83-1.62,5.05-4.04,6.06c4.45,1.21,7.68,5.05,7.68,9.9v6.27
		c-4.04,1.62-7.88,2.43-11.92,2.02v-5.86c0-4.04-1.82-7.68-4.65-10.31c1.21-1.01,2.43-1.62,3.84-2.02
		c-2.22-1.01-4.04-3.23-4.04-6.06C35.57,4.85,38.6,2.02,42.24,2.02z"/>
	<path class="st1" d="M10.31,2.02c3.64,0,6.47,2.83,6.47,6.47c0,2.83-1.62,5.05-4.04,6.06c1.41,0.4,2.83,1.01,3.84,2.02
		c-2.83,2.63-4.45,6.27-4.45,10.31v5.86c-4.04,0.4-8.08-0.4-12.13-2.02v-6.27c0-4.85,3.44-8.69,7.88-9.9
		c-2.43-1.01-4.24-3.23-4.24-6.06C3.64,4.85,6.67,2.02,10.31,2.02z"/>
	<path class="st2" d="M26.27,0c4.24,0,7.68,3.64,7.68,7.88c0,3.23-2.02,6.06-4.85,7.28c5.25,1.21,9.3,6.06,9.3,11.72v7.68
		c-8.08,3.23-16.17,3.23-24.25,0v-7.68c0-5.66,3.84-10.51,9.09-11.72c-2.83-1.21-4.85-4.04-4.85-7.28C18.39,3.64,21.83,0,26.27,0z"
		/>
</g>
</svg>
