<?xml version="1.0" encoding="utf-8"?>
<!-- Generator: Adobe Illustrator 23.0.1, SVG Export Plug-In . SVG Version: 6.00 Build 0)  -->
<svg version="1.1" id="Layer_1" xmlns="http://www.w3.org/2000/svg" xmlns:xlink="http://www.w3.org/1999/xlink" x="0px" y="0px"
	 viewBox="0 0 185.22 45.95" style="enable-background:new 0 0 185.22 45.95;" xml:space="preserve">
<style type="text/css">
	.st0{fill:#FFFFFF;}
	.st1{fill:#6669AE;}
	.st2{fill:#F3886B;}
</style>
<g>
	<polygon class="st0" points="10.51,37.49 2.6,37.49 2.6,45.95 6.55,43.13 10.51,45.95 	"/>
	<g>
		<path class="st0" d="M38.53,22.26c-1.23-1.79-3.09-3.05-5.59-3.77c1.78-0.87,3.14-1.99,4.08-3.37c0.94-1.38,1.42-3.07,1.42-5.08
			c0-1.89-0.31-3.48-0.94-4.76c-0.62-1.28-1.5-2.32-2.64-3.09c-1.13-0.77-2.49-1.33-4.08-1.67S27.44,0,25.51,0H6.46v40.49h19.62
			c1.81,0,3.58-0.23,5.3-0.68c1.72-0.45,3.25-1.15,4.59-2.1c1.34-0.94,2.41-2.16,3.2-3.66c0.79-1.49,1.19-3.26,1.19-5.3
			C40.37,26.22,39.76,24.05,38.53,22.26z"/>
		<path class="st1" d="M35.3,22.26c-1.23-1.79-3.09-3.05-5.59-3.77c1.78-0.87,3.14-1.99,4.08-3.37c0.94-1.38,1.42-3.07,1.42-5.08
			c0-1.89-0.31-3.48-0.94-4.76c-0.62-1.28-1.5-2.32-2.64-3.09c-1.13-0.77-2.49-1.33-4.08-1.67C25.97,0.17,24.21,0,22.28,0H3.23
			v40.49h19.62c1.81,0,3.58-0.23,5.3-0.68c1.72-0.45,3.25-1.15,4.59-2.1c1.34-0.94,2.41-2.16,3.2-3.66c0.79-1.49,1.19-3.26,1.19-5.3
			C37.14,26.22,36.53,24.05,35.3,22.26z"/>
		<path class="st2" d="M32.07,22.26c-1.23-1.79-3.09-3.05-5.59-3.77c1.78-0.87,3.14-1.99,4.08-3.37c0.94-1.38,1.42-3.07,1.42-5.08
			c0-1.89-0.31-3.48-0.94-4.76c-0.62-1.28-1.5-2.32-2.64-3.09c-1.13-0.77-2.49-1.33-4.08-1.67C22.74,0.17,20.98,0,19.05,0H0v40.49
			h19.62c1.81,0,3.58-0.23,5.3-0.68c1.72-0.45,3.25-1.15,4.59-2.1c1.34-0.94,2.41-2.16,3.2-3.66c0.79-1.49,1.19-3.26,1.19-5.3
			C33.91,26.22,33.3,24.05,32.07,22.26z"/>
		<path class="st0" d="M10.7,15.12V25.4c0,1.45,0.35,2.46,1.04,3.05c0.69,0.59,1.68,0.88,2.97,0.88c1.29,0,2.29-0.32,3-0.96
			c0.71-0.64,1.07-1.58,1.07-2.82V14.22l-1.8-0.09V11.5h7.34v2.51l-1.02,0.09c-0.6,0.06-0.9,0.37-0.9,0.93v11.06
			c0,2-0.7,3.57-2.11,4.71c-1.4,1.14-3.34,1.7-5.82,1.7s-4.35-0.55-5.62-1.66c-1.27-1.1-1.9-2.85-1.9-5.25V14.22l-1.8-0.09V11.5
			h7.49v2.51l-1.02,0.09c-0.33,0.04-0.57,0.13-0.71,0.26C10.78,14.5,10.7,14.75,10.7,15.12z"/>
		<g>
			<path class="st0" d="M50.57,14.23v12.23c0,1.72,0.41,2.93,1.23,3.63c0.82,0.7,2,1.05,3.54,1.05c1.54,0,2.73-0.38,3.57-1.14
				c0.85-0.76,1.27-1.88,1.27-3.35V13.16l-2.14-0.11V9.92h8.73v2.98l-1.22,0.11c-0.71,0.07-1.07,0.44-1.07,1.11v13.16
				c0,2.38-0.84,4.25-2.51,5.6c-1.67,1.35-3.98,2.03-6.93,2.03c-2.95,0-5.18-0.66-6.69-1.97c-1.51-1.31-2.27-3.4-2.27-6.25V13.16
				l-2.14-0.11V9.92h8.92v2.98l-1.22,0.11c-0.39,0.05-0.68,0.15-0.85,0.31C50.65,13.49,50.57,13.79,50.57,14.23z"/>
			<path class="st0" d="M67.7,18.84v-2.95h6.23v2.4c0.64-0.91,1.49-1.63,2.54-2.16c1.06-0.53,2.2-0.79,3.43-0.79
				c1.87,0,3.31,0.53,4.33,1.6c1.02,1.07,1.53,2.67,1.53,4.81v9.62l2.1,0.11v2.95h-8.77v-2.8l1.22-0.11
				c0.37-0.05,0.64-0.15,0.81-0.31c0.17-0.16,0.26-0.46,0.26-0.9v-7.59c0-1.35-0.21-2.35-0.63-3c-0.42-0.65-1.21-0.98-2.38-0.98
				c-1.17,0-2.09,0.37-2.78,1.11c-0.69,0.74-1.03,1.61-1.03,2.62v8.92l2.1,0.11v2.95h-8.77v-2.8l1.22-0.11
				c0.37-0.05,0.64-0.15,0.81-0.31c0.17-0.16,0.26-0.46,0.26-0.9V20.09c0-0.74-0.31-1.12-0.92-1.14L67.7,18.84z"/>
			<path class="st0" d="M96.7,15.89v15.48l2.1,0.11v2.95h-8.77v-2.8l1.22-0.11c0.71-0.07,1.07-0.47,1.07-1.18V20.09
				c0-0.42-0.07-0.7-0.2-0.85c-0.14-0.15-0.38-0.22-0.72-0.22l-1.29-0.07v-3.06H96.7z M92.06,12.7c-0.52-0.5-0.77-1.15-0.77-1.93
				c0-0.79,0.26-1.44,0.77-1.97c0.52-0.53,1.19-0.79,2.03-0.79c0.84,0,1.52,0.26,2.05,0.79c0.53,0.53,0.79,1.19,0.79,1.97
				c0,0.79-0.26,1.43-0.79,1.93c-0.53,0.5-1.21,0.76-2.05,0.76C93.25,13.46,92.58,13.21,92.06,12.7z"/>
			<path class="st0" d="M103.89,34.98c-0.86,0-1.52-0.24-1.99-0.72c-0.47-0.48-0.7-1.11-0.7-1.88c0-0.77,0.24-1.41,0.72-1.92
				c0.48-0.5,1.13-0.76,1.95-0.76c0.82,0,1.48,0.24,1.97,0.72c0.49,0.48,0.74,1.11,0.74,1.88c0,0.77-0.23,1.41-0.7,1.92
				C105.41,34.73,104.75,34.98,103.89,34.98z"/>
			<path class="st0" d="M109.49,9.92h10.39c5.31,0,7.96,2.05,7.96,6.15c0,2.26-1.13,3.98-3.39,5.16c1.45,0.37,2.59,1.04,3.41,2.03
				c0.82,0.98,1.23,2.26,1.23,3.83c0,2.38-0.81,4.2-2.41,5.45c-1.61,1.25-3.95,1.88-7.02,1.88h-10.36v-2.99l1.22-0.11
				c0.71-0.07,1.07-0.42,1.07-1.03V13.16l-2.1-0.11V9.92z M116.09,13.31v6.67h2.73c1.52,0,2.65-0.31,3.37-0.94
				c0.72-0.63,1.09-1.5,1.09-2.64c0-1.13-0.36-1.93-1.09-2.4c-0.73-0.47-1.76-0.7-3.11-0.7H116.09z M116.09,23.26v7.7h3.46
				c3.19,0,4.79-1.3,4.79-3.91c0-1.23-0.4-2.17-1.2-2.82c-0.8-0.65-1.93-0.98-3.41-0.98H116.09z"/>
			<path class="st0" d="M150.25,31.52v2.91h-5.97v-2.4c-1.35,1.92-3.34,2.87-5.97,2.87c-3.81,0-5.71-2.12-5.71-6.38v-8.51
				c0-0.66-0.31-1.01-0.92-1.03l-1.18-0.07v-3.02h6.49v11.68c0,1.3,0.18,2.28,0.55,2.95c0.37,0.66,1.13,1,2.28,1
				c1.15,0,2.08-0.36,2.78-1.07c0.7-0.71,1.05-1.57,1.05-2.58v-7.78c0-0.39-0.07-0.67-0.2-0.83c-0.14-0.16-0.38-0.25-0.72-0.28
				l-1.18-0.07v-3.02h6.49v14.45c0,0.39,0.06,0.66,0.18,0.79c0.12,0.14,0.37,0.23,0.74,0.28L150.25,31.52z"/>
			<path class="st0" d="M167.42,34.43h-15.04v-2.8l9.47-12.46h-4.64c-0.52,0-0.84,0.1-0.98,0.29c-0.14,0.2-0.2,0.52-0.2,0.96v1.29
				l-3.46-0.26v-5.56h14.67v2.51l-9.58,12.71h5.23c0.71,0,1.07-0.42,1.07-1.25v-1.55l3.46,0.26V34.43z"/>
			<path class="st0" d="M185.22,34.43h-15.04v-2.8l9.47-12.46h-4.64c-0.52,0-0.84,0.1-0.98,0.29c-0.14,0.2-0.2,0.52-0.2,0.96v1.29
				l-3.46-0.26v-5.56h14.67v2.51l-9.58,12.71h5.23c0.71,0,1.07-0.42,1.07-1.25v-1.55l3.46,0.26V34.43z"/>
		</g>
	</g>
</g>
</svg>
