<?xml version="1.0" encoding="utf-8"?>
<!-- Generator: Adobe Illustrator 23.0.1, SVG Export Plug-In . SVG Version: 6.00 Build 0)  -->
<svg version="1.1" id="Layer_1" xmlns="http://www.w3.org/2000/svg" xmlns:xlink="http://www.w3.org/1999/xlink" x="0px" y="0px"
	 viewBox="0 0 24 24.3" style="enable-background:new 0 0 24 24.3;" xml:space="preserve">
<style type="text/css">
	.st0{fill:#FFFFFF;}
	.st1{fill:#9E5224;}
	.st2{fill:#5EBEAA;}
	.st3{fill:#36B24A;}
</style>
<g>
	<path class="st0" d="M22.53,20l-4.99-4.98c1.08-1.58,1.66-3.42,1.67-5.34c0.04-5.3-4.24-9.64-9.54-9.68L9.61,0
		C4.35,0,0.04,4.28,0,9.54c-0.02,2.57,0.96,4.99,2.76,6.81c1.8,1.83,4.21,2.85,6.77,2.86l0.07,0c1.79,0,3.52-0.49,5.04-1.43
		l4.99,4.99l-0.28-0.28l2.86-2.81L22.53,20z M9.74,15.82l-0.05,0c-1.66-0.01-3.21-0.67-4.38-1.85c-1.16-1.18-1.8-2.75-1.79-4.4
		C3.55,6.17,6.34,3.4,9.73,3.4l0.05,0c3.42,0.03,6.19,2.83,6.16,6.26C15.92,13.06,13.14,15.82,9.74,15.82z"/>
	<path class="st1" d="M20.16,23.31L20.84,24c0.2,0.2,0.47,0.31,0.8,0.31l0,0c0.52,0,1.11-0.28,1.59-0.75
		c0.8-0.79,1.01-1.83,0.48-2.38l-0.91-0.92l0,0l0.01,0.01l0,0l0.44,0.45l-2.86,2.81L20.16,23.31z"/>
	<polygon class="st2" points="20.15,23.29 19.93,23.08 19.93,23.08 	"/>
	<polygon class="st3" points="22.79,20.26 22.53,20 22.21,19.68 19.35,22.5 19.64,22.78 19.93,23.08 20.15,23.29 20.16,23.31 
		20.39,23.53 23.24,20.72 22.8,20.27 22.8,20.27 	"/>
</g>
</svg>
