<?xml version="1.0" encoding="utf-8"?>
<!-- Generator: Adobe Illustrator 23.0.1, SVG Export Plug-In . SVG Version: 6.00 Build 0)  -->
<svg version="1.1" id="Layer_1" xmlns="http://www.w3.org/2000/svg" xmlns:xlink="http://www.w3.org/1999/xlink" x="0px" y="0px"
	 viewBox="0 0 68.72 68.72" style="enable-background:new 0 0 68.72 68.72;" xml:space="preserve">
<style type="text/css">
	.st0{clip-path:url(#SVGID_2_);}
	.st1{fill:#765EA7;}
	.st2{fill:none;}
	.st3{fill:#F5891F;}
	.st4{fill:#EC6623;}
	.st5{fill:#F7971D;}
	.st6{fill:#F9A21B;}
	.st7{fill:#20140A;}
	.st8{fill:#059C49;}
	.st9{fill:#017F40;}
	.st10{fill:#098040;}
	.st11{fill:#40B449;}
	.st12{fill:#0D100B;}
</style>
<g>
	<defs>
		<circle id="SVGID_1_" cx="34.36" cy="34.36" r="34.36"/>
	</defs>
	<clipPath id="SVGID_2_">
		<use xlink:href="#SVGID_1_"  style="overflow:visible;"/>
	</clipPath>
	<g class="st0">
		<rect y="0" class="st1" width="68.72" height="68.72"/>
		<g>
			<path class="st2" d="M22.32,59.42c0.17,0.11,0.35,0.22,0.53,0.33c-0.04-0.06-0.07-0.11-0.11-0.17
				C22.6,59.52,22.46,59.47,22.32,59.42z"/>
			<path class="st2" d="M46.38,59.64c0.35-0.22,0.69-0.45,1.03-0.67c-0.28,0.12-0.55,0.24-0.83,0.35
				C46.51,59.43,46.45,59.53,46.38,59.64z"/>
			<g>
				
					<ellipse transform="matrix(1 -4.445935e-03 4.445935e-03 1 -0.1581 0.1531)" class="st3" cx="34.36" cy="35.65" rx="29.54" ry="26.01"/>
				<path class="st4" d="M34.24,9.64C17.93,9.71,4.76,21.41,4.82,35.78c0.06,14.36,13.34,25.95,29.65,25.88s29.48-11.78,29.42-26.14
					C63.83,21.15,50.56,9.56,34.24,9.64z M34.45,55.96C20.26,56.02,8.71,45.94,8.66,33.45s11.4-22.68,25.59-22.74
					s25.74,10.01,25.79,22.51C60.1,45.71,48.64,55.89,34.45,55.96z"/>
				
					<ellipse transform="matrix(1 -4.445935e-03 4.445935e-03 1 -0.1025 0.1527)" class="st5" cx="34.3" cy="23.12" rx="14.28" ry="10.35"/>
				<path class="st3" d="M7.23,37.08c0.32-7.74,5.44-14.67,9.69-19.11c2.98-3.11,5.95-5.5,7.99-6.97c-0.45,0.13-0.89,0.27-1.32,0.43
					c-5.84,4.4-16.32,14.2-16.79,25.64c-0.32,7.83,4.13,14.99,13.25,21.35c0.74,0.36,1.49,0.69,2.26,1
					C11.97,52.81,6.9,45.31,7.23,37.08z"/>
				<path class="st3" d="M20.57,18.96c-0.22,0.53-0.46,1.08-0.72,1.66c-3.36,7.7-8.87,20.33,2.89,38.95
					c0.22,0.08,0.44,0.16,0.66,0.24c-12.02-18.7-6.51-31.34-3.16-39.02c0.26-0.59,0.5-1.14,0.72-1.68c1.06-2.82,4.95-6.77,7.35-8.93
					c-0.28,0.05-0.55,0.11-0.82,0.16C25.05,12.6,21.59,16.23,20.57,18.96z"/>
				<path class="st3" d="M27.72,44.27c-1.68-6.32-0.78-11.44-0.07-13.26c0.74-1.89,0.72-4.49,0.69-8.8l-0.01-1.48
					c-0.02-4.87,3.2-8.5,4.19-9.5l-0.3-0.3c-1.02,1.03-4.33,4.76-4.31,9.8l0.01,1.48c0.03,4.26,0.04,6.83-0.66,8.65
					c-0.73,1.87-1.66,7.11,0.05,13.53c1.39,5.21,1.26,13.41-0.01,16.53c0.14,0.03,0.28,0.06,0.41,0.09
					C29.06,57.54,29.02,49.18,27.72,44.27z"/>
				<path class="st3" d="M51.93,17.82c4.28,4.41,9.47,11.28,9.86,19.02c0.4,8.09-4.43,15.52-14.38,22.13
					c0.86-0.37,1.69-0.78,2.5-1.23c8.55-6.3,12.69-13.32,12.31-20.92c-0.56-11.26-10.83-20.85-16.75-25.29
					c-0.45-0.16-0.91-0.31-1.37-0.45C46.15,12.53,49.04,14.84,51.93,17.82z"/>
				<path class="st3" d="M47.9,19c0.23,0.53,0.47,1.08,0.73,1.66c3.41,7.63,9.02,20.18-2.72,38.91c0.22-0.08,0.44-0.17,0.66-0.26
					c11.47-18.65,5.87-31.18,2.45-38.83c-0.26-0.58-0.51-1.13-0.73-1.65c-1.03-2.69-4.45-6.23-6.91-8.47
					c-0.28-0.06-0.56-0.11-0.84-0.17C42.98,12.35,46.83,16.22,47.9,19z"/>
				<path class="st3" d="M41.79,44.32c1.65-6.44,0.68-11.67-0.07-13.53c-0.72-1.81-0.73-4.38-0.74-8.64l0-1.48
					c-0.02-5.04-3.37-8.75-4.4-9.76l-0.3,0.3c1,0.99,4.25,4.59,4.27,9.46l0,1.48c0.01,4.31,0.02,6.92,0.77,8.8
					c0.73,1.82,1.68,6.93,0.05,13.26c-1.26,4.89-1.23,13.19,0.14,16.66c0.14-0.03,0.27-0.06,0.41-0.09
					C40.64,57.64,40.46,49.5,41.79,44.32z"/>
				<g>
					<path class="st6" d="M12.4,27.88c-1.06,2.49-0.33,9.84,5.93,12.34c6.26,2.5,11.71,1.26,14.37-1.33
						c-1.1-0.42-5.33-2.47-5.33-2.47l-13.45-4.66L12.4,27.88z"/>
					<path class="st7" d="M15.4,22.5c0.68,1.9,4.72,10.13,16.09,15.85c-1.23,1.29-7.71,3.37-14.26,0.06S11.12,25.71,15.4,22.5z"/>
					<path class="st6" d="M56.67,27.68c1.08,2.48,0.41,9.84-5.82,12.39c-6.23,2.55-11.7,1.36-14.38-1.2c1.09-0.43,5.3-2.52,5.3-2.52
						l13.4-4.78L56.67,27.68z"/>
					<path class="st7" d="M53.63,22.33c-0.66,1.91-4.63,10.18-15.95,16c1.25,1.28,7.74,3.3,14.26-0.06S57.94,25.5,53.63,22.33z"/>
					<polygon class="st6" points="37.73,47.52 36.17,46.89 34.63,47.54 33.07,46.9 31.53,47.55 31.02,48.23 34.63,48.22 38.24,48.2 
											"/>
					<polygon class="st7" points="34.61,43.15 31.53,47.55 34.63,47.54 37.73,47.52 					"/>
					<path class="st6" d="M46.62,51.13l0.01,3l-4.65,0.02c0,0-0.01-1.43-0.01-2.04c-0.89,0.79-6.72,0.85-7.33,0.86
						c-0.61,0-6.44-0.01-7.33-0.79c0,0.61,0.01,2.04,0.01,2.04l-4.65,0.02l-0.01-3c-0.39,0-6.38-3.25-9.22-7.44
						c0.48,6.58,8.17,14.23,18.57,15.09c-0.01-1.48-0.01-3.34-0.01-3.34l2.67-0.01l2.67-0.01c0,0,0.01,1.86,0.01,3.34
						c10.39-0.95,18.01-8.67,18.43-15.26C52.97,47.82,47.01,51.13,46.62,51.13z"/>
					<path class="st7" d="M46.62,49.85l0.01,3l-4.65,0.02c0,0-0.01-1.43-0.01-2.04c-0.89,0.79-6.72,0.85-7.33,0.86
						c-0.61,0-6.44-0.01-7.33-0.79c0,0.61,0.01,2.04,0.01,2.04l-4.65,0.02l-0.01-3c-0.39,0-6.59-2.52-9.43-6.7
						c1.13,6.24,8.38,13.5,18.78,14.36c-0.01-1.48-0.01-3.34-0.01-3.34l2.67-0.01l2.67-0.01c0,0,0.01,1.86,0.01,3.34
						c10.39-0.95,17.58-8.28,18.65-14.53C53.18,47.27,47.01,49.84,46.62,49.85z"/>
				</g>
				
					<ellipse transform="matrix(1 -4.445935e-03 4.445935e-03 1 -0.0477 0.1531)" class="st8" cx="34.4" cy="10.82" rx="6.67" ry="2.43"/>
				<g>
					
						<ellipse transform="matrix(1 -4.445935e-03 4.445935e-03 1 -0.0477 0.1531)" class="st8" cx="34.4" cy="10.82" rx="6.67" ry="2.43"/>
					<path class="st9" d="M34.4,9.56c3.13-0.01,5.76,0.76,6.48,1.81c0.13-0.19,0.2-0.39,0.2-0.59c-0.01-1.34-3-2.42-6.69-2.4
						c-3.69,0.02-6.67,1.12-6.66,2.46c0,0.2,0.07,0.4,0.2,0.59C28.65,10.37,31.27,9.58,34.4,9.56z"/>
					<g>
						<path class="st8" d="M32.36,6.52c0,0,0.16,3.55,1.23,4.51c1.08,0.96,0.82,0.48,0.82,0.48l-0.02-4.52L32.36,6.52z"/>
						<path class="st8" d="M36.41,6.5c0,0-0.12,3.55-1.19,4.52s-0.81,0.49-0.81,0.49l-0.02-4.52L36.41,6.5z"/>
						<path class="st10" d="M34.4,11.52C34.41,11.52,34.41,11.51,34.4,11.52l0-0.09c0.09-0.08,0.2-0.17,0.33-0.29
							c1.05-0.95,1.19-4.39,1.19-4.52l0.48-0.12c0,0-0.12,3.55-1.19,4.52c-0.56,0.51-0.76,0.62-0.82,0.6
							C34.4,11.6,34.4,11.56,34.4,11.52z"/>
						<path class="st10" d="M34.41,11.52C34.41,11.52,34.41,11.51,34.41,11.52l0-0.09c-0.09-0.08-0.2-0.17-0.34-0.29
							c-1.06-0.94-1.23-4.37-1.23-4.51l-0.48-0.11c0,0,0.16,3.55,1.23,4.51c0.57,0.51,0.76,0.61,0.82,0.6
							C34.41,11.6,34.41,11.56,34.41,11.52z"/>
						
							<ellipse transform="matrix(1 -4.445935e-03 4.445935e-03 1 -0.0286 0.1529)" class="st11" cx="34.38" cy="6.51" rx="2.03" ry="0.74"/>
					</g>
				</g>
			</g>
			<path class="st12" d="M34.59,5.78c1.02,0.03,1.82,0.34,1.83,0.73c0,0-0.01,0.22-0.04,0.56c0,0.01,0,0.01,0,0.02
				c-0.01,0.12-0.02,0.26-0.04,0.41c-0.01,0.06-0.01,0.13-0.02,0.2c-0.01,0.11-0.03,0.22-0.04,0.33c-0.01,0.06-0.02,0.12-0.03,0.18
				c-0.01,0.08-0.03,0.17-0.04,0.25c0.06,0.01,0.12,0.01,0.17,0.02c0.21,0.02,0.41,0.05,0.61,0.08c0.1,0.01,0.2,0.03,0.3,0.05
				c0.19,0.03,0.38,0.07,0.57,0.11c0.18,0.04,0.36,0.08,0.53,0.13c1.27,0.34,2.19,0.84,2.54,1.43c0.15,0.03,0.31,0.06,0.46,0.1
				c0,0,0,0,0,0c0.08,0.02,0.16,0.03,0.24,0.05c1.32,0.29,2.6,0.66,3.84,1.11c0,0,0,0,0,0l0,0c1.65,0.59,3.23,1.3,4.71,2.13
				c1.2,0.67,2.34,1.42,3.42,2.23c0.36,0.27,0.71,0.55,1.05,0.83c0.86,0.71,1.67,1.47,2.42,2.27c0.15,0.16,0.3,0.32,0.45,0.48
				c0.88,0.98,1.68,2.01,2.4,3.1c1.31,1.99,2.33,4.15,3.01,6.43c0.62,2.07,0.95,4.25,0.96,6.5c0,0.67-0.02,1.34-0.08,2
				c-0.13,1.54-0.41,3.05-0.82,4.5c-0.12,0.42-0.25,0.83-0.39,1.24c-0.07,0.2-0.14,0.41-0.22,0.61c-0.15,0.4-0.32,0.8-0.49,1.2
				c-0.44,0.99-0.94,1.94-1.5,2.87c-2.91,4.76-7.45,8.64-12.97,11.04l0,0h0c-3.9,1.7-8.29,2.66-12.94,2.68c-0.42,0-0.84,0-1.25-0.02
				c-4.3-0.14-8.37-1.09-12.02-2.69c-0.01-0.01-0.03-0.01-0.04-0.02c-0.37-0.16-0.74-0.34-1.1-0.51c0,0,0,0,0,0h0
				c-4.89-2.38-8.93-5.95-11.61-10.26c-0.57-0.92-1.08-1.87-1.53-2.85c-0.18-0.39-0.35-0.79-0.5-1.19c-0.08-0.2-0.15-0.4-0.23-0.61
				c-0.15-0.41-0.28-0.82-0.4-1.23c-0.43-1.45-0.72-2.95-0.86-4.5c-0.06-0.66-0.09-1.33-0.1-2c-0.01-2.24,0.3-4.42,0.9-6.5
				c0.66-2.29,1.66-4.46,2.95-6.46c0.71-1.09,1.5-2.14,2.37-3.12c0.15-0.16,0.29-0.33,0.44-0.49c0.75-0.81,1.55-1.57,2.4-2.29
				c0.34-0.29,0.69-0.57,1.05-0.84c1.07-0.82,2.2-1.58,3.4-2.26c2.03-1.16,4.24-2.1,6.57-2.8c0,0,0,0,0,0l0,0
				c0.64-0.19,1.29-0.36,1.95-0.52c0.35-0.08,0.7-0.15,1.05-0.22c0.37-0.56,1.26-1.04,2.48-1.38c0.17-0.05,0.35-0.09,0.53-0.13
				c0.18-0.04,0.37-0.08,0.57-0.11c0.1-0.02,0.2-0.03,0.3-0.05c0.2-0.03,0.4-0.06,0.61-0.08c0.06-0.01,0.11-0.01,0.17-0.02
				c0-0.02-0.01-0.04-0.01-0.07c-0.03-0.19-0.06-0.37-0.08-0.55c-0.1-0.76-0.13-1.35-0.13-1.35c0-0.41,0.9-0.74,2.03-0.75
				C34.45,5.77,34.52,5.78,34.59,5.78 M34.68,2.92c-0.1,0-0.21,0-0.31,0c-3.14,0.01-4.66,1.59-4.85,3.25
				c-1.26,0.36-2.27,0.86-3.02,1.48c-0.09,0.02-0.18,0.04-0.27,0.06c-0.55,0.13-1.11,0.27-1.67,0.43l-0.46-0.01l-0.41,0.28
				c-2.37,0.74-4.64,1.72-6.75,2.93c-1.3,0.74-2.56,1.58-3.73,2.48c-0.39,0.3-0.78,0.61-1.15,0.93c-0.94,0.79-1.83,1.64-2.65,2.53
				c-0.17,0.18-0.33,0.36-0.49,0.54c-0.97,1.09-1.85,2.26-2.63,3.46c-1.46,2.26-2.58,4.69-3.3,7.22c-0.68,2.38-1.02,4.83-1.01,7.31
				c0,0.75,0.04,1.5,0.11,2.25c0.15,1.71,0.48,3.4,0.97,5.05c0.14,0.46,0.29,0.93,0.45,1.38c0.08,0.23,0.17,0.45,0.25,0.68
				c0.17,0.45,0.36,0.9,0.56,1.34c0.49,1.09,1.07,2.16,1.71,3.19c2.98,4.78,7.4,8.69,12.79,11.32c0.41,0.2,0.81,0.39,1.21,0.56
				l0.04,0.02l-0.01,0c4.11,1.8,8.51,2.78,13.08,2.93c0.45,0.01,0.91,0.02,1.36,0.02c4.93-0.02,9.66-1.01,14.06-2.92
				c6.09-2.65,11.03-6.86,14.27-12.17c0.63-1.03,1.19-2.11,1.68-3.2c0.19-0.44,0.38-0.89,0.55-1.34c0.09-0.23,0.17-0.46,0.25-0.68
				c0.16-0.46,0.31-0.92,0.44-1.39c0.47-1.65,0.79-3.35,0.93-5.06c0.06-0.74,0.09-1.5,0.09-2.25c-0.01-2.47-0.37-4.93-1.08-7.3
				c-0.75-2.52-1.88-4.94-3.37-7.19c-0.79-1.2-1.69-2.36-2.66-3.44c-0.16-0.18-0.33-0.36-0.49-0.54c-0.83-0.88-1.73-1.72-2.67-2.51
				c-0.38-0.31-0.76-0.62-1.16-0.92c-1.18-0.89-2.44-1.71-3.75-2.44c-1.58-0.88-3.25-1.65-4.99-2.27l0,0l-0.12-0.04
				c-0.01,0-0.02-0.01-0.03-0.01l-0.12-0.04l0,0c-1.28-0.45-2.59-0.83-3.9-1.13C41.63,7,40.57,6.49,39.25,6.12
				C39.07,4.63,37.8,3.02,34.68,2.92L34.68,2.92z"/>
		</g>
	</g>
</g>
</svg>
