<?xml version="1.0" encoding="utf-8"?>
<!-- Generator: Adobe Illustrator 23.0.1, SVG Export Plug-In . SVG Version: 6.00 Build 0)  -->
<svg version="1.1" id="Layer_1" xmlns="http://www.w3.org/2000/svg" xmlns:xlink="http://www.w3.org/1999/xlink" x="0px" y="0px"
	 viewBox="0 0 41.81 42.11" style="enable-background:new 0 0 41.81 42.11;" xml:space="preserve">
<style type="text/css">
	.st0{clip-path:url(#SVGID_2_);}
	.st1{fill:#D03D5A;}
	.st2{clip-path:url(#SVGID_4_);}
	.st3{fill:#F2F2E8;}
	.st4{fill:#DFD7A3;}
	.st5{fill:#E1E4D4;}
	.st6{fill:#B2A768;}
	.st7{fill:#F9BBAB;}
	.st8{fill:url(#SVGID_5_);}
	.st9{fill:#BD8D68;}
	.st10{fill:#EA7625;}
	.st11{fill:#E27F6D;}
	.st12{fill:#6A8C41;}
	.st13{opacity:0.3;fill:#745032;}
	.st14{fill:#A87F58;}
	.st15{fill:#FFFFFF;}
	.st16{fill:#F7A99A;}
	.st17{fill:#F18572;}
	.st18{fill:#957051;}
</style>
<g>
	<defs>
		<circle id="SVGID_1_" cx="20.91" cy="20.91" r="20.91"/>
	</defs>
	<clipPath id="SVGID_2_">
		<use xlink:href="#SVGID_1_"  style="overflow:visible;"/>
	</clipPath>
	<g class="st0">
		<rect class="st1" width="41.81" height="41.81"/>
		<g>
			<defs>
				<rect id="SVGID_3_" width="41.81" height="41.81"/>
			</defs>
			<clipPath id="SVGID_4_">
				<use xlink:href="#SVGID_3_"  style="overflow:visible;"/>
			</clipPath>
			<g class="st2">
				<path class="st3" d="M31.99,42.06v-3.7c0-5.49-4.49-9.98-9.98-9.98h-1.6c-5.49,0-9.98,4.49-9.98,9.98v3.7H31.99z"/>
				<path class="st4" d="M31.88,36.86c-0.01,0-0.01,0-0.02,0c0-0.04,0-0.09,0-0.13c-0.08-0.45-0.18-0.9-0.31-1.33
					c-0.52,0.01-1.03,0.02-1.55,0.03c0-0.38-0.01-0.75-0.01-1.13c0.37-0.02,0.74-0.04,1.12-0.06c-0.04-0.09-0.08-0.19-0.13-0.28
					c-0.33,0.02-0.66,0.04-0.99,0.05c0-0.47,0.01-0.93,0.01-1.4c0.06,0,0.12,0,0.18,0c-0.14-0.2-0.29-0.4-0.45-0.6
					c0,0.11,0,0.21,0,0.32c-0.34,0-0.67,0-1.01,0c0-0.46,0-0.92,0-1.38c-0.12-0.11-0.24-0.21-0.36-0.31c-0.34,0-0.68,0.01-1.02,0.01
					c0-0.25,0-0.5,0-0.75c-0.09-0.06-0.19-0.12-0.28-0.17c0,0.31,0,0.62,0,0.92c-0.52,0.01-1.03,0.01-1.55,0.01
					c0.01-0.34,0.02-0.68,0.03-1.01c0.44-0.01,0.88-0.02,1.32-0.04c-0.17-0.09-0.34-0.18-0.51-0.27c-0.27,0.01-0.53,0.02-0.8,0.02
					c0-0.12,0.01-0.24,0.01-0.36c-0.09-0.04-0.19-0.07-0.28-0.1c0,0.16-0.01,0.31-0.02,0.47c-0.35,0.01-0.71,0.01-1.06,0.02
					c0-0.26,0-0.53,0-0.79c-0.09-0.02-0.19-0.04-0.28-0.06c0,0.28,0,0.57,0,0.85c-0.42,0.01-0.85,0.01-1.27,0.01
					c0.01-0.34,0.02-0.68,0.03-1.02c-0.09-0.01-0.19-0.01-0.28-0.01c-0.01,0.35-0.02,0.69-0.03,1.04c-0.35,0-0.71,0-1.06,0
					c0-0.35,0-0.7,0.01-1.05h-0.28c0,0.35,0,0.7-0.01,1.05c-0.46,0-0.93-0.01-1.39-0.01c0-0.33,0-0.67,0-1
					c-0.09,0.01-0.19,0.02-0.28,0.03c0,0.32,0,0.65,0,0.97c-0.5-0.01-1.01-0.02-1.51-0.03c0.01-0.22,0.01-0.44,0.02-0.66
					c-0.1,0.03-0.19,0.05-0.29,0.08c-0.01,0.19-0.01,0.38-0.02,0.57c-0.35-0.01-0.71-0.02-1.06-0.03c0-0.05,0-0.09,0-0.14
					c-0.1,0.04-0.19,0.08-0.28,0.13c0,0,0,0,0,0.01c0,0-0.01,0-0.01,0c-0.18,0.08-0.35,0.17-0.52,0.26
					c0.18,0.01,0.35,0.01,0.53,0.02c0,0.36,0,0.73,0,1.09c-0.37,0-0.74,0-1.1-0.01c0-0.25,0-0.51,0-0.76
					c-0.1,0.06-0.19,0.12-0.28,0.19c0,0.19,0,0.38,0,0.57c-0.25,0-0.5,0-0.75-0.01c-0.11,0.09-0.22,0.18-0.32,0.28
					c0.36,0,0.71,0.01,1.07,0.01c0,0.47,0,0.93,0,1.4c-0.52,0-1.05,0-1.57,0c0-0.31,0.01-0.62,0.01-0.93
					c-0.1,0.1-0.19,0.2-0.29,0.31c0,0.21,0,0.42-0.01,0.62c-0.17,0-0.34,0-0.51,0c-0.07,0.09-0.14,0.19-0.2,0.28
					c0.24,0,0.47,0,0.71,0c0,0.45-0.01,0.89-0.01,1.34c-0.33-0.02-0.66-0.04-1-0.06c0-0.27,0-0.55,0-0.82
					c-0.1,0.16-0.19,0.32-0.28,0.48c0,0.11,0,0.21,0,0.32c-0.05,0-0.11-0.01-0.16-0.01c-0.05,0.09-0.09,0.18-0.13,0.27
					c0.1,0.01,0.19,0.01,0.29,0.02c0,0.42,0.01,0.84,0.01,1.27c-0.26,0-0.53-0.01-0.79-0.01c-0.03,0.09-0.05,0.19-0.08,0.28
					c0.29,0,0.58,0.01,0.87,0.01c0,0.38,0.01,0.77,0.01,1.15c-0.38,0-0.75,0-1.13,0c-0.01,0.09-0.03,0.19-0.04,0.28
					c0.39,0,0.78,0,1.17,0c0,0.42,0.01,0.84,0.01,1.26c-0.42-0.03-0.83-0.05-1.25-0.08v0.28c0.42,0.03,0.83,0.05,1.25,0.08
					c0,0.42,0.01,0.84,0.01,1.26C11.27,40,10.85,40,10.43,40v0.28c0.42,0,0.84,0.01,1.27,0.01c0.01,0.59,0.02,1.18,0.03,1.77h0.28
					c-0.01-0.59-0.02-1.18-0.03-1.76c0.36,0,0.71,0.01,1.07,0.01c0.02,0.58,0.06,1.17,0.09,1.75h0.28
					c-0.03-0.58-0.06-1.17-0.09-1.75c0.49,0,0.99,0.01,1.48,0.02c0,0.58,0.01,1.16,0.01,1.73h0.28c0-0.58-0.01-1.15-0.01-1.73
					c0.38,0,0.75,0,1.13,0.01c0.01,0.58,0.02,1.15,0.03,1.73h0.28c-0.01-0.58-0.02-1.15-0.03-1.73c0.36,0,0.71,0,1.07,0
					c0.02,0.58,0.06,1.15,0.09,1.72h0.28c-0.03-0.57-0.06-1.15-0.09-1.72c0.49,0,0.99,0,1.48,0c0,0.57,0.01,1.15,0.01,1.72h0.28
					c0-0.57-0.01-1.15-0.01-1.72c0.47,0,0.94,0,1.41,0c0.01,0.57,0.02,1.15,0.03,1.72h0.28c-0.01-0.57-0.02-1.15-0.03-1.72
					c0.36,0,0.71,0,1.07,0c0.02,0.58,0.06,1.15,0.09,1.73h0.28c-0.03-0.58-0.06-1.15-0.09-1.73c0.42,0,0.84-0.01,1.26-0.01
					c0.01,0.58,0.02,1.16,0.03,1.74h0.28c-0.01-0.58-0.02-1.16-0.03-1.74c0.36,0,0.71-0.01,1.07-0.01c0.02,0.58,0.06,1.17,0.09,1.75
					h0.28c-0.03-0.59-0.06-1.17-0.09-1.76c0.49,0,0.99-0.01,1.48-0.01c0,0.59,0.01,1.18,0.01,1.77h0.28c0-0.59-0.01-1.18-0.01-1.77
					c0.38,0,0.75-0.01,1.13-0.01c0.01,0.6,0.02,1.19,0.03,1.78h0.28c-0.01-0.6-0.02-1.19-0.03-1.79c0.36-0.01,0.71-0.01,1.07-0.02
					c0.02,0.6,0.06,1.21,0.09,1.81h0.28c-0.03-0.61-0.07-1.21-0.09-1.82c0.5-0.01,0.99-0.02,1.49-0.03c0,0.61,0.01,1.23,0.01,1.84
					h0.28c0-0.62-0.01-1.23-0.01-1.85c0.04,0,0.08,0,0.12,0v-0.28c-0.04,0-0.08,0-0.12,0c0-0.4,0-0.8-0.01-1.2
					c0.04,0,0.08-0.01,0.13-0.01v-0.28c-0.04,0-0.09,0.01-0.13,0.01c0-0.43,0-0.87-0.01-1.3c0.02,0,0.04,0,0.06,0
					C31.9,37.05,31.89,36.95,31.88,36.86z M11.92,34.23c0.33,0.02,0.67,0.04,1,0.06c0,0.4,0.01,0.8,0.01,1.2
					c-0.33,0-0.67-0.01-1-0.01C11.93,35.07,11.92,34.65,11.92,34.23z M11.93,35.77c0.33,0,0.67,0.01,1,0.01c0,0.38,0,0.76,0.01,1.14
					c-0.33,0-0.67,0-1,0C11.94,36.53,11.94,36.15,11.93,35.77z M11.95,37.2c0.33,0,0.67,0,1,0c0.01,0.45,0.03,0.89,0.04,1.34
					c-0.34-0.02-0.69-0.04-1.03-0.06C11.95,38.05,11.95,37.63,11.95,37.2z M11.97,40.01c-0.01-0.42-0.01-0.83-0.01-1.25
					c0.35,0.02,0.69,0.04,1.04,0.06c0.01,0.4,0.02,0.8,0.04,1.2C12.68,40.02,12.33,40.02,11.97,40.01z M13.21,32.67
					c0.52,0,1.05,0,1.57,0c0,0.48,0,0.95,0,1.43c-0.53-0.02-1.06-0.05-1.59-0.08C13.2,33.57,13.21,33.12,13.21,32.67z M13.2,34.3
					c0.53,0.03,1.06,0.05,1.59,0.08c0,0.38,0,0.76,0,1.13c-0.53,0-1.05-0.01-1.58-0.02C13.21,35.1,13.2,34.7,13.2,34.3z
					 M13.22,35.78c0.52,0,1.05,0.01,1.57,0.02c0,0.37,0,0.75,0.01,1.12c-0.52,0-1.05,0-1.57,0C13.22,36.54,13.22,36.16,13.22,35.78z
					 M13.23,37.2c0.52,0,1.04,0,1.56,0c0,0.48,0,0.95,0.01,1.43c-0.51-0.02-1.02-0.05-1.53-0.07C13.26,38.1,13.24,37.65,13.23,37.2z
					 M13.32,40.03c-0.02-0.4-0.02-0.79-0.04-1.19c0.51,0.03,1.02,0.05,1.52,0.07c0,0.38,0,0.76,0.01,1.13
					C14.31,40.04,13.81,40.03,13.32,40.03z M15.06,30.98c0.37,0,0.73,0,1.1,0.01c0,0.46,0,0.93,0,1.39c-0.37,0-0.73,0-1.1,0
					C15.07,31.92,15.07,31.45,15.06,30.98z M15.07,32.66c0.37,0,0.73,0,1.1,0c0,0.49,0,0.99,0,1.48c-0.37-0.01-0.73-0.02-1.1-0.04
					C15.07,33.63,15.07,33.15,15.07,32.66z M15.07,34.39c0.37,0.01,0.73,0.03,1.1,0.04c0,0.36,0.01,0.73,0.01,1.09
					c-0.37,0-0.74,0-1.11-0.01C15.07,35.14,15.07,34.76,15.07,34.39z M15.07,35.8c0.37,0,0.74,0,1.11,0.01
					c0,0.37,0.01,0.74,0.01,1.11c-0.37,0-0.74,0-1.11,0C15.08,36.54,15.07,36.17,15.07,35.8z M15.08,37.2c0.37,0,0.74,0,1.11,0
					c0,0.49,0.01,0.99,0.01,1.48c-0.37-0.01-0.75-0.02-1.12-0.04C15.08,38.16,15.08,37.68,15.08,37.2z M15.09,40.04
					c0-0.37,0-0.75-0.01-1.12c0.37,0.02,0.75,0.03,1.12,0.04c0,0.36,0,0.73,0.01,1.09C15.84,40.05,15.47,40.05,15.09,40.04z
					 M16.45,29.62c0.35,0.01,0.7,0.02,1.05,0.03c-0.01,0.35-0.02,0.7-0.03,1.05c-0.34,0-0.68,0-1.03,0
					C16.45,30.35,16.45,29.99,16.45,29.62z M16.45,30.99c0.34,0,0.68,0,1.02,0c-0.01,0.46-0.01,0.93-0.01,1.39
					c-0.34,0-0.67,0-1.01,0C16.45,31.92,16.45,31.45,16.45,30.99z M16.45,32.66c0.34,0,0.67,0,1.01,0c0,0.51-0.01,1.01-0.01,1.52
					c-0.33-0.01-0.67-0.02-1-0.03C16.45,33.66,16.45,33.16,16.45,32.66z M16.45,34.44c0.33,0.01,0.67,0.02,1,0.03
					c0,0.35,0.01,0.7,0.01,1.05c-0.33,0-0.67,0-1,0C16.46,35.16,16.45,34.8,16.45,34.44z M16.46,35.8c0.33,0,0.67,0,1,0
					c0,0.37,0,0.74,0.01,1.1c-0.33,0-0.67,0-1,0C16.47,36.54,16.47,36.17,16.46,35.8z M16.48,37.19c0.33,0,0.67,0,1,0
					c0.01,0.51,0.03,1.02,0.05,1.52c-0.35-0.01-0.69-0.02-1.04-0.03C16.48,38.19,16.48,37.69,16.48,37.19z M16.5,40.05
					c0-0.36-0.01-0.72-0.01-1.08c0.35,0.01,0.69,0.02,1.04,0.03c0.01,0.35,0.02,0.7,0.03,1.05C17.21,40.05,16.86,40.05,16.5,40.05z
					 M17.79,29.66c0.51,0.01,1.01,0.02,1.52,0.03c0,0.34,0,0.68,0,1.02c-0.52,0-1.03,0-1.55,0C17.77,30.36,17.78,30.01,17.79,29.66z
					 M17.75,30.99c0.52,0,1.04,0,1.56,0c0,0.46,0,0.92,0,1.38c-0.52,0-1.05,0-1.57,0C17.75,31.92,17.75,31.45,17.75,30.99z
					 M17.74,32.66c0.52,0,1.05,0,1.57,0c0,0.52,0,1.04,0,1.56c-0.53-0.01-1.06-0.02-1.59-0.03C17.73,33.68,17.74,33.17,17.74,32.66z
					 M17.73,34.47c0.53,0.01,1.06,0.02,1.58,0.03c0,0.34,0,0.68,0,1.02c-0.53,0-1.05,0-1.58,0C17.74,35.17,17.73,34.82,17.73,34.47z
					 M17.75,35.8c0.52,0,1.05,0,1.57,0c0,0.37,0,0.73,0.01,1.1c-0.52,0-1.05,0-1.57,0C17.75,36.54,17.75,36.17,17.75,35.8z
					 M17.76,37.19c0.52,0,1.04,0,1.56,0c0,0.52,0.01,1.04,0.01,1.56c-0.51-0.01-1.02-0.02-1.53-0.03
					C17.79,38.21,17.77,37.7,17.76,37.19z M17.85,40.05c-0.01-0.35-0.02-0.7-0.03-1.04c0.51,0.01,1.01,0.02,1.52,0.03
					c0,0.34,0,0.68,0,1.02C18.84,40.05,18.35,40.05,17.85,40.05z M19.59,29.69c0.46,0.01,0.93,0.01,1.39,0.01c0,0.33,0,0.67,0,1
					c-0.46,0-0.92,0-1.39,0C19.59,30.37,19.59,30.03,19.59,29.69z M19.59,30.99c0.46,0,0.92,0,1.39,0c0,0.46,0,0.92,0,1.38
					c-0.46,0-0.92,0-1.38,0C19.6,31.91,19.6,31.45,19.59,30.99z M19.6,32.66c0.46,0,0.92,0,1.38,0c0,0.53,0,1.05,0,1.58
					c-0.46,0-0.92-0.01-1.38-0.01C19.6,33.7,19.6,33.18,19.6,32.66z M19.6,34.51c0.46,0.01,0.92,0.01,1.38,0.01
					c0,0.33,0.01,0.67,0.01,1c-0.46,0-0.93,0-1.39,0C19.6,35.18,19.6,34.85,19.6,34.51z M19.6,35.8c0.46,0,0.93,0,1.39,0
					c0,0.37,0.01,0.73,0.01,1.1c-0.46,0-0.93,0-1.39,0C19.61,36.54,19.61,36.17,19.6,35.8z M19.61,37.19c0.47,0,0.93,0,1.4,0
					c0,0.53,0.01,1.05,0.01,1.58c-0.47,0-0.94-0.01-1.4-0.01C19.62,38.23,19.61,37.71,19.61,37.19z M19.62,40.05
					c0-0.34,0-0.68,0-1.01c0.47,0.01,0.94,0.01,1.4,0.01c0,0.33,0,0.67,0.01,1C20.56,40.05,20.09,40.05,19.62,40.05z M21.26,29.71
					c0.35,0,0.7,0,1.05,0c-0.01,0.33-0.02,0.67-0.03,1c-0.34,0-0.68,0-1.03,0C21.26,30.38,21.26,30.04,21.26,29.71z M21.26,30.99
					c0.34,0,0.68,0,1.02,0c-0.01,0.46-0.01,0.92-0.01,1.38c-0.34,0-0.67,0-1.01,0C21.26,31.91,21.26,31.45,21.26,30.99z
					 M21.26,32.66c0.34,0,0.67,0,1.01,0c0,0.53-0.01,1.06-0.01,1.58c-0.33,0-0.67,0-1,0C21.26,33.71,21.26,33.18,21.26,32.66z
					 M21.27,34.52c0.33,0,0.67,0,1,0c0,0.33,0.01,0.67,0.01,1c-0.33,0-0.67,0-1,0C21.27,35.19,21.27,34.86,21.27,34.52z
					 M21.28,35.81c0.33,0,0.67,0,1,0c0,0.37,0,0.73,0.01,1.1c-0.33,0-0.67,0-1,0C21.28,36.54,21.28,36.17,21.28,35.81z M21.29,37.19
					c0.33,0,0.67,0,1,0c0.01,0.53,0.03,1.06,0.05,1.58c-0.35,0-0.69,0-1.04,0C21.3,38.24,21.29,37.71,21.29,37.19z M21.32,40.05
					c0-0.33-0.01-0.67-0.01-1c0.35,0,0.69,0,1.04,0c0.01,0.33,0.02,0.67,0.03,1C22.02,40.05,21.67,40.05,21.32,40.05z M22.6,29.7
					c0.43,0,0.85-0.01,1.28-0.01c0,0.33,0,0.67,0,1c-0.44,0-0.87,0.01-1.31,0.01C22.58,30.37,22.59,30.04,22.6,29.7z M22.57,30.99
					c0.44,0,0.88-0.01,1.31-0.01c0,0.46,0,0.93,0,1.39c-0.44,0-0.88,0-1.33,0.01C22.56,31.91,22.56,31.45,22.57,30.99z M22.55,32.65
					c0.44,0,0.89,0,1.33-0.01c0,0.52,0,1.05,0,1.57c-0.45,0.01-0.89,0.01-1.34,0.01C22.54,33.71,22.55,33.18,22.55,32.65z
					 M22.55,34.52c0.45,0,0.89-0.01,1.34-0.01c0,0.33,0.01,0.67,0.01,1c-0.45,0-0.89,0.01-1.34,0.01
					C22.55,35.18,22.55,34.85,22.55,34.52z M22.56,35.8c0.45,0,0.89-0.01,1.34-0.01c0,0.37,0.01,0.74,0.01,1.11
					c-0.44,0-0.89,0-1.33,0.01C22.56,36.53,22.56,36.17,22.56,35.8z M22.58,37.18c0.44,0,0.89,0,1.33-0.01
					c0,0.52,0.01,1.05,0.01,1.57c-0.43,0.01-0.87,0.01-1.3,0.01C22.61,38.24,22.59,37.71,22.58,37.18z M22.66,40.05
					c-0.01-0.33-0.02-0.67-0.03-1c0.43,0,0.86-0.01,1.29-0.01c0,0.33,0,0.67,0.01,1C23.51,40.04,23.09,40.04,22.66,40.05z
					 M24.17,29.69c0.35-0.01,0.7-0.01,1.05-0.02c-0.01,0.34-0.02,0.67-0.03,1.01c-0.34,0-0.68,0.01-1.03,0.01
					C24.17,30.36,24.16,30.02,24.17,29.69z M24.16,30.97c0.34,0,0.68-0.01,1.02-0.01c-0.01,0.47-0.01,0.93-0.01,1.4
					c-0.34,0-0.67,0-1.01,0C24.16,31.9,24.16,31.44,24.16,30.97z M24.16,32.65c0.34,0,0.67,0,1.01,0c0,0.52-0.01,1.04-0.01,1.56
					c-0.33,0.01-0.67,0.01-1,0.02C24.16,33.7,24.16,33.17,24.16,32.65z M24.17,34.5c0.33-0.01,0.67-0.01,1-0.02
					c0,0.34,0.01,0.67,0.01,1.01c-0.33,0-0.67,0.01-1,0.01C24.17,35.17,24.17,34.84,24.17,34.5z M24.18,35.79
					c0.33,0,0.67-0.01,1-0.01c0,0.37,0,0.74,0.01,1.11c-0.33,0-0.67,0-1,0C24.19,36.52,24.18,36.16,24.18,35.79z M24.19,37.18
					c0.33,0,0.67,0,1,0c0.01,0.52,0.03,1.04,0.05,1.56c-0.35,0.01-0.69,0.01-1.04,0.02C24.2,38.22,24.2,37.7,24.19,37.18z
					 M24.22,40.03c0-0.33-0.01-0.67-0.01-1c0.35-0.01,0.69-0.01,1.04-0.02c0.01,0.34,0.02,0.67,0.03,1.01
					C24.92,40.03,24.57,40.03,24.22,40.03z M25.47,30.96c0.52-0.01,1.04-0.01,1.56-0.01c0,0.47,0,0.94,0,1.41
					c-0.52,0-1.05,0.01-1.57,0.01C25.46,31.89,25.46,31.43,25.47,30.96z M25.45,32.64c0.52,0,1.05-0.01,1.57-0.01
					c0,0.5,0,1.01,0,1.51c-0.53,0.02-1.06,0.03-1.59,0.05C25.44,33.68,25.45,33.16,25.45,32.64z M25.45,34.48
					c0.53-0.01,1.06-0.03,1.58-0.05c0,0.35,0,0.7,0,1.05c-0.53,0.01-1.05,0.01-1.58,0.01C25.45,35.15,25.45,34.82,25.45,34.48z
					 M25.46,35.77c0.52-0.01,1.05-0.01,1.57-0.01c0,0.37,0,0.75,0.01,1.12c-0.52,0-1.05,0.01-1.57,0.01
					C25.47,36.52,25.47,36.15,25.46,35.77z M25.48,37.17c0.52,0,1.04-0.01,1.56-0.01c0,0.5,0,1.01,0.01,1.51
					c-0.51,0.02-1.02,0.03-1.53,0.05C25.51,38.21,25.49,37.69,25.48,37.17z M25.56,40.02c-0.01-0.34-0.02-0.68-0.03-1.01
					c0.51-0.01,1.01-0.03,1.52-0.05c0,0.35,0,0.7,0,1.05C26.56,40.01,26.06,40.02,25.56,40.02z M27.31,30.94
					c0.37,0,0.73-0.01,1.1-0.01c0,0.47,0,0.94,0,1.41c-0.37,0-0.73,0-1.1,0.01C27.31,31.88,27.31,31.41,27.31,30.94z M27.31,32.63
					c0.37,0,0.73,0,1.1-0.01c0,0.49,0,0.98,0,1.47c-0.37,0.02-0.73,0.03-1.1,0.04C27.31,33.64,27.31,33.14,27.31,32.63z
					 M27.31,34.42c0.37-0.01,0.73-0.03,1.1-0.04c0,0.36,0.01,0.72,0.01,1.08c-0.37,0.01-0.74,0.01-1.1,0.01
					C27.32,35.12,27.32,34.77,27.31,34.42z M27.32,35.76c0.37,0,0.74-0.01,1.11-0.01c0,0.38,0.01,0.75,0.01,1.13
					c-0.37,0-0.74,0-1.11,0.01C27.32,36.51,27.32,36.13,27.32,35.76z M27.33,37.16c0.37,0,0.74,0,1.11-0.01
					c0,0.49,0.01,0.98,0.01,1.47c-0.37,0.02-0.75,0.03-1.12,0.04C27.33,38.17,27.33,37.67,27.33,37.16z M27.34,40
					c0-0.35,0-0.7,0-1.05c0.37-0.01,0.75-0.03,1.12-0.04c0,0.36,0,0.72,0.01,1.08C28.09,40,27.71,40,27.34,40z M28.69,32.63
					c0.34,0,0.67,0,1.01,0c0,0.47-0.01,0.94-0.01,1.41c-0.33,0.02-0.66,0.03-1,0.05C28.69,33.6,28.69,33.11,28.69,32.63z
					 M28.7,34.37c0.33-0.01,0.67-0.03,1-0.05c0,0.37,0.01,0.75,0.01,1.12c-0.33,0.01-0.67,0.01-1,0.02
					C28.7,35.09,28.7,34.73,28.7,34.37z M28.71,35.74c0.33,0,0.67-0.01,1-0.02c0,0.38,0,0.77,0.01,1.15c-0.33,0-0.67,0-1,0
					C28.72,36.5,28.71,36.12,28.71,35.74z M28.72,37.16c0.33,0,0.67,0,1,0c0.01,0.47,0.03,0.94,0.04,1.41
					c-0.34,0.02-0.69,0.04-1.03,0.05C28.73,38.13,28.73,37.64,28.72,37.16z M28.75,39.99c0-0.36-0.01-0.73-0.01-1.09
					c0.35-0.02,0.69-0.03,1.04-0.05c0.01,0.37,0.02,0.75,0.03,1.12C29.45,39.97,29.1,39.98,28.75,39.99z M29.99,35.72
					c0.52-0.01,1.05-0.02,1.57-0.03c0,0.39,0,0.78,0.01,1.18c-0.52,0-1.05,0-1.57,0.01C30,36.48,30,36.1,29.99,35.72z M30.01,37.15
					c0.52,0,1.04,0,1.57-0.01c0,0.44,0,0.88,0.01,1.32c-0.51,0.03-1.02,0.06-1.53,0.08C30.03,38.08,30.02,37.62,30.01,37.15z
					 M30.09,39.96c-0.01-0.38-0.02-0.75-0.03-1.13c0.51-0.03,1.02-0.05,1.52-0.08c0,0.39,0,0.79,0.01,1.19
					C31.09,39.94,30.59,39.95,30.09,39.96z"/>
				<path class="st5" d="M27.73,34.86v7.2h4.26v-3.7c0-2.6-1.01-4.98-2.65-6.76C28.36,32.35,27.73,33.53,27.73,34.86z"/>
				<path class="st6" d="M31.86,37.14c0.02,0,0.04,0,0.06,0c-0.01-0.09-0.02-0.17-0.03-0.26c0-0.01,0-0.02,0-0.02
					c-0.01,0-0.01,0-0.02,0c0-0.04,0-0.08,0-0.13c0-0.01,0-0.02,0-0.03c-0.04-0.21-0.08-0.42-0.13-0.63c0-0.01,0-0.02-0.01-0.03
					c-0.05-0.2-0.1-0.39-0.16-0.59c-0.01-0.02-0.01-0.04-0.02-0.06c-0.52,0.01-1.03,0.02-1.55,0.03c0-0.38-0.01-0.75-0.01-1.13
					c0.37-0.02,0.74-0.04,1.12-0.06c-0.02-0.05-0.05-0.1-0.07-0.15c-0.02-0.04-0.04-0.08-0.06-0.12c-0.33,0.02-0.66,0.04-0.99,0.05
					c0-0.47,0.01-0.93,0.01-1.4c0.06,0,0.12,0,0.18,0c-0.12-0.17-0.25-0.34-0.39-0.51c-0.02-0.03-0.04-0.05-0.07-0.08
					c0,0.1,0,0.21,0,0.31c-0.34,0-0.67,0-1.01,0c0-0.04,0-0.08,0-0.12c-0.11,0.13-0.21,0.27-0.3,0.41c0.01,0,0.01,0,0.02,0
					c0,0.49,0,0.98,0,1.47c-0.2,0.01-0.4,0.02-0.61,0.02c-0.02,0.09-0.04,0.19-0.05,0.28c0.22-0.01,0.44-0.02,0.66-0.02
					c0,0.36,0.01,0.72,0.01,1.08c-0.23,0-0.46,0.01-0.69,0.01v0.28c0.23,0,0.46,0,0.7-0.01c0,0.38,0.01,0.75,0.01,1.13
					c-0.24,0-0.47,0-0.71,0v0.28c0.24,0,0.47,0,0.71,0c0,0.49,0.01,0.98,0.01,1.47c-0.24,0.01-0.48,0.02-0.72,0.03v0.28
					c0.24-0.01,0.48-0.02,0.72-0.03c0,0.36,0,0.72,0.01,1.08c-0.24,0-0.49,0.01-0.73,0.01v0.28c0.25,0,0.49-0.01,0.74-0.01
					c0.01,0.6,0.02,1.19,0.03,1.78h0.28c-0.01-0.6-0.02-1.19-0.03-1.79c0.36-0.01,0.71-0.01,1.07-0.02c0.02,0.6,0.06,1.21,0.09,1.81
					h0.28c-0.03-0.61-0.07-1.21-0.09-1.82c0.5-0.01,0.99-0.02,1.49-0.03c0,0.61,0.01,1.23,0.01,1.84h0.28
					c0-0.62-0.01-1.23-0.01-1.85c0.04,0,0.08,0,0.12,0v-0.28c-0.04,0-0.08,0-0.12,0c0-0.4,0-0.8-0.01-1.2
					c0.04,0,0.08-0.01,0.13-0.01v-0.28c-0.04,0-0.09,0.01-0.13,0.01C31.86,38.01,31.86,37.58,31.86,37.14z M28.69,32.63
					c0.34,0,0.67,0,1.01,0c0,0.47-0.01,0.94-0.01,1.41c-0.33,0.02-0.66,0.03-1,0.05C28.69,33.6,28.69,33.11,28.69,32.63z
					 M28.7,34.37c0.33-0.01,0.67-0.03,1-0.05c0,0.37,0.01,0.75,0.01,1.12c-0.33,0.01-0.67,0.01-1,0.02
					C28.7,35.09,28.7,34.73,28.7,34.37z M28.71,35.74c0.33,0,0.67-0.01,1-0.02c0,0.38,0,0.77,0.01,1.15c-0.33,0-0.67,0-1,0
					C28.72,36.5,28.71,36.12,28.71,35.74z M28.72,37.16c0.33,0,0.67,0,1,0c0.01,0.47,0.03,0.94,0.04,1.41
					c-0.34,0.02-0.69,0.04-1.03,0.05C28.73,38.13,28.73,37.64,28.72,37.16z M28.75,39.99c0-0.36-0.01-0.73-0.01-1.09
					c0.35-0.02,0.69-0.03,1.04-0.05c0.01,0.37,0.02,0.75,0.03,1.12C29.45,39.97,29.1,39.98,28.75,39.99z M29.99,35.72
					c0.52-0.01,1.05-0.02,1.57-0.03c0,0.39,0,0.78,0.01,1.18c-0.52,0-1.05,0-1.57,0.01C30,36.48,30,36.1,29.99,35.72z M30.01,37.15
					c0.52,0,1.04,0,1.57-0.01c0,0.44,0,0.88,0.01,1.32c-0.51,0.03-1.02,0.06-1.53,0.08C30.03,38.08,30.02,37.62,30.01,37.15z
					 M30.09,39.96c-0.01-0.38-0.02-0.75-0.03-1.13c0.51-0.03,1.02-0.05,1.52-0.08c0,0.39,0,0.79,0.01,1.19
					C31.09,39.94,30.59,39.95,30.09,39.96z"/>
				<path class="st7" d="M18.29,25.42l-0.1,0.26c-0.21,0.56-0.32,1.15-0.32,1.75v3.5c0,1.7,1.38,3.08,3.08,3.08h0.06
					c1.7,0,3.08-1.38,3.08-3.08V27c0-0.31-0.05-0.62-0.16-0.92l-0.2-0.57C22.84,22.96,19.25,22.9,18.29,25.42z"/>
				<g>
					<linearGradient id="SVGID_5_" gradientUnits="userSpaceOnUse" x1="17.8641" y1="26.8393" x2="24.089" y2="26.8393">
						<stop  offset="0" style="stop-color:#6B332B"/>
						<stop  offset="1" style="stop-color:#985448"/>
					</linearGradient>
					<path class="st8" d="M24.09,28.78v-2.71c0-1.7-1.38-3.08-3.08-3.08h-0.06c-1.7,0-3.08,1.38-3.08,3.08v3.6
						c0,0.13,1.54,1.01,2.4,1.01C21.83,30.68,23.21,29.94,24.09,28.78z"/>
				</g>
				<g>
					<path class="st7" d="M21.26,31.67l-0.17,0c-4.69,0-8.49-3.79-8.49-8.48l-0.19-8.13c0-4.24,3.43-7.67,7.67-7.68l1.8,0
						c4.24,0,7.67,3.43,7.68,7.67l0.19,8.13C29.74,27.87,25.95,31.67,21.26,31.67z"/>
					<path class="st9" d="M13.04,14.64c0-0.66,0.29-1.24,0.74-1.65c0.48-0.43,0.75-1.03,0.75-1.67V9.77
						c-1.31,1.38-2.12,3.24-2.12,5.3l0.07,2.89l0,0c0.31,0,0.56-0.25,0.56-0.56V14.64z"/>
					<path class="st9" d="M29.01,14.64c0-0.66-0.29-1.24-0.74-1.65c-0.48-0.43-0.75-1.03-0.75-1.67V9.77
						c1.31,1.38,2.12,3.24,2.12,5.3l-0.07,2.89l0,0c-0.31,0-0.56-0.25-0.56-0.56V14.64z"/>
				</g>
				<g>
					<path class="st5" d="M14.68,34.91v7.2h-4.26v-3.7c0-2.6,1.01-4.98,2.65-6.76C14.05,32.4,14.68,33.58,14.68,34.91z"/>
					<path class="st6" d="M10.55,38.49c-0.04,0-0.09-0.01-0.13-0.01v0.28c0.04,0,0.08,0.01,0.13,0.01c0,0.4,0,0.8-0.01,1.2
						c-0.04,0-0.08,0-0.12,0v0.28c0.04,0,0.08,0,0.12,0c0,0.62-0.01,1.23-0.01,1.85h0.28c0-0.61,0.01-1.23,0.01-1.84
						c0.5,0.01,0.99,0.02,1.49,0.03c-0.02,0.61-0.06,1.21-0.09,1.82h0.28c0.03-0.6,0.07-1.21,0.09-1.81
						c0.36,0.01,0.71,0.01,1.07,0.02c-0.01,0.6-0.02,1.19-0.03,1.79h0.28c0.01-0.59,0.02-1.19,0.03-1.78c0.25,0,0.49,0.01,0.74,0.01
						v-0.28c-0.24,0-0.49-0.01-0.73-0.01c0-0.36,0.01-0.72,0.01-1.08c0.24,0.01,0.48,0.02,0.72,0.03V38.7
						c-0.24-0.01-0.48-0.02-0.72-0.03c0.01-0.49,0.01-0.98,0.01-1.47c0.24,0,0.47,0,0.71,0v-0.28c-0.24,0-0.47,0-0.71,0
						c0-0.38,0.01-0.75,0.01-1.13c0.23,0,0.46,0.01,0.7,0.01v-0.28c-0.23,0-0.46,0-0.69-0.01c0-0.36,0.01-0.72,0.01-1.08
						c0.22,0.01,0.44,0.02,0.66,0.02c-0.01-0.1-0.03-0.19-0.05-0.28c-0.2-0.01-0.4-0.01-0.61-0.02c0-0.49,0-0.98,0-1.47
						c0.01,0,0.01,0,0.02,0c-0.09-0.14-0.19-0.28-0.3-0.41c0,0.04,0,0.08,0,0.12c-0.34,0-0.67,0-1.01,0c0-0.1,0-0.21,0-0.31
						c-0.02,0.03-0.04,0.05-0.07,0.08c-0.13,0.17-0.26,0.34-0.39,0.51c0.06,0,0.12,0,0.18,0c0,0.47,0.01,0.93,0.01,1.4
						c-0.33-0.02-0.66-0.04-0.99-0.05c-0.02,0.04-0.04,0.08-0.06,0.12c-0.02,0.05-0.05,0.1-0.07,0.15c0.37,0.02,0.74,0.04,1.12,0.06
						c0,0.38-0.01,0.75-0.01,1.13c-0.52-0.01-1.03-0.02-1.55-0.03c-0.01,0.02-0.01,0.04-0.02,0.06c-0.06,0.19-0.11,0.39-0.16,0.59
						c0,0.01,0,0.02-0.01,0.03c-0.05,0.21-0.09,0.42-0.13,0.63c0,0.01,0,0.02,0,0.03c0,0.04,0,0.08,0,0.13c-0.01,0-0.01,0-0.02,0
						c0,0.01,0,0.02,0,0.02c-0.01,0.09-0.02,0.17-0.03,0.26c0.02,0,0.04,0,0.06,0C10.56,37.62,10.56,38.06,10.55,38.49z
						 M13.72,34.13c-0.33-0.01-0.66-0.03-1-0.05c0-0.47-0.01-0.94-0.01-1.41c0.34,0,0.67,0,1.01,0
						C13.72,33.16,13.72,33.65,13.72,34.13z M13.71,35.5c-0.33,0-0.67-0.01-1-0.02c0-0.37,0.01-0.75,0.01-1.12
						c0.33,0.02,0.66,0.03,1,0.05C13.72,34.78,13.71,35.14,13.71,35.5z M13.7,36.92c-0.33,0-0.67,0-1,0
						c0.01-0.38,0.01-0.77,0.01-1.15c0.33,0.01,0.67,0.01,1,0.02C13.7,36.16,13.7,36.54,13.7,36.92z M13.68,38.66
						c-0.34-0.02-0.69-0.03-1.03-0.05c0.01-0.47,0.03-0.94,0.04-1.41c0.33,0,0.67,0,1,0C13.69,37.69,13.69,38.17,13.68,38.66z
						 M12.61,40.01c0.01-0.37,0.02-0.75,0.03-1.12c0.35,0.02,0.69,0.04,1.04,0.05c0,0.36-0.01,0.73-0.01,1.09
						C13.31,40.03,12.96,40.02,12.61,40.01z M12.41,36.92c-0.52,0-1.05,0-1.57-0.01c0-0.39,0-0.78,0.01-1.18
						c0.52,0.01,1.05,0.02,1.57,0.03C12.42,36.15,12.42,36.53,12.41,36.92z M12.37,38.6c-0.51-0.03-1.02-0.05-1.53-0.08
						c0-0.44,0-0.88,0.01-1.32c0.52,0,1.04,0,1.57,0.01C12.4,37.66,12.38,38.13,12.37,38.6z M10.83,39.98c0-0.39,0-0.79,0.01-1.19
						c0.51,0.03,1.01,0.06,1.52,0.08c-0.01,0.38-0.02,0.75-0.03,1.13C11.83,40,11.33,39.99,10.83,39.98z"/>
					
						<rect x="13.92" y="33.8" transform="matrix(-1 -1.224647e-16 1.224647e-16 -1 29.1309 75.904)" class="st10" width="1.3" height="8.31"/>
				</g>
				<g>
					<path class="st7" d="M13.07,21.04c-0.68,0.92-1.97,1.11-2.89,0.44c-0.92-0.68-1.11-1.97-0.44-2.89
						c0.68-0.92,1.97-1.11,2.89-0.44C13.56,18.83,13.75,20.12,13.07,21.04z"/>
					<g>
						<path class="st11" d="M10.89,21.18c-0.03-0.01-0.06-0.04-0.06-0.08c0-0.05,0.04-0.09,0.08-0.09c0.65-0.02,1.17-0.56,1.15-1.21
							c-0.01-0.32-0.14-0.61-0.37-0.83c-0.23-0.22-0.53-0.33-0.84-0.32c-0.05,0-0.09-0.04-0.09-0.08c0-0.05,0.04-0.09,0.08-0.09
							c0.36-0.01,0.7,0.12,0.97,0.37c0.26,0.25,0.41,0.58,0.42,0.95c0.02,0.75-0.57,1.37-1.32,1.39
							C10.91,21.18,10.9,21.18,10.89,21.18z"/>
					</g>
					<g>
						<path class="st11" d="M10.84,19.93c-0.02-0.01-0.04-0.02-0.05-0.05c-0.02-0.04,0-0.09,0.04-0.11
							c0.41-0.18,0.89-0.15,1.27,0.09c0.04,0.03,0.05,0.08,0.03,0.12c-0.03,0.04-0.08,0.05-0.12,0.03
							c-0.33-0.21-0.75-0.24-1.11-0.08C10.89,19.94,10.86,19.94,10.84,19.93z"/>
					</g>
				</g>
				<rect x="27.2" y="33.75" class="st10" width="1.3" height="8.31"/>
				<g>
					<path class="st7" d="M28.76,18.58c0.68-0.92,1.97-1.11,2.89-0.44c0.92,0.68,1.11,1.97,0.44,2.89
						c-0.68,0.92-1.97,1.11-2.89,0.44C28.28,20.8,28.08,19.5,28.76,18.58z"/>
					<g>
						<path class="st11" d="M30.94,18.45c0.03,0.01,0.06,0.04,0.06,0.08c0,0.05-0.04,0.09-0.08,0.09c-0.65,0.02-1.17,0.56-1.15,1.21
							c0.01,0.32,0.14,0.61,0.37,0.83c0.23,0.22,0.53,0.33,0.84,0.32c0.05,0,0.09,0.04,0.09,0.08c0,0.05-0.04,0.09-0.08,0.09
							c-0.36,0.01-0.7-0.12-0.97-0.37c-0.26-0.25-0.41-0.58-0.42-0.95c-0.02-0.75,0.57-1.37,1.32-1.39
							C30.92,18.44,30.93,18.44,30.94,18.45z"/>
					</g>
					<g>
						<path class="st11" d="M30.99,19.87c0.02-0.01,0.04-0.02,0.05-0.05c0.02-0.04,0-0.09-0.04-0.11c-0.41-0.18-0.89-0.15-1.27,0.09
							c-0.04,0.03-0.05,0.08-0.03,0.12c0.03,0.04,0.08,0.05,0.12,0.03c0.33-0.21,0.75-0.24,1.11-0.08
							C30.95,19.88,30.97,19.88,30.99,19.87z"/>
					</g>
				</g>
				<path class="st12" d="M19.49,18.59c0,0.36-0.29,0.64-0.64,0.64c-0.36,0-0.64-0.29-0.64-0.64s0.29-0.64,0.64-0.64
					C19.2,17.95,19.49,18.24,19.49,18.59z"/>
				<path class="st13" d="M22.01,28.37h-1.6c-3.25,0-6.14,1.57-7.97,3.99c0.53,4.16,4.08,7.37,8.38,7.37h0.44
					c4.43,0,8.06-3.41,8.42-7.75C27.84,29.78,25.08,28.37,22.01,28.37z"/>
				<path class="st12" d="M24.05,18.59c0,0.36-0.29,0.64-0.64,0.64c-0.36,0-0.64-0.29-0.64-0.64s0.29-0.64,0.64-0.64
					C23.76,17.95,24.05,18.24,24.05,18.59z"/>
				<path class="st14" d="M28.84,19.77v3.74c0,0.88-0.77,1.57-1.66,1.46c-0.75-0.1-1.27-0.79-1.27-1.54c-0.01-1.21-1-2.19-2.22-2.19
					h-2.43h-0.44h-2.43c-1.24,0-2.19,1.01-2.22,2.25c-0.02,0.75-0.57,1.42-1.32,1.49c-0.88,0.08-1.61-0.6-1.61-1.46v-4.04
					c-0.48,0-0.86,0.39-0.86,0.86v9.82c0,4.66,3.78,8.45,8.45,8.45l0,0h0.44l0,0c4.66,0,8.45-3.78,8.45-8.45v-9.53
					C29.71,20.15,29.32,19.77,28.84,19.77z"/>
				<g>
					<path class="st14" d="M16.25,17.31c-0.07,0-0.15-0.01-0.22-0.05c-0.29-0.12-0.42-0.45-0.3-0.74c0.34-0.81,1.06-1.39,1.93-1.56
						c0.86-0.17,1.75,0.1,2.37,0.72c0.22,0.22,0.22,0.58,0,0.8c-0.22,0.22-0.58,0.22-0.8,0c-0.36-0.35-0.86-0.51-1.35-0.41
						c-0.49,0.1-0.9,0.43-1.1,0.89C16.68,17.18,16.47,17.31,16.25,17.31z"/>
				</g>
				<g>
					<path class="st14" d="M25.56,17.31c-0.22,0-0.43-0.13-0.52-0.35c-0.2-0.46-0.61-0.8-1.1-0.89c-0.49-0.1-1,0.06-1.35,0.41
						c-0.22,0.22-0.58,0.22-0.8,0c-0.22-0.22-0.22-0.58,0-0.8c0.62-0.62,1.51-0.89,2.37-0.72c0.86,0.17,1.58,0.75,1.93,1.56
						c0.12,0.29-0.01,0.62-0.3,0.74C25.71,17.3,25.63,17.31,25.56,17.31z"/>
				</g>
				<path class="st15" d="M21.67,25.99h-1.09c-1.11,0-2.02-0.9-2.02-2.02v-0.39h5.12v0.39C23.68,25.09,22.78,25.99,21.67,25.99z"/>
				<path class="st16" d="M21.4,22.43h-0.39c-0.56,0-1.02-0.46-1.02-1.02v-1.51c0-0.56,0.46-1.02,1.02-1.02h0.39
					c0.56,0,1.02,0.46,1.02,1.02v1.51C22.42,21.97,21.96,22.43,21.4,22.43z"/>
				<path class="st17" d="M21.54,22.38c0.37-0.11,0.67-0.39,0.8-0.75c0,0,0,0,0,0C21.92,21.63,21.57,21.96,21.54,22.38z"/>
				<path class="st17" d="M20.07,21.63c0.13,0.34,0.4,0.61,0.75,0.73C20.79,21.97,20.47,21.66,20.07,21.63z"/>
				<path class="st18" d="M26.28,5.01c-1.78-1.82-4.58-1.99-6.78-0.69c-0.38,0.22-0.82,0.35-1.3,0.35h-0.56
					c-1.08,0-1.99-0.67-2.37-1.61c-0.21,0.19-0.54,0.94-0.9,1.87c-1.04,2.67,0.39,5.7,3.12,6.55c0.48,0.15,0.98,0.29,1.5,0.4
					c0.41,0.09,0.83,0.13,1.26,0.13h8.14c0.29,0,0.53-0.24,0.53-0.53l0,0C28.92,8.97,27.91,6.69,26.28,5.01z"/>
				<g>
					<path class="st14" d="M17.5,22.28c0.01,0.05,0.02,0.11,0.02,0.17c0,0.48-0.39,0.86-0.86,0.86c-0.48,0-0.86-0.39-0.86-0.86
						c0-0.31,0.16-0.58,0.41-0.73c0,0-0.01,0-0.01,0c-1,0-1.82,0.81-1.82,1.82c0,1,0.81,1.82,1.82,1.82c1,0,1.82-0.81,1.82-1.82
						C18.01,23.05,17.82,22.6,17.5,22.28z"/>
					<path class="st14" d="M24.57,22.31c-0.01,0.05-0.02,0.11-0.02,0.17c0,0.48,0.39,0.86,0.86,0.86c0.48,0,0.86-0.39,0.86-0.86
						c0-0.31-0.16-0.58-0.41-0.73c0,0,0.01,0,0.01,0c1,0,1.82,0.81,1.82,1.82c0,1-0.81,1.82-1.82,1.82s-1.82-0.81-1.82-1.82
						C24.07,23.08,24.26,22.64,24.57,22.31z"/>
				</g>
			</g>
		</g>
	</g>
</g>
</svg>
