<?xml version="1.0" standalone="no"?>
<!DOCTYPE svg PUBLIC "-//W3C//DTD SVG 1.1//EN" "http://www.w3.org/Graphics/SVG/1.1/DTD/svg11.dtd" >
<svg xmlns="http://www.w3.org/2000/svg">
<metadata>Generated by IcoMoon</metadata>
<defs>
<font id="icomoon" horiz-adv-x="1024">
<font-face units-per-em="1024" ascent="960" descent="-64" />
<missing-glyph horiz-adv-x="1024" />
<glyph unicode="&#x20;" horiz-adv-x="512" d="" />
<glyph unicode="&#xe900;" glyph-name="route" d="M256 21.329c55.732 0 103.145 35.618 120.716 85.333h369.95c106.039 0 192 85.961 192 192s-85.961 192-192 192h-469.333c-58.91 0-106.667 47.757-106.667 106.668s47.756 106.667 106.667 106.667h131.66l-24.994-24.993c-16.662-16.663-16.662-43.677 0-60.34s43.678-16.662 60.339 0l97.83 97.83c16.661 16.662 16.661 43.677 0 60.34l-97.83 97.83c-16.661 16.663-43.677 16.663-60.339 0s-16.662-43.677 0-60.34l24.994-24.994h-131.66c-106.039 0-192-85.961-192-192 0-106.040 85.961-192.001 192-192.001h469.333c58.91 0 106.667-47.757 106.667-106.667s-47.757-106.667-106.667-106.667h-369.95c-17.571 49.715-64.984 85.333-120.716 85.333-70.692 0-128-57.306-128-128 0-70.69 57.308-128 128-128zM213.333 149.329c0 23.565 19.103 42.667 42.667 42.667s42.667-19.102 42.667-42.667c0-23.565-19.103-42.667-42.667-42.667s-42.667 19.102-42.667 42.667zM768 874.663c70.694 0 128-57.307 128-128s-57.306-128-128-128c-70.694 0-128 57.308-128 128s57.306 128 128 128zM725.333 746.663c0 23.564 19.102 42.667 42.667 42.667s42.667-19.102 42.667-42.667c0-23.564-19.102-42.667-42.667-42.667s-42.667 19.103-42.667 42.667z" />
<glyph unicode="&#xe901;" glyph-name="shield-ok" d="M529.378-13.521c-11.004-5.005-23.753-4.996-34.748 0.017-244.42 111.42-366.63 222.592-366.63 333.504v426.667c0 32.751 12.57 40.362 47.357 61.428 10.533 6.378 23.102 13.99 37.976 23.906 6.903 4.602 152.030 85.333 298.667 85.333 127.795 0 234.667-42.667 298.667-85.333 14.874-9.916 27.443-17.527 37.978-23.906 34.786-21.065 47.356-28.677 47.356-61.428 0.841-9.268 0.427-206.383 0.162-332.574-0.090-43.034-0.162-77.82-0.162-94.093 0-111.172-122.206-222.349-366.622-333.521zM810.667 320c0 9.826 0.026 26.291 0.077 53.133l0.175 83.341c0.055 26.961 0.098 50.099 0.132 72.175 0.158 95.239 0.115 176.98 0.026 202.262l-5.862 3.637c-13.798 8.559-31.778 19.716-41.882 26.45-62.989 41.992-154.897 71.002-251.332 71.002-92.241 0-212.111-44.855-251.332-71.002-10.102-6.735-28.084-17.891-41.882-26.45l-5.453-3.384v-411.165c0-62.43 89.488-147.012 280.674-238.997 11.392-5.478 24.674-5.487 36.070-0.013 191.155 91.785 280.589 176.341 280.589 239.010zM682.667 576c-16.661 16.662-43.678 16.662-60.339 0l-152.994-152.994-67.66 67.661c-16.662 16.661-43.677 16.661-60.34 0s-16.662-43.678 0-60.339l97.83-97.83c16.661-16.661 43.678-16.661 60.339 0l183.164 183.164c16.661 16.661 16.661 43.677 0 60.339z" />
<glyph unicode="&#xe902;" glyph-name="shuffle" d="M853.333 576c-25.6 0-42.667 17.067-42.667 42.667v170.667h-170.667c-25.6 0-42.667 17.067-42.667 42.667s17.067 42.667 42.667 42.667h213.333c25.6 0 42.667-17.067 42.667-42.667v-213.333c0-25.6-17.067-42.667-42.667-42.667zM128 64c-12.8 0-21.333 4.267-29.867 12.8-17.067 17.067-17.067 42.667 0 59.733l725.333 725.333c17.067 17.067 42.667 17.067 59.733 0s17.067-42.667 0-59.733l-725.333-725.333c-8.533-8.533-17.067-12.8-29.867-12.8zM853.333 21.333h-213.333c-25.6 0-42.667 17.067-42.667 42.667s17.067 42.667 42.667 42.667h170.667v170.667c0 25.6 17.067 42.667 42.667 42.667s42.667-17.067 42.667-42.667v-213.333c0-25.6-17.067-42.667-42.667-42.667zM853.333 21.333c-12.8 0-21.333 4.267-29.867 12.8l-256 256c-17.067 17.067-17.067 42.667 0 59.733s42.667 17.067 59.733 0l256-256c17.067-17.067 17.067-42.667 0-59.733-8.533-8.533-17.067-12.8-29.867-12.8zM341.333 533.333c-12.8 0-21.333 4.267-29.867 12.8l-213.333 213.333c-17.067 17.067-17.067 42.667 0 59.733s42.667 17.067 59.733 0l213.333-213.333c17.067-17.067 17.067-42.667 0-59.733-8.533-8.533-17.067-12.8-29.867-12.8z" />
<glyph unicode="&#xe903;" glyph-name="smartphone" d="M725.333-21.333h-426.667c-72.533 0-128 55.467-128 128v682.667c0 72.533 55.467 128 128 128h426.667c72.533 0 128-55.467 128-128v-682.667c0-72.533-55.467-128-128-128zM298.667 832c-25.6 0-42.667-17.067-42.667-42.667v-682.667c0-25.6 17.067-42.667 42.667-42.667h426.667c25.6 0 42.667 17.067 42.667 42.667v682.667c0 25.6-17.067 42.667-42.667 42.667h-426.667zM554.667 192c0-23.564-19.103-42.667-42.667-42.667s-42.667 19.103-42.667 42.667c0 23.564 19.103 42.667 42.667 42.667s42.667-19.103 42.667-42.667z" />
<glyph unicode="&#xe904;" glyph-name="target" horiz-adv-x="989" d="M35.31 359.724c0-19.502 15.809-35.31 35.31-35.31h37.25c16.283-147.301 133.242-264.259 280.543-280.544v-37.249c0-19.502 15.808-35.31 35.31-35.31s35.31 15.808 35.31 35.31v37.249c147.301 16.285 264.259 133.244 280.544 280.544h37.249c19.502 0 35.31 15.808 35.31 35.31s-15.808 35.31-35.31 35.31h-37.249c-16.285 147.301-133.244 264.26-280.544 280.543v37.25c0 19.501-15.808 35.31-35.31 35.31s-35.31-15.809-35.31-35.31v-37.25c-147.301-16.283-264.26-133.243-280.543-280.543h-37.25c-19.501 0-35.31-15.808-35.31-35.31zM176.552 359.724c0 136.51 110.663 247.172 247.172 247.172s247.172-110.663 247.172-247.172c0-136.51-110.663-247.172-247.172-247.172s-247.172 110.663-247.172 247.172zM423.724 500.966c78.004 0 141.241-63.237 141.241-141.241s-63.237-141.241-141.241-141.241c-78.005 0-141.241 63.237-141.241 141.241s63.236 141.241 141.241 141.241zM353.103 359.724c0 39.004 31.617 70.621 70.621 70.621s70.621-31.617 70.621-70.621c0-39.004-31.617-70.621-70.621-70.621s-70.621 31.617-70.621 70.621zM811.887 606.897v126.615l-20.685-20.684c-13.789-13.79-36.147-13.79-49.936 0s-13.789 36.147 0 49.936l80.963 80.963c13.789 13.789 36.147 13.789 49.936 0l80.963-80.963c13.789-13.789 13.789-36.147 0-49.936s-36.147-13.79-49.936 0l-20.685 20.684v-126.615c0-19.502-15.808-35.31-35.31-35.31s-35.31 15.808-35.31 35.31zM741.517 889.379c-19.502 0-35.31 15.809-35.31 35.31s15.808 35.31 35.31 35.31h211.862c19.502 0 35.31-15.809 35.31-35.31s-15.808-35.31-35.31-35.31h-211.862z" />
<glyph unicode="&#xe905;" glyph-name="wifi-off" d="M981.333-64c-12.8 0-21.333 4.267-29.867 12.8l-938.667 938.667c-17.067 17.067-17.067 42.667 0 59.733s42.667 17.067 59.733 0l938.667-938.667c17.067-17.067 17.067-42.667 0-59.733-8.533-8.533-17.067-12.8-29.867-12.8zM554.667 106.667c0-23.564-19.103-42.667-42.667-42.667s-42.667 19.103-42.667 42.667c0 23.564 19.103 42.667 42.667 42.667s42.667-19.103 42.667-42.667zM810.667 379.733c-8.533 0-21.333 4.267-25.6 8.533-25.6 21.333-55.467 42.667-89.6 59.733-21.333 8.533-29.867 34.133-21.333 55.467s34.133 29.867 55.467 21.333c38.4-17.067 72.533-42.667 106.667-68.267 17.067-17.067 21.333-42.667 4.267-59.733-4.267-8.533-17.067-17.067-29.867-17.067zM213.333 384c-12.8 0-25.6 4.267-34.133 17.067-17.067 17.067-12.8 46.933 4.267 59.733 72.533 55.467 153.6 93.867 243.2 106.667 21.333 4.267 46.933-12.8 51.2-34.133s-12.8-46.933-34.133-51.2c-72.533-12.8-145.067-42.667-200.533-93.867-8.533-4.267-21.333-4.267-29.867-4.267zM964.267 533.333c-8.533 0-21.333 4.267-29.867 8.533-128 115.2-302.933 170.667-473.6 157.867-21.333 0-42.667 17.067-46.933 38.4 0 25.6 17.067 42.667 38.4 46.933 196.267 17.067 392.533-51.2 537.6-179.2 17.067-17.067 21.333-42.667 4.267-59.733-8.533-8.533-17.067-12.8-29.867-12.8zM59.733 533.333c-12.8 0-25.6 4.267-34.133 12.8-17.067 17.067-12.8 42.667 4.267 59.733 64 55.467 136.533 98.133 213.333 132.267 21.333 8.533 46.933 0 55.467-25.6s0-46.933-25.6-55.467c-64-25.6-128-64-183.467-110.933-8.533-8.533-17.067-12.8-29.867-12.8zM362.667 230.4c-12.8 0-25.6 4.267-34.133 17.067-12.8 21.333-8.533 46.933 8.533 59.733 102.4 72.533 243.2 72.533 345.6 0 21.333-12.8 25.6-38.4 8.533-59.733-12.8-21.333-38.4-25.6-59.733-8.533-72.533 51.2-174.933 51.2-247.467 0-4.267-8.533-12.8-8.533-21.333-8.533z" />
<glyph unicode="&#xe906;" glyph-name="zap" d="M469.333-21.333c-4.267 0-12.8 0-17.067 4.267-17.067 8.533-25.6 25.6-25.6 42.667l38.4 294.4h-337.067c-17.067 0-29.867 8.533-38.4 25.6s-4.267 34.133 4.267 46.933l426.667 512c12.8 12.8 34.133 17.067 51.2 8.533s25.6-25.6 25.6-42.667l-38.4-294.4h337.067c17.067 0 29.867-8.533 38.4-25.6s4.267-34.133-4.267-46.933l-426.667-512c-8.533-8.533-21.333-12.8-34.133-12.8zM217.6 405.333h294.4c12.8 0 25.6-4.267 29.867-12.8 8.533-8.533 12.8-21.333 8.533-34.133l-25.6-196.267 273.067 328.533h-285.867c-12.8 0-25.6 4.267-29.867 12.8-8.533 8.533-12.8 21.333-8.533 34.133l25.6 196.267-281.6-328.533z" />
<glyph unicode="&#xe907;" glyph-name="quote-right" horiz-adv-x="1399" d="M1254.082 203.813c0 133.909-97.667 212.679-218.78 212.679-31.257 0-66.416-3.938-78.136-11.815 39.068 165.415 214.878 330.831 402.401 366.277l39.068 189.046c-398.492-27.569-691.506-370.215-691.506-736.493 0-185.107 121.113-287.507 265.666-287.507 167.992 0 281.288 114.213 281.288 267.813zM546.952 203.813c0 133.909-97.67 212.679-218.781 212.679-31.254 0-66.416-3.938-78.136-11.815 39.068 165.415 214.874 330.831 402.403 366.277l39.068 189.046c-398.496-27.569-691.506-370.215-691.506-736.493 0-185.107 121.111-287.507 265.662-287.507 167.992 0 281.29 114.213 281.29 267.813z" />
<glyph unicode="&#xe908;" glyph-name="android" d="M618.667 320c-35.292 0-64-28.708-64-64v-256c0-35.292 28.708-64 64-64s64 28.708 64 64v256c0 35.292-28.708 64-64 64zM618.667-53.333c-35.292 0-64 28.708-64 64v-10.667c0-35.292 28.708-64 64-64s64 28.708 64 64v10.667c0-35.292-28.708-64-64-64zM405.333 320c-35.292 0-64-28.708-64-64v-256c0-35.292 28.708-64 64-64s64 28.708 64 64v256c0 35.292-28.708 64-64 64zM405.333-53.333c-35.292 0-64 28.708-64 64v-10.667c0-35.292 28.708-64 64-64s64 28.708 64 64v10.667c0-35.292-28.708-64-64-64zM768 618.667h-512v-384c0-47.128 38.205-85.333 85.333-85.333h341.333c47.128 0 85.333 38.205 85.333 85.333v384zM874.667 618.667c-35.292 0-64-28.708-64-64v-256c0-35.292 28.708-64 64-64s64 28.708 64 64v256c0 35.292-28.708 64-64 64zM389.396 840.084c-7.125 0-14.104 3.563-18.146 10.062l-48.042 77.25c-6.208 10-3.146 23.167 6.854 29.396 10.042 6.187 23.167 3.167 29.396-6.854l48.042-77.25c6.208-10 3.146-23.167-6.854-29.396-3.521-2.167-7.396-3.208-11.25-3.208zM634.604 840.084c-3.854 0-7.729 1.042-11.25 3.208-10 6.229-13.062 19.396-6.854 29.396l48.042 77.25c6.229 10.021 19.354 13.042 29.396 6.854 10-6.229 13.062-19.396 6.854-29.396l-48.042-77.25c-4.042-6.5-11.021-10.062-18.146-10.062zM512 917.334c-141.385 0-256-114.615-256-256h512c0 141.385-114.615 256-256 256zM256 618.667h512v-10.667h-512v10.667zM682.667 160h-341.333c-47.128 0-85.333 38.206-85.333 85.333v-10.667c0-47.128 38.206-85.333 85.333-85.333h341.333c47.128 0 85.333 38.206 85.333 85.333v10.667c0-47.128-38.206-85.333-85.333-85.333zM874.667 618.667c-35.292 0-64-28.708-64-64v-10.667c0 35.292 28.708 64 64 64s64-28.708 64-64v10.667c0 35.292-28.708 64-64 64zM874.667 245.334c-35.292 0-64 28.708-64 64v-10.667c0-35.292 28.708-64 64-64s64 28.708 64 64v10.667c0-35.292-28.708-64-64-64zM512 906.667c107.258 0 199.052-62.301 238.971-153.334-36.602 96.635-129.508 164.001-238.971 164.001s-202.438-67.542-239.039-164.178c39.919 91.034 131.781 153.511 239.039 153.511zM426.667 768c0-11.782-9.551-21.333-21.333-21.333s-21.333 9.551-21.333 21.333c0 11.782 9.551 21.333 21.333 21.333s21.333-9.551 21.333-21.333zM640 768c0-11.782-9.551-21.333-21.333-21.333s-21.333 9.551-21.333 21.333c0 11.782 9.551 21.333 21.333 21.333s21.333-9.551 21.333-21.333zM256.539 672c-0.148-3.565-0.539-7.065-0.539-10.667h512c0 3.602-0.391 7.102-0.539 10.667h-510.922zM149.333 618.667c-35.292 0-64-28.708-64-64v-256c0-35.292 28.708-64 64-64s64 28.708 64 64v256c0 35.292-28.708 64-64 64zM149.333 618.667c-35.292 0-64-28.708-64-64v-10.667c0 35.292 28.708 64 64 64s64-28.708 64-64v10.667c0 35.292-28.708 64-64 64zM149.333 245.334c-35.292 0-64 28.708-64 64v-10.667c0-35.292 28.708-64 64-64s64 28.708 64 64v10.667c0-35.292-28.708-64-64-64zM256 234.667c0-47.128 38.206-85.333 85.333-85.333v-149.333c0-35.292 28.708-64 64-64s64 28.708 64 64v149.333h85.333v-149.333c0-35.292 28.708-64 64-64s64 28.708 64 64v149.333c47.128 0 85.333 38.206 85.333 85.333v384h-512v-384zM874.667 618.667c-35.292 0-64-28.708-64-64v-256c0-35.292 28.708-64 64-64s64 28.708 64 64v256c0 35.292-28.708 64-64 64zM663.469 867.381l37.323 60.016c6.208 10 3.146 23.167-6.854 29.396-10.042 6.187-23.167 3.167-29.396-6.854l-37.422-60.174c-34.638 17.492-73.664 27.57-115.12 27.57s-80.482-10.078-115.12-27.57l-37.422 60.174c-6.229 10.021-19.354 13.042-29.396 6.854-10-6.229-13.062-19.396-6.854-29.396l37.323-60.016c-63.289-46.609-104.531-121.419-104.531-206.047h512c0 84.628-41.242 159.438-104.531 206.047zM149.333 618.667c-35.292 0-64-28.708-64-64v-256c0-35.292 28.708-64 64-64s64 28.708 64 64v256c0 35.292-28.708 64-64 64z" />
<glyph unicode="&#xe909;" glyph-name="linkedin" d="M170.667 874.667h682.667c47.13 0 85.333-38.205 85.333-85.333v-682.667c0-47.13-38.204-85.333-85.333-85.333h-682.667c-47.128 0-85.333 38.204-85.333 85.333v682.667c0 47.128 38.205 85.333 85.333 85.333zM170.667 789.333v-682.667h682.667v682.667h-682.667zM554.667 576c-22.089 0-45.427-6.752-66.044-19.292l-19.29 19.292h-42.667v-298.667h85.333v170.667c0 24.563 25.344 42.667 42.667 42.667h42.667c17.323 0 42.667-18.103 42.667-42.667v-170.667h85.333v170.667c0 79.053-68.523 128-128 128h-42.667zM341.333 618.667c23.564 0 42.667 19.103 42.667 42.667s-19.103 42.667-42.667 42.667c-23.564 0-42.667-19.103-42.667-42.667s19.103-42.667 42.667-42.667zM298.667 576v-298.667h85.333v298.667h-85.333z" />
<glyph unicode="&#xe90a;" glyph-name="lock" d="M298.667 661.333v-128h-42.667c-45.583 0-85.333-33.126-85.333-78.221v-355.558c0-45.094 39.75-78.221 85.333-78.221h512c45.585 0 85.333 33.126 85.333 78.221v355.558c0 45.094-39.748 78.221-85.333 78.221h-42.667v128c0 117.821-95.514 213.333-213.333 213.333s-213.333-95.513-213.333-213.333zM640 661.333v-128h-256v128c0 70.692 57.306 128 128 128s128-57.308 128-128zM256 106.667v341.333h512v-341.333h-512zM554.667 277.333c0-23.565-19.102-42.667-42.667-42.667s-42.667 19.102-42.667 42.667c0 23.565 19.102 42.667 42.667 42.667s42.667-19.102 42.667-42.667z" />
<glyph unicode="&#xe90b;" glyph-name="minus" d="M810.667 405.333h-597.333c-25.6 0-42.667 17.067-42.667 42.667s17.067 42.667 42.667 42.667h597.333c25.6 0 42.667-17.067 42.667-42.667s-17.067-42.667-42.667-42.667z" />
<glyph unicode="&#xe90c;" glyph-name="package" d="M512-55.467c-21.333 0-38.4 4.267-55.467 12.8l-341.333 170.667c-42.667 21.333-72.533 68.267-72.533 115.2v409.6c0 46.933 25.6 93.867 72.533 115.2l341.333 170.667c34.133 17.067 76.8 17.067 115.2 0 0 0 0 0 0 0l341.333-170.667c42.667-21.333 72.533-64 72.533-115.2v-405.333c0-46.933-25.6-93.867-72.533-115.2l-341.333-170.667c-21.333-12.8-38.4-17.067-59.733-17.067zM512 866.133c-8.533 0-12.8 0-17.067-4.267l-341.333-170.667c-17.067-8.533-25.6-25.6-25.6-38.4v-405.333c0-17.067 8.533-29.867 21.333-38.4l341.333-170.667c12.8-4.267 25.6-4.267 38.4 0l341.333 170.667c12.8 8.533 25.6 21.333 25.6 38.4v405.333c0 17.067-8.533 29.867-25.6 38.4l-341.333 170.667c-4.267 0-8.533 4.267-17.067 4.267zM512 448c-8.533 0-12.8 0-17.067 4.267l-413.867 204.8c-21.333 12.8-29.867 38.4-21.333 59.733 12.8 21.333 38.4 29.867 59.733 17.067l392.533-196.267 392.533 196.267c21.333 8.533 46.933 0 55.467-17.067 8.533-21.333 0-46.933-17.067-55.467l-413.867-204.8c-4.267-8.533-8.533-8.533-17.067-8.533zM512-55.467c-25.6 0-42.667 17.067-42.667 42.667v503.467c0 25.6 17.067 42.667 42.667 42.667s42.667-17.067 42.667-42.667v-503.467c0-21.333-17.067-42.667-42.667-42.667zM725.333 554.667c-8.533 0-12.8 0-17.067 4.267l-426.667 213.333c-21.333 12.8-29.867 38.4-21.333 55.467 12.8 21.333 38.4 29.867 55.467 21.333l426.667-213.333c21.333-8.533 29.867-34.133 17.067-55.467-4.267-17.067-17.067-25.6-34.133-25.6z" />
<glyph unicode="&#xe90d;" glyph-name="pie-chart" d="M512-21.333c-21.333 0-38.4 0-59.733 4.267-209.067 25.6-375.467 192-405.333 401.067s85.333 413.867 277.333 494.933c21.333 8.533 46.933 0 55.467-21.333s0-46.933-21.333-55.467c-157.867-68.267-251.733-234.667-226.133-405.333s162.133-302.933 328.533-328.533c170.667-21.333 337.067 72.533 405.333 230.4 8.533 21.333 34.133 29.867 55.467 21.333s29.867-34.133 21.333-55.467c-72.533-174.933-243.2-285.867-430.933-285.867zM938.667 405.333h-426.667c-25.6 0-42.667 17.067-42.667 42.667v426.667c0 25.6 17.067 42.667 42.667 42.667 123.733 0 243.2-46.933 332.8-136.533s136.533-209.067 136.533-332.8c0-25.6-17.067-42.667-42.667-42.667zM554.667 490.667h337.067c-8.533 85.333-46.933 166.4-110.933 230.4-59.733 59.733-140.8 98.133-226.133 106.667v-337.067z" />
<glyph unicode="&#xe90e;" glyph-name="plus" d="M512 106.667c-25.6 0-42.667 17.067-42.667 42.667v597.333c0 25.6 17.067 42.667 42.667 42.667s42.667-17.067 42.667-42.667v-597.333c0-25.6-17.067-42.667-42.667-42.667zM810.667 405.333h-597.333c-25.6 0-42.667 17.067-42.667 42.667s17.067 42.667 42.667 42.667h597.333c25.6 0 42.667-17.067 42.667-42.667s-17.067-42.667-42.667-42.667z" />
<glyph unicode="&#xe90f;" glyph-name="apple" d="M736.006 725.088c-88.852 0-136.024-44.434-205.83-43.528-69.824-0.906-116.98 43.528-205.844 43.528-70.728 0-160.514-43.528-201.314-107.022-75.258-116.096-68.010-242.176-36.27-372.756 34.458-138.798 155.968-309.31 252.094-309.31 78.882 0 114.262 42.65 191.334 42.65 77.052 0 111.512-42.65 189.52-42.65 88.85 0 194.944 146.046 240.304 275.752-87.068 34.464-146.020 120.612-146.020 212.226 0 90.692 46.266 160.528 116.996 200.43-43.518 58.964-126.96 100.68-194.97 100.68v0zM712.418 960c-127.836-13.608-223.042-120.626-214.888-242.162 127.852 12.7 222.166 120.628 214.888 242.162v0z" />
<glyph unicode="&#xe910;" glyph-name="info" d="M512-21.333c-260.267 0-469.333 209.067-469.333 469.333s209.067 469.333 469.333 469.333 469.333-209.067 469.333-469.333-209.067-469.333-469.333-469.333zM512 832c-213.333 0-384-170.667-384-384s170.667-384 384-384c213.333 0 384 170.667 384 384s-170.667 384-384 384zM512 234.667c-25.6 0-42.667 17.067-42.667 42.667v170.667c0 25.6 17.067 42.667 42.667 42.667s42.667-17.067 42.667-42.667v-170.667c0-25.6-17.067-42.667-42.667-42.667zM554.667 618.667c0-23.564-19.103-42.667-42.667-42.667s-42.667 19.103-42.667 42.667c0 23.564 19.103 42.667 42.667 42.667s42.667-19.103 42.667-42.667z" />
<glyph unicode="&#xe911;" glyph-name="instagram" d="M682.667 874.667h-341.333c-141.385 0-256-114.615-256-256v-341.333c0-141.385 114.615-256 256-256h341.333c141.385 0 256 114.615 256 256v341.333c0 141.385-114.615 256-256 256zM170.667 618.667c0 94.257 76.41 170.667 170.667 170.667h341.333c94.255 0 170.667-76.41 170.667-170.667v-341.333c0-94.255-76.412-170.667-170.667-170.667h-341.333c-94.257 0-170.667 76.412-170.667 170.667v341.333zM512 234.667c-117.821 0-213.333 95.514-213.333 213.333s95.513 213.333 213.333 213.333c117.82 0 213.333-95.513 213.333-213.333s-95.514-213.333-213.333-213.333zM512 320c70.694 0 128 57.306 128 128s-57.306 128-128 128c-70.694 0-128-57.306-128-128s57.306-128 128-128zM768 661.333c0-23.564-19.102-42.667-42.667-42.667s-42.667 19.103-42.667 42.667c0 23.564 19.102 42.667 42.667 42.667s42.667-19.103 42.667-42.667z" />
<glyph unicode="&#xe912;" glyph-name="key" d="M341.333 576c0 164.949 133.717 298.667 298.667 298.667s298.667-133.718 298.667-298.667c0-164.949-133.717-298.667-298.667-298.667h-42.667c-23.565 0-42.667-19.102-42.667-42.667s-19.102-42.667-42.667-42.667c-23.565 0-42.667-19.102-42.667-42.667s-19.102-42.667-42.667-42.667c-23.564 0-42.667-19.102-42.667-42.667s-19.103-42.667-42.667-42.667h-213.333c-23.564 0-42.667 19.102-42.667 42.667v170.667c0 11.315 4.495 22.17 12.497 30.17l249.818 249.818c-4.184 20.025-6.315 40.554-6.315 61.346zM426.667 277.333c23.565 0 42.667 19.102 42.667 42.667s19.102 42.667 42.667 42.667h128c117.82 0 213.333 95.514 213.333 213.333s-95.514 213.333-213.333 213.333c-117.82 0-213.333-95.513-213.333-213.333 0-21.275 3.102-42.086 9.135-61.99l7.415-24.465-260.054-260.053c-8.001-8.004-12.497-18.854-12.497-30.17v-49.988c0-23.565 19.103-42.667 42.667-42.667h42.667c23.564 0 42.667 19.102 42.667 42.667s19.103 42.667 42.667 42.667c23.564 0 42.667 19.102 42.667 42.667s19.103 42.667 42.667 42.667zM554.667 576c0-47.13 38.204-85.333 85.333-85.333s85.333 38.204 85.333 85.333c0 47.128-38.204 85.333-85.333 85.333s-85.333-38.205-85.333-85.333z" />
<glyph unicode="&#xe913;" glyph-name="file-checked" d="M657.673 917.333h-444.339c-47.128 0-85.333-38.205-85.333-85.333v-768c0-47.13 38.205-85.333 85.333-85.333h597.333c47.13 0 85.333 38.204 85.333 85.333v615.006l-238.327 238.327zM213.333 832h341.333v-170.667c0-47.128 38.204-85.333 85.333-85.333h170.667v-512h-597.333v768zM640 661.333v152.994l152.994-152.994h-152.994zM682.667 448c-16.661 16.661-43.678 16.661-60.339 0l-152.994-152.994-67.66 67.661c-16.662 16.661-43.677 16.661-60.34 0s-16.662-43.678 0-60.339l97.83-97.83c16.661-16.661 43.678-16.661 60.339 0l183.164 183.164c16.661 16.661 16.661 43.678 0 60.339z" />
<glyph unicode="&#xe914;" glyph-name="file-create" horiz-adv-x="985" d="M512 841.846h-315.077v-708.923h354.462c21.752 0 39.385-17.632 39.385-39.385s-17.632-39.385-39.385-39.385h-354.462c-43.503 0-78.769 35.265-78.769 78.769v708.923c0 43.503 35.266 78.769 78.769 78.769h410.159l219.995-219.994v-370.775c0-21.752-17.632-39.385-39.385-39.385s-39.385 17.632-39.385 39.385v275.692h-157.538c-43.504 0-78.769 35.266-78.769 78.769v157.538zM850.148 53.874h-141.225c-21.752 0-39.385 17.632-39.385 39.385s17.632 39.385 39.385 39.385h141.225l-23.072 23.072c-15.38 15.38-15.38 40.318 0 55.698s40.318 15.38 55.698 0l90.305-90.305c15.38-15.38 15.38-40.318 0-55.698l-90.305-90.305c-15.38-15.38-40.318-15.38-55.698 0s-15.38 40.318 0 55.698l23.072 23.072zM590.769 825.533l141.225-141.225h-141.225v141.225z" />
<glyph unicode="&#xe915;" glyph-name="calendar" horiz-adv-x="896" d="M800 832h-96v104c0 13.2-10.8 24-24 24h-80c-13.2 0-24-10.8-24-24v-104h-256v104c0 13.2-10.8 24-24 24h-80c-13.2 0-24-10.8-24-24v-104h-96c-53 0-96-43-96-96v-704c0-53 43-96 96-96h704c53 0 96 43 96 96v704c0 53-43 96-96 96zM788 32h-680c-6.6 0-12 5.4-12 12v596h704v-596c0-6.6-5.4-12-12-12z" />
<glyph unicode="&#xe916;" glyph-name="image" d="M810.667 21.333h-597.333c-72.533 0-128 55.467-128 128v597.333c0 72.533 55.467 128 128 128h597.333c72.533 0 128-55.467 128-128v-597.333c0-72.533-55.467-128-128-128zM213.333 789.333c-25.6 0-42.667-17.067-42.667-42.667v-597.333c0-25.6 17.067-42.667 42.667-42.667h597.333c25.6 0 42.667 17.067 42.667 42.667v597.333c0 25.6-17.067 42.667-42.667 42.667h-597.333zM362.667 490.667c-59.733 0-106.667 46.933-106.667 106.667s46.933 106.667 106.667 106.667 106.667-46.933 106.667-106.667-46.933-106.667-106.667-106.667zM362.667 618.667c-12.8 0-21.333-8.533-21.333-21.333s8.533-21.333 21.333-21.333 21.333 8.533 21.333 21.333-8.533 21.333-21.333 21.333zM213.333 21.333c-12.8 0-21.333 4.267-29.867 12.8-17.067 17.067-17.067 42.667 0 59.733l469.333 469.333c17.067 17.067 42.667 17.067 59.733 0l213.333-213.333c17.067-17.067 17.067-42.667 0-59.733s-42.667-17.067-59.733 0l-183.467 183.467-439.467-439.467c-8.533-8.533-17.067-12.8-29.867-12.8z" />
<glyph unicode="&#xe917;" glyph-name="circle-checked" d="M512-21.333c-259.206 0-469.333 210.129-469.333 469.333 0 259.206 210.128 469.333 469.333 469.333 259.204 0 469.333-210.128 469.333-469.333 0-259.204-210.129-469.333-469.333-469.333zM512 64c212.079 0 384 171.921 384 384 0 212.077-171.921 384-384 384-212.077 0-384-171.923-384-384 0-212.079 171.923-384 384-384zM674.133 606.17l-225.83-225.831-97.83 97.83-60.34-60.339 158.17-158.17 286.17 286.169-60.339 60.34z" />
<glyph unicode="&#xe918;" glyph-name="clock" d="M512-21.333c-260.267 0-469.333 209.067-469.333 469.333s209.067 469.333 469.333 469.333 469.333-209.067 469.333-469.333-209.067-469.333-469.333-469.333zM512 832c-213.333 0-384-170.667-384-384s170.667-384 384-384c213.333 0 384 170.667 384 384s-170.667 384-384 384zM640 277.333c-12.8 0-21.333 4.267-29.867 12.8l-128 128c-8.533 8.533-12.8 17.067-12.8 29.867v256c0 25.6 17.067 42.667 42.667 42.667s42.667-17.067 42.667-42.667v-238.933l115.2-115.2c17.067-17.067 17.067-42.667 0-59.733-8.533-8.533-17.067-12.8-29.867-12.8z" />
<glyph unicode="&#xe919;" glyph-name="file-text" horiz-adv-x="768" d="M576 464v-56c0-13.2-10.8-24-24-24h-336c-13.2 0-24 10.8-24 24v56c0 13.2 10.8 24 24 24h336c13.2 0 24-10.8 24-24zM552 320h-336c-13.2 0-24-10.8-24-24v-56c0-13.2 10.8-24 24-24h336c13.2 0 24 10.8 24 24v56c0 13.2-10.8 24-24 24zM768 696.2v-664.2c0-53-43-96-96-96h-576c-53 0-96 43-96 96v832c0 53 43 96 96 96h408.2c25.4 0 49.8-10.2 67.8-28.2l167.8-167.8c18-17.8 28.2-42.4 28.2-67.8zM512 856.2v-152.2h152.2l-152.2 152.2zM672 32v576h-208c-26.6 0-48 21.4-48 48v208h-320v-832h576z" />
<glyph unicode="&#xe91a;" glyph-name="check-circle" d="M469.333-64c-157.867 0-307.2 76.8-396.8 213.333-110.933 174.933-98.133 405.333 38.4 558.933 136.533 157.867 362.667 209.067 550.4 128 21.333-12.8 29.867-38.4 21.333-59.733s-34.133-29.867-55.467-21.333c-157.867 68.267-341.333 29.867-448-98.133-110.933-128-123.733-315.733-29.867-456.533s268.8-209.067 430.933-157.867c157.867 42.667 273.067 192 273.067 362.667v38.4c0 25.6 17.067 42.667 42.667 42.667s42.667-17.067 42.667-42.667v-38.4c0-204.8-136.533-392.533-337.067-448-42.667-12.8-85.333-21.333-132.267-21.333zM469.333 277.333c-12.8 0-21.333 4.267-29.867 12.8l-128 128c-17.067 17.067-17.067 42.667 0 59.733s42.667 17.067 59.733 0l98.133-98.133 439.467 439.467c17.067 17.067 42.667 17.067 59.733 0s17.067-42.667 0-59.733l-469.333-469.333c-8.533-8.533-17.067-12.8-29.867-12.8z" />
<glyph unicode="&#xe91b;" glyph-name="chevron-right" d="M622.319 448l-190.485 190.484 60.339 60.34 250.825-250.824-250.825-250.825-60.339 60.339 190.485 190.485z" />
<glyph unicode="&#xe91c;" glyph-name="arrow-left" d="M853.333 405.333h-682.667c-25.6 0-42.667 17.067-42.667 42.667s17.067 42.667 42.667 42.667h682.667c25.6 0 42.667-17.067 42.667-42.667s-17.067-42.667-42.667-42.667zM426.667 149.333c-12.8 0-21.333 4.267-29.867 12.8l-256 256c-17.067 17.067-17.067 42.667 0 59.733l256 256c17.067 17.067 42.667 17.067 59.733 0s17.067-42.667 0-59.733l-226.133-226.133 226.133-226.133c17.067-17.067 17.067-42.667 0-59.733-8.533-8.533-17.067-12.8-29.867-12.8z" />
<glyph unicode="&#xe91d;" glyph-name="arrow-right" d="M853.333 405.333h-682.667c-25.6 0-42.667 17.067-42.667 42.667s17.067 42.667 42.667 42.667h682.667c25.6 0 42.667-17.067 42.667-42.667s-17.067-42.667-42.667-42.667zM597.333 149.333c-12.8 0-21.333 4.267-29.867 12.8-17.067 17.067-17.067 42.667 0 59.733l226.133 226.133-226.133 226.133c-17.067 17.067-17.067 42.667 0 59.733s42.667 17.067 59.733 0l256-256c17.067-17.067 17.067-42.667 0-59.733l-256-256c-8.533-8.533-17.067-12.8-29.867-12.8z" />
<glyph unicode="&#xe91e;" glyph-name="bell" d="M810.667 533.333c0 173.192-95.505 293.397-219.076 329.484-4.476 11.578-11.546 22.341-21.158 31.372-32.845 30.858-84.019 30.858-116.864 0-9.591-9.012-16.653-19.747-21.129-31.296-123.731-35.93-219.106-155.873-219.106-329.561 0-112.38-22.657-175.351-64.599-220.983-7.012-7.633-26.011-25.109-38.881-36.949-6.086-5.598-10.807-9.941-12.233-11.375-7.872-7.987-12.286-18.748-12.286-29.961v-42.667c0-47.13 38.205-85.333 85.333-85.333h174.42c8.783-45.312 33.37-75.631 77.833-102.763 54.694-33.378 123.465-33.378 178.159 0 39.241 23.945 65.549 60.745 76.224 102.763h176.030c47.13 0 85.333 38.204 85.333 85.333v42.667c0 11.213-4.412 21.973-12.288 29.961-1.293 1.31-5.815 5.483-11.733 10.94-12.83 11.836-32.201 29.709-39.322 37.487-41.971 45.845-64.657 108.898-64.657 220.881zM586.099 106.065h-151.812c6.029-11.213 16.303-19.682 33.084-29.922 27.405-16.721 61.854-16.721 89.259 0 12.689 7.744 22.605 17.993 29.47 29.922zM812.382 254.831c8.977-9.809 28.22-27.733 40.951-39.445v-23.987h-682.667v23.966c12.632 11.575 31.933 29.487 40.896 39.241 56.991 62.007 87.104 145.702 87.104 278.729 0 161.285 99.532 255.472 213.333 255.472 113.481 0 213.333-94.673 213.333-255.472 0-132.599 30.123-216.32 87.049-278.502z" />
<glyph unicode="&#xe91f;" glyph-name="activity" d="M640 64c-17.067 0-34.133 12.8-38.4 29.867l-217.6 644.267-89.6-264.533c-4.267-12.8-21.333-25.6-38.4-25.6h-170.667c-25.6 0-42.667 17.067-42.667 42.667s17.067 42.667 42.667 42.667h140.8l119.467 354.133c4.267 17.067 21.333 29.867 38.4 29.867s34.133-12.8 38.4-29.867l217.6-644.267 89.6 264.533c4.267 17.067 21.333 29.867 38.4 29.867h170.667c25.6 0 42.667-17.067 42.667-42.667s-17.067-42.667-42.667-42.667h-140.8l-119.467-354.133c-4.267-21.333-21.333-34.133-38.4-34.133z" />
<glyph unicode="&#xe920;" glyph-name="close" d="M256 149.333c-12.8 0-21.333 4.267-29.867 12.8-17.067 17.067-17.067 42.667 0 59.733l512 512c17.067 17.067 42.667 17.067 59.733 0s17.067-42.667 0-59.733l-512-512c-8.533-8.533-17.067-12.8-29.867-12.8zM768 149.333c-12.8 0-21.333 4.267-29.867 12.8l-512 512c-17.067 17.067-17.067 42.667 0 59.733s42.667 17.067 59.733 0l512-512c17.067-17.067 17.067-42.667 0-59.733-8.533-8.533-17.067-12.8-29.867-12.8z" />
<glyph unicode="&#xe921;" glyph-name="menu" d="M164.568 656.456c0 19.187 15.557 34.744 34.744 34.744h625.368c19.187 0 34.744-15.557 34.744-34.744s-15.557-34.744-34.744-34.744h-625.368c-19.187 0-34.744 15.557-34.744 34.744zM164.568 239.544c0 19.187 15.557 34.744 34.744 34.744h625.368c19.187 0 34.744-15.557 34.744-34.744s-15.557-34.744-34.744-34.744h-625.368c-19.187 0-34.744 15.557-34.744 34.744zM199.312 482.744c-19.187 0-34.744-15.557-34.744-34.744s15.557-34.744 34.744-34.744h347.432c19.187 0 34.744 15.557 34.744 34.744s-15.557 34.744-34.744 34.744h-347.432z" />
</font>
</defs>
</svg>
