<?xml version="1.0" standalone="no"?>
<!DOCTYPE svg PUBLIC "-//W3C//DTD SVG 1.1//EN" "http://www.w3.org/Graphics/SVG/1.1/DTD/svg11.dtd" >
<svg xmlns="http://www.w3.org/2000/svg">
<metadata>Generated by IcoMoon</metadata>
<defs>
<font id="icomoon" horiz-adv-x="1024">
<font-face units-per-em="1024" ascent="960" descent="-64" />
<missing-glyph horiz-adv-x="1024" />
<glyph unicode="&#x20;" horiz-adv-x="512" d="" />
<glyph unicode="&#xe900;" glyph-name="arrows-right" d="M350.093 420.151c15.381 15.38 15.381 40.317 0 55.698l-250.642 250.642c-15.38 15.381-40.317 15.381-55.698 0s-15.381-40.318 0-55.698l222.793-222.793-222.793-222.793c-15.381-15.38-15.381-40.317 0-55.698s40.318-15.381 55.698 0l250.642 250.642zM243.475 408.615h78.769v78.769h-78.769v-78.769zM665.17 420.151c15.381 15.38 15.381 40.317 0 55.698l-250.642 250.642c-15.38 15.381-40.317 15.381-55.698 0s-15.381-40.318 0-55.698l222.792-222.793-222.792-222.793c-15.381-15.38-15.381-40.317 0-55.698s40.317-15.381 55.698 0l250.642 250.642zM558.552 408.615h78.769v78.769h-78.769v-78.769zM980.251 420.151c15.376 15.38 15.376 40.317 0 55.698l-250.646 250.642c-15.38 15.381-40.317 15.381-55.698 0s-15.381-40.318 0-55.698l222.793-222.793-222.793-222.793c-15.381-15.38-15.381-40.317 0-55.698s40.317-15.381 55.698 0l250.646 250.642zM873.629 408.615h78.769v78.769h-78.769v-78.769z" />
<glyph unicode="&#xe901;" glyph-name="arrows-down" d="M484.151 609.907c15.38-15.381 40.317-15.381 55.698 0l250.642 250.642c15.381 15.38 15.381 40.317 0 55.698s-40.318 15.381-55.698 0l-222.793-222.793-222.793 222.793c-15.38 15.381-40.317 15.381-55.698 0s-15.381-40.318 0-55.698l250.642-250.642zM472.615 716.525v-78.769h78.769v78.769h-78.769zM484.151 294.83c15.38-15.381 40.317-15.381 55.698 0l250.642 250.642c15.381 15.38 15.381 40.317 0 55.698s-40.318 15.381-55.698 0l-222.793-222.792-222.793 222.792c-15.38 15.381-40.317 15.381-55.698 0s-15.381-40.317 0-55.698l250.642-250.642zM472.615 401.448v-78.769h78.769v78.769h-78.769zM484.151-20.251c15.38-15.376 40.317-15.376 55.698 0l250.642 250.646c15.381 15.38 15.381 40.317 0 55.698s-40.318 15.381-55.698 0l-222.793-222.793-222.793 222.793c-15.38 15.381-40.317 15.381-55.698 0s-15.381-40.317 0-55.698l250.642-250.646zM472.615 86.371v-78.769h78.769v78.769h-78.769z" />
<glyph unicode="&#xe902;" glyph-name="arrows-up" d="M539.849 286.093c-15.38 15.381-40.317 15.381-55.698 0l-250.642-250.642c-15.381-15.38-15.381-40.317 0-55.698s40.318-15.381 55.698 0l222.793 222.793 222.793-222.793c15.38-15.381 40.317-15.381 55.698 0s15.381 40.318 0 55.698l-250.642 250.642zM551.385 179.475v78.769h-78.769v-78.769h78.769zM539.849 601.17c-15.38 15.381-40.317 15.381-55.698 0l-250.642-250.642c-15.381-15.38-15.381-40.317 0-55.698s40.318-15.381 55.698 0l222.793 222.792 222.793-222.792c15.38-15.381 40.317-15.381 55.698 0s15.381 40.317 0 55.698l-250.642 250.642zM551.385 494.552v78.769h-78.769v-78.769h78.769zM539.849 916.251c-15.38 15.376-40.317 15.376-55.698 0l-250.642-250.646c-15.381-15.38-15.381-40.317 0-55.698s40.318-15.381 55.698 0l222.793 222.793 222.793-222.793c15.38-15.381 40.317-15.381 55.698 0s15.381 40.317 0 55.698l-250.642 250.646zM551.385 809.629v78.769h-78.769v-78.769h78.769z" />
<glyph unicode="&#xe903;" glyph-name="arrows-left" d="M673.907 420.151c-15.381 15.38-15.381 40.317 0 55.698l250.642 250.642c15.38 15.381 40.317 15.381 55.698 0s15.381-40.318 0-55.698l-222.793-222.793 222.793-222.793c15.381-15.38 15.381-40.317 0-55.698s-40.318-15.381-55.698 0l-250.642 250.642zM780.525 408.615h-78.769v78.769h78.769v-78.769zM358.83 420.151c-15.381 15.38-15.381 40.317 0 55.698l250.642 250.642c15.38 15.381 40.317 15.381 55.698 0s15.381-40.318 0-55.698l-222.792-222.793 222.792-222.793c15.381-15.38 15.381-40.317 0-55.698s-40.317-15.381-55.698 0l-250.642 250.642zM465.448 408.615h-78.769v78.769h78.769v-78.769zM43.749 420.151c-15.376 15.38-15.376 40.317 0 55.698l250.646 250.642c15.38 15.381 40.317 15.381 55.698 0s15.381-40.318 0-55.698l-222.793-222.793 222.793-222.793c15.381-15.38 15.381-40.317 0-55.698s-40.317-15.381-55.698 0l-250.646 250.642zM150.371 408.615h-78.769v78.769h78.769v-78.769z" />
<glyph unicode="&#xe904;" glyph-name="check-mark" d="M1012.175 670.202l-586.763-586.636c-15.726-15.667-41.187-15.667-56.85 0l-356.828 359.108c-15.663 15.726-15.663 41.282 0 56.913l85.259 85.196c15.726 15.695 41.187 15.695 56.85 0l243.444-245.061 472.682 472.715c15.667 15.664 41.128 15.664 56.912 0l85.263-85.323c15.821-15.695 15.821-41.25 0.029-56.913z" />
<glyph unicode="&#xe905;" glyph-name="close" d="M912 767.425l-80.575 80.575-319.425-319.425-319.425 319.425-80.575-80.575 319.425-319.425-319.425-319.425 80.575-80.575 319.425 319.425 319.425-319.425 80.575 80.575-319.425 319.425 319.425 319.425z" />
<glyph unicode="&#xe906;" glyph-name="menu" d="M24 773.333h976v-108.444h-976v108.444zM24 502.223h976v-108.444h-976v108.444zM24 231.11h976v-108.444h-976v108.444z" />
<glyph unicode="&#xe907;" glyph-name="star-half-empty" horiz-adv-x="951" d="M677.714 404l146.857 142.857-241.143 35.429-17.143 34.286-90.857 184v-550.286l33.714-17.714 181.714-96-34.286 202.857-6.857 37.714zM936 553.714l-207.429-202.286 49.143-285.714c4-25.143-5.143-40-22.857-40-6.286 0-14.286 2.286-22.857 6.857l-256.571 134.857-256.571-134.857c-8.571-4.571-16.571-6.857-22.857-6.857-17.714 0-26.857 14.857-22.857 40l49.143 285.714-208 202.286c-24.571 24.571-16.571 48.571 17.714 53.714l286.857 41.714 128.571 260c7.429 15.429 17.714 23.429 28 23.429v0c10.286 0 20-8 28-23.429l128.571-260 286.857-41.714c34.286-5.143 42.286-29.143 17.143-53.714z" />
<glyph unicode="&#xe908;" glyph-name="facebook" d="M576 608v128c0 35.328 28.672 64 64 64h64v160h-128c-106.048 0-192-85.952-192-192v-160h-128v-160h128v-512h192v512h128l64 160h-192z" />
<glyph unicode="&#xe909;" glyph-name="instagram" d="M1022.976 658.941c-2.401 54.409-11.196 91.815-23.802 124.228-12.999 34.405-33.007 65.208-59.216 90.815-25.606 26.005-56.61 46.212-90.618 59.011-32.597 12.604-69.808 21.403-124.217 23.802-54.818 2.602-72.22 3.204-211.246 3.204-139.027 0-156.429-0.602-211.041-3.001-54.409-2.399-91.815-11.205-124.219-23.802-34.413-13.003-65.216-33.006-90.823-59.214-26.005-25.607-46.204-56.613-59.011-90.619-12.604-32.608-21.403-69.811-23.802-124.22-2.602-54.815-3.204-72.217-3.204-211.244s0.602-156.43 3.001-211.043c2.399-54.409 11.205-91.813 23.809-124.228 13.003-34.401 33.202-65.206 59.207-90.812 25.607-26.004 56.613-46.211 90.619-59.011 32.608-12.607 69.81-21.402 124.227-23.802 54.604-2.406 72.014-2.998 211.041-2.998s156.429 0.592 211.042 2.998c54.409 2.401 91.813 11.196 124.217 23.802 68.818 26.607 123.227 81.015 149.834 149.823 12.595 32.609 21.402 69.82 23.802 124.228 2.401 54.613 2.998 72.016 2.998 211.043s-0.199 156.429-2.6 211.041zM930.765 240.862c-2.207-50.011-10.604-77.016-17.607-95.022-17.209-44.612-52.611-80.014-97.223-97.223-18-6.997-45.204-15.4-95.016-17.596-54.010-2.406-70.212-2.998-206.838-2.998-136.628 0-153.029 0.592-206.845 2.998-50.010 2.196-77.015 10.598-95.019 17.596-22.2 8.209-42.407 21.208-58.808 38.212-17.004 16.606-30.006 36.608-38.211 58.806-7.001 18.005-15.402 45.215-17.597 95.022-2.406 54.010-3 70.218-3 206.845s0.594 153.030 3 206.837c2.196 50.010 10.596 77.015 17.597 95.019 8.205 22.207 21.207 42.407 38.414 58.816 16.597 17.004 36.601 30.006 58.808 38.203 18.004 7.001 45.212 15.402 95.019 17.605 54.010 2.399 70.217 3.001 206.837 3.001 136.829 0 153.031-0.602 206.848-3.001 50.005-2.203 77.010-10.604 95.016-17.605 22.198-8.197 42.405-21.2 58.806-38.203 17.004-16.605 30.009-36.609 38.212-58.816 7.003-18.004 15.4-45.204 17.607-95.019 2.395-54.011 2.998-70.209 2.998-206.837s-0.603-152.629-2.998-206.64zM513.885 710.947c-145.224 0-263.051-117.82-263.051-263.051s117.828-263.053 263.051-263.053c145.23 0 263.053 117.823 263.053 263.053 0 145.232-117.823 263.051-263.053 263.051zM513.885 277.259c-94.214 0-170.635 76.413-170.635 170.637 0 94.222 76.421 170.635 170.635 170.635 94.223 0 170.637-76.414 170.637-170.635 0-94.223-76.413-170.637-170.637-170.637zM848.771 721.355c0-33.913-27.494-61.41-61.417-61.41-33.911 0-61.412 27.498-61.412 61.41 0 33.921 27.5 61.41 61.412 61.41 33.923 0 61.417-27.489 61.417-61.41z" />
<glyph unicode="&#xe90a;" glyph-name="linkedin" d="M147.92 907.994c-70.394 0-116.42-46.225-116.42-106.981 0-59.414 44.654-106.957 113.719-106.957h1.336c71.771 0 116.437 47.543 116.437 106.957-1.342 60.756-44.666 106.981-115.073 106.981zM43.667 609.539h205.793v-619.137h-205.793v619.137zM754.591 624.068c-111.013 0-185.458-104.321-185.458-104.321v89.789h-205.8v-619.134h205.789v345.748c0 18.512 1.343 36.989 6.775 50.227 14.876 36.96 48.737 75.251 105.586 75.251 74.468 0 104.255-56.777 104.255-140.008v-331.218h205.773v354.998c0 190.173-101.53 278.667-236.919 278.667z" />
<glyph unicode="&#xe90b;" glyph-name="twitter" d="M1024 765.504c-38.081-16.704-78.655-27.776-120.963-33.152 43.526 25.984 76.737 66.816 92.353 116.032-40.573-24.192-85.373-41.28-133.12-50.816-38.525 41.024-93.44 66.432-153.344 66.432-116.224 0-209.791-94.336-209.791-209.984 0-16.64 1.408-32.639 4.865-47.871-174.528 8.512-328.961 92.159-432.704 219.584-18.112-31.424-28.736-67.392-28.736-106.112 0-72.704 37.44-137.152 93.248-174.464-33.728 0.64-66.816 10.432-94.848 25.856 0-0.64 0-1.472 0-2.304 0-102.016 72.768-186.752 168.192-206.271-17.088-4.676-35.712-6.912-55.040-6.912-13.44 0-27.008 0.768-39.744 3.584 27.2-83.137 104.384-144.259 196.16-146.239-71.424-55.876-162.112-89.537-260.288-89.537-17.216 0-33.728 0.768-50.24 2.879 92.992-59.967 203.2-94.208 322.048-94.208 386.304 0 597.504 320 597.504 597.376 0 9.28-0.319 18.24-0.768 27.136 41.665 29.568 76.669 66.496 105.216 108.992z" />
<glyph unicode="&#xe90c;" glyph-name="star-o" horiz-adv-x="951" d="M649.714 377.143l174.857 169.714-241.143 35.429-108 218.286-108-218.286-241.143-35.429 174.857-169.714-41.714-240.571 216 113.714 215.429-113.714zM950.857 581.143c0-10.286-7.429-20-14.857-27.429l-207.429-202.286 49.143-285.714c0.571-4 0.571-7.429 0.571-11.429 0-15.429-6.857-28.571-23.429-28.571-8 0-16 2.857-22.857 6.857l-256.571 134.857-256.571-134.857c-7.429-4-14.857-6.857-22.857-6.857-16.571 0-24 13.714-24 28.571 0 4 0.571 7.429 1.143 11.429l49.143 285.714-208 202.286c-6.857 7.429-14.286 17.143-14.286 27.429 0 17.143 17.714 24 32 26.286l286.857 41.714 128.571 260c5.143 10.857 14.857 23.429 28 23.429s22.857-12.571 28-23.429l128.571-260 286.857-41.714c13.714-2.286 32-9.143 32-26.286z" />
<glyph unicode="&#xe90d;" glyph-name="star" horiz-adv-x="951" d="M950.857 581.143c0-10.286-7.429-20-14.857-27.429l-207.429-202.286 49.143-285.714c0.571-4 0.571-7.429 0.571-11.429 0-14.857-6.857-28.571-23.429-28.571-8 0-16 2.857-22.857 6.857l-256.571 134.857-256.571-134.857c-7.429-4-14.857-6.857-22.857-6.857-16.571 0-24 13.714-24 28.571 0 4 0.571 7.429 1.143 11.429l49.143 285.714-208 202.286c-6.857 7.429-14.286 17.143-14.286 27.429 0 17.143 17.714 24 32 26.286l286.857 41.714 128.571 260c5.143 10.857 14.857 23.429 28 23.429s22.857-12.571 28-23.429l128.571-260 286.857-41.714c13.714-2.286 32-9.143 32-26.286z" />
<glyph unicode="&#xe90e;" glyph-name="offer" horiz-adv-x="1000" d="M943.909 434.737c-4.12 8.428-4.12 18.098 0 26.524l38.19 78.131c21.265 43.5 4.418 95.349-38.354 118.043l-76.82 40.76c-8.29 4.396-13.97 12.22-15.592 21.458l-15.024 85.657c-8.368 47.692-52.482 79.739-100.415 72.957l-86.106-12.18c-9.294-1.312-18.483 1.676-25.225 8.198l-62.503 60.463c-34.801 33.668-89.32 33.67-124.119 0l-62.503-60.469c-6.744-6.524-15.935-9.506-25.227-8.198l-86.104 12.18c-47.951 6.786-92.050-25.266-100.416-72.957l-15.024-85.653c-1.622-9.239-7.304-17.063-15.59-21.459l-76.819-40.76c-42.771-22.691-59.619-74.545-38.356-118.048l38.189-78.126c4.12-8.431 4.12-18.098 0-26.526l-38.191-78.126c-21.264-43.503-4.416-95.351 38.356-118.045l76.819-40.76c8.288-4.396 13.97-12.22 15.592-21.458l15.024-85.655c7.616-43.418 44.844-73.865 87.629-73.86 4.214 0 8.491 0.295 12.787 0.905l86.106 12.178c9.287 1.319 18.481-1.675 25.225-8.197l62.503-60.465c17.403-16.835 39.726-25.251 62.059-25.249 22.326 0.002 44.663 8.419 62.059 25.249l62.503 60.465c6.744 6.522 15.935 9.501 25.225 8.197l86.106-12.178c47.955-6.785 92.048 25.264 100.415 72.955l15.024 85.653c1.624 9.24 7.305 17.064 15.592 21.46l76.82 40.76c42.772 22.691 59.619 74.545 38.354 118.048l-38.19 78.129zM916.063 290.733l-76.82-40.758c-24.493-13-41.289-36.116-46.080-63.427l-15.024-85.655c-2.831-16.135-17.747-26.973-33.972-24.683l-86.106 12.181c-27.46 3.889-54.63-4.949-74.562-24.225l-62.503-60.462c-11.771-11.388-30.218-11.388-41.994 0l-62.501 60.462c-16.845 16.294-38.863 25.125-61.852 25.125-4.211 0-8.458-0.295-12.71-0.897l-86.104-12.181c-16.212-2.292-31.142 8.548-33.974 24.683l-15.026 85.658c-4.792 27.312-21.588 50.43-46.081 63.422l-76.819 40.76c-14.472 7.678-20.172 25.22-12.978 39.938l38.192 78.129c12.176 24.912 12.176 53.482 0 78.395l-38.192 78.129c-7.194 14.719-1.494 32.261 12.978 39.938l76.819 40.76c24.492 12.997 41.29 36.113 46.080 63.425l15.024 85.655c2.832 16.136 17.748 26.976 33.973 24.684l86.106-12.18c27.448-3.886 54.63 4.948 74.559 24.226l62.505 60.463c11.771 11.388 30.215 11.388 41.991 0l62.503-60.463c19.929-19.28 47.106-28.112 74.559-24.226l86.106 12.18c16.213 2.294 31.144-8.548 33.972-24.684l15.026-85.657c4.791-27.312 21.587-50.43 46.080-63.422l76.82-40.76c14.473-7.678 20.173-25.22 12.978-39.938l-38.193-78.126c-12.176-24.91-12.176-53.484 0-78.395l38.193-78.129c7.195-14.721 1.495-32.266-12.976-39.943zM715.761 663.767c-11.53 11.532-30.23 11.532-41.76 0l-389.773-389.773c-11.532-11.532-11.532-30.23 0-41.762 5.764-5.766 13.322-8.65 20.877-8.65 7.558 0 15.116 2.882 20.88 8.65l389.773 389.773c11.537 11.535 11.537 30.23 0.002 41.762zM381.879 713.767c-59.704 0-108.276-48.572-108.276-108.276s48.572-108.276 108.276-108.276c59.704 0 108.276 48.572 108.276 108.276s-48.572 108.276-108.276 108.276zM381.879 556.276c-27.138 0-49.215 22.077-49.215 49.218 0 27.136 22.077 49.215 49.215 49.215s49.218-22.079 49.218-49.215c-0.002-27.141-22.079-49.218-49.218-49.218zM618.118 398.785c-59.704 0-108.278-48.572-108.278-108.276s48.574-108.276 108.278-108.276c59.702 0 108.276 48.572 108.276 108.276s-48.574 108.276-108.276 108.276zM618.118 241.293c-27.138 0-49.218 22.077-49.218 49.215s22.077 49.215 49.218 49.215c27.136 0 49.215-22.077 49.215-49.215s-22.079-49.215-49.215-49.215z" />
<glyph unicode="&#xe90f;" glyph-name="settings" d="M479.868-64h64.266c51.978 0 94.269 42.289 94.269 94.267v21.74c22.096 7.061 43.566 15.972 64.193 26.646l15.409-15.406c37.317-37.364 97.095-36.269 133.33 0.015l45.422 45.419c36.298 36.257 37.342 96.015-0.012 133.33l-15.397 15.397c10.674 20.626 19.585 42.091 26.646 64.193h21.74c51.975 0 94.267 42.289 94.267 94.267v64.268c0 51.978-42.291 94.267-94.269 94.267h-21.738c-7.063 22.099-15.972 43.566-26.646 64.193l15.406 15.406c37.332 37.293 36.303 97.056-0.012 133.33l-45.424 45.424c-36.318 36.368-96.083 37.276-133.33-0.012l-15.394-15.394c-20.626 10.672-42.096 19.584-64.193 26.646v21.74c0 51.978-42.289 94.266-94.269 94.266h-64.266c-51.978 0-94.267-42.288-94.267-94.266v-21.742c-22.096-7.060-43.566-15.972-64.193-26.646l-15.409 15.408c-37.317 37.364-97.096 36.268-133.33-0.014l-45.422-45.42c-36.298-36.258-37.342-96.015 0.012-133.33l15.396-15.397c-10.674-20.626-19.584-42.091-26.646-64.193h-21.74c-51.978 0-94.268-42.289-94.268-94.267v-64.268c0-51.978 42.29-94.267 94.268-94.267h21.74c7.062-22.099 15.972-43.566 26.646-64.193l-15.408-15.409c-37.332-37.293-36.302-97.056 0.012-133.33l45.426-45.424c36.318-36.369 96.082-37.276 133.329 0.012l15.394 15.394c20.626-10.672 42.096-19.585 64.193-26.646v-21.743c0-51.973 42.289-94.262 94.269-94.262zM692.565 141.661c-28.652-16.947-59.494-29.75-91.66-38.051-13.249-3.418-22.506-15.365-22.506-29.047v-44.295c0-18.895-15.372-34.267-34.267-34.267h-64.266c-18.893 0-34.267 15.372-34.267 34.267v44.295c0 13.683-9.257 25.629-22.504 29.047-32.168 8.302-63.008 21.104-91.663 38.051-11.791 6.971-26.8 5.076-36.486-4.61l-31.376-31.378c-13.529-13.544-35.252-13.229-48.448-0.015l-45.454 45.453c-13.164 13.146-13.604 34.875-0.012 48.45l31.39 31.39c9.684 9.684 11.58 24.695 4.61 36.484-16.946 28.652-29.746 59.492-38.048 91.66-3.42 13.249-15.368 22.504-29.048 22.504h-44.294c-18.894 0-34.268 15.372-34.268 34.265v64.268c0 18.895 15.374 34.267 34.268 34.267h44.294c13.682 0 25.628 9.255 29.048 22.501 8.302 32.171 21.104 63.010 38.048 91.663 6.97 11.788 5.074 26.8-4.61 36.484l-31.378 31.378c-13.564 13.546-13.21 35.267-0.012 48.449l45.45 45.45c13.174 13.192 34.901 13.578 48.45 0.012l31.388-31.39c9.684-9.686 24.7-11.582 36.486-4.61 28.655 16.946 59.494 29.748 91.663 38.050 13.249 3.418 22.504 15.366 22.504 29.048v44.3c0 18.894 15.375 34.266 34.267 34.266h64.266c18.895 0 34.27-15.372 34.27-34.266v-44.296c0-13.682 9.255-25.63 22.504-29.048 32.168-8.302 63.008-21.104 91.66-38.050 11.793-6.97 26.802-5.074 36.486 4.61l31.376 31.378c13.529 13.544 35.255 13.23 48.45 0.014l45.453-45.452c13.163-13.148 13.605-34.875 0.012-48.451l-31.39-31.39c-9.684-9.684-11.581-24.695-4.61-36.484 16.947-28.652 29.747-59.492 38.049-91.66 3.421-13.249 15.367-22.504 29.047-22.504h44.295c18.895-0.002 34.27-15.375 34.27-34.267v-64.268c0-18.893-15.375-34.265-34.27-34.265h-44.293c-13.683 0-25.629-9.257-29.047-22.504-8.302-32.168-21.104-63.010-38.049-91.66-6.971-11.788-5.074-26.802 4.61-36.486l31.378-31.376c13.563-13.548 13.21-35.269 0.012-48.452l-45.451-45.449c-13.173-13.193-34.901-13.578-48.45-0.012l-31.388 31.39c-7.136 7.134-21.982 13.188-36.489 4.608zM511.998 225.204c122.853 0 222.8 99.947 222.8 222.798 0 122.853-99.947 222.8-222.8 222.8s-222.8-99.947-222.8-222.8c0-122.851 99.947-222.798 222.8-222.798zM511.998 610.804c89.771 0 162.799-73.033 162.799-162.801 0-89.766-73.031-162.799-162.799-162.799s-162.799 73.033-162.799 162.799c0 89.768 73.028 162.801 162.799 162.801z" />
<glyph unicode="&#xe910;" glyph-name="volume" d="M931.999 176c16.568 0 30.001 13.432 30.001 30.001v723.999c0 16.568-13.432 30-30.001 30h-119.997c-16.568 0-30.001-13.432-30.001-30v-723.999c0-16.568 13.432-30.001 30.001-30.001h119.997zM841.999 900h60.001v-663.999h-60.001v663.999zM691.999 176c16.568 0 30.001 13.432 30.001 30.001v599.999c0 16.568-13.432 30-30.001 30h-119.997c-16.568 0-30.001-13.432-30.001-30v-599.999c0-16.568 13.432-30.001 30.001-30.001h119.997zM601.999 776h60.001v-539.999h-60.001v539.999zM451.999 176c16.568 0 30.001 13.432 30.001 30.001v480c0 16.568-13.432 29.999-30.001 29.999h-119.997c-16.568 0-30.001-13.431-30.001-29.999v-480c0-16.568 13.432-30.001 30.001-30.001h119.997zM361.999 656h60.001v-419.999h-60.001v419.999zM212 176c16.568 0 30 13.432 30 30.001v360c0 16.568-13.432 29.998-30 29.998h-120c-16.568 0-30-13.43-30-29.998v-360c0-16.568 13.432-30.001 30-30.001h120zM122 536h60v-299.999h-60v299.999zM993.999 56h-277.158c-12.385 34.916-45.732 59.999-84.841 59.999s-72.456-25.083-84.841-59.999h-517.159c-16.568 0-30-13.432-30-30.001s13.432-29.998 30-29.998h517.159c12.385-34.918 45.732-60.001 84.841-60.001s72.456 25.083 84.841 60.001h277.158c16.568 0 30.001 13.43 30.001 29.998s-13.432 30.001-30.001 30.001zM632-3.999c-16.53 0-29.975 13.437-29.998 29.96 0 0.015 0.003 0.028 0.003 0.038 0 0.013-0.003 0.026-0.003 0.038 0.023 16.525 13.468 29.962 29.998 29.962 16.543 0 30.001-13.458 30.001-30.001 0-16.54-13.458-29.998-30.001-29.998z" />
<glyph unicode="&#xe911;" glyph-name="cheveron-up" d="M548.198 611.84l-36.198 36.198-289.638-289.638 72.397-72.397 217.242 217.19 217.242-217.19 72.397 72.397z" />
<glyph unicode="&#xe912;" glyph-name="cheveron-right" d="M663.040 424.602l36.198 36.198-289.638 289.638-72.397-72.397 217.19-217.242-217.19-217.242 72.397-72.397 253.44 253.44z" />
<glyph unicode="&#xe913;" glyph-name="cheveron-left" d="M360.96 496.998l-36.198-36.198 289.638-289.638 72.397 72.397-217.19 217.242 217.19 217.242-72.397 72.397z" />
<glyph unicode="&#xe914;" glyph-name="cheveron-down" d="M475.802 309.76l36.198-36.198 289.638 289.638-72.397 72.397-217.242-217.19-217.242 217.19-72.397-72.397z" />
<glyph unicode="&#xe915;" glyph-name="check-circle" d="M1008 448c0 272-224 496-496 496-274 0-496-224-496-496 0-274.001 222-496 496-496 272 0 496 221.999 496 496zM453.999 184c-11.998-12.002-33.999-12.002-45.999 0l-208 208c-12 12.002-12 34.001 0 45.999l46 44.002c12 13.999 32 13.999 44 0l142-140.002 299.998 300.001c12.002 14 32 14 44.002 0l45.999-44c12.002-12 12.002-34 0-46l-368-368z" />
<glyph unicode="&#xe916;" glyph-name="pencil-ruler" d="M230.721 470.079l259.2 259.201-86.401 84.48-117.119-119.040c-3.84-1.92-7.68-3.84-11.52-3.84s-7.68 1.92-9.6 3.84l-23.040 23.040c-5.76 5.76-5.76 15.36 0 21.12l119.040 119.040-65.28 63.36c-23.040 24.96-61.44 24.96-84.48 0l-172.8-170.88c-24.96-24.96-24.96-63.36 0-86.4l192-193.921zM975.682 694.72c36.479 36.48 36.479 94.080 0 130.56l-86.401 86.4c-36.479 36.48-94.081 36.48-130.56 0l-88.318-88.32 216.957-216.96 88.322 88.32zM628.161 781.12l-570.24-570.24-36.48-207.36c-5.76-26.878 19.2-51.839 46.080-46.080l207.36 36.479 570.241 570.241-216.961 216.96zM985.279 231.999l-63.357 65.282-119.042-119.042c-5.759-5.759-15.36-5.759-21.119 0l-23.040 23.040c-5.759 5.763-5.759 15.36 0 21.123l119.038 117.117-84.476 86.401-259.203-259.199 193.921-192c23.040-24.961 61.44-24.961 86.401 0l170.877 172.798c24.961 23.040 24.961 61.44 0 84.48z" />
<glyph unicode="&#xe917;" glyph-name="user-cog" horiz-adv-x="1280" d="M1220.627 212.002c5.999 27.998 5.999 57.997 0 85.999l51.998 29.999c5.999 2.001 8 10.001 5.999 16-13.999 44.002-35.998 82.001-66.001 115.998-3.998 4.002-11.998 6.003-17.997 2.001l-52.002-29.999c-21.999 18.001-45.999 34.001-74.001 42.001v59.999c0 8-3.998 14-9.997 14-45.999 10-90.001 10-134.003 0-5.999 0-9.997-6-9.997-14v-59.999c-28.002-8-52.002-24-74.001-42.001l-51.998 29.999c-6.003 4.002-14.003 2.001-18.001-2.001-29.999-33.997-54.003-71.996-66.001-115.998-2.001-5.999 0-13.999 5.999-16l52.002-29.999c-5.999-28.002-5.999-58.001 0-85.999l-52.002-30.003c-5.999-1.997-8-10.001-5.999-16 11.998-43.998 36.002-81.997 66.001-115.998 3.998-4.002 11.998-6.003 18.001-2.001l51.998 29.999c21.999-18.001 45.999-34.001 74.001-41.997v-60.002c0-8 3.998-13.999 9.997-13.999 46.003-10.001 90.001-10.001 134.003 0 5.999 0 9.997 5.999 9.997 13.999v60.002c28.002 7.996 52.002 23.996 74.001 41.997l52.002-29.999c5.999-4.002 13.999-2.001 17.997 2.001 30.003 34.001 52.002 72 66.001 115.998 2.001 5.999 0 14.003-5.999 16l-51.998 30.003zM992.625 157.999c-53.999 0-98.001 44.002-98.001 98.001 0 52.002 44.002 96 98.001 96 52.002 0 96-43.998 96-96 0-53.999-43.998-98.001-96-98.001zM448.625 448c139.998 0 256 114 256 256 0 140-116.002 256-256 256-142 0-256-116-256-256 0-142 114-256 256-256zM850.626-5.999c-6.003 1.997-10.001 5.999-13.999 8l-16-10.001c-12.002-5.999-26.001-10.001-40.004-10.001-19.998 0-41.997 10.001-55.996 26.001-38.003 37.999-66.001 88-82.001 138.001-10.001 35.998 3.998 73.997 35.998 91.998l16 10.001c0 3.998 0 10.001 0 13.999l-16 10.001c-32 18.001-45.999 56-35.998 91.998 2.001 6.003 5.999 10.001 8 16-8 2.001-16 4.002-24 4.002h-34.001c-43.998-21.999-91.998-32-144-32-52 0-102 10.001-146 32h-34c-148 0-268-122.001-268-269.999v-82.001c0-53.999 42-96 96-96h704c20.002 0 37.999 5.999 53.999 16-1.997 8-3.998 16-3.998 24v18.001z" />
<glyph unicode="&#xe918;" glyph-name="wifi" d="M240.64 370.432c83.712 69.717 186.069 101.931 287.275 98.347 92.459-3.285 183.893-36.48 259.029-98.475 18.176-14.976 45.056-12.416 60.075 5.76s12.416 45.056-5.76 60.075c-89.899 74.155-199.424 113.963-310.272 117.888-121.429 4.309-244.523-34.389-344.917-118.059-18.091-15.061-20.565-41.984-5.461-60.075s41.984-20.565 60.075-5.461zM88.789 522.667c125.312 110.464 281.6 162.987 436.736 159.445 146.901-3.371 292.651-57.045 409.771-159.531 17.749-15.531 44.672-13.739 60.203 4.011s13.739 44.672-4.011 60.203c-132.608 116.053-297.685 176.853-464.043 180.651-175.744 4.011-353.067-55.595-495.061-180.779-17.707-15.573-19.371-42.539-3.797-60.203s42.539-19.371 60.203-3.797zM388.651 216.534c42.24 30.037 91.563 42.453 139.691 38.656 38.016-2.987 75.307-16.128 107.648-38.784 19.285-13.525 45.909-8.832 59.435 10.453s8.832 45.909-10.453 59.435c-44.928 31.488-96.811 49.792-149.888 53.973-67.413 5.333-136.704-12.16-195.84-54.144-19.2-13.653-23.723-40.277-10.069-59.477s40.277-23.723 59.477-10.069zM512 42.667c23.552 0 42.667 19.115 42.667 42.667s-19.115 42.667-42.667 42.667-42.667-19.115-42.667-42.667 19.115-42.667 42.667-42.667z" />
</font>
</defs>
</svg>
