<svg version="1.0" xmlns="http://www.w3.org/2000/svg" width="346.667" height="346.667" viewBox="0 0 260 260"><path d="M18.5 37c.5 4.4.4 4.5-2.8 2.9l-2.2-1 2.2 1.9c1.9 1.7 2 2.1.7 2.6-.8.3-1.2.2-.9-.4.4-.6-.1-.7-1.2-.3-1.5.6-1.3.9 1.1 1.8 2.6 1.1 2.7 1.2.8 1.7-1.6.5-2 1.2-1.7 3.4.1 1.7.8 2.8 1.5 2.6.7-.2 1 .3.7 1.2-.5 1.2.9 1.5 3 .7.1-.1-.9-1.2-2.2-2.6-1.4-1.3-2.5-3-2.5-3.7 0-1 .2-1 .9.1s1 1.1 1.5 0c.3-.8.3-.3 0 1-.5 1.7-.3 2.1.6 1.6.8-.5 1.1-.4.6.3-.3.6.3 1.3 1.4 1.7 1.8.6 1.8.8.5 2.1-.8.9-1.5 1.8-1.5 2.1 0 .4.3.4.6 0 1-.9 6.6 2.3 6.2 3.5-.6 1.7 3.9 6.1 5.3 5.3 1.6-1.1 2.9 1.6 1.8 3.7-.5 1-.6 1.8-.2 1.7 2-.3 2.4.2 1.3 1.6-1.1 1.3-1 1.4.3 1 .9-.4 2.1.2 3 1.5 1.2 1.8 1.5 1.9 2.1.5.3-.9.2-1.3-.4-1-.6.4-.7-.1-.3-1.1.5-1.5.7-1.5 1.6.2.7 1.2.6 2.3-.2 3.6-.6 1-.9 1.8-.5 1.8.9 0 3-2.4 3.6-4 .3-1.1.6-1.1 1.1.3.3.9.2 1.7-.3 1.7s-1.4 1-2 2.2c-.9 1.9-.9 2.1.2.8s5.9-1.9 7.8-1c.3.1.9.2 1.4.1.5-.1.4.5-.4 1.4-.9 1.1-1.6 1.2-2.5.5-.9-.8-1.4-.7-1.8.3-.4 1 .3 1.3 2.4 1.2 2.3-.1 2.9.2 2.4 1.4-.3.8-.3 1.2.1.8.4-.4 1.3.1 2.1 1.1 1.2 1.6 1.3 1.6.6-.2-.5-1.4-.3-1.7.7-1.1.8.5 1.1.4.6-.3-.3-.6.1-1.5 1-2 1.1-.6 1.3-1.1.5-1.6-1.3-.9-3.3.2-2.6 1.4.3.5.1 1.1-.4 1.4-.5.3-1.1-.1-1.5-.9-.3-.8-.1-1.5.5-1.5s.8-.4.5-.8c-.7-1.2 2.6-1.1 4.1 0 .7.5 1.8.6 2.4.2.8-.4.9-.3.5.4s-.3 1.2.3 1.2 1.5-.9 2.1-2c.6-1.1 1.6-2 2.3-1.9.9 0 .9.2 0 .6-.7.2-1.3.9-1.3 1.4 0 .6.4.8.9.4.5-.3 1.3 0 1.7.6.4.7.3.9-.4.5-.6-.3-1.3-.2-1.7.4-.4.6-1 .8-1.5.5-.5-.3-1.1-.1-1.4.4-.4.5-.2 1.2.3 1.5.5.4 1.3.1 1.7-.5.4-.8.9-.7 1.5.2.7 1.1.9 1.1.9.1 0-.7.5-1 1-.7.6.4.7 1.1.4 1.7-.4.7-.2.8.5.4.6-.4.8-1.3.4-1.9-1.2-2-1.4-4.7-.2-4.7.5 0 .7.4.4 1-.3.5-.2 1 .4 1 .5 0 1.2-.6 1.4-1.3.4-.9.6-.9.6.1.1.7.6 1 1.3.6.7-.4.8-.3.4.5-.4.6-1.1.9-1.6.6-.5-.3-1.1-.1-1.4.4-.4.5-.2 1.2.3 1.5.5.4 1.2.2 1.6-.4.9-1.5 2.8-1.2 1.9.2-.4.8-.3 1 .2.5s1-1.3 1-1.8c.1-.5.2-1.3.3-1.8 0-.6 1-.9 2-.8 1.1 0 1.7.5 1.5.9-.6 1 2.6.5 4.5-.6 1-.6 2-.2 3.3 1.4 1 1.2 1.9 1.9 1.9 1.6.1-.3.2-1.1.3-1.8 0-.6.9-1.2 1.9-1.4.9-.1 1.5.2 1.1.7-.3.5 0 .9.5.9.6 0 1.1-.6 1.1-1.3 0-.8.4-.7 1 .3s1 1.1 1 .2c0-.6.4-1.2.8-1.2.5 0 .9.6.9 1.4 0 .8-.8 1.3-1.9 1.1-1-.2-1.8 0-1.8.4 0 1.3 3 3.5 3.7 2.7.3-.3.1-.6-.5-.6-2.1 0-1.3-1.6.8-1.7 1.1-.1 1.8.2 1.6.6-.3.4.1.8.8.8.7 0 1.3-.6 1.3-1.3 0-.7-.4-1.1-.8-.8-.4.2-1.1-.1-1.5-.7-.4-.7-.3-.9.4-.5.6.3 1.3-.2 1.5-1.1.4-1.7.5-1.7.6-.1.1 2.1 1.7 2.4 2.4.5.4-.9.6-.9.6.1.1.7.5 1 1.1.7.6-.3.7.1.3 1-.4 1.2-.8 1.3-1.3.5s-1-.8-1.4-.2c-.3.5 0 1.2.8 1.5 1.6.6 5-2.6 3.9-3.6-.3-.4-.1-.7.5-.7.7 0 1.2.5 1.2 1.1 0 .6.9.9 2 .6 1.1-.3 1.8-.1 1.4.4-.3.5 0 .9.6.9s.8.5.5 1c-.4.6-.1.9.7.8.7-.2 1.2.3 1 1-.1.8.2 1.1.8.7.8-.5.8-1.1.1-1.9-.6-.7-.7-1.7-.3-2.1.4-.5.1-.5-.5-.1-.9.5-1.1.2-.7-.8.3-.9 1-1.6 1.6-1.6.5 0 .6.4.3 1-.3.5-.2 1 .4 1 .5 0 1.2-.6 1.4-1.3.4-.9.6-.9.6.1.1.7.6 1 1.3.6.7-.4.8-.3.4.5-.4.6-1.1.9-1.6.6-.5-.3-1.1-.1-1.4.4-.4.5-.2 1.2.3 1.5.5.4 1.2.2 1.6-.4.9-1.5 2.8-1.2 1.9.2-.4.8-.3 1 .2.5s1-1.3 1-1.8c.1-.5.2-1.3.3-1.8 0-.6 1-.9 2-.8 1.1 0 1.7.5 1.5.9-.3.4.2.8 1 .8.9 0 1.6-.6 1.6-1.3 0-.8.4-.7 1 .3.5.8 1 1 1 .4 0-.5 1.1-1 2.4-1 1.4 0 2.3.3 2 .7-.2.4.2.9.8 1.2.7.2.9.8.5 1.3-.5.5-1.3.1-1.8-.9-.8-1.3-1.4-1.5-2.8-.7-1 .5-2.1.6-2.5.3-.3-.3-.6-.1-.6.5 0 1.6 1.8 2.4 2.3 1 .3-1 1.2-.8 3.6.5 1.7 1 3.1 1.5 3 1-.4-2.1.2-3.4 1.3-2.7.7.4.8.3.4-.5-.4-.6-1.1-.9-1.5-.7-.4.3-.8-.1-.8-.8 0-.8.6-1.2 1.3-.9 1.7.6 2.8 3.7 1.5 4.1-.6.2-1.1.9-1.1 1.5 0 .5.3.7.7.4.3-.4 1.3-.1 2.2.6 1.4 1.1 1.4 1 .2-.6-.7-.9-1.2-1.7-1-1.8 3.4-.6 5.8-.6 5.5 0-.3.4.1.8.8.8 1.5 0 1.5-2.1.1-3.4-.4-.4-.5-.2-.1.4.9 1.7.1 1.7-1.2 0-.9-1-.6-1.3 1.3-1.3 1.3 0 2.1.4 1.9.8-.3.4 0 .8.5.8.6 0 1.1-.6 1.1-1.3 0-.8.4-.7 1 .3.8 1.2 1 1.2 1.1-.5 0-1.1.3-1.5.5-.8.3.7.1 2-.5 3-.6 1.1-1.1 1.3-1.1.5 0-.7-.5-1-1.1-.6-.8.4-.7.9.2 1.5 1.7 1 5.1-1.9 4.2-3.5-.3-.6 0-.5.8.1.7.7 2.1 1.3 3.1 1.3s1.8-.6 1.8-1.3c0-.8.4-.7 1 .3.5.8 1 1 1 .4 0-.5 1.1-1 2.4-1 1.4 0 2.3.3 2 .7-.2.4.2.9.8 1.2.7.2.9.8.5 1.3-.5.5-1.3.1-1.8-.9-.8-1.3-1.4-1.5-2.8-.7-1 .5-2.1.6-2.5.3-.3-.3-.6-.1-.6.5 0 1.6 1.8 2.4 2.3 1 .3-1 1.2-.8 3.6.5 1.7 1 3.1 1.5 3 1-.4-2.1.2-3.4 1.3-2.7.7.4.8.3.4-.5-.4-.6-1.1-.9-1.5-.7-.4.3-.8-.1-.8-.8 0-.8.6-1.2 1.3-.9 1.7.6 2.8 3.7 1.5 4.1-.6.2-1.1.9-1.1 1.4 0 .6.3.8.7.5.3-.4 1.3-.1 2.2.6 1.4 1.1 1.4 1 .2-.6-.7-.9-1.2-1.7-1-1.8 3.4-.6 5.8-.6 5.5 0-.3.4.1.8.8.8 1.5 0 1.5-2.1.1-3.4-.4-.5-.4-.1 0 .7.8 1.3.7 1.3-.8.1-2.2-1.7-2.2-1.7.7-1.7 1.4 0 2.2.4 2 .8-.3.4 0 .8.5.8.6 0 1.1-.6 1.1-1.3 0-.8.4-.7 1 .3.8 1.2 1 1.2 1.1-.5 0-1.1.3-1.5.5-.8.3.7.1 2-.5 3-.6 1.1-1.1 1.3-1.1.5 0-.7-.5-1-1.1-.6-.8.4-.7.9.2 1.5 1.7 1 5.1-1.9 4.2-3.5-.4-.6.1-.5 1 .3.9.7 2.3 1.1 3.2.8 1.6-.7 2.9.8 2 2.3-.4.6-1.6.3-3.3-.8-1.4-.9-2.3-1.1-1.9-.5.5.7.4 1.3-.1 1.3s-.9.7-.9 1.6c0 1.5.2 1.5 1.3-.1 1.4-1.8 3.9-1.1 2.7.8-.5.8-.2.8.9 0 .8-.7 1.9-.9 2.3-.5.5.4.5.1.1-.6-.4-.6-.3-1.2.2-1.2.6 0 .8-.9.5-2-.5-2 .7-2.7 2.1-1.3.4.5 1.3.8 1.9.8.7.1 1.1.6 1 1.3-.2.7.4.9 1.4.5 1.1-.4 1.4-.3.9.5-1 1.7-.1 1.5 1.3-.2.9-1.1.9-1.6 0-2.2-.8-.4-.9-.3-.5.4 1 1.6.1 1.5-1.2-.1-.9-1-.6-1.3 1.2-1.3 1.8 0 2.3.5 2.1 2.1-.1 1.8.2 2.1 2.2 1.7 1.2-.2 2.3-.8 2.3-1.3s-.7-.6-1.5-.3c-.9.4-1.5 0-1.5-1 0-2 .9-2 3.1 0 1 .9 1.5 2.3 1.2 3.2-.4 1.3-.3 1.4.5.3.5-.7 1.2-.9 1.4-.5.3.5.3.2 0-.6-.6-2.1-1-4.8-.5-3.2.4 1.1.8 1.1 2.1 0 1-.8 1.3-.8.9-.1-.4.6-.4 1.3 0 1.6.5.2.2.2-.5 0-.7-.1-1 .2-.7.8.4.5 1.6.7 2.7.3 1.4-.4 1.8-.2 1.4.5-1 1.6-.1 1.4 1.3-.3.9-1.1.9-1.6 0-2.2-.8-.5-.9-.3-.4.6.6.9.4 1.1-.4.5-1-.5-1-1-.1-1.9 1.3-1.3 3.3 1.1 2.5 3.2-.3.9 0 1 1.5.2 2.4-1.3 3.3-1.3 2.5 0-.4.6-.1.9.7.8.7-.2 1.2.3 1 1-.1.8.2 1.1.8.7.8-.5.8-1.1.1-1.9-.6-.7-.7-1.7-.3-2.1.4-.5.1-.5-.5-.1-.9.5-1.1.2-.7-.8.3-.9 1-1.6 1.6-1.6.5 0 .6.4.3 1-.3.5-.2 1 .4 1 .5 0 1.2-.6 1.4-1.3.4-.9.6-.9.6.1.1.7.6 1 1.3.6.7-.4.8-.3.4.5-.4.6-1.1.9-1.6.6-.5-.3-1.1-.1-1.4.4-.4.5-.2 1.2.3 1.5.5.4 1.2.2 1.6-.4.9-1.5 2.8-1.2 1.9.2-.4.8-.3 1 .2.5s1-1.3 1-1.8c.1-.5.2-1.3.3-1.8 0-.6 1-.9 2-.8 1.1 0 1.7.5 1.5.9-.3.4 0 .8.7.8.8 0 .8.4.1 1.3-.8 1-.6 1.3 1.1 1.4 1.2.1 1.7-.1 1.2-.5-.9-.6-1.1-1.5-.6-3.8 0-.4.8-.1 1.7.7 1.3 1 1.7 1 2.4 0 .6-1 1-.8 1.5.8.3 1.2 1.1 1.9 1.6 1.5.5-.3.7-.9.4-1.4-.7-1.2 1.2-2.3 2.6-1.5.7.5.5 1.2-.5 2.3-1.3 1.5-1.2 1.7.9 1.7 1.3 0 2.1-.3 1.9-.7-.3-.5 0-1.6.5-2.5.6-1.1 1.1-1.3 1.1-.5 0 .7.4 1.1.9.7.5-.3 1.2-.1 1.6.4.3.6-.4.8-1.6.6-1.6-.3-1.8-.1-1 .9.6.7.8 1.6.4 1.9-.3.4-.3.7.2.7.4 0 1.6-1 2.6-2.2 2-2.3 2.4-3.3 1-2.4-.5.3-1.1-.1-1.5-.9-.3-.8 0-1.7.6-2.1.7-.4.8-.3.4.4s-.2 1.2.4 1.2c.7 0 1-7 1-23l-.1-23H18.1l.4 4zm7 19c.3.6-.1.7-.9.4-1.8-.7-2.1-1.4-.7-1.4.6 0 1.3.4 1.6 1zm3.9 6.6c.9 2.4.2 2.6-1.2.4-.7-1.1-.8-2-.3-2s1.2.7 1.5 1.6zm7.9 9.5c.7 2.5.3 2.4-1.7-.6-1.3-1.9-1.3-2.3-.2-1.9.8.3 1.6 1.4 1.9 2.5zm207.2 4.8c.3.5.2 1.2-.3 1.5-.5.3-.9-.1-.9-.9 0-1.7.3-1.9 1.2-.6zM62 78.5c0 .2-.9.3-1.9.2-1.1 0-1.8-.5-1.5-.9.4-.6 3.4 0 3.4.7zm82.4 2.7c.8.5.7.8-.1.8-.7 0-1.7-.9-2.3-1.9-1.4-2.7-1.2-4.1.2-1.6.6 1.1 1.6 2.3 2.2 2.7zm14.1-3.2c.3.5.1 1-.4 1-.6 0-1.1-.5-1.1-1 0-.6.2-1 .4-1 .3 0 .8.4 1.1 1zm17.9 3.2c.8.5.7.8-.1.8-.7 0-1.7-.9-2.3-1.9-1.4-2.7-1.2-4.1.2-1.6.6 1.1 1.6 2.3 2.2 2.7zm14.1-3.2c.3.5.1 1-.4 1-.6 0-1.1-.5-1.1-1 0-.6.2-1 .4-1 .3 0 .8.4 1.1 1zm34.5 2.4c0 .3-.4.8-1 1.1-.5.3-1 .1-1-.4 0-.6.5-1.1 1-1.1.6 0 1 .2 1 .4z"/><path d="M15.6 34.9c-.4.5-.2 1.2.4 1.6.6.4.8 1 .5 1.5-.3.5-.1 1.1.3 1.4 1 .6 1-4 0-4.9-.3-.4-.9-.2-1.2.4zm-5.3 11.4c-.3.6-.1.7.5.3.6-.3 1.2.2 1.4 1.1.3 1.6.5 1.5 1-.3.5-2.2-1.7-3-2.9-1.1zm-2.8.6c-.3.5-.2 1.2.3 1.5.5.3.9-.1.9-.9 0-1.7-.3-1.9-1.2-.6zm12.3 11.8c.7.3 1.6.2 1.9-.1.4-.3-.2-.6-1.3-.5-1.1 0-1.4.3-.6.6zm3.2 1.4c0 .5.5.7 1 .4.6-.3 1-.8 1-1.1 0-.2-.4-.4-1-.4-.5 0-1 .5-1 1.1zm4.9 8.7c-1.3 1.5-1.2 1.6.3.4 1.3-1 1.7-1 2.1 0 .4.9.6.9.6.1.2-2-1.6-2.4-3-.5zm16.4 11.7c-.7.8-.9 1.6-.4 1.9.5.3 1.2-.1 1.5-1 .8-2.2.4-2.5-1.1-.9zm31.6-.3c-.5 1.9-.4 4.8.2 4.8 1.1 0 1.8-3.9.8-4.6-.5-.3-.9-.4-1-.2zm6.7.7c-.4.5.2 1.5 1.3 2 1.6.9 1.9.8 1.7-.6-.3-2-2.1-2.8-3-1.4zm6.8 1c0 1.1.5 1.7 1.3 1.4 1-.4 1.1-.9.2-1.9-1.5-1.8-1.5-1.8-1.5.5zm34.5-1.7c-.5 1.9-.4 4.8.2 4.8 1.1 0 1.8-3.9.8-4.6-.5-.3-.9-.4-1-.2zM197 82c1.7 3.4 1.7 3.4 2.3.9.3-1.1.3-1.8 0-1.5-.4.3-1.3 0-2.1-.7-1.3-1.1-1.4-.9-.2 1.3zm38.9-1.8c-.5 1.9-.4 4.8.2 4.8 1.1 0 1.8-3.9.8-4.6-.5-.3-.9-.4-1-.2zm5.5.5c1.2 2.2 4.3 3.4 4.3 1.8 0-.8-.4-1.2-.9-.9-.5.3-1.6 0-2.5-.8-1.2-.9-1.5-.9-.9-.1zM79.1 82.4c-.9 1.1-.8 1.4.6 1.2 1 0 1.7.5 1.5 1.2-.1.8.2 1.1.8.7.8-.5.7-1.2-.2-2.3-.7-1-1.3-1.8-1.4-2-.1-.1-.6.4-1.3 1.2zm29.3-.5c.4.6.3 1.1-.2 1.1s-.9.7-.9 1.6c0 1.5.2 1.5 1.3-.1.7-.9 1.7-1.4 2.3-1 .6.3 1.1.4 1.1.1 0-.3-1-1-2.1-1.7-1.5-.8-1.9-.8-1.5 0zm48 0c.4.6.3 1.1-.2 1.1s-.9.7-.9 1.6c0 1.5.2 1.5 1.3-.1 1.3-1.8 3.9-1.1 2.8.7-.4.7-.2.8.5.4 1.4-.9.7-2.2-2.1-3.7-1.5-.8-1.9-.8-1.4 0zm-98.1.9c-.9.5-.6 1.2 1 2.1 1.9 1.3 2.1 1.2 1-.1-.7-.8-1-1.8-.6-2.1.9-.9.1-.8-1.4.1zm29 2.7c0 .8.4 1.2.9.9.5-.3.6-1 .3-1.5-.9-1.3-1.2-1.1-1.2.6zm156 0c0 .8.4 1.2.9.9.5-.3.6-1 .3-1.5-.9-1.3-1.2-1.1-1.2.6zm4 0c0 .8.4 1.2.9.9.5-.3.6-1 .3-1.5-.9-1.3-1.2-1.1-1.2.6zm-156.7.7c.3.5 1 .6 1.5.3 1.3-.9 1.1-1.2-.6-1.2-.8 0-1.2.4-.9.9zm21 0c.3.5 1 .6 1.5.3 1.3-.9 1.1-1.2-.6-1.2-.8 0-1.2.4-.9.9zm112 0c.3.5 1 .6 1.5.3 1.3-.9 1.1-1.2-.6-1.2-.8 0-1.2.4-.9.9zM84.5 112.6c-.9 1.5-2.2 2.3-3 2-.8-.3-1.7-.1-2 .5-.4.5-.3.9.2.8 2-.3 3 .2 3 1.6 0 .8-.5 1.5-1.1 1.5-.6 0-.4.5.4 1 2 1.3 3 1.2 3-.1 0-.5-.4-.8-.9-.5-.8.5-.8-1.5-.1-3.4.1-.3.2-1 0-1.5-.1-.6.4-.4 1.2.3 1.1 1.1 1 1.4-.2 2.2-1.4.9-.7 1.5 1.4 1.1.5-.1.2.9-.6 2.1-1.5 2.2-1.4 2.4.3 2.5 1.2.1 1.7-.3 1.3-1-.4-.7-.3-.8.1-.4 1.1 1 1.6 3.9.5 3.2-.4-.3-1.1.2-1.4 1.1-.3.9-.2 1.2.5.9.6-.4 2 .1 3.1 1.2 1.2 1 1.8 1.3 1.5.6-.4-.6-.3-1.4.3-1.8.9-.5 1.5 1.5 1.1 3.8-.1.5.7.6 1.8.2 1.3-.4 2.7.2 4.4 1.9 1.6 1.6 2.8 2.1 3.5 1.4.6-.6 1.2-.6 1.7.1.3.6.3 1-.2.9-.4-.2-.8.1-.8.7 0 .5.5.8 1 .7.6-.2.6 0 .2.4-1 1-3.8 1.4-3.2.5.2-.5-.8-2-2.3-3.4-2.1-2-3.1-2.4-4.2-1.6-1.3.9-1.2 1 .3.5 1.1-.3 1.7 0 1.7.9 0 .8.6 1.4 1.3 1.2.7-.1 1.2.7 1.1 1.9-.1 1.7.4 2.1 3.1 1.9 4.3-.2 8.3 2.9 6.5 5-.9 1.1-.9 1.5-.1 1.5.7 0 .9.5.5 1.2-.4.8-.3 1 .2.5s1-1.3 1-1.8c.1-.5.2-1.4.3-1.9 0-.6.6-1 1.2-1 .5 0 .8.4.4.9-.5.8 1 2.4 2.5 2.7 2.1.4 4 1.8 4 3 0 1.5 0 1.5 5.2 1.8 2 .1 3.5-.1 3.2-.6-.3-.4.2-1.1 1-1.4.9-.3 1.4-1 1.1-1.4-.3-.5 0-1.2.6-1.6.7-.4.9-.3.5.4-.3.6-.2 1.3.4 1.7.5.3 1 0 1.1-.7 0-.7.4-.4.9.8.6 1.6 1.6 2 5.1 1.9 3.3-.1 4.8.4 6.2 1.9 1.8 2.1 1.8 2 .1-.7-1.5-2.5-1.5-2.7 0-2.7 1 0 1.5.4 1.1.9-.3.5-.1 1.2.4 1.5.5.4 1.2.3 1.5-.2.2-.4 3-.8 6-.7 5.3 0 6-.4 5.7-3.3-.1-.6.4-1.2 1-1.2.7 0 .9.3.6.7-.4.3-.1 1.3.6 2.1 1 1.3.9 1.4-.2.7-.9-.5-1.2-.4-.7.3.4.6 1.3.9 2.2.5.8-.3 2.1.3 3 1.3 1.2 1.7 1.3 1.7.8.1-.5-1.3-.2-1.6 1-1.1.9.3 1.6.1 1.6-.4 0-.6-.9-.9-2-.7-1.1.2-2.2 0-2.4-.4-.3-.4.9-.7 2.7-.6 2 0 3.1.5 3 1.3-.2.7 0 1.1.5 1.1.4-.1.9-.1 1.2.1 2.2.8 5 .8 5.5 0 .9-1.5 4.7.8 3.9 2.3-.4.7-.3.8.2.4.5-.5.9-1.4.9-2 0-.7 1.8-1.2 4.3-1.3 2.3 0 4.2.3 4.2.8 0 .4.5.8 1.1.8.8 0 .8-.4 0-1.4-.9-1-.7-1.7.6-2.7 1-.9 1.4-.9 1-.2-.4.7-.2 2.1.5 3.2 1.1 1.8 1.3 1.8 2.5.3 1.5-2 1.7-4.6.3-3.7-.6.4-.8 1-.6 1.4.3.4-.1.8-.9.8-1.3 0-1.2-.3.1-1.8 1.8-2 3.4-1.7 3.4.7 0 2 1.8 1.8 2.3-.4.4-1.6.5-1.6.6 0 .1 1.2.9 1.8 2.7 1.8 2.4 0 2.5.2 1.3 1.7-1.3 1.6-1.3 1.6 1.1 0 2.6-1.8 4.5-2.3 3.6-.9-.3.5.1.9.9.9s1.1-.5.8-1c-.4-.6 0-.8 1-.4 1.2.4 1.7.1 1.7-1.1 0-1.4.2-1.5 1-.2.6.9.5 2-.3 3-1 1.3-1 1.3.4.3.9-.7 2-.9 2.5-.5.4.4.2-.1-.5-1-.7-1-1.1-2.3-.8-3 .4-.8.6-.7.6.4.1 1.3.9 1.8 2.7 1.8 2.4 0 2.5.2 1.3 1.7-1.3 1.6-1.2 1.7.4.4.9-.7 1.7-1 1.7-.5 0 .4.5.3 1.2-.4 1.4-1.4 5.2.4 4.2 2.1-.4.7-.3.8.2.4.5-.5.9-1.4.9-2 0-1.8 7.8-1.6 9.3.2 1.1 1.4 1.1 1.3.2-.7-.9-1.8-.8-2.2.5-2.2.9 0 1.4.4 1 .9-.3.5-.1 1.2.4 1.5.5.4 1.2.3 1.5-.2.7-1.2 6.1-.8 7.8.5 2.6 2 3.5 2.2 3.5.9 0-.8-.6-1.2-1.2-1-.6.3-1.2-.2-1.2-1s.4-1.3.8-1c.4.2 1 0 1.4-.6.8-1.3 2.5-1.3 2.5.1 0 .5-.4.7-1 .4-.6-.3-.7.1-.3 1 .4 1.2.8 1.3 1.3.5.4-.7 1-.8 1.2-.4.3.5.3.3.2-.4-.2-.6.1-1.2.6-1.2.6 0 1-.5 1-1.1 0-.5-.6-.7-1.2-.3-1 .6-1 .4 0-.8 1-1.2 1.3-5.7 1.1-17.8-.2-15.1-.8-18.7-2.5-15.9-.5.8-.3.9.6.4.8-.5 1.1-.4.6.3-.4.6-1.3.9-2.2.5-1.2-.4-1.2-.8-.2-2.2.8-1 .4-.8-1 .4-1.7 1.4-3.9 2-8.2 2-3.4 0-5.6-.3-5.3-.9.4-.5-.1-.7-1-.3-1 .3-1.7.2-1.7-.3 0-.6-.5-1-1.1-1-.6 0-.8.9-.4 2.1.6 1.9.5 2-.8.8-.8-.8-1.3-1.7-1.1-2.1.2-.4-.1-1-.7-1.4-.8-.5-.9-.3-.4.6.6 1 .4 1.2-1.1.6s-1.7-.5-.6.5c.6.7 1.2 1.7 1.2 2.3 0 .5-.9-.1-1.9-1.3-2-2.3-6.7-3.9-5.5-1.9.5.8.1.9-1.1.4-1.5-.5-1.6-.4-.5.9.7.9 1 1.8.6 2.2-.3.3-.6.1-.6-.6s-.8-1.1-1.7-1c-3.1.3-4.4-.1-3.9-1 .3-.5-.1-1.2-1-1.5-.8-.3-1.3-.2-.9.3.8 1.4-.4 3.8-1.9 3.8-.8 0-1.2-.6-.9-1.4.3-.7 1-1 1.6-.6.6.3.7.1.3-.5-.7-1.2-3.6-.5-3.6.8 0 1.1-4.9.4-6.5-1-1-.8-1.5-.8-2.1.1-.5.8-.3.9.5.4 1-.6 1.1-.3.2 1.4-1.3 2.3-2.3 2.9-1.5.8.3-1-.6-1.3-3.3-1.3-3 0-3.8-.3-3.7-1.7.1-.9-.2-1.4-.7-1.1-.5.3-.9 1.1-.9 1.9 0 .8-.5 1.7-1.2 2.1-.7.4-.8.3-.4-.4s.1-1.2-.8-1.2-1.6-.5-1.6-1c0-.6-.5-1-1.1-1-.6 0-.8.9-.4 2.1.6 1.9.5 2-.8.8-.8-.8-1.3-1.7-1.1-2.1.2-.4-.1-1-.7-1.4-.8-.5-.9-.3-.4.6.6 1 .4 1.2-1.1.6s-1.7-.5-.6.5c.6.7 1.2 1.7 1.2 2.3 0 .5-.9-.1-1.9-1.3-2-2.3-6.7-3.9-5.5-1.9.5.8.1.9-1.1.4-1.5-.5-1.6-.4-.5.9.7.9 1 1.8.6 2.2-.3.3-.6.1-.6-.6s-.8-1.1-1.7-1c-3.3.3-4.4-.1-3.8-1.4.4-.6-.2-.3-1.2.8-2.3 2.4-4.4 3-3.7 1 .4-.8.9-1.3 1.3-1 .4.2.8-.2.8-1 0-1.2-.3-1.2-1.4-.3-1.1.9-1.7.8-2.4-.3-.8-1-.9-.9-.4.7.5 1.8.2 2.1-2.1 1.8-1.4-.1-2.9-.6-3.2-1-.4-.4.1-.4 1-.1 1 .3 2 .2 2.2-.2 1.3-2.1-3.7-.3-5.5 1.9-1 1.4-1.7 1.8-1.4.9.5-1.3-.3-1.5-4.9-1.4-3.4.1-5.2-.3-4.9-.9.4-.5-.1-.7-1-.3-1 .3-1.7.2-1.7-.3 0-.6-.5-1-1.1-1-.6 0-.8.9-.4 2.1.6 1.9.5 2-.8.8-.8-.8-1.3-1.7-1.1-2.1.2-.4-.1-1-.7-1.4-.8-.5-.9-.3-.4.6.6 1 .4 1.2-1.1.6s-1.7-.5-.6.5c.6.7 1.2 1.7 1.2 2.3 0 .5-.9-.1-1.9-1.3-2-2.3-6.7-3.9-5.5-1.9.5.8.1.9-1.1.4-1.5-.5-1.6-.4-.5.9.7.9 1 1.8.6 2.2-.3.3-.6.1-.6-.7 0-1-.3-1-1.5 0-1.3 1.1-1.4 1-1-.2.6-1.5-2.2-3.4-3.3-2.3-.3.3 0 .5.6.5.7 0 1.2.4 1.2.8 0 .5-1 .8-2.2.6-1.3-.1-2.7-.3-3.2-.3-.5-.1-.3-.9.4-1.9.7-.9-.2-.1-1.9 1.8-1.8 1.9-2.9 2.8-2.6 1.9.5-1.3-.4-1.5-5-1.4-3.1 0-5.9-.3-6.2-.9-.3-.5-.1-.6.5-.2.8.5 1 .1.5-1-.4-1-.8-1.3-1-.7-.2.6-1.5.9-2.9.7-1.3-.2-2.4 0-2.4.5 0 .6.9.8 2 .6 2.1-.4 2.7.9 1 2-.5.3-1 .1-1-.5s-.4-.9-.8-.6c-.4.2-1.4.1-2.2-.4-.9-.5-2-.4-2.9.3-.8.7-1.2.7-.9.2.4-.6.3-1.7-.3-2.5-.7-1.2-.9-1-.9.7 0 1.3-.4 2.3-.9 2.3-.6 0-.8-1-.6-2.3.4-2 .3-2.1-.9-.5-1.5 2-3.1 2.5-2 .6.4-.7.3-.8-.4-.4-.6.4-.9 1.4-.6 2.4.5 1.5.5 1.5-.6-.1-.6-.9-.8-2.2-.5-2.7 1.4-2.2-.4-.8-2 1.6zm49.5 1.7c0 .4-.6.2-1.4-.5-.8-.7-1.2-1.7-.9-2.2.5-.8 2.3 1.2 2.3 2.7zm48 0c0 .4-.6.2-1.4-.5-.8-.7-1.2-1.7-.9-2.2.5-.8 2.3 1.2 2.3 2.7zm48 0c0 .4-.6.2-1.4-.5-.8-.7-1.2-1.7-.9-2.2.5-.8 2.3 1.2 2.3 2.7zm-139.6 1.3c.3.8.2 1.2-.4.9-.6-.3-1-1-1-1.6 0-1.4.7-1.1 1.4.7zm1.3 9.5c-.6 1-1.6 1.5-2.1 1.2-.6-.4-.5-.8.2-1.1.7-.2 1-.7.8-1.1-.3-.4.1-.8.8-.8 1.1 0 1.2.4.3 1.8zm47.6 21.9c.3-.6.5-.6.3.2-.1.7-1.4 1.3-2.9 1.3-2 .2-2.4-.1-1.7-1 .5-.6.6-1.6.2-2.1-.4-.5.3-.1 1.4.9 1.4 1.2 2.4 1.4 2.7.7zm39.5-.9c-.2.6.3 1.4 1.1 1.7 1 .3 1.1 0 .5-.9-.7-1.2-.5-1.2.9 0 1.6 1.3 2.2.8 1.7-1.4-.1-.5.7-.1 1.8.8 1.3 1.2 2.2 1.4 2.5.7.3-.6.4-.5.3.2-.2.7-1.2 1.3-2.3 1.3-1.2 0-2.5.3-2.8.7-.4.4-1.6.3-2.6-.2-1.1-.6-2-.6-2.4-.1-1.1 1.8-4.5.8-4.5-1.4.1-1.8.1-1.9 1.1-.3.5 1 1.5 1.8 2.1 1.8.6 0 .5-.7-.3-1.7s-.9-1.4-.2-1c.6.4 1.4.3 1.8-.3.8-1.3 1.6-1.3 1.3.1zm48 0c-.2.6.3 1.4 1.1 1.7 1 .3 1.1 0 .5-.9-.7-1.2-.5-1.2.9 0 1.6 1.3 2.2.8 1.7-1.4-.1-.5.7-.1 1.8.8 1.3 1.2 2.2 1.4 2.5.7.3-.6.4-.5.3.2-.2.7-1.1 1.3-2.2 1.3-1 0-2.4.3-2.9.7-.6.4-1.7.3-2.5-.2-.9-.5-1.9-.5-2.6.1-.9.7-1.6.4-2.4-1-.8-1.7-.8-1.9.4-1.5.8.3 1.7.1 2.1-.5.8-1.4 1.6-1.4 1.3 0zm-101.5 1.4c.4 0 .7.4.7 1 0 1.2-4.9 1.5-5.6.3-.3-.5 0-.7.8-.6.7.2 1.2-.3 1-1-.2-.9.2-1.1 1-.5.7.4 1.6.8 2.1.8zm17 0c-.3.9-.8 1.4-1 1.1-.3-.3-.2-.9.2-1.5.9-1.6 1.5-1.3.8.4zm48 0c-.3.9-.8 1.4-1 1.1-.3-.3-.2-.9.2-1.5.9-1.6 1.5-1.3.8.4zm21.1-.1c3.7-.4 2.7.6-1.2 1.1-2.1.3-3.2-.1-3.6-1.2-.5-1.2-.3-1.3.6-.6.7.5 2.6.8 4.2.7zm26.9.1c-.3.9-.8 1.4-1 1.1-.3-.3-.2-.9.2-1.5.9-1.6 1.5-1.3.8.4zm-88.7.7c.4.7.4 1-.1.6-.4-.4-1.4-.3-2.2.4-1.1.8-1.2.7-.7-.6.7-1.9 2-2.1 3-.4zm3.4-.2c0 .5-.5 1-1.1 1-.5 0-.7-.5-.4-1 .3-.6.8-1 1.1-1 .2 0 .4.4.4 1zm98.5.8c.3.8 0 1-.8.5-1.7-1.1-6-1.1-7.5 0-.9.7-1.1.6-.7-.5.7-1.9 8.2-1.9 9 0z"/><path d="M107.5 110.9c-.3.5-.2 1.2.3 1.5.5.3.9-.1.9-.9 0-1.7-.3-1.9-1.2-.6zm8.6.7c0 1.1.3 1.4.6.6.3-.7.2-1.6-.1-1.9-.3-.4-.6.2-.5 1.3zm36 0c0 1.1.3 1.4.6.6.3-.7.2-1.6-.1-1.9-.3-.4-.6.2-.5 1.3zm3-.3c-.8 1-.7 1.4.2 1.4.8 0 1.4-.6 1.4-1.4 0-.7-.1-1.3-.2-1.3-.2 0-.8.6-1.4 1.3zm18.4-.2c-.4.6-.5 1.2-.2 1.5.2.3.7-.2 1-1.1.7-1.7.1-2-.8-.4zm28-.1c-.4.6-1.2.7-1.8.4-.7-.4-.8-.3-.4.1 1.3 1.5 3.4 1.4 3.4-.1 0-1.7-.4-1.8-1.2-.4zm5.5-.6c0 .2.7.9 1.5 1.6 1.3 1.1 1.4 1 .9-.4-.5-1.4-2.4-2.3-2.4-1.2zm41.1 1.2c0 1.1.3 1.4.6.6.3-.7.2-1.6-.1-1.9-.3-.4-.6.2-.5 1.3zm-137.5.2c-.3.5.1.9.9.9s1.5-.4 1.5-.9c0-.4-.4-.8-.9-.8-.6 0-1.2.4-1.5.8zm36.4.2c0 .4.7.7 1.5.6 2.3-.3 2.6-1.2.5-1.3-1.1-.1-2 .2-2 .7zm74 .1c0 .5.5.7 1 .4.6-.3 1-.8 1-1.1 0-.2-.4-.4-1-.4-.5 0-1 .5-1 1.1zm22-.1c0 .4.7.7 1.5.6 2.3-.3 2.6-1.2.5-1.3-1.1-.1-2 .2-2 .7zm7.6-.2c-.3.5.1.9.9.9s1.2-.4.9-.9c-.3-.4-.7-.8-.9-.8-.2 0-.6.4-.9.8zm-172 6.4c.3.5 1 .6 1.5.3 1.3-.9 1.1-1.2-.6-1.2-.8 0-1.2.4-.9.9zM81 122c0 .5.5 1 1.1 1 .5 0 .7-.5.4-1-.3-.6-.8-1-1.1-1-.2 0-.4.4-.4 1zm23.5 17.9c-.6 1.1.1 1.5 1.8 1.2.5-.1.6.9.2 2.1-.3 1.3-.3 1.8.2 1.3.5-.6 1.2-1.3 1.6-1.6.4-.3-.1-1.4-1.2-2.3-1.2-1.1-2.1-1.4-2.6-.7zm6.9 4.9c.4.7.2 2.1-.5 3-1.1 1.4-1.1 1.5.1.4 1.7-1.4 3.4-1.6 2.5-.2-1.1 1.7.5 3.2 2.1 1.9 1.1-.9 1.4-.9 1.4.1 0 .8.3 1.1.6.8.3-.4 0-1.6-.6-2.8-.6-1.2-1.4-1.9-1.7-1.6-.4.3-1.5-.2-2.6-1.1-1.1-1-1.7-1.2-1.3-.5zm4.6 3.6c0 .3-.4.8-1 1.1-.5.3-1 .1-1-.4 0-.6.5-1.1 1-1.1.6 0 1 .2 1 .4zm13.6.3c-.3.4-.6 1.1-.6 1.7 0 .6.5.4 1-.4.6-1 1-1.1 1-.3 0 .7.5 1.3 1 1.3.6 0 1-.4 1-.9 0-1.1-2.6-2.2-3.4-1.4zm71 1.1c-.3.5.1.9.9.9s1.2-.4.9-.9c-.3-.4-.7-.8-.9-.8-.2 0-.6.4-.9.8zm-52.1 2.2c-.3.6.1.7.9.4 1.8-.7 2.1-1.4.7-1.4-.6 0-1.3.4-1.6 1zm10.5.1c0 .5.5.7 1 .4.6-.3 1-.8 1-1.1 0-.2-.4-.4-1-.4-.5 0-1 .5-1 1.1zm86 0c0 .5.5.7 1 .4.6-.3 1-.8 1-1.1 0-.2-.4-.4-1-.4-.5 0-1 .5-1 1.1zM175.5 181c.2 2.4 0 2.8-1 2-.9-.8-1.5-.7-1.8.2-.4.9-.6.9-.6.1-.1-.7-1.1-1-2.6-.7-1.4.2-2.5 0-2.5-.5 0-.6 1-.8 2.2-.6 2.1.4 2.1.4.4-1.3-1.4-1.2-2-1.4-2.3-.5-.3.7-1.3 1.3-2.4 1.3-1.3 0-1.7.5-1.3 1.7.5 1.7.5 1.7-.6 0-1.2-1.9-3.5-1.3-2.4.6.4.7.4.9-.1.5-.4-.4-1.5-.2-2.4.4-.9.7-1.3.8-.9.4.4-.5.2-1.6-.5-2.4-.8-1.1-.8-1.4 0-.9.6.4 1.4.3 1.8-.3.4-.6 1.1-.8 1.6-.5.5.4.9.1.9-.4 0-.9-2.8-.9-5-.1-.3.2-.9.2-1.3.1s-.3.9.4 2.1l1.2 2.3-2.2-2c-1.9-1.6-2.4-1.7-3.1-.5-.5.8-.7 2.3-.4 3.4.5 1.4.3 1.6-.7 1-1.2-.7-1.2-.5-.1.9.8.9 1 2.2.6 2.9-.6.9-.3.9 1-.1 1.3-1.1 1.4-1.6.4-2.2-.7-.5-.8-.9-.2-.9.6 0 1.1-.7 1.1-1.5s-.4-1.2-.9-.9c-.9.6-1.1-1-.1-1.9 1.2-1.2 3.2 2.7 2.1 4-.6.7-.7 1.3-.4 1.3.4 0 .2 1-.5 2.1-.6 1.2-.7 1.9-.1 1.5.5-.3 1.3.1 1.6.9.3.8 1.1 1.4 1.8 1.3.8-.2 1.2.5 1.1 1.7-.1 1.1 0 1.4.3.8.4-1 1-1 2.7-.1 2.1 1.2 2.6 1.3 5.6 1.6 1 .2.9.8-.5 2.9-1.5 2.4-1.5 2.6-.1 1.4 1.4-1.1 1.7-1.1 1.8 0 .1.8.1 1.7 0 2.1-.2 1.5 1.7.8 2.3-.8.4-1 .2-1.3-.6-.8-.6.4-.8.3-.4-.4.3-.5.2-1.2-.3-1.4-.5-.1-.3-1.2.6-2.3 1.4-1.7 1.5-1.8.9-.2-.7 2.2 1.3 4.5 3.4 4 1.3-.4 1.3-.3 0 .6-.8.5-1.9.7-2.5.4-.5-.4-.7-.3-.3.2.4.4.3 1.4-.3 2.2-1.6 1.8-.1 1.7 1.7-.2.9-.8 2.1-1.5 2.7-1.5.8 0 .8.3.2.8-.5.4-1.6 1.5-2.4 2.5-1.2 1.6-1.2 1.8 0 1.5.8-.2 1.3.3 1.1 1-.1.8.2 1.1.7.7.6-.3 1.6.3 2.3 1.4 1.1 1.9 1.4 1.9 3 .4 1-.9 1.8-1.1 1.8-.5 0 .6-.6 1.2-1.2 1.5-.9.3-.3 1.4 1.6 3.3 1.6 1.6 2.6 2.4 2.2 1.7-.3-.6-.3-1.3.1-1.6.5-.2.3-.3-.2-.1-.6.1-1.1-.7-1.1-1.7 0-1.8.1-1.8 2.1.1 1.4 1.3 2.5 1.6 3.5 1 1.8-1.1 3.1-.4 2.4 1.4-.3.7.2 1.3 1.1 1.3.9 0 1.4-.6 1.1-1.4-.4-.9-.1-1.1.6-.7.8.5.9.1.5-1.2-.7-1.8-.7-1.8.7 0 .8 1 1.9 1.5 2.5 1.2.5-.4 1.3-.1 1.7.5.4.7.3.9-.4.5-.6-.3-1.3-.2-1.6.3-.4.5.2.8 1.1.6 1-.1 1.7-.9 1.5-1.9-.2-.9.2-1.6.8-1.6.5 0 .9.5.8 1.1-.2.6.3 1.4 1.1 1.7.9.3 1.1 0 .6-.9-.5-.8-.5-1.1 0-.7.4.4 1.5.2 2.3-.5 1.3-1 1.4-.9.7.2-.6 1.1-.3 1.3 1.3.9 1.2-.4 2.2-.2 2.2.3s-.5.9-1.2.9c-.6 0-.9.2-.6.5 1.1 1.2 3.7-.7 3.1-2.3-.3-1-.1-1.3.4-.7.4.5 1.9 1.2 3.3 1.4 1.4.1 2.9.8 3.3 1.5.5.6.5 0 .2-1.4-.5-1.9-.4-2.2.4-1 1 1.3 1.1 1.3 1.2 0 .1-.8.1-1.9 0-2.3-.1-.5.3-.6.8-.2.6.3.8 1.2.5 1.9-.3.8-.1 1.7.5 2.1 1.6.9 5.5 1.6 4.7.7-.4-.4-1.3-.7-1.8-.7-.6 0-1.3-.7-1.5-1.5-.3-.9-.1-1.1.4-.5.7.9 2 1.4 5 1.9 2.1.4 2.7 1.6.8 1.6-1 0-1.6.3-1.2.6.3.4 1.4.4 2.3 0 1.3-.5 1.4-.9.4-2.1-.7-.8-1.6-1.2-2.1-.9-.5.3-.9 0-.9-.5 0-1.4 1.7-1.4 2.5 0 .4.6 1.4.8 2.2.5.8-.3 1.1-.1.8.4-.3.6 0 1 .7 1.1.7 0 2.1.2 3.1.4 1.1.2 1.6 0 1.2-.3-.4-.4-1.1-.7-1.6-.7-1.7 0-1.4-1.8.4-2.1 1-.1 1.4.2 1 .9-.4.7 0 .8 1.3.2 2.8-1.1 8.5-1.4 7.8-.4-.8 1.3 1 1.1 2.5-.4 1.1-1 1.2-.9.6.2-.5.9-.3 1.2.6.9.8-.3 1.3-1.2 1.1-1.9-.2-.8 0-1 .4-.6 1.3 1.3 1.3 3.8.1 3-.7-.3-.9-.3-.5.2.4.4.2 1.5-.5 2.4-.7.9-.2.7 1.5-.4 1.4-1.1 2.5-2.3 2.5-2.6-.1-.4.3-.6.8-.5.5 0 .9.4.8.7-.1.4.6.9 1.6 1.2 1 .2 1.8-.1 1.8-.9 0-.7-.4-1.1-.9-.8-.4.3-.8 0-.8-.5 0-.6.5-1.1 1-1.1.6 0 1-5.9 1-15.6 0-11.5-.3-15.3-1.2-14.8-.7.5-.8.3-.2-.7 1.6-2.7 1.4-3.9-.6-2.6-1 .6-1.6 1.6-1.3 2.2.3.5 0 .4-.7-.2-1.2-1.1-1.1-1.6.6-2.9 1-.8 1.3-1.2.5-.8-.8.4-3 .9-5 1.1-1.9.2-4.4 1.2-5.5 2.1-1.8 1.6-1.8 1.6-.6-.7.6-1.3.7-2.1.2-1.7-.6.3-1.2.1-1.4-.6-.3-.7-.9-.8-1.9-.3-1.9 1.2-4.2 1.2-5.2 0-.5-.6-.6.2-.3 1.7s.2 3-.4 3.3c-.6.4-.7-.1-.3-1.1.5-1.3.3-1.5-.7-.9s-1.2.4-.7-.8c.4-1.2.2-1.4-1-1-1.2.5-1.4.3-.8-.8.8-1.2.6-1.2-.8 0-1.3 1.1-1.7 1.1-1.7.1 0-.8-.3-1.1-.6-.8-.3.4 0 1.7.7 3 1.1 2 1 2.1-.3 1.1-.8-.7-1.9-.9-2.3-.5-.5.4-.5.1-.1-.6 1-1.6-.5-1.5-3 .2-1.7 1.2-2.1 1.3-2.1.1 0-.8.4-1.3.8-1.2.4.1.7-.1.8-.6.1-.9-.1-1-2.1-.2-1 .4-1.5 1.1-1.2 1.6.3.5-.2.6-1 .3-.9-.3-1.4-.9-1.2-1.3.3-.4 0-1.3-.6-2.1-.8-1.2-.9-1.2-.4.2.5 1.8-.5 2.4-1.8 1.1-1.1-1.1-3.7-1.2-3-.1.8 1.2-2.8.6-3.9-.7-.5-.6-.6.3-.3 2 .5 2 .3 2.5-.3 1.6-1-1.5-3.5-.6-2.6 1 .3.5-.1.6-1 .3-1.4-.6-1.3-.8.5-2.1 1.1-.8 2-2 2-2.6 0-.8-.3-.7-.9.2-.5.8-1.6 1.1-2.5.8-.8-.3-1.8-.1-2.2.5-.5.7-.2.8.6.3s1.1-.4.6.3c-.4.6-1.3.9-2.1.5-.9-.3-2.3.1-3.2.8-1.5 1.3-1.5 1.2-.4-1 .7-1.3.8-2.1.3-1.7-.6.3-1.2 0-1.5-.6-.3-.9-.8-1-1.8-.3-.8.6-3 1.1-5 1-2.3 0-3.5.4-3.2 1.1.2.6-.3 1.1-1.1 1.1s-1.4-.3-1.2-.6c.2-.3-.3-1.2-1-1.9-1.3-1.1-1.4-.9-1 1.5.4 2.3.3 2.5-.7 1.2-1.5-2-3.8-1.3-3 .9.4 1.4.3 1.5-.5.2-.8-1-.8-1.8 0-2.7.6-.8.8-1.6.4-2-.3-.3-.6-.1-.6.5 0 .7-.5 1.2-1.1 1.2-.5 0-.8-.4-.4-.9.3-.5.1-1.2-.4-1.5-.5-.3-.7.8-.6 2.4zm21.3.4c-.2.1-1.2.8-2.2 1.6-1.8 1.4-1.9 1.4-.7-.8.7-1.2 1.7-2 2.2-1.6.6.3.9.7.7.8zm20.1 0c1 1.2.8 1.3-1 .9-1.7-.5-2-.3-1.4.7.5.9.4 1.1-.4.6-.9-.6-.9-1.1 0-2.2 1.4-1.7 1.4-1.7 2.8 0zm27.9 0c-.2.1-1.2.8-2.2 1.6-1.8 1.4-1.9 1.4-.7-.8.7-1.2 1.7-2 2.2-1.6.6.3.9.7.7.8zm-52.6.3c-.6.3-.9 1-.5 1.6.4.7-.1.6-1-.2-1.3-1.1-1.7-1.1-1.7-.1 0 .8-.3 1.1-.6.7-1.1-1 .4-2.3 2.8-2.4 1.3 0 1.7.1 1 .4zm48.8-.3c0 .3-.4.8-1 1.1-.5.3-1 .1-1-.4 0-.6.5-1.1 1-1.1.6 0 1 .2 1 .4zm12.6.8c.4.7.3.8-.4.4s-1.2-.2-1.2.5-.3 1-.6.6c-.6-.5.3-2.7 1.1-2.7.2 0 .7.5 1.1 1.2zm-97 5.5c0 1-.5 2.1-1.1 2.5-.6.5-.5.8.3.9.6.1 1.7.3 2.2.4.6.1 1.6.3 2.3.4.9.1.9.3 0 .9-.9.5-.6 1.1.9 2.1 1.9 1.2 2 1.1 1.4-.6-.6-1.4-.4-1.5.5-.6.6.6.8 1.6.4 2.3-.5.7-1.7.3-4-1.4-1.8-1.4-3.5-2.3-3.8-2-.9 1-1.4-2.2-.6-4.4 1-2.6 1.7-2.9 1.5-.5zm10.9 9.1c-.3.3-1.1 0-1.8-.7-.9-1-.8-1.1.6-.5 1 .3 1.5.9 1.2 1.2zm8.5 9.7c-1 1.2-1 1.9-.2 2.7.9.9 1.2.7 1.3-.8 0-1.8.1-1.8.8.1 1.3 3.2.1 3.9-2.5 1.4-2.2-2.1-2.2-2.3-.6-3.5 2.3-1.8 2.7-1.7 1.2.1z"/><path d="M172.7 180.3c-.3.8.1 1.4.8 1.4.7 0 1.1-.6.8-1.4-.3-.7-.6-1.3-.8-1.3-.2 0-.5.6-.8 1.3zm-10.1 19.2c-1.1.8-1.5 1.5-.9 1.5s1.6-.7 2.3-1.5c1.6-1.9 1.1-1.9-1.4 0zm25.4 17.4c-.8.6-1.8.7-2.2.5-.4-.3-.8 0-.8.5 0 1.5 1.3 1.4 3.6-.4 2.1-1.6 1.7-2-.6-.6zm51.8.2c-.8.6-.1.7 1.9.5 1.8-.2 3.4.1 3.7.6.2.4.3.3.2-.4-.3-1.5-3.8-1.9-5.8-.7zm-35.4 1.9c0 1.3.4 1.6 1 1 .7-.7.7-1.3 0-2-.6-.6-1-.3-1 1zm8 0c0 1.3.4 1.6 1 1 .7-.7.7-1.3 0-2-.6-.6-1-.3-1 1zm6.6-1.1c0 .6.4 1.3 1 1.6.6.3.7-.1.4-.9-.7-1.8-1.4-2.1-1.4-.7zm28.5.2c-.4.6-.4 1.3-.1 1.6.3.4.6.1.6-.6s.5-.9 1.2-.5.8.3.4-.4c-.9-1.5-1.3-1.5-2.1-.1zm-48 1.9c-.3.6.1.7.9.4 1.8-.7 2.1-1.4.7-1.4-.6 0-1.3.4-1.6 1zm55.1.2c.3.4.9.8 1.5.8.5 0 .9-.4.9-.8 0-.5-.7-.9-1.5-.9s-1.2.4-.9.9z"/></svg>