<svg xmlns="http://www.w3.org/2000/svg" width="167" height="26" fill="none"><path fill="#7C8385" d="M14.601 1h9.08v13.065c0 2.741-.296 4.829-.887 6.259-.595 1.433-1.786 2.647-3.578 3.64-1.793.996-4.087 1.492-6.886 1.492-2.956 0-5.247-.33-6.873-.984-1.626-.66-2.88-1.62-3.766-2.888C.978 20.566.5 19.354.258 17.95a19.143 19.143 0 01-.188-1.588l8.724-.444c.014 1.068.127 1.86.337 2.377.213.516.57.934 1.077 1.252.343.21.834.312 1.47.312 1.007 0 1.746-.304 2.217-.922.472-.619.706-1.659.706-3.123V1zm72.562 7.015c1.11-1.057 2.58-1.59 4.41-1.59 1.908 0 3.423.525 4.537 1.565 1.115 1.045 1.672 2.697 1.672 4.957 0 2.688-.533 4.55-1.6 5.587-1.07 1.04-2.58 1.556-4.529 1.556-1.897 0-3.396-.529-4.5-1.588-1.101-1.06-1.65-2.803-1.65-5.228 0-2.447.55-4.2 1.66-5.259zM78.477 20.26c1.347 1.869 3.103 3.237 5.267 4.102 2.165.864 4.902 1.29 8.21 1.29 3.252 0 5.967-.495 8.144-1.498 2.179-.997 3.848-2.396 5.001-4.194 1.153-1.801 1.728-4.105 1.728-6.91 0-3.872-1.32-6.881-3.958-9.025-2.638-2.148-6.399-3.22-11.277-3.22-4.757 0-8.47 1.09-11.137 3.279-2.665 2.184-3.998 5.238-3.998 9.162 0 2.807.674 5.146 2.02 7.014zM43.764 1.2h-9.922L22.848 25.258h9.246l6.59-17.823 3.227 8.65h-4.768l-1.957 5.196h8.608l1.466 3.977h9.483L43.764 1.198zm74.434 18.882h4.637c1.563 0 2.668-.228 3.309-.683.642-.456.963-1.065.963-1.83 0-.713-.316-1.285-.952-1.717-.635-.432-1.751-.648-3.342-.648h-4.615v4.878zm0-9.455h3.955c1.417 0 2.403-.198 2.96-.596.554-.4.831-.975.831-1.729 0-.697-.277-1.243-.831-1.637-.557-.394-1.524-.59-2.903-.59h-4.012v4.552zm-9.136-9.407h16.976c2.829 0 5 .572 6.516 1.72 1.514 1.144 2.273 2.563 2.273 4.257 0 1.415-.54 2.633-1.622 3.649-.718.674-1.773 1.211-3.16 1.602 2.109.418 3.661 1.13 4.652 2.14.995 1.013 1.492 2.28 1.492 3.813a5.685 5.685 0 01-1.06 3.36c-.709.995-1.676 1.784-2.905 2.361-.761.363-1.908.622-3.442.789-2.042.216-3.399.327-4.065.327h-15.655V1.219zm27.698 16.074l8.61-.443c.185 1.153.565 2.025 1.14 2.63.931.972 2.263 1.46 3.997 1.46 1.291 0 2.288-.249 2.988-.747.701-.5 1.051-1.078 1.051-1.735 0-.621-.334-1.18-1.002-1.672-.67-.494-2.215-.958-4.638-1.396-3.966-.733-6.796-1.705-8.484-2.919-1.706-1.212-2.557-2.756-2.557-4.64 0-1.234.436-2.4 1.305-3.496.874-1.101 2.186-1.962 3.935-2.59 1.75-.63 4.15-.94 7.197-.94 3.742 0 6.592.567 8.555 1.707 1.962 1.145 3.131 2.958 3.504 5.451l-8.523.409c-.228-1.083-.704-1.875-1.43-2.37-.729-.494-1.73-.742-3.008-.742-1.055 0-1.848.184-2.382.551-.534.369-.798.812-.798 1.337 0 .383.221.728.663 1.034.432.319 1.446.613 3.043.888 3.95.7 6.785 1.41 8.496 2.125 1.71.718 2.954 1.606 3.734 2.665a5.889 5.889 0 011.169 3.56c0 1.54-.52 2.965-1.56 4.264-1.038 1.301-2.489 2.29-4.354 2.963-1.864.669-4.215 1.005-7.049 1.005-4.98 0-8.43-.786-10.347-2.36-1.917-1.573-3.002-3.57-3.255-6z"/><path fill="#7C8385" d="M74.295 18.128c-1.211.958-3.285 1.948-6.112 1.962-1.895.011-3.395-.529-4.498-1.588-1.102-1.06-1.652-2.803-1.652-5.228 0-2.447.555-4.2 1.663-5.259.967-.925 2.72-1.637 4.33-1.649 2.428-.023 3.827.275 6.211 1.989.803-1.56 2.084-3.843 3.063-5.2a10.408 10.408 0 00-.794-.514c-2.11-1.226-5.01-1.836-8.701-1.836-4.715 0-8.36 1.063-10.938 3.2C54.289 6.141 53 9.195 53 13.172c0 2.98.734 5.426 2.2 7.338 1.466 1.912 3.208 3.247 5.226 4.006 2.02.759 4.624 1.136 7.81 1.136 3.714 0 6.51-.632 9.111-2.292 0 0-1.72-2.462-3.042-5.226l-.01-.006zm90.379-15.48h.355c.302 0 .574-.015.574-.363 0-.29-.25-.336-.478-.336h-.451v.699zm-.341-.974h.846c.519 0 .766.205.766.626 0 .396-.251.56-.577.596l.626.965h-.365l-.596-.94h-.359v.94h-.341V1.674zm.73 2.692c.866 0 1.536-.688 1.536-1.608 0-.894-.67-1.582-1.536-1.582-.876 0-1.545.688-1.545 1.582 0 .92.669 1.608 1.545 1.608zm0-3.468a1.86 1.86 0 011.877 1.86 1.866 1.866 0 01-1.877 1.883 1.87 1.87 0 01-1.884-1.883c0-1.054.859-1.86 1.884-1.86z"/></svg>