<svg width="22" height="22" viewBox="0 0 22 22" fill="none" xmlns="http://www.w3.org/2000/svg">
<path d="M20.4599 12.3293L19.8902 10.0505C20.046 10.0174 20.1628 9.87922 20.1628 9.71366V9.34623C20.1628 8.54848 19.5138 7.89948 18.7161 7.89948H16.1211V7.14164C16.1211 6.74907 15.8018 6.42973 15.4092 6.42973H10.5841L13.5162 5.25686C13.6929 5.18622 13.7788 4.98572 13.7081 4.80908C13.6375 4.63248 13.4371 4.5465 13.2604 4.61718L10.8595 5.57749C11.5911 5.1081 12.3149 4.59148 12.5905 4.2302C13.127 3.52685 12.9911 2.5182 12.2877 1.98173C11.5844 1.44523 10.5757 1.58114 10.0393 2.28449C9.6473 2.79848 9.13013 4.24271 8.7954 5.26042C8.46068 4.24279 7.9435 2.79848 7.55154 2.28449C7.01512 1.58114 6.00643 1.44531 5.30307 1.98173C4.59972 2.51816 4.46389 3.5268 5.00032 4.2302C5.27588 4.59153 5.99964 5.1081 6.73127 5.57749L4.33043 4.61718C4.1537 4.54641 3.9533 4.63243 3.88266 4.80908C3.81197 4.98572 3.89791 5.18622 4.07455 5.25686L7.00674 6.42973H2.18161C1.78905 6.42973 1.4697 6.74907 1.4697 7.14164V13.388C1.4697 13.5782 1.62392 13.7325 1.81418 13.7325C2.00441 13.7325 2.15866 13.5783 2.15866 13.388V7.14164C2.15866 7.12896 2.16893 7.11869 2.18161 7.11869H15.4092C15.4218 7.11869 15.4321 7.12896 15.4321 7.14164V13.3881C15.4321 13.5783 15.5863 13.7326 15.7766 13.7326C15.9668 13.7326 16.1211 13.5784 16.1211 13.3881V12.9976H20.1844C20.1848 12.9976 20.1851 12.9977 20.1855 12.9977C20.1859 12.9977 20.1862 12.9976 20.1866 12.9976C20.6866 12.998 21.1111 13.3262 21.2569 13.7784H20.1858C19.9956 13.7784 19.8413 13.9326 19.8413 14.1229V14.8578C19.8413 15.4529 20.3255 15.9371 20.9206 15.9371H21.311V17.4527H20.4103C20.1144 16.5984 19.3023 15.983 18.3486 15.983C17.3949 15.983 16.5827 16.5984 16.2869 17.4527H16.121V14.8577C16.121 14.6675 15.9668 14.5132 15.7765 14.5132C15.5863 14.5132 15.4321 14.6674 15.4321 14.8577V17.4527H8.28511C7.98922 16.5984 7.17707 15.9829 6.22338 15.9829C5.26969 15.9829 4.45749 16.5983 4.16165 17.4527H2.18161C2.16893 17.4527 2.15866 17.4424 2.15866 17.4297V16.6719H3.65136C3.84158 16.6719 3.99584 16.5177 3.99584 16.3274C3.99584 16.1371 3.84162 15.9829 3.65136 15.9829H0.34448C0.154258 15.9829 0 16.1371 0 16.3274C0 16.5177 0.154215 16.6719 0.34448 16.6719H1.46975V17.4297C1.46975 17.8223 1.78909 18.1416 2.18165 18.1416H4.04237C4.04229 18.1493 4.04177 18.1569 4.04177 18.1646C4.04177 19.3675 5.02047 20.3462 6.22338 20.3462C7.42629 20.3462 8.40499 19.3675 8.40499 18.1646C8.40499 18.1568 8.40447 18.1493 8.40439 18.1416H16.1676C16.1675 18.1493 16.1669 18.1569 16.1669 18.1646C16.1669 19.3675 17.1456 20.3462 18.3486 20.3462C19.5515 20.3462 20.5302 19.3675 20.5302 18.1646C20.5302 18.1568 20.5297 18.1493 20.5296 18.1416H21.6555C21.8457 18.1416 22 17.9874 22 17.7972V14.1229C22 13.2156 21.3307 12.4619 20.4599 12.3293ZM7.4293 5.20173C6.0705 4.35735 5.66745 3.96887 5.54812 3.81238C5.24206 3.41109 5.31957 2.83561 5.7209 2.52954C5.88633 2.40339 6.08132 2.34241 6.2749 2.34241C6.55084 2.34241 6.82387 2.46642 7.00378 2.70232C7.337 3.13923 7.85886 4.60975 8.20338 5.6694C7.97087 5.5325 7.70361 5.37227 7.4293 5.20173ZM9.38751 5.66936C9.73204 4.60975 10.2539 3.13927 10.5871 2.70228C10.8931 2.30099 11.4686 2.22352 11.8699 2.52954C12.2712 2.83561 12.3487 3.41109 12.0427 3.81238C11.9234 3.96882 11.5203 4.35735 10.1616 5.20168C9.88732 5.37218 9.62006 5.53246 9.38751 5.66936ZM16.1211 8.58835H18.7161C19.1339 8.58835 19.4739 8.92832 19.4739 9.34619V9.36914H16.1211V8.58835ZM16.1211 12.3086V10.0581H19.182L19.7446 12.3086H16.1211ZM6.22338 19.6573C5.40031 19.6573 4.73069 18.9876 4.73069 18.1646C4.73069 17.3415 5.40031 16.6719 6.22338 16.6719C7.04645 16.6719 7.71607 17.3415 7.71607 18.1646C7.71607 18.9876 7.04645 19.6573 6.22338 19.6573ZM18.3486 19.6573C17.5256 19.6573 16.856 18.9876 16.856 18.1646C16.856 17.3415 17.5256 16.6719 18.3486 16.6719C19.1717 16.6719 19.8413 17.3415 19.8413 18.1646C19.8413 18.9876 19.1717 19.6573 18.3486 19.6573ZM21.3111 15.2481H20.9207C20.7054 15.2481 20.5303 15.0729 20.5303 14.8577V14.4672H21.311V15.2481H21.3111Z" fill="#F68E5F"/>
<path d="M6.22363 17.4527C5.83106 17.4527 5.51172 17.772 5.51172 18.1646C5.51172 18.5572 5.83106 18.8765 6.22363 18.8765C6.61619 18.8765 6.93553 18.5572 6.93553 18.1646C6.93553 17.772 6.61619 17.4527 6.22363 17.4527Z" fill="#F68E5F"/>
<path d="M18.3486 17.4527C17.9561 17.4527 17.6367 17.772 17.6367 18.1646C17.6367 18.5572 17.9561 18.8765 18.3486 18.8765C18.7412 18.8765 19.0605 18.5572 19.0605 18.1646C19.0605 17.772 18.7412 17.4527 18.3486 17.4527Z" fill="#F68E5F"/>
<path d="M14.3069 15.983H9.16284C8.97262 15.983 8.81836 16.1372 8.81836 16.3275C8.81836 16.5177 8.97257 16.6719 9.16284 16.6719H14.3069C14.4971 16.6719 14.6514 16.5177 14.6514 16.3275C14.6514 16.1372 14.4971 15.983 14.3069 15.983Z" fill="#F68E5F"/>
<path d="M5.49 14.5132H1.08081C0.890586 14.5132 0.736328 14.6675 0.736328 14.8577C0.736328 15.048 0.890543 15.2022 1.08081 15.2022H5.49C5.68022 15.2022 5.83448 15.048 5.83448 14.8577C5.83448 14.6675 5.68022 14.5132 5.49 14.5132Z" fill="#F68E5F"/>
<path d="M5.48805 9.36914H4.01831C3.82809 9.36914 3.67383 9.52336 3.67383 9.71362V12.6531C3.67383 12.8433 3.82804 12.9976 4.01831 12.9976C4.20857 12.9976 4.36279 12.8433 4.36279 12.6531V11.5278H5.12063C5.31085 11.5278 5.46511 11.3736 5.46511 11.1833C5.46511 10.9931 5.31089 10.8388 5.12063 10.8388H4.36279V10.0581H5.48805C5.67828 10.0581 5.83254 9.90389 5.83254 9.71362C5.83249 9.5234 5.67828 9.36914 5.48805 9.36914Z" fill="#F68E5F"/>
<path d="M8.19915 11.6893C8.54389 11.4635 8.77223 11.0741 8.77223 10.6322C8.77223 9.93573 8.20564 9.36914 7.50916 9.36914H6.59057C6.40035 9.36914 6.24609 9.52336 6.24609 9.71362V12.6531C6.24609 12.8433 6.40031 12.9976 6.59057 12.9976C6.78084 12.9976 6.93505 12.8433 6.93505 12.6531V11.8952H7.50852L8.1411 12.8441C8.20749 12.9437 8.31667 12.9976 8.428 12.9976C8.4937 12.9976 8.56005 12.9788 8.61874 12.9396C8.77708 12.8341 8.81984 12.6202 8.71426 12.462L8.19915 11.6893ZM7.50916 11.2063H6.93505V10.0581H7.50916C7.82575 10.0581 8.08327 10.3156 8.08327 10.6322C8.08327 10.9488 7.82575 11.2063 7.50916 11.2063Z" fill="#F68E5F"/>
<path d="M11.0017 12.3086H9.87646V11.5267C9.88406 11.5272 9.89167 11.5279 9.8994 11.5279H10.6343C10.8245 11.5279 10.9787 11.3736 10.9787 11.1834C10.9787 10.9931 10.8245 10.8389 10.6343 10.8389H9.8994C9.89163 10.8389 9.88406 10.8395 9.87646 10.84V10.0581H11.0017C11.1919 10.0581 11.3462 9.90389 11.3462 9.71362C11.3462 9.5234 11.192 9.36914 11.0017 9.36914H9.53198C9.34176 9.36914 9.1875 9.52336 9.1875 9.71362V12.6531C9.1875 12.8433 9.34171 12.9976 9.53198 12.9976H11.0017C11.1919 12.9976 11.3462 12.8433 11.3462 12.6531C11.3462 12.4628 11.1919 12.3086 11.0017 12.3086Z" fill="#F68E5F"/>
<path d="M13.572 12.3086H12.4468V11.5279H12.8372C13.0274 11.5279 13.1817 11.3736 13.1817 11.1834C13.1817 10.9931 13.0275 10.8389 12.8372 10.8389H12.4468V10.0581H13.572C13.7623 10.0581 13.9165 9.90389 13.9165 9.71362C13.9165 9.5234 13.7623 9.36914 13.572 9.36914H12.1023C11.9121 9.36914 11.7578 9.52336 11.7578 9.71362V12.6531C11.7578 12.8433 11.912 12.9976 12.1023 12.9976H13.572C13.7623 12.9976 13.9165 12.8433 13.9165 12.6531C13.9165 12.4628 13.7623 12.3086 13.572 12.3086Z" fill="#F68E5F"/>
</svg>
