<svg width="30" height="30" viewBox="0 0 30 30" fill="none" xmlns="http://www.w3.org/2000/svg">
<path d="M11.414 12.198C11.426 11.022 11.774 10.104 12.458 9.444C13.142 8.772 14.066 8.436 15.23 8.436C16.358 8.436 17.252 8.7 17.912 9.228C18.584 9.756 18.92 10.512 18.92 11.496C18.92 11.952 18.842 12.354 18.686 12.702C18.53 13.05 18.344 13.344 18.128 13.584C17.912 13.824 17.618 14.106 17.246 14.43C16.754 14.85 16.382 15.234 16.13 15.582C15.89 15.918 15.77 16.338 15.77 16.842H13.97C13.97 16.362 14.042 15.942 14.186 15.582C14.33 15.222 14.498 14.928 14.69 14.7C14.894 14.46 15.17 14.184 15.518 13.872C15.926 13.5 16.226 13.176 16.418 12.9C16.61 12.624 16.706 12.276 16.706 11.856C16.706 11.388 16.556 11.04 16.256 10.812C15.968 10.572 15.56 10.452 15.032 10.452C14.48 10.452 14.048 10.602 13.736 10.902C13.424 11.19 13.256 11.622 13.232 12.198H11.414ZM14.834 18.57C15.194 18.57 15.488 18.69 15.716 18.93C15.956 19.17 16.076 19.476 16.076 19.848C16.076 20.232 15.956 20.55 15.716 20.802C15.488 21.042 15.194 21.162 14.834 21.162C14.486 21.162 14.192 21.036 13.952 20.784C13.724 20.532 13.61 20.22 13.61 19.848C13.61 19.476 13.724 19.17 13.952 18.93C14.192 18.69 14.486 18.57 14.834 18.57Z" fill="#0CCA4A"/>
<circle cx="15" cy="15" r="14.25" stroke="#0CCA4A" stroke-width="1.5"/>
</svg>
