<svg width="2020" height="1854" viewBox="0 0 2020 1854" fill="none" xmlns="http://www.w3.org/2000/svg"><g opacity=".12" clip-rule="evenodd" stroke="#fff"><path d="M740.611 670.261c-.115-24.417-46.031-51.876-65.644-66.032-38.781-28-79.116-53.856-119.076-80.125-39.961-26.269-80.029-52.467-118.134-81.307-24.742-18.721-53.813-39.806-70.593-66.538-35.745-56.968 76.958-48.508 106.152-49.755 74.268-3.183 159.453-1.73 229.068-31.396 41.557-17.71 58.128-47.411 49.202-90.699-2.877-14.079-11.392-30.279-4.178-43.994 7.703-14.648 25.424-23.1 40.133-28.768 53.647-20.651 115.328-23.044 172.09-25.636 61.209-2.848 122.989-2.015 183.759-2.236 25.77-.092 52.69-9.257 77.23-16.706 32.17-9.762 63.96-20.729 95.87-31.332 70.18-23.27 142.51-47.781 216.77-53.692 46.51-3.703 97.33 1.303 133.46 33.512 18.14 16.171 27.63 40.212 38.12 61.567 12.7 25.8 24.89 51.848 38.4 77.241 43.54 81.784 105.69 161.703 206.58 165.719 15.26.605 30.25-1.367 45.44-1.737 9.67-.228 18.28 2.086 21.88 12.105 9.04 25.13-19.38 64.801-31.03 84.74-25.51 43.644-54.28 85.33-81.23 128.098-17.83 28.285-48.69 66.937-49.01 101.303-.29 30.62 40.85 52.752 63.24 67.834 20.99 14.121 59.02 33.882 61.32 62.608 1.11 13.928-8.16 25.471-17.85 34.43-16.98 15.666-36.55 26.717-51.82 44.591-25.05 29.324-45.98 69.671-42.58 109.185 2.36 27.379 18.14 45.309 38.21 62.449 8.44 7.21 15.29 12.31 15.73 24.01.72 18.58-6.63 38.24-12.69 55.46-21.66 61.65-52.43 121.26-86.66 176.92-17.1 27.81-35.58 55.54-58.25 79.27-14.86 15.58-34.89 34.12-57.54 34.1-26.23 0-53.99-9.37-79.48-16.38-47.63-13.1-94.67-28.24-141.53-43.77a6340.43 6340.43 0 01-322.03-116.52c-74.9-29.46-151.38-58.96-221.793-98.13a248.778 248.778 0 01-38.709-26.78c-12.839-10.63-28.77-15.39-44.924-18.94-100.26-22.01-210.101-5.11-310.779 5.49-25.555 2.68-51.109 5.38-76.735 7.26-22.03 1.62-48.404 6.25-69.816-.71-42.19-13.71-5.308-64.23 10.285-84.82 54.899-72.484 125.729-133.809 191.38-196.417 31.215-29.815 62.667-59.552 92.184-91.056 15.37-16.378 45.679-43.01 45.578-64.416z"/><path d="M759.529 666.145c-16.827-25.838-46.35-44.935-70.856-62.907-35.267-25.874-71.642-50.309-107.47-75.449-33.877-23.774-67.827-47.818-99.199-74.815-19.131-16.464-43.133-36.152-52.195-60.502-19.655-52.778 86.087-44.771 112.191-46.152 64.898-3.416 138.475-4.199 198.514-31.987 37.491-17.353 52.893-46.131 44.897-86.083-2.764-13.823-7.745-25.624-1.44-39.376 7.291-15.915 24.061-25.837 39.434-32.841 48.157-21.944 105.08-26.606 157.281-30.486 53.934-4.007 110.114-6.833 162.314-3.9 20.87 1.167 44.89-5.46 65.55-10.542 31.78-7.829 63.24-16.862 94.87-25.26 64.27-17.084 130.21-33.54 197.07-35.412 48.27-1.352 98.61 5.98 138.77 34.315 40.7 28.735 58.75 73.278 81.32 115.622 38.98 73.206 91.63 162.215 181.81 177.682 13.68 2.348 26.82 1.074 40.48 1.651 7.03.292 15.02 1.217 18.58 8.071 9.25 17.795-16.09 50.33-24.62 63.961-23.56 37.668-50.05 73.491-74.75 110.433-19.61 29.332-44.47 61.925-52.06 96.695-9.2 42.195 50.95 72.218 72.1 101.927 36.67 51.519-32.81 80.873-67.06 105.436-39.33 28.201-71.8 79.649-36.54 123.281 13.49 16.683 30.09 26.623 36.11 48.403 9.42 34.05 2.3 72.96-5.35 106.62-11.51 50.6-29.74 100.66-54.51 146.39-17.75 32.74-47.19 84.08-90.31 80.23-29.03-2.57-58.53-11.96-86.8-20.26-42.32-12.42-84.11-26.58-125.67-41.28-95.95-33.85-190.83-71.18-283.86-112.23-63.47-28.03-240.523-142.55-253.845-146.63-39.722-12.17-84.885-10.03-125.837-8.14-54.476 2.5-108.679 8.99-162.838 15.01-25.78 2.84-51.69 6.32-77.608 7.73-18.446.99-42.672 1.85-58.83-8.77-31.538-20.7 3.599-68.077 18.13-88.121 44.515-61.448 100.826-114.66 153.625-169.069 25.91-26.713 52.216-53.383 75.737-82.239 9.486-11.652 33.265-35.048 22.865-51.006z"/><path d="M782.809 652.894c-45.955-51.704-109.382-90.158-164.123-133.34-27.475-21.679-55.123-43.95-78.82-69.774-12.327-13.428-27.72-30.408-30.095-49.126-6.347-50.074 88.96-43.303 117.485-45.204 55.152-3.688 117.456-6.486 167.491-32.039 30.57-15.621 45.624-41.259 39.91-74.957-2.533-14.952-6.476-27.654 0-42.335 6.563-14.873 20.236-25.367 34.082-33.235 39.787-22.627 89.232-29.86 134.031-35.25a1092.5 1092.5 0 01158.41-7.333c46.34 1.203 92.46-12.332 137.71-21.253 59.94-11.812 120.98-22.128 182.32-20.57 48.44 1.24 97.27 10.972 138.68 36.839 42.08 26.343 67.39 65.772 90.2 108.32 34.48 64.321 77.46 150.513 153.11 174.941 11 3.56 21.26 3.952 32.61 4.571 5.51.299 12.63.392 15.36 6.08 6.58 13.699-17.74 40.256-24.52 49.511-21.66 29.548-45.15 57.763-67.35 86.919-20.72 27.219-43.3 55.584-56.17 87.481-20.49 50.8 45.01 80.503 43.18 128.911-1.15 30.053-30.23 51.604-53.25 66.513-28.36 18.334-69.18 30.387-83.37 63.843-10.57 24.92 6.01 39.423 18.79 58.333 21.64 32.039 23.12 75.47 20.87 112.56-3.04 50.11-14.91 100.97-35.11 147.03-9.15 20.89-20.36 42.61-36.87 58.83-15.46 15.2-30.1 19.09-50.77 15.98-63.27-9.54-127.15-36.13-187.82-59.88-76.23-29.85-151.41-62.8-224.34-99.87-49.73-25.28-100.59-52.03-144.24-86.96-11.38-9.11-23.03-19.01-31.347-31.02-6.29-9.02-8.959-16.48-19.559-21.634-31.419-15.272-75.121-11.277-108.785-9.69-53.828 2.528-107.396 9.256-160.892 15.314-31.218 3.56-90.025 14.76-114.952-12.103-21.517-23.196 4.447-62.746 17.71-83.18 33.548-51.676 76.704-97.029 116.743-143.728 18.351-21.402 37.42-42.968 52.576-66.762 3.871-6.066 10.074-14.104 11.139-21.473 1.195-8.444-4.382-14.888-10.024-21.26z"/><path d="M786.759 664.93c-42.464-45.715-93.622-83.273-139.209-126.053-20.44-19.181-41.082-39.303-56.657-62.703-8.378-12.583-17.273-28.422-14.963-44.062 6.629-44.89 85.014-40.835 116.682-43.464 47.056-3.862 101.114-7.753 142.722-31.957 27.256-15.854 37.476-39.268 32.387-69.465-5.463-32.391 6.751-55.905 34.547-73.974 34.849-22.637 78.839-31.865 119.302-38.42a828.305 828.305 0 01147.5-10.41c48.03.912 94.56-7.054 142.27-12.234 63.26-6.862 128.54-10.246 191.09 3.819 54.45 12.248 103.64 39.239 140.51 80.979 38.51 43.564 57.58 98.45 88.85 146.645 19.5 30.062 46.7 69.828 83.15 81.514 12.15 3.897 34.31-1.361 24.6 17.813-5.55 10.966-15.94 20.585-24.14 29.548-13.26 14.486-26.95 28.573-40.44 42.859-28.73 30.453-59.5 61.555-81.03 97.616-27.13 45.403 13.2 80.345 8.28 126.381-2.64 24.775-20.04 44.548-38.45 60.081-11.91 10.061-24.95 18.775-38.25 26.905-13.9 8.493-30.35 14.963-42.47 25.943-17.27 15.626-9.77 34.123-6.53 54.323 5.7 35.5 6.95 71.556 3.73 107.366-3.95 43.88-13.2 89.02-32.68 128.9-7.58 15.53-17.18 31.99-31.44 42.4-14.26 10.41-29 9.69-45.34 6.56-48.46-9.26-96.82-30.82-142.79-51.25-57.53-25.57-113.94-54.15-167.8-86.66-37.18-22.45-74.49-46.69-105.59-77.12-9.05-8.86-17.66-18.345-24.62-28.933-4.78-7.261-7.34-16.631-14.26-22.089-21.665-17.036-65.158-11.949-90.565-10.958-50.704 1.973-100.61 11.357-151.25 13.638-27.638 1.246-70.922 4.382-91.218-18.911-19.087-21.896-1.799-56.382 9.608-77.48 22.42-41.484 52.54-78.443 79.537-117.005 11.098-15.868 23.262-32.47 30.452-50.589 6.391-16.146-4.643-27.831-15.525-39.553z"/><path d="M797.204 665.678c-33.8-40.228-74.547-75.939-108.591-116.822-19.928-23.942-54.245-64.192-38.834-97.946 16.907-37.091 75.841-38.101 109.907-41.09 40.545-3.557 88.16-8.417 122.859-31.576 10.974-7.322 20.323-17.013 24.285-29.777 4.243-13.661-.395-25.614-.999-39.289-1.266-28.688 16.037-51.72 38.934-67.537 32.362-22.362 72.825-32.935 111.055-40.307a682.751 682.751 0 01131.43-12.238c42.16.143 83.87-.782 126.07-1.849 55.19-1.423 111.15.875 164.69 15.382 52.73 14.302 100.68 41.104 138.34 80.529 36.74 38.471 61.53 85.494 83.24 133.393 12.32 27.187 33.13 67.814 62.51 81.546 13.07 6.112 25.89 5.692 12 21.587-17.5 20.015-41.08 36.073-61.34 53.192-29.24 24.704-59.2 49.891-83.74 79.262-15.67 18.755-22.65 36.956-21.58 61.24.84 18.499 4.62 36.806 2.71 55.376-4.48 43.587-39.17 73.478-69.83 101.312-19.73 17.901-37.74 31.555-47.9 57.02-12.01 30.097-17.05 62.84-25.07 94.094-8.82 34.31-19 70.01-38.25 100.23-17.13 26.91-37.96 38.98-69.14 31.73-48.64-11.3-96.58-39.13-139.75-64.88-43.95-26.2-87.14-55.66-123.56-91.667-19.66-19.446-33.08-42.278-50.54-63.168-21.97-26.226-71.651-16.293-101.179-14.073-49.017 3.685-203.252 31.263-189.021-58.059 5.941-37.283 29.334-71.692 46.443-104.592 7.091-13.654 17.353-30.04 18.957-45.686 1.747-17.04-13.945-33.227-24.106-45.337z"/><path d="M815.05 669.094c-25.83-36.455-56.741-70.896-78.904-110.27-14.378-25.499-28.496-59.57-9.949-86.55 20.933-30.447 67.092-37.544 101.009-41.424 34.944-3.994 76.66-7.354 105.221-30.44 9.087-7.354 16.577-17.27 17.972-29.144 1.344-11.39-2.451-22.78-1.193-34.377 2.818-26.04 18.77-47.496 39.337-63.058 60.837-46.037 151.387-56.274 224.787-57.477 36.75-.598 74.56 2.541 111.54 4.791 47.98 2.919 96.04 9.183 141.8 24.282 97.3 32.091 162.52 103.265 208.07 191.83 14.33 27.877 25.3 58.039 47.77 80.442 11.58 11.568 9.05 19.876-2.79 30.426-18.51 16.487-41.09 29.087-61.64 42.848-29.22 19.569-59.07 39.431-84.91 62.873-17.82 16.159-30.46 31.728-34.3 55.96-2.74 17.278-2.1 34.882-3.75 52.266-3.13 33.025-13.86 65.799-32.86 93.192-15.1 21.713-33.07 41.446-51.65 60.261-24.14 24.496-44.57 49.383-62.91 78.456-24.31 38.489-58.47 109.469-115.73 90.689-63.16-20.73-122.36-73.4-162.89-124.439-13.6-17.135-24.78-38.15-43.13-50.786-27.47-18.886-55.35-18.224-88.032-18.145-48.927.107-155.392 10.621-156.542-61.934-.453-28.745 12.113-55.925 18.13-83.574 6.786-30.967-6.815-51.853-24.456-76.698z"/><path d="M834.288 672.344c-25.549-47.513-82.839-125.587-39.265-178.421 23.016-27.922 63.727-38.414 97.878-44.667 27.483-5.058 60.627-6.958 81.393-28.399 15.263-15.764 8.487-38.706 14.335-58.44 7.257-24.464 23.911-44.482 44.391-59.528 57.2-42.05 136.74-54.954 205.55-57.7 71.47-2.845 150.21 10.464 217.46 36.067 83.86 31.934 146.68 92.401 190.61 168.974 8.11 14.135 15.47 28.64 23.25 42.946 5.23 9.597 12.99 18.88 17.11 28.975 6.86 16.831-1.22 30.589-14.19 41.559-18.64 15.792-41.54 27.032-62.79 38.884-29.07 16.219-58.78 32.147-85.82 51.176-18.17 12.805-37.19 26.599-43.69 48.815-4.44 15.153-5.36 31.201-5.2 46.894.35 33.649-1.44 60.859-17.31 91.676-26.11 50.593-66.26 96.086-108.67 133.939-33.29 29.706-85.96 75.856-134.46 55.996-43.52-17.79-68.97-60.357-97.64-94.774-13.94-16.731-29.6-32.012-48-43.913-23.2-15.003-45.03-21.299-72.516-23.753-46.257-4.133-116.005-5.208-130.304-60.126-5.279-20.267-2.265-41.26-5.035-61.791-3.618-27.146-14.198-50.422-27.087-74.389z"/><path d="M860.854 674.104c-18.193-51.989-42.093-117.508 1.847-163.714 21.284-22.384 51.222-34.897 80.197-44.247 20.752-6.702 53.702-8.675 66.422-29.278 9.35-15.162 10.64-36.078 19.09-52.323 11.62-22.334 29.22-40.729 49.86-55.129 53.78-37.524 123.83-52.024 187.71-56.176 138.8-9.009 280.03 62.742 354.3 180.792 22.15 35.188 50.74 72.641 14.95 108.591-39.08 39.22-97.94 57.594-144.57 85.461-17.82 10.64-40.53 23.43-50.47 42.695-5.98 11.58-6.39 26.108-6.67 38.856-.71 32.468-3.44 61.667-16.63 91.962-20.37 46.819-52.85 90.012-89.66 125.392-32.1 30.852-77.88 67.104-124.51 44.867-35.74-17.092-58.41-53.37-86.19-80.112-30.91-29.783-69.13-49.852-111.11-59.659-40.835-9.514-85.624-15.931-107.145-56.354-7.382-13.866-15.095-31.819-17.862-47.167a469.4 469.4 0 00-19.559-74.457z"/><path d="M890.476 674.47c-8.417-52.497-9.352-107.237 29.752-148.613 18.251-19.303 41.321-33.016 64.649-45.441 17.163-9.142 34.893-16.853 47.713-31.842 11.87-13.877 20.9-29.99 32.37-44.23a225.581 225.581 0 0153.6-48.382c51.07-32.959 113.2-48.375 172.64-53.722 28.78-2.599 59.99-3.952 88.57 3.133 27.6 6.835 54.9 17.644 80.28 30.247 53.95 26.764 100.71 65.961 134.6 115.518 23.25 33.992 35.81 67.044 5.71 101.527-33.93 38.869-87.13 60.315-130.98 85.542-30.08 17.302-63.79 34.263-69.41 71.031-4.47 29.257-8.11 57.026-19.68 84.681-17.23 40.791-42.56 77.743-74.48 108.661-29.2 28.168-66.14 52.071-107.91 37.026-33.09-11.941-58.76-38.692-87.67-57.817-32.22-21.36-67.62-33.137-104.9-42.607-33.502-8.544-65.046-21.674-86.699-49.549-4.431-5.697-9.085-11.898-12.502-18.271-4.36-8.131-4.021-16.191-4.877-25.305-2.23-24.052-6.971-47.827-10.776-71.587z"/><path d="M923.137 670.179c.719-49.864 12.834-96.991 46.017-135.851 14.187-16.624 31.126-30.317 46.736-45.55 12.57-12.281 24.45-23.691 38.9-33.811 34.28-23.963 62.15-54.971 98.58-76.309 48.63-28.527 104.34-44.295 159.62-50.599 27-3.081 54.88-4.158 82.19-.678 23.45 2.988 45.92 13.479 66.75 24.212 40.84 21.024 80.5 50.906 107.02 88.711 58.46 83.348-56.81 143.946-115.97 179.433-27.21 16.324-68.78 35.23-79.93 67.565-7.96 23.1-12.82 46.592-23.08 68.978-27.56 60.12-83.5 130.83-158.06 121.417-31.9-4.023-60.98-20.361-90.76-31.33-30.67-11.296-62.32-17.594-94.2-24.504-29.786-6.454-53.528-15.64-72.769-40.266-9.197-11.76-8.384-25.838-9.204-40.265-1.337-23.699-2.164-47.533-1.84-71.153z"/><path d="M952.876 663.792c11.978-75.266 56.464-157.435 121.874-201.146 76.94-51.418 160.3-94.716 252.23-107.163 42.62-5.772 89.31-8.611 129.52 10.262 30.61 14.354 66.16 35.811 83.01 65.986 41.21 73.807-50.46 132.563-102.68 166.709-28.12 18.382-63.91 36.295-85.1 63.139-12.29 15.564-18.57 36.153-28.5 53.247-30.08 51.803-79.59 93.585-141.28 101.057-28.52 3.452-57.24-.818-85.55-4.213-28.97-3.473-58.3-5.359-87.1-10.205-22.981-3.872-50.068-10.426-58.533-34.772-10.675-30.68-2.778-72.164 2.109-102.901z"/><path d="M982.04 651.701c17.469-70.763 54.46-139.788 116.65-182.032 32.97-22.4 71.26-37.864 108.01-53.141 41.66-17.315 85.19-30.756 129.65-37.423 55.35-8.304 145-15.79 173.92 46.639 28.71 61.967-43.83 116.811-86.72 148.065-27.5 20.021-56.93 38.397-83.21 60.285-14.25 11.866-25.22 25.577-37.28 39.495-33.32 38.562-80.83 69.089-129.25 85.386-46.93 15.797-104.99 22.792-154.53 17.571-21.371-2.244-36.649-9.815-43.113-31.339-8.958-29.922-1.348-64.275 5.873-93.506z"/><path d="M1011.02 632.642c17.35-62.304 54.78-119.21 109.38-156.604 61.2-41.919 140.01-65.212 212.45-77.057 38.5-6.292 121.93-23.35 141.56 25.47 19.62 48.821-37.11 96.932-69.76 123.417-39.63 32.095-82.36 63.084-125.04 91.881-37.08 25.038-76.64 50.637-116.8 69.972a428.386 428.386 0 01-70.51 26.762c-17.97 5.021-40.81 12.511-59.64 8.773-47.51-9.44-29.94-82.823-21.64-112.614z"/><path d="M1046.79 613.985c38.08-117.824 158.71-175.772 274.87-195.97 26.99-4.689 102.66-21.593 117.74 14.4 14.62 34.897-31.87 76.282-53.64 95.89-67.46 60.758-150.79 105.808-229.76 150.437-24.65 13.931-69.11 44.16-99.68 30.216-33.2-15.168-17.42-70.541-9.53-94.973z"/><path d="M1085.79 591.307c33.12-86.769 129.43-136.534 217.98-152.94 21.69-4.014 76.77-16.512 93.2 7.701 15.2 22.399-21.08 54.855-34.65 67.752-30.22 28.719-66.03 52.377-101.4 75.117-32.71 21.039-65.78 42.605-100.19 60.399-18.13 9.366-52.13 29.352-72.73 14.89-22.18-15.559-9.56-53.652-2.21-72.919z"/><path d="M1128.77 565.957c25.24-56.664 92.84-93.459 152.46-105.687 16.05-3.282 50.72-11.799 64.26 3.333 12.46 13.936-7.62 34.367-16.54 43.803-39.5 41.823-97.34 79.181-150.34 102.125-13.33 5.769-37.28 17.091-50.99 5.448-14.06-11.956-4.65-36.012 1.15-49.022z"/><path d="M1174.37 542.154c14.22-28.137 51.39-49.365 82.18-56.122 21.67-4.752 47.71-.648 28.83 23.845-18.76 24.305-53.57 46.504-83.08 56.345-22.5 7.505-40.15.101-27.93-24.068zM21.097 737.034c-.912-55.588-30.753-113.36-16.016-170.001 12.102-46.52 73.028-50.404 109.578-71.48 29.044-16.744 45.527-46.405 61.234-74.864 14.113-25.55 26.789-51.869 41.656-76.999 9.624-16.246 26.15-48.148 47.021-48.725 19.981-.554 38.303 24.306 49.909 39.001 15.133 19.156 28.549 39.577 43.243 59.039 24.764 32.826 54.476 57.125 88.498 80.121a2990.144 2990.144 0 00118.066 75.818c29.447 18.003 59.095 35.871 87.399 55.653 17.755 12.412 56.94 35.7 57.12 58.583.086 10.918-10.364 23.01-17.41 31.738-11.922 14.774-25.511 28.282-39.142 41.498-25.389 24.618-51.855 48.119-78.034 71.905-33.978 30.871-66.434 61.237-96.304 96.283-30.883 36.276-60.387 73.748-90.495 110.706-20.39 25.04-40.758 53.16-70.169 68.52-36.837 19.21-67.073-1.04-104.327-1.28-32.047-.21-29.684-73.73-33.756-94.169-4.086-20.692-13.093-39.954-16.583-60.695-4.353-25.892-4.41-52.381-5.48-78.55-1.3-32.009-1.817-62.481-36.37-74.687-19.665-6.935-40.938-8.393-61.292-12.547-13.187-2.696-38.058-7.305-38.346-24.868z"/><path d="M36.853 727.146c-3.36-46.597-23.205-106.238-4.438-154.338 16.033-41.104 66.175-46.433 99.939-68.025 27.873-17.81 40.281-46.953 54.214-75.584 11.177-22.967 22.017-46.155 34.706-68.388 9.351-16.385 23.629-44.047 43.071-47.438 17.479-3.049 36.224 21.372 46.035 33.796 14.314 18.137 26.557 37.834 39.202 57.118 22.219 33.874 44.971 64.335 77.49 89.219 32.663 24.99 68.398 43.676 104.514 63.124 28.254 15.217 56.364 30.875 83.208 48.442 19.997 13.079 48.747 29.82 57.897 53.144 7.243 18.45-29.492 49.068-40.324 59.875-22.298 22.219-45.927 43.078-69.599 63.808-28.859 25.261-58.638 47.352-84.122 76.168-45.582 51.519-83.683 115.677-142.335 153.963-35.375 23.1-74.742 29.01-114.088 25.55-15.58-1.37-19.32-23.15-21.284-35.85-3.265-21.098-3.675-42.562-6.186-63.748-2.352-19.833-7.574-38.675-11.782-58.123-4.258-19.705-5.452-39.894-8.588-59.733-1.942-12.317-3.863-26.651-12.358-36.553-8.79-10.251-23.291-14.547-35.965-17.809-23.801-6.07-86.833-5.735-89.207-38.618z"/><path d="M57.13 707.639c-5.65-42.772-13.559-96.046 9.456-135.453 18.812-32.221 58.933-39.172 87.589-60.167 23.835-17.459 32.838-45.227 44.67-71.031 9.708-21.166 19.466-42.424 31.233-62.565 8.923-15.275 20.423-35.986 38.141-41.314 15.149-4.554 32.263 15.844 40.661 25.996 14.3 17.303 25.958 36.69 37.537 55.82 18.942 31.304 36.372 64.742 63.33 90.205 26.196 24.709 57.314 39.294 89.014 55.693 24.282 12.564 48.412 25.612 71.29 40.595 17.566 11.497 39.336 25.121 48.49 44.252 7.916 16.499-12.407 36.028-22.561 47.668-16.768 19.209-35.378 36.831-53.73 54.525-19.805 19.088-41.74 36.697-60.904 56.255-40.301 41.157-72.498 86.725-122.169 118.257-32.169 20.426-75.456 38.98-113.483 35.644-27.347-2.405-25.548-62.323-28.174-81.469-4.318-31.303-12.659-64.194-25.908-93.029-11.378-24.709-38.415-32.328-63.287-37.87-15.58-3.479-31.91-5.358-46.979-10.736-17.444-6.233-21.849-13.347-24.216-31.276z"/><path d="M76.044 687.591c-3.364-36.162-2.608-78.924 19.18-110.206 19.095-27.4 53.091-34.613 77.271-56.198 18.871-16.839 26.282-44.296 36.431-66.565 12.403-27.229 29.783-77.519 61.071-87.765 29.106-9.526 59.545 51.324 70.082 69.469 16.682 28.72 30.633 60.216 50.865 86.738 17.424 22.833 40.768 35.455 65.545 49.02 31.591 17.324 79.553 37.867 96.444 71.631 12.59 25.16-28.35 62.563-42.331 79.995-14.621 18.209-25.634 39.794-40.723 57.361-23.812 27.721-62.397 50.04-94.255 67.072-30.971 16.568-71.191 34.906-106.325 33.814-23.092-.713-27.486-36.019-32.412-53.265-7.059-24.517-16.444-46.487-36.604-63.162-20.521-16.975-44.707-24.974-70.133-31.974-13.051-3.567-27.939-6.35-39.615-13.557-12.9-7.841-13.195-18.509-14.491-32.408z"/><path d="M99.089 666.747c.186-31.241 7.402-64.556 28.796-88.654 17.819-20.073 45.711-26.782 62.769-47.302 13.511-16.246 20.389-39.052 29.435-57.917 11.063-23.119 26.707-63.505 54.218-71.529 26.851-7.81 50.6 36.673 60.895 54.275 15.077 25.81 27.282 53.167 42.495 78.905 11.917 20.194 26.491 33.208 45.897 46.223 22.78 15.287 54.563 32.221 66.732 57.513 8.773 18.311-12.464 47.571-20.174 63.703-5.169 10.835-9.9 21.841-12.499 33.585-2.025 9.145-2.226 17.608-8.091 25.461-14.768 19.753-47.147 22.331-69.116 28.842-29.177 8.641-60.134 18.46-90.667 20.335-18.767 1.171-28.344-15.947-39.056-27.989-12.657-14.237-30.577-24.475-46.228-35.218-20.654-14.2-43.133-23.033-66.387-32.079-10.489-4.083-22.808-8.087-30.935-16.203-8.486-8.414-8.149-20.676-8.084-31.951z"/><path d="M123.293 648.2c3.709-26.238 15.265-51.316 34.784-69.864 14.962-14.241 34.834-22.258 46.842-39.369 11.19-15.949 18.987-34.085 28.23-51.138 9.781-18.028 24.312-48.162 46.871-53.068 24.312-5.283 43.041 25.114 53.411 41.961 13.101 21.289 23.055 44.195 34.769 66.219a186.373 186.373 0 0033.396 44.537c13.964 13.821 32.901 27.057 39.965 46.062 6.245 16.832-5.44 37.196-7.503 54.264-2.206 18.235 1.66 37.389-10.571 53.046-25.225 32.291-88.532 26.303-124.724 26.993-35.711.712-64.422-19.047-93.319-37.844-19.088-12.411-38.966-22.921-58.535-34.484-19.95-11.798-26.878-24.223-23.616-47.315z"/><path d="M145.781 633.182c10.966-38.011 45.217-58.215 69.703-86.941 20.034-23.517 35.056-72.218 68.796-78.66 38.306-7.312 61.238 57.217 74.556 82.116 14.777 27.615 41.096 50.077 52.041 79.309 5.753 15.343.813 29.66-2.251 44.996-3.358 16.84-5.882 34.057-17.474 47.611-22.817 26.674-67.379 26.489-99.473 27.223-33.222.762-62.612-17.517-89.082-35.76-28.073-19.32-68.048-40.912-56.816-79.894z"/><path d="M164.149 622.875c12.357-27.082 38.324-49.1 59.394-69.884 17.587-17.328 36.506-52.21 63.321-54.696 31.515-2.933 50.615 34.315 63.016 57.154 12.204 22.442 29.791 46.138 36.549 70.77 7.048 25.658-11.72 60.214-29.618 78.371-19.962 20.246-52.622 27.726-80.646 26.919-29.342-.822-56.265-17.554-78.487-34.91-23.758-18.553-47.9-42.285-33.529-73.724z"/><path d="M181.192 617.776c11.803-22.525 32.264-41.58 51.129-58.577 14.558-13.122 36.041-35.434 57.045-35.981 23.107-.603 42.69 18.126 51.876 37.323 9.055 18.934 18.597 42.673 19.952 63.445 2.944 45.235-56.987 95.906-101.989 91.783-42.668-3.91-101.548-53.113-78.013-97.993z"/><path d="M196.954 615.293c16.283-29.349 55.836-71.189 92.454-72.183 42.031-1.136 52.583 45.425 47.104 79.167-5.565 34.437-54.024 84.284-92.664 77.548-37.713-6.572-66.192-49.726-46.894-84.532z"/><path d="M213.595 610.547c13.787-24.573 43.207-55.266 73.891-56.195 36.561-1.099 35.871 38.21 27.58 62.677-8.621 25.403-46.59 68.791-78.603 61.94-31.13-6.688-36.08-44.87-22.868-68.422z"/><path d="M228.09 607.719c9.101-17.534 31.876-39.695 53.528-40.404 26.465-.852 21.32 30.326 14.482 45.375-8.127 17.907-35.37 49.021-58.232 43.978-22.509-4.963-17.285-34.502-9.778-48.949zM1473.03 1609.55c-58.57 35.18-124.79 64.22-187.24 93.73-91.25 43.13-183.85 85.1-279.74 117.23-51.409 17.21-118.024 42.04-173.186 28.55-20.168-4.93-38.56-19.85-56.643-29.54-24.935-13.36-50.237-26.06-75.495-38.79-50.668-25.52-101.494-50.78-151.292-77.93-23.979-13.08-47.246-29.55-72.21-40.71-14.588-6.52-32.046-3.47-47.634-3.06-36.108.96-72.194 2.79-108.281 4.34-44.14 1.89-88.38 3.9-132.57 3.16-19.93-.35-68.743 3.15-79.715-13.84-5.903-9.15 8.009-25.65 14.459-33.28 11.842-14.04 25.452-26.68 38.883-39.2 31.061-28.94 64.049-56.51 91.659-88.84 14.186-16.62 32.772-36.93 23.511-59.62-9.347-22.92-25.539-42.77-35.418-65.61-11.375-26.28-16.091-53.63-21.462-81.5-3.976-20.6-13.237-38.86-21.944-57.85-9.62-20.99-19.586-42.16-26.265-64.29-4.415-14.62-11.54-40.93 3.904-50.19 21.944-13.16 63.092-2.5 88.106 1.38 34.57 5.35 68.888 12.16 103.364 18.03 25.028 4.27 50.143 8.95 75.589 9.45 41.019.81 82.174-1.98 123.085-4.57 75.754-4.79 150.966-11.3 226.975-11.3 66.592 0 220.48 76.26 256.5 89.69 71.9 26.8 145.72 52.21 213.76 87.88 18.4 9.65 46.73 22.52 56.42 42.39 5.97 12.25 3.22 19.33 17.32 27.22 19.22 10.76 43.86 14.99 65.14 19.81 34.27 7.75 68.81 14.32 103.25 21.34 69.64 14.17 138.81 30.19 208.16 45.61 20.97 4.66 46.33 5.7 66.32 13.91 12.89 5.27 11.55 11.91 1.58 19.92-17.5 14.06-42.01 21.87-62.68 29.89-30.28 11.74-61.05 22.22-91.84 32.56-30.78 10.33-61.73 20.34-92.53 30.69-20.35 6.82-43.55 12.36-61.84 23.34z"/><path d="M1424.83 1601.81c-61.96 35.25-130.74 63.34-197.05 90.73-84.86 35.09-171.64 67.98-261.052 89.91-52.498 12.87-114.439 27.08-168.081 12.32-19.137-5.27-33.434-17.1-49.838-27.55-18.698-11.92-38.115-22.84-57.532-33.6a3624.265 3624.265 0 00-121.178-64.13c-21.618-10.96-45.415-25.65-69.837-29.46-19.417-3.02-41.474 1.36-60.978 2.63-35.123 2.3-70.239 4.66-105.377 6.67-40.546 2.32-81.207 4.46-121.84 4.09-22.646-.21-61.524 3.2-77.539-11.28-13.973-12.64 36.9-58.36 45.846-67.05 27.939-27.12 57.324-52.94 83.329-81.94 15.368-17.11 34.08-37.91 40.56-60.57 5.516-19.32-5.128-41.33-11.413-59.19-7.86-22.37-14.203-45.55-23.337-67.45-8.133-19.51-21.078-36.89-32.448-54.63-12.506-19.51-25.17-39.34-34.455-60.62-5.688-13.1-15.102-35.03-3.797-47.52 13.06-14.39 53.318-4.98 69.866-2.93 33.57 4.22 66.882 10.49 100.222 16.1 55.375 9.32 108.168 17.48 164.557 15.52 73.433-2.55 146.794-8.55 220.213-11.87 27.112-1.24 54.656-3.73 81.789-2.39 15.556.78 27.4 5.48 36.447 16.09 12.355 14.48 40.812 22.5 60.603 30.81 30.859 12.95 62.107 24.99 93.27 37.19 68.4 26.79 138.13 52.61 203 87.27 20.53 10.96 44.03 23.18 59.21 41.28 8.47 10.1 6.34 19.83 11.51 30.56 6.84 14.11 29.35 20.48 42.81 25.1 25.97 8.92 53 14.9 79.82 20.5 60.7 12.67 121.54 21 183.22 27.14 14.46 1.42 71.38 6.36 41.48 30.16-33.03 26.3-80.72 39.19-119.61 54.01-35.03 13.33-70.09 25.73-102.39 44.1z"/><path d="M1339.2 1595.29c-58.24 31.02-122.76 54.15-185.49 76.29-76.12 26.85-154.145 50.79-233.978 64.2-50.15 8.42-105.441 14.89-155.253.9-34.017-9.55-60.33-35.36-90.207-53.12-29.877-17.75-60.964-34.42-92.979-48.32-19.87-8.62-41.245-17.31-63.354-16.17-53.757 2.76-107.45 9.34-161.264 12.54-35.601 2.13-71.273 3.89-106.982 3.36-21.533-.31-51.115.97-70.179-10.24-21.072-12.4 91.129-118.28 101.734-130.2 26.587-29.88 58.782-69.54 53.642-112.03-4.918-40.63-26.228-70.95-50.331-102.78-13.678-18.11-57.544-66.48-41.288-90.03 9.287-13.46 39.899-8.8 54.441-7.88 28.661 1.8 57.163 5.69 85.672 9.06 41.569 4.89 84.282 12.44 126.031 14.65 29.071 1.53 58.314-.52 87.435-.56 41.756-.06 83.512.25 125.268.62 35.061.32 70.417 0 105.355 3.33 21.72 2.05 38.207 6.65 53.786 19.66 13.556 11.31 34.009 17.93 51.288 25.13 28.538 11.87 57.45 22.88 86.273 34.06 60.33 23.42 121.36 46.35 179.11 75.62 26.37 13.36 70.69 32.05 76.88 64.43 2.23 11.68 3.87 16.72 15.39 23.36 16.35 9.42 35.93 13.67 54.28 17.36 42.76 8.61 86.76 7.32 129.45 15.83 17.39 3.5 40.09 11.07 20.24 28.41-23.16 20.26-56.87 31.41-84.62 43.93-13.85 6.24-28.12 12.09-41.27 19.72-10.1 5.88-18.75 13.41-29.08 18.87z"/><path d="M1228.89 1585.61c-53.81 25.19-112.25 43.5-169.64 60.01-63.741 18.32-129.021 33.49-195.165 39.94-45.672 4.47-94.334 5.79-138.662-7.89-28.033-8.66-47.038-26.87-71.161-42.14-36.406-23.08-75.796-41.36-119.535-36.91a2913.237 2913.237 0 01-147.59 11.2c-29.772 1.51-59.659 2.63-89.468 1.59-18.847-.66-43.127-1.77-59.523-10.22-21.938-11.31 60.465-97.43 70.736-109.99 25.474-31.12 44.149-63.79 55.06-102.35 8.899-31.48-9.28-56.21-28.033-79.76-11.659-14.62-49.331-51.39-37.535-70.37 6.469-10.47 27.788-9.93 39.239-10.46 21.822-1.01 43.738.04 65.561.51 32.223.71 66.524-4.19 98.474-.25 70.809 8.73 141.437 16.29 212.684 22.27 39.275 3.3 78.787 6.29 117.709 12.65 13.974 2.28 28.407 4.7 41.647 9.86 8.518 3.32 13.161 8.97 20.349 13.6 34.272 22.07 79.01 33.42 117.613 47.56 51.31 18.8 102.9 37.31 152.85 59.51 26.27 11.69 62.96 25.11 81.04 48.95 5.46 7.2 3.14 12.96 6.57 19.89 3.95 7.98 15.97 10.37 23.72 12.59 17.6 5.06 91.29 12.7 57.33 42.36-16.2 14.13-36.84 23.19-55.11 34.3-6.61 4.02-13.06 8.06-18.57 13.49-9.22 9.1-18.31 14.29-30.59 20.06z"/><path d="M1111.35 1574.71c-106.23 40.75-230.719 68.51-346.531 63.13-38.513-1.79-79.95-7.78-113.335-28.29-19.685-12.11-35.416-25.78-59.062-30.16-17.071-3.15-35.452.43-52.623 1.73-24.871 1.88-49.757 3.56-74.664 4.92-30.878 1.66-61.857 2.94-92.793 2.26-22.105-.49-52.63.06-71.832-11.69-22.927-14.02 35.43-79.8 43.641-91.51 19.901-28.41 33.853-55.93 38.895-90.16 1.484-9.98 6.482-20.2 5.834-30.25-.677-10.27-7.066-19.41-12.965-27.48-7.714-10.58-34.479-35.68-26.816-48.58 4.235-7.12 20.132-8.02 28.372-9.53 15.457-2.85 31.137-4.38 46.688-6.65 26.383-3.86 52.58-16.43 79.057-16.08 71.199.94 143.428 22.8 213.2 34.81 41.481 7.16 83.242 13.65 124.219 23.35 12.965 3.07 26.318 6.25 38.642 11.46 8.6 3.63 14.125 10.11 22.091 14.17 30.547 15.63 65.674 25.11 98.476 35.63 42.586 13.67 85.306 26.94 127.596 41.5 26.51 9.13 60.59 17.16 83.43 34.09 16.68 12.36 5.28 16.05-3.52 27.57-4.5 5.87-3.46 11.65-5.41 18.3-2.79 9.49-10.67 16.32-18.06 22.46-10.19 8.49-23.77 15.48-32.1 25.88-2.94 3.66-2.8 8.21-5.18 11.4-6.92 9.29-25.26 13.88-35.25 17.72z"/><path d="M998.409 1560.19c-86.214 25.62-182.142 40.21-273.274 33.44-31.708-2.36-63.609-7.84-93.145-19.88-13.438-5.46-23.526-11.55-38.25-11.87-34.167-.76-68.441 1.89-102.6 2.52-24.446.46-49.014.62-73.402-1.33-16.307-1.29-38.358-2.85-51.717-12.75-19.413-14.41 15.631-63.42 22.763-76.97 11.821-22.45 23.547-47.42 18.859-73.4-1.438-7.95-3.983-14.97-4.314-23.07-.316-6.96.568-13.39-1.926-20.05-3.085-8.25-16.803-21.06-12.087-28.66 3.214-5.18 12.748-5.43 19.09-7.09a193.104 193.104 0 0030.025-10.56c10.209-4.59 18.902-11.68 29.478-15.47 17.17-6.15 36.388-6.72 54.435-6.7 72.007.12 144.927 14.18 215.107 28.88 36.546 7.66 73.294 15.82 108.812 27.43 10.785 3.53 23.008 7.07 32.491 13.58 5.918 4.06 9.93 9.14 16.652 12.19 57.426 26.04 123.814 35.71 184.784 54.52 15.86 4.89 103.8 29.63 57.82 52.9-27.93 14.14-57.44 20.57-82.93 39.91-7.77 5.88-12.94 10.75-15.98 19.72-2 5.97 2.81 2.94-3.9 9.19-8.15 7.5-26.75 10.53-36.791 13.52z"/><path d="M908.767 1545.04c-100.938 20.91-207.83 21.91-310.361 3.37-25.847-4.67-52.746-3.56-78.911-4.74-25.421-1.14-70.62 1.23-89.084-18.12-13.389-14.03 1.139-43.84 6.164-59.53 6.403-19.99 11.998-40.64 1.486-60.05-6.158-11.37-14.593-22.19-21.197-33.46-3.158-5.38-9.661-13.62-6.95-18.71 4.484-8.41 25.465-11.95 35.645-15.91 32.538-12.67 66.993-15.91 101.781-15.82 64.253.17 128.839 8.87 191.867 20.66 28.997 5.43 58.399 11.22 86.366 20.66 15.825 5.34 27.498 15.63 42.61 21.74 48.659 19.67 100.937 30.18 150.437 48.16 14.32 5.21 67.83 22.55 40.87 42.99-26.09 19.79-64.163 17.44-91.3 36.06-3.072 2.13-6.871 4.68-8.652 8.13-1.053 2.06.8 5.98 0 7.15-8.335 12.74-37.96 14.77-50.771 17.42z"/><path d="M843.37 1531.22c-51.783 7.03-104.705 8.77-157.361 9.21-28.782.25-60.404 2.06-88.567-5.16-17.299-4.44-34.008-8.33-51.841-11.13-19.188-3.01-50.082-5.21-61.766-21.54-8.729-12.21-2.747-37.31-2.43-52.16.339-16.28-3.034-28.36-14.647-40.01-7.301-7.34-40.798-33.97-36.927-41.65 3.683-7.32 27.023-8.44 37.115-10.34 31.896-6.03 64.217-8.13 96.661-7.8 50.248.5 100.684 5.57 150.146 14.29 20.45 3.62 41.584 7.37 61.118 14.61 13.155 4.88 24.126 13.53 37.194 18.57 37.425 14.47 76.998 24.29 114.552 39.03 12.053 4.73 51.323 17.34 41.909 36.78-7.85 16.22-34.549 21.16-47.668 32.03-22.316 18.55-49.03 21.41-77.488 25.27z"/><path d="M810.748 1521.89c-41.078 4.66-83.111 6.69-124.792 6.79-26.899.06-55.278.43-81.675-5.56-13.259-3-24.781-10.02-37.33-15.03-12.922-5.16-30.755-10.91-36.34-22.72-5.248-11.1-3.288-27.3-7.897-40.69-4.099-11.87-12.678-19.21-21.917-27.24-5.887-5.13-36.117-27.34-32.621-32.24 3.747-5.26 21.903-4.83 31.35-5.55a734.944 734.944 0 0178.251-1.95c35.622 1.08 71.516 4.1 106.521 10.93 24.832 4.84 43.562 16.37 66.714 24.83 29.994 10.98 61.064 19.66 90.77 31.67 14.803 5.99 36.714 13.69 44.295 29.14 2.914 5.92 5.743 20.98 2.498 26.9-3.898 7.11-18.407 10.13-25.256 11.96-17.157 4.56-35.112 6.78-52.571 8.76z"/></g></svg>