<?xml version="1.0" standalone="no"?>
<!DOCTYPE svg PUBLIC "-//W3C//DTD SVG 1.1//EN" "http://www.w3.org/Graphics/SVG/1.1/DTD/svg11.dtd">
<svg xmlns="http://www.w3.org/2000/svg">
<metadata>Copyright (C) 2018 by original authors @ fontello.com</metadata>
<defs>
<font id="fontello" horiz-adv-x="1000" >
<font-face font-family="fontello" font-weight="400" font-stretch="normal" units-per-em="1000" ascent="850" descent="-150" />
<missing-glyph horiz-adv-x="1000" />
<glyph glyph-name="envelope" unicode="&#xe800;" d="M911-43c22 0 42 8 58 22l-283 284c-7-5-13-10-20-15-21-15-38-27-51-36-13-9-31-18-53-27-22-9-42-14-61-14h-2c-18 0-39 5-61 14-22 9-39 18-53 27-13 9-30 21-51 36-6 5-13 10-20 15l-283-284c16-14 36-22 58-22h822z m-855 484c-21 14-40 30-56 49v-431l250 249c-50 35-115 79-194 133z m888 0c-76-51-140-96-194-133l250-250v432c-16-18-35-34-56-49z m-33 302h-822c-28 0-50-10-66-29-15-19-23-44-23-73 0-23 10-48 31-76 20-27 42-49 65-64 13-9 51-36 114-80 35-24 65-44 90-62 22-15 41-29 57-40 1-1 4-3 8-6 4-2 9-6 15-11 12-8 22-15 30-21 8-5 18-11 30-18 11-7 22-12 32-15s19-5 28-5h1c8 0 17 2 28 5 10 3 20 8 32 15 11 7 21 13 29 18 8 6 18 13 30 21 6 5 11 9 15 11 4 3 7 5 8 6 13 9 32 22 57 40 46 32 114 79 205 142 27 19 49 42 68 68 18 27 27 55 27 85 0 24-9 45-26 63-18 17-39 26-63 26z" horiz-adv-x="1000" />

<glyph glyph-name="coin-stack" unicode="&#xe801;" d="M291 279c28 0 55 2 81 5v282c-26 3-53 5-81 5-161 0-291-59-291-132v-28c0-73 130-132 291-132z m0-147c28 0 55 2 81 5v83c-26-4-53-6-81-6-140 0-257 45-285 105-4-8-6-18-6-27v-28c0-73 130-132 291-132z m81-66v7c-26-4-53-6-81-6-140 0-257 45-285 105-4-9-6-18-6-27v-28c0-73 130-132 291-132 32 0 63 2 91 6-7 15-10 31-10 47v28z m338 728c-161 0-291-59-291-131v-29c0-73 130-132 291-132 160 0 290 59 290 132v29c0 72-130 131-290 131z m0-356c-141 0-257 45-285 104-4-8-6-17-6-27v-28c0-73 130-132 291-132 160 0 290 59 290 132v28c0 10-2 19-6 27-28-59-144-104-284-104z m0-147c-141 0-257 44-285 104-4-8-6-17-6-27v-28c0-73 130-132 291-132 160 0 290 59 290 132v28c0 10-2 19-6 27-28-60-144-104-284-104z m0-156c-141 0-257 45-285 105-4-8-6-18-6-27v-28c0-73 130-132 291-132 160 0 290 59 290 132v28c0 9-2 19-6 27-28-60-144-105-284-105z m0-147c-141 0-257 45-285 105-4-9-6-18-6-27v-28c0-73 130-132 291-132 160 0 290 59 290 132v28c0 9-2 18-6 27-28-60-144-105-284-105z" horiz-adv-x="1000" />

<glyph glyph-name="delivery-truck" unicode="&#xe802;" d="M35 233v426c0 23 19 42 43 42h425c24 0 43-19 43-42v-426c0-8-6-14-14-14h-483c-7 0-14 6-14 14z m344-146c0-49-40-88-89-88s-89 39-89 88c0 49 40 89 89 89s89-40 89-89z m-45 0c0 25-20 45-44 45s-45-20-45-45 20-44 45-44 44 20 44 44z m-121 89h-199c-8 0-14-6-14-14v-43c0-8 6-15 14-15h160c4 29 18 54 39 72z m630-89c0-49-40-88-89-88s-88 39-88 88c0 49 39 89 88 89s89-40 89-89z m-44 0c0 25-20 45-45 45s-44-20-44-45 20-44 44-44 45 20 45 44z m201 75v-43c0-8-6-15-14-15h-116c-8 57-57 101-116 101-59 0-107-44-116-101h-232c-4 29-19 54-40 72h221v408c0 16 13 29 28 29h135c38 0 73-19 95-50l87-129c12-19 19-41 19-64v-194h35c8 0 14-6 14-14z m-145 269l-69 98c-3 4-7 6-12 6h-108c-8 0-14-6-14-14v-99c0-7 6-14 14-14h178c11 0 18 13 11 23z" horiz-adv-x="1000" />

<glyph glyph-name="diamond" unicode="&#xe803;" d="M500-74c-4 0-9 2-12 5l-484 576c-5 5-5 13-1 19l182 242c3 4 7 6 12 6h606c5 0 9-2 12-6l182-242c4-6 4-14-1-19l-484-576c-3-3-7-5-12-5z m-465 591l465-553 466 553-170 227h-591l-170-227z m950-15h-970c-8 0-15 6-15 15s7 15 15 15h970c8 0 15-7 15-15s-7-15-15-15z m-485-576c-1 0-3 0-4 0-8 3-13 11-10 19l181 576c3 8 12 13 19 10 8-2 13-11 10-19l-181-576c-3-6-9-10-15-10z m0 0c-6 0-12 4-14 10l-182 576c-3 8 2 17 10 19 8 3 16-2 19-10l181-576c3-8-1-16-9-19-2 0-3 0-5 0z m-182 576c-5 0-11 3-13 8l-122 242c-3 8 0 17 7 21 8 3 17 0 21-7l121-243c4-7 0-16-7-20-2-1-4-1-7-1z m0 0c-3 0-6 1-9 3-7 5-8 14-3 21l182 242c5 7 14 8 21 3 7-5 8-14 3-21l-182-242c-3-4-7-6-12-6z m364 0c-5 0-9 2-12 6l-182 242c-5 7-4 16 3 21 7 5 16 4 21-3l182-242c5-7 4-16-3-21-3-2-6-3-9-3z m0 0c-2 0-5 0-7 1-7 4-10 13-7 21l122 242c3 7 12 10 20 7 7-4 10-13 7-21l-122-242c-2-5-8-8-13-8z" horiz-adv-x="1000" />

<glyph glyph-name="discuss-issue" unicode="&#xe804;" d="M765 591c0-31-22-49-38-62-6-6-17-15-17-18 0-14-11-25-25-25 0 0 0 0 0 0-14 0-25 11-25 24 0 27 19 43 35 56 12 11 21 18 21 25 0 13-11 24-25 24-14 0-25-11-25-24 0-14-11-25-24-25s-25 11-25 25c0 41 33 74 74 74 41 0 74-33 74-74z m-80-128c-13 0-24-11-24-25v0c0-14 11-25 24-25s25 12 25 25-11 25-25 25z m-499-173c-14 0-25-11-25-24s11-25 25-25h2c13 0 25 11 25 25s-12 24-25 24h-2z m86 0c-14 0-25-11-25-24s11-25 25-25h2c14 0 25 11 25 25s-11 24-25 24h-2z m728 396v-279c0-66-53-119-119-119h-322c-6 0-11 0-15 0-5 0-10 0-12 0-2-2-7-6-12-11-2-2-4-4-7-6l-91-83c-7-6-18-8-26-4-9 4-16 13-16 23v262h-260c-38 0-70-31-70-70v-279c0-39 32-69 70-69h360c6 0 12-3 16-7l74-69v236c0 14 11 25 25 25s25-11 25-25v-292c0-10-6-19-15-23-3-1-6-1-10-1-6 0-12 2-16 6l-109 100h-350c-66 0-120 53-120 119v279c0 66 54 120 120 120h260v167c0 66 55 119 121 119h380c66 0 119-53 119-119z m-50 0c0 39-30 70-69 70h-380c-39 0-71-31-71-70v-423l50 45c2 2 5 4 6 6 23 21 29 24 59 23 4 0 9 0 14 0h322c39 0 69 32 69 70v279z" horiz-adv-x="1000" />

<glyph glyph-name="engineer" unicode="&#xe805;" d="M950 20c-99 53-176 82-244 94l7 9c4 4 5 9 4 14l-16 62c41 59 66 132 66 201v67h50c10 0 16 6 16 16s-6 17-16 17h-17v17c0 131-87 243-217 280v3c0 27-21 50-50 50h-66c-27 0-50-22-50-50v-3c-130-37-217-149-217-280v-17h-17c-10 0-16-7-16-17s6-16 16-16h50v-67c0-69 25-142 66-201l-16-62c0-4 0-10 4-14l7-9c-68-12-144-41-244-94-32-15-50-47-50-82v-71c0-10 7-17 17-17h966c10 0 17 7 17 17v71c0 34-20 65-50 82z m-460 15l10 23 25-55 16-36h-81l30 68z m-43-102h106l9-50h-125l10 50z m228 234l7-30-17-24c-1-1-2-2-3-3l-70-96-22-30-45 101c54 7 102 33 141 72 0 1 1 1 1 1 0 1 0 1 0 1 3 2 6 5 8 8z m-22 561c2-1 4-2 6-4 21-15 41-34 56-54l-77-15 15 73z m-291-73l-77 15c15 20 35 39 56 54 2 2 4 3 6 4l15-73z m-129-138c0 44 12 86 32 122l115-22c2 0 2 0 3 0 5 0 9 1 14 3 5 3 6 10 5 15l-23 111c12 6 25 11 38 15v-44c0-10 6-17 16-17s17 7 17 17v83c0 8 7 17 17 17h66c9 0 17-7 17-17v-83c0-10 7-17 17-17s16 7 16 17v44c14-4 27-9 39-15l-22-109c0-5 2-12 5-15s7-5 12-5c1 0 1 0 3 0l115 24c20-37 32-79 32-124v-17h-534v17z m34-50h466v-67c0-73-25-137-62-186l-1-1c-2-1-3-3-5-5-8-11-17-21-26-30-40-37-86-59-132-61-2 1-4 1-7 1-3 0-5 0-7-1-28 1-56 10-83 25-27 15-52 38-75 66-2 2-3 4-5 5l-1 1c-37 49-62 113-62 186v67z m208-382l-45-101-22 30-70 96c0 1-1 1-1 2l-19 25 7 30c2-3 5-5 7-7 39-40 88-68 143-75z m-442-147c0 22 12 42 32 52 106 56 183 85 251 93l99-137-12-63h-370v55z m934-55h-370l-12 63 100 139c68-10 146-39 250-93 20-12 32-32 32-54v-55z" horiz-adv-x="1000" />

<glyph glyph-name="heart-empty" unicode="&#xe806;" d="M927 705c-49 56-118 87-193 87-105 0-172-63-209-116-10-14-18-27-25-40-7 13-15 26-25 40-37 53-104 116-209 116-75 0-144-31-193-87-47-53-73-125-73-201 0-84 33-161 102-244 63-74 152-150 256-239 39-33 79-67 121-104l2-2c5-4 12-7 19-7s14 3 19 7l2 2c42 37 82 71 121 104 104 89 193 165 256 239 70 83 102 160 102 244 0 76-26 148-73 201z m-323-639c-33-29-68-58-104-90-36 32-70 61-104 90-203 173-337 287-337 438 0 62 20 120 58 162 38 43 91 67 149 67 80 0 132-49 161-91 27-37 40-75 45-89 4-12 15-20 28-20s24 8 28 20c5 14 18 52 45 89 29 42 81 91 161 91 58 0 111-24 149-67 38-42 58-100 58-162 0-151-134-265-337-438z" horiz-adv-x="1000" />

<glyph glyph-name="hold" unicode="&#xe807;" d="M895 391c-8 12-20 19-35 19 0 0 0 0 0 0-28 0-62-11-89-29-24-17-59-47-89-100-6-9-15-16-25-18 0 3 0 5 0 8 0 5 0 11 0 18v375c0 37-30 68-68 68s-68-31-68-68v-263c0-4-3-8-8-8s-8 4-8 8v381c0 38-31 68-68 68s-68-30-68-68v-381c0-4-4-8-8-8s-9 4-9 8v305c0 33-26 59-59 59s-59-26-59-59v-338c0-5-4-9-9-9s-8 4-8 9v211c0 33-27 59-60 59-32 0-59-26-59-59l0-460c16-237 162-269 302-269 115 0 220 57 271 149 6 11 24 39 46 72 52 84 97 154 103 166 15 28 31 49 48 62 14 12 23 28 30 41 4 7 8 33-3 51z m-27-36c-7-13-13-22-22-29-20-17-39-41-56-73-6-12-64-103-102-163-21-34-39-62-46-73-46-82-139-133-242-133-179 0-256 69-268 236v459c0 14 11 26 25 26 14 0 26-12 26-26v-211c0-24 19-43 42-43s42 19 42 43v338c0 14 12 26 26 26s25-12 25-26v-305c0-23 19-42 43-42s42 19 42 42v381c0 19 15 34 34 34s34-15 34-34v-381c0-23 19-42 42-42s42 19 42 42v263c0 18 15 34 34 34s34-16 34-34v-375c0-7 0-13 0-18 0-15 0-26 9-34 7-7 16-8 22-8 23 1 45 14 57 36 27 46 58 73 79 88 21 14 49 23 70 23 0 0 0 0 0 0 4 0 5-1 5-2 3-4 4-15 3-19z" horiz-adv-x="1000" />

<glyph glyph-name="home" unicode="&#xe808;" d="M983 395l-151 151v175c0 32-26 58-58 58-31 0-57-26-57-58v-60l-113 113c-56 56-153 56-208 0l-379-379c-23-23-23-59 0-81 22-23 59-23 81 0l379 379c12 12 34 12 46 0l379-379c11-11 26-17 41-17 14 0 29 6 40 17 23 22 23 58 0 81z m-463 189c-11 11-29 11-40 0l-333-333c-5-6-8-13-8-20v-243c0-57 46-104 103-104h165v256h186v-256h165c57 0 103 47 103 104v243c0 7-2 14-8 20l-333 333z" horiz-adv-x="1000" />

<glyph glyph-name="knife" unicode="&#xe809;" d="M948 751l-53 53-821-821c0 0 0 0-1 0l0-1-73-73 31-7c16-4 34-6 52-6 150 0 355 129 609 383l13 13-74 73c34 8 89 25 140 63 4 3 99 83 152 172l1 3c1 1 9 19 44 12l7-2 6 5c2 1 17 12 19 35 2 28-15 61-52 98z m-404-348l69-69c-234-223-329-288-470-332l401 401z m-472-472l20 21c193 50 290 114 546 358l17-18c-246-244-446-368-583-361z m892 720c-43 4-65-19-72-34-50-84-142-162-142-162-60-44-127-56-149-59l-32 32 326 327 28-29c38-37 43-59 42-69 0-2-1-5-1-6z m-275-187c0-15-12-26-26-26s-26 11-26 26c0 14 11 26 26 26s26-12 26-26z m210 209c0-14-12-26-27-26s-26 12-26 26c0 15 12 27 26 27s27-12 27-27z" horiz-adv-x="1000" />

<glyph glyph-name="left-quote" unicode="&#xe80a;" d="M320 389c-25 7-49 11-73 11-37 0-68-9-92-19 23 85 79 230 189 247 10 1 19 9 21 19l25 86c2 7 0 15-4 21s-11 11-18 12c-8 1-17 2-25 2-132 0-264-139-319-337-33-116-42-291 38-401 45-61 110-94 194-98 1 0 1 0 1 0 104 0 196 70 224 171 17 59 9 122-21 176-30 54-80 93-140 110z m650-110c-30 54-80 93-140 110-24 7-49 11-73 11-37 0-68-9-92-19 23 85 79 230 189 247 10 1 19 9 21 19l25 86c2 7 0 15-4 21-4 7-11 11-18 12-8 1-17 2-25 2-132 0-264-139-319-337-33-116-42-291 38-401 45-61 110-94 194-98 1 0 1 0 1 0 104 0 196 70 224 171 17 59 9 122-21 176z" horiz-adv-x="1000" />

<glyph glyph-name="magnifying-glass" unicode="&#xe80b;" d="M991-99l-243 243c65 75 105 173 105 280 0 235-191 426-426 426-236 0-427-191-427-426s192-427 427-427c106 0 204 40 279 105l243-243c6-6 14-9 21-9s16 3 21 9c12 11 12 30 0 42z m-931 523c0 202 164 366 366 366 203 0 367-164 367-366s-164-367-367-367c-202 0-366 164-366 367z" horiz-adv-x="1000" />

<glyph glyph-name="padlock" unicode="&#xe80c;" d="M500 310c-55 0-99-45-99-100 0-27 11-53 31-72v-89c0-38 30-69 68-69s68 31 68 69v89c20 19 31 45 31 72 0 55-44 100-99 100z m35-137c-9-9-15-21-15-34v-90c0-11-9-20-20-20-11 0-20 9-20 20v90c0 13-6 25-15 34-10 10-16 23-16 37 0 29 23 52 51 52s51-23 51-52c0-14-5-27-16-37z m256 267h-72v191c0 121-98 219-219 219-121 0-219-98-219-219v-191h-72c-40 0-72-32-72-72v-446c0-40 32-72 72-72h582c40 0 72 32 72 72v446c0 40-32 72-72 72z m-462 191c0 94 77 171 171 171 94 0 171-77 171-171v-191h-342v191z m486-709v0c0-13-11-24-24-24h-582c-13 0-24 11-24 24v446c0 13 11 24 24 24h582c13 0 24-11 24-24v-446z" horiz-adv-x="1000" />

<glyph glyph-name="phone-circle" unicode="&#xe80d;" d="M500 850c-276 0-500-224-500-500 0-276 224-500 500-500s500 224 500 500c0 276-224 500-500 500z m264-730l-40-40c-7-7-28-11-29-11-126-1-248 49-338 138-90 90-140 212-138 339 0 1 4 21 12 28l40 40c14 15 42 21 62 15l8-3c20-7 41-28 46-48l20-74c6-20-2-49-16-64l-27-26c26-98 103-174 200-200l26 27c15 14 44 22 64 16l74-20c20-5 41-26 48-46l3-8c6-20 0-48-15-63z" horiz-adv-x="1000" />

<glyph glyph-name="question-bubble" unicode="&#xe80e;" d="M536 779c-257 0-465-192-465-429 0-64 15-125 43-180l-110-199c-6-11-5-24 3-34 6-8 15-12 24-12 3 0 6 0 9 1l240 66c74-45 161-71 256-71 256 0 464 192 464 429 0 237-208 429-464 429z m-1-649c-26 0-46 20-46 46s20 46 46 46c25 0 46-21 46-46 0-26-21-46-46-46z m48 219c-6-5-10-8-13-10v-48c0-19-16-35-35-35-20 0-36 16-36 35v52c0 35 25 52 44 65 19 13 33 22 33 50 0 23-19 41-41 41s-41-18-41-41c0-20-16-36-36-36s-35 16-35 36c0 62 50 112 112 112 62 0 112-50 112-112 0-66-40-93-64-109z" horiz-adv-x="1000" />

<glyph glyph-name="heart" unicode="&#xe80f;" d="M998 538c-14 160-128 277-270 277-95 0-182-51-231-133-48 83-131 133-225 133-142 0-256-117-270-277-1-7-6-45 8-106 21-87 69-167 139-231l348-316 354 316c70 64 118 143 139 231 14 61 10 99 8 106z" horiz-adv-x="1000" />

<glyph glyph-name="lock" unicode="&#xe810;" d="M854 475h-62v83c0 161-131 292-292 292s-292-131-292-292v-83h-62c-12 0-21-9-21-21v-521c0-46 37-83 83-83h584c46 0 83 37 83 83v521c0 12-9 21-21 21z m-292-435c1-6-1-12-5-16-4-5-9-7-15-7h-84c-6 0-11 2-15 7-4 4-6 10-5 16l13 118c-22 16-34 40-34 67 0 46 37 83 83 83s83-37 83-83c0-27-12-51-34-67l13-118z m105 435h-334v83c0 92 75 167 167 167s167-75 167-167v-83z" horiz-adv-x="1000" />

<glyph glyph-name="cart" unicode="&#xe811;" d="M299 53c-55 0-100-45-100-100s45-99 100-99 99 45 99 99-44 100-99 100z m-299 797v-100h100l179-378-70-120c-5-15-10-34-10-49 0-55 45-100 100-100h598v100h-578c-5 0-10 5-10 10v5l45 84h368c40 0 70 20 85 50l179 324c10 10 10 15 10 25 0 30-20 49-50 49h-737l-45 100h-164z m797-797c-55 0-100-45-100-100s45-99 100-99 100 45 100 99-45 100-100 100z" horiz-adv-x="1000" />

<glyph glyph-name="star" unicode="&#xe812;" d="M929 489q0-12-15-27l-202-197 48-279q0-4 0-12 0-11-6-19t-17-9q-10 0-22 7l-251 132-250-132q-12-7-23-7-11 0-17 9t-6 19q0 4 1 12l48 279-203 197q-14 15-14 27 0 21 31 26l280 40 126 254q11 23 27 23t28-23l125-254 280-40q32-5 32-26z" horiz-adv-x="928.6" />

<glyph glyph-name="star-empty" unicode="&#xe813;" d="M635 290l170 166-235 34-106 213-105-213-236-34 171-166-41-235 211 111 211-111z m294 199q0-12-15-27l-202-197 48-279q0-4 0-12 0-28-23-28-10 0-22 7l-251 132-250-132q-12-7-23-7-11 0-17 9t-6 19q0 4 1 12l48 279-203 197q-14 15-14 27 0 21 31 26l280 40 126 254q11 23 27 23t28-23l125-254 280-40q32-5 32-26z" horiz-adv-x="928.6" />

<glyph glyph-name="eye" unicode="&#xe814;" d="M477 657c-182 0-347-100-469-262-11-13-11-32 0-45 122-162 287-262 469-262s348 100 470 262c10 13 10 32 0 45-122 162-287 262-470 262z m14-485c-122-7-222 92-214 214 6 100 87 181 187 187 121 8 221-92 214-213-7-100-88-181-187-188z m-7 93c-65-4-119 49-114 115 3 54 47 97 101 101 65 4 119-50 114-115-3-54-47-98-101-101z" horiz-adv-x="1000" />

<glyph glyph-name="right-quote" unicode="&#xe815;" d="M680 311c25-7 49-11 73-11 37 0 68 9 92 19-23-84-79-230-189-247-10-1-19-9-21-18l-24-87c-3-7-1-15 3-21s11-11 18-12c8-1 17-2 25-2 132 0 264 139 319 337 33 116 42 291-38 401-45 61-110 94-194 98-1 0-1 0-1 0-104 0-196-70-224-170-17-60-9-123 21-177 30-54 80-93 140-110z m-650 110c30-54 80-93 140-110 25-7 49-11 73-11 37 0 68 9 92 19-23-84-79-230-189-247-10-1-19-9-21-18l-25-87c-2-7 0-15 4-21 4-7 11-11 18-12 8-1 17-2 25-2 132 0 264 139 319 337 33 116 42 291-38 401-45 61-110 94-194 98-1 0-1 0-1 0-104 0-196-70-224-170-17-60-10-123 21-177z" horiz-adv-x="1000" />

<glyph glyph-name="down-open-big" unicode="&#xe816;" d="M63 570l370-356 372 356q22 26 48 0 26-22 0-48l-396-392q-22-22-48 0l-396 392q-26 26 0 48 24 24 50 0z" horiz-adv-x="866" />

<glyph glyph-name="left-open-big" unicode="&#xe817;" d="M452-20q26-26 0-48-26-26-48 0l-392 394q-24 24 0 50l392 394q22 26 48 0 26-22 0-48l-358-372z" horiz-adv-x="465" />

<glyph glyph-name="right-open-big" unicode="&#xe818;" d="M13-20l358 370-358 372q-26 26 0 48 26 26 48 0l392-394q24-26 0-50l-392-394q-22-26-48 0-26 22 0 48z" horiz-adv-x="465" />

<glyph glyph-name="up-open-big" unicode="&#xe819;" d="M804 130l-372 358-370-358q-26-22-50 0-24 24 0 50l396 390q26 26 48 0l396-390q24-26 0-50-26-22-48 0z" horiz-adv-x="864" />

<glyph glyph-name="paperclip" unicode="&#xe81a;" d="M500 850c-277 0-500-223-500-500s223-500 500-500 500 223 500 500-223 500-500 500z m261-495l-247-248c-34-34-80-52-130-52s-93 18-129 52c-34 34-53 79-53 129s19 94 53 130l275 275c4 5 9 7 16 7s11-2 15-7l32-32c9-9 9-23 0-32l-275-275c-18-18-27-41-27-63s9-48 27-64c34-34 93-34 130 0l248 248c4 4 6 9 6 16 0 13-9 22-22 22-9 0-14-4-16-6l-209-209c-5-5-12-7-16-7s-12 2-16 7l-32 31c-9 9-9 23 0 32l209 209c21 21 50 34 80 34 63 0 113-50 113-113 3-34-9-62-32-84z" horiz-adv-x="1000" />

<glyph glyph-name="cancel" unicode="&#xe81e;" d="M1000 819l-31 31-469-469-469 469-31-31 469-469-469-469 31-31 469 469 469-469 31 31-469 469z" horiz-adv-x="1000" />

<glyph glyph-name="add-contact" unicode="&#xe833;" d="M253 478c74 0 134 60 134 134s-60 135-134 135-135-61-135-135 61-134 135-134z m0 236c56 0 102-46 102-102s-46-102-102-102-102 46-102 102 45 102 102 102z m355-236c74 0 134 60 134 134s-60 135-134 135-135-61-135-135 60-134 135-134z m0 236c56 0 102-46 102-102s-46-102-102-102c-57 0-103 46-103 102s46 102 103 102z m174-417c3-4 8-6 13-6 3 0 7 1 10 3 7 6 8 16 3 23-49 63-122 98-200 98-51 0-100-15-142-43-7-5-9-15-4-22 5-8 15-10 22-5 37 25 79 38 124 38 68 0 132-31 174-86z m-529 118c-140 0-253-113-253-252 0-9 7-16 16-16s16 7 16 16c0 121 99 220 221 220s220-99 220-220c0-9 7-16 16-16s16 7 16 16c0 139-113 252-252 252z m591-150c-86 0-156-70-156-156s70-156 156-156 156 70 156 156-70 156-156 156z m0-280c-68 0-124 56-124 124s56 124 124 124 124-56 124-124-56-124-124-124z m54 140h-38v38c0 9-7 16-16 16s-16-7-16-16v-38h-38c-9 0-16-7-16-16s7-16 16-16h38v-38c0-9 7-16 16-16s16 7 16 16v38h38c9 0 16 7 16 16s-7 16-16 16z" horiz-adv-x="1000" />

<glyph glyph-name="avatar" unicode="&#xe834;" d="M422 311c1 0 2 0 3 0 0 0 1 0 1 0 1 0 2 0 2 0 61 1 110 23 146 63 80 90 67 244 65 259-5 110-57 163-100 188-32 18-70 28-111 29h-2c0 0-1 0-1 0h-1c-23 0-68-4-111-28-44-25-97-78-102-189-2-15-15-169 65-259 36-40 85-62 146-63z m-156 317c0 0 0 1 0 2 7 148 113 164 158 164h1c0 0 1 0 1 0 56-1 151-24 158-164 0-1 0-2 0-2 0-2 15-142-51-217-26-29-61-43-107-44 0 0-1 0-1 0v0c0 0-1 0-1 0-46 1-81 15-106 44-66 74-52 216-52 217z m585-572c0 0 0 0 0 0 0 2-1 4-1 5-1 41-4 137-93 168-1 0-2 0-2 1-94 23-172 77-172 78-13 9-30 6-39-7s-6-30 7-39c3-2 85-60 189-86 48-17 53-69 55-116 0-2 0-4 0-5 0-19-1-48-4-64-34-19-166-85-366-85-199 0-331 66-365 85-3 16-5 45-4 64 0 2 0 3 0 5 1 47 7 99 55 116 103 27 186 84 189 86 13 9 16 27 7 39s-26 16-39 7c-1-1-78-54-172-78-1 0-1-1-2-1-90-31-92-127-94-167 0-2 0-4 0-5 0-1 0-1 0-1 0-11 0-66 11-94 2-5 5-10 10-13 7-4 156-99 405-99s398 95 404 99c5 3 9 8 11 13 10 28 10 83 10 94z" horiz-adv-x="852" />

<glyph glyph-name="chat" unicode="&#xe835;" d="M167 426h216c10 0 17 7 17 16s-7 17-17 17h-216c-10 0-17-7-17-17s7-16 17-16z m433-67h-433c-10 0-17-7-17-17s7-16 17-16h433c9 0 17 7 17 16s-8 17-17 17z m0-100h-433c-10 0-17-7-17-17s7-16 17-16h433c9 0 17 7 17 16s-8 17-17 17z m301 549l-569 1c-54 0-99-44-99-99v-85l-134 0c-55 0-99-45-99-99v-353c0-54 44-98 99-98h101v-167c0-7 4-13 11-16 2-1 4-1 6-1 4 0 9 2 12 6l162 178 277 1c54 0 99 44 99 98v2l87-96c4-4 8-6 13-6 2 0 4 1 6 2 6 2 10 8 10 15v167h18c55 0 99 44 99 99v352c0 55-44 99-99 99z m-168-633c0-37-29-66-65-66l-285-1c-4 0-9-2-12-6l-138-151v140c0 9-7 17-16 17h-118c-36 0-66 29-66 65v353c0 36 30 65 66 65l151 1c0 0 0 0 0 0l418 0c36 0 65-29 65-65v-352z m234 182c0-36-30-66-66-66h-34c-10 0-17-7-17-16v-141l-83 92v301c0 54-45 99-99 99l-401-1v85c0 36 29 66 65 66l569-1c0 0 0 0 0 0 36 0 66-30 66-66v-352h0z" horiz-adv-x="1000" />

<glyph glyph-name="coins" unicode="&#xe836;" d="M1000 500c-2 29-36 51-104 68 3 5 4 10 4 16v116h0c-6 97-404 100-450 100s-444-3-450-100h0v-116c0-32 41-57 102-75-1-3-2-6-2-9h0v-116c-65-17-98-39-100-67h0v-117c0-22 20-40 53-56-2-3-2-7-3-10h0v-117c0-56 125-90 264-106 1 0 2-1 3-1 0 0 0 0 1 0 26-3 54-5 80-7 1 0 1 0 2 0 0 0 1 0 1 0 34-2 68-3 99-3s65 1 99 3c0 0 1 0 1 0 1 0 1 0 2 0 27 2 54 4 80 7 1 0 1 0 1 0 1 0 2 1 3 1 139 16 264 50 264 106v117h0c-1 20-19 37-53 51 2 5 3 10 3 15v109c60 19 100 43 100 75v116h0z m-135-305l-6-5c-9-8-23-16-42-23v79c20 7 36 15 50 23v-69c0-1-1-3-2-5z m-373-78c-2 0-5 0-7 0-6 0-12 0-18 0v83c4 0 9 0 13 1 1 0 2 0 3 0 17 0 34 0 50 1v-83c-3 0-7 0-10-1-10 0-21 0-31-1z m-73 0c-7 0-15 1-22 1-1 0-2 0-3 0-9 0-18 1-27 1v83c16-1 33-1 50-1 1 0 2 0 3 0 4-1 9-1 13-1v-83c-3 0-6 0-9 0-2 0-3 0-5 0z m-301 38c0 0-1 1-1 1v80c15-4 32-8 50-11v-82c-16 4-30 7-43 10-2 1-4 2-6 2z m352-138c4 0 9 0 13 0v-83c-23 0-45 0-66 2v83c16-1 33-1 50-2 1 0 2 0 3 0z m63 0c17 1 34 1 50 2v-83c-21-2-43-2-66-2v83c4 0 9 0 13 0 1 0 2 0 3 0z m134 8v-83c-16-2-33-3-50-4v83c17 1 33 2 50 4z m33 3c17 2 34 5 50 7v-82c-16-2-32-5-50-7v82z m83 13c18 4 35 8 50 12v-81c-14-4-31-8-50-12v81z m-566 0v-81c-19 4-35 8-50 12v81c15-4 32-8 50-12z m33-6c16-2 33-5 50-7v-82c-18 2-34 5-50 7v82z m83-10c17-2 33-3 50-4v-83c-17 1-34 2-50 4v83z m-41 99c-2 1-3 1-5 1-1 0-2 0-4 0v83c17-1 33-3 50-4v-83c-14 1-27 2-41 3z m-42 88v-83c-18 3-34 5-50 8v82c16-3 33-5 50-7z m328-90c-4-1-8-1-11-1v83c17 1 33 3 50 4v-83c-11-1-21-2-32-3-2 0-5 0-7 0z m72 7v83c17 2 34 4 50 7v-82c-16-3-32-5-50-8z m83 96c18 3 35 7 50 11v-80c-14-5-31-9-50-13v82z m-228 76c-12 0-24 1-36 1-1 0-2 0-2 0v84c16-1 33-2 50-2 1 0 2 0 3 0 4 0 9 0 13 0v-84c-8 1-16 1-24 1-1 0-2 0-4 0z m-388 238v81c15-5 32-9 50-12v-81c-2 0-4 1-6 1-9 2-18 4-26 6-7 2-13 3-18 5z m303 45c4 0 9 0 13 0v-84c-22 1-44 1-66 2v83c16 0 33-1 50-1 1 0 2 0 3 0z m63 0c17 0 34 1 50 2v-84c-2 0-5 0-8 0 0 0 0 0-1 0-11-1-22-1-34-1-2 0-3 0-5 0-6-1-12-1-18-1v84c4 0 9 0 13 0 1 0 2 0 3 0z m380-8l-1 0-6-5c-8-7-22-14-39-21v80c20 7 36 14 50 23v-69c0-3-2-6-4-8z m-213-63v82c17 2 34 4 50 7v-82c-16-2-32-5-50-7z m83 14v81c18 3 35 7 50 12v-81c-15-4-31-8-50-12z m-116 64v-82c-16-2-33-3-50-5v83c17 2 33 3 50 4z m-334-82v82c17-1 33-2 50-4v-83c-17 2-33 3-50 5z m-33 86v-82c-3 0-7 0-10 1-2 0-4 1-6 1-10 1-19 3-29 4-1 1-3 1-5 1v82c16-3 33-5 50-7z m179-290c-2 0-4 0-7 0-10 1-21 2-31 3-2 0-4 0-6 1-1 0-1 0-2 0v82c17-1 33-2 50-4v-83c-1 0-2 0-4 1z m-110 12c-6 1-13 2-19 3v82c16-3 33-5 50-7v-82c-10 1-20 2-30 4 0 0 0 0-1 0z m-52 91v-81c-19 4-35 8-50 12v81c15-5 32-9 50-12z m-84 22v-79c-26 10-43 20-48 29l-1 2c0 1-1 1-1 2v69c14-9 31-16 50-23z m400-46c17 0 34 1 50 2v-84c-22-1-44-1-66-2v84c4 0 9 0 13 0 1 0 2 0 3 0z m215-64c-7-1-14-3-22-4-4 0-9-1-13-2-4 0-9-1-13-1v82c17 2 34 4 50 7v-82c0 0-1 0-2 0z m-112-14c-7-1-13-1-19-2v83c17 2 33 3 50 4v-82c-10-1-20-2-30-3 0 0-1 0-1 0z m190 31c-8-2-17-5-26-7-4-1-8-2-13-2-1-1-2-1-4-1v81c18 3 35 7 50 12v-81c-2-1-4-1-7-2z m91 162c-2-11-28-26-73-40v0c-59-19-152-35-269-40-6-1-12-1-18-1-5 0-10 0-15-1-14 0-28 0-42 0s-28 0-42 0c-5 1-10 1-15 1-6 0-12 0-18 1-117 5-210 21-268 40v0c-46 14-71 29-73 40 0 0 0 0 0 1 1 0 2-1 3-1 7-1 14-3 20-4 34-8 70-13 109-18 1 0 1 0 1 0 0 0 0 0 0 0 26-3 54-5 82-7 1 0 1 0 1 0 0 0 0 0 0 0 21-1 41-2 62-3 13 0 26 0 38 0 9 0 18 0 27 0 121 2 233 16 311 39 4 1 7 2 11 3 2 1 4 1 6 2 6 2 12 4 18 6 1 0 1 1 2 1 5 2 10 4 14 5 1 1 3 1 4 2 4 2 9 4 13 6 2 1 3 2 5 3 2 2 4 3 6 4 1 1 2 1 3 2 75-16 95-34 97-41z m-517 268c275 0 414-43 416-68-2-11-27-26-72-40v0c-59-19-152-35-269-40-6-1-12-1-18-1-5 0-10 0-15-1-14 0-28 0-42 0s-28 0-42 0c-5 1-10 1-15 1-6 0-12 0-18 1-117 5-210 21-268 40v0c-46 14-71 29-73 40 2 25 141 68 416 68z m-417-183v69c14-9 31-16 50-23v-80c-32 12-50 24-50 34z m81-231c0 0 1-1 1-1 23-23 70-41 129-54 1-1 3-1 4-1 4-1 9-2 13-3 54-12 119-20 189-24 0 0 0 0 0 0s0 0 0 0c23-1 46-2 69-3 11 0 21 0 31 0 12 0 23 0 35 0 22 1 44 2 65 3 0 0 0 0 0 0 0 0 0 0 0 0 71 4 137 12 193 25-12-7-29-13-49-20v0c-63-19-162-36-288-41-4 0-8 0-12 0-4 0-8 0-12 0-11 0-21 0-32 0-14 0-28 0-42 0-5 0-10 0-15 1-6 0-12 0-18 0-117 5-210 22-268 40v0c-46 14-72 30-73 41 1 6 18 22 80 37z m-81-153v69c14-8 31-16 50-23v-79l-9 4 0-1c-27 11-41 22-41 30z m50-183v69c14-8 31-16 50-23v-80c-32 12-50 25-50 34z m784-34v80c20 7 36 15 50 23v-69c0-9-18-22-50-34z m49 149c-1-11-27-26-72-40v0c-59-18-152-35-269-40-6 0-12-1-18-1-5 0-10 0-15 0-14-1-28-1-42-1s-28 0-42 1c-5 0-10 0-15 0-6 0-12 1-18 1-117 5-209 22-268 40v0c-45 14-70 28-73 39 5-1 10-3 15-5 1 0 1 0 2 0 4-2 9-3 14-4 1-1 3-1 5-2 3-1 5-1 8-2 61-15 138-26 222-31 0 0 0 0 0 0 0 0 0 0 0 0 26-2 52-3 79-3 7 0 14 0 21 0 9 0 19 0 28 0 24 0 48 1 72 3 0 0 0 0 0 0 0 0 0 0 0 0 29 1 57 4 83 7 0 0 0 0 0 0 1 0 1 0 1 0 30 3 58 8 84 12 6 1 11 2 16 4 1 0 2 0 4 0 49 10 91 23 121 40 1 0 3 1 4 2 2 1 4 2 6 4 1 1 3 2 4 3 33-12 42-23 43-27z m1 218v80c20 7 36 14 50 23v-69c0-10-18-22-50-34z" horiz-adv-x="1000" />

<glyph glyph-name="diagram" unicode="&#xe837;" d="M958 736h-915c-24 0-43-20-43-43v-571c0-23 19-43 43-43h343v-77h-91c-11 0-19-8-19-19s8-20 19-20h404c11 0 19 8 19 20s-8 19-19 19h-85v77h344c23 0 42 20 42 43v571c0 23-19 43-42 43z m-383-734h-150v77h150v-77z m386 120c0-2-1-4-3-4h-915c-2 0-4 2-4 4v571c0 2 2 4 4 4h915c2 0 3-2 3-4v-571z m-191 459c-23 0-42-19-42-42 0-6 2-14 4-17l-137-157c-4 2-10 4-16 4s-13-2-19-4l-97 101c0 3 2 5 2 9 0 23-19 43-42 43s-43-20-43-43c0-4 0-6 0-9l-142-143c-4 2-8 2-12 2-23 0-43-20-43-43s20-42 43-42 42 19 42 42c0 6-2 12-3 16l137 137c5-2 11-4 17-4s12 2 17 4l97-103c0-2 0-5 0-7 0-24 19-43 42-43s43 19 43 43c0 3 0 7-2 11l143 160c2 0 6 0 7 0 24 0 43 20 43 43 4 23-16 42-39 42z" horiz-adv-x="1000" />

<glyph glyph-name="imac" unicode="&#xe838;" d="M896 808h-792c-57 0-104-47-104-104v-542c0-57 47-104 104-104h288l-59-104c-7-14-7-29 0-42s21-21 36-21h262c15 0 28 9 36 21s7 28 0 42l-59 104h288c57 0 104 47 104 104v542c0 57-47 104-104 104z m-265-875h-262l70 125h121l71-125z m327 229c0-34-28-62-62-62h-792c-34 0-62 28-62 62v63h916v-63z m0 104h-916v438c0 34 28 62 62 62h792c34 0 62-28 62-62v-438z m-468-125h20c12 0 21 10 21 21s-9 21-21 21h-20c-12 0-21-9-21-21s9-21 21-21z" horiz-adv-x="1000" />

<glyph glyph-name="mail" unicode="&#xe839;" d="M810 156c-4 0-8 2-11 5l-186 174c-6 6-7 16-1 23 7 6 17 6 23 0l186-174c6-6 7-16 0-22-3-4-7-6-11-6z m-620 0c-4 0-8 2-11 6-7 6-6 16 0 22l186 174c6 6 17 6 23 0 6-7 5-17-1-23l-186-174c-3-3-7-5-11-5z m729-161h-838c-45 0-81 36-81 80v550c0 44 36 81 81 81h838c45 0 81-37 81-81v-550c0-44-36-80-81-80z m-838 678c-27 0-49-21-49-48v-550c0-26 22-48 49-48h838c27 0 49 22 49 48v550c0 27-22 48-49 48h-838z m419-404c-21 0-43 7-59 21l-414 362c-7 5-8 16-2 22 6 7 16 8 23 2l414-361c21-18 55-18 76 0l414 360c6 6 16 5 22-1 6-7 5-17-1-23l-414-361c-16-14-38-21-59-21z" horiz-adv-x="1000" />

<glyph glyph-name="phone-call" unicode="&#xe83a;" d="M804-150c-42 0-92 10-147 31-122 46-253 136-372 255s-208 249-254 371c-41 110-41 200 0 242 6 6 12 12 18 19 38 39 82 84 137 82 39-2 77-26 116-74 114-142 63-193 3-252l-11-10c-9-10-28-55 144-226 56-56 103-97 141-122 25-16 67-39 85-22l11 11c58 60 109 111 251-3 48-39 72-77 74-116 2-56-43-99-83-137-6-6-13-12-18-18-21-21-54-31-95-31z m-622 966c-40 0-76-38-108-72-7-6-13-13-19-19-31-31-28-112 8-206 44-117 131-245 246-360s243-202 359-246c95-36 176-39 207-8 6 6 12 12 19 19 35 32 74 70 72 111-1 28-22 59-61 91-119 95-152 61-206 6l-11-11c-26-27-69-21-127 17-40 26-89 68-147 126v0c-142 142-188 229-143 274l10 11c56 54 90 88-5 206-32 39-63 60-91 61-1 0-2 0-3 0z m628-379c-3 0-5 0-7 1-8 3-13 13-9 22 21 53 9 113-31 153-41 41-105 53-158 29-9-4-19 0-23 8-3 9 0 19 9 22 66 30 144 16 196-35 49-50 65-125 38-190-3-6-9-10-15-10z m150-61c-2 0-5 0-7 1-8 4-12 13-9 22 46 113 20 242-67 328-88 89-225 114-339 62-9-3-18 0-22 9-4 8 0 18 8 22 127 57 279 30 377-69 96-96 125-239 74-365-2-6-9-10-15-10z" horiz-adv-x="1000" />

<glyph glyph-name="search" unicode="&#xe83b;" d="M496 612c4 0 10 0 13 0 3 0 0 0-7 0-6 0-9 0-6 0m-254-242c0-2 1-3 1-2 0 1 0 2 0 3 0 1-1 0-1-1m515 0c0-2 0-3 1-2 0 1 0 2 0 3-1 1-1 0-1-1m-428-7c0-2 1-3 1-1 0 1 0 3 0 3 0 1-1 0-1-2m341 1c0-2 0-3 1-2 0 1 0 2 0 3-1 1-1 1-1-1m88-14c0-2 0-3 1-2 0 1 0 3 0 4-1 1-1 0-1-2m-429-13c0-2 1-3 1-2 0 1 0 3 0 4 0 1-1 0-1-2m341-1c0-2 0-2 1-1 0 1 0 2 0 3-1 1-1 0-1-2m87-5c0-2 0-3 1-2 0 1 0 2 0 3-1 1-1 0-1-1m-195-236c1 0 2 0 3 0 1 1 0 1-1 1-2 0-3 0-2-1m-67-7c3-1 7-1 10 0 2 0 0 0-5 0-5 0-7 0-5 0m232-57c2-2 4-4 4-4 1 0-1 2-3 4-2 2-4 4-4 4 0 0 1-2 3-4m48-22c2 0 5 0 6 1 2 0 0 0-3 0-3 0-5 0-3-1m-279 603c4 0 10 0 13 0 3 0 0 0-7 0-6 0-9 0-6 0m-254-242c0-2 1-3 1-2 0 1 0 2 0 3 0 1-1 0-1-1m515 0c0-2 0-3 1-2 0 1 0 2 0 3-1 1-1 0-1-1m-428-7c0-2 1-3 1-1 0 1 0 3 0 3 0 1-1 0-1-2m341 1c0-2 0-3 1-2 0 1 0 2 0 3-1 1-1 1-1-1m88-14c0-2 0-3 1-2 0 1 0 3 0 4-1 1-1 0-1-2m-429-13c0-2 1-3 1-2 0 1 0 3 0 4 0 1-1 0-1-2m341-1c0-2 0-2 1-1 0 1 0 2 0 3-1 1-1 0-1-2m87-5c0-2 0-3 1-2 0 1 0 2 0 3-1 1-1 0-1-1m-195-236c1 0 2 0 3 0 1 1 0 1-1 1-2 0-3 0-2-1m-67-7c3-1 7-1 10 0 2 0 0 0-5 0-5 0-7 0-5 0m232-57c2-2 4-4 4-4 1 0-1 2-3 4-2 2-4 4-4 4 0 0 1-2 3-4m48-22c2 0 5 0 6 1 2 0 0 0-3 0-3 0-5 0-3-1m-291 840c-1 0-5-2-8-2-7-2-27-11-28-13 0 0 0-1-1-1 0 0-3-1-6-3-3-2-6-4-7-4-1 0-4-2-6-3-6-5-22-14-23-14-1 0-2 0-2-1 0-1-14-9-15-9 0 0-2-1-3-2-4-2-17-10-23-13-2-1-3-2-4-2-1-2-14-9-15-9-1 0-1 0-1-1 0 0-1-1-2-1-1-1-6-3-10-6-5-3-11-6-13-7-1-1-3-2-3-3-2-1-15-8-16-8-1 0-1-1-1-1 0-1-1-1-2-2-3-2-18-10-27-16-5-3-10-6-12-7-2-1-4-2-4-2 0 0-1-1-1-1-1 0-3-1-6-3-3-2-6-4-7-4-1-1-4-2-6-4-7-4-23-13-24-13 0 0-1-1-1-1 0-1 0-1-1-1 0 0-3-2-6-4-3-2-6-3-7-4-1 0-4-1-6-3-7-4-23-14-24-14 0 0-1 0-1-1 0 0 0-1-1-1 0 0-3-1-6-3-3-2-6-4-7-4-1 0-3-2-5-3-3-2-17-10-22-13-2-1-3-2-4-2-1-1-13-8-14-8 0 0 0 0 0 0 0-1-2-2-4-4-6-3-20-18-20-20 0 0-1-2-2-3-3-3-11-22-12-28 0-2-1-5-2-8-2-8-2-430 0-438 1-3 2-6 2-8 1-6 9-25 12-28 1-1 2-3 2-3 0-2 14-17 20-20 2-2 4-3 4-3 0-1 0-1 0-1 1 0 13-7 14-8 1 0 2-1 4-2 6-3 19-11 22-13 2-2 4-3 4-3 1 0 15-8 15-9 0 0 1 0 1 0 2 0 18-10 24-14 2-1 5-3 6-3 1-1 4-2 7-4 3-2 6-4 6-4 1 0 1 0 1-1 0 0 1-1 1-1 1 0 17-9 24-13 2-2 5-3 6-4 1 0 4-2 7-4 3-2 6-3 6-3 1 0 1-1 1-1 0-1 1-1 1-1 1 0 17-9 24-14 2-1 5-3 6-3 0 0 4-2 7-4 3-2 5-4 6-4 0 0 1 0 1-1 0 0 0-1 1-1 1 0 14-7 16-8 0-1 2-2 3-3 2-1 8-4 13-7 4-3 9-5 10-6 1 0 2-1 2-1 0-1 0-1 1-1 1 0 14-7 15-9 1 0 2-1 4-2 6-3 19-11 23-13 1-1 3-2 3-2 1 0 15-8 15-9 1 0 2-1 4-2 5-3 19-11 22-13 2-1 4-3 5-3 1 0 4-2 7-4 3-2 6-3 6-3 1 0 1-1 1-1 2-3 24-12 35-15 4-1 30-1 33 0 1 0 5 2 8 2 7 2 27 11 28 13 0 0 0 1 1 1 0 0 3 1 6 3 3 2 6 4 7 4 1 0 3 2 5 3 3 2 17 10 22 13 2 1 3 2 4 2 1 1 14 9 15 9 1 0 1 0 1 0 1 1 7 6 8 6 1 0 14 13 14 14 0 0 1 2 3 4 8 11 13 36 11 51-1 3-1 6-1 6 0 0 0 1 0 1-1 1-1 2-1 3 0 1-1 4-3 6-4 10-5 12-5 12-1 1-2 3-3 5-2 3-6 9-9 15-3 5-6 10-6 11 0 0 0 1-1 1 0 0-1 1-1 2-1 1-3 5-6 10-3 4-6 10-8 13-2 3-3 6-4 7-1 0-1 2-1 2 0 1-1 2-1 2 0 0-2 1-3 4-1 3-10 13-11 13-1 0-2 1-4 2-6 4-17 5-27 3-2 0-3 0-3 0 0 0-1 0-2-1-5-2-29-5-49-5-16 0-25 1-36 3-1 0-3 1-4 1-6 1-9 1-11 2-1 1-2 1-2 1-1 0-8 2-14 4-2 1-7 2-11 4-8 3-27 12-34 17-3 2-7 4-8 4-2 1-3 2-3 3 0 0 0 0-1 0-1 0-7 4-8 6 0 0 0 0-1 0-1 0-16 12-23 17-1 1-4 4-7 7-7 5-23 21-28 28-6 7-8 9-11 12-1 1-2 3-2 3 0 1-1 2-5 6-2 2-3 4-3 5 0 1 0 1-1 1 0 0-1 1-1 2 0 1 0 1-1 1 0 0-1 1-1 2 0 0 0 1-1 1-3 2-28 51-25 51 0 0-1 1-1 2-2 2-4 10-5 15-1 1-2 6-3 11-2 5-3 11-3 13 0 2-1 4-1 5-2 3-3 59-1 70 1 4 1 9 2 11 0 2 1 6 1 8 1 2 1 4 2 6 0 2 1 6 2 10 1 4 2 8 3 10 1 4 4 12 6 17 1 2 3 5 4 8 3 9 17 35 18 36 1 0 1 0 1 1 0 0 6 9 7 10 0 1 2 3 3 5 2 2 4 5 5 6 1 2 4 5 5 7 4 4 28 29 33 33 3 2 5 4 6 4 3 3 9 8 10 8 0 0 3 1 5 3 2 2 4 4 5 4 0 0 2 1 4 2 5 4 38 21 43 22 1 0 3 0 4 1 1 1 5 2 8 3 4 1 9 3 12 4 7 2 19 4 27 5 2 0 4 1 5 1 6 2 43 3 58 2 11-2 20-3 24-4 4-1 6-1 10-2 2 0 7-1 10-2 4-1 8-2 10-3 12-3 53-21 58-26 1-1 5-4 9-6 4-2 8-5 9-6 0-1 2-2 3-3 2-1 4-2 5-3 1-1 4-4 7-6 6-6 30-30 30-31 0-1 2-3 7-9 2-2 3-4 3-4 0-1 1-2 1-2 2-1 10-13 10-14 0 0 2-3 4-7 7-11 20-40 19-43 0 0 1-1 1-2 1-1 1-1 1-1-1 0 0-1 0-2 1 0 1-1 1-1-1 0-1-1 0-1 1-1 2-7 2-8 0 0 0-1 1-2 0-1 1-3 2-6 0-4 0-4 1-6 1-2 4-19 4-23 1-2 1-5 1-7 4-22 1-76-3-84-1-1-1-2-1-2 1 0-1-10-3-16-1-3-3-8-4-11-1-4-3-9-3-10-1-2-2-4-3-6 0-1-2-4-3-7-1-5-5-13-13-28-2-3-4-6-5-7 0 0-1-2-1-2 0-1-7-11-8-11-1 0-1-1-1-2 0-1-1-1-1-2-1 0-3-2-4-4-1-2-3-5-4-5-1-1-3-3-4-5-2-2-6-7-10-11-6-6-14-17-15-20 0-1 0-1 0-1-3-9-1-25 3-30 2-3 10-16 10-17 0 0 0-1 0-1 1 0 2-2 4-5 1-2 5-8 8-14 3-5 6-9 6-10 0-1 1-2 1-3 1-1 7-10 13-20 10-17 30-33 44-36 2 0 4 0 5-1 2-1 26-1 29 0 1 1 4 2 7 3 3 1 11 4 18 8 7 4 14 8 16 9 2 1 4 2 4 3 1 1 14 8 15 8 0 0 2 1 4 3 3 2 17 10 22 13 2 1 4 2 4 2 1 1 12 8 13 8 1 0 2 0 2 1 0 0 1 1 3 3 6 3 20 18 20 20 0 0 1 2 2 3 3 3 11 22 12 28 1 2 1 5 2 8 2 8 2 430 0 438-1 3-1 6-2 8-1 6-9 25-12 28-1 1-2 3-2 3 0 2-14 17-20 20-2 2-3 3-3 4 0 0-1 0-1 0-1 0-13 7-14 8 0 0-2 1-4 2-5 3-19 11-22 13-2 1-4 3-5 3-1 0-4 2-7 4-3 2-6 3-6 3-1 0-1 1-1 1 0 1-1 1-1 1-1 0-17 10-24 14-2 2-5 3-6 3-1 1-4 2-7 4-3 2-5 4-6 4-1 0-1 0-1 1 0 0 0 1-1 1-1 0-17 9-24 13-2 2-5 3-5 4-1 0-5 2-8 4-3 2-5 3-6 3 0 0-1 1-1 1 0 0-2 1-4 2-2 1-7 4-12 7-9 6-24 14-27 16-1 1-2 1-2 2 0 0 0 1-1 1-1 0-14 7-15 8-1 1-2 2-4 3-2 1-8 4-13 7-4 3-9 5-10 6-1 0-2 1-2 1 0 1 0 1-1 1-1 0-14 7-15 9-1 0-2 1-4 2-6 3-19 11-22 13-2 1-4 2-4 2-1 0-15 8-15 9 0 1-1 1-1 1-2 0-18 9-24 14-2 1-5 3-6 3-1 0-4 2-7 4-3 2-6 3-6 3-1 0-1 1-1 1-1 3-24 12-35 15-4 1-30 1-33 0m3-326c0 0-3 0-6-1-6 0-8 0-14-1-1-1-3-1-6-2-2 0-4-1-5-1-7-1-43-17-45-19 0-1-4-4-10-7-14-10-35-32-43-46-1-2-2-3-3-3 0 0 0-1 0-2 0 0-1-2-2-2-1-2-10-19-11-24-1-2-2-5-3-6 0-1 0-2-1-3 0 0 0-1 0-1 0 0 0-1-1-1 0 0 0-1 0-2-1-2-5-20-5-23-3-21-3-37 0-58 0-3 4-21 5-23 0-1 0-2 0-2 1 0 1-1 1-1 0 0 0-1 0-1 1-1 1-2 1-3 1-1 2-4 3-6 1-5 10-22 11-24 1 0 2-2 2-2 0-1 0-2 0-2 1 0 2-1 3-3 8-14 29-35 43-46 6-3 10-6 11-7 1-1 2-1 3-1 0 0 1-1 1-1 1-2 32-15 39-17 1 0 4 0 6-1 3-1 5-1 6-1 6-1 8-2 14-2 8-1 30-1 39 0 5 0 7 1 13 2 1 0 3 0 6 1 2 1 5 1 6 1 10 3 36 14 46 21 4 3 8 5 8 5 1 0 2 1 2 1 0 1 2 3 5 4 11 9 28 28 36 41 1 1 3 3 3 4 1 1 2 2 2 3 0 0 0 1 0 1 1 1 13 26 14 29 0 0 0 1 0 1 0 0 1 1 1 1 0 1 0 2 0 2 0 0 0 1 1 1 0 0 0 1 0 2 1 2 5 20 6 23 1 8 1 19 1 29 0 10 0 21-1 29-1 3-5 20-5 23-1 0-1 1-1 1 1 0 0 1-1 2 0 1-1 2 0 2 0 0 0 0-1 1 0 1-1 2-1 2 2 0-11 27-13 28 0 0 0 1 0 1 0 1-1 2-2 3 0 1-2 3-3 4-8 13-25 32-36 41-3 2-5 3-5 4 0 0-1 1-2 1 0 0-4 2-8 5-10 7-36 19-46 21-1 0-4 1-6 1-5 1-6 2-11 2-2 1-5 1-7 1-3 1-33 2-34 1m-107-48c-2-3-4-5-4-5 0 0 3 2 5 5 2 2 4 4 4 4-1 0-3-2-5-4m240-1c2-3 5-5 5-5 0 0-2 2-4 5-3 3-5 5-6 5 0 0 2-2 5-5m0-248l-5-5 5 5c5 4 5 5 5 5 0 0-3-2-5-5m-240 0c4-5 5-5 5-5 0 1-2 3-5 5l-4 4 4-4" horiz-adv-x="1000" />

<glyph glyph-name="star-half-alt" unicode="&#xf123;" d="M662 316l143 140-198 29-37 5-17 34-89 179v-537l33-17 178-94-34 198-6 37z m252 146l-202-197 48-279q2-19-4-29t-19-11q-9 0-22 7l-251 132-250-132q-13-7-23-7-12 0-19 11t-3 29l48 279-203 197q-18 18-13 33t30 20l280 40 126 254q11 23 27 23 16 0 28-23l125-254 280-40q25-4 31-20t-14-33z" horiz-adv-x="928.6" />

<glyph glyph-name="cc-visa" unicode="&#xf1f0;" d="M1102 298h-77q8 20 37 99l2 6q2 5 5 14t5 15l7-31z m-806 36l-32 164q-6 31-42 31h-149l-2-8q174-44 225-187z m100 195l-90-245-10 50q-14 39-47 72t-73 50l75-285h98l145 358h-98z m78-359h92l58 359h-92z m428 350q-38 15-83 15-68 0-112-33t-44-86q-1-56 81-97 27-12 37-23t11-21q0-17-17-26t-38-9q-48 0-87 19l-13 6-13-81q42-19 104-19 72 0 116 33t45 90q0 59-78 97-27 14-40 23t-12 21q0 13 14 22t39 9q39 1 69-13l9-5z m238 9h-72q-36 0-48-31l-138-328h97l20 54h118q3-12 11-54h86z m146 178v-714q0-29-21-50t-51-22h-1143q-29 0-50 22t-21 50v714q0 29 21 50t50 22h1143q29 0 51-22t21-50z" horiz-adv-x="1285.7" />

<glyph glyph-name="cc-mastercard" unicode="&#xf1f1;" d="M624 660q-71 47-156 47-58 0-111-22t-90-61-61-90-22-110q0-58 22-111t61-90 90-61 111-22q85 0 156 47-73 60-99 148t0 177 99 148z m19-14q-70-55-96-139t0-168 96-139q71 56 96 139t0 168-96 139z m18 14q73-60 99-148t1-177-100-148q72-47 157-47 58 0 111 22t90 61 61 90 22 111q0 57-22 110t-61 90-91 61-110 22q-85 0-157-47z m414-403h4v2h-10v-2h4v-10h2v10z m16-10h2v12h-3l-3-8-3 8h-3v-12h2v9l3-8h2l3 8v-9z m-4-245v-1h-3v1h3v0z m0-5h1l-2 3h1l1 0q0 1 0 2t0 2l-1 0h-5v-7h2v3h0z m-705 38q0 10 6 17t17 7q10 0 16-7t7-17q0-11-7-18t-16-6q-10 0-17 6t-6 18z m264 24q17 0 20-18h-39q3 18 19 18z m199-24q0 10 6 17t16 7 17-7 6-17q0-11-6-18t-17-6q-10 0-16 6t-6 18z m152 0q0 10 6 17t17 7 16-7 6-17q0-11-6-18t-16-6-17 7-6 17z m88-41q-1 0-2 1-1 0-2 1t-1 2q-1 1-1 2 0 2 1 2 0 2 1 3l1 0q1 0 1 1 1 0 2 0 2 0 2 0l2-1 1-3v0q1-1 1-2l-1 0v-2t0-1l-1-1q-1-1-2-1 0-1-2-1z m-751 3h17v47q0 14-8 22t-22 8q-18 0-26-13-8 13-25 13-14 0-22-11v9h-17v-75h17v42q0 20 18 20 17 0 17-20v-42h16v42q0 20 19 20 16 0 16-20v-42z m93 0h16v75h-16v-9q-10 11-24 11-16 0-27-11t-10-28 10-29 27-11q16 0 24 11v-9z m99 23q0 19-26 22l-8 1q-13 2-13 8 0 8 14 8 13 0 24-6l7 14q-12 7-31 7-14 0-23-6t-8-18q0-19 26-22l8-1q13-2 13-8 0-9-17-9-14 0-25 7l-8-12q14-10 33-10 16 0 25 7t9 18z m73-19l-5 14q-7-4-14-4-11 0-11 12v34h27v15h-27v23h-16v-23h-16v-15h16v-34q0-28 26-28 11 0 20 6z m48 73q-16 0-27-11t-11-28q0-18 11-29t28-11q18 0 31 11l-8 12q-10-8-22-8-19 0-23 18h57v7q0 18-11 28t-25 11z m89 0q-13 0-20-11v9h-17v-75h17v42q0 20 16 20 6 0 10-2l5 15q-5 2-11 2z m16-39q0-18 11-29t29-11q17 0 27 9l-8 13q-10-7-19-6-10 0-17 6t-6 18 6 17 17 7q11 0 19-7l8 13q-11 9-27 9-18 0-29-11t-11-28z m137-38h17v75h-17v-9q-8 11-23 11-17 0-28-11t-10-28 10-29 28-11q15 0 23 11v-9z m74 77q-13 0-19-11v9h-16v-75h16v42q0 20 16 20 5 0 10-2l5 15q-5 2-12 2z m78-77h17v106h-17v-40q-8 11-24 11t-26-11-11-28 11-28 26-12q17 0 24 11v-9z m44 11l-1-1h-2q-1 0-2-1-2-1-2-2 0-2 0-4 0-2 0-3 0-1 2-2 1-1 2-2t3 0q2 0 3 0 0 1 1 1l1 1q1 1 2 2 1 1 1 3 0 2-1 4 0 0-2 2 0 0-1 1l-1 0q0 0-1 1t-2 0z m201 699v-714q0-29-21-50t-51-22h-1143q-29 0-50 22t-21 50v714q0 29 21 50t50 22h1143q29 0 51-22t21-50z" horiz-adv-x="1285.7" />

<glyph glyph-name="cc-amex" unicode="&#xf1f3;" d="M66 469h50l-25 61z m347-293l41 44-39 44h-91v-27h80v-31h-80v-30h89z m88 43l55-61v121z m161 27q0 18-22 18h-47v-38h46q23 0 23 20z m161 2q0 16-23 16h-46v-34h45q24 0 24 18z m-155 260q0 16-23 16h-46v-33h45q24 0 24 17z m256-39h50l-25 61z m-534 87v-151h-37v118l-52-118h-32l-52 118v-118h-74l-14 33h-75l-14-33h-39l64 151h54l61-143v143h59l48-103 43 103h60z m310-310q0-11-3-20t-7-14-13-9-15-6-17-2-18-1-18 1-16 0v-51h-71l-44 50-47-50h-142v151h145l44-49 46 49h116q60 0 60-49z m-162 190v-31h-121v151h121v-32h-85v-27h83v-31h-83v-30h85z m748-312v-128q0-31-22-53t-52-22h-1138q-31 0-52 22t-22 53v379h62l14 34h31l14-34h121v25l11-25h63l11 26v-26h302v55l6 0q5 0 5-7v-48h156v12q13-6 31-10t29-3 35 0 29 1l14 34h31l14-34h127v32l18-32h102v211h-100v-25l-14 25h-104v-25l-12 25h-139q-39 0-61-13v13h-96v-13q-14 13-41 13h-350l-24-55-24 55h-111v-25l-12 25h-94l-44-100v218q0 31 22 53t52 22h1138q31 0 52-22t22-53v-379h-67q-29 0-45-12v12h-99q-31 0-44-12v12h-176v-12q-17 12-49 12h-116v-12q-13 12-51 12h-131l-30-32-28 32h-194v-210h191l31 32 29-32h117v49h12q33 0 50 7v-56h98v55h4q4 0 6-1t1-6v-48h295q32 0 49 13v-13h94q33 0 53 9z m-423 131q0-13-7-24t-19-17q14-5 19-14t5-26v-30h-36v25q0 19-7 25t-26 5h-38v-55h-36v151h86q26 0 43-8t16-32z m-155 260q0-13-7-24t-18-17q14-5 19-14t5-26v-29h-37q0 5 1 15t0 13-2 11-5 9-10 4-16 2h-39v-54h-36v151l85-1q28 0 44-8t16-32z m295-340v-31h-120v151h120v-31h-84v-27h83v-31h-83v-30z m-237 381v-151h-37v151h37z m386-364q0-48-57-48h-70v33h70q19 0 19 13 0 9-9 12t-23 3-28 2-23 12-10 31q0 22 15 34t37 11h72v-31h-66q-20 0-20-14 0-9 9-12t24-2 27-1 24-12 9-31z m134 28v-56q-14-20-49-20h-70v33h70q18 0 18 13 0 8-7 11t-17 3-23 1-22 5-17 13-7 27q0 22 15 34t37 11h72v-31h-66q-20 0-20-14 0-12 16-13t38-2 32-15z m-92 335v-150h-52l-68 113v-113h-73l-15 33h-75l-14-33h-41q-72 0-72 74 0 77 74 77h35v-33q-4 0-16 1t-16 0-12-1-12-4-9-7-6-13-2-19q0-21 8-32t28-11h16l51 118h54l61-142v142h55l64-105v105h37z" horiz-adv-x="1285.7" />
</font>
</defs>
</svg>
