<?xml version="1.0" encoding="utf-8"?>
<!-- Generator: Adobe Illustrator 17.0.0, SVG Export Plug-In . SVG Version: 6.00 Build 0)  -->
<!DOCTYPE svg PUBLIC "-//W3C//DTD SVG 1.1//EN" "http://www.w3.org/Graphics/SVG/1.1/DTD/svg11.dtd">
<svg version="1.1" id="Слой_1" xmlns="http://www.w3.org/2000/svg" xmlns:xlink="http://www.w3.org/1999/xlink" x="0px" y="0px"
	 width="1365.553px" height="427.703px" viewBox="26.056 494.773 1365.553 427.703"
	 enable-background="new 26.056 494.773 1365.553 427.703" xml:space="preserve">
<g id="Comodo">
	<path fill="#C41230" d="M134.86,698.352v-95.347c0-30.494,24.696-55.19,55.19-55.19s55.19,24.696,55.19,55.19v95.132h53.257
		v-95.132c0-59.699-48.532-108.232-108.446-108.232c-59.699,0-108.232,48.533-108.232,108.232v95.132h53.042V698.352z"/>
	<path fill="#C41230" d="M174.588,600.858c8.59-7.301,22.548-7.301,31.138,0c8.59,7.301,24.266,10.737,35.218,7.516
		c10.737-3.221,23.622,2.362,28.346,12.67c4.939,10.308,17.824,19.757,29.205,21.045c11.167,1.503,20.616,11.811,20.83,23.193
		s8.375,25.34,18.039,31.138c9.664,5.798,13.958,19.112,9.664,29.635c-4.295,10.308-2.577,26.414,3.651,35.862
		c6.442,9.234,4.939,23.193-3.221,30.923c-8.16,7.731-13.314,23.193-11.167,34.145c2.147,11.167-4.939,23.193-15.462,26.843
		c-10.737,3.651-21.475,15.676-24.051,26.628c-2.577,10.952-13.958,19.112-25.125,18.253c-11.167-0.859-25.984,5.583-32.856,14.603
		c-6.872,9.019-20.401,11.811-30.279,6.442c-9.878-5.369-25.984-5.369-36.077,0c-9.878,5.369-23.622,2.577-30.494-6.442
		c-6.872-9.019-21.689-15.462-32.856-14.603s-22.548-7.301-25.125-18.253s-13.314-22.978-24.051-26.628
		c-10.737-3.651-17.609-15.891-15.462-26.843c2.147-11.167-2.792-26.414-11.167-34.145c-8.16-7.731-9.664-21.689-3.221-30.923
		c6.442-9.234,8.16-25.34,3.651-35.862c-4.295-10.308,0-23.622,9.664-29.635c9.664-5.798,17.824-19.971,18.039-31.138
		c0.215-11.167,9.664-21.689,20.83-23.193s24.266-10.952,29.205-21.045c4.724-10.308,17.609-15.891,28.346-12.67
		C150.322,611.595,165.998,608.159,174.588,600.858z"/>
	<path fill="#FFFFFF" d="M190.05,651.538c-59.27,0-107.373,48.103-107.373,107.373c0,59.27,48.103,107.373,107.373,107.373
		S297.422,818.18,297.422,758.91C297.422,699.641,249.319,651.538,190.05,651.538L190.05,651.538z"/>
	<path fill="#C41230" d="M197.351,688.474c-6.872,0-13.314,0.644-19.112,1.503c-34.574,5.154-53.257,24.051-57.552,56.049
		l-3.006,24.266c-1.933,16.75,1.074,29.205,9.019,38.225c9.449,10.523,25.555,19.112,49.391,19.112h41.875
		c24.266,0,27.273-25.34,27.273-25.34H189.62c-7.516,0-14.817-0.644-19.971-2.577c-6.872-2.577-11.167-7.087-12.67-15.247
		c-0.644-3.221-0.429-10.308,0.215-15.032l2.792-21.26c0.859-5.369,2.577-11.382,3.221-13.529
		c2.147-5.154,5.369-10.308,10.737-14.173c3.221-2.147,10.523-6.657,29.42-6.657h30.709c21.475,0,25.34-25.34,25.34-25.34H197.351
		L197.351,688.474z"/>
	<g>
		<path fill="#231F20" d="M493.915,848.889c0,4.51-1.074,8.59-3.436,12.026c-2.362,3.436-5.583,6.228-9.878,8.16
			c-4.295,1.933-9.449,3.006-15.247,3.006c-4.939,0-8.805-0.215-12.241-1.074c-3.221-0.644-6.657-1.933-10.308-3.651v-17.394
			c3.651,1.933,7.731,3.436,11.596,4.51c4.08,1.074,7.731,1.503,11.167,1.503c3.006,0,5.154-0.43,6.442-1.503
			c1.288-1.074,1.933-2.362,1.933-3.865c0-1.074-0.215-1.933-0.859-2.577c-0.644-0.859-1.503-1.503-2.577-2.362
			c-1.288-0.859-4.51-2.362-9.664-4.724c-4.724-2.147-8.375-4.295-10.737-6.228c-2.362-1.933-4.08-4.295-5.369-6.872
			c-1.074-2.577-1.718-5.798-1.718-9.234c0-6.657,2.362-12.026,7.301-15.676c4.939-3.651,11.596-5.583,20.186-5.583
			c7.516,0,15.247,1.718,22.978,5.154l-6.013,15.247c-6.872-3.221-12.67-4.724-17.609-4.724c-2.577,0-4.295,0.43-5.583,1.289
			c-1.074,0.859-1.718,1.933-1.718,3.436s0.644,2.792,2.147,3.865s5.583,3.221,12.026,6.228c6.228,2.792,10.523,5.798,13.099,9.019
			C492.626,839.869,493.914,843.95,493.915,848.889L493.915,848.889z"/>
		<path fill="#231F20" d="M552.755,848.889c0,4.51-1.074,8.59-3.436,12.026c-2.362,3.436-5.583,6.228-9.878,8.16
			c-4.295,1.933-9.449,3.006-15.247,3.006c-4.724,0-8.805-0.215-12.241-1.074c-3.221-0.644-6.657-1.933-10.308-3.651v-17.394
			c3.651,1.933,7.731,3.436,11.596,4.51c4.08,1.074,7.731,1.503,11.167,1.503c3.006,0,5.154-0.43,6.442-1.503
			c1.288-1.074,2.147-2.362,2.147-3.865c0-1.074-0.215-1.933-0.859-2.577c-0.644-0.859-1.503-1.503-2.577-2.362
			c-1.289-0.859-4.51-2.362-9.664-4.724c-4.724-2.147-8.375-4.295-10.737-6.228c-2.362-1.933-4.08-4.295-5.154-6.872
			c-1.074-2.577-1.718-5.798-1.718-9.234c0-6.657,2.362-12.026,7.301-15.676c4.939-3.651,11.596-5.583,20.186-5.583
			c7.516,0,15.247,1.718,22.978,5.154l-6.013,15.247c-6.872-3.221-12.67-4.724-17.609-4.724c-2.577,0-4.51,0.43-5.583,1.289
			s-1.718,1.933-1.718,3.436s0.644,2.792,2.147,3.865c1.503,1.074,5.369,3.221,12.026,6.228c6.228,2.792,10.737,5.798,13.099,9.019
			C551.466,839.869,552.755,843.95,552.755,848.889L552.755,848.889z"/>
		<path fill="#231F20" d="M563.922,871.007v-72.799h19.542v56.908h27.917v15.891H563.922z"/>
		<path fill="#231F20" d="M656.692,801.859c-9.019,0-16.321,3.006-21.475,8.805c-5.154,5.798-7.946,13.744-7.946,24.051
			s2.577,18.468,7.301,24.266c4.939,5.798,12.026,8.59,21.26,8.59c6.013,0,11.811-0.859,16.75-2.362v4.51
			c-4.724,1.718-10.737,2.577-18.039,2.577c-10.308,0-18.253-3.221-24.052-9.878c-5.798-6.657-8.805-15.891-8.805-27.702
			c0-7.301,1.503-13.958,4.295-19.542c2.792-5.583,6.872-10.093,12.026-13.099c5.154-3.006,11.381-4.51,18.253-4.51
			c7.087,0,13.529,1.289,19.112,4.08l-1.933,4.51C668.073,803.148,662.49,801.859,656.692,801.859L656.692,801.859z"/>
		<path fill="#231F20" d="M728.631,871.007h-39.728v-72.799h39.728v4.724h-34.574v27.487h32.641v4.724h-32.641v31.138h34.574
			V871.007z"/>
		<path fill="#231F20" d="M750.106,839.225v31.568h-4.939v-72.799h17.394c9.019,0,15.676,1.718,19.971,4.939
			c4.295,3.436,6.442,8.375,6.442,15.032c0,4.939-1.289,9.019-3.865,12.24c-2.577,3.436-6.442,5.798-11.811,7.301l19.757,33.071
			h-6.013l-18.683-31.568h-18.253L750.106,839.225z M750.106,834.93h13.958c6.228,0,10.952-1.289,14.173-4.08
			c3.436-2.792,5.154-6.872,5.154-12.026c0-5.583-1.718-9.664-4.939-12.026c-3.221-2.577-8.805-3.865-16.321-3.865h-12.026V834.93
			L750.106,834.93z"/>
		<path fill="#231F20" d="M824.623,871.007h-5.154v-67.86h-23.622v-4.724h52.398v4.724h-23.622V871.007z"/>
		<path fill="#231F20" d="M858.982,871.007v-72.799h5.154v72.799H858.982z"/>
		<path fill="#231F20" d="M889.69,871.007h-4.939v-72.799h39.943v4.724h-34.789v30.923h32.856v4.724h-32.856v32.427H889.69z"/>
		<path fill="#231F20" d="M935.861,871.007v-72.799h5.154v72.799H935.861z"/>
		<path fill="#231F20" d="M992.553,801.859c-9.019,0-16.321,3.006-21.474,8.805c-5.154,5.798-7.946,13.744-7.946,24.051
			s2.577,18.468,7.516,24.266c4.939,5.798,12.026,8.59,21.26,8.59c6.013,0,11.811-0.859,16.75-2.362v4.51
			c-4.724,1.718-10.737,2.577-18.039,2.577c-10.308,0-18.253-3.221-24.052-9.878c-5.798-6.657-8.805-15.891-8.805-27.702
			c0-7.301,1.503-13.958,4.295-19.542c2.792-5.583,6.872-10.093,12.026-13.099c5.154-3.006,11.381-4.51,18.253-4.51
			c7.087,0,13.529,1.289,19.112,4.08l-2.147,4.51C1003.935,803.148,998.352,801.859,992.553,801.859L992.553,801.859z"/>
		<path fill="#231F20" d="M1059.769,845.238h-29.635l-10.093,25.555h-5.583l29.205-73.013h3.221l28.561,73.013h-5.798
			L1059.769,845.238L1059.769,845.238z M1032.067,840.728h25.984l-9.878-26.199c-0.859-2.147-1.718-4.939-3.006-8.59
			c-0.859,3.221-1.933,6.013-3.006,8.59L1032.067,840.728z"/>
		<path fill="#231F20" d="M1104.865,871.007h-5.154v-67.86h-23.622v-4.724h52.398v4.724h-23.622V871.007z"/>
		<path fill="#231F20" d="M1178.953,871.007h-39.728v-72.799h39.728v4.724h-34.789v27.487h32.856v4.724h-32.856v31.138h34.789
			V871.007z"/>
	</g>
	<g>
		<path fill="#C41230" d="M1154.686,640.586h-56.263v3.865c0.215,8.375,3.006,18.898,17.18,18.898h16.535h21.045
			c21.904,0,33.715,7.301,30.279,31.782l-2.577,19.542c-3.221,25.34-21.474,29.205-37.58,29.205h-21.26l6.013-48.747
			c0.859-7.087-2.577-18.468-15.891-18.468h-18.468l-4.939,40.157l-4.724,35.433c-1.288,9.449,5.583,14.817,20.401,14.817h43.379
			c44.023,0,56.048-15.891,62.061-25.984c3.221-5.798,5.583-12.67,6.872-20.83c0.215-1.503,3.221-26.843,3.221-26.843
			c1.933-15.247-1.074-26.843-8.59-35.433C1201.286,646.599,1182.818,640.586,1154.686,640.586L1154.686,640.586z"/>
		<path fill="#C41230" d="M643.592,637.794h-6.228c-44.238,0.43-67.43,18.898-72.369,54.116l-3.006,22.763
			c-1.933,15.676,0.859,27.487,8.59,36.077c9.449,10.523,25.984,18.253,50.895,18.468h6.228
			c43.379-0.429,66.356-18.253,71.94-51.109l0.43-2.362l3.006-22.763c1.933-16.321-0.859-28.561-8.805-37.366
			C684.823,645.095,668.288,638.009,643.592,637.794L643.592,637.794z M666.57,692.983l-2.792,20.83
			c-1.288,9.234-3.651,16.321-7.731,21.689c-5.583,7.087-13.958,11.382-25.555,11.382h-6.657c-11.596,0-19.971-4.08-23.622-10.737
			c-2.362-4.939-3.006-12.026-1.718-21.475l2.792-20.83c1.503-11.167,5.154-19.327,10.952-25.125
			c5.798-5.583,13.744-8.16,23.622-8.16h6.442c6.657,0,15.676,1.074,20.616,7.731C666.785,673.871,668.073,681.817,666.57,692.983
			L666.57,692.983z"/>
		<path fill="#C41230" d="M1382.317,655.618c-9.449-10.523-25.984-17.609-50.68-17.824h-6.228
			c-44.238,0.43-67.43,18.898-72.369,54.116l-3.006,22.763c-1.933,15.676,0.859,27.487,8.59,36.077
			c9.449,10.523,25.984,18.253,50.895,18.468h6.228c43.379-0.429,66.356-18.253,71.94-51.109l0.429-2.362l3.006-22.763
			C1392.839,676.663,1390.047,664.422,1382.317,655.618L1382.317,655.618z M1354.614,692.983l-2.792,20.83
			c-1.288,9.234-3.651,16.321-7.731,21.689c-5.583,7.087-13.958,11.382-25.555,11.382h-6.872c-11.596,0-19.971-4.08-23.622-10.737
			c-2.362-4.939-3.006-12.026-1.718-21.475l2.792-20.83c1.503-11.167,5.154-19.327,10.952-25.125
			c5.583-5.583,13.744-8.16,23.622-8.16h6.442c6.657,0,15.676,1.074,20.615,7.731
			C1354.829,673.871,1356.117,681.817,1354.614,692.983L1354.614,692.983z"/>
		<path fill="#C41230" d="M1000.284,637.794h-6.228c-44.238,0.43-67.43,18.898-72.369,54.116l-3.006,22.763
			c-1.933,15.676,0.859,27.487,8.59,36.077c9.449,10.523,25.984,18.253,50.895,18.468h6.228
			c43.379-0.429,66.356-18.253,71.94-51.109l0.429-2.362l3.006-22.763c1.933-16.321-0.859-28.561-8.805-37.366
			C1041.515,645.095,1025.195,638.009,1000.284,637.794L1000.284,637.794z M1023.477,692.983l-2.792,20.83
			c-1.289,9.234-3.651,16.321-7.731,21.689c-5.583,7.087-13.958,11.382-25.555,11.382h-6.657c-11.596,0-19.971-4.08-23.622-10.737
			c-2.362-4.939-3.006-12.026-1.718-21.475l2.792-20.83c1.503-11.167,4.939-19.327,10.952-25.125
			c5.798-5.583,13.744-8.16,23.622-8.16h6.442c6.657,0,15.676,1.074,20.616,7.731
			C1023.692,673.871,1024.98,681.817,1023.477,692.983L1023.477,692.983z"/>
		<path fill="#C41230" d="M860.27,647.672l-48.747,55.19l-34.145-54.76c-3.221-5.154-9.878-7.516-19.757-7.516H742.16
			l-15.462,126.27h18.898c6.228,0,10.737-2.577,13.314-4.939c4.08-3.436,6.657-8.375,7.301-13.529l6.872-55.404l25.125,47.888
			c1.074,1.718,4.08,5.798,8.16,5.798h0.43c4.295,0,7.946-4.08,9.019-5.369l38.225-48.318l-9.234,73.658h18.253
			c6.228,0,10.737-2.577,13.314-4.939c3.865-3.436,6.657-8.375,7.301-13.529l13.314-107.802h-16.106
			C871.437,640.586,864.35,642.948,860.27,647.672z"/>
		<path fill="#C41230" d="M496.062,640.586c-6.228,0-12.026,0.43-17.394,1.289c-31.568,4.724-48.318,21.904-52.398,50.895
			l-2.792,22.119c-1.718,15.247,0.859,26.628,8.16,34.789c8.59,9.449,23.193,17.394,44.882,17.394h38.225
			c22.119,0,24.696-23.193,24.696-23.193h-50.465c-6.872,0-13.529-0.644-18.253-2.362c-6.442-2.362-10.093-6.442-11.596-13.958
			c-0.43-3.006-0.43-9.449,0.215-13.529l2.577-19.327c0.859-4.939,2.362-10.523,3.006-12.24c1.933-4.51,4.939-9.449,9.878-12.885
			c2.792-2.147,9.664-6.228,26.843-6.228h28.132c19.542,0,23.193-22.978,23.193-22.978h-56.908V640.586z"/>
	</g>
</g>
</svg>
