
<svg width="45px" height="45px" viewBox="0 0 45 45" version="1.1" xmlns="http://www.w3.org/2000/svg" xmlns:xlink="http://www.w3.org/1999/xlink">
    <!-- Generator: Sketch 48.1 (47250) - http://www.bohemiancoding.com/sketch -->
    <desc>Created with Sketch.</desc>
    <defs></defs>
    <g id="Page-1" stroke="none" stroke-width="1" fill="none" fill-rule="evenodd">
        <g id="elements" transform="translate(-733.000000, -696.000000)" fill="#aaaaaa">
            <path d="M755.5,696 C743,696 733,706 733,718.5 C733,731 743,741 755.5,741 C768,741 778,731 778,718.5 C778,706 768,696 755.5,696 Z M755.5,731 C755.5,731 754.5,731.75 753.75,731.75 C753.75,731.75 753.75,731.75 753.75,731.75 C753.5,731.75 753.5,731.75 753.25,731.75 L753,731.75 C751.75,731.5 751,730.25 751.5,729 L753.25,722 L754,718.75 C754.75,715.75 751.75,719.25 751,718 C750.5,717 753.25,715.25 755.5,713.75 C755.5,713.75 756.5,713 757.25,713 C757.25,713 757.25,713 757.25,713 C757.5,713 757.5,713 757.75,713 L758,713 C759.25,713.25 760,714.5 759.75,715.75 L758,722.75 L757.25,726 C756.5,729 759.5,725.25 760.25,726.75 C760.25,727.75 757.5,729.75 755.5,731 Z M759.75,709.25 C759.25,711 757.5,712 755.75,711.5 C754,711 753,709.25 753.25,707.5 C753.75,705.75 755.5,704.75 757.25,705.25 C759.25,705.75 760.25,707.5 759.75,709.25 Z" id="Page-1"></path>
        </g>
    </g>
</svg>
