<svg xmlns="http://www.w3.org/2000/svg" width="277.994" height="194.003"><path fill="none" stroke="#45557A" stroke-miterlimit="10" d="M124.218 68.336h9.423m-9.423 82.695h9.423"/><circle fill="none" stroke="#45557A" stroke-width="2" stroke-miterlimit="10" cx="192.77" cy="79.21" r="23.264"/><circle fill="none" stroke="#45557A" stroke-miterlimit="10" cx="241.839" cy="128.111" r="28.774"/><path fill="none" stroke="#45557A" stroke-miterlimit="10" d="M221.754 107.615l-12.417-12.416m4.257 33.736h-52.353"/><circle fill="none" stroke="#45557A" stroke-width="2" stroke-miterlimit="10" cx="52.182" cy="127.403" r="28.774"/><circle fill="none" stroke="#45557A" stroke-miterlimit="10" cx="30.65" cy="59.769" r="23.264"/><circle fill="none" stroke="#45557A" stroke-miterlimit="10" cx="30.65" cy="59.769" r="23.264"/><path fill="none" stroke="#45557A" stroke-miterlimit="10" d="M43.559 99.953L37.768 81.92m41.567 36.709l17.28-5.926"/><g fill="none" stroke="#6F8CBF" stroke-miterlimit="10"><path stroke-linecap="round" stroke-linejoin="round" d="M67 116.859H36.891c-1.188 0-2.151.896-2.151 2.084v21.506c0 1.188.963 2.218 2.151 2.218H67c1.188 0 2.151-1.03 2.151-2.218v-21.506c0-1.188-.964-2.084-2.151-2.084z"/><path d="M60.118 135.731c0 1.426-1.155 2.634-2.581 2.634H42.052c-1.426 0-2.581-1.209-2.581-2.634v-12.044c0-1.426 1.155-2.527 2.581-2.527h15.485c1.426 0 2.581 1.101 2.581 2.527v12.044z"/><path stroke-linecap="round" stroke-linejoin="round" d="M65.133 120.823v2.213m0 3.708v2.213m0 3.708v2.214m-3.64-27.401l-9.381 9.381-9.381-9.381"/></g><g fill="none" stroke="#6F8CBF" stroke-miterlimit="10"><path d="M25.631 69.25V52.208l17.043-4.796v17.042m-17.043-8.998l17.043-4.796"/><ellipse cx="20.685" cy="69.25" rx="4.946" ry="2.875"/><ellipse cx="37.727" cy="64.454" rx="4.946" ry="2.875"/></g><g fill="none" stroke="#6F8CBF" stroke-miterlimit="10"><path d="M251.856 116.018h-20.033c-5.885 0-10.701 4.815-10.701 10.701v8.563a4.923 4.923 0 1 0 9.846 0h21.742a4.923 4.923 0 1 0 9.846 0v-8.563c0-5.886-4.815-10.701-10.7-10.701z"/><path stroke-width="2" stroke-linecap="round" d="M232.108 122.462v8.13m-4.065-4.065h8.13"/><g stroke-linecap="round"><circle cx="249.052" cy="124.025" r="1.563"/><circle cx="254.25" cy="124.025" r="1.563"/><circle cx="249.052" cy="129.029" r="1.563"/><circle cx="254.25" cy="129.029" r="1.563"/></g></g><g fill="none" stroke="#6F8CBF" stroke-linecap="round" stroke-linejoin="round" stroke-miterlimit="10"><path d="M192.769 62.46c-6.032 0-10.923 4.89-10.923 10.924 0 6.031 10.923 22.577 10.923 22.577s10.925-16.545 10.925-22.577c0-6.035-4.891-10.924-10.925-10.924z"/><path d="M192.77 66.157c-3.985 0-7.227 3.242-7.227 7.227 0 3.985 3.242 7.227 7.227 7.227 3.985 0 7.228-3.242 7.228-7.227 0-3.985-3.243-7.227-7.228-7.227z"/></g><path fill="none" stroke="#45557A" stroke-miterlimit="10" d="M100.596 71.816h56.667v73.546h-56.667z"/><path fill="none" stroke="#45557A" stroke-miterlimit="10" d="M155.241 157.504h-52.626c-3.3 0-6-2.7-6-6V69.677c0-3.3 2.7-6 6-6h52.626c3.3 0 6 2.7 6 6v81.827c0 3.3-2.7 6-6 6z"/><path fill="none" stroke="#E2924F" stroke-width="2" stroke-linecap="round" stroke-linejoin="round" stroke-miterlimit="10" d="M119.439 93.411v30.357l28.404-15.179z"/></svg>