<svg xmlns="http://www.w3.org/2000/svg" width="278" height="194"><path fill="#FFF" d="M0 0h278v194H0z"/><g fill="none" stroke="#6F8CBF" stroke-miterlimit="10"><circle cx="183.324" cy="41.976" r="16.75"/><path d="M183.324 58.726v-33.5m15.575 22.912l-15.575-6.162"/></g><g fill="none" stroke="#45557A" stroke-miterlimit="10"><path d="M162.201 72.814H87.676a2.215 2.215 0 0 0-2.213 2.213v44.271h78.951V75.027c0-1.22-.993-2.213-2.213-2.213z"/><path d="M166.247 67.114H83.618a3.693 3.693 0 0 0-3.689 3.689v60.642a3.693 3.693 0 0 0 3.689 3.689l32.645-.001-2.056 9.276h-5.727v1.476h32.905v-1.476h-5.728l-2.056-9.276 32.646-.001a3.692 3.692 0 0 0 3.689-3.689v-60.64a3.693 3.693 0 0 0-3.689-3.689zm-86.318 57.715h90.007m-53.763 10.301h17.519m-19.485 9.276h21.449m-13.621-15.404h5.994"/></g><circle fill="none" stroke="#45557A" stroke-miterlimit="10" cx="94.676" cy="30.084" r="23.264"/><circle fill="none" stroke="#45557A" stroke-width="2" stroke-miterlimit="10" cx="45.607" cy="78.985" r="28.774"/><path fill="none" stroke="#45557A" stroke-miterlimit="10" d="M65.693 58.489l12.416-12.417m-13.006 53.961l14.725 14.724"/><circle fill="none" stroke="#45557A" stroke-width=".75" stroke-miterlimit="10" cx="46.294" cy="163.916" r="23.264"/><path fill="none" stroke="#45557A" stroke-width=".75" stroke-miterlimit="10" d="M63 147.732l16.828-16.828"/><circle fill="none" stroke="#45557A" stroke-width=".75" stroke-miterlimit="10" cx="183.324" cy="41.976" r="23.264"/><circle fill="none" stroke="#45557A" stroke-width="2" stroke-miterlimit="10" cx="232.393" cy="90.877" r="28.774"/><path fill="none" stroke="#45557A" stroke-width=".75" stroke-miterlimit="10" d="M212.307 70.381l-12.416-12.416m4.256 33.736h-33.654"/><g fill="none" stroke="#E2924F" stroke-width="2" stroke-linecap="round" stroke-linejoin="round" stroke-miterlimit="10"><circle cx="124.799" cy="96.629" r="20.351"/><path d="M124.799 116.98V76.278m19.335 14l-19.335 6.351m18.923 7.487l-18.923-7.487m14.531 14.243l-14.531-14.243"/></g><path d="M34.691 69.317h5.976v18.68h-5.976zm8.684 6.961h5.976v11.719h-5.976zm8.683-4.69h5.976v16.41h-5.976zm-20.33 19.341h31.1m-31.1 0V63.175m-3.489 3.211l3.489-3.49 3.49 3.49m24.66 21.054l3.49 3.489-3.49 3.489" fill="none" stroke="#6F8CBF" stroke-miterlimit="10"/><g fill="none" stroke="#6F8CBF" stroke-miterlimit="10"><path d="M222.024 81.521h3.644v11.391h-3.644zm5.295 4.245h3.644v7.146h-3.644zm5.295 3.059h3.644v4.087h-3.644zm5.295-5.919h3.644v10.006h-3.644z"/><path d="M216.475 77.839h30.628v19.984h-30.628zm15.313 19.985v9.52m0-34.643v5.429m-4.798 19.693l-5.542 9.521m15.14-9.519l5.539 9.519"/></g><g fill="none" stroke="#6F8CBF" stroke-miterlimit="10"><circle cx="41.922" cy="159.545" r="9.811"/><circle cx="41.922" cy="159.545" r="7.848"/><path d="M48.859 166.482l2.743 2.743m-1.334 1.33l2.663-2.663 7.543 7.543-2.663 2.663z"/></g><g fill="none" stroke="#6F8CBF" stroke-linecap="round" stroke-linejoin="round" stroke-miterlimit="10"><path d="M94.675 13.333c-6.032 0-10.923 4.89-10.923 10.924 0 6.031 10.923 22.577 10.923 22.577S105.6 30.288 105.6 24.257c0-6.034-4.891-10.924-10.925-10.924z"/><path d="M94.676 17.031c-3.985 0-7.227 3.242-7.227 7.227 0 3.985 3.242 7.227 7.227 7.227 3.985 0 7.228-3.242 7.228-7.227 0-3.985-3.243-7.227-7.228-7.227z"/></g></svg>