<svg xmlns="http://www.w3.org/2000/svg" width="399.3" height="99.65"><path fill="#FFF" d="M25.55 64.9h-3.12v-5.25h-.1c-1.45 3.6-5.84 6.06-9.87 6.06C4.03 65.71 0 58.89 0 51.05 0 43.22 4.03 36.4 12.45 36.4c4.13 0 8.16 2.1 9.61 6.07h.11V26.59h3.39V64.9h-.01zm-13.1-2.02c7.19 0 9.71-6.08 9.71-11.82s-2.52-11.8-9.71-11.8c-6.44 0-9.07 6.06-9.07 11.8.01 5.74 2.63 11.82 9.07 11.82zm19.6-36.29h3.38v5.42h-3.38v-5.42zm0 10.63h3.38V64.9h-3.38V37.22zm33.28 25.42c-.07 8.27-3.23 13.32-12.31 13.32-5.53 0-11-2.48-11.48-8.37h3.38c.75 4.07 4.34 5.52 8.1 5.52 6.23 0 8.91-3.69 8.91-10.47v-3.75h-.11c-1.56 3.39-4.82 5.7-8.8 5.7-8.85 0-12.5-6.33-12.5-14.22 0-7.61 4.51-13.96 12.5-13.96 4.03 0 7.46 2.53 8.8 5.58h.11v-4.76h3.39l.01 25.41zm-3.4-11.91c0-5.42-2.52-11.48-8.91-11.48-6.44 0-9.12 5.75-9.12 11.48 0 5.59 2.89 11 9.12 11 5.86 0 8.91-5.36 8.91-11zm9.88-24.14h3.38v5.42h-3.38v-5.42zm0 10.63h3.38V64.9h-3.38V37.22zm15.25 0h5.63v2.84h-5.63v18.67c0 2.2.31 3.49 2.73 3.65.97 0 1.93-.05 2.9-.17v2.91c-1.02 0-1.99.1-3.01.1-4.51 0-6.06-1.5-6-6.23V40.05h-4.84v-2.84h4.83v-8.32h3.39v8.33zm10.2 8.47c.32-6.49 4.88-9.29 11.21-9.29 4.89 0 10.19 1.51 10.19 8.91v14.7c0 1.29.65 2.04 1.99 2.04.37 0 .8-.1 1.07-.21v2.85c-.74.15-1.28.2-2.2.2-3.43 0-3.96-1.92-3.96-4.82h-.12c-2.36 3.58-4.78 5.63-10.09 5.63-5.11 0-9.3-2.52-9.3-8.1 0-7.78 7.58-8.05 14.88-8.92 2.79-.32 4.35-.69 4.35-3.75 0-4.56-3.29-5.69-7.26-5.69-4.17 0-7.3 1.94-7.4 6.44h-3.36v.01zm18.03 4.08h-.12c-.43.81-1.93 1.08-2.84 1.24-5.75 1.01-12.88.97-12.88 6.39 0 3.37 3.01 5.48 6.17 5.48 5.15 0 9.71-3.27 9.67-8.69v-4.42zm10.18-23.18h3.38V64.9h-3.38V26.59zm19.84 26.02c0 4.35 2.37 8.22 7.47 8.22 3.53 0 5.69-1.55 6.76-4.61h5.8c-1.34 6.06-6.49 9.45-12.55 9.45-8.7 0-13.58-6.06-13.58-14.61 0-7.88 5.15-14.65 13.41-14.65 8.75 0 14.11 7.9 13.09 16.21l-20.4-.01zm14.28-4.02c-.21-3.86-2.84-7.36-6.98-7.36-4.24 0-7.14 3.23-7.3 7.36h14.28zm10.95-22h6.12V64.9h-6.12V26.59zm17.55 26.02c0 4.35 2.36 8.22 7.46 8.22 3.54 0 5.68-1.55 6.76-4.61h5.8c-1.35 6.06-6.49 9.45-12.56 9.45-8.68 0-13.57-6.06-13.57-14.61 0-7.88 5.15-14.65 13.41-14.65 8.75 0 14.12 7.9 13.1 16.21l-20.4-.01zm14.27-4.02c-.21-3.86-2.84-7.36-6.98-7.36-4.24 0-7.13 3.23-7.29 7.36h14.27zm10.79-11.43h5.79v3.87h.17c1.83-2.74 4.13-4.62 8.53-4.62 3.39 0 6.55 1.45 7.79 4.62 2.04-2.84 4.67-4.62 8.7-4.62 5.85 0 9.28 2.59 9.28 9.35v19.15h-6.11V48.69c0-4.39-.28-7.47-5.05-7.47-4.13 0-5.91 2.75-5.91 7.42v16.25h-6.1V47.08c0-3.8-1.18-5.86-4.89-5.86-3.16 0-6.06 2.59-6.06 7.2V64.9h-6.12l-.02-27.74zm51.47 15.45c0 4.35 2.37 8.22 7.46 8.22 3.53 0 5.69-1.55 6.76-4.61h5.8c-1.35 6.06-6.49 9.45-12.56 9.45-8.69 0-13.59-6.06-13.59-14.61 0-7.88 5.16-14.65 13.43-14.65 8.75 0 14.11 7.9 13.09 16.21l-20.39-.01zm14.27-4.02c-.22-3.86-2.85-7.36-6.97-7.36-4.25 0-7.15 3.23-7.3 7.36h14.27zm10.79-11.43h5.8v4.07l.11.1c1.83-3.05 4.99-4.93 8.64-4.93 6.02 0 9.81 3.23 9.81 9.44v19.05h-6.11V47.46c-.1-4.34-1.83-6.23-5.43-6.23-4.07 0-6.7 3.23-6.7 7.32V64.9h-6.12V37.16zm28.01 0h4.63v-8.33h6.12v8.33h5.52v4.56h-5.52v14.82c0 2.52.21 3.81 2.94 3.81.87 0 1.72 0 2.58-.21v4.72c-1.35.11-2.63.33-3.98.33-6.39 0-7.56-2.48-7.66-7.09V41.73h-4.63v-4.57zm70.36-17.32C386.17 8.23 375.02.31 363.13 2.15c-11.88 1.85-20 12.77-18.11 24.4 1.51 9.46 9.21 16.48 18.44 17.74-6.87-1.97-12.46-8.12-13.75-16.11-1.72-10.69 4.91-20.62 14.83-22.17 5.23-.81 9.97.96 13.73 4.32-3.17-1.82-6.9-2.64-10.74-2.06-9.2 1.38-15.47 10.19-13.98 19.65 1.49 9.47 10.16 16.03 19.36 14.65 4.19-.63 7.75-2.8 10.27-5.87-.17.24-.31.5-.49.73 4.24-4.61 6.41-10.99 5.36-17.59zm-18.14 20.63c-1.86.22-3.67 0-5.35-.58 3.51.47 7.08-1.2 8.97-4.57 2.54-4.53 1.08-10.41-3.3-13.14-3.99-2.48-8.96-1.45-11.75 2.18.72-.62 1.57-1.1 2.55-1.36 3.46-.89 6.98 1.28 7.86 4.84.88 3.58-1.2 7.2-4.66 8.09-3.22.82-6.51-.98-7.62-4.15.01.09.05.17.06.25-.36-.98-.63-2.01-.76-3.1-.87-7.19 3.99-13.68 10.88-14.51 6.86-.81 13.13 4.36 13.99 11.55.86 7.19-4.02 13.69-10.87 14.5zM99.59 81.63v16.55h10.09v1.46h-11.8V81.63h1.71zm19.9 5.18c.77.37 1.41.87 1.93 1.49s.92 1.35 1.19 2.18c.27.83.4 1.72.4 2.66s-.13 1.83-.4 2.66c-.27.83-.66 1.56-1.19 2.18s-1.16 1.11-1.93 1.48c-.77.36-1.64.54-2.64.54-.99 0-1.87-.18-2.64-.54s-1.41-.85-1.93-1.47-.92-1.35-1.18-2.18c-.27-.83-.4-1.72-.4-2.66s.14-1.83.41-2.66c.27-.83.66-1.56 1.19-2.18.52-.62 1.17-1.12 1.93-1.49.77-.37 1.64-.56 2.64-.56.97-.01 1.85.18 2.62.55zm-4.63 1.26c-.57.32-1.05.74-1.43 1.26a5.77 5.77 0 0 0-.86 1.78c-.19.66-.29 1.34-.29 2.03s.1 1.37.29 2.03c.19.66.48 1.25.86 1.78.38.52.85.94 1.43 1.26.57.32 1.24.48 1.99.48.76 0 1.42-.16 1.99-.48s1.05-.74 1.43-1.26c.38-.52.66-1.11.86-1.78.19-.67.29-1.34.29-2.03s-.1-1.37-.29-2.03c-.19-.66-.48-1.26-.86-1.78s-.85-.94-1.43-1.26c-.57-.32-1.24-.48-1.99-.48-.76 0-1.42.16-1.99.48zm18.72.35c-.59-.56-1.41-.83-2.47-.83-.76 0-1.42.16-1.99.48s-1.05.74-1.42 1.26c-.38.52-.67 1.11-.86 1.78-.19.66-.29 1.34-.29 2.03s.1 1.37.29 2.03c.19.66.48 1.25.86 1.78.38.52.85.94 1.43 1.26.57.32 1.24.48 1.99.48.49 0 .95-.09 1.39-.28s.82-.44 1.16-.77c.34-.33.61-.72.83-1.17s.35-.95.4-1.49h1.59c-.22 1.58-.8 2.81-1.74 3.7s-2.15 1.32-3.63 1.32c-.99 0-1.87-.18-2.64-.54-.76-.36-1.41-.85-1.93-1.47s-.92-1.35-1.19-2.18c-.27-.83-.4-1.72-.4-2.66s.14-1.83.4-2.66c.27-.83.66-1.56 1.19-2.18s1.17-1.12 1.93-1.49c.77-.37 1.64-.56 2.64-.56 1.4 0 2.58.37 3.54 1.11.97.74 1.54 1.86 1.73 3.36h-1.59c-.23-.99-.63-1.75-1.22-2.31zm5.67.23c.27-.56.64-1.01 1.1-1.36s1-.61 1.63-.78c.62-.17 1.31-.25 2.07-.25.57 0 1.14.05 1.72.16.57.11 1.09.31 1.54.62.46.3.83.73 1.11 1.27s.43 1.26.43 2.13v6.91c0 .64.31.96.93.96.19 0 .35-.03.51-.1v1.34c-.19.04-.35.06-.49.08-.14.02-.32.02-.54.02-.4 0-.73-.05-.97-.16s-.43-.27-.57-.47c-.13-.2-.22-.44-.26-.72s-.06-.58-.06-.92h-.05c-.29.42-.58.8-.87 1.12s-.62.6-.98.82-.77.39-1.24.5c-.46.12-1.01.18-1.65.18-.6 0-1.17-.07-1.7-.21s-.99-.37-1.39-.68a3.23 3.23 0 0 1-.93-1.19c-.23-.48-.34-1.05-.34-1.7 0-.91.2-1.62.61-2.13.4-.51.94-.9 1.6-1.17.67-.27 1.41-.46 2.25-.57s1.68-.22 2.54-.32c.34-.03.63-.07.88-.12s.46-.14.63-.27.3-.3.39-.52c.09-.22.14-.5.14-.86 0-.54-.09-.98-.26-1.32-.18-.34-.42-.62-.73-.82s-.67-.34-1.08-.41c-.41-.08-.85-.11-1.33-.11-1.01 0-1.83.24-2.47.72s-.98 1.25-1.01 2.31h-1.59c0-.77.16-1.43.43-1.98zm7.95 3.88c-.1.19-.29.32-.58.4-.29.09-.54.14-.76.18-.67.12-1.37.23-2.08.32s-1.37.23-1.95.42c-.59.19-1.07.45-1.45.8-.38.34-.57.84-.57 1.48 0 .4.08.76.24 1.07s.37.58.64.81.58.4.93.52c.35.12.71.18 1.09.18.61 0 1.19-.09 1.74-.28.56-.19 1.04-.45 1.45-.81.41-.35.74-.78.98-1.28.24-.51.37-1.08.37-1.72v-2.07l-.05-.02zm10.22-5.9v1.34h-2.65v8.78c0 .52.07.93.21 1.22.14.3.5.46 1.07.49.45 0 .91-.02 1.36-.07v1.34c-.24 0-.47.01-.71.03s-.47.02-.71.02c-1.06 0-1.8-.2-2.22-.62-.42-.41-.62-1.17-.6-2.28v-8.91h-2.27v-1.34h2.27v-3.91h1.59v3.91h2.66zm4.14-5v2.55h-1.59v-2.55h1.59zm0 5v13.02h-1.59V86.63h1.59zm11.42.18c.77.37 1.41.87 1.93 1.49s.92 1.35 1.19 2.18.4 1.72.4 2.66-.13 1.83-.4 2.66c-.27.83-.66 1.56-1.19 2.18a5.69 5.69 0 0 1-1.93 1.48c-.77.36-1.64.54-2.64.54-.99 0-1.87-.18-2.64-.54s-1.41-.85-1.93-1.47-.92-1.35-1.18-2.18c-.27-.83-.4-1.72-.4-2.66s.13-1.83.4-2.66c.27-.83.66-1.56 1.19-2.18s1.17-1.12 1.93-1.49c.77-.37 1.64-.56 2.64-.56.98-.01 1.86.18 2.63.55zm-4.63 1.26c-.57.32-1.05.74-1.43 1.26-.38.52-.67 1.11-.86 1.78-.19.66-.29 1.34-.29 2.03s.1 1.37.29 2.03c.19.66.48 1.25.86 1.78s.85.94 1.43 1.26c.57.32 1.24.48 1.99.48.76 0 1.42-.16 1.99-.48s1.05-.74 1.43-1.26c.38-.52.67-1.11.86-1.78s.29-1.34.29-2.03-.1-1.37-.29-2.03c-.19-.66-.48-1.26-.86-1.78s-.85-.94-1.43-1.26c-.57-.32-1.24-.48-1.99-.48-.76 0-1.42.16-1.99.48zm12.31-1.44v2.25h.05c.3-.79.84-1.43 1.62-1.9.77-.48 1.62-.72 2.55-.72.91 0 1.67.12 2.28.35.61.24 1.11.57 1.48 1s.63.96.78 1.58.23 1.32.23 2.09v8.38h-1.59v-8.12c0-.56-.05-1.07-.15-1.55-.1-.48-.28-.89-.53-1.25-.25-.35-.59-.63-1.02-.83-.43-.2-.96-.3-1.6-.3s-1.21.11-1.7.34c-.5.23-.92.54-1.26.94s-.61.87-.81 1.41c-.19.55-.3 1.14-.31 1.78v7.6h-1.59V86.66h1.57v-.03zm21.07-5v2.55h-1.59v-2.55h1.59zm0 5v13.02h-1.59V86.63h1.59zm10.77 2.54a2.71 2.71 0 0 0-.74-.9 3.23 3.23 0 0 0-1.07-.52c-.4-.11-.83-.16-1.29-.16-.35 0-.71.04-1.07.11s-.69.2-1 .38c-.3.18-.55.41-.73.69-.19.29-.28.64-.28 1.06 0 .35.09.65.26.9.18.24.4.45.67.62.27.17.56.31.89.42.32.11.61.2.88.26l2.12.48c.46.07.9.19 1.35.37.44.18.84.41 1.18.69.35.29.63.64.85 1.06s.33.92.33 1.49c0 .71-.16 1.31-.48 1.81-.32.5-.73.9-1.22 1.21-.5.31-1.06.53-1.68.67s-1.24.2-1.84.2c-1.53 0-2.77-.36-3.72-1.08s-1.49-1.88-1.63-3.48h1.59c.07 1.08.46 1.89 1.17 2.44.72.55 1.6.82 2.66.82.39 0 .79-.04 1.2-.12.41-.09.79-.23 1.15-.43.35-.2.64-.46.87-.77s.34-.69.34-1.15c0-.39-.08-.71-.24-.97s-.37-.48-.64-.65c-.27-.18-.58-.32-.92-.44-.35-.12-.69-.22-1.05-.31l-2.04-.45c-.52-.13-1-.29-1.44-.46-.44-.18-.82-.4-1.15-.66-.33-.26-.59-.58-.77-.96-.18-.38-.28-.85-.28-1.4 0-.65.15-1.22.44-1.69.29-.47.68-.85 1.15-1.14.47-.28 1-.49 1.58-.63.58-.13 1.16-.2 1.73-.2.65 0 1.26.08 1.83.25.56.17 1.06.43 1.49.78.43.35.77.79 1.02 1.31s.4 1.13.43 1.84h-1.59c-.02-.51-.12-.93-.31-1.29zm24.85-7.54v1.46h-10.73v6.51h10.04v1.46h-10.04v7.11h10.85v1.46h-12.56v-18h12.44zm4.07 0v18.02h-1.59V81.63h1.59zm4.45 13.72c.16.61.41 1.17.77 1.65.35.49.8.9 1.34 1.21.54.32 1.19.48 1.94.48 1.16 0 2.07-.3 2.72-.91.66-.6 1.11-1.41 1.36-2.42h1.59c-.34 1.48-.95 2.63-1.85 3.43-.9.81-2.17 1.21-3.82 1.21-1.03 0-1.91-.18-2.66-.54s-1.36-.86-1.83-1.49-.82-1.36-1.05-2.19-.34-1.71-.34-2.64c0-.86.11-1.7.34-2.52s.57-1.56 1.05-2.21c.47-.65 1.08-1.17 1.83-1.57.75-.39 1.64-.59 2.66-.59 1.04 0 1.94.21 2.67.63.74.42 1.34.97 1.81 1.65.46.68.79 1.46 1 2.35.2.88.29 1.78.25 2.69h-10.02c0 .57.08 1.16.24 1.78zm7.87-4.86a4.58 4.58 0 0 0-.82-1.47c-.35-.43-.78-.77-1.29-1.03s-1.07-.39-1.71-.39c-.65 0-1.24.13-1.74.39-.51.26-.93.61-1.29 1.03-.35.43-.64.92-.84 1.49-.21.56-.35 1.14-.42 1.73h8.43c-.02-.62-.13-1.19-.32-1.75zm5.74-3.86v2.19h.07c.42-.81.97-1.44 1.65-1.89s1.55-.68 2.61-.68c.86 0 1.64.21 2.33.63.7.42 1.16 1.06 1.4 1.92.39-.86.96-1.5 1.72-1.92s1.56-.63 2.42-.63c2.88 0 4.31 1.52 4.31 4.56v8.83h-1.59v-8.75c0-1.08-.22-1.9-.68-2.46-.45-.56-1.25-.84-2.4-.84-.69 0-1.26.13-1.72.39-.45.26-.81.61-1.08 1.05-.27.44-.46.94-.57 1.5a9.11 9.11 0 0 0-.17 1.75v7.37h-1.59v-8.83c0-.44-.05-.85-.14-1.25-.09-.4-.24-.74-.45-1.03-.21-.29-.49-.52-.85-.69-.35-.17-.78-.25-1.29-.25-.67 0-1.26.12-1.75.37-.5.24-.9.58-1.21 1.01s-.54.93-.69 1.52c-.15.58-.23 1.22-.23 1.91v7.27h-1.59V86.66l1.49-.03zm20.96 8.72c.16.61.42 1.17.77 1.65.35.49.8.9 1.34 1.21.54.32 1.19.48 1.94.48 1.16 0 2.07-.3 2.73-.91.66-.6 1.11-1.41 1.36-2.42h1.59c-.33 1.48-.95 2.63-1.85 3.43-.9.81-2.17 1.21-3.82 1.21-1.02 0-1.91-.18-2.66-.54s-1.36-.86-1.83-1.49-.82-1.36-1.05-2.19c-.23-.83-.34-1.71-.34-2.64 0-.86.12-1.7.34-2.52.23-.82.57-1.56 1.05-2.21.47-.65 1.08-1.17 1.83-1.57.75-.39 1.64-.59 2.66-.59 1.04 0 1.94.21 2.68.63s1.34.97 1.81 1.65c.46.68.8 1.46 1 2.35s.28 1.78.25 2.69h-10.02c-.02.57.05 1.16.22 1.78zm7.87-4.86a4.58 4.58 0 0 0-.82-1.47c-.35-.43-.78-.77-1.28-1.03-.51-.26-1.08-.39-1.72-.39-.65 0-1.23.13-1.74.39-.5.26-.93.61-1.29 1.03-.35.43-.63.92-.85 1.49-.21.56-.35 1.14-.41 1.73h8.43c-.02-.62-.13-1.19-.32-1.75zm5.84-3.86v2.25h.05c.3-.79.84-1.43 1.62-1.9.77-.48 1.62-.72 2.55-.72.91 0 1.67.12 2.28.35.61.24 1.11.57 1.48 1 .37.43.63.96.78 1.58.15.62.23 1.32.23 2.09v8.38h-1.59v-8.12c0-.56-.05-1.07-.15-1.55-.1-.48-.28-.89-.53-1.25-.25-.35-.59-.63-1.02-.83-.43-.2-.96-.3-1.6-.3s-1.21.11-1.7.34c-.5.23-.92.54-1.26.94-.35.4-.61.87-.81 1.41-.19.55-.3 1.14-.31 1.78v7.6h-1.59V86.66h1.57v-.03zm17.38 0v1.34h-2.65v8.78c0 .52.07.93.22 1.22.14.3.5.46 1.07.49.45 0 .91-.02 1.36-.07v1.34c-.24 0-.47.01-.7.03-.24.02-.47.02-.71.02-1.06 0-1.8-.2-2.22-.62-.42-.41-.62-1.17-.6-2.28v-8.91h-2.27v-1.34h2.27v-3.91h1.59v3.91h2.64zm2.85 2.02c.27-.56.64-1.01 1.1-1.36.47-.35 1.01-.61 1.63-.78s1.31-.25 2.07-.25c.57 0 1.14.05 1.72.16.57.11 1.08.31 1.54.62.45.3.82.73 1.11 1.27.28.55.43 1.26.43 2.13v6.91c0 .64.31.96.94.96.18 0 .35-.03.5-.1v1.34c-.19.04-.35.06-.49.08-.14.02-.32.02-.54.02-.4 0-.73-.05-.97-.16s-.43-.27-.57-.47c-.14-.2-.22-.44-.27-.72a6.46 6.46 0 0 1-.06-.92h-.05c-.28.42-.58.8-.87 1.12a4.184 4.184 0 0 1-2.22 1.32c-.46.12-1.02.18-1.65.18-.6 0-1.17-.07-1.7-.21-.53-.14-.99-.37-1.39-.68-.39-.31-.7-.71-.93-1.19s-.34-1.05-.34-1.7c0-.91.2-1.62.61-2.13.4-.51.94-.9 1.6-1.17.66-.27 1.41-.46 2.25-.57.83-.11 1.68-.22 2.54-.32.34-.03.63-.07.88-.12s.46-.14.63-.27c.17-.13.3-.3.39-.52.09-.22.14-.5.14-.86 0-.54-.09-.98-.26-1.32-.18-.34-.42-.62-.73-.82s-.68-.34-1.09-.41c-.41-.08-.85-.11-1.33-.11-1.01 0-1.83.24-2.47.72s-.98 1.25-1.01 2.31h-1.59c.03-.77.18-1.43.45-1.98zm7.95 3.88c-.1.19-.29.32-.58.4-.29.09-.54.14-.76.18-.67.12-1.37.23-2.08.32s-1.36.23-1.95.42c-.59.19-1.07.45-1.45.8-.38.34-.57.84-.57 1.48 0 .4.08.76.24 1.07.16.31.38.58.65.81.27.23.58.4.93.52.36.12.72.18 1.09.18.61 0 1.19-.09 1.74-.28.56-.19 1.04-.45 1.45-.81.41-.35.74-.78.98-1.28.24-.51.37-1.08.37-1.72v-2.07l-.06-.02zm6.66-10.9v18.02h-1.59V81.63h1.59zM393.85 0c3.05 0 5.45 2.37 5.45 5.38 0 3.08-2.4 5.45-5.48 5.45-3.08 0-5.52-2.37-5.52-5.45 0-3.01 2.44-5.38 5.52-5.38h.03zm-.07.95c-2.44 0-4.3 2-4.3 4.44 0 2.51 1.86 4.47 4.37 4.47 2.44.03 4.23-1.96 4.23-4.43S396.29.96 393.82.96l-.04-.01zm-.95 7.41h-1.05V2.71c.58-.1 1.19-.17 1.96-.17.95 0 1.42.17 1.8.44.34.24.58.68.58 1.19 0 .71-.51 1.15-1.12 1.35v.07c.51.2.78.64.95 1.35.17.88.27 1.22.41 1.42h-1.08c-.17-.2-.3-.71-.44-1.49-.14-.61-.51-.88-1.32-.88h-.68v2.37h-.01zm0-3.18h.71c.78 0 1.46-.23 1.46-.91 0-.54-.34-.91-1.35-.91-.4 0-.64.03-.81.07v1.75h-.01zm-51.77 77.26h-2.78v-.93h6.65v.93h-2.77v7.61h-1.1v-7.61zm5.39-.93h1.76l2.76 6.92 2.67-6.92h1.76v8.54h-1.1V82.5h-.04l-3.02 7.55h-.62l-3.02-7.55h-.04v7.55h-1.1v-8.54h-.01z"/></svg>