<svg xmlns="http://www.w3.org/2000/svg" width="182" height="46"><path fill="#FFF" d="M5.665 28.657c3.271 0 4.418-2.769 4.418-5.388 0-2.617-1.147-5.38-4.418-5.38-2.931 0-4.125 2.762-4.125 5.38.001 2.619 1.194 5.388 4.125 5.388zm5.959.923h-1.418v-2.394h-.049c-.659 1.64-2.658 2.761-4.492 2.761C1.832 29.947 0 26.84 0 23.27c0-3.569 1.832-6.677 5.665-6.677 1.881 0 3.713.955 4.37 2.765h.048V12.12h1.541v17.46zm2.954-.001V16.963h1.536v12.616h-1.536zm0-14.991V12.12h1.536v2.468h-1.536zm15.137 13.964c-.028 3.769-1.467 6.069-5.595 6.069-2.514 0-5.003-1.129-5.223-3.814h1.538c.34 1.856 1.976 2.516 3.685 2.516 2.833 0 4.052-1.681 4.052-4.771V26.84h-.051c-.708 1.543-2.193 2.595-4.002 2.595-4.025 0-5.686-2.885-5.686-6.481 0-3.471 2.05-6.362 5.686-6.362 1.834 0 3.393 1.152 4.002 2.543h.051v-2.172h1.543v11.589zm-1.543-5.43c0-2.469-1.144-5.233-4.052-5.233-2.929 0-4.147 2.62-4.147 5.233 0 2.547 1.316 5.012 4.147 5.012 2.664.001 4.052-2.442 4.052-5.012zm4.495 6.457V16.963h1.536v12.616h-1.536zm0-14.991V12.12h1.536v2.468h-1.536zm6.935 2.375h2.561v1.295h-2.561v8.511c0 1.001.141 1.59 1.24 1.665.439 0 .879-.025 1.322-.075v1.324c-.466 0-.905.046-1.37.046-2.052 0-2.76-.683-2.732-2.839v-8.632h-2.198v-1.295h2.198V13.17h1.54v3.793zm4.638 3.862c.145-2.959 2.22-4.234 5.098-4.234 2.223 0 4.636.688 4.636 4.061v6.701c0 .588.296.928.907.928.169 0 .363-.044.485-.094v1.299a4.29 4.29 0 0 1-.999.092c-1.562 0-1.803-.877-1.803-2.197h-.053c-1.073 1.632-2.172 2.565-4.587 2.565-2.324 0-4.228-1.15-4.228-3.69 0-3.548 3.447-3.672 6.765-4.064 1.271-.145 1.981-.315 1.981-1.709 0-2.078-1.495-2.593-3.301-2.593-1.9 0-3.32.881-3.369 2.935H44.24zm8.203 1.857h-.053c-.194.367-.879.495-1.293.564-2.614.463-5.86.441-5.86 2.912 0 1.538 1.367 2.499 2.809 2.499 2.344 0 4.416-1.493 4.398-3.962v-2.013zm4.634 6.897V12.12h1.538v17.459h-1.538zm9.025-5.6c0 1.984 1.078 3.743 3.398 3.743 1.608 0 2.586-.708 3.074-2.104h2.637c-.607 2.764-2.951 4.308-5.711 4.308-3.957 0-6.177-2.762-6.177-6.658 0-3.592 2.344-6.677 6.1-6.677 3.981 0 6.419 3.601 5.957 7.387h-9.278zm6.496-1.833c-.094-1.76-1.293-3.355-3.174-3.355-1.929 0-3.248 1.47-3.322 3.355h6.496zm4.98 7.433V12.12h2.783v17.459h-2.783zm7.986-5.6c0 1.984 1.073 3.743 3.391 3.743 1.613 0 2.587-.708 3.077-2.104h2.637c-.615 2.764-2.951 4.308-5.713 4.308-3.952 0-6.174-2.762-6.174-6.658 0-3.592 2.343-6.677 6.099-6.677 3.979 0 6.422 3.601 5.959 7.387h-9.276zm6.49-1.833c-.095-1.76-1.294-3.355-3.174-3.355-1.929 0-3.245 1.47-3.316 3.355h6.49zm4.906-5.21h2.632v1.763h.079c.83-1.249 1.876-2.107 3.879-2.107 1.54 0 2.982.66 3.544 2.107.927-1.295 2.126-2.107 3.956-2.107 2.66 0 4.221 1.18 4.221 4.26v8.728h-2.781v-7.387c0-2-.127-3.402-2.296-3.402-1.881 0-2.691 1.253-2.691 3.382v7.408h-2.776v-8.119c0-1.734-.539-2.67-2.225-2.67-1.439 0-2.758 1.179-2.758 3.28v7.51H96.96V16.936zm23.413 7.043c0 1.984 1.078 3.743 3.393 3.743 1.605 0 2.588-.708 3.074-2.104h2.639c-.615 2.764-2.954 4.308-5.713 4.308-3.953 0-6.178-2.762-6.178-6.658 0-3.592 2.347-6.677 6.106-6.677 3.981 0 6.419 3.601 5.955 7.387h-9.276zm6.493-1.833c-.1-1.76-1.295-3.355-3.172-3.355-1.934 0-3.252 1.47-3.321 3.355h6.493zm4.908-5.21h2.635v1.854l.051.048c.833-1.388 2.272-2.246 3.93-2.246 2.739 0 4.465 1.472 4.465 4.305v8.683h-2.781v-7.95c-.048-1.978-.83-2.84-2.468-2.84-1.853 0-3.048 1.47-3.048 3.336v7.454h-2.783V16.936zm12.742 0h2.105V13.14h2.782v3.796h2.512v2.078h-2.512v6.754c0 1.147.093 1.735 1.337 1.735.396 0 .782 0 1.175-.098v2.152c-.612.05-1.198.149-1.809.149-2.905 0-3.438-1.131-3.486-3.231v-7.46h-2.105v-2.079zm32.006-7.893c.478 3.01-.508 5.914-2.441 8.018.08-.108.148-.223.223-.333a7.441 7.441 0 0 1-4.671 2.677c-4.187.63-8.131-2.36-8.809-6.677-.676-4.313 2.175-8.329 6.362-8.957a7.52 7.52 0 0 1 4.884.939c-1.708-1.533-3.864-2.339-6.243-1.969-4.515.704-7.532 5.23-6.748 10.103.589 3.64 3.13 6.444 6.256 7.341-4.197-.574-7.7-3.772-8.388-8.084-.856-5.302 2.833-10.277 8.24-11.12 5.408-.838 10.478 2.771 11.335 8.062zm-8.254 9.403c3.121-.37 5.337-3.333 4.944-6.607-.396-3.278-3.243-5.629-6.366-5.262-3.13.375-5.341 3.336-4.948 6.613.06.495.182.966.346 1.413-.007-.039-.023-.075-.03-.113.507 1.446 2 2.266 3.466 1.892 1.572-.406 2.519-2.055 2.118-3.687-.402-1.624-2-2.615-3.574-2.207a2.88 2.88 0 0 0-1.162.619c1.268-1.654 3.532-2.127 5.346-.996 1.994 1.242 2.66 3.922 1.504 5.988-.859 1.534-2.484 2.295-4.079 2.082a5.419 5.419 0 0 0 2.435.265zM45.303 37.207v7.544h4.591v.667h-5.371v-8.211h.78zm9.05 2.358c.348.168.641.395.878.679s.416.615.539.995c.122.379.184.784.184 1.213 0 .429-.061.834-.184 1.213-.123.38-.303.711-.539.995s-.53.508-.878.673a2.783 2.783 0 0 1-1.199.247c-.452 0-.852-.083-1.199-.247a2.549 2.549 0 0 1-.878-.673 2.907 2.907 0 0 1-.539-.995 3.943 3.943 0 0 1-.184-1.213c0-.43.061-.834.184-1.213.122-.38.302-.711.539-.995.237-.283.53-.51.878-.679a2.727 2.727 0 0 1 1.199-.253c.451 0 .851.085 1.199.253zm-2.106.575a1.99 1.99 0 0 0-.648.575 2.585 2.585 0 0 0-.39.811 3.264 3.264 0 0 0-.132.926c0 .315.043.623.132.926.088.303.218.573.39.811.172.237.389.43.648.575s.562.218.907.218c.344 0 .647-.073.907-.218.26-.145.476-.338.648-.575s.303-.508.39-.811a3.3 3.3 0 0 0 0-1.852c-.088-.303-.218-.573-.39-.811s-.389-.43-.648-.575a1.83 1.83 0 0 0-.907-.218 1.83 1.83 0 0 0-.907.218zm8.516.161c-.268-.253-.643-.38-1.125-.38-.344 0-.647.073-.907.219-.26.145-.476.338-.648.575s-.303.508-.39.811a3.264 3.264 0 0 0-.132.926c0 .315.043.623.132.926.088.303.218.573.39.811s.389.43.648.575c.26.145.562.218.907.218.221 0 .432-.042.631-.126.199-.085.375-.201.528-.351.153-.15.279-.328.379-.535a1.99 1.99 0 0 0 .184-.678h.723c-.1.721-.363 1.282-.792 1.685-.429.403-.98.604-1.653.604-.452 0-.852-.082-1.199-.247a2.549 2.549 0 0 1-.878-.673 2.907 2.907 0 0 1-.539-.995c-.122-.38-.184-.784-.184-1.213s.061-.834.184-1.213c.122-.38.302-.711.539-.995a2.64 2.64 0 0 1 .878-.679 2.727 2.727 0 0 1 1.199-.253c.635 0 1.172.168 1.613.506.439.338.702.847.786 1.529h-.723c-.1-.445-.282-.794-.551-1.047zm2.583.103a1.7 1.7 0 0 1 .499-.621c.211-.161.457-.279.74-.356.283-.076.597-.115.941-.115.26 0 .52.025.78.075.26.05.494.144.7.282s.375.332.505.581c.13.249.195.573.195.972v3.151c0 .292.142.437.425.437a.556.556 0 0 0 .23-.046v.609a2.106 2.106 0 0 1-.471.047c-.184 0-.331-.025-.442-.075a.58.58 0 0 1-.258-.213.8.8 0 0 1-.121-.328 2.698 2.698 0 0 1-.029-.42h-.023c-.13.192-.262.362-.396.512a1.96 1.96 0 0 1-1.01.604c-.211.053-.462.08-.752.08a2.97 2.97 0 0 1-.775-.098 1.712 1.712 0 0 1-.631-.311 1.481 1.481 0 0 1-.425-.541 1.802 1.802 0 0 1-.155-.776c0-.414.092-.738.275-.972.184-.233.426-.412.729-.535.302-.122.643-.209 1.021-.259s.763-.098 1.153-.144c.153-.015.287-.035.402-.057a.69.69 0 0 0 .287-.121.573.573 0 0 0 .178-.236c.042-.099.063-.23.063-.391 0-.246-.04-.446-.121-.604a.958.958 0 0 0-.333-.374 1.351 1.351 0 0 0-.494-.19 3.295 3.295 0 0 0-.603-.052c-.459 0-.834.109-1.125.328-.291.219-.444.569-.459 1.052h-.723c.028-.343.1-.642.223-.895zm3.615 1.771c-.046.085-.134.146-.264.184a2.55 2.55 0 0 1-.344.081c-.307.054-.621.102-.947.144a5.213 5.213 0 0 0-.89.19 1.745 1.745 0 0 0-.66.362c-.172.158-.258.382-.258.673 0 .184.036.347.109.489.073.142.17.264.293.368.122.104.264.182.425.236.161.054.325.081.494.081.275 0 .539-.042.792-.126.253-.084.472-.207.66-.368a1.81 1.81 0 0 0 .448-.587c.111-.23.166-.49.166-.782v-.943h-.024zm4.649-2.691v.61h-1.205v4.002c0 .237.033.424.098.558.065.135.228.209.488.224.207 0 .413-.012.62-.035v.609c-.107 0-.214.004-.321.012a4.304 4.304 0 0 1-.321.012c-.482 0-.819-.094-1.01-.282-.192-.187-.283-.535-.275-1.041v-4.059h-1.033v-.61h1.033v-1.783h.723v1.783h1.203zm1.159 5.934v-5.934h.723v5.934h-.723zm0-7.049v-1.161h.723v1.161h-.723zm5.917 1.196c.348.168.641.395.878.679.237.283.416.615.539.995.122.379.184.784.184 1.213 0 .429-.061.834-.184 1.213-.123.38-.303.711-.539.995a2.56 2.56 0 0 1-.878.673 2.783 2.783 0 0 1-1.199.247c-.452 0-.852-.083-1.199-.247a2.549 2.549 0 0 1-.878-.673c-.238-.283-.417-.615-.539-.995s-.184-.784-.184-1.213c0-.43.061-.834.184-1.213.122-.38.302-.711.539-.995.237-.283.53-.51.878-.679a2.727 2.727 0 0 1 1.199-.253c.45 0 .85.085 1.199.253zm-2.107.575a1.99 1.99 0 0 0-.648.575 2.585 2.585 0 0 0-.39.811 3.264 3.264 0 0 0-.132.926c0 .315.043.623.132.926.088.303.218.573.39.811a2 2 0 0 0 .648.575c.26.145.562.218.907.218.344 0 .647-.073.907-.218a1.99 1.99 0 0 0 .648-.575c.172-.237.303-.508.39-.811a3.3 3.3 0 0 0 0-1.852 2.617 2.617 0 0 0-.39-.811 2 2 0 0 0-.648-.575 1.83 1.83 0 0 0-.907-.218c-.344 0-.647.073-.907.218zm5.602-.656v1.023h.023c.138-.36.383-.65.735-.868a2.153 2.153 0 0 1 1.159-.328c.413 0 .759.053 1.039.161.28.108.503.259.671.454.168.195.287.435.356.719s.103.602.103.955v3.818h-.723v-3.703c0-.253-.023-.489-.069-.707a1.492 1.492 0 0 0-.241-.569 1.172 1.172 0 0 0-.465-.379c-.195-.092-.438-.138-.729-.138s-.549.052-.775.155c-.226.104-.417.246-.574.425s-.28.395-.367.644c-.089.25-.136.52-.143.811v3.461h-.723v-5.934h.723zm8.86 5.934v-5.934h.723v5.934h-.723zm0-7.049v-1.161h.723v1.161h-.723zm5.624 2.271a1.164 1.164 0 0 0-.339-.408 1.402 1.402 0 0 0-.488-.236 2.341 2.341 0 0 0-1.073-.023 1.49 1.49 0 0 0-.453.173.98.98 0 0 0-.333.316.877.877 0 0 0-.126.483c0 .161.04.297.121.408.08.111.181.205.304.282.122.076.256.14.402.19.145.05.279.09.402.121l.964.219c.207.03.412.086.614.167.202.081.382.186.539.316.157.131.285.292.384.483s.149.418.149.679c0 .322-.073.596-.218.822a1.79 1.79 0 0 1-.557.552c-.225.142-.48.243-.763.305a3.903 3.903 0 0 1-.838.092c-.696 0-1.261-.165-1.693-.494-.432-.329-.679-.858-.74-1.587h.723c.03.49.208.861.534 1.11.325.249.729.374 1.211.374.176 0 .357-.019.545-.058.187-.039.362-.104.522-.195s.293-.209.396-.351a.866.866 0 0 0 .155-.523.84.84 0 0 0-.109-.443c-.073-.119-.171-.218-.293-.299s-.262-.148-.419-.201a5.735 5.735 0 0 0-.476-.138l-.93-.207a5.072 5.072 0 0 1-.654-.213 2.095 2.095 0 0 1-.522-.299 1.253 1.253 0 0 1-.35-.437 1.451 1.451 0 0 1-.126-.638c0-.299.067-.556.201-.771.134-.214.308-.387.522-.517a2.45 2.45 0 0 1 .717-.288c.264-.062.526-.092.786-.092.298 0 .576.039.832.115.256.076.482.195.677.356.195.161.35.361.465.598.115.237.18.518.195.84h-.723a1.365 1.365 0 0 0-.137-.583zm11.306-3.433v.667h-4.878v2.967h4.568v.667h-4.568v3.243h4.935v.667h-5.716v-8.211h5.659zm1.124 8.211v-8.211h.723v8.211h-.723zm2.749-1.96c.073.28.189.531.35.753s.363.407.608.552c.245.145.539.218.884.218.528 0 .941-.138 1.24-.414.298-.276.505-.644.62-1.104h.723c-.153.674-.434 1.196-.844 1.564-.41.368-.989.552-1.739.552-.466 0-.871-.082-1.211-.247s-.618-.391-.832-.679a2.931 2.931 0 0 1-.476-1 4.567 4.567 0 0 1 0-2.352c.103-.375.262-.711.476-1.006.214-.295.492-.533.832-.713s.744-.27 1.211-.27c.475 0 .88.096 1.217.287.337.191.61.443.821.753.211.311.362.667.453 1.069s.13.811.115 1.225h-4.557c0 .261.036.531.109.812zm3.581-2.214a2.174 2.174 0 0 0-.373-.673 1.865 1.865 0 0 0-.585-.471 1.67 1.67 0 0 0-.78-.178c-.298 0-.562.059-.792.178-.23.119-.425.276-.585.471-.161.196-.289.421-.384.679s-.159.52-.189.788h3.833a2.663 2.663 0 0 0-.145-.794zm2.611-1.76v1h.034c.191-.368.442-.655.752-.862s.706-.311 1.188-.311c.39 0 .744.096 1.062.288.317.192.53.483.637.874.176-.391.436-.682.78-.874a2.238 2.238 0 0 1 1.102-.288c1.308 0 1.963.694 1.963 2.082v4.025h-.723v-3.99c0-.49-.103-.864-.31-1.121-.207-.257-.57-.385-1.09-.385-.314 0-.574.059-.78.178s-.371.278-.494.477-.208.428-.258.684c-.05.257-.075.523-.075.799v3.358h-.724v-4.025a2.5 2.5 0 0 0-.063-.569 1.31 1.31 0 0 0-.207-.471.989.989 0 0 0-.384-.316 1.362 1.362 0 0 0-.585-.115c-.306 0-.572.056-.798.167a1.49 1.49 0 0 0-.551.46 2.026 2.026 0 0 0-.316.69 3.432 3.432 0 0 0-.103.868v3.312h-.723v-5.934h.666zm9.532 3.974c.073.28.189.531.35.753s.363.407.608.552c.245.145.539.218.884.218.528 0 .941-.138 1.24-.414.298-.276.505-.644.62-1.104h.723c-.153.674-.434 1.196-.844 1.564-.41.368-.989.552-1.739.552-.466 0-.871-.082-1.211-.247a2.23 2.23 0 0 1-.832-.679 2.931 2.931 0 0 1-.476-1 4.567 4.567 0 0 1 0-2.352c.103-.375.262-.711.476-1.006.214-.295.492-.533.832-.713.34-.18.744-.27 1.211-.27.475 0 .88.096 1.217.287.337.191.61.443.821.753s.362.667.453 1.069c.092.403.13.811.115 1.225h-4.557c0 .261.036.531.109.812zm3.581-2.214a2.174 2.174 0 0 0-.373-.673 1.865 1.865 0 0 0-.585-.471 1.67 1.67 0 0 0-.78-.178c-.298 0-.562.059-.792.178-.23.119-.425.276-.585.471a2.346 2.346 0 0 0-.385.679c-.096.257-.159.52-.189.788h3.833a2.63 2.63 0 0 0-.144-.794zm2.657-1.76v1.023h.023c.138-.36.383-.65.735-.868a2.153 2.153 0 0 1 1.159-.328c.413 0 .759.053 1.039.161.28.108.503.259.671.454s.287.435.356.719.103.602.103.955v3.818h-.723v-3.703c0-.253-.023-.489-.069-.707a1.492 1.492 0 0 0-.241-.569c-.115-.161-.27-.287-.465-.379s-.438-.138-.729-.138-.549.052-.775.155c-.226.104-.417.246-.574.425s-.28.395-.367.644c-.089.25-.136.52-.143.811v3.461h-.723v-5.934h.723zm7.908 0v.61h-1.205v4.002c0 .237.033.424.098.558.065.135.228.209.488.224.207 0 .413-.012.62-.035v.609c-.107 0-.214.004-.321.012a4.304 4.304 0 0 1-.321.012c-.482 0-.819-.094-1.01-.282-.192-.187-.283-.535-.275-1.041v-4.059h-1.033v-.61h1.033v-1.783h.723v1.783h1.203zm1.297.92a1.7 1.7 0 0 1 .499-.621c.211-.161.457-.279.74-.356.283-.076.597-.115.941-.115.26 0 .52.025.78.075.26.05.494.144.7.282.207.138.375.332.505.581.13.249.195.573.195.972v3.151c0 .292.142.437.425.437a.556.556 0 0 0 .23-.046v.609a2.106 2.106 0 0 1-.471.047c-.184 0-.331-.025-.442-.075a.58.58 0 0 1-.258-.213.8.8 0 0 1-.121-.328 2.698 2.698 0 0 1-.029-.42h-.023c-.13.192-.262.362-.396.512a1.96 1.96 0 0 1-1.01.604c-.211.053-.462.08-.752.08a2.97 2.97 0 0 1-.775-.098 1.712 1.712 0 0 1-.631-.311c-.18-.141-.321-.322-.425-.541s-.155-.477-.155-.776c0-.414.092-.738.275-.972.184-.233.426-.412.729-.535.302-.122.643-.209 1.021-.259s.763-.098 1.153-.144c.153-.015.287-.035.402-.057a.69.69 0 0 0 .287-.121.573.573 0 0 0 .178-.236c.042-.099.063-.23.063-.391 0-.246-.04-.446-.121-.604a.958.958 0 0 0-.333-.374 1.351 1.351 0 0 0-.494-.19 3.295 3.295 0 0 0-.603-.052c-.459 0-.834.109-1.125.328-.291.219-.444.569-.459 1.052h-.723c.028-.343.1-.642.223-.895zm3.616 1.771c-.046.085-.134.146-.264.184a2.55 2.55 0 0 1-.344.081c-.307.054-.621.102-.947.144a5.18 5.18 0 0 0-.889.19 1.745 1.745 0 0 0-.66.362c-.172.158-.258.382-.258.673 0 .184.036.347.109.489.073.142.17.264.293.368.122.104.264.182.425.236.161.054.325.081.494.081.275 0 .539-.042.792-.126.253-.084.472-.207.66-.368a1.81 1.81 0 0 0 .448-.587c.111-.23.166-.49.166-.782v-.943h-.025zm2.306 3.243v-8.211h.723v8.211h-.723zM179.158 0c1.386 0 2.48 1.08 2.48 2.454 0 1.404-1.094 2.484-2.495 2.484-1.402 0-2.51-1.08-2.51-2.484 0-1.373 1.108-2.454 2.51-2.454h.015zm-.03.432c-1.108 0-1.955.91-1.955 2.022 0 1.142.847 2.036 1.986 2.036 1.109.016 1.926-.895 1.926-2.022 0-1.126-.817-2.036-1.941-2.036h-.016zm-.431 3.379h-.477V1.235c.262-.047.539-.077.893-.077.431 0 .647.077.817.2a.662.662 0 0 1 .262.54c0 .324-.23.524-.508.617v.031c.231.092.354.293.431.617.077.401.123.555.185.648h-.493c-.077-.093-.139-.324-.201-.679-.061-.278-.23-.401-.6-.401h-.308v1.08zm0-1.45h.324c.354 0 .662-.108.662-.416 0-.247-.153-.416-.616-.416-.184 0-.293.015-.37.03v.802zM157.599 37.15h.802l1.254 3.155 1.216-3.155h.802v3.892h-.5v-3.438h-.019l-1.376 3.438h-.282l-1.377-3.438h-.019v3.438h-.499V37.15zm-2.452.425h-1.263v-.425h3.026v.425h-1.263v3.466h-.499v-3.466z"/><defs><filter id="a" filterUnits="userSpaceOnUse" x="0" y="0" width="183" height="46"><feColorMatrix values="1 0 0 0 0 0 1 0 0 0 0 0 1 0 0 0 0 0 1 0"/></filter></defs><mask maskUnits="userSpaceOnUse" x="0" y="0" width="183" height="46" id="b"><path fill="#FFF" d="M5.665 28.657c3.271 0 4.418-2.769 4.418-5.388 0-2.617-1.147-5.38-4.418-5.38-2.931 0-4.125 2.762-4.125 5.38.001 2.619 1.194 5.388 4.125 5.388zm5.959.923h-1.418v-2.394h-.049c-.659 1.64-2.658 2.761-4.492 2.761C1.832 29.947 0 26.84 0 23.27c0-3.569 1.832-6.677 5.665-6.677 1.881 0 3.713.955 4.37 2.765h.048V12.12h1.541v17.46zm2.954-.001V16.963h1.536v12.616h-1.536zm0-14.991V12.12h1.536v2.468h-1.536zm15.137 13.964c-.028 3.769-1.467 6.069-5.595 6.069-2.514 0-5.003-1.129-5.223-3.814h1.538c.34 1.856 1.976 2.516 3.685 2.516 2.833 0 4.052-1.681 4.052-4.771V26.84h-.051c-.708 1.543-2.193 2.595-4.002 2.595-4.025 0-5.686-2.885-5.686-6.481 0-3.471 2.05-6.362 5.686-6.362 1.834 0 3.393 1.152 4.002 2.543h.051v-2.172h1.543v11.589zm-1.543-5.43c0-2.469-1.144-5.233-4.052-5.233-2.929 0-4.147 2.62-4.147 5.233 0 2.547 1.316 5.012 4.147 5.012 2.664.001 4.052-2.442 4.052-5.012zm4.495 6.457V16.963h1.536v12.616h-1.536zm0-14.991V12.12h1.536v2.468h-1.536zm6.935 2.375h2.561v1.295h-2.561v8.511c0 1.001.141 1.59 1.24 1.665.439 0 .879-.025 1.322-.075v1.324c-.466 0-.905.046-1.37.046-2.052 0-2.76-.683-2.732-2.839v-8.632h-2.198v-1.295h2.198V13.17h1.54v3.793zm4.638 3.862c.145-2.959 2.22-4.234 5.098-4.234 2.223 0 4.636.688 4.636 4.061v6.701c0 .588.296.928.907.928.169 0 .363-.044.485-.094v1.299a4.29 4.29 0 0 1-.999.092c-1.562 0-1.803-.877-1.803-2.197h-.053c-1.073 1.632-2.172 2.565-4.587 2.565-2.324 0-4.228-1.15-4.228-3.69 0-3.548 3.447-3.672 6.765-4.064 1.271-.145 1.981-.315 1.981-1.709 0-2.078-1.495-2.593-3.301-2.593-1.9 0-3.32.881-3.369 2.935H44.24zm8.203 1.857h-.053c-.194.367-.879.495-1.293.564-2.614.463-5.86.441-5.86 2.912 0 1.538 1.367 2.499 2.809 2.499 2.344 0 4.416-1.493 4.398-3.962v-2.013zm4.634 6.897V12.12h1.538v17.459h-1.538zm9.025-5.6c0 1.984 1.078 3.743 3.398 3.743 1.608 0 2.586-.708 3.074-2.104h2.637c-.607 2.764-2.951 4.308-5.711 4.308-3.957 0-6.177-2.762-6.177-6.658 0-3.592 2.344-6.677 6.1-6.677 3.981 0 6.419 3.601 5.957 7.387h-9.278zm6.496-1.833c-.094-1.76-1.293-3.355-3.174-3.355-1.929 0-3.248 1.47-3.322 3.355h6.496zm4.98 7.433V12.12h2.783v17.459h-2.783zm7.986-5.6c0 1.984 1.073 3.743 3.391 3.743 1.613 0 2.587-.708 3.077-2.104h2.637c-.615 2.764-2.951 4.308-5.713 4.308-3.952 0-6.174-2.762-6.174-6.658 0-3.592 2.343-6.677 6.099-6.677 3.979 0 6.422 3.601 5.959 7.387h-9.276zm6.49-1.833c-.095-1.76-1.294-3.355-3.174-3.355-1.929 0-3.245 1.47-3.316 3.355h6.49zm4.906-5.21h2.632v1.763h.079c.83-1.249 1.876-2.107 3.879-2.107 1.54 0 2.982.66 3.544 2.107.927-1.295 2.126-2.107 3.956-2.107 2.66 0 4.221 1.18 4.221 4.26v8.728h-2.781v-7.387c0-2-.127-3.402-2.296-3.402-1.881 0-2.691 1.253-2.691 3.382v7.408h-2.776v-8.119c0-1.734-.539-2.67-2.225-2.67-1.439 0-2.758 1.179-2.758 3.28v7.51H96.96V16.936zm23.413 7.043c0 1.984 1.078 3.743 3.393 3.743 1.605 0 2.588-.708 3.074-2.104h2.639c-.615 2.764-2.954 4.308-5.713 4.308-3.953 0-6.178-2.762-6.178-6.658 0-3.592 2.347-6.677 6.106-6.677 3.981 0 6.419 3.601 5.955 7.387h-9.276zm6.493-1.833c-.1-1.76-1.295-3.355-3.172-3.355-1.934 0-3.252 1.47-3.321 3.355h6.493zm4.908-5.21h2.635v1.854l.051.048c.833-1.388 2.272-2.246 3.93-2.246 2.739 0 4.465 1.472 4.465 4.305v8.683h-2.781v-7.95c-.048-1.978-.83-2.84-2.468-2.84-1.853 0-3.048 1.47-3.048 3.336v7.454h-2.783V16.936zm12.742 0h2.105V13.14h2.782v3.796h2.512v2.078h-2.512v6.754c0 1.147.093 1.735 1.337 1.735.396 0 .782 0 1.175-.098v2.152c-.612.05-1.198.149-1.809.149-2.905 0-3.438-1.131-3.486-3.231v-7.46h-2.105v-2.079zm32.006-7.893c.478 3.01-.508 5.914-2.441 8.018.08-.108.148-.223.223-.333a7.441 7.441 0 0 1-4.671 2.677c-4.187.63-8.131-2.36-8.809-6.677-.676-4.313 2.175-8.329 6.362-8.957a7.52 7.52 0 0 1 4.884.939c-1.708-1.533-3.864-2.339-6.243-1.969-4.515.704-7.532 5.23-6.748 10.103.589 3.64 3.13 6.444 6.256 7.341-4.197-.574-7.7-3.772-8.388-8.084-.856-5.302 2.833-10.277 8.24-11.12 5.408-.838 10.478 2.771 11.335 8.062zm-8.254 9.403c3.121-.37 5.337-3.333 4.944-6.607-.396-3.278-3.243-5.629-6.366-5.262-3.13.375-5.341 3.336-4.948 6.613.06.495.182.966.346 1.413-.007-.039-.023-.075-.03-.113.507 1.446 2 2.266 3.466 1.892 1.572-.406 2.519-2.055 2.118-3.687-.402-1.624-2-2.615-3.574-2.207a2.88 2.88 0 0 0-1.162.619c1.268-1.654 3.532-2.127 5.346-.996 1.994 1.242 2.66 3.922 1.504 5.988-.859 1.534-2.484 2.295-4.079 2.082a5.419 5.419 0 0 0 2.435.265zM45.303 37.207v7.544h4.591v.667h-5.371v-8.211h.78zm9.05 2.358c.348.168.641.395.878.679s.416.615.539.995c.122.379.184.784.184 1.213 0 .429-.061.834-.184 1.213-.123.38-.303.711-.539.995s-.53.508-.878.673a2.783 2.783 0 0 1-1.199.247c-.452 0-.852-.083-1.199-.247a2.549 2.549 0 0 1-.878-.673 2.907 2.907 0 0 1-.539-.995 3.943 3.943 0 0 1-.184-1.213c0-.43.061-.834.184-1.213.122-.38.302-.711.539-.995.237-.283.53-.51.878-.679a2.727 2.727 0 0 1 1.199-.253c.451 0 .851.085 1.199.253zm-2.106.575a1.99 1.99 0 0 0-.648.575 2.585 2.585 0 0 0-.39.811 3.264 3.264 0 0 0-.132.926c0 .315.043.623.132.926.088.303.218.573.39.811.172.237.389.43.648.575s.562.218.907.218c.344 0 .647-.073.907-.218.26-.145.476-.338.648-.575s.303-.508.39-.811a3.3 3.3 0 0 0 0-1.852c-.088-.303-.218-.573-.39-.811s-.389-.43-.648-.575a1.83 1.83 0 0 0-.907-.218 1.83 1.83 0 0 0-.907.218zm8.516.161c-.268-.253-.643-.38-1.125-.38-.344 0-.647.073-.907.219-.26.145-.476.338-.648.575s-.303.508-.39.811a3.264 3.264 0 0 0-.132.926c0 .315.043.623.132.926.088.303.218.573.39.811s.389.43.648.575c.26.145.562.218.907.218.221 0 .432-.042.631-.126.199-.085.375-.201.528-.351.153-.15.279-.328.379-.535a1.99 1.99 0 0 0 .184-.678h.723c-.1.721-.363 1.282-.792 1.685-.429.403-.98.604-1.653.604-.452 0-.852-.082-1.199-.247a2.549 2.549 0 0 1-.878-.673 2.907 2.907 0 0 1-.539-.995c-.122-.38-.184-.784-.184-1.213s.061-.834.184-1.213c.122-.38.302-.711.539-.995a2.64 2.64 0 0 1 .878-.679 2.727 2.727 0 0 1 1.199-.253c.635 0 1.172.168 1.613.506.439.338.702.847.786 1.529h-.723c-.1-.445-.282-.794-.551-1.047zm2.583.103a1.7 1.7 0 0 1 .499-.621c.211-.161.457-.279.74-.356.283-.076.597-.115.941-.115.26 0 .52.025.78.075.26.05.494.144.7.282s.375.332.505.581c.13.249.195.573.195.972v3.151c0 .292.142.437.425.437a.556.556 0 0 0 .23-.046v.609a2.106 2.106 0 0 1-.471.047c-.184 0-.331-.025-.442-.075a.58.58 0 0 1-.258-.213.8.8 0 0 1-.121-.328 2.698 2.698 0 0 1-.029-.42h-.023c-.13.192-.262.362-.396.512a1.96 1.96 0 0 1-1.01.604c-.211.053-.462.08-.752.08a2.97 2.97 0 0 1-.775-.098 1.712 1.712 0 0 1-.631-.311 1.481 1.481 0 0 1-.425-.541 1.802 1.802 0 0 1-.155-.776c0-.414.092-.738.275-.972.184-.233.426-.412.729-.535.302-.122.643-.209 1.021-.259s.763-.098 1.153-.144c.153-.015.287-.035.402-.057a.69.69 0 0 0 .287-.121.573.573 0 0 0 .178-.236c.042-.099.063-.23.063-.391 0-.246-.04-.446-.121-.604a.958.958 0 0 0-.333-.374 1.351 1.351 0 0 0-.494-.19 3.295 3.295 0 0 0-.603-.052c-.459 0-.834.109-1.125.328-.291.219-.444.569-.459 1.052h-.723c.028-.343.1-.642.223-.895zm3.615 1.771c-.046.085-.134.146-.264.184a2.55 2.55 0 0 1-.344.081c-.307.054-.621.102-.947.144a5.213 5.213 0 0 0-.89.19 1.745 1.745 0 0 0-.66.362c-.172.158-.258.382-.258.673 0 .184.036.347.109.489.073.142.17.264.293.368.122.104.264.182.425.236.161.054.325.081.494.081.275 0 .539-.042.792-.126.253-.084.472-.207.66-.368a1.81 1.81 0 0 0 .448-.587c.111-.23.166-.49.166-.782v-.943h-.024zm4.649-2.691v.61h-1.205v4.002c0 .237.033.424.098.558.065.135.228.209.488.224.207 0 .413-.012.62-.035v.609c-.107 0-.214.004-.321.012a4.304 4.304 0 0 1-.321.012c-.482 0-.819-.094-1.01-.282-.192-.187-.283-.535-.275-1.041v-4.059h-1.033v-.61h1.033v-1.783h.723v1.783h1.203zm1.159 5.934v-5.934h.723v5.934h-.723zm0-7.049v-1.161h.723v1.161h-.723zm5.917 1.196c.348.168.641.395.878.679.237.283.416.615.539.995.122.379.184.784.184 1.213 0 .429-.061.834-.184 1.213-.123.38-.303.711-.539.995a2.56 2.56 0 0 1-.878.673 2.783 2.783 0 0 1-1.199.247c-.452 0-.852-.083-1.199-.247a2.549 2.549 0 0 1-.878-.673c-.238-.283-.417-.615-.539-.995s-.184-.784-.184-1.213c0-.43.061-.834.184-1.213.122-.38.302-.711.539-.995.237-.283.53-.51.878-.679a2.727 2.727 0 0 1 1.199-.253c.45 0 .85.085 1.199.253zm-2.107.575a1.99 1.99 0 0 0-.648.575 2.585 2.585 0 0 0-.39.811 3.264 3.264 0 0 0-.132.926c0 .315.043.623.132.926.088.303.218.573.39.811a2 2 0 0 0 .648.575c.26.145.562.218.907.218.344 0 .647-.073.907-.218a1.99 1.99 0 0 0 .648-.575c.172-.237.303-.508.39-.811a3.3 3.3 0 0 0 0-1.852 2.617 2.617 0 0 0-.39-.811 2 2 0 0 0-.648-.575 1.83 1.83 0 0 0-.907-.218c-.344 0-.647.073-.907.218zm5.602-.656v1.023h.023c.138-.36.383-.65.735-.868a2.153 2.153 0 0 1 1.159-.328c.413 0 .759.053 1.039.161.28.108.503.259.671.454.168.195.287.435.356.719s.103.602.103.955v3.818h-.723v-3.703c0-.253-.023-.489-.069-.707a1.492 1.492 0 0 0-.241-.569 1.172 1.172 0 0 0-.465-.379c-.195-.092-.438-.138-.729-.138s-.549.052-.775.155c-.226.104-.417.246-.574.425s-.28.395-.367.644c-.089.25-.136.52-.143.811v3.461h-.723v-5.934h.723zm8.86 5.934v-5.934h.723v5.934h-.723zm0-7.049v-1.161h.723v1.161h-.723zm5.624 2.271a1.164 1.164 0 0 0-.339-.408 1.402 1.402 0 0 0-.488-.236 2.341 2.341 0 0 0-1.073-.023 1.49 1.49 0 0 0-.453.173.98.98 0 0 0-.333.316.877.877 0 0 0-.126.483c0 .161.04.297.121.408.08.111.181.205.304.282.122.076.256.14.402.19.145.05.279.09.402.121l.964.219c.207.03.412.086.614.167.202.081.382.186.539.316.157.131.285.292.384.483s.149.418.149.679c0 .322-.073.596-.218.822a1.79 1.79 0 0 1-.557.552c-.225.142-.48.243-.763.305a3.903 3.903 0 0 1-.838.092c-.696 0-1.261-.165-1.693-.494-.432-.329-.679-.858-.74-1.587h.723c.03.49.208.861.534 1.11.325.249.729.374 1.211.374.176 0 .357-.019.545-.058.187-.039.362-.104.522-.195s.293-.209.396-.351a.866.866 0 0 0 .155-.523.84.84 0 0 0-.109-.443c-.073-.119-.171-.218-.293-.299s-.262-.148-.419-.201a5.735 5.735 0 0 0-.476-.138l-.93-.207a5.072 5.072 0 0 1-.654-.213 2.095 2.095 0 0 1-.522-.299 1.253 1.253 0 0 1-.35-.437 1.451 1.451 0 0 1-.126-.638c0-.299.067-.556.201-.771.134-.214.308-.387.522-.517a2.45 2.45 0 0 1 .717-.288c.264-.062.526-.092.786-.092.298 0 .576.039.832.115.256.076.482.195.677.356.195.161.35.361.465.598.115.237.18.518.195.84h-.723a1.365 1.365 0 0 0-.137-.583zm11.306-3.433v.667h-4.878v2.967h4.568v.667h-4.568v3.243h4.935v.667h-5.716v-8.211h5.659zm1.124 8.211v-8.211h.723v8.211h-.723zm2.749-1.96c.073.28.189.531.35.753s.363.407.608.552c.245.145.539.218.884.218.528 0 .941-.138 1.24-.414.298-.276.505-.644.62-1.104h.723c-.153.674-.434 1.196-.844 1.564-.41.368-.989.552-1.739.552-.466 0-.871-.082-1.211-.247s-.618-.391-.832-.679a2.931 2.931 0 0 1-.476-1 4.567 4.567 0 0 1 0-2.352c.103-.375.262-.711.476-1.006.214-.295.492-.533.832-.713s.744-.27 1.211-.27c.475 0 .88.096 1.217.287.337.191.61.443.821.753.211.311.362.667.453 1.069s.13.811.115 1.225h-4.557c0 .261.036.531.109.812zm3.581-2.214a2.174 2.174 0 0 0-.373-.673 1.865 1.865 0 0 0-.585-.471 1.67 1.67 0 0 0-.78-.178c-.298 0-.562.059-.792.178-.23.119-.425.276-.585.471-.161.196-.289.421-.384.679s-.159.52-.189.788h3.833a2.663 2.663 0 0 0-.145-.794zm2.611-1.76v1h.034c.191-.368.442-.655.752-.862s.706-.311 1.188-.311c.39 0 .744.096 1.062.288.317.192.53.483.637.874.176-.391.436-.682.78-.874a2.238 2.238 0 0 1 1.102-.288c1.308 0 1.963.694 1.963 2.082v4.025h-.723v-3.99c0-.49-.103-.864-.31-1.121-.207-.257-.57-.385-1.09-.385-.314 0-.574.059-.78.178s-.371.278-.494.477-.208.428-.258.684c-.05.257-.075.523-.075.799v3.358h-.724v-4.025a2.5 2.5 0 0 0-.063-.569 1.31 1.31 0 0 0-.207-.471.989.989 0 0 0-.384-.316 1.362 1.362 0 0 0-.585-.115c-.306 0-.572.056-.798.167a1.49 1.49 0 0 0-.551.46 2.026 2.026 0 0 0-.316.69 3.432 3.432 0 0 0-.103.868v3.312h-.723v-5.934h.666zm9.532 3.974c.073.28.189.531.35.753s.363.407.608.552c.245.145.539.218.884.218.528 0 .941-.138 1.24-.414.298-.276.505-.644.62-1.104h.723c-.153.674-.434 1.196-.844 1.564-.41.368-.989.552-1.739.552-.466 0-.871-.082-1.211-.247a2.23 2.23 0 0 1-.832-.679 2.931 2.931 0 0 1-.476-1 4.567 4.567 0 0 1 0-2.352c.103-.375.262-.711.476-1.006.214-.295.492-.533.832-.713.34-.18.744-.27 1.211-.27.475 0 .88.096 1.217.287.337.191.61.443.821.753s.362.667.453 1.069c.092.403.13.811.115 1.225h-4.557c0 .261.036.531.109.812zm3.581-2.214a2.174 2.174 0 0 0-.373-.673 1.865 1.865 0 0 0-.585-.471 1.67 1.67 0 0 0-.78-.178c-.298 0-.562.059-.792.178-.23.119-.425.276-.585.471a2.346 2.346 0 0 0-.385.679c-.096.257-.159.52-.189.788h3.833a2.63 2.63 0 0 0-.144-.794zm2.657-1.76v1.023h.023c.138-.36.383-.65.735-.868a2.153 2.153 0 0 1 1.159-.328c.413 0 .759.053 1.039.161.28.108.503.259.671.454s.287.435.356.719.103.602.103.955v3.818h-.723v-3.703c0-.253-.023-.489-.069-.707a1.492 1.492 0 0 0-.241-.569c-.115-.161-.27-.287-.465-.379s-.438-.138-.729-.138-.549.052-.775.155c-.226.104-.417.246-.574.425s-.28.395-.367.644c-.089.25-.136.52-.143.811v3.461h-.723v-5.934h.723zm7.908 0v.61h-1.205v4.002c0 .237.033.424.098.558.065.135.228.209.488.224.207 0 .413-.012.62-.035v.609c-.107 0-.214.004-.321.012a4.304 4.304 0 0 1-.321.012c-.482 0-.819-.094-1.01-.282-.192-.187-.283-.535-.275-1.041v-4.059h-1.033v-.61h1.033v-1.783h.723v1.783h1.203zm1.297.92a1.7 1.7 0 0 1 .499-.621c.211-.161.457-.279.74-.356.283-.076.597-.115.941-.115.26 0 .52.025.78.075.26.05.494.144.7.282.207.138.375.332.505.581.13.249.195.573.195.972v3.151c0 .292.142.437.425.437a.556.556 0 0 0 .23-.046v.609a2.106 2.106 0 0 1-.471.047c-.184 0-.331-.025-.442-.075a.58.58 0 0 1-.258-.213.8.8 0 0 1-.121-.328 2.698 2.698 0 0 1-.029-.42h-.023c-.13.192-.262.362-.396.512a1.96 1.96 0 0 1-1.01.604c-.211.053-.462.08-.752.08a2.97 2.97 0 0 1-.775-.098 1.712 1.712 0 0 1-.631-.311c-.18-.141-.321-.322-.425-.541s-.155-.477-.155-.776c0-.414.092-.738.275-.972.184-.233.426-.412.729-.535.302-.122.643-.209 1.021-.259s.763-.098 1.153-.144c.153-.015.287-.035.402-.057a.69.69 0 0 0 .287-.121.573.573 0 0 0 .178-.236c.042-.099.063-.23.063-.391 0-.246-.04-.446-.121-.604a.958.958 0 0 0-.333-.374 1.351 1.351 0 0 0-.494-.19 3.295 3.295 0 0 0-.603-.052c-.459 0-.834.109-1.125.328-.291.219-.444.569-.459 1.052h-.723c.028-.343.1-.642.223-.895zm3.616 1.771c-.046.085-.134.146-.264.184a2.55 2.55 0 0 1-.344.081c-.307.054-.621.102-.947.144a5.18 5.18 0 0 0-.889.19 1.745 1.745 0 0 0-.66.362c-.172.158-.258.382-.258.673 0 .184.036.347.109.489.073.142.17.264.293.368.122.104.264.182.425.236.161.054.325.081.494.081.275 0 .539-.042.792-.126.253-.084.472-.207.66-.368a1.81 1.81 0 0 0 .448-.587c.111-.23.166-.49.166-.782v-.943h-.025zm2.306 3.243v-8.211h.723v8.211h-.723zM179.158 0c1.386 0 2.48 1.08 2.48 2.454 0 1.404-1.094 2.484-2.495 2.484-1.402 0-2.51-1.08-2.51-2.484 0-1.373 1.108-2.454 2.51-2.454h.015zm-.03.432c-1.108 0-1.955.91-1.955 2.022 0 1.142.847 2.036 1.986 2.036 1.109.016 1.926-.895 1.926-2.022 0-1.126-.817-2.036-1.941-2.036h-.016zm-.431 3.379h-.477V1.235c.262-.047.539-.077.893-.077.431 0 .647.077.817.2a.662.662 0 0 1 .262.54c0 .324-.23.524-.508.617v.031c.231.092.354.293.431.617.077.401.123.555.185.648h-.493c-.077-.093-.139-.324-.201-.679-.061-.278-.23-.401-.6-.401h-.308v1.08zm0-1.45h.324c.354 0 .662-.108.662-.416 0-.247-.153-.416-.616-.416-.184 0-.293.015-.37.03v.802zM157.599 37.15h.802l1.254 3.155 1.216-3.155h.802v3.892h-.5v-3.438h-.019l-1.376 3.438h-.282l-1.377-3.438h-.019v3.438h-.499V37.15zm-2.452.425h-1.263v-.425h3.026v.425h-1.263v3.466h-.499v-3.466z" filter="url(#a)"/></mask><g mask="url(#b)"><path fill="#FFF" d="M0 0h183v46H0z"/></g></svg>