<svg xmlns="http://www.w3.org/2000/svg" width="278" height="194"><path fill="#FFF" d="M0 0h278v194H0z"/><path fill="none" stroke="#45557A" stroke-miterlimit="10" d="M106.836 79.066c-5.186.967-10.735.814-15.852-.461l-8.87 8.87v-12.48c-7.192-4.293-11.307-10.758-11.307-17.789 0-12.401 13.076-22.491 29.147-22.491 12.088 0 22.744 5.606 27.148 14.282m68.288 16.944l-4.74-4.74c-1.531.38-3.122.572-4.731.572-8.519 0-15.45-5.351-15.45-11.929 0-6.579 6.931-11.931 15.45-11.931 8.519 0 15.449 5.352 15.449 11.931 0 3.725-2.176 7.15-5.978 9.427v6.67z"/><circle fill="none" stroke="#45557A" stroke-miterlimit="10" cx="192.958" cy="49.843" r="2.004"/><circle fill="none" stroke="#45557A" stroke-miterlimit="10" cx="185.919" cy="49.843" r="2.004"/><circle fill="none" stroke="#45557A" stroke-miterlimit="10" cx="178.88" cy="49.843" r="2.004"/><path fill="none" stroke="#E2924F" stroke-miterlimit="10" d="M169.248 97.25l-5.078 2.67.97-5.655-4.108-4.005 5.678-.826 2.538-5.145 2.54 5.145 5.678.826-4.108 4.005.97 5.655z"/><path d="M154.617 73.027V60.522c0-6.476-5.268-11.744-11.743-11.744h-24.489c-6.475 0-11.744 5.268-11.744 11.744v66.862c0 6.475 5.268 11.742 11.744 11.742h24.489c6.475 0 11.743-5.267 11.743-11.742v-6.01m-47.975-57.297h47.975m-47.975 59.951h47.975m-28.699-68.183h9.423m-9.423 76.634h9.423" fill="none" stroke="#45557A" stroke-miterlimit="10"/><g fill="none" stroke="#E2924F" stroke-linecap="round" stroke-linejoin="round" stroke-miterlimit="10"><path stroke-width="2" d="M169.247 68.369c-13.911 0-25.192 11.277-25.192 25.194 0 13.91 25.192 52.07 25.192 52.07s25.196-38.159 25.196-52.07c0-13.917-11.281-25.194-25.196-25.194z"/><path d="M169.249 76.897c-9.192 0-16.669 7.477-16.669 16.667 0 9.191 7.477 16.668 16.669 16.668 9.191 0 16.67-7.477 16.67-16.668 0-9.19-7.479-16.667-16.67-16.667z"/></g><circle fill="none" stroke="#45557A" stroke-width="2" stroke-miterlimit="10" cx="242.786" cy="144.138" r="17.595"/><circle fill="none" stroke="#45557A" stroke-miterlimit="10" cx="227.606" cy="93.991" r="21.762"/><path fill="none" stroke="#45557A" stroke-miterlimit="10" d="M234.139 114.688l3.87 12.704m-31.387-27.878l-14.174 4.317"/><circle fill="none" stroke="#45557A" stroke-width="2" stroke-miterlimit="10" cx="62.417" cy="123.166" r="28.774"/><circle fill="none" stroke="#45557A" stroke-miterlimit="10" cx="40.885" cy="55.533" r="23.264"/><path fill="none" stroke="#45557A" stroke-miterlimit="10" d="M53.794 95.717l-5.791-18.033m41.567 36.709l17.28-5.926"/><g fill="none" stroke="#6F8CBF" stroke-linecap="round" stroke-linejoin="round" stroke-miterlimit="10"><path d="M41.276 39.069c-5.982 0-10.833 4.85-10.833 10.834 0 5.982 10.833 22.392 10.833 22.392s10.835-16.41 10.835-22.392c0-5.985-4.851-10.834-10.835-10.834z"/><path d="M41.277 42.736c-3.953 0-7.168 3.215-7.168 7.167s3.215 7.168 7.168 7.168c3.953 0 7.169-3.216 7.169-7.168s-3.216-7.167-7.169-7.167z"/></g><g fill="none" stroke="#6F8CBF" stroke-linecap="round" stroke-linejoin="round" stroke-miterlimit="10"><path d="M227.606 78.319c-5.687 0-10.298 4.61-10.298 10.299 0 5.686 10.298 21.285 10.298 21.285s10.299-15.598 10.299-21.285c0-5.689-4.611-10.299-10.299-10.299z"/><path d="M227.606 81.805a6.821 6.821 0 0 0-6.814 6.813 6.82 6.82 0 0 0 6.814 6.813c3.757 0 6.814-3.057 6.814-6.813.001-3.757-3.056-6.813-6.814-6.813z"/></g><g fill="none" stroke="#6F8CBF" stroke-linecap="round" stroke-linejoin="round" stroke-miterlimit="10"><path d="M62.416 102.627c-7.429 0-13.453 6.023-13.453 13.454 0 7.429 13.453 27.807 13.453 27.807s13.455-20.378 13.455-27.807c0-7.432-6.024-13.454-13.455-13.454z"/><path d="M62.417 107.181c-4.909 0-8.902 3.993-8.902 8.901 0 4.908 3.993 8.901 8.902 8.901 4.908 0 8.902-3.993 8.902-8.901 0-4.908-3.994-8.901-8.902-8.901z"/></g><g fill="none" stroke="#6F8CBF" stroke-linecap="round" stroke-linejoin="round" stroke-miterlimit="10"><path d="M242.785 131.467a8.263 8.263 0 0 0-8.263 8.264c0 4.562 8.263 17.078 8.263 17.078s8.264-12.516 8.264-17.078c0-4.565-3.7-8.264-8.264-8.264z"/><path d="M242.786 134.264a5.473 5.473 0 0 0-5.467 5.467 5.473 5.473 0 0 0 5.467 5.467 5.474 5.474 0 0 0 5.468-5.467 5.475 5.475 0 0 0-5.468-5.467z"/></g></svg>