<svg xmlns="http://www.w3.org/2000/svg" width="1417.675" height="269.763" viewBox="0 573.779 1417.675 269.763"><path fill="#808285" d="M90.513 804.142H79.509V785.33h-.355c-5.324 12.778-20.587 21.652-35.14 21.652C14.198 806.981 0 782.845 0 754.804c0-27.686 14.198-51.823 44.014-51.823 14.553 0 29.106 7.454 34.075 21.652h.355v-56.437h12.068v135.946h.001zm-46.499-7.099c25.556 0 34.43-21.652 34.43-41.884s-8.874-41.884-34.43-41.884c-22.717 0-32.301 21.652-32.301 41.884.355 20.232 9.584 41.884 32.301 41.884zm69.57-128.848h12.068v19.167h-12.068v-19.167zm0 37.625h12.068v98.322h-12.068V705.82zm118.199 90.158c0 29.461-11.358 47.563-43.659 47.563-19.522 0-39.045-8.874-40.819-29.816h12.068c2.84 14.553 15.263 19.522 28.751 19.522 22.007 0 31.591-13.133 31.591-37.27V782.49h-.355c-5.679 12.068-17.038 20.232-31.236 20.232-31.236 0-44.369-22.362-44.369-50.403 0-26.976 15.973-49.693 44.369-49.693 14.198 0 26.621 8.874 31.236 19.877h.355v-17.038h12.068v90.513zm-12.068-42.239c0-19.167-8.874-40.819-31.591-40.819s-32.301 20.587-32.301 40.819c0 19.877 10.294 39.045 32.301 39.045 20.942-.001 31.591-18.813 31.591-39.045zm35.14-85.544h12.068v19.167h-12.068v-19.167zm0 37.625h12.068v98.322h-12.068V705.82zm54.307 0h19.877v9.939h-19.877v66.376c0 7.809 1.065 12.423 9.584 13.133 3.55 0 6.744 0 10.294-.71v10.294c-3.55 0-7.099.355-10.649.355-15.973 0-21.652-5.324-21.297-22.007v-67.086h-17.038v-9.939h17.038v-29.461h12.068v29.106zm36.205 30.171c1.065-23.072 17.393-33.01 39.755-33.01 17.393 0 36.205 5.324 36.205 31.591v52.178c0 4.614 2.485 7.099 7.099 7.099 1.42 0 2.84-.355 3.904-.71v10.294c-2.485.71-4.614.71-7.809.71-12.068 0-14.198-6.744-14.198-17.038h-.355c-8.519 12.778-17.038 19.877-35.85 19.877-18.103 0-33.01-8.874-33.01-28.751 0-27.686 26.976-28.396 52.888-31.591 9.939-1.065 15.263-2.485 15.263-13.488 0-16.328-11.713-20.232-25.911-20.232-14.908 0-25.911 6.744-26.266 22.717l-11.715.354zm63.892 14.553h-.355c-1.42 2.84-6.744 3.904-9.939 4.259-20.587 3.549-45.789 3.549-45.789 22.717 0 12.068 10.649 19.522 22.007 19.522 18.457 0 34.43-11.713 34.43-30.881v-15.618h-.354zm36.205-82.349h12.068v135.946h-12.068V668.195z"/><path fill="#002E63" d="M515.744 760.483c0 15.263 8.519 29.106 26.621 29.106 12.423 0 20.232-5.324 24.137-16.328h20.587c-4.614 21.652-23.072 33.365-44.724 33.365-30.881 0-48.273-21.652-48.273-51.823 0-28.041 18.103-52.178 47.563-52.178 31.236 0 50.048 28.041 46.499 57.502l-72.41.356zm50.758-14.198c-.71-13.843-9.939-26.266-24.847-26.266-14.908 0-25.202 11.358-25.911 26.266h50.758zm38.69-78.09h21.652v135.946h-21.652V668.195zm62.471 92.288c0 15.263 8.519 29.106 26.621 29.106 12.423 0 20.232-5.324 24.137-16.328h20.587c-4.969 21.652-23.072 33.365-44.724 33.365-30.881 0-48.273-21.652-48.273-51.823 0-28.041 18.103-52.178 47.563-52.178 31.236 0 50.048 28.041 46.499 57.502l-72.41.356zm50.758-14.198c-.71-13.843-9.939-26.266-24.847-26.266-14.908 0-25.202 11.358-25.911 26.266h50.758zm37.98-40.465h20.587v13.488h.71c6.389-9.584 14.553-16.328 30.171-16.328 12.068 0 23.427 5.324 27.686 16.328 7.099-9.939 16.683-16.328 30.881-16.328 20.942 0 33.01 9.229 33.01 33.365v68.151h-21.652V746.64c0-15.618-1.065-26.621-18.103-26.621-14.553 0-20.942 9.939-20.942 26.266v57.857h-21.652v-63.181c0-13.488-4.259-20.942-17.393-20.942-11.358 0-21.652 9.229-21.652 25.557v58.567H756.4l.001-98.323zm182.8 54.663c0 15.263 8.519 29.106 26.621 29.106 12.423 0 20.232-5.324 24.137-16.328h20.587c-4.969 21.652-23.072 33.365-44.724 33.365-30.881 0-48.273-21.652-48.273-51.823 0-28.041 18.458-52.178 47.563-52.178 31.236 0 50.048 28.041 46.499 57.502l-72.41.356zm50.758-14.198c-.71-13.843-10.294-26.266-24.847-26.266-15.263 0-25.202 11.358-25.911 26.266h50.758zm38.335-40.465h20.587v14.553l.355.355c6.389-10.648 17.748-17.393 30.526-17.393 21.297 0 34.785 11.358 34.785 33.365v67.796h-21.652V742.38c-.355-15.263-6.389-22.007-19.167-22.007-14.553 0-23.782 11.358-23.782 25.911v58.212h-21.652V705.82zm99.386 0h16.328v-29.461h21.652v29.461h19.522v16.328h-19.522v52.533c0 8.874.71 13.488 10.294 13.488 3.195 0 6.034 0 9.229-.71v16.683c-4.969.355-9.229 1.065-14.198 1.065-22.717 0-26.976-8.874-27.331-25.202v-58.212h-16.328l.354-15.973zm249.531-61.761c-6.744-41.174-46.144-69.215-88.383-62.826-42.239 6.389-70.99 45.434-64.246 86.608 5.324 33.72 32.656 58.567 65.311 62.826-24.492-7.099-44.369-28.751-48.983-57.147-5.679-37.625 17.748-72.765 52.888-78.444 18.458-2.84 35.495 3.549 48.628 15.263-11.359-6.389-24.492-9.229-37.98-7.454-32.656 4.969-55.017 36.205-49.693 69.57 5.324 33.72 36.205 56.792 68.861 51.823 14.908-2.13 27.686-9.939 36.56-20.942-.71.71-1.065 1.775-1.775 2.485 14.907-15.619 22.716-38.335 18.812-61.762zm-64.247 73.475c-6.744.71-13.133 0-19.167-2.13 12.423 1.775 25.202-4.259 31.946-16.328 8.874-15.973 3.905-36.915-11.713-46.499-14.198-8.874-31.946-5.324-41.884 7.809 2.485-2.13 5.679-3.904 8.874-4.969 12.423-3.195 24.847 4.614 28.041 17.038 3.195 12.778-4.259 25.556-16.683 28.751-11.358 2.84-23.072-3.549-26.976-14.553 0 .355 0 .71.355.71-1.42-3.549-2.13-7.099-2.84-11.003-3.194-25.556 14.198-48.628 38.69-51.468s46.499 15.618 49.693 40.819c3.194 25.911-13.844 48.983-38.336 51.823zm85.189-143.755c10.649 0 19.522 8.519 19.522 19.167 0 11.003-8.519 19.167-19.522 19.167-11.003 0-19.522-8.519-19.522-19.167-.356-10.649 8.163-19.167 19.522-19.167zm-.355 3.194c-8.519 0-15.263 7.099-15.263 15.618 0 8.874 6.744 15.973 15.618 15.973 8.519 0 14.908-7.099 14.908-15.618s-6.39-15.618-15.263-15.973zm-3.55 26.621h-3.55v-20.232c2.13-.355 4.26-.71 7.099-.71 3.55 0 4.969.71 6.389 1.42 1.065.71 2.13 2.485 2.13 4.259 0 2.485-1.775 4.259-3.904 4.614v.355c1.775.71 2.84 2.13 3.549 4.614.71 3.195 1.065 4.259 1.42 4.969h-3.904c-.71-.71-1.065-2.485-1.42-5.324-.355-2.13-1.775-3.195-4.614-3.195h-2.485l-.71 9.23zm0-11.358h2.485c2.84 0 5.324-.71 5.324-3.195 0-1.775-1.065-3.195-4.969-3.195-1.42 0-2.13 0-2.839.355l-.001 6.035z"/></svg>