<svg width="200" height="39" xmlns="http://www.w3.org/2000/svg" xmlns:xlink="http://www.w3.org/1999/xlink"><defs><path d="M6.225 18.468c3.595 0 4.855-3.07 4.855-5.974 0-2.901-1.26-5.964-4.855-5.964-3.22 0-4.532 3.063-4.532 5.964 0 2.904 1.312 5.974 4.532 5.974zm6.549 1.023h-1.559v-2.654h-.054c-.724 1.818-2.92 3.06-4.936 3.06C2.014 19.898 0 16.454 0 12.495c0-3.957 2.014-7.403 6.225-7.403 2.067 0 4.08 1.06 4.802 3.066h.053V.133h1.694v19.358zm3.246 0V5.502h1.688V19.49H16.02zm0-16.621V.133h1.688V2.87H16.02zm16.634 15.48c-.03 4.178-1.611 6.728-6.148 6.728-2.763 0-5.499-1.252-5.74-4.228h1.69c.374 2.057 2.171 2.79 4.05 2.79 3.113 0 4.453-1.865 4.453-5.29v-1.898h-.056c-.778 1.71-2.41 2.877-4.397 2.877-4.424 0-6.25-3.198-6.25-7.186 0-3.847 2.253-7.053 6.25-7.053 2.015 0 3.728 1.278 4.397 2.82h.056V5.503h1.695V18.35zm-1.695-6.02c0-2.737-1.258-5.801-4.453-5.801-3.22 0-4.558 2.904-4.558 5.801 0 2.824 1.446 5.557 4.558 5.557 2.928 0 4.453-2.707 4.453-5.557zm4.94 7.16V5.502h1.687V19.49h-1.688zm0-16.621V.133h1.687V2.87h-1.688zm7.62 2.633h2.814v1.436H43.52v9.436c0 1.11.155 1.763 1.362 1.846.483 0 .966-.028 1.452-.083v1.468c-.511 0-.994.051-1.505.051-2.255 0-3.032-.758-3.002-3.147v-9.57h-2.415V5.503h2.415V1.297h1.693v4.206zm5.097 4.282c.16-3.28 2.44-4.694 5.602-4.694 2.443 0 5.094.763 5.094 4.502v7.43c0 .652.326 1.03.997 1.03.185 0 .399-.05.533-.105v1.44c-.37.079-.638.102-1.097.102-1.716 0-1.981-.972-1.981-2.435h-.059c-1.18 1.81-2.386 2.843-5.04 2.843-2.554 0-4.646-1.275-4.646-4.09 0-3.934 3.787-4.072 7.434-4.507 1.396-.16 2.176-.35 2.176-1.895 0-2.304-1.642-2.875-3.627-2.875-2.087 0-3.648.977-3.701 3.254h-1.685zm9.013 2.058h-.058c-.214.407-.966.55-1.42.626-2.874.513-6.44.489-6.44 3.228 0 1.705 1.502 2.77 3.086 2.77 2.576 0 4.852-1.654 4.832-4.392v-2.232zm5.093 7.647V.133h1.69V19.49h-1.69z" id="a"/><path d="M3.41 26.585c0 2.2 1.184 4.15 3.733 4.15 1.767 0 2.842-.784 3.379-2.332h2.897c-.668 3.065-3.243 4.777-6.276 4.777-4.348 0-6.787-3.063-6.787-7.381 0-3.983 2.576-7.404 6.704-7.404 4.374 0 7.054 3.993 6.545 8.19H3.41zm7.137-2.032c-.104-1.951-1.42-3.72-3.487-3.72-2.12 0-3.57 1.63-3.65 3.72h7.137zm5.473 8.242V13.437h3.058v19.358H16.02zm8.775-6.21c0 2.2 1.18 4.15 3.727 4.15 1.772 0 2.842-.784 3.38-2.332H34.8c-.676 3.065-3.243 4.777-6.278 4.777-4.343 0-6.785-3.063-6.785-7.381 0-3.983 2.575-7.404 6.703-7.404 4.373 0 7.056 3.993 6.548 8.19H24.795zm7.133-2.032c-.105-1.951-1.422-3.72-3.488-3.72-2.12 0-3.566 1.63-3.645 3.72h7.133zm5.391-5.776h2.893v1.955h.087c.912-1.386 2.06-2.336 4.263-2.336 1.692 0 3.276.732 3.894 2.336 1.02-1.436 2.336-2.336 4.347-2.336 2.923 0 4.639 1.307 4.639 4.723v9.676h-3.056v-8.19c0-2.218-.14-3.772-2.524-3.772-2.066 0-2.956 1.39-2.956 3.75v8.212h-3.05v-9.002c0-1.922-.593-2.96-2.446-2.96-1.58 0-3.03 1.307-3.03 3.636v8.326h-3.06V18.777zm25.728 7.808c0 2.2 1.185 4.15 3.729 4.15 1.764 0 2.844-.784 3.378-2.332h2.9c-.675 3.065-3.246 4.777-6.278 4.777-4.344 0-6.79-3.063-6.79-7.381 0-3.983 2.58-7.404 6.71-7.404 4.375 0 7.055 3.993 6.545 8.19H63.047zm7.135-2.032c-.11-1.951-1.423-3.72-3.485-3.72-2.126 0-3.574 1.63-3.65 3.72h7.135zm5.394-5.776h2.896v2.056l.056.053c.915-1.54 2.496-2.49 4.319-2.49 3.01 0 4.906 1.632 4.906 4.773v9.626h-3.056V23.98c-.053-2.193-.913-3.148-2.713-3.148-2.036 0-3.35 1.63-3.35 3.698v8.264h-3.058V18.777zm14.002 0h2.313V14.57h3.058v4.208h2.76v2.304h-2.76v7.488c0 1.272.102 1.924 1.47 1.924.434 0 .859 0 1.29-.109v2.386c-.673.056-1.316.165-1.987.165-3.193 0-3.778-1.254-3.83-3.583v-8.27h-2.314v-2.305zm35.171-8.75c.525 3.336-.559 6.557-2.682 8.889.087-.12.162-.247.245-.37-1.258 1.551-3.04 2.651-5.133 2.968-4.601.699-8.935-2.616-9.68-7.402-.743-4.782 2.39-9.235 6.99-9.93 1.919-.291 3.785.122 5.368 1.04-1.877-1.699-4.246-2.593-6.86-2.183-4.962.78-8.277 5.799-7.416 11.201.648 4.036 3.44 7.145 6.875 8.14-4.612-.637-8.461-4.183-9.218-8.963-.94-5.879 3.114-11.394 9.055-12.33 5.943-.928 11.515 3.073 12.456 8.94zm-9.07 10.424c3.43-.41 5.865-3.695 5.432-7.325-.435-3.633-3.564-6.24-6.995-5.834-3.44.417-5.87 3.699-5.438 7.332.066.549.2 1.07.38 1.566-.007-.043-.025-.083-.032-.126.556 1.603 2.198 2.512 3.809 2.098 1.727-.45 2.768-2.279 2.327-4.087-.441-1.8-2.198-2.9-3.927-2.448a3.157 3.157 0 0 0-1.276.686c1.394-1.833 3.881-2.359 5.875-1.104 2.19 1.377 2.923 4.35 1.652 6.64-.944 1.7-2.73 2.544-4.482 2.308a5.91 5.91 0 0 0 2.675.294zM127.646 0a2.698 2.698 0 0 1 2.726 2.72c0 1.557-1.202 2.754-2.742 2.754s-2.758-1.197-2.758-2.754c0-1.523 1.218-2.72 2.758-2.72h.016zm-.033.479c-1.218 0-2.149 1.009-2.149 2.241 0 1.266.931 2.258 2.182 2.258 1.22.017 2.117-.992 2.117-2.241S128.865.479 127.63.479h-.017zm-.474 3.747h-.524V1.369a5.32 5.32 0 0 1 .981-.086c.474 0 .71.086.897.222.169.12.288.343.288.6 0 .358-.253.58-.559.684v.034c.254.102.39.325.474.684.085.444.135.616.204.719h-.542c-.085-.103-.152-.36-.22-.754-.068-.307-.254-.444-.66-.444h-.339v1.198zm0-1.609h.356c.39 0 .727-.119.727-.461 0-.275-.168-.462-.676-.462-.203 0-.322.016-.407.034v.89z" id="c"/></defs><g fill="none" fill-rule="evenodd"><path d="M0 0h200v51H0z"/><g transform="translate(0 13.304)"><mask id="b" fill="#fff"><use xlink:href="#a"/></mask><use fill="#7E8083" xlink:href="#a"/><g mask="url(#b)" opacity=".25"><path fill="#0B1724" d="M0-13.304h201v51H0z"/></g></g><g transform="translate(69.23)"><mask id="d" fill="#fff"><use xlink:href="#c"/></mask><use fill="#7E8083" xlink:href="#c"/><g mask="url(#d)" fill="#284E7B"><path d="M-69.23 0h201v51h-201z"/></g></g></g></svg>