<svg xmlns="http://www.w3.org/2000/svg" width="278" height="194"><path fill="#FFF" d="M0 0h278v194H0z"/><g fill="none" stroke="#E2924F" stroke-linecap="round" stroke-linejoin="round" stroke-miterlimit="10"><path d="M105.937 90.885a29.285 29.285 0 0 1-8.303 1.194c-16.176 0-29.289-13.113-29.289-29.289s13.113-29.289 29.289-29.289c15.004 0 27.374 11.283 29.086 25.827"/><path d="M119.512 43.315c-5.364 3.746-13.178 6.104-21.878 6.104S81.12 47.06 75.756 43.314m-.001 38.947c5.364-3.746 13.178-6.104 21.878-6.104 2.884 0 5.671.259 8.304.743"/><path d="M98.274 92.079c-9.617 0-17.412-13.113-17.412-29.289s7.796-29.289 17.412-29.289m7.664 54.659c-2.561 2.493-5.535 3.919-8.707 3.919m0-58.577c8.92 0 16.273 11.282 17.292 25.825m-46.178 3.462h38.254m-8.965 29.289V33.501"/></g><circle fill="none" stroke="#45557A" stroke-width="2" stroke-miterlimit="10" cx="183.424" cy="34.665" r="23.264"/><circle fill="none" stroke="#45557A" stroke-miterlimit="10" cx="232.493" cy="83.566" r="28.774"/><path fill="none" stroke="#45557A" stroke-miterlimit="10" d="M212.408 63.07l-12.417-12.416m4.257 33.736h-33.655"/><g fill="none" stroke="#6F8CBF" stroke-linecap="round" stroke-linejoin="round" stroke-miterlimit="10"><path d="M40.001 69.432c-6.044 0-10.944 4.899-10.944 10.945 0 6.043 10.944 22.621 10.944 22.621S50.947 86.42 50.947 80.377c0-6.045-4.9-10.945-10.946-10.945z"/><path d="M40.002 73.137c-3.993 0-7.241 3.248-7.241 7.241 0 3.993 3.248 7.241 7.241 7.241s7.242-3.248 7.242-7.241-3.249-7.241-7.242-7.241z"/></g><circle fill="none" stroke="#45557A" stroke-width="2" stroke-miterlimit="10" cx="61.534" cy="153.82" r="28.774"/><circle fill="none" stroke="#45557A" stroke-miterlimit="10" cx="40.002" cy="86.186" r="23.264"/><path fill="none" stroke="#45557A" stroke-miterlimit="10" d="M52.911 126.37l-5.79-18.033m41.567 36.71l17.279-5.927"/><g fill="none" stroke="#45557A" stroke-miterlimit="10"><path d="M127.17 59.291h-15.035c-2.359 0-4.388 1.414-5.425 3.463a6.59 6.59 0 0 0-.466 1.203c-.162.579-.276 1.179-.276 1.813v80.876c0 3.569 2.767 6.473 6.168 6.473h52.295c1.005 0 1.975-.26 2.851-.742"/><path d="M170.593 102.029V65.77c0-3.573-2.765-6.479-6.163-6.479h-37.26"/><path d="M166.615 97.794V67.43h-56.667v73.536l.811.001c5.13.007 16.127.01 27.187.01l10.49-.001M133.57 63.951h9.423m-9.423 82.694h9.423"/></g><path fill="none" stroke="#E2924F" stroke-width="2" stroke-linecap="round" stroke-linejoin="round" stroke-miterlimit="10" d="M149.884 130.756c-2.605-.768-5.282-.983-7.453-.197-2.105.761-3.538 2.342-4.259 4.698-.415 1.355 1.148 1.874 3.737 2.734 2.606.866 6.547 2.175 10.535 4.775 1.227.798 2.469 1.793 3.765 2.856l.667.547c.334.276.67.551 1.006.825 3.362 2.743 6.819 5.297 10.309 4.906 4.649-.524 6.585.329 7.866 1.233.255.181.632.509 1.08.925.356.332.758.72 1.184 1.143 1.716 1.7 3.812 3.924 4.793 4.985l.575.622 16.795-16.853-6.83-6.837c-1.001-1.358-1.696-2.825-2.067-4.363l-.307-1.269c-1.97-8.193-3.604-11.349-14.381-23.294l-9.991-9.991a4.381 4.381 0 1 0-6.196 6.196l7.822 7.822-1.153-1.153-7.822-7.822a4.381 4.381 0 1 0-6.196 6.196l8.975 8.975-.267-.267-9.991-9.991a4.381 4.381 0 1 0-6.196 6.196l9.769 9.769.445.445-25.294-25.294a4.381 4.381 0 1 0-6.196 6.196l30.868 30.868.181.18"/><g fill="none" stroke="#6F8CBF" stroke-miterlimit="10"><circle stroke-linecap="round" cx="232.346" cy="83.704" r="20.499"/><circle stroke-linecap="round" cx="232.346" cy="83.704" r="3.075"/><path stroke-linejoin="round" d="M232.346 98.054v6.15m0-41.473v6.624m14.346 14.112h6.39m-41.472 0h6.386m28.449-8.141l3.856-2.227m-35.916 20.736l3.611-2.084m22.446-22.311l2.269-3.93m-20.736 35.915l2.066-3.578m.203-28.408l-2.269-3.929m20.736 35.915l-2.065-3.576m-22.4-22.521l-3.861-2.229m35.916 20.736l-3.607-2.082"/><path stroke-linecap="round" d="M240.646 90.299l-5.894-4.683m2.37-15.363l-3.749 10.557"/></g><g fill="none" stroke="#6F8CBF" stroke-linecap="round" stroke-miterlimit="10"><path d="M63.802 156.467a7.141 7.141 0 0 1 7.139-7.139 7.139 7.139 0 1 1 0 14.278H49.355a7.139 7.139 0 1 1 0-14.278 7.141 7.141 0 0 1 6.874 5.206"/><path d="M49.323 149.328c1.352-4.133 5.24-7.118 9.824-7.118 4.682 0 8.637 3.114 9.907 7.383m-3.507-5.165a6.243 6.243 0 0 1 9.647 6.305m-5.488-14.217v4.531m7.978 8.019h4.572m-3.676-8.874l-3.203 3.203m-14.545-3.203l3.202 3.202"/></g><g fill="none" stroke="#6F8CBF" stroke-linecap="round" stroke-miterlimit="10"><path d="M177.946 33.748c-1.56 0-2.652 5.751-2.652 6.26 0 1.393 1.502 2.249 2.579 2.249.994 0 2.431-.801 2.431-2.249 0-.062-.697-6.26-2.358-6.26zm11.289 0c-1.56 0-2.652 5.751-2.652 6.26 0 1.393 1.502 2.249 2.579 2.249.994 0 2.431-.801 2.431-2.249-.001-.062-.697-6.26-2.358-6.26zm-4.039 9.699c-1.56 0-2.652 5.751-2.652 6.26 0 1.393 1.502 2.249 2.579 2.249.993 0 2.431-.801 2.431-2.249 0-.062-.697-6.26-2.358-6.26zm-10.88-6.45h-.791a6.548 6.548 0 1 1 6.305-8.321m5.644 8.321h-3.982"/><path d="M186.775 30.449a6.55 6.55 0 0 1 6.548-6.548 6.548 6.548 0 1 1 0 13.096h-.557m-19.27-13.096a9.483 9.483 0 0 1 18.096.243"/></g><path fill="none" stroke="#45557A" stroke-linecap="round" stroke-miterlimit="10" d="M121.264 99.44a4.121 4.121 0 0 1 1.373-2.854 4.091 4.091 0 0 1 2.986-1.049m-8.951 4.032a9.047 9.047 0 0 1 3.019-6.277 9.066 9.066 0 0 1 6.573-2.305m-14.183 8.711a13.963 13.963 0 0 1 4.663-9.7 13.969 13.969 0 0 1 10.155-3.56"/></svg>