<svg xmlns="http://www.w3.org/2000/svg" width="278" height="194"><g fill="none" stroke="#6F8CBF" stroke-linecap="round" stroke-linejoin="round" stroke-miterlimit="10"><path d="M231.578 132.642a8.263 8.263 0 0 0-8.263 8.264c0 4.563 8.263 17.079 8.263 17.079s8.264-12.516 8.264-17.079c0-4.565-3.7-8.264-8.264-8.264z"/><path d="M231.578 135.439a5.473 5.473 0 0 0-5.467 5.467 5.473 5.473 0 0 0 5.467 5.467 5.474 5.474 0 0 0 5.468-5.467 5.474 5.474 0 0 0-5.468-5.467z"/></g><circle fill="none" stroke="#45557A" stroke-miterlimit="10" cx="231.584" cy="145.313" r="17.595"/><circle fill="none" stroke="#45557A" stroke-miterlimit="10" cx="213.933" cy="95.982" r="21.762"/><path fill="none" stroke="#45557A" stroke-miterlimit="10" d="M221.486 116.329l4.495 12.497m-32.732-26.286l-13.942 5.016"/><circle fill="none" stroke="#45557A" stroke-miterlimit="10" cx="142.123" cy="46.123" r="23.264"/><path fill="none" stroke="#45557A" stroke-miterlimit="10" d="M141.754 69.38v8.123"/><circle fill="none" stroke="#45557A" stroke-width="2" stroke-miterlimit="10" cx="73.618" cy="142.361" r="28.774"/><circle fill="none" stroke="#45557A" stroke-miterlimit="10" cx="52.086" cy="74.728" r="23.264"/><path fill="none" stroke="#45557A" stroke-miterlimit="10" d="M64.995 114.912l-5.79-18.034m41.566 36.71l7.031-2.411"/><g fill="none" stroke-miterlimit="10"><g stroke="#45557A"><circle stroke-width="2" cx="142.123" cy="115.327" r="37.823"/><circle cx="142.123" cy="115.327" r="26.476"/><circle stroke-width=".75" cx="142.123" cy="115.327" r="15.886"/><circle stroke-width=".5" cx="142.123" cy="115.327" r="6.354"/></g><g stroke="#E2924F" stroke-width="2"><path d="M185.423 85.987l-13.833-.454-.453-13.832 15.947-15.947.455 13.831 13.831.455z"/><path stroke-linecap="round" d="M142.092 115.009l47.771-47.771"/></g></g><g fill="none" stroke="#6F8CBF" stroke-miterlimit="10"><path d="M154.512 35.287a6.732 6.732 0 0 0-.725-.861 6.825 6.825 0 0 0-.904-.753c-4.634-3.239-13.258-.757-18.628 4.613-5.394 5.393-7.875 14.069-4.568 18.691.213.298.448.581.711.844.282.281.588.532.911.757 4.636 3.233 13.254.752 18.621-4.617 5.385-5.386 7.869-14.047 4.582-18.674z"/><path d="M152.301 33.307c-4.915.024-10.756 2.613-14.873 6.731-5.219 5.217-7.982 13.201-6.18 18.566"/><path stroke-linecap="round" d="M132.465 43.228l3.288 1.868m-1.128-4.692l3.288 1.869m-.748-4.476l3.288 1.868"/></g><path fill="none" stroke="#6F8CBF" stroke-linecap="round" stroke-miterlimit="10" d="M67.775 77.603c.212-1.333-.108-4.095-.441-6.505.947-1.639 1.196-2.87.739-3.657-.382-.659-1.106-.762-1.341-.778a.919.919 0 0 0-.218-.33c-.303-.29-.732-.308-.904-.302-4.451-.863-6.812-1.736-8.225-2.258-2.121-.785-2.341-.703-3.353 1.239-.297.569-.703 1.348-1.304 2.343-3.65 6.039-11.481 8.065-11.481 8.065s-4.086-.069-4.861 1.477c-.308.613-.504 1.068-.501 1.367-.382.384-.568.786-.553 1.197.022.59.455.936.49.962.092.077 2.382 1.874 15.191 2.267 1.64.05 3.133.072 4.491.072 9.193 0 12.159-1.003 12.297-1.053l.224-.079.037-.234c.316-2.014.239-3.238-.234-3.74-.018-.019-.035-.037-.053-.053z"/><path fill="none" stroke="#6F8CBF" stroke-miterlimit="10" d="M67.786 77.614c-4.97 1.03-11.125 1.64-17.79 1.64-5.104 0-9.909-.357-14.111-.987"/><path fill="none" stroke="#6F8CBF" stroke-miterlimit="10" d="M51.749 68.771c.301.126.602.262.9.407 4.256 2.071 7.198 5.642 8.298 9.498"/><path fill="#6F8CBF" d="M52.242 70.631a.406.406 0 1 1 0 .813.406.406 0 0 1 0-.813m0-1c-.775 0-1.406.631-1.406 1.406s.631 1.406 1.406 1.406 1.406-.631 1.406-1.406-.631-1.406-1.406-1.406z"/><path fill="#6F8CBF" d="M52.242 70.631a.406.406 0 1 1 0 .813.406.406 0 0 1 0-.813m0-1c-.775 0-1.406.631-1.406 1.406s.631 1.406 1.406 1.406 1.406-.631 1.406-1.406-.631-1.406-1.406-1.406zm2.711-2.049a.406.406 0 1 1 0 .813.406.406 0 0 1 0-.813m0-1c-.775 0-1.406.631-1.406 1.406s.631 1.406 1.406 1.406 1.406-.631 1.406-1.406-.631-1.406-1.406-1.406z"/><path fill="#6F8CBF" d="M54.953 67.582a.406.406 0 1 1 0 .813.406.406 0 0 1 0-.813m0-1c-.775 0-1.406.631-1.406 1.406s.631 1.406 1.406 1.406 1.406-.631 1.406-1.406-.631-1.406-1.406-1.406zm-4.879 6.047a.406.406 0 1 1 0 .813.406.406 0 0 1 0-.813m0-1c-.775 0-1.406.631-1.406 1.406s.631 1.406 1.406 1.406 1.406-.631 1.406-1.406-.631-1.406-1.406-1.406zm-2.353 2.658a.406.406 0 1 1 0 .813.406.406 0 0 1 0-.813m0-1c-.775 0-1.406.631-1.406 1.406s.631 1.406 1.406 1.406 1.406-.631 1.406-1.406-.63-1.406-1.406-1.406zm-2.553 2.428a.406.406 0 1 1 0 .813.406.406 0 0 1 0-.813m0-1c-.775 0-1.406.631-1.406 1.406s.631 1.406 1.406 1.406 1.406-.631 1.406-1.406-.63-1.406-1.406-1.406z"/><path fill="#6F8CBF" d="M54.953 67.582a.406.406 0 1 1 0 .813.406.406 0 0 1 0-.813m0-1c-.775 0-1.406.631-1.406 1.406s.631 1.406 1.406 1.406 1.406-.631 1.406-1.406-.631-1.406-1.406-1.406z"/><g fill="none" stroke="#6F8CBF" stroke-linecap="round" stroke-miterlimit="10"><path stroke-linejoin="round" d="M220.515 90.077H208.72l-4.79 7.69h10.134z"/><path d="M223.219 87.511h-3.521l4.238 10.572m-15.219-9.785v1.782l5.347 7.687"/><circle cx="203.93" cy="97.767" r="1.417"/><circle cx="203.93" cy="97.767" r="5.669"/><circle cx="223.936" cy="97.767" r="1.417"/><circle cx="223.936" cy="97.767" r="5.669"/><circle cx="214.064" cy="97.767" r="1.417"/><path d="M207.304 88.077h4.415"/></g><path fill="none" stroke="#6F8CBF" stroke-miterlimit="10" d="M73.584 161.49l-16.027-20.67a9.124 9.124 0 0 1-1.737-5.361c0-5.064 4.119-9.183 9.183-9.183 3.946 0 7.318 2.501 8.615 6.002 1.297-3.5 4.669-6.002 8.615-6.002 5.064 0 9.183 4.12 9.183 9.183a9.117 9.117 0 0 1-1.725 5.344L73.584 161.49z"/><path fill="none" d="M0 0h278v194H0z"/></svg>