<svg width="182" height="35" xmlns="http://www.w3.org/2000/svg" xmlns:xlink="http://www.w3.org/1999/xlink"><defs><path d="M5.665 28.657c3.271 0 4.418-2.769 4.418-5.387 0-2.618-1.147-5.38-4.418-5.38-2.93 0-4.124 2.762-4.124 5.38s1.193 5.387 4.124 5.387zm5.96.923h-1.419v-2.394h-.05c-.658 1.64-2.657 2.76-4.491 2.76C1.832 29.947 0 26.84 0 23.27c0-3.57 1.832-6.678 5.665-6.678 1.88 0 3.713.955 4.37 2.765h.048V12.12h1.541v17.46zm2.953 0V16.962h1.536V29.58h-1.536zm0-14.992V12.12h1.536v2.468h-1.536zm15.137 13.964c-.028 3.769-1.466 6.069-5.595 6.069-2.514 0-5.003-1.13-5.223-3.814h1.538c.34 1.855 1.976 2.516 3.685 2.516 2.833 0 4.052-1.682 4.052-4.771V26.84h-.05c-.708 1.543-2.193 2.595-4.002 2.595-4.025 0-5.686-2.885-5.686-6.481 0-3.47 2.05-6.362 5.686-6.362 1.834 0 3.393 1.152 4.002 2.543h.05v-2.172h1.543v11.589zm-1.543-5.43c0-2.469-1.144-5.232-4.052-5.232-2.93 0-4.147 2.62-4.147 5.232 0 2.547 1.315 5.013 4.147 5.013 2.664 0 4.052-2.443 4.052-5.013zm4.495 6.457V16.963h1.537V29.58h-1.537zm0-14.99v-2.47h1.537v2.47h-1.537zm6.935 2.374h2.561v1.296h-2.56v8.51c0 1.002.14 1.59 1.239 1.665.44 0 .879-.024 1.321-.074v1.324c-.465 0-.905.046-1.37.046-2.052 0-2.759-.684-2.731-2.84v-8.63h-2.198v-1.296h2.198V13.17h1.54v3.793zm4.639 3.862c.145-2.958 2.22-4.233 5.097-4.233 2.224 0 4.636.688 4.636 4.06v6.702c0 .588.296.928.907.928.169 0 .363-.044.485-.093v1.298a4.31 4.31 0 0 1-.998.092c-1.562 0-1.803-.877-1.803-2.196h-.053c-1.073 1.632-2.172 2.564-4.587 2.564-2.324 0-4.228-1.15-4.228-3.69 0-3.547 3.446-3.671 6.765-4.064 1.27-.144 1.98-.315 1.98-1.71 0-2.077-1.494-2.593-3.3-2.593-1.9 0-3.32.882-3.368 2.935H44.24zm8.202 1.857h-.053c-.195.367-.88.495-1.293.564-2.615.463-5.86.441-5.86 2.912 0 1.538 1.367 2.499 2.808 2.499 2.344 0 4.416-1.493 4.398-3.962v-2.013zm4.634 6.897V12.12h1.538v17.46h-1.538zm9.025-5.6c0 1.984 1.078 3.743 3.398 3.743 1.608 0 2.586-.708 3.075-2.103h2.636c-.607 2.764-2.951 4.308-5.71 4.308-3.958 0-6.177-2.762-6.177-6.658 0-3.592 2.344-6.677 6.1-6.677 3.981 0 6.42 3.601 5.957 7.387h-9.279zm6.496-1.833c-.095-1.76-1.293-3.355-3.174-3.355-1.929 0-3.248 1.47-3.322 3.355h6.496zm4.98 7.433V12.12h2.783v17.46h-2.783zm7.986-5.6c0 1.984 1.073 3.743 3.39 3.743 1.613 0 2.587-.708 3.077-2.103h2.637c-.615 2.764-2.951 4.308-5.713 4.308-3.952 0-6.174-2.762-6.174-6.658 0-3.592 2.343-6.677 6.099-6.677 3.98 0 6.422 3.601 5.96 7.387h-9.276zm6.49-1.833c-.095-1.76-1.293-3.355-3.174-3.355-1.929 0-3.245 1.47-3.316 3.355h6.49zm4.906-5.21h2.633V18.7h.079c.83-1.25 1.875-2.107 3.879-2.107 1.54 0 2.982.66 3.544 2.107.927-1.294 2.126-2.107 3.956-2.107 2.66 0 4.221 1.18 4.221 4.26v8.728h-2.78v-7.387c0-2-.128-3.403-2.297-3.403-1.88 0-2.69 1.254-2.69 3.382v7.408h-2.777v-8.12c0-1.733-.538-2.67-2.225-2.67-1.438 0-2.758 1.179-2.758 3.28v7.51H96.96V16.936zm23.413 7.043c0 1.984 1.078 3.743 3.393 3.743 1.605 0 2.588-.708 3.074-2.103h2.64c-.615 2.764-2.954 4.308-5.714 4.308-3.953 0-6.178-2.762-6.178-6.658 0-3.592 2.347-6.677 6.106-6.677 3.981 0 6.42 3.601 5.955 7.387h-9.276zm6.493-1.833c-.1-1.76-1.295-3.355-3.172-3.355-1.934 0-3.252 1.47-3.321 3.355h6.493zm4.908-5.21h2.635v1.854l.051.048c.833-1.388 2.272-2.246 3.93-2.246 2.74 0 4.465 1.472 4.465 4.305v8.683h-2.78v-7.95c-.05-1.978-.831-2.84-2.47-2.84-1.852 0-3.047 1.47-3.047 3.336v7.454h-2.784V16.936zm12.742 0h2.105V13.14h2.782v3.796h2.512v2.079h-2.512v6.753c0 1.147.093 1.735 1.338 1.735.395 0 .782 0 1.174-.098v2.153c-.612.05-1.197.148-1.808.148-2.906 0-3.438-1.13-3.486-3.231v-7.46h-2.105v-2.079zm32.006-7.893c.478 3.01-.509 5.915-2.441 8.018.08-.107.148-.222.223-.333-1.145 1.399-2.767 2.391-4.671 2.677-4.187.63-8.131-2.36-8.81-6.677-.675-4.313 2.176-8.329 6.362-8.956a7.52 7.52 0 0 1 4.885.938c-1.709-1.532-3.864-2.339-6.243-1.969-4.515.704-7.532 5.23-6.748 10.103.59 3.64 3.13 6.444 6.256 7.341-4.197-.574-7.7-3.772-8.388-8.083-.856-5.303 2.833-10.277 8.24-11.12 5.408-.839 10.478 2.77 11.335 8.061zm-8.254 9.403c3.12-.37 5.337-3.333 4.943-6.606-.396-3.278-3.243-5.63-6.366-5.262-3.13.375-5.34 3.335-4.948 6.612.06.495.182.966.346 1.413-.007-.039-.023-.075-.03-.113.507 1.445 2 2.265 3.466 1.891 1.573-.406 2.52-2.055 2.119-3.686-.402-1.624-2-2.615-3.574-2.207a2.88 2.88 0 0 0-1.161.618c1.268-1.653 3.531-2.127 5.346-.996 1.993 1.242 2.66 3.923 1.503 5.989-.859 1.534-2.484 2.295-4.078 2.082a5.423 5.423 0 0 0 2.434.265zM179.158 0c1.387 0 2.48 1.08 2.48 2.454 0 1.403-1.093 2.484-2.494 2.484-1.402 0-2.51-1.08-2.51-2.484 0-1.374 1.108-2.454 2.51-2.454h.014zm-.03.432c-1.108 0-1.955.91-1.955 2.022 0 1.141.847 2.036 1.985 2.036 1.11.015 1.926-.895 1.926-2.022 0-1.126-.817-2.036-1.94-2.036h-.016zm-.431 3.38h-.477V1.234a4.85 4.85 0 0 1 .892-.078c.432 0 .647.078.817.2a.661.661 0 0 1 .261.541c0 .324-.23.524-.508.617v.031c.231.092.354.294.431.617.077.401.123.556.186.648h-.493c-.077-.092-.139-.324-.2-.679-.062-.278-.231-.4-.601-.4h-.308v1.08zm0-1.451h.324c.354 0 .661-.108.661-.417 0-.247-.153-.416-.616-.416-.184 0-.292.015-.37.03v.803z" id="a"/></defs><g fill="none" fill-rule="evenodd"><path d="M0 0h182v46H0z"/><mask id="b" fill="#fff"><use xlink:href="#a"/></mask><use fill="#7E8083" xlink:href="#a"/><g mask="url(#b)" fill="#FFF"><path d="M0 0h183v46H0z"/></g></g></svg>