<svg width="168" height="77" viewBox="0 0 168 77" fill="none" xmlns="http://www.w3.org/2000/svg">
<path d="M167.831 73.7885V76.7308H157.023V63.2693H167.581V66.2116H160.793V68.4808H166.773V71.327H160.793V73.7885H167.831Z" fill="#1A64B7"/>
<path d="M149.537 77C148.126 77 146.857 76.7051 145.729 76.1154C144.614 75.5128 143.735 74.6795 143.094 73.6154C142.453 72.5513 142.133 71.3462 142.133 70C142.133 68.6538 142.453 67.4487 143.094 66.3846C143.735 65.3205 144.614 64.4936 145.729 63.9038C146.857 63.3013 148.126 63 149.537 63C150.767 63 151.876 63.2179 152.864 63.6538C153.851 64.0897 154.671 64.7179 155.325 65.5385L152.902 67.7308C152.03 66.6795 150.973 66.1538 149.729 66.1538C148.998 66.1538 148.344 66.3141 147.767 66.6346C147.203 66.9551 146.761 67.4103 146.441 68C146.133 68.5769 145.979 69.2436 145.979 70C145.979 70.7564 146.133 71.4295 146.441 72.0192C146.761 72.5962 147.203 73.0449 147.767 73.3654C148.344 73.6859 148.998 73.8462 149.729 73.8462C150.973 73.8462 152.03 73.3205 152.902 72.2692L155.325 74.4615C154.671 75.2821 153.851 75.9103 152.864 76.3462C151.876 76.7821 150.767 77 149.537 77Z" fill="#1A64B7"/>
<path d="M140.14 63.2693V76.7308H137.005L131.063 69.5577V76.7308H127.332V63.2693H130.467L136.409 70.4424V63.2693H140.14Z" fill="#1A64B7"/>
<path d="M121.232 74.1154H115.54L114.482 76.7308H110.598L116.54 63.2693H120.29L126.252 76.7308H122.29L121.232 74.1154ZM120.117 71.3077L118.386 67.0001L116.655 71.3077H120.117Z" fill="#1A64B7"/>
<path d="M103.863 73.1539H101.786V76.7308H97.9785V63.2693H104.132C105.35 63.2693 106.408 63.4744 107.305 63.8847C108.203 64.2821 108.895 64.859 109.382 65.6154C109.87 66.359 110.113 67.2372 110.113 68.2501C110.113 69.2244 109.882 70.077 109.421 70.8077C108.972 71.5257 108.325 72.0898 107.479 72.5001L110.382 76.7308H106.305L103.863 73.1539ZM106.267 68.2501C106.267 67.6219 106.068 67.1347 105.671 66.7885C105.273 66.4424 104.684 66.2693 103.902 66.2693H101.786V70.2116H103.902C104.684 70.2116 105.273 70.0449 105.671 69.7116C106.068 69.3654 106.267 68.8783 106.267 68.2501Z" fill="#1A64B7"/>
<path d="M89.0711 77.0001C87.0711 77.0001 85.5134 76.4552 84.398 75.3654C83.2954 74.2757 82.7441 72.7308 82.7441 70.7308V63.2693H86.5518V70.6154C86.5518 72.7693 87.4044 73.8462 89.1095 73.8462C90.8018 73.8462 91.648 72.7693 91.648 70.6154V63.2693H95.398V70.7308C95.398 72.7308 94.8403 74.2757 93.7249 75.3654C92.6223 76.4552 91.0711 77.0001 89.0711 77.0001Z" fill="#1A64B7"/>
<path d="M75.1399 77C74.0501 77 72.9924 76.8654 71.9668 76.5962C70.9412 76.3269 70.1078 75.9679 69.4668 75.5192L70.7168 72.7115C71.3194 73.109 72.0181 73.4295 72.813 73.6731C73.6078 73.9167 74.3899 74.0385 75.1591 74.0385C76.6206 74.0385 77.3514 73.6731 77.3514 72.9423C77.3514 72.5577 77.1399 72.2756 76.7168 72.0962C76.3065 71.9038 75.6399 71.7051 74.7168 71.5C73.704 71.2821 72.8578 71.0513 72.1783 70.8077C71.4988 70.5513 70.9155 70.1474 70.4283 69.5962C69.9412 69.0449 69.6976 68.3013 69.6976 67.3654C69.6976 66.5449 69.9219 65.8077 70.3706 65.1538C70.8194 64.4872 71.486 63.9615 72.3706 63.5769C73.2681 63.1923 74.3642 63 75.6591 63C76.5437 63 77.4155 63.1026 78.2745 63.3077C79.1335 63.5 79.8899 63.7885 80.5437 64.1731L79.3706 67C78.0886 66.3077 76.845 65.9615 75.6399 65.9615C74.8835 65.9615 74.3322 66.0769 73.986 66.3077C73.6399 66.5256 73.4668 66.8141 73.4668 67.1731C73.4668 67.5321 73.6719 67.8013 74.0822 67.9808C74.4924 68.1603 75.1527 68.3462 76.0629 68.5385C77.0886 68.7564 77.9347 68.9936 78.6014 69.25C79.2809 69.4936 79.8642 69.891 80.3514 70.4423C80.8514 70.9808 81.1014 71.7179 81.1014 72.6538C81.1014 73.4615 80.8771 74.1923 80.4283 74.8462C79.9796 75.5 79.3065 76.0256 78.4091 76.4231C77.5117 76.8077 76.4219 77 75.1399 77Z" fill="#1A64B7"/>
<path d="M67.7237 63.2693V76.7308H64.5891L58.6468 69.5577V76.7308H54.916V63.2693H58.0506L63.9929 70.4424V63.2693H67.7237Z" fill="#1A64B7"/>
<path d="M48.3984 63.2693H52.2061V76.7308H48.3984V63.2693Z" fill="#1A64B7"/>
<path d="M36.703 74.1154H31.0107L29.953 76.7308H26.0684L32.0107 63.2693H35.7607L41.7222 76.7308H37.7607L36.703 74.1154ZM35.5876 71.3077L33.8568 67.0001L32.1261 71.3077H35.5876Z" fill="#1A64B7"/>
<path d="M19.9641 77C18.8743 77 17.8167 76.8654 16.791 76.5962C15.7654 76.3269 14.932 75.9679 14.291 75.5192L15.541 72.7115C16.1436 73.109 16.8423 73.4295 17.6372 73.6731C18.432 73.9167 19.2141 74.0385 19.9833 74.0385C21.4449 74.0385 22.1756 73.6731 22.1756 72.9423C22.1756 72.5577 21.9641 72.2756 21.541 72.0962C21.1308 71.9038 20.4641 71.7051 19.541 71.5C18.5282 71.2821 17.682 71.0513 17.0026 70.8077C16.3231 70.5513 15.7397 70.1474 15.2526 69.5962C14.7654 69.0449 14.5218 68.3013 14.5218 67.3654C14.5218 66.5449 14.7461 65.8077 15.1949 65.1538C15.6436 64.4872 16.3102 63.9615 17.1949 63.5769C18.0923 63.1923 19.1885 63 20.4833 63C21.3679 63 22.2397 63.1026 23.0987 63.3077C23.9577 63.5 24.7141 63.7885 25.3679 64.1731L24.1949 67C22.9128 66.3077 21.6692 65.9615 20.4641 65.9615C19.7077 65.9615 19.1564 66.0769 18.8102 66.3077C18.4641 66.5256 18.291 66.8141 18.291 67.1731C18.291 67.5321 18.4961 67.8013 18.9064 67.9808C19.3167 68.1603 19.9769 68.3462 20.8872 68.5385C21.9128 68.7564 22.759 68.9936 23.4256 69.25C24.1051 69.4936 24.6885 69.891 25.1756 70.4423C25.6756 70.9808 25.9256 71.7179 25.9256 72.6538C25.9256 73.4615 25.7013 74.1923 25.2526 74.8462C24.8038 75.5 24.1308 76.0256 23.2333 76.4231C22.3359 76.8077 21.2461 77 19.9641 77Z" fill="#1A64B7"/>
<path d="M6.32692 77.0001C4.32692 77.0001 2.76923 76.4552 1.65385 75.3654C0.551282 74.2757 0 72.7308 0 70.7308V63.2693H3.80769V70.6154C3.80769 72.7693 4.66026 73.8462 6.36538 73.8462C8.05769 73.8462 8.90385 72.7693 8.90385 70.6154V63.2693H12.6538V70.7308C12.6538 72.7308 12.0962 74.2757 10.9808 75.3654C9.87821 76.4552 8.32692 77.0001 6.32692 77.0001Z" fill="#1A64B7"/>
<g clip-path="url(#clip0_68_9684)">
<path d="M75.3608 23.7485L75.4455 26.2836C75.4455 26.2368 75.4361 26.1899 75.4267 26.143C75.1584 25.1402 72.6782 24.7888 70.1792 24.7888C61.6326 24.8638 52.5589 26.2133 43.217 28.7953C41.4239 29.292 39.6449 29.8262 37.9224 30.3417C36.2941 30.829 34.6328 31.3257 32.9432 31.7943L32.882 30.0558C32.8773 29.8777 32.6373 29.7091 32.1808 29.5497C30.8019 29.0811 29.117 28.9312 27.3945 28.9359L27.4934 31.7756V31.8365C29.2159 31.8365 30.9054 31.9817 32.2843 32.4503C32.7408 32.605 32.9809 32.7783 32.9856 32.9564L33.0468 34.6949C34.7363 34.2216 36.4023 33.7296 38.026 33.2423C39.7485 32.7221 41.5322 32.1879 43.3205 31.6959C52.6625 29.1139 61.7314 27.7644 70.2827 27.6894C72.7817 27.6894 75.2572 28.0409 75.5302 29.0436C75.5443 29.0905 75.549 29.1374 75.549 29.1842L75.4643 26.6491C79.0317 26.3914 82.6178 26.2321 86.2087 26.1665L86.1099 23.2659C82.519 23.3315 78.9281 23.4955 75.3655 23.7485H75.3608Z" fill="#DB3232"/>
<path d="M75.5582 29.5542L75.5817 30.1962L75.6476 32.0893C75.6476 32.0424 75.6382 31.9956 75.6288 31.9487C75.3605 30.9459 72.8803 30.5945 70.3813 30.5945C61.8347 30.6694 52.7611 32.019 43.4191 34.601C41.626 35.0977 39.8471 35.6319 38.1246 36.1473C36.4962 36.6347 34.8349 37.1314 33.1453 37.6L33.0842 35.8615C33.0795 35.6834 32.8394 35.5147 32.3829 35.3554C31.004 34.8868 29.2156 34.765 27.4978 34.765L27.6155 37.5765L27.6014 34.7603C26.5142 34.7603 25.4129 34.8212 24.3682 34.8962C16.2922 35.4772 8.49863 36.6956 1.19922 38.5231L1.29805 41.3534C8.59747 39.5306 16.391 38.3075 24.467 37.7265C25.5118 37.6515 26.613 37.5906 27.7002 37.5906C29.4227 37.5906 31.1075 37.7359 32.4865 38.2045C33.0089 38.3825 33.2489 38.584 33.1736 38.7902C33.103 38.9823 32.783 39.1088 32.4865 39.2119C30.3357 39.9711 27.9449 40.6411 25.6388 41.2878C23.6199 41.8548 21.5726 42.4312 19.6619 43.0732C22.7539 42.8389 26.0436 42.3093 29.5121 41.4799C32.5147 40.7583 35.4232 39.8914 38.2281 39.0479C39.9506 38.5278 41.7343 37.9936 43.5227 37.5016C52.8646 34.9196 61.9336 33.57 70.4848 33.4951C72.9839 33.4951 75.4594 33.8465 75.7323 34.8493C75.7464 34.8962 75.7512 34.943 75.7512 34.9899L75.7135 33.9309L75.6617 32.3798C79.2291 32.1221 82.8153 31.9628 86.4061 31.8972L86.3073 29.0715C82.7164 29.1371 79.1255 29.3011 75.5629 29.5542H75.5582Z" fill="#DB3232"/>
<path d="M75.4607 26.6537L75.5454 29.1888C75.5454 29.142 75.536 29.0951 75.5266 29.0483C75.2583 28.0455 72.7781 27.694 70.2791 27.694C61.7325 27.769 52.6588 29.1186 43.3169 31.7005C41.5238 32.1972 39.7448 32.7314 38.0223 33.2469C36.394 33.7342 34.7327 34.2309 33.0431 34.6995L32.9819 32.961C32.9772 32.783 32.7372 32.6143 32.2807 32.455C30.9018 31.9864 29.1463 31.8364 27.4238 31.8364L27.4474 34.6995L27.5933 34.7698C29.3157 34.7698 31.0006 34.8916 32.3795 35.3602C32.836 35.5149 33.0761 35.6883 33.0808 35.8663L33.1419 37.6048C34.8315 37.1315 36.4975 36.6395 38.1212 36.1522C39.8437 35.6367 41.6273 35.0978 43.4157 34.6058C52.7576 32.0238 61.8266 30.6743 70.3779 30.5993C72.8769 30.5993 75.3524 30.9508 75.6254 31.9536C75.6395 32.0004 75.6442 32.0473 75.6442 32.0941L75.5783 30.201L75.5548 29.559C79.1221 29.3013 82.7083 29.142 86.2992 29.0764L86.2004 26.1758C82.6095 26.2414 79.0186 26.4054 75.456 26.6584L75.4607 26.6537Z" fill="white"/>
<path d="M75.6535 32.3798L75.7053 33.9309L75.743 34.9899C75.743 34.943 75.7335 34.8962 75.7241 34.8493C75.4559 33.8465 72.9757 33.4951 70.4766 33.4951C61.9301 33.5701 52.8564 34.9196 43.5145 37.5016C41.7214 37.9983 39.9424 38.5325 38.2199 39.0479C35.4103 39.8914 32.5065 40.763 29.5039 41.4799C26.0401 42.3094 22.7457 42.8389 19.6537 43.0732C17.2017 43.8979 14.9804 44.8304 13.3379 46.0066C13.6109 46.0394 13.8932 46.0581 14.1568 46.0675C14.8486 46.1003 15.5498 46.119 16.2699 46.119C20.3267 46.1143 24.8024 45.5333 29.6027 44.3852C32.6053 43.6636 35.5138 42.7967 38.3187 41.9532C40.0412 41.4331 41.8249 40.8989 43.6133 40.4069C52.9552 37.8249 62.0242 36.4753 70.5755 36.4004C73.0745 36.4004 75.55 36.7518 75.823 37.7546C75.8371 37.8015 75.8418 37.8483 75.8418 37.8952L75.7806 36.063L75.7524 35.2851C79.3197 35.0274 82.9059 34.8681 86.4968 34.8025L86.3979 31.9019C82.8071 31.9675 79.2162 32.1315 75.6535 32.3845V32.3798Z" fill="white"/>
<path d="M75.7524 35.2852L75.7807 36.0631L75.8419 37.8953C75.8419 37.8485 75.8324 37.8016 75.823 37.7547C75.5548 36.7519 73.0746 36.4005 70.5756 36.4005C62.029 36.4755 52.9553 37.825 43.6134 40.407C41.8203 40.9037 40.0413 41.4379 38.3188 41.9533C35.5092 42.7968 32.6054 43.6684 29.6028 44.3854C24.8024 45.5334 20.3268 46.1145 16.27 46.1192C15.5546 46.1192 14.8487 46.1051 14.1568 46.0676C13.8933 46.0536 13.6109 46.0395 13.338 46.0067C13.1026 46.1754 12.872 46.3488 12.6603 46.5268C12.1614 46.9486 11.8272 47.4453 11.8508 47.8811C11.8508 47.8998 11.8508 47.9186 11.8555 47.9326C11.8555 47.9607 11.8649 47.9889 11.8696 48.017C11.8696 48.0357 11.879 48.0545 11.8884 48.0732C11.8978 48.0966 11.9073 48.1247 11.9167 48.1482C11.9261 48.1669 11.9355 48.1857 11.9449 48.1997C11.959 48.2232 11.9731 48.2466 11.992 48.27C12.0061 48.2888 12.0155 48.3028 12.0343 48.3216C12.0531 48.345 12.0767 48.3684 12.1002 48.3872C12.119 48.4012 12.1332 48.42 12.152 48.434C12.1802 48.4574 12.2085 48.4762 12.2414 48.4949C12.2602 48.509 12.279 48.5231 12.3026 48.5371C12.3402 48.5605 12.3826 48.5793 12.4202 48.598C12.4391 48.6074 12.4579 48.6168 12.4814 48.6261C12.5473 48.6543 12.6179 48.6824 12.6979 48.7058C13.1497 48.8511 13.738 48.8932 14.2557 48.9167C14.9475 48.9542 15.6487 48.9682 16.3688 48.9682C20.4256 48.9635 24.9013 48.3825 29.7016 47.2344C32.7042 46.5175 35.6127 45.6459 38.4176 44.8024C40.1401 44.2823 41.9238 43.7481 43.7122 43.256C53.0541 40.6741 62.1231 39.3245 70.6744 39.2496C73.1734 39.2496 75.6489 39.601 75.9219 40.6038C75.9313 40.646 75.9407 40.6835 75.9407 40.7256C75.9407 40.7303 75.9407 40.735 75.9407 40.7397L75.8513 38.1765C79.4186 37.9187 83.0048 37.7594 86.5957 37.6938L86.4968 34.7932C82.906 34.8588 79.3151 35.0228 75.7524 35.2759V35.2852Z" fill="#DB3232"/>
<path d="M75.8555 38.1857L75.9449 40.7489C75.9449 40.7489 75.9449 40.7396 75.9449 40.7349C75.9496 40.852 75.9167 40.9739 75.8555 41.1004C79.4558 40.838 83.0796 40.674 86.7034 40.6084L86.6046 37.7078C83.0137 37.7734 79.4228 37.9374 75.8602 38.1904L75.8555 38.1857Z" fill="white"/>
<path d="M75.8469 41.0958C75.654 41.4754 75.1316 41.8737 74.2797 42.2861C71.6442 43.556 68.1851 44.3713 64.7637 45.1304C64.8013 45.1304 64.8343 45.1211 64.8719 45.1164C72.0443 44.1792 79.4237 43.6403 86.7984 43.5044L86.7608 42.4594L86.6949 40.5991C83.071 40.6647 79.4472 40.8287 75.8469 41.0911V41.0958Z" fill="#DB3232"/>
<path d="M64.9693 48.0216C64.5504 48.0732 64.1315 48.1294 63.7127 48.1856C60.9595 48.5558 58.1263 48.9354 55.3214 48.9354C54.7425 48.9354 54.159 48.9213 53.5848 48.8838C53.3824 48.8698 53.1706 48.851 52.9636 48.8323C52.653 49.0291 52.3565 49.2353 52.0882 49.4555C51.5658 49.882 51.2317 50.3834 51.3211 50.8098C51.3211 50.8145 51.3211 50.8238 51.3258 50.8285C51.3352 50.8613 51.3446 50.8941 51.3587 50.9269C51.3634 50.941 51.3729 50.955 51.3776 50.9644C51.3917 50.9878 51.4011 51.016 51.4199 51.0394C51.4293 51.0534 51.4387 51.0675 51.4482 51.0816C51.467 51.105 51.4811 51.1237 51.5046 51.1472C51.5188 51.1612 51.5329 51.1753 51.547 51.1893C51.5705 51.2081 51.5941 51.2315 51.6176 51.2503C51.6317 51.2643 51.6505 51.2737 51.6646 51.2877C51.6929 51.3065 51.7305 51.3299 51.7635 51.3487C51.7823 51.358 51.7964 51.3674 51.8152 51.3768C51.8717 51.4049 51.9282 51.433 51.9894 51.4564C52.46 51.6439 53.1095 51.7048 53.6836 51.7376C54.2625 51.7704 54.8414 51.7891 55.4249 51.7891C58.2299 51.7891 61.0583 51.4096 63.8162 51.0394C64.2351 50.9832 64.6539 50.9269 65.0728 50.8754C72.2451 49.9382 79.6246 49.3993 86.9993 49.2634L86.9004 46.4097C79.521 46.5409 72.1416 47.0844 64.974 48.0216H64.9693Z" fill="#DB3232"/>
<path d="M64.8705 45.1163C64.8329 45.1163 64.7999 45.1257 64.7623 45.1304C64.4987 45.1913 64.2305 45.2475 63.9669 45.3084C59.6701 46.2597 55.5898 47.1688 52.959 48.8323C53.1708 48.8557 53.3778 48.8744 53.5802 48.8838C54.1591 48.9166 54.738 48.9354 55.3168 48.9354C58.1218 48.9354 60.9502 48.5558 63.7081 48.1856C64.1269 48.1294 64.5458 48.0732 64.9647 48.0216C72.137 47.0844 79.5164 46.5455 86.8912 46.4096L86.7923 43.509C79.4129 43.6402 72.0335 44.1838 64.8658 45.121L64.8705 45.1163Z" fill="white"/>
<path d="M50.5645 41.8128L50.5739 42.0518C50.5739 41.9721 50.5833 41.8878 50.6021 41.8081C50.588 41.8081 50.5786 41.8128 50.5645 41.8175V41.8128Z" fill="white"/>
<path d="M51.6085 46.4988C54.2205 44.3667 59.0397 43.2983 63.6942 42.2673C67.0309 41.527 70.4618 40.7585 73.1491 39.6057C72.429 39.5073 71.6242 39.4651 70.8383 39.4698C67.2427 39.5026 63.5812 39.7557 59.868 40.2196C56.5171 41.0443 53.4157 42.033 51.5002 43.5982C50.9873 44.0199 50.6484 44.5119 50.6625 44.9524L50.7614 47.853C50.7472 47.4078 51.0861 46.9158 51.5991 46.4988H51.6085Z" fill="#D1D1D1"/>
<path d="M69.4878 4.55005C60.9412 4.62502 51.8675 5.97458 42.5256 8.55654C40.7325 9.05325 38.9535 9.58745 37.231 10.1029C35.6027 10.5902 33.9414 11.087 32.2518 11.5555L32.2283 10.8901L32.1906 9.81706C32.1859 9.63899 31.9459 9.4703 31.4894 9.31098C30.1105 8.84238 28.4256 8.69243 26.7031 8.69712L26.802 11.5368V11.5977C28.5244 11.5977 30.214 11.743 31.5929 12.2116C32.0494 12.3662 32.2895 12.5396 32.2942 12.7177L32.3553 14.4562C34.0449 13.9829 35.7109 13.4908 37.3346 13.0035C39.0571 12.4834 40.8407 11.9492 42.6291 11.4571C51.9711 8.87518 61.04 7.52563 69.5913 7.45065C72.0903 7.45065 74.5658 7.8021 74.8388 8.80489C74.8529 8.85175 74.8576 8.89861 74.8576 8.94547L74.7588 6.04487C74.7588 5.99801 74.7494 5.95115 74.74 5.90429C74.4717 4.9015 71.9915 4.55005 69.4925 4.55005H69.4878Z" fill="white"/>
<path d="M69.5874 7.45068C61.0408 7.52566 51.9671 8.87521 42.6252 11.4572C40.8321 11.9539 39.0531 12.4881 37.3306 13.0035C35.7023 13.4909 34.041 13.9876 32.3514 14.4562L32.2902 12.7177C32.2855 12.5396 32.0455 12.3709 31.589 12.2116C30.2101 11.743 28.5252 11.5931 26.8027 11.5978L26.9016 14.4374V14.4984C28.6241 14.4984 30.3136 14.6436 31.6925 15.1122C32.149 15.2669 32.3891 15.4402 32.3938 15.6183L32.455 17.3568C34.1445 16.8835 35.8105 16.3915 37.4342 15.9041C39.1567 15.384 40.9404 14.8498 42.7287 14.3578C52.0707 11.7758 61.1396 10.4263 69.6909 10.3513C72.1899 10.3513 74.6654 10.7027 74.9384 11.7055C74.9525 11.7524 74.9572 11.7992 74.9572 11.8461L74.8584 8.9455C74.8584 8.89864 74.849 8.85178 74.8396 8.80492C74.5713 7.80213 72.0911 7.45068 69.5921 7.45068H69.5874Z" fill="#DB3232"/>
<path d="M69.685 10.356C61.1385 10.4309 52.0648 11.7805 42.7228 14.3624C40.9298 14.8592 39.1508 15.3934 37.4283 15.9088C35.7999 16.3961 34.1386 16.8929 32.4491 17.3615L32.3879 15.623C32.3832 15.4449 32.1432 15.2762 31.6867 15.1169C30.3077 14.6483 28.6229 14.4983 26.9004 14.503L26.9663 16.3915L26.9992 17.4083C28.7217 17.4083 30.4066 17.5536 31.7855 18.0222C32.242 18.1768 32.482 18.3502 32.4867 18.5283L32.5432 20.1637C32.5432 20.1965 32.5432 20.2339 32.5432 20.2667C34.2328 19.7935 35.8988 19.3014 37.5224 18.8141C39.2449 18.294 41.0286 17.7598 42.817 17.2677C52.1589 14.6858 61.2279 13.3362 69.7792 13.2612C72.2782 13.2612 74.7537 13.6127 75.0266 14.6155C75.0408 14.6623 75.0455 14.7092 75.0455 14.7561L74.9561 12.1507L74.9466 11.8508C74.9466 11.8039 74.9372 11.7571 74.9278 11.7102C74.6596 10.7074 72.1794 10.356 69.6803 10.356H69.685Z" fill="white"/>
<path d="M74.9607 12.146L75.0502 14.7514C75.0502 14.7045 75.0407 14.6577 75.0313 14.6108C74.7631 13.608 72.2829 13.2566 69.7838 13.2566C61.2373 13.3315 52.1636 14.6811 42.8217 17.263C41.0286 17.7598 39.2496 18.294 37.5271 18.8094C35.8987 19.2967 34.2374 19.7935 32.5479 20.2621C32.5479 20.2292 32.5479 20.1918 32.5479 20.159L32.4914 18.5236C32.4867 18.3455 32.2467 18.1768 31.7902 18.0175C30.4112 17.5489 28.7264 17.3989 27.0039 17.4036L27.1027 20.2292C28.8252 20.2292 30.5101 20.3745 31.889 20.8431C32.3455 20.9977 32.5855 21.1711 32.5902 21.3492L32.6514 23.1627C34.341 22.6894 36.007 22.1973 37.6307 21.71C39.3531 21.1899 41.1368 20.6557 42.9252 20.1636C52.2671 17.5817 61.3361 16.2321 69.8874 16.1572C72.3864 16.1572 74.8619 16.5086 75.1349 17.5114C75.149 17.5583 75.1537 17.6051 75.1537 17.652L75.0643 15.0419C78.6316 14.7842 82.2178 14.6249 85.8087 14.5592L85.7098 11.6633C82.119 11.7289 78.5281 11.8929 74.9654 12.146H74.9607Z" fill="#DB3232"/>
<path d="M26.6 5.7356L26.5012 2.89592C26.7177 2.89592 26.9294 2.89592 27.1459 2.9006C28.6425 2.93341 30.0826 3.09741 31.2922 3.50978C31.7487 3.66441 31.9887 3.83779 31.9934 4.01586C31.9934 3.98306 31.9934 3.95026 31.9934 3.91745L31.9746 3.37388C31.9746 3.34108 31.9746 3.30828 31.9746 3.27548L31.9416 2.36172C31.9275 1.92593 31.9134 1.49482 31.8993 1.11994C31.8946 0.941876 31.6545 0.773182 31.198 0.61386C29.9838 0.201496 28.539 0.0374876 27.0471 0.00468595C26.8353 0 26.6188 0 26.4023 0L26.5012 2.83969L26.6 5.7356Z" fill="#DB3232"/>
<path d="M22.6036 8.21455L22.3024 7.32422L22.0671 8.25672C21.78 8.28015 21.4883 8.30358 21.2012 8.3317L21.9212 8.8331L21.6859 9.7656L22.3683 9.14705L23.0884 9.65782L22.7872 8.76749L23.4696 8.15363C23.4696 8.15363 23.4508 8.15363 23.4414 8.15363C23.159 8.17238 22.8813 8.19581 22.6036 8.21455Z" fill="white"/>
<path d="M12.8809 14.7562L13.1115 13.8049L12.8809 14.7562Z" fill="#DB3232"/>
<path d="M17.3145 14.1704L17.5451 13.2285L17.3145 14.1704Z" fill="#DB3232"/>
<path d="M24.7637 12.9473C24.7261 13.0878 24.6884 13.2472 24.6461 13.4112C24.6037 13.5752 24.5614 13.7345 24.5284 13.8751C24.2413 13.8938 23.9543 13.9126 23.6719 13.9313C23.9072 14.1047 24.1472 14.2734 24.3825 14.4468C24.3119 14.7232 24.2178 15.0981 24.1472 15.3746C24.3731 15.1731 24.599 14.9716 24.8249 14.7701C25.0696 14.9482 25.3097 15.1215 25.5497 15.2996C25.4603 15.0278 25.3379 14.6717 25.2485 14.3999C25.4791 14.2031 25.7097 14.0063 25.9403 13.8095C25.6485 13.8189 25.352 13.8282 25.0602 13.8423C24.9708 13.5752 24.8484 13.2144 24.759 12.9473H24.7637Z" fill="white"/>
<path d="M23.743 16.0588L23.0605 16.6774L23.743 16.0588Z" fill="#DB3232"/>
<path d="M21.9551 17.6754L22.1904 16.7429L21.9551 17.6754Z" fill="#DB3232"/>
<path d="M19.2773 18.2798L19.9927 18.7718L19.2773 18.2798Z" fill="#DB3232"/>
<path d="M17.0363 18.5283L16.3633 19.1703L17.0363 18.5283Z" fill="#DB3232"/>
<path d="M27.2917 25.9789L27.2305 24.2686L27.2869 25.904L27.2917 25.9789Z" fill="white"/>
<path d="M27.3913 28.8795L27.3301 27.0801L27.3913 28.8795Z" fill="#DB3232"/>
<path d="M27.5373 33.1157L27.5891 34.6855L27.4949 31.8458L27.4902 31.7849L27.4949 31.8646L27.5373 33.1157Z" fill="#7A0A1D"/>
<path d="M12.1807 43.5793C15.0703 41.1332 20.2755 39.6759 25.3159 38.2607C25.8195 38.1201 26.3324 37.9749 26.8407 37.8296C26.0501 37.853 25.2641 37.8905 24.5064 37.9421C21.1744 38.181 17.8941 38.5372 14.675 38.9917C13.6914 39.4978 12.816 40.0507 12.0866 40.6693C11.5595 41.1144 11.2065 41.644 11.2253 42.1125L11.3242 45.0132C11.31 44.5399 11.6583 44.015 12.1854 43.5699L12.1807 43.5793Z" fill="#D1D1D1"/>
<path d="M27.5926 34.7697L27.6867 37.5906L27.5926 34.7462L27.5879 34.6853L27.5926 34.7697Z" fill="#D1D1D1"/>
<path d="M31.2871 3.50986C30.0823 3.09749 28.6374 2.93348 27.1409 2.90068C26.9291 2.896 26.7126 2.896 26.4961 2.896L26.5949 5.73568L26.6938 8.64097L26.5949 5.80129C26.8114 5.80129 27.0232 5.80129 27.2397 5.80597C28.7363 5.83877 30.1764 6.00278 31.3859 6.41515C31.8424 6.56978 32.0824 6.74316 32.0871 6.92123L31.9883 4.02062C31.9836 3.84256 31.7436 3.67386 31.2871 3.51454V3.50986Z" fill="white"/>
<path d="M31.3867 6.41518C30.1819 6.00281 28.7371 5.8388 27.2405 5.806C27.0287 5.80132 26.8122 5.80132 26.5957 5.80132L26.6945 8.641L26.7934 11.5416L26.6945 8.70192C28.417 8.70192 30.1019 8.84719 31.4808 9.31578C31.9373 9.47042 32.1773 9.6438 32.182 9.82186L32.2197 10.8949L32.2432 11.5604C33.9328 11.0871 35.5988 10.595 37.2224 10.1077C38.9449 9.58756 40.7286 9.05337 42.517 8.56134C51.8589 5.97938 60.9279 4.62983 69.4792 4.55485C71.9782 4.55485 74.4537 4.9063 74.7267 5.90909C74.7408 5.95595 74.7455 6.00281 74.7455 6.04967L74.6467 3.15375C74.6467 3.10689 74.6372 3.06003 74.6278 3.01318C74.3596 2.01038 71.8794 1.65894 69.3803 1.65894C60.8338 1.73391 51.7601 3.08346 42.4182 5.66542C40.6251 6.16214 38.8461 6.69633 37.1236 7.21179C35.4952 7.69913 33.8339 8.19584 32.1444 8.66443L32.0832 6.91657C32.0785 6.73851 31.8385 6.56981 31.382 6.41049L31.3867 6.41518Z" fill="#DB3232"/>
<path d="M27.094 20.2386L26.9951 17.4083L26.9622 16.3915L26.8963 14.503V14.4421L26.7975 11.6024V11.5415L26.6939 8.64089L26.5951 5.74029L26.4963 2.84437L26.4021 0C25.8562 0 25.3103 0.0140579 24.7691 0.0421736C24.2278 0.0656033 23.6913 0.103091 23.1689 0.140579C18.1238 0.506083 13.187 1.11526 8.41009 1.9681C5.54398 2.47887 2.73905 3.07867 0 3.76282L0.691821 24.0014C7.99124 22.1786 15.7848 20.9556 23.8608 20.3745C24.9056 20.2995 26.0068 20.2386 27.094 20.2386ZM25.6868 19.2499C25.4468 19.0718 25.202 18.8984 24.962 18.7204C24.7361 18.9219 24.5055 19.1234 24.2843 19.3249C24.3031 19.2546 24.322 19.1796 24.3408 19.0999C24.3784 18.9453 24.4208 18.7766 24.4632 18.6173C24.482 18.5376 24.5008 18.4626 24.5196 18.3924C24.2843 18.219 24.0443 18.0503 23.809 17.8769C24.0914 17.8582 24.3784 17.8394 24.6655 17.8207C24.7032 17.6801 24.7408 17.5208 24.7832 17.3568C24.8255 17.1928 24.8679 17.0334 24.9008 16.8929C24.9903 17.16 25.1126 17.5208 25.202 17.7879C25.4938 17.7738 25.7856 17.7598 26.0821 17.7551C25.8515 17.9519 25.6209 18.1487 25.3903 18.3455C25.4797 18.6173 25.6021 18.9734 25.6915 19.2452L25.6868 19.2499ZM25.2491 14.3952C25.3385 14.667 25.4609 15.0232 25.5503 15.2949C25.3103 15.1169 25.0656 14.9435 24.8255 14.7654C24.5996 14.9669 24.369 15.1684 24.1478 15.3699C24.2184 15.0934 24.3126 14.7186 24.3832 14.4421C24.1478 14.2687 23.9078 14.1 23.6725 13.9266C23.9549 13.9079 24.242 13.8892 24.529 13.8704C24.5667 13.7298 24.6043 13.5705 24.6467 13.4065C24.6891 13.2425 24.7314 13.0832 24.7644 12.9426C24.8538 13.2097 24.9761 13.5705 25.0656 13.8376C25.3574 13.8236 25.6491 13.8095 25.9456 13.8048C25.715 14.0016 25.4844 14.1984 25.2538 14.3952H25.2491ZM23.2254 13.608L22.5054 13.1019L21.8229 13.7205L22.0583 12.788L21.3382 12.2866C21.6253 12.2631 21.9171 12.235 22.2042 12.2116L22.4395 11.2791L22.7407 12.1694C23.0183 12.146 23.3007 12.1272 23.5784 12.1085C23.5878 12.1085 23.5972 12.1085 23.6066 12.1085L23.056 12.6052L22.9242 12.7224L23.2254 13.6127V13.608ZM21.0135 15.6183L20.2981 15.1216L19.6204 15.7542L19.8557 14.817L19.1404 14.325C19.4275 14.2968 19.7145 14.2687 20.0016 14.2406L20.2369 13.3034L20.5334 14.1891C20.8205 14.1609 21.1076 14.1375 21.3994 14.1094L20.7217 14.7326L21.0182 15.6183H21.0135ZM18.698 14.0157L17.9873 13.5283L17.3143 14.1703L17.545 13.2284L16.8343 12.7458C17.1167 12.713 17.4038 12.6802 17.6861 12.6474L17.9167 11.7055L18.2132 12.5865C18.5003 12.5537 18.7827 12.5255 19.0698 12.4974L18.3968 13.1347L18.6933 14.0157H18.698ZM16.5237 16.0962L15.8178 15.6183L15.1495 16.2696L15.3801 15.3231L14.6741 14.8498C14.9565 14.8123 15.2389 14.7748 15.5213 14.7373L15.7519 13.7954L16.0437 14.6717C16.2931 14.6389 16.5425 14.6108 16.792 14.5827C16.8249 14.5827 16.8625 14.5733 16.8955 14.5686L16.2272 15.2153L16.519 16.0916L16.5237 16.0962ZM14.2412 14.5592L13.5399 14.0953L12.881 14.7561L13.1069 13.8095L12.4104 13.3503C12.6881 13.3081 12.9705 13.2659 13.2481 13.2238L13.4787 12.2772L13.7705 13.1488C14.0529 13.1113 14.3306 13.0691 14.6129 13.0316L13.9494 13.6877L14.2412 14.5639V14.5592ZM12.1045 16.7054L11.408 16.2462L10.7538 16.9163L10.9797 15.965L10.2879 15.5152C10.5656 15.4683 10.8432 15.4215 11.1209 15.3793L11.3468 14.428L11.6386 15.2996C11.9163 15.2575 12.1939 15.2153 12.4716 15.1684L11.8127 15.8338L12.0998 16.7054H12.1045ZM9.86433 15.234L9.17721 14.7889L8.52775 15.4683L8.75365 14.5124L8.07124 14.0719C8.19831 14.0485 8.32538 14.0251 8.45716 14.0016C8.60305 13.9735 8.74895 13.9501 8.89484 13.922L9.12074 12.966L9.40782 13.8329C9.68079 13.7861 9.95846 13.7392 10.2361 13.6923L9.58666 14.3671L9.87374 15.234H9.86433ZM7.77004 17.4458L7.08763 17.01L6.44758 17.7035L6.66878 16.7429L5.99107 16.3118C6.26404 16.2556 6.53229 16.204 6.80526 16.1478L7.02645 15.1872L7.30883 16.0494C7.58179 15.9978 7.85475 15.9463 8.12772 15.8947L7.48296 16.5789L7.77004 17.4411V17.4458ZM5.57222 16.04L4.89922 15.6136L4.26388 16.3165L4.48036 15.3512L3.81207 14.9294C4.08033 14.8685 4.34859 14.8123 4.61685 14.7561L4.83333 13.7908L5.11571 14.6483C5.38397 14.5921 5.65693 14.5358 5.92519 14.4796L5.28984 15.1778L5.57222 16.0353V16.04ZM5.15807 11.2275L5.44044 12.0851L4.76745 11.6586L4.1321 12.3615L4.34859 11.3962L3.6803 10.9745C3.94856 10.9136 4.21681 10.8573 4.48507 10.8011L4.70156 9.83581L4.98393 10.6933C5.25219 10.6371 5.52515 10.5809 5.79341 10.5246L5.15807 11.2229V11.2275ZM7.63827 13.4909L6.95586 13.0551L6.31581 13.7486L6.537 12.788L5.8593 12.3569C6.12756 12.3006 6.40052 12.2491 6.67348 12.1928L6.89468 11.2322L7.17705 12.0944C7.45002 12.0429 7.72298 11.9913 7.99594 11.9398L7.35118 12.6286L7.63827 13.4909ZM5.72282 8.39722C5.99107 8.34099 6.26404 8.28945 6.537 8.2379L6.75819 7.27728L7.04057 8.1395C7.31353 8.08795 7.5865 8.03641 7.85946 7.98486L7.2147 8.66901L7.50178 9.53123L6.81938 9.09543L6.17933 9.78895L6.40052 8.82833L5.72282 8.39722ZM9.73255 11.2791L9.04544 10.8339L8.39598 11.5181L8.62188 10.5621L7.93947 10.1217C8.21243 10.0701 8.48539 10.0232 8.76306 9.9717L8.98897 9.01577L9.27605 9.88267C9.54901 9.83581 9.82668 9.78895 10.1043 9.74209L9.45488 10.4169L9.74197 11.2838L9.73255 11.2791ZM11.9727 12.7458L11.2762 12.2912L10.622 12.9613L10.8479 12.0101L10.1561 11.5602C10.4338 11.5134 10.7115 11.4665 10.9891 11.4243L11.215 10.4731L11.5068 11.34C11.7845 11.2978 12.0622 11.2557 12.3398 11.2135L11.6809 11.8789L11.968 12.7458H11.9727ZM13.8176 9.73272L14.1094 10.609L13.4081 10.1404L12.7493 10.8011L12.9752 9.85456L12.2786 9.39533C12.5563 9.35316 12.8387 9.31099 13.1164 9.26881L13.347 8.32225L13.6388 9.19384C13.9211 9.15635 14.1988 9.11418 14.4812 9.07669L13.8176 9.73272ZM11.5445 7.92394L11.8315 8.79553L11.135 8.34099L10.4809 9.01108L10.7068 8.05984L10.0149 7.60998C10.2926 7.56313 10.5703 7.51627 10.8479 7.47409L11.0738 6.52284L11.3656 7.39443C11.6433 7.35226 11.921 7.3054 12.1986 7.26322L11.5398 7.92863L11.5445 7.92394ZM16.0954 11.2603L16.3872 12.1366L15.6813 11.6586L15.013 12.31L15.2436 11.3681L14.5377 10.8948C14.82 10.8573 15.1024 10.8199 15.3848 10.7824L15.6154 9.8405L15.9072 10.7168C16.1895 10.6793 16.4719 10.6465 16.759 10.6137L16.0907 11.2603H16.0954ZM18.5615 10.0607L17.8509 9.5734L17.1779 10.2154L17.4085 9.2735L16.6978 8.79084C16.9802 8.75804 17.2673 8.72524 17.5497 8.69244L17.7803 7.75056L18.0768 8.63152C18.3638 8.59872 18.6462 8.5706 18.9333 8.54249L18.2603 9.17509L18.5568 10.0561L18.5615 10.0607ZM15.9589 7.3054L16.2507 8.18167L15.5448 7.7037L14.8765 8.35505L15.1071 7.40849L14.4012 6.93521C14.6835 6.89772 14.9659 6.86023 15.2483 6.82275L15.4789 5.88087L15.7707 6.75714C16.0531 6.71965 16.3354 6.68685 16.6225 6.65405L15.9542 7.30071L15.9589 7.3054ZM20.8817 11.6633L20.1663 11.1666L19.4886 11.7945L19.724 10.8573L19.0086 10.3653C19.2957 10.3372 19.5828 10.3091 19.8698 10.281L20.1052 9.34847L20.4017 10.2341C20.6887 10.206 20.9758 10.1826 21.2676 10.1545L20.5899 10.7824L20.8864 11.668L20.8817 11.6633ZM23.4701 8.14887L22.7877 8.76273L23.0889 9.65306L22.3689 9.14229L21.6865 9.76084L21.9218 8.82833L21.2017 8.32694C21.4888 8.30351 21.7806 8.27539 22.0677 8.25196L22.303 7.31946L22.6042 8.20979C22.8819 8.18636 23.1642 8.16761 23.4419 8.14887C23.4513 8.14887 23.4607 8.14887 23.4701 8.14887ZM20.4487 6.82275L20.7452 7.70839L20.0299 7.21168L19.3522 7.8396L19.5875 6.90241L18.8721 6.41038C19.1592 6.38227 19.4463 6.35415 19.7334 6.32603L19.9687 5.38884L20.2652 6.27449C20.5523 6.24637 20.8393 6.22294 21.1311 6.19483L20.4534 6.81806L20.4487 6.82275ZM25.1126 10.4403C25.1785 10.6418 25.2632 10.8948 25.3432 11.1198C25.3668 11.1947 25.395 11.2697 25.4138 11.3353C25.1738 11.1573 24.9291 10.9839 24.6891 10.8058C24.4632 11.0073 24.2326 11.2088 24.0114 11.4103C24.0631 11.2041 24.129 10.9417 24.1902 10.7074C24.209 10.6277 24.2278 10.5528 24.2467 10.4825C24.0114 10.3091 23.7713 10.1404 23.536 9.96702C23.8184 9.94827 24.1055 9.92953 24.3926 9.91079C24.4632 9.63432 24.5573 9.26413 24.6279 8.98765C24.7173 9.25475 24.8397 9.61557 24.9291 9.88267C25.2209 9.86861 25.5127 9.85456 25.8092 9.84987C25.5785 10.0467 25.3479 10.2435 25.1173 10.4403H25.1126ZM24.9809 6.48536C25.0703 6.75714 25.1926 7.11327 25.2821 7.38506C25.042 7.20699 24.7973 7.03361 24.5573 6.85555C24.3314 7.05704 24.1008 7.25854 23.8796 7.46003C23.9502 7.18356 24.0443 6.80869 24.1149 6.53222C24.0867 6.50879 24.0537 6.49004 24.0255 6.46661C23.8184 6.31666 23.6113 6.16671 23.4043 6.01676C23.6866 5.99802 23.9737 5.97927 24.2608 5.96053C24.2984 5.81995 24.3361 5.66063 24.3784 5.49662C24.4208 5.33261 24.4632 5.17329 24.4961 5.03271C24.5855 5.29981 24.7079 5.66063 24.7973 5.92773C25.0891 5.91367 25.3809 5.89961 25.6774 5.89493C25.4468 6.09174 25.2162 6.28855 24.9856 6.48536H24.9809ZM24.1196 2.00559C24.1573 1.86501 24.1949 1.70569 24.2373 1.54168C24.2749 1.4011 24.3079 1.26052 24.3408 1.134C24.3408 1.11526 24.3502 1.09651 24.3549 1.08245C24.4443 1.34955 24.5667 1.71037 24.6561 1.97747C24.9479 1.96341 25.2397 1.94936 25.5362 1.94467C25.3056 2.14148 25.075 2.33829 24.8444 2.5351C24.9338 2.80688 25.0562 3.16302 25.1456 3.4348C24.9056 3.25674 24.6608 3.08336 24.4208 2.90529C24.1949 3.10679 23.9643 3.30828 23.7431 3.50978C23.8137 3.23331 23.9078 2.85843 23.9784 2.58196C23.7431 2.40858 23.5031 2.23988 23.2678 2.0665C23.5501 2.04776 23.8372 2.02902 24.1243 2.01027L24.1196 2.00559ZM22.1665 3.3692L22.4677 4.25953C22.7454 4.2361 23.0278 4.21736 23.3054 4.19861C23.3148 4.19861 23.3242 4.19861 23.3337 4.19861L22.6512 4.81247L22.9524 5.7028L22.2324 5.19672L21.55 5.81527L21.7853 4.88276L21.0652 4.37668C21.3523 4.35325 21.6441 4.32513 21.9312 4.3017L22.1665 3.3692ZM19.5969 2.37109L19.8322 1.4339L20.1287 2.31955C20.4158 2.29143 20.7029 2.268 20.9946 2.23988L20.3169 2.86312L20.6134 3.74876L19.8981 3.25205L19.2204 3.88465L19.4557 2.94746L18.7403 2.45544C19.0274 2.42732 19.3145 2.39921 19.6016 2.37109H19.5969ZM17.6532 3.80031L17.9497 4.68126C18.2368 4.64846 18.5191 4.62035 18.8062 4.59223L18.1332 5.22952L18.4297 6.11048L17.7191 5.62314L17.0461 6.26512L17.2767 5.32793L16.566 4.84527C16.8484 4.81247 17.1355 4.77967 17.4179 4.74687L17.6532 3.80968V3.80031ZM15.1165 2.87717L15.3471 1.9353L15.6389 2.81157C15.9213 2.77408 16.2037 2.74128 16.4907 2.70848L15.8225 3.35514L16.1142 4.23141L15.4083 3.75345L14.74 4.40479L14.9706 3.45823L14.2647 2.98495C14.5471 2.94746 14.8294 2.90998 15.1118 2.87249L15.1165 2.87717ZM13.2105 4.36262L13.5023 5.23421C13.7846 5.19672 14.0623 5.15455 14.3447 5.11706L13.6811 5.77309L13.9729 6.64468L13.2717 6.18077L12.6128 6.84149L12.8387 5.89493L12.1422 5.43102C12.4198 5.38884 12.7022 5.34667 12.9799 5.3045L13.2105 4.35793V4.36262ZM10.7162 3.51446L10.9421 2.56322L11.2339 3.4348C11.5115 3.39263 11.7892 3.35046 12.0669 3.30828L11.408 3.97369L11.6951 4.84527L10.9985 4.38605L10.3444 5.05614L10.5703 4.10489L9.87845 3.65504C10.1561 3.60818 10.4338 3.56132 10.7115 3.51915L10.7162 3.51446ZM8.62188 6.01208L8.84778 5.05614L9.13486 5.91836C9.40782 5.8715 9.68549 5.82464 9.96316 5.77778L9.3137 6.45724L9.60078 7.32414L8.91366 6.87898L8.2642 7.55844L8.4901 6.60251L7.80299 6.16203C7.93947 6.1386 8.07595 6.11048 8.21243 6.08705C8.34891 6.06362 8.48539 6.03551 8.62188 6.01208ZM6.40052 4.28296L6.62171 3.32234L6.90409 4.18455C7.17705 4.13301 7.45002 4.08146 7.72298 4.02992L7.07822 4.71407L7.3653 5.57628L6.6829 5.14049L6.04284 5.83401L6.26404 4.87339L5.58634 4.44228C5.85459 4.38605 6.12756 4.33451 6.40052 4.27827V4.28296ZM4.56508 5.88555L4.84745 6.74308C5.11571 6.68685 5.38867 6.63062 5.65693 6.57439L5.02158 7.2726L5.30396 8.13013L4.63096 7.7037L3.99562 8.4066L4.21211 7.44598L3.54382 7.02424C3.81207 6.96332 4.08033 6.90709 4.34859 6.85086L4.56508 5.89024V5.88555ZM2.17429 5.18266L2.39078 4.21736L2.66845 5.0702C2.93671 5.00928 3.20026 4.94836 3.46852 4.89213L2.83788 5.59971L3.11555 6.45256L2.44726 6.03551L1.82132 6.74777L2.03781 5.77778L1.37423 5.36541C1.63778 5.3045 1.90604 5.23889 2.16959 5.17798L2.17429 5.18266ZM2.31078 9.1376L2.52726 8.1723L2.80493 9.02514C3.07319 8.96422 3.33674 8.90331 3.605 8.84708L2.97436 9.55465L3.25203 10.4075L2.58374 9.99045L1.95781 10.7027L2.17429 9.73272L1.51071 9.32036C1.77426 9.25944 2.04252 9.19384 2.30607 9.13292L2.31078 9.1376ZM2.44726 13.0925L2.66375 12.1272L2.94142 12.9801C3.20967 12.9192 3.47322 12.8582 3.74148 12.802L3.11084 13.5096L3.38851 14.3624L2.72022 13.9454L2.09429 14.6577L2.31078 13.6923L1.64719 13.28C1.91074 13.2191 2.179 13.1535 2.44255 13.0925H2.44726ZM2.57903 17.0475L2.79552 16.0822L3.07319 16.935C3.34145 16.8741 3.605 16.8132 3.87326 16.757L3.24262 17.4645L3.52029 18.3174L2.852 17.9003L2.22606 18.6126L2.44255 17.6426L1.77897 17.2302C2.04252 17.1693 2.31078 17.1037 2.57433 17.0428L2.57903 17.0475ZM3.66147 22.2723L2.99318 21.8553L2.36725 22.5675L2.58374 21.5975L1.92016 21.1852C2.18371 21.1243 2.45196 21.0587 2.71551 20.9977L2.932 20.0324L3.20967 20.8853C3.47793 20.8244 3.74148 20.7634 4.00974 20.7072L3.3791 21.4148L3.65677 22.2676L3.66147 22.2723ZM5.0357 19.5732L4.40036 20.2761L4.61685 19.3155L3.94856 18.8938C4.21681 18.8328 4.48507 18.7766 4.75333 18.7204L4.96982 17.7551L5.25219 18.6126C5.52045 18.5564 5.79341 18.5001 6.06167 18.4439L5.42632 19.1421L5.7087 19.9996L5.0357 19.5732ZM7.90652 21.4007L7.22412 20.9649L6.58406 21.6585L6.80526 20.6978L6.12756 20.2667C6.39581 20.2105 6.66878 20.159 6.94174 20.1027L7.16293 19.1421L7.44531 20.0043C7.71827 19.9528 7.99124 19.9012 8.2642 19.8497L7.61944 20.5338L7.90652 21.3961V21.4007ZM9.3137 18.7438L8.66423 19.4233L8.89013 18.4673L8.20302 18.0269C8.47598 17.9753 8.74895 17.9284 9.02662 17.8769L9.25251 16.921L9.5396 17.7879C9.81256 17.741 10.0902 17.6942 10.3679 17.6473L9.71844 18.3268L10.0055 19.1937L9.3184 18.7485L9.3137 18.7438ZM12.241 20.6604L11.5445 20.2058L10.8903 20.8759L11.1162 19.9247L10.4244 19.4748C10.702 19.428 10.9797 19.3811 11.2574 19.3389L11.4833 18.3877L11.7751 19.2593C12.0527 19.2171 12.3304 19.1749 12.6081 19.1281L11.9492 19.7935L12.2363 20.665L12.241 20.6604ZM13.6764 18.0503L13.0175 18.711L13.2434 17.7644L12.5469 17.3005C12.8246 17.2584 13.1069 17.2162 13.3846 17.174L13.6152 16.2274L13.907 17.099C14.1894 17.0615 14.4671 17.0194 14.7494 16.9819L14.0858 17.6379L14.3776 18.5095L13.6764 18.0456V18.0503ZM16.6602 20.0512L15.9542 19.5732L15.2859 20.2246L15.5166 19.278L14.8106 18.8047C15.093 18.7672 15.3754 18.7297 15.6577 18.6923L15.8507 17.8956L15.8883 17.7504L16.1801 18.6267C16.4625 18.5892 16.7449 18.5564 17.032 18.5236L16.3637 19.1702L16.6555 20.0465L16.6602 20.0512ZM18.1238 17.4833L17.4508 18.1253L17.6814 17.1881L16.9708 16.7054C17.2532 16.6726 17.5402 16.6398 17.8226 16.607L18.0579 15.6651L18.3544 16.5461C18.6415 16.5133 18.9239 16.4852 19.211 16.4571L18.538 17.0943L18.8345 17.9753L18.1238 17.488V17.4833ZM21.15 19.5732L20.4346 19.0765L19.7569 19.7044L19.9922 18.7672L19.2769 18.2752C19.5639 18.2471 19.851 18.219 20.1381 18.1909L20.3734 17.2537L20.6699 18.1393C20.957 18.1112 21.2441 18.0878 21.5359 18.0597L20.8582 18.6829L21.1547 19.5685L21.15 19.5732ZM22.6371 17.0569L21.9547 17.6754L22.19 16.7429L21.47 16.2368C21.7571 16.2134 22.0488 16.1853 22.3359 16.1618L22.4536 15.6979L22.5712 15.2293L22.8724 16.1197C23.1501 16.0962 23.4325 16.0775 23.7102 16.0588C23.7196 16.0588 23.729 16.0588 23.7384 16.0588L23.056 16.6726L23.3572 17.5629L22.6371 17.0569Z" fill="#0053AF"/>
<path d="M1.96192 10.7028L2.58785 9.99051L3.25614 10.4076L2.97847 9.55472L3.60911 8.84714C3.34086 8.90806 3.0726 8.96429 2.80905 9.02521L2.53138 8.17236L2.31489 9.13767C2.04663 9.19859 1.78308 9.2595 1.51953 9.32511L2.18311 9.73747L1.96663 10.7075L1.96192 10.7028Z" fill="white"/>
<path d="M1.8252 6.7477L2.45113 6.03543L3.11942 6.45248L2.84175 5.59964L3.47239 4.89206C3.20414 4.95298 2.93588 5.00921 2.67233 5.07013L2.39466 4.21729L2.17817 5.18259C1.90991 5.24351 1.64636 5.30443 1.38281 5.37003L2.0464 5.78239L1.82991 6.75238L1.8252 6.7477Z" fill="white"/>
<path d="M2.23145 18.6127L2.85738 17.9004L3.52567 18.3175L3.248 17.4646L3.87864 16.7571C3.61039 16.818 3.34213 16.8742 3.07858 16.9351L2.80091 16.0823L2.58442 17.0476C2.31616 17.1085 2.05261 17.1694 1.78906 17.235L2.45265 17.6474L2.23616 18.6174L2.23145 18.6127Z" fill="white"/>
<path d="M2.31122 13.6923L2.09473 14.6576L2.72067 13.9453L3.38896 14.3624L3.11129 13.5096L3.74193 12.802C3.47367 12.8629 3.20541 12.9191 2.94186 12.98L2.66419 12.1272L2.4477 13.0925C2.17945 13.1534 1.91589 13.2143 1.65234 13.2799L2.31593 13.6923H2.31122Z" fill="white"/>
<path d="M3.20944 20.89L2.93177 20.0371L2.71528 21.0024C2.44702 21.0633 2.18347 21.1243 1.91992 21.1899L2.58351 21.6022L2.36702 22.5722L2.99295 21.8599L3.66124 22.277L3.38357 21.4242L4.01421 20.7166C3.74595 20.7775 3.4777 20.8337 3.21414 20.8946L3.20944 20.89Z" fill="white"/>
<path d="M4.21126 7.44592L3.99477 8.40654L4.63012 7.70365L5.30311 8.13007L5.02074 7.27254L5.65608 6.57433C5.38312 6.63056 5.11486 6.6868 4.8466 6.74303L4.56423 5.8855L4.34774 6.84612C4.07948 6.90235 3.81123 6.96327 3.54297 7.0195L4.21126 7.44123V7.44592Z" fill="white"/>
<path d="M4.70095 9.84058L4.48446 10.8059C4.2162 10.8621 3.94794 10.923 3.67969 10.9793L4.34798 11.401L4.13149 12.3663L4.76683 11.6634L5.43983 12.0898L5.15745 11.2323L5.7928 10.5341C5.51984 10.5903 5.25158 10.6466 4.98332 10.7028L4.70095 9.84526V9.84058Z" fill="white"/>
<path d="M5.12004 14.6529L4.83767 13.7954L4.62118 14.7607C4.35292 14.8169 4.08466 14.8779 3.81641 14.9341L4.4847 15.3558L4.26821 16.3211L4.90355 15.6182L5.57655 16.0447L5.29417 15.1871L5.92952 14.4889C5.65656 14.5452 5.3883 14.6014 5.12004 14.6576V14.6529Z" fill="white"/>
<path d="M6.06624 18.444C5.79327 18.5002 5.52502 18.5564 5.25676 18.6127L4.97438 17.7551L4.7579 18.7204C4.48964 18.7767 4.22138 18.8376 3.95312 18.8938L4.62141 19.3155L4.40493 20.2762L5.04027 19.5733L5.71327 19.9997L5.43089 19.1422L6.06624 18.444Z" fill="white"/>
<path d="M6.17916 9.78901L6.81922 9.09549L7.50162 9.53129L7.21454 8.66907L7.8593 7.98492C7.58634 8.03647 7.31337 8.08801 7.04041 8.13956L6.75803 7.27734L6.53684 8.23796C6.26388 8.28951 5.99562 8.34574 5.72266 8.39729L6.40036 8.82839L6.17916 9.78901Z" fill="white"/>
<path d="M6.04245 5.83394L6.6825 5.14041L7.36491 5.57621L7.07782 4.71399L7.72258 4.02984C7.44962 4.08139 7.17665 4.13294 6.90369 4.18448L6.62132 3.32227L6.40012 4.28289C6.12716 4.33443 5.8589 4.39066 5.58594 4.44689L6.26364 4.878L6.04245 5.83862V5.83394Z" fill="white"/>
<path d="M7.31385 16.0495L7.03147 15.1873L6.81028 16.1479C6.53731 16.1994 6.26906 16.2557 5.99609 16.3119L6.6738 16.743L6.4526 17.7036L7.09265 17.0101L7.77506 17.4459L7.48798 16.5837L8.13274 15.8995C7.85977 15.9511 7.58681 16.0026 7.31385 16.0542V16.0495Z" fill="white"/>
<path d="M7.99602 11.9398C7.72306 11.9913 7.45009 12.0428 7.17713 12.0944L6.89475 11.2322L6.67356 12.1928C6.4006 12.2443 6.13234 12.3006 5.85938 12.3568L6.53708 12.7879L6.31588 13.7485L6.95593 13.055L7.63834 13.4908L7.35126 12.6286L7.99602 11.9398Z" fill="white"/>
<path d="M7.44471 20.0043L7.16233 19.1421L6.94114 20.1027C6.66817 20.1543 6.39992 20.2105 6.12695 20.2667L6.80465 20.6978L6.58346 21.6584L7.22351 20.9649L7.90592 21.4007L7.61884 20.5385L8.2636 19.8544C7.99063 19.9059 7.71767 19.9574 7.44471 20.009V20.0043Z" fill="white"/>
<path d="M8.48594 6.60252L8.26004 7.55845L8.90951 6.87899L9.59662 7.32415L9.30954 6.45725L9.959 5.77779C9.68133 5.82465 9.40837 5.87151 9.1307 5.91837L8.84362 5.05615L8.61772 6.01209C8.48124 6.03552 8.34476 6.06363 8.20827 6.08706C8.07179 6.11049 7.93531 6.13861 7.79883 6.16204L8.48124 6.60252H8.48594Z" fill="white"/>
<path d="M9.26627 9.87789L8.97918 9.01099L8.75328 9.96692C8.48032 10.0138 8.20265 10.0653 7.92969 10.1169L8.6121 10.5574L8.38619 11.5133L9.03566 10.8291L9.72277 11.2743L9.43569 10.4074L10.0852 9.73262C9.80749 9.77948 9.53452 9.82634 9.25685 9.8732L9.26627 9.87789Z" fill="white"/>
<path d="M9.40299 13.833L9.1159 12.9661L8.89 13.922C8.74411 13.9501 8.59821 13.9735 8.45232 14.0017C8.32525 14.0251 8.19818 14.0485 8.06641 14.0719L8.74881 14.5124L8.52291 15.4684L9.17238 14.7889L9.85949 15.2341L9.57241 14.3672L10.2219 13.6924C9.94421 13.7392 9.67124 13.7861 9.39357 13.833H9.40299Z" fill="white"/>
<path d="M10.3641 17.6472C10.0864 17.6941 9.81347 17.7409 9.5358 17.7878L9.24872 16.9209L9.02282 17.8768C8.74985 17.9237 8.47218 17.9752 8.19922 18.0268L8.88163 18.4673L8.65573 19.4232L9.30519 18.7437L9.99231 19.1889L9.70522 18.322L10.3547 17.6425L10.3641 17.6472Z" fill="white"/>
<path d="M11.0784 6.51811L10.8525 7.46936C10.5749 7.51622 10.2972 7.55839 10.0195 7.60525L10.7114 8.05511L10.4855 9.00635L11.1396 8.33626L11.8361 8.7908L11.5491 7.91921L12.2079 7.25381C11.9303 7.29598 11.6526 7.33816 11.3749 7.38501L11.0831 6.51343L11.0784 6.51811Z" fill="white"/>
<path d="M10.3538 5.05152L11.008 4.38143L11.7045 4.84065L11.4174 3.96907L12.0763 3.30366C11.7986 3.34583 11.5209 3.38801 11.2433 3.43018L10.9515 2.55859L10.7256 3.50984C10.4479 3.5567 10.1702 3.59887 9.89258 3.64573L10.5844 4.09559L10.3585 5.04683L10.3538 5.05152Z" fill="white"/>
<path d="M11.6378 15.2949L11.346 14.4233L11.1201 15.3746C10.8424 15.4214 10.5648 15.4636 10.2871 15.5105L10.9789 15.9603L10.753 16.9116L11.4072 16.2415L12.1037 16.7007L11.8166 15.8291L12.4755 15.1637C12.1979 15.2059 11.9202 15.2481 11.6425 15.2949H11.6378Z" fill="white"/>
<path d="M11.503 11.34L11.2113 10.4731L10.9854 11.4244C10.7077 11.4713 10.43 11.5134 10.1523 11.5603L10.8442 12.0101L10.6183 12.9614L11.2724 12.2913L11.969 12.7458L11.6819 11.8789L12.3408 11.2135C12.0631 11.2557 11.7854 11.2979 11.5077 11.34H11.503Z" fill="white"/>
<path d="M11.7745 19.25L11.4827 18.3784L11.2568 19.3297C10.9792 19.3765 10.7015 19.4187 10.4238 19.4656L11.1156 19.9154L10.8897 20.8667L11.5439 20.1966L12.2404 20.6511L11.9534 19.7795L12.6122 19.1141C12.3346 19.1563 12.0569 19.1985 11.7792 19.2453L11.7745 19.25Z" fill="white"/>
<path d="M12.8391 5.89485L12.6132 6.84142L13.2721 6.1807L13.9733 6.64461L13.6815 5.77302L14.3451 5.11699C14.0627 5.15447 13.7804 5.19196 13.5027 5.23414L13.2109 4.36255L12.9803 5.30911C12.6979 5.35128 12.4202 5.39346 12.1426 5.43563L12.8391 5.89954V5.89485Z" fill="white"/>
<path d="M13.3476 8.31763L13.117 9.26419C12.8346 9.30636 12.557 9.34854 12.2793 9.39071L12.9758 9.84993L12.7499 10.7965L13.4088 10.1358L14.11 10.6044L13.8182 9.7281L14.4818 9.07207C14.1995 9.10955 13.9171 9.14704 13.6394 9.18921L13.3476 8.31763Z" fill="white"/>
<path d="M13.7703 13.144L13.4785 12.2725L13.2479 13.219C12.9655 13.2612 12.6878 13.3034 12.4102 13.3455L13.1067 13.8048L12.8808 14.7513L13.5397 14.0906L14.2409 14.5545L13.9491 13.6782L14.6127 13.0222C14.3303 13.0597 14.0479 13.0972 13.7703 13.1394V13.144Z" fill="white"/>
<path d="M14.7494 16.9866C14.467 17.0241 14.1847 17.0616 13.907 17.1038L13.6152 16.2322L13.3846 17.1787C13.1022 17.2209 12.8245 17.2631 12.5469 17.3053L13.2434 17.7692L13.0175 18.7157L13.6764 18.055L14.3776 18.5189L14.0858 17.6473L14.7494 16.9913V16.9866Z" fill="white"/>
<path d="M15.484 5.8855L15.2534 6.82737C14.971 6.86486 14.6886 6.90235 14.4062 6.93984L15.1122 7.41312L14.8816 8.35968L15.5499 7.70833L16.2558 8.1863L15.964 7.31003L16.6323 6.66337C16.3499 6.69617 16.0629 6.73365 15.7805 6.76646L15.4887 5.89018L15.484 5.8855Z" fill="white"/>
<path d="M14.7441 4.4048L15.4124 3.75345L16.1183 4.23142L15.8265 3.35515L16.4948 2.70848C16.2124 2.74129 15.9253 2.77877 15.643 2.81158L15.3512 1.9353L15.1206 2.87718C14.8382 2.91467 14.5558 2.95215 14.2734 2.98964L14.9794 3.46292L14.7488 4.40948L14.7441 4.4048Z" fill="white"/>
<path d="M16.901 14.5732C16.8681 14.5732 16.8304 14.5826 16.7975 14.5873C16.5481 14.6154 16.2986 14.6482 16.0492 14.6763L15.7574 13.8L15.5268 14.7419C15.2444 14.7794 14.9621 14.8169 14.6797 14.8544L15.3856 15.3277L15.155 16.2742L15.8233 15.6229L16.5292 16.1009L16.2375 15.2246L16.9057 14.5779L16.901 14.5732Z" fill="white"/>
<path d="M16.7643 10.6138C16.4819 10.6466 16.1949 10.684 15.9125 10.7168L15.6207 9.84058L15.3901 10.7825C15.1077 10.8199 14.8253 10.8574 14.543 10.8949L15.2489 11.3682L15.0183 12.3101L15.6866 11.6587L16.3925 12.1367L16.1007 11.2604L16.769 10.6138H16.7643Z" fill="white"/>
<path d="M16.184 18.6314L15.8922 17.7551L15.8545 17.9004L15.6616 18.697C15.3792 18.7345 15.0968 18.772 14.8145 18.8095L15.5204 19.2827L15.2898 20.2293L15.9581 19.578L16.664 20.0559L16.3722 19.1797L17.0405 18.533C16.7581 18.5658 16.4711 18.6033 16.1887 18.6361L16.184 18.6314Z" fill="white"/>
<path d="M17.2771 5.31864L17.0464 6.25583L17.7194 5.61385L18.4301 6.10119L18.1336 5.22023L18.8066 4.58294C18.5195 4.61106 18.2324 4.64386 17.95 4.67197L17.6536 3.79102L17.4182 4.72821C17.1312 4.76101 16.8488 4.79381 16.5664 4.82661L17.2771 5.30926V5.31864Z" fill="white"/>
<path d="M18.086 8.63633L17.7895 7.75537L17.5589 8.69725C17.2718 8.73005 16.9894 8.76285 16.707 8.79565L17.4177 9.27831L17.1871 10.2202L17.8601 9.57821L18.5707 10.0655L18.2742 9.18459L18.9472 8.55198C18.6601 8.5801 18.373 8.6129 18.0907 8.64102L18.086 8.63633Z" fill="white"/>
<path d="M18.2188 12.5912L17.9223 11.7102L17.6917 12.6521C17.4046 12.6849 17.1222 12.7177 16.8398 12.7505L17.5505 13.2331L17.3199 14.175L17.9929 13.533L18.7035 14.0204L18.407 13.1394L19.08 12.5021C18.7929 12.5302 18.5059 12.563 18.2235 12.5912H18.2188Z" fill="white"/>
<path d="M19.2109 16.457C18.9238 16.4851 18.6367 16.5179 18.3543 16.546L18.0578 15.665L17.8225 16.6069C17.5355 16.6397 17.2531 16.6725 16.9707 16.7053L17.6813 17.188L17.4507 18.1252L18.1237 17.4832L18.8344 17.9705L18.5379 17.0896L19.2109 16.4523V16.457Z" fill="white"/>
<path d="M19.9637 5.38892L19.7284 6.32611C19.4414 6.35422 19.1543 6.38234 18.8672 6.41045L19.5825 6.90248L19.3472 7.83967L20.0249 7.21175L20.7403 7.70846L20.4438 6.82282L21.1215 6.19959C20.8344 6.22302 20.5426 6.25113 20.2555 6.27925L19.959 5.3936L19.9637 5.38892Z" fill="white"/>
<path d="M19.2152 3.88459L19.8929 3.25199L20.6083 3.7487L20.3118 2.86305L20.9895 2.23982C20.7024 2.26325 20.4106 2.29137 20.1235 2.31948L19.827 1.43384L19.5917 2.37103C19.3046 2.39914 19.0176 2.42726 18.7305 2.45538L19.4458 2.9474L19.2105 3.88459H19.2152Z" fill="white"/>
<path d="M20.5337 14.1891L20.2372 13.3035L20.0019 14.2407C19.7148 14.2688 19.4277 14.2969 19.1406 14.325L19.856 14.817L19.6207 15.7542L20.2984 15.1216L21.0137 15.6183L20.7172 14.7327L21.3949 14.1095C21.1078 14.1329 20.8161 14.161 20.529 14.1891H20.5337Z" fill="white"/>
<path d="M20.397 10.2294L20.1005 9.34375L19.8652 10.2763C19.5781 10.3044 19.291 10.3325 19.0039 10.3606L19.7193 10.8526L19.4839 11.7898L20.1616 11.1619L20.877 11.6586L20.5805 10.773L21.2582 10.145C20.9711 10.1685 20.6793 10.1966 20.3923 10.2247L20.397 10.2294Z" fill="white"/>
<path d="M20.6704 18.1439L20.3739 17.2583L20.1386 18.1955C19.8515 18.2236 19.5644 18.2517 19.2773 18.2798L19.9927 18.7719L19.7574 19.7091L20.4351 19.0811L21.1504 19.5778L20.8539 18.6922L21.5316 18.069C21.2446 18.0924 20.9528 18.1205 20.6657 18.1486L20.6704 18.1439Z" fill="white"/>
<path d="M21.7845 4.87806L21.5492 5.81057L22.2316 5.19202L22.9517 5.69811L22.6505 4.80778L23.3329 4.19392C23.3329 4.19392 23.314 4.19392 23.3046 4.19392C23.0223 4.21266 22.7446 4.23609 22.4669 4.25483L22.1657 3.3645L21.9304 4.29701C21.6433 4.32044 21.3515 4.34387 21.0645 4.37198L21.7845 4.87806Z" fill="white"/>
<path d="M23.0557 12.6005L23.6063 12.1038C23.6063 12.1038 23.5875 12.1038 23.5781 12.1038C23.2957 12.1226 23.018 12.146 22.7404 12.1647L22.4392 11.2744L22.2038 12.2069C21.9168 12.2303 21.625 12.2538 21.3379 12.2819L22.0579 12.7833L21.8226 13.7158L22.505 13.0972L23.2251 13.6033L22.9239 12.713L23.0557 12.5959V12.6005Z" fill="white"/>
<path d="M23.743 16.0587C23.743 16.0587 23.7242 16.0587 23.7148 16.0587C23.4324 16.0774 23.1547 16.1008 22.8771 16.1196L22.5759 15.2292L22.4582 15.6978L22.3406 16.1618C22.0535 16.1852 21.7617 16.2086 21.4746 16.2367L22.1947 16.7428L21.9594 17.6753L22.6418 17.0568L23.3618 17.5629L23.0606 16.6725L23.743 16.0587Z" fill="white"/>
<path d="M24.4922 5.03271C24.4546 5.17329 24.4169 5.33262 24.3746 5.49662C24.3322 5.66063 24.2899 5.81995 24.2569 5.96053C23.9698 5.97928 23.6828 5.99802 23.4004 6.01676C23.6075 6.16672 23.8145 6.31667 24.0216 6.46662C24.0499 6.49005 24.0828 6.50879 24.111 6.53222C24.0404 6.80869 23.9463 7.18357 23.8757 7.46004C24.1016 7.25854 24.3275 7.05705 24.5534 6.85555C24.7981 7.02893 25.0382 7.207 25.2782 7.38506C25.1888 7.11328 25.0664 6.75715 24.977 6.48536C25.2076 6.28855 25.4382 6.09174 25.6688 5.89493C25.377 5.9043 25.0805 5.91367 24.7887 5.92773C24.6993 5.66063 24.577 5.29981 24.4875 5.03271H24.4922Z" fill="white"/>
<path d="M23.7379 3.5052C23.9638 3.30371 24.1897 3.10221 24.4156 2.90072C24.6603 3.07878 24.9003 3.25216 25.1403 3.43023C25.0509 3.15844 24.9285 2.80231 24.8391 2.53053C25.0697 2.33372 25.3003 2.13691 25.5309 1.9401C25.2392 1.94947 24.9427 1.95884 24.6509 1.9729C24.5614 1.7058 24.4391 1.34498 24.3497 1.07788C24.3497 1.09662 24.3403 1.11537 24.3355 1.12943C24.3026 1.25595 24.2697 1.39653 24.232 1.5371C24.1897 1.70111 24.1473 1.86043 24.1144 2.00101C23.8273 2.01976 23.5402 2.0385 23.2578 2.05724C23.4931 2.23062 23.7331 2.39932 23.9685 2.5727C23.8979 2.84917 23.8037 3.22405 23.7331 3.50052L23.7379 3.5052Z" fill="white"/>
<path d="M24.627 8.99243C24.5564 9.2689 24.4623 9.63909 24.3917 9.91556C24.1046 9.93431 23.8175 9.95305 23.5352 9.9718C23.7705 10.1452 24.0105 10.3186 24.2458 10.4872C24.227 10.5575 24.2082 10.6325 24.1893 10.7122C24.1281 10.9465 24.0623 11.2089 24.0105 11.4151C24.2364 11.2136 24.4623 11.0121 24.6882 10.8106C24.9329 10.984 25.1729 11.162 25.413 11.3401C25.3894 11.2745 25.3659 11.1995 25.3424 11.1245C25.2671 10.8996 25.1823 10.6466 25.1118 10.4451C25.3424 10.2483 25.573 10.0515 25.8036 9.85465C25.5118 9.86402 25.2153 9.87339 24.9235 9.88745C24.8341 9.62035 24.7117 9.25953 24.6223 8.99243H24.627Z" fill="white"/>
<path d="M25.1977 17.7974C25.1083 17.5303 24.986 17.1694 24.8965 16.9023C24.8589 17.0429 24.8212 17.2022 24.7789 17.3663C24.7365 17.5303 24.6942 17.6896 24.6612 17.8302C24.3741 17.8489 24.0871 17.8676 23.8047 17.8864C24.04 18.0598 24.28 18.2285 24.5153 18.4018C24.4965 18.4721 24.4777 18.5471 24.4589 18.6268C24.4212 18.7814 24.3789 18.9501 24.3365 19.1094C24.3177 19.1891 24.2988 19.2641 24.28 19.3344C24.5059 19.1329 24.7318 18.9314 24.9577 18.7299C25.2024 18.9079 25.4425 19.0813 25.6825 19.2594C25.5931 18.9876 25.4707 18.6315 25.3813 18.3597C25.6119 18.1629 25.8425 17.9661 26.0731 17.7692C25.7813 17.7786 25.4848 17.788 25.193 17.802L25.1977 17.7974Z" fill="white"/>
<path d="M75.061 15.0419L75.1504 17.652C75.1504 17.6051 75.141 17.5583 75.1315 17.5114C74.8633 16.5086 72.3831 16.1572 69.8841 16.1572C61.3375 16.2322 52.2638 17.5817 42.9219 20.1637C41.1288 20.6604 39.3498 21.1946 37.6273 21.71C35.999 22.1974 34.3376 22.6941 32.6481 23.1627L32.5869 21.3492C32.5822 21.1712 32.3422 21.0025 31.8857 20.8431C30.5067 20.3745 28.8219 20.2246 27.0994 20.2293C26.0123 20.2293 24.911 20.2949 23.8662 20.3699C15.7903 20.9509 7.99668 22.1693 0.697266 23.9968L0.796097 26.9021C8.09551 25.0792 15.8891 23.8562 23.965 23.2751C25.0098 23.2002 26.1111 23.1393 27.1982 23.1393C27.4147 23.1346 27.6265 23.1393 27.843 23.1393C29.3396 23.1721 30.7797 23.3361 31.9892 23.7484C32.4457 23.9031 32.6857 24.0764 32.6904 24.2545L32.7516 26.068C34.4412 25.5947 36.1072 25.1027 37.7309 24.6153C39.4534 24.0952 41.237 23.561 43.0254 23.069C52.3673 20.487 61.4363 19.1375 69.9876 19.0625C72.4866 19.0625 74.9621 19.4139 75.2351 20.4167C75.2492 20.4636 75.2539 20.5104 75.2539 20.5573L75.1645 17.9472C78.7318 17.6895 82.318 17.5302 85.9089 17.4646L85.8101 14.564C82.2192 14.6296 78.6283 14.7936 75.0657 15.0466L75.061 15.0419Z" fill="white"/>
<path d="M75.1594 17.9426L75.2488 20.5526C75.2488 20.5058 75.2394 20.4589 75.23 20.4121C74.9617 19.4093 72.4815 19.0578 69.9825 19.0578C61.4359 19.1328 52.3623 20.4824 43.0203 23.0643C41.2272 23.561 39.4483 24.0952 37.7258 24.6107C36.0974 25.098 34.4361 25.5947 32.7465 26.0633L32.6854 24.2499C32.6807 24.0718 32.4406 23.9031 31.9841 23.7438C30.7793 23.3314 29.3345 23.1674 27.8379 23.1346C27.6261 23.1299 27.4096 23.1299 27.1932 23.1299C26.106 23.1346 25.0047 23.1955 23.96 23.2752C15.884 23.8562 8.09043 25.0746 0.791016 26.9021L0.805134 27.3051L0.889847 29.8074C8.18926 27.9846 15.9828 26.7615 24.0588 26.1805C25.1036 26.1055 26.2048 26.0446 27.292 26.0446V26.0352C27.5085 26.0352 27.7203 26.0352 27.9367 26.0399C29.4333 26.0727 30.8735 26.2367 32.083 26.6491C32.5395 26.8037 32.7795 26.9771 32.7842 27.1551L32.7936 27.3848L32.8454 28.8936C34.5349 28.4204 36.2009 27.9283 37.8246 27.441C39.5471 26.9208 41.3308 26.3867 43.1192 25.8946C52.4611 23.3127 61.5301 21.9631 70.0813 21.8881C72.5804 21.8881 75.0559 22.2396 75.3288 23.2424C75.3429 23.2892 75.3477 23.3361 75.3477 23.383L75.2629 20.8479C78.8303 20.5901 82.4165 20.4308 86.0073 20.3652L85.9085 17.4646C82.3176 17.5302 78.7268 17.6942 75.1641 17.9473L75.1594 17.9426ZM27.292 25.979V25.904L27.2355 24.2686L27.292 25.979Z" fill="#DB3232"/>
<path d="M75.2618 20.8479L75.3465 23.383C75.3465 23.3361 75.3371 23.2893 75.3277 23.2424C75.0594 22.2396 72.5792 21.8882 70.0802 21.8882C61.5336 21.9631 52.4599 23.3127 43.118 25.8947C41.3249 26.3914 39.5459 26.9256 37.8234 27.441C36.1951 27.9284 34.5338 28.4251 32.8442 28.8937L32.7924 27.3848L32.783 27.1552C32.7783 26.9771 32.5383 26.8084 32.0818 26.6491C30.877 26.2367 29.4322 26.0727 27.9356 26.0399C27.7238 26.0352 27.5073 26.0352 27.2908 26.0352V26.0446C26.2037 26.0446 25.1024 26.1055 24.0576 26.1805C15.9817 26.7616 8.18809 27.9799 0.888672 29.8074L0.987503 32.7127C3.72655 32.0286 6.53148 31.4288 9.3976 30.918C14.1745 30.0652 19.1113 29.4513 24.1564 29.0905C25.2012 29.0155 26.3025 28.9546 27.3896 28.9546L27.4555 30.9274L27.4838 31.7802L27.3849 28.9405C29.1074 28.9405 30.7923 29.0858 32.1712 29.5544C32.6277 29.709 32.8677 29.8824 32.8724 30.0605L32.9336 31.799C34.6232 31.3257 36.2892 30.8337 37.9129 30.3463C39.6353 29.8262 41.419 29.292 43.2074 28.7999C52.5493 26.218 61.6183 24.8684 70.1696 24.7935C72.6686 24.7935 75.1441 25.1449 75.4171 26.1477C75.4312 26.1946 75.4359 26.2414 75.4359 26.2883L75.3512 23.7532C78.9185 23.4954 82.5047 23.3361 86.0956 23.2705L85.9968 20.3652C82.4059 20.4308 78.815 20.5948 75.2523 20.8479H75.2618Z" fill="white"/>
<path d="M27.4932 31.8645V31.7849L27.4602 30.932L27.3943 28.9592C26.3072 28.9592 25.2059 29.0201 24.1611 29.0951C19.116 29.4559 14.1791 30.0698 9.40228 30.9226C6.53617 31.4334 3.73123 32.0332 0.992188 32.7174L1.09102 35.618C8.39043 33.7998 16.184 32.5815 24.26 32.0004C25.3047 31.9254 26.406 31.8645 27.4932 31.8645Z" fill="#DB3232"/>
<path d="M27.5936 34.7698L27.8901 34.6011L27.8101 33.1157L27.49 31.8645C26.4029 31.8645 25.3016 31.9254 24.2568 32.0004C16.1809 32.5815 8.38731 33.7998 1.08789 35.6273L1.18672 38.5326C8.48614 36.7098 16.2797 35.4867 24.3557 34.9057C25.4005 34.8307 26.5017 34.7698 27.5889 34.7698H27.5936Z" fill="white"/>
<path d="M65.0633 50.8753C64.6444 50.9269 64.2256 50.9831 63.8067 51.0393C61.0536 51.4095 58.2204 51.7891 55.4155 51.7891C54.8366 51.7891 54.253 51.775 53.6741 51.7375C53.1 51.7 52.4458 51.6438 51.9799 51.4564C51.914 51.4329 51.8575 51.4048 51.8057 51.3767C51.7869 51.3673 51.7728 51.358 51.754 51.3486C51.721 51.3298 51.6881 51.3064 51.6551 51.2877C51.6363 51.2736 51.6222 51.2642 51.6081 51.2502C51.5846 51.2314 51.5563 51.208 51.5375 51.1893C51.5234 51.1752 51.5093 51.1611 51.4951 51.1471C51.4763 51.1237 51.4575 51.1049 51.4387 51.0815C51.4292 51.0674 51.4198 51.0534 51.4104 51.0393C51.3963 51.0159 51.3822 50.9925 51.3681 50.9643C51.3634 50.9503 51.3539 50.9362 51.3492 50.9269C51.3351 50.894 51.3257 50.8612 51.3163 50.8284C51.3163 50.8238 51.3163 50.8144 51.3116 50.8097C51.2222 50.3833 51.5563 49.8819 52.0787 49.4555C52.347 49.2352 52.6435 49.029 52.9541 48.8322C55.5896 47.1687 59.6652 46.2596 63.962 45.3084C64.2256 45.2522 64.4938 45.1912 64.7574 45.1303C68.1788 44.3712 71.6379 43.5512 74.2735 42.286C75.13 41.8736 75.6477 41.4753 75.8406 41.0957C75.9018 40.9739 75.9348 40.8521 75.9301 40.7302C75.9301 40.688 75.9206 40.6459 75.9112 40.6084C75.643 39.6056 73.1628 39.2541 70.6637 39.2541C62.1172 39.3291 53.0435 40.6787 43.7016 43.2606C41.9085 43.7573 40.1295 44.2915 38.407 44.807C35.5974 45.6505 32.6936 46.5221 29.691 47.239C24.8906 48.3871 20.415 48.9681 16.3582 48.9728C15.6428 48.9728 14.9369 48.9588 14.2451 48.9213C13.7274 48.8931 13.1391 48.8557 12.6873 48.7104C12.612 48.687 12.5367 48.6588 12.4708 48.6307C12.4473 48.6214 12.4284 48.612 12.4096 48.6026C12.3673 48.5839 12.3249 48.5604 12.292 48.5417C12.2684 48.5276 12.2496 48.5136 12.2308 48.4995C12.1978 48.4808 12.1696 48.4574 12.1414 48.4386C12.1225 48.4246 12.1084 48.4058 12.0896 48.3917C12.0661 48.3683 12.0425 48.3496 12.0237 48.3261C12.0096 48.3074 11.9955 48.2933 11.9813 48.2746C11.9625 48.2512 11.9484 48.2277 11.9343 48.2043C11.9249 48.1856 11.9155 48.1668 11.906 48.1528C11.8919 48.1293 11.8825 48.1012 11.8778 48.0778C11.8731 48.059 11.8637 48.0403 11.859 48.0216C11.8543 47.9934 11.8496 47.9653 11.8449 47.9372C11.8449 47.9185 11.8402 47.8997 11.8402 47.8857C11.8166 47.4546 12.1508 46.9532 12.6496 46.5314C12.8614 46.3534 13.0873 46.18 13.3273 46.0113C14.9698 44.8398 17.1912 43.9026 19.6431 43.0779C21.5539 42.4359 23.6011 41.8595 25.6201 41.2925C27.9262 40.6459 30.3169 39.9758 32.4677 39.2167C32.7642 39.1136 33.0842 38.987 33.1548 38.7949C33.2301 38.5934 32.9901 38.3919 32.4677 38.2092C31.0888 37.7406 29.4039 37.5906 27.6814 37.5953C26.5943 37.5953 25.493 37.6562 24.4482 37.7312C16.3723 38.3123 8.57871 39.5306 1.2793 41.3581L1.47696 41.5456C4.60663 40.763 7.83042 40.1023 11.1248 39.5447L11.2142 42.1173C11.2001 41.6487 11.5484 41.1192 12.0755 40.674C12.8049 40.0554 13.6803 39.5025 14.6639 38.9964C17.883 38.5419 21.168 38.1858 24.4953 37.9468C25.253 37.8905 26.0437 37.853 26.8296 37.8343C26.3213 37.9796 25.8131 38.1201 25.3048 38.2654C20.2644 39.6759 15.0545 41.1379 12.1696 43.584C11.6425 44.0291 11.2895 44.5586 11.3083 45.0272L11.4072 47.881C11.4072 47.881 11.4072 47.8529 11.4072 47.8388C11.4072 48.2699 11.6943 48.6542 12.4331 48.8931C12.965 49.0665 13.6144 49.1087 14.1839 49.1415C14.8898 49.179 15.6052 49.1931 16.3393 49.1931C20.4667 49.1884 25.013 48.5979 29.8793 47.4311C32.9007 46.7095 35.8186 45.8332 38.6329 44.9898C40.3554 44.4743 42.1344 43.9401 43.918 43.4434C46.1488 42.8248 48.3608 42.2813 50.5586 41.808C50.5727 41.808 50.5821 41.8033 50.5962 41.7986C50.5774 41.883 50.5633 41.9626 50.568 42.0423L50.6668 44.9429C50.6527 44.4977 50.9916 44.0057 51.5045 43.5886C53.42 42.0235 56.5167 41.0348 59.8723 40.2101C63.5855 39.7462 67.2423 39.4884 70.8426 39.4603C71.6238 39.4603 72.4333 39.5025 73.1534 39.5962C70.4614 40.749 67.0305 41.5175 63.6985 42.2578C59.0393 43.2888 54.2248 44.3571 51.6128 46.4893C51.0998 46.911 50.761 47.403 50.7751 47.8435L50.8739 50.6972C50.8739 50.6972 50.8739 50.6644 50.8739 50.6504C50.8645 51.0299 51.1045 51.372 51.7022 51.611C52.2528 51.8312 52.9823 51.9015 53.6177 51.939C54.2154 51.9765 54.813 51.9906 55.4107 51.9906C58.2722 51.9906 61.1336 51.6063 63.9197 51.2314C64.3385 51.1752 64.7527 51.119 65.1715 51.0674C72.3109 50.1349 79.6527 49.596 86.9992 49.4648V49.254C79.6151 49.3852 72.2356 49.9287 65.068 50.8659L65.0633 50.8753Z" fill="#7A0A1D"/>
</g>
<defs>
<clipPath id="clip0_68_9684">
<rect width="87" height="52" fill="white"/>
</clipPath>
</defs>
</svg>
