<svg version="1" xmlns="http://www.w3.org/2000/svg" width="346.667" height="346.667" viewBox="0 0 260 260"><path d="M115 .7C76 6.6 45.5 24.8 23.8 55.2c-9.4 13-19 35.2-21.3 48.8-.3 1.9-1 6-1.5 9-1.3 7.9-.4 35.2 1.5 43 .8 3.6 1.8 7.5 2 8.7 1 4.6 5.8 17 9.1 23.5 18.8 37.4 54.4 63.5 95.9 70.2 8.3 1.3 31.5 1.5 40 .3 13.9-2.1 33.3-8.9 45.5-16.1 23.1-13.5 41.3-33.5 52.7-57.6 3.1-6.6 8.6-22.7 9.8-28.8 1.5-7.3 1.6-9.3 1.9-24.4.2-12-.2-17.8-1.5-24.7-2.2-11-4.8-20.3-6-21.6-.5-.5-.9-1.6-.9-2.5-.1-2.3-8.1-17.8-13.6-26.1-6.3-9.6-24.9-28.2-34.3-34.3-15.5-10.1-31.6-16.8-48.6-20.2C147.1.9 121-.2 115 .7z"/></svg>