<?xml version="1.0" encoding="UTF-8"?>
<svg width="207px" height="57px" viewBox="0 0 207 57" version="1.1" xmlns="http://www.w3.org/2000/svg" xmlns:xlink="http://www.w3.org/1999/xlink">
    <!-- Generator: Sketch 49 (51002) - http://www.bohemiancoding.com/sketch -->
    <title>logo</title>
    <desc>Created with Sketch.</desc>
    <defs>
        <polygon id="path-1" points="0.0390774178 0.0439380567 9.4424896 0.0439380567 9.4424896 20.5 0.0390774178 20.5"></polygon>
        <polygon id="path-3" points="0.0556733001 0.01904 21.0046512 0.01904 21.0046512 5.923824 0.0556733001 5.923824"></polygon>
        <polygon id="path-5" points="0.0241878369 0.01904 20.9731657 0.01904 20.9731657 5.923824 0.0241878369 5.923824"></polygon>
    </defs>
    <g id="Page-1" stroke="none" stroke-width="1" fill="none" fill-rule="evenodd">
        <g id="landing-page" transform="translate(-26.000000, -27.000000)">
            <g id="hero" transform="translate(-19.000000, 0.000000)">
                <g id="logo" transform="translate(45.000000, 27.000000)">
                    <path d="M69.8868409,36.9509176 L68.8704741,36.9509176 L68.8704741,41.8211256 L69.9218042,41.8211256 C70.8680768,41.8211256 71.6039827,41.6457495 72.0595116,41.2603748 C72.6553129,40.875 72.9356899,40.2444173 72.9356899,39.3682074 C72.9356899,38.5974579 72.6901923,38.0020006 72.2697944,37.5814165 C71.8492288,37.1961256 71.2886424,36.9509176 70.5526526,36.9509176 L69.8868409,36.9509176 Z M70.5876159,33.2016245 C71.4637942,33.2016245 71.9544541,32.921291 71.9544541,31.940459 C71.9544541,31.5897906 71.8843598,31.134584 71.4637942,30.889376 C71.113239,30.6788744 70.6227469,30.6788744 69.9918985,30.6788744 L68.8704741,30.6788744 L68.8704741,33.2016245 L70.5876159,33.2016245 Z M65.156065,44.6242093 L65.156065,27.8762099 L64.7354994,27.3853748 C64.5953108,27.2105016 64.6654051,27 64.9105673,27 L69.8868409,27 C71.3936999,27 72.9705694,27.1049574 74.0218995,27.805875 C75.3535228,28.6469594 75.7389574,30.1533329 75.7389574,31.8003761 C75.7389574,32.8866685 75.5638056,33.8322073 75.1784549,34.5331249 C76.2297011,35.5490824 76.68523,37.1609163 76.68523,39.4385422 C76.68523,41.8562511 76.1944863,43.5731262 75.0381825,44.4488332 C73.9517214,45.3247077 72.4099829,45.5 70.8680768,45.5 L64.9105673,45.5 C64.7005361,45.5 64.5603476,45.254792 64.7354994,45.0794997 L65.156065,44.6242093 Z" id="Fill-1" fill="#FEFEFE"></path>
                    <path d="M79.9393339,45.5 C79.7290821,45.5 79.6236625,45.254792 79.7640821,45.0794997 L80.1850893,44.6242931 L80.1850893,27.8762099 L79.7640821,27.3853748 C79.6236625,27.245208 79.6938303,27 79.9393339,27 L89.9722462,27 C90.112582,27 90.2179177,27.1049574 90.2179177,27.2105016 L90.2179177,30.7140837 C90.2179177,30.9245854 90.0074141,31.1346678 89.7969105,30.9245854 L89.3760713,30.5040013 L83.9033981,30.5040013 L83.9033981,34.3231262 L88.0077981,34.3231262 L88.4288052,33.8674166 C88.5339731,33.727166 88.8496445,33.7623754 88.8496445,34.0427927 L88.8496445,38.0719163 C88.8496445,38.2823341 88.5691409,38.3873754 88.4288052,38.2472086 L88.0077981,37.8619177 L83.9033981,37.8619177 L83.9033981,41.9965017 L89.3760713,41.9965017 L89.7969105,41.5759176 C89.9722462,41.4006253 90.2179177,41.5407083 90.2179177,41.7859163 L90.2179177,45.254792 C90.2179177,45.3598332 90.112582,45.5 89.9722462,45.5 L79.9393339,45.5 Z" id="Fill-3" fill="#FEFEFE"></path>
                    <path d="M101.875194,37.9317153 L100.707488,33.6925738 L99.6083982,37.9317153 L101.875194,37.9317153 Z M93.8041348,45.0795817 L94.2163244,44.6242891 L98.6467869,27.8410044 L98.3719938,27.3852927 C98.2690286,27.2104188 98.3377269,27 98.6125199,27 L102.905586,27 C103.111681,27 103.21481,27.2451253 103.111681,27.3852927 L102.802621,27.8410044 L107.233083,44.6242891 L107.713971,45.0795817 C107.816936,45.1845395 107.748238,45.5 107.507876,45.5 L103.352042,45.5 C103.180379,45.5 103.042982,45.2547909 103.21481,45.0795817 L103.626835,44.6589956 L102.733922,41.4006068 L98.7154851,41.4006068 L97.8567569,44.6589956 L98.2690286,45.0795817 C98.3719938,45.1845395 98.3377269,45.5 98.0628517,45.5 L93.9757983,45.5 C93.7698679,45.5 93.6324714,45.2547909 93.8041348,45.0795817 Z" id="Fill-5" fill="#FEFEFE"></path>
                    <path d="M115.362343,37.1257907 C116.475942,37.1257907 117.137107,36.9509176 117.589457,36.565459 C118.041807,36.2148745 118.215737,35.6545428 118.215737,34.708501 L118.215737,32.8866685 C118.215737,31.9053335 118.041807,31.3099601 117.589457,30.9943334 C117.171743,30.6442519 116.510578,30.5040013 115.362343,30.5040013 L114.909993,30.5040013 L114.909993,37.1257907 L115.362343,37.1257907 Z M110.838509,27.3853748 C110.699299,27.245208 110.768904,27 111.012438,27 L116.893572,27 C119.990418,27 121.86984,28.7519168 121.86984,32.0455003 L121.86984,35.5842079 C121.86984,36.565459 121.69566,37.4764591 121.347801,38.1773767 C120.96489,38.9827488 120.408132,39.6138345 119.642725,39.9639999 L121.730546,44.5889999 L122.217532,45.0794997 C122.391712,45.1844571 122.252501,45.5 122.00905,45.5 L117.624176,45.5 C117.450247,45.5 117.276317,45.2900014 117.450247,45.0794997 L117.798273,44.6242093 L115.988622,40.5946665 L114.909993,40.5946665 L114.909993,44.6242093 L115.362343,45.0794997 C115.605877,45.3247077 115.466667,45.5 115.223132,45.5 L111.012438,45.5 C110.803873,45.5 110.699299,45.254792 110.838509,45.0794997 L111.256223,44.6242093 L111.256223,27.8762099 L110.838509,27.3853748 Z" id="Fill-7" fill="#FEFEFE"></path>
                    <path d="M129.434777,30.5040013 L129.434777,41.9965017 L131.908795,41.9965017 C133.558086,41.9965017 134.726368,40.9102094 134.726368,39.1229994 L134.726368,33.3770006 C134.726368,31.625 133.832831,30.5040013 131.908795,30.5040013 L129.434777,30.5040013 Z M125.380441,27.3853748 C125.242987,27.245208 125.311714,27 125.552095,27 L132.905259,27 C134.76065,27 136.169313,27.5255415 137.097131,28.5767084 C137.921694,29.4876246 138.33414,30.8542505 138.33414,32.5359163 L138.33414,39.9640837 C138.33414,43.3626246 136.410023,45.5 132.905259,45.5 L125.552095,45.5 C125.34616,45.5 125.208705,45.254792 125.380441,45.0794997 L125.792805,44.6242931 L125.792805,27.8762099 L125.380441,27.3853748 Z" id="Fill-9" fill="#FEFEFE"></path>
                    <path d="M148.859564,39.6563964 L148.859564,32.2733632 C148.859564,28.1447484 151.084752,26.5 155.158651,26.5 C159.027356,26.5 161.389831,28.0046861 161.389831,32.2733632 L161.389831,32.8684396 C161.389831,33.0084182 161.287193,33.1133184 161.115911,33.1133184 L157.521125,33.1133184 C157.281528,33.1133184 157.178972,32.8332775 157.31585,32.6932989 L157.760723,32.2733632 C157.589851,31.0489692 156.63105,30.2440923 155.29561,30.2440923 L154.953539,30.2440923 C154.063382,30.2440923 153.447226,30.4889711 153.036265,31.0489692 C152.659789,31.5738051 152.52283,32.2733632 152.52283,33.2181349 L152.52283,38.746703 C152.52283,41.1963282 153.858106,41.7211642 154.953539,41.7211642 L155.29561,41.7211642 C156.185767,41.7211642 156.836244,41.4757831 157.247206,40.9162874 C157.589851,40.3914514 157.795127,39.6914747 157.795127,38.746703 L157.795127,38.5018242 L157.349762,38.0818047 C157.213293,37.9769045 157.247206,37.6272092 157.555447,37.6272092 L161.115911,37.6272092 C161.287193,37.6272092 161.389831,37.7671878 161.389831,37.9071664 L161.389831,39.6563964 C161.389831,43.7502677 159.233123,45.5 155.158651,45.5 C151.358753,45.5 148.859564,43.9605704 148.859564,39.6563964" id="Fill-11" fill="#FEFEFE"></path>
                    <path d="M174.553816,41.5407083 C174.654313,41.435667 174.922518,41.5055827 174.922518,41.7507907 L174.922518,45.254792 C174.922518,45.3598332 174.855707,45.5 174.721605,45.5 L165.13438,45.5 C164.932905,45.5 164.832488,45.254792 164.966591,45.0794997 L165.368899,44.6242093 L165.368899,27.8410005 L164.966591,27.3853748 C164.832488,27.2105016 164.89978,27 165.13438,27 L169.123295,27 C169.357895,27 169.458312,27.245208 169.32469,27.3853748 L168.888615,27.8410005 L168.888615,41.9612924 L174.118222,41.9612924 L174.553816,41.5407083 Z" id="Fill-13" fill="#FEFEFE"></path>
                    <path d="M177.999844,27.3796206 C177.862242,27.2073586 177.931331,27 178.171909,27 L182.262393,27 C182.537516,27 182.606029,27.2415467 182.469002,27.3796206 L182.05636,27.8631269 L182.05636,38.8385961 C182.05636,41.2548064 183.396688,41.7725834 184.531476,41.7725834 L184.875111,41.7725834 C186.559569,41.7725834 187.35031,40.5990381 187.35031,38.8385961 L187.35031,27.8631269 L186.903122,27.3796206 C186.800147,27.2761478 186.834609,27 187.075187,27 L191.23476,27 C191.406331,27 191.543852,27.2415467 191.406331,27.3796206 L190.959638,27.8631269 L190.959638,39.7359112 C190.959638,43.7052874 188.794107,45.5 184.703047,45.5 C180.818596,45.5 178.412487,43.9468341 178.412487,39.7359112 L178.412487,27.8631269 L177.999844,27.3796206 Z" id="Fill-15" fill="#FEFEFE"></path>
                    <path d="M200.201808,36.9509176 L199.185685,36.9509176 L199.185685,41.8211256 L200.236939,41.8211256 C201.183219,41.8211256 201.91888,41.6457495 202.374748,41.2603748 C202.970302,40.875 203.250598,40.2444173 203.250598,39.3682074 C203.250598,38.5974579 203.005433,38.0020006 202.584781,37.5814165 C202.164128,37.1961256 201.603369,36.9509176 200.867625,36.9509176 L200.201808,36.9509176 Z M200.902756,33.2016245 C201.778774,33.2016245 202.269186,32.921291 202.269186,31.940459 C202.269186,31.5897906 202.199343,31.134584 201.778774,30.889376 C201.428468,30.6788744 200.937468,30.6788744 200.306866,30.6788744 L199.185685,30.6788744 L199.185685,33.2016245 L200.902756,33.2016245 Z M195.470994,44.6242093 L195.470994,27.8762099 L195.050425,27.3853748 C194.910236,27.2105016 194.980582,27 195.225746,27 L200.201808,27 C201.708931,27 203.285813,27.1049574 204.337067,27.805875 C205.668785,28.6469594 206.054223,30.1533329 206.054223,31.8003761 C206.054223,32.8866685 205.878818,33.8322073 205.49338,34.5331249 C206.544635,35.5490824 207,37.1609163 207,39.4385422 C207,41.8562511 206.509504,43.5731262 205.353191,44.4488332 C204.266721,45.3247077 202.72497,45.5 201.183219,45.5 L195.225746,45.5 C195.01521,45.5 194.875021,45.254792 195.050425,45.0794997 L195.470994,44.6242093 Z" id="Fill-17" fill="#FEFEFE"></path>
                    <path d="M64.9183339,13.8332553 C64.8376756,13.9165918 64.6561743,13.8332553 64.6561743,13.7083752 L64.6561743,11.666673 C64.6561743,11.5833365 64.736913,11.5 64.8174105,11.5 L71.5118069,11.5 C71.6125695,11.5 71.6731235,11.5623985 71.6731235,11.666673 L71.6731235,13.7083752 C71.6731235,13.8332553 71.5118069,13.9165918 71.4311486,13.8332553 L71.1689891,13.5834951 L69.2332707,13.5834951 L69.2332707,21.9792924 L69.4753259,22.2499075 C69.5559842,22.333244 69.5156149,22.5 69.3744026,22.5 L66.9548148,22.5 C66.8337872,22.5 66.7733136,22.333244 66.8540523,22.2499075 L67.0959467,21.9792924 L67.0959467,13.5834951 L65.1602283,13.5834951 L64.9183339,13.8332553 Z" id="Fill-19" fill="#FEFEFE"></path>
                    <path d="M74.4653751,12.0210399 L74.220779,11.7291545 C74.1391657,11.6458181 74.1799724,11.5 74.3226331,11.5 L76.7481092,11.5 C76.8703666,11.5 76.9519799,11.6458181 76.8703666,11.7291545 L76.6054485,12.0210399 L76.6054485,15.8334139 L79.2551173,15.8334139 L79.2551173,12.0210399 L79.0105212,11.7291545 C78.9289892,11.6458181 78.9901992,11.5 79.1124566,11.5 L81.558336,11.5 C81.6601901,11.5 81.7417221,11.6252124 81.6601901,11.7291545 L81.3951907,12.0210399 L81.3951907,21.9792924 L81.6601901,22.2499906 C81.7417221,22.333327 81.6806747,22.5 81.558336,22.5 L79.1124566,22.5 C79.0105212,22.5 78.9289892,22.354265 79.0105212,22.2499906 L79.2551173,21.9792924 L79.2551173,17.9166597 L76.6054485,17.9166597 L76.6054485,21.9792924 L76.8703666,22.2499906 C76.9314953,22.3123891 76.8906886,22.5 76.7481092,22.5 L74.3226331,22.5 C74.200457,22.5 74.1391657,22.354265 74.220779,22.2499906 L74.4653751,21.9792924 L74.4653751,12.0210399 Z" id="Fill-21" fill="#FEFEFE"></path>
                    <path d="M84.344444,22.5 C84.2242835,22.5 84.1640833,22.354265 84.2442702,22.2499906 L84.4848311,21.9792924 L84.4848311,12.0210399 L84.2442702,11.7291545 C84.1640833,11.6458181 84.2041368,11.5 84.344444,11.5 L90.0775306,11.5 C90.1577175,11.5 90.2179177,11.5624816 90.2179177,11.6252124 L90.2179177,13.7083752 C90.2179177,13.8332553 90.0975973,13.9584677 89.9773568,13.8332553 L89.7367161,13.5834951 L86.6095852,13.5834951 L86.6095852,15.8543519 L88.9549933,15.8543519 L89.1956341,15.5833214 C89.2556744,15.4999849 89.436115,15.5209229 89.436115,15.6875958 L89.436115,18.0833327 C89.436115,18.2084621 89.275821,18.2709436 89.1956341,18.1875241 L88.9549933,17.9583695 L86.6095852,17.9583695 L86.6095852,20.4168372 L89.7367161,20.4168372 L89.9773568,20.1667447 C90.0775306,20.0625533 90.2179177,20.1458898 90.2179177,20.2916248 L90.2179177,22.354265 C90.2179177,22.4166635 90.1577175,22.5 90.0775306,22.5 L84.344444,22.5 Z" id="Fill-23" fill="#FEFEFE"></path>
                    <path d="M2.79584012,10 C2.79584012,10 2.2143303,11.1991853 2.47278808,13.1706716 C2.73124586,15.14224 2.47278808,18.6253141 1.50363196,19.1510767 C1.50363196,19.1510767 3.95885976,18.6253141 4.47577532,17.7052708 C4.47577532,17.7052708 4.54036958,19.2167764 6.15571051,20.5311828 C7.77105145,21.8455891 10.4848178,22.897032 11.4539739,25 C11.4539739,25 11.7585358,21.0289408 11.1308411,19.0196771 C10.5032271,17.0103313 9.38639239,15.4051213 10.0324965,13.2364535 C10.0324965,13.2364535 4.47577532,12.1686678 2.79584012,10" id="Fill-25" fill="#FEFEFE"></path>
                    <path d="M3.97304127,20.5 C3.97304127,20.5 4.76791527,21.5711563 6.62253851,22.5753026 C8.47724452,23.5795326 11.4700035,26.0571462 11.5242201,28.4665787 C11.590439,31.4120912 10.7955649,35.0941283 5.29783127,36.5 C5.29783127,36.5 7.15245451,33.0188257 5.82774728,31.0774594 C4.50295727,29.1359259 1.45598164,26.324266 3.97304127,20.5" id="Fill-27" fill="#FEFEFE"></path>
                    <path d="M11.6337069,13.5 C11.6337069,13.5 16.1997435,14.2924724 21.0304839,13.5 C21.0304839,13.5 22.6186238,15.1508811 22.5524685,18.1886509 C22.4863133,21.2263382 19.1775575,22.6792456 19.1114023,25.5188766 C19.1114023,25.5188766 17.9864319,24.9905617 17.5232624,23.4716355 C17.5232624,23.4716355 16.857575,24.6796134 16.6629131,25.6509141 C16.4644473,26.6415253 16.1335883,28.4245264 16.8614616,31 C16.8614616,31 13.7512543,28.8868227 13.2880848,27.3018778 C12.8248325,25.7169329 12.9483775,22.6166103 13.023381,20.896162 C13.1556915,17.8584747 11.0381441,16.4056498 11.6337069,13.5" id="Fill-29" fill="#FEFEFE"></path>
                    <path d="M12.8636691,31 C12.8636691,31 13.1275133,34.6666996 9.30189629,36.8666528 C7.74232246,37.7635625 8.77420792,40.8666736 10.1593693,42.0666632 C11.5445306,43.2666528 12.8636691,44.9999896 12.8636691,47 C12.8636691,47 14.7105784,45.8000104 14.8424593,43.599974 C14.9743402,41.4000208 13.5892613,40.0000052 13.9849863,38.6000729 C14.3807114,37.199974 16.6893686,35.3999896 12.8636691,31" id="Fill-31" fill="#FEFEFE"></path>
                    <path d="M16.0387409,32.3120478 C16.0387409,32.3120478 17.512636,38.2292614 19.8196162,39.9776207 C22.0022302,41.6315331 22.2548064,43.944725 22.5752915,46.5 C22.5752915,46.5 26.6765718,42.8689215 25.2667417,37.4896517 C23.8569116,32.1103819 19.6914862,30.8328285 18.3457211,27 C18.3457211,27 17.8971861,32.1103819 20.0760363,34.9344607 C20.0760363,34.9344607 18.0253161,34.329295 16.0387409,32.3120478" id="Fill-33" fill="#FEFEFE"></path>
                    <path d="M16.4687141,38.5 C16.4687141,38.5 16.0107996,39.4352034 16.3379281,40.5709208 C17.5153292,43.7773921 16.6649749,44.9129426 16.2070603,46.1821413 C15.7492275,47.4513399 16.1416673,50.0566031 18.4310765,51.5930981 C20.7204857,53.1295097 21.374661,55 21.374661,55 C21.374661,55 22.6174551,52.9291626 22.5519803,51.1923205 C22.4865873,49.455395 21.1129254,48.1861963 20.9167464,46.4494377 C20.7204857,44.7125956 20.4588319,42.9088876 18.823598,41.5061242 C17.1882824,40.1032774 16.4687141,38.5 16.4687141,38.5" id="Fill-35" fill="#FEFEFE"></path>
                    <path d="M24.2499986,20 C24.2499986,20 22.7881867,22.1902993 21.924385,23.185837 C21.1032627,24.132191 19.7316255,25.9734755 21.1934375,28.4956207 C22.6552494,31.017683 23.5190511,29.9557096 26.5091851,35 C26.5091851,35 28.5690073,31.81408 28.5690073,29.4911585 C28.5690073,27.1681541 24.1835715,23.517683 24.2499986,20" id="Fill-37" fill="#FEFEFE"></path>
                    <path d="M23.5569007,13.3666378 C23.5569007,13.3666378 24.6512978,14.8333056 25.1019603,17.2332922 C25.5525424,19.6333622 25.6813375,20.9000033 26.7112968,23.0999633 C27.7413366,25.3000067 29.7369782,26.5 29.7369782,26.5 C29.7369782,26.5 28.7713763,24.2333089 30.7670179,21.10003 C32.7626595,17.9666678 32.9784981,12.6765833 27.8207375,11.5 C27.8207375,11.5 26.4537869,12.29994 23.5569007,13.3666378" id="Fill-39" fill="#FEFEFE"></path>
                    <g id="Group-43" transform="translate(23.556901, 36.500000)">
                        <mask id="mask-2" fill="white">
                            <use xlink:href="#path-1"></use>
                        </mask>
                        <g id="Clip-42"></g>
                        <path d="M3.02342414,0.0439380567 C3.02342414,0.0439380567 4.12131334,4.29457571 2.76509253,7.21686316 C1.66784896,9.58116883 0.375625954,10.4048206 0.117294337,11.9987579 C-0.141037279,13.5927781 -0.0118311194,17.5777457 4.57341384,20.5000332 C4.57341384,20.5000332 3.08798687,18.1754826 4.37964495,16.3158753 C5.67130304,14.456102 5.47753415,14.8546486 5.99419738,14.0577215 C5.99419738,14.0577215 5.99419738,14.7218551 6.89831769,15.5187822 C7.80243799,16.3158753 9.15865881,17.0463227 9.41699042,17.511266 C9.41699042,17.511266 9.54611588,15.0539219 9.22322153,14.2569117 C8.90032719,13.4599016 8.06076961,11.7995676 8.2545385,9.80708381 C8.44830739,7.8146 9.15865881,2.76703522 3.02342414,0.0439380567" id="Fill-41" fill="#FEFEFE" mask="url(#mask-2)"></path>
                    </g>
                    <path d="M30.3712946,28.4273862 C30.3712946,28.4273862 31.172339,29.6223918 30.1710961,31.8795785 C29.1697697,34.1368482 28.5690073,35 28.5690073,35 C28.5690073,35 33.0413593,34.5352387 34.3764333,32.0788568 C35.7115073,29.6223918 36.4457355,28.1618202 35.9117059,25.240677 C35.3777597,22.3195337 33.3083741,19 33.3083741,19 C33.3083741,19 32.9746264,20.3278301 32.0401163,22.253163 C31.1056062,24.1784129 30.9053242,25.4397893 31.3725376,26.8339901 C31.8398344,28.228191 31.7063687,29.0912598 31.7063687,29.0912598 C31.7063687,29.0912598 31.172339,28.4273862 30.3712946,28.4273862" id="Fill-44" fill="#FEFEFE"></path>
                    <path d="M30.0726392,36.3696561 C30.0726392,36.3696561 33.1592462,38.2857497 33.73798,41.6554058 C34.3167137,45.0249794 33.6736941,45.8178542 33.9952039,47.1392297 C34.3167137,48.4606877 34.8954475,50.310729 36.760301,51.5 C36.760301,51.5 35.9243433,48.6589271 36.8245869,46.6767813 C37.7248305,44.6946355 40.2327037,40.0696561 38.4965024,36.7661348 C36.760301,33.462531 35.9886292,33 35.9886292,33 C35.9886292,33 34.8954475,35.7089684 30.0726392,36.3696561" id="Fill-46" fill="#FEFEFE"></path>
                    <path d="M40.0697675,35.4207727 L37.0895884,31.1039477 C37.0895884,31.1039477 37.8345908,29.2828991 37.9023876,27.1918751 C37.9700997,25.1009354 37.0895884,23.0099957 37.0895884,23.0099957 C37.0895884,23.0099957 39.8665465,22.8076195 41.2889239,24.2240843 C42.7113014,25.6405491 43.6299854,27.0049237 44.1336788,28.8107161 C44.8109691,31.2388933 44.1336788,34.6113522 44.6077482,36.5 C44.6077482,36.5 41.4921449,33.9369616 40.6116336,30.0247204 C40.6116336,30.0247204 40.6793457,31.1039477 40.4761247,32.4529819 C40.2729038,33.802016 40.0697675,35.4207727 40.0697675,35.4207727" id="Fill-48" fill="#FEFEFE"></path>
                    <path d="M32.5786925,12.5 C32.5786925,12.5 34.6443971,14.8395682 34.1112959,17.2459621 C34.1112959,17.2459621 35.3773488,20.9892878 40.0418593,21.657712 C41.8995529,21.923929 44.4398191,25 44.4398191,25 C44.4398191,25 45.3727879,18.917106 42.8405989,16.2433258 C42.1583592,15.5228611 39.5088414,13.9037576 39.5088414,13.9037576 C39.5088414,13.9037576 35.8438332,13.7700227 32.5786925,12.5" id="Fill-50" fill="#FEFEFE"></path>
                    <path d="M51.8133417,10.5 C51.8133417,10.5 51.6836538,13.5608786 53.62954,15.2243182 C53.62954,15.2243182 50.8404391,14.5589423 50.6458262,14.3592963 C50.6458262,14.3592963 52.3970994,17.1540079 51.2944279,20.2814074 C50.1301546,23.5835076 52.8511693,28 52.8511693,28 C52.8511693,28 46.6243659,25.0722465 45.9756831,22.4771809 C45.3270814,19.8821154 46.5595219,17.3535707 42.6029056,13.9600874 C42.6029056,13.9600874 47.2081236,13.2281075 51.8133417,10.5" id="Fill-52" fill="#FEFEFE"></path>
                    <path d="M45.1089588,25 C45.1089588,25 46.238576,26.9761734 48.5186231,27.9392584 C51.2069744,29.0748924 50.635037,31.8660609 50.4201099,32.6821413 C49.6988789,35.4210526 46.5515028,37.5586723 48.0595983,41.5 C48.0595983,41.5 45.8958233,40.0972366 45.6990867,38.0263158 C45.0307886,30.9914625 46.3547662,28.9413277 45.1089588,25" id="Fill-54" fill="#FEFEFE"></path>
                    <path d="M45.0623101,41.152736 C44.6334072,37.9606272 41.5876659,35.5 41.5876659,35.5 C41.5876659,35.5 42.295428,41.6846849 39.7216085,45.0098432 C39.7216085,45.0098432 38.6920486,47.2709376 39.271156,49 C39.271156,49 40.070263,47.7615838 41.2917599,46.7286838 C41.4894862,47.5677852 42.4884906,48.6009345 42.4884906,48.6009345 C42.4884906,46.7389056 43.3893154,46.6724224 44.2901402,45.1428928 C44.9495764,44.0232322 45.0744519,42.7798297 45.0941522,42.1932815 C45.1206068,41.8724168 45.1125659,41.5269534 45.0623101,41.152736" id="Fill-56" fill="#FEFEFE"></path>
                    <path d="M27.0653753,4.44538631 C27.0653753,4.44538631 24.9611439,3.19289572 21.3267197,4.44538631 C17.6922131,5.69779499 13.0368637,9.2458903 6.87983402,6.81700878 C1.76301236,4.79852477 0.161950601,0.5 0.161950601,0.5 C0.161950601,0.5 -1.47215588,6.63654856 5.64111044,10.029086 C12.4882061,13.294818 21.1354559,11.7511991 24.1960063,10.7075116 C27.2566391,9.66382405 27.0334843,8.96803235 27.0334843,8.58532234 C27.0334843,8.20261234 27.0653753,4.44538631 27.0653753,4.44538631" id="Fill-58" fill="#FEFEFE"></path>
                    <g id="Group-62" transform="translate(6.014528, 0.000000)">
                        <mask id="mask-4" fill="white">
                            <use xlink:href="#path-3"></use>
                        </mask>
                        <g id="Clip-61"></g>
                        <path d="M21.0046512,2.940944 C21.0046512,2.940944 19.409905,0.019024 15.702892,0.019024 C7.87684738,0.019024 7.69490201,3.984944 0.0556733001,4.513744 C0.0556733001,4.513744 2.48518875,5.923824 4.78476682,5.923824 C8.83528008,5.923824 12.8247046,2.564384 15.8798017,2.222304 C19.5207728,1.814544 21.0046512,2.940944 21.0046512,2.940944" id="Fill-60" fill="#FEFEFE" mask="url(#mask-4)"></path>
                    </g>
                    <path d="M28.5690073,4.44538631 C28.5690073,4.44538631 30.6731563,3.19289572 34.3076629,4.44538631 C37.9421695,5.69779499 42.5975188,9.2458903 48.7545485,6.81700878 C53.8713702,4.79852477 55.472432,0.5 55.472432,0.5 C55.472432,0.5 57.1065384,6.63654856 49.9932721,10.029086 C43.1460941,13.294818 34.4989267,11.7511991 31.4382939,10.7075116 C28.3777435,9.66382405 28.6008983,8.96803235 28.6008983,8.58532234 C28.6008983,8.20261234 28.5690073,4.44538631 28.5690073,4.44538631" id="Fill-63" fill="#FEFEFE"></path>
                    <g id="Group-67" transform="translate(28.569007, 0.000000)">
                        <mask id="mask-6" fill="white">
                            <use xlink:href="#path-5"></use>
                        </mask>
                        <g id="Clip-66"></g>
                        <path d="M0.0241878369,2.940944 C0.0241878369,2.940944 1.61885145,0.019024 5.32594696,0.019024 C13.1519916,0.019024 13.333937,3.984944 20.9731657,4.513744 C20.9731657,4.513744 18.5436502,5.923824 16.2440722,5.923824 C12.1935589,5.923824 8.2041344,2.564384 5.14895474,2.222304 C1.5080662,1.814544 0.0241878369,2.940944 0.0241878369,2.940944" id="Fill-65" fill="#FEFEFE" mask="url(#mask-6)"></path>
                    </g>
                </g>
            </g>
        </g>
    </g>
</svg>