<?xml version="1.0" encoding="utf-8"?>
<!-- Generator: Adobe Illustrator 17.0.0, SVG Export Plug-In . SVG Version: 6.00 Build 0)  -->
<!DOCTYPE svg PUBLIC "-//W3C//DTD SVG 1.1//EN" "http://www.w3.org/Graphics/SVG/1.1/DTD/svg11.dtd">
<svg version="1.1" id="Слой_1" xmlns="http://www.w3.org/2000/svg" xmlns:xlink="http://www.w3.org/1999/xlink" x="0px" y="0px"
	 width="207px" height="57px" viewBox="0 0 207 57" enable-background="new 0 0 207 57" xml:space="preserve">
<title>logo</title>
<desc>Created with Sketch.</desc>
<g id="Page-1">
	<g id="landing-page" transform="translate(-26.000000, -27.000000)">
		<g id="hero" transform="translate(-19.000000, 0.000000)">
			<g id="logo" transform="translate(45.000000, 27.000000)">
				<path id="Fill-1" fill="#999999" d="M69.887,36.951H68.87v4.87h1.051c0.946,0,1.682-0.175,2.138-0.561
					c0.596-0.385,0.876-1.016,0.876-1.892c0-0.771-0.245-1.366-0.666-1.787c-0.421-0.385-0.981-0.631-1.717-0.631H69.887z
					 M70.588,33.202c0.876,0,1.367-0.28,1.367-1.261c0-0.351-0.07-0.806-0.491-1.051c-0.351-0.211-0.841-0.211-1.472-0.211H68.87
					v2.523H70.588z M65.156,44.624V27.876l-0.421-0.491C64.595,27.211,64.665,27,64.911,27h4.976c1.507,0,3.084,0.105,4.135,0.806
					c1.332,0.841,1.717,2.347,1.717,3.995c0,1.086-0.175,2.032-0.561,2.733c1.051,1.016,1.507,2.628,1.507,4.905
					c0,2.418-0.491,4.135-1.647,5.01c-1.086,0.876-2.628,1.051-4.17,1.051h-5.958c-0.21,0-0.35-0.245-0.175-0.421L65.156,44.624z"/>
				<path id="Fill-3" fill="#999999" d="M79.939,45.5c-0.21,0-0.316-0.245-0.175-0.421l0.421-0.455V27.876l-0.421-0.491
					c-0.14-0.14-0.07-0.385,0.175-0.385h10.033c0.14,0,0.246,0.105,0.246,0.211v3.504c0,0.211-0.211,0.421-0.421,0.211l-0.421-0.421
					h-5.473v3.819h4.104l0.421-0.456c0.105-0.14,0.421-0.105,0.421,0.175v4.029c0,0.21-0.281,0.315-0.421,0.175l-0.421-0.385h-4.104
					v4.135h5.473l0.421-0.421c0.175-0.175,0.421-0.035,0.421,0.21v3.469c0,0.105-0.105,0.245-0.246,0.245H79.939z"/>
				<path id="Fill-5" fill="#999999" d="M101.875,37.932l-1.168-4.239l-1.099,4.239H101.875z M93.804,45.08l0.412-0.455l4.43-16.783
					l-0.275-0.456C98.269,27.21,98.338,27,98.613,27h4.293c0.206,0,0.309,0.245,0.206,0.385l-0.309,0.456l4.43,16.783l0.481,0.455
					c0.103,0.105,0.034,0.42-0.206,0.42h-4.156c-0.172,0-0.309-0.245-0.137-0.42l0.412-0.421l-0.893-3.258h-4.018l-0.859,3.258
					l0.412,0.421c0.103,0.105,0.069,0.42-0.206,0.42h-4.087C93.77,45.5,93.632,45.255,93.804,45.08z"/>
				<path id="Fill-7" fill="#999999" d="M115.362,37.126c1.114,0,1.775-0.175,2.227-0.56c0.452-0.351,0.626-0.911,0.626-1.857
					v-1.822c0-0.981-0.174-1.577-0.626-1.892c-0.418-0.35-1.079-0.49-2.227-0.49h-0.452v6.622H115.362z M110.839,27.385
					c-0.139-0.14-0.07-0.385,0.174-0.385h5.881c3.097,0,4.976,1.752,4.976,5.046v3.539c0,0.981-0.174,1.892-0.522,2.593
					c-0.383,0.805-0.94,1.436-1.705,1.787l2.088,4.625l0.487,0.49c0.174,0.105,0.035,0.421-0.208,0.421h-4.385
					c-0.174,0-0.348-0.21-0.174-0.421l0.348-0.455l-1.81-4.03h-1.079v4.03l0.452,0.455c0.244,0.245,0.104,0.421-0.139,0.421h-4.211
					c-0.209,0-0.313-0.245-0.174-0.421l0.418-0.455V27.876L110.839,27.385z"/>
				<path id="Fill-9" fill="#999999" d="M129.435,30.504v11.493h2.474c1.649,0,2.818-1.086,2.818-2.874v-5.746
					c0-1.752-0.894-2.873-2.818-2.873H129.435z M125.38,27.385c-0.137-0.14-0.069-0.385,0.172-0.385h7.353
					c1.855,0,3.264,0.526,4.192,1.577c0.825,0.911,1.237,2.278,1.237,3.959v7.428c0,3.399-1.924,5.536-5.429,5.536h-7.353
					c-0.206,0-0.343-0.245-0.172-0.421l0.412-0.455V27.876L125.38,27.385z"/>
				<path id="Fill-11" fill="#999999" d="M148.86,39.656v-7.383c0-4.129,2.225-5.773,6.299-5.773c3.869,0,6.231,1.505,6.231,5.773
					v0.595c0,0.14-0.103,0.245-0.274,0.245h-3.595c-0.24,0-0.342-0.28-0.205-0.42l0.445-0.42c-0.171-1.224-1.13-2.029-2.465-2.029
					h-0.342c-0.89,0-1.506,0.245-1.917,0.805c-0.376,0.525-0.513,1.224-0.513,2.169v5.529c0,2.45,1.335,2.974,2.431,2.974h0.342
					c0.89,0,1.541-0.245,1.952-0.805c0.343-0.525,0.548-1.225,0.548-2.17v-0.245l-0.445-0.42c-0.136-0.105-0.103-0.455,0.206-0.455
					h3.56c0.171,0,0.274,0.14,0.274,0.28v1.749c0,4.094-2.157,5.844-6.231,5.844C151.359,45.5,148.86,43.961,148.86,39.656"/>
				<path id="Fill-13" fill="#999999" d="M174.554,41.541c0.1-0.105,0.369-0.035,0.369,0.21v3.504c0,0.105-0.067,0.245-0.201,0.245
					h-9.587c-0.201,0-0.302-0.245-0.168-0.421l0.402-0.455V27.841l-0.402-0.456C164.832,27.211,164.9,27,165.134,27h3.989
					c0.235,0,0.335,0.245,0.201,0.385l-0.436,0.456v14.12h5.23L174.554,41.541z"/>
				<path id="Fill-15" fill="#999999" d="M178,27.38c-0.138-0.172-0.069-0.38,0.172-0.38h4.09c0.275,0,0.344,0.242,0.207,0.38
					l-0.413,0.484v10.975c0,2.416,1.34,2.934,2.475,2.934h0.344c1.684,0,2.475-1.174,2.475-2.934V27.863l-0.447-0.484
					c-0.103-0.103-0.069-0.38,0.172-0.38h4.16c0.172,0,0.309,0.242,0.172,0.38l-0.447,0.484v11.873c0,3.969-2.166,5.764-6.257,5.764
					c-3.884,0-6.291-1.553-6.291-5.764V27.863L178,27.38z"/>
				<path id="Fill-17" fill="#999999" d="M200.202,36.951h-1.016v4.87h1.051c0.946,0,1.682-0.175,2.138-0.561
					c0.596-0.385,0.876-1.016,0.876-1.892c0-0.771-0.245-1.366-0.666-1.787c-0.421-0.385-0.981-0.631-1.717-0.631H200.202z
					 M200.903,33.202c0.876,0,1.366-0.28,1.366-1.261c0-0.351-0.07-0.806-0.49-1.051c-0.35-0.211-0.841-0.211-1.472-0.211h-1.121
					v2.523H200.903z M195.471,44.624V27.876l-0.421-0.491c-0.14-0.175-0.07-0.385,0.175-0.385h4.976
					c1.507,0,3.084,0.105,4.135,0.806c1.332,0.841,1.717,2.347,1.717,3.995c0,1.086-0.175,2.032-0.561,2.733
					c1.051,1.016,1.507,2.628,1.507,4.905c0,2.418-0.49,4.135-1.647,5.01c-1.086,0.876-2.628,1.051-4.17,1.051h-5.957
					c-0.211,0-0.351-0.245-0.175-0.421L195.471,44.624z"/>
				<path id="Fill-19" fill="#999999" d="M64.918,13.833c-0.081,0.083-0.262,0-0.262-0.125v-2.042c0-0.083,0.081-0.167,0.161-0.167
					h6.694c0.101,0,0.161,0.062,0.161,0.167v2.042c0,0.125-0.161,0.208-0.242,0.125l-0.262-0.25h-1.936v8.396l0.242,0.271
					c0.081,0.083,0.04,0.25-0.101,0.25h-2.42c-0.121,0-0.181-0.167-0.101-0.25l0.242-0.271v-8.396H65.16L64.918,13.833z"/>
				<path id="Fill-21" fill="#999999" d="M74.465,12.021l-0.245-0.292c-0.082-0.083-0.041-0.229,0.102-0.229h2.425
					c0.122,0,0.204,0.146,0.122,0.229l-0.265,0.292v3.812h2.65v-3.812l-0.245-0.292c-0.082-0.083-0.02-0.229,0.102-0.229h2.446
					c0.102,0,0.183,0.125,0.102,0.229l-0.265,0.292v9.958l0.265,0.271c0.082,0.083,0.02,0.25-0.102,0.25h-2.446
					c-0.102,0-0.183-0.146-0.102-0.25l0.245-0.271v-4.063h-2.65v4.063l0.265,0.271c0.061,0.062,0.02,0.25-0.122,0.25h-2.425
					c-0.122,0-0.183-0.146-0.102-0.25l0.245-0.271V12.021z"/>
				<path id="Fill-23" fill="#999999" d="M84.344,22.5c-0.12,0-0.18-0.146-0.1-0.25l0.241-0.271v-9.958l-0.241-0.292
					c-0.08-0.083-0.04-0.229,0.1-0.229h5.733c0.08,0,0.14,0.062,0.14,0.125v2.083c0,0.125-0.12,0.25-0.241,0.125l-0.241-0.25H86.61
					v2.271h2.345l0.241-0.271c0.06-0.083,0.24-0.062,0.24,0.104v2.396c0,0.125-0.16,0.188-0.24,0.104l-0.241-0.229H86.61v2.458
					h3.127l0.241-0.25c0.1-0.104,0.241-0.021,0.241,0.125v2.063c0,0.062-0.06,0.146-0.14,0.146H84.344z"/>
				<path id="Fill-25" fill="#999999" d="M2.796,10c0,0-0.582,1.199-0.323,3.171c0.258,1.972,0,5.455-0.969,5.98
					c0,0,2.455-0.526,2.972-1.446c0,0,0.065,1.512,1.68,2.826c1.615,1.314,4.329,2.366,5.298,4.469c0,0,0.305-3.971-0.323-5.98
					c-0.628-2.009-1.744-3.615-1.098-5.783C10.032,13.236,4.476,12.169,2.796,10"/>
				<path id="Fill-27" fill="#999999" d="M3.973,20.5c0,0,0.795,1.071,2.649,2.075c1.855,1.004,4.847,3.482,4.902,5.891
					c0.066,2.946-0.729,6.628-6.226,8.033c0,0,1.855-3.481,0.53-5.423C4.503,29.136,1.456,26.324,3.973,20.5"/>
				<path id="Fill-29" fill="#999999" d="M11.634,13.5c0,0,4.566,0.792,9.397,0c0,0,1.588,1.651,1.522,4.689
					c-0.066,3.038-3.375,4.491-3.441,7.33c0,0-1.125-0.528-1.588-2.047c0,0-0.666,1.208-0.86,2.179
					c-0.198,0.991-0.529,2.774,0.199,5.349c0,0-3.11-2.113-3.573-3.698c-0.463-1.585-0.34-4.685-0.265-6.406
					C13.156,17.858,11.038,16.406,11.634,13.5"/>
				<path id="Fill-31" fill="#999999" d="M12.864,31c0,0,0.264,3.667-3.562,5.867c-1.56,0.897-0.528,4,0.857,5.2
					S12.864,45,12.864,47c0,0,1.847-1.2,1.979-3.4c0.132-2.2-1.253-3.6-0.857-5C14.381,37.2,16.689,35.4,12.864,31"/>
				<path id="Fill-33" fill="#999999" d="M16.039,32.312c0,0,1.474,5.917,3.781,7.666c2.183,1.654,2.435,3.967,2.756,6.522
					c0,0,4.101-3.631,2.691-9.01S19.691,30.833,18.346,27c0,0-0.449,5.11,1.73,7.934C20.076,34.934,18.025,34.329,16.039,32.312"/>
				<path id="Fill-35" fill="#999999" d="M16.469,38.5c0,0-0.458,0.935-0.131,2.071c1.177,3.206,0.327,4.342-0.131,5.611
					c-0.458,1.269-0.065,3.874,2.224,5.411C20.72,53.13,21.375,55,21.375,55s1.243-2.071,1.177-3.808
					c-0.065-1.737-1.439-3.006-1.635-4.743c-0.196-1.737-0.458-3.541-2.093-4.943C17.188,40.103,16.469,38.5,16.469,38.5"/>
				<path id="Fill-37" fill="#999999" d="M24.25,20c0,0-1.462,2.19-2.326,3.186c-0.821,0.946-2.193,2.788-0.731,5.31
					c1.462,2.522,2.326,1.46,5.316,6.504c0,0,2.06-3.186,2.06-5.509C28.569,27.168,24.184,23.518,24.25,20"/>
				<path id="Fill-39" fill="#999999" d="M23.557,13.367c0,0,1.094,1.467,1.545,3.867c0.451,2.4,0.579,3.667,1.609,5.867
					c1.03,2.2,3.026,3.4,3.026,3.4s-0.966-2.267,1.03-5.4c1.996-3.133,2.211-8.423-2.946-9.6C27.821,11.5,26.454,12.3,23.557,13.367
					"/>
				<g id="Group-43" transform="translate(23.556901, 36.500000)">
					<g id="Clip-42">
					</g>
					<defs>
						<filter id="Adobe_OpacityMaskFilter" filterUnits="userSpaceOnUse" x="0.039" y="0.044" width="9.403" height="20.456">
							<feColorMatrix  type="matrix" values="1 0 0 0 0  0 1 0 0 0  0 0 1 0 0  0 0 0 1 0"/>
						</filter>
					</defs>
					<mask maskUnits="userSpaceOnUse" x="0.039" y="0.044" width="9.403" height="20.456" id="mask-2">
						<g filter="url(#Adobe_OpacityMaskFilter)">
							<polygon id="path-1" fill="#FFFFFF" points="0.039,0.044 9.442,0.044 9.442,20.5 0.039,20.5 							"/>
						</g>
					</mask>
					<path id="Fill-41" mask="url(#mask-2)" fill="#999999" d="M3.023,0.044c0,0,1.098,4.251-0.258,7.173
						c-1.097,2.364-2.389,3.188-2.648,4.782c-0.258,1.594-0.129,5.579,4.456,8.501c0,0-1.485-2.325-0.194-4.184
						c1.292-1.86,1.098-1.461,1.615-2.258c0,0,0,0.664,0.904,1.461c0.904,0.797,2.26,1.528,2.519,1.992c0,0,0.129-2.457-0.194-3.254
						C8.9,13.46,8.061,11.8,8.255,9.807S9.159,2.767,3.023,0.044"/>
				</g>
				<path id="Fill-44" fill="#999999" d="M30.371,28.427c0,0,0.801,1.195-0.2,3.452C29.17,34.137,28.569,35,28.569,35
					s4.472-0.465,5.807-2.921c1.335-2.456,2.069-3.917,1.535-6.838C35.378,22.32,33.308,19,33.308,19s-0.334,1.328-1.268,3.253
					c-0.935,1.925-1.135,3.187-0.668,4.581c0.467,1.394,0.334,2.257,0.334,2.257S31.172,28.427,30.371,28.427"/>
				<path id="Fill-46" fill="#999999" d="M30.073,36.37c0,0,3.087,1.916,3.665,5.286c0.579,3.37-0.064,4.162,0.257,5.484
					c0.322,1.321,0.9,3.172,2.765,4.361c0,0-0.836-2.841,0.064-4.823c0.9-1.982,3.408-6.607,1.672-9.911
					C36.76,33.463,35.989,33,35.989,33S34.895,35.709,30.073,36.37"/>
				<path id="Fill-48" fill="#999999" d="M40.07,35.421l-2.98-4.317c0,0,0.745-1.821,0.813-3.912
					c0.068-2.091-0.813-4.182-0.813-4.182s2.777-0.202,4.199,1.214c1.422,1.416,2.341,2.781,2.845,4.587
					c0.677,2.428,0,5.801,0.474,7.689c0,0-3.116-2.563-3.996-6.475c0,0,0.068,1.079-0.136,2.428
					C40.273,33.802,40.07,35.421,40.07,35.421"/>
				<path id="Fill-50" fill="#999999" d="M32.579,12.5c0,0,2.066,2.34,1.533,4.746c0,0,1.266,3.743,5.931,4.412
					C41.9,21.924,44.44,25,44.44,25s0.933-6.083-1.599-8.757c-0.682-0.72-3.332-2.34-3.332-2.34S35.844,13.77,32.579,12.5"/>
				<path id="Fill-52" fill="#999999" d="M51.813,10.5c0,0-0.13,3.061,1.816,4.724c0,0-2.789-0.665-2.984-0.865
					c0,0,1.751,2.795,0.649,5.922C50.13,23.584,52.851,28,52.851,28s-6.227-2.928-6.875-5.523c-0.649-2.595,0.584-5.124-3.373-8.517
					C42.603,13.96,47.208,13.228,51.813,10.5"/>
				<path id="Fill-54" fill="#999999" d="M45.109,25c0,0,1.13,1.976,3.41,2.939c2.688,1.136,2.116,3.927,1.901,4.743
					c-0.721,2.739-3.869,4.877-2.361,8.818c0,0-2.164-1.403-2.361-3.474C45.031,30.991,46.355,28.941,45.109,25"/>
				<path id="Fill-56" fill="#999999" d="M45.062,41.153c-0.429-3.192-3.475-5.653-3.475-5.653s0.708,6.185-1.866,9.51
					c0,0-1.03,2.261-0.45,3.99c0,0,0.799-1.238,2.021-2.271c0.198,0.839,1.197,1.872,1.197,1.872c0-1.862,0.901-1.929,1.802-3.458
					c0.659-1.12,0.784-2.363,0.804-2.95C45.121,41.872,45.113,41.527,45.062,41.153"/>
				<path id="Fill-58" fill="#999999" d="M27.065,4.445c0,0-2.104-1.252-5.739,0c-3.635,1.252-8.29,4.801-14.447,2.372
					C1.763,4.799,0.162,0.5,0.162,0.5s-1.634,6.137,5.479,9.529c6.847,3.266,15.494,1.722,18.555,0.678
					c3.061-1.044,2.837-1.739,2.837-2.122C27.033,8.203,27.065,4.445,27.065,4.445"/>
				<g id="Group-62" transform="translate(6.014528, 0.000000)">
					<g id="Clip-61">
					</g>
					<defs>
						<filter id="Adobe_OpacityMaskFilter_1_" filterUnits="userSpaceOnUse" x="0.056" y="0.019" width="20.949" height="5.905">
							<feColorMatrix  type="matrix" values="1 0 0 0 0  0 1 0 0 0  0 0 1 0 0  0 0 0 1 0"/>
						</filter>
					</defs>
					<mask maskUnits="userSpaceOnUse" x="0.056" y="0.019" width="20.949" height="5.905" id="mask-4">
						<g filter="url(#Adobe_OpacityMaskFilter_1_)">
							<polygon id="path-3" fill="#FFFFFF" points="0.056,0.019 21.005,0.019 21.005,5.924 0.056,5.924 							"/>
						</g>
					</mask>
					<path id="Fill-60" mask="url(#mask-4)" fill="#999999" d="M21.005,2.941c0,0-1.595-2.922-5.302-2.922
						c-7.826,0-8.008,3.966-15.647,4.495c0,0,2.43,1.41,4.729,1.41c4.051,0,8.04-3.359,11.095-3.702
						C19.521,1.815,21.005,2.941,21.005,2.941"/>
				</g>
				<path id="Fill-63" fill="#999999" d="M28.569,4.445c0,0,2.104-1.252,5.739,0c3.635,1.252,8.29,4.801,14.447,2.372
					C53.871,4.799,55.472,0.5,55.472,0.5s1.634,6.137-5.479,9.529c-6.847,3.266-15.494,1.722-18.555,0.678
					c-3.061-1.044-2.837-1.739-2.837-2.122C28.601,8.203,28.569,4.445,28.569,4.445"/>
				<g id="Group-67" transform="translate(28.569007, 0.000000)">
					<g id="Clip-66">
					</g>
					<defs>
						<filter id="Adobe_OpacityMaskFilter_2_" filterUnits="userSpaceOnUse" x="0.024" y="0.019" width="20.949" height="5.905">
							<feColorMatrix  type="matrix" values="1 0 0 0 0  0 1 0 0 0  0 0 1 0 0  0 0 0 1 0"/>
						</filter>
					</defs>
					<mask maskUnits="userSpaceOnUse" x="0.024" y="0.019" width="20.949" height="5.905" id="mask-6">
						<g filter="url(#Adobe_OpacityMaskFilter_2_)">
							<polygon id="path-5" fill="#FFFFFF" points="0.024,0.019 20.973,0.019 20.973,5.924 0.024,5.924 							"/>
						</g>
					</mask>
					<path id="Fill-65" mask="url(#mask-6)" fill="#999999" d="M0.024,2.941c0,0,1.595-2.922,5.302-2.922
						c7.826,0,8.008,3.966,15.647,4.495c0,0-2.43,1.41-4.729,1.41c-4.051,0-8.04-3.359-11.095-3.702
						C1.508,1.815,0.024,2.941,0.024,2.941"/>
				</g>
			</g>
		</g>
	</g>
</g>
</svg>
