<?xml version="1.0" encoding="UTF-8"?>
<svg width="30px" height="31px" viewBox="0 0 30 31" version="1.1" xmlns="http://www.w3.org/2000/svg" xmlns:xlink="http://www.w3.org/1999/xlink">
    <!-- Generator: Sketch 49 (51002) - http://www.bohemiancoding.com/sketch -->
    <title>logo</title>
    <desc>Created with Sketch.</desc>
    <defs></defs>
    <g id="Page-1" stroke="none" stroke-width="1" fill="none" fill-rule="evenodd">
        <g id="landing-page" transform="translate(-605.000000, -7116.000000)" fill="#000000">
            <g id="footer" transform="translate(359.000000, 6945.000000)">
                <path d="M247.459639,176.342321 C248.38606,177.537713 251.450416,178.126195 251.450416,178.126195 C251.094178,179.321932 251.710098,180.206635 252.056172,181.314366 C252.402416,182.421925 252.234376,184.611036 252.234376,184.611036 C251.699934,183.451639 250.20333,182.872113 249.312481,182.147575 C248.421633,181.423038 248.38606,180.589829 248.38606,180.589829 C248.100968,181.09685 246.746994,181.386699 246.746994,181.386699 C247.281435,181.09685 247.424066,179.176921 247.281435,178.090029 C247.138805,177.003309 247.459639,176.342321 247.459639,176.342321 Z M248.207856,182.25623 C248.207856,182.25623 248.635409,182.835756 249.633146,183.379289 C250.630883,183.922649 252.240813,185.263396 252.269949,186.567287 C252.305691,188.1612 251.878138,190.153635 248.920501,190.914511 C248.920501,190.914511 249.918238,189.030748 249.205593,187.980023 C248.492948,186.929642 246.853882,185.408062 248.207856,182.25623 Z M252.412528,178.379895 C252.412528,178.379895 254.871128,178.814583 257.472357,178.379895 C257.472357,178.379895 258.327463,179.28561 258.29189,180.952201 C258.256317,182.618447 256.474621,183.41549 256.439048,184.973236 C256.439048,184.973236 255.833291,184.683559 255.583772,183.85035 C255.583772,183.85035 255.225332,184.512887 255.120646,185.045742 C255.013589,185.589101 254.835555,186.567322 255.227535,187.980057 C255.227535,187.980057 253.552726,186.820832 253.303377,185.951456 C253.053858,185.081908 253.12043,183.381217 253.160746,182.437442 C253.232061,180.771023 252.091864,179.973981 252.412528,178.379895 Z M252.91138,187.762782 C254.978168,190.153738 253.730913,191.131786 253.517136,191.892662 C253.30336,192.653366 254.051578,193.41407 253.980432,194.609806 C253.909116,195.805198 252.91138,196.45723 252.91138,196.45723 C252.91138,195.37051 252.198735,194.428628 251.450348,193.776424 C250.70213,193.124393 250.144651,191.438168 250.987222,190.950781 C253.053841,189.755217 252.91138,187.762782 252.91138,187.762782 Z M254.621778,188.523486 C255.726403,189.610378 256.866601,189.936394 256.866601,189.936394 C255.655088,188.414814 255.904437,185.661676 255.904437,185.661676 C256.652824,187.726443 258.968962,188.414814 259.752922,191.312963 C260.536713,194.211112 258.256317,196.167552 258.256317,196.167552 C258.078114,194.790983 257.937685,193.544442 256.724139,192.653366 C255.441311,191.711657 254.621778,188.523486 254.621778,188.523486 Z M254.835521,191.856409 C254.835521,191.856409 255.227501,192.725957 256.118349,193.486661 C257.009197,194.247537 257.151659,195.225413 257.258547,196.167466 C257.365435,197.109348 258.113822,197.797718 258.149395,198.739599 C258.184968,199.681653 257.508066,200.804539 257.508066,200.804539 C257.508066,200.804539 257.151659,199.790153 255.904573,198.956943 C254.657317,198.123734 254.44371,196.710826 254.69306,196.022456 C254.942409,195.334257 255.405704,194.718392 254.764375,192.979468 C254.586171,192.363603 254.835521,191.856409 254.835521,191.856409 Z M259.111491,181.930111 C259.075918,183.850212 261.427629,185.842819 261.427629,187.110716 C261.427629,188.378613 260.323004,190.117537 260.323004,190.117537 C258.719511,187.364226 258.256216,187.943925 257.472425,186.567356 C256.688465,185.190615 257.423978,184.1857 257.864405,183.669207 C258.327531,183.125675 259.111491,181.930111 259.111491,181.930111 Z M258.719528,178.307407 C260.323021,177.727881 261.079539,177.29302 261.079539,177.29302 C263.934522,177.93248 263.81493,180.807207 262.710474,182.509792 C261.605849,184.21255 262.140291,185.444108 262.140291,185.444108 C262.140291,185.444108 261.035666,184.792076 260.465482,183.596684 C259.895299,182.401292 259.824153,181.71275 259.574634,180.408686 C259.325284,179.10445 258.719528,178.307407 258.719528,178.307407 Z M260.536798,190.842091 C263.921818,192.327333 263.529838,195.080643 263.423119,196.167535 C263.316061,197.254255 263.779357,198.15997 263.95756,198.59483 C264.135764,199.029345 264.064448,200.369748 264.064448,200.369748 C263.921818,200.116238 263.1736,199.717716 262.674732,199.283028 C262.175864,198.848168 262.175864,198.485986 262.175864,198.485986 C261.890772,198.920674 261.99766,198.70333 261.285015,199.717716 C260.57237,200.732103 261.391903,202 261.391903,202 C258.861989,200.406087 258.790674,198.232475 258.933304,197.362927 C259.075766,196.493379 259.788749,196.044224 260.394167,194.754627 C261.142554,193.160714 260.536798,190.842091 260.536798,190.842091 Z M262.460938,186.494833 C262.888491,186.494833 263.173583,186.857188 263.173583,186.857188 C263.173583,186.857188 263.244899,186.386161 262.99538,185.625285 C262.74603,184.864581 262.852918,184.176211 263.351787,183.12583 C263.850655,182.075104 264.028689,181.350567 264.028689,181.350567 C264.028689,181.350567 265.133314,183.161824 265.418406,184.755909 C265.703498,186.349823 265.311518,187.146865 264.598873,188.487268 C263.886228,189.827843 261.498775,190.081353 261.498775,190.081353 C261.498775,190.081353 261.81944,189.610326 262.35405,188.378596 C262.888491,187.146865 262.460938,186.494833 262.460938,186.494833 Z M262.318426,190.769603 C264.990802,190.407249 265.596559,188.922007 265.596559,188.922007 C265.596559,188.922007 266.024112,189.175518 266.986275,190.987119 C267.948269,192.798377 266.558722,195.334343 266.059854,196.421063 C265.560986,197.507955 266.024112,199.065702 266.024112,199.065702 C264.990802,198.41367 264.670137,197.399111 264.492103,196.674574 C264.3139,195.950036 264.670137,195.515521 264.349473,193.667752 C264.028808,191.820329 262.318426,190.769603 262.318426,190.769603 Z M267.591998,190.190042 L266.024247,187.87142 C266.024247,187.87142 266.416227,186.8932 266.4518,185.770313 C266.487373,184.647082 266.024247,183.524196 266.024247,183.524196 C266.024247,183.524196 267.48511,183.415524 268.233497,184.176228 C268.981714,184.937104 269.464998,185.669908 269.729932,186.639689 C270.086339,187.943925 269.729932,189.755354 269.979451,190.769569 C269.979451,190.769569 268.340216,189.393 267.87709,187.291893 C267.87709,187.291893 267.912832,187.87142 267.805774,188.595957 C267.698886,189.320494 267.591998,190.190042 267.591998,190.190042 Z M263.529906,177.763996 C265.27586,178.452366 267.235591,178.524872 267.235591,178.524872 C267.235591,178.524872 268.652411,179.402342 269.017287,179.792769 C270.371431,181.241843 269.872563,184.538514 269.872563,184.538514 C269.872563,184.538514 268.514015,182.871406 267.520852,182.727084 C265.02651,182.364902 264.349439,180.336301 264.349439,180.336301 C264.63453,179.031893 263.529906,177.763996 263.529906,177.763996 Z M274.255303,176.713511 C274.255303,176.713511 274.184157,178.37993 275.253039,179.285644 C275.253039,179.285644 273.720861,178.92329 273.613973,178.814618 C273.613973,178.814618 274.575967,180.336198 273.970211,182.038955 C273.330745,183.836606 274.825486,186.241168 274.825486,186.241168 C274.825486,186.241168 271.404724,184.647082 271.048316,183.234347 C270.692079,181.821439 271.368981,180.44487 269.195474,178.597274 C269.195474,178.597274 271.725388,178.198752 274.255303,176.713511 Z M270.585191,184.538497 C270.585191,184.538497 271.199078,185.610233 272.438033,186.132582 C273.898896,186.748447 273.588225,188.262105 273.471512,188.704543 C273.079532,190.189956 271.368981,191.349354 272.188684,193.486627 C272.188684,193.486627 271.012744,192.725923 270.905855,191.602864 C270.542672,187.787806 271.262262,186.675942 270.585191,184.538497 Z M270.407038,193.486644 C270.434819,193.690555 270.439223,193.878621 270.424655,194.053426 C270.413814,194.372898 270.344531,195.050418 269.979485,195.660256 C269.480617,196.493465 268.981748,196.529804 268.981748,197.54419 C268.981748,197.54419 268.428504,196.981369 268.319075,196.524293 C267.642511,197.086769 267.200052,197.761362 267.200052,197.761362 C266.879387,196.819653 267.44957,195.58775 267.44957,195.58775 C268.87486,193.776493 268.48288,190.407317 268.48288,190.407317 C268.48288,190.407317 270.169546,191.74772 270.407038,193.486644 Z M260.624798,173.330127 C260.624798,173.330127 260.60752,175.406778 260.60752,175.618094 C260.60752,175.829755 260.728129,176.214154 259.074326,176.790925 C257.420522,177.367696 252.747931,178.220711 249.048174,176.415998 C245.204602,174.541019 246.087488,171.149799 246.087488,171.149799 C246.087488,171.149799 246.952758,173.525427 249.717454,174.640735 C253.044372,175.983204 255.560057,174.022459 257.523853,173.330127 C259.487819,172.637967 260.624798,173.330127 260.624798,173.330127 Z M260.624798,172.653674 C260.624798,172.653674 259.824407,172.016281 257.860611,172.247058 C256.212567,172.440636 254.060742,174.34162 251.875885,174.34162 C250.635575,174.34162 249.324966,173.543717 249.324966,173.543717 C253.445669,173.244395 253.543748,171 257.765072,171 C259.76461,171 260.624798,172.653674 260.624798,172.653674 Z M261.375167,173.330127 C261.375167,173.330127 262.512147,172.637967 264.476112,173.330127 C266.439908,174.022459 268.955594,175.983204 272.282512,174.640735 C275.047377,173.525427 275.912477,171.149799 275.912477,171.149799 C275.912477,171.149799 276.795533,174.541019 272.951791,176.415998 C269.252035,178.220711 264.579443,177.367696 262.92564,176.790925 C261.271836,176.214154 261.392446,175.829755 261.392446,175.618094 C261.392446,175.406778 261.375167,173.330127 261.375167,173.330127 Z M261.375167,172.653674 C261.375167,172.653674 262.235355,171 264.234894,171 C268.456217,171 268.554297,173.244395 272.675,173.543717 C272.675,173.543717 271.364391,174.34162 270.12408,174.34162 C267.939224,174.34162 265.787399,172.440636 264.139524,172.247058 C262.175559,172.016281 261.375167,172.653674 261.375167,172.653674 Z" id="logo"></path>
            </g>
        </g>
    </g>
</svg>