<?xml version="1.0" encoding="utf-8"?>
<!-- Generator: Adobe Illustrator 17.0.0, SVG Export Plug-In . SVG Version: 6.00 Build 0)  -->
<!DOCTYPE svg PUBLIC "-//W3C//DTD SVG 1.1//EN" "http://www.w3.org/Graphics/SVG/1.1/DTD/svg11.dtd">
<svg version="1.1" id="Слой_1" xmlns="http://www.w3.org/2000/svg" xmlns:xlink="http://www.w3.org/1999/xlink" x="0px" y="0px"
	 width="255.275px" height="299.762px" viewBox="0 0.858 255.275 299.762" enable-background="new 0 0.858 255.275 299.762"
	 xml:space="preserve">
<g>
	<path fill="#FFFFFF" d="M78.389,0.858c-1.404,0.013-2.862,0.352-4.19,1.088c-4.218,2.338-5.764,7.758-3.428,11.972l9.523,17.196
		C57.35,45.311,42.147,69.558,42.147,97.233c0,0.116,0,0.291,0,0.463c0,0.061-0.001,0.095,0,0.163c0,0.09,0,0.223,0,0.245v4.272
		c-4.406-5.07-10.884-8.272-18.121-8.272C10.767,94.104,0,104.87,0,118.129v74.008c0,13.259,10.767,24.026,24.026,24.026
		c7.237,0,13.715-3.202,18.121-8.272v10.367c0,13.977,11.437,25.413,25.413,25.413h6.449v32.923
		c0,13.259,10.767,24.026,24.026,24.026c13.259,0,24.026-10.767,24.026-24.026v-32.923h11.156v32.923
		c0,13.259,10.767,24.026,24.026,24.026c13.259,0,24.026-10.767,24.026-24.026v-32.923h6.449c13.977,0,25.413-11.437,25.413-25.413
		v-10.367c4.406,5.07,10.884,8.272,18.121,8.272c13.259,0,24.026-10.767,24.026-24.026v-74.008
		c0-13.259-10.767-24.026-24.026-24.026c-7.237,0-13.715,3.202-18.121,8.272v-4.19v-0.082c0.001-0.131,0-0.261,0-0.245
		c0.002-0.261,0-0.469,0-0.626c0-27.669-15.237-51.893-38.174-66.091l9.55-17.223c2.336-4.214,0.789-9.634-3.428-11.972
		c-1.328-0.736-2.786-1.075-4.19-1.088c-3.115-0.03-6.171,1.612-7.782,4.517l-9.986,18.04c-9.764-3.603-20.388-5.578-31.481-5.578
		c-11.082,0-21.725,1.954-31.481,5.551L86.171,5.375C84.56,2.47,81.504,0.829,78.389,0.858L78.389,0.858z"/>
	<path fill="#666666" d="M24.026,100.362c-9.894,0-17.767,7.873-17.767,17.767v74.008c0,9.894,7.873,17.767,17.767,17.767
		s17.767-7.873,17.767-17.767v-74.008C41.794,108.235,33.92,100.362,24.026,100.362L24.026,100.362z M231.25,100.362
		c-9.894,0-17.767,7.873-17.767,17.767v74.008c0,9.894,7.873,17.767,17.767,17.767c9.894,0,17.767-7.873,17.767-17.767v-74.008
		C249.017,108.235,241.144,100.362,231.25,100.362L231.25,100.362z"/>
	<path fill="#666666" d="M98.034,184.818c-9.894,0-17.767,7.873-17.767,17.767v74.008c0,9.894,7.873,17.767,17.767,17.767
		s17.767-7.873,17.767-17.767v-74.008C115.801,192.691,107.928,184.818,98.034,184.818L98.034,184.818z M157.241,184.818
		c-9.894,0-17.767,7.873-17.767,17.767v74.008c0,9.894,7.873,17.767,17.767,17.767c9.894,0,17.767-7.873,17.767-17.767v-74.008
		C175.008,192.691,167.135,184.818,157.241,184.818L157.241,184.818z"/>
	<path fill="#666666" d="M78.443,7.117c-0.42,0.004-0.811,0.113-1.197,0.327c-1.267,0.702-1.684,2.158-0.98,3.428l12.516,22.611
		c-24.08,12.53-40.346,36.341-40.378,63.669H206.87c-0.033-27.328-16.298-51.139-40.378-63.669l12.516-22.611
		c0.704-1.27,0.287-2.726-0.98-3.428c-0.386-0.214-0.777-0.322-1.197-0.327c-0.899-0.009-1.751,0.441-2.231,1.306l-12.679,22.856
		c-10.372-4.601-22.006-7.183-34.283-7.183s-23.911,2.582-34.283,7.183L80.675,8.423C80.195,7.557,79.343,7.108,78.443,7.117
		L78.443,7.117z M48.405,103.409v114.849c0,10.612,8.543,19.155,19.155,19.155h120.155c10.612,0,19.155-8.543,19.155-19.155V103.409
		H48.405L48.405,103.409z"/>
	<path fill="#FFFFFF" d="M91.068,54.923c-3.617,0-6.612,2.994-6.612,6.612c0,3.617,2.994,6.612,6.612,6.612s6.612-2.994,6.612-6.612
		C97.68,57.917,94.686,54.923,91.068,54.923L91.068,54.923z M164.206,54.923c-3.617,0-6.612,2.994-6.612,6.612
		c0,3.617,2.994,6.612,6.612,6.612c3.617,0,6.612-2.994,6.612-6.612C170.818,57.917,167.823,54.923,164.206,54.923L164.206,54.923z"
		/>
</g>
</svg>
