<?xml version="1.0" encoding="utf-8"?>
<!-- Generator: Adobe Illustrator 17.0.0, SVG Export Plug-In . SVG Version: 6.00 Build 0)  -->
<!DOCTYPE svg PUBLIC "-//W3C//DTD SVG 1.1//EN" "http://www.w3.org/Graphics/SVG/1.1/DTD/svg11.dtd">
<svg version="1.1"
	 id="svg2" xmlns:rdf="http://www.w3.org/1999/02/22-rdf-syntax-ns#" xmlns:cc="http://creativecommons.org/ns#" xmlns:dc="http://purl.org/dc/elements/1.1/" xmlns:svg="http://www.w3.org/2000/svg" xmlns:sodipodi="http://sodipodi.sourceforge.net/DTD/sodipodi-0.dtd" xmlns:inkscape="http://www.inkscape.org/namespaces/inkscape" inkscape:version="0.48.5 r10040" sodipodi:docname="GalaxyS6 Logo.svg"
	 xmlns="http://www.w3.org/2000/svg" xmlns:xlink="http://www.w3.org/1999/xlink" x="0px" y="0px" width="363.39px"
	 height="55.356px" viewBox="22.419 1.61 363.39 55.356" enable-background="new 22.419 1.61 363.39 55.356" xml:space="preserve">
<sodipodi:namedview  inkscape:zoom="2.4763819" inkscape:cy="100.67015" showguides="true" inkscape:cx="454.07272" showgrid="false" guidetolerance="10" borderopacity="1" gridtolerance="10" objecttolerance="10" pagecolor="#ffffff" bordercolor="#666666" id="namedview23" inkscape:current-layer="svg2" inkscape:window-x="0" inkscape:window-y="0" inkscape:window-maximized="1" inkscape:pageshadow="2" inkscape:pageopacity="0" inkscape:window-height="1051" inkscape:snap-grids="false" inkscape:window-width="1920" inkscape:guide-bbox="true" inkscape:snap-to-guides="true">
	<sodipodi:guide  position="83.791599,157.08401" orientation="0,1" id="guide3000"></sodipodi:guide>
	<sodipodi:guide  position="44.62155,33.920455" orientation="0,1" id="guide3002"></sodipodi:guide>
</sodipodi:namedview>
<path id="path3869" inkscape:connector-curvature="0" fill="#666666" d="M22.472,37.573h14.42
	c-2.736,13.301,10.387,12.837,10.244,5.372c-0.213-11.138-24.32-9.972-24.32-26.758c0-14.93,15.349-14.514,18.028-14.514
	S61.347-0.106,59.021,18.87H45.744c2.364-10.433-9.077-10.547-9.566-4.319C35.479,23.46,60.665,24.78,60.379,40.99
	C60.094,57.2,45.785,56.963,42.026,56.963S21.354,57.68,22.472,37.573z"/>
<path id="path3869-4" inkscape:connector-curvature="0" fill="#666666" d="M191.144,37.569h14.42
	c-2.736,13.301,10.387,12.837,10.244,5.372c-0.213-11.138-24.32-9.972-24.32-26.758c0-14.93,15.349-14.514,18.028-14.514
	s20.503-1.779,18.177,17.198h-13.278c2.364-10.433-9.077-10.547-9.566-4.319c-0.699,8.909,24.487,10.228,24.201,26.438
	c-0.286,16.21-14.594,15.973-18.353,15.973C206.938,56.958,190.025,57.676,191.144,37.569L191.144,37.569z"/>
<path id="path3889" inkscape:connector-curvature="0" fill="#666666" d="M77.867,3.023l-9.28,52.496h14.063l7.317-47.108
	l6.871,47.108h13.83l-9.387-52.496L77.867,3.023z"/>
<path id="path3891" inkscape:connector-curvature="0" fill="#666666" d="M122.182,3.023l-1.125,52.496h13.25l0.375-46.111
	l8.75,46.111h13l8.625-46.611l0.875,46.611h13.125l-1.625-52.496h-20.75l-6.625,41.51l-6.625-41.51L122.182,3.023z"/>
<path id="path3903" inkscape:connector-curvature="0" fill="#666666" d="M239.932,3.023v38.885c0,8.64,7.474,15.025,19.25,15.025
	s18.375-6.238,18.375-15.025V3.023h-14v38.885c0,4.217-2.007,5.875-4.5,5.875s-4.75-1.57-4.75-5.875V3.023L239.932,3.023z"/>
<path id="path3905" inkscape:connector-curvature="0" fill="#666666" d="M291.432,3.023v52.496h12.625l-0.5-43.236l13.75,43.236
	h18.25V3.023h-13l0.5,41.385l-12.25-41.385L291.432,3.023z"/>
<path id="path3909" inkscape:connector-curvature="0" fill="#666666" d="M385.557,41.908v-16.25h-18.875v7.625h5.625v8.625
	c0,3.108-1.797,4.875-5.125,4.875s-4.875-1.577-4.875-4.875v-24.75c0-3.478,1.106-6.125,5-6.125s5,2.416,5,8.5c4.5,0,9,0,13.5,0
	c0.167-16.51-10.431-17.923-18.625-17.923s-18.5,3.243-18.5,15.548v24.75c0,8.338,6.236,13.611,18.75,13.611
	S385.557,51.588,385.557,41.908z"/>
</svg>
