<?xml version="1.0" encoding="utf-8"?>
<!-- Generator: Adobe Illustrator 23.0.1, SVG Export Plug-In . SVG Version: 6.00 Build 0)  -->
<svg version="1.1" id="Слой_1" xmlns="http://www.w3.org/2000/svg" xmlns:xlink="http://www.w3.org/1999/xlink" x="0px" y="0px"
	 viewBox="0 0 415 60" style="enable-background:new 0 0 415 60;" xml:space="preserve">
<style type="text/css">
	.st0{fill-rule:evenodd;clip-rule:evenodd;fill:#0072CE;}
	.st1{fill-rule:evenodd;clip-rule:evenodd;fill:#FFFFFF;}
	.st2{fill-rule:evenodd;clip-rule:evenodd;fill:#000066;}
	.st3{fill-rule:evenodd;clip-rule:evenodd;fill:#333399;}
	.st4{fill-rule:evenodd;clip-rule:evenodd;fill:#0066CC;}
	.st5{fill-rule:evenodd;clip-rule:evenodd;fill:#CC0000;}
	.st6{fill-rule:evenodd;clip-rule:evenodd;fill:#FF9900;}
	.st7{fill-rule:evenodd;clip-rule:evenodd;fill:#26337A;}
	.st8{fill-rule:evenodd;clip-rule:evenodd;fill:#FFFFFE;}
	.st9{fill-rule:evenodd;clip-rule:evenodd;fill:#EC982D;}
</style>
<title>AmericanExpress-dark</title>
<g id="Payment-badge-set">
	<g id="Dark-Payment-badges" transform="translate(-770.000000, -164.000000)">
		<g id="AmericanExpress-dark" transform="translate(770.000000, 164.000000)">
			<path id="Rectangle" class="st0" d="M214.5,0.3h92c2.2,0,4,1.8,4,4v52c0,2.2-1.8,4-4,4h-92c-2.2,0-4-1.8-4-4v-52
				C210.5,2.1,212.3,0.3,214.5,0.3z"/>
			<path id="EXPRESS" class="st1" d="M294.9,34.9h-3.5c-0.4,0-0.6,0-0.8,0.1c-0.2,0.1-0.3,0.3-0.3,0.6c0,0.3,0.2,0.5,0.4,0.6
				c0.2,0.1,0.4,0.1,0.7,0.1l1.1,0c1.1,0,1.8,0.2,2.2,0.7c0.1,0.1,0.1,0.1,0.2,0.2V34.9z M294.9,40.3c-0.5,0.7-1.4,1-2.6,1h-3.7
				v-1.7h3.7c0.4,0,0.6,0,0.8-0.2c0.1-0.1,0.2-0.3,0.2-0.5c0-0.2-0.1-0.4-0.2-0.5c-0.1-0.1-0.3-0.2-0.7-0.2
				c-1.8-0.1-4.1,0.1-4.1-2.5c0-1.2,0.7-2.4,2.8-2.4h3.9v-1.6h-3.6c-1.1,0-1.9,0.3-2.4,0.7v-0.7h-5.3c-0.8,0-1.8,0.2-2.3,0.7v-0.7
				h-9.5v0.7c-0.8-0.5-2-0.7-2.6-0.7H263v0.7c-0.6-0.6-1.9-0.7-2.7-0.7h-7l-1.6,1.7l-1.5-1.7h-10.4v11.3h10.3l1.6-1.8l1.6,1.8l6.3,0
				v-2.7h0.6c0.8,0,1.8,0,2.7-0.4v3h5.2v-2.9h0.3c0.3,0,0.4,0,0.4,0.3v2.6h15.8c1,0,2.1-0.3,2.6-0.7v0.7h5c1,0,2.1-0.1,2.8-0.5V40.3
				L294.9,40.3z M287.2,37c0.4,0.4,0.6,0.9,0.6,1.7c0,1.7-1.1,2.6-3,2.6H281v-1.7h3.8c0.4,0,0.6,0,0.8-0.2c0.1-0.1,0.2-0.3,0.2-0.5
				c0-0.2-0.1-0.4-0.2-0.5c-0.1-0.1-0.4-0.2-0.7-0.2c-1.8-0.1-4.1,0.1-4.1-2.5c0-1.2,0.7-2.4,2.8-2.4h3.9v1.7h-3.6
				c-0.4,0-0.6,0-0.8,0.1c-0.2,0.1-0.3,0.3-0.3,0.6c0,0.3,0.2,0.5,0.4,0.6c0.2,0.1,0.4,0.1,0.8,0.1l1,0
				C286,36.4,286.8,36.6,287.2,37L287.2,37z M269.7,36.5c-0.3,0.2-0.6,0.2-1,0.2h-2.4v-1.8h2.4c0.3,0,0.7,0,0.9,0.1
				c0.3,0.1,0.4,0.4,0.4,0.7C270.1,36.1,270,36.4,269.7,36.5L269.7,36.5z M270.9,37.5c0.4,0.2,0.8,0.4,0.9,0.7
				c0.3,0.4,0.3,0.8,0.3,1.5v1.6h-1.9v-1c0-0.5,0-1.2-0.3-1.6c-0.3-0.3-0.7-0.4-1.4-0.4h-2.1v3h-1.9v-8.1h4.5c1,0,1.7,0,2.3,0.4
				c0.6,0.4,1,0.9,1,1.8C272.2,36.7,271.4,37.3,270.9,37.5L270.9,37.5z M273.3,33.2h6.5v1.7h-4.5v1.5h4.4V38h-4.4v1.6l4.5,0v1.7
				h-6.5V33.2L273.3,33.2z M260.2,36.9h-2.5v-2.1h2.5c0.7,0,1.2,0.3,1.2,1C261.5,36.6,261,36.9,260.2,36.9L260.2,36.9z M255.8,40.6
				l-3-3.3l3-3.2V40.6L255.8,40.6z M248.1,39.6h-4.8V38h4.3v-1.7h-4.3v-1.5h4.9l2.1,2.4L248.1,39.6L248.1,39.6z M263.5,35.9
				c0,2.2-1.7,2.7-3.4,2.7h-2.4v2.7H254l-2.4-2.7l-2.5,2.7h-7.7v-8.1h7.8l2.4,2.7l2.5-2.7h6.2C261.8,33.2,263.5,33.6,263.5,35.9
				L263.5,35.9z"/>
			<path id="AMERICAN" class="st1" d="M232.2,23.9l-1.3-3.2l-1.3,3.2H232.2z M261.4,22.6c-0.3,0.2-0.6,0.2-1,0.2h-2.4V21h2.4
				c0.3,0,0.7,0,0.9,0.1c0.3,0.1,0.4,0.4,0.4,0.7C261.8,22.2,261.7,22.5,261.4,22.6L261.4,22.6z M278.2,23.9l-1.3-3.2l-1.3,3.2
				H278.2L278.2,23.9z M246.9,27.4h-2l0-6.3l-2.8,6.3h-1.7l-2.8-6.3v6.3h-3.9l-0.7-1.8h-4l-0.8,1.8H226l3.5-8.1h2.9l3.3,7.7v-7.7
				h3.2l2.5,5.5l2.3-5.5h3.2L246.9,27.4L246.9,27.4z M254.8,27.4h-6.5v-8.1h6.5V21h-4.5v1.5h4.4v1.7h-4.4v1.6h4.5V27.4L254.8,27.4z
				 M263.9,21.5c0,1.3-0.9,2-1.4,2.2c0.4,0.2,0.8,0.4,1,0.7c0.3,0.4,0.3,0.8,0.3,1.5v1.6h-2l0-1c0-0.5,0-1.2-0.3-1.6
				c-0.3-0.3-0.7-0.3-1.4-0.3h-2.1v2.9h-1.9v-8.1h4.5c1,0,1.7,0,2.3,0.4C263.6,20,263.9,20.6,263.9,21.5L263.9,21.5z M267,27.4h-2
				v-8.1h2V27.4L267,27.4z M290,27.4h-2.7l-3.7-6.1v6.1h-3.9l-0.8-1.8h-4l-0.7,1.8h-2.3c-0.9,0-2.1-0.2-2.8-0.9
				c-0.7-0.7-1-1.6-1-3.1c0-1.2,0.2-2.3,1-3.2c0.6-0.6,1.6-0.9,2.9-0.9h1.9V21H272c-0.7,0-1.1,0.1-1.5,0.5c-0.3,0.3-0.6,1-0.6,1.8
				c0,0.9,0.2,1.5,0.5,1.9c0.3,0.3,0.8,0.4,1.4,0.4h0.9l2.7-6.4h2.9l3.3,7.6v-7.6h3l3.4,5.6v-5.6h2V27.4L290,27.4z M226,29h3.3
				l0.7-1.8h1.7l0.7,1.8h6.5v-1.4l0.6,1.4h3.4l0.6-1.4V29h16.2l0-2.9h0.3c0.2,0,0.3,0,0.3,0.4V29h8.4v-0.7c0.7,0.4,1.7,0.7,3.1,0.7
				h3.5l0.8-1.8h1.7l0.7,1.8h6.8v-1.7l1,1.7h5.4V17.7h-5.4V19l-0.8-1.3h-5.5V19l-0.7-1.3h-7.5c-1.2,0-2.3,0.2-3.2,0.7v-0.7h-5.2v0.7
				c-0.6-0.5-1.3-0.7-2.2-0.7h-18.8l-1.3,2.9l-1.3-2.9H234V19l-0.7-1.3h-5.1l-2.3,5.4L226,29L226,29z"/>
		</g>
	</g>
</g>
<g id="Payment-badge-set_1_">
	<g id="Dark-Payment-badges_1_" transform="translate(-610.000000, -164.000000)">
		<g id="Cirrus-dark" transform="translate(610.000000, 164.000000)">
			<path id="Rectangle_1_" class="st2" d="M319.5,0h92c2.2,0,4,1.8,4,4v52c0,2.2-1.8,4-4,4h-92c-2.2,0-4-1.8-4-4V4
				C315.5,1.8,317.3,0,319.5,0z"/>
			<path id="Fill-374" class="st3" d="M372.5,30c0,10.9-8.9,19.8-19.9,19.8c-11,0-19.9-8.9-19.9-19.8c0-10.9,8.9-19.8,19.9-19.8
				C363.6,10.2,372.5,19,372.5,30"/>
			<path id="Fill-375" class="st4" d="M379.4,10.2c-5.1,0-9.8,1.9-13.4,5.1c-0.7,0.6-1.4,1.3-2,2.1h4c0.6,0.7,1.1,1.4,1.5,2.1h-7.1
				c-0.4,0.7-0.8,1.4-1.1,2.1h9.3c0.3,0.7,0.6,1.4,0.8,2.1h-11c-0.2,0.7-0.4,1.4-0.6,2.1h12.2c0.3,1.4,0.4,2.8,0.4,4.2
				c0,2.2-0.4,4.3-1,6.3h-11c0.2,0.7,0.5,1.4,0.8,2.1h9.3c-0.3,0.7-0.7,1.4-1.1,2.1h-7.1c0.5,0.7,1,1.4,1.5,2.1h4
				c-0.6,0.7-1.3,1.4-2,2.1c3.5,3.2,8.2,5.1,13.4,5.1c11,0,19.9-8.9,19.9-19.8C399.3,19,390.3,10.2,379.4,10.2"/>
			<path id="Fill-376" class="st4" d="M396.6,41c0-0.4,0.3-0.6,0.6-0.6c0.4,0,0.6,0.3,0.6,0.6c0,0.4-0.3,0.6-0.6,0.6
				C396.9,41.6,396.6,41.3,396.6,41L396.6,41z M397.2,41.5c0.3,0,0.5-0.2,0.5-0.5c0-0.3-0.2-0.5-0.5-0.5c-0.3,0-0.5,0.2-0.5,0.5
				C396.8,41.3,397,41.5,397.2,41.5L397.2,41.5z M397.2,41.3H397v-0.6h0.2c0,0,0.1,0,0.1,0c0,0,0.1,0.1,0.1,0.1c0,0.1,0,0.1-0.1,0.1
				l0.1,0.2h-0.1l-0.1-0.2h-0.1V41.3L397.2,41.3z M397.2,41L397.2,41c0.1,0,0.1,0,0.2,0c0,0,0,0,0-0.1c0,0,0,0,0-0.1
				c0,0-0.1,0-0.1,0h-0.1V41L397.2,41z"/>
			<path id="Fill-377" class="st2" d="M351.5,25.4c-0.2,0.8-0.3,1.2-0.5,2.2c-1.5-0.6-3.5-1-5,0c-1.5,0.9-1.9,2.4-1.8,3.9
				c0.1,0.8,0.7,1.5,1.5,1.8c1.4,0.5,2.8,0.3,4.3-0.4c-0.2,1-0.4,1.7-0.6,2.4c-1.8,0.5-3.5,0.7-5.3,0.1c-1.6-0.6-2.9-2-3-3.5
				c-0.4-2.5,0.8-5,3.3-6.2C346.5,24.7,349.1,24.8,351.5,25.4"/>
			<path id="Fill-378" class="st2" d="M376.8,34.3c-0.5,0.5-1.3,1.5-3.5,1.5c-2,0-3.4-1.5-2.7-4.7c0,0,0.8-3.9,0.8-3.9h3
				c0,0-0.8,3.9-0.8,3.9c-0.3,1.3-0.2,2.3,1.1,2.3c1.6,0,2.1-0.9,2.4-2.3c0,0,0.8-3.9,0.8-3.9h3.2l-1.4,6.2
				c-0.2,0.7-0.3,1.5-0.4,2.3h-2.9C376.6,35.6,376.8,34.6,376.8,34.3"/>
			<path id="Fill-379" class="st2" d="M382.2,29.9c0,1.1,0.7,1.8,2.3,2.4c1.2,0.4,1.4,0.6,1.4,0.9c0,0.5-0.6,0.8-1.8,0.8
				c-0.9,0-1.8-0.1-2.7-0.3c0,0-0.4,1.8-0.4,2c0.9,0.2,2.3,0.2,3.2,0.2c3.2,0,4.7-0.9,4.7-2.8c0-1.2-0.6-1.8-2.2-2.4
				c-1.3-0.4-1.4-0.5-1.4-0.9c0-0.4,0.5-0.7,1.5-0.7c0.6,0,1.4,0.1,2.2,0.1l0.4-2c-0.8-0.1-2-0.2-2.7-0.2
				C383.4,27,382.2,28.3,382.2,29.9"/>
			<polyline id="Fill-380" class="st2" points="352.6,27.2 355.8,27.2 354,35.6 350.8,35.6 352.6,27.2 			"/>
			<path id="Fill-381" class="st2" d="M370.8,27.2c-2.2-0.3-2.9,0.8-3.5,1.3c0.1-0.4,0.2-0.9,0.2-1.3h-2.9c-0.4,2.6-1.1,5.3-1.7,7.9
				l-0.1,0.6h3.3c0.4-1.7,0.8-4.3,1.3-5.1c0.5-0.8,1.3-1.4,2.4-1L370.8,27.2"/>
			<path id="Fill-382" class="st2" d="M363.9,27.2c-2.2-0.3-2.9,0.8-3.5,1.3c0.1-0.4,0.2-0.9,0.2-1.3h-2.9c-0.4,2.6-1.1,5.3-1.7,7.9
				l-0.1,0.6h3.3c0.4-1.7,0.8-4.3,1.3-5.1c0.5-0.8,1.3-1.4,2.4-1L363.9,27.2"/>
			<path id="Fill-383" class="st1" d="M389.9,34.4c0-0.4,0.3-0.6,0.6-0.6c0.4,0,0.6,0.3,0.6,0.6c0,0.4-0.3,0.6-0.6,0.6
				C390.2,35,389.9,34.7,389.9,34.4L389.9,34.4z M390.6,34.9c0.3,0,0.5-0.2,0.5-0.5c0-0.3-0.2-0.5-0.5-0.5c-0.3,0-0.5,0.2-0.5,0.5
				C390.1,34.6,390.3,34.9,390.6,34.9L390.6,34.9z M390.5,34.7h-0.1v-0.6h0.2c0,0,0.1,0,0.1,0c0,0,0.1,0.1,0.1,0.1
				c0,0.1,0,0.1-0.1,0.1l0.1,0.2h-0.1l-0.1-0.2h-0.1V34.7L390.5,34.7z M390.5,34.3L390.5,34.3c0.1,0,0.1,0,0.2,0c0,0,0,0,0-0.1
				c0,0,0,0,0-0.1c0,0-0.1,0-0.1,0h-0.1V34.3L390.5,34.3z"/>
			<path id="Fill-384" class="st1" d="M352.1,24.8c-0.2,0.8-0.3,1.2-0.5,2.2c-1.5-0.6-3.5-1-5,0c-1.5,0.9-1.9,2.4-1.8,3.9
				c0.1,0.8,0.7,1.5,1.5,1.8c1.4,0.5,2.8,0.3,4.3-0.4c-0.2,1-0.4,1.7-0.6,2.4c-1.8,0.5-3.5,0.7-5.3,0.1c-1.6-0.6-2.9-2-3-3.5
				c-0.4-2.5,0.8-5,3.3-6.2C347.1,24,349.7,24.2,352.1,24.8"/>
			<path id="Fill-385" class="st1" d="M377.5,33.7c-0.5,0.5-1.3,1.5-3.5,1.5c-2,0-3.3-1.5-2.5-4.7l0.8-3.9h3c0,0-0.8,3.9-0.8,3.9
				c-0.3,1.3-0.2,2.3,1.1,2.3c1.6,0,2.1-0.9,2.4-2.3c0,0,0.8-3.9,0.8-3.9h3l-1.4,6.2c-0.2,0.7-0.3,1.5-0.4,2.3h-2.9
				C377.2,35,377.4,34,377.5,33.7"/>
			<path id="Fill-386" class="st1" d="M382.8,29.2c0,1.1,0.7,1.8,2.3,2.4c1.2,0.4,1.4,0.6,1.4,0.9c0,0.5-0.6,0.8-1.8,0.8
				c-0.9,0-1.8-0.1-2.7-0.3c0,0-0.4,1.8-0.4,2c0.9,0.2,2.3,0.2,3.2,0.2c3.2,0,4.7-0.9,4.7-2.8c0-1.2-0.6-1.8-2.2-2.4
				c-1.3-0.4-1.4-0.5-1.4-0.9c0-0.4,0.5-0.7,1.5-0.7c0.6,0,1.4,0.1,2.2,0.1l0.4-2c-0.8-0.1-2-0.2-2.7-0.2
				C384,26.4,382.8,27.7,382.8,29.2"/>
			<polyline id="Fill-387" class="st1" points="353.4,26.6 356.4,26.6 354.6,35 351.6,35 353.4,26.6 			"/>
			<path id="Fill-388" class="st1" d="M371.4,26.5c-2.2-0.3-2.9,0.8-3.5,1.3c0.1-0.4,0.2-0.9,0.2-1.3h-2.8c-0.4,2.6-1.1,5.3-1.7,7.9
				l-0.1,0.6h3.2c0.4-1.7,0.8-4.3,1.3-5.1c0.5-0.8,1.3-1.4,2.4-1L371.4,26.5"/>
			<path id="Fill-389" class="st1" d="M364.5,26.5c-2.2-0.3-2.9,0.8-3.5,1.3c0.1-0.4,0.2-0.9,0.2-1.3h-2.8c-0.4,2.6-1.1,5.3-1.7,7.9
				l-0.1,0.6h3.2c0.4-1.7,0.8-4.3,1.3-5.1c0.5-0.8,1.3-1.4,2.4-1L364.5,26.5"/>
		</g>
	</g>
</g>
<g id="Payment-badge-set_2_">
	<g id="Dark-Payment-badges_2_" transform="translate(-290.000000, -164.000000)">
		<g id="MasterCard-dark" transform="translate(290.000000, 164.000000)">
			<path id="Rectangle_2_" class="st2" d="M109.5,0.2h92c2.2,0,4,1.8,4,4v52c0,2.2-1.8,4-4,4h-92c-2.2,0-4-1.8-4-4v-52
				C105.5,2,107.3,0.2,109.5,0.2z"/>
			<path id="Fill-333" class="st5" d="M161.7,30.7c0,10.8-8.7,19.5-19.5,19.5c-10.8,0-19.5-8.7-19.5-19.5c0-10.8,8.7-19.5,19.5-19.5
				C152.9,11.2,161.7,19.9,161.7,30.7"/>
			<path id="Fill-334" class="st6" d="M168.3,11.2c-5,0-9.6,1.9-13.1,5.1c-0.7,0.6-1.4,1.3-2,2.1h3.9c0.5,0.7,1,1.3,1.5,2.1h-6.9
				c-0.4,0.7-0.8,1.4-1.1,2.1h9.2c0.3,0.7,0.6,1.4,0.8,2.1h-10.8c-0.2,0.7-0.4,1.4-0.6,2.1h12c0.3,1.3,0.4,2.7,0.4,4.1
				c0,2.2-0.4,4.3-1,6.2h-10.8c0.2,0.7,0.5,1.4,0.8,2.1h9.2c-0.3,0.7-0.7,1.4-1.1,2.1h-6.9c0.5,0.7,0.9,1.4,1.5,2.1h3.9
				c-0.6,0.7-1.3,1.4-2,2.1c3.5,3.1,8.1,5.1,13.1,5.1c10.8,0,19.5-8.7,19.5-19.5C187.9,19.9,179.1,11.2,168.3,11.2"/>
			<path id="Fill-336" class="st2" d="M137.6,32.8c-0.2,0-0.3,0-0.5,0c-1.2,0-1.8,0.4-1.8,1.2c0,0.5,0.3,0.8,0.8,0.8
				C136.9,34.9,137.5,34,137.6,32.8L137.6,32.8z M139.1,36.4h-1.8l0-0.8c-0.5,0.7-1.2,1-2.2,1c-1.1,0-1.9-0.9-1.9-2.2
				c0-2,1.4-3.1,3.7-3.1c0.2,0,0.5,0,0.9,0.1c0.1-0.3,0.1-0.4,0.1-0.5c0-0.5-0.4-0.7-1.4-0.7c-1,0-1.9,0.2-2.2,0.4
				c0-0.1,0.3-1.8,0.3-1.8c1.1-0.3,1.8-0.4,2.5-0.4c1.8,0,2.8,0.8,2.8,2.4c0,0.4-0.1,0.9-0.2,1.6C139.6,33.3,139.2,35.8,139.1,36.4
				L139.1,36.4z"/>
			<polyline id="Fill-337" class="st2" points="132.4,36.4 130.2,36.4 131.5,28.8 128.7,36.4 127.3,36.4 127.1,28.9 125.9,36.4 
				123.9,36.4 125.5,26.5 128.6,26.5 128.8,32.1 130.6,26.5 134,26.5 132.4,36.4 			"/>
			<path id="Fill-338" class="st2" d="M171,32.8c-0.2,0-0.3,0-0.5,0c-1.2,0-1.8,0.4-1.8,1.2c0,0.5,0.3,0.8,0.8,0.8
				C170.3,34.9,170.9,34,171,32.8L171,32.8z M172.5,36.4h-1.8l0-0.8c-0.5,0.7-1.2,1-2.2,1c-1.1,0-1.9-0.9-1.9-2.2
				c0-2,1.4-3.1,3.7-3.1c0.2,0,0.5,0,0.9,0.1c0.1-0.3,0.1-0.4,0.1-0.5c0-0.5-0.4-0.7-1.4-0.7c-1,0-1.9,0.2-2.2,0.4
				c0-0.1,0.3-1.8,0.3-1.8c1.1-0.3,1.8-0.4,2.5-0.4c1.8,0,2.8,0.8,2.8,2.4c0,0.4-0.1,0.9-0.2,1.6C172.9,33.3,172.5,35.8,172.5,36.4
				L172.5,36.4z"/>
			<path id="Fill-339" class="st2" d="M148.5,36.3c-0.6,0.2-1,0.3-1.5,0.3c-1.1,0-1.7-0.6-1.7-1.8c0-0.4,0.2-1.3,0.3-2.1
				c0.1-0.8,0.9-5.5,0.9-5.5h2.1l-0.2,1.2h1.3l-0.3,1.9h-1.3c-0.2,1.5-0.6,3.4-0.6,3.7c0,0.4,0.2,0.6,0.7,0.6c0.2,0,0.4,0,0.6-0.1
				L148.5,36.3"/>
			<path id="Fill-340" class="st2" d="M155,36.2c-0.7,0.2-1.4,0.3-2.2,0.3c-2.4,0-3.6-1.2-3.6-3.6c0-2.8,1.6-4.8,3.7-4.8
				c1.7,0,2.8,1.1,2.8,2.9c0,0.6-0.1,1.2-0.3,2h-4.2c-0.1,1.2,0.6,1.7,1.8,1.7c0.8,0,1.4-0.2,2.2-0.5L155,36.2L155,36.2z
				 M153.8,31.5c0-0.2,0.2-1.4-1-1.4c-0.7,0-1.2,0.5-1.3,1.4H153.8L153.8,31.5z"/>
			<path id="Fill-341" class="st2" d="M140.4,30.9c0,1,0.5,1.7,1.6,2.2c0.9,0.4,1,0.5,1,0.9c0,0.5-0.4,0.7-1.2,0.7
				c-0.6,0-1.2-0.1-1.9-0.3c0,0-0.3,1.8-0.3,1.9c0.5,0.1,0.9,0.2,2.2,0.2c2.2,0,3.3-0.9,3.3-2.7c0-1.1-0.4-1.8-1.5-2.2
				c-0.9-0.4-1-0.5-1-0.9c0-0.4,0.4-0.7,1-0.7c0.4,0,1,0,1.5,0.1l0.3-1.9c-0.5-0.1-1.4-0.2-1.9-0.2
				C141.2,28.2,140.4,29.4,140.4,30.9"/>
			<path id="Fill-342" class="st2" d="M165.3,28.4c0.6,0,1.1,0.2,1.9,0.5l0.3-2.1c-0.3-0.1-1.4-0.8-2.3-0.8c-1.4,0-2.6,0.7-3.5,1.9
				c-1.2-0.4-1.7,0.4-2.4,1.2l-0.6,0.1c0-0.3,0.1-0.5,0.1-0.8H157c-0.3,2.5-0.7,5-1.1,7.5l-0.1,0.5h2.1c0.4-2.3,0.5-3.8,0.7-4.8
				l0.8-0.4c0.1-0.4,0.5-0.6,1.2-0.6c-0.1,0.5-0.2,1.1-0.2,1.6c0,2.6,1.4,4.3,3.7,4.3c0.6,0,1.1-0.1,1.9-0.3l0.4-2.3
				c-0.7,0.3-1.3,0.5-1.8,0.5c-1.2,0-2-0.9-2-2.4C162.6,29.9,163.7,28.4,165.3,28.4"/>
			<path id="Fill-343" class="st2" d="M183.2,26.5l-0.5,2.9c-0.6-0.8-1.2-1.3-2-1.3c-1.1,0-2,0.8-2.7,2c-0.9-0.2-1.8-0.5-1.8-0.5
				l0,0c0.1-0.7,0.1-1.1,0.1-1.2h-1.9c-0.3,2.5-0.7,5-1.1,7.5l-0.1,0.5h2.1c0.3-1.9,0.5-3.4,0.7-4.6c0.7-0.7,1.1-1.2,1.8-1.2
				c-0.3,0.8-0.5,1.7-0.5,2.6c0,2,1,3.3,2.6,3.3c0.8,0,1.4-0.3,2-0.9l-0.1,0.7h2l1.6-9.9H183.2L183.2,26.5z M180.6,34.6
				c-0.7,0-1.1-0.5-1.1-1.6c0-1.6,0.7-2.7,1.6-2.7c0.7,0,1.1,0.6,1.1,1.6C182.3,33.5,181.6,34.6,180.6,34.6L180.6,34.6z"/>
			<polyline id="Fill-344" class="st1" points="133,35.8 130.9,35.8 132.1,28.2 129.4,35.8 127.9,35.8 127.7,28.3 126.5,35.8 
				124.5,35.8 126.1,25.9 129.2,25.9 129.3,32.1 131.3,25.9 134.6,25.9 133,35.8 			"/>
			<path id="Fill-345" class="st1" d="M138.2,32.3c-0.2,0-0.3,0-0.5,0c-1.2,0-1.8,0.4-1.8,1.2c0,0.5,0.3,0.8,0.8,0.8
				C137.5,34.3,138.2,33.4,138.2,32.3L138.2,32.3z M139.7,35.8H138l0-0.8c-0.5,0.7-1.2,1-2.2,1c-1.1,0-1.9-0.9-1.9-2.2
				c0-2,1.4-3.1,3.7-3.1c0.2,0,0.5,0,0.9,0.1c0.1-0.3,0.1-0.4,0.1-0.5c0-0.5-0.4-0.7-1.4-0.7c-1,0-1.9,0.2-2.2,0.4
				c0-0.1,0.3-1.8,0.3-1.8c1.1-0.3,1.8-0.4,2.5-0.4c1.8,0,2.8,0.8,2.8,2.4c0,0.4-0.1,0.9-0.2,1.6C140.2,32.7,139.8,35.2,139.7,35.8
				L139.7,35.8z"/>
			<path id="Fill-346" class="st1" d="M168.1,26.2l-0.3,2.1c-0.8-0.4-1.3-0.5-1.9-0.5c-1.6,0-2.7,1.5-2.7,3.7c0,1.5,0.7,2.4,2,2.4
				c0.5,0,1.1-0.2,1.8-0.5l-0.4,2.3c-0.8,0.2-1.3,0.3-1.9,0.3c-2.3,0-3.7-1.6-3.7-4.3c0-3.5,2-6,4.8-6
				C166.7,25.7,167.8,26.1,168.1,26.2"/>
			<path id="Fill-347" class="st1" d="M171.6,32.3c-0.2,0-0.3,0-0.5,0c-1.2,0-1.8,0.4-1.8,1.2c0,0.5,0.3,0.8,0.8,0.8
				C170.9,34.3,171.5,33.4,171.6,32.3L171.6,32.3z M173.1,35.8h-1.8l0-0.8c-0.5,0.7-1.2,1-2.2,1c-1.1,0-1.9-0.9-1.9-2.2
				c0-2,1.4-3.1,3.7-3.1c0.2,0,0.5,0,0.9,0.1c0.1-0.3,0.1-0.4,0.1-0.5c0-0.5-0.4-0.7-1.4-0.7c-1,0-1.9,0.2-2.2,0.4
				c0-0.1,0.3-1.8,0.3-1.8c1.1-0.3,1.8-0.4,2.5-0.4c1.8,0,2.8,0.8,2.8,2.4c0,0.4-0.1,0.9-0.2,1.6C173.6,32.7,173.2,35.2,173.1,35.8
				L173.1,35.8z"/>
			<path id="Fill-348" class="st1" d="M149.1,35.7c-0.6,0.2-1,0.3-1.5,0.3c-1.1,0-1.7-0.6-1.7-1.8c0-0.4,0.2-1.3,0.3-2.1
				c0.1-0.8,0.9-5.5,0.9-5.5h2.1l-0.2,1.2h1.1l-0.3,1.9h-1.1c-0.2,1.5-0.6,3.4-0.6,3.7c0,0.4,0.2,0.6,0.7,0.6c0.2,0,0.4,0,0.6-0.1
				L149.1,35.7"/>
			<path id="Fill-349" class="st1" d="M155.6,35.7c-0.7,0.2-1.4,0.3-2.2,0.3c-2.4,0-3.6-1.2-3.6-3.6c0-2.8,1.6-4.8,3.7-4.8
				c1.7,0,2.8,1.1,2.8,2.9c0,0.6-0.1,1.2-0.3,2h-4.2c-0.1,1.2,0.6,1.7,1.8,1.7c0.8,0,1.4-0.2,2.2-0.5L155.6,35.7L155.6,35.7z
				 M154.4,30.9c0-0.2,0.2-1.4-1-1.4c-0.7,0-1.2,0.5-1.3,1.4H154.4L154.4,30.9z"/>
			<path id="Fill-350" class="st1" d="M141,30.3c0,1,0.5,1.7,1.6,2.2c0.9,0.4,1,0.5,1,0.9c0,0.5-0.4,0.7-1.2,0.7
				c-0.6,0-1.2-0.1-1.9-0.3c0,0-0.3,1.8-0.3,1.9c0.5,0.1,0.9,0.2,2.2,0.2c2.2,0,3.3-0.9,3.3-2.7c0-1.1-0.4-1.8-1.5-2.2
				c-0.9-0.4-1-0.5-1-0.9c0-0.4,0.4-0.7,1-0.7c0.4,0,1,0,1.5,0.1l0.3-1.9c-0.5-0.1-1.4-0.2-1.9-0.2C141.8,27.6,141,28.9,141,30.3"/>
			<path id="Fill-351" class="st1" d="M184.3,35.8h-2l0.1-0.7c-0.6,0.6-1.2,0.9-2,0.9c-1.5,0-2.6-1.3-2.6-3.3c0-2.7,1.6-4.9,3.4-4.9
				c0.8,0,1.4,0.3,2,1.1l0.5-2.9h2.1L184.3,35.8L184.3,35.8z M181.2,34c1,0,1.7-1.1,1.7-2.7c0-1-0.4-1.6-1.1-1.6
				c-1,0-1.6,1.1-1.6,2.7C180.1,33.5,180.5,34,181.2,34L181.2,34z"/>
			<path id="Fill-352" class="st1" d="M175,27.8c-0.3,2.5-0.7,5-1.1,7.5l-0.1,0.5h2.1c0.8-4.9,0.9-5.9,2.1-5.8
				c0.2-1,0.5-1.9,0.8-2.3c-0.9-0.2-1.4,0.3-2,1.3c0.1-0.4,0.1-0.8,0.1-1.2H175"/>
			<path id="Fill-353" class="st1" d="M157.6,27.8c-0.3,2.5-0.7,5-1.1,7.5l-0.1,0.5h2.1c0.8-4.9,0.9-5.9,2.1-5.8
				c0.2-1,0.5-1.9,0.8-2.3c-0.9-0.2-1.4,0.3-2,1.3c0.1-0.4,0.1-0.8,0.1-1.2H157.6"/>
		</g>
	</g>
</g>
<g id="Payment-badge-set_3_">
	<g id="Dark-Payment-badges_3_" transform="translate(-130.000000, -164.000000)">
		<g id="Visa-dark" transform="translate(130.000000, 164.000000)">
			<path id="Rectangle_3_" class="st7" d="M4.5,0h92c2.2,0,4,1.8,4,4v52c0,2.2-1.8,4-4,4h-92c-2.2,0-4-1.8-4-4V4
				C0.5,1.8,2.3,0,4.5,0z"/>
			<polyline id="Fill-3" class="st8" points="42,39.6 45.1,20.5 50,20.5 46.9,39.6 42,39.6 			"/>
			<path id="Fill-4" class="st8" d="M64.8,21c-1-0.4-2.5-0.8-4.4-0.8c-4.9,0-8.3,2.6-8.3,6.3c0,2.7,2.4,4.3,4.3,5.2
				c1.9,0.9,2.6,1.5,2.6,2.4c0,1.3-1.5,1.9-2.9,1.9c-2,0-3-0.3-4.6-1l-0.6-0.3L50,38.8c1.1,0.5,3.3,1,5.5,1c5.2,0,8.5-2.6,8.6-6.5
				c0-2.2-1.3-3.8-4.1-5.2c-1.7-0.9-2.8-1.5-2.8-2.4c0-0.8,0.9-1.6,2.8-1.6c1.6,0,2.8,0.3,3.7,0.7l0.4,0.2L64.8,21"/>
			<path id="Fill-5" class="st8" d="M71.3,32.8c0.4-1.1,2-5.3,2-5.3c0,0.1,0.4-1.1,0.7-1.8l0.3,1.6c0,0,0.9,4.6,1.1,5.5H71.3
				L71.3,32.8z M77.4,20.5h-3.8c-1.2,0-2.1,0.3-2.6,1.6l-7.3,17.5h5.2c0,0,0.8-2.4,1-2.9c0.6,0,5.6,0,6.3,0c0.1,0.7,0.6,2.9,0.6,2.9
				h4.6L77.4,20.5L77.4,20.5z"/>
			<path id="Fill-6" class="st8" d="M37.9,20.5l-4.8,13l-0.5-2.6c-0.9-3-3.7-6.3-6.8-8l4.4,16.7l5.2,0l7.7-19H37.9"/>
			<path id="Fill-7" class="st9" d="M28.6,20.5h-7.9l-0.1,0.4c6.2,1.6,10.2,5.4,11.9,10l-1.7-8.8C30.5,20.9,29.7,20.5,28.6,20.5"/>
		</g>
	</g>
</g>
</svg>
