<svg width="666.667" height="202.667" viewBox="0 0 666.667 202.667" xmlns="http://www.w3.org/2000/svg"><defs><clipPath clipPathUnits="userSpaceOnUse" id="a"><path d="M0 152h500V0H0z"/></clipPath></defs><g clip-path="url(#a)" transform="matrix(1.33333 0 0 -1.33333 0 202.667)"><path d="M371.201 33.875c0 5.138 3.788 9.057 8.958 9.057 4.347 0 7.212-2.702 8.068-5.5L385.1 36.18c-.625 2.239-2.404 3.622-4.84 3.622-3.163 0-5.567-2.371-5.567-5.928s2.404-5.928 5.566-5.928c2.47 0 4.315 1.383 4.94 3.59l3.127-1.252c-.856-2.733-3.72-5.467-8.134-5.467-5.136 0-8.99 3.854-8.99 9.057m33.526.033c0 3.493-2.24 5.962-5.564 5.962-3.162 0-5.534-2.568-5.534-5.962 0-3.456 2.338-5.992 5.534-5.992 3.293 0 5.564 2.469 5.564 5.992m3.36 8.664V25.214h-3.226v2.832c-1.32-2.01-3.427-3.228-6.126-3.228-4.975 0-8.565 3.886-8.565 9.089 0 5.138 3.625 8.827 8.565 8.827 2.699 0 4.807-1.118 6.126-3.095v2.932zm18.737-8.696c0 3.459-2.338 5.994-5.532 5.994-3.292 0-5.598-2.47-5.598-5.994 0-3.523 2.27-5.96 5.598-5.96 3.162 0 5.532 2.536 5.532 5.96m3.459 0c0-5.17-3.622-9.057-8.563-9.057-2.503 0-4.512.99-5.863 2.702v-8.202h-3.491V42.57h3.229v-2.734c1.383 1.942 3.523 3.095 6.192 3.095 4.973 0 8.496-3.886 8.496-9.057m3.324 8.696h3.491V25.213h-3.491zm-.789 5.433c0 1.45 1.118 2.504 2.536 2.504 1.415 0 2.536-1.054 2.536-2.504s-1.121-2.437-2.536-2.437c-1.418 0-2.536.987-2.536 2.437m9.878-16.729v8.298h-3.095v2.998h1.68c1.118 0 1.613.56 1.613 1.68v2.798h3.392V42.57h4.841v-2.998h-4.972v-7.937c0-2.174 1.152-3.359 3.228-3.359h1.942v-3.063h-2.635c-3.918 0-5.994 2.338-5.994 6.061m24.339 2.633c0 3.493-2.24 5.962-5.564 5.962-3.162 0-5.534-2.568-5.534-5.962 0-3.456 2.338-5.992 5.534-5.992 3.293 0 5.564 2.469 5.564 5.992m3.36 8.664V25.214h-3.226v2.832c-1.32-2.01-3.427-3.228-6.126-3.228-4.975 0-8.565 3.886-8.565 9.089 0 5.138 3.625 8.827 8.565 8.827 2.699 0 4.807-1.118 6.126-3.095v2.932zm4.279 6.716h3.491V25.213h-3.491z" fill="#f15a29"/><path d="M170.061 68.88v-7.802h-37.747v58.298h37.242v-7.8h-28.35v-16.61h25.498V87.25h-25.499V68.88zm45.553 36.404l-17.446-44.206h-10.151l-17.448 44.206h9.228l13.336-35.733 13.253 35.733zm35.32-18.287c-1.175 7.466-6.291 12.08-13.085 12.08-6.88 0-12.582-4.445-13.925-12.08zm-12.498-19.039c6.627 0 10.316 2.432 12.33 7.045l7.298-4.613c-3.355-5.874-9.312-10.319-19.881-10.319-13.923 0-23.151 9.898-23.151 23.07 0 12.831 9.983 23.15 22.48 23.15 13.674 0 22.145-10.737 22.145-22.146 0-1.51-.084-3.103-.168-3.94h-35.65c1.344-7.552 7.13-12.247 14.597-12.247m49.159 38.333v-8.305c-7.884-.084-13.085-4.782-13.085-10.989V61.078h-8.891v44.206h8.389v-5.62c2.934 3.775 7.8 6.627 13.587 6.627m44.127-32.715V61.078h-39.929v58.298h14.01v-45.8zm33.978 9.648c0 6.29-3.942 10.653-10.065 10.653-6.125 0-10.15-4.364-10.15-10.737 0-6.207 4.025-10.737 10.15-10.737 6.04 0 10.064 4.446 10.064 10.821m-34.306-.084c0 13.253 10.064 23.151 24.158 23.151 14.176 0 24.242-9.898 24.242-23.15 0-13.172-10.066-23.155-24.242-23.155-14.094 0-24.158 9.983-24.158 23.154m84.893 0c0 6.457-4.11 10.903-10.232 10.903-5.873 0-10.151-4.612-10.151-10.903 0-6.29 4.194-10.82 10.15-10.82 6.124 0 10.233 4.445 10.233 10.82m13.42 22.144V61.078h-12.915v4.027c-3.105-3.273-7.298-5.118-12.751-5.118-12.835 0-22.06 9.898-22.06 23.153 0 13.253 9.225 22.312 22.06 22.312 5.453 0 9.646-1.677 12.75-4.782v4.614zM478.7 89.18V61.077h-14.007V86.41c0 4.782-3.27 7.55-7.467 7.55-4.193 0-7.632-3.02-7.632-7.048V61.078h-14.007v44.206h13.17v-3.523c3.017 2.77 7.381 4.614 12.75 4.614 10.4 0 17.193-7.046 17.193-17.196" fill="#002c51"/><path d="M42.705 98.001l37.079 21.407L57.974 132l-36.856-21.279v-42.78L42.705 55.7zm30.163.066l.115-42.368 21.586 12.463v42.434z" fill="#f15a29"/></g></svg>