<svg width="107" height="21" viewBox="0 0 107 21" fill="none" xmlns="http://www.w3.org/2000/svg"><mask id="a" style="mask-type:alpha" maskUnits="userSpaceOnUse" x="0" y="1" width="17" height="18"><path fill="#D9D9D9" d="M0 1.659h16.976v16.976H0z"/></mask><g mask="url(#a)"><path d="M3.537 13.684V8.733H4.95v4.95H3.537zm4.243 0V8.733h1.415v4.95H7.78zm-6.365 2.829v-1.415H15.56v1.415H1.415zm10.61-2.83v-4.95h1.414v4.95h-1.415zM1.414 7.319V5.903l7.073-3.536 7.073 3.536v1.415H1.415zm3.147-1.415h7.851L8.488 3.958 4.562 5.903z" fill="#1C1B1F"/></g><path d="M23.658 5.678h4.413v.877h-3.457v2.422h3.39v.854h-3.39v2.439h3.457v.877h-4.413v-7.47zM29.106 8.5h1.058l1.516 3.735L33.197 8.5h1.052l-1.986 4.646h-1.16L29.106 8.5zm6.684 2.524c.003.28.064.534.18.764.118.23.291.413.521.549.234.136.52.204.86.204.287 0 .53-.042.73-.125.204-.087.37-.189.498-.306.129-.12.221-.228.278-.322l.48.594c-.124.181-.277.34-.458.475a1.9 1.9 0 01-.65.312c-.257.075-.57.113-.94.113-.498 0-.93-.106-1.296-.317a2.185 2.185 0 01-.837-.888 2.814 2.814 0 01-.294-1.308c0-.452.092-.86.277-1.222.185-.366.453-.654.803-.866.355-.21.781-.316 1.28-.316.456 0 .852.096 1.188.288.339.189.601.457.786.804.189.347.283.762.283 1.245a4.071 4.071 0 01-.017.322H35.79zm2.75-.741a1.287 1.287 0 00-.136-.51 1.16 1.16 0 00-.408-.475c-.188-.132-.443-.198-.763-.198-.332 0-.6.064-.804.193-.2.128-.347.284-.441.47a1.408 1.408 0 00-.164.52h2.716zm2.994 2.863h-.98V8.501h.98v.804h-.029c.02-.098.09-.22.21-.368.12-.147.286-.28.498-.396.211-.117.464-.175.758-.175.215 0 .404.03.566.09.166.057.283.113.35.17l-.401.815a.85.85 0 00-.277-.159 1.253 1.253 0 00-.493-.085.94.94 0 00-.639.232 1.545 1.545 0 00-.407.56 1.546 1.546 0 00-.136.6v2.558zm5.835-7.47h.968v6.593h2.937v.877h-3.905v-7.47zm7.306 7.606a2.52 2.52 0 01-1.28-.323 2.356 2.356 0 01-.87-.871 2.476 2.476 0 01-.318-1.25c0-.465.106-.883.317-1.257.212-.373.502-.67.872-.888.373-.22.8-.328 1.279-.328.475 0 .895.109 1.261.328.37.218.659.515.866.888.208.374.311.792.311 1.256 0 .464-.103.881-.31 1.25a2.313 2.313 0 01-.867.872 2.443 2.443 0 01-1.261.323zm0-.843a1.425 1.425 0 001.313-.78c.124-.246.186-.522.186-.827a1.79 1.79 0 00-.187-.826 1.42 1.42 0 00-1.313-.798 1.46 1.46 0 00-.797.215 1.498 1.498 0 00-.532.583 1.79 1.79 0 00-.187.826c0 .305.062.58.187.826.128.241.305.432.532.571.226.14.492.21.797.21zm7.265.707v-.905c-.03.094-.12.224-.267.39a2.066 2.066 0 01-.594.453 1.858 1.858 0 01-.882.198c-.43 0-.82-.102-1.172-.306a2.263 2.263 0 01-.831-.854c-.204-.37-.306-.802-.306-1.296s.102-.924.306-1.29a2.252 2.252 0 012.003-1.171c.335 0 .626.06.871.18.25.121.447.26.594.42.151.158.24.294.266.407V8.5h.973v4.646h-.962zm-3.079-2.32c0 .336.074.626.22.871.148.246.339.436.572.572.238.132.49.198.759.198.286 0 .543-.068.77-.204.226-.136.405-.326.537-.571a1.82 1.82 0 00.198-.866c0-.328-.066-.615-.198-.86a1.446 1.446 0 00-1.307-.787c-.268 0-.52.068-.759.204a1.597 1.597 0 00-.571.572 1.66 1.66 0 00-.22.871zm7.953-2.461c.306 0 .602.064.889.192.29.128.528.332.713.611.188.275.283.636.283 1.08v2.898h-.996v-2.705c0-.46-.108-.794-.323-1.001-.215-.212-.492-.317-.832-.317a1.21 1.21 0 00-.645.192 1.482 1.482 0 00-.503.52 1.417 1.417 0 00-.198.748v2.563h-.985V8.501h.985v.826c.034-.128.126-.267.277-.418.15-.151.343-.28.577-.385a1.82 1.82 0 01.758-.158zm9.646 3.96c.464 0 .866-.064 1.205-.192.343-.128.587-.253.73-.373l.424.831c-.17.151-.466.304-.888.459-.419.154-.922.232-1.51.232a3.952 3.952 0 01-1.534-.294 3.838 3.838 0 01-1.24-.821c-.35-.35-.626-.76-.826-1.228a3.88 3.88 0 01-.294-1.516c0-.544.098-1.051.294-1.522a3.777 3.777 0 012.06-2.06c.475-.2.988-.3 1.54-.3.588 0 1.091.077 1.51.232.422.155.719.307.888.458l-.424.832c-.143-.124-.387-.249-.73-.373-.34-.129-.741-.193-1.205-.193-.423 0-.81.072-1.16.215a2.72 2.72 0 00-1.517 1.534 3.14 3.14 0 00-.21 1.16c0 .422.07.813.21 1.171.144.355.343.664.6.928.26.26.566.462.917.605.35.144.737.215 1.16.215zm7.23.821v-.905c-.03.094-.12.224-.266.39a2.066 2.066 0 01-.595.453 1.858 1.858 0 01-.882.198c-.43 0-.82-.102-1.172-.306a2.263 2.263 0 01-.832-.854c-.203-.37-.305-.802-.305-1.296s.102-.924.305-1.29a2.252 2.252 0 012.004-1.171c.335 0 .626.06.871.18.25.121.447.26.594.42.151.158.24.294.266.407V8.5h.973v4.646h-.962zm-3.079-2.32c0 .336.074.626.22.871.148.246.339.436.572.572.238.132.49.198.759.198.286 0 .543-.068.77-.204.226-.136.405-.326.537-.571a1.82 1.82 0 00.198-.866c0-.328-.066-.615-.198-.86a1.446 1.446 0 00-1.307-.787c-.268 0-.52.068-.759.204a1.597 1.597 0 00-.571.572 1.66 1.66 0 00-.22.871zm6.352 4.674h-.979v-7h.996v.872c.034-.117.128-.255.283-.413.154-.159.362-.296.622-.413.264-.121.566-.181.906-.181a2.111 2.111 0 011.93 1.17c.192.367.288.797.288 1.291 0 .494-.098.926-.294 1.296-.197.366-.464.65-.804.854-.336.204-.72.306-1.154.306a2.04 2.04 0 01-.923-.198 2.116 2.116 0 01-.616-.447c-.148-.166-.232-.298-.255-.396V15.5zm3.073-4.674c0-.336-.07-.626-.21-.871a1.496 1.496 0 00-.543-.572 1.405 1.405 0 00-.736-.204 1.535 1.535 0 00-1.358.787c-.14.245-.21.532-.21.86 0 .328.07.617.21.866.14.245.329.435.566.571.238.136.502.204.792.204.264 0 .51-.066.736-.198.226-.136.407-.326.543-.572.14-.245.21-.535.21-.871zm2.106 2.32V8.501h.985v4.646h-.985zm.504-6.236A.635.635 0 0192 6.266c0-.177.062-.33.186-.458a.626.626 0 01.459-.193c.117 0 .224.03.322.091a.7.7 0 01.243.238.63.63 0 01-.101.781.642.642 0 01-.464.186zm1.59 1.59h.91V6.594h.98v1.907h1.194v.843h-1.194v2.298c0 .271.047.471.141.6a.467.467 0 00.39.192.598.598 0 00.334-.08.82.82 0 00.142-.107l.39.725a1.786 1.786 0 01-.56.249 2.11 2.11 0 01-.543.062c-.362 0-.666-.11-.911-.328-.242-.223-.362-.574-.362-1.053V9.344h-.911v-.843zm7.877 4.646v-.905c-.03.094-.119.224-.266.39a2.057 2.057 0 01-.594.453 1.858 1.858 0 01-.883.198c-.43 0-.82-.102-1.171-.306a2.263 2.263 0 01-.832-.854c-.204-.37-.306-.802-.306-1.296s.102-.924.306-1.29a2.252 2.252 0 012.003-1.171c.336 0 .626.06.871.18.249.121.448.26.595.42.151.158.239.294.266.407V8.5h.973v4.646h-.962zm-3.078-2.32c0 .336.073.626.22.871a1.6 1.6 0 00.572.572c.238.132.49.198.758.198.287 0 .543-.068.77-.204.226-.136.405-.326.537-.571a1.82 1.82 0 00.198-.866c0-.328-.066-.615-.198-.86a1.447 1.447 0 00-1.307-.787c-.268 0-.52.068-.758.204a1.596 1.596 0 00-.572.572 1.66 1.66 0 00-.22.871zm6.38 2.32h-.991V5.361h.991v7.786z" fill="#000"/></svg>