<svg xmlns="http://www.w3.org/2000/svg" viewBox="0 0 222 70"><path d="M31.9 22.5c-.7 0-1.3-.6-1.3-1.3 0-.7.6-1.3 1.3-1.3.7 0 1.3.6 1.3 1.3 0 .7-.6 1.3-1.3 1.3zm3.2 0c-.7 0-1.3-.6-1.3-1.3 0-.7.6-1.3 1.3-1.3.7 0 1.3.6 1.3 1.3 0 .7-.6 1.3-1.3 1.3zm3.2 0c-.7 0-1.3-.6-1.3-1.3 0-.7.6-1.3 1.3-1.3.7 0 1.3.6 1.3 1.3 0 .7-.6 1.3-1.3 1.3zm3.2 0c-.7 0-1.3-.6-1.3-1.3 0-.7.6-1.3 1.3-1.3.7 0 1.3.6 1.3 1.3 0 .7-.6 1.3-1.3 1.3zm-9.6 3.2c-.7 0-1.3-.6-1.3-1.3s.6-1.3 1.3-1.3c.7 0 1.3.6 1.3 1.3s-.6 1.3-1.3 1.3zm3.2 0c-.7 0-1.3-.6-1.3-1.3s.6-1.3 1.3-1.3c.7 0 1.3.6 1.3 1.3s-.6 1.3-1.3 1.3zm3.2 0c-.7 0-1.3-.6-1.3-1.3s.6-1.3 1.3-1.3c.7 0 1.3.6 1.3 1.3s-.6 1.3-1.3 1.3zm-6.4 3.2c-.7 0-1.3-.6-1.3-1.3s.6-1.3 1.3-1.3c.7 0 1.3.6 1.3 1.3s-.6 1.3-1.3 1.3zm3.2 0c-.7 0-1.3-.6-1.3-1.3s.6-1.3 1.3-1.3c.7 0 1.3.6 1.3 1.3s-.6 1.3-1.3 1.3zm3.2 0c-.7 0-1.3-.6-1.3-1.3s.6-1.3 1.3-1.3c.7 0 1.3.6 1.3 1.3s-.6 1.3-1.3 1.3zm-6.4 3.2c-.7 0-1.3-.6-1.3-1.3 0-.7.6-1.3 1.3-1.3.7 0 1.3.6 1.3 1.3 0 .7-.6 1.3-1.3 1.3zm3.2 0c-.7 0-1.3-.6-1.3-1.3 0-.7.6-1.3 1.3-1.3.7 0 1.3.6 1.3 1.3 0 .7-.6 1.3-1.3 1.3zm3.2 0c-.7 0-1.3-.6-1.3-1.3 0-.7.6-1.3 1.3-1.3.7 0 1.3.6 1.3 1.3 0 .7-.6 1.3-1.3 1.3zm-16 0c-.7 0-1.3-.6-1.3-1.3 0-.7.6-1.3 1.3-1.3s1.3.6 1.3 1.3c0 .7-.5 1.3-1.3 1.3zm-3.2 0c-.7 0-1.3-.6-1.3-1.3 0-.7.6-1.3 1.3-1.3s1.3.6 1.3 1.3c.1.7-.5 1.3-1.3 1.3zm3.2-3.2c-.7 0-1.3-.6-1.3-1.3s.6-1.3 1.3-1.3 1.3.6 1.3 1.3-.5 1.3-1.3 1.3zm-3.2 0c-.7 0-1.3-.6-1.3-1.3s.6-1.3 1.3-1.3 1.3.6 1.3 1.3-.5 1.3-1.3 1.3zm3.2-3.2c-.7 0-1.3-.6-1.3-1.3s.6-1.3 1.3-1.3 1.3.6 1.3 1.3-.5 1.3-1.3 1.3zm-3.2 0c-.7 0-1.3-.6-1.3-1.3s.6-1.3 1.3-1.3 1.3.6 1.3 1.3-.5 1.3-1.3 1.3zm3.2-3.2c-.7 0-1.3-.6-1.3-1.3 0-.7.6-1.3 1.3-1.3s1.3.6 1.3 1.3c0 .7-.5 1.3-1.3 1.3zm-3.2 0c-.7 0-1.3-.6-1.3-1.3 0-.7.6-1.3 1.3-1.3s1.3.6 1.3 1.3c.1.7-.5 1.3-1.3 1.3zm6.4 9.6c-.7 0-1.3-.6-1.3-1.3 0-.7.6-1.3 1.3-1.3s1.3.6 1.3 1.3c0 .7-.6 1.3-1.3 1.3zm3.2 0c-.7 0-1.3-.6-1.3-1.3 0-.7.6-1.3 1.3-1.3s1.3.5 1.3 1.2c0 .8-.6 1.4-1.3 1.4zm3.2 3.2c-.7 0-1.3-.6-1.3-1.3s.6-1.3 1.3-1.3c.7 0 1.3.6 1.3 1.3s-.6 1.3-1.3 1.3zm3.2 0c-.7 0-1.3-.6-1.3-1.3s.6-1.3 1.3-1.3c.7 0 1.3.6 1.3 1.3s-.6 1.3-1.3 1.3zm3.2 0c-.7 0-1.3-.6-1.3-1.3s.6-1.3 1.3-1.3c.7 0 1.3.6 1.3 1.3s-.6 1.3-1.3 1.3zm-16 0c-.7 0-1.3-.6-1.3-1.3s.6-1.3 1.3-1.3 1.3.6 1.3 1.3-.5 1.3-1.3 1.3zm-3.2 0c-.7 0-1.3-.6-1.3-1.3s.6-1.3 1.3-1.3 1.3.6 1.3 1.3-.5 1.3-1.3 1.3zm-3.2 0c-.7 0-1.3-.6-1.3-1.3s.6-1.3 1.3-1.3c.7 0 1.3.6 1.3 1.3s-.5 1.3-1.3 1.3zm9.6 0c-.7 0-1.3-.6-1.3-1.3s.6-1.3 1.3-1.3 1.3.6 1.3 1.3-.6 1.3-1.3 1.3zm3.2 0c-.7 0-1.3-.6-1.3-1.3s.6-1.3 1.3-1.3 1.3.6 1.3 1.3-.6 1.3-1.3 1.3zm3.2 3.1c-.7 0-1.3-.6-1.3-1.3s.6-1.3 1.3-1.3c.7 0 1.3.6 1.3 1.3s-.6 1.3-1.3 1.3zm3.2 0c-.7 0-1.3-.6-1.3-1.3s.6-1.3 1.3-1.3c.7 0 1.3.6 1.3 1.3s-.6 1.3-1.3 1.3zm3.2 0c-.7 0-1.3-.6-1.3-1.3s.6-1.3 1.3-1.3c.7 0 1.3.6 1.3 1.3s-.6 1.3-1.3 1.3zm-16 0c-.7 0-1.3-.6-1.3-1.3s.6-1.3 1.3-1.3 1.3.6 1.3 1.3-.5 1.3-1.3 1.3zm-3.2 0c-.7 0-1.3-.6-1.3-1.3s.6-1.3 1.3-1.3 1.3.6 1.3 1.3-.5 1.3-1.3 1.3zm-3.2 0c-.7 0-1.3-.6-1.3-1.3s.6-1.3 1.3-1.3c.7 0 1.3.6 1.3 1.3s-.5 1.3-1.3 1.3zm9.6 0c-.7 0-1.3-.6-1.3-1.3s.6-1.3 1.3-1.3 1.3.6 1.3 1.3-.6 1.3-1.3 1.3zm3.2 0c-.7 0-1.3-.6-1.3-1.3s.6-1.3 1.3-1.3 1.3.6 1.3 1.3-.6 1.3-1.3 1.3zm0 3.2c-.7 0-1.3-.6-1.3-1.3S28 39 28.7 39s1.3.6 1.3 1.3-.6 1.3-1.3 1.3zm3.2 0c-.7 0-1.3-.6-1.3-1.3s.6-1.3 1.3-1.3c.7 0 1.3.6 1.3 1.3s-.6 1.3-1.3 1.3zm3.2 0c-.7 0-1.3-.6-1.3-1.3s.6-1.3 1.3-1.3c.7 0 1.3.6 1.3 1.3s-.6 1.3-1.3 1.3zm-16 0c-.7 0-1.3-.6-1.3-1.3s.6-1.3 1.3-1.3 1.3.6 1.3 1.3-.5 1.3-1.3 1.3zm-3.2 0c-.7 0-1.3-.6-1.3-1.3s.6-1.3 1.3-1.3c.7 0 1.3.6 1.3 1.3s-.5 1.3-1.3 1.3zm-3.1 0c-.7 0-1.3-.6-1.3-1.3S12 39 12.8 39s1.3.6 1.3 1.3-.6 1.3-1.3 1.3zm9.5 0c-.7 0-1.3-.6-1.3-1.3s.6-1.3 1.3-1.3 1.3.6 1.3 1.3-.5 1.3-1.3 1.3zm3.2 0c-.7 0-1.3-.6-1.3-1.3s.6-1.3 1.3-1.3 1.3.6 1.3 1.3-.6 1.3-1.3 1.3zm3.2 3.2c-.7 0-1.3-.6-1.3-1.3s.6-1.3 1.3-1.3 1.3.6 1.3 1.3-.6 1.3-1.3 1.3zm3.2 0c-.7 0-1.3-.6-1.3-1.3s.6-1.3 1.3-1.3c.7 0 1.3.6 1.3 1.3s-.6 1.3-1.3 1.3zm3.2 0c-.7 0-1.3-.6-1.3-1.3s.6-1.3 1.3-1.3c.7 0 1.3.6 1.3 1.3s-.6 1.3-1.3 1.3zm-16 0c-.7 0-1.3-.6-1.3-1.3s.6-1.3 1.3-1.3 1.3.6 1.3 1.3-.5 1.3-1.3 1.3zm-3.2 0c-.7 0-1.3-.6-1.3-1.3s.6-1.3 1.3-1.3c.7 0 1.3.6 1.3 1.3s-.5 1.3-1.3 1.3zm-3.1 0c-.7 0-1.3-.6-1.3-1.3s.6-1.3 1.3-1.3 1.3.6 1.3 1.3-.6 1.3-1.3 1.3zm9.5 0c-.7 0-1.3-.6-1.3-1.3s.6-1.3 1.3-1.3 1.3.6 1.3 1.3-.5 1.3-1.3 1.3zm3.2 0c-.7 0-1.3-.6-1.3-1.3s.6-1.3 1.3-1.3 1.3.6 1.3 1.3-.6 1.3-1.3 1.3zm3.2 3.2c-.7 0-1.3-.6-1.3-1.3s.6-1.3 1.3-1.3 1.3.6 1.3 1.3-.6 1.3-1.3 1.3zm3.2 0c-.7 0-1.3-.6-1.3-1.3s.6-1.3 1.3-1.3c.7 0 1.3.6 1.3 1.3s-.6 1.3-1.3 1.3zm3.2 0c-.7 0-1.3-.6-1.3-1.3s.6-1.3 1.3-1.3c.7 0 1.3.6 1.3 1.3s-.6 1.3-1.3 1.3zm3.2 0c-.7 0-1.3-.6-1.3-1.3s.6-1.3 1.3-1.3c.7 0 1.3.6 1.3 1.3S39 48 38.3 48zm-19.2 0c-.7 0-1.3-.6-1.3-1.3s.6-1.3 1.3-1.3 1.3.6 1.3 1.3-.5 1.3-1.3 1.3zm-3.2 0c-.7 0-1.3-.6-1.3-1.3s.6-1.3 1.3-1.3c.7 0 1.3.6 1.3 1.3s-.5 1.3-1.3 1.3zm-3.1 0c-.7 0-1.3-.6-1.3-1.3s.6-1.3 1.3-1.3 1.3.6 1.3 1.3-.6 1.3-1.3 1.3zm-3.2 0c-.7 0-1.3-.6-1.3-1.3s.6-1.3 1.3-1.3 1.3.6 1.3 1.3-.6 1.3-1.3 1.3zm12.7 0c-.7 0-1.3-.6-1.3-1.3s.6-1.3 1.3-1.3 1.3.6 1.3 1.3-.5 1.3-1.3 1.3zm3.2 0c-.7 0-1.3-.6-1.3-1.3s.6-1.3 1.3-1.3 1.3.6 1.3 1.3-.6 1.3-1.3 1.3zm3.2 3.2c-.7 0-1.3-.6-1.3-1.3 0-.7.6-1.3 1.3-1.3s1.3.6 1.3 1.3c0 .7-.6 1.3-1.3 1.3zm3.2 0c-.7 0-1.3-.6-1.3-1.3 0-.7.6-1.3 1.3-1.3.7 0 1.3.6 1.3 1.3 0 .7-.6 1.3-1.3 1.3zm3.2 0c-.7 0-1.3-.6-1.3-1.3 0-.7.6-1.3 1.3-1.3.7 0 1.3.6 1.3 1.3 0 .7-.6 1.3-1.3 1.3zm3.2 0c-.7 0-1.3-.6-1.3-1.3 0-.7.6-1.3 1.3-1.3.7 0 1.3.6 1.3 1.3 0 .7-.6 1.3-1.3 1.3zm-3.2 3.2c-.7 0-1.3-.6-1.3-1.3s.6-1.3 1.3-1.3c.7 0 1.3.6 1.3 1.3s-.6 1.3-1.3 1.3zm3.2 0c-.7 0-1.3-.6-1.3-1.3s.6-1.3 1.3-1.3c.7 0 1.3.6 1.3 1.3s-.6 1.3-1.3 1.3zm-3.2 6.4c-.7 0-1.3-.6-1.3-1.3 0-.7.6-1.3 1.3-1.3.7 0 1.3.6 1.3 1.3 0 .7-.6 1.3-1.3 1.3zm3.2 0c-.7 0-1.3-.6-1.3-1.3 0-.7.6-1.3 1.3-1.3.7 0 1.3.6 1.3 1.3 0 .7-.6 1.3-1.3 1.3zm0-3.2c-.7 0-1.3-.6-1.3-1.3s.6-1.3 1.3-1.3c.7 0 1.3.6 1.3 1.3s-.6 1.3-1.3 1.3zM35.1 64c-.7 0-1.3-.6-1.3-1.3s.6-1.3 1.3-1.3c.7 0 1.3.6 1.3 1.3s-.6 1.3-1.3 1.3zm3.2 0c-.7 0-1.3-.6-1.3-1.3s.6-1.3 1.3-1.3c.7 0 1.3.6 1.3 1.3S39 64 38.3 64zM19.1 51.2c-.7 0-1.3-.6-1.3-1.3 0-.7.6-1.3 1.3-1.3s1.3.6 1.3 1.3c.1.7-.5 1.3-1.3 1.3zm-3.2 0c-.7 0-1.3-.6-1.3-1.3 0-.7.6-1.3 1.3-1.3.7 0 1.3.6 1.3 1.3.1.7-.5 1.3-1.3 1.3zm-3.1 0c-.7 0-1.3-.6-1.3-1.3 0-.7.6-1.3 1.3-1.3s1.3.6 1.3 1.3c0 .7-.6 1.3-1.3 1.3zm-3.2 0c-.7 0-1.3-.6-1.3-1.3 0-.7.6-1.3 1.3-1.3s1.3.6 1.3 1.3c0 .7-.6 1.3-1.3 1.3zm-3.2 0c-.7 0-1.3-.6-1.3-1.3 0-.7.6-1.3 1.3-1.3s1.3.6 1.3 1.3c0 .7-.6 1.3-1.3 1.3zm6.4 3.2c-.7 0-1.3-.6-1.3-1.3s.6-1.3 1.3-1.3 1.3.6 1.3 1.3-.6 1.3-1.3 1.3zm-3.2 0c-.7 0-1.3-.6-1.3-1.3s.6-1.3 1.3-1.3 1.3.6 1.3 1.3-.6 1.3-1.3 1.3zm-3.2 0c-.7 0-1.3-.6-1.3-1.3s.6-1.3 1.3-1.3 1.3.6 1.3 1.3-.6 1.3-1.3 1.3zm-3.2 0c-.7 0-1.3-.6-1.3-1.3s.6-1.3 1.3-1.3 1.3.6 1.3 1.3-.6 1.3-1.3 1.3zm19.1-3.2c-.7 0-1.3-.6-1.3-1.3 0-.7.6-1.3 1.3-1.3s1.3.6 1.3 1.3c0 .7-.5 1.3-1.3 1.3zm3.2 0c-.7 0-1.3-.6-1.3-1.3 0-.7.6-1.3 1.3-1.3s1.3.6 1.3 1.3c0 .7-.6 1.3-1.3 1.3zm16-25.5c-.7 0-1.3-.6-1.3-1.3s.6-1.3 1.3-1.3c.7 0 1.3.6 1.3 1.3s-.6 1.3-1.3 1.3zm-19.2-6.4c-.7 0-1.3-.6-1.3-1.3s.6-1.3 1.3-1.3 1.3.6 1.3 1.3-.5 1.3-1.3 1.3zm9.6 0c-.7 0-1.3-.6-1.3-1.3s.6-1.3 1.3-1.3c.7 0 1.3.6 1.3 1.3s-.6 1.3-1.3 1.3zm3.2 0c-.7 0-1.3-.6-1.3-1.3s.6-1.3 1.3-1.3c.7 0 1.3.6 1.3 1.3s-.6 1.3-1.3 1.3zm3.2 0c-.7 0-1.3-.6-1.3-1.3s.6-1.3 1.3-1.3c.7 0 1.3.6 1.3 1.3s-.6 1.3-1.3 1.3zm3.2 0c-.7 0-1.3-.6-1.3-1.3s.6-1.3 1.3-1.3c.7 0 1.3.6 1.3 1.3s-.6 1.3-1.3 1.3zm-9.6-3.2c-.7 0-1.3-.6-1.3-1.3 0-.7.6-1.3 1.3-1.3.7 0 1.3.6 1.3 1.3 0 .7-.6 1.3-1.3 1.3zm-3.2 3.2c-.7 0-1.3-.6-1.3-1.3s.6-1.3 1.3-1.3 1.3.6 1.3 1.3-.6 1.3-1.3 1.3zm0-3.2c-.7 0-1.3-.6-1.3-1.3 0-.7.6-1.3 1.3-1.3s1.3.6 1.3 1.3c0 .7-.6 1.3-1.3 1.3zm-6.4-3.2c-.7 0-1.3-.6-1.3-1.3 0-.7.6-1.3 1.3-1.3s1.3.6 1.3 1.3c0 .7-.5 1.3-1.3 1.3zm3.2-3.2c-.7 0-1.3-.6-1.3-1.3s.6-1.3 1.3-1.3c.7 0 1.3.6 1.3 1.3s-.6 1.3-1.3 1.3zm3.2-3.1c-.7 0-1.3-.6-1.3-1.3S28 4 28.7 4s1.3.5 1.3 1.2-.6 1.4-1.3 1.4zm6.4 9.5c-.7 0-1.3-.6-1.3-1.3 0-.7.6-1.3 1.3-1.3.7 0 1.3.6 1.3 1.3 0 .7-.6 1.3-1.3 1.3zm3.2 0c-.7 0-1.3-.6-1.3-1.3 0-.7.6-1.3 1.3-1.3.7 0 1.3.6 1.3 1.3 0 .7-.6 1.3-1.3 1.3zm3.2 0c-.7 0-1.3-.6-1.3-1.3 0-.7.6-1.3 1.3-1.3.7 0 1.3.6 1.3 1.3 0 .7-.6 1.3-1.3 1.3zm-9.6-3.2c-.7 0-1.3-.6-1.3-1.3s.6-1.3 1.3-1.3c.7 0 1.3.6 1.3 1.3s-.6 1.3-1.3 1.3zm3.2 0c-.7 0-1.3-.6-1.3-1.3 0-.7.6-1.3 1.3-1.3.7 0 1.3.6 1.3 1.3 0 .7-.6 1.3-1.3 1.3zm3.2 0c-.7 0-1.3-.6-1.3-1.3s.6-1.3 1.3-1.3c.7 0 1.3.6 1.3 1.3s-.6 1.3-1.3 1.3zm3.2 0c-.7 0-1.3-.6-1.3-1.3 0-.7.6-1.3 1.3-1.3.7 0 1.3.6 1.3 1.3 0 .7-.6 1.3-1.3 1.3zm3.1 6.4c-.7 0-1.3-.6-1.3-1.3s.6-1.3 1.3-1.3c.7 0 1.3.6 1.3 1.3s-.5 1.3-1.3 1.3zm0-3.2c-.7 0-1.3-.6-1.3-1.3 0-.7.6-1.3 1.3-1.3.7 0 1.3.6 1.3 1.3.1.7-.5 1.3-1.3 1.3zm0-3.2c-.7 0-1.3-.6-1.3-1.3 0-.7.6-1.3 1.3-1.3.7 0 1.3.6 1.3 1.3.1.7-.5 1.3-1.3 1.3zm-9.5-3.2c-.7 0-1.3-.6-1.3-1.3s.6-1.3 1.3-1.3c.7 0 1.3.6 1.3 1.3s-.6 1.3-1.3 1.3zm3.2 0c-.7 0-1.3-.6-1.3-1.3s.6-1.3 1.3-1.3c.7 0 1.3.6 1.3 1.3s-.6 1.3-1.3 1.3zm3.2 0c-.7 0-1.3-.6-1.3-1.3s.6-1.3 1.3-1.3c.7 0 1.3.6 1.3 1.3s-.6 1.3-1.3 1.3zm3.2 0c-.7 0-1.3-.6-1.3-1.3s.6-1.3 1.3-1.3c.7 0 1.3.6 1.3 1.3s-.6 1.3-1.3 1.3zm3.1 6.4c-.7 0-1.3-.6-1.3-1.3 0-.7.6-1.3 1.3-1.3.7 0 1.3.6 1.3 1.3.1.7-.5 1.3-1.3 1.3zm0-3.2c-.7 0-1.3-.6-1.3-1.3 0-.7.6-1.3 1.3-1.3.7 0 1.3.6 1.3 1.3.1.7-.5 1.3-1.3 1.3zm20 19.6V34s0 1.5-1.5 1.5h-5.8v6.1c0 .3-.2.6-.3.7l-.1.1-.6.3h-2.1c-.3 0-.5-.1-.6-.3l-.1-.1c-.2-.2-.3-.4-.3-.7v-6.1h-5.8c-1.5 0-1.5-1.5-1.5-1.5v-1.5c0-1.5 1.5-1.5 1.5-1.5h5.8v-5.8s0-.2.1-.4c0-.2.1-.4.3-.6l.1-.1c.2-.1.4-.3.7-.3h1.7c.3 0 .5.2.7.3l.1.1c.1.1.2.3.3.6 0 .2.1.4.1.4V31h5.8s1.5 0 1.5 1.5" fill="#f29018"/><path d="M66.3 44.8c-6.3 4.4-15.1 2.8-19.4-3.6s-2.8-15.1 3.6-19.4c6.3-4.4 15.1-2.8 19.4 3.6 4.3 6.3 2.7 15-3.6 19.4m8.3-22.7c-6.2-9-18.5-11.2-27.5-5-9 6.2-11.2 18.5-5 27.5 5.5 8 15.8 10.7 24.4 6.8l7.7 11.1c1.1 1.6 3.3 2 5 .9 1.6-1.1 2-3.3.9-4.9l-7.7-11.1c6.6-6.7 7.8-17.3 2.2-25.3M86 26.5v-2.2l9.2-12.6h-8.4V9h12.3v2.2l-9 12.6h9.6v2.6H86zm22.6.4c-4.3 0-6-3.1-6-7.2s2-7.1 6-7.1c4.3 0 6 3 6 7.1 0 4-2 7.2-6 7.2zm0-11.8c-2 0-3 1.4-3 4.5s1 4.7 3 4.7 3-1.4 3-4.5-1-4.7-3-4.7zm17.2.2c-1.6 0-2.8.3-3.8 1.4v9.8h-2.9V16.2l-.4-3.2 2.9-.4.2 1.9c.8-1 2-1.9 4-1.9v2.7zm12.6-.5c.4.7.6 1.5.6 2.3 0 2.6-1.9 4.7-5 4.7-.6 0-1-.1-1.5-.2-.1.1-.3.2-.4.3-.2.2-.3.6-.3 1 0 .8.6 1 1.4 1h4.1c2.4 0 3.7.8 3.7 2.9 0 2.8-2.6 5.9-7.7 5.9-3.1 0-4.8-1.3-4.8-3.7 0-1.1.4-1.9.9-2.4.3-.3.6-.6.9-.8-.6-.4-1-1-1-2.1 0-.9.4-1.6.9-2 .3-.3.6-.5.9-.7-1.3-.8-2-2.2-2-3.9 0-2.7 1.9-4.7 5-4.7 1.1 0 2 .2 2.8.7l4.3-.6v2.3h-2.8zm-1.8 11.6h-4.2c-.2 0-.4 0-.6-.1-.2.1-.3.3-.4.5-.2.3-.4.8-.4 1.5 0 1.4.9 2.2 2.7 2.2 3 0 4.7-1.7 4.7-3.1 0-.8-.6-1-1.8-1zM134 14.6c-1.3 0-2.3.9-2.3 2.5 0 1.7.9 2.5 2.3 2.5 1.3 0 2.3-.9 2.3-2.5s-.9-2.5-2.3-2.5zm11 11.9V10.3l-.4-3.2 3.4-.4v19.9h-3zm8.8.5l-5.8-7.7 4.8-6.4h3.3l-4.6 6.1 5.4 7.1-3.1.9zm13.2-.2l-.2-1.6c-.9.8-1.9 1.7-3.6 1.7-2.2 0-3.6-1.4-3.6-3.6 0-2.6 1.9-3.7 4.7-4l2.2-.2V18c0-1.7-.6-2.8-2.6-2.8-1.1 0-1.9.3-2.7.8l-1.1-2.1c1.3-.8 2.6-1.3 4.4-1.3 3 0 4.8 1.7 4.8 4.5v6.2l.5 3.2-2.8.3zm-.5-5.9l-1.7.2c-1.5.2-2.3.7-2.3 1.8 0 1 .6 1.7 1.6 1.7 1.1 0 1.8-.5 2.4-1v-2.7zm14.9 5.9l-.2-1.6c-.9.8-1.9 1.7-3.6 1.7-2.2 0-3.6-1.4-3.6-3.6 0-2.6 1.9-3.7 4.7-4l2.2-.2V18c0-1.7-.6-2.8-2.6-2.8-1.1 0-1.9.3-2.7.8l-1.1-2.1c1.3-.8 2.6-1.3 4.4-1.3 3 0 4.8 1.7 4.8 4.5v6.2l.5 3.2-2.8.3zm-.5-5.9l-1.7.2c-1.5.2-2.3.7-2.3 1.8 0 1 .6 1.7 1.6 1.7 1.1 0 1.8-.5 2.4-1v-2.7zm15.1-5.6c-1.6 0-2.8.3-3.8 1.4v9.8h-2.9V16.2l-.4-3.2 2.9-.4.2 1.9c.8-1 2-1.9 4-1.9v2.7zm11.8 10.6c-1 .6-1.9.9-3.5.9-2.4 0-3.7-1.5-3.7-4.1v-7.5h-2.1v-2l2.1-.4v-2.3l2.9-.3v2.7h3.8v2.4h-3.8V22c0 1.8.5 2.3 1.7 2.3.7 0 1.1-.2 1.7-.5l.9 2.1zM97.9 50.3l-8.7-15 .1 14.7h-1.8V32.5h2.3L98.2 47l-.1-14.5h1.8v17.4l-2 .4zm16-1c-1.2.7-2.6 1-4.2 1-3.8 0-5.9-2.7-5.9-7.1 0-4.2 2.1-7.1 5.5-7.1 3.1 0 4.4 2 4.4 4.9v1.7h-8.1c0 4 1.3 6 4.6 6 1.1 0 2-.3 3-.8l.7 1.4zm-1.9-8c0-2.2-.8-3.6-2.8-3.6-1.9 0-3.1 1.4-3.4 3.6h6.2zm13.5 9l-.2-1.4c-1 .9-2.2 1.5-3.7 1.5-2.8 0-5-2.3-5-6.4 0-4.6 2.3-7.6 6.5-7.6.6 0 1.1 0 1.5.1.2 0 .4.1.6.1v-3.1l-.4-2.9 2.2-.3v16.9l.4 2.8-1.9.3zm-.5-12l-.6-.2c-.4-.1-1-.2-1.7-.2-2.9 0-4.3 2.5-4.3 5.2 0 3.5.9 5.6 3.7 5.6 1.2 0 2.1-.5 2.9-1.2v-9.2zm15.8 11c-1.2.7-2.6 1-4.2 1-3.8 0-5.9-2.7-5.9-7.1 0-4.2 2.1-7.1 5.5-7.1 3.1 0 4.4 2 4.4 4.9v1.7h-8.1c0 4 1.3 6 4.6 6 1.1 0 2-.3 3-.8l.7 1.4zm-2-8c0-2.2-.8-3.6-2.8-3.6-1.9 0-3.1 1.4-3.4 3.6h6.2zm11.1-3.1c-1.5 0-2.8.5-3.8 1.4V50h-1.8V39.5l-.4-2.9 1.9-.3.2 1.8c1-1 2.2-1.9 3.9-1.9v2zm2.9 11.8V33.4l-.4-2.9 2.2-.3V50h-1.8zm13.2.3l-.2-1.6c-1 1-2.1 1.7-3.7 1.7-2.3 0-3.6-1.4-3.6-3.5 0-2.4 1.9-3.5 4.7-3.8l2.6-.3v-1.3c0-2.1-.6-3.5-3-3.5-1.2 0-2 .3-2.9.8l-.7-1.4c1.2-.7 2.4-1.1 4-1.1 2.5 0 4.4 1.5 4.4 4.2v6.7l.4 2.9-2 .2zm-.3-6.1l-2.4.3c-2 .3-3 .8-3 2.2 0 1.2.8 2 2 2 1.5 0 2.5-.7 3.4-1.5v-3zm14.7 5.8v-8.9c0-2.2-.8-3.3-2.8-3.3-1.4 0-2.4.6-3.3 1.4V50h-1.8V39.5l-.4-2.9 1.9-.3.2 1.6c1.1-1 2.4-1.7 4-1.7 2.3 0 4.1 1.5 4.1 4.2V50h-1.9zm14.6.3l-.2-1.4c-1 .9-2.2 1.5-3.7 1.5-2.8 0-5-2.3-5-6.4 0-4.6 2.3-7.6 6.5-7.6.6 0 1.1 0 1.5.1.2 0 .4.1.6.1v-3.1l-.4-2.9 2.2-.3v16.9l.4 2.8-1.9.3zm-.5-12l-.6-.2c-.4-.1-1-.2-1.7-.2-2.9 0-4.3 2.5-4.3 5.2 0 3.5.9 5.6 3.7 5.6 1.2 0 2.1-.5 2.9-1.2v-9.2zm-106 22.9h-.2v2.9h-1v-7.3c.2 0 .4 0 .6-.1.4 0 .8-.1 1.3-.1 1.4 0 2.4.7 2.4 1.9-.1 1.9-1.5 2.7-3.1 2.7zm.5-3.7h-.7v2.9h.2c1.1 0 2.1-.5 2.1-1.6-.1-.9-.7-1.3-1.6-1.3zm6.3 6.8l-.1-.7c-.4.4-.9.7-1.6.7-1 0-1.5-.6-1.5-1.5 0-1 .8-1.5 2-1.6l1-.1v-.5c0-.8-.3-1.4-1.2-1.4-.5 0-.8.1-1.2.3l-.4-.7c.5-.3 1-.5 1.8-.5 1.2 0 1.9.7 1.9 1.8v2.7l.2 1.3-.9.2zm-.2-2.5l-.9.1c-.7.1-1.1.3-1.1.9 0 .5.3.8.8.8.6 0 .9-.2 1.2-.5v-1.3zm5.7 2.2c-.4.2-.7.4-1.3.4-.9 0-1.4-.6-1.4-1.6v-3.5h-.8v-.6l.8-.2v-1l1-.1v1.1h1.6v.8H99v3.2c0 .8.2 1 .8 1 .3 0 .5-.1.7-.2l.3.7zm1.7-6.3c-.4 0-.7-.3-.7-.7 0-.4.3-.7.7-.7.4 0 .7.3.7.7 0 .4-.3.7-.7.7zm-.5 6.5v-4.4l-.2-1.3 1.1-.2v5.8h-.9zm6.8-.3c-.5.3-1.1.4-1.8.4-1.7 0-2.6-1.1-2.6-3 0-1.8.9-3 2.4-3 1.4 0 1.9.9 1.9 2.2v.7h-3.4c0 1.5.6 2.3 1.8 2.3.5 0 .8-.1 1.3-.3l.4.7zm-3.2-6.2c-.4 0-.6-.3-.6-.6 0-.4.3-.6.6-.6.4 0 .6.3.6.6s-.3.6-.6.6zm2.2 2.8c0-.9-.3-1.4-1.1-1.4-.7 0-1.2.6-1.3 1.4h2.4zm-.2-2.8c-.4 0-.6-.3-.6-.6 0-.4.3-.6.6-.6.4 0 .6.3.6.6s-.3.6-.6.6zm5.9 6.5v-3.7c0-.8-.3-1.3-1.1-1.3-.5 0-.9.2-1.3.6v4.4h-1v-4.4l-.2-1.3 1-.2.1.7c.4-.4 1-.7 1.7-.7 1 0 1.7.6 1.7 1.8v4.1h-.9zm5.6-.2c-.4.2-.7.4-1.3.4-.9 0-1.4-.6-1.4-1.6v-3.5h-.8v-.6l.8-.2v-1l1-.1v1.1h1.6v.8h-1.6v3.2c0 .8.2 1 .8 1 .3 0 .5-.1.7-.2l.2.7zm5-.1c-.5.3-1.1.4-1.8.4-1.7 0-2.6-1.1-2.6-3 0-1.8.9-3 2.4-3 1.4 0 1.9.9 1.9 2.2v.7h-3.4c0 1.5.6 2.3 1.8 2.3.5 0 .8-.1 1.3-.3l.4.7zm-1-3.4c0-.9-.3-1.4-1.1-1.4-.7 0-1.2.6-1.3 1.4h2.4zm5.7 3.7v-3.7c0-.8-.3-1.3-1.1-1.3-.5 0-.9.2-1.3.6v4.4h-1v-4.4l-.2-1.3 1-.2.1.7c.4-.4 1-.7 1.7-.7 1 0 1.7.6 1.7 1.8v4.1h-.9zm5.4-7.4c-.2-.1-.3-.1-.6-.1-.6 0-1 .3-1 1.1v.7h1.6v.8h-1.6v4.9h-1v-4.9h-.8v-.7l.8-.2v-.6c0-1.2.8-2 2-2 .3 0 .5 0 .7.1l-.1.9zm4.8 7.1c-.5.3-1.1.4-1.8.4-1.7 0-2.6-1.1-2.6-3 0-1.8.9-3 2.4-3 1.4 0 1.9.9 1.9 2.2v.7h-3.4c0 1.5.6 2.3 1.8 2.3.5 0 .8-.1 1.3-.3l.4.7zm-1-3.4c0-.9-.3-1.4-1.1-1.4-.7 0-1.2.6-1.3 1.4h2.4zm5.7 3.8l-.1-.6c-.4.3-.9.6-1.5.6-1.3 0-2.1-1-2.1-2.7 0-2 1-3.2 2.8-3.2.3 0 .6 0 .8.1v-1.2l-.2-1.3 1.1-.2v7.1l.2 1.3-1 .1zm-.2-4.9c-.2-.1-.5-.2-.9-.2-1.1 0-1.7 1-1.7 2.1 0 1.4.4 2.2 1.4 2.2.5 0 .8-.2 1.1-.4v-3.7zm6.8 4.5c-.5.3-1.1.4-1.8.4-1.7 0-2.6-1.1-2.6-3 0-1.8.9-3 2.4-3 1.4 0 1.9.9 1.9 2.2v.7h-3.4c0 1.5.6 2.3 1.8 2.3.5 0 .8-.1 1.3-.3l.4.7zm-1-3.4c0-.9-.3-1.4-1.1-1.4-.7 0-1.2.6-1.3 1.4h2.4zm4.9-1.2c-.7 0-1.1.2-1.6.6v4.3h-1v-4.4l-.2-1.3 1-.2.1.8c.4-.4.9-.8 1.7-.8v1zm3.6 5l-.1-.7c-.4.4-.9.7-1.6.7-1 0-1.5-.6-1.5-1.5 0-1 .8-1.5 2-1.6l1-.1v-.5c0-.8-.3-1.4-1.2-1.4-.5 0-.8.1-1.2.3l-.4-.7c.5-.3 1-.5 1.8-.5 1.2 0 1.9.7 1.9 1.8v2.7l.2 1.3-.9.2zm-.2-2.5l-.9.1c-.7.1-1.1.3-1.1.9 0 .5.3.8.8.8.6 0 .9-.2 1.2-.5v-1.3zm5.7 2.2c-.4.2-.7.4-1.3.4-.9 0-1.4-.6-1.4-1.6v-3.5h-.8v-.6l.8-.2v-1l1-.1v1.1h1.6v.8h-1.6v3.2c0 .8.2 1 .8 1 .3 0 .5-.1.7-.2l.2.7zm1.7-6.3c-.4 0-.7-.3-.7-.7 0-.4.3-.7.7-.7.4 0 .7.3.7.7 0 .4-.3.7-.7.7zm-.5 6.5v-4.4l-.2-1.3 1.1-.2v5.8h-.9zm6.8-.3c-.5.3-1.1.4-1.8.4-1.7 0-2.6-1.1-2.6-3 0-1.8.9-3 2.4-3 1.4 0 1.9.9 1.9 2.2v.7h-3.4c0 1.5.6 2.3 1.8 2.3.5 0 .8-.1 1.3-.3l.4.7zm-.9-3.4c0-.9-.3-1.4-1.1-1.4-.7 0-1.2.6-1.3 1.4h2.4zm9.1 3.8l-3.5-5.9.1 5.8h-1v-7.4h1.1l3.4 5.7-.1-5.7h1v7.3l-1 .2zm6.8-.4c-.5.3-1.1.4-1.8.4-1.7 0-2.6-1.1-2.6-3 0-1.8.9-3 2.4-3 1.4 0 1.9.9 1.9 2.2v.7h-3.4c0 1.5.6 2.3 1.8 2.3.5 0 .8-.1 1.3-.3l.4.7zm-.9-3.4c0-.9-.3-1.4-1.1-1.4-.7 0-1.2.6-1.3 1.4h2.4zm5.6 3.8l-.1-.6c-.4.3-.9.6-1.5.6-1.3 0-2.1-1-2.1-2.7 0-2 1-3.2 2.8-3.2.3 0 .6 0 .8.1v-1.2l-.2-1.3 1.1-.2v7.1l.2 1.3-1 .1zm-.2-4.9c-.2-.1-.5-.2-.9-.2-1.1 0-1.7 1-1.7 2.1 0 1.4.4 2.2 1.4 2.2.5 0 .8-.2 1.1-.4v-3.7zm6.8 4.5c-.5.3-1.1.4-1.8.4-1.7 0-2.6-1.1-2.6-3 0-1.8.9-3 2.4-3 1.4 0 1.9.9 1.9 2.2v.7h-3.4c0 1.5.6 2.3 1.8 2.3.5 0 .8-.1 1.3-.3l.4.7zm-1-3.4c0-.9-.3-1.4-1.1-1.4-.7 0-1.2.6-1.3 1.4h2.4zm4.9-1.2c-.7 0-1.1.2-1.6.6v4.3h-1v-4.4l-.2-1.3 1-.2.1.8c.4-.4.9-.8 1.7-.8v1zm1 4.9v-6.9l-.2-1.3 1.1-.2v8.3h-.9zm5.6.1l-.1-.7c-.4.4-.9.7-1.6.7-1 0-1.5-.6-1.5-1.5 0-1 .8-1.5 2-1.6l1-.1v-.5c0-.8-.3-1.4-1.2-1.4-.5 0-.8.1-1.2.3l-.4-.7c.5-.3 1-.5 1.8-.5 1.2 0 1.9.7 1.9 1.8v2.7l.2 1.3-.9.2zm-.2-2.5l-.9.1c-.7.1-1.1.3-1.1.9 0 .5.3.8.8.8.6 0 .9-.2 1.2-.5v-1.3zm6.2 2.4v-3.7c0-.8-.3-1.3-1.1-1.3-.5 0-.9.2-1.3.6v4.4h-1v-4.4l-.2-1.3 1-.2.1.7c.4-.4 1-.7 1.7-.7 1 0 1.7.6 1.7 1.8v4.1h-.9zm6.1.1l-.1-.6c-.4.3-.9.6-1.5.6-1.3 0-2.1-1-2.1-2.7 0-2 1-3.2 2.8-3.2.3 0 .6 0 .8.1v-1.2l-.2-1.3 1.1-.2v7.1l.2 1.3-1 .1zm-.2-4.9c-.2-.1-.5-.2-.9-.2-1.1 0-1.7 1-1.7 2.1 0 1.4.4 2.2 1.4 2.2.5 0 .8-.2 1.1-.4v-3.7z" fill="#110e72"/></svg>