<svg width="208" height="32" viewBox="0 0 208 32" fill="none" xmlns="http://www.w3.org/2000/svg">
<path d="M162.823 2.03142C161.462 2.15873 160.274 2.73159 159.267 3.7682C159.076 3.96825 158.922 4.1592 158.922 4.20467C158.922 4.24104 158.895 4.2956 158.859 4.31379C158.659 4.39562 158.006 5.63228 157.716 6.47794C157.208 7.93283 157.072 10.8972 157.434 12.4339C157.716 13.6251 157.752 13.716 158.224 14.7345C158.46 15.2528 159.022 16.1166 159.113 16.1166C159.158 16.1166 159.194 16.1621 159.194 16.2075C159.194 16.3894 160.374 17.4897 161.036 17.9352C161.217 18.0625 161.372 18.1807 161.372 18.208C161.372 18.3171 160.029 20.9177 159.92 21.0269C159.893 21.0541 159.82 21.1724 159.757 21.2997C159.693 21.427 159.566 21.6452 159.467 21.7998C159.367 21.9453 159.258 22.1362 159.222 22.209C159.194 22.2817 159.14 22.3635 159.113 22.3908C159.086 22.4181 158.931 22.6182 158.786 22.8455C158.632 23.0728 158.487 23.2638 158.45 23.2819C158.405 23.3001 158.378 23.3729 158.378 23.4456C158.378 23.5184 158.351 23.5729 158.305 23.5729C158.269 23.5729 158.033 23.8457 157.788 24.1731C157.262 24.8732 156.382 25.7098 155.711 26.1463C154.477 26.9465 153.153 26.8737 152.282 25.9553C151.447 25.0824 151.048 23.6639 150.839 20.845C150.721 19.2173 150.785 11.6337 150.93 10.6608C150.985 10.2879 151.066 9.58777 151.121 9.11493C151.248 7.85099 151.465 6.22333 151.565 5.75049C151.62 5.52316 151.656 4.9503 151.665 4.47746C151.665 3.69546 151.638 3.57725 151.438 3.26808C151.066 2.73159 150.649 2.56791 149.597 2.56791C148.608 2.56791 148.118 2.7134 147.646 3.15897C147.056 3.72274 146.902 4.15011 146.449 6.56887C146.304 7.35087 146.122 8.2329 145.95 9.06947C145.895 9.31498 145.814 9.70598 145.768 9.93331C145.696 10.3334 145.605 10.688 145.224 12.2066C145.115 12.634 144.988 13.1432 144.943 13.3432C144.897 13.5433 144.816 13.807 144.78 13.9343C144.734 14.0616 144.607 14.4708 144.498 14.8436C144.19 15.8893 143.509 17.9443 143.364 18.2535C143.301 18.399 143.11 18.8718 142.947 19.2992C142.376 20.8268 141.414 22.8091 140.779 23.7639C140.579 24.064 140.416 24.3549 140.416 24.4004C140.416 24.4459 140.38 24.4822 140.343 24.4822C140.307 24.4822 140.198 24.6186 140.099 24.7823C140.008 24.9369 139.618 25.3824 139.246 25.7553C138.148 26.8464 137.422 26.9828 136.615 26.2554C136.252 25.9189 135.708 24.9187 135.49 24.164C135.327 23.6366 135.127 22.6454 134.955 21.6179C134.792 20.6268 134.792 13.5887 134.955 12.1156C135.009 11.5428 135.109 10.6608 135.164 10.1606C135.445 7.62367 135.762 4.97758 135.826 4.70479C135.907 4.37744 135.644 3.38629 135.418 3.14078C134.991 2.69522 134.601 2.56791 133.621 2.56791C132.959 2.56791 132.614 2.61338 132.369 2.7225C131.998 2.88617 131.435 3.36811 131.435 3.5136C131.435 3.55906 131.381 3.66818 131.317 3.74092C131.063 4.04099 130.891 4.87756 130.564 7.29632C130.102 10.7608 129.956 13.3432 130.011 17.2078C130.056 20.6177 130.12 21.4542 130.528 23.482C130.873 25.1824 131.036 25.8098 131.308 26.4645C131.381 26.6282 131.435 26.801 131.435 26.8555C131.435 27.101 132.333 28.7742 132.741 29.3016C133.322 30.0381 133.404 30.1199 133.894 30.4564C135.844 31.7931 138.302 31.5294 140.561 29.7562C142.874 27.9285 144.607 25.1187 146.421 20.1812C146.476 20.0448 146.539 19.9448 146.558 19.9721C146.576 19.9903 146.675 20.7723 146.766 21.7088C146.857 22.6545 146.975 23.6093 147.029 23.8366C147.075 24.064 147.183 24.5823 147.274 24.9824C147.637 26.6737 148.517 28.8014 149.134 29.4743C149.279 29.638 149.397 29.7835 149.397 29.8108C149.397 29.9199 150.041 30.4291 150.531 30.7019C151.901 31.4839 153.579 31.493 155.439 30.7383C155.829 30.5837 156.355 30.3382 156.591 30.1927C156.827 30.0563 157.063 29.9381 157.108 29.9381C157.162 29.9381 157.199 29.8926 157.199 29.8472C157.199 29.7926 157.271 29.7198 157.362 29.6926C158.006 29.4561 160.265 27.2374 161.508 25.6189C161.807 25.2279 162.106 24.8641 162.17 24.7914C162.224 24.7277 162.279 24.655 162.279 24.6186C162.279 24.5914 162.379 24.4277 162.506 24.264C162.732 23.9639 163.649 22.5272 163.757 22.2908C163.794 22.2181 163.903 22.0362 163.993 21.8907C164.093 21.7361 164.383 21.1724 164.656 20.6359L165.136 19.6538L165.499 19.7084C166.098 19.7902 167.522 19.9175 168.565 19.9812L169.554 20.0448L169.509 20.2903C168.828 23.8184 168.701 25.5007 168.992 27.3284C169.246 28.9924 170.044 30.3473 171.078 30.8747C171.55 31.1111 172.403 31.2929 173.047 31.302C173.582 31.302 174.652 31.0838 174.843 30.9383C174.897 30.9019 175.033 30.8383 175.16 30.8019C175.287 30.7656 175.56 30.6201 175.777 30.4746C175.995 30.3291 176.195 30.2109 176.222 30.2109C176.358 30.2109 177.365 29.3561 178.1 28.6105C178.898 27.8103 179.279 27.3375 180.939 25.0642C181.066 24.8914 181.229 24.6277 181.565 24.0276C181.747 23.7002 181.955 23.3456 182.028 23.2274L182.155 23.0182L182.49 23.4547C182.672 23.6911 182.844 23.9094 182.871 23.9366C182.899 23.9639 183.071 24.1822 183.252 24.4368C183.906 25.3461 184.414 26.5191 184.414 27.1101V27.392L183.071 27.3284C181.846 27.2829 181.701 27.292 181.311 27.4557C180.449 27.8376 179.968 28.5468 179.968 29.4107C179.968 30.4382 180.694 31.3384 181.919 31.8113C182.554 32.0568 184.541 32.0659 185.139 31.8203C185.856 31.5385 186.409 31.2566 186.409 31.1929C186.409 31.1475 186.464 31.1202 186.536 31.1202C186.6 31.1202 186.709 31.0565 186.772 30.9838C186.845 30.8929 187.063 30.8474 187.398 30.8383C188.695 30.8201 190.138 30.4109 191.263 29.7289C191.499 29.5925 192.206 29.0379 192.415 28.8287C192.56 28.6832 192.85 28.6923 192.85 28.8378C192.85 28.8924 193.141 29.1924 193.739 29.7653C193.957 29.9654 194.773 30.4473 195.036 30.5291C195.154 30.5655 195.3 30.6292 195.345 30.6655C195.499 30.7746 196.406 31.0474 196.932 31.1384C197.821 31.2929 199.463 31.3293 200.189 31.2111C201.024 31.0747 202.203 30.7746 202.33 30.6564C202.375 30.611 202.475 30.5746 202.557 30.5746C202.784 30.5746 204.562 29.6198 204.625 29.4652C204.643 29.4289 204.698 29.3925 204.743 29.3925C204.825 29.3925 205.233 29.1288 205.523 28.8924C205.578 28.8378 205.786 28.6741 205.977 28.5287C207.456 27.3556 208.009 26.4372 208 25.146C207.991 24.5004 207.701 23.8548 207.338 23.682C206.884 23.4638 206.603 23.6184 205.659 24.5641C204.68 25.537 204.48 25.7189 203.691 26.2645C202.72 26.9374 201.813 27.3647 200.47 27.7648C200.235 27.8376 199.663 27.8921 199.11 27.8921C198.085 27.883 197.586 27.7648 196.942 27.3556C196.561 27.1101 196.007 26.4918 196.08 26.3827C196.107 26.3372 196.27 26.2827 196.461 26.2463C196.642 26.2099 196.942 26.1372 197.114 26.0735C197.286 26.0099 197.658 25.8826 197.93 25.8007C198.484 25.6371 198.738 25.5279 199.745 25.046C201.895 24.0185 203.165 22.3181 203.337 20.2358C203.491 18.2989 202.693 16.5985 201.314 15.9438C201.078 15.8347 200.806 15.7074 200.724 15.6619C200.389 15.4801 199.055 15.3892 198.148 15.4801C196.932 15.6074 196.089 15.9166 195.027 16.6167C194.438 17.0077 193.558 17.817 193.304 18.208C193.231 18.3171 193.104 18.499 193.023 18.6081C192.542 19.2355 191.907 20.6177 191.635 21.6179C191.453 22.2908 191.326 23.8275 191.381 24.8096L191.417 25.537L190.8 26.1099C190.129 26.7282 189.167 27.392 188.949 27.392C188.841 27.392 188.813 27.2465 188.813 26.6464C188.813 26.2281 188.759 25.6825 188.704 25.4279C188.596 24.9733 188.079 23.9185 187.933 23.8639C187.897 23.8457 187.861 23.7821 187.861 23.7184C187.861 23.6184 187.779 23.4911 187.407 23.0546C187.362 22.991 187.317 22.9273 187.317 22.9C187.317 22.8728 186.936 22.3545 186.473 21.7361C185.203 20.0448 185.275 20.1994 185.284 19.2082C185.284 18.5808 185.33 18.2717 185.439 18.0716C185.52 17.917 185.593 17.7715 185.593 17.7261C185.593 17.6897 185.702 17.4442 185.829 17.1805C185.956 16.9259 186.119 16.4712 186.201 16.1893C186.319 15.7256 186.319 15.6438 186.192 15.471C185.992 15.18 185.466 15.0254 184.704 15.0254C184.005 15.0254 183.107 15.2255 182.862 15.4437C182.79 15.5165 182.69 15.571 182.654 15.571C182.617 15.571 182.481 15.6801 182.354 15.8165C182.146 16.0439 181.964 16.3985 181.411 17.6351C180.975 18.6263 180.803 18.9809 180.186 20.254C179.288 22.0817 178.562 23.3274 178.091 23.8275C178.027 23.8912 177.973 23.9821 177.973 24.0094C177.973 24.0458 177.882 24.1731 177.764 24.3004C177.655 24.4277 177.437 24.6914 177.292 24.8914C177.138 25.0915 177.002 25.2733 176.975 25.3006C176.948 25.3279 176.784 25.5279 176.612 25.7553C175.786 26.8192 174.761 27.5739 174.163 27.5739C173.7 27.5739 173.373 27.3193 173.156 26.7919C172.992 26.3736 172.974 26.1826 173.011 25.3279C173.047 24.4004 173.219 23.1365 173.419 22.209C173.464 21.9816 173.582 21.4724 173.664 21.0723C173.745 20.6722 173.854 20.163 173.909 19.9357C174.19 18.7172 174.462 16.7077 174.389 16.3257C174.281 15.7074 173.763 15.4437 172.711 15.4437C171.74 15.4528 171.369 15.5619 170.997 15.9166C170.806 16.0984 170.607 16.3348 170.561 16.4258C170.461 16.6076 170.425 16.6076 168.629 16.4621C167.622 16.3894 166.769 16.2894 166.733 16.2439C166.688 16.1984 166.815 15.671 167.005 15.0709C167.205 14.4708 167.359 13.9161 167.359 13.8433C167.359 13.7706 167.413 13.5524 167.486 13.3432C167.604 13.0068 167.731 12.4339 167.994 11.1154C168.311 9.47865 168.32 6.65071 168.003 5.56863C167.713 4.58658 167.422 4.0319 166.86 3.40448C165.853 2.28603 164.646 1.87684 162.823 2.03142ZM163.213 5.95054C163.948 6.34154 164.247 7.67822 164.048 9.66052C163.975 10.3061 163.884 10.9881 163.83 11.1791C163.785 11.37 163.676 11.8065 163.594 12.1611C163.44 12.7885 163.141 13.807 163.004 14.1616C162.968 14.2616 162.896 14.4435 162.85 14.5708L162.76 14.789L162.252 14.3071C161.961 14.0343 161.734 13.7615 161.734 13.6978C161.734 13.6342 161.68 13.5433 161.617 13.5069C161.508 13.4432 161.254 12.9431 161.009 12.343C160.655 11.4519 160.546 9.33317 160.791 8.19653C160.963 7.42362 161.362 6.55068 161.662 6.28698C162.134 5.8687 162.805 5.73231 163.213 5.95054ZM199.273 19.0082C199.427 19.1537 199.627 19.4447 199.699 19.672C199.835 20.0357 199.826 20.1266 199.69 20.6813C199.609 21.0269 199.509 21.2997 199.463 21.2997C199.418 21.2997 199.382 21.3542 199.382 21.4179C199.382 21.5997 198.638 22.3272 198.085 22.6909C197.54 23.0455 196.343 23.5456 195.826 23.6275L195.481 23.6911V23.1274C195.481 22.5545 195.572 22.0635 195.853 21.2087C196.198 20.1176 196.796 19.3265 197.586 18.89C197.704 18.8263 198.066 18.7718 198.393 18.7627C198.919 18.7536 199.019 18.7809 199.273 19.0082Z" fill="#212123"/>
<path d="M57.4827 0.16099C56.6512 0.403204 56.0536 0.766523 55.4041 1.41531C55.0663 1.74403 54.7112 2.116 54.616 2.23711C54.1743 2.79074 53.1696 4.6506 52.5893 6.00007C52.4854 6.23364 52.3642 6.51045 52.3209 6.60561C52.165 6.96893 51.3768 9.40837 51.3768 9.53812C51.3768 9.61598 51.3422 9.74574 51.2989 9.83224C51.2209 9.97065 51.0131 10.827 50.7273 12.1852C50.6493 12.5398 50.5541 13.007 50.5107 13.2232C50.3982 13.7336 50.173 15.2648 50.0777 16.0779C50.0344 16.4326 49.9651 16.9949 49.9132 17.3322C49.7832 18.1973 49.7053 22.0121 49.7919 23.0761L49.8699 23.9844L49.4715 24.3737C48.6833 25.1523 47.7913 25.7751 46.6567 26.3287C45.3403 26.9775 44.4309 27.1938 43.3656 27.1159C42.2137 27.0294 41.287 26.5882 40.8626 25.9222C40.7154 25.7059 40.7154 25.6886 40.8886 25.6021C40.9839 25.5502 41.1311 25.5069 41.2091 25.5069C41.3823 25.5069 42.4129 25.1869 42.6468 25.0658C42.7334 25.0225 42.846 24.9879 42.8893 24.9879C43.0365 24.9879 44.8466 24.1575 44.9678 24.0364C44.9938 24.0104 45.1757 23.8806 45.3749 23.7509C45.8512 23.4222 46.4315 22.8512 46.7433 22.3841C46.8905 22.1765 47.0205 21.9862 47.0464 21.9602C47.1244 21.891 47.3149 21.4412 47.5055 20.8789C47.7653 20.109 47.7653 18.4827 47.4968 17.782C46.778 15.9049 45.1584 15.0485 42.768 15.2994C41.6248 15.4205 40.6461 15.7665 39.7454 16.372C39.5462 16.5104 39.4596 16.5191 39.1305 16.4326C38.914 16.3807 38.4809 16.3374 38.1518 16.3374C37.2251 16.3288 34.7395 16.1038 34.6442 16.0087C34.5922 15.9568 34.6529 15.6454 34.8174 15.1609C35.4497 13.2578 35.7095 12.1679 35.9606 10.2821C36.3331 7.58311 36.0992 5.77516 35.2072 4.39108C34.3844 3.10216 33.2498 2.48797 31.6736 2.47932C30.8594 2.47932 29.4651 2.72154 29.4651 2.85994C29.4651 2.9032 29.4131 2.92915 29.3525 2.92915C29.1793 2.92915 28.599 3.26652 28.062 3.68174C27.6203 4.01911 26.7802 4.97931 26.7802 5.14367C26.7802 5.17828 26.7283 5.27343 26.659 5.34264C26.5983 5.42049 26.4511 5.71461 26.3385 6.00007C26.2346 6.28554 26.1047 6.55371 26.07 6.59696C26.0354 6.64886 26.0008 6.76132 26.0008 6.85647C25.9921 6.96028 25.9401 7.19384 25.8708 7.38415C25.8016 7.57446 25.6976 8.3011 25.6457 9.00179C25.5331 10.4032 25.637 12.116 25.8882 12.9205C26.1047 13.6471 26.5377 14.7284 26.659 14.8755C26.7283 14.9447 26.7802 15.0398 26.7802 15.0744C26.7802 15.109 26.8841 15.2821 27.0141 15.4551C27.5943 16.2336 28.1659 16.8305 28.8242 17.3236C29.2745 17.6696 29.5084 17.8945 29.4824 17.981C29.4218 18.1627 28.8328 19.3997 28.7722 19.4516C28.7462 19.4775 28.599 19.763 28.4344 20.0917C28.2699 20.4118 28.088 20.7232 28.036 20.7838C27.9927 20.8357 27.8975 20.9741 27.8368 21.0952C27.6983 21.3807 27.5597 21.5969 27.2825 21.9689C27.144 22.1419 27.04 22.3149 27.04 22.3409C27.04 22.3755 26.9967 22.4447 26.9534 22.5052C26.9015 22.5658 26.7196 22.808 26.5377 23.0415C25.3599 24.6246 24.1906 25.5934 23.0734 25.9049C22.5624 26.0433 22.5105 26.0433 21.9995 25.9049C21.1594 25.6713 20.7696 25.3512 20.3886 24.5986C19.7996 23.4135 19.6784 22.7734 19.4272 19.5381C19.306 18.0502 19.306 14.4603 19.4186 13.0502C19.4705 12.4533 19.5485 11.4585 19.5918 10.8443C19.7044 9.40837 19.8949 7.78207 20.0595 6.73536C20.3453 4.96201 20.3626 4.78035 20.3193 4.48624C20.1461 3.38762 19.6524 3.01565 18.3619 3.01565C17.1754 3.01565 16.4912 3.32707 16.0149 4.07101C15.7377 4.52084 15.4866 5.48969 15.2614 6.99488C15.2267 7.25439 15.1488 7.64367 15.0968 7.85993C15.0535 8.07619 14.9409 8.56062 14.863 8.94124C14.6378 10.0572 14.4646 10.8097 14.352 11.2769C14.2827 11.5104 14.1528 12.0554 14.0489 12.4879C13.945 12.9118 13.8237 13.3357 13.7804 13.4135C13.7371 13.5001 13.7024 13.6212 13.7024 13.699C13.7024 13.7682 13.6505 13.9931 13.5812 14.1921C13.5119 14.3997 13.3733 14.8582 13.2694 15.2128C13.1655 15.5675 12.9836 16.1298 12.8624 16.4672C12.7498 16.7959 12.6285 17.1506 12.6025 17.2457C12.5852 17.3409 12.5073 17.5312 12.4466 17.6782C12.386 17.8166 12.2734 18.0935 12.2041 18.2838C12.0049 18.8028 11.7105 19.5554 11.6239 19.7544C11.5806 19.8495 11.442 20.1609 11.3207 20.4464C10.9656 21.2336 10.6365 21.9083 10.5759 21.9602C10.5499 21.9862 10.4893 22.0986 10.4547 22.2197C10.42 22.3409 10.3594 22.4533 10.3334 22.4793C10.3074 22.5052 10.1255 22.7734 9.94367 23.0848C9.01697 24.6159 8.02098 25.6453 7.24151 25.8962C6.79981 26.0346 6.76517 26.0346 6.41007 25.8703C6.20222 25.7751 5.93373 25.5934 5.80382 25.4723C5.52668 25.2042 4.92042 24.0018 4.78185 23.4308C4.47872 22.2544 4.32283 21.2682 4.16693 19.4948C4.01104 17.7907 4.15827 13.2578 4.43542 10.9309C4.47872 10.4983 4.56533 9.78034 4.60863 9.33051C4.69524 8.52602 4.85113 7.3582 5.04167 6.00007C5.1023 5.61945 5.12828 5.00527 5.1023 4.6333C5.05033 3.85475 4.83381 3.48278 4.2622 3.18866C3.7772 2.9378 2.36549 2.9378 1.82852 3.18866C1.26557 3.43953 1.09236 3.61254 0.815213 4.18347C0.572711 4.69385 0.425478 5.35129 0.148333 7.25439C-0.0508648 8.62982 -0.0508648 22.5744 0.156994 23.3703C0.460121 24.5813 0.572711 24.9793 0.823874 25.7232C1.35218 27.3322 2.07103 28.5 3.03237 29.3305C3.9764 30.1523 5.6306 30.5588 6.80847 30.2561C7.51865 30.0744 8.33277 29.7976 8.33277 29.7284C8.33277 29.6938 8.38473 29.6592 8.44536 29.6592C8.81777 29.6592 10.905 27.8685 11.5199 27.0208C11.6239 26.8737 11.8317 26.6055 11.979 26.4152C12.1262 26.2249 12.3514 25.8962 12.4726 25.6799C12.5939 25.4637 12.7238 25.2734 12.7498 25.2474C12.9749 25.0398 14.4126 22.0467 14.8717 20.8357C14.9496 20.6194 15.0709 20.3166 15.1401 20.1609C15.2094 20.0052 15.2614 19.8236 15.2614 19.763C15.2614 19.6938 15.322 19.6246 15.3913 19.59C15.5039 19.5554 15.5212 19.6592 15.5212 20.2561C15.5299 20.9222 15.5645 21.2595 15.7724 22.8253C15.9456 24.0537 16.3873 25.7405 16.7943 26.718C17.0282 27.2889 17.4699 28.1194 17.5738 28.2059C17.6344 28.2578 17.6864 28.3443 17.6864 28.3962C17.6951 28.5692 18.7603 29.5467 19.2453 29.8149C20.172 30.3253 21.3759 30.481 22.5364 30.2301C23.1947 30.0917 24.0348 29.8322 24.0954 29.7457C24.1214 29.7111 24.234 29.6505 24.3465 29.6159C24.4591 29.5813 24.7882 29.4083 25.0654 29.2353C25.3512 29.0623 25.6803 28.872 25.7929 28.8114C25.9055 28.7509 26.0008 28.6644 26.0008 28.6125C26.0008 28.5692 26.0527 28.5346 26.122 28.5346C26.1913 28.5346 26.2606 28.5087 26.2779 28.4654C26.2952 28.4308 26.5724 28.1713 26.9101 27.8858C28.3045 26.6834 29.6296 25.1436 30.9028 23.2492C31.3011 22.6436 31.6303 22.1246 31.6303 22.0813C31.6303 22.0467 31.6822 21.9516 31.7515 21.8824C31.8641 21.7613 32.0287 21.4499 32.9467 19.7025L33.2065 19.2094L33.6222 19.3218C33.8474 19.3824 34.523 19.4602 35.1119 19.4862C37.0779 19.59 37.1212 19.6073 36.8873 20.0571C36.7488 20.3166 36.437 21.4672 36.3157 22.1851C36.0473 23.7076 36.3417 25.7751 37.0259 27.0554C37.3723 27.7128 38.2731 28.7941 38.4636 28.7941C38.5156 28.7941 38.5589 28.8287 38.5589 28.8806C38.5589 29.0104 39.6848 29.6246 40.3776 29.8668C41.6854 30.3166 43.5042 30.481 44.7427 30.2561C45.3056 30.1609 46.5701 29.8408 46.7866 29.7457C46.8559 29.7111 47.0551 29.6246 47.2197 29.5467C47.3842 29.4689 47.618 29.3651 47.7393 29.3132C47.8605 29.2613 48.0771 29.1488 48.2156 29.0536C48.3629 28.9585 48.5361 28.8547 48.6054 28.8201C48.6747 28.7855 48.9605 28.6038 49.2376 28.4135C49.5234 28.2145 49.8179 28.0156 49.8872 27.9723C49.9651 27.9204 50.1557 27.7647 50.3202 27.6263C50.7619 27.237 50.8399 27.2111 50.9091 27.4273C51.0824 27.9983 52.1303 29.2613 52.7192 29.6419C54.1656 30.5502 56.3654 30.5848 58.2188 29.7111C58.4354 29.6073 58.6259 29.5035 58.6346 29.4602C58.6519 29.4256 58.7125 29.3997 58.7645 29.3997C58.9204 29.3997 60.1329 28.4654 60.7824 27.8599C61.0942 27.5658 61.3887 27.3408 61.432 27.3754C61.484 27.4014 61.5532 27.5139 61.6052 27.609C61.839 28.154 62.6445 29.1488 63.0862 29.4516C63.2941 29.59 63.4759 29.7284 63.4846 29.763C63.5019 29.8062 63.5625 29.8322 63.6145 29.8322C63.6751 29.8322 63.831 29.8927 63.9696 29.9619C64.6365 30.308 66.2214 30.4637 67.1135 30.2561C67.7111 30.1263 68.3346 29.9273 68.785 29.7284C69.2094 29.5381 70.1101 28.9671 70.1534 28.8633C70.1707 28.8201 70.2227 28.7941 70.2573 28.7941C70.3006 28.7941 70.4652 28.673 70.6211 28.5346C70.777 28.3876 70.9242 28.2751 70.9502 28.2751C70.9848 28.2751 71.0714 28.5 71.158 28.7682C71.3053 29.2526 71.6171 29.7543 71.9029 29.9879C72.5697 30.5329 73.9295 30.4377 74.4751 29.8062C74.6916 29.5467 75.0207 28.872 75.0207 28.673C75.0207 28.6038 75.0554 28.526 75.0987 28.5C75.142 28.4741 75.2026 28.301 75.2373 28.128C75.2632 27.9464 75.3499 27.6004 75.4191 27.3668C75.4884 27.1246 75.6097 26.718 75.6876 26.4585C75.7569 26.199 75.8782 25.8616 75.9388 25.7059C76.0081 25.5588 76.06 25.4031 76.06 25.3685C76.06 25.109 77.567 21.9948 77.8355 21.7007C77.9048 21.6229 77.9654 21.5191 77.9654 21.4672C77.9654 21.4153 78.0001 21.3547 78.0347 21.3374C78.0693 21.3201 78.2772 21.0865 78.4851 20.8184C79.0134 20.135 79.5417 19.9706 79.6629 20.455C79.7149 20.6454 79.5417 22.09 79.3511 23.0848C78.7968 26 78.7276 26.8564 78.9527 27.8945C79.4204 30.0657 81.3258 30.8529 84.1579 30.0311C85.0239 29.7803 85.942 29.2353 86.938 28.3962C87.2411 28.1367 87.5356 27.9291 87.5875 27.9291C87.6395 27.9291 87.8647 28.1194 88.0899 28.3443C89.1205 29.417 90.281 29.9619 92.1777 30.2647C92.8706 30.3772 94.4295 30.3426 95.2956 30.1955C96.2137 30.0398 97.9718 29.3391 98.7166 28.8374C98.8639 28.7336 99.2016 28.5433 99.4528 28.4135C100.449 27.9118 102.328 25.7232 103.645 23.5087L104.268 22.4793L104.684 23.0415C104.918 23.353 105.143 23.6038 105.178 23.6038C105.221 23.6038 105.247 23.6471 105.247 23.6903C105.247 23.7682 105.55 24.2526 105.68 24.3824C105.723 24.4256 105.914 24.8149 106.156 25.3512C106.234 25.5242 106.329 25.8789 106.364 26.1384L106.425 26.6142L105.039 26.6055C103.852 26.5882 103.593 26.6142 103.324 26.744C102.172 27.2976 101.843 28.6298 102.579 29.7457C102.891 30.2215 103.324 30.5415 104 30.801C104.433 30.9654 104.675 31 105.593 30.9913C106.91 30.9913 107.62 30.7837 108.451 30.1696C108.711 29.9792 108.876 29.936 109.612 29.8927C110.08 29.8581 110.591 29.7976 110.738 29.7543C112.271 29.2786 112.409 29.2266 112.998 28.8374C113.648 28.4049 114.826 27.2889 115.363 26.5882C115.579 26.3028 115.787 26.0519 115.813 26.026C115.978 25.8789 116.766 24.8149 116.766 24.737C116.766 24.6851 116.8 24.6419 116.844 24.6419C116.887 24.6419 116.965 24.5208 117.026 24.3824C117.086 24.244 117.164 24.1229 117.207 24.1229C117.251 24.1229 117.285 24.071 117.285 24.0018C117.285 23.9412 117.337 23.846 117.398 23.7941C117.45 23.7422 117.632 23.4481 117.796 23.1367C117.952 22.8253 118.117 22.5658 118.143 22.5658C118.238 22.5658 118.593 22.9723 119.026 23.5606C119.511 24.2267 119.572 24.3305 119.84 24.9014C119.97 25.1609 120.1 25.4464 120.143 25.5242C120.195 25.6107 120.256 25.8876 120.282 26.1384L120.334 26.6055L118.879 26.5969C117.242 26.5882 117.19 26.5969 116.584 27.263C116.168 27.7042 116.021 28.3356 116.159 29.0017C116.211 29.2613 116.315 29.5208 116.385 29.5727C116.445 29.6332 116.506 29.7111 116.506 29.7543C116.506 29.9273 117.173 30.4983 117.545 30.654C117.614 30.6886 117.831 30.7751 118.013 30.8529C118.273 30.9654 118.628 31 119.442 31C120.724 31 121.252 30.8616 122.135 30.2993C122.664 29.9706 122.759 29.9446 123.521 29.8841C124.231 29.8322 124.846 29.7024 125.678 29.4343C126.067 29.3132 127.029 28.7855 127.418 28.4741C128.025 27.9896 129.237 26.718 129.549 26.2249C130.06 25.4377 130.155 23.9152 129.74 23.3876C129.324 22.8599 128.813 22.9118 128.224 23.5433C126.5 25.3772 125.063 26.6315 124.682 26.6315C124.621 26.6315 124.569 26.3201 124.543 25.7405C124.517 25.2561 124.465 24.7803 124.413 24.6851C124.37 24.59 124.205 24.2526 124.049 23.9412C123.738 23.2838 122.932 22.0381 122.768 21.9343C122.707 21.8997 122.655 21.8218 122.655 21.7786C122.655 21.7267 122.43 21.4066 122.144 21.0692C121.867 20.7232 121.512 20.2301 121.365 19.962C120.914 19.1575 121.001 18.3357 121.694 16.8564C122.049 16.0865 122.196 15.507 122.083 15.3167C121.815 14.8928 120.594 14.7371 119.537 14.9966C119.052 15.1177 118.844 15.2215 118.498 15.5329C118.255 15.7492 118.065 15.9741 118.065 16.0346C118.065 16.0952 118.039 16.1644 118.004 16.1817C117.961 16.199 117.84 16.4412 117.727 16.7267C117.147 18.154 115.683 21.1211 115.085 22.0813C114.826 22.4793 114.271 23.2751 113.856 23.8287C112.903 25.1004 112.245 25.7578 111.5 26.2076C111.327 26.3201 111.162 26.4325 111.136 26.4671C111.11 26.5017 110.98 26.5623 110.85 26.5882L110.617 26.6488V25.8703C110.617 24.4602 110.244 23.7163 108.183 21C107.767 20.4464 107.395 19.8928 107.36 19.763C107.334 19.6419 107.273 19.5121 107.23 19.4862C107.187 19.4602 107.152 19.218 107.152 18.9499C107.161 18.4395 107.343 17.7734 107.672 17.1073C108.14 16.1471 108.295 15.507 108.122 15.2388C108.001 15.0485 107.317 14.8668 106.728 14.8668C106.122 14.8668 104.987 15.1004 104.987 15.2215C104.987 15.2648 104.935 15.2994 104.874 15.2994C104.658 15.2994 103.861 16.3374 103.861 16.6142C103.861 16.6402 103.74 16.9343 103.593 17.263C103.445 17.5831 103.246 18.0243 103.151 18.2405C102.839 18.9326 101.661 21.3114 101.618 21.3547C101.592 21.3807 101.471 21.5796 101.35 21.8045C101.237 22.0381 101.107 22.2197 101.072 22.2197C101.029 22.2197 101.003 22.263 101.003 22.3149C101.003 22.3668 100.934 22.4966 100.856 22.609C100.769 22.7128 100.639 22.8945 100.57 22.9983C100.336 23.3443 99.7473 24.0796 99.6866 24.1056C99.6433 24.1229 99.6173 24.1748 99.6173 24.218C99.6173 24.3305 98.8552 25.0744 98.4222 25.3772C97.8159 25.8011 97.6167 25.9135 96.8459 26.2855C96.4388 26.4844 96.0405 26.6834 95.9625 26.7267C95.798 26.8045 95.3303 26.9343 94.6374 27.0813C94.0831 27.1938 93.0352 27.1246 92.4289 26.9343C91.8919 26.7526 91.2597 26.3374 90.9826 25.9568L90.792 25.7059L91.0085 25.6021C91.1298 25.5502 91.277 25.5069 91.3463 25.5069C91.5109 25.5069 93.4162 24.8841 93.4682 24.8149C93.4942 24.7803 93.6068 24.7197 93.728 24.6851C94.1091 24.5813 94.6028 24.3218 95.3736 23.8287C96.2137 23.2924 97.3396 21.9083 97.5041 21.199C97.5388 21.0692 97.608 20.9135 97.66 20.8443C97.7899 20.68 97.7899 18.1627 97.6514 17.8859C97.5994 17.7734 97.4695 17.4793 97.3569 17.2457C97.175 16.8564 96.3176 15.9049 96.1444 15.9049C96.1097 15.9049 96.0231 15.853 95.9625 15.7924C95.7633 15.5935 95.0704 15.3859 94.3516 15.2994C93.2084 15.1696 91.7447 15.3772 90.9652 15.7838C90.844 15.853 90.7054 15.9049 90.6708 15.9049C90.4976 15.9049 89.3283 16.7526 88.878 17.1938C88.341 17.7215 87.8387 18.3443 87.8387 18.4827C87.8387 18.526 87.7867 18.6038 87.7261 18.6557C87.6308 18.7336 87.2671 19.4429 86.9293 20.1869C86.86 20.3253 86.7821 20.5848 86.7474 20.7492C86.7215 20.9135 86.6608 21.1038 86.6175 21.1817C86.479 21.4239 86.3057 23.4481 86.375 23.9931C86.4097 24.2786 86.4443 24.59 86.4443 24.6938C86.453 24.9447 85.2231 26.1557 84.5822 26.5104C83.7508 26.9775 83.1186 26.8651 82.9107 26.2163C82.7202 25.654 82.98 23.3962 83.4217 21.7872C83.491 21.5104 83.6382 20.7578 83.95 19.0191C84.1232 18.0589 84.1059 16.6315 83.924 16.2509C83.5516 15.507 83.1186 15.2821 82.062 15.2821C80.6589 15.2734 79.481 15.853 78.13 17.1938C77.4717 17.8599 76.5797 18.9499 76.5797 19.0969C76.5797 19.1402 76.5537 19.1921 76.5104 19.2094C76.3545 19.2786 75.5058 20.8703 74.9428 22.1765C74.7349 22.6609 74.683 22.7301 74.683 22.5225C74.6916 22.0381 74.9861 20.3253 75.2286 19.3218C75.2979 19.0364 75.4018 18.6038 75.4538 18.3703C75.5058 18.1281 75.601 17.7647 75.6703 17.5485C75.9128 16.7007 76.0081 15.9308 75.8868 15.654C75.8262 15.507 75.7656 15.3859 75.7569 15.3859C75.7483 15.3859 75.5404 15.3513 75.2979 15.2994C74.7176 15.1955 73.5744 15.3253 73.1327 15.5502C72.6823 15.7751 72.1887 16.3634 72.0588 16.8132C72.0068 17.0035 71.9288 17.1938 71.8942 17.2457C71.8596 17.289 71.8076 17.4879 71.773 17.6782C71.7383 17.8686 71.6777 18.0589 71.643 18.1108C71.6084 18.154 71.5478 18.3703 71.5218 18.5865C71.4872 18.8028 71.4265 19.0537 71.3832 19.1488C71.3399 19.244 71.262 19.5727 71.2187 19.8841C71.1754 20.1955 71.0974 20.7146 71.0454 21.0519C70.8809 22.2371 70.777 23.2405 70.777 23.7855V24.3391L70.2313 24.9014C69.7637 25.3858 69.1487 25.9395 68.8283 26.173C68.0835 26.718 66.6025 26.9689 65.875 26.6661C65.2687 26.4152 65.0522 26.1384 64.7231 25.2042C64.4719 24.4862 64.4892 24.3478 64.9136 23.7941C65.4852 23.0502 65.9269 22.4014 65.9269 22.3149C65.9269 22.2717 65.9529 22.2197 65.9962 22.2024C66.0655 22.1678 66.4466 21.6402 66.4466 21.571C66.4466 21.545 66.4899 21.4758 66.5332 21.4153C66.6458 21.2855 67.1741 20.481 67.252 20.308C67.2867 20.2388 67.3906 20.0658 67.4859 19.9274C67.5811 19.7803 67.7024 19.5727 67.763 19.4516C67.8236 19.3305 67.8929 19.218 67.9189 19.1921C67.9622 19.1488 68.2134 18.699 68.5165 18.1108C68.5945 17.9724 68.6811 17.8339 68.7157 17.808C68.7417 17.782 68.8023 17.6523 68.8283 17.5225C68.8629 17.3928 68.9236 17.289 68.9669 17.289C69.0102 17.289 69.0448 17.2457 69.0448 17.1852C69.0448 17.1333 69.2353 16.6921 69.4692 16.2163C70.3786 14.3564 70.8549 13.1973 71.3139 11.7527C71.4525 11.3028 71.5997 10.8703 71.643 10.8011C71.6777 10.7232 71.7383 10.4897 71.773 10.2821C71.8076 10.0745 71.8682 9.84089 71.9115 9.76304C72.0847 9.44297 72.5091 6.39799 72.5091 5.48104C72.5091 4.25267 72.1973 2.73884 71.7643 1.84784C70.9935 0.273445 69.7377 -0.306137 68.1094 0.15234C67.4945 0.32535 67.0009 0.550262 66.8103 0.740572C66.7497 0.801126 66.6631 0.853029 66.6285 0.853029C66.5505 0.853029 65.7191 1.64887 65.4073 2.0295C64.801 2.74749 63.8137 4.52084 63.32 5.74056C63.2074 6.02602 63.0949 6.27689 63.0689 6.30284C63.0169 6.35474 62.5752 7.57446 62.4193 8.07619C62.3674 8.2665 62.2721 8.53467 62.2201 8.66442C62.1595 8.80283 62.1162 8.94989 62.1162 8.99314C62.1162 9.04505 62.0642 9.26131 61.9949 9.48622C61.8217 10.0572 61.6312 10.8357 61.4753 11.5364C61.3973 11.8651 61.3021 12.3322 61.2415 12.5744C61.0076 13.6385 60.6958 15.7665 60.5053 17.635C60.3407 19.1921 60.2974 22.1765 60.4187 23.3097L60.488 24.0018L59.5006 24.9966C58.9637 25.5502 58.3314 26.1038 58.1063 26.2336C57.526 26.5796 56.7032 26.8045 56.0536 26.8045C55.586 26.8045 55.4127 26.7613 55.049 26.545C54.6679 26.3374 54.5553 26.199 54.3302 25.7405C54.1829 25.4377 54.0617 25.135 54.0617 25.0744C54.0617 25.0052 54.0184 24.8322 53.9664 24.6851C53.8711 24.4343 53.8971 24.3824 54.3735 23.7163C55.049 22.782 55.8718 21.5796 56.1403 21.1298C56.6772 20.2301 57.1276 19.4948 57.1709 19.4516C57.2229 19.4083 57.2488 19.3651 58.0283 17.8945C58.7731 16.4845 59.6912 14.5987 59.6912 14.4689C59.6912 14.443 59.7691 14.244 59.873 14.0191C60.1675 13.3443 60.1848 13.2838 60.384 12.7042C60.488 12.3928 60.6092 12.0641 60.6439 11.9689C60.7131 11.7959 61.0076 10.827 61.2068 10.1091C61.3107 9.73709 61.4666 9.01044 61.6918 7.90318C61.7438 7.61772 61.8131 6.70941 61.8304 5.87897C61.891 3.94126 61.7611 3.19731 61.1289 1.77863C61.0336 1.55372 60.921 1.37206 60.8864 1.37206C60.8431 1.37206 60.8171 1.32881 60.8171 1.26825C60.8171 1.2077 60.6179 0.982786 60.384 0.757874C59.6219 0.0398827 58.5826 -0.17638 57.4827 0.16099ZM58.1149 3.32707C58.2188 3.39627 58.3834 3.62984 58.4787 3.83745C58.6346 4.17482 58.6519 4.39973 58.6519 5.75786C58.6519 6.89972 58.6086 7.53121 58.4873 8.20595C58.1929 9.81494 57.9244 10.9136 57.6992 11.4499C57.6559 11.545 57.5953 11.7181 57.5693 11.8392C57.4913 12.1333 57.1016 13.1886 56.9111 13.6298C56.8158 13.8288 56.7465 14.0191 56.7465 14.0537C56.7465 14.0883 56.6512 14.3132 56.5387 14.5554C56.4261 14.7976 56.2095 15.2561 56.0623 15.5762C55.5686 16.6488 55.2742 17.2371 54.9624 17.808C54.7892 18.1194 54.564 18.526 54.4601 18.7163C54.105 19.3478 53.7326 19.8928 53.6979 19.8236C53.6113 19.6679 53.8711 16.4845 54.105 14.7371C54.2868 13.3616 54.6593 11.2769 54.8758 10.3426C54.9537 10.0226 55.0663 9.52082 55.1356 9.21806C55.2742 8.62982 55.5167 7.73882 55.7419 6.99488C55.8198 6.73536 55.9237 6.39799 55.967 6.25959C56.2095 5.42049 56.8678 3.99316 57.1882 3.57793C57.4913 3.20596 57.8118 3.11081 58.1149 3.32707ZM68.8889 3.43953C69.2527 3.83745 69.4432 6.06063 69.218 7.33225C69.1747 7.60041 69.0968 8.06754 69.0535 8.37896C68.9582 9.01909 68.8283 9.66788 68.707 10.1091C68.222 11.8132 68.0748 12.2717 67.8756 12.7475C67.815 12.8859 67.6937 13.18 67.6158 13.3962C67.3906 13.9758 67.3473 14.0883 67.1394 14.5641C66.6891 15.6021 65.8143 17.3841 65.3813 18.154C65.26 18.3703 65.0522 18.7509 64.9136 18.9931C64.7837 19.244 64.6451 19.4516 64.6105 19.4516C64.5759 19.4516 64.5412 19.5035 64.5412 19.5554C64.5412 19.616 64.4719 19.7457 64.4026 19.8409C64.1601 20.1436 64.29 18.0243 64.7231 14.6938C64.8184 13.9585 64.9309 13.18 64.9742 12.9637C65.0175 12.7475 65.0955 12.3409 65.1561 12.0554C65.3034 11.2596 65.4766 10.3859 65.6151 9.76304C65.6844 9.45162 65.7884 9.00179 65.8403 8.76823C65.8923 8.52602 65.9702 8.25785 66.0135 8.1627C66.0568 8.06754 66.1088 7.86858 66.1434 7.73017C66.2127 7.36685 66.6977 5.87897 66.845 5.55025C66.9143 5.40319 66.9662 5.23883 66.9662 5.18693C66.9662 5.13502 67.0009 5.02257 67.0528 4.93606C67.0961 4.85821 67.1827 4.69385 67.226 4.57274C67.278 4.45164 67.3906 4.23537 67.4859 4.09696C67.5811 3.94991 67.6851 3.78555 67.7197 3.71634C67.7977 3.55198 68.0402 3.30977 68.1874 3.24922C68.3693 3.17136 68.7244 3.27517 68.8889 3.43953ZM31.2492 6.21634C31.535 6.32879 31.6649 6.47585 31.9161 6.99488C32.0806 7.3409 32.1066 7.52256 32.1066 8.76823C32.1066 9.61598 32.0633 10.3513 31.994 10.6713C31.7948 11.5537 31.4744 12.808 31.3271 13.3097C31.2492 13.5693 31.1453 13.9499 31.0933 14.1488C31.024 14.3911 30.9461 14.5208 30.8594 14.5208C30.5823 14.5122 29.9934 13.8634 29.5084 13.0156C29.0407 12.2111 28.8242 10.9828 28.8934 9.46027C28.9454 8.35301 29.0753 7.77342 29.4131 7.12464C29.8202 6.32879 30.565 5.95682 31.2492 6.21634ZM43.8679 18.7249C44.3443 19.2007 44.4049 20.0744 44.0065 20.827C43.816 21.199 43.1664 21.8391 42.6294 22.1851C42.0838 22.5398 41.0618 22.955 40.5335 23.0502L40.2044 23.1021V22.4793C40.2044 21.7094 40.5768 20.3166 40.8713 19.962C40.9319 19.8928 40.9839 19.789 40.9839 19.7457C40.9839 19.5986 41.7893 18.7769 42.1098 18.5952C42.3177 18.4741 42.5861 18.4222 42.9845 18.4222C43.5215 18.4135 43.5648 18.4308 43.8679 18.7249ZM93.9359 18.6817C94.3343 19.0364 94.4642 19.564 94.3256 20.2128C94.2737 20.481 94.1611 20.8011 94.0918 20.9222C93.8579 21.2768 93.1911 21.9602 93.0611 21.9602C93.0005 21.9602 92.9486 21.9862 92.9486 22.0294C92.9486 22.2024 90.8613 23.0848 90.4369 23.0848C90.2897 23.0848 90.2637 23.0242 90.2637 22.6955C90.2637 22.2371 90.4889 21.0779 90.6621 20.68C91.0865 19.6938 91.2857 19.3737 91.7187 18.9758C92.1691 18.5692 92.5069 18.4308 93.1044 18.4222C93.5981 18.4135 93.6761 18.4395 93.9359 18.6817Z" fill="#212123"/>
<path d="M171.341 8.06111C170.608 8.2176 169.804 8.72183 169.468 9.23476C169.239 9.58251 169 10.2867 169 10.6171C169 11.1648 169.3 11.9037 169.671 12.2776C170.793 13.4164 173.487 13.1643 174.468 11.8342C175.404 10.5475 175.069 8.9044 173.744 8.25237C173.293 8.03503 171.959 7.92201 171.341 8.06111Z" fill="#212123"/>
</svg>
