<svg xmlns="http://www.w3.org/2000/svg" xmlns:xlink="http://www.w3.org/1999/xlink" width="99.477" height="42.92"><path fill="#FFF" d="M95.539 18.076h-.84v-.283h2.018v.283h-.84v2.244h-.338zm3.478-.283l-.798 2.122-.797-2.122h-.461v2.527h.32v-2.102h.005l.791 2.102h.287l.79-2.102h.004v2.102h.319v-2.527z"/><defs><path id="a" d="M0 0h99.477v42.92H0z"/></defs><clipPath id="b"><use xlink:href="#a" overflow="visible"/></clipPath><path clip-path="url(#b)" fill="#FFF" d="M29.266 24.845c-2.326-1.898 1.032-8.477 5.187-8.655 1.542-.055 2.01 1.293 1.322 1.472-.689.179-.441-.399-1.266-.399-2.987-.042-6.179 5.477-4.5 6.811 1.087.854 3.261.249 4.678-1.127.51-.496 1.253.178.688.825-.894 1.032-4.224 2.601-6.109 1.073"/><path clip-path="url(#b)" fill="#FFF" d="M39.257 20.359c3.165 0 2.807 5.092-.909 5.092-3.123 0-2.834-5.092.909-5.092m-.716 4.115c2.119.014 2.642-3.138.523-3.138s-2.642 3.124-.523 3.138m8.403-3.812c1.748 1.5-.605 4.679-3.014 4.651-.522 0-.605-.963 0-.99 1.872-.097 3.111-2.299 2.368-2.904-.688-.55-2.808.716-2.835.921l-1.143 6.812c-.027.234-.302.413-.578.372-.22-.027-.44-.289-.399-.55l1.376-8.257c.069-.427.289-.605.606-.578.592.055.385.798.385.798.633-.372 2.34-1.046 3.234-.275m6.287 0c1.748 1.5-.606 4.679-3.015 4.651-.521 0-.604-.963 0-.99 1.872-.097 3.111-2.299 2.369-2.904-.688-.55-2.809.716-2.836.921l-1.142 6.812c-.027.234-.303.413-.578.372-.22-.027-.44-.289-.399-.55l1.376-8.257c.069-.427.289-.605.606-.578.592.055.386.798.386.798.631-.372 2.339-1.046 3.233-.275m1.796 4.473c-1.514-1.252.275-5.89 3.798-4.486 1.294.509.564 1.596.234 1.844a8.301 8.301 0 0 1-2.904 1.431c-.412.11-.688-.592-.275-.743 2.133-.785 3.331-1.445 2.381-1.762-2.161-.715-3.385 1.982-2.656 2.862.633.771 2.284.234 3.276-.413.632-.413 1.073.455.48.868-.907.632-3.206 1.321-4.334.399m7.196-3.386s1.129-1.349 3.289-1.239c.799.042.619 1.032-.041.991-.592-.042-1.211.082-1.871.427-.798.426-1.652 1.389-1.679 1.623l-.261 1.625c-.028.234-.276.399-.538.357-.288-.041-.495-.262-.454-.523l.675-4.115c.041-.316.247-.453.551-.426.274.028.494.234.44.592l-.111.688zm3.743 3.152c.743-3.551 3.825-8.546 4.609-8.574.413-.013.372.675.551 1.707.138.825.248 1.624.716 2.739.068.192 1.679-3.469 3.716-4.61.825-.455-.138 3.495 1.802 8.71.234.661-.756 1.06-1.004.385-.565-1.513-.812-2.518-1.019-3.646-.386-2.009-.316-3.674-.386-3.578-1.706 2.243-2.806 4.706-3.013 4.693-.316-.014-.743-.592-1.156-1.665-.413-1.047-.701-2.753-.701-2.753-.125.179-2.229 3.303-3.055 6.812-.152.675-1.198.44-1.06-.22"/><path clip-path="url(#b)" fill="#FFF" d="M80.778 20.359c3.164 0 2.806 5.092-.909 5.092-3.124 0-2.834-5.092.909-5.092m-.716 4.115c2.119.014 2.642-3.138.522-3.138-2.118 0-2.641 3.124-.522 3.138"/><path clip-path="url(#b)" fill="#FFF" d="M86.387 20.359c3.166 0 2.807 5.092-.908 5.092-3.123 0-2.835-5.092.908-5.092m-.716 4.115c2.12.014 2.643-3.138.523-3.138-2.119 0-2.641 3.124-.523 3.138m3.412.509l.716-4.293c.041-.262.371-.399.577-.372.221.028.455.248.413.496l-.151.88s2.423-1.789 3.261-1.155c.868.66.62 2.972-.013 4.65-.235.647-1.184.317-.964-.274.551-1.404.702-3.193.345-3.372-.496-.248-2.849 1.486-2.891 1.789l-.303 1.817c-.04.247-.274.426-.563.385a.51.51 0 0 1-.427-.551"/><path clip-path="url(#b)" fill="#FFF" d="M20.662 20.837c0-9.445 15.195-17.367 37.611-17.367 11.741 0 21.878 2.234 28.762 5.781C78.554 3.726 64.34.109 47.701.003 19.273-.18-.138 8.878.001 21.461c.13 11.85 21.356 21.459 47.7 21.459 19.572 0 36.38-5.304 43.735-12.889-6.183 4.945-17.732 8.174-33.163 8.174-20.772 0-37.611-7.776-37.611-17.368"/></svg>