<?xml version="1.0" encoding="UTF-8"?>
<svg width="842px" height="136px" viewBox="0 0 842 136" version="1.1" xmlns="http://www.w3.org/2000/svg" xmlns:xlink="http://www.w3.org/1999/xlink">
    <!-- Generator: Sketch 47 (45396) - http://www.bohemiancoding.com/sketch -->
    <title>Page 1</title>
    <desc>Created with Sketch.</desc>
    <defs>
        <polygon id="path-1" points="88.89 86.4106 88.89 0.5806 0.5621 0.5806 0.5621 86.4106 88.89 86.4106"></polygon>
        <polygon id="path-3" points="135.4293 136 0.0003 136 0.0003 0.5711 135.4293 0.5711 135.4293 136"></polygon>
    </defs>
    <g id="Symbols" stroke="none" stroke-width="1" fill="none" fill-rule="evenodd">
        <g id="Blueair-logo-blue" transform="translate(0.000000, -1.000000)">
            <g id="Page-1">
                <path d="M199.7554,57.7361 L241.8894,57.7361 C248.9114,57.7361 254.0614,53.9901 255.9354,45.7191 C257.3394,38.6971 255.3104,33.7031 242.8254,33.7031 L204.9054,33.7031 L199.7554,57.7361 Z M190.0804,103.6161 L234.7114,103.6161 C244.0744,103.6161 248.9114,97.5301 250.4724,90.5081 C252.3454,81.7671 247.8194,77.0861 237.2084,77.0861 L195.6974,77.0861 L190.0804,103.6161 Z M178.9994,13.4161 L262.6464,13.4161 C278.8744,13.4161 292.4524,20.9061 288.0824,41.5061 C286.2104,50.0891 279.6554,60.5451 268.4194,63.8221 L268.4194,64.1341 C280.9034,66.3191 284.9614,79.1151 282.4644,91.1321 C279.3424,105.9561 268.4194,124.8391 234.7114,124.8391 L155.2794,124.8391 L178.9994,13.4161 Z" id="Fill-1" fill="#0066CC"></path>
                <polygon id="Fill-3" fill="#0066CC" points="318.524 13.4158 345.989 13.4158 322.341 124.8388 294.876 124.8388"></polygon>
                <path d="M417.0323,113.6033 L416.7203,113.6033 C410.3233,120.6253 395.6533,127.9613 379.5793,127.9613 C365.3793,127.9613 344.7793,122.4993 350.0853,97.8423 L362.1013,41.1933 L389.5663,41.1933 L379.2663,89.5703 C376.7693,101.1193 381.7633,106.7363 394.4043,106.7363 C409.2293,106.7363 419.3733,98.4663 422.6513,83.0173 L431.5463,41.1933 L459.0123,41.1933 L441.2213,124.8393 L414.6913,124.8393 L417.0323,113.6033 Z" id="Fill-5" fill="#0066CC"></path>
                <path d="M549.7955,74.1218 L549.9515,73.8098 C550.8885,69.2828 548.0785,55.2388 527.9485,55.2388 C506.2565,55.2388 498.1415,71.7798 497.8295,73.8098 L497.6735,74.1218 L549.7955,74.1218 Z M571.1755,99.8708 C559.0035,119.6888 538.2475,127.9608 513.1225,127.9608 C480.0395,127.9608 460.6885,114.5388 467.3995,83.0178 C474.1095,51.4938 499.0785,38.0738 532.1615,38.0738 C568.3665,38.0738 581.9425,56.3308 575.2325,87.8548 L574.7655,90.3518 L494.2405,90.3518 L494.2405,90.6628 C492.5245,98.6218 497.9855,110.7938 516.7125,110.7938 C527.7925,110.7938 536.3755,107.0488 541.8375,99.8708 L571.1755,99.8708 Z" id="Fill-7" fill="#0066CC"></path>
                <path d="M665.3072,84.1096 C659.6882,86.6066 653.9142,87.2296 648.4512,87.6986 L632.2212,89.1036 C622.3902,89.8826 616.9292,92.5356 615.3682,100.0266 C613.8072,107.5176 619.8932,111.7306 630.1932,111.7306 C644.0822,111.7306 660.9352,105.0206 663.9032,90.9756 L665.3072,84.1096 Z M598.3572,66.7866 C607.0962,41.0376 631.4422,38.0736 653.9142,38.0736 C693.2402,38.0736 699.0132,50.8686 695.5792,66.4746 L686.8412,107.9856 C685.2822,115.3206 685.4372,120.6256 686.3712,124.8386 L658.9092,124.8386 C658.5932,121.8736 658.4392,118.9096 658.9092,115.9436 C647.5162,125.3076 629.5682,127.9616 617.2402,127.9616 C595.3932,127.9616 581.6612,120.3146 585.8722,100.8066 C590.0862,80.5206 608.9692,76.1506 625.9792,75.0576 L655.6292,73.0296 C664.0572,72.4046 667.1762,71.0006 668.5812,64.2896 C670.1432,57.5796 665.1502,54.3016 649.2312,54.3016 C637.5282,54.3016 631.2862,55.2386 624.8872,66.7866 L598.3572,66.7866 Z" id="Fill-9" fill="#0066CC"></path>
                <path d="M728.2398,13.4158 L755.7028,13.4158 L752.0318,30.8938 L724.5658,30.8938 L728.2398,13.4158 Z M722.3818,41.1938 L749.8468,41.1938 L732.0568,124.8388 L704.5918,124.8388 L722.3818,41.1938 Z" id="Fill-11" fill="#0066CC"></path>
                <g id="Group-15" transform="translate(753.000000, 38.429000)">
                    <mask id="mask-2" fill="white">
                        <use xlink:href="#path-1"></use>
                    </mask>
                    <g id="Clip-14"></g>
                    <path d="M18.3521,2.7646 L44.8831,2.7646 L41.4491,19.1506 L41.7611,19.1506 C54.4011,6.3536 63.4541,0.5806 79.0601,0.5806 C82.1791,0.5806 85.9221,0.7366 88.8901,1.3606 L83.4281,27.1106 C78.7451,25.7056 73.9091,24.6136 68.7571,24.6136 C50.0321,24.6136 39.1101,34.1326 35.6751,50.3616 L28.0271,86.4106 L0.5621,86.4106 L18.3521,2.7646 Z" id="Fill-13" fill="#0066CC" mask="url(#mask-2)"></path>
                </g>
                <g id="Group-18" transform="translate(0.000000, 0.429000)">
                    <mask id="mask-4" fill="white">
                        <use xlink:href="#path-3"></use>
                    </mask>
                    <g id="Clip-17"></g>
                    <path d="M135.4293,68.2851 C135.4293,105.6831 105.1123,136.0001 67.7153,136.0001 C30.3173,136.0001 0.0003,105.6831 0.0003,68.2851 C0.0003,30.8881 30.3173,0.5711 67.7153,0.5711 C105.1123,0.5711 135.4293,30.8881 135.4293,68.2851" id="Fill-16" fill="#0066CC" mask="url(#mask-4)"></path>
                </g>
            </g>
        </g>
    </g>
</svg>