<svg width="248" height="40" viewBox="0 0 248 40" fill="none" xmlns="http://www.w3.org/2000/svg">
<path d="M20 0L24.7023 13.5279L39.0211 13.8197L27.6085 22.4721L31.7557 36.1803L20 28L8.2443 36.1803L12.3915 22.4721L0.97887 13.8197L15.2977 13.5279L20 0Z" fill="#EBCE38"/>
<path d="M20 0L24.7023 13.5279L39.0211 13.8197L27.6085 22.4721L31.7557 36.1803L20 28L8.2443 36.1803L12.3915 22.4721L0.97887 13.8197L15.2977 13.5279L20 0Z" fill="url(#paint0_linear_39_26)"/>
<path d="M72 0L76.7023 13.5279L91.0211 13.8197L79.6085 22.4721L83.7557 36.1803L72 28L60.2443 36.1803L64.3915 22.4721L52.9789 13.8197L67.2977 13.5279L72 0Z" fill="#EBCE38"/>
<path d="M72 0L76.7023 13.5279L91.0211 13.8197L79.6085 22.4721L83.7557 36.1803L72 28L60.2443 36.1803L64.3915 22.4721L52.9789 13.8197L67.2977 13.5279L72 0Z" fill="url(#paint1_linear_39_26)"/>
<path d="M124 0L128.702 13.5279L143.021 13.8197L131.608 22.4721L135.756 36.1803L124 28L112.244 36.1803L116.392 22.4721L104.979 13.8197L119.298 13.5279L124 0Z" fill="#EBCE38"/>
<path d="M124 0L128.702 13.5279L143.021 13.8197L131.608 22.4721L135.756 36.1803L124 28L112.244 36.1803L116.392 22.4721L104.979 13.8197L119.298 13.5279L124 0Z" fill="url(#paint2_linear_39_26)"/>
<path d="M176 0L180.702 13.5279L195.021 13.8197L183.608 22.4721L187.756 36.1803L176 28L164.244 36.1803L168.392 22.4721L156.979 13.8197L171.298 13.5279L176 0Z" fill="#EBCE38"/>
<path d="M176 0L180.702 13.5279L195.021 13.8197L183.608 22.4721L187.756 36.1803L176 28L164.244 36.1803L168.392 22.4721L156.979 13.8197L171.298 13.5279L176 0Z" fill="url(#paint3_linear_39_26)"/>
<path d="M228 0L232.702 13.5279L247.021 13.8197L235.608 22.4721L239.756 36.1803L228 28L216.244 36.1803L220.392 22.4721L208.979 13.8197L223.298 13.5279L228 0Z" fill="#EBCE38"/>
<path d="M228 0L232.702 13.5279L247.021 13.8197L235.608 22.4721L239.756 36.1803L228 28L216.244 36.1803L220.392 22.4721L208.979 13.8197L223.298 13.5279L228 0Z" fill="url(#paint4_linear_39_26)"/>
<defs>
<linearGradient id="paint0_linear_39_26" x1="0.560747" y1="1.48973e-05" x2="43.5687" y2="0.449349" gradientUnits="userSpaceOnUse">
<stop stop-color="#E4CB65"/>
<stop offset="1" stop-color="#BB8E31"/>
</linearGradient>
<linearGradient id="paint1_linear_39_26" x1="52.5607" y1="1.48973e-05" x2="95.5687" y2="0.449349" gradientUnits="userSpaceOnUse">
<stop stop-color="#E4CB65"/>
<stop offset="1" stop-color="#BB8E31"/>
</linearGradient>
<linearGradient id="paint2_linear_39_26" x1="104.561" y1="1.48973e-05" x2="147.569" y2="0.449349" gradientUnits="userSpaceOnUse">
<stop stop-color="#E4CB65"/>
<stop offset="1" stop-color="#BB8E31"/>
</linearGradient>
<linearGradient id="paint3_linear_39_26" x1="156.561" y1="1.48973e-05" x2="199.569" y2="0.449349" gradientUnits="userSpaceOnUse">
<stop stop-color="#E4CB65"/>
<stop offset="1" stop-color="#BB8E31"/>
</linearGradient>
<linearGradient id="paint4_linear_39_26" x1="208.561" y1="1.48973e-05" x2="251.569" y2="0.449349" gradientUnits="userSpaceOnUse">
<stop stop-color="#E4CB65"/>
<stop offset="1" stop-color="#BB8E31"/>
</linearGradient>
</defs>
</svg>
