<svg xmlns="http://www.w3.org/2000/svg" width="269" height="44" viewBox="0 0 269 44"><g fill="#FFF"><path d="M229.975 12.892h.792c0-.504.216-1.152.505-1.8.359-.576.791-1.08 1.295-1.368l15.049-8.712c.432-.288 1.152-.432 1.801-.432.647 0 1.367.144 1.799.432l15.049 8.712c.432.288.936.792 1.297 1.368.359.576.504 1.224.504 1.8v17.425c0 .504-.217 1.152-.504 1.8-.361.576-.793 1.08-1.297 1.368l-15.049 8.712c-.432.288-1.151.433-1.799.433-.648 0-1.369-.145-1.801-.433l-15.049-8.712c-.432-.288-.936-.792-1.295-1.368-.361-.576-.576-1.224-.505-1.8V12.892h-1.512v17.425c0 .863.288 1.729.72 2.52a5 5 0 0 0 1.801 1.873l15.048 8.711c.72.433 1.656.648 2.521.648.863 0 1.8-.216 2.52-.648l15.049-8.711c.72-.433 1.367-1.152 1.8-1.873.433-.72.72-1.512.72-2.304V12.748c-.072-.792-.287-1.584-.72-2.304a5.01 5.01 0 0 0-1.8-1.872L251.865-.14c-.72-.432-1.656-.648-2.52-.648-.864 0-1.801.216-2.521.648l-15.048 8.712c-.721.432-1.369 1.152-1.801 1.872-.432.792-.72 1.656-.72 2.521h.72v-.073z"/><path d="M229.902 10.66l19.225 11.088.217-.432-19.225-11.088z"/><path d="M249.344 21.748L269 10.587l-.288-.431-19.585 11.16z"/><path d="M248.983 43.996h.504V21.532h-.504zM16.201 8.715v20.953c0 .648-.504 1.152-1.152 1.152-.432 0-.72-.145-.936-.504L2.232 12.459v17.208c0 .576-.504 1.08-1.08 1.08-.576 0-1.08-.504-1.08-1.08V8.715c0-.576.504-1.08 1.08-1.08.432 0 .72.216.936.504l11.953 17.929V8.788c0-.576.504-1.08 1.08-1.08.576 0 1.08.504 1.08 1.08v-.073zm10.296 7.993c-2.952 0-4.536 1.872-4.752 4.896h9.072c0-2.448-.864-4.896-4.32-4.896zm0-1.944c5.4 0 6.408 4.248 6.408 6.552 0 1.008 0 2.161-1.368 2.161h-9.864c0 3.312 1.944 5.472 5.112 5.472 1.944 0 3.096-.72 4.032-1.44.216-.144.36-.216.576-.216.504 0 1.008.433 1.008 1.009 0 .359-.144.575-.36.791-.504.504-2.232 1.873-5.256 1.873-4.464 0-7.272-2.449-7.272-8.137 0-5.184 2.592-8.064 6.912-8.064h.072zm20.448 8.064c0-4.248-1.8-6.12-4.896-6.12s-4.896 1.872-4.896 6.12c0 4.32 1.8 6.191 4.896 6.191s4.896-1.871 4.896-6.191zm2.16 0c0 5.544-2.664 8.137-7.056 8.137-4.32 0-7.056-2.593-7.056-8.137 0-5.544 2.736-8.064 7.056-8.064 4.392 0 7.056 2.592 7.056 8.064zm12.673 3.384l-7.056-13.104v16.56c0 .576-.504 1.08-1.08 1.08s-1.08-.504-1.08-1.08V8.715c0-.576.504-1.08 1.08-1.08.504 0 .864.288 1.008.648l8.136 15.264 8.208-15.264c.144-.216.432-.648 1.008-.648.576 0 1.08.504 1.08 1.08v20.953c0 .576-.504 1.08-1.08 1.08-.576 0-1.08-.504-1.08-1.08v-16.56l-7.056 13.104c-.216.433-.576.647-1.008.647-.36 0-.792-.143-1.008-.647h-.072zM87.123 24.7v-1.44h-4.752c-2.16 0-3.672.936-3.672 2.881 0 1.728 1.224 2.879 3.816 2.879 2.376 0 4.608-1.44 4.608-4.32zm-7.849-6.192c-.36.36-.576.504-.864.504-.504 0-1.008-.432-1.008-1.008 0-.216.072-.432.144-.576.936-1.512 2.736-2.664 5.616-2.664 3.888 0 6.048 2.304 6.048 5.76v9.289c0 .576-.504 1.08-1.008 1.08-.576 0-1.08-.504-1.08-1.08v-1.225c-.864 1.584-2.808 2.448-4.824 2.448-3.6 0-5.832-1.728-5.832-4.824 0-2.952 2.232-4.752 5.904-4.752h4.752v-.936c0-2.304-1.512-3.672-3.96-3.672-1.8 0-2.88.504-3.888 1.729v-.073zm36.649 2.232v9c0 .576-.504 1.08-1.08 1.08-.576 0-1.08-.504-1.08-1.08v-8.568c0-2.664-.936-4.464-4.176-4.464-2.88 0-4.176 1.584-4.176 4.032v9c0 .576-.504 1.08-1.08 1.08s-1.08-.504-1.08-1.08v-8.568c0-2.664-.864-4.464-4.176-4.464-3.096 0-4.176 1.872-4.176 4.68v8.353c0 .576-.504 1.08-1.08 1.08-.576 0-1.08-.504-1.08-1.08V16.06c0-.576.504-1.08 1.08-1.08.576 0 1.08.504 1.08 1.08v1.08c.576-1.224 2.16-2.376 4.392-2.376 2.736 0 4.536 1.008 5.328 2.376.864-1.296 2.304-2.376 4.896-2.376 5.184 0 6.336 3.096 6.336 5.976h.072zm19.298-11.232c-3.529 0-4.897 1.728-4.897 3.672 0 5.616 12.745 3.168 12.745 11.305 0 4.176-2.881 6.552-8.064 6.552-3.816 0-6.696-1.944-7.848-4.177-.144-.287-.144-.432-.144-.575 0-.576.504-1.08 1.08-1.08.432 0 .72.216.936.504 1.08 1.728 3.024 3.168 5.976 3.168 3.672 0 5.76-1.512 5.76-4.464 0-6.264-12.744-3.312-12.744-11.304 0-3.096 2.232-5.76 7.201-5.76 3.168 0 5.76 1.368 7.199 3.456.145.216.217.432.217.648 0 .576-.504 1.08-1.08 1.08-.289 0-.576-.072-.864-.432-1.009-1.224-2.593-2.664-5.472-2.664v.071zm11.303 2.232c0-.576.504-1.08 1.08-1.08.575 0 1.08.504 1.08 1.08v3.528h2.159a.985.985 0 0 1 1.009 1.008.985.985 0 0 1-1.009 1.008h-2.159v9.289c0 1.439.792 2.232 1.944 2.232.576 0 1.08.432 1.08 1.008s-.504 1.008-1.08 1.008c-2.664 0-4.104-1.801-4.104-4.248v-9.289h-1.296a.984.984 0 0 1-1.008-1.008.984.984 0 0 1 1.008-1.008h1.296V11.74zm9.865 4.32v8.784c0 2.16.72 4.104 4.104 4.104 3.385 0 4.104-1.872 4.104-4.104V16.06c0-.576.505-1.08 1.08-1.08.576 0 1.08.504 1.08 1.08v8.784c0 3.168-1.08 6.121-6.265 6.121-5.184 0-6.264-2.953-6.264-6.121V16.06c0-.576.504-1.08 1.08-1.08s1.081.504 1.081 1.08zm24.48 3.6s-1.296-2.952-4.464-2.952c-3.097 0-4.753 2.016-4.753 6.12 0 4.176 1.656 6.191 4.753 6.191 2.592 0 4.464-1.512 4.464-4.68V19.66zm0-2.736v-9.36c0-.576.504-1.08 1.08-1.08s1.08.504 1.08 1.08v16.704c0 4.465-2.736 6.625-6.624 6.625-4.32 0-6.912-2.592-6.912-8.137 0-5.544 2.448-8.064 6.769-8.064 2.16 0 3.815 1.08 4.607 2.16v.072zm7.92 12.816c0 .576-.504 1.08-1.08 1.08s-1.08-.504-1.08-1.08V16.06c0-.576.504-1.08 1.08-1.08s1.08.504 1.08 1.08v13.68zm-2.375-19.224c0-1.008.504-1.368 1.295-1.368.793 0 1.297.36 1.297 1.368 0 .792-.504 1.296-1.297 1.296-.791 0-1.295-.504-1.295-1.296zm17.208 12.312c0-4.248-1.8-6.12-4.896-6.12-3.097 0-4.896 1.872-4.896 6.12 0 4.32 1.8 6.191 4.896 6.191 3.096.001 4.896-1.871 4.896-6.191zm2.16 0c0 5.544-2.664 8.137-7.056 8.137-4.32 0-7.057-2.593-7.057-8.137 0-5.544 2.736-8.064 7.057-8.064 4.392 0 7.056 2.592 7.056 8.064zm4.609-3.96c0 3.528 8.855 2.232 8.855 7.632 0 3.096-2.52 4.465-5.76 4.465-2.736 0-4.896-1.297-5.76-2.449a1.152 1.152 0 0 1-.217-.647c0-.504.432-1.009 1.008-1.009.217 0 .504.072.721.361 1.08 1.08 2.376 1.655 4.248 1.655 1.943 0 3.6-.647 3.6-2.376 0-3.456-8.855-2.088-8.855-7.632 0-2.808 2.304-4.104 5.184-4.104 2.305 0 4.104.792 5.112 2.16.072.144.216.36.216.648 0 .504-.432 1.008-1.008 1.008-.145 0-.432 0-.721-.288-.936-.864-1.943-1.44-3.672-1.44-1.512 0-3.023.504-3.023 2.016h.072z"/></g></svg>