<svg xmlns="http://www.w3.org/2000/svg" viewBox="0 0 359.46667 59.853333" height="59.853" width="359.467"><g fill="#fff"><path d="M306.668 18.33h1.01c-.005-.686.262-1.576.715-2.359.452-.785 1.088-1.461 1.684-1.802l20.091-11.597c.592-.346 1.495-.56 2.4-.558.907-.001 1.81.212 2.4.558l20.092 11.597c.595.34 1.23 1.017 1.684 1.802.453.783.719 1.673.716 2.358v23.198c.003.687-.263 1.575-.716 2.359-.453.787-1.09 1.463-1.684 1.799l-20.092 11.6c-.59.347-1.493.563-2.4.557-.905.006-1.808-.21-2.4-.557l-20.09-11.6c-.597-.336-1.233-1.012-1.685-1.8-.453-.783-.72-1.67-.716-2.358V18.33h-2.013v23.198c.007 1.16.395 2.324.987 3.365.602 1.036 1.421 1.95 2.421 2.536l20.09 11.6c1.006.575 2.207.823 3.406.825 1.199-.002 2.4-.25 3.405-.825l20.095-11.6c.997-.585 1.816-1.5 2.419-2.536.592-1.041.982-2.205.986-3.365V18.33c-.004-1.16-.394-2.322-.986-3.363-.603-1.036-1.422-1.953-2.419-2.536L335.973.833c-1.005-.58-2.206-.826-3.405-.828-1.199.002-2.4.248-3.405.828L309.072 12.43c-1 .583-1.819 1.5-2.421 2.536-.592 1.041-.98 2.203-.987 3.363h1.004"/><path d="M306.504 15.434l25.612 14.705.335-.581-25.615-14.705"/><path d="M332.448 30.14l26.184-14.873-.332-.582-26.181 14.873"/><path d="M331.95 59.833h.67V29.849h-.67zM21.553 12.791V40.72c0 .855-.674 1.528-1.527 1.528-.54 0-.943-.225-1.257-.63L2.964 17.777v22.99c0 .808-.674 1.481-1.482 1.481A1.495 1.495 0 0 1 0 40.765V12.791c0-.807.673-1.481 1.482-1.481.538 0 .987.314 1.212.628L18.59 35.826V12.791c0-.807.674-1.481 1.482-1.481.808 0 1.482.674 1.482 1.481m13.743 10.687c-3.906 0-6.061 2.514-6.33 6.51h12.077c0-3.232-1.122-6.51-5.747-6.51zm0-2.604c7.184 0 8.577 5.702 8.577 8.756 0 1.302 0 2.873-1.796 2.873H28.966c0 4.446 2.56 7.32 6.78 7.32 2.605 0 4.131-.989 5.388-1.932.27-.18.45-.269.809-.269.718 0 1.302.583 1.302 1.302 0 .493-.225.763-.494 1.032-.673.674-3.009 2.515-7.005 2.515-5.972 0-9.699-3.278-9.699-10.82 0-6.916 3.413-10.777 9.25-10.777M62.63 31.65c0-5.658-2.38-8.172-6.511-8.172-4.132 0-6.51 2.514-6.51 8.173 0 5.747 2.378 8.216 6.51 8.216 4.13 0 6.51-2.469 6.51-8.216zm2.918 0c0 7.364-3.592 10.821-9.43 10.821-5.792 0-9.428-3.457-9.428-10.82 0-7.365 3.636-10.777 9.429-10.777 5.837 0 9.429 3.412 9.429 10.777m16.781 4.489l-9.384-17.466v22.091c0 .809-.674 1.482-1.482 1.482a1.494 1.494 0 0 1-1.482-1.482V12.791c0-.807.673-1.481 1.482-1.481.673 0 1.122.404 1.347.853l10.865 20.34 10.912-20.34c.18-.314.538-.853 1.347-.853.808 0 1.482.674 1.482 1.481v27.974c0 .809-.674 1.482-1.482 1.482a1.494 1.494 0 0 1-1.481-1.482V18.674l-9.43 17.466c-.314.584-.808.853-1.348.853a1.505 1.505 0 0 1-1.346-.853m33.787-2.02v-1.886h-6.332c-2.918 0-4.938 1.212-4.938 3.816 0 2.335 1.617 3.817 5.118 3.817 3.143 0 6.152-1.931 6.152-5.748zm-10.507-8.263c-.45.495-.763.63-1.167.63a1.304 1.304 0 0 1-1.302-1.302c0-.315.09-.54.224-.764 1.257-1.976 3.682-3.547 7.454-3.547 5.208 0 8.081 3.053 8.081 7.633v12.348c0 .763-.628 1.392-1.391 1.392a1.4 1.4 0 0 1-1.392-1.392v-1.617c-1.123 2.11-3.726 3.233-6.42 3.233-4.76 0-7.769-2.289-7.769-6.42 0-3.952 3.008-6.332 7.857-6.332h6.332v-1.212c0-3.054-2.02-4.94-5.298-4.94-2.38 0-3.817.72-5.21 2.29m48.908 2.964V40.81c0 .808-.628 1.437-1.436 1.437a1.42 1.42 0 0 1-1.437-1.437V29.405c0-3.548-1.258-5.972-5.614-5.972-3.861 0-5.612 2.065-5.612 5.388V40.81c0 .808-.628 1.437-1.437 1.437-.808 0-1.436-.63-1.436-1.437V29.405c0-3.548-1.123-5.972-5.523-5.972-4.176 0-5.523 2.515-5.523 6.286v11.09c0 .809-.629 1.438-1.437 1.438s-1.436-.63-1.436-1.437V22.58c0-.808.628-1.437 1.436-1.437.808 0 1.437.629 1.437 1.436v1.437c.763-1.66 2.919-3.142 5.837-3.142 3.682 0 6.062 1.347 7.14 3.142 1.122-1.75 3.098-3.142 6.554-3.142 6.916 0 8.487 4.13 8.487 7.947m25.765-14.997c-4.713 0-6.509 2.335-6.509 4.894 0 7.454 16.972 4.266 16.972 15.087 0 5.612-3.861 8.711-10.776 8.711-5.119 0-8.936-2.604-10.463-5.523-.178-.36-.224-.54-.224-.808 0-.808.628-1.437 1.438-1.437.537 0 .986.27 1.256.719 1.437 2.335 4.041 4.266 7.993 4.266 4.939 0 7.723-1.977 7.723-5.928 0-8.396-16.972-4.445-16.972-15.087 0-4.13 3.008-7.678 9.562-7.678 4.267 0 7.724 1.796 9.61 4.625.18.27.269.539.269.853 0 .808-.628 1.437-1.437 1.437-.403 0-.807-.134-1.167-.583-1.347-1.662-3.501-3.548-7.275-3.548m15.052 2.963c0-.763.674-1.436 1.438-1.436.808 0 1.436.673 1.436 1.436v4.715h2.918c.764 0 1.347.584 1.347 1.347 0 .764-.583 1.347-1.347 1.347h-2.918v12.393c0 1.932 1.077 2.964 2.604 2.964.764 0 1.392.583 1.392 1.346 0 .765-.628 1.348-1.392 1.348-3.547 0-5.478-2.38-5.478-5.658V24.196h-1.75a1.323 1.323 0 0 1-1.348-1.347c0-.763.584-1.347 1.348-1.347h1.75v-4.715m13.155 5.793V34.3c0 2.918.943 5.433 5.477 5.433 4.535 0 5.479-2.515 5.479-5.434V22.58c0-.807.673-1.436 1.481-1.436.764 0 1.392.629 1.392 1.436V34.3c0 4.266-1.392 8.172-8.352 8.172-6.914 0-8.352-3.906-8.352-8.172V22.58c0-.807.63-1.436 1.438-1.436.764 0 1.437.629 1.437 1.436m32.636 4.85s-1.707-3.952-5.928-3.952c-4.085 0-6.332 2.65-6.332 8.173 0 5.612 2.201 8.216 6.332 8.216 3.457 0 5.928-1.976 5.928-6.241zm0-3.638V11.354c0-.807.627-1.437 1.436-1.437.808 0 1.437.63 1.437 1.437v22.272c0 5.927-3.682 8.845-8.801 8.845-5.792 0-9.205-3.457-9.205-10.82 0-7.365 3.233-10.777 9.026-10.777 2.874 0 5.074 1.482 6.107 2.918m10.579 17.018c0 .808-.628 1.437-1.436 1.437a1.42 1.42 0 0 1-1.438-1.437V22.58c0-.808.63-1.437 1.438-1.437.808 0 1.436.629 1.436 1.436zm-3.143-25.594c0-1.302.63-1.796 1.707-1.796s1.705.494 1.705 1.796c0 1.078-.628 1.706-1.705 1.706-1.078 0-1.707-.628-1.707-1.706m22.908 16.434c0-5.658-2.381-8.172-6.51-8.172-4.133 0-6.513 2.514-6.513 8.173 0 5.747 2.38 8.216 6.512 8.216 4.13 0 6.511-2.469 6.511-8.216zm2.917 0c0 7.364-3.59 10.821-9.428 10.821-5.793 0-9.429-3.457-9.429-10.82 0-7.365 3.636-10.777 9.43-10.777 5.837 0 9.427 3.412 9.427 10.777m6.143-5.299c0 4.714 11.81 2.963 11.81 10.148 0 4.086-3.367 5.927-7.634 5.927-3.681 0-6.51-1.752-7.677-3.234-.224-.313-.315-.539-.315-.852 0-.719.584-1.302 1.303-1.302.269 0 .628.09.988.449 1.392 1.392 3.188 2.2 5.701 2.2 2.56 0 4.761-.854 4.761-3.188 0-4.625-11.81-2.784-11.81-10.148 0-3.727 3.053-5.433 6.87-5.433 3.054 0 5.434 1.032 6.826 2.873.133.18.313.449.313.853a1.302 1.302 0 0 1-2.245.898c-1.212-1.167-2.559-1.886-4.894-1.886-2.021 0-3.997.63-3.997 2.695"/></g></svg>