<svg width="299" height="19" viewBox="0 0 299 19" fill="none" xmlns="http://www.w3.org/2000/svg">
<path d="M289.599 18.7361V3.16667H283.574V0.263889H299V3.16667H292.975V18.7361H289.599Z" fill="#2F455C"/>
<path d="M267.168 18.7361V0.263889H274.647C276.257 0.263889 277.633 0.527778 278.776 1.05556C279.936 1.58333 280.828 2.33982 281.451 3.325C282.074 4.31019 282.386 5.48009 282.386 6.83472C282.386 8.18935 282.074 9.35926 281.451 10.3444C280.828 11.312 279.936 12.0597 278.776 12.5875C277.633 13.0977 276.257 13.3528 274.647 13.3528H269.038L270.544 11.7958V18.7361H267.168ZM279.062 18.7361L274.465 12.0333H278.075L282.697 18.7361H279.062ZM270.544 12.1653L269.038 10.5292H274.491C275.98 10.5292 277.097 10.2037 277.841 9.55278C278.603 8.90185 278.984 7.99583 278.984 6.83472C278.984 5.65602 278.603 4.75 277.841 4.11667C277.097 3.48333 275.98 3.16667 274.491 3.16667H269.038L270.544 1.47778V12.1653Z" fill="#2F455C"/>
<path d="M252.886 7.94306H261.923V10.7667H252.886V7.94306ZM253.145 15.8597H263.403V18.7361H249.77V0.263889H263.04V3.14028H253.145V15.8597Z" fill="#2F455C"/>
<path d="M231.184 18.7361V0.263889H238.663C240.273 0.263889 241.649 0.527778 242.792 1.05556C243.952 1.58333 244.843 2.33982 245.466 3.325C246.09 4.31019 246.401 5.48009 246.401 6.83472C246.401 8.18935 246.09 9.35926 245.466 10.3444C244.843 11.3296 243.952 12.0861 242.792 12.6139C241.649 13.1417 240.273 13.4056 238.663 13.4056H233.053L234.56 11.7958V18.7361H231.184ZM234.56 12.1653L233.053 10.5028H238.507C239.996 10.5028 241.112 10.1861 241.857 9.55278C242.619 8.90185 242.999 7.99583 242.999 6.83472C242.999 5.65602 242.619 4.75 241.857 4.11667C241.112 3.48333 239.996 3.16667 238.507 3.16667H233.053L234.56 1.47778V12.1653Z" fill="#2F455C"/>
<path d="M220.488 19C219.068 19 217.709 18.7977 216.411 18.3931C215.112 17.9708 214.082 17.4343 213.32 16.7833L214.489 14.1181C215.216 14.6986 216.116 15.1824 217.19 15.5694C218.263 15.9565 219.362 16.15 220.488 16.15C221.44 16.15 222.21 16.0444 222.799 15.8333C223.388 15.6222 223.82 15.3407 224.097 14.9889C224.374 14.6194 224.513 14.206 224.513 13.7486C224.513 13.1856 224.314 12.737 223.916 12.4028C223.517 12.0509 222.998 11.7782 222.357 11.5847C221.734 11.3736 221.033 11.1801 220.254 11.0042C219.492 10.8282 218.722 10.6259 217.943 10.3972C217.181 10.1509 216.48 9.84306 215.839 9.47361C215.216 9.08657 214.705 8.57639 214.307 7.94306C213.909 7.30972 213.71 6.50046 213.71 5.51528C213.71 4.5125 213.97 3.59769 214.489 2.77083C215.026 1.92639 215.831 1.25787 216.904 0.765277C217.995 0.255093 219.371 0 221.033 0C222.124 0 223.206 0.140741 224.279 0.422223C225.353 0.703704 226.287 1.10833 227.084 1.63611L226.019 4.30139C225.205 3.8088 224.366 3.44815 223.5 3.21944C222.634 2.97315 221.803 2.85 221.007 2.85C220.072 2.85 219.31 2.96435 218.722 3.19306C218.151 3.42176 217.726 3.72083 217.449 4.09028C217.19 4.45972 217.06 4.88194 217.06 5.35694C217.06 5.91991 217.25 6.37732 217.631 6.72917C218.029 7.06343 218.54 7.32731 219.163 7.52083C219.804 7.71435 220.514 7.90787 221.293 8.10139C222.072 8.27732 222.842 8.47963 223.604 8.70833C224.383 8.93704 225.084 9.23611 225.707 9.60556C226.348 9.975 226.859 10.4764 227.24 11.1097C227.638 11.7431 227.837 12.5435 227.837 13.5111C227.837 14.4963 227.569 15.4111 227.032 16.2556C226.513 17.0824 225.707 17.7509 224.617 18.2611C223.526 18.7537 222.15 19 220.488 19Z" fill="#2F455C"/>
<path d="M199.325 14.3819L199.143 10.3181L208.674 0.263889H212.465L204.545 8.81389L202.675 10.8986L199.325 14.3819ZM196.312 18.7361V0.263889H199.688V18.7361H196.312ZM208.985 18.7361L202.026 10.3181L204.259 7.81111L212.933 18.7361H208.985Z" fill="#2F455C"/>
<path d="M182.03 7.94306H191.068V10.7667H182.03V7.94306ZM182.29 15.8597H192.548V18.7361H178.914V0.263889H192.184V3.14028H182.29V15.8597Z" fill="#2F455C"/>
<path d="M152.742 18.7361V0.263889H160.221C161.831 0.263889 163.208 0.527778 164.35 1.05556C165.51 1.58333 166.402 2.33982 167.025 3.325C167.648 4.31019 167.96 5.48009 167.96 6.83472C167.96 8.18935 167.648 9.35926 167.025 10.3444C166.402 11.312 165.51 12.0597 164.35 12.5875C163.208 13.0977 161.831 13.3528 160.221 13.3528H154.612L156.118 11.7958V18.7361H152.742ZM164.636 18.7361L160.039 12.0333H163.649L168.272 18.7361H164.636ZM156.118 12.1653L154.612 10.5292H160.065C161.554 10.5292 162.671 10.2037 163.415 9.55278C164.177 8.90185 164.558 7.99583 164.558 6.83472C164.558 5.65602 164.177 4.75 163.415 4.11667C162.671 3.48333 161.554 3.16667 160.065 3.16667H154.612L156.118 1.47778V12.1653Z" fill="#2F455C"/>
<path d="M138.464 7.94306H147.501V10.7667H138.464V7.94306ZM138.724 15.8597H148.981V18.7361H135.348V0.263889H148.618V3.14028H138.724V15.8597Z" fill="#2F455C"/>
<path d="M119.438 14.3819L119.256 10.3181L128.787 0.263889H132.578L124.658 8.81389L122.788 10.8986L119.438 14.3819ZM116.426 18.7361V0.263889H119.802V18.7361H116.426ZM129.099 18.7361L122.139 10.3181L124.372 7.81111L133.046 18.7361H129.099Z" fill="#2F455C"/>
<path d="M103.754 19C101.261 19 99.3044 18.2875 97.8847 16.8625C96.4824 15.4375 95.7812 13.3792 95.7812 10.6875V0.263889H99.1572V10.5556C99.1572 12.4556 99.5554 13.8366 100.352 14.6986C101.165 15.5606 102.308 15.9917 103.78 15.9917C105.251 15.9917 106.385 15.5606 107.182 14.6986C107.978 13.8366 108.376 12.4556 108.376 10.5556V0.263889H111.7V10.6875C111.7 13.3792 110.99 15.4375 109.571 16.8625C108.168 18.2875 106.229 19 103.754 19Z" fill="#2F455C"/>
<path d="M76.9414 18.7361V0.263889H84.4204C86.0305 0.263889 87.4069 0.527778 88.5495 1.05556C89.7095 1.58333 90.6011 2.33982 91.2243 3.325C91.8476 4.31019 92.1592 5.48009 92.1592 6.83472C92.1592 8.18935 91.8476 9.35926 91.2243 10.3444C90.6011 11.312 89.7095 12.0597 88.5495 12.5875C87.4069 13.0977 86.0305 13.3528 84.4204 13.3528H78.8112L80.3174 11.7958V18.7361H76.9414ZM88.8352 18.7361L84.2387 12.0333H87.8483L92.4708 18.7361H88.8352ZM80.3174 12.1653L78.8112 10.5292H84.2646C85.7535 10.5292 86.8702 10.2037 87.6146 9.55278C88.3764 8.90185 88.7573 7.99583 88.7573 6.83472C88.7573 5.65602 88.3764 4.75 87.6146 4.11667C86.8702 3.48333 85.7535 3.16667 84.2646 3.16667H78.8112L80.3174 1.47778V12.1653Z" fill="#2F455C"/>
<path d="M57.1836 18.7361V0.263889H65.7014C67.8828 0.263889 69.5448 0.703705 70.6874 1.58333C71.8301 2.44537 72.4014 3.60648 72.4014 5.06667C72.4014 6.05185 72.1763 6.8963 71.7262 7.6C71.276 8.28611 70.6701 8.82269 69.9084 9.20972C69.1639 9.57917 68.3502 9.76389 67.4673 9.76389L67.9347 8.81389C68.9562 8.81389 69.8737 9.00741 70.6874 9.39444C71.5011 9.76389 72.1417 10.3093 72.6091 11.0306C73.0939 11.7519 73.3362 12.6491 73.3362 13.7222C73.3362 15.3056 72.739 16.537 71.5444 17.4167C70.3498 18.2963 68.5753 18.7361 66.2208 18.7361H57.1836ZM60.5596 16.0444H66.013C67.2768 16.0444 68.2463 15.8333 68.9215 15.4111C69.5967 14.9889 69.9343 14.3116 69.9343 13.3792C69.9343 12.4644 69.5967 11.7958 68.9215 11.3736C68.2463 10.9338 67.2768 10.7139 66.013 10.7139H60.2999V8.04861H65.3378C66.5151 8.04861 67.4153 7.8375 68.0386 7.41528C68.6792 6.99306 68.9994 6.35972 68.9994 5.51528C68.9994 4.65324 68.6792 4.01111 68.0386 3.58889C67.4153 3.16667 66.5151 2.95556 65.3378 2.95556H60.5596V16.0444Z" fill="#2F455C"/>
<path d="M38.1914 18.7361V0.263889H45.6704C47.2805 0.263889 48.6569 0.527778 49.7995 1.05556C50.9595 1.58333 51.8511 2.33982 52.4743 3.325C53.0976 4.31019 53.4092 5.48009 53.4092 6.83472C53.4092 8.18935 53.0976 9.35926 52.4743 10.3444C51.8511 11.312 50.9595 12.0597 49.7995 12.5875C48.6569 13.0977 47.2805 13.3528 45.6704 13.3528H40.0612L41.5674 11.7958V18.7361H38.1914ZM50.0852 18.7361L45.4887 12.0333H49.0983L53.7208 18.7361H50.0852ZM41.5674 12.1653L40.0612 10.5292H45.5146C47.0035 10.5292 48.1202 10.2037 48.8646 9.55278C49.6264 8.90185 50.0073 7.99583 50.0073 6.83472C50.0073 5.65602 49.6264 4.75 48.8646 4.11667C48.1202 3.48333 47.0035 3.16667 45.5146 3.16667H40.0612L41.5674 1.47778V12.1653Z" fill="#2F455C"/>
<path d="M24.8475 19C23.4279 19 22.1208 18.7625 20.9262 18.2875C19.7316 17.8125 18.6929 17.1528 17.8099 16.3083C16.927 15.4463 16.2431 14.4435 15.7584 13.3C15.2736 12.1389 15.0312 10.8722 15.0312 9.5C15.0312 8.12778 15.2736 6.86991 15.7584 5.72639C16.2431 4.56528 16.927 3.5625 17.8099 2.71805C18.6929 1.85602 19.7316 1.1875 20.9262 0.7125C22.1208 0.2375 23.4192 0 24.8215 0C26.2412 0 27.5396 0.2375 28.7169 0.7125C29.9114 1.1875 30.9502 1.85602 31.8331 2.71805C32.7161 3.5625 33.3999 4.56528 33.8847 5.72639C34.3694 6.86991 34.6118 8.12778 34.6118 9.5C34.6118 10.8722 34.3694 12.1389 33.8847 13.3C33.3999 14.4611 32.7161 15.4639 31.8331 16.3083C30.9502 17.1528 29.9114 17.8125 28.7169 18.2875C27.5396 18.7625 26.2498 19 24.8475 19ZM24.8215 15.9917C25.7391 15.9917 26.5874 15.8333 27.3665 15.5167C28.1455 15.2 28.8207 14.7514 29.392 14.1708C29.9634 13.5727 30.4048 12.8866 30.7165 12.1125C31.0454 11.3208 31.2099 10.45 31.2099 9.5C31.2099 8.55 31.0454 7.68796 30.7165 6.91389C30.4048 6.12222 29.9634 5.43611 29.392 4.85556C28.8207 4.25741 28.1455 3.8 27.3665 3.48333C26.5874 3.16667 25.7391 3.00833 24.8215 3.00833C23.904 3.00833 23.0556 3.16667 22.2766 3.48333C21.5148 3.8 20.8396 4.25741 20.251 4.85556C19.6797 5.43611 19.2296 6.12222 18.9006 6.91389C18.589 7.68796 18.4332 8.55 18.4332 9.5C18.4332 10.4324 18.589 11.2944 18.9006 12.0861C19.2296 12.8778 19.6797 13.5727 20.251 14.1708C20.8223 14.7514 21.4975 15.2 22.2766 15.5167C23.0556 15.8333 23.904 15.9917 24.8215 15.9917Z" fill="#2F455C"/>
<path d="M3.0903 8.76111H12.1534V11.6639H3.0903V8.76111ZM3.37596 18.7361H0V0.263889H13.2701V3.14028H3.37596V18.7361Z" fill="#2F455C"/>
</svg>
