<svg width="299" height="19" viewBox="0 0 299 19" fill="none" xmlns="http://www.w3.org/2000/svg">
<path d="M289.599 18.7359V3.16645H283.574V0.263672H299V3.16645H292.975V18.7359H289.599Z" fill="white"/>
<path d="M267.168 18.7359V0.263672H274.647C276.257 0.263672 277.633 0.527561 278.776 1.05534C279.936 1.58312 280.828 2.3396 281.451 3.32478C282.074 4.30997 282.386 5.47988 282.386 6.83451C282.386 8.18914 282.074 9.35904 281.451 10.3442C280.828 11.3118 279.936 12.0595 278.776 12.5873C277.633 13.0975 276.257 13.3526 274.647 13.3526H269.038L270.544 11.7956V18.7359H267.168ZM279.062 18.7359L274.465 12.0331H278.075L282.697 18.7359H279.062ZM270.544 12.1651L269.038 10.5289H274.491C275.98 10.5289 277.097 10.2035 277.841 9.55256C278.603 8.90163 278.984 7.99562 278.984 6.83451C278.984 5.6558 278.603 4.74978 277.841 4.11645C277.097 3.48312 275.98 3.16645 274.491 3.16645H269.038L270.544 1.47756V12.1651Z" fill="white"/>
<path d="M252.886 7.94284H261.923V10.7664H252.886V7.94284ZM253.145 15.8595H263.403V18.7359H249.77V0.263672H263.04V3.14006H253.145V15.8595Z" fill="white"/>
<path d="M231.184 18.7359V0.263672H238.663C240.273 0.263672 241.649 0.527561 242.792 1.05534C243.952 1.58312 244.843 2.3396 245.466 3.32478C246.09 4.30997 246.401 5.47988 246.401 6.83451C246.401 8.18914 246.09 9.35904 245.466 10.3442C244.843 11.3294 243.952 12.0859 242.792 12.6137C241.649 13.1414 240.273 13.4053 238.663 13.4053H233.053L234.56 11.7956V18.7359H231.184ZM234.56 12.1651L233.053 10.5026H238.507C239.996 10.5026 241.112 10.1859 241.857 9.55256C242.619 8.90163 242.999 7.99562 242.999 6.83451C242.999 5.6558 242.619 4.74978 241.857 4.11645C241.112 3.48312 239.996 3.16645 238.507 3.16645H233.053L234.56 1.47756V12.1651Z" fill="white"/>
<path d="M220.488 19C219.068 19 217.709 18.7977 216.411 18.3931C215.112 17.9708 214.082 17.4343 213.32 16.7833L214.489 14.1181C215.216 14.6986 216.116 15.1824 217.19 15.5694C218.263 15.9565 219.362 16.15 220.488 16.15C221.44 16.15 222.21 16.0444 222.799 15.8333C223.388 15.6222 223.82 15.3407 224.097 14.9889C224.374 14.6194 224.513 14.206 224.513 13.7486C224.513 13.1856 224.314 12.737 223.916 12.4028C223.517 12.0509 222.998 11.7782 222.357 11.5847C221.734 11.3736 221.033 11.1801 220.254 11.0042C219.492 10.8282 218.722 10.6259 217.943 10.3972C217.181 10.1509 216.48 9.84306 215.839 9.47361C215.216 9.08657 214.705 8.57639 214.307 7.94306C213.909 7.30972 213.71 6.50046 213.71 5.51528C213.71 4.5125 213.97 3.59769 214.489 2.77083C215.026 1.92639 215.831 1.25787 216.904 0.765277C217.995 0.255093 219.371 0 221.033 0C222.124 0 223.206 0.140741 224.279 0.422223C225.353 0.703704 226.287 1.10833 227.084 1.63611L226.019 4.30139C225.205 3.8088 224.366 3.44815 223.5 3.21944C222.634 2.97315 221.803 2.85 221.007 2.85C220.072 2.85 219.31 2.96435 218.722 3.19306C218.151 3.42176 217.726 3.72083 217.449 4.09028C217.19 4.45972 217.06 4.88194 217.06 5.35694C217.06 5.91991 217.25 6.37732 217.631 6.72917C218.029 7.06343 218.54 7.32731 219.163 7.52083C219.804 7.71435 220.514 7.90787 221.293 8.10139C222.072 8.27732 222.842 8.47963 223.604 8.70833C224.383 8.93704 225.084 9.23611 225.707 9.60556C226.348 9.975 226.859 10.4764 227.24 11.1097C227.638 11.7431 227.837 12.5435 227.837 13.5111C227.837 14.4963 227.569 15.4111 227.032 16.2556C226.513 17.0824 225.707 17.7509 224.617 18.2611C223.526 18.7537 222.15 19 220.488 19Z" fill="white"/>
<path d="M199.325 14.3817L199.143 10.3178L208.674 0.263672H212.465L204.545 8.81367L202.675 10.8984L199.325 14.3817ZM196.312 18.7359V0.263672H199.688V18.7359H196.312ZM208.985 18.7359L202.026 10.3178L204.259 7.81089L212.933 18.7359H208.985Z" fill="white"/>
<path d="M182.03 7.94284H191.068V10.7664H182.03V7.94284ZM182.29 15.8595H192.548V18.7359H178.914V0.263672H192.184V3.14006H182.29V15.8595Z" fill="white"/>
<path d="M152.742 18.7359V0.263672H160.221C161.831 0.263672 163.208 0.527561 164.35 1.05534C165.51 1.58312 166.402 2.3396 167.025 3.32478C167.648 4.30997 167.96 5.47988 167.96 6.83451C167.96 8.18914 167.648 9.35904 167.025 10.3442C166.402 11.3118 165.51 12.0595 164.35 12.5873C163.208 13.0975 161.831 13.3526 160.221 13.3526H154.612L156.118 11.7956V18.7359H152.742ZM164.636 18.7359L160.039 12.0331H163.649L168.272 18.7359H164.636ZM156.118 12.1651L154.612 10.5289H160.065C161.554 10.5289 162.671 10.2035 163.415 9.55256C164.177 8.90163 164.558 7.99562 164.558 6.83451C164.558 5.6558 164.177 4.74978 163.415 4.11645C162.671 3.48312 161.554 3.16645 160.065 3.16645H154.612L156.118 1.47756V12.1651Z" fill="white"/>
<path d="M138.464 7.94284H147.501V10.7664H138.464V7.94284ZM138.724 15.8595H148.981V18.7359H135.348V0.263672H148.618V3.14006H138.724V15.8595Z" fill="white"/>
<path d="M119.438 14.3817L119.256 10.3178L128.787 0.263672H132.578L124.658 8.81367L122.788 10.8984L119.438 14.3817ZM116.426 18.7359V0.263672H119.802V18.7359H116.426ZM129.099 18.7359L122.139 10.3178L124.372 7.81089L133.046 18.7359H129.099Z" fill="white"/>
<path d="M103.754 18.9998C101.261 18.9998 99.3044 18.2873 97.8847 16.8623C96.4824 15.4373 95.7812 13.3789 95.7812 10.6873V0.263672H99.1572V10.5553C99.1572 12.4553 99.5554 13.8364 100.352 14.6984C101.165 15.5604 102.308 15.9914 103.78 15.9914C105.251 15.9914 106.385 15.5604 107.182 14.6984C107.978 13.8364 108.376 12.4553 108.376 10.5553V0.263672H111.7V10.6873C111.7 13.3789 110.99 15.4373 109.571 16.8623C108.168 18.2873 106.229 18.9998 103.754 18.9998Z" fill="white"/>
<path d="M76.9414 18.7359V0.263672H84.4204C86.0305 0.263672 87.4069 0.527561 88.5495 1.05534C89.7095 1.58312 90.6011 2.3396 91.2243 3.32478C91.8476 4.30997 92.1592 5.47988 92.1592 6.83451C92.1592 8.18914 91.8476 9.35904 91.2243 10.3442C90.6011 11.3118 89.7095 12.0595 88.5495 12.5873C87.4069 13.0975 86.0305 13.3526 84.4204 13.3526H78.8112L80.3174 11.7956V18.7359H76.9414ZM88.8352 18.7359L84.2387 12.0331H87.8483L92.4708 18.7359H88.8352ZM80.3174 12.1651L78.8112 10.5289H84.2646C85.7535 10.5289 86.8702 10.2035 87.6146 9.55256C88.3764 8.90163 88.7573 7.99562 88.7573 6.83451C88.7573 5.6558 88.3764 4.74978 87.6146 4.11645C86.8702 3.48312 85.7535 3.16645 84.2646 3.16645H78.8112L80.3174 1.47756V12.1651Z" fill="white"/>
<path d="M57.1836 18.7359V0.263672H65.7014C67.8828 0.263672 69.5448 0.703487 70.6874 1.58312C71.8301 2.44515 72.4014 3.60627 72.4014 5.06645C72.4014 6.05164 72.1763 6.89608 71.7262 7.59978C71.276 8.28589 70.6701 8.82247 69.9084 9.20951C69.1639 9.57895 68.3502 9.76367 67.4673 9.76367L67.9347 8.81367C68.9562 8.81367 69.8737 9.00719 70.6874 9.39423C71.5011 9.76367 72.1417 10.309 72.6091 11.0303C73.0939 11.7516 73.3362 12.6489 73.3362 13.722C73.3362 15.3053 72.739 16.5368 71.5444 17.4165C70.3498 18.2961 68.5753 18.7359 66.2208 18.7359H57.1836ZM60.5596 16.0442H66.013C67.2768 16.0442 68.2463 15.8331 68.9215 15.4109C69.5967 14.9887 69.9343 14.3114 69.9343 13.3789C69.9343 12.4641 69.5967 11.7956 68.9215 11.3734C68.2463 10.9336 67.2768 10.7137 66.013 10.7137H60.2999V8.04839H65.3378C66.5151 8.04839 67.4153 7.83728 68.0386 7.41506C68.6792 6.99284 68.9994 6.35951 68.9994 5.51506C68.9994 4.65302 68.6792 4.0109 68.0386 3.58867C67.4153 3.16645 66.5151 2.95534 65.3378 2.95534H60.5596V16.0442Z" fill="white"/>
<path d="M38.1914 18.7359V0.263672H45.6704C47.2805 0.263672 48.6569 0.527561 49.7995 1.05534C50.9595 1.58312 51.8511 2.3396 52.4743 3.32478C53.0976 4.30997 53.4092 5.47988 53.4092 6.83451C53.4092 8.18914 53.0976 9.35904 52.4743 10.3442C51.8511 11.3118 50.9595 12.0595 49.7995 12.5873C48.6569 13.0975 47.2805 13.3526 45.6704 13.3526H40.0612L41.5674 11.7956V18.7359H38.1914ZM50.0852 18.7359L45.4887 12.0331H49.0983L53.7208 18.7359H50.0852ZM41.5674 12.1651L40.0612 10.5289H45.5146C47.0035 10.5289 48.1202 10.2035 48.8646 9.55256C49.6264 8.90163 50.0073 7.99562 50.0073 6.83451C50.0073 5.6558 49.6264 4.74978 48.8646 4.11645C48.1202 3.48312 47.0035 3.16645 45.5146 3.16645H40.0612L41.5674 1.47756V12.1651Z" fill="white"/>
<path d="M24.8475 19C23.4279 19 22.1208 18.7625 20.9262 18.2875C19.7316 17.8125 18.6929 17.1528 17.8099 16.3083C16.927 15.4463 16.2431 14.4435 15.7584 13.3C15.2736 12.1389 15.0312 10.8722 15.0312 9.5C15.0312 8.12778 15.2736 6.86991 15.7584 5.72639C16.2431 4.56528 16.927 3.5625 17.8099 2.71805C18.6929 1.85602 19.7316 1.1875 20.9262 0.7125C22.1208 0.2375 23.4192 0 24.8215 0C26.2412 0 27.5396 0.2375 28.7169 0.7125C29.9114 1.1875 30.9502 1.85602 31.8331 2.71805C32.7161 3.5625 33.3999 4.56528 33.8847 5.72639C34.3694 6.86991 34.6118 8.12778 34.6118 9.5C34.6118 10.8722 34.3694 12.1389 33.8847 13.3C33.3999 14.4611 32.7161 15.4639 31.8331 16.3083C30.9502 17.1528 29.9114 17.8125 28.7169 18.2875C27.5396 18.7625 26.2498 19 24.8475 19ZM24.8215 15.9917C25.7391 15.9917 26.5874 15.8333 27.3665 15.5167C28.1455 15.2 28.8207 14.7514 29.392 14.1708C29.9634 13.5727 30.4048 12.8866 30.7165 12.1125C31.0454 11.3208 31.2099 10.45 31.2099 9.5C31.2099 8.55 31.0454 7.68796 30.7165 6.91389C30.4048 6.12222 29.9634 5.43611 29.392 4.85556C28.8207 4.25741 28.1455 3.8 27.3665 3.48333C26.5874 3.16667 25.7391 3.00833 24.8215 3.00833C23.904 3.00833 23.0556 3.16667 22.2766 3.48333C21.5148 3.8 20.8396 4.25741 20.251 4.85556C19.6797 5.43611 19.2296 6.12222 18.9006 6.91389C18.589 7.68796 18.4332 8.55 18.4332 9.5C18.4332 10.4324 18.589 11.2944 18.9006 12.0861C19.2296 12.8778 19.6797 13.5727 20.251 14.1708C20.8223 14.7514 21.4975 15.2 22.2766 15.5167C23.0556 15.8333 23.904 15.9917 24.8215 15.9917Z" fill="white"/>
<path d="M3.0903 8.76089H12.1534V11.6637H3.0903V8.76089ZM3.37596 18.7359H0V0.263672H13.2701V3.14006H3.37596V18.7359Z" fill="white"/>
</svg>
