<svg width="40" height="25" viewBox="0 0 40 25" fill="none" xmlns="http://www.w3.org/2000/svg">
<path d="M1.01087 5.90979C1.27299 5.98483 1.42459 6.25816 1.34956 6.52024C1.05297 7.55625 0.937607 8.66735 1.00672 9.82274C1.13383 11.964 2.17716 13.3047 4.18601 15.1733C6.61233 17.4281 7.16467 18.945 7.60851 20.1639C7.93866 21.0706 8.19941 21.7867 9.15121 22.6454C10.2593 23.6456 11.6997 24.098 12.9101 23.826C13.8062 23.6244 14.2923 22.9746 14.5422 22.4651C15.0082 21.5151 15.0327 20.2594 14.6031 19.3404L14.5866 19.305C14.2564 18.5988 13.8821 17.7984 13.7436 16.879C13.3536 14.2894 14.0772 12.622 14.7861 11.2625C16.4008 8.16536 16.4226 5.88086 14.8571 3.85523C14.0965 2.87095 12.9978 2.0903 11.68 1.59764C8.57369 0.43638 5.57385 0.936938 3.44978 2.97096C3.25286 3.15949 2.94034 3.15272 2.75181 2.95586C2.56324 2.75894 2.57 2.44646 2.76692 2.25789C3.90482 1.16826 5.32905 0.438453 6.88557 0.147448C8.53766 -0.161328 10.267 0.0153479 12.0257 0.672886C13.5159 1.22997 14.7651 2.12164 15.6382 3.2515C17.4463 5.59085 17.4537 8.28142 15.6616 11.7189C15.0247 12.9405 14.3741 14.4359 14.7199 16.732C14.8371 17.5099 15.1792 18.2414 15.481 18.8867L15.4975 18.9222C16.0555 20.1158 16.0284 21.6772 15.4286 22.8999C14.941 23.894 14.1235 24.5649 13.1267 24.7892C12.8151 24.8592 12.4957 24.8936 12.173 24.8935C10.8998 24.8935 9.57664 24.3594 8.48982 23.3783C7.35577 22.3552 7.02793 21.4549 6.6808 20.5017C6.25202 19.3241 5.76602 17.9893 3.51376 15.8963C1.69797 14.2073 0.181883 12.5889 0.0212002 9.88143C-0.0545731 8.61444 0.0729847 7.39212 0.400421 6.24843C0.475456 5.98641 0.74864 5.83476 1.01087 5.90979Z" fill="#B7C9D6"/>
<path d="M12.941 19.5713C13.188 19.4558 13.4818 19.5625 13.5972 19.8095C14.1419 20.975 13.826 21.6982 13.5892 22.0255C13.257 22.4848 12.6879 22.7418 12.0292 22.7418C11.9264 22.7418 11.8215 22.7355 11.715 22.7228C10.7602 22.6088 9.51296 21.9325 8.87576 20.3763C8.77244 20.124 8.89323 19.8357 9.14553 19.7324C9.39779 19.6291 9.68608 19.75 9.7894 20.0022C10.2643 21.1622 11.1559 21.6618 11.832 21.7425C12.2604 21.7937 12.6183 21.6831 12.7892 21.4469C12.9786 21.1851 12.9479 20.7521 12.7028 20.2275C12.5873 19.9805 12.694 19.6867 12.941 19.5713Z" fill="#B7C9D6"/>
<path d="M8.56573 16.1093C8.76714 16.2931 8.78141 16.6053 8.59762 16.8067C8.50023 16.9134 8.36679 16.9675 8.23282 16.9675C8.11405 16.9675 7.99488 16.9249 7.9002 16.8385C4.50326 13.7388 2.99537 11.5704 2.85823 9.58865C2.787 8.57751 2.88252 7.63958 3.14233 6.80033C3.74798 4.85319 5.25494 3.47255 7.27692 3.01257C9.43021 2.52268 11.715 3.16713 13.0976 4.65449C13.9717 5.59494 14.7048 7.13132 14.141 8.62278C13.5301 10.2413 11.8597 11.0558 10.5978 10.9077C9.97757 10.8352 9.56754 11.0526 9.41268 11.5367C9.15984 12.3268 9.63823 13.551 10.8763 14.232C11.1152 14.3634 11.2024 14.6636 11.071 14.9025C10.9396 15.1413 10.6394 15.2284 10.4005 15.0971C8.65316 14.136 8.10294 12.3903 8.47234 11.2359C8.77124 10.3019 9.6294 9.80047 10.7127 9.92714C11.5787 10.0286 12.7828 9.4256 13.2175 8.27397C13.6217 7.20453 13.0471 6.05033 12.3745 5.32669C11.2449 4.11148 9.28448 3.56847 7.496 3.97528C6.51493 4.19846 4.76727 4.90038 4.08534 7.09291C3.86206 7.81428 3.78056 8.63063 3.84316 9.51993C3.95961 11.2029 5.41612 13.2352 8.56573 16.1093Z" fill="#B7C9D6"/>
<path d="M2.08349 4.7113C1.98723 4.80751 1.8614 4.85554 1.73547 4.85554C1.6091 4.85554 1.48263 4.80716 1.38608 4.71061C1.19331 4.51784 1.194 4.20458 1.38677 4.01176C1.57953 3.819 1.8921 3.819 2.08492 4.01176C2.27768 4.20453 2.27768 4.5171 2.08492 4.70992L2.08349 4.7113Z" fill="#B7C9D6"/>
<path d="M38.9891 5.90979C38.727 5.98483 38.5754 6.25816 38.6504 6.52024C38.947 7.55625 39.0624 8.66735 38.9933 9.82274C38.8662 11.964 37.8228 13.3047 35.814 15.1733C33.3877 17.4281 32.8353 18.945 32.3915 20.1639C32.0613 21.0706 31.8006 21.7867 30.8488 22.6454C29.7407 23.6456 28.3003 24.098 27.0899 23.826C26.1938 23.6244 25.7077 22.9746 25.4578 22.4651C24.9918 21.5151 24.9673 20.2594 25.3969 19.3404L25.4134 19.305C25.7436 18.5988 26.1179 17.7984 26.2564 16.879C26.6464 14.2894 25.9228 12.622 25.2139 11.2625C23.5992 8.16536 23.5774 5.88086 25.1429 3.85523C25.9035 2.87095 27.0022 2.0903 28.32 1.59764C31.4263 0.43638 34.4262 0.936938 36.5502 2.97096C36.7471 3.15949 37.0597 3.15272 37.2482 2.95586C37.4368 2.75894 37.43 2.44646 37.2331 2.25789C36.0952 1.16826 34.671 0.438453 33.1144 0.147448C31.4623 -0.161328 29.733 0.0153479 27.9743 0.672886C26.4841 1.22997 25.2349 2.12164 24.3618 3.2515C22.5537 5.59085 22.5463 8.28142 24.3384 11.7189C24.9753 12.9405 25.6259 14.4359 25.2801 16.732C25.1629 17.5099 24.8208 18.2414 24.519 18.8867L24.5025 18.9222C23.9445 20.1158 23.9716 21.6772 24.5714 22.8999C25.059 23.894 25.8765 24.5649 26.8733 24.7892C27.1849 24.8592 27.5043 24.8936 27.827 24.8935C29.1002 24.8935 30.4234 24.3594 31.5102 23.3783C32.6442 22.3552 32.9721 21.4549 33.3192 20.5017C33.748 19.3241 34.234 17.9893 36.4862 15.8963C38.302 14.2073 39.8181 12.5889 39.9788 9.88143C40.0546 8.61444 39.927 7.39212 39.5996 6.24843C39.5245 5.98641 39.2514 5.83476 38.9891 5.90979Z" fill="#2191FB"/>
<path d="M27.059 19.5713C26.812 19.4558 26.5182 19.5625 26.4028 19.8095C25.8581 20.975 26.174 21.6982 26.4108 22.0255C26.743 22.4848 27.3121 22.7418 27.9708 22.7418C28.0736 22.7418 28.1785 22.7355 28.285 22.7228C29.2398 22.6088 30.487 21.9325 31.1242 20.3763C31.2276 20.124 31.1068 19.8357 30.8545 19.7324C30.6022 19.6291 30.3139 19.75 30.2106 20.0022C29.7357 21.1622 28.8441 21.6618 28.168 21.7425C27.7396 21.7937 27.3817 21.6831 27.2108 21.4469C27.0214 21.1851 27.0521 20.7521 27.2972 20.2275C27.4127 19.9805 27.306 19.6867 27.059 19.5713Z" fill="#2191FB"/>
<path d="M31.4343 16.1093C31.2329 16.2931 31.2186 16.6053 31.4024 16.8067C31.4998 16.9134 31.6332 16.9675 31.7672 16.9675C31.886 16.9675 32.0051 16.9249 32.0998 16.8385C35.4967 13.7388 37.0046 11.5704 37.1418 9.58865C37.213 8.57751 37.1175 7.63958 36.8577 6.80033C36.252 4.85319 34.7451 3.47255 32.7231 3.01257C30.5698 2.52268 28.285 3.16713 26.9024 4.65449C26.0283 5.59494 25.2952 7.13132 25.859 8.62278C26.4699 10.2413 28.1403 11.0558 29.4022 10.9077C30.0224 10.8352 30.4325 11.0526 30.5873 11.5367C30.8402 12.3268 30.3618 13.551 29.1237 14.232C28.8848 14.3634 28.7976 14.6636 28.929 14.9025C29.0604 15.1413 29.3606 15.2284 29.5995 15.0971C31.3468 14.136 31.8971 12.3903 31.5277 11.2359C31.2288 10.3019 30.3706 9.80047 29.2873 9.92714C28.4213 10.0286 27.2172 9.4256 26.7825 8.27397C26.3783 7.20453 26.9529 6.05033 27.6255 5.32669C28.7551 4.11148 30.7155 3.56847 32.504 3.97528C33.4851 4.19846 35.2327 4.90038 35.9147 7.09291C36.1379 7.81428 36.2194 8.63063 36.1568 9.51993C36.0404 11.2029 34.5839 13.2352 31.4343 16.1093Z" fill="#2191FB"/>
<path d="M37.9165 4.7113C38.0128 4.80751 38.1386 4.85554 38.2645 4.85554C38.3909 4.85554 38.5174 4.80716 38.6139 4.71061C38.8067 4.51784 38.806 4.20458 38.6132 4.01176C38.4205 3.819 38.1079 3.819 37.9151 4.01176C37.7223 4.20453 37.7223 4.5171 37.9151 4.70992L37.9165 4.7113Z" fill="#2191FB"/>
</svg>
