<svg width="240" height="32" fill="none" xmlns="http://www.w3.org/2000/svg"><path d="M239.83 19.788v2.943h-10.808V9.269h10.558v2.942h-6.788v2.27h5.98v2.846h-5.98v2.461h7.038zM221.537 23c-1.411 0-2.68-.295-3.808-.885a6.777 6.777 0 01-2.635-2.5c-.641-1.064-.961-2.269-.961-3.615s.32-2.551.961-3.615a6.639 6.639 0 012.635-2.481C218.857 9.3 220.126 9 221.537 9c1.23 0 2.339.218 3.327.654a6.4 6.4 0 012.461 1.885l-2.423 2.192c-.872-1.051-1.929-1.577-3.173-1.577-.731 0-1.385.16-1.962.48A3.398 3.398 0 00218.441 14c-.308.577-.462 1.244-.462 2s.154 1.43.462 2.02a3.43 3.43 0 001.326 1.345c.577.32 1.231.481 1.962.481 1.244 0 2.301-.526 3.173-1.577l2.423 2.193a6.401 6.401 0 01-2.461 1.884c-.988.436-2.097.654-3.327.654zm-9.398-13.73v13.46h-3.135l-5.942-7.172v7.173h-3.731V9.269h3.135l5.942 7.173V9.27h3.731zm-18.907 10.845h-5.692l-1.058 2.616h-3.884l5.942-13.462h3.75l5.962 13.462h-3.962l-1.058-2.616zm-1.115-2.807L190.386 13l-1.731 4.308h3.462zm-16.254 1.846h-2.077v3.577h-3.807V9.269h6.153c1.218 0 2.276.205 3.173.616.898.397 1.59.974 2.077 1.73.488.744.731 1.622.731 2.635 0 .974-.231 1.827-.692 2.558-.449.718-1.096 1.282-1.942 1.692l2.903 4.23h-4.077l-2.442-3.576zm2.404-4.904c0-.628-.199-1.115-.596-1.461-.398-.347-.987-.52-1.769-.52h-2.116v3.943h2.116c.782 0 1.371-.167 1.769-.5.397-.347.596-.834.596-1.462zM161.072 23c-2 0-3.558-.545-4.673-1.635-1.103-1.09-1.654-2.634-1.654-4.634V9.269h3.808v7.346c0 2.154.852 3.231 2.557 3.231 1.693 0 2.539-1.077 2.539-3.23V9.268h3.75v7.462c0 2-.558 3.545-1.673 4.634-1.103 1.09-2.654 1.635-4.654 1.635zm-13.932 0a12.44 12.44 0 01-3.173-.404c-1.026-.27-1.859-.628-2.5-1.077l1.25-2.807a8.075 8.075 0 002.096.961 7.98 7.98 0 002.346.366c1.462 0 2.192-.366 2.192-1.097 0-.384-.211-.666-.634-.846-.41-.192-1.077-.39-2-.596-1.013-.218-1.859-.449-2.539-.692a4.367 4.367 0 01-1.75-1.212c-.487-.551-.73-1.295-.73-2.23 0-.821.224-1.558.673-2.212.448-.667 1.115-1.192 2-1.577.897-.385 1.993-.577 3.288-.577.885 0 1.757.103 2.615.308.859.192 1.616.48 2.27.865L151.371 13c-1.282-.692-2.526-1.039-3.731-1.039-.757 0-1.308.116-1.654.347-.346.218-.519.506-.519.865 0 .36.205.628.615.808.41.18 1.071.365 1.981.558 1.026.217 1.872.455 2.538.711.68.244 1.263.641 1.75 1.192.5.539.75 1.276.75 2.212 0 .808-.224 1.538-.673 2.192-.448.654-1.121 1.18-2.019 1.577-.897.385-1.987.577-3.269.577zm-7.416-13.73v13.46h-3.135l-5.942-7.172v7.173h-3.731V9.269h3.135l5.942 7.173V9.27h3.731zm-19.326 0h3.808v13.46h-3.808V9.27zm-11.694 10.845h-5.692l-1.058 2.616h-3.885l5.943-13.462h3.75l5.961 13.462h-3.961l-1.058-2.616zm-1.115-2.807L105.858 13l-1.731 4.308h3.462zM91.964 23c-1.09 0-2.147-.135-3.173-.404-1.026-.27-1.859-.628-2.5-1.077l1.25-2.807a8.087 8.087 0 002.096.961 7.979 7.979 0 002.346.366c1.462 0 2.193-.366 2.193-1.097 0-.384-.212-.666-.635-.846-.41-.192-1.077-.39-2-.596-1.013-.218-1.859-.449-2.538-.692a4.357 4.357 0 01-1.75-1.212c-.488-.551-.731-1.295-.731-2.23 0-.821.224-1.558.673-2.212.449-.667 1.115-1.192 2-1.577.897-.385 1.994-.577 3.288-.577.885 0 1.757.103 2.616.308.859.192 1.615.48 2.269.865L96.195 13c-1.282-.692-2.526-1.039-3.73-1.039-.757 0-1.309.116-1.655.347-.346.218-.519.506-.519.865 0 .36.205.628.615.808.41.18 1.07.365 1.981.558 1.026.217 1.872.455 2.539.711a4.19 4.19 0 011.75 1.192c.5.539.75 1.276.75 2.212a3.79 3.79 0 01-.673 2.192c-.45.654-1.122 1.18-2.02 1.577-.897.385-1.987.577-3.269.577zm-13.637 0c-2 0-3.558-.545-4.673-1.635C72.55 20.275 72 18.731 72 16.731V9.269h3.808v7.346c0 2.154.852 3.231 2.557 3.231 1.693 0 2.539-1.077 2.539-3.23V9.268h3.75v7.462c0 2-.558 3.545-1.673 4.634C81.878 22.455 80.327 23 78.327 23z" fill="#1A64B7"/><g clip-path="url(#clip0_68_7799)"><path d="M46.4 14.614l.052 1.56c0-.028-.006-.057-.012-.086-.165-.617-1.692-.833-3.23-.833-5.263.046-10.85.876-16.601 2.465-1.104.306-2.2.635-3.26.952-1.002.3-2.025.605-3.066.894l-.037-1.07c-.003-.11-.15-.214-.432-.312-.849-.288-1.886-.38-2.947-.377l.061 1.747v.038c1.06 0 2.1.089 2.95.377.28.095.429.202.431.312l.038 1.07c1.04-.292 2.066-.594 3.066-.894 1.06-.32 2.159-.65 3.26-.952 5.752-1.589 11.335-2.42 16.6-2.465 1.539 0 3.063.216 3.23.833a.296.296 0 01.013.086l-.053-1.56c2.197-.158 4.405-.256 6.616-.297l-.061-1.785c-2.211.04-4.422.142-6.615.297H46.4z" fill="#DB3232"/><path d="M46.522 18.187l.014.395.04 1.165a.444.444 0 00-.011-.086c-.165-.617-1.692-.834-3.23-.834-5.263.047-10.85.877-16.601 2.466-1.104.306-2.2.634-3.26.952-1.003.3-2.026.605-3.066.893l-.037-1.07c-.003-.109-.151-.213-.432-.31-.85-.29-1.95-.364-3.008-.364l.072 1.73-.008-1.733c-.67 0-1.348.038-1.99.084-4.973.357-9.772 1.107-14.266 2.232L.8 25.448c4.494-1.121 9.293-1.874 14.265-2.232a28.013 28.013 0 011.99-.083c1.061 0 2.099.09 2.948.378.321.11.469.233.423.36-.044.118-.24.196-.423.26-1.325.467-2.797.879-4.216 1.277-1.244.349-2.504.704-3.68 1.099 1.903-.145 3.929-.47 6.064-.98 1.849-.445 3.64-.978 5.367-1.497 1.06-.32 2.158-.65 3.26-.952 5.751-1.589 11.335-2.42 16.6-2.466 1.538 0 3.063.217 3.23.834a.296.296 0 01.012.086l-.023-.651-.032-.955a123.13 123.13 0 016.615-.297l-.06-1.739c-2.211.04-4.422.142-6.616.297h-.002z" fill="#DB3232"/><path d="M46.46 16.402l.053 1.56c0-.029-.006-.057-.012-.086-.165-.617-1.692-.834-3.23-.834-5.263.047-10.85.877-16.601 2.466-1.104.306-2.2.634-3.26.952-1.002.3-2.025.605-3.066.893l-.037-1.07c-.003-.109-.15-.213-.432-.31-.849-.29-1.93-.381-2.99-.381l.014 1.762.09.043c1.06 0 2.098.075 2.947.363.281.095.429.202.432.312l.037 1.07c1.04-.292 2.066-.595 3.066-.895 1.06-.317 2.159-.648 3.26-.951 5.752-1.589 11.335-2.42 16.6-2.466 1.539 0 3.063.217 3.231.834a.296.296 0 01.012.086l-.04-1.165-.015-.395a123.13 123.13 0 016.615-.297l-.061-1.785c-2.21.04-4.422.142-6.615.297l.003-.003z" fill="#fff"/><path d="M46.58 19.926l.031.955.023.651a.443.443 0 00-.011-.086c-.165-.617-1.693-.834-3.231-.834-5.262.047-10.849.877-16.6 2.466-1.105.306-2.2.634-3.26.951-1.73.52-3.518 1.056-5.367 1.497-2.132.51-4.16.836-6.064.98-1.51.508-2.878 1.082-3.89 1.806.169.02.343.031.505.037.426.02.858.032 1.301.032 2.498-.003 5.254-.36 8.21-1.067 1.848-.444 3.639-.977 5.365-1.497 1.061-.32 2.16-.648 3.26-.951 5.752-1.59 11.336-2.42 16.6-2.466 1.54 0 3.063.216 3.232.834a.296.296 0 01.011.086l-.038-1.127-.017-.479a123.13 123.13 0 016.615-.297l-.06-1.785c-2.212.04-4.422.141-6.616.297v-.003z" fill="#fff"/><path d="M46.64 21.714l.018.479.037 1.127a.413.413 0 00-.011-.086c-.165-.617-1.692-.834-3.231-.834-5.262.046-10.849.877-16.6 2.466-1.104.306-2.2.634-3.26.951-1.73.52-3.518 1.056-5.367 1.497-2.955.706-5.71 1.064-8.208 1.067-.441 0-.876-.009-1.302-.032a7.386 7.386 0 01-.504-.037 6.87 6.87 0 00-.417.32c-.307.26-.513.565-.498.833 0 .012 0 .023.003.032 0 .017.005.035.008.052 0 .011.006.023.012.035l.017.046a.375.375 0 00.046.075c.01.011.015.02.027.031a.267.267 0 00.04.04l.032.03a.361.361 0 00.055.037.424.424 0 00.038.026c.023.014.05.026.072.038l.038.017c.04.017.084.034.133.049.278.09.64.115.96.13.425.023.857.031 1.3.031 2.498-.003 5.254-.36 8.21-1.067 1.848-.44 3.639-.977 5.366-1.496 1.06-.32 2.158-.65 3.26-.952 5.751-1.589 11.335-2.42 16.6-2.465 1.538 0 3.063.216 3.23.833a.28.28 0 01.012.075v.009l-.055-1.578a123.13 123.13 0 016.615-.297l-.06-1.785c-2.211.04-4.422.141-6.616.297v.006z" fill="#DB3232"/><path d="M46.704 23.499l.055 1.577v-.008a.476.476 0 01-.055.225 121.64 121.64 0 016.68-.303l-.062-1.785c-2.21.04-4.422.141-6.615.297l-.003-.003z" fill="#fff"/><path d="M46.698 25.29c-.119.233-.44.478-.965.732-1.623.782-3.752 1.283-5.859 1.75.023 0 .043-.005.067-.008 4.416-.577 8.96-.908 13.5-.992l-.024-.643-.04-1.145c-2.231.04-4.462.141-6.68.303v.003zm-6.696 4.262a70.57 70.57 0 00-.774.1c-1.695.229-3.44.462-5.166.462-.357 0-.716-.009-1.07-.032a19.25 19.25 0 01-.382-.031 5.445 5.445 0 00-.539.383c-.322.263-.527.571-.472.834a.496.496 0 00.023.072c.003.008.009.017.012.023.008.014.014.032.026.046l.017.026c.012.014.02.026.035.04l.026.026.043.038c.009.008.02.014.03.023.017.011.04.026.06.037.012.006.02.012.032.017.035.018.07.035.107.05.29.115.69.152 1.043.172.357.02.713.032 1.073.032 1.726 0 3.468-.233 5.166-.461.258-.035.516-.07.774-.101 4.415-.577 8.959-.908 13.5-.992l-.061-1.756c-4.544.08-9.087.415-13.5.992h-.003z" fill="#DB3232"/><path d="M39.94 27.764c-.023 0-.043.006-.066.009-.163.037-.328.072-.49.11-2.646.585-5.158 1.144-6.778 2.168.13.014.258.026.383.031.356.02.713.032 1.07.032 1.726 0 3.468-.233 5.166-.461.258-.035.515-.07.773-.101a121.82 121.82 0 0113.5-.992l-.06-1.785a121.2 121.2 0 00-13.5.992l.002-.003zm-8.808-2.034l.006.148a.64.64 0 01.017-.15c-.009 0-.015.003-.023.006v-.003z" fill="#fff"/><path d="M31.775 28.615c1.608-1.313 4.575-1.97 7.441-2.604 2.054-.456 4.167-.929 5.821-1.638-.443-.06-.938-.087-1.422-.084a58.86 58.86 0 00-6.755.461c-2.063.508-3.972 1.116-5.152 2.08-.315.26-.524.562-.515.833l.06 1.785c-.008-.274.2-.577.516-.833h.006z" fill="#D1D1D1"/><path d="M42.784 2.8c-5.262.046-10.85.877-16.6 2.466-1.105.305-2.2.634-3.26.951-1.003.3-2.026.606-3.066.894l-.015-.41-.023-.66c-.003-.11-.15-.213-.432-.311-.849-.289-1.886-.38-2.947-.378l.061 1.748v.037c1.06 0 2.101.09 2.95.378.281.095.429.202.432.311l.037 1.07c1.04-.291 2.066-.594 3.066-.894 1.06-.32 2.159-.649 3.26-.951 5.752-1.59 11.335-2.42 16.6-2.466 1.539 0 3.063.216 3.231.833a.296.296 0 01.012.087l-.061-1.785a.443.443 0 00-.012-.087c-.165-.617-1.692-.833-3.23-.833h-.003z" fill="#fff"/><path d="M42.844 4.585c-5.262.046-10.849.877-16.6 2.466-1.104.305-2.2.634-3.26.951-1.003.3-2.026.606-3.066.894l-.037-1.07c-.003-.11-.151-.213-.432-.311-.85-.289-1.887-.38-2.947-.378l.06 1.748v.037c1.061 0 2.102.09 2.95.378.282.095.43.202.432.311l.038 1.07c1.04-.291 2.066-.594 3.066-.894 1.06-.32 2.158-.649 3.26-.951 5.751-1.59 11.335-2.42 16.6-2.466 1.538 0 3.063.216 3.23.833a.296.296 0 01.012.087l-.06-1.785a.443.443 0 00-.012-.087c-.165-.617-1.692-.833-3.231-.833h-.003z" fill="#DB3232"/><path d="M42.905 6.373c-5.262.046-10.849.877-16.6 2.465-1.105.306-2.2.635-3.26.952-1.003.3-2.026.606-3.066.894l-.038-1.07c-.003-.11-.15-.213-.432-.311-.849-.289-1.886-.381-2.947-.378l.041 1.162.02.626c1.06 0 2.098.09 2.947.378.281.095.43.201.432.311l.035 1.006v.064c1.04-.291 2.066-.594 3.065-.894 1.06-.32 2.16-.649 3.26-.952 5.752-1.589 11.336-2.42 16.6-2.465 1.54 0 3.063.216 3.231.833a.3.3 0 01.012.087l-.055-1.604-.006-.184c0-.03-.006-.058-.011-.087-.166-.617-1.693-.833-3.231-.833h.003z" fill="#fff"/><path d="M46.154 7.474l.055 1.604a.443.443 0 00-.012-.087c-.165-.617-1.692-.833-3.23-.833-5.263.046-10.85.877-16.601 2.465-1.104.306-2.2.635-3.26.952-1.003.3-2.025.606-3.066.894v-.063l-.034-1.007c-.003-.11-.151-.213-.432-.311-.85-.289-1.887-.381-2.947-.378l.06 1.739c1.061 0 2.099.09 2.948.377.28.096.428.202.431.312l.038 1.116c1.04-.291 2.066-.594 3.066-.894 1.06-.32 2.158-.649 3.26-.952 5.751-1.588 11.335-2.419 16.6-2.465 1.539 0 3.063.216 3.23.833a.296.296 0 01.012.087l-.055-1.606a123.1 123.1 0 016.616-.297l-.061-1.783c-2.211.04-4.422.142-6.615.297h-.003zM16.378 3.53l-.061-1.748c.133 0 .263 0 .397.003.921.02 1.808.121 2.553.375.28.095.428.202.431.311v-.06l-.011-.335v-.06l-.02-.563L19.64.69c-.003-.11-.15-.213-.431-.311C18.46.124 17.57.023 16.652.003 16.523 0 16.389 0 16.256 0l.06 1.748.062 1.782z" fill="#DB3232"/><path d="M13.917 5.055l-.185-.548-.145.574c-.177.014-.357.029-.533.046l.443.309-.145.574.42-.381.444.314-.186-.548.42-.377h-.017c-.174.011-.345.026-.516.037z" fill="#fff"/><path d="M7.93 9.08l.143-.585-.142.586zm2.73-.36l.142-.58-.142.58z" fill="#DB3232"/><path d="M15.247 7.968c-.023.086-.046.184-.072.285-.026.1-.052.199-.072.285l-.528.035c.145.107.293.21.438.317l-.145.571.417-.372c.15.11.299.217.446.326-.055-.167-.13-.386-.185-.554l.426-.363c-.18.006-.362.012-.542.02l-.185-.55h.002z" fill="#fff"/><path d="M14.618 9.882l-.42.381.42-.38zm-1.1.995l.144-.574-.144.574zm-1.65.373l.44.302-.44-.303zm-1.378.152l-.415.395.415-.395z" fill="#DB3232"/><path d="M16.803 15.987l-.037-1.053.034 1.007.003.046z" fill="#fff"/><path d="M16.864 17.772l-.038-1.107.038 1.107z" fill="#DB3232"/><path d="M16.954 20.379l.032.966-.058-1.748-.003-.037.003.049.026.77z" fill="#7A0A1D"/><path d="M7.499 26.818c1.779-1.505 4.984-2.402 8.087-3.273.31-.086.626-.176.939-.265a37.8 37.8 0 00-1.437.069 88.736 88.736 0 00-6.053.646 8.406 8.406 0 00-1.594 1.032c-.325.274-.542.6-.53.889l.06 1.784c-.008-.29.206-.614.53-.888l-.002.006zm9.489-5.421l.058 1.736-.058-1.75-.003-.038.003.052z" fill="#D1D1D1"/><path d="M19.263 2.16c-.742-.254-1.631-.355-2.553-.375-.13-.003-.263-.003-.396-.003l.06 1.748.061 1.787-.06-1.747c.133 0 .263 0 .396.003.922.02 1.808.121 2.553.375.281.095.429.202.432.311l-.061-1.785c-.003-.11-.15-.213-.432-.311V2.16z" fill="#fff"/><path d="M19.324 3.948c-.742-.254-1.632-.355-2.553-.375-.13-.003-.264-.003-.397-.003l.06 1.747.062 1.785-.061-1.747c1.06 0 2.098.09 2.947.378.28.095.429.202.431.311l.024.66.014.41c1.04-.291 2.066-.594 3.066-.894 1.06-.32 2.159-.649 3.26-.952 5.751-1.588 11.335-2.419 16.6-2.465 1.539 0 3.063.216 3.23.833a.296.296 0 01.013.087l-.061-1.782c0-.03-.006-.058-.012-.087-.165-.617-1.692-.833-3.23-.833-5.263.046-10.85.876-16.601 2.465-1.104.306-2.2.635-3.26.952-1.003.3-2.026.606-3.066.894l-.037-1.076c-.003-.11-.151-.213-.432-.311l.003.003z" fill="#DB3232"/><path d="M16.681 12.454l-.06-1.741-.02-.626-.041-1.162v-.038l-.061-1.747v-.038l-.064-1.785-.06-1.785-.061-1.782L16.256 0c-.337 0-.673.009-1.006.026a34.77 34.77 0 00-.985.06c-3.106.225-6.146.6-9.087 1.125A77.456 77.456 0 000 2.316L.426 14.77c4.494-1.122 9.293-1.874 14.265-2.232a28.01 28.01 0 011.99-.084zm-.866-.608c-.148-.11-.298-.216-.446-.326-.14.124-.281.248-.417.372l.034-.138c.024-.095.05-.2.076-.297a2.81 2.81 0 01.035-.139c-.145-.106-.293-.21-.438-.317l.527-.034c.024-.087.047-.185.073-.286.026-.1.052-.199.072-.285l.186.55c.18-.008.359-.017.542-.02l-.426.364.185.553-.003.003zm-.27-2.987c.056.167.131.386.186.553-.148-.11-.298-.216-.446-.326-.14.124-.281.248-.417.372l.144-.57c-.144-.107-.292-.211-.437-.318l.527-.034c.024-.087.047-.185.073-.286.026-.1.052-.199.072-.285l.186.55c.18-.008.359-.017.542-.02l-.426.364h-.003zM14.3 8.374l-.444-.311-.42.38.145-.573-.443-.309c.177-.014.356-.032.533-.046l.145-.574.185.548c.171-.015.345-.026.516-.038h.017l-.339.306-.08.072.185.548v-.003zm-1.362 1.237l-.44-.305-.418.389.145-.577-.44-.303.53-.052.145-.576.182.545c.177-.018.354-.032.533-.05l-.417.384.183.545h-.003zm-1.426-.986l-.437-.3-.415.395.142-.58-.437-.296.524-.061.142-.58.183.543c.176-.02.35-.038.527-.055l-.414.392.182.542h.003zm-1.338 1.28l-.435-.294-.412.401.142-.582-.434-.292.521-.069.142-.58.18.54c.153-.02.307-.038.46-.055.021 0 .044-.006.064-.009l-.411.398.18.54.003.002zM8.768 8.96l-.432-.286-.405.407.139-.583-.429-.282.516-.078.142-.583.18.537c.173-.024.344-.05.518-.073l-.408.404.18.54V8.96zm-1.315 1.32l-.43-.282-.402.412.14-.585-.427-.277c.171-.029.342-.058.513-.084l.14-.585.179.536c.17-.026.342-.052.513-.08l-.406.409.177.536h.003zm-1.38-.905L5.65 9.1l-.4.418.14-.588-.42-.271c.078-.015.156-.03.237-.044.09-.017.18-.031.27-.049l.139-.588.176.534c.168-.03.34-.058.51-.087l-.4.415.177.534h-.006zm-1.29 1.36l-.42-.267-.393.427.136-.592-.417-.265c.168-.035.333-.066.5-.1l.137-.592.174.53.504-.095-.397.421.177.531v.003zm-1.352-.864l-.415-.263-.39.433.133-.594-.412-.26c.165-.037.33-.072.496-.106l.133-.594.174.527.498-.103-.391.43.174.527v.003zm-.255-2.962l.174.528-.415-.262-.39.432.132-.594-.411-.26c.165-.037.33-.072.495-.106l.134-.594.174.528.498-.104-.391.43v.002zm1.527 1.393l-.42-.268-.394.427.136-.591-.417-.266.5-.1.137-.592.174.53.504-.094-.397.423.177.531zm-1.18-3.134c.166-.035.334-.067.502-.099l.136-.59.174.53.504-.095-.397.42.177.531-.42-.268-.394.427.136-.591-.418-.265zm2.47 1.773l-.424-.274-.4.421.14-.588-.42-.271c.167-.032.335-.06.506-.093l.14-.588.176.534c.168-.03.34-.058.51-.087l-.4.415.177.534-.006-.003zm1.379.903l-.43-.28-.402.412.139-.585-.426-.277c.171-.029.342-.058.513-.084l.139-.585.18.533.513-.077-.406.41.177.533h.003zm1.135-1.855l.18.54-.432-.289-.405.407.139-.583-.43-.282.517-.078.142-.583.18.537c.173-.023.344-.05.518-.072l-.409.403zm-1.4-1.113l.178.537-.43-.28-.402.412.14-.585-.427-.277c.171-.029.342-.058.513-.084l.14-.585.179.536.513-.08-.406.41.003-.004zM9.91 6.93l.18.54-.435-.294-.412.4.142-.58-.434-.29.521-.07.142-.58.18.54c.174-.023.348-.043.524-.064l-.411.398h.003zm1.518-.738l-.437-.3-.415.395.142-.58-.437-.296.524-.06.142-.58.183.542c.176-.02.35-.038.527-.055l-.414.39.182.541.003.003zM9.826 4.496l.18.539-.435-.294-.412.4.142-.582-.434-.291.521-.07.142-.579.18.54c.174-.024.348-.044.524-.064l-.411.398.003.003zm3.03 2.681l-.44-.305-.417.386.145-.577-.44-.302.53-.052.145-.574.182.545c.177-.017.354-.032.533-.05l-.417.387.183.545-.003-.003zm1.594-2.162l-.42.377.186.548-.444-.314-.42.38.145-.573-.443-.309c.176-.014.356-.031.533-.046l.145-.574.185.548c.171-.014.345-.026.516-.037h.017zm-1.86-.816l.183.545-.44-.306-.418.386.145-.576-.44-.303.53-.052.145-.577.182.545.533-.049-.417.384-.003.003zm2.872 2.226c.04.124.092.28.142.418.014.046.032.092.043.133-.148-.11-.298-.217-.446-.326-.14.124-.281.248-.417.372.031-.127.072-.289.11-.433.011-.049.023-.095.034-.138-.144-.107-.292-.21-.437-.317l.527-.035.145-.568.186.55c.18-.008.359-.017.541-.02l-.426.364h-.002zM15.38 3.99l.186.554c-.148-.11-.299-.217-.446-.326-.14.124-.281.248-.417.372.043-.17.1-.401.144-.571-.017-.015-.037-.026-.055-.04l-.382-.277.527-.035c.023-.086.046-.185.073-.285.026-.101.052-.2.072-.286l.185.55c.18-.008.36-.016.542-.02l-.426.364h-.002zm-.53-2.757l.073-.285c.023-.087.043-.173.063-.251 0-.012.006-.023.01-.032.054.164.13.387.185.55.18-.008.359-.016.541-.02l-.425.364c.054.167.13.386.185.554-.148-.11-.298-.217-.446-.326-.14.124-.281.248-.418.372l.145-.571c-.145-.107-.292-.21-.437-.317l.527-.035-.003-.003zm-1.202.84l.185.547c.171-.014.345-.026.516-.037h.017l-.42.378.186.547-.444-.311-.42.38.145-.573-.443-.312c.176-.014.356-.031.533-.046l.145-.574zm-1.582-.615l.144-.577.183.545c.177-.017.354-.031.533-.049l-.417.384.182.545-.44-.306-.417.39.145-.577-.44-.303.53-.052h-.003zm-1.197.88l.183.542c.176-.02.35-.038.527-.055l-.415.392.183.542-.438-.3-.414.395.142-.576-.437-.297.524-.06.145-.578V2.34zM9.307 1.77l.142-.58.18.54c.174-.024.347-.044.524-.064l-.411.398.18.539-.435-.294-.412.4.142-.582-.434-.291.521-.07.003.004zm-1.173.914l.18.536c.173-.023.344-.049.518-.072l-.409.404.18.536-.432-.285-.405.406.139-.582-.43-.286.517-.078.142-.582v.003zm-1.536-.522l.139-.586.18.537.512-.078-.405.41.177.536-.43-.283-.402.412.139-.585-.426-.277c.171-.029.342-.057.513-.083l.003-.003zM5.308 3.7l.14-.589.176.531.51-.086-.4.418.177.533-.423-.274-.4.418.14-.588-.424-.271c.084-.014.168-.032.252-.046.084-.015.168-.032.252-.046zM3.941 2.636l.136-.591.174.53.504-.095-.397.421.177.53-.42-.268-.394.427.136-.59-.418-.265c.166-.035.334-.067.502-.101v.003zm-1.13.986l.174.528.498-.104-.391.43.174.527-.415-.262-.39.432.132-.59-.411-.26c.165-.038.33-.072.495-.107l.134-.591v-.003zm-1.472-.433l.133-.594.17.525c.166-.037.328-.075.494-.11l-.389.436.171.525-.411-.257-.386.438.134-.596-.409-.254.49-.116.003.003zm.084 2.434l.133-.594.171.525c.165-.038.327-.075.493-.11l-.389.436.171.525-.411-.257-.386.438.134-.597-.409-.253.49-.116.003.003zm.084 2.434l.133-.594.171.525c.165-.038.327-.075.493-.11l-.389.436.171.524-.411-.256-.386.438.134-.594-.409-.254.49-.115h.003zm.08 2.434l.134-.594.171.525c.165-.038.328-.075.493-.11l-.389.435.171.525-.411-.256-.385.438.133-.597-.409-.254c.163-.037.328-.078.49-.115l.003.003zm.667 3.215l-.411-.257-.385.439.133-.597-.409-.254.49-.115.133-.594.171.524c.165-.037.328-.075.493-.11l-.389.436.171.525.003.003zm.846-1.66l-.39.432.133-.591-.412-.26c.165-.038.33-.072.496-.107l.133-.594.174.528.498-.104-.391.43.174.527-.415-.262zm1.768 1.124l-.42-.268-.394.426.136-.59-.417-.266c.165-.035.333-.066.501-.101l.136-.591.174.53.504-.095-.397.421.177.53v.004zm.866-1.635l-.4.418.14-.588-.423-.272.507-.092.139-.588.176.533.51-.086-.4.418.177.534-.423-.274-.003-.003zm1.803 1.18l-.43-.28-.402.412.14-.586-.427-.276c.171-.03.342-.058.513-.084l.14-.585.179.536c.17-.026.342-.052.513-.08l-.406.409.177.536.003-.003zm.883-1.607l-.405.406.139-.582-.429-.286.516-.077.142-.583.18.537c.173-.024.344-.05.518-.073l-.408.404.18.537-.433-.286v.003zm1.838 1.231l-.435-.294-.412.4.142-.582-.434-.29.521-.07.12-.49.022-.09.18.54c.174-.023.348-.044.524-.064l-.411.398.18.54.002.002zm.9-1.58l-.414.395.142-.577-.437-.297.524-.06.145-.58.183.542c.176-.02.35-.037.527-.055l-.414.393.182.542-.437-.3v-.003zm1.864 1.286l-.44-.306-.418.387.145-.577-.44-.303.53-.052.145-.576.182.545c.177-.018.354-.032.533-.05l-.417.384.183.545-.003.003zm.915-1.549l-.42.381.145-.574-.443-.311c.177-.015.356-.032.533-.046l.072-.286.073-.288.185.548c.171-.015.345-.026.516-.038h.018l-.42.378.185.548-.444-.312z" fill="#0053AF"/><path d="M1.208 6.586l.385-.438.412.257-.171-.525.388-.436c-.165.038-.33.072-.493.11l-.17-.525-.134.594c-.165.038-.327.075-.49.115l.41.254-.134.597-.003-.003zm-.084-2.434l.385-.438.412.257-.171-.525.388-.435c-.165.037-.33.072-.492.11l-.171-.526-.134.594c-.165.038-.327.075-.49.116l.41.253-.134.597-.003-.003zm.25 7.302l.385-.438.412.256L2 10.747l.388-.435c-.165.038-.33.072-.492.11l-.171-.525-.134.594a25 25 0 00-.49.115l.41.254-.134.597-.003-.003zm.048-3.028l-.133.594.385-.438.412.256-.171-.524.388-.436c-.165.038-.33.072-.492.11l-.171-.525-.134.594a24.26 24.26 0 00-.49.115l.41.254h-.004zm.555 4.429l-.171-.524-.134.594a25 25 0 00-.49.115l.41.254-.134.597.385-.439.412.257-.171-.525.388-.435c-.165.037-.33.072-.493.11l-.002-.004zm.616-8.273l-.133.591.391-.432.414.262-.174-.528.392-.43-.499.105-.174-.528-.133.591-.495.107.411.26v.002zm.301 1.474l-.133.594c-.165.034-.33.072-.495.106l.411.26-.133.594.391-.433.414.263-.174-.528.392-.43-.499.104-.174-.527v-.003zm.258 2.961l-.174-.527-.133.594c-.165.034-.33.072-.495.106l.411.26-.133.594.391-.433.414.263-.174-.528.392-.43-.499.104v-.003zm.583 2.333l-.499.104-.174-.528-.133.594-.495.107.411.26-.133.59.39-.432.415.262-.174-.527.392-.43zm.07-5.326l.394-.427.42.268-.177-.53.397-.421-.504.095-.174-.53-.136.59c-.168.032-.334.067-.502.099l.418.265-.136.591zM3.72 3.59l.395-.427.42.269-.177-.531.397-.421-.504.095-.174-.53-.136.59c-.168.032-.333.067-.502.102l.418.265-.136.591V3.59zm.783 6.287l-.174-.531-.136.591c-.168.032-.334.066-.502.101l.418.265-.137.591.395-.426.42.268-.177-.53.397-.422-.504.095v-.002zm.42-2.529l-.504.095-.174-.53-.136.59c-.168.032-.334.067-.502.101l.418.265-.137.592.395-.427.42.268-.177-.53.397-.424zm-.339 4.962l-.174-.53-.136.59c-.168.033-.333.067-.502.102l.418.265-.136.591.394-.426.42.268-.177-.53.397-.422-.504.095v-.003zm.641-8.247l-.14.588.4-.418.424.274-.177-.533.4-.418-.51.086-.177-.53-.14.588c-.083.014-.167.031-.251.046-.084.014-.168.032-.252.046l.42.271h.003zm.481 2.016l-.177-.534-.14.589c-.167.028-.338.06-.506.092l.42.27-.14.59.4-.422.424.274-.177-.533.4-.416-.51.087.006.003zm.084 2.434l-.177-.534-.14.588c-.089.018-.179.032-.269.05l-.237.043.42.27-.14.589.4-.418.424.274-.177-.534.4-.415-.51.087h.006zm.59 2.347l-.51.086-.176-.533-.14.588c-.167.029-.338.06-.506.092l.42.271-.14.589.4-.418.424.274-.177-.534.4-.418.006.003zm.44-6.849l-.138.586c-.171.028-.342.054-.513.083l.426.277-.14.585.404-.412.428.28-.176-.537.405-.41c-.17.027-.342.053-.513.082l-.18-.537-.002.003zm-.445-.902l.403-.413.428.283-.176-.537.405-.409-.513.078-.18-.537-.138.586c-.171.029-.342.055-.513.083l.426.277-.14.586-.002.003zm.791 6.303l-.18-.536-.14.585c-.17.03-.341.055-.512.084l.426.277-.14.585.404-.412.428.282-.176-.536.405-.41c-.17.026-.342.052-.513.081h-.002zm-.084-2.434l-.18-.533-.14.585c-.17.03-.341.055-.512.084l.426.277-.14.585.404-.412.428.28-.176-.534.405-.41c-.17.027-.342.053-.512.078h-.003zm.168 4.868l-.18-.536-.14.585c-.17.029-.341.055-.512.084l.426.277-.14.585.404-.412.428.28-.176-.537.405-.41c-.17.026-.342.052-.513.081l-.002.003zm.654-8.218l-.139.582.406-.406.432.285-.18-.536.409-.404c-.174.023-.348.046-.519.072l-.18-.536-.142.582-.515.078.428.286v-.003zm.313 1.491l-.142.582-.515.078.428.282-.139.583.406-.407.432.289-.18-.54.409-.403c-.174.023-.348.046-.519.072l-.18-.536zm.261 2.97l-.18-.537-.142.583-.515.078.428.282-.139.583.406-.407.432.286-.18-.54.409-.403a28.11 28.11 0 00-.519.072v.003zm.602 2.364c-.173.023-.347.046-.518.072l-.18-.536-.142.582-.515.078.428.286-.139.582.406-.406.432.285-.18-.536.409-.404v-.003zm.453-6.831l-.142.58-.522.069.435.291-.142.582.411-.4.435.294-.18-.54.412-.397-.525.063-.18-.54-.002-.002zm-.455-.912l.411-.4.435.294-.18-.54.412-.397-.525.063-.18-.539-.141.58-.522.069.435.291-.142.583-.003-.003zm1.328 6.258c-.02 0-.044.006-.064.009-.154.017-.307.037-.46.055l-.18-.54-.142.58-.522.07.435.29-.142.583.411-.4.435.293-.18-.539.412-.398-.003-.003zm-.084-2.437c-.174.02-.35.044-.525.064l-.18-.54-.141.58-.522.07.435.29-.142.58.411-.4.435.294-.18-.54.412-.398h-.003zm-.357 4.935l-.18-.54-.023.09-.118.49-.522.069.435.291-.142.583.411-.401.435.294-.18-.54.412-.397-.525.063-.003-.002zm.672-8.193l-.142.577.414-.395.438.3-.183-.543.415-.392c-.177.018-.354.038-.528.055l-.182-.542-.145.577-.525.06.438.297v.006zm.498 2.042l-.182-.543-.142.58-.525.06.438.298-.142.58.414-.396.438.3-.183-.542.414-.39c-.176.018-.353.038-.527.055l-.003-.002zm.081 2.433l-.182-.542-.142.58-.525.06.438.297-.142.58.414-.395.438.3-.183-.542.414-.392c-.176.017-.353.037-.527.054h-.003zm.613 2.379c-.177.018-.354.038-.528.055l-.182-.542-.145.58-.525.06.438.297-.142.577.414-.395.438.3-.183-.542.415-.393v.003zm.462-6.811l-.145.577-.53.052.44.303-.144.576.417-.386.44.306-.182-.545.417-.384c-.177.015-.356.032-.533.05l-.182-.546.002-.003zm-.461-.926l.418-.389.44.306-.182-.545.417-.384c-.177.015-.356.032-.533.05l-.183-.546-.145.577-.53.052.44.303-.144.577h.003zm.812 6.342l-.183-.545-.145.576-.53.052.44.303-.144.577.417-.39.44.306-.182-.545.417-.383c-.177.014-.356.031-.533.049h.003zm-.084-2.437l-.183-.545-.145.574-.53.052.44.303-.144.576.417-.386.44.306-.182-.545.417-.387c-.177.015-.356.032-.533.05l.003.002zm.168 4.871l-.183-.546-.145.577-.53.052.44.303-.144.577.417-.387.44.306-.182-.545.417-.384c-.177.015-.356.032-.533.05l.003-.003zm.687-8.164l-.145.574.42-.38.444.31-.186-.547.42-.378h-.017c-.174.011-.345.026-.516.037l-.185-.547-.145.573-.533.046.443.312zm.782 4.752l.34-.305h-.018c-.174.011-.345.025-.516.037l-.185-.548-.145.574c-.177.014-.357.029-.533.046l.443.309-.145.574.42-.381.444.311-.186-.548.081-.072v.003zm.423 2.128h-.017l-.516.038-.185-.548-.073.288-.072.286c-.177.014-.357.029-.533.046l.443.311-.145.574.42-.38.444.311-.186-.548.42-.378zm.462-6.785c-.024.087-.047.185-.073.286-.026.1-.052.199-.072.285l-.528.035.383.276c.017.015.037.026.055.04l-.145.572.417-.372c.15.106.299.216.446.326-.055-.168-.13-.387-.185-.554l.426-.363c-.18.005-.362.011-.542.02l-.185-.551h.002zm-.464-.94l.417-.372c.15.11.299.216.446.326l-.185-.554.426-.363c-.18.006-.362.011-.542.02l-.185-.55c0 .01-.006.022-.01.031-.02.078-.04.164-.063.25-.026.102-.052.2-.072.286l-.528.035c.145.107.293.21.438.317l-.145.571.003.003zm.548 3.377l-.145.568-.528.034c.145.107.293.214.438.318-.012.043-.023.089-.035.138a45.67 45.67 0 00-.11.433l.417-.372c.15.106.299.216.446.325a3.61 3.61 0 01-.043-.132 32.717 32.717 0 00-.142-.418l.426-.364c-.18.006-.362.012-.542.02l-.185-.55h.003zm.35 5.418l-.185-.55c-.024.086-.047.184-.073.285-.026.1-.052.199-.072.285l-.528.035c.145.107.293.21.438.317-.012.043-.023.09-.035.139a15.09 15.09 0 01-.11.435l.417-.372c.15.11.299.216.446.326l-.185-.554.426-.363c-.18.006-.362.011-.542.02l.003-.003zm30.7-1.695l.055 1.606c0-.03-.006-.058-.012-.087-.165-.617-1.692-.833-3.23-.833-5.263.046-10.85.877-16.6 2.465-1.105.306-2.2.635-3.26.952-1.003.3-2.026.606-3.066.894l-.038-1.116c-.003-.11-.15-.213-.432-.312-.849-.288-1.886-.38-2.947-.377-.669 0-1.347.04-1.99.086-4.973.358-9.771 1.108-14.265 2.232l.06 1.788c4.495-1.122 9.293-1.874 14.265-2.232a28.07 28.07 0 011.991-.084c.133-.002.264 0 .397 0 .922.02 1.808.122 2.553.375.281.095.429.202.432.312l.037 1.116c1.04-.292 2.066-.594 3.066-.894 1.06-.32 2.159-.649 3.26-.952 5.752-1.589 11.335-2.42 16.6-2.465 1.539 0 3.063.216 3.231.833a.296.296 0 01.012.087l-.055-1.607a124.35 124.35 0 016.615-.297l-.061-1.785c-2.21.04-4.422.142-6.615.297l-.003-.002z" fill="#fff"/><path d="M46.274 11.042l.055 1.606a.423.423 0 00-.011-.087c-.165-.617-1.692-.833-3.231-.833-5.262.046-10.849.877-16.6 2.465-1.104.306-2.2.635-3.26.952-1.003.3-2.026.606-3.066.894l-.038-1.116c-.003-.11-.15-.213-.431-.312-.742-.253-1.632-.354-2.553-.374-.13-.003-.264-.003-.397-.003-.67.003-1.348.04-1.99.09-4.974.356-9.772 1.106-14.267 2.23l.009.248.052 1.54c4.494-1.122 9.293-1.874 14.265-2.232a28.07 28.07 0 011.99-.084v-.005c.134 0 .265 0 .398.003.921.02 1.808.12 2.553.374.28.096.428.202.431.312l.006.141.032.929c1.04-.292 2.066-.594 3.066-.894 1.06-.32 2.158-.65 3.26-.952 5.751-1.589 11.335-2.42 16.6-2.465 1.538 0 3.063.216 3.23.833a.296.296 0 01.012.086l-.052-1.56a123.13 123.13 0 016.615-.297l-.06-1.785c-2.211.04-4.422.142-6.616.297l-.003-.002zm-29.471 4.945v-.046l-.035-1.007.035 1.053z" fill="#DB3232"/><path d="M46.339 12.83l.052 1.56a.443.443 0 00-.012-.087c-.165-.617-1.692-.833-3.23-.833-5.263.046-10.85.876-16.6 2.465-1.105.306-2.2.635-3.26.952-1.003.3-2.026.605-3.066.894l-.032-.929-.006-.141c-.003-.11-.15-.214-.432-.312-.742-.253-1.631-.354-2.553-.375-.13-.002-.263-.002-.397-.002v.005c-.669 0-1.347.038-1.99.084-4.973.358-9.771 1.107-14.265 2.232l.06 1.788a77.388 77.388 0 015.179-1.105 87.165 87.165 0 019.087-1.124 28.07 28.07 0 011.99-.084l.04 1.214.018.525-.06-1.747c1.06 0 2.097.089 2.946.377.281.095.43.202.432.312l.038 1.07c1.04-.292 2.066-.595 3.065-.894 1.06-.32 2.16-.65 3.26-.952 5.752-1.589 11.336-2.42 16.6-2.465 1.54 0 3.063.216 3.231.833a.297.297 0 01.012.086l-.052-1.56a123.13 123.13 0 016.615-.297l-.06-1.788c-2.212.04-4.422.142-6.616.297h.006z" fill="#fff"/><path d="M16.928 19.609v-.05l-.02-.524-.041-1.214c-.67 0-1.348.037-1.99.084-3.107.222-6.147.6-9.088 1.124a77.45 77.45 0 00-5.178 1.105l.061 1.785c4.494-1.12 9.293-1.869 14.265-2.227a28.07 28.07 0 011.99-.083z" fill="#DB3232"/><path d="M16.988 21.397l.183-.104-.05-.914-.197-.77c-.669 0-1.347.037-1.99.083-4.972.358-9.77 1.108-14.265 2.232l.06 1.788c4.495-1.121 9.293-1.874 14.266-2.232a28.01 28.01 0 011.99-.083h.003z" fill="#fff"/><path d="M40.06 31.308a70.57 70.57 0 00-.774.1c-1.695.229-3.44.462-5.167.462-.356 0-.715-.008-1.072-.032-.353-.023-.756-.057-1.043-.172a.745.745 0 01-.107-.05c-.012-.005-.02-.011-.032-.017-.02-.011-.04-.026-.06-.037l-.03-.023a.556.556 0 01-.043-.038l-.026-.026-.035-.04a.654.654 0 01-.043-.072l-.012-.023a.489.489 0 01-.02-.06c0-.004 0-.01-.003-.012-.055-.263.15-.571.472-.834.165-.135.348-.262.539-.383 1.623-1.024 4.132-1.583 6.777-2.169.163-.035.328-.072.49-.11 2.107-.467 4.236-.971 5.859-1.75.527-.254.846-.499.965-.732a.46.46 0 00.055-.225.312.312 0 00-.012-.075c-.165-.617-1.692-.834-3.23-.834-5.263.047-10.85.877-16.6 2.466-1.105.306-2.2.634-3.26.952-1.73.519-3.518 1.055-5.367 1.496-2.956.707-5.711 1.064-8.209 1.067-.44 0-.875-.009-1.301-.032-.319-.017-.68-.04-.96-.13a1.424 1.424 0 01-.132-.048l-.038-.018a.833.833 0 01-.11-.063c-.02-.012-.038-.026-.055-.038-.012-.008-.02-.02-.032-.028-.015-.015-.03-.026-.04-.04l-.027-.032a.369.369 0 01-.046-.075.15.15 0 01-.018-.047c-.002-.011-.008-.023-.011-.034a93.59 93.59 0 00-.009-.052c0-.012-.003-.023-.003-.032-.014-.265.192-.574.499-.833.13-.11.27-.216.417-.32 1.011-.721 2.379-1.298 3.889-1.806 1.176-.395 2.436-.75 3.68-1.098 1.42-.398 2.891-.81 4.216-1.278.182-.063.38-.14.423-.26.046-.123-.102-.247-.424-.36-.848-.288-1.886-.38-2.946-.377-.67 0-1.348.037-1.991.083-4.972.358-9.77 1.108-14.265 2.232l.122.116a78.605 78.605 0 015.94-1.232l.055 1.583c-.009-.288.206-.614.53-.888.45-.38.988-.72 1.594-1.032a88.942 88.942 0 016.053-.646c.466-.035.953-.058 1.437-.07-.313.09-.626.177-.939.266-3.103.868-6.31 1.768-8.087 3.273-.324.274-.542.6-.53.888l.06 1.756v-.026c0 .266.178.502.632.65.328.106.728.132 1.078.152.435.023.875.032 1.327.032 2.542-.003 5.34-.366 8.337-1.085 1.86-.444 3.657-.983 5.39-1.502 1.06-.317 2.155-.646 3.253-.952a72.206 72.206 0 014.089-1.006c.009 0 .014-.003.023-.006a.542.542 0 00-.017.15l.06 1.785c-.008-.274.2-.576.516-.833 1.18-.963 3.086-1.572 5.152-2.08a58.171 58.171 0 016.755-.46c.48 0 .979.025 1.422.083-1.657.71-3.77 1.182-5.82 1.638-2.87.634-5.834 1.292-7.442 2.604-.316.26-.524.562-.516.833l.061 1.756v-.029c-.006.234.142.445.51.592.34.135.788.178 1.18.201.367.024.735.032 1.103.032 1.762 0 3.524-.236 5.24-.467.257-.035.512-.07.77-.1a120.88 120.88 0 0113.44-.987v-.13a121.2 121.2 0 00-13.504.992l-.003.006z" fill="#7A0A1D"/></g><defs><clipPath id="clip0_68_7799"><path fill="#fff" d="M0 0h53.565v32H0z"/></clipPath></defs></svg>