<svg width="168" height="77" fill="none" xmlns="http://www.w3.org/2000/svg"><path d="M167.831 73.788v2.943h-10.808V63.269h10.558v2.943h-6.788v2.269h5.98v2.846h-5.98v2.462h7.038zM149.537 77c-1.411 0-2.68-.295-3.808-.885a6.777 6.777 0 01-2.635-2.5c-.641-1.064-.961-2.269-.961-3.615s.32-2.551.961-3.615a6.64 6.64 0 012.635-2.481c1.128-.603 2.397-.904 3.808-.904 1.23 0 2.339.218 3.327.654a6.401 6.401 0 012.461 1.884l-2.423 2.193c-.872-1.051-1.929-1.577-3.173-1.577-.731 0-1.385.16-1.962.48A3.398 3.398 0 00146.441 68c-.308.577-.462 1.244-.462 2s.154 1.43.462 2.02a3.43 3.43 0 001.326 1.345c.577.32 1.231.481 1.962.481 1.244 0 2.301-.526 3.173-1.577l2.423 2.192a6.401 6.401 0 01-2.461 1.885c-.988.436-2.097.654-3.327.654zm-9.397-13.73v13.46h-3.135l-5.942-7.172v7.173h-3.731V63.269h3.135l5.942 7.173V63.27h3.731zm-18.908 10.845h-5.692l-1.058 2.616h-3.884l5.942-13.462h3.75l5.962 13.462h-3.962l-1.058-2.616zm-1.115-2.807L118.386 67l-1.731 4.308h3.462zm-16.254 1.846h-2.077v3.577h-3.808V63.269h6.154c1.218 0 2.276.205 3.173.616.898.397 1.59.974 2.077 1.73.488.744.731 1.622.731 2.635 0 .974-.231 1.827-.692 2.558-.449.718-1.096 1.282-1.942 1.692l2.903 4.23h-4.077l-2.442-3.576zm2.404-4.904c0-.628-.199-1.115-.596-1.462-.398-.346-.987-.519-1.769-.519h-2.116v3.943h2.116c.782 0 1.371-.167 1.769-.5.397-.347.596-.834.596-1.462zM89.071 77c-2 0-3.558-.545-4.673-1.635-1.103-1.09-1.654-2.634-1.654-4.634v-7.462h3.808v7.346c0 2.154.852 3.231 2.557 3.231 1.693 0 2.539-1.077 2.539-3.23v-7.347h3.75v7.462c0 2-.558 3.545-1.673 4.634C92.622 76.455 91.07 77 89.07 77zM75.14 77a12.45 12.45 0 01-3.173-.404c-1.026-.27-1.86-.628-2.5-1.077l1.25-2.808a8.087 8.087 0 002.096.962 7.979 7.979 0 002.346.365c1.462 0 2.192-.365 2.192-1.096 0-.384-.211-.666-.634-.846-.41-.192-1.077-.39-2-.596-1.013-.218-1.86-.449-2.539-.692a4.358 4.358 0 01-1.75-1.212c-.487-.551-.73-1.295-.73-2.23 0-.821.224-1.558.673-2.212.448-.667 1.115-1.192 2-1.577.897-.385 1.993-.577 3.288-.577.885 0 1.756.103 2.615.308.86.192 1.616.48 2.27.865L79.37 67c-1.282-.692-2.526-1.038-3.731-1.038-.757 0-1.308.115-1.654.346-.346.218-.52.506-.52.865 0 .36.206.628.616.808.41.18 1.07.365 1.98.558 1.027.217 1.873.455 2.54.711a4.19 4.19 0 011.75 1.192c.5.539.75 1.276.75 2.212 0 .808-.225 1.538-.674 2.192-.448.654-1.121 1.18-2.019 1.577-.897.385-1.987.577-3.27.577zm-7.416-13.73v13.46h-3.135l-5.942-7.172v7.173h-3.731V63.269h3.135l5.942 7.173V63.27h3.73zm-19.326 0h3.808v13.46h-3.808V63.27zM36.703 74.115h-5.692l-1.058 2.616h-3.885l5.943-13.462h3.75l5.961 13.462h-3.961l-1.058-2.616zm-1.115-2.807L33.857 67l-1.73 4.308h3.46zM19.964 77c-1.09 0-2.147-.135-3.173-.404-1.026-.27-1.859-.628-2.5-1.077l1.25-2.808a8.087 8.087 0 002.096.962 7.979 7.979 0 002.346.365c1.462 0 2.193-.365 2.193-1.096 0-.384-.212-.666-.635-.846-.41-.192-1.077-.39-2-.596-1.013-.218-1.859-.449-2.538-.692a4.357 4.357 0 01-1.75-1.212c-.488-.551-.731-1.295-.731-2.23 0-.821.224-1.558.673-2.212.449-.667 1.115-1.192 2-1.577.897-.385 1.994-.577 3.288-.577.885 0 1.757.103 2.616.308.859.192 1.615.48 2.269.865L24.195 67c-1.282-.692-2.526-1.038-3.73-1.038-.757 0-1.309.115-1.655.346-.346.218-.519.506-.519.865 0 .36.205.628.615.808.41.18 1.07.365 1.981.558 1.026.217 1.872.455 2.539.711a4.19 4.19 0 011.75 1.192c.5.539.75 1.276.75 2.212a3.79 3.79 0 01-.673 2.192c-.45.654-1.122 1.18-2.02 1.577-.897.385-1.987.577-3.269.577zM6.327 77c-2 0-3.558-.545-4.673-1.635C.55 74.275 0 72.731 0 70.731v-7.462h3.808v7.346c0 2.154.852 3.231 2.557 3.231 1.693 0 2.539-1.077 2.539-3.23v-7.347h3.75v7.462c0 2-.558 3.545-1.673 4.634C9.878 76.455 8.327 77 6.327 77z" fill="#1A64B7"/><g clip-path="url(#clip0_68_9684)"><path d="M75.36 23.748l.085 2.536c0-.047-.009-.094-.018-.141-.269-1.003-2.749-1.354-5.248-1.354-8.546.075-17.62 1.424-26.962 4.006-1.793.497-3.572 1.031-5.295 1.547-1.628.487-3.29.984-4.979 1.452l-.061-1.738c-.005-.178-.245-.347-.701-.506-1.38-.469-3.064-.619-4.786-.614l.098 2.84v.06c1.723 0 3.412.146 4.791.614.457.155.697.328.702.506l.06 1.739c1.69-.473 3.356-.965 4.98-1.453 1.722-.52 3.506-1.054 5.294-1.546 9.343-2.582 18.411-3.932 26.963-4.007 2.499 0 4.974.352 5.247 1.355a.483.483 0 01.019.14l-.085-2.535a199.86 199.86 0 0110.745-.483l-.1-2.9c-3.59.066-7.18.23-10.743.483h-.005z" fill="#DB3232"/><path d="M75.558 29.554l.024.642.066 1.893c0-.047-.01-.093-.02-.14-.267-1.003-2.748-1.355-5.247-1.355-8.546.075-17.62 1.425-26.962 4.007-1.793.497-3.572 1.03-5.294 1.546-1.629.488-3.29.984-4.98 1.453l-.06-1.739c-.005-.178-.246-.346-.702-.506-1.379-.468-3.167-.59-4.885-.59l.117 2.812-.014-2.817c-1.087 0-2.188.061-3.233.136-8.076.581-15.87 1.8-23.169 3.627l.099 2.83c7.3-1.822 15.093-3.046 23.169-3.627a45.513 45.513 0 013.233-.135c1.723 0 3.408.145 4.787.614.522.178.762.379.687.585-.071.192-.391.319-.688.422-2.15.76-4.541 1.43-6.847 2.076-2.02.567-4.066 1.143-5.977 1.785 3.092-.234 6.382-.764 9.85-1.593 3.003-.722 5.911-1.589 8.716-2.432 1.723-.52 3.506-1.054 5.295-1.546 9.342-2.582 18.41-3.932 26.962-4.007 2.499 0 4.974.352 5.247 1.354a.483.483 0 01.02.14l-.038-1.058-.052-1.551c3.567-.258 7.153-.417 10.744-.483l-.099-2.825a204.5 204.5 0 00-10.744.482h-.005z" fill="#DB3232"/><path d="M75.46 26.654l.085 2.535a.72.72 0 00-.018-.14c-.269-1.003-2.749-1.355-5.248-1.355-8.546.075-17.62 1.425-26.962 4.007-1.793.496-3.572 1.03-5.295 1.546-1.628.487-3.29.984-4.979 1.453l-.061-1.739c-.005-.178-.245-.347-.701-.506-1.38-.469-3.135-.619-4.857-.619l.023 2.864.146.07c1.723 0 3.408.122 4.787.59.456.155.696.328.7.506l.062 1.739a281.15 281.15 0 004.98-1.453c1.722-.515 3.505-1.054 5.294-1.546 9.342-2.582 18.41-3.932 26.962-4.007 2.499 0 4.974.352 5.247 1.355a.482.482 0 01.02.14l-.067-1.893-.023-.642c3.567-.258 7.153-.417 10.744-.483l-.099-2.9c-3.59.065-7.181.23-10.744.482l.005-.004z" fill="#fff"/><path d="M75.653 32.38l.052 1.55.038 1.06c0-.047-.01-.094-.019-.14-.268-1.004-2.748-1.355-5.247-1.355-8.547.075-17.62 1.425-26.963 4.007-1.793.496-3.572 1.03-5.294 1.546-2.81.843-5.713 1.715-8.716 2.432-3.464.83-6.758 1.359-9.85 1.593-2.452.825-4.674 1.757-6.316 2.934.273.032.555.051.819.06.692.033 1.393.052 2.113.052 4.057-.005 8.532-.586 13.333-1.734 3.002-.721 5.91-1.588 8.716-2.432 1.722-.52 3.506-1.054 5.294-1.546 9.342-2.582 18.411-3.932 26.963-4.007 2.499 0 4.974.352 5.247 1.355a.483.483 0 01.019.14l-.061-1.832-.029-.778c3.568-.258 7.154-.417 10.745-.482l-.1-2.901c-3.59.066-7.18.23-10.744.483v-.005z" fill="#fff"/><path d="M75.752 35.285l.029.778.06 1.832c0-.047-.009-.093-.018-.14-.268-1.003-2.748-1.355-5.247-1.355-8.547.075-17.62 1.425-26.963 4.007-1.793.497-3.572 1.03-5.294 1.546-2.81.844-5.714 1.715-8.716 2.432-4.8 1.148-9.276 1.73-13.333 1.734-.715 0-1.421-.014-2.113-.051a13.012 13.012 0 01-.819-.061c-.235.168-.466.342-.678.52-.499.422-.833.918-.81 1.354 0 .019 0 .038.005.052 0 .028.01.056.015.084 0 .019.009.037.018.056l.029.075c.01.019.018.038.028.052a.59.59 0 00.047.07c.014.019.023.033.042.052a.44.44 0 00.066.065c.019.014.033.033.052.047a.598.598 0 00.09.06.656.656 0 00.06.043c.038.023.08.042.118.061a1.891 1.891 0 00.278.108c.452.145 1.04.187 1.558.21.691.038 1.393.052 2.113.052 4.057-.005 8.532-.586 13.333-1.734 3.002-.717 5.91-1.588 8.716-2.432 1.722-.52 3.506-1.054 5.294-1.546 9.342-2.582 18.411-3.931 26.962-4.006 2.5 0 4.975.351 5.248 1.354.01.042.019.08.019.122v.014l-.09-2.564a200.01 200.01 0 0110.745-.482l-.1-2.9c-3.59.065-7.18.229-10.744.482v.01z" fill="#DB3232"/><path d="M75.856 38.186l.089 2.563v-.014a.774.774 0 01-.09.365c3.6-.262 7.225-.426 10.848-.492l-.098-2.9c-3.591.065-7.182.23-10.745.482l-.004-.004z" fill="#fff"/><path d="M75.847 41.096c-.193.38-.715.778-1.567 1.19-2.636 1.27-6.095 2.085-9.516 2.844.037 0 .07-.009.108-.014a198.094 198.094 0 0121.926-1.612l-.037-1.045-.066-1.86c-3.624.066-7.248.23-10.848.492v.005zM64.97 48.022c-.42.051-.838.107-1.257.164-2.754.37-5.587.75-8.392.75a26.75 26.75 0 01-1.736-.052 30.092 30.092 0 01-.621-.052 8.827 8.827 0 00-.876.623c-.522.427-.856.928-.767 1.355a.806.806 0 00.038.117c.004.014.014.028.019.037.014.024.023.052.042.075l.028.043c.019.023.033.042.057.065l.042.042.07.061c.015.014.034.024.048.038.028.019.066.042.099.06.018.01.032.02.051.029.057.028.113.056.174.08.471.187 1.12.248 1.695.28.579.033 1.157.052 1.74.052 2.806 0 5.634-.38 8.392-.75.42-.056.838-.112 1.257-.164a198.092 198.092 0 0121.926-1.612L86.9 46.41c-7.379.13-14.758.674-21.926 1.612h-.005z" fill="#DB3232"/><path d="M64.87 45.116c-.037 0-.07.01-.108.014-.263.061-.531.117-.795.178-4.297.952-8.377 1.86-11.008 3.524.212.024.419.042.621.052.58.033 1.158.051 1.737.051 2.805 0 5.633-.38 8.391-.75.419-.056.838-.112 1.257-.163A198.09 198.09 0 0186.89 46.41l-.099-2.901c-7.38.131-14.758.675-21.926 1.612l.005-.005zm-14.305-3.303l.009.239c0-.08.01-.164.028-.244-.014 0-.023.005-.037.01v-.005z" fill="#fff"/><path d="M51.608 46.499c2.613-2.132 7.432-3.2 12.086-4.232 3.337-.74 6.768-1.509 9.455-2.661a16.74 16.74 0 00-2.31-.136 95.557 95.557 0 00-10.971.75c-3.35.824-6.452 1.813-8.368 3.378-.513.422-.852.914-.837 1.354l.098 2.901c-.014-.445.325-.937.838-1.354h.01z" fill="#D1D1D1"/><path d="M69.488 4.55c-8.547.075-17.62 1.425-26.962 4.007-1.794.496-3.573 1.03-5.295 1.546-1.628.487-3.29.984-4.98 1.453l-.023-.666-.037-1.073c-.005-.178-.245-.347-.702-.506-1.379-.469-3.063-.619-4.786-.614l.099 2.84v.06c1.722 0 3.412.146 4.79.615.457.154.697.328.702.506l.061 1.738c1.69-.473 3.356-.965 4.98-1.452a223.4 223.4 0 015.294-1.547c9.342-2.582 18.411-3.931 26.962-4.006 2.5 0 4.975.351 5.248 1.354a.482.482 0 01.019.14l-.1-2.9a.735.735 0 00-.018-.14c-.268-1.003-2.748-1.355-5.247-1.355h-.005z" fill="#fff"/><path d="M69.587 7.45c-8.546.076-17.62 1.425-26.962 4.007-1.793.497-3.572 1.031-5.294 1.546-1.629.488-3.29.985-4.98 1.453l-.06-1.738c-.005-.178-.245-.347-.702-.506-1.379-.469-3.064-.619-4.786-.614l.099 2.84v.06c1.722 0 3.412.146 4.79.614.457.155.697.328.702.506l.061 1.739c1.69-.473 3.355-.965 4.98-1.453 1.722-.52 3.505-1.054 5.294-1.546 9.342-2.582 18.41-3.932 26.962-4.007 2.499 0 4.974.352 5.247 1.354a.483.483 0 01.02.141l-.1-2.9c0-.047-.009-.094-.018-.141-.269-1.003-2.749-1.354-5.248-1.354h-.005z" fill="#DB3232"/><path d="M69.685 10.356c-8.547.075-17.62 1.425-26.962 4.006-1.793.497-3.572 1.031-5.295 1.547-1.628.487-3.29.984-4.979 1.452l-.061-1.738c-.005-.178-.245-.347-.701-.506-1.38-.469-3.064-.619-4.787-.614l.066 1.889.033 1.016c1.723 0 3.408.146 4.787.614.456.155.696.328.7.506l.057 1.636v.103c1.69-.473 3.356-.966 4.98-1.453 1.722-.52 3.506-1.054 5.294-1.546 9.342-2.582 18.41-3.932 26.962-4.007 2.5 0 4.975.352 5.248 1.355a.479.479 0 01.019.14l-.09-2.605-.01-.3a.735.735 0 00-.018-.14c-.268-1.004-2.749-1.355-5.248-1.355h.005z" fill="#fff"/><path d="M74.96 12.146l.09 2.605c0-.046-.01-.093-.019-.14-.268-1.003-2.748-1.354-5.247-1.354-8.547.075-17.62 1.424-26.962 4.006-1.793.497-3.572 1.031-5.295 1.546-1.628.488-3.29.985-4.98 1.453v-.103l-.056-1.635c-.004-.178-.244-.347-.7-.507-1.38-.468-3.065-.618-4.787-.613l.099 2.825c1.722 0 3.407.146 4.786.614.457.155.697.328.701.506l.061 1.814c1.69-.474 3.356-.966 4.98-1.453a223.46 223.46 0 015.294-1.546c9.342-2.582 18.411-3.932 26.962-4.007 2.5 0 4.975.352 5.248 1.354a.483.483 0 01.019.141l-.09-2.61a199.96 199.96 0 0110.745-.483l-.1-2.896c-3.59.066-7.18.23-10.744.483h-.004zM26.6 5.736l-.099-2.84c.217 0 .428 0 .645.005 1.496.032 2.937.196 4.146.609.457.154.697.328.701.506v-.099l-.018-.543v-.099l-.033-.913a247.83 247.83 0 00-.043-1.242c-.004-.178-.245-.347-.701-.506-1.214-.413-2.659-.577-4.15-.61C26.834 0 26.617 0 26.401 0l.1 2.84.098 2.896z" fill="#DB3232"/><path d="M22.604 8.215l-.302-.89-.235.932c-.287.023-.579.047-.866.075l.72.501-.235.933.682-.619.72.51-.3-.89.682-.613h-.029c-.282.018-.56.042-.837.06z" fill="#fff"/><path d="M12.88 14.756l.231-.951-.23.951zm4.434-.586l.231-.941-.23.941z" fill="#DB3232"/><path d="M24.764 12.947c-.038.14-.076.3-.118.464-.042.164-.085.324-.118.464l-.856.056c.235.174.475.342.71.516l-.235.928.678-.605c.245.178.485.351.725.53-.09-.272-.212-.628-.302-.9l.692-.59c-.292.009-.588.018-.88.032l-.301-.895h.005z" fill="#fff"/><path d="M23.743 16.059l-.682.618.682-.618zm-1.788 1.616l.235-.932-.235.932zm-2.678.605l.716.492-.716-.492zm-2.241.248l-.673.642.673-.642z" fill="#DB3232"/><path d="M27.292 25.979l-.062-1.71.057 1.635.005.075z" fill="#fff"/><path d="M27.391 28.88l-.06-1.8.06 1.8z" fill="#DB3232"/><path d="M27.537 33.116l.052 1.57-.094-2.84-.005-.061.005.08.042 1.25z" fill="#7A0A1D"/><path d="M12.18 43.58c2.89-2.447 8.096-3.904 13.136-5.32.504-.14 1.016-.285 1.525-.43-.79.023-1.577.06-2.335.112-3.332.239-6.612.595-9.831 1.05-.984.506-1.859 1.059-2.588 1.677-.527.445-.88.975-.862 1.444l.1 2.9c-.015-.473.333-.998.86-1.443l-.004.01zm15.413-8.81l.094 2.82-.094-2.844-.005-.06.005.084z" fill="#D1D1D1"/><path d="M31.287 3.51c-1.205-.413-2.65-.577-4.146-.61-.212-.004-.428-.004-.645-.004l.099 2.84.099 2.905-.1-2.84c.217 0 .43 0 .646.005 1.496.033 2.936.197 4.146.61.456.154.696.327.701.505l-.099-2.9c-.004-.178-.244-.347-.7-.506V3.51z" fill="#fff"/><path d="M31.387 6.415c-1.205-.412-2.65-.576-4.146-.609-.212-.005-.429-.005-.645-.005l.099 2.84.098 2.9-.098-2.84c1.722 0 3.407.146 4.786.615.456.154.696.328.701.506l.038 1.073.023.665c1.69-.473 3.356-.965 4.98-1.452a223.09 223.09 0 015.294-1.547c9.342-2.582 18.41-3.931 26.962-4.006 2.5 0 4.975.351 5.248 1.354a.482.482 0 01.019.14l-.1-2.895a.735.735 0 00-.018-.14c-.268-1.004-2.749-1.355-5.248-1.355-8.546.075-17.62 1.424-26.962 4.006-1.793.497-3.572 1.031-5.294 1.547-1.629.487-3.29.984-4.98 1.452l-.06-1.747c-.006-.178-.246-.347-.702-.507l.005.005z" fill="#DB3232"/><path d="M27.094 20.239l-.099-2.83-.033-1.017-.066-1.889v-.06l-.099-2.84v-.062l-.103-2.9-.099-2.9-.099-2.897L26.402 0c-.546 0-1.092.014-1.633.042-.541.024-1.078.061-1.6.099-5.045.365-9.982.974-14.759 1.827-2.866.51-5.67 1.11-8.41 1.795L.692 24c7.3-1.822 15.093-3.045 23.169-3.627a45.513 45.513 0 013.233-.135zm-1.407-.99c-.24-.177-.485-.35-.725-.529-.226.202-.456.403-.678.605a7.83 7.83 0 00.057-.225c.037-.155.08-.323.122-.483a8.12 8.12 0 01.057-.225c-.236-.173-.476-.342-.711-.515l.857-.056c.037-.14.075-.3.117-.464.043-.164.085-.324.118-.464l.301.895c.292-.014.584-.028.88-.033l-.692.59c.09.272.212.628.302.9l-.005.005zm-.438-4.854c.09.272.212.628.301.9-.24-.178-.484-.351-.724-.53-.226.202-.457.403-.678.605l.235-.928c-.235-.173-.475-.342-.71-.515.282-.02.569-.038.856-.057.038-.14.075-.3.118-.463.042-.165.084-.324.117-.464l.302.895c.291-.014.583-.028.88-.033l-.692.59h-.005zm-2.024-.787l-.72-.506-.682.618.235-.932-.72-.501c.287-.024.58-.052.866-.075l.235-.933.302.89c.277-.023.56-.042.837-.06h.029l-.551.496-.132.117.301.89v-.004zm-2.212 2.01l-.715-.496-.678.632.236-.937-.716-.492.862-.084.235-.938.296.886c.287-.028.575-.052.866-.08l-.677.624.296.885h-.005zm-2.315-1.602l-.71-.488-.674.642.231-.942-.71-.482.851-.099.23-.941.297.88c.287-.032.57-.06.857-.089l-.673.638.296.88h.005zm-2.174 2.08l-.706-.478-.668.652.23-.947-.706-.473.847-.113.23-.942.293.877c.25-.033.498-.061.748-.09.033 0 .07-.009.103-.013l-.668.646.292.877.005.004zM14.24 14.56l-.701-.464-.659.661.226-.947-.697-.459.838-.126.23-.947.293.872c.282-.038.56-.08.842-.117l-.664.656.292.876v-.005zm-2.136 2.146l-.697-.459-.654.67.226-.951-.692-.45c.278-.047.555-.094.833-.136l.226-.951.292.872c.277-.043.555-.085.833-.132l-.66.666.288.871h.005zm-2.24-1.471l-.688-.445-.65.68.227-.957-.683-.44.386-.07c.146-.029.292-.052.438-.08l.226-.956.287.867.828-.14-.65.674.288.867h-.01zM7.77 17.446l-.682-.436-.64.693.22-.96-.677-.431.814-.164.221-.96.283.861.819-.154-.645.684.287.862v.005zM5.572 16.04l-.673-.426-.635.703.216-.966-.668-.422c.268-.06.537-.117.805-.173l.216-.965.283.857.81-.168-.636.698.282.857v.005zm-.414-4.813l.282.858-.673-.426-.635.702.217-.965-.669-.421c.269-.061.537-.118.805-.174l.217-.965.282.857.81-.168-.636.698v.004zm2.48 2.264l-.682-.436-.64.694.221-.961-.678-.431c.269-.056.542-.108.814-.164l.222-.96.282.861.819-.154-.645.689.287.862zM5.723 8.397c.268-.056.541-.108.814-.16l.221-.96.283.862.818-.154-.644.684.287.862-.683-.436-.64.694.222-.96-.678-.432zm4.01 2.882l-.688-.445-.649.684.226-.956-.683-.44c.273-.052.546-.099.824-.15l.226-.956.287.867.828-.14-.65.674.288.867-.01-.005zm2.24 1.467l-.697-.455-.654.67.226-.95-.692-.45c.278-.048.555-.095.833-.137l.226-.95.292.866.833-.127-.66.666.288.867h.005zm1.845-3.013l.291.876-.7-.469-.66.661.226-.946-.696-.46.837-.126.231-.947.292.872c.282-.038.56-.08.842-.117l-.663.656zm-2.274-1.81l.287.873-.696-.455-.654.67.226-.951-.692-.45c.278-.047.555-.094.833-.136l.226-.951.292.871c.277-.042.555-.089.833-.13l-.66.665.005-.005zm4.551 3.337l.292.877-.706-.478-.668.651.23-.942-.705-.473.847-.113.23-.941.292.876c.282-.038.565-.07.852-.103l-.668.646h.004zm2.466-1.2l-.71-.487-.673.642.23-.941-.71-.483.852-.099.23-.941.297.88c.287-.032.57-.06.856-.089l-.673.633.297.881.005.005zM15.96 7.306l.292.877-.706-.478-.668.651.23-.947-.706-.473.847-.112.23-.942.293.876c.282-.037.564-.07.851-.103l-.668.647.005.004zm4.923 4.358l-.716-.496-.677.627.235-.937-.715-.492.86-.084.236-.933.297.886c.287-.028.574-.051.866-.08l-.678.628.296.886-.004-.005zM23.47 8.15l-.682.614.3.89-.72-.51-.681.618.235-.933-.72-.501c.287-.023.579-.052.866-.075l.235-.933.301.89c.278-.023.56-.041.838-.06h.028zm-3.02-1.327l.296.885-.715-.496-.678.628.235-.938-.715-.492.861-.084.236-.937.296.885c.287-.028.574-.051.866-.08l-.678.624-.004.005zm4.664 3.617c.066.202.15.455.23.68.024.075.052.15.07.215-.24-.178-.484-.351-.724-.53-.226.202-.456.404-.678.605a76.852 76.852 0 01.236-.928c-.236-.173-.476-.342-.711-.515l.857-.056.235-.923.301.895c.292-.014.584-.028.88-.033l-.692.59h-.004zm-.132-3.955c.09.272.212.628.301.9-.24-.178-.485-.351-.725-.53-.226.202-.456.404-.677.605l.235-.928c-.028-.023-.061-.042-.09-.065l-.62-.45.856-.056c.037-.141.075-.3.117-.464.043-.164.085-.324.118-.464l.301.895c.292-.014.584-.028.88-.033l-.691.59h-.005zm-.861-4.48c.037-.14.075-.3.117-.463.038-.14.07-.281.104-.408 0-.019.01-.037.014-.052l.301.895c.292-.014.584-.028.88-.032l-.692.59c.09.272.212.628.302.9-.24-.178-.485-.352-.725-.53-.226.202-.457.403-.678.605l.235-.928c-.235-.173-.475-.342-.71-.515.282-.02.57-.038.856-.057l-.004-.004zM22.166 3.37l.302.89c.277-.023.56-.042.837-.06h.029l-.683.613.301.89-.72-.505-.682.618.235-.932-.72-.506c.287-.024.58-.052.866-.075l.235-.933zm-2.57-.998l.236-.937.297.886c.287-.029.574-.052.866-.08l-.678.623.296.886-.715-.497-.678.633.236-.938-.716-.492.862-.084h-.005zm-1.943 1.43l.297.88c.287-.033.57-.06.856-.089l-.673.638.297.88-.71-.487-.674.642.23-.937-.71-.483.852-.098.235-.937V3.8zm-2.536-.924l.23-.942.292.877c.282-.038.565-.07.852-.104l-.668.647.291.876-.706-.478-.668.652.23-.947-.705-.473.847-.113.005.005zM13.21 4.363l.292.871c.283-.037.56-.08.843-.117l-.664.656.292.872-.701-.464-.66.66.227-.946-.697-.464.838-.127.23-.946v.005zm-2.494-.849l.226-.95.292.87.833-.126-.659.666.287.871-.697-.459-.654.67.226-.951-.692-.45c.278-.047.556-.094.833-.136l.005-.005zM8.622 6.012l.226-.956.287.862.828-.14-.65.68.288.866-.687-.445-.65.68.226-.956-.687-.441c.136-.023.273-.052.41-.075.136-.023.272-.051.409-.075zM6.4 4.283l.22-.96.283.862.819-.155-.645.684.287.862-.682-.436-.64.694.221-.96-.678-.432c.269-.056.542-.107.815-.164v.005zM4.565 5.886l.282.857c.269-.056.542-.112.81-.169l-.635.699.282.857-.673-.426-.635.703.216-.961-.668-.422c.268-.06.536-.117.805-.173l.216-.96v-.005zm-2.39-.703l.216-.966.277.853c.269-.06.532-.122.8-.178l-.63.708.278.853-.669-.417-.626.712.217-.97-.664-.413c.264-.06.532-.126.796-.187l.004.005zm.136 3.955l.216-.966.278.853c.268-.06.532-.122.8-.178l-.63.708.277.853-.668-.418-.626.713.216-.97-.663-.413c.263-.06.532-.126.795-.187l.005.005zm.136 3.954l.217-.965.277.853c.269-.06.532-.122.8-.178l-.63.708.278.852-.669-.417-.626.713.217-.966-.664-.412c.264-.06.532-.127.796-.188h.004zm.132 3.955l.217-.965.277.853c.268-.06.532-.122.8-.178l-.63.707.277.853-.668-.417-.626.713.217-.97-.664-.413c.264-.06.532-.126.795-.187l.005.005zm1.082 5.225l-.668-.417-.626.712.217-.97-.664-.412c.264-.06.532-.126.796-.187l.216-.966.278.853c.268-.06.531-.122.8-.178l-.63.708.277.853.004.004zm1.375-2.699l-.636.703.217-.96-.668-.422c.268-.061.536-.117.804-.174l.217-.965.282.858.81-.17-.636.7.283.857-.673-.427zm2.87 1.828l-.682-.436-.64.694.221-.961-.677-.431c.268-.056.54-.108.814-.164l.22-.96.283.861.82-.154-.646.684.288.862v.005zm1.408-2.657l-.65.68.226-.957-.687-.44c.273-.052.546-.099.824-.15l.226-.956.287.867.828-.14-.65.679.287.867-.687-.445-.004-.005zm2.927 1.916l-.697-.454-.654.67.226-.951-.692-.45c.278-.047.556-.094.833-.136l.226-.951.292.871c.278-.042.555-.084.833-.13l-.659.665.287.871.005-.005zm1.435-2.61l-.659.661.226-.947-.696-.463.838-.127.23-.947.292.872c.282-.038.56-.08.842-.117l-.663.656.292.871-.702-.463v.004zm2.984 2.001l-.706-.478-.668.652.23-.947-.705-.473.847-.113.193-.796.037-.146.292.877c.282-.038.565-.07.852-.103l-.668.646.291.877.005.004zm1.464-2.568l-.673.642.23-.937-.71-.483.852-.098.235-.942.296.881c.288-.033.57-.06.857-.089l-.673.637.296.881-.71-.487v-.005zm3.026 2.09l-.715-.497-.678.628.235-.937-.715-.492.861-.084.235-.937.297.885c.287-.028.574-.051.866-.08l-.678.624.297.886-.005.004zm1.487-2.516l-.682.618.235-.932-.72-.506c.287-.024.579-.052.866-.075l.118-.464.117-.469.301.89c.278-.023.56-.041.838-.06h.028l-.682.614.301.89-.72-.506z" fill="#0053AF"/><path d="M1.962 10.703l.626-.712.668.417-.278-.853.631-.708c-.268.061-.536.117-.8.178l-.278-.853-.216.966c-.268.06-.532.121-.795.187l.663.412-.216.97-.005-.004zm-.137-3.955l.626-.713.668.417-.277-.852.63-.708c-.268.061-.536.117-.8.178l-.277-.853-.217.966c-.268.06-.532.121-.795.187l.663.412-.216.97-.005-.004zm.406 11.865l.626-.713.669.418-.278-.853.63-.708c-.268.061-.536.117-.8.178l-.277-.853-.217.966c-.268.06-.531.121-.795.187l.664.412-.217.97-.005-.004zm.08-4.921l-.216.966.626-.713.668.417-.278-.852.63-.708c-.267.06-.536.117-.8.178l-.277-.853-.216.965a37.07 37.07 0 00-.796.188l.664.412H2.31zm.899 7.198l-.278-.853-.217.965c-.268.061-.532.122-.795.188l.664.412-.217.97.626-.712.668.417-.277-.853.63-.707c-.268.06-.536.117-.8.178l-.005-.005zM4.211 7.446l-.216.96.635-.702.673.426-.282-.857.635-.699-.81.169-.282-.857-.216.96c-.269.056-.537.117-.805.173l.668.422v.005zM4.7 9.84l-.216.966c-.268.056-.536.117-.804.173l.668.422-.217.965.636-.703.673.427-.283-.858.636-.698-.81.169-.282-.858v-.004zm.42 4.813l-.282-.858-.217.966c-.268.056-.536.117-.805.173l.669.422-.217.965.636-.703.673.427-.283-.858.636-.698a114.1 114.1 0 00-.81.169v-.005zm.946 3.791l-.81.169-.282-.858-.216.965c-.268.057-.537.118-.805.174l.668.422-.216.96.635-.703.673.427-.282-.858.635-.698zm.114-8.655l.64-.694.682.436-.287-.862.644-.684-.819.155-.282-.863-.221.961c-.273.052-.541.108-.814.16l.677.43-.22.961zm-.138-3.955l.64-.694.683.436-.287-.862.645-.684-.82.154-.282-.862-.22.96c-.274.052-.542.109-.815.165l.678.431-.222.96v-.004zM7.314 16.05l-.283-.863-.22.96c-.274.052-.542.109-.815.165l.678.431-.221.96.64-.693.682.436-.287-.862.645-.684-.82.154v-.005zm.682-4.11l-.819.154-.282-.862-.221.96c-.273.052-.542.109-.815.165l.678.43-.221.961.64-.693.682.436-.287-.862.645-.69zm-.551 8.064l-.283-.862-.22.96c-.274.052-.542.108-.815.165l.678.43-.222.961.64-.693.683.436-.287-.863.645-.684-.82.155v-.005zM8.486 6.603l-.226.955.65-.679.687.445-.287-.867.649-.68c-.278.048-.55.095-.828.141l-.287-.862-.226.956c-.137.024-.273.052-.41.075-.136.023-.273.052-.41.075l.683.44h.005zm.78 3.275L8.98 9.01l-.226.956c-.273.047-.55.098-.823.15l.682.44-.226.956.65-.684.687.445-.287-.867.65-.674c-.279.046-.551.093-.83.14l.01.005zm.137 3.955l-.287-.867-.226.956c-.146.028-.292.051-.438.08l-.386.07.683.44-.226.956.65-.68.686.446-.287-.867.65-.675-.828.141h.009zm.961 3.814l-.828.14-.287-.866-.226.956c-.273.047-.55.098-.824.15l.683.44-.226.956.65-.68.686.446-.287-.867.65-.68.01.005zm.714-11.129l-.226.951c-.277.047-.555.09-.832.136l.691.45-.226.951.655-.67.696.455-.287-.872.659-.665c-.278.042-.555.084-.833.131l-.292-.872-.005.005zm-.724-1.466l.654-.67.697.459-.288-.872.66-.665-.834.126-.292-.871-.225.95c-.278.048-.556.09-.833.137l.691.45-.226.95-.004.006zm1.284 10.243l-.292-.872-.226.952c-.278.046-.555.089-.833.136l.692.45-.226.95.654-.67.697.46-.287-.872.659-.665c-.278.042-.556.084-.834.13h-.004zm-.135-3.955l-.292-.867-.226.951c-.277.047-.555.09-.833.136l.692.45-.226.951.654-.67.697.455-.287-.867.659-.665-.833.126h-.005zm.271 7.91l-.291-.872-.226.952c-.278.047-.556.089-.833.136l.692.45-.226.95.654-.67.696.455-.287-.872.66-.665c-.278.042-.556.084-.834.131l-.005.005zM12.84 5.895l-.227.946.66-.66.7.464-.292-.872.664-.656c-.282.037-.565.075-.842.117l-.292-.871-.23.946-.838.127.696.464v-.005zm.508 2.423l-.231.946-.838.127.697.459-.226.947.659-.661.701.468-.292-.876.664-.656c-.282.038-.565.075-.843.117l-.291-.871zm.422 4.826l-.291-.871-.231.946-.838.127.697.459-.226.946.659-.66.7.464-.29-.877.663-.656c-.283.038-.565.075-.843.117v.005zm.98 3.843a42.81 42.81 0 00-.843.117l-.292-.872-.23.947-.838.126.696.464-.226.947.66-.661.7.464-.291-.872.663-.656v-.004zm.734-11.101l-.23.941-.848.113.706.473-.23.947.668-.652.706.478-.292-.876.668-.647c-.282.033-.57.07-.852.103l-.291-.876-.005-.004zm-.74-1.481l.668-.652.706.478-.291-.876.668-.647c-.283.033-.57.07-.852.104l-.292-.877-.23.942-.848.113.706.473-.23.946-.005-.004zm2.157 10.168c-.033 0-.07.01-.104.014-.249.028-.498.061-.748.09l-.292-.877-.23.942-.847.112.706.474-.231.946.668-.651.706.478-.291-.876.668-.647-.005-.005zm-.137-3.959c-.282.033-.57.07-.851.103l-.292-.876-.23.942-.848.112.706.473-.23.942.668-.651.705.478-.291-.877.668-.646h-.005zm-.58 8.017l-.292-.876-.037.145-.193.797-.848.113.706.473-.23.946.668-.651.706.478-.292-.876.669-.647c-.283.033-.57.07-.852.103l-.005-.005zm1.093-13.312l-.23.937.672-.642.711.487-.296-.88.673-.638c-.287.028-.575.06-.857.089l-.296-.881-.236.937-.852.099.711.482v.01zm.809 3.317l-.296-.88-.231.941-.852.099.71.482-.23.942.673-.642.71.488-.296-.881.673-.633c-.287.028-.574.06-.856.089l-.005-.005zm.133 3.955l-.297-.88-.23.941-.852.099.71.482-.23.942.673-.642.71.487-.296-.88.673-.638c-.287.028-.574.061-.856.09h-.005zm.991 3.866c-.286.028-.573.06-.856.089l-.296-.881-.235.942-.852.098.71.483-.23.937.673-.642.71.488-.296-.881.673-.638v.005zm.754-11.068l-.236.937-.86.084.715.492-.236.938.678-.628.715.496-.296-.885.678-.623a53.98 53.98 0 00-.866.08l-.297-.886.005-.005zm-.749-1.504l.678-.633.715.497-.296-.886.677-.623a42.86 42.86 0 00-.866.08l-.296-.886-.235.937-.861.084.715.492-.236.938h.005zm1.319 10.305l-.297-.886-.235.937-.861.084.715.492-.235.937.677-.632.716.496-.297-.885.678-.623a42.2 42.2 0 00-.866.08h.005zm-.137-3.96l-.296-.886-.236.932-.861.085.715.492-.235.937.678-.628.715.497-.296-.886.677-.628c-.287.024-.579.052-.866.08l.005.004zm.273 7.914l-.296-.886-.235.938-.862.084.716.492-.236.937.678-.628.715.497-.296-.886.678-.623c-.287.023-.58.052-.866.08l.004-.005zm1.115-13.266l-.236.933.683-.619.72.506-.302-.89.683-.614h-.028c-.283.019-.56.042-.838.06l-.301-.89-.236.933c-.287.023-.578.047-.866.075l.72.506zm1.271 7.722l.55-.496h-.028c-.282.019-.56.042-.838.06l-.3-.89-.236.933c-.287.023-.579.047-.866.075l.72.501-.235.933.682-.619.72.506-.301-.89.132-.117v.005zm.687 3.459h-.028c-.283.018-.56.042-.838.06l-.301-.89-.118.469-.117.464c-.288.023-.58.047-.866.075l.72.506-.236.932.683-.618.72.506-.301-.89.682-.614zm.749-11.026c-.037.14-.075.3-.117.464-.043.164-.085.323-.118.464l-.857.056.622.45c.028.023.06.042.089.065l-.235.928.677-.604c.245.173.485.351.725.53-.09-.273-.212-.629-.301-.9l.692-.591c-.292.01-.588.019-.88.033l-.302-.895h.005zm-.754-1.528l.678-.604c.244.178.484.351.724.53-.09-.273-.212-.629-.3-.9l.69-.59c-.29.008-.587.018-.88.032l-.3-.895c0 .019-.01.037-.015.051-.032.127-.065.268-.103.408-.042.164-.085.323-.118.464l-.856.056c.235.174.475.342.71.516l-.235.928.005.004zm.889 5.487l-.235.924-.857.056c.235.173.476.347.71.515l-.056.225c-.06.235-.127.497-.178.703l.677-.604c.245.173.485.351.725.53a57.63 57.63 0 00-.301-.895c.23-.198.461-.394.692-.591-.292.009-.589.018-.88.032l-.302-.895h.005zm.571 8.805l-.302-.895c-.037.14-.075.3-.117.464-.043.164-.085.324-.118.464l-.856.056c.235.174.475.343.71.516a7.84 7.84 0 00-.056.225 24.3 24.3 0 01-.122.482 7.83 7.83 0 01-.057.225l.678-.604c.244.178.485.351.725.53-.09-.272-.212-.629-.302-.9l.692-.59c-.292.009-.588.018-.88.032l.005-.005zm49.863-2.755l.09 2.61a.714.714 0 00-.02-.14c-.268-1.003-2.748-1.355-5.247-1.355-8.547.075-17.62 1.425-26.962 4.007-1.793.496-3.572 1.03-5.295 1.546-1.628.487-3.29.984-4.979 1.453l-.061-1.814c-.005-.178-.245-.346-.701-.506-1.38-.468-3.064-.618-4.787-.614-1.087 0-2.188.066-3.233.14-8.076.582-15.87 1.8-23.169 3.628l.1 2.905c7.299-1.823 15.092-3.046 23.168-3.627a45.575 45.575 0 013.233-.136c.217-.004.428 0 .645 0 1.497.033 2.937.197 4.146.61.457.154.697.327.701.506l.062 1.813a280.3 280.3 0 004.979-1.453c1.722-.52 3.506-1.054 5.294-1.546 9.342-2.582 18.411-3.931 26.963-4.006 2.499 0 4.974.35 5.247 1.354a.483.483 0 01.019.14l-.09-2.61c3.568-.258 7.154-.417 10.745-.482l-.099-2.901c-3.59.066-7.182.23-10.744.483l-.005-.005z" fill="#fff"/><path d="M75.16 17.943l.089 2.61a.72.72 0 00-.019-.14c-.268-1.004-2.749-1.355-5.248-1.355-8.546.075-17.62 1.424-26.962 4.006-1.793.497-3.572 1.031-5.294 1.547-1.629.487-3.29.984-4.98 1.452l-.06-1.813c-.005-.178-.245-.347-.702-.506-1.205-.413-2.65-.577-4.146-.61-.212-.004-.428-.004-.645-.004a45.455 45.455 0 00-3.233.145c-8.076.581-15.87 1.8-23.169 3.627l.014.403.085 2.502c7.3-1.822 15.093-3.045 23.169-3.627a45.513 45.513 0 013.233-.135v-.01c.216 0 .428 0 .645.005 1.496.033 2.936.197 4.146.61.456.154.697.327.701.505l.01.23.051 1.509c1.69-.474 3.356-.966 4.98-1.453 1.722-.52 3.506-1.054 5.294-1.546 9.342-2.582 18.411-3.932 26.962-4.007 2.5 0 4.975.352 5.248 1.354a.482.482 0 01.019.141l-.085-2.535c3.567-.258 7.153-.417 10.744-.483l-.099-2.9c-3.59.065-7.181.23-10.744.482l-.005-.004zm-47.868 8.036v-.075l-.057-1.635.057 1.71z" fill="#DB3232"/><path d="M75.262 20.848l.085 2.535a.666.666 0 00-.02-.14c-.268-1.003-2.748-1.355-5.247-1.355-8.546.075-17.62 1.425-26.962 4.007-1.793.496-3.572 1.03-5.295 1.546-1.628.487-3.29.984-4.979 1.453l-.052-1.51-.009-.229c-.005-.178-.245-.347-.701-.506-1.205-.412-2.65-.576-4.146-.61-.212-.004-.429-.004-.645-.004v.01c-1.087 0-2.189.06-3.233.135-8.076.582-15.87 1.8-23.17 3.627l.1 2.906a125.793 125.793 0 018.41-1.795 141.519 141.519 0 0114.758-1.828 45.515 45.515 0 013.234-.135l.066 1.972.028.853-.1-2.84c1.723 0 3.408.146 4.787.614.457.155.697.328.701.507l.062 1.738a280.3 280.3 0 004.979-1.453 223.46 223.46 0 015.294-1.546c9.342-2.582 18.411-3.932 26.963-4.006 2.499 0 4.974.35 5.247 1.354a.483.483 0 01.019.14l-.085-2.535c3.567-.258 7.154-.417 10.745-.483l-.1-2.905c-3.59.066-7.181.23-10.744.483h.01z" fill="#fff"/><path d="M27.493 31.864v-.08l-.033-.852-.066-1.973c-1.087 0-2.188.061-3.233.136-5.045.36-9.982.975-14.759 1.828-2.866.51-5.67 1.11-8.41 1.794l.099 2.901C8.391 33.8 16.184 32.581 24.26 32a45.51 45.51 0 013.233-.136z" fill="#DB3232"/><path d="M27.594 34.77l.296-.169-.08-1.485-.32-1.252c-1.087 0-2.188.061-3.233.136-8.076.581-15.87 1.8-23.17 3.627l.1 2.906c7.3-1.823 15.093-3.046 23.169-3.627a45.513 45.513 0 013.233-.136h.005z" fill="#fff"/><path d="M65.063 50.875c-.419.052-.837.108-1.256.164-2.753.37-5.587.75-8.392.75a26.6 26.6 0 01-1.74-.052c-.575-.037-1.23-.093-1.695-.28a1.217 1.217 0 01-.174-.08c-.02-.01-.033-.019-.052-.028-.033-.02-.066-.043-.099-.061-.019-.014-.033-.024-.047-.038a.968.968 0 01-.113-.103c-.019-.023-.037-.042-.056-.066l-.029-.042a1.047 1.047 0 01-.042-.075c-.005-.014-.014-.028-.019-.037-.014-.033-.023-.066-.033-.099 0-.004 0-.014-.004-.018-.09-.427.244-.928.767-1.355a8.82 8.82 0 01.875-.623c2.636-1.663 6.711-2.572 11.008-3.524a43.4 43.4 0 00.795-.178c3.422-.759 6.88-1.579 9.516-2.844.857-.412 1.375-.81 1.568-1.19a.748.748 0 00.09-.366.508.508 0 00-.02-.122c-.268-1.002-2.748-1.354-5.247-1.354-8.547.075-17.62 1.425-26.962 4.007-1.794.496-3.572 1.03-5.295 1.546-2.81.843-5.713 1.715-8.716 2.432-4.8 1.148-9.276 1.73-13.333 1.734a39.13 39.13 0 01-2.113-.052c-.518-.028-1.106-.065-1.558-.21a2.317 2.317 0 01-.277-.108 1.35 1.35 0 01-.118-.061.675.675 0 01-.061-.043c-.033-.018-.061-.042-.09-.06-.018-.014-.033-.033-.051-.047-.024-.024-.047-.042-.066-.066-.014-.019-.028-.033-.043-.051a.857.857 0 01-.047-.07c-.01-.02-.018-.038-.028-.052a.246.246 0 01-.028-.075c-.005-.019-.014-.038-.019-.056l-.014-.085c0-.018-.005-.037-.005-.051-.023-.431.31-.933.81-1.355.211-.178.437-.351.677-.52 1.643-1.171 3.864-2.108 6.316-2.933 1.91-.642 3.958-1.219 5.977-1.786 2.306-.646 4.697-1.316 6.848-2.075.296-.103.616-.23.687-.422.075-.202-.165-.403-.687-.586-1.38-.468-3.064-.618-4.787-.614-1.087 0-2.188.061-3.233.136-8.076.581-15.87 1.8-23.169 3.627l.198.188a127.05 127.05 0 019.648-2.001l.09 2.572c-.015-.468.333-.998.86-1.443.73-.619 1.605-1.172 2.589-1.678a145.33 145.33 0 019.831-1.05 46.788 46.788 0 012.335-.112c-.509.146-1.017.286-1.525.431-5.04 1.41-10.25 2.873-13.135 5.319-.527.445-.88.975-.862 1.443l.1 2.854v-.042c0 .43.286.815 1.025 1.054.532.173 1.181.216 1.75.248.707.038 1.422.052 2.156.052 4.128-.005 8.674-.595 13.54-1.762 3.022-.721 5.94-1.598 8.754-2.441 1.722-.516 3.501-1.05 5.285-1.547 2.23-.618 4.443-1.162 6.64-1.635.015 0 .024-.005.038-.01a.884.884 0 00-.028.244l.099 2.9c-.014-.444.325-.936.837-1.353 1.916-1.566 5.013-2.554 8.368-3.379a94.439 94.439 0 0110.97-.75c.782 0 1.591.042 2.311.136-2.692 1.153-6.123 1.922-9.455 2.662-4.659 1.03-9.473 2.1-12.085 4.231-.513.422-.852.914-.838 1.355l.099 2.853v-.047c-.01.38.23.722.828.961.55.22 1.28.29 1.916.328.597.038 1.195.052 1.793.052 2.861 0 5.723-.385 8.509-.76.418-.056.833-.112 1.251-.164A196.23 196.23 0 0187 49.465v-.211a196.8 196.8 0 00-21.931 1.612l-.005.01z" fill="#7A0A1D"/></g><defs><clipPath id="clip0_68_9684"><path fill="#fff" d="M0 0h87v52H0z"/></clipPath></defs></svg>