<?xml version="1.0" encoding="utf-8"?>
<!-- Generator: Adobe Illustrator 23.0.1, SVG Export Plug-In . SVG Version: 6.00 Build 0)  -->
<svg version="1.1" id="Слой_1" xmlns="http://www.w3.org/2000/svg" xmlns:xlink="http://www.w3.org/1999/xlink" x="0px" y="0px"
	 viewBox="0 0 253 53" style="enable-background:new 0 0 253 53;" xml:space="preserve">
<style type="text/css">
	.st0{fill-rule:evenodd;clip-rule:evenodd;}
	.st1{filter:url(#Adobe_OpacityMaskFilter);}
	.st2{fill-rule:evenodd;clip-rule:evenodd;fill:#FFFFFF;}
	.st3{mask:url(#mask-2_1_);fill-rule:evenodd;clip-rule:evenodd;}
	.st4{filter:url(#Adobe_OpacityMaskFilter_1_);}
	.st5{mask:url(#mask-2_2_);fill-rule:evenodd;clip-rule:evenodd;}
</style>
<title>Chamber Logo white</title>
<desc>Created with Sketch.</desc>
<g id="homepage">
	<g id="homepage-actions" transform="translate(-38.000000, -10.000000)">
		<g id="Chamber-Logo-white" transform="translate(38.000000, 10.000000)">
			<path id="Fill-1" class="st0" d="M83.3,28.9c-1.2-1-2.4-1.8-3.7-2.3c-1.3-0.5-2.7-0.8-4.1-0.8c-2.8,0-5.1,0.9-6.8,2.7
				c-1.8,1.8-2.6,4.1-2.6,7c0,2.8,0.9,5,2.6,6.8c1.7,1.8,3.9,2.7,6.5,2.7c1.5,0,3-0.3,4.3-0.8c1.4-0.5,2.7-1.3,3.9-2.4v4.7
				c-1.1,0.8-2.3,1.4-3.6,1.8c-1.3,0.4-2.7,0.6-4.3,0.6c-2,0-3.8-0.3-5.4-1c-1.7-0.6-3.1-1.6-4.4-2.8c-1.2-1.2-2.2-2.7-2.9-4.3
				c-0.7-1.7-1-3.4-1-5.3c0-1.9,0.3-3.6,1-5.3c0.7-1.6,1.6-3.1,2.9-4.3c1.3-1.3,2.7-2.2,4.4-2.9c1.6-0.6,3.4-1,5.3-1
				c1.5,0,2.9,0.2,4.3,0.7c1.4,0.4,2.7,1.1,4,2L83.3,28.9"/>
			<polyline id="Fill-2" class="st0" points="92.7,48.3 92.7,22.7 96.9,22.7 96.9,32.1 109.4,32.1 109.4,22.7 113.6,22.7 
				113.6,48.3 109.4,48.3 109.4,35.9 96.9,35.9 96.9,48.3 92.7,48.3 			"/>
			<path id="Fill-3" class="st0" d="M129.2,38.2h7.1l-2.6-5.8c-0.2-0.4-0.3-0.8-0.5-1.3c-0.2-0.5-0.3-1-0.5-1.6
				c-0.1,0.6-0.3,1.1-0.4,1.6c-0.2,0.5-0.3,0.9-0.5,1.3L129.2,38.2L129.2,38.2z M140.6,48.3l-2.9-6.6h-10.1l-3,6.6h-4.4l12.4-26.6
				L145,48.3H140.6L140.6,48.3z"/>
			<path id="Fill-4" class="st0" d="M172.6,35.7c0-0.2-0.1-0.7-0.2-1.6c-0.1-0.7-0.2-1.4-0.2-1.8c-0.1,0.6-0.3,1.2-0.4,1.7
				c-0.2,0.6-0.4,1.2-0.7,1.8l-6.7,13.6l-6.7-13.9c-0.3-0.6-0.5-1.1-0.7-1.7c-0.2-0.5-0.4-1.1-0.5-1.6c0,0.5-0.1,1.1-0.1,1.7
				c-0.1,0.6-0.2,1.2-0.3,1.8l-2.7,12.6h-3.8l6-26.6l7.5,16.1c0.1,0.3,0.3,0.7,0.5,1.3c0.2,0.6,0.5,1.3,0.9,2.2
				c0.2-0.7,0.6-1.7,1.2-2.8c0.1-0.3,0.2-0.5,0.3-0.7l7.4-16.1l6.2,26.6h-3.9L172.6,35.7"/>
			<path id="Fill-5" class="st0" d="M190.9,44.8h1.4c1.5,0,2.5-0.1,3.3-0.2c0.7-0.1,1.3-0.3,1.7-0.6c0.5-0.3,0.9-0.8,1.2-1.4
				c0.3-0.6,0.4-1.2,0.4-1.9c0-0.8-0.2-1.5-0.5-2.1c-0.3-0.6-0.8-1.1-1.4-1.4c-0.4-0.2-0.8-0.3-1.4-0.4c-0.5-0.1-1.2-0.1-2-0.1h-2.7
				V44.8L190.9,44.8z M190.9,33.5h1.6c2,0,3.4-0.3,4.2-0.8c0.8-0.5,1.2-1.5,1.2-2.7c0-1.4-0.4-2.4-1.1-2.9c-0.8-0.6-2.2-0.8-4.3-0.8
				h-1.6V33.5L190.9,33.5z M186.9,48.3V22.7h6.4c1.8,0,3.2,0.1,4.1,0.3c0.9,0.2,1.6,0.5,2.2,1c0.8,0.6,1.4,1.3,1.8,2.3
				c0.4,0.9,0.7,2,0.7,3.1c0,1.4-0.3,2.5-0.9,3.4c-0.6,0.9-1.5,1.6-2.7,1.9c1.5,0.2,2.7,0.9,3.5,2c0.9,1.1,1.3,2.5,1.3,4.3
				c0,1-0.2,2-0.5,3c-0.4,0.9-0.9,1.7-1.5,2.4c-0.7,0.7-1.6,1.2-2.6,1.5c-1,0.3-2.8,0.4-5.2,0.4H186.9L186.9,48.3z"/>
			<polyline id="Fill-6" class="st0" points="211.8,48.3 211.8,22.7 226,22.7 226,26.2 215.9,26.2 215.9,32.7 226,32.7 226,36.3 
				215.9,36.3 215.9,44.6 226,44.6 226,48.3 211.8,48.3 			"/>
			<path id="Fill-7" class="st0" d="M239.3,33.6h0.8c2.2,0,3.7-0.3,4.4-0.8c0.7-0.5,1.1-1.4,1.1-2.7c0-1.4-0.4-2.4-1.2-3
				c-0.8-0.6-2.2-0.9-4.3-0.9h-0.8V33.6L239.3,33.6z M239,36.8v11.4h-3.9V22.7h5.8c1.7,0,3,0.1,4,0.3c0.9,0.2,1.7,0.6,2.4,1.1
				c0.8,0.6,1.4,1.4,1.8,2.4c0.4,1,0.6,2,0.6,3.2c0,2-0.5,3.7-1.5,4.8c-1,1.2-2.5,1.9-4.4,2.1l8.8,11.6H248l-8.5-11.4H239L239,36.8z
				"/>
			<path id="Fill-8" class="st0" d="M70.4,7c-0.3-0.3-0.7-0.5-1.1-0.7C68.9,6.1,68.5,6,68.1,6c-0.5,0-0.9,0.1-1.3,0.2
				c-0.4,0.2-0.7,0.4-1,0.7c-0.3,0.3-0.6,0.7-0.7,1.2c-0.2,0.4-0.3,0.9-0.3,1.4c0,0.5,0.1,1,0.3,1.4c0.2,0.4,0.4,0.8,0.7,1.2
				c0.3,0.3,0.6,0.5,1,0.7c0.4,0.2,0.8,0.2,1.3,0.2c0.5,0,0.9-0.1,1.3-0.2c0.4-0.2,0.7-0.4,1-0.7l0.8,0.8c-0.4,0.4-0.9,0.7-1.4,0.9
				c-0.5,0.2-1.1,0.3-1.7,0.3c-0.6,0-1.2-0.1-1.7-0.3c-0.5-0.2-1-0.5-1.4-0.9c-0.4-0.4-0.8-0.9-1-1.5s-0.3-1.2-0.3-1.8
				c0-0.7,0.1-1.3,0.3-1.8s0.6-1.1,1-1.5c0.4-0.4,0.9-0.7,1.4-0.9C66.8,5.1,67.4,5,68.1,5c0.6,0,1.2,0.1,1.7,0.3
				c0.5,0.2,1,0.5,1.4,0.8L70.4,7"/>
			<polyline id="Fill-9" class="st0" points="76.7,13.9 76.7,5.2 77.8,5.2 77.8,8.9 82.4,8.9 82.4,5.2 83.5,5.2 83.5,13.9 
				82.4,13.9 82.4,9.9 77.8,9.9 77.8,13.9 76.7,13.9 			"/>
			<path id="Fill-10" class="st0" d="M91.1,10.8h3.3L93,7.4c0-0.1-0.1-0.2-0.1-0.3c0-0.1-0.1-0.3-0.2-0.5c-0.1,0.2-0.1,0.4-0.2,0.5
				c0,0.1-0.1,0.2-0.1,0.3L91.1,10.8L91.1,10.8z M88.7,13.9l3.6-8.7h0.9l3.7,8.7h-1.3l-0.8-2h-4.1l-0.8,2H88.7L88.7,13.9z"/>
			<polyline id="Fill-11" class="st0" points="102.7,13.9 102.7,6.2 100.5,6.2 100.5,5.2 106.1,5.2 106.1,6.2 103.8,6.2 103.8,13.9 
				102.7,13.9 			"/>
			<polyline id="Fill-12" class="st0" points="112.6,13.9 112.6,6.2 110.4,6.2 110.4,5.2 115.9,5.2 115.9,6.2 113.7,6.2 113.7,13.9 
				112.6,13.9 			"/>
			<path id="Fill-13" class="st0" d="M121.7,10.8h3.3l-1.4-3.5c0-0.1-0.1-0.2-0.1-0.3c0-0.1-0.1-0.3-0.2-0.5
				c-0.1,0.2-0.1,0.4-0.2,0.5c0,0.1-0.1,0.2-0.1,0.3L121.7,10.8L121.7,10.8z M119.4,13.9l3.6-8.7h0.9l3.7,8.7h-1.3l-0.8-2h-4.1
				l-0.8,2H119.4L119.4,13.9z"/>
			<path id="Fill-14" class="st0" d="M132.7,13.9V5.2h1.1l4.2,6c0.1,0.2,0.2,0.3,0.3,0.5c0.1,0.2,0.2,0.4,0.3,0.6
				c-0.1-0.3-0.1-0.5-0.2-0.7c0-0.2-0.1-0.4-0.1-0.6V5.2h1.1v8.7h-0.9l-4.4-6.3c-0.2-0.2-0.3-0.4-0.4-0.6c-0.1-0.1-0.1-0.3-0.2-0.4
				c0.1,0.3,0.1,0.6,0.1,0.8c0,0.3,0,0.5,0,0.7v5.7H132.7"/>
			<path id="Fill-15" class="st0" d="M149.6,13c0.5,0,0.9-0.1,1.3-0.2c0.4-0.2,0.7-0.4,1-0.7c0.3-0.3,0.6-0.7,0.7-1.2
				c0.2-0.4,0.3-0.9,0.3-1.4c0-0.5-0.1-1-0.3-1.4c-0.2-0.4-0.4-0.8-0.8-1.2c-0.3-0.3-0.7-0.5-1-0.7C150.5,6.1,150,6,149.6,6
				c-0.5,0-0.9,0.1-1.3,0.2c-0.4,0.2-0.7,0.4-1,0.7c-0.3,0.3-0.6,0.7-0.7,1.1c-0.2,0.4-0.3,0.9-0.3,1.4c0,0.5,0.1,1,0.3,1.4
				c0.2,0.4,0.4,0.8,0.7,1.2c0.3,0.3,0.6,0.5,1,0.7C148.7,13,149.1,13,149.6,13L149.6,13z M149.6,14.1c-0.6,0-1.2-0.1-1.7-0.3
				c-0.5-0.2-1-0.5-1.4-0.9c-0.4-0.4-0.8-0.9-1-1.5c-0.2-0.6-0.3-1.2-0.3-1.8c0-0.7,0.1-1.3,0.3-1.8c0.2-0.6,0.6-1.1,1-1.5
				c0.4-0.4,0.9-0.7,1.4-0.9c0.5-0.2,1.1-0.3,1.7-0.3c0.6,0,1.2,0.1,1.7,0.3c0.5,0.2,1,0.5,1.4,0.9c0.4,0.4,0.8,0.9,1,1.5
				c0.2,0.6,0.3,1.2,0.3,1.8c0,0.7-0.1,1.3-0.3,1.8c-0.2,0.6-0.6,1.1-1,1.5c-0.4,0.4-0.9,0.7-1.4,0.9
				C150.8,14,150.2,14.1,149.6,14.1L149.6,14.1z"/>
			<path id="Fill-16" class="st0" d="M163.8,13c0.5,0,0.9-0.1,1.3-0.2c0.4-0.2,0.7-0.4,1-0.7c0.3-0.3,0.6-0.7,0.7-1.2
				c0.2-0.4,0.3-0.9,0.3-1.4c0-0.5-0.1-1-0.3-1.4c-0.2-0.4-0.4-0.8-0.8-1.2c-0.3-0.3-0.7-0.5-1-0.7c-0.4-0.2-0.8-0.2-1.3-0.2
				c-0.5,0-0.9,0.1-1.3,0.2c-0.4,0.2-0.7,0.4-1,0.7c-0.3,0.3-0.6,0.7-0.7,1.1c-0.2,0.4-0.3,0.9-0.3,1.4c0,0.5,0.1,1,0.3,1.4
				c0.2,0.4,0.4,0.8,0.7,1.2c0.3,0.3,0.6,0.5,1,0.7C162.9,13,163.3,13,163.8,13L163.8,13z M163.8,14.1c-0.6,0-1.2-0.1-1.7-0.3
				c-0.5-0.2-1-0.5-1.4-0.9c-0.4-0.4-0.8-0.9-1-1.5c-0.2-0.6-0.3-1.2-0.3-1.8c0-0.7,0.1-1.3,0.3-1.8c0.2-0.6,0.6-1.1,1-1.5
				c0.4-0.4,0.9-0.7,1.4-0.9c0.5-0.2,1.1-0.3,1.7-0.3c0.6,0,1.2,0.1,1.7,0.3c0.5,0.2,1,0.5,1.4,0.9c0.4,0.4,0.8,0.9,1,1.5
				c0.2,0.6,0.3,1.2,0.3,1.8c0,0.7-0.1,1.3-0.3,1.8c-0.2,0.6-0.6,1.1-1,1.5c-0.4,0.4-0.9,0.7-1.4,0.9C165,14,164.5,14.1,163.8,14.1
				L163.8,14.1z"/>
			<path id="Fill-17" class="st0" d="M180.4,7c-0.3-0.3-0.6-0.5-1-0.7C178.9,6.1,178.5,6,178,6c-0.5,0-0.9,0.1-1.3,0.2
				c-0.4,0.2-0.7,0.4-1,0.7c-0.3,0.3-0.6,0.7-0.7,1.2c-0.2,0.4-0.3,0.9-0.3,1.4c0,0.5,0.1,1,0.3,1.4c0.2,0.4,0.4,0.8,0.7,1.2
				c0.3,0.3,0.6,0.5,1,0.7c0.4,0.2,0.8,0.2,1.3,0.2c0.9,0,1.6-0.3,2.2-0.8c0.6-0.5,1-1.2,1.1-2.2h-3.1V9h4.3v0.2c0,0.5,0,1-0.1,1.4
				s-0.2,0.8-0.4,1.2c-0.4,0.7-0.9,1.3-1.6,1.6c-0.7,0.4-1.4,0.6-2.3,0.6c-0.6,0-1.2-0.1-1.7-0.3c-0.5-0.2-1-0.5-1.4-0.9
				c-0.4-0.4-0.8-0.9-1-1.5c-0.2-0.6-0.3-1.2-0.3-1.8c0-0.7,0.1-1.3,0.3-1.8c0.2-0.6,0.6-1.1,1-1.5c0.4-0.4,0.9-0.7,1.4-0.9
				c0.5-0.2,1.1-0.3,1.8-0.3c0.6,0,1.2,0.1,1.7,0.3c0.5,0.2,1,0.5,1.4,0.9L180.4,7"/>
			<path id="Fill-18" class="st0" d="M189.6,10.8h3.3l-1.4-3.5c0-0.1-0.1-0.2-0.1-0.3c0-0.1-0.1-0.3-0.2-0.5
				c-0.1,0.2-0.1,0.4-0.2,0.5c0,0.1-0.1,0.2-0.1,0.3L189.6,10.8L189.6,10.8z M187.2,13.9l3.6-8.7h0.9l3.7,8.7H194l-0.8-2h-4.1
				l-0.8,2H187.2L187.2,13.9z"/>
			<path id="Fill-19" class="st0" d="M209.2,10.8h3.3l-1.4-3.5c0-0.1-0.1-0.2-0.1-0.3c0-0.1-0.1-0.3-0.2-0.5
				c-0.1,0.2-0.1,0.4-0.2,0.5c0,0.1-0.1,0.2-0.1,0.3L209.2,10.8L209.2,10.8z M206.8,13.9l3.6-8.7h0.9l3.7,8.7h-1.3l-0.8-2h-4.1
				l-0.8,2H206.8L206.8,13.9z"/>
			<path id="Fill-20" class="st0" d="M221.3,9.7h0.8c0.7,0,1.2-0.2,1.6-0.5c0.4-0.3,0.6-0.7,0.6-1.3c0-0.5-0.2-1-0.6-1.2
				c-0.4-0.3-0.9-0.4-1.7-0.4h-0.8V9.7L221.3,9.7z M220.1,13.9V5.2h2c1,0,1.9,0.2,2.4,0.7c0.6,0.5,0.9,1.1,0.9,1.9
				c0,0.8-0.2,1.4-0.7,1.9c-0.5,0.5-1.1,0.8-1.9,0.8h-0.1l3.1,3.4h-1.4l-3.1-3.5v3.5H220.1L220.1,13.9z"/>
			<polyline id="Fill-21" class="st0" points="231.3,13.9 231.3,5.2 235.8,5.2 235.8,6.2 232.4,6.2 232.4,8.9 235.8,8.9 235.8,9.9 
				232.4,9.9 232.4,12.9 235.8,12.9 235.8,13.9 231.3,13.9 			"/>
			<path id="Fill-22" class="st0" d="M243.3,10.8h3.3l-1.4-3.5c0-0.1-0.1-0.2-0.1-0.3c0-0.1-0.1-0.3-0.2-0.5
				c-0.1,0.2-0.1,0.4-0.2,0.5c0,0.1-0.1,0.2-0.1,0.3L243.3,10.8L243.3,10.8z M240.9,13.9l3.6-8.7h0.9l3.7,8.7h-1.3l-0.8-2h-4.1
				l-0.8,2H240.9L240.9,13.9z"/>
			<path id="Fill-23" class="st0" d="M27.8,34.3c-4,2-8.6,1-10.3-2.4c-1.7-3.4,0.1-7.8,4-9.8l15.5-8l6.3,12.2L27.8,34.3"/>
			<g id="Group-27">
				<g id="Clip-25">
				</g>
				<defs>
					<filter id="Adobe_OpacityMaskFilter" filterUnits="userSpaceOnUse" x="29.9" y="0.2" width="21.1" height="40.7">
						<feColorMatrix  type="matrix" values="1 0 0 0 0  0 1 0 0 0  0 0 1 0 0  0 0 0 1 0"/>
					</filter>
				</defs>
				<mask maskUnits="userSpaceOnUse" x="29.9" y="0.2" width="21.1" height="40.7" id="mask-2_1_">
					<g class="st1">
						<polygon id="path-1_1_" class="st2" points="51,53 0,53 0,0.2 25.5,0.2 51,0.2 						"/>
					</g>
				</mask>
				<polyline id="Fill-24" class="st3" points="40.4,20.5 29.9,0.2 51,15 50.9,40.8 40.4,20.5 				"/>
				<defs>
					<filter id="Adobe_OpacityMaskFilter_1_" filterUnits="userSpaceOnUse" x="0" y="2.2" width="45.4" height="50.8">
						<feColorMatrix  type="matrix" values="1 0 0 0 0  0 1 0 0 0  0 0 1 0 0  0 0 0 1 0"/>
					</filter>
				</defs>
				<mask maskUnits="userSpaceOnUse" x="0" y="2.2" width="45.4" height="50.8" id="mask-2_2_">
					<g class="st4">
						<polygon id="path-1_2_" class="st2" points="51,53 0,53 0,0.2 25.5,0.2 51,0.2 						"/>
					</g>
				</mask>
				<path id="Fill-26" class="st5" d="M24.2,53C15.5,53,7,48.2,2.7,39.9c-3-5.7-3.5-12.3-1.5-18.4c2-6.1,6.2-11.2,11.9-14.1l10-5.1
					l4.1,7.9l-10,5.1c-3.6,1.9-6.3,5-7.5,8.9s-0.9,8,1,11.6c3.9,7.5,13.1,10.4,20.5,6.5l10.1-5.2l4.1,7.9l-10.1,5.2
					C31.7,52.1,27.9,53,24.2,53"/>
			</g>
		</g>
	</g>
</g>
</svg>
