<svg width="136" height="24" viewBox="0 0 136 24" fill="none" xmlns="http://www.w3.org/2000/svg">
<path fill-rule="evenodd" clip-rule="evenodd" d="M10.0965 2.6447C10.6925 0.796413 13.3075 0.796411 13.9035 2.6447L15.5611 7.78523L20.9412 7.78523C22.875 7.78523 23.6829 10.2567 22.1226 11.399L17.7569 14.5951L19.4214 19.757C20.0164 21.6023 17.9009 23.1298 16.3365 21.9845L12 18.8098L7.66352 21.9845C6.09909 23.1298 3.98358 21.6023 4.5786 19.757L6.24305 14.5951L1.87734 11.399C0.31704 10.2567 1.12502 7.78523 3.05878 7.78523H8.43892L10.0965 2.6447Z" fill="#FFAC3D"/>
<path fill-rule="evenodd" clip-rule="evenodd" d="M38.0965 2.6447C38.6925 0.796413 41.3075 0.796411 41.9035 2.6447L43.5611 7.78523L48.9412 7.78523C50.875 7.78523 51.6829 10.2567 50.1226 11.399L45.7569 14.5951L47.4214 19.757C48.0164 21.6023 45.9009 23.1298 44.3365 21.9845L40 18.8098L35.6635 21.9845C34.0991 23.1298 31.9836 21.6023 32.5786 19.757L34.2431 14.5951L29.8773 11.399C28.317 10.2567 29.125 7.78523 31.0588 7.78523H36.4389L38.0965 2.6447Z" fill="#FFAC3D"/>
<path fill-rule="evenodd" clip-rule="evenodd" d="M66.0965 2.6447C66.6925 0.796413 69.3075 0.796411 69.9035 2.6447L71.5611 7.78523L76.9412 7.78523C78.875 7.78523 79.6829 10.2567 78.1226 11.399L73.7569 14.5951L75.4214 19.757C76.0164 21.6023 73.9009 23.1298 72.3365 21.9845L68 18.8098L63.6635 21.9845C62.0991 23.1298 59.9836 21.6023 60.5786 19.757L62.2431 14.5951L57.8773 11.399C56.317 10.2567 57.125 7.78523 59.0588 7.78523H64.4389L66.0965 2.6447Z" fill="#FFAC3D"/>
<path fill-rule="evenodd" clip-rule="evenodd" d="M94.0965 2.6447C94.6925 0.796413 97.3075 0.796411 97.9035 2.6447L99.5611 7.78523L104.941 7.78523C106.875 7.78523 107.683 10.2567 106.123 11.399L101.757 14.5951L103.421 19.757C104.016 21.6023 101.901 23.1298 100.336 21.9845L96 18.8098L91.6635 21.9845C90.0991 23.1298 87.9836 21.6023 88.5786 19.757L90.2431 14.5951L85.8773 11.399C84.317 10.2567 85.125 7.78523 87.0588 7.78523H92.4389L94.0965 2.6447Z" fill="#FFAC3D"/>
<path fill-rule="evenodd" clip-rule="evenodd" d="M122.097 2.6447C122.692 0.796413 125.307 0.796411 125.903 2.6447L127.561 7.78523L132.941 7.78523C134.875 7.78523 135.683 10.2567 134.123 11.399L129.757 14.5951L131.421 19.757C132.016 21.6023 129.901 23.1298 128.336 21.9845L124 18.8098L119.664 21.9845C118.099 23.1298 115.984 21.6023 116.579 19.757L118.243 14.5951L113.877 11.399C112.317 10.2567 113.125 7.78523 115.059 7.78523H120.439L122.097 2.6447Z" fill="#FFAC3D"/>
</svg>
