<svg width="30" height="30" viewBox="0 0 30 30" fill="none" xmlns="http://www.w3.org/2000/svg">
<path d="M27.9025 13.0932C27.0836 12.1062 25.8013 11.4931 24.5561 11.4931H21.262C22.0033 10.3117 22.5612 9.12293 22.9012 7.9909C23.4201 6.26344 23.4019 4.75758 22.8487 3.63609C22.2255 2.37293 20.9627 1.67725 19.293 1.67725C18.9133 1.67725 18.5711 1.90635 18.4263 2.25744C17.1262 5.41078 13.7352 9.94301 10.5403 12.9287C10.2142 11.7962 9.16945 10.9651 7.93354 10.9651H3.91986C2.42402 10.9651 1.20703 12.1821 1.20703 13.6779V25.6103C1.20703 27.1061 2.42402 28.3231 3.91986 28.3231H7.93354C8.84859 28.3231 9.65871 27.8672 10.1503 27.1711C10.894 27.8866 11.8799 28.3231 12.9602 28.3231H23.0665C24.1837 28.3231 25.1787 27.8474 25.9438 26.9474C26.5745 26.2054 27.0224 25.203 27.2391 24.0487L28.7287 16.1135C28.9286 15.0489 28.6352 13.9762 27.9025 13.0932ZM8.77131 25.6103C8.77131 26.0723 8.39549 26.4482 7.93354 26.4482H3.91986C3.45791 26.4482 3.08203 26.0723 3.08203 25.6103V13.6779C3.08203 13.216 3.45791 12.8402 3.91986 12.8402H7.93354C8.39549 12.8402 8.77131 13.216 8.77131 13.6779V25.6103ZM26.8859 15.7676L25.3963 23.7028C25.1472 25.03 24.4043 26.4482 23.0664 26.4482H12.9601C11.6843 26.4482 10.6464 25.2942 10.6464 23.8758V15.3363C14.1802 12.4026 18.1378 7.36418 19.885 3.59836C20.8171 3.75609 21.0732 4.27506 21.1672 4.46561C21.7757 5.69906 21.2707 8.53916 18.724 11.8601C18.5068 12.1433 18.4693 12.5253 18.6272 12.8453C18.7852 13.1654 19.1111 13.368 19.468 13.368H24.5561C25.2475 13.368 25.9947 13.7301 26.4596 14.2904C26.7213 14.606 27.0078 15.1184 26.8859 15.7676Z" fill="#00C24E"/>
</svg>
