<svg width="325" height="24" viewBox="0 0 325 24" fill="none" xmlns="http://www.w3.org/2000/svg">
<path d="M317.156 0.3125V23.0625H312.078V0.3125H317.156ZM324.078 0.3125V4.26562H305.297V0.3125H324.078Z" fill="#020122"/>
<path d="M286.719 0.3125H295.453C297.193 0.3125 298.698 0.572917 299.969 1.09375C301.25 1.61458 302.234 2.38542 302.922 3.40625C303.609 4.42708 303.953 5.6875 303.953 7.1875C303.953 8.4375 303.75 9.5 303.344 10.375C302.938 11.25 302.365 11.974 301.625 12.5469C300.896 13.1198 300.042 13.5833 299.062 13.9375L297.406 14.8438H289.969L289.938 10.8906H295.469C296.229 10.8906 296.859 10.7552 297.359 10.4844C297.859 10.2135 298.234 9.83333 298.484 9.34375C298.745 8.84375 298.875 8.26042 298.875 7.59375C298.875 6.90625 298.745 6.3125 298.484 5.8125C298.224 5.3125 297.839 4.93229 297.328 4.67188C296.828 4.40104 296.203 4.26562 295.453 4.26562H291.812V23.0625H286.719V0.3125ZM299.312 23.0625L294.203 12.9531L299.578 12.9375L304.766 22.8281V23.0625H299.312Z" fill="#020122"/>
<path d="M284.219 19.125V23.0625H272.109V19.125H284.219ZM273.844 0.3125V23.0625H268.75V0.3125H273.844ZM282.656 9.46875V13.2812H272.109V9.46875H282.656ZM284.234 0.3125V4.26562H272.109V0.3125H284.234Z" fill="#020122"/>
<path d="M256.969 15.1562H251.25V11.2031H256.969C257.812 11.2031 258.49 11.0625 259 10.7812C259.521 10.5 259.901 10.1146 260.141 9.625C260.391 9.125 260.516 8.5625 260.516 7.9375C260.516 7.29167 260.391 6.69271 260.141 6.14062C259.901 5.57812 259.521 5.125 259 4.78125C258.49 4.4375 257.812 4.26562 256.969 4.26562H253.094V23.0625H248V0.3125H256.969C258.781 0.3125 260.333 0.640625 261.625 1.29688C262.927 1.95312 263.922 2.85417 264.609 4C265.307 5.13542 265.656 6.4375 265.656 7.90625C265.656 9.375 265.307 10.651 264.609 11.7344C263.922 12.8177 262.927 13.6615 261.625 14.2656C260.333 14.8594 258.781 15.1562 256.969 15.1562Z" fill="#020122"/>
<path d="M239.922 17.0625C239.922 16.6771 239.865 16.3333 239.75 16.0312C239.635 15.7188 239.427 15.4323 239.125 15.1719C238.823 14.9115 238.396 14.651 237.844 14.3906C237.292 14.1198 236.568 13.8438 235.672 13.5625C234.651 13.2292 233.677 12.8542 232.75 12.4375C231.833 12.0104 231.016 11.5156 230.297 10.9531C229.578 10.3906 229.01 9.73438 228.594 8.98438C228.188 8.23438 227.984 7.35938 227.984 6.35938C227.984 5.39062 228.198 4.51562 228.625 3.73438C229.052 2.95312 229.651 2.28646 230.422 1.73438C231.193 1.17188 232.099 0.744792 233.141 0.453125C234.182 0.151042 235.328 0 236.578 0C238.245 0 239.708 0.296875 240.969 0.890625C242.24 1.47396 243.229 2.29688 243.938 3.35938C244.646 4.41146 245 5.63542 245 7.03125H239.938C239.938 6.41667 239.807 5.875 239.547 5.40625C239.297 4.92708 238.911 4.55208 238.391 4.28125C237.88 4.01042 237.24 3.875 236.469 3.875C235.719 3.875 235.089 3.98958 234.578 4.21875C234.078 4.4375 233.698 4.73958 233.438 5.125C233.188 5.51042 233.062 5.93229 233.062 6.39062C233.062 6.75521 233.156 7.08854 233.344 7.39062C233.542 7.68229 233.823 7.95833 234.188 8.21875C234.562 8.46875 235.021 8.70833 235.562 8.9375C236.104 9.16667 236.724 9.38542 237.422 9.59375C238.641 9.97917 239.719 10.4062 240.656 10.875C241.604 11.3438 242.401 11.875 243.047 12.4688C243.693 13.0625 244.177 13.7344 244.5 14.4844C244.833 15.2344 245 16.0833 245 17.0312C245 18.0417 244.802 18.9375 244.406 19.7188C244.021 20.5 243.458 21.1667 242.719 21.7188C241.99 22.2604 241.115 22.6719 240.094 22.9531C239.073 23.2344 237.932 23.375 236.672 23.375C235.526 23.375 234.396 23.2292 233.281 22.9375C232.167 22.6354 231.156 22.1771 230.25 21.5625C229.354 20.9479 228.635 20.1667 228.094 19.2188C227.562 18.2604 227.297 17.125 227.297 15.8125H232.391C232.391 16.5 232.49 17.0833 232.688 17.5625C232.885 18.0312 233.167 18.4115 233.531 18.7031C233.906 18.9948 234.359 19.2031 234.891 19.3281C235.422 19.4531 236.016 19.5156 236.672 19.5156C237.432 19.5156 238.047 19.4115 238.516 19.2031C238.995 18.9844 239.349 18.6875 239.578 18.3125C239.807 17.9375 239.922 17.5208 239.922 17.0625Z" fill="#020122"/>
<path d="M212.062 0.3125L216.062 8.0625L220.062 0.3125H225.875L219.406 11.5938L226.047 23.0625H220.188L216.062 15.1719L211.953 23.0625H206.078L212.734 11.5938L206.25 0.3125H212.062Z" fill="#020122"/>
<path d="M205.25 19.125V23.0625H193.141V19.125H205.25ZM194.875 0.3125V23.0625H189.781V0.3125H194.875ZM203.688 9.46875V13.2812H193.141V9.46875H203.688ZM205.266 0.3125V4.26562H193.141V0.3125H205.266Z" fill="#020122"/>
<path d="M161.125 0.3125H169.859C171.599 0.3125 173.104 0.572917 174.375 1.09375C175.656 1.61458 176.641 2.38542 177.328 3.40625C178.016 4.42708 178.359 5.6875 178.359 7.1875C178.359 8.4375 178.156 9.5 177.75 10.375C177.344 11.25 176.771 11.974 176.031 12.5469C175.302 13.1198 174.448 13.5833 173.469 13.9375L171.812 14.8438H164.375L164.344 10.8906H169.875C170.635 10.8906 171.266 10.7552 171.766 10.4844C172.266 10.2135 172.641 9.83333 172.891 9.34375C173.151 8.84375 173.281 8.26042 173.281 7.59375C173.281 6.90625 173.151 6.3125 172.891 5.8125C172.63 5.3125 172.245 4.93229 171.734 4.67188C171.234 4.40104 170.609 4.26562 169.859 4.26562H166.219V23.0625H161.125V0.3125ZM173.719 23.0625L168.609 12.9531L173.984 12.9375L179.172 22.8281V23.0625H173.719Z" fill="#020122"/>
<path d="M158.625 19.125V23.0625H146.516V19.125H158.625ZM148.25 0.3125V23.0625H143.156V0.3125H148.25ZM157.062 9.46875V13.2812H146.516V9.46875H157.062ZM158.641 0.3125V4.26562H146.516V0.3125H158.641Z" fill="#020122"/>
<path d="M127.844 0.3125V23.0625H122.75V0.3125H127.844ZM141.438 0.3125L132.531 11.6875L127.344 17.3125L126.422 12.5781L129.844 7.67188L135.188 0.3125H141.438ZM135.531 23.0625L129.25 12.6719L133.125 9.65625L141.562 23.0625H135.531Z" fill="#020122"/>
<path d="M114.016 0.3125H119.109V15.25C119.109 17.0208 118.734 18.5104 117.984 19.7188C117.245 20.9271 116.214 21.8385 114.891 22.4531C113.568 23.0677 112.036 23.375 110.297 23.375C108.547 23.375 107.005 23.0677 105.672 22.4531C104.349 21.8385 103.307 20.9271 102.547 19.7188C101.797 18.5104 101.422 17.0208 101.422 15.25V0.3125H106.531V15.25C106.531 16.2292 106.677 17.0312 106.969 17.6562C107.271 18.2708 107.703 18.724 108.266 19.0156C108.828 19.2969 109.505 19.4375 110.297 19.4375C111.089 19.4375 111.76 19.2969 112.312 19.0156C112.875 18.724 113.297 18.2708 113.578 17.6562C113.87 17.0312 114.016 16.2292 114.016 15.25V0.3125Z" fill="#020122"/>
<path d="M80.875 0.3125H89.6094C91.349 0.3125 92.8542 0.572917 94.125 1.09375C95.4062 1.61458 96.3906 2.38542 97.0781 3.40625C97.7656 4.42708 98.1094 5.6875 98.1094 7.1875C98.1094 8.4375 97.9062 9.5 97.5 10.375C97.0938 11.25 96.5208 11.974 95.7812 12.5469C95.0521 13.1198 94.1979 13.5833 93.2188 13.9375L91.5625 14.8438H84.125L84.0938 10.8906H89.625C90.3854 10.8906 91.0156 10.7552 91.5156 10.4844C92.0156 10.2135 92.3906 9.83333 92.6406 9.34375C92.901 8.84375 93.0312 8.26042 93.0312 7.59375C93.0312 6.90625 92.901 6.3125 92.6406 5.8125C92.3802 5.3125 91.9948 4.93229 91.4844 4.67188C90.9844 4.40104 90.3594 4.26562 89.6094 4.26562H85.9688V23.0625H80.875V0.3125ZM93.4688 23.0625L88.3594 12.9531L93.7344 12.9375L98.9219 22.8281V23.0625H93.4688Z" fill="#020122"/>
<path d="M69.4062 13.2344H63.5625L63.5312 9.82812H68.3594C69.2135 9.82812 69.9062 9.72396 70.4375 9.51562C70.9792 9.30729 71.375 9.00521 71.625 8.60938C71.875 8.20312 72 7.70312 72 7.10938C72 6.43229 71.875 5.88542 71.625 5.46875C71.375 5.05208 70.9792 4.75 70.4375 4.5625C69.9062 4.36458 69.2188 4.26562 68.375 4.26562H65.4062V23.0625H60.3125V0.3125H68.375C69.7396 0.3125 70.9583 0.4375 72.0312 0.6875C73.1042 0.9375 74.0156 1.32292 74.7656 1.84375C75.526 2.36458 76.1042 3.01562 76.5 3.79688C76.8958 4.57812 77.0938 5.5 77.0938 6.5625C77.0938 7.48958 76.8854 8.35417 76.4688 9.15625C76.0625 9.95833 75.4062 10.6094 74.5 11.1094C73.5938 11.6094 72.3802 11.8802 70.8594 11.9219L69.4062 13.2344ZM69.2031 23.0625H62.2656L64.1094 19.125H69.2031C69.9844 19.125 70.6198 19 71.1094 18.75C71.599 18.5 71.9583 18.1615 72.1875 17.7344C72.4167 17.3073 72.5312 16.8281 72.5312 16.2969C72.5312 15.6719 72.4219 15.1302 72.2031 14.6719C71.9948 14.2135 71.6615 13.8594 71.2031 13.6094C70.7552 13.3594 70.1562 13.2344 69.4062 13.2344H64.8438L64.875 9.82812H70.4531L71.6406 11.1719C73.0885 11.1406 74.2448 11.375 75.1094 11.875C75.9844 12.3646 76.6146 13.0104 77 13.8125C77.3854 14.6146 77.5781 15.4635 77.5781 16.3594C77.5781 17.8385 77.2604 19.0781 76.625 20.0781C75.9896 21.0677 75.0469 21.8125 73.7969 22.3125C72.5573 22.8125 71.026 23.0625 69.2031 23.0625Z" fill="#020122"/>
<path d="M39.625 0.3125H48.3594C50.099 0.3125 51.6042 0.572917 52.875 1.09375C54.1562 1.61458 55.1406 2.38542 55.8281 3.40625C56.5156 4.42708 56.8594 5.6875 56.8594 7.1875C56.8594 8.4375 56.6562 9.5 56.25 10.375C55.8438 11.25 55.2708 11.974 54.5312 12.5469C53.8021 13.1198 52.9479 13.5833 51.9688 13.9375L50.3125 14.8438H42.875L42.8438 10.8906H48.375C49.1354 10.8906 49.7656 10.7552 50.2656 10.4844C50.7656 10.2135 51.1406 9.83333 51.3906 9.34375C51.651 8.84375 51.7812 8.26042 51.7812 7.59375C51.7812 6.90625 51.651 6.3125 51.3906 5.8125C51.1302 5.3125 50.7448 4.93229 50.2344 4.67188C49.7344 4.40104 49.1094 4.26562 48.3594 4.26562H44.7188V23.0625H39.625V0.3125ZM52.2188 23.0625L47.1094 12.9531L52.4844 12.9375L57.6719 22.8281V23.0625H52.2188Z" fill="#020122"/>
<path d="M36.5 11.1875V12.2031C36.5 13.9323 36.2604 15.4844 35.7812 16.8594C35.3125 18.2344 34.6406 19.4062 33.7656 20.375C32.901 21.3438 31.8698 22.0885 30.6719 22.6094C29.4844 23.1198 28.1667 23.375 26.7188 23.375C25.2708 23.375 23.9479 23.1198 22.75 22.6094C21.5521 22.0885 20.5104 21.3438 19.625 20.375C18.75 19.4062 18.0729 18.2344 17.5938 16.8594C17.1146 15.4844 16.875 13.9323 16.875 12.2031V11.1875C16.875 9.45833 17.1146 7.90625 17.5938 6.53125C18.0729 5.14583 18.7448 3.96875 19.6094 3C20.4844 2.03125 21.5208 1.29167 22.7188 0.78125C23.9167 0.260417 25.2396 0 26.6875 0C28.1354 0 29.4583 0.260417 30.6562 0.78125C31.8542 1.29167 32.8854 2.03125 33.75 3C34.625 3.96875 35.3021 5.14583 35.7812 6.53125C36.2604 7.90625 36.5 9.45833 36.5 11.1875ZM31.3594 12.2031V11.1562C31.3594 10 31.2552 8.97917 31.0469 8.09375C30.8385 7.19792 30.5365 6.44792 30.1406 5.84375C29.7448 5.23958 29.2552 4.78646 28.6719 4.48438C28.0885 4.17188 27.4271 4.01562 26.6875 4.01562C25.9167 4.01562 25.2448 4.17188 24.6719 4.48438C24.099 4.78646 23.6146 5.23958 23.2188 5.84375C22.8333 6.44792 22.5365 7.19792 22.3281 8.09375C22.1302 8.97917 22.0312 10 22.0312 11.1562V12.2031C22.0312 13.349 22.1302 14.3698 22.3281 15.2656C22.5365 16.151 22.8385 16.901 23.2344 17.5156C23.6302 18.1302 24.1146 18.5938 24.6875 18.9062C25.2708 19.2188 25.9479 19.375 26.7188 19.375C27.4583 19.375 28.1146 19.2188 28.6875 18.9062C29.2708 18.5938 29.7604 18.1302 30.1562 17.5156C30.5521 16.901 30.849 16.151 31.0469 15.2656C31.2552 14.3698 31.3594 13.349 31.3594 12.2031Z" fill="#020122"/>
<path d="M5.09375 0.3125V23.0625H0V0.3125H5.09375ZM14.0469 9.90625V13.8438H3.67188V9.90625H14.0469ZM15.0469 0.3125V4.26562H3.67188V0.3125H15.0469Z" fill="#020122"/>
</svg>
