<svg xmlns="http://www.w3.org/2000/svg" viewBox="0 0 83.7 33.5"><path d="M53 17.8c-3.8.1-6.2.8-6.2 3.3 0 1.6 1.3 3.4 4.6 3.4 4.4 0 6.7-2.4 6.7-6.3v-.4H53zm9.3 5.2l.1 3.5h-3.9c-.1-.9-.1-1.8-.1-2.6-2.1 2.6-4.6 3.3-8.1 3.3-5.2 0-7.9-2.7-7.9-5.9 0-4.6 3.8-6.2 10.3-6.3h5.4v-.5c0-3.1-2-4.3-5.4-4.3-2.5 0-4.4 1.1-4.6 2.8h-4.4c.5-4.5 5.2-5.6 9.3-5.6 5 0 9.2 1.8 9.2 7l.1 8.6z" fill="#f5af02"/><path d="M16.7 15.6c-.2-3.9-3-5.4-6-5.4-3.3 0-5.9 1.6-6.3 5.4h12.3zM4.3 18.3c.2 3.8 2.8 6.1 6.5 6.1 2.5 0 4.7-1 5.5-3.2h4.3c-.8 4.5-5.6 6-9.7 6C3.3 27.2 0 23.1 0 17.5 0 11.4 3.4 7.4 10.9 7.4c5.9 0 10.2 3.1 10.2 9.9v1.1l-16.8-.1z" fill="#e53238"/><path d="M31.9 24.3c3.9 0 6.6-2.8 6.6-7s-2.7-7-6.6-7c-3.9 0-6.6 2.8-6.6 7s2.7 7 6.6 7zM21.1 0h4.2v10.5C27.4 8 30.2 7.3 33 7.3c4.7 0 9.9 3.2 9.9 10 0 5.7-4.1 9.9-9.9 9.9-3.1 0-5.9-1.1-7.7-3.3 0 .9 0 1.7-.1 2.6h-4.1l.1-4.3L21.1 0z" fill="#0064d2"/><path d="M83.7 8.1l-13 25.5H66l3.7-7.1L60 8.1h4.9l7.2 14.4 7.2-14.4h4.4z" fill="#86b817"/></svg>