<?xml version="1.0" encoding="utf-8"?>
<!-- Generator: Adobe Illustrator 23.0.1, SVG Export Plug-In . SVG Version: 6.00 Build 0)  -->
<svg version="1.1" id="Слой_1" xmlns="http://www.w3.org/2000/svg" xmlns:xlink="http://www.w3.org/1999/xlink" x="0px" y="0px"
	 viewBox="0 0 200 34" style="enable-background:new 0 0 200 34;" xml:space="preserve">
<style type="text/css">
	.st0{clip-path:url(#SVGID_2_);}
	.st1{clip-path:url(#SVGID_4_);}
</style>
<g id="surface1">
	<g>
		<defs>
			<rect id="SVGID_1_" width="201" height="35"/>
		</defs>
		<clipPath id="SVGID_2_">
			<use xlink:href="#SVGID_1_"  style="overflow:visible;"/>
		</clipPath>
		<g class="st0">
			<g>
				<defs>
					<path id="SVGID_3_" d="M28,33.8V3.8h-7.6v12.3H8V3.8H0.4v29.9H8V22.1h12.4v11.6H28z M44.1,10.5c-7.1,0-12,4.7-12,11.8
						c0,7,4.7,11.7,12.2,11.7c4.2,0,7.7-1.5,10.1-4.1l-3.9-3.8c-1.5,1.5-3.5,2.3-5.5,2.3c-2.8,0-4.7-1.5-5.4-4.3h16.2
						C56.2,15.8,52.2,10.5,44.1,10.5z M39.4,20.2c0.5-2.8,2.2-4.7,4.8-4.7c2.7,0,4.5,1.8,4.5,4.7H39.4z M67.3,33.8V2h-7.4v31.7H67.3
						z M77.2,0.2c-2.3,0-3.9,1.6-3.9,3.9c0,2.3,1.6,3.9,3.9,3.9S81,6.4,81,4.1C81,1.8,79.4,0.2,77.2,0.2z M80.8,33.8v-23h-7.4v23
						H80.8z M96.8,17.3l-3.8-6.6h-8.5L91.8,22L84,33.8h8.1l4.7-7.2l4.2,7.2h8.5l-7.8-11.8l7.3-11.2h-8.1L96.8,17.3z M140.7,33.8h8.6
						l-6.3-9.9c3.5-1.8,5.4-5,5.4-9.6c0-6.7-4.5-10.4-12.5-10.4h-13.4v29.9h7.6v-8.4h6L140.7,33.8z M130.2,19.4V9.8h5.8
						c3.3,0,5.2,1.6,5.2,4.7c0,3.2-1.9,4.8-5.2,4.8H130.2z M163.9,10.4c-3.8,0-7.1,0.9-10.7,2.6l2.1,4.9c2.4-1.2,5-1.9,6.9-1.9
						c3,0,4.5,1.4,4.5,3.6v0.3h-6.1c-5.7,0-8.8,2.6-8.8,7c0,4.2,3,7.2,7.9,7.2c3.1,0,5.6-1,7.1-3v2.7h7.2v-15
						C173.9,13.5,170.2,10.4,163.9,10.4z M161.9,29.1c-2,0-3.2-1.1-3.2-2.8c0-1.7,1.1-2.5,3.3-2.5h4.7v2
						C166.2,27.8,164.2,29.1,161.9,29.1z M182.9,0.2c-2.3,0-3.9,1.6-3.9,3.9c0,2.3,1.6,3.9,3.9,3.9s3.9-1.6,3.9-3.9
						C186.8,1.8,185.2,0.2,182.9,0.2z M186.6,33.8v-23h-7.4v23H186.6z M200.1,33.8V2h-7.4v31.7H200.1z"/>
				</defs>
				<clipPath id="SVGID_4_">
					<use xlink:href="#SVGID_3_"  style="overflow:visible;"/>
				</clipPath>
				<g class="st1">
					<g>
						
							<image style="overflow:visible;enable-background:new    ;" width="608" height="112" id="image5" xlink:href="81FC66C2EF57F0C.jpg"  transform="matrix(1 0 0 1 -48 -36)">
						</image>
					</g>
				</g>
			</g>
		</g>
	</g>
</g>
</svg>
