<svg width="120" height="60" viewBox="0 0 120 60" fill="none" xmlns="http://www.w3.org/2000/svg"><path fill-rule="evenodd" clip-rule="evenodd" d="M11.684 24.135v15.023H0V20.82h5.006v3.335l6.678-.021zm-5.006 5.01H4.994v5.007h1.684v-5.007zm18.358-8.324v18.358H13.352V20.82h11.684zm-5.007 4.985h-1.684v8.346h1.684v-8.346zm11.685 0v-4.985h-5.007v4.985h5.007zm0 13.352V27.495l-5.007-.021v11.684h5.007zm1.671-18.337v18.337h4.99V25.806h1.684V39.18h4.994V20.82H33.385zm25.036 0v4.985h-6.678v8.346h1.684v-6.678h5.007v11.684H46.737V20.82H58.42zm14.488 3.314v15.023H61.225V20.82h5.007v3.335l6.677-.021zm-5.006 5.01H66.22v5.007h1.684v-5.007zM86.261 39.18V20.82H74.577v18.358H86.26zM79.58 25.806h1.684v8.346H79.58v-8.346zm13.36-4.985v4.985h-5.006v-4.985h5.006zm0 6.674v11.663h-5.006V27.474l5.006.02zm1.667 11.663V20.82h11.685v18.358h-5.007V25.806H99.6v13.352h-4.994zm25.04-13.352v-4.985h-11.684v18.337h11.697V27.474h-5.006v6.678h-1.685v-8.346h6.678z" fill="#000"/></svg>