<svg width="120" height="60" viewBox="0 0 120 60" fill="none" xmlns="http://www.w3.org/2000/svg"><path fill-rule="evenodd" clip-rule="evenodd" d="M1.692 33.343l-1.516.242-.066 1.561h10.769l-.176-4.42-2.22-.065-.307 2.902H4.879v-6.684h1.429l.351 1.495h1.473V24.02l-1.473-.043-.33 1.45H4.902v-6.31h3.275l.132 2.66 2.11.067.263-4.244H.088L0 19.117l1.692.22v14.006zm10.242.528l-.066 1.297v.022h5.297l.088-1.297L16 33.65v-8.047c.154-.198.33-.418.506-.572.285-.11.549-.176.922-.176 1.1 0 1.539.681 1.539 1.89v8.4h4.132l.066-1.297-1.253-.242v-7.52c0-2.264-1.406-3.408-3.297-3.408-1.296 0-2.307.528-3.142 1.407v-.505l-.264-.748-3.473.506v1.319l1.385.132v8.839l-1.187.242zm66.33 1.297l.044-1.297 1.186-.242V24.79l-1.384-.132v-1.32l3.472-.505.264.748v.505c.835-.88 1.846-1.407 3.143-1.407 1.89 0 3.297 1.144 3.297 3.408v7.52l1.252.242-.066 1.297h-4.11v-8.4c0-1.209-.439-1.89-1.538-1.89-.373 0-.637.066-.923.176a4.255 4.255 0 00-.505.572v8.047l1.252.242-.088 1.297h-5.296v-.022zm-51.011.176c1.12 0 1.978-.22 2.461-.418l-.132-1.319h-1.186c-.66 0-1.012-.418-1.012-1.055v-7.74l2-.22.154-1.54h-2.175v-2.528l-2.022.088-.682 2.353-1.582.066-.066 1.54 1.407.219v7.74c0 2.154 1.362 2.814 2.835 2.814zm84.725-.176l.044-1.275 1.121-.264V24.79l-1.319-.132v-1.32l3.605-.505.241.858v.286c.945-.704 2.22-1.166 3.759-1.166l.527.462-.374 3.342-1.978-.066-.197-1.781c-.462.066-.902.198-1.275.462v8.421l1.253.264-.088 1.275h-5.319v-.022zm-51.692-1.275l-.066 1.275v.022h5.296l.088-1.275-1.252-.264V25.23c.373-.264.813-.396 1.274-.462l.198 1.781 1.978.066.418-3.342-.528-.462c-1.538 0-2.813.462-3.758 1.166v-.286l-.242-.858-3.604.506v1.319l1.319.132v8.839l-1.121.264zm-29.693 1.275l.066-1.275 1.121-.264V24.79l-1.319-.132v-1.32l3.605-.505.242.858v.286c.945-.704 2.22-1.166 3.736-1.166l.527.462-.373 3.342-1.978-.066-.198-1.781c-.462.066-.901.198-1.275.462v8.421l1.253.264-.088 1.275h-5.319v-.022zm14.132-1.649c-1.824 0-2.747-1.627-2.747-3.738L48 29.715l.308-.791c0-3.299-1.209-6.267-4.418-6.267-3.67 0-5.01 3.32-5.01 6.355 0 3.562 1.845 6.332 5.054 6.332 1.648 0 2.967-.55 3.868-1.275l-.505-1.166c-.88.418-1.627.616-2.572.616zm-2.79-5.145l3.691-.176c-.066-1.473-.373-3.804-1.824-3.804-.351 0-.593.066-1.033.286-.593 1.012-.835 2.837-.835 3.694zm53.867 5.145c-1.824 0-2.747-1.627-2.747-3.738l6.022-.066.308-.791c0-3.299-1.21-6.267-4.418-6.267-3.67 0-5.01 3.32-5.01 6.355 0 3.562 1.845 6.332 5.054 6.332 1.648 0 2.967-.55 3.868-1.275l-.505-1.166c-.88.418-1.627.616-2.572.616zm-2.791-5.145l3.692-.176c-.066-1.473-.373-3.804-1.824-3.804-.352 0-.593.066-1.033.286-.593 1.012-.835 2.837-.835 3.694zm-18.66 5.145c-1.824 0-2.747-1.627-2.747-3.738l6.022-.066.308-.791c0-3.299-1.209-6.267-4.418-6.267-3.67 0-5.01 3.32-5.01 6.355 0 3.562 1.846 6.332 5.055 6.332 1.648 0 2.966-.55 3.867-1.275l-.505-1.166c-.879.418-1.626.616-2.571.616zm-2.79-5.145l3.692-.176c-.066-1.473-.374-3.804-1.824-3.804-.352 0-.594.066-1.033.286-.594 1.012-.858 2.837-.836 3.694zm35.824 5.739l.307 1.055h3.451l.154-1.297-1.253-.242v-9.85l-.308-1.056-4.044.462v1.165l1.429.132v8.135a4.155 4.155 0 01-.55.682 3.116 3.116 0 01-1.055.176c-1.077 0-1.626-.704-1.626-2.045v-7.65l-.308-1.056-4 .462v1.165l1.385.132v7.3c0 2.617 1.692 3.562 3.582 3.562 1.231 0 2.022-.462 2.836-1.231zm-53.077-.528c-.638 0-1.143-.11-1.539-.33v-7.762c.176-.263.374-.505.572-.725a3.107 3.107 0 011.099-.176c1.648 0 1.934 1.671 1.934 4.661 0 2.566-.349 3.474-.503 3.875-.019.05-.035.091-.047.127-.461.22-.945.33-1.516.33zm1.077-10.906c2.747 0 3.846 2.33 3.846 6.047 0 2.089-.044 6.64-4.528 6.64-.769 0-1.472-.176-1.978-.462v4.75l1.253.241-.088 1.254h-5.297l.066-1.254 1.187-.241V24.658l-1.384-.176v-1.275l3.582-.506.308 1.055v.418c.351-.44 1.208-1.495 3.033-1.495z" fill="#000"/></svg>