<svg width="120" height="60" viewBox="0 0 120 60" fill="none" xmlns="http://www.w3.org/2000/svg"><path fill-rule="evenodd" clip-rule="evenodd" d="M2.215 36.29c1.599 1.78 3.84 2.76 6.311 2.76 3.13 0 5.505-1.243 6.588-2.307.313-.308.49-.73.49-1.173v-4.863c0-.902-.723-1.634-1.615-1.634H9.892c-.892 0-1.614.732-1.614 1.634 0 .903.722 1.635 1.614 1.635h2.483v2.43c-.733.467-1.993.945-3.787.945-3.187 0-4.925-2.756-4.925-5.093 0-4.108 2.89-5.492 4.987-5.492 2.247 0 3.954 1.094 4.012 1.132h.001c.74.497 1.738.295 2.233-.452a1.648 1.648 0 00-.443-2.268c-.1-.069-2.515-1.681-5.803-1.681-3.344 0-8.65 2.378-8.65 8.76 0 2.035.807 4.1 2.215 5.667zm17.414.707V23.903c0-.68.155-1.19.465-1.53.31-.34.712-.51 1.203-.51.507 0 .917.168 1.232.504.313.337.47.848.47 1.536v13.094c0 .688-.157 1.202-.47 1.542-.315.34-.725.51-1.232.51a1.55 1.55 0 01-1.197-.516c-.314-.344-.47-.856-.47-1.536zm82.972-6.535c0 4.735 3.853 8.588 8.588 8.588 4.736 0 8.588-3.853 8.588-8.588 0-4.736-3.852-8.589-8.588-8.589-4.735 0-8.588 3.853-8.588 8.589zm3.477 0a5.117 5.117 0 015.111-5.112 5.118 5.118 0 015.112 5.112 5.118 5.118 0 01-5.112 5.11 5.117 5.117 0 01-5.111-5.11zM72.636 39.05c-4.735 0-8.588-3.853-8.588-8.588 0-4.736 3.853-8.589 8.588-8.589 4.736 0 8.588 3.853 8.588 8.589 0 4.735-3.852 8.588-8.588 8.588zm0-13.7a5.118 5.118 0 00-5.111 5.112 5.117 5.117 0 005.111 5.11 5.117 5.117 0 005.111-5.11 5.117 5.117 0 00-5.111-5.112zm27.213 5.104v.004a8.553 8.553 0 01-1.662 5.07 8.58 8.58 0 01-6.67 3.515l-.078.002c-.06.002-.118.005-.178.005l-4.313-.006c-.736 0-1.27-.167-1.598-.503-.33-.336-.495-.877-.495-1.626V23.997c0-.749.164-1.29.495-1.626.329-.335.862-.503 1.598-.503l4.313-.005c.063 0 .124.002.186.004l.07.002a8.58 8.58 0 016.67 3.514 8.553 8.553 0 011.662 5.07zm-9.323 5.109c.481 0 .928-.005 1.344-.032a5.113 5.113 0 003.6-2.178c.566-.822.9-1.816.902-2.887v-.02a5.082 5.082 0 00-.903-2.886 5.112 5.112 0 00-3.6-2.179 21.527 21.527 0 00-1.343-.032h-2.254v10.214h2.254zM57.513 22.548a1.474 1.474 0 011.671-.609 1.52 1.52 0 011.057 1.457v14.02c0 .84-.668 1.522-1.49 1.522-.824 0-1.49-.682-1.49-1.523V28.4L53.585 34l-.005.006-.003.005-.004.007-.004.006-.003.004-.004.005-.003.005a1.565 1.565 0 01-.073.099l-.035.04-.012.014-.05.056-.05.047-.012.01-.017.016a.732.732 0 01-.12.095l-.01.01-.014.01h-.002l-.002.002a1.537 1.537 0 01-.114.07l-.016.009-.06.03-.02.008a1.46 1.46 0 01-.47.132l-.07.004h-.025l-.02.002a.585.585 0 01-.032 0h-.032l-.02-.001-.025-.001-.069-.004h-.003a1.46 1.46 0 01-.468-.132l-.016-.007a.924.924 0 01-.063-.031l-.018-.01-.01-.007a1.47 1.47 0 01-.102-.062l-.001-.001c-.001 0-.002 0-.003-.002l-.006-.004-.007-.006-.012-.009a1.319 1.319 0 01-.09-.068l-.031-.028-.015-.014-.013-.012a1.271 1.271 0 01-.098-.101l-.013-.015-.01-.012a1.422 1.422 0 01-.103-.136l-.007-.008-.002-.003-.004-.007-.008-.01-3.676-5.6v9.015c0 .841-.667 1.523-1.49 1.523-.822 0-1.49-.682-1.49-1.523v-14.02c0-.67.429-1.262 1.056-1.457a1.473 1.473 0 011.671.609l5.178 7.888 5.178-7.888zM39.36 38.527H28.224c-.586 0-1.237-.367-1.478-.937-.241-.57-.29-1.345.228-1.964l9.11-10.57h-7.526c-.823 0-1.49-.712-1.49-1.591 0-.88.667-1.416 1.49-1.416h10.148c.586 0 1.193.093 1.722.674.485.53.463 1.675-.079 2.358l-8.802 10.263h7.813c.823 0 1.422.712 1.422 1.591 0 .88-.599 1.592-1.422 1.592z" fill="#000"/></svg>