<svg width="120" height="60" viewBox="0 0 120 60" fill="none" xmlns="http://www.w3.org/2000/svg"><path fill-rule="evenodd" clip-rule="evenodd" d="M.1 21.68v5.71h5.59v11.421h5.591v-11.42h5.61v11.42h16.793v-5.71H22.482v-5.71h11.202V21.68H22.482v5.71h-5.59v-5.71H.1zm47.86 4.313h-8.226v2.376h2.755v7.447h2.715V28.37h2.756v-2.376zm3.095 2.296c-1.937 0-3.375 1.298-3.375 3.853 0 2.257 1.218 3.834 3.435 3.834 1.158 0 2.096-.3 2.995-.839l-.959-1.617c-.739.38-1.258.52-1.917.52-.678 0-1.158-.36-1.258-1.179h4.333c.02-.12.02-.28.02-.499.02-2.735-1.238-4.073-3.274-4.073zm-1.039 2.995c.08-.739.4-1.118.979-1.118.739 0 .998.38 1.118 1.118h-2.097zm9.125 2.636c-.679 0-1.038-.6-1.038-1.778 0-1.158.32-1.817.978-1.817.54 0 .779.3 1.138.959l1.737-1.318c-.638-1.038-1.437-1.677-2.835-1.677-2.356 0-3.514 1.557-3.514 3.813 0 2.476 1.298 3.854 3.454 3.854 1.298 0 2.097-.5 2.955-1.757l-1.597-1.258c-.48.719-.799.978-1.278.978zm6.849-4.992c.459-.34.978-.64 1.857-.64 1.597 0 2.376 1.099 2.376 3.036v4.512h-2.536v-4.193c0-.938-.32-1.198-.839-1.198-.539 0-.858.26-.858 1.178v4.213h-2.536v-9.224l2.536-1.019v3.335zM76.313 33.6c-1.178 0-1.658-1.198-1.658-2.696 0-1.557.5-2.695 1.638-2.695.898 0 1.238.579 1.577 1.497l2.476-.978c-.679-1.857-1.637-2.895-4.053-2.895-2.636 0-4.493 1.917-4.493 5.072 0 2.915 1.558 5.071 4.473 5.071 2.336 0 3.434-1.258 4.093-2.536l-2.296-1.218c-.54.919-.899 1.378-1.757 1.378zm8.126-5.151v.539c.42-.42.919-.7 1.577-.7.54 0 .899.14 1.198.32l-.599 2.616c-.32-.36-.678-.619-1.178-.619-.619 0-.998.3-.998 1.198v4.013h-2.536V28.45h2.536zm8.186 4.213c0 .918-.32 1.178-.838 1.178-.52 0-.839-.26-.839-1.198v-4.193h-2.536v4.512c0 1.937.78 3.015 2.396 3.015.859 0 1.398-.3 1.837-.639v.5h2.536v-7.368h-2.536v4.193h-.02zm6.909-3.734c.46-.34.978-.64 1.857-.64 1.617 0 2.376 1.099 2.376 2.996v4.512h-2.536v-4.193c0-.938-.319-1.198-.839-1.198-.539 0-.858.26-.858 1.178v4.213h-2.536V28.43h2.536v.499zm9.264 4.991c-.678 0-1.038-.598-1.038-1.777 0-1.158.32-1.817.959-1.817.539 0 .778.3 1.138.959l1.737-1.318c-.639-1.038-1.438-1.677-2.835-1.677-2.357 0-3.515 1.557-3.515 3.813 0 2.476 1.298 3.854 3.455 3.854 1.297 0 2.096-.5 2.955-1.757l-1.598-1.258c-.439.719-.778.978-1.258.978zm6.849-4.991c.459-.34.978-.64 1.857-.64 1.617 0 2.396 1.099 2.376 3.036v4.512h-2.536v-4.193c0-.938-.319-1.198-.838-1.198-.54 0-.859.26-.859 1.178v4.213h-2.536v-9.224l2.536-1.019v3.335z" fill="#000"/></svg>