<svg width="120" height="60" viewBox="0 0 120 60" fill="none" xmlns="http://www.w3.org/2000/svg"><path fill-rule="evenodd" clip-rule="evenodd" d="M107.137 26.887v8.072c0 .675 0 .882-.009 2.25-1.509 1.322-4.275 2.382-7.106 2.382-5.71 0-10.116-4.735-10.116-10.35 0-1.341.253-2.691.75-3.938a9.664 9.664 0 014.5-4.95c2.252-1.163 4.676-1.138 7.127-1.113.355.003.711.007 1.067.007h1.509v5.869s-3.309-.01-4.706-.01c-2.306 0-3.966 1.969-3.966 4.19 0 2.223 1.707 4.041 4.013 4.041.562 0 1.106-.121 1.359-.346v-1.604H98.25v-4.5h8.887zM52.369 31.37h.056l3.638-12.075h17.409v5.456h-5.644v2.081h3.581v4.51h-3.58v2.306h5.643v5.456H61.819V22.528c-1.885 5.1-5.335 14.456-5.335 14.456l-.778 2.12h-6.45l-7.2-19.8H54.62l-1.632 5.455h-2.474l1.406 4.979.45 1.63zM0 24.75v-5.447h10.012v19.81h-6.29V24.75H0zm17.69 2.081h2.944v-7.528h6.3v19.81h-6.3v-7.491h-2.943v7.49h-6.282V19.303h7.763v5.438H17.69v2.09zm10.622 12.281h11.654v-5.456h-5.644V31.35h3.59v-4.519h-3.59V24.75h5.644v-5.447H28.312v19.81zm53.56-19.809c4.481 0 7.64 2.428 7.64 6.703 0 2.672-.918 4.5-2.756 5.503l5.1 7.594H84.76l-3.6-5.072v5.072h-6.29v-19.8h7.003zM81.14 28.2v-3.684c.871 0 1.94.262 2.259 1.218.016.047.028.097.041.148.01.041.022.083.034.124 0 .01 0 .028.01.038 0 .014.002.03.004.045l.005.036c.009.074.019.156.019.238 0 1.471-1.341 1.837-2.372 1.837zM120 24.76v-5.448h-11.653v19.8H120v-5.456h-5.653V31.35h3.591v-4.5h-3.591v-2.09H120z" fill="#000"/></svg>