<svg width="120" height="60" viewBox="0 0 120 60" fill="none" xmlns="http://www.w3.org/2000/svg"><path fill-rule="evenodd" clip-rule="evenodd" d="M.12 41.54h23.94V17.6H.12v23.94zm71.76 0H47.94V17.6h23.94v23.94zm48 0H95.94V17.6h23.94v23.94zm-18.72-3.66V21.32h8.16c2.28 0 3.6.36 4.56 1.2 1.2 1.08 1.8 3 1.8 7.08s-.6 6-1.8 7.08c-.96.84-2.28 1.2-4.56 1.2h-8.16zm10.2-3.36c.72-.48.96-1.32.96-4.92 0-3.6-.24-4.44-.96-5.04-.48-.48-1.08-.48-2.28-.48h-4.56V35h4.56c1.2 0 1.8-.12 2.28-.48zm-34.98-13.2v2.76h2.28v11.04h-2.278v2.76H90.66v-5.64h-3v2.88h-5.88v-4.44h4.56v-2.64h-4.56v-3.96h5.76v2.52h3v-5.28H76.38zM63.54 33.56c0 1.8.12 3.12.36 4.2h3.24c-.12-.84-.24-2.4-.24-4.44-.12-2.4-.84-2.76-2.52-3.12 1.92-.36 2.76-1.2 2.76-4.2 0-2.4-.36-3.36-1.08-3.96-.48-.48-1.32-.72-2.64-.72H53.34v16.56h3.36V31.4h4.68c.96 0 1.32.12 1.68.36.362.24.48.6.48 1.8zM56.7 24.2v4.56l5.4.12c.72 0 .96-.12 1.08-.24.24-.24.48-.72.48-2.16 0-1.44-.24-1.8-.48-2.04-.12-.12-.36-.24-1.08-.24h-5.4zm-15 13.68v-2.76h-4.08V24.08h4.08v-2.76H30.3v2.76h4.08v11.04H30.3v2.76h11.4zM22.44 21.32h-3.12L17.04 34.4 14.4 22.28c-.12-.84-.48-.96-1.2-.96h-1.68c-.72 0-1.08.24-1.2.96L7.68 34.4 5.4 21.32H2.04l3.24 15.72c.12.72.36.84 1.2.84h2.28c.72 0 .96-.12 1.2-.84l2.52-11.4L15 37.04c.12.72.36.84 1.2.84h2.16c.72 0 1.08-.12 1.2-.84l2.88-15.72z" fill="#000"/></svg>