<svg xmlns="http://www.w3.org/2000/svg" viewBox="0 0 318 430"><linearGradient id="a" gradientUnits="userSpaceOnUse" x1="122.865" y1="419.379" x2="288.239" y2="419.379"><stop offset="0" stop-color="#a2aaa4" stop-opacity=".6"/><stop offset=".866" stop-color="#d4d8d1" stop-opacity="0"/></linearGradient><path fill="url(#a)" d="M276.538 411.283l-55.765-.959-75.068-1.362-5.699 2.321-17.141 8.705 40.197 1.783-15.731 8.025 113.848-.418 27.06-11.436z"/><linearGradient id="b" gradientUnits="userSpaceOnUse" x1="-1548.53" y1="421.544" x2="-1520.123" y2="421.544" gradientTransform="matrix(-.9993 .0316 -.0382 1.0019 -1381.985 37.382)"><stop offset="0" stop-color="#61315b"/><stop offset=".459" stop-color="#884e69"/><stop offset="1" stop-color="#bb747b"/></linearGradient><path d="M139.612 403.151s-6.154 6.396-11.925 10.123c-1.746 1.128-3.148 2.001-4.224 2.727-2.481 1.673-3.235 2.564-2.504 3.983.449.871 2.23.996 4.42.728 2.923-.358 6.574-1.414 8.762-2.327 1.714-.716 3.027-1.834 4.156-2.83 1.391-1.227 2.502-2.269 3.74-2.145 2.243.224 5.032-1.173 5.9-1.791.502-.357 1.315-.781 1.462-2.146.107-.995-.139-2.49-1.119-4.825-1.055-2.514-2.939-3.054-4.682-2.893-2.095.192-3.986 1.396-3.986 1.396z" fill="url(#b)"/><linearGradient id="c" gradientUnits="userSpaceOnUse" x1="-1550.15" y1="436.865" x2="-1521.796" y2="436.865" gradientTransform="matrix(-1 .0699 0 1 -1379.23 90.484)"><stop offset="0" stop-color="#61315b"/><stop offset=".459" stop-color="#884e69"/><stop offset="1" stop-color="#bb747b"/></linearGradient><path d="M160.919 411.747s-5.922 6.612-11.562 10.548c-1.496 1.044-2.733 1.883-3.724 2.589-2.745 1.958-3.591 2.897-2.762 4.357.483.851 2.274.906 4.46.554 2.914-.469 6.531-1.662 8.687-2.657 1.669-.769 3.06-1.546 4.231-2.325 1.477-.982 2.603-1.966 3.49-2.938 2.324-2.546 4.825-2.132 5.671-2.781.505-.388 1.401-.584 1.501-1.834.068-.844-.227-2.169-1.25-4.357-1.153-2.465-3.061-2.93-4.801-2.703-2.092.275-3.941 1.547-3.941 1.547z" fill="url(#c)"/><linearGradient id="d" gradientUnits="userSpaceOnUse" x1="145.703" y1="175.215" x2="150.936" y2="355.622"><stop offset=".151" stop-color="#473b63"/><stop offset=".353" stop-color="#4c4069"/><stop offset=".614" stop-color="#5a5079"/><stop offset=".908" stop-color="#716994"/><stop offset=".995" stop-color="#79729d"/></linearGradient><path d="M130.31 248.347c-.025.85-.043 1.763-.053 2.75 0 0-4.855 40.636-7.392 67.671-.912 20.294 15.67 85.284 15.67 85.284s1.553 2.558 4.635 2.47c2.749-.078 3.568-3.282 3.568-3.282l-4.231-49.715c-1.661-11.787-3.068-26.252-4.253-28.848l12.421-51.83c.827 9.76 2.847 34.83 4.505 65.361.736 13.547 5.093 70.165 6.166 74.843.522.099 2.09 1.32 4.194 1.335 2.57.019 3.163-.688 3.374-2.208-1.508-5.875 5.627-129.442 6.304-138.966.556-7.822-.141-18.872-1.042-26.658-14.636.328-29.287 2.278-43.866 1.793z" fill="url(#d)"/><linearGradient id="e" gradientUnits="userSpaceOnUse" x1="64.272" y1="154.71" x2="83.638" y2="154.71"><stop offset="0" stop-color="#edb469"/><stop offset=".871" stop-color="#ffd168"/></linearGradient><path d="M66.871 142.828l-2.598 5.128s6.003 9.911 14.517 18.636c1.933-2.538 3.53-5.402 4.849-8.396-8.214-6.963-16.768-15.368-16.768-15.368z" fill="url(#e)"/><path d="M86.601 160.655c-1.032 3.203-2.827 6.152-4.717 9.069a217.79 217.79 0 0 0 3.657 3.573c2.02-2.962 4.139-5.905 5.267-9.409a95.175 95.175 0 0 1-4.207-3.233z" fill="#a07664"/><linearGradient id="f" gradientUnits="userSpaceOnUse" x1="85.541" y1="166.423" x2="154.671" y2="166.423"><stop offset="0" stop-color="#d49863"/><stop offset=".18" stop-color="#cd8f5f"/><stop offset="1" stop-color="#ae684f"/></linearGradient><path d="M138.154 151.687s-34.743 17.206-41.45 15.539c-1.382-.344-3.464-1.586-5.895-3.336-1.129 3.504-3.248 6.447-5.267 9.409 3.563 3.395 6.605 5.993 8.29 6.78 6.375 2.977 39.79.061 50.858-6.397 3.9-2.275 6.354-7.214 9.614-15.289 3.258-8.077-16.15-6.706-16.15-6.706z" fill="url(#f)"/><path d="M86.601 160.655a166.283 166.283 0 0 1-2.964-2.458c-1.319 2.994-2.915 5.857-4.849 8.396a331.047 331.047 0 0 0 3.095 3.132c1.891-2.918 3.687-5.867 4.718-9.07z" fill="#fff"/><linearGradient id="g" gradientUnits="userSpaceOnUse" x1="133.935" y1="202.096" x2="166.569" y2="202.096"><stop offset=".043" stop-color="#fff"/><stop offset=".409" stop-color="#eaecee"/><stop offset=".989" stop-color="#b3b5d3"/></linearGradient><path d="M166.569 151.687c-3.873-2.211-6.914-3.731-6.914-3.731l-8.689.248s-2.406.1-5.694 1.536c-9.325 34.002-11.144 63.25-11.337 98.579 0 .971 4.132 3.836 13.934 6.16 4.63 1.098 12.359 2.021 14.667 1.688-3.872-28.57-8.19-57.411-1.316-87.77 1.168-5.255 1.934-12.119 5.349-16.71z" fill="url(#g)"/><linearGradient id="h" gradientUnits="userSpaceOnUse" x1="125.898" y1="209.575" x2="148.859" y2="209.575"><stop offset="0" stop-color="#d49863"/><stop offset=".18" stop-color="#cd8f5f"/><stop offset="1" stop-color="#ae684f"/></linearGradient><path d="M148.859 149.529c-2.376 1.039-7.796-.586-10.706 2.158-7.683 7.244-7.861 19.555-8.119 36.092-.225 14.427-.896 36.32-1.029 39.273-.816 18.11-3.107 34.709-3.107 34.709l8.038 7.859c.088-16.062 3.507-51.006 4.136-69.389 1.06-30.987 7.478-47.081 10.787-50.702z" fill="url(#h)"/><linearGradient id="i" gradientUnits="userSpaceOnUse" x1="154.747" y1="212.501" x2="183.201" y2="212.501"><stop offset="0" stop-color="#d49863"/><stop offset=".18" stop-color="#cd8f5f"/><stop offset="1" stop-color="#ae684f"/></linearGradient><path d="M178.392 227.052c.644-13.753 7.425-57.57 3.696-63.662-2.226-3.636-9.784-8.429-15.518-11.703-3.415 4.591-4.181 11.455-5.349 16.71-3.375 14.908-5.9 32.316-6.382 50.848-.5 19.208 1.138 39.53 3.109 54.07 10.62-1.533 20.661-7.724 20.661-7.724s-.861-24.786-.217-38.539z" fill="url(#i)"/><linearGradient id="j" gradientUnits="userSpaceOnUse" x1="171.779" y1="189.899" x2="199.369" y2="185.742"><stop offset="0" stop-color="#d49863"/><stop offset=".18" stop-color="#cd8f5f"/><stop offset="1" stop-color="#ae684f"/></linearGradient><path d="M200.135 204.624c-3.056-.053-5.33-.379-6-1.151-4.903-5.646-6.227-26.17-6.227-26.17-.666-10.244-5.099-16.102-9.614-18.038-4.514-1.936-8.588 4.861-7.741 11.894 1.215 10.087 6.397 33.886 14.605 44.274 1.26 1.594 7.227 1.423 14.368.548-.884-3.678-.602-7.918.609-11.357z" fill="url(#j)"/><path d="M204.685 204.545a75.098 75.098 0 0 1-4.549.079c-1.211 3.439-1.494 7.679-.608 11.358 1.175-.144 2.377-.305 3.6-.482-1.241-3.649-.659-7.783 1.557-10.955z" fill="#a07664"/><path d="M204.685 204.545c-2.216 3.172-2.797 7.306-1.558 10.955.945-.137 2.137-1.083 3.758-1.858.003-3.799-.823-6.151 1.157-9.291-1.141.079-2.269.146-3.357.194z" fill="#fff"/><linearGradient id="k" gradientUnits="userSpaceOnUse" x1="562.51" y1="121.316" x2="566.832" y2="155.317" gradientTransform="rotate(5.883 189.022 -3812.693)"><stop offset="0" stop-color="#db9969"/><stop offset=".241" stop-color="#dd9d69"/><stop offset=".467" stop-color="#e5a869"/><stop offset=".687" stop-color="#f1bb68"/><stop offset=".871" stop-color="#ffd168"/></linearGradient><path d="M151.512 137.21l1.914 14.362s-1.786 2.559-1.359 4.722c.301 1.522-.259 17.814-.259 17.814s6.572-16.665 8.211-18.685c1.748-2.155 3.85-6.747 3.85-6.747l-2.839-20.952-9.518 9.486z" fill="url(#k)"/><linearGradient id="l" gradientUnits="userSpaceOnUse" x1="1848.356" y1="-70.909" x2="1861.228" y2="-103.834" gradientTransform="matrix(.9692 .2377 -.2751 .8744 -1667.996 -241.093)"><stop offset=".129" stop-color="#ffd168"/><stop offset=".452" stop-color="#eeb669"/><stop offset=".694" stop-color="#e4a769"/><stop offset=".75" stop-color="#df9f69"/><stop offset=".823" stop-color="#dc9a69"/><stop offset=".843" stop-color="#d59266"/><stop offset=".888" stop-color="#ca8761"/><stop offset=".935" stop-color="#c7835f"/></linearGradient><path d="M167.626 129.355c-3.76 11.951-15.504 21.313-22.109 17.885-5.289-2.745-8.515-18.801-4.754-30.752 3.76-11.951 9.922-14.598 18.372-12.525 8.45 2.073 12.251 13.442 8.491 25.392z" fill="url(#l)"/><linearGradient id="m" gradientUnits="userSpaceOnUse" x1="1835.888" y1="-3.842" x2="1879.184" y2="-28.277" gradientTransform="matrix(.9911 .1497 -.218 .976 -1678.534 -139.583)"><stop offset="0" stop-color="#ce684e"/><stop offset=".125" stop-color="#c3614d"/><stop offset=".405" stop-color="#b0564b"/><stop offset=".693" stop-color="#a54f49"/><stop offset="1" stop-color="#a14d49"/></linearGradient><path d="M173.881 123.045c.885-2.467 1.439-4.353 1.752-6.566.698-4.933.956-7.606.036-10.853a18.242 18.242 0 0 0-.339-1.066c-5.878 3.146-12.837 4.459-18.974 7.066 2.899 1.143 5.435 3.093 6.781 6.348.901 2.179 1.042 4.574 1.166 6.546.722-.573 1.501-.826 2.178-.621 1.392.422 1.822 2.61.96 4.887-.862 2.277-2.69 3.782-4.082 3.36-.057-.017-.107-.046-.16-.069-.081 2.871-.2 4.113-.248 6.922.626-.384 4.019-3.042 5.525-4.985 1.805-2.329 2.666-3.332 5.405-10.969z" fill="url(#m)"/><path d="M167.411 98.644c-3.744-.725-8.274-.692-11.948.357-2.42.691-5.377 2.561-8.009 2.025-2.034-.414-4.628-2.018-2.77-4.065-5.488 1.115-7.764 9.215-5.864 14 1.4 3.525 5.6 4.608 8.889 5.472 2.899.761 5.409.747 8.398.287 3.709-.572 6.669-1.595 10.196-2.872 2.413-.874 5.015-1.339 7.521-1.86 1.151-.239 2.637.065 2.82-1.092 1.312-8.324-6.976-11.815-9.233-12.252z" fill="#823c3c"/><linearGradient id="n" gradientUnits="userSpaceOnUse" x1="1820.921" y1="-165.59" x2="1854.684" y2="-165.59" gradientTransform="rotate(20.504 231.782 -4682.053)"><stop offset="0" stop-color="#ce684e"/><stop offset=".125" stop-color="#c3614d"/><stop offset=".405" stop-color="#b0564b"/><stop offset=".693" stop-color="#a54f49"/><stop offset="1" stop-color="#a14d49"/></linearGradient><path d="M149.577 108.614c-5.559-.201-8.756-5.306-7.41-10.519-3.624 2.651-4.931 8.892-3.355 12.863 1.4 3.525 5.6 4.608 8.889 5.472 2.899.761 5.409.747 8.398.287 3.709-.572 6.669-1.595 10.196-2.872 1.618-.586 3.321-.984 5.023-1.342-4.753-4.878-14.904-3.114-21.741-3.889z" fill="url(#n)"/><linearGradient id="o" gradientUnits="userSpaceOnUse" x1="-4221.442" y1="312.676" x2="-4211.221" y2="315.398" gradientTransform="matrix(.9853 -.5009 .5027 .8732 4239.4 -2183.343)"><stop offset=".129" stop-color="#ffd168"/><stop offset="1" stop-color="#edb469"/></linearGradient><path d="M237.657 205.795s3.53-4.26 5.152-4.722.676.947.676.947 2.051-1.672 3.263-1.729c1.212-.058 2.317-.32 1.404.983-.913 1.303-10.42 4.832-10.42 4.832" fill="url(#o)"/><linearGradient id="p" gradientUnits="userSpaceOnUse" x1="205.991" y1="204.9" x2="250.024" y2="204.9"><stop offset="0" stop-color="#edb469"/><stop offset=".871" stop-color="#ffd168"/></linearGradient><path d="M249.662 199.926c-1.062-.319-3.352 1.856-6.822 3.674-3.47 1.819-8.951-.557-8.668-1.137.283-.579 4.977-2.458 6.4-3.837 1.424-1.379.735-2.975-.519-2.316s-5.991 2.719-9.034 3.499c-1.9.487-4.201 1.786-5.662 2.693-2.955.402-10.408 1.367-17.316 1.847-1.98 3.14-2.048 5.492-2.051 9.291a119.139 119.139 0 0 0 17.184-4.078s5.809 1.408 9.967 1.186c4.158-.222 6.122-1.401 9.01-3.24s5.079-3.715 6.366-5.094c.662-.706 2.207-2.169 1.145-2.488z" fill="url(#p)"/><linearGradient id="q" gradientUnits="userSpaceOnUse" x1="-1806.137" y1="1503.282" x2="-1779.098" y2="1503.282" gradientTransform="scale(-1 1) rotate(-26.596 -3805.228 -2851.375)"><stop offset="0" stop-color="#edb469"/><stop offset=".871" stop-color="#ffd168"/></linearGradient><path d="M68.46 143.762s-3.243-3.573-6.003-4.935c-2.761-1.362-6.848-4.294-7.902-5.181-1.054-.887-2.12.513-1.08 2.126s5.13 4.364 5.261 4.978-4.748.521-7.665-1.926-5.635-3.718-6.745-3.624c-1.11.094.027 1.813.492 2.627.907 1.586 2.567 3.833 4.915 6.182 2.347 2.349 3.961 3.878 7.943 4.926 3.982 1.047 7.662.973 7.662.973s1.573-.586 2.554-2.064c.634-.957 1.02-2.29.568-4.082z" fill="url(#q)"/><path d="M163.854 147.434l10.218 8.879-11.449 13.07 3.686 2.575-10.866 40.543s2.056-39.551 5.498-50.464c3.442-10.913 2.913-14.603 2.913-14.603zm-10.91.522l-9.795 1.784s-.597 1.985-1.002 3.833c-.665 3.031-.858 9.67-.858 9.67s-5.347.306-5.347 1.188c0 .882-.758 3.029-.582 17.361.159 12.958 2.452 24.81 2.452 24.81s1.282-29.474 5.199-42.229c3.914-12.754 9.933-16.417 9.933-16.417z" fill="#a07664"/><ellipse cx="158.236" cy="232.052" rx="1.561" ry="1.915" fill="#915544"/><ellipse cx="159.796" cy="252.34" rx="1.561" ry="1.915" fill="#915544"/><path fill="#915544" d="M165.345 243.895l10.419-1.555-1.692 1.606zm-34.812-7.652l3.402 2.264-3.465-1.078z"/><path d="M152.944 146.96s-2.348 2.077-4.084 5.189c-1.736 3.112-1.587 6.104-1.587 6.104l2.397-.436 1.198 2.397-.616 3.878 1.259 10.912s1.432-10.996 1.432-18.493c0-1.416.482-4.94.482-4.94l-.481-4.611z" fill="#fff"/><linearGradient id="r" gradientUnits="userSpaceOnUse" x1="151.512" y1="159.977" x2="163.951" y2="159.977"><stop offset=".043" stop-color="#fff"/><stop offset=".764" stop-color="#eaecee"/></linearGradient><path d="M163.498 144.949s-2.39 6.333-3.588 8.512c-1.198 2.179-4.37 8.607-5.072 11.112-.702 2.506-3.326 10.432-3.326 10.432s4.449-8.797 4.844-9.669c.395-.872.613-4.031.613-4.031l3.489 2.484s1.089-5.642 2.507-9.153.89-7.201.89-7.201l-.357-2.486z" fill="url(#r)"/><linearGradient id="s" gradientUnits="userSpaceOnUse" x1="146.652" y1="214.746" x2="151.93" y2="214.746"><stop offset=".043" stop-color="#fff"/><stop offset=".764" stop-color="#eaecee"/></linearGradient><path d="M147.452 254.551c-.025-.145-.605-3.637-.605-10.605 0-2.214-.044-4.933-.09-7.811-.098-6.131-.21-13.079.092-16.845.182-2.278.384-5.945.598-9.827.298-5.4.635-11.52.992-15.162.471-4.812 2.633-19.215 2.655-19.36l.837.126c-.022.145-2.18 14.527-2.649 19.317-.356 3.624-.692 9.734-.989 15.126-.215 3.888-.417 7.56-.601 9.848-.298 3.725-.187 10.652-.089 16.764.046 2.881.09 5.603.09 7.824 0 6.886.588 10.428.594 10.463l-.835.142z" fill="url(#s)"/><path fill="#a07664" d="M164.758 185.141l7.476 2.644v3.501l-7.476-1.643z"/><path d="M129.763 37.548c0 12.988-10.529 18.607-23.516 12.55S82.73 28.604 82.73 15.617 93.259-2.99 106.247 3.066s23.516 21.494 23.516 34.482z" fill="#fff"/><path d="M109.547 20.063l-.279.335c.184 6.078.285 12.151.426 18.241a9.693 9.693 0 0 0 2.391 2.643c2.708 2.052 4.4 2.54 4.4 2.54l-6.938-23.759z" fill="#25c198"/><path d="M105.147 25.359l3.554 11.072s.238.981.993 2.208c-.141-6.091-.242-12.164-.426-18.241l-4.121 4.961z" fill="#15a567"/><linearGradient id="t" gradientUnits="userSpaceOnUse" x1="102.293" y1="199.907" x2="102.872" y2="219.859" gradientTransform="matrix(1 .5774 0 1 0 -249.903)"><stop offset="0" stop-color="#1b5ced"/><stop offset=".346" stop-color="#0e6ef3"/><stop offset=".37" stop-color="#0d70f3"/><stop offset=".925" stop-color="#70a6f9"/></linearGradient><path d="M102.608 16.056l-6.6 15.924 4.231 2.443s2.708 2.071 3.893-1.476 5.416-12.885 5.416-12.885l-6.94-4.006z" fill="url(#t)"/><linearGradient id="u" gradientUnits="userSpaceOnUse" x1=".633" y1="673.87" x2="41.653" y2="673.87" gradientTransform="matrix(1 .4663 0 1 0 -527.196)"><stop offset=".279" stop-color="#61c2f8"/><stop offset=".925" stop-color="#70d1f9"/></linearGradient><path d="M41.653 166.097c0 11.37-9.183 16.306-20.51 11.024C9.816 171.839.633 158.34.633 146.97c0-11.37 9.183-16.306 20.51-11.024s20.51 18.781 20.51 30.151z" fill="url(#u)"/><path d="M9.236 140.392c1.248.365 2.881.941 4.961 1.91 2.555 1.191 4.426 2.684 5.614 4.354 1.07 1.491 1.753 3.328 1.753 5.188 0 1.891-.535 3.13-1.545 3.744-1.396.868-3.594.618-6.119-.559-.772-.36-1.485-.724-2.079-1.156v8.37l-2.584-1.205v-20.646zm2.584 11.281c.564.418 1.277.813 2.139 1.214 3.119 1.454 5.02.729 5.02-2.092 0-2.79-1.901-5.01-4.723-6.326-1.129-.526-1.99-.835-2.436-.919v8.123zm12.121 13.464c.802.87 2.169 2.065 3.476 2.675 1.871.873 2.763.327 2.763-.944 0-1.302-.743-2.33-2.644-3.961-2.614-2.211-3.832-4.236-3.832-6.034 0-2.418 1.901-3.516 4.961-2.089 1.455.679 2.733 1.677 3.505 2.564l-.624 1.693c-.564-.635-1.604-1.647-2.941-2.27-1.545-.72-2.377-.178-2.377.938 0 1.24.832 2.186 2.703 3.834 2.466 2.111 3.772 4.022 3.772 6.254 0 2.666-1.99 3.598-5.347 2.033a13.505 13.505 0 0 1-4.04-2.938l.625-1.755z" fill="#fff"/><linearGradient id="v" gradientUnits="userSpaceOnUse" x1="197.33" y1="475.663" x2="249.021" y2="475.663" gradientTransform="matrix(1 .4663 0 1 0 -527.196)"><stop offset=".035" stop-color="#dd404c"/><stop offset=".489" stop-color="#e3756d"/><stop offset=".966" stop-color="#e3756d"/></linearGradient><path d="M249.021 64.588c0 14.274-11.571 20.45-25.845 13.793-14.274-6.656-25.845-23.623-25.845-37.897s11.571-20.45 25.845-13.793c14.273 6.656 25.845 23.623 25.845 37.897z" fill="url(#v)"/><path fill="#fff" d="M211.554 34.313l1.575 16.56 17.335 8.083v5.843l-6.304-.97-4.727-2.204-1.182-5.673-4.728-2.204v7.485l10.637 8.506 10.637 1.02V55.788l-16.94-8.687-.788-5.489 17.728 8.267v-4.727z"/><linearGradient id="w" gradientUnits="userSpaceOnUse" x1="252.796" y1="177.304" x2="314.042" y2="177.304"><stop offset=".166" stop-color="#ffa656"/><stop offset=".981" stop-color="#ffe37a"/></linearGradient><path d="M314.042 191.584c0 16.913-13.711 24.23-30.623 16.343-16.913-7.887-30.623-27.99-30.623-44.903s13.711-24.23 30.623-16.343c16.913 7.886 30.623 27.99 30.623 44.903z" fill="url(#w)"/><path d="M274.366 180.875l-5.01-2.773-.082-2.729-4.319-2.46v6.701l15.477 10.373v-25.835l-6.066-2.829zm13.52-3.058v-5.472l9.827 4.422-.298-4.695-13.997-6.527v14.727l9.381 4.374v5.602l-9.381-4.374v5.794l15.049 6.373v-15.612l-10.581-4.612z" fill="#fff"/><linearGradient id="x" gradientUnits="userSpaceOnUse" x1="36.851" y1="719.026" x2="77.193" y2="719.026" gradientTransform="matrix(1 .4663 0 1 0 -527.196)"><stop offset=".011" stop-color="#0dacd1"/><stop offset=".925" stop-color="#70dbc7"/></linearGradient><path d="M77.193 227.826c0 11.14-9.031 15.96-20.171 10.765-11.14-5.195-20.171-18.437-20.171-29.577s9.031-15.96 20.171-10.765c11.14 5.195 20.171 18.437 20.171 29.577z" fill="url(#x)"/><path d="M50.457 211.144l-.002.035v9.658c0 .962.789 2.109 1.762 2.563l1.286.6v3.987c0 .761.617 1.666 1.379 2.021.761.355 1.379.026 1.379-.736v-3.987l1.685.786v3.987c0 .761.617 1.666 1.379 2.021.761.355 1.379.026 1.379-.736v-3.987l1.286.6c.973.454 1.762.042 1.762-.92v-9.658l-.002-.036-13.293-6.198zm15.194 7.085c-.761-.355-1.379-.026-1.379.736v5.923c0 .761.617 1.666 1.379 2.021.761.355 1.379.026 1.379-.736v-5.923c0-.761-.618-1.666-1.379-2.021zm-17.258-8.048c-.761-.355-1.379-.026-1.379.736v5.923c0 .761.617 1.666 1.379 2.021.761.355 1.379.026 1.379-.736v-5.923c0-.761-.617-1.666-1.379-2.021zm2.461.431l12.498 5.828c-.285-1.999-1.304-4.081-2.734-5.756l1.261-2.074c.084-.139.008-.388-.17-.555-.178-.168-.392-.191-.476-.052l-1.226 2.016c-.87-.881-1.857-1.61-2.904-2.099-1.096-.511-2.127-.697-3.026-.599l-1.258-3.241c-.085-.218-.298-.393-.476-.392-.178.001-.254.179-.17.397l1.3 3.351c-1.369.373-2.341 1.49-2.619 3.176zm8.533.979c.391.182.707.647.707 1.037 0 .391-.317.56-.707.378-.391-.182-.707-.647-.707-1.037 0-.391.316-.56.707-.378zm-4.568-2.142c.391.182.707.647.707 1.037 0 .391-.317.56-.707.378-.391-.182-.707-.647-.707-1.037 0-.391.317-.56.707-.378z" fill="#fff"/><linearGradient id="y" gradientUnits="userSpaceOnUse" x1="263.204" y1="502.602" x2="303.633" y2="502.602" gradientTransform="matrix(1 .4663 0 1 0 -527.196)"><stop offset=".068" stop-color="#448ef6"/><stop offset=".925" stop-color="#70a6f9"/></linearGradient><path d="M303.633 116.992c0 11.164-9.05 15.994-20.214 10.788-11.164-5.206-20.214-18.476-20.214-29.64s9.05-15.994 20.214-10.788c11.164 5.206 20.214 18.476 20.214 29.64z" fill="url(#y)"/><path d="M289.081 97.472a14.332 14.332 0 0 0-1.368-1.032c-1.392-.935-2.834-1.516-4.033-1.605-.751-.056-1.409.097-1.958.454-.54.351-.964.926-1.261 1.708-.295.772-.444 1.799-.444 3.052v1.77l-2.476-1.155v4.161l2.476 1.155v14.023l4.358 2.032v-14.023l4.062 1.894v-4.161l-4.062-1.894v-1.987c0-.581.053-1.053.157-1.402.1-.336.247-.579.435-.722a.858.858 0 0 1 .629-.164c.516.051 1.228.392 2.008.902.398.261.79.54 1.166.83l.527.408v-4.057l-.216-.187z" fill="#fff"/><linearGradient id="z" gradientUnits="userSpaceOnUse" x1="21.143" y1="873.687" x2="80.163" y2="873.687" gradientTransform="matrix(1 .4663 0 1 0 -814.765)"><stop offset=".075" stop-color="#70bdf9"/><stop offset="1" stop-color="#8a94f6"/></linearGradient><path d="M80.163 96.302c0 16.298-13.212 23.349-29.51 15.749s-29.51-26.973-29.51-43.271 13.212-23.349 29.51-15.749 29.51 26.973 29.51 43.271z" fill="url(#z)"/><path fill="#fefefe" d="M37.464 59.726v5.146l13.378 6.238-12.178 1.526v5.317l19.897 9.278v7.203l-6.347-.043-7.375-6.355-.172-3.854-6.003-2.627.686 8.553 13.207 10.789 12.35 1.985.857-18.295-11.491-5.531 12.52-.336v-5.317z"/><path d="M260.721 283.791c0 12.407-10.058 17.775-22.465 11.989-12.407-5.786-22.465-20.534-22.465-32.941 0-12.407 10.058-17.775 22.465-11.989s22.465 20.534 22.465 32.941z" fill="#fff"/><g fill="#bac8d3"><path d="M241.772 265.112c1.328-.93.886-3.019.886-3.019s-1.107-.738-2.878-.014-1.328 3.255-1.328 3.255 1.992.708 3.32-.222z"/><path d="M245.425 275.449c.775-4.066 2.767-3.137 2.767-3.137s-.676-1.062-1.799-2.208c-1.398-1.428-3.489-2.986-5.828-2.788 0 0-.884.141-2.163-.455s-3.161-4.003-5.928-4.076c-2.767-.073-5.535 1.41-4.649 7.025.886 5.616 4.467 11.158 6.088 12.336 2.546 1.851 2.226.042 4.489 1.097s1.599 1.69 3.813 2.801c3.653 1.833 6.642-3.129 6.642-3.129s-4.207-3.399-3.432-7.466z"/></g></svg>