<svg xmlns="http://www.w3.org/2000/svg" viewBox="0 0 358 472" enable-background="new 0 0 358 472"><linearGradient id="a" gradientUnits="userSpaceOnUse" x1="158.415" y1="133.863" x2="356.913" y2="133.863"><stop offset="0" stop-color="#aea9f3"/><stop offset=".313" stop-color="#a1d0f0"/><stop offset=".776" stop-color="#d6ebf9"/><stop offset="1" stop-color="#dbedfa"/></linearGradient><path d="M347.231 88.771L168.096 2.503c-5.347-2.575-9.682-.737-9.682 4.107v158.913c0 4.843 4.335 10.856 9.682 13.432l10.446 5.031c.564 5.172 1.643 13.207 3.372 19.154l2.761 9.49s-.292-11.094 2.99-16.315a307.839 307.839 0 0 0 3.745-6.132l155.82 75.04c5.347 2.575 9.682.737 9.682-4.107V102.203c.001-4.843-4.334-10.857-9.681-13.432z" opacity=".6" fill="url(#a)" fill-opacity=".6"/><path d="M249.431 182.729l-19.558-9.724v3.694l19.437 9.6c.039-1.772.054-1.78.121-3.57zm-4.375-10.895l-3.954-4.15.128-1.272c1.053-.374 1.802-1.719 1.912-3.652l.449-.368s.299-1.422 0-1.89c-.114-.179-.392-.33-.688-.449a10.383 10.383 0 0 0-.624-1.899v-.001c0-1.507-1.433-2.757-2.816-3.126-.016-.006-.033-.013-.05-.018a2.242 2.242 0 0 0-.35-.088c-1.15-.309-1.871-.563-1.959-1.681 0 0-1.135.314.135 2.34-.35.385-.629.917-.814 1.572-.296-.145-.573-.243-.688-.167-.299.2 0 1.89 0 1.89l.449.771c.109 2.032.859 4.047 1.912 5.364l.172 1.625-3.997.371-.835 2.422 12.428 5.482-.81-3.076zm-15.182 11.926l19.437 9.6c.038-1.772.054-1.779.121-3.57l-19.558-9.724v3.694zm35.343 25.46l75.265 35.863V209.22l-13.546 15.221-8.467-15.221-9.89 9.156-5.367-5.624-10.99 3.233-7.62-6.765zm23.006-6.515l-25.647-12.852a.382.382 0 0 1-.21-.341v-4.02l-6.477-8.28a.38.38 0 0 1 .526-.542l5.951 4.361v-11.417c0-.132.069-.255.181-.325a.378.378 0 0 1 .371-.016l25.647 12.852c.129.065.21.197.21.341v19.899a.381.381 0 0 1-.552.34zm-25.095-32.475v11.552a.381.381 0 0 1-.607.307l-4.332-3.174 4.858 6.21c.052.067.081.15.081.235v3.916l24.885 12.47V182.7l-24.885-12.47z" fill="#fff"/><path fill="#fff" d="M265.485 176.03l19.008 9.525v-1.121l-19.008-9.525zm-.259 3.053l19.007 9.525v-1.121l-19.007-9.525zm8.964 7.482l9.877 4.949v-1.121l-9.877-4.95zm-8.622 1.184l6.806 3.411v-6.446l-6.806-3.411z"/><linearGradient id="b" gradientUnits="userSpaceOnUse" x1="264.873" y1="87.745" x2="317.439" y2="87.745" gradientTransform="translate(-89.475)"><stop offset="0" stop-color="#9cc7f3"/><stop offset=".71" stop-color="#b8f8e3"/></linearGradient><path opacity=".6" fill="url(#b)" d="M227.965 77.093v47.44l-52.567-26.136v-47.44z"/><path fill="#fff" d="M203.566 74.72l-17.197-8.527v8.503l2.805 1.395v2.626l1.688-1.787 12.704 6.316zm17.015 24.974l-27.092-13.419v10.956l21.787 10.536 2.328 4.49v-3.332l2.977 1.48zm61.091 24.688l-5.318-2.313V92.254l5.318 2.314zm10.241 3.651l-5.334-2.321v-33.86l5.334 2.321zm10.242 4.457l-5.352-2.329V92.254l5.352 2.329zm10.138 5.261l-5.369-2.336V93.462l5.369 2.336zm10.345 3.651l-5.386-2.343V93.06l5.386 2.343zm10.242 4.456l-5.404-2.351V93.462l5.404 2.351z"/><linearGradient id="c" gradientUnits="userSpaceOnUse" x1="405.737" y1="311.055" x2="499.902" y2="343.489" gradientTransform="matrix(1 .5095 0 1 -89.475 -368.442)"><stop offset=".28" stop-color="#81c6f8"/><stop offset=".925" stop-color="#90d1f9"/></linearGradient><path fill="url(#c)" d="M281.569 125.32l-5.318-2.313v-13.431l5.318 2.314z"/><linearGradient id="d" gradientUnits="userSpaceOnUse" x1="407.793" y1="306.566" x2="501.574" y2="338.868" gradientTransform="matrix(1 .5095 0 1 -89.475 -368.442)"><stop offset=".28" stop-color="#81c6f8"/><stop offset=".925" stop-color="#90d1f9"/></linearGradient><path fill="url(#d)" d="M291.81 129.777l-5.335-2.322v-15.253l5.335 2.321z"/><linearGradient id="e" gradientUnits="userSpaceOnUse" x1="409.926" y1="302.103" x2="503.37" y2="334.289" gradientTransform="matrix(1 .5095 0 1 -89.475 -368.442)"><stop offset=".28" stop-color="#81c6f8"/><stop offset=".925" stop-color="#90d1f9"/></linearGradient><path fill="url(#e)" d="M302.052 134.233l-5.352-2.329v-17.076l5.352 2.329z"/><linearGradient id="f" gradientUnits="userSpaceOnUse" x1="412.122" y1="297.662" x2="505.267" y2="329.745" gradientTransform="matrix(1 .5095 0 1 -89.475 -368.442)"><stop offset=".28" stop-color="#81c6f8"/><stop offset=".925" stop-color="#90d1f9"/></linearGradient><path fill="url(#f)" d="M312.293 138.689l-5.369-2.336v-18.899l5.369 2.336z"/><linearGradient id="g" gradientUnits="userSpaceOnUse" x1="414.37" y1="293.239" x2="507.251" y2="325.231" gradientTransform="matrix(1 .5095 0 1 -89.475 -368.442)"><stop offset=".28" stop-color="#81c6f8"/><stop offset=".925" stop-color="#90d1f9"/></linearGradient><path fill="url(#g)" d="M322.535 143.145l-5.386-2.343V120.08l5.386 2.344z"/><linearGradient id="h" gradientUnits="userSpaceOnUse" x1="416.663" y1="288.831" x2="509.306" y2="320.741" gradientTransform="matrix(1 .5095 0 1 -89.475 -368.442)"><stop offset=".28" stop-color="#81c6f8"/><stop offset=".925" stop-color="#90d1f9"/></linearGradient><path fill="url(#h)" d="M332.776 147.602l-5.403-2.351v-22.545l5.403 2.351z"/><path fill="#fff" d="M271.894 120.829l-5.318-2.314V96.32l5.214 1.99z"/><linearGradient id="i" gradientUnits="userSpaceOnUse" x1="386.029" y1="312.699" x2="455.032" y2="336.466" gradientTransform="matrix(1 .5095 0 1 -89.475 -368.442)"><stop offset=".28" stop-color="#81c6f8"/><stop offset=".925" stop-color="#90d1f9"/></linearGradient><path fill="url(#i)" d="M271.79 121.767l-5.317-2.314v-5.822l5.317 1.976z"/><linearGradient id="j" gradientUnits="userSpaceOnUse" x1="244.929" y1="66.193" x2="289.346" y2="66.193"><stop offset="0" stop-color="#9a9dff"/><stop offset="1" stop-color="#aee9f7"/></linearGradient><path opacity=".6" fill="url(#j)" d="M244.928 52.543v5.043l44.418 22.257v-5.041z"/><path d="M208.302 170.171v-15.145l7.79 3.97v-4.699l-7.79-3.97v-6.541l-7.884-4.017-7.108-8.626.066-4.889 7.135 3.636v-4.111l-14.778-7.53v4.112l7.127 3.631-.068 5.032-6.763 1.415-7.645-3.896v6.541l-8.232-4.194v4.699l8.231 4.194v7.865l7.35 3.745v2.573l15.807 8.054v-5.287l-15.807-8.054v2.131l-6.83-3.48v-7.281l9.114 4.644v-4.699l-9.114-4.644v-5.958l6.924 3.528 7.417 8.897 6.973-1.565 7.566 3.855v5.958l-7.791-3.97v4.699l7.791 3.97v15.145l-25.724-13.107v7.492l34.769 17.716v-7.492l-8.526-4.347zM178.993 26.015l49.825 24.968v2.94l-49.825-24.969zm49.145 32.971v2.938l-49.825-24.968v-2.938zm-.435 10.557l-25.891-12.974v-2.94l25.891 12.975z" fill="#ac55ff"/><linearGradient id="k" gradientUnits="userSpaceOnUse" x1="177.976" y1="47.581" x2="196.699" y2="47.581"><stop offset=".075" stop-color="#70bdf9"/><stop offset=".974" stop-color="#63aff8"/></linearGradient><path d="M196.699 50.804l-18.723-9.382v2.939l18.723 9.382v-2.939z" fill="url(#k)"/><linearGradient id="l" gradientUnits="userSpaceOnUse" x1="252.492" y1="-234.247" x2="281.782" y2="-234.247" gradientTransform="matrix(1 .4663 0 1 0 255.094)"><stop offset=".075" stop-color="#70bdf9"/><stop offset=".974" stop-color="#63aff8"/></linearGradient><path d="M281.782 152.245c0 7.715-6.557 10.912-14.645 7.14-8.088-3.772-14.645-13.083-14.645-20.799s6.557-10.912 14.645-7.14c8.088 3.772 14.645 13.084 14.645 20.799z" fill="url(#l)"/><path d="M266.219 151.708a20.729 20.729 0 0 1-2.186-1.267c-.683-.455-1.25-.911-1.7-1.366v-2.773c.308.276.608.531.901.767a15.968 15.968 0 0 0 1.872 1.297c.34.201.711.4 1.114.597v-3.099a21.255 21.255 0 0 1-1.481-1.037 8.006 8.006 0 0 1-1.321-1.274 6.254 6.254 0 0 1-.954-1.605c-.245-.595-.367-1.275-.367-2.039 0-.623.095-1.132.284-1.53.19-.397.462-.69.818-.878.356-.188.788-.271 1.298-.251.51.021 1.084.138 1.724.351v-1.457l1.884.879v1.415c.576.307 1.163.658 1.76 1.054.596.396 1.144.814 1.641 1.254v2.802c-1.217-1.039-2.35-1.832-3.401-2.378v3.141c.498.326.989.681 1.475 1.063.486.382.92.811 1.304 1.287.383.476.695 1.01.936 1.604.241.594.361 1.268.361 2.022 0 1.208-.354 1.991-1.061 2.35s-1.712.319-3.016-.119v1.457l-1.884-.879v-1.388zm-1.529-10.73c0 .396.126.757.379 1.083.253.325.636.664 1.149 1.017v-2.717c-.577-.193-.976-.226-1.197-.098-.22.127-.331.366-.331.715zm4.882 8.148c0-.396-.121-.752-.361-1.067-.241-.315-.61-.641-1.108-.976v2.66c.979.306 1.469.1 1.469-.617z" fill="#fff"/><linearGradient id="m" gradientUnits="userSpaceOnUse" x1="317.447" y1="164.774" x2="337.505" y2="164.774"><stop offset=".075" stop-color="#70bdf9"/><stop offset=".974" stop-color="#63aff8"/></linearGradient><path d="M323.351 151.135l-5.904 15.699 20.058 11.58s-.197-4.195-2.064-9.702c-1.867-5.508-5.406-12.328-12.09-17.577z" fill="url(#m)"/><path d="M310.917 168.999l5.643-17.87a35.63 35.63 0 0 0-3.777-2.534c-11.335-6.544-20.524-2.661-20.524 8.675 0 11.335 9.189 25.83 20.524 32.374 11.014 6.359 20 2.87 20.5-7.732l-22.366-12.913z" fill="#ac55ff"/><linearGradient id="n" gradientUnits="userSpaceOnUse" x1="189.192" y1="431.172" x2="303.062" y2="431.172" gradientTransform="matrix(-1 0 0 1 346.655 0)"><stop offset="0" stop-color="#a2aaa4" stop-opacity=".673"/><stop offset=".866" stop-color="#d4d8d1" stop-opacity="0"/></linearGradient><path fill="url(#n)" d="M131.636 425.085l14.292 4.66 11.535 8.164H75.569l-31.976-13.475z"/><linearGradient id="o" gradientUnits="userSpaceOnUse" x1="173.104" y1="409.053" x2="289.524" y2="409.053" gradientTransform="matrix(-1 0 0 1 346.655 0)"><stop offset="0" stop-color="#a2aaa4" stop-opacity=".673"/><stop offset=".866" stop-color="#d4d8d1" stop-opacity="0"/></linearGradient><path fill="url(#o)" d="M57.131 404.591l88.704-1.605 16.181 3.971 11.535 8.163H75.912z"/><path d="M19.031 410.241l24.096-108.875.785.441c1.402.789 2.874 1.716 4.559 2.862l-.002-.017.869.608.184.127v.001l.175.122c1.05.735 2.094 1.488 3.14 2.242.92.663 1.842 1.327 2.77 1.982l.255.18 5.111 60.556 20.883-93.532.785.442c1.4.788 2.872 1.715 4.559 2.863l-.002-.018.903.633.149.104v.001l.175.122c1.042.729 2.077 1.476 3.114 2.223.929.669 1.858 1.34 2.795 2l.255.18 10.13 120.024-2.612-1.696-14.526-120.401-25.92 95.227 4.329 51.297-2.612-1.696-14.525-120.4-26.969 99.801-2.853 2.597z" fill="#c8d5e1"/><path d="M59.482 192.314s9.544-3.061 22 1.538 11.589 45.256 18.135 48.929c6.545 3.673 36.954 13.884 36.92 25.723-.034 11.839-15.452 34.608-48.483 44.283-33.03 9.676-58.193 3.818-72.572-17.681-5.306-7.933-8.817-18.868-10.594-30.226-3.038-19.421 1.202-36.252 8.006-45.259 1.906-2.523 7.843-10.429 11.09-12.612 15.124-10.169 35.498-14.695 35.498-14.695z" fill="#c8d5e1"/><path d="M9.709 221.939c10.154-16.422 18.782-19.502 30.215-23.602-6.595 3.318-12.516 7.239-15.844 11.643-5.392 7.137-9.391 19.581-10.244 32.928-.853 13.347 1.995 27.495 6.027 36.096 3.186 6.796 8.459 16.834 23.264 22.361 18.551 6.926 34.872 12.476 58.318 5.608.844-.247 1.67-.509 2.491-.773-5.207 2.784-11.087 5.242-17.68 7.174-33.03 9.676-63.699 3.962-78.077-17.537-14.379-21.498-6.666-60.643 1.53-73.898z" fill="#bac8d3"/><defs><filter id="p" filterUnits="userSpaceOnUse" x="28.831" y="191.35" width="94.422" height="120.097"><feFlood result="back" flood-color="#fff" flood-opacity="1"/><feBlend in="SourceGraphic" in2="back"/></filter></defs><mask maskUnits="userSpaceOnUse" x="28.831" y="191.35" width="94.422" height="120.097" id="q"><g filter="url(#p)"><linearGradient id="r" gradientUnits="userSpaceOnUse" x1="260.001" y1="309.644" x2="294.645" y2="170.718" gradientTransform="matrix(-1 0 0 1 346.655 0)"><stop offset="0" stop-color="#fff"/><stop offset=".93"/></linearGradient><path d="M28.831 205.223s0 24.992 4.638 53.076c2.464 14.917 7.438 26.949 10.207 30.442 2.777 3.503 8.626 10.794 14.33 14.148 9.809 5.767 17.432 8.557 17.432 8.557s23.357-3.8 28.496-5.245c10.154-2.854 19.318-13.307 19.318-13.307s-20.226-10.353-30.68-19.684c-7.208-6.434-13.387-14.238-13.69-22.24-.298-7.875-1.424-19-2.664-29.494-1.848-15.635-3.951-29.869-3.951-29.869s-8.83-.773-15.397.359c-6.895 1.19-18.879 6.371-28.039 13.257z" mask="url(#q)" fill="url(#r)"/></g></mask><path d="M28.831 205.223s0 24.992 4.638 53.076c2.464 14.917 7.438 26.949 10.207 30.442 2.777 3.503 8.626 10.794 14.33 14.148 9.809 5.767 17.432 8.557 17.432 8.557s23.357-3.8 28.496-5.245c10.154-2.854 19.318-13.307 19.318-13.307s-20.226-10.353-30.68-19.684c-7.208-6.434-13.387-14.238-13.69-22.24-.298-7.875-1.424-19-2.664-29.494-1.848-15.635-3.951-29.869-3.951-29.869s-8.83-.773-15.397.359c-6.895 1.19-18.879 6.371-28.039 13.257z" fill="#bac8d3"/><linearGradient id="s" gradientUnits="userSpaceOnUse" x1="109.905" y1="200.536" x2="74.792" y2="220.328"><stop offset=".005" stop-color="#79729d"/><stop offset=".092" stop-color="#716994"/><stop offset=".386" stop-color="#5a5079"/><stop offset=".647" stop-color="#4c4069"/><stop offset=".849" stop-color="#473b63"/></linearGradient><path d="M132.817 241.129c-6.565-6.953-21.374-22.646-22.859-24.316-1.667-1.873-4.158-8.939-5.894-16.191-2.294-9.583-10.949-29.528-11.672-31.202-2.223-4.909-6.722-7.561-10.196-8.011-1.639-.213-3.013.082-3.77.807-1.933 1.854-2.122 3.557-2.321 5.361-.08.723-.162 1.47-.361 2.22-.323 1.221 10.648 38.825 23.608 56.842 2 2.78 19.744 13.996 28.921 19.693.982-1.784 2.531-3.442 4.544-5.203z" fill="url(#s)"/><path d="M135.926 244.422l-3.11-3.292c-2.013 1.761-3.562 3.419-4.544 5.203 3.263 2.025 5.452 3.359 5.452 3.359l2.202-5.27z" fill="#fff"/><linearGradient id="t" gradientUnits="userSpaceOnUse" x1="-308.27" y1="376.714" x2="-277.893" y2="376.714" gradientTransform="matrix(.9993 .0316 .0382 1.0019 439.543 36.71)"><stop offset="0" stop-color="#473b63"/><stop offset=".237" stop-color="#4c4069"/><stop offset=".546" stop-color="#5a5079"/><stop offset=".892" stop-color="#716994"/><stop offset=".995" stop-color="#79729d"/></linearGradient><path d="M156.301 396.226s6.581 6.84 12.752 10.825c1.868 1.206 3.366 2.14 4.518 2.916 2.653 1.789 3.46 2.742 2.678 4.259-.48.932-2.385 1.065-4.727.778-3.126-.382-7.031-1.512-9.37-2.489-1.833-.766-3.237-1.961-4.444-3.026-1.487-1.312-2.675-2.426-3.999-2.294-2.399.24-5.381-1.254-6.309-1.915-.537-.382-1.406-.835-1.564-2.295-.115-1.064.149-2.663 1.196-5.16 1.128-2.689 3.143-3.265 5.007-3.094 2.24.207 4.262 1.495 4.262 1.495z" fill="url(#t)"/><linearGradient id="u" gradientUnits="userSpaceOnUse" x1="-306.926" y1="358.495" x2="-276.605" y2="358.495" gradientTransform="matrix(1 .0699 0 1 437.576 89.087)"><stop offset="0" stop-color="#473b63"/><stop offset=".237" stop-color="#4c4069"/><stop offset=".546" stop-color="#5a5079"/><stop offset=".892" stop-color="#716994"/><stop offset=".995" stop-color="#79729d"/></linearGradient><path d="M141.345 418.378s6.333 7.07 12.364 11.28c1.599 1.116 2.923 2.014 3.982 2.769 2.935 2.093 3.84 3.098 2.954 4.659-.517.91-2.432.969-4.769.593-3.116-.502-6.984-1.778-9.29-2.841-1.784-.823-3.272-1.654-4.525-2.486-1.58-1.05-2.784-2.102-3.732-3.142-2.485-2.723-5.16-2.279-6.065-2.974-.54-.415-1.498-.625-1.605-1.962-.072-.903.243-2.319 1.337-4.659 1.232-2.636 3.273-3.133 5.134-2.89 2.238.292 4.215 1.653 4.215 1.653z" fill="url(#u)"/><linearGradient id="v" gradientUnits="userSpaceOnUse" x1="262.626" y1="240.451" x2="190.677" y2="438.732" gradientTransform="matrix(-1 0 0 1 346.655 0)"><stop offset="0" stop-color="#61315b"/><stop offset=".459" stop-color="#884e69"/><stop offset="1" stop-color="#bb747b"/></linearGradient><path d="M67.597 261.942l-.002-.003.144-.073c.017-.009 17.815-7.204 21.76-9.629a2.97 2.97 0 0 0 1.084-1.114c7.305 2.393 14.385 4.882 19.029 7.784 12.594 6.931 48.137 32.039 51.294 39.667.154.371.35 1.009.584 1.88.818 6.85-5.189 95.773-5.189 95.773s-1.32 1.262-4.325 1.051c-2.003-.14-2.586-1.329-2.586-1.329s-3.631-23.682-4.227-27.864c-.597-4.182-5.371-37.635-4.537-48.1.493-6.183.157-11.33-.2-14.514l-.099-.218s-36.711-17.281-49.28-23.998c16.234 14.257 29.157 26.844 35.461 33.932.805.905 1.285 1.648 1.361 2.188.191 1.353 1.262 5.747 2.883 12.02.762.165 7.898 66.373 10.595 88.982-.452.401.242.179-.384.536-2.541 1.449-6.03.619-7.113-.734a34411.05 34411.05 0 0 1-6.83-23.475c-.82-2.831-5.644-23.34-10.233-39.777-2.96-10.603-4.749-21.062-5.128-20.98-2.062-5.343-3.778-8.477-3.778-8.477l-2.73-1.577c-15.083-8.718-46.498-26.346-55.598-32.255.113-.178-4.896-3.947-5.873-8.987-.501-2.585-.712-5.462-.761-8.253 1.808-.65 22.646-11.4 24.678-12.456z" fill="url(#v)"/><linearGradient id="w" gradientUnits="userSpaceOnUse" x1="125.251" y1="287.427" x2="133.667" y2="287.427" gradientTransform="matrix(-1 0 0 1 346.655 0)"><stop offset=".075" stop-color="#993be5"/><stop offset=".295" stop-color="#9237e2"/><stop offset=".446" stop-color="#8a32df"/><stop offset=".731" stop-color="#852fdd"/></linearGradient><path d="M212.988 269.713c1.974 1.382 3.926 2.826 5.908 4.222l2.509 29.727c-1.383.495-2.764.987-4.143 1.478l-4.274-35.427z" fill="url(#w)"/><path d="M217.538 307.433l-.277-2.293 4.143-1.478 7.48 88.624-1.204-.781-9.659-80.07-7.44-3.901c1.411-.51 2.826-1.019 4.243-1.525l2.714 1.424z" fill="#c078ff"/><linearGradient id="x" gradientUnits="userSpaceOnUse" x1="131.831" y1="289.41" x2="149.83" y2="289.41" gradientTransform="matrix(-1 0 0 1 346.655 0)"><stop offset=".075" stop-color="#993be5"/><stop offset=".295" stop-color="#9237e2"/><stop offset=".446" stop-color="#8a32df"/><stop offset=".731" stop-color="#852fdd"/></linearGradient><path d="M207.259 266.044c1.765.993 3.477 2.109 5.168 3.279l-8.44 31.006 10.836 5.682a958.05 958.05 0 0 0-4.243 1.525l-7.486-3.925-2.035 7.476a264.762 264.762 0 0 0-4.235 1.691l10.435-46.734z" fill="url(#x)"/><path d="M201.06 311.086l-15.855 58.248-.902-.473 12.522-56.084c1.405-.574 2.816-1.14 4.235-1.691z" fill="#ae49ed"/><linearGradient id="y" gradientUnits="userSpaceOnUse" x1="264.327" y1="336.522" x2="275.964" y2="336.522" gradientTransform="matrix(-1 0 0 1 346.655 0)"><stop offset=".075" stop-color="#993be5"/><stop offset=".295" stop-color="#9237e2"/><stop offset=".446" stop-color="#8a32df"/><stop offset=".731" stop-color="#852fdd"/></linearGradient><path d="M75.86 342.552c-1.692-1.17-3.403-2.286-5.168-3.279l2.99-13.394 7.179 3.905 1.467 17.381c-1.982-1.396-3.934-2.84-5.908-4.222l-.205-1.697-.355 1.306z" fill="url(#y)"/><path d="M48.637 442.563l-.902-.473 22.956-102.818c1.765.993 3.477 2.109 5.168 3.279l-8.44 31.006 13.55 7.105-4.55-37.72c1.974 1.382 3.926 2.826 5.908 4.222l9.989 118.352-1.204-.781-9.659-80.07-14.926-7.826-17.89 65.724z" fill="#c078ff"/><linearGradient id="z" gradientUnits="userSpaceOnUse" x1="91.326" y1="291.803" x2="320.197" y2="291.803" gradientTransform="matrix(-1 0 0 1 346.655 0)"><stop offset=".032" stop-color="#812ddb"/><stop offset=".135" stop-color="#8a32df"/><stop offset=".411" stop-color="#9d3ee6"/><stop offset=".696" stop-color="#a845eb"/><stop offset="1" stop-color="#ac47ec"/></linearGradient><path fill="url(#z)" d="M175.411 230.307l79.918 42.121v2.182l-148.953 78.689-79.64-41.853-.278-2.679z"/><linearGradient id="A" gradientUnits="userSpaceOnUse" x1="91.326" y1="290.605" x2="320.197" y2="290.605" gradientTransform="matrix(-1 0 0 1 346.655 0)"><stop offset="0" stop-color="#d5adf3"/><stop offset="1" stop-color="#b479e3"/></linearGradient><path fill="url(#A)" d="M175.411 230.322l79.918 42.12-148.953 78.445-79.918-42.12z"/><linearGradient id="B" gradientUnits="userSpaceOnUse" x1="174.084" y1="288.014" x2="317.216" y2="293.223" gradientTransform="matrix(-1 0 0 1 346.655 0)"><stop offset="0" stop-color="#c9ccd3"/><stop offset="1" stop-color="#fff"/></linearGradient><path fill="url(#B)" d="M207.112 281.014l-68.159 34.428-112.495-6.675 79.757-42.094 36.645-3.783z"/><linearGradient id="C" gradientUnits="userSpaceOnUse" x1="39.723" y1="218.285" x2="94.428" y2="218.285"><stop offset=".056" stop-color="#473b63"/><stop offset=".221" stop-color="#473b63"/><stop offset=".355" stop-color="#4c4069"/><stop offset=".53" stop-color="#5a5079"/><stop offset=".715" stop-color="#706892"/><stop offset=".995" stop-color="#79729d"/></linearGradient><path d="M91.956 240.115c-1.784-7.628-3.389-16.411-1.393-26.961 2.944-15.563 4.118-40.212-4.296-50.3-1.085-1.301-4.77-3.468-6.597-3.975-.141-.039-.283-.064-.424-.097-5.223-1.236-10.586 1.347-14.478 2.895l-.286.114c-5.419 2.119-12.933 7.221-17.203 15.953-2.905 5.942-6.228 37.86-7.094 62.663-.407 11.648-.684 20.329-.215 27.325.335 5.001.94 7.916 2.936 9.271 2.059 1.398 6.102 1.352 10.472.542 4.949-.918 10.317-2.815 13.7-4.706 1.985-1.11 3.828-2.122 5.592-3.099 2.588-1.434 5.002-2.79 7.404-4.248a109.66 109.66 0 0 0 7.298-4.826c.979-.706 1.98-1.449 3.016-2.248 6.445-4.97 3.772-8.875 1.568-18.303z" fill="url(#C)"/><linearGradient id="D" gradientUnits="userSpaceOnUse" x1="269.73" y1="150.57" x2="272.741" y2="174.256" gradientTransform="matrix(-1 0 0 1 346.655 0)"><stop offset="0" stop-color="#db9969"/><stop offset=".241" stop-color="#dd9d69"/><stop offset=".467" stop-color="#e5a869"/><stop offset=".687" stop-color="#f1bb68"/><stop offset=".871" stop-color="#ffd168"/></linearGradient><path d="M83.759 154.161l-3.797 15.849s.941 5.189-2.526 5.236c-4.339.058-9.504-11.273-9.504-11.273l6.271-21.524 9.556 11.712z" fill="url(#D)"/><linearGradient id="E" gradientUnits="userSpaceOnUse" x1="245.275" y1="38.415" x2="259.754" y2="1.381" gradientTransform="matrix(-.9911 -.1168 -.0486 .9154 339.462 147.104)"><stop offset=".129" stop-color="#ffd168"/><stop offset=".452" stop-color="#eeb669"/><stop offset=".694" stop-color="#e4a769"/><stop offset=".75" stop-color="#df9f69"/><stop offset=".823" stop-color="#dc9a69"/><stop offset=".843" stop-color="#d59266"/><stop offset=".888" stop-color="#ca8761"/><stop offset=".935" stop-color="#c7835f"/></linearGradient><path d="M71.294 136.561c-.746 14.072 7.937 28.563 16.247 27.553 6.653-.808 16.378-16.454 17.124-30.526.746-14.072-4.702-19.289-14.422-20.434-9.718-1.145-18.203 9.335-18.949 23.407z" fill="url(#E)"/><linearGradient id="F" gradientUnits="userSpaceOnUse" x1="229.245" y1="-50.115" x2="277.945" y2="-77.601" gradientTransform="matrix(-.9808 -.2069 -.1377 .9905 315.442 246.1)"><stop offset="0" stop-color="#ce684e"/><stop offset=".125" stop-color="#c3614d"/><stop offset=".405" stop-color="#b0564b"/><stop offset=".693" stop-color="#a54f49"/><stop offset="1" stop-color="#a14d49"/></linearGradient><path d="M67.19 127.448c.039-2.948.199-5.153.741-7.608 1.208-5.472 1.989-8.39 4.238-11.448.254-.346.514-.674.777-.989 4.954 5.631 11.768 9.756 17.207 14.92-3.504.062-6.945 1.117-9.645 4.016-1.808 1.941-2.9 4.408-3.808 6.437-.535-.888-1.256-1.461-2.05-1.512-1.633-.104-2.948 2.032-2.937 4.771.011 2.739 1.344 5.044 2.977 5.148.067.004.131-.007.196-.01-1.046 3.056-1.41 4.413-2.465 7.39-.508-.651-3.036-4.788-3.857-7.428-.985-3.166-1.497-4.561-1.374-13.687z" fill="url(#F)"/><path d="M83.621 104.289c4.23.711 8.99 2.53 12.447 5.083 2.278 1.682 4.656 4.816 7.64 5.289 2.306.365 5.672-.303 4.52-3.192 5.343 3.337 4.549 12.768.663 17.061-2.864 3.163-7.716 2.649-11.521 2.263-3.355-.34-5.993-1.344-8.961-3.006-3.683-2.064-6.398-4.308-9.611-7.042-2.198-1.871-4.756-3.387-7.191-4.923-1.119-.706-2.804-.97-2.541-2.262 1.897-9.287 12.004-9.699 14.555-9.271z" fill="#823c3c"/><linearGradient id="G" gradientUnits="userSpaceOnUse" x1="234.634" y1="122.37" x2="272.612" y2="122.37" gradientTransform="matrix(-1 0 0 1 346.655 0)"><stop offset="0" stop-color="#ce684e"/><stop offset=".125" stop-color="#c3614d"/><stop offset=".405" stop-color="#b0564b"/><stop offset=".693" stop-color="#a54f49"/><stop offset="1" stop-color="#a14d49"/></linearGradient><path d="M98.482 121.82c5.936 1.979 11.316-2.14 11.951-8.163 2.774 4.22 1.692 11.311-1.533 14.873-2.864 3.163-7.716 2.649-11.521 2.263-3.355-.34-5.993-1.344-8.961-3.006-3.683-2.064-6.398-4.308-9.611-7.042-1.474-1.255-3.112-2.345-4.764-3.393 6.93-3.267 16.93 2.591 24.439 4.468z" fill="url(#G)"/><linearGradient id="H" gradientUnits="userSpaceOnUse" x1="91.326" y1="312.863" x2="240.279" y2="312.863" gradientTransform="matrix(-1 0 0 1 346.655 0)"><stop offset="0" stop-color="#cf9fff"/><stop offset="1" stop-color="#b479e3"/></linearGradient><path fill="url(#H)" d="M106.376 350.887v2.412l148.953-78.689v-2.182z"/><path d="M70.213 156.141l-5.277 5.201s-.458 2.763 6.662 12.863c4.835 6.858 10.419 3.626 10.862-1.754.443-5.379-1.097-8.287-1.097-8.287s-1.675 4.324-7.263 0c-3.84-2.97-3.887-8.023-3.887-8.023z" fill="#eef4f9"/><path d="M65.893 161.846c.07.228.54 2.861 2.038 5.275 1.498 2.414 4.771 5.75 5.803 6.5l1.032.751 3.169-5.588 3.687 4.222s.101-3.796 0-5.886l-.101-2.09s-.298 1.001-2.86.917c-2.561-.083-6.398-2.206-7.899-4.606-1.501-2.4-1.225-2.885-1.225-2.885l-3.644 3.39z" fill="#b3b7ba"/><path d="M65.509 160.401s.95 4.794 4.096 8.496c3.146 3.703 4.438 4.109 4.438 4.109l4.619-7.058s-2.099-.459-5.326-3.303c-3.226-2.844-3.124-6.504-3.124-6.504l-4.703 4.26zm16.114 2.675s-.335 1.686-1.112 2.279c-.777.593-1.848.592-1.848.592l2.96 7.058s.873-2.873.845-5.174-.845-4.755-.845-4.755z" fill="#fff"/><path d="M94.131 293.301l42.544 22.659s2.455 1.414 4.976.383 62.053-32.522 62.053-32.522 3.489-1.748-1.421-4.576c-4.91-2.828-41.143-22.247-41.143-22.247s-1.051-.566-3.115-.31c-1.468.182-3.448.779-5.927 2.291-5.966 3.638-57.951 29.629-57.951 29.629s-1.386.756-1.816 1.831c-.334.831-.095 1.853 1.8 2.862z" fill="#afacc6"/><linearGradient id="I" gradientUnits="userSpaceOnUse" x1="-30.114" y1="285.393" x2="-29.787" y2="285.393" gradientTransform="matrix(-1 0 0 1 346.655 0)"><stop offset=".134" stop-color="#dee0db"/><stop offset=".769" stop-color="#dddfe4"/></linearGradient><path d="M94.131 292.024l42.544 22.659s2.455 1.414 4.976.383 62.053-32.522 62.053-32.522 3.489-1.748-1.421-4.576c-4.91-2.828-41.143-22.247-41.143-22.247s-1.051-.566-3.115-.31c-1.468.182-3.448.779-5.927 2.291-5.966 3.638-57.951 29.629-57.951 29.629s-1.386.756-1.816 1.831c-.334.831-.095 1.853 1.8 2.862z" fill="url(#I)"/><path fill="#a7b2bc" d="M168.051 266.584l25.896 14.972-52.39 27.17-27.922-14.32z"/><path d="M141.279 273.791s-9.434 4.991-9.834 5.154c-.399.163-.789-.061-.789-.061l-6.742-3.591c-.3-.16-.338-.322-.285-.454.068-.17.288-.29.288-.29s8.238-4.119 9.184-4.695c.393-.24.707-.334.939-.363.327-.041.494.049.494.049s5.742 3.077 6.52 3.526.225.725.225.725z" fill="#c1cad3"/><linearGradient id="J" gradientUnits="userSpaceOnUse" x1="79.851" y1="224.239" x2="49.425" y2="238.632"><stop offset=".005" stop-color="#79729d"/><stop offset=".092" stop-color="#716994"/><stop offset=".386" stop-color="#5a5079"/><stop offset=".647" stop-color="#4c4069"/><stop offset=".849" stop-color="#473b63"/></linearGradient><path d="M92.274 248.937c-7.909-7.988-15.05-15.18-15.464-15.522-2.09-1.726-5.648-11.9-9-22.738-3.911-12.649-7.541-26.203-8.226-28.296-1.376-3.973-3.13-5.839-4.795-6.471-2.079-.789-5.735-1.322-7.135 1.093-2.695 4.648-2.978 7.984-3.505 11.699-.175 1.232-1.763 11.066 5.363 30.362a156.93 156.93 0 0 0 4.883 11.676c1.792 3.859 4.431 8.819 7.587 12.895 1.162 1.501 5.761 4.852 11.771 8.892 10.701 7.195 25.863 16.571 34.059 21.586.444-2.31 1.626-4.497 3.462-6.298-3.978-3.902-11.804-11.609-19-18.878z" fill="url(#J)"/><path d="M113.917 270.404s-.992-.968-2.644-2.589c-1.836 1.801-3.018 3.988-3.462 6.298 3.552 2.174 5.803 3.533 5.803 3.533l.303-7.242z" fill="#fff"/><linearGradient id="K" gradientUnits="userSpaceOnUse" x1="203.924" y1="-27.008" x2="235.527" y2="-27.008" gradientTransform="matrix(-.9448 -.3349 -.2676 .9635 326.982 380.878)"><stop offset=".129" stop-color="#ffd168"/><stop offset=".415" stop-color="#f0b969"/><stop offset=".618" stop-color="#e9ae69"/><stop offset=".674" stop-color="#e5a869"/><stop offset=".832" stop-color="#dd9d69"/><stop offset="1" stop-color="#db9969"/></linearGradient><path d="M122.141 271.703s3.19.997 6.461 2.373c2.706 1.139 6.495 2.713 7.548 4.021.658.817 2.164 2.515 3.448 4.092 1.284 1.577 2.347 3.032 2.12 3.361-.429.622-1.067.653-1.771.358-1.173-.492-2.527-1.889-3.402-2.966l-1.399-1.723s2.543 2.784 4.181 5.239c.307.46.583.909.803 1.326.313.592.517 1.118.545 1.521.081 1.168-.774 1.244-1.73.753-.845-.435-1.801-1.384-1.801-1.384s1.924 2.148 1.186 3.185c-.408.574-1.425.058-2.402-.665-1.141-.844-2.227-1.97-2.227-1.97s1.35 2.001-.492 2.348c-.287.054-.914-.345-1.698-.979a30.01 30.01 0 0 1-1.364-1.187c-2.295-2.102-4.97-4.975-4.97-4.975s-8.415-3.507-11.565-6.815c-3.15-3.308.304-7.215.304-7.215l8.225 1.302z" fill="url(#K)"/><linearGradient id="L" gradientUnits="userSpaceOnUse" x1="189.455" y1="189.385" x2="213.993" y2="189.385" gradientTransform="matrix(-1 -.0699 0 1 346.655 83.14)"><stop offset=".129" stop-color="#ffd168"/><stop offset=".205" stop-color="#faca68"/><stop offset=".515" stop-color="#eab169"/><stop offset=".704" stop-color="#e4a869"/><stop offset=".847" stop-color="#dd9d69"/><stop offset="1" stop-color="#db9969"/></linearGradient><path d="M132.849 247.68c.315-1.005 1.028-1.822 1.83-2.459.12-.095 1.07-.899 1.248-.8l7.558 4.221s2.761 2.078 5.469 4.526c2.24 2.025 4.444 4.303 5.017 5.865.715 1.95 1.889 4.304 2.806 6.072.705 1.359.479 1.784-.289 1.955-.825.184-2.109-.945-2.874-3.006l-.205-.552c.02.095.038.193.053.296.201.437.356.768.414.882.264.515.391 2.993.305 4.055-.085 1.061-.47 2.833-1.353 2.254-.371-.243-.567-.789-.671-1.34-.153.679-.671 2.542-1.733 2.538-1.537-.006-1.537-4.292-1.537-4.292s-1.793 4.493-3.32 3.207c-.885-.745-.275-1.786-.01-2.97.325-1.455.94-1.584.512-3.071-.271-.94-3.673-4.632-4.718-4.962 0 0 .277 3.531-.236 5.715-.168.716-.265 1.232-1.404.955-1.388-.338-1.194-1.934-1.252-2.658-.118-1.488-.213-2.342-.355-3.816-.157-1.628-.851-3.34-1.945-4.606-1.782-2.062-4.189-5.208-3.31-8.009z" fill="url(#L)"/><defs><filter id="M" filterUnits="userSpaceOnUse" x="112.343" y="230.307" width="92.562" height="81.267"><feFlood result="back" flood-color="#fff" flood-opacity="1"/><feBlend in="SourceGraphic" in2="back"/></filter></defs><mask maskUnits="userSpaceOnUse" x="112.343" y="230.307" width="92.562" height="81.267" id="N"><g filter="url(#M)"><radialGradient id="O" cx="157.335" cy="248.999" r="80.577" gradientTransform="matrix(-1 0 0 1 346.655 0)" gradientUnits="userSpaceOnUse"><stop offset=".005" stop-color="#666"/><stop offset=".995"/></radialGradient><path d="M204.905 251.122L103.945 119.84s-26.643 6.393-25.101 78.496c.922 43.109 26.553 93.466 26.553 93.466l34.624 19.772 64.884-60.452z" mask="url(#N)" fill="url(#O)"/></g></mask><radialGradient id="P" cx="153.187" cy="285.052" r="54.142" gradientTransform="matrix(-1 0 0 1 346.655 0)" gradientUnits="userSpaceOnUse"><stop offset=".005" stop-color="#fff"/><stop offset=".995" stop-color="#fff"/></radialGradient><path fill="url(#P)" d="M204.905 251.122l-29.494-20.815-63.068 33.16 11.572 11.827 16.107 36.281z"/><path d="M211.912 230.313l-5.469 47.891s-.228 2.824-2.507 4.315c-2.279 1.491-61.98 32.661-61.98 32.661s-3.418 1.882-2.962-3.766c.456-5.648 5.013-46.504 5.013-46.504s.13-1.186 1.511-2.741c.982-1.105 2.597-2.397 5.249-3.582 6.38-2.85 57.271-30.923 57.271-30.923s1.409-.713 2.538-.458c.874.198 1.58.974 1.336 3.107z" fill="#afacc6"/><linearGradient id="Q" gradientUnits="userSpaceOnUse" x1="136.807" y1="232.372" x2="207.656" y2="316.102" gradientTransform="matrix(-1 0 0 1 346.655 0)"><stop offset=".043" stop-color="#fff"/><stop offset=".409" stop-color="#eaecee"/><stop offset=".989" stop-color="#b3b5d3"/></linearGradient><path d="M212.939 230.474l-5.469 47.891s-.228 2.824-2.507 4.315c-2.279 1.491-61.98 32.661-61.98 32.661s-3.418 1.882-2.962-3.766c.456-5.648 5.013-46.504 5.013-46.504s.13-1.186 1.511-2.741c.982-1.106 2.597-2.397 5.249-3.582 6.38-2.85 57.271-30.923 57.271-30.923s1.409-.713 2.538-.458c.874.198 1.58.974 1.336 3.107z" fill="url(#Q)"/><ellipse transform="rotate(-82.831 177.773 260.231)" cx="177.764" cy="260.233" rx="3.653" ry="1.922" fill="#fff"/><linearGradient id="R" gradientUnits="userSpaceOnUse" x1="264.205" y1="314.511" x2="320.197" y2="314.511" gradientTransform="matrix(-1 0 0 1 346.655 0)"><stop offset="0" stop-color="#c9ccd3"/><stop offset=".78" stop-color="#fff"/></linearGradient><path fill="url(#R)" d="M82.45 315.218l-1.079 4.592-33.116.445-21.797-11.488 47.029 3.45z"/><linearGradient id="S" gradientUnits="userSpaceOnUse" x1="271.161" y1="304.186" x2="278.382" y2="304.186" gradientTransform="matrix(-1 0 0 1 346.655 0)"><stop offset=".107" stop-color="#e14f65"/><stop offset="1" stop-color="#e15066"/></linearGradient><path d="M73.938 311.691c.955 0 1.47-.522 1.555-.617l-1.246-1.406c.033-.026-.081.046-.292.047-.281 0-.771-.107-1.509-.632-1.676-1.194-3.1-6.594-2.064-9.323.217-.571.501-.91.869-1.037.715-.247 1.698.293 2.014.522l.971-1.654c-.185-.136-1.854-1.316-3.492-.763-.614.207-1.457.75-1.992 2.159-1.387 3.656.451 10.132 2.743 11.764 1.006.715 1.819.94 2.443.94z" fill="url(#S)"/><linearGradient id="T" gradientUnits="userSpaceOnUse" x1="255.961" y1="306.101" x2="274.607" y2="306.101" gradientTransform="matrix(-1 0 0 1 346.655 0)"><stop offset=".107" stop-color="#e14f65"/><stop offset=".285" stop-color="#e45875"/><stop offset=".5" stop-color="#f86c8e"/><stop offset="1" stop-color="#e15066"/></linearGradient><path d="M90.694 292.392l-2.352 23.894c0 1.946-3.121 3.524-6.971 3.524s-6.971-1.578-6.971-3.524l-2.352-23.894h18.646z" fill="url(#T)"/><linearGradient id="U" gradientUnits="userSpaceOnUse" x1="255.961" y1="292.392" x2="274.607" y2="292.392" gradientTransform="matrix(-1 0 0 1 346.655 0)"><stop offset="0" stop-color="#f86c8e"/><stop offset=".344" stop-color="#f589ab"/><stop offset=".597" stop-color="#f48db0"/><stop offset="1" stop-color="#ec7491"/></linearGradient><ellipse cx="81.371" cy="292.392" rx="9.323" ry="4.877" fill="url(#U)"/><path d="M88.992 295.356c-1.704 1.161-4.377 1.913-7.392 1.913-3.302 0-6.195-.9-7.852-2.255 1.152-1.532 4.075-2.623 7.51-2.623 3.686.001 6.785 1.256 7.734 2.965z" fill="#a55e83"/></svg>