<svg xmlns="http://www.w3.org/2000/svg" viewBox="0 0 90 104"><linearGradient id="a" gradientUnits="userSpaceOnUse" x1="17.699" y1="87.467" x2="47.882" y2="70.041"><stop offset=".005" stop-color="#79729d"/><stop offset=".092" stop-color="#716994"/><stop offset=".386" stop-color="#5a5079"/><stop offset=".647" stop-color="#4c4069"/><stop offset=".849" stop-color="#473b63"/></linearGradient><path d="M40.357 57.011c-1.404.453-3.812 1.533-3.833 1.612-2.812.022-6.066.026-8.178 2.017-5.593 5.273-7.743 12.88-8.648 22.552 2.569 3.284 5.864 6.034 9.536 8.334l-.001.004c.05.032.104.059.154.091.308.191.613.385.926.57l.004-.024c2.652 1.569 5.479 2.903 8.352 4.055-.842-13.071.718-26.141 1.688-39.211z" fill="url(#a)"/><linearGradient id="b" gradientUnits="userSpaceOnUse" x1="26.812" y1="85.794" x2="66.242" y2="63.029"><stop offset=".043" stop-color="#fff"/><stop offset=".409" stop-color="#eaecee"/><stop offset="1" stop-color="#dfe1e9"/></linearGradient><path d="M58.099 55.717c-4.484-2.56-9.666-1-9.666-1s-4.282 1.07-8.077 2.294c-.97 13.07-2.53 26.14-1.689 39.209a77.058 77.058 0 0 0 3.883 1.451c3.812-14.257 11.431-27.549 22.061-37.461-2.368-1.83-4.649-3.429-6.512-4.493z" fill="url(#b)"/><linearGradient id="c" gradientUnits="userSpaceOnUse" x1="38.156" y1="100.921" x2="80.524" y2="76.46"><stop offset=".005" stop-color="#79729d"/><stop offset=".092" stop-color="#716994"/><stop offset=".386" stop-color="#5a5079"/><stop offset=".647" stop-color="#4c4069"/><stop offset=".849" stop-color="#473b63"/></linearGradient><path d="M79.207 74.188c-1.854-3.028-8.524-9.287-14.596-13.977-10.63 9.912-18.249 23.203-22.061 37.461a88.25 88.25 0 0 0 7.56 2.189c.361.088.732.171 1.101.255l.004.001.573.133v-.004c5.537 1.27 11.604 2.285 17.76 2.706a5.203 5.203 0 0 1 1.819-.498c2.658-.229 5.37-.194 8.079.065 1.193-13.469 1.677-25.202-.239-28.331z" fill="url(#c)"/><linearGradient id="d" gradientUnits="userSpaceOnUse" x1="64.742" y1="88.076" x2="91.572" y2="84.034"><stop offset=".005" stop-color="#79729d"/><stop offset=".092" stop-color="#716994"/><stop offset=".386" stop-color="#5a5079"/><stop offset=".647" stop-color="#4c4069"/><stop offset=".849" stop-color="#473b63"/></linearGradient><path d="M69.701 102.884c.296-.13 1.194.867 4.365 1.079 1.119.075 3.606.076 6.196-.379 2.591-.455 5.285-1.367 6.818-3.119l-1.134-10.169c-.771-11.86-5.903-18.641-11.129-20.883-5.226-2.242-9.942 5.628-8.961 13.769.564 4.687 1.871 11.932 3.845 19.702z" fill="url(#d)"/><linearGradient id="e" gradientUnits="userSpaceOnUse" x1="450.007" y1="-5.005" x2="452.567" y2="15.139" gradientTransform="rotate(5.883 -266.575 -3860.687)"><stop offset=".003" stop-color="#e4a769"/><stop offset=".374" stop-color="#eeb672"/><stop offset=".871" stop-color="#ffd182"/></linearGradient><path d="M43.81 43.88l2.216 16.627s-2.068 2.963-1.573 5.467c.348 1.762 2.359 3.053 2.359 3.053s4.95-1.724 6.848-4.062c2.024-2.494 4.457-7.811 4.457-7.811l-.168-15.744-14.139 2.47z" fill="url(#e)"/><linearGradient id="f" gradientUnits="userSpaceOnUse" x1="38.184" y1="92.667" x2="44.295" y2="92.667"><stop offset=".043" stop-color="#fff"/><stop offset=".764" stop-color="#eaecee"/></linearGradient><path d="M42.828 97.772c.744-5.248 1.453-9.975 1.467-10.064l-.969-.146c-.014.088-.707 4.707-1.442 9.886.314.11.629.219.944.324z" fill="url(#f)"/><path d="M45.611 57.398s-2.509.379-3.06 1.424c-.84 1.591-1.382 5.046-1.123 7.178.323 2.654.455 4.228.455 4.228l2.411-2.924 3.423-4.216 1.701 8.657s3.389-1.308 5.503-4.005c2.114-2.696 3.195-5.113 3.195-5.113s2.451-4.322 2.101-5.595c-.35-1.274-2.147-4.159-2.147-4.159s-4.623 9.208-8.653 9.208c-4.029-.001-3.806-4.683-3.806-4.683z" fill="#fff"/><linearGradient id="g" gradientUnits="userSpaceOnUse" x1="37.185" y1="80.351" x2="48.938" y2="80.351"><stop offset="0" stop-color="#7124d3"/><stop offset="1" stop-color="#8360ef"/></linearGradient><path fill="url(#g)" d="M44.999 71.382l-1.189-3.491 4.033-5.117 1.095 6.868-2.126 2.103-3.492 26.183-6.135-2.322z"/><linearGradient id="h" gradientUnits="userSpaceOnUse" x1="41.02" y1="78.477" x2="69.414" y2="78.477"><stop offset=".005" stop-color="#79729d"/><stop offset=".049" stop-color="#77709b"/><stop offset=".696" stop-color="#5d547d"/></linearGradient><path d="M62.687 58.349S51.761 71.483 48.938 78.583c-2.823 7.1-7.917 18.541-7.917 18.541l4.447 1.48 6.386-7.519-1.046-4.955 4.735-2.717s3.256-8.825 7.144-12.486c3.888-3.661 6.727-6.788 6.727-6.788l-6.727-5.79z" fill="url(#h)"/><linearGradient id="i" gradientUnits="userSpaceOnUse" x1="32.253" y1="76.342" x2="42.116" y2="76.342"><stop offset=".005" stop-color="#79729d"/><stop offset=".049" stop-color="#77709b"/><stop offset=".696" stop-color="#5d547d"/></linearGradient><path d="M36.523 58.623s-3.097 8.189-3.684 11.113l-.586 2.924v2.1l4.27 5.427-3.684.512 1.549 13.641 4.547 1.882s-1.328-14.538.098-22.581c1.426-8.042 3.082-17.176 3.082-17.176l-5.592 2.158z" fill="url(#i)"/><linearGradient id="j" gradientUnits="userSpaceOnUse" x1="1705.033" y1="-344.257" x2="1719.934" y2="-382.373" gradientTransform="matrix(.9907 .1205 -.1689 .901 -1712.127 150.833)"><stop offset=".129" stop-color="#ffd182"/><stop offset=".626" stop-color="#eeb672"/><stop offset=".997" stop-color="#e4a769"/></linearGradient><path d="M62.552 34.691c-2.673 14.255-14.878 26.638-22.944 23.61-6.458-2.425-12.383-20.435-9.71-34.691C32.571 9.354 39.287 5.46 49.286 6.677s15.939 13.759 13.266 28.014z" fill="url(#j)"/><path d="M68.649 26.567c.671-2.958 1.044-5.203 1.098-7.789.122-5.766-.666-7.213-2.155-10.817-.168-.407-1.664-1.12-1.849-1.499-6.26 4.43-11.965 5.562-18.593 9.407 3.454.912 6.606 2.802 8.581 6.357 1.322 2.38 1.809 5.113 2.219 7.362.743-.758 1.595-1.157 2.394-1.015 1.642.292 2.429 2.748 1.759 5.485-.671 2.737-2.545 4.719-4.187 4.427-.067-.012-.128-.038-.192-.058.299 3.311.333 4.755.661 7.99.66-.529 8.188-10.693 10.264-19.85z" fill="#995c4f"/><path d="M57.665.21c-4.71-.641-9.073.348-13.745.808-1.295.127-5.693.503-9.603 2.162-2.597 1.101-4.977 2.768-6.09 5.304-.686 1.565-1.422 3.649-1.52 5.338-.061 1.063-.18 4.004.747 4.653.654-1.155 2.257-2.19 3.56-1.62-.325 1.178-1.226 5.314-.103 6.179.552.425 4.246-1.795 5.576-1.871 3.42-.195 6.674-.013 10.059-.731 3.974-.843 7.111-2.129 10.844-3.722 2.554-1.091 5.338-1.752 8.015-2.467 1.23-.328 2.854-.09 2.981-1.351C69.3 3.815 60.131.545 57.665.21z" fill="#915544"/><linearGradient id="k" gradientUnits="userSpaceOnUse" x1="1501.193" y1="-319.644" x2="1535.285" y2="-319.644" gradientTransform="rotate(17.292 -338.3 -5000.621)"><stop offset="0" stop-color="#bb7047"/><stop offset="1" stop-color="#915544"/></linearGradient><path d="M38.997 12.068c-1.959-.111-3.149-1.244-5.197-1.315-1.591-.055-2.773.365-4.099 1.234-3.041 1.991-4.601 6.794-2.372 10.026.263-.894.777-1.746 1.203-2.572-.02 3.527-.107 6.89 2.132 9.883.502-.882.878-1.964 1.388-2.921.801-1.502 1.904-2.403 3.369-3.364 1.787-1.172 3.375-.667 5.329-.966 1.99-.305 3.811-1.224 5.787-1.643 3.974-.843 7.111-2.128 10.844-3.722 1.713-.731 3.53-1.265 5.347-1.756-5.432-4.984-16.295-2.461-23.731-2.884z" fill="url(#k)"/><path d="M42.113 27.585c-.013 2.223 1.367 2.558 3.78 3 1.205.221 2.4.547 3.448 1.103.71.377 1.309 1.183 2.202 1.16.384-2.568-5.647-5.936-8.268-5.533-.034.097.005.179-.031.276-.373-.112-.721-.314-1.118-.37a6.624 6.624 0 0 0-.013.364zm-4.211-.997c-.049.147-.023.365-.094.535.201-.056.5.073.703.022.093 2.472-3.313 1.541-4.372 1.422-1.073-.12-1.825.387-2.795.711-.697.233-1.533.808-2.209.839.328-1.277 2.921-2.851 3.949-3.311.865-.387 1.609-.528 2.481-.437.237.025 2.253.476 2.337.219z" fill="#915544"/><path d="M35.913 46.131s.125 4.56 3.699 5.379 4.514-4.795 4.514-4.795-2.257.76-4.64.526c-2.382-.233-3.573-1.11-3.573-1.11z" fill="#fff"/><path d="M43.029 36.251s.987-2.215 3.048-1.734c2.061.481 2.442 3.404 2.442 3.404s-1.043-1.791-2.687-2.124c-1.643-.332-2.803.454-2.803.454zm-11.652-.592s.589-2.374 2.699-2.32c2.111.053 2.99 2.844 2.99 2.844s-1.335-1.545-3.009-1.538c-1.675.007-2.68 1.014-2.68 1.014z" fill="#915544"/><path d="M32.846 89.12c0-8.164-6.618-17.867-14.781-21.674-2.978-1.389-5.75-1.8-8.07-1.366-1.095.205-5.266 2.161-5.381 2.237a7.38 7.38 0 0 0-.673.505c-.036.031-.074.06-.11.092-1.829 1.607-2.912 4.15-2.912 7.451 0 8.164 6.618 17.867 14.781 21.674 3.277 1.528 6.235 1.518 8.754 1.208 1.3-.16 5.218-2.247 6.251-3.465a8.119 8.119 0 0 0 1.119-1.732c.66-1.365 1.022-3.021 1.022-4.93z" fill="#fc9f3a"/><path d="M24.462 99.243c1.3-.16 5.218-2.247 6.251-3.465a8.119 8.119 0 0 0 1.119-1.732c.037-.077.07-.158.105-.236l-7.026 4.448-.759-1.104 8.43-5.338c.143-.669.229-1.384.258-2.14l-9.635 6.101-.759-1.104 10.371-6.567a17.489 17.489 0 0 0-.219-1.838l-11.1 7.028-.759-1.104 11.565-7.323c-.138-.556-.3-1.113-.485-1.669l-12.027 7.615-.759-1.104 12.316-7.798a25.588 25.588 0 0 0-.678-1.548l-12.585 7.968-.759-1.104 12.733-8.062a27.63 27.63 0 0 0-.838-1.446L16.38 85.855l-.759-1.104 12.872-8.15a29.312 29.312 0 0 0-.984-1.353l-12.835 8.127-.759-1.104 12.745-8.07a29.384 29.384 0 0 0-1.131-1.261l-12.562 7.954-.759-1.104 12.354-7.822c-.42-.401-.851-.788-1.291-1.159l-12.009 7.604-.759-1.104 11.659-7.382a24.586 24.586 0 0 0-1.485-1.037L9.555 75.931l-.759-1.104 10.596-6.709c-.435-.242-.875-.47-1.32-.677-.147-.069-.291-.124-.436-.187L7.849 73.45l-.759-1.103 8.993-5.694a15.102 15.102 0 0 0-2.23-.565l-7.71 4.882-.759-1.104 6.232-3.946a9.889 9.889 0 0 0-1.613.156c-.9.168-3.878 1.52-4.973 2.038l-.593.375-.017-.025c-.16.114-.322.227-.472.354-.036.031-.074.06-.11.092C2.009 70.517.926 73.06.926 76.361c0 2.254.506 4.624 1.408 6.956 2.756 3.736 5.95 8.044 8.761 11.83 1.452 1.154 3.001 2.137 4.612 2.889 3.278 1.528 6.235 1.518 8.755 1.207z" fill="#ffbb4d"/><path d="M15.701 68.477C7.537 64.671.92 68.203.92 76.366c0 4.514 2.026 9.498 5.215 13.696 4.548-6.347 9.104-12.708 14.1-18.76-1.429-1.126-2.952-2.087-4.534-2.825z" fill="#ffe266"/><path d="M20.235 71.303c-4.996 6.052-9.552 12.413-14.1 18.76 2.129 2.803 4.778 5.255 7.691 6.983 4.137-6.192 8.623-12.175 13.045-18.256-1.749-2.833-4.036-5.437-6.636-7.487z" fill="#ffd44a"/><path d="M13.826 97.045c.614.364 1.24.699 1.875.995 8.164 3.807 14.781.275 14.781-7.889 0-3.702-1.362-7.721-3.611-11.362-4.422 6.082-8.908 12.064-13.045 18.256z" fill="#ffc44d"/><path d="M16.883 95.856C9.536 92.459 3.581 83.799 3.581 76.513c0-3.2 1.149-5.602 3.06-7.002-2.528 1.232-4.105 3.882-4.105 7.627 0 7.286 5.956 15.946 13.302 19.344 4.12 1.905 7.802 1.75 10.242-.038-2.389 1.164-5.627 1.063-9.197-.588z" fill="#ffbb4d"/><path d="M20.841 86.865c-.594-.993-1.622-2.2-3.138-3.685v-5.072c.997.596 1.812 1.291 2.429 2.069l.655.827v-2.9l-.188-.217c-.584-.671-1.533-1.371-2.895-2.135v-1.939l-2.001-1.02v2.027c-1.085-.345-2.005-.329-2.74.048-.825.424-1.243 1.228-1.243 2.389 0 .976.277 1.977.822 2.976.515.942 1.549 2.174 3.16 3.759v4.907c-.5-.295-1.035-.682-1.597-1.153-.709-.595-1.27-1.17-1.668-1.708l-.673-.91v3.008l.193.218c.982 1.11 2.24 2.085 3.744 2.902v2.29l2.001 1.02V92.13c1.208.38 2.181.406 2.897.077.804-.37 1.211-1.138 1.211-2.282 0-.956-.326-1.985-.969-3.06zm-1.76 1.823c0 .567-.154 1.255-1.378 1.038v-3.693c.915 1.066 1.378 1.957 1.378 2.655zm-4.633-10.27c0-.498.149-.832.455-1.021.214-.132.477-.178.799-.139v3.843c-.402-.462-.697-.864-.881-1.201a3.034 3.034 0 0 1-.373-1.482z" fill="#fc9f3a"/></svg>