<svg xmlns="http://www.w3.org/2000/svg" viewBox="0 0 90 104"><linearGradient id="a" gradientUnits="userSpaceOnUse" x1="19.306" y1="88.695" x2="49.509" y2="71.257"><stop offset=".005" stop-color="#79729d"/><stop offset=".092" stop-color="#716994"/><stop offset=".386" stop-color="#5a5079"/><stop offset=".647" stop-color="#4c4069"/><stop offset=".849" stop-color="#473b63"/></linearGradient><path d="M41.979 58.219c-1.405.453-3.814 1.533-3.836 1.613-2.814.022-6.07.026-8.183 2.018-5.596 5.277-7.748 12.888-8.654 22.566 2.571 3.286 5.868 6.038 9.542 8.339l-.001.004c.05.031.104.059.154.091.308.191.613.385.926.57l.004-.024c2.654 1.57 5.483 2.904 8.357 4.058-.841-13.078.72-26.157 1.691-39.235z" fill="url(#a)"/><linearGradient id="b" gradientUnits="userSpaceOnUse" x1="28.426" y1="87.021" x2="67.881" y2="64.242"><stop offset=".043" stop-color="#fff"/><stop offset=".409" stop-color="#eaecee"/><stop offset="1" stop-color="#dfe1e9"/></linearGradient><path d="M59.733 56.925c-4.486-2.561-9.672-1-9.672-1s-4.285 1.07-8.082 2.295c-.971 13.078-2.532 26.156-1.69 39.234 1.29.518 2.586 1.01 3.886 1.452C47.989 84.64 55.613 71.339 66.25 61.421c-2.371-1.832-4.653-3.432-6.517-4.496z" fill="url(#b)"/><linearGradient id="c" gradientUnits="userSpaceOnUse" x1="39.777" y1="102.157" x2="82.171" y2="77.681"><stop offset=".005" stop-color="#79729d"/><stop offset=".092" stop-color="#716994"/><stop offset=".386" stop-color="#5a5079"/><stop offset=".647" stop-color="#4c4069"/><stop offset=".849" stop-color="#473b63"/></linearGradient><path d="M80.854 75.407c-1.855-3.03-8.53-9.293-14.605-13.986-10.637 9.918-18.261 23.218-22.075 37.485a88.36 88.36 0 0 0 7.565 2.19c.361.088.733.171 1.102.255l.004.001.574.133v-.004c5.541 1.271 11.612 2.286 17.771 2.708a5.208 5.208 0 0 1 1.82-.498c2.66-.229 5.373-.194 8.084.065 1.193-13.477 1.677-25.218-.24-28.349z" fill="url(#c)"/><linearGradient id="d" gradientUnits="userSpaceOnUse" x1="66.379" y1="89.304" x2="93.227" y2="85.259"><stop offset=".005" stop-color="#79729d"/><stop offset=".092" stop-color="#716994"/><stop offset=".386" stop-color="#5a5079"/><stop offset=".647" stop-color="#4c4069"/><stop offset=".849" stop-color="#473b63"/></linearGradient><path d="M71.342 104.121c.296-.131 1.195.868 4.368 1.08 1.12.075 3.608.076 6.2-.379 2.592-.456 5.288-1.368 6.823-3.121l-1.135-10.175c-.772-11.868-5.908-18.653-11.137-20.896-5.229-2.243-9.948 5.631-8.967 13.778.565 4.689 1.872 11.938 3.848 19.713z" fill="url(#d)"/><linearGradient id="e" gradientUnits="userSpaceOnUse" x1="451.75" y1="-3.976" x2="454.313" y2="16.182" gradientTransform="rotate(5.883 -266.575 -3860.687)"><stop offset=".003" stop-color="#e4a769"/><stop offset=".374" stop-color="#eeb672"/><stop offset=".871" stop-color="#ffd182"/></linearGradient><path d="M45.434 45.08l2.217 16.637s-2.069 2.965-1.574 5.47c.348 1.763 2.361 3.055 2.361 3.055s4.953-1.725 6.852-4.065c2.025-2.496 4.46-7.816 4.46-7.816l-.167-15.753-14.149 2.472z" fill="url(#e)"/><linearGradient id="f" gradientUnits="userSpaceOnUse" x1="39.804" y1="93.898" x2="45.919" y2="93.898"><stop offset=".043" stop-color="#fff"/><stop offset=".764" stop-color="#eaecee"/></linearGradient><path d="M44.452 99.006c.745-5.251 1.454-9.982 1.468-10.071l-.97-.146c-.014.088-.707 4.71-1.443 9.892.314.111.63.22.945.325z" fill="url(#f)"/><path d="M47.237 58.606s-2.51.38-3.062 1.425c-.841 1.592-1.383 5.049-1.124 7.183.323 2.656.455 4.231.455 4.231l2.413-2.926 3.425-4.219 1.702 8.662s3.391-1.309 5.507-4.007c2.116-2.698 3.197-5.116 3.197-5.116s2.452-4.324 2.102-5.599c-.35-1.275-2.148-4.162-2.148-4.162s-4.626 9.214-8.658 9.214-3.809-4.686-3.809-4.686z" fill="#fff"/><linearGradient id="g" gradientUnits="userSpaceOnUse" x1="38.805" y1="81.574" x2="50.565" y2="81.574"><stop offset="0" stop-color="#7124d3"/><stop offset="1" stop-color="#8360ef"/></linearGradient><path fill="url(#g)" d="M46.624 72.6l-1.19-3.493 4.035-5.121 1.096 6.872-2.127 2.104-3.494 26.2-6.139-2.323z"/><linearGradient id="h" gradientUnits="userSpaceOnUse" x1="42.643" y1="79.699" x2="71.055" y2="79.699"><stop offset=".005" stop-color="#79729d"/><stop offset=".049" stop-color="#77709b"/><stop offset=".696" stop-color="#5d547d"/></linearGradient><path d="M64.323 59.558S53.39 72.701 50.565 79.805c-2.825 7.104-7.922 18.553-7.922 18.553l4.45 1.481 6.39-7.524-1.047-4.958 4.738-2.718s3.258-8.831 7.148-12.494 6.732-6.793 6.732-6.793l-6.731-5.794z" fill="url(#h)"/><linearGradient id="i" gradientUnits="userSpaceOnUse" x1="33.87" y1="77.563" x2="43.739" y2="77.563"><stop offset=".005" stop-color="#79729d"/><stop offset=".049" stop-color="#77709b"/><stop offset=".696" stop-color="#5d547d"/></linearGradient><path d="M38.143 59.832s-3.099 8.194-3.686 11.12l-.587 2.926v2.101l4.273 5.43-3.686.512 1.55 13.65 4.55 1.883s-1.329-14.547.098-22.595c1.427-8.047 3.084-17.187 3.084-17.187l-5.596 2.16z" fill="url(#i)"/><linearGradient id="j" gradientUnits="userSpaceOnUse" x1="1706.277" y1="-343.548" x2="1721.188" y2="-381.687" gradientTransform="matrix(.9907 .1205 -.1689 .901 -1712.127 150.833)"><stop offset=".129" stop-color="#ffd182"/><stop offset=".626" stop-color="#eeb672"/><stop offset=".997" stop-color="#e4a769"/></linearGradient><path d="M63.682 35.473c-2.674 14.264-14.888 26.655-22.958 23.625-6.462-2.427-12.391-20.448-9.716-34.713 2.674-14.265 9.395-18.161 19.4-16.944 10.006 1.217 15.949 13.768 13.274 28.032z" fill="url(#j)"/><path d="M69.783 27.344c.671-2.96 1.045-5.206 1.099-7.794.122-5.77-.666-7.218-2.156-10.824-.168-.408-1.665-1.12-1.851-1.5-6.264 4.433-11.973 5.565-18.605 9.413 3.456.913 6.61 2.804 8.587 6.361 1.323 2.381 1.81 5.116 2.221 7.367.744-.759 1.596-1.158 2.395-1.016 1.643.292 2.431 2.749 1.76 5.488-.671 2.739-2.547 4.722-4.19 4.429-.067-.012-.128-.038-.192-.058.299 3.313.333 4.758.661 7.995.66-.527 8.193-10.698 10.271-19.861z" fill="#995c4f"/><path d="M58.792.97c-4.713-.641-9.078.349-13.754.808-1.295.127-5.697.504-9.609 2.163-2.598 1.102-4.981 2.77-6.094 5.307-.687 1.566-1.423 3.651-1.521 5.342-.062 1.064-.18 4.007.747 4.656.654-1.156 2.259-2.191 3.562-1.621-.325 1.179-1.227 5.318-.103 6.183.553.426 4.249-1.796 5.58-1.872 3.422-.195 6.678-.013 10.065-.731 3.977-.844 7.116-2.13 10.851-3.725 2.556-1.091 5.342-1.753 8.02-2.468 1.231-.329 2.856-.09 2.983-1.352C70.434 4.577 61.26 1.306 58.792.97zM42.841 29.333c.423 2.184 1.842 2.242 4.297 2.203 1.225-.02 2.462.067 3.6.407.771.23 1.516.904 2.388.706-.127-2.595-6.704-4.718-9.197-3.81-.015.102.04.174.023.277-.388-.037-.769-.166-1.169-.144.017.127.036.247.058.361zm-3.562-1.223c-.074.136-.088.355-.188.51.208-.019.479.162.688.147-.349 2.451-3.537.926-4.559.62-1.035-.309-1.866.055-2.878.202-.728.105-1.653.522-2.324.432.55-1.199 3.385-2.286 4.479-2.556.921-.227 1.679-.233 2.521.013.228.066 2.132.87 2.261.632z" fill="#915544"/><path d="M37.374 49.828s.433-2.131 3.224-2.043c2.791.088 3.141 3.483 3.141 3.483s-1.312-2.222-3.161-2.378c-1.848-.155-3.204.938-3.204.938z" fill="#fff"/><path d="M43.552 35.854s.701 1.543 2.782 1.651c2.081.107 2.808-1.602 2.808-1.602s-1.24.89-2.894.773c-1.653-.117-2.696-.822-2.696-.822zM32.043 33.95s.291 1.562 2.369 1.94c2.078.378 3.278-1.153 3.278-1.153s-1.497.683-3.14.353c-1.642-.33-2.507-1.14-2.507-1.14z" fill="#915544"/><linearGradient id="k" gradientUnits="userSpaceOnUse" x1="1502.479" y1="-319.238" x2="1536.593" y2="-319.238" gradientTransform="rotate(17.292 -338.3 -5000.621)"><stop offset="0" stop-color="#bb7047"/><stop offset="1" stop-color="#915544"/></linearGradient><path d="M40.112 12.836c-1.96-.111-3.151-1.245-5.2-1.316-1.592-.055-2.774.365-4.102 1.234-3.043 1.993-4.604 6.799-2.374 10.032.263-.895.777-1.747 1.204-2.574-.02 3.529-.107 6.894 2.134 9.889.503-.882.878-1.965 1.389-2.923.801-1.502 1.905-2.404 3.371-3.366 1.788-1.173 3.377-.667 5.332-.967 1.991-.305 3.813-1.225 5.791-1.644 3.976-.844 7.116-2.13 10.851-3.725 1.714-.732 3.532-1.266 5.351-1.757-5.436-4.985-16.306-2.46-23.747-2.883z" fill="url(#k)"/><path d="M34.464 90.429c0-8.169-6.622-17.879-14.791-21.688-2.98-1.39-5.753-1.801-8.075-1.367-1.096.205-5.27 2.163-5.384 2.239a7.36 7.36 0 0 0-.674.506c-.037.031-.074.06-.11.092-1.83 1.608-2.914 4.153-2.914 7.456 0 8.169 6.622 17.879 14.791 21.688 3.279 1.529 6.238 1.519 8.759 1.209 1.3-.16 5.221-2.249 6.255-3.467.434-.512.81-1.09 1.119-1.733.661-1.369 1.024-3.025 1.024-4.935z" fill="#fc9f3a"/><path d="M26.074 100.558c1.3-.16 5.221-2.249 6.255-3.467.434-.512.81-1.09 1.119-1.733.037-.077.07-.158.105-.236l-7.03 4.451-.76-1.104 8.436-5.341c.143-.669.229-1.385.258-2.141l-9.642 6.105-.76-1.104 10.378-6.571a17.507 17.507 0 0 0-.219-1.839L23.107 94.61l-.76-1.105 11.573-7.327c-.138-.556-.3-1.114-.486-1.67L21.4 92.128l-.76-1.104 12.324-7.803a25.315 25.315 0 0 0-.678-1.548l-12.593 7.973-.76-1.104 12.741-8.067a28.406 28.406 0 0 0-.839-1.447l-12.85 8.136-.76-1.105 12.88-8.155c-.315-.46-.643-.911-.985-1.354l-12.843 8.132-.76-1.104 12.753-8.075a28.82 28.82 0 0 0-1.131-1.262L14.569 82.2l-.76-1.104 12.362-7.827a28.23 28.23 0 0 0-1.292-1.16l-12.017 7.609-.76-1.105 11.667-7.387a24.606 24.606 0 0 0-1.486-1.037l-11.129 7.046-.76-1.104 10.603-6.713c-.435-.242-.875-.47-1.321-.678-.147-.068-.291-.124-.437-.187l-9.793 6.2-.76-1.104 8.998-5.697a14.99 14.99 0 0 0-2.231-.565l-7.715 4.885-.76-1.105 6.236-3.948a9.89 9.89 0 0 0-1.614.156c-.901.168-3.88 1.521-4.976 2.039l-.593.375-.017-.024c-.16.115-.322.227-.472.354-.037.031-.074.06-.11.092-1.83 1.608-2.914 4.153-2.914 7.456 0 2.255.507 4.627 1.409 6.96 2.758 3.738 5.953 8.049 8.766 11.837 1.453 1.154 3.003 2.139 4.615 2.891 3.286 1.524 6.245 1.513 8.766 1.203z" fill="#ffbb4d"/><path d="M17.308 69.773c-8.169-3.809-14.791-.275-14.791 7.894 0 4.517 2.027 9.504 5.219 13.705 4.551-6.351 9.11-12.716 14.109-18.772-1.431-1.127-2.954-2.089-4.537-2.827z" fill="#ffe266"/><path d="M21.844 72.6c-4.999 6.056-9.558 12.421-14.109 18.772 2.131 2.805 4.781 5.258 7.696 6.987 4.139-6.196 8.628-12.182 13.054-18.268-1.751-2.834-4.038-5.44-6.641-7.491z" fill="#ffd44a"/><path d="M15.431 98.358c.615.365 1.24.699 1.876.996 8.169 3.809 14.791.275 14.791-7.894 0-3.705-1.362-7.726-3.613-11.37-4.425 6.086-8.915 12.072-13.054 18.268z" fill="#ffc44d"/><path d="M18.49 97.169c-7.351-3.4-13.31-12.065-13.31-19.356 0-3.202 1.15-5.605 3.062-7.007-2.529 1.233-4.107 3.884-4.107 7.632 0 7.29 5.959 15.956 13.311 19.356 4.123 1.906 7.807 1.751 10.248-.038-2.391 1.165-5.632 1.065-9.204-.587z" fill="#ffbb4d"/><path d="M22.45 88.172c-.595-.993-1.623-2.201-3.14-3.688v-5.075c.997.597 1.814 1.292 2.431 2.071l.655.827v-2.902l-.189-.217c-.584-.671-1.534-1.372-2.897-2.137v-1.94l-2.002-1.02v2.028c-1.086-.345-2.007-.329-2.742.048-.825.424-1.244 1.228-1.244 2.39 0 .976.277 1.978.823 2.978.515.943 1.55 2.175 3.162 3.761v4.91c-.5-.296-1.036-.682-1.598-1.154-.71-.596-1.271-1.171-1.669-1.709l-.673-.911v3.01l.193.219c.982 1.111 2.241 2.086 3.746 2.904v2.291l2.002 1.02v-2.437c1.208.38 2.182.406 2.899.077.804-.37 1.212-1.138 1.212-2.283.002-.956-.325-1.986-.969-3.061zm-1.761 1.824c0 .568-.154 1.256-1.379 1.039v-3.696c.916 1.067 1.379 1.958 1.379 2.657zM16.054 79.72c0-.498.149-.832.455-1.022.214-.132.478-.178.799-.139v3.846c-.402-.462-.698-.865-.882-1.201a3.06 3.06 0 0 1-.372-1.484z" fill="#fc9f3a"/></svg>