<svg xmlns="http://www.w3.org/2000/svg" viewBox="0 0 90 104"><linearGradient id="a" gradientUnits="userSpaceOnUse" x1="23.593" y1="86.425" x2="52.194" y2="69.912"><stop offset=".005" stop-color="#79729d"/><stop offset=".092" stop-color="#716994"/><stop offset=".386" stop-color="#5a5079"/><stop offset=".647" stop-color="#4c4069"/><stop offset=".849" stop-color="#473b63"/></linearGradient><path d="M45.064 57.565c-1.33.429-3.612 1.452-3.632 1.527-2.665.021-5.748.024-7.749 1.911-5.3 4.997-7.337 12.205-8.195 21.37 2.435 3.112 5.557 5.717 9.036 7.897l-.001.004c.048.03.098.056.146.086.292.181.581.365.877.54l.003-.023c2.513 1.487 5.192 2.75 7.914 3.843-.797-12.386.681-24.771 1.601-37.155z" fill="url(#a)"/><linearGradient id="b" gradientUnits="userSpaceOnUse" x1="32.229" y1="84.84" x2="69.593" y2="63.268"><stop offset=".043" stop-color="#fff"/><stop offset=".409" stop-color="#eaecee"/><stop offset="1" stop-color="#dfe1e9"/></linearGradient><path d="M61.876 56.339c-4.249-2.426-9.159-.947-9.159-.947s-4.058 1.013-7.653 2.174c-.919 12.385-2.397 24.77-1.6 37.154 1.222.49 2.449.957 3.68 1.375 3.612-13.51 10.832-26.105 20.905-35.497-2.246-1.736-4.407-3.251-6.173-4.259z" fill="url(#b)"/><linearGradient id="c" gradientUnits="userSpaceOnUse" x1="42.979" y1="99.173" x2="83.125" y2="75.995"><stop offset=".005" stop-color="#79729d"/><stop offset=".092" stop-color="#716994"/><stop offset=".386" stop-color="#5a5079"/><stop offset=".647" stop-color="#4c4069"/><stop offset=".849" stop-color="#473b63"/></linearGradient><path d="M81.878 73.841c-1.756-2.869-8.078-8.8-13.83-13.245-10.073 9.392-17.293 21.987-20.905 35.497a83.91 83.91 0 0 0 7.164 2.074c.342.083.694.162 1.044.242l.003.001.543.126v-.003c5.247 1.204 10.996 2.165 16.829 2.564a4.936 4.936 0 0 1 1.724-.472 42.404 42.404 0 0 1 7.655.061c1.13-12.761 1.588-23.88-.227-26.845z" fill="url(#c)"/><linearGradient id="d" gradientUnits="userSpaceOnUse" x1="68.17" y1="87.002" x2="93.595" y2="83.171"><stop offset=".005" stop-color="#79729d"/><stop offset=".092" stop-color="#716994"/><stop offset=".386" stop-color="#5a5079"/><stop offset=".647" stop-color="#4c4069"/><stop offset=".849" stop-color="#473b63"/></linearGradient><path d="M72.87 101.033c.28-.124 1.132.822 4.136 1.022 1.06.071 3.417.072 5.872-.359s5.008-1.296 6.461-2.955l-1.075-9.636c-.73-11.238-5.594-17.664-10.546-19.788-4.952-2.124-9.421 5.333-8.492 13.048.535 4.441 1.773 11.305 3.644 18.668z" fill="url(#d)"/><linearGradient id="e" gradientUnits="userSpaceOnUse" x1="454.238" y1="-4.417" x2="456.664" y2="14.672" gradientTransform="rotate(5.883 -266.575 -3860.687)"><stop offset=".003" stop-color="#e4a769"/><stop offset=".374" stop-color="#eeb672"/><stop offset=".871" stop-color="#ffd182"/></linearGradient><path d="M48.336 45.122l2.1 15.755s-1.96 2.807-1.491 5.18c.33 1.669 2.236 2.893 2.236 2.893s4.69-1.633 6.489-3.849c1.918-2.364 4.224-7.402 4.224-7.402l-.159-14.918-13.399 2.341z" fill="url(#e)"/><linearGradient id="f" gradientUnits="userSpaceOnUse" x1="43.005" y1="91.352" x2="48.795" y2="91.352"><stop offset=".043" stop-color="#fff"/><stop offset=".764" stop-color="#eaecee"/></linearGradient><path d="M47.405 96.189c.705-4.972 1.377-9.453 1.39-9.537l-.918-.138c-.013.083-.67 4.46-1.367 9.368.299.104.597.207.895.307z" fill="url(#f)"/><path d="M50.043 57.931s-2.377.359-2.9 1.349c-.796 1.507-1.31 4.782-1.064 6.802.306 2.515.431 4.007.431 4.007l2.285-2.77 3.243-3.995 1.612 8.203s3.211-1.24 5.215-3.795c2.003-2.555 3.028-4.845 3.028-4.845s2.322-4.095 1.991-5.302c-.331-1.207-2.034-3.941-2.034-3.941s-4.381 8.725-8.199 8.725c-3.819-.001-3.608-4.438-3.608-4.438z" fill="#fff"/><linearGradient id="g" gradientUnits="userSpaceOnUse" x1="42.058" y1="79.681" x2="53.195" y2="79.681"><stop offset="0" stop-color="#7124d3"/><stop offset="1" stop-color="#8360ef"/></linearGradient><path fill="url(#g)" d="M49.463 71.183l-1.127-3.308 3.821-4.849 1.038 6.508-2.015 1.992-3.308 24.811-5.814-2.2z"/><linearGradient id="h" gradientUnits="userSpaceOnUse" x1="45.693" y1="77.906" x2="72.598" y2="77.906"><stop offset=".005" stop-color="#79729d"/><stop offset=".049" stop-color="#77709b"/><stop offset=".696" stop-color="#5d547d"/></linearGradient><path d="M66.223 58.833S55.87 71.279 53.195 78.007c-2.675 6.728-7.502 17.569-7.502 17.569l4.214 1.403 6.051-7.125-.991-4.695 4.487-2.574s3.085-8.362 6.769-11.832c3.684-3.47 6.375-6.432 6.375-6.432l-6.375-5.488z" fill="url(#h)"/><linearGradient id="i" gradientUnits="userSpaceOnUse" x1="37.385" y1="75.883" x2="46.73" y2="75.883"><stop offset=".005" stop-color="#79729d"/><stop offset=".049" stop-color="#77709b"/><stop offset=".696" stop-color="#5d547d"/></linearGradient><path d="M41.431 59.092s-2.935 7.76-3.491 10.53l-.556 2.771v1.99l4.046 5.142-3.491.485 1.468 12.926 4.309 1.783s-1.258-13.776.093-21.397c1.351-7.621 2.921-16.276 2.921-16.276l-5.299 2.046z" fill="url(#i)"/><linearGradient id="j" gradientUnits="userSpaceOnUse" x1="1710.153" y1="-343.693" x2="1724.274" y2="-379.811" gradientTransform="matrix(.9907 .1205 -.1689 .901 -1712.127 150.833)"><stop offset=".129" stop-color="#ffd182"/><stop offset=".626" stop-color="#eeb672"/><stop offset=".997" stop-color="#e4a769"/></linearGradient><path d="M66.096 36.415c-2.532 13.508-14.098 25.242-21.741 22.372-6.119-2.298-11.734-19.364-9.201-32.872 2.532-13.508 8.897-17.198 18.372-16.046s15.102 13.037 12.57 26.546z" fill="url(#j)"/><path d="M71.873 28.716c.636-2.803.989-4.93 1.041-7.381.115-5.464-.631-6.835-2.042-10.25-.16-.386-1.577-1.061-1.752-1.42-5.932 4.198-11.338 5.27-17.619 8.914 3.273.864 6.26 2.655 8.132 6.024 1.253 2.255 1.714 4.845 2.103 6.976.704-.719 1.512-1.096 2.268-.962 1.556.277 2.302 2.604 1.667 5.197s-2.412 4.471-3.968 4.195c-.063-.011-.121-.036-.182-.055.284 3.137.315 4.506.626 7.571.625-.5 7.759-10.131 9.726-18.809z" fill="#995c4f"/><path d="M61.464 3.741c-4.463-.607-8.597.33-13.025.765-1.227.121-5.395.477-9.099 2.048-2.461 1.044-4.717 2.623-5.77 5.026-.65 1.483-1.348 3.457-1.441 5.058-.058 1.008-.171 3.794.708 4.409.62-1.095 2.139-2.075 3.373-1.535-.308 1.117-1.162 5.036-.097 5.855.523.403 4.023-1.701 5.284-1.773 3.241-.184 6.324-.012 9.532-.693 3.766-.799 6.738-2.017 10.276-3.527 2.42-1.033 5.059-1.66 7.595-2.338 1.165-.311 2.705-.085 2.825-1.281.865-8.598-7.824-11.696-10.161-12.014z" fill="#915544"/><linearGradient id="k" gradientUnits="userSpaceOnUse" x1="1507.175" y1="-318.646" x2="1539.48" y2="-318.646" gradientTransform="rotate(17.292 -338.3 -5000.621)"><stop offset="0" stop-color="#bb7047"/><stop offset="1" stop-color="#915544"/></linearGradient><path d="M43.775 14.978c-1.856-.105-2.984-1.179-4.924-1.246-1.508-.052-2.627.346-3.884 1.169-2.881 1.887-4.36 6.438-2.248 9.501.249-.847.736-1.655 1.14-2.438-.019 3.342-.101 6.529 2.021 9.365.476-.836.832-1.861 1.316-2.768.759-1.423 1.804-2.277 3.192-3.187 1.693-1.111 3.198-.632 5.05-.916 1.886-.289 3.611-1.16 5.484-1.557 3.766-.799 6.738-2.017 10.276-3.527 1.623-.693 3.345-1.198 5.067-1.664-5.15-4.722-15.444-2.332-22.49-2.732z" fill="url(#k)"/><path d="M46.728 29.681c-.013 2.107 1.295 2.424 3.582 2.843 1.142.209 2.274.519 3.267 1.045.673.357 1.24 1.121 2.086 1.099.363-2.433-5.351-5.625-7.834-5.243-.032.092.005.169-.03.262-.354-.106-.684-.297-1.059-.351-.007.12-.012.235-.012.345zm-3.99-.945c-.046.139-.022.346-.089.507.191-.053.474.07.666.021.088 2.343-3.14 1.46-4.143 1.348-1.016-.113-1.729.366-2.648.674-.661.221-1.452.765-2.093.795.31-1.21 2.768-2.701 3.742-3.138.82-.367 1.525-.501 2.351-.414.224.023 2.134.451 2.214.207z" fill="#915544"/><path d="M40.853 47.255s.119 4.321 3.505 5.097c3.386.776 4.278-4.543 4.278-4.543s-2.139.72-4.396.499c-2.258-.222-3.387-1.053-3.387-1.053z" fill="#fff"/><path d="M47.595 37.893s.935-2.099 2.888-1.643c1.953.456 2.314 3.226 2.314 3.226s-.989-1.697-2.546-2.012c-1.556-.316-2.656.429-2.656.429zm-11.041-.561s.558-2.249 2.558-2.199c2 .051 2.833 2.695 2.833 2.695s-1.265-1.464-2.852-1.457c-1.586.007-2.539.961-2.539.961z" fill="#915544"/><path fill="#c8d5e1" d="M6.127 60.737l-3.058 1.671V87.29l29.655 15.11 3.058-1.671V75.846z"/><path d="M29.329 101.785L-.175 85.881s3.244-.897 3.244-6.31V62.408l29.655 15.11v15.416c0 6.449-3.395 8.851-3.395 8.851z" fill="#ebf2f7"/><linearGradient id="l" gradientUnits="userSpaceOnUse" x1="3.069" y1="72.966" x2="32.724" y2="72.966"><stop offset="0" stop-color="#ac54ff"/><stop offset=".838" stop-color="#b362ff"/></linearGradient><path fill="url(#l)" d="M32.724 83.524L3.069 68.414v-6.006l29.655 15.11z"/><path fill="#fb3952" d="M9.119 77.931l-3.321-1.692v-3.003l3.321 1.692z"/><path fill="#c8d5e1" d="M14.171 80.506l-3.321-1.693v-3.002l3.321 1.692zm5.053 2.574l-3.322-1.692v-3.003l3.322 1.692zm5.052 2.574l-3.321-1.692v-3.003l3.321 1.692zm5.053 2.575l-3.322-1.693v-3.003l3.322 1.693z"/><path fill="#fb3952" d="M9.119 82.595l-3.321-1.692V77.9l3.321 1.692z"/><path fill="#c8d5e1" d="M14.171 85.169l-3.321-1.692v-3.003l3.321 1.692zm5.053 2.575l-3.322-1.693v-3.003l3.322 1.693zm5.052 2.574l-3.321-1.692v-3.003l3.321 1.692zm5.053 2.574L26.007 91.2v-3.003l3.322 1.692z"/><path fill="#fb3952" d="M9.119 87.332L5.798 85.64v-3.003l3.321 1.692z"/><path fill="#c8d5e1" d="M14.171 89.906l-3.321-1.692v-3.003l3.321 1.692zm5.053 2.575l-3.322-1.693v-3.003l3.322 1.693zm5.052 2.574l-3.321-1.692V90.36l3.321 1.692zm5.053 2.574l-3.322-1.692v-3.003l3.322 1.692z"/><linearGradient id="m" gradientUnits="userSpaceOnUse" x1="3.069" y1="69.127" x2="35.782" y2="69.127"><stop offset="0" stop-color="#cf9fff"/><stop offset="1" stop-color="#ac54ff"/></linearGradient><path fill="url(#m)" d="M3.069 62.408l3.058-1.671 29.655 15.109-3.058 1.672z"/><path d="M12.511 60.674c-1.209 0-2.193 1.241-2.193 2.766v4.009c0 1.413.845 2.58 1.931 2.745v-.016c.021.01.042.016.064.016.161 0 .291-.28.291-.625s-.13-.625-.291-.625c-.013 0-.025.005-.037.008v-.008c-.455-.163-.805-.779-.805-1.494v-4.01c0-.835.476-1.54 1.04-1.54.564 0 1.041.705 1.041 1.54v1.079l1.153.587V63.44c-.001-1.526-.985-2.766-2.194-2.766zm13.958 7.324c-1.209 0-2.193 1.241-2.193 2.766v4.009c0 1.413.845 2.58 1.931 2.744v-.016c.021.01.042.016.064.016.161 0 .291-.28.291-.625s-.13-.625-.291-.625c-.013 0-.025.005-.037.008v-.008c-.455-.163-.805-.779-.805-1.494v-4.009c0-.835.476-1.54 1.04-1.54s1.041.705 1.041 1.54v1.079l1.153.587v-1.667c0-1.524-.984-2.765-2.194-2.765z" fill="#616b76"/></svg>