<svg xmlns="http://www.w3.org/2000/svg" viewBox="0 0 90 104"><linearGradient id="a" gradientUnits="userSpaceOnUse" x1="23.426" y1="85.842" x2="52.229" y2="69.213"><stop offset=".005" stop-color="#79729d"/><stop offset=".092" stop-color="#716994"/><stop offset=".386" stop-color="#5a5079"/><stop offset=".647" stop-color="#4c4069"/><stop offset=".849" stop-color="#473b63"/></linearGradient><path d="M45.048 56.778c-1.339.432-3.637 1.462-3.658 1.538-2.683.021-5.788.025-7.804 1.925-5.337 5.032-7.389 12.291-8.253 21.521 2.452 3.134 5.596 5.758 9.1 7.953l-.001.004c.048.03.099.057.147.086.294.182.585.368.883.544l.003-.023c2.531 1.497 5.229 2.77 7.97 3.87-.801-12.473.687-24.945 1.613-37.418z" fill="url(#a)"/><linearGradient id="b" gradientUnits="userSpaceOnUse" x1="32.123" y1="84.246" x2="69.75" y2="62.522"><stop offset=".043" stop-color="#fff"/><stop offset=".409" stop-color="#eaecee"/><stop offset="1" stop-color="#dfe1e9"/></linearGradient><path d="M61.979 55.544c-4.279-2.443-9.224-.954-9.224-.954s-4.086 1.021-7.707 2.189c-.926 12.472-2.414 24.945-1.612 37.417 1.23.494 2.467.963 3.706 1.384 3.637-13.605 10.908-26.29 21.052-35.748-2.26-1.747-4.437-3.273-6.215-4.288z" fill="url(#b)"/><linearGradient id="c" gradientUnits="userSpaceOnUse" x1="42.948" y1="98.681" x2="83.379" y2="75.338"><stop offset=".005" stop-color="#79729d"/><stop offset=".092" stop-color="#716994"/><stop offset=".386" stop-color="#5a5079"/><stop offset=".647" stop-color="#4c4069"/><stop offset=".849" stop-color="#473b63"/></linearGradient><path d="M82.123 73.17c-1.769-2.89-8.135-8.862-13.928-13.338C58.05 69.29 50.779 81.974 47.142 95.58a84.378 84.378 0 0 0 7.215 2.089c.344.084.699.163 1.051.243l.003.001.547.127v-.003c5.284 1.212 11.074 2.18 16.948 2.582a4.96 4.96 0 0 1 1.736-.475 42.727 42.727 0 0 1 7.709.062c1.138-12.853 1.599-24.05-.228-27.036z" fill="url(#c)"/><linearGradient id="d" gradientUnits="userSpaceOnUse" x1="68.318" y1="86.423" x2="93.922" y2="82.566"><stop offset=".005" stop-color="#79729d"/><stop offset=".092" stop-color="#716994"/><stop offset=".386" stop-color="#5a5079"/><stop offset=".647" stop-color="#4c4069"/><stop offset=".849" stop-color="#473b63"/></linearGradient><path d="M73.051 100.554c.282-.124 1.14.828 4.165 1.03 1.068.071 3.441.073 5.913-.362 2.472-.434 5.043-1.305 6.507-2.976l-1.082-9.704c-.735-11.317-5.634-17.789-10.621-19.928-4.987-2.139-9.487 5.37-8.552 13.14.539 4.472 1.786 11.385 3.67 18.8z" fill="url(#d)"/><linearGradient id="e" gradientUnits="userSpaceOnUse" x1="454.207" y1="-5.264" x2="456.65" y2="13.96" gradientTransform="rotate(5.883 -266.575 -3860.687)"><stop offset=".003" stop-color="#e4a769"/><stop offset=".374" stop-color="#eeb672"/><stop offset=".871" stop-color="#ffd182"/></linearGradient><path d="M48.343 44.248l2.114 15.866s-1.973 2.827-1.502 5.217c.332 1.681 2.252 2.914 2.252 2.914s4.723-1.645 6.534-3.876c1.932-2.38 4.254-7.454 4.254-7.454l-.16-15.023-13.492 2.356z" fill="url(#e)"/><linearGradient id="f" gradientUnits="userSpaceOnUse" x1="42.974" y1="90.804" x2="48.806" y2="90.804"><stop offset=".043" stop-color="#fff"/><stop offset=".764" stop-color="#eaecee"/></linearGradient><path d="M47.406 95.676c.71-5.008 1.387-9.519 1.4-9.604l-.925-.139c-.013.084-.674 4.492-1.376 9.434.3.104.601.208.901.309z" fill="url(#f)"/><path d="M50.062 57.147s-2.394.362-2.92 1.359c-.802 1.518-1.319 4.816-1.071 6.85.308 2.533.434 4.035.434 4.035l2.301-2.79 3.266-4.024 1.623 8.261s3.234-1.249 5.252-3.822 3.049-4.879 3.049-4.879 2.339-4.124 2.005-5.34c-.334-1.216-2.049-3.969-2.049-3.969s-4.412 8.787-8.257 8.787c-3.845.001-3.633-4.468-3.633-4.468z" fill="#fff"/><linearGradient id="g" gradientUnits="userSpaceOnUse" x1="42.021" y1="79.051" x2="53.237" y2="79.051"><stop offset="0" stop-color="#7124d3"/><stop offset="1" stop-color="#8360ef"/></linearGradient><path fill="url(#g)" d="M49.478 70.493l-1.135-3.332 3.849-4.883 1.045 6.554-2.029 2.007-3.332 24.985-5.855-2.215z"/><linearGradient id="h" gradientUnits="userSpaceOnUse" x1="45.681" y1="77.263" x2="72.777" y2="77.263"><stop offset=".005" stop-color="#79729d"/><stop offset=".049" stop-color="#77709b"/><stop offset=".696" stop-color="#5d547d"/></linearGradient><path d="M66.357 58.055s-10.426 12.534-13.12 19.309c-2.694 6.775-7.555 17.694-7.555 17.694l4.244 1.412 6.094-7.175-.998-4.728 4.519-2.593s3.107-8.421 6.817-11.916c3.71-3.494 6.42-6.478 6.42-6.478l-6.421-5.525z" fill="url(#h)"/><linearGradient id="i" gradientUnits="userSpaceOnUse" x1="37.315" y1="75.226" x2="46.727" y2="75.226"><stop offset=".005" stop-color="#79729d"/><stop offset=".049" stop-color="#77709b"/><stop offset=".696" stop-color="#5d547d"/></linearGradient><path d="M41.39 58.316s-2.956 7.815-3.515 10.605l-.56 2.79v2.004l4.075 5.178-3.515.488 1.478 13.018 4.339 1.796s-1.267-13.874.094-21.548a5111.813 5111.813 0 0 1 2.941-16.391l-5.337 2.06z" fill="url(#i)"/><linearGradient id="j" gradientUnits="userSpaceOnUse" x1="1709.396" y1="-344.982" x2="1723.616" y2="-381.355" gradientTransform="matrix(.9907 .1205 -.1689 .901 -1712.127 150.833)"><stop offset=".129" stop-color="#ffd182"/><stop offset=".626" stop-color="#eeb672"/><stop offset=".997" stop-color="#e4a769"/></linearGradient><path d="M65.746 35.086c-2.55 13.604-14.198 25.421-21.895 22.53-6.163-2.314-11.817-19.501-9.266-33.105 2.55-13.604 8.96-17.32 18.502-16.159 9.542 1.161 15.209 13.13 12.659 26.734z" fill="url(#j)"/><path d="M71.564 27.333c.64-2.823.996-4.965 1.048-7.433.116-5.503-.635-6.883-2.056-10.322-.161-.389-1.588-1.068-1.765-1.43-5.974 4.227-11.418 5.307-17.743 8.977 3.296.87 6.304 2.674 8.189 6.066 1.262 2.271 1.726 4.879 2.118 7.026.709-.724 1.523-1.104 2.284-.969 1.567.279 2.318 2.622 1.678 5.234-.64 2.612-2.429 4.503-3.996 4.224-.064-.011-.122-.037-.183-.055.285 3.159.317 4.538.631 7.625.63-.505 7.814-10.204 9.795-18.943z" fill="#995c4f"/><path d="M61.082 2.181c-4.495-.612-8.658.332-13.117.771-1.235.121-5.433.48-9.164 2.063-2.478 1.051-4.75 2.642-5.811 5.061-.655 1.493-1.357 3.482-1.451 5.094-.059 1.015-.172 3.821.713 4.44.624-1.102 2.154-2.09 3.397-1.546-.31 1.125-1.17 5.072-.098 5.897.527.406 4.052-1.713 5.321-1.785 3.264-.186 6.369-.012 9.599-.698 3.792-.804 6.786-2.031 10.349-3.552 2.438-1.041 5.094-1.672 7.649-2.354 1.174-.313 2.724-.086 2.845-1.29.871-8.661-7.878-11.781-10.232-12.101zM45.871 29.23c.403 2.083 1.757 2.138 4.098 2.101 1.169-.019 2.348.064 3.433.388.735.22 1.446.862 2.277.674-.121-2.475-6.393-4.5-8.771-3.633-.014.097.038.166.022.264-.37-.035-.734-.159-1.115-.137.016.12.035.234.056.343zm-3.397-1.166c-.071.13-.084.339-.179.487.199-.018.457.154.657.14-.333 2.337-3.373.883-4.347.592-.987-.295-1.779.053-2.745.192-.694.101-1.577.497-2.216.412.525-1.143 3.228-2.18 4.272-2.437.878-.217 1.601-.222 2.404.012.214.062 2.03.829 2.154.602z" fill="#915544"/><path d="M40.656 48.776s.413-2.032 3.075-1.948c2.662.084 2.995 3.321 2.995 3.321s-1.251-2.119-3.014-2.267c-1.763-.149-3.056.894-3.056.894z" fill="#fff"/><path d="M46.548 35.449s.669 1.472 2.653 1.574c1.985.102 2.678-1.527 2.678-1.527s-1.183.848-2.76.737c-1.576-.111-2.571-.784-2.571-.784zm-10.975-1.816s.277 1.49 2.259 1.85c1.982.36 3.126-1.1 3.126-1.1s-1.428.651-2.994.337c-1.566-.315-2.391-1.087-2.391-1.087z" fill="#915544"/><linearGradient id="k" gradientUnits="userSpaceOnUse" x1="1506.179" y1="-319.862" x2="1538.713" y2="-319.862" gradientTransform="rotate(17.292 -338.3 -5000.621)"><stop offset="0" stop-color="#bb7047"/><stop offset="1" stop-color="#915544"/></linearGradient><path d="M43.267 13.498c-1.869-.106-3.005-1.188-4.959-1.255-1.519-.052-2.646.348-3.912 1.177-2.902 1.9-4.39 6.484-2.264 9.568.251-.853.741-1.667 1.148-2.455-.019 3.366-.102 6.575 2.035 9.431.479-.841.838-1.874 1.325-2.788.764-1.433 1.817-2.293 3.215-3.21 1.705-1.118 3.221-.636 5.085-.922 1.899-.291 3.637-1.168 5.522-1.568 3.792-.804 6.786-2.031 10.349-3.552 1.635-.698 3.368-1.207 5.103-1.675-5.183-4.756-15.55-2.348-22.647-2.751z" fill="url(#k)"/><path fill="#c8d5e1" d="M5.46 59.429l-3.08 1.684v25.058l29.865 15.216 3.08-1.683V74.646z"/><path d="M28.825 100.768L-.887 84.752s3.267-.903 3.267-6.355V61.113L32.244 76.33v15.525c.001 6.494-3.419 8.913-3.419 8.913z" fill="#ebf2f7"/><linearGradient id="l" gradientUnits="userSpaceOnUse" x1="2.38" y1="71.745" x2="32.245" y2="71.745"><stop offset="0" stop-color="#ac54ff"/><stop offset=".838" stop-color="#b362ff"/></linearGradient><path fill="url(#l)" d="M32.245 82.378L2.38 67.161v-6.048l29.865 15.216z"/><path fill="#fb3952" d="M8.473 76.746l-3.345-1.705v-3.024l3.345 1.704z"/><path fill="#c8d5e1" d="M13.561 79.338l-3.345-1.704V74.61l3.345 1.704zm5.088 2.593l-3.345-1.704v-3.025l3.345 1.705zm5.088 2.592l-3.345-1.704v-3.024l3.345 1.704zm5.088 2.593l-3.345-1.704v-3.025l3.345 1.705z"/><path fill="#fb3952" d="M8.473 81.442l-3.345-1.704v-3.024l3.345 1.704z"/><path fill="#c8d5e1" d="M13.561 84.035l-3.345-1.704v-3.025l3.345 1.705zm5.088 2.592l-3.345-1.704v-3.024l3.345 1.704zm5.088 2.593l-3.345-1.704v-3.025l3.345 1.705zm5.088 2.593l-3.345-1.705v-3.024l3.345 1.704z"/><path fill="#fb3952" d="M8.473 86.213l-3.345-1.705v-3.024l3.345 1.704z"/><path fill="#c8d5e1" d="M13.561 88.805l-3.345-1.704v-3.024l3.345 1.704zm5.088 2.593l-3.345-1.704v-3.025l3.345 1.705zm5.088 2.592l-3.345-1.704v-3.024l3.345 1.704zm5.088 2.593l-3.345-1.704v-3.025l3.345 1.705z"/><linearGradient id="m" gradientUnits="userSpaceOnUse" x1="2.38" y1="67.879" x2="35.325" y2="67.879"><stop offset="0" stop-color="#cf9fff"/><stop offset="1" stop-color="#ac54ff"/></linearGradient><path fill="url(#m)" d="M2.38 61.113l3.08-1.684 29.865 15.217-3.08 1.683z"/><path d="M11.889 59.366c-1.218 0-2.209 1.25-2.209 2.786v4.038c0 1.423.851 2.598 1.944 2.764v-.017a.15.15 0 0 0 .065.017c.162 0 .293-.282.293-.629s-.131-.63-.293-.63c-.013 0-.025.005-.038.008v-.008c-.458-.164-.811-.785-.811-1.505v-4.038c0-.84.48-1.551 1.048-1.551s1.048.71 1.048 1.551v1.087l1.161.592v-1.678c0-1.537-.991-2.787-2.208-2.787zm14.057 7.376c-1.218 0-2.209 1.25-2.209 2.786v4.038c0 1.423.851 2.598 1.944 2.764v-.017a.15.15 0 0 0 .065.017c.162 0 .293-.282.293-.63s-.131-.629-.293-.629c-.013 0-.025.005-.038.008v-.008c-.458-.164-.811-.785-.811-1.505v-4.038c0-.84.48-1.551 1.048-1.551s1.048.71 1.048 1.551v1.087l1.161.592v-1.678c.001-1.538-.99-2.787-2.208-2.787z" fill="#616b76"/></svg>