<svg xmlns="http://www.w3.org/2000/svg" viewBox="0 0 190 150"><path d="M46.217 18.809L9.204.43c-1.03-.511-1.99-.552-2.801-.202-.812.35-3.734 2.04-4.449 2.543C.762 3.61 0 5.411 0 7.857V110.72c0 4.315 2.367 8.988 5.288 10.438l37.013 18.379c1.03.511 1.99.552 2.801.202.812-.35 4.359-2.454 4.654-2.7 1.074-.894 1.749-2.626 1.749-4.929V29.247c0-4.315-2.367-8.988-5.288-10.438z" fill="#9daab2"/><linearGradient id="a" gradientUnits="userSpaceOnUse" x1="24.254" y1="16.793" x2="23.256" y2="134.605"><stop offset="0" stop-color="#d6d6e1"/><stop offset=".999" stop-color="#b5bcd6"/></linearGradient><path d="M47.588 134.349c0 4.315-2.367 6.637-5.288 5.187L5.288 121.157C2.367 119.707 0 115.034 0 110.72V7.857C0 3.543 2.367 1.22 5.288 2.67l37.013 18.379c2.92 1.45 5.288 6.123 5.288 10.438v102.862z" fill="url(#a)"/><linearGradient id="b" gradientUnits="userSpaceOnUse" x1="48.662" y1="48.795" x2="50.81" y2="48.795"><stop offset=".011" stop-color="#e9e5e8"/><stop offset=".999" stop-color="#b2b6be"/></linearGradient><path d="M50.81 56.434c0 .777-.481 1.466-1.074 1.539-.593.074-1.074-.496-1.074-1.272V41.157c0-.777.481-1.466 1.074-1.539.593-.074 1.074.496 1.074 1.272v15.544z" fill="url(#b)"/><linearGradient id="c" gradientUnits="userSpaceOnUse" x1="48.662" y1="69.957" x2="50.81" y2="69.957"><stop offset=".011" stop-color="#e9e5e8"/><stop offset=".999" stop-color="#b2b6be"/></linearGradient><path d="M50.81 75.207c0 .777-.481 1.466-1.074 1.539-.593.074-1.074-.496-1.074-1.272V64.707c0-.777.481-1.466 1.074-1.539.593-.074 1.074.496 1.074 1.272v10.767z" fill="url(#c)"/><path d="M22.166 23.078c-.049 3.246-1.607 5.109-3.48 4.161l-12.18-6.163c-1.873-.948-3.351-4.347-3.302-7.593l.021-1.411c.049-3.246 1.607-5.109 3.48-4.161l12.18 6.163c1.873.948 3.351 4.347 3.302 7.593l-.021 1.411z" fill="#fff"/><linearGradient id="d" gradientUnits="userSpaceOnUse" x1="2.922" y1="17.575" x2="22.471" y2="17.575"><stop offset=".005" stop-color="#79729d"/><stop offset=".157" stop-color="#706893"/><stop offset=".693" stop-color="#554a74"/><stop offset=".993" stop-color="#4b3f68"/></linearGradient><path d="M19.852 27.837c-.418.052-.852-.034-1.29-.256l-12.18-6.163c-1.959-.991-3.511-4.538-3.46-7.908l.022-1.41c.041-2.676 1.084-4.6 2.596-4.788.418-.052.852.034 1.29.256l12.18 6.163c1.959.991 3.511 4.539 3.46 7.908l-.021 1.412c-.041 2.674-1.084 4.598-2.597 4.786zM5.54 8.041c-1.181.147-1.998 1.756-2.032 4.003l-.021 1.411c-.047 3.113 1.363 6.378 3.143 7.278l12.18 6.163c.36.182.711.254 1.043.212 1.181-.147 1.998-1.756 2.032-4.003l.021-1.412c.047-3.112-1.363-6.377-3.143-7.278L6.582 8.254c-.36-.183-.71-.254-1.042-.213z" fill="url(#d)"/><path d="M10.217 16.082c-.031 2.092-1.17 3.215-2.544 2.508-1.374-.707-2.463-2.976-2.431-5.068s1.17-3.215 2.544-2.508c1.374.707 2.462 2.976 2.431 5.068zm9.02 4.924c-.022 1.447-.811 2.224-1.764 1.734-.953-.49-1.707-2.061-1.685-3.508.022-1.447.811-2.224 1.764-1.734.952.49 1.707 2.061 1.685 3.508z" fill="#c7c9d0"/><path d="M25.333 54.408c.83-1.355.609-3.222.609-3.222s-1.604-.698-2.379.348c-.774 1.047-.772 3.477-.772 3.477s1.712.752 2.542-.603zm2.81 14.371c-.553-1.105-1.171-2.651-1.151-4.012.022-1.551.272-2.495.561-3.071.424-.844.933-.892.933-.892s-.776-2.64-2.518-3.405c-1.742-.765-2.354-.058-3.127-.519-.773-.46-1.547-2.099-3.096-2.517-1.549-.418-2.379.602-2.932 3.013-.489 2.13.111 6.337.664 8.533.316 1.256.868 2.763 1.479 3.92.457.866.948 1.535 1.398 1.755.378.184.692.185.993.138.535-.085 1.03-.325 1.773.038.57.278.914.728 1.26 1.184.359.473.721.954 1.34 1.256.361.176.708.138 1.024-.022.749-.381 1.326-1.451 1.521-2.004.277-.787.719-1.911.719-1.911s-.399-.603-.841-1.484z" fill="#fff"/><path d="M8.437 15.167c-.009.594-.333.913-.724.712-.391-.201-.701-.846-.692-1.44.009-.594.333-.913.724-.712.391.2.701.845.692 1.44z" fill="#7b85a9"/><path d="M184.318 28.816l-37.013-18.379c-1.03-.511-1.99-.552-2.801-.202-.812.35-3.734 2.04-4.449 2.543-1.192.838-1.953 2.639-1.953 5.086v102.862c0 4.315 2.367 8.988 5.288 10.438l37.013 18.379c1.03.511 1.99.552 2.801.202.812-.35 4.359-2.454 4.654-2.7 1.074-.894 1.749-2.626 1.749-4.929V39.254c-.002-4.315-2.369-8.988-5.289-10.438z" fill="#663eff"/><path d="M185.632 144.355c0 4.315-2.367 6.637-5.288 5.187l-37.013-18.379c-2.92-1.45-5.288-6.123-5.288-10.438V17.863c0-4.315 2.367-6.637 5.288-5.187l37.013 18.379c2.92 1.45 5.288 6.123 5.288 10.438v102.862z" fill="#ac54ff"/><path d="M188.854 78.938c0 .776-.481 1.466-1.074 1.539-.593.074-1.074-.496-1.074-1.272V63.66c0-.777.481-1.466 1.074-1.539.593-.074 1.074.496 1.074 1.272v15.545z" fill="#e0c7ea"/><path fill="#edf1fc" d="M182.264 135.211l-40.851-19.763V24.354l40.851 20.227z"/><path d="M169.457 31.457c-.584-.317-1.057.046-1.057.81s.473 1.64 1.057 1.957c.584.317 1.057-.046 1.057-.81-.001-.764-.474-1.64-1.057-1.957zm-4.184-1.644l-6.854-3.72c-.292-.158-.528.023-.528.405s.237.82.528.979l6.854 3.72c.292.158.528-.023.528-.405s-.236-.82-.528-.979z" fill="#7634da"/><path d="M155.55 24.535c-.314-.17-.568.025-.568.436s.254.882.568 1.053c.314.17.568-.025.568-.436s-.254-.882-.568-1.053z" fill="#e0c7ea"/><path d="M153.709 23.536c-.301-.164-.546.024-.546.418s.244.847.546 1.01c.301.164.546-.024.546-.418s-.245-.847-.546-1.01zm11.323 113.494l-6.387-3.467c-1.115-.605-2.022-2.286-2.022-3.745v-.738c0-1.46.907-2.155 2.022-1.55l6.387 3.467c1.115.605 2.022 2.286 2.022 3.745v.738c0 1.46-.907 2.155-2.022 1.55zm-6.387-8.632c-.749-.407-1.36.061-1.36 1.042v.738c0 .981.61 2.111 1.36 2.518l6.387 3.467c.749.407 1.36-.06 1.36-1.042v-.738c0-.981-.61-2.111-1.36-2.518l-6.387-3.467z" fill="#7634da"/><path fill="#abc7dd" d="M142.468 114.216v-89.34l-1.055-.522v91.094l40.851 19.763v-1.742z"/><linearGradient id="e" gradientUnits="userSpaceOnUse" x1="69.261" y1="73.195" x2="120.766" y2="73.195"><stop offset=".328" stop-color="#a35ed3"/><stop offset="1" stop-color="#9d54cc"/></linearGradient><path d="M115.478 22.02L78.465 3.642c-1.03-.511-1.99-.552-2.801-.202-.812.35-3.734 2.04-4.449 2.543-1.192.838-1.953 2.639-1.953 5.086v102.862c0 4.315 2.367 8.988 5.288 10.438l37.013 18.379c1.03.511 1.99.552 2.801.202.812-.35 4.359-2.454 4.654-2.7 1.074-.894 1.749-2.626 1.749-4.929V32.458c-.001-4.314-2.368-8.988-5.289-10.438z" fill="url(#e)"/><linearGradient id="f" gradientUnits="userSpaceOnUse" x1="72.965" y1="317.106" x2="107.128" y2="203.478" gradientTransform="matrix(1 -.1228 0 1 0 -165.558)"><stop offset="0" stop-color="#b479e3"/><stop offset=".426" stop-color="#bc86e7"/><stop offset="1" stop-color="#d5adf3"/></linearGradient><path d="M116.548 137.587c0 4.315-2.367 6.637-5.288 5.187l-37.013-18.379c-2.92-1.45-5.288-6.123-5.288-10.438V11.095c0-4.315 2.367-6.637 5.288-5.187l37.013 18.379c2.92 1.45 5.288 6.123 5.288 10.438v102.862z" fill="url(#f)"/><path d="M119.769 59.671c0 .777-.481 1.466-1.074 1.539-.593.074-1.074-.496-1.074-1.272V44.394c0-.777.481-1.466 1.074-1.539.593-.074 1.074.496 1.074 1.272v15.544zm0 18.774c0 .776-.481 1.466-1.074 1.539-.593.074-1.074-.496-1.074-1.272V67.945c0-.776.481-1.466 1.074-1.539.593-.074 1.074.496 1.074 1.272v10.767z" fill="#e0c7ea"/><linearGradient id="g" gradientUnits="userSpaceOnUse" x1="87.741" y1="37.418" x2="94.381" y2="37.418"><stop offset=".005" stop-color="#79729d"/><stop offset=".157" stop-color="#706893"/><stop offset=".693" stop-color="#554a74"/><stop offset=".993" stop-color="#4b3f68"/></linearGradient><path d="M94.381 40.577c0 2.148-.934 3.506-2.086 3.034l-2.469-1.013c-1.152-.473-2.086-2.598-2.086-4.746V34.26c0-2.148.934-3.506 2.086-3.034l2.469 1.013c1.152.473 2.086 2.598 2.086 4.746v3.592z" fill="url(#g)"/><linearGradient id="h" gradientUnits="userSpaceOnUse" x1="82.863" y1="34.513" x2="85.099" y2="34.513"><stop offset=".005" stop-color="#79729d"/><stop offset=".157" stop-color="#706893"/><stop offset=".693" stop-color="#554a74"/><stop offset=".993" stop-color="#4b3f68"/></linearGradient><path d="M85.098 38.572c0 1.151-.501 1.879-1.118 1.626-.617-.253-1.118-1.392-1.118-2.544v-7.202c0-1.151.501-1.879 1.118-1.626.617.253 1.118 1.392 1.118 2.544v7.202z" fill="url(#h)"/><linearGradient id="i" gradientUnits="userSpaceOnUse" x1="96.394" y1="40.92" x2="100.023" y2="40.92"><stop offset=".005" stop-color="#79729d"/><stop offset=".157" stop-color="#706893"/><stop offset=".693" stop-color="#554a74"/><stop offset=".993" stop-color="#4b3f68"/></linearGradient><path d="M98.209 46.2c-1-.411-1.815-2.263-1.815-4.129V38.28c0-1.866.814-3.05 1.815-2.639 1.001.411 1.815 2.263 1.815 4.129v3.791c-.001 1.865-.815 3.049-1.815 2.639zm.006-9.587c-.79-.324-1.432.61-1.432 2.083v3.308c0 1.473.642 2.934 1.432 3.258.79.324 1.432-.61 1.432-2.083v-3.308c0-1.472-.643-2.934-1.432-3.258z" fill="url(#i)"/><path d="M92.111 38.323c0 1.099-.478 1.794-1.067 1.552s-1.067-1.329-1.067-2.428v-.379c0-1.099.478-1.794 1.067-1.552s1.067 1.329 1.067 2.428v.379z" fill="#604982"/></svg>