<svg xmlns="http://www.w3.org/2000/svg" xmlns:xlink="http://www.w3.org/1999/xlink" viewBox="0 0 496 566" enable-background="new 0 0 496 566"><defs><ellipse id="a" cx="256.31" cy="266.106" rx="301.072" ry="296.896"/></defs><clipPath id="b"><use xlink:href="#a" overflow="visible"/></clipPath><g clip-path="url(#b)"><linearGradient id="c" gradientUnits="userSpaceOnUse" x1="257.503" y1="386.659" x2="388.574" y2="386.659"><stop offset=".054" stop-color="#dbc1f9"/><stop offset=".726" stop-color="#caafec"/><stop offset="1" stop-color="#ae84e2"/></linearGradient><path d="M388.574 469.739l-36.858-159.242-1.2.646c-2.145 1.154-4.397 2.51-6.974 4.186l.003-.024-1.329.889-.281.186.001.002-.267.179a416.437 416.437 0 0 0-4.803 3.279c-1.407.97-2.818 1.941-4.237 2.898l-.39.263-7.818 88.57-31.943-136.801-1.2.646c-2.141 1.152-4.394 2.509-6.974 4.187l.003-.026-1.382.926-.229.151v.002l-.267.179a422.555 422.555 0 0 0-4.764 3.252c-1.42.979-2.843 1.96-4.276 2.925l-.39.263-15.495 175.549 3.995-2.481 22.218-176.1 39.648 139.28-6.622 75.027 3.995-2.481 22.218-176.099 41.253 145.97 4.365 3.799z" fill="url(#c)"/><linearGradient id="d" gradientUnits="userSpaceOnUse" x1="4.932" y1="546.734" x2="496.044" y2="546.734" gradientTransform="matrix(.9457 -.1292 .1354 .9908 -134.062 -5.187)"><stop offset="0" stop-color="#fff"/><stop offset=".333" stop-color="#f2ecfa"/><stop offset="1" stop-color="#ae84e2"/></linearGradient><path d="M436.111 500.164c-53.95-65.528-159.44-102.071-259.213-88.437-70.304 9.608-130.234 43.106-169.215 88.883 66.779 63.584 159.288 97.286 255.865 84.088 67.412-9.212 126.776-39.912 172.563-84.534z" fill="url(#d)"/><linearGradient id="e" gradientUnits="userSpaceOnUse" x1="176.82" y1="510.693" x2="351.002" y2="510.693"><stop offset="0" stop-color="#5e26db" stop-opacity=".6"/><stop offset=".149" stop-color="#6e2ddf" stop-opacity=".51"/><stop offset=".507" stop-color="#903be6" stop-opacity=".296"/><stop offset=".803" stop-color="#a544ea" stop-opacity=".118"/><stop offset="1" stop-color="#ac47ec" stop-opacity="0"/></linearGradient><path fill="url(#e)" d="M216.326 501.384l-21.861 7.128L176.82 521h125.27l48.912-20.613z"/><linearGradient id="f" gradientUnits="userSpaceOnUse" x1="152.21" y1="476.86" x2="330.295" y2="476.86"><stop offset="0" stop-color="#5e26db" stop-opacity=".6"/><stop offset=".149" stop-color="#6e2ddf" stop-opacity=".51"/><stop offset=".507" stop-color="#903be6" stop-opacity=".296"/><stop offset=".803" stop-color="#a544ea" stop-opacity=".118"/><stop offset="1" stop-color="#ac47ec" stop-opacity="0"/></linearGradient><path fill="url(#f)" d="M330.294 470.034l-135.688-2.455-24.751 6.074-17.645 12.487h149.356z"/><linearGradient id="g" gradientUnits="userSpaceOnUse" x1="243.862" y1="349.308" x2="343.87" y2="349.308"><stop offset="0" stop-color="#c9ccd3"/><stop offset=".78" stop-color="#fff"/></linearGradient><path fill="url(#g)" d="M243.862 350.938l1.563 6.649 69.12-1.103 29.325-15.455-87.029 5.563z"/><linearGradient id="h" gradientUnits="userSpaceOnUse" x1="253.935" y1="334.964" x2="264.391" y2="334.964"><stop offset="0" stop-color="#bb63ff"/><stop offset="1" stop-color="#a141e8"/></linearGradient><path d="M256.187 345.831c-1.382 0-2.128-.756-2.252-.893l1.804-2.035c-.048-.038.118.067.423.068.407 0 1.116-.155 2.186-.915 2.427-1.728 4.489-9.549 2.989-13.5-.314-.827-.726-1.318-1.259-1.501-1.035-.358-2.458.424-2.916.755l-1.406-2.395c.268-.197 2.685-1.905 5.057-1.105.888.299 2.109 1.085 2.884 3.126 2.008 5.294-.653 14.672-3.972 17.035-1.456 1.035-2.633 1.36-3.538 1.36z" fill="url(#h)"/><linearGradient id="i" gradientUnits="userSpaceOnUse" x1="231.925" y1="337.737" x2="258.925" y2="337.737"><stop offset="0" stop-color="#bb63ff"/><stop offset=".355" stop-color="#de77f7"/><stop offset=".833" stop-color="#a547ec"/><stop offset="1" stop-color="#a141e8"/></linearGradient><path d="M231.925 317.886l3.406 34.599c0 2.818 4.519 5.103 10.094 5.103s10.094-2.285 10.094-5.103l3.406-34.599h-27z" fill="url(#i)"/><linearGradient id="j" gradientUnits="userSpaceOnUse" x1="231.925" y1="317.886" x2="258.925" y2="317.886"><stop offset=".102" stop-color="#bf88ef"/><stop offset=".495" stop-color="#deccff"/><stop offset="1" stop-color="#b479e3"/></linearGradient><ellipse cx="245.425" cy="317.886" rx="13.5" ry="7.062" fill="url(#j)"/><path d="M234.388 322.178c2.468 1.681 6.338 2.77 10.703 2.77 4.781 0 8.971-1.304 11.37-3.265-1.668-2.218-5.901-3.798-10.874-3.798-5.336.001-9.823 1.818-11.199 4.293z" fill="#a55e83"/><linearGradient id="k" gradientUnits="userSpaceOnUse" x1="287.9" y1="327.094" x2="348.9" y2="142.095"><stop offset=".091" stop-color="#dd404c"/><stop offset=".43" stop-color="#e45875"/><stop offset=".763" stop-color="#f86c8e"/><stop offset="1" stop-color="#ff7397"/></linearGradient><path d="M326.698 145.322s-14.599-4.682-33.652 2.353c-19.054 7.035-17.728 69.226-27.74 74.845-10.012 5.619-56.528 21.237-56.476 39.347.052 18.11 23.637 52.938 74.162 67.739 50.526 14.801 89.016 5.84 111.01-27.046 8.116-12.135 13.487-28.862 16.205-46.235 4.647-29.708-1.838-55.453-12.247-69.231-2.916-3.859-11.997-15.953-16.964-19.293-23.133-15.556-54.298-22.479-54.298-22.479z" fill="url(#k)"/><linearGradient id="l" gradientUnits="userSpaceOnUse" x1="323.499" y1="335.821" x2="389.527" y2="162.737"><stop offset=".091" stop-color="#dd404c"/><stop offset="1" stop-color="#e45875"/></linearGradient><path d="M402.834 190.638c-15.533-25.121-28.73-29.831-46.218-36.104 10.089 5.075 19.145 11.073 24.235 17.81 8.248 10.918 14.364 29.953 15.669 50.369 1.305 20.417-3.052 42.058-9.219 55.215-4.873 10.396-12.939 25.75-35.586 34.205-28.377 10.595-53.343 19.085-89.206 8.579a149.425 149.425 0 0 1-3.81-1.182c7.965 4.258 16.959 8.019 27.044 10.973 50.526 14.801 97.438 6.06 119.432-26.826 21.995-32.884 10.195-92.764-2.341-113.039z" fill="url(#l)"/><defs><filter id="m" filterUnits="userSpaceOnUse" x="229.149" y="143.847" width="144.434" height="183.707"><feFlood result="back" flood-color="#fff" flood-opacity="1"/><feBlend in="SourceGraphic" in2="back"/></filter></defs><mask maskUnits="userSpaceOnUse" x="229.149" y="143.847" width="144.434" height="183.707" id="n"><g filter="url(#m)"><linearGradient id="o" gradientUnits="userSpaceOnUse" x1="285.133" y1="324.797" x2="338.128" y2="112.287"><stop offset="0" stop-color="#fff"/><stop offset=".93"/></linearGradient><path d="M373.583 165.069s0 38.229-7.095 81.188c-3.769 22.818-11.378 41.223-15.614 46.566-4.248 5.358-13.195 16.512-21.92 21.641-15.004 8.821-26.666 13.09-26.666 13.09s-35.728-5.813-43.589-8.022c-15.532-4.366-29.55-20.356-29.55-20.356s30.94-15.836 46.931-30.11c11.026-9.842 20.477-21.779 20.941-34.02.456-12.046 2.178-29.064 4.075-45.116 2.827-23.916 6.043-45.689 6.043-45.689s13.507-1.183 23.553.55c10.548 1.819 28.879 9.744 42.891 20.278z" mask="url(#n)" fill="url(#o)"/></g></mask><linearGradient id="p" gradientUnits="userSpaceOnUse" x1="295.291" y1="291.947" x2="316.134" y2="139.1"><stop offset=".091" stop-color="#dd404c"/><stop offset=".624" stop-color="#e45875"/></linearGradient><path d="M373.583 165.069s0 38.229-7.095 81.188c-3.769 22.818-11.378 41.223-15.614 46.566-4.248 5.358-13.195 16.512-21.92 21.641-15.004 8.821-26.666 13.09-26.666 13.09s-35.728-5.813-43.589-8.022c-15.532-4.366-29.55-20.356-29.55-20.356s30.94-15.836 46.931-30.11c11.026-9.842 20.477-21.779 20.941-34.02.456-12.046 2.178-29.064 4.075-45.116 2.827-23.916 6.043-45.689 6.043-45.689s13.507-1.183 23.553.55c10.548 1.819 28.879 9.744 42.891 20.278z" fill="url(#p)"/><linearGradient id="q" gradientUnits="userSpaceOnUse" x1="295.865" y1="123.959" x2="196.107" y2="242.388"><stop offset=".021" stop-color="#bf89df"/><stop offset=".14" stop-color="#bfaadf"/><stop offset=".215" stop-color="#d1c3e7"/><stop offset=".543" stop-color="#eeeef5"/><stop offset="1" stop-color="#fff"/></linearGradient><path d="M297.721 99.284c-1.158-1.11-3.26-1.56-5.767-1.235-5.314.689-12.197 4.745-15.597 12.254-1.105 2.561-14.344 33.069-17.854 47.728-2.655 11.092-6.467 21.901-9.016 24.766-2.928 3.291-39.724 42.231-39.724 42.231l3.369 8.061s48.432-29.496 52.579-35.261c19.824-27.56 36.606-85.08 36.113-86.949-.304-1.147-.43-2.29-.552-3.396-.306-2.758-.594-5.364-3.551-8.199z" fill="url(#q)"/><linearGradient id="r" gradientUnits="userSpaceOnUse" x1="-1264.558" y1="456.932" x2="-1218.091" y2="456.932" gradientTransform="matrix(-.9993 .0316 -.0382 1.0019 -1051.679 51.9)"><stop offset=".043" stop-color="#5e6ad6"/><stop offset="1" stop-color="#bddbf5"/></linearGradient><path d="M178.597 457.239s-10.066 10.463-19.506 16.559c-2.857 1.845-5.149 3.273-6.91 4.461-4.058 2.737-5.293 4.195-4.096 6.515.735 1.425 3.648 1.629 7.23 1.19 4.781-.585 10.754-2.313 14.333-3.807 2.805-1.171 4.952-3 6.798-4.629 2.275-2.007 4.092-3.711 6.117-3.509 3.669.366 8.232-1.918 9.651-2.929.821-.585 2.151-1.278 2.392-3.51.176-1.628-.228-4.074-1.83-7.893-1.725-4.113-4.807-4.995-7.658-4.733-3.427.315-6.521 2.285-6.521 2.285z" fill="url(#r)"/><linearGradient id="s" gradientUnits="userSpaceOnUse" x1="-1266.837" y1="468.957" x2="-1220.456" y2="468.957" gradientTransform="matrix(-1 .0699 0 1 -1049.003 122.572)"><stop offset=".043" stop-color="#5e6ad6"/><stop offset="1" stop-color="#bddbf5"/></linearGradient><path d="M201.474 491.124s-9.687 10.815-18.913 17.254c-2.447 1.708-4.471 3.08-6.092 4.236-4.49 3.202-5.874 4.74-4.518 7.127.791 1.392 3.72 1.482 7.295.907 4.767-.768 10.683-2.719 14.21-4.346 2.729-1.258 5.006-2.53 6.921-3.803 2.416-1.606 4.258-3.215 5.709-4.806 3.801-4.165 7.893-3.487 9.277-4.549.826-.634 2.291-.956 2.455-3.001.111-1.381-.372-3.548-2.045-7.127-1.885-4.032-5.007-4.793-7.854-4.421-3.421.447-6.445 2.529-6.445 2.529z" fill="url(#s)"/><linearGradient id="t" gradientUnits="userSpaceOnUse" x1="289.149" y1="218.955" x2="179.092" y2="522.259"><stop offset=".091" stop-color="#4a28c2"/><stop offset=".113" stop-color="#472bc6"/><stop offset=".135" stop-color="#3e33d1"/><stop offset=".155" stop-color="#2e40e4"/><stop offset=".156" stop-color="#2d41e5"/><stop offset=".24" stop-color="#2947e7"/><stop offset=".35" stop-color="#1e57eb"/><stop offset=".376" stop-color="#1b5ced"/><stop offset=".557" stop-color="#0e6ef3"/><stop offset=".57" stop-color="#0d70f3"/><stop offset=".925" stop-color="#70a6f9"/></linearGradient><path d="M314.285 251.829a.008.008 0 0 0 .002-.004l-.221-.112c-.026-.014-27.252-11.02-33.285-14.729-.769-.473-1.31-1.061-1.658-1.705-11.175 3.66-22.004 7.468-29.108 11.908-19.265 10.602-73.634 49.008-78.463 60.677-.235.568-.536 1.544-.893 2.876-1.251 10.479 7.937 146.501 7.937 146.501s2.02 1.93 6.615 1.608c3.064-.215 3.956-2.033 3.956-2.033s5.554-36.225 6.467-42.622c.913-6.397 8.216-57.569 6.941-73.577-.753-9.457-.24-17.33.307-22.201l.151-.333s56.155-26.435 75.382-36.708c-24.832 21.809-44.6 41.063-54.243 51.905-1.231 1.384-1.965 2.521-2.081 3.347-.292 2.069-1.93 8.792-4.41 18.386-1.165.253-12.081 101.528-16.207 136.113.692.613-.369.274.587.819 3.887 2.216 9.224.947 10.881-1.122 2.934-10.076 8.874-30.476 10.447-35.909 1.254-4.33 8.633-35.703 15.653-60.846 4.529-16.22 7.265-32.218 7.844-32.093 3.154-8.172 5.779-12.968 5.779-12.968l4.176-2.413c23.072-13.335 71.126-40.3 85.047-49.34-.173-.272 7.49-6.038 8.983-13.747.766-3.954 1.089-8.355 1.164-12.624-2.767-.995-34.643-17.438-37.75-19.054z" fill="url(#t)"/><linearGradient id="u" gradientUnits="userSpaceOnUse" x1="79.011" y1="290.813" x2="91.885" y2="290.813"><stop offset=".075" stop-color="#993be5"/><stop offset=".295" stop-color="#9237e2"/><stop offset=".446" stop-color="#8a32df"/><stop offset=".731" stop-color="#852fdd"/></linearGradient><path d="M91.885 263.717c-3.019 2.114-6.005 4.322-9.037 6.458l-3.838 45.473c2.115.756 4.227 1.51 6.337 2.261l6.538-54.192z" fill="url(#u)"/><path d="M84.925 321.416l.423-3.507c-2.11-.751-4.222-1.505-6.337-2.261L67.677 449.941l2.439-1.463 14.071-120.939 11.381-5.967c-2.159-.781-4.322-1.558-6.491-2.332l-4.152 2.176z" fill="#c078ff"/><linearGradient id="v" gradientUnits="userSpaceOnUse" x1="89.076" y1="293.846" x2="116.609" y2="293.846"><stop offset=".075" stop-color="#993be5"/><stop offset=".295" stop-color="#9237e2"/><stop offset=".446" stop-color="#8a32df"/><stop offset=".731" stop-color="#852fdd"/></linearGradient><path d="M100.648 258.103c-2.699 1.519-5.318 3.226-7.906 5.016l12.91 47.429-16.576 8.691c2.169.774 4.332 1.551 6.491 2.332l11.451-6.004 3.113 11.436c2.17.843 4.328 1.708 6.478 2.587l-15.961-71.487z" fill="url(#v)"/><path d="M110.131 327.003l24.541 93.66 2.506-.712-20.57-90.361a389.857 389.857 0 0 0-6.477-2.587z" fill="#c078ff"/><linearGradient id="w" gradientUnits="userSpaceOnUse" x1="291.751" y1="365.911" x2="309.551" y2="365.911"><stop offset=".075" stop-color="#993be5"/><stop offset=".295" stop-color="#9237e2"/><stop offset=".446" stop-color="#8a32df"/><stop offset=".731" stop-color="#852fdd"/></linearGradient><path d="M301.645 375.135c2.588-1.79 5.206-3.497 7.906-5.016l-4.574-20.488-10.982 5.973-2.244 26.586c3.032-2.136 6.018-4.345 9.037-6.458l.313-2.596.544 1.999z" fill="url(#w)"/><path d="M343.286 528.119l1.38-.723-35.115-157.277c-2.699 1.519-5.318 3.226-7.906 5.016l12.91 47.429-20.727 10.868 6.961-57.699c-3.019 2.114-6.005 4.322-9.037 6.458l-15.279 181.038 1.841-1.195 14.775-122.479 22.832-11.971 27.365 100.535z" fill="#c078ff"/><linearGradient id="x" gradientUnits="userSpaceOnUse" x1="27.118" y1="297.507" x2="377.213" y2="297.507"><stop offset=".032" stop-color="#812ddb"/><stop offset=".135" stop-color="#8a32df"/><stop offset=".411" stop-color="#9d3ee6"/><stop offset=".696" stop-color="#a845eb"/><stop offset="1" stop-color="#ac47ec"/></linearGradient><path fill="url(#x)" d="M149.366 203.439l-122.248 64.43v3.337l227.847 120.368 121.823-64.02.425-4.098z"/><linearGradient id="y" gradientUnits="userSpaceOnUse" x1="27.118" y1="295.673" x2="377.213" y2="295.673"><stop offset="0" stop-color="#d5adf3"/><stop offset="1" stop-color="#b479e3"/></linearGradient><path fill="url(#y)" d="M149.366 203.461l-122.248 64.43 227.847 119.995 122.248-64.43z"/><linearGradient id="z" gradientUnits="userSpaceOnUse" x1="153.709" y1="291.71" x2="372.653" y2="299.678"><stop offset="0" stop-color="#c9ccd3"/><stop offset="1" stop-color="#fff"/></linearGradient><path fill="url(#z)" d="M100.873 281.002l104.26 52.664 172.08-10.21-122.001-64.389-56.054-5.787z"/><linearGradient id="A" gradientUnits="userSpaceOnUse" x1="266.374" y1="272.906" x2="350.055" y2="272.906" gradientTransform="matrix(1 .1426 0 1 0 -133.797)"><stop offset="0" stop-color="#fff"/><stop offset=".457" stop-color="#eeeef5"/><stop offset=".726" stop-color="#d8cfeb"/><stop offset=".86" stop-color="#bfaadf"/><stop offset=".979" stop-color="#bf89df"/></linearGradient><path d="M319.051 98.631c8.29 3.241 19.783 11.045 26.315 24.403 4.444 9.089 9.527 57.913 10.852 95.853.622 17.818 1.047 31.097.329 41.798-.513 7.65-1.438 12.109-4.491 14.182-3.15 2.139-9.334 2.068-16.018.829-7.57-1.403-15.782-4.306-20.956-7.198-7.494-4.188-13.701-7.489-19.879-11.238a166.93 166.93 0 0 1-15.778-10.822c-9.861-7.603-5.773-13.575-2.401-27.997 2.729-11.669 5.183-25.103 2.131-41.242-4.503-23.806-6.299-61.51 6.571-76.942 1.659-1.99 7.296-5.305 10.092-6.081 8.386-2.326 17.09 2.054 23.233 4.455z" fill="url(#A)"/><linearGradient id="B" gradientUnits="userSpaceOnUse" x1="300.164" y1="82.634" x2="305.229" y2="122.481"><stop offset="0" stop-color="#db9969"/><stop offset=".241" stop-color="#dd9d69"/><stop offset=".467" stop-color="#e5a869"/><stop offset=".687" stop-color="#f1bb68"/><stop offset=".871" stop-color="#ffd168"/></linearGradient><path d="M289.562 86.961l5.809 24.243s.14 12.69 5.443 12.762c6.638.089 12.959-21.997 12.959-21.997l-9.593-32.924-14.618 17.916z" fill="url(#B)"/><linearGradient id="C" gradientUnits="userSpaceOnUse" x1="269.741" y1="31.462" x2="291.888" y2="-25.188" gradientTransform="matrix(.9911 -.1168 .0486 .9154 4.258 88.84)"><stop offset=".129" stop-color="#ffd168"/><stop offset=".452" stop-color="#eeb669"/><stop offset=".694" stop-color="#e4a769"/><stop offset=".75" stop-color="#df9f69"/><stop offset=".823" stop-color="#dc9a69"/><stop offset=".843" stop-color="#d59266"/><stop offset=".888" stop-color="#ca8761"/><stop offset=".935" stop-color="#c7835f"/></linearGradient><path d="M308.629 60.039c1.142 21.526-12.142 43.692-24.853 42.148-10.178-1.237-25.053-25.169-26.195-46.695s7.193-29.506 22.06-31.258c14.868-1.752 27.846 14.279 28.988 35.805z" fill="url(#C)"/><linearGradient id="D" gradientUnits="userSpaceOnUse" x1="249.776" y1="-16.089" x2="324.27" y2="-58.133" gradientTransform="matrix(.9808 -.2069 .1377 .9905 25.78 146.727)"><stop offset="0" stop-color="#ce684e"/><stop offset=".125" stop-color="#c3614d"/><stop offset=".405" stop-color="#b0564b"/><stop offset=".693" stop-color="#a54f49"/><stop offset="1" stop-color="#a14d49"/></linearGradient><path d="M314.907 46.099c-.06-4.509-.305-7.883-1.134-11.637-1.848-8.37-3.043-12.834-6.482-17.512a30.824 30.824 0 0 0-1.189-1.513c-7.577 8.613-18.001 14.923-26.321 22.822 5.36.094 10.623 1.709 14.754 6.143 2.765 2.969 4.436 6.743 5.824 9.847.818-1.358 1.921-2.236 3.136-2.313 2.498-.159 4.51 3.108 4.493 7.298-.017 4.19-2.056 7.715-4.554 7.875-.102.007-.2-.01-.3-.015 1.6 4.675 2.156 6.75 3.771 11.305.776-.997 4.644-7.325 5.9-11.363 1.507-4.844 2.29-6.978 2.102-20.937z" fill="url(#D)"/><path d="M289.774 10.673c-6.47 1.087-13.751 3.871-19.04 7.776-3.484 2.572-7.122 7.367-11.687 8.09-3.528.559-8.676-.464-6.914-4.882-8.173 5.105-6.959 19.531-1.014 26.097 4.38 4.838 11.802 4.052 17.624 3.461 5.132-.52 9.168-2.055 13.707-4.599 5.633-3.157 9.787-6.589 14.701-10.772 3.362-2.862 7.275-5.181 11-7.53 1.712-1.079 4.29-1.484 3.886-3.459-2.901-14.206-18.362-14.837-22.263-14.182z" fill="#823c3c"/><linearGradient id="E" gradientUnits="userSpaceOnUse" x1="246.331" y1="38.331" x2="304.424" y2="38.331"><stop offset="0" stop-color="#ce684e"/><stop offset=".125" stop-color="#c3614d"/><stop offset=".405" stop-color="#b0564b"/><stop offset=".693" stop-color="#a54f49"/><stop offset="1" stop-color="#a14d49"/></linearGradient><path d="M267.041 37.49c-9.08 3.027-17.309-3.274-18.282-12.487-4.244 6.456-2.588 17.302 2.346 22.751 4.38 4.838 11.802 4.052 17.624 3.461 5.132-.521 9.168-2.055 13.707-4.599 5.633-3.157 9.787-6.589 14.701-10.772 2.254-1.919 4.76-3.587 7.287-5.19-10.6-4.996-25.896 3.964-37.383 6.836z" fill="url(#E)"/><linearGradient id="F" gradientUnits="userSpaceOnUse" x1="27.118" y1="329.722" x2="254.965" y2="329.722"><stop offset="0" stop-color="#dfc2fd"/><stop offset="1" stop-color="#c492eb"/></linearGradient><path fill="url(#F)" d="M254.965 387.886v3.688L27.118 271.206v-3.337z"/><path d="M273.697 299.798l-65.078 34.66s-3.755 2.163-7.611.586-94.92-49.747-94.92-49.747-5.337-2.673 2.174-6.999c7.511-4.326 62.936-34.031 62.936-34.031s1.607-.866 4.765-.474c2.245.278 5.274 1.192 9.066 3.505 9.127 5.565 88.645 45.322 88.645 45.322s2.12 1.157 2.779 2.801c.507 1.271.142 2.833-2.756 4.377z" fill="#afacc6"/><linearGradient id="G" gradientUnits="userSpaceOnUse" x1="-158.644" y1="287.702" x2="-158.144" y2="287.702"><stop offset=".134" stop-color="#dee0db"/><stop offset=".769" stop-color="#dddfe4"/></linearGradient><path d="M273.697 297.844l-65.078 34.66s-3.755 2.163-7.611.586-94.92-49.747-94.92-49.747-5.337-2.673 2.174-6.999c7.511-4.326 62.936-34.031 62.936-34.031s1.607-.866 4.765-.474c2.245.278 5.274 1.192 9.066 3.505 9.127 5.565 88.645 45.322 88.645 45.322s2.12 1.157 2.779 2.8c.507 1.272.142 2.835-2.756 4.378z" fill="url(#G)"/><path fill="#a7b2bc" d="M160.624 258.93l-39.613 22.903 80.139 41.56 42.712-21.904z"/><path d="M201.576 269.955s14.431 7.634 15.042 7.884c.611.25 1.206-.093 1.206-.093l10.313-5.493c.459-.245.517-.492.437-.694-.104-.261-.44-.444-.44-.444s-12.602-6.301-14.048-7.182c-.601-.367-1.081-.511-1.437-.555-.5-.062-.755.075-.755.075s-8.783 4.707-9.974 5.393c-1.19.685-.344 1.109-.344 1.109z" fill="#c1cad3"/><linearGradient id="H" gradientUnits="userSpaceOnUse" x1="316.213" y1="192.075" x2="277.901" y2="180.437" gradientTransform="rotate(-4.911 503.878 -51.842)"><stop offset=".038" stop-color="#bfaadf"/><stop offset=".667" stop-color="#f1f1f7"/><stop offset="1" stop-color="#fff"/></linearGradient><path d="M333.878 120.23c-2.547.967-5.23 3.822-7.335 9.898-1.049 3.2-6.601 23.934-12.583 43.283-5.127 16.579-10.57 32.141-13.767 34.782-.634.524-11.557 11.524-23.655 23.743-15.58 15.736-33.107 32.836-33.107 32.836l.465 11.078s37.513-22.648 60.975-38.423c9.192-6.181 16.228-11.306 18.005-13.602 4.828-6.235 8.865-13.822 11.605-19.725 2.994-6.45 5.453-12.401 7.469-17.86 10.899-29.517 8.471-44.558 8.203-46.443-.806-5.684-1.239-10.787-5.361-17.896-2.142-3.693-7.735-2.878-10.914-1.671z" fill="url(#H)"/><linearGradient id="I" gradientUnits="userSpaceOnUse" x1="174.575" y1="133.373" x2="222.917" y2="133.373" gradientTransform="matrix(.9448 -.3349 .2676 .9635 .545 219.45)"><stop offset=".129" stop-color="#ffd168"/><stop offset=".415" stop-color="#f0b969"/><stop offset=".618" stop-color="#e9ae69"/><stop offset=".674" stop-color="#e5a869"/><stop offset=".832" stop-color="#dd9d69"/><stop offset="1" stop-color="#db9969"/></linearGradient><path d="M230.851 266.76s-4.88 1.525-9.883 3.63c-4.14 1.742-9.934 4.15-11.546 6.151-1.006 1.249-3.309 3.848-5.274 6.26-1.964 2.412-3.59 4.638-3.243 5.141.657.951 1.632.999 2.709.547 1.794-.752 3.866-2.889 5.204-4.536l2.141-2.635s-3.89 4.259-6.396 8.014c-.47.704-.891 1.391-1.229 2.028-.479.905-.79 1.71-.833 2.327-.125 1.787 1.185 1.904 2.647 1.152 1.293-.665 2.754-2.117 2.754-2.117s-2.943 3.286-1.815 4.872c.625.878 2.18.089 3.674-1.017 1.745-1.291 3.407-3.013 3.407-3.013s-2.066 3.061.753 3.591c.44.083 1.399-.528 2.597-1.498a46.595 46.595 0 0 0 2.087-1.815c3.51-3.216 7.602-7.61 7.602-7.61s12.872-5.364 17.69-10.424c4.818-5.061-.465-11.036-.465-11.036l-12.581 1.988z" fill="url(#I)"/><linearGradient id="J" gradientUnits="userSpaceOnUse" x1="177.222" y1="210.493" x2="214.757" y2="210.493" gradientTransform="matrix(1 -.0699 0 1 0 49.655)"><stop offset=".129" stop-color="#ffd168"/><stop offset=".205" stop-color="#faca68"/><stop offset=".515" stop-color="#eab169"/><stop offset=".704" stop-color="#e4a869"/><stop offset=".847" stop-color="#dd9d69"/><stop offset="1" stop-color="#db9969"/></linearGradient><path d="M214.471 230.013c-.482-1.537-1.573-2.787-2.799-3.761-.183-.145-1.637-1.376-1.908-1.224l-11.561 6.456s-4.224 3.179-8.365 6.923c-3.427 3.098-6.798 6.582-7.674 8.971-1.094 2.983-2.889 6.583-4.292 9.287-1.078 2.079-.732 2.728.441 2.99 1.262.282 3.226-1.445 4.396-4.598l.313-.844a8.94 8.94 0 0 0-.082.452 52.257 52.257 0 0 1-.634 1.35c-.403.788-.598 4.579-.467 6.203.131 1.624.718 4.334 2.07 3.447.567-.372.867-1.207 1.026-2.049.235 1.038 1.027 3.888 2.652 3.882 2.351-.009 2.351-6.565 2.351-6.565s2.743 6.873 5.079 4.906c1.353-1.14.42-2.732.016-4.544-.496-2.226-1.438-2.423-.784-4.697.414-1.439 5.619-7.086 7.216-7.59 0 0-.424 5.401.36 8.743.257 1.096.406 1.885 2.148 1.46 2.123-.517 1.827-2.959 1.915-4.066.181-2.276.326-3.582.543-5.837.24-2.491 1.302-5.11 2.976-7.045 2.726-3.154 6.408-7.965 5.064-12.25z" fill="url(#J)"/><defs><filter id="K" filterUnits="userSpaceOnUse" x="101.115" y="203.439" width="144.722" height="124.311"><feFlood result="back" flood-color="#fff" flood-opacity="1"/><feBlend in="SourceGraphic" in2="back"/></filter></defs><mask maskUnits="userSpaceOnUse" x="101.115" y="203.439" width="144.722" height="124.311" id="L"><g filter="url(#K)"><radialGradient id="M" cx="128.089" cy="232.03" r="123.256" gradientUnits="userSpaceOnUse"><stop offset=".005" stop-color="#666"/><stop offset=".995"/></radialGradient><path d="M104.249 235.278L258.683 34.462s40.755 9.78 38.396 120.073c-1.411 65.942-40.618 142.972-40.618 142.972l-52.963 30.244-99.249-92.473z" mask="url(#L)" fill="url(#M)"/></g></mask><radialGradient id="N" cx="155.795" cy="275.179" r="84.174" gradientUnits="userSpaceOnUse"><stop offset=".21" stop-color="#fff"/><stop offset=".995" stop-color="#fff"/></radialGradient><path fill="url(#N)" d="M101.115 229.482l48.251-26.043 96.472 50.723-17.701 18.091-24.638 55.497z"/><path d="M93.53 203.447l8.365 73.257s.348 4.32 3.834 6.601c3.486 2.281 94.808 49.96 94.808 49.96s5.228 2.879 4.531-5.76c-.697-8.639-7.668-71.135-7.668-71.135s-.198-1.815-2.312-4.193c-1.503-1.691-3.973-3.667-8.029-5.479-9.76-4.36-87.605-47.301-87.605-47.301s-2.155-1.09-3.882-.7c-1.335.3-2.414 1.487-2.042 4.75z" fill="#afacc6"/><linearGradient id="O" gradientUnits="userSpaceOnUse" x1="96.689" y1="206.597" x2="205.063" y2="334.676"><stop offset=".043" stop-color="#fff"/><stop offset=".409" stop-color="#eaecee"/><stop offset=".989" stop-color="#b3b5d3"/></linearGradient><path d="M91.96 203.694l8.365 73.257s.348 4.32 3.834 6.601c3.486 2.281 94.808 49.96 94.808 49.96s5.228 2.879 4.531-5.76c-.697-8.639-7.668-71.135-7.668-71.135s-.198-1.814-2.312-4.193c-1.503-1.691-3.973-3.667-8.029-5.479-9.76-4.36-87.605-47.301-87.605-47.301s-2.155-1.09-3.882-.7c-1.335.3-2.415 1.487-2.042 4.75z" fill="url(#O)"/><ellipse transform="rotate(-7.161 145.752 249.12)" cx="145.767" cy="249.215" rx="2.941" ry="5.587" fill="#fff"/></g><g clip-path="url(#b)"><defs><filter id="P" filterUnits="userSpaceOnUse" x="293.692" y="488.664" width="93.507" height="45.882"><feFlood result="back" flood-color="#fff" flood-opacity="1"/><feBlend in="SourceGraphic" in2="back"/></filter></defs><mask maskUnits="userSpaceOnUse" x="293.692" y="488.664" width="93.507" height="45.882" id="Q"><g filter="url(#P)"><linearGradient id="R" gradientUnits="userSpaceOnUse" x1="189.344" y1="363.708" x2="284.039" y2="363.708" gradientTransform="rotate(-3.859 2483.705 -1092.464)"><stop offset=".038" stop-color="#fff"/><stop offset=".215" stop-color="#fff"/><stop offset=".613" stop-color="#e6e6e6"/></linearGradient><path d="M377.151 488.664l-46.942 31.35-29.675 6.932s-7.274-2.162-6.822 5.235c.167 2.728 9.372 2.346 9.372 2.346l43.194-3.267 40.92-20.139-10.047-22.457z" mask="url(#Q)" fill="url(#R)"/></g></mask><linearGradient id="S" gradientUnits="userSpaceOnUse" x1="189.344" y1="363.708" x2="284.039" y2="363.708" gradientTransform="rotate(-3.859 2483.705 -1092.464)"><stop offset=".038" stop-color="#dc7242"/><stop offset=".215" stop-color="#dc7242"/><stop offset=".613" stop-color="#e2a248"/></linearGradient><path d="M377.151 488.664l-46.942 31.35-29.675 6.932s-7.274-2.162-6.822 5.235c.167 2.728 9.372 2.346 9.372 2.346l43.194-3.267 40.92-20.139-10.047-22.457z" fill="url(#S)"/><path d="M451.453 440.401s13.541-3.725 15.515-17.795c1.974-14.069-10.684-19.359-10.684-19.359s11.89.7 15.016 15.76c3.127 15.06-6.137 22.917-11.488 25.641-5.351 2.725-8.359-4.247-8.359-4.247z" fill="#ba662d"/><linearGradient id="T" gradientUnits="userSpaceOnUse" x1="301.872" y1="504.181" x2="421.411" y2="504.181" gradientTransform="scale(-1 1) rotate(10.819 63.65 -3593.803)"><stop offset="0" stop-color="#ffbd67"/><stop offset="1" stop-color="#dc7242"/></linearGradient><path d="M407.757 525.36l19.771-14.87 10.276-6.455 28.379-20.412 1.54-27.663s-1.563-8.209-7.361-13.78c-8.808-8.463-28.067-1.978-38.091 6.324-10.024 8.303-25.876 17.246-25.876 17.246s-22.999-.016-26.488 2.537c-21.236 15.54-15.112 33.061-15.112 33.061s9.511 33.935 24.043 34.363 28.919-10.351 28.919-10.351z" fill="url(#T)"/><linearGradient id="U" gradientUnits="userSpaceOnUse" x1="337.864" y1="384.377" x2="431.49" y2="384.377" gradientTransform="rotate(-8.231 1407.242 669.52)"><stop offset=".038" stop-color="#dc7242"/><stop offset=".215" stop-color="#dc7242"/><stop offset="1" stop-color="#df954f"/></linearGradient><path d="M398.581 512.648l-53.308 24.248-29.119 9.496s-7.396-1.523-6.45 5.815c.349 2.706 9.5 1.524 9.5 1.524l42.841-7.019s33.036-9.103 35.991-21.357c1.464-6.068.545-12.707.545-12.707z" fill="url(#U)"/><path d="M375.626 428.424v-8.537l-7.042-3.653s-5.342.861-12.303 9.896c-6.961 9.035-5.3 10.031-.982 13.685 4.318 3.653 13.617-11.791 13.617-11.791l6.71.4z" fill="#822810"/><linearGradient id="V" gradientUnits="userSpaceOnUse" x1="-1141.804" y1="1819.705" x2="-1120.62" y2="1764.174" gradientTransform="rotate(68.863 585.614 2221.47)"><stop offset="0" stop-color="#ffbd67"/><stop offset="1" stop-color="#dc7242"/></linearGradient><path d="M392.681 517.235l3.012-30.095s-7.106-40.035-9.698-50.489c0 0-12.459-11.146-16.942-11.508-4.483-.362-10.84 2.107-10.84 2.107l-23.888-13.858s.241 11.054 2.65 21.687c2.409 10.633 9.702 6.748 13.343 18.375 3.217 10.275 3.436 17.295 4.321 32.235 12.368 5.912 38.042 31.546 38.042 31.546z" fill="url(#V)"/><path d="M334.325 413.393l7.425 4.307-6.692 5.658s-.724-2.152-1.177-4.473c-.453-2.321-.636-4.813.444-5.492zm33.928 24.745c.171 1.397 1.192 2.358 2.281 2.146s1.834-1.516 1.663-2.913c-.171-1.397-1.192-2.358-2.281-2.146-1.089.212-1.834 1.517-1.663 2.913z" fill="#844b00"/><linearGradient id="W" gradientUnits="userSpaceOnUse" x1="-1123.013" y1="1806.837" x2="-1074.568" y2="1806.837" gradientTransform="rotate(68.863 585.614 2221.47)"><stop offset="0" stop-color="#ffbd67"/><stop offset=".968" stop-color="#fcb764"/></linearGradient><path fill="url(#W)" d="M375.51 521.484l1.505-26.6-22.765-15.809-5.084 18.258 13.584 30.395z"/><linearGradient id="X" gradientUnits="userSpaceOnUse" x1="367.64" y1="465.728" x2="404.529" y2="465.728" gradientTransform="matrix(1 -.0091 .0091 1 -18.396 7)"><stop offset=".075" stop-color="#70a6f9"/><stop offset=".973" stop-color="#0d70f3"/></linearGradient><path d="M353.478 468.987s3.008 7.979 18.717 5.556c13.524-2.086 18.071-16.988 18.071-16.988s-1.922 18.177-16.159 22.108c-14.234 3.929-20.118-4.003-20.118-4.003l-.511-6.673z" fill="url(#X)"/><linearGradient id="Y" gradientUnits="userSpaceOnUse" x1="812.855" y1="484.425" x2="838.977" y2="484.425" gradientTransform="rotate(-12.327 636.47 2230.017)"><stop offset=".038" stop-color="#dc7242"/><stop offset=".306" stop-color="#de8f4d"/><stop offset="1" stop-color="#df954f"/></linearGradient><path d="M455.281 473.72c1.665.08 3.429.821 5.143 2.036-2.8-3.531-6.201-5.88-9.266-6.027-6.927-.331-12.945 8.409-13.441 19.521-.187 4.186.438 8.111 1.658 11.396-.879-17.114 8.979-27.257 15.906-26.926z" fill="url(#Y)"/><path d="M379.769 431.471h7.092l5.562 4.646-3.774 25.251s-9.937 1.672-8.88-7.854c1.056-9.527 3.053-16.154 3.053-16.154l-3.053-5.889z" fill="#ba662d"/></g><g clip-path="url(#b)"><linearGradient id="Z" gradientUnits="userSpaceOnUse" x1="235.196" y1="350.575" x2="340.842" y2="350.575"><stop offset="0" stop-color="#c9ccd3"/><stop offset=".78" stop-color="#fff"/></linearGradient><path fill="url(#Z)" d="M235.196 352.297l1.651 7.024 73.017-1.166 30.978-16.326-91.935 5.877z"/><linearGradient id="aa" gradientUnits="userSpaceOnUse" x1="245.838" y1="335.422" x2="256.882" y2="335.422"><stop offset=".107" stop-color="#e14f65"/><stop offset="1" stop-color="#e15066"/></linearGradient><path d="M248.217 346.901c-1.46 0-2.248-.799-2.379-.944l1.906-2.15c-.05-.04.124.071.447.072.43 0 1.179-.163 2.309-.967 2.564-1.826 4.742-10.087 3.157-14.261-.332-.874-.767-1.393-1.33-1.586-1.093-.378-2.597.448-3.081.798l-1.485-2.53c.283-.208 2.836-2.013 5.342-1.167.938.316 2.228 1.147 3.046 3.303 2.121 5.592-.69 15.499-4.196 17.995-1.537 1.095-2.781 1.437-3.736 1.437z" fill="url(#aa)"/><linearGradient id="ab" gradientUnits="userSpaceOnUse" x1="222.586" y1="338.351" x2="251.108" y2="338.351"><stop offset=".107" stop-color="#e14f65"/><stop offset=".285" stop-color="#e45875"/><stop offset=".5" stop-color="#f86c8e"/><stop offset="1" stop-color="#e15066"/></linearGradient><path d="M222.586 317.381l3.598 36.549c0 2.977 4.774 5.39 10.663 5.39s10.663-2.413 10.663-5.39l3.598-36.549h-28.522z" fill="url(#ab)"/><linearGradient id="ac" gradientUnits="userSpaceOnUse" x1="222.586" y1="317.381" x2="251.108" y2="317.381"><stop offset="0" stop-color="#f86c8e"/><stop offset=".344" stop-color="#f589ab"/><stop offset=".597" stop-color="#f48db0"/><stop offset="1" stop-color="#ec7491"/></linearGradient><ellipse cx="236.847" cy="317.381" rx="14.261" ry="7.461" fill="url(#ac)"/><path d="M225.189 321.916c2.607 1.776 6.695 2.926 11.307 2.926 5.05 0 9.477-1.377 12.011-3.449-1.762-2.343-6.234-4.012-11.487-4.012-5.638 0-10.378 1.92-11.831 4.535z" fill="#a55e83"/></g><g clip-path="url(#b)"><linearGradient id="ad" gradientUnits="userSpaceOnUse" x1="285.166" y1="324.97" x2="392.747" y2="324.97"><stop offset=".075" stop-color="#70a6f9"/><stop offset=".973" stop-color="#0d70f3"/></linearGradient><path fill="url(#ad)" d="M261.724 328.745l47.228-24.872 7.759 3.966 25.339 13.355-47.228 24.873-7.759-3.967z"/><linearGradient id="ae" gradientUnits="userSpaceOnUse" x1="294.822" y1="338.246" x2="343.474" y2="338.246"><stop offset=".306" stop-color="#3887f6"/><stop offset="1" stop-color="#0d70f3"/></linearGradient><path d="M342.05 330.426s1.424-2.14 1.424-4.751-1.424-4.481-1.424-4.481l-47.228 24.872s1.832 1.887 1.658 4.672-1.658 4.559-1.658 4.559l47.228-24.871z" fill="url(#ae)"/><linearGradient id="af" gradientUnits="userSpaceOnUse" x1="261.724" y1="342.022" x2="296.493" y2="342.022"><stop offset=".306" stop-color="#3887f6"/><stop offset="1" stop-color="#0d70f3"/></linearGradient><path d="M261.724 328.745v9.231l33.098 17.321s1.793-1.506 1.665-5.124c-.108-3.038-1.665-4.107-1.665-4.107l-33.098-17.321z" fill="url(#af)"/><path d="M261.724 329.785v7.356l32.445 16.929s1.416-1.189 1.315-4.047c-.085-2.399-1.315-3.244-1.315-3.244l-32.445-16.994z" fill="#fff"/></g></svg>