<svg xmlns="http://www.w3.org/2000/svg" viewBox="0 0 154 160"><path d="M147.562 107.629L92.329 77.883c-.43-.232.709-74.139.709-74.139 0-3.122-1.842-4.579-4.115-3.253l-16.28 9.492c-.22.078-.442.165-.673.299L9.404 46.763c-2.273 1.325-4.115 4.93-4.115 8.052v67.446c0 1.955.704 4.545 3.875 6.933l55.233 29.747c2.557 1.377 6.377 1.417 8.533.089l59.353-36.556c.219-.135.394-.284.563-.435l15.443-9.512c2.154-1.328 1.83-3.521-.727-4.898z" fill="#c9cfd3"/><path fill="#edf1fc" d="M11.515 57.528l76.481-43.946.057 62.542-76.538 44.712z"/><path d="M87.741 130.456l3.123-1.961a.812.812 0 0 1 .113-.09l12.001-7.537c.436-.274 1.228-.266 1.769.017l11.693 6.119c.541.283.627.735.191 1.009l-3.123 1.961a.812.812 0 0 1-.113.09l-12.001 7.537c-.436.274-1.228.266-1.769-.017l-11.693-6.119c-.541-.283-.627-.735-.191-1.009zm35.407-27.423L99.652 91.186c-1.088-.548-2.679-.563-3.555-.033L31.57 129.947c-.876.53-.704 1.404.383 1.953l23.496 11.847c1.088.548 2.679.563 3.555.033 0 0 45.025-27.01 45.092-27.07l12.933-7.754 6.502-3.97c.876-.53.704-1.404-.383-1.953z" fill="#b5bcd6"/><path fill="#ccd7ed" d="M97.4 14.657L23.955 58.565l-.148 65.428 1.294.684 73.668-44.138V15.381z"/><path fill="#fff" d="M25.101 59.519v65.158l73.668-44.138V15.381z"/><path fill="#663eff" d="M34.346 67.622l55.178-33.06v-6.287l-55.178 33.06z"/><path d="M69.603 76.628L34.38 97.732v2.247L69.578 78.89c.016-.754.024-1.508.025-2.262zm-.096 5.142l-13.025 7.804v2.247l12.979-7.776c.011-.758.027-1.516.046-2.275zM34.38 110.407l30.065-18.013v-2.247L34.38 108.16zm0-5.344l16.607-9.95v-2.247l-16.607 9.95zM75.184 90.48l14.34-8.71-.034-17.057-14.306 8.571z" fill="#ccd7ed"/><path fill="#ac55ff" d="M89.524 39.368L34.38 71.579l-.034 17.609v6.287l55.178-33.06z"/><path d="M44.846 77.489l9.336-10.739.062 2.297-7.07 7.916.001.043 7.256-1.025.063 2.297-9.597 1.075zm18.136-19.577L59.195 76.25l-1.987 1.24 3.786-18.338zm15.389-.373l-.001-.043-7.414 1.123-.062-2.297 9.595-1.139.054 1.993-9.337 10.674-.062-2.297z" fill="#fff"/><path fill="#f2f4f7" d="M101.65 73.916l7.433 4.397 7.433-4.397-7.433-4.393z"/><path fill="#ac54ff" d="M101.65 73.916v34.494l7.433 4.397 7.433-4.397V73.916z"/><linearGradient id="a" gradientUnits="userSpaceOnUse" x1="101.65" y1="73.918" x2="116.516" y2="73.918"><stop offset="0" stop-color="#b479e3"/><stop offset=".426" stop-color="#bc86e7"/><stop offset="1" stop-color="#d5adf3"/></linearGradient><path fill="url(#a)" d="M101.65 73.916l7.433 4.397 7.433-4.397-7.433-4.393z"/><path fill="#7634da" d="M109.083 112.807V78.313l7.433-4.397v34.494z"/><path fill="#ac54ff" d="M119.504 66.268v52.504l7.433 4.397 7.433-4.397V66.268z"/><path fill="#f2f4f7" d="M119.504 66.268l7.433 4.397 7.433-4.397-7.433-4.392z"/><path fill="#7634da" d="M126.937 70.665v52.504l7.433-4.397V66.268z"/><linearGradient id="b" gradientUnits="userSpaceOnUse" x1="119.504" y1="66.27" x2="134.37" y2="66.27"><stop offset="0" stop-color="#b479e3"/><stop offset=".426" stop-color="#bc86e7"/><stop offset="1" stop-color="#d5adf3"/></linearGradient><path fill="url(#b)" d="M119.504 66.268l7.433 4.397 7.433-4.397-7.433-4.392z"/><path fill="#f2f4f7" d="M83.795 81.567l7.433 4.397 7.433-4.397-7.433-4.392z"/><path fill="#ac54ff" d="M83.795 81.567V97.54l7.433 4.397 7.433-4.72v-15.65z"/><linearGradient id="c" gradientUnits="userSpaceOnUse" x1="83.795" y1="81.569" x2="98.661" y2="81.569"><stop offset="0" stop-color="#b479e3"/><stop offset=".426" stop-color="#bc86e7"/><stop offset="1" stop-color="#d5adf3"/></linearGradient><path fill="url(#c)" d="M83.795 81.567l7.433 4.397 7.433-4.397-7.433-4.392z"/><path fill="#7634da" d="M91.228 101.937V85.964l7.433-4.397-.048 15.87z"/><ellipse cx="70.547" cy="111.67" rx="14.059" ry="8.251" fill="#b5bcd6"/><path d="M59.032 115.794c-1.14-.924-1.949-1.959-2.401-3.06.15 1.745 1.213 3.561 2.907 4.933.37.3.778.58 1.212.843v-1.56a12.182 12.182 0 0 1-1.718-1.156z" fill="#f2f4f7"/><path d="M60.749 116.951v1.56c.734.445 1.555.835 2.437 1.165v-1.635c-.868-.31-1.689-.67-2.437-1.09z" fill="#fff"/><path d="M70.444 119.229c-2.621 0-5.103-.421-7.257-1.188v1.635c2.139.8 4.652 1.247 7.256 1.247l.001.203v-.203c.428 0 .852-.015 1.274-.038v-1.692c-.422.022-.846.036-1.274.036z" fill="#f2f4f7"/><path d="M71.718 119.193v1.692c2.024-.11 3.962-.485 5.719-1.1-.009-.547-.017-1.093-.023-1.638-1.763.585-3.691.94-5.696 1.046z" fill="#fff"/><path d="M78.99 117.545c-.507.223-1.034.422-1.575.601.005.545.013 1.091.023 1.638.42-.147.832-.303 1.23-.478 2.75-1.208 4.957-3.386 5.621-5.55.223-.727.297-1.029.318-1.304-.789 2.036-2.745 3.831-5.617 5.093z" fill="#f2f4f7"/><path d="M79.039 116.529c-6.343 2.745-15.224 1.986-19.835-1.695-4.612-3.681-3.208-8.891 3.135-11.636s15.224-1.986 19.835 1.695c4.611 3.682 3.208 8.891-3.135 11.636z" fill="#edf1fc"/><path d="M62.634 113.136l1.836-.795c-.866-.714-1.435-1.575-1.51-2.2l1.596-.24c.112.609.538 1.401 1.392 2.083 1.083.864 2.568 1.123 3.614.67 1.01-.437 1.039-1.182.461-2.321-.821-1.56-.919-2.7.678-3.391 1.524-.66 3.581-.442 5.244.547l1.836-.795.961.767-1.781.771c.863.734 1.195 1.36 1.34 1.861l-1.593.22c-.1-.351-.303-1.033-1.279-1.812-1.174-.937-2.461-.925-3.214-.599-.936.405-.849 1.062-.202 2.415.8 1.588.657 2.626-.978 3.333-1.469.636-3.666.554-5.531-.573l-1.91.826-.96-.767zm24.677-2.531l.201 17.106s.917 3.316 6.097 5.173c1.973.708 4.566 1.203 7.962 1.223 3.838.022 6.651-.614 8.705-1.502 4.534-1.958 5.371-5.137 5.371-5.137l.343-17.028s-.493-3.379-5.341-5.406c-2.078-.869-4.956-1.49-8.939-1.49-4.478 0-7.573.804-9.709 1.868-4.196 2.093-4.69 5.193-4.69 5.193z" fill="#b5bcd6"/><path d="M89.927 124.753c-1.146-.929-1.96-1.97-2.415-3.077.151 1.755 1.22 3.581 2.924 4.961.372.302.783.583 1.219.848v-1.568a12.535 12.535 0 0 1-1.728-1.164zm11.477 3.453c-2.636 0-5.132-.424-7.298-1.195v1.644c2.151.805 4.679 1.254 7.297 1.254l.001.204v-.204c.431 0 .857-.015 1.281-.038v-1.702c-.424.023-.851.037-1.281.037z" fill="#f2f4f7"/><path d="M91.654 125.916v1.568c.738.448 1.564.839 2.451 1.172v-1.644a15.827 15.827 0 0 1-2.451-1.096zm11.031 2.254v1.702c2.108-.115 4.125-.515 5.941-1.173l-.046-1.639c-1.818.622-3.815 1-5.895 1.11z" fill="#fff"/><path d="M109.998 126.514c-.457.201-.932.38-1.417.546l.046 1.639c.356-.129.707-.265 1.047-.414 2.766-1.214 4.985-3.405 5.653-5.581.225-.732.299-1.035.32-1.312-.794 2.047-2.761 3.853-5.649 5.122zm-20.071.759c-1.146-.929-1.96-1.97-2.415-3.077.151 1.755 1.22 3.581 2.924 4.961.372.302.783.583 1.219.848v-1.569a12.267 12.267 0 0 1-1.728-1.163z" fill="#f2f4f7"/><path d="M91.654 128.437v1.569c.738.448 1.563.839 2.451 1.172v-1.644a16.118 16.118 0 0 1-2.451-1.097z" fill="#fff"/><path d="M101.404 130.727c-2.636 0-5.132-.424-7.298-1.195v1.644c2.151.805 4.679 1.254 7.297 1.254l.001.204v-.204c.431 0 .857-.015 1.281-.038v-1.702c-.424.023-.851.037-1.281.037z" fill="#f2f4f7"/><path d="M102.685 130.691v1.702c2.133-.116 4.173-.523 6.006-1.196-.013-.547-.026-1.094-.041-1.641-1.838.637-3.859 1.024-5.965 1.135z" fill="#fff"/><path d="M109.998 129.034c-.435.191-.888.362-1.348.522.015.547.028 1.094.041 1.641.334-.123.663-.251.983-.391 2.766-1.214 4.985-3.405 5.653-5.581.225-.732.299-1.035.32-1.312-.794 2.047-2.761 3.852-5.649 5.121zm-8.594-3.348c-2.636 0-5.132-.424-7.298-1.195v1.644c2.151.805 4.679 1.254 7.297 1.254h.001c.431 0 .857-.015 1.281-.038v-1.702c-.424.023-.851.037-1.281.037z" fill="#f2f4f7"/><path d="M91.654 123.395v1.569c.738.448 1.564.839 2.451 1.172v-1.644a15.925 15.925 0 0 1-2.451-1.097z" fill="#fff"/><path d="M89.927 122.232c-1.146-.929-1.96-1.97-2.415-3.077.151 1.755 1.22 3.581 2.924 4.961.372.302.783.583 1.219.848v-1.569a12.441 12.441 0 0 1-1.728-1.163z" fill="#f2f4f7"/><path d="M102.685 125.649v1.702c2.082-.113 4.073-.505 5.871-1.148l-.045-1.64c-1.799.608-3.773.978-5.826 1.086z" fill="#fff"/><path d="M109.998 123.993c-.479.21-.977.398-1.486.57l.045 1.64c.38-.136.755-.28 1.117-.438 2.766-1.214 4.985-3.405 5.653-5.581.225-.732.299-1.035.32-1.311-.794 2.045-2.761 3.851-5.649 5.12zm-20.071-6.803c-1.146-.929-1.96-1.97-2.415-3.077.151 1.755 1.22 3.581 2.924 4.961.372.302.783.583 1.219.848v-1.569a12.267 12.267 0 0 1-1.728-1.163z" fill="#f2f4f7"/><path d="M91.654 118.353v1.569c.738.448 1.563.839 2.451 1.172v-1.644a15.925 15.925 0 0 1-2.451-1.097z" fill="#fff"/><path d="M101.404 120.644c-2.636 0-5.132-.424-7.298-1.195v1.644c2.151.805 4.679 1.254 7.297 1.254l.001.204v-.204c.431 0 .857-.015 1.281-.038v-1.702c-.424.023-.851.037-1.281.037z" fill="#f2f4f7"/><path d="M102.685 120.608v1.702c2.035-.111 3.985-.488 5.752-1.107-.009-.55-.017-1.099-.023-1.647-1.774.588-3.713.945-5.729 1.052z" fill="#fff"/><path d="M109.998 118.951c-.51.224-1.04.424-1.584.605.005.548.013 1.097.023 1.647a17.24 17.24 0 0 0 1.237-.481c2.766-1.214 4.985-3.405 5.653-5.581.225-.732.299-1.035.32-1.312-.794 2.048-2.761 3.853-5.649 5.122zm-20.071.76c-1.146-.929-1.96-1.97-2.415-3.077.151 1.755 1.22 3.581 2.923 4.961.372.302.783.583 1.219.848v-1.569a12.49 12.49 0 0 1-1.727-1.163z" fill="#f2f4f7"/><path d="M91.654 120.874v1.569c.738.448 1.564.839 2.451 1.172v-1.644a15.925 15.925 0 0 1-2.451-1.097z" fill="#fff"/><path d="M101.404 123.165c-2.636 0-5.132-.424-7.298-1.195v1.644c2.151.805 4.679 1.254 7.297 1.254l.001.204v-.204c.431 0 .857-.015 1.281-.038v-1.702c-.424.023-.851.037-1.281.037zm8.594-1.693c-.497.218-1.014.414-1.544.591l.036 1.642a17.39 17.39 0 0 0 1.183-.462c2.766-1.214 4.985-3.405 5.653-5.581.225-.732.299-1.035.32-1.312-.793 2.047-2.76 3.853-5.648 5.122z" fill="#f2f4f7"/><path d="M102.685 123.129v1.702c2.056-.112 4.024-.496 5.805-1.125l-.036-1.642c-1.785.595-3.738.958-5.769 1.065z" fill="#fff"/><path d="M89.927 129.794c-1.146-.929-1.96-1.97-2.415-3.077.151 1.755 1.22 3.581 2.923 4.961.372.302.783.583 1.219.848v-1.569a12.315 12.315 0 0 1-1.727-1.163z" fill="#f2f4f7"/><path d="M91.654 130.957v1.569c.738.448 1.564.839 2.451 1.172v-1.644a15.925 15.925 0 0 1-2.451-1.097z" fill="#fff"/><path d="M101.404 133.248c-2.636 0-5.132-.424-7.298-1.195v1.644c2.151.805 4.679 1.254 7.297 1.254l.001.204v-.204c.431 0 .857-.015 1.281-.038v-1.702c-.424.023-.851.037-1.281.037zm8.594-1.693c-.416.183-.848.347-1.287.5.012.548.022 1.097.03 1.645.317-.117.629-.24.932-.373 2.766-1.214 4.985-3.405 5.653-5.581.225-.732.299-1.035.32-1.312-.793 2.047-2.76 3.853-5.648 5.121z" fill="#f2f4f7"/><path d="M102.685 133.212v1.702c2.152-.117 4.21-.53 6.056-1.214a302.66 302.66 0 0 0-.03-1.645c-1.853.65-3.896 1.045-6.026 1.157z" fill="#fff"/><path d="M110.047 117.929c-6.379 2.761-15.31 1.997-19.948-1.705s-3.226-8.941 3.153-11.702c6.379-2.761 15.31-1.997 19.948 1.705s3.226 8.942-3.153 11.702z" fill="#edf1fc"/><path d="M93.55 114.517l1.847-.799c-.871-.718-1.443-1.584-1.519-2.213l1.605-.241c.113.612.541 1.409 1.4 2.095 1.089.869 2.582 1.129 3.635.674 1.015-.439 1.045-1.189.464-2.334-.826-1.568-.924-2.716.682-3.411 1.533-.663 3.601-.444 5.274.55l1.846-.799.966.771-1.791.775c.868.738 1.201 1.368 1.348 1.871l-1.602.221c-.101-.353-.305-1.039-1.286-1.823-1.181-.943-2.475-.93-3.232-.602-.942.408-.854 1.068-.203 2.429.804 1.597.66 2.641-.983 3.352-1.477.639-3.687.557-5.562-.576l-1.92.831-.969-.771z" fill="#b5bcd6"/><ellipse cx="48.962" cy="30.875" rx="1.835" ry="2.748" fill="#b5bcd6"/><path d="M66.391 157.744l-55.233-29.747c-3.17-2.388-3.875-4.978-3.875-6.933V53.618c0-.765.168-4.345.225-4.512-.911-.329-2.22 3.167-2.22 5.832v67.446c0 1.955.704 4.545 3.875 6.933l55.233 29.747c.781.421 2.674.935 4.456.937 2.833.003 4.077-.971 5.074-1.585-3.394 1.054-6.845-.3-7.535-.672z" fill="#b5bcd6"/></svg>