<svg xmlns="http://www.w3.org/2000/svg" xmlns:xlink="http://www.w3.org/1999/xlink" viewBox="0 0 200 200"><defs><circle id="a" cx="100" cy="100" r="100"/></defs><clipPath id="b"><use xlink:href="#a" overflow="visible"/></clipPath><circle cx="96.197" cy="100" r="113.581" clip-path="url(#b)" fill="#fff"/><g clip-path="url(#b)"><path d="M33.697 153.624s.367 4.071.865 9.753c14.242-1.354 31.772-2.73 39.367-12.685-.15-3.332-.479-4.613-.479-4.613l-39.753 7.545z" fill="#5c66c6"/><path d="M35.675 176.266c.957 11.305 3.198 27.71 3.198 27.71l11.382 2.478 5.579-40.802.431 40.802h11.181s4.762-24.942 6.005-40.285c.601-7.426.619-12.352.479-15.477-10.433 8.543-22.925 11.88-39.454 11.699.334 3.814.815 9.334 1.199 13.875z" fill="#686ee0"/><linearGradient id="c" gradientUnits="userSpaceOnUse" x1="24.546" y1="156.907" x2="24.546" y2="171.741"><stop offset="0" stop-color="#e4a769"/><stop offset=".372" stop-color="#eeb669"/><stop offset=".871" stop-color="#ffd168"/></linearGradient><path d="M28.668 162.825c-.082-1.8-.909-3.321-1.063-5.006h-5.448c-.333 4.144-3.589 8.053-.405 11.534 1.086 1.188 4.448 4.512 6.095 3.54.295-1.566-1.64-2.288-2.076-3.471-.414-1.122-.165-3.931.369-4.889 1.194.549-.09 4.192 2.106 3.466.598-1.415.493-3.615.422-5.174z" fill="url(#c)"/><path d="M37.994 74.858s17.494-8.446 22.261-4.942 4.766 11.48 6.216 22.356 2.538 24.653 2.538 36.254v21.027s-7.087 4.069-15.507 5.479-11.683 0-11.683 0L40.26 122.35l-2.266-47.492z" fill="#fff"/><linearGradient id="d" gradientUnits="userSpaceOnUse" x1="64.091" y1="79.626" x2="108.046" y2="79.626"><stop offset="0" stop-color="#7124d3"/><stop offset=".382" stop-color="#8056ea"/><stop offset="1" stop-color="#9a7cff"/></linearGradient><path d="M104.176 59.643s-5.427 10.158-10.419 17.719c-3.065 4.643-5.967 8.307-7.346 8.038-3.625-.709-12.641-13.688-16.267-16.226-1.362-.953-3.862-1.032-6.053-.956 5.79 11.265 9.269 27.679 9.269 27.679s11.964 5.801 18.127 2.9c2.085-.981 4.835-5.366 7.56-10.739 5.329-10.506 8.999-23.585 8.999-23.585l-3.87-4.83z" fill="url(#d)"/><linearGradient id="e" gradientUnits="userSpaceOnUse" x1="55.967" y1="111.752" x2="74.085" y2="111.752"><stop offset="0" stop-color="#7124d3"/><stop offset=".382" stop-color="#8056ea"/><stop offset="1" stop-color="#9a7cff"/></linearGradient><path d="M55.967 69.174s7.083 9.799 8.17 30.826c1.088 21.028-1.201 40.311 1.113 50.515 2.014 8.879 8.834 2.664 8.834 2.664s-.079-5.27-.079-16.147c0-8.064.075-32.248-.647-41.135-1.888-11.904-3.212-16.423-9.002-27.687-3.639.125-8.389.964-8.389.964z" fill="url(#e)"/><linearGradient id="f" gradientUnits="userSpaceOnUse" x1="31.101" y1="117.212" x2="50.855" y2="117.212"><stop offset="0" stop-color="#7124d3"/><stop offset=".382" stop-color="#8056ea"/><stop offset="1" stop-color="#9a7cff"/></linearGradient><path d="M48.684 100.365c-1.102-14.81-5.772-28.138-5.772-28.138s-6.206 1.505-10.526 4.474c.975 0 1.475 2.066 1.475 2.066 3.4 10.201-.458 14.258-2.332 24.829.134 3.944.491 20.855 0 29.695-.564 10.151-.41 26.04-.41 26.04s8.523 3.998 13.236 2.548c4.713-1.45 5.083-5.076 6.167-12.326 1.085-7.25-.736-34.378-1.838-49.188z" fill="url(#f)"/><linearGradient id="g" gradientUnits="userSpaceOnUse" x1="15.656" y1="118.042" x2="36.337" y2="118.042"><stop offset="0" stop-color="#7124d3"/><stop offset=".382" stop-color="#8056ea"/><stop offset="1" stop-color="#9a7cff"/></linearGradient><path d="M35.228 78.839c-.503-2.013-1.867-2.138-2.841-2.138-1.128.775-2.144 1.617-2.894 2.518-3.625 4.35-13.052 24.653-13.777 39.88-.725 15.227 5.473 39.811 5.473 39.811s.538.733 3.8.37c2.231-.248 2.385-1.049 2.798-1.095 0 0-.832-19.509-.47-28.572.362-9.064 6.051-22.276 6.051-22.276l.032.914c1.874-10.571 4.435-18.98 1.828-29.412z" fill="url(#g)"/><linearGradient id="h" gradientUnits="userSpaceOnUse" x1="49.282" y1="64.349" x2="50.269" y2="80.79"><stop offset=".065" stop-color="#c7835f"/><stop offset=".112" stop-color="#ca8761"/><stop offset=".157" stop-color="#d59266"/><stop offset=".177" stop-color="#dc9a69"/><stop offset=".251" stop-color="#df9f69"/><stop offset=".306" stop-color="#e4a769"/><stop offset=".548" stop-color="#eeb669"/><stop offset=".871" stop-color="#ffd168"/></linearGradient><path d="M43.668 59.328c0 1.01 2.357 14.143 2.357 14.143s1.347 6.061 5.388 6.398 3.704-5.051 3.704-6.735c0-1.684-1.347-8.082-1.347-8.082l-10.102-5.724z" fill="url(#h)"/><linearGradient id="i" gradientUnits="userSpaceOnUse" x1="49.671" y1="38.793" x2="51.644" y2="71.676"><stop offset=".065" stop-color="#c7835f"/><stop offset=".112" stop-color="#ca8761"/><stop offset=".157" stop-color="#d59266"/><stop offset=".177" stop-color="#dc9a69"/><stop offset=".251" stop-color="#df9f69"/><stop offset=".306" stop-color="#e4a769"/><stop offset=".548" stop-color="#eeb669"/><stop offset=".871" stop-color="#ffd168"/></linearGradient><path d="M56.611 39.061s5.051 3.031 5.388 9.766-1.01 18.858-5.388 21.215c-4.378 2.357-13.47-1.684-16.837-10.439-1.848-4.805-.653-12.35 3.028-17.177 3.027-3.968 7.733-6.1 13.809-3.365z" fill="url(#i)"/><path d="M36.081 44.676s-2.62 1.133-.684 9.591c.918 4.011 2.915 6.546 4.808 8.728 1.893 2.182 3.83 3.119 3.83 3.119l-1.567-6.174s-4.71-3.809-1.042-7.321c2.444-2.341 3.399 3.337 3.399 3.337s.864 1.449 1.336-.482c.454-1.86-.173-5.054.922-6.645 1.812-2.633 5.241.736 6.882 1.819 2.249 1.485 7.351 1.315 9.464-.57-.513.609-1.485-.194-2.144-.56 1.249-.384 2.386-.083 3.692-.86 1.181-.702 2.532-1.655 3.122-2.924-2.769.038-3.676-1.542-5.101-3.655-3.169-4.699-5.417-8.512-11.475-9.468-6.402-1.01-13.765 3.513-15.117 7.124-1.215 3.247-.325 4.941-.325 4.941z" fill="#823c3c"/><linearGradient id="j" gradientUnits="userSpaceOnUse" x1="101.98" y1="55.961" x2="110.138" y2="55.961"><stop offset=".059" stop-color="#e4a769"/><stop offset=".271" stop-color="#eeb669"/><stop offset=".444" stop-color="#f8c668"/><stop offset=".871" stop-color="#ffd168"/></linearGradient><path d="M102.897 61.811a15.858 15.858 0 0 1-.123-.267c-.386-.847-.358-1.887-.519-2.796-.291-1.642-.511-4.167.205-5.719.218-.472.617-.894 1.094-.521.48.376.312 1.234.303 1.776.388-1.193.137-2.542.316-3.772.134-.923.493-1.824.731-2.734.146-.558.287-1.094.65-1.528.341-.407.907-1.014 1.484-.555.304.242.28 1.058.127 1.353.09-.556.833-1.237 1.388-.962.541.268.318 1.146.345 1.654 1.118-.064.862 1.683.755 2.409.982-.359.176 4.114.14 4.504-.048.516-.136 1.037-.207 1.54-.089.629.07 1.26.088 1.901.064 2.379.164 5.482-1.588 7.36-.745.799-1.721 1.336-2.683.557-.569-.461-.959-1.147-1.294-1.784a57.322 57.322 0 0 1-1.212-2.416z" fill="url(#j)"/><linearGradient id="k" gradientUnits="userSpaceOnUse" x1="87.572" y1="66.442" x2="87.572" y2="125.17" gradientTransform="matrix(1.1115 .0472 -.0424 .9991 59.467 95.207)"><stop offset=".043" stop-color="#424c62"/><stop offset=".538" stop-color="#4b556b"/><stop offset=".882" stop-color="#566077"/></linearGradient><path d="M172.194 170.107s.962 4.794-.852 20.073-7.333 40.009-7.333 40.009l-10.474-.445.124-41.851-5.754 41.612-10.558-2.928s-1.403-16.479-1.821-27.812c-.417-11.333-.893-22.7-.893-22.7l37.561-5.958z" fill="url(#k)"/><linearGradient id="l" gradientUnits="userSpaceOnUse" x1="168.456" y1="137.118" x2="183.258" y2="137.747"><stop offset=".005" stop-color="#79729d"/><stop offset=".092" stop-color="#716994"/><stop offset=".386" stop-color="#5a5079"/><stop offset=".647" stop-color="#4c4069"/><stop offset=".849" stop-color="#473b63"/></linearGradient><path d="M169.371 115.553v43.208s5.293-2.316 9.276-6.085c2.136-2.022 3.896-4.463 4.26-7.189.26-1.952-.456-4.799-1.676-7.971-3.661-9.518-11.86-21.963-11.86-21.963z" fill="url(#l)"/><linearGradient id="m" gradientUnits="userSpaceOnUse" x1="327.041" y1="-4.634" x2="347.667" y2="-4.634" gradientTransform="rotate(2.431 -2092.66 -4306.651)"><stop offset=".129" stop-color="#ffd168"/><stop offset=".452" stop-color="#eeb669"/><stop offset=".694" stop-color="#e4a769"/><stop offset=".75" stop-color="#df9f69"/><stop offset=".823" stop-color="#dc9a69"/><stop offset=".843" stop-color="#d59266"/><stop offset=".888" stop-color="#ca8761"/><stop offset=".935" stop-color="#c7835f"/></linearGradient><path d="M145.688 76.727s-2.711 5.122-2.939 10.487c-.228 5.364.104 12.229 1.833 15.565 1.729 3.336 6.693 3.873 6.693 3.873l-.373 8.792 10.881-2.28s.09-10.808-.083-14.077c-.173-3.27 4.896-15.6-1.7-21.752s-10.44-3.706-14.312-.608z" fill="url(#m)"/><linearGradient id="n" gradientUnits="userSpaceOnUse" x1="323.25" y1="-12.75" x2="352.666" y2="-12.75" gradientTransform="rotate(2.431 -2092.66 -4306.651)"><stop offset=".043" stop-color="#424c62"/><stop offset=".538" stop-color="#4b556b"/><stop offset=".882" stop-color="#566077"/></linearGradient><path d="M144.862 70.434c-1.208-.318-2.258-1.733-2.748-2.556-.048 1.11-.05 2.246-.168 3.344-.407-.32-.7-.884-1.044-1.238-.613 2.999-2.793 7.945-.478 10.604 2.58 2.963 4.754 3.049 8.131 3.857-.838 2.131.804 5.1.705 7.425-.061 1.447.349 3.694 2.117 3.786.097-1.051.13-3.609.258-4.657 1.589-1.129 2.82 1.204 2.806 2.365-.055 4.291-1.782 3.73-2.273 5.046-.382 1.023.612 2.392 1.226 3.416 2.01 3.351 5.11 2.847 8.462 2.99 0 0 7.076-10.195 6.549-19.813-.243-4.443-1.357-8.754-4.038-11.692-2.787-3.053-6.901-4.06-10.778-3.053-1.444.374-7.903.393-8.727.176z" fill="url(#n)"/><linearGradient id="o" gradientUnits="userSpaceOnUse" x1="132.413" y1="149.05" x2="172.529" y2="149.05"><stop offset=".005" stop-color="#79729d"/><stop offset=".092" stop-color="#716994"/><stop offset=".386" stop-color="#5a5079"/><stop offset=".647" stop-color="#4c4069"/><stop offset=".849" stop-color="#473b63"/></linearGradient><path d="M170.908 118.778c-1.301-5.782-5.721-8.828-14.996-9.291 0 0-8.281-.857-12.665 1.007-4.685 1.992-10.726 12.435-10.38 19.399l-.454 53.116s3.459 6.548 18.402 5.731c14.943-.817 20.364-6.158 20.364-6.158l.855-27.706c0-.001 1.671-23.669-1.126-36.098z" fill="url(#o)"/><linearGradient id="p" gradientUnits="userSpaceOnUse" x1="106.777" y1="100.404" x2="145.855" y2="100.404"><stop offset=".005" stop-color="#79729d"/><stop offset=".092" stop-color="#716994"/><stop offset=".386" stop-color="#5a5079"/><stop offset=".647" stop-color="#4c4069"/><stop offset=".849" stop-color="#473b63"/></linearGradient><path d="M143.546 125.296c5.065-6.536.308-14.884-.299-14.802-6.466.874-23.692-2.885-26.304-14.842-2.613-11.957-4.341-24.29-4.341-24.29l-5.609.685s-1.085 22.98 1.615 32.892c2.7 9.912 6.942 13.066 10.874 15.587 3.279 2.103 13.398 7.914 13.398 7.914s5.928 3.718 10.666-3.144z" fill="url(#p)"/><linearGradient id="q" gradientUnits="userSpaceOnUse" x1="107.031" y1="63.121" x2="113.652" y2="65.549"><stop offset=".049" stop-color="#e4a769"/><stop offset=".401" stop-color="#eeb669"/><stop offset=".871" stop-color="#ffd168"/></linearGradient><path d="M112.602 71.362l.033-.121c1.264-4.674 2.417-9.596.943-14.383-.132-.429-.619-1.481-1.172-1.476-.689.006-.278.926-.3 1.33-.286-.673-.62-2.415-1.617-2.25-.734.122-.672 1.068-.594 1.643-.256-.255-.408-.753-.771-.888-.4-.148-.738.057-.84.424-.376 1.355.438 2.905.436 4.267-.007-.509-.234-1.867-.693-2.174-.836-.56-.955 1.085-.955 1.504-.002 1.428.217 2.819.217 4.248 0 .511.018 1.026-.042 1.525-.11.907-.4 1.783-.496 2.701a15.612 15.612 0 0 0 .005 3.403c.218 1.909 1.88 3.06 3.406 2.842 1.046-.151 2.032-.95 2.44-2.595z" fill="url(#q)"/><path d="M89.375 29.073a.826.826 0 0 0-1.111-.044.701.701 0 0 0-.047 1.037L99.95 41.978a.809.809 0 0 0 .579.237c.19 0 .381-.064.532-.194a.701.701 0 0 0 .047-1.037L89.375 29.073zm16.309-6.471c-.43.057-.729.429-.668.83l1.671 11.013c.051.337.339.587.684.626a.872.872 0 0 0 .204-.002c.43-.057.729-.429.668-.83l-1.671-11.013c-.06-.401-.461-.679-.888-.624zm19.325 5.008a.82.82 0 0 0-1.1.145l-7.249 8.999a.702.702 0 0 0 .155 1.028.828.828 0 0 0 .697.117.781.781 0 0 0 .403-.262l7.249-8.999a.702.702 0 0 0-.155-1.028zm-2.557 21.141c-.068.401.224.776.652.84l6.631.985a.883.883 0 0 0 .124.009c.38 0 .714-.257.775-.619.068-.401-.224-.776-.652-.84l-6.631-.985c-.437-.066-.831.21-.899.61zM132.47 64.25l-10.993-6.705a.82.82 0 0 0-1.088.213c-.238.34-.135.794.228 1.016l10.993 6.705c.096.059.2.094.305.11a.811.811 0 0 0 .783-.323.705.705 0 0 0-.228-1.016zM87.521 53.421h7.142c.434 0 .786-.328.786-.734s-.352-.734-.786-.734h-7.142c-.434 0-.786.328-.786.734s.352.734.786.734zm8.233 6.748l-11.733 7.385a.705.705 0 0 0-.213 1.019.825.825 0 0 0 1.09.199l11.733-7.385a.705.705 0 0 0 .213-1.019.818.818 0 0 0-1.09-.199z" fill="#fff"/></g></svg>