<svg xmlns="http://www.w3.org/2000/svg" viewBox="0 0 190 160"><path d="M24.127 142.017l-.036-.001c-1.154-.062-1.774-.1-1.774-.1a.665.665 0 0 1-.623-.705.655.655 0 0 1 .705-.623c.001 0 .617.038 1.763.099a.665.665 0 0 1-.035 1.33zm35.771.957h-.002c-1.211-.003-2.405-.01-3.582-.018a.666.666 0 0 1 .005-1.331h.005c1.175.009 2.368.015 3.576.018a.666.666 0 0 1-.002 1.331zm3.579-.001a.666.666 0 0 1-.002-1.331c1.18-.003 2.372-.01 3.574-.02h.006a.666.666 0 0 1 .006 1.331c-1.205.01-2.4.016-3.582.02h-.002zm-10.737-.053h-.008a747.224 747.224 0 0 1-3.582-.053.666.666 0 0 1 .023-1.331c1.167.02 2.36.038 3.575.053a.666.666 0 0 1-.008 1.331zm17.893-.005a.666.666 0 0 1-.01-1.331c1.184-.016 2.376-.036 3.573-.06a.672.672 0 0 1 .679.652.666.666 0 0 1-.652.679c-1.201.024-2.396.044-3.582.06h-.008zm-25.049-.118h-.015a737.74 737.74 0 0 1-3.581-.087.665.665 0 0 1-.647-.683c.01-.367.323-.683.683-.647 1.155.03 2.347.059 3.575.086a.666.666 0 0 1-.015 1.331zm32.203-.024a.665.665 0 0 1-.017-1.33c1.186-.031 2.378-.066 3.572-.105.347-.036.675.276.687.643a.666.666 0 0 1-.643.687c-1.197.039-2.391.074-3.581.105h-.018zm-39.36-.166h-.021a706.192 706.192 0 0 1-3.58-.12.665.665 0 0 1-.641-.689.66.66 0 0 1 .689-.641c1.13.041 2.323.081 3.574.12a.664.664 0 0 1-.021 1.33zm46.513-.069a.667.667 0 0 1-.026-1.331c1.189-.048 2.38-.099 3.57-.156a.665.665 0 1 1 .063 1.329c-1.193.057-2.387.109-3.58.157l-.027.001zm-53.666-.188h-.028a639.518 639.518 0 0 1-3.58-.156.665.665 0 1 1 .061-1.329c1.055.049 2.25.101 3.573.156a.666.666 0 0 1-.026 1.329zm60.815-.153a.665.665 0 0 1-.037-1.33c1.194-.066 2.386-.138 3.574-.215a.666.666 0 0 1 .086 1.328c-1.193.077-2.388.149-3.585.216l-.038.001zm7.151-.465a.665.665 0 0 1-.049-1.329c1.193-.088 2.381-.183 3.562-.283a.66.66 0 0 1 .72.606.665.665 0 0 1-.606.72c-1.186.101-2.379.196-3.577.285l-.05.001zm7.136-.607a.666.666 0 0 1-.064-1.328c1.194-.115 2.379-.237 3.553-.367a.664.664 0 1 1 .145 1.323 268.726 268.726 0 0 1-3.634.372zm7.118-.783a.665.665 0 0 1-.081-1.326c1.194-.149 2.374-.305 3.539-.469a.665.665 0 1 1 .186 1.318c-1.172.165-2.359.322-3.56.471a.615.615 0 0 1-.084.006zm7.09-1.003a.665.665 0 0 1-.104-1.323c1.192-.191 2.364-.391 3.516-.601a.666.666 0 0 1 .238 1.31c-1.16.211-2.342.413-3.543.606a.782.782 0 0 1-.107.008zm7.044-1.289a.667.667 0 0 1-.135-1.317c1.187-.247 2.346-.507 3.474-.779a.665.665 0 1 1 .312 1.294c-1.141.275-2.313.537-3.513.788a.66.66 0 0 1-.138.014zm6.959-1.684a.665.665 0 0 1-.179-1.307 75.51 75.51 0 0 0 3.393-1.037.664.664 0 1 1 .42 1.262 76.523 76.523 0 0 1-3.454 1.056.617.617 0 0 1-.18.026zm6.785-2.278a.665.665 0 0 1-.249-1.282 41.053 41.053 0 0 0 3.208-1.45.665.665 0 1 1 .603 1.187 41.895 41.895 0 0 1-3.312 1.498.71.71 0 0 1-.25.047zm6.347-3.278a.667.667 0 0 1-.374-1.217c1.025-.696 1.919-1.43 2.657-2.18a.665.665 0 1 1 .949.933 18.896 18.896 0 0 1-2.858 2.348.657.657 0 0 1-.374.116zm4.855-5.129a.667.667 0 0 1-.594-.964 8.083 8.083 0 0 0 .86-3.152.656.656 0 0 1 .705-.623.665.665 0 0 1 .623.705 9.403 9.403 0 0 1-1 3.669.664.664 0 0 1-.594.365zm.594-6.961a.666.666 0 0 1-.653-.541 21.27 21.27 0 0 0-.91-3.339.666.666 0 0 1 1.25-.457 22.66 22.66 0 0 1 .967 3.547.666.666 0 0 1-.654.79zm-2.474-6.661a.664.664 0 0 1-.569-.32 16.374 16.374 0 0 0-2.075-2.73.665.665 0 1 1 .97-.912 17.757 17.757 0 0 1 2.243 2.951.664.664 0 0 1-.569 1.011zm-4.852-5.181a.665.665 0 0 1-.386-.123 21.192 21.192 0 0 0-2.98-1.762.665.665 0 1 1 .585-1.195 22.521 22.521 0 0 1 3.168 1.874.667.667 0 0 1 .156.929.672.672 0 0 1-.543.277zm-6.383-3.169a.656.656 0 0 1-.213-.035 35.875 35.875 0 0 0-3.38-.953.666.666 0 0 1 .301-1.297c1.231.286 2.41.618 3.505.988a.666.666 0 0 1-.213 1.297zm-6.956-1.642a.726.726 0 0 1-.103-.008 62.992 62.992 0 0 0-3.513-.437.665.665 0 1 1 .129-1.325c1.251.121 2.458.272 3.589.447a.666.666 0 0 1-.102 1.323zm-39.318-.142a.666.666 0 0 1-.003-1.331 180.35 180.35 0 0 0 3.566-.05.659.659 0 0 1 .681.65.667.667 0 0 1-.65.681 191.1 191.1 0 0 1-3.591.05h-.003zm-3.579-.037h-.018a83.239 83.239 0 0 1-3.604-.167.665.665 0 1 1 .092-1.328c1.099.076 2.292.131 3.546.164a.666.666 0 0 1-.016 1.331zm10.735-.118a.666.666 0 0 1-.023-1.33c1.182-.042 2.374-.088 3.573-.136a.667.667 0 0 1 .054 1.331c-1.201.048-2.396.094-3.58.136l-.024-.001zm7.153-.281a.666.666 0 0 1-.026-1.331l.997-.039c.86-.033 1.722-.065 2.583-.094.368-.023.675.275.688.643s-.275.675-.643.688c-.859.029-1.718.061-2.576.094l-.997.039h-.026zm-25.023-.118a.662.662 0 0 1-.088-.006 40.106 40.106 0 0 1-3.584-.631.665.665 0 1 1 .296-1.298 38.51 38.51 0 0 0 3.462.61.666.666 0 0 1-.086 1.325zm42.911-.011l-.036-.001a108.009 108.009 0 0 0-3.555-.128.666.666 0 0 1-.652-.679c.007-.368.341-.673.679-.652 1.254.026 2.465.069 3.599.13a.665.665 0 0 1-.035 1.33zm-10.735-.106a.666.666 0 0 1-.014-1.331c1.202-.026 2.4-.044 3.59-.049h.003a.666.666 0 0 1 .004 1.331c-1.182.005-2.372.023-3.566.049h-.017zm-39.128-1.52a.67.67 0 0 1-.236-.043c-1.234-.469-2.351-1.026-3.321-1.658a.666.666 0 0 1 .726-1.116c.89.58 1.922 1.094 3.067 1.529a.665.665 0 0 1-.236 1.288zm-5.866-3.945a.664.664 0 0 1-.513-.241 11.46 11.46 0 0 1-1.891-3.267.665.665 0 1 1 1.245-.471 10.132 10.132 0 0 0 1.671 2.889.666.666 0 0 1-.512 1.09zm-2.658-6.54a.666.666 0 0 1-.659-.575 12.903 12.903 0 0 1-.125-1.754c0-.7.065-1.38.194-2.022a.666.666 0 0 1 1.305.261 9 9 0 0 0-.168 1.76c0 .501.038 1.03.113 1.572a.666.666 0 0 1-.66.758zm1.484-6.789a.665.665 0 0 1-.537-1.058c.698-.953 1.622-1.825 2.748-2.591a.666.666 0 1 1 .749 1.101c-1 .68-1.815 1.445-2.422 2.276a.666.666 0 0 1-.538.272zm5.74-4.1a.665.665 0 0 1-.255-1.28 30.298 30.298 0 0 1 3.461-1.176.665.665 0 1 1 .357 1.283 28.987 28.987 0 0 0-3.308 1.124.695.695 0 0 1-.255.049zm6.866-1.966a.665.665 0 0 1-.127-1.318 67.932 67.932 0 0 1 3.564-.596.666.666 0 0 1 .186 1.318 66.319 66.319 0 0 0-3.494.584.712.712 0 0 1-.129.012zm7.082-1.02a.665.665 0 0 1-.067-1.327c1.154-.119 2.349-.224 3.584-.316a.665.665 0 0 1 .099 1.327c-1.222.091-2.405.195-3.546.312a.558.558 0 0 1-.07.004zm7.137-.54a.666.666 0 0 1-.035-1.33c1.165-.062 2.361-.115 3.586-.16.375-.032.676.273.69.64a.666.666 0 0 1-.64.69c-1.219.045-2.407.097-3.565.159l-.036.001zm53.669-.125c-1.157-.001-2.351-.004-3.582-.009a.666.666 0 0 1-.662-.669c.002-.367.307-.641.668-.662 1.23.005 2.421.008 3.576.009a.666.666 0 0 1 0 1.331zm3.579-.005a.666.666 0 0 1-.003-1.331c1.237-.005 2.428-.014 3.573-.027h.007a.667.667 0 0 1 .008 1.331c-1.148.013-2.342.022-3.583.027h-.002zm-10.735-.024h-.005l-3.58-.029a.666.666 0 0 1 .007-1.331h.006l3.577.029a.667.667 0 0 1 .661.67.667.667 0 0 1-.666.661zm17.89-.059a.666.666 0 0 1-.013-1.331c1.252-.026 2.44-.058 3.568-.097.365-.026.675.275.688.642a.666.666 0 0 1-.642.688c-1.134.039-2.328.071-3.586.097l-.015.001zm-25.047-.004h-.007l-3.579-.038a.666.666 0 0 1 .008-1.331h.007l3.578.038a.666.666 0 0 1-.007 1.331zm-32.203-.052a.666.666 0 0 1-.016-1.331 359.85 359.85 0 0 1 3.585-.068h.009a.666.666 0 0 1 .01 1.331 329.98 329.98 0 0 0-3.572.068h-.016zm25.047-.025h-.007l-3.577-.036a.665.665 0 1 1 .013-1.331l3.578.036a.667.667 0 0 1 .659.672.668.668 0 0 1-.666.659zm-7.156-.065h-.005c-1.208-.009-2.4-.016-3.575-.02a.666.666 0 0 1 .003-1.331h.003c1.177.004 2.37.011 3.58.02a.667.667 0 0 1 .661.67.668.668 0 0 1-.667.661zm-10.734-.014a.666.666 0 0 1-.005-1.331l.567-.003c.991-.005 1.997-.008 3.016-.009a.666.666 0 0 1 .001 1.331c-1.017.001-2.02.004-3.01.009l-.564.003h-.005zm57.235-.21a.666.666 0 0 1-.096-1.324c1.226-.179 2.347-.455 3.334-.818a.664.664 0 1 1 .46 1.248c-1.073.395-2.284.694-3.601.886a.536.536 0 0 1-.097.008zm6.573-2.59a.666.666 0 0 1-.427-1.177c.883-.738 1.513-1.607 1.874-2.584a.664.664 0 1 1 1.249.461c-.442 1.198-1.205 2.255-2.269 3.144a.655.655 0 0 1-.427.156zm2.337-6.386a.665.665 0 0 1-.653-.542c-.193-1.026-.641-2.066-1.294-3.008a.665.665 0 1 1 1.094-.758c.759 1.095 1.281 2.312 1.508 3.52a.665.665 0 0 1-.655.788zm-4.041-5.885a.669.669 0 0 1-.38-.119 10.55 10.55 0 0 0-1.442-.841.666.666 0 0 1 .579-1.199c.568.275 1.114.593 1.623.947a.665.665 0 0 1-.38 1.212z" fill="#9daab2"/><linearGradient id="a" gradientUnits="userSpaceOnUse" x1="1314.716" y1="211.462" x2="1365.43" y2="211.462" gradientTransform="rotate(-1.009 -2425.065 73610.208)"><stop offset=".102" stop-color="#a19fae" stop-opacity=".7"/><stop offset=".492" stop-color="#a7a9ab" stop-opacity=".396"/><stop offset="1" stop-color="#abb0a9" stop-opacity="0"/></linearGradient><path fill="url(#a)" d="M32.302 154.195l-6.564 2.141-3.38 3.331 35.948-.311 14.661-6.119z"/><linearGradient id="b" gradientUnits="userSpaceOnUse" x1="1299.297" y1="203.993" x2="1351.417" y2="203.993" gradientTransform="rotate(-1.009 -2425.065 73610.208)"><stop offset=".102" stop-color="#a19fae" stop-opacity=".7"/><stop offset=".492" stop-color="#a7a9ab" stop-opacity=".396"/><stop offset="1" stop-color="#abb0a9" stop-opacity="0"/></linearGradient><path fill="url(#b)" d="M58.842 147.025l-40.99-.02-7.442 1.854-3.6 3.619 43.442-.72z"/><linearGradient id="c" gradientUnits="userSpaceOnUse" x1="-89.977" y1="220.65" x2="-83.892" y2="220.65" gradientTransform="matrix(.9997 -.0251 .0246 .9789 88.327 -132.425)"><stop offset=".129" stop-color="#ffd168"/><stop offset=".452" stop-color="#eeb669"/><stop offset=".694" stop-color="#e4a769"/><stop offset=".75" stop-color="#df9f69"/><stop offset=".823" stop-color="#dc9a69"/><stop offset=".843" stop-color="#d59266"/><stop offset=".888" stop-color="#ca8761"/><stop offset=".935" stop-color="#c7835f"/></linearGradient><path d="M7.312 79.782l-2.618.256c-.712.046-.731.111-.871.793-.144.703-.114 1.369-.067 2.08.052.783-.026 1.593.067 2.371.103.854.63 1.561.816 2.373-.008-.019-.022-.027-.043-.023-.041.689-.106 1.619-.003 2.295.06.398.796 1.086.858.33.035.427.098 1.098.482 1.358.574.388.772-.135.747-.661.208.679.762.632 1.285.2.088-.372.047-.769.13-1.148.006.119.094.243.118.36.174.009.359.004.532-.015.07-.058.117-.095.198-.151.108-1.109.418-2.131.215-3.239-.165-.881-.648-1.742-.798-2.611.298.469.614 2.823 1.539 2.253.079-2.708-.892-4.764-2.587-6.821z" fill="url(#c)"/><linearGradient id="d" gradientUnits="userSpaceOnUse" x1="581.199" y1="-277.156" x2="581.355" y2="-277.156" gradientTransform="rotate(8.811 -2031.805 -3822.2)"><stop offset=".129" stop-color="#ffd168"/><stop offset=".452" stop-color="#eeb669"/><stop offset=".694" stop-color="#e4a769"/><stop offset=".75" stop-color="#df9f69"/><stop offset=".823" stop-color="#dc9a69"/><stop offset=".843" stop-color="#d59266"/><stop offset=".888" stop-color="#ca8761"/><stop offset=".935" stop-color="#c7835f"/></linearGradient><path d="M7.266 81.269c.023.041.041.081.064.122l.074.006c-.023-.115-.069-.158-.138-.128z" fill="url(#d)"/><linearGradient id="e" gradientUnits="userSpaceOnUse" x1="1982.063" y1="-226.614" x2="1989.365" y2="-226.614" gradientTransform="matrix(.9882 .1532 -.15 .9677 -1991.998 -29.08)"><stop offset="0" stop-color="#9a7cff"/><stop offset=".618" stop-color="#8056ea"/><stop offset="1" stop-color="#7124d3"/></linearGradient><path d="M5.205 30.392c-2.007 1.219-2.988 2.523-3.254 8.255s-2.122 24.032-.898 27.606c1.224 3.574 2.532 15.296 2.532 15.296s1.355.86 2.814.436c1.753-.509 1.94-1.713 1.94-1.713s-.788-16.655-1.17-17.738c-.382-1.082 3.914-26.29 2.113-29.691s-3.092-3.049-4.077-2.451z" fill="url(#e)"/><linearGradient id="f" gradientUnits="userSpaceOnUse" x1="-2729.276" y1="832.2" x2="-2723.122" y2="816.458" gradientTransform="matrix(-.9705 .2326 .2705 .8759 -2853.251 -73.835)"><stop offset=".129" stop-color="#ffd168"/><stop offset=".452" stop-color="#eeb669"/><stop offset=".694" stop-color="#e4a769"/><stop offset=".75" stop-color="#df9f69"/><stop offset=".823" stop-color="#dc9a69"/><stop offset=".843" stop-color="#d59266"/><stop offset=".888" stop-color="#ca8761"/><stop offset=".935" stop-color="#c7835f"/></linearGradient><path d="M8.286 16.884c1.838 5.652 7.773 10.064 11.172 8.429 2.721-1.309 4.481-8.917 2.642-14.569s-4.968-6.895-9.3-5.898-6.352 6.386-4.514 12.038z" fill="url(#f)"/><linearGradient id="g" gradientUnits="userSpaceOnUse" x1="1045.887" y1="254.539" x2="1047.263" y2="265.368" gradientTransform="rotate(-5.578 -1844.464 10730.39)"><stop offset=".129" stop-color="#ffd168"/><stop offset=".452" stop-color="#eeb669"/><stop offset=".694" stop-color="#e4a769"/><stop offset=".75" stop-color="#df9f69"/><stop offset=".823" stop-color="#dc9a69"/><stop offset=".843" stop-color="#d59266"/><stop offset=".888" stop-color="#ca8761"/><stop offset=".935" stop-color="#c7835f"/></linearGradient><path d="M11.066 21.444l.784 8.883s.414 3.768 2.14 3.621c2.16-.184 5.07-.495 5.07-.495l-2.288-14.554-5.706 2.545z" fill="url(#g)"/><linearGradient id="h" gradientUnits="userSpaceOnUse" x1="1039.011" y1="244.872" x2="1057.688" y2="244.872" gradientTransform="rotate(-5.578 -1844.464 10730.39)"><stop offset=".118" stop-color="#566077"/><stop offset=".462" stop-color="#4b556b"/><stop offset=".957" stop-color="#424c62"/></linearGradient><path d="M24.282 7.49c-.798-2.054-3.554-4.15-6.011-4.353-2.164-.179-4.931-.237-7.295.366-1.15.293-2.205.743-3.049 1.41-.895.708-2.574 2.901-1.779 4.047-.937.793.159 4.477 1.459 8.385 1.315 3.953 3.165 6.029 3.165 6.029s3.883.566 4.46.311c.879-.388 3.402-3.437 3.247-4.15-.033-.153-.745-1.428-.927-2.614-.147-.952.03-1.84 1.114-2.023.648-.109.891.418 1.057 1 .093.326.163.67.267.928.294.731.574.816 1.507.656.105-.018.259-1.482.39-3.184.133-1.729.242-3.703.252-4.655 1.025-.004 2.011.191 2.19 1.018-.116-1.213-.079-2.78-1.138-3.515.233.101.76.23 1.091.344z" fill="url(#h)"/><linearGradient id="i" gradientUnits="userSpaceOnUse" x1="1437.464" y1="2763.9" x2="1453.697" y2="2763.9" gradientTransform="matrix(.9972 .0543 -.0011 .6976 -1427.12 -1857.356)"><stop offset="0" stop-color="#7124d3"/><stop offset="1" stop-color="#8360ef"/></linearGradient><path d="M3.92 147.472s-1.006 3.239-.434 3.799 2.781 1.378 4.23 1.213c1.448-.165 1.822-.432 2.512-.67s1.768-.64 2.969-.727 3.529-1.172 4.592-1.987 1.847-1.333 1.697-2.105-2.242-.601-4.024-.377c-1.462.183-6.095-1.004-6.095-1.004l-5.447 1.858z" fill="url(#i)"/><linearGradient id="j" gradientUnits="userSpaceOnUse" x1="1620.118" y1="338.983" x2="1614.901" y2="263.373" gradientTransform="matrix(.9991 .0357 -.0283 .958 -1596.593 -231.964)"><stop offset=".005" stop-color="#79729d"/><stop offset=".092" stop-color="#716994"/><stop offset=".386" stop-color="#5a5079"/><stop offset=".647" stop-color="#4c4069"/><stop offset=".849" stop-color="#473b63"/></linearGradient><path d="M5.514 75.774s-.147 30.515-.332 33.014c-.119 1.61-1.023 13.15-1.194 19.802s-.068 18.882-.068 18.882-.073.275 2.466.358c2.539.083 3.203-2.389 3.203-2.389s1.773-12.053 2.712-16.402c.784-3.628 3.714-29.945 3.824-33.351.085-2.625.807-14.772.807-14.772l.981-4.953-5.787-.189H5.514z" fill="url(#j)"/><linearGradient id="k" gradientUnits="userSpaceOnUse" x1="963.682" y1="3264.504" x2="979.898" y2="3264.504" gradientTransform="matrix(.9985 -.014 .0475 .6852 -1099.159 -2066.519)"><stop offset="0" stop-color="#7124d3"/><stop offset="1" stop-color="#8360ef"/></linearGradient><path d="M18.471 154.184s-.608 4.246.005 4.761c.613.515 2.879 1.181 4.312.93 1.432-.251 1.785-.537 2.454-.812.67-.276 1.715-.737 2.907-.897 1.192-.16 3.431-1.368 4.43-2.234.999-.866 1.741-1.423 1.533-2.172-.208-.749-2.282-.451-4.043-.122-1.444.27-6.139-.094-6.139-.094l-5.459.64z" fill="url(#k)"/><linearGradient id="l" gradientUnits="userSpaceOnUse" x1="1416.742" y1="387.473" x2="1427.201" y2="463.344" gradientTransform="matrix(.9999 .0015 .0015 .9583 -1400.465 -298.874)"><stop offset=".151" stop-color="#473b63"/><stop offset=".353" stop-color="#4c4069"/><stop offset=".614" stop-color="#5a5079"/><stop offset=".908" stop-color="#716994"/><stop offset=".995" stop-color="#79729d"/></linearGradient><path d="M21.418 83.337l-6.699-.001s1.082 28.219 1.207 31.106-.554 10.265-.074 16.731c.48 6.467 2.654 24.097 2.654 24.097s.493 1.357 3.511 1.339c1.519-.009 2.697-1.607 2.697-1.607s.228-26.21.814-31.133c.586-4.923 2.59-40.228 2.59-40.228l-6.7-.304z" fill="url(#l)"/><linearGradient id="m" gradientUnits="userSpaceOnUse" x1="927.952" y1="716.648" x2="954.297" y2="716.648" gradientTransform="matrix(1.0586 -.0288 .0436 .9243 -1006.967 -577.578)"><stop offset="0" stop-color="#8e6bf5"/><stop offset=".441" stop-color="#8056ea"/><stop offset="1" stop-color="#7124d3"/></linearGradient><path d="M21.458 32.136s6.104 1.451 8.066 6.051c.689 1.615-1.93 13.031-2.169 23.436-.259 11.296.762 22.019.762 22.019s.622 2.362-2.554 3.284c-7.229 2.096-14.151-.673-14.151-.673l-1.26-9.303-2.206 8.469s-1.727.122-3.462-2.692c-1.518-2.461-.618-6.953-.618-6.953s.124-10.116.618-17.913c.348-5.485-2.62-18.626-1.69-23.729.425-2.334 1.024-3.452 2.327-4.451 1.545-1.184 3.892-1.989 5.429-1.453 2.834.988 10.908 3.908 10.908 3.908z" fill="url(#m)"/><linearGradient id="n" gradientUnits="userSpaceOnUse" x1="36.594" y1="83.596" x2="42.693" y2="92.509"><stop offset=".065" stop-color="#c7835f"/><stop offset=".112" stop-color="#ca8761"/><stop offset=".157" stop-color="#d59266"/><stop offset=".177" stop-color="#dc9a69"/><stop offset=".251" stop-color="#df9f69"/><stop offset=".306" stop-color="#e4a769"/><stop offset=".548" stop-color="#eeb669"/><stop offset=".871" stop-color="#ffd168"/></linearGradient><path d="M37.287 82.642l-2.194 1.452c-.608.373-.594.441-.392 1.123.208.702.552 1.29.933 1.909.419.682.737 1.451 1.191 2.11.498.723 1.302 1.115 1.855 1.762-.016-.014-.032-.014-.049-.001.292.641.679 1.511 1.092 2.074.243.331 1.222.609.916-.102.235.369.611.946 1.074 1.001.693.083.618-.482.345-.945.508.516.976.215 1.232-.418-.1-.377-.325-.716-.433-1.097.062.105.199.176.276.27.158-.073.32-.164.464-.261.034-.084.059-.14.103-.228-.433-1.052-.647-2.118-1.356-3.024-.564-.721-1.402-1.273-1.95-1.988.487.284 1.89 2.262 2.437 1.317-1.223-2.484-3.063-3.887-5.544-4.954z" fill="url(#n)"/><linearGradient id="o" gradientUnits="userSpaceOnUse" x1="34.892" y1="85.829" x2="35.048" y2="85.829"><stop offset=".129" stop-color="#ffd168"/><stop offset=".452" stop-color="#eeb669"/><stop offset=".694" stop-color="#e4a769"/><stop offset=".75" stop-color="#df9f69"/><stop offset=".823" stop-color="#dc9a69"/><stop offset=".843" stop-color="#d59266"/><stop offset=".888" stop-color="#ca8761"/><stop offset=".935" stop-color="#c7835f"/></linearGradient><path d="M34.892 85.782c.029.037.053.074.082.111l.074-.006c-.041-.11-.093-.145-.156-.105z" fill="url(#o)"/><linearGradient id="p" gradientUnits="userSpaceOnUse" x1="24.71" y1="60.638" x2="33.625" y2="60.638"><stop offset="0" stop-color="#9a7cff"/><stop offset=".162" stop-color="#8e6bf5"/><stop offset=".618" stop-color="#8056ea"/><stop offset="1" stop-color="#7124d3"/></linearGradient><path d="M38.637 83.14s-5.715-14.376-6.868-16.499c-.332-5.509-.271-26.191-2.302-28.973-2.301-3.15-3.522-2.593-4.404-1.836-1.797 1.544-2.566 3.013-1.951 8.839.563 5.333 1.423 21.496 2.913 26.812.412.557.772 1.4.943 1.621 2.344 3.042 7.608 12.846 7.608 12.846s1.564.38 2.801-.514c1.484-1.071 1.26-2.296 1.26-2.296z" fill="url(#p)"/><linearGradient id="q" gradientUnits="userSpaceOnUse" x1="1420.493" y1="29.681" x2="1435.407" y2="29.681" gradientTransform="translate(-1411.373)"><stop offset="0" stop-color="#9a7cff"/><stop offset=".618" stop-color="#8056ea"/><stop offset="1" stop-color="#7124d3"/></linearGradient><path d="M11.476 26.096L9.12 28.02s2.237 1.536 6.517 2.876 8.397 2.37 8.397 2.37L19.7 29.98l-8.224-3.884z" fill="url(#q)"/><ellipse cx="147.112" cy="121.317" rx="16.477" ry="17.04" fill="#b5bcd6"/><path d="M146.371 132.505v-2.725c-1.745-.027-3.521-.518-4.574-1.199l.722-1.825a8.714 8.714 0 0 0 4.304 1.171c2.137 0 3.581-1.117 3.581-2.67 0-1.498-1.174-2.424-3.401-3.242-3.069-1.09-4.966-2.37-4.966-4.74 0-2.261 1.776-3.977 4.515-4.386v-2.724h1.896v2.643c1.775.054 3.009.49 3.913.953l-.753 1.798c-.632-.327-1.866-.954-3.792-.954-2.317 0-3.19 1.253-3.19 2.37 0 1.389 1.114 2.098 3.732 3.105 3.1 1.144 4.665 2.533 4.665 4.958 0 2.179-1.655 4.195-4.755 4.631v2.833h-1.897z" fill="#fff"/><linearGradient id="r" gradientUnits="userSpaceOnUse" x1="58.842" y1="70.639" x2="96.031" y2="70.639"><stop offset=".075" stop-color="#70bdf9"/><stop offset=".974" stop-color="#63aff8"/></linearGradient><ellipse cx="77.436" cy="70.639" rx="18.594" ry="18.892" fill="url(#r)"/><path d="M86.803 68.602c-.536-.686-1.237-1.098-2.129-1.104-1.336-.01-2.672-.005-4.008-.007h-.47c.134-.794.31-1.525.371-2.265.114-1.394-.105-2.742-.976-3.879-.279-.364-.73-.697-1.166-.82-1.225-.345-2.271.588-2.328 1.975-.024.582-.039 1.166-.099 1.744-.16 1.548-.904 2.765-2.227 3.568-.423.257-.966.393-1.465.43-.916.067-1.841.017-2.763.02-.711.002-1.277.283-1.663.892a2.454 2.454 0 0 0-.368 1.583c.252 2.734.495 5.469.77 8.201.073.726.331 1.486 1.115 1.645 1.183.239 2.431.522 3.51-.387.232-.195.437-.157.711-.057.627.229 1.27.514 1.921.557 1.438.094 2.884.063 4.327.061 1.074-.002 2.154.024 3.221-.072 1.718-.154 2.607-1.383 1.932-2.952 1.52-.671 1.808-1.324 1.216-2.718.561-.353 1.024-.792 1.119-1.488.096-.696-.149-1.285-.667-1.745.867-1.121.908-2.168.116-3.182zM72.185 79.229c-.387 0-.739-.006-1.091.001-.728.016-1.165-.312-1.262-1.042-.173-1.307-.309-2.619-.458-3.929-.108-.944-.195-1.892-.321-2.833-.133-.987.421-1.64 1.399-1.62.566.012 1.133.002 1.733.002v9.421zm12.331-4.831c-.338.169-.485.56-.277.852.642.901.295 1.648-.819 1.761-.09.009-.179.021-.294.035-.044.344-.077.616.199.928.167.189.175.632.08.899-.062.174-.436.334-.671.336-2.257.019-4.517.069-6.77-.039-.72-.035-1.422-.506-2.123-.799-.069-.029-.103-.212-.103-.324-.006-2.733-.008-5.467.006-8.2a.516.516 0 0 1 .237-.377c1.083-.548 1.902-1.385 2.629-2.331a2.819 2.819 0 0 0 .606-1.747c.004-.768-.003-1.535.003-2.303.006-.67.181-.987.578-1.078.473-.109.964.156 1.218.697.475 1.011.395 2.07.159 3.111-.158.697-.44 1.366-.657 2.051-.119.374-.219.754-.347 1.195h.573c1.843 0 3.685-.001 5.528.001.245 0 .494-.002.735.036.3.047.508.209.5.553-.006.291.05.598-.023.87-.075.278-.211.646-.43.758-.445.227-.411.537-.35.926.53.104.844.428.819.987-.028.639-.502.95-1.006 1.202z" fill="#fff"/><ellipse cx="74.732" cy="123.475" rx="10.778" ry="10.816" fill="#a3c2d3"/><path fill="#fff" d="M74.732 118.621l1.469 2.977 3.285.478-2.377 2.317.561 3.272-2.938-1.545-2.939 1.545.561-3.272-2.377-2.317 3.285-.478z"/><ellipse cx="170.953" cy="42.547" rx="20.17" ry="19.942" fill="#663eff"/><g fill="#fff"><ellipse cx="162.474" cy="40.328" rx="2.602" ry="3.323"/><path d="M163.986 44.745h-3.024c-2.021 0-3.755 1.118-4.508 2.714h12.04c-.754-1.596-2.488-2.714-4.508-2.714z"/></g><g fill="#fff"><ellipse cx="180.497" cy="40.328" rx="2.602" ry="3.323"/><path d="M182.009 44.745h-3.024c-2.021 0-3.755 1.118-4.508 2.714h12.04c-.754-1.596-2.488-2.714-4.508-2.714z"/></g><g fill="#fff"><ellipse cx="171.874" cy="37.615" rx="2.602" ry="3.323"/><path d="M176.172 42.83a5.202 5.202 0 0 0-2.786-.799h-3.024a5.156 5.156 0 0 0-3.027.971c.63.52 1.187 1.105 1.674 1.743h5.572c.457-.692.981-1.34 1.591-1.915z"/></g><ellipse cx="176.425" cy="87.613" rx="10.896" ry="11.376" fill="#ac54ff"/><path d="M182.253 92.153h-11.561a1.284 1.284 0 0 1-1.283-1.283v-6.514c0-.707.576-1.283 1.283-1.283h11.561c.707 0 1.283.576 1.283 1.283v6.514c0 .708-.576 1.283-1.283 1.283zm-11.561-8.315a.518.518 0 0 0-.518.518v6.514c0 .285.232.518.518.518h11.561a.518.518 0 0 0 .518-.518v-6.514a.518.518 0 0 0-.518-.518h-11.561z" fill="#fff"/><path fill="#fff" d="M170.447 88.261h11.956v1.612h-11.956z"/></svg>