<svg xmlns="http://www.w3.org/2000/svg" viewBox="0 0 224 150"><linearGradient id="a" gradientUnits="userSpaceOnUse" x1="8.913" y1="66.59" x2="215.087" y2="66.59"><stop offset="0" stop-color="#d6d6e1"/><stop offset=".999" stop-color="#b5bcd6"/></linearGradient><path d="M177.392 56.444c-.9 0-1.789.043-2.674.105.209-1.849.327-3.726.327-5.631 0-27.377-22.194-49.571-49.571-49.571-19.269 0-35.957 11.001-44.16 27.058a29.505 29.505 0 0 0-10.278-1.838c-15.407 0-28.057 11.783-29.443 26.828-18.551 3.156-32.68 19.298-32.68 38.749 0 21.714 17.603 39.317 39.317 39.317s109.764.373 129.162.373c20.818 0 37.695-16.876 37.695-37.695s-16.877-37.695-37.695-37.695z" fill="url(#a)"/><path fill="#edf1fc" d="M53.332 52.951h83.788v89.759H53.332z"/><path fill="#7634da" d="M53.332 52.951h83.788v10.401H53.332z"/><circle cx="59.442" cy="58.152" r="2.618" fill="#fff"/><circle cx="69.624" cy="58.152" r="2.618" fill="#fff"/><circle cx="79.516" cy="58.152" r="2.618" fill="#fff"/><linearGradient id="b" gradientUnits="userSpaceOnUse" x1="62.06" y1="76.226" x2="92.317" y2="76.226"><stop offset=".075" stop-color="#70bdf9"/><stop offset=".974" stop-color="#63aff8"/></linearGradient><path fill="url(#b)" d="M62.06 73.316h30.257v5.819H62.06z"/><path fill="#ccd7ed" d="M77.189 83.208h30.257v5.819H77.189zm0 9.31H98.16v5.819H77.189z"/><linearGradient id="c" gradientUnits="userSpaceOnUse" x1="61.769" y1="108.228" x2="92.026" y2="108.228"><stop offset=".075" stop-color="#70bdf9"/><stop offset=".974" stop-color="#63aff8"/></linearGradient><path fill="url(#c)" d="M61.769 105.318h30.257v5.819H61.769z"/><path fill="#ccd7ed" d="M61.757 115.21h20.971v5.819H61.757zm.303 11.055h64.586v9.019H62.06z"/><circle cx="147.837" cy="111.137" r="37.516" fill="#ac54ff"/><g fill="#fff"><path d="M171.47 106.303c-3.384 2.968-9.089 8.28-9.672 8.289-.057.048-.308.002-.376-.069a1.045 1.045 0 0 1-.709-.739c-.061-.064-.099-.292-.056-.342-.003-.49 5.21-6.212 8.178-9.62l-.957-.908c-2.594 2.286-5.17 4.593-7.835 6.793-.087.072-.38.418-.729.719a1.012 1.012 0 0 1-.648.421.764.764 0 0 1-.257.052.752.752 0 0 1-.306-.062c-.56-.148-.827-.668-.801-1.171.024-.461 5.245-6.03 8.078-9.112l-.664-.626c-1.327.297-3.276.903-4.303 1.557-4.659 2.969-7.995 6.683-8.008 12.812-.003 1.516-1.239 3.032-2.355 4.679.031.026.065.036.094.068a27.4 27.4 0 0 0 2.873 2.71c1.511-1.846 3.239-2.622 5.698-2.582 5.806.094 12.429-6.205 13.401-12.27a89.836 89.836 0 0 1-.646-.599zm-26.663 18.131c-2.99 2.704-8.55 6.895-11.372 9.529-1.438 1.341-1.731 3.011-.294 4.464 1.435 1.451 3.128 1.181 4.475-.23 2.602-2.726 7.094-7.562 10.104-10.85-1.267-1.163-1.667-1.769-2.913-2.913z"/><path d="M157.794 128.432c-4.231-3.96-11.723-10.619-12.629-11.752a6.603 6.603 0 0 1-1.055-1.821c-.359-.959-.496-2.072-.341-3.444.72-6.393-9.352-13.419-15.424-11.25-2.161.772-3.067 2.387-3.185 4.595-.391 7.318 5.85 13.637 13.138 13.653 1.554.004 3.473.969 4.594 2.11 5.112 5.203 9.999 10.627 14.968 15.972.477.513.948 1.03 1.438 1.529 1.39 1.415 3.022 1.816 4.484.364 1.566-1.556 1.159-3.281-.378-4.714a4457.012 4457.012 0 0 1-5.61-5.242zm-23.583-13.898c-6.957-2.272-7.098-10.364-7.098-10.364s2.329 6.895 7.382 9.086c5.054 2.191 7.382-1.42 7.382-1.42s-.709 4.97-7.666 2.698z"/></g><path fill="#fff" d="M135.921 78.518l1.257 2.547 2.811.409-2.034 1.983.48 2.799-2.514-1.322-2.515 1.322.48-2.799-2.034-1.983 2.811-.409zm11.916-3.87l1.257 2.548 2.811.408-2.034 1.983.48 2.8-2.514-1.322-2.515 1.322.481-2.8-2.035-1.983 2.812-.408zm11.877 3.87l1.257 2.547 2.812.409-2.035 1.983.481 2.799-2.515-1.322-2.514 1.322.48-2.799-2.034-1.983 2.811-.409zm9.293 7.738l1.258 2.548 2.811.408-2.034 1.983.48 2.8-2.515-1.322-2.514 1.322.48-2.8-2.034-1.983 2.811-.408zm-42.176 0l1.257 2.548 2.811.408-2.034 1.983.48 2.8-2.514-1.322-2.514 1.322.48-2.8-2.034-1.983 2.811-.408z"/></svg>