<svg xmlns="http://www.w3.org/2000/svg" viewBox="0 0 160 144"><path d="M67.977 113.166c-2.158 1.576-5.14 1.165-6.66-.918L7.391 38.408c-1.521-2.082-1.005-5.048 1.153-6.624L50.631 1.048c2.158-1.576 5.14-1.165 6.66.918l53.926 73.841c1.521 2.082 1.005 5.048-1.153 6.624l-42.087 30.735z" fill="#b5bcd6"/><path d="M85.774 115.101c-1.435 2.253-4.362 2.957-6.537 1.571L2.12 67.546C-.055 66.161-.654 63.211.781 60.957l28-43.954c1.435-2.253 4.362-2.957 6.537-1.571l77.117 49.126c2.175 1.385 2.774 4.335 1.339 6.589l-28 43.954z" fill="#ccd7ed"/><path d="M87.8 115.541c-1.435 2.253-4.362 2.957-6.537 1.571L4.146 67.986c-2.175-1.385-2.774-4.335-1.339-6.589l28-43.954c1.435-2.253 4.362-2.957 6.537-1.571l77.117 49.126c2.175 1.385 2.774 4.335 1.339 6.589l-28 43.954z" fill="#edf1fc"/><linearGradient id="a" gradientUnits="userSpaceOnUse" x1="18.115" y1="58.649" x2="110.486" y2="58.649"><stop offset="0" stop-color="#d6d6e1"/><stop offset=".999" stop-color="#b5bcd6"/></linearGradient><path fill="url(#a)" d="M103.107 91.512L18.115 37.369l7.378-11.583 84.993 54.143z"/><path fill="#ccd7ed" d="M14.047 49.538l2.318-3.639 20.968 13.358-2.318 3.639zM9.42 56.98l1.902-2.986 35.44 22.578-1.902 2.986z"/><path d="M159.292 57.78c0 .529-.408.958-.91.958-.503 0-.91-.429-.91-.958V35.478c0-.529.408-.958.91-.958.503 0 .91.429.91.958V57.78zm0 28.768c0 .529-.408.958-.91.958-.503 0-.91-.429-.91-.958V75.235c0-.529.408-.958.91-.958.503 0 .91.429.91.958v11.313z" fill="#96a3aa"/><path d="M158.382 134.853c0 4.797-3.611 8.686-8.066 8.686H97.86c-4.455 0-8.066-3.889-8.066-8.686V18.997c0-4.797 3.611-8.686 8.066-8.686h52.456c4.455 0 8.066 3.889 8.066 8.686v115.856z" fill="#9daab2"/><linearGradient id="b" gradientUnits="userSpaceOnUse" x1="86.407" y1="76.925" x2="156.561" y2="76.925"><stop offset=".005" stop-color="#79729d"/><stop offset=".157" stop-color="#706893"/><stop offset=".693" stop-color="#554a74"/><stop offset=".993" stop-color="#4b3f68"/></linearGradient><path d="M156.561 134.853c0 4.797-3.694 8.686-8.25 8.686H94.657c-4.556 0-8.25-3.889-8.25-8.686V18.997c0-4.797 3.694-8.686 8.25-8.686h53.654c4.556 0 8.25 3.889 8.25 8.686v115.856z" fill="url(#b)"/><path fill="#edf1fc" d="M90.068 21.113H152.9v107.983H90.068z"/><path d="M125.855 16.035c0 .784-.604 1.42-1.349 1.42h-12.788c-.745 0-1.349-.636-1.349-1.42 0-.784.604-1.42 1.349-1.42h12.788c.746 0 1.349.636 1.349 1.42z" fill="#96a3aa"/><ellipse cx="130.878" cy="16.035" rx="1.721" ry="1.812" fill="#96a3aa"/><path d="M125.953 139.92h-8.937c-1.801 0-3.266-1.542-3.266-3.438s1.465-3.438 3.266-3.438h8.937c1.801 0 3.266 1.542 3.266 3.438s-1.466 3.438-3.266 3.438zm-8.938-6.153c-1.421 0-2.578 1.218-2.578 2.714s1.157 2.714 2.578 2.714h8.937c1.421 0 2.578-1.218 2.578-2.714s-1.157-2.714-2.578-2.714h-8.937z" fill="#96a3aa"/><linearGradient id="c" gradientUnits="userSpaceOnUse" x1="91.841" y1="64.075" x2="151.127" y2="64.075"><stop offset=".328" stop-color="#a35ed3"/><stop offset="1" stop-color="#9d54cc"/></linearGradient><path fill="url(#c)" d="M91.841 50.167h59.287v27.815H91.841z"/><path d="M98.715 67.456c.384.261 1.266.696 2.147.696 1.123 0 1.692-.662 1.692-1.497 0-1.132-.91-1.637-1.863-1.637h-.881V63.12h.854c.726 0 1.636-.348 1.636-1.306 0-.679-.441-1.184-1.365-1.184-.754 0-1.551.4-1.92.679l-.441-1.915c.555-.436 1.649-.853 2.858-.853 1.963 0 3.058 1.271 3.058 2.82 0 1.201-.555 2.158-1.692 2.629v.034c1.109.244 2.006 1.271 2.006 2.769 0 1.985-1.437 3.447-3.783 3.447-1.194 0-2.204-.383-2.745-.783l.439-2.001zm14.331-3.117c0 3.482-1.152 5.902-3.499 5.902-2.389 0-3.441-2.629-3.455-5.832 0-3.291 1.123-5.867 3.513-5.867 2.459 0 3.441 2.698 3.441 5.797zm-4.793.07c0 2.594.512 3.83 1.337 3.83.839 0 1.294-1.288 1.294-3.865 0-2.507-.44-3.83-1.309-3.83-.782 0-1.322 1.219-1.322 3.865zm10.719-2.507c0 2.368-1.223 3.622-2.56 3.622-1.408 0-2.518-1.289-2.518-3.43 0-2.021 1.01-3.552 2.603-3.552 1.579 0 2.475 1.428 2.475 3.36zm-3.47.139c-.015 1.184.327 2.037.952 2.037.612 0 .91-.766.91-2.055 0-1.148-.256-2.037-.938-2.037-.64.001-.924.906-.924 2.055zm1.01 8.2l5.318-11.683h1.152l-5.305 11.683h-1.165zm9.115-3.638c0 2.351-1.223 3.604-2.56 3.604-1.394 0-2.503-1.288-2.503-3.412 0-2.02 1.01-3.552 2.588-3.552 1.579-.001 2.475 1.427 2.475 3.36zm-3.455.122c-.015 1.184.327 2.037.938 2.037s.91-.767.91-2.037c0-1.149-.256-2.037-.925-2.037-.639 0-.923.905-.923 2.037zm14.455-1.028c0 3.116-1.806 4.544-3.669 4.544-2.034 0-3.598-1.637-3.598-4.388 0-2.768 1.479-4.526 3.726-4.526 2.119 0 3.541 1.793 3.541 4.37zm-5.034.087c0 1.463.498 2.56 1.422 2.56.854 0 1.38-1.027 1.38-2.577 0-1.253-.398-2.542-1.38-2.542-1.024 0-1.422 1.305-1.422 2.559zm11.004 4.266v-6.563h-2.219v6.563h-2.162v-6.563h-.924v-1.95h.924v-.122c0-1.01.214-2.037.797-2.751.455-.574 1.138-.939 2.119-.939.355 0 .711.104.924.209l-.299 1.949a1.399 1.399 0 0 0-.54-.121c-.654 0-.854.661-.854 1.515v.261h2.233v-.331c0-1.027.256-2.158.882-2.854.54-.627 1.294-.854 1.919-.854.484 0 .854.087 1.152.174l-.085 2.037a1.967 1.967 0 0 0-.697-.122c-.711 0-1.01.68-1.01 1.515v.436h1.394v1.95h-1.379v6.563h-2.175z" fill="#fff"/><linearGradient id="d" gradientUnits="userSpaceOnUse" x1="95.322" y1="97.359" x2="106.676" y2="97.359"><stop offset=".328" stop-color="#a35ed3"/><stop offset="1" stop-color="#9d54cc"/></linearGradient><path fill="url(#d)" d="M100.999 91.96l1.755 3.555 3.922.57-2.838 2.766.67 3.907-3.509-1.844-3.508 1.844.67-3.907-2.839-2.766 3.923-.57z"/><linearGradient id="e" gradientUnits="userSpaceOnUse" x1="109.662" y1="97.359" x2="121.016" y2="97.359"><stop offset=".328" stop-color="#a35ed3"/><stop offset="1" stop-color="#9d54cc"/></linearGradient><path fill="url(#e)" d="M115.339 91.96l1.754 3.555 3.923.57-2.839 2.766.671 3.907-3.509-1.844-3.509 1.844.67-3.907-2.838-2.766 3.923-.57z"/><linearGradient id="f" gradientUnits="userSpaceOnUse" x1="124.001" y1="97.359" x2="135.356" y2="97.359"><stop offset=".328" stop-color="#a35ed3"/><stop offset="1" stop-color="#9d54cc"/></linearGradient><path fill="url(#f)" d="M129.679 91.96l1.754 3.555 3.923.57-2.839 2.766.67 3.907-3.508-1.844-3.509 1.844.67-3.907-2.839-2.766 3.923-.57z"/><linearGradient id="g" gradientUnits="userSpaceOnUse" x1="138.341" y1="97.359" x2="149.695" y2="97.359"><stop offset=".328" stop-color="#a35ed3"/><stop offset="1" stop-color="#9d54cc"/></linearGradient><path fill="url(#g)" d="M144.018 91.96l1.755 3.555 3.922.57-2.838 2.766.67 3.907-3.509-1.844-3.508 1.844.67-3.907-2.839-2.766 3.923-.57z"/><circle cx="49.994" cy="109.168" r="34.832" fill="#663eff"/><g fill="#fff"><path d="M71.201 101.392c-3.142 2.756-8.439 7.688-8.98 7.696-.052.045-.286.002-.349-.064a.968.968 0 0 1-.658-.686c-.057-.059-.092-.271-.052-.317-.003-.455 4.837-5.767 7.593-8.931l-.888-.843c-2.408 2.122-4.8 4.265-7.275 6.307-.081.067-.353.388-.677.668a.94.94 0 0 1-.602.391.704.704 0 0 1-.239.049.688.688 0 0 1-.284-.058c-.52-.137-.768-.62-.744-1.087.022-.428 4.87-5.598 7.5-8.46l-.616-.581c-1.232.276-3.041.838-3.995 1.446-4.326 2.756-7.423 6.204-7.435 11.896-.003 1.408-1.15 2.815-2.187 4.344.029.024.06.033.087.063.837.904 1.72 1.749 2.667 2.516 1.403-1.714 3.007-2.434 5.291-2.397 5.391.087 11.54-5.761 12.442-11.392l-.599-.56zm-24.756 16.834c-2.776 2.511-7.938 6.402-10.559 8.847-1.335 1.245-1.607 2.796-.273 4.145 1.332 1.347 2.905 1.096 4.154-.214 2.416-2.531 6.587-7.021 9.382-10.074-1.176-1.079-1.547-1.642-2.704-2.704z"/><path d="M58.503 121.938c-3.929-3.677-10.884-9.86-11.726-10.912a6.126 6.126 0 0 1-.979-1.69c-.333-.891-.46-1.924-.317-3.198.669-5.936-8.683-12.459-14.32-10.445-2.006.717-2.848 2.216-2.958 4.266-.363 6.794 5.431 12.661 12.198 12.676 1.443.003 3.225.899 4.265 1.959 4.746 4.831 9.284 9.867 13.897 14.829.442.476.88.956 1.336 1.42 1.29 1.314 2.806 1.686 4.163.338 1.454-1.444 1.076-3.047-.351-4.376-1.015-.947-3.032-2.831-5.208-4.867zm-21.895-12.903c-6.459-2.109-6.591-9.622-6.591-9.622s2.162 6.401 6.854 8.436 6.854-1.318 6.854-1.318-.658 4.613-7.117 2.504z"/></g></svg>