<svg width="30" height="30" viewBox="0 0 30 30" fill="none" xmlns="http://www.w3.org/2000/svg">
<g clip-path="url(#clip0_1241_6992)">
<path d="M29.4997 15C29.4997 23.316 22.5047 29.9935 14.0757 29.4715C6.85371 29.024 0.97571 23.146 0.52871 15.924C0.00620961 7.49497 6.68371 0.499969 14.9997 0.499969C17.2837 0.499969 19.4462 1.02697 21.3697 1.97047C21.8852 2.22347 22.0742 2.86547 21.7897 3.36447L21.7877 3.36797C21.5247 3.82897 20.9507 4.00047 20.4747 3.76597C18.5657 2.82597 16.3832 2.36847 14.0797 2.53297C8.02971 2.96447 3.08871 7.81697 2.55021 13.8585C1.88021 21.378 7.90621 27.6895 15.3317 27.4955C21.6907 27.3295 26.9987 22.2865 27.4642 15.9425C27.5852 14.2945 27.3867 12.699 26.9147 11.228C26.7652 10.7615 26.9827 10.258 27.4207 10.039C27.9677 9.76547 28.6382 10.039 28.8237 10.6215C29.2627 12.002 29.4997 13.473 29.4997 15Z" fill="#3590F3"/>
<path d="M7.70517 11.236L15.6122 21.9345C16.2092 22.7425 17.4242 22.6725 17.9277 21.8015L29.3537 2.02249C29.9487 0.992492 28.5912 -0.0430082 27.7817 0.823992L15.8777 13.575L8.97067 9.75199C8.03717 9.23549 7.06717 10.3725 7.70517 11.236Z" fill="#2B74C3"/>
</g>
<defs>
<clipPath id="clip0_1241_6992">
<rect width="30" height="30" fill="white"/>
</clipPath>
</defs>
</svg>
