<svg width="276" height="21" viewBox="0 0 276 21" fill="none" xmlns="http://www.w3.org/2000/svg">
<path d="M271.459 19.824L267.147 12.208H265.299V19.824H261.379V0.280001H268.715C270.227 0.280001 271.515 0.550668 272.579 1.092C273.643 1.61467 274.436 2.33333 274.959 3.248C275.5 4.144 275.771 5.152 275.771 6.272C275.771 7.56 275.398 8.72667 274.651 9.772C273.904 10.7987 272.794 11.508 271.319 11.9L275.995 19.824H271.459ZM265.299 9.268H268.575C269.639 9.268 270.432 9.016 270.955 8.512C271.478 7.98933 271.739 7.27067 271.739 6.356C271.739 5.46 271.478 4.76933 270.955 4.284C270.432 3.78 269.639 3.528 268.575 3.528H265.299V9.268Z" fill="#1E2D2F"/>
<path d="M250.397 3.444V8.344H256.977V11.452H250.397V16.632H257.817V19.824H246.477V0.251999H257.817V3.444H250.397Z" fill="#1E2D2F"/>
<path d="M239.572 9.8C240.674 10.0053 241.579 10.556 242.288 11.452C242.998 12.348 243.352 13.3747 243.352 14.532C243.352 15.5773 243.091 16.5013 242.568 17.304C242.064 18.088 241.327 18.704 240.356 19.152C239.386 19.6 238.238 19.824 236.912 19.824H228.484V0.280001H236.548C237.874 0.280001 239.012 0.494667 239.964 0.924001C240.935 1.35333 241.663 1.95067 242.148 2.716C242.652 3.48133 242.904 4.34933 242.904 5.32C242.904 6.45867 242.596 7.41067 241.98 8.176C241.383 8.94133 240.58 9.48267 239.572 9.8ZM232.404 8.344H235.988C236.922 8.344 237.64 8.13867 238.144 7.728C238.648 7.29867 238.9 6.692 238.9 5.908C238.9 5.124 238.648 4.51733 238.144 4.088C237.64 3.65867 236.922 3.444 235.988 3.444H232.404V8.344ZM236.352 16.632C237.304 16.632 238.042 16.408 238.564 15.96C239.106 15.512 239.376 14.8773 239.376 14.056C239.376 13.216 239.096 12.5627 238.536 12.096C237.976 11.6107 237.22 11.368 236.268 11.368H232.404V16.632H236.352Z" fill="#1E2D2F"/>
<path d="M217.502 3.444V8.344H224.082V11.452H217.502V16.632H224.922V19.824H213.582V0.251999H224.922V3.444H217.502Z" fill="#1E2D2F"/>
<path d="M205.697 6.16C205.249 5.33867 204.633 4.71333 203.849 4.284C203.065 3.85467 202.15 3.64 201.105 3.64C199.947 3.64 198.921 3.90133 198.025 4.424C197.129 4.94667 196.429 5.69333 195.925 6.664C195.421 7.63467 195.169 8.75467 195.169 10.024C195.169 11.3307 195.421 12.4693 195.925 13.44C196.447 14.4107 197.166 15.1573 198.081 15.68C198.995 16.2027 200.059 16.464 201.273 16.464C202.766 16.464 203.989 16.072 204.941 15.288C205.893 14.4853 206.518 13.3747 206.817 11.956H200.097V8.96H210.681V12.376C210.419 13.7387 209.859 14.9987 209.001 16.156C208.142 17.3133 207.031 18.2467 205.669 18.956C204.325 19.6467 202.813 19.992 201.133 19.992C199.247 19.992 197.539 19.572 196.009 18.732C194.497 17.8733 193.302 16.688 192.425 15.176C191.566 13.664 191.137 11.9467 191.137 10.024C191.137 8.10133 191.566 6.384 192.425 4.872C193.302 3.34133 194.497 2.156 196.009 1.316C197.539 0.457333 199.238 0.0279999 201.105 0.0279999C203.307 0.0279999 205.221 0.569333 206.845 1.652C208.469 2.716 209.589 4.21867 210.205 6.16H205.697Z" fill="#1E2D2F"/>
<path d="M189.231 0.280001V3.444H184.023V19.824H180.103V3.444H174.895V0.280001H189.231Z" fill="#1E2D2F"/>
<path d="M167.872 16.1H160.088L158.8 19.824H154.684L161.712 0.251999H166.276L173.304 19.824H169.16L167.872 16.1ZM166.808 12.964L163.98 4.788L161.152 12.964H166.808Z" fill="#1E2D2F"/>
<path d="M148.029 19.824L143.717 12.208H141.869V19.824H137.949V0.280001H145.285C146.797 0.280001 148.085 0.550668 149.149 1.092C150.213 1.61467 151.007 2.33333 151.529 3.248C152.071 4.144 152.341 5.152 152.341 6.272C152.341 7.56 151.968 8.72667 151.221 9.772C150.475 10.7987 149.364 11.508 147.889 11.9L152.565 19.824H148.029ZM141.869 9.268H145.145C146.209 9.268 147.003 9.016 147.525 8.512C148.048 7.98933 148.309 7.27067 148.309 6.356C148.309 5.46 148.048 4.76933 147.525 4.284C147.003 3.78 146.209 3.528 145.145 3.528H141.869V9.268Z" fill="#1E2D2F"/>
<path d="M128.418 0.280001V3.444H123.21V19.824H119.29V3.444H114.082V0.280001H128.418Z" fill="#1E2D2F"/>
<path d="M107.583 19.824L100.471 11.116V19.824H96.5508V0.280001H100.471V9.044L107.583 0.280001H112.315L104.251 9.968L112.539 19.824H107.583Z" fill="#1E2D2F"/>
<path d="M80.8927 0.280001V12.376C80.8927 13.7013 81.238 14.7187 81.9287 15.428C82.6193 16.1187 83.59 16.464 84.8407 16.464C86.11 16.464 87.09 16.1187 87.7807 15.428C88.4713 14.7187 88.8167 13.7013 88.8167 12.376V0.280001H92.7647V12.348C92.7647 14.0093 92.4007 15.4187 91.6727 16.576C90.9633 17.7147 90.002 18.5733 88.7887 19.152C87.594 19.7307 86.2593 20.02 84.7847 20.02C83.3287 20.02 82.0033 19.7307 80.8087 19.152C79.6327 18.5733 78.6993 17.7147 78.0087 16.576C77.318 15.4187 76.9727 14.0093 76.9727 12.348V0.280001H80.8927Z" fill="#1E2D2F"/>
<path d="M63.789 0.280001C65.8424 0.280001 67.6437 0.681334 69.193 1.484C70.761 2.28667 71.965 3.43467 72.805 4.928C73.6637 6.40267 74.093 8.12 74.093 10.08C74.093 12.04 73.6637 13.7573 72.805 15.232C71.965 16.688 70.761 17.8173 69.193 18.62C67.6437 19.4227 65.8424 19.824 63.789 19.824H56.957V0.280001H63.789ZM63.649 16.492C65.7024 16.492 67.289 15.932 68.409 14.812C69.529 13.692 70.089 12.1147 70.089 10.08C70.089 8.04533 69.529 6.45867 68.409 5.32C67.289 4.16267 65.7024 3.584 63.649 3.584H60.877V16.492H63.649Z" fill="#1E2D2F"/>
<path d="M44.0435 20.02C42.2142 20.02 40.5342 19.5907 39.0035 18.732C37.4729 17.8733 36.2595 16.688 35.3635 15.176C34.4675 13.6453 34.0195 11.9187 34.0195 9.996C34.0195 8.092 34.4675 6.384 35.3635 4.872C36.2595 3.34133 37.4729 2.14667 39.0035 1.288C40.5342 0.429334 42.2142 0 44.0435 0C45.8915 0 47.5715 0.429334 49.0835 1.288C50.6142 2.14667 51.8182 3.34133 52.6955 4.872C53.5915 6.384 54.0395 8.092 54.0395 9.996C54.0395 11.9187 53.5915 13.6453 52.6955 15.176C51.8182 16.688 50.6142 17.8733 49.0835 18.732C47.5529 19.5907 45.8729 20.02 44.0435 20.02ZM44.0435 16.52C45.2195 16.52 46.2555 16.2587 47.1515 15.736C48.0475 15.1947 48.7475 14.4293 49.2515 13.44C49.7555 12.4507 50.0075 11.3027 50.0075 9.996C50.0075 8.68933 49.7555 7.55067 49.2515 6.58C48.7475 5.59067 48.0475 4.83467 47.1515 4.312C46.2555 3.78933 45.2195 3.528 44.0435 3.528C42.8675 3.528 41.8222 3.78933 40.9075 4.312C40.0115 4.83467 39.3115 5.59067 38.8075 6.58C38.3035 7.55067 38.0515 8.68933 38.0515 9.996C38.0515 11.3027 38.3035 12.4507 38.8075 13.44C39.3115 14.4293 40.0115 15.1947 40.9075 15.736C41.8222 16.2587 42.8675 16.52 44.0435 16.52Z" fill="#1E2D2F"/>
<path d="M27.1152 19.824L22.8032 12.208H20.9552V19.824H17.0352V0.280001H24.3712C25.8832 0.280001 27.1712 0.550668 28.2352 1.092C29.2992 1.61467 30.0925 2.33333 30.6152 3.248C31.1565 4.144 31.4272 5.152 31.4272 6.272C31.4272 7.56 31.0538 8.72667 30.3072 9.772C29.5605 10.7987 28.4498 11.508 26.9752 11.9L31.6512 19.824H27.1152ZM20.9552 9.268H24.2312C25.2952 9.268 26.0885 9.016 26.6112 8.512C27.1338 7.98933 27.3952 7.27067 27.3952 6.356C27.3952 5.46 27.1338 4.76933 26.6112 4.284C26.0885 3.78 25.2952 3.528 24.2312 3.528H20.9552V9.268Z" fill="#1E2D2F"/>
<path d="M14.252 6.328C14.252 7.37333 14 8.35333 13.496 9.268C13.0107 10.1827 12.236 10.92 11.172 11.48C10.1267 12.04 8.80133 12.32 7.196 12.32H3.92V19.824H0V0.280001H7.196C8.708 0.280001 9.996 0.541334 11.06 1.064C12.124 1.58667 12.9173 2.30533 13.44 3.22C13.9813 4.13467 14.252 5.17067 14.252 6.328ZM7.028 9.156C8.11067 9.156 8.91333 8.91333 9.436 8.428C9.95867 7.924 10.22 7.224 10.22 6.328C10.22 4.424 9.156 3.472 7.028 3.472H3.92V9.156H7.028Z" fill="#1E2D2F"/>
</svg>
