<?xml version="1.0" encoding="utf-8"?>
<!-- Generator: Adobe Illustrator 23.0.1, SVG Export Plug-In . SVG Version: 6.00 Build 0)  -->
<svg version="1.1" id="Слой_1" xmlns="http://www.w3.org/2000/svg" xmlns:xlink="http://www.w3.org/1999/xlink" x="0px" y="0px"
	 viewBox="0 0 62.8 63.7" style="enable-background:new 0 0 62.8 63.7;" xml:space="preserve">
<style type="text/css">
	.st0{fill:#0C7485;}
</style>
<path class="st0" d="M62.7,29.2c0.1,0.9,0.1,1.8,0.1,2.7c0,4.4-0.8,8.5-2.4,12.4s-3.7,7.3-6.5,10.1c-2.8,2.9-6,5.1-9.8,6.8
	c-3.8,1.7-7.9,2.5-12.3,2.5s-8.5-0.8-12.4-2.5s-7.3-3.9-10.1-6.8c-2.9-2.9-5.1-6.3-6.8-10.1C0.8,40.4,0,36.3,0,31.9
	s0.8-8.5,2.5-12.4s3.9-7.3,6.8-10.1c2.9-2.9,6.3-5.1,10.1-6.8c3.9-1.8,8-2.6,12.4-2.6c5.8,0,11,1.4,15.7,4.1
	C52.2,6.9,56,10.5,58.8,15l-10.4,6.7c-1.6-3.2-3.9-5.8-6.8-7.7c-2.9-1.9-6.2-2.9-9.8-2.9c-2.7,0-5.2,0.6-7.5,1.6
	c-2.3,1.1-4.3,2.6-6,4.4c-1.7,1.9-3.1,4.1-4.1,6.6s-1.5,5.2-1.5,8.1c0,2.8,0.5,5.5,1.5,8s2.4,4.7,4.1,6.6c1.7,1.9,3.7,3.4,6,4.4
	c2.3,1.1,4.8,1.6,7.5,1.6c2.1,0,4.2-0.4,6-1.1c1.9-0.7,3.6-1.7,5.1-3s2.8-2.8,3.9-4.6c1.1-1.7,1.9-3.7,2.4-5.8H32.3l-5.7-11.6h35.8
	C62.5,27.4,62.6,28.3,62.7,29.2z"/>
</svg>
