<?xml version="1.0" encoding="utf-8"?>
<!-- Generator: Adobe Illustrator 23.0.1, SVG Export Plug-In . SVG Version: 6.00 Build 0)  -->
<svg version="1.1" id="Layer_1" xmlns="http://www.w3.org/2000/svg" xmlns:xlink="http://www.w3.org/1999/xlink" x="0px" y="0px"
	 viewBox="0 0 459.4 87.8" style="enable-background:new 0 0 459.4 87.8;" xml:space="preserve">
<style type="text/css">
	.st0{fill:#0C7485;}
</style>
<g>
	<path class="st0" d="M54.4,37.7c0-16,8.5-29.9,21.2-37.7C59.3,5.9,23.7,18.7,14.6,21.8C4.7,25.3-0.1,31.4,0,37.7
		c-0.1,6.3,4.7,12.4,14.6,15.9c9,3.1,44.6,15.9,60.9,21.8C62.9,67.6,54.4,53.6,54.4,37.7z"/>
	<g>
		<g>
			<path class="st0" d="M129.9,36.2c0.1,0.9,0.1,1.8,0.1,2.7c0,4.4-0.8,8.5-2.4,12.4c-1.6,3.9-3.7,7.3-6.5,10.1
				c-2.8,2.9-6,5.1-9.8,6.8c-3.8,1.7-7.9,2.5-12.3,2.5c-4.4,0-8.5-0.8-12.4-2.5c-3.9-1.7-7.3-3.9-10.1-6.8
				c-2.9-2.9-5.1-6.3-6.8-10.1c-1.7-3.9-2.5-8-2.5-12.4s0.8-8.5,2.5-12.4c1.7-3.9,3.9-7.3,6.8-10.1c2.9-2.9,6.3-5.1,10.1-6.8
				C90.5,7.8,94.6,7,99,7c5.8,0,11,1.4,15.7,4.1c4.7,2.8,8.5,6.4,11.3,10.9l-10.4,6.7c-1.6-3.2-3.9-5.8-6.8-7.7
				c-2.9-1.9-6.2-2.9-9.8-2.9c-2.7,0-5.2,0.6-7.5,1.6c-2.3,1.1-4.3,2.6-6,4.4c-1.7,1.9-3.1,4.1-4.1,6.6c-1,2.5-1.5,5.2-1.5,8.1
				c0,2.8,0.5,5.5,1.5,8c1,2.5,2.4,4.7,4.1,6.6c1.7,1.9,3.7,3.4,6,4.4c2.3,1.1,4.8,1.6,7.5,1.6c2.1,0,4.2-0.4,6-1.1
				c1.9-0.7,3.6-1.7,5.1-3c1.5-1.3,2.8-2.8,3.9-4.6c1.1-1.7,1.9-3.7,2.4-5.8H99.5l-5.7-11.6h35.8C129.7,34.4,129.8,35.3,129.9,36.2z
				"/>
			<path class="st0" d="M146.7,7.7V70h-11.8L135,7.7H146.7z"/>
			<path class="st0" d="M165.8,63.9l-15.6-38.4H163v0.1l11.5,32.3L165.8,63.9z M199.9,25.5l-0.1,0.2c-1,2.7-2,5.4-2.9,8
				c-0.9,2.6-1.8,5-2.7,7.2c-3,8.3-5.6,15.4-8,21.4c-2.3,6-4.8,10.8-7.5,14.5c-2.7,3.9-5.7,6.6-9,8.4c-3.4,1.7-7.5,2.6-12.6,2.6
				h-0.2V75.7h0.2c1.5,0,2.9-0.1,4.1-0.2c1.2-0.1,2.3-0.4,3.3-0.8c1-0.4,1.9-0.9,2.8-1.6c0.9-0.7,1.7-1.6,2.4-2.7
				c0.8-1.1,1.5-2.4,2.3-3.9c0.8-1.5,1.6-3.4,2.4-5.5c0.8-2.1,1.7-4.6,2.8-7.4c1-2.8,2.1-6,3.4-9.6c0.9-2.7,2-5.5,3-8.5
				c1.1-3,2.2-6.3,3.5-9.9v-0.1H199.9z"/>
			<path class="st0" d="M231.7,53l9.6,6.3l-0.1,0.1c-2.1,3.6-4.9,6.3-8.4,8.4c-3.5,2-7.3,3-11.4,3c-3.2,0-6.2-0.6-9-1.8
				c-2.8-1.2-5.2-2.9-7.3-4.9c-2.1-2.1-3.7-4.5-4.9-7.3c-1.2-2.8-1.8-5.8-1.8-8.9c0-3.1,0.6-6.1,1.8-8.9c1.2-2.8,2.9-5.2,4.9-7.3
				c2.1-2.1,4.5-3.7,7.3-4.9c2.8-1.2,5.8-1.8,9-1.8c4.1,0,7.9,1,11.4,3c3.5,2,6.3,4.8,8.4,8.4l0.1,0.1l-9.7,6.3l-0.1-0.1
				c-0.9-2.2-2.3-4-4.1-5.3c-1.8-1.4-3.8-2-6-2c-1.6,0-3.1,0.3-4.5,1c-1.4,0.7-2.6,1.6-3.6,2.8c-1,1.2-1.8,2.5-2.4,4
				c-0.6,1.5-0.9,3.1-0.9,4.8c0,1.7,0.3,3.3,0.9,4.8c0.6,1.5,1.4,2.8,2.4,3.9c1,1.1,2.2,2,3.6,2.6c1.4,0.6,2.9,0.9,4.5,0.9
				c2.2,0,4.2-0.6,6-1.8c1.8-1.2,3.2-2.9,4.1-5.1L231.7,53L231.7,53z"/>
			<path class="st0" d="M267.1,24.8c3.2,0,6.2,0.6,9,1.8c2.8,1.2,5.2,2.9,7.3,4.9c2.1,2.1,3.7,4.5,4.9,7.3c1.2,2.8,1.8,5.8,1.8,8.9
				s-0.6,6.1-1.8,8.9c-1.2,2.8-2.9,5.2-4.9,7.3c-2.1,2.1-4.5,3.7-7.3,4.9c-2.8,1.2-5.8,1.8-9,1.8c-3.2,0-6.2-0.6-9-1.8
				c-2.8-1.2-5.2-2.9-7.3-4.9c-2.1-2.1-3.7-4.5-4.9-7.3c-1.2-2.8-1.8-5.8-1.8-8.9s0.6-6.1,1.8-8.9c1.2-2.8,2.9-5.2,4.9-7.3
				c2.1-2.1,4.5-3.7,7.3-4.9C260.9,25.4,263.8,24.8,267.1,24.8z M267.1,60.1c1.5,0,2.9-0.3,4.1-1c1.3-0.7,2.4-1.6,3.4-2.7
				c1-1.2,1.7-2.5,2.3-4c0.6-1.5,0.8-3.2,0.8-4.9c0-1.7-0.3-3.2-0.8-4.8c-0.6-1.5-1.3-2.8-2.3-3.9c-1-1.1-2.1-2-3.4-2.6
				c-1.3-0.7-2.7-1-4.1-1c-1.5,0-2.9,0.3-4.2,1c-1.3,0.7-2.4,1.5-3.4,2.6c-1,1.1-1.7,2.4-2.3,3.9c-0.6,1.5-0.8,3.1-0.8,4.8
				c0,1.8,0.3,3.4,0.8,4.9c0.6,1.5,1.3,2.8,2.3,4c1,1.2,2.1,2.1,3.4,2.7C264.2,59.8,265.6,60.1,267.1,60.1z"/>
			<path class="st0" d="M311.9,7.7V70h-12.8V18.6h-18.3V7.7H311.9z M313.8,7.7h16.5v10.9h-11L313.8,7.7z"/>
			<path class="st0" d="M340.6,24.8c3.1,0,6.1,0.6,8.9,1.8c2.8,1.2,5.2,2.9,7.3,4.9c2.1,2.1,3.7,4.5,4.9,7.3c1.2,2.8,1.8,5.8,1.8,9
				c0,1.7-0.2,3.4-0.5,5L363,53h-22.6l-5.7-9.1h16.9c-0.8-2.5-2.2-4.5-4.1-6.1c-1.9-1.6-4.2-2.4-6.8-2.4c-1.6,0-3.1,0.3-4.5,1
				c-1.4,0.6-2.7,1.5-3.7,2.6c-1,1.1-1.9,2.4-2.4,3.9c-0.6,1.5-0.9,3.1-0.9,4.9c0,1.4,0.3,2.8,0.8,4.2c0.5,1.4,1.3,2.8,2.3,3.9
				c1,1.2,2.2,2.2,3.6,3c1.4,0.8,3,1.2,4.8,1.2c1.6,0,3.1-0.2,4.4-0.7c1.3-0.4,2.6-1.4,3.8-3l0.1-0.1l0.2,0.1l10.3,4.5l-0.2,0.2
				c-2.1,3-4.8,5.3-8.1,7c-3.3,1.7-6.8,2.5-10.5,2.5c-3.2,0-6.2-0.6-9-1.8c-2.8-1.2-5.3-2.8-7.3-4.9c-2.1-2.1-3.7-4.5-4.9-7.3
				c-1.2-2.8-1.8-5.8-1.8-8.9c0-3.2,0.6-6.2,1.8-9c1.2-2.8,2.9-5.2,4.9-7.3c2.1-2.1,4.5-3.7,7.3-4.9
				C334.4,25.4,337.4,24.8,340.6,24.8z"/>
			<path class="st0" d="M400.5,53l9.6,6.3l-0.1,0.1c-2.1,3.6-4.9,6.3-8.4,8.4c-3.5,2-7.3,3-11.4,3c-3.2,0-6.2-0.6-9-1.8
				c-2.8-1.2-5.2-2.9-7.3-4.9c-2.1-2.1-3.7-4.5-4.9-7.3c-1.2-2.8-1.8-5.8-1.8-8.9c0-3.1,0.6-6.1,1.8-8.9c1.2-2.8,2.9-5.2,4.9-7.3
				c2.1-2.1,4.5-3.7,7.3-4.9c2.8-1.2,5.8-1.8,9-1.8c4.1,0,7.9,1,11.4,3c3.5,2,6.3,4.8,8.4,8.4l0.1,0.1l-9.7,6.3l-0.1-0.1
				c-0.9-2.2-2.3-4-4.1-5.3c-1.8-1.4-3.8-2-6-2c-1.6,0-3.1,0.3-4.5,1c-1.4,0.7-2.6,1.6-3.6,2.8c-1,1.2-1.8,2.5-2.4,4
				c-0.6,1.5-0.9,3.1-0.9,4.8c0,1.7,0.3,3.3,0.9,4.8c0.6,1.5,1.4,2.8,2.4,3.9c1,1.1,2.2,2,3.6,2.6c1.4,0.6,2.9,0.9,4.5,0.9
				c2.2,0,4.2-0.6,6-1.8c1.8-1.2,3.2-2.9,4.1-5.1L400.5,53L400.5,53z"/>
			<path class="st0" d="M414.6,7.7h11.8L426.4,70h-11.8L414.6,7.7z M455.4,30.8c2.6,3.6,4,9.2,4,16.9V70h-11.8V47.8
				c0-1.6,0-3.1-0.1-4.6c-0.1-1.5-0.4-2.8-0.9-3.9c-0.5-1.1-1.4-2-2.6-2.7c-1.2-0.6-2.9-1-5.1-1c-1.7,0-3.6,0.5-5.6,1.4l-0.1,0.1
				l-0.1-0.2l-4.3-7.7l0.1-0.1c1.5-1.4,3.3-2.4,5.2-3.1c1.9-0.7,4-1,6.2-1C447.4,25,452.5,27,455.4,30.8z"/>
		</g>
	</g>
</g>
</svg>
