<svg width="207" height="57" xmlns="http://www.w3.org/2000/svg" xmlns:xlink="http://www.w3.org/1999/xlink"><defs><path id="a" d="M.04.044h9.402V20.5H.04z"/><path id="c" d="M.056.019h20.949v5.905H.055z"/><path id="e" d="M.024.019h20.95v5.905H.023z"/></defs><g fill="none" fill-rule="evenodd"><path d="M69.887 36.95H68.87v4.871h1.052c.946 0 1.682-.175 2.138-.56.595-.386.876-1.017.876-1.893 0-.77-.246-1.366-.666-1.787-.42-.385-.981-.63-1.717-.63h-.666zm.7-3.748c.877 0 1.367-.28 1.367-1.262 0-.35-.07-.805-.49-1.05-.35-.211-.841-.211-1.472-.211H68.87v2.523h1.718zm-5.43 11.422V27.876l-.422-.49c-.14-.175-.07-.386.176-.386h4.976c1.507 0 3.084.105 4.135.806 1.332.841 1.717 2.347 1.717 3.994 0 1.087-.175 2.032-.56 2.733 1.05 1.016 1.506 2.628 1.506 4.906 0 2.417-.49 4.134-1.647 5.01-1.086.876-2.628 1.051-4.17 1.051h-5.957c-.21 0-.35-.245-.176-.42l.421-.456zm14.783.876c-.21 0-.316-.245-.176-.42l.421-.456V27.876l-.42-.49c-.141-.14-.071-.386.174-.386h10.033c.14 0 .246.105.246.21v3.504c0 .21-.21.42-.421.21l-.42-.42h-5.474v3.82h4.105l.42-.457c.106-.14.422-.105.422.176v4.029c0 .21-.28.315-.421.175l-.421-.385h-4.105v4.135h5.473l.42-.421c.176-.175.422-.035.422.21v3.469c0 .105-.105.245-.246.245H79.94zm21.935-7.568l-1.168-4.24-1.099 4.24h2.267zm-8.07 7.148l.411-.456 4.43-16.783-.274-.456c-.103-.175-.034-.385.24-.385h4.294c.206 0 .309.245.206.385l-.31.456 4.431 16.783.481.456c.103.105.034.42-.206.42h-4.156c-.172 0-.309-.245-.137-.42l.412-.421-.893-3.258h-4.019l-.858 3.258.412.42c.103.106.069.421-.206.421h-4.087c-.206 0-.344-.245-.172-.42zm21.557-7.954c1.114 0 1.775-.175 2.227-.56.453-.351.627-.911.627-1.857v-1.822c0-.982-.174-1.577-.627-1.893-.417-.35-1.078-.49-2.227-.49h-.452v6.622h.452zm-4.523-9.74c-.14-.14-.07-.386.173-.386h5.882c3.096 0 4.976 1.752 4.976 5.046v3.538c0 .981-.174 1.892-.522 2.593-.383.806-.94 1.437-1.705 1.787l2.088 4.625.487.49c.174.105.035.421-.209.421h-4.385c-.174 0-.348-.21-.174-.42l.348-.456-1.81-4.03h-1.078v4.03l.452.455c.244.246.105.421-.139.421h-4.21c-.21 0-.314-.245-.174-.42l.417-.456V27.876l-.417-.49zm18.596 3.118v11.493h2.474c1.65 0 2.817-1.087 2.817-2.874v-5.746c0-1.752-.893-2.873-2.817-2.873h-2.474zm-4.055-3.119c-.137-.14-.068-.385.172-.385h7.353c1.856 0 3.264.526 4.192 1.577.825.91 1.237 2.277 1.237 3.959v7.428c0 3.399-1.924 5.536-5.429 5.536h-7.353c-.206 0-.343-.245-.172-.42l.413-.456V27.876l-.413-.49zm23.48 12.271v-7.383c0-4.128 2.225-5.773 6.299-5.773 3.868 0 6.23 1.505 6.23 5.773v.595c0 .14-.102.245-.273.245h-3.595c-.24 0-.342-.28-.205-.42l.445-.42c-.171-1.224-1.13-2.029-2.465-2.029h-.342c-.89 0-1.507.245-1.918.805-.376.525-.513 1.224-.513 2.17v5.528c0 2.45 1.335 2.974 2.43 2.974h.343c.89 0 1.54-.245 1.951-.805.343-.525.548-1.225.548-2.17v-.244l-.445-.42c-.137-.105-.103-.455.205-.455h3.56c.172 0 .275.14.275.28v1.75c0 4.093-2.157 5.843-6.231 5.843-3.8 0-6.3-1.54-6.3-5.844m25.695 1.884c.1-.104.369-.034.369.21v3.505c0 .105-.067.245-.201.245h-9.588c-.201 0-.302-.245-.167-.42l.402-.456V27.841l-.402-.456c-.135-.174-.067-.385.167-.385h3.99c.234 0 .334.245.2.385l-.435.456v14.12h5.23l.435-.42zM178 27.38c-.138-.173-.069-.38.172-.38h4.09c.276 0 .344.242.207.38l-.413.483V38.84c0 2.416 1.34 2.934 2.475 2.934h.344c1.685 0 2.475-1.174 2.475-2.934V27.863l-.447-.483c-.103-.104-.068-.38.172-.38h4.16c.171 0 .309.242.171.38l-.446.483v11.873c0 3.97-2.166 5.764-6.257 5.764-3.884 0-6.29-1.553-6.29-5.764V27.863L178 27.38zm22.202 9.57h-1.016v4.871h1.05c.947 0 1.683-.175 2.139-.56.595-.386.876-1.017.876-1.893 0-.77-.246-1.366-.666-1.787-.42-.385-.982-.63-1.717-.63h-.666zm.7-3.748c.877 0 1.367-.28 1.367-1.262 0-.35-.07-.805-.49-1.05-.35-.211-.842-.211-1.472-.211h-1.121v2.523h1.717zm-5.431 11.422V27.876l-.42-.49c-.14-.175-.07-.386.175-.386h4.976c1.507 0 3.084.105 4.135.806 1.332.841 1.717 2.347 1.717 3.994 0 1.087-.175 2.032-.56 2.733 1.05 1.016 1.506 2.628 1.506 4.906 0 2.417-.49 4.134-1.647 5.01-1.086.876-2.628 1.051-4.17 1.051h-5.957c-.21 0-.351-.245-.176-.42l.421-.456zM64.918 13.833c-.08.084-.262 0-.262-.125v-2.041c0-.084.08-.167.161-.167h6.695c.1 0 .161.062.161.167v2.041c0 .125-.161.209-.242.125l-.262-.25h-1.936v8.396l.242.27c.081.084.04.251-.1.251h-2.42c-.121 0-.182-.167-.1-.25l.24-.27v-8.397H65.16l-.242.25zm9.547-1.812l-.244-.292c-.082-.083-.041-.229.102-.229h2.425c.122 0 .204.146.122.23l-.265.291v3.812h2.65v-3.812l-.244-.292c-.082-.083-.02-.229.101-.229h2.446c.102 0 .184.125.102.23l-.265.291v9.958l.265.271c.082.083.02.25-.102.25h-2.446c-.101 0-.183-.146-.101-.25l.244-.27v-4.063h-2.65v4.062l.265.271c.061.062.02.25-.122.25h-2.425c-.123 0-.184-.146-.102-.25l.244-.27v-9.96zM84.344 22.5c-.12 0-.18-.146-.1-.25l.24-.27v-9.96l-.24-.292c-.08-.083-.04-.229.1-.229h5.734c.08 0 .14.062.14.125v2.083c0 .125-.12.25-.24.125l-.241-.25H86.61v2.271h2.345l.24-.27c.06-.084.241-.063.241.104v2.395c0 .125-.16.188-.24.105l-.241-.23H86.61v2.459h3.127l.24-.25c.1-.104.24-.021.24.125v2.062c0 .063-.06.146-.14.146h-5.733zM2.796 10s-.582 1.2-.323 3.17c.258 1.972 0 5.455-.97 5.981 0 0 2.456-.526 2.973-1.446 0 0 .064 1.512 1.68 2.826 1.615 1.315 4.329 2.366 5.298 4.469 0 0 .305-3.971-.323-5.98-.628-2.01-1.745-3.615-1.099-5.784 0 0-5.556-1.067-7.236-3.236" fill="#FEFEFE"/><path d="M3.973 20.5s.795 1.071 2.65 2.075c1.854 1.005 4.847 3.482 4.901 5.892.066 2.945-.728 6.627-6.226 8.033 0 0 1.854-3.481.53-5.423-1.325-1.941-4.372-4.753-1.855-10.577m7.661-7s4.566.792 9.396 0c0 0 1.589 1.65 1.522 4.689-.066 3.037-3.374 4.49-3.44 7.33 0 0-1.126-.528-1.589-2.047 0 0-.665 1.208-.86 2.179-.199.99-.53 2.774.198 5.349 0 0-3.11-2.113-3.573-3.698-.463-1.585-.34-4.685-.265-6.406.133-3.038-1.985-4.49-1.39-7.396M12.864 31s.264 3.667-3.562 5.867c-1.56.897-.528 4 .857 5.2 1.386 1.2 2.705 2.933 2.705 4.933 0 0 1.847-1.2 1.978-3.4.132-2.2-1.253-3.6-.857-5 .396-1.4 2.704-3.2-1.121-7.6" fill="#FEFEFE"/><path d="M16.039 32.312s1.474 5.917 3.78 7.666c2.183 1.654 2.436 3.967 2.756 6.522 0 0 4.102-3.631 2.692-9.01-1.41-5.38-5.576-6.657-6.921-10.49 0 0-.449 5.11 1.73 7.934 0 0-2.05-.605-4.037-2.622m.43 6.188s-.458.935-.131 2.07c1.177 3.207.327 4.343-.13 5.612-.459 1.27-.066 3.875 2.223 5.411C20.721 53.13 21.375 55 21.375 55s1.242-2.07 1.177-3.808c-.065-1.737-1.44-3.006-1.635-4.743-.197-1.736-.458-3.54-2.093-4.943-1.636-1.403-2.355-3.006-2.355-3.006M24.25 20s-1.462 2.19-2.326 3.186c-.82.946-2.192 2.787-.73 5.31 1.461 2.522 2.325 1.46 5.315 6.504 0 0 2.06-3.186 2.06-5.509 0-2.323-4.385-5.973-4.319-9.491m-.693-6.633s1.094 1.466 1.545 3.866c.45 2.4.58 3.667 1.61 5.867 1.03 2.2 3.025 3.4 3.025 3.4s-.966-2.267 1.03-5.4c1.996-3.133 2.211-8.423-2.946-9.6 0 0-1.367.8-4.264 1.867" fill="#FEFEFE"/><g transform="translate(23.557 36.5)"><mask id="b" fill="#fff"><use xlink:href="#a"/></mask><path d="M3.023.044s1.098 4.25-.258 7.173C1.668 9.58.375 10.405.117 11.999c-.258 1.594-.129 5.579 4.456 8.501 0 0-1.485-2.325-.193-4.184 1.291-1.86 1.098-1.461 1.614-2.258 0 0 0 .664.904 1.46.904.798 2.26 1.528 2.519 1.993 0 0 .13-2.457-.194-3.254-.323-.797-1.162-2.457-.968-4.45.193-1.992.904-7.04-5.232-9.763" fill="#FEFEFE" mask="url(#b)"/></g><path d="M30.371 28.427s.801 1.195-.2 3.453C29.17 34.137 28.57 35 28.57 35s4.472-.465 5.807-2.921c1.336-2.457 2.07-3.917 1.536-6.838C35.378 22.32 33.308 19 33.308 19s-.333 1.328-1.268 3.253c-.934 1.925-1.135 3.187-.667 4.581.467 1.394.333 2.257.333 2.257s-.534-.664-1.335-.664m-.298 7.943s3.086 1.916 3.665 5.285c.579 3.37-.064 4.163.257 5.484.322 1.322.9 3.172 2.765 4.361 0 0-.836-2.841.065-4.823.9-1.982 3.408-6.607 1.672-9.91C36.76 33.462 35.989 33 35.989 33s-1.094 2.709-5.916 3.37m9.997-.95l-2.98-4.316s.745-1.821.812-3.912c.068-2.091-.812-4.182-.812-4.182s2.777-.202 4.199 1.214c1.422 1.417 2.341 2.78 2.845 4.587.677 2.428 0 5.8.474 7.689 0 0-3.116-2.563-3.996-6.475 0 0 .067 1.079-.136 2.428s-.406 2.968-.406 2.968M32.579 12.5s2.065 2.34 1.532 4.746c0 0 1.266 3.743 5.93 4.412C41.9 21.924 44.44 25 44.44 25s.933-6.083-1.6-8.757c-.682-.72-3.331-2.34-3.331-2.34s-3.665-.133-6.93-1.403" fill="#FEFEFE"/><path d="M51.813 10.5s-.13 3.06 1.817 4.724c0 0-2.79-.665-2.984-.865 0 0 1.751 2.795.648 5.922C50.13 23.584 52.851 28 52.851 28s-6.227-2.928-6.875-5.523c-.649-2.595.584-5.123-3.373-8.517 0 0 4.605-.732 9.21-3.46M45.109 25s1.13 1.976 3.41 2.94c2.688 1.135 2.116 3.926 1.901 4.742-.721 2.74-3.868 4.877-2.36 8.818 0 0-2.164-1.403-2.36-3.474-.67-7.035.655-9.085-.591-13.026m-.047 16.153c-.429-3.192-3.474-5.653-3.474-5.653s.707 6.185-1.866 9.51c0 0-1.03 2.26-.45 3.99 0 0 .798-1.238 2.02-2.271.197.839 1.196 1.872 1.196 1.872 0-1.862.901-1.929 1.802-3.458.66-1.12.784-2.363.804-2.95a4.82 4.82 0 0 0-.032-1.04M27.065 4.445s-2.104-1.252-5.738 0c-3.635 1.253-8.29 4.8-14.447 2.372C1.763 4.799.162.5.162.5s-1.634 6.137 5.48 9.53c6.846 3.265 15.493 1.721 18.554.678 3.06-1.044 2.837-1.74 2.837-2.123 0-.382.032-4.14.032-4.14" fill="#FEFEFE"/><g transform="translate(6.015)"><mask id="d" fill="#fff"><use xlink:href="#c"/></mask><path d="M21.005 2.94S19.41.02 15.703.02C7.877.019 7.695 3.985.056 4.514c0 0 2.43 1.41 4.729 1.41 4.05 0 8.04-3.36 11.095-3.702 3.64-.407 5.125.719 5.125.719" fill="#FEFEFE" mask="url(#d)"/></g><path d="M28.569 4.445s2.104-1.252 5.739 0c3.634 1.253 8.29 4.8 14.447 2.372C53.87 4.799 55.472.5 55.472.5s1.635 6.137-5.479 9.53c-6.847 3.265-15.494 1.721-18.555.678-3.06-1.044-2.837-1.74-2.837-2.123 0-.382-.032-4.14-.032-4.14" fill="#FEFEFE"/><g transform="translate(28.569)"><mask id="f" fill="#fff"><use xlink:href="#e"/></mask><path d="M.024 2.94S1.62.02 5.326.02c7.826 0 8.008 3.966 15.647 4.495 0 0-2.43 1.41-4.729 1.41-4.05 0-8.04-3.36-11.095-3.702-3.64-.407-5.125.719-5.125.719" fill="#FEFEFE" mask="url(#f)"/></g></g></svg>