<svg width="30" height="31" xmlns="http://www.w3.org/2000/svg"><path d="M1.46 5.342c.926 1.196 3.99 1.784 3.99 1.784-.356 1.196.26 2.08.606 3.188s.178 3.297.178 3.297c-.534-1.16-2.03-1.739-2.922-2.463-.89-.725-.926-1.558-.926-1.558-.285.507-1.639.797-1.639.797.534-.29.677-2.21.534-3.297-.142-1.087.179-1.748.179-1.748zm.748 5.914s.427.58 1.425 1.123c.998.544 2.608 1.884 2.637 3.188.036 1.594-.392 3.587-3.35 4.348 0 0 .998-1.884.286-2.935-.713-1.05-2.352-2.572-.998-5.724zM6.413 7.38s2.458.435 5.06 0c0 0 .854.906.819 2.572-.036 1.666-1.817 2.463-1.853 4.021 0 0-.606-.29-.855-1.123 0 0-.359.663-.463 1.196-.107.543-.285 1.521.107 2.934 0 0-1.675-1.16-1.925-2.029-.25-.87-.183-2.57-.142-3.514.071-1.666-1.07-2.463-.748-4.057zm.498 9.383c2.067 2.39.82 3.369.606 4.13-.214.76.535 1.521.463 2.717-.07 1.195-1.069 1.847-1.069 1.847 0-1.086-.712-2.028-1.46-2.68-.749-.653-1.306-2.339-.464-2.826 2.067-1.196 1.924-3.188 1.924-3.188zm1.71.76c1.105 1.087 2.246 1.413 2.246 1.413-1.212-1.521-.963-4.274-.963-4.274.749 2.064 3.065 2.753 3.849 5.651.784 2.898-1.497 4.855-1.497 4.855-.178-1.377-.318-2.624-1.532-3.515-1.283-.941-2.102-4.13-2.102-4.13zm.215 3.333s.392.87 1.282 1.63c.891.762 1.034 1.74 1.14 2.681.107.942.856 1.63.891 2.573.036.942-.64 2.065-.64 2.065s-.357-1.015-1.604-1.848c-1.248-.833-1.461-2.246-1.212-2.935.25-.688.713-1.304.071-3.043-.178-.615.072-1.123.072-1.123zm4.275-9.926c-.035 1.92 2.317 3.913 2.317 5.18 0 1.269-1.105 3.008-1.105 3.008-1.603-2.754-2.067-2.174-2.85-3.55-.785-1.377-.049-2.382.391-2.899.464-.543 1.247-1.739 1.247-1.739zm-.391-3.623c1.603-.58 2.36-1.014 2.36-1.014 2.855.64 2.735 3.514 1.63 5.217-1.104 1.703-.57 2.934-.57 2.934s-1.104-.652-1.675-1.847c-.57-1.196-.64-1.884-.89-3.188-.25-1.305-.855-2.102-.855-2.102zm1.817 12.535c3.385 1.485 2.993 4.239 2.886 5.326-.107 1.086.356 1.992.535 2.427.178.434.106 1.775.106 1.775-.142-.254-.89-.652-1.39-1.087-.498-.435-.498-.797-.498-.797-.285.435-.178.217-.891 1.232-.713 1.014.107 2.282.107 2.282-2.53-1.594-2.601-3.768-2.459-4.637.143-.87.856-1.319 1.461-2.608.749-1.594.143-3.913.143-3.913zm1.924-4.347c.427 0 .713.362.713.362s.07-.47-.179-1.232c-.249-.76-.142-1.449.357-2.5.499-1.05.677-1.774.677-1.774s1.104 1.81 1.39 3.405c.284 1.594-.107 2.39-.82 3.731-.713 1.34-3.1 1.594-3.1 1.594s.32-.47.855-1.702c.534-1.232.107-1.884.107-1.884zm-.143 4.275c2.673-.363 3.279-1.848 3.279-1.848s.427.254 1.39 2.065c.961 1.811-.428 4.347-.927 5.434-.499 1.087-.036 2.645-.036 2.645-1.033-.652-1.354-1.667-1.532-2.391-.178-.725.178-1.16-.143-3.007-.32-1.848-2.03-2.898-2.03-2.898zm5.274-.58l-1.568-2.319s.392-.978.428-2.1c.035-1.124-.428-2.247-.428-2.247s1.461-.108 2.21.652c.748.761 1.231 1.494 1.496 2.464.356 1.304 0 3.115.25 4.13 0 0-1.64-1.377-2.103-3.478 0 0 .036.58-.071 1.304-.107.724-.214 1.594-.214 1.594zM17.53 6.764c1.746.688 3.706.76 3.706.76s1.416.878 1.781 1.269c1.354 1.449.856 4.746.856 4.746s-1.359-1.668-2.352-1.812c-2.494-.362-3.172-2.39-3.172-2.39.286-1.305-.82-2.573-.82-2.573zm10.725-1.05s-.07 1.666.998 2.572c0 0-1.532-.363-1.639-.471 0 0 .962 1.521.356 3.224-.64 1.798.855 4.202.855 4.202s-3.42-1.594-3.777-3.007c-.356-1.413.321-2.79-1.853-4.637 0 0 2.53-.398 5.06-1.883zm-3.67 7.824s.614 1.072 1.853 1.595c1.46.615 1.15 2.13 1.034 2.572-.392 1.485-2.103 2.644-1.283 4.782 0 0-1.176-.761-1.283-1.884-.363-3.815.356-4.927-.32-7.065zm-.178 8.949c.028.204.032.392.018.566-.011.32-.08.997-.446 1.607-.498.833-.997.87-.997 1.884 0 0-.553-.563-.663-1.02-.676.563-1.119 1.237-1.119 1.237-.32-.941.25-2.173.25-2.173 1.425-1.812 1.033-5.18 1.033-5.18s1.687 1.34 1.924 3.079zM14.625 2.33s-.017 2.077-.017 2.288c0 .212.12.596-1.534 1.173-1.653.577-6.326 1.43-10.026-.375C-.795 3.541.088.15.088.15s.865 2.375 3.63 3.49c3.326 1.343 5.842-.618 7.806-1.31 1.964-.692 3.1 0 3.1 0zm0-.676s-.8-.638-2.764-.407c-1.648.194-3.8 2.095-5.985 2.095-1.24 0-2.551-.798-2.551-.798C7.445 2.244 7.544 0 11.765 0c2 0 2.86 1.654 2.86 1.654zm.75.676s1.137-.692 3.101 0 4.48 2.653 7.807 1.31c2.764-1.115 3.63-3.49 3.63-3.49s.883 3.391-2.961 5.266c-3.7 1.805-8.373.952-10.026.375-1.654-.577-1.534-.961-1.534-1.173 0-.211-.017-2.288-.017-2.288zm0-.676S16.235 0 18.235 0c4.221 0 4.32 2.244 8.44 2.544 0 0-1.31.798-2.55.798-2.186 0-4.338-1.901-5.985-2.095-1.964-.23-2.765.407-2.765.407z" fill-rule="evenodd"/></svg>