<svg xmlns="http://www.w3.org/2000/svg" width="207" height="57"><path fill="#999" d="M69.887 36.951H68.87v4.87h1.051c.946 0 1.682-.175 2.138-.561.596-.385.876-1.016.876-1.892 0-.771-.245-1.366-.666-1.787-.421-.385-.981-.631-1.717-.631h-.665zm.701-3.749c.876 0 1.367-.28 1.367-1.261 0-.351-.07-.806-.491-1.051-.351-.211-.841-.211-1.472-.211H68.87v2.523h1.718zm-5.432 11.422V27.876l-.421-.491c-.14-.174-.07-.385.176-.385h4.976c1.507 0 3.084.105 4.135.806 1.332.841 1.717 2.347 1.717 3.995 0 1.086-.175 2.032-.561 2.733 1.051 1.016 1.507 2.628 1.507 4.905 0 2.418-.491 4.135-1.647 5.01-1.086.876-2.628 1.051-4.17 1.051H64.91c-.21 0-.35-.245-.175-.421l.421-.455zm14.783.876c-.21 0-.316-.245-.175-.421l.421-.455V27.876l-.421-.491c-.14-.14-.07-.385.175-.385h10.033c.14 0 .246.105.246.211v3.504c0 .211-.211.421-.421.211l-.421-.421h-5.473v3.819h4.104l.421-.456c.105-.14.421-.105.421.175v4.029c0 .21-.281.315-.421.175l-.421-.385h-4.104v4.135h5.473l.421-.421c.175-.175.421-.035.421.21v3.469c0 .105-.105.245-.246.245H79.939zm21.936-7.568l-1.168-4.239-1.099 4.239h2.267zm-8.071 7.148l.412-.455 4.43-16.783-.275-.456c-.102-.176-.033-.386.242-.386h4.293c.206 0 .309.245.206.385l-.309.456 4.43 16.783.481.455c.103.105.034.42-.206.42h-4.156c-.172 0-.309-.245-.137-.42l.412-.421-.893-3.258h-4.018l-.859 3.258.412.421c.103.105.069.42-.206.42h-4.087c-.206.001-.344-.244-.172-.419zm21.558-7.954c1.114 0 1.775-.175 2.227-.56.452-.351.626-.911.626-1.857v-1.822c0-.981-.174-1.577-.626-1.892-.418-.35-1.079-.49-2.227-.49h-.452v6.622h.452zm-4.523-9.741c-.139-.14-.07-.385.174-.385h5.881c3.097 0 4.976 1.752 4.976 5.046v3.539c0 .981-.174 1.892-.522 2.593-.383.805-.94 1.436-1.705 1.787l2.088 4.625.487.49c.174.105.035.421-.208.421h-4.385c-.174 0-.348-.21-.174-.421l.348-.455-1.81-4.03h-1.079v4.03l.452.455c.244.245.104.421-.139.421h-4.211c-.209 0-.313-.245-.174-.421l.418-.455V27.876l-.417-.491zm18.596 3.119v11.493h2.474c1.649 0 2.818-1.086 2.818-2.874v-5.746c0-1.752-.894-2.873-2.818-2.873h-2.474zm-4.055-3.119c-.137-.14-.069-.385.172-.385h7.353c1.855 0 3.264.526 4.192 1.577.825.911 1.237 2.278 1.237 3.959v7.428c0 3.399-1.924 5.536-5.429 5.536h-7.353c-.206 0-.343-.245-.172-.421l.412-.455V27.876l-.412-.491zm23.48 12.271v-7.383c0-4.129 2.225-5.773 6.299-5.773 3.869 0 6.231 1.505 6.231 5.773v.595c0 .14-.103.245-.274.245h-3.595c-.24 0-.342-.28-.205-.42l.445-.42c-.171-1.224-1.13-2.029-2.465-2.029h-.342c-.89 0-1.506.245-1.917.805-.376.525-.513 1.224-.513 2.169v5.529c0 2.45 1.335 2.974 2.431 2.974h.342c.89 0 1.541-.245 1.952-.805.343-.525.548-1.225.548-2.17v-.245l-.445-.42c-.136-.105-.103-.455.206-.455h3.56c.171 0 .274.14.274.28v1.749c0 4.094-2.157 5.844-6.231 5.844-3.802.001-6.301-1.538-6.301-5.843m25.694 1.885c.1-.105.369-.035.369.21v3.504c0 .105-.067.245-.201.245h-9.587c-.201 0-.302-.245-.168-.421l.402-.455V27.841l-.402-.456c-.135-.174-.067-.385.167-.385h3.989c.235 0 .335.245.201.385l-.436.456v14.12h5.23l.436-.42zM178 27.38c-.138-.172-.069-.38.172-.38h4.09c.275 0 .344.242.207.38l-.413.484v10.975c0 2.416 1.34 2.934 2.475 2.934h.344c1.684 0 2.475-1.174 2.475-2.934V27.863l-.447-.484c-.103-.103-.069-.38.172-.38h4.16c.172 0 .309.242.172.38l-.447.484v11.873c0 3.969-2.166 5.764-6.257 5.764-3.884 0-6.291-1.553-6.291-5.764V27.863L178 27.38zm22.202 9.571h-1.016v4.87h1.051c.946 0 1.682-.175 2.138-.561.596-.385.876-1.016.876-1.892 0-.771-.245-1.366-.666-1.787-.421-.385-.981-.631-1.717-.631h-.666zm.701-3.749c.876 0 1.366-.28 1.366-1.261 0-.351-.07-.806-.49-1.051-.35-.211-.841-.211-1.472-.211h-1.121v2.523h1.717zm-5.432 11.422V27.876l-.421-.491c-.14-.175-.07-.385.175-.385h4.976c1.507 0 3.084.105 4.135.806 1.332.841 1.717 2.347 1.717 3.995 0 1.086-.175 2.032-.561 2.733 1.051 1.016 1.507 2.628 1.507 4.905 0 2.418-.49 4.135-1.647 5.01-1.086.876-2.628 1.051-4.17 1.051h-5.957c-.211 0-.351-.245-.175-.421l.421-.455zM64.918 13.833c-.081.083-.262 0-.262-.125v-2.042c0-.083.081-.167.161-.167h6.694c.101 0 .161.062.161.167v2.042c0 .125-.161.208-.242.125l-.262-.25h-1.936v8.396l.242.271c.081.083.04.25-.101.25h-2.42c-.121 0-.181-.167-.101-.25l.242-.271v-8.396H65.16l-.242.25zm9.547-1.812l-.245-.292c-.082-.083-.041-.229.102-.229h2.425c.122 0 .204.146.122.229l-.265.292v3.812h2.65v-3.812l-.245-.292c-.082-.083-.02-.229.102-.229h2.446c.102 0 .183.125.102.229l-.265.292v9.958l.265.271c.082.083.02.25-.102.25h-2.446c-.102 0-.183-.146-.102-.25l.245-.271v-4.063h-2.65v4.063l.265.271c.061.062.02.25-.122.25h-2.425c-.122 0-.183-.146-.102-.25l.245-.271v-9.958zM84.344 22.5c-.12 0-.18-.146-.1-.25l.241-.271v-9.958l-.241-.292c-.08-.083-.04-.229.1-.229h5.733c.08 0 .14.062.14.125v2.083c0 .125-.12.25-.241.125l-.241-.25H86.61v2.271h2.345l.241-.271c.06-.083.24-.062.24.104v2.396c0 .125-.16.188-.24.104l-.241-.229H86.61v2.458h3.127l.241-.25c.1-.104.241-.021.241.125v2.063c0 .062-.06.146-.14.146h-5.735zM2.796 10s-.582 1.199-.323 3.171c.258 1.972 0 5.455-.969 5.98 0 0 2.455-.526 2.972-1.446 0 0 .065 1.512 1.68 2.826s4.329 2.366 5.298 4.469c0 0 .305-3.971-.323-5.98-.628-2.009-1.744-3.615-1.098-5.783-.001-.001-5.557-1.068-7.237-3.237"/><path fill="#999" d="M3.973 20.5s.795 1.071 2.649 2.075c1.855 1.004 4.847 3.482 4.902 5.891.066 2.946-.729 6.628-6.226 8.033 0 0 1.855-3.481.53-5.423-1.325-1.94-4.372-4.752-1.855-10.576m7.661-7s4.566.792 9.397 0c0 0 1.588 1.651 1.522 4.689-.066 3.038-3.375 4.491-3.441 7.33 0 0-1.125-.528-1.588-2.047 0 0-.666 1.208-.86 2.179-.198.991-.529 2.774.199 5.349 0 0-3.11-2.113-3.573-3.698-.463-1.585-.34-4.685-.265-6.406.131-3.038-1.987-4.49-1.391-7.396m1.23 17.5s.264 3.667-3.562 5.867c-1.56.897-.528 4 .857 5.2S12.864 45 12.864 47c0 0 1.847-1.2 1.979-3.4.132-2.2-1.253-3.6-.857-5 .395-1.4 2.703-3.2-1.122-7.6"/><path fill="#999" d="M16.039 32.312s1.474 5.917 3.781 7.666c2.183 1.654 2.435 3.967 2.756 6.522 0 0 4.101-3.631 2.691-9.01S19.691 30.833 18.346 27c0 0-.449 5.11 1.73 7.934 0 0-2.051-.605-4.037-2.622m.43 6.188s-.458.935-.131 2.071c1.177 3.206.327 4.342-.131 5.611-.458 1.269-.065 3.874 2.224 5.411C20.72 53.13 21.375 55 21.375 55s1.243-2.071 1.177-3.808c-.065-1.737-1.439-3.006-1.635-4.743-.196-1.737-.458-3.541-2.093-4.943-1.636-1.403-2.355-3.006-2.355-3.006M24.25 20s-1.462 2.19-2.326 3.186c-.821.946-2.193 2.788-.731 5.31 1.462 2.522 2.326 1.46 5.316 6.504 0 0 2.06-3.186 2.06-5.509 0-2.323-4.385-5.973-4.319-9.491m-.693-6.633s1.094 1.467 1.545 3.867c.451 2.4.579 3.667 1.609 5.867s3.026 3.4 3.026 3.4-.966-2.267 1.03-5.4c1.996-3.133 2.211-8.423-2.946-9.6 0-.001-1.367.799-4.264 1.866"/><g transform="translate(23.557 36.5)"><defs><filter id="a" filterUnits="userSpaceOnUse" x=".039" y=".044" width="9.403" height="20.456"><feColorMatrix values="1 0 0 0 0 0 1 0 0 0 0 0 1 0 0 0 0 0 1 0"/></filter></defs><mask maskUnits="userSpaceOnUse" x=".039" y=".044" width="9.403" height="20.456" id="b"><path fill="#FFF" d="M.039.044h9.403V20.5H.039z" filter="url(#a)"/></mask><path mask="url(#b)" fill="#999" d="M3.023.044s1.098 4.251-.258 7.173C1.668 9.581.376 10.405.117 11.999c-.258 1.594-.129 5.579 4.456 8.501 0 0-1.485-2.325-.194-4.184 1.292-1.86 1.098-1.461 1.615-2.258 0 0 0 .664.904 1.461s2.26 1.528 2.519 1.992c0 0 .129-2.457-.194-3.254-.323-.797-1.162-2.457-.968-4.45s.904-7.04-5.232-9.763"/></g><path fill="#999" d="M30.371 28.427s.801 1.195-.2 3.452C29.17 34.137 28.569 35 28.569 35s4.472-.465 5.807-2.921 2.069-3.917 1.535-6.838C35.378 22.32 33.308 19 33.308 19s-.334 1.328-1.268 3.253c-.935 1.925-1.135 3.187-.668 4.581.467 1.394.334 2.257.334 2.257s-.534-.664-1.335-.664m-.298 7.943s3.087 1.916 3.665 5.286c.579 3.37-.064 4.162.257 5.484.322 1.321.9 3.172 2.765 4.361 0 0-.836-2.841.064-4.823.9-1.982 3.408-6.607 1.672-9.911C36.76 33.463 35.989 33 35.989 33s-1.094 2.709-5.916 3.37m9.997-.949l-2.98-4.317s.745-1.821.813-3.912c.068-2.091-.813-4.182-.813-4.182s2.777-.202 4.199 1.214c1.422 1.416 2.341 2.781 2.845 4.587.677 2.428 0 5.801.474 7.689 0 0-3.116-2.563-3.996-6.475 0 0 .068 1.079-.136 2.428a144.425 144.425 0 0 0-.406 2.968M32.579 12.5s2.066 2.34 1.533 4.746c0 0 1.266 3.743 5.931 4.412C41.9 21.924 44.44 25 44.44 25s.933-6.083-1.599-8.757c-.682-.72-3.332-2.34-3.332-2.34s-3.665-.133-6.93-1.403"/><path fill="#999" d="M51.813 10.5s-.13 3.061 1.816 4.724c0 0-2.789-.665-2.984-.865 0 0 1.751 2.795.649 5.922C50.13 23.584 52.851 28 52.851 28s-6.227-2.928-6.875-5.523c-.649-2.595.584-5.124-3.373-8.517 0 0 4.605-.732 9.21-3.46M45.109 25s1.13 1.976 3.41 2.939c2.688 1.136 2.116 3.927 1.901 4.743-.721 2.739-3.869 4.877-2.361 8.818 0 0-2.164-1.403-2.361-3.474-.667-7.035.657-9.085-.589-13.026m-.047 16.153c-.429-3.192-3.475-5.653-3.475-5.653s.708 6.185-1.866 9.51c0 0-1.03 2.261-.45 3.99 0 0 .799-1.238 2.021-2.271.198.839 1.197 1.872 1.197 1.872 0-1.862.901-1.929 1.802-3.458.659-1.12.784-2.363.804-2.95a4.8 4.8 0 0 0-.033-1.04M27.065 4.445s-2.104-1.252-5.739 0-8.29 4.801-14.447 2.372C1.763 4.799.162.5.162.5s-1.634 6.137 5.479 9.529c6.847 3.266 15.494 1.722 18.555.678s2.837-1.739 2.837-2.122c0-.382.032-4.14.032-4.14"/><g transform="translate(6.015)"><defs><filter id="c" filterUnits="userSpaceOnUse" x=".056" y=".019" width="20.949" height="5.905"><feColorMatrix values="1 0 0 0 0 0 1 0 0 0 0 0 1 0 0 0 0 0 1 0"/></filter></defs><mask maskUnits="userSpaceOnUse" x=".056" y=".019" width="20.949" height="5.905" id="d"><path fill="#FFF" d="M.056.019h20.949v5.905H.056z" filter="url(#c)"/></mask><path mask="url(#d)" fill="#999" d="M21.005 2.941S19.41.019 15.703.019C7.877.019 7.695 3.985.056 4.514c0 0 2.43 1.41 4.729 1.41 4.051 0 8.04-3.359 11.095-3.702 3.641-.407 5.125.719 5.125.719"/></g><path fill="#999" d="M28.569 4.445s2.104-1.252 5.739 0 8.29 4.801 14.447 2.372C53.871 4.799 55.472.5 55.472.5s1.634 6.137-5.479 9.529c-6.847 3.266-15.494 1.722-18.555.678s-2.837-1.739-2.837-2.122c0-.382-.032-4.14-.032-4.14"/><g transform="translate(28.569)"><defs><filter id="e" filterUnits="userSpaceOnUse" x=".024" y=".019" width="20.949" height="5.905"><feColorMatrix values="1 0 0 0 0 0 1 0 0 0 0 0 1 0 0 0 0 0 1 0"/></filter></defs><mask maskUnits="userSpaceOnUse" x=".024" y=".019" width="20.949" height="5.905" id="f"><path fill="#FFF" d="M.024.019h20.949v5.905H.024z" filter="url(#e)"/></mask><path mask="url(#f)" fill="#999" d="M.024 2.941S1.619.019 5.326.019c7.826 0 8.008 3.966 15.647 4.495 0 0-2.43 1.41-4.729 1.41-4.051 0-8.04-3.359-11.095-3.702-3.641-.407-5.125.719-5.125.719"/></g></svg>