<svg width="176" height="28" viewBox="0 0 176 28" fill="none" xmlns="http://www.w3.org/2000/svg">
<path fill-rule="evenodd" clip-rule="evenodd" d="M27.9751 20.168H8.08015V13.465L15.6543 9.08663L27.9751 15.9157V6.83474L15.6428 0L0 9.03935V28H27.9751V20.168Z" fill="#A840E5"/>
<path d="M107.519 27.0201V24.0165C107.274 24.1482 107.027 24.2577 106.775 24.3475C106.412 24.4773 105.965 24.5367 105.447 24.5367H105.371L105.367 24.5324C104.663 24.5193 104.101 24.3253 103.714 23.9217C103.313 23.5049 103.13 22.896 103.13 22.1301V16.3989H107.417V13.0847H103.13V8.02018L98.9279 9.14023V22.7236C98.9279 23.7821 99.1247 24.6992 99.5153 25.4769L99.5155 25.4772C99.9047 26.2555 100.478 26.8546 101.24 27.2846C102 27.7101 102.937 27.931 104.057 27.931C104.865 27.931 105.53 27.8483 106.056 27.6913C106.557 27.5382 107.044 27.3158 107.519 27.0201Z" fill="#32213B"/>
<path d="M96.5112 16.3916H92.3827V27.4139H88.181V16.3916H85.5949V13.0774H88.181V11.7674C88.181 9.94993 88.6583 8.56694 89.5926 7.59165C90.5233 6.61995 91.9088 6.11938 93.7824 6.11938C94.4359 6.11938 95.0366 6.18373 95.5849 6.30777C96.0825 6.42109 96.4819 6.56777 96.7831 6.73858V9.72923C96.2434 9.48237 95.593 9.36437 94.8395 9.36437C94.0233 9.36437 93.3907 9.54712 92.9787 9.95725C92.5692 10.3649 92.3827 10.9596 92.3827 11.7091V13.0774H96.5112V16.3916Z" fill="#32213B"/>
<path d="M51.4776 27.5299C52.5659 27.2278 53.522 26.8093 54.3412 26.2793V22.3927C53.6382 22.8509 52.8545 23.2254 51.996 23.5171L51.9962 23.5182C51.0112 23.8525 49.9925 24.0196 48.9446 24.0196C47.5191 24.0196 46.2632 23.7379 45.186 23.1718C44.1104 22.6064 43.2792 21.8176 42.6976 20.81L42.6973 20.8095C42.1197 19.8023 41.8314 18.641 41.8314 17.3599C41.8314 16.0789 42.116 14.939 42.6977 13.9387C43.2759 12.9381 44.1037 12.1602 45.1721 11.6059C46.2419 11.0472 47.4868 10.773 48.9007 10.773C49.9853 10.773 51.0053 10.9475 51.9556 11.2901L51.9559 11.2902C52.7783 11.588 53.5367 11.9738 54.2278 12.448V8.40597C53.4447 7.94767 52.5422 7.56738 51.5122 7.26949C50.4485 6.96182 49.2773 6.80704 47.9973 6.80704C45.8331 6.80704 43.9449 7.26718 42.3232 8.17796C40.6999 9.08963 39.4484 10.3536 38.5654 11.9722C37.6821 13.5914 37.2383 15.4355 37.2383 17.5019C37.2383 19.4659 37.6636 21.2383 38.5044 22.8337C39.3434 24.4255 40.569 25.682 42.1822 26.6084C43.7951 27.536 45.7115 28.0002 47.9424 28.0002C49.1737 28.0002 50.3531 27.842 51.4776 27.5299Z" fill="#32213B"/>
<path fill-rule="evenodd" clip-rule="evenodd" d="M71.0881 13.6747C70.0853 14.365 69.3165 15.2889 68.7811 16.4508C68.2442 17.6157 67.9751 18.8417 67.9751 20.2766C67.9751 21.7148 68.2272 23.0071 68.7312 24.1566L68.7314 24.157C69.2309 25.3041 69.956 26.2048 70.9028 26.8685C71.8448 27.5251 72.959 27.8582 74.2605 27.8582C75.3636 27.8582 76.315 27.5929 77.1186 27.0689L77.1189 27.0687C77.9331 26.5401 78.5427 25.8588 78.9554 25.0161H79.307V27.4176H83.4357V13.0811H79.2339V15.2267H78.8836C78.4514 14.3803 77.8705 13.741 77.1457 13.3019C76.4208 12.8626 75.5806 12.6405 74.619 12.6405C73.2626 12.6405 72.0892 12.9881 71.0881 13.6747ZM78.8922 18.0998L78.8926 18.1007C79.1679 18.725 79.307 19.4393 79.307 20.2366C79.307 21.0344 79.164 21.7498 78.8768 22.375C78.5889 23.0016 78.1716 23.4957 77.6317 23.8476C77.0901 24.2006 76.447 24.3765 75.7675 24.3765C75.0889 24.3765 74.4766 24.212 73.9398 23.8789C73.4021 23.5454 72.9873 23.0688 72.6989 22.4487C72.4112 21.8336 72.2683 21.136 72.2683 20.3094C72.2683 19.4834 72.411 18.7494 72.7061 18.1122C73.0008 17.4758 73.4177 16.9778 73.9582 16.6256C74.4994 16.2729 75.1204 16.0967 75.8224 16.0967C76.5244 16.0967 77.1423 16.2729 77.6766 16.6262L77.6772 16.6266C78.2064 16.9791 78.6122 17.4737 78.8922 18.0998Z" fill="#32213B"/>
<path d="M124.935 22.8673L122.206 13.0811H117.885L115.163 22.7803L112.743 13.0811H108.561L112.654 27.4176H116.891L119.897 17.4543L122.981 27.4176H127.309L131.737 13.0811H127.602L124.935 22.8673Z" fill="#32213B"/>
<path fill-rule="evenodd" clip-rule="evenodd" d="M144.253 13.5906C145.369 14.1913 146.251 15.0223 146.904 16.0916L147.012 16.2795C147.674 17.4386 148.008 18.7788 148.008 20.3058C148.008 21.8315 147.671 23.1199 146.998 24.2568L146.998 24.257C146.324 25.3997 145.399 26.2826 144.221 26.9113C143.04 27.5403 141.713 27.8582 140.237 27.8582C138.761 27.8582 137.453 27.5439 136.283 26.9118L136.283 26.9116C135.113 26.2831 134.194 25.4004 133.528 24.2578L133.527 24.2572C132.859 23.1206 132.525 21.803 132.525 20.3058C132.525 18.8073 132.856 17.4379 133.514 16.2791C134.174 15.1185 135.085 14.2256 136.258 13.5904C137.428 12.9583 138.754 12.6368 140.241 12.6368C141.728 12.6368 143.073 12.9549 144.253 13.5906ZM142.091 23.6337L142.09 23.8584C141.562 24.2051 140.937 24.3729 140.237 24.3729C139.537 24.3729 138.926 24.2047 138.404 23.8575C137.886 23.5119 137.491 23.0278 137.215 22.4056L137.214 22.4051C136.943 21.7878 136.807 21.0952 136.807 20.2766C136.807 19.4603 136.935 18.7384 137.207 18.1125C137.479 17.4869 137.873 16.9915 138.396 16.6382C138.92 16.2838 139.531 16.1076 140.237 16.1076C140.942 16.1076 141.568 16.2834 142.096 16.6378C142.626 16.9913 143.024 17.4905 143.3 18.1193L143.3 18.1201C143.551 18.6997 143.685 19.3586 143.705 20.0912H143.711V20.2766C143.711 21.0732 143.575 21.7846 143.296 22.4065C143.016 23.0287 142.613 23.5165 142.09 23.8584L142.091 23.8582L142.091 23.6335L142.091 23.6337Z" fill="#32213B"/>
<path d="M170.028 19.3939L175.659 13.0774H170.705L165.916 19.1113V6.80704H161.744V27.4176H165.916V19.991L171.154 27.4176H176L170.028 19.5306V19.3939Z" fill="#32213B"/>
<path d="M66.8808 16.6742H61.372V27.4139H57.247V13.1358H66.8808V16.6742Z" fill="#32213B"/>
<path d="M154.375 16.6742H159.884V13.1358H150.25V27.4139H154.375V16.6742Z" fill="#32213B"/>
</svg>
