<svg width="30" height="30" viewBox="0 0 30 30" fill="none" xmlns="http://www.w3.org/2000/svg">
<path d="M7.65125 20.8594H6.52344C6.00688 20.8594 5.58594 20.4384 5.58594 19.9219V16.1719C5.58594 15.6544 5.16594 15.2344 4.64844 15.2344C4.13094 15.2344 3.71094 15.6544 3.71094 16.1719V19.9219C3.71094 21.4725 4.97281 22.7344 6.52344 22.7344H7.65125C8.05813 24.0844 9.29844 25.0781 10.7797 25.0781C12.2609 25.0781 13.5013 24.0844 13.9081 22.7344H17.8109H19.8387C20.2456 24.0844 21.4859 25.0781 22.9672 25.0781C24.4484 25.0781 25.6887 24.0844 26.0956 22.7344H28.1234C28.6409 22.7344 29.0609 22.3144 29.0609 21.7969V17.1094C29.0609 16.4128 28.7694 15.4509 28.3831 14.8716L25.6728 10.8066C25.2097 10.1128 24.2684 9.60938 23.435 9.60938H20.8063V7.73438C20.8063 6.18375 19.5444 4.92188 17.9937 4.92188H14.9984C14.4809 4.92188 14.0609 5.34188 14.0609 5.85938C14.0609 6.37688 14.4809 6.79688 14.9984 6.79688H17.9947C18.5112 6.79688 18.9322 7.21781 18.9322 7.73438V20.8594H17.8109H13.9081C13.5013 19.5094 12.2609 18.5156 10.7797 18.5156C9.29844 18.5156 8.05813 19.5094 7.65125 20.8594ZM22.9672 23.2031C22.1919 23.2031 21.5609 22.5722 21.5609 21.7969C21.5609 21.0216 22.1919 20.3906 22.9672 20.3906C23.7425 20.3906 24.3734 21.0216 24.3734 21.7969C24.3734 22.5722 23.7425 23.2031 22.9672 23.2031ZM20.8072 11.4844H23.4359C23.6394 11.4844 24.0003 11.6775 24.1138 11.8472L25.7469 14.2969H20.8072V11.4844ZM20.8072 16.1719H26.9581C27.0856 16.4691 27.1859 16.8628 27.1859 17.1094V20.8594H26.0956C25.6887 19.5094 24.4484 18.5156 22.9672 18.5156C22.1366 18.5156 21.3856 18.8353 20.8072 19.3462V16.1719ZM12.1859 21.7969C12.1859 22.5722 11.555 23.2031 10.7797 23.2031C10.0044 23.2031 9.37344 22.5722 9.37344 21.7969C9.37344 21.0216 10.0044 20.3906 10.7797 20.3906C11.555 20.3906 12.1859 21.0216 12.1859 21.7969Z" fill="#85CB33"/>
<path d="M13.125 5.85938C13.125 5.34188 12.705 4.92188 12.1875 4.92188H1.875C1.3575 4.92188 0.9375 5.34188 0.9375 5.85938C0.9375 6.37688 1.3575 6.79688 1.875 6.79688H12.1875C12.705 6.79688 13.125 6.37688 13.125 5.85938Z" fill="#85CB33"/>
<path d="M10.3125 10.5469C10.83 10.5469 11.25 10.1269 11.25 9.60938C11.25 9.09188 10.83 8.67188 10.3125 8.67188H3.75C3.2325 8.67188 2.8125 9.09188 2.8125 9.60938C2.8125 10.1269 3.2325 10.5469 3.75 10.5469H10.3125Z" fill="#85CB33"/>
<path d="M8.4375 14.2969C8.955 14.2969 9.375 13.8769 9.375 13.3594C9.375 12.8419 8.955 12.4219 8.4375 12.4219H5.625C5.1075 12.4219 4.6875 12.8419 4.6875 13.3594C4.6875 13.8769 5.1075 14.2969 5.625 14.2969H8.4375Z" fill="#85CB33"/>
</svg>
