<svg width="283" height="21" viewBox="0 0 283 21" fill="none" xmlns="http://www.w3.org/2000/svg">
<path d="M282.637 0.280001V3.444H277.429V19.824H273.509V3.444H268.301V0.280001H282.637Z" fill="#1E2D2F"/>
<path d="M261.478 19.824L257.166 12.208H255.318V19.824H251.398V0.280001H258.734C260.246 0.280001 261.534 0.550668 262.598 1.092C263.662 1.61467 264.456 2.33333 264.978 3.248C265.52 4.144 265.79 5.152 265.79 6.272C265.79 7.56 265.417 8.72667 264.67 9.772C263.924 10.7987 262.813 11.508 261.338 11.9L266.014 19.824H261.478ZM255.318 9.268H258.594C259.658 9.268 260.452 9.016 260.974 8.512C261.497 7.98933 261.758 7.27067 261.758 6.356C261.758 5.46 261.497 4.76933 260.974 4.284C260.452 3.78 259.658 3.528 258.594 3.528H255.318V9.268Z" fill="#1E2D2F"/>
<path d="M240.416 3.444V8.344H246.996V11.452H240.416V16.632H247.836V19.824H236.496V0.251999H247.836V3.444H240.416Z" fill="#1E2D2F"/>
<path d="M233.713 6.328C233.713 7.37333 233.461 8.35333 232.957 9.268C232.472 10.1827 231.697 10.92 230.633 11.48C229.588 12.04 228.262 12.32 226.657 12.32H223.381V19.824H219.461V0.280001H226.657C228.169 0.280001 229.457 0.541334 230.521 1.064C231.585 1.58667 232.378 2.30533 232.901 3.22C233.442 4.13467 233.713 5.17067 233.713 6.328ZM226.489 9.156C227.572 9.156 228.374 8.91333 228.897 8.428C229.42 7.924 229.681 7.224 229.681 6.328C229.681 4.424 228.617 3.472 226.489 3.472H223.381V9.156H226.489Z" fill="#1E2D2F"/>
<path d="M209.147 20.02C207.784 20.02 206.552 19.7867 205.451 19.32C204.368 18.8533 203.509 18.1813 202.875 17.304C202.24 16.4267 201.913 15.3907 201.895 14.196H206.095C206.151 14.9987 206.431 15.6333 206.935 16.1C207.457 16.5667 208.167 16.8 209.063 16.8C209.977 16.8 210.696 16.5853 211.219 16.156C211.741 15.708 212.003 15.1293 212.003 14.42C212.003 13.8413 211.825 13.3653 211.471 12.992C211.116 12.6187 210.668 12.3293 210.127 12.124C209.604 11.9 208.876 11.6573 207.943 11.396C206.673 11.0227 205.637 10.6587 204.835 10.304C204.051 9.93067 203.369 9.38 202.791 8.652C202.231 7.90533 201.951 6.916 201.951 5.684C201.951 4.52667 202.24 3.51867 202.819 2.66C203.397 1.80133 204.209 1.148 205.255 0.7C206.3 0.233334 207.495 0 208.839 0C210.855 0 212.488 0.494666 213.739 1.484C215.008 2.45467 215.708 3.81733 215.839 5.572H211.527C211.489 4.9 211.2 4.34933 210.659 3.92C210.136 3.472 209.436 3.248 208.559 3.248C207.793 3.248 207.177 3.444 206.711 3.836C206.263 4.228 206.039 4.79733 206.039 5.544C206.039 6.06667 206.207 6.50533 206.543 6.86C206.897 7.196 207.327 7.476 207.831 7.7C208.353 7.90533 209.081 8.148 210.015 8.428C211.284 8.80133 212.32 9.17467 213.123 9.548C213.925 9.92133 214.616 10.4813 215.195 11.228C215.773 11.9747 216.063 12.9547 216.063 14.168C216.063 15.2133 215.792 16.184 215.251 17.08C214.709 17.976 213.916 18.6947 212.871 19.236C211.825 19.7587 210.584 20.02 209.147 20.02Z" fill="#1E2D2F"/>
<path d="M194.908 19.824L190.68 13.244L186.844 19.824H182.42L188.58 9.968L182.336 0.280001H186.844L191.072 6.832L194.88 0.280001H199.304L193.172 10.108L199.416 19.824H194.908Z" fill="#1E2D2F"/>
<path d="M172.221 3.444V8.344H178.801V11.452H172.221V16.632H179.641V19.824H168.301V0.251999H179.641V3.444H172.221Z" fill="#1E2D2F"/>
<path d="M153.771 19.824L149.459 12.208H147.611V19.824H143.691V0.280001H151.027C152.539 0.280001 153.827 0.550668 154.891 1.092C155.955 1.61467 156.749 2.33333 157.271 3.248C157.813 4.144 158.083 5.152 158.083 6.272C158.083 7.56 157.71 8.72667 156.963 9.772C156.217 10.7987 155.106 11.508 153.631 11.9L158.307 19.824H153.771ZM147.611 9.268H150.887C151.951 9.268 152.745 9.016 153.267 8.512C153.79 7.98933 154.051 7.27067 154.051 6.356C154.051 5.46 153.79 4.76933 153.267 4.284C152.745 3.78 151.951 3.528 150.887 3.528H147.611V9.268Z" fill="#1E2D2F"/>
<path d="M132.709 3.444V8.344H139.289V11.452H132.709V16.632H140.129V19.824H128.789V0.251999H140.129V3.444H132.709Z" fill="#1E2D2F"/>
<path d="M121.255 19.824L114.143 11.116V19.824H110.223V0.280001H114.143V9.044L121.255 0.280001H125.987L117.923 9.968L126.211 19.824H121.255Z" fill="#1E2D2F"/>
<path d="M94.5645 0.280001V12.376C94.5645 13.7013 94.9099 14.7187 95.6005 15.428C96.2912 16.1187 97.2619 16.464 98.5125 16.464C99.7819 16.464 100.762 16.1187 101.453 15.428C102.143 14.7187 102.489 13.7013 102.489 12.376V0.280001H106.437V12.348C106.437 14.0093 106.073 15.4187 105.345 16.576C104.635 17.7147 103.674 18.5733 102.461 19.152C101.266 19.7307 99.9312 20.02 98.4565 20.02C97.0005 20.02 95.6752 19.7307 94.4805 19.152C93.3045 18.5733 92.3712 17.7147 91.6805 16.576C90.9899 15.4187 90.6445 14.0093 90.6445 12.348V0.280001H94.5645Z" fill="#1E2D2F"/>
<path d="M82.8417 19.824L78.5297 12.208H76.6817V19.824H72.7617V0.280001H80.0977C81.6097 0.280001 82.8977 0.550668 83.9617 1.092C85.0257 1.61467 85.8191 2.33333 86.3417 3.248C86.8831 4.144 87.1537 5.152 87.1537 6.272C87.1537 7.56 86.7804 8.72667 86.0337 9.772C85.2871 10.7987 84.1764 11.508 82.7017 11.9L87.3777 19.824H82.8417ZM76.6817 9.268H79.9577C81.0217 9.268 81.8151 9.016 82.3377 8.512C82.8604 7.98933 83.1217 7.27067 83.1217 6.356C83.1217 5.46 82.8604 4.76933 82.3377 4.284C81.8151 3.78 81.0217 3.528 79.9577 3.528H76.6817V9.268Z" fill="#1E2D2F"/>
<path d="M65.8575 9.8C66.9589 10.0053 67.8642 10.556 68.5735 11.452C69.2829 12.348 69.6375 13.3747 69.6375 14.532C69.6375 15.5773 69.3762 16.5013 68.8535 17.304C68.3495 18.088 67.6122 18.704 66.6415 19.152C65.6709 19.6 64.5229 19.824 63.1975 19.824H54.7695V0.280001H62.8335C64.1589 0.280001 65.2975 0.494667 66.2495 0.924001C67.2202 1.35333 67.9482 1.95067 68.4335 2.716C68.9375 3.48133 69.1895 4.34933 69.1895 5.32C69.1895 6.45867 68.8815 7.41067 68.2655 8.176C67.6682 8.94133 66.8655 9.48267 65.8575 9.8ZM58.6895 8.344H62.2735C63.2069 8.344 63.9255 8.13867 64.4295 7.728C64.9335 7.29867 65.1855 6.692 65.1855 5.908C65.1855 5.124 64.9335 4.51733 64.4295 4.088C63.9255 3.65867 63.2069 3.444 62.2735 3.444H58.6895V8.344ZM62.6375 16.632C63.5895 16.632 64.3269 16.408 64.8495 15.96C65.3909 15.512 65.6615 14.8773 65.6615 14.056C65.6615 13.216 65.3815 12.5627 64.8215 12.096C64.2615 11.6107 63.5055 11.368 62.5535 11.368H58.6895V16.632H62.6375Z" fill="#1E2D2F"/>
<path d="M46.912 19.824L42.6 12.208H40.752V19.824H36.832V0.280001H44.168C45.68 0.280001 46.968 0.550668 48.032 1.092C49.096 1.61467 49.8894 2.33333 50.412 3.248C50.9534 4.144 51.224 5.152 51.224 6.272C51.224 7.56 50.8507 8.72667 50.104 9.772C49.3574 10.7987 48.2467 11.508 46.772 11.9L51.448 19.824H46.912ZM40.752 9.268H44.028C45.092 9.268 45.8854 9.016 46.408 8.512C46.9307 7.98933 47.192 7.27067 47.192 6.356C47.192 5.46 46.9307 4.76933 46.408 4.284C45.8854 3.78 45.092 3.528 44.028 3.528H40.752V9.268Z" fill="#1E2D2F"/>
<path d="M23.9185 20.02C22.0892 20.02 20.4092 19.5907 18.8785 18.732C17.3479 17.8733 16.1345 16.688 15.2385 15.176C14.3425 13.6453 13.8945 11.9187 13.8945 9.996C13.8945 8.092 14.3425 6.384 15.2385 4.872C16.1345 3.34133 17.3479 2.14667 18.8785 1.288C20.4092 0.429334 22.0892 0 23.9185 0C25.7665 0 27.4465 0.429334 28.9585 1.288C30.4892 2.14667 31.6932 3.34133 32.5705 4.872C33.4665 6.384 33.9145 8.092 33.9145 9.996C33.9145 11.9187 33.4665 13.6453 32.5705 15.176C31.6932 16.688 30.4892 17.8733 28.9585 18.732C27.4279 19.5907 25.7479 20.02 23.9185 20.02ZM23.9185 16.52C25.0945 16.52 26.1305 16.2587 27.0265 15.736C27.9225 15.1947 28.6225 14.4293 29.1265 13.44C29.6305 12.4507 29.8825 11.3027 29.8825 9.996C29.8825 8.68933 29.6305 7.55067 29.1265 6.58C28.6225 5.59067 27.9225 4.83467 27.0265 4.312C26.1305 3.78933 25.0945 3.528 23.9185 3.528C22.7425 3.528 21.6972 3.78933 20.7825 4.312C19.8865 4.83467 19.1865 5.59067 18.6825 6.58C18.1785 7.55067 17.9265 8.68933 17.9265 9.996C17.9265 11.3027 18.1785 12.4507 18.6825 13.44C19.1865 14.4293 19.8865 15.1947 20.7825 15.736C21.6972 16.2587 22.7425 16.52 23.9185 16.52Z" fill="#1E2D2F"/>
<path d="M12.068 0.280001V3.444H3.92V8.456H10.164V11.564H3.92V19.824H0V0.280001H12.068Z" fill="#1E2D2F"/>
</svg>
