<svg xmlns="http://www.w3.org/2000/svg" viewBox="0 0 62.8 63.7"><path d="M62.7 29.2c.1.9.1 1.8.1 2.7 0 4.4-.8 8.5-2.4 12.4s-3.7 7.3-6.5 10.1c-2.8 2.9-6 5.1-9.8 6.8-3.8 1.7-7.9 2.5-12.3 2.5s-8.5-.8-12.4-2.5-7.3-3.9-10.1-6.8c-2.9-2.9-5.1-6.3-6.8-10.1C.8 40.4 0 36.3 0 31.9s.8-8.5 2.5-12.4 3.9-7.3 6.8-10.1c2.9-2.9 6.3-5.1 10.1-6.8C23.3.8 27.4 0 31.8 0c5.8 0 11 1.4 15.7 4.1C52.2 6.9 56 10.5 58.8 15l-10.4 6.7c-1.6-3.2-3.9-5.8-6.8-7.7-2.9-1.9-6.2-2.9-9.8-2.9-2.7 0-5.2.6-7.5 1.6-2.3 1.1-4.3 2.6-6 4.4-1.7 1.9-3.1 4.1-4.1 6.6s-1.5 5.2-1.5 8.1c0 2.8.5 5.5 1.5 8s2.4 4.7 4.1 6.6c1.7 1.9 3.7 3.4 6 4.4 2.3 1.1 4.8 1.6 7.5 1.6 2.1 0 4.2-.4 6-1.1 1.9-.7 3.6-1.7 5.1-3s2.8-2.8 3.9-4.6c1.1-1.7 1.9-3.7 2.4-5.8H32.3l-5.7-11.6h35.8c.1 1.1.2 2 .3 2.9z" fill="#0c7485"/></svg>