<?xml version="1.0" standalone="no"?>
<!DOCTYPE svg PUBLIC "-//W3C//DTD SVG 20010904//EN"
 "http://www.w3.org/TR/2001/REC-SVG-20010904/DTD/svg10.dtd">
<svg version="1.0" xmlns="http://www.w3.org/2000/svg"
 width="599.000000pt" height="120.000000pt" viewBox="0 0 599.000000 120.000000"
 preserveAspectRatio="xMidYMid meet">
<metadata>
Created by potrace 1.16, written by Peter Selinger 2001-2019
</metadata>
<g transform="translate(0.000000,120.000000) scale(0.100000,-0.100000)"
fill="#000000" stroke="none">
<path d="M450 1051 l0 -150 -47 27 c-64 36 -186 39 -248 5 -55 -29 -99 -78
-129 -143 -22 -47 -26 -69 -26 -151 0 -117 17 -171 73 -235 95 -108 251 -127
360 -42 l37 29 0 -36 0 -35 90 0 90 0 0 440 0 440 -100 0 -100 0 0 -149z m-60
-289 c14 -11 33 -39 44 -64 28 -67 16 -130 -34 -180 -32 -32 -44 -38 -81 -38
-90 0 -148 75 -136 176 12 110 124 167 207 106z"/>
<path d="M1580 760 l0 -440 95 0 95 0 0 90 c0 86 1 91 30 122 25 28 32 30 40
18 5 -8 38 -62 73 -120 l63 -105 107 -3 c76 -2 107 1 107 9 0 9 -116 200 -196
325 -13 18 -5 31 86 146 55 70 100 129 100 132 0 3 -51 6 -112 6 l-113 0 -92
-116 -93 -117 0 247 0 246 -95 0 -95 0 0 -440z"/>
<path d="M2810 760 l0 -441 98 3 97 3 3 438 2 437 -100 0 -100 0 0 -440z"/>
<path d="M3102 763 l3 -438 98 -3 97 -3 0 441 0 440 -100 0 -100 0 2 -437z"/>
<path d="M1020 944 c-19 -8 -50 -29 -67 -46 l-33 -32 0 37 0 37 -90 0 -90 0 0
-310 0 -311 98 3 97 3 5 172 c4 153 7 175 26 199 37 50 71 69 125 68 l49 0 0
98 0 98 -42 0 c-24 -1 -59 -8 -78 -16z"/>
<path d="M2374 946 c-92 -29 -173 -112 -204 -210 -8 -23 -11 -72 -8 -125 3
-71 9 -95 33 -140 32 -59 76 -99 145 -133 40 -20 60 -23 175 -22 92 0 142 5
170 16 l40 15 3 86 c1 48 1 87 0 87 -2 0 -32 -9 -66 -20 -75 -24 -178 -26
-227 -6 -30 13 -75 66 -75 89 0 4 88 7 195 7 l195 0 6 26 c10 40 -2 126 -26
182 -55 128 -212 193 -356 148z m162 -178 c12 -13 25 -33 29 -45 6 -23 6 -23
-99 -23 -58 0 -106 2 -106 5 0 19 35 67 58 80 35 20 90 12 118 -17z"/>
<path d="M4199 946 c-61 -21 -108 -56 -137 -99 -48 -72 -57 -104 -57 -217 0
-118 15 -165 76 -235 90 -102 284 -116 364 -25 l20 22 5 -33 5 -34 87 -3 c84
-3 88 -2 93 20 3 13 4 151 3 308 l-3 285 -92 3 -93 3 0 -31 0 -31 -37 30 c-63
49 -158 64 -234 37z m179 -176 c46 -28 72 -76 72 -133 0 -97 -52 -157 -136
-157 -77 0 -124 60 -124 157 0 70 25 118 73 138 45 20 77 18 115 -5z"/>
<path d="M5048 951 c-40 -13 -96 -50 -113 -74 -14 -21 -15 -20 -15 21 l0 42
-95 0 -95 0 2 -307 3 -308 98 -3 97 -3 0 163 c0 175 7 218 42 255 44 47 133
50 154 4 4 -9 10 -107 12 -218 l4 -203 95 0 94 0 -3 248 c-3 234 -4 249 -26
289 -33 62 -87 94 -164 99 -35 2 -75 0 -90 -5z"/>
<path d="M5685 936 c-27 -13 -59 -33 -69 -45 -27 -30 -36 -26 -36 14 l0 35
-90 0 -90 0 0 -310 0 -311 98 3 97 3 5 185 c3 118 9 193 17 206 30 53 124 77
160 41 16 -16 18 -43 21 -227 l3 -210 95 0 94 0 0 243 c0 214 -3 247 -19 282
-48 105 -172 145 -286 91z"/>
<path d="M3334 923 c4 -10 61 -149 127 -309 l120 -291 -45 -119 c-25 -65 -46
-125 -46 -131 0 -10 27 -13 100 -13 66 0 100 4 100 11 0 6 74 201 165 433 91
232 165 426 165 430 0 3 -48 5 -107 4 l-107 -3 -65 -199 -64 -199 -65 202 -66
201 -109 0 c-100 0 -109 -2 -103 -17z"/>
<path d="M1141 504 c-60 -42 -58 -138 2 -174 39 -24 68 -25 108 -4 93 48 55
194 -50 194 -20 0 -47 -7 -60 -16z"/>
<path d="M20 95 l0 -95 630 0 630 0 0 95 0 95 -630 0 -630 0 0 -95z"/>
</g>
</svg>
