
<svg width="57px" height="57px" viewBox="0 0 57 57" version="1.1" xmlns="http://www.w3.org/2000/svg" xmlns:xlink="http://www.w3.org/1999/xlink">
    <!-- Generator: Sketch 48.1 (47250) - http://www.bohemiancoding.com/sketch -->
    <desc>Created with Sketch.</desc>
    <defs></defs>
    <g id="Page-1" stroke="none" stroke-width="1" fill="none" fill-rule="evenodd">
        <g id="elements" transform="translate(-559.000000, -890.000000)" fill="#FFFFFF">
            <g id="Page-1" transform="translate(559.000000, 890.000000)">
                <path d="M50.398,28.5 C50.398,31.828 49.684,35 48.406,37.855 L53.078,42.527 C55.348,38.363 56.625,33.574 56.625,28.5 C56.625,14.84 47.25,3.266 34.797,0.375 L34.797,6.965 C43.883,9.695 50.398,18.375 50.398,28.5 Z" id="Fill-1"></path>
                <polygon id="Fill-2" points="28.5 2.785 21.027 10.473 28.5 17.945"></polygon>
                <path d="M52.648,49.137 L4.348,0.836 L0.832,4.352 L14.09,17.594 L12.879,19.121 L0.375,19.121 L0.375,37.871 L12.875,37.871 L28.5,54.215 L28.5,32.016 L42.402,45.887 C40.188,47.754 37.582,49.184 34.797,50.035 L34.797,56.625 C39.336,55.574 43.438,53.379 46.855,50.355 L52.656,56.168 L56.172,52.645 L52.656,49.125 L52.648,49.137 Z" id="Fill-3"></path>
                <path d="M42.59,28.5 C42.59,22.875 39.484,17.895 34.797,15.484 L34.797,24.246 L42.238,31.688 C42.469,30.66 42.59,29.594 42.59,28.5 Z" id="Fill-4"></path>
            </g>
        </g>
    </g>
</svg>
