<svg width="1031" height="800" viewBox="0 0 1031 800" xmlns="http://www.w3.org/2000/svg" xmlns:xlink="http://www.w3.org/1999/xlink"><defs><filter x="-9.3%" y="-15.9%" width="118.6%" height="134%" filterUnits="objectBoundingBox" id="a"><feOffset dy="5" in="SourceAlpha" result="shadowOffsetOuter1"/><feGaussianBlur stdDeviation="25" in="shadowOffsetOuter1" result="shadowBlurOuter1"/><feColorMatrix values="0 0 0 0 0.0392156863 0 0 0 0 0.0901960784 0 0 0 0 0.325490196 0 0 0 0.1 0" in="shadowBlurOuter1"/></filter><filter x="-18.5%" y="-16.6%" width="137.1%" height="135.4%" filterUnits="objectBoundingBox" id="c"><feOffset dy="5" in="SourceAlpha" result="shadowOffsetOuter1"/><feGaussianBlur stdDeviation="25" in="shadowOffsetOuter1" result="shadowBlurOuter1"/><feColorMatrix values="0 0 0 0 0.0392156863 0 0 0 0 0.0901960784 0 0 0 0 0.325490196 0 0 0 0.1 0" in="shadowBlurOuter1"/></filter><rect id="b" x="0" y="0" width="834" height="456" rx="8"/><rect id="d" x="0" y="0" width="418" height="438" rx="8"/></defs><g fill="none" fill-rule="evenodd"><g transform="translate(50 45)"><use fill="#000" filter="url(#a)" xlink:href="#b"/><use fill="#FFF" xlink:href="#b"/></g><path stroke="#0A1753" stroke-width="2" opacity=".051" stroke-linecap="round" stroke-linejoin="round" stroke-dasharray="0,4" d="M142 81h701M142 261h701M142 141h701M142 321h701M142 201h701M142 381h701m-709 60h709"/><text opacity=".297" font-family="SharpGroteskBook20-Regular, Sharp Grotesk Book 20" font-size="12" font-style="expanded" fill="#0A1753" transform="translate(50 45)"><tspan x="24" y="46">3000</tspan></text><text opacity=".297" font-family="SharpGroteskBook20-Regular, Sharp Grotesk Book 20" font-size="12" font-style="expanded" fill="#0A1753" transform="translate(50 45)"><tspan x="24" y="106">2500</tspan></text><text opacity=".297" font-family="SharpGroteskBook20-Regular, Sharp Grotesk Book 20" font-size="12" font-style="expanded" fill="#0A1753" transform="translate(50 45)"><tspan x="24" y="166">2000</tspan></text><text opacity=".297" font-family="SharpGroteskBook20-Regular, Sharp Grotesk Book 20" font-size="12" font-style="expanded" fill="#0A1753" transform="translate(50 45)"><tspan x="24" y="226">1500</tspan></text><text opacity=".297" font-family="SharpGroteskBook20-Regular, Sharp Grotesk Book 20" font-size="12" font-style="expanded" fill="#0A1753" transform="translate(50 45)"><tspan x="24" y="286">1000</tspan></text><text opacity=".297" font-family="SharpGroteskBook20-Regular, Sharp Grotesk Book 20" font-size="12" font-style="expanded" fill="#0A1753" transform="translate(50 45)"><tspan x="24" y="346">500</tspan></text><text opacity=".297" font-family="SharpGroteskBook20-Regular, Sharp Grotesk Book 20" font-size="12" font-style="expanded" fill="#0A1753" transform="translate(50 45)"><tspan x="24" y="406">0</tspan></text><text opacity=".297" font-family="SharpGroteskBook20-Regular, Sharp Grotesk Book 20" font-size="12" font-style="expanded" fill="#0A1753" transform="translate(50 45)"><tspan x="159.996" y="418">Mar 1</tspan></text><text opacity=".297" font-family="SharpGroteskBook20-Regular, Sharp Grotesk Book 20" font-size="12" font-style="expanded" fill="#0A1753" transform="translate(50 45)"><tspan x="257.776" y="418">Mar 2</tspan></text><text opacity=".297" font-family="SharpGroteskBook20-Regular, Sharp Grotesk Book 20" font-size="12" font-style="expanded" fill="#0A1753" transform="translate(50 45)"><tspan x="357.512" y="418">Mar 3</tspan></text><text opacity=".297" font-family="SharpGroteskBook20-Regular, Sharp Grotesk Book 20" font-size="12" font-style="expanded" fill="#0A1753" transform="translate(50 45)"><tspan x="457.644" y="418">Mar 4</tspan></text><text opacity=".297" font-family="SharpGroteskBook20-Regular, Sharp Grotesk Book 20" font-size="12" font-style="expanded" fill="#0A1753" transform="translate(50 45)"><tspan x="557.428" y="418">Mar 5</tspan></text><text opacity=".297" font-family="SharpGroteskBook20-Regular, Sharp Grotesk Book 20" font-size="12" font-style="expanded" fill="#0A1753" transform="translate(50 45)"><tspan x="657.284" y="418">Mar 6</tspan></text><text opacity=".297" font-family="SharpGroteskBook20-Regular, Sharp Grotesk Book 20" font-size="12" font-style="expanded" fill="#0A1753" transform="translate(50 45)"><tspan x="758.556" y="418">Mar 7</tspan></text><path stroke="#0A1753" stroke-width="2" opacity=".046" stroke-linecap="round" stroke-linejoin="round" stroke-dasharray="0,4" d="M242 81v361M142 81v361M342 81v361M442 81v361M542 81v361M642 81v361M742 81v361M842 81v361"/><g transform="translate(136 107)"><path stroke="#0299FE" stroke-width="2" d="M6 334l100-80 100-84 100 22 100-48 100-30L606 6l100 8"/><circle fill="#0299FE" cx="106" cy="254" r="6"/><circle fill="#0299FE" cx="6" cy="334" r="6"/><circle fill="#0299FE" cx="206" cy="170" r="6"/><circle fill="#0299FE" cx="306" cy="191" r="6"/><circle fill="#0299FE" cx="406" cy="145" r="6"/><circle fill="#0299FE" cx="506" cy="115" r="6"/><circle fill="#0299FE" cx="606" cy="6" r="6"/><circle fill="#0299FE" cx="706" cy="14" r="6"/></g><g transform="translate(136 135)"><path stroke="#3FD48D" stroke-width="2" d="M6 306l100-60 100-44 100-88 100 32 100-40 100-68L706 6"/><circle fill="#3FD48D" cx="6" cy="306" r="6"/><circle fill="#3FD48D" cx="106" cy="246" r="6"/><circle fill="#3FD48D" cx="206" cy="202" r="6"/><circle fill="#3FD48D" cx="306" cy="114" r="6"/><circle fill="#3FD48D" cx="406" cy="146" r="6"/><circle fill="#3FD48D" cx="506" cy="106" r="6"/><circle fill="#3FD48D" cx="606" cy="38" r="6"/><circle fill="#3FD48D" cx="706" cy="6" r="6"/></g><g transform="translate(563 307)"><use fill="#000" filter="url(#c)" xlink:href="#d"/><use fill="#FFF" xlink:href="#d"/><rect stroke="#0A1753" stroke-width="2" opacity=".05" x="36" y="74" width="346" height="48" rx="8"/><rect stroke="#0A1753" stroke-width="2" opacity=".05" x="36" y="196" width="346" height="48" rx="8"/><text font-family="SharpGroteskMedium20-Regular, Sharp Grotesk Medium 20" font-size="14" font-style="expanded" fill="#0A1753"><tspan x="36" y="47">Campaign</tspan></text><text font-family="SharpGroteskMedium20-Regular, Sharp Grotesk Medium 20" font-size="14" font-style="expanded" fill="#0A1753"><tspan x="36" y="169">Timeframe</tspan></text><text font-family="SharpGroteskMedium20-Regular, Sharp Grotesk Medium 20" font-size="14" font-style="expanded" fill="#0A1753"><tspan x="36" y="291">Filters</tspan></text><g transform="translate(36 318)"><rect fill="#0A1753" opacity=".054" x="93" width="88" height="36" rx="8"/><rect fill="#0A1753" opacity=".054" x="193" width="105" height="36" rx="8"/><rect stroke="#0A1753" stroke-width="2" opacity=".054" x="1" y="49" width="104" height="34" rx="8"/><rect stroke="#0A1753" stroke-width="2" opacity=".054" x="119" y="49" width="113" height="34" rx="8"/><rect stroke="#0A1753" stroke-width="2" opacity=".054" x="246" y="49" width="88" height="34" rx="8"/><rect stroke="#0A1753" stroke-width="2" opacity=".054" x="1" y="1" width="79" height="34" rx="8"/><text opacity=".302" font-family="SharpGroteskBook20-Regular, Sharp Grotesk Book 20" font-size="12" font-style="expanded" fill="#0A1753"><tspan x="32" y="21">Views</tspan></text><circle fill="#0A1753" opacity=".302" cx="18" cy="18" r="6"/><text font-family="SharpGroteskBook20-Regular, Sharp Grotesk Book 20" font-size="12" font-style="expanded" fill="#0A1753"><tspan x="125" y="21">Invites</tspan></text><text font-family="SharpGroteskBook20-Regular, Sharp Grotesk Book 20" font-size="12" font-style="expanded" fill="#0A1753"><tspan x="225" y="21">Accepted</tspan></text><text opacity=".297" font-family="SharpGroteskBook20-Regular, Sharp Grotesk Book 20" font-size="12" font-style="expanded" fill="#0A1753"><tspan x="32" y="69">Messages</tspan></text><text opacity=".297" font-family="SharpGroteskBook20-Regular, Sharp Grotesk Book 20" font-size="12" font-style="expanded" fill="#0A1753"><tspan x="150" y="69">Sequences</tspan></text><text opacity=".297" font-family="SharpGroteskBook20-Regular, Sharp Grotesk Book 20" font-size="12" font-style="expanded" fill="#0A1753"><tspan x="277" y="69">Replies</tspan></text><circle fill="#0299FE" cx="111" cy="18" r="6"/><circle fill="#3FD48D" cx="211" cy="18" r="6"/><circle fill="#0A1753" opacity=".297" cx="18" cy="66" r="6"/><circle fill="#0A1753" opacity=".297" cx="136" cy="66" r="6"/><circle fill="#0A1753" opacity=".297" cx="263" cy="66" r="6"/></g><text font-family="SharpGroteskBook20-Regular, Sharp Grotesk Book 20" font-size="14" font-style="expanded" fill="#0A1753"><tspan x="60" y="101">Campaign #1</tspan></text><text opacity=".298" font-family="SharpGroteskBook20-Regular, Sharp Grotesk Book 20" font-size="14" font-style="expanded" fill="#0A1753"><tspan x="60" y="223">May 1 to May 7</tspan></text><path d="M357.75 96.437l-3.573 3.573a.25.25 0 01-.354 0l-3.573-3.573" opacity=".299" stroke="#0A1753" stroke-linecap="round" stroke-linejoin="round" stroke-width="2"/><g opacity=".3" fill="#0A1753" fill-rule="nonzero"><path d="M345.625 218.875h-.75a.75.75 0 000 1.5h.75a.75.75 0 000-1.5zm3.75 0h-.75a.75.75 0 000 1.5h.75a.75.75 0 000-1.5zm3.75 0h-.75a.75.75 0 100 1.5h.75a.75.75 0 100-1.5zm-7.5 3h-.75a.75.75 0 100 1.5h.75a.75.75 0 100-1.5zm3.75 0h-.75a.75.75 0 100 1.5h.75a.75.75 0 100-1.5zm3.75 0h-.75a.75.75 0 100 1.5h.75a.75.75 0 100-1.5zm-7.5 3h-.75a.75.75 0 100 1.5h.75a.75.75 0 100-1.5zm3.75 0h-.75a.75.75 0 100 1.5h.75a.75.75 0 100-1.5zm3.75 0h-.75a.75.75 0 100 1.5h.75a.75.75 0 100-1.5z"/><path d="M356.125 213.25h-2.063a.187.187 0 01-.187-.188v-1.312a.75.75 0 10-1.5 0v3.563a.562.562 0 11-1.125 0v-1.688a.375.375 0 00-.375-.375h-4.688a.187.187 0 01-.187-.187v-1.313a.75.75 0 00-1.5 0v3.563a.563.563 0 01-1.125 0v-1.688a.375.375 0 00-.375-.375h-1.125a1.5 1.5 0 00-1.5 1.5v12.75a1.5 1.5 0 001.5 1.5h14.25a1.5 1.5 0 001.5-1.5v-12.75a1.5 1.5 0 00-1.5-1.5zm0 13.875a.375.375 0 01-.375.375h-13.5a.375.375 0 01-.375-.375v-9c0-.207.168-.375.375-.375h13.5c.207 0 .375.168.375.375v9z"/></g></g></g></svg>