<svg width="970" height="736" viewBox="0 0 970 736" xmlns="http://www.w3.org/2000/svg" xmlns:xlink="http://www.w3.org/1999/xlink"><defs><filter x="-9.7%" y="-20%" width="119.4%" height="142.8%" filterUnits="objectBoundingBox" id="a"><feOffset dy="5" in="SourceAlpha" result="shadowOffsetOuter1"/><feGaussianBlur stdDeviation="25" in="shadowOffsetOuter1" result="shadowBlurOuter1"/><feColorMatrix values="0 0 0 0 0.0392156863 0 0 0 0 0.0901960784 0 0 0 0 0.325490196 0 0 0 0.1 0" in="shadowBlurOuter1"/></filter><filter x="-9.7%" y="-20%" width="119.4%" height="142.8%" filterUnits="objectBoundingBox" id="c"><feOffset dy="5" in="SourceAlpha" result="shadowOffsetOuter1"/><feGaussianBlur stdDeviation="25" in="shadowOffsetOuter1" result="shadowBlurOuter1"/><feColorMatrix values="0 0 0 0 0.0392156863 0 0 0 0 0.0901960784 0 0 0 0 0.325490196 0 0 0 0.1 0" in="shadowBlurOuter1"/></filter><rect id="b" x="0" y="0" width="800" height="362" rx="8"/><rect id="d" x="0" y="0" width="800" height="362" rx="8"/></defs><g fill="none" fill-rule="evenodd"><g transform="translate(50 45)"><use fill="#000" filter="url(#a)" xlink:href="#b"/><use fill="#FFF" xlink:href="#b"/><text opacity=".3" font-family="SharpGroteskBook20-Regular, Sharp Grotesk Book 20" font-size="14" font-style="expanded" fill="#0A1753"><tspan x="60" y="257">Message</tspan></text><rect stroke="#0A1753" stroke-width="2" opacity=".099" x="244" y="118" width="160" height="48" rx="8"/><rect stroke="#0A1753" stroke-width="2" opacity=".099" x="36" y="230" width="728" height="96" rx="8"/><text font-family="SharpGroteskBook20-Regular, Sharp Grotesk Book 20" font-size="14" font-style="expanded" fill="#0A1753"><tspan x="268" y="145">05h</tspan></text><path d="M379.75 142.437l-3.573 3.573a.25.25 0 01-.354 0l-3.573-3.573" opacity=".299" stroke="#0A1753" stroke-linecap="round" stroke-linejoin="round" stroke-width="2"/><text opacity=".504" font-family="SharpGroteskBook20-Regular, Sharp Grotesk Book 20" font-size="12" font-style="expanded" fill="#0A1753"><tspan x="244" y="100">Delay</tspan></text><rect stroke="#0A1753" stroke-width="2" opacity=".099" x="36" y="118" width="172" height="48" rx="8"/><text font-family="SharpGroteskBook20-Regular, Sharp Grotesk Book 20" font-size="14" font-style="expanded" fill="#0A1753"><tspan x="60" y="145">Add variable</tspan></text><text opacity=".504" font-family="SharpGroteskBook20-Regular, Sharp Grotesk Book 20" font-size="12" font-style="expanded" fill="#0A1753"><tspan x="36" y="100">Variable</tspan></text><path d="M176 143h8m-4 4v-8" opacity=".293" stroke="#0A1753" stroke-linecap="round" stroke-width="2"/><text opacity=".504" font-family="SharpGroteskBook20-Regular, Sharp Grotesk Book 20" font-size="12" font-style="expanded" fill="#0A1753"><tspan x="36" y="212">Message</tspan></text><text font-family="SharpGroteskMedium20-Regular, Sharp Grotesk Medium 20" font-size="18" font-style="expanded" fill="#0A1753"><tspan x="36" y="50">Message 1</tspan></text><rect fill="#0A1753" opacity=".1" x="728" y="36" width="36" height="36" rx="8"/><path d="M751.875 50.625h-11.25a.375.375 0 00-.375.375v10.5a1.5 1.5 0 001.5 1.5h9a1.5 1.5 0 001.5-1.5V51a.375.375 0 00-.375-.375zm-6.938 9.75a.562.562 0 11-1.125 0v-6.75a.563.563 0 011.125 0v6.75zm3.75 0a.562.562 0 11-1.125 0v-6.75a.563.563 0 011.125 0v6.75zM753.75 48h-3.563a.187.187 0 01-.187-.188v-.937c0-1.036-.84-1.875-1.875-1.875h-3.75c-1.036 0-1.875.84-1.875 1.875v.938a.188.188 0 01-.188.187h-3.562a.75.75 0 000 1.5h15a.75.75 0 100-1.5zm-9.75-.188v-.937c0-.207.168-.375.375-.375h3.75c.207 0 .375.168.375.375v.938a.187.187 0 01-.188.187h-4.125a.188.188 0 01-.187-.188z" fill="#0A1753" fill-rule="nonzero"/></g><g transform="translate(120 319)"><use fill="#000" filter="url(#c)" xlink:href="#d"/><use fill="#FFF" xlink:href="#d"/><text opacity=".3" font-family="SharpGroteskBook20-Regular, Sharp Grotesk Book 20" font-size="14" font-style="expanded" fill="#0A1753"><tspan x="60" y="257">Message</tspan></text><rect stroke="#0A1753" stroke-width="2" opacity=".099" x="244" y="118" width="160" height="48" rx="8"/><rect stroke="#0A1753" stroke-width="2" opacity=".099" x="36" y="230" width="728" height="96" rx="8"/><text font-family="SharpGroteskBook20-Regular, Sharp Grotesk Book 20" font-size="14" font-style="expanded" fill="#0A1753"><tspan x="268" y="145">05h</tspan></text><path d="M379.75 142.437l-3.573 3.573a.25.25 0 01-.354 0l-3.573-3.573" opacity=".299" stroke="#0A1753" stroke-linecap="round" stroke-linejoin="round" stroke-width="2"/><text opacity=".504" font-family="SharpGroteskBook20-Regular, Sharp Grotesk Book 20" font-size="12" font-style="expanded" fill="#0A1753"><tspan x="244" y="100">Delay</tspan></text><rect stroke="#0A1753" stroke-width="2" opacity=".099" x="36" y="118" width="172" height="48" rx="8"/><text font-family="SharpGroteskBook20-Regular, Sharp Grotesk Book 20" font-size="14" font-style="expanded" fill="#0A1753"><tspan x="60" y="145">Add variable</tspan></text><text opacity=".504" font-family="SharpGroteskBook20-Regular, Sharp Grotesk Book 20" font-size="12" font-style="expanded" fill="#0A1753"><tspan x="36" y="100">Variable</tspan></text><path d="M176 143h8m-4 4v-8" opacity=".293" stroke="#0A1753" stroke-linecap="round" stroke-width="2"/><text opacity=".504" font-family="SharpGroteskBook20-Regular, Sharp Grotesk Book 20" font-size="12" font-style="expanded" fill="#0A1753"><tspan x="36" y="212">Message</tspan></text><text font-family="SharpGroteskMedium20-Regular, Sharp Grotesk Medium 20" font-size="18" font-style="expanded" fill="#0A1753"><tspan x="36" y="50">Message 2</tspan></text><rect fill="#0A1753" opacity=".1" x="728" y="36" width="36" height="36" rx="8"/><path d="M751.875 50.625h-11.25a.375.375 0 00-.375.375v10.5a1.5 1.5 0 001.5 1.5h9a1.5 1.5 0 001.5-1.5V51a.375.375 0 00-.375-.375zm-6.938 9.75a.562.562 0 11-1.125 0v-6.75a.563.563 0 011.125 0v6.75zm3.75 0a.562.562 0 11-1.125 0v-6.75a.563.563 0 011.125 0v6.75zM753.75 48h-3.563a.187.187 0 01-.187-.188v-.937c0-1.036-.84-1.875-1.875-1.875h-3.75c-1.036 0-1.875.84-1.875 1.875v.938a.188.188 0 01-.188.187h-3.562a.75.75 0 000 1.5h15a.75.75 0 100-1.5zm-9.75-.188v-.937c0-.207.168-.375.375-.375h3.75c.207 0 .375.168.375.375v.938a.187.187 0 01-.188.187h-4.125a.188.188 0 01-.187-.188z" fill="#0A1753" fill-rule="nonzero"/></g></g></svg>