<svg width="917" height="730" viewBox="0 0 917 730" xmlns="http://www.w3.org/2000/svg" xmlns:xlink="http://www.w3.org/1999/xlink"><defs><filter x="-9.5%" y="-11.5%" width="119%" height="124.6%" filterUnits="objectBoundingBox" id="a"><feOffset dy="5" in="SourceAlpha" result="shadowOffsetOuter1"/><feGaussianBlur stdDeviation="25" in="shadowOffsetOuter1" result="shadowBlurOuter1"/><feColorMatrix values="0 0 0 0 0.0392156863 0 0 0 0 0.0901960784 0 0 0 0 0.325490196 0 0 0 0.1 0" in="shadowBlurOuter1"/></filter><rect id="b" x="0" y="0" width="817" height="630" rx="8"/></defs><g transform="translate(50 45)" fill="none" fill-rule="evenodd"><use fill="#000" filter="url(#a)" xlink:href="#b"/><use fill="#FFF" xlink:href="#b"/><rect stroke-opacity=".051" stroke="#0A1753" stroke-width="2" fill="#FFF" x="36" y="74" width="360" height="48" rx="8"/><rect stroke-opacity=".051" stroke="#0A1753" stroke-width="2" fill="#FFF" x="36" y="486" width="360" height="48" rx="8"/><rect stroke-opacity=".051" stroke="#0A1753" stroke-width="2" fill="#FFF" x="421" y="74" width="360" height="48" rx="8"/><rect stroke-opacity=".051" stroke="#0A1753" stroke-width="2" fill="#FFF" x="421" y="486" width="360" height="48" rx="8"/><rect stroke-opacity=".051" stroke="#0A1753" stroke-width="2" fill="#FFF" x="36" y="280" width="360" height="48" rx="8"/><rect stroke-opacity=".051" stroke="#0A1753" stroke-width="2" fill="#FFF" x="421" y="280" width="360" height="48" rx="8"/><text font-family="SharpGroteskBook20-Regular, Sharp Grotesk Book 20" font-size="14" font-style="expanded" fill="#0A1753" fill-opacity=".3"><tspan x="60" y="101">Example: Designer</tspan></text><text font-family="SharpGroteskBook20-Regular, Sharp Grotesk Book 20" font-size="14" font-style="expanded" fill="#0A1753" fill-opacity=".3"><tspan x="60" y="513">Example: Apple</tspan></text><text font-family="SharpGroteskBook20-Regular, Sharp Grotesk Book 20" font-size="14" font-style="expanded" fill="#0A1753" fill-opacity=".3"><tspan x="445" y="101">Example: San Francisco</tspan></text><text font-family="SharpGroteskBook20-Regular, Sharp Grotesk Book 20" font-size="14" font-style="expanded" fill="#0A1753" fill-opacity=".3"><tspan x="445" y="513">Example: Google</tspan></text><text font-family="SharpGroteskBook20-Regular, Sharp Grotesk Book 20" font-size="14" font-style="expanded" fill="#0A1753" fill-opacity=".3"><tspan x="60" y="307">Example: Elon Musk</tspan></text><text font-family="SharpGroteskBook20-Regular, Sharp Grotesk Book 20" font-size="14" font-style="expanded" fill="#0A1753" fill-opacity=".3"><tspan x="445" y="307">Example: Technology</tspan></text><text font-family="SharpGroteskMedium20-Regular, Sharp Grotesk Medium 20" font-size="14" font-style="expanded" fill="#0A1753"><tspan x="36" y="47">Keywords</tspan></text><text font-family="SharpGroteskMedium20-Regular, Sharp Grotesk Medium 20" font-size="14" font-style="expanded" fill="#0A1753"><tspan x="36" y="459">Current companies</tspan></text><text font-family="SharpGroteskMedium20-Regular, Sharp Grotesk Medium 20" font-size="14" font-style="expanded" fill="#0A1753"><tspan x="421" y="47">Location</tspan></text><text font-family="SharpGroteskMedium20-Regular, Sharp Grotesk Medium 20" font-size="14" font-style="expanded" fill="#0A1753"><tspan x="421" y="459">Past companies</tspan></text><text font-family="SharpGroteskMedium20-Regular, Sharp Grotesk Medium 20" font-size="14" font-style="expanded" fill="#0A1753"><tspan x="36" y="253">Connections of</tspan></text><text font-family="SharpGroteskMedium20-Regular, Sharp Grotesk Medium 20" font-size="14" font-style="expanded" fill="#0A1753"><tspan x="421" y="253">Industries</tspan></text><rect fill="#0A1753" opacity=".097" x="421" y="146" width="146" height="36" rx="8"/><rect fill="#0A1753" opacity=".097" x="36" y="146" width="107" height="36" rx="8"/><rect fill="#0A1753" opacity=".097" x="36" y="558" width="85" height="36" rx="8"/><rect fill="#0A1753" opacity=".097" x="421" y="558" width="94" height="36" rx="8"/><rect fill="#0A1753" opacity=".097" x="421" y="352" width="92" height="36" rx="8"/><rect fill="#0A1753" opacity=".097" x="525" y="352" width="115" height="36" rx="8"/><rect fill="#0A1753" opacity=".097" x="36" y="352" width="116" height="36" rx="8"/><rect fill="#0A1753" opacity=".097" x="133" y="558" width="82" height="36" rx="8"/><text font-family="SharpGroteskMedium20-Regular, Sharp Grotesk Medium 20" font-size="14" font-style="expanded" fill="#0A1753"><tspan x="433" y="168">San Francisco</tspan></text><text font-family="SharpGroteskMedium20-Regular, Sharp Grotesk Medium 20" font-size="14" font-style="expanded" fill="#0A1753"><tspan x="48" y="168">Designer</tspan></text><text font-family="SharpGroteskMedium20-Regular, Sharp Grotesk Medium 20" font-size="14" font-style="expanded" fill="#0A1753"><tspan x="48" y="580">Apple</tspan></text><text font-family="SharpGroteskMedium20-Regular, Sharp Grotesk Medium 20" font-size="14" font-style="expanded" fill="#0A1753"><tspan x="433" y="580">Google</tspan></text><text font-family="SharpGroteskMedium20-Regular, Sharp Grotesk Medium 20" font-size="14" font-style="expanded" fill="#0A1753"><tspan x="433" y="374">Design</tspan></text><text font-family="SharpGroteskMedium20-Regular, Sharp Grotesk Medium 20" font-size="14" font-style="expanded" fill="#0A1753"><tspan x="537" y="374">Marketing</tspan></text><text font-family="SharpGroteskMedium20-Regular, Sharp Grotesk Medium 20" font-size="14" font-style="expanded" fill="#0A1753"><tspan x="48" y="374">Elon Musk</tspan></text><text font-family="SharpGroteskMedium20-Regular, Sharp Grotesk Medium 20" font-size="14" font-style="expanded" fill="#0A1753"><tspan x="145" y="580">Tesla</tspan></text><path d="M547.25 167.75l7.5-7.5m0 7.5l-7.5-7.5m-424 7.5l7.5-7.5m0 7.5l-7.5-7.5m-22 419.5l7.5-7.5m0 7.5l-7.5-7.5m394 7.5l7.5-7.5m0 7.5l-7.5-7.5m-2-198.5l7.5-7.5m0 7.5l-7.5-7.5m127 7.5l7.5-7.5m0 7.5l-7.5-7.5m-488 7.5l7.5-7.5m0 7.5l-7.5-7.5m63 213.5l7.5-7.5m0 7.5l-7.5-7.5" opacity=".304" stroke="#0A1753" stroke-linecap="round" stroke-linejoin="round" stroke-width="2"/></g></svg>