<svg width="1460" height="730" viewBox="0 0 1460 730" xmlns="http://www.w3.org/2000/svg" xmlns:xlink="http://www.w3.org/1999/xlink"><defs><filter x="-5.7%" y="-11.5%" width="111.4%" height="124.6%" filterUnits="objectBoundingBox" id="a"><feOffset dy="5" in="SourceAlpha" result="shadowOffsetOuter1"/><feGaussianBlur stdDeviation="25" in="shadowOffsetOuter1" result="shadowBlurOuter1"/><feColorMatrix values="0 0 0 0 0.0392156863 0 0 0 0 0.0901960784 0 0 0 0 0.325490196 0 0 0 0.1 0" in="shadowBlurOuter1"/></filter><filter x="-1.4%" y="-4.1%" width="102.8%" height="111.4%" filterUnits="objectBoundingBox" id="c"><feOffset dy="5" in="SourceAlpha" result="shadowOffsetOuter1"/><feGaussianBlur stdDeviation="5" in="shadowOffsetOuter1" result="shadowBlurOuter1"/><feColorMatrix values="0 0 0 0 0.0392156863 0 0 0 0 0.0901960784 0 0 0 0 0.325490196 0 0 0 0.03 0" in="shadowBlurOuter1"/></filter><rect id="b" x="0" y="0" width="1360" height="630" rx="8"/><rect id="d" x="60" y="156" width="1240" height="308" rx="8"/></defs><g transform="translate(50 45)" fill="none" fill-rule="evenodd"><use fill="#000" filter="url(#a)" xlink:href="#b"/><use fill="#F6F9FB" xlink:href="#b"/><text font-family="SharpGroteskMedium20-Regular, Sharp Grotesk Medium 20" font-size="24" font-style="expanded" fill="#0A1753"><tspan x="60" y="79">Send InMails to your audience</tspan></text><text opacity=".5" font-family="SharpGroteskBook20-Regular, Sharp Grotesk Book 20" font-size="14" font-style="expanded" letter-spacing="-.2" fill="#0A1753"><tspan x="60" y="107">If the user allows InMails we will send them instead of Notes.</tspan></text><use fill="#000" filter="url(#c)" xlink:href="#d"/><use fill="#FFF" xlink:href="#d"/><rect stroke="#0A1753" stroke-width="2" opacity=".099" x="432" y="220" width="172" height="48" rx="8"/><text font-family="SharpGroteskBook20-Regular, Sharp Grotesk Book 20" font-size="14" font-style="expanded" fill="#0A1753"><tspan x="456" y="247">Add variable</tspan></text><text opacity=".504" font-family="SharpGroteskBook20-Regular, Sharp Grotesk Book 20" font-size="12" font-style="expanded" fill="#0A1753"><tspan x="432" y="202">Variable</tspan></text><path d="M572 245h8m-4 4v-8" opacity=".293" stroke="#0A1753" stroke-linecap="round" stroke-width="2"/><text opacity=".3" font-family="SharpGroteskBook20-Regular, Sharp Grotesk Book 20" font-size="14" font-style="expanded" fill="#0A1753"><tspan x="120" y="247">Subject</tspan></text><text opacity=".3" font-family="SharpGroteskBook20-Regular, Sharp Grotesk Book 20" font-size="14" font-style="expanded" fill="#0A1753"><tspan x="120" y="359">Message</tspan></text><rect stroke="#0A1753" stroke-width="2" opacity=".099" x="96" y="220" width="300" height="48" rx="8"/><rect stroke="#0A1753" stroke-width="2" opacity=".099" x="96" y="332" width="1168" height="96" rx="8"/><text opacity=".504" font-family="SharpGroteskBook20-Regular, Sharp Grotesk Book 20" font-size="12" font-style="expanded" fill="#0A1753"><tspan x="96" y="202">Subject</tspan></text><text opacity=".504" font-family="SharpGroteskBook20-Regular, Sharp Grotesk Book 20" font-size="12" font-style="expanded" fill="#0A1753"><tspan x="96" y="314">Message</tspan></text><rect fill="#0A1753" opacity=".1" x="1228" y="192" width="36" height="36" rx="8"/><path d="M1251.875 206.625h-11.25a.375.375 0 00-.375.375v10.5a1.5 1.5 0 001.5 1.5h9a1.5 1.5 0 001.5-1.5V207a.375.375 0 00-.375-.375zm-6.938 9.75a.562.562 0 11-1.124 0v-6.75a.563.563 0 011.124 0v6.75zm3.75 0a.562.562 0 11-1.124 0v-6.75a.563.563 0 011.124 0v6.75zM1253.75 204h-3.563a.187.187 0 01-.187-.188v-.937c0-1.036-.84-1.875-1.875-1.875h-3.75c-1.036 0-1.875.84-1.875 1.875v.938a.188.188 0 01-.188.187h-3.562a.75.75 0 000 1.5h15a.75.75 0 100-1.5zm-9.75-.188v-.937c0-.207.168-.375.375-.375h3.75c.207 0 .375.168.375.375v.938a.187.187 0 01-.188.187h-4.124a.188.188 0 01-.188-.188z" fill="#0A1753" fill-rule="nonzero"/><rect stroke="#0A1753" stroke-width="2" opacity=".05" x="60" y="494" width="1240" height="48" rx="8"/><text opacity=".296" font-family="SharpGroteskMedium20-Regular, Sharp Grotesk Medium 20" font-size="14" font-style="expanded" fill="#0A1753"><tspan x="574.031" y="520">Add InMail for A/B testing</tspan></text><path d="M778 509a9 9 0 109 9 9.01 9.01 0 00-9-9zm.188 3.75a1.125 1.125 0 110 2.25 1.125 1.125 0 010-2.25zm1.687 10.125h-3a.75.75 0 110-1.5h.563a.187.187 0 00.187-.188v-3.375a.188.188 0 00-.188-.187h-.562a.75.75 0 010-1.5h.75a1.5 1.5 0 011.5 1.5v3.563c0 .103.084.187.188.187h.562a.75.75 0 110 1.5z" opacity=".299" fill="#0A1753" fill-rule="nonzero"/><rect stroke="#E6E7ED" stroke-width="2" fill="#FFF" x="640" y="220" width="239" height="192" rx="8"/><text opacity=".5" font-family="SharpGroteskBook20-Regular, Sharp Grotesk Book 20" font-size="14" font-style="expanded" fill="#0A1753"><tspan x="664" y="247">No template selected</tspan></text><text font-family="SharpGroteskBook20-Regular, Sharp Grotesk Book 20" font-size="14" font-style="expanded" fill="#0A1753"><tspan x="664" y="295">Template 1</tspan></text><text font-family="SharpGroteskBook20-Regular, Sharp Grotesk Book 20" font-size="14" font-style="expanded" fill="#0A1753"><tspan x="664" y="343">Template 2</tspan></text><text opacity=".5" font-family="SharpGroteskBook20-Regular, Sharp Grotesk Book 20" font-size="14" font-style="expanded" fill="#0A1753"><tspan x="700" y="391">Create template</tspan></text><path d="M854.75 244.437l-3.573 3.573a.25.25 0 01-.354 0l-3.573-3.573" opacity=".299" stroke="#0A1753" stroke-linecap="round" stroke-linejoin="round" stroke-width="2"/><text opacity=".504" font-family="SharpGroteskBook20-Regular, Sharp Grotesk Book 20" font-size="12" font-style="expanded" fill="#0A1753"><tspan x="640" y="202">Template</tspan></text><rect fill="#0A1753" opacity=".096" x="664" y="376" width="24" height="24" rx="6"/><path d="M676 392v-8m-4 4h8" stroke="#0A1753" stroke-linecap="round" stroke-linejoin="round"/></g></svg>