<svg width="320" height="319" viewBox="0 0 320 319" fill="none" xmlns="http://www.w3.org/2000/svg">
<rect x="0.5" y="0.5" width="319" height="318" fill="white" stroke="#F0F0F0"/>
<path d="M290.499 293.965H295.059V295H288.864V293.995C291.964 291.655 293.514 289.705 293.514 288.145C293.514 287.525 293.334 287.05 292.974 286.72C292.614 286.38 292.129 286.21 291.519 286.21C290.729 286.21 289.949 286.505 289.179 287.095V285.91C289.889 285.36 290.704 285.085 291.624 285.085C292.504 285.085 293.244 285.34 293.844 285.85C294.444 286.36 294.744 287.085 294.744 288.025C294.744 289.795 293.329 291.775 290.499 293.965Z" fill="#A9ADB5"/>
<path d="M245.846 287.875V286.6L248.171 285.19H249.281V295H248.111V286.48L245.846 287.875Z" fill="#A9ADB5"/>
<path d="M198.365 287.65V285.61C199.105 285.24 199.85 285.055 200.6 285.055C201.66 285.055 202.5 285.31 203.12 285.82C203.74 286.32 204.05 286.975 204.05 287.785C204.05 288.895 203.545 289.66 202.535 290.08C203.675 290.35 204.245 291.09 204.245 292.3C204.245 293.14 203.925 293.815 203.285 294.325C202.655 294.825 201.77 295.075 200.63 295.075C199.56 295.075 198.675 294.905 197.975 294.565V292.465C198.775 292.905 199.6 293.125 200.45 293.125C200.94 293.125 201.32 293.02 201.59 292.81C201.87 292.6 202.01 292.335 202.01 292.015C202.01 291.285 201.335 290.92 199.985 290.92H199.46V289.12H199.985C200.515 289.12 200.95 289.03 201.29 288.85C201.63 288.67 201.8 288.4 201.8 288.04C201.8 287.35 201.35 287.005 200.45 287.005C199.76 287.005 199.065 287.22 198.365 287.65ZM204.926 289.03V286.795L207.686 285.19H209.576V295H207.401V287.545L204.926 289.03Z" fill="#333333"/>
<path d="M153.113 287.65V285.61C153.853 285.24 154.598 285.055 155.348 285.055C156.408 285.055 157.248 285.31 157.868 285.82C158.488 286.32 158.798 286.975 158.798 287.785C158.798 288.895 158.293 289.66 157.283 290.08C158.423 290.35 158.993 291.09 158.993 292.3C158.993 293.14 158.673 293.815 158.033 294.325C157.403 294.825 156.518 295.075 155.378 295.075C154.308 295.075 153.423 294.905 152.723 294.565V292.465C153.523 292.905 154.348 293.125 155.198 293.125C155.688 293.125 156.068 293.02 156.338 292.81C156.618 292.6 156.758 292.335 156.758 292.015C156.758 291.285 156.083 290.92 154.733 290.92H154.208V289.12H154.733C155.263 289.12 155.698 289.03 156.038 288.85C156.378 288.67 156.548 288.4 156.548 288.04C156.548 287.35 156.098 287.005 155.198 287.005C154.508 287.005 153.813 287.22 153.113 287.65ZM160.049 290.05C160.049 288.49 160.349 287.255 160.949 286.345C161.549 285.435 162.439 284.98 163.619 284.98C164.799 284.98 165.689 285.435 166.289 286.345C166.899 287.255 167.204 288.49 167.204 290.05C167.204 291.59 166.899 292.82 166.289 293.74C165.689 294.66 164.799 295.12 163.619 295.12C162.439 295.12 161.549 294.665 160.949 293.755C160.349 292.835 160.049 291.6 160.049 290.05ZM163.619 286.93C162.729 286.93 162.284 287.97 162.284 290.05C162.284 292.13 162.729 293.17 163.619 293.17C164.519 293.17 164.969 292.13 164.969 290.05C164.969 287.97 164.519 286.93 163.619 286.93Z" fill="#333333"/>
<path d="M111.754 293.14H115.234V295H108.694V293.305C109.774 292.565 110.724 291.745 111.544 290.845C112.374 289.945 112.789 289.15 112.789 288.46C112.789 288.04 112.664 287.71 112.414 287.47C112.164 287.22 111.784 287.095 111.274 287.095C110.424 287.095 109.619 287.41 108.859 288.04V285.925C109.189 285.685 109.619 285.48 110.149 285.31C110.679 285.14 111.199 285.055 111.709 285.055C112.729 285.055 113.539 285.325 114.139 285.865C114.749 286.395 115.054 287.14 115.054 288.1C115.054 289.83 113.954 291.51 111.754 293.14ZM119.568 289.81C120.168 289.81 120.653 289.585 121.023 289.135C120.903 287.715 120.423 287.005 119.583 287.005C119.193 287.005 118.878 287.13 118.638 287.38C118.408 287.63 118.293 287.98 118.293 288.43C118.293 288.83 118.408 289.16 118.638 289.42C118.868 289.68 119.178 289.81 119.568 289.81ZM116.763 294.835V292.765C117.283 293.015 117.798 293.14 118.308 293.14C119.088 293.14 119.693 292.965 120.123 292.615C120.553 292.255 120.833 291.695 120.963 290.935C120.533 291.365 119.883 291.58 119.013 291.58C118.133 291.58 117.418 291.3 116.868 290.74C116.328 290.17 116.058 289.415 116.058 288.475C116.058 287.495 116.363 286.68 116.973 286.03C117.593 285.38 118.428 285.055 119.478 285.055C120.648 285.055 121.563 285.48 122.223 286.33C122.893 287.17 123.228 288.32 123.228 289.78C123.228 291.57 122.803 292.91 121.953 293.8C121.103 294.68 119.968 295.12 118.548 295.12C117.868 295.12 117.273 295.025 116.763 294.835Z" fill="#333333"/>
<path d="M67.6658 293.14H71.1458V295H64.6058V293.305C65.6858 292.565 66.6358 291.745 67.4558 290.845C68.2858 289.945 68.7008 289.15 68.7008 288.46C68.7008 288.04 68.5758 287.71 68.3258 287.47C68.0758 287.22 67.6958 287.095 67.1858 287.095C66.3358 287.095 65.5308 287.41 64.7708 288.04V285.925C65.1008 285.685 65.5308 285.48 66.0608 285.31C66.5908 285.14 67.1108 285.055 67.6208 285.055C68.6408 285.055 69.4508 285.325 70.0508 285.865C70.6608 286.395 70.9658 287.14 70.9658 288.1C70.9658 289.83 69.8658 291.51 67.6658 293.14ZM75.7354 293.41C76.1954 293.41 76.5404 293.3 76.7704 293.08C77.0104 292.85 77.1304 292.575 77.1304 292.255C77.1304 291.895 77.0054 291.6 76.7554 291.37C76.5154 291.14 76.1754 291.025 75.7354 291.025C75.2854 291.025 74.9454 291.15 74.7154 291.4C74.4954 291.65 74.3854 291.945 74.3854 292.285C74.3854 292.595 74.4904 292.86 74.7004 293.08C74.9204 293.3 75.2654 293.41 75.7354 293.41ZM75.7204 286.75C75.3204 286.75 75.0254 286.865 74.8354 287.095C74.6454 287.315 74.5504 287.585 74.5504 287.905C74.5504 288.285 74.6654 288.58 74.8954 288.79C75.1254 289 75.4154 289.105 75.7654 289.105C76.1054 289.105 76.3904 289 76.6204 288.79C76.8504 288.58 76.9654 288.285 76.9654 287.905C76.9654 287.135 76.5504 286.75 75.7204 286.75ZM77.9254 290.005C78.8554 290.435 79.3204 291.19 79.3204 292.27C79.3204 293.13 78.9854 293.825 78.3154 294.355C77.6554 294.885 76.7904 295.15 75.7204 295.15C74.6404 295.15 73.7804 294.9 73.1404 294.4C72.5104 293.89 72.1954 293.205 72.1954 292.345C72.1954 291.285 72.6704 290.52 73.6204 290.05C72.7704 289.56 72.3454 288.855 72.3454 287.935C72.3454 287.015 72.6604 286.3 73.2904 285.79C73.9304 285.27 74.7404 285.01 75.7204 285.01C76.7404 285.01 77.5654 285.255 78.1954 285.745C78.8354 286.235 79.1554 286.965 79.1554 287.935C79.1554 288.835 78.7454 289.525 77.9254 290.005Z" fill="#333333"/>
<path d="M24.1492 293.14H27.6292V295H21.0892V293.305C22.1692 292.565 23.1192 291.745 23.9392 290.845C24.7692 289.945 25.1842 289.15 25.1842 288.46C25.1842 288.04 25.0592 287.71 24.8092 287.47C24.5592 287.22 24.1792 287.095 23.6692 287.095C22.8192 287.095 22.0142 287.41 21.2542 288.04V285.925C21.5842 285.685 22.0142 285.48 22.5442 285.31C23.0742 285.14 23.5942 285.055 24.1042 285.055C25.1242 285.055 25.9342 285.325 26.5342 285.865C27.1442 286.395 27.4492 287.14 27.4492 288.1C27.4492 289.83 26.3492 291.51 24.1492 293.14ZM28.4538 285.175H35.0538V287.035L31.2438 295H28.9338L32.7588 287.035H28.4538V285.175Z" fill="#333333"/>
<path d="M287.724 256.14H291.204V258H284.664V256.305C285.744 255.565 286.694 254.745 287.514 253.845C288.344 252.945 288.759 252.15 288.759 251.46C288.759 251.04 288.634 250.71 288.384 250.47C288.134 250.22 287.754 250.095 287.244 250.095C286.394 250.095 285.589 250.41 284.829 251.04V248.925C285.159 248.685 285.589 248.48 286.119 248.31C286.649 248.14 287.169 248.055 287.679 248.055C288.699 248.055 289.509 248.325 290.109 248.865C290.719 249.395 291.024 250.14 291.024 251.1C291.024 252.83 289.924 254.51 287.724 256.14ZM295.929 256.35C296.319 256.35 296.624 256.215 296.844 255.945C297.064 255.675 297.174 255.315 297.174 254.865C297.174 254.455 297.064 254.13 296.844 253.89C296.634 253.64 296.334 253.515 295.944 253.515C295.404 253.515 294.929 253.73 294.519 254.16C294.629 255.62 295.099 256.35 295.929 256.35ZM298.644 248.25V250.275C298.254 250.065 297.799 249.96 297.279 249.96C296.569 249.96 295.984 250.18 295.524 250.62C295.074 251.05 294.769 251.63 294.609 252.36C295.149 251.9 295.794 251.67 296.544 251.67C297.404 251.67 298.094 251.955 298.614 252.525C299.144 253.095 299.409 253.86 299.409 254.82C299.409 255.81 299.094 256.64 298.464 257.31C297.844 257.97 296.994 258.3 295.914 258.3C294.704 258.3 293.789 257.87 293.169 257.01C292.559 256.14 292.254 254.975 292.254 253.515C292.254 251.845 292.709 250.51 293.619 249.51C294.539 248.51 295.699 248.01 297.099 248.01C297.629 248.01 298.144 248.09 298.644 248.25Z" fill="#1C1B17"/>
<path d="M244.003 256.14H247.483V258H240.943V256.305C242.023 255.565 242.973 254.745 243.793 253.845C244.623 252.945 245.038 252.15 245.038 251.46C245.038 251.04 244.913 250.71 244.663 250.47C244.413 250.22 244.033 250.095 243.523 250.095C242.673 250.095 241.868 250.41 241.108 251.04V248.925C241.438 248.685 241.868 248.48 242.398 248.31C242.928 248.14 243.448 248.055 243.958 248.055C244.978 248.055 245.788 248.325 246.388 248.865C246.998 249.395 247.303 250.14 247.303 251.1C247.303 252.83 246.203 254.51 244.003 256.14ZM251.082 250.02V251.685C251.302 251.655 251.522 251.64 251.742 251.64C252.812 251.64 253.632 251.915 254.202 252.465C254.772 253.015 255.057 253.765 255.057 254.715C255.057 255.735 254.717 256.555 254.037 257.175C253.367 257.785 252.412 258.09 251.172 258.09C250.082 258.09 249.202 257.915 248.532 257.565V255.495C249.212 255.915 249.972 256.125 250.812 256.125C252.152 256.125 252.822 255.645 252.822 254.685C252.822 254.325 252.682 254.04 252.402 253.83C252.132 253.62 251.722 253.515 251.172 253.515C250.402 253.515 249.662 253.68 248.952 254.01V248.16H254.457V250.02H251.082Z" fill="#1C1B17"/>
<path d="M199.541 256.14H203.021V258H196.481V256.305C197.561 255.565 198.511 254.745 199.331 253.845C200.161 252.945 200.576 252.15 200.576 251.46C200.576 251.04 200.451 250.71 200.201 250.47C199.951 250.22 199.571 250.095 199.061 250.095C198.211 250.095 197.406 250.41 196.646 251.04V248.925C196.976 248.685 197.406 248.48 197.936 248.31C198.466 248.14 198.986 248.055 199.496 248.055C200.516 248.055 201.326 248.325 201.926 248.865C202.536 249.395 202.841 250.14 202.841 251.1C202.841 252.83 201.741 254.51 199.541 256.14ZM206.141 254.055H208.301V249.615L206.141 254.055ZM211.676 254.055V255.915H210.476V258H208.301V255.915H203.996V254.055L206.996 248.16H210.476V254.055H211.676Z" fill="#1C1B17"/>
<path d="M156.127 256.14H159.607V258H153.067V256.305C154.147 255.565 155.097 254.745 155.917 253.845C156.747 252.945 157.162 252.15 157.162 251.46C157.162 251.04 157.037 250.71 156.787 250.47C156.537 250.22 156.157 250.095 155.647 250.095C154.797 250.095 153.992 250.41 153.232 251.04V248.925C153.562 248.685 153.992 248.48 154.522 248.31C155.052 248.14 155.572 248.055 156.082 248.055C157.102 248.055 157.912 248.325 158.512 248.865C159.122 249.395 159.427 250.14 159.427 251.1C159.427 252.83 158.327 254.51 156.127 256.14ZM160.972 250.65V248.61C161.712 248.24 162.457 248.055 163.207 248.055C164.267 248.055 165.107 248.31 165.727 248.82C166.347 249.32 166.657 249.975 166.657 250.785C166.657 251.895 166.152 252.66 165.142 253.08C166.282 253.35 166.852 254.09 166.852 255.3C166.852 256.14 166.532 256.815 165.892 257.325C165.262 257.825 164.377 258.075 163.237 258.075C162.167 258.075 161.282 257.905 160.582 257.565V255.465C161.382 255.905 162.207 256.125 163.057 256.125C163.547 256.125 163.927 256.02 164.197 255.81C164.477 255.6 164.617 255.335 164.617 255.015C164.617 254.285 163.942 253.92 162.592 253.92H162.067V252.12H162.592C163.122 252.12 163.557 252.03 163.897 251.85C164.237 251.67 164.407 251.4 164.407 251.04C164.407 250.35 163.957 250.005 163.057 250.005C162.367 250.005 161.672 250.22 160.972 250.65Z" fill="#1C1B17"/>
<path d="M111.995 256.14H115.475V258H108.935V256.305C110.015 255.565 110.965 254.745 111.785 253.845C112.615 252.945 113.03 252.15 113.03 251.46C113.03 251.04 112.905 250.71 112.655 250.47C112.405 250.22 112.025 250.095 111.515 250.095C110.665 250.095 109.86 250.41 109.1 251.04V248.925C109.43 248.685 109.86 248.48 110.39 248.31C110.92 248.14 111.44 248.055 111.95 248.055C112.97 248.055 113.78 248.325 114.38 248.865C114.99 249.395 115.295 250.14 115.295 251.1C115.295 252.83 114.195 254.51 111.995 256.14ZM119.51 256.14H122.99V258H116.45V256.305C117.53 255.565 118.48 254.745 119.3 253.845C120.13 252.945 120.545 252.15 120.545 251.46C120.545 251.04 120.42 250.71 120.17 250.47C119.92 250.22 119.54 250.095 119.03 250.095C118.18 250.095 117.375 250.41 116.615 251.04V248.925C116.945 248.685 117.375 248.48 117.905 248.31C118.435 248.14 118.955 248.055 119.465 248.055C120.485 248.055 121.295 248.325 121.895 248.865C122.505 249.395 122.81 250.14 122.81 251.1C122.81 252.83 121.71 254.51 119.51 256.14Z" fill="#1C1B17"/>
<path d="M68.9036 256.14H72.3836V258H65.8436V256.305C66.9236 255.565 67.8736 254.745 68.6936 253.845C69.5236 252.945 69.9386 252.15 69.9386 251.46C69.9386 251.04 69.8136 250.71 69.5636 250.47C69.3136 250.22 68.9336 250.095 68.4236 250.095C67.5736 250.095 66.7686 250.41 66.0086 251.04V248.925C66.3386 248.685 66.7686 248.48 67.2986 248.31C67.8286 248.14 68.3486 248.055 68.8586 248.055C69.8786 248.055 70.6886 248.325 71.2886 248.865C71.8986 249.395 72.2036 250.14 72.2036 251.1C72.2036 252.83 71.1036 254.51 68.9036 256.14ZM73.0582 252.03V249.795L75.8182 248.19H77.7082V258H75.5332V250.545L73.0582 252.03Z" fill="#1C1B17"/>
<path d="M23.6511 256.14H27.1311V258H20.5911V256.305C21.6711 255.565 22.6211 254.745 23.4411 253.845C24.2711 252.945 24.6861 252.15 24.6861 251.46C24.6861 251.04 24.5611 250.71 24.3111 250.47C24.0611 250.22 23.6811 250.095 23.1711 250.095C22.3211 250.095 21.5161 250.41 20.7561 251.04V248.925C21.0861 248.685 21.5161 248.48 22.0461 248.31C22.5761 248.14 23.0961 248.055 23.6061 248.055C24.6261 248.055 25.4361 248.325 26.0361 248.865C26.6461 249.395 26.9511 250.14 26.9511 251.1C26.9511 252.83 25.8511 254.51 23.6511 256.14ZM28.1808 253.05C28.1808 251.49 28.4808 250.255 29.0808 249.345C29.6808 248.435 30.5708 247.98 31.7508 247.98C32.9308 247.98 33.8208 248.435 34.4208 249.345C35.0308 250.255 35.3358 251.49 35.3358 253.05C35.3358 254.59 35.0308 255.82 34.4208 256.74C33.8208 257.66 32.9308 258.12 31.7508 258.12C30.5708 258.12 29.6808 257.665 29.0808 256.755C28.4808 255.835 28.1808 254.6 28.1808 253.05ZM31.7508 249.93C30.8608 249.93 30.4158 250.97 30.4158 253.05C30.4158 255.13 30.8608 256.17 31.7508 256.17C32.6508 256.17 33.1008 255.13 33.1008 253.05C33.1008 250.97 32.6508 249.93 31.7508 249.93Z" fill="#1C1B17"/>
<path d="M285.302 215.03V212.795L288.062 211.19H289.952V221H287.777V213.545L285.302 215.03ZM294.66 215.81C295.26 215.81 295.745 215.585 296.115 215.135C295.995 213.715 295.515 213.005 294.675 213.005C294.285 213.005 293.97 213.13 293.73 213.38C293.5 213.63 293.385 213.98 293.385 214.43C293.385 214.83 293.5 215.16 293.73 215.42C293.96 215.68 294.27 215.81 294.66 215.81ZM291.855 220.835V218.765C292.375 219.015 292.89 219.14 293.4 219.14C294.18 219.14 294.785 218.965 295.215 218.615C295.645 218.255 295.925 217.695 296.055 216.935C295.625 217.365 294.975 217.58 294.105 217.58C293.225 217.58 292.51 217.3 291.96 216.74C291.42 216.17 291.15 215.415 291.15 214.475C291.15 213.495 291.455 212.68 292.065 212.03C292.685 211.38 293.52 211.055 294.57 211.055C295.74 211.055 296.655 211.48 297.315 212.33C297.985 213.17 298.32 214.32 298.32 215.78C298.32 217.57 297.895 218.91 297.045 219.8C296.195 220.68 295.06 221.12 293.64 221.12C292.96 221.12 292.365 221.025 291.855 220.835Z" fill="#1C1B17"/>
<path d="M241.214 215.03V212.795L243.974 211.19H245.864V221H243.689V213.545L241.214 215.03ZM250.827 219.41C251.287 219.41 251.632 219.3 251.862 219.08C252.102 218.85 252.222 218.575 252.222 218.255C252.222 217.895 252.097 217.6 251.847 217.37C251.607 217.14 251.267 217.025 250.827 217.025C250.377 217.025 250.037 217.15 249.807 217.4C249.587 217.65 249.477 217.945 249.477 218.285C249.477 218.595 249.582 218.86 249.792 219.08C250.012 219.3 250.357 219.41 250.827 219.41ZM250.812 212.75C250.412 212.75 250.117 212.865 249.927 213.095C249.737 213.315 249.642 213.585 249.642 213.905C249.642 214.285 249.757 214.58 249.987 214.79C250.217 215 250.507 215.105 250.857 215.105C251.197 215.105 251.482 215 251.712 214.79C251.942 214.58 252.057 214.285 252.057 213.905C252.057 213.135 251.642 212.75 250.812 212.75ZM253.017 216.005C253.947 216.435 254.412 217.19 254.412 218.27C254.412 219.13 254.077 219.825 253.407 220.355C252.747 220.885 251.882 221.15 250.812 221.15C249.732 221.15 248.872 220.9 248.232 220.4C247.602 219.89 247.287 219.205 247.287 218.345C247.287 217.285 247.762 216.52 248.712 216.05C247.862 215.56 247.437 214.855 247.437 213.935C247.437 213.015 247.752 212.3 248.382 211.79C249.022 211.27 249.832 211.01 250.812 211.01C251.832 211.01 252.657 211.255 253.287 211.745C253.927 212.235 254.247 212.965 254.247 213.935C254.247 214.835 253.837 215.525 253.017 216.005Z" fill="#1C1B17"/>
<path d="M197.697 215.03V212.795L200.457 211.19H202.347V221H200.172V213.545L197.697 215.03ZM203.546 211.175H210.146V213.035L206.336 221H204.026L207.851 213.035H203.546V211.175Z" fill="#1C1B17"/>
<path d="M153.273 215.03V212.795L156.033 211.19H157.923V221H155.748V213.545L153.273 215.03ZM163.021 219.35C163.411 219.35 163.716 219.215 163.936 218.945C164.156 218.675 164.266 218.315 164.266 217.865C164.266 217.455 164.156 217.13 163.936 216.89C163.726 216.64 163.426 216.515 163.036 216.515C162.496 216.515 162.021 216.73 161.611 217.16C161.721 218.62 162.191 219.35 163.021 219.35ZM165.736 211.25V213.275C165.346 213.065 164.891 212.96 164.371 212.96C163.661 212.96 163.076 213.18 162.616 213.62C162.166 214.05 161.861 214.63 161.701 215.36C162.241 214.9 162.886 214.67 163.636 214.67C164.496 214.67 165.186 214.955 165.706 215.525C166.236 216.095 166.501 216.86 166.501 217.82C166.501 218.81 166.186 219.64 165.556 220.31C164.936 220.97 164.086 221.3 163.006 221.3C161.796 221.3 160.881 220.87 160.261 220.01C159.651 219.14 159.346 217.975 159.346 216.515C159.346 214.845 159.801 213.51 160.711 212.51C161.631 211.51 162.791 211.01 164.191 211.01C164.721 211.01 165.236 211.09 165.736 211.25Z" fill="#1C1B17"/>
<path d="M109.551 215.03V212.795L112.311 211.19H114.201V221H112.026V213.545L109.551 215.03ZM118.174 213.02V214.685C118.394 214.655 118.614 214.64 118.834 214.64C119.904 214.64 120.724 214.915 121.294 215.465C121.864 216.015 122.149 216.765 122.149 217.715C122.149 218.735 121.809 219.555 121.129 220.175C120.459 220.785 119.504 221.09 118.264 221.09C117.174 221.09 116.294 220.915 115.624 220.565V218.495C116.304 218.915 117.064 219.125 117.904 219.125C119.244 219.125 119.914 218.645 119.914 217.685C119.914 217.325 119.774 217.04 119.494 216.83C119.224 216.62 118.814 216.515 118.264 216.515C117.494 216.515 116.754 216.68 116.044 217.01V211.16H121.549V213.02H118.174Z" fill="#1C1B17"/>
<path d="M65.0895 215.03V212.795L67.8495 211.19H69.7395V221H67.5645V213.545L65.0895 215.03ZM73.2327 217.055H75.3927V212.615L73.2327 217.055ZM78.7677 217.055V218.915H77.5677V221H75.3927V218.915H71.0877V217.055L74.0877 211.16H77.5677V217.055H78.7677Z" fill="#1C1B17"/>
<path d="M21.6754 215.03V212.795L24.4354 211.19H26.3254V221H24.1504V213.545L21.6754 215.03ZM28.0636 213.65V211.61C28.8036 211.24 29.5486 211.055 30.2986 211.055C31.3586 211.055 32.1986 211.31 32.8186 211.82C33.4386 212.32 33.7486 212.975 33.7486 213.785C33.7486 214.895 33.2436 215.66 32.2336 216.08C33.3736 216.35 33.9436 217.09 33.9436 218.3C33.9436 219.14 33.6236 219.815 32.9836 220.325C32.3536 220.825 31.4686 221.075 30.3286 221.075C29.2586 221.075 28.3736 220.905 27.6736 220.565V218.465C28.4736 218.905 29.2986 219.125 30.1486 219.125C30.6386 219.125 31.0186 219.02 31.2886 218.81C31.5686 218.6 31.7086 218.335 31.7086 218.015C31.7086 217.285 31.0336 216.92 29.6836 216.92H29.1586V215.12H29.6836C30.2136 215.12 30.6486 215.03 30.9886 214.85C31.3286 214.67 31.4986 214.4 31.4986 214.04C31.4986 213.35 31.0486 213.005 30.1486 213.005C29.4586 213.005 28.7636 213.22 28.0636 213.65Z" fill="#1C1B17"/>
<rect x="142" y="160" width="36" height="36" fill="#1C336B"/>
<path d="M285.544 177.03V174.795L288.304 173.19H290.194V183H288.019V175.545L285.544 177.03ZM294.602 181.14H298.082V183H291.542V181.305C292.622 180.565 293.572 179.745 294.392 178.845C295.222 177.945 295.637 177.15 295.637 176.46C295.637 176.04 295.512 175.71 295.262 175.47C295.012 175.22 294.632 175.095 294.122 175.095C293.272 175.095 292.467 175.41 291.707 176.04V173.925C292.037 173.685 292.467 173.48 292.997 173.31C293.527 173.14 294.047 173.055 294.557 173.055C295.577 173.055 296.387 173.325 296.987 173.865C297.597 174.395 297.902 175.14 297.902 176.1C297.902 177.83 296.802 179.51 294.602 181.14Z" fill="#1B2E5C"/>
<path d="M242.452 177.03V174.795L245.212 173.19H247.102V183H244.927V175.545L242.452 177.03ZM248.15 177.03V174.795L250.91 173.19H252.8V183H250.625V175.545L248.15 177.03Z" fill="#1B2E5C"/>
<path d="M197.199 177.03V174.795L199.959 173.19H201.849V183H199.674V175.545L197.199 177.03ZM203.273 178.05C203.273 176.49 203.573 175.255 204.173 174.345C204.773 173.435 205.663 172.98 206.843 172.98C208.023 172.98 208.913 173.435 209.513 174.345C210.123 175.255 210.428 176.49 210.428 178.05C210.428 179.59 210.123 180.82 209.513 181.74C208.913 182.66 208.023 183.12 206.843 183.12C205.663 183.12 204.773 182.665 204.173 181.755C203.573 180.835 203.273 179.6 203.273 178.05ZM206.843 174.93C205.953 174.93 205.508 175.97 205.508 178.05C205.508 180.13 205.953 181.17 206.843 181.17C207.743 181.17 208.193 180.13 208.193 178.05C208.193 175.97 207.743 174.93 206.843 174.93Z" fill="#1B2E5C"/>
<path d="M159.811 177.81C160.411 177.81 160.896 177.585 161.266 177.135C161.146 175.715 160.666 175.005 159.826 175.005C159.436 175.005 159.121 175.13 158.881 175.38C158.651 175.63 158.536 175.98 158.536 176.43C158.536 176.83 158.651 177.16 158.881 177.42C159.111 177.68 159.421 177.81 159.811 177.81ZM157.006 182.835V180.765C157.526 181.015 158.041 181.14 158.551 181.14C159.331 181.14 159.936 180.965 160.366 180.615C160.796 180.255 161.076 179.695 161.206 178.935C160.776 179.365 160.126 179.58 159.256 179.58C158.376 179.58 157.661 179.3 157.111 178.74C156.571 178.17 156.301 177.415 156.301 176.475C156.301 175.495 156.606 174.68 157.216 174.03C157.836 173.38 158.671 173.055 159.721 173.055C160.891 173.055 161.806 173.48 162.466 174.33C163.136 175.17 163.471 176.32 163.471 177.78C163.471 179.57 163.046 180.91 162.196 181.8C161.346 182.68 160.211 183.12 158.791 183.12C158.111 183.12 157.516 183.025 157.006 182.835Z" fill="white"/>
<path d="M115.978 181.41C116.438 181.41 116.783 181.3 117.013 181.08C117.253 180.85 117.373 180.575 117.373 180.255C117.373 179.895 117.248 179.6 116.998 179.37C116.758 179.14 116.418 179.025 115.978 179.025C115.528 179.025 115.188 179.15 114.958 179.4C114.738 179.65 114.628 179.945 114.628 180.285C114.628 180.595 114.733 180.86 114.943 181.08C115.163 181.3 115.508 181.41 115.978 181.41ZM115.963 174.75C115.563 174.75 115.268 174.865 115.078 175.095C114.888 175.315 114.793 175.585 114.793 175.905C114.793 176.285 114.908 176.58 115.138 176.79C115.368 177 115.658 177.105 116.008 177.105C116.348 177.105 116.633 177 116.863 176.79C117.093 176.58 117.208 176.285 117.208 175.905C117.208 175.135 116.793 174.75 115.963 174.75ZM118.168 178.005C119.098 178.435 119.563 179.19 119.563 180.27C119.563 181.13 119.228 181.825 118.558 182.355C117.898 182.885 117.033 183.15 115.963 183.15C114.883 183.15 114.023 182.9 113.383 182.4C112.753 181.89 112.438 181.205 112.438 180.345C112.438 179.285 112.913 178.52 113.863 178.05C113.013 177.56 112.588 176.855 112.588 175.935C112.588 175.015 112.903 174.3 113.533 173.79C114.173 173.27 114.983 173.01 115.963 173.01C116.983 173.01 117.808 173.255 118.438 173.745C119.078 174.235 119.398 174.965 119.398 175.935C119.398 176.835 118.988 177.525 118.168 178.005Z" fill="#1C336B"/>
<path d="M68.6965 173.175H75.2965V175.035L71.4865 183H69.1765L73.0015 175.035H68.6965V173.175Z" fill="#1B2E5C"/>
<path d="M28.1717 181.35C28.5617 181.35 28.8667 181.215 29.0867 180.945C29.3067 180.675 29.4167 180.315 29.4167 179.865C29.4167 179.455 29.3067 179.13 29.0867 178.89C28.8767 178.64 28.5767 178.515 28.1867 178.515C27.6467 178.515 27.1717 178.73 26.7617 179.16C26.8717 180.62 27.3417 181.35 28.1717 181.35ZM30.8867 173.25V175.275C30.4967 175.065 30.0417 174.96 29.5217 174.96C28.8117 174.96 28.2267 175.18 27.7667 175.62C27.3167 176.05 27.0117 176.63 26.8517 177.36C27.3917 176.9 28.0367 176.67 28.7867 176.67C29.6467 176.67 30.3367 176.955 30.8567 177.525C31.3867 178.095 31.6517 178.86 31.6517 179.82C31.6517 180.81 31.3367 181.64 30.7067 182.31C30.0867 182.97 29.2367 183.3 28.1567 183.3C26.9467 183.3 26.0317 182.87 25.4117 182.01C24.8017 181.14 24.4967 179.975 24.4967 178.515C24.4967 176.845 24.9517 175.51 25.8617 174.51C26.7817 173.51 27.9417 173.01 29.3417 173.01C29.8717 173.01 30.3867 173.09 30.8867 173.25Z" fill="#1B2E5C"/>
<path d="M291.325 138.02V139.685C291.545 139.655 291.765 139.64 291.985 139.64C293.055 139.64 293.875 139.915 294.445 140.465C295.015 141.015 295.3 141.765 295.3 142.715C295.3 143.735 294.96 144.555 294.28 145.175C293.61 145.785 292.655 146.09 291.415 146.09C290.325 146.09 289.445 145.915 288.775 145.565V143.495C289.455 143.915 290.215 144.125 291.055 144.125C292.395 144.125 293.065 143.645 293.065 142.685C293.065 142.325 292.925 142.04 292.645 141.83C292.375 141.62 291.965 141.515 291.415 141.515C290.645 141.515 289.905 141.68 289.195 142.01V136.16H294.7V138.02H291.325Z" fill="#1C1B17"/>
<path d="M246.384 142.055H248.544V137.615L246.384 142.055ZM251.919 142.055V143.915H250.719V146H248.544V143.915H244.239V142.055L247.239 136.16H250.719V142.055H251.919Z" fill="#1C1B17"/>
<path d="M201.215 138.65V136.61C201.955 136.24 202.7 136.055 203.45 136.055C204.51 136.055 205.35 136.31 205.97 136.82C206.59 137.32 206.9 137.975 206.9 138.785C206.9 139.895 206.395 140.66 205.385 141.08C206.525 141.35 207.095 142.09 207.095 143.3C207.095 144.14 206.775 144.815 206.135 145.325C205.505 145.825 204.62 146.075 203.48 146.075C202.41 146.075 201.525 145.905 200.825 145.565V143.465C201.625 143.905 202.45 144.125 203.3 144.125C203.79 144.125 204.17 144.02 204.44 143.81C204.72 143.6 204.86 143.335 204.86 143.015C204.86 142.285 204.185 141.92 202.835 141.92H202.31V140.12H202.835C203.365 140.12 203.8 140.03 204.14 139.85C204.48 139.67 204.65 139.4 204.65 139.04C204.65 138.35 204.2 138.005 203.3 138.005C202.61 138.005 201.915 138.22 201.215 138.65Z" fill="#1C1B17"/>
<path d="M159.753 144.14H163.233V146H156.693V144.305C157.773 143.565 158.723 142.745 159.543 141.845C160.373 140.945 160.788 140.15 160.788 139.46C160.788 139.04 160.663 138.71 160.413 138.47C160.163 138.22 159.783 138.095 159.273 138.095C158.423 138.095 157.618 138.41 156.858 139.04V136.925C157.188 136.685 157.618 136.48 158.148 136.31C158.678 136.14 159.198 136.055 159.708 136.055C160.728 136.055 161.538 136.325 162.138 136.865C162.748 137.395 163.053 138.14 163.053 139.1C163.053 140.83 161.953 142.51 159.753 144.14Z" fill="#1C1B17"/>
<path d="M113.301 140.03V137.795L116.061 136.19H117.951V146H115.776V138.545L113.301 140.03Z" fill="#1C1B17"/>
<path d="M65.2968 137.795V136.64C65.8768 136.27 66.5468 136.085 67.3068 136.085C68.2768 136.085 69.0268 136.335 69.5568 136.835C70.0968 137.325 70.3668 137.935 70.3668 138.665C70.3668 139.195 70.2318 139.67 69.9618 140.09C69.7018 140.51 69.3118 140.825 68.7918 141.035C69.3618 141.165 69.8118 141.43 70.1418 141.83C70.4818 142.22 70.6518 142.71 70.6518 143.3C70.6518 144.1 70.3718 144.765 69.8118 145.295C69.2518 145.825 68.4618 146.09 67.4418 146.09C66.5018 146.09 65.6868 145.925 64.9968 145.595V144.41C65.7368 144.8 66.5418 144.995 67.4118 144.995C68.0518 144.995 68.5468 144.83 68.8968 144.5C69.2568 144.17 69.4368 143.74 69.4368 143.21C69.4368 142.68 69.2368 142.275 68.8368 141.995C68.4468 141.705 67.8818 141.56 67.1418 141.56H66.5118V140.525H67.1418C67.7018 140.525 68.1718 140.37 68.5518 140.06C68.9418 139.74 69.1368 139.315 69.1368 138.785C69.1368 138.255 68.9718 137.855 68.6418 137.585C68.3118 137.315 67.8568 137.18 67.2768 137.18C66.5868 137.18 65.9268 137.385 65.2968 137.795ZM72.0591 141.065C72.0591 139.525 72.3691 138.31 72.9891 137.42C73.6191 136.52 74.4441 136.07 75.4641 136.07C76.5241 136.07 77.3641 136.52 77.9841 137.42C78.6141 138.31 78.9291 139.525 78.9291 141.065C78.9291 142.595 78.6291 143.82 78.0291 144.74C77.4291 145.66 76.5741 146.12 75.4641 146.12C74.4341 146.12 73.6091 145.66 72.9891 144.74C72.3691 143.82 72.0591 142.595 72.0591 141.065ZM73.9191 138.215C73.4891 138.885 73.2741 139.835 73.2741 141.065C73.2741 142.295 73.4841 143.26 73.9041 143.96C74.3241 144.65 74.8441 144.995 75.4641 144.995C76.1541 144.995 76.6991 144.655 77.0991 143.975C77.5091 143.295 77.7141 142.325 77.7141 141.065C77.7141 139.815 77.4991 138.86 77.0691 138.2C76.6491 137.53 76.1141 137.195 75.4641 137.195C74.8641 137.195 74.3491 137.535 73.9191 138.215Z" fill="#A9ADB5"/>
<path d="M22.7196 144.965H27.2796V146H21.0846V144.995C24.1846 142.655 25.7346 140.705 25.7346 139.145C25.7346 138.525 25.5546 138.05 25.1946 137.72C24.8346 137.38 24.3496 137.21 23.7396 137.21C22.9496 137.21 22.1696 137.505 21.3996 138.095V136.91C22.1096 136.36 22.9246 136.085 23.8446 136.085C24.7246 136.085 25.4646 136.34 26.0646 136.85C26.6646 137.36 26.9646 138.085 26.9646 139.025C26.9646 140.795 25.5496 142.775 22.7196 144.965ZM33.6868 140.48V140.405C33.6868 139.455 33.5168 138.68 33.1768 138.08C32.8468 137.47 32.3118 137.165 31.5718 137.165C31.0018 137.165 30.5468 137.355 30.2068 137.735C29.8668 138.115 29.6968 138.635 29.6968 139.295C29.6968 139.985 29.8768 140.515 30.2368 140.885C30.5968 141.255 31.0868 141.44 31.7068 141.44C32.5268 141.44 33.1868 141.12 33.6868 140.48ZM28.8868 145.835V144.665C29.4068 144.895 29.9568 145.01 30.5368 145.01C32.3468 145.01 33.3768 143.875 33.6268 141.605C33.1268 142.195 32.3868 142.49 31.4068 142.49C30.6068 142.49 29.9168 142.2 29.3368 141.62C28.7568 141.03 28.4668 140.255 28.4668 139.295C28.4668 138.365 28.7418 137.595 29.2918 136.985C29.8418 136.375 30.5918 136.07 31.5418 136.07C32.6418 136.07 33.4668 136.48 34.0168 137.3C34.5768 138.12 34.8568 139.155 34.8568 140.405C34.8568 142.185 34.4968 143.585 33.7768 144.605C33.0668 145.615 32.0018 146.12 30.5818 146.12C30.0018 146.12 29.4368 146.025 28.8868 145.835Z" fill="#A9ADB5"/>
<rect y="111" width="320" height="1" fill="#F0F0F0"/>
<path d="M288.057 85.265V86.54C287.447 86.14 286.717 85.94 285.867 85.94C285.257 85.94 284.772 86.085 284.412 86.375C284.052 86.655 283.872 87.025 283.872 87.485C283.872 87.725 283.917 87.94 284.007 88.13C284.107 88.32 284.277 88.5 284.517 88.67C284.757 88.83 284.962 88.955 285.132 89.045C285.302 89.125 285.567 89.245 285.927 89.405C286.267 89.555 286.527 89.675 286.707 89.765C286.887 89.845 287.117 89.98 287.397 90.17C287.687 90.35 287.902 90.53 288.042 90.71C288.192 90.88 288.322 91.11 288.432 91.4C288.552 91.68 288.612 91.985 288.612 92.315C288.612 93.205 288.307 93.895 287.697 94.385C287.087 94.865 286.302 95.105 285.342 95.105C284.282 95.105 283.382 94.89 282.642 94.46V93.155C283.372 93.705 284.262 93.98 285.312 93.98C285.942 93.98 286.437 93.84 286.797 93.56C287.157 93.28 287.337 92.875 287.337 92.345C287.337 92.125 287.292 91.93 287.202 91.76C287.122 91.58 286.982 91.42 286.782 91.28C286.592 91.13 286.407 91.01 286.227 90.92C286.057 90.82 285.822 90.7 285.522 90.56C285.462 90.53 285.372 90.49 285.252 90.44C284.822 90.25 284.492 90.095 284.262 89.975C284.042 89.855 283.777 89.68 283.467 89.45C283.167 89.21 282.947 88.935 282.807 88.625C282.667 88.315 282.597 87.955 282.597 87.545C282.597 86.685 282.902 86.015 283.512 85.535C284.132 85.045 284.907 84.8 285.837 84.8C286.707 84.8 287.447 84.955 288.057 85.265ZM294.663 91.49H293.343C292.703 91.49 292.223 91.615 291.903 91.865C291.583 92.115 291.423 92.43 291.423 92.81C291.423 93.19 291.548 93.5 291.798 93.74C292.048 93.97 292.413 94.085 292.893 94.085C293.433 94.085 293.863 93.935 294.183 93.635C294.503 93.325 294.663 92.935 294.663 92.465V91.49ZM290.733 88.985V87.8C291.303 87.45 292.053 87.275 292.983 87.275C294.893 87.275 295.848 88.245 295.848 90.185V95H294.678V94.1C294.288 94.75 293.578 95.075 292.548 95.075C291.838 95.075 291.263 94.865 290.823 94.445C290.393 94.025 290.178 93.495 290.178 92.855C290.178 92.125 290.453 91.56 291.003 91.16C291.563 90.75 292.323 90.545 293.283 90.545H294.663V90.155C294.663 89.555 294.528 89.105 294.258 88.805C293.988 88.495 293.533 88.34 292.893 88.34C292.083 88.34 291.363 88.555 290.733 88.985ZM299.586 88.355V92.81C299.586 93.62 299.966 94.025 300.726 94.025C301.116 94.025 301.461 93.91 301.761 93.68V94.805C301.431 94.985 301.061 95.075 300.651 95.075C299.151 95.075 298.401 94.31 298.401 92.78V88.355H297.186V87.395H298.401V85.505H299.586V87.395H301.686V88.355H299.586Z" fill="#656B74"/>
<path d="M246.839 85.955H242.504V89.54H246.314V90.605H242.504V95H241.289V84.89H246.839V85.955ZM249.738 87.395V88.73C250.138 87.79 250.828 87.32 251.808 87.32C251.988 87.32 252.128 87.33 252.228 87.35V88.52C252.018 88.45 251.803 88.415 251.583 88.415C251.053 88.415 250.613 88.66 250.263 89.15C249.913 89.64 249.738 90.205 249.738 90.845V95H248.553L248.568 87.395H249.738ZM253.52 95V87.395H254.705V95H253.52ZM253.55 85.565C253.41 85.415 253.34 85.23 253.34 85.01C253.34 84.79 253.41 84.605 253.55 84.455C253.7 84.305 253.885 84.23 254.105 84.23C254.325 84.23 254.51 84.305 254.66 84.455C254.81 84.605 254.885 84.79 254.885 85.01C254.885 85.23 254.81 85.415 254.66 85.565C254.51 85.705 254.325 85.775 254.105 85.775C253.885 85.775 253.7 85.705 253.55 85.565Z" fill="#656B74"/>
<path d="M199.226 84.89V85.955H196.496V95H195.281V85.955H192.551V84.89H199.226ZM201.783 84.395V88.715C202.233 87.765 203.033 87.29 204.183 87.29C204.913 87.29 205.498 87.515 205.938 87.965C206.388 88.415 206.613 89.025 206.613 89.795V95H205.428V90.08C205.428 89.53 205.283 89.105 204.993 88.805C204.713 88.505 204.343 88.355 203.883 88.355C203.323 88.355 202.833 88.57 202.413 89C201.993 89.43 201.783 90.045 201.783 90.845V95H200.613V84.395H201.783ZM213.438 87.395H214.623V95H213.438V93.68C213.038 94.62 212.243 95.09 211.053 95.09C210.303 95.09 209.708 94.87 209.268 94.43C208.838 93.98 208.623 93.38 208.623 92.63V87.395H209.808V92.33C209.808 92.88 209.948 93.3 210.228 93.59C210.508 93.88 210.888 94.025 211.368 94.025C211.998 94.025 212.498 93.805 212.868 93.365C213.248 92.925 213.438 92.33 213.438 91.58V87.395Z" fill="#656B74"/>
<path d="M151.268 85.04H152.483L153.593 88.64L155.123 93.77C155.583 91.56 155.953 89.855 156.233 88.655L157.088 84.89H158.318L155.948 95H154.388L153.413 91.805L151.898 86.75C151.588 87.93 151.108 89.615 150.458 91.805L149.513 95H147.968L145.328 84.89H146.603L147.548 88.64L148.793 93.725C149.353 91.675 149.828 89.98 150.218 88.64L151.268 85.04ZM164.805 90.71V90.41C164.805 89.78 164.635 89.28 164.295 88.91C163.955 88.53 163.485 88.34 162.885 88.34C162.315 88.34 161.83 88.545 161.43 88.955C161.03 89.365 160.795 89.95 160.725 90.71H164.805ZM165.51 93.5V94.61C164.92 94.92 164.2 95.075 163.35 95.075C162.2 95.075 161.27 94.725 160.56 94.025C159.86 93.315 159.51 92.38 159.51 91.22C159.51 90.01 159.825 89.055 160.455 88.355C161.085 87.655 161.895 87.305 162.885 87.305C163.835 87.305 164.59 87.61 165.15 88.22C165.71 88.83 165.99 89.695 165.99 90.815C165.99 91.135 165.965 91.43 165.915 91.7H160.725C160.815 92.45 161.1 93.025 161.58 93.425C162.06 93.825 162.69 94.025 163.47 94.025C164.32 94.025 165 93.85 165.51 93.5ZM170.692 94.04C171.312 94.04 171.837 93.81 172.267 93.35C172.707 92.89 172.927 92.155 172.927 91.145C172.927 90.185 172.702 89.48 172.252 89.03C171.802 88.58 171.307 88.355 170.767 88.355C170.137 88.355 169.612 88.61 169.192 89.12C168.782 89.62 168.577 90.34 168.577 91.28C168.577 92.1 168.777 92.765 169.177 93.275C169.577 93.785 170.082 94.04 170.692 94.04ZM172.927 84.395H174.112V95H172.927V93.875C172.387 94.705 171.607 95.12 170.587 95.12C169.577 95.12 168.782 94.745 168.202 93.995C167.632 93.245 167.347 92.335 167.347 91.265C167.347 90.075 167.652 89.115 168.262 88.385C168.872 87.645 169.657 87.275 170.617 87.275C171.607 87.275 172.377 87.7 172.927 88.55V84.395Z" fill="#656B74"/>
<path d="M111.358 84.89V85.955H108.628V95H107.413V85.955H104.683V84.89H111.358ZM117.469 87.395H118.654V95H117.469V93.68C117.069 94.62 116.274 95.09 115.084 95.09C114.334 95.09 113.739 94.87 113.299 94.43C112.869 93.98 112.654 93.38 112.654 92.63V87.395H113.839V92.33C113.839 92.88 113.979 93.3 114.259 93.59C114.539 93.88 114.919 94.025 115.399 94.025C116.029 94.025 116.529 93.805 116.899 93.365C117.279 92.925 117.469 92.33 117.469 91.58V87.395ZM125.69 90.71V90.41C125.69 89.78 125.52 89.28 125.18 88.91C124.84 88.53 124.37 88.34 123.77 88.34C123.2 88.34 122.715 88.545 122.315 88.955C121.915 89.365 121.68 89.95 121.61 90.71H125.69ZM126.395 93.5V94.61C125.805 94.92 125.085 95.075 124.235 95.075C123.085 95.075 122.155 94.725 121.445 94.025C120.745 93.315 120.395 92.38 120.395 91.22C120.395 90.01 120.71 89.055 121.34 88.355C121.97 87.655 122.78 87.305 123.77 87.305C124.72 87.305 125.475 87.61 126.035 88.22C126.595 88.83 126.875 89.695 126.875 90.815C126.875 91.135 126.85 91.43 126.8 91.7H121.61C121.7 92.45 121.985 93.025 122.465 93.425C122.945 93.825 123.575 94.025 124.355 94.025C125.205 94.025 125.885 93.85 126.395 93.5Z" fill="#656B74"/>
<path d="M58.3576 95L59.0926 84.89H60.6376L61.9726 88.58L63.5926 93.29C64.1726 91.65 64.7426 90.08 65.3026 88.58L66.6976 84.89H68.2426L69.1276 95H67.9126L67.5676 91.01L67.2076 86.525C66.6776 88.005 66.1326 89.5 65.5726 91.01L64.1626 94.775H63.0076L61.6726 91.01L60.1426 86.615C60.1426 87.005 60.0476 88.47 59.8576 91.01L59.5726 95H58.3576ZM74.3539 95.135C73.2639 95.135 72.3989 94.77 71.7589 94.04C71.1289 93.3 70.8139 92.37 70.8139 91.25C70.8139 90.12 71.1389 89.18 71.7889 88.43C72.4489 87.67 73.3039 87.29 74.3539 87.29C75.5039 87.29 76.3889 87.66 77.0089 88.4C77.6389 89.14 77.9539 90.08 77.9539 91.22C77.9539 92.35 77.6339 93.285 76.9939 94.025C76.3539 94.765 75.4739 95.135 74.3539 95.135ZM74.3539 88.34C73.6339 88.34 73.0689 88.62 72.6589 89.18C72.2489 89.74 72.0439 90.425 72.0439 91.235C72.0439 92.025 72.2539 92.7 72.6739 93.26C73.0939 93.81 73.6539 94.085 74.3539 94.085C75.1139 94.085 75.6989 93.815 76.1089 93.275C76.5189 92.725 76.7239 92.045 76.7239 91.235C76.7239 90.395 76.5289 89.705 76.1389 89.165C75.7489 88.615 75.1539 88.34 74.3539 88.34ZM80.8568 87.395V88.715C81.3068 87.765 82.1068 87.29 83.2568 87.29C83.9968 87.29 84.5868 87.515 85.0268 87.965C85.4668 88.415 85.6868 89.015 85.6868 89.765V95H84.5018V90.08C84.5018 89.52 84.3568 89.095 84.0668 88.805C83.7868 88.505 83.4168 88.355 82.9568 88.355C82.3868 88.355 81.8918 88.575 81.4718 89.015C81.0618 89.455 80.8568 90.065 80.8568 90.845V95H79.6868V87.395H80.8568Z" fill="#656B74"/>
<path d="M22.4163 85.265V86.54C21.8063 86.14 21.0763 85.94 20.2263 85.94C19.6163 85.94 19.1313 86.085 18.7713 86.375C18.4113 86.655 18.2313 87.025 18.2313 87.485C18.2313 87.725 18.2763 87.94 18.3663 88.13C18.4663 88.32 18.6363 88.5 18.8763 88.67C19.1163 88.83 19.3213 88.955 19.4913 89.045C19.6613 89.125 19.9263 89.245 20.2863 89.405C20.6263 89.555 20.8863 89.675 21.0663 89.765C21.2463 89.845 21.4763 89.98 21.7563 90.17C22.0463 90.35 22.2613 90.53 22.4013 90.71C22.5513 90.88 22.6813 91.11 22.7913 91.4C22.9113 91.68 22.9713 91.985 22.9713 92.315C22.9713 93.205 22.6663 93.895 22.0563 94.385C21.4463 94.865 20.6613 95.105 19.7013 95.105C18.6413 95.105 17.7413 94.89 17.0013 94.46V93.155C17.7313 93.705 18.6213 93.98 19.6713 93.98C20.3013 93.98 20.7963 93.84 21.1563 93.56C21.5163 93.28 21.6963 92.875 21.6963 92.345C21.6963 92.125 21.6513 91.93 21.5613 91.76C21.4813 91.58 21.3413 91.42 21.1413 91.28C20.9513 91.13 20.7663 91.01 20.5863 90.92C20.4163 90.82 20.1813 90.7 19.8813 90.56C19.8213 90.53 19.7313 90.49 19.6113 90.44C19.1813 90.25 18.8513 90.095 18.6213 89.975C18.4013 89.855 18.1363 89.68 17.8263 89.45C17.5263 89.21 17.3063 88.935 17.1663 88.625C17.0263 88.315 16.9563 87.955 16.9563 87.545C16.9563 86.685 17.2613 86.015 17.8713 85.535C18.4913 85.045 19.2663 84.8 20.1963 84.8C21.0663 84.8 21.8063 84.955 22.4163 85.265ZM29.6525 87.395H30.8375V95H29.6525V93.68C29.2525 94.62 28.4575 95.09 27.2675 95.09C26.5175 95.09 25.9225 94.87 25.4825 94.43C25.0525 93.98 24.8375 93.38 24.8375 92.63V87.395H26.0225V92.33C26.0225 92.88 26.1625 93.3 26.4425 93.59C26.7225 93.88 27.1025 94.025 27.5825 94.025C28.2125 94.025 28.7125 93.805 29.0825 93.365C29.4625 92.925 29.6525 92.33 29.6525 91.58V87.395ZM34.1981 87.395V88.715C34.6481 87.765 35.4481 87.29 36.5981 87.29C37.3381 87.29 37.9281 87.515 38.3681 87.965C38.8081 88.415 39.0281 89.015 39.0281 89.765V95H37.8431V90.08C37.8431 89.52 37.6981 89.095 37.4081 88.805C37.1281 88.505 36.7581 88.355 36.2981 88.355C35.7281 88.355 35.2331 88.575 34.8131 89.015C34.4031 89.455 34.1981 90.065 34.1981 90.845V95H33.0281V87.395H34.1981Z" fill="#656B74"/>
<path d="M296 60.05L302.875 53.175L296 46.3" stroke="black" stroke-width="1.5"/>
<path d="M24 45.95L17.125 52.825L24 59.7" stroke="black" stroke-width="1.5"/>
<path d="M119.247 61L120.639 44.824H124.695L126.951 50.68C127.335 51.656 127.663 52.552 127.935 53.368C128.207 54.184 128.383 54.76 128.463 55.096L128.583 55.576C128.839 54.52 129.399 52.888 130.263 50.68L132.543 44.824H136.599L138.279 61H134.583L133.983 54.736L133.671 50.008C133.255 51.208 132.679 52.784 131.943 54.736L129.663 60.832H127.479L125.223 54.736C124.855 53.744 124.543 52.856 124.287 52.072C124.031 51.288 123.863 50.744 123.783 50.44L123.663 50.008C123.663 51.144 123.591 52.72 123.447 54.736L122.943 61H119.247ZM145.757 54.712H149.645L149.477 54.136C149.013 52.568 148.629 51.232 148.325 50.128C148.037 49.024 147.861 48.312 147.797 47.992L147.701 47.512C147.573 48.392 146.981 50.6 145.925 54.136L145.757 54.712ZM151.517 61L150.533 57.688H144.869L143.885 61H140.021L145.421 44.824H150.077L155.477 61H151.517ZM161.295 47.824V52.384H163.047C164.647 52.384 165.447 51.6 165.447 50.032C165.447 49.344 165.239 48.808 164.823 48.424C164.407 48.024 163.839 47.824 163.119 47.824H161.295ZM165.927 61L162.423 55.384H161.295V61H157.599V44.824H163.191C164.999 44.824 166.447 45.304 167.535 46.264C168.639 47.224 169.191 48.472 169.191 50.008C169.191 52.312 168.207 53.904 166.239 54.784L170.343 61H165.927ZM184.293 45.52V49.072C183.093 48.336 181.757 47.968 180.285 47.968C178.989 47.968 177.901 48.424 177.021 49.336C176.141 50.232 175.701 51.44 175.701 52.96C175.701 54.448 176.141 55.632 177.021 56.512C177.901 57.376 179.037 57.808 180.429 57.808C181.933 57.808 183.221 57.424 184.293 56.656V60.28C183.317 60.888 181.909 61.192 180.069 61.192C177.701 61.192 175.717 60.432 174.117 58.912C172.533 57.376 171.741 55.392 171.741 52.96C171.741 50.496 172.509 48.488 174.045 46.936C175.597 45.384 177.613 44.608 180.093 44.608C181.917 44.608 183.317 44.912 184.293 45.52ZM196.684 44.824H200.404V61H196.684V54.544H190.756V61H187.06V44.824H190.756V51.4H196.684V44.824Z" fill="black"/>
<path d="M148.803 25.14H152.283V27H145.743V25.305C146.823 24.565 147.773 23.745 148.593 22.845C149.423 21.945 149.838 21.15 149.838 20.46C149.838 20.04 149.713 19.71 149.463 19.47C149.213 19.22 148.833 19.095 148.323 19.095C147.473 19.095 146.668 19.41 145.908 20.04V17.925C146.238 17.685 146.668 17.48 147.198 17.31C147.728 17.14 148.248 17.055 148.758 17.055C149.778 17.055 150.588 17.325 151.188 17.865C151.798 18.395 152.103 19.14 152.103 20.1C152.103 21.83 151.003 23.51 148.803 25.14ZM153.333 22.05C153.333 20.49 153.633 19.255 154.233 18.345C154.833 17.435 155.723 16.98 156.903 16.98C158.083 16.98 158.973 17.435 159.573 18.345C160.183 19.255 160.488 20.49 160.488 22.05C160.488 23.59 160.183 24.82 159.573 25.74C158.973 26.66 158.083 27.12 156.903 27.12C155.723 27.12 154.833 26.665 154.233 25.755C153.633 24.835 153.333 23.6 153.333 22.05ZM156.903 18.93C156.013 18.93 155.568 19.97 155.568 22.05C155.568 24.13 156.013 25.17 156.903 25.17C157.803 25.17 158.253 24.13 158.253 22.05C158.253 19.97 157.803 18.93 156.903 18.93ZM161.161 21.03V18.795L163.921 17.19H165.811V27H163.636V19.545L161.161 21.03ZM170.519 21.81C171.119 21.81 171.604 21.585 171.974 21.135C171.854 19.715 171.374 19.005 170.534 19.005C170.144 19.005 169.829 19.13 169.589 19.38C169.359 19.63 169.244 19.98 169.244 20.43C169.244 20.83 169.359 21.16 169.589 21.42C169.819 21.68 170.129 21.81 170.519 21.81ZM167.714 26.835V24.765C168.234 25.015 168.749 25.14 169.259 25.14C170.039 25.14 170.644 24.965 171.074 24.615C171.504 24.255 171.784 23.695 171.914 22.935C171.484 23.365 170.834 23.58 169.964 23.58C169.084 23.58 168.369 23.3 167.819 22.74C167.279 22.17 167.009 21.415 167.009 20.475C167.009 19.495 167.314 18.68 167.924 18.03C168.544 17.38 169.379 17.055 170.429 17.055C171.599 17.055 172.514 17.48 173.174 18.33C173.844 19.17 174.179 20.32 174.179 21.78C174.179 23.57 173.754 24.91 172.904 25.8C172.054 26.68 170.919 27.12 169.499 27.12C168.819 27.12 168.224 27.025 167.714 26.835Z" fill="black"/>
</svg>
