<?xml version="1.0" encoding="utf-8"?>
<!-- Generator: Adobe Illustrator 23.0.1, SVG Export Plug-In . SVG Version: 6.00 Build 0)  -->
<svg version="1.1" id="Слой_1" xmlns="http://www.w3.org/2000/svg" xmlns:xlink="http://www.w3.org/1999/xlink" x="0px" y="0px"
	 viewBox="0 0 392.4 72.9" style="enable-background:new 0 0 392.4 72.9;" xml:space="preserve">
<style type="text/css">
	.st0{fill:url(#SVGID_1_);}
	.st1{fill:url(#SVGID_2_);}
</style>
<linearGradient id="SVGID_1_" gradientUnits="userSpaceOnUse" x1="196.8204" y1="74.9141" x2="196.8204" y2="-2.0859" gradientTransform="matrix(1 0 0 -1 0 57.8282)">
	<stop  offset="0" style="stop-color:#FFD600"/>
	<stop  offset="1" style="stop-color:#FFA800"/>
</linearGradient>
<path class="st0" d="M27.2,58c1.1,0.8,2,1.7,2.5,2.7c0.6,1,0.8,2,0.8,3.1c0,1.8-0.7,3.5-2.1,5c-1.7,1.9-4.3,2.9-7.7,3
	c-1.9,0.1-4.5,0.1-8,0.1H1.3l0-1.1l0-4.5l0.1-9l-0.1-9.8l0-7.6h12.6c3.1,0,5.3,0.1,6.5,0.2c1.2,0.1,2.4,0.3,3.7,0.7
	c1.3,0.4,2.6,1,3.7,1.9c1.2,0.8,2.1,1.7,2.7,2.7c1,1.5,1.5,3.2,1.5,5.1c0,1.7-0.4,3.2-1.2,4.6C29.8,56.4,28.7,57.4,27.2,58z
	 M25.4,58.6c-0.7,0.1-1.3,0.2-1.9,0.2c-1.2,0-2.2-0.2-3-0.6c-0.8-0.4-1.1-0.9-1.1-1.6c0-0.4,0.1-0.5,0.4-0.5c0.2,0,0.4,0.1,0.8,0.2
	c1.1,0.5,2.2,0.8,3.5,0.8c2.3,0,4-0.9,5.2-2.7c0.8-1.1,1.1-2.4,1.1-3.9c0-2.2-0.9-4.1-2.6-5.7c-1.2-1.2-2.7-2-4.4-2.5
	c-1.7-0.5-3.8-0.8-6.4-0.8h-1.3l-0.1,14.1l0.1,14.8l2.1,0c2.3,0,4.1-0.1,5.4-0.4c1.3-0.3,2.4-0.7,3.2-1.3c1.8-1.3,2.7-3,2.7-5
	c0-1-0.3-1.9-0.9-2.8C27.5,60.1,26.6,59.3,25.4,58.6z M50,39.9v1.6l-0.1,12.8L50,71.9H35.7l0.2-19.1l-0.2-11.7l0-1.1H50z M69.9,39.9
	l-0.1,4.9l-0.1,7.8l0,5.7l0.1,12.1l1.7,0l10-0.1l1.8,0c0.9,0,1.4,0.3,1.4,0.8c0,0.5-0.2,0.8-0.8,0.8c-0.1,0-0.5,0-1.1,0H55.4
	l0.1-8.9l0-5.5l0-6.2l-0.1-9.4l0-2H69.9z M102,39.9l-0.1,4.9l-0.1,7.8l0,5.7l0.1,12.1l1.7,0l10-0.1l1.8,0c0.9,0,1.4,0.3,1.4,0.8
	c0,0.5-0.2,0.8-0.8,0.8c-0.1,0-0.5,0-1.1,0H87.6l0.1-8.9l0-5.5l0-6.2l-0.1-9.4l0-2H102z M134.1,39.9v1.6L134,54.4l0.1,17.5h-14.3
	l0.2-19.1l-0.2-11.7l0-1.1H134.1z M156.2,38l18.8,33.9h-16.2l-2.2-4.3h-7.9l-6.9,0l-1.2,0l-1.5,2.9c-0.5,0.9-0.8,1.4-1,1.6
	c-0.2,0.2-0.4,0.3-0.7,0.3c-0.5,0-0.8-0.2-0.8-0.7c0-0.2,0.1-0.6,0.4-1.1c0.3-0.6,1.4-2.4,3.2-5.5l14.2-23.9L156.2,38z M148.9,53.4
	l-4.1,6.9l-3.3,5.7l7,0.1l7.1-0.1L148.9,53.4z M196.6,66.6c1.5,1,3.1,1.9,4.9,2.6c1.8,0.7,3.6,1.3,5.6,1.7c0.5,0.1,0.7,0.3,0.7,0.7
	c0,0.5-0.4,0.8-1.1,0.8c-1.6,0-3.9-0.7-6.9-2.2c-2.5-1.2-5.3-3.1-8.5-5.6v1l0,4v2.3H177v-1.1l0-7.6l0.1-9.1l0-14.2h9.4
	c4.2,0,7.4,0.1,9.6,0.4c2.2,0.2,4,0.7,5.5,1.3c2.5,1,4.4,2.7,5.9,5.1c1.3,2.2,2,4.5,2,6.9c0,2.6-0.7,5-2.2,7.2
	C204.8,64.4,201.3,66.4,196.6,66.6z M194.3,65.2l1.1,0c3.2,0,5.9-0.9,8.2-2.7c1.4-1.1,2.5-2.5,3.2-4.2c0.7-1.5,1.1-3.1,1.1-4.7
	c0-2.7-0.9-5.2-2.7-7.3c-1.4-1.7-3.1-2.9-5.1-3.5s-4.9-1.1-8.6-1.1l-0.2,15.7v4.2l0,1.1C192.2,63.5,193.3,64.4,194.3,65.2z
	 M213.8,39.9h12.3c3.2,0,5.6,0.2,7.3,0.5c4,0.8,7.3,2.9,9.7,6.4c1.9,2.8,2.9,5.8,2.9,9.1c0,3.4-1,6.5-3,9.3
	c-2.4,3.4-5.5,5.4-9.4,6.3c-1,0.2-1.9,0.3-2.7,0.4c-0.8,0-2.5,0.1-5.2,0.1h-11.9l0.1-15.5L213.8,39.9z M228.1,41.4L228,60.3
	l0.1,10.1c2.1,0,3.6-0.1,4.5-0.2c0.9-0.2,2-0.5,3.2-1c2.8-1.2,5-3.1,6.6-5.8c1.4-2.3,2.1-4.8,2.1-7.5c0-2.9-0.8-5.6-2.5-8
	c-2.9-4.3-7.2-6.5-13-6.5L228.1,41.4z M275.5,40.6l-0.1,16.6l0.1,14.1c0.8,0.1,1.5,0.2,2,0.2c1.5,0,3.1-0.3,4.7-0.8
	c1.6-0.5,3-1.3,4.3-2.2c0.8-0.6,1.6-1.4,2.5-2.4c0.9-1,1.5-2,2.1-3c0.3-0.6,0.6-0.8,1-0.8c0.5,0,0.8,0.2,0.8,0.7
	c0,0.5-0.4,1.3-1.2,2.4c-0.8,1.1-1.6,2.1-2.5,3c-2,1.9-4.4,3.3-7.1,4c-1.6,0.5-3.2,0.7-4.7,0.7c-2.2,0-4.4-0.5-6.6-1.4
	c-3.5-1.5-6.2-3.8-8.1-7.1c-1.5-2.7-2.3-5.5-2.3-8.5c0-3.1,0.8-6,2.4-8.7c1.7-2.9,4.1-5.1,7.2-6.6c2.3-1.1,4.7-1.6,7.3-1.6
	c4.5,0,8.4,1.5,11.7,4.6c1.6,1.5,2.3,2.5,2.3,3.1c0,0.2-0.1,0.3-0.2,0.5c-0.2,0.1-0.3,0.2-0.5,0.2c-0.3,0-0.7-0.3-1.1-0.9
	c-1.3-1.9-3.1-3.3-5.3-4.4c-2.2-1.1-4.5-1.6-7-1.6C276.6,40.4,276.1,40.4,275.5,40.6z M310.1,39.9l-0.1,4.9l-0.1,7.8l0,5.7l0.1,12.1
	l1.7,0l10-0.1l1.8,0c0.9,0,1.4,0.3,1.4,0.8c0,0.5-0.2,0.8-0.8,0.8c-0.1,0-0.5,0-1.1,0h-27.4l0.1-8.9l0-5.5l0-6.2l-0.1-9.4l0-2H310.1
	z M340,39.9l-0.1,12.1l0,12.8l0.1,6.5c0.8,0.1,1.5,0.1,2.1,0.1c5.5,0,9.2-1.3,11-3.8c1-1.3,1.6-3.2,1.9-5.6
	c0.3-2.4,0.5-6.8,0.5-13.2l-0.1-6.2l-0.1-1.9c0-0.8,0.3-1.2,1-1.2c0.6,0,0.9,0.4,0.9,1.2c0,0.5,0,1.1-0.1,1.9l-0.2,9.4
	c-0.1,3.9-0.1,6.6-0.2,8c-0.1,1.4-0.2,2.7-0.5,4c-0.5,2.5-1.6,4.6-3.4,6.1c-2.2,2-6.1,2.9-11.5,2.9c-4.8,0-8.3-0.6-10.8-1.9
	c-1.9-1-3.3-2.6-4.1-5c-0.4-1.1-0.6-2.2-0.6-3.3c-0.1-1.1-0.1-4.6-0.1-10.4l-0.1-12.3H340z M387.8,58c1.1,0.8,2,1.7,2.5,2.7
	c0.6,1,0.8,2,0.8,3.1c0,1.8-0.7,3.5-2.1,5c-1.7,1.9-4.3,2.9-7.7,3c-1.9,0.1-4.5,0.1-8,0.1h-11.6l0-1.1l0-4.5l0.1-9l-0.1-9.8l0-7.6
	h12.6c3.1,0,5.3,0.1,6.5,0.2c1.2,0.1,2.4,0.3,3.7,0.7c1.3,0.4,2.6,1,3.7,1.9c1.2,0.8,2.1,1.7,2.7,2.7c1,1.5,1.5,3.2,1.5,5.1
	c0,1.7-0.4,3.2-1.2,4.6C390.3,56.4,389.2,57.4,387.8,58z M385.9,58.6c-0.7,0.1-1.3,0.2-1.9,0.2c-1.2,0-2.2-0.2-3-0.6
	c-0.8-0.4-1.1-0.9-1.1-1.6c0-0.4,0.1-0.5,0.4-0.5c0.2,0,0.4,0.1,0.8,0.2c1.1,0.5,2.2,0.8,3.5,0.8c2.3,0,4-0.9,5.2-2.7
	c0.8-1.1,1.1-2.4,1.1-3.9c0-2.2-0.9-4.1-2.6-5.7c-1.2-1.2-2.7-2-4.4-2.5c-1.7-0.5-3.8-0.8-6.4-0.8h-1.3L376,55.5l0.1,14.8l2.1,0
	c2.3,0,4.1-0.1,5.4-0.4c1.3-0.3,2.4-0.7,3.2-1.3c1.8-1.3,2.7-3,2.7-5c0-1-0.3-1.9-0.9-2.8C388,60.1,387.1,59.3,385.9,58.6z"/>
<linearGradient id="SVGID_2_" gradientUnits="userSpaceOnUse" x1="194.6875" y1="67.9141" x2="194.6875" y2="-10.0859" gradientTransform="matrix(1 0 0 -1 0 57.8282)">
	<stop  offset="0" style="stop-color:#FFD600"/>
	<stop  offset="1" style="stop-color:#FFA800"/>
</linearGradient>
<path class="st1" d="M15.1,2.6L15,19.2l0.1,14.1c0.8,0.1,1.5,0.2,2,0.2c1.5,0,3.1-0.3,4.7-0.8c1.6-0.5,3-1.3,4.3-2.2
	c0.8-0.6,1.6-1.4,2.5-2.4c0.9-1,1.5-2,2.1-3c0.3-0.6,0.6-0.8,1-0.8c0.5,0,0.8,0.2,0.8,0.7c0,0.5-0.4,1.3-1.2,2.4
	c-0.8,1.1-1.6,2.1-2.5,3c-2,1.9-4.4,3.3-7.1,4c-1.6,0.5-3.2,0.7-4.7,0.7c-2.2,0-4.4-0.5-6.6-1.4c-3.5-1.5-6.2-3.8-8.1-7.1
	C0.8,23.7,0,20.9,0,17.9c0-3.1,0.8-6,2.4-8.7c1.7-2.9,4.1-5.1,7.2-6.6C11.9,1.5,14.3,1,16.9,1c4.5,0,8.4,1.5,11.7,4.6
	C30.2,7,31,8,31,8.7c0,0.2-0.1,0.3-0.2,0.5c-0.2,0.1-0.3,0.2-0.5,0.2c-0.3,0-0.7-0.3-1.1-0.9C27.7,6.6,26,5.1,23.8,4
	c-2.2-1.1-4.5-1.6-7-1.6C16.2,2.4,15.7,2.4,15.1,2.6z M65.6,12.9l0-6.6l0-2.9c0-0.8,0.1-1.3,0.2-1.5c0.1-0.3,0.4-0.4,0.8-0.4
	c0.6,0,0.9,0.5,0.9,1.4l0,1.6l0,5.2l-0.1,8.4l0.1,8.7l0,6.1c0,0.6-0.1,0.9-0.2,1.1c-0.1,0.2-0.3,0.3-0.7,0.3c-0.4,0-0.6-0.1-0.8-0.3
	c-0.1-0.2-0.2-0.6-0.2-1.2l0-2l0.1-11.8v-4.4l-0.9,0l-4.6-0.1l-10.1,0.1l0,6.5l0.1,12.7H35.9l0.1-20.3l0-5.4l0-4.9l0-1.4h14.4l0,1.2
	l-0.1,9.8c1.6,0.1,4.1,0.2,7.6,0.2C60.9,13.1,63.6,13,65.6,12.9z M89.5,0l18.8,33.9H92l-2.2-4.3h-7.9l-6.9,0l-1.2,0l-1.5,2.9
	c-0.5,0.9-0.8,1.4-1,1.6c-0.2,0.2-0.4,0.3-0.7,0.3c-0.5,0-0.8-0.2-0.8-0.7c0-0.2,0.1-0.6,0.4-1.1c0.3-0.6,1.4-2.4,3.2-5.5L87.6,3.2
	L89.5,0z M82.2,15.4l-4.1,6.9L74.8,28l7,0.1l7.1-0.1L82.2,15.4z M128.6,3.5l-0.1,7.3l-0.1,7l0.1,16.1h-14.3l0.1-18.7l-0.1-6.4
	l-0.1-5.4l-3.1,0.1l-4.4,0.1l-0.7,0c-0.8,0-1.1-0.3-1.1-0.8c0-0.5,0.2-0.8,0.7-0.8c0.1,0,0.5-0.1,1.1-0.1h28.8c1,0,1.6,0.1,1.8,0.1
	c0.3,0.1,0.5,0.4,0.5,0.8c0,0.5-0.4,0.8-1.2,0.8l-2-0.1l-5.4-0.1H128.6z M162.3,3.5l-0.1,7.3l-0.1,7l0.1,16.1h-14.3l0.1-18.7
	l-0.1-6.4l-0.1-5.4l-3.1,0.1l-4.4,0.1l-0.7,0c-0.8,0-1.1-0.3-1.1-0.8c0-0.5,0.2-0.8,0.7-0.8c0.1,0,0.5-0.1,1.1-0.1h28.8
	c1,0,1.6,0.1,1.8,0.1c0.3,0.1,0.5,0.4,0.5,0.8c0,0.5-0.4,0.8-1.2,0.8l-2-0.1l-5.4-0.1H162.3z M188,0l18.8,33.9h-16.2l-2.2-4.3h-7.9
	l-6.9,0l-1.2,0l-1.5,2.9c-0.5,0.9-0.8,1.4-1,1.6c-0.2,0.2-0.4,0.3-0.7,0.3c-0.5,0-0.8-0.2-0.8-0.7c0-0.2,0.1-0.6,0.4-1.1
	c0.3-0.6,1.4-2.4,3.2-5.5l14.2-23.9L188,0z M180.7,15.4l-4.1,6.9l-3.3,5.7l7,0.1l7.1-0.1L180.7,15.4z M238.1,17.5v-3.9l0-6.2l0-2.8
	l0-1.8c0-0.8,0.3-1.3,0.9-1.3c0.3,0,0.6,0.1,0.7,0.3c0.1,0.2,0.2,0.6,0.2,1.1v0.3c0,0.3,0,0.9,0,1.6l-0.1,7.9l-0.1,7.2l0.1,7.6
	l0.1,7.6c-3.2-2-7.9-4.8-14.1-8.3c-6.2-3.6-11.2-6.4-15.1-8.4l0,1.1l0.2,12.1l0,1.6c0,0.7-0.3,1-0.9,1c-0.6,0-1-0.4-1-1.2l0-1.6
	l0-2.6l0.1-12l-0.2-16.2C215.2,4.5,225,10.2,238.1,17.5z M261.1,1c2.5,0,4.9,0.5,7.1,1.6c3.4,1.5,6,3.9,7.7,7.1
	c1.4,2.6,2.1,5.4,2.1,8.4c0,2.4-0.5,4.8-1.6,7.1c-1.6,3.4-4.1,6-7.5,7.8c-2.5,1.3-5.1,1.9-7.9,1.9c-2.9,0-5.7-0.7-8.2-2.2
	c-3.5-1.9-5.9-4.7-7.4-8.2c-0.9-2.1-1.4-4.4-1.4-6.6c0-2.9,0.7-5.6,2.1-8.2c1.8-3.2,4.3-5.6,7.7-7.1C256.1,1.5,258.5,1,261.1,1z
	 M259.2,2.5l-0.1,15.3l0.1,12.7l0,2.9c0.5,0.1,1,0.1,1.5,0.1c3.5,0,6.5-1,9.3-2.9c2.5-1.8,4.3-4,5.4-6.8c0.8-1.9,1.2-3.9,1.2-6
	c0-2.7-0.7-5.2-2-7.6c-1.6-2.9-3.9-5-6.8-6.4c-2.2-1-4.5-1.5-6.9-1.5C260.4,2.4,259.8,2.4,259.2,2.5z M298,1c2.5,0,4.9,0.5,7.1,1.6
	c3.4,1.5,6,3.9,7.7,7.1c1.4,2.6,2.1,5.4,2.1,8.4c0,2.4-0.5,4.8-1.6,7.1c-1.6,3.4-4.1,6-7.5,7.8c-2.5,1.3-5.1,1.9-7.9,1.9
	c-2.9,0-5.7-0.7-8.2-2.2c-3.5-1.9-5.9-4.7-7.4-8.2c-0.9-2.1-1.4-4.4-1.4-6.6c0-2.9,0.7-5.6,2.1-8.2c1.8-3.2,4.3-5.6,7.7-7.1
	C293.1,1.5,295.5,1,298,1z M296.2,2.5L296,17.8l0.1,12.7l0,2.9c0.5,0.1,1,0.1,1.5,0.1c3.5,0,6.5-1,9.3-2.9c2.5-1.8,4.3-4,5.4-6.8
	c0.8-1.9,1.2-3.9,1.2-6c0-2.7-0.7-5.2-2-7.6c-1.6-2.9-3.9-5-6.8-6.4c-2.2-1-4.5-1.5-6.9-1.5C297.3,2.4,296.7,2.4,296.2,2.5z
	 M352,17.8c-0.1,4.6-1.6,8.5-4.5,11.6c-1.6,1.7-3.5,3.1-5.7,4.1c-2.2,1-4.5,1.4-6.9,1.4c-2.1,0-4.1-0.4-6.1-1.2
	c-2-0.8-3.8-1.9-5.3-3.3c-2-1.8-3.5-4-4.4-6.5c-0.8-2-1.1-4-1.1-6c0-3.7,1.1-7.1,3.4-10.1c1.6-2.1,3.6-3.8,6-4.9
	c2.4-1.2,4.9-1.8,7.5-1.8c4.6,0,8.6,1.6,11.9,4.8c1.5,1.4,2.2,2.4,2.2,3c0,0.2-0.1,0.4-0.3,0.5c-0.2,0.1-0.4,0.2-0.6,0.2
	c-0.4,0-0.7-0.3-1.1-0.8c-3.1-4.2-7.2-6.3-12.1-6.3c-0.6,0-1.2,0-1.8,0.1L333,19.1l0.1,14.1c0.6,0.1,1.2,0.2,1.8,0.2
	c1.8,0,3.5-0.3,5.1-0.9c4.2-1.5,7.2-4.2,9-8.2c0.8-1.7,1.2-3.4,1.4-5.1h-12.2c-1.1,0-1.7-0.1-1.9-0.2c-0.2-0.1-0.3-0.3-0.3-0.6
	c0-0.5,0.4-0.8,1.1-0.8l1.4,0H352z M370.6,0l18.8,33.9h-16.2l-2.2-4.3H363l-6.9,0l-1.2,0l-1.5,2.9c-0.5,0.9-0.8,1.4-1,1.6
	c-0.2,0.2-0.4,0.3-0.7,0.3c-0.5,0-0.8-0.2-0.8-0.7c0-0.2,0.1-0.6,0.4-1.1c0.3-0.6,1.4-2.4,3.2-5.5l14.2-23.9L370.6,0z M363.3,15.4
	l-4.1,6.9L356,28l7,0.1L370,28L363.3,15.4z"/>
</svg>
