<?xml version="1.0" encoding="utf-8"?>
<!DOCTYPE svg PUBLIC "-//W3C//DTD SVG 1.1//EN" "http://www.w3.org/Graphics/SVG/1.1/DTD/svg11.dtd">
<svg version="1.1" id="Layer_1" xmlns="http://www.w3.org/2000/svg" xmlns:xlink="http://www.w3.org/1999/xlink" x="0px" y="0px"
	 width="1000px" height="253px" enable-background="new -492.957 -124.724 1000 253"
	 xml:space="preserve">

<circle cx="93" cy="8" r="8" fill="#F7F3F4"/><circle cx="110" cy="8" r="8" fill="#F7F3F4"/><circle cx="161" cy="8" r="8" fill="#F7F3F4"/><circle cx="178" cy="8" r="8" fill="#F7F3F4"/><circle cx="195" cy="8" r="8" fill="#F7F3F4"/><circle cx="212" cy="8" r="8" fill="#F7F3F4"/><circle cx="229" cy="8" r="8" fill="#F7F3F4"/><circle cx="246" cy="8" r="8" fill="#F7F3F4"/><circle cx="263" cy="8" r="8" fill="#F7F3F4"/><circle cx="280" cy="8" r="8" fill="#F7F3F4"/><circle cx="297" cy="8" r="8" fill="#F7F3F4"/><circle cx="314" cy="8" r="8" fill="#F7F3F4"/><circle cx="331" cy="8" r="8" fill="#F7F3F4"/><circle cx="348" cy="8" r="8" fill="#F7F3F4"/><circle cx="365" cy="8" r="8" fill="#F7F3F4"/><circle cx="382" cy="8" r="8" fill="#F7F3F4"/><circle cx="399" cy="8" r="8" fill="#F7F3F4"/><circle cx="416" cy="8" r="8" fill="#F7F3F4"/><circle cx="450" cy="8" r="8" fill="#F7F3F4"/><circle cx="467" cy="8" r="8" fill="#F7F3F4"/><circle cx="484" cy="8" r="8" fill="#F7F3F4"/><circle cx="501" cy="8" r="8" fill="#F7F3F4"/><circle cx="518" cy="8" r="8" fill="#F7F3F4"/><circle cx="535" cy="8" r="8" fill="#F7F3F4"/><circle cx="552" cy="8" r="8" fill="#F7F3F4"/><circle cx="586" cy="8" r="8" fill="#F7F3F4"/><circle cx="603" cy="8" r="8" fill="#F7F3F4"/><circle cx="654" cy="8" r="8" fill="#F7F3F4"/><circle cx="671" cy="8" r="8" fill="#F7F3F4"/><circle cx="688" cy="8" r="8" fill="#F7F3F4"/><circle cx="705" cy="8" r="8" fill="#F7F3F4"/><circle cx="756" cy="8" r="8" fill="#F7F3F4"/><circle cx="773" cy="8" r="8" fill="#F7F3F4"/><circle cx="790" cy="8" r="8" fill="#F7F3F4"/><circle cx="807" cy="8" r="8" fill="#F7F3F4"/><circle cx="824" cy="8" r="8" fill="#F7F3F4"/><circle cx="841" cy="8" r="8" fill="#F7F3F4"/><circle cx="858" cy="8" r="8" fill="#F7F3F4"/><circle cx="875" cy="8" r="8" fill="#F7F3F4"/><circle cx="892" cy="8" r="8" fill="#F7F3F4"/><circle cx="909" cy="8" r="8" fill="#F7F3F4"/><circle cx="93" cy="25" r="8" fill="#F7F3F4"/><circle cx="110" cy="25" r="8" fill="#F7F3F4"/><circle cx="161" cy="25" r="8" fill="#F7F3F4"/><circle cx="178" cy="25" r="8" fill="#F7F3F4"/><circle cx="195" cy="25" r="8" fill="#F7F3F4"/><circle cx="212" cy="25" r="8" fill="#F7F3F4"/><circle cx="246" cy="25" r="8" fill="#F7F3F4"/><circle cx="263" cy="25" r="8" fill="#F7F3F4"/><circle cx="280" cy="25" r="8" fill="#F7F3F4"/><circle cx="297" cy="25" r="8" fill="#F7F3F4"/><circle cx="314" cy="25" r="8" fill="#F7F3F4"/><circle cx="331" cy="25" r="8" fill="#F7F3F4"/><circle cx="348" cy="25" r="8" fill="#F7F3F4"/><circle cx="365" cy="25" r="8" fill="#F7F3F4"/><circle cx="382" cy="25" r="8" fill="#F7F3F4"/><circle cx="399" cy="25" r="8" fill="#F7F3F4"/><circle cx="416" cy="25" r="8" fill="#F7F3F4"/><circle cx="467" cy="25" r="8" fill="#F7F3F4"/><circle cx="484" cy="25" r="8" fill="#F7F3F4"/><circle cx="501" cy="25" r="8" fill="#F7F3F4"/><circle cx="518" cy="25" r="8" fill="#F7F3F4"/><circle cx="535" cy="25" r="8" fill="#F7F3F4"/><circle cx="552" cy="25" r="8" fill="#F7F3F4"/><circle cx="586" cy="25" r="8" fill="#F7F3F4"/><circle cx="603" cy="25" r="8" fill="#F7F3F4"/><circle cx="654" cy="25" r="8" fill="#F7F3F4"/><circle cx="671" cy="25" r="8" fill="#F7F3F4"/><circle cx="688" cy="25" r="8" fill="#F7F3F4"/><circle cx="705" cy="25" r="8" fill="#F7F3F4"/><circle cx="722" cy="25" r="8" fill="#F7F3F4"/><circle cx="739" cy="25" r="8" fill="#F7F3F4"/><circle cx="756" cy="25" r="8" fill="#F7F3F4"/><circle cx="773" cy="25" r="8" fill="#F7F3F4"/><circle cx="790" cy="25" r="8" fill="#F7F3F4"/><circle cx="807" cy="25" r="8" fill="#F7F3F4"/><circle cx="824" cy="25" r="8" fill="#F7F3F4"/><circle cx="841" cy="25" r="8" fill="#F7F3F4"/><circle cx="858" cy="25" r="8" fill="#F7F3F4"/><circle cx="875" cy="25" r="8" fill="#F7F3F4"/><circle cx="892" cy="25" r="8" fill="#F7F3F4"/><circle cx="909" cy="25" r="8" fill="#F7F3F4"/><circle cx="926" cy="25" r="8" fill="#F7F3F4"/><circle cx="93" cy="42" r="8" fill="#F7F3F4"/><circle cx="110" cy="42" r="8" fill="#F7F3F4"/><circle cx="161" cy="42" r="8" fill="#F7F3F4"/><circle cx="178" cy="42" r="8" fill="#F7F3F4"/><circle cx="195" cy="42" r="8" fill="#F7F3F4"/><circle cx="212" cy="42" r="8" fill="#F7F3F4"/><circle cx="229" cy="42" r="8" fill="#F7F3F4"/><circle cx="246" cy="42" r="8" fill="#F7F3F4"/><circle cx="263" cy="42" r="8" fill="#F7F3F4"/><circle cx="280" cy="42" r="8" fill="#F7F3F4"/><circle cx="297" cy="42" r="8" fill="#F7F3F4"/><circle cx="314" cy="42" r="8" fill="#F7F3F4"/><circle cx="331" cy="42" r="8" fill="#F7F3F4"/><circle cx="348" cy="42" r="8" fill="#F7F3F4"/><circle cx="399" cy="42" r="8" fill="#F7F3F4"/><circle cx="416" cy="42" r="8" fill="#F7F3F4"/><circle cx="467" cy="42" r="8" fill="#F7F3F4"/><circle cx="484" cy="42" r="8" fill="#F7F3F4"/><circle cx="501" cy="42" r="8" fill="#F7F3F4"/><circle cx="518" cy="42" r="8" fill="#F7F3F4"/><circle cx="586" cy="42" r="8" fill="#F7F3F4"/><circle cx="603" cy="42" r="8" fill="#F7F3F4"/><circle cx="620" cy="42" r="8" fill="#F7F3F4"/><circle cx="637" cy="42" r="8" fill="#F7F3F4"/><circle cx="654" cy="42" r="8" fill="#F7F3F4"/><circle cx="671" cy="42" r="8" fill="#F7F3F4"/><circle cx="688" cy="42" r="8" fill="#F7F3F4"/><circle cx="705" cy="42" r="8" fill="#F7F3F4"/><circle cx="722" cy="42" r="8" fill="#F7F3F4"/><circle cx="739" cy="42" r="8" fill="#F7F3F4"/><circle cx="773" cy="42" r="8" fill="#F7F3F4"/><circle cx="790" cy="42" r="8" fill="#F7F3F4"/><circle cx="807" cy="42" r="8" fill="#F7F3F4"/><circle cx="824" cy="42" r="8" fill="#F7F3F4"/><circle cx="841" cy="42" r="8" fill="#F7F3F4"/><circle cx="858" cy="42" r="8" fill="#F7F3F4"/><circle cx="875" cy="42" r="8" fill="#F7F3F4"/><circle cx="892" cy="42" r="8" fill="#F7F3F4"/><circle cx="909" cy="42" r="8" fill="#F7F3F4"/><circle cx="926" cy="42" r="8" fill="#F7F3F4"/><circle cx="93" cy="59" r="8" fill="#F7F3F4"/><circle cx="110" cy="59" r="8" fill="#F7F3F4"/><circle cx="127" cy="59" r="8" fill="#F7F3F4"/><circle cx="144" cy="59" r="8" fill="#F7F3F4"/><circle cx="161" cy="59" r="8" fill="#F7F3F4"/><circle cx="178" cy="59" r="8" fill="#F7F3F4"/><circle cx="195" cy="59" r="8" fill="#F7F3F4"/><circle cx="212" cy="59" r="8" fill="#F7F3F4"/><circle cx="229" cy="59" r="8" fill="#F7F3F4"/><circle cx="246" cy="59" r="8" fill="#F7F3F4"/><circle cx="263" cy="59" r="8" fill="#F7F3F4"/><circle cx="280" cy="59" r="8" fill="#F7F3F4"/><circle cx="297" cy="59" r="8" fill="#F7F3F4"/><circle cx="314" cy="59" r="8" fill="#F7F3F4"/><circle cx="331" cy="59" r="8" fill="#F7F3F4"/><circle cx="348" cy="59" r="8" fill="#F7F3F4"/><circle cx="399" cy="59" r="8" fill="#F7F3F4"/><circle cx="416" cy="59" r="8" fill="#F7F3F4"/><circle cx="467" cy="59" r="8" fill="#F7F3F4"/><circle cx="484" cy="59" r="8" fill="#F7F3F4"/><circle cx="501" cy="59" r="8" fill="#F7F3F4"/><circle cx="518" cy="59" r="8" fill="#F7F3F4"/><circle cx="535" cy="59" r="8" fill="#F7F3F4"/><circle cx="552" cy="59" r="8" fill="#F7F3F4"/><circle cx="569" cy="59" r="8" fill="#F7F3F4"/><circle cx="586" cy="59" r="8" fill="#F7F3F4"/><circle cx="603" cy="59" r="8" fill="#F7F3F4"/><circle cx="620" cy="59" r="8" fill="#F7F3F4"/><circle cx="637" cy="59" r="8" fill="#F7F3F4"/><circle cx="654" cy="59" r="8" fill="#F7F3F4"/><circle cx="671" cy="59" r="8" fill="#F7F3F4"/><circle cx="688" cy="59" r="8" fill="#F7F3F4"/><circle cx="705" cy="59" r="8" fill="#F7F3F4"/><circle cx="722" cy="59" r="8" fill="#F7F3F4"/><circle cx="739" cy="59" r="8" fill="#F7F3F4"/><circle cx="824" cy="59" r="8" fill="#F7F3F4"/><circle cx="841" cy="59" r="8" fill="#F7F3F4"/><circle cx="858" cy="59" r="8" fill="#F7F3F4"/><circle cx="875" cy="59" r="8" fill="#F7F3F4"/><circle cx="892" cy="59" r="8" fill="#F7F3F4"/><circle cx="909" cy="59" r="8" fill="#F7F3F4"/><circle cx="926" cy="59" r="8" fill="#F7F3F4"/><circle cx="943" cy="59" r="8" fill="#F7F3F4"/><circle cx="76" cy="76" r="8" fill="#F7F3F4"/><circle cx="93" cy="76" r="8" fill="#F7F3F4"/><circle cx="110" cy="76" r="8" fill="#F7F3F4"/><circle cx="127" cy="76" r="8" fill="#F7F3F4"/><circle cx="144" cy="76" r="8" fill="#F7F3F4"/><circle cx="161" cy="76" r="8" fill="#F7F3F4"/><circle cx="178" cy="76" r="8" fill="#F7F3F4"/><circle cx="195" cy="76" r="8" fill="#F7F3F4"/><circle cx="212" cy="76" r="8" fill="#F7F3F4"/><circle cx="229" cy="76" r="8" fill="#F7F3F4"/><circle cx="246" cy="76" r="8" fill="#F7F3F4"/><circle cx="263" cy="76" r="8" fill="#F7F3F4"/><circle cx="280" cy="76" r="8" fill="#F7F3F4"/><circle cx="297" cy="76" r="8" fill="#F7F3F4"/><circle cx="314" cy="76" r="8" fill="#F7F3F4"/><circle cx="331" cy="76" r="8" fill="#F7F3F4"/><circle cx="348" cy="76" r="8" fill="#F7F3F4"/><circle cx="365" cy="76" r="8" fill="#F7F3F4"/><circle cx="399" cy="76" r="8" fill="#F7F3F4"/><circle cx="416" cy="76" r="8" fill="#F7F3F4"/><circle cx="433" cy="76" r="8" fill="#F7F3F4"/><circle cx="450" cy="76" r="8" fill="#F7F3F4"/><circle cx="467" cy="76" r="8" fill="#F7F3F4"/><circle cx="484" cy="76" r="8" fill="#F7F3F4"/><circle cx="501" cy="76" r="8" fill="#F7F3F4"/><circle cx="518" cy="76" r="8" fill="#F7F3F4"/><circle cx="535" cy="76" r="8" fill="#F7F3F4"/><circle cx="552" cy="76" r="8" fill="#F7F3F4"/><circle cx="569" cy="76" r="8" fill="#F7F3F4"/><circle cx="586" cy="76" r="8" fill="#F7F3F4"/><circle cx="603" cy="76" r="8" fill="#F7F3F4"/><circle cx="620" cy="76" r="8" fill="#F7F3F4"/><circle cx="637" cy="76" r="8" fill="#F7F3F4"/><circle cx="654" cy="76" r="8" fill="#F7F3F4"/><circle cx="671" cy="76" r="8" fill="#F7F3F4"/><circle cx="688" cy="76" r="8" fill="#F7F3F4"/><circle cx="705" cy="76" r="8" fill="#F7F3F4"/><circle cx="722" cy="76" r="8" fill="#F7F3F4"/><circle cx="824" cy="76" r="8" fill="#F7F3F4"/><circle cx="841" cy="76" r="8" fill="#F7F3F4"/><circle cx="858" cy="76" r="8" fill="#F7F3F4"/><circle cx="875" cy="76" r="8" fill="#F7F3F4"/><circle cx="892" cy="76" r="8" fill="#F7F3F4"/><circle cx="909" cy="76" r="8" fill="#F7F3F4"/><circle cx="926" cy="76" r="8" fill="#F7F3F4"/><circle cx="943" cy="76" r="8" fill="#F7F3F4"/><circle cx="76" cy="93" r="8" fill="#F7F3F4"/><circle cx="93" cy="93" r="8" fill="#F7F3F4"/><circle cx="110" cy="93" r="8" fill="#F7F3F4"/><circle cx="127" cy="93" r="8" fill="#F7F3F4"/><circle cx="144" cy="93" r="8" fill="#F7F3F4"/><circle cx="161" cy="93" r="8" fill="#F7F3F4"/><circle cx="178" cy="93" r="8" fill="#F7F3F4"/><circle cx="195" cy="93" r="8" fill="#F7F3F4"/><circle cx="212" cy="93" r="8" fill="#F7F3F4"/><circle cx="229" cy="93" r="8" fill="#F7F3F4"/><circle cx="246" cy="93" r="8" fill="#F7F3F4"/><circle cx="263" cy="93" r="8" fill="#F7F3F4"/><circle cx="280" cy="93" r="8" fill="#F7F3F4"/><circle cx="297" cy="93" r="8" fill="#F7F3F4"/><circle cx="314" cy="93" r="8" fill="#F7F3F4"/><circle cx="331" cy="93" r="8" fill="#F7F3F4"/><circle cx="348" cy="93" r="8" fill="#F7F3F4"/><circle cx="365" cy="93" r="8" fill="#F7F3F4"/><circle cx="382" cy="93" r="8" fill="#F7F3F4"/><circle cx="399" cy="93" r="8" fill="#F7F3F4"/><circle cx="416" cy="93" r="8" fill="#F7F3F4"/><circle cx="433" cy="93" r="8" fill="#F7F3F4"/><circle cx="450" cy="93" r="8" fill="#F7F3F4"/><circle cx="467" cy="93" r="8" fill="#F7F3F4"/><circle cx="484" cy="93" r="8" fill="#F7F3F4"/><circle cx="501" cy="93" r="8" fill="#F7F3F4"/><circle cx="518" cy="93" r="8" fill="#F7F3F4"/><circle cx="535" cy="93" r="8" fill="#F7F3F4"/><circle cx="552" cy="93" r="8" fill="#F7F3F4"/><circle cx="569" cy="93" r="8" fill="#F7F3F4"/><circle cx="586" cy="93" r="8" fill="#F7F3F4"/><circle cx="603" cy="93" r="8" fill="#F7F3F4"/><circle cx="620" cy="93" r="8" fill="#F7F3F4"/><circle cx="637" cy="93" r="8" fill="#F7F3F4"/><circle cx="654" cy="93" r="8" fill="#F7F3F4"/><circle cx="671" cy="93" r="8" fill="#F7F3F4"/><circle cx="807" cy="93" r="8" fill="#F7F3F4"/><circle cx="824" cy="93" r="8" fill="#F7F3F4"/><circle cx="841" cy="93" r="8" fill="#F7F3F4"/><circle cx="858" cy="93" r="8" fill="#F7F3F4"/><circle cx="875" cy="93" r="8" fill="#F7F3F4"/><circle cx="892" cy="93" r="8" fill="#F7F3F4"/><circle cx="909" cy="93" r="8" fill="#F7F3F4"/><circle cx="926" cy="93" r="8" fill="#F7F3F4"/><circle cx="943" cy="93" r="8" fill="#F7F3F4"/><circle cx="960" cy="93" r="8" fill="#F7F3F4"/><circle cx="59" cy="110" r="8" fill="#F7F3F4"/><circle cx="76" cy="110" r="8" fill="#F7F3F4"/><circle cx="93" cy="110" r="8" fill="#F7F3F4"/><circle cx="110" cy="110" r="8" fill="#F7F3F4"/><circle cx="127" cy="110" r="8" fill="#F7F3F4"/><circle cx="144" cy="110" r="8" fill="#F7F3F4"/><circle cx="161" cy="110" r="8" fill="#F7F3F4"/><circle cx="178" cy="110" r="8" fill="#F7F3F4"/><circle cx="195" cy="110" r="8" fill="#F7F3F4"/><circle cx="212" cy="110" r="8" fill="#F7F3F4"/><circle cx="229" cy="110" r="8" fill="#F7F3F4"/><circle cx="348" cy="110" r="8" fill="#F7F3F4"/><circle cx="365" cy="110" r="8" fill="#F7F3F4"/><circle cx="382" cy="110" r="8" fill="#F7F3F4"/><circle cx="399" cy="110" r="8" fill="#F7F3F4"/><circle cx="416" cy="110" r="8" fill="#F7F3F4"/><circle cx="433" cy="110" r="8" fill="#F7F3F4"/><circle cx="450" cy="110" r="8" fill="#F7F3F4"/><circle cx="467" cy="110" r="8" fill="#F7F3F4"/><circle cx="484" cy="110" r="8" fill="#F7F3F4"/><circle cx="501" cy="110" r="8" fill="#F7F3F4"/><circle cx="518" cy="110" r="8" fill="#F7F3F4"/><circle cx="535" cy="110" r="8" fill="#F7F3F4"/><circle cx="552" cy="110" r="8" fill="#F7F3F4"/><circle cx="569" cy="110" r="8" fill="#F7F3F4"/><circle cx="586" cy="110" r="8" fill="#F7F3F4"/><circle cx="603" cy="110" r="8" fill="#F7F3F4"/><circle cx="620" cy="110" r="8" fill="#F7F3F4"/><circle cx="637" cy="110" r="8" fill="#F7F3F4"/><circle cx="654" cy="110" r="8" fill="#F7F3F4"/><circle cx="671" cy="110" r="8" fill="#F7F3F4"/><circle cx="807" cy="110" r="8" fill="#F7F3F4"/><circle cx="824" cy="110" r="8" fill="#F7F3F4"/><circle cx="841" cy="110" r="8" fill="#F7F3F4"/><circle cx="858" cy="110" r="8" fill="#F7F3F4"/><circle cx="875" cy="110" r="8" fill="#F7F3F4"/><circle cx="892" cy="110" r="8" fill="#F7F3F4"/><circle cx="909" cy="110" r="8" fill="#F7F3F4"/><circle cx="926" cy="110" r="8" fill="#F7F3F4"/><circle cx="943" cy="110" r="8" fill="#F7F3F4"/><circle cx="960" cy="110" r="8" fill="#F7F3F4"/><circle cx="977" cy="110" r="8" fill="#F7F3F4"/><circle cx="59" cy="127" r="8" fill="#F7F3F4"/><circle cx="76" cy="127" r="8" fill="#F7F3F4"/><circle cx="93" cy="127" r="8" fill="#F7F3F4"/><circle cx="110" cy="127" r="8" fill="#F7F3F4"/><circle cx="127" cy="127" r="8" fill="#F7F3F4"/><circle cx="144" cy="127" r="8" fill="#F7F3F4"/><circle cx="161" cy="127" r="8" fill="#F7F3F4"/><circle cx="178" cy="127" r="8" fill="#F7F3F4"/><circle cx="365" cy="127" r="8" fill="#F7F3F4"/><circle cx="382" cy="127" r="8" fill="#F7F3F4"/><circle cx="399" cy="127" r="8" fill="#F7F3F4"/><circle cx="416" cy="127" r="8" fill="#F7F3F4"/><circle cx="433" cy="127" r="8" fill="#F7F3F4"/><circle cx="450" cy="127" r="8" fill="#F7F3F4"/><circle cx="467" cy="127" r="8" fill="#F7F3F4"/><circle cx="484" cy="127" r="8" fill="#F7F3F4"/><circle cx="535" cy="127" r="8" fill="#F7F3F4"/><circle cx="552" cy="127" r="8" fill="#F7F3F4"/><circle cx="569" cy="127" r="8" fill="#F7F3F4"/><circle cx="586" cy="127" r="8" fill="#F7F3F4"/><circle cx="603" cy="127" r="8" fill="#F7F3F4"/><circle cx="620" cy="127" r="8" fill="#F7F3F4"/><circle cx="637" cy="127" r="8" fill="#F7F3F4"/><circle cx="654" cy="127" r="8" fill="#F7F3F4"/><circle cx="671" cy="127" r="8" fill="#F7F3F4"/><circle cx="688" cy="127" r="8" fill="#F7F3F4"/><circle cx="807" cy="127" r="8" fill="#F7F3F4"/><circle cx="824" cy="127" r="8" fill="#F7F3F4"/><circle cx="943" cy="127" r="8" fill="#F7F3F4"/><circle cx="960" cy="127" r="8" fill="#F7F3F4"/><circle cx="977" cy="127" r="8" fill="#F7F3F4"/><circle cx="994" cy="127" r="8" fill="#F7F3F4"/><circle cx="42" cy="144" r="8" fill="#F7F3F4"/><circle cx="59" cy="144" r="8" fill="#F7F3F4"/><circle cx="76" cy="144" r="8" fill="#F7F3F4"/><circle cx="93" cy="144" r="8" fill="#F7F3F4"/><circle cx="110" cy="144" r="8" fill="#F7F3F4"/><circle cx="127" cy="144" r="8" fill="#F7F3F4"/><circle cx="144" cy="144" r="8" fill="#F7F3F4"/><circle cx="161" cy="144" r="8" fill="#F7F3F4"/><circle cx="178" cy="144" r="8" fill="#F7F3F4"/><circle cx="195" cy="144" r="8" fill="#F7F3F4"/><circle cx="348" cy="144" r="8" fill="#F7F3F4"/><circle cx="365" cy="144" r="8" fill="#F7F3F4"/><circle cx="382" cy="144" r="8" fill="#F7F3F4"/><circle cx="399" cy="144" r="8" fill="#F7F3F4"/><circle cx="416" cy="144" r="8" fill="#F7F3F4"/><circle cx="433" cy="144" r="8" fill="#F7F3F4"/><circle cx="450" cy="144" r="8" fill="#F7F3F4"/><circle cx="467" cy="144" r="8" fill="#F7F3F4"/><circle cx="484" cy="144" r="8" fill="#F7F3F4"/><circle cx="518" cy="144" r="8" fill="#F7F3F4"/><circle cx="535" cy="144" r="8" fill="#F7F3F4"/><circle cx="552" cy="144" r="8" fill="#F7F3F4"/><circle cx="569" cy="144" r="8" fill="#F7F3F4"/><circle cx="586" cy="144" r="8" fill="#F7F3F4"/><circle cx="603" cy="144" r="8" fill="#F7F3F4"/><circle cx="620" cy="144" r="8" fill="#F7F3F4"/><circle cx="637" cy="144" r="8" fill="#F7F3F4"/><circle cx="654" cy="144" r="8" fill="#F7F3F4"/><circle cx="671" cy="144" r="8" fill="#F7F3F4"/><circle cx="688" cy="144" r="8" fill="#F7F3F4"/><circle cx="807" cy="144" r="8" fill="#F7F3F4"/><circle cx="25" cy="161" r="8" fill="#F7F3F4"/><circle cx="42" cy="161" r="8" fill="#F7F3F4"/><circle cx="59" cy="161" r="8" fill="#F7F3F4"/><circle cx="76" cy="161" r="8" fill="#F7F3F4"/><circle cx="93" cy="161" r="8" fill="#F7F3F4"/><circle cx="110" cy="161" r="8" fill="#F7F3F4"/><circle cx="127" cy="161" r="8" fill="#F7F3F4"/><circle cx="144" cy="161" r="8" fill="#F7F3F4"/><circle cx="161" cy="161" r="8" fill="#F7F3F4"/><circle cx="178" cy="161" r="8" fill="#F7F3F4"/><circle cx="195" cy="161" r="8" fill="#F7F3F4"/><circle cx="348" cy="161" r="8" fill="#F7F3F4"/><circle cx="365" cy="161" r="8" fill="#F7F3F4"/><circle cx="382" cy="161" r="8" fill="#F7F3F4"/><circle cx="399" cy="161" r="8" fill="#F7F3F4"/><circle cx="416" cy="161" r="8" fill="#F7F3F4"/><circle cx="433" cy="161" r="8" fill="#F7F3F4"/><circle cx="450" cy="161" r="8" fill="#F7F3F4"/><circle cx="467" cy="161" r="8" fill="#F7F3F4"/><circle cx="484" cy="161" r="8" fill="#F7F3F4"/><circle cx="501" cy="161" r="8" fill="#F7F3F4"/><circle cx="518" cy="161" r="8" fill="#F7F3F4"/><circle cx="535" cy="161" r="8" fill="#F7F3F4"/><circle cx="552" cy="161" r="8" fill="#F7F3F4"/><circle cx="671" cy="161" r="8" fill="#F7F3F4"/><circle cx="688" cy="161" r="8" fill="#F7F3F4"/><circle cx="807" cy="161" r="8" fill="#F7F3F4"/><circle cx="824" cy="161" r="8" fill="#F7F3F4"/><circle cx="8" cy="178" r="8" fill="#F7F3F4"/><circle cx="25" cy="178" r="8" fill="#F7F3F4"/><circle cx="42" cy="178" r="8" fill="#F7F3F4"/><circle cx="59" cy="178" r="8" fill="#F7F3F4"/><circle cx="178" cy="178" r="8" fill="#F7F3F4"/><circle cx="195" cy="178" r="8" fill="#F7F3F4"/><circle cx="331" cy="178" r="8" fill="#F7F3F4"/><circle cx="348" cy="178" r="8" fill="#F7F3F4"/><circle cx="365" cy="178" r="8" fill="#F7F3F4"/><circle cx="382" cy="178" r="8" fill="#F7F3F4"/><circle cx="399" cy="178" r="8" fill="#F7F3F4"/><circle cx="416" cy="178" r="8" fill="#F7F3F4"/><circle cx="433" cy="178" r="8" fill="#F7F3F4"/><circle cx="450" cy="178" r="8" fill="#F7F3F4"/><circle cx="467" cy="178" r="8" fill="#F7F3F4"/><circle cx="484" cy="178" r="8" fill="#F7F3F4"/><circle cx="501" cy="178" r="8" fill="#F7F3F4"/><circle cx="688" cy="178" r="8" fill="#F7F3F4"/><circle cx="807" cy="178" r="8" fill="#F7F3F4"/><circle cx="824" cy="178" r="8" fill="#F7F3F4"/><circle cx="195" cy="195" r="8" fill="#F7F3F4"/><circle cx="314" cy="195" r="8" fill="#F7F3F4"/><circle cx="331" cy="195" r="8" fill="#F7F3F4"/><circle cx="348" cy="195" r="8" fill="#F7F3F4"/><circle cx="365" cy="195" r="8" fill="#F7F3F4"/><circle cx="484" cy="195" r="8" fill="#F7F3F4"/><circle cx="501" cy="195" r="8" fill="#F7F3F4"/><circle cx="671" cy="195" r="8" fill="#F7F3F4"/><circle cx="688" cy="195" r="8" fill="#F7F3F4"/><circle cx="178" cy="212" r="8" fill="#F7F3F4"/><circle cx="195" cy="212" r="8" fill="#F7F3F4"/><circle cx="501" cy="212" r="8" fill="#F7F3F4"/><circle cx="671" cy="212" r="8" fill="#F7F3F4"/><circle cx="688" cy="212" r="8" fill="#F7F3F4"/><circle cx="178" cy="229" r="8" fill="#F7F3F4"/><circle cx="195" cy="229" r="8" fill="#F7F3F4"/><circle cx="484" cy="229" r="8" fill="#F7F3F4"/><circle cx="501" cy="229" r="8" fill="#F7F3F4"/><circle cx="484" cy="246" r="8" fill="#F7F3F4"/><circle cx="501" cy="246" r="8" fill="#F7F3F4"/>
</svg>