<svg width="945" height="302" viewBox="0 0 945 302" xmlns="http://www.w3.org/2000/svg" xmlns:xlink="http://www.w3.org/1999/xlink"><title>Group 5</title><defs><circle id="a" cx="8" cy="134" r="8"/><linearGradient x1="50%" y1="3.932%" x2="50%" y2="100%" id="b"><stop stop-color="#1290FC" offset="0%"/><stop stop-color="#0C55FB" offset="100%"/></linearGradient><path d="M4.468 14.767C5.913 6.61 13.794 0 22.083 0H85l-4.468 25.233C79.087 33.39 71.206 40 62.917 40H0l4.468-25.233z" id="c"/><path d="M4.468 14.767C5.913 6.61 13.794 0 22.083 0H85l-4.468 25.233C79.087 33.39 71.206 40 62.917 40H0l4.468-25.233z" id="d"/><linearGradient x1="102.748%" y1="50%" x2="-75.412%" y2="50%" id="e"><stop stop-color="#0C55FB" offset="0%"/><stop stop-color="#95C6FD" offset="100%"/></linearGradient><circle id="f" cx="358" cy="118" r="8"/><circle id="g" cx="358" cy="118" r="8"/><path d="M4.468 14.767C5.913 6.61 13.794 0 22.083 0H85l-4.468 25.233C79.087 33.39 71.206 40 62.917 40H0l4.468-25.233z" id="h"/><path d="M4.468 14.767C5.913 6.61 13.794 0 22.083 0H85l-4.468 25.233C79.087 33.39 71.206 40 62.917 40H0l4.468-25.233z" id="i"/><path d="M.146 28.813L8.322 8.958C10.549 3.55 15.843.018 21.721.018h29.806L39.669 28.812H.146z" id="j"/><path d="M.073 28.796L8.249 8.94C10.476 3.533 15.77 0 21.648 0h29.806L39.596 28.795H.073z" id="l"/></defs><g fill="none" fill-rule="evenodd"><path d="M900.32 113.201l-1.646.733-2.559.626-2.63 1.466-1.33.402-1.222 2.214-.61.488-.087 1.157.676-.093 1.336.115.202.87.424.682-.087 1.783-1.293 1.545-.942 3.406-.416 1.797-.64 1.905.719 1.128-.611 1.25-1.359.324-1.48 1.74-1.157.84-1.926-.1-2.005-.791-1.582 5.002.223.79-.474.662-.208 2.098-.877.77.69 1.465 1.027.748.755-.841 2.796-.582 1.502.697.934-1.732 2.372-.431 1.401.855 1.013.13.647.97 2.099 1.25 1.143 2.214-.748.876-1.308.31-1.682-.417-.682.359-1.05-.187-2.02 1.603-.962-.194-.345.999-1.646.215-1.207 1.215-.633 1.523.007.985-1.861 1.962-3.5.489-.654 1.236-2.609 2.544-3.608-.158-.826-.683-2.12-.064-1.38 3.765 2.415 2.904-.798.64-.683.754-1.725.956-2.493 3.35-3.35 1.76-4.513.388-1.452.374-1.847-.252-.711.611-2.034.539-3.177 1.639-3.27 2.084-1.056-.33-.733-1.014-1.48.395-4.068-1.085-3.09-.77-1.287-1.544-6.432-1.042-3.486.596-3.816-.69-3.256-.266-3.227-.797-1.79-2.386-1.236-4.14-.74-.482.015-.977-1.718-.446-3.033-2.163-1.804-1.703-6.303-.913-1.66-.891-1.258-.252-.603-.682.165-1.639 1.416-1.948-.31-1.509.604-.754.108-1.208-1.308-2.5-.352-2.085-1.179-1.746-.646.143-1.236-1.3-.662.208-.956-.007-.474-.647-.762-1.675-1.631-1.1.021-.632-.754-1.293.38-.582-.057-.95-1.063.26-1.1-.475-1.315.223-.165 1.057-.525 1.236-1.71.747-1.632-.273-1.308 3.011.18 2.372-.352 1.236-1.495.28-1.416.69-.56-.654-1-.531-1.336-.08-3.076-1.739-.46 1.15-2.473 4.219-1.214 2.522.984.97-.668 1.33-.82-.56-1.322.021-.92-1.178-2.508.445h-3.356l-.827.69 1.84 1.1-.467.747-.59 2.336.626 3.054-.259.942.137 1.035-1.301.366-.065.934-1.315.518-.086 1.121-.503 2.307-1-.323-.854.524-2.049.345-3.255.956-1.811 1.567-2.437-.259-2.134-.812-1.71 1.89-1.222.927-1.014-.373-1.2.107-.51-1.739-1.301.489-1.545-.568-.08.56-2.07.676-1.286-.215-.912.79-.266 1.797-1.114.208-.431.963.43 1.438-.675.345.31 2.098 1.178-.596 2.336 1.495-.568 1.466.18 1.042-.187 2.422.021 1.186-2.616.028-.043.748 1.366.905 1.624.396.402 1.243 1.179.474.323 1.998-.43 1.28.675 1.509 1.042.208 1.459 1.66 3.277 1.538.208-.007.008.014.18-.021.38-.007.165.316-.273.467-.129.41.259.97.028.366-.043.504.158.366.058.597-.058.33.238.525.46.201.769.338.337.417.158.323.439.259.172.309-.1.546-.28.252-.913.143-.1.482.028.474.057.51-.072.389-.23.848.159.64-.015.085.058.065.014.065.115.115v-.015l1.128 1.352-.007.057-.388-.172-.122.337-.18.223-.064.209.115.194.186.079.13.445-.122.295-.151.093.108.223.007.209-.151.345.057.2-.201.252-.05.324.273-.043.237-.123-.014.123-2.113.416-.374-1.2-1.179-.223-.215 1.402.682 1.797-.057.172-.086-.216-.467-.582-.23-.61-.295.086.022.395.186-.05.28.474.317.525.086.445.036-.043-.093.259.064.92-.273.884-.014.582.431.424-.093.029.208.43.014.41.123.26.682.28h.302l.194.014.87.855 1.48.388.748 1.157-.194-.222-.043.33-.022.223.237.093.209.266.186-.122.101.158 1.617 1.517 1.172 1.3.495 1.021 2.394-1.61.273.848 1.056.748 2.128 1.487.941 1.344 1.725 1.366.424 1.861 1.114 1.05.949-1.23.84.482-.251 2.099 2.867 1.84 1.258-.123-.122.748.237 1.07 1.294.28 1.509 1 .395 1.171.669-.69.718.798.618.28 1.086-.668 2.335 1.933 1.316-.208.711.51 4.312-.97 1.02.568.03.826-.655 1.437.252.827.41-.05 1.365-1.452 1.639-1.373 2.321-1.064 1.337.453 1.416 1.416 2.652.345 1.696 1.193-.403.87.223.646.446.46 1.042.05.352.374-.05.446-.424.54.014.488.266.208.144.525-.044.194.884.029.892-.166.69-.222.625.474.783.029.798.172.783-.1.388.071.223-.064.97-.18.54-.137.18-.769.703-.66.626-.374.66-.712.92-.172 1.575-.324.69-.431.575-.144.481-.287.482-.18.287-.805 2.63-.812.144.323.374.245.64-.007.402-.166.295.489.33.05.1-.107.813.654.906.747.646.252.317.359.028.309 1.574-1.02.13-.432-.144-.575.144-.453-.144-.007.798-.912.84-.295.611.74.906.395.481 1.66.985 2.171.46-.575 1.042.654-.187 1.775.194.776-.108 3.53-.69 1.444.238 1.128-.74.323-.777 1.078-.711.03-.374 1.056-1.43.567-.395 1.33.143.553-.754.252-.352.582.15 1.15.381.424.18.985-.618 1.013.137.575 1.214-.417.676-.69 2.127-.144.553.345 1.179-.122-.826 1.164.61.913.389 2.508.819.719 1.825.022.194.654-.855 1.279.18.992-.719.948-.23.956.827.36.46-.094 2.393.568-.144 1.171.676.712.668 1.35.59-.596 1.077.453 1.143-.941 1.229-.432 1.07 2.753 1.1-.201 1.043.251.215-2.379-1.078-2.91.704-1.337.604.273 1.61-.079.884-.668.683-1.006 1.509.747.539.683.467.036 1.588-1.696.762 1.078.597-1.05 1.459 1.445.402-.963.733-.726.618.575.77-.374 1.623-.625.05-.97 2.207-1.488 1.186 1.143 1.725.927 1.1-.36.74.712.912-.38 1.323.488.028.711-.84.669-.08.776.374.366.417 1.617 1.387.353.74.862 1.71.697 1.553-.431.834.546.769-.302.122.108h.467l.23-.517.64-.18v-1.1l.64-.172.172.697.582.755.345-.353.64.353.64.172.237.927.402-.287 1.394-.295-.23-.985.288-.057.697.87 1.337.115-.288.524-.64.985-.237 1.861.64.173.115 1.336.992.525-.295.23.18.582 1.739-.057.812-.812.058-.353-.813-.812-.172-.812-.64-.23-.23-.754.518-.525.82-.582.574-.058.82-1.106.926-.058.403-.517 1.28-.065.409-.345h.754l.755-.525v-.517l.697-.237.525-.288h1.682l.172-.524.87.23.991-.698h.928l-.094-1.358.223-.489.776 1.007.812-1.05-.294-.733.646.618.345-.064.223-.424-.057-.417-.324-.848-.086-.805-.194-.31.172-.466.468.467.51-.05.223.553.546.503.64-.036-.238.826.582-.057.389.1.646.123-.129-.417.467-.295-.733-.618.776-.309.669.31.064-.87.812-.403.115.87.755-.058.352-.582.812-.755.697-.057.288.172.057.525h.64l.18-.984.23-.295.927.525.87-.64.524-.115.697-.525 1.107-.172.115-1.222.927-.402-.345-.583-.467-.18 1.337-.114.87-.403-.468-.41.41-.582.812.058.172-.812.64.115-.23-1.042.87.23v-.985h.64l.466-.754.46-.468-.287-.582-.525-.46.927-.172.41-.582.697-.352h.985l.294-.403.23-.525-.467-.287-.172-.467 1.222-.058.23-.41-.345-.639.46-.402.467-.41.524-.173-.524-.64.115-.639.41-.46.639.403.517.115.123-.403-.525-.754.525-.82-.295-.517.115-.525-.345-.582.287-.927.41-.525-.237-.402-.87-.755.18-.64.755.116.23.287.172-.927.755-.525.352-.287.057-.812.46-.467-.402-.288h.582l.64-.877-.065-.87.065-.524.402-1.157.352-.812.403-.295.115-1.394.697-.288.18 1.165.632-.877.762-.518-.467-.991-.41-.697.64-.583v-.812l.64-.87-.23-.696.402-.345-.23-.877-.115-1.394-.41.991-.64.058.82-1.107.984-.755.812-.402-.115-.582-1.279-.525-.524.173-.345.819-.583.23-.754-.525-1.042-.812-.877.115-1.1.992-.582.23-1.05-.173-.926-.237-.173-.287.755-.41 1.222-.115.697-.23.057-.697 1.452-1.164 1.042-.755.755-.927.18-.927-.82-.697-1.214-.467-.935-.525-.46-.517-.934-.18-1.1-.173-.115-.64-.87-.172-.933.467-.345.115.402-.64.755-.351 1.106.115.403.582.64.237h1.106l.812.115.813.46 1.049.18.517-.115.18-.353-.64-.87-1.221-1.106-1.1-.287-.41-1.165-1.049-.402-1.157-.295-.41-.287.18-.755-.295-.755-1.394-2.033-.87-1.452-1.106-2.092-.575-.582-1.517-.467-1.33-.402-.524-.582-1.28-.23-.114-1.05.582-.575.115-.991.345-.525.467-1.157.755-.237.172-.575.352-.935.582-.517-.64-.697.346-.352.582.294.755.115.64-.64-.058-1.393.345-.64.524-.115 1.05-.87.754-.524.985-.755.582-.755.64.115.287-.287.64.575.754-.575-.287-.762.23-.575-.058-1.05-.754-.287-.64.345-.755-.345-1.164.46-.927.468-.525-.23-.402-.468-.525.115-.984-.64-.755-.344-.934.345-.985.754-.172.935-1.05.927-.172.984-.755.82-1.624-.18-1.222-.46-.172-2.206-.755-.82-1.107-.287-.697-.525-.64.237-.754.46-.697-.582-.927-.754-.64-1.215-.115-1.51.403-.991.934-.64.517-.115.82.41.575-.295.352-.402h.812l.345-.237.295.122.172-1.164.288-1.05.64-1.042.581-.345v-.524l1.222-.755 1.394-1.05.697-.46.058-1.163.87-1.222.352-.345.115-.755.754-.467 1.157-.057.82-.468.697.18 1.157 1.157.64.467-.403.927-.41.928-.287.876-.934.697-.403.46-.057 1.165-.525.287.812.467.467.41.812-.237-.352.992-.115.575-.64.352-.23.467-.524.057-.23.87.345.402.934-.754.812-.927.928-.64.524-.582.403-.927 1.746-1.567 1.215-.999.582-.057.258-.568 1.064-.194.474-.475 1.251-.115.798-.481.309-1.495 2.134-2.68 2.494-2.114 1.639-2.767.122-1.803 1.294-.906 1.56 1.092 3.348-.445.094-.891-1.222-1.359.208-.754 1.754-.446 1.653-1.092.251-1.502 1.244-.33.115-3.034 1.078-.172.761 1.171 1.086.194-.46-.524.417-.705 1.114-.805.546-2.767-.59-.632-.373-2.609-2.185-3.78 1.186-.568 1.178-2.429.906.345 3.536-.288-.18-2.177.654-.79.18-2.883.424-.977-.417-1.351.115-.92-.137-2.365-.2-.826.323-.783.61-.504.31-1.35-1.064-1.18-.014-1.509-1.1-.474-1.775 1.308-.92 1.265-.898.165-.97.74-.748 1.812-2.286 1.035-1.595.129-1.07.56-1.934-1.559.287-1.179-1.3-1.33-.302-1.43-1.208.417-3.291-1.969-1.042.503-1.926-.876-1.23.79-1.566.086-1.409-1.394-.23-1.524-.833-.345-.295-1.653-2.091-2.156-.087-.999-2.12-2.637-.395-1.409-.949-1.33-1.092-.855-.518-.912-3.04-1.517-1.286.575-4.176-1.308zm20.46 144.305l-.287.446.122.496-.985.366-.697.575-.33.74-.123.906-.531.575-.374 1.358-.41 1.186-.61 1.437-.331 1.193-.122 1.272.079 1.193.33.532.489.74.453 1.316.575.776.697.287.661.166.532.697.33.862v.496l.202.122.539-.165.122-1.107-.244-1.027.287-1.352.82-1.315.452-1.56.244-1.48.166-4.233.165-1.272.201-.33v-.863l-.287-.323-.245-.662.41-.654.165-.373-.287-.324-.82-.208h-.373l-.41-.489h-.575zm-46.326 33.182l-1.107.489-.985.287-1.516.208-.208.367-.74.165-1.194-.2-.287.035-.41.208v.41l-.323.165-.906-.043-.496.33v.49l.575.043-.323.532-.618.165-1.768 1.236-.288.61.166.576-.209.539.209 1.107.287.697.165.984 1.23.54.984.445 1.401-.08.49.454 1.027-.166v-.819l.82-.208.74-.044.043-.445.819-1.028h.496l.532-.251.165-1.064.208-1.437.611-1.316.618-.862.575-.496-.122-.776-.33-.906v-.819l-.331-.122z" fill-rule="nonzero" fill="#F44040"/><path d="M167.735 250.541h-.787l-.434-3.976-.76-5.086.082-3.814.19-8.386-.054-4.517.054-1.731 3.31-.217 6.35-.595 2.441-.216-.027.595.217 1.515.95 2.137 1.031 4.328.488 1.352.38 1.813.543 1.758.733.92.135.973.489.19.054.46-.461 1.298-.217 1.38.434 1.217.108 1.407-.271.703.244.297.407.217.136.595-1.52-.027-1.818.162-6.973.785-2.849.405-.108 1.082.542.541.679.487.08 2.056-1.41.676-.733-.08.733-.515v-.27l-.841-1.623-.624-.162-.407 1.19-.353.73-.163-.054zm-11.179-32.542l1.004-.27-.244.838-.326 1.136-.081.568-1.14.65.38 1.082-.244 1.109-.57.378-.054.893-.678.298-.787 1.569.135.46.028.46-.679.297-1.085 1.515.217.595-.733.622-.298 1.596-.19.65.38.594-.407.379.461.839.081 1.027-.244.514-7.271.217-6.838.054-.109-2.732-.787-.325-.814.325-.57-.433-.08-10.333-.38-2.949-.028-2.3-.407-1.866 6.404-.08 6.322-.19 8.655-.325.489.785-.163.622-.841.703-.244.839 1.736.19zM33.86 229.793l.705-.595 1.004-.108.461-.65.245-.81-1.059-.11-.135-.215.162-.433.028-1.57.515-.243.814-.784.136-1.326.434-.973.434-.487.923-.433.46-.325.11-.649-.3-.243-.189-.298-.298-1.488-.76-1.352.108-.893.407-.65.136-3.38.081-.406.082-1.84.57-.46.298-.027.326.298.705.108.326.703.76.055.57-1.028.705-4.464.054-.297 16.47 2.975 6.675.974-1.194 8.386-1.9 14.364-1.627 10.712-6.892-.73-3.338-.65-4.558-2.705-3.989-2.326-3.283-2.056-5.128-2.895-.136-.27.082-.406zm-3.365-1.028l-5.345-.73-2.714-.406-.135-.487V224.6l-.082-.865-.705-1.136-.217-.622-1.058-1.137-.787-1.27-.733-.055-.868-.216-.082-.27.407-.163-.162-.866-.407-.568-1.303-.216-1.058-.568-.298-.623-.706-1.298-.787-.839h-.787l-1.058-.568-1.22-.487-1.14-.135-.652-.73.136-.514.488-1.92.218-.515v-.649l-.435-.27-.135-.785-.407-.703-.923-1.57-.353-.838-.407-1.271-.434-1.434-.868-1.19-.136-.784.217-1.055h.299l.57-.433.298-.974-.271-.73-.733-.136-.515-.703-.57-1-.054-2.219.162-.514.163-.622.136-.65-1.547-1.704v-.568l.082-.135.081-.865-.353-1.082-.624-1.299-.732-1.217-.489-1.055.272-1.001.162-1.569.489-.839.081-1.758-.298-.974-.434-1.136L1 174.15l.217-.866.407-1.136.488-.216.082-.298.841-.703 1.411-3.192.054-2.002.459-1.325 10.498 3.192 6.946 1.785-2.17 8.467-2.353 8.954 3.427 5.193 11.44 16.853 4.639 7.06-.109.839.76 1.406.299 1.461.271.406.19.162-.054.379-.38.27-.923.433-.515.568-.462 1.055-.135 1.272-.706.676-.624.297-.027 1.678-.163.514.272.46.814.08-.109.433-.38.541-1.058.163-3.853-.244zm-20.052-13.227l.353.405-.054.352-.868-.027-.163-.325-.163-.405h.895zm.516 0l.326-.163.976.568.842.325-.245.162-1.22-.054-.435-.433-.244-.405zm5.617 5.356h-.028v-.325l.299-.054.733.54.27.488-.162.406-.407-.163-.217-.27-.488-.622zm-.38 2.353l.488.866.326.514-.407.054-.353-.325s-.19-.406-.19-.514v-.595h.136zm84.168-35.166l-1.547 23.264-3.88-.163-9.415-.811-10.175-1.19-9.226-1.055.516-3.706 1.9-13.634.596-5.978 21.463 2.326 9.768.947zm128.016-12.064l-1.357.92-.461-.596.244-.568v-2.245l-.407-1.975-.163-.838 5.915-1.272 1.167-.297.434 1.623.217 1.19.163 1.136-1.9.947-1.41.297-.733.406-.217-.162-.516.568-.976.866zm-4.776 15.23l.624 1.974-1.628.297-1.357.081-1.003-4.355-.625-1.515-.38-1.109.055-.08.543-.46.46-.271.164-.027-.028.297-.135.623-.136.54.57.974.624.27.516.975.488 1.271.977.65.271-.136zm-22.846 53.56l1.41.08.625 1.975 1.004 2.624 1.438 2.543 1.004 1.704 1.302 1.488 1.085 1 .435.785-.299.352-.19.378.787 2.002.787.785.705 1.433.977 1.57 1.221 2.217.353 2.056.136 3.246.162.487-.081.92-.651.352.081.514-.163.514.082.649.135.514-.732.865-.841.406-1.059.054-.407.433-.65.27-.353-.135-.299-.27-.081-.785-.217-.92-.923-1.406-.977-.622-1.058-.081-.217.351-.841-1.19-.163-.974-.705-1.082-.489-.297-.434.568-.488-.081-.57-1.353-.787-1.055-.787-1.434-.705-.838-.977-1.001.57-.65.868-1.487-.054-.433-1.221-.27-.435.162.082.162.705.27-.407 1.218-.217.135-.488-1.082-.353-1.298-.081-.73.407-1.272v-2.57l-.814-1-.353-.84-1.411-.35-.515-.163-.435-.703-.922-.433-.299-.92-.732-.27-.651-1.001-1.14-.406-.787-.406h-.705l-1.086.217-.054.514.217.27-.136.298-.84-.055-1.005.974-.976.514h-1.059l-.868.352-.081-.73-.434-.514-.787-.298-.434-.406-2.198-1.055-2.062-.487-1.194.163-1.628.135-1.628.568-.896.162-.081-2.272-.787-.54-.434-.434.081-.757 9.605-1.136 1.791-.136h1.601l.679 1.137.46.46 2.226.08 8.791-.513 1.438-.19h1.113l.054.758 1.112.27.109-1.406-.407-1.19.19-.217 1.41.19zm4.802 35.895l.652-.162.352-.054.407-.622.624-.433.353.135.461.081.109.298-.95.325-1.14.405-.623.325-.245-.298zm3.663-1.352l.652-.406.922-.514 1.194-1.136.868-1.434.407-1.244.272-.757.19-.136-.055.92-.271.46-.678 1.785-1.004 1.055-1.438 1.136-.733.568-.326-.297zm-8.465-34.814l-1.52-.19-.38.433.434 1.272-.08 1.055-.598-.163-.054-.811h-1.411l-1.438.19-8.764.513-2.09-.081-.38-.325-.678-1.163-.217-.893-.434-.243-.136-.135.245-.595-.109-1.488-.434-1.217.217-1.326.461-1.298-.054-.677-.516-.189-.108-.866-.76-.946-.515-1.677-.407-1.894-.462-1.298-1.03-4.329-.95-2.164-.217-1.433.027-.622.895-.082 3.69-.432 5.047-.541 1.71-.298.135.379-.597.243-.244.595.109.541.38.433 1.166.73.868-.027.869 1.272.162.433.625.757.135.46 1.276.487.814.595.624.811.624.352.542.487.38.73.57.514 1.112.487.733 1.623.461 1.38.76.19.57.513.543 1.542.786.433.462-.217.108.325-.895 1.677.135.704-.407 1.136-.624 2.705.217 1.704-1.383-.081zm-52.476-70.494l.57.568.08.19-.542.81.081 1.083.706 1.109.841.433.651.08.244.488.055.649.678.27.244.298.136.433 1.031.893.163.514-.19.811-.461 1-.163.65-.57.433-.434.135-1.547.406-.434 1.298.217.487.461.406-.054.947-.515.379-.19.486v.65l-.38.108-.461.379-.136.46.108.46-.352.27-.624-.73-.38-.758-2.252.216-2.714.163-13.35.324-.433-1.163-.109-1.812-.38-1.136-.19-1.407-.597-1-.271-1.245-.733-2.11-.298-1.515-.38-.514-.353-.784.462-1.028.325-1.65-.732-.596-.082-.649.19-.649.488-.081 16.579-.162 5.752-.19.245.893zM44.766 131.85l3.528.695-1.194 5.822.868 2.05-.353 1.252.543 1.34.868.413 1.248 2.768.706.936.163.319.922.31.109.526-1.9 4.633.055.839.787.92.46.054 1.385-.947.054-.108.081.027.027 1.271.733 3.544.895.703.679.785-.19.784.19 1.082.542.298.652-.541.65-.054.923.405.679-.189 1.03-.027 1.059.433.868-.136.19-.703.57-.27.217.297.109.704.732.649-1.03 6.519-1.33 7.899-9.443-1.65-10.718-2.137-5.616-1.218 2.388-9.549.325-1.136.651-1.569-.298-.622-.706.027-.162-.27.108-.298.109-.838 1.166-1.434.489-.216.325-.298.245-.784 1.22-1.786 1.059-1.19.054-1.058-.95-.72-.325-1.2.108-2.616.923-4.388 1.22-5.642 1.303-4.71zm120.31 50.495l.054.244.245 3.165.38 4.139.298 4.274.19 1.947-.217 1.434.081.893.489.865.135 1.434-.678 1.082-.488 1.028-.679.811-.108 1.326v1.082l-.272.73-.325.352.217.54.135.353-.922.324-.651.433-.109.757.326.73v.298l-.136.054-1.655-.676-.76.27-.65.46-.272.596-.434.08-.462-.567-.407-1.028.245-.758-.543-.92-.597-1.379-1.302-.216-1.737-1.434-.543-1 .217-.812.597-1.678.19-.946-.732-.38-1.791-.161-.19-.325v-1.19l-1.547-1.001-1.9-2.056-.623-1.893-.082-1.055.245-.758.434-.352-.109-.54.109-.325.38-.325.488-.162v-.757l.136-.352.57-.433.054-1.163-.516-.487-.163-.298.353-1.109 1.411-.351.516-.163.65-.514.218-.73.461-1 .19-.893-.19-.65-1.058-.92-.109-.378-.298-.379-.597-.243-.054-.568h3.337l4.721-.27 4.315-.488.108 1.488.407.703.434.487.353 1.001.217.703zm1.14.487l.407.27.298-.08.57-.514.678-.487 3.88-.298 4.993-.487.434 4.193 1.33 11.524-.163.784.353.433.054.352-.624.432-.977.46-.868.109-.136 1.298-1.275.974-.787 1.082.054.65-.135.378h-.95l-.38-.46-1.411.811.054.839-.244.054-.136-.243-.65-.46-.978.406-.38.784-.325-.162-.434-.487-1.194.135-1.547.27-.678.352v-.703l.109-1.271.624-.785.488-1.055.733-1.136-.136-1.569-.488-.839-.082-.865.217-1.434-.19-1.92-.244-3.409-.678-8.142.814.216zm-37.173 11.74h1.41l.95.92.706.054.217.19v.568l-.461.378-.163.812.624.974.651.811.679.541.325 3.003-.19 9.467-3.419.082-12.562-.163-12.129-.568-6.593-.27 1.166-17.53 5.888.244 11.016.325 11.885.162zm32.913 19.558l-3.012.054.57-.46.651-.352.027-.892.244-.487-.46-.65.216-.486.543-.379.624-.243 1.655.676.434-.108v-.595l-.325-.65.108-.595.516-.378 1.14-.38-.408-1 .272-.27.325-.92.76-.352 1.52-.27 1.003-.109.38.433.597.27.489-.946.732-.298.461.325.217.379.652-.163-.055-.892 1.059-.595.352.351 1.221.027.245-.622-.055-.595.706-1 1.33-.975.135-1.217.705-.108 1.031-.487.76-.541-.081-.568-.326-.406.136-.568 1.14-.054.57-.217.786.406.489 1.218 1.519.027.488.54h.625l.65-.378.68.135.515.46.678-.73.543-.325.352-.054.136.622.516.298.705.54.054 1.65.244.515.706.378.136.596.814 1.027.678.73.895.542-.57.649-1.112.974-1.628 2.11-.027.514-1.058.568-1.52.974-12.237 1.163-8.249.865h-1.166l-.027 1.11-3.42.189zm-21.788 41.685l-1.276.406-.054-1.001.353-.812.217-1.974.136-.704-.326-.649.76-1.244.19-2.246-.163-.216-.082-.838-1.166-1.624-.245-1.19-.705-1.217-.136-1-.19-2.57-.108-2.625 6.838-.027 7.163-.216-.027.19.108 1.379.543 1.217-.027.514.597.541-.109.541-.38.108.244.704-2.333 4.003-.217 2.3.217.649 8.981-.379.353-.054.054.135-.271 1.975.922.92.597 1.758-.515.46-.489.514.272.487.84.162.164-.703.515-.569.407-.054.082.73.352.515-.488.838h-.868v.136l.488.27-.054.162-.624-.08-.299.73.868.622 1.574.216.923.73h.352v.406l-.624.839-.298-.27h-.787l-.271-.406-1.086-.514-1.14-.163-.162-.838-.163-.217-.298.352-.57.135.054.406-.217.433.57.08-.217.136-.624.92-.923.352-.163-.163.625-.216-.218-.785-.352-.27-.489.406-.705.162-.272.65-.976.35-2.28-.973-.434-.433.353-.216.217-.433-.488-.487-1.221-.081-.082-.622-.407-.65-.868-.162-.488.27-.489-.405-.84.27-.218.406.733.433.705-.135.868.297-.217.568-.868-.27-.868-.298-1.004.406-1.764-.297-2.795-.974-2.197.08zm97.843-84.777l-.57.244-.787-1.272-.922-1.163-.543-.433-3.039.758-5.97 1.298-.19-1.325.164-2.868 3.744-.676 4.965-1.271.489-.785 1.004-.487.787 1.19-.652 1.407-.08.406.515.703.298-.216h.488l.625.703 1.058 1.623.977.135.624-.27.488-.487-.217-.73-.57-.433-.407.216-.271-.351.135-.136.57-.054.489.217.515.649.272.784.081.65-1.14.405-1.058.514-1.058 1.218-.516.405v-.27l.652-.406.135-.487-.217-.838-.787.405-.217.406.136.622zm3.392.379l.597-.19.135-.46.272.028.27.622-.352.135-1.058.027.136-.162zm-2.55.216l.623-.703h.434l.489.406-.652.27-.596.27-.299-.243zm-15.141 24.184l-2.008.784-.272-.108-.868-1.136-.434.216-1.058-.135-.706-.92.082-.92.434-.351-.434-.487-.299.514-.135.054-.082-.974.57-.27-.136-1.488-.488-.081-.082-.298.353-1 .407-.434-.135-.27-.516.433-.516.351s-.135.406-.135.568c0 .19-.407.623-.407.623l.353.351.054.568-.353 1.434.57 1.488.651.568v.487l.407.568-.271.568-.57-.081-.841-.27-1.167.026-.922-.297-.543-.352-.082-.216v-.568l.489-.704.19-.892.57-.893-1.004-.676-.57.703-1.574-.568.163-.784-1.302-.433-.353-.379-.516-.487-.732-.379-.407-.297-.57.162-.543.406-.705.568-.706.054-.434-.19-.488.731-.38.406-.679.19-1.302 1.325-.543-2.814 10.203-2.055 6.023-1.164.407 1.245.624 1.487 1.031 4.545 1.574-.081 1.71-.298-.136 1.299-.461 1.028zm-3.935.054l.516-.108.19.622s.19.757.19.838c0 .081-.245.325-.245.325l-.298-.514-.054-.487-.299-.676zm12.346-46.636l.407.109v-.704l.217-1.487.706-1.272.407-1.082-.516-.649v-1.623l.217-.27.217-.73-.054-.407-.054-1.298.488-1.299.787-2.407.57-1.136h.352l.353.054v.297l.353.623.732.162.218-.216v-.271l1.085-.784.488-.487.407.054 1.628.649.516.27 2.469 8.089h1.628l.217.514.054 1.298.787.622h.217l.055-.135-.136-.298.76-.135.515.568.624 1.001v.514l-.57 1.271-.515.163-.923.838-1.302 1.488h-.353c-.163 0-.271-.568-.271-.568l-.489.054-.27.406-.652.406-.271.405.434.406-.136.162-.136.73-.515-.053v-.433l-.082-.352-.407.081-.488-.865-.57.351.353.406.081.298-.217.351.082.839.054.433-.434.703-.787.135-.081.785-1.439.838-.352.136-.434-.406-.842.974.272.865-.407.352-.054 1.19-.299 1.704-.597-.243-.136-.839-1.085-.297-.054-.676-3.175-10.126.353-.046zm9.904 4.22l.407-.405.38.297.162.65-.46.243-.49-.785zm1.818-1.596l.38-.595.542-.19.217.488-.244.216s-.054.46-.054.541c0 .081-.353.054-.353.054l-.488-.514zm-71.768 29.594l-3.528.27.869-.838.08-.73.652-1.407.271-1.623.218-1.272-.407-1.298-.787-1.758-.977-1.623.081-.73.082-.217.217-.65-.136-.297-.163-1.271.434-1.082.299-1.65-.217-.65v-.297l.624-.136.163-.703-.163-.216.054-.27.489-.515.732-.297.271-1.136.516-.217.217.217-.163.649-.352.649v1.136l.162.054.977-.568-.081-1.488-.082-.432.082-.568.407-.487.705-.082.706-.216-.136-.216-.57-.136-.271-.08-.082-.975.787-.622.787-.487.841.623.272.135.162-.163h.733l1.492.92 1.221.406h.706l.353.703.705.595-.054.433-.434-.081-.217.216.217.569.352.216.435.622.081 2.705-.651.433-.163.703-.217.92-.923.352s-.081 1.19-.135 1.352c-.055.162.65.568.65.568l.408.163.298-.163.733-1 .516-1.353 1.058-.487.434-.298.705.487.652.866.624 2.461.868 2.219.108 2.461-.515.27-.217-.053-.054-.163-.299-.162-.407.812-.054.973-.299.082-.434.432.054 1.38-.542.46-.57 1-.054.406-.027.163-3.256.46-2.687.405-.054-.297-5.182.514zm-9.036-19.585l-.353-.297-.488-2.814-1.004-.351-.461-.623-3.419-.757-.76-.298-2.198-.595-2.116-.27-1.058-1.434.19-.135.732-.216.977-.623v-.27l.163-.162 1.628-.27.651-.515 1.194-.568.054-.352.516-.784.488-.217.353-.486.624-.623 1.194-.649 1.275-.135.299.298-.082.27-1.004.27-.407.84-.624.215-.135.65-.652.865-.081.704.217.135.271-.298.977-.784.353.352h.624l.868.27.407.298.407.838.733.73 1.058-.054.407-.27.434.352.434.135.353-.217h.299l.434-.27 1.085-.974.923-.297 1.79-.082 1.221-.514.706-.351.407.054v1.542l.136.08.786.217.516-.135 1.655-.433.299-.297.407.135v1.893l.868.84.353.161.352.27-.352.082-.218-.081-1.003-.135-.57.162-.624-.054-.869.406h-.488l-1.574-.352-1.41.054-.516.703-1.9.163-.65.216-.3.839-.352.297-.136-.054-.407-.433-1.22.65h-.163l-.299-.433-.217.054-.516 1.19-.27 1.082-.87 1.867-.352-.217zm-8.031-15.283l.488-.569.597-.216 1.465-1.055.624-.162.136.135-1.384 1.38-.895.514-.57.243-.461-.27zm23.389 8.683l-.272-.135.082-.298.434-.054.597-.054s.353.46.434.514c.081.027.108.433.108.433l-.352.324-.869-.054-.162-.676zm-55.136-12.825l-.488-1.493 8.167.008.082-2.218.162-.054.625.135.515.216.217 1.488.407 1.65.434.433h1.303l.081.406 1.71.081v.568h1.302l.081-.352.299-.297.624-.162.353.27h.786l1.059.703 1.438.65.65.135.137-.27.407-.136.135.785.706.351.135-.135.353.054v.568l.706.27h.84l.435-.216.868-.865.706-.136.217.487.135.352h.272l.271-.217 2.415-.08.488.838h.163l.19-.298 1.194-.108-.163.622-1.058.487-2.496 1.11-1.303.54-.84.704-.652.973-.624 1.055-.489.217-1.22 1.352-.353.054-1.031.785-.706.811-.054.812.054 2.164-.326.379-1.465 1.082-.597 1.65.76.838.19.73-.407.812-.027 1.055.136 1.894.95 1.028h.867l.543.757.923.244.977 1.433 1.953 1.245.489.568.135 1.623-5.752.19-16.362.161v-9.71l-.19-.866-1.112-.947-.244-.46v-.406l.488-.351.434-.487v-1.434l-.108-1.731-.489-1.975-.488-3.638-.136-2.686-.515-.899-.434-1.36v-2.778l.162-1.058zm34.867 73.553l-.461 1.434-1.113.298-1.41-.136.135-.487.841-.676.217-.838-.597-1.001-8.818.351-6.322.19-6.43.054-.137-1.542.218-10.82-.353-3.138-.706-.568-.65-.812-.57-.865.135-.623.488-.432v-.785l-.38-.297-.705-.054-.841-.812-.814-1.055-.624-.974.027-.595-.353-.703 13.241-.325 2.714-.162 2.089-.216.326.649.705.838-.19.65.136 1.136.624 1.974 1.953 2.11 1.439.947v1.11l.298.513 1.872.162.516.27-.163.812-.597 1.623-.217.893.597 1.136 1.845 1.515 1.248.19.489 1.244.542.865-.244.704.461 1.217.57.676.651-.08.299.432-.19.433v.784l-.516.27-1.14.92-.135 1.596zm3.039 36.194l-.299.217-.596-1.732-.896-.892.271-1.921-.162-.379-.516.081-2.225.19-6.566.19-.136-.407.217-2.218 2.334-4.057-.163-.514.244-.081.19-.839-.624-.541.027-.46-.543-1.217-.108-1.353.054-.243.326-.676-.082-1.137-.407-.757.407-.379-.434-.676.163-.514.271-1.542.814-.676-.217-.622.95-1.38.787-.297-.027-.65-.136-.432.706-1.38.76-.352.054-.865 3.527-.108 5.318-.433 1.302-.081-.054 1.704.054 4.517-.27 12.2.759 5.14.461 4.003-.108.433h-1.411l-.407-.216-.57-.082-1.845.514-.489-.216-.705 1.136zM95.18 143.521l-1.438 15.454-.353 4.111-16.035-1.785-13.296-1.92-.38 3.03-.515-.46-.109-.677-.352-.514-.896.406-.19.676-.624.081-1.03-.433-1.113.027-.652.19-.868-.406-.814.054-.57.514-.244-.162-.19-.92.19-.866-.733-.865-.895-.676-.678-3.409-.027-1.433-.435-.217-.162.27-1.221.866-.326-.027-.624-.757-.054-.758 1.9-4.639-.164-.722-.95-.303-.108-.246-.733-.947-1.248-2.816-.868-.427-.488-1.153.352-1.252-.868-2.048 1.194-5.759 8.873 1.864 4.992.92 8.764 1.433 7.95 1.082 7.923.947 8.358.83-.245 3.842zm115.48 77.616l-3.446-2.083-.84-.216-4.505.568-.434-.812-.76-.595-4.531.135-2.008.244-2.496 1.217-1.845.73-1.764.325-3.636.379.027-1.11.462-.35.732-.19.19-1.028 1.058-.676 1.059-.406 1.22-1.001 1.194-.622.19-.866 1.113-1.028.19.27.678.055.651-.974.462-.108.705.08.488-1.081.679-.65.135-.486.028-.947 1.193.027 10.447-1.515 15.602-3.327.542 1.298.977 1.759.651.649.163.622-.651.054.217.162-.081 1.137-.706.351-.163.568-.352.785-1.004.433-.652-.082-.407-.054-.434-.351.082.351v.27h.515l.217.353-.515 1.704h1.14l.162.433.624-.623.353-.135-.516.974-.84 1.298h-.353l-.299-.135-.733.162-1.41.65-1.764 1.433-.923 1.272-.515 1.758-.136.65-1.275.134-1.384.406-2.768-2.245zm13.377-7.087l.706-.677.868-.703.407-.162.054-.541-.163-1.65-.407-.622-.162-.514.19-.054.732 1.487.109 1.19-.055.92-.922.406-.76.65-.298.324-.299-.054zM125 158.569v.325l-15.439-.46-15.412-1.055 1.276-13.78.244-3.9 6.837.584 7.19.351 5.048.163 7.76.16.488 1.498-.163 1.041v2.816l.434 1.44.516.86.136 2.624.488 3.681.488 1.975.109 1.677zm-.19 21.072l.733-.054.271 1.434.76 2.137.271 1.271.624 1.001.136 1.353.38 1.109.108 1.812.516 1.407.38.73-.028.622.706 1.055.597.812h-1.221l-11.885-.162-11.016-.325-5.888-.27.38-5.708-8.981-.893 1.167-11.821 9.66.595 11.26.65 2.903-.163.597.541 1.628 1.11 1.14-.326 1.003-.108.706-.027.597.325 1.302.406.787.432.136.433.271.622zM236.437 162.6l-.19.217-1.085.514-.461.784-3.745.947-1.384.325-.27-.298.135-.406.054-1.271-.271-.379.054-1.271.217-2.489v-2.326l-.298-.514v-.19l.65-.243 1.059-1.298v-1.163l-.516-.758-.135-2.275.054-.62.407-.513.271.27.163.135.163-.432.19-.022 3.175 10.139.08.811 1.113.298.136.838.733.325-.299.865zM220.7 186.134l.027-.406.733-.352.46-.757.462-.65.895-.865v-.325l-1.655-1.109-.271-.73-.733-.081-.027-.244-.19-.595.597-.297.055-.785-.353-.352.054-.324.516-.839v-.838l.678-.839 1.52.676 1.736.514.678.325.027.487-.135.73.108 1.217-.57.514-.298.27.136.136.732-.081.299-.216.434.92.054 2.542.163.298-.299 1.487-.84 1.759-.733 1.082-.217 1.298-.57.65h-.217l-.082-.731.217-.27-.054-.406-1.085-.163-1.303-.622-.868-.784-.271-.541.19-.703zM70.516 240.532l-4.531-.703-.326 2.597-4.287-.541L63 231.145l1.9-14.39 1.193-8.359 9.226 1.055 10.148 1.19 8.682.758-.081 2.921-.38-.027-2.008 26.429-7.706-.487-10.338-1.001.19 1.704-3.31-.406zm-39.913-69.195l10.5 2.3 7.055 1.406-2.876 14.364-1.465 8.06-.896 4.194-.57 3.002-.705 4.436-.461.839-.434-.027-.326-.703-.76-.136-.353-.297-.488.027-.244.216-.489.352-.08 1.975-.082.405-.136 3.355-.298.487-4.532-6.898-11.423-16.799-3.373-5.14 2.32-8.818 2.174-8.467 7.942 1.867zm195.442 7.141l.136-.73-.055-.65-.814-.405-1.763-.541-1.628-.703-.163-.109-.733-.08-.542-.407-.57-1.596-.895-.135-.652-.65-10.419 2.192-8.574 1.623-.136-1.758.434-.325.353-.297.271-.433.489-.298.515-.487.136-.432.57-.73.298-.271-.054-.27-.353-.84-.488-.054-.516-1.65.787-.487 1.194-.405 1.085-.352.869-.135 1.71-.054.515.351.434.054.57-.351.705-.298 1.411-.135.57-.487.488-.866.434-.513h.57l.516-.298.054-.622-.407-.568-.081-.406.298-.568v-.406h-.488l-.489-.216-.217-.298-.054-.703 1.574-1.488.162-.216.407-.785.787-1.217.733-1 .57-.65.65-.487.842-.325 1.492-.351.869.054 1.22-.406 2.009-.595.19 1.325.65 1.759.218 1.352-.272 1.136.706 1.218.217.54-.244.866 1.004.46.732 2.76v1.568l-.163 2.949.218 1.46.19.974.406 1.975v2.191l-.298.622.57.73.135.244-.515.487.081.352.353-.082.407-.351.624-.703.299-.163.434.163.624.054 2.143-1.055.787-.73.353-.406 1.14.432-.923.974-1.058.785-1.927 1.433-.705.27-1.574.515-1.085.297-.272-.108-.08-1.028zm-48.732 3.03l6.268-.92.597.352.706.406 1.41-.163.923.839.57-.054 1.492-.704.787-.135.868-.216 1.086-1.055.922-1.001 1.058-.622 1.683-1.001 1.166 6.925.163.757-.352.325-.326.487.326.865v1.245l-.136 1.352-.054 1.461-.597 1-.814.894-.57.405-.597-.135-.353.406-.678.974-.299.378v.595l.245.73-.109.109-.19-.054-.271-.298-.272-.189-.515.352-.299 1.136-.027 1.298-.461.406v.568l-.326.162-.542.027-.217-.054-.706-.54-.434-.271-.163-.73-.65.108-.625.378-.488.541-.407-.351-.842-.136-.65.38h-.462l-.488-.542-1.466-.027-.46-1.136-.978-.487-.624.216-1.058.054-1.302-11.117-.462-4.193zm-68.349 33.461l-14.652-.649.109-2.894 11.26.487 12.129.568 12.562.135 3.42-.081-.028 1.163.163 1.84.407 1.785.027 2.326.38 2.949.081 10.17-.515-.324-.923-.243-.814-.46-.461-.595-.624-.163-.543.487h-.977l-.162-.378h-.38l-.733.514-.515-.244h-1.221l-.19.73-.434.19-.814-.217-.923-.351-1.14-.217-.298-.568h-.353l-.515 1.136-.462.082-1.193-.487-.19-.622-.733-.028-.488-.162-.679.568-.57-.19v-.621l-.325-.027-.597-.839-.95-.19-.678.46-.624-.432-1.14-.163-.678-.27-1.031-.135.108-.947-.76-.379-.054.298-.081.054-.434-.027-.407-.514-.244.568h-.245l-.46-.244-1.086-.973-.054-.433.244-4.87.488-6.573zM15.5 167.36l-10.454-3.219-.736-.946.353-1.623.217-2.327.516-.784 2.197-3.409 1.764-3.679 1.357-3.814.868-1.758.868-2.705.624-1.758 1.574-.568.651.135.19.676 1.113.162.556.947-.057 2.51 1.44 1.042 1.7.065.477-.411 1.207.343.299.02 1.313.478.532.387 1.27.078.352-.146.652.428 1.22.13 1.384-.498.299.354 4.016-.1 4.151.939 3.555 1.036.325 1.23.923.674-.055.882-1.003 1.082-1.059 1.542-.217.297-.19.73-.244.217-.515.244-1.276 1.541-.108.893-.163.406.353.487.678-.027.19.351-.651 1.488-.326 1.19-2.388 9.495-4.612-1-7.467-1.759-7.663-1.948zm181.567 9.008l.352-.135 1.547-1.488.19 1.867 9.09-1.759 10.012-2.11.624.623.841.108.543 1.515.65.514.76.108.028.027-.706.865v.84l-.515.838-.055.514.353.351-.054.514-.651.298.271.92.054.297.76.081.244.676 1.601 1.055v.109l-.841.811-.407.595-.461.758-.733.324-.38.081-.57.352-.434.379-6.078 1.163-10.5 2.11-3.066.379-1.059.189-1.383-6.06-1.167-7.005 1.14-.704zm37.172-4.463l-.217-1.19-.434-1.623 1.547-.406.407.352.922 1.163.76 1.19-.76.379-.352-.054-.299.486-.651.514-.76.298-.163-1.11zm-31.095 64.353l-.57-.27-.515-1.515-.678-.622-.679-.135-.407-1.245-.814-1.758-1.14-.487-.515-.487-.325-.703-.652-.541-.624-.352-.597-.784-.868-.65-1.194-.46-.108-.378-.624-.758-.136-.405-1.031-1.461-.923.027-1.058-.676-.325-.325-.055-.379.163-.432.733-.352-.217-.541 1.736-.73 2.497-1.218 1.926-.243 4.45-.135.624.514.488.946 1.248-.216 3.42-.406.732.217 3.392 2.001 2.74 2.246-1.438 1.46-.705 1.65-.136 1.705-.434.216-.299.73-.65.163-.57.973-.733.73-.624.92-.435.217-.976.92-.787.054.271.865-1.357 1.434-.624.433-.597.243zM125 173.366l-.244.865.108.812.706.54-.326 1.462-.488 1.109.407.892.19.298-.353.027-.19-.433-.163-.541-.895-.487-1.303-.406-.678-.351-.787.027-1.058.108-1.031.325-1.438-1.028-.733-.65-2.957.217-11.26-.65-9.66-.594.407-6.709.76-9.197.108-1.353 15.439 1.055 15.439.46v.73l-.353.406-.542.406-.028.595.299.595 1.112.92.136.73v9.711l-.624.109zm54.213 48.285l-3.555.325-6.322.595-10.202.73-3.202.108.244-.162.245-1.217-.326-.974 1.058-.622.109-.677.325-1.163.814-2.57.136-1.514.081-.055 3.338-.054 3.69-.216.027-1.055.95-.027 8.248-.893 14.652-1.406 2.795-.406 2.062-.054.652-.514.352.081-.027.893-.108.432-.652.596-.434.973-.542-.108-.652.244-.597.892-.38-.054-.217-.324-.298.108-1.167 1.082-.217.838-1.14.596-1.166.973-1.031.406-1.194.758-.163.973-.678.136-.543.46-.054 1.298-4.911.568zM73.935 239.504l10.04.974 7.95.514 2.007-26.428 14.76.649-.46 6.303-.272 4.869.054.54 1.194 1.11.543.297h.488l.136-.324.19.243.651.054.299-.162v-.054l.271.135-.109 1.001 1.221.19.652.243 1.14.19.705.486.76-.514.732.163.597.838.217.027v.568l.895.298.679-.568.407.135.57.027.162.568 1.411.541.624-.135.516-1.082h.027l.299.514 1.248.243.922.352.869.27.65-.324.19-.622h.977l.57.27.814-.54h.109l.135.378h1.276l.515-.487.353.108.461.568.896.514.922.27.679.38.732.54.841-.324.57.216.19 5.41.19 2.57.163 1.11.705 1.19.244 1.217 1.14 1.596.081.838.163.217-.19 2.083-.787 1.298.353.703-.135.65-.218 1.947-.352.812.081 1.136-1.52.433-2.686 1.217-.27.514-.706.514-.57.406-.353.216-1.547 1.434-.732.568-1.438.865-1.547.65-1.71.92-.488.405-1.573.974-.923.162-1.058 1.488-1.085.081-.272.514.624.514-.407 1.488-.352 1.217-.299 1.055-.217 1.217.217.65.489 1.893.27 1.65.49.73-.272.406-.841.514-1.547-1.055-1.492-.297-.353.135-.868-.162-1.14-.839-1.41-.297-2.063-.92-.57-1.055-.352-1.758-.869-.514-.162-.623.162-.162.082-.92-.353-.162-.163-.27.353-1.19-.434-.623-.868-.351-.923-1.19-.977-1.786-1.14-.703.055-.514-1.438-3.328-.217-1.136-.489-.514-.054-.405-1.628-1.434-.705-.839v-.297l-.706-.568-1.845-.298-2.008-.162-.841-.622-1.221.487-.977.405-.624.866-.271 1-1.194 1.651-.651.65-.706-.271-.488-.298-.516-.162-1.058-.622v-.163l-.488-.514-1.411-.568-2.008-2.11-.624-1.271v-2.191l-.868-1.758-.136-.73-.434-.271-.299-.568-1.356-.568-.353-.433-1.927-2.137-.352-.866-1.276-.622-.407-1.19-.705-.785-.461-.135-.163-1.46zm47.32 38.331l-.162-1.92-.733-1.948-.163-1.894.407-2.218.896-1.866.95-1.461.868-.974.163.054-1.303 1.786-1.194 1.758-.542 1.785-.082 1.407.244 1.65.706 1.948.136 1.406.054.406-.244.081zm-62.08-70.71l-16.444-2.949.462-2.488.895-4.166 1.465-8.115 2.876-14.31 3.392.676 9.415 1.65-.488 2.868-.597 3.543 8.737.947-.624 5.951-1.9 13.66-.515 3.707-6.675-.974zm164.51-11.01l-.055.758-.787 1.028-.108 1.244.135.92-.488 1.352-.597.514-.407-1.244.109-1.461.434-1.136.19-.893-.027-.46 1.6-.622zm-16.362 12.065l-10.474 1.515-1.302-.027-.597-.082-.678.514-1.981.027-2.795.433-1.818.163 1.113-.704 1.112-.622v-.568l1.547-1.975 1.112-1 .597-.677.977 1.163 1.031.244.733-.27.542-.406.652.324 1.248-.352.461-1.19.651.19.869-.623.434.109.76-.866.054-.73-.217-.325 1.302-2.84.488-1.407.136-1.271.19-.054.298.46.407.324 1.059-.054.461-2.191.814-.162.217-.704.76-.595.298-.568.489-1.163.027-1.244.977.378 1.79.839.082-1.407.922.325-.162.784 2.333.839.38.487-.217.892-.353.352-.136.46.136.65.543.35 1.058.38.787.27 1.33.243.596.569.869.108.244.324-.109 1.272.38.297-.136.514.326.217-.054.378-.733-.027.027.433.624.406.028.379.488.487.136.676-.706.378.434.406 1.574-.46 1.004 1.678-15.439 3.327zm15.819-53.696l-.19-1.325 7.082-1.837.081 1.566.516.73v.974l-.95 1.19-.76.298v.433l.299.487v2.3l-.217 2.515-.055 1.271.272.38-.055 1.162-.162.514.271.298-3.12.568v-1.434l-.787-2.921-.896-.406.19-.703-.244-.623-.678-1.19.271-1.055-.217-1.433-.651-1.759zM17.416 142.69l-.624-1.163-1.113-.19-.108-.649-.679-.162-.787-.135-.488.27-.624-.784.081-.785.733-.08.434-1.083-.705-.297.054-1.001 1.194-.162-.733-.73-.407-1.921.163-.785v-2.137l-.488-.865.624-2.543.57.135.65.785.733.703.869.514 1.22.568.842.162.787.406.922.27.624-.054v-.649l.353-.297.57-.352.081.297.082.487-.625.136-.081.568.488.405.299.65.163.514.407-.054.054-.352-.271-.352-.136-.865.217-.487-.163-.406v-.703l.489-.974-.299-.704-.651-1.298.081-.216.38-.217 1.194.406 2.632.73 2.334.514 5.426 1.542 6.24 1.542 4.071.944-1.302 4.75-1.221 5.635-.923 4.396-.109 2.483-3.5-1.006-4.151-.94-3.935.087-.298-.413-1.547.565-1.058-.114-.705-.484-.462.176-1.126-.068-.466-.357-1.4-.492-.32-.043-1.303-.376-.52.446-1.534-.068-1.25-.906.05-2.367zm2.605-14.986l.542-.054.136.379.407-.433h.624l.217.406-.407.46.163.216-.19.541-.38.108s-.244.027-.244-.054.407-.703.407-.703l-.461-.162-.082.405-.19.163-.407-.623-.135-.649zm124.081 26.402l.787.135.787-.162 2.008-.866.786-.514.57-.216.516.405-.299.298-.515.838-.163.514.271.163.489-.27.298-.055.733.216.163.298.298.054.163-.297 1.085 1.433 2.225.325 2.225.595.706.298 3.337.703.434.622.977.325.461 2.759.434.379.407.243-.298.622-.489.433-.57 1.271-.352.65.054.486.407.082.299-.514.407-.217.217-.622.515-.487.733-1.082 1.14-1.704.217-.135.081.27-.054.622-.787 1.84-.733 1.542-.135.865-.163.704.217.351-.054.73-.516.65-.136.487.163.974.163.92-.407.703-.217.784-.271.839.298.649.163 1.65.434 1.217-.054.812-4.315.487-4.748.27h-3.446l-.19-.406-.787-.108-.705-.351-.624-1.001-.082-.974.543-.785-.136-.378-.57-.595-.216-.893-.163-1.84-.57-.676-1.9-1.217-1.03-1.46-.923-.271-.597-.758h-.868l-.787-.892-.136-1.759.027-1.028.407-.838-.217-.866-.678-.757.488-1.461 1.411-1.028.434-.514-.054-2.19.054-.758.652-.758.271.19zm59.015 39.06l1.574-1.622.705-.217.435-.406.407-.595.298.082.841-.055 1.248-.973.407-.136.353.27.706.325.814.812-.109 1.163-1.465-.703-1.303-.487-.027 1.596-.705 1.542-.787.649-.217.622-.814.135-.461 2.192-.76.054-.299-.27-.325-.542-.597.135-.136 1.38-.488 1.38-1.357 2.975.244.379-.027.54-.597.677-.434-.108-.841.622-.76-.216-.488 1.325-1.031.27-.679-.351-.678.514-.624.19-.868-.217-1.031-1.217-.95-.596-.678-.676-.787-1-.136-.623-.76-.46-.162-.351-.055-1.515.082.027.651-.054.488-.27v-.596l.462-.406.027-1.406.244-.974.298-.19.109.082.271.297.462.136.298-.352-.271-.839v-.432l.84-1.245.326-.351.543.135.706-.487.84-.92.652-1.109.054-1.515.136-1.298v-1.326l-.299-.811.245-.352.217-.19 1.166 5.222 1.167-.217 3.04-.352.65 3.3zM92.982 168.173l-.407 6.87-1.193 11.903-.733-.081-22.602-2.462-7.57-.811.542-3.246 1.872-11.091 1.032-6.546.352-3.03 13.079 1.894 16.035 1.758-.407 4.842zm121.776 24.86l-.299-.433-.271-.217.298-.433.597.406-.325.676z" opacity=".4" stroke-linecap="round" fill-rule="nonzero" stroke="#9BB2CC" fill="#9BB2CC" stroke-linejoin="round"/><g transform="translate(49 51)"><use fill="#05F" xlink:href="#a"/><circle stroke="#FFF" stroke-width="8" cx="8" cy="134" r="12"/></g><path d="M8 134V50.008C8 33.435 21.424 20 37.996 20h327.006" stroke="url(#b)" stroke-width="4" stroke-linecap="round" transform="translate(49 51)"/><g transform="translate(107 51)"><use fill="#0092FF" xlink:href="#c"/><path stroke="#FFF" stroke-width="6" d="M1.514 14.244C3.213 4.654 12.341-3 22.084-3h66.494l-5.092 28.756C81.787 35.346 72.659 43 62.916 43H-3.577l5.092-28.756z"/></g><g transform="translate(107 51)"><use fill="#0092FF" xlink:href="#d"/><path stroke-opacity=".1" stroke="#1290FC" stroke-width="6" d="M1.514 14.244C3.213 4.654 12.341-3 22.084-3h66.494l-5.092 28.756C81.787 35.346 72.659 43 62.916 43H-3.577l5.092-28.756z"/><path stroke-opacity=".07" stroke="#1290FC" stroke-width="12" d="M-1.44 13.72C.512 2.698 10.886-6 22.083-6h70.073L86.44 26.28C84.488 37.302 74.114 46 62.917 46H-7.156l5.716-32.28z"/></g><path d="M142.844 72.57c0 .828-.3 1.494-.899 1.996-.599.503-1.437.804-2.515.903v1.601h-1.07V75.5c-1.271-.026-2.386-.25-3.344-.672v-2.062c.453.224.998.421 1.636.593a8.757 8.757 0 0 0 1.707.305v-2.422l-.523-.203c-1.031-.406-1.762-.848-2.191-1.324-.43-.477-.645-1.067-.645-1.77 0-.755.296-1.376.887-1.863.59-.487 1.415-.783 2.472-.887V64h1.07v1.164c1.193.052 2.272.292 3.235.719l-.734 1.828a8.445 8.445 0 0 0-2.5-.61v2.305c1.015.39 1.738.73 2.168 1.016.43.286.744.601.945.945.2.344.3.745.3 1.203zm-2.352.118a.702.702 0 0 0-.265-.555c-.178-.151-.443-.307-.797-.469v1.945c.708-.12 1.062-.427 1.062-.921zm-3.14-4.743c0 .23.079.418.238.567.159.148.415.3.77.457v-1.836c-.673.099-1.008.37-1.008.812zm15.625 4.625c0 .828-.3 1.494-.899 1.996-.599.503-1.437.804-2.516.903v1.601h-1.07V75.5c-1.27-.026-2.385-.25-3.344-.672v-2.062c.454.224 1 .421 1.637.593a8.757 8.757 0 0 0 1.707.305v-2.422l-.523-.203c-1.032-.406-1.762-.848-2.192-1.324-.43-.477-.644-1.067-.644-1.77 0-.755.295-1.376.887-1.863.59-.487 1.415-.783 2.472-.887V64h1.07v1.164c1.193.052 2.271.292 3.235.719l-.734 1.828a8.445 8.445 0 0 0-2.5-.61v2.305c1.015.39 1.738.73 2.167 1.016.43.286.745.601.946.945.2.344.3.745.3 1.203zm-2.352.118a.702.702 0 0 0-.266-.555c-.177-.151-.442-.307-.797-.469v1.945c.709-.12 1.063-.427 1.063-.921zm-3.14-4.743c0 .23.079.418.238.567.159.148.415.3.77.457v-1.836c-.673.099-1.009.37-1.009.812zm15.624 4.625c0 .828-.3 1.494-.898 1.996-.599.503-1.438.804-2.516.903v1.601h-1.07V75.5c-1.27-.026-2.385-.25-3.344-.672v-2.062a9.01 9.01 0 0 0 1.637.593 8.757 8.757 0 0 0 1.707.305v-2.422l-.523-.203c-1.032-.406-1.762-.848-2.192-1.324-.43-.477-.644-1.067-.644-1.77 0-.755.295-1.376.886-1.863.591-.487 1.416-.783 2.473-.887V64h1.07v1.164c1.193.052 2.271.292 3.235.719l-.735 1.828a8.445 8.445 0 0 0-2.5-.61v2.305c1.016.39 1.739.73 2.168 1.016.43.286.745.601.946.945.2.344.3.745.3 1.203zm-2.351.118a.702.702 0 0 0-.266-.555c-.177-.151-.443-.307-.797-.469v1.945c.709-.12 1.063-.427 1.063-.921zm-3.14-4.743c0 .23.079.418.237.567.16.148.416.3.77.457v-1.836c-.672.099-1.008.37-1.008.812z" fill="#FFF"/><path d="M281 28h65m10 0h1m6 0h9" stroke="url(#e)" stroke-width="4" opacity=".8" stroke-linecap="round" transform="translate(49 51)"/><g transform="matrix(-1 0 0 1 1239 51)"><use fill="#05F" xlink:href="#f"/><circle stroke="#FFF" stroke-width="8" cx="358" cy="118" r="12"/></g><g transform="matrix(-1 0 0 1 1239 51)"><use fill="#FFF" xlink:href="#g"/><circle stroke="#0C55FB" stroke-width="4" cx="358" cy="118" r="6"/></g><path d="M.998 112V49.997C.998 33.43 14.422 20 30.994 20H358" stroke="url(#b)" stroke-width="4" stroke-linecap="round" transform="matrix(-1 0 0 1 881.998 51)"/><g transform="translate(746 51)"><use fill="#0092FF" xlink:href="#h"/><path stroke="#FFF" stroke-width="6" d="M1.514 14.244C3.213 4.654 12.341-3 22.084-3h66.494l-5.092 28.756C81.787 35.346 72.659 43 62.916 43H-3.577l5.092-28.756z"/></g><g transform="translate(746 51)"><use fill="#0092FF" xlink:href="#i"/><path stroke-opacity=".1" stroke="#1290FC" stroke-width="6" d="M1.514 14.244C3.213 4.654 12.341-3 22.084-3h66.494l-5.092 28.756C81.787 35.346 72.659 43 62.916 43H-3.577l5.092-28.756z"/><path stroke-opacity=".07" stroke="#1290FC" stroke-width="12" d="M-1.44 13.72C.512 2.698 10.886-6 22.083-6h70.073L86.44 26.28C84.488 37.302 74.114 46 62.917 46H-7.156l5.716-32.28z"/></g><path d="M778.516 70.703L780.578 66h2.445l-2.992 5.836h1.524v1.39h-1.922v1.079h1.922v1.39h-1.922v1.727h-2.242v-1.727h-1.93v-1.39h1.93v-1.078h-1.93v-1.391h1.484L774 66h2.469l2.047 4.703zm10.132 0L790.711 66h2.445l-2.992 5.836h1.524v1.39h-1.922v1.079h1.922v1.39h-1.922v1.727h-2.243v-1.727h-1.93v-1.39h1.93v-1.078h-1.93v-1.391h1.485L784.133 66h2.469l2.046 4.703zm10.133 0L800.844 66h2.445l-2.992 5.836h1.523v1.39h-1.922v1.079h1.922v1.39h-1.922v1.727h-2.242v-1.727h-1.93v-1.39h1.93v-1.078h-1.93v-1.391h1.485L794.266 66h2.468l2.047 4.703z" fill="#FFF"/><path d="M12 12h9m13 0h76m6 0h2" stroke="url(#e)" stroke-width="4" opacity=".8" stroke-linecap="round" transform="translate(523 51)"/><path d="M482.241 48.042h29.806l-16.08 39.049c-2.227 5.407-7.521 8.94-13.399 8.94h-29.806l16.08-39.049c2.227-5.408 7.521-8.94 13.399-8.94" fill="#94C5FF"/><g transform="translate(460.52 48.025)"><mask id="k" fill="#fff"><use xlink:href="#j"/></mask><path d="M52.852-1.67L33.479 22.837c-2.734 3.621-6.874 5.977-11.741 5.977H-.982L7.491 8.948C9.722 3.545 15.866-1.67 21.74-1.67h31.112z" fill="#1A32AF" mask="url(#k)"/></g><path d="M472.36 24.013h29.806l-16.08 39.048c-2.227 5.408-7.521 8.94-13.399 8.94h-29.806l16.08-39.048c2.227-5.408 7.522-8.94 13.4-8.94" fill="#0092FF"/><g transform="translate(450.713 24.012)"><mask id="m" fill="#fff"><use xlink:href="#l"/></mask><path d="M52.779-1.686L33.406 22.819c-2.734 3.621-6.874 5.977-11.741 5.977h-22.72L7.418 8.93C9.65 3.528 15.793-1.687 21.667-1.686h31.112z" fill="#1A32AF" mask="url(#m)"/></g><path d="M462.48.018h29.805l-16.08 39.049c-2.227 5.408-7.52 8.94-13.398 8.94H433l16.08-39.049c2.226-5.407 7.52-8.94 13.398-8.94" fill="#05F"/></g></svg>