<?xml version="1.0" encoding="utf-8"?>
<!-- Generator: Adobe Illustrator 17.0.0, SVG Export Plug-In . SVG Version: 6.00 Build 0)  -->
<!DOCTYPE svg PUBLIC "-//W3C//DTD SVG 1.1//EN" "http://www.w3.org/Graphics/SVG/1.1/DTD/svg11.dtd">
<svg version="1.1" id="Слой_1" xmlns="http://www.w3.org/2000/svg" xmlns:xlink="http://www.w3.org/1999/xlink" x="0px" y="0px"
	 width="225.208px" height="54.003px" viewBox="0 0 225.208 54.003" enable-background="new 0 0 225.208 54.003"
	 xml:space="preserve">
<g>
	<defs>
		<rect id="SVGID_1_" y="0" width="225.208" height="54.003"/>
	</defs>
	<clipPath id="SVGID_2_">
		<use xlink:href="#SVGID_1_"  overflow="visible"/>
	</clipPath>
	<path clip-path="url(#SVGID_2_)" fill="#999999" d="M12.938,34.495c-0.032-0.107-0.06-0.226-0.093-0.331l-1.577-5.715
		c-0.225-0.7-0.602-1.269-1.133-1.71c-0.532-0.441-1.252-0.661-2.159-0.661H0l6.758,21.505L12.938,34.495z M43.871,0h-8.435
		c-0.881,0-1.642,0.247-2.281,0.739s-1.101,1.036-1.387,1.632l-0.4,0.864l0.006-0.008L8.67,53.669l0.015,0.048h9.446L43.871,0z"/>
	<path clip-path="url(#SVGID_2_)" fill="#999999" d="M46.048,53.691h4.913l-6.59-28.409h-6.513l-13.57,28.409h4.991
		c0.507,0,0.968-0.14,1.384-0.419c0.416-0.28,0.696-0.602,0.839-0.965l7.214-17.51c0.065-0.156,0.172-0.396,0.322-0.721
		c0.149-0.325,0.305-0.676,0.468-1.053c0.162-0.377,0.328-0.764,0.497-1.16c0.169-0.396,0.305-0.751,0.41-1.063
		c0.09,0.572,0.204,1.206,0.341,1.901c0.136,0.696,0.263,1.382,0.38,2.057l1.384,8.112h-4.759l-1.736,4.328h7.236l0.878,5.109
		c0.065,0.416,0.263,0.75,0.594,1.004C45.063,53.564,45.502,53.691,46.048,53.691 M75.373,31.6l2.223-2.574
		c-0.416-0.598-0.904-1.144-1.462-1.638c-0.56-0.494-1.193-0.919-1.902-1.277c-0.708-0.357-1.501-0.637-2.378-0.839
		c-0.878-0.201-1.85-0.302-2.915-0.302c-1.417,0-2.776,0.185-4.075,0.556c-1.3,0.371-2.516,0.9-3.647,1.589
		c-1.131,0.689-2.161,1.528-3.09,2.515c-0.93,0.988-1.726,2.1-2.389,3.334c-0.663,1.236-1.176,2.581-1.54,4.037
		c-0.364,1.456-0.546,2.996-0.546,4.621c0,1.755,0.244,3.389,0.731,4.903c0.488,1.515,1.206,2.825,2.155,3.929
		c0.948,1.105,2.115,1.973,3.5,2.603c1.384,0.631,2.973,0.946,4.767,0.946c2.158,0,4.085-0.38,5.781-1.141
		c1.697-0.76,3.162-1.874,4.397-3.344l-2.223-2.671c-0.065-0.091-0.165-0.172-0.302-0.243c-0.136-0.072-0.309-0.108-0.517-0.108
		s-0.403,0.056-0.585,0.166c-0.182,0.111-0.377,0.251-0.584,0.419c-0.209,0.169-0.443,0.354-0.702,0.556
		c-0.261,0.202-0.579,0.387-0.956,0.556c-0.377,0.169-0.829,0.309-1.355,0.419c-0.526,0.11-1.147,0.166-1.862,0.166
		c-0.819,0-1.579-0.172-2.281-0.517c-0.702-0.344-1.307-0.845-1.814-1.502c-0.507-0.656-0.906-1.459-1.199-2.408
		c-0.292-0.948-0.439-2.027-0.439-3.236c0-1.664,0.215-3.169,0.644-4.514c0.429-1.345,1.024-2.489,1.784-3.432
		c0.76-0.942,1.657-1.667,2.691-2.174c1.033-0.507,2.148-0.76,3.344-0.76c0.611,0,1.14,0.052,1.589,0.156
		c0.448,0.104,0.835,0.231,1.16,0.38c0.325,0.149,0.604,0.315,0.838,0.497c0.234,0.182,0.445,0.348,0.634,0.497
		c0.188,0.15,0.374,0.277,0.556,0.381c0.182,0.104,0.383,0.156,0.604,0.156c0.338,0,0.611-0.072,0.819-0.215
		C75.035,31.944,75.217,31.782,75.373,31.6 M100.759,31.6l2.223-2.574c-0.416-0.598-0.904-1.144-1.462-1.638
		c-0.559-0.494-1.193-0.919-1.901-1.277c-0.709-0.357-1.502-0.637-2.379-0.839c-0.877-0.201-1.849-0.302-2.915-0.302
		c-1.417,0-2.775,0.185-4.075,0.556c-1.3,0.371-2.516,0.9-3.646,1.589c-1.131,0.689-2.162,1.528-3.091,2.515
		c-0.929,0.988-1.726,2.1-2.388,3.334c-0.663,1.236-1.177,2.581-1.541,4.037c-0.364,1.456-0.546,2.996-0.546,4.621
		c0,1.755,0.244,3.389,0.731,4.903c0.488,1.515,1.206,2.825,2.155,3.929c0.949,1.105,2.116,1.973,3.5,2.603
		c1.384,0.631,2.973,0.946,4.767,0.946c2.158,0,4.085-0.38,5.781-1.141c1.697-0.76,3.162-1.874,4.397-3.344l-2.223-2.671
		c-0.064-0.091-0.165-0.172-0.302-0.243c-0.136-0.072-0.309-0.108-0.516-0.108c-0.208,0-0.403,0.056-0.585,0.166
		c-0.183,0.111-0.377,0.251-0.585,0.419c-0.208,0.169-0.442,0.354-0.702,0.556c-0.26,0.202-0.579,0.387-0.956,0.556
		c-0.377,0.169-0.828,0.309-1.355,0.419c-0.526,0.11-1.147,0.166-1.862,0.166c-0.819,0-1.579-0.172-2.281-0.517
		c-0.702-0.344-1.306-0.845-1.813-1.502c-0.507-0.656-0.907-1.459-1.2-2.408c-0.292-0.948-0.438-2.027-0.438-3.236
		c0-1.664,0.214-3.169,0.643-4.514s1.024-2.489,1.784-3.432c0.761-0.942,1.658-1.667,2.691-2.174c1.033-0.507,2.148-0.76,3.344-0.76
		c0.611,0,1.141,0.052,1.589,0.156s0.835,0.231,1.16,0.38c0.325,0.149,0.605,0.315,0.839,0.497c0.234,0.182,0.445,0.348,0.633,0.497
		c0.188,0.15,0.374,0.277,0.556,0.381c0.182,0.104,0.383,0.156,0.604,0.156c0.338,0,0.611-0.072,0.82-0.215
		C100.421,31.944,100.603,31.782,100.759,31.6 M111.249,53.691l3.471-28.409h-6.396l-3.47,28.409H111.249z"/>
	<path clip-path="url(#SVGID_2_)" fill="#999999" d="M140.101,30.645l1.248-1.521c-0.468-0.559-0.972-1.066-1.511-1.521
		c-0.54-0.455-1.141-0.845-1.804-1.17c-0.663-0.325-1.397-0.572-2.203-0.741c-0.806-0.169-1.703-0.253-2.691-0.253
		c-2.054,0-3.971,0.4-5.752,1.199c-1.78,0.799-3.331,1.924-4.65,3.373c-1.319,1.45-2.356,3.182-3.11,5.196
		c-0.754,2.015-1.131,4.238-1.131,6.669c0,1.781,0.244,3.412,0.733,4.894c0.486,1.482,1.188,2.759,2.104,3.831
		c0.917,1.073,2.038,1.908,3.364,2.506c1.326,0.597,2.82,0.896,4.484,0.896c2.119,0,3.974-0.367,5.567-1.101
		c1.592-0.734,2.999-1.764,4.221-3.09l-1.267-1.58c-0.052-0.065-0.117-0.12-0.195-0.165c-0.078-0.046-0.176-0.069-0.293-0.069
		c-0.143,0-0.305,0.072-0.486,0.215c-0.183,0.143-0.408,0.318-0.674,0.526c-0.266,0.208-0.579,0.439-0.936,0.692
		c-0.358,0.254-0.789,0.485-1.296,0.693s-1.091,0.383-1.755,0.526c-0.663,0.143-1.424,0.214-2.281,0.214
		c-1.106,0-2.119-0.214-3.042-0.643c-0.923-0.429-1.719-1.043-2.388-1.842c-0.669-0.8-1.193-1.771-1.57-2.916
		c-0.377-1.143-0.566-2.437-0.566-3.88c0-1.989,0.277-3.782,0.829-5.381c0.552-1.599,1.31-2.961,2.272-4.085
		c0.961-1.124,2.099-1.989,3.412-2.593c1.312-0.605,2.723-0.907,4.231-0.907c1.131,0,2.05,0.13,2.759,0.39
		c0.708,0.26,1.287,0.543,1.735,0.848c0.449,0.306,0.802,0.588,1.064,0.848c0.259,0.26,0.506,0.39,0.74,0.39
		c0.195,0,0.357-0.042,0.487-0.127C139.88,30.882,139.997,30.775,140.101,30.645 M146.643,53.692l3.471-28.721h-3.471l-3.471,28.721
		H146.643z M160.143,40.248c0.013-0.28,0.019-0.549,0.019-0.809c0-1.885-0.403-3.322-1.208-4.31
		c-0.806-0.987-1.957-1.481-3.452-1.481c-1.312,0-2.596,0.393-3.851,1.179c-0.46,0.289-0.901,0.646-1.331,1.036l-0.225,1.958
		c0,0,0.28,0.62,1.009,0.066c0.212-0.162,0.863-0.666,1.308-0.895c0.617-0.319,1.218-0.478,1.804-0.478
		c0.857,0,1.484,0.26,1.881,0.78c0.396,0.52,0.595,1.313,0.595,2.379c0,0.221-0.01,0.451-0.029,0.692
		c-0.02,0.24-0.043,0.49-0.069,0.75l-1.482,12.577h3.471l1.483-12.577C160.105,40.816,160.13,40.527,160.143,40.248 M179.976,40.54
		c0.351-0.721,0.526-1.511,0.526-2.369c0-0.481-0.114-0.988-0.341-1.521c-0.228-0.533-0.575-1.02-1.043-1.462
		s-1.066-0.806-1.794-1.092c-0.728-0.286-1.591-0.429-2.592-0.429c-1.054,0-2.039,0.163-2.955,0.487
		c-0.917,0.325-1.754,0.771-2.515,1.336c-0.761,0.565-1.437,1.238-2.028,2.018c-0.592,0.78-1.092,1.625-1.501,2.535
		c-0.41,0.91-0.722,1.869-0.936,2.876c-0.215,1.008-0.322,2.018-0.322,3.032c0,1.222,0.168,2.327,0.508,3.315
		c0.337,0.988,0.818,1.829,1.442,2.525c0.623,0.695,1.384,1.231,2.281,1.608c0.898,0.377,1.911,0.565,3.042,0.565
		c0.831,0,1.609-0.074,2.33-0.224c0.721-0.149,1.413-0.386,2.076-0.712c0.663-0.324,1.31-0.73,1.94-1.218
		c0.63-0.487,1.277-1.075,1.94-1.764l-0.858-1.073c-0.194-0.221-0.409-0.331-0.643-0.331c-0.208,0-0.416,0.065-0.624,0.195
		c-0.208,0.13-0.436,0.289-0.682,0.478c-0.246,0.188-0.517,0.396-0.81,0.623c-0.292,0.228-0.63,0.436-1.014,0.624
		c-0.383,0.189-0.819,0.348-1.306,0.478c-0.487,0.13-1.043,0.195-1.667,0.195c-1.533,0-2.681-0.458-3.441-1.375
		c-0.688-0.828-1.062-1.997-1.128-3.5c0,0-0.082-1.21,0.082-2.523c0.126-1.004,0.628-2.43,0.628-2.43
		c0.147-0.435,0.315-0.854,0.505-1.257c0.377-0.799,0.832-1.494,1.365-2.086c0.533-0.591,1.144-1.056,1.833-1.394
		c0.689-0.338,1.443-0.507,2.262-0.507c0.519,0,0.961,0.068,1.326,0.204c0.364,0.137,0.66,0.309,0.887,0.517
		c0.227,0.208,0.393,0.439,0.497,0.692c0.104,0.254,0.156,0.498,0.156,0.732c0,0.468-0.104,0.916-0.312,1.345
		c-0.208,0.429-0.637,0.829-1.287,1.199c-0.65,0.371-1.579,0.715-2.788,1.034c-0.925,0.243-2.088,0.466-3.478,0.668
		c-0.209,0.564-0.297,1.423-0.311,1.569c-0.041,0.417,0.451,0.704,0.692,0.672c1.664-0.221,3.088-0.485,4.267-0.794
		c1.638-0.429,2.925-0.933,3.86-1.511C178.982,41.912,179.625,41.262,179.976,40.54 M197.336,37.684l1.091-1.307
		c-0.662-0.884-1.436-1.556-2.319-2.018c-0.885-0.461-1.977-0.692-3.277-0.692c-1.481,0-2.84,0.338-4.075,1.014
		c-1.234,0.676-2.3,1.579-3.197,2.71c-0.897,1.131-1.596,2.431-2.096,3.9c-0.501,1.469-0.751,3.003-0.751,4.602
		c0,1.195,0.153,2.29,0.458,3.285c0.305,0.994,0.754,1.846,1.345,2.554c0.593,0.709,1.326,1.257,2.204,1.648
		c0.877,0.39,1.889,0.584,3.032,0.584c0.753,0,1.459-0.058,2.115-0.175c0.658-0.117,1.29-0.322,1.901-0.614
		c0.611-0.293,1.219-0.686,1.823-1.179c0.605-0.494,1.245-1.112,1.921-1.853l-0.858-1.053c-0.182-0.221-0.403-0.331-0.663-0.331
		c-0.182,0-0.36,0.062-0.536,0.185c-0.176,0.124-0.371,0.276-0.585,0.458c-0.214,0.182-0.455,0.381-0.72,0.595
		c-0.268,0.214-0.577,0.413-0.928,0.594c-0.35,0.183-0.754,0.336-1.208,0.459c-0.456,0.123-0.976,0.185-1.56,0.185
		c-0.702,0-1.316-0.127-1.843-0.38c-0.526-0.254-0.972-0.611-1.335-1.072c-0.365-0.462-0.637-1.021-0.819-1.678
		c-0.182-0.656-0.273-1.387-0.273-2.193c0-1.326,0.173-2.567,0.516-3.724c0.344-1.157,0.816-2.158,1.414-3.003
		c0.598-0.845,1.296-1.511,2.096-1.999c0.799-0.487,1.649-0.731,2.544-0.731c0.663,0,1.206,0.082,1.629,0.244
		c0.422,0.163,0.773,0.345,1.052,0.546c0.28,0.202,0.507,0.383,0.683,0.546c0.175,0.163,0.354,0.244,0.536,0.244
		c0.143,0,0.273-0.033,0.39-0.098C197.16,37.872,197.258,37.788,197.336,37.684 M203.873,53.692l3.509-28.721h-3.412l-3.529,28.721
		H203.873z M218.087,33.94h-3.061c-0.312,0-0.566,0.065-0.761,0.195c-0.195,0.13-0.396,0.299-0.604,0.507l-5.713,5.85
		c0,0-0.692,0.585-0.869,1.784c-0.1,0.69-0.27,2.33-0.106,2.641l5.03,8.092c0.144,0.247,0.303,0.422,0.479,0.527
		c0.175,0.104,0.405,0.156,0.691,0.156h2.984l-5.927-9.749c-0.144-0.247-0.287-0.475-0.43-0.683
		c-0.143-0.208-0.317-0.39-0.526-0.546c0.221-0.13,0.425-0.283,0.614-0.458c0.188-0.176,0.38-0.367,0.575-0.575L218.087,33.94z"/>
	<path clip-path="url(#SVGID_2_)" fill="#999999" d="M220.286,26.863c0.29-0.395,0.648-0.706,1.076-0.933
		c0.426-0.226,0.865-0.34,1.316-0.34c0.464,0,0.874,0.118,1.232,0.354c0.355,0.236,0.613,0.547,0.771,0.935
		c0.158,0.387,0.203,0.803,0.133,1.25c-0.071,0.456-0.253,0.879-0.542,1.269c-0.29,0.39-0.646,0.698-1.07,0.925
		c-0.424,0.227-0.865,0.34-1.321,0.34c-0.456,0-0.862-0.114-1.215-0.342c-0.355-0.228-0.614-0.537-0.78-0.925
		c-0.166-0.389-0.214-0.811-0.142-1.267C219.815,27.68,219.995,27.258,220.286,26.863 M219.538,29.555
		c0.18,0.444,0.473,0.799,0.881,1.064c0.406,0.265,0.876,0.398,1.407,0.398c0.532,0,1.045-0.133,1.535-0.4
		c0.491-0.267,0.895-0.622,1.214-1.065c0.318-0.444,0.516-0.918,0.597-1.423c0.081-0.518,0.028-1.002-0.161-1.45
		c-0.189-0.449-0.487-0.802-0.896-1.058c-0.407-0.257-0.868-0.385-1.381-0.385c-0.519,0-1.021,0.13-1.512,0.389
		c-0.489,0.259-0.897,0.613-1.224,1.061c-0.326,0.449-0.531,0.93-0.611,1.443C219.307,28.636,219.358,29.112,219.538,29.555
		 M223.234,26.675c-0.178-0.159-0.449-0.239-0.816-0.239h-0.811l-0.532,3.385h0.389l0.217-1.385h0.646l0.591,1.385h0.464
		l-0.673-1.512c0.198-0.087,0.358-0.208,0.482-0.363c0.122-0.155,0.2-0.334,0.232-0.537
		C223.475,27.079,223.412,26.834,223.234,26.675 M221.943,26.767h0.423c0.505,0,0.723,0.221,0.654,0.662
		c-0.036,0.228-0.13,0.401-0.282,0.521c-0.152,0.119-0.345,0.179-0.578,0.179h-0.431L221.943,26.767z"/>
</g>
</svg>
