<svg width="20" height="20" viewBox="0 0 20 20" fill="none" xmlns="http://www.w3.org/2000/svg">
<g clip-path="url(#clip0_1246_2055)">
<path d="M17.0711 2.92891C15.1823 1.04016 12.6711 0 10 0C7.32895 0 4.8177 1.04016 2.92895 2.92895C1.0402 4.8177 0 7.32891 0 10C0 12.6711 1.04016 15.1824 2.92891 17.0711C4.81766 18.9598 7.32887 20 9.99996 20C12.6711 20 15.1823 18.9598 17.0711 17.0711C18.9598 15.1823 20 12.6711 20 10C20 7.32891 18.9598 4.8177 17.0711 2.92891ZM16.2424 16.2425C14.575 17.9098 12.358 18.8281 9.99996 18.8281C7.64187 18.8281 5.42492 17.9098 3.75754 16.2425C2.09012 14.575 1.17188 12.3581 1.17188 10C1.17188 7.64195 2.0902 5.425 3.75758 3.75758C5.425 2.09016 7.64191 1.17188 10 1.17188C12.3581 1.17188 14.575 2.09016 16.2425 3.75754C19.6845 7.19965 19.6845 12.8004 16.2424 16.2425Z" fill="#C20303"/>
<path d="M14.4102 13.5799L10.8305 10.0001L14.4102 6.42042C14.639 6.19159 14.639 5.82061 14.4102 5.59183C14.1814 5.363 13.8104 5.363 13.5815 5.59183L10.0019 9.17151L6.42213 5.59179C6.19334 5.36296 5.82232 5.36296 5.5935 5.59179C5.36467 5.82062 5.36467 6.19159 5.5935 6.42042L9.17322 10.0001L5.5935 13.5799C5.36467 13.8087 5.36467 14.1797 5.5935 14.4085C5.70791 14.5229 5.85787 14.5801 6.00779 14.5801C6.15775 14.5801 6.30771 14.5229 6.42213 14.4085L10.0019 10.8288L13.5816 14.4085C13.696 14.5229 13.846 14.5801 13.9959 14.5801C14.1459 14.5801 14.2958 14.5229 14.4102 14.4085C14.639 14.1797 14.639 13.8087 14.4102 13.5799Z" fill="#C20303"/>
</g>
<defs>
<clipPath id="clip0_1246_2055">
<rect width="20" height="20" fill="white"/>
</clipPath>
</defs>
</svg>
