<svg version="1.1" id="potlood" xmlns="http://www.w3.org/2000/svg" x="0" y="0" viewBox="0 0 280 280" xml:space="preserve"><style>.st0{fill:#586479}.st1{fill:#fff}</style><path class="st0" d="M0 0v280h280V0H0zm86.26 232.55l49.22-34.01 2.75-1.9 3.54-2.44 5.11-3.53c.46.12 1 .16 1.61.2 1.77.13 3.27.33 3.69 1.34.24.57.44 1.03.64 1.39 0 .01.01.01.01.02l-1.62 1.12-5.49 3.79-52.12 36.02-7.31-1.97-.03-.03zm-7.22-10.46l.75-7.53 23.19-16.02 35.26-24.36.09-.06c.53.8 1.24 2.11 1.32 2.54.02.27-.11 1.03-.21 1.59-.17.99-.29 1.77-.27 2.4l-.93.64-24.97 17.25-34.18 23.61-.05-.06zm75.24-30.74c-.73-1.77-2.44-2.34-4.03-2.58-.22-.03-.44-.06-.65-.08-.33-.03-.65-.06-.94-.08-.43-.03-1.01-.08-1.25-.14-.33-.39-.43-.97-.56-1.85-.15-.99-.34-2.23-1.14-3.41-.38-.57-1.15-.95-2.47-1.59-.43-.2-1.05-.5-1.47-.75-.14-.08-.25-.16-.33-.22-.02-.36.1-1.12.19-1.7.02-.12.04-.22.05-.32.03-.19.06-.37.09-.54a11 11 0 00.14-1.14c.01-.19.01-.36 0-.52-.01-.15-.06-.34-.14-.57-.27-.8-.87-1.98-1.49-2.91l1.49-.31 14.92-3.14c-.65 1.54-.19 4.3.85 5.8 1.27 1.84 4.31 3.67 5.79 2.65.01-.01.02-.01.03-.02l-8.87 13.88c-.07-.14-.13-.29-.21-.46zm-13.98-8.73c.39.26.88.52 1.46.81.16.08.32.16.49.24.55.26 1.38.66 1.6.86.49.74.61 1.57.75 2.44.11.69.22 1.45.55 2.14l-3.39 2.34-3.54 2.44-6.74 4.66-46.52 32.14-4.6-6.66 36.88-25.48 20.97-14.49 2.09-1.44zM17.15 55.52l2.67-1.49v144.5h-2.67V55.52zm4.94-2.74l3.64-2.03v147.79h-3.64V52.78zM28 50.55h91.22c12.72.31 19 2.63 19 13.61v104.6c-.2.07-.38.16-.55.28l-42.7 29.5H28V50.55zm128.65 145.96c.25-.17.46-.39.62-.64l20.08-31.41c.49-.77.47-1.76-.05-2.51a2.275 2.275 0 00-2.34-.93L141.77 168V62.42c.65-9.49 6.93-11.58 18.95-11.87H252v147.99h-98.28l2.93-2.03zm97.62-145.76l3.64 2.03v145.76h-3.64V50.75zm8.58 147.79h-2.67V54.04l2.67 1.49v143.01z"/><path class="st1" d="M19.82 54.04l-2.67 1.48v143.02h2.67zM25.73 50.75l-3.64 2.03v145.76h3.64zM137.68 169.04c.17-.12.36-.21.55-.28V64.16c0-10.98-6.29-13.29-19-13.61H28v147.99h66.98l42.7-29.5zM104.49 56.15h19.38v19.38h-19.38V56.15zm-34.36 0H89.5v19.38H70.13V56.15zm-34.37 0h19.38v19.38H35.76V56.15zm28.01 136.79H61.5V82.09H35.76v-2.27H61.5V56.15h2.27v23.67h32.09V56.15h2.27v23.67h25.77v2.27H98.13v110.86h-2.27V82.09H63.77v110.85z"/><path class="st0" d="M55.14 56.15H35.76v19.38h19.38V56.15zm-4.16 15.34h-2.21v-7.66c0-.22 0-.53.01-.93s.01-.7.01-.92l-2.15 9.51h-2.3l-2.13-9.51c0 .22 0 .52.01.92s.01.71.01.93v7.66h-2.21V60.16h3.44l2.06 8.91 2.05-8.91h3.41v11.33zM79.73 62.12h-2.19v7.39h2.19c1.12 0 1.9-.55 2.34-1.65.24-.6.36-1.32.36-2.16 0-1.15-.18-2.04-.54-2.66-.37-.61-1.09-.92-2.16-.92z"/><path class="st0" d="M89.5 56.15H70.13v19.38H89.5V56.15zm-5.57 13.22c-.82 1.41-2.09 2.11-3.8 2.11h-4.88V60.16h4.88c.7.01 1.29.09 1.75.25.79.26 1.44.74 1.93 1.44.39.56.66 1.17.81 1.83.14.66.22 1.28.22 1.88-.01 1.49-.31 2.77-.91 3.81zM123.87 56.15h-19.38v19.38h19.38V56.15zm-5.82 15.34h-2.27l-1.37-6.63-.4-2.19-.4 2.19-1.37 6.63h-2.2l-3.21-11.33h2.51l1.5 6.49.33 1.81.33-1.77 1.28-6.52h2.5l1.35 6.49.34 1.81.35-1.74 1.51-6.56h2.41l-3.19 11.32z"/><path class="st0" d="M95.86 192.94h2.27V82.09h25.78v-2.27H98.13V56.15h-2.27v23.67H63.77V56.15H61.5v23.67H35.76v2.27H61.5v110.85h2.27V82.09h32.09z"/><path class="st1" d="M45.52 69.06l-2.06-8.91h-3.44v11.33h2.21v-7.66c0-.22 0-.53-.01-.93s-.01-.7-.01-.92l2.13 9.51h2.3l2.15-9.51c0 .22 0 .52-.01.92s-.01.71-.01.93v7.66h2.21V60.16h-3.41l-2.05 8.9zM83.81 61.84c-.49-.7-1.14-1.18-1.93-1.44-.47-.15-1.05-.24-1.75-.25h-4.88v11.33h4.88c1.71 0 2.98-.7 3.8-2.11.61-1.05.91-2.32.91-3.83 0-.59-.07-1.22-.22-1.88-.14-.65-.41-1.26-.81-1.82zm-1.74 6.03c-.44 1.1-1.22 1.65-2.34 1.65h-2.19v-7.39h2.19c1.08 0 1.8.31 2.16.93.36.62.54 1.5.54 2.66 0 .82-.12 1.54-.36 2.15zM117.32 66.71l-.35 1.74-.34-1.81-1.35-6.48h-2.5l-1.28 6.52-.32 1.77-.33-1.81-1.5-6.48h-2.51l3.21 11.33h2.2l1.37-6.63.4-2.19.4 2.19 1.37 6.63h2.26l3.19-11.33h-2.41zM257.91 52.78l-3.64-2.03v147.79h3.64zM260.18 198.54h2.67V55.52l-2.67-1.48zM252 50.55h-91.28c-12.02.3-18.29 2.38-18.95 11.87V168l33.21-6.99c.89-.19 1.82.18 2.34.93.52.75.54 1.74.05 2.51l-20.08 31.41c-.16.25-.37.47-.62.64l-2.94 2.03H252V50.55zm-61.5 5.6h19.38v19.38H190.5V56.15zm-34.37 0h19.38v19.38h-19.38V56.15zm88.11 82.9h-19.38v-19.38h19.38v19.38zm0-56.96H218.5v61.26h25.74v2.27H218.5v47.33h-2.27V82.09h-32.09v110.86h-2.27V82.09H156.1v-2.27h25.77V56.15h2.27v23.67h32.09V56.15h2.27v23.67h25.74v2.27zm0-6.57h-19.38V56.15h19.38v19.37z"/><path class="st0" d="M224.86 75.52h19.38V56.15h-19.38v19.37zm5.32-6.03l5.79-7.32h-5.64v-2.01h8.59v1.9l-5.87 7.43h5.88v2h-8.75v-2zM209.87 56.15H190.5v19.38h19.38V56.15zm-8.42 15.34h-2.24l-3.83-11.33h2.53l2.46 8.6 2.48-8.6h2.46l-3.86 11.33zM175.51 56.15h-19.38v19.38h19.38V56.15zm-5.35 13.22c-.82 1.41-2.09 2.11-3.8 2.11h-4.88V60.16h4.88c.7.01 1.29.09 1.75.25.79.26 1.44.74 1.93 1.44.39.56.66 1.17.81 1.83.14.66.22 1.28.22 1.88 0 1.49-.31 2.77-.91 3.81z"/><path class="st0" d="M165.96 62.12h-2.19v7.39h2.19c1.12 0 1.9-.55 2.34-1.65.24-.6.36-1.32.36-2.16 0-1.15-.18-2.04-.54-2.66-.37-.61-1.08-.92-2.16-.92zM218.5 56.15h-2.27v23.67h-32.09V56.15h-2.27v23.67h-25.78v2.27h25.78v110.85h2.27V82.09h32.09v110.85h2.27v-47.32h25.74v-2.28H218.5V82.09h25.74v-2.27H218.5z"/><path class="st1" d="M238.93 69.49h-5.88l5.86-7.44v-1.89h-8.58v2h5.64l-5.79 7.33v2h8.75zM200.37 68.76l-2.46-8.6h-2.53l3.83 11.33h2.24l3.86-11.33h-2.46zM170.04 61.84c-.49-.7-1.14-1.18-1.93-1.44-.47-.15-1.05-.24-1.75-.25h-4.88v11.33h4.88c1.71 0 2.98-.7 3.8-2.11.6-1.05.91-2.32.91-3.83 0-.59-.07-1.22-.22-1.88-.14-.65-.41-1.26-.81-1.82zm-1.74 6.03c-.44 1.1-1.22 1.65-2.34 1.65h-2.19v-7.39h2.19c1.08 0 1.8.31 2.16.93.36.62.54 1.5.54 2.66 0 .82-.12 1.54-.36 2.15z"/><path class="st0" d="M224.86 139.05h19.38v-19.38h-19.38v19.38zm5.32-6.03l5.79-7.32h-5.64v-2.01h8.59v1.9l-5.87 7.43h5.88v2h-8.75v-2z"/><path class="st1" d="M238.93 133.02h-5.88l5.86-7.44v-1.89h-8.58v2h5.64l-5.79 7.33v1.99h8.75zM145.72 198.54l5.49-3.79 1.62-1.12c0-.01-.01-.01-.01-.02-.2-.36-.4-.82-.64-1.39-.42-1.02-1.92-1.21-3.69-1.34-.61-.05-1.15-.09-1.61-.2l-5.11 3.53-3.54 2.44-2.75 1.9-49.22 34.01.02.03 7.31 1.97 52.13-36.02zM138.23 181.29l.93-.64c-.01-.63.11-1.41.27-2.4.09-.56.22-1.32.21-1.59-.09-.44-.79-1.74-1.32-2.54l-.09.06-35.26 24.36-23.19 16.02-.75 7.53.05.07 34.18-23.61 24.97-17.26zM117.26 198.54l-36.88 25.48 4.6 6.66 46.52-32.14 6.74-4.66 3.54-2.44 3.39-2.34c-.33-.7-.44-1.45-.55-2.14-.13-.87-.26-1.69-.75-2.44-.23-.2-1.05-.59-1.6-.86-.17-.08-.33-.16-.49-.24-.58-.29-1.07-.54-1.46-.81l-2.07 1.43-20.99 14.5zM163.33 177.95c-1.48 1.02-4.52-.81-5.79-2.65-1.04-1.5-1.5-4.26-.85-5.8l-14.92 3.14-1.49.31c.62.93 1.23 2.1 1.49 2.91.07.22.12.41.14.57.01.16.01.33 0 .52a11 11 0 01-.14 1.14l-.09.54c-.02.1-.03.2-.05.32-.09.57-.21 1.33-.19 1.7.08.06.2.14.33.22.42.25 1.05.55 1.47.75 1.32.63 2.09 1.02 2.47 1.59.8 1.18.99 2.42 1.14 3.41.13.88.24 1.46.56 1.85.24.07.82.11 1.25.14.29.02.61.05.94.08.21.02.43.05.65.08 1.59.24 3.3.81 4.03 2.58.07.18.14.33.19.46l8.87-13.88s-.01.01-.01.02z"/></svg>