<?xml version="1.0" standalone="no"?>
<!DOCTYPE svg PUBLIC "-//W3C//DTD SVG 20010904//EN"
 "http://www.w3.org/TR/2001/REC-SVG-20010904/DTD/svg10.dtd">
<svg version="1.0" xmlns="http://www.w3.org/2000/svg"
 width="260.000000pt" height="260.000000pt" viewBox="0 0 260.000000 260.000000"
 preserveAspectRatio="xMidYMid meet">
<metadata>
Created by potrace 1.11, written by Peter Selinger 2001-2013
</metadata>
<g transform="translate(0.000000,260.000000) scale(0.100000,-0.100000)"
fill="#000000" stroke="none">
<path d="M136 2580 c-20 -9 -52 -31 -71 -50 -69 -67 -66 -2 -63 -1257 l3
-1130 29 -42 c38 -55 72 -78 135 -93 108 -24 220 31 257 128 16 43 18 106 18
830 0 431 3 780 7 776 4 -4 151 -224 327 -489 309 -464 352 -520 409 -537 71
-22 154 -5 207 42 10 9 167 240 347 512 l329 495 0 -785 c0 -543 4 -797 11
-825 16 -56 91 -129 149 -145 111 -30 223 21 271 125 18 38 19 90 19 1156 0
1232 3 1169 -63 1237 -47 49 -84 64 -168 69 -132 9 -190 -23 -269 -145 -248
-386 -304 -474 -330 -517 -17 -27 -84 -133 -150 -235 -65 -102 -154 -240 -197
-307 -43 -68 -80 -123 -83 -123 -4 0 -105 156 -482 747 -59 93 -131 205 -160
251 -29 45 -71 113 -93 150 -56 94 -122 156 -181 171 -63 16 -164 12 -208 -9z"/>
</g>
</svg>
