<svg width="56" height="56" viewBox="0 0 56 56" fill="none" xmlns="http://www.w3.org/2000/svg">
<g clip-path="url(#clip0_4003_557)">
<path d="M44.8109 18.8976C43.9381 18.6419 43.0227 19.1425 42.767 20.0159C42.5113 20.8893 43.012 21.8045 43.8851 22.0603C49.2393 23.6283 52.6991 26.0054 52.6991 28.1164C52.6991 29.9236 50.2168 31.9201 46.0588 33.4571C44.0071 34.2155 41.6592 34.8275 39.1092 35.2805C39.3507 32.9366 39.4755 30.4927 39.4755 28.0001C39.4755 21.3568 38.589 15.0597 36.967 10.0814L38.2614 10.5715C38.4534 10.6442 38.6505 10.6787 38.8442 10.6787C39.5095 10.6787 40.1359 10.2729 40.3852 9.61388C40.7073 8.76272 40.2786 7.8117 39.4278 7.48948L35.2751 5.91721C34.6148 4.61903 33.8952 3.51959 33.1221 2.63453C32.0722 1.43271 30.3472 0 28.0917 0C25.8361 0 24.1112 1.43271 23.0613 2.63442C21.7694 4.11328 20.6257 6.18595 19.6618 8.79488C18.7197 11.3446 17.9873 14.302 17.4873 17.5143C14.2873 18.0144 11.3407 18.7452 8.79937 19.6845C6.19098 20.6486 4.11886 21.7926 2.64022 23.0847C1.43873 24.1348 0.00634766 25.8601 0.00634766 28.1162C0.00634766 30.3724 1.43873 32.0976 2.64022 33.1476C4.11875 34.4398 6.19098 35.5839 8.79937 36.5479C12.6518 37.972 17.4343 38.9175 22.6221 39.3045L21.7275 40.1561C21.0684 40.7836 21.0426 41.8265 21.6698 42.4857C21.9935 42.826 22.4282 42.9975 22.8634 42.9975C23.2714 42.9975 23.68 42.8468 23.9988 42.5433L27.1984 39.4977C27.465 39.5005 27.7321 39.5025 28 39.5025C30.4814 39.5025 32.9147 39.3788 35.249 39.1392C34.7966 41.6791 34.1864 44.0178 33.4309 46.0625C31.8943 50.2215 29.8983 52.7043 28.0916 52.7043C26.5921 52.7043 24.9236 50.9559 23.514 47.9075C23.1319 47.0816 22.1528 46.7215 21.3272 47.1037C20.5016 47.4858 20.1417 48.465 20.5236 49.2909C23.0877 54.8358 26.0543 55.9998 28.0916 55.9998C30.3471 55.9998 32.0721 54.5671 33.1219 53.3654C34.4138 51.8865 35.5575 49.8138 36.5213 47.2049C37.4429 44.7106 38.1635 41.8258 38.6626 38.6944C41.8047 38.1951 44.6991 37.4727 47.2006 36.548C49.809 35.584 51.8811 34.4398 53.3598 33.1478C54.5613 32.0978 55.9937 30.3725 55.9937 28.1163C55.9937 24.2834 52.0222 21.0094 44.8109 18.8976ZM28 36.2073C27.7697 36.2073 27.54 36.206 27.3106 36.2038L24.4637 32.9314C23.8664 32.2449 22.8257 32.1726 22.1396 32.7701C21.4532 33.3675 21.3809 34.4083 21.9782 35.0947L22.7766 36.0124C17.9323 35.6459 13.4938 34.7702 9.94136 33.4571C5.78334 31.9201 3.30106 29.9237 3.30106 28.1164C3.30106 26.3093 5.78334 24.3127 9.94136 22.7758C12.0369 22.0012 14.4406 21.3787 17.0539 20.9231C16.826 23.205 16.7078 25.5794 16.7078 28.0001C16.7078 28.4284 16.7115 28.8644 16.719 29.296C16.7347 30.1961 17.469 30.9151 18.3656 30.9151C18.3753 30.9151 18.385 30.915 18.3949 30.9149C19.3045 30.899 20.0292 30.1486 20.0134 29.2387C20.0062 28.8262 20.0026 28.4094 20.0026 28.0001C20.0026 25.3965 20.1441 22.856 20.4165 20.4428C22.8375 20.1683 25.387 20.0257 28.0001 20.0257C29.1448 20.0257 29.63 20.0405 30.7041 20.0917C31.6129 20.1307 32.3846 19.4332 32.4281 18.5243C32.4713 17.6152 31.7696 16.8433 30.8609 16.8C29.7439 16.7468 29.2037 16.7302 28.0001 16.7302C25.5696 16.7302 23.1855 16.8494 20.8951 17.0794C21.351 14.4547 21.9751 12.0408 22.7522 9.93741C24.2888 5.77852 26.2849 3.29559 28.0917 3.29559C29.4703 3.29559 30.959 4.74263 32.2699 7.27565L30.5657 11.2366C30.2061 12.0724 30.592 13.0418 31.4277 13.4014C31.6401 13.4929 31.8608 13.5361 32.0782 13.5361C32.7163 13.5361 33.3237 13.1629 33.5922 12.5392L33.9943 11.6045C35.4094 16.1752 36.1806 21.9158 36.1806 28C36.1806 30.6809 36.0303 33.2946 35.7419 35.7716C33.2738 36.0581 30.6702 36.2073 28 36.2073Z" fill="#FA5E0D"/>
</g>
<defs>
<clipPath id="clip0_4003_557">
<rect width="56" height="56" fill="white"/>
</clipPath>
</defs>
</svg>
