<svg width="56" height="56" viewBox="0 0 56 56" fill="none" xmlns="http://www.w3.org/2000/svg">
<path d="M15.2173 17.3478H19.4782C20.0432 17.3478 20.5851 17.1233 20.9847 16.7238C21.3842 16.3243 21.6087 15.7824 21.6087 15.2173C21.6087 14.6523 21.3842 14.1104 20.9847 13.7109C20.5851 13.3114 20.0432 13.0869 19.4782 13.0869H15.2173C14.6523 13.0869 14.1104 13.3114 13.7109 13.7109C13.3114 14.1104 13.0869 14.6523 13.0869 15.2173C13.0869 15.7824 13.3114 16.3243 13.7109 16.7238C14.1104 17.1233 14.6523 17.3478 15.2173 17.3478Z" fill="#FA5E0D"/>
<path d="M40.7824 13.0869H36.5215C35.9565 13.0869 35.4146 13.3114 35.0151 13.7109C34.6156 14.1104 34.3911 14.6523 34.3911 15.2173C34.3911 15.7824 34.6156 16.3243 35.0151 16.7238C35.4146 17.1233 35.9565 17.3478 36.5215 17.3478H40.7824C41.3474 17.3478 41.8893 17.1233 42.2889 16.7238C42.6884 16.3243 42.9129 15.7824 42.9129 15.2173C42.9129 14.6523 42.6884 14.1104 42.2889 13.7109C41.8893 13.3114 41.3474 13.0869 40.7824 13.0869Z" fill="#FA5E0D"/>
<path d="M10.9566 25.8694C11.5216 25.8694 12.0635 25.6449 12.4631 25.2454C12.8626 24.8459 13.087 24.304 13.087 23.739V19.4781C13.087 18.9131 12.8626 18.3712 12.4631 17.9716C12.0635 17.5721 11.5216 17.3477 10.9566 17.3477C10.3916 17.3477 9.8497 17.5721 9.45016 17.9716C9.05063 18.3712 8.82617 18.9131 8.82617 19.4781V23.739C8.82617 24.304 9.05063 24.8459 9.45016 25.2454C9.8497 25.6449 10.3916 25.8694 10.9566 25.8694Z" fill="#FA5E0D"/>
<path d="M32.2608 17.3477C31.6958 17.3477 31.1539 17.5721 30.7544 17.9716C30.3548 18.3712 30.1304 18.9131 30.1304 19.4781V23.739C30.1304 24.304 30.3548 24.8459 30.7544 25.2454C31.1539 25.6449 31.6958 25.8694 32.2608 25.8694C32.8258 25.8694 33.3677 25.6449 33.7673 25.2454C34.1668 24.8459 34.3912 24.304 34.3912 23.739V19.4781C34.3912 18.9131 34.1668 18.3712 33.7673 17.9716C33.3677 17.5721 32.8258 17.3477 32.2608 17.3477Z" fill="#FA5E0D"/>
<path d="M19.4782 25.8696H15.2173C14.6523 25.8696 14.1104 26.0941 13.7109 26.4936C13.3114 26.8932 13.0869 27.435 13.0869 28.0001C13.0869 28.5651 13.3114 29.107 13.7109 29.5065C14.1104 29.906 14.6523 30.1305 15.2173 30.1305H19.4782C20.0432 30.1305 20.5851 29.906 20.9847 29.5065C21.3842 29.107 21.6087 28.5651 21.6087 28.0001C21.6087 27.435 21.3842 26.8932 20.9847 26.4936C20.5851 26.0941 20.0432 25.8696 19.4782 25.8696Z" fill="#FA5E0D"/>
<path d="M36.5215 30.1305H40.7824C41.3474 30.1305 41.8893 29.906 42.2889 29.5065C42.6884 29.107 42.9129 28.5651 42.9129 28.0001C42.9129 27.435 42.6884 26.8932 42.2889 26.4936C41.8893 26.0941 41.3474 25.8696 40.7824 25.8696H36.5215C35.9565 25.8696 35.4146 26.0941 35.0151 26.4936C34.6156 26.8932 34.3911 27.435 34.3911 28.0001C34.3911 28.5651 34.6156 29.107 35.0151 29.5065C35.4146 29.906 35.9565 30.1305 36.5215 30.1305Z" fill="#FA5E0D"/>
<path d="M25.8693 19.4781C25.8693 18.9131 25.6448 18.3712 25.2453 17.9716C24.8457 17.5721 24.3039 17.3477 23.7388 17.3477C23.1738 17.3477 22.6319 17.5721 22.2324 17.9716C21.8329 18.3712 21.6084 18.9131 21.6084 19.4781V23.739C21.6084 24.304 21.8329 24.8459 22.2324 25.2454C22.6319 25.6449 23.1738 25.8694 23.7388 25.8694C24.3039 25.8694 24.8457 25.6449 25.2453 25.2454C25.6448 24.8459 25.8693 24.304 25.8693 23.739V19.4781Z" fill="#FA5E0D"/>
<path d="M47.174 19.4781C47.174 18.9131 46.9495 18.3712 46.55 17.9716C46.1504 17.5721 45.6085 17.3477 45.0435 17.3477C44.4785 17.3477 43.9366 17.5721 43.5371 17.9716C43.1375 18.3712 42.9131 18.9131 42.9131 19.4781V23.739C42.9131 24.304 43.1375 24.8459 43.5371 25.2454C43.9366 25.6449 44.4785 25.8694 45.0435 25.8694C45.6085 25.8694 46.1504 25.6449 46.55 25.2454C46.9495 24.8459 47.174 24.304 47.174 23.739V19.4781Z" fill="#FA5E0D"/>
<path d="M8.82617 36.5217C8.82617 37.0867 9.05063 37.6286 9.45016 38.0281C9.8497 38.4277 10.3916 38.6521 10.9566 38.6521C11.5216 38.6521 12.0635 38.4277 12.4631 38.0281C12.8626 37.6286 13.087 37.0867 13.087 36.5217V32.2608C13.087 31.6958 12.8626 31.1539 12.4631 30.7544C12.0635 30.3548 11.5216 30.1304 10.9566 30.1304C10.3916 30.1304 9.8497 30.3548 9.45016 30.7544C9.05063 31.1539 8.82617 31.6958 8.82617 32.2608V36.5217Z" fill="#FA5E0D"/>
<path d="M34.3912 32.2608C34.3912 31.6958 34.1668 31.1539 33.7673 30.7544C33.3677 30.3548 32.8258 30.1304 32.2608 30.1304C31.6958 30.1304 31.1539 30.3548 30.7544 30.7544C30.3548 31.1539 30.1304 31.6958 30.1304 32.2608V36.5217C30.1304 37.0867 30.3548 37.6286 30.7544 38.0281C31.1539 38.4277 31.6958 38.6521 32.2608 38.6521C32.8258 38.6521 33.3677 38.4277 33.7673 38.0281C34.1668 37.6286 34.3912 37.0867 34.3912 36.5217V32.2608Z" fill="#FA5E0D"/>
<path d="M15.2173 42.9127H19.4782C20.0432 42.9127 20.5851 42.6883 20.9847 42.2887C21.3842 41.8892 21.6087 41.3473 21.6087 40.7823C21.6087 40.2173 21.3842 39.6754 20.9847 39.2758C20.5851 38.8763 20.0432 38.6519 19.4782 38.6519H15.2173C14.6523 38.6519 14.1104 38.8763 13.7109 39.2758C13.3114 39.6754 13.0869 40.2173 13.0869 40.7823C13.0869 41.3473 13.3114 41.8892 13.7109 42.2887C14.1104 42.6883 14.6523 42.9127 15.2173 42.9127Z" fill="#FA5E0D"/>
<path d="M40.7824 38.6519H36.5215C35.9565 38.6519 35.4146 38.8763 35.0151 39.2758C34.6156 39.6754 34.3911 40.2173 34.3911 40.7823C34.3911 41.3473 34.6156 41.8892 35.0151 42.2887C35.4146 42.6883 35.9565 42.9127 36.5215 42.9127H40.7824C41.3474 42.9127 41.8893 42.6883 42.2889 42.2887C42.6884 41.8892 42.9129 41.3473 42.9129 40.7823C42.9129 40.2173 42.6884 39.6754 42.2889 39.2758C41.8893 38.8763 41.3474 38.6519 40.7824 38.6519Z" fill="#FA5E0D"/>
<path d="M23.7388 38.6521C24.3039 38.6521 24.8457 38.4277 25.2453 38.0281C25.6448 37.6286 25.8693 37.0867 25.8693 36.5217V32.2608C25.8693 31.6958 25.6448 31.1539 25.2453 30.7544C24.8457 30.3548 24.3039 30.1304 23.7388 30.1304C23.1738 30.1304 22.6319 30.3548 22.2324 30.7544C21.8329 31.1539 21.6084 31.6958 21.6084 32.2608V36.5217C21.6084 37.0867 21.8329 37.6286 22.2324 38.0281C22.6319 38.4277 23.1738 38.6521 23.7388 38.6521Z" fill="#FA5E0D"/>
<path d="M45.0435 30.1304C44.4785 30.1304 43.9366 30.3548 43.5371 30.7544C43.1375 31.1539 42.9131 31.6958 42.9131 32.2608V36.5217C42.9131 37.0867 43.1375 37.6286 43.5371 38.0281C43.9366 38.4277 44.4785 38.6521 45.0435 38.6521C45.6085 38.6521 46.1504 38.4277 46.55 38.0281C46.9495 37.6286 47.174 37.0867 47.174 36.5217V32.2608C47.174 31.6958 46.9495 31.1539 46.55 30.7544C46.1504 30.3548 45.6085 30.1304 45.0435 30.1304Z" fill="#FA5E0D"/>
<path d="M53.8231 6.43751C53.2311 5.84204 52.5269 5.36993 51.7512 5.04852C50.9756 4.72711 50.1438 4.56279 49.3042 4.56507H47.1738V2.43463C47.1738 1.86961 46.9493 1.32772 46.5498 0.928189C46.1502 0.528655 45.6084 0.304199 45.0433 0.304199C44.4783 0.304199 43.9364 0.528655 43.5369 0.928189C43.1373 1.32772 42.9129 1.86961 42.9129 2.43463V4.56507H38.652V2.43463C38.652 1.86961 38.4276 1.32772 38.028 0.928189C37.6285 0.528655 37.0866 0.304199 36.5216 0.304199C35.9566 0.304199 35.4147 0.528655 35.0151 0.928189C34.6156 1.32772 34.3912 1.86961 34.3912 2.43463V4.56507H30.1303V2.43463C30.1303 1.86961 29.9058 1.32772 29.5063 0.928189C29.1068 0.528655 28.5649 0.304199 27.9999 0.304199C27.4348 0.304199 26.8929 0.528655 26.4934 0.928189C26.0939 1.32772 25.8694 1.86961 25.8694 2.43463V4.56507H21.6085V2.43463C21.6085 1.86961 21.3841 1.32772 20.9846 0.928189C20.585 0.528655 20.0431 0.304199 19.4781 0.304199C18.9131 0.304199 18.3712 0.528655 17.9717 0.928189C17.5721 1.32772 17.3477 1.86961 17.3477 2.43463V4.56507H13.0868V2.43463C13.0868 1.86961 12.8624 1.32772 12.4628 0.928189C12.0633 0.528655 11.5214 0.304199 10.9564 0.304199C10.3913 0.304199 9.84946 0.528655 9.44993 0.928189C9.05039 1.32772 8.82594 1.86961 8.82594 2.43463V4.56507H6.6955C5.85588 4.56279 5.02414 4.72711 4.24846 5.04852C3.47278 5.36993 2.76858 5.84204 2.17664 6.43751C0.981918 7.63855 0.309092 9.26232 0.304199 10.9564V45.0433C0.309092 46.7374 0.981918 48.3612 2.17664 49.5622C2.76858 50.1577 3.47278 50.6298 4.24846 50.9512C5.02414 51.2726 5.85588 51.4369 6.6955 51.4346H8.82594V53.5651C8.82594 54.1301 9.05039 54.672 9.44993 55.0715C9.84946 55.4711 10.3913 55.6955 10.9564 55.6955C11.5214 55.6955 12.0633 55.4711 12.4628 55.0715C12.8624 54.672 13.0868 54.1301 13.0868 53.5651V51.4346H17.3477V53.5651C17.3477 54.1301 17.5721 54.672 17.9717 55.0715C18.3712 55.4711 18.9131 55.6955 19.4781 55.6955C20.0431 55.6955 20.585 55.4711 20.9846 55.0715C21.3841 54.672 21.6085 54.1301 21.6085 53.5651V51.4346H25.8694V53.5651C25.8694 54.1301 26.0939 54.672 26.4934 55.0715C26.8929 55.4711 27.4348 55.6955 27.9999 55.6955C28.5649 55.6955 29.1068 55.4711 29.5063 55.0715C29.9058 54.672 30.1303 54.1301 30.1303 53.5651V49.3042C30.1303 48.7392 29.9058 48.1973 29.5063 47.7978C29.1068 47.3982 28.5649 47.1738 27.9999 47.1738H6.6955C6.13048 47.1738 5.58859 46.9493 5.18906 46.5498C4.78953 46.1502 4.56507 45.6084 4.56507 45.0433V10.9564C4.56507 10.3913 4.78953 9.84946 5.18906 9.44993C5.58859 9.05039 6.13048 8.82594 6.6955 8.82594H49.3042C49.8692 8.82594 50.4111 9.05039 50.8106 9.44993C51.2102 9.84946 51.4346 10.3913 51.4346 10.9564V45.0433C51.4346 45.6084 51.2102 46.1502 50.8106 46.5498C50.4111 46.9493 49.8692 47.1738 49.3042 47.1738H36.5216C35.9566 47.1738 35.4147 47.3982 35.0151 47.7978C34.6156 48.1973 34.3912 48.7392 34.3912 49.3042V53.5651C34.3912 54.1301 34.6156 54.672 35.0151 55.0715C35.4147 55.4711 35.9566 55.6955 36.5216 55.6955C37.0866 55.6955 37.6285 55.4711 38.028 55.0715C38.4276 54.672 38.652 54.1301 38.652 53.5651V51.4346H42.9129V53.5651C42.9129 54.1301 43.1373 54.672 43.5369 55.0715C43.9364 55.4711 44.4783 55.6955 45.0433 55.6955C45.6084 55.6955 46.1502 55.4711 46.5498 55.0715C46.9493 54.672 47.1738 54.1301 47.1738 53.5651V51.4346H49.3042C50.1438 51.4369 50.9756 51.2726 51.7512 50.9512C52.5269 50.6298 53.2311 50.1577 53.8231 49.5622C55.0178 48.3612 55.6906 46.7374 55.6955 45.0433V10.9564C55.6906 9.26232 55.0178 7.63855 53.8231 6.43751Z" fill="#FA5E0D"/>
</svg>
