<svg width="56" height="56" viewBox="0 0 56 56" fill="none" xmlns="http://www.w3.org/2000/svg">
<g clip-path="url(#clip0_4003_619)">
<path d="M28 27.9601C33.0902 27.9601 37.7925 24.6479 37.9492 18.7843C38.1776 10.2308 29.5656 0.91283 29.1988 0.520283C28.5501 -0.174029 27.449 -0.172826 26.8013 0.520283C26.4344 0.912721 17.8225 10.2308 18.0508 18.7843C18.2074 24.6391 22.9014 27.9601 28 27.9601ZM28.0011 4.15963C30.2401 6.90461 34.8157 13.2058 34.6691 18.6967C34.5588 22.8291 31.2401 24.6788 28 24.6788C24.76 24.6788 21.4413 22.8291 21.331 18.6967C21.1847 13.2187 25.7627 6.90811 28.0011 4.15963Z" fill="#FA5E0D"/>
<path d="M54.3594 49.4375C55.2654 49.4375 56 48.7029 56 47.7969C56 46.8908 55.2654 46.1562 54.3594 46.1562H1.64062C0.734562 46.1562 0 46.8908 0 47.7969C0 48.7029 0.734562 49.4375 1.64062 49.4375H8.59042L5.30917 52.7188H1.64062C0.734562 52.7188 0 53.4533 0 54.3594C0 55.2654 0.734562 56 1.64062 56H54.3594C55.2654 56 56 55.2654 56 54.3594C56 53.4533 55.2654 52.7188 54.3594 52.7188H47.5745L50.8558 49.4375H54.3594ZM28.762 52.7188L32.0433 49.4375H36.8092L33.5279 52.7188H28.762ZM19.3558 52.7188L22.637 49.4375H27.4029L24.1217 52.7188H19.3558ZM13.2308 49.4375H17.9967L14.7154 52.7188H9.94952L13.2308 49.4375ZM42.9342 52.7188H38.1683L41.4495 49.4375H46.2154L42.9342 52.7188Z" fill="#FA5E0D"/>
<path d="M1.64062 42.8749H27.9976H27.9989H27.9999H28H28.001H28.0023H54.3594C55.2654 42.8749 56 42.1404 56 41.2343C56 40.3282 55.2654 39.5937 54.3594 39.5937H32.6254L49.4691 25.9246L49.2895 27.2797C49.1704 28.1779 49.8022 29.0027 50.7003 29.1217C51.6013 29.2407 52.4235 28.6067 52.5423 27.7109L53.2639 22.2677C53.3842 21.3597 52.7408 20.5435 51.853 20.4257L46.4099 19.7043C45.5128 19.5856 44.687 20.2169 44.5679 21.1151C44.4489 22.0133 45.0805 22.838 45.9787 22.9571L47.6462 23.1781L27.9928 39.1272L6.4692 21.9027C5.76177 21.3365 4.72937 21.4512 4.16314 22.1585C3.59702 22.866 3.71153 23.8985 4.41908 24.4646L23.3242 39.5937H1.64062C0.734562 39.5937 0 40.3282 0 41.2343C0 42.1404 0.734562 42.8749 1.64062 42.8749Z" fill="#FA5E0D"/>
</g>
<defs>
<clipPath id="clip0_4003_619">
<rect width="56" height="56" fill="white"/>
</clipPath>
</defs>
</svg>
