<svg width="56" height="56" viewBox="0 0 56 56" fill="none" xmlns="http://www.w3.org/2000/svg">
<path fill-rule="evenodd" clip-rule="evenodd" d="M0.23291 8.8668C0.23291 6.16059 2.42671 3.9668 5.13291 3.9668H8.39958C9.30163 3.9668 10.0329 4.69807 10.0329 5.60013V30.1001H45.9662V5.60013C45.9662 4.69807 46.6977 3.9668 47.5996 3.9668H50.8662C53.5724 3.9668 55.7662 6.16059 55.7662 8.8668V38.2668C55.7662 42.7771 52.1099 46.4335 47.5996 46.4335H44.3329C43.431 46.4335 42.6996 45.7021 42.6996 44.8001V42.3501C42.6996 40.9971 41.6026 39.9001 40.2496 39.9001C38.8965 39.9001 37.7996 40.9971 37.7996 42.3501V43.1668C37.7996 48.5793 33.4121 52.9668 27.9996 52.9668C22.587 52.9668 18.1996 48.5793 18.1996 43.1668V42.3501C18.1996 40.9971 17.1027 39.9001 15.7496 39.9001C14.3965 39.9001 13.2996 40.9971 13.2996 42.3501V44.8001C13.2996 45.7021 12.5683 46.4335 11.6662 46.4335H8.39958C3.88926 46.4335 0.23291 42.7771 0.23291 38.2668V8.8668ZM5.13291 7.23346C4.23085 7.23346 3.49958 7.96474 3.49958 8.8668V38.2668C3.49958 40.9729 5.69337 43.1668 8.39958 43.1668H10.0329V42.3501C10.0329 39.1929 12.5923 36.6335 15.7496 36.6335C18.9068 36.6335 21.4662 39.1929 21.4662 42.3501V43.1668C21.4662 46.7752 24.3912 49.7001 27.9996 49.7001C31.6079 49.7001 34.5329 46.7752 34.5329 43.1668V42.3501C34.5329 39.1929 37.0923 36.6335 40.2496 36.6335C43.4068 36.6335 45.9662 39.1929 45.9662 42.3501V43.1668H47.5996C50.3057 43.1668 52.4996 40.9729 52.4996 38.2668V8.8668C52.4996 7.96474 51.7682 7.23346 50.8662 7.23346H49.2329V31.7335C49.2329 32.6354 48.5015 33.3668 47.5996 33.3668H8.39958C7.49752 33.3668 6.76624 32.6354 6.76624 31.7335V7.23346H5.13291Z" fill="#FA5E0D"/>
<path fill-rule="evenodd" clip-rule="evenodd" d="M28 3.9668C28.902 3.9668 29.6334 4.69807 29.6334 5.60013V31.7335C29.6334 32.6354 28.902 33.3668 28 33.3668C27.0981 33.3668 26.3667 32.6354 26.3667 31.7335V5.60013C26.3667 4.69807 27.0981 3.9668 28 3.9668Z" fill="#FA5E0D"/>
<path fill-rule="evenodd" clip-rule="evenodd" d="M21.4663 3.9668C22.3683 3.9668 23.0997 4.69807 23.0997 5.60013V31.7335C23.0997 32.6354 22.3683 33.3668 21.4663 33.3668C20.5643 33.3668 19.833 32.6354 19.833 31.7335V5.60013C19.833 4.69807 20.5643 3.9668 21.4663 3.9668Z" fill="#FA5E0D"/>
<path fill-rule="evenodd" clip-rule="evenodd" d="M14.9331 3.9668C15.8352 3.9668 16.5665 4.69807 16.5665 5.60013V31.7335C16.5665 32.6354 15.8352 33.3668 14.9331 33.3668C14.0311 33.3668 13.2998 32.6354 13.2998 31.7335V5.60013C13.2998 4.69807 14.0311 3.9668 14.9331 3.9668Z" fill="#FA5E0D"/>
<path fill-rule="evenodd" clip-rule="evenodd" d="M41.0664 3.9668C41.9684 3.9668 42.6998 4.69807 42.6998 5.60013V31.7335C42.6998 32.6354 41.9684 33.3668 41.0664 33.3668C40.1645 33.3668 39.4331 32.6354 39.4331 31.7335V5.60013C39.4331 4.69807 40.1645 3.9668 41.0664 3.9668Z" fill="#FA5E0D"/>
<path fill-rule="evenodd" clip-rule="evenodd" d="M34.5332 3.9668C35.4352 3.9668 36.1666 4.69807 36.1666 5.60013V31.7335C36.1666 32.6354 35.4352 33.3668 34.5332 33.3668C33.6313 33.3668 32.8999 32.6354 32.8999 31.7335V5.60013C32.8999 4.69807 33.6313 3.9668 34.5332 3.9668Z" fill="#FA5E0D"/>
<path fill-rule="evenodd" clip-rule="evenodd" d="M28.0003 43.1666C27.5492 43.1666 27.1837 43.5321 27.1837 43.9832C27.1837 44.4344 27.5492 44.7999 28.0003 44.7999C28.4515 44.7999 28.817 44.4344 28.817 43.9832C28.817 43.5321 28.4515 43.1666 28.0003 43.1666ZM23.917 43.9832C23.917 41.7279 25.745 39.8999 28.0003 39.8999C30.2556 39.8999 32.0837 41.7279 32.0837 43.9832C32.0837 46.2385 30.2556 48.0666 28.0003 48.0666C25.745 48.0666 23.917 46.2385 23.917 43.9832Z" fill="#FA5E0D"/>
</svg>
