<svg width="492" height="492" viewBox="0 0 492 492" xmlns="http://www.w3.org/2000/svg" xmlns:xlink="http://www.w3.org/1999/xlink"><title>Page 1</title><defs><path id="a" d="M491.99.006H0v491.896h491.99V.006z"/></defs><g fill="none" fill-rule="evenodd" opacity=".604"><path d="M118.937 396.058c-4.606-3.826-11.995-5.638-20.334 4.265-6.966 8.275-7.887 18.663-.2 25.05 2.803 2.328 10.43 6.365 20.109-5.131 7.502-8.907 6.991-18.728.425-24.184m179.483 45.296c-.074-.168-.156-.385-.264-.35-.109.036-.134.287-.134.482L297 453.717c.002.197.064.318.208.274l6.63-2.173c.182-.059.19-.209.124-.332l-5.543-10.132zM28.41 193.082l10.503 2.867c.373.103.52.052.712-.171.458-.745.826-1.833 1.068-2.774.386-1.497.394-2.044.102-2.81-.492-1.37-1.697-3.072-4.604-3.865-4.982-1.36-7.171 1.794-7.744 4.018-.24.94-.431 1.85-.447 2.257.017.28.12.399.41.478m425.778 35.213c-.209.952-.218 2.232-.15 3.312.104 1.716.277 2.295.815 2.994.93 1.26 2.674 2.606 5.798 2.372 5.36-.402 6.495-4.527 6.335-7.077-.066-1.08-.176-2.106-.291-2.54-.108-.288-.247-.377-.56-.352l-11.299.847c-.403.03-.53.139-.648.444M330.43 68.038c2.892 1.295 10.067 2.963 15.52-7.47 4.238-8.105 1.587-15.464-5.028-18.425-4.567-2.043-11.094-2.2-15.829 6.853-3.945 7.544-2.395 15.581 5.337 19.042M36.911 241.933c8.445.7 15.462-4.1 16.062-12.979.223-3.315-.673-10.92-12.35-11.886-9.07-.75-15.075 4.83-15.587 12.426-.353 5.243 1.742 11.6 11.875 12.439" fill="#FFF"/><mask id="b" fill="#fff"><use xlink:href="#a"/></mask><path d="M469.849 268.28c-.639.472-8.482 6.092-15.79 11.585-3.446 2.573-10.415 7.548-11.122 8.114l-.029.2 19.161 2.477c2.634.352 3.455.068 4.021-.931.355-.619.517-1.677.61-2.285.086-.553.31-.676.561-.636.357.052.335.515.236 1.175-.357 2.32-.824 4.68-.969 5.64-.077.502-.233 2.187-.568 4.355-.092.605-.205 1.002-.56.949-.25-.04-.415-.322-.336-.828.068-.456.123-.808.057-1.387-.167-1.266-.872-1.735-3.287-2.16l-26.998-4.66c-.958-.147-1.308-.562-1.255-.918.119-.755.665-1.29 1.191-1.676 3.001-2.384 9.158-7.123 14.366-11.08 5.392-4.134 11.315-8.033 12.205-8.772l.024-.154-17.602-2.184c-3.35-.412-4.446-.011-4.882.799-.368.718-.55 1.572-.658 2.278-.08.505-.32.727-.573.687-.352-.055-.392-.475-.3-1.078.441-2.878.912-4.927 1.038-5.735.061-.403.235-2.55.583-4.822.095-.603.205-.999.612-.94.25.04.408.375.346.778-.095.607-.17 1.422-.11 2.051.126 1.207 1.264 1.537 4.994 2.162l25.394 4.31c.86.135 1.421.531 1.348.985-.083.557-.834 1.06-1.708 1.701zm-22.887 58.46a5.902 5.902 0 0 1-5.901-5.906 5.894 5.894 0 0 1 5.9-5.895 5.897 5.897 0 0 1 5.902 5.895 5.905 5.905 0 0 1-5.901 5.907zm-2.39 37.386c-1.743 2.705-3.615 5.33-4.366 6.49-.693 1.074-2.305 3.861-3.331 5.453-.385.599-.691.887-1.037.665-.216-.137-.205-.434.097-.905a8.243 8.243 0 0 0 .799-1.616c.383-.973-.313-1.964-1.506-2.855-1.722-1.29-3.525-2.453-4.21-2.895l-3.525-2.27c-2.319-1.495-3.541-1.673-5.146-1.917-.881-.143-14.042-.476-17.246-.414-2.281.053-4.047.434-5.044.946-.663.364-1.39.927-1.722 1.442-.22.344-.502.593-.804.397-.258-.165-.191-.549.141-1.068.498-.77 2.704-3.91 3.616-5.328.58-.898 1.587-2.745 2.836-4.678.275-.429.54-.561.8-.394.257.165.105.496-.138 1.248-.162.443.045.881.388 1.099.341.222.997.341 1.792.43 1.676.226 15.905.882 17.55.97-.753-1.094-6.716-12.595-7.663-14.052-.667-1.039-1.286-1.682-1.845-2.043-.43-.275-1.013-.407-1.656.212-.335.33-.67.664-.925.495-.301-.192-.249-.46.082-.98.916-1.415 1.926-2.708 2.732-3.954.608-.944 2.306-3.861 2.832-4.678.306-.473.583-.72.84-.552.303.193.21.62-.094 1.092-.277.43-.634 1.358-.702 2.223-.15 1.18.057 1.984.61 3.676.806 2.523 7.024 15.041 8.374 17.005 1.131 1.64 2.464 2.498 3.88 3.412l3.522 2.267c.687.445 2.493 1.608 4.38 2.642 1.301.716 2.497.938 3.499-.24.473-.546 1.167-1.437 1.554-2.036.307-.473.573-.606.787-.467.301.192.209.621-.15 1.178zm-28.29 37.973c-2.366 2.402-4.733 4.588-5.738 5.607-.823.84-2.972 3.243-4.406 4.698-.469.473-.828.621-1.08.37-.183-.18-.148-.43.279-.87a8.2 8.2 0 0 0 1.147-1.455c.57-.87-.013-1.878-.964-3.022-1.35-1.689-4.228-4.52-7.577-7.818l-14.931-14.692-5.197 5.567c-2.006 2.184-2.684 3.236-2.422 4.573.19.9.447 1.512.667 1.869.218.36.258.614.042.834-.25.251-.504.148-.903-.246-.585-.575-3.217-4.527-3.437-4.888-.365-.574-.475-.898-.264-1.116.288-.293 1.01-.297 1.982-1.133a54.282 54.282 0 0 0 3.767-3.466l14.191-14.417c1.15-1.165 1.83-2.076 2.293-2.695.427-.652.643-1.015.786-1.16.25-.255.504-.075 1.05.46.764.755 3.17 3.335 4.118 4.269.328.394.475.682.26.9-.289.29-.542.185-1.121-.317l-.439-.359c-1.019-.856-3.005-.876-6.268 2.292l-4.627 4.482 14.934 14.693c3.351 3.295 6.225 6.127 7.973 7.485 1.125.896 2.142 1.466 3.362.515.575-.438 1.438-1.164 1.975-1.713.392-.4.683-.475.866-.297.253.251.077.652-.317 1.05zm-30.542 27.833c-2.753 1.949-5.47 3.686-6.595 4.48-.958.68-3.499 2.666-5.165 3.847-.542.382-.923.464-1.128.173-.147-.207-.07-.451.43-.805a8.42 8.42 0 0 0 1.382-1.231c.716-.755.467-1.645-.266-2.941-1.033-1.9-3.367-5.194-6.23-9.236l-5.2-7.339c-4.488-6.338-5.318-7.507-6.344-8.784-1.09-1.356-2.008-1.77-3.072-1.33-.548.2-1.123.542-1.62.899-.416.294-.727.387-.963.055-.178-.251.097-.57.762-1.044 1.588-1.12 4.303-2.855 5.512-3.712 1.041-.74 3.415-2.608 5-3.729.542-.383.934-.537 1.112-.288.236.337.047.596-.372.891-.416.295-.72.573-1.165 1.013-.975 1.006-.808 1.948.143 3.467.861 1.396 1.69 2.563 6.18 8.899l5.196 7.34c2.866 4.046 5.198 7.337 6.638 9.012.92 1.037 1.746 1.58 3.114.863.643-.33 1.618-.896 2.244-1.338.46-.326.757-.348.905-.141.204.293-.04.654-.498.98zm-29.376 19.33c-3.314 1.6-5.751 2.668-7.843 3.623a138.268 138.268 0 0 0-5.674 2.578c-.51.249-1.52.74-2.6 1.316-1.06.516-2.211 1.185-3.128 1.63-.598.29-.988.308-1.145-.014-.112-.231.005-.455.56-.722a8.343 8.343 0 0 0 1.563-.988c.835-.63.57-1.75.11-3.175-.704-2.043-2.464-5.673-4.514-9.904l-3.92-8.095c-3.385-6.988-4.011-8.278-4.815-9.704-.85-1.517-1.574-2.076-3.248-1.662-.411.088-.986.308-1.583.596-.506.245-.828.289-.982-.035-.156-.321.12-.568.81-.902 2.163-1.046 5.127-2.312 6.368-2.915 1.106-.533 4.396-2.296 6.188-3.164.645-.312 1.01-.376 1.169-.055.154.322-.08.546-.632.813-.504.246-1.218.649-1.726 1.008-1.128.832-1.119 1.79-.43 3.445.62 1.515 1.244 2.803 4.629 9.794l3.92 8.09c2.85 5.885 4.388 9.058 5.757 9.417 1.114.314 2.466.057 6.053-1.68 2.438-1.18 4.208-2.096 4.759-3.895.262-.862.189-2.421-.143-3.337-.155-.434-.194-.755.173-.933.322-.155.478.05.747.603.244.506 1.596 4.11 1.87 5.62.215 1.145.096 1.486-2.293 2.646zm-34.246 15.513c-1.782.462-5.393 1.4-9.374 2.33-.905.18-1.497.336-1.59-.012-.077-.297.097-.447.58-.625.321-.19.55-.722.15-1.255l-6.604-9.16c-.16-.222-.337-.282-.584-.218l-11.03 2.864c-.248.064-.32.187-.345.509l-.911 7.471c-.174 1.363-.113 2.614.04 3.208.23.89.845 1.418 2.377 1.021l.742-.195c.595-.15.767-.093.846.204.101.397-.17.57-.711.714-1.586.41-3.75.814-5.287 1.21-.542.141-3.224.995-5.796 1.665-.643.167-.966.143-1.07-.251-.077-.295.097-.447.493-.55a15.73 15.73 0 0 0 1.509-.498c2.197-.885 2.697-2.814 3.047-5.543l4.46-33.884c.222-1.587.376-2.207.871-2.34.445-.112.857.254 1.645 1.264 1.894 2.413 14.944 20.143 20.062 26.84 3.036 3.96 4.648 4.28 5.751 4.26a10.837 10.837 0 0 0 2.13-.34c.398-.105.655-.118.746.228.101.396-.317.61-2.147 1.083zm-47.489-20.471c-.407.024-.522-.223-.623-.984l-.084-.56c-.18-1.32-1.645-2.666-6.19-2.494l-6.435.231 1.255 20.908c.277 4.693.52 8.724.907 10.901.238 1.418.612 2.523 2.153 2.636.72.057 1.852.094 2.614.046.564-.033.826.103.841.359.02.356-.376.537-.938.567-3.367.205-6.588.243-8.015.329-1.176.07-4.38.416-6.42.539-.663.04-1.031-.093-1.05-.451-.016-.253.18-.419.79-.458a8.248 8.248 0 0 0 1.825-.313c1.006-.266 1.246-1.407 1.31-2.893.128-2.155-.114-6.188-.396-10.877l-1.253-20.91-7.588.656c-2.952.282-4.162.61-4.86 1.78-.464.794-.682 1.421-.76 1.835-.077.414-.218.628-.524.647-.357.02-.474-.229-.51-.79-.046-.817.643-5.515.722-5.928.112-.674.248-.987.554-1.009.407-.022.948.458 2.23.482 1.488.064 3.432.051 5.114-.05l20.2-1.211c1.635-.097 2.746-.317 3.506-.465.758-.2 1.158-.325 1.36-.336.358-.022.428.28.474 1.045.066 1.072.121 4.6.203 5.927-.022.51-.106.82-.412.84zm-44.517-5.715c-.508-.058-.92-.053-1.541-.025-1.4.095-1.907.914-2.213 2.677-.29 1.612-.455 3.032-1.35 10.748l-1.036 8.931c-.571 4.923-1.036 8.934-1.087 11.14-.006 1.387.244 2.344 1.742 2.72.7.186 1.803.417 2.565.505.558.064.795.247.765.5-.041.356-.464.46-1.022.396-3.352-.39-6.532-.911-7.903-1.07-1.167-.136-4.383-.354-6.413-.59-.66-.077-.996-.27-.956-.625.029-.253.249-.383.859-.313.76.09 1.383.06 1.85.009 1.04-.086 1.445-.911 1.768-2.364.5-2.103.965-6.114 1.537-11.036l1.036-8.932c.896-7.716 1.059-9.136 1.146-10.774.1-1.737-.31-2.657-1.395-3.04-.54-.218-1.196-.345-1.804-.414-.507-.061-.8-.198-.755-.603.035-.304.455-.359 1.268-.269 1.927.227 5.108.749 6.58.92 1.27.146 4.283.344 6.211.566.66.075 1.054.225 1.019.531-.046.405-.363.471-.871.412zm-27.471 4.458c-2.059 6.956-8.604 10.349-15.563 8.292-.247-.072-.785-.23-1.015-.354-.23-.123-.56-.27-.458-.614.116-.392.502-.436 1.531-.137 2.745.815 7.481-1.142 8.96-6.137.477-1.62 1.302-4.945-.717-8.207a7.59 7.59 0 0 0-4.336-3.36c-.735-.218-1.485-.387-1.97-.37-.272.027-.507.275-.666.817l-5.8 19.595c-1.335 4.509-2.478 8.381-2.857 10.558-.259 1.418-.284 2.583 1.128 3.215.658.297 1.707.717 2.442.931.538.163.74.38.668.625-.102.344-.537.374-1.076.216-3.236-.955-6.278-2.017-7.552-2.393-1.128-.335-4.26-1.099-6.219-1.68-.637-.19-.937-.436-.836-.78.072-.246.313-.334.901-.16a8.188 8.188 0 0 0 1.822.324c1.038.097 1.602-.907 2.217-2.272.855-1.986 2-5.856 3.335-10.365l2.552-8.625c2.203-7.445 2.608-8.82 2.975-10.415.395-1.697.236-2.594-1.28-3.415-.364-.213-1.183-.51-1.869-.715-.54-.159-.805-.341-.702-.685.101-.343.473-.339 1.208-.12 2.597.767 5.642 1.826 7.013 2.234 2.01.594 4.896 1.287 7.15 1.95 6.126 1.814 7.724 4.524 8.29 5.493.772 1.347 1.493 3.956.724 6.554zm-36.006-20.791c-.304.588-1.165 1.812-2.993 5.352-.514 1.001-.838 1.294-1.201 1.107-.319-.165-.314-.506-.032-1.05.209-.414.709-1.935.364-3.608-.236-1.213-.851-3.256-3.803-4.778-3.36-1.732-6.41-.834-7.816 1.891-1.08 2.087-.853 4.216 1.44 9.02l.78 1.61c3.365 6.965 3.702 11.106 1.475 15.42-1.357 2.634-3.973 5.251-8.344 5.698-3.02.282-5.774-.62-8.18-1.86-2.635-1.359-4.516-2.73-6.023-4.6-.563-.693-.581-.99-.066-1.99 1.287-2.496 2.874-5.129 3.295-5.831.396-.658.79-1.087 1.155-.898.407.209.242.64.055 1.004-.305.592-.615 1.638-.786 2.53-.734 3.872 1.313 6.48 4.13 7.931 4.086 2.107 7.514.368 8.755-2.036 1.148-2.226 1.544-4.665-.703-9.561l-1.246-2.712c-2.983-6.482-3.068-10.55-1.17-14.226 2.576-4.998 8.604-6.429 14.917-3.175 2.952 1.524 4.627 2.959 5.643 3.888.362.3.518.552.354.874zm-39.7-1.26c-7.51 8.976-19.716 10.827-29.674 2.502-11.251-9.41-8.75-21.637-2.946-28.576 5.608-6.703 17.283-11.659 29.044-1.827 9.76 8.165 11.083 18.928 3.576 27.902zm-48.811-37.992c-3.855 2.692-7.164 5.004-8.819 6.472-1.084.945-1.832 1.84-1.122 3.212.327.647.887 1.627 1.326 2.254.321.46.342.76.134.905-.295.205-.654-.044-1.005-.542-1.902-2.723-3.62-5.45-4.44-6.624-.672-.962-2.641-3.513-3.782-5.15-.41-.585-.49-.966-.196-1.17.21-.148.451-.068.803.436.439.63.873 1.07 1.22 1.389.755.722 1.822.288 3.153-.394 1.907-1.02 5.215-3.331 9.07-6.024l3.686-2.573c.169-.117.165-.301.075-.427l-11.178-16c-.088-.126-.217-.223-.427-.075l-3.686 2.573c-3.854 2.695-7.163 5.002-8.818 6.473-1.086.942-1.832 1.84-1.121 3.212.326.645.885 1.624 1.325 2.254.322.462.342.757.132.905-.293.202-.652-.044-1.004-.546-1.901-2.721-3.62-5.447-4.439-6.622-.674-.96-2.642-3.514-3.814-5.191-.38-.544-.458-.923-.166-1.13.21-.145.454-.066.805.436.438.63.873 1.072 1.22 1.39.752.721 1.82.288 3.152-.395 1.907-1.02 5.216-3.326 9.07-6.02l7.374-5.15c6.367-4.45 7.54-5.266 8.822-6.285 1.366-1.079 1.802-1.882 1.13-3.47-.15-.392-.607-1.134-1.016-1.721-.322-.46-.415-.77-.12-.976.293-.204.582.031.991.617 1.58 2.263 3.299 4.99 4.088 6.12.702 1.006 2.672 3.558 3.813 5.191.41.583.53.936.238 1.14-.293.207-.553.011-.904-.488-.235-.335-.54-.685-.975-1.128-.998-.984-1.945-.823-3.471.117-1.397.852-2.57 1.671-8.938 6.118l-.88.614c-.21.148-.206.33-.118.456l11.178 16.002c.088.126.26.192.47.044l.88-.614c6.365-4.445 7.539-5.266 8.82-6.285 1.367-1.08 1.804-1.882 1.131-3.467-.15-.397-.607-1.138-1.016-1.722-.322-.462-.412-.773-.12-.977.294-.203.582.03.99.618 1.582 2.261 3.3 4.989 4.09 6.118.703 1.006 2.672 3.558 3.812 5.19.41.587.531.94.238 1.142-.294.204-.551.013-.903-.491-.234-.333-.54-.683-.974-1.125-1-.984-1.946-.824-3.471.117-1.4.854-2.573 1.673-8.94 6.122l-7.373 5.145zm-38.996-62.17a5.896 5.896 0 0 1 5.901-5.895 5.896 5.896 0 0 1 5.901 5.895 5.904 5.904 0 0 1-5.9 5.907 5.904 5.904 0 0 1-5.902-5.907zM19 295.643c-.08-.557.51-1.11 1.293-2.103.57-.702 7.532-9.576 13.78-18.032 2.932-3.94 9.21-11.835 9.894-12.815l-.037-.25-22.629 3.836c-3.077.502-3.97 1.099-4.298 2.387-.191.803-.013 2.016.09 2.723.09.608-.034.832-.336.878-.404.057-.536-.49-.649-1.25-.385-2.629-.59-5.079-.745-6.14-.082-.555-.515-2.455-.88-4.931-.096-.656-.121-1.17.285-1.229.304-.042.5.236.588.843.075.509.133.912.373 1.493.614 1.358 1.735 1.607 4.574 1.242l31.987-4.128c1.113-.16 1.598-.027 1.664.427.081.557-.386 1.246-.86 1.884-2.566 3.628-8.241 11.07-12.676 17.095-4.652 6.311-9.996 12.83-10.823 13.88l.022.15 21.003-3.65c3.928-.678 5.147-1.53 5.353-2.593.176-.903.087-1.872-.032-2.682-.082-.555-.026-.872.278-.918.405-.06.573.381.677 1.088.481 3.284.627 5.33.768 6.29.067.455.567 2.808.953 5.44.097.653.113 1.117-.341 1.186-.304.044-.45-.245-.525-.749-.096-.658-.28-1.56-.587-2.24-.597-1.254-2.092-1.24-6.499-.644l-29.847 3.914c-1.012.148-1.744.1-1.818-.402zm1.74-66.89c.843-11.312 7.637-17.874 17.574-17.132 9.939.74 17.196 8.558 16.333 20.124-.974 13.045-10.645 17.653-18.34 17.077-7.39-.55-16.583-6.464-15.567-20.069zm3.967-27.416c.6-2.272 1.434-5.012 1.67-5.901.394-1.48 1.342-5.458 1.695-6.79.733-2.767 1.82-5.862 3.966-7.777 1.167-1.01 3.776-2.277 6.591-1.53 3.113.825 5.407 3.337 7.688 8.486 5.764-2.595 10.378-4.647 13.69-6.571 3.062-1.779 3.667-3.257 3.998-3.909.217-.418.283-.666.375-1.011.09-.346.39-.478.589-.425.345.09.365.413.22.956l-1.099 4.15c-.642 2.419-1.203 3.539-2.096 4.518-1.437 1.627-3.845 2.734-7.748 4.29-2.729 1.125-6.028 2.205-6.817 2.58-.312.18-.426.413-.505.71l-1.134 3.876c-.05.197.009.372.254.437l.594.157c3.901 1.035 7.176 1.85 9.004 2.124 1.276.18 2.12.191 2.67-1.091.269-.615.566-1.541.711-2.085.09-.344.391-.476.588-.424.298.078.354.463.208 1.006-.666 2.519-1.771 6.085-1.94 6.726-.224.84-.808 3.646-1.267 5.374-.144.543-.37.8-.668.722-.197-.053-.404-.266-.26-.808.17-.644.251-1.15.257-1.57.038-.944-.686-1.399-1.882-1.874-1.726-.67-5.036-1.547-8.888-2.568l-7.41-1.964c-6.372-1.69-7.557-2.005-8.904-2.307-1.459-.283-2.008-.004-2.77 1.273-.19.32-.437 1.048-.606 1.69-.117.445-.345.702-.641.622-.296-.078-.303-.45-.133-1.092zm9.023-34.094c.144-.327.658-.601 1.255-1.567.68-1.153 1.41-2.671 2.01-4.026l7.406-16.672c.58-1.305.88-2.235 1.058-2.883.196-.695.247-1.064.31-1.204.124-.28.38-.222.985.046.841.373 3.743 1.772 4.77 2.23.4.233.591.43.489.664-.146.327-.375.338-1.002.114l-.442-.14c-1.069-.363-2.76.174-4.444 3.841l-2.396 5.14 16.066 7.135c3.643 1.616 6.792 2.958 8.604 3.538 1.183.358 2.034.457 2.76-.673.342-.52.804-1.434 1.074-2.04.208-.468.524-.55.711-.468.28.126.274.514.067.982-1.203 2.708-2.567 5.402-3.085 6.568-.415.935-1.518 3.798-2.246 5.432-.227.515-.49.732-.771.607-.188-.083-.358-.327-.132-.841.27-.605.453-1.14.504-1.51.187-.923-.456-1.488-1.563-2.146-1.598-.933-4.727-2.322-8.37-3.94l-16.066-7.133-2.578 6.178c-1.012 2.403-1.167 3.509-.548 4.51.374.67.806 1.083 1.044 1.302.285.238.43.414.307.695-.126.28-.402.27-.82.084-.656-.292-4.132-2.785-4.416-3.023-.473-.322-.646-.567-.541-.8zm16.78-34.813c1.373-1.97 3.15-4.345 3.852-5.351.612-.88 2.31-3.497 3.331-4.964.352-.502.611-.696.862-.52.251.175.232.472-.089.933-.206.293-.396.659-.605 1.135-.533 1.124-.234 1.767.966 2.728 1.073.873 2.374 1.777 7.783 5.543l.755.526c.21.146.34.049.427-.075l9.696-13.923c.059-.082.104-.237-.105-.384l-.755-.525c-5.41-3.768-6.74-4.63-7.902-5.377-1.274-.761-1.885-.691-3.039.249-.288.238-.767.836-1.117 1.34-.294.419-.566.541-.817.365-.25-.174-.16-.484.22-1.031 1.372-1.97 3.267-4.513 3.938-5.477.614-.88 2.223-3.372 3.216-4.794.379-.545.64-.739.89-.564.253.175.203.515-.088.933-.205.294-.397.659-.634 1.178-.505 1.081-.205 1.726.994 2.686 1.074.873 2.082 1.573 7.49 5.339l6.291 4.38c3.273 2.276 6.081 4.234 7.751 5.147 1.093.573 1.912.832 2.866-.184.435-.446 1.033-1.212 1.44-1.799.264-.379.62-.44.787-.325.251.175.173.557-.147 1.016-1.666 2.39-3.486 4.735-4.185 5.74-.585.84-2.27 3.527-3.263 4.954-.35.503-.68.709-.933.534-.167-.116-.26-.43.032-.85.41-.587.66-1.035.81-1.43.357-.87-.168-1.547-1.13-2.404-1.393-1.218-4.118-3.116-7.389-5.393l-2.727-1.898c-.125-.088-.298-.02-.355.064l-9.697 13.92c-.085.125-.13.28.037.398l2.725 1.899c3.27 2.276 6.027 4.132 7.694 5.046 1.095.574 1.912.83 2.84-.142.433-.445 1.06-1.254 1.44-1.799.291-.42.618-.441.785-.325.252.176.173.556-.148 1.017-1.664 2.39-3.571 4.86-4.301 5.908-.584.84-2.153 3.36-3.174 4.827-.322.462-.623.626-.873.45-.17-.118-.291-.39.03-.849.38-.546.63-.995.779-1.388.359-.871-.168-1.548-1.126-2.404-1.394-1.22-4.205-3.175-7.476-5.452l-6.29-4.38c-5.411-3.766-6.417-4.467-7.579-5.213-1.275-.765-1.886-.69-3.038.25-.29.235-.769.835-1.15 1.38-.26.377-.563.541-.813.366-.254-.176-.133-.527.218-1.031zm26.873-37.803c1.709-1.536 3.64-3.135 3.943-3.408.304-.274 1.87-1.82 3.808-3.56.492-.444.789-.573.994-.345.207.229.043.582-.3.888-.266.24-.535.552-.699.905-.201.387-.07.61.24.952.376.418 1.636 1.209 3.387 2.314 2.484 1.616 14.307 8.645 16.132 9.682l.115-.104-8.484-22.264c-.478-1.219-.375-1.792-.07-2.065.379-.342 1.126-.121 2.467.527l21.042 9.942.113-.104c-1.029-2.441-6.137-13.24-8.344-18.06-.454-.965-.922-1.713-1.332-2.168-.479-.533-1.125-.64-2.454.557-.304.274-.707.36-.877.17-.206-.227-.007-.543.524-1.023 1.748-1.572 3.337-2.862 3.638-3.136.23-.205 1.604-1.58 2.708-2.568.378-.341.676-.47.846-.28.205.227.19.516-.115.789-.342.308-.762.756-1.04 1.21-.526 1.023.189 2.58 1.18 5.055 2.099 5.466 7.907 18.798 10.613 25.091.646 1.482.797 2.032.303 2.478-.455.408-1.026.235-2.579-.498l-21.155-9.84-.076.07c.66 1.88 6.498 17.384 7.797 21.577.588 1.875.739 2.426.246 2.87-.418.376-.916.206-1.971-.358L82.459 95.766c-1.475-.801-2.426-1.322-3.192-1.18-.548.077-1.228.622-1.532.894-.342.308-.634.365-.84.137-.205-.227-.006-.542.488-.99zm43.763-36.507c2.02-1.206 4.526-2.588 5.624-3.244 1.227-.734 9.805-5.804 10.524-6.294.674-.463 1.21-.963 1.491-1.19.193-.175.335-.438.51-.541.22-.133.368.016.471.192.16.263.202.834 1.138 2.595.191.421 1.074 2.097 1.25 2.587.06.201.235.693-.071.877-.264.157-.413.008-.598-.3-.156-.263-.593-.895-1.075-1.203-.7-.473-1.323-.815-3.356.163-.71.306-5.367 2.972-6.158 3.444-.176.105-.184.29-.053.508l5.51 9.209c.13.219.278.367.5.236.875-.524 5.874-3.514 6.7-4.127.868-.638 1.316-1.083 1.501-1.67.149-.448.149-.745.324-.85.176-.106.413-.009.544.21.13.22.41.885 1.319 2.903a45.11 45.11 0 0 0 1.32 2.604c.184.306.455.859.103 1.069-.263.157-.43.08-.535-.098-.278-.368-.567-.85-.943-1.28-.666-.614-1.49-.895-3.015-.162-.755.333-5.192 2.867-6.157 3.444-.175.105-.114.307.016.526l1.786 2.981c.76 1.273 2.604 4.455 3.304 5.525 1.608 2.49 3.133 2.353 7.08-.008 1.01-.603 2.606-1.617 3.351-2.66.704-1.015.67-2.066.016-3.757-.149-.447-.166-.675.097-.832.307-.184.64.273.875.667.499.833 1.713 3.558 1.94 4.435.314 1.122-.037 1.331-1.483 2.198-2.896 1.731-5.245 3.077-7.185 4.118-1.912 1.084-3.384 1.904-4.525 2.585-.44.263-1.245.806-2.167 1.357a72.483 72.483 0 0 1-2.622 1.688c-.482.287-.825.314-.982.05-.105-.175-.105-.474.38-.761.568-.341.98-.647 1.28-.945.684-.647.483-1.48-.04-2.655-.77-1.684-2.527-4.62-4.575-8.04l-3.933-6.577c-3.385-5.656-4.014-6.71-4.767-7.867-.848-1.219-1.435-1.404-2.873-1.02-.36.096-1.043.446-1.613.786-.395.236-.738.262-.894 0-.158-.264.097-.535.666-.876zm39.897-21.516c2.687-1.126 4.966-1.638 6.17-1.81.414-.065.663-.002.78.28.219.518.551 1.71 1.876 4.866.355.849.344 1.351.015 1.49-.282.117-.523-.06-.72-.53-.16-.376-.862-1.522-2.193-2.183-.927-.497-2.72-1.075-5.408.052-2.97 1.245-5.001 3.925-3.857 6.658.753 1.79 2.005 2.928 6.597 3.44l2.092.23c6.733.725 9.713 3.075 11.235 6.703 1.246 2.968 1.122 5.845-1.005 9.23-1.386 2.243-4.02 3.625-6.235 4.553-2.405 1.008-5.047 1.84-7.174 1.79-.779-.006-.999-.134-1.374-1.03-.91-2.168-1.768-4.743-1.999-5.421-.255-.615-.245-1.118.084-1.256.378-.157.583.2.702.482.216.517.713 1.307 1.246 1.914 2.14 2.594 5.666 2.278 8.258 1.192 3.581-1.503 4.8-4.673 3.614-7.5-.73-1.743-1.886-3.307-6.472-3.934l-2.995-.405c-6.108-.82-8.836-2.834-10.318-6.366-2.057-4.902 1.332-10.034 7.081-12.445zm15.864-6.204c.346-.088.88.146 2.008.021 1.327-.177 2.974-.54 4.41-.904l17.69-4.463c1.387-.35 2.303-.688 2.923-.949.667-.274.99-.46 1.138-.5.299-.074.41.161.573.805.225.892.914 4.038 1.189 5.13.064.455.026.73-.22.792-.348.087-.497-.085-.71-.717l-.162-.435c-.374-1.065-1.839-2.063-5.765-1.126l-5.525 1.29 4.303 17.041c.975 3.864 1.863 7.17 2.523 8.954.45 1.15.898 1.88 2.235 1.754.62-.053 1.624-.253 2.267-.415.497-.124.759.074.807.272.075.297-.234.533-.729.658-2.874.725-5.835 1.313-7.074 1.628-.991.249-3.925 1.148-5.66 1.585-.545.14-.881.065-.955-.232-.05-.198.035-.483.58-.622.644-.163 1.177-.35 1.5-.535.842-.424.89-1.279.725-2.555-.253-1.833-1.09-5.153-2.066-9.017l-4.303-17.041-6.453 1.787c-2.514.688-3.48 1.247-3.888 2.351a5.09 5.09 0 0 0-.379 1.625c-.012.371-.06.594-.358.67-.298.074-.46-.148-.571-.594-.176-.695-.359-4.968-.348-5.34-.037-.57.047-.855.295-.918zm53.26-13.785l10.17.164 3.863 7.575a67.987 67.987 0 0 1 2.172 4.736l.102.003s1.01-2.334 2.324-4.664l4.16-7.446 10.166.166-11.487 18.21 10.844 18.315-9.964-.16-4.066-7.732a58.01 58.01 0 0 1-2.173-4.583l-.102-.002s-1.007 2.233-2.322 4.51l-4.315 7.597-9.913-.16 11.382-17.958-10.841-18.571zm52.556 37.778c.672-2.728 1.603-5.657 1.85-6.438.231-.732.515-1.242.912-1.143.449.108.387.568.29.965-.158.645-.215 1.735-.176 2.64.187 3.94 2.786 6 5.862 6.758 4.465 1.1 7.394-1.392 8.041-4.02.599-2.43.418-4.896-2.909-9.134l-1.84-2.35c-4.411-5.609-5.441-9.546-4.45-13.565 1.342-5.457 6.874-8.252 13.772-6.555 3.224.794 5.186 1.802 6.39 2.467.423.21.634.42.55.766-.16.647-.71 2.036-1.666 5.906-.269 1.09-.515 1.45-.912 1.355-.348-.086-.425-.42-.277-1.016.112-.446.24-2.046-.485-3.593-.51-1.125-1.583-2.968-4.81-3.761-3.671-.903-6.428.68-7.161 3.656-.562 2.283.152 4.3 3.5 8.439l1.132 1.384c4.896 5.993 6.186 9.941 5.023 14.653-.71 2.879-2.64 6.034-6.79 7.485-2.87.978-5.76.74-8.39.093-2.878-.709-5.025-1.605-6.925-3.073-.711-.543-.797-.827-.53-1.919zm87.918 66.937c16.184 16.18 28.896 35.029 37.772 56.015 9.195 21.735 13.857 44.816 13.857 68.605 0 23.79-4.662 46.875-13.857 68.608-8.876 20.986-21.588 39.833-37.772 56.014-16.186 16.18-35.034 28.89-56.025 37.764-21.737 9.193-44.829 13.854-68.62 13.854-23.794 0-46.88-4.66-68.618-13.854-20.99-8.874-39.842-21.583-56.027-37.764-16.186-16.181-28.895-35.028-37.773-56.014-9.195-21.733-13.857-44.82-13.857-68.608 0-23.79 4.662-46.87 13.857-68.605 8.878-20.986 21.587-39.834 37.773-56.015 16.185-16.182 35.037-28.888 56.027-37.764 21.739-9.192 44.824-13.853 68.617-13.853 23.792 0 46.884 4.66 68.62 13.853 20.992 8.876 39.84 21.582 56.026 37.764zm-50.608-71.612c3.228-6.67 12.106-13.046 24.388-7.105 10.215 4.94 13.824 13.667 9.486 22.637-4.34 8.968-14.277 12.846-24.721 7.795-11.778-5.696-12.511-16.381-9.153-23.327zm44.864 27.047l4.02-4.964c4.149-5.12 4.961-6.04 5.75-7.178.885-1.254.825-1.83-.031-3.049-.21-.302-.773-.825-1.251-1.21-.4-.323-.5-.603-.308-.84.193-.24.497-.125 1.013.293 1.865 1.512 4.144 3.489 5.176 4.325.874.707 3.283 2.526 4.554 3.555.513.417.691.69.495.927-.194.238-.486.197-.845-.093-.399-.32-.628-.443-1.13-.717-1.041-.58-1.706-.329-2.75.797-.945 1.008-1.72 1.96-5.866 7.083l-3.83 4.724c-3.989 4.922-4.581 7.6-3.967 10.333.553 2.485 2.123 3.955 3.314 4.92 1.51 1.221 3.65 2.233 6.134 2.008 3.427-.25 5.884-3.123 8.683-6.578l3.443-4.247c4.149-5.123 4.88-6.107 5.71-7.211.854-1.215.865-1.798.011-3.017-.214-.304-.78-.827-1.176-1.148-.396-.322-.497-.601-.306-.84.196-.237.498-.125.973.263 1.788 1.446 4.067 3.424 4.105 3.456.398.322 2.805 2.14 4.155 3.23.475.388.651.66.458.9-.192.236-.487.195-.886-.127-.398-.32-.627-.442-1.13-.716-1.08-.614-1.705-.33-2.75.796-.906 1.04-1.721 1.961-5.867 7.082l-2.929 3.614c-3.056 3.77-6.67 7.42-11.569 7.463-4.135.069-7.086-1.727-9.35-3.561-1.825-1.48-5.374-4.487-6.114-8.768-.533-2.995.104-6.622 4.06-11.505zm47.382 21.106c-1.69-1.986-2.604-2.622-3.778-2.522a5.115 5.115 0 0 0-1.63.344c-.343.147-.567.197-.76-.04-.193-.237-.063-.478.294-.767.555-.454 4.349-2.434 4.692-2.58.498-.278.793-.32.956-.122.224.277.24.86.834 1.826.72 1.126 1.749 2.463 2.687 3.61l11.549 14.12c.903 1.109 1.596 1.796 2.098 2.245.53.49.837.7.936.819.191.237.028.441-.489.86-.711.582-3.265 2.54-4.14 3.253-.387.25-.65.334-.81.134-.229-.276-.134-.484.348-.944l.326-.331c.804-.79 1.09-2.54-1.427-5.698l-3.512-4.454-13.61 11.124c-3.085 2.522-5.705 4.728-7.04 6.085-.852.894-1.323 1.609-.638 2.767.306.54.916 1.362 1.334 1.876.324.397.258.715.102.845-.243.193-.586.014-.91-.38-1.873-2.294-3.664-4.726-4.474-5.715-.65-.79-2.709-3.067-3.838-4.45-.357-.437-.432-.77-.194-.965.157-.13.454-.174.808.263.421.515.815.916 1.121 1.128.74.582 1.537.264 2.623-.425 1.552-1.006 4.203-3.175 7.29-5.697l13.61-11.125-4.358-5.084zm26.61 32.421c-.07-.366-.367-1.073-.666-1.668-.207-.41-.21-.752.066-.89.275-.136.524.136.801.684 1.079 2.146 2.319 4.838 2.871 5.935.485.957 1.975 3.696 2.78 5.293.274.547.32.866.05 1.004-.276.138-.529-.022-.782-.524-.158-.318-.39-.66-.709-1.07-.735-1.004-1.444-1.049-2.86-.451-1.277.53-2.693 1.24-8.583 4.204l-.82.411c-.228.116-.206.277-.136.414l7.628 15.153c.044.09.158.205.387.089l.821-.413c5.888-2.962 7.28-3.72 8.49-4.385 1.278-.757 1.507-1.33 1.227-2.79-.068-.368-.367-1.075-.645-1.623-.229-.455-.209-.752.066-.89.278-.138.505.09.804.684 1.079 2.146 2.411 5.022 2.94 6.07.482.96 1.904 3.56 2.686 5.111.3.594.348.912.073 1.052-.274.137-.55-.069-.78-.524-.16-.32-.39-.662-.733-1.119-.71-.958-1.418-1.001-2.836-.403-1.277.529-2.374 1.08-8.262 4.042l-6.848 3.444c-3.56 1.792-6.619 3.33-8.217 4.363-1.024.687-1.64 1.284-1.202 2.609.182.593.574 1.483.896 2.122.204.41.092.753-.09.846-.271.136-.57-.113-.824-.614-1.31-2.603-2.504-5.319-3.059-6.414-.455-.913-2.019-3.673-2.798-5.227-.278-.547-.3-.936-.027-1.074.185-.092.505-.024.734.433.321.639.596 1.073.871 1.39.595.732 1.44.593 2.652.154 1.735-.642 4.703-2.136 8.261-3.927l2.968-1.494c.137-.067.16-.25.115-.342l-7.627-15.153c-.069-.136-.183-.25-.364-.16l-2.968 1.493c-3.563 1.792-6.507 3.33-8.103 4.362-1.026.688-1.643 1.285-1.226 2.563.182.593.596 1.528.896 2.123.228.456.092.753-.088.846-.276.138-.575-.114-.826-.616-1.31-2.6-2.574-5.454-3.147-6.595-.46-.913-1.93-3.492-2.732-5.089-.253-.502-.253-.844.02-.983.182-.091.477-.068.733.433.297.594.574 1.028.845 1.346.6.73 1.443.59 2.654.154 1.737-.645 4.795-2.184 8.354-3.975l6.85-3.444c5.886-2.963 6.982-3.514 8.193-4.18 1.277-.756 1.504-1.33 1.227-2.79zm21.925 50.405c.011-.372-.134-1.127-.3-1.77-.116-.444-.043-.78.254-.856.297-.077.484.243.65.886.59 2.275 1.206 5.072 1.525 6.31.36 1.385 2.801 11.044 3.065 11.873.254.778.584 1.433.72 1.766.115.234.326.443.38.642.063.247-.122.348-.32.399-.297.076-.857-.043-2.812.356-.46.065-2.314.438-2.836.468-.21.001-.729.03-.821-.316-.075-.297.11-.397.456-.487.297-.077 1.026-.318 1.46-.693.65-.538 1.155-1.038.792-3.266-.092-.767-1.336-5.987-1.568-6.877-.05-.198-.222-.259-.47-.195l-10.392 2.683c-.249.062-.434.164-.37.41.258.99 1.714 6.63 2.068 7.595.365 1.013.67 1.568 1.178 1.912.39.269.671.354.727.552.05.197-.11.396-.355.46-.251.064-.969.144-3.162.446-.865.119-2.574.453-2.871.53-.346.09-.954.194-1.055-.203-.075-.295.048-.433.245-.485.433-.163.98-.305 1.495-.545.777-.463 1.281-1.173 1.008-2.845-.106-.818-1.284-5.789-1.566-6.877-.052-.2-.262-.197-.508-.133l-3.367.87c-1.435.369-5.009 1.24-6.231 1.607-2.85.841-3.142 2.342-1.995 6.795.295 1.138.816 2.955 1.605 3.965.777.96 1.794 1.227 3.602 1.075.472-.014.696.033.771.33.09.345-.44.535-.89.65-.938.243-3.9.637-4.802.609-1.165-.017-1.266-.413-1.689-2.046-.845-3.264-1.47-5.9-1.922-8.053-.5-2.14-.87-3.785-1.202-5.072-.13-.493-.42-1.42-.687-2.46a67.342 67.342 0 0 1-.883-2.992c-.139-.543-.068-.88.229-.956.2-.05.484.033.625.577.165.643.346 1.126.544 1.496.431.84 1.286.882 2.56.712 1.83-.262 5.147-1.119 9.009-2.114l7.42-1.916c6.384-1.648 7.573-1.954 8.894-2.35 1.409-.47 1.753-.98 1.792-2.467zm8.09 37.629c.077-.364.075-1.132.03-1.795-.03-.459.1-.774.408-.794.306-.022.43.327.476.99.16 2.345.253 5.206.315 6.124.105 1.529.486 5.6.58 6.976.195 2.854.162 6.135-1.254 8.638-.78 1.335-2.843 3.37-5.747 3.57-3.21.217-6.192-1.423-10.01-5.565-4.622 4.31-8.334 7.738-10.851 10.626-2.328 2.668-2.422 4.262-2.526 4.986-.07.464-.053.722-.03 1.077.026.358-.218.579-.421.592-.36.024-.48-.273-.517-.835l-.296-4.281c-.167-2.498.005-3.739.535-4.954.835-2.003 2.762-3.824 5.954-6.552 2.224-1.944 5.001-4.03 5.624-4.633.24-.274.273-.532.253-.838l-.176-4.033c-.013-.204-.123-.35-.379-.333l-.612.042c-4.027.275-7.39.556-9.21.884-1.266.241-2.068.5-2.176 1.891-.06.67-.042 1.641-.004 2.203.024.356-.218.578-.42.59-.307.022-.485-.324-.522-.886-.179-2.6-.28-6.33-.324-6.995-.06-.865-.408-3.708-.53-5.493-.038-.56.094-.878.4-.897.205-.014.469.122.509.68.044.665.127 1.171.26 1.572.266.903 1.098 1.102 2.384 1.168 1.85.078 5.267-.156 9.241-.426l7.65-.523c6.577-.448 7.797-.534 9.17-.678 1.476-.203 1.906-.642 2.216-2.098zM245.995.006C110.352.006 0 110.336 0 245.95c0 135.616 110.352 245.952 245.995 245.952S491.991 381.566 491.991 245.95C491.99 110.336 381.638.006 245.995.006z" fill="#FFF" mask="url(#b)"/><path d="M261.266 137.059c1.128 5.15.197 10.185-1.756 14.94-3.827 9.395-9.652 17.554-16.406 25.08-.175.203-.383.377-.792.762-6.229-6.628-11.564-13.618-15.413-21.685-2.063-4.301-3.432-8.75-3.801-13.55-.782-10.205 6.85-19.323 17.025-20.5 9.8-1.14 19.041 5.307 21.143 14.953zm-27.655 50.618c0-1.085 3.935-1.967 8.787-1.967 4.854 0 8.79.882 8.79 1.967 0 1.09-3.936 1.967-8.79 1.967-4.852 0-8.787-.877-8.787-1.967zm101.362 76.324c5.81-.103 9.232-3.326 9.232-7.511 0-2.71-1.751-4.518-5.344-6.903l-11.637-7.72c-4.599-3.049-6.884-7.12-6.394-11.985.568-6.92 5.633-11.698 14.062-11.698 2.15 0 6.046.298 9.099.685h4.196l-.874 9.818h-.648c-.008-4.639-3.763-7.69-9.42-7.69-5.25 0-8.578 2.838-8.738 6.426-.166 2.628 1.859 4.397 4.651 6.213l12.742 8.276c3.971 2.58 6.282 6.087 5.998 11.077-.407 8.7-6.967 13.83-17.648 13.83-5.99 0-11.61-1.545-14.05-4.053-1.104-2.801-.157-8.428 1.586-11.34h.59c-.536 6.96 4.583 12.708 12.597 12.575zm17.185-125.831l-104.33 104.333 104.33 104.332-5.322 5.329-104.337-104.331-104.335 104.33-5.325-5.328 104.33-104.332-104.33-104.333 5.33-5.33 104.33 104.332L346.836 132.84l5.322 5.33zM267.64 367.73h.84l.01.66h-20.298l.015-.66h.846a4.282 4.282 0 0 0 4.275-4.154v-17.058h-21.66v17.012a4.286 4.286 0 0 0 4.28 4.2h.847l.009.66h-20.297l.015-.66h.841a4.286 4.286 0 0 0 4.28-4.2v-37.038c-.057-2.313-1.946-4.2-4.274-4.2h-.847l-.015-.672h20.297l-.009.672h-.847c-2.324 0-4.213 1.887-4.28 4.2v17.211h21.66v-17.211c-.087-2.296-1.965-4.2-4.275-4.2h-.846l-.015-.672h20.298l-.01.672h-.844a4.28 4.28 0 0 0-4.284 4.2v37.038a4.29 4.29 0 0 0 4.288 4.2zM116.2 265.92l.01-.67h1.232a4.12 4.12 0 0 0 4.123-4.045v-34.707c0-4.965-.776-8.348-.776-8.348h.66l33.705 32.129v-26.41a4.124 4.124 0 0 0-4.126-4.047h-1.23l-.008-.67h20.251l-.008.666H168.8a4.126 4.126 0 0 0-4.122 3.996v34.516c0 5.038.774 8.524.774 8.524h-.609l-33.758-32.14v26.513a4.124 4.124 0 0 0 4.123 4.024h1.233l.009.669H116.2zM76 242.503C76 334.307 150.693 409 242.499 409 334.31 409 409 334.307 409 242.503 409 150.69 334.31 76 242.499 76 150.693 76 76 150.69 76 242.503z" fill="#FFF"/><path d="M234 143.65c0 6.788 5.756 12.35 12.771 12.35 6.521 0 12.211-5.78 12.229-12.408 0-6.75-5.748-12.584-12.438-12.592-6.823-.015-12.562 5.767-12.562 12.65" fill="#FFF"/></g></svg>