<svg width="5000" height="5000" viewBox="0 0 5000 5000" xmlns="http://www.w3.org/2000/svg" xmlns:xlink="http://www.w3.org/1999/xlink"><title>Page 1</title><defs><path id="a" d="M4999.908.057H0V5000h4999.908V.057z"/></defs><g fill="none" fill-rule="evenodd"><path d="M1226.101 4005.074c-45.818-38.332-119.338-56.48-202.3 42.718-69.304 82.886-78.467 186.94-1.982 250.916 27.882 23.317 103.752 63.753 200.052-51.401 74.64-89.216 69.56-187.588 4.23-242.233m1778.726 489.992c-1.029-1.855-2.17-4.25-3.67-3.871-1.52.402-1.88 3.178-1.88 5.326l-14.254 135.158c.023 2.172.896 3.514 2.91 3.022l92.507-24.012c2.53-.648 2.641-2.305 1.723-3.67l-77.336-111.953zM304.799 1963.448l127.002 33.667c4.509 1.208 6.288.604 8.604-2.015 5.539-8.738 9.992-21.515 12.923-32.57 4.666-17.565 4.755-23.987 1.23-32.982-5.952-16.08-20.52-36.073-55.674-45.382-60.24-15.966-86.712 21.068-93.637 47.172-2.91 11.03-5.214 21.716-5.404 26.505.2 3.279 1.443 4.677 4.956 5.605m4307.023 348.961c-2.419 10.059-2.53 23.585-1.747 34.998 1.21 18.125 3.224 24.245 9.467 31.63 10.785 13.304 31.013 27.536 67.264 25.062 62.187-4.252 75.345-47.831 73.488-74.773-.762-11.401-2.036-22.253-3.379-26.841-1.253-3.033-2.864-3.972-6.49-3.715l-131.084 8.952c-4.679.324-6.156 1.465-7.519 4.687M3372.597 729.045c29.023 14.043 101.01 32.135 155.723-81.005 42.539-87.897 15.93-167.694-50.44-199.806-45.828-22.154-111.326-23.853-158.832 74.315-39.586 81.81-24.033 168.97 53.549 206.496M360.541 2460.792c90.638 6.77 165.96-39.696 172.394-125.67 2.393-32.1-7.217-105.732-132.552-115.097-97.363-7.261-161.809 46.769-167.303 120.322-3.793 50.764 18.696 112.322 127.461 120.445" fill="#48B7C2"/><g transform="translate(0 -.06)"><mask id="b" fill="#fff"><use xlink:href="#a"/></mask><path d="M4774.886 2726.972c-6.49 4.789-86.198 61.918-160.468 117.749-35.022 26.159-105.844 76.73-113.028 82.482l-.291 2.038 194.726 25.172c26.762 3.58 35.11.695 40.862-9.464 3.603-6.29 5.258-17.051 6.198-23.227.873-5.617 3.155-6.87 5.706-6.467 3.625.536 3.4 5.237 2.395 11.948-3.625 23.585-8.37 47.576-9.846 57.33-.783 5.103-2.371 22.222-5.774 44.263-.94 6.155-2.082 10.182-5.684 9.645-2.551-.403-4.23-3.268-3.424-8.414.695-4.633 1.254-8.213.582-14.098-1.7-12.867-8.86-17.634-33.41-21.951l-274.365-47.373c-9.736-1.498-13.292-5.707-12.755-9.332 1.209-7.675 6.757-13.114 12.106-17.03 30.5-24.234 93.068-72.412 145.99-112.623 54.802-42.024 114.996-81.654 124.035-89.173l.247-1.566-178.884-22.198c-34.036-4.184-45.18-.111-49.61 8.122-3.738 7.296-5.593 15.978-6.691 23.16-.804 5.126-3.244 7.386-5.816 6.984-3.582-.561-3.986-4.835-3.046-10.965 4.475-29.248 9.266-50.082 10.542-58.293.625-4.095 2.392-25.914 5.929-49.007.963-6.13 2.08-10.16 6.219-9.554 2.53.403 4.142 3.803 3.515 7.899-.963 6.175-1.723 14.455-1.12 20.855 1.276 12.264 12.846 15.619 50.752 21.974l258.074 43.815c8.73 1.364 14.436 5.393 13.697 10.002-.85 5.66-8.481 10.787-17.363 17.297zm-232.59 594.227c-33.162 0-59.971-26.898-59.971-60.038 0-33.12 26.809-59.925 59.97-59.925 33.118 0 59.97 26.806 59.97 59.925 0 33.14-26.852 60.038-59.97 60.038zm-24.28 380.01c-17.723 27.499-36.741 54.173-44.373 65.966-7.05 10.92-23.43 39.25-33.86 55.428-3.913 6.088-7.023 9.018-10.536 6.758-2.193-1.387-2.082-4.41.984-9.197 3.94-6.13 6.468-11.926 8.122-16.424 3.893-9.891-3.176-19.961-15.305-29.024-17.498-13.112-35.825-24.928-42.787-29.426l-35.824-23.07c-23.563-15.194-35.981-17.007-52.295-19.491-8.951-1.453-142.7-4.833-175.258-4.206-23.184.537-41.13 4.409-51.267 9.622-6.735 3.692-14.12 9.42-17.5 14.656-2.237 3.49-5.1 6.022-8.167 4.028-2.618-1.678-1.945-5.572 1.433-10.853 5.057-7.831 27.48-39.742 36.743-54.152 5.908-9.13 16.134-27.905 28.823-47.551 2.796-4.364 5.482-5.706 8.123-4.006 2.617 1.678 1.074 5.036-1.39 12.687-1.653 4.498.45 8.952 3.939 11.167 3.47 2.259 10.138 3.468 18.216 4.363 17.028 2.304 161.629 8.974 178.346 9.869-7.652-11.122-68.251-128.02-77.871-142.834-6.781-10.562-13.071-17.096-18.753-20.766-4.366-2.797-10.294-4.14-16.827 2.149-3.403 3.357-6.803 6.757-9.4 5.035-3.064-1.947-2.53-4.676.829-9.958 9.309-14.39 19.579-27.526 27.769-40.19 6.177-9.6 23.43-39.25 28.778-47.552 3.112-4.81 5.93-7.316 8.547-5.616 3.066 1.969 2.126 6.31-.961 11.099-2.82 4.385-6.445 13.807-7.138 22.6-1.523 11.995.582 20.164 6.199 37.37 8.189 25.645 71.38 152.882 85.099 172.842 11.5 16.67 25.04 25.399 39.43 34.684l35.802 23.049c6.98 4.52 25.332 16.336 44.508 26.853 13.224 7.272 25.378 9.534 35.555-2.44 4.814-5.55 11.864-14.612 15.8-20.698 3.112-4.811 5.818-6.154 7.989-4.744 3.065 1.947 2.125 6.31-1.522 11.973zm-287.501 385.982c-24.055 24.414-48.111 46.635-58.315 56.994-8.37 8.527-30.21 32.963-44.78 47.754-4.763 4.81-8.411 6.31-10.983 3.76-1.858-1.836-1.498-4.365 2.84-8.84a83.34 83.34 0 0 0 11.659-14.791c5.798-8.84-.133-19.088-9.8-30.723-13.717-17.164-42.965-45.941-77.001-79.462l-151.74-149.345-52.808 56.592c-20.387 22.196-27.28 32.894-24.616 46.478 1.924 9.15 4.543 15.37 6.78 18.997 2.215 3.67 2.618 6.242.425 8.48-2.551 2.552-5.123 1.5-9.173-2.504-5.954-5.842-32.694-46.01-34.932-49.68-3.714-5.838-4.833-9.128-2.686-11.344 2.932-2.977 10.272-3.021 20.14-11.522 11.659-9.646 26.248-23.006 38.287-35.224l144.22-146.547c11.682-11.84 18.598-21.103 23.297-27.391 4.339-6.624 6.533-10.315 7.989-11.793 2.55-2.594 5.124-.76 10.672 4.677 7.765 7.677 32.224 33.902 41.846 43.39 3.334 4.005 4.833 6.936 2.64 9.152-2.931 2.954-5.505 1.88-11.39-3.222l-4.453-3.648c-10.36-8.704-30.545-8.905-63.707 23.295l-47.016 45.56 151.762 149.345c34.06 33.498 63.26 62.276 81.028 76.082 11.434 9.108 21.774 14.904 34.17 5.236 5.84-4.453 14.613-11.836 20.073-17.41 3.984-4.072 6.936-4.833 8.794-3.02 2.575 2.552.784 6.623-3.222 10.674zm-310.394 282.914c-27.972 19.805-55.586 37.46-67.018 45.538-9.736 6.915-35.56 27.1-52.498 39.095-5.505 3.892-9.377 4.719-11.457 1.767-1.5-2.105-.716-4.588 4.363-8.191a85.568 85.568 0 0 0 14.054-12.508c7.27-7.676 4.743-16.717-2.71-29.896-10.493-19.312-34.213-52.79-63.303-93.874l-52.855-74.603c-45.606-64.426-54.041-76.307-64.47-89.286-11.075-13.784-20.407-17.99-31.215-13.516-5.572 2.036-11.412 5.505-16.47 9.13-4.228 2.998-7.385 3.938-9.78.56-1.812-2.552.985-5.796 7.743-10.608 16.135-11.39 43.726-29.023 56.012-37.727 10.584-7.52 34.706-26.518 50.817-37.907 5.505-3.894 9.489-5.461 11.3-2.931 2.396 3.424.47 6.063-3.781 9.062-4.23 2.998-7.318 5.818-11.837 10.293-9.913 10.227-8.212 19.803 1.454 35.244 8.75 14.188 17.163 26.047 62.79 90.45l52.81 74.605c29.135 41.129 52.833 74.582 67.467 91.61 9.356 10.542 17.745 16.068 31.643 8.773 6.533-3.356 16.447-9.108 22.802-13.606 4.676-3.311 7.697-3.534 9.197-1.431 2.08 2.976-.402 6.646-5.058 9.957zm-298.534 196.472c-33.677 16.269-58.45 27.122-79.707 36.833-21.482 9.264-38.532 16.962-57.666 26.204-5.17 2.53-15.441 7.518-26.428 13.382-10.762 5.236-22.465 12.039-31.776 16.558-6.085 2.955-10.048 3.133-11.636-.135-1.14-2.35.045-4.631 5.685-7.338a84.786 84.786 0 0 0 15.888-10.047c8.48-6.4 5.794-17.791 1.118-32.27-7.16-20.766-25.04-57.665-45.873-100.673l-39.831-82.283c-34.414-71.024-40.772-84.137-48.94-98.638-8.637-15.417-15.998-21.1-33.006-16.893-4.184.894-10.023 3.133-16.09 6.064-5.145 2.483-8.412 2.932-9.978-.358-1.59-3.27 1.209-5.775 8.233-9.175 21.976-10.63 52.096-23.496 64.716-29.63 11.234-5.412 44.665-23.337 62.879-32.153 6.557-3.177 10.273-3.825 11.882-.56 1.567 3.267-.805 5.55-6.421 8.257-5.124 2.506-12.375 6.6-17.544 10.25-11.458 8.458-11.367 18.19-4.364 35.02 6.288 15.394 12.642 28.487 47.038 99.554l39.83 82.237c28.978 59.814 44.598 92.059 58.517 95.707 11.322 3.2 25.062.582 61.515-17.073 24.772-11.994 42.762-21.304 48.357-39.586 2.662-8.771 1.923-24.615-1.455-33.923-1.566-4.41-1.968-7.674 1.767-9.49 3.268-1.565 4.857.517 7.587 6.132 2.484 5.149 16.225 41.779 18.997 57.13 2.193 11.636.986 15.105-23.294 26.897zm-348.031 157.692c-18.104 4.699-54.802 14.232-95.261 23.676-9.196 1.834-15.215 3.422-16.156-.112-.783-3.022.984-4.543 5.886-6.355 3.266-1.926 5.595-7.34 1.52-12.756l-67.108-93.111c-1.633-2.26-3.423-2.864-5.931-2.215l-112.087 29.113c-2.528.649-3.266 1.9-3.512 5.169l-9.264 75.947c-1.77 13.85-1.142 26.562.402 32.605 2.35 9.039 8.593 14.41 24.168 10.382l7.542-1.991c6.04-1.523 7.786-.941 8.59 2.08 1.03 4.029-1.722 5.796-7.227 7.25-16.111 4.164-38.108 8.28-53.727 12.308-5.505 1.432-32.76 10.115-58.896 16.918-6.536 1.699-9.825 1.453-10.876-2.553-.783-2.998.985-4.541 5.012-5.593 4.499-1.186 11.413-3.49 15.329-5.056 22.333-8.997 27.41-28.6 30.969-56.346l45.314-344.41c2.26-16.132 3.827-22.441 8.862-23.785 4.52-1.141 8.705 2.573 16.717 12.845 19.243 24.525 151.874 204.75 203.877 272.823 30.859 40.255 47.238 43.499 58.45 43.299 7.942-.425 15.619-1.88 21.639-3.468 4.048-1.053 6.667-1.186 7.585 2.326 1.03 4.028-3.222 6.199-21.817 11.01zm-482.61-208.084c-4.14.245-5.303-2.262-6.332-10.004l-.85-5.683c-1.835-13.427-16.716-27.1-62.901-25.354l-65.41 2.349 12.755 212.518c2.82 47.707 5.282 88.678 9.219 110.81 2.417 14.41 6.222 25.645 21.886 26.786 7.316.582 18.819.96 26.56.469 5.73-.334 8.392 1.052 8.548 3.648.2 3.625-3.825 5.459-9.531 5.773-34.215 2.083-66.953 2.462-81.453 3.335-11.95.715-44.51 4.229-65.252 5.482-6.736.402-10.472-.94-10.674-4.587-.156-2.572 1.835-4.253 8.033-4.655 7.787-.448 13.942-1.858 18.552-3.176 10.226-2.71 12.665-14.301 13.313-29.404 1.299-21.908-1.162-62.903-4.028-110.567l-12.731-212.537-77.113 6.668c-29.997 2.865-42.293 6.197-49.386 18.082-4.722 8.076-6.937 14.455-7.732 18.66-.783 4.208-2.215 6.379-5.326 6.58-3.624.2-4.811-2.327-5.17-8.033-.48-8.303 6.525-56.055 7.33-60.262 1.142-6.847 2.518-10.025 5.628-10.25 4.14-.222 9.633 4.655 22.668 4.903 15.116.648 34.875.513 51.972-.516l205.286-12.308c16.605-.982 27.904-3.22 35.626-4.721 7.698-2.037 11.769-3.311 13.828-3.424 3.626-.223 4.343 2.842 4.812 10.63.67 10.897 1.23 46.745 2.058 60.239-.224 5.19-1.073 8.346-4.184 8.549zm-452.41-58.092c-5.158-.582-9.342-.537-15.664-.246-14.231.96-19.38 9.287-22.49 27.21-2.941 16.38-4.62 30.813-13.716 109.245l-10.528 90.785c-5.807 50.035-10.528 90.807-11.043 113.227-.067 14.098 2.473 23.834 17.7 27.66 7.105 1.879 18.327 4.228 26.07 5.125 5.672.648 8.078 2.506 7.776 5.078-.426 3.626-4.722 4.677-10.394 4.028-34.058-3.962-66.382-9.264-80.312-10.876-11.861-1.386-44.542-3.601-65.174-5.996-6.701-.783-10.125-2.752-9.712-6.355.29-2.574 2.528-3.894 8.728-3.178a82.27 82.27 0 0 0 18.808.09c10.562-.872 14.679-9.264 17.957-24.033 5.08-21.371 9.813-62.142 15.619-112.176l10.529-90.785c9.107-78.432 10.763-92.865 11.648-109.514 1.018-17.655-3.144-27.01-14.176-30.904-5.495-2.215-12.151-3.511-18.328-4.206-5.158-.625-8.144-2.015-7.675-6.132.358-3.086 4.62-3.647 12.879-2.73 19.59 2.306 51.914 7.61 66.873 9.356 12.9 1.476 43.524 3.488 63.126 5.749 6.702.762 10.708 2.283 10.35 5.395-.47 4.117-3.692 4.787-8.851 4.183zm-279.177 45.313c-20.923 70.712-87.44 105.195-158.161 84.295-2.507-.74-7.978-2.35-10.317-3.601-2.338-1.254-5.683-2.755-4.654-6.245 1.186-3.983 5.102-4.431 15.563-1.387 27.894 8.28 76.027-11.613 91.054-62.387 4.854-16.47 13.235-50.26-7.285-83.422-13.07-21.73-32.604-30.77-44.061-34.148-7.473-2.215-15.092-3.94-20.015-3.76-2.776.268-5.16 2.797-6.782 8.303l-58.94 199.178c-13.562 45.829-25.186 85.19-29.035 107.32-2.63 14.412-2.887 26.25 11.469 32.672 6.679 3.02 17.34 7.295 24.816 9.467 5.46 1.654 7.519 3.87 6.79 6.354-1.04 3.49-5.458 3.804-10.941 2.193-32.883-9.711-63.797-20.498-76.743-24.325-11.468-3.401-43.29-11.166-63.204-17.074-6.478-1.924-9.521-4.43-8.492-7.92.727-2.508 3.177-3.402 9.152-1.634 7.462 2.216 13.74 2.976 18.517 3.29 10.55.985 16.279-9.22 22.534-23.093 8.682-20.186 20.329-59.524 33.89-105.354l25.935-87.672c22.389-75.68 26.506-89.643 30.232-105.867 4.017-17.252 2.394-26.36-13.013-34.707-3.691-2.17-12.016-5.191-18.986-7.273-5.483-1.61-8.18-3.467-7.14-6.957 1.03-3.492 4.813-3.448 12.275-1.231 26.395 7.809 57.34 18.573 71.27 22.71 20.432 6.042 49.757 13.09 72.66 19.827 62.265 18.44 78.499 45.987 84.25 55.83 7.854 13.696 15.183 40.213 7.362 66.618zm-365.911-211.33c-3.088 5.974-11.837 18.416-30.422 54.4-5.225 10.18-8.514 13.158-12.207 11.257-3.234-1.68-3.19-5.148-.325-10.675 2.127-4.207 7.206-19.67 3.704-36.676-2.394-12.332-8.65-33.097-38.645-48.56-34.147-17.61-65.151-8.481-79.44 19.222-10.964 21.213-8.66 42.852 14.647 91.68l7.922 16.357c34.19 70.8 37.615 112.893 14.992 156.752-13.796 26.764-40.38 53.369-84.8 57.912-30.688 2.866-58.682-6.31-83.141-18.907-26.774-13.807-45.884-27.748-61.201-46.747-5.717-7.05-5.908-10.07-.671-20.23 13.079-25.375 29.213-52.137 33.487-59.277 4.028-6.69 8.022-11.053 11.737-9.128 4.14 2.125 2.46 6.512.559 10.204-3.1 6.019-6.254 16.648-7.988 25.71-7.463 39.362 13.347 65.879 41.968 80.625 41.533 21.415 76.362 3.737 88.983-20.7 11.658-22.622 15.686-47.416-7.15-97.182l-12.666-27.57c-30.31-65.878-31.171-107.231-11.893-144.6 26.18-50.797 87.45-65.342 151.605-32.267 29.997 15.484 47.015 30.073 57.342 39.517 3.68 3.043 5.27 5.616 3.603 8.884zm-403.46-12.8c-76.318 91.233-200.366 110.05-301.567 25.422-114.336-95.64-88.915-219.923-29.93-290.455 56.985-68.14 175.639-118.511 295.156-18.574 99.186 82.996 112.635 192.398 36.34 283.608zm-496.046-386.185c-39.171 27.368-72.804 50.865-89.62 65.79-11.022 9.6-18.618 18.707-11.402 32.649 3.323 6.579 9.007 16.535 13.47 22.914 3.268 4.676 3.48 7.718 1.366 9.196-2.998 2.082-6.646-.447-10.216-5.505-19.333-27.681-36.788-55.405-45.112-67.333-6.836-9.777-26.853-35.713-38.443-52.34-4.174-5.953-4.98-9.824-1.993-11.904 2.126-1.5 4.588-.693 8.157 4.43 4.465 6.4 8.873 10.876 12.397 14.12 7.676 7.34 18.517 2.93 32.044-4.004 19.379-10.362 53-33.86 92.172-61.226l37.47-26.158c1.713-1.185 1.668-3.064.76-4.342l-113.596-162.636c-.896-1.275-2.204-2.261-4.342-.761l-37.46 26.16c-39.17 27.388-72.792 50.84-89.62 65.788-11.031 9.577-18.607 18.707-11.39 32.648 3.313 6.556 8.996 16.515 13.472 22.914 3.267 4.7 3.468 7.698 1.342 9.198-2.976 2.057-6.634-.447-10.204-5.55-19.323-27.66-36.787-55.362-45.112-67.311-6.847-9.756-26.853-35.714-38.758-52.766-3.86-5.528-4.654-9.375-1.69-11.48 2.138-1.476 4.61-.671 8.18 4.433 4.453 6.398 8.873 10.896 12.397 14.119 7.642 7.339 18.506 2.932 32.033-4.006 19.379-10.361 53.01-33.811 92.17-61.202l74.943-52.34c64.704-45.224 76.63-53.526 89.654-63.886 13.885-10.965 18.316-19.132 11.49-35.267-1.533-3.982-6.176-11.524-10.327-17.498-3.278-4.677-4.218-7.832-1.22-9.914 2.977-2.081 5.909.313 10.07 6.266 16.056 23.003 33.522 50.729 41.544 62.207 7.138 10.228 27.155 36.164 38.746 52.768 4.173 5.929 5.392 9.509 2.417 11.59-2.977 2.104-5.617.112-9.187-4.968-2.383-3.402-5.481-6.958-9.901-11.457-10.15-10.002-19.771-8.37-35.278 1.188-14.198 8.659-26.125 16.982-90.83 62.184l-8.95 6.243c-2.126 1.5-2.092 3.358-1.197 4.633l113.598 162.659c.895 1.276 2.652 1.947 4.778.448l8.939-6.243c64.693-45.18 76.62-53.527 89.643-63.887 13.886-10.987 18.327-19.133 11.49-35.244-1.532-4.028-6.164-11.57-10.327-17.5-3.267-4.7-4.185-7.854-1.22-9.934 2.989-2.06 5.92.312 10.07 6.287 16.068 22.982 33.533 50.707 41.566 62.187 7.139 10.225 27.144 36.16 38.735 52.743 4.163 5.975 5.393 9.554 2.416 11.613-2.986 2.082-5.604.134-9.173-4.99-2.384-3.38-5.495-6.937-9.903-11.435-10.17-10.003-19.781-8.368-35.277 1.187-14.221 8.682-26.148 17.006-90.852 62.23l-74.93 52.295zm-396.3-631.93c0-33.12 26.842-59.925 59.97-59.925 33.13 0 59.972 26.806 59.972 59.925 0 33.14-26.842 60.038-59.971 60.038-33.13 0-59.971-26.898-59.971-60.038zm-204.538-256.062c-.818-5.661 5.179-11.28 13.135-21.371 5.785-7.137 76.542-97.341 140.037-183.291 29.805-40.055 93.603-120.298 100.55-130.257l-.368-2.552-229.97 39.005c-31.272 5.1-40.358 11.165-43.68 24.255-1.947 8.169-.135 20.498.905 27.682.93 6.176-.335 8.458-3.412 8.927-4.106.582-5.448-4.99-6.59-12.71-3.915-26.718-5.997-51.624-7.574-62.41-.828-5.637-5.236-24.95-8.94-50.124-.973-6.668-1.231-11.883 2.898-12.486 3.088-.425 5.079 2.394 5.975 8.57.76 5.169 1.353 9.264 3.793 15.17 6.232 13.808 17.632 16.336 46.477 12.623l325.072-41.957c11.312-1.634 16.236-.27 16.907 4.34.828 5.662-3.916 12.665-8.74 19.154-26.068 36.879-83.745 112.514-128.813 173.76-47.282 64.154-101.592 130.414-109.994 141.089l.223 1.52 213.445-37.101c39.92-6.893 52.306-15.552 54.399-26.36 1.79-9.175.884-19.021-.325-27.255-.828-5.64-.257-8.862 2.83-9.332 4.118-.604 5.819 3.872 6.882 11.054 4.889 33.387 6.366 54.176 7.799 63.932.68 4.633 5.76 28.553 9.689 55.295.984 6.645 1.14 11.367-3.47 12.06-3.087.448-4.575-2.482-5.336-7.608-.973-6.69-2.841-15.865-5.963-22.778-6.065-12.734-21.258-12.601-66.046-6.536l-303.324 39.787c-10.282 1.499-17.721 1.007-18.471-4.095zm17.678-679.908c8.57-114.986 77.615-181.681 178.603-174.14 100.999 7.53 174.755 86.99 165.982 204.55-9.902 132.596-108.182 179.443-186.39 173.58-75.098-5.594-168.523-65.7-158.195-203.99zm40.312-278.674c6.108-23.094 14.579-50.942 16.973-59.982 4.006-15.05 13.639-55.474 17.23-69.023 7.452-28.116 18.495-59.58 40.302-79.047 11.859-10.271 38.377-23.14 66.985-15.54 31.63 8.379 54.948 33.91 78.13 86.25 58.574-26.381 105.464-47.236 139.13-66.794 31.116-18.081 37.259-33.107 40.626-39.731 2.204-4.251 2.876-6.77 3.805-10.282.928-3.513 3.97-4.856 5.986-4.32 3.513.918 3.714 4.196 2.248 9.724l-11.177 42.17c-6.523 24.593-12.23 35.982-21.303 45.929-14.601 16.547-39.071 27.792-78.734 43.602-27.736 11.446-61.27 22.422-69.28 26.226-3.178 1.846-4.33 4.207-5.136 7.227l-11.524 39.396c-.515 2.003.09 3.78 2.585 4.442l6.03 1.6c39.653 10.516 72.928 18.796 91.512 21.583 12.967 1.823 21.538 1.946 27.133-11.088 2.73-6.255 5.75-15.664 7.227-21.192.918-3.502 3.972-4.844 5.975-4.307 3.02.794 3.59 4.699 2.114 10.226-6.77 25.6-18.002 61.85-19.726 68.363-2.27 8.547-8.2 37.056-12.866 54.622-1.466 5.527-3.77 8.133-6.791 7.339-2.004-.537-4.106-2.696-2.641-8.211 1.734-6.546 2.55-11.693 2.607-15.967.392-9.588-6.971-14.21-19.121-19.043-17.544-6.814-51.177-15.72-90.325-26.102l-75.3-19.962c-64.76-17.185-76.81-20.374-90.493-23.45-14.825-2.877-20.408-.034-28.151 12.944-1.924 3.246-4.441 10.652-6.165 17.176-1.185 4.519-3.502 7.138-6.511 6.32-3.01-.793-3.077-4.564-1.354-11.098zm91.7-346.556c1.467-3.323 6.693-6.108 12.757-15.921 6.903-11.726 14.332-27.155 20.43-40.927l75.255-169.463c5.895-13.27 8.95-22.724 10.752-29.303 1.992-7.071 2.517-10.82 3.155-12.24 1.264-2.842 3.86-2.261 10.014.469 8.547 3.793 38.03 18.014 48.48 22.658 4.05 2.372 5.998 4.374 4.956 6.758-1.477 3.323-3.804 3.434-10.182 1.152l-4.486-1.421c-10.864-3.692-28.05 1.768-45.168 39.048l-24.347 52.25 163.276 72.513c37.022 16.426 69.022 30.076 87.438 35.972 12.017 3.637 20.665 4.643 28.038-6.847 3.48-5.282 8.18-14.58 10.92-20.733 2.116-4.755 5.326-5.583 7.229-4.755 2.842 1.276 2.786 5.225.682 9.98-12.23 27.525-26.091 54.903-31.35 66.762-4.22 9.499-15.43 38.6-22.825 55.216-2.305 5.226-4.991 7.44-7.843 6.165-1.902-.838-3.637-3.323-1.332-8.548 2.74-6.154 4.598-11.591 5.114-15.34 1.902-9.386-4.633-15.138-15.877-21.817-16.246-9.488-48.044-23.608-85.067-40.044l-163.275-72.513-26.192 62.8c-10.282 24.425-11.86 35.66-5.572 45.84 3.804 6.804 8.19 11.01 10.606 13.237 2.899 2.417 4.375 4.207 3.123 7.06-1.276 2.842-4.085 2.74-8.337.85-6.657-2.964-41.99-28.307-44.877-30.723-4.8-3.278-6.556-5.763-5.494-8.135zM513.31 1346.1c13.952-20.027 32.02-44.161 39.148-54.388 6.22-8.95 23.474-35.546 33.858-50.46 3.568-5.102 6.209-7.071 8.759-5.292 2.552 1.789 2.35 4.81-.905 9.488-2.093 2.987-4.028 6.702-6.154 11.546-5.415 11.425-2.372 17.958 9.823 27.726 10.898 8.872 24.123 18.058 79.093 56.345l7.675 5.338c2.136 1.487 3.457.503 4.34-.762l98.528-141.513c.604-.84 1.062-2.417-1.064-3.905l-7.674-5.337c-54.981-38.298-68.497-47.07-80.301-54.656-12.945-7.742-19.154-7.027-30.881 2.528-2.931 2.417-7.798 8.504-11.357 13.617-2.986 4.263-5.75 5.505-8.301 3.715-2.54-1.768-1.622-4.922 2.238-10.484 13.94-20.028 33.196-45.873 40.022-55.663 6.232-8.951 22.589-34.283 32.68-48.738 3.85-5.538 6.502-7.507 9.04-5.728 2.574 1.78 2.07 5.236-.893 9.488-2.081 2.987-4.03 6.69-6.446 11.972-5.124 10.986-2.08 17.544 10.104 27.3 10.92 8.873 21.158 15.988 76.128 54.264l63.93 44.52c33.253 23.138 61.795 43.042 78.768 52.318 11.11 5.829 19.424 8.458 29.124-1.87 4.42-4.53 10.495-12.317 14.635-18.281 2.685-3.85 6.3-4.476 8-3.301 2.55 1.779 1.757 5.662-1.5 10.328-16.928 24.29-35.423 48.12-42.528 58.336-5.94 8.537-23.06 35.86-33.162 50.36-3.558 5.114-6.915 7.206-9.477 5.427-1.7-1.174-2.64-4.363.325-8.637 4.162-5.964 6.7-10.518 8.224-14.535 3.635-8.85-1.702-15.731-11.47-24.435-14.164-12.386-41.856-31.675-75.097-54.824l-27.714-19.29c-1.276-.895-3.032-.201-3.614.649l-98.538 141.502c-.873 1.265-1.331 2.842.369 4.039l27.693 19.3c33.24 23.138 61.256 42.003 78.197 51.289 11.12 5.84 19.423 8.448 28.854-1.444 4.409-4.52 10.775-12.743 14.635-18.282 2.965-4.262 6.288-4.486 7.978-3.301 2.562 1.79 1.757 5.65-1.5 10.339-16.916 24.28-36.295 49.387-43.713 60.049-5.93 8.537-21.874 34.148-32.257 49.063-3.267 4.699-6.333 6.366-8.872 4.576-1.724-1.197-2.954-3.961.302-8.627 3.859-5.55 6.41-10.114 7.92-14.11 3.648-8.86-1.7-15.741-11.445-24.434-14.165-12.398-42.73-32.28-75.971-55.418l-63.931-44.52c-54.981-38.287-65.207-45.414-77.011-52.988-12.956-7.776-19.166-7.027-30.881 2.528-2.942 2.395-7.808 8.493-11.68 14.03-2.652 3.839-5.73 5.506-8.27 3.726-2.572-1.79-1.342-5.36 2.217-10.483zm273.1-384.25c17.367-15.618 36.992-31.864 40.069-34.638 3.098-2.787 19.009-18.496 38.7-36.185 5.002-4.521 8.022-5.83 10.103-3.513 2.104 2.327.437 5.919-3.042 9.029-2.708 2.439-5.438 5.605-7.105 9.197-2.048 3.938-.705 6.199 2.428 9.678 3.826 4.252 16.638 12.284 34.427 23.518 25.242 16.425 145.395 87.876 163.946 98.415l1.164-1.052-86.22-226.311c-4.855-12.386-3.804-18.215-.716-20.99 3.86-3.48 11.457-1.231 25.085 5.36l213.836 101.054 1.153-1.051c-10.461-24.817-62.376-134.587-84.798-183.582-4.621-9.802-9.376-17.41-13.538-22.031-4.868-5.415-11.436-6.501-24.94 5.66-3.088 2.788-7.183 3.66-8.917 1.725-2.093-2.305-.067-5.516 5.325-10.394 17.768-15.978 33.913-29.09 36.979-31.876 2.327-2.081 16.302-16.056 27.513-26.104 3.848-3.468 6.869-4.777 8.604-2.852 2.08 2.315 1.924 5.247-1.175 8.022-3.468 3.132-7.743 7.686-10.572 12.307-5.34 10.394 1.923 26.215 11.992 51.378 21.337 55.563 80.358 191.079 107.859 255.044 6.568 15.06 8.1 20.654 3.087 25.185-4.631 4.15-10.427 2.384-26.214-5.068l-214.99-100.015-.771.705c6.714 19.11 66.035 176.712 79.238 219.329 5.974 19.055 7.507 24.66 2.495 29.18-4.241 3.815-9.31 2.082-20.028-3.647L838.002 973.43c-14.993-8.146-24.658-13.438-32.446-12.005-5.562.794-12.476 6.332-15.564 9.096-3.48 3.133-6.445 3.703-8.537 1.387-2.081-2.305-.067-5.505 4.956-10.06zm444.747-371.08c20.52-12.263 45.997-26.305 57.152-32.972 12.475-7.464 99.645-58.998 106.952-63.977 6.858-4.71 12.307-9.79 15.16-12.106 1.958-1.768 3.402-4.442 5.18-5.494 2.227-1.353 3.738.168 4.789 1.958 1.623 2.674 2.048 8.47 11.558 26.372 1.947 4.285 10.92 21.315 12.699 26.293.616 2.047 2.394 7.049-.716 8.917-2.685 1.6-4.195.078-6.075-3.043-1.59-2.674-6.031-9.097-10.92-12.23-7.127-4.81-13.45-8.29-34.114 1.657-7.217 3.11-54.544 30.209-62.58 35.009-1.79 1.063-1.867 2.942-.535 5.158l55.988 93.603c1.32 2.227 2.83 3.738 5.08 2.406 8.905-5.325 59.702-35.725 68.092-41.957 8.829-6.48 13.382-11.01 15.262-16.973 1.51-4.554 1.51-7.575 3.289-8.638 1.79-1.074 4.197-.09 5.528 2.137 1.32 2.227 4.162 8.995 13.404 29.505 3.647 8.1 11.815 23.798 13.415 26.472 1.868 3.11 4.62 8.727 1.052 10.864-2.675 1.599-4.364.805-5.438-.995-2.831-3.738-5.763-8.65-9.588-13.014-6.77-6.243-15.14-9.096-30.634-1.644-7.676 3.379-52.766 29.146-62.58 35.009-1.778 1.063-1.151 3.12.169 5.348l18.148 30.299c7.72 12.933 26.46 45.28 33.577 56.155 16.347 25.32 31.843 23.922 71.953-.078 10.26-6.132 26.484-16.436 34.059-27.031 7.149-10.328 6.803-21.012.156-38.2-1.51-4.541-1.69-6.857.985-8.458 3.12-1.868 6.5 2.776 8.895 6.782 5.068 8.469 17.409 36.172 19.714 45.078 3.189 11.413-.38 13.538-15.071 22.344-29.426 17.599-53.302 31.283-73.016 41.856-19.435 11.02-34.394 19.356-45.986 26.282-4.464 2.674-12.654 8.19-22.02 13.796-9.084 6.04-18.64 12.34-26.65 17.15-4.901 2.922-8.38 3.19-9.98.505-1.063-1.768-1.063-4.811 3.859-7.731 5.774-3.47 9.97-6.58 13.002-9.6 6.959-6.58 4.923-15.038-.403-26.987-7.82-17.118-25.678-46.97-46.49-81.732l-39.964-66.852c-34.404-57.487-40.793-68.194-48.447-79.965-8.615-12.386-14.59-14.265-29.202-10.372-3.647.984-10.595 4.543-16.391 8-4.017 2.395-7.496 2.663-9.085-.011-1.601-2.674.985-5.426 6.768-8.895zm405.463-218.703c27.3-11.447 50.46-16.65 62.69-18.395 4.219-.66 6.747-.021 7.944 2.843 2.216 5.269 5.595 17.376 19.055 49.465 3.614 8.626 3.502 13.728.156 15.138-2.864 1.197-5.314-.605-7.328-5.382-1.611-3.827-8.75-15.474-22.277-22.188-9.42-5.056-27.647-10.93-54.958.527-30.175 12.654-50.83 39.898-39.194 67.679 7.653 18.193 20.376 29.762 67.042 34.965l21.259 2.338c68.418 7.362 98.705 31.25 114.179 68.127 12.654 30.176 11.4 59.412-10.215 93.828-14.086 22.79-40.85 36.844-63.372 46.275-24.436 10.249-51.288 18.697-72.904 18.194-7.912-.057-10.15-1.365-13.964-10.461-9.242-22.042-17.97-48.224-20.308-55.115-2.595-6.244-2.495-11.357.85-12.767 3.839-1.59 5.92 2.036 7.129 4.9 2.204 5.26 7.249 13.292 12.665 19.458 21.75 26.372 57.587 23.16 83.924 12.117 36.397-15.273 48.783-47.495 36.733-76.228-7.43-17.723-19.166-33.622-65.778-40l-30.433-4.116c-62.073-8.336-89.8-28.8-104.86-64.704-20.9-49.822 13.539-101.995 71.965-126.498zm161.217-63.06c3.514-.894 8.94 1.478 20.408.213 13.483-1.801 30.22-5.493 44.822-9.186l179.766-45.37c14.098-3.557 23.407-6.992 29.706-9.643 6.78-2.786 10.059-4.677 11.569-5.08 3.032-.761 4.163 1.634 5.818 8.178 2.294 9.063 9.287 41.04 12.084 52.139.649 4.633.269 7.418-2.237 8.057-3.536.884-5.046-.863-7.217-7.284l-1.645-4.431c-3.794-10.82-18.685-20.968-58.584-11.436l-56.143 13.103 43.724 173.222c9.914 39.27 18.93 72.882 25.644 91.007 4.577 11.693 9.119 19.122 22.714 17.834 6.298-.536 16.502-2.573 23.036-4.217 5.047-1.264 7.709.75 8.2 2.763.762 3.022-2.382 5.415-7.405 6.692-29.214 7.36-59.3 13.347-71.898 16.548-10.07 2.528-39.887 11.668-57.51 16.11-5.55 1.41-8.961.66-9.71-2.36-.504-2.014.357-4.912 5.895-6.322 6.546-1.655 11.96-3.557 15.24-5.437 8.559-4.308 9.04-13.001 7.373-25.97-2.573-18.64-11.088-52.384-21.001-91.656L1916.76 313.26l-65.577 18.17c-25.555 6.993-35.366 12.677-39.518 23.898-2.987 7.184-3.613 13.237-3.848 16.515-.123 3.77-.616 6.042-3.637 6.814-3.031.75-4.677-1.51-5.807-6.042-1.79-7.06-3.647-50.494-3.534-54.276-.381-5.796.48-8.693 2.997-9.331zm541.259-140.125l103.35 1.667 39.259 77c12.084 23.564 22.076 48.145 22.076 48.145l1.04.022s10.26-23.72 23.619-47.406l42.27-75.68 103.316 1.679-116.743 185.103 110.208 186.167-101.256-1.633-41.33-78.59c-12.587-23.573-22.075-46.588-22.075-46.588l-1.041-.011s-10.236 22.69-23.596 45.839l-43.85 77.224-100.741-1.633 115.668-182.531-110.174-188.774zm534.109 384.004c6.825-27.726 16.292-57.5 18.798-65.442 2.349-7.441 5.236-12.621 9.264-11.615 4.565 1.097 3.938 5.774 2.953 9.802-1.611 6.557-2.191 17.645-1.79 26.84 1.9 40.045 28.308 60.99 59.568 68.688 45.38 11.177 75.143-14.142 81.722-40.861 6.085-24.704 4.25-49.766-29.562-92.843l-18.707-23.877c-44.821-57.016-55.293-97.038-45.223-137.887 13.649-55.473 69.862-83.881 139.97-66.628 32.759 8.067 52.697 18.315 64.937 25.074 4.298 2.137 6.445 4.263 5.595 7.787-1.633 6.578-7.228 20.688-16.94 60.027-2.73 11.087-5.236 14.746-9.264 13.773-3.536-.873-4.318-4.274-2.82-10.327 1.142-4.532 2.44-20.8-4.923-36.52-5.192-11.434-16.088-30.165-48.894-38.231-37.303-9.175-65.318 6.914-72.771 37.168-5.706 23.205 1.545 43.703 35.58 85.77l11.502 14.077c49.747 60.91 62.858 101.044 51.04 148.943-7.204 29.258-26.828 61.324-69.008 76.082-29.157 9.935-58.537 7.518-85.256.94-29.248-7.206-51.067-16.313-70.378-31.238-7.228-5.517-8.101-8.403-5.393-19.502zm893.476 680.389c164.472 164.47 293.655 356.053 383.859 569.375 93.447 220.929 140.819 455.532 140.819 697.34 0 241.818-47.372 476.466-140.82 697.374-90.203 213.32-219.386 404.89-383.858 569.364-164.494 164.473-356.044 293.656-569.365 383.857-220.907 93.449-455.577 140.82-697.362 140.82-241.807 0-476.41-47.371-697.328-140.82-213.321-90.201-404.904-219.384-569.387-383.857-164.484-164.473-293.644-356.044-383.87-569.364-93.446-220.908-140.82-455.578-140.82-697.374 0-241.808 47.374-476.411 140.82-697.34 90.226-213.322 219.386-404.904 383.87-569.375 164.483-164.484 356.066-293.634 569.387-383.86 220.918-93.434 455.52-140.807 697.328-140.807 241.785 0 476.455 47.373 697.362 140.808 213.32 90.225 404.87 219.375 569.365 383.859zm-514.316-727.907c32.804-67.792 123.029-132.608 247.849-72.222 103.807 50.214 140.484 138.917 96.4 230.093-44.106 91.164-145.093 130.582-251.228 79.237-119.695-57.901-127.147-166.51-93.021-237.108zm455.934 274.925l40.86-50.461c42.16-52.048 50.416-61.402 58.427-72.96 8.996-12.754 8.393-18.607-.312-30.992-2.127-3.077-7.855-8.391-12.711-12.307-4.073-3.28-5.08-6.121-3.133-8.538 1.969-2.427 5.058-1.263 10.294 2.988 18.953 15.362 42.114 35.456 52.609 43.96 8.882 7.182 33.364 25.677 46.275 36.128 5.215 4.24 7.027 7.015 5.035 9.432-1.97 2.417-4.945 2.002-8.593-.951-4.051-3.257-6.378-4.5-11.478-7.284-10.585-5.907-17.342-3.345-27.95 8.1-9.6 10.249-17.476 19.927-59.613 71.999l-38.915 48.01c-40.547 50.035-46.565 77.257-40.322 105.038 5.616 25.253 21.57 40.2 33.677 50.002 15.35 12.419 37.102 22.702 62.342 20.419 34.82-2.55 59.792-31.753 88.235-66.863l34.997-43.177c42.159-52.071 49.587-62.073 58.025-73.296 8.68-12.352 8.793-18.271.11-30.668-2.17-3.088-7.92-8.402-11.95-11.67-4.026-3.266-5.056-6.108-3.11-8.536 1.993-2.406 5.059-1.264 9.892 2.674 18.169 14.702 41.33 34.808 41.71 35.132 4.05 3.267 28.509 21.75 42.226 32.839 4.834 3.938 6.624 6.7 4.655 9.13-1.948 2.405-4.946 1.99-8.997-1.277-4.048-3.266-6.377-4.497-11.48-7.283-10.987-6.243-17.34-3.356-27.947 8.089-9.22 10.573-17.5 19.939-59.634 71.988l-29.762 36.732c-31.061 38.32-67.781 75.423-117.571 75.858-42.023.705-72.01-17.555-95.014-36.194-18.551-15.038-54.621-45.605-62.141-89.117-5.416-30.445 1.05-67.311 41.264-116.944zm481.533 214.53c-17.184-20.184-26.471-26.651-38.397-25.633-7.766.325-13.494 2.339-16.56 3.49-3.492 1.5-5.773 2.004-7.721-.402-1.97-2.404-.65-4.856 2.977-7.798 5.64-4.61 44.194-24.738 47.687-26.226 5.054-2.82 8.053-3.256 9.71-1.242 2.283 2.819 2.439 8.738 8.483 18.562 7.315 11.446 17.765 25.04 27.299 36.699l117.367 143.526c9.176 11.268 16.224 18.249 21.325 22.814 5.394 4.979 8.505 7.127 9.51 8.325 1.948 2.416.292 4.486-4.966 8.738-7.227 5.918-33.185 25.834-42.07 33.073-3.938 2.54-6.601 3.39-8.234 1.366-2.327-2.81-1.366-4.923 3.537-9.601l3.31-3.367c8.167-8.023 11.078-25.823-14.5-57.913l-35.692-45.28-138.313 113.072c-31.35 25.644-57.98 48.066-71.541 61.85-8.66 9.097-13.447 16.359-6.487 28.129 3.109 5.493 9.307 13.85 13.559 19.076 3.29 4.028 2.618 7.26 1.03 8.58-2.462 1.97-5.952.147-9.242-3.858-19.041-23.317-37.236-48.033-45.47-58.092-6.602-8.032-27.526-31.171-39.004-45.235-3.626-4.442-4.387-7.832-1.97-9.801 1.59-1.32 4.61-1.768 8.214 2.674 4.274 5.225 8.278 9.31 11.389 11.457 7.518 5.919 15.62 2.686 26.652-4.318 15.775-10.227 42.718-32.268 74.09-57.902l138.313-113.083-44.285-51.68zm270.429 329.549c-.716-3.726-3.736-10.91-6.78-16.951-2.103-4.174-2.126-7.652.673-9.052 2.796-1.386 5.325 1.388 8.144 6.949 10.964 21.817 23.565 49.184 29.18 60.329 4.922 9.733 20.072 37.57 28.24 53.805 2.797 5.562 3.266 8.806.516 10.205-2.8 1.398-5.371-.224-7.946-5.326-1.611-3.234-3.961-6.713-7.205-10.886-7.473-10.194-14.68-10.653-29.068-4.577-12.98 5.38-27.367 12.61-87.228 42.729l-8.325 4.185c-2.324 1.174-2.1 2.808-1.385 4.207l77.514 154.02c.447.919 1.61 2.083 3.939.908l8.345-4.196c59.838-30.108 73.982-37.817 86.287-44.575 12.98-7.697 15.308-13.515 12.464-28.363-.691-3.737-3.736-10.92-6.554-16.492-2.33-4.621-2.127-7.642.669-9.041 2.82-1.41 5.125.918 8.168 6.949 10.963 21.806 24.504 51.042 29.873 61.705 4.903 9.745 19.358 36.183 27.3 51.948 3.044 6.03 3.536 9.265.74 10.685-2.776 1.399-5.594-.693-7.922-5.325-1.633-3.257-3.961-6.725-7.452-11.368-7.205-9.745-14.412-10.182-28.821-4.096-12.98 5.37-24.124 10.966-83.96 41.085l-69.593 34.998c-36.184 18.215-67.264 33.857-83.511 44.352-10.406 6.98-16.67 13.057-12.218 26.517 1.857 6.03 5.842 15.082 9.107 21.57 2.08 4.164.94 7.654-.916 8.605-2.754 1.376-5.796-1.152-8.37-6.242-13.313-26.462-25.442-54.064-31.082-65.196-4.633-9.277-20.52-37.337-28.442-53.135-2.82-5.561-3.042-9.51-.268-10.91 1.88-.94 5.125-.245 7.45 4.397 3.269 6.49 6.066 10.91 8.862 14.132 6.042 7.44 14.636 6.02 26.943 1.567 17.634-6.535 47.798-21.718 83.959-39.921l30.165-15.183c1.386-.683 1.612-2.551 1.163-3.48l-77.513-154.022c-.697-1.388-1.861-2.54-3.693-1.622l-30.164 15.17c-36.207 18.217-66.125 33.847-82.35 44.342-10.427 6.993-16.691 13.057-12.462 26.047 1.857 6.03 6.063 15.53 9.107 21.583 2.324 4.632.94 7.653-.894 8.592-2.798 1.41-5.842-1.152-8.391-6.253-13.316-26.438-26.16-55.44-31.98-67.042-4.675-9.277-19.625-35.491-27.768-51.726-2.574-5.102-2.574-8.581.2-9.991 1.858-.93 4.857-.694 7.452 4.397 3.02 6.04 5.84 10.449 8.592 13.684 6.088 7.429 14.658 5.997 26.965 1.566 17.656-6.556 48.738-22.198 84.898-40.402l69.617-35.01c59.815-30.12 70.958-35.713 83.266-42.482 12.978-7.687 15.283-13.515 12.463-28.363zm222.81 512.348c.112-3.782-1.365-11.458-3.042-17.992-1.186-4.51-.45-7.933 2.572-8.704 3.02-.783 4.923 2.472 6.6 9.007 5.997 23.127 12.264 51.556 15.509 64.132 3.647 14.086 28.465 112.267 31.149 120.692 2.574 7.91 5.929 14.567 7.317 17.947 1.164 2.382 3.312 4.508 3.849 6.533.648 2.506-1.231 3.535-3.245 4.05-3.021.773-8.705-.436-28.576 3.626-4.675.66-23.517 4.452-28.822 4.754-2.125.012-7.406.303-8.346-3.21-.761-3.021 1.12-4.04 4.633-4.957 3.019-.783 10.426-3.233 14.835-7.038 6.603-5.471 11.749-10.551 8.056-33.196-.94-7.798-13.582-60.855-15.932-69.906-.515-2.014-2.261-2.63-4.79-1.981l-105.598 27.266c-2.528.638-4.41 1.667-3.758 4.173 2.619 10.07 17.41 67.39 21.01 77.202 3.716 10.293 6.804 15.933 11.972 19.435 3.962 2.73 6.825 3.592 7.386 5.606.514 2-1.12 4.027-3.604 4.676-2.551.649-9.845 1.466-32.133 4.532-8.793 1.209-26.16 4.609-29.18 5.38-3.512.93-9.688 1.982-10.717-2.057-.762-2.998.49-4.398 2.483-4.923 4.408-1.656 9.957-3.1 15.194-5.54 7.899-4.71 13.024-11.926 10.249-28.921-1.074-8.313-13.046-58.841-15.912-69.906-.537-2.026-2.662-2.003-5.168-1.343l-34.215 8.829c-14.59 3.758-50.906 12.608-63.326 16.345-28.957 8.549-31.933 23.809-20.274 69.068 2.997 11.569 8.299 30.04 16.313 40.3 7.898 9.768 18.236 12.476 36.609 10.932 4.788-.146 7.07.336 7.83 3.345.92 3.514-4.474 5.449-9.04 6.623-9.531 2.462-39.63 6.468-48.804 6.177-11.837-.168-12.867-4.195-17.163-20.788-8.592-33.186-14.948-59.982-19.534-81.856-5.082-21.75-8.841-38.478-12.22-51.557-1.321-5.013-4.272-14.444-6.981-25.007-3.266-10.428-6.623-21.36-8.973-30.41-1.41-5.527-.693-8.94 2.329-9.723 2.035-.514 4.922.335 6.353 5.863 1.68 6.545 3.514 11.446 5.525 15.206 4.388 8.536 13.07 8.972 26.028 7.238 18.596-2.663 52.294-11.367 91.544-21.482l75.41-19.48c64.873-16.75 76.956-19.86 90.382-23.887 14.322-4.766 17.814-9.958 18.217-25.073zm82.213 382.48c.784-3.692.762-11.5.315-18.237-.315-4.665 1.006-7.875 4.139-8.077 3.11-.224 4.363 3.322 4.834 10.069 1.632 23.83 2.572 52.91 3.199 62.243 1.072 15.54 4.946 56.926 5.907 70.913 1.97 29.01 1.633 62.353-12.755 87.797-7.92 13.57-28.89 34.259-58.404 36.285-32.625 2.215-62.924-14.456-101.726-56.56-46.97 43.816-84.697 78.656-110.275 108.004-23.653 27.122-24.614 43.322-25.668 50.685-.715 4.72-.537 7.339-.313 10.942.269 3.647-2.214 5.886-4.273 6.02-3.65.247-4.878-2.775-5.257-8.482l-3-43.522c-1.7-25.388.045-37.997 5.436-50.35 8.482-20.363 28.062-38.87 60.508-66.605 22.603-19.76 50.82-40.951 57.153-47.093 2.439-2.775 2.773-5.404 2.572-8.515l-1.79-40.995c-.134-2.07-1.253-3.558-3.85-3.38l-6.218.427c-40.93 2.797-75.1 5.65-93.604 8.985-12.868 2.449-21.013 5.09-22.11 19.22-.604 6.804-.425 16.684-.045 22.39.248 3.625-2.214 5.874-4.273 6.007-3.11.213-4.923-3.3-5.302-9.017-1.813-26.417-2.844-64.346-3.291-71.093-.605-8.793-4.14-37.694-5.392-55.842-.383-5.683.96-8.917 4.07-9.12 2.083-.133 4.769 1.243 5.17 6.927.45 6.747 1.298 11.893 2.642 15.967 2.707 9.185 11.166 11.199 24.234 11.87 18.795.795 53.527-1.577 93.916-4.33l77.739-5.314c66.84-4.553 79.237-5.426 93.2-6.892 14.993-2.06 19.358-6.524 22.512-21.326zM2499.954.058C1121.464.057 0 1121.523 0 2499.99 0 3878.48 1121.465 5000 2499.954 5000c1378.479 0 2499.954-1121.52 2499.954-2500.01C4999.908 1121.523 3878.433.057 2499.954.057z" fill="#48B7C2" mask="url(#b)"/></g><path d="M2691.995 1420.903c11.547 52.709 2.016 104.232-17.97 152.88-39.159 96.155-98.772 179.644-167.895 256.655-1.789 2.08-3.915 3.86-8.1 7.81-63.742-67.836-118.343-139.365-157.725-221.914-21.114-44.016-35.122-89.542-38.904-138.66-8-104.435 70.11-197.748 174.23-209.797 100.294-11.648 194.86 54.32 216.364 153.026zM2408.991 1938.9c0-11.11 40.268-20.128 89.922-20.128 49.666 0 89.946 9.019 89.946 20.128 0 11.156-40.28 20.129-89.946 20.129-49.654 0-89.922-8.973-89.922-20.13zm1037.294 781.053c59.455-1.051 94.476-34.035 94.476-76.864 0-27.726-17.925-46.232-54.69-70.646l-119.092-78.991c-47.058-31.205-70.444-72.872-65.429-122.65 5.816-70.812 57.642-119.717 143.907-119.717 21.996 0 61.872 3.053 93.111 7.014h42.941l-8.95 100.474h-6.625c-.088-47.473-38.509-78.69-96.4-78.69-53.728 0-87.785 29.035-89.419 65.756-1.7 26.886 19.021 44.99 47.597 63.574l130.39 84.698c40.64 26.393 64.29 62.286 61.382 113.352-4.162 89.037-71.295 141.534-180.606 141.534-61.292 0-118.8-15.82-143.774-41.486-11.3-28.666-1.61-86.243 16.223-116.048h6.043c-5.483 71.227 46.902 130.055 128.915 128.69zm175.861-1287.683l-1067.66 1067.682 1067.66 1067.67-54.465 54.534-1067.739-1067.66-1067.715 1067.66-54.5-54.533 1067.671-1067.671-1067.67-1067.682 54.544-54.544 1067.67 1067.67 1067.74-1067.67 54.464 54.544zm-864.922 2349.189h8.592l.113 6.737h-207.727l.156-6.737h8.66c23.766 0 43.054-18.976 43.748-42.517v-174.564h-221.658v174.094c.46 23.72 19.837 42.987 43.793 42.987h8.671l.09 6.737h-207.705l.145-6.737h8.615c23.922 0 43.356-19.267 43.793-42.987v-379.025c-.582-23.674-19.916-42.984-43.737-42.984h-8.67l-.146-6.872h207.704l-.089 6.872h-8.67c-23.777 0-43.11 19.31-43.794 42.984v176.13h221.658v-176.13c-.895-23.495-20.117-42.984-43.748-42.984h-8.66l-.156-6.872h207.727l-.113 6.872h-8.636c-23.966 0-43.368 19.13-43.837 42.984v379.025c.47 23.72 19.871 42.987 43.881 42.987zM1207.46 2739.578l.09-6.848h12.62c23.083 0 41.801-18.483 42.192-41.396v-355.172c0-50.808-7.943-85.436-7.943-85.436h6.747l344.932 328.789v-270.251c-.437-22.98-19.155-41.42-42.226-41.42h-12.587l-.089-6.857h207.246l-.079 6.813h-12.632c-22.88 0-41.465 18.215-42.18 40.894v353.214c0 51.557 7.921 87.226 7.921 87.226h-6.232l-345.47-328.9v271.324c.527 22.779 19.2 41.172 42.192 41.172h12.621l.09 6.848H1207.46zm-411.393-239.626c0 939.472 764.37 1703.83 1703.875 1703.83 939.562 0 1703.9-764.358 1703.9-1703.83 0-939.55-764.338-1703.887-1703.9-1703.887-939.505 0-1703.875 764.337-1703.875 1703.887z" fill="#48B7C2"/><path d="M2373.69 1464.515c0 67.513 57.61 122.83 127.82 122.83 65.262 0 122.211-57.488 122.39-123.41 0-67.132-57.53-125.156-124.483-125.235-68.284-.146-125.727 57.354-125.727 125.815" fill="#48B7C2"/></g></svg>