<svg width="207" height="57" viewBox="0 0 207 57" fill="none" xmlns="http://www.w3.org/2000/svg">
<path d="M13.9202 39.7674V56.9919C13.9202 56.9919 0 57.6645 0 47.8548V47.5674C0 47.4996 0 47.4318 0.0163383 47.3829C0.152491 45.677 1.54125 39.7674 13.9175 39.7674H13.9202Z" fill="#192532"/>
<path d="M207 19.961L187.114 0H9.32918C4.17716 0 0 4.16035 0 9.29162V47.5673C0 47.4995 0 47.4317 0.0163383 47.3829C0.152491 45.677 1.54125 39.7674 13.9175 39.7674H187.111L206.997 19.961H207Z" fill="#2F455C"/>
<path d="M25.254 26L26.802 13.4H28.08L26.532 26H25.254ZM18.486 22.76V21.446H29.592V22.76H18.486ZM20.574 26L22.14 13.4H23.418L21.852 26H20.574ZM19.062 17.954V16.64H30.168V17.954H19.062ZM33.6443 26V14.12L34.4183 14.966H30.8003V13.4H35.4263V26H33.6443ZM46.9403 26L42.7283 13.4H44.5823L48.4523 25.028H47.5163L51.5303 13.4H53.1863L57.1103 25.028H56.2103L60.1343 13.4H61.8443L57.6323 26H55.7423L52.0703 15.218H52.5563L48.8663 26H46.9403ZM63.7943 26V16.46H65.5223V26H63.7943ZM64.6583 14.624C64.3223 14.624 64.0403 14.516 63.8123 14.3C63.5963 14.084 63.4883 13.82 63.4883 13.508C63.4883 13.184 63.5963 12.914 63.8123 12.698C64.0403 12.482 64.3223 12.374 64.6583 12.374C64.9943 12.374 65.2703 12.482 65.4863 12.698C65.7143 12.902 65.8283 13.16 65.8283 13.472C65.8283 13.796 65.7203 14.072 65.5043 14.3C65.2883 14.516 65.0063 14.624 64.6583 14.624ZM68.2096 21.806V20.312H73.0516V21.806H68.2096ZM77.5842 19.358H84.0822V20.906H77.5842V19.358ZM77.7642 26H75.9642V13.4H84.8562V14.966H77.7642V26ZM87.138 26V16.46H88.866V26H87.138ZM88.002 14.624C87.666 14.624 87.384 14.516 87.156 14.3C86.94 14.084 86.832 13.82 86.832 13.508C86.832 13.184 86.94 12.914 87.156 12.698C87.384 12.482 87.666 12.374 88.002 12.374C88.338 12.374 88.614 12.482 88.83 12.698C89.058 12.902 89.172 13.16 89.172 13.472C89.172 13.796 89.064 14.072 88.848 14.3C88.632 14.516 88.35 14.624 88.002 14.624ZM97.2513 26V13.4H102.903C104.355 13.4 105.471 13.694 106.251 14.282C107.031 14.858 107.421 15.65 107.421 16.658C107.421 17.342 107.265 17.918 106.953 18.386C106.653 18.854 106.245 19.214 105.729 19.466C105.213 19.718 104.655 19.844 104.055 19.844L104.379 19.304C105.099 19.304 105.735 19.43 106.287 19.682C106.839 19.934 107.277 20.306 107.601 20.798C107.925 21.278 108.087 21.878 108.087 22.598C108.087 23.678 107.679 24.518 106.863 25.118C106.059 25.706 104.859 26 103.263 26H97.2513ZM99.0513 24.542H103.191C104.187 24.542 104.949 24.374 105.477 24.038C106.005 23.702 106.269 23.174 106.269 22.454C106.269 21.722 106.005 21.188 105.477 20.852C104.949 20.516 104.187 20.348 103.191 20.348H98.8893V18.89H102.741C103.653 18.89 104.361 18.722 104.865 18.386C105.369 18.05 105.621 17.546 105.621 16.874C105.621 16.202 105.369 15.698 104.865 15.362C104.361 15.026 103.653 14.858 102.741 14.858H99.0513V24.542ZM114.708 26.108C113.748 26.108 112.896 25.898 112.152 25.478C111.408 25.058 110.82 24.482 110.388 23.75C109.956 23.006 109.74 22.166 109.74 21.23C109.74 20.282 109.956 19.442 110.388 18.71C110.82 17.978 111.408 17.408 112.152 17C112.896 16.58 113.748 16.37 114.708 16.37C115.656 16.37 116.502 16.58 117.246 17C118.002 17.408 118.59 17.978 119.01 18.71C119.442 19.43 119.658 20.27 119.658 21.23C119.658 22.178 119.442 23.018 119.01 23.75C118.59 24.482 118.002 25.058 117.246 25.478C116.502 25.898 115.656 26.108 114.708 26.108ZM114.708 24.596C115.32 24.596 115.866 24.458 116.346 24.182C116.838 23.906 117.222 23.516 117.498 23.012C117.774 22.496 117.912 21.902 117.912 21.23C117.912 20.546 117.774 19.958 117.498 19.466C117.222 18.962 116.838 18.572 116.346 18.296C115.866 18.02 115.32 17.882 114.708 17.882C114.096 17.882 113.55 18.02 113.07 18.296C112.59 18.572 112.206 18.962 111.918 19.466C111.63 19.958 111.486 20.546 111.486 21.23C111.486 21.902 111.63 22.496 111.918 23.012C112.206 23.516 112.59 23.906 113.07 24.182C113.55 24.458 114.096 24.596 114.708 24.596ZM126.134 26.108C125.174 26.108 124.322 25.898 123.578 25.478C122.834 25.058 122.246 24.482 121.814 23.75C121.382 23.006 121.166 22.166 121.166 21.23C121.166 20.282 121.382 19.442 121.814 18.71C122.246 17.978 122.834 17.408 123.578 17C124.322 16.58 125.174 16.37 126.134 16.37C127.082 16.37 127.928 16.58 128.672 17C129.428 17.408 130.016 17.978 130.436 18.71C130.868 19.43 131.084 20.27 131.084 21.23C131.084 22.178 130.868 23.018 130.436 23.75C130.016 24.482 129.428 25.058 128.672 25.478C127.928 25.898 127.082 26.108 126.134 26.108ZM126.134 24.596C126.746 24.596 127.292 24.458 127.772 24.182C128.264 23.906 128.648 23.516 128.924 23.012C129.2 22.496 129.338 21.902 129.338 21.23C129.338 20.546 129.2 19.958 128.924 19.466C128.648 18.962 128.264 18.572 127.772 18.296C127.292 18.02 126.746 17.882 126.134 17.882C125.522 17.882 124.976 18.02 124.496 18.296C124.016 18.572 123.632 18.962 123.344 19.466C123.056 19.958 122.912 20.546 122.912 21.23C122.912 21.902 123.056 22.496 123.344 23.012C123.632 23.516 124.016 23.906 124.496 24.182C124.976 24.458 125.522 24.596 126.134 24.596ZM136.21 26.108C135.418 26.108 134.662 26 133.942 25.784C133.234 25.568 132.676 25.304 132.268 24.992L132.988 23.624C133.396 23.9 133.9 24.134 134.5 24.326C135.1 24.518 135.712 24.614 136.336 24.614C137.14 24.614 137.716 24.5 138.064 24.272C138.424 24.044 138.604 23.726 138.604 23.318C138.604 23.018 138.496 22.784 138.28 22.616C138.064 22.448 137.776 22.322 137.416 22.238C137.068 22.154 136.678 22.082 136.246 22.022C135.814 21.95 135.382 21.866 134.95 21.77C134.518 21.662 134.122 21.518 133.762 21.338C133.402 21.146 133.114 20.888 132.898 20.564C132.682 20.228 132.574 19.784 132.574 19.232C132.574 18.656 132.736 18.152 133.06 17.72C133.384 17.288 133.84 16.958 134.428 16.73C135.028 16.49 135.736 16.37 136.552 16.37C137.176 16.37 137.806 16.448 138.442 16.604C139.09 16.748 139.618 16.958 140.026 17.234L139.288 18.602C138.856 18.314 138.406 18.116 137.938 18.008C137.47 17.9 137.002 17.846 136.534 17.846C135.778 17.846 135.214 17.972 134.842 18.224C134.47 18.464 134.284 18.776 134.284 19.16C134.284 19.484 134.392 19.736 134.608 19.916C134.836 20.084 135.124 20.216 135.472 20.312C135.832 20.408 136.228 20.492 136.66 20.564C137.092 20.624 137.524 20.708 137.956 20.816C138.388 20.912 138.778 21.05 139.126 21.23C139.486 21.41 139.774 21.662 139.99 21.986C140.218 22.31 140.332 22.742 140.332 23.282C140.332 23.858 140.164 24.356 139.828 24.776C139.492 25.196 139.018 25.526 138.406 25.766C137.794 25.994 137.062 26.108 136.21 26.108ZM145.768 26.108C144.808 26.108 144.064 25.85 143.536 25.334C143.008 24.818 142.744 24.08 142.744 23.12V14.372H144.472V23.048C144.472 23.564 144.598 23.96 144.85 24.236C145.114 24.512 145.486 24.65 145.966 24.65C146.506 24.65 146.956 24.5 147.316 24.2L147.856 25.442C147.592 25.67 147.274 25.838 146.902 25.946C146.542 26.054 146.164 26.108 145.768 26.108ZM141.124 17.882V16.46H147.208V17.882H141.124ZM153.876 26.108C152.856 26.108 151.956 25.898 151.176 25.478C150.408 25.058 149.808 24.482 149.376 23.75C148.956 23.018 148.746 22.178 148.746 21.23C148.746 20.282 148.95 19.442 149.358 18.71C149.778 17.978 150.348 17.408 151.068 17C151.8 16.58 152.622 16.37 153.534 16.37C154.458 16.37 155.274 16.574 155.982 16.982C156.69 17.39 157.242 17.966 157.638 18.71C158.046 19.442 158.25 20.3 158.25 21.284C158.25 21.356 158.244 21.44 158.232 21.536C158.232 21.632 158.226 21.722 158.214 21.806H150.096V20.564H157.314L156.612 20.996C156.624 20.384 156.498 19.838 156.234 19.358C155.97 18.878 155.604 18.506 155.136 18.242C154.68 17.966 154.146 17.828 153.534 17.828C152.934 17.828 152.4 17.966 151.932 18.242C151.464 18.506 151.098 18.884 150.834 19.376C150.57 19.856 150.438 20.408 150.438 21.032V21.32C150.438 21.956 150.582 22.526 150.87 23.03C151.17 23.522 151.584 23.906 152.112 24.182C152.64 24.458 153.246 24.596 153.93 24.596C154.494 24.596 155.004 24.5 155.46 24.308C155.928 24.116 156.336 23.828 156.684 23.444L157.638 24.56C157.206 25.064 156.666 25.448 156.018 25.712C155.382 25.976 154.668 26.108 153.876 26.108ZM160.65 26V16.46H162.306V19.052L162.144 18.404C162.408 17.744 162.852 17.24 163.476 16.892C164.1 16.544 164.868 16.37 165.78 16.37V18.044C165.708 18.032 165.636 18.026 165.564 18.026C165.504 18.026 165.444 18.026 165.384 18.026C164.46 18.026 163.728 18.302 163.188 18.854C162.648 19.406 162.378 20.204 162.378 21.248V26H160.65Z" fill="white"/>
</svg>
