<svg xmlns="http://www.w3.org/2000/svg" width="190.742" height="63.759"><path d="M175.553 0H13.455c-.488 0-.972.012-1.465.02a21.064 21.064 0 00-3.196.285 10.624 10.624 0 00-3.03 1 10.262 10.262 0 00-2.58 1.879 9.976 9.976 0 00-1.878 2.583A10.522 10.522 0 00.31 8.8a20.71 20.71 0 00-.286 3.191c-.015.489-.016.979-.024 1.468V50.3c.008.495.009.974.024 1.469a20.71 20.71 0 00.286 3.195 10.5 10.5 0 001 3.035 9.9 9.9 0 001.878 2.573 10 10 0 002.58 1.879 10.681 10.681 0 003.03 1.005 21.447 21.447 0 003.194.282c.493.011.977.017 1.465.017h163.824c.486 0 .984-.006 1.469-.017a21.166 21.166 0 003.188-.282 10.846 10.846 0 003.042-1.005 10.006 10.006 0 002.578-1.879A10.194 10.194 0 00189.441 58a10.528 10.528 0 00.987-3.035 21.526 21.526 0 00.3-3.191c.006-.5.006-.975.006-1.469.012-.579.012-1.155.012-1.743V15.2c0-.584 0-1.163-.012-1.74 0-.489 0-.979-.006-1.468a21.527 21.527 0 00-.3-3.191 10.549 10.549 0 00-.987-3.034A10.307 10.307 0 00184.98 1.3a10.787 10.787 0 00-3.042-1 20.791 20.791 0 00-3.188-.277c-.486-.008-.984-.017-1.47-.02h-1.728z" fill="#fff"/><path d="M13.461 62.365c-.486 0-.96-.006-1.441-.017a20.224 20.224 0 01-2.979-.26 9.379 9.379 0 01-2.641-.873 8.617 8.617 0 01-2.227-1.62 8.481 8.481 0 01-1.627-2.226 9.12 9.12 0 01-.866-2.642 19.787 19.787 0 01-.261-2.989c-.01-.336-.023-1.455-.023-1.455V13.46s.014-1.1.023-1.426a19.718 19.718 0 01.26-2.984 9.174 9.174 0 01.866-2.649 8.565 8.565 0 011.619-2.228 8.871 8.871 0 012.235-1.63 9.282 9.282 0 012.635-.867 20.062 20.062 0 012.985-.262l1.443-.019h163.811l1.456.025a19.742 19.742 0 012.962.259 9.465 9.465 0 012.663.873 8.916 8.916 0 013.849 3.857 9.185 9.185 0 01.853 2.628 20.709 20.709 0 01.277 3.008v1.419c.013.6.013 1.167.013 1.74v33.36c0 .579 0 1.144-.013 1.714 0 .518 0 .993-.006 1.482a20.289 20.289 0 01-.272 2.954 9.147 9.147 0 01-.861 2.662 8.735 8.735 0 01-1.619 2.209 8.627 8.627 0 01-2.231 1.63 9.343 9.343 0 01-2.659.876 19.994 19.994 0 01-2.979.26c-.467.011-.956.017-1.43.017h-1.728z" fill="none"/><path d="M39.48 32.359a7.888 7.888 0 013.756-6.618 8.075 8.075 0 00-6.361-3.441c-2.677-.281-5.272 1.6-6.636 1.6-1.39 0-3.49-1.574-5.752-1.527a8.472 8.472 0 00-7.13 4.348c-3.083 5.337-.783 13.181 2.17 17.5 1.477 2.113 3.2 4.472 5.464 4.389 2.211-.092 3.037-1.41 5.705-1.41 2.644 0 3.419 1.41 5.724 1.357 2.372-.039 3.867-2.122 5.293-4.255a17.473 17.473 0 002.42-4.929 7.622 7.622 0 01-4.653-7.014zm-4.353-12.895a7.767 7.767 0 001.776-5.564 7.9 7.9 0 00-5.113 2.645 7.39 7.39 0 00-1.823 5.358 6.534 6.534 0 005.16-2.439zM67.429 43.26h-7.545l-1.812 5.35h-3.2l7.146-19.794h3.32l7.151 19.794h-3.25zm-6.764-2.469h5.984l-2.951-8.683h-.083zm27.258.604c0 4.485-2.4 7.366-6.023 7.366a4.892 4.892 0 01-4.541-2.525h-.069v7.148h-2.961V34.179h2.869v2.4h.054a5.119 5.119 0 014.6-2.551c3.657 0 6.071 2.895 6.071 7.367zm-3.045 0c0-2.922-1.51-4.843-3.814-4.843-2.263 0-3.786 1.961-3.786 4.843 0 2.908 1.522 4.855 3.786 4.855 2.305 0 3.815-1.907 3.815-4.855zm18.929 0c0 4.485-2.4 7.366-6.023 7.366a4.892 4.892 0 01-4.541-2.525h-.069v7.148h-2.957V34.179h2.867v2.4h.054a5.119 5.119 0 014.6-2.551c3.655 0 6.069 2.895 6.069 7.367zm-3.045 0c0-2.922-1.51-4.843-3.814-4.843-2.263 0-3.786 1.961-3.786 4.843 0 2.908 1.522 4.855 3.786 4.855 2.3 0 3.814-1.907 3.814-4.855zm13.542 1.7c.219 1.963 2.126 3.252 4.732 3.252 2.5 0 4.293-1.289 4.293-3.059 0-1.536-1.083-2.456-3.649-3.087l-2.565-.618c-3.635-.878-5.322-2.578-5.322-5.336 0-3.415 2.976-5.761 7.2-5.761 4.183 0 7.05 2.346 7.146 5.761h-2.99c-.179-1.975-1.812-3.168-4.2-3.168s-4.019 1.206-4.019 2.962c0 1.4 1.043 2.223 3.594 2.853l2.181.535c4.061.96 5.749 2.592 5.749 5.487 0 3.7-2.95 6.023-7.641 6.023-4.39 0-7.353-2.265-7.545-5.845zm18.548-12.331v3.415h2.744v2.346h-2.744v7.956c0 1.236.549 1.812 1.756 1.812a9.256 9.256 0 00.974-.069v2.332a8.134 8.134 0 01-1.645.137c-2.922 0-4.061-1.1-4.061-3.9v-8.268h-2.1v-2.346h2.1v-3.415zm4.334 10.631c0-4.541 2.674-7.394 6.844-7.394s6.846 2.853 6.846 7.394-2.648 7.394-6.846 7.394-6.844-2.841-6.844-7.394zm10.672 0c0-3.115-1.427-4.953-3.828-4.953s-3.826 1.852-3.826 4.953c0 3.127 1.426 4.952 3.826 4.952s3.828-1.824 3.828-4.952zm5.46-7.216h2.825v2.456h.069a3.442 3.442 0 013.471-2.607 4.568 4.568 0 011.015.111v2.77a4.141 4.141 0 00-1.331-.179 2.985 2.985 0 00-3.087 3.32v8.56h-2.962zm21.038 10.191c-.4 2.62-2.95 4.418-6.214 4.418-4.2 0-6.8-2.813-6.8-7.325s2.62-7.462 6.679-7.462c3.993 0 6.5 2.743 6.5 7.118v1.015h-10.192v.179a3.759 3.759 0 003.882 4.088 3.265 3.265 0 003.333-2.03zm-10.014-4.307h7.215a3.471 3.471 0 00-3.54-3.663 3.653 3.653 0 00-3.675 3.663zM60.294 13.918a4.208 4.208 0 014.475 4.726c0 3.039-1.642 4.785-4.475 4.785h-3.435v-9.511zm-1.958 8.165h1.793a2.99 2.99 0 003.137-3.421 3 3 0 00-3.137-3.4h-1.793zm8.103-2.246a3.4 3.4 0 116.77 0 3.4 3.4 0 11-6.77 0zm5.313 0c0-1.556-.7-2.466-1.926-2.466s-1.924.91-1.924 2.466.693 2.471 1.924 2.471 1.926-.909 1.926-2.471zm10.455 3.591h-1.469l-1.483-5.286h-.113l-1.48 5.286H76.21l-1.978-7.178h1.437l1.286 5.477h.107l1.476-5.477h1.359l1.476 5.477h.112l1.28-5.477h1.417zm3.635-7.177h1.364v1.14h.106a2.149 2.149 0 012.142-1.279 2.334 2.334 0 012.484 2.67v4.646h-1.417v-4.29c0-1.153-.5-1.727-1.549-1.727a1.646 1.646 0 00-1.714 1.819v4.2h-1.416zm8.353-2.802h1.416v9.979h-1.416zm3.385 6.387a3.4 3.4 0 116.771 0 3.4 3.4 0 11-6.771 0zm5.313 0c0-1.556-.7-2.466-1.926-2.466s-1.924.91-1.924 2.466.693 2.468 1.924 2.468 1.925-.906 1.925-2.468zm2.948 1.562c0-1.292.962-2.037 2.67-2.143l1.944-.112v-.62c0-.758-.5-1.186-1.469-1.186-.791 0-1.339.29-1.5.8h-1.367c.145-1.233 1.3-2.024 2.933-2.024 1.8 0 2.814.9 2.814 2.412v4.9h-1.364v-1.006h-.112a2.415 2.415 0 01-2.156 1.127 2.168 2.168 0 01-2.393-2.148zm4.614-.613v-.6l-1.753.112c-.988.066-1.437.4-1.437 1.035s.56 1.022 1.331 1.022a1.692 1.692 0 001.859-1.569zm3.273-.948c0-2.268 1.166-3.7 2.979-3.7a2.365 2.365 0 012.2 1.259h.106v-3.947h1.417v9.979h-1.356v-1.134h-.112a2.491 2.491 0 01-2.254 1.252c-1.828.001-2.98-1.434-2.98-3.709zm1.463 0c0 1.522.718 2.438 1.918 2.438s1.932-.929 1.932-2.432-.746-2.438-1.932-2.438-1.918.922-1.918 2.432zm11.1 0a3.4 3.4 0 116.77 0 3.4 3.4 0 11-6.77 0zm5.313 0c0-1.556-.7-2.466-1.926-2.466s-1.924.91-1.924 2.466.693 2.471 1.924 2.471 1.926-.909 1.926-2.471zm3.357-3.586h1.364v1.14h.106a2.149 2.149 0 012.142-1.279 2.334 2.334 0 012.484 2.67v4.646h-1.416v-4.29c0-1.153-.5-1.727-1.549-1.727a1.647 1.647 0 00-1.714 1.819v4.2h-1.417zm14.1-1.787v1.82h1.555v1.193h-1.555v3.691c0 .752.31 1.081 1.015 1.081a4.728 4.728 0 00.54-.033v1.18a4.647 4.647 0 01-.771.072c-1.575 0-2.2-.554-2.2-1.938v-4.053h-1.141v-1.194h1.139v-1.819zm3.486-1.015h1.4v3.955h.112a2.209 2.209 0 012.189-1.286 2.364 2.364 0 012.472 2.676v4.634h-1.418v-4.284c0-1.146-.534-1.727-1.535-1.727a1.677 1.677 0 00-1.807 1.82v4.192h-1.413zm14.44 8.041a2.914 2.914 0 01-3.11 2.077 3.26 3.26 0 01-3.316-3.7 3.31 3.31 0 013.309-3.75c2 0 3.2 1.364 3.2 3.618v.494h-5.068v.075a1.9 1.9 0 001.912 2.056 1.72 1.72 0 001.708-.87zm-4.983-2.313h3.625a1.732 1.732 0 00-1.767-1.859 1.836 1.836 0 00-1.859 1.859z"/></svg>