<svg xmlns="http://www.w3.org/2000/svg" width="56" height="56"><g transform="translate(-198.333 -4356)"><rect width="56" height="56" rx="10" transform="translate(198.333 4356)" fill="#fff"/><g transform="translate(203.333 4361.635)"><circle cx="22.701" cy="22.701" r="22.701"/><path d="M32.973 32.972a14.394 14.394 0 10-20.355 0 14.409 14.409 0 0020.355 0zM14.187 14.187a12.173 12.173 0 110 17.221 12.187 12.187 0 010-17.221zm10.189 5.527a2.361 2.361 0 014.721 0 .678.678 0 11-1.357 0 1.004 1.004 0 00-2.008 0 .678.678 0 01-1.357 0zm-7.521-.006a2.361 2.361 0 014.722 0 .678.678 0 01-1.357 0 1.004 1.004 0 00-2.009 0 .678.678 0 01-1.357 0zm-.3 6.064a.814.814 0 111.5-.624 5.049 5.049 0 004.753 2.983 5.09 5.09 0 004.726-2.987.814.814 0 111.494.646 6.717 6.717 0 01-6.22 3.969 6.67 6.67 0 01-6.254-3.989z" fill="#fff"/></g></g></svg>