<svg version="1" xmlns="http://www.w3.org/2000/svg" width="933.333" height="933.333" viewBox="0 0 700 700"><path d="M327.9.4c-.2.2-4.8.7-10.2 1-5.3.4-10.3.8-11 1.1-.6.2-3.7.6-6.7 1-15.4 1.6-46.5 9.2-66.2 16.2-55.6 19.5-108.5 55.2-146.3 98.8-3.3 3.8-6.8 7.9-7.8 9-3.8 4.2-15.7 20.4-22.4 30.5-9.3 14-16.1 26.2-23.7 42.2-6.1 12.8-7.3 15.8-13.8 33.3-8.9 24.2-16.5 59.3-18.6 86-.9 11.5-.9 49.3 0 61 1.5 19.3 6 44 12 65C44.4 556.3 129.6 645.5 239 682c8 2.7 15.6 5.1 17 5.4 1.4.4 9 2.1 17 4 27.2 6.3 44.6 8.1 77.5 8.1 29.9 0 47.3-1.7 72.5-7.1 94.7-20.2 176.5-78.6 227.1-162.1 26.6-44 44.3-98.3 48.6-148.8 1.5-17.7.8-61.6-1.2-75-2.2-14.7-4-24.7-6.1-34-21.9-96.3-83.1-178.5-170-227.9C485.3 24.1 436.7 7.9 396.5 3c-4.9-.6-10.3-1.3-12-1.6-3.7-.7-56-1.6-56.6-1z"/></svg>