<svg id="Компонент_7_4" data-name="Компонент 7 – 4" xmlns="http://www.w3.org/2000/svg" width="140.14" height="40" viewBox="0 0 140.14 40">
  <path id="Контур_17303" data-name="Контур 17303" d="M954.942,292.48h-2.453a1.979,1.979,0,0,1-1.979-1.979v-6.785h1.048a2.831,2.831,0,0,0,2.831-2.831V279.5h-3.879V273.92h-2.454a2.831,2.831,0,0,0-2.831,2.831V279.5h-.4a2.831,2.831,0,0,0-2.831,2.831v1.382h3.23v7.547a5.97,5.97,0,0,0,5.97,5.97h.916a2.831,2.831,0,0,0,2.831-2.831Z" transform="translate(-893.681 -268.877)" fill="#002857"/>
  <path id="Прямоугольник_16566" data-name="Прямоугольник 16566" d="M5.094,0h0a0,0,0,0,1,0,0V23.261A5.094,5.094,0,0,1,0,28.356H0a0,0,0,0,1,0,0V5.094A5.094,5.094,0,0,1,5.094,0Z" transform="translate(64.179)" fill="#002857"/>
  <path id="Прямоугольник_16567" data-name="Прямоугольник 16567" d="M5.094,0h0a0,0,0,0,1,0,0V12.636A5.094,5.094,0,0,1,0,17.73H0a0,0,0,0,1,0,0V5.094A5.094,5.094,0,0,1,5.094,0Z" transform="translate(115.121 10.616)" fill="#002857"/>
  <path id="Контур_17304" data-name="Контур 17304" d="M1413.883,373.916a9.354,9.354,0,1,0,9.595,9.351A9.475,9.475,0,0,0,1413.883,373.916Zm0,13.852a4.513,4.513,0,1,1,4.178-4.5A4.349,4.349,0,0,1,1413.883,387.768Z" transform="translate(-1332.211 -363.739)" fill="#002857"/>
  <path id="Контур_17305" data-name="Контур 17305" d="M16.095,204.683a13.663,13.663,0,1,0,0,27.323,13.663,13.663,0,1,0,0-27.323Zm0,22.2a8.555,8.555,0,0,1,0-17.079,8.555,8.555,0,0,1,0,17.079Z" transform="translate(-2.198 -203.201)" fill="#002857"/>
  <path id="Контур_17306" data-name="Контур 17306" d="M601.5,393.644v-11.2h-2.264a2.831,2.831,0,0,0-2.831,2.831v7.743a3.191,3.191,0,0,1-3.049,3.22,3.132,3.132,0,0,1-3.192-2.759V382.448H587.9a2.831,2.831,0,0,0-2.831,2.831v8.366c0,4.286,3.673,7.067,8.2,7.067,4.428,0,8.035-2.658,8.2-6.781A1.321,1.321,0,0,0,601.5,393.644Z" transform="translate(-555.108 -371.832)" fill="#002857"/>
  <path id="Контур_17307" data-name="Контур 17307" d="M2418.457,388.2a2.786,2.786,0,0,0-3.482-.76,5.546,5.546,0,0,1-2.524.6,4.7,4.7,0,0,1,0-9.339,5.732,5.732,0,0,1,2.506.548,2.8,2.8,0,0,0,3.476-.793l1.1-1.452a9.816,9.816,0,0,0-7.036-2.941,9.3,9.3,0,1,0,0,18.592,9.813,9.813,0,0,0,7.087-2.994Z" transform="translate(-2279.444 -363.879)" fill="#002857"/>
  <path id="Контур_17308" data-name="Контур 17308" d="M1801.091,390.416q-.526,0-1.028.026a1.1,1.1,0,0,1-.37-2.165,2.137,2.137,0,0,1,.579-.074h.168a7.38,7.38,0,0,1,1.1.082,8.116,8.116,0,0,0,1.136.08c3.844,0,6.959-2.666,6.959-5.955a5.761,5.761,0,0,0-3.011-4.9.118.118,0,0,1,.059-.22h.859a2.831,2.831,0,0,0,2.831-2.831v-.39H1800.34c-4.073,0-7.32,2.517-7.752,6.155a7.031,7.031,0,0,0,3.532,6.795.375.375,0,0,1,.021.635,2.243,2.243,0,0,0-1.175,1.768,1.835,1.835,0,0,0,.583,1.282.375.375,0,0,1-.143.616c-3.2,1.164-4.987,3.342-4.987,5.838,0,4.271,3.968,6.737,10.674,6.737s10.674-2.465,10.674-6.737C1811.765,392.9,1807.8,390.416,1801.091,390.416Zm.015-12.354c2.128,0,3.853,1.426,3.853,3.185s-1.725,3.185-3.853,3.185-3.853-1.426-3.853-3.185S1798.978,378.062,1801.106,378.062Zm-.015,22.378c-3.136,0-5.678-1.472-5.678-3.288s2.542-3.288,5.678-3.288,5.678,1.472,5.678,3.288S1804.227,400.441,1801.091,400.441Z" transform="translate(-1698.492 -363.889)" fill="#002857"/>
  <circle id="Эллипс_1452" data-name="Эллипс 1452" cx="3.411" cy="3.411" r="3.411" transform="translate(114.257 1.588)" fill="#002857"/>
</svg>
