<svg xmlns="http://www.w3.org/2000/svg" width="140.139" height="40" viewBox="0 0 140.139 40"><g data-name="Сгруппировать 16175" transform="translate(-2.198 -175.867)" fill="#fff"><path data-name="Контур 17303" d="M63.458 199.47h-2.453a1.979 1.979 0 01-1.979-1.979v-6.785h1.048a2.831 2.831 0 002.831-2.831v-1.385h-3.879v-5.58h-2.454a2.831 2.831 0 00-2.831 2.831v2.749h-.4a2.831 2.831 0 00-2.831 2.831v1.382h3.23v7.547a5.97 5.97 0 005.97 5.97h.916a2.831 2.831 0 002.831-2.831z"/><path data-name="Прямоугольник 16566" d="M71.471 175.867v23.261a5.094 5.094 0 01-5.094 5.095v-23.262a5.094 5.094 0 015.094-5.094z"/><path data-name="Прямоугольник 16567" d="M122.413 186.483v12.636a5.094 5.094 0 01-5.094 5.094v-12.636a5.094 5.094 0 015.094-5.094z"/><path data-name="Контур 17304" d="M83.87 186.044a9.354 9.354 0 109.595 9.351 9.475 9.475 0 00-9.595-9.351zm0 13.852a4.513 4.513 0 114.178-4.5 4.349 4.349 0 01-4.178 4.5z"/><path data-name="Контур 17305" d="M16.095 177.349a13.663 13.663 0 100 27.323 13.663 13.663 0 100-27.323zm0 22.2a8.555 8.555 0 010-17.079 8.555 8.555 0 010 17.079z"/><path data-name="Контур 17306" d="M48.59 197.679v-11.2h-2.264a2.831 2.831 0 00-2.831 2.831v7.743a3.191 3.191 0 01-3.049 3.22 3.132 3.132 0 01-3.192-2.759v-11.031H34.99a2.831 2.831 0 00-2.831 2.831v8.366c0 4.286 3.673 7.067 8.2 7.067 4.428 0 8.035-2.658 8.2-6.781a1.321 1.321 0 00.031-.287z"/><path data-name="Контур 17307" d="M141.211 200.188a2.786 2.786 0 00-3.482-.76 5.546 5.546 0 01-2.524.6 4.7 4.7 0 010-9.339 5.732 5.732 0 012.506.548 2.8 2.8 0 003.476-.793l1.1-1.452a9.816 9.816 0 00-7.036-2.941 9.3 9.3 0 100 18.592 9.813 9.813 0 007.087-2.994z"/><path data-name="Контур 17308" d="M104.797 202.394q-.526 0-1.028.026a1.1 1.1 0 01-.37-2.165 2.137 2.137 0 01.579-.074h.168a7.38 7.38 0 011.1.082 8.116 8.116 0 001.136.08c3.844 0 6.959-2.666 6.959-5.955a5.761 5.761 0 00-3.011-4.9.118.118 0 01.059-.22h.859a2.831 2.831 0 002.831-2.831v-.39h-10.033c-4.073 0-7.32 2.517-7.752 6.155a7.031 7.031 0 003.532 6.795.375.375 0 01.021.635 2.243 2.243 0 00-1.175 1.768 1.835 1.835 0 00.583 1.282.375.375 0 01-.143.616c-3.2 1.164-4.987 3.342-4.987 5.838 0 4.271 3.968 6.737 10.674 6.737s10.674-2.465 10.674-6.737c-.002-4.258-3.967-6.742-10.676-6.742zm.015-12.354c2.128 0 3.853 1.426 3.853 3.185s-1.725 3.185-3.853 3.185-3.853-1.426-3.853-3.185 1.725-3.185 3.853-3.185zm-.015 22.378c-3.136 0-5.678-1.472-5.678-3.288s2.542-3.288 5.678-3.288 5.678 1.472 5.678 3.288-2.542 3.289-5.678 3.289z"/><circle data-name="Эллипс 1452" cx="3.411" cy="3.411" r="3.411" transform="translate(116.455 177.455)"/></g></svg>