<svg version="1.1" id="Слой_1" xmlns="http://www.w3.org/2000/svg" xmlns:xlink="http://www.w3.org/1999/xlink" x="0" y="0" viewBox="0 0 120.1 69.1" xml:space="preserve"><style>.st0{fill:#fff}.st4{fill:#9d9fa2}</style><path class="st0" d="M5.1 50l1.1 3.5H4L5.1 50zm-1.3-2.8L0 57.3h2.7l.6-1.8h3.5l.6 1.8h2.7L6.5 47.2H3.8z"/><defs><path id="SVGID_1_" d="M0 0h120.1v69.1H0z"/></defs><clipPath id="SVGID_2_"><use xlink:href="#SVGID_1_" overflow="visible"/></clipPath><path d="M19.3 55h1.2c2 0 2.8-.8 2.8-2.8 0-1.8-1-2.7-2.8-2.7h-1.2V55zm-2.6-7.8H21c3.1 0 5 1.9 5 5 0 3.3-1.9 5.1-5 5.1h-4.3V47.2z" clip-path="url(#SVGID_2_)" fill="#fff"/><path class="st0" d="M38.2 57.3h-3L32 47.2h2.8l1.9 7.5h.1l2-7.5h2.7zm11.9-3.8h2.3L51.3 50l-1.2 3.5zm-.1-6.3h2.7l3.8 10.1h-2.7l-.6-1.8h-3.5l-.6 1.8h-2.7L50 47.2zm12.8 0h2.7l3.5 6.2h.1v-6.2h2.4v10.1h-2.7L65.3 51v6.3h-2.5z"/><defs><path id="SVGID_3_" d="M0 0h120.1v69.1H0z"/></defs><clipPath id="SVGID_4_"><use xlink:href="#SVGID_3_" overflow="visible"/></clipPath><path d="M85.7 50.8c-.1-1-.9-1.6-2-1.6-1.7 0-2.4 1.5-2.4 3s.7 3 2.4 3c1.2 0 1.9-.7 2-1.9h2.6c-.1 2.6-2.1 4.1-4.6 4.1-3.1 0-5-2.3-5-5.3 0-2.9 2-5.3 5-5.3 2.2 0 4.5 1.4 4.6 3.8h-2.6z" clip-path="url(#SVGID_4_)" fill="#fff"/><path class="st0" d="M95.4 47.2h8.1v2.1h-5.4V51h4.9v2.1h-4.9V55h5.5v2.3h-8.2z"/><defs><path id="SVGID_5_" d="M0 0h120.1v69.1H0z"/></defs><clipPath id="SVGID_6_"><use xlink:href="#SVGID_5_" overflow="visible"/></clipPath><path d="M113.4 55h1.2c2 0 2.8-.8 2.8-2.8 0-1.8-1-2.7-2.8-2.7h-1.2V55zm-2.6-7.8h4.3c3.1 0 5 1.9 5 5 0 3.3-1.9 5.1-5 5.1h-4.3V47.2z" clip-path="url(#SVGID_6_)" fill="#fff"/><path class="st4" d="M4.2 63.7l-1.4 4.1-1.5-4.1H0v5.2h.9v-4l1.5 4h.7l1.5-4v4h.9v-5.2zm3.9 0v5.2h3.8v-.8H9v-1.5h2.6v-.7H9v-1.4h2.8v-.8z"/><defs><path id="SVGID_7_" d="M0 0h120.1v69.1H0z"/></defs><clipPath id="SVGID_8_"><use xlink:href="#SVGID_7_" overflow="visible"/></clipPath><path d="M17.7 65.4c-.2-.6-.5-1-1.3-1-1.1 0-1.6 1-1.6 2s.5 2 1.6 2c.8 0 1.3-.6 1.3-1.4h.9c-.1 1.3-1 2.1-2.2 2.1-1.6 0-2.5-1.3-2.5-2.8 0-1.5.9-2.8 2.5-2.8 1.2 0 2.1.7 2.2 1.8h-.9z" clip-path="url(#SVGID_8_)" fill="#9d9fa2"/><path class="st4" d="M24.3 63.7v2.1h-2.4v-2.1h-1v5.2h1v-2.3h2.4v2.3h.9v-5.2zm5.3.9l.8 2.3h-1.6l.8-2.3zm-.4-.9l-2 5.3h1l.5-1.4h2.1l.5 1.4h1l-2-5.3h-1.1zm8.3 0v3.9l-2.4-3.9h-1v5.2h.9v-3.8l2.4 3.8h1v-5.2zm3.5 0h.9V69H41z"/><defs><path id="SVGID_9_" d="M0 0h120.1v69.1H0z"/></defs><clipPath id="SVGID_10_"><use xlink:href="#SVGID_9_" overflow="visible"/></clipPath><path d="M48 65.4c-.2-.6-.5-1-1.3-1-1.1 0-1.6 1-1.6 2s.5 2 1.6 2c.8 0 1.3-.6 1.3-1.4h1c-.1 1.3-1 2.1-2.2 2.1-1.6 0-2.5-1.3-2.5-2.8 0-1.5.9-2.8 2.5-2.8 1.2 0 2.1.7 2.2 1.8h-1z" clip-path="url(#SVGID_10_)" fill="#9d9fa2"/><path class="st4" d="M53.2 64.6l.8 2.3h-1.6l.8-2.3zm-.5-.9l-2 5.3h1l.5-1.4h2.1l.5 1.4h1l-2-5.3h-1.1zm5 0v5.2h3.6v-.8h-2.7v-4.4z"/><defs><path id="SVGID_11_" d="M0 0h120.1v69.1H0z"/></defs><clipPath id="SVGID_12_"><use xlink:href="#SVGID_11_" overflow="visible"/></clipPath><path d="M67.5 67.2c0 .8.6 1.1 1.3 1.1.8 0 1.1-.4 1.1-.8s-.2-.6-.4-.6l-1.6-.4c-.9-.2-1.2-.8-1.2-1.3 0-1.1 1-1.5 1.9-1.5 1.1 0 2 .6 2 1.7h-.9c0-.7-.5-.9-1.1-.9-.4 0-1 .2-1 .7 0 .4.3.6.6.7.1 0 1.2.3 1.5.4.7.2 1 .8 1 1.3 0 1.2-1 1.7-2.1 1.7-1.2 0-2.2-.6-2.2-1.9h1.1zm6.3-.9c0 1 .5 2 1.6 2s1.6-1 1.6-2-.5-2-1.6-2-1.6 1-1.6 2m4.1 0c0 1.5-.9 2.8-2.5 2.8s-2.5-1.3-2.5-2.8c0-1.5.9-2.8 2.5-2.8s2.5 1.3 2.5 2.8" clip-path="url(#SVGID_12_)" fill="#9d9fa2"/><path class="st4" d="M80.2 63.7v5.2h3.6v-.8h-2.6v-4.4z"/><defs><path id="SVGID_13_" d="M0 0h120.1v69.1H0z"/></defs><clipPath id="SVGID_14_"><use xlink:href="#SVGID_13_" overflow="visible"/></clipPath><path d="M85.9 63.7h.9v3.1c0 .7 0 1.5 1.2 1.5s1.2-.8 1.2-1.5v-3.1h.9V67c0 1.3-.9 2-2.2 2-1.3 0-2.2-.7-2.2-2v-3.3z" clip-path="url(#SVGID_14_)" fill="#9d9fa2"/><path class="st4" d="M92.2 63.7v.8h1.7v4.4h.9v-4.4h1.7v-.8zm6.4 0h.9V69h-.9z"/><defs><path id="SVGID_15_" d="M0 0h120.1v69.1H0z"/></defs><clipPath id="SVGID_16_"><use xlink:href="#SVGID_15_" overflow="visible"/></clipPath><path d="M102.7 66.3c0 1 .5 2 1.6 2s1.6-1 1.6-2-.5-2-1.6-2-1.6 1-1.6 2m4.2 0c0 1.5-.9 2.8-2.5 2.8s-2.5-1.3-2.5-2.8c0-1.5.9-2.8 2.5-2.8 1.5.1 2.5 1.3 2.5 2.8" clip-path="url(#SVGID_16_)" fill="#9d9fa2"/><path class="st4" d="M112.5 63.7v3.9l-2.4-3.9h-1v5.2h.9v-3.8h.1l2.3 3.8h1v-5.2z"/><defs><path id="SVGID_17_" d="M0 0h120.1v69.1H0z"/></defs><clipPath id="SVGID_18_"><use xlink:href="#SVGID_17_" overflow="visible"/></clipPath><path d="M116.6 67.2c0 .8.6 1.1 1.3 1.1.8 0 1.1-.4 1.1-.8s-.2-.6-.4-.6l-1.6-.4c-.9-.2-1.2-.8-1.2-1.3 0-1.1 1-1.5 1.9-1.5 1.1 0 2 .6 2 1.7h-.9c0-.7-.5-.9-1.1-.9-.4 0-1 .2-1 .7 0 .4.2.6.6.7.1 0 1.2.3 1.5.4.7.2 1 .8 1 1.3 0 1.2-1 1.7-2.1 1.7-1.2 0-2.2-.6-2.2-1.9h1.1zM67.3 32.4c1.1-1.2 2-2.7 2.7-4.4 1.7-.7 3.1-1.7 4.4-2.7-.2 1.9-1 3.6-2.2 4.9-1.3 1.2-3 2-4.9 2.2m-12.3.9c1.6-.1 3.3-.5 5-1.1 1.7.7 3.4 1 5 1.1-1.5 1.2-3.2 1.9-5 1.9-1.8 0-3.5-.7-5-1.9m-9.3-8c1.2 1.1 2.7 2 4.4 2.7.7 1.7 1.7 3.1 2.7 4.4-1.9-.2-3.6-1-4.9-2.2-1.2-1.3-2-3-2.2-4.9M44.8 13c.1 1.6.5 3.3 1.1 5-.7 1.7-1 3.4-1.1 5-1.2-1.5-1.8-3.2-1.8-5-.1-1.8.6-3.5 1.8-5m3.1-7.1c1.3-1.3 3-2 4.9-2.2-1.1 1.2-2 2.7-2.7 4.4-1.7.7-3.1 1.7-4.4 2.7.2-1.9 1-3.6 2.2-4.9m17.2-3.1c-1.6.1-3.3.5-5 1.1-1.7-.7-3.4-1-5-1.1 1.5-1.2 3.2-1.8 5-1.8 1.8-.1 3.5.6 5 1.8m9.3 8c-1.2-1.1-2.7-2-4.4-2.7-.7-1.7-1.7-3.1-2.7-4.4 1.9.2 3.6 1 4.9 2.2 1.2 1.3 2 3 2.2 4.9m.9 12.3c-.1-1.6-.5-3.3-1.1-5 .7-1.7 1-3.4 1.1-5 1.2 1.5 1.9 3.2 1.9 5 0 1.7-.7 3.4-1.9 5m-8.7 5.2c.7-.5 1.3-1.1 2-1.8.6-.6 1.2-1.3 1.8-2-.3 1-.6 1.9-.9 2.8-1 .4-1.9.7-2.9 1m-9.2 1.6c.9.1 1.7.1 2.6.1.9 0 1.8 0 2.6-.1-.9.5-1.8.9-2.6 1.3-.8-.3-1.7-.8-2.6-1.3m-5.9-3.4c.6.6 1.3 1.2 2 1.8-1-.3-1.9-.6-2.8-.9-.4-.9-.7-1.8-.9-2.8.5.7 1.1 1.3 1.7 1.9m2-18.7c-.7.5-1.3 1.1-2 1.8-.6.6-1.2 1.3-1.8 2 .3-1 .6-1.9.9-2.8 1-.5 1.9-.8 2.9-1m9.2-1.7c-.9 0-1.8-.1-2.7-.1-.9 0-1.8 0-2.6.1.9-.5 1.8-.9 2.6-1.3.9.4 1.8.8 2.7 1.3m5.8 3.4c-.6-.6-1.3-1.2-2-1.8 1 .3 1.9.6 2.8.9.4.9.7 1.8.9 2.8-.4-.6-1-1.2-1.7-1.9m3.4 5.9c.5.9.9 1.8 1.3 2.6-.4.9-.8 1.8-1.3 2.6.1-.9.1-1.7.1-2.6.1-.9 0-1.7-.1-2.6m-23.7 5.3c-.5-.9-.9-1.8-1.3-2.6.4-.9.8-1.8 1.3-2.6-.1.8-.2 1.6-.2 2.5 0 .9.1 1.8.2 2.7m.7-2.7c0-1.5.1-3 .4-4.4.8-1.2 1.8-2.3 2.9-3.4 1.1-1.1 2.2-2 3.4-2.9 1.4-.2 2.9-.4 4.4-.4 1.5 0 3 .1 4.4.4 1.2.8 2.3 1.8 3.4 2.9 1.1 1.1 2 2.2 2.9 3.4.2 1.4.4 2.9.4 4.4 0 1.5-.1 3-.4 4.4-.8 1.2-1.8 2.3-2.9 3.4-1.1 1.1-2.2 2-3.4 2.9-1.4.2-2.9.4-4.4.4-1.5 0-3-.1-4.4-.4-1.2-.8-2.3-1.8-3.4-2.9-1.1-1.1-2-2.2-2.9-3.4-.2-1.3-.4-2.8-.4-4.4m21.6-8.7c1.5.8 2.9 1.7 3.9 2.8 0 1.5-.3 3.1-.8 4.8-.6-1.2-1.2-2.4-2-3.6-.2-1.5-.6-2.8-1.1-4M66 3.6c1.1 1.1 2 2.4 2.8 3.9-1.2-.5-2.6-.8-4-1.1-1.2-.8-2.4-1.5-3.6-2 1.7-.5 3.3-.8 4.8-.8m-11.9 0c1.5 0 3.1.3 4.8.8-1.2.6-2.4 1.2-3.6 2-1.4.3-2.7.6-4 1.1C52 6 53 4.7 54.1 3.6m-8.5 8.5c1.1-1.1 2.4-2 3.9-2.8-.5 1.2-.8 2.6-1.1 4-.8 1.2-1.5 2.4-2 3.6-.5-1.7-.8-3.3-.8-4.8m3.9 14.7c-1.5-.8-2.8-1.7-3.9-2.8 0-1.5.3-3.1.8-4.8.6 1.2 1.2 2.4 2 3.6.3 1.4.7 2.8 1.1 4m4.6 5.7c-1.1-1.1-2-2.4-2.8-3.9 1.2.5 2.6.8 4 1.1 1.2.8 2.4 1.5 3.6 2-1.7.5-3.3.8-4.8.8m11.9 0c-1.5 0-3.1-.3-4.8-.8 1.2-.6 2.4-1.2 3.6-2 1.4-.3 2.7-.6 4-1.1-.8 1.5-1.7 2.8-2.8 3.9m4.5-5.7c.5-1.2.8-2.6 1.1-4 .8-1.2 1.5-2.4 2-3.6.5 1.6.8 3.3.8 4.8-1 1.1-2.3 2-3.9 2.8m4.9-2.4c1.7-1.8 2.7-4 2.7-6.3s-1-4.5-2.7-6.3c-.1-2.5-.9-4.8-2.6-6.4-1.6-1.6-3.9-2.5-6.4-2.6C64.5 1 62.4 0 60 0c-2.3 0-4.5 1-6.3 2.7-2.5.1-4.8.9-6.4 2.6-1.6 1.6-2.5 3.9-2.6 6.4-1.7 1.8-2.7 4-2.7 6.3s1 4.5 2.7 6.3c.1 2.5.9 4.8 2.6 6.4 1.6 1.6 3.9 2.5 6.4 2.6 1.8 1.7 4 2.7 6.3 2.7s4.5-1 6.3-2.7c2.5-.1 4.8-.9 6.4-2.6 1.7-1.6 2.6-3.8 2.7-6.3" clip-path="url(#SVGID_18_)" fill="#9d9fa2"/><path d="M61.3 2.5c-.9-.1-1.7-.1-2.6 0l-1.5 4.2C56.1 7 55 7.4 54 8l-4-1.9c-.7.6-1.3 1.2-1.8 1.8L50 12c-.6 1-1 2.1-1.3 3.2l-4.2 1.6c-.1.9-.1 1.7 0 2.6l4.2 1.5c.3 1.1.7 2.2 1.3 3.1l-1.9 4.1c.6.7 1.2 1.3 1.8 1.8L54 28c1 .6 2.1 1 3.2 1.3l1.5 4.2c.9.1 1.7.1 2.6 0l1.5-4.2c1.1-.3 2.2-.7 3.2-1.3l4.1 1.9c.7-.6 1.3-1.2 1.8-1.8L70.1 24c.6-1 1-2.1 1.3-3.2l4.2-1.6c.1-.9.1-1.7 0-2.6l-4.2-1.5c-.3-1.1-.7-2.2-1.3-3.2L72 8c-.6-.7-1.2-1.3-1.8-1.8L66.1 8c-1-.6-2.1-1-3.2-1.3l-1.6-4.2zM56.7 18c0-1.9 1.5-3.4 3.4-3.4s3.4 1.5 3.4 3.4-1.5 3.4-3.4 3.4-3.4-1.5-3.4-3.4" clip-path="url(#SVGID_18_)" fill="#f7941d"/></svg>