<svg width="30" height="30" viewBox="0 0 30 30" fill="none" xmlns="http://www.w3.org/2000/svg">
<g clip-path="url(#clip0_1240_5572)">
<path d="M26.8392 17.8466C26.4835 17.4909 26.0475 17.2444 25.5722 17.1235C25.7908 16.2182 25.5475 15.2231 24.8422 14.5178C24.4795 14.155 24.04 13.915 23.5756 13.7966C23.782 12.9436 23.5911 11.9353 22.8446 11.1889C22.5942 10.9385 22.3071 10.7471 22.0006 10.6131L24.8426 7.77146C25.9204 6.69235 25.9223 4.94557 24.8422 3.86553C23.7634 2.78665 22.0164 2.78477 20.9359 3.86553L12.0707 12.7307L11.5522 10.484C11.2546 9.19334 10.2786 8.16469 9.00512 7.79953C7.73197 7.43426 6.3592 7.78939 5.42267 8.72639C5.42255 8.72651 5.42244 8.72663 5.42226 8.72674C5.25741 8.89177 5.16464 9.11587 5.16488 9.34916L5.17584 20.2832L2.60903 22.85C2.26574 23.1933 2.26574 23.7499 2.60903 24.0932L8.25828 29.7425C8.42308 29.9073 8.6467 30 8.87983 30H17.0586C18.0475 30 18.9775 29.6146 19.6772 28.9149L26.8392 21.7529C27.9048 20.6883 27.9314 18.9372 26.8392 17.8466ZM22.179 15.7608C22.5717 15.3682 23.2069 15.3687 23.599 15.7608C23.9905 16.1524 23.9905 16.7894 23.599 17.1809L21.6015 19.1784C21.2082 19.5717 20.5728 19.5698 20.1817 19.1786C19.7901 18.7868 19.7901 18.1497 20.1814 17.7583L22.179 15.7608ZM18.9384 16.5152C18.5469 16.9067 17.9099 16.9065 17.5183 16.5152C17.1268 16.1237 17.1268 15.4867 17.5183 15.0952L20.1815 12.432C20.5733 12.0403 21.2103 12.0408 21.6015 12.432C21.9942 12.8247 21.9935 13.46 21.6015 13.852C21.6014 13.8521 21.6013 13.8523 21.6013 13.8522C21.6015 13.852 18.9384 16.5152 18.9384 16.5152ZM18.4341 27.6717C18.0718 28.034 17.5705 28.2418 17.0587 28.2418H9.24398L4.47378 23.4716L6.67683 21.2684C6.84191 21.1034 6.93451 20.8794 6.93433 20.646L6.92343 9.75393C7.38405 9.43361 7.97025 9.33158 8.52042 9.48946C9.17976 9.67851 9.68509 10.211 9.83915 10.8791L10.7144 14.6714C10.7521 14.8345 10.8349 14.9798 10.949 15.0942C10.9491 15.0945 11.6151 15.7608 11.6151 15.7608C13.1078 17.2536 13.1078 19.6826 11.6151 21.1754C11.2718 21.5187 11.2718 22.0753 11.6151 22.4186C11.9583 22.7619 12.515 22.7618 12.8582 22.4186C15.0365 20.2403 15.0365 16.696 12.8582 14.5178L12.8141 14.4736L22.1791 5.10861C22.5808 4.70677 23.2168 4.72634 23.599 5.10867C23.991 5.50054 23.9912 6.13597 23.599 6.52867L16.2752 13.852C15.1982 14.929 15.1982 16.6814 16.2754 17.7585C16.7898 18.2726 17.458 18.5405 18.1331 18.5636C18.1563 19.2388 18.4243 19.9071 18.9384 20.4215C19.4524 20.9356 20.1202 21.2036 20.7951 21.227C20.8189 21.9289 21.1026 22.5853 21.6011 23.0839C21.848 23.3311 22.1339 23.525 22.4446 23.6614L18.4341 27.6717ZM25.5964 20.5094C25.5963 20.5095 25.5962 20.5097 25.596 20.5098L24.2643 21.8415C23.8773 22.229 23.2408 22.2378 22.8446 21.8412C22.4496 21.4461 22.4556 20.8105 22.8449 20.4213L24.1764 19.0898C24.5716 18.6947 25.207 18.7008 25.5964 19.0902C25.9938 19.487 25.9826 20.1237 25.5964 20.5094Z" fill="#85CB33"/>
<path d="M11.7033 5.51961C12.1887 5.51961 12.5823 5.12604 12.5823 4.64057V0.874405C12.5358 -0.291908 10.8702 -0.291029 10.8242 0.874405V4.64063C10.8242 5.1261 11.2178 5.51961 11.7033 5.51961Z" fill="#85CB33"/>
<path d="M7.31617 5.26219C7.65947 5.60555 8.21613 5.60543 8.55931 5.26219C8.90261 4.9189 8.90261 4.36235 8.55931 4.01905L7.6178 3.07754C7.27456 2.73424 6.71795 2.73424 6.37466 3.07754C6.03136 3.42083 6.03136 3.97739 6.37466 4.32068L7.31617 5.26219Z" fill="#85CB33"/>
<path d="M16.0905 5.26219L17.032 4.32068C17.3753 3.97739 17.3753 3.42083 17.032 3.07754C16.6887 2.73424 16.1321 2.73424 15.7888 3.07754L14.8473 4.01905C14.504 4.36235 14.504 4.9189 14.8473 5.26219C15.1906 5.60555 15.7472 5.60543 16.0905 5.26219Z" fill="#85CB33"/>
</g>
<defs>
<clipPath id="clip0_1240_5572">
<rect width="30" height="30" fill="white"/>
</clipPath>
</defs>
</svg>
