<svg width="285" height="19" viewBox="0 0 285 19" fill="none" xmlns="http://www.w3.org/2000/svg">
<path d="M269.469 18.7359V0.263672H276.948C278.559 0.263672 279.935 0.527561 281.078 1.05534C282.238 1.58312 283.129 2.3396 283.753 3.32478C284.376 4.30997 284.688 5.47988 284.688 6.83451C284.688 8.18914 284.376 9.35904 283.753 10.3442C283.129 11.3118 282.238 12.0595 281.078 12.5873C279.935 13.0975 278.559 13.3526 276.948 13.3526H271.339L272.845 11.7956V18.7359H269.469ZM281.363 18.7359L276.767 12.0331H280.376L284.999 18.7359H281.363ZM272.845 12.1651L271.339 10.5289H276.792C278.281 10.5289 279.398 10.2035 280.143 9.55256C280.905 8.90163 281.285 7.99562 281.285 6.83451C281.285 5.6558 280.905 4.74978 280.143 4.11645C279.398 3.48312 278.281 3.16645 276.792 3.16645H271.339L272.845 1.47756V12.1651Z" fill="white"/>
<path d="M255.187 7.94284H264.225V10.7664H255.187V7.94284ZM255.447 15.8595H265.705V18.7359H252.07V0.263672H265.341V3.14006H255.447V15.8595Z" fill="white"/>
<path d="M232.316 18.7359V0.263672H240.835C243.016 0.263672 244.678 0.703487 245.821 1.58312C246.964 2.44515 247.535 3.60627 247.535 5.06645C247.535 6.05164 247.31 6.89608 246.86 7.59978C246.41 8.28589 245.804 8.82247 245.042 9.20951C244.298 9.57895 243.484 9.76367 242.601 9.76367L243.068 8.81367C244.09 8.81367 245.007 9.00719 245.821 9.39423C246.635 9.76367 247.276 10.309 247.743 11.0303C248.228 11.7516 248.47 12.6489 248.47 13.722C248.47 15.3053 247.873 16.5368 246.678 17.4165C245.484 18.2961 243.709 18.7359 241.354 18.7359H232.316ZM235.693 16.0442H241.146C242.41 16.0442 243.38 15.8331 244.055 15.4109C244.73 14.9887 245.068 14.3114 245.068 13.3789C245.068 12.4641 244.73 11.7956 244.055 11.3734C243.38 10.9336 242.41 10.7137 241.146 10.7137H235.433V8.04839H240.471C241.649 8.04839 242.549 7.83728 243.172 7.41506C243.813 6.99284 244.133 6.35951 244.133 5.51506C244.133 4.65302 243.813 4.0109 243.172 3.58867C242.549 3.16645 241.649 2.95534 240.471 2.95534H235.693V16.0442Z" fill="white"/>
<path d="M218.034 7.94284H227.072V10.7664H218.034V7.94284ZM218.294 15.8595H228.553V18.7359H214.918V0.263672H228.189V3.14006H218.294V15.8595Z" fill="white"/>
<path d="M203.346 19C201.926 19 200.619 18.7713 199.424 18.3139C198.247 17.8389 197.217 17.1792 196.334 16.3347C195.451 15.4727 194.767 14.4611 194.282 13.3C193.797 12.1389 193.555 10.8722 193.555 9.5C193.555 8.12778 193.797 6.86111 194.282 5.7C194.767 4.53889 195.451 3.53611 196.334 2.69167C197.234 1.82963 198.281 1.16991 199.476 0.7125C200.671 0.2375 201.978 0 203.398 0C204.939 0 206.324 0.255093 207.553 0.765277C208.8 1.27546 209.847 2.02315 210.695 3.00833L208.566 5.11944C207.856 4.39815 207.085 3.87037 206.254 3.53611C205.441 3.18426 204.54 3.00833 203.553 3.00833C202.601 3.00833 201.718 3.16667 200.904 3.48333C200.091 3.8 199.389 4.24861 198.801 4.82917C198.212 5.40972 197.753 6.09583 197.424 6.8875C197.113 7.67917 196.957 8.55 196.957 9.5C196.957 10.4324 197.113 11.2944 197.424 12.0861C197.753 12.8778 198.212 13.5727 198.801 14.1708C199.389 14.7514 200.082 15.2 200.878 15.5167C201.675 15.8333 202.558 15.9917 203.527 15.9917C204.428 15.9917 205.293 15.8509 206.125 15.5694C206.973 15.2704 207.778 14.7778 208.54 14.0917L210.462 16.6514C209.509 17.4255 208.401 18.0148 207.137 18.4194C205.891 18.8065 204.627 19 203.346 19ZM207.267 16.2028V9.28889H210.462V16.6514L207.267 16.2028Z" fill="white"/>
<path d="M183.174 18.7359V3.16645H177.148V0.263672H192.575V3.16645H186.55V18.7359H183.174Z" fill="white"/>
<path d="M158.375 18.7359L166.556 0.263672H169.88L178.087 18.7359H174.555L167.517 2.08451H168.867L161.855 18.7359H158.375ZM162.141 14.4609L163.05 11.7692H172.867L173.776 14.4609H162.141Z" fill="white"/>
<path d="M141.949 18.7359V0.263672H149.429C151.039 0.263672 152.415 0.527561 153.558 1.05534C154.718 1.58312 155.61 2.3396 156.233 3.32478C156.856 4.30997 157.168 5.47988 157.168 6.83451C157.168 8.18914 156.856 9.35904 156.233 10.3442C155.61 11.3118 154.718 12.0595 153.558 12.5873C152.415 13.0975 151.039 13.3526 149.429 13.3526H143.819L145.325 11.7956V18.7359H141.949ZM153.844 18.7359L149.247 12.0331H152.857L157.48 18.7359H153.844ZM145.325 12.1651L143.819 10.5289H149.273C150.762 10.5289 151.879 10.2035 152.623 9.55256C153.385 8.90163 153.766 7.99562 153.766 6.83451C153.766 5.6558 153.385 4.74978 152.623 4.11645C151.879 3.48312 150.762 3.16645 149.273 3.16645H143.819L145.325 1.47756V12.1651Z" fill="white"/>
<path d="M122.838 18.7359V3.16645H116.812V0.263672H132.239V3.16645H126.214V18.7359H122.838Z" fill="white"/>
<path d="M104.411 14.3817L104.229 10.3178L113.76 0.263672H117.552L109.631 8.81367L107.761 10.8984L104.411 14.3817ZM101.398 18.7359V0.263672H104.775V18.7359H101.398ZM114.072 18.7359L107.112 10.3178L109.345 7.81089L118.02 18.7359H114.072Z" fill="white"/>
<path d="M88.723 18.9998C86.2298 18.9998 84.2734 18.2873 82.8536 16.8623C81.4512 15.4373 80.75 13.3789 80.75 10.6873V0.263672H84.1262V10.5553C84.1262 12.4553 84.5244 13.8364 85.3208 14.6984C86.1346 15.5604 87.2773 15.9914 88.749 15.9914C90.2206 15.9914 91.3547 15.5604 92.1511 14.6984C92.9476 13.8364 93.3458 12.4553 93.3458 10.5553V0.263672H96.67V10.6873C96.67 13.3789 95.9602 15.4373 94.5404 16.8623C93.138 18.2873 91.1989 18.9998 88.723 18.9998Z" fill="white"/>
<path d="M59.4492 18.7359V0.263672H67.3963C69.37 0.263672 71.1014 0.650709 72.5904 1.42478C74.0794 2.19886 75.2394 3.27201 76.0705 4.64423C76.9015 6.01645 77.3171 7.63497 77.3171 9.49978C77.3171 11.347 76.9015 12.9655 76.0705 14.3553C75.2394 15.7276 74.0794 16.8007 72.5904 17.5748C71.1014 18.3489 69.37 18.7359 67.3963 18.7359H59.4492ZM62.8254 15.8331H67.2404C68.6082 15.8331 69.7856 15.5692 70.7724 15.0414C71.7766 14.5137 72.5471 13.7748 73.0838 12.8248C73.6379 11.8748 73.9149 10.7664 73.9149 9.49978C73.9149 8.21552 73.6379 7.10719 73.0838 6.17478C72.5471 5.22478 71.7766 4.48589 70.7724 3.95812C69.7856 3.43034 68.6082 3.16645 67.2404 3.16645H62.8254V15.8331Z" fill="white"/>
<path d="M46.106 19C44.6863 19 43.3791 18.7625 42.1844 18.2875C40.9898 17.8125 39.9509 17.1528 39.0679 16.3083C38.1849 15.4463 37.501 14.4435 37.0162 13.3C36.5315 12.1389 36.2891 10.8722 36.2891 9.5C36.2891 8.12778 36.5315 6.86991 37.0162 5.72639C37.501 4.56528 38.1849 3.5625 39.0679 2.71805C39.9509 1.85602 40.9898 1.1875 42.1844 0.7125C43.3791 0.2375 44.6776 0 46.08 0C47.4997 0 48.7983 0.2375 49.9756 0.7125C51.1703 1.1875 52.2091 1.85602 53.0921 2.71805C53.9751 3.5625 54.659 4.56528 55.1438 5.72639C55.6286 6.86991 55.871 8.12778 55.871 9.5C55.871 10.8722 55.6286 12.1389 55.1438 13.3C54.659 14.4611 53.9751 15.4639 53.0921 16.3083C52.2091 17.1528 51.1703 17.8125 49.9756 18.2875C48.7983 18.7625 47.5084 19 46.106 19ZM46.08 15.9917C46.9976 15.9917 47.846 15.8333 48.6252 15.5167C49.4043 15.2 50.0795 14.7514 50.6509 14.1708C51.2222 13.5727 51.6637 12.8866 51.9754 12.1125C52.3043 11.3208 52.4688 10.45 52.4688 9.5C52.4688 8.55 52.3043 7.68796 51.9754 6.91389C51.6637 6.12222 51.2222 5.43611 50.6509 4.85556C50.0795 4.25741 49.4043 3.8 48.6252 3.48333C47.846 3.16667 46.9976 3.00833 46.08 3.00833C45.1624 3.00833 44.314 3.16667 43.5349 3.48333C42.7731 3.8 42.0978 4.25741 41.5092 4.85556C40.9378 5.43611 40.4877 6.12222 40.1587 6.91389C39.8471 7.68796 39.6912 8.55 39.6912 9.5C39.6912 10.4324 39.8471 11.2944 40.1587 12.0861C40.4877 12.8778 40.9378 13.5727 41.5092 14.1708C42.0805 14.7514 42.7558 15.2 43.5349 15.5167C44.314 15.8333 45.1624 15.9917 46.08 15.9917Z" fill="white"/>
<path d="M18.5898 18.7359V0.263672H26.0694C27.6796 0.263672 29.056 0.527561 30.1988 1.05534C31.3588 1.58312 32.2504 2.3396 32.8737 3.32478C33.497 4.30997 33.8087 5.47988 33.8087 6.83451C33.8087 8.18914 33.497 9.35904 32.8737 10.3442C32.2504 11.3118 31.3588 12.0595 30.1988 12.5873C29.056 13.0975 27.6796 13.3526 26.0694 13.3526H20.4597L21.966 11.7956V18.7359H18.5898ZM30.4844 18.7359L25.8876 12.0331H29.4975L34.1203 18.7359H30.4844ZM21.966 12.1651L20.4597 10.5289H25.9136C27.4026 10.5289 28.5193 10.2035 29.2638 9.55256C30.0256 8.90163 30.4065 7.99562 30.4065 6.83451C30.4065 5.6558 30.0256 4.74978 29.2638 4.11645C28.5193 3.48312 27.4026 3.16645 25.9136 3.16645H20.4597L21.966 1.47756V12.1651Z" fill="white"/>
<path d="M0 18.7359V0.263672H7.47956C9.08975 0.263672 10.4662 0.527561 11.6089 1.05534C12.7689 1.58312 13.6606 2.3396 14.2839 3.32478C14.9072 4.30997 15.2188 5.47988 15.2188 6.83451C15.2188 8.18914 14.9072 9.35904 14.2839 10.3442C13.6606 11.3294 12.7689 12.0859 11.6089 12.6137C10.4662 13.1414 9.08975 13.4053 7.47956 13.4053H1.86989L3.37619 11.7956V18.7359H0ZM3.37619 12.1651L1.86989 10.5026H7.32374C8.81273 10.5026 9.92947 10.1859 10.674 9.55256C11.4358 8.90163 11.8167 7.99562 11.8167 6.83451C11.8167 5.6558 11.4358 4.74978 10.674 4.11645C9.92947 3.48312 8.81273 3.16645 7.32374 3.16645H1.86989L3.37619 1.47756V12.1651Z" fill="white"/>
</svg>
