<?xml version="1.0" encoding="UTF-8"?>
<svg width="132px" height="44px" viewBox="0 0 132 44" version="1.1" xmlns="http://www.w3.org/2000/svg" xmlns:xlink="http://www.w3.org/1999/xlink">
    <!-- Generator: Sketch 45.1 (43504) - http://www.bohemiancoding.com/sketch -->
    <title>WyreLogo</title>
    <desc>Created with Sketch.</desc>
    <defs></defs>
    <g id="Symbols" stroke="none" stroke-width="1" fill="none" fill-rule="evenodd">
        <g id="Top-Nav" transform="translate(-248.000000, -22.000000)">
            <g id="Content">
                <g transform="translate(248.000000, 22.000000)">
                    <g id="WyreLogo">
                        <path d="M73.7455579,37.2611486 C77.7718737,37.8249771 80.2236632,37.0908057 82.1228211,35.2025771 C83.3152421,34.01772 84.2215579,32.6298343 85.0217684,31.1715486 C88.2617684,25.27052 96.0573474,11.0138914 96.0573474,11.0138914 L90.4413474,11.0138914 L84.6024,22.6927486 L82.7802947,11.0138914 L76.8118737,11.0138914 L76.8118737,11.2854343 C76.8118737,11.2854343 78.8322947,21.9774343 79.8693474,27.4566914 C80.0240842,28.2732057 80.1838737,30.37452 78.6996632,31.7334914 C77.8691368,32.4934343 76.6697684,33.1251486 74.6038737,32.7888629 L73.7455579,37.2611486 Z" id="Fill-1" fill="#061027"></path>
                        <polygon id="Fill-3" fill="#061027" points="69.2713263 11.0141429 63.8422737 23.2769429 63.6951158 23.2643714 62.9599579 11.3177429 57.0471158 11.3177429 51.2833263 23.2782 51.1361684 23.2285429 50.8892211 11.0141429 45.2302737 11.0141429 46.3563789 30.6035714 52.4801684 30.6035714 58.4132211 17.8215714 58.5528 17.8454571 59.4932211 30.6023143 65.6568 30.6023143 74.5721684 11.0141429"></polygon>
                        <path d="M101.999242,30.60376 L96.0573474,30.60376 C97.3811368,23.9981029 98.6455579,17.6143314 99.9687158,11.0137029 L104.575453,11.0137029 L104.575453,14.6179314 C105.191874,13.1288457 106.033137,11.7422171 107.460505,11.13376 C108.860716,10.5366171 111.025137,10.5680457 113.231874,11.2425029 C112.362821,12.9176457 111.700295,14.4079886 110.759242,16.2214171 C109.9104,16.0542171 109.146821,15.8405029 108.369347,15.7638171 C106.623032,15.59096 105.354821,16.2842743 104.758611,17.9323886 C104.3424,19.0833029 104.083453,20.3021029 103.832084,21.50456 C103.201768,24.5173029 102.616295,27.5375886 101.999242,30.60376" id="Fill-5" fill="#061027"></path>
                        <path d="M120.996316,15.6726114 C121.845789,14.6448971 123.375474,14.0766686 124.511053,14.4305543 C125.896105,14.8623829 126.350842,16.39044 125.366842,17.4571257 C125.032737,17.8191829 124.566632,18.1190114 124.102421,18.2924971 C122.673158,18.8267829 121.194,18.81044 119.637789,18.5439257 C119.901158,17.4080971 120.318,16.4928971 120.996316,15.6726114 L120.996316,15.6726114 Z M128.601158,25.7341543 C128.601158,25.7341543 128.551263,25.7335257 128.402211,25.7335257 C126.127263,26.6022114 123.602842,26.8297543 121.862842,26.33884 C119.940316,25.7963829 118.831263,24.1312971 119.180526,22.2506114 C124.910211,22.7302114 127.342421,21.6446686 128.647895,20.8677543 C132.184737,18.7626686 133.084105,13.1281543 128.469158,11.4599257 C124.414421,9.99409714 118.766211,10.6911829 116.097789,13.9082114 C113.666211,16.8398686 112.952526,20.0638114 113.325158,23.6523257 C113.604947,26.35204 115.464947,30.2221543 121.543895,30.8262114 C125.219053,31.1914114 127.571684,30.2516971 127.742842,30.1812971 L128.601158,25.7341543 Z" id="Fill-7" fill="#061027"></path>
                        <path d="M22.7598947,21.89924 L36.2718947,21.89924 L28.9822105,39.6205543 C27.9729474,42.0744971 25.5729474,43.6779829 22.9083158,43.6779829 L9.39631579,43.6779829 L16.686,25.9566686 C17.6952632,23.5027257 20.0952632,21.89924 22.7598947,21.89924" id="Fill-9" fill="#94C5FF"></path>
                        <path d="M36.2717684,21.9001829 L28.0902947,32.25464 C26.8505053,33.8983543 24.9740842,34.9669257 22.7673474,34.9669257 L12.9797684,34.9669257 L16.6959789,25.9519543 C17.7065053,23.5005257 20.1058737,21.8989257 22.7686105,21.8995543 L36.2717684,21.9001829 Z" id="Fill-11" fill="#1A32AF"></path>
                        <path d="M18.2806737,11.00748 L31.7926737,11.00748 L24.5029895,28.7287943 C23.4937263,31.1827371 21.0937263,32.7862229 18.4290947,32.7862229 L4.91709474,32.7862229 L12.2067789,15.0649086 C13.2160421,12.6109657 15.6160421,11.00748 18.2806737,11.00748" id="Fill-13" fill="#0092FF"></path>
                        <path d="M31.7925474,11.0084229 L23.6110737,21.36288 C22.3712842,23.0065943 20.4948632,24.0751657 18.2881263,24.0751657 L8.50054737,24.0751657 L12.2167579,15.0601943 C13.2272842,12.6087657 15.6266526,11.0071657 18.2893895,11.0077943 L31.7925474,11.0084229 Z" id="Fill-15" fill="#1A32AF"></path>
                        <path d="M13.8013895,0.105034286 L27.3133895,0.105034286 L20.0237053,17.8263486 C19.0144421,20.2802914 16.6144421,21.8837771 13.9498105,21.8837771 L0.437810526,21.8837771 L7.72749474,4.16246286 C8.73675789,1.70852 11.1367579,0.105034286 13.8013895,0.105034286" id="Fill-17" fill="#0055FF"></path>
                    </g>
                </g>
            </g>
        </g>
    </g>
</svg>