<?xml version="1.0" encoding="UTF-8"?>
<svg width="72px" height="25px" viewBox="0 0 72 25" version="1.1" xmlns="http://www.w3.org/2000/svg" xmlns:xlink="http://www.w3.org/1999/xlink">
    <!-- Generator: Sketch 45.1 (43504) - http://www.bohemiancoding.com/sketch -->
    <title>Wyre White</title>
    <desc>Created with Sketch.</desc>
    <defs></defs>
    <g id="Symbols" stroke="none" stroke-width="1" fill="none" fill-rule="evenodd">
        <g id="Footer" transform="translate(-252.000000, -71.000000)" fill="#FFFFFF">
            <g id="Wyre-White">
                <g transform="translate(252.000000, 71.000000)">
                    <path d="M40.2451269,20.6927654 C42.4518577,21.0032654 43.7956269,20.5989577 44.8365115,19.5591115 C45.49005,18.9066115 45.9867808,18.1423038 46.4253577,17.3392269 C48.2011269,14.0895346 52.4737038,6.23841923 52.4737038,6.23841923 L49.3957038,6.23841923 L46.1955115,12.6699577 L45.1968577,6.23841923 L41.9257038,6.23841923 L41.9257038,6.38795769 C41.9257038,6.38795769 43.03305,12.2760346 43.6014346,15.2934577 C43.6862423,15.7431115 43.7738192,16.9003038 42.9603577,17.6486885 C42.5051654,18.0671885 41.8478192,18.4150731 40.71555,18.2298808 L40.2451269,20.6927654 Z" id="Fill-3"></path>
                    <polygon id="Fill-5" points="37.7929038 6.23852308 34.8173654 12.9916385 34.7367115 12.9847154 34.3337885 6.40571538 31.0930962 6.40571538 27.9340962 12.9923308 27.8534423 12.9649846 27.7180962 6.23852308 24.6165577 6.23852308 25.23375 17.0264077 28.5900577 17.0264077 31.8418269 9.98736923 31.9183269 10.0005231 32.43375 17.0257154 35.8118654 17.0257154 40.6981731 6.23852308"></polygon>
                    <path d="M55.7303192,17.0265115 L52.4737038,17.0265115 C53.1992423,13.3887808 53.8922423,9.87324231 54.6174346,6.23828077 L57.1422808,6.23828077 L57.1422808,8.22312692 C57.4801269,7.40308846 57.9412038,6.63947308 58.7235115,6.30439615 C59.4909346,5.97555 60.6772038,5.99285769 61.8866654,6.36428077 C61.4103577,7.28678077 61.0472423,8.10751154 60.5314731,9.10616538 C60.0662423,9.01408846 59.6477423,8.89639615 59.2216269,8.85416538 C58.2645115,8.75897308 57.5694346,9.14078077 57.2426654,10.0483962 C57.01455,10.6822038 56.8726269,11.3533962 56.7348577,12.0155885 C56.3893962,13.6747038 56.0685115,15.3379731 55.7303192,17.0265115" id="Fill-7"></path>
                    <path d="M66.1421769,8.80393846 C66.6077538,8.23797692 67.4461385,7.92505385 68.0685231,8.11993846 C68.8276385,8.35774615 69.0768692,9.19924615 68.5375615,9.78666923 C68.3544462,9.98605385 68.0989846,10.1511692 67.8445615,10.2467077 C67.0612154,10.5409385 66.2505231,10.5319385 65.3976,10.3851692 C65.5419462,9.75966923 65.7704077,9.25566923 66.1421769,8.80393846 L66.1421769,8.80393846 Z M70.3102154,14.3448231 C70.3102154,14.3448231 70.2828692,14.3444769 70.2011769,14.3444769 C68.9543308,14.8228615 67.5707538,14.9481692 66.6171,14.6778231 C65.5634077,14.3790923 64.9555615,13.4621308 65.1469846,12.4264385 C68.2872923,12.6905538 69.6203308,12.0927462 70.3358308,11.6649 C72.2742923,10.5056308 72.7672154,7.40270769 70.2378692,6.48401538 C68.0155615,5.67678462 64.9199077,6.06066923 63.4574077,7.83228462 C62.1247154,9.44674615 61.7335615,11.2221692 61.9377923,13.1983615 C62.0911385,14.6850923 63.1105615,16.8163615 66.4422923,17.1490154 C68.4565615,17.3501308 69.7459846,16.8326308 69.8397923,16.7938615 L70.3102154,14.3448231 Z" id="Fill-9"></path>
                    <path d="M4.97682692,24.2263731 L12.3824423,24.2263731 C13.8428654,24.2263731 15.15825,23.3433346 15.7114038,21.99195 L19.7060192,12.2338731 L15.2226346,17.9357192 C14.5431346,18.8409115 13.5147115,19.4293731 12.30525,19.4293731 L6.94055769,19.4293731 L4.97682692,24.2263731 Z" id="Fill-11"></path>
                    <path d="M2.52183462,18.2282538 L9.92745,18.2282538 C11.3878731,18.2282538 12.7032577,17.3452154 13.2564115,15.9938308 L17.2513731,6.2361 L12.7676423,11.9376 C12.0881423,12.8427923 11.0597192,13.4312538 9.85025769,13.4312538 L4.48556538,13.4312538 L2.52183462,18.2282538 Z" id="Fill-13"></path>
                    <path d="M7.39111154,0.230919231 L14.7967269,0.230919231 L10.8014192,9.99003462 C10.2482654,11.3414192 8.93288077,12.2244577 7.47245769,12.2244577 L0.0668423077,12.2244577 L4.06215,2.46534231 C4.61530385,1.11395769 5.93068846,0.230919231 7.39111154,0.230919231" id="Fill-15"></path>
                </g>
            </g>
        </g>
    </g>
</svg>