<?xml version="1.0" standalone="no"?>
<!DOCTYPE svg PUBLIC "-//W3C//DTD SVG 20010904//EN"
 "http://www.w3.org/TR/2001/REC-SVG-20010904/DTD/svg10.dtd">
<svg version="1.0" xmlns="http://www.w3.org/2000/svg"
 width="700.000000pt" height="700.000000pt" viewBox="0 0 700.000000 700.000000"
 preserveAspectRatio="xMidYMid meet">
<metadata>
Created by potrace 1.11, written by Peter Selinger 2001-2013
</metadata>
<g transform="translate(0.000000,700.000000) scale(0.100000,-0.100000)"
fill="#000000" stroke="none">
<path d="M3279 6996 c-2 -2 -48 -7 -102 -10 -53 -4 -103 -8 -110 -11 -6 -2
-37 -6 -67 -10 -154 -16 -465 -92 -662 -162 -556 -195 -1085 -552 -1463 -988
-33 -38 -68 -79 -78 -90 -38 -42 -157 -204 -224 -305 -93 -140 -161 -262 -237
-422 -61 -128 -73 -158 -138 -333 -89 -242 -165 -593 -186 -860 -9 -115 -9
-493 0 -610 15 -193 60 -440 120 -650 312 -1108 1164 -2000 2258 -2365 80 -27
156 -51 170 -54 14 -4 90 -21 170 -40 272 -63 446 -81 775 -81 299 0 473 17
725 71 947 202 1765 786 2271 1621 266 440 443 983 486 1488 15 177 8 616 -12
750 -22 147 -40 247 -61 340 -219 963 -831 1785 -1700 2279 -361 205 -847 367
-1249 416 -49 6 -103 13 -120 16 -37 7 -560 16 -566 10z"/>
</g>
</svg>
