<svg version="1.1" id="Слой_1" xmlns="http://www.w3.org/2000/svg" x="0" y="0" viewBox="0 0 253 53" xml:space="preserve" enable-background="new 0 0 253 53"><style>.st0,.st2{fill-rule:evenodd;clip-rule:evenodd}.st2{fill:#fff}</style><g id="homepage"><g id="homepage-actions" transform="translate(-38 -10)"><g id="Chamber-Logo-white" transform="translate(38 10)"><path id="Fill-1" class="st0" d="M83.3 28.9c-1.2-1-2.4-1.8-3.7-2.3-1.3-.5-2.7-.8-4.1-.8-2.8 0-5.1.9-6.8 2.7-1.8 1.8-2.6 4.1-2.6 7 0 2.8.9 5 2.6 6.8 1.7 1.8 3.9 2.7 6.5 2.7 1.5 0 3-.3 4.3-.8 1.4-.5 2.7-1.3 3.9-2.4v4.7c-1.1.8-2.3 1.4-3.6 1.8-1.3.4-2.7.6-4.3.6-2 0-3.8-.3-5.4-1-1.7-.6-3.1-1.6-4.4-2.8-1.2-1.2-2.2-2.7-2.9-4.3-.7-1.7-1-3.4-1-5.3s.3-3.6 1-5.3c.7-1.6 1.6-3.1 2.9-4.3 1.3-1.3 2.7-2.2 4.4-2.9 1.6-.6 3.4-1 5.3-1 1.5 0 2.9.2 4.3.7 1.4.4 2.7 1.1 4 2l-.4 4.2"/><path id="Fill-2" class="st0" d="M92.7 48.3V22.7h4.2v9.4h12.5v-9.4h4.2v25.6h-4.2V35.9H96.9v12.4h-4.2"/><path id="Fill-3" class="st0" d="M129.2 38.2h7.1l-2.6-5.8c-.2-.4-.3-.8-.5-1.3s-.3-1-.5-1.6c-.1.6-.3 1.1-.4 1.6-.2.5-.3.9-.5 1.3l-2.6 5.8zm11.4 10.1l-2.9-6.6h-10.1l-3 6.6h-4.4l12.4-26.6L145 48.3h-4.4z"/><path id="Fill-4" class="st0" d="M172.6 35.7c0-.2-.1-.7-.2-1.6-.1-.7-.2-1.4-.2-1.8-.1.6-.3 1.2-.4 1.7-.2.6-.4 1.2-.7 1.8l-6.7 13.6-6.7-13.9c-.3-.6-.5-1.1-.7-1.7-.2-.5-.4-1.1-.5-1.6 0 .5-.1 1.1-.1 1.7l-.3 1.8-2.7 12.6h-3.8l6-26.6 7.5 16.1c.1.3.3.7.5 1.3.2.6.5 1.3.9 2.2.2-.7.6-1.7 1.2-2.8.1-.3.2-.5.3-.7l7.4-16.1 6.2 26.6h-3.9l-3.1-12.6"/><path id="Fill-5" class="st0" d="M190.9 44.8h1.4c1.5 0 2.5-.1 3.3-.2.7-.1 1.3-.3 1.7-.6.5-.3.9-.8 1.2-1.4.3-.6.4-1.2.4-1.9 0-.8-.2-1.5-.5-2.1-.3-.6-.8-1.1-1.4-1.4-.4-.2-.8-.3-1.4-.4-.5-.1-1.2-.1-2-.1h-2.7v8.1zm0-11.3h1.6c2 0 3.4-.3 4.2-.8.8-.5 1.2-1.5 1.2-2.7 0-1.4-.4-2.4-1.1-2.9-.8-.6-2.2-.8-4.3-.8h-1.6v7.2zm-4 14.8V22.7h6.4c1.8 0 3.2.1 4.1.3.9.2 1.6.5 2.2 1 .8.6 1.4 1.3 1.8 2.3.4.9.7 2 .7 3.1 0 1.4-.3 2.5-.9 3.4-.6.9-1.5 1.6-2.7 1.9 1.5.2 2.7.9 3.5 2 .9 1.1 1.3 2.5 1.3 4.3 0 1-.2 2-.5 3-.4.9-.9 1.7-1.5 2.4-.7.7-1.6 1.2-2.6 1.5-1 .3-2.8.4-5.2.4h-6.6z"/><path id="Fill-6" class="st0" d="M211.8 48.3V22.7H226v3.5h-10.1v6.5H226v3.6h-10.1v8.3H226v3.7h-14.2"/><path id="Fill-7" class="st0" d="M239.3 33.6h.8c2.2 0 3.7-.3 4.4-.8.7-.5 1.1-1.4 1.1-2.7 0-1.4-.4-2.4-1.2-3-.8-.6-2.2-.9-4.3-.9h-.8v7.4zm-.3 3.2v11.4h-3.9V22.7h5.8c1.7 0 3 .1 4 .3.9.2 1.7.6 2.4 1.1.8.6 1.4 1.4 1.8 2.4.4 1 .6 2 .6 3.2 0 2-.5 3.7-1.5 4.8-1 1.2-2.5 1.9-4.4 2.1l8.8 11.6H248l-8.5-11.4h-.5z"/><path id="Fill-8" class="st0" d="M70.4 7c-.3-.3-.7-.5-1.1-.7-.4-.2-.8-.3-1.2-.3-.5 0-.9.1-1.3.2-.4.2-.7.4-1 .7-.3.3-.6.7-.7 1.2-.2.4-.3.9-.3 1.4 0 .5.1 1 .3 1.4.2.4.4.8.7 1.2.3.3.6.5 1 .7.4.2.8.2 1.3.2s.9-.1 1.3-.2c.4-.2.7-.4 1-.7l.8.8c-.4.4-.9.7-1.4.9-.5.2-1.1.3-1.7.3-.6 0-1.2-.1-1.7-.3-.5-.2-1-.5-1.4-.9-.4-.4-.8-.9-1-1.5s-.3-1.2-.3-1.8c0-.7.1-1.3.3-1.8s.6-1.1 1-1.5c.4-.4.9-.7 1.4-.9.4-.3 1-.4 1.7-.4.6 0 1.2.1 1.7.3.5.2 1 .5 1.4.8l-.8.9"/><path id="Fill-9" class="st0" d="M76.7 13.9V5.2h1.1v3.7h4.6V5.2h1.1v8.7h-1.1v-4h-4.6v4h-1.1"/><path id="Fill-10" class="st0" d="M91.1 10.8h3.3L93 7.4c0-.1-.1-.2-.1-.3 0-.1-.1-.3-.2-.5-.1.2-.1.4-.2.5 0 .1-.1.2-.1.3l-1.3 3.4zm-2.4 3.1l3.6-8.7h.9l3.7 8.7h-1.3l-.8-2h-4.1l-.8 2h-1.2z"/><path id="Fill-11" class="st0" d="M102.7 13.9V6.2h-2.2v-1h5.6v1h-2.3v7.7h-1.1"/><path id="Fill-12" class="st0" d="M112.6 13.9V6.2h-2.2v-1h5.5v1h-2.2v7.7h-1.1"/><path id="Fill-13" class="st0" d="M121.7 10.8h3.3l-1.4-3.5c0-.1-.1-.2-.1-.3 0-.1-.1-.3-.2-.5-.1.2-.1.4-.2.5 0 .1-.1.2-.1.3l-1.3 3.5zm-2.3 3.1l3.6-8.7h.9l3.7 8.7h-1.3l-.8-2h-4.1l-.8 2h-1.2z"/><path id="Fill-14" class="st0" d="M132.7 13.9V5.2h1.1l4.2 6c.1.2.2.3.3.5l.3.6c-.1-.3-.1-.5-.2-.7 0-.2-.1-.4-.1-.6V5.2h1.1v8.7h-.9l-4.4-6.3c-.2-.2-.3-.4-.4-.6-.1-.1-.1-.3-.2-.4.1.3.1.6.1.8v6.4h-.9"/><path id="Fill-15" class="st0" d="M149.6 13c.5 0 .9-.1 1.3-.2.4-.2.7-.4 1-.7.3-.3.6-.7.7-1.2.2-.4.3-.9.3-1.4 0-.5-.1-1-.3-1.4-.2-.4-.4-.8-.8-1.2-.3-.3-.7-.5-1-.7-.3-.1-.8-.2-1.2-.2-.5 0-.9.1-1.3.2-.4.2-.7.4-1 .7-.3.3-.6.7-.7 1.1-.2.4-.3.9-.3 1.4 0 .5.1 1 .3 1.4.2.4.4.8.7 1.2.3.3.6.5 1 .7.4.3.8.3 1.3.3zm0 1.1c-.6 0-1.2-.1-1.7-.3-.5-.2-1-.5-1.4-.9-.4-.4-.8-.9-1-1.5-.2-.6-.3-1.2-.3-1.8 0-.7.1-1.3.3-1.8.2-.6.6-1.1 1-1.5.4-.4.9-.7 1.4-.9.5-.2 1.1-.3 1.7-.3.6 0 1.2.1 1.7.3.5.2 1 .5 1.4.9.4.4.8.9 1 1.5.2.6.3 1.2.3 1.8 0 .7-.1 1.3-.3 1.8-.2.6-.6 1.1-1 1.5-.4.4-.9.7-1.4.9-.5.2-1.1.3-1.7.3z"/><path id="Fill-16" class="st0" d="M163.8 13c.5 0 .9-.1 1.3-.2.4-.2.7-.4 1-.7.3-.3.6-.7.7-1.2.2-.4.3-.9.3-1.4 0-.5-.1-1-.3-1.4-.2-.4-.4-.8-.8-1.2-.3-.3-.7-.5-1-.7-.4-.2-.8-.2-1.3-.2s-.9.1-1.3.2c-.4.2-.7.4-1 .7-.3.3-.6.7-.7 1.1-.2.4-.3.9-.3 1.4 0 .5.1 1 .3 1.4.2.4.4.8.7 1.2.3.3.6.5 1 .7.5.3.9.3 1.4.3zm0 1.1c-.6 0-1.2-.1-1.7-.3-.5-.2-1-.5-1.4-.9-.4-.4-.8-.9-1-1.5-.2-.6-.3-1.2-.3-1.8 0-.7.1-1.3.3-1.8.2-.6.6-1.1 1-1.5.4-.4.9-.7 1.4-.9.5-.2 1.1-.3 1.7-.3.6 0 1.2.1 1.7.3.5.2 1 .5 1.4.9.4.4.8.9 1 1.5.2.6.3 1.2.3 1.8 0 .7-.1 1.3-.3 1.8-.2.6-.6 1.1-1 1.5-.4.4-.9.7-1.4.9-.5.2-1 .3-1.7.3z"/><path id="Fill-17" class="st0" d="M180.4 7c-.3-.3-.6-.5-1-.7-.5-.2-.9-.3-1.4-.3-.5 0-.9.1-1.3.2-.4.2-.7.4-1 .7-.3.3-.6.7-.7 1.2-.2.4-.3.9-.3 1.4 0 .5.1 1 .3 1.4.2.4.4.8.7 1.2.3.3.6.5 1 .7.4.2.8.2 1.3.2.9 0 1.6-.3 2.2-.8.6-.5 1-1.2 1.1-2.2h-3.1V9h4.3v.2c0 .5 0 1-.1 1.4s-.2.8-.4 1.2c-.4.7-.9 1.3-1.6 1.6-.7.4-1.4.6-2.3.6-.6 0-1.2-.1-1.7-.3-.5-.2-1-.5-1.4-.9-.4-.4-.8-.9-1-1.5-.2-.6-.3-1.2-.3-1.8 0-.7.1-1.3.3-1.8.2-.6.6-1.1 1-1.5.4-.4.9-.7 1.4-.9.5-.2 1.1-.3 1.8-.3.6 0 1.2.1 1.7.3.5.2 1 .5 1.4.9l-.9.8"/><path id="Fill-18" class="st0" d="M189.6 10.8h3.3l-1.4-3.5c0-.1-.1-.2-.1-.3 0-.1-.1-.3-.2-.5-.1.2-.1.4-.2.5 0 .1-.1.2-.1.3l-1.3 3.5zm-2.4 3.1l3.6-8.7h.9l3.7 8.7H194l-.8-2h-4.1l-.8 2h-1.1z"/><path id="Fill-19" class="st0" d="M209.2 10.8h3.3l-1.4-3.5c0-.1-.1-.2-.1-.3 0-.1-.1-.3-.2-.5-.1.2-.1.4-.2.5 0 .1-.1.2-.1.3l-1.3 3.5zm-2.4 3.1l3.6-8.7h.9l3.7 8.7h-1.3l-.8-2h-4.1l-.8 2h-1.2z"/><path id="Fill-20" class="st0" d="M221.3 9.7h.8c.7 0 1.2-.2 1.6-.5.4-.3.6-.7.6-1.3 0-.5-.2-1-.6-1.2-.4-.3-.9-.4-1.7-.4h-.8v3.4h.1zm-1.2 4.2V5.2h2c1 0 1.9.2 2.4.7.6.5.9 1.1.9 1.9 0 .8-.2 1.4-.7 1.9-.5.5-1.1.8-1.9.8h-.1l3.1 3.4h-1.4l-3.1-3.5v3.5h-1.2z"/><path id="Fill-21" class="st0" d="M231.3 13.9V5.2h4.5v1h-3.4v2.7h3.4v1h-3.4v3h3.4v1h-4.5"/><path id="Fill-22" class="st0" d="M243.3 10.8h3.3l-1.4-3.5c0-.1-.1-.2-.1-.3 0-.1-.1-.3-.2-.5-.1.2-.1.4-.2.5 0 .1-.1.2-.1.3l-1.3 3.5zm-2.4 3.1l3.6-8.7h.9l3.7 8.7h-1.3l-.8-2h-4.1l-.8 2h-1.2z"/><path id="Fill-23" class="st0" d="M27.8 34.3c-4 2-8.6 1-10.3-2.4-1.7-3.4.1-7.8 4-9.8l15.5-8 6.3 12.2-15.5 8"/><g id="Group-27"><defs><filter id="Adobe_OpacityMaskFilter" filterUnits="userSpaceOnUse" x="29.9" y=".2" width="21.1" height="40.7"><feColorMatrix values="1 0 0 0 0 0 1 0 0 0 0 0 1 0 0 0 0 0 1 0"/></filter></defs><mask maskUnits="userSpaceOnUse" x="29.9" y=".2" width="21.1" height="40.7" id="mask-2_1_"><g filter="url(#Adobe_OpacityMaskFilter)"><path id="path-1_1_" class="st2" d="M51 53H0V.2h51z"/></g></mask><path id="Fill-24" mask="url(#mask-2_1_)" fill-rule="evenodd" clip-rule="evenodd" d="M40.4 20.5L29.9.2 51 15l-.1 25.8-10.5-20.3"/><defs><filter id="Adobe_OpacityMaskFilter_1_" filterUnits="userSpaceOnUse" x="0" y="2.2" width="45.4" height="50.8"><feColorMatrix values="1 0 0 0 0 0 1 0 0 0 0 0 1 0 0 0 0 0 1 0"/></filter></defs><mask maskUnits="userSpaceOnUse" x="0" y="2.2" width="45.4" height="50.8" id="mask-2_2_"><g filter="url(#Adobe_OpacityMaskFilter_1_)"><path id="path-1_2_" class="st2" d="M51 53H0V.2h51z"/></g></mask><path id="Fill-26" d="M24.2 53C15.5 53 7 48.2 2.7 39.9c-3-5.7-3.5-12.3-1.5-18.4 2-6.1 6.2-11.2 11.9-14.1l10-5.1 4.1 7.9-10 5.1c-3.6 1.9-6.3 5-7.5 8.9s-.9 8 1 11.6c3.9 7.5 13.1 10.4 20.5 6.5l10.1-5.2 4.1 7.9-10.1 5.2c-3.6 1.9-7.4 2.8-11.1 2.8" mask="url(#mask-2_2_)" fill-rule="evenodd" clip-rule="evenodd"/></g></g></g></g></svg>