<?xml version="1.0" encoding="UTF-8"?>
<svg width="973px" height="232px" viewBox="0 0 973 232" version="1.1" xmlns="http://www.w3.org/2000/svg" xmlns:xlink="http://www.w3.org/1999/xlink">
    <!-- Generator: Sketch 63.1 (92452) - https://sketch.com -->
    <title>Group 5</title>
    <desc>Created with Sketch.</desc>
    <g id="Home-Page" stroke="none" stroke-width="1" fill="none" fill-rule="evenodd" opacity="0.5">
        <g id="Desktop" transform="translate(-233.000000, -7111.000000)" fill="#000000" fill-rule="nonzero">
            <g id="Client-Bar-Copy-3" transform="translate(0.000000, 6914.000000)">
                <g id="Group-5" transform="translate(233.000000, 197.000000)">
                    <g id="Group-4" transform="translate(-0.000000, 0.000000)">
                        <path d="M652.549816,22 C657.058519,22 660,25.1797691 660,30.0008796 C660,34.8202309 657.058519,38 652.549816,38 C647.941481,38 645,34.8202309 645,30.0008796 C645,25.1797691 647.941481,22 652.549816,22 Z M635.706192,22 C639.300446,22 642.588057,23.8462384 642.897785,27.7432176 L642.897785,27.7432176 L638.788051,27.7432176 C638.58186,26.1032407 637.451331,25.1801215 635.706192,25.1801215 C633.034512,25.1801215 632.21283,27.8465683 632.21283,30.1018114 C632.21283,32.2563426 633.034512,34.8203183 635.602215,34.8203183 C637.555308,34.8203183 638.684074,33.5897859 638.992921,31.7439872 L638.992921,31.7439872 L643,31.7439872 C642.486724,35.7438773 639.608412,38 635.706192,38 C631.08186,38 628,34.7178472 628,30.2060416 C628,25.4875347 630.774335,22 635.706192,22 Z M624.966908,32.2392083 C626.475215,32.2392083 627.658138,33.307125 627.658138,34.570875 C627.658138,35.9300417 626.475215,37.0000417 624.966908,37.0000417 C623.461369,37.0000417 622.276138,35.9300417 622.276138,34.570875 C622.276138,33.307125 623.461369,32.2392083 624.966908,32.2392083 Z M574.495424,6.09131718 L574.495,10.051 L570.580138,10.0519794 C562.99656,10.0519794 559,16.129034 559,21.9934764 C559,27.7504694 562.791789,33.9349733 570.888174,33.9349733 L580.008417,33.9349733 C580.519907,33.9349733 581.032275,33.7209893 581.441818,33.2953074 C581.85224,32.8696255 582.05789,32.3378661 582.05789,31.8038205 L582.05789,12.2910387 C582.05789,11.7574503 582.263101,11.3313112 582.569819,11.2256909 C582.979362,11.1177844 583.286959,11.3313112 583.594556,11.6504583 C586.053132,15.9155073 596.300058,32.8696255 596.402884,33.0831523 C596.812866,33.8288958 597.632392,34.1485001 598.351729,33.9349733 C598.862779,33.7209893 599.476654,33.0831523 599.476654,31.9098981 L599.476654,12.2910387 C599.476654,11.7574503 599.682744,11.3313112 600.092287,11.2256909 C600.399444,11.1177844 600.70748,11.3313112 601.015956,11.6504583 C603.474972,15.9155073 613.720579,32.8696255 613.824723,33.0831523 C614.334894,33.8288958 615.052913,34.1485001 615.771371,33.9349733 C616.385246,33.7209893 617,33.0831523 617,31.9098981 L617,6.091 L620,6.09131718 L620,31.3469128 C620,37.8647535 612.397072,38.8831524 609.255514,33.6885317 L602.669931,22.7922741 L602.669931,31.3469128 C602.771188,37.8647535 595.169129,38.8831524 592.028005,33.6885317 L585.440685,22.7922741 L585.440685,30.5328923 C585.440685,34.5047356 583.110047,36.6428494 579.563897,36.6428494 L571.151787,36.6428494 C549.768417,36.6428494 549.566773,6.09131718 570.847148,6.09131718 L574.495424,6.09131718 Z M679.199019,21.2678919 C682.577585,21.2678919 684.901962,22.7818378 684.901962,26.6136216 L684.901962,26.6136216 L684.901962,36.5963243 L680.677509,36.5963243 L680.677509,28.1254054 C680.677509,26.108973 680.465585,24.4955676 678.037509,24.4955676 C675.608528,24.4955676 675.186038,26.4121081 675.186038,28.3269189 L675.186038,28.3269189 L675.186038,36.5963243 L670.857434,36.5963243 L670.857384,27.647064 C670.8467,26.0887981 670.668252,24.4955676 668.321585,24.4955676 C667.477509,24.4955676 665.365962,24.9997838 665.365962,27.9238919 L665.365962,27.9238919 L665.365962,36.5963243 L661.247472,36.5963243 L661.247472,21.6717838 L665.154038,21.6717838 L665.154038,23.6890811 L665.26,23.6890811 C666.316,22.176 668.005962,21.2678919 670.011547,21.2678919 C671.912981,21.2678919 673.707547,21.9744865 674.552528,23.7898378 C675.397057,22.4778378 677.087019,21.2678919 679.199019,21.2678919 Z M652.549816,25.1797691 C649.803817,25.1797691 649.020207,27.5388675 649.020207,30.0008796 C649.020207,32.4611325 649.803817,34.8202309 652.549816,34.8202309 C655.196603,34.8202309 656.079006,32.4611325 656.079006,30.0008796 C656.079006,27.5388675 655.196603,25.1797691 652.549816,25.1797691 Z M605.102694,9.85965537 C609.054305,16.5810012 611.283251,20.5532812 611.283251,20.5532812 L611.283251,6.09131718 L615.976,6.091 L615.976582,31.9098981 C615.976582,32.442572 615.771371,32.8696255 615.463774,32.9761603 C615.155738,32.9761603 614.848581,32.8696255 614.643809,32.5504784 C614.540105,32.3378661 604.396004,15.3819189 601.834163,11.1177844 C601.322234,10.3706693 600.502269,10.0519794 599.78469,10.2659634 C598.966043,10.4781185 598.555182,11.3313112 598.555182,12.2910387 L598.555182,31.9098981 C598.555182,32.442572 598.351729,32.8696255 598.042374,32.9761603 C597.735656,32.9761603 597.42762,32.8696255 597.222849,32.5504784 C597.121342,32.3378661 586.872219,15.3819189 584.414521,11.1177844 C583.901713,10.3706693 583.081748,10.0519794 582.364169,10.2659634 C581.545083,10.4781185 581.032275,11.3313112 581.032275,12.2910387 L581.032275,31.8038205 C581.032275,32.3378661 580.622732,32.8696255 580.008417,32.8696255 L570.888174,32.8696255 C563.407422,32.8696255 560.025615,27.2191672 560.025615,21.9934764 C560.025615,16.5565448 563.612193,11.1177844 570.580138,11.1177844 L574.495,11.117 L574.495424,14.7477084 L570.442122,14.7477084 C561.624986,14.7477084 560.713243,27.9868949 571.050096,27.9868949 L575.813062,27.9868949 C576.320213,27.9868949 576.724805,27.4772587 576.724805,26.9684959 L576.724805,11.6916381 C576.724805,5.98912792 584.021356,3.2400621 587.873882,9.85965537 C591.826362,16.5810012 594.054439,20.5532812 594.054439,20.5532812 L594.054439,11.6916381 C594.054439,5.98912792 601.250602,3.2400621 605.102694,9.85965537 Z" id="CNN"></path>
                        <path d="M404.420087,6.08905456 C405.653196,9.30741601 406.479665,11.4497201 407.710576,14.7586077 C409.032927,11.5781513 409.982487,9.43094187 411.361107,6.09039239 L411.361107,6.09039239 L416.922189,6.09039239 C414.688524,11.4969899 412.493546,16.4313351 410.34121,21.6024754 C412.501898,27.1085179 414.851181,33.1742173 417,39 C415.227927,38.7440294 412.927002,38.4086813 411.153171,38.1750078 C409.881376,34.5936498 408.72388,31.9130941 407.449008,28.4423296 C406.173256,31.6999339 405.013562,34.1414649 403.73781,37.3143403 C401.960902,37.1127746 400.120689,36.8518987 398.341583,36.6739679 C400.489523,31.7489875 402.677908,26.648752 404.826727,21.5141789 C402.758796,16.1691214 400.894845,11.1219529 398.858566,6.08905456 L398.858566,6.08905456 Z M297.88786,6 C300.082894,13.1692357 302.272216,17.683889 304.45978,24.5035574 C304.469007,17.5153159 304.479551,12.9882415 304.488778,6 L304.488778,6 L309.579621,6 C309.561608,16.2195213 309.544033,26.438599 309.527338,36.6581202 C307.747937,36.8404453 305.796747,37.0928613 304.019983,37.2973671 C301.752894,30.8920336 300.355735,26.9154833 298.082056,20.1756654 C298.077663,27.0241686 298.073709,31.2336159 298.068436,38.0803447 C296.416449,38.2990461 294.650229,38.5257325 293,38.7630657 L293,38.7630657 L293,6 Z M329.811856,6 C329.810145,7.4633166 329.845649,9.56617308 329.843603,11.0299304 C328.705238,11.0405086 327.587498,11.0413901 326.472324,11.0413901 L326.472324,11.0413901 L325.069268,11.0413901 C323.733797,11.0413901 322.396188,11.0435939 321.030775,11.0603427 C321.024786,13.7520519 321.019225,15.2281505 321.015803,17.9194189 C323.18498,17.8771062 325.514995,17.8726986 327.720104,17.8321488 C327.717965,19.3042806 327.715398,21.4155115 327.711976,22.886321 C325.486335,22.9251077 323.18498,22.8916101 321.006392,22.9303968 C321.000831,25.622106 320.996126,27.8474932 320.990993,30.5392024 C323.97206,30.3329276 326.83421,30.1350273 329.8264,29.9450606 C329.822978,31.4088179 329.820839,33.5125559 329.818272,34.9763133 C325.217701,35.250024 320.620124,35.6017489 316.027252,36.0328102 C316.045646,26.0218735 316.064039,16.010496 316.082433,6 L316.082433,6 Z M375.488453,6 C375.500762,14.3781506 375.457239,21.9767698 375.469548,30.3544672 C378.335079,30.4772887 381.316672,30.6853149 384.179125,30.8593498 C384.182642,32.3644801 384.184401,34.5285864 384.187918,36.0328102 C379.66453,35.7101204 374.903301,35.5229422 370.373318,35.3484541 C370.362327,25.5648807 370.40717,15.782667 370.394421,6 L370.394421,6 Z M394.311198,6 C394.328258,16.0112316 394.315959,26.0290972 394.310404,36.0328102 C392.813865,35.8850919 391.264955,35.7457768 389.766433,35.6166338 L389.766433,35.6166338 L389.714459,6 Z M349.186495,6 C349.186495,7.13410711 349.185653,8.70027722 349.184843,10.0264123 L349.184177,11.0886397 C347.332207,11.0931374 345.41764,11.0985346 343.565671,11.105281 C343.557789,19.2959491 343.55037,26.77329 343.542487,34.9626088 C341.787892,35.0053364 339.911348,35.0593082 338.159071,35.1227251 C338.169736,26.8866308 338.181328,19.3643133 338.191993,11.1295683 C338.007445,11.1295683 337.822898,11.1304679 337.63835,11.1304679 C336.91917,11.1304679 336.199063,11.1246209 335.479883,11.1165252 C334.76024,11.1102284 334.040133,11.1039317 333.320025,11.1039317 L333.320025,11.1039317 L332.606873,11.105281 C332.610119,9.62240626 332.612438,7.48422407 332.614756,6 L332.614756,6 Z M366.682922,6 C366.684207,7.43314723 366.68635,9.60419597 366.687206,11.0373432 C365.340106,11.0307469 364.005431,11.0298674 362.671613,11.0298674 C362.124032,11.0298674 361.576451,11.0298674 361.029726,11.0307469 L361.029726,11.0307469 L358.591963,11.030637 L358.591963,11.030637 L357.783231,11.0298674 C357.783552,12.9533366 357.784356,14.2485121 357.785099,15.8582054 L357.785802,17.607657 C358.03774,17.6085365 358.291821,17.6085365 358.547616,17.6085365 C359.216025,17.6085365 359.896431,17.6054583 360.579407,17.6032595 C361.263241,17.6010607 361.950074,17.598862 362.629623,17.598862 C363.264183,17.598862 363.891458,17.6001812 364.507166,17.607657 C364.508023,19.0372862 364.510165,21.1643599 364.511022,22.5953084 C363.859752,22.5860736 363.193485,22.5829954 362.522077,22.5829954 C361.869094,22.5829954 361.211825,22.5860736 360.556699,22.5882724 C359.902001,22.5913506 359.248589,22.5944289 358.606745,22.5944289 C358.331669,22.5944289 358.058307,22.5931096 357.787087,22.5922301 C357.787944,26.5825271 357.788801,30.2236622 357.790086,34.2126399 C356.703065,34.2042846 355.590336,34.1998871 354.485748,34.1998871 C353.944594,34.1998871 353.403868,34.2012064 352.870855,34.2029654 L352.870855,34.2029654 L352.874711,6 Z" id="Netflix"></path>
                        <path d="M17.1284235,31.288522 C25.7204235,36.1606561 36.3458353,39.0947125 47.3206588,39.0947125 C54.7239529,39.0947125 62.8623059,37.5977637 70.3500706,34.5029841 C71.4797176,34.0359471 72.4263059,35.2279577 71.3208941,36.0230899 C64.6416,40.8262116 54.9576,43.3810441 46.6192471,43.3810441 C34.9321882,43.3810441 24.4084235,39.1715203 16.4439529,32.1641305 C15.8187765,31.6140952 16.3766588,30.862067 17.1284235,31.288522 Z M76.7753665,30.8201322 C77.4811919,31.7058348 76.5909332,37.8393543 73.1441789,40.7664235 C72.6144138,41.2167418 72.1102205,40.9766486 72.3451184,40.3815851 C73.1204175,38.4158077 74.8565805,34.0137163 74.0344376,32.945359 C73.212521,31.8770017 68.6025919,32.4387509 66.5319595,32.6905615 C65.9046597,32.76684 65.8073513,32.2110644 66.3730978,31.807616 C70.0499978,29.1852009 76.0754249,29.9427007 76.7753665,30.8201322 Z M88.9344626,8 C94.1692954,8 97,12.6933728 97,18.6588972 C97,24.4257088 93.8730941,29 88.9344626,29 C83.798519,29 81,24.3066272 81,18.4601844 C81,12.5738041 83.8314043,8 88.9344626,8 Z M144.792169,8 C149.608151,8 152,13.1410929 152,18.4405521 C152,24.0565017 149.349641,29 144.372004,29 L144.244466,28.9983049 L144.110289,29 C139.19768,29 137,23.7000565 137,18.4010816 C137,12.8248446 139.585788,8 144.530682,8 L144.657991,8.00121075 L144.792169,8 Z M54.5499068,8 C56.2795479,8 58.5418386,8.47723959 59.9057977,9.82949943 C61.571831,11.4382076 61.4791436,13.563141 61.4699925,15.8846852 L61.4694121,21.8783412 C61.4694121,23.6004374 62.1617389,24.3556618 62.8119711,25.2838976 C63.0386705,25.6180139 63.0899366,26.0155516 62.7999777,26.2595173 C62.0735519,26.8888709 60.7831996,28.0474648 60.0727651,28.7001458 L60.0645343,28.692127 C59.8288986,28.9103353 59.4897902,28.924915 59.2242885,28.7776608 C58.0432881,27.7634052 57.8318744,27.2944273 57.1861104,26.3287705 C55.2337676,28.383525 53.8512305,29 51.3229678,29 C48.3290777,29 46,27.0907986 46,23.2726389 C46,20.2898915 47.5638496,18.2616232 49.7925117,17.2670501 C51.7218082,16.3920298 54.4168032,16.2331119 56.4794385,15.9942491 L56.4794385,15.5170096 C56.4794385,14.6422323 56.5459903,13.6078082 56.0469694,12.8523408 C55.6142651,12.1760894 54.7827205,11.8978617 54.0508859,11.8978617 C52.6944521,11.8978617 51.4887594,12.615908 51.192451,14.1042443 C51.1310728,14.4354447 50.8970833,14.7630002 50.5746716,14.7797667 L47.127853,14.3941358 C46.8369535,14.3265835 46.5136011,14.0855338 46.59732,13.6262757 C47.3895921,9.30536206 51.1656422,8 54.5499068,8 Z M8.54971557,8 C10.2796484,8 12.5417778,8.47723959 13.9060165,9.82949943 C15.6359494,11.500081 15.469682,13.7273611 15.469682,16.15341 L15.469682,21.8783412 C15.469682,23.6004374 16.1617963,24.3556618 16.8118145,25.2838976 C17.0387565,25.6180139 17.089789,26.0155516 16.800291,26.2595173 C16.0738416,26.8888709 14.7829768,28.0474648 14.0729894,28.7001458 L14.0647583,28.692127 C13.829115,28.9103353 13.4897603,28.924915 13.2244851,28.7776608 C12.0429758,27.7634052 11.8315552,27.2944273 11.1860053,26.3287705 C9.23383392,28.383525 7.85125167,29 5.3229064,29 C2.32868336,29 0,27.0907986 0,23.2726389 C0,20.2898915 1.56366549,18.2616232 3.79240031,17.2670501 C5.72175986,16.3920298 8.41684281,16.2331119 10.4790751,15.9942491 L10.4790751,15.5170096 C10.4790751,14.6422323 10.5456291,13.6078082 10.0470623,12.8523408 C9.61434389,12.1760894 8.78253687,11.8978617 8.05091357,11.8978617 C6.69443552,11.8978617 5.48823304,12.615908 5.19238537,14.1042443 C5.13077003,14.4354447 4.89724321,14.7630002 4.57458581,14.7797667 L1.12765469,14.3941358 C0.836745647,14.3265835 0.512912382,14.0855338 0.597104328,13.6262757 C1.3891671,9.30536206 5.16534047,8 8.54971557,8 Z M128.476285,8 C131.956544,8 134.440325,10.7602712 134.979388,14.8843329 C134.979388,15.193801 134.700562,15.4616192 134.373266,15.5006054 L132.802197,15.4819598 C132.476077,15.4337719 132.260075,15.1419808 132.211134,14.8179837 C131.832543,12.5156187 130.547593,10.6847203 128.406873,10.6125595 C124.996497,10.7246751 124.026138,15.0436678 124.026138,18.3616111 C124.026138,21.5638066 124.83579,26.23198 128.245931,26.34797 C130.512299,26.2748406 131.701954,24.4056825 132.196075,21.9824845 C132.292075,21.680523 132.517724,21.4478166 132.848079,21.4478166 L134.347383,21.4412786 C134.700562,21.4604084 135.02527,21.7388813 134.998446,22.0778917 C134.306442,26.1995318 131.888543,29 128.443109,29 L128.304284,28.9983049 L128.174166,29 C123.159073,29 121,23.8191944 121,18.5594479 C121,13.3389297 123.192015,8 128.207342,8 L128.339578,8.0014529 L128.476285,8 Z M171.948809,8 C173.676191,8 175.338122,9.11320045 176.202402,10.8025103 C177.033014,12.4144885 177,14.5642629 177,16.3687476 L176.999112,27.3446785 C177,27.694434 176.717532,27.976965 176.360143,28 L174.796153,28 C174.459246,27.9896578 174.183317,27.7487307 174.138349,27.4337627 L174.138349,16.3687476 C174.138349,15.0632757 174.204506,13.6814122 173.672895,12.4913501 C173.129513,11.273082 172.094543,10.5162185 170.98188,10.4602764 C169.738552,10.5218597 168.598108,11.4225743 167.860727,12.6448383 C166.953557,14.1261559 166.930225,15.4715117 166.930619,17.1610159 L166.930761,27.439874 C166.8865,27.7423844 166.623049,27.9786104 166.297208,28 L164.741222,28 C164.371825,27.9889526 164.076355,27.7014855 164.076355,27.3439733 L164.069057,15.6391501 C164.069057,14.5642629 164.0029,13.2973392 163.50425,12.3376269 C162.930025,11.2333584 161.898587,10.5173938 160.817944,10.4605115 C159.697041,10.523035 158.562953,11.3783847 157.890788,12.3761753 C157.02698,13.6430989 156.860527,15.2169989 156.860527,16.8294472 L156.859821,27.3446785 C156.859821,27.694434 156.577535,27.976965 156.220852,28 L154.663925,28 C154.294999,27.9889526 154,27.7014855 154,27.3439733 L154,9.09886235 C154.024956,8.7773129 154.297118,8.52063746 154.637321,8.49877774 L155.943982,8.49830763 C156.303725,8.49830763 156.598724,8.76085935 156.627918,9.09933246 L156.627918,11.759402 C157.557178,9.65146672 159.288562,8 161.47716,8 L161.614418,8.00188041 L161.746261,8 C164.067409,8 165.766303,9.70999436 166.397503,12.194246 C167.381147,9.74149116 169.234722,8 171.679002,8 L171.806136,8.00188041 L171.948809,8 Z M109.131444,8 C110.658348,8 112.154371,8.57943262 113.108968,10.1624113 C114,11.6295508 114,14.1007092 114,15.8768322 L114,27.4219858 C113.961455,27.7475177 113.683529,28 113.346772,28 L109.929609,28 C109.61404,27.978487 109.359556,27.735461 109.322589,27.4219858 L109.322589,17.4598109 C109.322589,15.4520095 109.545291,12.5177305 107.190694,12.5177305 C106.363001,12.5177305 105.599549,13.0966903 105.218387,13.98487 C104.74075,15.1042553 104.676735,16.2241135 104.676735,17.4598109 L104.676735,27.3394799 C104.670649,27.7061466 104.376043,28 104.012913,28 L100.617163,28 C100.275672,27.9770686 100.00541,27.6926714 100.00541,27.3411348 L100,8.98605201 C100.028627,8.65059102 100.311061,8.38723404 100.654806,8.38723404 L103.816583,8.38628842 C104.11412,8.40236407 104.359588,8.61560284 104.422251,8.90023641 L104.422251,11.7068558 L104.486492,11.7068558 C105.440863,9.19716312 106.776848,8 109.131444,8 Z M37.957716,8 C39.4543902,8 41.0839555,8.6179669 42.0820525,10.0080378 C43.2128049,11.5524823 42.9802455,13.7917258 42.9802455,15.7609929 L42.9776537,27.3394799 C42.9776537,27.7061466 42.669695,28 42.2903428,28 L38.7312647,28 C38.3735898,27.9770686 38.0915496,27.6926714 38.0915496,27.3411348 L38.0906071,17.6141844 C38.0906071,16.8420804 38.1572883,14.9115839 37.9907032,14.1775414 C37.724921,12.9423168 36.9268676,12.5947991 35.8960191,12.5947991 C35.0310488,12.5947991 34.1326202,13.1739953 33.766934,14.1007092 C33.4315058,14.9499803 33.4318657,16.3183166 33.4342551,17.3436884 L33.4347063,27.3394799 C33.4347063,27.7061466 33.1267477,28 32.7476311,28 L29.188553,28 C28.8308781,27.9770686 28.5486023,27.6926714 28.5486023,27.3411348 L28.5453036,17.6141844 C28.5453036,15.5678487 28.8780026,12.5562648 26.3502443,12.5562648 C23.7890275,12.5562648 23.8889315,15.4905437 23.8889315,17.6141844 L23.8872821,27.3394799 C23.8877534,27.7061466 23.5797948,28 23.2002069,28 L19.6373589,28 C19.2982981,27.9777778 19.0270966,27.7219858 19,27.3957447 L19.0023562,9.04775414 C19.0023562,8.68061466 19.3100792,8.38723404 19.6899027,8.38723404 L23.0081745,8.38628842 C23.3552465,8.40425532 23.6339879,8.6678487 23.6561365,9.00260047 L23.6561365,11.3978723 L23.7228176,11.3978723 C24.5875522,9.08132388 26.2173532,8 28.4121768,8 C30.6404589,8 32.0374648,9.08132388 33.0355618,11.3978723 C33.8998251,9.08132388 35.862325,8 37.957716,8 Z M118.000269,25 C119.1052,25 120,25.6715468 120,26.5003183 C120,27.328241 119.1052,28 118.000269,28 C116.895875,28 116,27.328241 116,26.5003183 C116,25.6715468 116.895875,25 118.000269,25 Z M78.9768906,9 C79.3494206,9.00023404 79.6483355,9.27078739 79.6492732,9.65555357 L79.6483355,11.8815336 C79.6455221,12.2548317 79.3306651,12.7423426 78.7710496,13.5156196 L72.7350794,22.1192629 C74.9758859,22.0668373 77.3461049,22.4012843 79.3817737,23.5438807 C79.8408132,23.8013277 79.9638958,24.1832854 80,24.5570515 L80,27.3262446 C80,27.7082023 79.5817536,28.1498408 79.142173,27.9200109 C75.5551946,26.0443928 70.7952977,25.8391374 66.829225,27.9427131 C66.4241074,28.1582664 66,27.723181 66,27.3414574 L66,24.7087112 C66,24.2874344 66.0077366,23.5668169 66.4334852,22.9246038 L73.4269208,12.9087469 L67.3379664,12.9075767 C66.9656708,12.9075767 66.6672249,12.6428744 66.6648804,12.2541295 L66.6648804,9.65859612 C66.6662871,9.26376611 66.9642642,9.00023404 67.3238998,9.00117021 L78.9768906,9 Z M144.467028,10.5336185 C142.936575,10.5929454 141.572813,11.6867382 140.881545,13.3784002 C140.267898,14.8417144 140.073729,16.7796432 140.073729,18.4010816 C140.073729,20.2201146 140.299954,22.3161676 141.011143,23.8983776 C141.701496,25.3970458 143.034117,26.3731536 144.472294,26.4266688 C146.088841,26.3707321 147.363532,25.312051 148.118455,23.5421745 C148.796672,21.9604488 148.926042,20.1411736 148.926042,18.4010816 C148.926042,16.5028654 148.732102,14.5254661 147.89223,12.9037856 C147.139368,11.4855113 145.841551,10.5873759 144.467028,10.5336185 Z M56.4794385,18.9376316 C53.9064944,18.9376316 51.1898642,19.5069658 51.1898642,22.6364815 C51.1898642,24.2271181 51.9882506,25.3013932 53.3519744,25.3013932 C54.3502514,25.3013932 55.2483479,24.6652357 55.8141557,23.6308116 C56.4192675,22.5277175 56.4752201,21.4844884 56.4793833,20.2937504 Z M10.4790751,18.9376316 C7.90651733,18.9376316 5.18979847,19.5069658 5.18979847,22.6364815 C5.18979847,24.2271181 5.98821091,25.3013932 7.35197932,25.3013932 C8.35028884,25.3013932 9.24864982,24.6652357 9.81377062,23.6308116 C10.4195136,22.5277175 10.4750197,21.4844884 10.4790525,20.2937504 Z M88.9673479,11.8580971 C86.3661409,11.8580971 86.2016965,15.5566881 86.2016965,17.8633154 L86.2017428,18.1785069 C86.2041286,20.5899572 86.2890738,25.1022091 88.9344626,25.1022091 C91.6672109,25.1022091 91.7987522,21.1247869 91.7987522,18.6988346 C91.7987522,17.1081579 91.7327483,15.1989563 91.2718871,13.6876674 C90.8765634,12.3750913 90.0861491,11.8580971 88.9673479,11.8580971 Z" id="Amazon"></path>
                        <path d="M914.479563,10.5925926 L923.867675,29.4473082 L933.224964,10.5925926 L939.034251,10.5925926 L922.084147,44 L915.944774,44 L920.817043,34.723805 L908.061663,10.5925926 L914.479563,10.5925926 Z M862.367245,0 L862.365288,13.888787 C865.045383,10.6613938 868.737293,9.72203781 872.376363,9.72203781 C878.469343,9.72203781 885.239756,13.8811545 885.239756,22.8560609 C885.239756,30.3754318 879.854124,35.8518519 872.273755,35.8518519 C868.305336,35.8518519 864.567573,34.4127121 862.264917,31.5587433 C862.264917,32.6996524 862.20257,33.8487593 862.079832,34.9342624 L856.712373,34.9342624 C856.805475,33.1796483 856.898576,30.992529 856.898576,29.2223674 L856.898,24.681 L834.741784,24.6816024 C835.046365,29.7630303 838.575692,32.770009 843.429381,32.770009 C846.784662,32.770009 849.777732,31.411834 850.775615,28.45234 L856.593184,28.45234 C855.463038,34.4537111 849.038614,36.4886851 843.510929,36.4886851 C833.454594,36.4886851 829,30.9947702 829,23.5843069 C829,15.4189522 833.605876,10.0517584 843.602851,10.0517584 C850.208903,10.0517584 855.34841,12.9026398 856.89916,19.0360123 L856.898576,0 L862.367245,0 Z M899.194778,9.77777778 C905.665029,9.77777778 911.134134,12.1087364 911.134134,19.0423794 L911.134134,30.3192098 C911.134134,31.9227311 911.182895,33.5048157 911.321936,34.9345869 L906.248218,34.9345869 C906.115308,33.7629022 906.063203,32.5912175 906.063203,31.4570471 C903.323356,34.8719692 900.062178,35.8518519 895.539049,35.8518519 C888.830006,35.8518519 885.239756,32.2592308 885.239756,28.1050247 C885.239756,22.098801 890.123722,19.9731833 898.603509,19.7777145 C900.921497,19.7244048 903.528155,19.7187636 905.685927,19.7187636 L905.685927,19.132075 C905.685927,15.1050788 903.133604,13.4468376 898.717472,13.4468376 C895.433167,13.4468376 893.014032,14.8196323 892.764652,17.1979773 L887.040036,17.1979773 C887.643008,11.2735515 893.794497,9.77777778 899.194778,9.77777778 Z M905.685927,23.3841565 C903.678619,23.3841565 901.205987,23.4010802 898.980227,23.4755446 C894.034126,23.641961 890.965765,24.5414561 890.965765,27.8390405 C890.965765,29.9705814 892.642887,32.2826419 896.912734,32.2826419 C902.633449,32.2826419 905.685927,29.1297552 905.685927,23.9547675 L905.685927,23.3841565 Z M870.928675,13.5049033 C865.875469,13.5049033 862.367245,17.2035292 862.367245,22.7876515 C862.367245,28.3723392 865.875469,32.0687037 870.928675,32.0687037 C876.011238,32.0687037 879.490665,28.3723392 879.490665,22.7876515 C879.490665,17.2035292 876.011238,13.5049033 870.928675,13.5049033 Z M843.364834,13.7687182 C838.978533,13.7687182 835.475716,15.9744652 834.862521,20.966931 L851.457102,20.966931 C851.240121,15.7301768 847.433012,13.7687182 843.364834,13.7687182 Z M942.457178,9.77777778 L942.457178,10.45 L943.094979,10.45 L943.094979,10.7978165 L942.457178,10.7978165 L942.457178,12.2687396 C942.457178,12.5432836 942.522804,12.6892206 942.785564,12.6892206 L943.109591,12.6576009 L943.109591,13.0048093 L942.7043,13.037037 C942.283116,13.037037 942.042915,12.87377 942.042915,12.3070481 L942.042915,10.7978165 L941.479455,10.7978165 L941.479455,10.45 L942.042915,10.45 L942.042915,9.77777778 L942.457178,9.77777778 Z M946.987913,10.5925926 C947.615292,10.5925926 948,10.9207832 948,11.6863741 L948,13.037037 L947.569693,13.037037 L947.569693,11.8576284 C947.569693,11.2874358 947.417172,10.9115186 946.948341,10.9115186 C946.572019,10.9115186 946.18469,11.1880522 946.18469,11.9643114 L946.18469,13.037037 L945.756217,13.037037 L945.756217,11.8284309 C945.756217,11.198159 945.552594,10.9115186 945.160024,10.9115186 C944.782129,10.9115186 944.367808,11.2012472 944.367808,11.8988979 L944.367808,13.037037 L943.942742,13.037037 L943.942742,11.2172496 C943.942742,11.0384152 943.931735,10.8688454 943.92466,10.6799042 L944.32614,10.6799042 L944.340553,11.0982139 L944.349726,11.0982139 C944.603927,10.7382991 944.91683,10.5925926 945.276642,10.5925926 C945.649296,10.5925926 945.954337,10.7871487 946.079603,11.1821565 C946.235792,10.8629498 946.580667,10.5925926 946.987913,10.5925926 Z" id="Ebay"></path>
                    </g>
                    <g id="Group-4" transform="translate(33.000000, 94.000000)">
                        <path d="M885.549816,22 C890.058519,22 893,25.1797691 893,30.0008796 C893,34.8202309 890.058519,38 885.549816,38 C880.941481,38 878,34.8202309 878,30.0008796 C878,25.1797691 880.941481,22 885.549816,22 Z M868.706192,22 C872.300446,22 875.588057,23.8462384 875.897785,27.7432176 L875.897785,27.7432176 L871.788051,27.7432176 C871.58186,26.1032407 870.451331,25.1801215 868.706192,25.1801215 C866.034512,25.1801215 865.21283,27.8465683 865.21283,30.1018114 C865.21283,32.2563426 866.034512,34.8203183 868.602215,34.8203183 C870.555308,34.8203183 871.684074,33.5897859 871.992921,31.7439872 L871.992921,31.7439872 L876,31.7439872 C875.486724,35.7438773 872.608412,38 868.706192,38 C864.08186,38 861,34.7178472 861,30.2060416 C861,25.4875347 863.774335,22 868.706192,22 Z M857.966908,32.2392083 C859.475215,32.2392083 860.658138,33.307125 860.658138,34.570875 C860.658138,35.9300417 859.475215,37.0000417 857.966908,37.0000417 C856.461369,37.0000417 855.276138,35.9300417 855.276138,34.570875 C855.276138,33.307125 856.461369,32.2392083 857.966908,32.2392083 Z M807.495424,6.09131718 L807.495,10.051 L803.580138,10.0519794 C795.99656,10.0519794 792,16.129034 792,21.9934764 C792,27.7504694 795.791789,33.9349733 803.888174,33.9349733 L813.008417,33.9349733 C813.519907,33.9349733 814.032275,33.7209893 814.441818,33.2953074 C814.85224,32.8696255 815.05789,32.3378661 815.05789,31.8038205 L815.05789,12.2910387 C815.05789,11.7574503 815.263101,11.3313112 815.569819,11.2256909 C815.979362,11.1177844 816.286959,11.3313112 816.594556,11.6504583 C819.053132,15.9155073 829.300058,32.8696255 829.402884,33.0831523 C829.812866,33.8288958 830.632392,34.1485001 831.351729,33.9349733 C831.862779,33.7209893 832.476654,33.0831523 832.476654,31.9098981 L832.476654,12.2910387 C832.476654,11.7574503 832.682744,11.3313112 833.092287,11.2256909 C833.399444,11.1177844 833.70748,11.3313112 834.015956,11.6504583 C836.474972,15.9155073 846.720579,32.8696255 846.824723,33.0831523 C847.334894,33.8288958 848.052913,34.1485001 848.771371,33.9349733 C849.385246,33.7209893 850,33.0831523 850,31.9098981 L850,6.091 L853,6.09131718 L853,31.3469128 C853,37.8647535 845.397072,38.8831524 842.255514,33.6885317 L835.669931,22.7922741 L835.669931,31.3469128 C835.771188,37.8647535 828.169129,38.8831524 825.028005,33.6885317 L818.440685,22.7922741 L818.440685,30.5328923 C818.440685,34.5047356 816.110047,36.6428494 812.563897,36.6428494 L804.151787,36.6428494 C782.768417,36.6428494 782.566773,6.09131718 803.847148,6.09131718 L807.495424,6.09131718 Z M912.199019,21.2678919 C915.577585,21.2678919 917.901962,22.7818378 917.901962,26.6136216 L917.901962,26.6136216 L917.901962,36.5963243 L913.677509,36.5963243 L913.677509,28.1254054 C913.677509,26.108973 913.465585,24.4955676 911.037509,24.4955676 C908.608528,24.4955676 908.186038,26.4121081 908.186038,28.3269189 L908.186038,28.3269189 L908.186038,36.5963243 L903.857434,36.5963243 L903.857384,27.647064 C903.8467,26.0887981 903.668252,24.4955676 901.321585,24.4955676 C900.477509,24.4955676 898.365962,24.9997838 898.365962,27.9238919 L898.365962,27.9238919 L898.365962,36.5963243 L894.247472,36.5963243 L894.247472,21.6717838 L898.154038,21.6717838 L898.154038,23.6890811 L898.26,23.6890811 C899.316,22.176 901.005962,21.2678919 903.011547,21.2678919 C904.912981,21.2678919 906.707547,21.9744865 907.552528,23.7898378 C908.397057,22.4778378 910.087019,21.2678919 912.199019,21.2678919 Z M885.549816,25.1797691 C882.803817,25.1797691 882.020207,27.5388675 882.020207,30.0008796 C882.020207,32.4611325 882.803817,34.8202309 885.549816,34.8202309 C888.196603,34.8202309 889.079006,32.4611325 889.079006,30.0008796 C889.079006,27.5388675 888.196603,25.1797691 885.549816,25.1797691 Z M838.102694,9.85965537 C842.054305,16.5810012 844.283251,20.5532812 844.283251,20.5532812 L844.283251,6.09131718 L848.976,6.091 L848.976582,31.9098981 C848.976582,32.442572 848.771371,32.8696255 848.463774,32.9761603 C848.155738,32.9761603 847.848581,32.8696255 847.643809,32.5504784 C847.540105,32.3378661 837.396004,15.3819189 834.834163,11.1177844 C834.322234,10.3706693 833.502269,10.0519794 832.78469,10.2659634 C831.966043,10.4781185 831.555182,11.3313112 831.555182,12.2910387 L831.555182,31.9098981 C831.555182,32.442572 831.351729,32.8696255 831.042374,32.9761603 C830.735656,32.9761603 830.42762,32.8696255 830.222849,32.5504784 C830.121342,32.3378661 819.872219,15.3819189 817.414521,11.1177844 C816.901713,10.3706693 816.081748,10.0519794 815.364169,10.2659634 C814.545083,10.4781185 814.032275,11.3313112 814.032275,12.2910387 L814.032275,31.8038205 C814.032275,32.3378661 813.622732,32.8696255 813.008417,32.8696255 L803.888174,32.8696255 C796.407422,32.8696255 793.025615,27.2191672 793.025615,21.9934764 C793.025615,16.5565448 796.612193,11.1177844 803.580138,11.1177844 L807.495,11.117 L807.495424,14.7477084 L803.442122,14.7477084 C794.624986,14.7477084 793.713243,27.9868949 804.050096,27.9868949 L808.813062,27.9868949 C809.320213,27.9868949 809.724805,27.4772587 809.724805,26.9684959 L809.724805,11.6916381 C809.724805,5.98912792 817.021356,3.2400621 820.873882,9.85965537 C824.826362,16.5810012 827.054439,20.5532812 827.054439,20.5532812 L827.054439,11.6916381 C827.054439,5.98912792 834.250602,3.2400621 838.102694,9.85965537 Z" id="CNN"></path>
                        <path d="M636.420087,6.08905456 C637.653196,9.30741601 638.479665,11.4497201 639.710576,14.7586077 C641.032927,11.5781513 641.982487,9.43094187 643.361107,6.09039239 L643.361107,6.09039239 L648.922189,6.09039239 C646.688524,11.4969899 644.493546,16.4313351 642.34121,21.6024754 C644.501898,27.1085179 646.851181,33.1742173 649,39 C647.227927,38.7440294 644.927002,38.4086813 643.153171,38.1750078 C641.881376,34.5936498 640.72388,31.9130941 639.449008,28.4423296 C638.173256,31.6999339 637.013562,34.1414649 635.73781,37.3143403 C633.960902,37.1127746 632.120689,36.8518987 630.341583,36.6739679 C632.489523,31.7489875 634.677908,26.648752 636.826727,21.5141789 C634.758796,16.1691214 632.894845,11.1219529 630.858566,6.08905456 L630.858566,6.08905456 Z M529.88786,6 C532.082894,13.1692357 534.272216,17.683889 536.45978,24.5035574 C536.469007,17.5153159 536.479551,12.9882415 536.488778,6 L536.488778,6 L541.579621,6 C541.561608,16.2195213 541.544033,26.438599 541.527338,36.6581202 C539.747937,36.8404453 537.796747,37.0928613 536.019983,37.2973671 C533.752894,30.8920336 532.355735,26.9154833 530.082056,20.1756654 C530.077663,27.0241686 530.073709,31.2336159 530.068436,38.0803447 C528.416449,38.2990461 526.650229,38.5257325 525,38.7630657 L525,38.7630657 L525,6 Z M561.811856,6 C561.810145,7.4633166 561.845649,9.56617308 561.843603,11.0299304 C560.705238,11.0405086 559.587498,11.0413901 558.472324,11.0413901 L558.472324,11.0413901 L557.069268,11.0413901 C555.733797,11.0413901 554.396188,11.0435939 553.030775,11.0603427 C553.024786,13.7520519 553.019225,15.2281505 553.015803,17.9194189 C555.18498,17.8771062 557.514995,17.8726986 559.720104,17.8321488 C559.717965,19.3042806 559.715398,21.4155115 559.711976,22.886321 C557.486335,22.9251077 555.18498,22.8916101 553.006392,22.9303968 C553.000831,25.622106 552.996126,27.8474932 552.990993,30.5392024 C555.97206,30.3329276 558.83421,30.1350273 561.8264,29.9450606 C561.822978,31.4088179 561.820839,33.5125559 561.818272,34.9763133 C557.217701,35.250024 552.620124,35.6017489 548.027252,36.0328102 C548.045646,26.0218735 548.064039,16.010496 548.082433,6 L548.082433,6 Z M607.488453,6 C607.500762,14.3781506 607.457239,21.9767698 607.469548,30.3544672 C610.335079,30.4772887 613.316672,30.6853149 616.179125,30.8593498 C616.182642,32.3644801 616.184401,34.5285864 616.187918,36.0328102 C611.66453,35.7101204 606.903301,35.5229422 602.373318,35.3484541 C602.362327,25.5648807 602.40717,15.782667 602.394421,6 L602.394421,6 Z M626.311198,6 C626.328258,16.0112316 626.315959,26.0290972 626.310404,36.0328102 C624.813865,35.8850919 623.264955,35.7457768 621.766433,35.6166338 L621.766433,35.6166338 L621.714459,6 Z M581.186495,6 C581.186495,7.13410711 581.185653,8.70027722 581.184843,10.0264123 L581.184177,11.0886397 C579.332207,11.0931374 577.41764,11.0985346 575.565671,11.105281 C575.557789,19.2959491 575.55037,26.77329 575.542487,34.9626088 C573.787892,35.0053364 571.911348,35.0593082 570.159071,35.1227251 C570.169736,26.8866308 570.181328,19.3643133 570.191993,11.1295683 C570.007445,11.1295683 569.822898,11.1304679 569.63835,11.1304679 C568.91917,11.1304679 568.199063,11.1246209 567.479883,11.1165252 C566.76024,11.1102284 566.040133,11.1039317 565.320025,11.1039317 L565.320025,11.1039317 L564.606873,11.105281 C564.610119,9.62240626 564.612438,7.48422407 564.614756,6 L564.614756,6 Z M598.682922,6 C598.684207,7.43314723 598.68635,9.60419597 598.687206,11.0373432 C597.340106,11.0307469 596.005431,11.0298674 594.671613,11.0298674 C594.124032,11.0298674 593.576451,11.0298674 593.029726,11.0307469 L593.029726,11.0307469 L590.591963,11.030637 L590.591963,11.030637 L589.783231,11.0298674 C589.783552,12.9533366 589.784356,14.2485121 589.785099,15.8582054 L589.785802,17.607657 C590.03774,17.6085365 590.291821,17.6085365 590.547616,17.6085365 C591.216025,17.6085365 591.896431,17.6054583 592.579407,17.6032595 C593.263241,17.6010607 593.950074,17.598862 594.629623,17.598862 C595.264183,17.598862 595.891458,17.6001812 596.507166,17.607657 C596.508023,19.0372862 596.510165,21.1643599 596.511022,22.5953084 C595.859752,22.5860736 595.193485,22.5829954 594.522077,22.5829954 C593.869094,22.5829954 593.211825,22.5860736 592.556699,22.5882724 C591.902001,22.5913506 591.248589,22.5944289 590.606745,22.5944289 C590.331669,22.5944289 590.058307,22.5931096 589.787087,22.5922301 C589.787944,26.5825271 589.788801,30.2236622 589.790086,34.2126399 C588.703065,34.2042846 587.590336,34.1998871 586.485748,34.1998871 C585.944594,34.1998871 585.403868,34.2012064 584.870855,34.2029654 L584.870855,34.2029654 L584.874711,6 Z" id="Netflix"></path>
                        <path d="M250.128424,31.288522 C258.720424,36.1606561 269.345835,39.0947125 280.320659,39.0947125 C287.723953,39.0947125 295.862306,37.5977637 303.350071,34.5029841 C304.479718,34.0359471 305.426306,35.2279577 304.320894,36.0230899 C297.6416,40.8262116 287.9576,43.3810441 279.619247,43.3810441 C267.932188,43.3810441 257.408424,39.1715203 249.443953,32.1641305 C248.818776,31.6140952 249.376659,30.862067 250.128424,31.288522 Z M309.775367,30.8201322 C310.481192,31.7058348 309.590933,37.8393543 306.144179,40.7664235 C305.614414,41.2167418 305.11022,40.9766486 305.345118,40.3815851 C306.120418,38.4158077 307.856581,34.0137163 307.034438,32.945359 C306.212521,31.8770017 301.602592,32.4387509 299.531959,32.6905615 C298.90466,32.76684 298.807351,32.2110644 299.373098,31.807616 C303.049998,29.1852009 309.075425,29.9427007 309.775367,30.8201322 Z M321.934463,8 C327.169295,8 330,12.6933728 330,18.6588972 C330,24.4257088 326.873094,29 321.934463,29 C316.798519,29 314,24.3066272 314,18.4601844 C314,12.5738041 316.831404,8 321.934463,8 Z M377.792169,8 C382.608151,8 385,13.1410929 385,18.4405521 C385,24.0565017 382.349641,29 377.372004,29 L377.244466,28.9983049 L377.110289,29 C372.19768,29 370,23.7000565 370,18.4010816 C370,12.8248446 372.585788,8 377.530682,8 L377.657991,8.00121075 L377.792169,8 Z M287.549907,8 C289.279548,8 291.541839,8.47723959 292.905798,9.82949943 C294.571831,11.4382076 294.479144,13.563141 294.469992,15.8846852 L294.469412,21.8783412 C294.469412,23.6004374 295.161739,24.3556618 295.811971,25.2838976 C296.038671,25.6180139 296.089937,26.0155516 295.799978,26.2595173 C295.073552,26.8888709 293.7832,28.0474648 293.072765,28.7001458 L293.064534,28.692127 C292.828899,28.9103353 292.48979,28.924915 292.224288,28.7776608 C291.043288,27.7634052 290.831874,27.2944273 290.18611,26.3287705 C288.233768,28.383525 286.85123,29 284.322968,29 C281.329078,29 279,27.0907986 279,23.2726389 C279,20.2898915 280.56385,18.2616232 282.792512,17.2670501 C284.721808,16.3920298 287.416803,16.2331119 289.479438,15.9942491 L289.479438,15.5170096 C289.479438,14.6422323 289.54599,13.6078082 289.046969,12.8523408 C288.614265,12.1760894 287.78272,11.8978617 287.050886,11.8978617 C285.694452,11.8978617 284.488759,12.615908 284.192451,14.1042443 C284.131073,14.4354447 283.897083,14.7630002 283.574672,14.7797667 L280.127853,14.3941358 C279.836953,14.3265835 279.513601,14.0855338 279.59732,13.6262757 C280.389592,9.30536206 284.165642,8 287.549907,8 Z M241.549716,8 C243.279648,8 245.541778,8.47723959 246.906017,9.82949943 C248.635949,11.500081 248.469682,13.7273611 248.469682,16.15341 L248.469682,21.8783412 C248.469682,23.6004374 249.161796,24.3556618 249.811815,25.2838976 C250.038757,25.6180139 250.089789,26.0155516 249.800291,26.2595173 C249.073842,26.8888709 247.782977,28.0474648 247.072989,28.7001458 L247.064758,28.692127 C246.829115,28.9103353 246.48976,28.924915 246.224485,28.7776608 C245.042976,27.7634052 244.831555,27.2944273 244.186005,26.3287705 C242.233834,28.383525 240.851252,29 238.322906,29 C235.328683,29 233,27.0907986 233,23.2726389 C233,20.2898915 234.563665,18.2616232 236.7924,17.2670501 C238.72176,16.3920298 241.416843,16.2331119 243.479075,15.9942491 L243.479075,15.5170096 C243.479075,14.6422323 243.545629,13.6078082 243.047062,12.8523408 C242.614344,12.1760894 241.782537,11.8978617 241.050914,11.8978617 C239.694436,11.8978617 238.488233,12.615908 238.192385,14.1042443 C238.13077,14.4354447 237.897243,14.7630002 237.574586,14.7797667 L234.127655,14.3941358 C233.836746,14.3265835 233.512912,14.0855338 233.597104,13.6262757 C234.389167,9.30536206 238.16534,8 241.549716,8 Z M361.476285,8 C364.956544,8 367.440325,10.7602712 367.979388,14.8843329 C367.979388,15.193801 367.700562,15.4616192 367.373266,15.5006054 L365.802197,15.4819598 C365.476077,15.4337719 365.260075,15.1419808 365.211134,14.8179837 C364.832543,12.5156187 363.547593,10.6847203 361.406873,10.6125595 C357.996497,10.7246751 357.026138,15.0436678 357.026138,18.3616111 C357.026138,21.5638066 357.83579,26.23198 361.245931,26.34797 C363.512299,26.2748406 364.701954,24.4056825 365.196075,21.9824845 C365.292075,21.680523 365.517724,21.4478166 365.848079,21.4478166 L367.347383,21.4412786 C367.700562,21.4604084 368.02527,21.7388813 367.998446,22.0778917 C367.306442,26.1995318 364.888543,29 361.443109,29 L361.304284,28.9983049 L361.174166,29 C356.159073,29 354,23.8191944 354,18.5594479 C354,13.3389297 356.192015,8 361.207342,8 L361.339578,8.0014529 L361.476285,8 Z M404.948809,8 C406.676191,8 408.338122,9.11320045 409.202402,10.8025103 C410.033014,12.4144885 410,14.5642629 410,16.3687476 L409.999112,27.3446785 C410,27.694434 409.717532,27.976965 409.360143,28 L407.796153,28 C407.459246,27.9896578 407.183317,27.7487307 407.138349,27.4337627 L407.138349,16.3687476 C407.138349,15.0632757 407.204506,13.6814122 406.672895,12.4913501 C406.129513,11.273082 405.094543,10.5162185 403.98188,10.4602764 C402.738552,10.5218597 401.598108,11.4225743 400.860727,12.6448383 C399.953557,14.1261559 399.930225,15.4715117 399.930619,17.1610159 L399.930761,27.439874 C399.8865,27.7423844 399.623049,27.9786104 399.297208,28 L397.741222,28 C397.371825,27.9889526 397.076355,27.7014855 397.076355,27.3439733 L397.069057,15.6391501 C397.069057,14.5642629 397.0029,13.2973392 396.50425,12.3376269 C395.930025,11.2333584 394.898587,10.5173938 393.817944,10.4605115 C392.697041,10.523035 391.562953,11.3783847 390.890788,12.3761753 C390.02698,13.6430989 389.860527,15.2169989 389.860527,16.8294472 L389.859821,27.3446785 C389.859821,27.694434 389.577535,27.976965 389.220852,28 L387.663925,28 C387.294999,27.9889526 387,27.7014855 387,27.3439733 L387,9.09886235 C387.024956,8.7773129 387.297118,8.52063746 387.637321,8.49877774 L388.943982,8.49830763 C389.303725,8.49830763 389.598724,8.76085935 389.627918,9.09933246 L389.627918,11.759402 C390.557178,9.65146672 392.288562,8 394.47716,8 L394.614418,8.00188041 L394.746261,8 C397.067409,8 398.766303,9.70999436 399.397503,12.194246 C400.381147,9.74149116 402.234722,8 404.679002,8 L404.806136,8.00188041 L404.948809,8 Z M342.131444,8 C343.658348,8 345.154371,8.57943262 346.108968,10.1624113 C347,11.6295508 347,14.1007092 347,15.8768322 L347,27.4219858 C346.961455,27.7475177 346.683529,28 346.346772,28 L342.929609,28 C342.61404,27.978487 342.359556,27.735461 342.322589,27.4219858 L342.322589,17.4598109 C342.322589,15.4520095 342.545291,12.5177305 340.190694,12.5177305 C339.363001,12.5177305 338.599549,13.0966903 338.218387,13.98487 C337.74075,15.1042553 337.676735,16.2241135 337.676735,17.4598109 L337.676735,27.3394799 C337.670649,27.7061466 337.376043,28 337.012913,28 L333.617163,28 C333.275672,27.9770686 333.00541,27.6926714 333.00541,27.3411348 L333,8.98605201 C333.028627,8.65059102 333.311061,8.38723404 333.654806,8.38723404 L336.816583,8.38628842 C337.11412,8.40236407 337.359588,8.61560284 337.422251,8.90023641 L337.422251,11.7068558 L337.486492,11.7068558 C338.440863,9.19716312 339.776848,8 342.131444,8 Z M270.957716,8 C272.45439,8 274.083956,8.6179669 275.082052,10.0080378 C276.212805,11.5524823 275.980245,13.7917258 275.980245,15.7609929 L275.977654,27.3394799 C275.977654,27.7061466 275.669695,28 275.290343,28 L271.731265,28 C271.37359,27.9770686 271.09155,27.6926714 271.09155,27.3411348 L271.090607,17.6141844 C271.090607,16.8420804 271.157288,14.9115839 270.990703,14.1775414 C270.724921,12.9423168 269.926868,12.5947991 268.896019,12.5947991 C268.031049,12.5947991 267.13262,13.1739953 266.766934,14.1007092 C266.431506,14.9499803 266.431866,16.3183166 266.434255,17.3436884 L266.434706,27.3394799 C266.434706,27.7061466 266.126748,28 265.747631,28 L262.188553,28 C261.830878,27.9770686 261.548602,27.6926714 261.548602,27.3411348 L261.545304,17.6141844 C261.545304,15.5678487 261.878003,12.5562648 259.350244,12.5562648 C256.789028,12.5562648 256.888931,15.4905437 256.888931,17.6141844 L256.887282,27.3394799 C256.887753,27.7061466 256.579795,28 256.200207,28 L252.637359,28 C252.298298,27.9777778 252.027097,27.7219858 252,27.3957447 L252.002356,9.04775414 C252.002356,8.68061466 252.310079,8.38723404 252.689903,8.38723404 L256.008175,8.38628842 C256.355247,8.40425532 256.633988,8.6678487 256.656136,9.00260047 L256.656136,11.3978723 L256.722818,11.3978723 C257.587552,9.08132388 259.217353,8 261.412177,8 C263.640459,8 265.037465,9.08132388 266.035562,11.3978723 C266.899825,9.08132388 268.862325,8 270.957716,8 Z M351.000269,25 C352.1052,25 353,25.6715468 353,26.5003183 C353,27.328241 352.1052,28 351.000269,28 C349.895875,28 349,27.328241 349,26.5003183 C349,25.6715468 349.895875,25 351.000269,25 Z M311.976891,9 C312.349421,9.00023404 312.648335,9.27078739 312.649273,9.65555357 L312.648335,11.8815336 C312.645522,12.2548317 312.330665,12.7423426 311.77105,13.5156196 L305.735079,22.1192629 C307.975886,22.0668373 310.346105,22.4012843 312.381774,23.5438807 C312.840813,23.8013277 312.963896,24.1832854 313,24.5570515 L313,27.3262446 C313,27.7082023 312.581754,28.1498408 312.142173,27.9200109 C308.555195,26.0443928 303.795298,25.8391374 299.829225,27.9427131 C299.424107,28.1582664 299,27.723181 299,27.3414574 L299,24.7087112 C299,24.2874344 299.007737,23.5668169 299.433485,22.9246038 L306.426921,12.9087469 L300.337966,12.9075767 C299.965671,12.9075767 299.667225,12.6428744 299.66488,12.2541295 L299.66488,9.65859612 C299.666287,9.26376611 299.964264,9.00023404 300.3239,9.00117021 L311.976891,9 Z M377.467028,10.5336185 C375.936575,10.5929454 374.572813,11.6867382 373.881545,13.3784002 C373.267898,14.8417144 373.073729,16.7796432 373.073729,18.4010816 C373.073729,20.2201146 373.299954,22.3161676 374.011143,23.8983776 C374.701496,25.3970458 376.034117,26.3731536 377.472294,26.4266688 C379.088841,26.3707321 380.363532,25.312051 381.118455,23.5421745 C381.796672,21.9604488 381.926042,20.1411736 381.926042,18.4010816 C381.926042,16.5028654 381.732102,14.5254661 380.89223,12.9037856 C380.139368,11.4855113 378.841551,10.5873759 377.467028,10.5336185 Z M289.479438,18.9376316 C286.906494,18.9376316 284.189864,19.5069658 284.189864,22.6364815 C284.189864,24.2271181 284.988251,25.3013932 286.351974,25.3013932 C287.350251,25.3013932 288.248348,24.6652357 288.814156,23.6308116 C289.419268,22.5277175 289.47522,21.4844884 289.479383,20.2937504 Z M243.479075,18.9376316 C240.906517,18.9376316 238.189798,19.5069658 238.189798,22.6364815 C238.189798,24.2271181 238.988211,25.3013932 240.351979,25.3013932 C241.350289,25.3013932 242.24865,24.6652357 242.813771,23.6308116 C243.419514,22.5277175 243.47502,21.4844884 243.479053,20.2937504 Z M321.967348,11.8580971 C319.366141,11.8580971 319.201696,15.5566881 319.201696,17.8633154 L319.201743,18.1785069 C319.204129,20.5899572 319.289074,25.1022091 321.934463,25.1022091 C324.667211,25.1022091 324.798752,21.1247869 324.798752,18.6988346 C324.798752,17.1081579 324.732748,15.1989563 324.271887,13.6876674 C323.876563,12.3750913 323.086149,11.8580971 321.967348,11.8580971 Z" id="Amazon"></path>
                        <path d="M85.4795631,10.5925926 L94.8676752,29.4473082 L104.224964,10.5925926 L110.034251,10.5925926 L93.0841468,44 L86.9447744,44 L91.8170431,34.723805 L79.0616632,10.5925926 L85.4795631,10.5925926 Z M33.3672449,0 L33.3652878,13.888787 C36.0453829,10.6613938 39.7372935,9.72203781 43.3763626,9.72203781 C49.4693432,9.72203781 56.2397564,13.8811545 56.2397564,22.8560609 C56.2397564,30.3754318 50.8541242,35.8518519 43.2737552,35.8518519 C39.3053357,35.8518519 35.5675733,34.4127121 33.2649171,31.5587433 C33.2649171,32.6996524 33.2025698,33.8487593 33.0798323,34.9342624 L27.712373,34.9342624 C27.8054745,33.1796483 27.8985761,30.992529 27.8985761,29.2223674 L27.898,24.681 L5.74178427,24.6816024 C6.04636451,29.7630303 9.57569171,32.770009 14.4293811,32.770009 C17.7846624,32.770009 20.7777324,31.411834 21.7756145,28.45234 L27.5931837,28.45234 C26.4630382,34.4537111 20.0386139,36.4886851 14.510929,36.4886851 C4.45459415,36.4886851 1.95399252e-14,30.9947702 1.95399252e-14,23.5843069 C1.95399252e-14,15.4189522 4.60587573,10.0517584 14.6028506,10.0517584 C21.2089032,10.0517584 26.3484101,12.9026398 27.8991598,19.0360123 L27.8985761,0 L33.3672449,0 Z M70.1947783,9.77777778 C76.665029,9.77777778 82.1341336,12.1087364 82.1341336,19.0423794 L82.1341336,30.3192098 C82.1341336,31.9227311 82.1828953,33.5048157 82.3219356,34.9345869 L77.2482181,34.9345869 C77.1153078,33.7629022 77.0632025,32.5912175 77.0632025,31.4570471 C74.3233561,34.8719692 71.0621781,35.8518519 66.5390491,35.8518519 C59.8300057,35.8518519 56.2397564,32.2592308 56.2397564,28.1050247 C56.2397564,22.098801 61.1237215,19.9731833 69.6035087,19.7777145 C71.9214974,19.7244048 74.5281549,19.7187636 76.6859268,19.7187636 L76.6859268,19.132075 C76.6859268,15.1050788 74.1336036,13.4468376 69.7174716,13.4468376 C66.4331667,13.4468376 64.0140324,14.8196323 63.7646515,17.1979773 L58.0400359,17.1979773 C58.6430083,11.2735515 64.7944972,9.77777778 70.1947783,9.77777778 Z M76.6859268,23.3841565 C74.6786194,23.3841565 72.2059867,23.4010802 69.9802271,23.4755446 C65.0341258,23.641961 61.9657652,24.5414561 61.9657652,27.8390405 C61.9657652,29.9705814 63.6428868,32.2826419 67.9127339,32.2826419 C73.6334486,32.2826419 76.6859268,29.1297552 76.6859268,23.9547675 L76.6859268,23.3841565 Z M41.9286752,13.5049033 C36.8754686,13.5049033 33.3672449,17.2035292 33.3672449,22.7876515 C33.3672449,28.3723392 36.8754686,32.0687037 41.9286752,32.0687037 C47.011238,32.0687037 50.4906646,28.3723392 50.4906646,22.7876515 C50.4906646,17.2035292 47.011238,13.5049033 41.9286752,13.5049033 Z M14.3648343,13.7687182 C9.97853294,13.7687182 6.47571604,15.9744652 5.86252138,20.966931 L22.457102,20.966931 C22.240121,15.7301768 18.433012,13.7687182 14.3648343,13.7687182 Z M113.457178,9.77777778 L113.457178,10.45 L114.094979,10.45 L114.094979,10.7978165 L113.457178,10.7978165 L113.457178,12.2687396 C113.457178,12.5432836 113.522804,12.6892206 113.785564,12.6892206 L114.109591,12.6576009 L114.109591,13.0048093 L113.7043,13.037037 C113.283116,13.037037 113.042915,12.87377 113.042915,12.3070481 L113.042915,10.7978165 L112.479455,10.7978165 L112.479455,10.45 L113.042915,10.45 L113.042915,9.77777778 L113.457178,9.77777778 Z M117.987913,10.5925926 C118.615292,10.5925926 119,10.9207832 119,11.6863741 L119,13.037037 L118.569693,13.037037 L118.569693,11.8576284 C118.569693,11.2874358 118.417172,10.9115186 117.948341,10.9115186 C117.572019,10.9115186 117.18469,11.1880522 117.18469,11.9643114 L117.18469,13.037037 L116.756217,13.037037 L116.756217,11.8284309 C116.756217,11.198159 116.552594,10.9115186 116.160024,10.9115186 C115.782129,10.9115186 115.367808,11.2012472 115.367808,11.8988979 L115.367808,13.037037 L114.942742,13.037037 L114.942742,11.2172496 C114.942742,11.0384152 114.931735,10.8688454 114.92466,10.6799042 L115.32614,10.6799042 L115.340553,11.0982139 L115.349726,11.0982139 C115.603927,10.7382991 115.91683,10.5925926 116.276642,10.5925926 C116.649296,10.5925926 116.954337,10.7871487 117.079603,11.1821565 C117.235792,10.8629498 117.580667,10.5925926 117.987913,10.5925926 Z" id="Ebay"></path>
                    </g>
                    <g id="Group-4" transform="translate(29.000000, 188.000000)">
                        <path d="M358.549816,22 C363.058519,22 366,25.1797691 366,30.0008796 C366,34.8202309 363.058519,38 358.549816,38 C353.941481,38 351,34.8202309 351,30.0008796 C351,25.1797691 353.941481,22 358.549816,22 Z M341.706192,22 C345.300446,22 348.588057,23.8462384 348.897785,27.7432176 L348.897785,27.7432176 L344.788051,27.7432176 C344.58186,26.1032407 343.451331,25.1801215 341.706192,25.1801215 C339.034512,25.1801215 338.21283,27.8465683 338.21283,30.1018114 C338.21283,32.2563426 339.034512,34.8203183 341.602215,34.8203183 C343.555308,34.8203183 344.684074,33.5897859 344.992921,31.7439872 L344.992921,31.7439872 L349,31.7439872 C348.486724,35.7438773 345.608412,38 341.706192,38 C337.08186,38 334,34.7178472 334,30.2060416 C334,25.4875347 336.774335,22 341.706192,22 Z M330.966908,32.2392083 C332.475215,32.2392083 333.658138,33.307125 333.658138,34.570875 C333.658138,35.9300417 332.475215,37.0000417 330.966908,37.0000417 C329.461369,37.0000417 328.276138,35.9300417 328.276138,34.570875 C328.276138,33.307125 329.461369,32.2392083 330.966908,32.2392083 Z M280.495424,6.09131718 L280.495,10.051 L276.580138,10.0519794 C268.99656,10.0519794 265,16.129034 265,21.9934764 C265,27.7504694 268.791789,33.9349733 276.888174,33.9349733 L286.008417,33.9349733 C286.519907,33.9349733 287.032275,33.7209893 287.441818,33.2953074 C287.85224,32.8696255 288.05789,32.3378661 288.05789,31.8038205 L288.05789,12.2910387 C288.05789,11.7574503 288.263101,11.3313112 288.569819,11.2256909 C288.979362,11.1177844 289.286959,11.3313112 289.594556,11.6504583 C292.053132,15.9155073 302.300058,32.8696255 302.402884,33.0831523 C302.812866,33.8288958 303.632392,34.1485001 304.351729,33.9349733 C304.862779,33.7209893 305.476654,33.0831523 305.476654,31.9098981 L305.476654,12.2910387 C305.476654,11.7574503 305.682744,11.3313112 306.092287,11.2256909 C306.399444,11.1177844 306.70748,11.3313112 307.015956,11.6504583 C309.474972,15.9155073 319.720579,32.8696255 319.824723,33.0831523 C320.334894,33.8288958 321.052913,34.1485001 321.771371,33.9349733 C322.385246,33.7209893 323,33.0831523 323,31.9098981 L323,6.091 L326,6.09131718 L326,31.3469128 C326,37.8647535 318.397072,38.8831524 315.255514,33.6885317 L308.669931,22.7922741 L308.669931,31.3469128 C308.771188,37.8647535 301.169129,38.8831524 298.028005,33.6885317 L291.440685,22.7922741 L291.440685,30.5328923 C291.440685,34.5047356 289.110047,36.6428494 285.563897,36.6428494 L277.151787,36.6428494 C255.768417,36.6428494 255.566773,6.09131718 276.847148,6.09131718 L280.495424,6.09131718 Z M385.199019,21.2678919 C388.577585,21.2678919 390.901962,22.7818378 390.901962,26.6136216 L390.901962,26.6136216 L390.901962,36.5963243 L386.677509,36.5963243 L386.677509,28.1254054 C386.677509,26.108973 386.465585,24.4955676 384.037509,24.4955676 C381.608528,24.4955676 381.186038,26.4121081 381.186038,28.3269189 L381.186038,28.3269189 L381.186038,36.5963243 L376.857434,36.5963243 L376.857384,27.647064 C376.8467,26.0887981 376.668252,24.4955676 374.321585,24.4955676 C373.477509,24.4955676 371.365962,24.9997838 371.365962,27.9238919 L371.365962,27.9238919 L371.365962,36.5963243 L367.247472,36.5963243 L367.247472,21.6717838 L371.154038,21.6717838 L371.154038,23.6890811 L371.26,23.6890811 C372.316,22.176 374.005962,21.2678919 376.011547,21.2678919 C377.912981,21.2678919 379.707547,21.9744865 380.552528,23.7898378 C381.397057,22.4778378 383.087019,21.2678919 385.199019,21.2678919 Z M358.549816,25.1797691 C355.803817,25.1797691 355.020207,27.5388675 355.020207,30.0008796 C355.020207,32.4611325 355.803817,34.8202309 358.549816,34.8202309 C361.196603,34.8202309 362.079006,32.4611325 362.079006,30.0008796 C362.079006,27.5388675 361.196603,25.1797691 358.549816,25.1797691 Z M311.102694,9.85965537 C315.054305,16.5810012 317.283251,20.5532812 317.283251,20.5532812 L317.283251,6.09131718 L321.976,6.091 L321.976582,31.9098981 C321.976582,32.442572 321.771371,32.8696255 321.463774,32.9761603 C321.155738,32.9761603 320.848581,32.8696255 320.643809,32.5504784 C320.540105,32.3378661 310.396004,15.3819189 307.834163,11.1177844 C307.322234,10.3706693 306.502269,10.0519794 305.78469,10.2659634 C304.966043,10.4781185 304.555182,11.3313112 304.555182,12.2910387 L304.555182,31.9098981 C304.555182,32.442572 304.351729,32.8696255 304.042374,32.9761603 C303.735656,32.9761603 303.42762,32.8696255 303.222849,32.5504784 C303.121342,32.3378661 292.872219,15.3819189 290.414521,11.1177844 C289.901713,10.3706693 289.081748,10.0519794 288.364169,10.2659634 C287.545083,10.4781185 287.032275,11.3313112 287.032275,12.2910387 L287.032275,31.8038205 C287.032275,32.3378661 286.622732,32.8696255 286.008417,32.8696255 L276.888174,32.8696255 C269.407422,32.8696255 266.025615,27.2191672 266.025615,21.9934764 C266.025615,16.5565448 269.612193,11.1177844 276.580138,11.1177844 L280.495,11.117 L280.495424,14.7477084 L276.442122,14.7477084 C267.624986,14.7477084 266.713243,27.9868949 277.050096,27.9868949 L281.813062,27.9868949 C282.320213,27.9868949 282.724805,27.4772587 282.724805,26.9684959 L282.724805,11.6916381 C282.724805,5.98912792 290.021356,3.2400621 293.873882,9.85965537 C297.826362,16.5810012 300.054439,20.5532812 300.054439,20.5532812 L300.054439,11.6916381 C300.054439,5.98912792 307.250602,3.2400621 311.102694,9.85965537 Z" id="CNN"></path>
                        <path d="M111.420087,6.08905456 C112.653196,9.30741601 113.479665,11.4497201 114.710576,14.7586077 C116.032927,11.5781513 116.982487,9.43094187 118.361107,6.09039239 L118.361107,6.09039239 L123.922189,6.09039239 C121.688524,11.4969899 119.493546,16.4313351 117.34121,21.6024754 C119.501898,27.1085179 121.851181,33.1742173 124,39 C122.227927,38.7440294 119.927002,38.4086813 118.153171,38.1750078 C116.881376,34.5936498 115.72388,31.9130941 114.449008,28.4423296 C113.173256,31.6999339 112.013562,34.1414649 110.73781,37.3143403 C108.960902,37.1127746 107.120689,36.8518987 105.341583,36.6739679 C107.489523,31.7489875 109.677908,26.648752 111.826727,21.5141789 C109.758796,16.1691214 107.894845,11.1219529 105.858566,6.08905456 L105.858566,6.08905456 Z M4.8878601,6 C7.08289372,13.1692357 9.27221569,17.683889 11.4597802,24.5035574 C11.4690067,17.5153159 11.4795513,12.9882415 11.4887779,6 L11.4887779,6 L16.5796215,6 C16.5616078,16.2195213 16.5440334,26.438599 16.5273378,36.6581202 C14.7479371,36.8404453 12.7967473,37.0928613 11.0199827,37.2973671 C8.75289428,30.8920336 7.35573517,26.9154833 5.08205643,20.1756654 C5.07766285,27.0241686 5.07370862,31.2336159 5.06843632,38.0803447 C3.41644945,38.2990461 1.65022944,38.5257325 1.70530257e-13,38.7630657 L1.70530257e-13,38.7630657 L1.70530257e-13,6 Z M36.811856,6 C36.8101449,7.4633166 36.8456491,9.56617308 36.8436032,11.0299304 C35.7052378,11.0405086 34.5874979,11.0413901 33.4723245,11.0413901 L33.4723245,11.0413901 L32.0692678,11.0413901 C30.7337974,11.0413901 29.3961882,11.0435939 28.0307745,11.0603427 C28.0247859,13.7520519 28.019225,15.2281505 28.0158029,17.9194189 C30.1849798,17.8771062 32.5149949,17.8726986 34.7201038,17.8321488 C34.717965,19.3042806 34.7153984,21.4155115 34.7119764,22.886321 C32.486335,22.9251077 30.1849798,22.8916101 28.0063921,22.9303968 C28.0008312,25.622106 27.9961259,27.8474932 27.9909927,30.5392024 C30.9720604,30.3329276 33.8342104,30.1350273 36.8263999,29.9450606 C36.8229778,31.4088179 36.820839,33.5125559 36.8182724,34.9763133 C32.2177009,35.250024 27.6201238,35.6017489 23.027252,36.0328102 C23.0456458,26.0218735 23.0640395,16.010496 23.0824332,6 L23.0824332,6 Z M82.4884526,6 C82.5007623,14.3781506 82.4572386,21.9767698 82.4695483,30.3544672 C85.3350787,30.4772887 88.3166724,30.6853149 91.1791254,30.8593498 C91.1826424,32.3644801 91.184401,34.5285864 91.187918,36.0328102 C86.6645301,35.7101204 81.9033005,35.5229422 77.3733181,35.3484541 C77.3623273,25.5648807 77.4071699,15.782667 77.3944205,6 L77.3944205,6 Z M101.311198,6 C101.328258,16.0112316 101.315959,26.0290972 101.310404,36.0328102 C99.8138652,35.8850919 98.2649553,35.7457768 96.7664327,35.6166338 L96.7664327,35.6166338 L96.7144585,6 Z M56.1864949,6 C56.1864949,7.13410711 56.1856534,8.70027722 56.1848431,10.0264123 L56.1841765,11.0886397 C54.3322074,11.0931374 52.4176404,11.0985346 50.5656713,11.105281 C50.5577886,19.2959491 50.5503696,26.77329 50.5424869,34.9626088 C48.7878922,35.0053364 46.9113476,35.0593082 45.1590714,35.1227251 C45.1697362,26.8866308 45.1813284,19.3643133 45.1919932,11.1295683 C45.0074454,11.1295683 44.8228977,11.1304679 44.63835,11.1304679 C43.9191702,11.1304679 43.199063,11.1246209 42.4798832,11.1165252 C41.7602397,11.1102284 41.0401325,11.1039317 40.3200253,11.1039317 L40.3200253,11.1039317 L39.6068735,11.105281 C39.6101193,9.62240626 39.6124377,7.48422407 39.6147562,6 L39.6147562,6 Z M73.6829218,6 C73.6842072,7.43314723 73.6863496,9.60419597 73.6872065,11.0373432 C72.3401058,11.0307469 71.0054307,11.0298674 69.6716125,11.0298674 C69.1240315,11.0298674 68.5764505,11.0298674 68.0297264,11.0307469 L68.0297264,11.0307469 L65.5919627,11.030637 L65.5919627,11.030637 L64.783231,11.0298674 C64.7835523,12.9533366 64.7843557,14.2485121 64.7850988,15.8582054 L64.7858018,17.607657 C65.0377404,17.6085365 65.2918215,17.6085365 65.5476163,17.6085365 C66.2160251,17.6085365 66.8964309,17.6054583 67.5794075,17.6032595 C68.263241,17.6010607 68.9500738,17.598862 69.6296227,17.598862 C70.2641825,17.598862 70.8914584,17.6001812 71.5071657,17.607657 C71.5080226,19.0372862 71.510165,21.1643599 71.5110219,22.5953084 C70.8597519,22.5860736 70.1934855,22.5829954 69.5220775,22.5829954 C68.8690936,22.5829954 68.211825,22.5860736 67.5566987,22.5882724 C66.9020009,22.5913506 66.2485886,22.5944289 65.6067448,22.5944289 C65.3316689,22.5944289 65.0583069,22.5931096 64.7870872,22.5922301 C64.7879441,26.5825271 64.788801,30.2236622 64.7900864,34.2126399 C63.7030653,34.2042846 62.5903362,34.1998871 61.4857479,34.1998871 C60.9445939,34.1998871 60.4038684,34.2012064 59.8708553,34.2029654 L59.8708553,34.2029654 L59.8747115,6 Z" id="Netflix"></path>
                        <path d="M784.128424,31.288522 C792.720424,36.1606561 803.345835,39.0947125 814.320659,39.0947125 C821.723953,39.0947125 829.862306,37.5977637 837.350071,34.5029841 C838.479718,34.0359471 839.426306,35.2279577 838.320894,36.0230899 C831.6416,40.8262116 821.9576,43.3810441 813.619247,43.3810441 C801.932188,43.3810441 791.408424,39.1715203 783.443953,32.1641305 C782.818776,31.6140952 783.376659,30.862067 784.128424,31.288522 Z M843.775367,30.8201322 C844.481192,31.7058348 843.590933,37.8393543 840.144179,40.7664235 C839.614414,41.2167418 839.11022,40.9766486 839.345118,40.3815851 C840.120418,38.4158077 841.856581,34.0137163 841.034438,32.945359 C840.212521,31.8770017 835.602592,32.4387509 833.531959,32.6905615 C832.90466,32.76684 832.807351,32.2110644 833.373098,31.807616 C837.049998,29.1852009 843.075425,29.9427007 843.775367,30.8201322 Z M855.934463,8 C861.169295,8 864,12.6933728 864,18.6588972 C864,24.4257088 860.873094,29 855.934463,29 C850.798519,29 848,24.3066272 848,18.4601844 C848,12.5738041 850.831404,8 855.934463,8 Z M911.792169,8 C916.608151,8 919,13.1410929 919,18.4405521 C919,24.0565017 916.349641,29 911.372004,29 L911.244466,28.9983049 L911.110289,29 C906.19768,29 904,23.7000565 904,18.4010816 C904,12.8248446 906.585788,8 911.530682,8 L911.657991,8.00121075 L911.792169,8 Z M821.549907,8 C823.279548,8 825.541839,8.47723959 826.905798,9.82949943 C828.571831,11.4382076 828.479144,13.563141 828.469992,15.8846852 L828.469412,21.8783412 C828.469412,23.6004374 829.161739,24.3556618 829.811971,25.2838976 C830.038671,25.6180139 830.089937,26.0155516 829.799978,26.2595173 C829.073552,26.8888709 827.7832,28.0474648 827.072765,28.7001458 L827.064534,28.692127 C826.828899,28.9103353 826.48979,28.924915 826.224288,28.7776608 C825.043288,27.7634052 824.831874,27.2944273 824.18611,26.3287705 C822.233768,28.383525 820.85123,29 818.322968,29 C815.329078,29 813,27.0907986 813,23.2726389 C813,20.2898915 814.56385,18.2616232 816.792512,17.2670501 C818.721808,16.3920298 821.416803,16.2331119 823.479438,15.9942491 L823.479438,15.5170096 C823.479438,14.6422323 823.54599,13.6078082 823.046969,12.8523408 C822.614265,12.1760894 821.78272,11.8978617 821.050886,11.8978617 C819.694452,11.8978617 818.488759,12.615908 818.192451,14.1042443 C818.131073,14.4354447 817.897083,14.7630002 817.574672,14.7797667 L814.127853,14.3941358 C813.836953,14.3265835 813.513601,14.0855338 813.59732,13.6262757 C814.389592,9.30536206 818.165642,8 821.549907,8 Z M775.549716,8 C777.279648,8 779.541778,8.47723959 780.906017,9.82949943 C782.635949,11.500081 782.469682,13.7273611 782.469682,16.15341 L782.469682,21.8783412 C782.469682,23.6004374 783.161796,24.3556618 783.811815,25.2838976 C784.038757,25.6180139 784.089789,26.0155516 783.800291,26.2595173 C783.073842,26.8888709 781.782977,28.0474648 781.072989,28.7001458 L781.064758,28.692127 C780.829115,28.9103353 780.48976,28.924915 780.224485,28.7776608 C779.042976,27.7634052 778.831555,27.2944273 778.186005,26.3287705 C776.233834,28.383525 774.851252,29 772.322906,29 C769.328683,29 767,27.0907986 767,23.2726389 C767,20.2898915 768.563665,18.2616232 770.7924,17.2670501 C772.72176,16.3920298 775.416843,16.2331119 777.479075,15.9942491 L777.479075,15.5170096 C777.479075,14.6422323 777.545629,13.6078082 777.047062,12.8523408 C776.614344,12.1760894 775.782537,11.8978617 775.050914,11.8978617 C773.694436,11.8978617 772.488233,12.615908 772.192385,14.1042443 C772.13077,14.4354447 771.897243,14.7630002 771.574586,14.7797667 L768.127655,14.3941358 C767.836746,14.3265835 767.512912,14.0855338 767.597104,13.6262757 C768.389167,9.30536206 772.16534,8 775.549716,8 Z M895.476285,8 C898.956544,8 901.440325,10.7602712 901.979388,14.8843329 C901.979388,15.193801 901.700562,15.4616192 901.373266,15.5006054 L899.802197,15.4819598 C899.476077,15.4337719 899.260075,15.1419808 899.211134,14.8179837 C898.832543,12.5156187 897.547593,10.6847203 895.406873,10.6125595 C891.996497,10.7246751 891.026138,15.0436678 891.026138,18.3616111 C891.026138,21.5638066 891.83579,26.23198 895.245931,26.34797 C897.512299,26.2748406 898.701954,24.4056825 899.196075,21.9824845 C899.292075,21.680523 899.517724,21.4478166 899.848079,21.4478166 L901.347383,21.4412786 C901.700562,21.4604084 902.02527,21.7388813 901.998446,22.0778917 C901.306442,26.1995318 898.888543,29 895.443109,29 L895.304284,28.9983049 L895.174166,29 C890.159073,29 888,23.8191944 888,18.5594479 C888,13.3389297 890.192015,8 895.207342,8 L895.339578,8.0014529 L895.476285,8 Z M938.948809,8 C940.676191,8 942.338122,9.11320045 943.202402,10.8025103 C944.033014,12.4144885 944,14.5642629 944,16.3687476 L943.999112,27.3446785 C944,27.694434 943.717532,27.976965 943.360143,28 L941.796153,28 C941.459246,27.9896578 941.183317,27.7487307 941.138349,27.4337627 L941.138349,16.3687476 C941.138349,15.0632757 941.204506,13.6814122 940.672895,12.4913501 C940.129513,11.273082 939.094543,10.5162185 937.98188,10.4602764 C936.738552,10.5218597 935.598108,11.4225743 934.860727,12.6448383 C933.953557,14.1261559 933.930225,15.4715117 933.930619,17.1610159 L933.930761,27.439874 C933.8865,27.7423844 933.623049,27.9786104 933.297208,28 L931.741222,28 C931.371825,27.9889526 931.076355,27.7014855 931.076355,27.3439733 L931.069057,15.6391501 C931.069057,14.5642629 931.0029,13.2973392 930.50425,12.3376269 C929.930025,11.2333584 928.898587,10.5173938 927.817944,10.4605115 C926.697041,10.523035 925.562953,11.3783847 924.890788,12.3761753 C924.02698,13.6430989 923.860527,15.2169989 923.860527,16.8294472 L923.859821,27.3446785 C923.859821,27.694434 923.577535,27.976965 923.220852,28 L921.663925,28 C921.294999,27.9889526 921,27.7014855 921,27.3439733 L921,9.09886235 C921.024956,8.7773129 921.297118,8.52063746 921.637321,8.49877774 L922.943982,8.49830763 C923.303725,8.49830763 923.598724,8.76085935 923.627918,9.09933246 L923.627918,11.759402 C924.557178,9.65146672 926.288562,8 928.47716,8 L928.614418,8.00188041 L928.746261,8 C931.067409,8 932.766303,9.70999436 933.397503,12.194246 C934.381147,9.74149116 936.234722,8 938.679002,8 L938.806136,8.00188041 L938.948809,8 Z M876.131444,8 C877.658348,8 879.154371,8.57943262 880.108968,10.1624113 C881,11.6295508 881,14.1007092 881,15.8768322 L881,27.4219858 C880.961455,27.7475177 880.683529,28 880.346772,28 L876.929609,28 C876.61404,27.978487 876.359556,27.735461 876.322589,27.4219858 L876.322589,17.4598109 C876.322589,15.4520095 876.545291,12.5177305 874.190694,12.5177305 C873.363001,12.5177305 872.599549,13.0966903 872.218387,13.98487 C871.74075,15.1042553 871.676735,16.2241135 871.676735,17.4598109 L871.676735,27.3394799 C871.670649,27.7061466 871.376043,28 871.012913,28 L867.617163,28 C867.275672,27.9770686 867.00541,27.6926714 867.00541,27.3411348 L867,8.98605201 C867.028627,8.65059102 867.311061,8.38723404 867.654806,8.38723404 L870.816583,8.38628842 C871.11412,8.40236407 871.359588,8.61560284 871.422251,8.90023641 L871.422251,11.7068558 L871.486492,11.7068558 C872.440863,9.19716312 873.776848,8 876.131444,8 Z M804.957716,8 C806.45439,8 808.083956,8.6179669 809.082052,10.0080378 C810.212805,11.5524823 809.980245,13.7917258 809.980245,15.7609929 L809.977654,27.3394799 C809.977654,27.7061466 809.669695,28 809.290343,28 L805.731265,28 C805.37359,27.9770686 805.09155,27.6926714 805.09155,27.3411348 L805.090607,17.6141844 C805.090607,16.8420804 805.157288,14.9115839 804.990703,14.1775414 C804.724921,12.9423168 803.926868,12.5947991 802.896019,12.5947991 C802.031049,12.5947991 801.13262,13.1739953 800.766934,14.1007092 C800.431506,14.9499803 800.431866,16.3183166 800.434255,17.3436884 L800.434706,27.3394799 C800.434706,27.7061466 800.126748,28 799.747631,28 L796.188553,28 C795.830878,27.9770686 795.548602,27.6926714 795.548602,27.3411348 L795.545304,17.6141844 C795.545304,15.5678487 795.878003,12.5562648 793.350244,12.5562648 C790.789028,12.5562648 790.888931,15.4905437 790.888931,17.6141844 L790.887282,27.3394799 C790.887753,27.7061466 790.579795,28 790.200207,28 L786.637359,28 C786.298298,27.9777778 786.027097,27.7219858 786,27.3957447 L786.002356,9.04775414 C786.002356,8.68061466 786.310079,8.38723404 786.689903,8.38723404 L790.008175,8.38628842 C790.355247,8.40425532 790.633988,8.6678487 790.656136,9.00260047 L790.656136,11.3978723 L790.722818,11.3978723 C791.587552,9.08132388 793.217353,8 795.412177,8 C797.640459,8 799.037465,9.08132388 800.035562,11.3978723 C800.899825,9.08132388 802.862325,8 804.957716,8 Z M885.000269,25 C886.1052,25 887,25.6715468 887,26.5003183 C887,27.328241 886.1052,28 885.000269,28 C883.895875,28 883,27.328241 883,26.5003183 C883,25.6715468 883.895875,25 885.000269,25 Z M845.976891,9 C846.349421,9.00023404 846.648335,9.27078739 846.649273,9.65555357 L846.648335,11.8815336 C846.645522,12.2548317 846.330665,12.7423426 845.77105,13.5156196 L839.735079,22.1192629 C841.975886,22.0668373 844.346105,22.4012843 846.381774,23.5438807 C846.840813,23.8013277 846.963896,24.1832854 847,24.5570515 L847,27.3262446 C847,27.7082023 846.581754,28.1498408 846.142173,27.9200109 C842.555195,26.0443928 837.795298,25.8391374 833.829225,27.9427131 C833.424107,28.1582664 833,27.723181 833,27.3414574 L833,24.7087112 C833,24.2874344 833.007737,23.5668169 833.433485,22.9246038 L840.426921,12.9087469 L834.337966,12.9075767 C833.965671,12.9075767 833.667225,12.6428744 833.66488,12.2541295 L833.66488,9.65859612 C833.666287,9.26376611 833.964264,9.00023404 834.3239,9.00117021 L845.976891,9 Z M911.467028,10.5336185 C909.936575,10.5929454 908.572813,11.6867382 907.881545,13.3784002 C907.267898,14.8417144 907.073729,16.7796432 907.073729,18.4010816 C907.073729,20.2201146 907.299954,22.3161676 908.011143,23.8983776 C908.701496,25.3970458 910.034117,26.3731536 911.472294,26.4266688 C913.088841,26.3707321 914.363532,25.312051 915.118455,23.5421745 C915.796672,21.9604488 915.926042,20.1411736 915.926042,18.4010816 C915.926042,16.5028654 915.732102,14.5254661 914.89223,12.9037856 C914.139368,11.4855113 912.841551,10.5873759 911.467028,10.5336185 Z M823.479438,18.9376316 C820.906494,18.9376316 818.189864,19.5069658 818.189864,22.6364815 C818.189864,24.2271181 818.988251,25.3013932 820.351974,25.3013932 C821.350251,25.3013932 822.248348,24.6652357 822.814156,23.6308116 C823.419268,22.5277175 823.47522,21.4844884 823.479383,20.2937504 Z M777.479075,18.9376316 C774.906517,18.9376316 772.189798,19.5069658 772.189798,22.6364815 C772.189798,24.2271181 772.988211,25.3013932 774.351979,25.3013932 C775.350289,25.3013932 776.24865,24.6652357 776.813771,23.6308116 C777.419514,22.5277175 777.47502,21.4844884 777.479053,20.2937504 Z M855.967348,11.8580971 C853.366141,11.8580971 853.201696,15.5566881 853.201696,17.8633154 L853.201743,18.1785069 C853.204129,20.5899572 853.289074,25.1022091 855.934463,25.1022091 C858.667211,25.1022091 858.798752,21.1247869 858.798752,18.6988346 C858.798752,17.1081579 858.732748,15.1989563 858.271887,13.6876674 C857.876563,12.3750913 857.086149,11.8580971 855.967348,11.8580971 Z" id="Amazon"></path>
                        <path d="M611.479563,10.5925926 L620.867675,29.4473082 L630.224964,10.5925926 L636.034251,10.5925926 L619.084147,44 L612.944774,44 L617.817043,34.723805 L605.061663,10.5925926 L611.479563,10.5925926 Z M559.367245,0 L559.365288,13.888787 C562.045383,10.6613938 565.737293,9.72203781 569.376363,9.72203781 C575.469343,9.72203781 582.239756,13.8811545 582.239756,22.8560609 C582.239756,30.3754318 576.854124,35.8518519 569.273755,35.8518519 C565.305336,35.8518519 561.567573,34.4127121 559.264917,31.5587433 C559.264917,32.6996524 559.20257,33.8487593 559.079832,34.9342624 L553.712373,34.9342624 C553.805475,33.1796483 553.898576,30.992529 553.898576,29.2223674 L553.898,24.681 L531.741784,24.6816024 C532.046365,29.7630303 535.575692,32.770009 540.429381,32.770009 C543.784662,32.770009 546.777732,31.411834 547.775615,28.45234 L553.593184,28.45234 C552.463038,34.4537111 546.038614,36.4886851 540.510929,36.4886851 C530.454594,36.4886851 526,30.9947702 526,23.5843069 C526,15.4189522 530.605876,10.0517584 540.602851,10.0517584 C547.208903,10.0517584 552.34841,12.9026398 553.89916,19.0360123 L553.898576,0 L559.367245,0 Z M596.194778,9.77777778 C602.665029,9.77777778 608.134134,12.1087364 608.134134,19.0423794 L608.134134,30.3192098 C608.134134,31.9227311 608.182895,33.5048157 608.321936,34.9345869 L603.248218,34.9345869 C603.115308,33.7629022 603.063203,32.5912175 603.063203,31.4570471 C600.323356,34.8719692 597.062178,35.8518519 592.539049,35.8518519 C585.830006,35.8518519 582.239756,32.2592308 582.239756,28.1050247 C582.239756,22.098801 587.123722,19.9731833 595.603509,19.7777145 C597.921497,19.7244048 600.528155,19.7187636 602.685927,19.7187636 L602.685927,19.132075 C602.685927,15.1050788 600.133604,13.4468376 595.717472,13.4468376 C592.433167,13.4468376 590.014032,14.8196323 589.764652,17.1979773 L584.040036,17.1979773 C584.643008,11.2735515 590.794497,9.77777778 596.194778,9.77777778 Z M602.685927,23.3841565 C600.678619,23.3841565 598.205987,23.4010802 595.980227,23.4755446 C591.034126,23.641961 587.965765,24.5414561 587.965765,27.8390405 C587.965765,29.9705814 589.642887,32.2826419 593.912734,32.2826419 C599.633449,32.2826419 602.685927,29.1297552 602.685927,23.9547675 L602.685927,23.3841565 Z M567.928675,13.5049033 C562.875469,13.5049033 559.367245,17.2035292 559.367245,22.7876515 C559.367245,28.3723392 562.875469,32.0687037 567.928675,32.0687037 C573.011238,32.0687037 576.490665,28.3723392 576.490665,22.7876515 C576.490665,17.2035292 573.011238,13.5049033 567.928675,13.5049033 Z M540.364834,13.7687182 C535.978533,13.7687182 532.475716,15.9744652 531.862521,20.966931 L548.457102,20.966931 C548.240121,15.7301768 544.433012,13.7687182 540.364834,13.7687182 Z M639.457178,9.77777778 L639.457178,10.45 L640.094979,10.45 L640.094979,10.7978165 L639.457178,10.7978165 L639.457178,12.2687396 C639.457178,12.5432836 639.522804,12.6892206 639.785564,12.6892206 L640.109591,12.6576009 L640.109591,13.0048093 L639.7043,13.037037 C639.283116,13.037037 639.042915,12.87377 639.042915,12.3070481 L639.042915,10.7978165 L638.479455,10.7978165 L638.479455,10.45 L639.042915,10.45 L639.042915,9.77777778 L639.457178,9.77777778 Z M643.987913,10.5925926 C644.615292,10.5925926 645,10.9207832 645,11.6863741 L645,13.037037 L644.569693,13.037037 L644.569693,11.8576284 C644.569693,11.2874358 644.417172,10.9115186 643.948341,10.9115186 C643.572019,10.9115186 643.18469,11.1880522 643.18469,11.9643114 L643.18469,13.037037 L642.756217,13.037037 L642.756217,11.8284309 C642.756217,11.198159 642.552594,10.9115186 642.160024,10.9115186 C641.782129,10.9115186 641.367808,11.2012472 641.367808,11.8988979 L641.367808,13.037037 L640.942742,13.037037 L640.942742,11.2172496 C640.942742,11.0384152 640.931735,10.8688454 640.92466,10.6799042 L641.32614,10.6799042 L641.340553,11.0982139 L641.349726,11.0982139 C641.603927,10.7382991 641.91683,10.5925926 642.276642,10.5925926 C642.649296,10.5925926 642.954337,10.7871487 643.079603,11.1821565 C643.235792,10.8629498 643.580667,10.5925926 643.987913,10.5925926 Z" id="Ebay"></path>
                    </g>
                </g>
            </g>
        </g>
    </g>
</svg>