<svg width="64" height="64" viewBox="0 0 64 64" fill="none" xmlns="http://www.w3.org/2000/svg">
<g clip-path="url(#clip0_2001_1489)">
<path d="M63.7401 9.96766L54.5243 0.291001C54.3474 0.105125 54.1021 0 53.8454 0H19.3669C18.256 0 17.3523 0.903754 17.3523 2.01463V4.36527H13.1061C11.9953 4.36527 11.0915 5.26902 11.0915 6.3799V30.0666C11.0915 30.5844 11.5113 31.0041 12.029 31.0041C12.5468 31.0041 12.9665 30.5844 12.9665 30.0666V6.38003C12.9665 6.30565 13.0318 6.2404 13.1061 6.2404H17.3523V53.0993L14.1036 53.0986C13.5365 53.0966 13.2716 53.1042 12.9665 53.1821V34.393C12.9665 33.8753 12.5468 33.4555 12.029 33.4555C11.5113 33.4555 11.0915 33.8753 11.0915 34.393V53.8393L1.18122 57.1843C1.17072 57.1878 1.16034 57.1916 1.14997 57.1955C0.150591 57.5727 0.00146484 58.2055 0.00146484 58.5491C0.00146484 58.8927 0.150591 59.5256 1.14997 59.9027C1.16034 59.9066 1.17072 59.9104 1.18122 59.9139L11.8826 63.5259C12.0278 63.581 12.1506 63.6289 12.2569 63.6701C13.0159 63.965 13.1644 63.9999 13.9635 63.9999C14.008 63.9999 57.3426 63.9989 57.3426 63.9989C58.8714 63.9989 60.1155 62.755 60.1155 61.226V58.4856H61.9841C63.095 58.4856 63.9987 57.5819 63.9987 56.471V10.6142C63.9987 10.3734 63.9061 10.1419 63.7401 9.96766ZM6.16299 59.6165L3.0006 58.5491L6.16299 57.4817V59.6165ZM12.3635 61.7095L8.038 60.2495V56.849L12.3635 55.389V61.7095ZM54.7829 3.28126L60.8737 9.67666H54.9226C54.8482 9.67666 54.7829 9.61141 54.7829 9.53704V3.28126ZM50.7218 54.9742V62.124H47.8135V54.9742H50.7218ZM58.2404 61.2261C58.2404 61.7212 57.8377 62.124 57.3426 62.124H52.5968V54.9742H57.3426C57.8376 54.9742 58.2404 55.3771 58.2404 55.8722V61.2261ZM62.1237 56.4711C62.1237 56.5455 62.0585 56.6107 61.9841 56.6107H60.1155V55.8723C60.1155 54.3433 58.8716 53.0993 57.3426 53.0993H40.594C40.0762 53.0993 39.6565 53.5191 39.6565 54.0368C39.6565 54.5546 40.0762 54.9743 40.594 54.9743H45.9385V62.1241L14.2385 62.1244V54.9738L36.4697 54.9742C36.9875 54.9742 37.4072 54.5545 37.4072 54.0367C37.4072 53.519 36.9875 53.0992 36.4697 53.0992H19.2273V2.01463C19.2273 1.93763 19.2899 1.87501 19.3669 1.87501H52.9079V9.53704C52.9079 10.6479 53.8117 11.5517 54.9226 11.5517H62.1237V56.4711Z" fill="#FF5410"/>
<path d="M42.7251 19.2683H42.5338C42.5464 17.1237 42.5531 14.8065 42.5259 14.49C42.4714 13.8093 42.0649 13.2534 41.4904 13.0739C40.9205 12.8958 40.3119 13.1174 39.8604 13.6698C39.3486 14.3012 36.8306 18.8477 36.3311 19.7527C36.1708 20.043 36.1759 20.3965 36.3445 20.6823C36.5131 20.968 36.8201 21.1433 37.1519 21.1433H40.6461C40.6418 21.7358 40.6373 22.3045 40.6328 22.816C40.6283 23.3338 41.0443 23.7572 41.562 23.7617H41.5704C42.0843 23.7617 42.5031 23.3473 42.5076 22.8323C42.5104 22.5196 42.5155 21.9043 42.5213 21.1432H42.7253C43.243 21.1432 43.6628 20.7234 43.6628 20.2057C43.6628 19.6879 43.243 19.2683 42.7251 19.2683ZM40.6584 19.2683H38.7449C39.4676 17.9752 40.1745 16.7325 40.6699 15.8908C40.6708 16.7654 40.6658 17.9942 40.6584 19.2683Z" fill="#FF5410"/>
<path d="M24.3046 15.2614H27.1471L30.2972 21.8469C30.4518 22.1702 30.7773 22.377 31.1357 22.3799H31.1429C31.4984 22.3799 31.8237 22.1787 31.9823 21.8599L37.1432 11.4844H47.0482C47.5659 11.4844 47.9857 11.0647 47.9857 10.5469C47.9857 10.0292 47.5659 9.60941 47.0482 9.60941H36.5624C36.2067 9.60941 35.8816 9.81078 35.7231 10.1294L31.1594 19.3042L28.5837 13.9194C28.4279 13.5938 28.0991 13.3864 27.7379 13.3864H24.3047C23.7869 13.3864 23.3672 13.8062 23.3672 14.3239C23.3672 14.8417 23.7868 15.2614 24.3046 15.2614Z" fill="#FF5410"/>
<path d="M49.6643 27.5613C49.175 27.392 48.6412 27.6517 48.472 28.1411L46.9805 32.4563L45.4478 28.1341C45.2747 27.6461 44.7388 27.3911 44.251 27.5637C43.763 27.7367 43.5076 28.2726 43.6806 28.7606L45.9985 35.2973L45.1592 37.7255C44.99 38.2148 45.2497 38.7487 45.739 38.9178C45.8405 38.953 45.9437 38.9696 46.0453 38.9696C46.434 38.9696 46.7972 38.7261 46.9313 38.3381L50.2441 28.7536C50.4132 28.2642 50.1536 27.7305 49.6643 27.5613Z" fill="#FF5410"/>
<path d="M33.2604 31.4765L35.1193 29.012C35.4311 28.5986 35.3487 28.0108 34.9354 27.699C34.5218 27.3871 33.9342 27.4695 33.6224 27.883L32.0828 29.9241L30.5329 27.8808C30.2202 27.4685 29.6321 27.3876 29.2194 27.7005C28.8069 28.0133 28.7262 28.6015 29.0391 29.014L30.9094 31.4797L28.7931 34.2855C28.4813 34.6988 28.5637 35.2867 28.9769 35.5985C29.1461 35.726 29.3442 35.7876 29.5408 35.7876C29.8249 35.7876 30.1057 35.659 30.2901 35.4146L32.0871 33.0321L33.9818 35.53C34.1663 35.7731 34.4462 35.901 34.7294 35.901C34.9269 35.901 35.1259 35.8388 35.2953 35.7103C35.7078 35.3975 35.7886 34.8093 35.4757 34.3968L33.2604 31.4765Z" fill="#FF5410"/>
<path d="M41.9883 30.5961H40.4173V29.0285C40.4173 28.5107 39.9976 28.091 39.4798 28.091C38.9621 28.091 38.5423 28.5107 38.5423 29.0285V30.5961H36.9146C36.3968 30.5961 35.9771 31.0158 35.9771 31.5336C35.9771 32.0513 36.3968 32.4711 36.9146 32.4711H38.5423V34.1025C38.5423 34.6202 38.9621 35.04 39.4798 35.04C39.9976 35.04 40.4173 34.6202 40.4173 34.1025V32.4711H41.9883C42.5061 32.4711 42.9258 32.0513 42.9258 31.5336C42.9258 31.0158 42.5062 30.5961 41.9883 30.5961Z" fill="#FF5410"/>
<path d="M26.5865 38.1474C26.8264 38.1474 27.0664 38.0559 27.2494 37.8727C27.6155 37.5066 27.6155 36.913 27.2494 36.547C25.9561 35.2537 25.244 33.5345 25.244 31.7059C25.244 29.8775 25.9561 28.1592 27.2491 26.8677C27.6155 26.5019 27.6158 25.9082 27.2499 25.542C26.884 25.1757 26.2904 25.1754 25.9241 25.5412C24.2765 27.187 23.3691 29.3762 23.3691 31.7059C23.3691 34.0352 24.2764 36.2254 25.9238 37.8727C26.1066 38.0559 26.3466 38.1474 26.5865 38.1474Z" fill="#FF5410"/>
<path d="M52.5541 25.5412C52.1877 25.1752 51.5941 25.1757 51.2283 25.542C50.8624 25.9083 50.8627 26.5018 51.2291 26.8677C52.5221 28.1592 53.2342 29.8775 53.2342 31.7058C53.2342 33.5343 52.5219 35.2536 51.2288 36.547C50.8627 36.9131 50.8627 37.5067 51.2288 37.8727C51.4118 38.0557 51.6518 38.1473 51.8917 38.1473C52.1316 38.1473 52.3716 38.0558 52.5546 37.8727C54.2019 36.2253 55.1092 34.0352 55.1092 31.7058C55.1091 29.3762 54.2017 27.187 52.5541 25.5412Z" fill="#FF5410"/>
<path d="M32.3934 41.5093H25.8882C25.3704 41.5093 24.9507 41.929 24.9507 42.4468C24.9507 42.9645 25.3704 43.3843 25.8882 43.3843H32.3934C32.9112 43.3843 33.3309 42.9645 33.3309 42.4468C33.3309 41.929 32.9112 41.5093 32.3934 41.5093Z" fill="#FF5410"/>
<path d="M32.3934 45.5415H25.8882C25.3704 45.5415 24.9507 45.9613 24.9507 46.479C24.9507 46.9968 25.3704 47.4165 25.8882 47.4165H32.3934C32.9112 47.4165 33.3309 46.9968 33.3309 46.479C33.3309 45.9613 32.9112 45.5415 32.3934 45.5415Z" fill="#FF5410"/>
</g>
<defs>
<clipPath id="clip0_2001_1489">
<rect width="64" height="64" fill="white"/>
</clipPath>
</defs>
</svg>
