<svg width="64" height="64" viewBox="0 0 64 64" fill="none" xmlns="http://www.w3.org/2000/svg">
<g clip-path="url(#clip0_2001_1361)">
<path d="M3.24674 18.0374H14.7917C16.5816 18.0374 18.038 16.5811 18.038 14.7911V3.24625C18.0379 1.45625 16.5816 0 14.7917 0H8.40174C7.88386 0 7.46424 0.41975 7.46424 0.9375C7.46424 1.45525 7.88386 1.875 8.40174 1.875H14.7917C15.5479 1.875 16.163 2.49013 16.163 3.24625V14.7913C16.163 15.5474 15.5479 16.1625 14.7917 16.1625H3.24674C2.49061 16.1625 1.87549 15.5474 1.87549 14.7913V3.24625C1.87549 2.49013 2.49061 1.875 3.24674 1.875H4.02674C4.54461 1.875 4.96424 1.45525 4.96424 0.9375C4.96424 0.41975 4.54449 0 4.02674 0H3.24674C1.45674 0 0.000488281 1.45625 0.000488281 3.24625V14.7913C0.000488281 16.5811 1.45674 18.0374 3.24674 18.0374Z" fill="#FF5410"/>
<path d="M5.49492 13.9355C5.97867 14.1196 6.52042 13.877 6.7048 13.3931L7.23055 12.0126H10.8119L11.3319 13.3904C11.4735 13.7657 11.8303 13.9971 12.2092 13.9971C12.3192 13.9971 12.431 13.9776 12.54 13.9365C13.0244 13.7537 13.2689 13.2127 13.086 12.7284L10.079 4.76062C10.0759 4.75212 10.0725 4.74362 10.069 4.73512C9.89555 4.31324 9.48879 4.04062 9.03267 4.04062C9.0323 4.04062 9.03192 4.04062 9.03154 4.04062C8.57504 4.04099 8.1683 4.31437 7.99542 4.73699C7.99255 4.74399 7.98967 4.75112 7.98705 4.75824L4.95254 12.7257C4.76817 13.2096 5.01117 13.7512 5.49492 13.9355ZM9.02942 7.28937L10.1043 10.1376H7.94467L9.02942 7.28937Z" fill="#FF5410"/>
<path d="M21.1409 5.91562H27.9595C28.4774 5.91562 28.897 5.49587 28.897 4.97812C28.897 4.46037 28.4774 4.04062 27.9595 4.04062H21.1409C20.623 4.04062 20.2034 4.46037 20.2034 4.97812C20.2034 5.49587 20.6231 5.91562 21.1409 5.91562Z" fill="#FF5410"/>
<path d="M21.1409 9.95624H25.4341C25.952 9.95624 26.3716 9.53649 26.3716 9.01874C26.3716 8.50099 25.952 8.08124 25.4341 8.08124H21.1409C20.623 8.08124 20.2034 8.50099 20.2034 9.01874C20.2034 9.53649 20.6231 9.95624 21.1409 9.95624Z" fill="#FF5410"/>
<path d="M21.1409 13.9969H25.4341C25.952 13.9969 26.3716 13.5771 26.3716 13.0594C26.3716 12.5416 25.952 12.1219 25.4341 12.1219H21.1409C20.623 12.1219 20.2034 12.5416 20.2034 13.0594C20.2034 13.5771 20.6231 13.9969 21.1409 13.9969Z" fill="#FF5410"/>
<path d="M21.1409 26.1187H27.9595C28.4774 26.1187 28.897 25.699 28.897 25.1812C28.897 24.6635 28.4774 24.2437 27.9595 24.2437H21.1409C20.623 24.2437 20.2034 24.6635 20.2034 25.1812C20.2034 25.699 20.6231 26.1187 21.1409 26.1187Z" fill="#FF5410"/>
<path d="M21.1409 30.1594H25.4341C25.952 30.1594 26.3716 29.7396 26.3716 29.2219C26.3716 28.7041 25.952 28.2844 25.4341 28.2844H21.1409C20.623 28.2844 20.2034 28.7041 20.2034 29.2219C20.2034 29.7396 20.6231 30.1594 21.1409 30.1594Z" fill="#FF5410"/>
<path d="M21.1409 34.2001H25.4341C25.952 34.2001 26.3716 33.7804 26.3716 33.2626C26.3716 32.7449 25.952 32.3251 25.4341 32.3251H21.1409C20.623 32.3251 20.2034 32.7449 20.2034 33.2626C20.2034 33.7804 20.6231 34.2001 21.1409 34.2001Z" fill="#FF5410"/>
<path d="M38.3495 18.0375H49.8941C51.6843 18.0375 53.1406 16.5811 53.1406 14.791V3.2465C53.1405 1.45637 51.6843 0 49.8941 0H38.3495C36.5594 0 35.103 1.45637 35.103 3.2465V14.7911C35.103 16.5811 36.5593 18.0375 38.3495 18.0375ZM36.978 3.2465C36.978 2.49025 37.5933 1.875 38.3495 1.875H49.8941C50.6504 1.875 51.2656 2.49025 51.2656 3.2465V14.7911C51.2656 15.5474 50.6504 16.1626 49.8941 16.1626H38.3495C37.5933 16.1626 36.978 15.5474 36.978 14.7911V3.2465Z" fill="#FF5410"/>
<path d="M44.8695 13.9969C45.9645 13.9969 46.9469 13.6374 47.7106 12.9572C47.8602 12.8239 48.0026 12.6771 48.1335 12.5209C48.4661 12.1241 48.414 11.5327 48.0171 11.2002C47.6204 10.8677 47.029 10.9197 46.6965 11.3165C46.6239 11.4031 46.5456 11.484 46.4636 11.557C46.0427 11.9319 45.5065 12.1219 44.8695 12.1219C43.1585 12.1219 41.7664 10.7297 41.7664 9.01875C41.7664 7.30775 43.1585 5.91562 44.8695 5.91562C45.4915 5.91562 46.0911 6.09862 46.6039 6.445C47.0329 6.73475 47.6156 6.622 47.9055 6.19287C48.1952 5.76387 48.0825 5.18112 47.6534 4.89125C46.8295 4.33475 45.8669 4.0405 44.8695 4.0405C42.1245 4.0405 39.8914 6.27375 39.8914 9.01862C39.8914 11.7635 42.1245 13.9969 44.8695 13.9969Z" fill="#FF5410"/>
<path d="M49.8938 20.2036H44.1225C43.6046 20.2036 43.185 20.6234 43.185 21.1411C43.185 21.6589 43.6046 22.0786 44.1225 22.0786H49.8938C50.6505 22.0786 51.2661 22.6937 51.2661 23.4499V34.9949C51.2661 35.751 50.6504 36.3661 49.8938 36.3661H38.35C37.5939 36.3661 36.9788 35.751 36.9788 34.9949V23.4499C36.9788 22.6937 37.5939 22.0786 38.35 22.0786H39.7476C40.2655 22.0786 40.6851 21.6589 40.6851 21.1411C40.6851 20.6234 40.2655 20.2036 39.7476 20.2036H38.35C36.5601 20.2036 35.1038 21.6599 35.1038 23.4499V34.9949C35.1038 36.7849 36.56 38.2411 38.35 38.2411H49.8938C51.6844 38.2411 53.1411 36.7849 53.1411 34.9949V23.4499C53.1411 21.66 51.6844 20.2036 49.8938 20.2036Z" fill="#FF5410"/>
<path d="M40.4082 33.1312C40.4166 33.4221 40.4836 33.7201 40.7017 33.9279C40.8772 34.1022 41.1147 34.2 41.3621 34.2H41.3656C41.4348 34.1997 43.0662 34.1934 43.7177 34.1821C46.1037 34.1404 47.8353 32.0542 47.8353 29.2219C47.8353 26.2442 46.1471 24.2437 43.6345 24.2437H41.3457C41.0968 24.2437 40.8581 24.3427 40.6821 24.519C40.5063 24.6952 40.4077 24.9341 40.4082 25.183V25.1894V25.1896V33.1312ZM43.6346 26.1187C45.3496 26.1187 45.9605 27.7217 45.9605 29.2219C45.9605 30.7379 45.2568 32.2799 43.6851 32.3074C43.3675 32.3129 42.7943 32.3174 42.2965 32.3204C42.2935 31.3646 42.2891 29.9251 42.2891 29.213C42.2891 28.6182 42.2866 27.1127 42.285 26.1187H43.6346Z" fill="#FF5410"/>
<path d="M56.2437 5.91562H63.0623C63.5801 5.91562 63.9998 5.49587 63.9998 4.97812C63.9998 4.46037 63.5801 4.04062 63.0623 4.04062H56.2437C55.7258 4.04062 55.3062 4.46037 55.3062 4.97812C55.3062 5.49587 55.7259 5.91562 56.2437 5.91562Z" fill="#FF5410"/>
<path d="M56.2437 9.95624H60.5369C61.0548 9.95624 61.4744 9.53649 61.4744 9.01874C61.4744 8.50099 61.0548 8.08124 60.5369 8.08124H56.2437C55.7258 8.08124 55.3062 8.50099 55.3062 9.01874C55.3062 9.53649 55.7259 9.95624 56.2437 9.95624Z" fill="#FF5410"/>
<path d="M56.2437 13.9969H60.5369C61.0548 13.9969 61.4744 13.5771 61.4744 13.0594C61.4744 12.5416 61.0548 12.1219 60.5369 12.1219H56.2437C55.7258 12.1219 55.3062 12.5416 55.3062 13.0594C55.3062 13.5771 55.7259 13.9969 56.2437 13.9969Z" fill="#FF5410"/>
<path d="M63.0623 24.2437H56.2437C55.7258 24.2437 55.3062 24.6635 55.3062 25.1812C55.3062 25.699 55.7258 26.1187 56.2437 26.1187H63.0623C63.5801 26.1187 63.9998 25.699 63.9998 25.1812C63.9998 24.6635 63.5801 24.2437 63.0623 24.2437Z" fill="#FF5410"/>
<path d="M60.5369 28.2844H56.2437C55.7258 28.2844 55.3062 28.7041 55.3062 29.2219C55.3062 29.7396 55.7258 30.1594 56.2437 30.1594H60.5369C61.0548 30.1594 61.4744 29.7396 61.4744 29.2219C61.4744 28.7041 61.0548 28.2844 60.5369 28.2844Z" fill="#FF5410"/>
<path d="M60.5369 32.3251H56.2437C55.7258 32.3251 55.3062 32.7449 55.3062 33.2626C55.3062 33.7804 55.7258 34.2001 56.2437 34.2001H60.5369C61.0548 34.2001 61.4744 33.7804 61.4744 33.2626C61.4744 32.7448 61.0548 32.3251 60.5369 32.3251Z" fill="#FF5410"/>
<path d="M32.4245 44.663L30.9331 39.837C30.3799 38.0447 28.483 36.9779 26.7052 37.4585C26.1086 37.6197 25.5795 37.9277 25.1566 38.3522C24.4494 36.8076 22.7517 35.9684 21.0966 36.4159C20.493 36.579 19.9587 36.8921 19.5335 37.324C19.1826 36.618 18.6202 36.0694 17.9522 35.7362C18.0085 35.4954 18.0375 35.247 18.0375 34.9946V23.4496C18.0375 21.6596 16.5812 20.2034 14.7912 20.2034H3.24625C1.45637 20.2034 0 21.6596 0 23.4496V34.9946C0 36.7846 1.45625 38.2409 3.24625 38.2409H7.33312L9.32287 44.682C8.7855 44.5855 8.22875 44.6182 7.69187 44.7839C6.23125 45.2354 5.25 46.5649 5.25 48.0921C5.25 48.4344 5.30212 48.778 5.4055 49.115L8.63587 59.5722C9.02225 60.8182 9.78437 61.8825 10.841 62.6511L12.4547 63.8211C12.621 63.9416 12.8135 63.9996 13.0042 63.9996C13.2944 63.9996 13.5806 63.8652 13.764 63.6124C14.0679 63.1932 13.9745 62.607 13.5552 62.303L11.9427 61.1339C11.2166 60.6057 10.6925 59.8737 10.427 59.0179L7.1975 48.5635C6.931 47.7382 7.41312 46.8206 8.24525 46.5755C9.05487 46.3069 9.99775 46.8031 10.2314 47.6239L12.0176 53.4056L11.4486 54.4834C11.2067 54.9412 11.382 55.5084 11.8399 55.7501C11.9795 55.8239 12.1291 55.8587 12.2767 55.8587C12.6132 55.8587 12.9386 55.677 13.1067 55.3589L13.8571 53.9376C13.9732 53.7177 13.9971 53.4607 13.9237 53.2231L7.55075 32.5927C7.0225 30.521 9.89237 29.6805 10.6019 31.7129L15.4299 47.3396C15.8415 48.5167 17.5474 47.979 17.2214 46.7861L14.9105 39.3062C14.9097 39.304 14.9087 39.3019 14.9081 39.2996C14.7822 38.886 14.8277 38.4497 15.0369 38.0704C15.2466 37.6897 15.594 37.4174 16.014 37.3039C16.8285 37.0845 17.703 37.5882 17.9621 38.4285L20.2556 45.8487C20.6672 47.0259 22.3731 46.4881 22.0471 45.2952C22.0471 45.2952 20.4829 40.2307 20.4821 40.228C20.3536 39.8122 20.3984 39.3735 20.6082 38.9926C20.8179 38.6122 21.1651 38.34 21.5861 38.2262C22.4012 38.0064 23.2747 38.5101 23.5344 39.3489L25.0815 44.3579C25.4306 45.5299 27.2475 44.9576 26.873 43.8044L26.0871 41.2604C25.9629 40.848 26.0085 40.4134 26.2169 40.0352C26.4267 39.6546 26.774 39.3824 27.1947 39.2686C28.01 39.0479 28.8829 39.5515 29.1419 40.3904L30.6332 45.2166C30.7861 45.7112 31.3105 45.9889 31.8057 45.8355C32.3002 45.6826 32.5774 45.1577 32.4245 44.663ZM8.9 27.9629C8.73187 27.9629 8.41925 27.9637 8.07575 27.965H7.49012V26.1187H8.9C9.40837 26.1187 9.822 26.5324 9.822 27.0407C9.822 27.5492 9.40837 27.9629 8.9 27.9629ZM14.0007 36.3635L12.4177 31.2384C12.4179 31.2359 12.4184 31.2334 12.4185 31.2309C12.4211 31.18 12.4225 31.1287 12.4225 31.0772C12.4225 30.0761 11.947 29.1846 11.2105 28.6149C11.5172 28.1661 11.697 27.624 11.697 27.0406C11.697 25.4984 10.4422 24.2436 8.9 24.2436H6.55262C6.03475 24.2436 5.61512 24.6634 5.61512 25.1811V33.2622C5.61512 33.5125 5.71525 33.7524 5.89312 33.9285C5.9375 33.9724 5.98575 34.0114 6.03712 34.0451L6.75412 36.366H3.24637C2.49025 36.366 1.87512 35.7509 1.87512 34.9947V23.4497C1.87512 22.6936 2.49025 22.0785 3.24637 22.0785H14.7914C15.5475 22.0785 16.1626 22.6936 16.1626 23.4497V34.9947C16.1626 35.1302 16.1424 35.2627 16.1044 35.3895C15.912 35.4075 15.7185 35.4415 15.5256 35.4935C14.94 35.6517 14.4196 35.9514 14.0007 36.3635Z" fill="#FF5410"/>
<path d="M35.3724 58.4795L35.1275 54.0188C35.1006 53.5269 35.0136 53.0416 34.8696 52.5781L33.7159 48.8431C33.563 48.3485 33.0385 48.0715 32.5434 48.2241C32.0487 48.377 31.7715 48.9019 31.9244 49.3966L33.0786 53.1331C33.1775 53.4509 33.2369 53.7833 33.2554 54.1213L33.5066 58.6975C33.5107 58.7739 33.5244 58.8496 33.5469 58.9228L34.9106 63.339C35.0349 63.7416 35.4057 64.0001 35.806 64.0001C35.8976 64.0001 35.9909 63.9866 36.083 63.9581C36.5777 63.8054 36.855 63.2805 36.7021 62.7858L35.3724 58.4795Z" fill="#FF5410"/>
</g>
<defs>
<clipPath id="clip0_2001_1361">
<rect width="64" height="64" fill="white"/>
</clipPath>
</defs>
</svg>
