<svg width="64" height="64" viewBox="0 0 64 64" fill="none" xmlns="http://www.w3.org/2000/svg">
<path d="M57.79 6.17624H43.73C43.2121 6.17624 42.7925 6.59586 42.7925 7.11374C42.7925 7.63161 43.2121 8.05124 43.73 8.05124H57.79C58.3079 8.05124 58.7275 7.63161 58.7275 7.11374C58.7275 6.59586 58.3079 6.17624 57.79 6.17624Z" fill="#FF5410"/>
<path d="M42.7925 23.7046C42.7925 24.2225 43.2121 24.6421 43.73 24.6421H57.79C58.3079 24.6421 58.7275 24.2225 58.7275 23.7046C58.7275 23.1867 58.3079 22.7671 57.79 22.7671H43.73C43.2121 22.7671 42.7925 23.1867 42.7925 23.7046Z" fill="#FF5410"/>
<path d="M57.79 39.3579H43.73C43.2121 39.3579 42.7925 39.7775 42.7925 40.2954C42.7925 40.8133 43.2121 41.2329 43.73 41.2329H57.79C58.3079 41.2329 58.7275 40.8133 58.7275 40.2954C58.7275 39.7775 58.3079 39.3579 57.79 39.3579Z" fill="#FF5410"/>
<path d="M61.8125 2.09888H39.7075C38.5014 2.09888 37.52 3.08025 37.52 4.28638V9.94113C37.52 11.1473 38.5014 12.1286 39.7075 12.1286H61.8125C63.0186 12.1286 64 11.1473 64 9.94113V4.28638C64 3.08025 63.0186 2.09888 61.8125 2.09888ZM62.125 9.94113C62.125 10.1135 61.9849 10.2536 61.8125 10.2536H39.7075C39.5351 10.2536 39.395 10.1135 39.395 9.94113V4.28638C39.395 4.114 39.5351 3.97388 39.7075 3.97388H61.8125C61.9849 3.97388 62.125 4.114 62.125 4.28638V9.94113Z" fill="#FF5410"/>
<path d="M61.8125 18.6898H56.125C55.6071 18.6898 55.1875 19.1094 55.1875 19.6273C55.1875 20.1451 55.6071 20.5648 56.125 20.5648H61.8125C61.9849 20.5648 62.125 20.7049 62.125 20.8773V26.532C62.125 26.7044 61.9849 26.8445 61.8125 26.8445H39.7075C39.5351 26.8445 39.395 26.7044 39.395 26.532V20.8773C39.395 20.7049 39.5351 20.5648 39.7075 20.5648H51.75C52.2679 20.5648 52.6875 20.1451 52.6875 19.6273C52.6875 19.1094 52.2679 18.6898 51.75 18.6898H39.7075C38.5014 18.6898 37.52 19.6711 37.52 20.8773V26.532C37.52 27.7381 38.5014 28.7195 39.7075 28.7195H61.8125C63.0186 28.7195 64 27.7381 64 26.532V20.8773C64 19.671 63.0186 18.6898 61.8125 18.6898Z" fill="#FF5410"/>
<path d="M61.8125 35.2805H39.7075C38.5014 35.2805 37.52 36.2619 37.52 37.468V43.1228C37.52 44.3289 38.5014 45.3103 39.7075 45.3103H61.8125C63.0186 45.3103 64 44.3289 64 43.1228V37.468C64 36.2619 63.0186 35.2805 61.8125 35.2805ZM62.125 43.1228C62.125 43.2951 61.9849 43.4353 61.8125 43.4353H39.7075C39.5351 43.4353 39.395 43.2951 39.395 43.1228V37.468C39.395 37.2956 39.5351 37.1555 39.7075 37.1555H61.8125C61.9849 37.1555 62.125 37.2956 62.125 37.468V43.1228Z" fill="#FF5410"/>
<path d="M61.8125 51.8714H47.75C47.2321 51.8714 46.8125 52.291 46.8125 52.8089C46.8125 53.3267 47.2321 53.7464 47.75 53.7464H61.8125C61.9849 53.7464 62.125 53.8865 62.125 54.0589V59.7136C62.125 59.886 61.9849 60.0261 61.8125 60.0261H39.7075C39.5351 60.0261 39.395 59.886 39.395 59.7136V54.0589C39.395 53.8865 39.5351 53.7464 39.7075 53.7464H43.375C43.8929 53.7464 44.3125 53.3267 44.3125 52.8089C44.3125 52.291 43.8929 51.8714 43.375 51.8714H39.7075C38.5014 51.8714 37.52 52.8527 37.52 54.0589V59.7136C37.52 60.9197 38.5014 61.9011 39.7075 61.9011H61.8125C63.0186 61.9011 64 60.9197 64 59.7136V54.0589C64 52.8526 63.0186 51.8714 61.8125 51.8714Z" fill="#FF5410"/>
<path d="M42.7925 56.8863C42.7925 57.4041 43.2121 57.8238 43.73 57.8238H57.79C58.3079 57.8238 58.7275 57.4041 58.7275 56.8863C58.7275 56.3684 58.3079 55.9488 57.79 55.9488H43.73C43.2121 55.9488 42.7925 56.3684 42.7925 56.8863Z" fill="#FF5410"/>
<path d="M33.9116 7.11376C33.9116 5.12376 32.2927 3.50488 30.3027 3.50488C28.3127 3.50488 26.6938 5.12376 26.6938 7.11376C26.6938 8.77951 27.8285 10.1845 29.3652 10.5984V20.2199C27.8285 20.6338 26.6938 22.0388 26.6938 23.7045C26.6938 25.3703 27.8285 26.7753 29.3652 27.1891V36.8106C27.8285 37.2245 26.6938 38.6295 26.6938 40.2953C26.6938 41.961 27.8285 43.366 29.3652 43.7799V53.4014C27.8285 53.8153 26.6938 55.2203 26.6938 56.886C26.6938 58.876 28.3127 60.4949 30.3027 60.4949C32.2927 60.4949 33.9116 58.876 33.9116 56.886C33.9116 55.2203 32.777 53.8153 31.2402 53.4014V43.78C32.777 43.3661 33.9116 41.9611 33.9116 40.2954C33.9116 38.6296 32.777 37.2246 31.2402 36.8108V27.1893C32.777 26.7754 33.9116 25.3704 33.9116 23.7046C33.9116 22.0389 32.777 20.6339 31.2402 20.22V10.5984C32.777 10.1845 33.9116 8.77951 33.9116 7.11376ZM28.5688 7.11376C28.5688 6.15776 29.3467 5.37988 30.3027 5.37988C31.2587 5.37988 32.0366 6.15776 32.0366 7.11376C32.0366 8.06976 31.2587 8.84763 30.3027 8.84763C29.3467 8.84763 28.5688 8.06988 28.5688 7.11376ZM32.0366 56.8863C32.0366 57.8423 31.2587 58.6201 30.3027 58.6201C29.3467 58.6201 28.5688 57.8423 28.5688 56.8863C28.5688 55.9303 29.3467 55.1524 30.3027 55.1524C31.2587 55.1524 32.0366 55.9301 32.0366 56.8863ZM32.0366 40.2954C32.0366 41.2514 31.2587 42.0293 30.3027 42.0293C29.3467 42.0293 28.5688 41.2514 28.5688 40.2954C28.5688 39.3394 29.3467 38.5615 30.3027 38.5615C31.2587 38.5615 32.0366 39.3394 32.0366 40.2954ZM32.0366 23.7046C32.0366 24.6606 31.2587 25.4385 30.3027 25.4385C29.3467 25.4385 28.5688 24.6606 28.5688 23.7046C28.5688 22.7486 29.3467 21.9708 30.3027 21.9708C31.2587 21.9708 32.0366 22.7485 32.0366 23.7046Z" fill="#FF5410"/>
<path d="M18.2225 40.3083C18.7404 40.3083 19.16 39.8886 19.16 39.3708V31.8828C19.16 31.3649 18.7404 30.9453 18.2225 30.9453H16.8069C16.289 30.9453 15.8694 31.3649 15.8694 31.8828C15.8694 32.4006 16.289 32.8203 16.8069 32.8203H17.285V39.3708C17.285 39.8885 17.7048 40.3083 18.2225 40.3083Z" fill="#FF5410"/>
<path d="M22.4338 19.1418H20.3838V18.125C20.3838 17.6071 19.9641 17.1875 19.4463 17.1875C18.9284 17.1875 18.5088 17.6071 18.5088 18.125V19.1418H9.44V18.125C9.44 17.6071 9.02037 17.1875 8.5025 17.1875C7.98462 17.1875 7.565 17.6071 7.565 18.125V19.1418H5.515C4.23162 19.1418 3.18762 20.1859 3.18762 21.4691V30.625C3.18762 31.1429 3.60725 31.5625 4.12512 31.5625C4.643 31.5625 5.06262 31.1429 5.06262 30.625V27.4266H22.8862V44.4851C22.8862 44.7346 22.6834 44.9375 22.4339 44.9375H13.8862C13.9246 44.642 13.9465 44.3414 13.9465 44.0356C13.9465 42.6261 13.5249 41.314 12.803 40.2159C14.0255 39.8964 14.9305 38.7826 14.9305 37.4614C14.9305 36.0724 13.9305 34.9123 12.6126 34.6637L14.4091 32.4779C14.6394 32.1978 14.6875 31.81 14.5325 31.4821C14.3775 31.1542 14.0475 30.9451 13.6849 30.9451H9.72612C9.20825 30.9451 8.78862 31.3648 8.78862 31.8826C8.78862 32.4005 9.20825 32.8201 9.72612 32.8201H11.7009L9.94487 34.9567C9.71462 35.2367 9.6665 35.6246 9.8215 35.9525C9.9765 36.2804 10.3065 36.4895 10.6691 36.4895H12.0836C12.6195 36.4895 13.0554 36.9255 13.0554 37.4614C13.0554 37.9973 12.6195 38.4331 12.0836 38.4331H11.1199C9.96012 37.5725 8.52537 37.0624 6.9735 37.0624C6.31087 37.0624 5.67037 37.1572 5.06275 37.3306V35C5.06275 34.4821 4.64313 34.0625 4.12525 34.0625C3.60737 34.0625 3.18775 34.4821 3.18775 35V38.1842C1.27113 39.4284 0 41.5858 0 44.0356C0 47.8808 3.12812 51.0089 6.97325 51.0089C9.83162 51.0089 12.2926 49.2794 13.368 46.8125H22.4336C23.717 46.8125 24.761 45.7684 24.761 44.4851V21.4691C24.7611 20.1858 23.717 19.1418 22.4338 19.1418ZM6.97325 49.1339C4.16212 49.1339 1.875 46.8468 1.875 44.0356C1.875 41.2245 4.16212 38.9375 6.97325 38.9375C9.78438 38.9375 12.0714 41.2245 12.0714 44.0356C12.0714 46.8468 9.78438 49.1339 6.97325 49.1339ZM22.8861 25.5515H5.0625V21.4691C5.0625 21.2196 5.2655 21.0168 5.51487 21.0168H7.56488V22.0335C7.56488 22.5514 7.9845 22.971 8.50237 22.971C9.02025 22.971 9.43987 22.5514 9.43987 22.0335V21.0168H18.5086V22.0335C18.5086 22.5514 18.9282 22.971 19.4461 22.971C19.964 22.971 20.3836 22.5514 20.3836 22.0335V21.0168H22.4336C22.6831 21.0168 22.886 21.2196 22.886 21.4691V25.5515H22.8861Z" fill="#FF5410"/>
<path d="M9.35314 43.0981H7.91064V40.6714C7.91064 40.1535 7.49102 39.7339 6.97314 39.7339C6.45527 39.7339 6.03564 40.1535 6.03564 40.6714V44.0356C6.03564 44.5535 6.45527 44.9731 6.97314 44.9731H9.35314C9.87102 44.9731 10.2906 44.5535 10.2906 44.0356C10.2906 43.5178 9.87102 43.0981 9.35314 43.0981Z" fill="#FF5410"/>
</svg>
