<svg width="64" height="64" viewBox="0 0 64 64" fill="none" xmlns="http://www.w3.org/2000/svg">
<circle cx="32" cy="32" r="32" fill="#FF5410"/>
<path d="M19.9375 29.9376H29.0625C30.0964 29.9376 30.9375 29.0964 30.9375 28.0626V26.0001C31.0226 25.9304 30.8313 26.1395 33.3167 23.3156C34.4684 22.2822 33.9377 20.3578 32.3971 20.0777C32.2812 20.0565 33.1645 20.0626 19.9375 20.0626C18.9036 20.0626 18.0625 20.9037 18.0625 21.9376V28.0626C18.0625 29.0964 18.9036 29.9376 19.9375 29.9376Z" fill="white"/>
<path d="M46.1249 35.0626C31.1157 35.0626 31.8209 35.0379 31.6028 35.0778C30.0651 35.3574 29.5293 37.2803 30.6833 38.3158C33.164 41.1345 32.9778 40.931 33.0624 41.0001V43.0626C33.0624 44.0965 33.9035 44.9376 34.9374 44.9376H46.1249C47.1588 44.9376 47.9999 44.0965 47.9999 43.0626V36.9376C47.9999 35.9038 47.1588 35.0626 46.1249 35.0626ZM39.5205 40.7795C39.0683 41.0777 38.4904 40.9314 38.2205 40.5207C37.9335 40.0856 38.0485 39.5116 38.4793 39.2206C38.9215 38.9301 39.4933 39.0546 39.7793 39.4795C40.0677 39.9168 39.9495 40.49 39.5205 40.7795ZM43.7793 40.5208C43.3273 41.2085 42.2516 41.0083 42.0805 40.1833C41.9835 39.6655 42.3091 39.1863 42.8167 39.0808C43.6555 38.9239 44.2309 39.836 43.7793 40.5208Z" fill="white"/>
<path d="M45.2586 26.6432C42.7411 29.531 38.2816 29.5345 35.7576 26.6614C34.1126 27.9349 33.0625 29.8549 33.0625 32.0002C33.0625 32.5179 33.4822 32.9377 34 32.9377H47.0625C47.5802 32.9377 48 32.5179 48 32.0002C48 29.8448 46.9311 27.9166 45.2586 26.6432Z" fill="white"/>
<path d="M28.2317 40.6531C25.7102 43.5087 21.2696 43.508 18.7521 40.6349C17.0735 41.9082 16 43.8401 16 46.0001C16 46.5179 16.4197 46.9376 16.9375 46.9376H30C30.5177 46.9376 30.9375 46.5179 30.9375 46.0001C30.9375 43.8503 29.8829 41.9266 28.2317 40.6531Z" fill="white"/>
<path d="M23.5002 40.9172C25.9509 40.9172 27.9375 38.9351 27.9375 36.4899C27.9375 34.0448 25.9509 32.0626 23.5002 32.0626C21.0496 32.0626 19.063 34.0448 19.063 36.4899C19.063 38.9351 21.0496 40.9172 23.5002 40.9172Z" fill="white"/>
<path d="M40.4997 26.9376C42.9506 26.9376 44.9374 24.9508 44.9374 22.4999C44.9374 20.0491 42.9506 18.0623 40.4997 18.0623C38.0488 18.0623 36.062 20.0491 36.062 22.4999C36.062 24.9508 38.0488 26.9376 40.4997 26.9376Z" fill="white"/>
</svg>
