<svg width="64" height="64" viewBox="0 0 64 64" fill="none" xmlns="http://www.w3.org/2000/svg">
<circle cx="32" cy="32" r="32" fill="#FF5410"/>
<g clip-path="url(#clip0_2001_2161)">
<path d="M45.0543 25.5375H37.021C35.3913 25.5375 34.0752 26.8566 34.0752 28.4834V45.5541C34.0752 47.1838 35.3941 48.5 37.021 48.5H45.0543C46.684 48.4999 48.0002 47.1809 48.0002 45.5541V28.4833C48.0002 26.8536 46.681 25.5375 45.0543 25.5375ZM42.0419 29.5541H40.0335C39.5157 29.5541 39.096 29.1343 39.096 28.6166C39.096 28.0988 39.5157 27.6791 40.0335 27.6791H42.0419C42.5596 27.6791 42.9794 28.0988 42.9794 28.6166C42.9794 29.1343 42.5596 29.5541 42.0419 29.5541Z" fill="white"/>
<path d="M26.0418 42.6082H23.9668C23.449 42.6082 23.0293 43.028 23.0293 43.5457C23.0293 44.0635 23.449 44.4832 23.9668 44.4832H32.2001V40.3333H26.0417V42.6082H26.0418Z" fill="white"/>
<path d="M45.0541 23.6625C45.3748 23.6625 45.6882 23.6947 45.9916 23.7547V19.4458C45.9916 17.8215 44.6701 16.5 43.0458 16.5H18.9458C17.3215 16.5 16 17.8216 16 19.4459V35.5125C16 37.1368 17.3215 38.4583 18.9458 38.4583H32.2V28.4834C32.2 25.8251 34.3626 23.6624 37.0208 23.6624L45.0541 23.6625Z" fill="white"/>
</g>
<defs>
<clipPath id="clip0_2001_2161">
<rect width="31.9999" height="32" fill="white" transform="translate(16 16.5)"/>
</clipPath>
</defs>
</svg>
