<svg width="223" height="9" viewBox="0 0 223 9" fill="none" xmlns="http://www.w3.org/2000/svg">
<g clip-path="url(#clip0_2_55)">
<path d="M205.167 1.04652C200.333 0.837214 195.417 0.627911 190.5 0.418609C188.917 0.348841 187.25 0.348841 185.667 0.279074C182.167 0.209307 178.667 0.139539 175.167 0.0697717C173.25 4.25428e-06 171.25 4.25428e-06 169.333 -0.0697632C168.75 -0.0697632 168.167 -0.0697632 167.667 -0.0697632C166.417 -0.0697632 165.167 -0.0697632 163.833 -0.0697632C158.083 -0.0697632 152.333 -0.0697632 146.583 -0.0697632C145.25 -0.0697632 143.833 -0.0697632 142.5 4.25428e-06C139.083 0.0697717 135.75 0.0697717 132.333 0.139539C128.5 0.209307 124.667 0.209307 120.833 0.279074C114.667 0.418609 108.417 0.558144 102.25 0.697679C98.6667 0.767446 95.0833 0.837214 91.5 0.906981C85.3333 1.11628 79.1667 1.32559 73 1.53489C69.5833 1.67442 66.25 1.74419 62.8333 1.88373C56.4167 2.23256 50 2.51163 43.5833 2.7907C40.1667 2.93024 36.75 3.06977 33.3333 3.27907C27 3.69768 20.5833 4.18605 14.25 4.67442C12.9167 4.74419 11.5 4.88372 10.0833 4.95349C7.41667 5.16279 4.66667 5.51163 1.91667 5.7907C1.75 5.7907 1.58333 5.86047 1.41667 5.86047C1.08333 5.86047 0.833333 6 0.583333 6.20931C0.166667 6.55814 0 6.97675 0 7.39535C0 7.81396 0.166667 8.23256 0.583333 8.51163C0.916667 8.7907 1.5 9 1.91667 9C5.25 8.72093 8.5 8.3721 11.8333 8.09303C14.9167 7.88373 18 7.67442 21.0833 7.46512C24.4167 7.25582 27.75 6.97675 31.1667 6.76745C32.5 6.69768 33.8333 6.55814 35.25 6.48838C40.5 6.27907 45.6667 6 50.9167 5.7907C54.1667 5.65117 57.4167 5.51163 60.6667 5.3721C62 5.30233 63.3333 5.23256 64.6667 5.16279C69.8333 4.95349 75 4.81396 80.1667 4.60466C83.3333 4.53489 86.4167 4.39535 89.5833 4.32559C90.6667 4.32559 91.6667 4.25582 92.75 4.25582C98.3333 4.11628 103.917 4.04652 109.5 3.90698C112.583 3.83721 115.75 3.76745 118.833 3.69768C119.917 3.69768 121.083 3.62791 122.167 3.62791C127.917 3.55814 133.667 3.55814 139.5 3.48838C143.083 3.48838 146.667 3.41861 150.25 3.41861C156.333 3.41861 162.5 3.41861 168.583 3.48838C169.75 3.48838 171 3.55814 172.167 3.55814C175.583 3.62791 178.917 3.69768 182.333 3.83721C184.833 3.90698 187.417 3.97675 189.917 4.04652C191.75 4.11628 193.5 4.18605 195.333 4.25582C200.583 4.46512 205.917 4.74419 211.167 5.02326C212.5 5.09303 213.833 5.16279 215.167 5.23256C216.583 5.30233 218.083 5.3721 219.5 5.51163C219.75 5.51163 219.917 5.5814 220.167 5.65117C220.75 5.72093 221.25 5.72093 221.75 5.44186C222.25 5.23256 222.583 4.81396 222.75 4.39535C223.083 3.48838 222.417 2.51163 221.25 2.23256C220.25 2.02326 219.25 1.95349 218.333 1.81396C217.667 1.74419 217 1.67442 216.333 1.67442C215 1.53489 213.667 1.53489 212.417 1.39535C210.083 1.32559 207.583 1.18605 205.167 1.04652Z" fill="#FF5410"/>
</g>
<defs>
<clipPath id="clip0_2_55">
<rect width="223" height="9" fill="white"/>
</clipPath>
</defs>
</svg>
