<?xml version="1.0" encoding="UTF-8"?>
<svg width="208px" height="72px" viewBox="0 0 208 72" version="1.1" xmlns="http://www.w3.org/2000/svg" xmlns:xlink="http://www.w3.org/1999/xlink">
    <!-- Generator: Sketch 63.1 (92452) - https://sketch.com -->
    <title>Logo/Full/Color</title>
    <desc>Created with Sketch.</desc>
    <g id="Home-Page" stroke="none" stroke-width="1" fill="none" fill-rule="evenodd">
        <g id="Desktop" transform="translate(-204.000000, -66.000000)">
            <g id="Header">
                <g id="Logo/Full/Color" transform="translate(204.000000, 66.000000)">
                    <g id="Group" transform="translate(0.000000, 0.000000)">
                        <path d="M84.7756875,11.6461572 C86.7504712,11.6461572 88.3709626,11.980018 89.6566418,12.6477396 C90.927711,13.3018089 92.1281652,14.4076453 93.239742,15.9515964 L93.239742,15.9515964 L93.239742,12.2133482 L102.345419,12.2133482 L102.345419,36.0564709 L102.375856,37.1784418 C102.375856,38.7608675 102.030086,40.2638617 101.354374,41.7035589 C100.682315,43.132086 99.7825827,44.2900493 98.666136,45.1848956 C97.5375142,46.0722951 96.1142576,46.7089888 94.3902787,47.1073878 C92.6736049,47.5020634 90.6915161,47.69816 88.4647101,47.69816 C83.3755634,47.69816 79.8752532,46.942319 77.9759544,45.4145025 C76.0815256,43.8928915 75.1294412,41.8537342 75.1294412,39.3069596 C75.1294412,38.9842688 75.1477037,38.5523597 75.1805762,38.0186788 L75.1805762,38.0186788 L84.6113251,39.1021751 C84.8475199,39.9684756 85.2176397,40.5766235 85.6997694,40.906761 C86.4144414,41.4007261 87.3105208,41.6501908 88.3904426,41.6501908 C89.7856967,41.6501908 90.832746,41.274132 91.5145456,40.5331844 C92.2048677,39.7959602 92.5482024,38.5014738 92.5482024,36.6646188 L92.5482024,36.6646188 L92.5482024,32.8543858 C91.5997705,33.9527755 90.6489037,34.7644668 89.6882968,35.259673 C88.1944253,36.0403363 86.5812388,36.425083 84.8560424,36.425083 C81.4543496,36.425083 78.7283689,34.9531168 76.6403578,32.0054609 C75.1647487,29.9166589 74.4269442,27.1489652 74.4269442,23.7172733 C74.4269442,19.7829284 75.3778111,16.7930746 77.2905023,14.7328183 C79.1971061,12.6787676 81.6832395,11.6461572 84.7756875,11.6461572 Z M49.0725232,2.66430854 L49.0725232,37.4491297 L39.3422695,37.4491297 L39.3422695,37.0085327 C37.3918357,37.7718204 35.5107995,38.1528437 33.6808981,38.1528437 C27.9391719,38.1528437 23.5086922,35.7016352 21.1199588,31.5798815 L21.1199588,31.5798815 L11.6368574,38.2980545 L9.22133901,39.9748053 L0.707367041,28.0824103 L3.56727268,26.0556642 L7.95635734,32.1867883 L19.1634376,24.2411493 L19.1561326,23.7062273 C19.1561326,22.0046542 19.4069374,20.3837538 19.8975896,18.8844829 L19.8975896,18.8844829 L13.942801,18.8844829 C13.7017361,19.6713519 13.1636015,20.3192156 12.4379719,20.7039623 L12.4379719,20.7039623 L14.3263132,23.4691737 L7.06514791,28.3492507 L2.1391076e-13,17.9387508 L7.26116529,13.059915 L9.07158661,15.7245959 C9.61459126,15.2802755 10.2866508,14.9985417 11.0366303,14.9985417 C11.2363002,14.9985417 11.6003325,15.0097118 11.6003325,15.0097118 L11.6003325,15.0097118 L21.8285433,15.0097118 C24.4376441,11.2813925 28.7378513,8.93567905 33.6808981,8.93567905 C35.6678569,8.93567905 37.5902881,9.30429117 39.3422695,9.98938844 L39.3422695,9.98938844 L39.3422695,2.66430854 L49.0725232,2.66430854 Z M162.881306,11.6456607 C165.789911,11.6456607 168.13238,11.8008005 169.900188,12.1346613 C171.665562,12.4647988 173.128996,13.1325204 174.316058,14.1601663 C175.139088,14.8775327 175.792885,15.8853207 176.270144,17.1872537 C176.752274,18.4953923 176.990904,19.7464395 176.990904,20.9366719 L176.990904,20.9366719 L176.990904,32.0769493 C176.990904,33.2622173 177.061519,34.1930559 177.212489,34.8682243 C177.363459,35.5347048 177.688531,36.3960408 178.201098,37.4497502 L178.201098,37.4497502 L169.108814,37.4497502 C168.739912,36.796922 168.501282,36.3104037 168.390489,35.9604083 C168.28822,35.6327531 168.170122,35.0953489 168.060547,34.3655714 C166.784608,35.5831084 165.508669,36.4531323 164.254645,36.9768842 C162.541623,37.6743926 160.52788,38.0194235 158.253591,38.0194235 C155.228106,38.0194235 152.924597,37.3206739 151.356458,35.9206925 C149.789537,34.5269168 149.003032,32.807968 149.003032,30.7563995 C149.003032,28.8363896 149.569169,27.2564461 150.703878,26.0140867 C151.826413,24.7766918 153.914424,23.8582643 156.969129,23.2525986 C160.61554,22.5215799 162.98114,22.0127215 164.06228,21.7185764 C165.151942,21.4281548 166.298826,21.0446492 167.50902,20.5630953 C167.50902,19.3852741 167.267955,18.5574483 166.765128,18.0895467 C166.274476,17.6079928 165.400311,17.3771448 164.158462,17.3771448 C162.561103,17.3771448 161.359432,17.6290918 160.569275,18.1367092 C159.937392,18.533867 159.444305,19.2760557 159.053488,20.3744454 L159.053488,20.3744454 L149.770057,19.4200254 C150.118261,17.8003661 150.625958,16.5307022 151.290713,15.6073102 C151.950598,14.6727481 152.897812,13.8709858 154.144531,13.1858885 C155.041828,12.698129 156.252022,12.3208291 157.825031,12.0453008 C159.385865,11.7859071 161.059927,11.6456607 162.881306,11.6456607 Z M139.098919,2.66480499 L139.098919,12.2127277 L144.402346,12.2127277 L144.402346,19.2957895 L139.098919,19.2957895 L139.098919,28.2603866 C139.098919,29.3314717 139.195102,30.0401502 139.404512,30.3913866 C139.721062,30.9337553 140.276241,31.1993546 141.071268,31.1993546 C141.792028,31.1993546 142.78916,30.9958112 144.076056,30.5850011 L144.076056,30.5850011 L144.801686,37.2336715 C142.393472,37.7599057 140.147186,38.0192994 138.062828,38.0192994 C135.647309,38.0192994 133.868543,37.7164665 132.718006,37.0884607 C131.573557,36.4716249 130.731047,35.5345807 130.18926,34.2810512 C129.630428,33.0163517 129.352838,30.9796767 129.352838,28.1648205 L129.352838,28.1648205 L129.352838,19.2957895 L125.775826,19.2957895 L125.775826,12.2127277 L129.352838,12.2127277 L129.352838,7.60197338 L139.098919,2.66480499 Z M67.3732408,12.2137206 L67.3732408,37.4493779 L57.6393346,37.4493779 L57.6393346,12.2137206 L67.3732408,12.2137206 Z M194.424153,2.66455677 L194.424153,37.4493779 L184.680507,37.4493779 L184.680507,2.66455677 L194.424153,2.66455677 Z M119.892504,12.2137206 L119.892504,37.4493779 L110.159816,37.4493779 L110.159816,12.2137206 L119.892504,12.2137206 Z M167.50902,25.4096621 C166.172206,25.8899749 164.764777,26.310714 163.313518,26.6830494 C161.336299,27.203078 160.083492,27.7255888 159.55875,28.2443762 C159.008441,28.7693692 158.732068,29.3737938 158.732068,30.0402743 C158.732068,30.8147321 159.008441,31.443979 159.540488,31.936703 C160.073752,32.4232213 160.860257,32.6726861 161.902436,32.6726861 C162.988445,32.6726861 163.992882,32.4033634 164.937662,31.8659592 C165.862961,31.3459307 166.527716,30.6993081 166.922185,29.9409848 C167.316655,29.176456 167.50902,28.1872847 167.50902,26.9697477 L167.50902,26.9697477 Z M34.7206425,16.9073816 C30.9317849,16.9073816 28.532094,19.4975953 28.532094,23.6441714 C28.532094,27.8478389 30.883085,30.4529461 34.7206425,30.4529461 C36.2973039,30.4529461 37.8751829,30.0520649 39.3422695,29.2180334 L39.3422695,29.2180334 L39.3422695,18.035558 C37.809438,17.289646 36.236429,16.9073816 34.7206425,16.9073816 Z M88.1725103,18.6522697 C86.9391836,18.6522697 85.9505742,19.1040367 85.2176397,20.0063297 C84.4664427,20.912346 84.0938879,22.4116169 84.0938879,24.5041422 C84.0938879,26.3534084 84.4871402,27.7111918 85.2614697,28.5973502 C86.0455392,29.4822675 87.076761,29.9290701 88.3453952,29.9290701 C89.5555894,29.9290701 90.5782887,29.4710975 91.3927957,28.5514288 C92.2097377,27.629278 92.6151649,26.2417078 92.6151649,24.3837538 C92.6151649,22.5369698 92.1890402,21.1109249 91.3319207,20.1341649 C90.4760188,19.1524403 89.4167945,18.6522697 88.1725103,18.6522697 Z M11.0366303,16.3017158 C10.5496307,16.3017158 10.1295934,16.4978125 9.80817363,16.8105743 L9.80817363,16.8105743 L11.7123424,19.609296 C12.3296145,19.3561079 12.7679142,18.7405132 12.7679142,18.0318347 C12.7679142,17.9672965 12.7520867,17.899035 12.7472167,17.8394614 C12.7106918,17.5217351 12.5925943,17.2263489 12.401447,16.9830898 C12.0873322,16.5735207 11.5905925,16.3017158 11.0366303,16.3017158 Z M203.668138,2.62260697 C204.393767,2.62260697 205.106004,2.81373918 205.799979,3.19476248 C206.492736,3.57454466 207.033306,4.11939558 207.42047,4.82807409 C207.807635,5.53799373 208,6.27645909 208,7.0459524 C208,7.80799901 207.81007,8.54025877 207.428993,9.24397282 C207.046698,9.94520463 206.514651,10.4925378 205.825546,10.8810078 C205.137659,11.2682367 204.418117,11.4630922 203.668138,11.4630922 C202.916941,11.4630922 202.197399,11.2682367 201.509512,10.8810078 C200.821625,10.4925378 200.285925,9.94520463 199.90363,9.24397282 C199.521336,8.54025877 199.327753,7.80799901 199.327753,7.0459524 C199.327753,6.27645909 199.522553,5.53799373 199.912153,4.82807409 C200.299317,4.11939558 200.841105,3.57454466 201.536297,3.19476248 C202.227836,2.81373918 202.938856,2.62260697 203.668138,2.62260697 Z M203.668138,3.36231344 C203.060606,3.36231344 202.466466,3.52117658 201.890589,3.83766173 C201.315929,4.15662912 200.865455,4.60963728 200.540382,5.20040957 C200.21531,5.79242297 200.052165,6.40801762 200.052165,7.0459524 C200.052165,7.68264606 200.211658,8.29203512 200.53186,8.87411958 C200.850845,9.45744516 201.296449,9.91169444 201.871109,10.2381085 C202.445769,10.5620404 203.043561,10.725868 203.668138,10.725868 C204.29028,10.725868 204.890507,10.5620404 205.463949,10.2381085 C206.036174,9.91169444 206.481778,9.45744516 206.800763,8.87411958 C207.118531,8.29203512 207.276805,7.68264606 207.276805,7.0459524 C207.276805,6.40801762 207.116096,5.79242297 206.791023,5.20040957 C206.469603,4.60963728 206.016694,4.15662912 205.440817,3.83766173 C204.862505,3.52117658 204.2708,3.36231344 203.668138,3.36231344 Z M203.371555,4.73610723 C203.91943,4.73610723 204.315117,4.77954637 204.559834,4.86766577 C204.804552,4.95702628 205.000569,5.10844271 205.145451,5.32687952 C205.290334,5.54531633 205.363384,5.77740544 205.363384,6.02314686 C205.363384,6.37065996 205.240416,6.6722517 204.998134,6.93040429 C204.754634,7.18731577 204.430779,7.33252661 204.029005,7.36107233 C204.192149,7.43305718 204.324857,7.51621211 204.423474,7.61426045 C204.612187,7.80291042 204.842294,8.11567222 205.113796,8.5562692 L205.113796,8.5562692 L205.682369,9.488349 L204.759504,9.488349 L204.346772,8.73871358 C204.020482,8.14918241 203.761155,7.78057029 203.561485,7.6316361 C203.423907,7.5224177 203.224238,7.47029073 202.96004,7.47401409 L202.96004,7.47401409 L202.518088,7.47401409 L202.518088,9.488349 L201.769326,9.488349 L201.769326,4.73610723 Z M119.892504,2.66455677 L119.892504,9.22262559 L110.159816,9.22262559 L110.159816,2.66455677 L119.892504,2.66455677 Z M67.3732408,2.66455677 L67.3732408,9.22262559 L57.6393346,9.22262559 L57.6393346,2.66455677 L67.3732408,2.66455677 Z M203.375208,5.38769431 L202.518088,5.38769431 L202.518088,6.81249806 L203.433647,6.81249806 C203.869512,6.81249806 204.169017,6.74547768 204.326074,6.61516026 C204.485567,6.48236061 204.567139,6.30860405 204.567139,6.09140836 C204.567139,5.95240312 204.525744,5.82580905 204.451477,5.71534953 C204.373557,5.60364889 204.267634,5.5229762 204.131275,5.468367 C203.996132,5.4137578 203.74411,5.38769431 203.375208,5.38769431 L203.375208,5.38769431 Z" id="Logo" fill="#000000" fill-rule="nonzero"></path>
                        <path d="M181.434532,46.2294207 L180.66142,60.3980266 L188.420543,46.2294207 L192.035298,46.2294207 L177.19033,72 L173.537833,72 L177.396088,65.3749108 L177.975617,46.2294207 L181.434532,46.2294207 Z M167.829831,45.8564647 C170.015242,45.8564647 171.499374,46.4720593 172.261528,47.7231065 C172.685218,48.3647647 172.877583,49.1801793 172.85932,50.1445282 C172.877583,51.0294455 172.70835,52.0446803 172.362581,53.2113314 L172.362581,53.2113314 L170.941759,58.0802383 C170.156472,60.7573304 169.171515,62.6351423 167.988106,63.7360141 C166.819307,64.8344038 165.1769,65.3742902 163.073062,65.3742902 C160.885216,65.3742902 159.402302,64.7586956 158.61458,63.5076484 C158.221327,62.8535791 158.019222,62.0567812 158.019222,61.0986379 C158.00096,60.2211673 158.170192,59.2133793 158.51231,58.0802383 L158.51231,58.0802383 L159.934349,53.2113314 C160.717201,50.5007292 161.71068,48.6005771 162.888002,47.5021875 C164.083586,46.3988333 165.729645,45.8564647 167.829831,45.8564647 Z M116.033275,45.8564647 C118.057976,45.8564647 119.402096,46.4720593 120.07659,47.718142 C120.415055,48.3312545 120.584287,49.0759254 120.600115,49.9794595 C120.600115,50.9127804 120.415055,51.978901 120.06198,53.1840268 L120.06198,53.1840268 L119.021018,56.6939092 L110.444954,56.6939092 L110.065094,58.0343169 C109.496522,60.0126594 109.294417,61.3381737 109.475824,61.9910019 C109.653579,62.6599646 110.302506,62.9913432 111.410431,62.9913432 C112.178673,62.9913432 112.816642,62.705886 113.331644,62.1560706 C113.878302,61.5839151 114.315384,60.711409 114.641674,59.5323466 L114.641674,59.5323466 L117.970316,59.5323466 C117.508884,61.7216792 116.752817,63.2457724 115.706985,64.0996618 C114.690374,64.95231 113.099102,65.3742902 110.920996,65.3742902 C108.78672,65.3742902 107.330591,64.7586956 106.557479,63.5076484 C106.192229,62.873437 106.001082,62.0853269 105.992559,61.152006 C106.001082,60.2670886 106.173967,59.2394427 106.506344,58.0802383 L106.506344,58.0802383 L107.925948,53.2113314 C108.712452,50.5007292 109.697409,48.6005771 110.920996,47.5021875 C112.138495,46.3988333 113.846647,45.8564647 116.033275,45.8564647 Z M147.585498,46.2296689 L146.370433,61.1640448 L153.945714,46.2296689 L157.470374,46.2296689 L147.660983,64.9891712 L143.190326,64.9891712 L144.20572,46.2296689 L147.585498,46.2296689 Z M135.163353,45.8560923 C136.861765,45.8560923 137.966036,46.3723975 138.498084,47.4323125 C139.013086,48.4860219 138.958298,50.0696888 138.298414,52.1758665 L138.298414,52.1758665 L134.339106,64.9891712 L130.902106,64.9891712 L134.941768,51.9015793 C135.317976,50.6728723 135.427551,49.7594092 135.246143,49.1475379 C135.073258,48.5319433 134.613044,48.224146 133.883762,48.224146 C132.736877,48.224146 131.792098,48.7119054 131.057946,49.6663254 C130.327446,50.6195042 129.661474,52.2168234 129.07464,54.459524 L129.07464,54.459524 L125.823917,64.9891712 L122.238382,64.9891712 L128.03246,46.2296689 L131.432936,46.2296689 L130.919151,47.8878029 C132.161,46.5275373 133.570864,45.8560923 135.163353,45.8560923 Z M167.251519,48.2245183 C166.38466,48.2245183 165.660247,48.6080238 165.086805,49.3589004 C164.518233,50.1060536 163.993491,51.3881287 163.496751,53.1889913 L163.496751,53.1889913 L162.072277,58.056657 C161.512228,59.9642558 161.329603,61.2661888 161.519533,61.9537683 C161.719203,62.6500357 162.419265,62.9913432 163.639199,62.9913432 C164.518233,62.9913432 165.248733,62.6264544 165.802695,61.8793013 C166.36518,61.1395948 166.899662,59.8624841 167.387879,58.056657 L167.387879,58.056657 L168.80383,53.1889913 C169.367533,51.2739458 169.557462,49.9670483 169.367533,49.2794688 C169.171515,48.5807192 168.466583,48.2245183 167.251519,48.2245183 Z M115.486618,48.2245183 C114.560101,48.2245183 113.782119,48.6005771 113.16363,49.3390425 C112.573142,50.0886779 112.017963,51.349654 111.485916,53.1356232 L111.485916,53.1356232 L111.146233,54.3109622 L116.228075,54.3109622 L116.575062,53.1356232 C117.152157,51.1746564 117.357914,49.8652766 117.226424,49.218654 C117.086412,48.557138 116.505665,48.2245183 115.486618,48.2245183 Z M24.4826916,-2.18628534e-15 C27.1465799,-2.18628534e-15 29.3064235,2.15334016 29.3064235,4.8018865 C29.3064235,7.44546837 27.1465799,9.603773 24.4826916,9.603773 C21.8224558,9.603773 19.6553072,7.44546837 19.6553072,4.8018865 C19.6553072,2.15334016 21.8224558,-2.18628534e-15 24.4826916,-2.18628534e-15 Z" id="Combined-Shape" fill="#CECCCC" fill-rule="nonzero"></path>
                    </g>
                </g>
            </g>
        </g>
    </g>
</svg>