<svg xmlns="http://www.w3.org/2000/svg" xmlns:xlink="http://www.w3.org/1999/xlink" width="70.449" height="74.018" viewBox="0 0 70.449 74.018"><path fill="#FCE9F0" d="M0 0h36.419v36.35H0zm55.261 58.537h15.188v15.481H55.261z"/><defs><path id="a" d="M0 .001h70.449v74.017H0z"/></defs><clipPath id="b"><use xlink:href="#a" overflow="visible"/></clipPath><path clip-path="url(#b)" fill="none" stroke="#D63F5A" stroke-width="2" d="M56.99 70.269H16.892c-3.226 0-5.865-2.639-5.865-5.865V14.035c0-3.226 2.639-5.866 5.865-5.866H56.99c3.226 0 5.865 2.64 5.865 5.866v50.369c0 3.226-2.639 5.865-5.865 5.865z"/><path clip-path="url(#b)" fill="none" stroke="#D63F5A" stroke-width="2" stroke-linecap="round" d="M21.089 18.175h30.659m-30.659 6.57h30.659"/><path clip-path="url(#b)" fill="#B1B3B5" d="M37.467 32.975c.611 0 1.114.478 1.145 1.087l.341 1.745c.595.14 1.179.33 1.742.566l1.272-1.181a1.15 1.15 0 0 1 1.564-.206l1.696 1.232c.248.18.411.446.459.748.045.282-.016.565-.171.803l-.723 1.583c.401.464.762.962 1.081 1.485l1.746-.198a1.143 1.143 0 0 1 1.386.753l.648 1.994a1.148 1.148 0 0 1-.682 1.425l-1.534.846a11.59 11.59 0 0 1 0 1.825c1.76.961 1.781.976 1.82 1.006.02.015.051.042.062.051l.002.002c.343.303.473.779.332 1.213-.683 2.092-.691 2.108-.714 2.156-.196.389-.589.63-1.025.63H47.9c-.034 0-.083-.001-2.029-.234a11.108 11.108 0 0 1-1.079 1.482l.723 1.583c.155.238.216.521.171.803a1.14 1.14 0 0 1-.459.748l-1.696 1.233a1.15 1.15 0 0 1-1.565-.207l-1.27-1.181c-.564.237-1.148.426-1.743.566l-.341 1.745a1.134 1.134 0 0 1-.289.703l-.032.034-.014.015a1.136 1.136 0 0 1-.81.335H35.37a1.143 1.143 0 0 1-1.144-1.086l-.342-1.746a11.001 11.001 0 0 1-1.742-.566l-1.271 1.181a1.146 1.146 0 0 1-1.565.207l-1.696-1.233a1.138 1.138 0 0 1-.458-.748 1.135 1.135 0 0 1 .17-.803l.723-1.583c-.4-.464-.762-.961-1.08-1.484l-1.747.198a1.143 1.143 0 0 1-1.385-.754l-.648-1.994a1.14 1.14 0 0 1 .069-.874c.13-.256.346-.449.612-.551l1.535-.845a11.154 11.154 0 0 1 0-1.827l-1.535-.846c-.12-.045-.23-.11-.329-.193l-.039-.035a1.154 1.154 0 0 1-.313-1.197l.648-1.994a1.145 1.145 0 0 1 1.385-.753l1.747.198c.318-.523.68-1.021 1.08-1.485l-.723-1.583a1.135 1.135 0 0 1-.17-.803c.047-.302.211-.568.458-.748l1.696-1.232a1.145 1.145 0 0 1 1.565.206l1.271 1.181a11.104 11.104 0 0 1 1.742-.566l.342-1.745a1.143 1.143 0 0 1 1.144-1.087h2.097m0-2H35.37a3.144 3.144 0 0 0-3.122 2.758 3.13 3.13 0 0 0-2.268-.966c-.669 0-1.308.208-1.849.601L26.434 34.6a3.13 3.13 0 0 0-1.258 2.053 3.14 3.14 0 0 0 .349 2.005 3.152 3.152 0 0 0-1.466.063 3.139 3.139 0 0 0-2.128 2.053l-.648 1.994a3.163 3.163 0 0 0 .815 3.244l.023.022.04.037c.018.016.055.049.092.079.197.166.414.307.647.42a3.141 3.141 0 0 0-1.428 1.402 3.125 3.125 0 0 0-.189 2.4l.648 1.994a3.137 3.137 0 0 0 3.594 2.116 3.143 3.143 0 0 0 .909 4.058l1.697 1.232a3.12 3.12 0 0 0 1.849.601c.864 0 1.677-.349 2.268-.965.074.589.317 1.155.696 1.614a3.136 3.136 0 0 0 2.426 1.143h2.097c.839 0 1.628-.326 2.222-.919l.021-.02.034-.036a3.146 3.146 0 0 0 .845-1.782 3.132 3.132 0 0 0 2.269.965c.668 0 1.308-.207 1.849-.601l1.696-1.232a3.147 3.147 0 0 0 .915-4.049c.416.047.465.048.556.049h.001c1.237 0 2.313-.664 2.85-1.732.1-.198.1-.198.829-2.434a3.146 3.146 0 0 0-.872-3.299l-.015-.015-.041-.035a3.609 3.609 0 0 0-.155-.126c-.106-.081-.15-.114-.534-.328a3.144 3.144 0 0 0 1.618-3.803l-.648-1.994a3.14 3.14 0 0 0-3.594-2.116 3.14 3.14 0 0 0 .348-2.005 3.123 3.123 0 0 0-1.258-2.053l-1.696-1.232a3.126 3.126 0 0 0-1.849-.601c-.864 0-1.677.349-2.268.965a3.145 3.145 0 0 0-3.123-2.757"/><path clip-path="url(#b)" fill="none" stroke="#B1B3B5" stroke-width="2" stroke-miterlimit="10" d="M36.419 52.682a6.072 6.072 0 0 1-4.321-1.79 6.068 6.068 0 0 1-1.79-4.321 6.07 6.07 0 0 1 1.79-4.322c1.154-1.154 2.689-1.79 4.321-1.79s3.167.636 4.321 1.79a6.074 6.074 0 0 1 1.79 4.322c0 1.632-.636 3.167-1.79 4.321s-2.689 1.79-4.321 1.79z"/></svg>