<svg id="Layer_1" xmlns="http://www.w3.org/2000/svg" viewBox="0 0 104 100.3"><style>.st0{opacity:.15;fill:#e8815d}.st1,.st2{fill:none;stroke:#e8815d;stroke-width:2}.st2{stroke-linecap:round}.st3{fill:#b1b3b5}.st4{fill:none;stroke:#b1b3b5;stroke-width:2;stroke-miterlimit:10}</style><path class="st0" d="M16.8 13.1h36.4v36.3H16.8zM72 71.7h15.2v15.5H72z"/><path class="st1" d="M73.8 83.4H33.7c-3.2 0-5.9-2.6-5.9-5.9V27.2c0-3.2 2.6-5.9 5.9-5.9h40.1c3.2 0 5.9 2.6 5.9 5.9v50.4c-.1 3.2-2.7 5.8-5.9 5.8z"/><path class="st2" d="M37.9 31.3h30.6m-30.6 6.6h30.6"/><path class="st3" d="M54.2 46.1c.6 0 1.1.5 1.1 1.1l.3 1.7c.6.1 1.2.3 1.7.6l1.3-1.2c.2-.3.5-.4.9-.4.2 0 .5.1.7.2l1.7 1.2c.2.2.4.4.5.7 0 .3 0 .6-.2.8l-.7 1.6c.4.5.8 1 1.1 1.5l1.7-.2h.3c.5 0 .9.3 1.1.8l.6 2c.2.6-.1 1.2-.7 1.4l-1.5.8v1.8l1.8 1s.1 0 .1.1c.3.3.5.8.3 1.2-.7 2.1-.7 2.1-.7 2.2-.2.4-.6.6-1 .6 0 0-.1 0-2-.2-.3.5-.7 1-1.1 1.5l.7 1.6c.2.2.2.5.2.8 0 .3-.2.6-.5.7l-1.7 1.2c-.2.1-.4.2-.7.2-.3 0-.7-.2-.9-.4l-1.3-1.2c-.6.2-1.1.4-1.7.6l-.3 1.7v.2c0 .2-.1.4-.3.5-.2.2-.5.3-.8.3h-2.1c-.3 0-.7-.2-.9-.4-.2-.2-.2-.4-.3-.7l-.3-1.7c-.6-.1-1.2-.3-1.7-.6l-1.3 1.2c-.2.3-.5.4-.9.4-.2 0-.5-.1-.7-.2l-1.7-1.2c-.2-.2-.4-.4-.5-.7 0-.3 0-.6.2-.8l.7-1.6c-.4-.5-.8-1-1.1-1.5l-1.6.3h-.3c-.5 0-.9-.3-1.1-.8l-.6-2c-.1-.3-.1-.6.1-.9.1-.3.3-.4.6-.6l1.5-.8v-1.8l-1.6-.7c-.1 0-.2-.1-.3-.2-.3-.3-.4-.8-.3-1.2l.6-2c.1-.4.4-.6.8-.7h.6l1.7.2c.3-.5.7-1 1.1-1.5l-.7-1.6c-.2-.2-.2-.5-.2-.8 0-.3.2-.6.5-.7l1.7-1.2c.2-.1.4-.2.7-.2.3 0 .7.2.9.4l1.3 1.2c.6-.2 1.1-.4 1.7-.6l.3-1.7c0-.2.1-.5.3-.7l.1-.1c.2-.2.5-.3.8-.3h2m0-2.2h-2.1c-.8 0-1.5.3-2.1.8l-.3.3c-.4.5-.6 1-.7 1.6-.6-.6-1.4-1-2.3-1-.7 0-1.3.2-1.8.6l-1.7 1.2c-.7.5-1.1 1.2-1.3 2.1-.1.7 0 1.4.3 2-.2 0-.4-.1-.6-.1-.3 0-.6 0-.9.1-1 .3-1.8 1.1-2.1 2.1l-.6 2c-.4 1.1-.1 2.4.8 3.2 0 0 .1 0 .1.1.2.2.4.3.6.4-.6.3-1.1.8-1.4 1.4-.4.7-.4 1.6-.2 2.4l.6 2c.4 1.3 1.6 2.2 3 2.2.2 0 .4 0 .6-.1-.3.6-.5 1.3-.3 2 .1.8.6 1.6 1.3 2.1l1.7 1.2c.5.4 1.2.6 1.8.6.9 0 1.7-.3 2.3-1 .1.6.3 1.2.7 1.6.6.7 1.5 1.1 2.4 1.1h2.1c.8 0 1.6-.3 2.2-.9l.1-.1c.4-.4.6-.9.7-1.5v-.2c.6.6 1.4 1 2.3 1 .7 0 1.3-.2 1.8-.6l1.7-1.2c.7-.5 1.1-1.2 1.3-2.1.1-.7 0-1.4-.3-2h.6c1.2 0 2.3-.7 2.9-1.7.1-.2.1-.2.8-2.4.4-1.2 0-2.5-.9-3.3 0 0-.1-.1-.2-.1-.1-.1-.2-.1-.5-.3 1.4-.7 2.1-2.3 1.6-3.8l-.6-2c-.4-1.3-1.6-2.2-3-2.2-.2 0-.4 0-.6.1.3-.6.5-1.3.3-2-.1-.8-.6-1.6-1.3-2.1l-1.7-1.2c-.5-.4-1.2-.6-1.8-.6-.9 0-1.7.3-2.3 1 0-1.5-1.4-2.7-3-2.7z"/><path class="st4" d="M53.2 65.8c-1.6 0-3.2-.6-4.3-1.8-1.2-1.2-1.8-2.7-1.8-4.3 0-1.6.6-3.2 1.8-4.3 1.2-1.2 2.7-1.8 4.3-1.8 1.6 0 3.2.6 4.3 1.8 1.2 1.2 1.8 2.7 1.8 4.3 0 1.6-.6 3.2-1.8 4.3-1.1 1.2-2.7 1.8-4.3 1.8z"/></svg>