<svg xmlns="http://www.w3.org/2000/svg" xmlns:xlink="http://www.w3.org/1999/xlink" width="87.874" height="82.205" viewBox="-3.981 -1.935 87.874 82.205"><defs><path id="a" d="M0 .001h79.912v78.333H0z"/></defs><clipPath id="b"><use xlink:href="#a" overflow="visible"/></clipPath><path clip-path="url(#b)" fill="#B1B3B5" d="M59.825 53.91l14.096 12.141c.83.715.925 1.98.209 2.811l-1.471 1.707a2 2 0 0 1-2.811.21L55.753 58.638"/><defs><path id="c" d="M0 .001h79.912v78.333H0z"/></defs><clipPath id="d"><use xlink:href="#c" overflow="visible"/></clipPath><path clip-path="url(#d)" fill="#FCE9F0" d="M40.116 0h39.796v39.721H40.116z"/><defs><path id="e" d="M0 .001h79.912v78.333H0z"/></defs><clipPath id="f"><use xlink:href="#e" overflow="visible"/></clipPath><path clip-path="url(#f)" fill="#FCE9F0" d="M0 53.911h23.963v24.423H0z"/><defs><path id="g" d="M0 .001h79.912v78.333H0z"/></defs><clipPath id="h"><use xlink:href="#g" overflow="visible"/></clipPath><circle clip-path="url(#h)" fill="none" stroke="#D63F5A" stroke-width="2" cx="36.554" cy="38.5" r="27.614"/><defs><path id="i" d="M0 .001h79.912v78.333H0z"/></defs><clipPath id="j"><use xlink:href="#i" overflow="visible"/></clipPath><path clip-path="url(#j)" fill="none" stroke="#D63F5A" stroke-width="2" d="M22.962 36.651h6.578v12.875h-6.578z"/><defs><path id="k" d="M0 .001h79.912v78.333H0z"/></defs><clipPath id="l"><use xlink:href="#k" overflow="visible"/></clipPath><path clip-path="url(#l)" fill="none" stroke="#D63F5A" stroke-width="2" d="M33.464 32.33h6.578v17.196h-6.578z"/><defs><path id="m" d="M0 .001h79.912v78.333H0z"/></defs><clipPath id="n"><use xlink:href="#m" overflow="visible"/></clipPath><path clip-path="url(#n)" fill="none" stroke="#D63F5A" stroke-width="2" d="M43.965 28.009h6.578v21.517h-6.578z"/></svg>