<svg xmlns="http://www.w3.org/2000/svg" xmlns:xlink="http://www.w3.org/1999/xlink" width="87.874" height="82.205" viewBox="-0.979 -5.199 87.874 82.205"><path fill="#FCE9F0" d="M0 .001h23.962v24.423H0zm62.878 46.266h23.038v25.539H62.878z"/><path fill="none" stroke="#D6405A" stroke-width="2" stroke-miterlimit="10" d="M4.544 5.366h75v54.7h-75z"/><defs><path id="a" d="M0 0h85.916v71.806H0z"/></defs><clipPath id="b"><use xlink:href="#a" overflow="visible"/></clipPath><path clip-path="url(#b)" fill="#D6405A" d="M13.419 10.775a1.437 1.437 0 1 1-2.874 0 1.437 1.437 0 0 1 2.874 0"/><defs><path id="c" d="M0 0h85.916v71.806H0z"/></defs><clipPath id="d"><use xlink:href="#c" overflow="visible"/></clipPath><path clip-path="url(#d)" fill="#D6405A" d="M19.325 10.775a1.437 1.437 0 1 1-2.874 0 1.437 1.437 0 0 1 2.874 0"/><defs><path id="e" d="M0 0h85.916v71.806H0z"/></defs><clipPath id="f"><use xlink:href="#e" overflow="visible"/></clipPath><path clip-path="url(#f)" fill="none" stroke="#D6405A" stroke-width="2" stroke-miterlimit="10" d="M4.544 15.67h74.333"/><defs><path id="g" d="M0 0h85.916v71.806H0z"/></defs><clipPath id="h"><use xlink:href="#g" overflow="visible"/></clipPath><path clip-path="url(#h)" fill="#DDD" d="M52.213 55.4H32.041a2.338 2.338 0 0 1-2.331-2.331V22.564a2.338 2.338 0 0 1 2.331-2.331h20.172a2.338 2.338 0 0 1 2.331 2.331v30.505a2.338 2.338 0 0 1-2.331 2.331"/><defs><path id="i" d="M0 0h85.916v71.806H0z"/></defs><clipPath id="j"><use xlink:href="#i" overflow="visible"/></clipPath><path clip-path="url(#j)" fill="none" stroke="#D6405A" stroke-width="3" stroke-linecap="round" stroke-miterlimit="10" d="M33.377 25.9H50.71"/><defs><path id="k" d="M0 0h85.916v71.806H0z"/></defs><clipPath id="l"><use xlink:href="#k" overflow="visible"/></clipPath><path clip-path="url(#l)" fill="none" stroke="#919191" stroke-width="2" stroke-linecap="round" stroke-miterlimit="10" d="M33.377 35.216H50.71"/><defs><path id="m" d="M0 0h85.916v71.806H0z"/></defs><clipPath id="n"><use xlink:href="#m" overflow="visible"/></clipPath><path clip-path="url(#n)" fill="none" stroke="#919191" stroke-width="2" stroke-linecap="round" stroke-miterlimit="10" d="M33.377 38.9H50.71"/><defs><path id="o" d="M0 0h85.916v71.806H0z"/></defs><clipPath id="p"><use xlink:href="#o" overflow="visible"/></clipPath><path clip-path="url(#p)" fill="none" stroke="#919191" stroke-width="2" stroke-linecap="round" stroke-miterlimit="10" d="M33.377 42.583H50.71"/><defs><path id="q" d="M0 0h85.916v71.806H0z"/></defs><clipPath id="r"><use xlink:href="#q" overflow="visible"/></clipPath><path clip-path="url(#r)" fill="none" stroke="#919191" stroke-width="2" stroke-linecap="round" stroke-miterlimit="10" d="M33.377 46.267H50.71"/><defs><path id="s" d="M0 0h85.916v71.806H0z"/></defs><clipPath id="t"><use xlink:href="#s" overflow="visible"/></clipPath><path clip-path="url(#t)" fill="none" stroke="#919191" stroke-width="2" stroke-linecap="round" stroke-miterlimit="10" d="M33.377 49.95H50.71"/></svg>