<svg id="Layer_1" xmlns="http://www.w3.org/2000/svg" viewBox="0 0 104 100.3"><style>.st0{opacity:.15;fill:#e8815d}.st1{fill:none;stroke:#e8815d;stroke-width:2;stroke-miterlimit:10}.st2{fill:#e8815d}.st3{fill:#ddd}.st4,.st5{fill:none;stroke:#e8815d;stroke-width:3;stroke-linecap:round;stroke-miterlimit:10}.st5{stroke:#919191;stroke-width:2}</style><path class="st0" d="M10.4 14.9h24v24.4h-24zm62.8 46.3h23v25.5h-23z"/><path class="st1" d="M14.9 20.3h75V75h-75z"/><circle class="st2" cx="22.3" cy="25.7" r="1.4"/><circle class="st2" cx="28.2" cy="25.7" r="1.4"/><path class="st1" d="M14.9 30.6h74.3"/><path class="st3" d="M62.6 70.3H42.4c-1.3 0-2.3-1-2.3-2.3V37.5c0-1.3 1-2.3 2.3-2.3h20.2c1.3 0 2.3 1 2.3 2.3V68c0 1.3-1 2.3-2.3 2.3z"/><path class="st4" d="M43.7 40.8h17.4"/><path class="st5" d="M43.7 50.2h17.4m-17.4 3.6h17.4m-17.4 3.7h17.4m-17.4 3.7h17.4m-17.4 3.7h17.4"/></svg>