<svg xmlns="http://www.w3.org/2000/svg" xmlns:xlink="http://www.w3.org/1999/xlink" width="85.916" height="71.806" viewBox="0 0 85.916 71.806"><path fill="#FCE9F0" d="M0 .001h23.962v24.423H0zm62.878 46.266h23.038v25.539H62.878z"/><path fill="none" stroke="#D6405A" stroke-width="2" stroke-miterlimit="10" d="M4.544 5.366h75v54.7h-75z"/><defs><path id="a" d="M0 0h85.916v71.806H0z"/></defs><clipPath id="b"><use xlink:href="#a" overflow="visible"/></clipPath><path clip-path="url(#b)" fill="#D6405A" d="M13.419 10.775a1.437 1.437 0 1 1-2.874 0 1.437 1.437 0 0 1 2.874 0m5.906 0a1.437 1.437 0 1 1-2.874 0 1.437 1.437 0 0 1 2.874 0"/><path clip-path="url(#b)" fill="none" stroke="#D6405A" stroke-width="2" stroke-miterlimit="10" d="M4.544 15.67h74.333"/><path clip-path="url(#b)" fill="#DDD" d="M52.213 55.4H32.041a2.338 2.338 0 0 1-2.331-2.331V22.564a2.338 2.338 0 0 1 2.331-2.331h20.172a2.338 2.338 0 0 1 2.331 2.331v30.505a2.338 2.338 0 0 1-2.331 2.331"/><path clip-path="url(#b)" fill="none" stroke="#D6405A" stroke-width="3" stroke-linecap="round" stroke-miterlimit="10" d="M33.377 25.9H50.71"/><path clip-path="url(#b)" fill="none" stroke="#919191" stroke-width="2" stroke-linecap="round" stroke-miterlimit="10" d="M33.377 35.216H50.71M33.377 38.9H50.71m-17.333 3.683H50.71m-17.333 3.684H50.71M33.377 49.95H50.71"/></svg>