<svg xmlns="http://www.w3.org/2000/svg" xmlns:xlink="http://www.w3.org/1999/xlink" width="87.874" height="82.205" viewBox="-3.242 -0.558 87.874 82.205"><path fill="#FCE9F0" d="M0 20.842h36.419v36.35H0zM64.082 6.023h15.189v15.481H64.082z"/><defs><path id="a" d="M0 .001h81.391v81.087H0z"/></defs><clipPath id="b"><use xlink:href="#a" overflow="visible"/></clipPath><circle clip-path="url(#b)" fill="none" stroke="#D63F5A" stroke-width="2" cx="44.122" cy="39.675" r="25.913"/><defs><path id="c" d="M0 .001h81.391v81.087H0z"/></defs><clipPath id="d"><use xlink:href="#c" overflow="visible"/></clipPath><circle clip-path="url(#d)" fill="none" stroke="#D63F5A" stroke-width="2" cx="44.122" cy="39.675" r="13.955"/><defs><path id="e" d="M0 .001h81.391v81.087H0z"/></defs><clipPath id="f"><use xlink:href="#e" overflow="visible"/></clipPath><path clip-path="url(#f)" fill="#DDD" d="M43.86 35.612l.681 39.609 14.303-14.654 19.659-5.74z"/><defs><path id="g" transform="rotate(149.015 29.582 56.192)" d="M-11.113 15.649h81.39v81.086h-81.39z"/></defs><clipPath id="h"><use xlink:href="#g" overflow="visible"/></clipPath><path transform="rotate(149.015 63.36 68.415)" clip-path="url(#h)" fill="#DDD" d="M56.758 57.593h13.204v21.642H56.758z"/><defs><path id="i" d="M0 .001h81.391v81.087H0z"/></defs><clipPath id="j"><use xlink:href="#i" overflow="visible"/></clipPath><path clip-path="url(#j)" fill="none" stroke="#D63F5A" stroke-width="2" d="M43.666 0v7"/><defs><path id="k" d="M0 .001h81.391v81.087H0z"/></defs><clipPath id="l"><use xlink:href="#k" overflow="visible"/></clipPath><path clip-path="url(#l)" fill="none" stroke="#D63F5A" stroke-width="2" d="M3.966 39.7h7"/><defs><path id="m" d="M0 .001h81.391v81.087H0z"/></defs><clipPath id="n"><use xlink:href="#m" overflow="visible"/></clipPath><path clip-path="url(#n)" fill="none" stroke="#D63F5A" stroke-width="2" d="M74.391 39.7h7"/><defs><path id="o" d="M0 .001h81.391v81.087H0z"/></defs><clipPath id="p"><use xlink:href="#o" overflow="visible"/></clipPath><path clip-path="url(#p)" fill="none" stroke="#D63F5A" stroke-width="2" d="M67.56 17.88l4.95-4.95"/><defs><path id="q" d="M0 .001h81.391v81.087H0z"/></defs><clipPath id="r"><use xlink:href="#q" overflow="visible"/></clipPath><path clip-path="url(#r)" fill="none" stroke="#D63F5A" stroke-width="2" d="M20.685 17.88l-4.95-4.95"/></svg>