<svg width="108" height="33" viewBox="0 0 108 33" fill="none" xmlns="http://www.w3.org/2000/svg">
    <g clip-path="url(#5zsglsbisa)">
        <path d="m79.821 31.508 8.896-9.853-8.896-9.854h9.386l4.406 4.787 4.242-4.787h9.059l-8.854 9.813 8.975 9.894h-9.424l-4.366-4.826-4.325 4.826h-9.099z" fill="#F60"/>
        <path d="M79.82 7.384H69.747v4.418h10.075v6.657H69.746v6.11h10.075v6.939H62.34V.465h17.48v6.92z" fill="#F60"/>
        <path d="M54.968.465V13.17h-.081c-1.633-1.85-3.673-2.492-6.04-2.492-4.847 0-8.499 3.248-9.78 7.543-1.462-4.732-5.232-7.632-10.823-7.632-4.54 0-8.124 2.009-9.995 5.282v-4.068H8.865V7.385h10.24V.465H.5v31.043h8.365v-13.05h8.338a12.201 12.201 0 0 0-.382 3.069c0 6.475 5.019 11.019 11.423 11.019 5.386 0 8.935-2.493 10.813-7.037h-7.169c-.97 1.366-1.705 1.771-3.644 1.771-2.247 0-4.186-1.933-4.186-4.225h14.597c.633 5.143 4.698 9.579 10.275 9.579a7.174 7.174 0 0 0 5.957-3.136h.08v2.01h7.375V.464h-7.374zM24.29 18.552c.465-1.972 2.017-3.26 3.953-3.26 2.132 0 3.605 1.248 3.992 3.26h-7.945zm26.202 8.23c-2.718 0-4.407-2.497-4.407-5.104 0-2.786 1.469-5.466 4.407-5.466 3.046 0 4.26 2.68 4.26 5.466 0 2.642-1.286 5.103-4.26 5.103z" fill="#652C8F"/>
    </g>
    <defs>
        <clipPath id="5zsglsbisa">
            <path fill="#fff" transform="translate(.5 .465)" d="M0 0h106.667v32H0z"/>
        </clipPath>
    </defs>
</svg>
