<svg width="113" height="39" viewBox="0 0 113 39" fill="none" xmlns="http://www.w3.org/2000/svg">
    <g clip-path="url(#ccqby07f9a)">
        <path d="M48.495 19.944c0 5.182-4.113 9-9.162 9-5.048 0-9.161-3.818-9.161-9 0-5.218 4.113-9 9.161-9 5.049 0 9.162 3.782 9.162 9zm-4.01 0c0-3.238-2.385-5.454-5.152-5.454-2.767 0-5.15 2.216-5.15 5.454 0 3.206 2.383 5.454 5.15 5.454 2.767 0 5.151-2.252 5.151-5.454z" fill="#EA4335"/>
        <path d="M68.26 19.944c0 5.182-4.114 9-9.162 9-5.048 0-9.162-3.818-9.162-9 0-5.214 4.114-9 9.162-9 5.048 0 9.162 3.782 9.162 9zm-4.01 0c0-3.238-2.385-5.454-5.152-5.454-2.767 0-5.151 2.216-5.151 5.454 0 3.206 2.384 5.454 5.151 5.454s5.151-2.252 5.151-5.454z" fill="#FBBC05"/>
        <path d="M87.201 11.487v16.16c0 6.646-3.977 9.36-8.68 9.36-4.426 0-7.09-2.917-8.095-5.303l3.492-1.432c.621 1.465 2.145 3.193 4.6 3.193 3.01 0 4.874-1.83 4.874-5.275v-1.295h-.14c-.897 1.092-2.627 2.046-4.81 2.046-4.566 0-8.75-3.92-8.75-8.964 0-5.08 4.184-9.033 8.75-9.033 2.18 0 3.909.953 4.81 2.012h.14v-1.465h3.81v-.004zm-3.524 8.49c0-3.17-2.146-5.487-4.876-5.487-2.767 0-5.085 2.317-5.085 5.487 0 3.136 2.318 5.421 5.085 5.421 2.73 0 4.876-2.285 4.876-5.421z" fill="#4285F4"/>
        <path d="M93.48 2.016v26.377H89.57V2.016h3.912z" fill="#34A853"/>
        <path d="m108.725 22.906 3.113 2.046c-1.005 1.465-3.426 3.989-7.61 3.989-5.188 0-9.063-3.953-9.063-9.001 0-5.352 3.908-9 8.614-9 4.74 0 7.058 3.717 7.816 5.725l.415 1.023-12.208 4.983c.934 1.806 2.388 2.727 4.426 2.727 2.042 0 3.459-.99 4.497-2.492zm-9.582-3.238 8.161-3.34c-.449-1.124-1.799-1.907-3.389-1.907-2.038 0-4.875 1.774-4.772 5.247z" fill="#EA4335"/>
        <path d="M15.365 17.603v-3.819h13.057c.128.665.194 1.453.194 2.305 0 2.865-.795 6.408-3.356 8.932-2.492 2.556-5.674 3.92-9.89 3.92C7.553 28.94.981 22.667.981 14.965.982 7.263 7.554.989 15.37.989c4.324 0 7.404 1.672 9.718 3.851l-2.734 2.695C20.693 6 18.445 4.808 15.365 4.808c-5.707 0-10.17 4.533-10.17 10.157s4.463 10.157 10.17 10.157c3.702 0 5.81-1.465 7.16-2.796 1.096-1.08 1.817-2.621 2.1-4.727l-9.26.004z" fill="#4285F4"/>
    </g>
    <defs>
        <clipPath id="ccqby07f9a">
            <path fill="#fff" transform="translate(.833 .799)" d="M0 0h112v37.333H0z"/>
        </clipPath>
    </defs>
</svg>
