<svg width="180" height="29" viewBox="0 0 180 29" fill="none" xmlns="http://www.w3.org/2000/svg">
<g clip-path="url(#clip0_26_1721)">
<path d="M57.9449 10.0834C56.9814 9.07745 55.3033 8.6356 53.9458 8.6356C52.242 8.6356 50.8597 9.3467 50.8597 10.5243C50.8597 12.0944 52.3651 12.3893 54.5869 12.5856C57.9935 12.8805 61.2275 14.1804 61.2275 18.155C61.2275 22.1296 57.673 23.6514 53.9448 23.6751C50.9579 23.6997 47.847 22.5458 46.3903 20.1423L48.6865 17.7625C50.0202 19.4559 52.2162 20.1916 53.9696 20.1916C56.0188 20.1916 57.4259 19.3819 57.4259 18.155C57.4507 16.7072 56.2897 16.0454 53.9448 15.8481C50.2911 15.5049 47.0323 14.5966 47.0819 10.5489C47.1067 7.13846 50.3655 5.32275 53.92 5.32275C56.5864 5.32275 58.5859 5.91155 60.3632 7.97283L57.9439 10.0824L57.9449 10.0834Z" fill="#11142D"/>
<path d="M68.018 7.67896V11.0648H71.1031V14.0088H67.9932V18.5722C67.9932 19.8484 68.7087 20.1916 69.3755 20.1916C69.7952 20.1916 70.4621 20.094 70.856 19.8967L71.6707 22.8407C70.7816 23.184 70.0662 23.3319 69.1036 23.3812C66.462 23.5035 64.4625 22.3506 64.4625 18.5722V14.0088H62.2903V11.0648H64.4625V8.07149L68.017 7.67896H68.018Z" fill="#11142D"/>
<path d="M72.808 17.0759C72.808 13.4198 75.4247 10.7214 79.4734 10.7214C83.5221 10.7214 86.1637 13.4198 86.1637 17.0759C86.1637 20.732 83.6213 23.3821 79.4734 23.3821C75.3255 23.3821 72.808 20.732 72.808 17.0759ZM82.5585 17.0759C82.5585 15.5551 81.6208 13.8863 79.4734 13.8863C77.326 13.8863 76.4121 15.5551 76.4121 17.0759C76.4121 18.5967 77.325 20.2408 79.4734 20.2408C81.6218 20.2408 82.5585 18.6707 82.5585 17.0759Z" fill="#11142D"/>
<path d="M99.1721 21.5161C97.7153 22.9392 95.9629 23.3811 94.4079 23.3811C90.8534 23.3811 87.7425 21.4431 87.7425 17.0749C87.7425 13.0017 90.8286 10.7205 94.3831 10.7205C96.1604 10.7205 97.5675 11.113 98.8019 12.3892L96.8272 14.6221C96.0869 14.058 95.2722 13.91 94.531 13.91C92.7537 13.91 91.3218 15.063 91.3218 17.0749C91.3218 19.0869 92.8033 20.1175 94.4565 20.1175C95.2464 20.1175 96.333 19.799 96.9254 19.2102L99.1711 21.5161H99.1721Z" fill="#11142D"/>
<path d="M104.555 5.96094V15.7506L108.16 11.0155H112.356V11.2364L107.888 16.7082L113.047 22.8418V23.112H108.777L104.555 17.7882V23.112H101.001V5.96094H104.555Z" fill="#11142D"/>
<path d="M127.341 15.358H117.467V23.111H115.319V5.93628H117.467V13.3707H127.341V5.93628H129.49V23.111H127.341V15.358Z" fill="#057CFF"/>
<path d="M143.363 23.1604L143.315 20.9521C142.352 22.6209 140.5 23.4059 138.821 23.4059C135.316 23.4059 132.576 21.0014 132.576 17.0515C132.576 13.1015 135.365 10.77 138.846 10.7946C140.673 10.7946 142.475 11.629 143.364 13.1991L143.389 10.9909H145.364V23.111H143.414L143.364 23.1604H143.363ZM138.92 12.708C136.5 12.708 134.55 14.426 134.55 17.1244C134.55 19.8229 136.5 21.5656 138.92 21.5656C144.795 21.5656 144.795 12.6833 138.944 12.6833L138.92 12.708Z" fill="#057CFF"/>
<path d="M150.227 10.9907L153.511 20.9766L156.745 10.9907H158.399L161.633 20.9766L164.917 10.9907H167.138L162.868 23.1355H160.546L158.892 18.6204L157.584 14.204L156.252 18.6204L154.597 23.1355H152.301L147.982 10.9907H150.228H150.227Z" fill="#057CFF"/>
<path d="M171.779 16.0938L176.79 10.9909H179.307V11.1132L173.679 16.7072L179.999 22.9641V23.111H177.53L171.778 17.3947V23.111H169.778V5.93628H171.778V16.0938H171.779Z" fill="#057CFF"/>
<path d="M39.7169 4.05367C38.1857 1.12941 34.6987 -2.76435 28.2317 2.88298L28.2138 2.89975C28.055 3.04867 27.8953 3.2045 27.7335 3.36723C26.4852 2.39478 24.96 1.84543 23.2502 2.02296C21.6297 2.19161 20.1323 2.9244 18.7847 3.84656L0 15.3631C1.26819 15.8296 2.59692 16.2527 3.96633 16.6147C6.80239 17.3662 9.80815 17.8564 12.797 17.9304C18.1169 18.0625 23.3782 16.878 27.5192 13.502C28.4847 12.715 29.3193 11.8698 29.8988 10.8608C29.476 12.1805 28.6425 13.29 27.6194 14.3414C27.0141 14.9637 26.3721 15.5308 25.6993 16.0476C22.5417 18.4748 18.6974 19.7796 14.6805 20.2934C13.6306 20.4276 12.5688 20.5084 11.504 20.54C11.0823 20.5528 10.6606 20.5587 10.2378 20.5568L1.63436 29.0001H7.27772C8.87735 27.9646 10.6675 27.2249 12.5619 26.8323C13.0481 26.7317 13.5512 26.6578 14.0464 26.6144C20.7793 26.0206 27.0984 22.7048 31.3863 17.2774C31.9152 16.666 32.3885 16.0121 32.7924 15.3089C35.2891 10.9654 36.5662 8.51748 37.4097 7.21168C38.669 5.16321 40.9553 7.07656 40.9553 7.07656C41.506 5.32595 40.219 4.35645 39.7169 4.05367Z" fill="#057CFF"/>
</g>
<defs>
<clipPath id="clip0_26_1721">
<rect width="180" height="29" fill="text-white"/>
</clipPath>
</defs>
</svg>
