<svg width="164" height="35" viewBox="0 0 164 35" fill="none" xmlns="http://www.w3.org/2000/svg">
    <g clip-path="url(#fm1p7pexpa)">
        <path d="m58.251 20.099-.97 2.74h-.08a19.438 19.438 0 0 0-.943-2.686L51.06 7.119h-5.09v20.773h3.367V15.073c0-.806 0-1.72-.027-2.848-.027-.564-.08-.994-.108-1.317h.081c.162.806.35 1.398.485 1.774l6.248 15.156h2.37l6.194-15.29c.135-.35.27-1.049.404-1.64h.08a193.14 193.14 0 0 0-.16 3.736V27.81h3.581V7.066h-4.901L58.25 20.1zm13.628-7.175h3.5V27.81h-3.5V12.924zm1.777-6.289a2.1 2.1 0 0 0-1.481.591c-.404.377-.62.86-.62 1.452 0 .564.216 1.048.62 1.424.404.376.889.564 1.481.564a2.15 2.15 0 0 0 1.481-.564c.404-.376.62-.86.62-1.424 0-.565-.216-1.048-.62-1.452-.35-.376-.862-.59-1.481-.59zm14.14 6.154a9.783 9.783 0 0 0-1.967-.215c-1.589 0-3.043.35-4.255 1.048-1.212.699-2.181 1.667-2.801 2.876-.646 1.236-.97 2.66-.97 4.3 0 1.424.324 2.687.943 3.842.62 1.13 1.481 2.043 2.64 2.66 1.104.619 2.396.941 3.85.941 1.67 0 3.098-.349 4.229-.994l.027-.027v-3.224l-.135.107a6.024 6.024 0 0 1-1.697.887c-.619.215-1.184.322-1.67.322-1.4 0-2.504-.403-3.285-1.29-.808-.86-1.212-2.042-1.212-3.52 0-1.532.404-2.741 1.239-3.628.835-.887 1.939-1.344 3.286-1.344 1.13 0 2.289.377 3.34 1.129l.134.108v-3.413l-.027-.027c-.458-.188-.97-.403-1.67-.538zm11.553-.107a3.7 3.7 0 0 0-2.37.833c-.593.484-.997 1.182-1.347 2.015h-.027v-2.606h-3.5V27.81h3.5v-7.605c0-1.29.27-2.364.862-3.144.593-.806 1.347-1.21 2.262-1.21.323 0 .647.081 1.05.135.378.108.647.215.836.35l.134.107v-3.493l-.081-.027c-.242-.162-.727-.242-1.32-.242zm9.534-.08c-2.451 0-4.417.725-5.791 2.149-1.4 1.424-2.073 3.386-2.073 5.858 0 2.311.7 4.193 2.046 5.563 1.347 1.344 3.178 2.043 5.467 2.043 2.397 0 4.309-.726 5.683-2.177 1.4-1.451 2.074-3.386 2.074-5.778 0-2.365-.647-4.246-1.966-5.617-1.266-1.37-3.124-2.042-5.44-2.042zm2.8 11.447c-.646.833-1.669 1.236-2.935 1.236s-2.289-.403-3.016-1.29c-.728-.833-1.078-2.042-1.078-3.574 0-1.585.377-2.794 1.078-3.654.727-.86 1.723-1.29 2.989-1.29 1.239 0 2.208.403 2.909 1.236.7.833 1.077 2.042 1.077 3.628-.054 1.612-.35 2.875-1.024 3.708zm12.416-4.944c-1.104-.457-1.805-.807-2.128-1.102-.269-.269-.404-.645-.404-1.129 0-.403.162-.806.566-1.075.404-.269.862-.403 1.535-.403.592 0 1.212.107 1.804.269.593.161 1.132.403 1.562.725l.135.108v-3.279l-.081-.027a9.712 9.712 0 0 0-1.589-.457 10.815 10.815 0 0 0-1.723-.16c-1.67 0-3.044.402-4.121 1.29-1.077.832-1.589 1.961-1.589 3.278 0 .698.108 1.316.35 1.827.243.51.593.995 1.078 1.398.484.376 1.185.806 2.154 1.209.808.35 1.427.618 1.804.833.378.215.62.457.808.645.135.215.216.484.216.833 0 .994-.754 1.478-2.289 1.478-.593 0-1.212-.107-1.939-.35a7.475 7.475 0 0 1-1.966-.994l-.135-.107v3.413l.081.027c.511.241 1.131.403 1.885.59.754.135 1.427.243 2.02.243 1.804 0 3.286-.403 4.336-1.29 1.077-.86 1.643-1.962 1.643-3.386 0-.995-.27-1.881-.862-2.553a10.93 10.93 0 0 0-3.151-1.854zm13.25-6.504c-2.451 0-4.417.726-5.79 2.15-1.374 1.424-2.074 3.386-2.074 5.858 0 2.311.7 4.193 2.047 5.563 1.347 1.344 3.178 2.043 5.467 2.043 2.397 0 4.309-.726 5.683-2.177 1.4-1.451 2.073-3.386 2.073-5.778 0-2.365-.646-4.246-1.966-5.617-1.265-1.37-3.124-2.042-5.44-2.042zm2.774 11.448c-.646.833-1.67 1.236-2.935 1.236-1.293 0-2.29-.403-3.017-1.29-.727-.833-1.077-2.042-1.077-3.574 0-1.585.377-2.794 1.077-3.654.727-.86 1.724-1.29 2.99-1.29 1.212 0 2.208.403 2.908 1.236.701.833 1.078 2.042 1.078 3.628 0 1.612-.351 2.875-1.024 3.708zm23.35-8.25v-2.875h-3.528V8.516l-.108.027-3.339.995-.081.026v3.36h-5.279v-1.881c0-.86.216-1.532.593-1.962.377-.43.942-.645 1.642-.645.485 0 .997.107 1.563.35l.134.08V5.829l-.081-.027c-.484-.161-1.131-.269-1.966-.269a6.32 6.32 0 0 0-2.801.645 4.672 4.672 0 0 0-1.912 1.908c-.458.807-.7 1.72-.7 2.768v2.07h-2.451v2.848h2.451v12.04h3.528V15.798h5.279v7.659c0 3.144 1.481 4.73 4.443 4.73.485 0 .997-.08 1.482-.162.511-.107.888-.241 1.104-.349l.027-.027v-2.875l-.135.107a2.278 2.278 0 0 1-.727.323 2.47 2.47 0 0 1-.7.107c-.7 0-1.185-.161-1.535-.564-.323-.376-.485-.994-.485-1.908V15.8h3.582z" fill="#737373"/>
        <path d="M.833.132h16.51v16.473H.832V.132z" fill="#F25022"/>
        <path d="M19.066.132h16.509v16.473h-16.51V.132z" fill="#7FBA00"/>
        <path d="M.833 18.325h16.51V34.8H.832V18.325z" fill="#00A4EF"/>
        <path d="M19.066 18.325h16.509V34.8h-16.51V18.325z" fill="#FFB900"/>
    </g>
    <defs>
        <clipPath id="fm1p7pexpa">
            <path fill="#fff" transform="translate(.833 .132)" d="M0 0h162.667v34.667H0z"/>
        </clipPath>
    </defs>
</svg>
