<svg width="76" height="92" viewBox="0 0 76 92" fill="none" xmlns="http://www.w3.org/2000/svg">
<path d="M3.58736 18.1275C37.0688 2.62679 57.3065 22.5657 61.7981 29.9532C64.5412 34.4658 65.3496 42.4173 59.8802 45.3592C56.0774 47.4043 47.5268 41.9338 52.1492 38.4739C54.5039 36.7113 58.7623 38.2547 60.9011 39.5953C67.033 43.4393 68.5437 51.2627 66.1166 57.8347C63.9732 63.6394 57.4572 67.0294 51.4341 65.5256C47.7582 64.6077 43.1219 60.3334 45.9544 56.2608C50.3351 49.9618 56.8985 61.3611 56.2992 66.1543C54.1325 83.4868 29.791 79.6873 20.3329 71.5978" stroke="#14B8A6" stroke-width="3.57" stroke-miterlimit="1.5" stroke-linecap="round" stroke-linejoin="round"/>
<path d="M32.9703 53.973C31.8683 56.4191 29.8767 58.1407 27.9775 59.9607C21.742 65.9374 13.1157 70.381 4.28792 70.4236C13.3851 73.3717 24.2023 80.2655 26.5092 90.0458" stroke="#14B8A6" stroke-width="2.79" stroke-miterlimit="1.5" stroke-linecap="round" stroke-linejoin="round"/>
</svg>
