<?xml version="1.0" standalone="no"?>
<!DOCTYPE svg PUBLIC "-//W3C//DTD SVG 20010904//EN"
 "http://www.w3.org/TR/2001/REC-SVG-20010904/DTD/svg10.dtd">
<svg version="1.0" xmlns="http://www.w3.org/2000/svg"
 width="300.000000pt" height="300.000000pt" viewBox="0 0 300.000000 300.000000"
 preserveAspectRatio="xMidYMid meet">
<metadata>
Created by potrace 1.14, written by Peter Selinger 2001-2017
</metadata>
<g transform="translate(0.000000,300.000000) scale(0.100000,-0.100000)"
fill="#000000" stroke="none">
<path d="M2414 2576 c-3 -7 -17 -13 -31 -13 -14 0 -29 -7 -34 -14 -7 -12 -9
-12 -9 0 0 11 -4 9 -15 -5 -8 -10 -15 -15 -15 -11 0 5 -15 -1 -33 -12 -19 -11
-38 -17 -42 -13 -5 4 -6 0 -3 -8 4 -11 -1 -16 -14 -17 -11 -1 -26 -10 -34 -20
-7 -10 -14 -14 -14 -9 0 6 -7 1 -15 -10 -8 -10 -15 -15 -15 -11 0 4 -13 -6
-30 -23 -16 -16 -33 -30 -39 -30 -5 0 -16 -11 -25 -25 l-17 -26 -32 23 c-18
12 -33 26 -35 30 -2 4 -10 4 -18 1 -8 -3 -14 1 -14 8 0 7 -3 9 -6 6 -4 -4 -20
3 -37 15 -17 12 -27 17 -23 10 4 -7 3 -12 -3 -12 -5 0 -12 4 -15 8 -3 5 -20
10 -38 11 -88 6 -148 5 -148 0 0 -4 -7 -10 -16 -13 -10 -4 -13 -2 -8 6 4 6 3
8 -3 5 -11 -7 -64 -30 -73 -31 -3 -1 -11 -5 -19 -10 -10 -7 -12 -5 -7 5 4 8 0
5 -8 -5 -9 -11 -16 -16 -16 -12 0 9 -72 -33 -82 -48 -4 -6 -8 -7 -8 -2 0 5 -6
3 -13 -3 -8 -6 -17 -8 -20 -4 -4 3 -7 -1 -7 -11 0 -9 -4 -14 -10 -11 -5 3 -10
1 -10 -4 0 -6 -9 -11 -21 -11 -11 0 -17 -4 -14 -10 3 -5 -6 -12 -20 -16 -14
-3 -25 -10 -25 -15 0 -5 -5 -9 -12 -9 -6 0 -26 -11 -44 -25 -18 -14 -39 -25
-48 -25 -8 0 -22 -10 -31 -22 -8 -13 -19 -22 -23 -20 -4 1 -15 -5 -25 -13 -9
-8 -22 -15 -27 -15 -6 0 -10 -5 -10 -11 0 -5 -4 -8 -9 -5 -4 3 -19 -3 -31 -14
-12 -11 -27 -17 -33 -13 -5 3 -7 1 -4 -4 7 -10 -20 -28 -35 -25 -5 1 -8 -3 -8
-8 0 -6 -6 -10 -13 -10 -8 0 -22 -9 -32 -20 -10 -11 -20 -18 -23 -15 -2 2 -19
-7 -37 -20 -17 -14 -37 -25 -43 -25 -7 0 -12 -4 -12 -9 0 -5 -14 -14 -30 -21
-16 -7 -30 -16 -30 -21 0 -5 -3 -8 -8 -7 -15 3 -42 -15 -35 -25 3 -5 1 -7 -4
-4 -6 4 -22 -3 -37 -14 -14 -11 -26 -18 -26 -14 0 3 -10 -3 -22 -15 -12 -11
-27 -20 -34 -20 -6 0 -17 -7 -24 -15 -7 -8 -16 -12 -21 -10 -4 3 -13 -4 -19
-15 -6 -11 -15 -18 -21 -15 -5 4 -9 1 -9 -5 0 -6 -4 -8 -10 -5 -5 3 -10 2 -10
-4 0 -6 -11 -13 -25 -17 -14 -4 -24 -9 -21 -11 3 -3 -17 -17 -44 -31 -27 -14
-47 -28 -45 -32 3 -4 -3 -7 -13 -6 -9 0 -16 -4 -15 -9 1 -6 -8 -12 -20 -12
-11 -1 -25 -9 -29 -18 -5 -8 -13 -13 -19 -10 -5 4 -9 1 -9 -4 0 -6 -7 -11 -15
-11 -8 0 -15 -5 -15 -10 0 -6 -6 -9 -12 -8 -7 2 -12 -3 -10 -10 1 -6 -1 -11
-5 -10 -12 3 -81 -32 -94 -48 -6 -8 -21 -14 -33 -15 -14 0 -16 -2 -6 -6 8 -4
21 -12 29 -20 7 -8 19 -12 27 -9 7 3 18 -1 24 -9 6 -8 18 -11 26 -8 8 3 14 0
14 -6 0 -6 14 -11 30 -11 17 0 30 -5 30 -11 0 -6 9 -9 20 -6 11 3 20 1 20 -5
0 -5 4 -7 9 -3 5 3 12 1 16 -5 4 -6 11 -8 16 -5 5 4 15 3 22 -2 6 -4 21 -9 32
-11 36 -6 40 -7 50 -13 6 -4 18 -5 28 -4 9 2 17 0 17 -4 0 -4 12 -8 27 -9 43
-4 57 -7 70 -15 7 -5 13 -6 13 -3 0 2 14 1 30 -4 20 -6 30 -5 30 2 0 6 7 5 16
-3 19 -16 47 -21 38 -7 -4 7 0 7 12 1 17 -9 57 -14 109 -16 11 0 24 -6 28 -11
6 -8 10 -7 13 1 4 8 13 9 27 4 28 -10 318 -8 335 3 7 4 12 2 12 -5 0 -8 4 -8
16 2 13 10 17 10 24 0 6 -11 8 -11 12 -1 2 8 22 14 44 15 22 1 45 5 51 8 6 4
14 1 16 -5 4 -10 6 -10 6 0 1 7 15 12 37 12 19 0 33 4 30 9 -3 5 4 9 17 9 31
0 67 7 100 21 16 6 34 11 42 11 8 0 17 5 20 11 4 6 13 8 21 5 8 -3 14 -1 14 4
0 6 9 10 20 10 11 0 20 5 20 10 0 6 9 10 19 10 31 0 51 11 51 29 0 14 2 14 10
1 8 -12 10 -12 10 -1 0 8 3 11 7 8 3 -4 22 5 41 20 20 15 32 20 27 12 -4 -8 3
-4 17 9 13 12 30 22 36 22 7 0 12 5 12 10 0 6 6 10 14 10 8 0 16 7 20 15 3 8
11 14 18 13 7 -2 12 3 11 10 -2 6 3 12 11 12 8 0 24 11 37 25 13 13 30 25 37
25 7 0 10 5 7 10 -3 6 -2 10 2 10 5 0 18 7 29 16 10 8 12 13 4 9 -8 -4 -3 3
13 15 15 12 27 28 27 35 0 14 29 29 38 20 3 -3 0 -5 -7 -5 -7 0 -9 -5 -5 -12
5 -7 3 -8 -6 -3 -10 6 -12 4 -7 -8 3 -8 -1 -21 -9 -27 -8 -7 -14 -16 -14 -21
0 -4 -13 -22 -30 -40 -16 -18 -27 -36 -24 -41 3 -4 -2 -8 -11 -8 -9 0 -14 -4
-10 -9 6 -10 -34 -37 -48 -33 -5 1 -6 -2 -2 -8 3 -5 1 -10 -5 -10 -6 0 -8 -4
-5 -10 3 -5 2 -10 -3 -10 -13 0 -62 -47 -56 -53 3 -3 -3 -8 -14 -11 -11 -4
-30 -15 -43 -26 -37 -30 -42 -34 -78 -60 -19 -13 -31 -18 -27 -9 4 7 0 5 -9
-6 -9 -11 -20 -20 -26 -20 -5 0 -14 -6 -18 -14 -5 -7 -13 -11 -19 -7 -5 3 -12
-1 -16 -9 -3 -8 -14 -15 -25 -15 -11 0 -23 -5 -26 -10 -4 -6 -11 -8 -16 -5 -5
4 -9 2 -9 -3 0 -8 -24 -20 -52 -26 -3 0 -10 -4 -14 -8 -4 -5 -16 -8 -26 -8
-10 0 -18 -5 -18 -11 0 -5 -4 -8 -8 -5 -5 3 -20 -1 -33 -8 -14 -7 -34 -12 -46
-11 -12 1 -19 -3 -16 -8 4 -6 -3 -8 -16 -4 -13 3 -24 0 -27 -7 -3 -7 -19 -12
-37 -11 -18 1 -35 -2 -38 -7 -4 -6 -23 -11 -43 -12 -20 -2 -39 -5 -42 -9 -3
-3 -12 -3 -20 0 -8 3 -14 1 -14 -5 0 -5 -14 -8 -31 -6 -20 3 -28 0 -23 -7 5
-8 1 -8 -13 0 -11 6 -23 7 -27 4 -7 -7 -67 -14 -129 -14 -24 0 -35 -4 -31 -11
5 -7 2 -8 -7 -3 -18 12 -49 14 -43 3 3 -4 0 -8 -5 -8 -6 0 -11 4 -11 9 0 4
-12 6 -27 4 -16 -2 -34 -5 -42 -5 -8 -1 -66 -52 -129 -115 -63 -62 -118 -113
-124 -113 -5 0 -7 -3 -5 -7 4 -9 -29 -44 -39 -42 -4 0 -15 -12 -25 -28 -10
-15 -19 -24 -19 -19 0 5 -9 -1 -20 -14 -11 -13 -20 -27 -20 -32 0 -5 -4 -7
-10 -3 -5 3 -16 -7 -24 -22 -8 -15 -15 -24 -16 -20 0 4 -6 2 -14 -5 -8 -7 -12
-16 -10 -20 2 -4 -5 -9 -15 -13 -11 -3 -23 -15 -26 -25 -3 -11 -12 -19 -18
-17 -7 1 -11 -4 -9 -10 1 -7 -2 -13 -8 -13 -13 0 -59 -48 -52 -54 3 -3 -1 -6
-9 -6 -8 0 -22 -12 -32 -25 l-18 -25 211 0 c141 0 210 3 210 11 0 5 4 8 9 5 5
-3 12 1 15 10 4 9 13 14 21 10 9 -3 15 0 15 10 0 8 4 12 10 9 5 -3 10 -1 10 5
0 6 5 8 10 5 6 -3 10 -1 10 5 0 6 4 9 9 6 5 -3 14 1 21 10 10 12 15 12 21 2 6
-9 10 -8 15 5 3 9 14 17 23 17 10 0 21 3 25 8 4 4 11 7 14 8 4 0 27 6 52 14
67 20 73 21 93 21 9 0 17 4 17 8 0 4 20 7 44 6 25 -1 43 2 40 7 -3 4 -1 8 5 8
5 0 13 -5 16 -10 5 -8 11 -7 21 1 8 6 14 8 14 4 0 -4 6 -3 13 4 10 8 17 7 25
-1 8 -8 12 -9 12 -1 0 6 7 14 16 17 10 4 13 2 8 -6 -5 -8 -1 -9 12 -4 10 4 30
9 44 11 14 2 40 9 58 14 17 5 32 7 32 4 0 -3 6 -1 13 4 6 6 20 11 30 12 40 3
47 5 47 14 0 6 3 8 6 4 4 -3 21 0 39 8 19 7 36 11 39 8 3 -3 8 1 12 10 3 9 12
13 19 10 8 -2 41 9 74 25 32 17 62 28 65 25 3 -4 6 -1 6 6 0 7 4 10 9 7 5 -3
14 1 21 9 7 8 16 12 21 9 5 -3 9 -1 9 5 0 6 7 7 17 4 11 -4 14 -3 9 5 -4 7 3
14 19 18 14 3 25 10 25 16 0 5 5 6 10 3 6 -3 10 -1 10 4 0 6 7 11 15 11 8 0
15 5 15 10 0 6 9 10 19 10 11 0 22 9 26 19 3 11 12 18 19 15 8 -3 20 3 27 14
8 11 18 20 22 20 7 1 74 52 102 79 7 7 15 10 18 7 3 -3 8 4 12 15 3 12 13 21
21 21 8 0 12 5 9 10 -3 6 -2 10 4 10 14 0 131 121 126 130 -2 4 7 13 20 20 14
7 25 17 25 22 0 7 8 18 58 76 12 15 25 37 28 49 4 13 9 21 13 19 3 -2 12 2 19
10 7 8 10 14 7 14 -6 0 34 79 45 90 11 11 41 70 35 70 -4 0 1 7 9 16 9 8 13
20 10 26 -4 7 -2 8 4 4 7 -4 14 3 18 19 3 14 10 25 16 25 5 0 6 5 3 10 -3 6
-1 10 4 10 6 0 11 6 11 14 0 7 7 19 15 26 8 7 13 16 10 20 -3 5 2 16 11 24 8
9 12 16 7 16 -4 0 1 7 11 15 11 8 16 15 12 15 -4 0 2 13 13 29 12 16 21 36 21
44 0 8 7 20 15 27 8 7 15 17 15 23 0 5 8 16 18 24 11 10 12 12 2 8 -10 -4 -9
-2 2 8 10 8 15 16 12 19 -2 3 15 25 38 49 45 46 42 45 146 40 13 0 20 -5 17
-11 -3 -5 1 -10 10 -10 9 0 29 -7 45 -15 l29 -15 -1 47 c-1 27 -6 54 -12 62
-9 12 -8 13 4 6 11 -6 10 -3 -2 12 -10 11 -18 23 -18 27 0 11 -69 76 -80 76
-5 0 -7 7 -4 15 4 8 1 15 -5 15 -6 0 -11 7 -11 15 0 8 -4 15 -10 15 -5 0 -10
5 -10 10 0 11 -8 20 -80 98 -27 28 -53 52 -59 52 -6 0 -11 4 -11 9 0 9 -75 45
-95 46 -5 0 -14 6 -18 13 -12 18 -166 17 -173 -2z"/>
</g>
</svg>
