<svg width="384" height="29" viewBox="0 0 384 29" fill="none" xmlns="http://www.w3.org/2000/svg">
<path d="M66.9617 23.144C65.2977 23.144 63.7937 22.776 62.4497 22.04C61.1217 21.304 60.0737 20.288 59.3057 18.992C58.5537 17.68 58.1777 16.216 58.1777 14.6C58.1777 12.984 58.5537 11.528 59.3057 10.232C60.0737 8.92 61.1297 7.896 62.4737 7.16C63.8177 6.424 65.3217 6.056 66.9857 6.056C68.2337 6.056 69.3857 6.264 70.4417 6.68C71.4977 7.096 72.3937 7.704 73.1297 8.504L72.0017 9.632C70.6897 8.304 69.0337 7.64 67.0337 7.64C65.7057 7.64 64.4977 7.944 63.4097 8.552C62.3217 9.16 61.4657 9.992 60.8417 11.048C60.2337 12.104 59.9297 13.288 59.9297 14.6C59.9297 15.912 60.2337 17.096 60.8417 18.152C61.4657 19.208 62.3217 20.04 63.4097 20.648C64.4977 21.256 65.7057 21.56 67.0337 21.56C69.0497 21.56 70.7057 20.888 72.0017 19.544L73.1297 20.672C72.3937 21.472 71.4897 22.088 70.4177 22.52C69.3617 22.936 68.2097 23.144 66.9617 23.144ZM81.1532 23.12C79.9372 23.12 78.8412 22.848 77.8652 22.304C76.8892 21.744 76.1212 20.976 75.5612 20C75.0012 19.024 74.7212 17.92 74.7212 16.688C74.7212 15.456 75.0012 14.352 75.5612 13.376C76.1212 12.4 76.8892 11.64 77.8652 11.096C78.8412 10.552 79.9372 10.28 81.1532 10.28C82.3692 10.28 83.4652 10.552 84.4412 11.096C85.4172 11.64 86.1772 12.4 86.7212 13.376C87.2812 14.352 87.5612 15.456 87.5612 16.688C87.5612 17.92 87.2812 19.024 86.7212 20C86.1772 20.976 85.4172 21.744 84.4412 22.304C83.4652 22.848 82.3692 23.12 81.1532 23.12ZM81.1532 21.608C82.0492 21.608 82.8492 21.408 83.5532 21.008C84.2732 20.592 84.8332 20.008 85.2332 19.256C85.6332 18.504 85.8332 17.648 85.8332 16.688C85.8332 15.728 85.6332 14.872 85.2332 14.12C84.8332 13.368 84.2732 12.792 83.5532 12.392C82.8492 11.976 82.0492 11.768 81.1532 11.768C80.2572 11.768 79.4492 11.976 78.7292 12.392C78.0252 12.792 77.4652 13.368 77.0492 14.12C76.6492 14.872 76.4492 15.728 76.4492 16.688C76.4492 17.648 76.6492 18.504 77.0492 19.256C77.4652 20.008 78.0252 20.592 78.7292 21.008C79.4492 21.408 80.2572 21.608 81.1532 21.608ZM97.4721 10.28C99.0561 10.28 100.312 10.744 101.24 11.672C102.184 12.584 102.656 13.92 102.656 15.68V23H100.952V15.848C100.952 14.536 100.624 13.536 99.9681 12.848C99.3121 12.16 98.3761 11.816 97.1601 11.816C95.8001 11.816 94.7201 12.224 93.9201 13.04C93.1361 13.84 92.7441 14.952 92.7441 16.376V23H91.0401V10.376H92.6721V12.704C93.1361 11.936 93.7761 11.344 94.5921 10.928C95.4241 10.496 96.3841 10.28 97.4721 10.28ZM110.666 23.12C109.642 23.12 108.658 22.976 107.714 22.688C106.786 22.384 106.058 22.008 105.53 21.56L106.298 20.216C106.826 20.632 107.49 20.976 108.29 21.248C109.09 21.504 109.922 21.632 110.786 21.632C111.938 21.632 112.786 21.456 113.33 21.104C113.89 20.736 114.17 20.224 114.17 19.568C114.17 19.104 114.018 18.744 113.714 18.488C113.41 18.216 113.026 18.016 112.562 17.888C112.098 17.744 111.482 17.608 110.714 17.48C109.69 17.288 108.866 17.096 108.242 16.904C107.618 16.696 107.082 16.352 106.634 15.872C106.202 15.392 105.986 14.728 105.986 13.88C105.986 12.824 106.426 11.96 107.306 11.288C108.186 10.616 109.41 10.28 110.978 10.28C111.794 10.28 112.61 10.392 113.426 10.616C114.242 10.824 114.914 11.104 115.442 11.456L114.698 12.824C113.658 12.104 112.418 11.744 110.978 11.744C109.89 11.744 109.066 11.936 108.506 12.32C107.962 12.704 107.69 13.208 107.69 13.832C107.69 14.312 107.842 14.696 108.146 14.984C108.466 15.272 108.858 15.488 109.322 15.632C109.786 15.76 110.426 15.896 111.242 16.04C112.25 16.232 113.058 16.424 113.666 16.616C114.274 16.808 114.794 17.136 115.226 17.6C115.658 18.064 115.874 18.704 115.874 19.52C115.874 20.624 115.41 21.504 114.482 22.16C113.57 22.8 112.298 23.12 110.666 23.12ZM130.4 10.376V23H128.768V20.696C128.32 21.464 127.704 22.064 126.92 22.496C126.136 22.912 125.24 23.12 124.232 23.12C122.584 23.12 121.28 22.664 120.32 21.752C119.376 20.824 118.904 19.472 118.904 17.696V10.376H120.608V17.528C120.608 18.856 120.936 19.864 121.592 20.552C122.248 21.24 123.184 21.584 124.4 21.584C125.728 21.584 126.776 21.184 127.544 20.384C128.312 19.568 128.696 18.44 128.696 17V10.376H130.4ZM150.917 10.28C152.501 10.28 153.741 10.736 154.637 11.648C155.549 12.56 156.005 13.904 156.005 15.68V23H154.301V15.848C154.301 14.536 153.981 13.536 153.341 12.848C152.717 12.16 151.829 11.816 150.677 11.816C149.365 11.816 148.333 12.224 147.581 13.04C146.829 13.84 146.453 14.952 146.453 16.376V23H144.749V15.848C144.749 14.536 144.429 13.536 143.789 12.848C143.165 12.16 142.269 11.816 141.101 11.816C139.805 11.816 138.773 12.224 138.005 13.04C137.253 13.84 136.877 14.952 136.877 16.376V23H135.173V10.376H136.805V12.68C137.253 11.912 137.877 11.32 138.677 10.904C139.477 10.488 140.397 10.28 141.437 10.28C142.493 10.28 143.405 10.504 144.173 10.952C144.957 11.4 145.541 12.064 145.925 12.944C146.389 12.112 147.053 11.464 147.917 11C148.797 10.52 149.797 10.28 150.917 10.28ZM171.665 17.216H161.105C161.201 18.528 161.705 19.592 162.617 20.408C163.529 21.208 164.681 21.608 166.073 21.608C166.857 21.608 167.577 21.472 168.233 21.2C168.889 20.912 169.457 20.496 169.937 19.952L170.897 21.056C170.337 21.728 169.633 22.24 168.785 22.592C167.953 22.944 167.033 23.12 166.025 23.12C164.729 23.12 163.577 22.848 162.569 22.304C161.577 21.744 160.801 20.976 160.241 20C159.681 19.024 159.401 17.92 159.401 16.688C159.401 15.456 159.665 14.352 160.193 13.376C160.737 12.4 161.473 11.64 162.401 11.096C163.345 10.552 164.401 10.28 165.569 10.28C166.737 10.28 167.785 10.552 168.713 11.096C169.641 11.64 170.369 12.4 170.897 13.376C171.425 14.336 171.689 15.44 171.689 16.688L171.665 17.216ZM165.569 11.744C164.353 11.744 163.329 12.136 162.497 12.92C161.681 13.688 161.217 14.696 161.105 15.944H170.057C169.945 14.696 169.473 13.688 168.641 12.92C167.825 12.136 166.801 11.744 165.569 11.744ZM176.789 12.848C177.189 12 177.781 11.36 178.565 10.928C179.365 10.496 180.349 10.28 181.517 10.28V11.936L181.109 11.912C179.781 11.912 178.741 12.32 177.989 13.136C177.237 13.952 176.861 15.096 176.861 16.568V23H175.157V10.376H176.789V12.848ZM194.695 7.736H188.791V6.2H202.375V7.736H196.471V23H194.695V7.736ZM206.156 12.848C206.556 12 207.148 11.36 207.932 10.928C208.732 10.496 209.716 10.28 210.884 10.28V11.936L210.476 11.912C209.148 11.912 208.108 12.32 207.356 13.136C206.604 13.952 206.228 15.096 206.228 16.568V23H204.524V10.376H206.156V12.848ZM225.533 10.376V23H223.901V20.696C223.453 21.464 222.837 22.064 222.053 22.496C221.269 22.912 220.373 23.12 219.365 23.12C217.717 23.12 216.413 22.664 215.453 21.752C214.509 20.824 214.037 19.472 214.037 17.696V10.376H215.741V17.528C215.741 18.856 216.069 19.864 216.725 20.552C217.381 21.24 218.317 21.584 219.533 21.584C220.861 21.584 221.909 21.184 222.677 20.384C223.445 19.568 223.829 18.44 223.829 17V10.376H225.533ZM233.69 23.12C232.666 23.12 231.682 22.976 230.738 22.688C229.81 22.384 229.082 22.008 228.554 21.56L229.322 20.216C229.85 20.632 230.514 20.976 231.314 21.248C232.114 21.504 232.946 21.632 233.81 21.632C234.962 21.632 235.81 21.456 236.354 21.104C236.914 20.736 237.194 20.224 237.194 19.568C237.194 19.104 237.042 18.744 236.738 18.488C236.434 18.216 236.05 18.016 235.586 17.888C235.122 17.744 234.506 17.608 233.738 17.48C232.714 17.288 231.89 17.096 231.266 16.904C230.642 16.696 230.106 16.352 229.658 15.872C229.226 15.392 229.01 14.728 229.01 13.88C229.01 12.824 229.45 11.96 230.33 11.288C231.21 10.616 232.434 10.28 234.002 10.28C234.818 10.28 235.634 10.392 236.45 10.616C237.266 10.824 237.938 11.104 238.466 11.456L237.722 12.824C236.682 12.104 235.442 11.744 234.002 11.744C232.914 11.744 232.09 11.936 231.53 12.32C230.986 12.704 230.714 13.208 230.714 13.832C230.714 14.312 230.866 14.696 231.17 14.984C231.49 15.272 231.882 15.488 232.346 15.632C232.81 15.76 233.45 15.896 234.266 16.04C235.274 16.232 236.082 16.424 236.69 16.616C237.298 16.808 237.818 17.136 238.25 17.6C238.682 18.064 238.898 18.704 238.898 19.52C238.898 20.624 238.434 21.504 237.506 22.16C236.594 22.8 235.322 23.12 233.69 23.12ZM248.696 22.232C248.376 22.52 247.976 22.744 247.496 22.904C247.032 23.048 246.544 23.12 246.032 23.12C244.848 23.12 243.936 22.8 243.296 22.16C242.656 21.52 242.336 20.616 242.336 19.448V11.816H240.08V10.376H242.336V7.616H244.04V10.376H247.88V11.816H244.04V19.352C244.04 20.104 244.224 20.68 244.592 21.08C244.976 21.464 245.52 21.656 246.224 21.656C246.576 21.656 246.912 21.6 247.232 21.488C247.568 21.376 247.856 21.216 248.096 21.008L248.696 22.232ZM262.345 17.216H251.785C251.881 18.528 252.385 19.592 253.297 20.408C254.209 21.208 255.361 21.608 256.753 21.608C257.537 21.608 258.257 21.472 258.913 21.2C259.569 20.912 260.137 20.496 260.617 19.952L261.577 21.056C261.017 21.728 260.313 22.24 259.465 22.592C258.633 22.944 257.713 23.12 256.705 23.12C255.409 23.12 254.257 22.848 253.249 22.304C252.257 21.744 251.481 20.976 250.921 20C250.361 19.024 250.081 17.92 250.081 16.688C250.081 15.456 250.345 14.352 250.873 13.376C251.417 12.4 252.153 11.64 253.081 11.096C254.025 10.552 255.081 10.28 256.249 10.28C257.417 10.28 258.465 10.552 259.393 11.096C260.321 11.64 261.049 12.4 261.577 13.376C262.105 14.336 262.369 15.44 262.369 16.688L262.345 17.216ZM256.249 11.744C255.033 11.744 254.009 12.136 253.177 12.92C252.361 13.688 251.897 14.696 251.785 15.944H260.737C260.625 14.696 260.153 13.688 259.321 12.92C258.505 12.136 257.481 11.744 256.249 11.744ZM277.357 5.192V23H275.725V20.504C275.213 21.352 274.533 22 273.685 22.448C272.853 22.896 271.909 23.12 270.853 23.12C269.669 23.12 268.597 22.848 267.637 22.304C266.677 21.76 265.925 21 265.381 20.024C264.837 19.048 264.565 17.936 264.565 16.688C264.565 15.44 264.837 14.328 265.381 13.352C265.925 12.376 266.677 11.624 267.637 11.096C268.597 10.552 269.669 10.28 270.853 10.28C271.877 10.28 272.797 10.496 273.613 10.928C274.445 11.344 275.125 11.96 275.653 12.776V5.192H277.357ZM270.997 21.608C271.877 21.608 272.669 21.408 273.373 21.008C274.093 20.592 274.653 20.008 275.053 19.256C275.469 18.504 275.677 17.648 275.677 16.688C275.677 15.728 275.469 14.872 275.053 14.12C274.653 13.368 274.093 12.792 273.373 12.392C272.669 11.976 271.877 11.768 270.997 11.768C270.101 11.768 269.293 11.976 268.573 12.392C267.869 12.792 267.309 13.368 266.893 14.12C266.493 14.872 266.293 15.728 266.293 16.688C266.293 17.648 266.493 18.504 266.893 19.256C267.309 20.008 267.869 20.592 268.573 21.008C269.293 21.408 270.101 21.608 270.997 21.608ZM300.216 23L296.376 17.6C295.944 17.648 295.496 17.672 295.032 17.672H290.52V23H288.744V6.2H295.032C297.176 6.2 298.856 6.712 300.072 7.736C301.288 8.76 301.896 10.168 301.896 11.96C301.896 13.272 301.56 14.384 300.888 15.296C300.232 16.192 299.288 16.84 298.056 17.24L302.16 23H300.216ZM294.984 16.16C296.648 16.16 297.92 15.792 298.8 15.056C299.68 14.32 300.12 13.288 300.12 11.96C300.12 10.6 299.68 9.56 298.8 8.84C297.92 8.104 296.648 7.736 294.984 7.736H290.52V16.16H294.984ZM316.72 17.216H306.16C306.256 18.528 306.76 19.592 307.672 20.408C308.584 21.208 309.736 21.608 311.128 21.608C311.912 21.608 312.632 21.472 313.288 21.2C313.944 20.912 314.512 20.496 314.992 19.952L315.952 21.056C315.392 21.728 314.688 22.24 313.84 22.592C313.008 22.944 312.088 23.12 311.08 23.12C309.784 23.12 308.632 22.848 307.624 22.304C306.632 21.744 305.856 20.976 305.296 20C304.736 19.024 304.456 17.92 304.456 16.688C304.456 15.456 304.72 14.352 305.248 13.376C305.792 12.4 306.528 11.64 307.456 11.096C308.4 10.552 309.456 10.28 310.624 10.28C311.792 10.28 312.84 10.552 313.768 11.096C314.696 11.64 315.424 12.4 315.952 13.376C316.48 14.336 316.744 15.44 316.744 16.688L316.72 17.216ZM310.624 11.744C309.408 11.744 308.384 12.136 307.552 12.92C306.736 13.688 306.272 14.696 306.16 15.944H315.112C315 14.696 314.528 13.688 313.696 12.92C312.88 12.136 311.856 11.744 310.624 11.744ZM330.586 10.376L324.97 23H323.218L317.626 10.376H319.402L324.13 21.128L328.906 10.376H330.586ZM332.985 10.376H334.689V23H332.985V10.376ZM333.849 7.616C333.497 7.616 333.201 7.496 332.961 7.256C332.721 7.016 332.601 6.728 332.601 6.392C332.601 6.072 332.721 5.792 332.961 5.552C333.201 5.312 333.497 5.192 333.849 5.192C334.201 5.192 334.497 5.312 334.737 5.552C334.977 5.776 335.097 6.048 335.097 6.368C335.097 6.72 334.977 7.016 334.737 7.256C334.497 7.496 334.201 7.616 333.849 7.616ZM350.423 17.216H339.863C339.959 18.528 340.463 19.592 341.375 20.408C342.287 21.208 343.439 21.608 344.831 21.608C345.615 21.608 346.335 21.472 346.991 21.2C347.647 20.912 348.215 20.496 348.695 19.952L349.655 21.056C349.095 21.728 348.391 22.24 347.543 22.592C346.711 22.944 345.791 23.12 344.783 23.12C343.487 23.12 342.335 22.848 341.327 22.304C340.335 21.744 339.559 20.976 338.999 20C338.439 19.024 338.159 17.92 338.159 16.688C338.159 15.456 338.423 14.352 338.951 13.376C339.495 12.4 340.231 11.64 341.159 11.096C342.103 10.552 343.159 10.28 344.327 10.28C345.495 10.28 346.543 10.552 347.471 11.096C348.399 11.64 349.127 12.4 349.655 13.376C350.183 14.336 350.447 15.44 350.447 16.688L350.423 17.216ZM344.327 11.744C343.111 11.744 342.087 12.136 341.255 12.92C340.439 13.688 339.975 14.696 339.863 15.944H348.815C348.703 14.696 348.231 13.688 347.399 12.92C346.583 12.136 345.559 11.744 344.327 11.744ZM372.209 10.376L367.433 23H365.825L361.841 12.656L357.857 23H356.249L351.497 10.376H353.129L357.089 21.104L361.145 10.376H362.609L366.641 21.104L370.649 10.376H372.209ZM378.018 23.12C376.994 23.12 376.01 22.976 375.066 22.688C374.138 22.384 373.41 22.008 372.882 21.56L373.65 20.216C374.178 20.632 374.842 20.976 375.642 21.248C376.442 21.504 377.274 21.632 378.138 21.632C379.29 21.632 380.138 21.456 380.682 21.104C381.242 20.736 381.522 20.224 381.522 19.568C381.522 19.104 381.37 18.744 381.066 18.488C380.762 18.216 380.378 18.016 379.914 17.888C379.45 17.744 378.834 17.608 378.066 17.48C377.042 17.288 376.218 17.096 375.594 16.904C374.97 16.696 374.434 16.352 373.986 15.872C373.554 15.392 373.338 14.728 373.338 13.88C373.338 12.824 373.778 11.96 374.658 11.288C375.538 10.616 376.762 10.28 378.33 10.28C379.146 10.28 379.962 10.392 380.778 10.616C381.594 10.824 382.266 11.104 382.794 11.456L382.05 12.824C381.01 12.104 379.77 11.744 378.33 11.744C377.242 11.744 376.418 11.936 375.858 12.32C375.314 12.704 375.042 13.208 375.042 13.832C375.042 14.312 375.194 14.696 375.498 14.984C375.818 15.272 376.21 15.488 376.674 15.632C377.138 15.76 377.778 15.896 378.594 16.04C379.602 16.232 380.41 16.424 381.018 16.616C381.626 16.808 382.146 17.136 382.578 17.6C383.01 18.064 383.226 18.704 383.226 19.52C383.226 20.624 382.762 21.504 381.834 22.16C380.922 22.8 379.65 23.12 378.018 23.12Z" fill="#003432"/>
<path d="M14.9918 6.54021H20.7643V9.52599H14.9918V6.54021ZM4.88085 12.5075H8.23968V15.4933H4.88085V12.5075ZM10.0575 18.479H21.7834V21.4648H10.0575V18.479ZM9.83783 12.5075H18.2569V15.4933H9.83783V12.5075ZM5.97459 24.0149H17.6983V27.0007H5.97459V24.0149ZM15.8454 3.98651H11.5048V1H15.8454V3.98651ZM34.01 3.98651H17.2927V1H34.9171C35.371 0.999717 35.8236 1.0494 36.2663 1.1481L34.01 3.98651ZM19.743 24.0149H34.9171C35.7244 24.0149 36.4987 23.7001 37.0698 23.1397C37.6409 22.5793 37.962 21.8191 37.9626 21.0263V14.3717L41.0022 11.6037V21.0263C41.0017 21.8096 40.8437 22.5851 40.5373 23.3083C40.2309 24.0315 39.7821 24.6882 39.2166 25.2407L39.2108 25.2465C38.6482 25.8019 37.9795 26.2427 37.2431 26.5438C36.5067 26.8448 35.7169 27.0001 34.9193 27.0007H19.743V24.0149ZM25.7022 10.4225L21.7834 14.6873L28.7514 20.477L40.9971 9.33332V6.97517C40.9937 5.91987 40.707 4.88411 40.1659 3.97238C39.6247 3.06064 38.8483 2.30518 37.915 1.78222L28.7001 13.3652L25.7022 10.4225ZM0 18.479H8.23968V21.4648H0V18.479ZM7.08664 6.54021H13.5451V9.52599H7.08664V6.54021Z" fill="#52B5B3"/>
</svg>
