<svg width="127" height="127" viewBox="0 0 127 127" fill="none" xmlns="http://www.w3.org/2000/svg">
<path d="M14.387 86.1802H0V127H14.387V86.1802Z" fill="#CE8F00"/>
<path d="M127 0H86.1733V14.3846H127V0Z" fill="#CE8F00"/>
<path d="M0 127L127 0.0212162L126.979 0H81.9081C79.4466 0 77.1125 0.975944 75.3724 2.71567L2.71612 75.3598C0.976107 77.0784 0 79.4333 0 81.8944V127Z" fill="#F4BB3A"/>
<path d="M12.738 89.393L13.9881 91.3234L15.2015 90.11L16.1208 91.0292L14.7143 92.4357L16.0472 94.504L15.0453 95.5059L13.7124 93.4376L11.9107 95.2393L13.2436 97.3076L12.2416 98.3096L10.9087 96.2413L9.48387 97.6661L8.56463 96.7469L10.1825 95.129L8.93232 93.1986L7.5167 94.6143L6.59746 93.695L8.20612 92.0864L6.89161 90.0548L7.89358 89.0529L9.2081 91.0844L11.0098 89.2827L9.69529 87.2512L10.6973 86.2492L12.0118 88.2807L13.2344 87.0581L14.1536 87.9774L12.738 89.393ZM11.736 90.395L9.93429 92.1967L11.1845 94.1271L12.9862 92.3254L11.736 90.395ZM15.9722 83.0885L15.0162 82.1325L16.9282 80.2205L23.6294 86.9217L22.5723 87.9789L16.8271 82.2336L15.9722 83.0885ZM24.0374 80.0975C23.4123 79.4725 22.9956 78.7677 22.7872 77.9833C22.585 77.1927 22.5942 76.4114 22.8148 75.6392C23.0354 74.8548 23.4429 74.1654 24.0374 73.5709C24.7176 72.8907 25.4898 72.4556 26.3538 72.2656C27.2179 72.0634 28.0759 72.1492 28.9277 72.523L27.6683 73.7824C27.1658 73.6108 26.6848 73.5893 26.2251 73.718C25.7655 73.8467 25.3427 74.1041 24.9566 74.4902C24.5337 74.913 24.2518 75.3849 24.1109 75.9058C23.9699 76.4267 23.9822 76.9599 24.1477 77.5053C24.3193 78.0446 24.641 78.5502 25.1129 79.022C25.5847 79.4939 26.0903 79.8156 26.6296 79.9872C27.175 80.1527 27.7112 80.168 28.2383 80.0332C28.7592 79.8922 29.2311 79.6103 29.6539 79.1875C30.04 78.8014 30.2974 78.3786 30.4261 77.9189C30.5548 77.4593 30.5333 76.9783 30.3617 76.4757L31.6211 75.2164C31.9949 76.0682 32.0807 76.9262 31.8785 77.7903C31.6824 78.6482 31.2442 79.4173 30.564 80.0975C29.9634 80.6981 29.277 81.1087 28.5049 81.3293C27.7266 81.5438 26.9422 81.5499 26.1516 81.3477C25.3672 81.1393 24.6624 80.7226 24.0374 80.0975ZM33.4176 64.3562L39.8063 70.7449L38.7584 71.7928L35.9639 68.9983L32.958 72.0042L35.7525 74.7987L34.7045 75.8466L28.3158 69.4579L29.3638 68.41L32.1031 71.1493L35.109 68.1434L32.3697 65.4041L33.4176 64.3562ZM44.1642 66.5156C43.5698 67.1101 42.8834 67.5207 42.1051 67.7474C41.3268 67.9619 40.5424 67.968 39.7519 67.7658C38.9613 67.5513 38.2535 67.1315 37.6284 66.5065C37.0034 65.8814 36.5866 65.1766 36.3783 64.3922C36.176 63.6017 36.1852 62.8203 36.4059 62.0481C36.6265 61.2637 37.034 60.5743 37.6284 59.9799C38.229 59.3793 38.9184 58.9718 39.6967 58.7573C40.475 58.5305 41.2564 58.5213 42.0408 58.7297C42.8252 58.9381 43.53 59.3548 44.155 59.9799C44.7801 60.6049 45.1999 61.3128 45.4144 62.1033C45.6228 62.8877 45.6166 63.6721 45.396 64.4566C45.1754 65.2287 44.7648 65.9151 44.1642 66.5156ZM43.2542 65.6056C43.677 65.1828 43.9589 64.7109 44.0999 64.19C44.2347 63.6629 44.2163 63.1298 44.0447 62.5905C43.8731 62.039 43.5514 61.5272 43.0795 61.0554C42.6077 60.5835 42.099 60.2648 41.5536 60.0994C41.0143 59.9278 40.4842 59.9124 39.9633 60.0534C39.4424 60.1943 38.9705 60.4762 38.5477 60.8991C38.1248 61.3219 37.8429 61.7938 37.702 62.3147C37.561 62.8356 37.5733 63.3688 37.7388 63.9142C37.9103 64.4535 38.2321 64.9591 38.704 65.4309C39.1758 65.9028 39.6845 66.2276 40.2299 66.4053C40.7753 66.5708 41.3115 66.5861 41.8386 66.4513C42.3595 66.3103 42.8313 66.0285 43.2542 65.6056ZM43.0536 54.7202L49.4423 61.1089L48.3944 62.1568L42.0057 55.7681L43.0536 54.7202ZM47.2607 56.8742C46.6356 56.2491 46.2189 55.5444 46.0105 54.7599C45.8083 53.9694 45.8175 53.188 46.0381 52.4159C46.2587 51.6315 46.6663 50.942 47.2607 50.3476C47.9409 49.6674 48.7131 49.2323 49.5772 49.0423C50.4413 48.84 51.2992 48.9258 52.1511 49.2997L50.8917 50.559C50.3892 50.3874 49.9081 50.366 49.4485 50.4947C48.9889 50.6234 48.566 50.8808 48.1799 51.2668C47.7571 51.6897 47.4752 52.1616 47.3342 52.6825C47.1933 53.2034 47.2055 53.7365 47.371 54.2819C47.5426 54.8212 47.8643 55.3268 48.3362 55.7987C48.8081 56.2706 49.3137 56.5923 49.853 56.7639C50.3984 56.9294 50.9346 56.9447 51.4616 56.8098C51.9825 56.6689 52.4544 56.387 52.8773 55.9641C53.2633 55.5781 53.5207 55.1552 53.6494 54.6956C53.7781 54.236 53.7567 53.7549 53.5851 53.2524L54.8444 51.993C55.2182 52.8449 55.304 53.7028 55.1018 54.5669C54.9057 55.4249 54.4675 56.194 53.7873 56.8742C53.1867 57.4748 52.5004 57.8854 51.7282 58.106C50.9499 58.3205 50.1655 58.3266 49.375 58.1244C48.5905 57.916 47.8858 57.4993 47.2607 56.8742ZM53.4328 46.0323L55.3081 47.9076L57.5142 45.7014L58.3691 46.5563L56.163 48.7625L58.1209 50.7205L60.6029 48.2385L61.4578 49.0934L57.9279 52.6233L51.53 46.2254L55.0599 42.6955L55.9148 43.5504L53.4328 46.0323ZM68.1147 42.5652C67.5203 43.1596 66.8339 43.5702 66.0556 43.7969C65.2773 44.0114 64.4929 44.0176 63.7024 43.8153C62.9118 43.6008 62.204 43.1811 61.5789 42.556C60.9538 41.9309 60.5371 41.2261 60.3288 40.4417C60.1265 39.6512 60.1357 38.8698 60.3563 38.0977C60.577 37.3132 60.9845 36.6238 61.5789 36.0294C62.1795 35.4288 62.8689 35.0213 63.6472 34.8068C64.4255 34.58 65.2069 34.5709 65.9913 34.7792C66.7757 34.9876 67.4804 35.4043 68.1055 36.0294C68.7306 36.6545 69.1504 37.3623 69.3649 38.1528C69.5732 38.9372 69.5671 39.7217 69.3465 40.5061C69.1259 41.2782 68.7153 41.9646 68.1147 42.5652ZM67.2047 41.6551C67.6275 41.2323 67.9094 40.7604 68.0504 40.2395C68.1852 39.7125 68.1668 39.1793 67.9952 38.64C67.8236 38.0885 67.5019 37.5768 67.03 37.1049C66.5581 36.633 66.0495 36.3143 65.5041 36.1489C64.9648 35.9773 64.4347 35.962 63.9138 36.1029C63.3929 36.2439 62.921 36.5258 62.4982 36.9486C62.0753 37.3715 61.7934 37.8433 61.6525 38.3642C61.5115 38.8851 61.5238 39.4183 61.6892 39.9637C61.8608 40.503 62.1826 41.0086 62.6544 41.4805C63.1263 41.9523 63.635 42.2771 64.1804 42.4549C64.7258 42.6203 65.262 42.6356 65.789 42.5008C66.3099 42.3599 66.7818 42.078 67.2047 41.6551ZM69.7158 28.0579L70.5707 28.9128L67.859 31.6246L69.7434 33.509L71.8577 31.3948L72.7126 32.2497L70.5983 34.3639L73.3928 37.1584L72.3449 38.2063L65.9562 31.8176L69.7158 28.0579ZM78.48 29.2216C78.5597 28.1246 78.6056 27.2452 78.6179 26.5833C78.6301 25.9092 78.5719 25.2811 78.4432 24.6989C78.3145 24.1167 78.0725 23.6479 77.717 23.2925C77.3493 22.9248 76.9724 22.7256 76.5864 22.695C76.2064 22.6582 75.8295 22.8267 75.4557 23.2005C75.0941 23.5621 74.9287 23.9604 74.9593 24.3956C74.9899 24.8184 75.1922 25.229 75.566 25.6273L74.5548 26.6385C73.8746 25.9215 73.5498 25.18 73.5804 24.4139C73.6111 23.6356 73.9359 22.937 74.5548 22.3181C75.2228 21.6501 75.9276 21.313 76.6691 21.3069C77.4167 21.2947 78.097 21.5949 78.7098 22.2078C79.151 22.649 79.4636 23.1883 79.6474 23.8256C79.8313 24.4507 79.9293 25.0819 79.9416 25.7193C79.9538 26.3443 79.9324 27.1073 79.8772 28.0082L79.8313 28.7895L82.7453 25.8755L83.6185 26.7488L79.151 31.2163L78.3881 30.4533L78.48 29.2216ZM81.1931 22.4822C80.1329 21.422 79.4833 20.4169 79.2443 19.4671C79.0053 18.5049 79.324 17.5857 80.2003 16.7093C81.0767 15.833 81.9928 15.5174 82.9489 15.7625C83.9049 15.9954 84.913 16.6419 85.9732 17.7021C87.0456 18.7746 87.7044 19.7949 87.9495 20.7632C88.1946 21.7192 87.879 22.6354 87.0027 23.5117C86.1264 24.3881 85.2071 24.7067 84.245 24.4677C83.2828 24.2165 82.2656 23.5546 81.1931 22.4822ZM84.9436 18.7317C84.4472 18.2353 83.9937 17.8492 83.5831 17.5734C83.1787 17.2915 82.7711 17.1414 82.3605 17.123C81.9438 17.0985 81.5424 17.2793 81.1563 17.6654C80.7703 18.0514 80.5895 18.4528 80.614 18.8696C80.6324 19.2802 80.7795 19.6907 81.0552 20.1013C81.3371 20.5058 81.7263 20.9562 82.2227 21.4526C82.7374 21.9674 83.2001 22.3688 83.6107 22.6568C84.0213 22.9449 84.4319 23.0981 84.8425 23.1164C85.2592 23.1287 85.6606 22.9418 86.0467 22.5557C86.4328 22.1696 86.6166 21.7713 86.5982 21.3607C86.586 20.944 86.4358 20.5303 86.1478 20.1197C85.8598 19.7091 85.4584 19.2464 84.9436 18.7317ZM89.6742 18.0273C89.7539 16.9303 89.7999 16.0509 89.8121 15.3891C89.8244 14.715 89.7662 14.0868 89.6375 13.5047C89.5088 12.9225 89.2667 12.4537 88.9113 12.0982C88.5436 11.7305 88.1667 11.5314 87.7806 11.5007C87.4007 11.4639 87.0238 11.6325 86.6499 12.0063C86.2884 12.3679 86.1229 12.7662 86.1536 13.2013C86.1842 13.6242 86.3864 14.0347 86.7603 14.4331L85.7491 15.4442C85.0689 14.7272 84.7441 13.9857 84.7747 13.2197C84.8053 12.4414 85.1301 11.7428 85.7491 11.1238C86.4171 10.4558 87.1218 10.1188 87.8633 10.1127C88.611 10.1004 89.2912 10.4007 89.904 11.0135C90.3453 11.4548 90.6578 11.994 90.8417 12.6314C91.0255 13.2565 91.1236 13.8877 91.1358 14.525C91.1481 15.1501 91.1266 15.9131 91.0715 16.8139L91.0255 17.5953L93.9395 14.6813L94.8128 15.5546L90.3453 20.0221L89.5823 19.2591L89.6742 18.0273ZM89.9422 9.11852L88.9862 8.16251L90.8982 6.25049L97.5994 12.9517L96.5423 14.0089L90.7971 8.26363L89.9422 9.11852Z" fill="white"/>
</svg>
