<?xml version="1.0" encoding="iso-8859-1"?>
<!-- Generator: Adobe Illustrator 21.0.2, SVG Export Plug-In . SVG Version: 6.00 Build 0)  -->
<svg version="1.1" id="&#x421;&#x43B;&#x43E;&#x439;_1"
	 xmlns="http://www.w3.org/2000/svg" xmlns:xlink="http://www.w3.org/1999/xlink" x="0px" y="0px" viewBox="0 0 318 430"
	 style="enable-background:new 0 0 318 430;" xml:space="preserve">
<g>
	<g>
		<g>
			<g>
				<g>
					<linearGradient id="SVGID_1_" gradientUnits="userSpaceOnUse" x1="122.8648" y1="419.3793" x2="288.2387" y2="419.3793">
						<stop  offset="0" style="stop-color:#A2AAA4;stop-opacity:0.6"/>
						<stop  offset="0.8656" style="stop-color:#D4D8D1;stop-opacity:0"/>
					</linearGradient>
					<polygon style="fill:url(#SVGID_1_);" points="276.538,411.283 220.773,410.324 145.705,408.962 140.006,411.283 
						122.865,419.988 163.062,421.771 147.331,429.796 261.179,429.378 288.239,417.942 					"/>
				</g>
				<g>
					
						<linearGradient id="SVGID_2_" gradientUnits="userSpaceOnUse" x1="-1548.5299" y1="421.544" x2="-1520.1232" y2="421.544" gradientTransform="matrix(-0.9993 0.0316 -0.0382 1.0019 -1381.9849 37.3821)">
						<stop  offset="0" style="stop-color:#61315B"/>
						<stop  offset="0.4586" style="stop-color:#884E69"/>
						<stop  offset="1" style="stop-color:#BB747B"/>
					</linearGradient>
					<path style="fill:url(#SVGID_2_);" d="M139.612,403.151c0,0-6.154,6.396-11.925,10.123c-1.746,1.128-3.148,2.001-4.224,2.727
						c-2.481,1.673-3.235,2.564-2.504,3.983c0.449,0.871,2.23,0.996,4.42,0.728c2.923-0.358,6.574-1.414,8.762-2.327
						c1.714-0.716,3.027-1.834,4.156-2.83c1.391-1.227,2.502-2.269,3.74-2.145c2.243,0.224,5.032-1.173,5.9-1.791
						c0.502-0.357,1.315-0.781,1.462-2.146c0.107-0.995-0.139-2.49-1.119-4.825c-1.055-2.514-2.939-3.054-4.682-2.893
						C141.503,401.947,139.612,403.151,139.612,403.151z"/>
				</g>
				<g>
					
						<linearGradient id="SVGID_3_" gradientUnits="userSpaceOnUse" x1="-1550.1499" y1="436.8646" x2="-1521.796" y2="436.8646" gradientTransform="matrix(-1 0.0699 0 1 -1379.2292 90.4845)">
						<stop  offset="0" style="stop-color:#61315B"/>
						<stop  offset="0.4586" style="stop-color:#884E69"/>
						<stop  offset="1" style="stop-color:#BB747B"/>
					</linearGradient>
					<path style="fill:url(#SVGID_3_);" d="M160.919,411.747c0,0-5.922,6.612-11.562,10.548c-1.496,1.044-2.733,1.883-3.724,2.589
						c-2.745,1.958-3.591,2.897-2.762,4.357c0.483,0.851,2.274,0.906,4.46,0.554c2.914-0.469,6.531-1.662,8.687-2.657
						c1.669-0.769,3.06-1.546,4.231-2.325c1.477-0.982,2.603-1.966,3.49-2.938c2.324-2.546,4.825-2.132,5.671-2.781
						c0.505-0.388,1.401-0.584,1.501-1.834c0.068-0.844-0.227-2.169-1.25-4.357c-1.153-2.465-3.061-2.93-4.801-2.703
						C162.768,410.475,160.919,411.747,160.919,411.747z"/>
				</g>
				<linearGradient id="SVGID_4_" gradientUnits="userSpaceOnUse" x1="145.7033" y1="175.2151" x2="150.9365" y2="355.6219">
					<stop  offset="0.1512" style="stop-color:#473B63"/>
					<stop  offset="0.3526" style="stop-color:#4C4069"/>
					<stop  offset="0.6142" style="stop-color:#5A5079"/>
					<stop  offset="0.908" style="stop-color:#716994"/>
					<stop  offset="0.9951" style="stop-color:#79729D"/>
				</linearGradient>
				<path style="fill:url(#SVGID_4_);" d="M130.31,248.347c-0.025,0.85-0.043,1.763-0.053,2.75c0,0-4.855,40.636-7.392,67.671
					c-0.912,20.294,15.67,85.284,15.67,85.284s1.553,2.558,4.635,2.47c2.749-0.078,3.568-3.282,3.568-3.282l-4.231-49.715
					c-1.661-11.787-3.068-26.252-4.253-28.848l12.421-51.83c0.827,9.76,2.847,34.83,4.505,65.361
					c0.736,13.547,5.093,70.165,6.166,74.843c0.522,0.099,2.09,1.32,4.194,1.335c2.57,0.019,3.163-0.688,3.374-2.208
					c-1.508-5.875,5.627-129.442,6.304-138.966c0.556-7.822-0.141-18.872-1.042-26.658
					C159.54,246.882,144.889,248.832,130.31,248.347z"/>
			</g>
			<g>
				<linearGradient id="SVGID_5_" gradientUnits="userSpaceOnUse" x1="64.2725" y1="154.7102" x2="83.6377" y2="154.7102">
					<stop  offset="0" style="stop-color:#EDB469"/>
					<stop  offset="0.871" style="stop-color:#FFD168"/>
				</linearGradient>
				<path style="fill:url(#SVGID_5_);" d="M66.871,142.828l-2.598,5.128c0,0,6.003,9.911,14.517,18.636
					c1.933-2.538,3.53-5.402,4.849-8.396C75.425,151.233,66.871,142.828,66.871,142.828z"/>
				<path style="fill:#A07664;" d="M86.601,160.655c-1.032,3.203-2.827,6.152-4.717,9.069c1.256,1.254,2.484,2.456,3.657,3.573
					c2.02-2.962,4.139-5.905,5.267-9.409C89.49,162.94,88.071,161.844,86.601,160.655z"/>
				<linearGradient id="SVGID_6_" gradientUnits="userSpaceOnUse" x1="85.5411" y1="166.4226" x2="154.6713" y2="166.4226">
					<stop  offset="0" style="stop-color:#D49863"/>
					<stop  offset="0.1796" style="stop-color:#CD8F5F"/>
					<stop  offset="1" style="stop-color:#AE684F"/>
				</linearGradient>
				<path style="fill:url(#SVGID_6_);" d="M138.154,151.687c0,0-34.743,17.206-41.45,15.539c-1.382-0.344-3.464-1.586-5.895-3.336
					c-1.129,3.504-3.248,6.447-5.267,9.409c3.563,3.395,6.605,5.993,8.29,6.78c6.375,2.977,39.79,0.061,50.858-6.397
					c3.9-2.275,6.354-7.214,9.614-15.289C157.562,150.316,138.154,151.687,138.154,151.687z"/>
				<path style="fill:#FFFFFF;" d="M86.601,160.655c-0.972-0.786-1.965-1.611-2.964-2.458c-1.319,2.994-2.915,5.857-4.849,8.396
					c1.039,1.065,2.075,2.114,3.095,3.132C83.774,166.807,85.57,163.858,86.601,160.655z"/>
				<linearGradient id="SVGID_7_" gradientUnits="userSpaceOnUse" x1="133.9352" y1="202.0964" x2="166.5693" y2="202.0964">
					<stop  offset="0.043" style="stop-color:#FFFFFF"/>
					<stop  offset="0.4086" style="stop-color:#EAECEE"/>
					<stop  offset="0.9892" style="stop-color:#B3B5D3"/>
				</linearGradient>
				<path style="fill:url(#SVGID_7_);" d="M166.569,151.687c-3.873-2.211-6.914-3.731-6.914-3.731l-8.689,0.248
					c0,0-2.406,0.1-5.694,1.536c-9.325,34.002-11.144,63.25-11.337,98.579c0,0.971,4.132,3.836,13.934,6.16
					c4.63,1.098,12.359,2.021,14.667,1.688c-3.872-28.57-8.19-57.411-1.316-87.77C162.388,163.142,163.154,156.278,166.569,151.687z
					"/>
				<linearGradient id="SVGID_8_" gradientUnits="userSpaceOnUse" x1="125.8977" y1="209.5745" x2="148.8594" y2="209.5745">
					<stop  offset="0" style="stop-color:#D49863"/>
					<stop  offset="0.1796" style="stop-color:#CD8F5F"/>
					<stop  offset="1" style="stop-color:#AE684F"/>
				</linearGradient>
				<path style="fill:url(#SVGID_8_);" d="M148.859,149.529c-2.376,1.039-7.796-0.586-10.706,2.158
					c-7.683,7.244-7.861,19.555-8.119,36.092c-0.225,14.427-0.896,36.32-1.029,39.273c-0.816,18.11-3.107,34.709-3.107,34.709
					l8.038,7.859c0.088-16.062,3.507-51.006,4.136-69.389C139.132,169.244,145.55,153.15,148.859,149.529z"/>
				<linearGradient id="SVGID_9_" gradientUnits="userSpaceOnUse" x1="154.7471" y1="212.5012" x2="183.2009" y2="212.5012">
					<stop  offset="0" style="stop-color:#D49863"/>
					<stop  offset="0.1796" style="stop-color:#CD8F5F"/>
					<stop  offset="1" style="stop-color:#AE684F"/>
				</linearGradient>
				<path style="fill:url(#SVGID_9_);" d="M178.392,227.052c0.644-13.753,7.425-57.57,3.696-63.662
					c-2.226-3.636-9.784-8.429-15.518-11.703c-3.415,4.591-4.181,11.455-5.349,16.71c-3.375,14.908-5.9,32.316-6.382,50.848
					c-0.5,19.208,1.138,39.53,3.109,54.07c10.62-1.533,20.661-7.724,20.661-7.724S177.748,240.805,178.392,227.052z"/>
				<linearGradient id="SVGID_10_" gradientUnits="userSpaceOnUse" x1="171.7785" y1="189.8988" x2="199.3685" y2="185.742">
					<stop  offset="0" style="stop-color:#D49863"/>
					<stop  offset="0.1796" style="stop-color:#CD8F5F"/>
					<stop  offset="1" style="stop-color:#AE684F"/>
				</linearGradient>
				<path style="fill:url(#SVGID_10_);" d="M200.135,204.624c-3.056-0.053-5.33-0.379-6-1.151c-4.903-5.646-6.227-26.17-6.227-26.17
					c-0.666-10.244-5.099-16.102-9.614-18.038c-4.514-1.936-8.588,4.861-7.741,11.894c1.215,10.087,6.397,33.886,14.605,44.274
					c1.26,1.594,7.227,1.423,14.368,0.548C198.642,212.303,198.924,208.063,200.135,204.624z"/>
				<path style="fill:#A07664;" d="M204.685,204.545c-1.626,0.072-3.167,0.103-4.549,0.079c-1.211,3.439-1.494,7.679-0.608,11.358
					c1.175-0.144,2.377-0.305,3.6-0.482C201.887,211.851,202.469,207.717,204.685,204.545z"/>
				<path style="fill:#FFFFFF;" d="M204.685,204.545c-2.216,3.172-2.797,7.306-1.558,10.955c0.945-0.137,2.137-1.083,3.758-1.858
					c0.003-3.799-0.823-6.151,1.157-9.291C206.901,204.43,205.773,204.497,204.685,204.545z"/>
			</g>
			<g>
				
					<linearGradient id="SVGID_11_" gradientUnits="userSpaceOnUse" x1="562.5095" y1="121.3162" x2="566.8315" y2="155.3167" gradientTransform="matrix(0.9947 0.1025 -0.1025 0.9947 -389.8054 -39.4569)">
					<stop  offset="0" style="stop-color:#DB9969"/>
					<stop  offset="0.2411" style="stop-color:#DD9D69"/>
					<stop  offset="0.4674" style="stop-color:#E5A869"/>
					<stop  offset="0.6871" style="stop-color:#F1BB68"/>
					<stop  offset="0.871" style="stop-color:#FFD168"/>
				</linearGradient>
				<path style="fill:url(#SVGID_11_);" d="M151.512,137.21l1.914,14.362c0,0-1.786,2.559-1.359,4.722
					c0.301,1.522-0.259,17.814-0.259,17.814s6.572-16.665,8.211-18.685c1.748-2.155,3.85-6.747,3.85-6.747l-2.839-20.952
					L151.512,137.21z"/>
				
					<linearGradient id="SVGID_12_" gradientUnits="userSpaceOnUse" x1="1848.3558" y1="-70.9092" x2="1861.2278" y2="-103.8337" gradientTransform="matrix(0.9692 0.2377 -0.2751 0.8744 -1667.996 -241.0934)">
					<stop  offset="0.129" style="stop-color:#FFD168"/>
					<stop  offset="0.4523" style="stop-color:#EEB669"/>
					<stop  offset="0.6935" style="stop-color:#E4A769"/>
					<stop  offset="0.7495" style="stop-color:#DF9F69"/>
					<stop  offset="0.8226" style="stop-color:#DC9A69"/>
					<stop  offset="0.8432" style="stop-color:#D59266"/>
					<stop  offset="0.8878" style="stop-color:#CA8761"/>
					<stop  offset="0.9355" style="stop-color:#C7835F"/>
				</linearGradient>
				<path style="fill:url(#SVGID_12_);" d="M167.626,129.355c-3.76,11.951-15.504,21.313-22.109,17.885
					c-5.289-2.745-8.515-18.801-4.754-30.752c3.76-11.951,9.922-14.598,18.372-12.525
					C167.585,106.036,171.386,117.405,167.626,129.355z"/>
				
					<linearGradient id="SVGID_13_" gradientUnits="userSpaceOnUse" x1="1835.8884" y1="-3.8418" x2="1879.184" y2="-28.2774" gradientTransform="matrix(0.9911 0.1497 -0.218 0.976 -1678.5336 -139.5826)">
					<stop  offset="0" style="stop-color:#CE684E"/>
					<stop  offset="0.125" style="stop-color:#C3614D"/>
					<stop  offset="0.4047" style="stop-color:#B0564B"/>
					<stop  offset="0.6929" style="stop-color:#A54F49"/>
					<stop  offset="1" style="stop-color:#A14D49"/>
				</linearGradient>
				<path style="fill:url(#SVGID_13_);" d="M173.881,123.045c0.885-2.467,1.439-4.353,1.752-6.566
					c0.698-4.933,0.956-7.606,0.036-10.853c-0.104-0.367-0.218-0.721-0.339-1.066c-5.878,3.146-12.837,4.459-18.974,7.066
					c2.899,1.143,5.435,3.093,6.781,6.348c0.901,2.179,1.042,4.574,1.166,6.546c0.722-0.573,1.501-0.826,2.178-0.621
					c1.392,0.422,1.822,2.61,0.96,4.887c-0.862,2.277-2.69,3.782-4.082,3.36c-0.057-0.017-0.107-0.046-0.16-0.069
					c-0.081,2.871-0.2,4.113-0.248,6.922c0.626-0.384,4.019-3.042,5.525-4.985C170.281,131.685,171.142,130.682,173.881,123.045z"/>
				<path style="fill:#823C3C;" d="M167.411,98.644c-3.744-0.725-8.274-0.692-11.948,0.357c-2.42,0.691-5.377,2.561-8.009,2.025
					c-2.034-0.414-4.628-2.018-2.77-4.065c-5.488,1.115-7.764,9.215-5.864,14c1.4,3.525,5.6,4.608,8.889,5.472
					c2.899,0.761,5.409,0.747,8.398,0.287c3.709-0.572,6.669-1.595,10.196-2.872c2.413-0.874,5.015-1.339,7.521-1.86
					c1.151-0.239,2.637,0.065,2.82-1.092C177.956,102.572,169.668,99.081,167.411,98.644z"/>
				
					<linearGradient id="SVGID_14_" gradientUnits="userSpaceOnUse" x1="1820.9208" y1="-165.59" x2="1854.684" y2="-165.59" gradientTransform="matrix(0.9367 0.3503 -0.3503 0.9367 -1625.4377 -377.8411)">
					<stop  offset="0" style="stop-color:#CE684E"/>
					<stop  offset="0.125" style="stop-color:#C3614D"/>
					<stop  offset="0.4047" style="stop-color:#B0564B"/>
					<stop  offset="0.6929" style="stop-color:#A54F49"/>
					<stop  offset="1" style="stop-color:#A14D49"/>
				</linearGradient>
				<path style="fill:url(#SVGID_14_);" d="M149.577,108.614c-5.559-0.201-8.756-5.306-7.41-10.519
					c-3.624,2.651-4.931,8.892-3.355,12.863c1.4,3.525,5.6,4.608,8.889,5.472c2.899,0.761,5.409,0.747,8.398,0.287
					c3.709-0.572,6.669-1.595,10.196-2.872c1.618-0.586,3.321-0.984,5.023-1.342C166.565,107.625,156.414,109.389,149.577,108.614z"
					/>
			</g>
			<g>
				
					<linearGradient id="SVGID_15_" gradientUnits="userSpaceOnUse" x1="-4221.4419" y1="312.6763" x2="-4211.2212" y2="315.398" gradientTransform="matrix(0.9853 -0.5009 0.5027 0.8732 4239.4004 -2183.3435)">
					<stop  offset="0.129" style="stop-color:#FFD168"/>
					<stop  offset="1" style="stop-color:#EDB469"/>
				</linearGradient>
				<path style="fill:url(#SVGID_15_);" d="M237.657,205.795c0,0,3.53-4.26,5.152-4.722s0.676,0.947,0.676,0.947
					s2.051-1.672,3.263-1.729c1.212-0.058,2.317-0.32,1.404,0.983c-0.913,1.303-10.42,4.832-10.42,4.832"/>
				<linearGradient id="SVGID_16_" gradientUnits="userSpaceOnUse" x1="205.9912" y1="204.9001" x2="250.0245" y2="204.9001">
					<stop  offset="0" style="stop-color:#EDB469"/>
					<stop  offset="0.871" style="stop-color:#FFD168"/>
				</linearGradient>
				<path style="fill:url(#SVGID_16_);" d="M249.662,199.926c-1.062-0.319-3.352,1.856-6.822,3.674
					c-3.47,1.819-8.951-0.557-8.668-1.137c0.283-0.579,4.977-2.458,6.4-3.837c1.424-1.379,0.735-2.975-0.519-2.316
					s-5.991,2.719-9.034,3.499c-1.9,0.487-4.201,1.786-5.662,2.693c-2.955,0.402-10.408,1.367-17.316,1.847
					c-1.98,3.14-2.048,5.492-2.051,9.291c7.581-1.205,13.859-3.013,17.184-4.078h0c0,0,5.809,1.408,9.967,1.186
					c4.158-0.222,6.122-1.401,9.01-3.24s5.079-3.715,6.366-5.094C249.179,201.708,250.724,200.245,249.662,199.926z"/>
			</g>
		</g>
		
			<linearGradient id="SVGID_17_" gradientUnits="userSpaceOnUse" x1="-1806.1367" y1="1503.2816" x2="-1779.0983" y2="1503.2816" gradientTransform="matrix(-0.8942 -0.4477 -0.4477 0.8942 -873.9124 -2005.3173)">
			<stop  offset="0" style="stop-color:#EDB469"/>
			<stop  offset="0.871" style="stop-color:#FFD168"/>
		</linearGradient>
		<path style="fill:url(#SVGID_17_);" d="M68.46,143.762c0,0-3.243-3.573-6.003-4.935c-2.761-1.362-6.848-4.294-7.902-5.181
			c-1.054-0.887-2.12,0.513-1.08,2.126s5.13,4.364,5.261,4.978s-4.748,0.521-7.665-1.926c-2.917-2.447-5.635-3.718-6.745-3.624
			c-1.11,0.094,0.027,1.813,0.492,2.627c0.907,1.586,2.567,3.833,4.915,6.182c2.347,2.349,3.961,3.878,7.943,4.926
			c3.982,1.047,7.662,0.973,7.662,0.973s1.573-0.586,2.554-2.064C68.526,146.887,68.912,145.554,68.46,143.762z"/>
		<path style="fill:#A07664;" d="M163.854,147.434l10.218,8.879l-11.449,13.07l3.686,2.575l-10.866,40.543
			c0,0,2.056-39.551,5.498-50.464C164.383,151.124,163.854,147.434,163.854,147.434z"/>
		<path style="fill:#A07664;" d="M152.944,147.956l-9.795,1.784c0,0-0.597,1.985-1.002,3.833c-0.665,3.031-0.858,9.67-0.858,9.67
			s-5.347,0.306-5.347,1.188c0,0.882-0.758,3.029-0.582,17.361c0.159,12.958,2.452,24.81,2.452,24.81s1.282-29.474,5.199-42.229
			C146.925,151.619,152.944,147.956,152.944,147.956z"/>
		<ellipse style="fill:#915544;" cx="158.236" cy="232.052" rx="1.561" ry="1.915"/>
		<ellipse style="fill:#915544;" cx="159.796" cy="252.34" rx="1.561" ry="1.915"/>
		<polygon style="fill:#915544;" points="165.345,243.895 175.764,242.34 174.072,243.946 		"/>
		<polygon style="fill:#915544;" points="130.533,236.243 133.935,238.507 130.47,237.429 		"/>
		<path style="fill:#FFFFFF;" d="M152.944,146.96c0,0-2.348,2.077-4.084,5.189c-1.736,3.112-1.587,6.104-1.587,6.104l2.397-0.436
			l1.198,2.397l-0.616,3.878l1.259,10.912c0,0,1.432-10.996,1.432-18.493c0-1.416,0.482-4.94,0.482-4.94L152.944,146.96z"/>
		<linearGradient id="SVGID_18_" gradientUnits="userSpaceOnUse" x1="151.5115" y1="159.9767" x2="163.9507" y2="159.9767">
			<stop  offset="0.043" style="stop-color:#FFFFFF"/>
			<stop  offset="0.7637" style="stop-color:#EAECEE"/>
		</linearGradient>
		<path style="fill:url(#SVGID_18_);" d="M163.498,144.949c0,0-2.39,6.333-3.588,8.512c-1.198,2.179-4.37,8.607-5.072,11.112
			c-0.702,2.506-3.326,10.432-3.326,10.432s4.449-8.797,4.844-9.669c0.395-0.872,0.613-4.031,0.613-4.031l3.489,2.484
			c0,0,1.089-5.642,2.507-9.153s0.89-7.201,0.89-7.201L163.498,144.949z"/>
		<g>
			<linearGradient id="SVGID_19_" gradientUnits="userSpaceOnUse" x1="146.6517" y1="214.7465" x2="151.9301" y2="214.7465">
				<stop  offset="0.043" style="stop-color:#FFFFFF"/>
				<stop  offset="0.7637" style="stop-color:#EAECEE"/>
			</linearGradient>
			<path style="fill:url(#SVGID_19_);" d="M147.452,254.551c-0.025-0.145-0.605-3.637-0.605-10.605c0-2.214-0.044-4.933-0.09-7.811
				c-0.098-6.131-0.21-13.079,0.092-16.845c0.182-2.278,0.384-5.945,0.598-9.827c0.298-5.4,0.635-11.52,0.992-15.162
				c0.471-4.812,2.633-19.215,2.655-19.36l0.837,0.126c-0.022,0.145-2.18,14.527-2.649,19.317
				c-0.356,3.624-0.692,9.734-0.989,15.126c-0.215,3.888-0.417,7.56-0.601,9.848c-0.298,3.725-0.187,10.652-0.089,16.764
				c0.046,2.881,0.09,5.603,0.09,7.824c0,6.886,0.588,10.428,0.594,10.463L147.452,254.551z"/>
		</g>
		<polygon style="fill:#A07664;" points="164.758,185.141 172.234,187.785 172.234,191.286 164.758,189.643 		"/>
	</g>
	<g>
		<path style="fill:#FFFFFF;" d="M129.763,37.548c0,12.988-10.529,18.607-23.516,12.55S82.73,28.604,82.73,15.617
			S93.259-2.99,106.247,3.066S129.763,24.56,129.763,37.548z"/>
		<g>
			<path style="fill:#25C198;" d="M109.547,20.063l-0.279,0.335c0.184,6.078,0.285,12.151,0.426,18.241
				c0.521,0.845,1.287,1.806,2.391,2.643c2.708,2.052,4.4,2.54,4.4,2.54L109.547,20.063z"/>
			<path style="fill:#15A567;" d="M105.147,25.359l3.554,11.072c0,0,0.238,0.981,0.993,2.208
				c-0.141-6.091-0.242-12.164-0.426-18.241L105.147,25.359z"/>
			
				<linearGradient id="SVGID_20_" gradientUnits="userSpaceOnUse" x1="102.2934" y1="199.9075" x2="102.8722" y2="219.8587" gradientTransform="matrix(1 0.5774 0 1 0 -249.9032)">
				<stop  offset="0" style="stop-color:#1B5CED"/>
				<stop  offset="0.3457" style="stop-color:#0E6EF3"/>
				<stop  offset="0.3699" style="stop-color:#0D70F3"/>
				<stop  offset="0.9247" style="stop-color:#70A6F9"/>
			</linearGradient>
			<path style="fill:url(#SVGID_20_);" d="M102.608,16.056l-6.6,15.924l4.231,2.443c0,0,2.708,2.071,3.893-1.476
				s5.416-12.885,5.416-12.885L102.608,16.056z"/>
		</g>
	</g>
	<g>
		
			<linearGradient id="SVGID_21_" gradientUnits="userSpaceOnUse" x1="0.633" y1="673.8701" x2="41.6527" y2="673.8701" gradientTransform="matrix(1 0.4663 0 1 0 -527.1956)">
			<stop  offset="0.2792" style="stop-color:#61C2F8"/>
			<stop  offset="0.9247" style="stop-color:#70D1F9"/>
		</linearGradient>
		<path style="fill:url(#SVGID_21_);" d="M41.653,166.097c0,11.37-9.183,16.306-20.51,11.024
			c-11.327-5.282-20.51-18.781-20.51-30.151c0-11.37,9.183-16.306,20.51-11.024S41.653,154.727,41.653,166.097z"/>
		<g>
			<path style="fill:#FFFFFF;" d="M9.236,140.392c1.248,0.365,2.881,0.941,4.961,1.91c2.555,1.191,4.426,2.684,5.614,4.354
				c1.07,1.491,1.753,3.328,1.753,5.188c0,1.891-0.535,3.13-1.545,3.744c-1.396,0.868-3.594,0.618-6.119-0.559
				c-0.772-0.36-1.485-0.724-2.079-1.156v8.37l-2.584-1.205V140.392z M11.82,151.673c0.564,0.418,1.277,0.813,2.139,1.214
				c3.119,1.454,5.02,0.729,5.02-2.092c0-2.79-1.901-5.01-4.723-6.326c-1.129-0.526-1.99-0.835-2.436-0.919V151.673z"/>
			<path style="fill:#FFFFFF;" d="M23.941,165.137c0.802,0.87,2.169,2.065,3.476,2.675c1.871,0.873,2.763,0.327,2.763-0.944
				c0-1.302-0.743-2.33-2.644-3.961c-2.614-2.211-3.832-4.236-3.832-6.034c0-2.418,1.901-3.516,4.961-2.089
				c1.455,0.679,2.733,1.677,3.505,2.564l-0.624,1.693c-0.564-0.635-1.604-1.647-2.941-2.27c-1.545-0.72-2.377-0.178-2.377,0.938
				c0,1.24,0.832,2.186,2.703,3.834c2.466,2.111,3.772,4.022,3.772,6.254c0,2.666-1.99,3.598-5.347,2.033
				c-1.574-0.734-3.03-1.847-4.04-2.938L23.941,165.137z"/>
		</g>
	</g>
	<g>
		
			<linearGradient id="SVGID_22_" gradientUnits="userSpaceOnUse" x1="197.3301" y1="475.6631" x2="249.0208" y2="475.6631" gradientTransform="matrix(1 0.4663 0 1 0 -527.1956)">
			<stop  offset="0.0348" style="stop-color:#DD404C"/>
			<stop  offset="0.4892" style="stop-color:#E3756D"/>
			<stop  offset="0.966" style="stop-color:#E3756D"/>
		</linearGradient>
		<path style="fill:url(#SVGID_22_);" d="M249.021,64.588c0,14.274-11.571,20.45-25.845,13.793
			c-14.274-6.656-25.845-23.623-25.845-37.897s11.571-20.45,25.845-13.793C237.449,33.347,249.021,50.314,249.021,64.588z"/>
		<polygon style="fill:#FFFFFF;" points="211.554,34.313 213.129,50.873 230.464,58.956 230.464,64.799 224.16,63.829 
			219.433,61.625 218.251,55.952 213.523,53.748 213.523,61.233 224.16,69.739 234.797,70.759 234.797,55.788 217.857,47.101 
			217.069,41.612 234.797,49.879 234.797,45.152 		"/>
	</g>
	<g>
		<linearGradient id="SVGID_23_" gradientUnits="userSpaceOnUse" x1="252.7955" y1="177.3037" x2="314.0422" y2="177.3037">
			<stop  offset="0.166" style="stop-color:#FFA656"/>
			<stop  offset="0.9811" style="stop-color:#FFE37A"/>
		</linearGradient>
		<path style="fill:url(#SVGID_23_);" d="M314.042,191.584c0,16.913-13.711,24.23-30.623,16.343
			c-16.913-7.887-30.623-27.99-30.623-44.903s13.711-24.23,30.623-16.343C300.332,154.567,314.042,174.671,314.042,191.584z"/>
		<g>
			<polygon style="fill:#FFFFFF;" points="274.366,180.875 269.356,178.102 269.274,175.373 264.955,172.913 264.955,179.614 
				280.432,189.987 280.432,164.152 274.366,161.323 			"/>
			<path style="fill:#FFFFFF;" d="M287.886,177.817v-5.472l9.827,4.422l-0.298-4.695l-13.997-6.527c0,0.533,0,14.727,0,14.727
				l9.381,4.374v5.602l-9.381-4.374v5.794l15.049,6.373v-15.612L287.886,177.817z"/>
		</g>
	</g>
	<g>
		
			<linearGradient id="SVGID_24_" gradientUnits="userSpaceOnUse" x1="36.851" y1="719.0259" x2="77.1933" y2="719.0259" gradientTransform="matrix(1 0.4663 0 1 0 -527.1956)">
			<stop  offset="0.0114" style="stop-color:#0DACD1"/>
			<stop  offset="0.9247" style="stop-color:#70DBC7"/>
		</linearGradient>
		<path style="fill:url(#SVGID_24_);" d="M77.193,227.826c0,11.14-9.031,15.96-20.171,10.765
			c-11.14-5.195-20.171-18.437-20.171-29.577c0-11.14,9.031-15.96,20.171-10.765C68.162,203.444,77.193,216.686,77.193,227.826z"/>
		<g>
			<path style="fill:#FFFFFF;" d="M50.457,211.144c0,0.012-0.002,0.023-0.002,0.035v9.658c0,0.962,0.789,2.109,1.762,2.563
				l1.286,0.6v3.987c0,0.761,0.617,1.666,1.379,2.021c0.761,0.355,1.379,0.026,1.379-0.736v-3.987l1.685,0.786v3.987
				c0,0.761,0.617,1.666,1.379,2.021c0.761,0.355,1.379,0.026,1.379-0.736v-3.987l1.286,0.6c0.973,0.454,1.762,0.042,1.762-0.92
				v-9.658c0-0.012-0.002-0.024-0.002-0.036L50.457,211.144z"/>
			<path style="fill:#FFFFFF;" d="M65.651,218.229c-0.761-0.355-1.379-0.026-1.379,0.736v5.923c0,0.761,0.617,1.666,1.379,2.021
				c0.761,0.355,1.379,0.026,1.379-0.736v-5.923C67.03,219.489,66.412,218.584,65.651,218.229z"/>
			<path style="fill:#FFFFFF;" d="M48.393,210.181c-0.761-0.355-1.379-0.026-1.379,0.736v5.923c0,0.761,0.617,1.666,1.379,2.021
				c0.761,0.355,1.379,0.026,1.379-0.736v-5.923C49.772,211.441,49.155,210.536,48.393,210.181z"/>
			<path style="fill:#FFFFFF;" d="M50.854,210.612l12.498,5.828c-0.285-1.999-1.304-4.081-2.734-5.756l1.261-2.074
				c0.084-0.139,0.008-0.388-0.17-0.555c-0.178-0.168-0.392-0.191-0.476-0.052l-1.226,2.016c-0.87-0.881-1.857-1.61-2.904-2.099
				c-1.096-0.511-2.127-0.697-3.026-0.599l-1.258-3.241c-0.085-0.218-0.298-0.393-0.476-0.392c-0.178,0.001-0.254,0.179-0.17,0.397
				l1.3,3.351C52.104,207.809,51.132,208.926,50.854,210.612z M59.387,211.591c0.391,0.182,0.707,0.647,0.707,1.037
				c0,0.391-0.317,0.56-0.707,0.378c-0.391-0.182-0.707-0.647-0.707-1.037C58.68,211.578,58.996,211.409,59.387,211.591z
				 M54.819,209.449c0.391,0.182,0.707,0.647,0.707,1.037c0,0.391-0.317,0.56-0.707,0.378c-0.391-0.182-0.707-0.647-0.707-1.037
				C54.112,209.436,54.429,209.267,54.819,209.449z"/>
		</g>
	</g>
	<g>
		
			<linearGradient id="SVGID_25_" gradientUnits="userSpaceOnUse" x1="263.2045" y1="502.6016" x2="303.6332" y2="502.6016" gradientTransform="matrix(1 0.4663 0 1 0 -527.1956)">
			<stop  offset="0.0679" style="stop-color:#448EF6"/>
			<stop  offset="0.9247" style="stop-color:#70A6F9"/>
		</linearGradient>
		<path style="fill:url(#SVGID_25_);" d="M303.633,116.992c0,11.164-9.05,15.994-20.214,10.788
			c-11.164-5.206-20.214-18.476-20.214-29.64s9.05-15.994,20.214-10.788C294.583,92.558,303.633,105.828,303.633,116.992z"/>
		<path style="fill:#FFFFFF;" d="M289.081,97.472c-0.384-0.332-0.843-0.679-1.368-1.032c-1.392-0.935-2.834-1.516-4.033-1.605
			c-0.751-0.056-1.409,0.097-1.958,0.454c-0.54,0.351-0.964,0.926-1.261,1.708c-0.295,0.772-0.444,1.799-0.444,3.052v1.77
			l-2.476-1.155v4.161l2.476,1.155v14.023l4.358,2.032v-14.023l4.062,1.894v-4.161l-4.062-1.894v-1.987
			c0-0.581,0.053-1.053,0.157-1.402c0.1-0.336,0.247-0.579,0.435-0.722c0.177-0.134,0.383-0.188,0.629-0.164
			c0.516,0.051,1.228,0.392,2.008,0.902c0.398,0.261,0.79,0.54,1.166,0.83l0.527,0.408v-4.057L289.081,97.472z"/>
	</g>
	<g>
		
			<linearGradient id="SVGID_26_" gradientUnits="userSpaceOnUse" x1="21.1429" y1="873.6866" x2="80.1628" y2="873.6866" gradientTransform="matrix(1 0.4663 0 1 0 -814.7648)">
			<stop  offset="0.0753" style="stop-color:#70BDF9"/>
			<stop  offset="1" style="stop-color:#8A94F6"/>
		</linearGradient>
		<path style="fill:url(#SVGID_26_);" d="M80.163,96.302c0,16.298-13.212,23.349-29.51,15.749s-29.51-26.973-29.51-43.271
			s13.212-23.349,29.51-15.749S80.163,80.004,80.163,96.302z"/>
		<polygon style="fill:#FEFEFE;" points="37.464,59.726 37.464,64.872 50.842,71.11 38.664,72.636 38.664,77.953 58.561,87.231 
			58.561,94.434 52.214,94.391 44.839,88.036 44.667,84.182 38.664,81.555 39.35,90.108 52.557,100.897 64.907,102.882 
			65.764,84.587 54.273,79.056 66.793,78.72 66.793,73.403 		"/>
	</g>
	<g>
		<path style="fill:#FFFFFF;" d="M260.721,283.791c0,12.407-10.058,17.775-22.465,11.989c-12.407-5.786-22.465-20.534-22.465-32.941
			c0-12.407,10.058-17.775,22.465-11.989S260.721,271.384,260.721,283.791z"/>
		<g>
			<path style="fill:#BAC8D3;" d="M241.772,265.112c1.328-0.93,0.886-3.019,0.886-3.019s-1.107-0.738-2.878-0.014
				s-1.328,3.255-1.328,3.255S240.444,266.042,241.772,265.112z"/>
			<path style="fill:#BAC8D3;" d="M245.425,275.449c0.775-4.066,2.767-3.137,2.767-3.137s-0.676-1.062-1.799-2.208
				c-1.398-1.428-3.489-2.986-5.828-2.788c0,0-0.884,0.141-2.163-0.455c-1.279-0.596-3.161-4.003-5.928-4.076
				c-2.767-0.073-5.535,1.41-4.649,7.025c0.886,5.616,4.467,11.158,6.088,12.336c2.546,1.851,2.226,0.042,4.489,1.097
				c2.263,1.055,1.599,1.69,3.813,2.801c3.653,1.833,6.642-3.129,6.642-3.129S244.65,279.516,245.425,275.449z"/>
		</g>
	</g>
</g>
</svg>
