<?xml version="1.0" encoding="iso-8859-1"?>
<!-- Generator: Adobe Illustrator 21.0.2, SVG Export Plug-In . SVG Version: 6.00 Build 0)  -->
<svg version="1.1" id="&#x421;&#x43B;&#x43E;&#x439;_1"
	 xmlns="http://www.w3.org/2000/svg" xmlns:xlink="http://www.w3.org/1999/xlink" x="0px" y="0px" viewBox="0 0 358 472"
	 style="enable-background:new 0 0 358 472;" xml:space="preserve">
<g>
	<linearGradient id="SVGID_1_" gradientUnits="userSpaceOnUse" x1="158.4147" y1="133.8627" x2="356.9131" y2="133.8627">
		<stop  offset="0" style="stop-color:#AEA9F3"/>
		<stop  offset="0.3131" style="stop-color:#A1D0F0"/>
		<stop  offset="0.7757" style="stop-color:#D6EBF9"/>
		<stop  offset="1" style="stop-color:#DBEDFA"/>
	</linearGradient>
	<path style="opacity:0.6;fill:url(#SVGID_1_);fill-opacity:0.6;" d="M347.231,88.771L168.096,2.503
		c-5.347-2.575-9.682-0.737-9.682,4.107v158.913c0,4.843,4.335,10.856,9.682,13.432l10.446,5.031
		c0.564,5.172,1.643,13.207,3.372,19.154c2.761,9.49,2.761,9.49,2.761,9.49s-0.292-11.094,2.99-16.315
		c1.359-2.162,2.67-4.328,3.745-6.132l155.82,75.04c5.347,2.575,9.682,0.737,9.682-4.107V102.203
		C356.913,97.36,352.578,91.346,347.231,88.771z"/>
	<g>
		<g>
			<g>
				<g>
					<g>
						<g>
							<g>
								<path style="fill:#FFFFFF;" d="M249.431,182.729l-19.558-9.724v3.694l19.437,9.6
									C249.349,184.527,249.364,184.519,249.431,182.729z"/>
								<path style="fill:#FFFFFF;" d="M245.056,171.834l-3.954-4.15l0.128-1.272c1.053-0.374,1.802-1.719,1.912-3.652l0.449-0.368
									c0,0,0.299-1.422,0-1.89c-0.114-0.179-0.392-0.33-0.688-0.449c-0.15-0.666-0.363-1.307-0.624-1.899l0-0.001
									c0-1.507-1.433-2.757-2.816-3.126c-0.016-0.006-0.033-0.013-0.05-0.018c-0.119-0.041-0.235-0.068-0.35-0.088
									c-1.15-0.309-1.871-0.563-1.959-1.681c0,0-1.135,0.314,0.135,2.34c-0.35,0.385-0.629,0.917-0.814,1.572
									c-0.296-0.145-0.573-0.243-0.688-0.167c-0.299,0.2,0,1.89,0,1.89l0.449,0.771c0.109,2.032,0.859,4.047,1.912,5.364
									l0.172,1.625l-3.997,0.371l-0.835,2.422l12.428,5.482L245.056,171.834z"/>
								<path style="fill:#FFFFFF;" d="M229.874,183.76l19.437,9.6c0.038-1.772,0.054-1.779,0.121-3.57l-19.558-9.724V183.76z"/>
							</g>
						</g>
					</g>
					<polygon style="fill:#FFFFFF;" points="265.217,209.22 340.482,245.083 340.482,209.22 326.936,224.441 318.469,209.22 
						308.579,218.376 303.212,212.752 292.222,215.985 284.602,209.22 					"/>
					<g>
						<g>
							<path style="fill:#FFFFFF;" d="M288.223,202.705l-25.647-12.852c-0.129-0.065-0.21-0.197-0.21-0.341v-4.02l-6.477-8.28
								c-0.117-0.15-0.106-0.364,0.027-0.5c0.133-0.137,0.346-0.155,0.499-0.042l5.951,4.361v-11.417
								c0-0.132,0.069-0.255,0.181-0.325c0.112-0.07,0.253-0.076,0.371-0.016l25.647,12.852c0.129,0.065,0.21,0.197,0.21,0.341
								v19.899c0,0.132-0.069,0.255-0.181,0.324c-0.061,0.038-0.131,0.057-0.2,0.057
								C288.335,202.745,288.277,202.732,288.223,202.705z M263.128,170.23v11.552c0,0.144-0.081,0.275-0.209,0.34
								s-0.281,0.052-0.398-0.033l-4.332-3.174l4.858,6.21c0.052,0.067,0.081,0.15,0.081,0.235v3.916l24.885,12.47v-19.046
								L263.128,170.23z"/>
						</g>
						<g>
							<polygon style="fill:#FFFFFF;" points="265.485,176.03 284.493,185.555 284.493,184.434 265.485,174.909 							"/>
						</g>
						<g>
							<polygon style="fill:#FFFFFF;" points="265.226,179.083 284.233,188.608 284.233,187.487 265.226,177.962 							"/>
						</g>
						<g>
							<polygon style="fill:#FFFFFF;" points="274.19,186.565 284.067,191.514 284.067,190.393 274.19,185.443 							"/>
						</g>
						<g>
							<polygon style="fill:#FFFFFF;" points="265.568,187.749 272.374,191.16 272.374,184.714 265.568,181.303 							"/>
						</g>
					</g>
				</g>
				<g>
					<g>
						
							<linearGradient id="SVGID_2_" gradientUnits="userSpaceOnUse" x1="264.8729" y1="87.7449" x2="317.4394" y2="87.7449" gradientTransform="matrix(1 0 0 1 -89.4745 0)">
							<stop  offset="0" style="stop-color:#9CC7F3"/>
							<stop  offset="0.7097" style="stop-color:#B8F8E3"/>
						</linearGradient>
						<polygon style="opacity:0.6;fill:url(#SVGID_2_);" points="227.965,77.093 227.965,124.533 175.398,98.397 175.398,50.957 
													"/>
						<polygon style="fill:#FFFFFF;" points="203.566,74.72 186.369,66.193 186.369,74.696 189.174,76.091 189.174,78.717 
							190.862,76.93 203.566,83.246 						"/>
						<polygon style="fill:#FFFFFF;" points="220.581,99.694 193.489,86.275 193.489,97.231 215.276,107.767 217.604,112.257 
							217.604,108.925 220.581,110.405 						"/>
					</g>
					<g>
						<g>
							<g>
								<polygon style="fill:#FFFFFF;" points="281.672,124.382 276.354,122.069 276.354,92.254 281.672,94.568 								"/>
								<polygon style="fill:#FFFFFF;" points="291.913,128.033 286.579,125.712 286.579,91.852 291.913,94.173 								"/>
								<polygon style="fill:#FFFFFF;" points="302.155,132.49 296.803,130.161 296.803,92.254 302.155,94.583 								"/>
								<polygon style="fill:#FFFFFF;" points="312.293,137.751 306.924,135.415 306.924,93.462 312.293,95.798 								"/>
								<polygon style="fill:#FFFFFF;" points="322.638,141.402 317.252,139.059 317.252,93.06 322.638,95.403 								"/>
								<polygon style="fill:#FFFFFF;" points="332.88,145.858 327.476,143.507 327.476,93.462 332.88,95.813 								"/>
							</g>
							<g>
								
									<linearGradient id="SVGID_3_" gradientUnits="userSpaceOnUse" x1="405.7371" y1="311.055" x2="499.9017" y2="343.4894" gradientTransform="matrix(1 0.5095 0 1 -89.4745 -368.442)">
									<stop  offset="0.2796" style="stop-color:#81C6F8"/>
									<stop  offset="0.9247" style="stop-color:#90D1F9"/>
								</linearGradient>
								<polygon style="fill:url(#SVGID_3_);" points="281.569,125.32 276.251,123.007 276.251,109.576 281.569,111.89 								"/>
								
									<linearGradient id="SVGID_4_" gradientUnits="userSpaceOnUse" x1="407.7934" y1="306.5657" x2="501.5739" y2="338.8679" gradientTransform="matrix(1 0.5095 0 1 -89.4745 -368.442)">
									<stop  offset="0.2796" style="stop-color:#81C6F8"/>
									<stop  offset="0.9247" style="stop-color:#90D1F9"/>
								</linearGradient>
								<polygon style="fill:url(#SVGID_4_);" points="291.81,129.777 286.475,127.455 286.475,112.202 291.81,114.523 								"/>
								
									<linearGradient id="SVGID_5_" gradientUnits="userSpaceOnUse" x1="409.9261" y1="302.1028" x2="503.3696" y2="334.2889" gradientTransform="matrix(1 0.5095 0 1 -89.4745 -368.442)">
									<stop  offset="0.2796" style="stop-color:#81C6F8"/>
									<stop  offset="0.9247" style="stop-color:#90D1F9"/>
								</linearGradient>
								<polygon style="fill:url(#SVGID_5_);" points="302.052,134.233 296.7,131.904 296.7,114.828 302.052,117.157 								"/>
								
									<linearGradient id="SVGID_6_" gradientUnits="userSpaceOnUse" x1="412.1219" y1="297.6617" x2="505.2675" y2="329.7451" gradientTransform="matrix(1 0.5095 0 1 -89.4745 -368.442)">
									<stop  offset="0.2796" style="stop-color:#81C6F8"/>
									<stop  offset="0.9247" style="stop-color:#90D1F9"/>
								</linearGradient>
								<polygon style="fill:url(#SVGID_6_);" points="312.293,138.689 306.924,136.353 306.924,117.454 312.293,119.79 								"/>
								
									<linearGradient id="SVGID_7_" gradientUnits="userSpaceOnUse" x1="414.3705" y1="293.2387" x2="507.2508" y2="325.2308" gradientTransform="matrix(1 0.5095 0 1 -89.4745 -368.442)">
									<stop  offset="0.2796" style="stop-color:#81C6F8"/>
									<stop  offset="0.9247" style="stop-color:#90D1F9"/>
								</linearGradient>
								<polygon style="fill:url(#SVGID_7_);" points="322.535,143.145 317.149,140.802 317.149,120.08 322.535,122.424 								"/>
								
									<linearGradient id="SVGID_8_" gradientUnits="userSpaceOnUse" x1="416.6635" y1="288.831" x2="509.3061" y2="320.7412" gradientTransform="matrix(1 0.5095 0 1 -89.4745 -368.442)">
									<stop  offset="0.2796" style="stop-color:#81C6F8"/>
									<stop  offset="0.9247" style="stop-color:#90D1F9"/>
								</linearGradient>
								<polygon style="fill:url(#SVGID_8_);" points="332.776,147.602 327.373,145.251 327.373,122.706 332.776,125.057 								
									"/>
							</g>
						</g>
						<polygon style="fill:#FFFFFF;" points="271.894,120.829 266.576,118.515 266.576,96.32 271.79,98.31 						"/>
						
							<linearGradient id="SVGID_9_" gradientUnits="userSpaceOnUse" x1="386.0295" y1="312.6987" x2="455.0318" y2="336.4661" gradientTransform="matrix(1 0.5095 0 1 -89.4745 -368.442)">
							<stop  offset="0.2796" style="stop-color:#81C6F8"/>
							<stop  offset="0.9247" style="stop-color:#90D1F9"/>
						</linearGradient>
						<polygon style="fill:url(#SVGID_9_);" points="271.79,121.767 266.473,119.453 266.473,113.631 271.79,115.607 						"/>
					</g>
					<linearGradient id="SVGID_10_" gradientUnits="userSpaceOnUse" x1="244.9285" y1="66.1931" x2="289.3457" y2="66.1931">
						<stop  offset="0" style="stop-color:#9A9DFF"/>
						<stop  offset="1" style="stop-color:#AEE9F7"/>
					</linearGradient>
					<polygon style="opacity:0.6;fill:url(#SVGID_10_);" points="244.928,52.543 244.928,57.586 289.346,79.843 289.346,74.802 
											"/>
				</g>
				<g>
					<path style="fill:#AC55FF;" d="M208.302,170.171v-15.145l7.79,3.97v-4.699l-7.79-3.97v-6.541l-7.884-4.017l-7.108-8.626
						l0.066-4.889l7.135,3.636v-4.111l-14.778-7.53v4.112l7.127,3.631l-0.068,5.032l-6.763,1.415l-7.645-3.896v6.541l-8.232-4.194
						v4.699l8.231,4.194v7.865l7.35,3.745v2.573l15.807,8.054v-5.287l-15.807-8.054v2.131l-6.83-3.48v-7.281l9.114,4.644v-4.699
						l-9.114-4.644v-5.958l6.924,3.528l7.417,8.897l6.973-1.565l7.566,3.855v5.958l-7.791-3.97v4.699l7.791,3.97v15.145
						l-25.724-13.107v7.492l34.769,17.716v-7.492L208.302,170.171z"/>
				</g>
			</g>
			<g>
				<polygon style="fill:#AC55FF;" points="178.993,26.015 228.818,50.983 228.818,53.923 178.993,28.954 				"/>
				<polygon style="fill:#AC55FF;" points="228.138,58.986 228.138,61.924 178.313,36.956 178.313,34.018 				"/>
				<polygon style="fill:#AC55FF;" points="227.703,69.543 201.812,56.569 201.812,53.629 227.703,66.604 				"/>
				<linearGradient id="SVGID_11_" gradientUnits="userSpaceOnUse" x1="177.9764" y1="47.5815" x2="196.6992" y2="47.5815">
					<stop  offset="0.0753" style="stop-color:#70BDF9"/>
					<stop  offset="0.9736" style="stop-color:#63AFF8"/>
				</linearGradient>
				<path style="fill:url(#SVGID_11_);" d="M196.699,50.804l-18.723-9.382c0,0.992,0,1.973,0,2.939l18.723,9.382V50.804z"/>
			</g>
			<g>
				
					<linearGradient id="SVGID_12_" gradientUnits="userSpaceOnUse" x1="252.4919" y1="-234.2468" x2="281.7823" y2="-234.2468" gradientTransform="matrix(1 0.4663 0 1 0 255.0942)">
					<stop  offset="0.0753" style="stop-color:#70BDF9"/>
					<stop  offset="0.9736" style="stop-color:#63AFF8"/>
				</linearGradient>
				<path style="fill:url(#SVGID_12_);" d="M281.782,152.245c0,7.715-6.557,10.912-14.645,7.14
					c-8.088-3.772-14.645-13.083-14.645-20.799s6.557-10.912,14.645-7.14C275.225,135.218,281.782,144.53,281.782,152.245z"/>
				<g>
					<path style="fill:#FFFFFF;" d="M266.219,151.708c-0.774-0.389-1.503-0.812-2.186-1.267c-0.683-0.455-1.25-0.911-1.7-1.366
						v-2.773c0.308,0.276,0.608,0.531,0.901,0.767c0.292,0.235,0.592,0.46,0.9,0.674c0.308,0.214,0.632,0.422,0.972,0.623
						c0.34,0.201,0.711,0.4,1.114,0.597v-3.099c-0.498-0.317-0.991-0.663-1.481-1.037c-0.49-0.375-0.93-0.799-1.321-1.274
						c-0.391-0.475-0.709-1.01-0.954-1.605c-0.245-0.595-0.367-1.275-0.367-2.039c0-0.623,0.095-1.132,0.284-1.53
						c0.19-0.397,0.462-0.69,0.818-0.878c0.356-0.188,0.788-0.271,1.298-0.251c0.51,0.021,1.084,0.138,1.724,0.351v-1.457
						l1.884,0.879v1.415c0.576,0.307,1.163,0.658,1.76,1.054c0.596,0.396,1.144,0.814,1.641,1.254v2.802
						c-1.217-1.039-2.35-1.832-3.401-2.378v3.141c0.498,0.326,0.989,0.681,1.475,1.063c0.486,0.382,0.92,0.811,1.304,1.287
						c0.383,0.476,0.695,1.01,0.936,1.604c0.241,0.594,0.361,1.268,0.361,2.022c0,1.208-0.354,1.991-1.061,2.35
						c-0.707,0.359-1.712,0.319-3.016-0.119v1.457l-1.884-0.879V151.708z M264.69,140.978c0,0.396,0.126,0.757,0.379,1.083
						c0.253,0.325,0.636,0.664,1.149,1.017v-2.717c-0.577-0.193-0.976-0.226-1.197-0.098
						C264.801,140.39,264.69,140.629,264.69,140.978z M269.572,149.126c0-0.396-0.121-0.752-0.361-1.067
						c-0.241-0.315-0.61-0.641-1.108-0.976v2.66C269.082,150.049,269.572,149.843,269.572,149.126z"/>
				</g>
			</g>
			<linearGradient id="SVGID_13_" gradientUnits="userSpaceOnUse" x1="317.4471" y1="164.7744" x2="337.505" y2="164.7744">
				<stop  offset="0.0753" style="stop-color:#70BDF9"/>
				<stop  offset="0.9736" style="stop-color:#63AFF8"/>
			</linearGradient>
			<path style="fill:url(#SVGID_13_);" d="M323.351,151.135l-5.904,15.699l20.058,11.58c0,0-0.197-4.195-2.064-9.702
				C333.574,163.204,330.035,156.384,323.351,151.135z"/>
			<path style="fill:#AC55FF;" d="M310.917,168.999l5.643-17.87c-1.225-0.935-2.486-1.788-3.777-2.534
				c-11.335-6.544-20.524-2.661-20.524,8.675c0,11.335,9.189,25.83,20.524,32.374c11.014,6.359,20,2.87,20.5-7.732L310.917,168.999z
				"/>
		</g>
	</g>
	<g>
		<g>
			<g>
				<g>
					
						<linearGradient id="SVGID_14_" gradientUnits="userSpaceOnUse" x1="189.1923" y1="431.1716" x2="303.0616" y2="431.1716" gradientTransform="matrix(-1 0 0 1 346.655 0)">
						<stop  offset="0" style="stop-color:#A2AAA4;stop-opacity:0.6732"/>
						<stop  offset="0.8656" style="stop-color:#D4D8D1;stop-opacity:0"/>
					</linearGradient>
					<polygon style="fill:url(#SVGID_14_);" points="131.636,425.085 145.928,429.745 157.463,437.909 75.569,437.909 
						43.593,424.434 					"/>
				</g>
				<g>
					
						<linearGradient id="SVGID_15_" gradientUnits="userSpaceOnUse" x1="173.1038" y1="409.0531" x2="289.5244" y2="409.0531" gradientTransform="matrix(-1 0 0 1 346.655 0)">
						<stop  offset="0" style="stop-color:#A2AAA4;stop-opacity:0.6732"/>
						<stop  offset="0.8656" style="stop-color:#D4D8D1;stop-opacity:0"/>
					</linearGradient>
					<polygon style="fill:url(#SVGID_15_);" points="57.131,404.591 145.835,402.986 162.016,406.957 173.551,415.12 75.912,415.12 
											"/>
				</g>
			</g>
			<g>
				<path style="fill:#C8D5E1;" d="M19.031,410.241l24.096-108.875l0.785,0.441c1.402,0.789,2.874,1.716,4.559,2.862l-0.002-0.017
					l0.869,0.608l0.184,0.127l0,0.001l0.175,0.122c1.05,0.735,2.094,1.488,3.14,2.242c0.92,0.663,1.842,1.327,2.77,1.982l0.255,0.18
					l5.111,60.556l20.883-93.532l0.785,0.442c1.4,0.788,2.872,1.715,4.559,2.863l-0.002-0.018l0.903,0.633l0.149,0.104l0,0.001
					l0.175,0.122c1.042,0.729,2.077,1.476,3.114,2.223c0.929,0.669,1.858,1.34,2.795,2l0.255,0.18l10.13,120.024l-2.612-1.696
					L87.581,283.415l-25.92,95.227l4.329,51.297l-2.612-1.696L48.853,307.843l-26.969,99.801L19.031,410.241z"/>
				<g>
					<path style="fill:#C8D5E1;" d="M59.482,192.314c0,0,9.544-3.061,22,1.538c12.456,4.599,11.589,45.256,18.135,48.929
						c6.545,3.673,36.954,13.884,36.92,25.723c-0.034,11.839-15.452,34.608-48.483,44.283c-33.03,9.676-58.193,3.818-72.572-17.681
						c-5.306-7.933-8.817-18.868-10.594-30.226c-3.038-19.421,1.202-36.252,8.006-45.259c1.906-2.523,7.843-10.429,11.09-12.612
						C39.108,196.84,59.482,192.314,59.482,192.314z"/>
					<path style="fill:#BAC8D3;" d="M9.709,221.939c10.154-16.422,18.782-19.502,30.215-23.602
						c-6.595,3.318-12.516,7.239-15.844,11.643c-5.392,7.137-9.391,19.581-10.244,32.928c-0.853,13.347,1.995,27.495,6.027,36.096
						c3.186,6.796,8.459,16.834,23.264,22.361c18.551,6.926,34.872,12.476,58.318,5.608c0.844-0.247,1.67-0.509,2.491-0.773
						c-5.207,2.784-11.087,5.242-17.68,7.174c-33.03,9.676-63.699,3.962-78.077-17.537C-6.2,274.339,1.513,235.194,9.709,221.939z"
						/>
				</g>
				<defs>
					<filter id="Adobe_OpacityMaskFilter" filterUnits="userSpaceOnUse" x="28.831" y="191.35" width="94.422" height="120.097">
						<feFlood  style="flood-color:white;flood-opacity:1" result="back"/>
						<feBlend  in="SourceGraphic" in2="back" mode="normal"/>
					</filter>
				</defs>
				<mask maskUnits="userSpaceOnUse" x="28.831" y="191.35" width="94.422" height="120.097" id="SVGID_16_">
					<g style="filter:url(#Adobe_OpacityMaskFilter);">
						<defs>
							
								<filter id="Adobe_OpacityMaskFilter_1_" filterUnits="userSpaceOnUse" x="28.831" y="191.35" width="94.422" height="120.097">
								<feFlood  style="flood-color:white;flood-opacity:1" result="back"/>
								<feBlend  in="SourceGraphic" in2="back" mode="normal"/>
							</filter>
						</defs>
						<mask maskUnits="userSpaceOnUse" x="28.831" y="191.35" width="94.422" height="120.097" id="SVGID_16_">
							<g style="filter:url(#Adobe_OpacityMaskFilter_1_);">
							</g>
						</mask>
						
							<linearGradient id="SVGID_17_" gradientUnits="userSpaceOnUse" x1="260.0006" y1="309.6436" x2="294.6454" y2="170.7177" gradientTransform="matrix(-1 0 0 1 346.655 0)">
							<stop  offset="0" style="stop-color:#FFFFFF"/>
							<stop  offset="0.9301" style="stop-color:#000000"/>
						</linearGradient>
						<path style="mask:url(#SVGID_16_);fill:url(#SVGID_17_);" d="M28.831,205.223c0,0,0,24.992,4.638,53.076
							c2.464,14.917,7.438,26.949,10.207,30.442c2.777,3.503,8.626,10.794,14.33,14.148c9.809,5.767,17.432,8.557,17.432,8.557
							s23.357-3.8,28.496-5.245c10.154-2.854,19.318-13.307,19.318-13.307s-20.226-10.353-30.68-19.684
							c-7.208-6.434-13.387-14.238-13.69-22.24c-0.298-7.875-1.424-19-2.664-29.494c-1.848-15.635-3.951-29.869-3.951-29.869
							s-8.83-0.773-15.397,0.359C49.975,193.156,37.991,198.337,28.831,205.223z"/>
					</g>
				</mask>
				<path style="fill:#BAC8D3;" d="M28.831,205.223c0,0,0,24.992,4.638,53.076c2.464,14.917,7.438,26.949,10.207,30.442
					c2.777,3.503,8.626,10.794,14.33,14.148c9.809,5.767,17.432,8.557,17.432,8.557s23.357-3.8,28.496-5.245
					c10.154-2.854,19.318-13.307,19.318-13.307s-20.226-10.353-30.68-19.684c-7.208-6.434-13.387-14.238-13.69-22.24
					c-0.298-7.875-1.424-19-2.664-29.494c-1.848-15.635-3.951-29.869-3.951-29.869s-8.83-0.773-15.397,0.359
					C49.975,193.156,37.991,198.337,28.831,205.223z"/>
				<linearGradient id="SVGID_18_" gradientUnits="userSpaceOnUse" x1="109.9051" y1="200.5357" x2="74.7917" y2="220.3278">
					<stop  offset="0.0049" style="stop-color:#79729D"/>
					<stop  offset="0.092" style="stop-color:#716994"/>
					<stop  offset="0.3858" style="stop-color:#5A5079"/>
					<stop  offset="0.6474" style="stop-color:#4C4069"/>
					<stop  offset="0.8488" style="stop-color:#473B63"/>
				</linearGradient>
				<path style="fill:url(#SVGID_18_);" d="M132.817,241.129c-6.565-6.953-21.374-22.646-22.859-24.316
					c-1.667-1.873-4.158-8.939-5.894-16.191c-2.294-9.583-10.949-29.528-11.672-31.202c-2.223-4.909-6.722-7.561-10.196-8.011
					c-1.639-0.213-3.013,0.082-3.77,0.807c-1.933,1.854-2.122,3.557-2.321,5.361c-0.08,0.723-0.162,1.47-0.361,2.22
					c-0.323,1.221,10.648,38.825,23.608,56.842c2,2.78,19.744,13.996,28.921,19.693C129.255,244.548,130.804,242.89,132.817,241.129
					z"/>
				<path style="fill:#FFFFFF;" d="M135.926,244.422c0,0-1.214-1.284-3.11-3.292c-2.013,1.761-3.562,3.419-4.544,5.203
					c3.263,2.025,5.452,3.359,5.452,3.359L135.926,244.422z"/>
				<g>
					
						<linearGradient id="SVGID_19_" gradientUnits="userSpaceOnUse" x1="-308.2702" y1="376.7142" x2="-277.8928" y2="376.7142" gradientTransform="matrix(0.9993 0.0316 0.0382 1.0019 439.5431 36.7102)">
						<stop  offset="0" style="stop-color:#473B63"/>
						<stop  offset="0.2374" style="stop-color:#4C4069"/>
						<stop  offset="0.546" style="stop-color:#5A5079"/>
						<stop  offset="0.8924" style="stop-color:#716994"/>
						<stop  offset="0.9951" style="stop-color:#79729D"/>
					</linearGradient>
					<path style="fill:url(#SVGID_19_);" d="M156.301,396.226c0,0,6.581,6.84,12.752,10.825c1.868,1.206,3.366,2.14,4.518,2.916
						c2.653,1.789,3.46,2.742,2.678,4.259c-0.48,0.932-2.385,1.065-4.727,0.778c-3.126-0.382-7.031-1.512-9.37-2.489
						c-1.833-0.766-3.237-1.961-4.444-3.026c-1.487-1.312-2.675-2.426-3.999-2.294c-2.399,0.24-5.381-1.254-6.309-1.915
						c-0.537-0.382-1.406-0.835-1.564-2.295c-0.115-1.064,0.149-2.663,1.196-5.16c1.128-2.689,3.143-3.265,5.007-3.094
						C154.279,394.938,156.301,396.226,156.301,396.226z"/>
					
						<linearGradient id="SVGID_20_" gradientUnits="userSpaceOnUse" x1="-306.9257" y1="358.4945" x2="-276.6046" y2="358.4945" gradientTransform="matrix(1 0.0699 0 1 437.5756 89.0865)">
						<stop  offset="0" style="stop-color:#473B63"/>
						<stop  offset="0.2374" style="stop-color:#4C4069"/>
						<stop  offset="0.546" style="stop-color:#5A5079"/>
						<stop  offset="0.8924" style="stop-color:#716994"/>
						<stop  offset="0.9951" style="stop-color:#79729D"/>
					</linearGradient>
					<path style="fill:url(#SVGID_20_);" d="M141.345,418.378c0,0,6.333,7.07,12.364,11.28c1.599,1.116,2.923,2.014,3.982,2.769
						c2.935,2.093,3.84,3.098,2.954,4.659c-0.517,0.91-2.432,0.969-4.769,0.593c-3.116-0.502-6.984-1.778-9.29-2.841
						c-1.784-0.823-3.272-1.654-4.525-2.486c-1.58-1.05-2.784-2.102-3.732-3.142c-2.485-2.723-5.16-2.279-6.065-2.974
						c-0.54-0.415-1.498-0.625-1.605-1.962c-0.072-0.903,0.243-2.319,1.337-4.659c1.232-2.636,3.273-3.133,5.134-2.89
						C139.368,417.017,141.345,418.378,141.345,418.378z"/>
					
						<linearGradient id="SVGID_21_" gradientUnits="userSpaceOnUse" x1="262.626" y1="240.4509" x2="190.6774" y2="438.7321" gradientTransform="matrix(-1 0 0 1 346.655 0)">
						<stop  offset="0" style="stop-color:#61315B"/>
						<stop  offset="0.4586" style="stop-color:#884E69"/>
						<stop  offset="1" style="stop-color:#BB747B"/>
					</linearGradient>
					<path style="fill:url(#SVGID_21_);" d="M67.597,261.942c0-0.001-0.001-0.002-0.002-0.003c0.048-0.025,0.096-0.048,0.144-0.073
						c0.017-0.009,17.815-7.204,21.76-9.629c0.503-0.309,0.856-0.693,1.084-1.114c7.305,2.393,14.385,4.882,19.029,7.784
						c12.594,6.931,48.137,32.039,51.294,39.667c0.154,0.371,0.35,1.009,0.584,1.88c0.818,6.85-5.189,95.773-5.189,95.773
						s-1.32,1.262-4.325,1.051c-2.003-0.14-2.586-1.329-2.586-1.329s-3.631-23.682-4.227-27.864
						c-0.597-4.182-5.371-37.635-4.537-48.1c0.493-6.183,0.157-11.33-0.2-14.514c-0.063-0.14-0.099-0.218-0.099-0.218
						s-36.711-17.281-49.28-23.998c16.234,14.257,29.157,26.844,35.461,33.932c0.805,0.905,1.285,1.648,1.361,2.188
						c0.191,1.353,1.262,5.747,2.883,12.02c0.762,0.165,7.898,66.373,10.595,88.982c-0.452,0.401,0.242,0.179-0.384,0.536
						c-2.541,1.449-6.03,0.619-7.113-0.734c-1.918-6.587-5.801-19.923-6.83-23.475c-0.82-2.831-5.644-23.34-10.233-39.777
						c-2.96-10.603-4.749-21.062-5.128-20.98c-2.062-5.343-3.778-8.477-3.778-8.477s-0.981-0.567-2.73-1.577
						c-15.083-8.718-46.498-26.346-55.598-32.255c0.113-0.178-4.896-3.947-5.873-8.987c-0.501-2.585-0.712-5.462-0.761-8.253
						C44.727,273.748,65.565,262.998,67.597,261.942z"/>
				</g>
				<g>
					
						<linearGradient id="SVGID_22_" gradientUnits="userSpaceOnUse" x1="125.2507" y1="287.4269" x2="133.6672" y2="287.4269" gradientTransform="matrix(-1 0 0 1 346.655 0)">
						<stop  offset="0.0753" style="stop-color:#993BE5"/>
						<stop  offset="0.2949" style="stop-color:#9237E2"/>
						<stop  offset="0.4462" style="stop-color:#8A32DF"/>
						<stop  offset="0.7312" style="stop-color:#852FDD"/>
					</linearGradient>
					<path style="fill:url(#SVGID_22_);" d="M212.988,269.713c1.974,1.382,3.926,2.826,5.908,4.222l2.509,29.727
						c-1.383,0.495-2.764,0.987-4.143,1.478L212.988,269.713z"/>
					<path style="fill:#C078FF;" d="M217.538,307.433l-0.277-2.293c1.379-0.491,2.76-0.984,4.143-1.478l7.48,88.624l-1.204-0.781
						l-9.659-80.07l-7.44-3.901c1.411-0.51,2.826-1.019,4.243-1.525L217.538,307.433z"/>
					
						<linearGradient id="SVGID_23_" gradientUnits="userSpaceOnUse" x1="131.8309" y1="289.4102" x2="149.83" y2="289.4102" gradientTransform="matrix(-1 0 0 1 346.655 0)">
						<stop  offset="0.0753" style="stop-color:#993BE5"/>
						<stop  offset="0.2949" style="stop-color:#9237E2"/>
						<stop  offset="0.4462" style="stop-color:#8A32DF"/>
						<stop  offset="0.7312" style="stop-color:#852FDD"/>
					</linearGradient>
					<path style="fill:url(#SVGID_23_);" d="M207.259,266.044c1.765,0.993,3.477,2.109,5.168,3.279l-8.44,31.006l10.836,5.682
						c-1.418,0.506-2.832,1.014-4.243,1.525l-7.486-3.925l-2.035,7.476c-1.419,0.551-2.829,1.117-4.235,1.691L207.259,266.044z"/>
					<path style="fill:#AE49ED;" d="M201.06,311.086l-15.855,58.248l-0.902-0.473l12.522-56.084
						C198.23,312.203,199.641,311.637,201.06,311.086z"/>
				</g>
				<g>
					<g>
						
							<linearGradient id="SVGID_24_" gradientUnits="userSpaceOnUse" x1="264.3272" y1="336.5215" x2="275.9635" y2="336.5215" gradientTransform="matrix(-1 0 0 1 346.655 0)">
							<stop  offset="0.0753" style="stop-color:#993BE5"/>
							<stop  offset="0.2949" style="stop-color:#9237E2"/>
							<stop  offset="0.4462" style="stop-color:#8A32DF"/>
							<stop  offset="0.7312" style="stop-color:#852FDD"/>
						</linearGradient>
						<path style="fill:url(#SVGID_24_);" d="M75.86,342.552c-1.692-1.17-3.403-2.286-5.168-3.279l2.99-13.394l7.179,3.905
							l1.467,17.381c-1.982-1.396-3.934-2.84-5.908-4.222l-0.205-1.697L75.86,342.552z"/>
						<path style="fill:#C078FF;" d="M48.637,442.563l-0.902-0.473l22.956-102.818c1.765,0.993,3.477,2.109,5.168,3.279
							l-8.44,31.006l13.55,7.105l-4.55-37.72c1.974,1.382,3.926,2.826,5.908,4.222l9.989,118.352l-1.204-0.781l-9.659-80.07
							l-14.926-7.826L48.637,442.563z"/>
					</g>
					<g>
						
							<linearGradient id="SVGID_25_" gradientUnits="userSpaceOnUse" x1="91.3262" y1="291.8031" x2="320.1966" y2="291.8031" gradientTransform="matrix(-1 0 0 1 346.655 0)">
							<stop  offset="0.0323" style="stop-color:#812DDB"/>
							<stop  offset="0.1346" style="stop-color:#8A32DF"/>
							<stop  offset="0.4113" style="stop-color:#9D3EE6"/>
							<stop  offset="0.6963" style="stop-color:#A845EB"/>
							<stop  offset="1" style="stop-color:#AC47EC"/>
						</linearGradient>
						<polygon style="fill:url(#SVGID_25_);" points="175.411,230.307 255.329,272.428 255.329,274.61 106.376,353.299 
							26.736,311.446 26.458,308.767 						"/>
						
							<linearGradient id="SVGID_26_" gradientUnits="userSpaceOnUse" x1="91.3262" y1="290.6047" x2="320.1966" y2="290.6047" gradientTransform="matrix(-1 0 0 1 346.655 0)">
							<stop  offset="0" style="stop-color:#D5ADF3"/>
							<stop  offset="1" style="stop-color:#B479E3"/>
						</linearGradient>
						<polygon style="fill:url(#SVGID_26_);" points="175.411,230.322 255.329,272.442 106.376,350.887 26.458,308.767 						"/>
					</g>
					<g>
						
							<linearGradient id="SVGID_27_" gradientUnits="userSpaceOnUse" x1="174.0836" y1="288.0137" x2="317.2157" y2="293.2227" gradientTransform="matrix(-1 0 0 1 346.655 0)">
							<stop  offset="0" style="stop-color:#C9CCD3"/>
							<stop  offset="1" style="stop-color:#FFFFFF"/>
						</linearGradient>
						<polygon style="fill:url(#SVGID_27_);" points="207.112,281.014 138.953,315.442 26.458,308.767 106.215,266.673 
							142.86,262.89 						"/>
					</g>
				</g>
				<linearGradient id="SVGID_28_" gradientUnits="userSpaceOnUse" x1="39.723" y1="218.2848" x2="94.4281" y2="218.2848">
					<stop  offset="0.0561" style="stop-color:#473B63"/>
					<stop  offset="0.2213" style="stop-color:#473B63"/>
					<stop  offset="0.3555" style="stop-color:#4C4069"/>
					<stop  offset="0.5298" style="stop-color:#5A5079"/>
					<stop  offset="0.715" style="stop-color:#706892"/>
					<stop  offset="0.9951" style="stop-color:#79729D"/>
				</linearGradient>
				<path style="fill:url(#SVGID_28_);" d="M91.956,240.115c-1.784-7.628-3.389-16.411-1.393-26.961
					c2.944-15.563,4.118-40.212-4.296-50.3c-1.085-1.301-4.77-3.468-6.597-3.975c-0.141-0.039-0.283-0.064-0.424-0.097
					c-5.223-1.236-10.586,1.347-14.478,2.895c-0.095,0.038-0.193,0.078-0.286,0.114c-5.419,2.119-12.933,7.221-17.203,15.953
					c-2.905,5.942-6.228,37.86-7.094,62.663c-0.407,11.648-0.684,20.329-0.215,27.325c0.335,5.001,0.94,7.916,2.936,9.271
					c2.059,1.398,6.102,1.352,10.472,0.542c4.949-0.918,10.317-2.815,13.7-4.706c1.985-1.11,3.828-2.122,5.592-3.099
					c2.588-1.434,5.002-2.79,7.404-4.248c2.382-1.446,4.76-2.998,7.298-4.826c0.979-0.706,1.98-1.449,3.016-2.248
					C96.833,253.448,94.16,249.543,91.956,240.115z"/>
				<g>
					
						<linearGradient id="SVGID_29_" gradientUnits="userSpaceOnUse" x1="269.7298" y1="150.5695" x2="272.7408" y2="174.2564" gradientTransform="matrix(-1 0 0 1 346.655 0)">
						<stop  offset="0" style="stop-color:#DB9969"/>
						<stop  offset="0.2411" style="stop-color:#DD9D69"/>
						<stop  offset="0.4674" style="stop-color:#E5A869"/>
						<stop  offset="0.6871" style="stop-color:#F1BB68"/>
						<stop  offset="0.871" style="stop-color:#FFD168"/>
					</linearGradient>
					<path style="fill:url(#SVGID_29_);" d="M83.759,154.161l-3.797,15.849c0,0,0.941,5.189-2.526,5.236
						c-4.339,0.058-9.504-11.273-9.504-11.273l6.271-21.524L83.759,154.161z"/>
					
						<linearGradient id="SVGID_30_" gradientUnits="userSpaceOnUse" x1="245.2751" y1="38.4149" x2="259.7538" y2="1.3807" gradientTransform="matrix(-0.9911 -0.1168 -0.0486 0.9154 339.4624 147.1041)">
						<stop  offset="0.129" style="stop-color:#FFD168"/>
						<stop  offset="0.4523" style="stop-color:#EEB669"/>
						<stop  offset="0.6935" style="stop-color:#E4A769"/>
						<stop  offset="0.7495" style="stop-color:#DF9F69"/>
						<stop  offset="0.8226" style="stop-color:#DC9A69"/>
						<stop  offset="0.8432" style="stop-color:#D59266"/>
						<stop  offset="0.8878" style="stop-color:#CA8761"/>
						<stop  offset="0.9355" style="stop-color:#C7835F"/>
					</linearGradient>
					<path style="fill:url(#SVGID_30_);" d="M71.294,136.561c-0.746,14.072,7.937,28.563,16.247,27.553
						c6.653-0.808,16.378-16.454,17.124-30.526c0.746-14.072-4.702-19.289-14.422-20.434
						C80.525,112.009,72.04,122.489,71.294,136.561z"/>
					
						<linearGradient id="SVGID_31_" gradientUnits="userSpaceOnUse" x1="229.2452" y1="-50.1151" x2="277.9449" y2="-77.6009" gradientTransform="matrix(-0.9808 -0.2069 -0.1377 0.9905 315.4423 246.1002)">
						<stop  offset="0" style="stop-color:#CE684E"/>
						<stop  offset="0.125" style="stop-color:#C3614D"/>
						<stop  offset="0.4047" style="stop-color:#B0564B"/>
						<stop  offset="0.6929" style="stop-color:#A54F49"/>
						<stop  offset="1" style="stop-color:#A14D49"/>
					</linearGradient>
					<path style="fill:url(#SVGID_31_);" d="M67.19,127.448c0.039-2.948,0.199-5.153,0.741-7.608
						c1.208-5.472,1.989-8.39,4.238-11.448c0.254-0.346,0.514-0.674,0.777-0.989c4.954,5.631,11.768,9.756,17.207,14.92
						c-3.504,0.062-6.945,1.117-9.645,4.016c-1.808,1.941-2.9,4.408-3.808,6.437c-0.535-0.888-1.256-1.461-2.05-1.512
						c-1.633-0.104-2.948,2.032-2.937,4.771c0.011,2.739,1.344,5.044,2.977,5.148c0.067,0.004,0.131-0.007,0.196-0.01
						c-1.046,3.056-1.41,4.413-2.465,7.39c-0.508-0.651-3.036-4.788-3.857-7.428C67.579,137.969,67.067,136.574,67.19,127.448z"/>
				</g>
				<path style="fill:#823C3C;" d="M83.621,104.289c4.23,0.711,8.99,2.53,12.447,5.083c2.278,1.682,4.656,4.816,7.64,5.289
					c2.306,0.365,5.672-0.303,4.52-3.192c5.343,3.337,4.549,12.768,0.663,17.061c-2.864,3.163-7.716,2.649-11.521,2.263
					c-3.355-0.34-5.993-1.344-8.961-3.006c-3.683-2.064-6.398-4.308-9.611-7.042c-2.198-1.871-4.756-3.387-7.191-4.923
					c-1.119-0.706-2.804-0.97-2.541-2.262C70.963,104.273,81.07,103.861,83.621,104.289z"/>
				
					<linearGradient id="SVGID_32_" gradientUnits="userSpaceOnUse" x1="234.6341" y1="122.3697" x2="272.6116" y2="122.3697" gradientTransform="matrix(-1 0 0 1 346.655 0)">
					<stop  offset="0" style="stop-color:#CE684E"/>
					<stop  offset="0.125" style="stop-color:#C3614D"/>
					<stop  offset="0.4047" style="stop-color:#B0564B"/>
					<stop  offset="0.6929" style="stop-color:#A54F49"/>
					<stop  offset="1" style="stop-color:#A14D49"/>
				</linearGradient>
				<path style="fill:url(#SVGID_32_);" d="M98.482,121.82c5.936,1.979,11.316-2.14,11.951-8.163
					c2.774,4.22,1.692,11.311-1.533,14.873c-2.864,3.163-7.716,2.649-11.521,2.263c-3.355-0.34-5.993-1.344-8.961-3.006
					c-3.683-2.064-6.398-4.308-9.611-7.042c-1.474-1.255-3.112-2.345-4.764-3.393C80.973,114.085,90.973,119.943,98.482,121.82z"/>
				
					<linearGradient id="SVGID_33_" gradientUnits="userSpaceOnUse" x1="91.3262" y1="312.8632" x2="240.2785" y2="312.8632" gradientTransform="matrix(-1 0 0 1 346.655 0)">
					<stop  offset="0" style="stop-color:#CF9FFF"/>
					<stop  offset="1" style="stop-color:#B479E3"/>
				</linearGradient>
				<polygon style="fill:url(#SVGID_33_);" points="106.376,350.887 106.376,353.299 255.329,274.61 255.329,272.428 				"/>
				<path style="fill:#EEF4F9;" d="M70.213,156.141l-5.277,5.201l0,0c0,0-0.458,2.763,6.662,12.863
					c4.835,6.858,10.419,3.626,10.862-1.754c0.443-5.379-1.097-8.287-1.097-8.287s-1.675,4.324-7.263,0
					C70.26,161.194,70.213,156.141,70.213,156.141z"/>
				<path style="fill:#B3B7BA;" d="M65.893,161.846c0.07,0.228,0.54,2.861,2.038,5.275c1.498,2.414,4.771,5.75,5.803,6.5
					c1.032,0.751,1.032,0.751,1.032,0.751l3.169-5.588l3.687,4.222c0,0,0.101-3.796,0-5.886c-0.101-2.09-0.101-2.09-0.101-2.09
					s-0.298,1.001-2.86,0.917c-2.561-0.083-6.398-2.206-7.899-4.606c-1.501-2.4-1.225-2.885-1.225-2.885L65.893,161.846z"/>
				<path style="fill:#FFFFFF;" d="M65.509,160.401c0,0,0.95,4.794,4.096,8.496c3.146,3.703,4.438,4.109,4.438,4.109l4.619-7.058
					c0,0-2.099-0.459-5.326-3.303c-3.226-2.844-3.124-6.504-3.124-6.504L65.509,160.401z"/>
				<path style="fill:#FFFFFF;" d="M81.623,163.076c0,0-0.335,1.686-1.112,2.279c-0.777,0.593-1.848,0.592-1.848,0.592l2.96,7.058
					c0,0,0.873-2.873,0.845-5.174S81.623,163.076,81.623,163.076z"/>
			</g>
			<g>
				<g>
					<g>
						<path style="fill:#AFACC6;" d="M94.131,293.301l42.544,22.659c0,0,2.455,1.414,4.976,0.383
							c2.521-1.031,62.053-32.522,62.053-32.522s3.489-1.748-1.421-4.576c-4.91-2.828-41.143-22.247-41.143-22.247
							s-1.051-0.566-3.115-0.31c-1.468,0.182-3.448,0.779-5.927,2.291c-5.966,3.638-57.951,29.629-57.951,29.629
							s-1.386,0.756-1.816,1.831C91.997,291.27,92.236,292.292,94.131,293.301z"/>
						
							<linearGradient id="SVGID_34_" gradientUnits="userSpaceOnUse" x1="-30.1136" y1="285.3933" x2="-29.7867" y2="285.3933" gradientTransform="matrix(-1 0 0 1 346.655 0)">
							<stop  offset="0.1344" style="stop-color:#DEE0DB"/>
							<stop  offset="0.7688" style="stop-color:#DDDFE4"/>
						</linearGradient>
						<path style="fill:url(#SVGID_34_);" d="M94.131,292.024l42.544,22.659c0,0,2.455,1.414,4.976,0.383
							c2.521-1.031,62.053-32.522,62.053-32.522s3.489-1.748-1.421-4.576c-4.91-2.828-41.143-22.247-41.143-22.247
							s-1.051-0.566-3.115-0.31c-1.468,0.182-3.448,0.779-5.927,2.291c-5.966,3.638-57.951,29.629-57.951,29.629
							s-1.386,0.756-1.816,1.831C91.997,289.993,92.236,291.015,94.131,292.024z"/>
					</g>
					<g>
						<polygon style="fill:#A7B2BC;" points="168.051,266.584 193.947,281.556 141.557,308.726 113.635,294.406 						"/>
						<path style="fill:#C1CAD3;" d="M141.279,273.791c0,0-9.434,4.991-9.834,5.154c-0.399,0.163-0.789-0.061-0.789-0.061
							l-6.742-3.591c-0.3-0.16-0.338-0.322-0.285-0.454c0.068-0.17,0.288-0.29,0.288-0.29s8.238-4.119,9.184-4.695
							c0.393-0.24,0.707-0.334,0.939-0.363c0.327-0.041,0.494,0.049,0.494,0.049s5.742,3.077,6.52,3.526
							S141.279,273.791,141.279,273.791z"/>
					</g>
				</g>
				<g>
					<linearGradient id="SVGID_35_" gradientUnits="userSpaceOnUse" x1="79.8513" y1="224.2393" x2="49.4245" y2="238.6317">
						<stop  offset="0.0049" style="stop-color:#79729D"/>
						<stop  offset="0.092" style="stop-color:#716994"/>
						<stop  offset="0.3858" style="stop-color:#5A5079"/>
						<stop  offset="0.6474" style="stop-color:#4C4069"/>
						<stop  offset="0.8488" style="stop-color:#473B63"/>
					</linearGradient>
					<path style="fill:url(#SVGID_35_);" d="M92.274,248.937c-7.909-7.988-15.05-15.18-15.464-15.522
						c-2.09-1.726-5.648-11.9-9-22.738c-3.911-12.649-7.541-26.203-8.226-28.296c-1.376-3.973-3.13-5.839-4.795-6.471
						c-2.079-0.789-5.735-1.322-7.135,1.093c-2.695,4.648-2.978,7.984-3.505,11.699c-0.175,1.232-1.763,11.066,5.363,30.362
						c1.318,3.569,2.926,7.459,4.883,11.676c1.792,3.859,4.431,8.819,7.587,12.895c1.162,1.501,5.761,4.852,11.771,8.892
						c10.701,7.195,25.863,16.571,34.059,21.586c0.444-2.31,1.626-4.497,3.462-6.298C107.296,263.913,99.47,256.206,92.274,248.937z
						"/>
					<path style="fill:#FFFFFF;" d="M113.917,270.404c0,0-0.992-0.968-2.644-2.589c-1.836,1.801-3.018,3.988-3.462,6.298
						c3.552,2.174,5.803,3.533,5.803,3.533L113.917,270.404z"/>
					
						<linearGradient id="SVGID_36_" gradientUnits="userSpaceOnUse" x1="203.9238" y1="-27.0082" x2="235.5268" y2="-27.0082" gradientTransform="matrix(-0.9448 -0.3349 -0.2676 0.9635 326.9816 380.8781)">
						<stop  offset="0.129" style="stop-color:#FFD168"/>
						<stop  offset="0.415" style="stop-color:#F0B969"/>
						<stop  offset="0.6183" style="stop-color:#E9AE69"/>
						<stop  offset="0.6741" style="stop-color:#E5A869"/>
						<stop  offset="0.8318" style="stop-color:#DD9D69"/>
						<stop  offset="1" style="stop-color:#DB9969"/>
					</linearGradient>
					<path style="fill:url(#SVGID_36_);" d="M122.141,271.703c0,0,3.19,0.997,6.461,2.373c2.706,1.139,6.495,2.713,7.548,4.021
						c0.658,0.817,2.164,2.515,3.448,4.092c1.284,1.577,2.347,3.032,2.12,3.361c-0.429,0.622-1.067,0.653-1.771,0.358
						c-1.173-0.492-2.527-1.889-3.402-2.966c-1.399-1.723-1.399-1.723-1.399-1.723s2.543,2.784,4.181,5.239
						c0.307,0.46,0.583,0.909,0.803,1.326c0.313,0.592,0.517,1.118,0.545,1.521c0.081,1.168-0.774,1.244-1.73,0.753
						c-0.845-0.435-1.801-1.384-1.801-1.384s1.924,2.148,1.186,3.185c-0.408,0.574-1.425,0.058-2.402-0.665
						c-1.141-0.844-2.227-1.97-2.227-1.97s1.35,2.001-0.492,2.348c-0.287,0.054-0.914-0.345-1.698-0.979
						c-0.419-0.339-0.883-0.746-1.364-1.187c-2.295-2.102-4.97-4.975-4.97-4.975s-8.415-3.507-11.565-6.815
						c-3.15-3.308,0.304-7.215,0.304-7.215L122.141,271.703z"/>
				</g>
				
					<linearGradient id="SVGID_37_" gradientUnits="userSpaceOnUse" x1="189.4549" y1="189.3848" x2="213.9929" y2="189.3848" gradientTransform="matrix(-1 -0.0699 0 1 346.655 83.1399)">
					<stop  offset="0.129" style="stop-color:#FFD168"/>
					<stop  offset="0.2053" style="stop-color:#FACA68"/>
					<stop  offset="0.5153" style="stop-color:#EAB169"/>
					<stop  offset="0.7043" style="stop-color:#E4A869"/>
					<stop  offset="0.8472" style="stop-color:#DD9D69"/>
					<stop  offset="1" style="stop-color:#DB9969"/>
				</linearGradient>
				<path style="fill:url(#SVGID_37_);" d="M132.849,247.68c0.315-1.005,1.028-1.822,1.83-2.459c0.12-0.095,1.07-0.899,1.248-0.8
					c0.002,0.001,7.558,4.221,7.558,4.221s2.761,2.078,5.469,4.526c2.24,2.025,4.444,4.303,5.017,5.865
					c0.715,1.95,1.889,4.304,2.806,6.072c0.705,1.359,0.479,1.784-0.289,1.955c-0.825,0.184-2.109-0.945-2.874-3.006
					c-0.076-0.206-0.143-0.385-0.205-0.552c0.02,0.095,0.038,0.193,0.053,0.296c0.201,0.437,0.356,0.768,0.414,0.882
					c0.264,0.515,0.391,2.993,0.305,4.055c-0.085,1.061-0.47,2.833-1.353,2.254c-0.371-0.243-0.567-0.789-0.671-1.34
					c-0.153,0.679-0.671,2.542-1.733,2.538c-1.537-0.006-1.537-4.292-1.537-4.292s-1.793,4.493-3.32,3.207
					c-0.885-0.745-0.275-1.786-0.01-2.97c0.325-1.455,0.94-1.584,0.512-3.071c-0.271-0.94-3.673-4.632-4.718-4.962
					c0,0,0.277,3.531-0.236,5.715c-0.168,0.716-0.265,1.232-1.404,0.955c-1.388-0.338-1.194-1.934-1.252-2.658
					c-0.118-1.488-0.213-2.342-0.355-3.816c-0.157-1.628-0.851-3.34-1.945-4.606C134.377,253.627,131.97,250.481,132.849,247.68z"/>
				<defs>
					
						<filter id="Adobe_OpacityMaskFilter_2_" filterUnits="userSpaceOnUse" x="112.343" y="230.307" width="92.562" height="81.267">
						<feFlood  style="flood-color:white;flood-opacity:1" result="back"/>
						<feBlend  in="SourceGraphic" in2="back" mode="normal"/>
					</filter>
				</defs>
				<mask maskUnits="userSpaceOnUse" x="112.343" y="230.307" width="92.562" height="81.267" id="SVGID_38_">
					<g style="filter:url(#Adobe_OpacityMaskFilter_2_);">
						<defs>
							
								<filter id="Adobe_OpacityMaskFilter_3_" filterUnits="userSpaceOnUse" x="78.78" y="119.841" width="126.125" height="191.734">
								<feFlood  style="flood-color:white;flood-opacity:1" result="back"/>
								<feBlend  in="SourceGraphic" in2="back" mode="normal"/>
							</filter>
						</defs>
						<mask maskUnits="userSpaceOnUse" x="78.78" y="119.841" width="126.125" height="191.734" id="SVGID_38_">
							<g style="filter:url(#Adobe_OpacityMaskFilter_3_);">
							</g>
						</mask>
						
							<radialGradient id="SVGID_39_" cx="157.3346" cy="248.9987" r="80.5772" gradientTransform="matrix(-1 0 0 1 346.655 0)" gradientUnits="userSpaceOnUse">
							<stop  offset="0.0054" style="stop-color:#666666"/>
							<stop  offset="0.9946" style="stop-color:#000000"/>
						</radialGradient>
						<path style="mask:url(#SVGID_38_);fill:url(#SVGID_39_);" d="M204.905,251.122l-100.96-131.282
							c0,0-26.643,6.393-25.101,78.496c0.922,43.109,26.553,93.466,26.553,93.466l34.624,19.772L204.905,251.122z"/>
					</g>
				</mask>
				
					<radialGradient id="SVGID_40_" cx="153.1873" cy="285.0516" r="54.1419" gradientTransform="matrix(-1 0 0 1 346.655 0)" gradientUnits="userSpaceOnUse">
					<stop  offset="0.0054" style="stop-color:#FFFFFF"/>
					<stop  offset="0.9946" style="stop-color:#FFFFFF"/>
				</radialGradient>
				<polygon style="fill:url(#SVGID_40_);" points="204.905,251.122 175.411,230.307 112.343,263.467 123.915,275.294 
					140.022,311.575 				"/>
				<g>
					<path style="fill:#AFACC6;" d="M211.912,230.313l-5.469,47.891c0,0-0.228,2.824-2.507,4.315
						c-2.279,1.491-61.98,32.661-61.98,32.661s-3.418,1.882-2.962-3.766c0.456-5.648,5.013-46.504,5.013-46.504
						s0.13-1.186,1.511-2.741c0.982-1.105,2.597-2.397,5.249-3.582c6.38-2.85,57.271-30.923,57.271-30.923s1.409-0.713,2.538-0.458
						C211.45,227.404,212.156,228.18,211.912,230.313z"/>
					
						<linearGradient id="SVGID_41_" gradientUnits="userSpaceOnUse" x1="136.8073" y1="232.372" x2="207.6558" y2="316.1021" gradientTransform="matrix(-1 0 0 1 346.655 0)">
						<stop  offset="0.043" style="stop-color:#FFFFFF"/>
						<stop  offset="0.4086" style="stop-color:#EAECEE"/>
						<stop  offset="0.9892" style="stop-color:#B3B5D3"/>
					</linearGradient>
					<path style="fill:url(#SVGID_41_);" d="M212.939,230.474l-5.469,47.891c0,0-0.228,2.824-2.507,4.315
						c-2.279,1.491-61.98,32.661-61.98,32.661s-3.418,1.882-2.962-3.766c0.456-5.648,5.013-46.504,5.013-46.504
						s0.13-1.186,1.511-2.741c0.982-1.106,2.597-2.397,5.249-3.582c6.38-2.85,57.271-30.923,57.271-30.923s1.409-0.713,2.538-0.458
						C212.477,227.565,213.183,228.341,212.939,230.474z"/>
					
						<ellipse transform="matrix(0.1248 -0.9922 0.9922 0.1248 -102.614 404.1409)" style="fill:#FFFFFF;" cx="177.764" cy="260.233" rx="3.653" ry="1.922"/>
				</g>
			</g>
		</g>
		<g>
			<g>
				
					<linearGradient id="SVGID_42_" gradientUnits="userSpaceOnUse" x1="264.2048" y1="314.5112" x2="320.1966" y2="314.5112" gradientTransform="matrix(-1 0 0 1 346.655 0)">
					<stop  offset="0" style="stop-color:#C9CCD3"/>
					<stop  offset="0.7799" style="stop-color:#FFFFFF"/>
				</linearGradient>
				<polygon style="fill:url(#SVGID_42_);" points="82.45,315.218 81.371,319.81 48.255,320.255 26.458,308.767 73.487,312.217 				
					"/>
			</g>
			<g>
				
					<linearGradient id="SVGID_43_" gradientUnits="userSpaceOnUse" x1="271.1614" y1="304.186" x2="278.3819" y2="304.186" gradientTransform="matrix(-1 0 0 1 346.655 0)">
					<stop  offset="0.1075" style="stop-color:#E14F65"/>
					<stop  offset="1" style="stop-color:#E15066"/>
				</linearGradient>
				<path style="fill:url(#SVGID_43_);" d="M73.938,311.691c0.955,0,1.47-0.522,1.555-0.617l-1.246-1.406
					c0.033-0.026-0.081,0.046-0.292,0.047c-0.281,0-0.771-0.107-1.509-0.632c-1.676-1.194-3.1-6.594-2.064-9.323
					c0.217-0.571,0.501-0.91,0.869-1.037c0.715-0.247,1.698,0.293,2.014,0.522l0.971-1.654c-0.185-0.136-1.854-1.316-3.492-0.763
					c-0.614,0.207-1.457,0.75-1.992,2.159c-1.387,3.656,0.451,10.132,2.743,11.764C72.501,311.466,73.314,311.691,73.938,311.691z"
					/>
			</g>
			
				<linearGradient id="SVGID_44_" gradientUnits="userSpaceOnUse" x1="255.9612" y1="306.101" x2="274.6071" y2="306.101" gradientTransform="matrix(-1 0 0 1 346.655 0)">
				<stop  offset="0.1075" style="stop-color:#E14F65"/>
				<stop  offset="0.2849" style="stop-color:#E45875"/>
				<stop  offset="0.5" style="stop-color:#F86C8E"/>
				<stop  offset="1" style="stop-color:#E15066"/>
			</linearGradient>
			<path style="fill:url(#SVGID_44_);" d="M90.694,292.392l-2.352,23.894c0,1.946-3.121,3.524-6.971,3.524
				c-3.85,0-6.971-1.578-6.971-3.524l-2.352-23.894H90.694z"/>
			
				<linearGradient id="SVGID_45_" gradientUnits="userSpaceOnUse" x1="255.9612" y1="292.3923" x2="274.6071" y2="292.3923" gradientTransform="matrix(-1 0 0 1 346.655 0)">
				<stop  offset="0" style="stop-color:#F86C8E"/>
				<stop  offset="0.3441" style="stop-color:#F589AB"/>
				<stop  offset="0.5968" style="stop-color:#F48DB0"/>
				<stop  offset="1" style="stop-color:#EC7491"/>
			</linearGradient>
			<ellipse style="fill:url(#SVGID_45_);" cx="81.371" cy="292.392" rx="9.323" ry="4.877"/>
			<path style="fill:#A55E83;" d="M88.992,295.356c-1.704,1.161-4.377,1.913-7.392,1.913c-3.302,0-6.195-0.9-7.852-2.255
				c1.152-1.532,4.075-2.623,7.51-2.623C84.944,292.392,88.043,293.647,88.992,295.356z"/>
		</g>
	</g>
</g>
</svg>
