<?xml version="1.0" encoding="iso-8859-1"?>
<!-- Generator: Adobe Illustrator 21.0.2, SVG Export Plug-In . SVG Version: 6.00 Build 0)  -->
<svg version="1.1" id="&#x421;&#x43B;&#x43E;&#x439;_1"
	 xmlns="http://www.w3.org/2000/svg" xmlns:xlink="http://www.w3.org/1999/xlink" x="0px" y="0px" viewBox="0 0 90 104"
	 style="enable-background:new 0 0 90 104;" xml:space="preserve">
<g>
	<g>
		<g>
			<g>
				<g>
					<g>
						<linearGradient id="SVGID_1_" gradientUnits="userSpaceOnUse" x1="17.6986" y1="87.4672" x2="47.8818" y2="70.0409">
							<stop  offset="0.0049" style="stop-color:#79729D"/>
							<stop  offset="0.092" style="stop-color:#716994"/>
							<stop  offset="0.3858" style="stop-color:#5A5079"/>
							<stop  offset="0.6474" style="stop-color:#4C4069"/>
							<stop  offset="0.8488" style="stop-color:#473B63"/>
						</linearGradient>
						<path style="fill:url(#SVGID_1_);" d="M40.357,57.011c-1.404,0.453-3.812,1.533-3.833,1.612
							c-2.812,0.022-6.066,0.026-8.178,2.017c-5.593,5.273-7.743,12.88-8.648,22.552c2.569,3.284,5.864,6.034,9.536,8.334
							c0,0.001,0,0.003-0.001,0.004c0.05,0.032,0.104,0.059,0.154,0.091c0.308,0.191,0.613,0.385,0.926,0.57
							c0.001-0.008,0.002-0.016,0.004-0.024c2.652,1.569,5.479,2.903,8.352,4.055C37.827,83.151,39.387,70.081,40.357,57.011z"/>
						<linearGradient id="SVGID_2_" gradientUnits="userSpaceOnUse" x1="26.8122" y1="85.7943" x2="66.2424" y2="63.0293">
							<stop  offset="0.043" style="stop-color:#FFFFFF"/>
							<stop  offset="0.4086" style="stop-color:#EAECEE"/>
							<stop  offset="1" style="stop-color:#DFE1E9"/>
						</linearGradient>
						<path style="fill:url(#SVGID_2_);" d="M58.099,55.717c-4.484-2.56-9.666-1-9.666-1s-4.282,1.07-8.077,2.294
							c-0.97,13.07-2.53,26.14-1.689,39.209c1.289,0.517,2.585,1.01,3.883,1.451c3.812-14.257,11.431-27.549,22.061-37.461
							C62.243,58.38,59.962,56.781,58.099,55.717z"/>
						<linearGradient id="SVGID_3_" gradientUnits="userSpaceOnUse" x1="38.1564" y1="100.9209" x2="80.5238" y2="76.4601">
							<stop  offset="0.0049" style="stop-color:#79729D"/>
							<stop  offset="0.092" style="stop-color:#716994"/>
							<stop  offset="0.3858" style="stop-color:#5A5079"/>
							<stop  offset="0.6474" style="stop-color:#4C4069"/>
							<stop  offset="0.8488" style="stop-color:#473B63"/>
						</linearGradient>
						<path style="fill:url(#SVGID_3_);" d="M79.207,74.188c-1.854-3.028-8.524-9.287-14.596-13.977
							c-10.63,9.912-18.249,23.203-22.061,37.461c2.552,0.867,5.099,1.592,7.56,2.189c0.361,0.088,0.732,0.171,1.101,0.255
							c0.001,0,0.002,0,0.004,0.001c0.192,0.044,0.381,0.089,0.573,0.133c0-0.001,0-0.002,0-0.004
							c5.537,1.27,11.604,2.285,17.76,2.706c0.542-0.261,1.149-0.44,1.819-0.498c2.658-0.229,5.37-0.194,8.079,0.065
							C80.639,89.05,81.123,77.317,79.207,74.188z"/>
						<linearGradient id="SVGID_4_" gradientUnits="userSpaceOnUse" x1="64.7416" y1="88.0761" x2="91.5724" y2="84.0337">
							<stop  offset="0.0049" style="stop-color:#79729D"/>
							<stop  offset="0.092" style="stop-color:#716994"/>
							<stop  offset="0.3858" style="stop-color:#5A5079"/>
							<stop  offset="0.6474" style="stop-color:#4C4069"/>
							<stop  offset="0.8488" style="stop-color:#473B63"/>
						</linearGradient>
						<path style="fill:url(#SVGID_4_);" d="M69.701,102.884c0.296-0.13,1.194,0.867,4.365,1.079
							c1.119,0.075,3.606,0.076,6.196-0.379c2.591-0.455,5.285-1.367,6.818-3.119l-1.134-10.169
							c-0.771-11.86-5.903-18.641-11.129-20.883c-5.226-2.242-9.942,5.628-8.961,13.769C66.42,87.869,67.727,95.114,69.701,102.884z
							"/>
					</g>
					<g>
						
							<linearGradient id="SVGID_5_" gradientUnits="userSpaceOnUse" x1="450.0066" y1="-5.0055" x2="452.5674" y2="15.1394" gradientTransform="matrix(0.9947 0.1025 -0.1025 0.9947 -397.1245 6.989)">
							<stop  offset="0.0027" style="stop-color:#E4A769"/>
							<stop  offset="0.3738" style="stop-color:#EEB672"/>
							<stop  offset="0.871" style="stop-color:#FFD182"/>
						</linearGradient>
						<path style="fill:url(#SVGID_5_);" d="M43.81,43.88l2.216,16.627c0,0-2.068,2.963-1.573,5.467
							c0.348,1.762,2.359,3.053,2.359,3.053s4.95-1.724,6.848-4.062c2.024-2.494,4.457-7.811,4.457-7.811L57.949,41.41L43.81,43.88z
							"/>
					</g>
				</g>
				<g>
					<linearGradient id="SVGID_6_" gradientUnits="userSpaceOnUse" x1="38.1837" y1="92.6668" x2="44.2946" y2="92.6668">
						<stop  offset="0.043" style="stop-color:#FFFFFF"/>
						<stop  offset="0.7637" style="stop-color:#EAECEE"/>
					</linearGradient>
					<path style="fill:url(#SVGID_6_);" d="M42.828,97.772c0.744-5.248,1.453-9.975,1.467-10.064l-0.969-0.146
						c-0.014,0.088-0.707,4.707-1.442,9.886C42.198,97.558,42.513,97.667,42.828,97.772z"/>
				</g>
			</g>
			<path style="fill:#FFFFFF;" d="M45.611,57.398c0,0-2.509,0.379-3.06,1.424c-0.84,1.591-1.382,5.046-1.123,7.178
				c0.323,2.654,0.455,4.228,0.455,4.228l2.411-2.924l3.423-4.216l1.701,8.657c0,0,3.389-1.308,5.503-4.005
				c2.114-2.696,3.195-5.113,3.195-5.113s2.451-4.322,2.101-5.595c-0.35-1.274-2.147-4.159-2.147-4.159s-4.623,9.208-8.653,9.208
				C45.388,62.08,45.611,57.398,45.611,57.398z"/>
			<linearGradient id="SVGID_7_" gradientUnits="userSpaceOnUse" x1="37.1847" y1="80.3509" x2="48.9376" y2="80.3509">
				<stop  offset="0" style="stop-color:#7124D3"/>
				<stop  offset="1" style="stop-color:#8360EF"/>
			</linearGradient>
			<polygon style="fill:url(#SVGID_7_);" points="44.999,71.382 43.81,67.891 47.843,62.774 48.938,69.642 46.812,71.745 
				43.32,97.928 37.185,95.606 			"/>
			<linearGradient id="SVGID_8_" gradientUnits="userSpaceOnUse" x1="41.0204" y1="78.4769" x2="69.414" y2="78.4769">
				<stop  offset="0.0049" style="stop-color:#79729D"/>
				<stop  offset="0.0491" style="stop-color:#77709B"/>
				<stop  offset="0.6963" style="stop-color:#5D547D"/>
			</linearGradient>
			<path style="fill:url(#SVGID_8_);" d="M62.687,58.349c0,0-10.926,13.134-13.749,20.234c-2.823,7.1-7.917,18.541-7.917,18.541
				l4.447,1.48l6.386-7.519l-1.046-4.955l4.735-2.717c0,0,3.256-8.825,7.144-12.486c3.888-3.661,6.727-6.788,6.727-6.788
				L62.687,58.349z"/>
			<linearGradient id="SVGID_9_" gradientUnits="userSpaceOnUse" x1="32.2534" y1="76.342" x2="42.1159" y2="76.342">
				<stop  offset="0.0049" style="stop-color:#79729D"/>
				<stop  offset="0.0491" style="stop-color:#77709B"/>
				<stop  offset="0.6963" style="stop-color:#5D547D"/>
			</linearGradient>
			<path style="fill:url(#SVGID_9_);" d="M36.523,58.623c0,0-3.097,8.189-3.684,11.113c-0.586,2.924-0.586,2.924-0.586,2.924v2.1
				l4.27,5.427l-3.684,0.512l1.549,13.641l4.547,1.882c0,0-1.328-14.538,0.098-22.581c1.426-8.042,3.082-17.176,3.082-17.176
				L36.523,58.623z"/>
		</g>
		<g>
			<g>
				
					<linearGradient id="SVGID_10_" gradientUnits="userSpaceOnUse" x1="1705.0328" y1="-344.2573" x2="1719.9343" y2="-382.373" gradientTransform="matrix(0.9907 0.1205 -0.1689 0.901 -1712.1266 150.833)">
					<stop  offset="0.129" style="stop-color:#FFD182"/>
					<stop  offset="0.6262" style="stop-color:#EEB672"/>
					<stop  offset="0.9973" style="stop-color:#E4A769"/>
				</linearGradient>
				<path style="fill:url(#SVGID_10_);" d="M62.552,34.691c-2.673,14.255-14.878,26.638-22.944,23.61
					c-6.458-2.425-12.383-20.435-9.71-34.691c2.673-14.256,9.389-18.15,19.388-16.933S65.225,20.436,62.552,34.691z"/>
				<path style="fill:#995C4F;" d="M68.649,26.567c0.671-2.958,1.044-5.203,1.098-7.789c0.122-5.766-0.666-7.213-2.155-10.817
					c-0.168-0.407-1.664-1.12-1.849-1.499c-6.26,4.43-11.965,5.562-18.593,9.407c3.454,0.912,6.606,2.802,8.581,6.357
					c1.322,2.38,1.809,5.113,2.219,7.362c0.743-0.758,1.595-1.157,2.394-1.015c1.642,0.292,2.429,2.748,1.759,5.485
					c-0.671,2.737-2.545,4.719-4.187,4.427c-0.067-0.012-0.128-0.038-0.192-0.058c0.299,3.311,0.333,4.755,0.661,7.99
					C59.045,45.888,66.573,35.724,68.649,26.567z"/>
			</g>
			<path style="fill:#915544;" d="M57.665,0.21c-4.71-0.641-9.073,0.348-13.745,0.808c-1.295,0.127-5.693,0.503-9.603,2.162
				c-2.597,1.101-4.977,2.768-6.09,5.304c-0.686,1.565-1.422,3.649-1.52,5.338c-0.061,1.063-0.18,4.004,0.747,4.653
				c0.654-1.155,2.257-2.19,3.56-1.62c-0.325,1.178-1.226,5.314-0.103,6.179c0.552,0.425,4.246-1.795,5.576-1.871
				c3.42-0.195,6.674-0.013,10.059-0.731c3.974-0.843,7.111-2.129,10.844-3.722c2.554-1.091,5.338-1.752,8.015-2.467
				c1.23-0.328,2.854-0.09,2.981-1.351C69.3,3.815,60.131,0.545,57.665,0.21z"/>
			
				<linearGradient id="SVGID_11_" gradientUnits="userSpaceOnUse" x1="1501.1931" y1="-319.644" x2="1535.2855" y2="-319.644" gradientTransform="matrix(0.9548 0.2972 -0.2972 0.9548 -1501.4758 -125.4854)">
				<stop  offset="0" style="stop-color:#BB7047"/>
				<stop  offset="1" style="stop-color:#915544"/>
			</linearGradient>
			<path style="fill:url(#SVGID_11_);" d="M38.997,12.068c-1.959-0.111-3.149-1.244-5.197-1.315
				c-1.591-0.055-2.773,0.365-4.099,1.234c-3.041,1.991-4.601,6.794-2.372,10.026c0.263-0.894,0.777-1.746,1.203-2.572
				c-0.02,3.527-0.107,6.89,2.132,9.883c0.502-0.882,0.878-1.964,1.388-2.921c0.801-1.502,1.904-2.403,3.369-3.364
				c1.787-1.172,3.375-0.667,5.329-0.966c1.99-0.305,3.811-1.224,5.787-1.643c3.974-0.843,7.111-2.128,10.844-3.722
				c1.713-0.731,3.53-1.265,5.347-1.756C57.296,9.968,46.433,12.491,38.997,12.068z"/>
			<g>
				<path style="fill:#915544;" d="M42.113,27.585c-0.013,2.223,1.367,2.558,3.78,3c1.205,0.221,2.4,0.547,3.448,1.103
					c0.71,0.377,1.309,1.183,2.202,1.16c0.384-2.568-5.647-5.936-8.268-5.533c-0.034,0.097,0.005,0.179-0.031,0.276
					c-0.373-0.112-0.721-0.314-1.118-0.37C42.118,27.347,42.114,27.468,42.113,27.585z"/>
				<path style="fill:#915544;" d="M37.902,26.588c-0.049,0.147-0.023,0.365-0.094,0.535c0.201-0.056,0.5,0.073,0.703,0.022
					c0.093,2.472-3.313,1.541-4.372,1.422c-1.073-0.12-1.825,0.387-2.795,0.711c-0.697,0.233-1.533,0.808-2.209,0.839
					c0.328-1.277,2.921-2.851,3.949-3.311c0.865-0.387,1.609-0.528,2.481-0.437C35.802,26.394,37.818,26.845,37.902,26.588z"/>
			</g>
			<path style="fill:#FFFFFF;" d="M35.913,46.131c0,0,0.125,4.56,3.699,5.379s4.514-4.795,4.514-4.795s-2.257,0.76-4.64,0.526
				C37.104,47.008,35.913,46.131,35.913,46.131z"/>
			<path style="fill:#915544;" d="M43.029,36.251c0,0,0.987-2.215,3.048-1.734c2.061,0.481,2.442,3.404,2.442,3.404
				s-1.043-1.791-2.687-2.124C44.189,35.465,43.029,36.251,43.029,36.251z"/>
			<path style="fill:#915544;" d="M31.377,35.659c0,0,0.589-2.374,2.699-2.32c2.111,0.053,2.99,2.844,2.99,2.844
				s-1.335-1.545-3.009-1.538C32.382,34.652,31.377,35.659,31.377,35.659z"/>
		</g>
	</g>
	<g>
		<path style="fill:#FC9F3A;" d="M32.846,89.12c0-8.164-6.618-17.867-14.781-21.674c-2.978-1.389-5.75-1.8-8.07-1.366
			c-1.095,0.205-5.266,2.161-5.381,2.237c-0.234,0.156-0.459,0.324-0.673,0.505c-0.036,0.031-0.074,0.06-0.11,0.092
			c-1.829,1.607-2.912,4.15-2.912,7.451c0,8.164,6.618,17.867,14.781,21.674c3.277,1.528,6.235,1.518,8.754,1.208
			c1.3-0.16,5.218-2.247,6.251-3.465c0.434-0.511,0.809-1.09,1.119-1.732C32.484,92.685,32.846,91.029,32.846,89.12z"/>
		<path style="fill:#FFBB4D;" d="M24.462,99.243c1.3-0.16,5.218-2.247,6.251-3.465c0.434-0.511,0.809-1.09,1.119-1.732
			c0.037-0.077,0.07-0.158,0.105-0.236l-7.026,4.448l-0.759-1.104l8.43-5.338c0.143-0.669,0.229-1.384,0.258-2.14l-9.635,6.101
			l-0.759-1.104l10.371-6.567c-0.039-0.607-0.113-1.221-0.219-1.838l-11.1,7.028l-0.759-1.104l11.565-7.323
			c-0.138-0.556-0.3-1.113-0.485-1.669l-12.027,7.615l-0.759-1.104l12.316-7.798c-0.207-0.519-0.433-1.035-0.678-1.548
			l-12.585,7.968l-0.759-1.104l12.733-8.062c-0.263-0.488-0.543-0.97-0.838-1.446L16.38,85.855l-0.759-1.104l12.872-8.15
			c-0.314-0.459-0.643-0.911-0.984-1.353l-12.835,8.127l-0.759-1.104l12.745-8.07c-0.365-0.431-0.742-0.852-1.131-1.261
			l-12.562,7.954l-0.759-1.104l12.354-7.822c-0.42-0.401-0.851-0.788-1.291-1.159l-12.009,7.604l-0.759-1.104l11.659-7.382
			c-0.485-0.366-0.981-0.712-1.485-1.037L9.555,75.931l-0.759-1.104l10.596-6.709c-0.435-0.242-0.875-0.47-1.32-0.677
			c-0.147-0.069-0.291-0.124-0.436-0.187L7.849,73.45L7.09,72.347l8.993-5.694c-0.763-0.253-1.508-0.443-2.23-0.565l-7.71,4.882
			l-0.759-1.104l6.232-3.946c-0.557,0.012-1.098,0.059-1.613,0.156c-0.9,0.168-3.878,1.52-4.973,2.038l-0.593,0.375L4.42,68.464
			c-0.16,0.114-0.322,0.227-0.472,0.354c-0.036,0.031-0.074,0.06-0.11,0.092c-1.829,1.607-2.912,4.15-2.912,7.451
			c0,2.254,0.506,4.624,1.408,6.956c2.756,3.736,5.95,8.044,8.761,11.83c1.452,1.154,3.001,2.137,4.612,2.889
			C18.985,99.564,21.942,99.554,24.462,99.243z"/>
		<g>
			<path style="fill:#FFE266;" d="M15.701,68.477C7.537,64.671,0.92,68.203,0.92,76.366c0,4.514,2.026,9.498,5.215,13.696
				c4.548-6.347,9.104-12.708,14.1-18.76C18.806,70.176,17.283,69.215,15.701,68.477z"/>
			<path style="fill:#FFD44A;" d="M20.235,71.303c-4.996,6.052-9.552,12.413-14.1,18.76c2.129,2.803,4.778,5.255,7.691,6.983
				c4.137-6.192,8.623-12.175,13.045-18.256C25.122,75.957,22.835,73.353,20.235,71.303z"/>
			<path style="fill:#FFC44D;" d="M13.826,97.045c0.614,0.364,1.24,0.699,1.875,0.995c8.164,3.807,14.781,0.275,14.781-7.889
				c0-3.702-1.362-7.721-3.611-11.362C22.449,84.871,17.963,90.853,13.826,97.045z"/>
		</g>
		<path style="fill:#FFBB4D;" d="M16.883,95.856C9.536,92.459,3.581,83.799,3.581,76.513c0-3.2,1.149-5.602,3.06-7.002
			c-2.528,1.232-4.105,3.882-4.105,7.627c0,7.286,5.956,15.946,13.302,19.344c4.12,1.905,7.802,1.75,10.242-0.038
			C23.691,97.608,20.453,97.507,16.883,95.856z"/>
		<path style="fill:#FC9F3A;" d="M20.841,86.865c-0.594-0.993-1.622-2.2-3.138-3.685v-5.072c0.997,0.596,1.812,1.291,2.429,2.069
			l0.655,0.827v-2.9l-0.188-0.217c-0.584-0.671-1.533-1.371-2.895-2.135v-1.939l-2.001-1.02v2.027
			c-1.085-0.345-2.005-0.329-2.74,0.048c-0.825,0.424-1.243,1.228-1.243,2.389c0,0.976,0.277,1.977,0.822,2.976
			c0.515,0.942,1.549,2.174,3.16,3.759v4.907c-0.5-0.295-1.035-0.682-1.597-1.153c-0.709-0.595-1.27-1.17-1.668-1.708l-0.673-0.91
			v3.008l0.193,0.218c0.982,1.11,2.24,2.085,3.744,2.902v2.29l2.001,1.02V92.13c1.208,0.38,2.181,0.406,2.897,0.077
			c0.804-0.37,1.211-1.138,1.211-2.282C21.81,88.969,21.484,87.94,20.841,86.865z M19.081,88.688c0,0.567-0.154,1.255-1.378,1.038
			v-3.693C18.618,87.099,19.081,87.99,19.081,88.688z M14.448,78.418c0-0.498,0.149-0.832,0.455-1.021
			c0.214-0.132,0.477-0.178,0.799-0.139v3.843c-0.402-0.462-0.697-0.864-0.881-1.201C14.573,79.45,14.448,78.951,14.448,78.418z"/>
	</g>
</g>
</svg>
