<?xml version="1.0" encoding="iso-8859-1"?>
<!-- Generator: Adobe Illustrator 21.0.2, SVG Export Plug-In . SVG Version: 6.00 Build 0)  -->
<svg version="1.1" id="&#x421;&#x43B;&#x43E;&#x439;_1"
	 xmlns="http://www.w3.org/2000/svg" xmlns:xlink="http://www.w3.org/1999/xlink" x="0px" y="0px" viewBox="0 0 90 104"
	 style="enable-background:new 0 0 90 104;" xml:space="preserve">
<g>
	<g>
		<g>
			<g>
				<g>
					<g>
						<linearGradient id="SVGID_1_" gradientUnits="userSpaceOnUse" x1="19.3064" y1="88.6949" x2="49.5087" y2="71.2575">
							<stop  offset="0.0049" style="stop-color:#79729D"/>
							<stop  offset="0.092" style="stop-color:#716994"/>
							<stop  offset="0.3858" style="stop-color:#5A5079"/>
							<stop  offset="0.6474" style="stop-color:#4C4069"/>
							<stop  offset="0.8488" style="stop-color:#473B63"/>
						</linearGradient>
						<path style="fill:url(#SVGID_1_);" d="M41.979,58.219c-1.405,0.453-3.814,1.533-3.836,1.613
							c-2.814,0.022-6.07,0.026-8.183,2.018c-5.596,5.277-7.748,12.888-8.654,22.566c2.571,3.286,5.868,6.038,9.542,8.339
							c0,0.001,0,0.003-0.001,0.004c0.05,0.031,0.104,0.059,0.154,0.091c0.308,0.191,0.613,0.385,0.926,0.57
							c0.001-0.008,0.002-0.016,0.004-0.024c2.654,1.57,5.483,2.904,8.357,4.058C39.447,84.376,41.008,71.297,41.979,58.219z"/>
						<linearGradient id="SVGID_2_" gradientUnits="userSpaceOnUse" x1="28.4257" y1="87.021" x2="67.881" y2="64.2415">
							<stop  offset="0.043" style="stop-color:#FFFFFF"/>
							<stop  offset="0.4086" style="stop-color:#EAECEE"/>
							<stop  offset="1" style="stop-color:#DFE1E9"/>
						</linearGradient>
						<path style="fill:url(#SVGID_2_);" d="M59.733,56.925c-4.486-2.561-9.672-1-9.672-1s-4.285,1.07-8.082,2.295
							c-0.971,13.078-2.532,26.156-1.69,39.234c1.29,0.518,2.586,1.01,3.886,1.452c3.814-14.266,11.438-27.567,22.075-37.485
							C63.879,59.589,61.597,57.989,59.733,56.925z"/>
						<linearGradient id="SVGID_3_" gradientUnits="userSpaceOnUse" x1="39.7771" y1="102.1571" x2="82.1714" y2="77.6808">
							<stop  offset="0.0049" style="stop-color:#79729D"/>
							<stop  offset="0.092" style="stop-color:#716994"/>
							<stop  offset="0.3858" style="stop-color:#5A5079"/>
							<stop  offset="0.6474" style="stop-color:#4C4069"/>
							<stop  offset="0.8488" style="stop-color:#473B63"/>
						</linearGradient>
						<path style="fill:url(#SVGID_3_);" d="M80.854,75.407c-1.855-3.03-8.53-9.293-14.605-13.986
							c-10.637,9.918-18.261,23.218-22.075,37.485c2.553,0.867,5.103,1.593,7.565,2.19c0.361,0.088,0.733,0.171,1.102,0.255
							c0.001,0,0.002,0,0.004,0.001c0.192,0.044,0.382,0.089,0.574,0.133c0-0.001,0-0.002,0-0.004
							c5.541,1.271,11.612,2.286,17.771,2.708c0.542-0.261,1.15-0.44,1.82-0.498c2.66-0.229,5.373-0.194,8.084,0.065
							C82.287,90.279,82.771,78.538,80.854,75.407z"/>
						<linearGradient id="SVGID_4_" gradientUnits="userSpaceOnUse" x1="66.3792" y1="89.3042" x2="93.227" y2="85.2592">
							<stop  offset="0.0049" style="stop-color:#79729D"/>
							<stop  offset="0.092" style="stop-color:#716994"/>
							<stop  offset="0.3858" style="stop-color:#5A5079"/>
							<stop  offset="0.6474" style="stop-color:#4C4069"/>
							<stop  offset="0.8488" style="stop-color:#473B63"/>
						</linearGradient>
						<path style="fill:url(#SVGID_4_);" d="M71.342,104.121c0.296-0.131,1.195,0.868,4.368,1.08c1.12,0.075,3.608,0.076,6.2-0.379
							c2.592-0.456,5.288-1.368,6.823-3.121l-1.135-10.175C86.826,79.658,81.69,72.873,76.461,70.63
							c-5.229-2.243-9.948,5.631-8.967,13.778C68.059,89.097,69.366,96.346,71.342,104.121z"/>
					</g>
					<g>
						
							<linearGradient id="SVGID_5_" gradientUnits="userSpaceOnUse" x1="451.7502" y1="-3.976" x2="454.3127" y2="16.1817" gradientTransform="matrix(0.9947 0.1025 -0.1025 0.9947 -397.1245 6.989)">
							<stop  offset="0.0027" style="stop-color:#E4A769"/>
							<stop  offset="0.3738" style="stop-color:#EEB672"/>
							<stop  offset="0.871" style="stop-color:#FFD182"/>
						</linearGradient>
						<path style="fill:url(#SVGID_5_);" d="M45.434,45.08l2.217,16.637c0,0-2.069,2.965-1.574,5.47
							c0.348,1.763,2.361,3.055,2.361,3.055s4.953-1.725,6.852-4.065c2.025-2.496,4.46-7.816,4.46-7.816l-0.167-15.753L45.434,45.08
							z"/>
					</g>
				</g>
				<g>
					<linearGradient id="SVGID_6_" gradientUnits="userSpaceOnUse" x1="39.8045" y1="93.8978" x2="45.9192" y2="93.8978">
						<stop  offset="0.043" style="stop-color:#FFFFFF"/>
						<stop  offset="0.7637" style="stop-color:#EAECEE"/>
					</linearGradient>
					<path style="fill:url(#SVGID_6_);" d="M44.452,99.006c0.745-5.251,1.454-9.982,1.468-10.071l-0.97-0.146
						c-0.014,0.088-0.707,4.71-1.443,9.892C43.821,98.792,44.137,98.901,44.452,99.006z"/>
				</g>
			</g>
			<path style="fill:#FFFFFF;" d="M47.237,58.606c0,0-2.51,0.38-3.062,1.425c-0.841,1.592-1.383,5.049-1.124,7.183
				c0.323,2.656,0.455,4.231,0.455,4.231l2.413-2.926l3.425-4.219l1.702,8.662c0,0,3.391-1.309,5.507-4.007
				c2.116-2.698,3.197-5.116,3.197-5.116s2.452-4.324,2.102-5.599c-0.35-1.275-2.148-4.162-2.148-4.162s-4.626,9.214-8.658,9.214
				S47.237,58.606,47.237,58.606z"/>
			<linearGradient id="SVGID_7_" gradientUnits="userSpaceOnUse" x1="38.8048" y1="81.5741" x2="50.5652" y2="81.5741">
				<stop  offset="0" style="stop-color:#7124D3"/>
				<stop  offset="1" style="stop-color:#8360EF"/>
			</linearGradient>
			<polygon style="fill:url(#SVGID_7_);" points="46.624,72.6 45.434,69.107 49.469,63.986 50.565,70.858 48.438,72.962 
				44.944,99.162 38.805,96.839 			"/>
			<linearGradient id="SVGID_8_" gradientUnits="userSpaceOnUse" x1="42.6431" y1="79.6989" x2="71.0546" y2="79.6989">
				<stop  offset="0.0049" style="stop-color:#79729D"/>
				<stop  offset="0.0491" style="stop-color:#77709B"/>
				<stop  offset="0.6963" style="stop-color:#5D547D"/>
			</linearGradient>
			<path style="fill:url(#SVGID_8_);" d="M64.323,59.558c0,0-10.933,13.143-13.758,20.247c-2.825,7.104-7.922,18.553-7.922,18.553
				l4.45,1.481l6.39-7.524l-1.047-4.958l4.738-2.718c0,0,3.258-8.831,7.148-12.494s6.732-6.793,6.732-6.793L64.323,59.558z"/>
			<linearGradient id="SVGID_9_" gradientUnits="userSpaceOnUse" x1="33.8704" y1="77.5626" x2="43.7391" y2="77.5626">
				<stop  offset="0.0049" style="stop-color:#79729D"/>
				<stop  offset="0.0491" style="stop-color:#77709B"/>
				<stop  offset="0.6963" style="stop-color:#5D547D"/>
			</linearGradient>
			<path style="fill:url(#SVGID_9_);" d="M38.143,59.832c0,0-3.099,8.194-3.686,11.12c-0.587,2.926-0.587,2.926-0.587,2.926v2.101
				l4.273,5.43l-3.686,0.512l1.55,13.65l4.55,1.883c0,0-1.329-14.547,0.098-22.595c1.427-8.047,3.084-17.187,3.084-17.187
				L38.143,59.832z"/>
		</g>
		<g>
			<g>
				
					<linearGradient id="SVGID_10_" gradientUnits="userSpaceOnUse" x1="1706.277" y1="-343.5476" x2="1721.1879" y2="-381.6874" gradientTransform="matrix(0.9907 0.1205 -0.1689 0.901 -1712.1266 150.833)">
					<stop  offset="0.129" style="stop-color:#FFD182"/>
					<stop  offset="0.6262" style="stop-color:#EEB672"/>
					<stop  offset="0.9973" style="stop-color:#E4A769"/>
				</linearGradient>
				<path style="fill:url(#SVGID_10_);" d="M63.682,35.473c-2.674,14.264-14.888,26.655-22.958,23.625
					c-6.462-2.427-12.391-20.448-9.716-34.713c2.674-14.265,9.395-18.161,19.4-16.944C60.414,8.658,66.357,21.209,63.682,35.473z"/>
				<path style="fill:#995C4F;" d="M69.783,27.344c0.671-2.96,1.045-5.206,1.099-7.794c0.122-5.77-0.666-7.218-2.156-10.824
					c-0.168-0.408-1.665-1.12-1.851-1.5c-6.264,4.433-11.973,5.565-18.605,9.413c3.456,0.913,6.61,2.804,8.587,6.361
					c1.323,2.381,1.81,5.116,2.221,7.367c0.744-0.759,1.596-1.158,2.395-1.016c1.643,0.292,2.431,2.749,1.76,5.488
					c-0.671,2.739-2.547,4.722-4.19,4.429c-0.067-0.012-0.128-0.038-0.192-0.058c0.299,3.313,0.333,4.758,0.661,7.995
					C60.172,46.678,67.705,36.507,69.783,27.344z"/>
			</g>
			<path style="fill:#915544;" d="M58.792,0.97c-4.713-0.641-9.078,0.349-13.754,0.808c-1.295,0.127-5.697,0.504-9.609,2.163
				c-2.598,1.102-4.981,2.77-6.094,5.307c-0.687,1.566-1.423,3.651-1.521,5.342c-0.062,1.064-0.18,4.007,0.747,4.656
				c0.654-1.156,2.259-2.191,3.562-1.621c-0.325,1.179-1.227,5.318-0.103,6.183c0.553,0.426,4.249-1.796,5.58-1.872
				c3.422-0.195,6.678-0.013,10.065-0.731c3.977-0.844,7.116-2.13,10.851-3.725c2.556-1.091,5.342-1.753,8.02-2.468
				c1.231-0.329,2.856-0.09,2.983-1.352C70.434,4.577,61.26,1.306,58.792,0.97z"/>
			<g>
				<path style="fill:#915544;" d="M42.841,29.333c0.423,2.184,1.842,2.242,4.297,2.203c1.225-0.02,2.462,0.067,3.6,0.407
					c0.771,0.23,1.516,0.904,2.388,0.706c-0.127-2.595-6.704-4.718-9.197-3.81c-0.015,0.102,0.04,0.174,0.023,0.277
					c-0.388-0.037-0.769-0.166-1.169-0.144C42.8,29.099,42.819,29.219,42.841,29.333z"/>
				<path style="fill:#915544;" d="M39.279,28.11c-0.074,0.136-0.088,0.355-0.188,0.51c0.208-0.019,0.479,0.162,0.688,0.147
					c-0.349,2.451-3.537,0.926-4.559,0.62c-1.035-0.309-1.866,0.055-2.878,0.202c-0.728,0.105-1.653,0.522-2.324,0.432
					c0.55-1.199,3.385-2.286,4.479-2.556c0.921-0.227,1.679-0.233,2.521,0.013C37.246,27.544,39.15,28.348,39.279,28.11z"/>
			</g>
			<path style="fill:#FFFFFF;" d="M37.374,49.828c0,0,0.433-2.131,3.224-2.043c2.791,0.088,3.141,3.483,3.141,3.483
				s-1.312-2.222-3.161-2.378C38.73,48.735,37.374,49.828,37.374,49.828z"/>
			<path style="fill:#915544;" d="M43.552,35.854c0,0,0.701,1.543,2.782,1.651c2.081,0.107,2.808-1.602,2.808-1.602
				s-1.24,0.89-2.894,0.773C44.595,36.559,43.552,35.854,43.552,35.854z"/>
			<path style="fill:#915544;" d="M32.043,33.95c0,0,0.291,1.562,2.369,1.94c2.078,0.378,3.278-1.153,3.278-1.153
				s-1.497,0.683-3.14,0.353C32.908,34.76,32.043,33.95,32.043,33.95z"/>
			
				<linearGradient id="SVGID_11_" gradientUnits="userSpaceOnUse" x1="1502.4794" y1="-319.238" x2="1536.5933" y2="-319.238" gradientTransform="matrix(0.9548 0.2972 -0.2972 0.9548 -1501.4758 -125.4854)">
				<stop  offset="0" style="stop-color:#BB7047"/>
				<stop  offset="1" style="stop-color:#915544"/>
			</linearGradient>
			<path style="fill:url(#SVGID_11_);" d="M40.112,12.836c-1.96-0.111-3.151-1.245-5.2-1.316c-1.592-0.055-2.774,0.365-4.102,1.234
				c-3.043,1.993-4.604,6.799-2.374,10.032c0.263-0.895,0.777-1.747,1.204-2.574c-0.02,3.529-0.107,6.894,2.134,9.889
				c0.503-0.882,0.878-1.965,1.389-2.923c0.801-1.502,1.905-2.404,3.371-3.366c1.788-1.173,3.377-0.667,5.332-0.967
				c1.991-0.305,3.813-1.225,5.791-1.644c3.976-0.844,7.116-2.13,10.851-3.725c1.714-0.732,3.532-1.266,5.351-1.757
				C58.423,10.734,47.553,13.259,40.112,12.836z"/>
		</g>
	</g>
	<g>
		<path style="fill:#FC9F3A;" d="M34.464,90.429c0-8.169-6.622-17.879-14.791-21.688c-2.98-1.39-5.753-1.801-8.075-1.367
			c-1.096,0.205-5.27,2.163-5.384,2.239c-0.234,0.156-0.459,0.324-0.674,0.506c-0.037,0.031-0.074,0.06-0.11,0.092
			c-1.83,1.608-2.914,4.153-2.914,7.456c0,8.169,6.622,17.879,14.791,21.688c3.279,1.529,6.238,1.519,8.759,1.209
			c1.3-0.16,5.221-2.249,6.255-3.467c0.434-0.512,0.81-1.09,1.119-1.733C34.101,93.995,34.464,92.339,34.464,90.429z"/>
		<path style="fill:#FFBB4D;" d="M26.074,100.558c1.3-0.16,5.221-2.249,6.255-3.467c0.434-0.512,0.81-1.09,1.119-1.733
			c0.037-0.077,0.07-0.158,0.105-0.236l-7.03,4.451l-0.76-1.104l8.436-5.341c0.143-0.669,0.229-1.385,0.258-2.141l-9.642,6.105
			l-0.76-1.104l10.378-6.571c-0.039-0.608-0.113-1.221-0.219-1.839l-11.107,7.032l-0.76-1.105l11.573-7.327
			c-0.138-0.556-0.3-1.114-0.486-1.67l-12.034,7.62l-0.76-1.104l12.324-7.803c-0.207-0.519-0.433-1.036-0.678-1.548l-12.593,7.973
			l-0.76-1.104l12.741-8.067c-0.264-0.488-0.544-0.971-0.839-1.447l-12.85,8.136l-0.76-1.105l12.88-8.155
			c-0.315-0.46-0.643-0.911-0.985-1.354l-12.843,8.132l-0.76-1.104l12.753-8.075c-0.365-0.432-0.742-0.853-1.131-1.262l-12.57,7.959
			l-0.76-1.104l12.362-7.827c-0.42-0.401-0.851-0.788-1.292-1.16l-12.017,7.609l-0.76-1.105l11.667-7.387
			c-0.486-0.366-0.981-0.712-1.486-1.037l-11.129,7.046l-0.76-1.104l10.603-6.713c-0.435-0.242-0.875-0.47-1.321-0.678
			c-0.147-0.068-0.291-0.124-0.437-0.187l-9.793,6.2l-0.76-1.104l8.998-5.697c-0.763-0.253-1.509-0.444-2.231-0.565l-7.715,4.885
			l-0.76-1.105l6.236-3.948c-0.558,0.012-1.099,0.059-1.614,0.156c-0.901,0.168-3.88,1.521-4.976,2.039l-0.593,0.375l-0.017-0.024
			c-0.16,0.115-0.322,0.227-0.472,0.354c-0.037,0.031-0.074,0.06-0.11,0.092c-1.83,1.608-2.914,4.153-2.914,7.456
			c0,2.255,0.507,4.627,1.409,6.96c2.758,3.738,5.953,8.049,8.766,11.837c1.453,1.154,3.003,2.139,4.615,2.891
			C20.594,100.879,23.553,100.868,26.074,100.558z"/>
		<g>
			<path style="fill:#FFE266;" d="M17.308,69.773c-8.169-3.809-14.791-0.275-14.791,7.894c0,4.517,2.027,9.504,5.219,13.705
				c4.551-6.351,9.11-12.716,14.109-18.772C20.414,71.473,18.891,70.511,17.308,69.773z"/>
			<path style="fill:#FFD44A;" d="M21.844,72.6c-4.999,6.056-9.558,12.421-14.109,18.772c2.131,2.805,4.781,5.258,7.696,6.987
				c4.139-6.196,8.628-12.182,13.054-18.268C26.734,77.257,24.447,74.651,21.844,72.6z"/>
			<path style="fill:#FFC44D;" d="M15.431,98.358c0.615,0.365,1.24,0.699,1.876,0.996c8.169,3.809,14.791,0.275,14.791-7.894
				c0-3.705-1.362-7.726-3.613-11.37C24.06,86.176,19.57,92.162,15.431,98.358z"/>
		</g>
		<path style="fill:#FFBB4D;" d="M18.49,97.169C11.139,93.769,5.18,85.104,5.18,77.813c0-3.202,1.15-5.605,3.062-7.007
			c-2.529,1.233-4.107,3.884-4.107,7.632c0,7.29,5.959,15.956,13.311,19.356c4.123,1.906,7.807,1.751,10.248-0.038
			C25.303,98.921,22.062,98.821,18.49,97.169z"/>
		<path style="fill:#FC9F3A;" d="M22.45,88.172c-0.595-0.993-1.623-2.201-3.14-3.688v-5.075c0.997,0.597,1.814,1.292,2.431,2.071
			l0.655,0.827v-2.902l-0.189-0.217c-0.584-0.671-1.534-1.372-2.897-2.137v-1.94l-2.002-1.02v2.028
			c-1.086-0.345-2.007-0.329-2.742,0.048c-0.825,0.424-1.244,1.228-1.244,2.39c0,0.976,0.277,1.978,0.823,2.978
			c0.515,0.943,1.55,2.175,3.162,3.761v4.91c-0.5-0.296-1.036-0.682-1.598-1.154c-0.71-0.596-1.271-1.171-1.669-1.709l-0.673-0.911
			v3.01l0.193,0.219c0.982,1.111,2.241,2.086,3.746,2.904v2.291l2.002,1.02v-2.437c1.208,0.38,2.182,0.406,2.899,0.077
			c0.804-0.37,1.212-1.138,1.212-2.283C23.421,90.277,23.094,89.247,22.45,88.172z M20.689,89.996c0,0.568-0.154,1.256-1.379,1.039
			v-3.696C20.226,88.406,20.689,89.297,20.689,89.996z M16.054,79.72c0-0.498,0.149-0.832,0.455-1.022
			c0.214-0.132,0.478-0.178,0.799-0.139v3.846c-0.402-0.462-0.698-0.865-0.882-1.201C16.179,80.752,16.054,80.252,16.054,79.72z"/>
	</g>
</g>
</svg>
