<?xml version="1.0" encoding="iso-8859-1"?>
<!-- Generator: Adobe Illustrator 21.0.2, SVG Export Plug-In . SVG Version: 6.00 Build 0)  -->
<svg version="1.1" id="&#x421;&#x43B;&#x43E;&#x439;_1"
	 xmlns="http://www.w3.org/2000/svg" xmlns:xlink="http://www.w3.org/1999/xlink" x="0px" y="0px" viewBox="0 0 90 104"
	 style="enable-background:new 0 0 90 104;" xml:space="preserve">
<g>
	<g>
		<g>
			<g>
				<g>
					<linearGradient id="SVGID_1_" gradientUnits="userSpaceOnUse" x1="23.4259" y1="85.8422" x2="52.229" y2="69.2126">
						<stop  offset="0.0049" style="stop-color:#79729D"/>
						<stop  offset="0.092" style="stop-color:#716994"/>
						<stop  offset="0.3858" style="stop-color:#5A5079"/>
						<stop  offset="0.6474" style="stop-color:#4C4069"/>
						<stop  offset="0.8488" style="stop-color:#473B63"/>
					</linearGradient>
					<path style="fill:url(#SVGID_1_);" d="M45.048,56.778c-1.339,0.432-3.637,1.462-3.658,1.538
						c-2.683,0.021-5.788,0.025-7.804,1.925c-5.337,5.032-7.389,12.291-8.253,21.521c2.452,3.134,5.596,5.758,9.1,7.953
						c0,0.001,0,0.003-0.001,0.004c0.048,0.03,0.099,0.057,0.147,0.086c0.294,0.182,0.585,0.368,0.883,0.544
						c0.001-0.008,0.002-0.015,0.003-0.023c2.531,1.497,5.229,2.77,7.97,3.87C42.634,81.723,44.122,69.251,45.048,56.778z"/>
					<linearGradient id="SVGID_2_" gradientUnits="userSpaceOnUse" x1="32.1227" y1="84.2459" x2="69.7503" y2="62.5216">
						<stop  offset="0.043" style="stop-color:#FFFFFF"/>
						<stop  offset="0.4086" style="stop-color:#EAECEE"/>
						<stop  offset="1" style="stop-color:#DFE1E9"/>
					</linearGradient>
					<path style="fill:url(#SVGID_2_);" d="M61.979,55.544c-4.279-2.443-9.224-0.954-9.224-0.954s-4.086,1.021-7.707,2.189
						c-0.926,12.472-2.414,24.945-1.612,37.417c1.23,0.494,2.467,0.963,3.706,1.384c3.637-13.605,10.908-26.29,21.052-35.748
						C65.934,58.085,63.757,56.559,61.979,55.544z"/>
					<linearGradient id="SVGID_3_" gradientUnits="userSpaceOnUse" x1="42.9483" y1="98.6808" x2="83.3787" y2="75.3383">
						<stop  offset="0.0049" style="stop-color:#79729D"/>
						<stop  offset="0.092" style="stop-color:#716994"/>
						<stop  offset="0.3858" style="stop-color:#5A5079"/>
						<stop  offset="0.6474" style="stop-color:#4C4069"/>
						<stop  offset="0.8488" style="stop-color:#473B63"/>
					</linearGradient>
					<path style="fill:url(#SVGID_3_);" d="M82.123,73.17c-1.769-2.89-8.135-8.862-13.928-13.338
						C58.05,69.29,50.779,81.974,47.142,95.58c2.435,0.827,4.866,1.519,7.215,2.089c0.344,0.084,0.699,0.163,1.051,0.243
						c0.001,0,0.002,0,0.003,0.001c0.183,0.042,0.364,0.085,0.547,0.127c0-0.001,0-0.002,0-0.003
						c5.284,1.212,11.074,2.18,16.948,2.582c0.517-0.249,1.097-0.42,1.736-0.475c2.537-0.218,5.124-0.185,7.709,0.062
						C83.489,87.353,83.95,76.156,82.123,73.17z"/>
					<linearGradient id="SVGID_4_" gradientUnits="userSpaceOnUse" x1="68.3181" y1="86.4233" x2="93.9222" y2="82.5657">
						<stop  offset="0.0049" style="stop-color:#79729D"/>
						<stop  offset="0.092" style="stop-color:#716994"/>
						<stop  offset="0.3858" style="stop-color:#5A5079"/>
						<stop  offset="0.6474" style="stop-color:#4C4069"/>
						<stop  offset="0.8488" style="stop-color:#473B63"/>
					</linearGradient>
					<path style="fill:url(#SVGID_4_);" d="M73.051,100.554c0.282-0.124,1.14,0.828,4.165,1.03c1.068,0.071,3.441,0.073,5.913-0.362
						c2.472-0.434,5.043-1.305,6.507-2.976l-1.082-9.704c-0.735-11.317-5.634-17.789-10.621-19.928
						c-4.987-2.139-9.487,5.37-8.552,13.14C69.92,86.226,71.167,93.139,73.051,100.554z"/>
				</g>
				<g>
					
						<linearGradient id="SVGID_5_" gradientUnits="userSpaceOnUse" x1="454.2066" y1="-5.2642" x2="456.6503" y2="13.9597" gradientTransform="matrix(0.9947 0.1025 -0.1025 0.9947 -397.1245 6.989)">
						<stop  offset="0.0027" style="stop-color:#E4A769"/>
						<stop  offset="0.3738" style="stop-color:#EEB672"/>
						<stop  offset="0.871" style="stop-color:#FFD182"/>
					</linearGradient>
					<path style="fill:url(#SVGID_5_);" d="M48.343,44.248l2.114,15.866c0,0-1.973,2.827-1.502,5.217
						c0.332,1.681,2.252,2.914,2.252,2.914s4.723-1.645,6.534-3.876c1.932-2.38,4.254-7.454,4.254-7.454l-0.16-15.023L48.343,44.248
						z"/>
				</g>
			</g>
			<g>
				<linearGradient id="SVGID_6_" gradientUnits="userSpaceOnUse" x1="42.9744" y1="90.8041" x2="48.8059" y2="90.8041">
					<stop  offset="0.043" style="stop-color:#FFFFFF"/>
					<stop  offset="0.7637" style="stop-color:#EAECEE"/>
				</linearGradient>
				<path style="fill:url(#SVGID_6_);" d="M47.406,95.676c0.71-5.008,1.387-9.519,1.4-9.604l-0.925-0.139
					c-0.013,0.084-0.674,4.492-1.376,9.434C46.805,95.471,47.106,95.575,47.406,95.676z"/>
			</g>
		</g>
		<path style="fill:#FFFFFF;" d="M50.062,57.147c0,0-2.394,0.362-2.92,1.359c-0.802,1.518-1.319,4.816-1.071,6.85
			c0.308,2.533,0.434,4.035,0.434,4.035l2.301-2.79l3.266-4.024l1.623,8.261c0,0,3.234-1.249,5.252-3.822
			c2.018-2.573,3.049-4.879,3.049-4.879s2.339-4.124,2.005-5.34c-0.334-1.216-2.049-3.969-2.049-3.969s-4.412,8.787-8.257,8.787
			C49.85,61.616,50.062,57.147,50.062,57.147z"/>
		<linearGradient id="SVGID_7_" gradientUnits="userSpaceOnUse" x1="42.021" y1="79.0513" x2="53.2366" y2="79.0513">
			<stop  offset="0" style="stop-color:#7124D3"/>
			<stop  offset="1" style="stop-color:#8360EF"/>
		</linearGradient>
		<polygon style="fill:url(#SVGID_7_);" points="49.478,70.493 48.343,67.161 52.192,62.278 53.237,68.832 51.208,70.839 
			47.876,95.824 42.021,93.609 		"/>
		<linearGradient id="SVGID_8_" gradientUnits="userSpaceOnUse" x1="45.6814" y1="77.263" x2="72.7769" y2="77.263">
			<stop  offset="0.0049" style="stop-color:#79729D"/>
			<stop  offset="0.0491" style="stop-color:#77709B"/>
			<stop  offset="0.6963" style="stop-color:#5D547D"/>
		</linearGradient>
		<path style="fill:url(#SVGID_8_);" d="M66.357,58.055c0,0-10.426,12.534-13.12,19.309c-2.694,6.775-7.555,17.694-7.555,17.694
			l4.244,1.412l6.094-7.175l-0.998-4.728l4.519-2.593c0,0,3.107-8.421,6.817-11.916c3.71-3.494,6.42-6.478,6.42-6.478L66.357,58.055
			z"/>
		<linearGradient id="SVGID_9_" gradientUnits="userSpaceOnUse" x1="37.3152" y1="75.2257" x2="46.7268" y2="75.2257">
			<stop  offset="0.0049" style="stop-color:#79729D"/>
			<stop  offset="0.0491" style="stop-color:#77709B"/>
			<stop  offset="0.6963" style="stop-color:#5D547D"/>
		</linearGradient>
		<path style="fill:url(#SVGID_9_);" d="M41.39,58.316c0,0-2.956,7.815-3.515,10.605c-0.56,2.79-0.56,2.79-0.56,2.79v2.004
			l4.075,5.178l-3.515,0.488l1.478,13.018l4.339,1.796c0,0-1.267-13.874,0.094-21.548c1.361-7.675,2.941-16.391,2.941-16.391
			L41.39,58.316z"/>
	</g>
	<g>
		<g>
			
				<linearGradient id="SVGID_10_" gradientUnits="userSpaceOnUse" x1="1709.3956" y1="-344.9821" x2="1723.6158" y2="-381.3552" gradientTransform="matrix(0.9907 0.1205 -0.1689 0.901 -1712.1266 150.833)">
				<stop  offset="0.129" style="stop-color:#FFD182"/>
				<stop  offset="0.6262" style="stop-color:#EEB672"/>
				<stop  offset="0.9973" style="stop-color:#E4A769"/>
			</linearGradient>
			<path style="fill:url(#SVGID_10_);" d="M65.746,35.086c-2.55,13.604-14.198,25.421-21.895,22.53
				c-6.163-2.314-11.817-19.501-9.266-33.105c2.55-13.604,8.96-17.32,18.502-16.159C62.629,9.513,68.296,21.482,65.746,35.086z"/>
			<path style="fill:#995C4F;" d="M71.564,27.333c0.64-2.823,0.996-4.965,1.048-7.433c0.116-5.503-0.635-6.883-2.056-10.322
				c-0.161-0.389-1.588-1.068-1.765-1.43c-5.974,4.227-11.418,5.307-17.743,8.977c3.296,0.87,6.304,2.674,8.189,6.066
				c1.262,2.271,1.726,4.879,2.118,7.026c0.709-0.724,1.523-1.104,2.284-0.969c1.567,0.279,2.318,2.622,1.678,5.234
				c-0.64,2.612-2.429,4.503-3.996,4.224c-0.064-0.011-0.122-0.037-0.183-0.055c0.285,3.159,0.317,4.538,0.631,7.625
				C62.399,45.771,69.583,36.072,71.564,27.333z"/>
		</g>
		<path style="fill:#915544;" d="M61.082,2.181c-4.495-0.612-8.658,0.332-13.117,0.771c-1.235,0.121-5.433,0.48-9.164,2.063
			c-2.478,1.051-4.75,2.642-5.811,5.061c-0.655,1.493-1.357,3.482-1.451,5.094c-0.059,1.015-0.172,3.821,0.713,4.44
			c0.624-1.102,2.154-2.09,3.397-1.546c-0.31,1.125-1.17,5.072-0.098,5.897c0.527,0.406,4.052-1.713,5.321-1.785
			c3.264-0.186,6.369-0.012,9.599-0.698c3.792-0.804,6.786-2.031,10.349-3.552c2.438-1.041,5.094-1.672,7.649-2.354
			c1.174-0.313,2.724-0.086,2.845-1.29C72.185,5.621,63.436,2.501,61.082,2.181z"/>
		<g>
			<path style="fill:#915544;" d="M45.871,29.23c0.403,2.083,1.757,2.138,4.098,2.101c1.169-0.019,2.348,0.064,3.433,0.388
				c0.735,0.22,1.446,0.862,2.277,0.674c-0.121-2.475-6.393-4.5-8.771-3.633c-0.014,0.097,0.038,0.166,0.022,0.264
				c-0.37-0.035-0.734-0.159-1.115-0.137C45.831,29.007,45.85,29.121,45.871,29.23z"/>
			<path style="fill:#915544;" d="M42.474,28.064c-0.071,0.13-0.084,0.339-0.179,0.487c0.199-0.018,0.457,0.154,0.657,0.14
				c-0.333,2.337-3.373,0.883-4.347,0.592c-0.987-0.295-1.779,0.053-2.745,0.192c-0.694,0.101-1.577,0.497-2.216,0.412
				c0.525-1.143,3.228-2.18,4.272-2.437c0.878-0.217,1.601-0.222,2.404,0.012C40.534,27.524,42.35,28.291,42.474,28.064z"/>
		</g>
		<path style="fill:#FFFFFF;" d="M40.656,48.776c0,0,0.413-2.032,3.075-1.948c2.662,0.084,2.995,3.321,2.995,3.321
			s-1.251-2.119-3.014-2.267C41.949,47.733,40.656,48.776,40.656,48.776z"/>
		<path style="fill:#915544;" d="M46.548,35.449c0,0,0.669,1.472,2.653,1.574c1.985,0.102,2.678-1.527,2.678-1.527
			s-1.183,0.848-2.76,0.737C47.543,36.122,46.548,35.449,46.548,35.449z"/>
		<path style="fill:#915544;" d="M35.573,33.633c0,0,0.277,1.49,2.259,1.85c1.982,0.36,3.126-1.1,3.126-1.1
			s-1.428,0.651-2.994,0.337C36.398,34.405,35.573,33.633,35.573,33.633z"/>
		
			<linearGradient id="SVGID_11_" gradientUnits="userSpaceOnUse" x1="1506.1792" y1="-319.8623" x2="1538.7129" y2="-319.8623" gradientTransform="matrix(0.9548 0.2972 -0.2972 0.9548 -1501.4758 -125.4854)">
			<stop  offset="0" style="stop-color:#BB7047"/>
			<stop  offset="1" style="stop-color:#915544"/>
		</linearGradient>
		<path style="fill:url(#SVGID_11_);" d="M43.267,13.498c-1.869-0.106-3.005-1.188-4.959-1.255
			c-1.519-0.052-2.646,0.348-3.912,1.177c-2.902,1.9-4.39,6.484-2.264,9.568c0.251-0.853,0.741-1.667,1.148-2.455
			c-0.019,3.366-0.102,6.575,2.035,9.431c0.479-0.841,0.838-1.874,1.325-2.788c0.764-1.433,1.817-2.293,3.215-3.21
			c1.705-1.118,3.221-0.636,5.085-0.922c1.899-0.291,3.637-1.168,5.522-1.568c3.792-0.804,6.786-2.031,10.349-3.552
			c1.635-0.698,3.368-1.207,5.103-1.675C60.731,11.493,50.364,13.901,43.267,13.498z"/>
	</g>
	<g>
		<polygon style="fill:#C8D5E1;" points="5.46,59.429 2.38,61.113 2.38,86.171 32.245,101.387 35.325,99.704 35.325,80.694 
			35.325,74.646 		"/>
		<g>
			<path style="fill:#EBF2F7;" d="M28.825,100.768L-0.887,84.752c0,0,3.267-0.903,3.267-6.355c0-4.321,0-17.284,0-17.284
				l29.864,15.217v7.519c0,0,0,6.005,0,8.006C32.245,98.349,28.825,100.768,28.825,100.768z"/>
			<linearGradient id="SVGID_12_" gradientUnits="userSpaceOnUse" x1="2.3804" y1="71.7451" x2="32.2449" y2="71.7451">
				<stop  offset="0" style="stop-color:#AC54FF"/>
				<stop  offset="0.8377" style="stop-color:#B362FF"/>
			</linearGradient>
			<polygon style="fill:url(#SVGID_12_);" points="32.245,82.378 2.38,67.161 2.38,61.113 32.245,76.329 			"/>
			<g>
				<polygon style="fill:#FB3952;" points="8.473,76.746 5.128,75.041 5.128,72.017 8.473,73.721 				"/>
				<polygon style="fill:#C8D5E1;" points="13.561,79.338 10.216,77.634 10.216,74.61 13.561,76.314 				"/>
				<polygon style="fill:#C8D5E1;" points="18.649,81.931 15.304,80.227 15.304,77.202 18.649,78.907 				"/>
				<polygon style="fill:#C8D5E1;" points="23.737,84.523 20.392,82.819 20.392,79.795 23.737,81.499 				"/>
				<polygon style="fill:#C8D5E1;" points="28.825,87.116 25.48,85.412 25.48,82.387 28.825,84.092 				"/>
			</g>
			<g>
				<polygon style="fill:#FB3952;" points="8.473,81.442 5.128,79.738 5.128,76.714 8.473,78.418 				"/>
				<polygon style="fill:#C8D5E1;" points="13.561,84.035 10.216,82.331 10.216,79.306 13.561,81.011 				"/>
				<polygon style="fill:#C8D5E1;" points="18.649,86.627 15.304,84.923 15.304,81.899 18.649,83.603 				"/>
				<polygon style="fill:#C8D5E1;" points="23.737,89.22 20.392,87.516 20.392,84.491 23.737,86.196 				"/>
				<polygon style="fill:#C8D5E1;" points="28.825,91.813 25.48,90.108 25.48,87.084 28.825,88.788 				"/>
			</g>
			<g>
				<polygon style="fill:#FB3952;" points="8.473,86.213 5.128,84.508 5.128,81.484 8.473,83.188 				"/>
				<polygon style="fill:#C8D5E1;" points="13.561,88.805 10.216,87.101 10.216,84.077 13.561,85.781 				"/>
				<polygon style="fill:#C8D5E1;" points="18.649,91.398 15.304,89.694 15.304,86.669 18.649,88.374 				"/>
				<polygon style="fill:#C8D5E1;" points="23.737,93.99 20.392,92.286 20.392,89.262 23.737,90.966 				"/>
				<polygon style="fill:#C8D5E1;" points="28.825,96.583 25.48,94.879 25.48,91.854 28.825,93.559 				"/>
			</g>
		</g>
		<linearGradient id="SVGID_13_" gradientUnits="userSpaceOnUse" x1="2.3804" y1="67.8792" x2="35.3245" y2="67.8792">
			<stop  offset="0" style="stop-color:#CF9FFF"/>
			<stop  offset="1" style="stop-color:#AC54FF"/>
		</linearGradient>
		<polygon style="fill:url(#SVGID_13_);" points="2.38,61.113 5.46,59.429 35.325,74.646 32.245,76.329 		"/>
		<path style="fill:#616B76;" d="M11.889,59.366c-1.218,0-2.209,1.25-2.209,2.786v4.038c0,1.423,0.851,2.598,1.944,2.764
			c0-0.006,0-0.011,0-0.017c0.021,0.01,0.042,0.017,0.065,0.017c0.162,0,0.293-0.282,0.293-0.629s-0.131-0.63-0.293-0.63
			c-0.013,0-0.025,0.005-0.038,0.008c0-0.003,0-0.005,0-0.008c-0.458-0.164-0.811-0.785-0.811-1.505v-4.038
			c0-0.84,0.48-1.551,1.048-1.551s1.048,0.71,1.048,1.551v1.087l1.161,0.592v-1.678C14.097,60.616,13.106,59.366,11.889,59.366z"/>
		<path style="fill:#616B76;" d="M25.946,66.742c-1.218,0-2.209,1.25-2.209,2.786v4.038c0,1.423,0.851,2.598,1.944,2.764
			c0-0.006,0-0.011,0-0.017c0.021,0.01,0.042,0.017,0.065,0.017c0.162,0,0.293-0.282,0.293-0.63s-0.131-0.629-0.293-0.629
			c-0.013,0-0.025,0.005-0.038,0.008c0-0.003,0-0.005,0-0.008c-0.458-0.164-0.811-0.785-0.811-1.505v-4.038
			c0-0.84,0.48-1.551,1.048-1.551s1.048,0.71,1.048,1.551v1.087l1.161,0.592v-1.678C28.155,67.991,27.164,66.742,25.946,66.742z"/>
	</g>
</g>
</svg>
