<?xml version="1.0" encoding="iso-8859-1"?>
<!-- Generator: Adobe Illustrator 21.0.2, SVG Export Plug-In . SVG Version: 6.00 Build 0)  -->
<svg version="1.1" id="&#x421;&#x43B;&#x43E;&#x439;_1"
	 xmlns="http://www.w3.org/2000/svg" xmlns:xlink="http://www.w3.org/1999/xlink" x="0px" y="0px" viewBox="0 0 90 104"
	 style="enable-background:new 0 0 90 104;" xml:space="preserve">
<g>
	<g>
		<g>
			<g>
				<g>
					<g>
						<linearGradient id="SVGID_1_" gradientUnits="userSpaceOnUse" x1="23.5932" y1="86.4246" x2="52.1943" y2="69.9118">
							<stop  offset="0.0049" style="stop-color:#79729D"/>
							<stop  offset="0.092" style="stop-color:#716994"/>
							<stop  offset="0.3858" style="stop-color:#5A5079"/>
							<stop  offset="0.6474" style="stop-color:#4C4069"/>
							<stop  offset="0.8488" style="stop-color:#473B63"/>
						</linearGradient>
						<path style="fill:url(#SVGID_1_);" d="M45.064,57.565c-1.33,0.429-3.612,1.452-3.632,1.527
							c-2.665,0.021-5.748,0.024-7.749,1.911c-5.3,4.997-7.337,12.205-8.195,21.37c2.435,3.112,5.557,5.717,9.036,7.897
							c0,0.001,0,0.003-0.001,0.004c0.048,0.03,0.098,0.056,0.146,0.086c0.292,0.181,0.581,0.365,0.877,0.54
							c0.001-0.008,0.002-0.015,0.003-0.023c2.513,1.487,5.192,2.75,7.914,3.843C42.666,82.334,44.144,69.949,45.064,57.565z"/>
						<linearGradient id="SVGID_2_" gradientUnits="userSpaceOnUse" x1="32.229" y1="84.8395" x2="69.5925" y2="63.2677">
							<stop  offset="0.043" style="stop-color:#FFFFFF"/>
							<stop  offset="0.4086" style="stop-color:#EAECEE"/>
							<stop  offset="1" style="stop-color:#DFE1E9"/>
						</linearGradient>
						<path style="fill:url(#SVGID_2_);" d="M61.876,56.339c-4.249-2.426-9.159-0.947-9.159-0.947s-4.058,1.013-7.653,2.174
							c-0.919,12.385-2.397,24.77-1.6,37.154c1.222,0.49,2.449,0.957,3.68,1.375c3.612-13.51,10.832-26.105,20.905-35.497
							C65.803,58.862,63.642,57.347,61.876,56.339z"/>
						<linearGradient id="SVGID_3_" gradientUnits="userSpaceOnUse" x1="42.9786" y1="99.1732" x2="83.1253" y2="75.9945">
							<stop  offset="0.0049" style="stop-color:#79729D"/>
							<stop  offset="0.092" style="stop-color:#716994"/>
							<stop  offset="0.3858" style="stop-color:#5A5079"/>
							<stop  offset="0.6474" style="stop-color:#4C4069"/>
							<stop  offset="0.8488" style="stop-color:#473B63"/>
						</linearGradient>
						<path style="fill:url(#SVGID_3_);" d="M81.878,73.841c-1.756-2.869-8.078-8.8-13.83-13.245
							c-10.073,9.392-17.293,21.987-20.905,35.497c2.418,0.821,4.832,1.508,7.164,2.074c0.342,0.083,0.694,0.162,1.044,0.242
							c0.001,0,0.002,0,0.003,0.001c0.182,0.042,0.361,0.084,0.543,0.126c0-0.001,0-0.002,0-0.003
							c5.247,1.204,10.996,2.165,16.829,2.564c0.513-0.247,1.089-0.417,1.724-0.472c2.519-0.217,5.088-0.184,7.655,0.061
							C83.235,87.925,83.693,76.806,81.878,73.841z"/>
						<linearGradient id="SVGID_4_" gradientUnits="userSpaceOnUse" x1="68.1703" y1="87.0017" x2="93.5947" y2="83.1711">
							<stop  offset="0.0049" style="stop-color:#79729D"/>
							<stop  offset="0.092" style="stop-color:#716994"/>
							<stop  offset="0.3858" style="stop-color:#5A5079"/>
							<stop  offset="0.6474" style="stop-color:#4C4069"/>
							<stop  offset="0.8488" style="stop-color:#473B63"/>
						</linearGradient>
						<path style="fill:url(#SVGID_4_);" d="M72.87,101.033c0.28-0.124,1.132,0.822,4.136,1.022c1.06,0.071,3.417,0.072,5.872-0.359
							c2.455-0.431,5.008-1.296,6.461-2.955l-1.075-9.636c-0.73-11.238-5.594-17.664-10.546-19.788
							c-4.952-2.124-9.421,5.333-8.492,13.048C69.761,86.806,70.999,93.67,72.87,101.033z"/>
					</g>
					<g>
						
							<linearGradient id="SVGID_5_" gradientUnits="userSpaceOnUse" x1="454.2378" y1="-4.4171" x2="456.6644" y2="14.672" gradientTransform="matrix(0.9947 0.1025 -0.1025 0.9947 -397.1245 6.989)">
							<stop  offset="0.0027" style="stop-color:#E4A769"/>
							<stop  offset="0.3738" style="stop-color:#EEB672"/>
							<stop  offset="0.871" style="stop-color:#FFD182"/>
						</linearGradient>
						<path style="fill:url(#SVGID_5_);" d="M48.336,45.122l2.1,15.755c0,0-1.96,2.807-1.491,5.18
							c0.33,1.669,2.236,2.893,2.236,2.893s4.69-1.633,6.489-3.849c1.918-2.364,4.224-7.402,4.224-7.402l-0.159-14.918
							L48.336,45.122z"/>
					</g>
				</g>
				<g>
					<linearGradient id="SVGID_6_" gradientUnits="userSpaceOnUse" x1="43.0045" y1="91.3518" x2="48.7951" y2="91.3518">
						<stop  offset="0.043" style="stop-color:#FFFFFF"/>
						<stop  offset="0.7637" style="stop-color:#EAECEE"/>
					</linearGradient>
					<path style="fill:url(#SVGID_6_);" d="M47.405,96.189c0.705-4.972,1.377-9.453,1.39-9.537l-0.918-0.138
						c-0.013,0.083-0.67,4.46-1.367,9.368C46.809,95.986,47.107,96.089,47.405,96.189z"/>
				</g>
			</g>
			<path style="fill:#FFFFFF;" d="M50.043,57.931c0,0-2.377,0.359-2.9,1.349c-0.796,1.507-1.31,4.782-1.064,6.802
				c0.306,2.515,0.431,4.007,0.431,4.007l2.285-2.77l3.243-3.995l1.612,8.203c0,0,3.211-1.24,5.215-3.795
				c2.003-2.555,3.028-4.845,3.028-4.845s2.322-4.095,1.991-5.302c-0.331-1.207-2.034-3.941-2.034-3.941s-4.381,8.725-8.199,8.725
				C49.832,62.368,50.043,57.931,50.043,57.931z"/>
			<linearGradient id="SVGID_7_" gradientUnits="userSpaceOnUse" x1="42.0578" y1="79.6814" x2="53.1947" y2="79.6814">
				<stop  offset="0" style="stop-color:#7124D3"/>
				<stop  offset="1" style="stop-color:#8360EF"/>
			</linearGradient>
			<polygon style="fill:url(#SVGID_7_);" points="49.463,71.183 48.336,67.875 52.157,63.026 53.195,69.534 51.18,71.526 
				47.872,96.337 42.058,94.137 			"/>
			<linearGradient id="SVGID_8_" gradientUnits="userSpaceOnUse" x1="45.6925" y1="77.9056" x2="72.5978" y2="77.9056">
				<stop  offset="0.0049" style="stop-color:#79729D"/>
				<stop  offset="0.0491" style="stop-color:#77709B"/>
				<stop  offset="0.6963" style="stop-color:#5D547D"/>
			</linearGradient>
			<path style="fill:url(#SVGID_8_);" d="M66.223,58.833c0,0-10.353,12.446-13.028,19.174c-2.675,6.728-7.502,17.569-7.502,17.569
				l4.214,1.403l6.051-7.125l-0.991-4.695l4.487-2.574c0,0,3.085-8.362,6.769-11.832c3.684-3.47,6.375-6.432,6.375-6.432
				L66.223,58.833z"/>
			<linearGradient id="SVGID_9_" gradientUnits="userSpaceOnUse" x1="37.385" y1="75.8826" x2="46.7305" y2="75.8826">
				<stop  offset="0.0049" style="stop-color:#79729D"/>
				<stop  offset="0.0491" style="stop-color:#77709B"/>
				<stop  offset="0.6963" style="stop-color:#5D547D"/>
			</linearGradient>
			<path style="fill:url(#SVGID_9_);" d="M41.431,59.092c0,0-2.935,7.76-3.491,10.53c-0.556,2.771-0.556,2.771-0.556,2.771v1.99
				l4.046,5.142l-3.491,0.485l1.468,12.926l4.309,1.783c0,0-1.258-13.776,0.093-21.397c1.351-7.621,2.921-16.276,2.921-16.276
				L41.431,59.092z"/>
		</g>
		<g>
			<g>
				
					<linearGradient id="SVGID_10_" gradientUnits="userSpaceOnUse" x1="1710.1532" y1="-343.6935" x2="1724.2736" y2="-379.8112" gradientTransform="matrix(0.9907 0.1205 -0.1689 0.901 -1712.1266 150.833)">
					<stop  offset="0.129" style="stop-color:#FFD182"/>
					<stop  offset="0.6262" style="stop-color:#EEB672"/>
					<stop  offset="0.9973" style="stop-color:#E4A769"/>
				</linearGradient>
				<path style="fill:url(#SVGID_10_);" d="M66.096,36.415c-2.532,13.508-14.098,25.242-21.741,22.372
					c-6.119-2.298-11.734-19.364-9.201-32.872c2.532-13.508,8.897-17.198,18.372-16.046S68.628,22.906,66.096,36.415z"/>
				<path style="fill:#995C4F;" d="M71.873,28.716c0.636-2.803,0.989-4.93,1.041-7.381c0.115-5.464-0.631-6.835-2.042-10.25
					c-0.16-0.386-1.577-1.061-1.752-1.42c-5.932,4.198-11.338,5.27-17.619,8.914c3.273,0.864,6.26,2.655,8.132,6.024
					c1.253,2.255,1.714,4.845,2.103,6.976c0.704-0.719,1.512-1.096,2.268-0.962c1.556,0.277,2.302,2.604,1.667,5.197
					c-0.635,2.593-2.412,4.471-3.968,4.195c-0.063-0.011-0.121-0.036-0.182-0.055c0.284,3.137,0.315,4.506,0.626,7.571
					C62.772,47.025,69.906,37.394,71.873,28.716z"/>
			</g>
			<path style="fill:#915544;" d="M61.464,3.741c-4.463-0.607-8.597,0.33-13.025,0.765c-1.227,0.121-5.395,0.477-9.099,2.048
				c-2.461,1.044-4.717,2.623-5.77,5.026c-0.65,1.483-1.348,3.457-1.441,5.058c-0.058,1.008-0.171,3.794,0.708,4.409
				c0.62-1.095,2.139-2.075,3.373-1.535c-0.308,1.117-1.162,5.036-0.097,5.855c0.523,0.403,4.023-1.701,5.284-1.773
				c3.241-0.184,6.324-0.012,9.532-0.693c3.766-0.799,6.738-2.017,10.276-3.527c2.42-1.033,5.059-1.66,7.595-2.338
				c1.165-0.311,2.705-0.085,2.825-1.281C72.49,7.157,63.801,4.059,61.464,3.741z"/>
			
				<linearGradient id="SVGID_11_" gradientUnits="userSpaceOnUse" x1="1507.1746" y1="-318.6455" x2="1539.4799" y2="-318.6455" gradientTransform="matrix(0.9548 0.2972 -0.2972 0.9548 -1501.4758 -125.4854)">
				<stop  offset="0" style="stop-color:#BB7047"/>
				<stop  offset="1" style="stop-color:#915544"/>
			</linearGradient>
			<path style="fill:url(#SVGID_11_);" d="M43.775,14.978c-1.856-0.105-2.984-1.179-4.924-1.246
				c-1.508-0.052-2.627,0.346-3.884,1.169c-2.881,1.887-4.36,6.438-2.248,9.501c0.249-0.847,0.736-1.655,1.14-2.438
				c-0.019,3.342-0.101,6.529,2.021,9.365c0.476-0.836,0.832-1.861,1.316-2.768c0.759-1.423,1.804-2.277,3.192-3.187
				c1.693-1.111,3.198-0.632,5.05-0.916c1.886-0.289,3.611-1.16,5.484-1.557c3.766-0.799,6.738-2.017,10.276-3.527
				c1.623-0.693,3.345-1.198,5.067-1.664C61.115,12.988,50.821,15.378,43.775,14.978z"/>
			<g>
				<path style="fill:#915544;" d="M46.728,29.681c-0.013,2.107,1.295,2.424,3.582,2.843c1.142,0.209,2.274,0.519,3.267,1.045
					c0.673,0.357,1.24,1.121,2.086,1.099c0.363-2.433-5.351-5.625-7.834-5.243c-0.032,0.092,0.005,0.169-0.03,0.262
					c-0.354-0.106-0.684-0.297-1.059-0.351C46.733,29.456,46.728,29.571,46.728,29.681z"/>
				<path style="fill:#915544;" d="M42.738,28.736c-0.046,0.139-0.022,0.346-0.089,0.507c0.191-0.053,0.474,0.07,0.666,0.021
					c0.088,2.343-3.14,1.46-4.143,1.348c-1.016-0.113-1.729,0.366-2.648,0.674c-0.661,0.221-1.452,0.765-2.093,0.795
					c0.31-1.21,2.768-2.701,3.742-3.138c0.82-0.367,1.525-0.501,2.351-0.414C40.748,28.552,42.658,28.98,42.738,28.736z"/>
			</g>
			<path style="fill:#FFFFFF;" d="M40.853,47.255c0,0,0.119,4.321,3.505,5.097c3.386,0.776,4.278-4.543,4.278-4.543
				s-2.139,0.72-4.396,0.499C41.982,48.086,40.853,47.255,40.853,47.255z"/>
			<path style="fill:#915544;" d="M47.595,37.893c0,0,0.935-2.099,2.888-1.643c1.953,0.456,2.314,3.226,2.314,3.226
				s-0.989-1.697-2.546-2.012C48.695,37.148,47.595,37.893,47.595,37.893z"/>
			<path style="fill:#915544;" d="M36.554,37.332c0,0,0.558-2.249,2.558-2.199c2,0.051,2.833,2.695,2.833,2.695
				s-1.265-1.464-2.852-1.457C37.507,36.378,36.554,37.332,36.554,37.332z"/>
		</g>
	</g>
	<g>
		<polygon style="fill:#C8D5E1;" points="6.127,60.737 3.069,62.408 3.069,87.29 32.724,102.4 35.782,100.729 35.782,81.852 
			35.782,75.846 		"/>
		<g>
			<path style="fill:#EBF2F7;" d="M29.329,101.785L-0.175,85.881c0,0,3.244-0.897,3.244-6.31c0-4.291,0-17.163,0-17.163
				l29.655,15.11v7.466c0,0,0,5.962,0,7.95C32.724,99.383,29.329,101.785,29.329,101.785z"/>
			<linearGradient id="SVGID_12_" gradientUnits="userSpaceOnUse" x1="3.0693" y1="72.9659" x2="32.7241" y2="72.9659">
				<stop  offset="0" style="stop-color:#AC54FF"/>
				<stop  offset="0.8377" style="stop-color:#B362FF"/>
			</linearGradient>
			<polygon style="fill:url(#SVGID_12_);" points="32.724,83.524 3.069,68.414 3.069,62.408 32.724,77.518 			"/>
			<g>
				<polygon style="fill:#FB3952;" points="9.119,77.931 5.798,76.239 5.798,73.236 9.119,74.928 				"/>
				<polygon style="fill:#C8D5E1;" points="14.171,80.506 10.85,78.813 10.85,75.811 14.171,77.503 				"/>
				<polygon style="fill:#C8D5E1;" points="19.224,83.08 15.902,81.388 15.902,78.385 19.224,80.077 				"/>
				<polygon style="fill:#C8D5E1;" points="24.276,85.654 20.955,83.962 20.955,80.959 24.276,82.651 				"/>
				<polygon style="fill:#C8D5E1;" points="29.329,88.229 26.007,86.536 26.007,83.533 29.329,85.226 				"/>
			</g>
			<g>
				<polygon style="fill:#FB3952;" points="9.119,82.595 5.798,80.903 5.798,77.9 9.119,79.592 				"/>
				<polygon style="fill:#C8D5E1;" points="14.171,85.169 10.85,83.477 10.85,80.474 14.171,82.166 				"/>
				<polygon style="fill:#C8D5E1;" points="19.224,87.744 15.902,86.051 15.902,83.048 19.224,84.741 				"/>
				<polygon style="fill:#C8D5E1;" points="24.276,90.318 20.955,88.626 20.955,85.623 24.276,87.315 				"/>
				<polygon style="fill:#C8D5E1;" points="29.329,92.892 26.007,91.2 26.007,88.197 29.329,89.889 				"/>
			</g>
			<g>
				<polygon style="fill:#FB3952;" points="9.119,87.332 5.798,85.64 5.798,82.637 9.119,84.329 				"/>
				<polygon style="fill:#C8D5E1;" points="14.171,89.906 10.85,88.214 10.85,85.211 14.171,86.903 				"/>
				<polygon style="fill:#C8D5E1;" points="19.224,92.481 15.902,90.788 15.902,87.785 19.224,89.478 				"/>
				<polygon style="fill:#C8D5E1;" points="24.276,95.055 20.955,93.363 20.955,90.36 24.276,92.052 				"/>
				<polygon style="fill:#C8D5E1;" points="29.329,97.629 26.007,95.937 26.007,92.934 29.329,94.626 				"/>
			</g>
		</g>
		<linearGradient id="SVGID_13_" gradientUnits="userSpaceOnUse" x1="3.0693" y1="69.1271" x2="35.7822" y2="69.1271">
			<stop  offset="0" style="stop-color:#CF9FFF"/>
			<stop  offset="1" style="stop-color:#AC54FF"/>
		</linearGradient>
		<polygon style="fill:url(#SVGID_13_);" points="3.069,62.408 6.127,60.737 35.782,75.846 32.724,77.518 		"/>
		<path style="fill:#616B76;" d="M12.511,60.674c-1.209,0-2.193,1.241-2.193,2.766v4.009c0,1.413,0.845,2.58,1.931,2.745
			c0-0.005,0-0.011,0-0.016c0.021,0.01,0.042,0.016,0.064,0.016c0.161,0,0.291-0.28,0.291-0.625c0-0.345-0.13-0.625-0.291-0.625
			c-0.013,0-0.025,0.005-0.037,0.008c0-0.003,0-0.005,0-0.008c-0.455-0.163-0.805-0.779-0.805-1.494V63.44
			c0-0.835,0.476-1.54,1.04-1.54c0.564,0,1.041,0.705,1.041,1.54v1.079l1.153,0.587V63.44C14.704,61.914,13.72,60.674,12.511,60.674
			z"/>
		<path style="fill:#616B76;" d="M26.469,67.998c-1.209,0-2.193,1.241-2.193,2.766v4.009c0,1.413,0.845,2.58,1.931,2.744
			c0-0.005,0-0.011,0-0.016c0.021,0.01,0.042,0.016,0.064,0.016c0.161,0,0.291-0.28,0.291-0.625s-0.13-0.625-0.291-0.625
			c-0.013,0-0.025,0.005-0.037,0.008c0-0.003,0-0.005,0-0.008c-0.455-0.163-0.805-0.779-0.805-1.494v-4.009
			c0-0.835,0.476-1.54,1.04-1.54s1.041,0.705,1.041,1.54v1.079l1.153,0.587v-1.667C28.663,69.239,27.679,67.998,26.469,67.998z"/>
	</g>
</g>
</svg>
