<?xml version="1.0" encoding="iso-8859-1"?>
<!-- Generator: Adobe Illustrator 21.0.2, SVG Export Plug-In . SVG Version: 6.00 Build 0)  -->
<svg version="1.1" id="&#x421;&#x43B;&#x43E;&#x439;_1"
	 xmlns="http://www.w3.org/2000/svg" xmlns:xlink="http://www.w3.org/1999/xlink" x="0px" y="0px" viewBox="0 0 190 150"
	 style="enable-background:new 0 0 190 150;" xml:space="preserve">
<g>
	<g>
		<path style="fill:#9DAAB2;" d="M46.217,18.809L9.204,0.43c-1.03-0.511-1.99-0.552-2.801-0.202c-0.812,0.35-3.734,2.04-4.449,2.543
			C0.762,3.61,0,5.411,0,7.857V110.72c0,4.315,2.367,8.988,5.288,10.438l37.013,18.379c1.03,0.511,1.99,0.552,2.801,0.202
			c0.812-0.35,4.359-2.454,4.654-2.7c1.074-0.894,1.749-2.626,1.749-4.929V29.247C51.505,24.932,49.138,20.259,46.217,18.809z"/>
		<linearGradient id="SVGID_1_" gradientUnits="userSpaceOnUse" x1="24.2544" y1="16.7926" x2="23.256" y2="134.6054">
			<stop  offset="0" style="stop-color:#D6D6E1"/>
			<stop  offset="0.9991" style="stop-color:#B5BCD6"/>
		</linearGradient>
		<path style="fill:url(#SVGID_1_);" d="M47.588,134.349c0,4.315-2.367,6.637-5.288,5.187L5.288,121.157
			C2.367,119.707,0,115.034,0,110.72V7.857C0,3.543,2.367,1.22,5.288,2.67l37.013,18.379c2.92,1.45,5.288,6.123,5.288,10.438
			V134.349z"/>
		<linearGradient id="SVGID_2_" gradientUnits="userSpaceOnUse" x1="48.662" y1="48.7953" x2="50.8096" y2="48.7953">
			<stop  offset="0.0112" style="stop-color:#E9E5E8"/>
			<stop  offset="0.9991" style="stop-color:#B2B6BE"/>
		</linearGradient>
		<path style="fill:url(#SVGID_2_);" d="M50.81,56.434c0,0.777-0.481,1.466-1.074,1.539l0,0c-0.593,0.074-1.074-0.496-1.074-1.272
			V41.157c0-0.777,0.481-1.466,1.074-1.539l0,0c0.593-0.074,1.074,0.496,1.074,1.272V56.434z"/>
		<linearGradient id="SVGID_3_" gradientUnits="userSpaceOnUse" x1="48.662" y1="69.9572" x2="50.8096" y2="69.9572">
			<stop  offset="0.0112" style="stop-color:#E9E5E8"/>
			<stop  offset="0.9991" style="stop-color:#B2B6BE"/>
		</linearGradient>
		<path style="fill:url(#SVGID_3_);" d="M50.81,75.207c0,0.777-0.481,1.466-1.074,1.539l0,0c-0.593,0.074-1.074-0.496-1.074-1.272
			V64.707c0-0.777,0.481-1.466,1.074-1.539l0,0c0.593-0.074,1.074,0.496,1.074,1.272V75.207z"/>
		<g>
			<g>
				<g>
					<path style="fill:#FFFFFF;" d="M22.166,23.078c-0.049,3.246-1.607,5.109-3.48,4.161l-12.18-6.163
						c-1.873-0.948-3.351-4.347-3.302-7.593l0.021-1.411c0.049-3.246,1.607-5.109,3.48-4.161l12.18,6.163
						c1.873,0.948,3.351,4.347,3.302,7.593L22.166,23.078z"/>
					<linearGradient id="SVGID_4_" gradientUnits="userSpaceOnUse" x1="2.9218" y1="17.575" x2="22.4708" y2="17.575">
						<stop  offset="0.0049" style="stop-color:#79729D"/>
						<stop  offset="0.157" style="stop-color:#706893"/>
						<stop  offset="0.6932" style="stop-color:#554A74"/>
						<stop  offset="0.9925" style="stop-color:#4B3F68"/>
					</linearGradient>
					<path style="fill:url(#SVGID_4_);" d="M19.852,27.837c-0.418,0.052-0.852-0.034-1.29-0.256l-12.18-6.163
						c-1.959-0.991-3.511-4.538-3.46-7.908L2.944,12.1C2.985,9.424,4.028,7.5,5.54,7.312c0.418-0.052,0.852,0.034,1.29,0.256
						l12.18,6.163c1.959,0.991,3.511,4.539,3.46,7.908l-0.021,1.412C22.408,25.725,21.365,27.649,19.852,27.837z M5.54,8.041
						c-1.181,0.147-1.998,1.756-2.032,4.003l-0.021,1.411C3.44,16.568,4.85,19.833,6.63,20.733l12.18,6.163
						c0.36,0.182,0.711,0.254,1.043,0.212c1.181-0.147,1.998-1.756,2.032-4.003l0.021-1.412c0.047-3.112-1.363-6.377-3.143-7.278
						L6.582,8.254C6.222,8.071,5.872,8,5.54,8.041z"/>
				</g>
				<path style="fill:#C7C9D0;" d="M10.217,16.082c-0.031,2.092-1.17,3.215-2.544,2.508c-1.374-0.707-2.463-2.976-2.431-5.068
					s1.17-3.215,2.544-2.508C9.16,11.721,10.248,13.99,10.217,16.082z"/>
				<path style="fill:#C7C9D0;" d="M19.237,21.006c-0.022,1.447-0.811,2.224-1.764,1.734c-0.953-0.49-1.707-2.061-1.685-3.508
					c0.022-1.447,0.811-2.224,1.764-1.734C18.504,17.988,19.259,19.559,19.237,21.006z"/>
			</g>
		</g>
		<g>
			<g>
				<path style="fill:#FFFFFF;" d="M25.333,54.408c0.83-1.355,0.609-3.222,0.609-3.222s-1.604-0.698-2.379,0.348
					c-0.774,1.047-0.772,3.477-0.772,3.477S24.503,55.763,25.333,54.408z"/>
				<path style="fill:#FFFFFF;" d="M28.143,68.779c-0.553-1.105-1.171-2.651-1.151-4.012c0.022-1.551,0.272-2.495,0.561-3.071
					c0.424-0.844,0.933-0.892,0.933-0.892s-0.776-2.64-2.518-3.405c-1.742-0.765-2.354-0.058-3.127-0.519
					c-0.773-0.46-1.547-2.099-3.096-2.517c-1.549-0.418-2.379,0.602-2.932,3.013c-0.489,2.13,0.111,6.337,0.664,8.533
					c0.316,1.256,0.868,2.763,1.479,3.92c0.457,0.866,0.948,1.535,1.398,1.755c0.378,0.184,0.692,0.185,0.993,0.138
					c0.535-0.085,1.03-0.325,1.773,0.038c0.57,0.278,0.914,0.728,1.26,1.184c0.359,0.473,0.721,0.954,1.34,1.256
					c0.361,0.176,0.708,0.138,1.024-0.022c0.749-0.381,1.326-1.451,1.521-2.004c0.277-0.787,0.719-1.911,0.719-1.911
					S28.585,69.66,28.143,68.779z"/>
			</g>
		</g>
		<path style="fill:#7B85A9;" d="M8.437,15.167c-0.009,0.594-0.333,0.913-0.724,0.712c-0.391-0.201-0.701-0.846-0.692-1.44
			c0.009-0.594,0.333-0.913,0.724-0.712C8.136,13.927,8.446,14.572,8.437,15.167z"/>
	</g>
	<g>
		<path style="fill:#663EFF;" d="M184.318,28.816l-37.013-18.379c-1.03-0.511-1.99-0.552-2.801-0.202
			c-0.812,0.35-3.734,2.04-4.449,2.543c-1.192,0.838-1.953,2.639-1.953,5.086v102.862c0,4.315,2.367,8.988,5.288,10.438
			l37.013,18.379c1.03,0.511,1.99,0.552,2.801,0.202c0.812-0.35,4.359-2.454,4.654-2.7c1.074-0.894,1.749-2.626,1.749-4.929V39.254
			C189.605,34.939,187.238,30.266,184.318,28.816z"/>
		<g>
			<path style="fill:#AC54FF;" d="M185.632,144.355c0,4.315-2.367,6.637-5.288,5.187l-37.013-18.379
				c-2.92-1.45-5.288-6.123-5.288-10.438V17.863c0-4.315,2.367-6.637,5.288-5.187l37.013,18.379c2.92,1.45,5.288,6.123,5.288,10.438
				V144.355z"/>
			<path style="fill:#E0C7EA;" d="M188.854,78.938c0,0.776-0.481,1.466-1.074,1.539l0,0c-0.593,0.074-1.074-0.496-1.074-1.272V63.66
				c0-0.777,0.481-1.466,1.074-1.539l0,0c0.593-0.074,1.074,0.496,1.074,1.272V78.938z"/>
			<polygon style="fill:#EDF1FC;" points="182.264,135.211 141.413,115.448 141.413,24.354 182.264,44.581 			"/>
			<g>
				<g>
					<g>
						<path style="fill:#7634DA;" d="M169.457,31.457c-0.584-0.317-1.057,0.046-1.057,0.81c0,0.764,0.473,1.64,1.057,1.957
							c0.584,0.317,1.057-0.046,1.057-0.81C170.513,32.65,170.04,31.774,169.457,31.457z"/>
					</g>
					<g>
						<path style="fill:#7634DA;" d="M165.273,29.813l-6.854-3.72c-0.292-0.158-0.528,0.023-0.528,0.405
							c0,0.382,0.237,0.82,0.528,0.979l6.854,3.72c0.292,0.158,0.528-0.023,0.528-0.405
							C165.801,30.41,165.565,29.972,165.273,29.813z"/>
					</g>
					<g>
						<path style="fill:#E0C7EA;" d="M155.55,24.535c-0.314-0.17-0.568,0.025-0.568,0.436c0,0.411,0.254,0.882,0.568,1.053
							c0.314,0.17,0.568-0.025,0.568-0.436C156.118,25.177,155.864,24.706,155.55,24.535z"/>
					</g>
					<g>
						<path style="fill:#7634DA;" d="M153.709,23.536c-0.301-0.164-0.546,0.024-0.546,0.418s0.244,0.847,0.546,1.01
							c0.301,0.164,0.546-0.024,0.546-0.418S154.01,23.699,153.709,23.536z"/>
					</g>
				</g>
				<g>
					<path style="fill:#7634DA;" d="M165.032,137.03l-6.387-3.467c-1.115-0.605-2.022-2.286-2.022-3.745v-0.738
						c0-1.46,0.907-2.155,2.022-1.55l6.387,3.467c1.115,0.605,2.022,2.286,2.022,3.745v0.738
						C167.054,136.94,166.147,137.635,165.032,137.03z M158.645,128.398c-0.749-0.407-1.36,0.061-1.36,1.042v0.738
						c0,0.981,0.61,2.111,1.36,2.518l6.387,3.467c0.749,0.407,1.36-0.06,1.36-1.042v-0.738c0-0.981-0.61-2.111-1.36-2.518
						L158.645,128.398z"/>
				</g>
			</g>
			<polygon style="fill:#ABC7DD;" points="142.468,114.216 142.468,24.876 141.413,24.354 141.413,115.448 182.264,135.211 
				182.264,133.469 			"/>
		</g>
	</g>
	<g>
		<linearGradient id="SVGID_5_" gradientUnits="userSpaceOnUse" x1="69.2612" y1="73.1946" x2="120.7661" y2="73.1946">
			<stop  offset="0.328" style="stop-color:#A35ED3"/>
			<stop  offset="1" style="stop-color:#9D54CC"/>
		</linearGradient>
		<path style="fill:url(#SVGID_5_);" d="M115.478,22.02L78.465,3.642c-1.03-0.511-1.99-0.552-2.801-0.202
			c-0.812,0.35-3.734,2.04-4.449,2.543c-1.192,0.838-1.953,2.639-1.953,5.086v102.862c0,4.315,2.367,8.988,5.288,10.438
			l37.013,18.379c1.03,0.511,1.99,0.552,2.801,0.202c0.812-0.35,4.359-2.454,4.654-2.7c1.074-0.894,1.749-2.626,1.749-4.929V32.458
			C120.766,28.144,118.399,23.47,115.478,22.02z"/>
		<g>
			
				<linearGradient id="SVGID_6_" gradientUnits="userSpaceOnUse" x1="72.965" y1="317.106" x2="107.1277" y2="203.4779" gradientTransform="matrix(1 -0.1228 0 1 0 -165.5576)">
				<stop  offset="0" style="stop-color:#B479E3"/>
				<stop  offset="0.4258" style="stop-color:#BC86E7"/>
				<stop  offset="1" style="stop-color:#D5ADF3"/>
			</linearGradient>
			<path style="fill:url(#SVGID_6_);" d="M116.548,137.587c0,4.315-2.367,6.637-5.288,5.187l-37.013-18.379
				c-2.92-1.45-5.288-6.123-5.288-10.438V11.095c0-4.315,2.367-6.637,5.288-5.187l37.013,18.379c2.92,1.45,5.288,6.123,5.288,10.438
				V137.587z"/>
			<path style="fill:#E0C7EA;" d="M119.769,59.671c0,0.777-0.481,1.466-1.074,1.539l0,0c-0.593,0.074-1.074-0.496-1.074-1.272
				V44.394c0-0.777,0.481-1.466,1.074-1.539l0,0c0.593-0.074,1.074,0.496,1.074,1.272V59.671z"/>
			<path style="fill:#E0C7EA;" d="M119.769,78.445c0,0.776-0.481,1.466-1.074,1.539l0,0c-0.593,0.074-1.074-0.496-1.074-1.272
				V67.945c0-0.776,0.481-1.466,1.074-1.539l0,0c0.593-0.074,1.074,0.496,1.074,1.272V78.445z"/>
			<g>
				<linearGradient id="SVGID_7_" gradientUnits="userSpaceOnUse" x1="87.7409" y1="37.4183" x2="94.3811" y2="37.4183">
					<stop  offset="0.0049" style="stop-color:#79729D"/>
					<stop  offset="0.157" style="stop-color:#706893"/>
					<stop  offset="0.6932" style="stop-color:#554A74"/>
					<stop  offset="0.9925" style="stop-color:#4B3F68"/>
				</linearGradient>
				<path style="fill:url(#SVGID_7_);" d="M94.381,40.577c0,2.148-0.934,3.506-2.086,3.034l-2.469-1.013
					c-1.152-0.473-2.086-2.598-2.086-4.746V34.26c0-2.148,0.934-3.506,2.086-3.034l2.469,1.013c1.152,0.473,2.086,2.598,2.086,4.746
					V40.577z"/>
				<linearGradient id="SVGID_8_" gradientUnits="userSpaceOnUse" x1="82.8626" y1="34.5125" x2="85.0985" y2="34.5125">
					<stop  offset="0.0049" style="stop-color:#79729D"/>
					<stop  offset="0.157" style="stop-color:#706893"/>
					<stop  offset="0.6932" style="stop-color:#554A74"/>
					<stop  offset="0.9925" style="stop-color:#4B3F68"/>
				</linearGradient>
				<path style="fill:url(#SVGID_8_);" d="M85.098,38.572c0,1.151-0.501,1.879-1.118,1.626l0,0
					c-0.617-0.253-1.118-1.392-1.118-2.544v-7.202c0-1.151,0.501-1.879,1.118-1.626l0,0c0.617,0.253,1.118,1.392,1.118,2.544V38.572
					z"/>
				<g>
					<linearGradient id="SVGID_9_" gradientUnits="userSpaceOnUse" x1="96.3941" y1="40.9203" x2="100.0233" y2="40.9203">
						<stop  offset="0.0049" style="stop-color:#79729D"/>
						<stop  offset="0.157" style="stop-color:#706893"/>
						<stop  offset="0.6932" style="stop-color:#554A74"/>
						<stop  offset="0.9925" style="stop-color:#4B3F68"/>
					</linearGradient>
					<path style="fill:url(#SVGID_9_);" d="M98.209,46.2c-1-0.411-1.815-2.263-1.815-4.129V38.28c0-1.866,0.814-3.05,1.815-2.639
						c1.001,0.411,1.815,2.263,1.815,4.129v3.791C100.023,45.426,99.209,46.61,98.209,46.2z M98.215,36.613
						c-0.79-0.324-1.432,0.61-1.432,2.083v3.308c0,1.473,0.642,2.934,1.432,3.258c0.79,0.324,1.432-0.61,1.432-2.083v-3.308
						C99.647,38.399,99.004,36.937,98.215,36.613z"/>
				</g>
				<path style="fill:#604982;" d="M92.111,38.323c0,1.099-0.478,1.794-1.067,1.552l0,0c-0.589-0.242-1.067-1.329-1.067-2.428
					v-0.379c0-1.099,0.478-1.794,1.067-1.552l0,0c0.589,0.242,1.067,1.329,1.067,2.428V38.323z"/>
			</g>
		</g>
	</g>
</g>
</svg>
