<?xml version="1.0" encoding="iso-8859-1"?>
<!-- Generator: Adobe Illustrator 21.0.2, SVG Export Plug-In . SVG Version: 6.00 Build 0)  -->
<svg version="1.1" id="&#x421;&#x43B;&#x43E;&#x439;_1"
	 xmlns="http://www.w3.org/2000/svg" xmlns:xlink="http://www.w3.org/1999/xlink" x="0px" y="0px" viewBox="0 0 496 566"
	 style="enable-background:new 0 0 496 566;" xml:space="preserve">
<g>
	<g>
		<defs>
			<ellipse id="SVGID_1_" cx="256.31" cy="266.106" rx="301.072" ry="296.896"/>
		</defs>
		<clipPath id="SVGID_2_">
			<use xlink:href="#SVGID_1_"  style="overflow:visible;"/>
		</clipPath>
		<g style="clip-path:url(#SVGID_2_);">
			<linearGradient id="SVGID_3_" gradientUnits="userSpaceOnUse" x1="257.5031" y1="386.6592" x2="388.5738" y2="386.6592">
				<stop  offset="0.0538" style="stop-color:#DBC1F9"/>
				<stop  offset="0.7258" style="stop-color:#CAAFEC"/>
				<stop  offset="1" style="stop-color:#AE84E2"/>
			</linearGradient>
			<path style="fill:url(#SVGID_3_);" d="M388.574,469.739l-36.858-159.242l-1.2,0.646c-2.145,1.154-4.397,2.51-6.974,4.186
				l0.003-0.024l-1.329,0.889l-0.281,0.186l0.001,0.002l-0.267,0.179c-1.606,1.075-3.204,2.176-4.803,3.279
				c-1.407,0.97-2.818,1.941-4.237,2.898l-0.39,0.263l-7.818,88.57l-31.943-136.801l-1.2,0.646
				c-2.141,1.152-4.394,2.509-6.974,4.187l0.003-0.026l-1.382,0.926l-0.229,0.151l0,0.002l-0.267,0.179
				c-1.593,1.067-3.178,2.158-4.764,3.252c-1.42,0.979-2.843,1.96-4.276,2.925l-0.39,0.263l-15.495,175.549l3.995-2.481
				l22.218-176.1l39.648,139.28l-6.622,75.027l3.995-2.481l22.218-176.099l41.253,145.97L388.574,469.739z"/>
			
				<linearGradient id="SVGID_4_" gradientUnits="userSpaceOnUse" x1="4.9322" y1="546.7337" x2="496.0442" y2="546.7337" gradientTransform="matrix(0.9457 -0.1292 0.1354 0.9908 -134.0623 -5.1867)">
				<stop  offset="0" style="stop-color:#FFFFFF"/>
				<stop  offset="0.3333" style="stop-color:#F2ECFA"/>
				<stop  offset="1" style="stop-color:#AE84E2"/>
			</linearGradient>
			<path style="fill:url(#SVGID_4_);" d="M436.111,500.164c-53.95-65.528-159.44-102.071-259.213-88.437
				c-70.304,9.608-130.234,43.106-169.215,88.883c66.779,63.584,159.288,97.286,255.865,84.088
				C330.96,575.486,390.324,544.786,436.111,500.164z"/>
			<g>
				<linearGradient id="SVGID_5_" gradientUnits="userSpaceOnUse" x1="176.8202" y1="510.6935" x2="351.0019" y2="510.6935">
					<stop  offset="0" style="stop-color:#5E26DB;stop-opacity:0.6"/>
					<stop  offset="0.1493" style="stop-color:#6E2DDF;stop-opacity:0.5104"/>
					<stop  offset="0.5069" style="stop-color:#903BE6;stop-opacity:0.2959"/>
					<stop  offset="0.8033" style="stop-color:#A544EA;stop-opacity:0.118"/>
					<stop  offset="1" style="stop-color:#AC47EC;stop-opacity:0"/>
				</linearGradient>
				<polygon style="fill:url(#SVGID_5_);" points="216.326,501.384 194.465,508.512 176.82,521 302.09,521 351.002,500.387 				"/>
				<linearGradient id="SVGID_6_" gradientUnits="userSpaceOnUse" x1="152.2101" y1="476.8597" x2="330.2945" y2="476.8597">
					<stop  offset="0" style="stop-color:#5E26DB;stop-opacity:0.6"/>
					<stop  offset="0.1493" style="stop-color:#6E2DDF;stop-opacity:0.5104"/>
					<stop  offset="0.5069" style="stop-color:#903BE6;stop-opacity:0.2959"/>
					<stop  offset="0.8033" style="stop-color:#A544EA;stop-opacity:0.118"/>
					<stop  offset="1" style="stop-color:#AC47EC;stop-opacity:0"/>
				</linearGradient>
				<polygon style="fill:url(#SVGID_6_);" points="330.294,470.034 194.606,467.579 169.855,473.653 152.21,486.14 301.566,486.14 
									"/>
			</g>
			<g>
				<g>
					<linearGradient id="SVGID_7_" gradientUnits="userSpaceOnUse" x1="243.8618" y1="349.3081" x2="343.8704" y2="349.3081">
						<stop  offset="0" style="stop-color:#C9CCD3"/>
						<stop  offset="0.7799" style="stop-color:#FFFFFF"/>
					</linearGradient>
					<polygon style="fill:url(#SVGID_7_);" points="243.862,350.938 245.425,357.587 314.545,356.484 343.87,341.029 
						256.841,346.592 					"/>
				</g>
				<g>
					<linearGradient id="SVGID_8_" gradientUnits="userSpaceOnUse" x1="253.9354" y1="334.9639" x2="264.3907" y2="334.9639">
						<stop  offset="0" style="stop-color:#BB63FF"/>
						<stop  offset="1" style="stop-color:#A141E8"/>
					</linearGradient>
					<path style="fill:url(#SVGID_8_);" d="M256.187,345.831c-1.382,0-2.128-0.756-2.252-0.893l1.804-2.035
						c-0.048-0.038,0.118,0.067,0.423,0.068c0.407,0,1.116-0.155,2.186-0.915c2.427-1.728,4.489-9.549,2.989-13.5
						c-0.314-0.827-0.726-1.318-1.259-1.501c-1.035-0.358-2.458,0.424-2.916,0.755l-1.406-2.395
						c0.268-0.197,2.685-1.905,5.057-1.105c0.888,0.299,2.109,1.085,2.884,3.126c2.008,5.294-0.653,14.672-3.972,17.035
						C258.269,345.506,257.092,345.831,256.187,345.831z"/>
				</g>
				<linearGradient id="SVGID_9_" gradientUnits="userSpaceOnUse" x1="231.925" y1="337.7368" x2="258.9249" y2="337.7368">
					<stop  offset="0" style="stop-color:#BB63FF"/>
					<stop  offset="0.3548" style="stop-color:#DE77F7"/>
					<stop  offset="0.8333" style="stop-color:#A547EC"/>
					<stop  offset="1" style="stop-color:#A141E8"/>
				</linearGradient>
				<path style="fill:url(#SVGID_9_);" d="M231.925,317.886l3.406,34.599c0,2.818,4.519,5.103,10.094,5.103
					s10.094-2.285,10.094-5.103l3.406-34.599H231.925z"/>
				<linearGradient id="SVGID_10_" gradientUnits="userSpaceOnUse" x1="231.925" y1="317.8861" x2="258.9249" y2="317.8861">
					<stop  offset="0.1022" style="stop-color:#BF88EF"/>
					<stop  offset="0.4946" style="stop-color:#DECCFF"/>
					<stop  offset="1" style="stop-color:#B479E3"/>
				</linearGradient>
				<ellipse style="fill:url(#SVGID_10_);" cx="245.425" cy="317.886" rx="13.5" ry="7.062"/>
				<path style="fill:#A55E83;" d="M234.388,322.178c2.468,1.681,6.338,2.77,10.703,2.77c4.781,0,8.971-1.304,11.37-3.265
					c-1.668-2.218-5.901-3.798-10.874-3.798C240.251,317.886,235.764,319.703,234.388,322.178z"/>
				<g>
					<g>
						<linearGradient id="SVGID_11_" gradientUnits="userSpaceOnUse" x1="287.8997" y1="327.0945" x2="348.8997" y2="142.0945">
							<stop  offset="0.0914" style="stop-color:#DD404C"/>
							<stop  offset="0.4301" style="stop-color:#E45875"/>
							<stop  offset="0.7634" style="stop-color:#F86C8E"/>
							<stop  offset="1" style="stop-color:#FF7397"/>
						</linearGradient>
						<path style="fill:url(#SVGID_11_);" d="M326.698,145.322c0,0-14.599-4.682-33.652,2.353
							c-19.054,7.035-17.728,69.226-27.74,74.845c-10.012,5.619-56.528,21.237-56.476,39.347
							c0.052,18.11,23.637,52.938,74.162,67.739c50.526,14.801,89.016,5.84,111.01-27.046c8.116-12.135,13.487-28.862,16.205-46.235
							c4.647-29.708-1.838-55.453-12.247-69.231c-2.916-3.859-11.997-15.953-16.964-19.293
							C357.863,152.245,326.698,145.322,326.698,145.322z"/>
						<linearGradient id="SVGID_12_" gradientUnits="userSpaceOnUse" x1="323.4991" y1="335.8207" x2="389.5272" y2="162.7373">
							<stop  offset="0.0914" style="stop-color:#DD404C"/>
							<stop  offset="1" style="stop-color:#E45875"/>
						</linearGradient>
						<path style="fill:url(#SVGID_12_);" d="M402.834,190.638c-15.533-25.121-28.73-29.831-46.218-36.104
							c10.089,5.075,19.145,11.073,24.235,17.81c8.248,10.918,14.364,29.953,15.669,50.369c1.305,20.417-3.052,42.058-9.219,55.215
							c-4.873,10.396-12.939,25.75-35.586,34.205c-28.377,10.595-53.343,19.085-89.206,8.579c-1.292-0.378-2.554-0.778-3.81-1.182
							c7.965,4.258,16.959,8.019,27.044,10.973c50.526,14.801,97.438,6.06,119.432-26.826
							C427.17,270.793,415.37,210.913,402.834,190.638z"/>
					</g>
					<defs>
						
							<filter id="Adobe_OpacityMaskFilter" filterUnits="userSpaceOnUse" x="229.149" y="143.847" width="144.434" height="183.707">
							<feFlood  style="flood-color:white;flood-opacity:1" result="back"/>
							<feBlend  in="SourceGraphic" in2="back" mode="normal"/>
						</filter>
					</defs>
					<mask maskUnits="userSpaceOnUse" x="229.149" y="143.847" width="144.434" height="183.707" id="SVGID_13_">
						<g style="filter:url(#Adobe_OpacityMaskFilter);">
							<defs>
								
									<filter id="Adobe_OpacityMaskFilter_1_" filterUnits="userSpaceOnUse" x="229.149" y="143.847" width="144.434" height="183.707">
									<feFlood  style="flood-color:white;flood-opacity:1" result="back"/>
									<feBlend  in="SourceGraphic" in2="back" mode="normal"/>
								</filter>
							</defs>
							<mask maskUnits="userSpaceOnUse" x="229.149" y="143.847" width="144.434" height="183.707" id="SVGID_13_">
								<g style="filter:url(#Adobe_OpacityMaskFilter_1_);">
								</g>
							</mask>
							<linearGradient id="SVGID_14_" gradientUnits="userSpaceOnUse" x1="285.133" y1="324.7966" x2="338.1278" y2="112.2868">
								<stop  offset="0" style="stop-color:#FFFFFF"/>
								<stop  offset="0.9301" style="stop-color:#000000"/>
							</linearGradient>
							<path style="mask:url(#SVGID_13_);fill:url(#SVGID_14_);" d="M373.583,165.069c0,0,0,38.229-7.095,81.188
								c-3.769,22.818-11.378,41.223-15.614,46.566c-4.248,5.358-13.195,16.512-21.92,21.641
								c-15.004,8.821-26.666,13.09-26.666,13.09s-35.728-5.813-43.589-8.022c-15.532-4.366-29.55-20.356-29.55-20.356
								s30.94-15.836,46.931-30.11c11.026-9.842,20.477-21.779,20.941-34.02c0.456-12.046,2.178-29.064,4.075-45.116
								c2.827-23.916,6.043-45.689,6.043-45.689s13.507-1.183,23.553,0.55C341.24,146.61,359.571,154.535,373.583,165.069z"/>
						</g>
					</mask>
					<linearGradient id="SVGID_15_" gradientUnits="userSpaceOnUse" x1="295.2907" y1="291.9471" x2="316.1335" y2="139.0997">
						<stop  offset="0.0914" style="stop-color:#DD404C"/>
						<stop  offset="0.6237" style="stop-color:#E45875"/>
					</linearGradient>
					<path style="fill:url(#SVGID_15_);" d="M373.583,165.069c0,0,0,38.229-7.095,81.188c-3.769,22.818-11.378,41.223-15.614,46.566
						c-4.248,5.358-13.195,16.512-21.92,21.641c-15.004,8.821-26.666,13.09-26.666,13.09s-35.728-5.813-43.589-8.022
						c-15.532-4.366-29.55-20.356-29.55-20.356s30.94-15.836,46.931-30.11c11.026-9.842,20.477-21.779,20.941-34.02
						c0.456-12.046,2.178-29.064,4.075-45.116c2.827-23.916,6.043-45.689,6.043-45.689s13.507-1.183,23.553,0.55
						C341.24,146.61,359.571,154.535,373.583,165.069z"/>
					<linearGradient id="SVGID_16_" gradientUnits="userSpaceOnUse" x1="295.8648" y1="123.9585" x2="196.1069" y2="242.3879">
						<stop  offset="0.0215" style="stop-color:#BF89DF"/>
						<stop  offset="0.1398" style="stop-color:#BFAADF"/>
						<stop  offset="0.2151" style="stop-color:#D1C3E7"/>
						<stop  offset="0.543" style="stop-color:#EEEEF5"/>
						<stop  offset="1" style="stop-color:#FFFFFF"/>
					</linearGradient>
					<path style="fill:url(#SVGID_16_);" d="M297.721,99.284c-1.158-1.11-3.26-1.56-5.767-1.235
						c-5.314,0.689-12.197,4.745-15.597,12.254c-1.105,2.561-14.344,33.069-17.854,47.728c-2.655,11.092-6.467,21.901-9.016,24.766
						c-2.928,3.291-39.724,42.231-39.724,42.231l3.369,8.061c0,0,48.432-29.496,52.579-35.261
						c19.824-27.56,36.606-85.08,36.113-86.949c-0.304-1.147-0.43-2.29-0.552-3.396C300.966,104.725,300.678,102.119,297.721,99.284
						z"/>
					<g>
						
							<linearGradient id="SVGID_17_" gradientUnits="userSpaceOnUse" x1="-1264.5581" y1="456.9323" x2="-1218.0908" y2="456.9323" gradientTransform="matrix(-0.9993 0.0316 -0.0382 1.0019 -1051.679 51.8998)">
							<stop  offset="0.043" style="stop-color:#5E6AD6"/>
							<stop  offset="1" style="stop-color:#BDDBF5"/>
						</linearGradient>
						<path style="fill:url(#SVGID_17_);" d="M178.597,457.239c0,0-10.066,10.463-19.506,16.559
							c-2.857,1.845-5.149,3.273-6.91,4.461c-4.058,2.737-5.293,4.195-4.096,6.515c0.735,1.425,3.648,1.629,7.23,1.19
							c4.781-0.585,10.754-2.313,14.333-3.807c2.805-1.171,4.952-3,6.798-4.629c2.275-2.007,4.092-3.711,6.117-3.509
							c3.669,0.366,8.232-1.918,9.651-2.929c0.821-0.585,2.151-1.278,2.392-3.51c0.176-1.628-0.228-4.074-1.83-7.893
							c-1.725-4.113-4.807-4.995-7.658-4.733C181.691,455.269,178.597,457.239,178.597,457.239z"/>
						
							<linearGradient id="SVGID_18_" gradientUnits="userSpaceOnUse" x1="-1266.8373" y1="468.9574" x2="-1220.4563" y2="468.9574" gradientTransform="matrix(-1 0.0699 0 1 -1049.0027 122.5715)">
							<stop  offset="0.043" style="stop-color:#5E6AD6"/>
							<stop  offset="1" style="stop-color:#BDDBF5"/>
						</linearGradient>
						<path style="fill:url(#SVGID_18_);" d="M201.474,491.124c0,0-9.687,10.815-18.913,17.254c-2.447,1.708-4.471,3.08-6.092,4.236
							c-4.49,3.202-5.874,4.74-4.518,7.127c0.791,1.392,3.72,1.482,7.295,0.907c4.767-0.768,10.683-2.719,14.21-4.346
							c2.729-1.258,5.006-2.53,6.921-3.803c2.416-1.606,4.258-3.215,5.709-4.806c3.801-4.165,7.893-3.487,9.277-4.549
							c0.826-0.634,2.291-0.956,2.455-3.001c0.111-1.381-0.372-3.548-2.045-7.127c-1.885-4.032-5.007-4.793-7.854-4.421
							C204.498,489.042,201.474,491.124,201.474,491.124z"/>
						<linearGradient id="SVGID_19_" gradientUnits="userSpaceOnUse" x1="289.149" y1="218.9552" x2="179.0918" y2="522.2586">
							<stop  offset="0.0909" style="stop-color:#4A28C2"/>
							<stop  offset="0.1134" style="stop-color:#472BC6"/>
							<stop  offset="0.1345" style="stop-color:#3E33D1"/>
							<stop  offset="0.155" style="stop-color:#2E40E4"/>
							<stop  offset="0.1559" style="stop-color:#2D41E5"/>
							<stop  offset="0.2403" style="stop-color:#2947E7"/>
							<stop  offset="0.3497" style="stop-color:#1E57EB"/>
							<stop  offset="0.3763" style="stop-color:#1B5CED"/>
							<stop  offset="0.5572" style="stop-color:#0E6EF3"/>
							<stop  offset="0.5699" style="stop-color:#0D70F3"/>
							<stop  offset="0.9247" style="stop-color:#70A6F9"/>
						</linearGradient>
						<path style="fill:url(#SVGID_19_);" d="M314.285,251.829c0.001-0.001,0.002-0.003,0.002-0.004
							c-0.073-0.038-0.147-0.074-0.221-0.112c-0.026-0.014-27.252-11.02-33.285-14.729c-0.769-0.473-1.31-1.061-1.658-1.705
							c-11.175,3.66-22.004,7.468-29.108,11.908c-19.265,10.602-73.634,49.008-78.463,60.677c-0.235,0.568-0.536,1.544-0.893,2.876
							c-1.251,10.479,7.937,146.501,7.937,146.501s2.02,1.93,6.615,1.608c3.064-0.215,3.956-2.033,3.956-2.033
							s5.554-36.225,6.467-42.622c0.913-6.397,8.216-57.569,6.941-73.577c-0.753-9.457-0.24-17.33,0.307-22.201
							c0.096-0.214,0.151-0.333,0.151-0.333s56.155-26.435,75.382-36.708c-24.832,21.809-44.6,41.063-54.243,51.905
							c-1.231,1.384-1.965,2.521-2.081,3.347c-0.292,2.069-1.93,8.792-4.41,18.386c-1.165,0.253-12.081,101.528-16.207,136.113
							c0.692,0.613-0.369,0.274,0.587,0.819c3.887,2.216,9.224,0.947,10.881-1.122c2.934-10.076,8.874-30.476,10.447-35.909
							c1.254-4.33,8.633-35.703,15.653-60.846c4.529-16.22,7.265-32.218,7.844-32.093c3.154-8.172,5.779-12.968,5.779-12.968
							s1.501-0.867,4.176-2.413c23.072-13.335,71.126-40.3,85.047-49.34c-0.173-0.272,7.49-6.038,8.983-13.747
							c0.766-3.954,1.089-8.355,1.164-12.624C349.268,269.888,317.392,253.445,314.285,251.829z"/>
					</g>
					<g>
						<linearGradient id="SVGID_20_" gradientUnits="userSpaceOnUse" x1="79.011" y1="290.8126" x2="91.8854" y2="290.8126">
							<stop  offset="0.0753" style="stop-color:#993BE5"/>
							<stop  offset="0.2949" style="stop-color:#9237E2"/>
							<stop  offset="0.4462" style="stop-color:#8A32DF"/>
							<stop  offset="0.7312" style="stop-color:#852FDD"/>
						</linearGradient>
						<path style="fill:url(#SVGID_20_);" d="M91.885,263.717c-3.019,2.114-6.005,4.322-9.037,6.458l-3.838,45.473
							c2.115,0.756,4.227,1.51,6.337,2.261L91.885,263.717z"/>
						<path style="fill:#C078FF;" d="M84.925,321.416l0.423-3.507c-2.11-0.751-4.222-1.505-6.337-2.261L67.677,449.941l2.439-1.463
							l14.071-120.939l11.381-5.967c-2.159-0.781-4.322-1.558-6.491-2.332L84.925,321.416z"/>
						<linearGradient id="SVGID_21_" gradientUnits="userSpaceOnUse" x1="89.0765" y1="293.8464" x2="116.6091" y2="293.8464">
							<stop  offset="0.0753" style="stop-color:#993BE5"/>
							<stop  offset="0.2949" style="stop-color:#9237E2"/>
							<stop  offset="0.4462" style="stop-color:#8A32DF"/>
							<stop  offset="0.7312" style="stop-color:#852FDD"/>
						</linearGradient>
						<path style="fill:url(#SVGID_21_);" d="M100.648,258.103c-2.699,1.519-5.318,3.226-7.906,5.016l12.91,47.429l-16.576,8.691
							c2.169,0.774,4.332,1.551,6.491,2.332l11.451-6.004l3.113,11.436c2.17,0.843,4.328,1.708,6.478,2.587L100.648,258.103z"/>
						<path style="fill:#C078FF;" d="M110.131,327.003l24.541,93.66l2.506-0.712l-20.57-90.361
							C114.459,328.711,112.302,327.846,110.131,327.003z"/>
					</g>
					<g>
						<g>
							<linearGradient id="SVGID_22_" gradientUnits="userSpaceOnUse" x1="291.7512" y1="365.9109" x2="309.5508" y2="365.9109">
								<stop  offset="0.0753" style="stop-color:#993BE5"/>
								<stop  offset="0.2949" style="stop-color:#9237E2"/>
								<stop  offset="0.4462" style="stop-color:#8A32DF"/>
								<stop  offset="0.7312" style="stop-color:#852FDD"/>
							</linearGradient>
							<path style="fill:url(#SVGID_22_);" d="M301.645,375.135c2.588-1.79,5.206-3.497,7.906-5.016l-4.574-20.488l-10.982,5.973
								l-2.244,26.586c3.032-2.136,6.018-4.345,9.037-6.458l0.313-2.596L301.645,375.135z"/>
							<path style="fill:#C078FF;" d="M343.286,528.119l1.38-0.723l-35.115-157.277c-2.699,1.519-5.318,3.226-7.906,5.016
								l12.91,47.429l-20.727,10.868l6.961-57.699c-3.019,2.114-6.005,4.322-9.037,6.458l-15.279,181.038l1.841-1.195
								l14.775-122.479l22.832-11.971L343.286,528.119z"/>
						</g>
						<g>
							<linearGradient id="SVGID_23_" gradientUnits="userSpaceOnUse" x1="27.1179" y1="297.5067" x2="377.2126" y2="297.5067">
								<stop  offset="0.0323" style="stop-color:#812DDB"/>
								<stop  offset="0.1346" style="stop-color:#8A32DF"/>
								<stop  offset="0.4113" style="stop-color:#9D3EE6"/>
								<stop  offset="0.6963" style="stop-color:#A845EB"/>
								<stop  offset="1" style="stop-color:#AC47EC"/>
							</linearGradient>
							<polygon style="fill:url(#SVGID_23_);" points="149.366,203.439 27.118,267.869 27.118,271.206 254.965,391.574 
								376.788,327.554 377.213,323.456 							"/>
							<linearGradient id="SVGID_24_" gradientUnits="userSpaceOnUse" x1="27.1179" y1="295.6735" x2="377.2126" y2="295.6735">
								<stop  offset="0" style="stop-color:#D5ADF3"/>
								<stop  offset="1" style="stop-color:#B479E3"/>
							</linearGradient>
							<polygon style="fill:url(#SVGID_24_);" points="149.366,203.461 27.118,267.891 254.965,387.886 377.213,323.456 							"/>
						</g>
						<g>
							<linearGradient id="SVGID_25_" gradientUnits="userSpaceOnUse" x1="153.7088" y1="291.7102" x2="372.6527" y2="299.6782">
								<stop  offset="0" style="stop-color:#C9CCD3"/>
								<stop  offset="1" style="stop-color:#FFFFFF"/>
							</linearGradient>
							<polygon style="fill:url(#SVGID_25_);" points="100.873,281.002 205.133,333.666 377.213,323.456 255.212,259.067 
								199.158,253.28 							"/>
						</g>
					</g>
					
						<linearGradient id="SVGID_26_" gradientUnits="userSpaceOnUse" x1="266.3744" y1="272.9056" x2="350.0548" y2="272.9056" gradientTransform="matrix(1 0.1426 0 1 0 -133.7972)">
						<stop  offset="0" style="stop-color:#FFFFFF"/>
						<stop  offset="0.457" style="stop-color:#EEEEF5"/>
						<stop  offset="0.7258" style="stop-color:#D8CFEB"/>
						<stop  offset="0.8602" style="stop-color:#BFAADF"/>
						<stop  offset="0.9785" style="stop-color:#BF89DF"/>
					</linearGradient>
					<path style="fill:url(#SVGID_26_);" d="M319.051,98.631c8.29,3.241,19.783,11.045,26.315,24.403
						c4.444,9.089,9.527,57.913,10.852,95.853c0.622,17.818,1.047,31.097,0.329,41.798c-0.513,7.65-1.438,12.109-4.491,14.182
						c-3.15,2.139-9.334,2.068-16.018,0.829c-7.57-1.403-15.782-4.306-20.956-7.198c-7.494-4.188-13.701-7.489-19.879-11.238
						c-5.049-3.064-10.08-6.428-15.778-10.822c-9.861-7.603-5.773-13.575-2.401-27.997c2.729-11.669,5.183-25.103,2.131-41.242
						c-4.503-23.806-6.299-61.51,6.571-76.942c1.659-1.99,7.296-5.305,10.092-6.081C304.204,91.85,312.908,96.23,319.051,98.631z"/>
					<g>
						<linearGradient id="SVGID_27_" gradientUnits="userSpaceOnUse" x1="300.1637" y1="82.6341" x2="305.2289" y2="122.4805">
							<stop  offset="0" style="stop-color:#DB9969"/>
							<stop  offset="0.2411" style="stop-color:#DD9D69"/>
							<stop  offset="0.4674" style="stop-color:#E5A869"/>
							<stop  offset="0.6871" style="stop-color:#F1BB68"/>
							<stop  offset="0.871" style="stop-color:#FFD168"/>
						</linearGradient>
						<path style="fill:url(#SVGID_27_);" d="M289.562,86.961l5.809,24.243c0,0,0.14,12.69,5.443,12.762
							c6.638,0.089,12.959-21.997,12.959-21.997l-9.593-32.924L289.562,86.961z"/>
						
							<linearGradient id="SVGID_28_" gradientUnits="userSpaceOnUse" x1="269.7409" y1="31.4623" x2="291.8884" y2="-25.1876" gradientTransform="matrix(0.9911 -0.1168 0.0486 0.9154 4.2576 88.8396)">
							<stop  offset="0.129" style="stop-color:#FFD168"/>
							<stop  offset="0.4523" style="stop-color:#EEB669"/>
							<stop  offset="0.6935" style="stop-color:#E4A769"/>
							<stop  offset="0.7495" style="stop-color:#DF9F69"/>
							<stop  offset="0.8226" style="stop-color:#DC9A69"/>
							<stop  offset="0.8432" style="stop-color:#D59266"/>
							<stop  offset="0.8878" style="stop-color:#CA8761"/>
							<stop  offset="0.9355" style="stop-color:#C7835F"/>
						</linearGradient>
						<path style="fill:url(#SVGID_28_);" d="M308.629,60.039c1.142,21.526-12.142,43.692-24.853,42.148
							c-10.178-1.237-25.053-25.169-26.195-46.695s7.193-29.506,22.06-31.258C294.509,22.482,307.487,38.513,308.629,60.039z"/>
						
							<linearGradient id="SVGID_29_" gradientUnits="userSpaceOnUse" x1="249.7757" y1="-16.0887" x2="324.2699" y2="-58.1327" gradientTransform="matrix(0.9808 -0.2069 0.1377 0.9905 25.7791 146.7269)">
							<stop  offset="0" style="stop-color:#CE684E"/>
							<stop  offset="0.125" style="stop-color:#C3614D"/>
							<stop  offset="0.4047" style="stop-color:#B0564B"/>
							<stop  offset="0.6929" style="stop-color:#A54F49"/>
							<stop  offset="1" style="stop-color:#A14D49"/>
						</linearGradient>
						<path style="fill:url(#SVGID_29_);" d="M314.907,46.099c-0.06-4.509-0.305-7.883-1.134-11.637
							c-1.848-8.37-3.043-12.834-6.482-17.512c-0.389-0.529-0.786-1.031-1.189-1.513c-7.577,8.613-18.001,14.923-26.321,22.822
							c5.36,0.094,10.623,1.709,14.754,6.143c2.765,2.969,4.436,6.743,5.824,9.847c0.818-1.358,1.921-2.236,3.136-2.313
							c2.498-0.159,4.51,3.108,4.493,7.298c-0.017,4.19-2.056,7.715-4.554,7.875c-0.102,0.007-0.2-0.01-0.3-0.015
							c1.6,4.675,2.156,6.75,3.771,11.305c0.776-0.997,4.644-7.325,5.9-11.363C314.312,62.192,315.095,60.058,314.907,46.099z"/>
					</g>
					<path style="fill:#823C3C;" d="M289.774,10.673c-6.47,1.087-13.751,3.871-19.04,7.776c-3.484,2.572-7.122,7.367-11.687,8.09
						c-3.528,0.559-8.676-0.464-6.914-4.882c-8.173,5.105-6.959,19.531-1.014,26.097c4.38,4.838,11.802,4.052,17.624,3.461
						c5.132-0.52,9.168-2.055,13.707-4.599c5.633-3.157,9.787-6.589,14.701-10.772c3.362-2.862,7.275-5.181,11-7.53
						c1.712-1.079,4.29-1.484,3.886-3.459C309.136,10.649,293.675,10.018,289.774,10.673z"/>
					<linearGradient id="SVGID_30_" gradientUnits="userSpaceOnUse" x1="246.3308" y1="38.3307" x2="304.4236" y2="38.3307">
						<stop  offset="0" style="stop-color:#CE684E"/>
						<stop  offset="0.125" style="stop-color:#C3614D"/>
						<stop  offset="0.4047" style="stop-color:#B0564B"/>
						<stop  offset="0.6929" style="stop-color:#A54F49"/>
						<stop  offset="1" style="stop-color:#A14D49"/>
					</linearGradient>
					<path style="fill:url(#SVGID_30_);" d="M267.041,37.49c-9.08,3.027-17.309-3.274-18.282-12.487
						c-4.244,6.456-2.588,17.302,2.346,22.751c4.38,4.838,11.802,4.052,17.624,3.461c5.132-0.521,9.168-2.055,13.707-4.599
						c5.633-3.157,9.787-6.589,14.701-10.772c2.254-1.919,4.76-3.587,7.287-5.19C293.824,25.658,278.528,34.618,267.041,37.49z"/>
				</g>
				<linearGradient id="SVGID_31_" gradientUnits="userSpaceOnUse" x1="27.1179" y1="329.7216" x2="254.9648" y2="329.7216">
					<stop  offset="0" style="stop-color:#DFC2FD"/>
					<stop  offset="1" style="stop-color:#C492EB"/>
				</linearGradient>
				<polygon style="fill:url(#SVGID_31_);" points="254.965,387.886 254.965,391.574 27.118,271.206 27.118,267.869 				"/>
			</g>
			<g>
				<g>
					<g>
						<path style="fill:#AFACC6;" d="M273.697,299.798l-65.078,34.66c0,0-3.755,2.163-7.611,0.586
							c-3.856-1.577-94.92-49.747-94.92-49.747s-5.337-2.673,2.174-6.999c7.511-4.326,62.936-34.031,62.936-34.031
							s1.607-0.866,4.765-0.474c2.245,0.278,5.274,1.192,9.066,3.505c9.127,5.565,88.645,45.322,88.645,45.322
							s2.12,1.157,2.779,2.801C276.96,296.692,276.595,298.254,273.697,299.798z"/>
						<linearGradient id="SVGID_32_" gradientUnits="userSpaceOnUse" x1="-158.6441" y1="287.7018" x2="-158.1441" y2="287.7018">
							<stop  offset="0.1344" style="stop-color:#DEE0DB"/>
							<stop  offset="0.7688" style="stop-color:#DDDFE4"/>
						</linearGradient>
						<path style="fill:url(#SVGID_32_);" d="M273.697,297.844l-65.078,34.66c0,0-3.755,2.163-7.611,0.586
							c-3.856-1.577-94.92-49.747-94.92-49.747s-5.337-2.673,2.174-6.999c7.511-4.326,62.936-34.031,62.936-34.031
							s1.607-0.866,4.765-0.474c2.245,0.278,5.274,1.192,9.066,3.505c9.127,5.565,88.645,45.322,88.645,45.322s2.12,1.157,2.779,2.8
							C276.96,294.738,276.595,296.301,273.697,297.844z"/>
					</g>
					<g>
						<polygon style="fill:#A7B2BC;" points="160.624,258.93 121.011,281.833 201.15,323.393 243.862,301.489 						"/>
						<path style="fill:#C1CAD3;" d="M201.576,269.955c0,0,14.431,7.634,15.042,7.884c0.611,0.25,1.206-0.093,1.206-0.093
							l10.313-5.493c0.459-0.245,0.517-0.492,0.437-0.694c-0.104-0.261-0.44-0.444-0.44-0.444s-12.602-6.301-14.048-7.182
							c-0.601-0.367-1.081-0.511-1.437-0.555c-0.5-0.062-0.755,0.075-0.755,0.075s-8.783,4.707-9.974,5.393
							C200.73,269.531,201.576,269.955,201.576,269.955z"/>
					</g>
				</g>
				<g>
					
						<linearGradient id="SVGID_33_" gradientUnits="userSpaceOnUse" x1="316.2128" y1="192.0749" x2="277.9006" y2="180.4369" gradientTransform="matrix(0.9963 -0.0856 0.0856 0.9963 6.2872 42.9417)">
						<stop  offset="0.0376" style="stop-color:#BFAADF"/>
						<stop  offset="0.6667" style="stop-color:#F1F1F7"/>
						<stop  offset="1" style="stop-color:#FFFFFF"/>
					</linearGradient>
					<path style="fill:url(#SVGID_33_);" d="M333.878,120.23c-2.547,0.967-5.23,3.822-7.335,9.898
						c-1.049,3.2-6.601,23.934-12.583,43.283c-5.127,16.579-10.57,32.141-13.767,34.782c-0.634,0.524-11.557,11.524-23.655,23.743
						c-15.58,15.736-33.107,32.836-33.107,32.836l0.465,11.078c0,0,37.513-22.648,60.975-38.423
						c9.192-6.181,16.228-11.306,18.005-13.602c4.828-6.235,8.865-13.822,11.605-19.725c2.994-6.45,5.453-12.401,7.469-17.86
						c10.899-29.517,8.471-44.558,8.203-46.443c-0.806-5.684-1.239-10.787-5.361-17.896
						C342.65,118.208,337.057,119.023,333.878,120.23z"/>
					
						<linearGradient id="SVGID_34_" gradientUnits="userSpaceOnUse" x1="174.5747" y1="133.3727" x2="222.9167" y2="133.3727" gradientTransform="matrix(0.9448 -0.3349 0.2676 0.9635 0.545 219.4496)">
						<stop  offset="0.129" style="stop-color:#FFD168"/>
						<stop  offset="0.415" style="stop-color:#F0B969"/>
						<stop  offset="0.6183" style="stop-color:#E9AE69"/>
						<stop  offset="0.6741" style="stop-color:#E5A869"/>
						<stop  offset="0.8318" style="stop-color:#DD9D69"/>
						<stop  offset="1" style="stop-color:#DB9969"/>
					</linearGradient>
					<path style="fill:url(#SVGID_34_);" d="M230.851,266.76c0,0-4.88,1.525-9.883,3.63c-4.14,1.742-9.934,4.15-11.546,6.151
						c-1.006,1.249-3.309,3.848-5.274,6.26c-1.964,2.412-3.59,4.638-3.243,5.141c0.657,0.951,1.632,0.999,2.709,0.547
						c1.794-0.752,3.866-2.889,5.204-4.536c2.141-2.635,2.141-2.635,2.141-2.635s-3.89,4.259-6.396,8.014
						c-0.47,0.704-0.891,1.391-1.229,2.028c-0.479,0.905-0.79,1.71-0.833,2.327c-0.125,1.787,1.185,1.904,2.647,1.152
						c1.293-0.665,2.754-2.117,2.754-2.117s-2.943,3.286-1.815,4.872c0.625,0.878,2.18,0.089,3.674-1.017
						c1.745-1.291,3.407-3.013,3.407-3.013s-2.066,3.061,0.753,3.591c0.44,0.083,1.399-0.528,2.597-1.498
						c0.641-0.519,1.351-1.141,2.087-1.815c3.51-3.216,7.602-7.61,7.602-7.61s12.872-5.364,17.69-10.424
						c4.818-5.061-0.465-11.036-0.465-11.036L230.851,266.76z"/>
				</g>
				
					<linearGradient id="SVGID_35_" gradientUnits="userSpaceOnUse" x1="177.2219" y1="210.4928" x2="214.7567" y2="210.4928" gradientTransform="matrix(1 -0.0699 0 1 0 49.6549)">
					<stop  offset="0.129" style="stop-color:#FFD168"/>
					<stop  offset="0.2053" style="stop-color:#FACA68"/>
					<stop  offset="0.5153" style="stop-color:#EAB169"/>
					<stop  offset="0.7043" style="stop-color:#E4A869"/>
					<stop  offset="0.8472" style="stop-color:#DD9D69"/>
					<stop  offset="1" style="stop-color:#DB9969"/>
				</linearGradient>
				<path style="fill:url(#SVGID_35_);" d="M214.471,230.013c-0.482-1.537-1.573-2.787-2.799-3.761
					c-0.183-0.145-1.637-1.376-1.908-1.224c-0.004,0.002-11.561,6.456-11.561,6.456s-4.224,3.179-8.365,6.923
					c-3.427,3.098-6.798,6.582-7.674,8.971c-1.094,2.983-2.889,6.583-4.292,9.287c-1.078,2.079-0.732,2.728,0.441,2.99
					c1.262,0.282,3.226-1.445,4.396-4.598c0.117-0.314,0.219-0.589,0.313-0.844c-0.031,0.145-0.057,0.296-0.082,0.452
					c-0.307,0.668-0.544,1.175-0.634,1.35c-0.403,0.788-0.598,4.579-0.467,6.203c0.131,1.624,0.718,4.334,2.07,3.447
					c0.567-0.372,0.867-1.207,1.026-2.049c0.235,1.038,1.027,3.888,2.652,3.882c2.351-0.009,2.351-6.565,2.351-6.565
					s2.743,6.873,5.079,4.906c1.353-1.14,0.42-2.732,0.016-4.544c-0.496-2.226-1.438-2.423-0.784-4.697
					c0.414-1.439,5.619-7.086,7.216-7.59c0,0-0.424,5.401,0.36,8.743c0.257,1.096,0.406,1.885,2.148,1.46
					c2.123-0.517,1.827-2.959,1.915-4.066c0.181-2.276,0.326-3.582,0.543-5.837c0.24-2.491,1.302-5.11,2.976-7.045
					C212.133,239.109,215.815,234.298,214.471,230.013z"/>
				<defs>
					
						<filter id="Adobe_OpacityMaskFilter_2_" filterUnits="userSpaceOnUse" x="101.115" y="203.439" width="144.722" height="124.311">
						<feFlood  style="flood-color:white;flood-opacity:1" result="back"/>
						<feBlend  in="SourceGraphic" in2="back" mode="normal"/>
					</filter>
				</defs>
				<mask maskUnits="userSpaceOnUse" x="101.115" y="203.439" width="144.722" height="124.311" id="SVGID_36_">
					<g style="filter:url(#Adobe_OpacityMaskFilter_2_);">
						<defs>
							
								<filter id="Adobe_OpacityMaskFilter_3_" filterUnits="userSpaceOnUse" x="104.249" y="34.462" width="192.929" height="293.289">
								<feFlood  style="flood-color:white;flood-opacity:1" result="back"/>
								<feBlend  in="SourceGraphic" in2="back" mode="normal"/>
							</filter>
						</defs>
						<mask maskUnits="userSpaceOnUse" x="104.249" y="34.462" width="192.929" height="293.289" id="SVGID_36_">
							<g style="filter:url(#Adobe_OpacityMaskFilter_3_);">
							</g>
						</mask>
						<radialGradient id="SVGID_37_" cx="128.0885" cy="232.0304" r="123.256" gradientUnits="userSpaceOnUse">
							<stop  offset="0.0054" style="stop-color:#666666"/>
							<stop  offset="0.9946" style="stop-color:#000000"/>
						</radialGradient>
						<path style="mask:url(#SVGID_36_);fill:url(#SVGID_37_);" d="M104.249,235.278L258.683,34.462c0,0,40.755,9.78,38.396,120.073
							c-1.411,65.942-40.618,142.972-40.618,142.972l-52.963,30.244L104.249,235.278z"/>
					</g>
				</mask>
				<radialGradient id="SVGID_38_" cx="155.7949" cy="275.1792" r="84.1744" gradientUnits="userSpaceOnUse">
					<stop  offset="0.2097" style="stop-color:#FFFFFF"/>
					<stop  offset="0.9946" style="stop-color:#FFFFFF"/>
				</radialGradient>
				<polygon style="fill:url(#SVGID_38_);" points="101.115,229.482 149.366,203.439 245.838,254.162 228.137,272.253 
					203.499,327.75 				"/>
				<g>
					<path style="fill:#AFACC6;" d="M93.53,203.447l8.365,73.257c0,0,0.348,4.32,3.834,6.601c3.486,2.281,94.808,49.96,94.808,49.96
						s5.228,2.879,4.531-5.76c-0.697-8.639-7.668-71.135-7.668-71.135s-0.198-1.815-2.312-4.193
						c-1.503-1.691-3.973-3.667-8.029-5.479c-9.76-4.36-87.605-47.301-87.605-47.301s-2.155-1.09-3.882-0.7
						C94.237,198.997,93.158,200.184,93.53,203.447z"/>
					<linearGradient id="SVGID_39_" gradientUnits="userSpaceOnUse" x1="96.6886" y1="206.5972" x2="205.063" y2="334.676">
						<stop  offset="0.043" style="stop-color:#FFFFFF"/>
						<stop  offset="0.4086" style="stop-color:#EAECEE"/>
						<stop  offset="0.9892" style="stop-color:#B3B5D3"/>
					</linearGradient>
					<path style="fill:url(#SVGID_39_);" d="M91.96,203.694l8.365,73.257c0,0,0.348,4.32,3.834,6.601
						c3.486,2.281,94.808,49.96,94.808,49.96s5.228,2.879,4.531-5.76c-0.697-8.639-7.668-71.135-7.668-71.135
						s-0.198-1.814-2.312-4.193c-1.503-1.691-3.973-3.667-8.029-5.479c-9.76-4.36-87.605-47.301-87.605-47.301
						s-2.155-1.09-3.882-0.7C92.667,199.244,91.587,200.431,91.96,203.694z"/>
					
						<ellipse transform="matrix(0.9922 -0.1248 0.1248 0.9922 -29.9533 20.133)" style="fill:#FFFFFF;" cx="145.767" cy="249.215" rx="2.941" ry="5.587"/>
				</g>
			</g>
		</g>
		<g style="clip-path:url(#SVGID_2_);">
			<defs>
				<filter id="Adobe_OpacityMaskFilter_4_" filterUnits="userSpaceOnUse" x="293.692" y="488.664" width="93.507" height="45.882">
					<feFlood  style="flood-color:white;flood-opacity:1" result="back"/>
					<feBlend  in="SourceGraphic" in2="back" mode="normal"/>
				</filter>
			</defs>
			<mask maskUnits="userSpaceOnUse" x="293.692" y="488.664" width="93.507" height="45.882" id="SVGID_40_">
				<g style="filter:url(#Adobe_OpacityMaskFilter_4_);">
					<defs>
						
							<filter id="Adobe_OpacityMaskFilter_5_" filterUnits="userSpaceOnUse" x="293.692" y="488.664" width="93.507" height="45.882">
							<feFlood  style="flood-color:white;flood-opacity:1" result="back"/>
							<feBlend  in="SourceGraphic" in2="back" mode="normal"/>
						</filter>
					</defs>
					<mask maskUnits="userSpaceOnUse" x="293.692" y="488.664" width="93.507" height="45.882" id="SVGID_40_">
						<g style="filter:url(#Adobe_OpacityMaskFilter_5_);">
						</g>
					</mask>
					
						<linearGradient id="SVGID_41_" gradientUnits="userSpaceOnUse" x1="189.3438" y1="363.7084" x2="284.0389" y2="363.7084" gradientTransform="matrix(0.9977 -0.0673 0.0673 0.9977 79.1541 164.6764)">
						<stop  offset="0.0376" style="stop-color:#FFFFFF"/>
						<stop  offset="0.2151" style="stop-color:#FFFFFF"/>
						<stop  offset="0.6129" style="stop-color:#E6E6E6"/>
					</linearGradient>
					<path style="mask:url(#SVGID_40_);fill:url(#SVGID_41_);" d="M377.151,488.664l-46.942,31.35l-29.675,6.932
						c0,0-7.274-2.162-6.822,5.235c0.167,2.728,9.372,2.346,9.372,2.346l43.194-3.267l40.92-20.139L377.151,488.664z"/>
				</g>
			</mask>
			
				<linearGradient id="SVGID_42_" gradientUnits="userSpaceOnUse" x1="189.3438" y1="363.7084" x2="284.0389" y2="363.7084" gradientTransform="matrix(0.9977 -0.0673 0.0673 0.9977 79.1541 164.6764)">
				<stop  offset="0.0376" style="stop-color:#DC7242"/>
				<stop  offset="0.2151" style="stop-color:#DC7242"/>
				<stop  offset="0.6129" style="stop-color:#E2A248"/>
			</linearGradient>
			<path style="fill:url(#SVGID_42_);" d="M377.151,488.664l-46.942,31.35l-29.675,6.932c0,0-7.274-2.162-6.822,5.235
				c0.167,2.728,9.372,2.346,9.372,2.346l43.194-3.267l40.92-20.139L377.151,488.664z"/>
			<path style="fill:#BA662D;" d="M451.453,440.401c0,0,13.541-3.725,15.515-17.795c1.974-14.069-10.684-19.359-10.684-19.359
				s11.89,0.7,15.016,15.76c3.127,15.06-6.137,22.917-11.488,25.641C454.461,447.373,451.453,440.401,451.453,440.401z"/>
			
				<linearGradient id="SVGID_43_" gradientUnits="userSpaceOnUse" x1="301.8723" y1="504.1809" x2="421.4106" y2="504.1809" gradientTransform="matrix(-0.9822 0.1877 0.1877 0.9822 673.4255 -75.8235)">
				<stop  offset="0" style="stop-color:#FFBD67"/>
				<stop  offset="1" style="stop-color:#DC7242"/>
			</linearGradient>
			<path style="fill:url(#SVGID_43_);" d="M407.757,525.36l19.771-14.87l10.276-6.455l28.379-20.412l1.54-27.663
				c0,0-1.563-8.209-7.361-13.78c-8.808-8.463-28.067-1.978-38.091,6.324c-10.024,8.303-25.876,17.246-25.876,17.246
				s-22.999-0.016-26.488,2.537c-21.236,15.54-15.112,33.061-15.112,33.061s9.511,33.935,24.043,34.363
				S407.757,525.36,407.757,525.36z"/>
			
				<linearGradient id="SVGID_44_" gradientUnits="userSpaceOnUse" x1="337.8644" y1="384.3774" x2="431.4903" y2="384.3774" gradientTransform="matrix(0.9897 -0.1433 0.1433 0.9897 -81.4476 208.5538)">
				<stop  offset="0.0376" style="stop-color:#DC7242"/>
				<stop  offset="0.2151" style="stop-color:#DC7242"/>
				<stop  offset="1" style="stop-color:#DF954F"/>
			</linearGradient>
			<path style="fill:url(#SVGID_44_);" d="M398.581,512.648l-53.308,24.248l-29.119,9.496c0,0-7.396-1.523-6.45,5.815
				c0.349,2.706,9.5,1.524,9.5,1.524l42.841-7.019c0,0,33.036-9.103,35.991-21.357C399.5,519.287,398.581,512.648,398.581,512.648z"
				/>
			<path style="fill:#822810;" d="M375.626,428.424v-8.537l-7.042-3.653c0,0-5.342,0.861-12.303,9.896
				c-6.961,9.035-5.3,10.031-0.982,13.685c4.318,3.653,13.617-11.791,13.617-11.791L375.626,428.424z"/>
			<g>
				<g>
					<g>
						
							<linearGradient id="SVGID_45_" gradientUnits="userSpaceOnUse" x1="-1141.8038" y1="1819.7048" x2="-1120.6201" y2="1764.1744" gradientTransform="matrix(0.3606 0.9327 -0.9327 0.3606 2446.4075 874.2058)">
							<stop  offset="0" style="stop-color:#FFBD67"/>
							<stop  offset="1" style="stop-color:#DC7242"/>
						</linearGradient>
						<path style="fill:url(#SVGID_45_);" d="M392.681,517.235l3.012-30.095c0,0-7.106-40.035-9.698-50.489
							c0,0-12.459-11.146-16.942-11.508c-4.483-0.362-10.84,2.107-10.84,2.107l-23.888-13.858c0,0,0.241,11.054,2.65,21.687
							c2.409,10.633,9.702,6.748,13.343,18.375c3.217,10.275,3.436,17.295,4.321,32.235
							C367.007,491.601,392.681,517.235,392.681,517.235z"/>
						<path style="fill:#844B00;" d="M334.325,413.393l7.425,4.307l-6.692,5.658c0,0-0.724-2.152-1.177-4.473
							C333.428,416.564,333.245,414.072,334.325,413.393z"/>
						<path style="fill:#844B00;" d="M368.253,438.138c0.171,1.397,1.192,2.358,2.281,2.146s1.834-1.516,1.663-2.913
							c-0.171-1.397-1.192-2.358-2.281-2.146C368.827,435.437,368.082,436.742,368.253,438.138z"/>
						
							<linearGradient id="SVGID_46_" gradientUnits="userSpaceOnUse" x1="-1123.0133" y1="1806.837" x2="-1074.5679" y2="1806.837" gradientTransform="matrix(0.3606 0.9327 -0.9327 0.3606 2446.4075 874.2058)">
							<stop  offset="0" style="stop-color:#FFBD67"/>
							<stop  offset="0.9677" style="stop-color:#FCB764"/>
						</linearGradient>
						<polygon style="fill:url(#SVGID_46_);" points="375.51,521.484 377.015,494.884 354.25,479.075 349.166,497.333 
							362.75,527.728 						"/>
					</g>
				</g>
				
					<linearGradient id="SVGID_47_" gradientUnits="userSpaceOnUse" x1="367.6399" y1="465.7279" x2="404.5288" y2="465.7279" gradientTransform="matrix(1 -0.0091 0.0091 1 -18.3965 6.9999)">
					<stop  offset="0.0753" style="stop-color:#70A6F9"/>
					<stop  offset="0.9731" style="stop-color:#0D70F3"/>
				</linearGradient>
				<path style="fill:url(#SVGID_47_);" d="M353.478,468.987c0,0,3.008,7.979,18.717,5.556
					c13.524-2.086,18.071-16.988,18.071-16.988s-1.922,18.177-16.159,22.108c-14.234,3.929-20.118-4.003-20.118-4.003
					L353.478,468.987z"/>
			</g>
			
				<linearGradient id="SVGID_48_" gradientUnits="userSpaceOnUse" x1="812.8546" y1="484.4246" x2="838.9772" y2="484.4246" gradientTransform="matrix(0.977 -0.2135 0.2135 0.977 -461.4345 187.3008)">
				<stop  offset="0.0376" style="stop-color:#DC7242"/>
				<stop  offset="0.3065" style="stop-color:#DE8F4D"/>
				<stop  offset="1" style="stop-color:#DF954F"/>
			</linearGradient>
			<path style="fill:url(#SVGID_48_);" d="M455.281,473.72c1.665,0.08,3.429,0.821,5.143,2.036c-2.8-3.531-6.201-5.88-9.266-6.027
				c-6.927-0.331-12.945,8.409-13.441,19.521c-0.187,4.186,0.438,8.111,1.658,11.396
				C438.496,483.532,448.354,473.389,455.281,473.72z"/>
			<path style="fill:#BA662D;" d="M379.769,431.471h7.092l5.562,4.646l-3.774,25.251c0,0-9.937,1.672-8.88-7.854
				c1.056-9.527,3.053-16.154,3.053-16.154L379.769,431.471z"/>
		</g>
		<g style="clip-path:url(#SVGID_2_);">
			<g>
				<linearGradient id="SVGID_49_" gradientUnits="userSpaceOnUse" x1="235.1963" y1="350.5749" x2="340.8424" y2="350.5749">
					<stop  offset="0" style="stop-color:#C9CCD3"/>
					<stop  offset="0.7799" style="stop-color:#FFFFFF"/>
				</linearGradient>
				<polygon style="fill:url(#SVGID_49_);" points="235.196,352.297 236.847,359.321 309.864,358.155 340.842,341.829 
					248.907,347.706 				"/>
			</g>
			<g>
				<linearGradient id="SVGID_50_" gradientUnits="userSpaceOnUse" x1="245.8376" y1="335.4219" x2="256.8824" y2="335.4219">
					<stop  offset="0.1075" style="stop-color:#E14F65"/>
					<stop  offset="1" style="stop-color:#E15066"/>
				</linearGradient>
				<path style="fill:url(#SVGID_50_);" d="M248.217,346.901c-1.46,0-2.248-0.799-2.379-0.944l1.906-2.15
					c-0.05-0.04,0.124,0.071,0.447,0.072c0.43,0,1.179-0.163,2.309-0.967c2.564-1.826,4.742-10.087,3.157-14.261
					c-0.332-0.874-0.767-1.393-1.33-1.586c-1.093-0.378-2.597,0.448-3.081,0.798l-1.485-2.53c0.283-0.208,2.836-2.013,5.342-1.167
					c0.938,0.316,2.228,1.147,3.046,3.303c2.121,5.592-0.69,15.499-4.196,17.995C250.416,346.559,249.172,346.901,248.217,346.901z"
					/>
			</g>
			<linearGradient id="SVGID_51_" gradientUnits="userSpaceOnUse" x1="222.5863" y1="338.3512" x2="251.1084" y2="338.3512">
				<stop  offset="0.1075" style="stop-color:#E14F65"/>
				<stop  offset="0.2849" style="stop-color:#E45875"/>
				<stop  offset="0.5" style="stop-color:#F86C8E"/>
				<stop  offset="1" style="stop-color:#E15066"/>
			</linearGradient>
			<path style="fill:url(#SVGID_51_);" d="M222.586,317.381l3.598,36.549c0,2.977,4.774,5.39,10.663,5.39
				c5.889,0,10.663-2.413,10.663-5.39l3.598-36.549H222.586z"/>
			<linearGradient id="SVGID_52_" gradientUnits="userSpaceOnUse" x1="222.5863" y1="317.3814" x2="251.1084" y2="317.3814">
				<stop  offset="0" style="stop-color:#F86C8E"/>
				<stop  offset="0.3441" style="stop-color:#F589AB"/>
				<stop  offset="0.5968" style="stop-color:#F48DB0"/>
				<stop  offset="1" style="stop-color:#EC7491"/>
			</linearGradient>
			<ellipse style="fill:url(#SVGID_52_);" cx="236.847" cy="317.381" rx="14.261" ry="7.461"/>
			<path style="fill:#A55E83;" d="M225.189,321.916c2.607,1.776,6.695,2.926,11.307,2.926c5.05,0,9.477-1.377,12.011-3.449
				c-1.762-2.343-6.234-4.012-11.487-4.012C231.382,317.381,226.642,319.301,225.189,321.916z"/>
		</g>
		<g style="clip-path:url(#SVGID_2_);">
			<linearGradient id="SVGID_53_" gradientUnits="userSpaceOnUse" x1="285.1665" y1="324.9698" x2="392.7466" y2="324.9698">
				<stop  offset="0.0753" style="stop-color:#70A6F9"/>
				<stop  offset="0.9731" style="stop-color:#0D70F3"/>
			</linearGradient>
			<polygon style="fill:url(#SVGID_53_);" points="261.724,328.745 308.952,303.873 316.711,307.839 342.05,321.194 
				294.822,346.067 287.063,342.1 			"/>
			<linearGradient id="SVGID_54_" gradientUnits="userSpaceOnUse" x1="294.8221" y1="338.2462" x2="343.4742" y2="338.2462">
				<stop  offset="0.3065" style="stop-color:#3887F6"/>
				<stop  offset="1" style="stop-color:#0D70F3"/>
			</linearGradient>
			<path style="fill:url(#SVGID_54_);" d="M342.05,330.426c0,0,1.424-2.14,1.424-4.751c0-2.611-1.424-4.481-1.424-4.481
				l-47.228,24.872c0,0,1.832,1.887,1.658,4.672s-1.658,4.559-1.658,4.559L342.05,330.426z"/>
			<linearGradient id="SVGID_55_" gradientUnits="userSpaceOnUse" x1="261.724" y1="342.0217" x2="296.4934" y2="342.0217">
				<stop  offset="0.3065" style="stop-color:#3887F6"/>
				<stop  offset="1" style="stop-color:#0D70F3"/>
			</linearGradient>
			<path style="fill:url(#SVGID_55_);" d="M261.724,328.745v9.231l33.098,17.321c0,0,1.793-1.506,1.665-5.124
				c-0.108-3.038-1.665-4.107-1.665-4.107L261.724,328.745z"/>
			<path style="fill:#FFFFFF;" d="M261.724,329.785v7.356l32.445,16.929c0,0,1.416-1.189,1.315-4.047
				c-0.085-2.399-1.315-3.244-1.315-3.244L261.724,329.785z"/>
		</g>
	</g>
</g>
</svg>
