<?xml version="1.0" encoding="iso-8859-1"?>
<!-- Generator: Adobe Illustrator 21.0.2, SVG Export Plug-In . SVG Version: 6.00 Build 0)  -->
<svg version="1.1" id="&#x421;&#x43B;&#x43E;&#x439;_1"
	 xmlns="http://www.w3.org/2000/svg" xmlns:xlink="http://www.w3.org/1999/xlink" x="0px" y="0px" viewBox="0 0 154 160"
	 style="enable-background:new 0 0 154 160;" xml:space="preserve">
<g>
	<g>
		<path style="fill:#C9CFD3;" d="M147.562,107.629L92.329,77.883c-0.43-0.232,0.709-74.139,0.709-74.139
			c0-3.122-1.842-4.579-4.115-3.253l-16.28,9.492c-0.22,0.078-0.442,0.165-0.673,0.299L9.404,46.763
			c-2.273,1.325-4.115,4.93-4.115,8.052v67.446c0,1.955,0.704,4.545,3.875,6.933l55.233,29.747c2.557,1.377,6.377,1.417,8.533,0.089
			l59.353-36.556c0.219-0.135,0.394-0.284,0.563-0.435l15.443-9.512C150.443,111.199,150.119,109.006,147.562,107.629z"/>
		<polygon style="fill:#EDF1FC;" points="11.515,57.528 87.996,13.582 88.053,76.124 11.515,120.836 		"/>
		<path style="fill:#B5BCD6;" d="M87.741,130.456l3.123-1.961c0.034-0.031,0.069-0.062,0.113-0.09l12.001-7.537
			c0.436-0.274,1.228-0.266,1.769,0.017l11.693,6.119c0.541,0.283,0.627,0.735,0.191,1.009l-3.123,1.961
			c-0.034,0.031-0.069,0.062-0.113,0.09l-12.001,7.537c-0.436,0.274-1.228,0.266-1.769-0.017l-11.693-6.119
			C87.391,131.182,87.305,130.73,87.741,130.456z"/>
		<path style="fill:#B5BCD6;" d="M123.148,103.033L99.652,91.186c-1.088-0.548-2.679-0.563-3.555-0.033L31.57,129.947
			c-0.876,0.53-0.704,1.404,0.383,1.953l23.496,11.847c1.088,0.548,2.679,0.563,3.555,0.033c0,0,45.025-27.01,45.092-27.07
			l12.933-7.754c0.089-0.054,6.502-3.97,6.502-3.97C124.407,104.456,124.235,103.582,123.148,103.033z"/>
	</g>
	<g>
		<polygon style="fill:#CCD7ED;" points="97.4,14.657 23.955,58.565 23.807,123.993 25.101,124.677 98.769,80.539 98.769,15.381 		
			"/>
		<polygon style="fill:#FFFFFF;" points="25.101,59.519 25.101,79.99 25.101,104.206 25.101,124.677 98.769,80.539 98.769,60.068 
			98.769,35.852 98.769,15.381 		"/>
		<polygon style="fill:#663EFF;" points="34.346,67.622 89.524,34.562 89.524,28.275 34.346,61.335 		"/>
		<path style="fill:#CCD7ED;" d="M69.603,76.628L34.38,97.732v2.247L69.578,78.89C69.594,78.136,69.602,77.382,69.603,76.628z"/>
		<path style="fill:#CCD7ED;" d="M69.507,81.77l-13.025,7.804v2.247l12.979-7.776C69.472,83.287,69.488,82.529,69.507,81.77z"/>
		<polygon style="fill:#CCD7ED;" points="34.38,110.407 64.445,92.394 64.445,90.147 34.38,108.16 		"/>
		<polygon style="fill:#CCD7ED;" points="34.38,105.063 50.987,95.113 50.987,92.866 34.38,102.816 		"/>
		<polygon style="fill:#CCD7ED;" points="75.184,90.48 89.524,81.77 89.49,64.713 75.184,73.284 		"/>
		<polygon style="fill:#AC55FF;" points="89.524,39.368 34.38,71.579 34.346,89.188 34.346,95.475 89.524,62.415 		"/>
		<g>
			<polygon style="fill:#FFFFFF;" points="44.846,77.489 54.182,66.75 54.244,69.047 47.174,76.963 47.175,77.006 54.431,75.981 
				54.494,78.278 44.897,79.353 			"/>
			<polygon style="fill:#FFFFFF;" points="62.982,57.912 59.195,76.25 57.208,77.49 60.994,59.152 			"/>
			<polygon style="fill:#FFFFFF;" points="78.371,57.539 78.37,57.496 70.956,58.619 70.894,56.322 80.489,55.183 80.543,57.176 
				71.206,67.85 71.144,65.553 			"/>
		</g>
	</g>
	<g>
		<g>
			<g>
				<polygon style="fill:#F2F4F7;" points="101.65,73.916 109.083,78.313 116.516,73.916 109.083,69.523 				"/>
				<polygon style="fill:#AC54FF;" points="101.65,73.916 101.65,108.41 109.083,112.807 116.516,108.41 116.516,73.916 				"/>
				<linearGradient id="SVGID_1_" gradientUnits="userSpaceOnUse" x1="101.6497" y1="73.9178" x2="116.5159" y2="73.9178">
					<stop  offset="0" style="stop-color:#B479E3"/>
					<stop  offset="0.4258" style="stop-color:#BC86E7"/>
					<stop  offset="1" style="stop-color:#D5ADF3"/>
				</linearGradient>
				<polygon style="fill:url(#SVGID_1_);" points="101.65,73.916 109.083,78.313 116.516,73.916 109.083,69.523 				"/>
				<polygon style="fill:#7634DA;" points="109.083,112.807 109.083,78.313 116.516,73.916 116.516,108.41 				"/>
				<polygon style="fill:#AC54FF;" points="119.504,66.268 119.504,84.278 119.504,100.763 119.504,118.772 126.937,123.169 
					134.37,118.772 134.37,100.763 134.37,84.278 134.37,66.268 				"/>
				<polygon style="fill:#F2F4F7;" points="119.504,66.268 126.937,70.665 134.37,66.268 126.937,61.876 				"/>
				<polygon style="fill:#7634DA;" points="126.937,70.665 126.937,88.675 126.937,105.16 126.937,123.169 134.37,118.772 
					134.37,100.763 134.37,84.278 134.37,66.268 				"/>
				<linearGradient id="SVGID_2_" gradientUnits="userSpaceOnUse" x1="119.5043" y1="66.2705" x2="134.3705" y2="66.2705">
					<stop  offset="0" style="stop-color:#B479E3"/>
					<stop  offset="0.4258" style="stop-color:#BC86E7"/>
					<stop  offset="1" style="stop-color:#D5ADF3"/>
				</linearGradient>
				<polygon style="fill:url(#SVGID_2_);" points="119.504,66.268 126.937,70.665 134.37,66.268 126.937,61.876 				"/>
				<polygon style="fill:#F2F4F7;" points="83.795,81.567 91.228,85.964 98.661,81.567 91.228,77.175 				"/>
				<polygon style="fill:#AC54FF;" points="83.795,81.567 83.795,97.54 91.228,101.937 98.661,97.217 98.661,81.567 				"/>
				<linearGradient id="SVGID_3_" gradientUnits="userSpaceOnUse" x1="83.7952" y1="81.5694" x2="98.6613" y2="81.5694">
					<stop  offset="0" style="stop-color:#B479E3"/>
					<stop  offset="0.4258" style="stop-color:#BC86E7"/>
					<stop  offset="1" style="stop-color:#D5ADF3"/>
				</linearGradient>
				<polygon style="fill:url(#SVGID_3_);" points="83.795,81.567 91.228,85.964 98.661,81.567 91.228,77.175 				"/>
				<polygon style="fill:#7634DA;" points="91.228,101.937 91.228,85.964 98.661,81.567 98.613,97.437 				"/>
			</g>
			<g>
				<ellipse style="fill:#B5BCD6;" cx="70.547" cy="111.67" rx="14.059" ry="8.251"/>
				<g>
					<g>
						<path style="fill:#F2F4F7;" d="M59.032,115.794c-1.14-0.924-1.949-1.959-2.401-3.06c0.15,1.745,1.213,3.561,2.907,4.933
							c0.37,0.3,0.778,0.58,1.212,0.843c0-0.52,0-1.04,0-1.56C60.128,116.601,59.552,116.216,59.032,115.794z"/>
						<path style="fill:#FFFFFF;" d="M60.749,116.951c0,0.52,0,1.04,0,1.56c0.734,0.445,1.555,0.835,2.437,1.165
							c0-0.545,0-1.09,0-1.635C62.318,117.731,61.497,117.371,60.749,116.951z"/>
						<path style="fill:#F2F4F7;" d="M70.444,119.229c-2.621,0-5.103-0.421-7.257-1.188c0,0.545,0,1.09,0,1.635
							c2.139,0.8,4.652,1.247,7.256,1.247l0.001,0.203v-0.203c0.428,0,0.852-0.015,1.274-0.038c0-0.566,0-1.129,0-1.692
							C71.296,119.215,70.872,119.229,70.444,119.229z"/>
						<path style="fill:#FFFFFF;" d="M71.718,119.193c0,0.563,0,1.126,0,1.692c2.024-0.11,3.962-0.485,5.719-1.1
							c-0.009-0.547-0.017-1.093-0.023-1.638C75.651,118.732,73.723,119.087,71.718,119.193z"/>
						<path style="fill:#F2F4F7;" d="M78.99,117.545c-0.507,0.223-1.034,0.422-1.575,0.601c0.005,0.545,0.013,1.091,0.023,1.638
							c0.42-0.147,0.832-0.303,1.23-0.478c2.75-1.208,4.957-3.386,5.621-5.55c0.223-0.727,0.297-1.029,0.318-1.304
							C83.818,114.488,81.862,116.283,78.99,117.545z"/>
					</g>
				</g>
				<path style="fill:#EDF1FC;" d="M79.039,116.529c-6.343,2.745-15.224,1.986-19.835-1.695c-4.612-3.681-3.208-8.891,3.135-11.636
					s15.224-1.986,19.835,1.695C86.785,108.575,85.382,113.784,79.039,116.529z"/>
				<g>
					<path style="fill:#B5BCD6;" d="M62.634,113.136l1.836-0.795c-0.866-0.714-1.435-1.575-1.51-2.2l1.596-0.24
						c0.112,0.609,0.538,1.401,1.392,2.083c1.083,0.864,2.568,1.123,3.614,0.67c1.01-0.437,1.039-1.182,0.461-2.321
						c-0.821-1.56-0.919-2.7,0.678-3.391c1.524-0.66,3.581-0.442,5.244,0.547l1.836-0.795l0.961,0.767l-1.781,0.771
						c0.863,0.734,1.195,1.36,1.34,1.861l-1.593,0.22c-0.1-0.351-0.303-1.033-1.279-1.812c-1.174-0.937-2.461-0.925-3.214-0.599
						c-0.936,0.405-0.849,1.062-0.202,2.415c0.8,1.588,0.657,2.626-0.978,3.333c-1.469,0.636-3.666,0.554-5.531-0.573l-1.91,0.826
						L62.634,113.136z"/>
				</g>
			</g>
			<g>
				<g>
					<path style="fill:#B5BCD6;" d="M87.311,110.605l0.201,17.106c0,0,0.917,3.316,6.097,5.173c1.973,0.708,4.566,1.203,7.962,1.223
						c3.838,0.022,6.651-0.614,8.705-1.502c4.534-1.958,5.371-5.137,5.371-5.137l0.343-17.028c0,0-0.493-3.379-5.341-5.406
						c-2.078-0.869-4.956-1.49-8.939-1.49c-4.478,0-7.573,0.804-9.709,1.868C87.805,107.505,87.311,110.605,87.311,110.605z"/>
					<g>
						<path style="fill:#F2F4F7;" d="M89.927,124.753c-1.146-0.929-1.96-1.97-2.415-3.077c0.151,1.755,1.22,3.581,2.924,4.961
							c0.372,0.302,0.783,0.583,1.219,0.848c0-0.523,0-1.046,0-1.568C91.029,125.564,90.45,125.176,89.927,124.753z"/>
						<path style="fill:#F2F4F7;" d="M101.404,128.206c-2.636,0-5.132-0.424-7.298-1.195c0,0.548,0,1.096,0,1.644
							c2.151,0.805,4.679,1.254,7.297,1.254l0.001,0.204v-0.204c0.431,0,0.857-0.015,1.281-0.038c0-0.568,0-1.135,0-1.702
							C102.261,128.192,101.834,128.206,101.404,128.206z"/>
						<path style="fill:#FFFFFF;" d="M91.654,125.916c0,0.523,0,1.046,0,1.568c0.738,0.448,1.564,0.839,2.451,1.172
							c0-0.548,0-1.096,0-1.644C93.231,126.701,92.406,126.339,91.654,125.916z"/>
						<path style="fill:#FFFFFF;" d="M102.685,128.17c0,0.567,0,1.134,0,1.702c2.108-0.115,4.125-0.515,5.941-1.173
							c-0.015-0.547-0.031-1.093-0.046-1.639C106.762,127.682,104.765,128.06,102.685,128.17z"/>
						<path style="fill:#F2F4F7;" d="M109.998,126.514c-0.457,0.201-0.932,0.38-1.417,0.546c0.016,0.546,0.031,1.092,0.046,1.639
							c0.356-0.129,0.707-0.265,1.047-0.414c2.766-1.214,4.985-3.405,5.653-5.581c0.225-0.732,0.299-1.035,0.32-1.312
							C114.853,123.439,112.886,125.245,109.998,126.514z"/>
						<path style="fill:#F2F4F7;" d="M89.927,127.273c-1.146-0.929-1.96-1.97-2.415-3.077c0.151,1.755,1.22,3.581,2.924,4.961
							c0.372,0.302,0.783,0.583,1.219,0.848c0-0.523,0-1.046,0-1.569C91.029,128.085,90.45,127.697,89.927,127.273z"/>
						<path style="fill:#FFFFFF;" d="M91.654,128.437c0,0.523,0,1.046,0,1.569c0.738,0.448,1.563,0.839,2.451,1.172
							c0-0.548,0-1.096,0-1.644C93.231,129.221,92.406,128.859,91.654,128.437z"/>
						<path style="fill:#F2F4F7;" d="M101.404,130.727c-2.636,0-5.132-0.424-7.298-1.195c0,0.548,0,1.096,0,1.644
							c2.151,0.805,4.679,1.254,7.297,1.254l0.001,0.204v-0.204c0.431,0,0.857-0.015,1.281-0.038c0-0.567,0-1.134,0-1.702
							C102.261,130.713,101.834,130.727,101.404,130.727z"/>
						<path style="fill:#FFFFFF;" d="M102.685,130.691c0,0.568,0,1.135,0,1.702c2.133-0.116,4.173-0.523,6.006-1.196
							c-0.013-0.547-0.026-1.094-0.041-1.641C106.812,130.193,104.791,130.58,102.685,130.691z"/>
						<path style="fill:#F2F4F7;" d="M109.998,129.034c-0.435,0.191-0.888,0.362-1.348,0.522c0.015,0.547,0.028,1.094,0.041,1.641
							c0.334-0.123,0.663-0.251,0.983-0.391c2.766-1.214,4.985-3.405,5.653-5.581c0.225-0.732,0.299-1.035,0.32-1.312
							C114.853,125.96,112.886,127.765,109.998,129.034z"/>
						<path style="fill:#F2F4F7;" d="M101.404,125.686c-2.636,0-5.132-0.424-7.298-1.195c0,0.548,0,1.096,0,1.644
							c2.151,0.805,4.679,1.254,7.297,1.254h0.001c0.431,0,0.857-0.015,1.281-0.038c0-0.568,0-1.135,0-1.702
							C102.261,125.672,101.834,125.686,101.404,125.686z"/>
						<path style="fill:#FFFFFF;" d="M91.654,123.395c0,0.523,0,1.046,0,1.569c0.738,0.448,1.564,0.839,2.451,1.172
							c0-0.548,0-1.096,0-1.644C93.231,124.18,92.406,123.818,91.654,123.395z"/>
						<path style="fill:#F2F4F7;" d="M89.927,122.232c-1.146-0.929-1.96-1.97-2.415-3.077c0.151,1.755,1.22,3.581,2.924,4.961
							c0.372,0.302,0.783,0.583,1.219,0.848c0-0.523,0-1.046,0-1.569C91.029,123.043,90.45,122.655,89.927,122.232z"/>
						<path style="fill:#FFFFFF;" d="M102.685,125.649c0,0.567,0,1.134,0,1.702c2.082-0.113,4.073-0.505,5.871-1.148
							c-0.015-0.547-0.03-1.094-0.045-1.64C106.712,125.171,104.738,125.541,102.685,125.649z"/>
						<path style="fill:#F2F4F7;" d="M109.998,123.993c-0.479,0.21-0.977,0.398-1.486,0.57c0.014,0.546,0.029,1.093,0.045,1.64
							c0.38-0.136,0.755-0.28,1.117-0.438c2.766-1.214,4.985-3.405,5.653-5.581c0.225-0.732,0.299-1.035,0.32-1.311
							C114.853,120.918,112.886,122.724,109.998,123.993z"/>
						<path style="fill:#F2F4F7;" d="M89.927,117.19c-1.146-0.929-1.96-1.97-2.415-3.077c0.151,1.755,1.22,3.581,2.924,4.961
							c0.372,0.302,0.783,0.583,1.219,0.848c0-0.523,0-1.046,0-1.569C91.029,118.002,90.45,117.614,89.927,117.19z"/>
						<path style="fill:#FFFFFF;" d="M91.654,118.353c0,0.523,0,1.046,0,1.569c0.738,0.448,1.563,0.839,2.451,1.172
							c0-0.548,0-1.096,0-1.644C93.231,119.138,92.406,118.776,91.654,118.353z"/>
						<path style="fill:#F2F4F7;" d="M101.404,120.644c-2.636,0-5.132-0.424-7.298-1.195c0,0.548,0,1.096,0,1.644
							c2.151,0.805,4.679,1.254,7.297,1.254l0.001,0.204v-0.204c0.431,0,0.857-0.015,1.281-0.038c0-0.569,0-1.136,0-1.702
							C102.261,120.63,101.834,120.644,101.404,120.644z"/>
						<path style="fill:#FFFFFF;" d="M102.685,120.608c0,0.566,0,1.133,0,1.702c2.035-0.111,3.985-0.488,5.752-1.107
							c-0.009-0.55-0.017-1.099-0.023-1.647C106.64,120.144,104.701,120.501,102.685,120.608z"/>
						<path style="fill:#F2F4F7;" d="M109.998,118.951c-0.51,0.224-1.04,0.424-1.584,0.605c0.005,0.548,0.013,1.097,0.023,1.647
							c0.422-0.148,0.837-0.305,1.237-0.481c2.766-1.214,4.985-3.405,5.653-5.581c0.225-0.732,0.299-1.035,0.32-1.312
							C114.853,115.877,112.886,117.682,109.998,118.951z"/>
						<path style="fill:#F2F4F7;" d="M89.927,119.711c-1.146-0.929-1.96-1.97-2.415-3.077c0.151,1.755,1.22,3.581,2.923,4.961
							c0.372,0.302,0.783,0.583,1.219,0.848c0-0.523,0-1.046,0-1.569C91.029,120.522,90.45,120.134,89.927,119.711z"/>
						<path style="fill:#FFFFFF;" d="M91.654,120.874c0,0.523,0,1.046,0,1.569c0.738,0.448,1.564,0.839,2.451,1.172
							c0-0.548,0-1.096,0-1.644C93.231,121.659,92.406,121.297,91.654,120.874z"/>
						<path style="fill:#F2F4F7;" d="M101.404,123.165c-2.636,0-5.132-0.424-7.298-1.195c0,0.548,0,1.096,0,1.644
							c2.151,0.805,4.679,1.254,7.297,1.254l0.001,0.204v-0.204c0.431,0,0.857-0.015,1.281-0.038c0-0.569,0-1.135,0-1.702
							C102.261,123.151,101.834,123.165,101.404,123.165z"/>
						<path style="fill:#F2F4F7;" d="M109.998,121.472c-0.497,0.218-1.014,0.414-1.544,0.591c0.011,0.547,0.023,1.094,0.036,1.642
							c0.403-0.143,0.801-0.294,1.183-0.462c2.766-1.214,4.985-3.405,5.653-5.581c0.225-0.732,0.299-1.035,0.32-1.312
							C114.853,118.397,112.886,120.203,109.998,121.472z"/>
						<path style="fill:#FFFFFF;" d="M102.685,123.129c0,0.567,0,1.133,0,1.702c2.056-0.112,4.024-0.496,5.805-1.125
							c-0.013-0.548-0.025-1.096-0.036-1.642C106.669,122.659,104.716,123.022,102.685,123.129z"/>
						<path style="fill:#F2F4F7;" d="M89.927,129.794c-1.146-0.929-1.96-1.97-2.415-3.077c0.151,1.755,1.22,3.581,2.923,4.961
							c0.372,0.302,0.783,0.583,1.219,0.848c0-0.523,0-1.046,0-1.569C91.029,130.606,90.45,130.218,89.927,129.794z"/>
						<path style="fill:#FFFFFF;" d="M91.654,130.957c0,0.523,0,1.046,0,1.569c0.738,0.448,1.564,0.839,2.451,1.172
							c0-0.548,0-1.096,0-1.644C93.231,131.742,92.406,131.38,91.654,130.957z"/>
						<path style="fill:#F2F4F7;" d="M101.404,133.248c-2.636,0-5.132-0.424-7.298-1.195c0,0.548,0,1.096,0,1.644
							c2.151,0.805,4.679,1.254,7.297,1.254l0.001,0.204v-0.204c0.431,0,0.857-0.015,1.281-0.038c0-0.567,0-1.134,0-1.702
							C102.261,133.234,101.834,133.248,101.404,133.248z"/>
						<path style="fill:#F2F4F7;" d="M109.998,131.555c-0.416,0.183-0.848,0.347-1.287,0.5c0.012,0.548,0.022,1.097,0.03,1.645
							c0.317-0.117,0.629-0.24,0.932-0.373c2.766-1.214,4.985-3.405,5.653-5.581c0.225-0.732,0.299-1.035,0.32-1.312
							C114.853,128.481,112.886,130.287,109.998,131.555z"/>
						<path style="fill:#FFFFFF;" d="M102.685,133.212c0,0.568,0,1.135,0,1.702c2.152-0.117,4.21-0.53,6.056-1.214
							c-0.009-0.548-0.018-1.096-0.03-1.645C106.858,132.705,104.815,133.1,102.685,133.212z"/>
					</g>
				</g>
				<path style="fill:#EDF1FC;" d="M110.047,117.929c-6.379,2.761-15.31,1.997-19.948-1.705c-4.638-3.702-3.226-8.941,3.153-11.702
					c6.379-2.761,15.31-1.997,19.948,1.705C117.838,109.929,116.426,115.169,110.047,117.929z"/>
				<g>
					<path style="fill:#B5BCD6;" d="M93.55,114.517l1.847-0.799c-0.871-0.718-1.443-1.584-1.519-2.213l1.605-0.241
						c0.113,0.612,0.541,1.409,1.4,2.095c1.089,0.869,2.582,1.129,3.635,0.674c1.015-0.439,1.045-1.189,0.464-2.334
						c-0.826-1.568-0.924-2.716,0.682-3.411c1.533-0.663,3.601-0.444,5.274,0.55l1.846-0.799l0.966,0.771l-1.791,0.775
						c0.868,0.738,1.201,1.368,1.348,1.871l-1.602,0.221c-0.101-0.353-0.305-1.039-1.286-1.823c-1.181-0.943-2.475-0.93-3.232-0.602
						c-0.942,0.408-0.854,1.068-0.203,2.429c0.804,1.597,0.66,2.641-0.983,3.352c-1.477,0.639-3.687,0.557-5.562-0.576l-1.92,0.831
						L93.55,114.517z"/>
				</g>
			</g>
		</g>
	</g>
	<ellipse style="fill:#B5BCD6;" cx="48.962" cy="30.875" rx="1.835" ry="2.748"/>
	<path style="fill:#B5BCD6;" d="M66.391,157.744l-55.233-29.747c-3.17-2.388-3.875-4.978-3.875-6.933V53.618
		c0-0.765,0.168-4.345,0.225-4.512c-0.911-0.329-2.22,3.167-2.22,5.832v67.446c0,1.955,0.704,4.545,3.875,6.933l55.233,29.747
		c0.781,0.421,2.674,0.935,4.456,0.937c2.833,0.003,4.077-0.971,5.074-1.585C70.532,159.47,67.081,158.116,66.391,157.744z"/>
</g>
</svg>
