<?xml version="1.0" encoding="iso-8859-1"?>
<!-- Generator: Adobe Illustrator 21.0.2, SVG Export Plug-In . SVG Version: 6.00 Build 0)  -->
<svg version="1.1" id="&#x421;&#x43B;&#x43E;&#x439;_1"
	 xmlns="http://www.w3.org/2000/svg" xmlns:xlink="http://www.w3.org/1999/xlink" x="0px" y="0px" viewBox="0 0 190 160"
	 style="enable-background:new 0 0 190 160;" xml:space="preserve">
<g>
	<g>
		<g>
			<path style="fill:#9DAAB2;" d="M24.127,142.017c-0.012,0-0.024,0-0.036-0.001c-1.154-0.062-1.774-0.1-1.774-0.1
				c-0.367-0.023-0.646-0.338-0.623-0.705c0.022-0.367,0.331-0.654,0.705-0.623c0.001,0,0.617,0.038,1.763,0.099
				c0.367,0.02,0.649,0.333,0.629,0.7C24.773,141.742,24.479,142.017,24.127,142.017z"/>
		</g>
		<g>
			<path style="fill:#9DAAB2;" d="M59.898,142.974h-0.002c-1.211-0.003-2.405-0.01-3.582-0.018c-0.368-0.003-0.663-0.303-0.661-0.67
				c0.003-0.366,0.3-0.661,0.666-0.661c0.002,0,0.003,0,0.005,0c1.175,0.009,2.368,0.015,3.576,0.018
				c0.368,0.001,0.665,0.3,0.664,0.667C60.563,142.677,60.264,142.974,59.898,142.974z M63.477,142.973
				c-0.367,0-0.665-0.297-0.666-0.664c-0.001-0.367,0.296-0.666,0.664-0.667c1.18-0.003,2.372-0.01,3.574-0.02
				c0.002,0,0.004,0,0.006,0c0.365,0,0.662,0.294,0.666,0.66c0.003,0.368-0.292,0.668-0.66,0.671c-1.205,0.01-2.4,0.016-3.582,0.02
				H63.477z M52.74,142.92c-0.003,0-0.006,0-0.008,0c-1.218-0.015-2.413-0.033-3.582-0.053c-0.367-0.007-0.66-0.309-0.654-0.677
				c0.007-0.367,0.314-0.661,0.677-0.654c1.167,0.02,2.36,0.038,3.575,0.053c0.367,0.005,0.662,0.306,0.657,0.674
				C53.401,142.627,53.104,142.92,52.74,142.92z M70.633,142.915c-0.364,0-0.66-0.292-0.666-0.656
				c-0.005-0.367,0.289-0.669,0.656-0.675c1.184-0.016,2.376-0.036,3.573-0.06c0.367,0.001,0.672,0.285,0.679,0.652
				c0.007,0.368-0.285,0.672-0.652,0.679c-1.201,0.024-2.396,0.044-3.582,0.06C70.639,142.915,70.636,142.915,70.633,142.915z
				 M45.584,142.797c-0.005,0-0.01,0-0.015,0c-1.23-0.027-2.425-0.056-3.581-0.087c-0.367-0.01-0.657-0.315-0.647-0.683
				c0.01-0.367,0.323-0.683,0.683-0.647c1.155,0.03,2.347,0.059,3.575,0.086c0.367,0.008,0.659,0.312,0.651,0.68
				C46.24,142.508,45.944,142.797,45.584,142.797z M77.787,142.773c-0.359,0-0.656-0.286-0.665-0.648
				c-0.01-0.367,0.28-0.673,0.648-0.682c1.186-0.031,2.378-0.066,3.572-0.105c0.347-0.036,0.675,0.276,0.687,0.643
				c0.012,0.367-0.276,0.675-0.643,0.687c-1.197,0.039-2.391,0.074-3.581,0.105C77.799,142.773,77.793,142.773,77.787,142.773z
				 M38.427,142.607c-0.007,0-0.014,0-0.021,0c-1.253-0.039-2.448-0.079-3.58-0.12c-0.367-0.013-0.655-0.322-0.641-0.689
				c0.013-0.367,0.314-0.656,0.689-0.641c1.13,0.041,2.323,0.081,3.574,0.12c0.367,0.011,0.656,0.318,0.644,0.686
				C39.081,142.323,38.785,142.607,38.427,142.607z M84.94,142.538c-0.355,0-0.65-0.281-0.665-0.639
				c-0.015-0.367,0.271-0.677,0.639-0.692c1.189-0.048,2.38-0.099,3.57-0.156c0.366-0.019,0.679,0.266,0.696,0.633
				c0.018,0.367-0.266,0.679-0.633,0.696c-1.193,0.057-2.387,0.109-3.58,0.157C84.958,142.538,84.949,142.538,84.94,142.538z
				 M31.274,142.35c-0.009,0-0.018,0-0.028,0c-1.325-0.054-2.523-0.107-3.58-0.156c-0.367-0.017-0.651-0.328-0.634-0.695
				c0.017-0.367,0.325-0.653,0.695-0.634c1.055,0.049,2.25,0.101,3.573,0.156c0.367,0.015,0.653,0.325,0.638,0.692
				C31.924,142.07,31.629,142.35,31.274,142.35z M92.089,142.197c-0.351,0-0.644-0.274-0.664-0.628
				c-0.02-0.367,0.26-0.681,0.627-0.702c1.194-0.066,2.386-0.138,3.574-0.215c0.361-0.024,0.683,0.254,0.707,0.621
				c0.023,0.367-0.255,0.683-0.621,0.707c-1.193,0.077-2.388,0.149-3.585,0.216C92.114,142.196,92.101,142.197,92.089,142.197z
				 M99.24,141.732c-0.345,0-0.637-0.266-0.663-0.616c-0.027-0.367,0.248-0.686,0.614-0.713c1.193-0.088,2.381-0.183,3.562-0.283
				c0.368-0.039,0.688,0.24,0.72,0.606c0.032,0.367-0.24,0.688-0.606,0.72c-1.186,0.101-2.379,0.196-3.577,0.285
				C99.274,141.732,99.257,141.732,99.24,141.732z M106.376,141.125c-0.339,0-0.628-0.257-0.662-0.601
				c-0.035-0.366,0.233-0.691,0.598-0.727c1.194-0.115,2.379-0.237,3.553-0.367c0.365-0.042,0.694,0.224,0.734,0.589
				c0.04,0.365-0.224,0.694-0.589,0.734c-1.18,0.13-2.37,0.252-3.57,0.368C106.419,141.124,106.397,141.125,106.376,141.125z
				 M113.494,140.342c-0.331,0-0.617-0.247-0.659-0.583c-0.045-0.365,0.213-0.697,0.578-0.743c1.194-0.149,2.374-0.305,3.539-0.469
				c0.368-0.049,0.701,0.202,0.752,0.566c0.051,0.364-0.202,0.701-0.566,0.752c-1.172,0.165-2.359,0.322-3.56,0.471
				C113.549,140.34,113.521,140.342,113.494,140.342z M120.584,139.339c-0.321,0-0.604-0.233-0.656-0.56
				c-0.058-0.363,0.189-0.705,0.552-0.763c1.192-0.191,2.364-0.391,3.516-0.601c0.36-0.064,0.708,0.174,0.774,0.536
				c0.066,0.361-0.174,0.708-0.536,0.774c-1.16,0.211-2.342,0.413-3.543,0.606C120.655,139.336,120.619,139.339,120.584,139.339z
				 M127.628,138.05c-0.308,0-0.585-0.216-0.651-0.529c-0.075-0.36,0.156-0.712,0.516-0.788c1.187-0.247,2.346-0.507,3.474-0.779
				c0.36-0.087,0.717,0.134,0.803,0.491c0.086,0.357-0.133,0.717-0.491,0.803c-1.141,0.275-2.313,0.537-3.513,0.788
				C127.719,138.046,127.673,138.05,127.628,138.05z M134.587,136.366c-0.291,0-0.558-0.192-0.64-0.486
				c-0.099-0.354,0.107-0.721,0.461-0.821c1.178-0.331,2.32-0.68,3.393-1.037c0.348-0.117,0.725,0.072,0.841,0.421
				c0.116,0.349-0.072,0.726-0.421,0.841c-1.093,0.364-2.255,0.719-3.454,1.056C134.708,136.358,134.647,136.366,134.587,136.366z
				 M141.372,134.088c-0.263,0-0.513-0.157-0.617-0.416c-0.138-0.341,0.027-0.728,0.368-0.866c1.149-0.464,2.228-0.952,3.208-1.45
				c0.327-0.168,0.728-0.036,0.895,0.292c0.167,0.328,0.036,0.728-0.292,0.895c-1.013,0.516-2.128,1.02-3.312,1.498
				C141.54,134.072,141.455,134.088,141.372,134.088z M147.719,130.81c-0.213,0-0.422-0.102-0.551-0.292
				c-0.206-0.304-0.127-0.718,0.177-0.925c1.025-0.696,1.919-1.43,2.657-2.18c0.257-0.263,0.679-0.265,0.941-0.008
				c0.262,0.257,0.266,0.679,0.008,0.941c-0.799,0.812-1.76,1.603-2.858,2.348C147.978,130.773,147.848,130.81,147.719,130.81z
				 M152.574,125.681c-0.101,0-0.203-0.023-0.299-0.071c-0.328-0.165-0.461-0.565-0.295-0.893c0.504-1.002,0.793-2.062,0.86-3.152
				c0.023-0.367,0.326-0.649,0.705-0.623c0.367,0.023,0.646,0.338,0.623,0.705c-0.078,1.27-0.414,2.505-1,3.669
				C153.052,125.547,152.818,125.681,152.574,125.681z M153.168,118.72c-0.313,0-0.592-0.222-0.653-0.541
				c-0.223-1.175-0.529-2.299-0.91-3.339c-0.126-0.345,0.052-0.727,0.396-0.854c0.346-0.126,0.727,0.051,0.854,0.397
				c0.405,1.108,0.731,2.302,0.967,3.547c0.068,0.361-0.169,0.71-0.529,0.778C153.251,118.716,153.209,118.72,153.168,118.72z
				 M150.694,112.059c-0.225,0-0.444-0.114-0.569-0.32c-0.594-0.98-1.292-1.898-2.075-2.73c-0.252-0.268-0.239-0.689,0.029-0.941
				c0.267-0.252,0.689-0.239,0.941,0.029c0.846,0.899,1.601,1.893,2.243,2.951c0.191,0.315,0.091,0.724-0.224,0.914
				C150.931,112.028,150.812,112.059,150.694,112.059z M145.842,106.878c-0.134,0-0.269-0.04-0.386-0.123
				c-0.902-0.643-1.905-1.236-2.98-1.762c-0.33-0.162-0.467-0.56-0.305-0.89c0.162-0.33,0.562-0.466,0.89-0.305
				c1.14,0.558,2.206,1.188,3.168,1.874c0.299,0.214,0.369,0.629,0.156,0.929C146.254,106.781,146.049,106.878,145.842,106.878z
				 M139.459,103.709c-0.071,0-0.143-0.011-0.213-0.035c-1.054-0.357-2.191-0.677-3.38-0.953c-0.358-0.083-0.581-0.441-0.498-0.799
				c0.083-0.358,0.442-0.58,0.799-0.498c1.231,0.286,2.41,0.618,3.505,0.988c0.348,0.118,0.535,0.496,0.417,0.844
				C139.995,103.535,139.736,103.709,139.459,103.709z M132.503,102.067c-0.034,0-0.068-0.003-0.103-0.008
				c-1.106-0.171-2.288-0.318-3.513-0.437c-0.366-0.036-0.634-0.361-0.598-0.727c0.036-0.366,0.364-0.636,0.727-0.598
				c1.251,0.121,2.458,0.272,3.589,0.447c0.363,0.056,0.612,0.396,0.556,0.76C133.109,101.832,132.825,102.067,132.503,102.067z
				 M93.185,101.925c-0.367,0-0.664-0.296-0.666-0.663c-0.001-0.368,0.296-0.667,0.663-0.668c1.17-0.004,2.361-0.022,3.566-0.05
				c0.388-0.001,0.672,0.283,0.681,0.65c0.008,0.367-0.283,0.672-0.65,0.681c-1.214,0.028-2.413,0.045-3.591,0.05
				C93.187,101.925,93.186,101.925,93.185,101.925z M89.606,101.888c-0.006,0-0.012,0-0.018,0c-1.273-0.033-2.485-0.089-3.604-0.167
				c-0.367-0.025-0.643-0.343-0.618-0.71c0.026-0.367,0.353-0.65,0.71-0.618c1.099,0.076,2.292,0.131,3.546,0.164
				c0.367,0.01,0.658,0.315,0.648,0.682C90.262,101.601,89.966,101.888,89.606,101.888z M100.341,101.77
				c-0.357,0-0.652-0.283-0.665-0.642c-0.013-0.367,0.274-0.675,0.642-0.688c1.182-0.042,2.374-0.088,3.573-0.136
				c0.362-0.018,0.677,0.271,0.692,0.639c0.015,0.367-0.271,0.677-0.638,0.692c-1.201,0.048-2.396,0.094-3.58,0.136
				C100.357,101.77,100.349,101.77,100.341,101.77z M107.494,101.489c-0.356,0-0.65-0.281-0.665-0.64
				c-0.014-0.367,0.272-0.677,0.639-0.691l0.997-0.039c0.86-0.033,1.722-0.065,2.583-0.094c0.368-0.023,0.675,0.275,0.688,0.643
				s-0.275,0.675-0.643,0.688c-0.859,0.029-1.718,0.061-2.576,0.094l-0.997,0.039C107.511,101.489,107.502,101.489,107.494,101.489z
				 M82.471,101.371c-0.029,0-0.058-0.002-0.088-0.006c-1.279-0.169-2.485-0.382-3.584-0.631c-0.358-0.081-0.583-0.438-0.501-0.797
				c0.081-0.358,0.433-0.585,0.797-0.501c1.059,0.241,2.224,0.446,3.462,0.61c0.364,0.048,0.621,0.383,0.573,0.747
				C83.085,101.127,82.8,101.371,82.471,101.371z M125.382,101.36c-0.012,0-0.024,0-0.036-0.001
				c-1.169-0.062-2.356-0.104-3.555-0.128c-0.368-0.008-0.659-0.312-0.652-0.679c0.007-0.368,0.341-0.673,0.679-0.652
				c1.254,0.026,2.465,0.069,3.599,0.13c0.367,0.02,0.649,0.333,0.629,0.7C126.027,101.085,125.733,101.36,125.382,101.36z
				 M114.647,101.254c-0.36,0-0.657-0.289-0.665-0.651c-0.008-0.367,0.283-0.672,0.651-0.68c1.202-0.026,2.4-0.044,3.59-0.049
				c0.001,0,0.002,0,0.003,0c0.366,0,0.664,0.296,0.666,0.662c0.002,0.368-0.295,0.667-0.662,0.669
				c-1.182,0.005-2.372,0.023-3.566,0.049C114.657,101.254,114.652,101.254,114.647,101.254z M75.519,99.734
				c-0.079,0-0.159-0.014-0.236-0.043c-1.234-0.469-2.351-1.026-3.321-1.658c-0.308-0.201-0.395-0.613-0.195-0.921
				c0.201-0.308,0.613-0.395,0.921-0.195c0.89,0.58,1.922,1.094,3.067,1.529c0.344,0.13,0.516,0.515,0.386,0.858
				C76.04,99.571,75.787,99.734,75.519,99.734z M69.653,95.789c-0.192,0-0.381-0.082-0.513-0.241
				c-0.8-0.965-1.436-2.065-1.891-3.267c-0.13-0.344,0.043-0.728,0.387-0.858c0.343-0.13,0.727,0.043,0.858,0.387
				c0.403,1.065,0.965,2.037,1.671,2.889c0.234,0.283,0.195,0.703-0.088,0.937C69.953,95.739,69.803,95.789,69.653,95.789z
				 M66.995,89.249c-0.327,0-0.613-0.241-0.659-0.575c-0.083-0.602-0.125-1.192-0.125-1.754c0-0.7,0.065-1.38,0.194-2.022
				c0.072-0.36,0.422-0.59,0.783-0.522c0.36,0.072,0.594,0.423,0.522,0.783c-0.111,0.555-0.168,1.147-0.168,1.76
				c0,0.501,0.038,1.03,0.113,1.572c0.05,0.364-0.205,0.7-0.568,0.75C67.055,89.247,67.025,89.249,66.995,89.249z M68.479,82.46
				c-0.136,0-0.274-0.042-0.393-0.128c-0.297-0.217-0.361-0.633-0.144-0.93c0.698-0.953,1.622-1.825,2.748-2.591
				c0.305-0.207,0.718-0.128,0.925,0.176c0.207,0.304,0.128,0.718-0.176,0.925c-1,0.68-1.815,1.445-2.422,2.276
				C68.886,82.366,68.684,82.46,68.479,82.46z M74.219,78.36c-0.261,0-0.509-0.154-0.615-0.41c-0.141-0.34,0.02-0.729,0.36-0.87
				c1.033-0.429,2.198-0.824,3.461-1.176c0.353-0.099,0.721,0.107,0.82,0.463c0.098,0.354-0.109,0.721-0.463,0.82
				c-1.211,0.338-2.324,0.715-3.308,1.124C74.39,78.344,74.304,78.36,74.219,78.36z M81.085,76.394c-0.312,0-0.59-0.22-0.652-0.537
				c-0.071-0.361,0.164-0.711,0.525-0.781c1.108-0.218,2.307-0.418,3.564-0.596c0.362-0.052,0.7,0.202,0.752,0.566
				c0.052,0.364-0.202,0.701-0.566,0.752c-1.234,0.174-2.409,0.371-3.494,0.584C81.171,76.39,81.127,76.394,81.085,76.394z
				 M88.167,75.374c-0.337,0-0.626-0.255-0.661-0.597c-0.038-0.365,0.228-0.692,0.594-0.73c1.154-0.119,2.349-0.224,3.584-0.316
				c0.353-0.036,0.685,0.247,0.713,0.614c0.027,0.367-0.248,0.686-0.614,0.713c-1.222,0.091-2.405,0.195-3.546,0.312
				C88.213,75.373,88.19,75.374,88.167,75.374z M95.304,74.834c-0.351,0-0.645-0.275-0.664-0.63c-0.02-0.367,0.262-0.681,0.629-0.7
				c1.165-0.062,2.361-0.115,3.586-0.16c0.375-0.032,0.676,0.273,0.69,0.64c0.013,0.367-0.273,0.676-0.64,0.69
				c-1.219,0.045-2.407,0.097-3.565,0.159C95.327,74.833,95.315,74.834,95.304,74.834z M148.973,74.709L148.973,74.709
				c-1.157-0.001-2.351-0.004-3.582-0.009c-0.367-0.002-0.664-0.301-0.662-0.669c0.002-0.367,0.307-0.641,0.668-0.662
				c1.23,0.005,2.421,0.008,3.576,0.009c0.367,0,0.666,0.299,0.665,0.666C149.638,74.412,149.341,74.709,148.973,74.709z
				 M152.552,74.704c-0.366,0-0.664-0.296-0.666-0.663c-0.002-0.367,0.295-0.666,0.663-0.668c1.237-0.005,2.428-0.014,3.573-0.027
				c0.002,0,0.005,0,0.007,0c0.364,0,0.661,0.293,0.666,0.658c0.004,0.367-0.29,0.669-0.658,0.673
				c-1.148,0.013-2.342,0.022-3.583,0.027C152.553,74.704,152.552,74.704,152.552,74.704z M141.817,74.68c-0.002,0-0.003,0-0.005,0
				l-3.58-0.029c-0.367-0.003-0.662-0.304-0.659-0.672c0.003-0.365,0.301-0.659,0.666-0.659c0.002,0,0.004,0,0.006,0l3.577,0.029
				c0.367,0.003,0.663,0.303,0.661,0.67C142.479,74.385,142.182,74.68,141.817,74.68z M159.707,74.621
				c-0.361,0-0.657-0.289-0.665-0.652c-0.007-0.367,0.284-0.672,0.652-0.679c1.252-0.026,2.44-0.058,3.568-0.097
				c0.365-0.026,0.675,0.275,0.688,0.642c0.013,0.367-0.275,0.675-0.642,0.688c-1.134,0.039-2.328,0.071-3.586,0.097
				C159.717,74.621,159.712,74.621,159.707,74.621z M134.66,74.617c-0.002,0-0.004,0-0.007,0l-3.579-0.038
				c-0.367-0.004-0.662-0.305-0.658-0.673c0.004-0.365,0.301-0.658,0.666-0.658c0.002,0,0.005,0,0.007,0l3.578,0.038
				c0.367,0.003,0.662,0.305,0.659,0.672C135.322,74.323,135.025,74.617,134.66,74.617z M102.457,74.565
				c-0.36,0-0.656-0.288-0.665-0.649c-0.009-0.367,0.282-0.672,0.649-0.682c1.171-0.028,2.366-0.051,3.585-0.068
				c0.003,0,0.006,0,0.009,0c0.364,0,0.66,0.292,0.666,0.656c0.005,0.367-0.289,0.669-0.656,0.675
				c-1.214,0.017-2.405,0.039-3.572,0.068C102.468,74.565,102.462,74.565,102.457,74.565z M127.504,74.54c-0.002,0-0.005,0-0.007,0
				l-3.577-0.036c-0.367-0.003-0.663-0.304-0.659-0.672c0.003-0.368,0.307-0.662,0.672-0.659l3.578,0.036
				c0.367,0.004,0.662,0.305,0.659,0.672C128.165,74.246,127.868,74.54,127.504,74.54z M120.348,74.475c-0.002,0-0.003,0-0.005,0
				c-1.208-0.009-2.4-0.016-3.575-0.02c-0.367-0.001-0.664-0.3-0.663-0.668c0.001-0.367,0.299-0.663,0.666-0.663
				c0,0,0.002,0,0.003,0c1.177,0.004,2.37,0.011,3.58,0.02c0.367,0.003,0.663,0.303,0.661,0.67
				C121.011,74.18,120.714,74.475,120.348,74.475z M109.614,74.461c-0.366,0-0.663-0.295-0.666-0.661
				c-0.003-0.368,0.293-0.668,0.661-0.67l0.567-0.003c0.991-0.005,1.997-0.008,3.016-0.009h0c0.367,0,0.665,0.298,0.666,0.665
				c0,0.367-0.297,0.666-0.665,0.666c-1.017,0.001-2.02,0.004-3.01,0.009l-0.564,0.003
				C109.617,74.461,109.615,74.461,109.614,74.461z M166.849,74.251c-0.325,0-0.609-0.238-0.658-0.569
				c-0.053-0.364,0.198-0.702,0.562-0.755c1.226-0.179,2.347-0.455,3.334-0.818c0.347-0.127,0.728,0.05,0.854,0.394
				c0.127,0.345-0.049,0.727-0.394,0.854c-1.073,0.395-2.284,0.694-3.601,0.886C166.913,74.249,166.881,74.251,166.849,74.251z
				 M173.422,71.661c-0.191,0-0.38-0.081-0.511-0.239c-0.236-0.282-0.198-0.702,0.084-0.938c0.883-0.738,1.513-1.607,1.874-2.584
				c0.127-0.345,0.509-0.522,0.855-0.394c0.344,0.127,0.521,0.51,0.394,0.855c-0.442,1.198-1.205,2.255-2.269,3.144
				C173.724,71.611,173.573,71.661,173.422,71.661z M175.759,65.275c-0.314,0-0.593-0.223-0.653-0.542
				c-0.193-1.026-0.641-2.066-1.294-3.008c-0.21-0.302-0.134-0.717,0.168-0.926c0.302-0.209,0.717-0.134,0.926,0.168
				c0.759,1.095,1.281,2.312,1.508,3.52c0.068,0.361-0.169,0.709-0.531,0.777C175.841,65.271,175.8,65.275,175.759,65.275z"/>
		</g>
		<g>
			<path style="fill:#9DAAB2;" d="M171.718,59.39c-0.131,0-0.264-0.039-0.38-0.119c-0.451-0.314-0.936-0.597-1.442-0.841
				c-0.331-0.16-0.47-0.558-0.31-0.889c0.159-0.331,0.557-0.47,0.889-0.31c0.568,0.275,1.114,0.593,1.623,0.947
				c0.302,0.21,0.376,0.625,0.166,0.926C172.136,59.291,171.929,59.39,171.718,59.39z"/>
		</g>
	</g>
	<g>
		
			<linearGradient id="SVGID_1_" gradientUnits="userSpaceOnUse" x1="1314.7163" y1="211.4617" x2="1365.4303" y2="211.4617" gradientTransform="matrix(0.9998 -0.0176 0.0176 0.9998 -1295.9153 -31.279)">
			<stop  offset="0.1022" style="stop-color:#A19FAE;stop-opacity:0.7"/>
			<stop  offset="0.4923" style="stop-color:#A7A9AB;stop-opacity:0.3958"/>
			<stop  offset="1" style="stop-color:#ABB0A9;stop-opacity:0"/>
		</linearGradient>
		<polygon style="fill:url(#SVGID_1_);" points="32.302,154.195 25.738,156.336 22.358,159.667 58.306,159.356 72.967,153.237 		"/>
		
			<linearGradient id="SVGID_2_" gradientUnits="userSpaceOnUse" x1="1299.2966" y1="203.9929" x2="1351.4165" y2="203.9929" gradientTransform="matrix(0.9998 -0.0176 0.0176 0.9998 -1295.9153 -31.279)">
			<stop  offset="0.1022" style="stop-color:#A19FAE;stop-opacity:0.7"/>
			<stop  offset="0.4923" style="stop-color:#A7A9AB;stop-opacity:0.3958"/>
			<stop  offset="1" style="stop-color:#ABB0A9;stop-opacity:0"/>
		</linearGradient>
		<polygon style="fill:url(#SVGID_2_);" points="58.842,147.025 17.852,147.005 10.41,148.859 6.81,152.478 50.252,151.758 		"/>
		<g>
			
				<linearGradient id="SVGID_3_" gradientUnits="userSpaceOnUse" x1="-89.9773" y1="220.6499" x2="-83.8925" y2="220.6499" gradientTransform="matrix(0.9997 -0.0251 0.0246 0.9789 88.3273 -132.4253)">
				<stop  offset="0.129" style="stop-color:#FFD168"/>
				<stop  offset="0.4523" style="stop-color:#EEB669"/>
				<stop  offset="0.6935" style="stop-color:#E4A769"/>
				<stop  offset="0.7495" style="stop-color:#DF9F69"/>
				<stop  offset="0.8226" style="stop-color:#DC9A69"/>
				<stop  offset="0.8432" style="stop-color:#D59266"/>
				<stop  offset="0.8878" style="stop-color:#CA8761"/>
				<stop  offset="0.9355" style="stop-color:#C7835F"/>
			</linearGradient>
			<path style="fill:url(#SVGID_3_);" d="M7.312,79.782l-2.618,0.256c-0.712,0.046-0.731,0.111-0.871,0.793
				c-0.144,0.703-0.114,1.369-0.067,2.08c0.052,0.783-0.026,1.593,0.067,2.371c0.103,0.854,0.63,1.561,0.816,2.373
				c-0.008-0.019-0.022-0.027-0.043-0.023c-0.041,0.689-0.106,1.619-0.003,2.295c0.06,0.398,0.796,1.086,0.858,0.33
				c0.035,0.427,0.098,1.098,0.482,1.358c0.574,0.388,0.772-0.135,0.747-0.661c0.208,0.679,0.762,0.632,1.285,0.2
				c0.088-0.372,0.047-0.769,0.13-1.148c0.006,0.119,0.094,0.243,0.118,0.36c0.174,0.009,0.359,0.004,0.532-0.015
				c0.07-0.058,0.117-0.095,0.198-0.151c0.108-1.109,0.418-2.131,0.215-3.239C8.993,86.08,8.51,85.219,8.36,84.35
				c0.298,0.469,0.614,2.823,1.539,2.253C9.978,83.895,9.007,81.839,7.312,79.782z"/>
			
				<linearGradient id="SVGID_4_" gradientUnits="userSpaceOnUse" x1="581.1988" y1="-277.1558" x2="581.3546" y2="-277.1558" gradientTransform="matrix(0.9882 0.1532 -0.1532 0.9882 -609.5362 266.1706)">
				<stop  offset="0.129" style="stop-color:#FFD168"/>
				<stop  offset="0.4523" style="stop-color:#EEB669"/>
				<stop  offset="0.6935" style="stop-color:#E4A769"/>
				<stop  offset="0.7495" style="stop-color:#DF9F69"/>
				<stop  offset="0.8226" style="stop-color:#DC9A69"/>
				<stop  offset="0.8432" style="stop-color:#D59266"/>
				<stop  offset="0.8878" style="stop-color:#CA8761"/>
				<stop  offset="0.9355" style="stop-color:#C7835F"/>
			</linearGradient>
			<path style="fill:url(#SVGID_4_);" d="M7.266,81.269c0.023,0.041,0.041,0.081,0.064,0.122l0.074,0.006
				C7.381,81.282,7.335,81.239,7.266,81.269z"/>
		</g>
		
			<linearGradient id="SVGID_5_" gradientUnits="userSpaceOnUse" x1="1982.0626" y1="-226.6139" x2="1989.3654" y2="-226.6139" gradientTransform="matrix(0.9882 0.1532 -0.15 0.9677 -1991.9983 -29.08)">
			<stop  offset="0" style="stop-color:#9A7CFF"/>
			<stop  offset="0.6183" style="stop-color:#8056EA"/>
			<stop  offset="1" style="stop-color:#7124D3"/>
		</linearGradient>
		<path style="fill:url(#SVGID_5_);" d="M5.205,30.392c-2.007,1.219-2.988,2.523-3.254,8.255s-2.122,24.032-0.898,27.606
			c1.224,3.574,2.532,15.296,2.532,15.296s1.355,0.86,2.814,0.436c1.753-0.509,1.94-1.713,1.94-1.713S7.551,63.617,7.169,62.534
			c-0.382-1.082,3.914-26.29,2.113-29.691S6.19,29.794,5.205,30.392z"/>
		<g>
			<g>
				
					<linearGradient id="SVGID_6_" gradientUnits="userSpaceOnUse" x1="-2729.2759" y1="832.2001" x2="-2723.1216" y2="816.4583" gradientTransform="matrix(-0.9705 0.2326 0.2705 0.8759 -2853.2515 -73.835)">
					<stop  offset="0.129" style="stop-color:#FFD168"/>
					<stop  offset="0.4523" style="stop-color:#EEB669"/>
					<stop  offset="0.6935" style="stop-color:#E4A769"/>
					<stop  offset="0.7495" style="stop-color:#DF9F69"/>
					<stop  offset="0.8226" style="stop-color:#DC9A69"/>
					<stop  offset="0.8432" style="stop-color:#D59266"/>
					<stop  offset="0.8878" style="stop-color:#CA8761"/>
					<stop  offset="0.9355" style="stop-color:#C7835F"/>
				</linearGradient>
				<path style="fill:url(#SVGID_6_);" d="M8.286,16.884c1.838,5.652,7.773,10.064,11.172,8.429
					c2.721-1.309,4.481-8.917,2.642-14.569s-4.968-6.895-9.3-5.898S6.448,11.232,8.286,16.884z"/>
				
					<linearGradient id="SVGID_7_" gradientUnits="userSpaceOnUse" x1="1045.8866" y1="254.5393" x2="1047.2631" y2="265.3681" gradientTransform="matrix(0.9953 -0.0972 0.0972 0.9953 -1051.7273 -128.4739)">
					<stop  offset="0.129" style="stop-color:#FFD168"/>
					<stop  offset="0.4523" style="stop-color:#EEB669"/>
					<stop  offset="0.6935" style="stop-color:#E4A769"/>
					<stop  offset="0.7495" style="stop-color:#DF9F69"/>
					<stop  offset="0.8226" style="stop-color:#DC9A69"/>
					<stop  offset="0.8432" style="stop-color:#D59266"/>
					<stop  offset="0.8878" style="stop-color:#CA8761"/>
					<stop  offset="0.9355" style="stop-color:#C7835F"/>
				</linearGradient>
				<path style="fill:url(#SVGID_7_);" d="M11.066,21.444l0.784,8.883c0,0,0.414,3.768,2.14,3.621c2.16-0.184,5.07-0.495,5.07-0.495
					l-2.288-14.554L11.066,21.444z"/>
			</g>
			
				<linearGradient id="SVGID_8_" gradientUnits="userSpaceOnUse" x1="1039.0107" y1="244.8722" x2="1057.6882" y2="244.8722" gradientTransform="matrix(0.9953 -0.0972 0.0972 0.9953 -1051.7273 -128.4739)">
				<stop  offset="0.1183" style="stop-color:#566077"/>
				<stop  offset="0.4624" style="stop-color:#4B556B"/>
				<stop  offset="0.957" style="stop-color:#424C62"/>
			</linearGradient>
			<path style="fill:url(#SVGID_8_);" d="M24.282,7.49c-0.798-2.054-3.554-4.15-6.011-4.353c-2.164-0.179-4.931-0.237-7.295,0.366
				c-1.15,0.293-2.205,0.743-3.049,1.41C7.032,5.621,5.353,7.814,6.148,8.96c-0.937,0.793,0.159,4.477,1.459,8.385
				c1.315,3.953,3.165,6.029,3.165,6.029s3.883,0.566,4.46,0.311c0.879-0.388,3.402-3.437,3.247-4.15
				c-0.033-0.153-0.745-1.428-0.927-2.614c-0.147-0.952,0.03-1.84,1.114-2.023c0.648-0.109,0.891,0.418,1.057,1
				c0.093,0.326,0.163,0.67,0.267,0.928c0.294,0.731,0.574,0.816,1.507,0.656c0.105-0.018,0.259-1.482,0.39-3.184
				c0.133-1.729,0.242-3.703,0.252-4.655c1.025-0.004,2.011,0.191,2.19,1.018c-0.116-1.213-0.079-2.78-1.138-3.515
				C23.424,7.247,23.951,7.376,24.282,7.49z"/>
		</g>
		<g>
			
				<linearGradient id="SVGID_9_" gradientUnits="userSpaceOnUse" x1="1437.4641" y1="2763.9004" x2="1453.697" y2="2763.9004" gradientTransform="matrix(0.9972 0.0543 -0.0011 0.6976 -1427.1204 -1857.3558)">
				<stop  offset="0" style="stop-color:#7124D3"/>
				<stop  offset="1" style="stop-color:#8360EF"/>
			</linearGradient>
			<path style="fill:url(#SVGID_9_);" d="M3.92,147.472c0,0-1.006,3.239-0.434,3.799s2.781,1.378,4.23,1.213
				c1.448-0.165,1.822-0.432,2.512-0.67s1.768-0.64,2.969-0.727s3.529-1.172,4.592-1.987s1.847-1.333,1.697-2.105
				s-2.242-0.601-4.024-0.377c-1.462,0.183-6.095-1.004-6.095-1.004L3.92,147.472z"/>
			
				<linearGradient id="SVGID_10_" gradientUnits="userSpaceOnUse" x1="1620.118" y1="338.9835" x2="1614.9012" y2="263.3728" gradientTransform="matrix(0.9991 0.0357 -0.0283 0.958 -1596.5933 -231.9645)">
				<stop  offset="0.0049" style="stop-color:#79729D"/>
				<stop  offset="0.092" style="stop-color:#716994"/>
				<stop  offset="0.3858" style="stop-color:#5A5079"/>
				<stop  offset="0.6474" style="stop-color:#4C4069"/>
				<stop  offset="0.8488" style="stop-color:#473B63"/>
			</linearGradient>
			<path style="fill:url(#SVGID_10_);" d="M5.514,75.774c0,0-0.147,30.515-0.332,33.014c-0.119,1.61-1.023,13.15-1.194,19.802
				S3.92,147.472,3.92,147.472s-0.073,0.275,2.466,0.358c2.539,0.083,3.203-2.389,3.203-2.389s1.773-12.053,2.712-16.402
				c0.784-3.628,3.714-29.945,3.824-33.351c0.085-2.625,0.807-14.772,0.807-14.772l0.981-4.953l-5.787-0.189H5.514z"/>
		</g>
		<g>
			
				<linearGradient id="SVGID_11_" gradientUnits="userSpaceOnUse" x1="963.682" y1="3264.5044" x2="979.8975" y2="3264.5044" gradientTransform="matrix(0.9985 -0.014 0.0475 0.6852 -1099.1586 -2066.5188)">
				<stop  offset="0" style="stop-color:#7124D3"/>
				<stop  offset="1" style="stop-color:#8360EF"/>
			</linearGradient>
			<path style="fill:url(#SVGID_11_);" d="M18.471,154.184c0,0-0.608,4.246,0.005,4.761c0.613,0.515,2.879,1.181,4.312,0.93
				c1.432-0.251,1.785-0.537,2.454-0.812c0.67-0.276,1.715-0.737,2.907-0.897c1.192-0.16,3.431-1.368,4.43-2.234
				c0.999-0.866,1.741-1.423,1.533-2.172c-0.208-0.749-2.282-0.451-4.043-0.122c-1.444,0.27-6.139-0.094-6.139-0.094L18.471,154.184
				z"/>
			
				<linearGradient id="SVGID_12_" gradientUnits="userSpaceOnUse" x1="1416.7418" y1="387.4727" x2="1427.2007" y2="463.3443" gradientTransform="matrix(0.9999 0.0015 0.0015 0.9583 -1400.4645 -298.8738)">
				<stop  offset="0.1512" style="stop-color:#473B63"/>
				<stop  offset="0.3526" style="stop-color:#4C4069"/>
				<stop  offset="0.6142" style="stop-color:#5A5079"/>
				<stop  offset="0.908" style="stop-color:#716994"/>
				<stop  offset="0.9951" style="stop-color:#79729D"/>
			</linearGradient>
			<path style="fill:url(#SVGID_12_);" d="M21.418,83.337l-6.699-0.001c0,0,1.082,28.219,1.207,31.106s-0.554,10.265-0.074,16.731
				c0.48,6.467,2.654,24.097,2.654,24.097s0.493,1.357,3.511,1.339c1.519-0.009,2.697-1.607,2.697-1.607s0.228-26.21,0.814-31.133
				c0.586-4.923,2.59-40.228,2.59-40.228L21.418,83.337z"/>
		</g>
		
			<linearGradient id="SVGID_13_" gradientUnits="userSpaceOnUse" x1="927.952" y1="716.6484" x2="954.2971" y2="716.6484" gradientTransform="matrix(1.0586 -0.0288 0.0436 0.9243 -1006.9673 -577.578)">
			<stop  offset="0" style="stop-color:#8E6BF5"/>
			<stop  offset="0.4409" style="stop-color:#8056EA"/>
			<stop  offset="1" style="stop-color:#7124D3"/>
		</linearGradient>
		<path style="fill:url(#SVGID_13_);" d="M21.458,32.136c0,0,6.104,1.451,8.066,6.051c0.689,1.615-1.93,13.031-2.169,23.436
			c-0.259,11.296,0.762,22.019,0.762,22.019s0.622,2.362-2.554,3.284c-7.229,2.096-14.151-0.673-14.151-0.673l-1.26-9.303
			l-2.206,8.469c0,0-1.727,0.122-3.462-2.692c-1.518-2.461-0.618-6.953-0.618-6.953S3.99,65.658,4.484,57.861
			c0.348-5.485-2.62-18.626-1.69-23.729c0.425-2.334,1.024-3.452,2.327-4.451c1.545-1.184,3.892-1.989,5.429-1.453
			C13.384,29.216,21.458,32.136,21.458,32.136z"/>
		<g>
			<linearGradient id="SVGID_14_" gradientUnits="userSpaceOnUse" x1="36.5943" y1="83.5957" x2="42.6928" y2="92.5089">
				<stop  offset="0.0645" style="stop-color:#C7835F"/>
				<stop  offset="0.1122" style="stop-color:#CA8761"/>
				<stop  offset="0.1568" style="stop-color:#D59266"/>
				<stop  offset="0.1774" style="stop-color:#DC9A69"/>
				<stop  offset="0.2505" style="stop-color:#DF9F69"/>
				<stop  offset="0.3065" style="stop-color:#E4A769"/>
				<stop  offset="0.5477" style="stop-color:#EEB669"/>
				<stop  offset="0.871" style="stop-color:#FFD168"/>
			</linearGradient>
			<path style="fill:url(#SVGID_14_);" d="M37.287,82.642l-2.194,1.452c-0.608,0.373-0.594,0.441-0.392,1.123
				c0.208,0.702,0.552,1.29,0.933,1.909c0.419,0.682,0.737,1.451,1.191,2.11c0.498,0.723,1.302,1.115,1.855,1.762
				c-0.016-0.014-0.032-0.014-0.049-0.001c0.292,0.641,0.679,1.511,1.092,2.074c0.243,0.331,1.222,0.609,0.916-0.102
				c0.235,0.369,0.611,0.946,1.074,1.001c0.693,0.083,0.618-0.482,0.345-0.945c0.508,0.516,0.976,0.215,1.232-0.418
				c-0.1-0.377-0.325-0.716-0.433-1.097c0.062,0.105,0.199,0.176,0.276,0.27c0.158-0.073,0.32-0.164,0.464-0.261
				c0.034-0.084,0.059-0.14,0.103-0.228c-0.433-1.052-0.647-2.118-1.356-3.024c-0.564-0.721-1.402-1.273-1.95-1.988
				c0.487,0.284,1.89,2.262,2.437,1.317C41.608,85.112,39.768,83.709,37.287,82.642z"/>
			<linearGradient id="SVGID_15_" gradientUnits="userSpaceOnUse" x1="34.8923" y1="85.8291" x2="35.048" y2="85.8291">
				<stop  offset="0.129" style="stop-color:#FFD168"/>
				<stop  offset="0.4523" style="stop-color:#EEB669"/>
				<stop  offset="0.6935" style="stop-color:#E4A769"/>
				<stop  offset="0.7495" style="stop-color:#DF9F69"/>
				<stop  offset="0.8226" style="stop-color:#DC9A69"/>
				<stop  offset="0.8432" style="stop-color:#D59266"/>
				<stop  offset="0.8878" style="stop-color:#CA8761"/>
				<stop  offset="0.9355" style="stop-color:#C7835F"/>
			</linearGradient>
			<path style="fill:url(#SVGID_15_);" d="M34.892,85.782c0.029,0.037,0.053,0.074,0.082,0.111l0.074-0.006
				C35.007,85.777,34.955,85.742,34.892,85.782z"/>
		</g>
		<linearGradient id="SVGID_16_" gradientUnits="userSpaceOnUse" x1="24.7096" y1="60.638" x2="33.6247" y2="60.638">
			<stop  offset="0" style="stop-color:#9A7CFF"/>
			<stop  offset="0.1623" style="stop-color:#8E6BF5"/>
			<stop  offset="0.6183" style="stop-color:#8056EA"/>
			<stop  offset="1" style="stop-color:#7124D3"/>
		</linearGradient>
		<path style="fill:url(#SVGID_16_);" d="M38.637,83.14c0,0-5.715-14.376-6.868-16.499c-0.332-5.509-0.271-26.191-2.302-28.973
			c-2.301-3.15-3.522-2.593-4.404-1.836c-1.797,1.544-2.566,3.013-1.951,8.839c0.563,5.333,1.423,21.496,2.913,26.812
			c0.412,0.557,0.772,1.4,0.943,1.621c2.344,3.042,7.608,12.846,7.608,12.846s1.564,0.38,2.801-0.514
			C38.861,84.365,38.637,83.14,38.637,83.14z"/>
		
			<linearGradient id="SVGID_17_" gradientUnits="userSpaceOnUse" x1="1420.4933" y1="29.6812" x2="1435.4069" y2="29.6812" gradientTransform="matrix(1 0 0 1 -1411.3734 0)">
			<stop  offset="0" style="stop-color:#9A7CFF"/>
			<stop  offset="0.6183" style="stop-color:#8056EA"/>
			<stop  offset="1" style="stop-color:#7124D3"/>
		</linearGradient>
		<path style="fill:url(#SVGID_17_);" d="M11.476,26.096L9.12,28.02c0,0,2.237,1.536,6.517,2.876s8.397,2.37,8.397,2.37
			l-4.334-3.286L11.476,26.096z"/>
	</g>
	<g>
		<ellipse style="fill:#B5BCD6;" cx="147.112" cy="121.317" rx="16.477" ry="17.04"/>
		<g>
			<path style="fill:#FFFFFF;" d="M146.371,132.505v-2.725c-1.745-0.027-3.521-0.518-4.574-1.199l0.722-1.825
				c1.054,0.626,2.619,1.171,4.304,1.171c2.137,0,3.581-1.117,3.581-2.67c0-1.498-1.174-2.424-3.401-3.242
				c-3.069-1.09-4.966-2.37-4.966-4.74c0-2.261,1.776-3.977,4.515-4.386v-2.724h1.896v2.643c1.775,0.054,3.009,0.49,3.913,0.953
				l-0.753,1.798c-0.632-0.327-1.866-0.954-3.792-0.954c-2.317,0-3.19,1.253-3.19,2.37c0,1.389,1.114,2.098,3.732,3.105
				c3.1,1.144,4.665,2.533,4.665,4.958c0,2.179-1.655,4.195-4.755,4.631v2.833H146.371z"/>
		</g>
	</g>
	<g>
		<linearGradient id="SVGID_18_" gradientUnits="userSpaceOnUse" x1="58.8421" y1="70.639" x2="96.0307" y2="70.639">
			<stop  offset="0.0753" style="stop-color:#70BDF9"/>
			<stop  offset="0.9736" style="stop-color:#63AFF8"/>
		</linearGradient>
		<ellipse style="fill:url(#SVGID_18_);" cx="77.436" cy="70.639" rx="18.594" ry="18.892"/>
		<path style="fill:#FFFFFF;" d="M86.803,68.602c-0.536-0.686-1.237-1.098-2.129-1.104c-1.336-0.01-2.672-0.005-4.008-0.007
			c-0.162,0-0.323,0-0.47,0c0.134-0.794,0.31-1.525,0.371-2.265c0.114-1.394-0.105-2.742-0.976-3.879
			c-0.279-0.364-0.73-0.697-1.166-0.82c-1.225-0.345-2.271,0.588-2.328,1.975c-0.024,0.582-0.039,1.166-0.099,1.744
			c-0.16,1.548-0.904,2.765-2.227,3.568c-0.423,0.257-0.966,0.393-1.465,0.43c-0.916,0.067-1.841,0.017-2.763,0.02
			c-0.711,0.002-1.277,0.283-1.663,0.892c-0.308,0.484-0.42,1.017-0.368,1.583c0.252,2.734,0.495,5.469,0.77,8.201
			c0.073,0.726,0.331,1.486,1.115,1.645c1.183,0.239,2.431,0.522,3.51-0.387c0.232-0.195,0.437-0.157,0.711-0.057
			c0.627,0.229,1.27,0.514,1.921,0.557c1.438,0.094,2.884,0.063,4.327,0.061c1.074-0.002,2.154,0.024,3.221-0.072
			c1.718-0.154,2.607-1.383,1.932-2.952c1.52-0.671,1.808-1.324,1.216-2.718c0.561-0.353,1.024-0.792,1.119-1.488
			c0.096-0.696-0.149-1.285-0.667-1.745C87.554,70.663,87.595,69.616,86.803,68.602z M72.185,79.229
			c-0.387,0-0.739-0.006-1.091,0.001c-0.728,0.016-1.165-0.312-1.262-1.042c-0.173-1.307-0.309-2.619-0.458-3.929
			c-0.108-0.944-0.195-1.892-0.321-2.833c-0.133-0.987,0.421-1.64,1.399-1.62c0.566,0.012,1.133,0.002,1.733,0.002
			C72.185,72.952,72.185,76.058,72.185,79.229z M84.516,74.398c-0.338,0.169-0.485,0.56-0.277,0.852
			c0.642,0.901,0.295,1.648-0.819,1.761c-0.09,0.009-0.179,0.021-0.294,0.035c-0.044,0.344-0.077,0.616,0.199,0.928
			c0.167,0.189,0.175,0.632,0.08,0.899c-0.062,0.174-0.436,0.334-0.671,0.336c-2.257,0.019-4.517,0.069-6.77-0.039
			c-0.72-0.035-1.422-0.506-2.123-0.799c-0.069-0.029-0.103-0.212-0.103-0.324c-0.006-2.733-0.008-5.467,0.006-8.2
			c0.001-0.129,0.121-0.318,0.237-0.377c1.083-0.548,1.902-1.385,2.629-2.331c0.397-0.517,0.603-1.097,0.606-1.747
			c0.004-0.768-0.003-1.535,0.003-2.303c0.006-0.67,0.181-0.987,0.578-1.078c0.473-0.109,0.964,0.156,1.218,0.697
			c0.475,1.011,0.395,2.07,0.159,3.111c-0.158,0.697-0.44,1.366-0.657,2.051c-0.119,0.374-0.219,0.754-0.347,1.195
			c0.244,0,0.409,0,0.573,0c1.843,0,3.685-0.001,5.528,0.001c0.245,0,0.494-0.002,0.735,0.036c0.3,0.047,0.508,0.209,0.5,0.553
			c-0.006,0.291,0.05,0.598-0.023,0.87c-0.075,0.278-0.211,0.646-0.43,0.758c-0.445,0.227-0.411,0.537-0.35,0.926
			c0.53,0.104,0.844,0.428,0.819,0.987C85.494,73.835,85.02,74.146,84.516,74.398z"/>
	</g>
	<g>
		<ellipse style="fill:#A3C2D3;" cx="74.732" cy="123.475" rx="10.778" ry="10.816"/>
		<polygon style="fill:#FFFFFF;" points="74.732,118.621 76.201,121.598 79.486,122.076 77.109,124.393 77.67,127.665 
			74.732,126.12 71.793,127.665 72.354,124.393 69.977,122.076 73.262,121.598 		"/>
	</g>
	<g>
		<ellipse style="fill:#663EFF;" cx="170.953" cy="42.547" rx="20.17" ry="19.942"/>
		<g>
			<ellipse style="fill:#FFFFFF;" cx="162.474" cy="40.328" rx="2.602" ry="3.323"/>
			<path style="fill:#FFFFFF;" d="M163.986,44.745h-3.024c-2.021,0-3.755,1.118-4.508,2.714h12.04
				C167.74,45.863,166.006,44.745,163.986,44.745z"/>
		</g>
		<g>
			<ellipse style="fill:#FFFFFF;" cx="180.497" cy="40.328" rx="2.602" ry="3.323"/>
			<path style="fill:#FFFFFF;" d="M182.009,44.745h-3.024c-2.021,0-3.755,1.118-4.508,2.714h12.04
				C185.763,45.863,184.029,44.745,182.009,44.745z"/>
		</g>
		<g>
			<ellipse style="fill:#FFFFFF;" cx="171.874" cy="37.615" rx="2.602" ry="3.323"/>
			<path style="fill:#FFFFFF;" d="M176.172,42.83c-0.792-0.501-1.75-0.799-2.786-0.799h-3.024c-1.146,0-2.192,0.368-3.027,0.971
				c0.63,0.52,1.187,1.105,1.674,1.743h5.572C175.038,44.053,175.562,43.405,176.172,42.83z"/>
		</g>
	</g>
	<g>
		<ellipse style="fill:#AC54FF;" cx="176.425" cy="87.613" rx="10.896" ry="11.376"/>
		<g>
			<path style="fill:#FFFFFF;" d="M182.253,92.153h-11.561c-0.707,0-1.283-0.575-1.283-1.283v-6.514
				c0-0.707,0.576-1.283,1.283-1.283h11.561c0.707,0,1.283,0.576,1.283,1.283v6.514C183.536,91.578,182.96,92.153,182.253,92.153z
				 M170.692,83.838c-0.286,0-0.518,0.232-0.518,0.518v6.514c0,0.285,0.232,0.518,0.518,0.518h11.561
				c0.286,0,0.518-0.232,0.518-0.518v-6.514c0-0.286-0.232-0.518-0.518-0.518H170.692z"/>
		</g>
		<g>
			<rect x="170.447" y="88.261" style="fill:#FFFFFF;" width="11.956" height="1.612"/>
		</g>
	</g>
</g>
</svg>
