<?xml version="1.0" encoding="iso-8859-1"?>
<!-- Generator: Adobe Illustrator 21.0.2, SVG Export Plug-In . SVG Version: 6.00 Build 0)  -->
<svg version="1.1" id="&#x421;&#x43B;&#x43E;&#x439;_1"
	 xmlns="http://www.w3.org/2000/svg" xmlns:xlink="http://www.w3.org/1999/xlink" x="0px" y="0px" viewBox="0 0 224 150"
	 style="enable-background:new 0 0 224 150;" xml:space="preserve">
<g>
	<g>
		<g>
			<g>
				<linearGradient id="SVGID_1_" gradientUnits="userSpaceOnUse" x1="8.9131" y1="66.5904" x2="215.0869" y2="66.5904">
					<stop  offset="0" style="stop-color:#D6D6E1"/>
					<stop  offset="0.9991" style="stop-color:#B5BCD6"/>
				</linearGradient>
				<path style="fill:url(#SVGID_1_);" d="M177.392,56.444c-0.9,0-1.789,0.043-2.674,0.105c0.209-1.849,0.327-3.726,0.327-5.631
					c0-27.377-22.194-49.571-49.571-49.571c-19.269,0-35.957,11.001-44.16,27.058c-3.202-1.187-6.663-1.838-10.278-1.838
					c-15.407,0-28.057,11.783-29.443,26.828C23.042,56.551,8.913,72.693,8.913,92.144c0,21.714,17.603,39.317,39.317,39.317
					c21.714,0,109.764,0.373,129.162,0.373c20.818,0,37.695-16.876,37.695-37.695S198.21,56.444,177.392,56.444z"/>
			</g>
		</g>
		<g>
			<rect x="53.332" y="52.951" style="fill:#EDF1FC;" width="83.788" height="89.759"/>
			<rect x="53.332" y="52.951" style="fill:#7634DA;" width="83.788" height="10.401"/>
			<circle style="fill:#FFFFFF;" cx="59.442" cy="58.152" r="2.618"/>
			<circle style="fill:#FFFFFF;" cx="69.624" cy="58.152" r="2.618"/>
			<circle style="fill:#FFFFFF;" cx="79.516" cy="58.152" r="2.618"/>
			<linearGradient id="SVGID_2_" gradientUnits="userSpaceOnUse" x1="62.0603" y1="76.2256" x2="92.3169" y2="76.2256">
				<stop  offset="0.0753" style="stop-color:#70BDF9"/>
				<stop  offset="0.9736" style="stop-color:#63AFF8"/>
			</linearGradient>
			<rect x="62.06" y="73.316" style="fill:url(#SVGID_2_);" width="30.257" height="5.819"/>
			<rect x="77.189" y="83.208" style="fill:#CCD7ED;" width="30.257" height="5.819"/>
			<rect x="77.189" y="92.518" style="fill:#CCD7ED;" width="20.971" height="5.819"/>
			<linearGradient id="SVGID_3_" gradientUnits="userSpaceOnUse" x1="61.7694" y1="108.2277" x2="92.026" y2="108.2277">
				<stop  offset="0.0753" style="stop-color:#70BDF9"/>
				<stop  offset="0.9736" style="stop-color:#63AFF8"/>
			</linearGradient>
			<rect x="61.769" y="105.318" style="fill:url(#SVGID_3_);" width="30.257" height="5.819"/>
			<rect x="61.757" y="115.21" style="fill:#CCD7ED;" width="20.971" height="5.819"/>
			<rect x="62.06" y="126.265" style="fill:#CCD7ED;" width="64.586" height="9.019"/>
		</g>
		<g>
			<circle style="fill:#AC54FF;" cx="147.837" cy="111.137" r="37.516"/>
			<g>
				<path style="fill:#FFFFFF;" d="M171.47,106.303c-3.384,2.968-9.089,8.28-9.672,8.289c-0.057,0.048-0.308,0.002-0.376-0.069
					c-0.376-0.118-0.614-0.398-0.709-0.739c-0.061-0.064-0.099-0.292-0.056-0.342c-0.003-0.49,5.21-6.212,8.178-9.62
					c-0.319-0.303-0.638-0.605-0.957-0.908c-2.594,2.286-5.17,4.593-7.835,6.793c-0.087,0.072-0.38,0.418-0.729,0.719
					c-0.142,0.211-0.359,0.358-0.648,0.421c-0.088,0.032-0.175,0.052-0.257,0.052c-0.125,0-0.222-0.026-0.306-0.062
					c-0.56-0.148-0.827-0.668-0.801-1.171c0.024-0.461,5.245-6.03,8.078-9.112c-0.221-0.209-0.442-0.418-0.664-0.626
					c-1.327,0.297-3.276,0.903-4.303,1.557c-4.659,2.969-7.995,6.683-8.008,12.812c-0.003,1.516-1.239,3.032-2.355,4.679
					c0.031,0.026,0.065,0.036,0.094,0.068c0.901,0.974,1.852,1.884,2.873,2.71c1.511-1.846,3.239-2.622,5.698-2.582
					c5.806,0.094,12.429-6.205,13.401-12.27C171.9,106.704,171.685,106.504,171.47,106.303z"/>
				<path style="fill:#FFFFFF;" d="M144.807,124.434c-2.99,2.704-8.55,6.895-11.372,9.529c-1.438,1.341-1.731,3.011-0.294,4.464
					c1.435,1.451,3.128,1.181,4.475-0.23c2.602-2.726,7.094-7.562,10.104-10.85C146.453,126.184,146.053,125.578,144.807,124.434z"
					/>
				<path style="fill:#FFFFFF;" d="M157.794,128.432c-4.231-3.96-11.723-10.619-12.629-11.752c-0.445-0.556-0.804-1.151-1.055-1.821
					c-0.359-0.959-0.496-2.072-0.341-3.444c0.72-6.393-9.352-13.419-15.424-11.25c-2.161,0.772-3.067,2.387-3.185,4.595
					c-0.391,7.318,5.85,13.637,13.138,13.653c1.554,0.004,3.473,0.969,4.594,2.11c5.112,5.203,9.999,10.627,14.968,15.972
					c0.477,0.513,0.948,1.03,1.438,1.529c1.39,1.415,3.022,1.816,4.484,0.364c1.566-1.556,1.159-3.281-0.378-4.714
					C162.309,132.653,160.137,130.625,157.794,128.432z M134.211,114.534c-6.957-2.272-7.098-10.364-7.098-10.364
					s2.329,6.895,7.382,9.086c5.054,2.191,7.382-1.42,7.382-1.42S141.168,116.806,134.211,114.534z"/>
			</g>
			<polygon style="fill:#FFFFFF;" points="135.921,78.518 137.178,81.065 139.989,81.474 137.955,83.457 138.435,86.256 
				135.921,84.934 133.406,86.256 133.886,83.457 131.852,81.474 134.663,81.065 			"/>
			<polygon style="fill:#FFFFFF;" points="147.837,74.648 149.094,77.196 151.905,77.604 149.871,79.587 150.351,82.387 
				147.837,81.065 145.322,82.387 145.803,79.587 143.768,77.604 146.58,77.196 			"/>
			<polygon style="fill:#FFFFFF;" points="159.714,78.518 160.971,81.065 163.783,81.474 161.748,83.457 162.229,86.256 
				159.714,84.934 157.2,86.256 157.68,83.457 155.646,81.474 158.457,81.065 			"/>
			<polygon style="fill:#FFFFFF;" points="169.007,86.256 170.265,88.804 173.076,89.212 171.042,91.195 171.522,93.995 
				169.007,92.673 166.493,93.995 166.973,91.195 164.939,89.212 167.75,88.804 			"/>
			<polygon style="fill:#FFFFFF;" points="126.831,86.256 128.088,88.804 130.899,89.212 128.865,91.195 129.345,93.995 
				126.831,92.673 124.317,93.995 124.797,91.195 122.763,89.212 125.574,88.804 			"/>
		</g>
	</g>
</g>
</svg>
