<?xml version="1.0" encoding="iso-8859-1"?>
<!-- Generator: Adobe Illustrator 21.0.2, SVG Export Plug-In . SVG Version: 6.00 Build 0)  -->
<svg version="1.1" id="&#x421;&#x43B;&#x43E;&#x439;_1"
	 xmlns="http://www.w3.org/2000/svg" xmlns:xlink="http://www.w3.org/1999/xlink" x="0px" y="0px" viewBox="0 0 200 200"
	 style="enable-background:new 0 0 200 200;" xml:space="preserve">
<g>
	<defs>
		<circle id="SVGID_1_" cx="100" cy="100" r="100"/>
	</defs>
	<clipPath id="SVGID_2_">
		<use xlink:href="#SVGID_1_"  style="overflow:visible;"/>
	</clipPath>
	<circle style="clip-path:url(#SVGID_2_);fill:#FFFFFF;" cx="96.197" cy="100" r="113.581"/>
	<g style="clip-path:url(#SVGID_2_);">
		<g>
			<path style="fill:#5C66C6;" d="M33.697,153.624c0,0,0.367,4.071,0.865,9.753c14.242-1.354,31.772-2.73,39.367-12.685
				c-0.15-3.332-0.479-4.613-0.479-4.613L33.697,153.624z"/>
			<path style="fill:#686EE0;" d="M35.675,176.266c0.957,11.305,3.198,27.71,3.198,27.71l11.382,2.478l5.579-40.802l0.431,40.802
				h11.181c0,0,4.762-24.942,6.005-40.285c0.601-7.426,0.619-12.352,0.479-15.477c-10.433,8.543-22.925,11.88-39.454,11.699
				C34.81,166.205,35.291,171.725,35.675,176.266z"/>
			<linearGradient id="SVGID_3_" gradientUnits="userSpaceOnUse" x1="24.5455" y1="156.9069" x2="24.5455" y2="171.7408">
				<stop  offset="0" style="stop-color:#E4A769"/>
				<stop  offset="0.3723" style="stop-color:#EEB669"/>
				<stop  offset="0.871" style="stop-color:#FFD168"/>
			</linearGradient>
			<path style="fill:url(#SVGID_3_);" d="M28.668,162.825c-0.082-1.8-0.909-3.321-1.063-5.006h-5.448
				c-0.333,4.144-3.589,8.053-0.405,11.534c1.086,1.188,4.448,4.512,6.095,3.54c0.295-1.566-1.64-2.288-2.076-3.471
				c-0.414-1.122-0.165-3.931,0.369-4.889c1.194,0.549-0.09,4.192,2.106,3.466C28.844,166.584,28.739,164.384,28.668,162.825z"/>
			<path style="fill:#FFFFFF;" d="M37.994,74.858c0,0,17.494-8.446,22.261-4.942s4.766,11.48,6.216,22.356
				s2.538,24.653,2.538,36.254c0,11.601,0,21.027,0,21.027s-7.087,4.069-15.507,5.479s-11.683,0-11.683,0l-1.559-32.682
				L37.994,74.858z"/>
			<linearGradient id="SVGID_4_" gradientUnits="userSpaceOnUse" x1="64.091" y1="79.6262" x2="108.0458" y2="79.6262">
				<stop  offset="0" style="stop-color:#7124D3"/>
				<stop  offset="0.3817" style="stop-color:#8056EA"/>
				<stop  offset="1" style="stop-color:#9A7CFF"/>
			</linearGradient>
			<path style="fill:url(#SVGID_4_);" d="M104.176,59.643c0,0-5.427,10.158-10.419,17.719c-3.065,4.643-5.967,8.307-7.346,8.038
				c-3.625-0.709-12.641-13.688-16.267-16.226c-1.362-0.953-3.862-1.032-6.053-0.956c5.79,11.265,9.269,27.679,9.269,27.679
				s11.964,5.801,18.127,2.9c2.085-0.981,4.835-5.366,7.56-10.739c5.329-10.506,8.999-23.585,8.999-23.585L104.176,59.643z"/>
			<linearGradient id="SVGID_5_" gradientUnits="userSpaceOnUse" x1="55.9669" y1="111.7518" x2="74.0846" y2="111.7518">
				<stop  offset="0" style="stop-color:#7124D3"/>
				<stop  offset="0.3817" style="stop-color:#8056EA"/>
				<stop  offset="1" style="stop-color:#9A7CFF"/>
			</linearGradient>
			<path style="fill:url(#SVGID_5_);" d="M55.967,69.174c0,0,7.083,9.799,8.17,30.826c1.088,21.028-1.201,40.311,1.113,50.515
				c2.014,8.879,8.834,2.664,8.834,2.664s-0.079-5.27-0.079-16.147c0-8.064,0.075-32.248-0.647-41.135
				c-1.888-11.904-3.212-16.423-9.002-27.687C60.717,68.335,55.967,69.174,55.967,69.174z"/>
			<linearGradient id="SVGID_6_" gradientUnits="userSpaceOnUse" x1="31.1009" y1="117.2121" x2="50.8554" y2="117.2121">
				<stop  offset="0" style="stop-color:#7124D3"/>
				<stop  offset="0.3817" style="stop-color:#8056EA"/>
				<stop  offset="1" style="stop-color:#9A7CFF"/>
			</linearGradient>
			<path style="fill:url(#SVGID_6_);" d="M48.684,100.365c-1.102-14.81-5.772-28.138-5.772-28.138s-6.206,1.505-10.526,4.474
				c0.975,0,1.475,2.066,1.475,2.066c3.4,10.201-0.458,14.258-2.332,24.829c0.134,3.944,0.491,20.855,0,29.695
				c-0.564,10.151-0.41,26.04-0.41,26.04s8.523,3.998,13.236,2.548c4.713-1.45,5.083-5.076,6.167-12.326
				C51.607,142.303,49.786,115.175,48.684,100.365z"/>
			<linearGradient id="SVGID_7_" gradientUnits="userSpaceOnUse" x1="15.6562" y1="118.0416" x2="36.3373" y2="118.0416">
				<stop  offset="0" style="stop-color:#7124D3"/>
				<stop  offset="0.3817" style="stop-color:#8056EA"/>
				<stop  offset="1" style="stop-color:#9A7CFF"/>
			</linearGradient>
			<path style="fill:url(#SVGID_7_);" d="M35.228,78.839c-0.503-2.013-1.867-2.138-2.841-2.138
				c-1.128,0.775-2.144,1.617-2.894,2.518c-3.625,4.35-13.052,24.653-13.777,39.88c-0.725,15.227,5.473,39.811,5.473,39.811
				s0.538,0.733,3.8,0.37c2.231-0.248,2.385-1.049,2.798-1.095c0,0-0.832-19.509-0.47-28.572c0.362-9.064,6.051-22.276,6.051-22.276
				s0.012,0.329,0.032,0.914C35.274,97.68,37.835,89.271,35.228,78.839z"/>
			<linearGradient id="SVGID_8_" gradientUnits="userSpaceOnUse" x1="49.2823" y1="64.3486" x2="50.2687" y2="80.7899">
				<stop  offset="0.0645" style="stop-color:#C7835F"/>
				<stop  offset="0.1122" style="stop-color:#CA8761"/>
				<stop  offset="0.1568" style="stop-color:#D59266"/>
				<stop  offset="0.1774" style="stop-color:#DC9A69"/>
				<stop  offset="0.2505" style="stop-color:#DF9F69"/>
				<stop  offset="0.3065" style="stop-color:#E4A769"/>
				<stop  offset="0.5477" style="stop-color:#EEB669"/>
				<stop  offset="0.871" style="stop-color:#FFD168"/>
			</linearGradient>
			<path style="fill:url(#SVGID_8_);" d="M43.668,59.328c0,1.01,2.357,14.143,2.357,14.143s1.347,6.061,5.388,6.398
				s3.704-5.051,3.704-6.735c0-1.684-1.347-8.082-1.347-8.082L43.668,59.328z"/>
			<linearGradient id="SVGID_9_" gradientUnits="userSpaceOnUse" x1="49.6706" y1="38.7932" x2="51.6435" y2="71.6759">
				<stop  offset="0.0645" style="stop-color:#C7835F"/>
				<stop  offset="0.1122" style="stop-color:#CA8761"/>
				<stop  offset="0.1568" style="stop-color:#D59266"/>
				<stop  offset="0.1774" style="stop-color:#DC9A69"/>
				<stop  offset="0.2505" style="stop-color:#DF9F69"/>
				<stop  offset="0.3065" style="stop-color:#E4A769"/>
				<stop  offset="0.5477" style="stop-color:#EEB669"/>
				<stop  offset="0.871" style="stop-color:#FFD168"/>
			</linearGradient>
			<path style="fill:url(#SVGID_9_);" d="M56.611,39.061c0,0,5.051,3.031,5.388,9.766s-1.01,18.858-5.388,21.215
				c-4.378,2.357-13.47-1.684-16.837-10.439c-1.848-4.805-0.653-12.35,3.028-17.177C45.829,38.458,50.535,36.326,56.611,39.061z"/>
			<path style="fill:#823C3C;" d="M36.081,44.676c0,0-2.62,1.133-0.684,9.591c0.918,4.011,2.915,6.546,4.808,8.728
				c1.893,2.182,3.83,3.119,3.83,3.119l-1.567-6.174c0,0-4.71-3.809-1.042-7.321c2.444-2.341,3.399,3.337,3.399,3.337
				s0.864,1.449,1.336-0.482c0.454-1.86-0.173-5.054,0.922-6.645c1.812-2.633,5.241,0.736,6.882,1.819
				c2.249,1.485,7.351,1.315,9.464-0.57c-0.513,0.609-1.485-0.194-2.144-0.56c1.249-0.384,2.386-0.083,3.692-0.86
				c1.181-0.702,2.532-1.655,3.122-2.924c-2.769,0.038-3.676-1.542-5.101-3.655c-3.169-4.699-5.417-8.512-11.475-9.468
				c-6.402-1.01-13.765,3.513-15.117,7.124C35.191,42.982,36.081,44.676,36.081,44.676z"/>
			<linearGradient id="SVGID_10_" gradientUnits="userSpaceOnUse" x1="101.9798" y1="55.9613" x2="110.1381" y2="55.9613">
				<stop  offset="0.0588" style="stop-color:#E4A769"/>
				<stop  offset="0.2705" style="stop-color:#EEB669"/>
				<stop  offset="0.4439" style="stop-color:#F8C668"/>
				<stop  offset="0.871" style="stop-color:#FFD168"/>
			</linearGradient>
			<path style="fill:url(#SVGID_10_);" d="M102.897,61.811c-0.042-0.089-0.083-0.178-0.123-0.267
				c-0.386-0.847-0.358-1.887-0.519-2.796c-0.291-1.642-0.511-4.167,0.205-5.719c0.218-0.472,0.617-0.894,1.094-0.521
				c0.48,0.376,0.312,1.234,0.303,1.776c0.388-1.193,0.137-2.542,0.316-3.772c0.134-0.923,0.493-1.824,0.731-2.734
				c0.146-0.558,0.287-1.094,0.65-1.528c0.341-0.407,0.907-1.014,1.484-0.555c0.304,0.242,0.28,1.058,0.127,1.353
				c0.09-0.556,0.833-1.237,1.388-0.962c0.541,0.268,0.318,1.146,0.345,1.654c1.118-0.064,0.862,1.683,0.755,2.409
				c0.982-0.359,0.176,4.114,0.14,4.504c-0.048,0.516-0.136,1.037-0.207,1.54c-0.089,0.629,0.07,1.26,0.088,1.901
				c0.064,2.379,0.164,5.482-1.588,7.36c-0.745,0.799-1.721,1.336-2.683,0.557c-0.569-0.461-0.959-1.147-1.294-1.784
				C103.695,63.44,103.275,62.621,102.897,61.811z"/>
		</g>
		<g>
			
				<linearGradient id="SVGID_11_" gradientUnits="userSpaceOnUse" x1="87.5716" y1="66.4423" x2="87.5716" y2="125.1704" gradientTransform="matrix(1.1115 0.0472 -0.0424 0.9991 59.4669 95.2067)">
				<stop  offset="0.043" style="stop-color:#424C62"/>
				<stop  offset="0.5376" style="stop-color:#4B556B"/>
				<stop  offset="0.8817" style="stop-color:#566077"/>
			</linearGradient>
			<path style="fill:url(#SVGID_11_);" d="M172.194,170.107c0,0,0.962,4.794-0.852,20.073s-7.333,40.009-7.333,40.009l-10.474-0.445
				l0.124-41.851l0,0l-5.754,41.612l-10.558-2.928c0,0-1.403-16.479-1.821-27.812c-0.417-11.333-0.893-22.7-0.893-22.7
				L172.194,170.107z"/>
			<linearGradient id="SVGID_12_" gradientUnits="userSpaceOnUse" x1="168.4555" y1="137.1184" x2="183.2579" y2="137.7467">
				<stop  offset="0.0049" style="stop-color:#79729D"/>
				<stop  offset="0.092" style="stop-color:#716994"/>
				<stop  offset="0.3858" style="stop-color:#5A5079"/>
				<stop  offset="0.6474" style="stop-color:#4C4069"/>
				<stop  offset="0.8488" style="stop-color:#473B63"/>
			</linearGradient>
			<path style="fill:url(#SVGID_12_);" d="M169.371,115.553v43.208c0,0,5.293-2.316,9.276-6.085c2.136-2.022,3.896-4.463,4.26-7.189
				c0.26-1.952-0.456-4.799-1.676-7.971C177.57,127.998,169.371,115.553,169.371,115.553z"/>
			
				<linearGradient id="SVGID_13_" gradientUnits="userSpaceOnUse" x1="327.0407" y1="-4.6339" x2="347.6674" y2="-4.6339" gradientTransform="matrix(0.9991 0.0424 -0.0424 0.9991 -184.4854 84.8528)">
				<stop  offset="0.129" style="stop-color:#FFD168"/>
				<stop  offset="0.4523" style="stop-color:#EEB669"/>
				<stop  offset="0.6935" style="stop-color:#E4A769"/>
				<stop  offset="0.7495" style="stop-color:#DF9F69"/>
				<stop  offset="0.8226" style="stop-color:#DC9A69"/>
				<stop  offset="0.8432" style="stop-color:#D59266"/>
				<stop  offset="0.8878" style="stop-color:#CA8761"/>
				<stop  offset="0.9355" style="stop-color:#C7835F"/>
			</linearGradient>
			<path style="fill:url(#SVGID_13_);" d="M145.688,76.727c0,0-2.711,5.122-2.939,10.487c-0.228,5.364,0.104,12.229,1.833,15.565
				c1.729,3.336,6.693,3.873,6.693,3.873l-0.373,8.792l10.881-2.28c0,0,0.09-10.808-0.083-14.077c-0.173-3.27,4.896-15.6-1.7-21.752
				S149.56,73.629,145.688,76.727z"/>
			
				<linearGradient id="SVGID_14_" gradientUnits="userSpaceOnUse" x1="323.2498" y1="-12.7496" x2="352.6665" y2="-12.7496" gradientTransform="matrix(0.9991 0.0424 -0.0424 0.9991 -184.4854 84.8528)">
				<stop  offset="0.043" style="stop-color:#424C62"/>
				<stop  offset="0.5376" style="stop-color:#4B556B"/>
				<stop  offset="0.8817" style="stop-color:#566077"/>
			</linearGradient>
			<path style="fill:url(#SVGID_14_);" d="M144.862,70.434c-1.208-0.318-2.258-1.733-2.748-2.556
				c-0.048,1.11-0.05,2.246-0.168,3.344c-0.407-0.32-0.7-0.884-1.044-1.238c-0.613,2.999-2.793,7.945-0.478,10.604
				c2.58,2.963,4.754,3.049,8.131,3.857c-0.838,2.131,0.804,5.1,0.705,7.425c-0.061,1.447,0.349,3.694,2.117,3.786
				c0.097-1.051,0.13-3.609,0.258-4.657c1.589-1.129,2.82,1.204,2.806,2.365c-0.055,4.291-1.782,3.73-2.273,5.046
				c-0.382,1.023,0.612,2.392,1.226,3.416c2.01,3.351,5.11,2.847,8.462,2.99c0,0,7.076-10.195,6.549-19.813
				c-0.243-4.443-1.357-8.754-4.038-11.692c-2.787-3.053-6.901-4.06-10.778-3.053C152.145,70.632,145.686,70.651,144.862,70.434z"/>
			<linearGradient id="SVGID_15_" gradientUnits="userSpaceOnUse" x1="132.4127" y1="149.0501" x2="172.5293" y2="149.0501">
				<stop  offset="0.0049" style="stop-color:#79729D"/>
				<stop  offset="0.092" style="stop-color:#716994"/>
				<stop  offset="0.3858" style="stop-color:#5A5079"/>
				<stop  offset="0.6474" style="stop-color:#4C4069"/>
				<stop  offset="0.8488" style="stop-color:#473B63"/>
			</linearGradient>
			<path style="fill:url(#SVGID_15_);" d="M170.908,118.778c-1.301-5.782-5.721-8.828-14.996-9.291c0,0-8.281-0.857-12.665,1.007
				c-4.685,1.992-10.726,12.435-10.38,19.399l-0.454,53.116c0,0,3.459,6.548,18.402,5.731c14.943-0.817,20.364-6.158,20.364-6.158
				l0.855-27.706C172.034,154.875,173.705,131.207,170.908,118.778z"/>
			<linearGradient id="SVGID_16_" gradientUnits="userSpaceOnUse" x1="106.7773" y1="100.404" x2="145.8553" y2="100.404">
				<stop  offset="0.0049" style="stop-color:#79729D"/>
				<stop  offset="0.092" style="stop-color:#716994"/>
				<stop  offset="0.3858" style="stop-color:#5A5079"/>
				<stop  offset="0.6474" style="stop-color:#4C4069"/>
				<stop  offset="0.8488" style="stop-color:#473B63"/>
			</linearGradient>
			<path style="fill:url(#SVGID_16_);" d="M143.546,125.296c5.065-6.536,0.308-14.884-0.299-14.802
				c-6.466,0.874-23.692-2.885-26.304-14.842c-2.613-11.957-4.341-24.29-4.341-24.29l-5.609,0.685c0,0-1.085,22.98,1.615,32.892
				c2.7,9.912,6.942,13.066,10.874,15.587c3.279,2.103,13.398,7.914,13.398,7.914S138.808,132.158,143.546,125.296z"/>
			<linearGradient id="SVGID_17_" gradientUnits="userSpaceOnUse" x1="107.0315" y1="63.1215" x2="113.6516" y2="65.5489">
				<stop  offset="0.0494" style="stop-color:#E4A769"/>
				<stop  offset="0.4006" style="stop-color:#EEB669"/>
				<stop  offset="0.871" style="stop-color:#FFD168"/>
			</linearGradient>
			<path style="fill:url(#SVGID_17_);" d="M112.602,71.362c0.01-0.04,0.022-0.08,0.033-0.121c1.264-4.674,2.417-9.596,0.943-14.383
				c-0.132-0.429-0.619-1.481-1.172-1.476c-0.689,0.006-0.278,0.926-0.3,1.33c-0.286-0.673-0.62-2.415-1.617-2.25
				c-0.734,0.122-0.672,1.068-0.594,1.643c-0.256-0.255-0.408-0.753-0.771-0.888c-0.4-0.148-0.738,0.057-0.84,0.424
				c-0.376,1.355,0.438,2.905,0.436,4.267c-0.007-0.509-0.234-1.867-0.693-2.174c-0.836-0.56-0.955,1.085-0.955,1.504
				c-0.002,1.428,0.217,2.819,0.217,4.248c0,0.511,0.018,1.026-0.042,1.525c-0.11,0.907-0.4,1.783-0.496,2.701
				c-0.119,1.126-0.124,2.278,0.005,3.403c0.218,1.909,1.88,3.06,3.406,2.842C111.208,73.806,112.194,73.007,112.602,71.362z"/>
		</g>
		<g>
			<path style="fill:#FFFFFF;" d="M89.375,29.073c-0.294-0.299-0.792-0.318-1.111-0.044c-0.319,0.275-0.34,0.739-0.047,1.037
				L99.95,41.978c0.155,0.158,0.367,0.237,0.579,0.237c0.19,0,0.381-0.064,0.532-0.194c0.319-0.275,0.34-0.739,0.047-1.037
				L89.375,29.073z"/>
			<path style="fill:#FFFFFF;" d="M105.684,22.602c-0.43,0.057-0.729,0.429-0.668,0.83l1.671,11.013
				c0.051,0.337,0.339,0.587,0.684,0.626c0.066,0.007,0.135,0.007,0.204-0.002c0.43-0.057,0.729-0.429,0.668-0.83l-1.671-11.013
				C106.512,22.825,106.111,22.547,105.684,22.602z"/>
			<path style="fill:#FFFFFF;" d="M125.009,27.61c-0.346-0.244-0.84-0.181-1.1,0.145l-7.249,8.999
				c-0.261,0.324-0.192,0.785,0.155,1.028c0.207,0.146,0.466,0.181,0.697,0.117c0.155-0.043,0.298-0.131,0.403-0.262l7.249-8.999
				C125.426,28.315,125.356,27.854,125.009,27.61z"/>
			<path style="fill:#FFFFFF;" d="M122.452,48.751c-0.068,0.401,0.224,0.776,0.652,0.84l6.631,0.985
				c0.042,0.006,0.084,0.009,0.124,0.009c0.38,0,0.714-0.257,0.775-0.619c0.068-0.401-0.224-0.776-0.652-0.84l-6.631-0.985
				C122.914,48.075,122.52,48.351,122.452,48.751z"/>
			<path style="fill:#FFFFFF;" d="M132.47,64.25l-10.993-6.705c-0.365-0.224-0.851-0.125-1.088,0.213
				c-0.238,0.34-0.135,0.794,0.228,1.016l10.993,6.705c0.096,0.059,0.2,0.094,0.305,0.11c0.297,0.044,0.608-0.073,0.783-0.323
				C132.936,64.926,132.833,64.471,132.47,64.25z"/>
			<path style="fill:#FFFFFF;" d="M87.521,53.421h7.142c0.434,0,0.786-0.328,0.786-0.734s-0.352-0.734-0.786-0.734h-7.142
				c-0.434,0-0.786,0.328-0.786,0.734S87.087,53.421,87.521,53.421z"/>
			<path style="fill:#FFFFFF;" d="M95.754,60.169l-11.733,7.385c-0.36,0.227-0.455,0.682-0.213,1.019
				c0.152,0.211,0.4,0.324,0.652,0.324c0.151,0,0.304-0.041,0.438-0.125l11.733-7.385c0.36-0.227,0.455-0.682,0.213-1.019
				C96.602,60.03,96.113,59.942,95.754,60.169z"/>
		</g>
	</g>
</g>
</svg>
