<?xml version="1.0" encoding="iso-8859-1"?>
<!-- Generator: Adobe Illustrator 21.0.2, SVG Export Plug-In . SVG Version: 6.00 Build 0)  -->
<svg version="1.1" id="&#x421;&#x43B;&#x43E;&#x439;_1"
	 xmlns="http://www.w3.org/2000/svg" xmlns:xlink="http://www.w3.org/1999/xlink" x="0px" y="0px" viewBox="0 0 160 144"
	 style="enable-background:new 0 0 160 144;" xml:space="preserve">
<g>
	<path style="fill:#B5BCD6;" d="M67.977,113.166c-2.158,1.576-5.14,1.165-6.66-0.918L7.391,38.408
		c-1.521-2.082-1.005-5.048,1.153-6.624L50.631,1.048c2.158-1.576,5.14-1.165,6.66,0.918l53.926,73.841
		c1.521,2.082,1.005,5.048-1.153,6.624L67.977,113.166z"/>
	<g>
		<g>
			<path style="fill:#CCD7ED;" d="M85.774,115.101c-1.435,2.253-4.362,2.957-6.537,1.571L2.12,67.546
				c-2.175-1.385-2.774-4.335-1.339-6.589l28-43.954c1.435-2.253,4.362-2.957,6.537-1.571l77.117,49.126
				c2.175,1.385,2.774,4.335,1.339,6.589L85.774,115.101z"/>
			<path style="fill:#EDF1FC;" d="M87.8,115.541c-1.435,2.253-4.362,2.957-6.537,1.571L4.146,67.986
				c-2.175-1.385-2.774-4.335-1.339-6.589l28-43.954c1.435-2.253,4.362-2.957,6.537-1.571l77.117,49.126
				c2.175,1.385,2.774,4.335,1.339,6.589L87.8,115.541z"/>
		</g>
		<linearGradient id="SVGID_1_" gradientUnits="userSpaceOnUse" x1="18.1147" y1="58.6489" x2="110.4861" y2="58.6489">
			<stop  offset="0" style="stop-color:#D6D6E1"/>
			<stop  offset="0.9991" style="stop-color:#B5BCD6"/>
		</linearGradient>
		<polygon style="fill:url(#SVGID_1_);" points="103.107,91.512 18.115,37.369 25.493,25.786 110.486,79.929 		"/>
		
			<rect x="23.533" y="41.966" transform="matrix(0.5373 -0.8434 0.8434 0.5373 -33.9911 46.8373)" style="fill:#CCD7ED;" width="4.314" height="24.861"/>
		
			<rect x="26.321" y="45.764" transform="matrix(0.5373 -0.8434 0.8434 0.5373 -43.3198 54.5898)" style="fill:#CCD7ED;" width="3.54" height="42.021"/>
	</g>
	<g>
		<g>
			<g>
				<path style="fill:#96A3AA;" d="M159.292,57.78c0,0.529-0.408,0.958-0.91,0.958l0,0c-0.503,0-0.91-0.429-0.91-0.958V35.478
					c0-0.529,0.408-0.958,0.91-0.958l0,0c0.503,0,0.91,0.429,0.91,0.958V57.78z"/>
				<path style="fill:#96A3AA;" d="M159.292,86.548c0,0.529-0.408,0.958-0.91,0.958l0,0c-0.503,0-0.91-0.429-0.91-0.958V75.235
					c0-0.529,0.408-0.958,0.91-0.958l0,0c0.503,0,0.91,0.429,0.91,0.958V86.548z"/>
				<path style="fill:#9DAAB2;" d="M158.382,134.853c0,4.797-3.611,8.686-8.066,8.686H97.86c-4.455,0-8.066-3.889-8.066-8.686
					V18.997c0-4.797,3.611-8.686,8.066-8.686h52.456c4.455,0,8.066,3.889,8.066,8.686V134.853z"/>
				<linearGradient id="SVGID_2_" gradientUnits="userSpaceOnUse" x1="86.4069" y1="76.9249" x2="156.5611" y2="76.9249">
					<stop  offset="0.0049" style="stop-color:#79729D"/>
					<stop  offset="0.157" style="stop-color:#706893"/>
					<stop  offset="0.6932" style="stop-color:#554A74"/>
					<stop  offset="0.9925" style="stop-color:#4B3F68"/>
				</linearGradient>
				<path style="fill:url(#SVGID_2_);" d="M156.561,134.853c0,4.797-3.694,8.686-8.25,8.686H94.657c-4.556,0-8.25-3.889-8.25-8.686
					V18.997c0-4.797,3.694-8.686,8.25-8.686h53.654c4.556,0,8.25,3.889,8.25,8.686V134.853z"/>
				<rect x="90.068" y="21.113" style="fill:#EDF1FC;" width="62.832" height="107.983"/>
				<path style="fill:#96A3AA;" d="M125.855,16.035c0,0.784-0.604,1.42-1.349,1.42h-12.788c-0.745,0-1.349-0.636-1.349-1.42l0,0
					c0-0.784,0.604-1.42,1.349-1.42h12.788C125.252,14.615,125.855,15.251,125.855,16.035L125.855,16.035z"/>
				<ellipse style="fill:#96A3AA;" cx="130.878" cy="16.035" rx="1.721" ry="1.812"/>
				<g>
					<path style="fill:#96A3AA;" d="M125.953,139.92h-8.937c-1.801,0-3.266-1.542-3.266-3.438s1.465-3.438,3.266-3.438h8.937
						c1.801,0,3.266,1.542,3.266,3.438S127.753,139.92,125.953,139.92z M117.015,133.767c-1.421,0-2.578,1.218-2.578,2.714
						s1.157,2.714,2.578,2.714h8.937c1.421,0,2.578-1.218,2.578-2.714s-1.157-2.714-2.578-2.714H117.015z"/>
				</g>
			</g>
			<linearGradient id="SVGID_3_" gradientUnits="userSpaceOnUse" x1="91.8406" y1="64.0749" x2="151.1274" y2="64.0749">
				<stop  offset="0.328" style="stop-color:#A35ED3"/>
				<stop  offset="1" style="stop-color:#9D54CC"/>
			</linearGradient>
			<rect x="91.841" y="50.167" style="fill:url(#SVGID_3_);" width="59.287" height="27.815"/>
			<g>
				<path style="fill:#FFFFFF;" d="M98.715,67.456c0.384,0.261,1.266,0.696,2.147,0.696c1.123,0,1.692-0.662,1.692-1.497
					c0-1.132-0.91-1.637-1.863-1.637H99.81V63.12h0.854c0.726,0,1.636-0.348,1.636-1.306c0-0.679-0.441-1.184-1.365-1.184
					c-0.754,0-1.551,0.4-1.92,0.679l-0.441-1.915c0.555-0.436,1.649-0.853,2.858-0.853c1.963,0,3.058,1.271,3.058,2.82
					c0,1.201-0.555,2.158-1.692,2.629v0.034c1.109,0.244,2.006,1.271,2.006,2.769c0,1.985-1.437,3.447-3.783,3.447
					c-1.194,0-2.204-0.383-2.745-0.783L98.715,67.456z"/>
				<path style="fill:#FFFFFF;" d="M113.046,64.339c0,3.482-1.152,5.902-3.499,5.902c-2.389,0-3.441-2.629-3.455-5.832
					c0-3.291,1.123-5.867,3.513-5.867C112.064,58.542,113.046,61.24,113.046,64.339z M108.253,64.409c0,2.594,0.512,3.83,1.337,3.83
					c0.839,0,1.294-1.288,1.294-3.865c0-2.507-0.44-3.83-1.309-3.83C108.793,60.544,108.253,61.763,108.253,64.409z"/>
				<path style="fill:#FFFFFF;" d="M118.972,61.902c0,2.368-1.223,3.622-2.56,3.622c-1.408,0-2.518-1.289-2.518-3.43
					c0-2.021,1.01-3.552,2.603-3.552C118.076,58.542,118.972,59.97,118.972,61.902z M115.502,62.041
					c-0.015,1.184,0.327,2.037,0.952,2.037c0.612,0,0.91-0.766,0.91-2.055c0-1.148-0.256-2.037-0.938-2.037
					C115.786,59.987,115.502,60.892,115.502,62.041z M116.512,70.241l5.318-11.683h1.152l-5.305,11.683H116.512z M125.627,66.603
					c0,2.351-1.223,3.604-2.56,3.604c-1.394,0-2.503-1.288-2.503-3.412c0-2.02,1.01-3.552,2.588-3.552
					C124.731,63.242,125.627,64.67,125.627,66.603z M122.172,66.725c-0.015,1.184,0.327,2.037,0.938,2.037s0.91-0.767,0.91-2.037
					c0-1.149-0.256-2.037-0.925-2.037C122.456,64.688,122.172,65.593,122.172,66.725z"/>
				<path style="fill:#FFFFFF;" d="M136.627,65.697c0,3.116-1.806,4.544-3.669,4.544c-2.034,0-3.598-1.637-3.598-4.388
					c0-2.768,1.479-4.526,3.726-4.526C135.205,61.327,136.627,63.12,136.627,65.697z M131.593,65.784c0,1.463,0.498,2.56,1.422,2.56
					c0.854,0,1.38-1.027,1.38-2.577c0-1.253-0.398-2.542-1.38-2.542C131.991,63.225,131.593,64.53,131.593,65.784z"/>
				<path style="fill:#FFFFFF;" d="M142.597,70.05v-6.563h-2.219v6.563h-2.162v-6.563h-0.924v-1.95h0.924v-0.122
					c0-1.01,0.214-2.037,0.797-2.751c0.455-0.574,1.138-0.939,2.119-0.939c0.355,0,0.711,0.104,0.924,0.209l-0.299,1.949
					c-0.156-0.069-0.355-0.121-0.54-0.121c-0.654,0-0.854,0.661-0.854,1.515v0.261h2.233v-0.331c0-1.027,0.256-2.158,0.882-2.854
					c0.54-0.627,1.294-0.854,1.919-0.854c0.484,0,0.854,0.087,1.152,0.174l-0.085,2.037c-0.186-0.069-0.413-0.122-0.697-0.122
					c-0.711,0-1.01,0.68-1.01,1.515v0.436h1.394v1.95h-1.379v6.563H142.597z"/>
			</g>
		</g>
		<g>
			<linearGradient id="SVGID_4_" gradientUnits="userSpaceOnUse" x1="95.3221" y1="97.3591" x2="106.6764" y2="97.3591">
				<stop  offset="0.328" style="stop-color:#A35ED3"/>
				<stop  offset="1" style="stop-color:#9D54CC"/>
			</linearGradient>
			<polygon style="fill:url(#SVGID_4_);" points="100.999,91.96 102.754,95.515 106.676,96.085 103.838,98.851 104.508,102.758 
				100.999,100.914 97.491,102.758 98.161,98.851 95.322,96.085 99.245,95.515 			"/>
			<linearGradient id="SVGID_5_" gradientUnits="userSpaceOnUse" x1="109.6618" y1="97.3591" x2="121.0161" y2="97.3591">
				<stop  offset="0.328" style="stop-color:#A35ED3"/>
				<stop  offset="1" style="stop-color:#9D54CC"/>
			</linearGradient>
			<polygon style="fill:url(#SVGID_5_);" points="115.339,91.96 117.093,95.515 121.016,96.085 118.177,98.851 118.848,102.758 
				115.339,100.914 111.83,102.758 112.5,98.851 109.662,96.085 113.585,95.515 			"/>
			<linearGradient id="SVGID_6_" gradientUnits="userSpaceOnUse" x1="124.0014" y1="97.3591" x2="135.3557" y2="97.3591">
				<stop  offset="0.328" style="stop-color:#A35ED3"/>
				<stop  offset="1" style="stop-color:#9D54CC"/>
			</linearGradient>
			<polygon style="fill:url(#SVGID_6_);" points="129.679,91.96 131.433,95.515 135.356,96.085 132.517,98.851 133.187,102.758 
				129.679,100.914 126.17,102.758 126.84,98.851 124.001,96.085 127.924,95.515 			"/>
			<linearGradient id="SVGID_7_" gradientUnits="userSpaceOnUse" x1="138.341" y1="97.3591" x2="149.6953" y2="97.3591">
				<stop  offset="0.328" style="stop-color:#A35ED3"/>
				<stop  offset="1" style="stop-color:#9D54CC"/>
			</linearGradient>
			<polygon style="fill:url(#SVGID_7_);" points="144.018,91.96 145.773,95.515 149.695,96.085 146.857,98.851 147.527,102.758 
				144.018,100.914 140.51,102.758 141.18,98.851 138.341,96.085 142.264,95.515 			"/>
		</g>
	</g>
	<g>
		<circle style="fill:#663EFF;" cx="49.994" cy="109.168" r="34.832"/>
		<g>
			<path style="fill:#FFFFFF;" d="M71.201,101.392c-3.142,2.756-8.439,7.688-8.98,7.696c-0.052,0.045-0.286,0.002-0.349-0.064
				c-0.349-0.109-0.57-0.369-0.658-0.686c-0.057-0.059-0.092-0.271-0.052-0.317c-0.003-0.455,4.837-5.767,7.593-8.931
				c-0.296-0.281-0.592-0.562-0.888-0.843c-2.408,2.122-4.8,4.265-7.275,6.307c-0.081,0.067-0.353,0.388-0.677,0.668
				c-0.131,0.196-0.334,0.332-0.602,0.391c-0.082,0.03-0.162,0.049-0.239,0.049c-0.116,0-0.206-0.024-0.284-0.058
				c-0.52-0.137-0.768-0.62-0.744-1.087c0.022-0.428,4.87-5.598,7.5-8.46c-0.206-0.194-0.41-0.388-0.616-0.581
				c-1.232,0.276-3.041,0.838-3.995,1.446c-4.326,2.756-7.423,6.204-7.435,11.896c-0.003,1.408-1.15,2.815-2.187,4.344
				c0.029,0.024,0.06,0.033,0.087,0.063c0.837,0.904,1.72,1.749,2.667,2.516c1.403-1.714,3.007-2.434,5.291-2.397
				c5.391,0.087,11.54-5.761,12.442-11.392C71.6,101.765,71.4,101.579,71.201,101.392z"/>
			<path style="fill:#FFFFFF;" d="M46.445,118.226c-2.776,2.511-7.938,6.402-10.559,8.847c-1.335,1.245-1.607,2.796-0.273,4.145
				c1.332,1.347,2.905,1.096,4.154-0.214c2.416-2.531,6.587-7.021,9.382-10.074C47.973,119.851,47.602,119.288,46.445,118.226z"/>
			<path style="fill:#FFFFFF;" d="M58.503,121.938c-3.929-3.677-10.884-9.86-11.726-10.912c-0.413-0.516-0.746-1.068-0.979-1.69
				c-0.333-0.891-0.46-1.924-0.317-3.198c0.669-5.936-8.683-12.459-14.32-10.445c-2.006,0.717-2.848,2.216-2.958,4.266
				c-0.363,6.794,5.431,12.661,12.198,12.676c1.443,0.003,3.225,0.899,4.265,1.959c4.746,4.831,9.284,9.867,13.897,14.829
				c0.442,0.476,0.88,0.956,1.336,1.42c1.29,1.314,2.806,1.686,4.163,0.338c1.454-1.444,1.076-3.047-0.351-4.376
				C62.696,125.858,60.679,123.974,58.503,121.938z M36.608,109.035c-6.459-2.109-6.591-9.622-6.591-9.622s2.162,6.401,6.854,8.436
				c4.692,2.035,6.854-1.318,6.854-1.318S43.067,111.144,36.608,109.035z"/>
		</g>
	</g>
</g>
</svg>
