<svg width="36" height="36" viewBox="0 0 36 36" fill="none" xmlns="http://www.w3.org/2000/svg">
<g clip-path="url(#clip0_1236_1967)">
<path d="M29.1125 10.5237L23.169 9.66003L20.511 4.27438C19.4844 2.19404 16.5157 2.19468 15.4894 4.27431L12.8314 9.65996L6.88795 10.5237C4.59204 10.8572 3.67558 13.6806 5.33622 15.2995L9.63696 19.4917L8.62172 25.4109C8.22958 27.6976 10.6314 29.4416 12.6843 28.3627L18.0003 25.5677L23.3163 28.3627C25.3664 29.4403 27.771 27.6972 27.3789 25.4109L26.3637 19.4916L30.6645 15.2994C32.3254 13.68 31.4074 10.8572 29.1125 10.5237ZM28.989 13.5809L24.2365 18.2134C23.9537 18.4891 23.8247 18.8863 23.8914 19.2756L25.0133 25.8168C25.0696 26.1453 24.7278 26.3934 24.433 26.2385L18.5586 23.1501C18.209 22.9664 17.7913 22.9664 17.4418 23.1501L11.5674 26.2385C11.2724 26.3935 10.9307 26.1452 10.987 25.8168L12.1089 19.2756C12.1757 18.8863 12.0466 18.4891 11.7638 18.2134L7.01135 13.5809C6.77264 13.3483 6.90321 12.9467 7.23304 12.8986L13.8008 11.9443C14.1916 11.8875 14.5295 11.6421 14.7043 11.2879L17.6415 5.33645C17.789 5.03776 18.2114 5.03755 18.3589 5.33652L21.2961 11.2879C21.4709 11.6421 21.8088 11.8875 22.1996 11.9443L28.7674 12.8986C29.0971 12.9467 29.2276 13.3483 28.989 13.5809Z" fill="#00C24E"/>
<path d="M9.47317 3.31519L8.03802 1.3399C7.64835 0.80384 6.89797 0.684871 6.36191 1.07454C5.82578 1.46407 5.70688 2.21452 6.09648 2.75065L7.53163 4.72587C7.92144 5.26221 8.67182 5.38069 9.20774 4.99123C9.74387 4.60177 9.86277 3.85132 9.47317 3.31519Z" fill="#00C24E"/>
<path d="M4.71077 21.0171C4.50609 20.3868 3.82912 20.0416 3.1987 20.2466L0.829453 21.0165C0.199172 21.2213 -0.145711 21.8982 0.0590389 22.5286C0.264141 23.1599 0.942234 23.5036 1.57111 23.299L3.94036 22.5291C4.57071 22.3243 4.91559 21.6473 4.71077 21.0171Z" fill="#00C24E"/>
<path d="M29.6374 1.07499C29.1014 0.68546 28.3509 0.804217 27.9613 1.34035L26.5262 3.31557C26.1366 3.8517 26.2555 4.60222 26.7916 4.99168C27.3279 5.38135 28.0783 5.26224 28.4677 4.72632L29.9029 2.7511C30.2924 2.21497 30.1736 1.46445 29.6374 1.07499Z" fill="#00C24E"/>
<path d="M35.1709 21.0165L32.8016 20.2467C32.1713 20.0415 31.4944 20.3868 31.2895 21.0171C31.0847 21.6474 31.4296 22.3244 32.06 22.5292L34.4292 23.299C35.0581 23.5036 35.7362 23.1599 35.9413 22.5286C36.1461 21.8983 35.8011 21.2214 35.1709 21.0165Z" fill="#00C24E"/>
<path d="M18.0007 30.3193C17.338 30.3193 16.8008 30.8566 16.8008 31.5193V33.9548C16.8008 34.6175 17.338 35.1547 18.0007 35.1547C18.6634 35.1547 19.2007 34.6175 19.2007 33.9548V31.5193C19.2008 30.8565 18.6635 30.3193 18.0007 30.3193Z" fill="#00C24E"/>
</g>
<defs>
<clipPath id="clip0_1236_1967">
<rect width="36" height="36" fill="white"/>
</clipPath>
</defs>
</svg>
