<svg width="36" height="36" viewBox="0 0 36 36" fill="none" xmlns="http://www.w3.org/2000/svg">
<path fill-rule="evenodd" clip-rule="evenodd" d="M17.8957 22.1901C14.8139 21.9021 11.6601 22.5706 8.9422 24.189C8.69033 24.339 8.41436 24.4954 8.1253 24.6595C7.05639 25.266 5.80835 25.974 4.93822 26.8257C4.39802 27.3544 4.16776 27.7906 4.13092 28.1275C4.10167 28.3951 4.16932 28.8363 4.84526 29.4802C6.39904 30.9606 7.9779 31.875 9.88657 31.875H19.5002C20.1215 31.875 20.6252 32.3787 20.6252 33C20.6252 33.6213 20.1215 34.125 19.5002 34.125H9.88657C7.1591 34.125 5.05044 32.7834 3.29326 31.1094C2.27473 30.139 1.76704 29.0469 1.89424 27.8832C2.01386 26.7888 2.67184 25.8955 3.36435 25.2177C4.4716 24.1339 6.08787 23.2221 7.15708 22.6189C7.40109 22.4812 7.61659 22.3596 7.79107 22.2558C10.9322 20.3854 14.5648 19.6189 18.1049 19.9498C18.7235 20.0076 19.1782 20.556 19.1204 21.1746C19.0625 21.7932 18.5143 22.2478 17.8957 22.1901Z" fill="#00C24E"/>
<path fill-rule="evenodd" clip-rule="evenodd" d="M16.5 4.125C13.3934 4.125 10.875 6.64339 10.875 9.75C10.875 12.8566 13.3934 15.375 16.5 15.375C19.6066 15.375 22.125 12.8566 22.125 9.75C22.125 6.64339 19.6066 4.125 16.5 4.125ZM8.625 9.75C8.625 5.40075 12.1508 1.875 16.5 1.875C20.8492 1.875 24.375 5.40075 24.375 9.75C24.375 14.0992 20.8492 17.625 16.5 17.625C12.1508 17.625 8.625 14.0992 8.625 9.75Z" fill="#00C24E"/>
<path fill-rule="evenodd" clip-rule="evenodd" d="M26.9994 22.1836C25.8402 21.359 23.9697 20.9066 21.9457 22.1137C20.4361 23.0138 19.6537 24.8501 19.9297 26.8508C20.2078 28.8667 21.5314 31.0301 24.1461 32.9117C24.1833 32.9384 24.2203 32.9651 24.2571 32.9918C25.0879 33.5914 25.8274 34.1249 26.9994 34.1249C28.1713 34.1249 28.9108 33.5914 29.7418 32.9918C29.7786 32.9651 29.8156 32.9384 29.8528 32.9117C32.4675 31.0301 33.7911 28.8667 34.0692 26.8508C34.3452 24.8501 33.5626 23.0138 32.0532 22.1137C30.0292 20.9066 28.1587 21.359 26.9994 22.1836ZM25.7154 24.0316C25.1839 23.6434 24.267 23.3489 23.0982 24.0461C22.4959 24.4052 21.9837 25.2758 22.1586 26.5433C22.3314 27.7958 23.2042 29.462 25.4602 31.0853C26.4384 31.7893 26.6139 31.8749 26.9994 31.8749C27.385 31.8749 27.5604 31.7893 28.5387 31.0853C30.7947 29.462 31.6675 27.7958 31.8403 26.5433C32.0151 25.2758 31.5028 24.4052 30.9007 24.0461C29.7318 23.3489 28.815 23.6434 28.2834 24.0316L28.2598 24.0488C28.1077 24.1598 27.9525 24.2732 27.8223 24.3562C27.7518 24.401 27.6547 24.4591 27.5431 24.5081C27.4396 24.5536 27.2457 24.6268 26.9994 24.6268C26.7531 24.6268 26.5593 24.5536 26.4556 24.5081C26.344 24.4591 26.2471 24.401 26.1766 24.3562C26.0464 24.2732 25.8912 24.1598 25.7391 24.0488C25.7311 24.043 25.7233 24.0373 25.7154 24.0316Z" fill="#00C24E"/>
</svg>
