<svg width="310" height="24" viewBox="0 0 310 24" fill="none" xmlns="http://www.w3.org/2000/svg">
<path d="M291.344 0.328125H300.078C301.818 0.328125 303.323 0.588542 304.594 1.10938C305.875 1.63021 306.859 2.40104 307.547 3.42188C308.234 4.44271 308.578 5.70312 308.578 7.20312C308.578 8.45312 308.375 9.51562 307.969 10.3906C307.562 11.2656 306.99 11.9896 306.25 12.5625C305.521 13.1354 304.667 13.599 303.688 13.9531L302.031 14.8594H294.594L294.562 10.9062H300.094C300.854 10.9062 301.484 10.7708 301.984 10.5C302.484 10.2292 302.859 9.84896 303.109 9.35938C303.37 8.85938 303.5 8.27604 303.5 7.60938C303.5 6.92188 303.37 6.32812 303.109 5.82812C302.849 5.32812 302.464 4.94792 301.953 4.6875C301.453 4.41667 300.828 4.28125 300.078 4.28125H296.438V23.0781H291.344V0.328125ZM303.938 23.0781L298.828 12.9688L304.203 12.9531L309.391 22.8438V23.0781H303.938Z" fill="#020122"/>
<path d="M288.844 19.1406V23.0781H276.734V19.1406H288.844ZM278.469 0.328125V23.0781H273.375V0.328125H278.469ZM287.281 9.48438V13.2969H276.734V9.48438H287.281ZM288.859 0.328125V4.28125H276.734V0.328125H288.859Z" fill="#020122"/>
<path d="M261.906 13.25H256.062L256.031 9.84375H260.859C261.714 9.84375 262.406 9.73958 262.938 9.53125C263.479 9.32292 263.875 9.02083 264.125 8.625C264.375 8.21875 264.5 7.71875 264.5 7.125C264.5 6.44792 264.375 5.90104 264.125 5.48438C263.875 5.06771 263.479 4.76562 262.938 4.57812C262.406 4.38021 261.719 4.28125 260.875 4.28125H257.906V23.0781H252.812V0.328125H260.875C262.24 0.328125 263.458 0.453125 264.531 0.703125C265.604 0.953125 266.516 1.33854 267.266 1.85938C268.026 2.38021 268.604 3.03125 269 3.8125C269.396 4.59375 269.594 5.51562 269.594 6.57812C269.594 7.50521 269.385 8.36979 268.969 9.17188C268.562 9.97396 267.906 10.625 267 11.125C266.094 11.625 264.88 11.8958 263.359 11.9375L261.906 13.25ZM261.703 23.0781H254.766L256.609 19.1406H261.703C262.484 19.1406 263.12 19.0156 263.609 18.7656C264.099 18.5156 264.458 18.1771 264.688 17.75C264.917 17.3229 265.031 16.8438 265.031 16.3125C265.031 15.6875 264.922 15.1458 264.703 14.6875C264.495 14.2292 264.161 13.875 263.703 13.625C263.255 13.375 262.656 13.25 261.906 13.25H257.344L257.375 9.84375H262.953L264.141 11.1875C265.589 11.1562 266.745 11.3906 267.609 11.8906C268.484 12.3802 269.115 13.026 269.5 13.8281C269.885 14.6302 270.078 15.4792 270.078 16.375C270.078 17.8542 269.76 19.0938 269.125 20.0938C268.49 21.0833 267.547 21.8281 266.297 22.3281C265.057 22.8281 263.526 23.0781 261.703 23.0781Z" fill="#020122"/>
<path d="M250.312 19.1406V23.0781H238.203V19.1406H250.312ZM239.938 0.328125V23.0781H234.844V0.328125H239.938ZM248.75 9.48438V13.2969H238.203V9.48438H248.75ZM250.328 0.328125V4.28125H238.203V0.328125H250.328Z" fill="#020122"/>
<path d="M231.359 11.0625V20.2344C230.984 20.6615 230.411 21.1198 229.641 21.6094C228.88 22.099 227.906 22.5208 226.719 22.875C225.531 23.2188 224.115 23.3906 222.469 23.3906C220.979 23.3906 219.625 23.151 218.406 22.6719C217.188 22.1823 216.141 21.4688 215.266 20.5312C214.391 19.5833 213.714 18.4271 213.234 17.0625C212.766 15.6979 212.531 14.1354 212.531 12.375V11.0312C212.531 9.27083 212.766 7.70833 213.234 6.34375C213.703 4.97917 214.365 3.82812 215.219 2.89062C216.073 1.94271 217.089 1.22396 218.266 0.734375C219.443 0.244792 220.745 0 222.172 0C224.203 0 225.865 0.328125 227.156 0.984375C228.448 1.63021 229.427 2.52604 230.094 3.67188C230.771 4.81771 231.188 6.13542 231.344 7.625H226.438C226.333 6.86458 226.125 6.20833 225.812 5.65625C225.51 5.10417 225.078 4.68229 224.516 4.39062C223.953 4.08854 223.224 3.9375 222.328 3.9375C221.609 3.9375 220.958 4.08854 220.375 4.39062C219.802 4.68229 219.318 5.125 218.922 5.71875C218.526 6.3125 218.224 7.05208 218.016 7.9375C217.807 8.8125 217.703 9.83333 217.703 11V12.375C217.703 13.5417 217.807 14.5677 218.016 15.4531C218.234 16.3385 218.552 17.0781 218.969 17.6719C219.385 18.2552 219.911 18.6979 220.547 19C221.193 19.3021 221.943 19.4531 222.797 19.4531C223.464 19.4531 224.026 19.401 224.484 19.2969C224.943 19.1823 225.318 19.0417 225.609 18.875C225.901 18.6979 226.12 18.5365 226.266 18.3906V14.6094H222.219V11.0625H231.359Z" fill="#020122"/>
<path d="M204.031 0.328125V23.0781H198.953V0.328125H204.031ZM210.953 0.328125V4.28125H192.172V0.328125H210.953Z" fill="#020122"/>
<path d="M183.141 4.65625L177.266 23.0781H171.828L180.25 0.328125H183.688L183.141 4.65625ZM188.016 23.0781L182.125 4.65625L181.516 0.328125H185L193.453 23.0781H188.016ZM187.766 14.6094V18.5469H175.906V14.6094H187.766Z" fill="#020122"/>
<path d="M153 0.328125H161.734C163.474 0.328125 164.979 0.588542 166.25 1.10938C167.531 1.63021 168.516 2.40104 169.203 3.42188C169.891 4.44271 170.234 5.70312 170.234 7.20312C170.234 8.45312 170.031 9.51562 169.625 10.3906C169.219 11.2656 168.646 11.9896 167.906 12.5625C167.177 13.1354 166.323 13.599 165.344 13.9531L163.688 14.8594H156.25L156.219 10.9062H161.75C162.51 10.9062 163.141 10.7708 163.641 10.5C164.141 10.2292 164.516 9.84896 164.766 9.35938C165.026 8.85938 165.156 8.27604 165.156 7.60938C165.156 6.92188 165.026 6.32812 164.766 5.82812C164.505 5.32812 164.12 4.94792 163.609 4.6875C163.109 4.41667 162.484 4.28125 161.734 4.28125H158.094V23.0781H153V0.328125ZM165.594 23.0781L160.484 12.9688L165.859 12.9531L171.047 22.8438V23.0781H165.594Z" fill="#020122"/>
<path d="M136.469 0.328125V23.0781H131.391V0.328125H136.469ZM143.391 0.328125V4.28125H124.609V0.328125H143.391Z" fill="#020122"/>
<path d="M110.562 0.328125V23.0781H105.469V0.328125H110.562ZM124.156 0.328125L115.25 11.7031L110.062 17.3281L109.141 12.5938L112.562 7.6875L117.906 0.328125H124.156ZM118.25 23.0781L111.969 12.6875L115.844 9.67188L124.281 23.0781H118.25Z" fill="#020122"/>
<path d="M96.7344 0.328125H101.828V15.2656C101.828 17.0365 101.453 18.526 100.703 19.7344C99.9635 20.9427 98.9323 21.8542 97.6094 22.4688C96.2865 23.0833 94.7552 23.3906 93.0156 23.3906C91.2656 23.3906 89.724 23.0833 88.3906 22.4688C87.0677 21.8542 86.026 20.9427 85.2656 19.7344C84.5156 18.526 84.1406 17.0365 84.1406 15.2656V0.328125H89.25V15.2656C89.25 16.2448 89.3958 17.0469 89.6875 17.6719C89.9896 18.2865 90.4219 18.7396 90.9844 19.0312C91.5469 19.3125 92.224 19.4531 93.0156 19.4531C93.8073 19.4531 94.4792 19.3125 95.0312 19.0312C95.5938 18.7396 96.0156 18.2865 96.2969 17.6719C96.5885 17.0469 96.7344 16.2448 96.7344 15.2656V0.328125Z" fill="#020122"/>
<path d="M70.7344 23.0781H65.7344L65.7656 19.1406H70.7344C71.8698 19.1406 72.8281 18.8802 73.6094 18.3594C74.3906 17.8281 74.9844 17.0469 75.3906 16.0156C75.7969 14.974 76 13.7083 76 12.2188V11.1719C76 10.0469 75.8854 9.05729 75.6562 8.20312C75.4271 7.33854 75.0885 6.61458 74.6406 6.03125C74.1927 5.44792 73.6354 5.01042 72.9688 4.71875C72.3125 4.42708 71.5573 4.28125 70.7031 4.28125H65.6406V0.328125H70.7031C72.2448 0.328125 73.651 0.588542 74.9219 1.10938C76.2031 1.63021 77.3073 2.375 78.2344 3.34375C79.1719 4.3125 79.8958 5.45833 80.4062 6.78125C80.9167 8.10417 81.1719 9.57812 81.1719 11.2031V12.2188C81.1719 13.8333 80.9167 15.3073 80.4062 16.6406C79.8958 17.9635 79.1719 19.1094 78.2344 20.0781C77.3073 21.0365 76.2083 21.776 74.9375 22.2969C73.6667 22.8177 72.2656 23.0781 70.7344 23.0781ZM68.625 0.328125V23.0781H63.5312V0.328125H68.625Z" fill="#020122"/>
<path d="M60.4062 11.2031V12.2188C60.4062 13.9479 60.1667 15.5 59.6875 16.875C59.2188 18.25 58.5469 19.4219 57.6719 20.3906C56.8073 21.3594 55.776 22.1042 54.5781 22.625C53.3906 23.1354 52.0729 23.3906 50.625 23.3906C49.1771 23.3906 47.8542 23.1354 46.6562 22.625C45.4583 22.1042 44.4167 21.3594 43.5312 20.3906C42.6562 19.4219 41.9792 18.25 41.5 16.875C41.0208 15.5 40.7812 13.9479 40.7812 12.2188V11.2031C40.7812 9.47396 41.0208 7.92188 41.5 6.54688C41.9792 5.16146 42.651 3.98438 43.5156 3.01562C44.3906 2.04688 45.4271 1.30729 46.625 0.796875C47.8229 0.276042 49.1458 0.015625 50.5938 0.015625C52.0417 0.015625 53.3646 0.276042 54.5625 0.796875C55.7604 1.30729 56.7917 2.04688 57.6562 3.01562C58.5312 3.98438 59.2083 5.16146 59.6875 6.54688C60.1667 7.92188 60.4062 9.47396 60.4062 11.2031ZM55.2656 12.2188V11.1719C55.2656 10.0156 55.1615 8.99479 54.9531 8.10938C54.7448 7.21354 54.4427 6.46354 54.0469 5.85938C53.651 5.25521 53.1615 4.80208 52.5781 4.5C51.9948 4.1875 51.3333 4.03125 50.5938 4.03125C49.8229 4.03125 49.151 4.1875 48.5781 4.5C48.0052 4.80208 47.5208 5.25521 47.125 5.85938C46.7396 6.46354 46.4427 7.21354 46.2344 8.10938C46.0365 8.99479 45.9375 10.0156 45.9375 11.1719V12.2188C45.9375 13.3646 46.0365 14.3854 46.2344 15.2812C46.4427 16.1667 46.7448 16.9167 47.1406 17.5312C47.5365 18.1458 48.0208 18.6094 48.5938 18.9219C49.1771 19.2344 49.8542 19.3906 50.625 19.3906C51.3646 19.3906 52.0208 19.2344 52.5938 18.9219C53.1771 18.6094 53.6667 18.1458 54.0625 17.5312C54.4583 16.9167 54.7552 16.1667 54.9531 15.2812C55.1615 14.3854 55.2656 13.3646 55.2656 12.2188Z" fill="#020122"/>
<path d="M20.75 0.328125H29.4844C31.224 0.328125 32.7292 0.588542 34 1.10938C35.2812 1.63021 36.2656 2.40104 36.9531 3.42188C37.6406 4.44271 37.9844 5.70312 37.9844 7.20312C37.9844 8.45312 37.7812 9.51562 37.375 10.3906C36.9688 11.2656 36.3958 11.9896 35.6562 12.5625C34.9271 13.1354 34.0729 13.599 33.0938 13.9531L31.4375 14.8594H24L23.9688 10.9062H29.5C30.2604 10.9062 30.8906 10.7708 31.3906 10.5C31.8906 10.2292 32.2656 9.84896 32.5156 9.35938C32.776 8.85938 32.9062 8.27604 32.9062 7.60938C32.9062 6.92188 32.776 6.32812 32.5156 5.82812C32.2552 5.32812 31.8698 4.94792 31.3594 4.6875C30.8594 4.41667 30.2344 4.28125 29.4844 4.28125H25.8438V23.0781H20.75V0.328125ZM33.3438 23.0781L28.2344 12.9688L33.6094 12.9531L38.7969 22.8438V23.0781H33.3438Z" fill="#020122"/>
<path d="M8.96875 15.1719H3.25V11.2188H8.96875C9.8125 11.2188 10.4896 11.0781 11 10.7969C11.5208 10.5156 11.901 10.1302 12.1406 9.64062C12.3906 9.14062 12.5156 8.57812 12.5156 7.95312C12.5156 7.30729 12.3906 6.70833 12.1406 6.15625C11.901 5.59375 11.5208 5.14062 11 4.79688C10.4896 4.45312 9.8125 4.28125 8.96875 4.28125H5.09375V23.0781H0V0.328125H8.96875C10.7812 0.328125 12.3333 0.65625 13.625 1.3125C14.9271 1.96875 15.9219 2.86979 16.6094 4.01562C17.3073 5.15104 17.6562 6.45312 17.6562 7.92188C17.6562 9.39062 17.3073 10.6667 16.6094 11.75C15.9219 12.8333 14.9271 13.6771 13.625 14.2812C12.3333 14.875 10.7812 15.1719 8.96875 15.1719Z" fill="#020122"/>
</svg>
