<svg width="173" height="51" viewBox="0 0 173 51" fill="none" xmlns="http://www.w3.org/2000/svg">
<g clip-path="url(#clip0_1242_7212)">
<path d="M12.4258 35.5814V50.9927C12.4258 50.9927 -0.00378227 51.597 -0.00378227 42.8199V42.5627C-0.00378227 42.502 -0.00378323 42.4414 0.0108051 42.3977C0.132378 40.8714 1.37243 35.5838 12.4234 35.5838L12.4258 35.5814Z" fill="#266DBB"/>
<path d="M155.175 0H8.33015C3.72984 0 0 3.72241 0 8.31355V42.5603C0 42.4996 0 42.4389 0.0145874 42.3953C0.136169 40.8689 1.37621 35.5813 12.4271 35.5813H155.175C165.02 35.5813 173 27.6172 173 17.7919C173 7.96412 165.02 0 155.175 0Z" fill="#3590F3"/>
<path d="M47.3672 23.2802L49.4609 11.9052H50.7422L48.6484 23.2802H47.3672ZM50.4141 23.2802L52.5078 11.9052H53.7891L51.6953 23.2802H50.4141ZM54.8516 16.3661H46.7266V15.1552H54.8516V16.3661ZM54.2656 20.077H46.1328V18.8661H54.2656V20.077ZM61.1172 11.8661V23.2802H59.2344V14.1005L56.4453 15.0458V13.4911L60.8906 11.8661H61.1172ZM73.6562 11.9052V23.2802H71.7109V11.9052H73.6562ZM77.2266 11.9052V13.4677H68.1719V11.9052H77.2266ZM77.0859 19.1473V18.9677C77.0859 18.3583 77.1745 17.7932 77.3516 17.2723C77.5286 16.7463 77.7839 16.2906 78.1172 15.9052C78.4557 15.5145 78.8672 15.2124 79.3516 14.9989C79.8411 14.7802 80.3932 14.6708 81.0078 14.6708C81.6276 14.6708 82.1797 14.7802 82.6641 14.9989C83.1536 15.2124 83.5677 15.5145 83.9062 15.9052C84.2448 16.2906 84.5026 16.7463 84.6797 17.2723C84.8568 17.7932 84.9453 18.3583 84.9453 18.9677V19.1473C84.9453 19.7567 84.8568 20.3218 84.6797 20.8427C84.5026 21.3635 84.2448 21.8192 83.9062 22.2098C83.5677 22.5953 83.1562 22.8973 82.6719 23.1161C82.1875 23.3296 81.638 23.4364 81.0234 23.4364C80.4036 23.4364 79.849 23.3296 79.3594 23.1161C78.875 22.8973 78.4635 22.5953 78.125 22.2098C77.7865 21.8192 77.5286 21.3635 77.3516 20.8427C77.1745 20.3218 77.0859 19.7567 77.0859 19.1473ZM78.9688 18.9677V19.1473C78.9688 19.5275 79.0078 19.8869 79.0859 20.2255C79.1641 20.564 79.2865 20.8609 79.4531 21.1161C79.6198 21.3713 79.8333 21.5718 80.0938 21.7177C80.3542 21.8635 80.6641 21.9364 81.0234 21.9364C81.3724 21.9364 81.6745 21.8635 81.9297 21.7177C82.1901 21.5718 82.4036 21.3713 82.5703 21.1161C82.737 20.8609 82.8594 20.564 82.9375 20.2255C83.0208 19.8869 83.0625 19.5275 83.0625 19.1473V18.9677C83.0625 18.5927 83.0208 18.2385 82.9375 17.9052C82.8594 17.5666 82.7344 17.2671 82.5625 17.0067C82.3958 16.7463 82.1823 16.5432 81.9219 16.3973C81.6667 16.2463 81.362 16.1708 81.0078 16.1708C80.6536 16.1708 80.3464 16.2463 80.0859 16.3973C79.8307 16.5432 79.6198 16.7463 79.4531 17.0067C79.2865 17.2671 79.1641 17.5666 79.0859 17.9052C79.0078 18.2385 78.9688 18.5927 78.9688 18.9677ZM88.4141 16.452V26.5302H86.5312V14.827H88.2656L88.4141 16.452ZM93.9219 18.9755V19.1395C93.9219 19.7541 93.849 20.3244 93.7031 20.8505C93.5625 21.3713 93.3516 21.827 93.0703 22.2177C92.7943 22.6031 92.4531 22.9025 92.0469 23.1161C91.6406 23.3296 91.1719 23.4364 90.6406 23.4364C90.1146 23.4364 89.6536 23.34 89.2578 23.1473C88.8672 22.9494 88.5365 22.6708 88.2656 22.3114C87.9948 21.952 87.776 21.5302 87.6094 21.0458C87.4479 20.5562 87.3333 20.0197 87.2656 19.4364V18.8036C87.3333 18.1838 87.4479 17.6213 87.6094 17.1161C87.776 16.6109 87.9948 16.176 88.2656 15.8114C88.5365 15.4468 88.8672 15.1656 89.2578 14.9677C89.6484 14.7697 90.1042 14.6708 90.625 14.6708C91.1562 14.6708 91.6276 14.7749 92.0391 14.9833C92.4505 15.1864 92.7969 15.4781 93.0781 15.8583C93.3594 16.2333 93.5703 16.6864 93.7109 17.2177C93.8516 17.7437 93.9219 18.3296 93.9219 18.9755ZM92.0391 19.1395V18.9755C92.0391 18.5848 92.0026 18.2229 91.9297 17.8895C91.8568 17.551 91.7422 17.2541 91.5859 16.9989C91.4297 16.7437 91.2292 16.5458 90.9844 16.4052C90.7448 16.2593 90.4557 16.1864 90.1172 16.1864C89.7839 16.1864 89.4974 16.2437 89.2578 16.3583C89.0182 16.4677 88.8177 16.6213 88.6562 16.8192C88.4948 17.0171 88.3698 17.2489 88.2812 17.5145C88.1927 17.7749 88.1302 18.0588 88.0938 18.3661V19.8817C88.1562 20.2567 88.263 20.6005 88.4141 20.913C88.5651 21.2255 88.7786 21.4755 89.0547 21.663C89.3359 21.8453 89.6953 21.9364 90.1328 21.9364C90.4714 21.9364 90.7604 21.8635 91 21.7177C91.2396 21.5718 91.4349 21.3713 91.5859 21.1161C91.7422 20.8557 91.8568 20.5562 91.9297 20.2177C92.0026 19.8791 92.0391 19.5197 92.0391 19.1395ZM104.016 19.038H101.055V17.4833H104.016C104.531 17.4833 104.948 17.3999 105.266 17.2333C105.583 17.0666 105.815 16.8374 105.961 16.5458C106.112 16.2489 106.188 15.9104 106.188 15.5302C106.188 15.1708 106.112 14.8348 105.961 14.5223C105.815 14.2046 105.583 13.9494 105.266 13.7567C104.948 13.564 104.531 13.4677 104.016 13.4677H101.656V23.2802H99.6953V11.9052H104.016C104.896 11.9052 105.643 12.0614 106.258 12.3739C106.878 12.6812 107.349 13.1083 107.672 13.6552C107.995 14.1968 108.156 14.8166 108.156 15.5145C108.156 16.2489 107.995 16.8791 107.672 17.4052C107.349 17.9312 106.878 18.3348 106.258 18.6161C105.643 18.8973 104.896 19.038 104.016 19.038ZM111.742 14.827V23.2802H109.852V14.827H111.742ZM109.727 12.6083C109.727 12.3218 109.82 12.0848 110.008 11.8973C110.201 11.7046 110.466 11.6083 110.805 11.6083C111.138 11.6083 111.401 11.7046 111.594 11.8973C111.786 12.0848 111.883 12.3218 111.883 12.6083C111.883 12.8895 111.786 13.1239 111.594 13.3114C111.401 13.4989 111.138 13.5927 110.805 13.5927C110.466 13.5927 110.201 13.4989 110.008 13.3114C109.82 13.1239 109.727 12.8895 109.727 12.6083ZM117.258 21.9364C117.565 21.9364 117.841 21.8765 118.086 21.7567C118.336 21.6317 118.536 21.4598 118.688 21.2411C118.844 21.0223 118.93 20.7697 118.945 20.4833H120.719C120.708 21.0302 120.547 21.5275 120.234 21.9755C119.922 22.4234 119.508 22.7802 118.992 23.0458C118.477 23.3062 117.906 23.4364 117.281 23.4364C116.635 23.4364 116.073 23.327 115.594 23.1083C115.115 22.8843 114.716 22.577 114.398 22.1864C114.081 21.7958 113.841 21.3453 113.68 20.8348C113.523 20.3244 113.445 19.7775 113.445 19.1942V18.9208C113.445 18.3374 113.523 17.7906 113.68 17.2802C113.841 16.7645 114.081 16.3114 114.398 15.9208C114.716 15.5302 115.115 15.2255 115.594 15.0067C116.073 14.7828 116.633 14.6708 117.273 14.6708C117.951 14.6708 118.544 14.8062 119.055 15.077C119.565 15.3427 119.966 15.715 120.258 16.1942C120.555 16.6682 120.708 17.2203 120.719 17.8505H118.945C118.93 17.538 118.852 17.2567 118.711 17.0067C118.576 16.7515 118.383 16.5484 118.133 16.3973C117.888 16.2463 117.594 16.1708 117.25 16.1708C116.87 16.1708 116.555 16.2489 116.305 16.4052C116.055 16.5562 115.859 16.7645 115.719 17.0302C115.578 17.2906 115.477 17.5848 115.414 17.913C115.357 18.2359 115.328 18.5718 115.328 18.9208V19.1942C115.328 19.5432 115.357 19.8817 115.414 20.2098C115.471 20.538 115.57 20.8322 115.711 21.0927C115.857 21.3479 116.055 21.5536 116.305 21.7098C116.555 21.8609 116.872 21.9364 117.258 21.9364ZM124.062 11.2802V23.2802H122.172V11.2802H124.062ZM129.312 14.827L125.633 18.9052L123.617 20.9677L123.125 19.3739L124.648 17.4911L127.039 14.827H129.312ZM127.445 23.2802L124.703 19.3114L125.891 17.9911L129.625 23.2802H127.445Z" fill="white"/>
</g>
<defs>
<clipPath id="clip0_1242_7212">
<rect width="173" height="51" fill="white" transform="matrix(-1 0 0 1 173 0)"/>
</clipPath>
</defs>
</svg>
