<?xml version="1.0" encoding="utf-8"?>
<!-- Generator: Adobe Illustrator 19.2.1, SVG Export Plug-In . SVG Version: 6.00 Build 0)  -->
<svg version="1.1" id="Layer_2" xmlns="http://www.w3.org/2000/svg" xmlns:xlink="http://www.w3.org/1999/xlink" x="0px" y="0px"
	 viewBox="0 0 432.3373718 274.3200073" style="enable-background:new 0 0 432.3373718 274.3200073;" xml:space="preserve">
<style type="text/css">
	.st0{clip-path:url(#XMLID_3_);fill:#AA3F59;}
	.st1{clip-path:url(#XMLID_3_);fill:#BC5572;}
	.st2{fill:#BC5572;}
	.st3{fill:#AA3F59;}
	.st4{fill:#9E3247;}
	.st5{font-family:'Georgia-Italic';}
	.st6{font-size:12px;}
	.st7{fill:#FFFFFF;}
</style>
<g>
	<defs>
		<polygon id="XMLID_1_" points="432.3373718,274.3200073 25.77738,274.3200073 229.0574036,0 		"/>
	</defs>
	<use xlink:href="#XMLID_1_"  style="overflow:visible;fill:#9E3247;"/>
	<clipPath id="XMLID_3_">
		<use xlink:href="#XMLID_1_"  style="overflow:visible;"/>
	</clipPath>
	<rect x="78.6757584" y="91.2507019" class="st0" width="300.7632446" height="91.8186035"/>
	<rect x="72.6307526" class="st1" width="300.7632446" height="91.8186035"/>
</g>
<rect x="172.9441376" y="47.2335167" class="st2" width="46.0968781" height="3.0227461"/>
<rect x="104.2676468" y="131.1147156" class="st3" width="46.0968781" height="3.0227461"/>
<rect x="29.7899742" y="222.5527954" class="st4" width="46.0968781" height="3.0227461"/>
<text transform="matrix(1 0 0 1 118.1024094 51.5233231)" class="st5 st6">Högrisk</text>
<text transform="matrix(1 0 0 1 203.2965088 57.0574417)"><tspan x="0" y="0" class="st7 st5 st6">Certifikat</tspan><tspan x="9.1025391" y="18" class="st7 st5 st6">Aktier</tspan></text>
<text transform="matrix(1 0 0 1 197.3840332 115.5578537)"><tspan x="0" y="0" class="st7 st5 st6">Aktiefonder</tspan><tspan x="-3.5478516" y="18" class="st7 st5 st6">Hedgefonder</tspan><tspan x="-25.4267578" y="36" class="st7 st5 st6">Företagsobligationer</tspan><tspan x="6.7236328" y="54" class="st7 st5 st6">Autocalls</tspan></text>
<text transform="matrix(1 0 0 1 153.5705566 215.4618073)"><tspan x="0" y="0" class="st7 st5 st6">Räntebärande värdepapper</tspan><tspan x="1.0107422" y="18" class="st7 st5 st6">Kapitalskyddade produkter</tspan><tspan x="46.1865234" y="36" class="st7 st5 st6">Bankkonto</tspan></text>
<text transform="matrix(1 0 0 1 60.0055313 135.1375427)" class="st5 st6">Mellan</text>
<text transform="matrix(1 0 0 1 0.1529617 226.5755615)" class="st5 st6">Låg</text>
</svg>
