<svg width="94" height="75" viewBox="0 0 94 75" xmlns="http://www.w3.org/2000/svg"><title>Group 22</title><g fill="#FFF" fill-rule="evenodd"><path d="M13.003 29.337C14.081 46.323 29.097 59.83 47.4 59.83c18.3 0 33.319-13.508 34.394-30.494h-68.79zM47.4 63.744c-21.13 0-38.32-16.314-38.32-36.364 0-1.08.866-1.957 1.932-1.957h72.777c1.067 0 1.93.877 1.93 1.957 0 20.05-17.19 36.363-38.319 36.363zm8.98-44.307c-.995 0-1.796-.8-1.796-1.784V8.049c0-.985.801-1.784 1.796-1.784.994 0 1.796.8 1.796 1.784v9.604a1.79 1.79 0 0 1-1.796 1.784m-8.382 0c-.992 0-1.796-.854-1.796-1.906V2.183c0-1.052.804-1.906 1.796-1.906.993 0 1.796.854 1.796 1.906v15.348c0 1.052-.803 1.906-1.796 1.906m-9.58 0c-.991 0-1.796-.8-1.796-1.784V8.049a1.79 1.79 0 0 1 1.796-1.784c.992 0 1.796.8 1.796 1.784v9.604a1.79 1.79 0 0 1-1.796 1.784M13.44 74.521c-1.085 0-1.965-.801-1.965-1.796 0-.994.88-1.796 1.965-1.796h69.116c1.087 0 1.965.802 1.965 1.796 0 .995-.878 1.796-1.965 1.796H13.44z"/><path d="M2.693 33.8a1.997 1.997 0 0 1 0-3.99h7.7a1.997 1.997 0 0 1 0 3.99h-7.7zm81.429.007a1.997 1.997 0 0 1 0-3.992h7.7a1.997 1.997 0 0 1 0 3.992h-7.7z"/></g></svg>