<svg width="133" height="21" viewBox="0 0 133 21" xmlns="http://www.w3.org/2000/svg" xmlns:xlink="http://www.w3.org/1999/xlink"><title>Page 1</title><defs><path id="a" d="M13.99 13.092V.088H.088v13.004H13.99z"/><path id="c" d="M21.315 20.605H0V.087h21.315v20.518z"/></defs><g fill="none" fill-rule="evenodd"><path d="M31.775 8.773h6.632c1.105 0 1.915-.568 2.21-1.821.221-1.064-.098-1.82-2.063-1.82h-5.968l-.81 3.64zm-1.522 6.95h7.024c1.474 0 2.235-.921 2.48-1.985.295-1.325-.417-2.034-2.087-2.034h-6.533l-.884 4.02zM28.509 2.059h13.165c2.554 0 4.69 1.135 4.003 4.256-.295 1.3-1.326 2.884-3.095 3.38v.048c1.965.33 2.604 2.27 2.21 4.09-.49 2.246-2.21 5.107-7.515 5.107H24.775L28.51 2.058zm21.959-.001h4.323l-3.722 16.881h-4.323zm15.504 15.179h-.049c-1.007 1.064-3.316 2.175-5.845 2.175-2.235 0-5.478-.827-4.643-4.563l1.892-8.583h4.322l-1.62 7.33c-.394 1.75.392 2.6 2.382 2.6 2.333 0 3.93-1.253 4.446-3.593l1.4-6.337h4.322l-2.8 12.673h-4.175l.368-1.702zm20.896-5.982l.024-.047c.148-.686-.295-2.814-3.463-2.814-3.414 0-4.691 2.506-4.74 2.814l-.025.047h8.204zm3.365 3.901c-1.916 3.003-5.183 4.256-9.137 4.256-5.207 0-8.253-2.033-7.197-6.81 1.056-4.775 4.986-6.808 10.193-6.808 5.698 0 7.835 2.766 6.779 7.542l-.073.378H78.124v.047c-.27 1.206.59 3.05 3.537 3.05 1.744 0 3.094-.567 3.954-1.655h4.618zm14.815-2.388c-.885.379-1.793.473-2.653.544l-2.555.213c-1.547.118-2.406.52-2.652 1.655s.712 1.773 2.333 1.773c2.186 0 4.839-1.017 5.306-3.144l.22-1.04zM94.51 10.144c1.375-3.901 5.207-4.35 8.744-4.35 6.19 0 7.098 1.938 6.557 4.303l-1.375 6.289c-.245 1.111-.221 1.915-.074 2.553h-4.322c-.05-.45-.074-.898 0-1.348-1.793 1.419-4.618 1.821-6.558 1.821-3.439 0-5.6-1.158-4.937-4.114.663-3.073 3.635-3.736 6.312-3.901l4.667-.307c1.326-.095 1.817-.308 2.038-1.325.246-1.016-.54-1.513-3.045-1.513-1.842 0-2.825.142-3.832 1.892H94.51zm20.443-8.086h4.322l-.578 2.648h-4.323l.579-2.648zm-.922 4.208h4.322l-2.8 12.673h-4.322l2.8-12.673z" fill="#FFF"/><g transform="translate(118.85 5.847)"><mask id="b" fill="#fff"><use xlink:href="#a"/></mask><path d="M2.888.419h4.176L6.524 2.9h.049C8.563.963 9.987.088 12.443.088c.491 0 1.08.024 1.547.118l-.86 3.901c-.736-.212-1.498-.378-2.308-.378-2.948 0-4.667 1.442-5.207 3.901L4.41 13.092H.088L2.888.419z" fill="#FFF" mask="url(#b)"/></g><g transform="translate(.336 .09)"><mask id="d" fill="#fff"><use xlink:href="#c"/></mask><path d="M21.315 10.346c0 5.666-4.772 10.259-10.657 10.259C4.772 20.605 0 16.012 0 10.345 0 4.68 4.772.088 10.658.088c5.885 0 10.657 4.593 10.657 10.259" fill="#FFF" mask="url(#d)"/></g></g></svg>