<svg width="73" height="64" viewBox="0 0 73 64" xmlns="http://www.w3.org/2000/svg"><title>Group 4</title><g fill="#FFF" fill-rule="evenodd"><path d="M54.76 28.008H2.87a1.996 1.996 0 1 0 0 3.992h51.89c7.703 0 13.971 6.268 13.971 13.97 0 7.704-6.268 13.971-13.97 13.971-7.703 0-13.971-6.267-13.971-13.97a1.996 1.996 0 1 0-3.992 0c0 9.904 8.058 17.962 17.963 17.962 9.904 0 17.962-8.058 17.962-17.962S64.665 28.008 54.76 28.008"/><path d="M22.828 35.992H2.87a1.996 1.996 0 1 0 0 3.991h19.958a5.994 5.994 0 0 1 5.987 5.988 5.994 5.994 0 0 1-5.987 5.987 5.994 5.994 0 0 1-5.988-5.987 1.996 1.996 0 1 0-3.991 0c0 5.502 4.476 9.979 9.979 9.979 5.503 0 9.979-4.477 9.979-9.98 0-5.502-4.476-9.978-9.98-9.978M.874 18.03c0 1.102.893 1.995 1.996 1.995h43.907c5.503 0 9.98-4.476 9.98-9.979 0-5.503-4.477-9.979-9.98-9.979s-9.979 4.476-9.979 9.98a1.996 1.996 0 1 0 3.992 0 5.994 5.994 0 0 1 5.987-5.988 5.994 5.994 0 0 1 5.988 5.987 5.994 5.994 0 0 1-5.988 5.988H2.87a1.996 1.996 0 0 0-1.996 1.995"/></g></svg>