<?xml version="1.0" standalone="no"?>
<!DOCTYPE svg PUBLIC "-//W3C//DTD SVG 20010904//EN"
 "http://www.w3.org/TR/2001/REC-SVG-20010904/DTD/svg10.dtd">
<svg version="1.0" xmlns="http://www.w3.org/2000/svg"
 width="269.000000pt" height="269.000000pt" viewBox="0 0 269.000000 269.000000"
 preserveAspectRatio="xMidYMid meet">
<metadata>
Created by potrace 1.14, written by Peter Selinger 2001-2017
</metadata>
<g transform="translate(0.000000,269.000000) scale(0.100000,-0.100000)"
fill="#000000" stroke="none">
<path d="M1256 2675 c-8 -23 -8 -27 4 -20 6 3 10 1 10 -4 0 -15 -13 -14 -29 2
-10 10 -11 8 -5 -7 5 -14 4 -17 -5 -12 -7 5 -22 0 -34 -11 -12 -10 -16 -11
-10 -3 9 12 7 15 -14 17 -19 1 -22 -1 -12 -8 12 -8 11 -12 -3 -23 -11 -8 -14
-16 -8 -22 6 -6 -4 -9 -28 -9 -35 0 -37 -2 -37 -32 1 -19 -3 -29 -9 -26 -14 9
-55 10 -50 1 2 -3 0 -9 -6 -13 -5 -3 -10 -2 -10 3 0 12 -38 4 -46 -9 -3 -5 3
-6 12 -2 12 5 15 3 9 -6 -5 -10 -1 -12 16 -7 13 3 18 3 11 0 -6 -3 -9 -10 -6
-16 4 -6 -2 -6 -14 1 -13 7 -23 7 -27 1 -3 -5 -13 -6 -22 -3 -12 5 -14 3 -8
-8 8 -12 6 -12 -8 0 -17 14 -22 8 -18 -25 1 -7 -5 -14 -12 -17 -8 -3 -14 1
-14 9 0 7 4 11 9 8 4 -3 5 1 2 9 -8 21 -30 16 -29 -7 0 -12 -4 -22 -9 -23 -5
-1 -13 -7 -17 -15 -6 -9 -9 -10 -9 -1 0 7 -7 10 -16 6 -8 -3 -13 -12 -10 -20
3 -8 1 -11 -4 -8 -6 3 -10 2 -10 -4 0 -5 3 -11 8 -14 4 -2 2 -2 -5 -1 -7 2
-15 -1 -18 -5 -2 -5 -25 -8 -50 -6 -32 1 -42 -1 -36 -9 6 -7 4 -20 -4 -36 -8
-14 -14 -20 -15 -14 0 6 -10 11 -22 10 -13 -1 -22 -7 -21 -13 1 -6 -6 -9 -17
-6 -11 3 -20 10 -20 17 0 6 -4 5 -9 -3 -5 -8 -8 -23 -7 -35 2 -17 -3 -21 -28
-22 -52 -2 -99 -16 -85 -25 7 -4 19 -3 25 2 8 6 14 4 18 -6 3 -10 2 -13 -5
-10 -5 4 -17 1 -26 -7 -14 -11 -16 -11 -9 2 4 8 1 7 -7 -3 -11 -14 -16 -15
-20 -5 -3 8 -6 5 -6 -7 -1 -17 -3 -18 -11 -5 -9 13 -11 13 -20 0 -9 -13 -11
-13 -20 0 -7 11 -10 11 -10 2 0 -7 -5 -10 -12 -6 -7 4 -8 3 -4 -5 4 -6 13 -8
19 -5 9 5 9 3 0 -6 -10 -11 -15 -11 -30 0 -15 12 -16 12 -6 0 18 -19 16 -33
-3 -26 -9 3 -12 2 -9 -4 4 -7 -3 -9 -17 -6 -15 2 -34 -4 -49 -16 -13 -11 -17
-18 -8 -15 9 3 22 1 30 -4 11 -7 10 -9 -6 -10 -11 -1 -26 -1 -34 0 -8 2 -10
-2 -5 -11 6 -10 4 -10 -9 1 -12 9 -17 10 -17 2 0 -8 -5 -9 -18 -2 -15 8 -18 5
-20 -15 -1 -17 2 -23 10 -18 7 4 8 3 4 -4 -4 -6 -13 -9 -21 -5 -8 3 -15 0 -15
-6 0 -6 -5 -11 -11 -11 -5 0 -8 4 -5 9 4 5 -3 7 -13 4 -11 -3 -22 -11 -25 -19
-3 -8 -11 -14 -18 -14 -10 0 -10 2 1 9 7 5 9 11 4 14 -6 4 -15 -5 -22 -19 -9
-20 -9 -24 1 -18 9 6 9 3 -1 -9 -7 -9 -18 -14 -25 -10 -33 21 -34 12 -32 -231
1 -194 4 -240 14 -238 8 1 11 -2 7 -8 -3 -6 -10 -8 -15 -5 -4 3 -8 -21 -7 -52
2 -42 6 -57 15 -55 8 1 11 -2 7 -8 -3 -6 -10 -8 -15 -5 -5 3 -8 -48 -7 -112 2
-92 5 -117 15 -115 8 1 11 -2 7 -8 -3 -6 -10 -8 -15 -5 -5 3 -8 -48 -7 -112 2
-92 5 -117 15 -115 8 1 11 -2 7 -8 -3 -6 -10 -8 -15 -5 -5 3 -8 -48 -7 -112 2
-92 5 -117 15 -115 8 1 11 -2 7 -8 -3 -6 -10 -8 -15 -5 -5 3 -8 -48 -7 -112 2
-92 5 -117 15 -115 8 1 11 -2 7 -8 -3 -6 -10 -8 -15 -5 -4 3 -8 -83 -8 -190
l0 -194 398 -1 c353 0 398 1 404 15 4 11 2 14 -7 9 -9 -6 -9 -4 1 8 10 13 10
17 0 21 -10 4 -10 6 1 6 11 1 11 4 1 16 -10 12 -10 15 0 15 10 0 10 3 0 15 -7
8 -8 15 -3 15 5 0 10 7 10 15 0 8 -3 15 -7 15 -8 0 -6 32 3 47 4 6 3 15 -3 18
-8 5 -7 11 1 21 9 11 8 14 -2 14 -11 0 -11 2 1 10 11 7 11 10 2 10 -10 0 -10
5 -2 20 8 15 8 20 -2 20 -9 0 -9 3 2 10 11 7 11 10 2 10 -10 0 -10 5 -1 23 7
12 12 22 12 22 0 0 -5 9 -11 21 -8 16 -8 24 0 32 9 9 9 12 -1 12 -11 0 -11 3
-1 15 7 8 8 15 3 15 -11 0 -11 29 0 47 4 6 3 15 -3 18 -8 5 -7 11 1 21 9 11 8
14 -2 14 -12 0 -12 2 0 9 9 6 10 10 2 16 -9 5 -9 10 0 21 9 11 8 14 -2 14 -11
0 -11 2 1 10 11 7 11 10 2 10 -10 0 -10 5 -1 23 7 12 12 22 12 22 0 0 -5 9
-11 21 -8 16 -8 24 0 32 9 9 9 12 0 12 -8 0 -9 7 -1 28 6 15 11 27 11 27 1 0
-4 10 -11 23 -9 16 -9 22 0 22 8 0 8 4 -1 15 -10 12 -10 15 0 15 10 0 10 3 0
15 -10 12 -10 15 0 15 10 0 10 3 1 14 -9 11 -9 16 0 21 8 6 7 10 -2 16 -12 7
-12 9 0 9 10 0 11 3 2 13 -8 10 -7 17 1 25 9 9 9 12 -1 12 -11 0 -11 3 -1 15
7 8 8 15 3 15 -5 0 -9 9 -9 20 0 11 4 20 9 20 5 0 4 7 -3 15 -10 12 -10 15 0
15 10 0 10 3 0 15 -7 9 -8 15 -2 15 11 0 11 18 -1 37 -4 6 -1 14 5 16 10 4 10
6 0 6 -8 1 -10 6 -6 13 12 19 12 48 1 48 -5 0 -4 7 3 15 10 12 10 15 0 15 -10
0 -10 3 0 15 10 12 10 15 0 15 -10 0 -10 3 0 15 10 12 10 15 0 15 -10 0 -10 3
0 15 7 8 8 15 3 15 -5 0 -10 7 -10 15 0 8 5 15 10 15 5 0 4 6 -2 14 -9 11 -9
15 1 18 11 4 11 8 0 20 -11 14 -8 16 22 13 20 -1 33 2 30 7 -3 5 0 15 6 23 6
8 8 20 4 27 -6 10 -3 9 9 -1 9 -7 17 -10 17 -6 0 4 7 2 14 -5 13 -10 14 -7 10
16 l-5 27 18 -21 c13 -16 22 -19 33 -12 10 6 11 10 3 10 -7 0 -13 4 -13 10 0
5 8 7 18 4 10 -4 13 -2 7 3 -24 20 -10 28 45 28 32 -1 57 2 54 6 -2 4 2 9 8
12 8 2 9 8 4 13 -5 5 -11 4 -13 -4 -3 -6 -10 -9 -15 -6 -7 5 -8 2 -3 -6 5 -9
4 -11 -4 -6 -6 4 -9 11 -6 16 3 4 -1 11 -7 14 -7 2 -2 4 12 3 16 -1 24 3 22
11 -1 9 2 11 10 6 24 -15 63 -9 61 10 -1 14 4 17 25 12 26 -5 26 -5 5 6 -28
14 -30 27 -4 25 11 0 17 -5 15 -9 -3 -4 0 -8 5 -8 6 0 11 5 11 11 0 6 7 8 16
5 11 -4 15 -2 11 8 -4 10 -1 13 8 9 8 -3 12 -10 8 -17 -4 -6 1 -5 10 3 13 10
14 18 6 32 -5 10 -7 20 -4 20 21 5 32 4 49 -4 16 -8 18 -6 14 11 -6 20 -5 21
20 4 19 -12 24 -13 17 -3 -6 11 -4 13 7 9 8 -4 15 0 15 8 0 7 -5 11 -10 7 -5
-3 -3 5 4 18 7 15 14 19 17 11 2 -6 8 -12 13 -12 6 0 8 4 5 9 -3 4 6 7 20 5
14 -1 28 4 30 11 3 8 13 11 22 7 15 -5 15 -4 -1 12 -15 15 -16 36 -1 36 3 0 2
-4 -1 -10 -8 -13 1 -13 27 1 11 6 18 7 15 2 -9 -15 32 -8 46 7 6 7 7 10 2 7
-6 -3 -17 -2 -25 4 -12 7 -12 9 3 9 10 0 16 4 12 9 -3 5 -1 12 5 16 5 3 10 -1
10 -9 0 -19 16 -21 26 -4 4 7 3 8 -4 4 -7 -4 -12 -3 -12 2 0 15 43 23 52 9 6
-9 8 -9 8 2 0 8 6 11 15 7 12 -4 13 -2 6 12 -6 11 -6 24 -1 33 8 12 13 12 31
1 11 -8 18 -9 14 -3 -3 6 2 11 12 11 15 0 16 2 3 10 -10 6 -11 10 -2 10 6 0
11 5 10 11 -2 6 4 14 12 16 13 4 13 3 0 -6 -9 -7 -11 -11 -3 -11 7 0 17 8 22
18 8 13 10 14 11 2 0 -13 1 -13 10 0 5 8 10 11 10 6 0 -5 8 -2 17 5 15 12 16
12 9 -6 -6 -16 -5 -18 6 -7 10 10 10 17 0 32 -10 16 -9 18 5 13 12 -5 14 -3 8
7 -6 10 -4 12 7 7 9 -3 21 0 28 6 10 9 11 9 6 0 -4 -7 -2 -13 3 -13 6 0 11 5
11 12 0 6 3 8 7 5 3 -4 12 -2 20 4 10 9 13 8 13 0 0 -7 4 -9 10 -6 6 4 5 11
-3 20 -7 8 -16 10 -21 4 -6 -5 -15 -9 -20 -9 -6 0 -3 7 7 15 11 7 25 11 33 8
8 -3 14 -1 14 4 0 5 9 9 20 10 13 1 18 -2 14 -10 -4 -7 3 -2 15 11 23 23 41
31 23 10 -8 -10 -5 -13 13 -13 15 0 21 4 17 14 -4 10 -1 12 9 6 8 -5 11 -5 6
1 -5 5 -13 9 -18 9 -12 0 -7 19 6 21 25 3 27 5 14 22 -11 14 -11 15 1 5 17
-15 54 -17 45 -3 -4 6 -10 8 -15 5 -4 -3 -14 3 -21 13 -12 15 -12 16 1 5 10
-8 21 -9 30 -3 12 8 11 10 -5 11 -11 1 -28 2 -37 1 -10 -1 -18 3 -18 9 0 5 -4
7 -10 4 -5 -3 -10 0 -11 7 0 7 -4 4 -9 -7 -8 -19 -9 -19 -9 4 -1 18 -5 22 -18
17 -15 -5 -15 -4 1 9 19 15 19 15 -5 16 -13 1 -28 2 -34 4 -5 1 -18 3 -28 3
-10 1 -15 6 -12 12 3 6 -1 7 -9 4 -9 -3 -13 -11 -9 -17 3 -5 1 -7 -5 -4 -11 8
-11 25 2 46 7 11 3 13 -18 9 -18 -4 -30 0 -36 11 -8 13 -9 14 -10 1 0 -13 -2
-13 -9 -1 -5 8 -8 22 -6 31 2 11 -4 16 -18 17 -81 3 -87 6 -87 41 l0 33 -26
-28 c-15 -15 -21 -20 -14 -11 10 15 9 19 -4 24 -10 4 -14 13 -11 23 6 21 -36
42 -59 29 -11 -6 -18 -5 -22 6 -4 11 -11 13 -23 6 -13 -6 -18 -5 -18 6 0 7 4
14 9 14 4 0 8 5 8 11 0 6 -7 8 -15 5 -20 -8 -42 -14 -33 -9 4 2 4 11 1 18 -4
11 -10 12 -25 4 -15 -8 -19 -8 -14 0 4 7 -1 11 -12 11 -11 0 -22 7 -26 15 -3
8 -1 15 4 15 6 0 10 4 10 9 0 4 -40 9 -89 10 -74 2 -90 -1 -95 -14z m154 1 c0
-3 -4 -8 -10 -11 -5 -3 -10 -1 -10 4 0 6 5 11 10 11 6 0 10 -2 10 -4z m-220
-80 c0 -3 -4 -8 -10 -11 -5 -3 -10 -1 -10 4 0 6 5 11 10 11 6 0 10 -2 10 -4z
m454 -49 c4 4 4 0 1 -8 -9 -25 -31 -18 -33 10 -1 24 0 24 12 9 7 -10 16 -15
20 -11z m161 -125 c-2 -9 -4 -19 -4 -21 -1 -3 -7 4 -15 15 -10 13 -11 21 -3
26 16 10 26 1 22 -20z m-1185 -173 c0 -3 -7 -6 -15 -6 -8 0 -13 3 -10 5 3 3
-1 12 -8 20 -11 13 -9 14 11 1 12 -8 22 -16 22 -20z m-223 -114 c0 -8 -4 -12
-9 -9 -5 3 -6 10 -3 15 9 13 12 11 12 -6z m-292 -165 c-3 -5 -12 -10 -18 -10
-7 0 -6 4 3 10 19 12 23 12 15 0z m1348 -116 c-4 -12 -8 -13 -14 -3 -9 15 -2
32 11 24 5 -3 6 -13 3 -21z m-103 -46 c0 -4 -4 -8 -9 -8 -6 0 -12 4 -15 8 -3
5 1 9 9 9 8 0 15 -4 15 -9z m-1309 -211 c-10 -9 -11 -8 -5 6 3 10 9 15 12 12
3 -3 0 -11 -7 -18z m905 -23 c-1 -25 -11 -23 -18 4 -3 11 0 19 7 19 7 0 12
-10 11 -23z m-916 -24 c0 -5 -2 -10 -4 -10 -3 0 -8 5 -11 10 -3 6 -1 10 4 10
6 0 11 -4 11 -10z m820 -25 c-7 -8 -17 -15 -23 -15 -6 0 -2 7 9 15 25 19 30
19 14 0z m-824 -260 c-1 -8 -5 -17 -8 -21 -5 -4 -4 16 1 34 3 9 9 -1 7 -13z
m0 -240 c-1 -8 -5 -17 -8 -21 -5 -4 -4 16 1 34 3 9 9 -1 7 -13z m0 -240 c-1
-8 -5 -17 -8 -21 -5 -4 -4 16 1 34 3 9 9 -1 7 -13z m0 -240 c-1 -8 -5 -17 -8
-21 -5 -4 -4 16 1 34 3 9 9 -1 7 -13z m0 -240 c-1 -8 -5 -17 -8 -21 -5 -4 -4
16 1 34 3 9 9 -1 7 -13z m0 -120 c-1 -8 -5 -17 -8 -21 -5 -4 -4 16 1 34 3 9 9
-1 7 -13z"/>
<path d="M1520 2630 c-9 -6 -10 -10 -3 -10 6 0 15 5 18 10 8 12 4 12 -15 0z"/>
<path d="M1040 2550 c-9 -6 -10 -10 -3 -10 6 0 15 5 18 10 8 12 4 12 -15 0z"/>
<path d="M775 2390 c3 -5 8 -10 11 -10 2 0 4 5 4 10 0 6 -5 10 -11 10 -5 0 -7
-4 -4 -10z"/>
<path d="M752 2386 c4 -5 3 -15 -3 -22 -7 -9 -6 -12 5 -10 25 3 28 12 9 27
-10 7 -15 9 -11 5z"/>
<path d="M1935 2371 c-3 -5 -2 -12 3 -15 5 -3 9 1 9 9 0 17 -3 19 -12 6z"/>
<path d="M2095 2210 c3 -5 8 -10 11 -10 2 0 4 5 4 10 0 6 -5 10 -11 10 -5 0
-7 -4 -4 -10z"/>
<path d="M1853 2085 c0 -8 4 -12 9 -9 5 3 6 10 3 15 -9 13 -12 11 -12 -6z"/>
<path d="M1670 1989 c0 -5 5 -7 10 -4 6 3 10 8 10 11 0 2 -4 4 -10 4 -5 0 -10
-5 -10 -11z"/>
<path d="M2672 1935 c4 -4 4 -13 -1 -19 -15 -20 -22 -48 -9 -40 7 4 8 3 4 -4
-5 -8 -1 -10 9 -5 13 5 14 7 3 14 -10 7 -11 12 -1 28 10 16 10 22 0 27 -6 4
-9 4 -5 -1z"/>
<path d="M2622 1893 c-7 -10 -10 -12 -6 -5 8 18 -27 12 -44 -8 -8 -8 -11 -10
-8 -3 4 7 -1 10 -11 8 -10 -2 -25 -4 -33 -4 -13 -1 -13 -3 0 -10 8 -6 18 -7
24 -4 5 3 6 1 2 -5 -4 -6 -14 -8 -24 -5 -14 6 -15 4 -4 -9 11 -14 9 -16 -15
-17 -65 -1 -64 -1 -52 -24 7 -12 8 -19 4 -15 -5 4 -14 3 -22 -4 -7 -6 -16 -8
-20 -4 -3 3 -15 -2 -26 -11 -11 -10 -17 -12 -13 -5 4 7 1 12 -9 12 -10 0 -13
-5 -9 -12 5 -7 2 -9 -8 -6 -8 4 -15 0 -15 -8 0 -7 4 -11 9 -8 4 3 5 -2 2 -11
-4 -9 -13 -14 -20 -11 -8 3 -14 1 -14 -4 0 -5 -6 -7 -14 -4 -8 3 -17 1 -21 -5
-4 -7 -12 -8 -23 -2 -14 7 -18 5 -18 -10 0 -10 4 -19 8 -19 4 0 8 6 8 13 0 8
4 7 10 -3 6 -10 10 -11 10 -2 0 6 5 12 12 12 9 0 9 -3 1 -11 -6 -6 -9 -19 -6
-28 4 -14 3 -13 -7 1 -12 19 -44 13 -33 -6 4 -6 -1 -5 -10 3 -9 7 -17 10 -17
5 0 -5 -11 -10 -25 -10 -15 -1 -22 2 -18 9 3 6 1 7 -5 3 -7 -4 -12 -14 -12
-22 0 -8 4 -13 8 -10 5 3 9 -1 9 -9 0 -19 -17 -8 -26 17 -7 19 -8 19 -22 2 -7
-10 -9 -15 -3 -11 7 4 15 0 18 -9 9 -24 7 -31 -4 -14 -9 13 -11 13 -20 0 -8
-13 -11 -12 -25 5 -13 18 -14 18 -9 2 6 -16 2 -18 -22 -16 -16 2 -38 -2 -49
-9 -11 -6 -14 -12 -7 -12 13 0 17 -29 5 -31 -5 0 -16 -2 -25 -4 -10 -2 -18 2
-18 8 0 7 -5 4 -11 -5 -5 -10 -15 -18 -20 -18 -6 0 -7 5 -4 10 3 6 2 10 -4 10
-5 0 -9 -9 -8 -20 1 -12 7 -18 14 -16 7 3 13 2 13 -3 0 -5 -9 -11 -20 -14 -11
-3 -18 -1 -14 4 3 5 0 9 -5 9 -12 0 -12 0 -15 -55 -1 -22 -6 -46 -10 -54 -6
-9 -5 -12 2 -7 12 7 11 -42 -2 -63 -6 -9 -5 -12 2 -7 6 3 14 1 18 -5 5 -8 3
-9 -6 -4 -9 6 -10 2 -5 -15 4 -14 3 -20 -3 -16 -5 3 -12 -1 -15 -9 -4 -9 -1
-12 7 -9 7 3 13 -2 13 -10 0 -8 -5 -12 -11 -9 -6 4 -6 1 1 -8 6 -8 10 -24 9
-34 -2 -11 1 -30 5 -43 6 -14 5 -21 0 -17 -5 3 -12 1 -16 -5 -4 -6 -10 -8 -14
-6 -4 3 -8 -2 -8 -10 0 -10 4 -11 11 -4 18 18 22 11 22 -44 0 -36 -3 -53 -10
-49 -6 4 -5 -1 3 -10 11 -14 11 -17 0 -17 -9 0 -10 -3 -4 -8 13 -9 15 -62 3
-62 -5 0 -6 -5 -3 -10 4 -6 12 -7 18 -4 9 5 9 4 0 -6 -6 -7 -9 -19 -6 -28 4
-10 2 -13 -5 -8 -6 3 -14 1 -18 -5 -4 -7 -3 -9 4 -5 6 3 13 2 17 -4 3 -5 0
-10 -7 -10 -9 0 -9 -3 2 -10 13 -9 13 -10 0 -10 -9 0 -11 -3 -5 -8 13 -9 19
-42 8 -43 -23 -2 -46 -8 -51 -14 -4 -3 7 -4 24 -1 l30 6 0 -78 c0 -43 -4 -80
-10 -84 -7 -5 -5 -8 4 -8 13 0 13 -1 0 -10 -10 -6 -11 -10 -2 -10 6 0 12 -5
12 -11 0 -5 -4 -8 -9 -5 -8 5 -8 -17 0 -34 6 -14 3 -36 -6 -42 -6 -5 -4 -8 5
-8 13 0 13 -1 0 -10 -10 -6 -11 -10 -2 -10 6 0 12 -5 12 -11 0 -5 -4 -8 -9 -5
-8 5 -8 -17 0 -34 7 -16 3 -96 -6 -102 -6 -5 -5 -8 3 -8 6 0 12 -6 12 -14 0
-8 -6 -17 -12 -19 -10 -4 -9 -6 1 -6 11 -1 11 -4 0 -18 -8 -9 -9 -14 -3 -10
14 8 13 -35 -1 -45 -6 -5 -6 -8 1 -8 6 0 11 -16 12 -35 1 -23 -2 -33 -9 -29
-6 3 -5 -3 2 -14 11 -17 10 -24 -2 -38 -10 -13 -10 -16 -1 -10 9 5 13 3 11 -5
-6 -47 -1 -51 58 -47 37 2 58 8 61 17 3 8 0 11 -6 7 -6 -3 -9 1 -8 11 2 14 12
18 43 18 23 0 39 3 37 6 -2 4 3 10 12 13 25 9 27 7 13 -11 -13 -15 -12 -15 7
-3 29 18 10 42 -24 29 -15 -6 -21 -5 -17 1 3 6 13 10 21 10 10 0 12 5 8 12 -6
10 -4 10 8 0 11 -9 18 -10 23 -2 3 5 12 10 18 10 7 0 6 -4 -3 -10 -9 -6 -10
-10 -3 -10 19 0 55 43 42 51 -7 4 -5 8 6 12 9 4 13 3 10 -3 -3 -6 -1 -10 5
-10 7 0 5 -7 -4 -16 -19 -19 -21 -31 -3 -15 8 6 18 7 22 3 5 -4 5 -2 2 5 -4 6
-1 14 5 16 10 4 10 6 1 6 -7 1 -13 5 -13 10 0 6 9 8 21 6 16 -3 19 0 15 12 -5
12 -3 13 6 6 8 -6 22 -7 33 -2 13 5 15 8 5 8 -10 1 -11 4 -4 9 6 4 13 15 17
25 3 9 12 17 19 17 9 0 9 -3 -2 -11 -12 -8 -12 -10 5 -7 11 2 21 12 23 23 2
11 9 25 14 30 7 7 8 3 4 -12 -7 -22 8 -41 19 -23 4 6 12 7 18 3 7 -3 5 2 -5
13 -15 18 -15 20 10 39 21 15 24 15 13 2 -12 -15 -11 -17 10 -15 23 3 59 37
59 55 0 4 -5 0 -11 -9 -5 -10 -15 -18 -21 -18 -6 0 -3 9 6 19 10 11 25 17 37
14 12 -3 19 0 19 8 0 9 3 10 8 4 13 -19 38 -12 50 13 11 23 11 24 -7 8 -13
-12 -21 -14 -26 -6 -4 6 -4 14 -1 17 3 4 6 0 6 -7 0 -9 6 -7 21 6 16 15 24 16
39 6 16 -10 18 -9 13 5 -5 12 -3 14 7 8 10 -6 12 -4 8 7 -4 8 -2 21 2 29 6 8
4 16 -3 21 -9 6 -9 8 1 8 7 0 11 4 7 9 -3 6 6 8 20 5 14 -2 25 0 25 6 0 6 -4
8 -10 5 -5 -3 -10 -1 -10 4 0 6 6 11 13 11 9 0 8 3 -2 9 -11 7 -11 9 0 13 9 3
9 6 -3 11 -12 4 -16 1 -13 -13 5 -24 -6 -32 -25 -19 -12 7 -12 9 -1 9 10 0 11
3 2 14 -8 10 -9 16 -1 21 6 3 8 11 5 16 -4 5 -1 9 5 9 6 0 8 5 5 10 -4 6 -12
7 -18 3 -7 -4 -6 0 2 10 10 13 10 17 1 17 -9 0 -9 4 1 17 15 18 16 23 1 32 -6
3 1 12 14 18 21 10 23 9 15 -1 -6 -7 -8 -16 -4 -19 3 -4 2 -7 -3 -7 -18 0 -13
-36 5 -37 15 -1 17 8 17 63 -1 35 -5 64 -11 64 -5 0 -3 5 5 10 13 9 13 10 0
10 -12 0 -12 2 -2 9 11 7 11 9 -1 14 -11 4 -15 0 -12 -14 2 -11 0 -17 -6 -13
-6 3 -5 -4 3 -15 11 -18 11 -23 0 -30 -8 -4 -13 -11 -13 -15 1 -3 -1 -6 -4 -6
-4 0 -6 6 -4 13 7 25 7 47 -1 42 -6 -3 -7 1 -4 9 3 9 10 16 16 16 5 0 6 5 3
10 -4 6 -11 7 -17 4 -7 -4 -8 -2 -4 5 4 6 12 9 17 6 5 -4 9 -2 9 4 0 5 -6 14
-14 18 -11 7 -10 11 4 26 17 17 17 17 15 -7 -2 -19 1 -23 13 -18 10 3 12 7 4
10 -7 2 -12 8 -12 13 0 6 4 8 8 5 4 -2 8 8 7 24 0 15 -3 26 -7 24 -3 -2 -9 2
-12 8 -3 7 -4 4 -1 -7 3 -13 -2 -25 -16 -33 -17 -11 -20 -11 -13 0 13 21 15
50 3 42 -7 -4 -7 1 1 16 10 18 9 24 -1 31 -12 7 -12 9 0 9 11 0 11 3 0 17 -13
15 -12 15 9 2 13 -8 21 -21 19 -31 -3 -10 0 -15 7 -12 7 3 11 28 11 63 0 33
-3 57 -7 55 -3 -2 -9 2 -12 8 -3 7 -4 4 -1 -7 3 -13 -2 -25 -16 -33 -17 -11
-20 -11 -13 0 13 21 15 50 3 42 -8 -5 -8 -1 0 14 14 27 14 35 -1 26 -10 -6
-10 -5 -1 7 10 12 10 18 0 28 -9 10 -7 10 10 0 13 -8 22 -18 22 -24 -3 -24 2
-45 9 -45 4 0 8 34 8 75 -1 43 -5 75 -11 75 -5 0 -3 5 5 10 13 9 13 10 0 10
-12 0 -12 2 -2 9 11 7 11 9 -1 14 -12 4 -14 -2 -11 -34 2 -21 0 -39 -5 -39 -5
0 -8 -8 -6 -17 2 -10 4 -20 4 -23 1 -3 6 2 11 10 6 9 10 10 10 3 0 -6 -4 -14
-9 -17 -11 -7 -43 28 -34 38 4 3 8 16 10 27 2 14 -1 18 -9 13 -9 -5 -9 -2 1 9
11 14 11 17 0 17 -8 0 -5 5 6 14 11 8 25 12 32 9 7 -3 13 0 13 7 0 6 -4 8 -10
5 -5 -3 -10 -2 -10 4 0 5 6 12 13 14 9 4 9 6 -1 6 -8 1 -10 6 -5 14 14 22 15
59 1 55 -7 -3 -13 -20 -13 -41 0 -20 -6 -42 -14 -49 -10 -10 -12 -10 -7 0 4 7
2 12 -6 12 -10 0 -10 2 1 9 9 6 10 10 2 16 -9 5 -9 10 0 21 8 10 8 18 1 27 -7
8 -7 18 -2 27 6 9 4 20 -3 29 -9 12 -9 13 1 7 13 -8 17 6 5 18 -10 10 -11 46
-1 40 4 -3 8 4 8 15 0 11 -5 23 -10 26 -8 5 -7 11 1 21 9 11 8 14 -2 14 -12 0
-12 2 -1 9 16 9 15 20 -1 40 -10 12 -9 12 9 1 18 -11 20 -22 19 -111 -1 -54 2
-96 7 -93 4 3 5 -2 2 -10 -3 -9 -2 -16 3 -16 4 0 8 77 8 170 0 108 -3 170 -10
170 -7 0 -7 3 0 8 12 8 16 62 5 62 -4 0 -13 -7 -20 -15 -10 -12 -10 -15 0 -15
7 0 10 -8 7 -19 -2 -10 0 -26 6 -36 5 -10 5 -15 0 -12 -5 3 -9 -11 -9 -33 0
-21 4 -36 10 -33 5 4 6 1 2 -6 -6 -9 -13 -8 -27 5 -20 18 -25 29 -9 19 6 -3
10 3 10 14 0 11 -5 23 -10 26 -7 4 -7 12 0 25 13 25 13 33 -2 24 -10 -6 -10
-4 0 8 9 12 10 18 2 23 -8 5 -8 10 0 20 8 10 7 14 -2 18 -11 4 -10 6 0 6 7 1
11 5 8 9 -2 4 4 8 14 8 14 0 16 -4 9 -18 -7 -13 -6 -16 4 -13 16 7 20 46 4 44
-17 -3 -47 12 -47 23 0 5 4 7 8 4 5 -3 9 1 9 9 0 20 -9 19 -25 -2z m-592 -303
c0 -5 -5 -10 -11 -10 -5 0 -7 5 -4 10 3 6 8 10 11 10 2 0 4 -4 4 -10z m646
-580 c0 -27 -1 -29 -14 -16 -13 12 -13 18 -2 30 16 21 16 21 16 -14z m-286
-754 c0 -3 -4 -8 -10 -11 -5 -3 -10 -1 -10 4 0 6 5 11 10 11 6 0 10 -2 10 -4z"/>
<path d="M2420 1824 c0 -9 -5 -12 -12 -8 -9 5 -9 3 1 -9 17 -21 31 -13 24 13
-6 24 -13 26 -13 4z"/>
<path d="M2647 1725 c-4 -8 -3 -16 1 -19 4 -3 9 4 9 15 2 23 -3 25 -10 4z"/>
<path d="M2645 1561 c-3 -5 -2 -12 3 -15 5 -3 9 1 9 9 0 17 -3 19 -12 6z"/>
<path d="M1890 1530 c0 -5 5 -10 11 -10 5 0 7 5 4 10 -3 6 -8 10 -11 10 -2 0
-4 -4 -4 -10z"/>
<path d="M2647 1485 c-4 -8 -3 -16 1 -19 4 -3 9 4 9 15 2 23 -3 25 -10 4z"/>
<path d="M1854 1451 c0 -11 5 -17 13 -14 10 4 11 9 2 19 -15 18 -15 18 -15 -5z"/>
<path d="M2647 1406 c-3 -8 -2 -18 3 -21 13 -8 20 9 11 24 -6 10 -10 9 -14 -3z"/>
<path d="M1854 1371 c0 -11 5 -17 13 -14 10 4 11 9 2 19 -15 18 -15 18 -15 -5z"/>
<path d="M2645 1351 c-3 -5 -2 -12 3 -15 5 -3 9 1 9 9 0 17 -3 19 -12 6z"/>
<path d="M1855 1300 c-4 -6 -11 -7 -17 -4 -7 4 -8 2 -4 -5 6 -9 11 -9 22 0 14
11 18 19 10 19 -3 0 -8 -5 -11 -10z"/>
<path d="M1850 1235 c0 -5 5 -17 10 -25 5 -8 10 -10 10 -5 0 6 -5 17 -10 25
-5 8 -10 11 -10 5z"/>
<path d="M1859 1188 c-8 -27 -5 -36 9 -30 10 4 12 7 4 10 -7 2 -10 8 -6 13 3
5 3 9 0 9 -3 0 -6 -1 -7 -2z"/>
<path d="M1844 1089 c-4 -7 -3 -9 4 -5 5 3 13 0 15 -6 4 -9 6 -10 6 -1 1 17
-16 25 -25 12z"/>
<path d="M1855 939 c-4 -6 -5 -12 -2 -15 2 -3 7 2 10 11 7 17 1 20 -8 4z"/>
<path d="M2670 930 c0 -5 5 -10 10 -10 6 0 10 5 10 10 0 6 -4 10 -10 10 -5 0
-10 -4 -10 -10z"/>
<path d="M1835 881 c-3 -5 -2 -12 3 -15 5 -3 9 1 9 9 0 17 -3 19 -12 6z"/>
<path d="M2670 810 c0 -5 5 -10 10 -10 6 0 10 5 10 10 0 6 -4 10 -10 10 -5 0
-10 -4 -10 -10z"/>
<path d="M1854 739 c-3 -6 -2 -15 3 -20 5 -5 9 -1 9 11 0 23 -2 24 -12 9z"/>
<path d="M1856 683 c-6 -14 -5 -15 5 -6 7 7 10 15 7 18 -3 3 -9 -2 -12 -12z"/>
<path d="M1856 652 c-3 -5 1 -9 9 -9 8 0 12 4 9 9 -3 4 -7 8 -9 8 -2 0 -6 -4
-9 -8z"/>
<path d="M2655 610 c-3 -5 -1 -12 5 -15 8 -5 6 -14 -4 -30 -10 -15 -12 -26 -6
-30 6 -4 9 -1 8 7 -2 8 4 12 16 10 17 -3 18 -2 7 12 -11 13 -11 16 0 16 12 0
12 2 0 9 -11 7 -11 9 0 13 9 3 8 6 -4 11 -9 3 -19 2 -22 -3z"/>
<path d="M2655 470 c-3 -5 0 -12 5 -15 8 -5 6 -11 -4 -18 -12 -9 -13 -16 -5
-27 9 -13 10 -12 5 3 -5 15 -2 17 17 12 17 -5 19 -4 7 4 -13 10 -13 11 0 11
12 0 13 2 1 9 -11 7 -11 9 0 13 9 3 8 6 -4 11 -9 3 -19 2 -22 -3z"/>
<path d="M1855 339 c-4 -6 -5 -12 -2 -15 2 -3 7 2 10 11 7 17 1 20 -8 4z"/>
<path d="M1855 150 c-3 -5 -1 -10 4 -10 6 0 11 5 11 10 0 6 -2 10 -4 10 -3 0
-8 -4 -11 -10z"/>
</g>
</svg>
