<svg xmlns="http://www.w3.org/2000/svg" width="1417.32" height="365.124" viewBox="0 527.506 1417.32 365.124"><path d="M0 565.051a25.238 25.238 0 0 1 25.343-25.343h5.632c11.263 0 17.834 5.632 23.466 13.141l85.415 134.223 86.353-134.223c5.632-8.448 12.202-13.141 22.527-13.141h5.632a25.238 25.238 0 0 1 25.343 25.343v236.533c0 14.079-11.263 24.404-25.343 24.404-13.141 0-24.404-11.263-24.404-24.404V631.693l-69.46 104.187c-5.632 8.448-11.263 13.141-20.65 13.141-8.448 0-15.018-4.693-20.65-13.141L50.686 632.632v168.952c-1.877 14.079-13.141 24.404-26.281 24.404S0 815.663 0 801.584V565.051zm333.211 153.934c0-61.949 48.808-112.635 113.573-112.635s113.573 49.747 113.573 110.757v.939c0 60.072-48.808 110.757-114.512 110.757-64.764.001-112.634-49.746-112.634-109.818zm178.338 0c0-38.484-27.22-69.458-65.704-69.458-39.422 0-63.826 30.975-63.826 67.581v.939c0 37.545 27.22 68.519 64.765 68.519 39.422 0 64.765-30.975 64.765-67.581zm98.556-85.415c0-14.079 10.325-24.404 24.404-24.404s24.404 11.263 24.404 24.404v21.588c11.263-26.281 31.913-46.931 53.501-46.931 15.018 0 24.404 10.325 24.404 24.404 0 13.141-8.448 21.588-19.711 23.466-34.729 5.632-58.195 32.852-58.195 83.537v62.888c0 13.141-11.263 24.404-24.404 24.404s-24.404-10.325-24.404-24.404V633.57zm166.136-81.66c0-14.079 10.325-24.404 24.404-24.404s24.404 10.325 24.404 24.404v94.801c15.957-22.527 37.545-40.361 72.274-40.361 49.747 0 98.555 39.422 98.555 110.757v.939c0 70.397-48.808 110.757-98.555 110.757-35.668 0-57.256-17.834-72.274-37.545v11.263c0 13.141-11.263 24.404-24.404 24.404s-24.404-11.263-24.404-24.404V551.91zM947.07 718.046c0-42.238-28.159-69.458-61.01-69.458s-61.949 27.22-61.949 68.519v.939c0 40.361 29.097 68.519 61.949 68.519 33.79.001 61.01-26.281 61.01-68.519zm103.249-166.136c0-13.141 10.325-24.404 24.404-24.404s24.404 11.263 24.404 24.404v250.612c0 14.079-11.264 24.404-24.404 24.404-13.141 0-24.404-10.325-24.404-24.404V551.91zm117.327 332.272c-7.509-2.816-15.018-8.448-15.018-19.711 0-12.202 9.386-19.711 19.711-19.711 3.755 0 6.57.939 8.448 1.877 5.632 1.877 10.325 2.816 16.895 2.816 14.079 0 22.527-5.632 30.036-22.527l1.877-4.693-78.844-176.461c-1.877-3.755-2.816-8.448-2.816-11.263 0-14.079 10.325-23.466 24.404-23.466 12.202 0 19.711 7.509 23.466 18.772l57.256 141.732 53.501-141.732c3.754-10.325 11.263-18.772 23.466-18.772 13.141 0 23.465 10.325 23.465 23.466 0 3.755-.939 9.386-1.877 11.263l-77.906 186.786c-17.834 43.177-37.545 60.072-72.274 60.072-14.079-2.816-23.465-4.693-33.79-8.448zm221.515-118.266c15.957 0 28.159 12.202 28.159 28.159v3.754c0 15.957-12.202 28.159-28.159 28.159-16.895 0-29.097-12.202-29.097-28.159v-3.754c0-15.957 12.202-28.159 29.097-28.159z"/></svg>