<svg xmlns="http://www.w3.org/2000/svg" width="168" height="37" fill="none"><path fill="#7C8385" d="M10.007.592c1.591-.582 3.31-.63 4.985-.575.74.019 1.48.053 2.21.177.37.068.748.152 1.076.345.294.175.498.513.47.86-.052.647-.089 1.295-.143 1.941-.044.367-.062.753-.24 1.085a.588.588 0 0 1-.523.296c-1.286.014-2.578-.201-3.86-.017-.945.134-1.884.562-2.474 1.334-.748.96-.964 2.215-1.016 3.403-.033.999-.009 2-.016 3h5.213c.38.006.797.078 1.072.363.258.265.31.656.318 1.01v2.008c-.003.352-.074.736-.34.99-.296.287-.73.35-1.126.356-1.712.002-3.424-.001-5.136.001-.002 5.84 0 11.678-.002 17.517-.002.394-.108.834-.444 1.076-.308.224-.707.242-1.074.233-.97-.002-1.939 0-2.908 0-.363.001-.763-.086-1.01-.373-.238-.274-.293-.654-.296-1.005V17.17c-.79-.004-1.581 0-2.372-.002-.363-.005-.762-.048-1.045-.3-.292-.258-.376-.667-.384-1.04-.004-.671 0-1.344-.002-2.017-.006-.361.08-.75.347-1.01.261-.265.646-.357 1.008-.36h2.449c-.026-2.19-.003-4.417.61-6.538.35-1.225.904-2.413 1.755-3.374.773-.886 1.79-1.545 2.898-1.937ZM161.395.035c.285-.037.642-.09.87.131.185.23.159.547.173.824.003 8.898 0 17.797.002 26.695.018.792.038 1.59.226 2.364.127.52.366 1.037.793 1.378.487.386 1.128.496 1.735.504.58.026 1.162-.094 1.742-.027.316.033.486.347.531.632.112.701.204 1.407.304 2.111.043.288.082.607-.082.867-.251.41-.731.59-1.172.709-.954.235-1.945.239-2.921.227-1.302-.044-2.637-.254-3.793-.887a5.078 5.078 0 0 1-2.044-2.052c-.564-1.024-.818-2.185-.961-3.336-.188-1.563-.146-3.14-.15-4.71-.001-7.606.001-15.212-.001-22.818.002-.369.009-.774.247-1.079.262-.328.676-.475 1.065-.595 1.14-.328 2.274-.689 3.436-.938Zm-38.953 2.39c1.339-.22 2.744.437 3.481 1.564.599.879.719 2.058.308 3.039-.512 1.27-1.827 2.176-3.202 2.168-1.017.019-2.048-.417-2.694-1.213-.913-1.096-1.003-2.753-.33-3.99.485-.89 1.444-1.451 2.437-1.568ZM21.803 13.62c1.93-1.27 4.296-1.68 6.572-1.635 2.058.028 4.19.425 5.927 1.588a7.667 7.667 0 0 1 2.468 2.731c.669 1.222 1.044 2.583 1.249 3.955.186 1.309.25 2.637.178 3.956-.053.622-.135 1.29-.537 1.793-.329.408-.875.545-1.379.545l-12.975.001c.02 1.206.146 2.498.889 3.498.689.939 1.83 1.407 2.942 1.617 1.484.275 3.007.248 4.504.114a15.108 15.108 0 0 0 3.093-.648c.373-.106.742-.262 1.135-.273.274.054.445.305.598.519.376.592.627 1.256.827 1.926.099.341.206.74-.011 1.059-.33.5-.896.77-1.428 1.004-1.321.534-2.736.788-4.144.955-1.702.194-3.426.159-5.127-.027-1.45-.175-2.901-.5-4.22-1.142a7.837 7.837 0 0 1-2.537-1.915c-.775-.888-1.32-1.958-1.684-3.074-.485-1.497-.676-3.073-.745-4.64-.099-2.492.055-5.048.934-7.404.666-1.805 1.844-3.451 3.47-4.503Zm5.192 3.07c-1.055.148-2.091.674-2.693 1.576-.823 1.216-.977 2.738-.987 4.168 3.074 0 6.148.003 9.222 0 .014-.94-.008-1.895-.27-2.804-.26-.963-.82-1.879-1.687-2.405-1.063-.656-2.379-.707-3.585-.536Zm21.553-4.386c1.665-.347 3.38-.386 5.07-.256.534.063 1.097.118 1.564.407a.708.708 0 0 1 .333.726c-.111.863-.295 1.714-.434 2.573-.065.35-.17.767-.52.934-.371.15-.778.028-1.16 0-1.92-.24-3.957.026-5.637 1.03-.004 5.632 0 11.264-.002 16.897-.005.363-.065.758-.322 1.033-.246.26-.618.345-.963.345h-3.194c-.36-.003-.757-.094-.993-.386-.236-.298-.261-.696-.268-1.06-.001-6.423.001-12.846-.001-19.269 1.891-1.502 4.17-2.484 6.527-2.974Zm15.462.094a16.055 16.055 0 0 1 3.893-.414c.808.007 1.624.02 2.419.185.349.082.728.19.964.479.146.182.14.427.109.645-.115.785-.273 1.563-.402 2.346-.055.307-.113.636-.32.881-.15.18-.392.251-.62.239-.511-.02-1.016-.118-1.527-.137-1.678-.095-3.412.227-4.867 1.092-.004 5.61 0 11.222-.002 16.834-.004.372-.048.776-.298 1.071-.244.285-.64.374-1 .375-1.068-.001-2.136.002-3.204-.002-.387-.002-.822-.124-1.036-.474-.239-.395-.2-.876-.205-1.318.004-6.31-.005-12.618.004-18.926 1.773-1.411 3.894-2.356 6.092-2.876Zm17.375-.336a20.472 20.472 0 0 1 4.477.09c1.399.198 2.79.594 4.006 1.327a7.672 7.672 0 0 1 2.106 1.855c.77.982 1.296 2.136 1.642 3.33.396 1.353.568 2.76.645 4.163.073 1.807.027 3.627-.29 5.411-.36 2.05-1.139 4.114-2.651 5.597-.904.897-2.04 1.54-3.245 1.94-1.316.44-2.705.619-4.086.667-1.51.043-3.034-.026-4.51-.362-1.163-.262-2.298-.7-3.284-1.378a7.76 7.76 0 0 1-2.355-2.556c-.72-1.24-1.134-2.633-1.375-4.039-.335-2.021-.362-4.085-.208-6.125.196-2.245.71-4.553 2.05-6.41 1.044-1.466 2.628-2.49 4.342-2.995.89-.274 1.81-.43 2.736-.515Zm.974 4.58c-.79.067-1.598.244-2.265.691-.652.428-1.095 1.108-1.362 1.83-.393 1.059-.509 2.195-.579 3.316-.07 1.619-.073 3.247.122 4.857.138 1.01.36 2.047.927 2.913a3.336 3.336 0 0 0 1.786 1.334c.898.29 1.855.32 2.79.283.973-.046 1.995-.237 2.779-.853.668-.522 1.072-1.305 1.306-2.105.366-1.25.442-2.564.478-3.86.014-1.771.025-3.574-.425-5.3-.267-1.035-.837-2.066-1.814-2.574-1.145-.598-2.486-.609-3.743-.532Zm54.475-4.258c1.562-.383 3.182-.445 4.782-.38 2.651.12 5.309.65 7.722 1.778.458.216.907.455 1.33.734V28.93c.013.688-.063 1.405.189 2.061.145.4.478.723.89.839.675.217 1.384.009 2.073.066.328.023.503.347.549.64.136.757.251 1.52.345 2.285.041.254 0 .529-.158.738-.258.348-.675.525-1.078.644-.812.229-1.663.257-2.501.25-1.096-.02-2.218-.338-3.064-1.057a4.275 4.275 0 0 1-1.361-2.123c-1.484 1.764-3.72 2.776-5.977 3.079-1.449.177-2.933.137-4.359-.185-1.184-.27-2.325-.778-3.27-1.547-.856-.684-1.537-1.57-2.041-2.54-.651-1.25-1.025-2.627-1.241-4.013-.263-1.733-.304-3.494-.205-5.24.147-2.248.595-4.543 1.773-6.494a8.311 8.311 0 0 1 2.223-2.431c1.005-.735 2.173-1.225 3.379-1.516Zm.694 4.893c-.952.542-1.511 1.561-1.77 2.595-.422 1.688-.408 3.445-.402 5.174.036 1.515.123 3.078.726 4.49.396.947 1.168 1.753 2.155 2.08 1.154.38 2.422.324 3.587.025 1.228-.325 2.348-1.105 3-2.203.099-.151.045-.341.059-.51-.001-3.82-.002-7.638 0-11.458-1.07-.503-2.248-.743-3.421-.834-1.328-.074-2.751-.04-3.934.64Zm-42.188-4.46c.212-.283.585-.379.923-.378 1.227.002 2.453 0 3.679.001.464.001.971.13 1.269.511.341.441.459.998.642 1.514 1.56 4.735 3.125 9.469 4.681 14.206 1.692-4.953 3.369-9.912 5.059-14.865.151-.408.301-.86.671-1.123.369-.257.84-.25 1.271-.244 1.039.005 2.077-.007 3.116.006.588.015 1.08.657.835 1.223-.459 1.257-.976 2.494-1.456 3.744-2.272 5.775-4.544 11.55-6.814 17.326-.142.345-.268.715-.539.981-.239.228-.584.278-.9.275l-2.78-.001c-.382.003-.791-.09-1.067-.371-.396-.4-.547-.96-.754-1.467L95.68 14.95c-.153-.437-.383-.847-.477-1.303-.057-.279-.046-.595.137-.828Zm25.904-.367c1.056-.025 2.115-.002 3.174-.011.387-.011.815.053 1.098.344.279.29.345.712.351 1.099l-.001 20.734c-.004.397-.082.844-.407 1.11-.306.258-.73.276-1.111.268-.994-.002-1.988.002-2.983-.002-.387-.004-.812-.14-1.025-.485-.235-.369-.214-.823-.215-1.241l.001-20.312c.001-.379.042-.788.286-1.096.198-.254.518-.377.832-.408Z"/></svg>