<svg xmlns="http://www.w3.org/2000/svg" width="168" height="25" fill="none"><path fill="#7C8385" fill-rule="evenodd" d="M77.164 21.358c0 2.224-.712 2.98-2.826 2.98-1.112 0-2.37-.066-3.192-.144V.1h5.862l10.246 15.307a9.933 9.933 0 0 1-.134-1.902V.154h6.03v24.04c-1.012.1-2.47.145-3.85.145a3.905 3.905 0 0 1-4.06-2.225c-.934-1.435-8.21-12.46-8.21-12.46.125.788.17 1.585.134 2.381v9.345-.022ZM7.848.11C2.23.366.15 3.647.15 7.252c0 3.604 2.224 7.22 7.954 7.342h5.128a2.313 2.313 0 0 1 1.739 4 2.315 2.315 0 0 1-1.74.616H4.189c-2.926 0-3.783.824-3.783 3.638v1.49c2.804.067 7.676.156 13.461.079 5.785-.078 8.132-3.816 8.132-7.654s-2.447-7.587-8.12-7.687H8.47a2.125 2.125 0 0 1 0-4.227c.879-.056 8.11 0 8.11 0 2.947 0 3.782-.835 3.782-3.638V.099c-1.647 0-8.221-.2-12.515 0M104.053.11c-5.63.256-7.699 3.548-7.699 7.142 0 3.593 2.28 7.22 7.954 7.342h5.129a2.312 2.312 0 0 1 2.474 2.308 2.306 2.306 0 0 1-.735 1.692 2.318 2.318 0 0 1-1.739.616h-9.044c-2.948 0-3.783.835-3.783 3.638v1.49c2.804.067 7.676.156 13.461.079 5.785-.078 8.132-3.816 8.132-7.654s-2.447-7.587-8.121-7.687h-5.406a2.126 2.126 0 0 1-1.361-3.537c.353-.39.837-.637 1.361-.69.878-.056 8.109 0 8.109 0 2.948 0 3.783-.835 3.783-3.638V.099c-1.647 0-8.221-.2-12.515 0M60.288 14.75l-2.981-9.434-2.97 9.434a.367.367 0 0 1 .267-.078h5.406a.39.39 0 0 1 .278.078Zm10.146 9.444c-.779 0-2.514.145-3.805.145-2.002 0-3.404-.267-3.982-2.103l-.835-2.636h-9l-.823 2.659c-.578 1.846-1.846 2.058-3.904 2.102h-5.307c-1.89 0-2.937-.456-3.815-1.48l-7.788-9.033a.946.946 0 0 1-.267-.489v8.043c0 2.225-.712 2.981-2.836 2.981-1.113 0-2.904-.066-3.738-.144V.099h6.563v10.935c.013-.246.107-.48.267-.668L39.084.1h7.788L36.86 11.779l8.343 9.067c.097.103.166.23.2.367.013-.13.043-.257.09-.378L53.825.099h6.964l9.645 24.095ZM156.871 14.75l-2.981-9.434-2.97 9.433a.367.367 0 0 1 .267-.077h5.406c.1-.011.199.017.278.077Zm10.146 9.444c-.779 0-2.514.145-3.805.145-2.013 0-3.404-.267-3.982-2.103l-.835-2.636h-8.988l-.834 2.659c-.579 1.846-1.847 2.058-3.905 2.102h-5.307c-1.891 0-2.936-.456-3.815-1.48l-7.787-9.033a.963.963 0 0 1-.267-.522v8.043c0 2.224-.712 2.98-2.837 2.98-1.113 0-2.904-.066-3.738-.144V.1h6.564v10.935a1.11 1.11 0 0 1 .266-.668L135.679.1h7.787l-10.012 11.67 8.344 9.066c.097.103.165.23.2.367.012-.13.042-.257.089-.379L150.386.087h6.964l9.667 24.107Z" clip-rule="evenodd"/></svg>