<svg xmlns="http://www.w3.org/2000/svg" width="179" height="26" fill="none"><path fill="#7C8385" fill-rule="evenodd" d="m13.722 5.81 3.716 9.402-7.305-.004 3.589-9.399ZM11.198.937.81 25.412l5.461.002 2.189-5.836 10.651.004 2.252 5.839 5.737.002L16.66.938h-5.462ZM33.974 5.35l7.546.004c2.288 0 3.38.85 3.38 2.818-.002 1.968-1.094 2.817-3.383 2.817l-7.546-.005.003-5.634Zm7.61 15.743-7.615-.002.002-5.77 7.614.001c2.289 0 3.38.854 3.378 2.904.003 2.047-1.09 2.867-3.38 2.867Zm.714 4.336c5.567.002 8.23-2.045 8.232-6.688 0-2.765-1.228-4.508-3.721-5.568 2.527-1.294 3.655-3.13 3.657-5.848 0-2.275-.992-4.118-2.765-5.249C46.371 1.224 44.287.951 41.42.95L28.82.944l-.009 24.48 13.487.006Zm22.39-20.204 8.466.004.002-4.267-8.57-.005C56.7.956 53.045 4.983 53.04 13.621c0 4.438 1.229 7.65 3.755 9.664 2.388 1.916 4.677 2.154 7.648 2.156l8.706.003.002-4.268-8.467-.002c-4.064 0-5.805-1.608-5.839-6.012l14.306.007v-4.268l-14.272-.004c.209-3.837 2.086-5.673 5.81-5.671ZM77.658.965l-.01 24.48 5.294.003-.231-18.515L93.25 25.45l5.975.005.01-24.481L93.98.969l.231 17.594L84.181.967 77.659.965Zm35.454 14.284 6.897.002-.002 5.77h-5.805c-4.163 0-5.8-2.392-5.798-7.616.002-5.58 1.675-8.193 5.805-8.188l11.096.002.002-4.234-11.096-.002c-7.852-.002-11.541 4.023-11.546 12.66 0 4.439 1.226 7.648 3.75 9.664 2.459 1.982 4.818 2.155 7.787 2.155l11.096.002.005-14.542-12.188-.005-.003 4.332Zm14.847-2.282c-.002 8.912 3.782 13.01 12.215 13.012 8.334.005 12.225-4.09 12.229-12.765.003-8.67-3.881-12.733-12.215-12.737-8.231-.002-12.225 4.059-12.229 12.49Zm12.224-8.29c4.541.002 6.625 2.77 6.622 8.537-.002 5.771-2.086 8.536-6.626 8.534-4.606 0-6.588-2.768-6.588-8.742.002-5.564 2.154-8.332 6.592-8.33Zm25.294 1.194 3.714 9.402-7.308-.002 3.594-9.4ZM162.948.999 152.56 25.475l5.462.003 2.186-5.837 10.652.002 2.254 5.84 5.736.001-10.44-24.483L162.948 1Z" clip-rule="evenodd"/></svg>