<svg xmlns="http://www.w3.org/2000/svg" width="179" height="25" fill="none"><path fill="#7C8385" d="M111.964 22.982s3.914 1.086 8.912 1.086c5.328 0 7.794-.592 7.794-.592v-3.947s-2.664.526-6.38.526c-3.255 0-5.262-.427-5.262-.427v-5.59h10.097V10.09h-10.097V4.763s1.974-.362 4.934-.362c3.322 0 6.314.527 6.314.527V.948s-2.631-.56-6.907-.56c-5.689 0-9.405 1.021-9.405 1.021v21.573ZM39.81 14.004c-.132.33-.295.954-.394 1.316-.098-.362-.263-.987-.394-1.316L34.548 2.527C33.792.62 32.608.389 30.438.389c-.756 0-2.302.099-2.302.099l-2.302 23.25h5.098l1.117-15.587 4.835 11.806c.362.92 1.085 1.282 2.532 1.282s2.17-.361 2.532-1.282L46.782 8.15l1.119 15.588h5.097L50.696.488s-1.546-.1-2.302-.1c-2.17 0-3.354.232-4.111 2.139L39.81 14.004Zm-25.52 4.769c-1.085.428-3.716 1.282-5.656 1.282-2.105 0-3.683-.723-3.683-3.025 0-2.006 1.084-3.157 3.98-3.256l5.36-.197v5.196ZM11.266.389c-4.539 0-8.09 1.118-9.472 1.81L2.88 6.012s3.486-1.25 6.906-1.25c2.927 0 4.44.822 4.44 3.716v1.645h-4.44c-7.531 0-9.768 3.453-9.768 7.268 0 5.064 3.947 6.676 7.532 6.676 4.176 0 6.61-1.743 6.906-1.743.23 0 1.085.92 4.9.92V7.131c0-4.834-2.993-6.742-8.09-6.742Zm61.038 18.384c-1.086.428-3.716 1.282-5.656 1.282-2.106 0-3.684-.723-3.684-3.025 0-2.006 1.085-3.157 3.98-3.256l5.36-.197v5.196ZM69.277.389c-4.539 0-8.09 1.118-9.471 1.81l1.085 3.814s3.486-1.25 6.906-1.25c2.927 0 4.44.822 4.44 3.716v1.645h-4.44c-7.53 0-9.768 3.453-9.768 7.268 0 5.064 3.947 6.676 7.532 6.676 4.176 0 6.61-1.743 6.906-1.743.23 0 1.085.92 4.9.92V7.131c0-4.834-2.993-6.742-8.09-6.742Zm80.671 17.562c-1.216.591-3.847 1.578-6.248 1.578-3.487 0-4.078-1.578-4.078-5.196V.586h-.757c-1.15 0-3.716.198-4.341.33V14.99c0 6.15 1.514 9.077 7.761 9.077 4.769 0 7.564-1.842 7.761-1.842.067 0 1.711 1.02 5.001 1.02V.915c-.362-.066-2.83-.33-4.08-.33h-1.019v17.365Zm11.12 5.294s3.157.823 7.564.823c4.177 0 9.438-1.414 9.438-7.07 0-3.685-2.729-5.263-7.169-6.874-2.401-.888-4.44-1.678-4.44-3.322 0-.79.593-2.335 3.651-2.335 2.861 0 5.788 1.316 5.788 1.316L177.183 2c-.856-.428-3.651-1.612-7.531-1.612-4.21 0-8.321 2.237-8.321 6.742 0 4.637 4.21 6.051 7.498 7.137 2.237.756 4.111 1.546 4.111 3.025 0 1.446-.789 2.697-4.571 2.697-3.092 0-6.38-.69-6.38-.69l-.921 3.945ZM89.864 4.795a22.52 22.52 0 0 1 4.045-.394c3.683 0 6.578 2.072 6.578 7.664 0 5.426-1.415 7.99-7.038 7.99-1.809 0-3.585-.263-3.585-.263V4.796ZM94.139.39c-2.894 0-6.906.493-9.373 1.381v21.607c2.04.428 5.855.69 8.519.69 9.076 0 12.595-3.551 12.595-12.002 0-7.302-4.473-11.676-11.74-11.676Z"/></svg>