<?xml version="1.0" encoding="utf-8"?>
<!-- Generator: Adobe Illustrator 17.0.0, SVG Export Plug-In . SVG Version: 6.00 Build 0)  -->
<!DOCTYPE svg PUBLIC "-//W3C//DTD SVG 1.1//EN" "http://www.w3.org/Graphics/SVG/1.1/DTD/svg11.dtd">
<svg version="1.1" id="Layer_1" xmlns="http://www.w3.org/2000/svg" xmlns:xlink="http://www.w3.org/1999/xlink" x="0px" y="0px"
	 width="1417.32px" height="365.124px" viewBox="0 527.506 1417.32 365.124" enable-background="new 0 527.506 1417.32 365.124"
	 xml:space="preserve">
<g id="XMLID_1_">
	<path id="XMLID_2_" d="M0,565.051c0-14.079,11.263-25.343,25.343-25.343h5.632c11.263,0,17.834,5.632,23.466,13.141l85.415,134.223
		l86.353-134.223c5.632-8.448,12.202-13.141,22.527-13.141h5.632c14.079,0,25.343,11.263,25.343,25.343v236.533
		c0,14.079-11.263,24.404-25.343,24.404c-13.141,0-24.404-11.263-24.404-24.404V631.693L160.504,735.88
		c-5.632,8.448-11.263,13.141-20.65,13.141c-8.448,0-15.018-4.693-20.65-13.141L50.686,632.632v168.952
		c-1.877,14.079-13.141,24.404-26.281,24.404S0,815.663,0,801.584V565.051z"/>
	<path id="XMLID_28_" d="M333.211,718.985L333.211,718.985c0-61.949,48.808-112.635,113.573-112.635s113.573,49.747,113.573,110.757
		v0.939c0,60.072-48.808,110.757-114.512,110.757C381.081,828.804,333.211,779.057,333.211,718.985z M511.549,718.985
		L511.549,718.985c0-38.484-27.22-69.458-65.704-69.458c-39.422,0-63.826,30.975-63.826,67.581v0.939
		c0,37.545,27.22,68.519,64.765,68.519C486.206,786.566,511.549,755.591,511.549,718.985z"/>
	<path id="XMLID_44_" d="M610.105,633.57c0-14.079,10.325-24.404,24.404-24.404s24.404,11.263,24.404,24.404v21.588
		c11.263-26.281,31.913-46.931,53.501-46.931c15.018,0,24.404,10.325,24.404,24.404c0,13.141-8.448,21.588-19.711,23.466
		c-34.729,5.632-58.195,32.852-58.195,83.537v62.888c0,13.141-11.263,24.404-24.404,24.404s-24.404-10.325-24.404-24.404V633.57z"/>
	<path id="XMLID_77_" d="M776.241,551.91c0-14.079,10.325-24.404,24.404-24.404c14.079,0,24.404,10.325,24.404,24.404v94.801
		c15.957-22.527,37.545-40.361,72.274-40.361c49.747,0,98.555,39.422,98.555,110.757v0.939c0,70.397-48.808,110.757-98.555,110.757
		c-35.668,0-57.256-17.834-72.274-37.545v11.263c0,13.141-11.263,24.404-24.404,24.404c-13.141,0-24.404-11.263-24.404-24.404
		V551.91z M947.07,718.046L947.07,718.046c0-42.238-28.159-69.458-61.01-69.458s-61.949,27.22-61.949,68.519v0.939
		c0,40.361,29.097,68.519,61.949,68.519C919.85,786.566,947.07,760.284,947.07,718.046z"/>
	<path id="XMLID_81_" d="M1050.319,551.91c0-13.141,10.325-24.404,24.404-24.404s24.404,11.263,24.404,24.404v250.612
		c0,14.079-11.264,24.404-24.404,24.404c-13.141,0-24.404-10.325-24.404-24.404V551.91z"/>
	<path id="XMLID_83_" d="M1167.646,884.182c-7.509-2.816-15.018-8.448-15.018-19.711c0-12.202,9.386-19.711,19.711-19.711
		c3.755,0,6.57,0.939,8.448,1.877c5.632,1.877,10.325,2.816,16.895,2.816c14.079,0,22.527-5.632,30.036-22.527l1.877-4.693
		l-78.844-176.461c-1.877-3.755-2.816-8.448-2.816-11.263c0-14.079,10.325-23.466,24.404-23.466
		c12.202,0,19.711,7.509,23.466,18.772l57.256,141.732l53.501-141.732c3.754-10.325,11.263-18.772,23.466-18.772
		c13.141,0,23.465,10.325,23.465,23.466c0,3.755-0.939,9.386-1.877,11.263l-77.906,186.786
		c-17.834,43.177-37.545,60.072-72.274,60.072C1187.357,889.814,1177.971,887.937,1167.646,884.182z"/>
	<path id="XMLID_112_" d="M1389.161,765.916c15.957,0,28.159,12.202,28.159,28.159v3.754c0,15.957-12.202,28.159-28.159,28.159
		c-16.895,0-29.097-12.202-29.097-28.159v-3.754C1360.064,778.118,1372.266,765.916,1389.161,765.916z"/>
</g>
</svg>
