<svg xmlns="http://www.w3.org/2000/svg" xmlns:xlink="http://www.w3.org/1999/xlink" width="595.28" height="143.031" viewBox="0 349.43 595.28 143.031"><defs><path id="a" d="M0 349.95h594.892v142.51H0z"/></defs><clipPath id="b"><use xlink:href="#a" overflow="visible"/></clipPath><path clip-path="url(#b)" fill="#AD3748" d="M123.687 408.071c.02-.052.04-.102.056-.15.725-1.035 2.193-2.43 2.193-2.43.14-.114.302-.264.475-.428l.03-.074c2.02-1.884 2.731-3.987 2.934-5.633.391-2.468-.418-4.473-.418-4.473-.195.633-.594 1.287-1.011 1.853.5-2.219.323-4.202-.079-5.799-.331-1.445-.881-2.929-1.893-4.047-1.046-1.158-2.238-2.124-3.182-3.385-.061-.08-.59-.943-.806-1.24-2.056 2.455-1.546 5.842-1.305 6.944.327.643.61 1.967-1.315 3.523l-.411-2.625c-.02-.01-.045-.018-.065-.027-1.865.625-5.96 2.505-7.938 7.312-.443 1.962-.514 4.196.441 6.225 0 0 1.428 3.517 5.178 4.537.305.177.494.263.494.263s2.568 2.72 4.418 6.316c.958 2.072 1.575 4.235 1.568 6.42 0 .102-.003.208-.004.321-.131 3.256-2.551 5.525-2.551 5.525-1.949 1.271-4.172 1.411-6.424.89-6.165-1.741-12.46-9.384-12.46-9.384l-16.538-4.566v.003c-.606-.109-.96-.163-.96-.163l-.425.11c-3.009.793-5.58 1.114-7.766 1.114-6.164-.031-9.313-2.459-11.218-4.874a12.75 12.75 0 0 1-1.564-2.636l.04-.005-.691-1.839-.059-.245c-.007-.029-.008-.049-.011-.06l-.042.008-.297-.791-.375-.191c-.004-.016-.004-.027-.004-.027l-3.508-1.752c1.436-.334 3.524-1.259 5.619-3.73.098-.112.154-.18.154-.18-3.516-2.015-5.131-6.178-5.131-6.178-1.71-4.513-5.123-10.366-5.123-10.366l3.198-4.114c-3.779-5.423-10.637-7.594-10.637-7.594l.657-3.585c-1.388-1.223-6.06-4.667-13.348-3.427l-.481-3.292-4.937 1.556-.366-1.007-6.586 1.007-.731 1.463-2.47-.732c-2.012 5.396-6.95 3.201-6.95 3.201l-2.743 3.931s2.274 2.536 4.19 3.501a10.132 10.132 0 0 0-1.143 1.805c-.411.745-.832 1.628-1.067 2.471l-.003.007a5.33 5.33 0 0 0-.148.727l-.274.178-.01-.012c-.599.409-1.37.9-1.952 1.263-6.556 4.633-7.004 7.837-7.004 7.837a2.693 2.693 0 0 0-.71 1.117c-.334.857-.144 1.625-.144 1.625l3.113 1.951.667 1.892.933.486-1.543.428.429 2.257.439.176c-.238.954-.579 3.623 2.427 5.494l3.901-2.498s1.707 1.218 3.538.181c0 0 1.828-1.158 1.765-2.743 0 0-.183-.733-.426-1.524 0 0-.606-1.463.217-1.921 0 0 1.042-.522 2.135.014.603.501 1.838 2.009.18 5.11 0 0-4.298 8.048-14.631 8.872 0 0 .131 3.599 3.607 6.065-.977 4.077-1.992 13.765 7.92 20.11l1.725-.87 1.763 1.242-9.45 8.431c-1.031.718-1.949 1.344-2.64 1.817-3.021 9.726-2.772 18.082-2.772 18.082s3.583 5.382 6.427 7.265c1.335.177 2.756.395 4.123.264.031-.003.054-.01.08-.011 2.069-1.373 2.478-4.042 2.478-4.042l2.156-.595c1.285-1.824 1.707-4.971 1.829-7.235l-2.523-4.152c-.272-1.097.456-2.745.456-2.745 2.836-3.198 10.701-5.699 10.701-5.699s2.141 4.275 6.287 7.425l-1.218 8.914c-3.558.456-12.679 2.64-12.384 13.051 0 0 2.475 2.265 3.822 2.246.154.482.354.964.621 1.415 1.394.582 5.003 1.812 8.971-.734 0 0 2.617 3.203 7.671-.297.188-.988.608-2.824 1.347-4.599.842-2.069 2.148-3.92 3.607-4.482l1.259-.518-.422-1.29-.02-.078c-.133-.441-.725-2.624-.725-5.281 0-1.902.301-4.033 1.221-5.976.926-1.947 2.426-3.73 5.025-5.085l1.173-.605-.91-2.321c1.962.2 6.066.451 9.725-.339l3.065 9.676c.292.121 1.473.685 1.899 1.889.304 3.544-3.547 4.789-3.547 4.789l-.561.251c-1.443.473-3.369 1.005-5.783 1.459L54.616 467c-.518.759-.94 1.661-1.256 2.609-1.019.53-2.771 2.02-2.836 5.98.222.642.8 2.241 1.167 2.643l1.532.342s1.373 1.094 4.027 1.463c0 0 2.869.263 4.791-1.204 5.265 1.692 7.837-.266 8.73-1.238-1.072-3.412.467-5.366 2.53-6.49 1.453-.925 3.28-1.259 4.651-1.369.356-.05.658-.079.899-.099.345-.47 3.336-4.6 3.339-4.606.031-.037-1.669-2.234-1.79-2.444a13.96 13.96 0 0 1-1.409-3.393c-.488-1.863-.542-4.073.342-5.834.954-1.902 3.795-3.031 5.747-3.506a10.094 10.094 0 0 1 2.467-.202c2.286 1.409 5.02 2.718 8.245 3.756 1.913.673 12.301 4.437 16.295 7.819.294 1.278.586 3.348-.132 4.76l-4.339 2.005s-4.695-.364-5.669 3.723c0 0-3.816.94-3.945 5.434 1.142 2.17 3.7 4.198 3.7 4.198 4.326 2.075 6.829.067 6.829.067 3.218 1.023 5.738.853 7.544.343 1.696-.678 4.224-2.098 6.122-4.926-.447-1.609-1-5.065 2.076-5.893 0 0 1.712-2.027 1.556-4.329-2.734-5.968-2.974-15.062-2.97-19.215-.655-1.016-1.451-1.515-1.918-1.738 0 0-.369-.038-.973-.154-8.582-.567-9.208-9.218-9.208-9.218 2.934.534 11.147 1.3 16.552-5.363 6.251-10.526-1.663-20.612-3.625-22.85m-105.22 51.567s.29 2.241-.73 3.933c-1.921.459-4.757-.549-4.757-.549-1.027-.411-2.107-2.257-2.584-3.158-.61-.097-1.328.056-1.982.327l.011.056c.47 2.06 1.216 3.844 2.327 5.265 1.583.922 3.874 1.626 3.874 1.626-1.158.772-3.081.546-4.426.244-1.171-1.319-2.997-3.544-4.197-5.842-.079-1.334-.016-2.761.146-4.191.445-2.212.902-4.419 1.332-6.687a63.996 63.996 0 0 1 1.407-4.54c.173-.136.349-.263.492-.372a100.941 100.941 0 0 1 5.096-3.649l-4.422 5.924c-1.921 5.578-.435 8.698-.435 8.698 2.13-.447 3.361.631 3.361.631.918 1.252 2.171 2.061 3.271 2.576l-.159-4.679 2.375 4.387zm33.751 16.648s-.731-3.843 1.462-4.667c0 0-.089 3.386.277 4.484 0 0-1.006.824-1.739.183zm75.735-76.921s-.185 2.193-1.146 3.062c0 0-3.659 2.609-3.93 3.707 0 0-1.191-3.158 2.102-5.032 0 0 1.692-.365 2.974-1.737zm-5.532-11.716c-.03-.132-.313-1.836-.232-1.821.17.029.343.123.509.255l-.007-.042s5.768 3.939 3.245 9.896l-.569.046-.184-4.209-3.102 1.129c.042-.053.087-.102.127-.154a3.967 3.967 0 0 0 .836-2.347c.014-.948-.422-1.839-.623-2.753zm-68.381.647c.4.725.767 1.463 1.086 2.223.934 2.224 1.923 4.364 3.325 6.139a31.743 31.743 0 0 0 2.517 2.309c-2.854.904-4.572-.033-5.499-.947-1.338 5.927-5.437 8.038-5.437 8.038.091-7.393-5.084-12.325-6.043-13.178-.022 3.644-.365 8.448-1.651 13.061-.832 3.448-2.468 6.97-5.359 10.244-.346-3.412.79-6.668.79-6.668.913-3.751.362-8.416.362-8.416.204-4.245-2.471-11.212-3.895-14.593 2.046 2.554 6.652 8.91 6.364 14.044 0 0 1.094-2.621.737-6.676l.007-.801a26.178 26.178 0 0 0-.469-2.004c-.691-2.927-2.19-6.326-5.135-9.898l.369-1.261c2.942 1.494 13.046 7.16 15.255 15.549 0 0 .218-.702.159-2.113l.011-.014a16.84 16.84 0 0 0-1.272-5.654c-3.568-9.361-14.352-13.397-16.705-14.179v-2.31s12.621 3.751 18.293 12.622c.002.001 1.095 2.147 2.19 4.483zm-22.29 36.662a4.84 4.84 0 0 1-.865 1.244c-4.664-7.967-.466-16.38-.466-16.38 1.824-5.002 1.74-9.662 1.301-12.828-.151-2.042-.448-3.392-.448-3.392-.275-1.562.351-3.471.674-4.315 6.375 12.615 1.644 23.584 1.644 23.584-3.389 6.291-2.397 10.585-1.84 12.087zm22.573-47.088l-2.194 2.317s-5.488-8.294-18.661-10c0 0 11.952-.975 20.855 7.683zm-9.994-10.401c.049.042.256.142.173.263-3.163-1.031-8.406-1.537-11.899-.439l-2.152-.492c0 .001 6.94-4.883 13.878.668zm-15.104-3.672c.349-.183.685-.357.998-.518.287-.114.559-.195.806-.218v1.272s-2.073 1.586-2.196 2.561c0 0-1.447-.421-2.786-.567.769-.721 2.003-1.81 3.178-2.53zm.523 5.07s.798 2.91 1.011 5.313c0 0 .056 1.088-.094 1.73 0 0-.689.794-1.554 1.605-.365.098-.816.219-1.057.298-.238-.09-.474-.177-.644-.234l.984-2.041c.274-2.15-.697-5.027-.697-5.027-.681-.251-1.294-.573-1.985-.819-.454.624-.591 1.565-1.033 2.2-.206-.14-.509-.18-.776-.257 0 0 .007-.038.026-.108.059-.3.142-.573.255-.821.281-.76.778-1.774 1.571-2.207-.003 0 2.803-.211 3.993.368zm-7.535-6.332l.003.018-.684.135.681-.153zm-2.584 2.613l1.656.426 1.114-1.974 3.124-.546c-2.461 2.812-1.843 5.853-1.843 5.853l-1.463.548c-.455-1.463-3.016-3.841-3.016-3.841l.428-.466zm-3.022 2.364c1.034.531 3.332 1.752 4.439 2.343l-.383.578-2.107-.229-1.917-.911c-.108-.294-.454-.933-.749-1.451.241-.093.482-.201.717-.33zm-4.364 2.761c-.424-.26-.813-.539-1.091-.817l.729-1.221s1.25.198 2.703-.045l.18 2.764-.086.217a.038.038 0 0 0-.016.014c-.887-.193-1.736-.555-2.419-.912zm-7.921 20.89s-1.881-1.44-3.012-2.032l.218-.806c.804.275 2.361.7 3.893.505.402-.108.8-.223 1.182-.29.059.415-.091.627-.128.948-.222.319-.544.524-.91.794-.431.36-.927.737-1.243.881zm11.876 1.574c-.23.046-.23-.319-.23-.319.652-1.045 1.703-1.157 2.248-1.136a.15.15 0 0 0 .035-.112c-.309-.293-.973-.238-1.467-.215-.158.008-.32.031-.474.059-.774.302-4.02 1.846-2.399 5.932.638 1.279-.87 2.193-.87 2.193-1.737.687-2.377-.73-2.377-.73-.689-.943-1.364-1.151-1.714-1.191.168.286.405.497.588.766-.112.362.075 1.024-.215 1.21-.425.109-.767-.068-1.09-.221-.049.391-.008.786-.008.786l-1.646.978a5.753 5.753 0 0 1-.544-.741c-.323-.531-.477-1.004-.53-1.421l1.43-1.697-1.971-.358c-.068-.334-.277-.711-.17-1.079 1.182-.108 2.485-.089 3.777-.087.025.005.054.016.083.025.595.063 1.633.334 2.314 1.403 0 0 0 .633.836.752.669.094.33-.813.075-1.05a4.756 4.756 0 0 0-.986-1.073l-.11-.071c-.781-.61-2.004-1.27-3.871-1.595l-.564-.094a2.887 2.887 0 0 1-.601-.113c-.199-.02-.313-.026-.313-.026l-.435-1.298 1.576-1.904-.14.059c.354-.428.579-.873.715-1.29.007-.005.01-.012.016-.018-.003-.008 0-.012-.003-.02.29-.915.17-1.662.17-1.662-.917.582-2.978 1.23-4.525.647 0 0-1.618-2.373 7.514-8.277l1.073 1.761c.471.229 1.091.316 1.676.433l.221.563-.286.569.046.031 1.67 1.261-.628-2.051s.937-.109 2.069-1.064c.244.063.549.138.904.211l.947-1.396c-.251.151-.832.012-1.302-.144l-.7-.263-3.148 1.2c-.76-.143-1.517-1.246-1.817-1.727l2.944-1.351 1.28-2.44s-1.583.793-2.22 1.77l-.027.003-.655-.015s.872-4.005 4.968-5.46c1.005.114 2.555.473 3.959 1.32-.708.534-1.735 1.477-1.854 2.523 0 0-.061 1.128 1.312 3.11 0 0 .121.29.044.511l-.64.368-1.071 2.73s4.01-.445 7.187-1.978c1.567 1.744 3.983 5.481 2.008 10.583a3.778 3.778 0 0 1-.184.463c-1.565-.813-2.509-2.749-2.949-3.888a84.05 84.05 0 0 0-.292-.872c-2.343-1.433-3.982-1.411-3.982-1.411-2.712 1.677-4.826 1.933-4.826 1.933-2.614-.676-3.708-2.802-3.708-2.802s.368 1.519 1.819 2.797c.045.031.08.06.123.093.418.327.853.549 1.336.864.01.005.019.014.029.02.327.157.691.292 1.083.406.629-.105 1.231-.365 1.798-.654.601-.311.986-.569 1.468-.629l-.005-.011s1.328-.313 2.701.981c.576 1.143 1.616 3.875.315 6.895l-2.294 1.955c-.023-.928-.24-1.982-.941-2.869-1.462-1.51-3.575-1.341-3.575-1.341zm-.345 16.943c-.466 0-.952.286-1.207.465-1.166.816-2.332 2.712-2.983 4.126a15.212 15.212 0 0 0-1.362 5.75c-.189 4.715 1.635 8.037 3.292 10.932-.312-.183-.593-.496-.835-.79-1.703-2.05-3.339-4.863-4.083-7.859-.482-1.934-.531-4.242-.218-6.277.215-1.419.714-2.671 1.057-3.98-2.036-.315-3.423-1.997-3.702-2.365 6.95-.105 12.384-3.751 14.61-5.513v.191c-.447 1.481-2.026 6.961-2.603 12.133-.06.391-.082.616-.082.616a18.18 18.18 0 0 0-.135 2.746c-.011 2.214.486 4.309 1.291 6.356.731 1.87 1.607 3.659 2.753 5.315.669.964 1.475 1.868 2.395 2.605-15.693-6.269-10.065-20.576-8.188-24.451zm10.274 17.806c.509.744 1.094 1.543 1.749 2.17 0 0-.627 2.451-.629 2.453-.01.049-.781-.516-.813-.548-.602-.542-1.132-1.169-1.647-1.791-.806-.983-1.557-2.027-2.135-3.164-.745-1.467-1.143-3.066-1.264-4.705-.157-2.124.091-4.257.35-6.36.139-1.112.565-2.076.9-3.13.418-1.305.888-2.595 1.328-3.892.855-2.523 1.727-5.04 2.602-7.556.14-.402.274-.808.411-1.21.034-.09.166-.319.148-.421 0 0-.008-.029-.015-.074l1.221-1.298a29.775 29.775 0 0 1-.03 9.896c-.395 2.298-1.308 4.558-2.154 6.803-1.617 4.292-2.988 8.52-.022 12.827zm34.54 48.756c-.958 1.411-3.949 1.016-4.693-.43-.47-.917-.55-3.069-.428-4.078.105-.857.677-1.685 1.368-2.332.984-.639 2.689-1.35 4.386-.214-.368 1.056-.849 2.994-.896 3.283-.213 1.256.016 2.534.263 3.771zm5.154 1.334c-1.475.334-3.144-.379-3.715-1.819-.512-1.29-.049-2.824.084-4.147.922-3.006 3.083-2.948 4.025-2.765 0 0 .819.58.819 1.496.001 2.041 1.771 6.559-1.213 7.235zm1.623-10.225c-1.5-.636-3.476.031-4.491.473l-2.076-.633c1.982-.4 7.636-1.87 9.836-5.735.46-.308.928-.413.928-.413.535 2.258-3.285 5.559-4.197 6.308zm49.569-33.635c-1.985.27-4.01.168-5.981-.169-.467-.079-3.053-.313-3.294-.8l-.787-1.903c-1.674-1.865-4.51-2.974-5.172-3.182a2.74 2.74 0 0 0-.143.249c.591.413 2.476 2.053 3.671 3.942.251 2.588 2.019 14.844 13.149 15.304.477.095.963.176 1.475.225l.549.612s1.272 12.231 3.386 18.289l-.031.034.316 1.315-.655 1.636c-1.225.331-7.207 2.317-5.27 8.99-3.803 2.892-7.502 1.746-7.502 1.746-1.648-2.028-.381-4.783.275-5.928 0 0-4.299-1.692-3.628 5.744 0 0-1.951 1.342-4.997.125l.489-2.701-.08.05.473-2.107-2.47 3.356s-2.012-1.586-.366-4.208c0 0 1.159-1.893 3.109-1.403 0 0 .247-3.783 4.574-2.989 0 0 .61-.977 2.015-1.463 0 0 3.074-.757 5.062-1.646.405-.782.943-1.287.971-2.254.049-1.53-.492-2.964-.966-4.433-.129-.398-.278-.875-.454-1.361-4.478-3.734-14.434-6.649-14.434-6.649a39.45 39.45 0 0 1-5.582-1.974c-8.717-3.095-13.701-11.445-15.153-14.22-1.159-.383-2.436.218-2.436.218l-.101.04c-10.376 8.319-18.812 8.117-22.509 7.446l.059-2.719c3.645-.563 13.825-2.833 19.268-11.046 0 0 .876-2.861-1.27-.88-.996.676-2.023 1.346-3.065 2l-1.742-.907c-.121.658-.601 1.3-1.087 1.806-.308.286-.636.546-.973.798-2.305-1.637-3.061-1.142-3.061-1.142 0 .982-.703 2.715-1.101 3.619-.022.014-.038.035-.059.052-.398.163-.8.323-1.21.477-.895-.44-2.022-2.778-2.022-2.778-1.189-2.102-1.74-.365-1.74-.365l-2.011 4.757.003.068c-2.38.501-5.299.821-6.583-.948-1.137-1.569-.586-3.99-.148-6.051-1.12 1.505-3.004 4.27-3.088 5.894 0 0 1.342 3.538 2.075 4.758l2.043.646 1.007 2.57 1.455 4.93c-2.291 1.538-3.847 3.486-4.803 5.526-1.162 2.461-1.496 5.022-1.498 7.222.003 2.135.321 3.948.576 5.067-.988.646-1.783 1.513-2.434 2.442-1.655 2.406-2.519 5.351-2.934 7.224-.744.353-1.834.733-2.659.46-.496-.034-.963-.168-1.302-.481 0 0-1.538-3.544.9-5.966-.862-.855-2.824-.305-3.235.921-.003.005-.003.01-.003.014-.535.949-1.037 2.655-1.122 5.714-1.295.296-2.951.304-4.012-.238-.342-.173-.855-.497-.966-.748-.176-.381-.108-1.193-.133-1.712-.046-1 .06-1.978.187-2.916-.977.978-1.858 3.287-1.858 3.287l-1.191-.917c-.933-3.587 2.062-6.56 5.022-7.891 1.429-.64 2.96-1.077 4.478-1.466.219-.056 3.178-.575 3.192-.697l1.185-8.849 1.398-1.398c-.425-.087-.884-.287-1.342-.553l.014-.02c-5.454-3.549-8.58-10.652-10.121-15.295.245-1.361 2.056-2.135 2.056-2.135.44.979 1.488 3.124 3.144 5.404 1.399 2.043 3.204 4.104 5.336 5.281 0 0-8.466-12.261-3.489-27.561l2.329 1.279c4.55-4.102 6.771-9.839 7.811-13.679l.045.229c.323 2.412.207 7.169.207 7.169-.044.869.825.549.825.549.237-.109 1.177-1.05 2.091-2.007.259-.268.526-.548.802-.845.331-.351.621-.666.834-.892l.45 1.962a22.884 22.884 0 0 0 1.677 2.117c2.896 3.305 6.404 5.683 10.648 6.908 3.792 1.094 7.857 1.614 11.791 1.819 1.2.063 2.403.181 3.596.32a58.35 58.35 0 0 1 3.918.602c4.043.824 9.023 2.342 12.115 5.081.029-.738-.988-1.949-1.568-2.58-2.467-2.682-6.697-3.412-10.063-4.285-4.32-1.122-8.747-1.617-13.1-2.573-2.978-.657-6.148-1.388-8.691-3.153-1.606-1.113-2.779-2.542-3.939-4.098-1.127-1.509-2.094-3.031-2.361-4.935-.084-.598-.169-1.353.001-1.945l.087-.3 4.069 1.858a16.604 16.604 0 0 0 2.58 4.858c2.406 3.173 6.909 6.33 14.115 6.299 2.436 0 5.176-.346 8.27-1.125.392.023.785.059 1.176.089l13.638 3.613c1.08.64 2.132 1.332 3.167 2.02a69.014 69.014 0 0 1 2.595 1.823c3.723 2.739 7.905 5.507 12.768 4.903 4.19-.522 6.925-4.318 6.974-8.477.003-.121.005-.237.005-.354-.016-5.721-3.596-10.876-6.889-14.926l-.755-.204c-1.919-.661-2.822-2.162-3.228-3.242-.443-1.069-.587-2.335-.304-3.747.539-2.701 2.459-4.366 4.302-5.664-6.018 7.21.712 11.268.712 11.268-2.06-2.881-.93-5.881.45-7.954l.526-.339 4.388-2.013-.177 2.929 1.321.601a15.771 15.771 0 0 1-1.689 2.023c-4.27 3.489-2.903 6.705-2.903 6.705l.01.099c3.382 3.974 7.237 9.902 7.378 15.567.141 5.879-5.053 10.691-10.643 11.458zm-24.166 7.34a153.598 153.598 0 0 1-4.181-3.726 14.672 14.672 0 0 0-.59-.541l-.274-.255v.018c-2.791-2.343-6.44-3.892-6.725-3.685l.353.283-.038-.01-.315-.274s2.886 8.786 13.005 13.055l10.733 4.024 2.805.854 1.039-2.622-2.822-2.564c1.467-3.147-3.114-9.982-3.114-9.982l-.279.078c.022.045.045.087.065.132h-.007l-.059-.132c.01.049.022.094.033.142l-.02.008.089.275c2.558 11.085-5.901 7.154-9.698 4.922zm22.885 13.101s.549.549.791 1.339c0 0-.35 4.488 3.068 6.722a.824.824 0 0 0 .136-.086l-1.575-10.948c-.015-.02-.037-.037-.056-.056-2.263.232-5.672-1.313-6.838-1.82a.977.977 0 0 0-.26.539c.639 1.151 2.386 3.878 4.734 4.31z"/><defs><path id="c" d="M0 349.43h595.28v143.031H0z"/></defs><clipPath id="d"><use xlink:href="#c" overflow="visible"/></clipPath><path clip-path="url(#d)" fill="#231F20" d="M168.393 349.95h1.838v142.51h-1.838z"/><defs><path id="e" d="M0 349.43h595.28v143.031H0z"/></defs><clipPath id="f"><use xlink:href="#e" overflow="visible"/></clipPath><path clip-path="url(#f)" fill="#231F20" d="M210.6 411.523h-1.018v-11.18h1.018s.102 9.147 9.401 9.147c3.61 0 6.355-2.338 6.355-5.589 0-2.34-2.336-4.322-5.848-6.15l-4.874-2.491c-2.949-1.523-5.645-4.524-5.645-8.386 0-4.217 3.508-7.572 8.436-7.572 3 0 4.679.966 6.201 2.084.61-.511 1.221-1.271 1.475-2.339h1.018v11.182h-1.069c-.356-4.068-1.88-8.895-7.774-8.895-2.848 0-4.928 1.983-4.928 4.525 0 2.641 1.776 4.014 6.146 6.299l4.882 2.491c3.911 1.983 5.284 4.93 5.284 7.725 0 5.543-4.423 9.149-9.658 9.149-3.863 0-6.299-2.032-7.928-2.391a4.315 4.315 0 0 0-1.474 2.391"/><defs><path id="g" d="M0 349.43h595.28v143.031H0z"/></defs><clipPath id="h"><use xlink:href="#g" overflow="visible"/></clipPath><path clip-path="url(#h)" fill="#231F20" d="M263.205 385.655l-11.181 25.868h-.662l-11.231-25.868c-1.576-3.61-1.831-4.424-6.047-4.424v-1.067h14.076v1.067c-4.217 0-5.183 1.068-3.963 3.866l8.638 19.767 8.538-19.767c1.223-2.748.255-3.866-3.963-3.866v-1.067h11.84v1.067c-4.217-.001-4.468.814-6.045 4.424"/><defs><path id="i" d="M0 349.43h595.28v143.031H0z"/></defs><clipPath id="j"><use xlink:href="#i" overflow="visible"/></clipPath><path clip-path="url(#j)" fill="#231F20" d="M273.372 409.59c4.22 0 4.828-.861 4.828-5.945v-16.518c0-5.082-.608-5.897-4.828-5.897v-1.067h23.176l.459 6.71h-1.071l-.251-1.015c-.715-2.645-1.221-3.814-5.9-3.814h-7.521v11.536h2.542c5.082 0 5.894-.608 5.894-4.878h1.068v11.64H290.7c0-4.272-.812-4.881-5.894-4.881h-2.542v7.421c0 5.081.61 5.894 4.83 5.894h4.37c4.674 0 5.235-1.169 5.896-3.86l.253-1.016h1.067l-.407 6.757h-24.902v-1.067"/><defs><path id="k" d="M0 349.43h595.28v143.031H0z"/></defs><clipPath id="l"><use xlink:href="#k" overflow="visible"/></clipPath><path clip-path="url(#l)" fill="#231F20" d="M333.753 387.127c0-5.082-.609-5.897-4.828-5.897v-1.067h11.59v1.067c-4.22 0-4.879.815-4.879 5.897v24.396h-1.166l-20.689-25.564v17.687c0 5.084.663 5.945 4.879 5.945v1.068h-11.591v-1.068c4.224 0 4.833-.861 4.833-5.945v-16.518c0-5.082-.609-5.897-4.833-5.897v-1.067h7.167l19.518 24.193v-17.23"/><defs><path id="m" d="M0 349.43h595.28v143.031H0z"/></defs><clipPath id="n"><use xlink:href="#m" overflow="visible"/></clipPath><path clip-path="url(#n)" fill="#231F20" d="M350.025 411.523h-1.018v-11.18h1.018s.101 9.147 9.401 9.147c3.607 0 6.353-2.338 6.353-5.589 0-2.34-2.333-4.322-5.845-6.15l-4.879-2.491c-2.949-1.523-5.64-4.524-5.64-8.386 0-4.217 3.508-7.572 8.436-7.572 2.997 0 4.678.966 6.202 2.084a4.336 4.336 0 0 0 1.473-2.339h1.018v11.182h-1.072c-.351-4.068-1.877-8.895-7.771-8.895-2.843 0-4.933 1.983-4.933 4.525 0 2.641 1.782 4.014 6.149 6.299l4.885 2.491c3.908 1.983 5.284 4.93 5.284 7.725 0 5.543-4.419 9.149-9.659 9.149-3.862 0-6.303-2.032-7.927-2.391a4.261 4.261 0 0 0-1.475 2.391"/><defs><path id="o" d="M0 349.43h595.28v143.031H0z"/></defs><clipPath id="p"><use xlink:href="#o" overflow="visible"/></clipPath><path clip-path="url(#p)" fill="#231F20" d="M406.24 406.643c1.88 1.629 5.179 2.946 6.554 2.946v1.068h-14.281v-1.068c3.355 0 3.963-1.218 1.934-2.946l-12.859-11.13-1.324 1.067v7.066c0 5.084.61 5.945 4.826 5.945v1.068h-13.717v-1.068c4.215 0 4.826-.861 4.826-5.945v-16.518c0-5.082-.612-5.897-4.826-5.897v-1.067h13.717v1.067c-4.216 0-4.826.815-4.826 5.897v7.115l10.419-8.894c3.203-2.742 3.404-4.118.206-4.118v-1.067h11.787v1.067c-3.911 0-5.742 1.068-9.3 4.118l-8.894 7.626 15.758 13.668"/><defs><path id="q" d="M0 349.43h595.28v143.031H0z"/></defs><clipPath id="r"><use xlink:href="#q" overflow="visible"/></clipPath><path clip-path="url(#r)" fill="#231F20" d="M216.949 445.422h2.539c5.082 0 5.897-.608 5.897-4.879h1.065v11.64h-1.065c0-4.272-.815-4.879-5.897-4.879h-2.539v8.184c0 5.08.608 5.943 4.828 5.943v1.068h-13.724v-1.068c4.221 0 4.829-.864 4.829-5.943v-16.521c0-5.084-.608-5.894-4.829-5.894v-1.069h24.043l.405 6.713h-1.065l-.256-1.022c-.662-2.639-1.219-3.811-5.844-3.811h-8.386v11.538"/><defs><path id="s" d="M0 349.43h595.28v143.031H0z"/></defs><clipPath id="t"><use xlink:href="#s" overflow="visible"/></clipPath><path clip-path="url(#t)" fill="#231F20" d="M253.965 463.367c-9.301 0-16.925-7.271-16.925-16.113 0-8.842 7.624-16.112 16.925-16.112 9.351 0 16.976 7.27 16.976 16.112 0 8.841-7.624 16.113-16.976 16.113m-12.097-16.114c0 6.3 3.355 14.077 12.098 14.077 8.793 0 12.147-7.777 12.147-14.077 0-6.302-3.354-14.131-12.147-14.131-8.743 0-12.098 7.83-12.098 14.131z"/><defs><path id="u" d="M0 349.43h595.28v143.031H0z"/></defs><clipPath id="v"><use xlink:href="#u" overflow="visible"/></clipPath><path clip-path="url(#v)" fill="#231F20" d="M304.881 438.967c0-5.084-.609-5.894-4.83-5.894v-1.069h11.592v1.069c-4.22 0-4.882.811-4.882 5.894v24.4h-1.169l-20.686-25.57v17.691c0 5.08.663 5.943 4.881 5.943v1.068h-11.588v-1.068c4.22 0 4.828-.864 4.828-5.943v-16.521c0-5.084-.608-5.894-4.828-5.894v-1.069h7.168l19.515 24.194v-17.231"/><defs><path id="w" d="M0 349.43h595.28v143.031H0z"/></defs><clipPath id="x"><use xlink:href="#w" overflow="visible"/></clipPath><path clip-path="url(#x)" fill="#231F20" d="M319.115 461.431c4.221 0 4.83-.864 4.83-5.943v-16.521c0-5.084-.609-5.894-4.83-5.894v-1.069h13.779c11.835 0 16.972 6.861 16.972 15.25 0 8.383-5.137 15.246-16.972 15.246h-13.779v-1.069m8.897-6.709c0 5.086.56 5.894 4.728 5.894h.202c9.91 0 12.046-7.416 12.046-13.363 0-5.945-2.136-13.37-12.046-13.37h-4.93v20.839z"/><defs><path id="y" d="M0 349.43h595.28v143.031H0z"/></defs><clipPath id="z"><use xlink:href="#y" overflow="visible"/></clipPath><path clip-path="url(#z)" fill="#231F20" d="M381.47 440.596c0 4.725-3.863 8.537-10.929 8.537h-4.524v6.355c0 5.08.612 5.943 4.83 5.943v1.068h-13.724v-1.068c4.22 0 4.829-.864 4.829-5.943v-16.521c0-5.084-.609-5.894-4.829-5.894v-1.069h13.418c7.065-.001 10.929 3.867 10.929 8.592m-4.521 0c0-3.66-2.036-6.713-6.454-6.713h-4.478v13.42h4.478c4.417.001 6.454-2.999 6.454-6.707z"/><defs><path id="A" d="M0 349.43h595.28v143.031H0z"/></defs><clipPath id="B"><use xlink:href="#A" overflow="visible"/></clipPath><path clip-path="url(#B)" fill="#231F20" d="M389.911 457.57c-1.221 2.745-.255 3.86 3.968 3.86v1.068h-11.896v-1.068c4.271 0 4.521-.864 6.101-4.422l11.184-25.868h.657l11.231 25.868c1.577 3.558 1.828 4.422 6.049 4.422v1.068h-14.08v-1.068c4.22 0 5.186-1.067 3.965-3.86l-2.438-5.645h-12.301l-2.44 5.645m8.538-19.773l-5.284 12.252h10.621l-5.337-12.252z"/><defs><path id="C" d="M0 349.43h595.28v143.031H0z"/></defs><clipPath id="D"><use xlink:href="#C" overflow="visible"/></clipPath><path clip-path="url(#D)" fill="#231F20" d="M441.553 454.978c3.002 3.558 6.404 6.096 9.452 6.453v1.068h-8.387l-10.063-13.366h-2.387v6.355c0 5.08.61 5.943 4.825 5.943v1.068h-13.717v-1.068c4.219 0 4.824-.864 4.824-5.943v-16.521c0-5.084-.605-5.894-4.824-5.894v-1.069h13.416c7.06 0 10.923 3.867 10.923 8.593 0 4.422-3.299 7.928-9.045 8.537l4.983 5.844m-.456-14.382c0-3.66-2.036-6.713-6.457-6.713h-4.471v13.42h4.471c4.421.001 6.457-2.999 6.457-6.707z"/><defs><path id="E" d="M0 349.43h595.28v143.031H0z"/></defs><clipPath id="F"><use xlink:href="#E" overflow="visible"/></clipPath><path clip-path="url(#F)" fill="#231F20" d="M485.272 438.865h-1.067l-.255-1.016c-.711-2.693-1.221-3.863-5.892-3.863h-6.664v21.502c0 5.08.658 5.943 4.882 5.943v1.068H462.5v-1.068c4.223 0 4.883-.864 4.883-5.943v-21.502h-6.664c-4.672 0-5.179 1.17-5.896 3.863l-.249 1.016h-1.068l.456-6.861h30.854l.456 6.861"/><defs><path id="G" d="M0 349.43h595.28v143.031H0z"/></defs><clipPath id="H"><use xlink:href="#G" overflow="visible"/></clipPath><path clip-path="url(#H)" fill="#231F20" d="M518.362 438.967c0-5.084-.609-5.894-4.83-5.894v-1.069h11.587v1.069c-4.213 0-4.874.811-4.874 5.894v24.4h-1.173l-20.684-25.57v17.691c0 5.08.662 5.943 4.875 5.943v1.068h-11.588v-1.068c4.223 0 4.833-.864 4.833-5.943v-16.521c0-5.084-.61-5.894-4.833-5.894v-1.069h7.169l19.518 24.194v-17.231"/><defs><path id="I" d="M0 349.43h595.28v143.031H0z"/></defs><clipPath id="J"><use xlink:href="#I" overflow="visible"/></clipPath><path clip-path="url(#J)" fill="#231F20" d="M532.593 461.431c4.226 0 4.836-.864 4.836-5.943v-16.521c0-5.084-.61-5.894-4.836-5.894v-1.069h23.178l.458 6.713h-1.069l-.249-1.022c-.717-2.639-1.223-3.811-5.898-3.811h-7.522v11.539h2.541c5.081 0 5.896-.608 5.896-4.879h1.071v11.64h-1.071c0-4.272-.815-4.879-5.896-4.879h-2.541v7.419c0 5.086.609 5.894 4.833 5.894h4.365c4.676 0 5.238-1.166 5.897-3.863l.258-1.013h1.068l-.405 6.759h-24.912v-1.07"/><defs><path id="K" d="M0 349.43h595.28v143.031H0z"/></defs><clipPath id="L"><use xlink:href="#K" overflow="visible"/></clipPath><path clip-path="url(#L)" fill="#231F20" d="M585.437 454.978c3.002 3.558 6.404 6.096 9.455 6.453v1.068h-8.386l-10.061-13.366h-2.388v6.355c0 5.08.612 5.943 4.823 5.943v1.068h-13.723v-1.068c4.223 0 4.832-.864 4.832-5.943v-16.521c0-5.084-.609-5.894-4.832-5.894v-1.069h13.42c7.062 0 10.927 3.867 10.927 8.593 0 4.422-3.305 7.928-9.044 8.537l4.977 5.844m-.455-14.382c0-3.66-2.036-6.713-6.456-6.713h-4.469v13.42h4.469c4.419.001 6.456-2.999 6.456-6.707z"/></svg>