<?xml version="1.0" encoding="utf-8"?>
<!-- Generator: Adobe Illustrator 17.0.0, SVG Export Plug-In . SVG Version: 6.00 Build 0)  -->
<!DOCTYPE svg PUBLIC "-//W3C//DTD SVG 1.1//EN" "http://www.w3.org/Graphics/SVG/1.1/DTD/svg11.dtd">
<svg version="1.1" id="Layer_1" xmlns="http://www.w3.org/2000/svg" xmlns:xlink="http://www.w3.org/1999/xlink" x="0px" y="0px"
	 width="3048.709px" height="769.082px" viewBox="34.701 1139.791 3048.709 769.082"
	 enable-background="new 34.701 1139.791 3048.709 769.082" xml:space="preserve">
<circle fill="#41A56D" cx="419.242" cy="1524.332" r="384.541"/>
<path fill="#54BC7C" d="M419.242,1139.791c-212.454,0-384.541,172.087-384.541,384.541s172.087,384.541,384.541,384.541
	s384.541-172.087,384.541-384.541S631.695,1139.791,419.242,1139.791z M419.242,1849.386
	c-179.169,0-325.054-145.177-325.054-325.054c0-179.169,145.177-325.054,325.054-325.054s325.054,145.177,325.054,325.054
	C744.296,1704.209,598.411,1849.386,419.242,1849.386z"/>
<g>
	<polyline fill="none" stroke="#FFFFFF" stroke-width="2" stroke-miterlimit="10" points="388.082,1362.159 388.082,1499.546 
		417.825,1499.546 491.476,1362.867 	"/>
	<polyline fill="none" stroke="#FFFFFF" stroke-width="2" stroke-miterlimit="10" points="388.082,1703.501 388.082,1558.324 
		417.825,1558.324 495.725,1703.501 	"/>
	<polyline fill="none" stroke="#FFFFFF" stroke-width="2" stroke-miterlimit="10" points="568.667,1357.202 472.355,1525.748 
		572.916,1703.501 	"/>
	<polyline fill="none" stroke="#FFFFFF" stroke-width="2" stroke-miterlimit="10" points="320.097,1357.202 320.097,1394.027 
		281.855,1394.027 	"/>
	<polyline fill="none" stroke="#FFFFFF" stroke-width="2" stroke-miterlimit="10" points="320.097,1701.376 320.097,1667.384 
		281.855,1667.384 	"/>
	<polyline fill="none" stroke="#FFFFFF" stroke-width="2" stroke-miterlimit="10" points="281.855,1450.681 320.097,1450.681 
		320.097,1585.943 281.855,1585.943 	"/>
	<path fill="#FFFFFF" d="M572.916,1321.793c-14.164,0-25.494,11.331-25.494,25.494s11.331,25.494,25.494,25.494
		c14.164,0,25.494-11.331,25.494-25.494S587.08,1321.793,572.916,1321.793z M572.916,1357.91c-6.374,0-11.331-4.957-11.331-11.331
		c0-6.374,4.957-11.331,11.331-11.331c6.374,0,11.331,4.957,11.331,11.331C584.247,1352.953,579.29,1357.91,572.916,1357.91z"/>
	<path fill="#FFFFFF" d="M495.725,1321.793c-14.164,0-25.494,11.331-25.494,25.494s11.331,25.494,25.494,25.494
		s25.494-11.331,25.494-25.494S509.889,1321.793,495.725,1321.793z M495.725,1357.91c-6.374,0-11.331-4.957-11.331-11.331
		c0-6.374,4.957-11.331,11.331-11.331c6.374,0,11.331,4.957,11.331,11.331C507.056,1352.953,502.099,1357.91,495.725,1357.91z"/>
	<path fill="#FFFFFF" d="M388.082,1321.793c-14.164,0-25.494,11.331-25.494,25.494s11.331,25.494,25.494,25.494
		s25.494-11.331,25.494-25.494C413.576,1333.124,402.245,1321.793,388.082,1321.793z M388.082,1357.91
		c-6.374,0-11.331-4.957-11.331-11.331c0-6.374,4.957-11.331,11.331-11.331s11.331,4.957,11.331,11.331
		C399.413,1352.953,394.455,1357.91,388.082,1357.91z"/>
	<path fill="#FFFFFF" d="M320.097,1321.793c-14.164,0-25.494,11.331-25.494,25.494s11.331,25.494,25.494,25.494
		s25.494-11.331,25.494-25.494S334.26,1321.793,320.097,1321.793z M320.097,1357.91c-6.374,0-11.331-4.957-11.331-11.331
		c0-6.374,4.957-11.331,11.331-11.331s11.331,4.957,11.331,11.331C331.428,1352.953,326.47,1357.91,320.097,1357.91z"/>
	<path fill="#FFFFFF" d="M264.859,1368.533c-14.164,0-25.494,11.331-25.494,25.494s11.331,25.494,25.494,25.494
		s25.494-11.331,25.494-25.494S279.022,1368.533,264.859,1368.533z M264.859,1404.65c-6.374,0-11.331-4.957-11.331-11.331
		c0-6.374,4.957-11.331,11.331-11.331c6.374,0,11.331,4.957,11.331,11.331C276.19,1399.692,271.232,1404.65,264.859,1404.65z"/>
	<path fill="#FFFFFF" d="M264.859,1425.187c-14.164,0-25.494,11.331-25.494,25.494s11.331,25.494,25.494,25.494
		s25.494-11.331,25.494-25.494S279.022,1425.187,264.859,1425.187z M264.859,1462.012c-6.374,0-11.331-4.957-11.331-11.331
		c0-6.374,4.957-11.331,11.331-11.331c6.374,0,11.331,4.957,11.331,11.331C276.19,1457.055,271.232,1462.012,264.859,1462.012z"/>
	<path fill="#FFFFFF" d="M264.859,1561.157c-14.164,0-25.494,11.331-25.494,25.495s11.331,25.494,25.494,25.494
		s25.494-11.331,25.494-25.494S279.022,1561.157,264.859,1561.157z M264.859,1597.274c-6.374,0-11.331-4.957-11.331-11.331
		c0-6.374,4.957-11.331,11.331-11.331c6.374,0,11.331,4.957,11.331,11.331C276.19,1592.317,271.232,1597.274,264.859,1597.274z"/>
	<path fill="#FFFFFF" d="M264.859,1641.89c-14.164,0-25.494,11.331-25.494,25.494s11.331,25.494,25.494,25.494
		s25.494-11.331,25.494-25.494S279.022,1641.89,264.859,1641.89z M264.859,1678.715c-6.374,0-11.331-4.957-11.331-11.331
		c0-6.374,4.957-11.331,11.331-11.331c6.374,0,11.331,4.957,11.331,11.331C276.19,1673.758,271.232,1678.715,264.859,1678.715z"/>
	<path fill="#FFFFFF" d="M320.097,1692.878c-14.164,0-25.494,11.331-25.494,25.495s11.331,25.494,25.494,25.494
		s25.494-11.331,25.494-25.494S334.26,1692.878,320.097,1692.878z M320.097,1728.995c-6.374,0-11.331-4.957-11.331-11.331
		c0-6.374,4.957-11.331,11.331-11.331s11.331,4.957,11.331,11.331C331.428,1724.038,326.47,1728.995,320.097,1728.995z"/>
	<path fill="#FFFFFF" d="M388.082,1692.878c-14.164,0-25.494,11.331-25.494,25.495s11.331,25.494,25.494,25.494
		s25.494-11.331,25.494-25.494C413.576,1704.209,402.245,1692.878,388.082,1692.878z M388.082,1728.995
		c-6.374,0-11.331-4.957-11.331-11.331c0-6.374,4.957-11.331,11.331-11.331s11.331,4.957,11.331,11.331
		C399.413,1724.038,394.455,1728.995,388.082,1728.995z"/>
	<path fill="#FFFFFF" d="M495.725,1692.878c-14.164,0-25.494,11.331-25.494,25.495s11.331,25.494,25.494,25.494
		s25.494-11.331,25.494-25.494S509.889,1692.878,495.725,1692.878z M495.725,1728.995c-6.374,0-11.331-4.957-11.331-11.331
		c0-6.374,5.665-10.623,11.331-10.623c5.665,0,11.331,4.957,11.331,11.331C507.056,1724.746,502.099,1728.995,495.725,1728.995z"/>
	<path fill="#FFFFFF" d="M572.916,1692.878c-14.164,0-25.494,11.331-25.494,25.495s11.331,25.494,25.494,25.494
		c14.164,0,25.494-11.331,25.494-25.494S587.08,1692.878,572.916,1692.878z M572.916,1728.995c-6.374,0-11.331-4.957-11.331-11.331
		c0-6.374,4.957-11.331,11.331-11.331c6.374,0,11.331,4.957,11.331,11.331C584.247,1724.038,579.29,1728.995,572.916,1728.995z"/>
</g>
<path fill="#3A915D" d="M691.182,1524.332c0-169.255-130.305-308.058-296.019-322.221c9.206-0.708,18.413-1.416,28.327-1.416
	c179.169,0,323.638,145.177,323.638,323.638s-145.177,324.346-323.638,324.346c-9.206,0-19.121-0.708-28.327-1.416
	C560.877,1833.098,691.182,1693.587,691.182,1524.332z"/>
<g>
	<path fill="#FFFFFF" d="M931.255,1322.501h92.063v196.874h26.203l54.53-90.647h99.853l-80.024,124.639v1.416l91.355,148.009
		h-104.81l-58.071-106.227h-29.035v106.227h-92.063L931.255,1322.501L931.255,1322.501z"/>
	<path fill="#FFFFFF" d="M1387.322,1532.122h3.541v-4.957c0-22.662-17.704-30.452-40.366-30.452
		c-34.701,0-73.651,26.203-73.651,26.203l-31.868-65.152c0,0,47.448-35.409,114.725-35.409c77.191,0,123.223,41.783,123.223,111.892
		v168.547h-83.565v-16.288c0-9.206,1.416-16.996,1.416-16.996h-1.416c0,0-19.829,39.658-77.9,39.658
		c-50.989,0-92.771-33.993-92.771-88.522C1228.69,1541.328,1344.831,1532.122,1387.322,1532.122z M1346.956,1639.057
		c24.078,0,45.323-26.203,45.323-48.156v-5.665h-8.498c-29.035,0-63.028,8.498-63.028,31.16
		C1321.461,1629.142,1329.251,1639.057,1346.956,1639.057z"/>
	<path fill="#FFFFFF" d="M1547.37,1429.436h88.522v46.032c0,9.206-1.416,16.996-1.416,16.996h1.416
		c11.331-37.533,46.032-67.985,87.106-67.985c5.665,0,10.623,1.416,10.623,1.416v89.939c0,0-7.082-1.416-18.413-1.416
		c-21.954,0-57.363,7.082-70.818,47.448c-3.541,9.914-4.957,21.953-4.957,37.533v103.394h-92.063V1429.436z"/>
	<path fill="#FFFFFF" d="M1775.404,1429.436h88.522v24.078c0,9.206-1.416,16.996-1.416,16.996h1.416
		c12.747-19.121,38.242-47.448,81.441-47.448c34.701,0,62.32,15.58,76.483,46.032h1.416c14.164-22.662,46.74-46.032,87.814-46.032
		c50.281,0,88.522,26.911,88.522,102.686v177.753h-92.063V1540.62c0-19.829-3.541-34.701-21.245-34.701
		c-29.035,0-44.615,21.245-50.281,51.697c-2.125,9.206-2.125,20.537-2.125,31.868v113.309h-92.063V1540.62
		c0-19.829-3.541-34.701-21.245-34.701c-29.035,0-43.907,19.829-50.281,49.573c-2.125,9.915-2.833,21.953-2.833,33.993v113.309
		h-92.063L1775.404,1429.436L1775.404,1429.436z"/>
	<path fill="#FFFFFF" d="M2402.142,1532.122h3.541v-4.957c0-22.662-17.704-30.452-40.366-30.452
		c-34.701,0-74.359,26.203-74.359,26.203l-31.868-65.152c0,0,47.448-35.409,114.725-35.409c77.191,0,123.223,41.783,123.223,111.892
		v168.547h-83.565v-16.288c0-9.206,1.417-16.996,1.417-16.996h-1.417c0,0-19.829,39.658-77.9,39.658
		c-50.989,0-92.771-33.993-92.771-88.522C2242.802,1541.328,2358.943,1532.122,2402.142,1532.122z M2361.067,1639.057
		c24.078,0,45.323-26.203,45.323-48.156v-5.665h-8.498c-29.035,0-63.028,8.498-63.028,31.16
		C2335.573,1629.142,2343.363,1639.057,2361.067,1639.057z"/>
	<path fill="#FFFFFF" d="M2545.194,1657.469l100.561-126.056c14.164-16.996,24.078-24.786,24.078-24.786v-1.416
		c0,0-7.082,1.416-24.078,1.416h-96.312v-77.192h244.322v46.032l-99.853,126.056c-13.455,16.288-24.786,24.786-24.786,24.786v1.416
		c0,0,7.082-1.416,24.786-1.416h102.686v76.483h-251.403V1657.469z"/>
	<path fill="#FFFFFF" d="M2987.805,1532.122h3.541v-4.957c0-22.662-17.704-30.452-40.366-30.452
		c-34.701,0-73.651,26.203-73.651,26.203l-31.868-65.152c0,0,47.448-35.409,114.725-35.409c77.191,0,123.223,41.783,123.223,111.892
		v168.547h-83.565v-16.288c0-9.206,1.417-16.996,1.417-16.996h-1.417c0,0-19.829,39.658-77.9,39.658
		c-50.989,0-92.771-33.993-92.771-88.522C2829.173,1541.328,2945.315,1532.122,2987.805,1532.122z M2947.439,1639.057
		c24.078,0,45.323-26.203,45.323-48.156v-5.665h-8.498c-29.035,0-63.028,8.498-63.028,31.16
		C2921.945,1629.142,2929.735,1639.057,2947.439,1639.057z"/>
</g>
</svg>
