<?xml version="1.0" encoding="utf-8"?>
<!-- Generator: Adobe Illustrator 21.1.0, SVG Export Plug-In . SVG Version: 6.00 Build 0)  -->
<svg version="1.1" id="Layer_1" xmlns="http://www.w3.org/2000/svg" xmlns:xlink="http://www.w3.org/1999/xlink" x="0px" y="0px"
	 viewBox="0 0 440.3 112.6" style="enable-background:new 0 0 440.3 112.6;" xml:space="preserve">
<style type="text/css">
	.st0{fill:#41A56D;}
	.st1{fill:#54BC7C;}
	.st2{fill:none;stroke:#FFFFFF;stroke-width:2;stroke-miterlimit:10;}
	.st3{fill:#FFFFFF;}
	.st4{fill:#3A915D;}
</style>
<circle class="st0" cx="59.2" cy="56.2" r="54.3"/>
<path class="st1" d="M59.2,1.9c-30,0-54.3,24.3-54.3,54.3s24.3,54.3,54.3,54.3s54.3-24.3,54.3-54.3S89.2,1.9,59.2,1.9z M59.2,102.1
	c-25.3,0-45.9-20.5-45.9-45.9c0-25.3,20.5-45.9,45.9-45.9s45.9,20.5,45.9,45.9C105.1,81.6,84.5,102.1,59.2,102.1z"/>
<g>
	<polyline class="st2" points="54.8,33.3 54.8,52.7 59,52.7 69.4,33.4 	"/>
	<polyline class="st2" points="54.8,81.5 54.8,61 59,61 70,81.5 	"/>
	<polyline class="st2" points="80.3,32.6 66.7,56.4 80.9,81.5 	"/>
	<polyline class="st2" points="45.2,32.6 45.2,37.8 39.8,37.8 	"/>
	<polyline class="st2" points="45.2,81.2 45.2,76.4 39.8,76.4 	"/>
	<polyline class="st2" points="39.8,45.8 45.2,45.8 45.2,64.9 39.8,64.9 	"/>
	<path class="st3" d="M80.9,27.6c-2,0-3.6,1.6-3.6,3.6c0,2,1.6,3.6,3.6,3.6c2,0,3.6-1.6,3.6-3.6C84.5,29.2,82.9,27.6,80.9,27.6z
		 M80.9,32.7c-0.9,0-1.6-0.7-1.6-1.6s0.7-1.6,1.6-1.6s1.6,0.7,1.6,1.6S81.8,32.7,80.9,32.7z"/>
	<path class="st3" d="M70,27.6c-2,0-3.6,1.6-3.6,3.6c0,2,1.6,3.6,3.6,3.6c2,0,3.6-1.6,3.6-3.6C73.6,29.2,72,27.6,70,27.6z M70,32.7
		c-0.9,0-1.6-0.7-1.6-1.6s0.7-1.6,1.6-1.6s1.6,0.7,1.6,1.6S70.9,32.7,70,32.7z"/>
	<path class="st3" d="M54.8,27.6c-2,0-3.6,1.6-3.6,3.6c0,2,1.6,3.6,3.6,3.6c2,0,3.6-1.6,3.6-3.6C58.4,29.2,56.8,27.6,54.8,27.6z
		 M54.8,32.7c-0.9,0-1.6-0.7-1.6-1.6s0.7-1.6,1.6-1.6s1.6,0.7,1.6,1.6S55.7,32.7,54.8,32.7z"/>
	<path class="st3" d="M45.2,27.6c-2,0-3.6,1.6-3.6,3.6c0,2,1.6,3.6,3.6,3.6c2,0,3.6-1.6,3.6-3.6C48.8,29.2,47.2,27.6,45.2,27.6z
		 M45.2,32.7c-0.9,0-1.6-0.7-1.6-1.6s0.7-1.6,1.6-1.6s1.6,0.7,1.6,1.6S46.1,32.7,45.2,32.7z"/>
	<path class="st3" d="M37.4,34.2c-2,0-3.6,1.6-3.6,3.6c0,2,1.6,3.6,3.6,3.6c2,0,3.6-1.6,3.6-3.6C41,35.8,39.4,34.2,37.4,34.2z
		 M37.4,39.3c-0.9,0-1.6-0.7-1.6-1.6s0.7-1.6,1.6-1.6c0.9,0,1.6,0.7,1.6,1.6S38.3,39.3,37.4,39.3z"/>
	<path class="st3" d="M37.4,42.2c-2,0-3.6,1.6-3.6,3.6c0,2,1.6,3.6,3.6,3.6c2,0,3.6-1.6,3.6-3.6C41,43.8,39.4,42.2,37.4,42.2z
		 M37.4,47.4c-0.9,0-1.6-0.7-1.6-1.6s0.7-1.6,1.6-1.6c0.9,0,1.6,0.7,1.6,1.6S38.3,47.4,37.4,47.4z"/>
	<path class="st3" d="M37.4,61.4c-2,0-3.6,1.6-3.6,3.6c0,2,1.6,3.6,3.6,3.6c2,0,3.6-1.6,3.6-3.6C41,63,39.4,61.4,37.4,61.4z
		 M37.4,66.5c-0.9,0-1.6-0.7-1.6-1.6s0.7-1.6,1.6-1.6c0.9,0,1.6,0.7,1.6,1.6S38.3,66.5,37.4,66.5z"/>
	<path class="st3" d="M37.4,72.8c-2,0-3.6,1.6-3.6,3.6c0,2,1.6,3.6,3.6,3.6c2,0,3.6-1.6,3.6-3.6C41,74.4,39.4,72.8,37.4,72.8z
		 M37.4,78c-0.9,0-1.6-0.7-1.6-1.6s0.7-1.6,1.6-1.6c0.9,0,1.6,0.7,1.6,1.6S38.3,78,37.4,78z"/>
	<path class="st3" d="M45.2,80c-2,0-3.6,1.6-3.6,3.6c0,2,1.6,3.6,3.6,3.6c2,0,3.6-1.6,3.6-3.6C48.8,81.6,47.2,80,45.2,80z
		 M45.2,85.1c-0.9,0-1.6-0.7-1.6-1.6s0.7-1.6,1.6-1.6s1.6,0.7,1.6,1.6S46.1,85.1,45.2,85.1z"/>
	<path class="st3" d="M54.8,80c-2,0-3.6,1.6-3.6,3.6c0,2,1.6,3.6,3.6,3.6c2,0,3.6-1.6,3.6-3.6C58.4,81.6,56.8,80,54.8,80z
		 M54.8,85.1c-0.9,0-1.6-0.7-1.6-1.6s0.7-1.6,1.6-1.6s1.6,0.7,1.6,1.6S55.7,85.1,54.8,85.1z"/>
	<path class="st3" d="M70,80c-2,0-3.6,1.6-3.6,3.6c0,2,1.6,3.6,3.6,3.6c2,0,3.6-1.6,3.6-3.6C73.6,81.6,72,80,70,80z M70,85.1
		c-0.9,0-1.6-0.7-1.6-1.6S69.2,82,70,82s1.6,0.7,1.6,1.6S70.9,85.1,70,85.1z"/>
	<path class="st3" d="M80.9,80c-2,0-3.6,1.6-3.6,3.6c0,2,1.6,3.6,3.6,3.6c2,0,3.6-1.6,3.6-3.6C84.5,81.6,82.9,80,80.9,80z
		 M80.9,85.1c-0.9,0-1.6-0.7-1.6-1.6s0.7-1.6,1.6-1.6s1.6,0.7,1.6,1.6S81.8,85.1,80.9,85.1z"/>
</g>
<path class="st4" d="M97.6,56.2c0-23.9-18.4-43.5-41.8-45.5c1.3-0.1,2.6-0.2,4-0.2c25.3,0,45.7,20.5,45.7,45.7S85,102,59.8,102
	c-1.3,0-2.7-0.1-4-0.2C79.2,99.8,97.6,80.1,97.6,56.2z"/>
<g>
	<path class="st3" d="M131.5,27.7h13v27.8h3.7l7.7-12.8h14.1l-11.3,17.6v0.2l12.9,20.9h-14.8l-8.2-15h-4.1v15h-13V27.7z"/>
	<path class="st3" d="M195.9,57.3h0.5v-0.7c0-3.2-2.5-4.3-5.7-4.3c-4.9,0-10.4,3.7-10.4,3.7l-4.5-9.2c0,0,6.7-5,16.2-5
		c10.9,0,17.4,5.9,17.4,15.8v23.8h-11.8v-2.3c0-1.3,0.2-2.4,0.2-2.4h-0.2c0,0-2.8,5.6-11,5.6c-7.2,0-13.1-4.8-13.1-12.5
		C173.5,58.6,189.9,57.3,195.9,57.3z M190.2,72.4c3.4,0,6.4-3.7,6.4-6.8v-0.8h-1.2c-4.1,0-8.9,1.2-8.9,4.4
		C186.6,71,187.7,72.4,190.2,72.4z"/>
	<path class="st3" d="M218.5,42.8h12.5v6.5c0,1.3-0.2,2.4-0.2,2.4h0.2c1.6-5.3,6.5-9.6,12.3-9.6c0.8,0,1.5,0.2,1.5,0.2V55
		c0,0-1-0.2-2.6-0.2c-3.1,0-8.1,1-10,6.7c-0.5,1.4-0.7,3.1-0.7,5.3v14.6h-13V42.8z"/>
	<path class="st3" d="M250.7,42.8h12.5v3.4c0,1.3-0.2,2.4-0.2,2.4h0.2c1.8-2.7,5.4-6.7,11.5-6.7c4.9,0,8.8,2.2,10.8,6.5h0.2
		c2-3.2,6.6-6.5,12.4-6.5c7.1,0,12.5,3.8,12.5,14.5v25.1h-13V58.5c0-2.8-0.5-4.9-3-4.9c-4.1,0-6.3,3-7.1,7.3
		c-0.3,1.3-0.3,2.9-0.3,4.5v16h-13V58.5c0-2.8-0.5-4.9-3-4.9c-4.1,0-6.2,2.8-7.1,7c-0.3,1.4-0.4,3.1-0.4,4.8v16h-13V42.8L250.7,42.8
		z"/>
	<path class="st3" d="M339.2,57.3h0.5v-0.7c0-3.2-2.5-4.3-5.7-4.3c-4.9,0-10.5,3.7-10.5,3.7l-4.5-9.2c0,0,6.7-5,16.2-5
		c10.9,0,17.4,5.9,17.4,15.8v23.8h-11.8v-2.3c0-1.3,0.2-2.4,0.2-2.4h-0.2c0,0-2.8,5.6-11,5.6c-7.2,0-13.1-4.8-13.1-12.5
		C316.7,58.6,333.1,57.3,339.2,57.3z M333.4,72.4c3.4,0,6.4-3.7,6.4-6.8v-0.8h-1.2c-4.1,0-8.9,1.2-8.9,4.4
		C329.8,71,330.9,72.4,333.4,72.4z"/>
	<path class="st3" d="M359.4,75l14.2-17.8c2-2.4,3.4-3.5,3.4-3.5v-0.2c0,0-1,0.2-3.4,0.2H360V42.8h34.5v6.5l-14.1,17.8
		c-1.9,2.3-3.5,3.5-3.5,3.5v0.2c0,0,1-0.2,3.5-0.2h14.5v10.8h-35.5V75z"/>
	<path class="st3" d="M421.9,57.3h0.5v-0.7c0-3.2-2.5-4.3-5.7-4.3c-4.9,0-10.4,3.7-10.4,3.7l-4.5-9.2c0,0,6.7-5,16.2-5
		c10.9,0,17.4,5.9,17.4,15.8v23.8h-11.8v-2.3c0-1.3,0.2-2.4,0.2-2.4h-0.2c0,0-2.8,5.6-11,5.6c-7.2,0-13.1-4.8-13.1-12.5
		C399.5,58.6,415.9,57.3,421.9,57.3z M416.2,72.4c3.4,0,6.4-3.7,6.4-6.8v-0.8h-1.2c-4.1,0-8.9,1.2-8.9,4.4
		C412.6,71,413.7,72.4,416.2,72.4z"/>
</g>
</svg>
