<?xml version="1.0" encoding="utf-8"?>
<!-- Generator: Adobe Illustrator 17.0.0, SVG Export Plug-In . SVG Version: 6.00 Build 0)  -->
<!DOCTYPE svg PUBLIC "-//W3C//DTD SVG 1.1//EN" "http://www.w3.org/Graphics/SVG/1.1/DTD/svg11.dtd">
<svg version="1.1" id="Слой_1" xmlns="http://www.w3.org/2000/svg" xmlns:xlink="http://www.w3.org/1999/xlink" x="0px" y="0px"
	 width="1025.766px" height="219.988px" viewBox="0 0 1025.766 219.988" enable-background="new 0 0 1025.766 219.988"
	 xml:space="preserve">
<g>
	<path fill="#FFFFFF" d="M250.087,41.798h32.998v70.836h9.24l19.359-32.558h36.078l-29.038,44.878v0.44l32.998,53.237h-37.838
		l-20.679-38.278h-10.559v38.278h-32.998V41.798H250.087z"/>
	<path fill="#FFFFFF" d="M414.638,117.474h1.32v-1.76c0-8.36-6.16-10.999-14.519-10.999c-12.319,0-26.399,9.24-26.399,9.24
		l-11.439-23.319c0,0,17.159-12.759,41.358-12.759c27.718,0,44.438,14.959,44.438,40.038v60.717h-30.358v-5.72
		c0-3.08,0.44-6.16,0.44-6.16h-0.44c0,0-7.04,14.519-28.158,14.519c-18.479,0-33.438-12.319-33.438-31.678
		C357.441,120.554,399.239,117.474,414.638,117.474z M400.119,155.752c8.8,0,16.279-9.24,16.279-17.599v-2.2h-3.08
		c-10.559,0-22.439,3.08-22.439,11.439C390.44,152.232,393.519,155.752,400.119,155.752z"/>
	<path fill="#FFFFFF" d="M471.835,80.076h31.678v16.719c0,3.08-0.44,6.16-0.44,6.16h0.44c3.96-13.639,16.719-24.639,31.238-24.639
		c1.76,0,3.96,0.44,3.96,0.44v32.558c0,0-2.64-0.44-6.6-0.44c-7.92,0-20.679,2.64-25.519,17.159c-1.32,3.52-1.76,7.92-1.76,13.639
		v37.398h-32.998L471.835,80.076L471.835,80.076z"/>
	<path fill="#FFFFFF" d="M554.111,80.076h31.678v8.8c0,3.08-0.44,6.16-0.44,6.16h0.44c4.4-7.04,13.639-17.159,29.478-17.159
		c12.319,0,22.439,5.72,27.718,16.719h0.44c5.28-8.36,16.719-16.719,31.678-16.719c18.039,0,32.118,9.68,32.118,36.958v63.797
		h-32.998v-58.517c0-7.04-1.32-12.319-7.48-12.319c-10.559,0-16.279,7.48-18.039,18.479c-0.88,3.52-0.88,7.48-0.88,11.439v40.918
		h-32.998v-58.517c0-7.04-1.32-12.319-7.48-12.319c-10.559,0-15.839,7.04-18.039,17.599c-0.88,3.52-0.88,7.92-0.88,12.319v40.918
		h-32.998V80.076H554.111z"/>
	<path fill="#FFFFFF" d="M779.818,117.474h1.32v-1.76c0-8.36-6.16-10.999-14.519-10.999c-12.319,0-26.839,9.24-26.839,9.24
		l-11.439-23.319c0,0,17.159-12.759,41.358-12.759c27.718,0,44.438,14.959,44.438,40.038v60.717h-30.358v-5.72
		c0-3.08,0.44-6.16,0.44-6.16h-0.44c0,0-7.04,14.519-28.158,14.519c-18.479,0-33.438-12.319-33.438-31.678
		C722.622,120.554,764.419,117.474,779.818,117.474z M765.299,155.752c8.799,0,16.279-9.24,16.279-17.599v-2.2h-3.08
		c-10.559,0-22.439,3.08-22.439,11.439C755.62,152.232,758.699,155.752,765.299,155.752z"/>
	<path fill="#FFFFFF" d="M831.296,162.351l36.078-45.317c4.84-6.16,8.8-8.8,8.8-8.8v-0.44c0,0-2.64,0.44-8.8,0.44h-34.758V80.516
		h87.995v16.719l-36.078,45.317c-4.84,5.72-8.799,8.8-8.799,8.8v0.44c0,0,2.64-0.44,8.799-0.44h36.958v27.718h-90.635v-16.719
		L831.296,162.351L831.296,162.351z"/>
	<path fill="#FFFFFF" d="M991.007,117.474h1.32v-1.76c0-8.36-6.16-10.999-14.519-10.999c-12.319,0-26.399,9.24-26.399,9.24
		L939.97,90.636c0,0,17.159-12.759,41.358-12.759c27.718,0,44.438,14.959,44.438,40.038v60.717h-30.358v-5.72
		c0-3.08,0.44-6.16,0.44-6.16h-0.44c0,0-7.04,14.519-28.158,14.519c-18.479,0-33.438-12.319-33.438-31.678
		C933.81,120.554,975.608,117.474,991.007,117.474z M976.488,155.752c8.8,0,16.279-9.24,16.279-17.599v-2.2h-3.08
		c-10.559,0-22.439,3.08-22.439,11.439C966.808,152.232,969.888,155.752,976.488,155.752z"/>
</g>
<g>
	<circle fill="#40A36C" cx="109.994" cy="109.994" r="109.994"/>
	<path fill="#53B378" d="M109.994,0C49.277,0,0,49.277,0,109.994s49.277,109.994,109.994,109.994s109.994-49.277,109.994-109.994
		S170.711,0,109.994,0z M109.994,202.829c-51.477,0-92.835-41.358-92.835-92.835s41.358-92.835,92.835-92.835
		s92.835,41.358,92.835,92.835C202.829,161.031,161.471,202.829,109.994,202.829z"/>
	<g>
		<polyline fill="none" stroke="#FFFFFF" stroke-width="2" stroke-miterlimit="10" points="101.194,63.797 101.194,102.954 
			109.554,102.954 130.673,63.797 		"/>
		<polyline fill="none" stroke="#FFFFFF" stroke-width="2" stroke-miterlimit="10" points="101.194,161.031 101.194,119.674 
			109.554,119.674 131.993,161.031 		"/>
		<polyline fill="none" stroke="#FFFFFF" stroke-width="2" stroke-miterlimit="10" points="152.672,62.037 125.393,110.434 
			153.992,161.031 		"/>
		<polyline fill="none" stroke="#FFFFFF" stroke-width="2" stroke-miterlimit="10" points="81.836,62.037 81.836,72.596 
			70.836,72.596 		"/>
		<polyline fill="none" stroke="#FFFFFF" stroke-width="2" stroke-miterlimit="10" points="81.836,160.591 81.836,150.912 
			70.836,150.912 		"/>
		<polyline fill="none" stroke="#FFFFFF" stroke-width="2" stroke-miterlimit="10" points="70.836,88.875 81.836,88.875 
			81.836,127.593 70.836,127.593 		"/>
		<path fill="#FFFFFF" d="M153.992,51.917c-3.96,0-7.04,3.08-7.04,7.04s3.08,7.04,7.04,7.04s7.04-3.08,7.04-7.04
			S157.951,51.917,153.992,51.917z M153.992,62.477c-1.76,0-3.08-1.32-3.08-3.08s1.32-3.08,3.08-3.08s3.08,1.32,3.08,3.08
			C157.071,61.157,155.751,62.477,153.992,62.477z"/>
		<path fill="#FFFFFF" d="M131.993,51.917c-3.96,0-7.04,3.08-7.04,7.04s3.08,7.04,7.04,7.04s7.04-3.08,7.04-7.04
			S135.953,51.917,131.993,51.917z M131.993,62.477c-1.76,0-3.08-1.32-3.08-3.08s1.32-3.08,3.08-3.08s3.08,1.32,3.08,3.08
			C135.073,61.157,133.753,62.477,131.993,62.477z"/>
		<path fill="#FFFFFF" d="M101.194,51.917c-3.96,0-7.04,3.08-7.04,7.04s3.08,7.04,7.04,7.04s7.04-3.08,7.04-7.04
			S105.154,51.917,101.194,51.917z M101.194,62.477c-1.76,0-3.08-1.32-3.08-3.08s1.32-3.08,3.08-3.08s3.08,1.32,3.08,3.08
			C104.274,61.157,102.954,62.477,101.194,62.477z"/>
		<path fill="#FFFFFF" d="M81.836,51.917c-3.96,0-7.04,3.08-7.04,7.04s3.08,7.04,7.04,7.04s7.04-3.08,7.04-7.04
			S85.795,51.917,81.836,51.917z M81.836,62.477c-1.76,0-3.08-1.32-3.08-3.08s1.32-3.08,3.08-3.08s3.08,1.32,3.08,3.08
			C84.915,61.157,83.595,62.477,81.836,62.477z"/>
		<path fill="#FFFFFF" d="M65.996,65.556c-3.96,0-7.04,3.08-7.04,7.04s3.08,7.04,7.04,7.04s7.04-3.08,7.04-7.04
			C73.476,68.636,69.956,65.556,65.996,65.556z M65.996,75.676c-1.76,0-3.08-1.32-3.08-3.08s1.32-3.08,3.08-3.08
			s3.08,1.32,3.08,3.08C69.076,74.356,67.756,75.676,65.996,75.676z"/>
		<path fill="#FFFFFF" d="M65.996,81.836c-3.96,0-7.04,3.08-7.04,7.04s3.08,7.04,7.04,7.04s7.04-3.08,7.04-7.04
			C73.036,84.915,69.956,81.836,65.996,81.836z M65.996,91.955c-1.76,0-3.08-1.32-3.08-3.08s1.32-3.08,3.08-3.08
			s3.08,1.32,3.08,3.08S67.756,91.955,65.996,91.955z"/>
		<path fill="#FFFFFF" d="M65.996,120.553c-3.96,0-7.04,3.08-7.04,7.04c0,3.96,3.08,7.04,7.04,7.04s7.04-3.08,7.04-7.04
			C73.036,123.633,69.956,120.553,65.996,120.553z M65.996,130.673c-1.76,0-3.08-1.32-3.08-3.08s1.32-3.08,3.08-3.08
			s3.08,1.32,3.08,3.08C69.076,129.353,67.756,130.673,65.996,130.673z"/>
		<path fill="#FFFFFF" d="M65.996,143.432c-3.96,0-7.04,3.08-7.04,7.04c0,3.96,3.08,7.04,7.04,7.04s7.04-3.08,7.04-7.04
			C73.476,146.952,69.956,143.432,65.996,143.432z M65.996,153.992c-1.76,0-3.08-1.32-3.08-3.08s1.32-3.08,3.08-3.08
			s3.08,1.32,3.08,3.08S67.756,153.992,65.996,153.992z"/>
		<path fill="#FFFFFF" d="M81.836,157.951c-3.96,0-7.04,3.08-7.04,7.04c0,3.96,3.08,7.04,7.04,7.04s7.04-3.08,7.04-7.04
			C88.875,161.031,85.795,157.951,81.836,157.951z M81.836,168.511c-1.76,0-3.08-1.32-3.08-3.08s1.32-3.08,3.08-3.08
			s3.08,1.32,3.08,3.08S83.595,168.511,81.836,168.511z"/>
		<path fill="#FFFFFF" d="M101.194,157.951c-3.96,0-7.04,3.08-7.04,7.04c0,3.96,3.08,7.04,7.04,7.04s7.04-3.08,7.04-7.04
			S105.154,157.951,101.194,157.951z M101.194,168.511c-1.76,0-3.08-1.32-3.08-3.08s1.32-3.08,3.08-3.08s3.08,1.32,3.08,3.08
			S102.954,168.511,101.194,168.511z"/>
		<path fill="#FFFFFF" d="M131.993,157.951c-3.96,0-7.04,3.08-7.04,7.04c0,3.96,3.08,7.04,7.04,7.04s7.04-3.08,7.04-7.04
			C139.032,161.031,135.953,157.951,131.993,157.951z M131.993,168.511c-1.76,0-3.08-1.32-3.08-3.08s1.32-3.08,3.08-3.08
			s3.08,1.32,3.08,3.08S133.753,168.511,131.993,168.511z"/>
		<path fill="#FFFFFF" d="M153.992,157.951c-3.96,0-7.04,3.08-7.04,7.04c0,3.96,3.08,7.04,7.04,7.04s7.04-3.08,7.04-7.04
			C161.031,161.031,157.951,157.951,153.992,157.951z M153.992,168.511c-1.76,0-3.08-1.32-3.08-3.08s1.32-3.08,3.08-3.08
			s3.08,1.32,3.08,3.08S155.751,168.511,153.992,168.511z"/>
	</g>
	<path fill="#38915D" d="M187.87,109.994c0-48.397-36.958-87.995-84.475-91.955c2.64-0.44,5.28-0.44,7.92-0.44
		c51.037,0,92.395,41.358,92.395,92.395s-41.358,92.395-92.395,92.395c-2.64,0-5.28,0-7.92-0.44
		C150.472,197.989,187.87,158.391,187.87,109.994z"/>
</g>
</svg>
