<?xml version="1.0" encoding="utf-8"?>
<!-- Generator: Adobe Illustrator 17.0.0, SVG Export Plug-In . SVG Version: 6.00 Build 0)  -->
<!DOCTYPE svg PUBLIC "-//W3C//DTD SVG 1.1//EN" "http://www.w3.org/Graphics/SVG/1.1/DTD/svg11.dtd">
<svg version="1.1" id="Layer_1" xmlns="http://www.w3.org/2000/svg" xmlns:xlink="http://www.w3.org/1999/xlink" x="0px" y="0px"
	 width="2152.155px" height="386.665px" viewBox="931.255 1322.501 2152.155 386.665"
	 enable-background="new 931.255 1322.501 2152.155 386.665" xml:space="preserve">
<g>
	<path fill="#FFFFFF" d="M931.255,1322.501h92.063v196.874h26.203l54.53-90.647h99.853l-80.024,124.639v1.416l91.355,148.009
		h-104.81l-58.071-106.227h-29.035v106.227h-92.063L931.255,1322.501L931.255,1322.501z"/>
	<path fill="#FFFFFF" d="M1387.322,1532.122h3.541v-4.957c0-22.662-17.704-30.452-40.366-30.452
		c-34.701,0-73.651,26.203-73.651,26.203l-31.868-65.152c0,0,47.448-35.409,114.725-35.409c77.191,0,123.223,41.783,123.223,111.892
		v168.547h-83.565v-16.288c0-9.206,1.416-16.996,1.416-16.996h-1.416c0,0-19.829,39.658-77.9,39.658
		c-50.989,0-92.771-33.993-92.771-88.522C1228.69,1541.328,1344.831,1532.122,1387.322,1532.122z M1346.956,1639.057
		c24.078,0,45.323-26.203,45.323-48.156v-5.665h-8.498c-29.035,0-63.028,8.498-63.028,31.16
		C1321.461,1629.142,1329.251,1639.057,1346.956,1639.057z"/>
	<path fill="#FFFFFF" d="M1547.37,1429.436h88.522v46.032c0,9.206-1.416,16.996-1.416,16.996h1.416
		c11.331-37.533,46.032-67.985,87.106-67.985c5.666,0,10.623,1.416,10.623,1.416v89.939c0,0-7.082-1.416-18.413-1.416
		c-21.954,0-57.363,7.082-70.818,47.448c-3.541,9.914-4.957,21.953-4.957,37.533v103.394h-92.063V1429.436z"/>
	<path fill="#FFFFFF" d="M1775.404,1429.436h88.522v24.078c0,9.206-1.416,16.996-1.416,16.996h1.416
		c12.747-19.121,38.242-47.448,81.441-47.448c34.701,0,62.32,15.58,76.483,46.032h1.416c14.164-22.662,46.74-46.032,87.814-46.032
		c50.281,0,88.522,26.911,88.522,102.686v177.753h-92.063V1540.62c0-19.829-3.541-34.701-21.245-34.701
		c-29.035,0-44.615,21.245-50.281,51.697c-2.125,9.206-2.125,20.537-2.125,31.868v113.309h-92.063V1540.62
		c0-19.829-3.541-34.701-21.245-34.701c-29.035,0-43.907,19.829-50.281,49.573c-2.125,9.915-2.833,21.953-2.833,33.993v113.309
		h-92.063V1429.436L1775.404,1429.436z"/>
	<path fill="#FFFFFF" d="M2402.142,1532.122h3.541v-4.957c0-22.662-17.704-30.452-40.366-30.452
		c-34.701,0-74.359,26.203-74.359,26.203l-31.868-65.152c0,0,47.448-35.409,114.725-35.409c77.191,0,123.223,41.783,123.223,111.892
		v168.547h-83.565v-16.288c0-9.206,1.417-16.996,1.417-16.996h-1.417c0,0-19.829,39.658-77.9,39.658
		c-50.989,0-92.771-33.993-92.771-88.522C2242.802,1541.328,2358.943,1532.122,2402.142,1532.122z M2361.067,1639.057
		c24.078,0,45.323-26.203,45.323-48.156v-5.665h-8.498c-29.035,0-63.028,8.498-63.028,31.16
		C2335.573,1629.142,2343.363,1639.057,2361.067,1639.057z"/>
	<path fill="#FFFFFF" d="M2545.194,1657.469l100.562-126.056c14.164-16.996,24.078-24.786,24.078-24.786v-1.416
		c0,0-7.082,1.416-24.078,1.416h-96.312v-77.192h244.322v46.032l-99.853,126.056c-13.455,16.288-24.786,24.786-24.786,24.786v1.416
		c0,0,7.082-1.416,24.786-1.416h102.686v76.483h-251.404V1657.469z"/>
	<path fill="#FFFFFF" d="M2987.805,1532.122h3.541v-4.957c0-22.662-17.704-30.452-40.366-30.452
		c-34.701,0-73.651,26.203-73.651,26.203l-31.868-65.152c0,0,47.448-35.409,114.725-35.409c77.191,0,123.223,41.783,123.223,111.892
		v168.547h-83.565v-16.288c0-9.206,1.417-16.996,1.417-16.996h-1.417c0,0-19.829,39.658-77.9,39.658
		c-50.989,0-92.771-33.993-92.771-88.522C2829.173,1541.328,2945.315,1532.122,2987.805,1532.122z M2947.439,1639.057
		c24.078,0,45.323-26.203,45.323-48.156v-5.665h-8.498c-29.035,0-63.028,8.498-63.028,31.16
		C2921.945,1629.142,2929.735,1639.057,2947.439,1639.057z"/>
</g>
</svg>
