<?xml version="1.0" encoding="utf-8"?>
<!-- Generator: Adobe Illustrator 17.0.0, SVG Export Plug-In . SVG Version: 6.00 Build 0)  -->
<!DOCTYPE svg PUBLIC "-//W3C//DTD SVG 1.1//EN" "http://www.w3.org/Graphics/SVG/1.1/DTD/svg11.dtd">
<svg version="1.1" id="Слой_1" xmlns="http://www.w3.org/2000/svg" xmlns:xlink="http://www.w3.org/1999/xlink" x="0px" y="0px"
	 width="776.118px" height="384.7px" viewBox="249.648 -203.429 776.118 384.7"
	 enable-background="new 249.648 -203.429 776.118 384.7" xml:space="preserve">
<g>
	<path fill="#FFFFFF" d="M250.087,41.798h32.998v70.836h9.24l19.359-32.558h36.078l-29.038,44.878v0.44l32.998,53.237h-37.838
		l-20.679-38.278h-10.559v38.278h-32.998V41.798H250.087z"/>
	<path fill="#FFFFFF" d="M414.638,117.474h1.32v-1.76c0-8.36-6.16-10.999-14.519-10.999c-12.319,0-26.399,9.24-26.399,9.24
		l-11.439-23.319c0,0,17.159-12.759,41.358-12.759c27.718,0,44.438,14.959,44.438,40.038v60.717h-30.358v-5.72
		c0-3.08,0.44-6.16,0.44-6.16h-0.44c0,0-7.04,14.519-28.158,14.519c-18.479,0-33.438-12.319-33.438-31.678
		C357.441,120.554,399.239,117.474,414.638,117.474z M400.119,155.752c8.8,0,16.279-9.24,16.279-17.599v-2.2h-3.08
		c-10.559,0-22.439,3.08-22.439,11.439C390.44,152.232,393.519,155.752,400.119,155.752z"/>
	<path fill="#FFFFFF" d="M471.835,80.076h31.678v16.719c0,3.08-0.44,6.16-0.44,6.16h0.44c3.96-13.639,16.719-24.639,31.238-24.639
		c1.76,0,3.96,0.44,3.96,0.44v32.558c0,0-2.64-0.44-6.6-0.44c-7.92,0-20.679,2.64-25.519,17.159c-1.32,3.52-1.76,7.92-1.76,13.639
		v37.398h-32.998L471.835,80.076L471.835,80.076z"/>
	<path fill="#FFFFFF" d="M554.111,80.076h31.678v8.8c0,3.08-0.44,6.16-0.44,6.16h0.44c4.4-7.04,13.639-17.159,29.478-17.159
		c12.319,0,22.439,5.72,27.718,16.719h0.44c5.28-8.36,16.719-16.719,31.678-16.719c18.039,0,32.118,9.68,32.118,36.958v63.797
		h-32.998v-58.517c0-7.04-1.32-12.319-7.48-12.319c-10.559,0-16.279,7.48-18.039,18.479c-0.88,3.52-0.88,7.48-0.88,11.439v40.918
		h-32.998v-58.517c0-7.04-1.32-12.319-7.48-12.319c-10.559,0-15.839,7.04-18.039,17.599c-0.88,3.52-0.88,7.92-0.88,12.319v40.918
		h-32.998V80.076H554.111z"/>
	<path fill="#FFFFFF" d="M779.818,117.474h1.32v-1.76c0-8.36-6.16-10.999-14.519-10.999c-12.319,0-26.839,9.24-26.839,9.24
		l-11.439-23.319c0,0,17.159-12.759,41.358-12.759c27.718,0,44.438,14.959,44.438,40.038v60.717h-30.358v-5.72
		c0-3.08,0.44-6.16,0.44-6.16h-0.44c0,0-7.04,14.519-28.158,14.519c-18.479,0-33.438-12.319-33.438-31.678
		C722.622,120.554,764.419,117.474,779.818,117.474z M765.299,155.752c8.799,0,16.279-9.24,16.279-17.599v-2.2h-3.08
		c-10.559,0-22.439,3.08-22.439,11.439C755.62,152.232,758.699,155.752,765.299,155.752z"/>
	<path fill="#FFFFFF" d="M831.296,162.351l36.078-45.317c4.84-6.16,8.8-8.8,8.8-8.8v-0.44c0,0-2.64,0.44-8.8,0.44h-34.758V80.516
		h87.995v16.719l-36.078,45.317c-4.84,5.72-8.799,8.8-8.799,8.8v0.44c0,0,2.64-0.44,8.799-0.44h36.958v27.718h-90.635v-16.719
		L831.296,162.351L831.296,162.351z"/>
	<path fill="#FFFFFF" d="M991.007,117.474h1.32v-1.76c0-8.36-6.16-10.999-14.519-10.999c-12.319,0-26.399,9.24-26.399,9.24
		L939.97,90.636c0,0,17.159-12.759,41.358-12.759c27.718,0,44.438,14.959,44.438,40.038v60.717h-30.358v-5.72
		c0-3.08,0.44-6.16,0.44-6.16h-0.44c0,0-7.04,14.519-28.158,14.519c-18.479,0-33.438-12.319-33.438-31.678
		C933.81,120.554,975.608,117.474,991.007,117.474z M976.488,155.752c8.8,0,16.279-9.24,16.279-17.599v-2.2h-3.08
		c-10.559,0-22.439,3.08-22.439,11.439C966.808,152.232,969.888,155.752,976.488,155.752z"/>
</g>
<g>
	<circle fill="#40A36C" cx="643.863" cy="-93.435" r="109.994"/>
	<path fill="#53B378" d="M643.863-203.429c-60.717,0-109.994,49.277-109.994,109.994S583.146,16.559,643.863,16.559
		c60.717,0,109.994-49.277,109.994-109.994S704.58-203.429,643.863-203.429z M643.863-0.6c-51.477,0-92.835-41.358-92.835-92.835
		s41.358-92.835,92.835-92.835c51.477,0,92.835,41.358,92.835,92.835C736.698-42.398,695.34-0.6,643.863-0.6z"/>
	<g>
		<polyline fill="none" stroke="#FFFFFF" stroke-width="2" stroke-miterlimit="10" points="635.063,-139.632 635.063,-100.475 
			643.423,-100.475 664.542,-139.632 		"/>
		<polyline fill="none" stroke="#FFFFFF" stroke-width="2" stroke-miterlimit="10" points="635.063,-42.398 635.063,-83.755 
			643.423,-83.755 665.862,-42.398 		"/>
		<polyline fill="none" stroke="#FFFFFF" stroke-width="2" stroke-miterlimit="10" points="686.541,-141.392 659.262,-92.995 
			687.861,-42.398 		"/>
		<polyline fill="none" stroke="#FFFFFF" stroke-width="2" stroke-miterlimit="10" points="615.705,-141.392 615.705,-130.833 
			604.705,-130.833 		"/>
		<polyline fill="none" stroke="#FFFFFF" stroke-width="2" stroke-miterlimit="10" points="615.705,-42.838 615.705,-52.517 
			604.705,-52.517 		"/>
		<polyline fill="none" stroke="#FFFFFF" stroke-width="2" stroke-miterlimit="10" points="604.705,-114.554 615.705,-114.554 
			615.705,-75.836 604.705,-75.836 		"/>
		<path fill="#FFFFFF" d="M687.861-151.512c-3.96,0-7.04,3.08-7.04,7.04s3.08,7.04,7.04,7.04c3.96,0,7.04-3.08,7.04-7.04
			S691.82-151.512,687.861-151.512z M687.861-140.952c-1.76,0-3.08-1.32-3.08-3.08s1.32-3.08,3.08-3.08c1.76,0,3.08,1.32,3.08,3.08
			C690.94-142.272,689.62-140.952,687.861-140.952z"/>
		<path fill="#FFFFFF" d="M665.862-151.512c-3.96,0-7.04,3.08-7.04,7.04s3.08,7.04,7.04,7.04c3.96,0,7.04-3.08,7.04-7.04
			S669.822-151.512,665.862-151.512z M665.862-140.952c-1.76,0-3.08-1.32-3.08-3.08s1.32-3.08,3.08-3.08s3.08,1.32,3.08,3.08
			C668.942-142.272,667.622-140.952,665.862-140.952z"/>
		<path fill="#FFFFFF" d="M635.063-151.512c-3.96,0-7.04,3.08-7.04,7.04s3.08,7.04,7.04,7.04s7.04-3.08,7.04-7.04
			S639.023-151.512,635.063-151.512z M635.063-140.952c-1.76,0-3.08-1.32-3.08-3.08s1.32-3.08,3.08-3.08s3.08,1.32,3.08,3.08
			C638.143-142.272,636.823-140.952,635.063-140.952z"/>
		<path fill="#FFFFFF" d="M615.705-151.512c-3.96,0-7.04,3.08-7.04,7.04s3.08,7.04,7.04,7.04c3.96,0,7.04-3.08,7.04-7.04
			S619.664-151.512,615.705-151.512z M615.705-140.952c-1.76,0-3.08-1.32-3.08-3.08s1.32-3.08,3.08-3.08c1.76,0,3.08,1.32,3.08,3.08
			C618.784-142.272,617.464-140.952,615.705-140.952z"/>
		<path fill="#FFFFFF" d="M599.865-137.873c-3.96,0-7.04,3.08-7.04,7.04c0,3.96,3.08,7.04,7.04,7.04s7.04-3.08,7.04-7.04
			C607.345-134.793,603.825-137.873,599.865-137.873z M599.865-127.753c-1.76,0-3.08-1.32-3.08-3.08c0-1.76,1.32-3.08,3.08-3.08
			s3.08,1.32,3.08,3.08C602.945-129.073,601.625-127.753,599.865-127.753z"/>
		<path fill="#FFFFFF" d="M599.865-121.593c-3.96,0-7.04,3.08-7.04,7.04s3.08,7.04,7.04,7.04s7.04-3.08,7.04-7.04
			C606.905-118.514,603.825-121.593,599.865-121.593z M599.865-111.474c-1.76,0-3.08-1.32-3.08-3.08s1.32-3.08,3.08-3.08
			s3.08,1.32,3.08,3.08S601.625-111.474,599.865-111.474z"/>
		<path fill="#FFFFFF" d="M599.865-82.876c-3.96,0-7.04,3.08-7.04,7.04c0,3.96,3.08,7.04,7.04,7.04s7.04-3.08,7.04-7.04
			C606.905-79.796,603.825-82.876,599.865-82.876z M599.865-72.756c-1.76,0-3.08-1.32-3.08-3.08s1.32-3.08,3.08-3.08
			s3.08,1.32,3.08,3.08C602.945-74.076,601.625-72.756,599.865-72.756z"/>
		<path fill="#FFFFFF" d="M599.865-59.997c-3.96,0-7.04,3.08-7.04,7.04c0,3.96,3.08,7.04,7.04,7.04s7.04-3.08,7.04-7.04
			C607.345-56.477,603.825-59.997,599.865-59.997z M599.865-49.437c-1.76,0-3.08-1.32-3.08-3.08s1.32-3.08,3.08-3.08
			s3.08,1.32,3.08,3.08S601.625-49.437,599.865-49.437z"/>
		<path fill="#FFFFFF" d="M615.705-45.478c-3.96,0-7.04,3.08-7.04,7.04c0,3.96,3.08,7.04,7.04,7.04c3.96,0,7.04-3.08,7.04-7.04
			C622.744-42.398,619.664-45.478,615.705-45.478z M615.705-34.918c-1.76,0-3.08-1.32-3.08-3.08s1.32-3.08,3.08-3.08
			c1.76,0,3.08,1.32,3.08,3.08S617.464-34.918,615.705-34.918z"/>
		<path fill="#FFFFFF" d="M635.063-45.478c-3.96,0-7.04,3.08-7.04,7.04c0,3.96,3.08,7.04,7.04,7.04s7.04-3.08,7.04-7.04
			S639.023-45.478,635.063-45.478z M635.063-34.918c-1.76,0-3.08-1.32-3.08-3.08s1.32-3.08,3.08-3.08s3.08,1.32,3.08,3.08
			S636.823-34.918,635.063-34.918z"/>
		<path fill="#FFFFFF" d="M665.862-45.478c-3.96,0-7.04,3.08-7.04,7.04c0,3.96,3.08,7.04,7.04,7.04c3.96,0,7.04-3.08,7.04-7.04
			C672.901-42.398,669.822-45.478,665.862-45.478z M665.862-34.918c-1.76,0-3.08-1.32-3.08-3.08s1.32-3.08,3.08-3.08
			s3.08,1.32,3.08,3.08S667.622-34.918,665.862-34.918z"/>
		<path fill="#FFFFFF" d="M687.861-45.478c-3.96,0-7.04,3.08-7.04,7.04c0,3.96,3.08,7.04,7.04,7.04c3.96,0,7.04-3.08,7.04-7.04
			C694.9-42.398,691.82-45.478,687.861-45.478z M687.861-34.918c-1.76,0-3.08-1.32-3.08-3.08s1.32-3.08,3.08-3.08
			c1.76,0,3.08,1.32,3.08,3.08S689.62-34.918,687.861-34.918z"/>
	</g>
	<path fill="#38915D" d="M721.739-93.435c0-48.397-36.958-87.995-84.475-91.955c2.64-0.44,5.28-0.44,7.92-0.44
		c51.037,0,92.395,41.358,92.395,92.395S696.221-1.04,645.184-1.04c-2.64,0-5.28,0-7.92-0.44
		C684.341-5.44,721.739-45.038,721.739-93.435z"/>
</g>
</svg>
