<?xml version="1.0" encoding="utf-8"?>
<!-- Generator: Adobe Illustrator 17.0.0, SVG Export Plug-In . SVG Version: 6.00 Build 0)  -->
<!DOCTYPE svg PUBLIC "-//W3C//DTD SVG 1.1//EN" "http://www.w3.org/Graphics/SVG/1.1/DTD/svg11.dtd">
<svg version="1.1" id="Слой_1" xmlns="http://www.w3.org/2000/svg" xmlns:xlink="http://www.w3.org/1999/xlink" x="0px" y="0px"
	 width="430px" height="108.694px" viewBox="0 0 430 108.694" enable-background="new 0 0 430 108.694" xml:space="preserve">
<polygon fill="#FFFFFF" points="126,27 126,80.661 138.99,80.661 138.99,65.675 143.047,65.675 151.227,80.694 166.017,80.694 
	153.092,59.753 153.092,59.589 164.413,42.019 150.311,42.019 142.654,54.779 138.99,54.779 138.99,27 "/>
<g>
	<defs>
		<rect id="SVGID_1_" x="126" y="27" width="304" height="54.577"/>
	</defs>
	<clipPath id="SVGID_2_">
		<use xlink:href="#SVGID_1_"  overflow="visible"/>
	</clipPath>
	<path clip-path="url(#SVGID_2_)" fill="#FFFFFF" d="M190.491,56.579h0.524v-0.688c0-3.239-2.487-4.286-5.693-4.286
		c-4.876,0-10.438,3.664-10.438,3.664l-4.515-9.161c0,0,6.674-5.039,16.229-5.039c10.895,0,17.406,5.923,17.406,15.772V80.66H192.16
		v-2.323c0-1.276,0.164-2.388,0.164-2.388h-0.164c0,0-2.847,5.627-10.961,5.627c-7.199,0-13.121-4.81-13.121-12.466
		C168.045,57.854,184.471,56.579,190.491,56.579 M184.765,71.662c3.37,0,6.38-3.664,6.38-6.838v-0.818h-1.21
		c-4.123,0-8.867,1.211-8.867,4.417C181.1,70.223,182.213,71.662,184.765,71.662"/>
	<path clip-path="url(#SVGID_2_)" fill="#FFFFFF" d="M213.002,42.019h12.466v6.544c0,1.275-0.163,2.389-0.163,2.389h0.163
		c1.637-5.269,6.544-9.62,12.303-9.62c0.752,0,1.505,0.164,1.505,0.164v12.76c0,0-1.047-0.229-2.617-0.229
		c-3.076,0-8.115,0.981-9.98,6.74c-0.458,1.439-0.687,3.142-0.687,5.269v14.625h-12.99V42.019z"/>
	<path clip-path="url(#SVGID_2_)" fill="#FFFFFF" d="M245.264,42.019h12.466v3.37c0,1.276-0.163,2.389-0.163,2.389h0.163
		c1.8-2.716,5.399-6.675,11.485-6.675c4.875,0,8.769,2.191,10.798,6.544h0.163c2.029-3.239,6.609-6.544,12.401-6.544
		c7.067,0,12.532,3.828,12.532,14.494v25.064h-12.99V57.757c0-2.846-0.523-4.876-3.01-4.876c-4.123,0-6.315,3.011-7.133,7.297
		c-0.295,1.342-0.295,2.912-0.295,4.516v15.967h-12.989V57.757c0-2.846-0.524-4.876-3.011-4.876c-4.057,0-6.151,2.847-7.067,6.97
		c-0.295,1.439-0.36,3.142-0.36,4.81v16h-12.99V42.019z"/>
	<path clip-path="url(#SVGID_2_)" fill="#FFFFFF" d="M333.706,56.579h0.524v-0.688c0-3.239-2.487-4.286-5.694-4.286
		c-4.908,0-10.47,3.698-10.47,3.698l-4.515-9.162c0,0,6.675-5.039,16.229-5.039c10.895,0,17.407,5.922,17.407,15.771V80.66h-11.845
		v-2.323c0-1.276,0.164-2.388,0.164-2.388h-0.164c0,0-2.846,5.627-10.961,5.627c-7.198,0-13.121-4.81-13.121-12.466
		C311.26,57.854,327.685,56.579,333.706,56.579 M327.979,71.662c3.37,0,6.38-3.664,6.38-6.838v-0.818h-1.21
		c-4.123,0-8.867,1.211-8.867,4.417C324.315,70.223,325.427,71.662,327.979,71.662"/>
	<path clip-path="url(#SVGID_2_)" fill="#FFFFFF" d="M353.959,74.215l14.201-17.8c1.963-2.388,3.37-3.534,3.37-3.534v-0.163
		c0,0-0.982,0.163-3.37,0.163h-13.579V42.019H389.1v6.544l-14.102,17.799c-1.865,2.323-3.468,3.534-3.468,3.534v0.164
		c0,0,0.981-0.23,3.468-0.23h14.495v10.83h-35.534V74.215z"/>
	<path clip-path="url(#SVGID_2_)" fill="#FFFFFF" d="M416.486,56.579h0.524v-0.688c0-3.239-2.487-4.286-5.694-4.286
		c-4.875,0-10.437,3.664-10.437,3.664l-4.516-9.161c0,0,6.676-5.039,16.23-5.039c10.895,0,17.407,5.923,17.407,15.772V80.66h-11.845
		v-2.323c0-1.276,0.163-2.388,0.163-2.388h-0.163c0,0-2.847,5.627-10.961,5.627c-7.198,0-13.121-4.81-13.121-12.466
		C394.041,57.854,410.466,56.579,416.486,56.579 M410.793,71.662c3.37,0,6.38-3.664,6.38-6.838v-0.818h-1.21
		c-4.123,0-8.867,1.211-8.867,4.417C407.096,70.223,408.241,71.662,410.793,71.662"/>
</g>
<circle fill="#42964E" cx="54.347" cy="54.347" r="54.347"/>
<path fill="#56B55B" d="M54.347,0C24.332,0,0,24.332,0,54.347s24.332,54.347,54.347,54.347s54.347-24.332,54.347-54.347
	S84.362,0,54.347,0z M54.347,100.244c-25.348,0-45.897-20.549-45.897-45.897C8.45,28.999,28.999,8.45,54.347,8.45
	s45.897,20.549,45.897,45.897C100.244,79.695,79.695,100.244,54.347,100.244z"/>
<g>
	<polyline fill="none" stroke="#FFFFFF" stroke-width="2" stroke-miterlimit="10" points="49.965,31.456 49.965,50.808 
		54.124,50.808 64.542,31.546 	"/>
	<polyline fill="none" stroke="#FFFFFF" stroke-width="2" stroke-miterlimit="10" points="49.965,79.593 49.965,59.085 
		54.124,59.085 65.216,79.593 	"/>
	<polyline fill="none" stroke="#FFFFFF" stroke-width="2" stroke-miterlimit="10" points="75.44,30.705 61.865,54.505 
		76.106,79.593 	"/>
	<polyline fill="none" stroke="#FFFFFF" stroke-width="2" stroke-miterlimit="10" points="40.376,30.705 40.376,35.904 
		34.946,35.904 	"/>
	<polyline fill="none" stroke="#FFFFFF" stroke-width="2" stroke-miterlimit="10" points="40.376,79.345 40.376,74.538 
		34.946,74.538 	"/>
	<polyline fill="none" stroke="#FFFFFF" stroke-width="2" stroke-miterlimit="10" points="34.946,43.934 40.376,43.934 
		40.376,63.054 34.946,63.054 	"/>
	<path fill="#FFFFFF" d="M76.106,25.717c-1.977,0-3.58,1.603-3.58,3.58c0,1.977,1.603,3.58,3.58,3.58c1.977,0,3.58-1.603,3.58-3.58
		C79.686,27.32,78.083,25.717,76.106,25.717z M76.106,30.85c-0.858,0-1.553-0.695-1.553-1.553c0-0.858,0.695-1.553,1.553-1.553
		c0.858,0,1.553,0.695,1.553,1.553C77.659,30.154,76.964,30.85,76.106,30.85z"/>
	<path fill="#FFFFFF" d="M65.216,25.717c-1.977,0-3.58,1.603-3.58,3.58c0,1.977,1.603,3.58,3.58,3.58c1.977,0,3.58-1.603,3.58-3.58
		C68.795,27.32,67.193,25.717,65.216,25.717z M65.216,30.85c-0.858,0-1.553-0.695-1.553-1.553c0-0.858,0.695-1.553,1.553-1.553
		s1.553,0.695,1.553,1.553C66.769,30.154,66.073,30.85,65.216,30.85z"/>
	<path fill="#FFFFFF" d="M49.965,25.717c-1.977,0-3.58,1.603-3.58,3.58c0,1.977,1.603,3.58,3.58,3.58c1.977,0,3.58-1.603,3.58-3.58
		C53.545,27.32,51.942,25.717,49.965,25.717z M49.965,30.85c-0.858,0-1.553-0.695-1.553-1.553c0-0.858,0.695-1.553,1.553-1.553
		s1.553,0.695,1.553,1.553C51.518,30.154,50.823,30.85,49.965,30.85z"/>
	<path fill="#FFFFFF" d="M40.376,25.717c-1.977,0-3.58,1.603-3.58,3.58c0,1.977,1.603,3.58,3.58,3.58c1.977,0,3.58-1.603,3.58-3.58
		C43.956,27.32,42.353,25.717,40.376,25.717z M40.376,30.85c-0.858,0-1.553-0.695-1.553-1.553c0-0.858,0.695-1.553,1.553-1.553
		c0.858,0,1.553,0.695,1.553,1.553C41.929,30.154,41.234,30.85,40.376,30.85z"/>
	<path fill="#FFFFFF" d="M32.588,32.324c-1.977,0-3.58,1.603-3.58,3.58c0,1.977,1.603,3.58,3.58,3.58c1.977,0,3.58-1.603,3.58-3.58
		C36.168,33.927,34.565,32.324,32.588,32.324z M32.588,37.457c-0.858,0-1.553-0.695-1.553-1.553s0.695-1.553,1.553-1.553
		c0.858,0,1.553,0.695,1.553,1.553S33.446,37.457,32.588,37.457z"/>
	<path fill="#FFFFFF" d="M32.588,40.354c-1.977,0-3.58,1.603-3.58,3.58c0,1.977,1.603,3.58,3.58,3.58c1.977,0,3.58-1.603,3.58-3.58
		C36.168,41.957,34.565,40.354,32.588,40.354z M32.588,45.487c-0.858,0-1.553-0.695-1.553-1.553s0.695-1.553,1.553-1.553
		c0.858,0,1.553,0.695,1.553,1.553S33.446,45.487,32.588,45.487z"/>
	<path fill="#FFFFFF" d="M32.588,59.475c-1.977,0-3.58,1.603-3.58,3.58c0,1.977,1.603,3.58,3.58,3.58c1.977,0,3.58-1.603,3.58-3.58
		C36.168,61.077,34.565,59.475,32.588,59.475z M32.588,64.608c-0.858,0-1.553-0.695-1.553-1.553c0-0.858,0.695-1.553,1.553-1.553
		c0.858,0,1.553,0.695,1.553,1.553C34.142,63.912,33.446,64.608,32.588,64.608z"/>
	<path fill="#FFFFFF" d="M32.588,70.958c-1.977,0-3.58,1.603-3.58,3.58c0,1.977,1.603,3.58,3.58,3.58c1.977,0,3.58-1.603,3.58-3.58
		C36.168,72.561,34.565,70.958,32.588,70.958z M32.588,76.091c-0.858,0-1.553-0.695-1.553-1.553s0.695-1.553,1.553-1.553
		c0.858,0,1.553,0.695,1.553,1.553S33.446,76.091,32.588,76.091z"/>
	<path fill="#FFFFFF" d="M40.376,78.114c-1.977,0-3.58,1.603-3.58,3.58c0,1.977,1.603,3.58,3.58,3.58c1.977,0,3.58-1.603,3.58-3.58
		C43.956,79.717,42.353,78.114,40.376,78.114z M40.376,83.247c-0.858,0-1.553-0.695-1.553-1.553s0.695-1.553,1.553-1.553
		c0.858,0,1.553,0.695,1.553,1.553S41.234,83.247,40.376,83.247z"/>
	<path fill="#FFFFFF" d="M49.965,78.114c-1.977,0-3.58,1.603-3.58,3.58c0,1.977,1.603,3.58,3.58,3.58c1.977,0,3.58-1.603,3.58-3.58
		C53.545,79.717,51.942,78.114,49.965,78.114z M49.965,83.247c-0.858,0-1.553-0.695-1.553-1.553s0.695-1.553,1.553-1.553
		s1.553,0.695,1.553,1.553S50.823,83.247,49.965,83.247z"/>
	<path fill="#FFFFFF" d="M65.216,78.114c-1.977,0-3.58,1.603-3.58,3.58c0,1.977,1.603,3.58,3.58,3.58c1.977,0,3.58-1.603,3.58-3.58
		C68.795,79.717,67.193,78.114,65.216,78.114z M65.216,83.247c-0.858,0-1.553-0.695-1.553-1.553s0.695-1.553,1.553-1.553
		s1.553,0.695,1.553,1.553S66.073,83.247,65.216,83.247z"/>
	<path fill="#FFFFFF" d="M76.106,78.114c-1.977,0-3.58,1.603-3.58,3.58c0,1.977,1.603,3.58,3.58,3.58c1.977,0,3.58-1.603,3.58-3.58
		C79.686,79.717,78.083,78.114,76.106,78.114z M76.106,83.247c-0.858,0-1.553-0.695-1.553-1.553s0.695-1.553,1.553-1.553
		c0.858,0,1.553,0.695,1.553,1.553S76.964,83.247,76.106,83.247z"/>
</g>
<path fill="#367C3E" d="M92.72,54.347c0-23.916-18.361-43.531-41.754-45.548c1.312-0.113,2.636-0.183,3.977-0.183
	c25.257,0,45.731,20.474,45.731,45.731s-20.474,45.731-45.731,45.731c-1.341,0-2.665-0.07-3.977-0.183
	C74.358,97.878,92.72,78.263,92.72,54.347z"/>
</svg>
