<svg width="572" height="140" viewBox="0 0 572 140" fill="none" xmlns="http://www.w3.org/2000/svg"><g clip-path="url(#clip0)" fill-rule="evenodd" clip-rule="evenodd" fill="#fff"><path d="M78.469.506H38.904V2.02s5.784 2.97 8.802 7.748H64.75L38.072 40.501v8.026h40.397v-9.261H51.792L78.469 8.533V.506z"/><path d="M40.114 24.897c0 8.206-5.917 14.908-14.45 14.908-8.531 0-14.586-6.838-14.586-15.044v-.137c0-8.206 5.917-14.908 14.449-14.908s14.587 6.839 14.587 15.045v.136zm11.068-.975C50.822 10.639 40.27.005 25.663.005 10.803.005 0 11.152 0 24.761v.136c0 13.609 10.665 24.619 25.527 24.619 4.243 0 8.154-.91 11.578-2.524v-6.588l14.077-16.301v-.181z"/></g><g clip-path="url(#clip1)" fill="#fff"><path fill-rule="evenodd" clip-rule="evenodd" d="M186.19 8.02V2.302h3.53v5.577c0 4.017-.523 7.514-3.12 11.696h-5.556v-2.15h2.368c-1.663-3.024-2.368-6.002-2.368-9.546V2.302h3.552V8.02c0 2.93.295 5.457.797 7.465.5-1.937.797-4.489.797-7.465zm-11.763-4.892c.502-.591 1.231-1.016 2.278-1.016 2.458 0 3.026 1.654 3.026 4.726v2.859h-3.507v-3.19c0-1.086-.021-1.606-.795-1.606-.773 0-.797.542-.797 1.606v11.271h-3.552V2.302h3.347v.826zM160.898 7.05c0-3.38.957-4.986 4.395-4.986 3.416 0 4.373 1.583 4.373 4.986v3.567h-5.24v2.955c0 1.086.022 1.607.866 1.607.82 0 .842-.568.842-1.607v-2.056h3.532v1.536c0 3.38-.957 4.962-4.373 4.962-3.438 0-4.395-1.583-4.395-4.962V7.05zm3.528.732h1.708V6.625c0-1.204-.022-1.724-.842-1.724-.842 0-.866.518-.866 1.724v1.158zm-8.981 7.042c.524-1.677.797-3.922.797-6.78V2.301h3.552v6.262c0 4.015-.866 7.134-2.37 9.214h-3.96c-1.502-2.08-2.346-5.197-2.346-9.214V2.302h3.53v5.741c0 2.86.297 5.104.797 6.78zM141.191 7.05c0-3.38.955-4.986 4.394-4.986 3.415 0 4.372 1.583 4.372 4.986v6.002c0 3.38-.957 4.962-4.372 4.962-3.439 0-4.394-1.583-4.394-4.962V7.05zm4.394 8.129c.773 0 .797-.544.797-1.607V6.51c0-1.086-.024-1.606-.797-1.606-.797 0-.821.542-.821 1.606v7.064c0 1.086.024 1.607.821 1.607zM106.333.009h5.08c3.073 0 4.394 1.442 4.396 4.798v8.199c0 3.377-1.323 4.773-4.396 4.773h-5.08V.009zm4.419 14.39c1.184 0 1.229-.472 1.229-1.654v-7.68c0-1.182-.045-1.677-1.229-1.677h-.636v11.011h.636z"/><path d="M124.756 14.107c-.005-.16-.005-.338-.005-.534v-2.15h-3.531v1.89c0 .745.057 1.387.178 1.937a13.034 13.034 0 013.358-1.143z"/><path d="M125.114 11.21c.955.757 1.321 1.205 1.321 2.551l-.002.133c1.221-.076 2.446.02 3.641.282-.031-2.835-.809-4.225-2.616-5.612-1.434-1.112-2.686-1.677-2.686-2.693 0-.661.203-.968.774-.968.523 0 .818.354.818.825V7.17h3.531V6.153c0-2.882-1.321-4.088-4.349-4.088-2.868 0-4.281 1.323-4.281 4.018.002 2.338 1.504 3.213 3.849 5.126zm-4.667 4.567V2.302h-3.531v15.476h1.001a13.072 13.072 0 012.53-2.001z"/><path fill-rule="evenodd" clip-rule="evenodd" d="M213.833 28.058c.979-.724 2.557-1.777 4.233-1.777 2.321 0 4.437 1.285 4.435 3.913v10.6h-2.604v-10.13c0-1.203-.488-2.182-2.014-2.182-1.311 0-2.802.904-4.05 2.168v10.144h-2.604V20.086h2.604v7.972zm-58.284.995v-8.316h2.604v20.057h-2.604v-9.621h-8.304v9.621h-2.604V20.737h2.604v8.317h8.304zm13.187-3.199c2.077 0 3.419 1.04 4.275 2.202.853 1.16 1.281 2.506 1.096 5.87h-9.021c.118 2.642.975 5.137 4.015 5.137 1.893 0 2.87-.49 3.908-1.347l1.037 1.468s-1.588 1.836-5.189 1.836-6.471-2.079-6.471-8.072c0-5.994 4.273-7.094 6.35-7.094zm-.305 2.016c-2.282 0-3.134 1.898-3.317 4.281h6.552c0-2.02-.609-4.281-3.235-4.281zm19.965 2.08v7.766c0 .979.732 1.529 1.223 1.834l-1.282 1.957s-1.688-.538-2.182-2.106c-.696.793-1.842 1.74-3.863 1.74-2.563 0-4.944-1.282-4.944-3.974 0-2.693 2.198-4.221 3.663-4.771 1.215-.456 4.069-.491 5.005-.491v-1.773c0-.979-.428-2.018-2.321-2.018-1.893 0-4.579 1.652-4.579 1.652l-1.282-1.59s2.444-2.14 6.045-2.14c3.6 0 4.517 2.507 4.517 3.914zm-8.243 6.911c0 2.139 1.221 2.568 2.259 2.568 2.203 0 3.266-1.767 3.602-2.47v-3.512c-.398.011-1.11.04-2.258.111-2.016.123-3.603 1.164-3.603 3.303z"/><path d="M193.708 38.573V20.228l2.198-.428v18.284c0 .673.244 1.346 1.465 1.223l.244 1.712s-3.907 1.468-3.907-2.446zm11.904.979c-.917 0-1.649-.55-1.649-1.468v-9.6h2.93l.793-1.957h-3.723V22.43l-2.198.428v3.67h-1.954v1.956h1.954v10.09c0 1.896 1.526 2.935 3.175 2.935 1.648 0 2.686-.49 2.686-.49l-.061-1.772c0-.002-1.037.305-1.953.305zM189.89 18.434h-.283v-1.002h-.408v-.215h1.1v.215h-.409v1.002zm1.872 0h-.264v-1.018h-.004l-.252 1.018h-.277l-.246-1.018h-.004v1.018h-.262v-1.217h.412l.244.959h.004l.241-.96h.408v1.218z"/><path fill-rule="evenodd" clip-rule="evenodd" d="M216.189 6.59h-23.521v1.543h21.888c10.715 0 19.403 8.647 19.403 19.316 0 10.668-8.688 19.316-19.403 19.316h-8.677a2.808 2.808 0 00-2.774-2.401h-37.833a2.808 2.808 0 00-2.774 2.4h-33.443c-10.716 0-19.406-8.647-19.406-19.315 0-2.423.451-4.74 1.27-6.876h-2.613a20.674 20.674 0 00-1.029 6.447c0 11.287 9.02 20.433 20.146 20.433h35.057a2.81 2.81 0 002.794 2.536h37.833a2.81 2.81 0 002.794-2.536h10.29c11.126 0 20.144-9.146 20.144-20.433-.002-11.283-9.02-20.43-20.146-20.43zm-48.411 40.303l.004.005h-.004v-.005zm0-1.097v1.097a1.068 1.068 0 00-.843-.385.953.953 0 00-.993.979c0 .557.404.959 1.006.959a1.139 1.139 0 00.832-.374v1.1l-.009.002c-.316.093-.545.16-.844.16a2.135 2.135 0 01-1.395-.519 1.68 1.68 0 01-.598-1.335c0-.48.193-.944.547-1.29a2.068 2.068 0 011.416-.572c.311 0 .596.066.881.178zm5.141-.082v1.362h-1.175v-1.362h-.812v3.528h.812v-1.446h1.175v1.446h.812v-3.528h-.812zm4.774 3.528l.245-.612h1.266l.23.612h.981l-1.334-3.528h-1.003l-1.359 3.528h.974zm.878-2.438h.007l.378 1.123h-.764l.379-1.123zm5.228-1.09h-.78v3.528h.78V47.08h.008l1.428 2.162h.777v-3.528h-.777v2.156h-.008l-1.428-2.156zm5.974 0h-.778v3.528h.778V47.08h.008l1.426 2.162h.782v-3.528h-.782v2.156h-.008l-1.426-2.156zm6.266 1.366v-.59h1.217v-.776h-2.239v3.528h2.239v-.777h-1.217v-.609h1.154v-.776h-1.154zm6.828 1.385h-1.227v-2.751h-1.024v3.528h2.251v-.777z"/><path fill-rule="evenodd" clip-rule="evenodd" d="M140.026 13.11c0 2.972-.736 4.551-3.215 4.903a13.341 13.341 0 013.63 9.185c0 7.362-5.908 13.332-13.194 13.332-7.285 0-13.191-5.968-13.191-13.332 0-.064.002-.128.004-.193l.002-.098c.141-.153.348-.415.303-.548-.027-.083.007-.138.042-.193.035-.056.07-.111.042-.194-.057-.167-.141-.636-.029-.666.048-.01.081.046.118.111.049.084.105.182.214.167.193-.027.275-.417.22-.72-.03-.167-.144-.276-.241-.368-.079-.075-.145-.138-.145-.213l-.002-.107c-.005-.195-.011-.498.056-.613.084-.137.278-.249.278-.249s-.022-.36-.049-.732c.125-.34.264-.675.416-1.004.016.55.049 1.813.049 1.985 0 .22.109.692.275.663.166-.025.278-.137.278-.137s.054-1.246.084-1.413c.027-.166.166-.332.248-.332.037 0 .068.053.103.113.045.077.096.165.174.165.139 0 .583-.083.692-.222a1.13 1.13 0 01.103-.11c.084-.082.156-.152.118-.25-.057-.139-.166-.362-.278-.332-.109.025-.275.11-.303.22-.027.112-.468-.195-.414-.36.055-.166.33-.305.496-.277.086.014.208.094.321.169.108.07.208.136.262.136.111 0 .441-.082.441-.082s.664-.607.803-.83c.139-.223-.193-.61-.441-.444-.25.166-.416.333-.416.333s-.526.082-.581-.055c-.054-.139.416-1.108.665-1.274a4.79 4.79 0 01.992-.476c.166-.027.664.055.664.055s.25.39.332.472c.054.053.213.06.349.066.072.004.138.007.177.016.109.027-.223.444-.36.415a1.395 1.395 0 01-.117-.028H120a.56.56 0 00-.268-.027c-.139.03-.499.333-.526.444-.029.112.469.636.635.581.071-.023.158-.108.248-.197.121-.118.25-.245.362-.245.193 0 .468-.25.498-.332l.027-.083s.194-.111.194 0c0 .112-.028.666-.028.666.161.076.328.141.498.194.137.029.276-.083.303-.249.029-.164.997-.442 1.268-.385.276.054 1.77.444 1.907.58.043.044.093.11.148.181.122.16.263.346.377.346.167 0 .526.027.637.082.032.016.087.046.152.083.17.095.412.23.511.25.138.027.441-.335.166-.61a2.037 2.037 0 00-.352-.276c-.109-.072-.185-.122-.199-.194-.03-.14.385.082.58.22.096.07.212.084.322.098.112.014.217.027.288.097.136.137 1.879.11 2.1.082.221-.028.855-.304.938-.497.084-.194.525-.554.746-.554 0 0 .748-.748.83-.914.084-.166.112-.39-.137-.693a9.733 9.733 0 00-.582-.665c-.137-.137-1.133 0-.828.278l.053.048c.288.26.577.52.5.754-.082.249-.637 1.108-1.493 1.163 0 0-.443.056-.58.139-.139.084-.69-.083-.774-.222a1.06 1.06 0 01-.111-.248s-2.071-.084-2.182-.25c-.04-.06-.033-.164-.024-.282.014-.208.032-.462-.197-.603-.36-.223-.83-.444-1.051-.444-.221 0-.747-.028-.635-.194.051-.077.225-.083.392-.088.196-.007.384-.014.354-.133-.055-.221-.111-.693.031-.828.137-.139.938-.581 1.188-.554l.303.055s.69-.278.885-.278c.193 0 .58.14.58.14s1.049 0 1.188.054c.137.055.496.387.58.499.084.11.442-.139.469-.278.03-.139-.164-.387-.303-.554a.811.811 0 01-.166-.332s.166-.36.305-.333c.139.027.803.055.803.055s.057.221.442.248c0 0 .084.194 0 .194-.082 0-.221.387 0 .47.22.084 1.133.499 1.271.61.137.112.167.444.167.444s.635.36.937.443c.305.084 1.272 1.052 1.272 1.052l.028.333s.361.25.443.333c.084.082.58-.276.444-.415-.139-.139-.333-.305-.333-.305s-.082-.388-.111-.5c-.027-.109-1.411-1.19-1.411-1.19s.196-.083.278.028c.084.112.498.057.553-.027.054-.084-.526-.472-.526-.472s-.305-.444-.582-.444c-.277 0-.441-.055-.412-.166a.227.227 0 01.045-.078c.061-.082.143-.194 0-.45a14.503 14.503 0 00-2.104-.905 12.924 12.924 0 01-.071-1.405V7.051c0-3.38.956-4.986 4.373-4.986 3.438 0 4.393 1.583 4.393 4.986v1.51h-3.575V6.508c0-1.086-.023-1.606-.818-1.606-.774 0-.797.542-.797 1.606v7.146c0 1.063.023 1.607.797 1.607.795 0 .818-.52.818-1.607v-2.056h3.575v1.512zm-11.587 5.496c0 .166.194.356.332.333.073-.012.188-.077.31-.147.158-.09.329-.186.439-.186.081 0 .212.09.357.188.197.135.421.288.58.256.276-.055.139-.636.055-.72a1.515 1.515 0 01-.089-.105c-.108-.134-.273-.338-.437-.421-.22-.112-.718-.112-.885-.112-.166 0-.607.249-.607.333 0 .035-.01.112-.021.203-.015.128-.034.28-.034.378zm-1.223.814h.001l.116.043c.61.25.526-.33.471-.497-.054-.166-.441-.166-.607-.166-.166 0-.469.053-.526.248-.047.163.318.292.545.372zm.117-1.81c.166-.055.221-.276.221-.276.246-.07.496-.126.748-.166.139 0 .084-.36 0-.472-.082-.111-.607-.278-.746-.305-.139-.027-.359.196-.359.305 0 .11-.112.137-.196.082-.082-.054-.553-.029-.662.028-.109.057-.332.305-.471.471-.137.167-.055.36.084.472.139.11.61.248.719.248.058 0 .194-.093.333-.189.124-.085.251-.172.329-.198zm5.197 1.577c.026-.082.223-.248.387-.22.332.054.195.774.141.913-.055.139-.608.609-.608.609l-.553.084c-.195.027-.25-.249-.195-.333.055-.084.637-.61.746-.693.073-.056.073-.16.073-.248a.4.4 0 01.009-.112zm1.272.25s-.137-.22-.248-.277c-.096-.049-.088-.28-.083-.397l.001-.032v-.015c0-.085-.195-.221-.195-.221s.029-.304.22-.304c.192 0 .498.112.61.221.043.043.097.085.15.126.084.065.164.127.182.178.027.082.441.499.441.499l.084.72s-.609.663-1.187.804c-.581.137-1.022.137-1.022 0 0-.097.2-.233.35-.335.066-.045.122-.084.148-.11.078-.081.549-.72.549-.856zm-2.985 1.523l-.746.36c-.08.04-.511.023-.842.01-.133-.005-.25-.01-.321-.01-.248 0-.303.444.139.5.441.054 1.326.027 1.52 0 .195-.03.664-.555.691-.639.028-.084 0-.22-.441-.22zm.082 1.744c-.137.139.139.415.277.526.139.112.856.333.967.333h.043c.117.004.29.008.29-.14l-.002-.085c-.004-.147-.008-.297.084-.274.111.027.361.137.386.22l.03.083.054.61s.303.055.444.112c.137.055.58.082.662.027.084-.054.221-.248.196-.36-.03-.111-.196-.22-.196-.22s0-.36-.027-.5c-.029-.137-1.022-.747-1.272-.802-.248-.055-.551-.055-.635.027-.082.083-.443.083-.553.083-.051 0-.085.067-.12.139-.04.08-.082.166-.155.166-.139 0-.473.055-.473.055zm.691 1.385c-.021.155-.634.276-1.133.276-.496 0-1.021-.164-.937-.415.082-.248.635-.802.828-.802.195 0 .471.027.609.248.057.092.18.193.303.294.173.142.347.284.33.4zm4.894-1.164c-.119.072.083.305.194.332.05.013.066.064.083.119.022.068.046.143.138.16.166.029.359-.222.359-.388s0-.388-.137-.415c-.14-.03-.5.11-.637.192zm2.183-.636a1.649 1.649 0 00-.053.013c-.151.04-.4.107-.473-.04-.082-.167-.332-.72-.277-.83.054-.11.305-.249.414-.14.111.11.748.913.389.997zm-1.161 1.217c-.146.027-.195.248-.195.415 0 .166 0 .415.195.442a.886.886 0 00.385-.039l.059-.016c.109-.027.275-.11.219-.248-.055-.137-.36-.609-.663-.554zm1.52-.36c-.168-.014-.195.333-.195.499 0 .041-.004.086-.007.13-.01.137-.021.278.062.34.026.02.062.04.099.064.121.073.261.157.178.24-.111.112-.469.222-.526.056-.056-.167-.304-.055-.332.082l-.016.079c-.037.178-.103.5-.15.64-.054.165-.443.776-.746.887-.305.11-.387.221-.305.388.084.166.305.278.582.248.278-.03.829-.193.938-.305.11-.111.444-.387.61-.36.166.027.359.139.414.278.018.046.03.086.042.123a.569.569 0 00.097.207c.082.112.359-.248.332-.387-.03-.139-.112-.638-.084-.775.029-.139.029-.636.029-.636s-.361-.36-.361-.499c0-.073-.016-.24-.03-.397a5.413 5.413 0 01-.025-.323c.002-.108-.276-.55-.606-.58zm-4.753 4.236c-.223-.084-.35-.373-.196-.499a.38.38 0 01.417-.049c.136.055.967.388 1.187.582.115.1.388.39.634.652.227.24.431.456.47.483.084.056.112-.249.084-.388-.029-.137-.389-.552-.498-.663-.109-.112-.248-.638.193-.472.442.167 1.106 1.024 1.106 1.024v.305c0 .137.303.387.303.387s.084 2.104.029 2.574c-.054.471-2.571 1.937-2.764 1.966-.193.026-1.823-.03-2.018-.111-.192-.084-1.022-.748-1.022-.748s.25-.305.359-.36c.112-.055.03-.442.03-.442s.111-.112.277-.14c.166-.027.444.083.498.195a.523.523 0 01.04.149c.011.07.022.136.07.183.082.083.662-.111.662-.111h.719c.137 0 .387-.333.387-.333s.111 0 .248.055c.139.055.221-.221.055-.278-.166-.057-.332-.442-.166-.526.054-.028.117-.055.183-.084.134-.058.276-.12.37-.194.136-.112.136-.805-.03-1.053-.135-.207-.253-.319-.336-.398l-.015-.013-.034-.033c-.065-.066-.329-.18-.561-.28a15.524 15.524 0 01-.187-.08c-.248-.11-.139-.581-.055-.581.084 0 .276.025.387.054.112.03.221-.22.112-.248-.105-.026-.285-.203-.374-.29l-.013-.013c-.057-.059-.195-.103-.348-.153a4.422 4.422 0 01-.203-.069zm-15.286 7.835c-.116-.057-.164.06-.216.186a.704.704 0 01-.089.175c-.037.047-.084.094-.13.14-.089.09-.174.175-.174.247 0 .11.111.278.25.278.1 0 .113.162.123.282.004.044.007.083.014.105.027.082.302.194.359.112.038-.058.063-.247.085-.404.009-.07.018-.135.026-.177.03-.14.03-.554.03-.664 0-.11-.168-.225-.278-.28zm-2.461-1.772v.665c0 .049.074.153.142.248a.97.97 0 01.106.167c.027.082.387.33.443.22a6.77 6.77 0 01.248-.414c.055-.082.469-.33.469-.33s.637-.25.637-.388c0-.139-.332-.638-.416-.693-.039-.026-.341.088-.682.217-.366.139-.775.294-.947.308zm.47-.415c.01.123-.277.276-.47.22-.194-.054-.331-.11-.331-.275 0-.166.166-.387.249-.415.082-.027.523.14.552.47zm3.482-.83c-.024.194.277.33.387.303.041-.01.09-.036.141-.062.085-.046.177-.094.246-.077l.002.001a.842.842 0 01.33.138.759.759 0 00.443.14c.164 0 .385-.194.414-.306.017-.07.099-.117.178-.163a.625.625 0 00.125-.085c.084-.085-.082-.333-.193-.36a4.725 4.725 0 00-.692-.055c-.195 0-.471.027-.498.111l-.011.035c-.027.086-.065.207-.21.159-.166-.055-.387-.139-.387-.139s-.246.139-.275.36zm.25-.941s-.084.305-.166.36a1.897 1.897 0 01-.14.074c-.148.075-.355.18-.413.257-.082.111-.332.22-.635.111l-.084-.03c-.267-.097-.484-.176-.635-.3a.736.736 0 00-.197-.12c-.046-.02-.079-.034-.106-.074-.054-.082.082-.415.303-.415.074 0 .147.006.221.012.148.012.296.024.443-.012.221-.055.248-.221.248-.221s.665-.055.801-.03c.125.025.227.183.326.335l.034.053zm-2.516.802c-.023.218-.238.245-.423.268a4.566 4.566 0 00-.076.01c-.193.027-.525.027-.662-.111-.072-.072-.196-.15-.314-.226-.109-.07-.213-.136-.266-.19-.11-.11.027-.526.275-.47.153.033.295.108.407.167.072.038.132.07.176.08.111.028.525.028.525.028s.387.168.358.444zm7.988-4.152c.013.048.013.141.013.242 0 .18 0 .388.071.423a.35.35 0 01.076.051c.037.032.06.051.172.031.166-.027.444-.36.444-.36s.248 0 .221.082c-.019.054-.097.155-.163.242a2.35 2.35 0 00-.087.118c-.055.083 0 .388.111.415.111.028.25.249.166.36-.03.041-.072.071-.111.099-.067.048-.127.09-.11.177.03.14.084.249.166.278.084.028.471.112.528.028.056-.085.027-.415.027-.415s.303-.278.332-.445c.028-.166-.111-1.743-.111-1.743s-.553-.859-.746-.859c-.196 0-.553.139-.61.248-.045.087-.036.383-.03.572l.003.121c0 .072-.103.13-.199.183-.091.05-.176.098-.163.152zm-.857-.609c.191.065.248.276.248.442v.72s-.305.36-.33.443c-.008.02-.006.053-.005.095.005.13.013.347-.216.515-.305.221-.831.221-.831.112 0-.055.076-.158.152-.261.076-.105.153-.21.153-.265 0-.112.248-.445.248-.445s-.054-.58 0-.692a.596.596 0 01.1-.125c.081-.087.178-.19.178-.32 0-.191.138-.275.303-.219zm-1.575-.775c-.221-.029-.278.083-.332.194-.055.112-.303.36-.303.36s.084.249-.137.472c-.221.22-.803.802-.967.914-.042.028-.091.057-.138.085-.14.082-.278.164-.278.247 0 .11.195.497.387.442.193-.054.359-.111.58-.248.221-.137.305-.249.305-.249s.221 0 .137.112c-.082.106-.082.495-.082.495s-.528.499-.747.663c-.157.12-.33.195-.476.26a2.863 2.863 0 00-.161.073c-.166.084-.277.775-.027.748.207-.023.549-.142.752-.213l.104-.036c.164-.055.609-.499.609-.499s.276 0 .33-.111c.016-.032.079-.142.163-.287.214-.37.556-.963.556-1.042 0-.11.03-.47.03-.47s.248-.22.248-.332c0-.086-.13-.269-.241-.424a3.276 3.276 0 01-.091-.13s.029-.832.029-.914c0-.082-.25-.11-.25-.11zm-8.651.055a.273.273 0 00-.305.194c-.027.111-.303.415-.303.415s-.084 1.107-.029 1.246c.023.06.087.098.152.138.088.054.18.11.18.222 0 .194.139.497.139.497s.248.167.277.305c.028.137.635.664.717.664l.093.001h.001c.463.008 2.442.043 2.616-.056.09-.052.186-.121.279-.19.108-.077.212-.153.301-.197.166-.084.471-.194.471-.194s.33-.112.33-.305c0-.194-.441-.36-.58-.36a.84.84 0 00-.248.075c-.128.051-.267.107-.359.09-.165-.026-.663-.33-.663-.33s-.855-.084-.967-.03a1.932 1.932 0 00-.103.059c-.129.075-.304.177-.368.136a.87.87 0 00-.059-.035c-.068-.037-.134-.073-.134-.16 0-.035.003-.075.006-.118.006-.092.013-.194-.006-.269-.027-.111-.332-.193-.332-.193l-.913-1.08c0 .002.11-.47-.193-.525zm1.602-.638c.082.082.082.36 0 .333a2.344 2.344 0 00-.287-.047c-.089-.012-.179-.024-.239-.035-.045-.01-.1-.012-.154-.016-.11-.006-.215-.011-.232-.067a.58.58 0 01-.017-.142c-.006-.107-.014-.24-.067-.33-.082-.138-.303-.36-.303-.36s.027-.443.055-.525c.027-.083.332-.167.443-.055.111.111.221.22.277.305.057.084.028.333.028.333l.496.606zm15.645 3.822c.332.055.569-.255.61-.36.021-.055-.061-.115-.15-.179-.135-.097-.284-.203-.102-.32.084-.055.551-.25.746-.305.195-.055-.027-.304-.164-.331-.139-.03-.526.027-.719.082-.194.055-.635.358-.664.47-.026.111-.055.36-.055.499s.166.39.498.444zm-.607-1.11c0 .196-.083.61-.083.61s-.47-.026-.582-.056c-.111-.03-.195-.278-.166-.36a.957.957 0 01.278-.36l.039-.032c.134-.107.301-.24.402-.19.112.058.112.195.112.388zm.22 3.685c.112-.057.362-.36.362-.36s.054-.303.054-.387c0-.085-.052-.167-.164-.167-.111 0-.498.25-.527.333-.028.082-.028.332-.028.442 0 .112.192.196.303.139zm2.956 1.495c.141-.084.278.055.278.055a.63.63 0 01-.11.665c-.137.166-.744.36-1.215.388-.471.027-1.631-.167-1.743-.278-.093-.094-.359-.224-.509-.298l-.071-.035c-.111-.057-.111-.248-.111-.387 0-.14.332-.278.387-.194.054.084.136.111.386.139.249.027.747.111.913.166.119.04.565.022.899.01.132-.005.246-.01.316-.01.222 0 .4-.11.533-.192l.047-.029zm-2.458 3.432c-.193-.11-.111-.303 0-.415 0 0 .245-.029.467-.029.14 0 .279.044.404.083.074.024.144.046.206.056.103.017.4-.094.649-.188.151-.056.285-.106.347-.117.166-.028.303.36.248.499-.054.139-.83.69-1.051.72-.104.013-.265.026-.426.039a9.715 9.715 0 00-.457.043c-.195.027-.195-.333-.084-.303.112.027.196-.194.112-.221l-.053-.017a1.61 1.61 0 01-.362-.15zm-1.105-.223c.304.057.535-.049.637-.248.084-.17-.072-.276-.23-.385-.099-.068-.2-.138-.243-.224-.112-.223-.416-.362-.526-.278-.109.084-.221.335-.221.472 0 .137.084.303.196.33.041.011.063.052.09.102.045.085.105.196.297.231zm-2.874-3.209c.027.276.553.609.883.497 0 0-.002-.333-.057-.499-.054-.166.223-.36.498-.221.182.092.438.038.662-.008a1.58 1.58 0 01.305-.047c.251 0 .223-.194.112-.221-.11-.027-.248-.276-.221-.387.027-.102-.176-.133-.338-.159l-.049-.008a8.663 8.663 0 00-.912-.082c-.153 0-.387.2-.561.35a1.779 1.779 0 01-.185.147c-.137.084-.166.36-.137.638zm.662-2.798c.25-.137.326-.378.166-.497a.376.376 0 00-.33-.055c-.084.027-.664.303-.803.497-.137.196.223.583.332.499l.038-.03c.128-.098.374-.29.597-.414zM124.1 34.47c-.055.082-.303.137-.414 0-.112-.137 0-.387.082-.442a.652.652 0 00.121-.179c.072-.127.156-.276.24-.293.137-.03.606-.03.635.082.028.11-.029.443-.084.554-.054.112-.385.112-.385.112s-.14.082-.195.166zm-1.265-.938l-.007-.003c-.166-.084-.549.39-.549.39s-.498-.085-.609.027c-.112.11-.36.139-.444.139-.045 0-.106-.042-.175-.088a1.03 1.03 0 00-.184-.106c-.114-.047-.672.003-1.222.053h-.001l-.325.029a1.605 1.605 0 00-.997.424h-.001a1.181 1.181 0 01-.053.046c-.138.111-.136.305-.027.471.084.128.236.01.363-.09.038-.029.074-.057.106-.076.137-.084.607-.112.885-.112.275 0 .439.39.385.472-.055.082-.33.387-.33.387l-.055.582s-.221.277-.221.387c0 .11.248.303.248.303s.029.444.112.472a.484.484 0 01.22.139c.082.082.414.082.635.055.221-.028.25-.278.084-.306-.119-.02-.153-.081-.193-.156a.68.68 0 00-.057-.092c-.082-.112-.277-.278-.277-.278s.361-.663.525-.72c.076-.025.28-.201.507-.398.269-.233.573-.495.738-.57.099-.046.223-.094.347-.142.253-.1.509-.199.565-.274.022-.029.058-.071.102-.12.121-.14.292-.338.312-.46.027-.165-.258-.31-.407-.385zm-6.86-7.147c-.114.025-.278.193-.25.277.01.028.01.082.01.145 0 .122 0 .28.074.354.052.053.185.18.324.313.156.15.321.307.395.38.138.139.22.36.22.36s1.52.221 1.661.139c.137-.082.387-.305.387-.305s-.389-.472-.53-.527a1.284 1.284 0 00-.225-.048c-.143-.023-.308-.049-.41-.116a5.862 5.862 0 00-.83-.415.766.766 0 01-.359-.278c-.055-.084-.219-.334-.467-.28zm1.85-.11c-.037.016-.053.06-.07.106-.025.069-.052.142-.151.142a.584.584 0 01-.33-.082c-.11-.055-.221-.137-.25-.22-.028-.083-.055-.445-.055-.445s-.248-.276-.332-.36c-.082-.082-.055-.33.055-.388.111-.054.22-.193.195-.305a.798.798 0 01-.029-.36c.027-.108.416-.274.416-.274s.248.112.277.027c.028-.082-.029-.72-.029-.72s.332-.193.332-.33v-.36s.635-.36.801-.445c.166-.084.139-.36.139-.36s.441-.442.58-.47c.137-.027.442-.027.526.055.084.083.136.445.136.445l-.33.166s-.221.276-.305.387a3.648 3.648 0 00-.069.104c-.091.14-.224.343-.374.45-.089.064-.206.11-.313.152-.126.05-.238.094-.267.154-.046.094-.034.778-.029 1.055l.001.107c0 .11-.22.333-.277.139-.057-.194-.25-.055-.305.139-.043.152-.018.558-.006.768.004.057.006.1.006.118 0 .084.196.194.196.194s.054.329-.139.41zm.498 0s-.221-.082-.303.055a.824.824 0 01-.102.131c-.051.059-.093.106-.093.174 0 .111.166.499.166.499l.416.221s.662.442.801.526c.137.083 2.1 0 2.157-.139a.718.718 0 00.03-.203c.007-.114.014-.222.081-.239l.104-.022c.19-.039.538-.11.67-.199l.08-.051c.218-.137.646-.406.694-.696.054-.331-.028-.775-.028-.775s-.637-.554-.803-.581c-.166-.028-.912-.083-1.106 0-.193.082-.414.637-.332.747a.855.855 0 00.213.154c.111.067.218.131.202.179-.028.082-.276.111-.276.111s-.582-.027-.692-.278c-.109-.25.03-.802.03-.802s.746-.444.912-.444a45.6 45.6 0 011.079.055s.136-.112.111-.249c-.029-.137.303-.082.443 0 .073.044.194.143.316.243.108.088.215.177.292.229l.022.015.032.021c.15.1.305.203.305.351 0 .048-.002.123-.005.209-.007.212-.015.488.005.566.028.112.333.305.469.194.139-.112.333-.305.333-.472 0-.053-.006-.118-.012-.186-.012-.142-.026-.293.012-.367.054-.11.136 0 .136 0s.055.886.03.997a2.24 2.24 0 00-.055.415c0 .084.414.221.469.055.031-.096.055-.184.074-.256.014-.052.026-.097.037-.131.062-.101.136-.194.221-.276h.139s0-.582-.139-.638c-.137-.055-.332-.194-.332-.276 0-.082-.028-.278-.028-.278s-.746-.027-.773-.139c-.028-.112-.082-.387-.082-.387s-.885-.664-.997-.775c-.088-.089-.44-.178-.679-.238l-.155-.04c-.193-.055-.33-.11-.33-.11s0-.195.193-.111c.194.082.526.194.665.194.028 0 .071.004.122.01.198.021.513.055.513-.122 0-.047.002-.092.004-.135.009-.161.015-.286-.116-.307l-.083-.014-.013-.002c-.266-.041-.862-.134-.982-.205-.139-.083-.581-.112-.831-.028-.248.082-.58.305-.551.444.028.137.219.249.442.249s.498.03.498.03-.082.36-.387.387a6.248 6.248 0 01-.374.015c-.27.006-.556.013-.647.067-.049.029-.097.079-.144.126-.085.088-.163.167-.216.095-.039-.052-.042-.145-.045-.24-.003-.111-.007-.227-.066-.286-.112-.11-.303.027-.444.139a15.8 15.8 0 00-.58.553s.055.47-.029.527c-.082.055-.248.139-.248.139s.054.608.027.802a1.71 1.71 0 000 .526c.027.14.608.72.774.775.166.055.084.194-.137.166-.221-.027-.801-.36-.885-.442-.028-.03-.043-.066-.058-.102-.027-.067-.053-.131-.161-.15zm6.053-3.959c-.126.126-.249.472 0 .609.103.058.212.102.31.141.136.055.25.1.299.164.029.04.054.085.079.13.045.082.087.158.142.175a.84.84 0 00.181.016c.112.003.238.007.288.04.082.054.332.026.387-.056.027-.04.248-.04.465-.04.218 0 .432 0 .447-.042.027-.082-.029-.305-.111-.387-.082-.084-.831-.666-1.079-.775-.246-.114-1.16-.225-1.408.025zm-.581-.526c.211.108.028.526-.084.554a4.218 4.218 0 01-.635.054l-.062.001c-.137.003-.244.006-.27-.14-.027-.166.112-.33.25-.414.139-.083.692-.11.801-.055zm2.128 2.021c-.154.065-.469.221-.414.36a.782.782 0 00.132.19c.076.09.156.186.17.282.03.166.278.332.362.36l.046.017c.11.044.317.125.341-.017.027-.166.137-.249.193-.166.045.064.036.355.03.542l-.002.121c0 .137.164.305.275.278.111-.028.582-.249.61-.36.02-.077-.001-.377-.016-.592-.006-.097-.012-.176-.012-.21 0-.11-.361-.527-.443-.582-.049-.032-.136.02-.227.075a.7.7 0 01-.187.092c-.139.027-.471.054-.471-.055 0-.11-.055-.474-.387-.335zm11.003 2.131c.275-.055.58-.248.608-.387 0 0-.305-.33-.442-.362-.137-.028-.303.111-.385.194-.084.082-.387.193-.637.22-.248.03-.414.055-.691.112-.278.057-.192.39-.082.444.109.055.773.028.883-.027.109-.055.47-.139.746-.194zm1.409 2.272c-.11.055-.426.172-.469 0-.048-.187.12-.334.241-.44.024-.02.045-.04.063-.057.11-.11.663-.221.858-.221.192 0 .44.276.469.442.013.082.007.212 0 .341a1.776 1.776 0 000 .352c.027.164-.387.248-.469.221-.056-.02-.062-.136-.068-.26-.003-.063-.006-.128-.016-.184-.027-.167-.5-.249-.609-.194zm.109 2.102c0-.137.111-.443.277-.415.166.03.493.303.549.497.057.194.028.526-.054.581-.067.045-.153.314-.198.455l-.023.071c-.015.047-.168.18-.314.306-.117.102-.23.2-.266.248-.084.112-.389-.025-.499-.137-.074-.076.043-.203.152-.32.051-.054.1-.107.126-.151.082-.137.027-.415.027-.415s.166-.112.196-.194c.027-.082.027-.39.027-.526z"/></g><g clip-path="url(#clip2)"><path fill-rule="evenodd" clip-rule="evenodd" d="M368.537 25.01l14.112 24.923-16.254.028-5.97-10.577-5.968 10.577-16.253-.028 14.112-24.924L338.204 0h16.171l6.05 10.686L366.477 0h16.172l-14.112 25.01zM320.755.015c13.755 0 24.907 11.175 24.907 24.958 0 13.784-11.152 24.959-24.907 24.959-13.756 0-24.906-11.175-24.906-24.959 0-13.783 11.15-24.958 24.906-24.958zm4.363 14.697c0-2.339-2.022-4.433-4.294-4.433-2.274 0-4.112 2.094-4.112 4.433l-.005 20.445c0 2.34 1.843 4.236 4.116 4.236 2.273 0 4.295-1.836 4.295-4.175V14.713zm-60.448 35.22V0h30.983l.913 13.62h-16.814v6.535h13.712v13.662h-13.712v16.116H264.67z" fill="#fff"/></g><g clip-path="url(#clip3)"><path d="M493.116.515s-1.799.038-2.841.02c-.044.439-.546 4.414-.978 7.611-.497 2.959-4.436 24.907-5.77 31.477-.352 1.984-1.438 7.588-1.54 8.148-1.254.15-2.734.289-3.701.326-.13.004-.346.047-.448.047v1.138c.118-.005.745.043 1.188.024 1.064-.034 4.085-.178 4.657-.178 2.172 0 3.62.144 5.63.184a9.7 9.7 0 00.821-.033v-1.15c-.167 0-.389-.005-.519-.005-.567.018-2.658-.143-3.717-.288.125-.751 1.972-12.118 2.858-16.664a3608.496 3608.496 0 002.853-14.376l.313.74 13.318 31.82 2.431.012s1.389-3.446 3.036-7.31c.044-.092.163-.368.33-.764 1.729-4.013 10.298-24.38 10.298-24.38s.081.366.216 1.022c.815 3.992 3.576 18.379 4.165 21.85.276 1.785.535 3.596.686 4.657.222 1.503.368 2.973.368 3.396-.27.012-2.983.258-4.009.302a5.594 5.594 0 00-.438.012v1.157c.368 0 .724.016 1.081.008 2.096-.04 4.111-.204 6.207-.203 2.356.002 6.176.208 8.623.224.276 0 .767-.024.767-.024v-1.17c-.14 0-.756-.031-.983-.05-1.097-.085-2.944-.257-3.414-.288 0 0-.303-1.68-.703-3.622-1.599-7.765-6.153-31.367-6.85-37.174-.238-1.996-.913-6.478-.913-6.478h-2.74l-2.674 7.694c-.87 2.507-2.053 5.603-2.955 7.977-4.452 11.728-9.444 22.657-9.444 22.657s-10.611-25.38-11.173-26.847c-.567-1.468-4.036-11.499-4.036-11.499zm-76.275.01l.023 2.683-.045 6.533.706-.02.074-5.81s3.871-.034 4.372-.033l7.218.003 4.659.023.007 40.407.002 3.49-.099.013c-.62.048-3.006.194-3.976.23-.217.007-.356.012-.379.01l.004 1.182c.175.008.647.02.709.018 2.293-.03 5.395-.23 7.595-.228 2.235.001 5.381.219 7.327.242.193 0 .422-.018.607-.018v-1.11l-.241.002c-.621-.002-4.051-.224-4.406-.27-.014-.543-.078-3.16-.078-3.217l.017-40.756 3.547-.01 9.254.007 3.089.042c.02.221.176 3.164.174 3.245-.007.213.115 2.406.11 2.945l.732.009-.052-6.607.033-2.973c-2.719.075-9.65.168-20.407.162-9.225-.005-18.115-.083-20.576-.194zm43.084.011l.012 1.158c.365.02 2.512.21 3.034.235.417.052.998.104 1.414.144 0 .37.006 2.927.012 3.936.07 9.564.011 30.702-.018 38.18l-.014 3.556c-.263.08-.855.11-1.496.153-.547.037-2.508.202-2.946.211v1.158c.182 0 .515.038.704.036 2.22.001 5.307-.275 7.581-.273 2.298.001 5.367.282 7.177.282l-.006.001c.157.002.53-.039.686-.038v-1.157h-.156c-.07-.015-2.404-.114-2.972-.173-.297-.019-1.583-.13-1.599-.173a21.02 21.02 0 01-.011-.946c.006-.547.006-1.458.006-2.444.005-7.544.027-29.95.032-38.513 0-1.655.006-3 .006-3.722.502-.032 2.555-.247 3.29-.312.032-.003 1.005-.059 1.404-.083V.546c-2.512-.001-5.836.196-8.288.194-2.564-.001-5.723-.203-7.852-.204zM576.191.57l-.756.002c-1.68.007-5.981.04-11.011.067-3.09.018-5.505.043-8.687.041-2.232.026-5.354.113-7.283.11-3.08-.006-5.592-.196-6.959-.202-.648-.003-1.01.022-1.188.01.01.017.01 1.143.01 1.143.119.02.357.047.579.042.772.052 2.22.17 2.955.267.146.027.394.068 1.086.145-.006.256.032 3.156.027 4.898l-.016 37.624c0 .058-.082 2.896-.082 3.125-1.221.21-3.565.338-4.365.341h-.238v1.146c.114 0 .638.02.935.02 1.291 0 4.619-.206 8.018-.209 2.382-.002 5.003.088 7.655.125 3.269.046 6.575.048 9.547.09 4.9.07 8.871.076 10.162.077 0 0 .157-9.11.157-9.845l-.708.008c0 .775-.286 3.661-.297 3.787-.092 1.087-.189 2.225-.265 2.786 0 0-.345.028-.513.025-.805-.016-3.377.078-3.431.078l-11.47.005-8.055-.135-.054-2.24-.005-17.392c1.437-.049 3.63-.125 4.965-.122 1.134.002 3.809-.062 5.305-.059 3.636.007 6.867.03 7.126.037.6.018 1.713.055 2.134.08.016.154.065.393.071.461.216 1.332.334 2.254.48 3.561.022.118.033.232.049.339h.827s.021-.467.01-.758c-.016-1.025-.081-3.07-.081-5.337-.005-1.571.087-3.973.098-5.128.005-.313-.033-.535-.033-.624l-.756.014c-.006.25-.065.618-.065.618-.065.861-.308 1.962-.502 3.123a2.55 2.55 0 00-.092.347c-.087.029-2.459.156-2.669.154-.081 0-3.534.097-3.593.097l-13.269-.05.022-19.178s1.685-.06 2.155-.057c1.913 0 5.025-.017 8.196-.013 4.641.006 9.147.035 9.158.042.027.013 1.399.032 1.426.056.032.025 1.75.077 2.172.09 0 0 .032.143.054.323.189 2.022.346 4.424.416 5.274l.005.341.708-.002c0-1.245-.065-5.058-.076-7.484-.005-.78.011-1.414.011-1.775v-.31z" fill="#fff"/></g><path d="M24.832 80C10.999 80 0 91.236 0 104.924 0 118.761 11 130 24.832 130c13.905 0 24.757-11.237 24.757-25.072C49.591 91.241 38.737 80 24.832 80zm0 10.58c11.294 0 19.568 7.136 23.064 14.348-3.496 7.323-11.77 14.493-23.064 14.493-11.368 0-19.575-7.173-23.07-14.493 3.495-7.21 11.705-14.344 23.07-14.344v-.005zm0 1.134c-7.358 0-13.357 5.924-13.357 13.21 0 7.395 6 13.288 13.357 13.288a13.23 13.23 0 0013.277-13.284c0-7.285-5.92-13.214-13.277-13.214zm48.497-8.747c-12.987 0-22.039 9.808-22.039 21.739v.143c0 12.078 9.236 21.635 21.71 21.635 8.13 0 12.988-2.893 17.33-7.543l-5.925-5.925c-3.313 2.999-6.296 4.943-11.116 4.943-7.247 0-12.286-6.046-12.286-13.253v-.11c0-7.21 5.15-13.105 12.286-13.105 4.231 0 7.543 1.794 10.818 4.76l5.924-6.81c-3.937-3.842-8.718-6.474-16.702-6.474zm20.504.728v42.051h20.122c9.526 0 15.817-3.838 15.817-11.521v-.149c0-5.636-3.014-8.457-7.911-10.322 3.019-1.681 5.556-4.316 5.556-9.074v-.109c0-2.895-.958-5.237-2.907-7.176-2.425-2.378-6.215-3.7-11.037-3.7h-19.64zm9.046 8.088h9.199c3.937 0 6.104 1.574 6.104 4.32v.148c0 3.11-2.61 4.428-6.731 4.428l-8.572.004v-8.9zm0 16.587h10.782c4.742 0 6.876 1.758 6.876 4.576v.144c0 3.111-2.499 4.538-6.582 4.538l-11.076.004v-9.262zm45.13-25.294c-8.608 0-14.786 5.049-14.786 12.695v.113c0 8.349 5.514 10.693 14.014 12.853 7.063 1.827 8.533 2.997 8.533 5.339v.149c0 2.45-2.32 3.952-6.108 3.952-4.858 0-8.829-1.98-12.62-5.091l-5.516 6.553c5.076 4.502 11.55 6.701 17.951 6.701v-.005c9.124 0 15.523-4.687 15.523-13.026v-.109c0-7.356-4.854-10.4-13.427-12.63-7.282-1.87-9.125-2.782-9.125-5.528v-.109c0-2.05 1.877-3.695 5.447-3.695 3.569 0 7.248 1.57 11.001 4.166l4.819-6.984c-4.268-3.404-9.526-5.344-15.706-5.344z" fill="#fff"/><g clip-path="url(#clip4)"><path fill-rule="evenodd" clip-rule="evenodd" d="M197.333 105.529a34.576 34.576 0 0134.661-34.654c19.218 0 34.646 15.466 34.646 34.654 0 19.188-15.428 34.654-34.646 34.654-19.22 0-34.661-15.466-34.661-34.654zm1.068.001a10.84 10.84 0 0110.866-10.865c6.029 0 10.866 4.85 10.866 10.864v10.63h-5.716v-2.375s-1.448 2.611-5.15 2.611a10.84 10.84 0 01-10.866-10.865zm16.045 0a5.169 5.169 0 00-5.179-5.185 5.168 5.168 0 00-5.178 5.185 5.167 5.167 0 005.178 5.184 5.168 5.168 0 005.179-5.184zm7.07-18.348v18.347a10.845 10.845 0 0010.87 10.869 10.835 10.835 0 0010.857-10.869 10.835 10.835 0 00-10.857-10.868c-3.702 0-5.154 2.617-5.154 2.617V87.182h-5.716zm10.87 13.163a5.17 5.17 0 015.179 5.185 5.17 5.17 0 01-5.179 5.185 5.17 5.17 0 01-5.179-5.185 5.17 5.17 0 015.179-5.185zm11.79 5.185a10.84 10.84 0 0110.866-10.865h-.001c5.209 0 9.526 3.62 10.606 8.483h-5.998a5.176 5.176 0 00-4.607-2.803 5.168 5.168 0 00-5.179 5.184 5.169 5.169 0 005.179 5.185 5.17 5.17 0 004.595-2.791h6.01a10.84 10.84 0 01-10.605 8.472 10.84 10.84 0 01-10.866-10.865z" fill="#fff"/></g><g clip-path="url(#clip5)" fill="#fff"><path d="M308.887 82.423c-2.797 2.57-3.815 8.39 1.227 11.794l20.116 14.003-9.754-22.673c-2.044-5.35-7.635-6.517-11.589-3.124zM326.203 71.4c-3.27.067-8.18 4.018-5.995 10.05l10.088 24.14 3.544-25.39c.821-6.309-3.885-9.22-7.637-8.8zm9.212 7.832h1.907s1.019 0 1.158.488c-.751.622-2.794.7-2.523 4.022l3.207 21.845 10.019-24.203c2.049-5.404-2.253-9.917-6.068-10.055a7.432 7.432 0 00-.542-.023c-3.425 0-7.35 2.525-7.158 7.926zm13.364 6.52l-9.476 22.401 20.11-14.077c4.636-3.336 3.888-8.67 1.293-11.306-1.088-1.24-3.085-2.2-5.201-2.2-2.5 0-5.175 1.345-6.726 5.183zm8.383 11.512l-18.886 13.384h23.253c4.771 0 7.837-4.991 6.474-9.571-.913-2.879-3.613-5.139-6.748-5.142-1.319 0-2.719.404-4.093 1.329zm-48.817 13.384h22.911l-18.891-13.384c-4.364-2.845-9.271-1.18-11.043 3.541-1.501 5.404 2.248 9.843 7.023 9.843zm25.372 18.314h4.25c.977.062 2.709.927 2.709 2.977 0 2.144-1.797 3.009-2.771 3.107h-4.188v-6.084zm-.065-9.545h3.499c1.196.065 2.61.962 2.61 2.627 0 1.632-1.069 2.721-2.453 2.915h-3.656v-5.542zm-4.782-3.972v23.569h11.27c2.676 0 5.856-2.721 5.856-6.275 0-3.715-2.392-5.539-3.905-6.276 0 0 2.771-1.633 2.648-5.156-.126-4.74-4.442-5.862-5.921-5.862h-9.948zm-17.288 23.569v-13.575l14.609 14.471v-24.465h-4.909v13.228l-14.612-14.187v24.528h4.912zm35.203-12.04c.123 7.454 5.401 13.026 12.186 13.026 1.609 0 3.304-.309 5.036-.986v-4.802a8.341 8.341 0 01-4.397 1.261c-4.106 0-7.98-3.083-7.82-8.69.277-4.549 3.947-7.69 7.902-7.69 1.448 0 2.938.424 4.315 1.349v-4.674a12.4 12.4 0 00-4.738-.956c-6.768 0-12.354 5.793-12.484 12.162z"/></g><path d="M429.75 80H418l-2.375 13.5h11.125l.75-4.375s2.5-.375 2.25 1.75-3.875 22.25-3.875 22.25h11.25s2.875-16.375 3.75-21.5C442.5 82.5 438.375 80 429.75 80zm-4.875 38.25c-.625 2.25-2.875 1.875-2.875 1.875l.75-4.375h-11.125l-2.375 13.5h13c9.375 0 12.375-2.625 13.625-10.25.125-.5.5-3.25.5-3.25H425.25c.25 0 .25.25-.375 2.5zM410 97h-7.25l-.5 3h1.875L402 112.25h3.375l2.125-12.125h2L410 97z" fill="#fff"/><path d="M412.875 105.875h.875l-1.125 6.375H416l2.75-15.375h-3.375l-1 5.5-1 .125.875-5.5h-3.125l-2.75 15.375h3.25l1.25-6.5zM425 100l.5-3H420l-2.625 15.375H423l.5-3.125h-2.375l.625-3.375h2.125l.5-3h-2l.5-2.875H425zm40-1c.125-.125.125-.125 0 0zm-10.25-11c-12.375 0-13.875 13.875-14 14.5s-1.875 10.75-1.875 10.75h4.25l7.375-18.625s.75-.75 1.25-.75 1.125.875 1.125.875l-.625 20.875 2.625-5.5s.625-1 1.375-1 1.125 1 1.125 1l1 3.25h4.125s2.125-12.125 2.5-14c-.125.5 1.75-11.375-10.25-11.375z" fill="#fff"/><path d="M455.75 113.75l-3.75 7.875s-.125 1.25-1.375 1.25-1.25-1-1.25-1L450 102.5s-4.25 10.5-4.625 11.375-1.125 1.875-1.75 1.875h-5.25s-.375 2.875-.5 4.375c-.125 1.625-.875 9.75 9.5 9.75 10.25 0 13-8 13.625-9.875.5-1.75 1-4.375 1-4.375h-4.875c-1.125.125-1.375-1.875-1.375-1.875zm19-.5l2.5-14.25s.125-3.375 1.75-3.375c1.375 0 .5 3.375.5 3.375l-.625 3.5H489l.625-3.5s1.25-11-9.875-11-13.25 11.125-13.25 11.125L464 113.25h10.75zm1.625 6.875s-.75 2.125-1.75 2.125-.875-2.125-.875-2.125l.75-4.375-10.875-.125s-.5 3.75-.375 4.5c0 .75-1.125 9.75 9.25 9.75s12.875-8.375 13.25-9.75 1-4.375 1-4.375h-9.5l-.875 4.375z" fill="#fff"/><path d="M489.125 113.25h10.75l3-16.5h2.625l1.25-7h-2.625l1-6.25h-10.75l-1 6.25h-2.25l-1.25 7H492l-2.875 16.5zm9.75 6.375c.5-2.625.625-3.875.625-3.875h-10.875s-.625 3.5-1 5.75-.875 7.625 5.75 7.625h6.875L501.5 122h-2.25c.125 0-.875.5-.375-2.375zm4.125-6.5h4l6.625-16.75s.75-2.25 2-2.25 1 2.25 1 2.25l-.625 19.5s1.875-4.25 2.5-5.375 2.125-1.875 2.75 0c.25.75.75 2.75.75 2.75h4.5s1.875-10.875 2.5-14.25c.625-3.625-.75-10.875-10.375-10.875s-12.5 8.75-13.125 11c-.25 1.75-2.5 14-2.5 14z" fill="#fff"/><path d="M521.125 115.75c-1.125 0-1.5-1.625-1.5-1.625L516 121.75s-.375 1.5-1.625 1.5-1.125-1.375-1.125-1.375l.625-19s-3.125 7.625-4.125 10.375c-1 2.625-1.625 2.5-2.25 2.5h-4.75s-.375 1.25-.5 4.375c-.375 3.125 0 9.875 9.75 9.875s12.75-8.75 13.25-9.875c.375-1.125 1-4.375 1-4.375h-5.125zm26-13.25l2.625-14.625s-1.625.125-3.75 1.25c-2 1.125-3 3-3 3l.625-3.375h-10.75l-4.25 24.25H539.5s.25-1.375 1.125-6.25 6.5-4.25 6.5-4.25zm-21.375 26.75h10.75l2.375-13.5h-10.75l-2.375 13.5zm31.75-9.125s-.375 2-1.625 2c-1.375 0-1-2-1-2l.75-4.375H546s-.25.625-.625 4.375c-.5 3.75.25 9.75 10.125 9.75s11.75-8.125 12.25-9.75.75-4.375.75-4.375h-10l-1 4.375zm12-28.875c-1.375-1.625-3.875-3.125-8-3.125-4.375 0-7.25 1.375-9.375 3.25-2.5 2.25-3.625 7.75-3.625 7.75s-1 5.25 0 7.875c1 2.375 6.375 6.375 6.375 6.375h13.375s.25-2.375-1.5-4.625c-1.5-1.75-5-3.875-7.125-5.625-1.375-1.25-1.625-2.125-1.25-4 .25-1.125.25-3.25 1.875-3.25 1.375 0 .75 2.375.75 2.375l-.75 4.375h9.625l.625-3.375c-.125-.125 1.25-5.25-1-8z" fill="#fff"/><defs><clipPath id="clip0"><path fill="#fff" d="M0 0h78v50H0z"/></clipPath><clipPath id="clip1"><path fill="#fff" transform="translate(106.333)" d="M0 0h130v50H0z"/></clipPath><clipPath id="clip2"><path fill="#fff" transform="translate(264.667)" d="M0 0h118v50H0z"/></clipPath><clipPath id="clip3"><path fill="#fff" transform="translate(411)" d="M0 0h161v50H0z"/></clipPath><clipPath id="clip4"><path fill="#fff" transform="translate(197.333 70)" d="M0 0h70v70H0z"/></clipPath><clipPath id="clip5"><path fill="#fff" transform="translate(299.667 70)" d="M0 0h70v70H0z"/></clipPath></defs></svg>