<?xml version="1.0" encoding="iso-8859-1"?>
<!-- Generator: Adobe Illustrator 21.0.2, SVG Export Plug-In . SVG Version: 6.00 Build 0)  -->
<svg version="1.1" id="&#x421;&#x43B;&#x43E;&#x439;_1"
	 xmlns="http://www.w3.org/2000/svg" xmlns:xlink="http://www.w3.org/1999/xlink" x="0px" y="0px" viewBox="0 0 160 53.333"
	 style="enable-background:new 0 0 160 53.333;" xml:space="preserve">
<g>
	<rect x="65.207" y="2.443" style="fill:none;" width="89.603" height="25.518"/>
	<path style="fill:#FFFFFF;" d="M71.759,18.446c0.536,0,0.978-0.045,1.328-0.134c0.349-0.089,0.629-0.211,0.84-0.365
		c0.211-0.154,0.357-0.337,0.438-0.548c0.081-0.211,0.122-0.447,0.122-0.707c0-0.552-0.26-1.011-0.779-1.376
		c-0.52-0.365-1.413-0.759-2.679-1.181c-0.552-0.195-1.104-0.418-1.657-0.67c-0.552-0.251-1.047-0.568-1.486-0.95
		c-0.438-0.381-0.795-0.844-1.072-1.388C66.538,10.582,66.4,9.921,66.4,9.141c0-0.779,0.146-1.481,0.438-2.107
		c0.292-0.625,0.707-1.157,1.243-1.595C68.617,5,69.266,4.663,70.029,4.427c0.763-0.235,1.624-0.353,2.582-0.353
		c1.137,0,2.119,0.122,2.947,0.365c0.828,0.244,1.51,0.512,2.046,0.804L76.509,8.24c-0.471-0.244-0.995-0.459-1.571-0.646
		c-0.577-0.187-1.271-0.28-2.083-0.28c-0.91,0-1.563,0.126-1.961,0.377c-0.398,0.252-0.597,0.638-0.597,1.157
		c0,0.309,0.073,0.568,0.219,0.779c0.146,0.211,0.353,0.402,0.621,0.572c0.268,0.171,0.576,0.325,0.926,0.463
		c0.349,0.138,0.734,0.28,1.157,0.426c0.877,0.325,1.64,0.646,2.29,0.962c0.649,0.316,1.189,0.686,1.62,1.108
		c0.43,0.423,0.751,0.918,0.962,1.486c0.211,0.569,0.317,1.259,0.317,2.071c0,1.575-0.552,2.797-1.656,3.666
		c-1.104,0.869-2.769,1.303-4.994,1.303c-0.747,0-1.421-0.045-2.021-0.134c-0.601-0.089-1.133-0.199-1.596-0.329
		c-0.463-0.13-0.861-0.268-1.193-0.414c-0.333-0.146-0.613-0.284-0.84-0.415l1.072-3.02c0.503,0.276,1.124,0.523,1.863,0.743
		C69.782,18.336,70.687,18.446,71.759,18.446z"/>
	<path style="fill:#FFFFFF;" d="M92.656,21.344c-0.188-0.586-0.39-1.189-0.606-1.807c-0.216-0.618-0.432-1.234-0.646-1.847h-6.593
		c-0.213,0.616-0.427,1.233-0.641,1.852c-0.215,0.619-0.414,1.22-0.599,1.802h-3.946c0.635-1.818,1.238-3.499,1.808-5.042
		c0.569-1.542,1.127-2.996,1.673-4.36c0.546-1.364,1.083-2.659,1.613-3.885C85.25,6.831,85.8,5.633,86.37,4.464h3.602
		c0.555,1.169,1.102,2.367,1.64,3.593c0.538,1.227,1.081,2.521,1.628,3.885c0.546,1.364,1.104,2.818,1.676,4.36
		c0.571,1.543,1.175,3.224,1.811,5.042H92.656z M88.091,8.288c-0.085,0.245-0.209,0.579-0.372,1.001s-0.349,0.909-0.558,1.462
		s-0.442,1.162-0.699,1.827c-0.258,0.665-0.52,1.362-0.786,2.092h4.827c-0.258-0.732-0.509-1.431-0.75-2.098
		c-0.242-0.667-0.473-1.277-0.69-1.83s-0.409-1.041-0.573-1.462C88.324,8.859,88.191,8.528,88.091,8.288z"/>
	<path style="fill:#FFFFFF;" d="M106.519,7.387c-1.771,0-3.049,0.491-3.836,1.474c-0.788,0.982-1.182,2.326-1.182,4.031
		c0,0.828,0.098,1.579,0.292,2.253c0.195,0.674,0.487,1.254,0.877,1.742s0.877,0.865,1.462,1.133
		c0.584,0.268,1.267,0.402,2.046,0.402c0.422,0,0.783-0.008,1.084-0.024c0.3-0.016,0.563-0.049,0.791-0.098v-5.87h3.801v8.355
		c-0.455,0.179-1.186,0.369-2.192,0.572c-1.008,0.203-2.25,0.305-3.728,0.305c-1.267,0-2.415-0.195-3.446-0.585
		s-1.912-0.958-2.643-1.705c-0.731-0.747-1.295-1.664-1.693-2.752c-0.397-1.088-0.597-2.33-0.597-3.727
		c0-1.413,0.22-2.663,0.658-3.751c0.438-1.087,1.039-2.009,1.802-2.765c0.764-0.755,1.66-1.327,2.692-1.717
		c1.03-0.39,2.131-0.584,3.3-0.584c0.796,0,1.515,0.053,2.156,0.158c0.641,0.106,1.193,0.228,1.656,0.366s0.844,0.28,1.145,0.426
		c0.301,0.146,0.516,0.26,0.646,0.341l-1.096,3.045c-0.521-0.276-1.117-0.516-1.791-0.719
		C108.049,7.489,107.314,7.387,106.519,7.387z"/>
	<path style="fill:#FFFFFF;" d="M126.71,21.344c-0.188-0.586-0.39-1.189-0.606-1.807c-0.216-0.618-0.432-1.234-0.646-1.847h-6.593
		c-0.213,0.616-0.427,1.233-0.641,1.852c-0.215,0.619-0.414,1.22-0.599,1.802h-3.946c0.636-1.818,1.238-3.499,1.809-5.042
		c0.569-1.542,1.127-2.996,1.673-4.36c0.546-1.364,1.083-2.659,1.613-3.885c0.529-1.226,1.079-2.423,1.649-3.593h3.602
		c0.555,1.169,1.102,2.367,1.64,3.593c0.538,1.227,1.081,2.521,1.628,3.885c0.546,1.364,1.104,2.818,1.676,4.36
		c0.571,1.543,1.175,3.224,1.811,5.042H126.71z M122.145,8.288c-0.085,0.245-0.209,0.579-0.372,1.001s-0.349,0.909-0.558,1.462
		s-0.442,1.162-0.699,1.827c-0.258,0.665-0.52,1.362-0.786,2.092h4.827c-0.258-0.732-0.509-1.431-0.75-2.098
		c-0.242-0.667-0.473-1.277-0.69-1.83s-0.409-1.041-0.573-1.462C122.378,8.859,122.245,8.528,122.145,8.288z"/>
	<path style="fill:#FFFFFF;" d="M137.893,4.269c2.533,0,4.474,0.451,5.821,1.352s2.021,2.302,2.021,4.202
		c0,1.186-0.271,2.148-0.815,2.887c-0.545,0.739-1.328,1.319-2.351,1.741c0.341,0.423,0.698,0.906,1.071,1.45
		c0.374,0.544,0.743,1.112,1.108,1.705s0.719,1.209,1.06,1.851s0.658,1.271,0.95,1.888h-4.248c-0.31-0.552-0.624-1.112-0.941-1.681
		s-0.644-1.121-0.978-1.656c-0.334-0.536-0.665-1.043-0.99-1.522c-0.326-0.479-0.652-0.914-0.979-1.303h-1.875v6.163h-3.801V4.708
		c0.828-0.162,1.685-0.276,2.57-0.341C136.402,4.302,137.194,4.269,137.893,4.269z M138.111,7.509c-0.276,0-0.523,0.008-0.742,0.024
		c-0.22,0.016-0.427,0.033-0.621,0.049v4.579h1.071c1.429,0,2.452-0.178,3.069-0.536c0.617-0.357,0.926-0.966,0.926-1.827
		c0-0.828-0.313-1.417-0.938-1.766C140.251,7.684,139.329,7.509,138.111,7.509z"/>
</g>
<g>
	<rect x="65.207" y="28.831" style="fill:none;" width="92.793" height="23.488"/>
	<path style="fill:#FFFFFF;" d="M72.222,30.657c2.517,0,4.449,0.442,5.797,1.327c1.348,0.886,2.021,2.335,2.021,4.349
		c0,2.03-0.682,3.495-2.046,4.396s-3.313,1.352-5.846,1.352h-1.193v5.651h-3.8V31.095c0.828-0.162,1.705-0.275,2.63-0.341
		C70.711,30.69,71.523,30.657,72.222,30.657z M72.465,33.896c-0.276,0-0.548,0.009-0.816,0.024c-0.268,0.017-0.5,0.033-0.694,0.049
		v4.872h1.193c1.315,0,2.306-0.179,2.972-0.536c0.666-0.356,0.999-1.022,0.999-1.997c0-0.471-0.085-0.86-0.256-1.169
		s-0.414-0.557-0.731-0.743c-0.316-0.187-0.703-0.316-1.157-0.39C73.521,33.933,73.017,33.896,72.465,33.896z"/>
	<path style="fill:#FFFFFF;" d="M92.51,47.732c-0.188-0.587-0.389-1.189-0.605-1.807c-0.217-0.618-0.432-1.234-0.646-1.847h-6.592
		c-0.213,0.615-0.428,1.232-0.641,1.852c-0.215,0.618-0.414,1.22-0.6,1.802H79.48c0.635-1.818,1.238-3.499,1.809-5.042
		c0.568-1.543,1.127-2.996,1.672-4.36c0.547-1.364,1.084-2.659,1.613-3.885c0.529-1.227,1.08-2.424,1.65-3.593h3.602
		c0.555,1.169,1.102,2.366,1.639,3.593c0.539,1.226,1.082,2.521,1.629,3.885c0.545,1.364,1.104,2.817,1.676,4.36
		c0.57,1.543,1.174,3.224,1.811,5.042H92.51z M87.945,34.676c-0.086,0.245-0.209,0.578-0.373,1c-0.162,0.422-0.348,0.91-0.557,1.463
		s-0.443,1.162-0.699,1.827c-0.258,0.665-0.52,1.362-0.787,2.092h4.828c-0.258-0.732-0.51-1.432-0.75-2.099
		c-0.242-0.667-0.473-1.276-0.691-1.83c-0.217-0.553-0.408-1.04-0.572-1.462C88.178,35.246,88.045,34.916,87.945,34.676z"/>
	<path style="fill:#FFFFFF;" d="M109.271,30.852v3.239h-5.091v13.641h-3.8V34.091h-5.091v-3.239H109.271z"/>
	<path style="fill:#FFFFFF;" d="M111.706,30.852h3.801v16.88h-3.801V30.852z"/>
	<path style="fill:#FFFFFF;" d="M130.682,44.468v3.264h-11.278v-16.88h3.801v13.616H130.682z"/>
</g>
<line style="fill:#424071;stroke:#FFFFFF;stroke-width:3;stroke-miterlimit:10;" x1="55.348" y1="3.603" x2="55.348" y2="48.259"/>
<rect x="2.571" y="5.633" style="fill:none;stroke:#FFFFFF;stroke-width:4;stroke-miterlimit:10;" width="40.597" height="40.597"/>
<g>
	<rect x="8.371" y="14.622" style="fill:none;" width="89.603" height="25.518"/>
	<path style="fill:#FFFFFF;" d="M14.923,30.625c0.536,0,0.978-0.045,1.328-0.134c0.349-0.09,0.629-0.211,0.84-0.366
		c0.211-0.153,0.357-0.336,0.438-0.548c0.081-0.211,0.122-0.446,0.122-0.706c0-0.552-0.26-1.011-0.779-1.376
		c-0.52-0.365-1.413-0.759-2.679-1.181c-0.552-0.195-1.104-0.418-1.657-0.67c-0.552-0.251-1.047-0.568-1.486-0.95
		c-0.438-0.381-0.795-0.844-1.072-1.388c-0.276-0.544-0.414-1.206-0.414-1.985c0-0.779,0.146-1.481,0.438-2.107
		c0.292-0.625,0.707-1.157,1.243-1.595c0.536-0.438,1.185-0.775,1.948-1.011c0.763-0.235,1.624-0.353,2.582-0.353
		c1.137,0,2.119,0.122,2.947,0.365c0.828,0.244,1.51,0.512,2.046,0.804l-1.096,2.996c-0.471-0.244-0.995-0.459-1.571-0.646
		c-0.577-0.187-1.271-0.28-2.083-0.28c-0.91,0-1.563,0.126-1.961,0.377c-0.398,0.252-0.597,0.638-0.597,1.157
		c0,0.309,0.073,0.568,0.219,0.779c0.146,0.211,0.353,0.402,0.621,0.572c0.268,0.171,0.576,0.325,0.926,0.463
		c0.349,0.138,0.734,0.28,1.157,0.426c0.877,0.325,1.64,0.646,2.29,0.962c0.649,0.316,1.189,0.686,1.62,1.108
		c0.43,0.423,0.751,0.918,0.962,1.486c0.211,0.569,0.317,1.258,0.317,2.071c0,1.575-0.552,2.797-1.656,3.666
		c-1.104,0.869-2.769,1.303-4.994,1.303c-0.747,0-1.421-0.045-2.021-0.134c-0.601-0.09-1.133-0.199-1.596-0.329
		s-0.861-0.268-1.193-0.414c-0.333-0.146-0.613-0.283-0.84-0.414l1.072-3.021c0.503,0.276,1.124,0.524,1.863,0.743
		C12.946,30.515,13.851,30.625,14.923,30.625z"/>
	<path style="fill:#FFFFFF;" d="M29.562,16.448c2.517,0,4.449,0.443,5.797,1.328c1.348,0.885,2.021,2.334,2.021,4.348
		c0,2.03-0.682,3.495-2.046,4.396s-3.313,1.352-5.846,1.352h-1.193v5.651h-3.8V16.886c0.828-0.162,1.705-0.276,2.63-0.341
		C28.052,16.481,28.864,16.448,29.562,16.448z M29.806,19.688c-0.276,0-0.548,0.008-0.816,0.024c-0.268,0.016-0.5,0.033-0.694,0.049
		v4.872h1.193c1.315,0,2.306-0.179,2.972-0.536c0.666-0.357,0.999-1.023,0.999-1.997c0-0.471-0.085-0.861-0.256-1.169
		c-0.17-0.308-0.414-0.556-0.731-0.743c-0.316-0.187-0.703-0.317-1.157-0.39C30.861,19.724,30.357,19.688,29.806,19.688z"/>
</g>
<g>
</g>
<g>
</g>
<g>
</g>
<g>
</g>
<g>
</g>
<g>
</g>
<g>
</g>
<g>
</g>
<g>
</g>
<g>
</g>
<g>
</g>
<g>
</g>
<g>
</g>
<g>
</g>
<g>
</g>
</svg>
