<?xml version="1.0" encoding="iso-8859-1"?>
<!-- Generator: Adobe Illustrator 21.0.2, SVG Export Plug-In . SVG Version: 6.00 Build 0)  -->
<svg version="1.1" id="&#x421;&#x43B;&#x43E;&#x439;_1"
	 xmlns="http://www.w3.org/2000/svg" xmlns:xlink="http://www.w3.org/1999/xlink" x="0px" y="0px" viewBox="0 0 144 44"
	 style="enable-background:new 0 0 144 44;" xml:space="preserve">
<g>
	<rect x="79.234" y="2.89" style="fill:none;" width="70.766" height="20.252"/>
	<path style="fill:#FFFFFF;" d="M84.076,14.716c0.396,0,0.723-0.033,0.981-0.099c0.258-0.065,0.465-0.156,0.621-0.27
		c0.155-0.114,0.264-0.249,0.323-0.405c0.061-0.156,0.091-0.33,0.091-0.522c0-0.408-0.192-0.747-0.576-1.017
		c-0.385-0.27-1.044-0.561-1.98-0.873c-0.408-0.144-0.816-0.309-1.224-0.495c-0.408-0.186-0.774-0.419-1.098-0.702
		c-0.324-0.282-0.589-0.624-0.792-1.026c-0.205-0.402-0.307-0.891-0.307-1.467s0.108-1.095,0.324-1.557
		c0.216-0.461,0.521-0.855,0.918-1.179c0.396-0.324,0.876-0.573,1.44-0.747c0.563-0.174,1.199-0.261,1.907-0.261
		c0.84,0,1.566,0.09,2.179,0.27C87.496,4.546,88,4.745,88.396,4.96l-0.811,2.214c-0.348-0.18-0.734-0.339-1.16-0.477
		C85.999,6.56,85.486,6.49,84.887,6.49c-0.673,0-1.155,0.093-1.449,0.279s-0.441,0.471-0.441,0.855c0,0.228,0.055,0.42,0.162,0.576
		c0.108,0.156,0.261,0.297,0.459,0.423s0.426,0.24,0.685,0.342c0.258,0.102,0.542,0.207,0.854,0.315
		c0.648,0.24,1.212,0.477,1.692,0.711c0.479,0.234,0.879,0.507,1.196,0.819c0.318,0.312,0.556,0.678,0.712,1.098
		c0.155,0.42,0.233,0.93,0.233,1.53c0,1.164-0.408,2.067-1.224,2.709c-0.816,0.642-2.046,0.963-3.69,0.963
		c-0.552,0-1.05-0.033-1.494-0.099c-0.443-0.066-0.837-0.147-1.179-0.243c-0.342-0.096-0.636-0.198-0.882-0.306
		s-0.453-0.21-0.621-0.306l0.792-2.232c0.372,0.204,0.831,0.387,1.377,0.549C82.615,14.635,83.284,14.716,84.076,14.716z"/>
	<path style="fill:#FFFFFF;" d="M99.519,16.858c-0.139-0.434-0.288-0.878-0.447-1.335c-0.16-0.457-0.319-0.912-0.478-1.365h-4.872
		c-0.157,0.455-0.315,0.911-0.474,1.369c-0.158,0.457-0.306,0.901-0.442,1.332H89.89c0.47-1.344,0.915-2.586,1.336-3.726
		c0.422-1.14,0.834-2.214,1.237-3.222c0.403-1.008,0.8-1.964,1.191-2.871s0.798-1.791,1.219-2.655h2.662
		c0.409,0.864,0.813,1.749,1.211,2.655c0.398,0.906,0.799,1.863,1.203,2.871c0.403,1.008,0.816,2.083,1.238,3.222
		c0.422,1.14,0.868,2.382,1.339,3.726H99.519z M96.145,7.21C96.082,7.392,95.99,7.638,95.87,7.95
		c-0.121,0.312-0.258,0.672-0.412,1.081s-0.327,0.858-0.517,1.35c-0.19,0.491-0.385,1.006-0.581,1.545h3.567
		c-0.191-0.541-0.376-1.058-0.555-1.55s-0.35-0.944-0.51-1.353c-0.161-0.409-0.303-0.769-0.424-1.081
		C96.317,7.632,96.22,7.388,96.145,7.21z"/>
	<path style="fill:#FFFFFF;" d="M109.762,6.544c-1.309,0-2.254,0.363-2.835,1.089c-0.583,0.726-0.873,1.719-0.873,2.979
		c0,0.612,0.071,1.167,0.216,1.665c0.144,0.498,0.359,0.927,0.647,1.287s0.648,0.639,1.08,0.837
		c0.433,0.198,0.937,0.297,1.513,0.297c0.312,0,0.578-0.006,0.801-0.018c0.222-0.012,0.417-0.036,0.585-0.072v-4.338h2.808v6.174
		c-0.336,0.132-0.876,0.273-1.62,0.423s-1.662,0.225-2.754,0.225c-0.936,0-1.785-0.144-2.547-0.432
		c-0.762-0.288-1.413-0.708-1.953-1.26c-0.54-0.552-0.957-1.23-1.251-2.034c-0.294-0.804-0.44-1.722-0.44-2.754
		c0-1.044,0.161-1.968,0.485-2.772c0.324-0.804,0.769-1.485,1.332-2.043c0.564-0.558,1.227-0.981,1.989-1.269
		c0.762-0.288,1.575-0.432,2.439-0.432c0.587,0,1.118,0.039,1.593,0.117c0.474,0.078,0.882,0.168,1.224,0.27
		s0.624,0.207,0.846,0.315c0.223,0.108,0.381,0.192,0.478,0.252l-0.811,2.25c-0.384-0.204-0.825-0.381-1.322-0.531
		C110.893,6.62,110.349,6.544,109.762,6.544z"/>
	<path style="fill:#FFFFFF;" d="M124.682,16.858c-0.139-0.434-0.288-0.878-0.447-1.335c-0.16-0.457-0.319-0.912-0.478-1.365h-4.872
		c-0.157,0.455-0.315,0.911-0.474,1.369c-0.158,0.457-0.306,0.901-0.442,1.332h-2.916c0.47-1.344,0.915-2.586,1.336-3.726
		c0.422-1.14,0.834-2.214,1.237-3.222c0.403-1.008,0.8-1.964,1.191-2.871s0.798-1.791,1.219-2.655h2.662
		c0.409,0.864,0.813,1.749,1.211,2.655c0.398,0.906,0.799,1.863,1.203,2.871c0.403,1.008,0.816,2.083,1.238,3.222
		c0.422,1.14,0.868,2.382,1.339,3.726H124.682z M121.308,7.21c-0.063,0.181-0.154,0.428-0.274,0.739
		c-0.121,0.312-0.258,0.672-0.412,1.081s-0.327,0.858-0.517,1.35c-0.19,0.491-0.385,1.006-0.581,1.545h3.567
		c-0.191-0.541-0.376-1.058-0.555-1.55s-0.35-0.944-0.51-1.353c-0.161-0.409-0.303-0.769-0.424-1.081
		C121.48,7.632,121.383,7.388,121.308,7.21z"/>
	<path style="fill:#FFFFFF;" d="M132.944,4.24c1.872,0,3.306,0.333,4.303,0.999c0.995,0.666,1.493,1.701,1.493,3.105
		c0,0.876-0.201,1.587-0.603,2.133c-0.402,0.546-0.981,0.975-1.737,1.287c0.252,0.313,0.516,0.669,0.792,1.071
		c0.276,0.402,0.549,0.822,0.819,1.26c0.27,0.438,0.531,0.894,0.783,1.368s0.485,0.939,0.702,1.395h-3.14
		c-0.229-0.408-0.461-0.822-0.695-1.242c-0.235-0.42-0.476-0.828-0.723-1.224s-0.491-0.771-0.732-1.125
		c-0.24-0.354-0.481-0.675-0.723-0.963h-1.386v4.554h-2.808V4.564c0.611-0.12,1.244-0.204,1.898-0.252S132.429,4.24,132.944,4.24z
		 M133.106,6.634c-0.204,0-0.387,0.006-0.549,0.018c-0.162,0.012-0.315,0.024-0.459,0.036v3.384h0.792
		c1.056,0,1.812-0.132,2.268-0.396c0.456-0.264,0.685-0.714,0.685-1.35c0-0.612-0.231-1.046-0.693-1.305
		C134.688,6.764,134.007,6.634,133.106,6.634z"/>
</g>
<g>
	<rect x="79.234" y="24.874" style="fill:none;" width="68.848" height="18.641"/>
	<path style="fill:#FFFFFF;" d="M84.418,26.224c1.86,0,3.288,0.327,4.284,0.981s1.494,1.725,1.494,3.213
		c0,1.5-0.504,2.583-1.512,3.249s-2.448,0.999-4.32,0.999h-0.882v4.176h-2.808V26.548c0.611-0.12,1.26-0.204,1.943-0.252
		C83.303,26.248,83.902,26.224,84.418,26.224z M84.599,28.618c-0.204,0-0.405,0.006-0.604,0.018
		c-0.197,0.012-0.369,0.024-0.513,0.036v3.6h0.882c0.972,0,1.704-0.132,2.196-0.396s0.738-0.756,0.738-1.477
		c0-0.348-0.063-0.636-0.189-0.863c-0.126-0.229-0.306-0.411-0.54-0.55c-0.234-0.138-0.52-0.233-0.854-0.287
		C85.378,28.645,85.006,28.618,84.599,28.618z"/>
	<path style="fill:#FFFFFF;" d="M99.411,38.842c-0.139-0.434-0.288-0.879-0.447-1.335c-0.16-0.457-0.319-0.912-0.478-1.365h-4.872
		c-0.157,0.455-0.315,0.911-0.474,1.368c-0.158,0.458-0.306,0.901-0.442,1.332h-2.916c0.47-1.344,0.915-2.586,1.336-3.726
		c0.422-1.141,0.834-2.215,1.237-3.223s0.8-1.965,1.191-2.871c0.392-0.905,0.798-1.791,1.219-2.654h2.662
		c0.409,0.863,0.813,1.749,1.211,2.654c0.398,0.906,0.799,1.863,1.203,2.871c0.403,1.008,0.816,2.082,1.238,3.223
		c0.422,1.14,0.868,2.382,1.339,3.726H99.411z M96.037,29.193c-0.063,0.182-0.154,0.428-0.274,0.74
		c-0.121,0.312-0.258,0.672-0.412,1.08c-0.154,0.409-0.327,0.859-0.517,1.351c-0.19,0.491-0.385,1.007-0.581,1.546h3.567
		c-0.191-0.541-0.376-1.059-0.555-1.551c-0.179-0.493-0.35-0.943-0.51-1.353c-0.161-0.409-0.303-0.769-0.424-1.08
		C96.21,29.615,96.112,29.371,96.037,29.193z"/>
	<path style="fill:#FFFFFF;" d="M111.797,26.368v2.394h-3.763v10.08h-2.808v-10.08h-3.762v-2.394H111.797z"/>
	<path style="fill:#FFFFFF;" d="M113.597,26.368h2.808v12.474h-2.808V26.368z"/>
	<path style="fill:#FFFFFF;" d="M127.618,36.43v2.412h-8.334V26.368h2.808V36.43H127.618z"/>
</g>
<line style="fill:#FFFFFF;stroke:#FFFFFF;stroke-miterlimit:10;" x1="63.131" y1="2.338" x2="63.131" y2="41.5"/>
<rect x="5.74" y="3.946" style="fill:none;stroke:#FFFFFF;stroke-width:2.5;stroke-miterlimit:10;" width="39.568" height="34.773"/>
<g>
	<rect x="14.017" y="13.364" style="fill:none;" width="85.928" height="24.471"/>
	<path style="fill:#FFFFFF;" d="M19.176,25.965c0.422,0,0.771-0.035,1.045-0.105s0.496-0.166,0.662-0.288
		c0.166-0.121,0.281-0.265,0.345-0.432c0.064-0.166,0.096-0.352,0.096-0.556c0-0.435-0.205-0.796-0.614-1.084
		c-0.41-0.287-1.113-0.598-2.11-0.93c-0.435-0.153-0.87-0.329-1.304-0.527c-0.435-0.198-0.825-0.447-1.17-0.748
		c-0.345-0.3-0.627-0.665-0.844-1.093c-0.217-0.428-0.326-0.949-0.326-1.563s0.115-1.167,0.345-1.659
		c0.23-0.492,0.556-0.911,0.978-1.256s0.933-0.61,1.534-0.796c0.601-0.185,1.279-0.278,2.033-0.278c0.895,0,1.668,0.096,2.321,0.288
		c0.652,0.192,1.189,0.403,1.611,0.633l-0.863,2.359c-0.371-0.192-0.784-0.361-1.237-0.508c-0.454-0.147-1-0.221-1.64-0.221
		c-0.716,0-1.231,0.099-1.544,0.297c-0.313,0.198-0.47,0.502-0.47,0.911c0,0.243,0.058,0.447,0.173,0.613
		c0.115,0.167,0.278,0.317,0.489,0.451c0.211,0.134,0.454,0.256,0.729,0.364c0.275,0.109,0.579,0.221,0.911,0.335
		c0.69,0.256,1.292,0.508,1.803,0.758c0.511,0.249,0.937,0.54,1.275,0.873s0.591,0.723,0.758,1.17c0.166,0.448,0.25,0.991,0.25,1.63
		c0,1.241-0.435,2.203-1.304,2.887c-0.87,0.685-2.18,1.026-3.932,1.026c-0.588,0-1.119-0.035-1.592-0.105s-0.892-0.157-1.256-0.259
		c-0.364-0.103-0.678-0.211-0.94-0.326s-0.482-0.224-0.662-0.326l0.844-2.378c0.396,0.217,0.885,0.412,1.467,0.585
		C17.62,25.878,18.333,25.965,19.176,25.965z"/>
	<path style="fill:#FFFFFF;" d="M30.703,14.802c1.981,0,3.503,0.349,4.564,1.045c1.061,0.697,1.592,1.838,1.592,3.423
		c0,1.599-0.537,2.752-1.611,3.462s-2.608,1.065-4.603,1.065h-0.94v4.449h-2.992v-13.1c0.652-0.127,1.343-0.217,2.072-0.269
		C29.514,14.828,30.153,14.802,30.703,14.802z M30.895,17.353c-0.217,0-0.431,0.007-0.643,0.019
		c-0.211,0.013-0.393,0.026-0.546,0.039v3.836h0.94c1.036,0,1.815-0.141,2.34-0.422c0.524-0.281,0.786-0.806,0.786-1.573
		c0-0.371-0.067-0.678-0.201-0.921c-0.134-0.243-0.326-0.438-0.576-0.585c-0.249-0.146-0.553-0.249-0.911-0.307
		C31.726,17.382,31.329,17.353,30.895,17.353z"/>
</g>
<g>
</g>
<g>
</g>
<g>
</g>
<g>
</g>
<g>
</g>
<g>
</g>
<g>
</g>
<g>
</g>
<g>
</g>
<g>
</g>
<g>
</g>
<g>
</g>
<g>
</g>
<g>
</g>
<g>
</g>
</svg>
