<?xml version="1.0" encoding="utf-8"?>
<!-- Generator: Adobe Illustrator 17.0.0, SVG Export Plug-In . SVG Version: 6.00 Build 0)  -->
<!DOCTYPE svg PUBLIC "-//W3C//DTD SVG 1.1//EN" "http://www.w3.org/Graphics/SVG/1.1/DTD/svg11.dtd">
<svg version="1.1" id="Слой_1" xmlns="http://www.w3.org/2000/svg" xmlns:xlink="http://www.w3.org/1999/xlink" x="0px" y="0px"
	 width="1392.354px" height="446.474px" viewBox="17.171 498.406 1392.354 446.474"
	 enable-background="new 17.171 498.406 1392.354 446.474" xml:space="preserve">
<g>
	<rect x="578.866" y="498.406" fill="none" width="802.112" height="228.425"/>
	<path fill="#FFFFFF" d="M637.521,641.664c4.797,0,8.758-0.382,11.884-1.199c3.125-0.799,5.633-1.89,7.523-3.271
		s3.198-3.016,3.925-4.906c0.727-1.89,1.09-3.998,1.09-6.323c0-4.942-2.326-9.049-6.978-12.32s-12.647-6.796-23.985-10.575
		c-4.942-1.744-9.885-3.743-14.827-5.996c-4.942-2.253-9.376-5.088-13.301-8.504c-3.925-3.416-7.123-7.559-9.594-12.429
		c-2.471-4.87-3.707-10.793-3.707-17.771c0-6.978,1.308-13.246,3.925-18.861c2.617-5.615,6.323-10.357,11.121-14.282
		c4.797-3.925,10.612-6.941,17.444-9.049s14.537-3.162,23.113-3.162c10.176,0,18.97,1.09,26.384,3.271s13.519,4.579,18.316,7.196
		l-9.812,26.82c-4.216-2.18-8.904-4.107-14.064-5.778c-5.161-1.672-11.375-2.508-18.643-2.508c-8.141,0-13.991,1.127-17.553,3.38
		s-5.342,5.706-5.342,10.357c0,2.762,0.654,5.088,1.963,6.978c1.308,1.89,3.162,3.598,5.56,5.124
		c2.399,1.526,5.161,2.907,8.286,4.143c3.125,1.236,6.578,2.508,10.357,3.816c7.85,2.907,14.682,5.778,20.497,8.613
		c5.815,2.835,10.648,6.142,14.5,9.921s6.723,8.213,8.613,13.301c1.89,5.088,2.835,11.266,2.835,18.534
		c0,14.101-4.942,25.039-14.827,32.816c-9.885,7.777-24.785,11.666-44.7,11.666c-6.687,0-12.72-0.4-18.098-1.199
		c-5.378-0.799-10.139-1.781-14.282-2.944c-4.143-1.163-7.704-2.398-10.684-3.707s-5.488-2.544-7.523-3.707l9.594-27.038
		c4.506,2.471,10.067,4.688,16.681,6.65C619.823,640.683,627.927,641.664,637.521,641.664z"/>
	<path fill="#FFFFFF" d="M824.589,667.612c-1.69-5.251-3.489-10.648-5.415-16.172c-1.944-5.542-3.87-11.048-5.778-16.535h-59.019
		c-1.908,5.506-3.834,11.03-5.742,16.572c-1.908,5.542-3.689,10.921-5.36,16.136h-35.306c5.687-16.281,11.084-31.326,16.19-45.136
		c5.106-13.81,10.103-26.82,14.973-39.031c4.906-12.211,9.685-23.804,14.446-34.779c4.724-10.975,9.649-21.696,14.773-32.162h32.235
		c4.924,10.448,9.83,21.187,14.646,32.162c4.815,10.975,9.667,22.568,14.573,34.779c4.888,12.211,9.885,25.221,14.991,39.031
		c5.106,13.81,10.521,28.855,16.227,45.136H824.589z M783.723,550.738c-0.763,2.199-1.89,5.179-3.343,8.958
		c-1.454,3.78-3.125,8.141-4.979,13.101c-1.872,4.942-3.961,10.394-6.269,16.354s-4.652,12.193-7.032,18.716h43.21
		c-2.326-6.541-4.561-12.81-6.723-18.789c-2.162-5.978-4.216-11.429-6.178-16.372s-3.652-9.322-5.124-13.083
		C785.813,555.826,784.632,552.882,783.723,550.738z"/>
	<path fill="#FFFFFF" d="M948.678,542.67c-15.845,0-27.292,4.397-34.361,13.192c-7.05,8.795-10.575,20.824-10.575,36.087
		c0,7.414,0.89,14.137,2.635,20.17c1.744,6.033,4.361,11.23,7.85,15.591c3.489,4.361,7.85,7.741,13.101,10.139
		c5.215,2.399,11.32,3.598,18.316,3.598c3.78,0,7.014-0.073,9.685-0.218c2.689-0.145,5.051-0.436,7.105-0.872v-52.55h34.016v74.791
		c-4.07,1.599-10.612,3.307-19.624,5.124c-9.013,1.817-20.133,2.726-33.362,2.726c-11.339,0-21.623-1.744-30.854-5.233
		c-9.231-3.489-17.099-8.577-23.658-15.263c-6.542-6.687-11.593-14.9-15.154-24.64c-3.561-9.74-5.342-20.86-5.342-33.362
		c0-12.647,1.944-23.84,5.887-33.58c3.925-9.74,9.303-17.989,16.136-24.749c6.832-6.76,14.846-11.884,24.094-15.372
		c9.231-3.489,19.079-5.233,29.546-5.233c7.123,0,13.555,0.472,19.315,1.417c5.724,0.945,10.684,2.035,14.809,3.271
		c4.125,1.236,7.559,2.508,10.23,3.816c2.689,1.308,4.615,2.326,5.778,3.053l-9.812,27.256c-4.652-2.471-9.994-4.615-16.027-6.432
		S955.801,542.67,948.678,542.67z"/>
	<path fill="#FFFFFF" d="M1129.422,667.612c-1.708-5.251-3.489-10.648-5.433-16.172c-1.926-5.542-3.87-11.048-5.778-16.535h-59.019
		c-1.908,5.506-3.816,11.03-5.724,16.572c-1.908,5.542-3.707,10.921-5.36,16.136h-35.324c5.687-16.281,11.084-31.326,16.19-45.136
		c5.106-13.81,10.121-26.82,14.973-39.031c4.906-12.211,9.703-23.804,14.446-34.779s9.631-21.714,14.755-32.162h32.253
		c4.943,10.466,9.849,21.187,14.664,32.162c4.833,10.975,9.685,22.568,14.591,34.779c4.888,12.211,9.885,25.221,14.991,39.031
		c5.106,13.81,10.521,28.855,16.208,45.136H1129.422z M1088.538,550.738c-0.745,2.199-1.872,5.179-3.343,8.958
		c-1.454,3.78-3.125,8.141-4.961,13.101c-1.89,4.942-3.979,10.394-6.287,16.354c-2.308,5.96-4.652,12.193-7.032,18.716h43.228
		c-2.326-6.541-4.561-12.81-6.741-18.789c-2.162-5.978-4.216-11.429-6.178-16.372s-3.652-9.322-5.106-13.083
		C1090.628,555.826,1089.465,552.882,1088.538,550.738z"/>
	<path fill="#FFFFFF" d="M1229.507,514.76c22.677,0,40.067,4.034,52.132,12.102c12.047,8.068,18.08,20.606,18.08,37.613
		c0,10.612-2.435,19.225-7.286,25.839c-4.888,6.614-11.884,11.811-21.042,15.591c3.053,3.78,6.251,8.104,9.576,12.974
		c3.362,4.87,6.669,9.958,9.939,15.263c3.271,5.306,6.432,10.83,9.467,16.572c3.053,5.742,5.887,11.375,8.522,16.899h-38.05
		c-2.762-4.942-5.578-9.958-8.413-15.045c-2.853-5.088-5.778-10.03-8.758-14.827c-2.98-4.797-5.942-9.34-8.867-13.628
		c-2.907-4.288-5.815-8.177-8.74-11.666h-16.79v55.166h-34.016V518.685c7.414-1.454,15.082-2.471,23.004-3.053
		C1216.188,515.05,1223.256,514.76,1229.507,514.76z M1231.469,543.76c-2.471,0-4.688,0.073-6.65,0.218
		c-1.944,0.145-3.798,0.291-5.56,0.436v40.993h9.594c12.774,0,21.932-1.599,27.474-4.797c5.524-3.198,8.286-8.649,8.286-16.354
		c0-7.414-2.798-12.683-8.395-15.809C1250.621,545.323,1242.39,543.76,1231.469,543.76z"/>
</g>
<g>
	<rect x="578.866" y="734.626" fill="none" width="830.659" height="210.254"/>
	<path fill="#FFFFFF" d="M641.664,750.961c22.532,0,39.83,3.979,51.896,11.884c12.065,7.941,18.098,20.896,18.098,38.94
		c0,18.171-6.105,31.29-18.316,39.358c-12.211,8.05-29.655,12.102-52.332,12.102h-10.684v50.569H596.31V754.905
		c7.414-1.454,15.263-2.489,23.549-3.053C628.145,751.27,635.414,750.961,641.664,750.961z M643.845,779.98
		c-2.471,0-4.906,0.073-7.305,0.218c-2.399,0.164-4.47,0.309-6.214,0.436v43.61h10.684c11.775,0,20.642-1.599,26.602-4.815
		c5.96-3.198,8.94-9.158,8.94-17.862c0-4.216-0.763-7.704-2.289-10.466s-3.707-4.979-6.542-6.65
		c-2.835-1.69-6.287-2.835-10.357-3.489C653.294,780.307,648.787,779.98,643.845,779.98z"/>
	<path fill="#FFFFFF" d="M823.299,903.814c-1.708-5.251-3.489-10.648-5.433-16.172c-1.926-5.542-3.87-11.048-5.778-16.517h-59.019
		c-1.908,5.506-3.816,11.011-5.724,16.572c-1.908,5.542-3.707,10.902-5.36,16.117h-35.324c5.687-16.281,11.084-31.308,16.19-45.118
		c5.106-13.81,10.103-26.82,14.973-39.013c4.906-12.229,9.703-23.822,14.446-34.779c4.743-10.975,9.649-21.714,14.773-32.18h32.253
		c4.942,10.448,9.849,21.187,14.664,32.18c4.833,10.975,9.685,22.55,14.591,34.779c4.888,12.211,9.885,25.203,14.991,39.013
		c5.106,13.81,10.484,28.855,16.172,45.118H823.299z M782.415,786.958c-0.745,2.199-1.872,5.179-3.343,8.958
		c-1.454,3.779-3.125,8.141-4.961,13.101c-1.89,4.942-3.979,10.394-6.287,16.336c-2.308,5.96-4.652,12.211-7.032,18.734h43.228
		c-2.326-6.56-4.561-12.81-6.741-18.789c-2.162-5.978-4.216-11.429-6.178-16.372c-1.963-4.942-3.652-9.322-5.106-13.101
		C784.505,792.064,783.324,789.102,782.415,786.958z"/>
	<path fill="#FFFFFF" d="M973.299,752.724v29.001h-45.572v122.108h-33.997V781.725h-45.572v-29.001H973.299z"/>
	<path fill="#FFFFFF" d="M995.14,752.724h33.997v151.09H995.14V752.724z"/>
	<path fill="#FFFFFF" d="M1164.982,874.614v29.2h-100.975v-151.09h34.034v121.89H1164.982z"/>
</g>
<line fill="none" stroke="#FFFFFF" stroke-miterlimit="10" x1="490.611" y1="508.781" x2="490.611" y2="908.538"/>
<rect x="18.171" y="526.952" fill="none" stroke="#FFFFFF" stroke-width="2" stroke-miterlimit="10" width="363.415" height="363.415"/>
<g>
	<rect x="70.085" y="607.431" fill="none" width="802.112" height="228.425"/>
	<path fill="#FFFFFF" d="M128.74,750.689c4.797,0,8.758-0.382,11.884-1.199c3.125-0.781,5.633-1.89,7.523-3.271
		c1.89-1.381,3.198-3.016,3.925-4.906c0.727-1.89,1.09-4.016,1.09-6.323c0-4.942-2.326-9.067-6.978-12.338
		c-4.652-3.271-12.647-6.796-23.985-10.575c-4.942-1.744-9.885-3.743-14.827-5.996s-9.376-5.088-13.301-8.504
		c-3.925-3.416-7.123-7.559-9.594-12.429c-2.471-4.87-3.707-10.793-3.707-17.771s1.308-13.246,3.925-18.861
		c2.617-5.615,6.323-10.357,11.121-14.282c4.797-3.925,10.612-6.941,17.444-9.049c6.832-2.108,14.537-3.162,23.113-3.162
		c10.176,0,18.97,1.09,26.384,3.271c7.414,2.18,13.519,4.579,18.316,7.196l-9.812,26.82c-4.216-2.18-8.904-4.107-14.064-5.778
		c-5.161-1.654-11.375-2.489-18.643-2.489c-8.141,0-13.991,1.127-17.553,3.38c-3.561,2.253-5.342,5.706-5.342,10.357
		c0,2.762,0.654,5.088,1.962,6.978s3.162,3.598,5.56,5.124c2.399,1.526,5.16,2.907,8.286,4.143
		c3.125,1.236,6.578,2.508,10.357,3.816c7.85,2.907,14.682,5.778,20.497,8.613c5.815,2.835,10.648,6.142,14.5,9.921
		c3.852,3.78,6.723,8.213,8.613,13.301s2.835,11.266,2.835,18.534c0,14.082-4.942,25.039-14.827,32.816
		c-9.885,7.795-24.785,11.666-44.7,11.666c-6.687,0-12.72-0.382-18.098-1.181c-5.379-0.8-10.139-1.799-14.282-2.944
		c-4.143-1.145-7.704-2.398-10.684-3.707c-2.98-1.308-5.488-2.544-7.523-3.689l9.594-27.038c4.506,2.471,10.067,4.688,16.681,6.632
		C111.042,749.708,119.146,750.689,128.74,750.689z"/>
	<path fill="#FFFFFF" d="M259.787,623.784c22.532,0,39.83,3.961,51.896,11.884c12.065,7.922,18.098,20.896,18.098,38.922
		c0,18.171-6.105,31.29-18.316,39.358s-29.655,12.102-52.332,12.102h-10.684v50.587h-34.016V627.709
		c7.414-1.454,15.263-2.471,23.549-3.053C246.268,624.075,253.537,623.784,259.787,623.784z M261.968,652.785
		c-2.471,0-4.906,0.073-7.305,0.218c-2.399,0.145-4.47,0.291-6.214,0.436v43.61h10.684c11.775,0,20.642-1.599,26.602-4.797
		c5.96-3.198,8.94-9.158,8.94-17.88c0-4.216-0.763-7.704-2.29-10.466s-3.707-4.979-6.541-6.65
		c-2.835-1.672-6.287-2.835-10.357-3.489C271.417,653.112,266.892,652.785,261.968,652.785z"/>
</g>
</svg>
