<?xml version="1.0" encoding="iso-8859-1"?>
<!-- Generator: Adobe Illustrator 21.0.2, SVG Export Plug-In . SVG Version: 6.00 Build 0)  -->
<svg version="1.1" id="&#x421;&#x43B;&#x43E;&#x439;_1"
	 xmlns="http://www.w3.org/2000/svg" xmlns:xlink="http://www.w3.org/1999/xlink" x="0px" y="0px" viewBox="0 0 20 20"
	 style="enable-background:new 0 0 20 20;" xml:space="preserve">
<rect style="fill:none;stroke:#FFFFFF;stroke-width:2;stroke-miterlimit:10;" width="20" height="20"/>
<g>
	<rect x="2.857" y="4.429" style="fill:none;" width="17.143" height="12.571"/>
	<path style="fill:#FFFFFF;" d="M6.085,12.313c0.264,0,0.482-0.021,0.654-0.066c0.172-0.043,0.31-0.104,0.414-0.18
		s0.176-0.166,0.216-0.27c0.04-0.104,0.06-0.221,0.06-0.348c0-0.272-0.128-0.499-0.384-0.679c-0.256-0.18-0.696-0.374-1.32-0.582
		c-0.272-0.096-0.544-0.206-0.816-0.33s-0.516-0.28-0.732-0.468C3.961,9.203,3.785,8.975,3.649,8.707
		C3.513,8.439,3.445,8.113,3.445,7.729c0-0.384,0.072-0.729,0.216-1.038s0.348-0.57,0.612-0.786s0.584-0.382,0.96-0.498
		c0.376-0.116,0.8-0.174,1.272-0.174c0.56,0,1.044,0.06,1.452,0.18c0.408,0.12,0.744,0.252,1.008,0.396l-0.54,1.476
		c-0.232-0.12-0.49-0.226-0.774-0.318C7.367,6.875,7.025,6.829,6.625,6.829c-0.448,0-0.77,0.062-0.966,0.186
		c-0.196,0.124-0.294,0.314-0.294,0.57c0,0.152,0.036,0.28,0.108,0.384C5.545,8.073,5.647,8.167,5.779,8.25
		c0.132,0.084,0.284,0.16,0.456,0.228c0.172,0.068,0.362,0.138,0.57,0.21c0.432,0.16,0.808,0.318,1.128,0.474
		c0.32,0.156,0.586,0.338,0.798,0.546c0.212,0.208,0.37,0.452,0.474,0.732c0.104,0.28,0.156,0.62,0.156,1.02
		c0,0.775-0.272,1.378-0.816,1.806c-0.544,0.429-1.364,0.642-2.46,0.642c-0.368,0-0.7-0.021-0.996-0.065s-0.558-0.099-0.786-0.162
		s-0.424-0.132-0.588-0.204s-0.302-0.14-0.414-0.203l0.528-1.488c0.248,0.136,0.554,0.258,0.918,0.365
		C5.111,12.259,5.557,12.313,6.085,12.313z"/>
	<path style="fill:#FFFFFF;" d="M13.297,5.329c1.24,0,2.191,0.218,2.855,0.654s0.996,1.15,0.996,2.142c0,1-0.336,1.722-1.008,2.166
		c-0.672,0.444-1.632,0.666-2.88,0.666h-0.588v2.784h-1.872V5.545c0.408-0.08,0.84-0.136,1.296-0.168
		C12.553,5.345,12.953,5.329,13.297,5.329z M13.417,6.925c-0.136,0-0.271,0.004-0.402,0.012c-0.132,0.008-0.245,0.016-0.342,0.024
		v2.4h0.588c0.647,0,1.136-0.088,1.464-0.264c0.328-0.176,0.492-0.504,0.492-0.984c0-0.232-0.042-0.424-0.126-0.576
		c-0.084-0.152-0.204-0.274-0.36-0.366c-0.156-0.092-0.346-0.156-0.57-0.192C13.937,6.943,13.688,6.925,13.417,6.925z"/>
</g>
<g>
</g>
<g>
</g>
<g>
</g>
<g>
</g>
<g>
</g>
<g>
</g>
<g>
</g>
<g>
</g>
<g>
</g>
<g>
</g>
<g>
</g>
<g>
</g>
<g>
</g>
<g>
</g>
<g>
</g>
</svg>
