<svg version="1.1" id="Layer_1" xmlns="http://www.w3.org/2000/svg" x="0" y="0" viewBox="0 0 180 4.4" xml:space="preserve"><style>.st0{fill:#bababa}</style><path class="st0" d="M73.5 2.2s-7.4 1.4-9.8 1.7l-.4.4s-47.4-2-52.8-2C5.1 2.4 0 2.4 0 2.4v-.3h10.5c5.4 0 52.8-2 52.8-2l.4.4c2.5.2 9.8 1.6 9.8 1.7"/><path class="st0" d="M75.3 4.4c1.2 0 2.2-1 2.2-2.2S76.5 0 75.3 0c-1.2 0-2.2 1-2.2 2.2s1 2.2 2.2 2.2z"/><path class="st0" d="M90 3.7c-6.8 0-13-1.5-13-1.5 0-.1 6.5-1.6 13-1.6 6.4 0 13 1.5 13 1.6 0 0-6.2 1.5-13 1.5zm16.5-1.5s7.4 1.4 9.8 1.7l.4.4s47.4-2 52.8-2H180v-.2h-10.5c-5.4 0-52.8-2-52.8-2l-.4.4c-2.5.2-9.8 1.6-9.8 1.7"/><path class="st0" d="M104.7 4.4c-1.2 0-2.2-1-2.2-2.2s1-2.2 2.2-2.2 2.2 1 2.2 2.2-1 2.2-2.2 2.2z"/></svg>