<svg xmlns="http://www.w3.org/2000/svg" viewBox="0 0 501.4 92.7"><path d="M16.3 29.8l-9.5 6.9 3.6-11.2-9.5-6.9h11.8l3.6-11.2 3.6 11.2h11.8l-9.5 6.9 1.9 5.8c5.8-3.5 12.6-7.3 20-11.2l-4.7-3.4-5.4 3.9 2.1-6.4-5.4-3.9h6.7l2-6.3 2.1 6.4h6.7l-5.4 3.9 1.8 5.6c4.3-2.2 8.9-4.4 13.7-6.6l-2.6-1.9-4 2.9 1.5-4.7-4-2.9h4.9L55.6 2l1.5 4.7H62l-4 2.9 1 3.2C68 9 77.4 5.3 87.4 2.1H0v45.4s7.8-6.1 21-14.3l-4.7-3.4zM0 54.1v4.4s40.5-22.1 87.7-37.6v-9.2S39.9 27.6 0 54.1zm0 9.5V68s44.6-15.9 87.7-28.3v-8.4S43.7 42.8 0 63.6zm0 8.9v4.4s38.2-9.7 87.7-20v-7.5S38.8 60.3 0 72.5zm0 8.1v3s63.7-7.1 87.7-9.2v-7.5L0 80.6zm0 6.2v4.1h87.7v-7.8zm114.9-38.5l-3.9 9.8H95.3l21.8-56.6h16.1l21.3 56.6h-15.7l-3.7-9.8h-20.2zM125.2 19h-.2l-6.1 18h12.2l-5.9-18zm40.1-17.5h14.5l11.5 30.3 12.2-30.3h14.6l8.6 56.6H212l-4.1-32.6h-.2l-13.6 32.6h-5.9l-13-32.6h-.2l-4.7 32.6h-14.6l9.6-56.6zM244.6 14v9.5h16.6V36h-16.6v9.8h17.5v12.5h-32.2V1.5h32.2V14h-17.5zm70.7 44.1H297l-13.9-21.8h-.1v21.8h-14.7V1.5h22c11.2 0 19.7 5.3 19.7 17.4 0 7.8-4.4 14.6-12.4 16l17.7 23.2zm-32.4-31.2h1.4c4.8 0 10.2-.9 10.2-7.1s-5.4-7.1-10.2-7.1h-1.4v14.2zM334 58.1h-14.7V1.5H334v56.6zm47-37.6c-3-4.1-7.9-6.2-12.9-6.2-9 0-15.1 6.9-15.1 15.7 0 8.9 6.2 15.4 15.3 15.4 4.8 0 9.6-2.3 12.7-6V57c-4.9 1.5-8.4 2.6-13 2.6-7.9 0-15.4-3-21.2-8.3-6.2-5.6-9.1-13-9.1-21.4 0-7.7 2.9-15.2 8.3-20.7 5.6-5.7 13.6-9.2 21.6-9.2 4.7 0 9.1 1.1 13.4 2.9v17.6zm22 27.8l-3.9 9.8h-15.6l21.8-56.6h16.1l21.3 56.6H427l-3.7-9.8H403zM413.3 19h-.2L407 37h12.2l-5.9-18zm50.1-17.5l-13.8 24.9h-8.7l9.8-24.9h12.7zm29.8 14.6c-2.7-2.3-6.2-3.8-9.8-3.8-2.7 0-6.3 1.6-6.3 4.7 0 3.3 4 4.6 6.5 5.4l3.8 1.1c7.9 2.3 14 6.3 14 15.5 0 5.6-1.4 11.4-5.9 15.2-4.4 3.8-10.4 5.3-16.1 5.3-7.1 0-14.1-2.4-19.9-6.5l6.3-11.9c3.7 3.2 8 5.9 13.1 5.9 3.5 0 7.1-1.7 7.1-5.7 0-4.1-5.8-5.6-8.9-6.5-9.2-2.6-15.3-5-15.3-16 0-11.5 8.2-19 19.5-19C487-.2 494 1.6 499 4.5l-5.8 11.6zM112.5 78.6v-8.9h2.4v21.9h-2.4V80.9h-11.2v10.7h-2.4V69.7h2.4v8.9h11.2zm6.9-8.9h11.3V72h-8.9v6.5h8.6v2.3h-8.6v8.6h8.9v2.3h-11.3v-22zm18.8 15.7l-2.6 6.2h-2.7L143 68.7l9.8 22.9h-2.7l-2.6-6.2h-9.3zm4.7-11l-3.7 8.8h7.4l-3.7-8.8zm14.7 17.2h-2.4V69.7h3.2c4.1 0 8 1.1 8 6 0 3.4-2.1 5.7-5.5 6l7 9.8h-3l-6.6-9.6h-.6l-.1 9.7zm0-11.7h.8c2.8 0 5.5-.5 5.5-3.9 0-3.6-2.6-3.9-5.6-3.9h-.7v7.8zm18.5 11.7h-2.4V72h-5.3v-2.3h13.1V72h-5.3v19.6h-.1zm21.6-13v-8.9h2.4v21.9h-2.4V80.9h-11.2v10.7h-2.4V69.7h2.4v8.9h11.2zm28.2 9.9c-1.9 1.7-4.3 3.5-7 3.5-3.3 0-6.4-2.5-6.4-6 0-3.7 2.6-5.4 5.4-7.2l.3-.2c-1-1.4-2.2-2.8-2.2-4.6 0-2.8 2.1-4.6 4.8-4.6 2.5 0 4.6 1.7 4.6 4.3 0 2.6-2 4-3.9 5.5l4.6 5.9 2.5-2.9 1.8 1.5-2.8 3.2 3.7 4.8h-3.1l-2.3-3.2zm-7.4-7.4c-1.7 1.1-3.6 2.5-3.6 4.7 0 2.1 1.8 3.9 3.9 3.9 2.2 0 4.1-1.7 5.7-3.1l-4.9-6.3-1.1.8zm1.9-3.9c1.2-1 2.7-1.8 2.7-3.5 0-1.3-1.1-2.2-2.4-2.2-1.3 0-2.4 1-2.4 2.4 0 1.1.7 1.9 1.3 2.8l.5.7.3-.2zm24.7 14.4h-2.4V69.7h3.6c1.9 0 3.8.1 5.4 1.2 1.6 1.1 2.5 3 2.5 5 0 1.8-.7 3.6-2.1 4.7-1.5 1.2-3.4 1.5-5.2 1.5h-1.8v9.5zm0-11.8h1.6c2.7 0 5-.8 5-3.9 0-3.6-2.9-3.8-5.7-3.8h-.9v7.7zm13.1 5.6l-2.6 6.2h-2.7L263 68.7l9.8 22.9h-2.7l-2.6-6.2h-9.3zm4.8-11l-3.7 8.8h7.4l-3.7-8.8zm15.7 17.2h-2.4V72H271v-2.3h13.1V72h-5.3v19.6h-.1zm10.3 0h-2.4V69.7h2.4v21.9zm26.2-10.9c0 6.3-5.2 11.3-11.4 11.3s-11.4-5-11.4-11.3 5.2-11.3 11.4-11.3 11.4 5 11.4 11.3zm-20.4 0c0 4.9 4 9 9 9s9-4.1 9-9c0-5-3.9-9-9-9-5-.1-9 4-9 9zm39.2 5.4l7.1-17.5 7.1 17.5 5.7-16.4h2.6l-8.4 23-7.1-17.6-7 17.6-8.4-23h2.6l5.8 16.4zm25.4-.7l-2.6 6.2h-2.7l10.1-22.9 9.8 22.9h-2.7l-2.6-6.2h-9.3zm4.8-11l-3.7 8.8h7.4l-3.7-8.8zm14.7 17.2h-2.4V69.7h3.2c4.1 0 8 1.1 8 6 0 3.4-2.1 5.7-5.5 6l7 9.8h-3l-6.6-9.6h-.6v9.7h-.1zm0-11.7h.8c2.8 0 5.5-.5 5.5-3.9 0-3.6-2.6-3.9-5.6-3.9h-.7v7.8zm13.2-10.2h11.3V72h-8.9v6.5h8.6v2.3h-8.6v8.6h8.9v2.3h-11.3v-22zm29.3 8.9v-8.9h2.4v21.9h-2.4V80.9h-11.2v10.7h-2.4V69.7h2.4v8.9h11.2zm28.6 2.1c0 6.3-5.2 11.3-11.4 11.3s-11.4-5-11.4-11.3 5.2-11.3 11.4-11.3c6.3 0 11.4 5 11.4 11.3zm-20.3 0c0 4.9 4 9 9 9s9-4.1 9-9c0-5-3.9-9-9-9-5.1-.1-9 4-9 9zm26 2.1c0 1.6-.1 3.5 1 4.9 1 1.3 2.8 2.1 4.4 2.1s3.3-.7 4.3-1.9c1.2-1.4 1.1-3.3 1.1-5v-13h2.4v13.7c0 2.4-.2 4.3-1.9 6.1-1.5 1.6-3.7 2.5-5.9 2.5-2.1 0-4.2-.8-5.7-2.2-1.9-1.8-2.1-3.8-2.1-6.3v-14h2.4v13.1zm27.4-8.8c-.9-1.5-1.9-2.4-3.8-2.4s-3.6 1.4-3.6 3.4c0 1.9 1.9 2.8 3.4 3.4l1.5.6c2.8 1.2 5.2 2.7 5.2 6.1 0 3.8-3.1 6.8-6.9 6.8-3.5 0-6.1-2.3-6.8-5.7l2.4-.7c.3 2.2 2 4.1 4.4 4.1 2.3 0 4.5-1.8 4.5-4.3 0-2.6-2-3.4-4-4.4l-1.3-.6c-2.6-1.2-4.8-2.5-4.8-5.6 0-3.4 2.9-5.6 6.1-5.6 2.4 0 4.5 1.2 5.7 3.4l-2 1.5zm6.3-4.3h11.3V72h-8.9v6.5h8.6v2.3h-8.6v8.6h8.9v2.3h-11.3v-22z" fill="#e2e2e2"/></svg>