<svg xmlns="http://www.w3.org/2000/svg" viewBox="0 0 518.8 104"><path d="M62.1 0h92.7v7.9H62.1zm0 15.7h92.7v7.9H62.1zm0 16.2h92.7v7.9H62.1zm0 15.9h92.7v7.9H62.1zM.4 62.9h154.3v7.9H.4zm0 15.8h154.3v7.9H.4zM.4 95h154.3v7.9H.4z" fill="#d32027"/><path d="M0 0v55.7h62.5V0H0zm46 5.7l.7-1.6.8 1.5 1.7.2L48 7.1l.3 1.7-1.5-.8-1.5.9.3-1.7L44.3 6l1.7-.3zm0 10.8l.7-1.6.8 1.5 1.7.2-1.2 1.3.3 1.7-1.6-.8-1.5.9.3-1.7-1.3-1.2 1.8-.3zm0 10.8l.7-1.6.8 1.6 1.7.2-1.2 1.3.3 1.7-1.6-.8-1.5.9.3-1.7-1.3-1.2 1.8-.4zm0 10.8l.7-1.6.8 1.6 1.7.2-1.2 1.3.3 1.7-1.6-.8-1.5.9.3-1.7-1.3-1.2 1.8-.4zM35.9 5.7l.7-1.6.8 1.5 1.7.2L38 7.1l.3 1.7-1.6-.8-1.5.9.3-1.7L34.2 6l1.7-.3zm0 10.8l.7-1.6.8 1.5 1.7.2-1.1 1.3.3 1.7-1.6-.8-1.5.9.3-1.7-1.3-1.2 1.7-.3zm0 10.8l.7-1.6.8 1.6 1.7.2-1.1 1.2.3 1.7-1.6-.8-1.5.9.3-1.7-1.3-1.2 1.7-.3zm0 10.8l.7-1.6.8 1.6 1.7.2-1.1 1.3.3 1.7-1.6-.8-1.5.9.3-1.7-1.3-1.2 1.7-.4zM25.8 5.7l.7-1.6.8 1.5 1.7.2-1.2 1.3.3 1.7-1.4-.8-1.5.9.3-1.7L24.1 6l1.7-.3zm0 10.8l.7-1.6.8 1.5 1.7.2-1.2 1.3.3 1.7-1.6-.8-1.5.9.3-1.7-1.3-1.2 1.8-.3zm0 10.8l.7-1.6.8 1.6 1.7.2-1.2 1.3.3 1.7-1.6-.8-1.5.9.3-1.7-1.3-1.2 1.8-.4zm0 10.8l.7-1.6.8 1.6 1.7.2-1.2 1.3.3 1.7-1.6-.8-1.5.9.3-1.7-1.3-1.2 1.8-.4zM15.7 5.7l.7-1.6.8 1.5 1.8.3-1.2 1.3.3 1.7-1.5-.9-1.6.9.3-1.7L14 6l1.7-.3zm0 10.8l.7-1.6.8 1.5 1.8.2-1.2 1.3.3 1.7-1.6-.8-1.5.9.3-1.7-1.3-1.2 1.7-.3zm0 10.8l.7-1.6.8 1.6 1.8.2-1.2 1.3.3 1.7-1.6-.8-1.5.8.3-1.7-1.3-1.2 1.7-.3zm0 10.8l.7-1.6.8 1.6 1.8.2-1.2 1.3.3 1.7-1.6-.8-1.5.9.3-1.7-1.3-1.3 1.7-.3zM5.6 5.7l.7-1.6.8 1.5 1.8.2-1.2 1.3.3 1.7L6.5 8l-1.6.9.3-1.7L3.9 6l1.7-.3zm0 10.8l.7-1.6.8 1.5 1.8.2-1.2 1.3.3 1.7-1.6-.8-1.5.9.3-1.7-1.3-1.2 1.7-.3zm0 10.8l.7-1.6.8 1.6 1.8.2-1.2 1.3.3 1.7-1.6-.8-1.5.9.3-1.7-1.3-1.2 1.7-.4zm0 10.8l.7-1.6.8 1.6 1.8.2-1.2 1.3.3 1.7-1.6-.8-1.5.9.3-1.7-1.3-1.2 1.7-.4zm2.4 14l-1.6-.8-1.5.9.3-1.7-1.3-1.2 1.7-.3.7-1.6.8 1.6 1.8.2-1.2 1.3.3 1.6zm4.8-4.8l-1.6-.8-1.5.9.3-1.7-1.3-1.2 1.7-.3.7-1.6.8 1.6 1.7.2-1.2 1.3.4 1.6zm-.3-12.7l.3 1.7-1.6-.8-1.5.9.3-1.7-1.3-1.2 1.7-.3.7-1.6.8 1.6 1.7.2-1.1 1.2zm0-10.9l.3 1.7-1.6-.8-1.5.9.3-1.7-1.3-1.2 1.7-.3.7-1.6.8 1.5 1.7.2-1.1 1.3zm0-10.9l.3 1.7-1.6-.8-1.5.9.3-1.7-1.3-1.2 1.7-.3.7-1.6.8 1.6 1.7.2-1.1 1.2zm5.6 39.3l-1.6-.8-1.5.9.3-1.7-1.3-1.3 1.7-.3.7-1.6.8 1.6 1.8.2-1.2 1.3.3 1.7zm4.8-4.8l-1.6-.8-1.5.9.3-1.7-1.3-1.2 1.7-.3.7-1.6.8 1.6 1.7.2-1.2 1.3.4 1.6zm-.3-12.7l.3 1.7-1.6-.8-1.5.9.3-1.7-1.3-1.2 1.7-.3.7-1.6.8 1.6 1.7.2-1.1 1.2zm0-10.9l.3 1.7-1.6-.8-1.5.9.3-1.7-1.3-1.2 1.7-.3.7-1.6.8 1.5 1.7.2-1.1 1.3zm0-10.9l.3 1.7-1.6-.8-1.5.9.3-1.7-1.3-1.2 1.7-.3.7-1.6.8 1.6 1.7.2-1.1 1.2zm5.6 39.3l-1.6-.8-1.5.9.3-1.7-1.3-1.2 1.7-.3.7-1.6.8 1.6 1.7.2-1.2 1.3.4 1.6zm4.8-4.8l-1.6-.8-1.5.9.2-1.7-1.3-1.2 1.7-.3.7-1.6.8 1.6 1.7.2-1.2 1.3.5 1.6zm-.3-12.7l.3 1.7-1.6-.8-1.5.9.2-1.7-1.3-1.2 1.7-.3.7-1.6.8 1.6 1.7.2-1 1.2zm0-10.9l.3 1.7-1.6-.8-1.5.9.2-1.7-1.3-1.2 1.7-.3.7-1.6.8 1.5 1.7.2-1 1.3zm0-10.9l.3 1.7-1.6-.8-1.5.9.2-1.7-1.3-1.2 1.7-.3.7-1.6.8 1.6 1.7.2-1 1.2zm5.6 39.3l-1.6-.8-1.5.9.3-1.7-1.3-1.2 1.7-.3.7-1.6.8 1.6 1.7.2-1.1 1.2.3 1.7zm4.8-4.8l-1.6-.8-1.5.9.3-1.7-1.3-1.3 1.7-.3.7-1.6.8 1.6 1.7.2-1.2 1.3.4 1.7zm-.3-12.7l.3 1.7-1.6-.8-1.5.9.3-1.7-1.3-1.2 1.7-.3.7-1.6.8 1.6 1.7.2-1.1 1.2zm0-10.9l.3 1.7-1.6-.8-1.5.9.3-1.7-1.3-1.2 1.7-.3.7-1.6.8 1.5 1.7.2-1.1 1.3zm0-10.9l.3 1.7-1.6-.8-1.5.9.3-1.7-1.3-1.2 1.7-.3.7-1.6.8 1.6 1.7.2-1.1 1.2zm5.6 39.3l-1.6-.8-1.5.9.3-1.7-1.3-1.2L46 49l.7-1.6.8 1.6 1.7.2-1.2 1.3.4 1.6zm4.8-4.8l-1.6-.8-1.5.9.3-1.7-1.3-1.2 1.7-.3.7-1.6.8 1.6 1.7.2-1.2 1.3.4 1.6zm-.3-12.7l.3 1.7-1.6-.8-1.5.9.3-1.7-1.3-1.2 1.7-.3.7-1.6.8 1.6 1.7.2-1.1 1.2zm0-10.9l.3 1.7-1.6-.8-1.5.9.3-1.7-1.3-1.2 1.7-.3.7-1.6.8 1.5 1.7.2-1.1 1.3zm0-10.9l.3 1.7-1.6-.8-1.5.9.3-1.7-1.3-1.2 1.7-.3.7-1.6.8 1.6 1.7.2-1.1 1.2zm5.6 39.3l-1.6-.8-1.5.9.3-1.7-1.3-1.2 1.7-.3.7-1.6.8 1.6 1.7.2-1.2 1.3.4 1.6zm-.3-12.5l.3 1.7-1.6-.8-1.5.9.3-1.7-1.3-1.2 1.7-.3.7-1.6.8 1.6 1.7.2-1.1 1.2zm0-10.9l.3 1.7-1.6-.8-1.5.9.3-1.7-1.3-1.2 1.7-.3.7-1.6.8 1.6 1.7.2-1.1 1.2zm0-10.8l.3 1.7-1.6-.8-1.5.9.3-1.7-1.3-1.2 1.7-.3.7-1.6.8 1.5 1.7.2-1.1 1.3zm0-10.8l.3 1.7-1.6-.8-1.5.9.3-1.7L54.4 6l1.7-.3.7-1.6.8 1.5 1.7.2-1.1 1.3z" fill="#132147"/><path d="M201.5 74.8h3.7v28.4h-2.6V78.7h-.1l-11.2 24.6h-2.4l-11.1-24.6h-.1v24.6h-2.6V74.8h3.8l11.3 24.7 11.3-24.7zM228 94.6h-13.3l-3.4 8.6h-2.8L220 74.8h3l11.5 28.4h-3l-3.5-8.6zm-6.6-16.8l-5.6 14.1H227l-5.6-14.1zm16.2-3h12.3c7.4 0 11.2 5.3 11.2 14.2 0 8-3.7 14.2-10.8 14.2h-12.7V74.8zm2.6 25.7h9.6c4.5 0 8.5-2.8 8.5-11.5 0-7.5-2.6-11.5-8.5-11.5h-9.6v23zm25.7-25.7H286v2.7h-17.5v9.6h16.9v2.7h-16.9v10.7h17.8v2.7h-20.4V74.8zm38.3 0h2.6v28.4h-2.6V74.8zm8.6 0h3.2l17.7 24.3h.1V74.8h2.6v28.4h-3L315.5 79h-.1v24.3h-2.6V74.8zm47 2.7h-9.9v-2.7h22.5v2.7h-9.9v25.7h-2.6V77.5zm15.9-2.7h2.6v12h18.3v-12h2.6v28.4h-2.6V89.6h-18.3v13.7h-2.6V74.8zm29 0h20.1v2.7h-17.5v9.6h16.9v2.7h-16.9v10.7h17.8v2.7h-20.4V74.8zm60.7 17.5c0 5.2-1.3 11.7-11.3 11.7s-11.3-6.5-11.3-11.7V74.8h2.6v17.4c0 7.4 4.3 9 8.7 9 4.4 0 8.7-1.6 8.7-9V74.8h2.6v17.5zm22.4-9.4c-.4-4.9-3.9-6.1-7.9-6.1s-7.2 1.8-7.2 5c0 3.7 3.1 4.6 9.3 5.7 4.6.9 9.2 2.1 9.2 7.5 0 7-5.6 8.9-10.6 8.9-6.4 0-11.1-2.5-11.5-10.1h2.6c.5 6 4 7.4 8.9 7.4 3.8 0 7.7-1.2 7.7-5.7 0-4.3-4.6-4.9-9.2-5.7-6-1.1-9.3-3-9.3-7.6 0-6.2 5.1-8.2 10-8.2 5.2 0 10.4 2.1 10.6 8.8h-2.6zm24.6 11.7h-13.3l-3.4 8.6h-2.8l11.5-28.4h3l11.5 28.4h-3l-3.5-8.6zm-6.6-16.8l-5.6 14.1h11.2l-5.6-14.1z" fill="#231f20"/></svg>