<svg width="20" height="20" viewBox="0 0 20 20" fill="none" xmlns="http://www.w3.org/2000/svg">
<g clip-path="url(#clip0_1240_4659)">
<path d="M19.6652 10C19.6652 15.544 15.0018 19.9957 9.3825 19.6477C4.56784 19.3494 0.649171 15.4307 0.351171 10.616C0.00283766 4.99671 4.4545 0.333374 9.9985 0.333374C11.5212 0.333374 12.9628 0.684707 14.2452 1.31371C14.5888 1.48237 14.7148 1.91037 14.5252 2.24304L14.5238 2.24537C14.3485 2.55271 13.9658 2.66704 13.6485 2.51071C12.3758 1.88404 10.9208 1.57904 9.38517 1.68871C5.35184 1.97637 2.05784 5.21137 1.69884 9.23904C1.25217 14.252 5.2695 18.4597 10.2198 18.3304C14.4592 18.2197 17.9978 14.8577 18.3082 10.6284C18.3888 9.52971 18.2565 8.46604 17.9418 7.48537C17.8422 7.17437 17.9872 6.83871 18.2792 6.69271C18.6438 6.51037 19.0908 6.69271 19.2145 7.08104C19.5072 8.00137 19.6652 8.98204 19.6652 10Z" fill="#FF8271"/>
<path d="M19.2989 3.5833C18.1423 4.21664 17.0059 4.88997 15.9459 5.6833C14.1393 7.00997 12.4763 8.52664 10.9496 10.17C11.2163 10.55 11.5063 10.91 11.8163 11.2533C11.9129 11.3733 12.1263 11.5966 12.2429 11.6966C12.8096 12.29 13.4863 12.7566 14.1696 13.2033C14.6529 13.4733 14.8163 14.1 14.5129 14.5666C14.2296 15 13.6529 15.1266 13.2129 14.86C12.2729 14.3033 11.3863 13.65 10.6066 12.88C10.2466 12.51 9.90325 12.1233 9.58325 11.72C9.34325 12.01 9.10659 12.3 8.87325 12.5933C8.46325 13.1133 8.05325 13.6633 7.70325 14.18C6.81659 15.39 5.02692 14.11 5.90325 12.88C6.69325 11.88 7.52659 10.9166 8.40625 9.99664C7.60959 8.6433 7.02625 7.16331 6.68625 5.62331C6.44625 4.17331 8.55292 3.8033 8.81625 5.2533C9.04625 6.36331 9.42292 7.45331 9.93292 8.47997C11.5229 6.9833 13.2359 5.6233 15.0693 4.41664C16.2259 3.6433 17.4656 2.99664 18.7223 2.39664C19.0489 2.23997 19.4456 2.37997 19.6023 2.70664C19.7589 3.0333 19.6189 3.4233 19.2989 3.5833Z" fill="#DD4752"/>
</g>
<defs>
<clipPath id="clip0_1240_4659">
<rect width="20" height="20" fill="white"/>
</clipPath>
</defs>
</svg>
