<svg width="361" height="27" viewBox="0 0 361 27" fill="none" xmlns="http://www.w3.org/2000/svg">
<path d="M8.208 0.395999C11.52 0.395999 13.932 1.116 15.444 2.556C16.98 3.972 17.748 5.928 17.748 8.424C17.748 9.552 17.58 10.632 17.244 11.664C16.908 12.672 16.344 13.584 15.552 14.4C14.784 15.192 13.764 15.816 12.492 16.272C11.22 16.728 9.648 16.956 7.776 16.956H5.436V26.1H0V0.395999H8.208ZM7.92 4.86H5.436V12.492H7.236C8.268 12.492 9.156 12.36 9.9 12.096C10.644 11.832 11.22 11.412 11.628 10.836C12.036 10.26 12.24 9.516 12.24 8.604C12.24 7.332 11.892 6.396 11.196 5.796C10.5 5.172 9.408 4.86 7.92 4.86Z" fill="white"/>
<path d="M30.0935 0.395999C32.4215 0.395999 34.3415 0.683999 35.8535 1.26C37.3655 1.812 38.4935 2.664 39.2375 3.816C39.9815 4.944 40.3535 6.372 40.3535 8.1C40.3535 9.276 40.1255 10.308 39.6695 11.196C39.2375 12.06 38.6495 12.804 37.9055 13.428C37.1855 14.028 36.4055 14.52 35.5655 14.904L43.1255 26.1H37.0775L30.9575 16.236H28.0415V26.1H22.6055V0.395999H30.0935ZM29.6975 4.86H28.0415V11.808H29.8055C31.0055 11.808 31.9775 11.676 32.7215 11.412C33.4655 11.148 34.0055 10.752 34.3415 10.224C34.6775 9.672 34.8455 9.012 34.8455 8.244C34.8455 7.428 34.6535 6.78 34.2695 6.3C33.9095 5.796 33.3455 5.436 32.5775 5.22C31.8335 4.98 30.8735 4.86 29.6975 4.86Z" fill="white"/>
<path d="M69.6991 13.212C69.6991 15.204 69.4471 17.016 68.9431 18.648C68.4631 20.256 67.7191 21.648 66.7111 22.824C65.7271 24 64.4551 24.9 62.8951 25.524C61.3591 26.148 59.5471 26.46 57.4591 26.46C55.3711 26.46 53.5471 26.148 51.9871 25.524C50.4511 24.876 49.1791 23.976 48.1711 22.824C47.1871 21.648 46.4431 20.244 45.9391 18.612C45.4591 16.98 45.2191 15.168 45.2191 13.176C45.2191 10.512 45.6511 8.196 46.5151 6.228C47.4031 4.26 48.7471 2.736 50.5471 1.656C52.3711 0.552 54.6871 0 57.4951 0C60.2791 0 62.5711 0.552 64.3711 1.656C66.1711 2.736 67.5031 4.272 68.3671 6.264C69.2551 8.232 69.6991 10.548 69.6991 13.212ZM50.9431 13.212C50.9431 15.012 51.1711 16.56 51.6271 17.856C52.0831 19.152 52.7911 20.148 53.7511 20.844C54.7111 21.54 55.9471 21.888 57.4591 21.888C59.0191 21.888 60.2671 21.54 61.2031 20.844C62.1631 20.148 62.8591 19.152 63.2911 17.856C63.7471 16.56 63.9751 15.012 63.9751 13.212C63.9751 10.5 63.4711 8.376 62.4631 6.84C61.4551 5.304 59.7991 4.536 57.4951 4.536C55.9591 4.536 54.7111 4.884 53.7511 5.58C52.7911 6.276 52.0831 7.272 51.6271 8.568C51.1711 9.864 50.9431 11.412 50.9431 13.212Z" fill="white"/>
<path d="M96.3354 12.996C96.3354 15.876 95.7834 18.288 94.6794 20.232C93.5754 22.176 91.9674 23.64 89.8554 24.624C87.7674 25.608 85.2474 26.1 82.2954 26.1H75.0234V0.395999H83.0874C85.7754 0.395999 88.1034 0.875999 90.0714 1.836C92.0634 2.796 93.5994 4.212 94.6794 6.084C95.7834 7.932 96.3354 10.236 96.3354 12.996ZM90.6834 13.14C90.6834 11.244 90.4074 9.684 89.8554 8.46C89.3034 7.236 88.4754 6.336 87.3714 5.76C86.2914 5.16 84.9594 4.86 83.3754 4.86H80.4594V21.6H82.7994C85.4634 21.6 87.4434 20.892 88.7394 19.476C90.0354 18.06 90.6834 15.948 90.6834 13.14Z" fill="white"/>
<path d="M122.588 17.028C122.588 18.804 122.192 20.412 121.4 21.852C120.632 23.268 119.456 24.396 117.872 25.236C116.312 26.052 114.332 26.46 111.932 26.46C108.524 26.46 105.932 25.596 104.156 23.868C102.38 22.116 101.492 19.812 101.492 16.956V0.395999H106.928V16.128C106.928 18.24 107.36 19.728 108.224 20.592C109.088 21.456 110.372 21.888 112.076 21.888C113.276 21.888 114.248 21.684 114.992 21.276C115.736 20.868 116.276 20.232 116.612 19.368C116.972 18.504 117.152 17.412 117.152 16.092V0.395999H122.588V17.028Z" fill="white"/>
<path d="M149.547 26.1H143.355L136.623 15.264L134.319 16.92V26.1H128.883V0.395999H134.319V12.168C134.679 11.664 135.039 11.16 135.399 10.656C135.759 10.152 136.119 9.648 136.479 9.144L143.427 0.395999H149.475L140.511 11.772L149.547 26.1Z" fill="white"/>
<path d="M162.689 26.1H157.253V4.932H150.269V0.395999H169.673V4.932H162.689V26.1Z" fill="white"/>
<path d="M190.476 0.395999C192.804 0.395999 194.724 0.683999 196.236 1.26C197.748 1.812 198.876 2.664 199.62 3.816C200.364 4.944 200.736 6.372 200.736 8.1C200.736 9.276 200.508 10.308 200.052 11.196C199.62 12.06 199.032 12.804 198.288 13.428C197.568 14.028 196.788 14.52 195.948 14.904L203.508 26.1H197.46L191.34 16.236H188.424V26.1H182.988V0.395999H190.476ZM190.08 4.86H188.424V11.808H190.188C191.388 11.808 192.36 11.676 193.104 11.412C193.848 11.148 194.388 10.752 194.724 10.224C195.06 9.672 195.228 9.012 195.228 8.244C195.228 7.428 195.036 6.78 194.652 6.3C194.292 5.796 193.728 5.436 192.96 5.22C192.216 4.98 191.256 4.86 190.08 4.86Z" fill="white"/>
<path d="M222.486 26.1L220.614 19.98H211.254L209.382 26.1H203.514L212.586 0.288001H219.246L228.354 26.1H222.486ZM217.446 9.432C217.326 9.024 217.17 8.508 216.978 7.884C216.786 7.26 216.594 6.624 216.402 5.976C216.21 5.328 216.054 4.764 215.934 4.284C215.814 4.764 215.646 5.364 215.43 6.084C215.238 6.78 215.046 7.452 214.854 8.1C214.686 8.724 214.554 9.168 214.458 9.432L212.622 15.408H219.318L217.446 9.432Z" fill="white"/>
<path d="M238.978 26.1H233.542V4.932H226.558V0.395999H245.962V4.932H238.978V26.1Z" fill="white"/>
<path d="M258.979 11.664H269.167V24.984C267.823 25.44 266.419 25.8 264.955 26.064C263.515 26.328 261.871 26.46 260.023 26.46C257.479 26.46 255.307 25.956 253.507 24.948C251.731 23.94 250.375 22.452 249.439 20.484C248.527 18.516 248.071 16.092 248.071 13.212C248.071 10.524 248.587 8.196 249.619 6.228C250.675 4.26 252.199 2.736 254.191 1.656C256.183 0.576 258.619 0.0359995 261.499 0.0359995C262.867 0.0359995 264.211 0.18 265.531 0.468C266.851 0.756 268.051 1.14 269.131 1.62L267.331 5.976C266.539 5.568 265.639 5.232 264.631 4.968C263.623 4.704 262.567 4.572 261.463 4.572C259.879 4.572 258.499 4.932 257.323 5.652C256.171 6.372 255.271 7.392 254.623 8.712C253.999 10.008 253.687 11.544 253.687 13.32C253.687 15 253.915 16.488 254.371 17.784C254.827 19.08 255.547 20.1 256.531 20.844C257.515 21.564 258.799 21.924 260.383 21.924C260.911 21.924 261.367 21.912 261.751 21.888C262.159 21.84 262.531 21.792 262.867 21.744C263.203 21.672 263.527 21.612 263.839 21.564V16.2H258.979V11.664Z" fill="white"/>
<path d="M290.069 26.1H275.273V0.395999H290.069V4.86H280.709V10.512H289.421V14.976H280.709V21.6H290.069V26.1Z" fill="white"/>
<path d="M303.41 0.395999C305.69 0.395999 307.598 0.611999 309.134 1.044C310.694 1.452 311.858 2.136 312.626 3.096C313.418 4.032 313.814 5.304 313.814 6.912C313.814 7.872 313.658 8.748 313.346 9.54C313.034 10.332 312.578 10.98 311.978 11.484C311.402 11.988 310.694 12.312 309.854 12.456V12.636C310.718 12.804 311.498 13.104 312.194 13.536C312.89 13.968 313.442 14.592 313.85 15.408C314.258 16.224 314.462 17.304 314.462 18.648C314.462 20.208 314.078 21.552 313.31 22.68C312.566 23.784 311.486 24.636 310.07 25.236C308.654 25.812 306.974 26.1 305.03 26.1H295.418V0.395999H303.41ZM304.022 10.584C305.606 10.584 306.698 10.332 307.298 9.828C307.922 9.324 308.234 8.592 308.234 7.632C308.234 6.648 307.874 5.94 307.154 5.508C306.434 5.076 305.294 4.86 303.734 4.86H300.854V10.584H304.022ZM300.854 14.904V21.6H304.418C306.05 21.6 307.19 21.288 307.838 20.664C308.486 20.016 308.81 19.164 308.81 18.108C308.81 17.46 308.666 16.896 308.378 16.416C308.114 15.936 307.646 15.564 306.974 15.3C306.302 15.036 305.39 14.904 304.238 14.904H300.854Z" fill="white"/>
<path d="M334.401 26.1H319.605V0.395999H334.401V4.86H325.041V10.512H333.753V14.976H325.041V21.6H334.401V26.1Z" fill="white"/>
<path d="M347.238 0.395999C349.566 0.395999 351.486 0.683999 352.998 1.26C354.51 1.812 355.638 2.664 356.382 3.816C357.126 4.944 357.498 6.372 357.498 8.1C357.498 9.276 357.27 10.308 356.814 11.196C356.382 12.06 355.794 12.804 355.05 13.428C354.33 14.028 353.55 14.52 352.71 14.904L360.27 26.1H354.222L348.102 16.236H345.186V26.1H339.75V0.395999H347.238ZM346.842 4.86H345.186V11.808H346.95C348.15 11.808 349.122 11.676 349.866 11.412C350.61 11.148 351.15 10.752 351.486 10.224C351.822 9.672 351.99 9.012 351.99 8.244C351.99 7.428 351.798 6.78 351.414 6.3C351.054 5.796 350.49 5.436 349.722 5.22C348.978 4.98 348.018 4.86 346.842 4.86Z" fill="white"/>
</svg>
