<svg width="197" height="197" viewBox="0 0 197 197" fill="none" xmlns="http://www.w3.org/2000/svg">
<g clip-path="url(#clip0_1240_4749)">
<path d="M2.01904e-05 173.315L1.95165e-05 181.023L15.9766 197L15.6641 157.651L2.01904e-05 173.315Z" fill="#598822"/>
<path d="M173.315 4.66127e-06L181.023 5.33516e-06L197 15.9766L157.651 15.6641L173.315 4.66127e-06Z" fill="#598822"/>
<path d="M0.00131226 173.315L72.4597 100.857L173.316 6.29987e-05L120.23 5.83577e-05L45.918 74.3125L0.0013169 120.229L0.00131226 173.315Z" fill="#85CB33"/>
<path d="M21.1462 117.665C21.9353 116.876 22.6735 116.29 23.3608 115.908C24.0397 115.518 24.6761 115.357 25.27 115.425C25.8725 115.484 26.4537 115.794 27.0138 116.354C27.3617 116.702 27.6162 117.075 27.7774 117.474C27.9387 117.873 27.9938 118.276 27.9429 118.683C27.9005 119.082 27.7435 119.476 27.472 119.867L27.5356 119.93C27.9344 119.65 28.3459 119.459 28.7702 119.357C29.1945 119.239 29.6315 119.251 30.0812 119.396C30.5309 119.523 30.9934 119.824 31.4685 120.299C32.0201 120.851 32.3595 121.453 32.4868 122.107C32.614 122.76 32.5334 123.435 32.2449 124.13C31.9649 124.818 31.4897 125.497 30.8194 126.167L27.4974 129.489L18.4097 120.401L21.1462 117.665ZM25.0664 121.152C25.7113 120.507 26.0507 119.964 26.0846 119.523C26.127 119.073 25.9489 118.649 25.55 118.25C25.1428 117.843 24.7058 117.694 24.2391 117.805C23.7724 117.915 23.2208 118.288 22.5844 118.925L21.388 120.121L23.7427 122.476L25.0664 121.152ZM25.0537 123.787L27.7647 126.498L29.2411 125.021C29.903 124.36 30.2339 123.774 30.2339 123.265C30.2424 122.747 30.0345 122.276 29.6103 121.852C29.3387 121.581 29.0502 121.402 28.7448 121.318C28.4393 121.233 28.0999 121.275 27.7265 121.445C27.3447 121.606 26.9204 121.92 26.4537 122.387L25.0537 123.787ZM41.1171 115.869L35.9496 121.037L26.8618 111.949L32.0294 106.781L33.3912 108.143L29.8529 111.682L32.1694 113.998L35.4786 110.689L36.8405 112.051L33.5313 115.36L36.2041 118.033L39.7425 114.495L41.1171 115.869ZM45.847 106.175C46.3816 106.71 46.7125 107.304 46.8398 107.957C46.9671 108.611 46.8865 109.294 46.598 110.007C46.3179 110.711 45.8343 111.407 45.147 112.094C44.816 112.425 44.4766 112.722 44.1287 112.985C43.7978 113.248 43.4584 113.477 43.1105 113.672C42.7711 113.859 42.4317 114.012 42.0923 114.13L40.5649 112.603C41.1165 112.391 41.6935 112.128 42.2959 111.814C42.8899 111.491 43.4245 111.093 43.8996 110.617C44.2645 110.253 44.5148 109.909 44.6506 109.587C44.7863 109.247 44.8245 108.937 44.7651 108.657C44.6973 108.369 44.5488 108.11 44.3197 107.881C44.0651 107.626 43.7766 107.482 43.4542 107.448C43.1317 107.414 42.7541 107.461 42.3214 107.588C41.8886 107.716 41.3795 107.902 40.794 108.148C40.3952 108.309 39.9879 108.454 39.5721 108.581C39.1564 108.691 38.7363 108.746 38.3121 108.746C37.8878 108.746 37.4678 108.666 37.052 108.505C36.6362 108.343 36.2332 108.068 35.8429 107.677C35.3253 107.16 35.0028 106.591 34.8755 105.972C34.7567 105.344 34.8246 104.707 35.0792 104.063C35.3422 103.409 35.775 102.781 36.3774 102.179C36.8611 101.695 37.366 101.292 37.8921 100.97C38.4181 100.647 38.9824 100.371 39.5849 100.142L40.374 101.975C39.8394 102.187 39.3515 102.421 38.9103 102.675C38.4691 102.93 38.066 103.24 37.7011 103.604C37.4126 103.893 37.2132 104.186 37.1029 104.483C36.9841 104.771 36.9544 105.047 37.0138 105.31C37.0732 105.573 37.209 105.811 37.4211 106.023C37.6672 106.269 37.9387 106.413 38.2357 106.455C38.5327 106.498 38.8891 106.464 39.3049 106.354C39.7206 106.226 40.234 106.044 40.8449 105.806C41.5492 105.526 42.1856 105.331 42.7541 105.221C43.3226 105.111 43.8615 105.123 44.3706 105.259C44.8797 105.395 45.3718 105.7 45.847 106.175ZM53.3031 103.683L51.6739 105.312L43.9608 97.5993L41.3516 100.209L39.9769 98.8339L46.8246 91.9863L48.1992 93.3609L45.59 95.9701L53.3031 103.683ZM54.1059 84.7049C54.9036 83.9073 55.6587 83.3473 56.3715 83.0248C57.0843 82.7024 57.7673 82.6133 58.4207 82.7575C59.0656 82.8933 59.6893 83.2624 60.2917 83.8649C60.7329 84.3061 61.0257 84.7686 61.1699 85.2522C61.3227 85.7274 61.3736 86.2026 61.3227 86.6777C61.2633 87.1444 61.1445 87.5941 60.9663 88.0269L67.5721 89.4142L65.7393 91.2471L59.9735 89.8343L58.6498 91.158L62.2391 94.7472L60.6099 96.3764L51.5222 87.2887L54.1059 84.7049ZM55.366 86.1686L54.5132 87.0214L57.3134 89.8215L58.2171 88.9179C58.6668 88.4681 58.9765 88.0481 59.1462 87.6578C59.3159 87.2675 59.3583 86.9026 59.2735 86.5632C59.1971 86.2153 59.0019 85.8844 58.688 85.5704C58.3571 85.2395 58.0219 85.0486 57.6825 84.9977C57.3346 84.9383 56.974 85.0104 56.6006 85.214C56.2273 85.4007 55.8157 85.7189 55.366 86.1686ZM74.4513 82.535L71.2184 80.9567L67.7946 84.3805L69.3856 87.6007L67.6546 89.3317L61.8634 76.8711L63.7217 75.0128L76.1823 80.804L74.4513 82.535ZM66.2673 78.4239C66.1145 78.339 65.9024 78.2287 65.6309 78.093C65.3593 77.9572 65.0836 77.8172 64.8036 77.6729C64.5235 77.5117 64.2944 77.3759 64.1162 77.2656C64.2435 77.4778 64.3835 77.7281 64.5363 78.0166C64.6975 78.2966 64.846 78.5639 64.9817 78.8184C65.126 79.0645 65.2321 79.2554 65.2999 79.3912L66.84 82.535L69.3983 79.9767L66.2673 78.4239ZM79.7409 77.2455L78.1117 78.8746L70.3986 71.1615L67.7893 73.7707L66.4147 72.3961L73.2624 65.5485L74.637 66.9231L72.0277 69.5323L79.7409 77.2455ZM88.9089 68.0774L83.7414 73.2449L74.6537 64.1572L79.8212 58.9896L81.1831 60.3515L77.6447 63.8899L79.9612 66.2064L83.2705 62.8971L84.6324 64.259L81.3231 67.5683L83.996 70.2411L87.5343 66.7028L88.9089 68.0774ZM93.6389 54.0815C94.6571 55.0998 95.3147 56.1477 95.6117 57.2253C95.9172 58.2945 95.879 59.3679 95.4971 60.4455C95.1238 61.5146 94.4238 62.5626 93.397 63.5893L90.8387 66.1476L81.751 57.0599L84.5766 54.2343C85.5184 53.2924 86.5027 52.6475 87.5295 52.2996C88.5562 51.9517 89.5871 51.922 90.6223 52.2105C91.6575 52.4821 92.6631 53.1057 93.6389 54.0815ZM91.9842 55.838C91.263 55.1167 90.5587 54.6331 89.8714 54.387C89.1841 54.1409 88.5138 54.124 87.8604 54.3361C87.1985 54.5397 86.5537 54.9555 85.9257 55.5834L84.7293 56.7799L91.106 63.1565L92.0861 62.1765C93.1382 61.1243 93.6516 60.0764 93.6261 59.0327C93.6007 57.972 93.0534 56.9071 91.9842 55.838ZM109.104 47.8818L102.881 54.1058L101.697 52.9221L101.671 48.2637C101.663 47.3388 101.637 46.5666 101.595 45.9472C101.553 45.3108 101.455 44.7805 101.302 44.3562C101.158 43.9235 100.916 43.5374 100.577 43.198C100.161 42.7822 99.7325 42.5913 99.2913 42.6252C98.8415 42.6507 98.4215 42.8586 98.0312 43.2489C97.6493 43.6307 97.3736 44.0677 97.2039 44.5599C97.0257 45.0435 96.9026 45.6078 96.8348 46.2527L94.9001 46.0745C94.9341 45.5993 95.0062 45.1284 95.1165 44.6617C95.2183 44.1865 95.3965 43.7113 95.6511 43.2361C95.9056 42.761 96.2747 42.2816 96.7584 41.7979C97.3439 41.2124 97.9506 40.8178 98.5785 40.6142C99.2064 40.3936 99.8173 40.3512 100.411 40.4869C101.005 40.6227 101.544 40.9324 102.028 41.4161C102.401 41.7894 102.694 42.1925 102.906 42.6252C103.11 43.0495 103.258 43.5204 103.351 44.038C103.445 44.5556 103.496 45.1241 103.504 45.7435C103.513 46.363 103.508 47.046 103.491 47.7927L103.441 50.6183L103.517 50.6947L107.717 46.4945L109.104 47.8818ZM111.806 36.0669C112.544 36.8052 113.147 37.5179 113.614 38.2052C114.08 38.8925 114.39 39.5671 114.543 40.229C114.695 40.8739 114.678 41.5018 114.492 42.1127C114.314 42.7152 113.94 43.3007 113.372 43.8692C112.659 44.5819 111.887 44.9807 111.055 45.0656C110.224 45.1504 109.35 44.9553 108.433 44.4801C107.508 43.9964 106.558 43.2667 105.582 42.2909C104.606 41.3151 103.872 40.3775 103.38 39.478C102.888 38.5786 102.68 37.7173 102.757 36.8943C102.841 36.0627 103.262 35.2693 104.017 34.5141C104.729 33.8014 105.502 33.4026 106.333 33.3177C107.156 33.2244 108.03 33.4195 108.955 33.9032C109.88 34.3699 110.83 35.0911 111.806 36.0669ZM107.211 40.6872C107.95 41.4254 108.616 41.9982 109.21 42.4055C109.795 42.8043 110.321 43.0249 110.788 43.0673C111.255 43.0928 111.675 42.9188 112.048 42.5455C112.421 42.1721 112.591 41.7563 112.557 41.2981C112.532 40.8314 112.315 40.3011 111.908 39.7071C111.509 39.1047 110.941 38.4343 110.202 37.6961C109.456 36.9494 108.785 36.3809 108.191 35.9906C107.597 35.5833 107.067 35.3669 106.6 35.3415C106.134 35.299 105.714 35.4645 105.34 35.8378C104.967 36.2112 104.797 36.6355 104.831 37.1106C104.865 37.5688 105.082 38.0907 105.48 38.6762C105.879 39.2617 106.456 39.932 107.211 40.6872ZM123.672 33.3143L117.448 39.5383L116.264 38.3546L116.239 33.6962C116.23 32.7713 116.205 31.9991 116.163 31.3797C116.12 30.7433 116.023 30.213 115.87 29.7887C115.726 29.356 115.484 28.9699 115.144 28.6305C114.728 28.2147 114.3 28.0238 113.859 28.0577C113.409 28.0832 112.989 28.291 112.599 28.6814C112.217 29.0632 111.941 29.5002 111.771 29.9923C111.593 30.476 111.47 31.0403 111.402 31.6852L109.468 31.507C109.502 31.0318 109.574 30.5609 109.684 30.0942C109.786 29.619 109.964 29.1438 110.219 28.6686C110.473 28.1935 110.842 27.7141 111.326 27.2304C111.911 26.6449 112.518 26.2503 113.146 26.0467C113.774 25.8261 114.385 25.7836 114.979 25.9194C115.573 26.0552 116.112 26.3649 116.595 26.8486C116.969 27.2219 117.261 27.625 117.473 28.0577C117.677 28.482 117.826 28.9529 117.919 29.4705C118.012 29.9881 118.063 30.5566 118.072 31.176C118.08 31.7955 118.076 32.4785 118.059 33.2252L118.008 36.0508L118.084 36.1272L122.285 31.927L123.672 33.3143ZM122.173 23.3832C122.75 22.8062 123.366 22.4031 124.019 22.174C124.672 21.9449 125.326 21.911 125.979 22.0722C126.632 22.2164 127.252 22.5813 127.837 23.1668C128.482 23.8117 128.902 24.5032 129.097 25.2415C129.293 25.9797 129.254 26.7391 128.983 27.5198C128.703 28.2919 128.181 29.0598 127.417 29.8235C126.942 30.2987 126.454 30.7017 125.954 31.0327C125.453 31.3636 124.969 31.6012 124.503 31.7454L123.077 30.3199C123.561 30.1756 124.078 29.9381 124.63 29.6071C125.182 29.2762 125.652 28.9156 126.043 28.5253C126.45 28.118 126.743 27.7149 126.921 27.3161C127.091 26.9088 127.133 26.51 127.048 26.1197C126.955 25.7209 126.722 25.3348 126.348 24.9614C125.839 24.4523 125.292 24.2275 124.706 24.2869C124.121 24.3463 123.489 24.7154 122.81 25.3942C122.572 25.6318 122.335 25.9118 122.097 26.2342C121.868 26.5482 121.686 26.8155 121.55 27.0361L120.481 27.3416L116.319 22.4922L121.104 17.7065L122.504 19.1066L119.131 22.4795L121.041 24.7705C121.159 24.6008 121.304 24.4057 121.473 24.185C121.643 23.9474 121.876 23.6802 122.173 23.3832Z" fill="white"/>
</g>
<defs>
<clipPath id="clip0_1240_4749">
<rect width="197" height="197" fill="white" transform="translate(197 197) rotate(-180)"/>
</clipPath>
</defs>
</svg>
