<?xml version="1.0" standalone="no"?>
<!DOCTYPE svg PUBLIC "-//W3C//DTD SVG 20010904//EN"
 "http://www.w3.org/TR/2001/REC-SVG-20010904/DTD/svg10.dtd">
<svg version="1.0" xmlns="http://www.w3.org/2000/svg"
 width="260.000000pt" height="260.000000pt" viewBox="0 0 260.000000 260.000000"
 preserveAspectRatio="xMidYMid meet">
<metadata>
Created by potrace 1.14, written by Peter Selinger 2001-2017
</metadata>
<g transform="translate(0.000000,260.000000) scale(0.100000,-0.100000)"
fill="#000000" stroke="none">
<path d="M185 2230 c5 -44 4 -45 -28 -29 l-22 10 22 -19 c19 -17 20 -21 7 -26
-8 -3 -12 -2 -9 4 4 6 -1 7 -12 3 -15 -6 -13 -9 11 -18 26 -11 27 -12 8 -17
-16 -5 -20 -12 -17 -34 1 -17 8 -28 15 -26 7 2 10 -3 7 -12 -5 -12 9 -15 30
-7 1 1 -9 12 -22 26 -14 13 -25 30 -25 37 0 10 2 10 9 -1 7 -11 10 -11 15 0 3
8 3 3 0 -10 -5 -17 -3 -21 6 -16 8 5 11 4 6 -3 -3 -6 3 -13 14 -17 18 -6 18
-8 5 -21 -8 -9 -15 -18 -15 -21 0 -4 3 -4 6 0 10 9 66 -23 62 -35 -6 -17 39
-61 53 -53 16 11 29 -16 18 -37 -5 -10 -6 -18 -2 -17 20 3 24 -2 13 -16 -11
-13 -10 -14 3 -10 9 4 21 -2 30 -15 12 -18 15 -19 21 -5 3 9 2 13 -4 10 -6 -4
-7 1 -3 11 5 15 7 15 16 -2 7 -12 6 -23 -2 -36 -6 -10 -9 -18 -5 -18 9 0 30
24 36 40 3 11 6 11 11 -3 3 -9 2 -17 -3 -17 -5 0 -14 -10 -20 -22 -9 -19 -9
-21 2 -8 11 13 59 19 78 10 3 -1 9 -2 14 -1 5 1 4 -5 -4 -14 -9 -11 -16 -12
-25 -5 -9 8 -14 7 -18 -3 -4 -10 3 -13 24 -12 23 1 29 -2 24 -14 -3 -8 -3 -12
1 -8 4 4 13 -1 21 -11 12 -16 13 -16 6 2 -5 14 -3 17 7 11 8 -5 11 -4 6 3 -3
6 1 15 10 20 11 6 13 11 5 16 -13 9 -33 -2 -26 -14 3 -5 1 -11 -4 -14 -5 -3
-11 1 -15 9 -3 8 -1 15 5 15 6 0 8 4 5 8 -7 12 26 11 41 0 7 -5 18 -6 24 -2 8
4 9 3 5 -4 -4 -7 -3 -12 3 -12 6 0 15 9 21 20 6 11 16 20 23 19 9 0 9 -2 0 -6
-7 -2 -13 -9 -13 -14 0 -6 4 -8 9 -4 5 3 13 0 17 -6 4 -7 3 -9 -4 -5 -6 3 -13
2 -17 -4 -4 -6 -10 -8 -15 -5 -5 3 -11 1 -14 -4 -4 -5 -2 -12 3 -15 5 -4 13
-1 17 5 4 8 9 7 15 -2 7 -11 9 -11 9 -1 0 7 5 10 10 7 6 -4 7 -11 4 -17 -4 -7
-2 -8 5 -4 6 4 8 13 4 19 -12 20 -14 47 -2 47 5 0 7 -4 4 -10 -3 -5 -2 -10 4
-10 5 0 12 6 14 13 4 9 6 9 6 -1 1 -7 6 -10 13 -6 7 4 8 3 4 -5 -4 -6 -11 -9
-16 -6 -5 3 -11 1 -14 -4 -4 -5 -2 -12 3 -15 5 -4 12 -2 16 4 9 15 28 12 19
-2 -4 -8 -3 -10 2 -5 5 5 10 13 10 18 1 5 2 13 3 18 0 6 10 9 20 8 11 0 17 -5
15 -9 -6 -10 26 -5 45 6 10 6 20 2 33 -14 10 -12 19 -19 19 -16 1 3 2 11 3 18
0 6 9 12 19 14 9 1 15 -2 11 -7 -3 -5 0 -9 5 -9 6 0 11 6 11 13 0 8 4 7 10 -3
6 -10 10 -11 10 -2 0 6 4 12 8 12 5 0 9 -6 9 -14 0 -8 -8 -13 -19 -11 -10 2
-18 0 -18 -4 0 -13 30 -35 37 -27 3 3 1 6 -5 6 -21 0 -13 16 8 17 11 1 18 -2
16 -6 -3 -4 1 -8 8 -8 7 0 13 6 13 13 0 7 -4 11 -8 8 -4 -2 -11 1 -15 7 -4 7
-3 9 4 5 6 -3 13 2 15 11 4 17 5 17 6 1 1 -21 17 -24 24 -5 4 9 6 9 6 -1 1 -7
5 -10 11 -7 6 3 7 -1 3 -10 -4 -12 -8 -13 -13 -5 -5 8 -10 8 -14 2 -3 -5 0
-12 8 -15 16 -6 50 26 39 36 -3 4 -1 7 5 7 7 0 12 -5 12 -11 0 -6 9 -9 20 -6
11 3 18 1 14 -4 -3 -5 0 -9 6 -9 6 0 8 -5 5 -10 -4 -6 -1 -9 7 -8 7 2 12 -3
10 -10 -1 -8 2 -11 8 -7 8 5 8 11 1 19 -6 7 -7 17 -3 21 4 5 1 5 -5 1 -9 -5
-11 -2 -7 8 3 9 10 16 16 16 5 0 6 -4 3 -10 -3 -5 -2 -10 4 -10 5 0 12 6 14
13 4 9 6 9 6 -1 1 -7 6 -10 13 -6 7 4 8 3 4 -5 -4 -6 -11 -9 -16 -6 -5 3 -11
1 -14 -4 -4 -5 -2 -12 3 -15 5 -4 12 -2 16 4 9 15 28 12 19 -2 -4 -8 -3 -10 2
-5 5 5 10 13 10 18 1 5 2 13 3 18 0 6 10 9 20 8 11 0 17 -5 15 -9 -3 -4 2 -8
10 -8 9 0 16 6 16 13 0 8 4 7 10 -3 5 -8 10 -10 10 -4 0 5 11 10 24 10 14 0
23 -3 20 -7 -2 -4 2 -9 8 -12 7 -2 9 -8 5 -13 -5 -5 -13 -1 -18 9 -8 13 -14
15 -28 7 -10 -5 -21 -6 -25 -3 -3 3 -6 1 -6 -5 0 -16 18 -24 23 -10 3 10 12 8
36 -5 17 -10 31 -15 30 -10 -4 21 2 34 13 27 7 -4 8 -3 4 5 -4 6 -11 9 -15 7
-4 -3 -8 1 -8 8 0 8 6 12 13 9 17 -6 28 -37 15 -41 -6 -2 -11 -9 -11 -15 0 -5
3 -7 7 -4 3 4 13 1 22 -6 14 -11 14 -10 2 6 -7 9 -12 17 -10 18 34 6 58 6 55
0 -3 -4 1 -8 8 -8 15 0 15 21 1 34 -4 4 -5 2 -1 -4 9 -17 1 -17 -12 0 -9 10
-6 13 13 13 13 0 21 -4 19 -8 -3 -4 0 -8 5 -8 6 0 11 6 11 13 0 8 4 7 10 -3 8
-12 10 -12 11 5 0 11 3 15 5 8 3 -7 1 -20 -5 -30 -6 -11 -11 -13 -11 -5 0 7
-5 10 -11 6 -8 -4 -7 -9 2 -15 17 -10 51 19 42 35 -3 6 0 5 8 -1 7 -7 21 -13
31 -13 10 0 18 6 18 13 0 8 4 7 10 -3 5 -8 10 -10 10 -4 0 5 11 10 24 10 14 0
23 -3 20 -7 -2 -4 2 -9 8 -12 7 -2 9 -8 5 -13 -5 -5 -13 -1 -18 9 -8 13 -14
15 -28 7 -10 -5 -21 -6 -25 -3 -3 3 -6 1 -6 -5 0 -16 18 -24 23 -10 3 10 12 8
36 -5 17 -10 31 -15 30 -10 -4 21 2 34 13 27 7 -4 8 -3 4 5 -4 6 -11 9 -15 7
-4 -3 -8 1 -8 8 0 8 6 12 13 9 17 -6 28 -37 15 -41 -6 -2 -11 -9 -11 -14 0 -6
3 -8 7 -5 3 4 13 1 22 -6 14 -11 14 -10 2 6 -7 9 -12 17 -10 18 34 6 58 6 55
0 -3 -4 1 -8 8 -8 15 0 15 21 1 34 -4 5 -4 1 0 -7 8 -13 7 -13 -8 -1 -22 17
-22 17 7 17 14 0 22 -4 20 -8 -3 -4 0 -8 5 -8 6 0 11 6 11 13 0 8 4 7 10 -3 8
-12 10 -12 11 5 0 11 3 15 5 8 3 -7 1 -20 -5 -30 -6 -11 -11 -13 -11 -5 0 7
-5 10 -11 6 -8 -4 -7 -9 2 -15 17 -10 51 19 42 35 -4 6 1 5 10 -3 9 -7 23 -11
32 -8 16 7 29 -8 20 -23 -4 -6 -16 -3 -33 8 -14 9 -23 11 -19 5 5 -7 4 -13 -1
-13 -5 0 -9 -7 -9 -16 0 -15 2 -15 13 1 14 18 39 11 27 -8 -5 -8 -2 -8 9 0 8
7 19 9 23 5 5 -4 5 -1 1 6 -4 6 -3 12 2 12 6 0 8 9 5 20 -5 20 7 27 21 13 4
-5 13 -8 19 -8 7 -1 11 -6 10 -13 -2 -7 4 -9 14 -5 11 4 14 3 9 -5 -10 -17 -1
-15 13 2 9 11 9 16 0 22 -8 4 -9 3 -5 -4 10 -16 1 -15 -12 1 -9 10 -6 13 12
13 18 0 23 -5 21 -21 -1 -18 2 -21 22 -17 12 2 23 8 23 13 0 5 -7 6 -15 3 -9
-4 -15 0 -15 10 0 20 9 20 31 0 10 -9 15 -23 12 -32 -4 -13 -3 -14 5 -3 5 7
12 9 14 5 3 -5 3 -2 0 6 -6 21 -10 48 -5 32 4 -11 8 -11 21 0 10 8 13 8 9 1
-4 -6 -4 -13 0 -16 5 -2 2 -2 -5 0 -7 1 -10 -2 -7 -8 4 -5 16 -7 27 -3 14 4
18 2 14 -5 -10 -16 -1 -14 13 3 9 11 9 16 0 22 -8 5 -9 3 -4 -6 6 -9 4 -11 -4
-5 -10 5 -10 10 -1 19 13 13 33 -11 25 -32 -3 -9 0 -10 15 -2 24 13 33 13 25
0 -4 -6 -1 -9 7 -8 7 2 12 -3 10 -10 -1 -8 2 -11 8 -7 8 5 8 11 1 19 -6 7 -7
17 -3 21 4 5 1 5 -5 1 -9 -5 -11 -2 -7 8 3 9 10 16 16 16 5 0 6 -4 3 -10 -3
-5 -2 -10 4 -10 5 0 12 6 14 13 4 9 6 9 6 -1 1 -7 6 -10 13 -6 7 4 8 3 4 -5
-4 -6 -11 -9 -16 -6 -5 3 -11 1 -14 -4 -4 -5 -2 -12 3 -15 5 -4 12 -2 16 4 9
15 28 12 19 -2 -4 -8 -3 -10 2 -5 5 5 10 13 10 18 1 5 2 13 3 18 0 6 10 9 20
8 11 0 17 -5 15 -9 -3 -4 0 -8 7 -8 8 0 8 -4 1 -13 -8 -10 -6 -13 11 -14 12
-1 17 1 12 5 -9 6 -11 15 -6 38 0 4 8 1 17 -7 13 -10 17 -10 24 0 6 10 10 8
15 -8 3 -12 11 -19 16 -15 5 3 7 9 4 14 -7 12 12 23 26 15 7 -5 5 -12 -5 -23
-13 -15 -12 -17 9 -17 13 0 21 3 19 7 -3 5 0 16 5 25 6 11 11 13 11 5 0 -7 4
-11 9 -7 5 3 12 1 16 -4 3 -6 -4 -8 -16 -6 -16 3 -18 1 -10 -9 6 -7 8 -16 4
-19 -3 -4 -3 -7 2 -7 4 0 16 10 26 22 20 23 24 33 10 24 -5 -3 -11 1 -15 9 -3
8 0 17 6 21 7 4 8 3 4 -4 -4 -7 -2 -12 4 -12 7 0 10 70 10 230 l-1 230 -1209
0 -1209 0 4 -40z m70 -190 c3 -6 -1 -7 -9 -4 -18 7 -21 14 -7 14 6 0 13 -4 16
-10z m39 -66 c9 -24 2 -26 -12 -4 -7 11 -8 20 -3 20 5 0 12 -7 15 -16z m79
-95 c7 -25 3 -24 -17 6 -13 19 -13 23 -2 19 8 -3 16 -14 19 -25z m2072 -48 c3
-5 2 -12 -3 -15 -5 -3 -9 1 -9 9 0 17 3 19 12 6z m-1825 -16 c0 -2 -9 -3 -19
-2 -11 0 -18 5 -15 9 4 6 34 0 34 -7z m824 -27 c8 -5 7 -8 -1 -8 -7 0 -17 9
-23 19 -14 27 -12 41 2 16 6 -11 16 -23 22 -27z m141 32 c3 -5 1 -10 -4 -10
-6 0 -11 5 -11 10 0 6 2 10 4 10 3 0 8 -4 11 -10z m179 -32 c8 -5 7 -8 -1 -8
-7 0 -17 9 -23 19 -14 27 -12 41 2 16 6 -11 16 -23 22 -27z m141 32 c3 -5 1
-10 -4 -10 -6 0 -11 5 -11 10 0 6 2 10 4 10 3 0 8 -4 11 -10z m345 -24 c0 -3
-4 -8 -10 -11 -5 -3 -10 -1 -10 4 0 6 5 11 10 11 6 0 10 -2 10 -4z"/>
<path d="M156 2251 c-4 -5 -2 -12 4 -16 6 -4 8 -10 5 -15 -3 -5 -1 -11 3 -14
10 -6 10 40 0 49 -3 4 -9 2 -12 -4z"/>
<path d="M103 2137 c-3 -6 -1 -7 5 -3 6 3 12 -2 14 -11 3 -16 5 -15 10 3 5 22
-17 30 -29 11z"/>
<path d="M75 2131 c-3 -5 -2 -12 3 -15 5 -3 9 1 9 9 0 17 -3 19 -12 6z"/>
<path d="M198 2013 c7 -3 16 -2 19 1 4 3 -2 6 -13 5 -11 0 -14 -3 -6 -6z"/>
<path d="M230 1999 c0 -5 5 -7 10 -4 6 3 10 8 10 11 0 2 -4 4 -10 4 -5 0 -10
-5 -10 -11z"/>
<path d="M279 1912 c-13 -15 -12 -16 3 -4 13 10 17 10 21 0 4 -9 6 -9 6 -1 2
20 -16 24 -30 5z"/>
<path d="M443 1795 c-7 -8 -9 -16 -4 -19 5 -3 12 1 15 10 8 22 4 25 -11 9z"/>
<path d="M759 1798 c-5 -19 -4 -48 2 -48 11 0 18 39 8 46 -5 3 -9 4 -10 2z"/>
<path d="M826 1791 c-4 -5 2 -15 13 -20 16 -9 19 -8 17 6 -3 20 -21 28 -30 14z"/>
<path d="M894 1781 c0 -11 5 -17 13 -14 10 4 11 9 2 19 -15 18 -15 18 -15 -5z"/>
<path d="M1239 1798 c-5 -19 -4 -48 2 -48 11 0 18 39 8 46 -5 3 -9 4 -10 2z"/>
<path d="M1970 1780 c17 -34 17 -34 23 -9 3 11 3 18 0 15 -4 -3 -13 0 -21 7
-13 11 -14 9 -2 -13z"/>
<path d="M2359 1798 c-5 -19 -4 -48 2 -48 11 0 18 39 8 46 -5 3 -9 4 -10 2z"/>
<path d="M2414 1793 c12 -22 43 -34 43 -18 0 8 -4 12 -9 9 -5 -3 -16 0 -25 8
-12 9 -15 9 -9 1z"/>
<path d="M791 1776 c-9 -11 -8 -14 6 -12 10 0 17 -5 15 -12 -1 -8 2 -11 8 -7
8 5 7 12 -2 23 -7 10 -13 18 -14 20 -1 1 -6 -4 -13 -12z"/>
<path d="M1084 1781 c4 -6 3 -11 -2 -11 -5 0 -9 -7 -9 -16 0 -15 2 -15 13 1 7
9 17 14 23 10 6 -3 11 -4 11 -1 0 3 -10 10 -21 17 -15 8 -19 8 -15 0z"/>
<path d="M1564 1781 c4 -6 3 -11 -2 -11 -5 0 -9 -7 -9 -16 0 -15 2 -15 13 1
13 18 39 11 28 -7 -4 -7 -2 -8 5 -4 14 9 7 22 -21 37 -15 8 -19 8 -14 0z"/>
<path d="M583 1772 c-9 -5 -6 -12 10 -21 19 -13 21 -12 10 1 -7 8 -10 18 -6
21 9 9 1 8 -14 -1z"/>
<path d="M873 1745 c0 -8 4 -12 9 -9 5 3 6 10 3 15 -9 13 -12 11 -12 -6z"/>
<path d="M2433 1745 c0 -8 4 -12 9 -9 5 3 6 10 3 15 -9 13 -12 11 -12 -6z"/>
<path d="M2473 1745 c0 -8 4 -12 9 -9 5 3 6 10 3 15 -9 13 -12 11 -12 -6z"/>
<path d="M906 1738 c3 -5 10 -6 15 -3 13 9 11 12 -6 12 -8 0 -12 -4 -9 -9z"/>
<path d="M1116 1738 c3 -5 10 -6 15 -3 13 9 11 12 -6 12 -8 0 -12 -4 -9 -9z"/>
<path d="M2236 1738 c3 -5 10 -6 15 -3 13 9 11 12 -6 12 -8 0 -12 -4 -9 -9z"/>
<path d="M845 1474 c-9 -15 -22 -23 -30 -20 -8 3 -17 1 -20 -5 -4 -5 -3 -9 2
-8 20 3 30 -2 30 -16 0 -8 -5 -15 -11 -15 -6 0 -4 -5 4 -10 20 -13 30 -12 30
1 0 5 -4 8 -9 5 -8 -5 -8 15 -1 34 1 3 2 10 0 15 -1 6 4 4 12 -3 11 -11 10
-14 -2 -22 -14 -9 -7 -15 14 -11 5 1 2 -9 -6 -21 -15 -22 -14 -24 3 -25 12 -1
17 3 13 10 -4 7 -3 8 1 4 11 -10 16 -39 5 -32 -4 3 -11 -2 -14 -11 -3 -9 -2
-12 5 -9 6 4 20 -1 31 -12 12 -10 18 -13 15 -6 -4 6 -3 14 3 18 9 5 15 -15 11
-38 -1 -5 7 -6 18 -2 13 4 27 -2 44 -19 16 -16 28 -21 35 -14 6 6 12 6 17 -1
3 -6 3 -10 -2 -9 -4 2 -8 -1 -8 -7 0 -5 5 -8 10 -7 6 2 6 0 2 -4 -10 -10 -38
-14 -32 -5 2 5 -8 20 -23 34 -21 20 -31 24 -42 16 -13 -9 -12 -10 3 -5 11 3
17 0 17 -9 0 -8 6 -14 13 -12 7 1 12 -7 11 -19 -1 -17 4 -21 31 -19 43 2 83
-29 65 -50 -9 -11 -9 -15 -1 -15 7 0 9 -5 5 -12 -4 -8 -3 -10 2 -5 5 5 10 13
10 18 1 5 2 14 3 19 0 6 6 10 12 10 5 0 8 -4 4 -9 -5 -8 10 -24 25 -27 21 -4
40 -18 40 -30 0 -15 0 -15 52 -18 20 -1 35 1 32 6 -3 4 2 11 10 14 9 3 14 10
11 14 -3 5 0 12 6 16 7 4 9 3 5 -4 -3 -6 -2 -13 4 -17 5 -3 10 0 11 7 0 7 4 4
9 -8 6 -16 16 -20 51 -19 33 1 48 -4 62 -19 18 -21 18 -20 1 7 -15 25 -15 27
0 27 10 0 15 -4 11 -9 -3 -5 -1 -12 4 -15 5 -4 12 -3 15 2 2 4 30 8 60 7 53 0
60 4 57 33 -1 6 4 12 10 12 7 0 9 -3 6 -7 -4 -3 -1 -13 6 -21 10 -13 9 -14 -2
-7 -9 5 -12 4 -7 -3 4 -6 13 -9 22 -5 8 3 21 -3 30 -13 12 -17 13 -17 8 -1 -5
13 -2 16 10 11 9 -3 16 -1 16 4 0 6 -9 9 -20 7 -11 -2 -22 0 -24 4 -3 4 9 7
27 6 20 0 31 -5 30 -13 -2 -7 0 -11 5 -11 4 1 9 1 12 -1 22 -8 50 -8 55 0 9
15 47 -8 39 -23 -4 -7 -3 -8 2 -4 5 5 9 14 9 20 0 7 18 12 43 13 23 0 42 -3
42 -8 0 -4 5 -8 11 -8 8 0 8 4 0 14 -9 10 -7 17 6 27 10 9 14 9 10 2 -4 -7 -2
-21 5 -32 11 -18 13 -18 25 -3 15 20 17 46 3 37 -6 -4 -8 -10 -6 -14 3 -4 -1
-8 -9 -8 -13 0 -12 3 1 18 18 20 34 17 34 -7 0 -20 18 -18 23 4 4 16 5 16 6 0
1 -12 9 -18 27 -18 24 0 25 -2 13 -17 -13 -16 -13 -16 11 0 26 18 45 23 36 9
-3 -5 1 -9 9 -9 8 0 11 5 8 10 -4 6 0 8 10 4 12 -4 17 -1 17 11 0 14 2 15 10
2 6 -9 5 -20 -3 -30 -10 -13 -10 -13 4 -3 9 7 20 9 25 5 4 -4 2 1 -5 10 -7 10
-11 23 -8 30 4 8 6 7 6 -4 1 -13 9 -18 27 -18 24 0 25 -2 13 -17 -13 -16 -12
-17 4 -4 9 7 17 10 17 5 0 -4 5 -3 12 4 14 14 52 -4 42 -21 -4 -7 -3 -8 2 -4
5 5 9 14 9 20 0 18 78 16 93 -2 11 -14 11 -13 2 7 -9 18 -8 22 5 22 9 0 14 -4
10 -9 -3 -5 -1 -12 4 -15 5 -4 12 -3 15 2 7 12 61 8 78 -5 26 -20 35 -22 35
-9 0 8 -6 12 -12 10 -6 -3 -12 2 -12 10 0 8 4 13 8 10 4 -2 10 0 14 6 8 13 25
13 25 -1 0 -5 -4 -7 -10 -4 -6 3 -7 -1 -3 -10 4 -12 8 -13 13 -5 4 7 10 8 12
4 3 -5 3 -3 2 4 -2 6 1 12 6 12 6 0 10 5 10 11 0 5 -6 7 -12 3 -10 -6 -10 -4
0 8 10 12 13 57 11 178 -2 151 -8 187 -25 159 -5 -8 -3 -9 6 -4 8 5 11 4 6 -3
-4 -6 -13 -9 -22 -5 -12 4 -12 8 -2 22 8 10 4 8 -10 -4 -17 -14 -39 -20 -82
-20 -34 0 -56 3 -53 9 4 5 -1 7 -10 3 -10 -3 -17 -2 -17 3 0 6 -5 10 -11 10
-6 0 -8 -9 -4 -21 6 -19 5 -20 -8 -8 -8 8 -13 17 -11 21 2 4 -1 10 -7 14 -8 5
-9 3 -4 -6 6 -10 4 -12 -11 -6 -15 6 -17 5 -6 -5 6 -7 12 -17 12 -23 0 -5 -9
1 -19 13 -20 23 -67 39 -55 19 5 -8 1 -9 -11 -4 -15 5 -16 4 -5 -9 7 -9 10
-18 6 -22 -3 -3 -6 -1 -6 6 0 7 -8 11 -17 10 -31 -3 -44 1 -39 10 3 5 -1 12
-10 15 -8 3 -13 2 -9 -3 8 -14 -4 -38 -19 -38 -8 0 -12 6 -9 14 3 7 10 10 16
6 6 -3 7 -1 3 5 -7 12 -36 5 -36 -8 0 -11 -49 -4 -65 10 -10 8 -15 8 -21 -1
-5 -8 -3 -9 5 -4 10 6 11 3 2 -14 -13 -23 -23 -29 -15 -8 3 10 -6 13 -33 13
-30 0 -38 3 -37 17 1 9 -2 14 -7 11 -5 -3 -9 -11 -9 -19 0 -8 -5 -17 -12 -21
-7 -4 -8 -3 -4 4 4 7 1 12 -8 12 -9 0 -16 5 -16 10 0 6 -5 10 -11 10 -6 0 -8
-9 -4 -21 6 -19 5 -20 -8 -8 -8 8 -13 17 -11 21 2 4 -1 10 -7 14 -8 5 -9 3 -4
-6 6 -10 4 -12 -11 -6 -15 6 -17 5 -6 -5 6 -7 12 -17 12 -23 0 -5 -9 1 -19 13
-20 23 -67 39 -55 19 5 -8 1 -9 -11 -4 -15 5 -16 4 -5 -9 7 -9 10 -18 6 -22
-3 -3 -6 -1 -6 6 0 7 -8 11 -17 10 -33 -3 -44 1 -38 14 4 6 -2 3 -12 -8 -23
-24 -44 -30 -37 -10 4 8 9 13 13 10 4 -2 8 2 8 10 0 12 -3 12 -14 3 -11 -9
-17 -8 -24 3 -8 10 -9 9 -4 -7 5 -18 2 -21 -21 -18 -14 1 -29 6 -32 10 -4 4 1
4 10 1 10 -3 20 -2 22 2 13 21 -37 3 -55 -19 -10 -14 -17 -18 -14 -9 5 13 -3
15 -49 14 -34 -1 -52 3 -49 9 4 5 -1 7 -10 3 -10 -3 -17 -2 -17 3 0 6 -5 10
-11 10 -6 0 -8 -9 -4 -21 6 -19 5 -20 -8 -8 -8 8 -13 17 -11 21 2 4 -1 10 -7
14 -8 5 -9 3 -4 -6 6 -10 4 -12 -11 -6 -15 6 -17 5 -6 -5 6 -7 12 -17 12 -23
0 -5 -9 1 -19 13 -20 23 -67 39 -55 19 5 -8 1 -9 -11 -4 -15 5 -16 4 -5 -9 7
-9 10 -18 6 -22 -3 -3 -6 -1 -6 7 0 10 -3 10 -15 0 -13 -11 -14 -10 -10 2 6
15 -22 34 -33 23 -3 -3 0 -5 6 -5 7 0 12 -4 12 -8 0 -5 -10 -8 -22 -6 -13 1
-27 3 -32 3 -5 1 -3 9 4 19 7 9 -2 1 -19 -18 -18 -19 -29 -28 -26 -19 5 13 -4
15 -50 14 -31 0 -59 3 -62 9 -3 5 -1 6 5 2 8 -5 10 -1 5 10 -4 10 -8 13 -10 7
-2 -6 -15 -9 -29 -7 -13 2 -24 0 -24 -5 0 -6 9 -8 20 -6 21 4 27 -9 10 -20 -5
-3 -10 -1 -10 5 0 6 -4 9 -8 6 -4 -2 -14 -1 -22 4 -9 5 -20 4 -29 -3 -8 -7
-12 -7 -9 -2 4 6 3 17 -3 25 -7 12 -9 10 -9 -7 0 -13 -4 -23 -9 -23 -6 0 -8
10 -6 23 4 20 3 21 -9 5 -15 -20 -31 -25 -20 -6 4 7 3 8 -4 4 -6 -4 -9 -14 -6
-24 5 -15 5 -15 -6 1 -6 9 -8 22 -5 27 14 22 -4 8 -20 -16z m495 -17 c0 -4 -6
-2 -14 5 -8 7 -12 17 -9 22 5 8 23 -12 23 -27z m480 0 c0 -4 -6 -2 -14 5 -8 7
-12 17 -9 22 5 8 23 -12 23 -27z m480 0 c0 -4 -6 -2 -14 5 -8 7 -12 17 -9 22
5 8 23 -12 23 -27z m-1396 -13 c3 -8 2 -12 -4 -9 -6 3 -10 10 -10 16 0 14 7
11 14 -7z m13 -95 c-6 -10 -16 -15 -21 -12 -6 4 -5 8 2 11 7 2 10 7 8 11 -3 4
1 8 8 8 11 0 12 -4 3 -18z m476 -219 c3 6 5 6 3 -2 -1 -7 -14 -13 -29 -13 -20
-2 -24 1 -17 10 5 6 6 16 2 21 -4 5 3 1 14 -9 14 -12 24 -14 27 -7z m395 9
c-2 -6 3 -14 11 -17 10 -3 11 0 5 9 -7 12 -5 12 9 0 16 -13 22 -8 17 14 -1 5
7 1 18 -8 13 -12 22 -14 25 -7 3 6 4 5 3 -2 -2 -7 -12 -13 -23 -13 -12 0 -25
-3 -28 -7 -4 -4 -16 -3 -26 2 -11 6 -20 6 -24 1 -11 -18 -45 -8 -45 14 1 18 1
19 11 3 5 -10 15 -18 21 -18 6 0 5 7 -3 17 -8 10 -9 14 -2 10 6 -4 14 -3 18 3
8 13 16 13 13 -1z m480 0 c-2 -6 3 -14 11 -17 10 -3 11 0 5 9 -7 12 -5 12 9 0
16 -13 22 -8 17 14 -1 5 7 1 18 -8 13 -12 22 -14 25 -7 3 6 4 5 3 -2 -2 -7
-11 -13 -22 -13 -10 0 -24 -3 -29 -7 -6 -4 -17 -3 -25 2 -9 5 -19 5 -26 -1 -9
-7 -16 -4 -24 10 -8 17 -8 19 4 15 8 -3 17 -1 21 5 8 14 16 14 13 0z m-1015
-14 c4 0 7 -4 7 -10 0 -12 -49 -15 -56 -3 -3 5 0 7 8 6 7 -2 12 3 10 10 -2 9
2 11 10 5 7 -4 16 -8 21 -8z m170 0 c-3 -9 -8 -14 -10 -11 -3 3 -2 9 2 15 9
16 15 13 8 -4z m480 0 c-3 -9 -8 -14 -10 -11 -3 3 -2 9 2 15 9 16 15 13 8 -4z
m211 1 c37 4 27 -6 -12 -11 -21 -3 -32 1 -36 12 -5 12 -3 13 6 6 7 -5 26 -8
42 -7z m269 -1 c-3 -9 -8 -14 -10 -11 -3 3 -2 9 2 15 9 16 15 13 8 -4z m-887
-7 c4 -7 4 -10 -1 -6 -4 4 -14 3 -22 -4 -11 -8 -12 -7 -7 6 7 19 20 21 30 4z
m34 2 c0 -5 -5 -10 -11 -10 -5 0 -7 5 -4 10 3 6 8 10 11 10 2 0 4 -4 4 -10z
m985 -8 c3 -8 0 -10 -8 -5 -17 11 -60 11 -75 0 -9 -7 -11 -6 -7 5 7 19 82 19
90 0z"/>
<path d="M1075 1491 c-3 -5 -2 -12 3 -15 5 -3 9 1 9 9 0 17 -3 19 -12 6z"/>
<path d="M1161 1484 c0 -11 3 -14 6 -6 3 7 2 16 -1 19 -3 4 -6 -2 -5 -13z"/>
<path d="M1521 1484 c0 -11 3 -14 6 -6 3 7 2 16 -1 19 -3 4 -6 -2 -5 -13z"/>
<path d="M1551 1487 c-8 -10 -7 -14 2 -14 8 0 14 6 14 14 0 7 -1 13 -2 13 -2
0 -8 -6 -14 -13z"/>
<path d="M1735 1489 c-4 -6 -5 -12 -2 -15 2 -3 7 2 10 11 7 17 1 20 -8 4z"/>
<path d="M2015 1490 c-4 -6 -12 -7 -18 -4 -7 4 -8 3 -4 -1 13 -15 34 -14 34 1
0 17 -4 18 -12 4z"/>
<path d="M2070 1496 c0 -2 7 -9 15 -16 13 -11 14 -10 9 4 -5 14 -24 23 -24 12z"/>
<path d="M2481 1484 c0 -11 3 -14 6 -6 3 7 2 16 -1 19 -3 4 -6 -2 -5 -13z"/>
<path d="M1106 1482 c-3 -5 1 -9 9 -9 8 0 15 4 15 9 0 4 -4 8 -9 8 -6 0 -12
-4 -15 -8z"/>
<path d="M1470 1480 c0 -4 7 -7 15 -6 23 3 26 12 5 13 -11 1 -20 -2 -20 -7z"/>
<path d="M2210 1479 c0 -5 5 -7 10 -4 6 3 10 8 10 11 0 2 -4 4 -10 4 -5 0 -10
-5 -10 -11z"/>
<path d="M2430 1480 c0 -4 7 -7 15 -6 23 3 26 12 5 13 -11 1 -20 -2 -20 -7z"/>
<path d="M2506 1482 c-3 -5 1 -9 9 -9 8 0 12 4 9 9 -3 4 -7 8 -9 8 -2 0 -6 -4
-9 -8z"/>
<path d="M786 1418 c3 -5 10 -6 15 -3 13 9 11 12 -6 12 -8 0 -12 -4 -9 -9z"/>
<path d="M810 1380 c0 -5 5 -10 11 -10 5 0 7 5 4 10 -3 6 -8 10 -11 10 -2 0
-4 -4 -4 -10z"/>
<path d="M1045 1201 c-6 -11 1 -15 18 -12 5 1 6 -9 2 -21 -3 -13 -3 -18 2 -13
5 6 12 13 16 16 4 3 -1 14 -12 23 -12 11 -21 14 -26 7z"/>
<path d="M1114 1152 c4 -7 2 -21 -5 -30 -11 -14 -11 -15 1 -4 17 14 34 16 25
2 -11 -17 5 -32 21 -19 11 9 14 9 14 -1 0 -8 3 -11 6 -8 3 4 0 16 -6 28 -6 12
-14 19 -17 16 -4 -3 -15 2 -26 11 -11 10 -17 12 -13 5z m46 -36 c0 -3 -4 -8
-10 -11 -5 -3 -10 -1 -10 4 0 6 5 11 10 11 6 0 10 -2 10 -4z"/>
<path d="M1296 1113 c-3 -4 -6 -11 -6 -17 0 -6 5 -4 10 4 6 10 10 11 10 3 0
-7 5 -13 10 -13 6 0 10 4 10 9 0 11 -26 22 -34 14z"/>
<path d="M2006 1102 c-3 -5 1 -9 9 -9 8 0 12 4 9 9 -3 4 -7 8 -9 8 -2 0 -6 -4
-9 -8z"/>
<path d="M1485 1080 c-3 -6 1 -7 9 -4 18 7 21 14 7 14 -6 0 -13 -4 -16 -10z"/>
<path d="M1590 1079 c0 -5 5 -7 10 -4 6 3 10 8 10 11 0 2 -4 4 -10 4 -5 0 -10
-5 -10 -11z"/>
<path d="M2450 1079 c0 -5 5 -7 10 -4 6 3 10 8 10 11 0 2 -4 4 -10 4 -5 0 -10
-5 -10 -11z"/>
<path d="M1755 790 c2 -24 0 -28 -10 -20 -9 8 -15 7 -18 -2 -4 -9 -6 -9 -6 -1
-1 7 -11 10 -26 7 -14 -2 -25 0 -25 5 0 6 10 8 22 6 21 -4 21 -4 4 13 -14 12
-20 14 -23 5 -3 -7 -13 -13 -24 -13 -13 0 -17 -5 -13 -17 5 -17 5 -17 -6 0
-12 19 -35 13 -24 -6 4 -7 4 -9 -1 -5 -4 4 -15 2 -24 -4 -9 -7 -13 -8 -9 -4 4
5 2 16 -5 24 -8 11 -8 14 0 9 6 -4 14 -3 18 3 4 6 11 8 16 5 5 -4 9 -1 9 4 0
9 -28 9 -50 1 -3 -2 -9 -2 -13 -1 -4 1 -3 -9 4 -21 l12 -23 -22 20 c-19 16
-24 17 -31 5 -5 -8 -7 -23 -4 -34 5 -14 3 -16 -7 -10 -12 7 -12 5 -1 -9 8 -9
10 -22 6 -29 -6 -9 -3 -9 10 1 13 11 14 16 4 22 -7 5 -8 9 -2 9 6 0 11 7 11
15 0 8 -4 12 -9 9 -9 -6 -11 10 -1 19 12 12 32 -27 21 -40 -6 -7 -7 -13 -4
-13 4 0 2 -10 -5 -21 -6 -12 -7 -19 -1 -15 5 3 13 -1 16 -9 3 -8 11 -14 18
-13 8 2 12 -5 11 -17 -1 -11 0 -14 3 -8 4 10 10 10 27 1 21 -12 26 -13 56 -16
10 -2 9 -8 -5 -29 -15 -24 -15 -26 -1 -14 14 11 17 11 18 0 1 -8 1 -17 0 -21
-2 -15 17 -8 23 8 4 10 2 13 -6 8 -6 -4 -8 -3 -4 4 3 5 2 12 -3 14 -5 1 -3 12
6 23 14 17 15 18 9 2 -7 -22 13 -45 34 -40 13 4 13 3 0 -6 -8 -5 -19 -7 -25
-4 -5 4 -7 3 -3 -2 4 -4 3 -14 -3 -22 -16 -18 -1 -17 17 2 9 8 21 15 27 15 8
0 8 -3 2 -8 -5 -4 -16 -15 -24 -25 -12 -16 -12 -18 0 -15 8 2 13 -3 11 -10 -1
-8 2 -11 7 -7 6 3 16 -3 23 -14 11 -19 14 -19 30 -4 10 9 18 11 18 5 0 -6 -6
-12 -12 -15 -9 -3 -3 -14 16 -33 16 -16 26 -24 22 -17 -3 6 -3 13 1 16 5 2 3
3 -2 1 -6 -1 -11 7 -11 17 0 18 1 18 21 -1 14 -13 25 -16 35 -10 18 11 31 4
24 -14 -3 -7 2 -13 11 -13 9 0 14 6 11 14 -4 9 -1 11 6 7 8 -5 9 -1 5 12 -7
18 -7 18 7 0 8 -10 19 -15 25 -12 5 4 13 1 17 -5 4 -7 3 -9 -4 -5 -6 3 -13 2
-16 -3 -4 -5 2 -8 11 -6 10 1 17 9 15 19 -2 9 2 16 8 16 5 0 9 -5 8 -11 -2 -6
3 -14 11 -17 9 -3 11 0 6 9 -5 8 -5 11 0 7 4 -4 15 -2 23 5 13 10 14 9 7 -2
-6 -11 -3 -13 13 -9 12 4 22 2 22 -3 0 -5 -5 -9 -12 -9 -6 0 -9 -2 -6 -5 11
-12 37 7 31 23 -3 10 -1 13 4 7 4 -5 19 -12 33 -14 14 -1 29 -8 33 -15 5 -6 5
0 2 14 -5 19 -4 22 4 10 10 -13 11 -13 12 0 1 8 1 19 0 23 -1 5 3 6 8 2 6 -3
8 -12 5 -19 -3 -8 -1 -17 5 -21 16 -9 55 -16 47 -7 -4 4 -13 7 -18 7 -6 0 -13
7 -15 15 -3 9 -1 11 4 5 7 -9 20 -14 50 -19 21 -4 27 -16 8 -16 -10 0 -16 -3
-12 -6 3 -4 14 -4 23 0 13 5 14 9 4 21 -7 8 -16 12 -21 9 -5 -3 -9 0 -9 5 0
14 17 14 25 0 4 -6 14 -8 22 -5 8 3 11 1 8 -4 -3 -6 0 -10 7 -11 7 0 21 -2 31
-4 11 -2 16 0 12 3 -4 4 -11 7 -16 7 -17 0 -14 18 4 21 10 1 14 -2 10 -9 -4
-7 0 -8 13 -2 28 11 85 14 78 4 -8 -13 10 -11 25 4 11 10 12 9 6 -2 -5 -9 -3
-12 6 -9 8 3 13 12 11 19 -2 8 0 10 4 6 13 -13 13 -38 1 -30 -7 3 -9 3 -5 -2
4 -4 2 -15 -5 -24 -7 -9 -2 -7 15 4 14 11 25 23 25 26 -1 4 3 6 8 5 5 0 9 -4
8 -7 -1 -4 6 -9 16 -12 10 -2 18 1 18 9 0 7 -4 11 -9 8 -4 -3 -8 0 -8 5 0 6 5
11 10 11 6 0 10 59 10 156 0 115 -3 153 -12 148 -7 -5 -8 -3 -2 7 16 27 14 39
-6 26 -10 -6 -16 -16 -13 -22 3 -5 0 -4 -7 2 -12 11 -11 16 6 29 10 8 13 12 5
8 -8 -4 -30 -9 -50 -11 -19 -2 -44 -12 -55 -21 -18 -16 -18 -16 -6 7 6 13 7
21 2 17 -6 -3 -12 -1 -14 6 -3 7 -9 8 -19 3 -19 -12 -42 -12 -52 0 -5 6 -6 -2
-3 -17 3 -15 2 -30 -4 -33 -6 -4 -7 1 -3 11 5 13 3 15 -7 9 -10 -6 -12 -4 -7
8 4 12 2 14 -10 10 -12 -5 -14 -3 -8 8 8 12 6 12 -8 0 -13 -11 -17 -11 -17 -1
0 8 -3 11 -6 8 -3 -4 0 -17 7 -30 11 -20 10 -21 -3 -11 -8 7 -19 9 -23 5 -5
-4 -5 -1 -1 6 10 16 -5 15 -30 -2 -17 -12 -21 -13 -21 -1 0 8 4 13 8 12 4 -1
7 1 8 6 1 9 -1 10 -21 2 -10 -4 -15 -11 -12 -16 3 -5 -2 -6 -10 -3 -9 3 -14 9
-12 13 3 4 0 13 -6 21 -8 12 -9 12 -4 -2 5 -18 -5 -24 -18 -11 -11 11 -37 12
-30 1 8 -12 -28 -6 -39 7 -5 6 -6 -3 -3 -20 5 -20 3 -25 -3 -16 -10 15 -35 6
-26 -10 3 -5 -1 -6 -10 -3 -14 6 -13 8 5 21 11 8 20 20 20 26 0 8 -3 7 -9 -2
-5 -8 -16 -11 -25 -8 -8 3 -18 1 -22 -5 -5 -7 -2 -8 6 -3 8 5 11 4 6 -3 -4 -6
-13 -9 -21 -5 -9 3 -23 -1 -32 -8 -15 -13 -15 -12 -4 10 7 13 8 21 3 17 -6 -3
-12 0 -15 6 -3 9 -8 10 -18 3 -8 -6 -30 -11 -50 -10 -23 0 -35 -4 -32 -11 2
-6 -3 -11 -11 -11 -8 0 -14 3 -12 6 2 3 -3 12 -10 19 -13 11 -14 9 -10 -15 4
-23 3 -25 -7 -12 -15 20 -38 13 -30 -9 4 -14 3 -15 -5 -2 -8 10 -8 18 0 27 6
8 8 16 4 20 -3 3 -6 1 -6 -5 0 -7 -5 -12 -11 -12 -5 0 -8 4 -4 9 3 5 1 12 -4
15 -5 3 -7 -8 -6 -24z m213 -4 c-2 -1 -12 -8 -22 -16 -18 -14 -19 -14 -7 8 7
12 17 20 22 16 6 -3 9 -7 7 -8z m201 0 c10 -12 8 -13 -10 -9 -17 5 -20 3 -14
-7 5 -9 4 -11 -4 -6 -9 6 -9 11 0 22 14 17 14 17 28 0z m279 0 c-2 -1 -12 -8
-22 -16 -18 -14 -19 -14 -7 8 7 12 17 20 22 16 6 -3 9 -7 7 -8z m-526 -3 c-6
-3 -9 -10 -5 -16 4 -7 -1 -6 -10 2 -13 11 -17 11 -17 1 0 -8 -3 -11 -6 -7 -11
10 4 23 28 24 13 0 17 -1 10 -4z m488 3 c0 -3 -4 -8 -10 -11 -5 -3 -10 -1 -10
4 0 6 5 11 10 11 6 0 10 -2 10 -4z m126 -8 c4 -7 3 -8 -4 -4 -7 4 -12 2 -12
-5 0 -7 -3 -10 -6 -6 -6 5 3 27 11 27 2 0 7 -5 11 -12z m-970 -55 c0 -10 -5
-21 -11 -25 -6 -5 -5 -8 3 -9 6 -1 17 -3 22 -4 6 -1 16 -3 23 -4 9 -1 9 -3 0
-9 -9 -5 -6 -11 9 -21 19 -12 20 -11 14 6 -6 14 -4 15 5 6 6 -6 8 -16 4 -23
-5 -7 -17 -3 -40 14 -18 14 -35 23 -38 20 -9 -10 -14 22 -6 44 10 26 17 29 15
5z m109 -91 c-3 -3 -11 0 -18 7 -9 10 -8 11 6 5 10 -3 15 -9 12 -12z m85 -97
c-10 -12 -10 -19 -2 -27 9 -9 12 -7 13 8 0 18 1 18 8 -1 13 -32 1 -39 -25 -14
-22 21 -22 23 -6 35 23 18 27 17 12 -1z"/>
<path d="M1727 797 c-3 -8 1 -14 8 -14 7 0 11 6 8 14 -3 7 -6 13 -8 13 -2 0
-5 -6 -8 -13z"/>
<path d="M1626 605 c-11 -8 -15 -15 -9 -15 6 0 16 7 23 15 16 19 11 19 -14 0z"/>
<path d="M1880 431 c-8 -6 -18 -7 -22 -5 -4 3 -8 0 -8 -5 0 -15 13 -14 36 4
21 16 17 20 -6 6z"/>
<path d="M2398 429 c-8 -6 -1 -7 19 -5 18 2 34 -1 37 -6 2 -4 3 -3 2 4 -3 15
-38 19 -58 7z"/>
<path d="M2044 410 c0 -13 4 -16 10 -10 7 7 7 13 0 20 -6 6 -10 3 -10 -10z"/>
<path d="M2124 410 c0 -13 4 -16 10 -10 7 7 7 13 0 20 -6 6 -10 3 -10 -10z"/>
<path d="M2190 421 c0 -6 4 -13 10 -16 6 -3 7 1 4 9 -7 18 -14 21 -14 7z"/>
<path d="M2475 419 c-4 -6 -4 -13 -1 -16 3 -4 6 -1 6 6 0 7 5 9 12 5 7 -4 8
-3 4 4 -9 15 -13 15 -21 1z"/>
<path d="M1995 400 c-3 -6 1 -7 9 -4 18 7 21 14 7 14 -6 0 -13 -4 -16 -10z"/>
<path d="M2546 398 c3 -4 9 -8 15 -8 5 0 9 4 9 8 0 5 -7 9 -15 9 -8 0 -12 -4
-9 -9z"/>
</g>
</svg>
