<svg width="28" height="28" viewBox="0 0 28 28" fill="none" xmlns="http://www.w3.org/2000/svg">
<path d="M1.3125 10.9375V19.6875C1.3125 20.1516 1.49687 20.5967 1.82506 20.9249C2.15325 21.2531 2.59837 21.4375 3.0625 21.4375H12.9167C12.6678 20.4756 12.6266 19.4717 12.7959 18.4927C12.9651 17.5136 13.341 16.5819 13.8984 15.7594C14.4558 14.9369 15.1819 14.2425 16.0285 13.7225C16.8752 13.2025 17.8228 12.8688 18.8085 12.7435C19.7941 12.6182 20.7951 12.7043 21.7449 12.9961C22.6947 13.2878 23.5715 13.7784 24.3169 14.4354C25.0623 15.0923 25.6592 15.9005 26.068 16.8061C26.4767 17.7117 26.6879 18.6939 26.6875 19.6875V10.9375H1.3125ZM9.625 18.8125H5.25C4.9019 18.8125 4.56806 18.6742 4.32192 18.4281C4.07578 18.1819 3.9375 17.8481 3.9375 17.5C3.9375 17.1519 4.07578 16.8181 4.32192 16.5719C4.56806 16.3258 4.9019 16.1875 5.25 16.1875H9.625C9.9731 16.1875 10.3069 16.3258 10.5531 16.5719C10.7992 16.8181 10.9375 17.1519 10.9375 17.5C10.9375 17.8481 10.7992 18.1819 10.5531 18.4281C10.3069 18.6742 9.9731 18.8125 9.625 18.8125Z" fill="#DEEAF4"/>
<path d="M24.9375 3.9375H3.0625C2.59837 3.9375 2.15325 4.12187 1.82506 4.45006C1.49687 4.77825 1.3125 5.22337 1.3125 5.6875V7.4375H26.6875V5.6875C26.6875 5.22337 26.5031 4.77825 26.1749 4.45006C25.8467 4.12187 25.4016 3.9375 24.9375 3.9375Z" fill="#DEEAF4"/>
<path d="M24.9375 3.5H3.0625C2.48234 3.5 1.92594 3.73047 1.5157 4.1407C1.10547 4.55094 0.875 5.10734 0.875 5.6875V19.6875C0.875 20.2677 1.10547 20.8241 1.5157 21.2343C1.92594 21.6445 2.48234 21.875 3.0625 21.875H12.5781C13.1014 23.5778 14.2185 25.0362 15.7261 25.985C17.2338 26.9338 19.0319 27.3099 20.7935 27.045C22.555 26.7801 24.163 25.8918 25.325 24.5416C26.4869 23.1913 27.1257 21.4689 27.125 19.6875V5.6875C27.125 5.10734 26.8945 4.55094 26.4843 4.1407C26.0741 3.73047 25.5177 3.5 24.9375 3.5ZM19.6875 26.25C18.3896 26.25 17.1208 25.8651 16.0416 25.144C14.9624 24.4229 14.1212 23.398 13.6245 22.1989C13.1278 20.9997 12.9979 19.6802 13.2511 18.4072C13.5043 17.1342 14.1293 15.9649 15.0471 15.0471C15.9649 14.1293 17.1342 13.5043 18.4072 13.2511C19.6802 12.9979 20.9997 13.1278 22.1989 13.6245C23.398 14.1212 24.4229 14.9624 25.144 16.0416C25.8651 17.1208 26.25 18.3896 26.25 19.6875C26.2479 21.4273 25.5558 23.0953 24.3256 24.3256C23.0953 25.5558 21.4273 26.2479 19.6875 26.25ZM26.25 16.1962C25.4715 14.7308 24.2252 13.568 22.7095 12.8928C21.1937 12.2176 19.4956 12.069 17.8856 12.4705C16.2755 12.872 14.8461 13.8006 13.8248 15.1084C12.8036 16.4162 12.2492 18.0282 12.25 19.6875C12.2529 20.1277 12.2939 20.5669 12.3725 21H3.0625C2.71472 20.999 2.38149 20.8603 2.13557 20.6144C1.88965 20.3685 1.75104 20.0353 1.75 19.6875V11.375H26.25V16.1962ZM26.25 10.5H1.75V7.875H26.25V10.5ZM26.25 7H1.75V5.6875C1.75104 5.33972 1.88965 5.00649 2.13557 4.76057C2.38149 4.51465 2.71472 4.37604 3.0625 4.375H24.9375C25.2853 4.37604 25.6185 4.51465 25.8644 4.76057C26.1103 5.00649 26.249 5.33972 26.25 5.6875V7Z" fill="#2191FB"/>
<path d="M15.3126 17.8H16.9986V22H16.1946V18.508H15.3126V17.8ZM20.9337 21.298V22H17.8257V21.418L19.4097 19.786C19.5617 19.634 19.6837 19.484 19.7757 19.336C19.8677 19.188 19.9137 19.06 19.9137 18.952C19.9137 18.8 19.8537 18.682 19.7337 18.598C19.6137 18.51 19.4477 18.466 19.2357 18.466C19.0517 18.466 18.8557 18.512 18.6477 18.604C18.4397 18.696 18.2437 18.824 18.0597 18.988L17.7417 18.37C17.9897 18.178 18.2497 18.03 18.5217 17.926C18.7977 17.818 19.0737 17.764 19.3497 17.764C19.6257 17.764 19.8697 17.808 20.0817 17.896C20.2937 17.984 20.4577 18.11 20.5737 18.274C20.6937 18.434 20.7537 18.62 20.7537 18.832C20.7537 19.036 20.6837 19.252 20.5437 19.48C20.4037 19.708 20.2077 19.954 19.9557 20.218L18.8877 21.298H20.9337ZM23.1527 19.552C23.5407 19.588 23.8487 19.706 24.0767 19.906C24.3087 20.106 24.4247 20.368 24.4247 20.692C24.4247 20.956 24.3567 21.19 24.2207 21.394C24.0847 21.594 23.8907 21.752 23.6387 21.868C23.3867 21.98 23.0927 22.036 22.7567 22.036C22.4727 22.036 22.1907 21.994 21.9107 21.91C21.6347 21.822 21.3987 21.706 21.2027 21.562L21.5207 20.938C21.6887 21.078 21.8747 21.186 22.0787 21.262C22.2827 21.334 22.4907 21.37 22.7027 21.37C22.9947 21.37 23.2227 21.31 23.3867 21.19C23.5547 21.07 23.6387 20.908 23.6387 20.704C23.6387 20.496 23.5567 20.338 23.3927 20.23C23.2287 20.118 22.9947 20.062 22.6907 20.062H22.0547V19.576L23.1827 18.484H21.4127L21.4067 17.8H24.2147V18.298L22.9307 19.528L23.1527 19.552Z" fill="#2191FB"/>
<path d="M9.625 15.75H5.25C4.78587 15.75 4.34075 15.9344 4.01256 16.2626C3.68437 16.5908 3.5 17.0359 3.5 17.5C3.5 17.9641 3.68437 18.4092 4.01256 18.7374C4.34075 19.0656 4.78587 19.25 5.25 19.25H9.625C10.0891 19.25 10.5342 19.0656 10.8624 18.7374C11.1906 18.4092 11.375 17.9641 11.375 17.5C11.375 17.0359 11.1906 16.5908 10.8624 16.2626C10.5342 15.9344 10.0891 15.75 9.625 15.75ZM9.625 18.375H5.25C5.01794 18.375 4.79538 18.2828 4.63128 18.1187C4.46719 17.9546 4.375 17.7321 4.375 17.5C4.375 17.2679 4.46719 17.0454 4.63128 16.8813C4.79538 16.7172 5.01794 16.625 5.25 16.625H9.625C9.85706 16.625 10.0796 16.7172 10.2437 16.8813C10.4078 17.0454 10.5 17.2679 10.5 17.5C10.5 17.7321 10.4078 17.9546 10.2437 18.1187C10.0796 18.2828 9.85706 18.375 9.625 18.375Z" fill="#2191FB"/>
</svg>
