<svg xmlns="http://www.w3.org/2000/svg" width="117" height="26" fill="none" viewBox="0 0 117 26">
  <g clip-path="url(#a)">
    <path fill="#E1251B" d="M13.233 7.984c-1.06-.887-2.415-1.478-3.844-1.478-1.06 0-2.489.616-2.489 1.848 0 1.306 1.577 1.799 2.563 2.119l1.479.443c3.104.912 5.495 2.49 5.495 6.087 0 2.218-.543 4.485-2.317 5.988-1.75 1.479-4.066 2.095-6.333 2.095-2.809 0-5.544-.937-7.836-2.538l2.489-4.682c1.454 1.28 3.154 2.316 5.15 2.316 1.355 0 2.81-.69 2.81-2.242 0-1.553-2.268-2.194-3.524-2.539C3.229 14.366.838 13.43.838 9.118c0-4.313 3.278-7.467 7.738-7.467 2.242 0 5.002.715 6.973 1.824l-2.316 4.484v.025ZM24.47 0v11.286h.049c1.232-1.651 2.76-2.415 4.854-2.415 3.845 0 5.693 2.538 5.693 6.382v9.29h-5.372v-7.762c0-1.774-.271-3.598-2.415-3.598s-2.81 1.824-2.81 3.598v7.762h-5.371V0h5.372Zm29.742 17.84h-11.31c0 2.194 1.157 3.377 3.375 3.377 1.158 0 1.971-.395 2.563-1.38h5.175c-.42 1.774-1.479 3.08-2.859 3.918-1.38.862-3.105 1.281-4.854 1.281-5.027 0-8.773-2.834-8.773-8.058s3.45-8.107 8.403-8.107c5.249 0 8.304 3.253 8.304 8.428v.566l-.024-.024Zm-5.002-3.104c-.272-1.454-1.602-2.39-3.056-2.39-1.577 0-2.859.837-3.204 2.39h6.26Zm12.863 9.783h-5.372V0h5.372v24.519Zm8.92 0h-5.372V0h5.372v24.519Z"/>
    <path fill="#002E6D" d="M87.75 21.66a3.444 3.444 0 0 1-3.45 3.45c-1.922 0-3.45-1.577-3.45-3.45 0-1.872 1.528-3.45 3.45-3.45a3.429 3.429 0 0 1 3.45 3.45Zm19.96 2.859h-5.372v-1.676h-.049c-.936 1.503-2.81 2.193-4.583 2.193-4.485 0-7.664-3.745-7.664-8.107 0-4.362 3.105-8.058 7.59-8.058 1.75 0 3.573.64 4.706 1.971V9.364h5.372v15.155Zm-12.124-7.565c0 1.922 1.282 3.4 3.45 3.4 2.169 0 3.45-1.478 3.45-3.4s-1.281-3.426-3.45-3.426c-2.168 0-3.45 1.577-3.45 3.426ZM117 3.548a3.018 3.018 0 0 1-3.006 3.007 3.019 3.019 0 0 1-3.007-3.007 3.019 3.019 0 0 1 3.007-3.006A3.018 3.018 0 0 1 117 3.548Zm-.32 20.97h-5.372V9.365h5.372V24.52Z"/>
  </g>
  <defs>
    <clipPath id="a">
      <path fill="#fff" d="M0 0h117v25.11H0z"/>
    </clipPath>
  </defs>
</svg>
