<svg width="30" height="30" viewBox="0 0 30 30" fill="none" xmlns="http://www.w3.org/2000/svg">
<path fill-rule="evenodd" clip-rule="evenodd" d="M11.25 5.15625C9.17892 5.15625 7.5 6.83517 7.5 8.90625V12.1412C6.7388 12.3403 6.02756 12.5693 5.37642 12.8251C4.12456 13.317 3.04789 13.9258 2.26841 14.6498C1.48769 15.375 0.9375 16.2845 0.9375 17.3438C0.9375 18.403 1.48769 19.3125 2.26841 20.0377C2.71598 20.4534 3.26154 20.8312 3.88198 21.1706C4.30317 21.401 4.82273 21.2318 5.06278 20.8161C5.33972 20.3364 5.13492 19.7281 4.65358 19.4541C4.20367 19.1979 3.83305 18.932 3.54444 18.6639C2.99684 18.1553 2.8125 17.7084 2.8125 17.3438C2.8125 16.9791 2.99684 16.5323 3.54444 16.0236C4.09329 15.5138 4.93875 15.0116 6.06202 14.5703C6.50658 14.3956 6.98733 14.2334 7.5 14.0856V14.5313C7.5 16.6023 9.17892 18.2813 11.25 18.2813H18.75C20.8211 18.2813 22.5 16.6023 22.5 14.5313V14.0856C23.0127 14.2334 23.4934 14.3956 23.938 14.5703C25.0613 15.0116 25.9067 15.5138 26.4555 16.0236C27.0031 16.5323 27.1875 16.9791 27.1875 17.3438C27.1875 17.968 26.6076 18.8381 24.9067 19.6884C23.2856 20.499 20.944 21.126 18.1869 21.4048C17.6718 21.4569 17.2964 21.9167 17.3485 22.4319C17.4006 22.947 17.8604 23.3224 18.3756 23.2703C21.2794 22.9767 23.8597 22.3082 25.7452 21.3655C27.551 20.4627 29.0625 19.122 29.0625 17.3438C29.0625 16.2845 28.5123 15.375 27.7316 14.6498C26.9521 13.9258 25.8754 13.317 24.6236 12.8251C23.9724 12.5693 23.2612 12.3403 22.5 12.1412V8.90625C22.5 6.83517 20.8211 5.15625 18.75 5.15625H11.25ZM13.5938 7.03125H16.4062V8.90625H13.5938V7.03125ZM11.7188 9.84375V7.03125H11.25C10.2145 7.03125 9.375 7.87073 9.375 8.90625V14.5313C9.375 15.5668 10.2145 16.4063 11.25 16.4063H18.75C19.7855 16.4063 20.625 15.5668 20.625 14.5313V8.90625C20.625 7.87073 19.7855 7.03125 18.75 7.03125H18.2812V9.84375C18.2812 10.3615 17.8615 10.7813 17.3438 10.7813H12.6562C12.1385 10.7813 11.7188 10.3615 11.7188 9.84375Z" fill="#85CB33"/>
<path d="M9.00521 20.9744C8.59252 20.8876 8.16652 21.068 7.95563 21.4332C7.64387 21.9733 7.92882 22.6617 8.53857 22.7921C9.86026 23.0748 11.3048 23.2721 12.8269 23.369C12.5706 23.7347 12.6058 24.2425 12.9324 24.5692C13.2985 24.9353 13.8922 24.9353 14.2583 24.5692L15.6645 23.1629C16.0306 22.7968 16.0306 22.2032 15.6645 21.8371L14.2583 20.4309C13.8922 20.0647 13.2985 20.0647 12.9324 20.4309C12.6476 20.7157 12.5844 21.1382 12.7427 21.4842C11.4063 21.3904 10.149 21.2152 9.00521 20.9744Z" fill="#85CB33"/>
</svg>
