<svg xmlns="http://www.w3.org/2000/svg" width="400" height="978.279"><path fill="#D8D8D8" d="M368.201.273c-.866.285-1.918.737-4.603 1.974-1.265.584-2.819 1.185-3.452 1.335-.632.151-1.15.442-1.15.647 0 .206-.377.374-.837.374-.46 0-.837.149-.837.331 0 .183-1.035.684-2.301 1.114-1.266.43-2.301.94-2.301 1.133 0 .193-.377.35-.837.35-.46 0-.837.189-.837.419 0 .23-.187.418-.416.418-.692 0-3.768 1.431-3.768 1.754 0 .165-.659.424-1.465.575-.805.151-1.464.442-1.464.647 0 .204-.282.371-.628.371-.345 0-.627.189-.627.419 0 .23-.301.418-.668.418-.637 0-3.076 1.189-3.516 1.714-.115.137-.772.388-1.461.556-.688.169-1.347.435-1.464.592-.117.157-1.343.84-2.724 1.518-1.381.678-2.604 1.335-2.719 1.46-.116.125-1.151.715-2.302 1.312-5.029 2.608-6.708 3.512-6.903 3.717-.116.12-.963.594-1.883 1.052-.921.458-1.768.929-1.883 1.046-.115.117-1.057.629-2.092 1.136-2.021.991-4.95 2.636-5.643 3.17-1.075.828-6.074 3.648-6.468 3.648-.243 0-.442.188-.442.418s-.282.419-.627.419c-.345 0-.628.175-.628.39 0 .214-.418.523-.93.685-.81.257-5.185 2.936-5.764 3.53-.115.118-.916.585-1.779 1.038s-1.569.969-1.569 1.146c0 .178-.282.324-.627.324-.345 0-.628.184-.628.41 0 .226-.457.525-1.015.665s-1.341.615-1.739 1.054c-.397.44-.86.799-1.029.799-.427 0-5.6 3.458-5.771 3.857a.591.591 0 0 1-.504.328c-.316 0-3.182 1.877-6.132 4.018-1.489 1.081-6.127 4.305-7.007 4.872-.447.288-1.256.947-1.798 1.465-.541.518-1.119.942-1.283.942-.165 0-.807.47-1.428 1.046-.62.575-1.243 1.046-1.383 1.046-.294 0-2.938 1.938-4.174 3.061-.461.418-1.449 1.139-2.197 1.603-.748.464-1.36 1.016-1.36 1.228 0 .211-.237.384-.527.384-.29 0-.996.423-1.569.941s-1.795 1.503-2.716 2.19c-2.086 1.556-3.072 2.342-3.947 3.145-.375.345-1.423 1.186-2.328 1.868-.904.682-1.953 1.529-2.329 1.883a28.13 28.13 0 0 1-1.479 1.271c-1.428 1.129-5.393 4.387-5.607 4.607-.115.118-1.239 1.06-2.497 2.092-2.143 1.759-3.099 2.595-7.938 6.938a131.01 131.01 0 0 1-3.123 2.719c-.669.554-2.724 2.468-4.569 4.253-1.844 1.786-4.58 4.328-6.08 5.649-3.007 2.649-20.877 20.611-22.164 22.278-.445.577-2.196 2.496-3.892 4.264-1.697 1.769-3.555 3.765-4.13 4.436a517.897 517.897 0 0 1-7.741 8.745c-1.151 1.265-2.265 2.611-2.477 2.992-.212.38-.686.974-1.054 1.319-.367.345-1.512 1.658-2.543 2.917-1.032 1.259-2.158 2.59-2.503 2.958-.346.368-1.193 1.395-1.883 2.283-.691.887-1.491 1.849-1.778 2.137-.288.288-.523.657-.523.819 0 .163-.471.732-1.046 1.266-.576.533-1.046 1.121-1.046 1.307 0 .186-.433.807-.962 1.38-.528.573-1.986 2.36-3.24 3.97-1.253 1.611-2.61 3.294-3.014 3.74-.404.447-.734.935-.734 1.086 0 .151-.471.821-1.046 1.49-.575.669-1.046 1.344-1.046 1.5 0 .156-.242.532-.537.837-.295.304-2.031 2.624-3.857 5.155s-3.434 4.697-3.574 4.812c-.14.115-.61.821-1.045 1.569-.435.748-.939 1.36-1.119 1.36-.181 0-.329.196-.329.436s-.753 1.456-1.673 2.702c-.921 1.246-1.674 2.446-1.674 2.667 0 .22-.141.464-.314.54-.172.077-.878.987-1.568 2.023-.689 1.035-1.35 1.977-1.468 2.092-.551.538-2.508 3.795-2.508 4.175a.42.42 0 0 1-.41.427c-.226 0-.529.471-.673 1.046-.144.576-.43 1.046-.636 1.046-.205 0-.373.283-.373.628s-.175.628-.39.628c-.214 0-.522.423-.684.941-.161.518-.429 1.036-.595 1.151-.491.34-4.607 7.065-4.607 7.526 0 .233-.166.423-.369.423-.204 0-.481.33-.616.733-.239.711-1.102 2.191-1.525 2.615-.115.115-.506.774-.867 1.464-.98 1.868-1.825 3.321-2.071 3.557-.119.115-.446.68-.724 1.255-.279.575-1.175 2.176-1.99 3.556-.816 1.381-1.708 3.029-1.982 3.661-.275.633-.646 1.151-.826 1.151s-.327.377-.327.837c0 .46-.141.838-.314.839-.172.001-1.161 1.649-2.196 3.661-1.036 2.012-2.024 3.722-2.197 3.798-.173.077-.314.485-.314.907s-.157.83-.35.906c-.192.077-1.049 1.552-1.904 3.278-.854 1.726-1.921 3.794-2.369 4.596-.449.802-.816 1.696-.816 1.987 0 .292-.188.53-.419.53-.23 0-.418.377-.418.837s-.188.837-.418.837c-.23 0-.422.235-.425.523-.003.287-.757 2.018-1.674 3.846-.917 1.827-1.667 3.569-1.667 3.87s-.188.547-.418.547c-.231 0-.419.377-.419.837s-.173.837-.385.837c-.212 0-.518.612-.68 1.36-.162.748-.423 1.454-.578 1.569-.462.341-1.704 3.209-1.704 3.933 0 .368-.188.669-.419.669-.23 0-.418.377-.418.837 0 .46-.18.837-.399.837-.22 0-.523.659-.675 1.464-.151.806-.442 1.465-.646 1.465-.205 0-.372.253-.372.563 0 .525-.792 2.452-1.701 4.138-.215.4-.391 1.012-.391 1.36s-.188.633-.418.633c-.231 0-.419.261-.419.58s-.281 1.119-.625 1.778c-.344.66-.626 1.528-.628 1.931-.001.403-.143.732-.316.732-.173 0-.678 1.14-1.123 2.534-.446 1.393-.963 2.628-1.151 2.744-.188.116-.341.576-.341 1.023 0 .447-.167.812-.372.812-.204 0-.504.706-.665 1.569-.161.863-.438 1.758-.615 1.988-.177.23-.651 1.36-1.053 2.51-.826 2.365-1.419 3.87-1.918 4.865-.187.374-.469 1.363-.625 2.197-.156.833-.452 1.516-.656 1.516-.205 0-.372.341-.372.758s-.382 1.548-.848 2.513-.963 2.365-1.105 3.112c-.141.746-.384 1.545-.54 1.776-.156.23-.626 1.548-1.046 2.928-.794 2.614-1.346 4.134-1.914 5.274-.185.369-.466 1.545-.627 2.615-.16 1.069-.458 1.944-.662 1.944-.204 0-.371.46-.371 1.021 0 .562-.171 1.127-.379 1.256-.209.129-.509 1.176-.667 2.326-.158 1.15-.458 2.092-.667 2.092s-.379.553-.379 1.23-.183 1.344-.406 1.482c-.224.138-.531 1.189-.683 2.335-.152 1.146-.44 2.185-.64 2.309-.2.123-.363.673-.363 1.221s-.175 1.105-.389 1.237c-.214.132-.518 1.273-.676 2.535-.158 1.262-.453 2.295-.657 2.295-.204 0-.37.473-.37 1.052 0 .578-.166 1.378-.369 1.778-.5.983-1.395 4.555-1.624 6.48-.103.863-.336 1.569-.518 1.569-.181 0-.435.706-.564 1.569-.494 3.32-1.29 7.017-1.554 7.217-.315.239-.656 1.832-1.32 6.172-.255 1.668-.622 3.033-.814 3.033-.193 0-.35.753-.35 1.674 0 .92-.169 1.674-.375 1.674s-.508 1.507-.671 3.349c-.164 1.842-.466 3.454-.672 3.581-.206.128-.374.963-.374 1.856 0 .894-.172 1.73-.381 1.86-.21.129-.515 1.838-.678 3.796-.163 1.959-.462 3.664-.665 3.789-.203.126-.368 1.053-.368 2.061 0 1.009-.189 1.95-.419 2.093-.23.142-.418 1.107-.418 2.144 0 1.037-.183 2.227-.407 2.645-.223.418-.534 2.577-.69 4.798-.156 2.222-.444 4.138-.64 4.259-.195.121-.355 1.216-.355 2.434 0 1.218-.184 2.76-.41 3.427-.225.667-.608 3.378-.851 6.025a328.673 328.673 0 0 1-.854 8.159c-.688 5.601-1.141 11.516-1.188 15.502-.025 2.082-.217 3.965-.429 4.184-1.357 1.403-1.352 76.36.005 77.782.209.219.399 2.102.424 4.184.047 3.983.499 9.892 1.188 15.503.226 1.841.601 5.303.834 7.695.232 2.391.513 4.437.623 4.547.183.183 8.027-.6 15.721-1.571 5.421-.684 10.159-1.233 12.761-1.479 7.13-.676 8.986-1.277 7.77-2.519-.214-.218-.524-2.898-.688-5.953-.163-3.056-.459-5.656-.656-5.778-.198-.122-.359-1.8-.359-3.729s-.161-3.607-.358-3.729c-.197-.121-.489-3.569-.648-7.66-.16-4.092-.422-8.663-.584-10.159-.382-3.547-.381-52.946.001-56.486.162-1.495.421-5.92.577-9.832.155-3.912.432-7.302.614-7.534.182-.231.43-2.02.551-3.975.357-5.744 1.323-15.218 1.622-15.897.152-.345.373-1.757.491-3.138.438-5.135 1.301-11.451 1.604-11.753.173-.171.314-1.21.314-2.309s.168-2.101.374-2.229c.205-.127.508-1.926.672-3.999.164-2.073.467-3.769.672-3.769.206 0 .374-.941.374-2.092 0-1.15.172-2.092.381-2.092.21 0 .514-1.6.677-3.556.163-1.956.462-3.557.665-3.557s.369-.753.369-1.673c0-.921.164-1.674.364-1.674.2 0 .484-.8.629-1.778.357-2.396 1.314-7.069 1.607-7.845.479-1.274 1.584-6.64 1.584-7.696 0-.6.189-1.091.419-1.091.23 0 .418-.659.418-1.465 0-.805.179-1.464.398-1.464.218 0 .525-1.13.681-2.51.157-1.381.448-2.511.649-2.511.2 0 .364-.554.364-1.23 0-.677.166-1.334.37-1.459.203-.126.499-1.267.657-2.535.159-1.269.463-2.307.677-2.307.214 0 .388-.659.388-1.465 0-.805.171-1.464.379-1.464.209 0 .509-.941.667-2.092.158-1.15.459-2.197.667-2.326.209-.129.379-.788.379-1.465 0-.676.189-1.23.419-1.23s.418-.304.418-.676c0-.633.974-3.931 1.717-5.809.181-.461.646-1.967 1.032-3.348.702-2.508 1.231-4 1.874-5.283.187-.374.469-1.365.626-2.201.157-.837.452-1.624.656-1.75.204-.126.371-.573.371-.994 0-.42.282-1.303.625-1.962.344-.66.627-1.607.628-2.105.001-.499.144-.97.316-1.046.404-.18 1.783-4.097 1.781-5.056-.002-.403.186-.732.416-.732.23 0 .418-.261.418-.58s.282-1.119.625-1.778c.344-.66.627-1.623.628-2.14.001-.518.191-.942.421-.942.23 0 .418-.376.418-.837 0-.46.189-.836.419-.836s.418-.355.418-.789c0-.434.282-1.329.625-1.988.344-.659.626-1.528.628-1.931.001-.402.191-.732.421-.732.23 0 .418-.261.418-.58 0-.318.282-1.119.625-1.778.344-.659.627-1.528.628-1.93.001-.403.191-.733.421-.733.23 0 .418-.261.418-.579 0-.319.282-1.12.625-1.779.344-.659.627-1.528.628-1.93.001-.403.191-.733.421-.733.23 0 .418-.376.418-.836 0-.461.172-.837.382-.837.21 0 .509-.753.664-1.674.156-.92.409-1.674.563-1.674.153 0 .537-.611.852-1.359.315-.748.831-1.907 1.148-2.575s.576-1.468.576-1.778.188-.564.418-.564a.43.43 0 0 0 .418-.437c0-.241 1.244-3.018 2.764-6.172 1.52-3.153 3.262-6.769 3.87-8.035.609-1.266 1.211-2.395 1.338-2.51.372-.338 1.652-3.223 1.652-3.725 0-.253.141-.463.314-.466.172-.004.878-1.181 1.569-2.616.69-1.434 1.359-2.702 1.486-2.817.127-.115.578-.962 1.003-1.883.425-.92.886-1.768 1.024-1.883.525-.436 1.717-2.876 1.717-3.516 0-.367.188-.668.418-.668s.419-.282.419-.627c0-.345.169-.628.377-.628s.582-.518.831-1.151c.482-1.222 1.876-3.8 2.433-4.497.183-.231.71-1.172 1.17-2.093.461-.92.957-1.767 1.103-1.882.147-.115.787-1.151 1.424-2.302.636-1.15 1.269-2.186 1.407-2.301.138-.115.546-.774.908-1.465 1.101-2.099 1.827-3.286 2.376-3.883.287-.313.523-.838.523-1.167 0-.329.158-.598.352-.598s.712-.706 1.151-1.569c.439-.863.911-1.663 1.049-1.778.139-.115.773-1.042 1.411-2.059.637-1.018 1.327-2.053 1.533-2.302.206-.248 2.163-3.155 4.348-6.459 3.481-5.262 4.563-6.833 5.95-8.636.176-.23.681-.979 1.121-1.663.44-.685 1.143-1.612 1.561-2.061.419-.449.87-1.16 1.003-1.58.134-.42.418-.763.633-.763.214 0 .39-.197.39-.437s.471-.944 1.046-1.565c.575-.62 1.046-1.279 1.046-1.464s.471-.844 1.046-1.464c.575-.621 1.046-1.263 1.046-1.428 0-.164.424-.76.941-1.324 1.011-1.1 1.152-1.277 3.047-3.816a86.401 86.401 0 0 1 1.939-2.511c2.489-3.018 3.588-4.391 4.324-5.407a46.77 46.77 0 0 1 1.593-2.062c2.165-2.599 3.481-4.154 3.951-4.668.288-.315.523-.671.523-.792 0-.12.622-.839 1.382-1.598.76-.759 1.782-1.906 2.271-2.548 1.209-1.591 5.019-5.957 6.807-7.803a56.767 56.767 0 0 0 2.65-2.965c4.83-5.921 28.353-29.463 36.991-37.021.975-.853 2.519-2.238 3.431-3.076 3.17-2.915 6.518-5.853 7.765-6.815.69-.532 1.461-1.16 1.713-1.395.252-.235 1.26-1.086 2.24-1.891.98-.806 2.225-1.888 2.766-2.406.541-.518 1.167-.942 1.391-.942s.75-.424 1.169-.943c.42-.519 1.328-1.307 2.018-1.751.691-.443 1.495-1.045 1.789-1.338.293-.292 1.423-1.246 2.51-2.12 1.088-.873 2.04-1.729 2.117-1.902.077-.173.406-.314.732-.314s.593-.141.594-.314c0-.172.941-.955 2.092-1.739 1.15-.784 2.091-1.584 2.091-1.778s.202-.353.448-.353c.247 0 .711-.235 1.032-.523.968-.869 1.505-1.272 5.424-4.076 2.071-1.482 3.828-2.842 3.905-3.023.076-.18.361-.328.632-.328s.961-.433 1.534-.963c.573-.529 1.371-1.088 1.774-1.242.403-.153.732-.473.732-.71 0-.238.201-.432.447-.432s2.037-1.13 3.98-2.51c1.943-1.381 3.703-2.511 3.911-2.511s.442-.142.518-.316c.077-.173 1.458-1.158 3.069-2.187 1.611-1.03 3.023-1.984 3.138-2.122.115-.137.868-.612 1.673-1.055.806-.443 1.559-.908 1.674-1.033.115-.126 1.527-1.049 3.138-2.051 1.611-1.003 2.992-1.983 3.068-2.178.077-.195.501-.355.942-.355.441 0 .802-.168.802-.373s.471-.491 1.046-.636c.575-.144 1.046-.447 1.046-.673 0-.225.282-.41.628-.41.345 0 .627-.188.627-.418 0-.231.269-.419.598-.419.329 0 .846-.248 1.15-.552.305-.303 1.354-.904 2.332-1.335.978-.432 1.778-.936 1.778-1.122 0-.186.282-.338.627-.338.346 0 .63-.141.632-.314.002-.173.85-.685 1.883-1.14 1.033-.454 1.881-.925 1.883-1.046.002-.121.849-.591 1.883-1.046 1.033-.454 1.878-.93 1.878-1.057s.846-.602 1.879-1.056c1.034-.455 1.881-.968 1.883-1.14.002-.173.287-.314.632-.314.345 0 .627-.188.627-.419 0-.23.301-.418.668-.418.602 0 2.996-1.143 3.517-1.68.115-.118 1.007-.589 1.982-1.046.976-.457 1.776-.972 1.778-1.144.003-.173.192-.314.421-.314.714 0 3.768-1.436 3.768-1.772 0-.176.301-.32.668-.32.738 0 3.227-1.284 3.447-1.778.076-.173.5-.314.941-.314.441 0 .802-.173.802-.385 0-.212.565-.51 1.255-.661.691-.152 1.256-.449 1.256-.661 0-.212.376-.385.836-.385.461 0 .837-.188.837-.419 0-.23.276-.418.614-.418.656 0 3.641-1.291 3.989-1.726.115-.143.821-.394 1.569-.556.748-.162 1.36-.468 1.36-.68 0-.212.376-.385.836-.385.461 0 .837-.174.837-.385 0-.212.606-.519 1.346-.681 1.244-.273 2.756-.944 3.257-1.445.285-.285 2.922-1.29 4.079-1.555.518-.119.942-.382.942-.586 0-.203.376-.369.836-.369.461 0 .837-.188.837-.419 0-.23.33-.419.732-.42.403-.001 1.659-.471 2.791-1.046 1.132-.574 2.233-1.044 2.447-1.044.368 0 .914-.22 4.554-1.833.84-.373 1.697-.678 1.904-.678.207 0 .883-.235 1.502-.523l1.126-.523.004-13.493L400 0l-15.586.033c-8.572.018-15.868.126-16.213.24"/><path fill="#6B7C85" d="M76.95 572.144c-.097.097-2.153.38-4.568.63-4.412.455-8.818.969-14.641 1.707-1.726.219-6.026.715-9.555 1.102l-6.417.704.27 1.082c.148.596.365 2.213.48 3.593.116 1.381.369 2.887.562 3.348.31.737.705 3.543 1.531 10.878.129 1.151.406 2.271.615 2.49.209.218.38 1.196.38 2.172s.16 1.874.357 1.995c.196.121.487 1.779.646 3.683.159 1.904.469 3.643.689 3.863s.4 1.209.4 2.199c0 .989.166 1.799.369 1.799s.501 1.411.663 3.135c.162 1.725.466 3.242.677 3.372.21.131.383.968.383 1.861 0 .894.166 1.727.369 1.853.203.125.5 1.452.66 2.949.161 1.496.465 2.828.677 2.959.212.131.386.875.386 1.654 0 .778.163 1.516.363 1.639.2.124.491 1.353.647 2.732.156 1.379.463 2.618.683 2.753.219.136.399.895.399 1.687s.188 1.44.418 1.44c.23 0 .427.612.437 1.359.01.748.29 2.113.621 3.034.332.92.606 2.086.61 2.59.003.504.194 1.033.424 1.176.23.142.419.812.419 1.489s.166 1.23.37 1.23.499 1.033.657 2.295.462 2.403.676 2.535c.214.132.389.794.389 1.471s.175 1.231.388 1.231c.214 0 .518 1.038.677 2.306.158 1.269.454 2.41.657 2.536.204.125.37.688.37 1.249 0 .562.17 1.022.379 1.022s.509.941.667 2.091c.158 1.151.458 2.197.667 2.326.208.129.379.683.379 1.231s.166 1.1.37 1.226c.204.125.497 1.073.652 2.107.155 1.033.459 1.987.676 2.121.217.134.394.704.394 1.265 0 .562.188 1.022.418 1.022.231 0 .419.336.419.748 0 .842 1.387 4.962 1.814 5.39.153.152.279.67.28 1.149.002.479.284 1.411.628 2.07.344.659.625 1.554.625 1.988 0 .434.188.789.418.789.231 0 .419.47.419 1.046 0 .575.188 1.046.418 1.046.23 0 .42.423.421.941.002.518.284 1.481.628 2.14.344.659.625 1.459.625 1.778 0 .319.188.58.418.58.23 0 .419.395.419.878 0 .803.743 2.83 1.709 4.66.21.4.383.936.383 1.192s.26 1.059.578 1.784c1.415 3.229 1.872 4.353 2.405 5.921.313.921.664 1.768.78 1.883.286.283 1.291 2.915 1.558 4.079.119.518.382.942.585.942.204 0 .37.376.37.837 0 .46.188.837.418.837.23 0 .419.281.419.624 0 .872 1.384 3.978 1.772 3.978.176 0 .321.33.322.732.002.403.284 1.272.628 1.931.344.659.625 1.459.625 1.778 0 .319.168.58.373.58s.492.471.636 1.048c.145.576.918 2.428 1.719 4.115s1.456 3.287 1.456 3.555c0 .268.141.488.314.489.173 0 .676.895 1.12 1.987.443 1.092.924 2.08 1.068 2.195.251.201.913 1.587 2.147 4.498.317.748.719 1.36.893 1.36s.316.187.316.415c0 .676 1.427 3.769 1.739 3.769.158 0 .411.565.562 1.255.152.691.403 1.255.559 1.255.156 0 .541.612.856 1.36 1.331 3.163 3.765 7.567 4.297 7.776.195.076.355.424.355.772 0 .569 1.147 2.955 1.674 3.482.188.188 1.011 1.629 2.27 3.974.247.461.544.931.659 1.046.115.116.584.963 1.042 1.883.458.921.928 1.768 1.046 1.883.117.116.566.869.998 1.674 1.474 2.746 2.437 4.392 2.939 5.021.276.345.864 1.333 1.308 2.196.444.863.952 1.569 1.13 1.569s.323.283.323.628.189.628.419.628c.23 0 .418.215.418.477 0 .263.753 1.671 1.674 3.128.92 1.458 1.673 2.843 1.673 3.079s.176.429.391.429c.214 0 .499.343.632.763.133.419.569 1.131.97 1.58.4.45 1.086 1.518 1.525 2.375.439.857.957 1.558 1.151 1.558s.352.163.352.363c0 .199 1.412 2.471 3.138 5.049 1.726 2.577 3.138 4.846 3.138 5.041 0 .196.159.418.354.495.391.154 3.726 4.841 4.586 6.444.3.56.681 1.018.846 1.018.165 0 .655.659 1.089 1.464.434.806.947 1.465 1.141 1.465s.353.241.353.535c0 .294.376.807.836 1.138.461.332.837.799.837 1.038 0 .24.434.904.963 1.477.53.573 1.323 1.654 1.764 2.402.44.748.949 1.359 1.129 1.359.181 0 .328.267.328.593 0 .326.149.656.33.732.181.077.981.981 1.778 2.008.797 1.028 1.778 2.24 2.181 2.694s.732.959.732 1.121.518.853 1.151 1.534a56.067 56.067 0 0 1 4.079 4.976c.461.638 1.12 1.456 1.465 1.819s1.185 1.407 1.867 2.32c.683.913 1.436 1.871 1.674 2.129a90.715 90.715 0 0 1 1.898 2.239c1.743 2.105 7.03 7.322 8.377 8.265.524.367 1.835 1.545 2.914 2.619 1.079 1.073 2.669 2.49 3.532 3.149.864.659 2.496 2.104 3.627 3.211 1.131 1.108 2.158 2.014 2.283 2.014.124 0 .654.424 1.178.941.525.518 2.233 2.072 3.796 3.452 1.564 1.381 3.33 2.981 3.926 3.557.595.575 1.844 1.674 2.775 2.443 1.596 1.318 5.111 4.452 9.223 8.226 1.003.921 2.605 2.333 3.56 3.138a91.162 91.162 0 0 1 3.275 2.929c.846.806 2.493 2.254 3.658 3.219a95.507 95.507 0 0 1 3.808 3.347c2.193 2.069 7.057 6.382 8.404 7.451.579.46 2.025 1.778 3.213 2.929 1.188 1.15 3.042 2.809 4.121 3.685a84.665 84.665 0 0 1 3.826 3.348c1.026.964 2.835 2.601 4.022 3.636a232.153 232.153 0 0 1 3.137 2.783l.98.9-5.729.267c-3.152.147-6.672.359-7.822.471-1.151.113-5.011.313-8.578.445-3.567.133-6.664.41-6.882.616-.219.207-2.811.376-5.759.376-2.949 0-5.689.178-6.088.395-.638.347-7.421.71-28.537 1.527-3.099.12-5.829.373-6.067.563-.238.189-5.139.481-10.893.648-5.753.167-10.836.415-11.297.55-.46.135-3.519.313-6.799.395-3.279.082-5.962.301-5.962.487 0 .185-4.737.474-10.526.642-5.788.168-10.919.411-11.401.54-.482.129-3.512.389-6.734.579-3.222.19-7.05.462-8.507.605l-2.65.26.28 8.015c.154 4.409.385 8.487.512 9.062.128.575.392 3.682.587 6.904.195 3.221.466 7.325.602 9.118l.247 3.261 6.975-.257c3.836-.142 7.54-.37 8.23-.508.69-.138 3.703-.316 6.695-.396 2.991-.08 5.815-.316 6.276-.524.46-.208 5.92-.588 12.134-.844 6.213-.256 13.838-.639 16.945-.851 3.107-.213 9.32-.573 13.808-.801 4.487-.227 9.477-.529 11.088-.67 4.152-.364 14.082-.958 23.849-1.427 4.602-.221 9.498-.517 10.879-.658 1.38-.141 5.57-.363 9.309-.493 3.74-.13 6.799-.403 6.799-.606s2.605-.37 5.788-.37c3.184 0 5.929-.141 6.1-.313.285-.287 14.759-1.102 28.698-1.616 3.107-.115 5.828-.386 6.046-.604.219-.217 2.403-.395 4.853-.395 6.267 0 10.894-.443 11.133-1.065.109-.284 1.505-1.903 3.103-3.596 1.598-1.694 3.01-3.409 3.139-3.812s.397-.732.595-.732c.432 0 .996-.558 2.93-2.896 1.562-1.889 2.599-3.066 5.168-5.864 1.261-1.373 1.544-1.953 1.303-2.669-.169-.503-.573-6.092-.896-12.421-.324-6.328-.757-14.048-.963-17.155-.206-3.106-.566-9.508-.8-14.226-.235-4.717-.54-9.989-.68-11.715-.14-1.726-.35-5.821-.468-9.1-.118-3.28-.36-5.963-.538-5.963-.178 0-.456-4.283-.618-9.519-.162-5.235-.389-10.083-.504-10.774-.116-.69-.316-4.173-.445-7.74s-.377-6.674-.551-6.904c-.174-.23-.451-4.561-.614-9.623-.164-5.063-.389-9.77-.5-10.461-.111-.69-.384-4.362-.607-8.159-.222-3.797-.58-9.445-.794-12.552-.615-8.902-1.708-28.527-1.935-34.728-.113-3.107-.384-5.827-.602-6.046-.217-.219-.395-1.889-.395-3.713v-3.315l-5.753.288c-3.164.159-8.483.466-11.82.683-3.337.218-8.702.503-11.922.634-3.221.131-6.092.435-6.381.675-.606.503-.748 6.842-.161 7.205.201.124.504 5.314.674 11.534.169 6.22.475 11.412.681 11.539.205.127.372 2.855.372 6.064 0 3.208.163 5.833.362 5.833.199 0 .501 4.934.671 10.964.17 6.03.477 11.409.684 11.952.206.543.375 3.331.375 6.196s.176 5.536.391 5.935c.346.645.989 12.559 1.53 28.342.103 2.991.357 5.816.567 6.276.209.46.499 5.029.645 10.153.146 5.125.364 9.738.484 10.252.12.513.309 3.852.42 7.419.11 3.567.392 6.877.625 7.355.233.477.362 1.49.287 2.251l-.137 1.382-1.746-1.624a133.79 133.79 0 0 0-3.461-3.088 127.773 127.773 0 0 1-3.511-3.138 77.947 77.947 0 0 0-3.442-3.003c-.906-.732-2.723-2.332-4.037-3.557-4.068-3.79-7.94-7.22-8.862-7.849-.485-.331-1.447-1.178-2.138-1.883-.69-.704-2.209-2.07-3.376-3.035a85.472 85.472 0 0 1-3.789-3.348c-1.879-1.794-6.84-6.181-8.426-7.45a42.027 42.027 0 0 1-2.151-1.883c-1.101-1.043-2.581-2.373-8.377-7.531a529.89 529.89 0 0 1-4.5-4.045 97.27 97.27 0 0 0-3.135-2.719 77.762 77.762 0 0 1-3.241-2.86 81.187 81.187 0 0 0-3.407-2.994c-1.021-.841-2.924-2.535-4.229-3.765-1.304-1.23-3.297-2.99-4.428-3.91-1.131-.921-2.794-2.596-3.695-3.723s-1.83-2.257-2.063-2.51c-.234-.254-1.076-1.309-1.871-2.345-.796-1.035-1.782-2.187-2.191-2.559-.409-.372-.744-.81-.744-.972s-.235-.548-.523-.858c-.288-.311-.9-1.066-1.36-1.678a31.856 31.856 0 0 0-1.987-2.321c-.633-.664-1.151-1.356-1.151-1.539s-.424-.801-.941-1.374c-.518-.573-1.601-1.949-2.406-3.059-.806-1.109-1.888-2.501-2.406-3.094-.518-.593-.942-1.192-.942-1.331-.001-.139-.567-.911-1.258-1.717-.691-.805-1.362-1.794-1.491-2.196-.13-.403-.411-.733-.626-.733s-.39-.282-.39-.627c0-.345-.148-.628-.33-.628-.181 0-1.161-1.271-2.178-2.824-1.017-1.554-2.092-3.073-2.39-3.377-.298-.304-.541-.693-.541-.863 0-.17-.33-.685-.733-1.143-.995-1.135-1.753-2.316-2.048-3.195-.135-.402-.383-.732-.55-.732-.167 0-.658-.659-1.092-1.464-.434-.806-.912-1.465-1.063-1.465s-.385-.329-.52-.732c-.329-.978-1.165-2.251-1.989-3.027-.37-.349-.806-1.058-.97-1.575-.163-.518-.472-.942-.687-.942-.215 0-.39-.282-.39-.627 0-.346-.185-.628-.411-.628-.225 0-.528-.471-.673-1.046-.144-.575-.43-1.046-.635-1.046s-.373-.192-.373-.427c0-.379-1.954-3.633-2.507-4.176-.117-.115-.575-.868-1.018-1.673-.443-.806-.914-1.559-1.046-1.674-.133-.115-.6-.915-1.039-1.778-.439-.863-.957-1.569-1.151-1.569s-.352-.377-.352-.837c0-.46-.168-.837-.373-.837-.206 0-.481-.427-.612-.95-.131-.522-.582-1.322-1.002-1.778-.42-.455-1.022-1.456-1.337-2.224-.315-.767-.779-1.618-1.031-1.891-.251-.272-.971-1.492-1.6-2.711-1.483-2.874-2.57-4.828-2.832-5.09-.115-.115-.868-1.573-1.674-3.24-.805-1.667-1.605-3.033-1.778-3.034-.172-.001-.314-.379-.314-.839 0-.46-.188-.837-.418-.837s-.418-.282-.418-.628c0-.345-.189-.627-.419-.627a.418.418 0 0 1-.418-.416c0-.714-1.437-3.768-1.773-3.768-.175 0-.319-.301-.319-.668 0-.738-1.284-3.227-1.779-3.447-.172-.076-.313-.424-.313-.772 0-.711-1.296-3.197-1.779-3.412-.172-.076-.313-.339-.313-.583 0-.245-.644-1.783-1.431-3.419-.787-1.636-1.56-3.491-1.719-4.123-.159-.632-.456-1.149-.661-1.149-.206 0-.373-.377-.373-.837 0-.461-.189-.837-.419-.837-.23 0-.419-.235-.42-.523-.001-.288-.458-1.422-1.015-2.52s-1.136-2.557-1.287-3.243c-.15-.685-.447-1.246-.658-1.246-.212 0-.386-.376-.386-.836 0-.461-.188-.837-.418-.837-.23 0-.42-.33-.421-.732-.001-.403-.284-1.272-.628-1.931-.343-.659-.625-1.459-.625-1.778s-.188-.58-.418-.58c-.23 0-.418-.301-.418-.669 0-.368-.283-1.309-.628-2.092-.345-.783-.896-2.035-1.223-2.783-.327-.748-.844-2.16-1.148-3.138s-.695-1.778-.869-1.778c-.174 0-.317-.261-.317-.58s-.281-1.119-.625-1.778c-.343-.66-.626-1.517-.627-1.906-.002-.389-.191-.824-.421-.966-.23-.143-.419-.625-.419-1.071 0-.447-.188-.812-.418-.812-.23 0-.418-.373-.418-.829 0-.811-.77-3.093-1.929-5.72-.32-.725-.582-1.714-.582-2.197 0-.483-.188-.878-.418-.878-.23 0-.419-.47-.419-1.046 0-.575-.164-1.046-.365-1.046-.2 0-.486-.761-.635-1.692-.149-.93-.433-2.013-.632-2.406-.61-1.202-1.147-2.694-1.914-5.316-.404-1.381-.875-2.887-1.046-3.347-.171-.461-.639-1.967-1.039-3.348-.401-1.38-.898-2.837-1.105-3.237-.207-.399-.377-1.105-.377-1.569 0-.463-.166-.842-.37-.842-.203 0-.499-1.033-.657-2.295-.157-1.262-.462-2.403-.676-2.535-.214-.132-.389-.689-.389-1.237s-.175-1.105-.389-1.237c-.214-.132-.518-1.273-.676-2.535-.157-1.262-.453-2.295-.657-2.295-.203 0-.37-.659-.37-1.464 0-.806-.188-1.465-.418-1.465-.23 0-.427-.612-.437-1.36-.01-.748-.29-2.113-.621-3.033-.332-.921-.606-2.006-.61-2.412-.003-.406-.175-1.065-.382-1.464-.436-.842-1.729-6.653-1.721-7.735.003-.403-.142-.732-.321-.732-.318 0-1.213-4.287-1.638-7.845-.117-.978-.382-1.779-.588-1.779-.207 0-.377-.753-.377-1.673 0-.921-.171-1.674-.381-1.674-.209 0-.514-1.6-.677-3.556-.163-1.957-.462-3.557-.665-3.557s-.369-.816-.369-1.813-.141-1.953-.314-2.124c-.29-.288-1.075-5.145-1.629-10.08-.129-1.15-.386-2.28-.571-2.51s-.473-2.353-.639-4.716c-.167-2.364-.467-4.399-.667-4.523-.2-.124-.364-1.155-.364-2.292 0-1.923-.797-2.804-1.711-1.89"/></svg>