<svg xmlns="http://www.w3.org/2000/svg" width="194.725" height="119.071" viewBox="0 0 5152 3150" shape-rendering="geometricPrecision" text-rendering="geometricPrecision" image-rendering="optimizeQuality" fill-rule="evenodd" clip-rule="evenodd"><defs><style>.fil1{fill:#3b92e8}</style></defs><g id="Слой_x0020_1"><g id="_1622361581952"><path d="M630 1961v82H0v-891h611v82H94v316h461v81H94v330h536zm394-727H711v-82h720v82h-313v809h-94v-809zm1187 727v82h-629v-891h610v82h-516v316h460v81h-460v330h535zm830 82l-203-287c-23 3-47 4-72 4h-239v283h-94v-891h333c114 0 203 27 267 82 65 54 97 128 97 223 0 70-17 129-53 177-35 48-85 82-150 103l217 306h-103zm-277-363c88 0 155-19 202-58s70-94 70-165c0-72-23-127-70-166-47-38-114-57-202-57h-237v446h237zm1333-528v891h-77l-573-723v723h-94v-891h77l574 723v-723h93zm849 653h-496l-107 238h-98l407-891h93l407 891h-99l-107-238zm-34-77l-214-478-214 478h428z" fill="#3b92e8" fill-rule="nonzero"/><path class="fil1" d="M1020 0h87v648h-87z"/><path class="fil1" d="M1020 87V0h2417v87zm0 3063h87v-633h-87z"/><path class="fil1" d="M1020 3064v86h2417v-86z"/></g></g></svg>