<?xml version="1.0" standalone="no"?>
<!DOCTYPE svg PUBLIC "-//W3C//DTD SVG 20010904//EN"
 "http://www.w3.org/TR/2001/REC-SVG-20010904/DTD/svg10.dtd">
<svg version="1.0" xmlns="http://www.w3.org/2000/svg"
 width="1024.000000pt" height="1024.000000pt" viewBox="0 0 1024.000000 1024.000000"
 preserveAspectRatio="xMidYMid meet">
<metadata>
Created by potrace 1.14, written by Peter Selinger 2001-2017
</metadata>
<g transform="translate(0.000000,1024.000000) scale(0.100000,-0.100000)"
fill="#000000" stroke="none">
<path d="M5360 8473 c-1249 -71 -2195 -621 -2831 -1645 -363 -584 -544 -1210
-565 -1948 -27 -953 252 -1715 837 -2285 147 -144 255 -231 404 -330 394 -261
809 -404 1350 -467 168 -19 637 -16 815 5 479 58 932 212 1329 451 471 284
870 723 1180 1298 l52 97 -33 6 c-18 3 -364 59 -768 125 -404 66 -747 122
-761 125 -23 5 -30 -2 -77 -79 -269 -439 -623 -703 -1052 -783 -135 -25 -423
-25 -540 1 -239 52 -433 154 -608 320 -280 266 -422 635 -422 1097 l0 139
2233 0 2234 0 16 78 c50 235 81 467 97 722 55 890 -118 1606 -514 2134 -80
106 -289 321 -396 406 -397 316 -853 484 -1439 529 -123 10 -404 12 -541 4z
m206 -1234 c295 -30 520 -133 704 -325 178 -185 273 -385 325 -684 19 -109 35
-324 35 -467 l0 -113 -1395 0 -1395 0 6 28 c65 289 131 483 231 682 91 182
180 307 308 435 216 217 452 354 714 414 166 39 296 47 467 30z"/>
</g>
</svg>
