<svg xmlns="http://www.w3.org/2000/svg" width="59" height="60" viewBox="0 0 59 60"><defs><clipPath id="a"><path fill="none" d="M0 0h14.78v27.918H0z"/></clipPath></defs><g transform="translate(-.496)"><rect width="59" height="60" rx="6" transform="translate(.496)" fill="#0080ff"/><path fill="rgba(0,0,0,0)" d="M5.263 5.602h44.422v42.407H5.263z"/><path d="M30.326 4.918c14.416 0 26.1 11.157 26.1 24.919s-11.681 24.919-26.1 24.919-26.1-11.156-26.1-24.919 11.687-24.919 26.1-24.919z" fill="#0080ff"/><g transform="translate(21.751 15.882)" clip-path="url(#a)"><path d="M9.595 27.918V15.184h4.356l.649-4.964H9.595V7.051c0-1.437.405-2.416 2.508-2.416h2.677V.194A37.011 37.011 0 0010.878 0C7.014 0 4.369 2.313 4.369 6.56v3.66H0v4.964h4.369v12.734z" fill="#fff"/></g></g></svg>