<svg width="79" height="115" viewBox="0 0 79 115" fill="none" xmlns="http://www.w3.org/2000/svg"><path d="M39.488 115l-10.451-5.985V97.019l10.45 5.986V115z" fill="#D0D2D3"/><path d="M49.914 109.015L39.488 115v-11.995l10.426-5.986v11.996z" fill="#BBBDBF"/><path d="M49.914 97.02l-10.426 5.985-10.451-5.986 10.45-6.01 10.427 6.01z" fill="#191919"/><path d="M39.488 110.266l-17.402-9.984v-6.894l17.402 9.984v6.894z" fill="#E6E7E8"/><path d="M56.89 100.282l-17.402 9.984v-6.894l17.402-9.984v6.894z" fill="#D0D2D3"/><path d="M56.89 93.388l-17.402 9.984-17.402-9.984L39.487 83.38 56.89 93.388z" fill="#BBBDBF"/><path d="M39.488 102.097l-17.402-9.984V85.22l17.402 10.008v6.869z" fill="#E6E7E8"/><path d="M56.89 92.113l-17.402 9.984v-6.869L56.89 85.22v6.893z" fill="#D0D2D3"/><path d="M56.89 85.22l-17.402 9.984-17.402-9.984 17.401-10.01L56.89 85.22z" fill="#BBBDBF"/><path d="M39.488 94.026l-17.402-9.984V77.15l17.402 9.984v6.893z" fill="#E6E7E8"/><path d="M56.89 84.042l-17.402 9.984v-6.893L56.89 77.15v6.893z" fill="#D0D2D3"/><path d="M56.89 77.15l-17.402 9.983-17.402-9.984 17.402-10.008L56.89 77.149z" fill="#191919"/><path d="M39.488 85.98l-17.402-9.984v-6.893l17.402 9.984v6.893z" fill="#4C4C4C"/><path d="M56.89 75.996L39.488 85.98v-6.893l17.402-9.984v6.893z" fill="#7F7F7F"/><path d="M56.89 69.103l-17.402 9.984-17.402-9.984 17.402-10.008L56.89 69.102z" fill="#4D4D4D"/><path d="M39.488 87.967L6.63 69.103 1.208 51.711V22.004l38.28 21.98v43.983z" fill="#FFCB00"/><path d="M71.778 69.397l-32.29 18.57V43.984l38.28-21.98v29.363l-5.99 18.03z" fill="#FFB600"/><path d="M77.767 21.98l-38.28 22.004-38.28-22.005L39.488 0l38.28 21.98z" fill="#FFCB00"/><g opacity=".5" fill="#fff"><path opacity=".5" d="M6.73 25.144v20.68l6.53 3.776V28.92l-6.53-3.775z"/><path opacity=".5" d="M31.354 11.088L6.729 25.144l6.532 3.778 24.624-14.056-6.531-3.778z"/></g><path d="M39.488 71.948L0 49.454 4.831 69.2l34.657 19.747v-17z" fill="#E9ECF2"/><path d="M39.488 71.949v17l33.769-19.453L79 49.184 39.488 71.95z" fill="#F0F4F8"/><path d="M79 49.184l-1.208-.711L39.488 70.55v1.398L79 49.184z" fill="#F4F9FD"/><path d="M1.232 48.742L0 49.454l39.488 22.494V70.55L1.232 48.742z" fill="#EEF3F7"/></svg>