<svg width="56" height="116" viewBox="0 0 56 116" fill="none" xmlns="http://www.w3.org/2000/svg"><path d="M20.239 35.033l.669-2.396 16.93-3.16-.563 2.5-5.949 3.056H20.24z" fill="#FFB600"/><path d="M20.415 47.566L0 68.121l21.154-28.61-.74 8.055z" fill="#FFCB00"/><path d="M0 68.121l18.936-17.082 1.479-3.472L0 68.12z" fill="#FFB600"/><path d="M20.239 34.234h11.087l5.526-22.082-22.14-.035 5.527 22.117z" fill="#F1F1F2"/><path d="M31.326 34.234l5.562-3.16L47.94 12.153H36.852l-5.526 22.082z" fill="#E6E7E8"/><path d="M36.852 12.152l3.274-10.798L12.038 4.41l2.675 7.707 22.14.035z" fill="#FFCB00"/><path d="M40.126 1.354C40.407 1.528 52.797 0 52.797 0l-4.822 12.152H36.852l3.274-10.798z" fill="#FFB600"/><path d="M20.239 35.033l-8.976 36.004 22.175 3.334-2.112-39.338H20.24z" fill="#FFCB00"/><path d="M33.438 74.37l14.15-5.069-10.313-37.324-5.949 3.056 2.112 39.338z" fill="#FFB600"/><path d="M12.918 71.21l7.462 41.561 4.329-34.998L36.5 116l-3.062-41.63-20.52-3.16z" fill="#F1F1F2"/><path d="M36.5 116l8.87-45.935-11.932 4.306L36.5 116z" fill="#E6E7E8"/><path d="M35.515 48.435L56 69.058 34.776 40.345l.739 8.09z" fill="#FFCB00"/><path d="M56 69.059L36.958 51.907l-1.443-3.472L56 69.059z" fill="#F4A800"/></svg>