<svg width="111" height="116" viewBox="0 0 111 116" fill="none" xmlns="http://www.w3.org/2000/svg"><path d="M55.476 49.888l7.668 4.434v35.614l-7.668-4.434V49.888z" fill="#FFCB00"/><path d="M55.476 49.888l-7.62 4.434v35.614l7.62-4.434V49.888z" fill="#FFB600"/><path d="M70.764 94.32l-15.288 18.124V85.502l15.288 8.818z" fill="#FFD533"/><path d="M55.476 112.444L40.187 94.369l15.289-8.867v26.942zm0-48.232l-7.62-4.385V24.213l7.62 4.434v35.565z" fill="#FFCB00"/><path d="M55.476 64.212l7.668-4.385-.048-35.614-7.62 4.434v35.565z" fill="#FFB600"/><path d="M40.187 19.78L55.524 1.705l-.048 26.942-15.289-8.867z" fill="#FFD533"/><path d="M55.524 1.705l15.24 18.075-15.288 8.867.048-26.942zm-.048 55.15v-7.697h33.1l-4.416 7.697H55.476z" fill="#FFCB00"/><path d="M55.476 56.855v7.65h33.1l-4.416-7.65H55.476z" fill="#FFB600"/><path d="M92.945 41.508L111 56.855H84.16l8.785-15.346z" fill="#FFD533"/><path d="M111 56.855L92.993 72.202 84.16 56.855H111zm-55.476-.049v-7.648h-33.1l4.416 7.648h28.684z" fill="#FFCB00"/><path d="M55.524 56.806v7.698l-33.1-.049 4.416-7.649h28.684z" fill="#FFB600"/><path d="M18.007 41.46L0 56.855l26.84-.049-8.833-15.346z" fill="#FFD533"/><path d="M0 56.855l18.007 15.298 8.833-15.347-26.84.05z" fill="#FFCB00"/></svg>