<svg width="74" height="111" viewBox="0 0 74 111" fill="none" xmlns="http://www.w3.org/2000/svg"><g clip-path="url(#clip0)"><path d="M0 100.642L18.48 111V41.773L0 31.148v69.494z" fill="#FFB600"/><path d="M18.48 111L74 79.623l-.04-69.228-55.48 31.378V111z" fill="#FFCB00"/><path d="M0 31.148L55.48 0l18.48 10.396-55.48 31.377L0 31.148z" fill="#FFD533"/><path d="M42.05 79.852l-11.863-11.31 2.193-2.209 8.849 8.454 21.456-39.945 2.78 1.41-23.414 43.6z" fill="#F1F1F2"/><path d="M62.685 34.842l-1.567-.838-21.22 39.488 1.33 1.295 21.457-39.945zm-32.498 33.7l-.783-.8 2.154-2.17.822.761-2.193 2.209z" fill="#fff"/></g><defs><clipPath id="clip0"><path fill="#fff" d="M0 0h74v111H0z"/></clipPath></defs></svg>