<svg version="1.0" xmlns="http://www.w3.org/2000/svg" width="682.667" height="682.667" viewBox="0 0 512 512"><path d="M0 246.3v33.3h6.9l6.9-.1-.1-22.3c0-12.2.2-22.4.4-22.7.2-.2 2.4 5.3 4.7 12.3 2.4 7 6 17.3 8 22.9l3.6 10.1 5.6-.2 5.5-.2 1.8-4.9c1.1-2.8 4.8-13.3 8.3-23.5l6.3-18.5.1 23.5v23.5h13.5l.3-33.3.2-33.2H51.1L45 232.2c-3.4 10.6-6.6 20.8-7.2 22.6-.5 1.8-1.2 3.1-1.6 2.8-.5-.6-3.4-8.6-10.8-30.9L20.8 213H0v33.3zm194.9-32.9c-.2.2-.2 2.6-.1 5.4l.4 4.9 6.4.1 6.4.1V213h-6.3c-3.5 0-6.6.2-6.8.4zm104.6 32.8l.1 33.3h7.2c4.3.1 7.2-.3 7.3-1 0-.5.2-6.6.2-13.5l.2-12.5 13.9-.5 13.9-.5v-4.8c0-2.6-.4-5.1-.8-5.5-.3-.4-6.6-.7-13.8-.7h-13.2l-.2-7.6-.2-7.7 15.5.1c8.5 0 15.8-.3 16.2-.7.4-.4.7-3.2.7-6.2l.1-5.4h-47.1v33.2zm54.5.1v33.3h6.5c6.3.1 6.5 0 6.5-2.5.1-26 .1-61.9.1-62.9-.1-.8-2.1-1.2-6.6-1.2H354v33.3zm82.9-28.1c-.1.7-.1 3.9-.1 7v5.8H433c-4.2 0-4.9 1.1-4.2 6.2.4 2.5.8 2.8 4.2 2.8h3.7l.1 16.4c0 18.7.6 20.5 7.1 22.4 2.1.7 6.6 1.2 9.9 1.2h6.1l-.2-5.3c-.2-5.2-.2-5.2-3.3-4.9-5.7.6-6.4-1.2-6.4-16.4v-13.6l4.8.3 4.7.3.2-4.6.2-4.6h-3.7c-2 0-4.3 0-4.9-.1-.9-.1-1.3-2.2-1.3-7.1v-7h-6.5c-4.5 0-6.5.4-6.6 1.2zM95 231.5c-5.4 1.7-8.7 4.6-10.6 9.1-2.2 5.2-1.9 5.4 5.1 5.4 3.9 0 6.5-.4 6.5-1s1.1-2.2 2.5-3.5c4.2-4.3 14-2.9 14.5 2 .7 6 0 6.4-13.1 8-13.2 1.5-18.9 6.4-18.4 15.6.5 7.1 3.9 11.3 10.6 12.9 7.6 1.8 18.6-.4 21.1-4.3.4-.6.9 0 1.3 1.4.6 2.3 1 2.5 6.7 2.4h6.1l-.2-19c-.2-22-1-24.7-7.6-27.9-5.2-2.6-18.2-3.1-24.5-1.1zm18.5 30c-.7 7.4-3.9 10.5-10.8 10.5-4.8 0-7.7-2.4-7.7-6.5 0-3.9 2.6-5.8 9.4-6.9 2.2-.4 4.1-.8 4.2-.9.2-.1 1.4-.3 2.8-.5 2.3-.2 2.4.1 2.1 4.3zm35.5-30.2c-8.2 3.8-12.9 11.4-13.4 21.7-.3 4.7 1.6 12.9 3.8 16.6 5.3 8.9 21.1 11.4 28.5 4.5l3.1-2.9v4.9c0 2.8-.7 6.3-1.5 7.8-3 6-12.8 6.7-17.5 1.3-2.3-2.6-3.1-2.9-8.5-2.8-3.3.1-5.9.4-5.7.8.1.5.2 1.7.2 2.8 0 2.9 4.9 7.6 10.2 9.9 3.4 1.4 6.4 1.8 12.4 1.7 8.5-.3 12.8-1.9 17.7-6.4 4.7-4.4 5.4-9.2 5.3-35.7l-.1-24-6.2-.2-6.3-.2v6.4l-1.8-2.2c-3.6-4.6-14.3-6.7-20.2-4zm15.9 10c4 2.1 6.3 7.4 5.8 14-.4 7-2.9 10.8-8.1 12.1-7.3 1.9-12.5-2.5-13.4-11.2-1.1-12 6.8-19.5 15.7-14.9zm67.8-9.9c-5.7 2.1-10 5.8-12.7 11.2-2 4.1-2.5 6.3-2.4 13.4 0 9.2 1.1 12.5 6.1 17.8 4.3 4.4 9.9 6.7 17.2 6.8 11.4.2 19.8-5.2 22.5-14.4l1.3-4.7-5.5-.3c-6.6-.4-8.2.1-8.2 2.7 0 1-1.4 3.1-3.1 4.5-6.4 5.4-14.7 1.9-16.8-7.2-2-8.2.7-17.2 6-20 5-2.7 13.9.8 13.9 5.5 0 .7.6 1.3 1.3 1.4 3 .3 11.8.1 12.2-.2.9-1-2.7-8.6-5.6-11.6-5.6-5.7-17.6-7.9-26.2-4.9zm247 0c-5.3 1.9-10.6 6.6-13.2 11.6-4.7 9.2-2.9 23.7 3.8 30.8 8.3 8.9 27.9 9.1 35.5.5 2-2.3 5.2-8.2 5.2-9.5 0-.2-2.4-.3-5.3-.3-4.4 0-5.8.5-8 2.7-3.1 3.1-8.5 4.4-13 3.1-3.4-.9-7.7-6.3-7.7-9.4 0-1.8 1.1-1.9 17.5-1.9H512v-3.6c0-17.9-16-29.8-32.3-24zm14.5 10.6c1.4 1.1 3.1 3.3 3.6 5l1.1 3-4.2.1c-17.9.3-18 .3-17.2-2.4 1.9-6.5 11.5-9.9 16.7-5.7zm-299.3-8.7c-.1 3-.1 38.3 0 42.8l.1 3.6 6.5-.1h6.5v-48.4l-6.5-.1c-6 0-6.5.1-6.6 2.2zm183-.9c-.4 4.4.2 34.6.7 37 1 4.5 3.3 7.5 7.4 9.6 6.8 3.4 19.1 1.4 22.3-3.7 1.2-1.9 2.7-.7 2.2 1.7-.4 2.3-.7 2.2 6.8 2.5l5.7.2v-48.6h-6c-3.3 0-6.2.4-6.5.9-.3.5-.6 7.1-.7 14.7 0 7.6-.5 15.3-1 17.1-1.7 6.2-10.6 8.8-15.1 4.3-2.1-2-2.2-3.2-2.5-19.6l-.4-17.4-6.4.1c-3.9.1-6.4.5-6.5 1.2z"/></svg>