<?xml version="1.0" standalone="no"?>
<!DOCTYPE svg PUBLIC "-//W3C//DTD SVG 20010904//EN"
 "http://www.w3.org/TR/2001/REC-SVG-20010904/DTD/svg10.dtd">
<svg version="1.0" xmlns="http://www.w3.org/2000/svg"
 width="700.000000pt" height="700.000000pt" viewBox="0 0 700.000000 700.000000"
 preserveAspectRatio="xMidYMid meet">
<metadata>
Created by potrace 1.11, written by Peter Selinger 2001-2013
</metadata>
<g transform="translate(0.000000,700.000000) scale(0.100000,-0.100000)"
fill="#000000" stroke="none">
<path d="M2389 5238 c-7 -15 -2 -3051 5 -3056 8 -4 217 -6 358 -3 l36 1 0
1271 c0 699 2 1272 4 1274 2 2 33 -54 69 -123 66 -128 404 -766 464 -877 18
-33 58 -109 90 -170 32 -60 133 -252 225 -425 92 -173 193 -364 225 -425 138
-260 277 -520 281 -524 3 -3 502 -5 549 -2 7 1 10 518 10 1531 l0 1530 -202 0
-203 0 -2 -1277 c-3 -1134 -5 -1273 -18 -1247 -8 16 -40 76 -71 134 -31 58
-84 159 -119 225 -34 66 -75 143 -90 170 -15 28 -58 109 -95 180 -37 72 -75
144 -85 160 -9 17 -48 89 -85 160 -37 72 -85 162 -105 200 -21 39 -94 178
-164 310 -70 132 -131 249 -137 259 -6 10 -31 58 -56 105 -25 47 -104 196
-176 331 -72 135 -136 255 -141 267 l-11 23 -277 0 c-153 0 -279 -1 -279 -2z"/>
</g>
</svg>
