<svg width="237" height="22" viewBox="0 0 237 22" fill="none" xmlns="http://www.w3.org/2000/svg">
<path d="M46.808 11.272C46.808 12.1253 46.7067 12.904 46.504 13.608C46.3013 14.312 45.992 14.9253 45.576 15.448C45.16 15.96 44.632 16.36 43.992 16.648L46.744 19.72H43.64L41.544 17.16C41.512 17.16 41.48 17.16 41.448 17.16C41.4267 17.16 41.4 17.16 41.368 17.16C40.44 17.16 39.6293 17.0213 38.936 16.744C38.2533 16.456 37.688 16.056 37.24 15.544C36.8027 15.0213 36.472 14.3973 36.248 13.672C36.0347 12.9467 35.928 12.1413 35.928 11.256C35.928 10.072 36.12 9.04267 36.504 8.168C36.8987 7.29333 37.496 6.616 38.296 6.136C39.1067 5.64533 40.136 5.4 41.384 5.4C42.6213 5.4 43.64 5.64533 44.44 6.136C45.24 6.616 45.832 7.29867 46.216 8.184C46.6107 9.05867 46.808 10.088 46.808 11.272ZM38.472 11.272C38.472 12.072 38.5733 12.76 38.776 13.336C38.9787 13.912 39.2933 14.3547 39.72 14.664C40.1467 14.9733 40.696 15.128 41.368 15.128C42.0613 15.128 42.616 14.9733 43.032 14.664C43.4587 14.3547 43.768 13.912 43.96 13.336C44.1627 12.76 44.264 12.072 44.264 11.272C44.264 10.0667 44.04 9.12267 43.592 8.44C43.144 7.75733 42.408 7.416 41.384 7.416C40.7013 7.416 40.1467 7.57067 39.72 7.88C39.2933 8.18933 38.9787 8.632 38.776 9.208C38.5733 9.784 38.472 10.472 38.472 11.272ZM48.2144 13.688V11.736H52.4064V13.688H48.2144ZM58.6026 17H53.4026V15.624L54.7946 14.984V7.592L53.4026 6.952V5.576H58.6026V6.952L57.2106 7.592V14.984L58.6026 15.624V17ZM70.6774 17H67.6054L62.6294 8.36H62.5654C62.576 8.62667 62.5867 8.89867 62.5974 9.176C62.608 9.44267 62.6187 9.71467 62.6294 9.992C62.6507 10.2587 62.6667 10.5307 62.6774 10.808C62.688 11.0747 62.6987 11.3467 62.7094 11.624V17H60.5494V5.576H63.6054L68.5654 14.136H68.6134C68.6027 13.8693 68.592 13.608 68.5814 13.352C68.5707 13.0853 68.56 12.824 68.5494 12.568C68.5494 12.3013 68.544 12.04 68.5334 11.784C68.5227 11.5173 68.512 11.2507 68.5014 10.984V5.576H70.6774V17ZM75.949 17H73.565V5.576H80.109V7.56H75.949V10.504H79.821V12.488H75.949V17ZM92.7143 11.272C92.7143 12.1573 92.6023 12.9627 92.3783 13.688C92.1649 14.4027 91.8343 15.0213 91.3863 15.544C90.9489 16.0667 90.3836 16.4667 89.6903 16.744C89.0076 17.0213 88.2023 17.16 87.2743 17.16C86.3463 17.16 85.5356 17.0213 84.8423 16.744C84.1596 16.456 83.5943 16.056 83.1463 15.544C82.7089 15.0213 82.3783 14.3973 82.1543 13.672C81.9409 12.9467 81.8343 12.1413 81.8343 11.256C81.8343 10.072 82.0263 9.04267 82.4103 8.168C82.8049 7.29333 83.4023 6.616 84.2023 6.136C85.0129 5.64533 86.0423 5.4 87.2903 5.4C88.5276 5.4 89.5463 5.64533 90.3463 6.136C91.1463 6.616 91.7383 7.29867 92.1223 8.184C92.5169 9.05867 92.7143 10.088 92.7143 11.272ZM84.3783 11.272C84.3783 12.072 84.4796 12.76 84.6823 13.336C84.8849 13.912 85.1996 14.3547 85.6263 14.664C86.0529 14.9733 86.6023 15.128 87.2743 15.128C87.9676 15.128 88.5223 14.9733 88.9383 14.664C89.3649 14.3547 89.6743 13.912 89.8663 13.336C90.0689 12.76 90.1703 12.072 90.1703 11.272C90.1703 10.0667 89.9463 9.12267 89.4983 8.44C89.0503 7.75733 88.3143 7.416 87.2903 7.416C86.6076 7.416 86.0529 7.57067 85.6263 7.88C85.1996 8.18933 84.8849 8.632 84.6823 9.208C84.4796 9.784 84.3783 10.472 84.3783 11.272ZM93.912 15.88C93.912 15.3893 94.0453 15.048 94.312 14.856C94.5787 14.6533 94.904 14.552 95.288 14.552C95.6613 14.552 95.9813 14.6533 96.248 14.856C96.5147 15.048 96.648 15.3893 96.648 15.88C96.648 16.3493 96.5147 16.6907 96.248 16.904C95.9813 17.1067 95.6613 17.208 95.288 17.208C94.904 17.208 94.5787 17.1067 94.312 16.904C94.0453 16.6907 93.912 16.3493 93.912 15.88ZM103.054 7.432C102.595 7.432 102.184 7.52267 101.822 7.704C101.47 7.88533 101.171 8.14667 100.926 8.488C100.68 8.81867 100.494 9.224 100.366 9.704C100.248 10.184 100.19 10.7227 100.19 11.32C100.19 12.1307 100.286 12.824 100.478 13.4C100.68 13.9653 100.995 14.3973 101.422 14.696C101.848 14.9947 102.392 15.144 103.054 15.144C103.523 15.144 103.987 15.0907 104.446 14.984C104.915 14.8773 105.422 14.728 105.966 14.536V16.568C105.464 16.7707 104.968 16.92 104.478 17.016C103.987 17.112 103.438 17.16 102.83 17.16C101.656 17.16 100.686 16.92 99.9176 16.44C99.1603 15.9493 98.6003 15.2667 98.2376 14.392C97.875 13.5067 97.6936 12.4773 97.6936 11.304C97.6936 10.44 97.811 9.65067 98.0456 8.936C98.2803 8.21067 98.6216 7.58667 99.0696 7.064C99.5283 6.54133 100.088 6.136 100.75 5.848C101.422 5.56 102.19 5.416 103.054 5.416C103.619 5.416 104.184 5.49067 104.75 5.64C105.326 5.77867 105.875 5.97067 106.398 6.216L105.614 8.184C105.187 7.98133 104.755 7.80533 104.318 7.656C103.891 7.50667 103.47 7.432 103.054 7.432ZM118.449 11.272C118.449 12.1573 118.337 12.9627 118.113 13.688C117.899 14.4027 117.569 15.0213 117.121 15.544C116.683 16.0667 116.118 16.4667 115.425 16.744C114.742 17.0213 113.937 17.16 113.009 17.16C112.081 17.16 111.27 17.0213 110.577 16.744C109.894 16.456 109.329 16.056 108.881 15.544C108.443 15.0213 108.113 14.3973 107.889 13.672C107.675 12.9467 107.569 12.1413 107.569 11.256C107.569 10.072 107.761 9.04267 108.145 8.168C108.539 7.29333 109.137 6.616 109.937 6.136C110.747 5.64533 111.777 5.4 113.025 5.4C114.262 5.4 115.281 5.64533 116.081 6.136C116.881 6.616 117.473 7.29867 117.857 8.184C118.251 9.05867 118.449 10.088 118.449 11.272ZM110.113 11.272C110.113 12.072 110.214 12.76 110.417 13.336C110.619 13.912 110.934 14.3547 111.361 14.664C111.787 14.9733 112.337 15.128 113.009 15.128C113.702 15.128 114.257 14.9733 114.673 14.664C115.099 14.3547 115.409 13.912 115.601 13.336C115.803 12.76 115.905 12.072 115.905 11.272C115.905 10.0667 115.681 9.12267 115.233 8.44C114.785 7.75733 114.049 7.416 113.025 7.416C112.342 7.416 111.787 7.57067 111.361 7.88C110.934 8.18933 110.619 8.632 110.417 9.208C110.214 9.784 110.113 10.472 110.113 11.272ZM125.647 17L122.895 8.04H122.831C122.842 8.25333 122.858 8.57333 122.879 9C122.9 9.42667 122.922 9.88533 122.943 10.376C122.964 10.856 122.975 11.2933 122.975 11.688V17H120.815V5.576H124.111L126.815 14.312H126.863L129.727 5.576H133.023V17H130.767V11.592C130.767 11.2293 130.772 10.8133 130.783 10.344C130.804 9.87467 130.82 9.432 130.831 9.016C130.852 8.58933 130.868 8.26933 130.879 8.056H130.815L127.871 17H125.647Z" fill="white"/>
<path d="M0 13.8136C0 11.8224 0.521067 10.2314 1.54841 9.08148C2.78901 7.69316 5.59063 7.30933 8.2205 7.21672V4L15.0113 9.23688L8.2205 14.7224V11.5057C6.62374 11.5427 4.57593 11.8765 3.61571 12.2575C2.57827 12.6693 2.14448 13.2927 1.54841 14.365L0.357413 17.9391L0 13.8136Z" fill="white"/>
<circle cx="22.6914" cy="7.51443" r="3.30862" fill="#FF8149"/>
<line x1="151.5" y1="1.5" x2="151.5" y2="20.5" stroke="#E9EDF5"/>
<path d="M169.261 16.5H167.398L171.585 4.86364H173.614L177.801 16.5H175.938L172.648 6.97727H172.557L169.261 16.5ZM169.574 11.9432H175.619V13.4205H169.574V11.9432ZM179.345 16.5V7.77273H180.987V9.15909H181.078C181.237 8.68939 181.518 8.32008 181.919 8.05114C182.324 7.77841 182.783 7.64205 183.294 7.64205C183.4 7.64205 183.525 7.64583 183.669 7.65341C183.817 7.66098 183.932 7.67045 184.016 7.68182V9.30682C183.947 9.28788 183.826 9.26705 183.652 9.24432C183.478 9.2178 183.304 9.20455 183.129 9.20455C182.728 9.20455 182.37 9.28977 182.055 9.46023C181.745 9.62689 181.499 9.85985 181.317 10.1591C181.135 10.4545 181.044 10.7917 181.044 11.1705V16.5H179.345ZM188.849 16.6761C188.005 16.6761 187.277 16.4848 186.668 16.1023C186.062 15.7159 185.596 15.1837 185.27 14.5057C184.944 13.8277 184.781 13.0511 184.781 12.1761C184.781 11.2898 184.948 10.5076 185.281 9.82955C185.615 9.14773 186.084 8.61553 186.69 8.23295C187.296 7.85038 188.01 7.65909 188.832 7.65909C189.495 7.65909 190.086 7.7822 190.605 8.02841C191.124 8.27083 191.543 8.61174 191.861 9.05114C192.183 9.49053 192.374 10.0038 192.435 10.5909H190.781C190.69 10.1818 190.482 9.82955 190.156 9.53409C189.834 9.23864 189.402 9.09091 188.861 9.09091C188.387 9.09091 187.973 9.21591 187.616 9.46591C187.264 9.71212 186.99 10.0644 186.793 10.5227C186.596 10.9773 186.497 11.5152 186.497 12.1364C186.497 12.7727 186.594 13.322 186.787 13.7841C186.98 14.2462 187.253 14.6042 187.605 14.858C187.961 15.1117 188.38 15.2386 188.861 15.2386C189.183 15.2386 189.474 15.1799 189.736 15.0625C190.001 14.9413 190.223 14.7689 190.401 14.5455C190.582 14.322 190.709 14.053 190.781 13.7386H192.435C192.374 14.303 192.19 14.8068 191.884 15.25C191.577 15.6932 191.166 16.0417 190.651 16.2955C190.139 16.5492 189.539 16.6761 188.849 16.6761ZM195.95 11.3182V16.5H194.251V4.86364H195.928V9.19318H196.036C196.24 8.72348 196.553 8.35038 196.973 8.07386C197.393 7.79735 197.943 7.65909 198.621 7.65909C199.219 7.65909 199.742 7.7822 200.189 8.02841C200.64 8.27462 200.988 8.64205 201.234 9.13068C201.484 9.61553 201.609 10.2216 201.609 10.9489V16.5H199.911V11.1534C199.911 10.5133 199.746 10.017 199.416 9.66477C199.087 9.30871 198.628 9.13068 198.041 9.13068C197.64 9.13068 197.28 9.21591 196.962 9.38636C196.647 9.55682 196.399 9.80682 196.217 10.1364C196.039 10.4621 195.95 10.8561 195.95 11.3182ZM203.876 16.5V7.77273H205.575V16.5H203.876ZM204.734 6.42614C204.439 6.42614 204.185 6.32765 203.973 6.13068C203.765 5.92992 203.661 5.69129 203.661 5.41477C203.661 5.13447 203.765 4.89583 203.973 4.69886C204.185 4.49811 204.439 4.39773 204.734 4.39773C205.03 4.39773 205.282 4.49811 205.49 4.69886C205.702 4.89583 205.808 5.13447 205.808 5.41477C205.808 5.69129 205.702 5.92992 205.49 6.13068C205.282 6.32765 205.03 6.42614 204.734 6.42614ZM211.935 7.77273V9.13636H207.168V7.77273H211.935ZM208.446 5.68182H210.145V13.9375C210.145 14.267 210.194 14.5152 210.293 14.6818C210.391 14.8447 210.518 14.9564 210.673 15.017C210.832 15.0739 211.005 15.1023 211.19 15.1023C211.327 15.1023 211.446 15.0928 211.548 15.0739C211.651 15.0549 211.73 15.0398 211.787 15.0284L212.094 16.4318C211.995 16.4697 211.855 16.5076 211.673 16.5455C211.491 16.5871 211.264 16.6098 210.991 16.6136C210.545 16.6212 210.128 16.5417 209.741 16.375C209.355 16.2083 209.043 15.9508 208.804 15.6023C208.565 15.2538 208.446 14.8163 208.446 14.2898V5.68182ZM217.482 16.6761C216.622 16.6761 215.881 16.4924 215.26 16.125C214.643 15.7538 214.165 15.233 213.828 14.5625C213.495 13.8883 213.328 13.0985 213.328 12.1932C213.328 11.2992 213.495 10.5114 213.828 9.82955C214.165 9.14773 214.635 8.61553 215.237 8.23295C215.843 7.85038 216.552 7.65909 217.362 7.65909C217.855 7.65909 218.332 7.74053 218.794 7.90341C219.256 8.06629 219.671 8.32197 220.038 8.67045C220.406 9.01894 220.696 9.47159 220.908 10.0284C221.12 10.5814 221.226 11.2538 221.226 12.0455V12.6477H214.288V11.375H219.561C219.561 10.928 219.47 10.5322 219.288 10.1875C219.107 9.83902 218.851 9.56439 218.521 9.36364C218.196 9.16288 217.813 9.0625 217.374 9.0625C216.896 9.0625 216.48 9.17992 216.124 9.41477C215.771 9.64583 215.499 9.94886 215.305 10.3239C215.116 10.6951 215.021 11.0985 215.021 11.5341V12.5284C215.021 13.1117 215.124 13.608 215.328 14.017C215.536 14.4261 215.826 14.7386 216.197 14.9545C216.569 15.1667 217.002 15.2727 217.499 15.2727C217.821 15.2727 218.114 15.2273 218.379 15.1364C218.644 15.0417 218.874 14.9015 219.067 14.7159C219.26 14.5303 219.408 14.3011 219.51 14.0284L221.118 14.3182C220.989 14.7917 220.758 15.2064 220.425 15.5625C220.095 15.9148 219.68 16.1894 219.18 16.3864C218.684 16.5795 218.118 16.6761 217.482 16.6761ZM226.787 16.6761C225.942 16.6761 225.215 16.4848 224.605 16.1023C223.999 15.7159 223.533 15.1837 223.207 14.5057C222.882 13.8277 222.719 13.0511 222.719 12.1761C222.719 11.2898 222.885 10.5076 223.219 9.82955C223.552 9.14773 224.022 8.61553 224.628 8.23295C225.234 7.85038 225.948 7.65909 226.77 7.65909C227.433 7.65909 228.024 7.7822 228.543 8.02841C229.062 8.27083 229.48 8.61174 229.798 9.05114C230.12 9.49053 230.312 10.0038 230.372 10.5909H228.719C228.628 10.1818 228.42 9.82955 228.094 9.53409C227.772 9.23864 227.34 9.09091 226.798 9.09091C226.325 9.09091 225.91 9.21591 225.554 9.46591C225.202 9.71212 224.927 10.0644 224.73 10.5227C224.533 10.9773 224.435 11.5152 224.435 12.1364C224.435 12.7727 224.531 13.322 224.724 13.7841C224.918 14.2462 225.19 14.6042 225.543 14.858C225.899 15.1117 226.317 15.2386 226.798 15.2386C227.12 15.2386 227.412 15.1799 227.673 15.0625C227.938 14.9413 228.16 14.7689 228.338 14.5455C228.52 14.322 228.647 14.053 228.719 13.7386H230.372C230.312 14.303 230.128 14.8068 229.821 15.25C229.514 15.6932 229.103 16.0417 228.588 16.2955C228.077 16.5492 227.476 16.6761 226.787 16.6761ZM236.263 7.77273V9.13636H231.496V7.77273H236.263ZM232.774 5.68182H234.473V13.9375C234.473 14.267 234.522 14.5152 234.621 14.6818C234.719 14.8447 234.846 14.9564 235.001 15.017C235.161 15.0739 235.333 15.1023 235.518 15.1023C235.655 15.1023 235.774 15.0928 235.876 15.0739C235.979 15.0549 236.058 15.0398 236.115 15.0284L236.422 16.4318C236.323 16.4697 236.183 16.5076 236.001 16.5455C235.82 16.5871 235.592 16.6098 235.32 16.6136C234.873 16.6212 234.456 16.5417 234.07 16.375C233.683 16.2083 233.371 15.9508 233.132 15.6023C232.893 15.2538 232.774 14.8163 232.774 14.2898V5.68182Z" fill="white"/>
</svg>
