<svg xmlns="http://www.w3.org/2000/svg" width="369.206" height="394.408" viewBox="0 0 369.206 394.408"><defs><linearGradient id="b" x1=".2" y1=".132" x2=".813" y2=".88" gradientUnits="objectBoundingBox"><stop offset="0" stop-color="#fff0be"/><stop offset="1" stop-color="#fffdf4"/></linearGradient><filter id="a" x="36.206" y="61.408" width="333" height="333" filterUnits="userSpaceOnUse"><feOffset dy="6"/><feGaussianBlur stdDeviation="6" result="blur"/><feFlood flood-color="#a6adc9" flood-opacity=".161"/><feComposite operator="in" in2="blur"/><feComposite in="SourceGraphic"/></filter></defs><g data-name="Сгруппировать 16413"><g data-name="Сгруппировать 16397" fill="none" stroke="#fff0be" stroke-width="6"><g data-name="Эллипс 1480"><ellipse cx="107.099" cy="106.784" rx="107.099" ry="106.784" stroke="none"/><ellipse cx="107.099" cy="106.784" rx="104.099" ry="103.784"/></g><g data-name="Эллипс 1482" transform="translate(35.28 35.28)"><ellipse cx="71.819" cy="71.504" rx="71.819" ry="71.504" stroke="none"/><ellipse cx="71.819" cy="71.504" rx="68.819" ry="68.504"/></g><g data-name="Эллипс 1481" transform="translate(78.749 78.749)"><ellipse cx="28.35" cy="28.035" rx="28.35" ry="28.035" stroke="none"/><ellipse cx="28.35" cy="28.035" rx="25.35" ry="25.035"/></g></g><g transform="translate(-.004 -.002)" filter="url(#a)"><circle data-name="Эллипс 1485" cx="148.5" cy="148.5" r="148.5" transform="translate(54.21 73.41)" fill="url(#b)"/></g><path data-name="Контур 17655" d="M88.02 28.759a39.124 39.124 0 00-12.226 77.286l38.64 6.112 6.115-38.644A39.167 39.167 0 0088.02 28.76zm-8.63 54.554a16.109 16.109 0 1118.428-13.395A16.128 16.128 0 0179.39 83.313z" fill="#fed140"/></g></svg>