<svg version="1.1" id="Layer_1" xmlns="http://www.w3.org/2000/svg" x="0" y="0" viewBox="0 0 223 34.2" xml:space="preserve"><style>.st0{fill:#fff}</style><g id="Layer_3"><path class="st0" d="M26.8 4.8c.7-1.2 1.8-2.3 3.2-3 2.2-1 5.1-.5 7 1 1.7 1.5 2.7 3.7 2.2 6.1.5 0 .8-.3 1.3-.5 2.7-.8 5.5 0 7.3 2.3 1.3 1.7 1.7 4.2.8 6.1-.3 1-1 1.8-1.8 2.7l.2.2c2.5.2 5 2 5.8 4.5s.2 5-1.7 6.8c-1.5 1.5-3.3 2-5.3 1.8H8.2c-3.2 0-5.5-1.3-6.6-4-1-2.3-.5-5.3 1.3-7.1 1.2-1.2 2.7-1.7 4.3-2-1.8-1.7-2.7-4-2.2-6.5.2-1.8 1.8-4 3.8-4.7 1.7-.7 4-.5 5.6.3-.5-2.7.7-5.1 3-6.6 2-1.3 5.1-1.3 7.1.2 1 .6 1.8 1.6 2.3 2.4z"/><path d="M37.4 5.8c-.3-.7-.8-1.3-1.4-1.8-1.5-1.3-4-1.5-5.8-.5-1.7.8-2.7 2.7-2.7 4.5h2.2c.2.2.3.2.5.3-.9.7-2.6 1.3-2.2 2.7l2.3 14.8 6.5-14.6c1-1.7 1.5-3.7.6-5.4z" fill="#645fa9"/><path d="M23.5 25.6l2.7-16.9c.2-1.2-.2-2.3-.7-3.3C25 4.3 24 3.6 23 3.1c-1.8-.8-4.2-.3-5.5 1s-2 3.3-1.3 5.3l6.6 14.8.7 1.4z" fill="#c8234a"/><path d="M47.1 12.4c.8 1.5.7 3.8-.3 5.1-.7 1-1.7 1.5-2.5 2.2l-13.8 9.5.2-.5L38 12.3c1.2-2 3.2-3 5.3-2.7 1.5.4 3 1.4 3.8 2.8z" fill="#0088cf"/><path d="M8.1 18.6l15.3 10.5h.2L16 12.3c-1.3-2.2-4-3.2-6.5-2.3-1.5.7-2.7 2-3 3.5-.8 1.9-.1 3.9 1.6 5.1z" fill="#f26f21"/><path d="M50.4 29.6c1.2-1.3 1.3-3.7.7-5.1-.5-1.2-1.5-2.2-2.7-2.7-1.5-.7-3.5-.5-4.8.3L30 31.5h16.3c1.6 0 2.9-.6 4.1-1.9z" fill="#0db04b"/><path d="M23.8 31.5l-13.6-9.6c-1.3-.8-3.3-1-4.8-.3-1.2.5-2.2 1.5-2.7 2.7-.8 1.7-.5 3.8.7 5.1 1 1.3 2.5 2 4.2 2l16.2.1z" fill="#fcb813"/><path class="st0" d="M84.8 13.4c-.7-3-3-3.8-5.8-4-8.8-.8-10.3 5.8-10.3 8.6 0 4.8 1.3 8.6 10 8.6 1.7 0 6-1.7 6-4.3h12.5c-.5 8-13.8 9.8-19.6 9.8-12 0-22.3-2.2-21.8-14.1.3-8.5 8.3-14.4 24.2-14 8.8.2 17.3 3 17.3 9.3H84.8zm124.6 0c-.7-3-3-3.8-5.8-4-8.8-.8-10.3 5.8-10.3 8.5 0 4.8 1.3 8.6 10 8.6 1.7 0 6-1.7 6-4.3h12.5c-.5 8-13.8 9.8-19.6 9.8-12 0-22.3-2.2-21.8-14.1.3-8.5 8.3-14.4 24.2-14 8.8.2 17.4 3 17.4 9.3h-12.6v.2zM99.6 4.6h16.1l13.8 19.3h.2V4.6H140v26.7h-15.4L110.2 12h-.2v19.3H99.6V4.6zm43.5 0h19.6c9.5 0 14.9 2.7 14.9 6.6 0 2.3-2.3 5.3-7.5 6.1 6.1.3 8.5 4.3 8.5 6.6 0 4.8-5.3 7.3-15.9 7.3h-19.6V4.6zm11.5 10.5h3.3c5 0 7.6-.3 7.6-2.5s-2.2-3-6.6-3h-4.2v5.5h-.1zm0 10.8h3.3c6 0 8.3-.7 8.3-2.7 0-2.2-2.8-3-7.3-3h-4.2v5.6h-.1z"/></g></svg>