<svg xmlns="http://www.w3.org/2000/svg" width="1000" height="141.793" viewBox="483.352 437.5 1000 141.793"><path d="M697.004 521.583l-73.062 48.859 24.607-58.488 11.674-27.234c4.728-8.802 13.632-14.414 23.347-14.57 9.304 0 17.558 4.48 22.79 12.511 5.388 8.032 5.69 21.16.301 29.295-2.41 3.808-5.985 7.205-9.657 9.627z" fill="#0089d0"/><path d="M660.624 475.453l-36.126 85.411-1.61-9.317-10.868-70.02c-.455-4.274 1.305-7.876 4.724-10.244l5.184-3.09c.305-1.081-1.206-1.442-1.913-1.801l-10.161-.103c-.654-10.092 3.774-19.254 12.326-24.763 6.646-4.327 16.757-5.457 24.152-1.957 9.613 3.913 16.303 14.16 16.453 24.609-.048 3.862-.703 7.825-2.161 11.275z" fill="#6460aa"/><path d="M591.24 561.176l-35.575-85.62c-3.825-9.166-2.215-21.212 4.328-28.627 6.992-7.774 16.854-11.069 27.02-8.442 8.604 2.11 16.653 10.348 18.769 19.151 1.006 3.296.854 7.26.653 10.864z" fill="#cc004c"/><path d="M515.21 518.494c-7.297-6.333-10.565-14.777-9.51-24.56 1.055-9.885 8.857-19.563 18.165-22.548 9.56-2.987 19.974-.62 26.919 6.537 2.919 2.782 4.73 6.075 6.236 9.474l34.37 83.199z" fill="#f37021"/><path d="M507.402 579.273c-9.506-1.077-16.835-6.204-21.304-14.919-4.526-8.798-3.35-21.284 2.735-29.088 6.63-7.946 16.223-11.942 25.89-9.98 3.94.636 7.242 2.33 10.348 4.283l73.963 49.724-91.632-.02z" fill="#fcb711"/><path d="M708.197 579.273c9.511-1.077 16.835-6.204 21.305-14.919 4.527-8.798 3.35-21.284-2.734-29.088-6.632-7.946-16.224-11.942-25.893-9.98-3.936.636-7.24 2.33-10.345 4.283l-73.963 49.724 91.63-.02z" fill="#0db14b"/><path d="M886.88 496.313c-2.664-12.953-13.262-16.395-25.128-17.489-38.323-3.567-45.114 25.145-45.114 37.265 0 20.738 6.044 37.887 43.661 37.887 6.937 0 26.094-7.16 26.094-18.79h54.105c-2.182 34.498-60.044 42.766-85.277 42.766-52.287 0-97.055-9.76-94.887-61.392 1.54-36.857 36.287-62.722 105.395-61.106 38.523.898 75.525 12.935 75.685 40.86zm541.93 0c-2.668-12.953-13.272-16.395-25.132-17.489-38.323-3.567-45.11 25.145-45.11 37.265 0 20.738 6.04 37.887 43.662 37.887 6.936 0 26.083-7.16 26.083-18.79h54.114c-2.172 34.498-60.039 42.766-85.276 42.766-52.287 0-97.054-9.76-94.892-61.392 1.55-36.857 36.297-62.722 105.39-61.106 38.537.898 75.545 12.935 75.703 40.86zm-477.737-38.395h70.237l59.93 84.225h.483v-84.225h45.018v116.946h-67.29l-62.869-84.216h-.491v84.216h-45.018zm189.565 0h85.308c41.01 0 65.127 11.482 65.127 28.83 0 10.24-10.098 22.888-32.603 26.618v.319c27.096 1.617 37.102 18.797 37.102 29.09 0 20.62-23.51 32.09-69.376 32.09h-85.558zm49.39 45.441h14.143c21.775 0 33.339-1.7 33.339-10.772 0-9.715-9.624-12.962-29.232-12.962h-18.255v23.734h.01zm0 46.996h14.143c26.252 0 35.885-2.756 35.885-11.824 0-9.724-12.17-12.962-31.777-12.962h-18.255v24.787z"/></svg>