<svg viewBox="0 0 2646 725" xmlns="http://www.w3.org/2000/svg" fill-rule="evenodd" clip-rule="evenodd" stroke-linejoin="round" stroke-miterlimit="2"><g fill-rule="nonzero"><path d="M67.013 458.713H0v-49.638h187.567v49.638h-65.95v197.504H67.013V458.713zm134.37-49.638h52.83v90.059c7.091-15.246 26.237-25.53 49.996-25.53 42.55 0 66.304 28.013 66.304 74.113v108.5h-52.83v-102.12c0-20.567-10.637-33.684-30.495-33.684-19.146 0-32.975 14.537-32.975 35.458v100.346h-52.83V409.075zM520.488 546.65c0-15.954-16.308-29.429-37.233-29.429-21.98 0-40.421 13.121-41.484 29.43h78.717zm-131.904 19.855c0-56.73 40.425-93.255 94.67-93.255 54.609 0 90.421 40.425 90.421 90.421 0 0 0 9.217-1.062 17.375H441.417c1.063 21.271 19.146 34.746 47.163 34.746 34.037 0 53.179-10.279 63.466-17.375v46.096c-16.666 10.638-35.104 16.313-66.308 16.313-57.792 0-97.154-36.526-97.154-92.546v-1.775zm288.254-166.292l130.483 142.183 130.484-142.183v256.004H885.33v-125.52l-78.009 87.578-78.008-87.579v125.521h-52.475V400.213zm377.605 213.454c25.883 0 46.45-20.567 46.45-46.808 0-25.884-20.567-46.8-46.45-46.8-26.238 0-46.45 20.916-46.45 46.8 0 26.241 20.212 46.808 46.45 46.808zm0-141.475c54.958 0 99.283 41.838 99.283 94.667 0 52.833-44.325 94.675-99.283 94.675-55.313 0-99.28-41.842-99.28-94.675 0-52.83 43.967-94.667 99.28-94.667zm128.345 53.183h-23.762V477.51h23.762v-68.434h51.409v68.434h39.362v47.866h-39.362v130.842h-51.409V525.375zm105.296-116.3h52.834v247.142h-52.834zm202.101 137.575c0-15.954-16.309-29.429-37.234-29.429-21.979 0-40.42 13.121-41.483 29.43h78.717zm-131.9 19.855c0-56.73 40.42-93.255 94.666-93.255 54.609 0 90.421 40.425 90.421 90.421 0 0 0 9.217-1.062 17.375h-131.196c1.062 21.271 19.145 34.746 47.162 34.746 34.038 0 53.184-10.279 63.467-17.375v46.096c-16.667 10.638-35.104 16.313-66.309 16.313-57.791 0-97.15-36.526-97.15-92.546v-1.775zm177.633-88.996h54.954l47.513 119.137 48.225-119.137h54.958L1636.26 725h-54.25l28.72-65.596-74.812-181.896zm294.279-68.434h162.746v49.638h-108.146v50.708h98.571v48.575h-98.57v98.221h-54.6V409.075zm270.167 204.592c25.888 0 46.454-20.567 46.454-46.808 0-25.884-20.566-46.8-46.454-46.8-26.237 0-46.446 20.916-46.446 46.8 0 26.241 20.209 46.808 46.446 46.808zm0-141.475c54.963 0 99.288 41.838 99.288 94.667 0 52.833-44.325 94.675-99.288 94.675-55.312 0-99.28-41.842-99.28-94.675 0-52.83 43.968-94.667 99.28-94.667zm209.188 141.475c25.883 0 46.45-20.567 46.45-46.808 0-25.884-20.567-46.8-46.45-46.8-26.238 0-46.45 20.916-46.45 46.8 0 26.241 20.212 46.808 46.45 46.808zm0-141.475c54.958 0 99.283 41.838 99.283 94.667 0 52.833-44.325 94.675-99.283 94.675-55.317 0-99.284-41.842-99.284-94.675 0-52.83 43.967-94.667 99.284-94.667zm118.412-63.117h52.834v247.142h-52.834z" fill="#030404"/><path d="M2645.481 346.388c0 19.708-15.975 35.683-35.683 35.683s-35.683-15.975-35.683-35.683c0-19.709 15.975-35.688 35.683-35.688s35.683 15.98 35.683 35.688z" fill="#fdb525"/><path d="M2396.16 3.354c103.496 0 190.384 116.3 214.942 273.53.454 2.929-1.55 5.7-4.48 6.191-2.495.417-4.924-.979-5.882-3.325-24.55-60.125-66.692-99.817-114.584-99.817-68.646 0-128.92 83.971-135.683 199.417-8.909 19.15-80.009 33.821-145.513 36.321V139.663c40.671-83.075 121.192-136.309 191.2-136.309z" fill="#0094c8"/><path d="M1764.435 346.388c0 19.708 15.975 35.683 35.687 35.683 19.704 0 35.68-15.975 35.68-35.683 0-19.709-15.976-35.688-35.68-35.688-19.712 0-35.687 15.98-35.687 35.688z" fill="#fdb525"/><path d="M2013.756 3.354c-103.496 0-190.384 116.3-214.942 273.53-.454 2.929 1.55 5.7 4.48 6.191 2.495.417 4.924-.979 5.882-3.325 24.555-60.125 66.692-99.817 114.584-99.817 68.646 0 128.92 83.971 135.683 199.417 8.909 19.15 80.009 33.821 145.517 36.321V139.663C2164.28 56.588 2083.764 3.354 2013.756 3.354z" fill="#3caf49"/><path d="M2529.402 643.638c1.625 0 2.817-1.408 2.817-3.142 0-1.629-1.192-2.929-2.817-2.929h-3.25v6.071h3.25zm-6.933-9.537h7.041c3.792 0 6.392 2.6 6.392 6.175 0 2.491-1.192 4.554-3.25 5.741l4.767 7.913h-4.334l-4.333-7.259h-2.6v7.259h-3.683V634.1zm20.475 10.295c0-8.454-6.067-14.195-14.084-14.195-8.02 0-13.975 5.741-13.975 14.195 0 8.234 5.955 13.975 13.975 13.975 8.017 0 14.084-5.741 14.084-13.975zm-31.525 0c0-10.075 7.8-17.229 17.441-17.229 9.75 0 17.663 7.154 17.663 17.23 0 10.074-7.913 17.22-17.663 17.22-9.641 0-17.441-7.146-17.441-17.22z" fill="#030404"/></g></svg>