<svg width="113" height="33" fill="none" xmlns="http://www.w3.org/2000/svg"><g clip-path="url(#c62cd36c6a)"><path d="M12.962 5.762v9.027H4.738V5.762H.833V27.31h3.905v-8.733h8.224v8.733h3.905V5.762h-3.905zm16.401 14.582c0 .864-.34 1.692-.946 2.302a3.217 3.217 0 01-2.284.954 3.217 3.217 0 01-2.284-.954 3.269 3.269 0 01-.947-2.302v-9.229H19.2v9.229a7.01 7.01 0 002.029 4.937 6.9 6.9 0 004.898 2.045 6.9 6.9 0 004.898-2.045 7.01 7.01 0 002.03-4.937v-9.229h-3.691v9.229zm27.442-8.278c0-1.892 1.241-2.492 2.601-2.492 1.097 0 2.545.841 3.492 1.861l2.426-2.88c-1.211-1.651-3.668-2.793-5.678-2.793-4.018 0-6.924 2.372-6.924 6.304 0 7.294 8.846 4.98 8.846 9.063 0 1.259-1.213 2.372-2.602 2.372-2.19 0-2.9-1.08-3.906-2.222L52.368 24.1c1.722 2.131 3.845 3.213 6.39 3.213 3.816 0 6.887-2.4 6.887-6.153 0-8.1-8.846-5.583-8.846-9.094m54.731 11.801c-2.188 0-2.81-.954-2.81-2.416v-6.47h3.401v-3.278h-3.401V7.378l-3.756 1.699v13.178c0 3.37 2.308 5.07 5.472 5.07a7.51 7.51 0 001.481-.12l.916-3.4c-.413.03-.888.058-1.303.058m-68.07-12.64c-1.834 0-3.114.536-4.352 1.76V5.892h-3.71v13.146c0 4.92 3.53 8.291 7.496 8.291 4.4 0 8.27-3.43 8.27-8.05 0-4.563-3.562-8.053-7.703-8.053v-.002zm-.023 12.343a4.185 4.185 0 01-2.338-.715 4.236 4.236 0 01-1.55-1.904 4.273 4.273 0 01.912-4.623 4.178 4.178 0 014.587-.92 4.216 4.216 0 011.889 1.563 4.266 4.266 0 01-.523 5.357 4.192 4.192 0 01-2.977 1.242zm40.302-4.486c0-4.627-3.863-8.05-8.27-8.05-3.966 0-7.496 3.37-7.496 8.292v13.153h3.71v-7.102c1.235 1.222 2.517 1.76 4.35 1.76 4.142 0 7.704-3.488 7.704-8.052h.002zm-3.513-.045c0 .839-.247 1.659-.71 2.357a4.216 4.216 0 01-1.888 1.562 4.178 4.178 0 01-4.587-.92 4.274 4.274 0 01-.912-4.623 4.235 4.235 0 011.55-1.904 4.185 4.185 0 015.314.528 4.26 4.26 0 011.233 3z" fill="#33475B"/><path d="M95.723 10.85V7.092c.492-.232.91-.6 1.202-1.062a2.91 2.91 0 00.453-1.545v-.087c0-.767-.303-1.503-.84-2.045a2.858 2.858 0 00-2.03-.847h-.086a2.86 2.86 0 00-2.03.847 2.904 2.904 0 00-.84 2.045v.087a2.91 2.91 0 00.453 1.545c.293.462.71.83 1.202 1.062v3.756a8.095 8.095 0 00-3.864 1.714L79.123 4.54a3.33 3.33 0 00.115-.812 3.278 3.278 0 00-.542-1.812 3.24 3.24 0 00-1.45-1.203 3.21 3.21 0 00-3.524.701 3.283 3.283 0 00-.706 3.55 3.254 3.254 0 001.189 1.466c.531.358 1.156.55 1.796.551a3.18 3.18 0 001.591-.436l10.065 7.893a8.263 8.263 0 00.125 9.255L84.72 26.78a2.611 2.611 0 00-.766-.126 2.64 2.64 0 00-1.474.452 2.672 2.672 0 00-.977 1.202 2.696 2.696 0 00.576 2.916 2.637 2.637 0 002.893.58 2.66 2.66 0 001.191-.985c.292-.44.448-.957.449-1.486a2.66 2.66 0 00-.125-.771l3.029-3.053a8.134 8.134 0 003.357 1.544 8.101 8.101 0 003.688-.104 8.144 8.144 0 003.267-1.73 8.229 8.229 0 002.177-3.002 8.294 8.294 0 00-.377-7.236 8.212 8.212 0 00-2.478-2.756 8.128 8.128 0 00-3.428-1.375zm-1.255 12.352a4.166 4.166 0 01-2.327-.714 4.216 4.216 0 01-1.541-1.895 4.254 4.254 0 01.91-4.6 4.159 4.159 0 014.565-.915c.765.319 1.42.86 1.88 1.554a4.247 4.247 0 01-.52 5.331 4.173 4.173 0 01-2.963 1.237" fill="#FF7A59"/></g><defs><clipPath id="c62cd36c6a"><path fill="#fff" transform="translate(.833 .465)" d="M0 0h112v32H0z"/></clipPath></defs></svg>