<svg width="295" height="238" fill="none" xmlns="http://www.w3.org/2000/svg"><path d="M259.714-13.522c5.364-4.772 5.889-13.055.532-17.836A113.002 113.002 0 0077.473 18.21a113 113 0 10220.285 42.155c.471-7.164-5.707-12.705-12.878-12.351l-18.207.9c-7.171.353-12.571 6.498-13.571 13.608a68.77 68.77 0 11-26.226-64.127c5.696 4.372 13.854 4.972 19.218.2l13.62-12.117z" fill="#057CFF" fill-opacity=".2"/><path d="M275.774-27.81a.502.502 0 00.04-.71A121.998 121.998 0 0068.909 15.442a122 122 0 10237.968 31.989.503.503 0 10-1.006.05 120.994 120.994 0 11-236.004-31.73A120.994 120.994 0 01275.062-27.85a.506.506 0 00.712.04z" fill="#057CFF" fill-opacity=".2"/><path d="M282.471-33.768a.539.539 0 00.043-.763A130.998 130.998 0 0054.131 47.135 130.998 130.998 0 00159.33 181.406a.54.54 0 10.208-1.061 129.929 129.929 0 01-92.648-73.283A129.92 129.92 0 01281.706-33.812c.2.223.541.243.765.044z" fill="#057CFF" fill-opacity=".2"/></svg>