<svg version="1.1" id="Layer_1" xmlns="http://www.w3.org/2000/svg" x="0" y="0" viewBox="0 0 296.1 229.1" xml:space="preserve"><style>.st2{fill:#fff}.st4{fill:#ffca0f}.st7{fill:#2d2e2d}.st8{fill:#8e7662}.st10{opacity:.5;fill:#fff}.st13{fill:#d24934}.st14{fill:#d8bca1}.st15{fill:#f2dbc7}.st19{fill:#c4d7ea}.st20{fill:#a2a28d}.st23{fill:none;stroke:#000;stroke-miterlimit:10;stroke-width:2.1135;stroke-linecap:round}.st24{fill:#792d91}.st25{fill:none;stroke:#000;stroke-width:2.5149;stroke-miterlimit:10}.st26{fill:#dddac5}.st29{fill:none;stroke:#000;stroke-width:2.0958;stroke-linecap:round;stroke-miterlimit:10}.st30{fill:#38a047}.st33{fill:none;stroke:#000;stroke-miterlimit:10;stroke-width:2.2977;stroke-linecap:round}</style><path d="M101 7c9.6-.5 20.4 6.5 19.9 18.6s-9.7 13.7-13.3 14.5c-.6 3.6-.5 4.7-2.3 5.4-1.8.7-6.6 2.1-10.3.7-1.1-3.1-.9-4.2-.6-6.1-7.2-2.3-12.5-6.7-12.3-16.9C82.3 13 88 7.6 101 7z" fill="#b49985"/><path d="M105.6 111.8c2.8 1.2 4.9.9 7.5.5 2.6-.4 4.9 1.1 3.9 3s-3 3.9-5.2 3c-2.3-1-2.6-1.2-4.6-.5-2 .7-6-.6-2.8-5.1l.9-1.2.3.3zm-12.7 0c1 1.2 1.9 2.4.9 4.1-1 1.6-1.6 2.7-3.8 2-2.2-.7-3.1-.6-4.7.1s-2.4 1.1-3.5-.5c-1.2-1.6-1.6-4 1.2-4.3s6.4.3 7.6-.2c1.3-.6 2.3-1.2 2.3-1.2z" fill="#725a45"/><path class="st2" d="M111.5 39.2c1.4 2.6 4.3 9.9 3.7 17-.5 7.1-1.9 24.3-.1 29 0 0-3.9 3.3-10.9 1.5-.6-10.7-1.9-23.5-2.6-28s-.3-6.7 2-9.6 4.1-6.1 4.1-9.2l3.8-.7zm-17.2.6c-.7 2.4-.1 6.4 1.9 9.8 2 3.3 1.2 6.7.5 10.2s-2 9.7-2.1 15.5.1 12.5.1 12.5-9.5.9-10.6-1.9c0 0-.4-12.8-.3-20s.5-18.8 6.1-27.2l4.4 1.1z"/><path d="M105.9 45.4c-3.3 1.6-7.6 2.5-11.2 1.1 2.1 3.8 3.4 6.6 2.2 11.1s-2.5 16.7-2.2 22.2c3.3.7 7.4.7 9 .2-.9-10.8-2-19.7-2.3-23.3-.3-3.6.1-5.2 2.1-7.5 2.1-2.4 2.4-3.8 2.4-3.8z" fill="#a3732d"/><path class="st4" d="M84.3 63.2c-2 .4-5 1-5.8 3.3L82 71s-3.6 2.6 2.2 6.5c0 0 .3-9.9.1-14.3zm35.3-.2c-.9 1-2.2 3.3-5.2 3.7l-.3 11.3s4.4-1.1 3-6.8c0 0 4.9-1.5 6.3-3 .1.2.6-2.4-3.8-5.2z"/><path d="M81.4 27.7c-1.1 5.6-1 8.3-2.4 11.5-1.4 3.2-3.2 6.8-3.2 6.8l10.6 1.1s2.8-6.8 3.7-8.1c-3.1-1.8-7.4-4.3-8.7-11.3zm39.1 4.3c-.2 4 1 10.4 3.5 13.6-2.9 1.2-7.8 1.9-10.1 1.4 0 0-.9-5-2.7-8.2 5-2.1 8.1-4 9.3-6.8zM101 7c8-.4 16.8 4.4 19.2 13-4.6-.4-7.3-.8-9.9-1.2-2.7-.4-8-1.5-10.1-1.6-2.1-.1-5.9.9-8.8 1.3-2.4.4-5.5 1.3-8.9 1C84 11.7 89.7 7.6 101 7z" fill="#6e6d6e"/><path d="M112.6 11.2c7.9 3.6 8.8 15.4 4.8 22.2-4 6.7-15.8 6.9-22.3 5.7C84.7 37.2 82 28 84.1 18.7c2.6-11.4 18.1-12.8 26.8-8 .9.5 1.6-.8.8-1.4-8.6-6-24.2-3.8-28.8 6.3-4.5 9.9-1.2 21.5 9.3 25.1 8.3 2.8 21.5 1.4 26.8-6.3 5.1-7.2 2.3-20.7-6.2-24.1-.3-.1-.6.7-.2.9z"/><path d="M111.3 40.6c6.8 14.2-.3 30 2.9 44.9.2 1.1 1.8.6 1.6-.4-3-14.9 3.9-30.9-3.8-44.9-.2-.6-.9-.1-.7.4zM84.8 85.9c.2-7.8 0-15.5.2-23.3.1-4.1.6-8.1 1.4-12.2.8-4.2 2.6-7.3 4.5-11 .5-1-1-1.8-1.5-.9-1.4 2.8-3 5.1-3.9 8.2-.9 3.3-1.4 6.8-1.8 10.2-1 9.6-.1 19.4.1 29 .1.5 1 .5 1 0z"/><path d="M107.2 41.4c-1.2 3.8-4.1 6-5.6 9.5-1.1 2.7-1 5.6-.8 8.5.5 9.1 2.3 18.1 2.2 27.3 0 .3.2.7.6.8 4.2.6 8.2.7 11.9-1.5.8-.5.1-1.7-.8-1.3-2.2 1.1-4.2 1.5-6.6 1.6-3.8.1-3.6-2.3-3.8-5.2-.3-4.3-.4-8.6-1-13-.7-5.1-2-10.8-.9-15.9.5-2 2.5-4 3.6-5.8.9-1.5 1.4-3.2 1.8-4.9.3-.4-.4-.6-.6-.1zM93.8 40c-.6 2.8-.2 5.3 1 7.9 2.7 6.1 1 12.7.1 19-.7 5.1-1 10.1-1 15.2 0 2 .9 4.9-1.6 4.8-2.6 0-5-.2-7.5-1.1-.8-.3-1.4 1-.6 1.4 3.2 1.7 6.9 1.3 10.5 1.4.4 0 .8-.4.8-.8-.1-8.3.3-16.2 1.4-24.4.5-3.8 1.2-7.7.7-11.6-.5-4.3-3.7-6.9-3-11.6.1-.5-.7-.7-.8-.2z"/><path d="M105.5 45.2c-3.2 1.3-6.9 2-10.3.5-.7-.3-1.4.8-.6 1.1 3.4 1.5 8 1.1 11.2-.8.5-.3.2-1-.3-.8zM103 79.7c-2.8.1-5.6.4-8.4-.4-.8-.2-1.1 1-.3 1.2 2.9.6 5.9.5 8.9.1.4-.1.3-.9-.2-.9zm8.9-26c.2 1.5.2 2.9.1 4.4 0 .7.1 1.8-.5 2.3-.9.9-2 1.6-3 2.3.2 0 .5.1.7.1-1.3-1.1-2.9-1.8-4.2-2.9 0 .2.1.5.1.7 1.4-1.9.7-4.8.7-7l-.6.6h7.6c.8 0 .8-1.2 0-1.2h-7.6c-.3 0-.6.3-.6.6 0 2.1.6 4.5-.4 6.4-.1.2-.1.5.1.7 1.3 1.1 2.9 1.8 4.2 2.9.3.2.5.2.8 0 1.2-1 3.4-2.2 3.5-3.9.1-2 .3-4.1-.1-6.2-.3-.2-.8-.2-.8.2zm-18.5-.4c0 1.3-.1 2.7 0 4l.5-.5c-2.5.1-5-.4-7.5-.5l.5.5c0-1.3.3-2.5.4-3.7l-.5.5c2.3.1 4.5.1 6.7.6.6.1.9-.8.3-.9-2.3-.7-4.6-.5-7-.6-.3 0-.5.2-.5.5 0 1.3-.3 2.5-.4 3.7 0 .3.2.5.5.5 2.5.2 5 .6 7.5.5.3 0 .5-.3.5-.6-.3-1.3-.1-2.6-.5-3.9 0-.4-.5-.4-.5-.1z"/><path d="M92.5 55.1c-.1.4-2-.4-2.3-.5-.1 0-.2 0-.2.1-.1.3-.1.5-.1.8.1-.1.2-.1.3-.2-.4-.3-.9-.8-1.5-.6-.3.1-.2.6-.5.4-.2-.1-.4.1-.2.3.2.1.4.4.6.2.1-.1.1-.2.1-.3.2-.5 1 .2 1.3.3.1.1.3 0 .3-.2 0-.7 0-.6.5-.4.4.1.8.3 1.2.4.3.1.8.1.7-.3 0-.1-.1-.1-.2 0zm17.1-29.3c0 .2.1.4.1.5v.1c0-.2-.1.1 0-.1-.1.2 0 0 .1 0 .2-.1.1 0 0 0 .3-.1-.1 0 .2 0h-.1c-.2 0 .2.1 0 0s.1.1 0 0 .1.2 0 0c.1.2 0 0 0 0v-.2c0-.1.1-.3.1-.4.1-.7-.9-1.1-1.4-.6-.5.5-.5 1.4-.2 2 .3.5.9.8 1.4.9.5.1 1.3-.3 1.4-.9.1-.7-.2-1.5-.8-1.9-.4-.4-.8.2-.8.6zm-15.2-1.1c0 .4.1.9 0 1.3.1-.2-.1.1.1-.1-.1.2.1 0 0 0 .1 0 .2-.1.1 0h.1c.3 0-.1-.1.1 0 0 0-.2-.1 0 0 0 0-.2-.2 0 0l-.1-.1c.1.2 0-.2 0 .1 0-.1 0-.2 0 0v-.1c.1-.1.1-.1 0 0 .1-.1.2-.2.2-.4.1-.2 0-.4 0-.6 0-.3-.4-.6-.7-.6-1 0-1.3 1.1-1.1 1.9.1.6.6 1 1.1 1.2.5.2 1.3 0 1.5-.6.3-.8 0-1.6-.5-2.3-.2-.3-.9-.2-.8.3zm11.9 8.7c-2.5 2.4-5.7 1.9-8.6.7-.8-.4-1.3.8-.5 1.2 3.3 1.3 7.2 1.7 9.6-1.4.2-.4-.2-.8-.5-.5zm-9.7-12c-2.3 0-4.4.8-6.5 1.6-.6.2-.2 1 .3.8 2-1 4-1.7 6.2-1.9.3 0 .3-.5 0-.5zm11.6 1.2c2.3.2 4.7 0 6.7 1.4.4.3.9-.3.5-.7-1.9-1.7-4.9-1.4-7.2-1.2-.3.1-.3.5 0 .5z"/><path d="M107.5 87.5c-.3 4.6-.1 6-.4 11.8-.3 5.8-.8 9.8-.9 12.8M91.2 88c-.4 3.9.3 6.2.3 11.1s-.1 10.4 0 13.1m20-72.7c3.7 2.6 7.3 7.2 8.8 8.8 1.4 1.6 7.1 9.2 7.1 9.2s-2.1 4.4-5.7 7.7M89.8 39c-3 2.6-9.8 9.3-11.5 11.4s-3.1 5-3.1 5 3.5 5.5 5.4 8.8" fill="none" stroke="#000" stroke-width="2.36" stroke-miterlimit="10"/><path d="M105.5 112.6c2.2.7 4.2.9 6.4.6 1.5-.2 2.9-.4 4.1.7 1.3 1.1-.6 2.7-1.4 3.2-2.2 1.4-4.2-.5-6.5-.3-1.5.2-3 1.2-4.1-.5-.8-1.1.3-2.7.9-3.5.3-.4-.3-.9-.7-.6-2.1 1.9-2.4 5 .3 6.3 1.8.9 3.8-.5 5.7.1 1.7.5 3 .7 4.7-.1 2.1-1 3.7-3.5 2-5.5-1.1-1.2-2.9-1.2-4.4-1-1 .1-1.9.3-2.9.4-1.3.1-2.7-.4-4-.5-.4-.1-.4.6-.1.7zm-12.3.3c1.3 2.1-.4 4.1-2.6 4.1-1.3 0-2.4-.5-3.8-.3-1.7.2-2.9 1.6-4.7.1-.6-2-.2-3.1 1.1-3.2.6-.1 1.2-.2 1.8-.2 2.5-.1 6.6.8 8.3-1.6.4-.6-.4-1.1-.9-.7-2.3 2.1-7.1.8-10.1 1.4-3.1.7-2.6 4-.7 5.6 1.2 1 2.5.7 3.9.3 2.3-.7 4.4.4 6.6-.3 2.6-.8 3.5-3.8 1.7-5.7-.3-.2-.8.2-.6.5zM119 19.7c-5.9-.7-11.9-2.7-17.9-2.8-5.9-.2-11.4 2.3-17.2 2.1-.6 0-.5.8 0 .9 5.4.2 10.4-1.8 15.7-2.2 6.2-.4 13.1 2.2 19.4 2.5.3 0 .3-.5 0-.5zm1 11.3c-.5 4.2.6 8 2.2 11.8l.9 2.1c.5 1-2.2 1.4-2.6 1.5-2.1.5-4.3.3-6.4.2-.4 0-.5.7-.1.8 3.4.5 7.1.2 10.1-1.4.2-.1.2-.4.1-.6-2.3-4.5-4.4-9.2-3.9-14.4.2-.3-.2-.3-.3 0zm-38.6-4.4c-.5 3.3-1.2 6.6-2.1 9.8-.9 3.5-3.2 6.2-4.1 9.7-.1.4.2.6.5.6 3.2.4 6.4.9 9.7 1 .6 0 .6-.9 0-1-2.8-.1-5.5-.5-8.3-.9-1-.1 2-5.5 2.3-6.3 1.6-3.9 2.1-8.7 2.5-12.9 0-.2-.4-.3-.5 0z"/><path d="M113 12.4c1.3 1.9 1.8 4 2.1 6.3 0 .4.6.4.6 0-.2-2.3-.9-4.6-2.3-6.5-.2-.2-.6 0-.4.2zm-3.5-1.7c1.5 2.3 1.1 5.1 1.3 7.7 0 .4.6.4.6 0 .1-2.6.1-5.7-1.4-8-.3-.2-.6.1-.5.3zm-3.9-1.8c1.9 2.7 1.7 6.1 1.9 9.3 0 .4.7.4.7 0-.2-3.2-.2-6.9-2.2-9.6-.2-.2-.6 0-.4.3zm-3.3-.8c.4 2.9.5 5.8.5 8.7 0 .4.7.4.7 0 0-2.9-.2-5.9-.7-8.8 0-.2-.5-.1-.5.1zm-2.8 1c-.3 2.7-.4 5.5-.1 8.2 0 .3.5.3.5 0-.2-2.8-.1-5.5.1-8.2 0-.3-.4-.3-.5 0zm-3.1-.8c-.9 3.1-1.3 6.2-1.3 9.4 0 .4.6.4.6 0 0-3.1.4-6.2 1.1-9.3.1-.2-.4-.4-.4-.1zm-3.6 1.1c-1 2.9-1.6 5.8-1.6 8.9 0 .4.7.4.7 0-.1-3 .5-5.9 1.4-8.8.1-.3-.4-.4-.5-.1zm-4.1 1.4c-.1 2.6-.9 5.1-1.1 7.7 0 .5.7.5.8 0 .2-2.6 1-5.1.9-7.7-.1-.3-.6-.3-.6 0zm-5.9 23.7c-.4 3.9-1.8 7.4-3.4 11-.2.4.4.8.7.4 1.8-3.5 3-7.5 3.2-11.4 0-.3-.5-.3-.5 0zm2.4 1.4c0 3-.8 6-2.1 8.7-.2.4.5.8.7.4 1.4-2.8 2.1-6 2-9.1-.1-.3-.6-.3-.6 0zm32.4.5c.9 3.2 1.5 6.5 3 9.6.2.4.8.1.7-.3-1.2-3.1-2.1-6.3-3.2-9.4-.1-.4-.6-.2-.5.1zm-2.8 1.5c.6 2 .9 4.1 2 5.8.2.4.8 0 .6-.3-1.1-1.8-1.4-3.7-2.1-5.6-.1-.4-.6-.2-.5.1zM83.6 63c-2.3-.2-4.1 1.2-5.4 3-.3.5.4.9.8.4 1.2-1.6 2.7-2.5 4.7-2.8.4 0 .2-.5-.1-.6zm-5 4.4c1.1 1.2 2.3 2.5 3.1 3.9 0-.2.1-.4.1-.7-2.6 2.7-1.4 5.7 1.9 7 .6.2 1-.7.4-1-2.2-1.3-3.8-2.8-1.6-5.2.2-.2.2-.4.1-.7-.9-1.5-2.2-2.7-3.5-3.9-.3-.3-.9.3-.5.6zm36.4-.1c.9-.2 1.6-.6 2.3-1.2.6-.5 1.1-.9 1.6-1.4 1-1 .9-.7 1.9.3.2.2 2.1 3 1.9 3.1-.5.3-1 .5-1.4.8-1.4.7-2.9 1.4-4.4 1.9-.3.1-.5.4-.4.7.8 2.9.1 4.2-2.3 6-.6.5 0 1.5.6 1 2.9-2 3.8-3.9 2.8-7.3-.1.2-.3.5-.4.7 2.2-.7 4.5-1.7 6.4-3 .2-.1.4-.4.3-.7-.7-2.3-2-4.2-4-5.6-.2-.1-.5-.1-.7.1-1.4 1.4-2.7 3-4.5 3.9-.3.2-.1.7.3.7zM91.4 40.6C90 42.5 90 44.8 89.9 47c0 .3.3.4.5.4.6-.1 1.3-.2 1.9-.2-.2-.3-.3-.5-.5-.8-.8 1.5-.9 3-.9 4.7 0 .3.2.6.6.6 1.6-.1 3.2-.4 4.8-.6.7-.1.7-1.1 0-1.1-1.6 0-3.2.5-4.8.5l.6.6c-.1-1.5 0-2.8.7-4.2.2-.3 0-.8-.5-.8-.8 0-1.4.2-2.1.4.2.1.4.3.5.4-.1-2.1.1-4.3 1.3-6.1.3-.2-.3-.6-.6-.2zm17.8.5c.6 2.5.8 5 .5 7.5.2-.1.5-.3.7-.4-.9-.7-1.7-1.3-2.8-1.6-.3-.1-.6.2-.6.5 0 1.4-.1 2.7-.2 4.1.2-.2.5-.3.7-.5-1.5-.2-3-.3-4.5-.5-.7-.1-1 .9-.3 1 1.5.3 3 .3 4.5.6.4 0 .7-.1.7-.5.1-1.4.1-2.7.1-4.1-.2.2-.4.3-.6.5 1 .3 1.7.8 2.5 1.4.3.2.7-.1.7-.4.2-2.6 0-5.2-.8-7.7-.1-.5-.7-.3-.6.1z"/><path class="st7" d="M79.7 210.2c2.2-.5 3.4-.4 6 .1 2.8.5 5.2 1.5 4.1 3.6-1.2 2.1-2.7 3.5-5.2 2.4s-2.8-1.3-5-.6c-2.2.7-6.6-.6-3-5.6l1.7.2 1.4-.1zm-11.8-1c1.1 1.3 2.1 2.7 1 4.5s-1.7 3-4.2 2.2c-2.5-.7-3.4-.6-5.1.1-1.7.7-2.6 1.2-3.9-.6-1.3-1.8-1.8-4.4 1.4-4.8s7.1.4 8.4-.2l2.4-1.2z"/><path class="st8" d="M75.1 93.9c10.5-.5 22.4 7.2 21.9 20.5-.5 13.4-10.7 15.1-14.6 15.9-.7 3.9-.5 5.1-2.6 5.9s-5.6 8.3-11.3.8c-1.2-3.4-.9-4.6-.7-6.7-8-2.6-13.8-7.4-13.5-18.6.3-11.1 6.5-17.1 20.8-17.8z"/><path class="st2" d="M86.4 129.4c1.5 2.8 3.6 11.7 3 19.5s-.1 26.1 1.8 31.3c0 0-5.2 3.5-13 1.5-.6-11.8-2.1-25.9-2.9-30.8-.8-4.9-.3-7.4 2.2-10.6 2.5-3.2 4.5-6.7 4.5-10.2l4.4-.7zm-18.8.6c-.7 2.6-.1 7.1 2.1 10.7 2.2 3.7 1.3 7.4.6 11.2-.7 3.9-2.2 10.7-2.3 17-.1 6.3.1 13.8.1 13.8s-10.5 1-11.6-2.1c0 0 .5-13.6.6-21.5.1-7.9-.3-21.2 5.8-30.4l4.7 1.3z"/><path class="st8" d="M56.5 171.5c-1.1-1-2.3-2.3-2.9.5-.6 2.8-1.3 8.5 2.9 8.6 0 .1.3-6.2 0-9.1zm39.3.3c-1.8 2.1-4 4.5-3.8 6.9.2 2.4 1.2 5.2 3 3.9 1.8-1.3 3-3.7 2.9-6.5 0-2.8-1.4-4.7-2.1-4.3z"/><path d="M82.1 130.7l-2.2-.1c-.3 3.2-6.7 9.4-6.7 9.4-2.5-2.8-4-9-4-9l-1.9-.4c-.5 1.7-.3 4 1.1 6.5 3.2 6.7 2.2 9.9 2 13.6-.2 3.7-2.1 11.8-2.7 23.5 3.7 1.1 10.5.2 10.5.2-.6-6.8-2.6-23.2-2.9-26.5s2.1-7 3.4-8.7c1.3-1.7 1.9-3 1.9-3 1.1-2.3 1.5-5.5 1.5-5.5z" fill="#88ca8e"/><path class="st10" d="M74.4 110c-2.1-.1-3.8-.7-5.5-1.2-1.7-.5-7.1-2.8-10.6 1.8 2 4.6 4.2 8.4 7.7 8.1 3.5-.3 7.1-4.8 8.4-8.7zm.6.2c1.3 1.7 2.8 4.4 4.7 6.1 1.8 1.7 5.7 3.4 8.5 1.3 2.7-2.2 5.2-6.8 5.2-6.8-4.4-1.8-8-3.2-10.4-2.7-2.5.4-6.7 1.9-8 2.1z"/><path d="M79.9 182.4c-.3 5-.1 6.6-.4 13s-1.1 11.5-1.2 14.9M66 183c-.4 4.3.3 6.8.3 12.3 0 5.5-.1 11.5 0 14.4" fill="none" stroke="#000" stroke-width="2.595" stroke-miterlimit="10"/><path d="M76.8 210.7c1.8.5 3.9-.4 5.8-.2 1.8.2 9.7 1.4 5.8 4.2-2.6 1.8-4.9-.4-7.6-.2-1.6.2-3.3 1.3-4.6-.6-.8-1.2.3-3 1-3.9.4-.5-.4-1-.8-.6-2.4 2.1-2.6 5.5.4 7 2 1 4.2-.5 6.3.1 1.9.6 3.4.7 5.2-.1 2.6-1.1 3.6-3.8 1.2-5.6-1.6-1.2-4.2-1.3-6.2-1.5-2.2-.2-4.2.4-6.4.5-.5.1-.6.8-.1.9zm-8.5-.3c1 1.7.5 3.1-1.2 4.1-1.4.8-2.8.1-4.3 0-1-.1-1.7 0-2.6.3-.5.2-1.1.4-1.6.5-3 .2-3.6-1.2-1.9-4 3.6-1.1 7.7-.5 11.4-.8.8-.1.8-1.2 0-1.3-3.8-.3-8 0-11.8.8-3.4.7-2.9 4.4-.8 6.2 1.3 1.1 2.7.8 4.2.3 2.5-.8 4.8.4 7.2-.3 2.8-.9 3.8-4.2 1.8-6.3-.1-.3-.7.1-.4.5zM87.9 98.5c8.8 4 9.7 17.3 5 24.7-4.7 7.4-18.2 7.5-25.6 5.7-11.4-2.7-13.5-14.2-10.3-24.1 3.7-11.1 20.4-11.6 29-6.8 1 .6 1.8-.9.9-1.5-9.2-6.6-26.3-4.2-31.4 6.4-5.1 10.5-2 23.5 9.1 27.8 9.1 3.5 24.1 2.1 30.3-6.3 5.8-7.9 2.8-23.1-6.6-26.7-.6-.3-.9.6-.4.8z"/><path d="M83.5 112.7c0 .2.1.4.2.6v.1c0-.2-.1.1 0-.2l-.1.1.2-.2c.2-.1.1-.1 0 0 .3-.1-.1-.1.2 0h-.2c.2.1.1 0 0 0 .2.1.1.1 0 0 .2.2 0 .1 0 0 .1.2 0 .1 0 0 .1.2 0 0 0 0v-.1c.1-.2.1-.3.1-.5 0-.8-1-1.1-1.5-.6-.6.5-.6 1.6-.2 2.2.3.6 1 .9 1.6 1 .7.1 1.3-.4 1.5-1 .2-.7-.3-1.7-.9-2.1-.5-.3-1 .2-.9.7zm-17.2-.6c0 .3 0 .6.1.9v.2c0 .1-.1.3 0 .1-.1.2.1-.1 0 0 0 0 .1-.1.2-.1-.1 0 .2 0 0 0 .3 0-.1-.1.2 0-.1 0-.2-.2 0 0-.1 0-.2-.2 0 0 0-.1-.1-.3 0 0 0-.1 0-.3 0 0v-.1c0-.1-.1.1 0-.1.2-.4.3-.6.2-1-.1-.4-.5-.6-.8-.6-1.1-.1-1.4 1.3-1.2 2.1.1.7.7 1.1 1.2 1.4.7.3 1.5-.1 1.7-.8.3-.8-.1-1.7-.6-2.3-.4-.3-1.1-.2-1 .3zm19.9 18.8c3.6 7.7 2.3 16.6 2.2 24.8-.1 8.3.1 16.6 1.9 24.7.3 1.2 2 .7 1.8-.5-2.1-9.9-1.8-19.8-1.9-29.8 0-6.7.1-13.6-3.2-19.7-.2-.6-1-.1-.8.5zm-29.1 49.8c.2-8.5.5-17 1.1-25.5.3-4.2.7-8.3 1-12.5.4-5.2 2.4-8.6 4.7-13.1.5-1.1-1.1-2-1.6-.9-1.5 3-3.3 5.5-4.2 8.8-1 3.8-.8 8-1.1 11.9-.8 10.5-1 20.9-.8 31.4-.1.5.8.5.9-.1z"/><path d="M81.7 131.7c-1.2 4.2-4.5 6.6-6.1 10.5-1.4 3.4-1.1 7.3-.8 10.9.8 9.5 2.4 18.9 2.3 28.6 0 .4.3.8.7.9 4.7.7 9.8 1.1 14-1.5.9-.6.1-1.9-.8-1.4-2.5 1.2-4.8 1.6-7.5 1.7-.9 0-1.9-.1-2.8-.1-2.5-.2-1.8-3.2-1.9-4.7-.3-4.8-.4-9.7-1.1-14.5-.8-5.8-2.4-12.4-1-18.2.5-2.1 2.5-4.1 3.6-5.8 1.2-1.8 1.8-3.8 2.3-5.9.1-.8-.7-1-.9-.5zm-14.8-1.5c-.7 3.1-.1 6 1.2 8.9 3.1 6.8.9 14.6-.1 21.7-.7 5-.9 10-1 15 0 2.3 1.1 6-1.8 6-2.8 0-5.5-.2-8.2-1.2-.9-.3-1.5 1.1-.6 1.5 3.5 1.8 7.6 1.4 11.5 1.5.5 0 .9-.4.9-.9-.1-9.3.4-18.2 1.6-27.4.5-4 1.2-8.2.7-12.2-.6-4.6-4.1-7.6-3.3-12.8.1-.4-.7-.7-.9-.1z"/><path d="M77.1 173.9c-3.1.1-6.2.4-9.3-.4-.8-.2-1.2 1.1-.4 1.3 3.2.7 6.5.6 9.7.1.7-.1.5-1 0-1zm2.3-29.1c-.4 1.4-.2 2.9-.5 4.3-.1.4.2.7.5.7 2.8.1 5.5-.4 8.2-.5.3 0 .6-.2.6-.6-.1-1.4-.4-2.7-.4-4.1 0-.3-.2-.6-.6-.6-2.6.1-5.2 0-7.7.7-.7.2-.4 1.2.3 1 2.4-.6 4.9-.5 7.4-.7l-.6-.6c.1 1.4.4 2.7.4 4.1l.6-.6c-2.7.2-5.5.6-8.2.6l.5.5c.2-1.5 0-2.9 0-4.4.1-.1-.4-.1-.5.2z"/><path d="M80.7 146.8c0 .4.4.4.7.4.5-.1.9-.2 1.3-.4.2-.1.4-.1.5-.2.4-.1.3 0 .2.5 0 .2.2.2.3.2.2-.1 1.3-.9 1.4-.5.1.2.1.3.2.4.2.2.5 0 .7-.2.2-.2-.1-.4-.2-.3-.3.2-.3-.4-.6-.5-.6-.2-1.2.4-1.7.7.1.1.2.1.3.2 0-.3-.1-.6-.1-.9 0-.1-.1-.1-.2-.1-.3.1-2.5 1-2.5.6-.1 0-.3 0-.3.1zm-16.3-15.9c-1.5 2.1-1.6 4.6-1.7 7.1 0 .3.3.5.6.4.7-.1 1.4-.2 2.1-.2-.2-.3-.3-.6-.5-.9-.9 1.7-1 3.3-1 5.2 0 .3.3.6.6.6 1.8-.1 3.5-.5 5.2-.6.8-.1.8-1.2 0-1.2-1.8 0-3.5.5-5.2.6l.6.6c-.1-1.6 0-3.1.8-4.6.2-.4 0-.9-.5-.9-.9 0-1.5.2-2.4.5.2.1.4.3.6.4-.1-2.3.1-4.7 1.4-6.7.3-.4-.3-.7-.6-.3zm19.5.5c.6 2.7.8 5.5.5 8.2.3-.2.5-.3.8-.5-1-.7-1.9-1.4-3-1.7-.4-.1-.7.2-.7.5 0 1.5-.1 3-.2 4.5.2-.2.5-.4.7-.6-1.6-.3-3.3-.3-4.9-.6-.7-.1-1.1.9-.3 1.1 1.6.4 3.3.4 4.9.6.4.1.7-.2.7-.6.1-1.5.1-3 .1-4.5-.2.2-.5.4-.7.5 1.1.3 1.9.9 2.8 1.6.4.3.8-.1.8-.5.3-2.9 0-5.7-.9-8.4-.1-.2-.8-.1-.6.4z"/><path d="M87.1 129.3c4 5.6 6.3 12.9 6.8 14.8.5 1.9 1.8 5.2 2.1 7.2s0 5.1.2 7.7c.1 2.6 0 9.5-.2 12.5m-33.5-43c-2.3 2.9-5.1 6.8-6 10-1 3.1-2.7 7.7-3.3 10.3-.5 2.6-.4 6.3-.3 9.3.1 3 .7 8.3 1.2 11.5" stroke-width="2.163" stroke-linecap="round" fill="none" stroke="#000" stroke-miterlimit="10"/><path d="M95.2 171.7c-2.3 2.3-4.2 4.8-3.7 8.2.3 2.2 1.8 3.9 4.1 3.1 3.9-1.3 3.4-9.2 1.1-11.6-.5-.5-1.2.2-.8.8 1.8 2.1 1.7 6.8 0 8.9-.6.8-1.7 1-2.4.1-.5-.7-.6-1.8-.6-2.6-.1-2.3 1.7-4.6 2.9-6.4.3-.4-.3-.8-.6-.5zm-38.5-.9c-.8-.4-1.5-.8-2.3-1-.2-.1-.5.1-.6.3-2 2.9-2.6 10.4 1.8 11.7.8.2 1.4-.8.8-1.4-1.6-1.5-2.3-2.8-2.5-5-.1-1.1.1-2.2.3-3.2.4-1.6 1-.9 2.2-.5.4-.1.7-.7.3-.9zM79.3 131c-1 3.8-4.3 5.9-6.5 8.8.3 0 .6.1.8.1-1.6-3-3.3-5.8-4.2-9.1-.2-.6-1.1-.4-1 .3.5 3.4 2.6 6.4 4.2 9.4.1.3.6.4.8.1 2.3-3 6-5.4 6.6-9.4.2-.5-.6-.7-.7-.2z"/><path d="M75.8 144.8c0-1.8-1.2-3.6-2.3-4.9-.3-.4-.9.1-.7.5.9 1.5 2 2.8 2.3 4.5.1.4.7.3.7-.1z"/><path d="M72.7 140.5c-1 .3-2.1 1.2-2.5 2.2-.2.4.5.7.8.4.3-.3.5-.7.8-1.1.3-.4.8-.7 1.2-.9.4-.1.1-.7-.3-.6zm10.2-19.2c-4.4 1.8-10.5 3.6-14.7.6-.7-.5-1.5.7-.7 1.2 4.7 3 11.1 1.3 15.7-1 .5-.2.2-.9-.3-.8zm-6-2.8c-1.1.1-2.3.2-3.4-.1-.6-.2-.8.7-.2.9 1.2.3 2.5.1 3.7-.1.4-.1.3-.8-.1-.7zm16.4-7.9c-2.5-1.2-5.5-2.8-8.3-2.9-4.6-.2-8.6 2.6-13.2 1.5-5-1.2-9.5-3.6-13.6.8-.4.4.2 1 .6.6 5.2-5.2 9.6.1 15.2 0 2.2 0 4-.7 6.1-1.5 4.6-1.7 8.9.2 13 1.9.3.1.5-.3.2-.4z"/><path d="M92.9 110.8c-2.5 3.9-5.8 9.3-11.3 6.5-2.7-1.4-4.1-4.7-6-6.9-.4-.5-1.1.2-.7.7 2.6 3.3 4.6 7.3 9.1 7.9 4.6.6 7.7-4.4 9.4-7.9.2-.3-.3-.6-.5-.3z"/><path d="M74.2 110.3c-1.9 2.4-3.2 5.2-5.7 7-4.7 3.3-8.5-3.5-9.7-7-.2-.6-1.2-.4-1 .3 1.3 4 3.8 8.4 8.4 8.5 4.1.1 6.7-5.5 8.5-8.4.2-.3-.2-.6-.5-.4z"/><path d="M58.6 110.6c-1.6-.3-3-.2-4.6-.1-.6 0-.6 1.1 0 1 1.5-.2 3-.4 4.5-.3.3.1.4-.5.1-.6zm34.8 1.2c.7-.2 1.4-.2 2.1-.2.6 0 1.1.2 1.6.1s.5-.9 0-1c-1.3-.3-2.9-.3-4 .4-.4.2-.1.7.3.7zm-26.2 34.1c-.2 1.6.5 5.1-1.1 5.9-1.5.7-2.6 2.7-3.5 4.1h1c-.4-.7-.8-1.3-1.3-1.9-.4-.4-2-1.4-1.8-2.1.8-2.3 1-4.8 1-7.2-.2.2-.5.4-.7.6 2.4.5 4.9.6 7.4.8.8.1.8-1.2 0-1.3-2.4-.2-4.7-.2-7-.7-.4-.1-.7.2-.7.6-.1 2.6-.4 5.1-1.2 7.6-.1.3.1.5.3.7 1.4.9 2.5 2 3.3 3.4.2.4.7.4 1 0 1-1.6 2-3.5 3.9-4.1.2-.1.4-.3.4-.5-.1-2-.1-4 0-6-.2-.4-1-.4-1 .1zm9.3-11.1c.1.1.3.2.4.3.9.5 1.2-1.1.3-1.1h-.5c-.4 0-.6.6-.2.8zm-.5.5c-.1 0-.2.1-.3.2h.1c-.2 0-.4-.1-.5-.1.3.5 1 .3 1-.3v-.1c0-.2-.2-.5-.4-.5-.4-.1-.8.2-.8.6-.1.5.6.7.9.2zm-1.5.2c-.1 0-.1.1-.2.1.7-.3.4-1.2-.3-1.1h-.1c-.2 0-.4.2-.4.4v.4c.1.6.9.8 1 .2zm-1.9-.6h.2c.1.1.2.3.3.4v-.4c-.1-.4-.7-.4-.9 0-.1.3 0 .5.1.7.1.1.3.2.4.1.2 0 .3-.2.3-.3.3-.3-.1-.7-.4-.5zm-1.8-.1c0 .2-.1.5.1.7.2.2.4.4.7.3.3-.1.4-.2.5-.5.1-.3-.2-.7-.5-.7-.2 0-.4.1-.6.3.2 0 .3-.1.5-.1.1 0 .1.1.2.1-.2-.5-.8-.6-.9-.1zm25.4-26.4c-5.5-4.7-13.9-9.6-21.3-5.7 0 0-12.6-5.2-19.6 4 0 0-.6-13.8 19.7-13.6s20.9 13.7 21.2 15.3z"/><path d="M83.8 95c1.1-.8 1.5-2.6.5-2.8 0 0 .8-2.9-1.2-2.8 0 0 0-2.8-1.8-1.8 0 0-1.8-2.6-3.2-.6 0 0-3.5-2.1-4.1-.3 0 0-2.6-1.5-2.9.3 0 0-3.1-.3-2.4 1.5 0 0-2.8.6-1.4 2 0 0-2 .8-.8 1.7 0 0-2.4 2.4.5 2.8 2.7.3 16.8 0 16.8 0zm-14.6 15.5c-2.4-1.2-5.4-1.1-7.2 1.1-.3.4.2.9.5.5 1.7-2.2 4-1.9 6.4-1.2.4.1.6-.3.3-.4zm12.2.3c2.6-.3 6.6-.8 7.9 2.1.2.5.9.1.8-.3-.9-3.4-6.1-2.9-8.7-2.3-.4.1-.3.5 0 .5z"/><path class="st7" d="M22.4 187.2c-7.7-1.9-16.6-1.8-16.8 2.2s5.5 4.7 12.6 1.3l.4 1.9s4.4.3 4.2.1c-.2-.2-.4-5.5-.4-5.5zm7.3 1.2l-.2 4 3.7.3.1-2s4.8 2.5 8.5 1.8 6.2-1.7 3.9-4.8-7.9-3.2-16 .7z"/><path class="st2" d="M10.7 96.7c-1.6 3-3.9 11.4-3.3 19.7s1.2 30.8-.8 36.2c0 0 5.5 3.9 13.6 1.7.7-12.3 2.2-29.9 3-35.1.8-5.1.3-7.7-2.3-11.1-2.6-3.4-4.7-7-4.8-10.7l-5.4-.7zm20.8.7c.8 2.7.2 7.4-2.2 11.3s-1.4 7.7-.6 11.8c.8 4.1 2.3 14 2.4 20.6.1 6.7-.2 14.4-.2 14.4s11 1.1 12.2-2.2c0 0 .5-17 .3-25.2s-.6-22.4-7-32l-4.9 1.3z"/><path class="st13" d="M16.2 98.1l2.3-.1c.3 3.3 6.8 4.4 6.8 4.4 4.1-.7 4.5-4 4.5-4l2-.5c.5 1.8.3 4.2-1.1 6.9-3.4 7-2.3 10.4-2.1 14.3s2.2 18.2 2.8 30.5c-3.9 1.1-11 .2-11 .2.6-7.1 2.7-30.2 3-33.7s-2.2-7.3-3.6-9.1-2-3.2-2-3.2c-1.2-2.3-1.6-5.7-1.6-5.7z"/><path class="st14" d="M24.8 61.5C7.7 61.8-.7 71.7 2.5 84.7S13.7 99 18.9 99.2c0 0 2.9 3.2 5.8 3.2 0 0 4.6.1 5.1-3.9 8.1-1.9 18.1-9.3 16.4-20.5-1.7-11.3-8.6-16.8-21.4-16.5z"/><path class="st15" d="M24.9 102.6l-1.7 3.2s.6 2.3 1.9 2.3c0 0-1.5 2.1-1.9 8.8-.4 6.7-.7 13.3 2 19.5 2.3-5 3.2-9.8 3-17.9-.3-8.1-2-11.1-2-11.1l1.1-1.8-2.4-3z"/><path class="st10" d="M43.1 75.4l-14.4.7.1 5.9 14.9-1.3zm-20 .7s.9 4.3.5 6c0 0-7.9-.9-14 .4l-.7-5.9 14.2-.5z"/><path d="M18.4 155c1.4 10.4 1.7 21.8 2.6 32m12-31.3c.2 14.5-2.9 21.9-2 32.1" fill="none" stroke="#000" stroke-width="2.723" stroke-miterlimit="10"/><path d="M22.1 186.8c-3.4-1-16.8-3.8-16.9 2.8-.2 7.3 9.7 3.2 13.2 1.5.5-.3.2-1.2-.4-1-1.3.5-2.5 1.1-3.9 1.5-.8.2-1.6.3-2.4.5-.4 0-.9.1-1.3.1-2.1.3-2.7-1.2-2-4.5 3.5-2.3 9.9-.8 13.6.1.5.2.7-.8.1-1z"/><path d="M18.2 190.3c-.1.6-.1 1.2-.1 1.8 0 .4.3.8.7.7 1.3 0 2.6-.1 3.9-.1.5 0 .9-.5.8-1-.2-.8-.1-1.8-.1-2.7 0-.7-.2-1.4-.6-2.1-.3-.5-1.1-.2-.9.4.2.7.4 1.3.4 2s-.2 1.6-.3 2.3c.3-.2.7-.4 1-.6-1.4-.4-3.1-.3-4.4.3.4.1.7.3 1.1.4-.1-.5-.1-1-.2-1.5-.2-.3-1.2-.6-1.3.1zm11.7-1.6c3.7-1 7.5-2.8 11.3-2.9 2.1.1 3.6 1.2 4.3 3.3 1.1 2.9-2.1 2.5-3.6 2.5-2.6.2-5.2-.4-7.6-1.2-.9-.3-1.3 1.1-.4 1.4 3.8 1.5 15.4 3.5 12.5-4-2.4-6.3-12.9-1.5-16.8-.1-.5.2-.3 1.1.3 1z"/><path d="M30.1 188.6v-.3c0-.5-.8-.7-1-.1-.4 1.2 0 2.4-.3 3.6-.1.4.2.7.6.7 1.2 0 2.4.2 3.6.3.7.1 1.2-.5.9-1.2-.2-.4-.1-.9-.2-1.3 0-.7-1-1-1.3-.4-.4.8-.2 1.7.1 2.5.2-.4.5-.8.7-1.2-1.3-.2-2.5-.1-3.8.1.2.1.4.3.6.4-.3-1.1.1-2.4.1-3.5-.3 0-.6.1-1 .1 0 .1 0 .2.1.3.1.6.9.5.9 0zM10 97.7c-3.9 7.3-3.5 15.9-3.4 24 .2 10.2 1.1 20.5-1 30.6-.3 1.2 1.6 1.7 1.9.5 2-8.6 1.5-17.5 1.2-26.2-.4-9.4-1.9-19.6 2.2-28.3.3-.6-.6-1.2-.9-.6zm33.5 55.6c.3-10 .8-20 .5-30-.1-4.4-.6-8.8-1.4-13.2-1-5.5-3.1-9.3-5.6-14.2-.6-1.1-2.3-.1-1.7 1 2.4 4.6 4.4 8.6 5.4 13.7 1 4.7 1.2 9.5 1.4 14.4.4 9.4 0 18.9.3 28.3.1.6 1.1.6 1.1 0z"/><path d="M15.7 99.4c1 5 4.9 8.2 6.3 12.8 1.5 4.8-.2 11.5-.7 16.4-.7 5.5-1 10.9-1.3 16.5-.1 2 .6 8.3-2.3 8.6-3.8.4-7.4-.1-10.8-1.7-1-.5-1.8.9-.9 1.5 4.4 2.8 9.8 2.5 14.7 1.7.4-.1.7-.5.7-.9-.1-10.3 1.2-20.5 2.3-30.7.4-3.9.7-8 0-11.8-.3-1.6-1.4-3-2.4-4.3-2.1-2.7-3.7-5-4.7-8.3-.2-.6-1-.4-.9.2zm15.5-1.5c.9 5.6-3.3 9.1-3.6 14.3-.3 4.5.5 9.1 1 13.5 1.2 10 1.6 19.8 1.5 29.9 0 .5.4.9.9.9 4-.1 8.4.4 12.1-1.6.9-.5.3-2-.7-1.6-2.5.9-4.9 1.2-7.6 1.3-1 0-2.9.7-2.9-.8v-5.5c0-6-.4-11.8-1.1-17.7-.6-5.6-1.6-11.3-1.8-17-.2-5.8 4.3-10 3-16 0-.7-.9-.4-.8.3z"/><path d="M21.3 150.5c3.4.5 6.8.6 10.2-.1.9-.2.5-1.6-.4-1.4-3.2.9-6.4.5-9.7.5-.5 0-.7 1-.1 1zM8.9 113.1c-.6 2.5-.1 5.2 0 7.7.1 1.5 4.2 3.3 5.2 4.1.3.2.6.2.9 0 1-.8 5-2.4 5.1-3.8.1-2.6-.6-5.1-.6-7.7 0-.4-.3-.7-.7-.7H10c-.9 0-.9 1.4 0 1.4h8.8l-.7-.7c0 2 .4 3.9.6 5.9.2 1.6-.6 2.1-2 2.9-.9.5-1.7 1.1-2.5 1.8.3 0 .5-.1.8-.1-1.6-1.2-4.9-2.1-5.1-4.3-.2-2.1-.4-4.2-.2-6.4 0-.5-.7-.5-.8-.1zm22.8-.2c-.4 1.5-.3 3-.5 4.5-.1.4.2.7.5.7 2.9.1 5.7-.4 8.6-.6.3 0 .6-.2.6-.6-.1-1.4-.4-2.9-.4-4.3 0-.3-.3-.6-.6-.6-2.7.1-5.4 0-8 .7-.7.2-.4 1.3.3 1.1 2.6-.6 5.1-.6 7.7-.7l-.6-.6c.1 1.4.4 2.9.4 4.3l.6-.6c-2.9.2-5.7.7-8.6.6l.6.6c.2-1.5 0-3.1 0-4.6 0-.2-.5-.3-.6.1z"/><path d="M33.1 115c0 .4.4.4.7.4.5-.1.9-.2 1.4-.4.2-.1.4-.1.6-.2.4-.1.3 0 .2.6 0 .2.2.2.3.2.2-.1 1.3-1 1.5-.5.1.2.1.3.2.5.2.2.6 0 .7-.2.2-.2-.1-.5-.3-.3-.3.3-.3-.4-.6-.5-.7-.2-1.2.4-1.7.7.1.1.2.1.3.2 0-.3-.1-.6-.1-.9 0-.1-.1-.1-.2-.1-.3.1-2.6 1-2.7.6-.1-.3-.3-.2-.3-.1zm1-16.3c1.4 2.1 1.5 4.6 1.5 7 .2-.2.4-.3.6-.5-.9-.3-1.6-.5-2.5-.5-.5 0-.7.5-.5.9.8 1.6.9 3.1.8 4.8l.6-.6c-1.9-.1-3.6-.6-5.5-.6-.8 0-.8 1.2 0 1.3 1.8.1 3.7.6 5.5.6.4 0 .6-.3.6-.6.1-2-.1-3.7-1-5.4-.2.3-.4.6-.5.9.7 0 1.5.1 2.2.2.3 0 .6-.1.6-.5-.1-2.6-.2-5.2-1.8-7.4-.2-.4-.9-.1-.6.4zm-20.5-.1c-.9 2.9-1.2 5.9-.9 8.8 0 .4.5.8.8.5 1-.7 1.8-1.3 2.9-1.6-.2-.2-.5-.4-.7-.6 0 1.6.1 3.1.1 4.7 0 .4.4.7.8.6 1.7-.2 3.4-.2 5.1-.6.8-.2.4-1.3-.3-1.2-1.7.3-3.4.4-5.1.6.3.2.5.4.8.6-.1-1.6-.2-3.1-.2-4.7 0-.4-.4-.7-.7-.6-1.2.3-2.2 1-3.2 1.8.3.2.6.3.8.5-.4-2.9-.2-5.8.5-8.6.2-.4-.5-.6-.7-.2z"/><path d="M10 96.6c-4.2 5.9-6.6 13.5-7.2 15.5-.6 2-1.3 4.4-1.6 6.6-.3 2.2.3 6.7.3 9.4s1.9 10.3 3.4 13.5m31.9-45.8c2.4 3 5.3 7.2 6.3 10.5s2.9 8 3.4 10.8c.6 2.7 1 6.6 1.4 9.7s-.3 10.7-2 14.5" stroke-width="2.269" stroke-linecap="round" fill="none" stroke="#000" stroke-miterlimit="10"/><path d="M19.3 100.5c3 2.8 8.1 3.3 10.4-.5.3-.4-.4-.8-.7-.4-2.1 3.3-6.6 2.6-9.2.3-.3-.3-.9.3-.5.6z"/><path d="M30.1 99.5l-.1.1c.4-.1.3-.8-.2-.7-.1 0-.2.1-.3.2-.3.4.3.8.6.4zM17 102.6c1.7 1.7 3.2 3.9 5.1 5.3.2.1.5 0 .6-.1.7-1.7 1.6-3.3 2.6-4.9h-.7c1 1.5 2.1 2.8 2.9 4.4.1.2.4.3.6.2 1.2-.7 2.4-1.3 3.4-2.1.4-.3-.2-.9-.6-.6-.2.2-2.6 2.2-3.1 1.4-.7-1.3-1.7-2.4-2.5-3.6-.2-.3-.6-.3-.7 0-.4.6-2.2 4.8-2.9 4-1.4-1.5-2.7-2.9-4.3-4.3-.3-.4-.7 0-.4.3z"/><path d="M23.2 106.3c.4 1 .9 2.5 2.3 2.1 1-.3 1.9-2 2-3 0-.4-.5-.5-.7-.2-.4.8-.6 1.7-1.3 2.3-.8.8-1.6-1.1-1.9-1.6-.2-.2-.6.1-.4.4z"/><path d="M24.7 108.3c-2 3.2-1.7 8.2-2.2 11.8-.7 5.6.5 11.2 2.2 16.6.1.4.7.5.9.1 2.4-4.5 2.9-9.4 2.8-14.5-.1-4.8.4-10.6-1.8-15-.2-.5-.9-.1-.7.4 2 4 1.3 8.8 1.6 13.2.4 4.8-.1 9.8-2 14.2.1-.2-1.2-4.2-1.4-4.8-.6-2.8-.9-5.6-.8-8.5.1-3.4.2-10.2 1.9-13.3.2-.2-.3-.5-.5-.2zm20.8-30.2c.8 19.9-30.1 27-39.5 10.3-2.4-4.3-3.2-9.5-2.3-14.4 1.1-6.1 9.6-9.7 14.8-11.2 9.4-2.7 25.7.3 26.5 12.6.1 1 1.7 1 1.6 0-.7-12.2-15.4-16.5-25.4-15-6.4.9-12.6 4-16.8 8.9-4 4.5-3.4 11.2-1.9 16.4 6.5 22.8 47.4 16.3 44-7.8 0-.5-1-.4-1 .2z"/><path d="M35.2 86.3c-5.8 2.2-11.5 4.4-17 .3-1.1-.8-2.2 1.1-1.1 1.9 6.1 4.6 12.4 1.8 18.5-1.1.7-.3.3-1.3-.4-1.1zm2.2-8.6c-1.4-1-3.9-1.7-5.2-.2-.5.6 0 1.8.8 1.4.6-.2 1.1-.6 1.8-.7.7 0 1.4.2 1.9.5.8.4 1.3-.5.7-1zm-15.9.4c-1.5-1.2-4-1.5-5.4.1-.8.9.5 2.2 1.3 1.3 1-1 2.2-1 3.4-.2.8.5 1.4-.7.7-1.2z"/><path d="M42.8 75.6c0 1.1 0 2.2.2 3.3.4 2.5-3.6 1.8-5.1 2-.9.1-8.8 1.2-8.7.2.1-1.4 0-2.7-.1-4-.2-1.3 3.5-1 4.4-1.1 3.1-.1 6.2 0 9.3-.3.6 0 .6-.9 0-.9-4.8.4-9.6-.1-14.3.9-.2 0-.3.3-.3.5.3 2 .4 3.8.2 5.8 0 .2.2.4.4.4 5-.3 9.9-1.1 14.9-1.2.1 0 .3-.1.3-.3-.2-1.7-.5-3.5-.5-5.2-.1-.4-.7-.4-.7-.1zm-20.1.7c.4 1.6.6 3.2.5 4.9 0 .4-4.2 0-4.6 0-3.1 0-6.2.2-9.2.8.2.2.4.3.6.5-.1-1.1-.3-2.1-.5-3.2-.6-3.1 1.1-2.5 3.4-2.6 3.4-.1 6.8-.1 10.2-.1.6 0 .6-1 0-1-4.7 0-9.5 0-14.2.3-.3 0-.5.2-.5.5-.2 2.1.4 4 .6 6.1 0 .3.3.5.6.5 4.6-.8 9.3-.9 13.9-.5.3 0 .5-.2.5-.5.1-2-.1-3.9-.8-5.8-.1-.4-.6-.2-.5.1z"/><path d="M29.2 78.2c-1.5.1-2.9.2-4.4.2-.6 0-.5 1 .1.8 1.4-.3 2.9-.2 4.4-.4.3 0 .3-.6-.1-.6zM8.9 79.6c-2-.1-4 0-6.1-.2-.7-.1-.7 1.2 0 1.1 2-.2 4 0 6.1-.2.5.1.5-.6 0-.7zm34.6-.8c.8.1 1.6.2 2.4.2.6 0 .6-.9 0-.9-.8-.1-1.6 0-2.4.2-.3 0-.3.5 0 .5zm-22.7-5.5c-2.7-1.2-6.4-.9-8.2 1.7-.3.4.3.8.6.5 2.2-2.1 4.5-2.3 7.3-1.7.4 0 .6-.4.3-.5zm11.7.1c2-.3 3.7 0 5.4 1.1.4.3.9-.4.5-.7-1.7-1.4-4.1-1.6-6.1-.9-.3.1-.1.6.2.5z"/><path class="st14" d="M4.9 141.7c2.4 1.6 5.3 3.5 5.8 5.9.5 2.5.3 5.6-2 4.8-2.2-.8-4.1-2.9-4.8-5.7-.7-2.9.2-5.3 1-5zm41-.1c-2.7 1.1-5.9 2.4-6.8 4.7s-1.3 5.4 1 5.1c2.3-.4 4.6-2 5.8-4.7 1.2-2.8.8-5.3 0-5.1z"/><path d="M5 142.1c1.7 1.4 3.8 3 4.6 5.1.6 1.6.6 5.3-2 3.9-2.6-1.3-3.8-6.6-2.6-9 .3-.7-.7-1.2-1-.6-1.7 3.3 0 10.8 4.2 11.4 2.6.4 3.6-2.1 3.4-4.3-.4-3.5-3.2-5.6-6.1-7.2-.4-.2-.9.4-.5.7zm40.4-.9c-2.9 1-5.8 2.3-7.1 5.3-.9 2.2-.8 5 2 5.5 4.4.7 7.6-7 6.6-10.4-.2-.7-1.3-.4-1.1.3.7 2.8-1.6 7.4-4.3 8.5-2.9 1.1-2-2.9-1.3-4.2 1.1-2 3.6-3.2 5.5-4.2.4-.3.1-.9-.3-.8z"/><path class="st2" d="M196.9 37.7c-.8 3.2.3 7 1.7 10.1 1.5 3.2 1.5 7.7 1.5 12.5s.2 17.5-.1 21.9c-.3 4.4-.6 7.9-.8 9.2-.2 1.3-.6 1.9-2.6 1.7s-4.3-1.2-5-1.5c-.7-.3-.8-.6-.8-3s.2-16.6.2-23.4-1.1-17.5 5.4-28.7l.5 1.2zm19.9.1c0 3-5.8 11.2-7.1 12.4-1.3 1.2-1 3.3-1.2 5.7s-.5 15.8-.8 21.8c-.3 6.1-.4 14.7-.1 15.8 0 0 11.5.3 14.4-1.3 0 0 1-23.4.9-28.7s-.3-20.7-3.7-27.8l-2.4 2.1z"/><path d="M200.9 42.4s8.3 3.3 11.4-2.7l4.2-1.1c-.2 2.7-5.8 10.7-6.9 11.5-1 .8-1.5 2.2-1.4 5 .1 2.8-.1 20.2-.4 24.6s-.5 7.3-.5 7.3-5.5 1.2-7.7-.3c0 0 .5-21.8.3-27.3s-.6-9.8-.6-9.8c-.2-1.4-2.1-4.5-2.4-5.5-1.1-3.8 0-7.4 0-7.4l1 .8c0 .2-1.3 2.3 3 4.9z" fill="#5881c1"/><path class="st19" d="M202 71.6s-2.1-2.3 1.9-21.6l-1.7-2.2 3-3.2 1.5 2.8s-1.4 2.6-1.9 2.7c0 0 1.4 15.3.1 21.5-.5 2.1-1.5 3.2-1.5 3.2s-.8-1.4-1.4-3.2z"/><path class="st20" d="M200.3 120.2c-7.1-1.8-15.5-1.7-15.7 2.1-.2 3.7 5.1 4.4 11.7 1.2l.4 1.7s4.1.3 3.9.1-.3-5.1-.3-5.1zm11.1 1.1l-.2 3.7 3.5.3.1-1.9s4.4 2.4 7.9 1.7 5.8-1.6 3.7-4.5c-2.1-2.9-7.5-2.9-15 .7z"/><path d="M207.6 2.4c14.9-.4 23 10.1 21.6 18.8s-7.4 16.3-16.8 18.2c-.9 2.3-3.2 4.8-7.4 4.3-4.1-.4-7.3-3.6-7.8-6.2-7.4-3.6-11.7-12.2-11.1-18.4s5.3-16.2 21.5-16.7z" fill="#a0856e"/><path d="M197.2 93.2c1.3 9.7.9 17.2 1.6 26.7M212 93.1c.7 9.6-.2 18.6.6 28.1" fill="none" stroke="#000" stroke-width="2.536" stroke-miterlimit="10"/><path d="M214.3 22.9c.1.2.3.3.4.5 0 .1.1.2.1.2-.1-.2.4-.1 0-.2-.3-.1-.6-.6-.6-.9-.2.2-.3.4-.5.7.3-.1.5-.1.7 0 .8.4 1.4-.7.7-1.1-.5-.4-1.2-.4-1.8-.2-.3.1-.5.3-.5.7.1 1.1 1 2.5 2.3 2.3.6-.1 1-.6 1-1.2 0-.7-.6-1.1-1.2-1.4-.4-.3-.9.1-.6.6zm-15.6-1.3c.4.1.9.1 1.2.4-.1-.2-.2-.4-.3-.5 0 .8-1.3.4-1.6.2.1.3.2.5.3.8.1-.3.6-.2.8-.2 1 0 1-1.5 0-1.5-.9 0-2.1.3-2.2 1.3 0 .3 0 .7.3.8 1.2.5 2.7.7 3.4-.6.3-.5.3-1.2-.3-1.5-.6-.3-1.3-.3-1.8 0-.2.2-.1.7.2.8zm20.2 14.5c1 4.3 2.4 8.5 3 12.8.8 6 .3 12.3.3 18.4-.1 8-1.9 16.7-1 24.6.1.7 1.2 1 1.3.2 1.5-7.9 1.1-16.8 1.1-24.8 0-6.2 0-12.3-.6-18.4-.4-4.4-2.1-8.8-3.2-13.1-.1-.6-1-.3-.9.3z"/><path d="M221.7 92.2c-2.3.2-4.5.4-6.8.6-2.1.2-4.6.6-6.7.2-.9-.2-1.2 1.2-.4 1.3 2 .4 4.1 0 6.2-.1 2.6-.2 5.3-.5 7.8-1.1.5-.2.4-1-.1-.9zm-25.3-55.3c-1.3 3.7-.1 7.4 1.4 10.9s1.7 7.3 1.4 11.1c-.7 10.1.2 20.3-.7 30.5-1.3 2.5-3 3.2-5.1 2.2-2.8-.8-2.2-5-2.2-7 0-2.6 0-5.1.1-7.7 0-4.4.1-8.9.2-13.3.1-9.2.2-18.7 5.1-26.9.3-.5-.5-1-.8-.5-5.4 8.8-5.4 18.6-5.6 28.5-.1 4.7-.2 9.5-.2 14.2-.1 5-2.3 11.8 3.2 13.9 5.9 2.3 6.5-.1 6.9-5.3.6-6.9.6-13.7.4-20.7-.1-5 .4-10.1-.2-15.1-.6-5.1-4.5-9.2-2.9-14.6.1-.5-.8-.8-1-.2z"/><path d="M216.1 38.6c-.7 2.7-2.4 5.1-4 7.4-1.1 1.7-4.1 3.5-4.2 5.8-.3 3.6-.3 7.2-.5 10.8-.3 10.4-1 20.8-.6 31.2 0 .8 1.2.8 1.2 0-.3-10 .3-20.1.6-30.1.1-3.5.2-6.9.2-10.4 0-2.4 3.4-5.7 4.8-7.8 1.4-2.1 2.8-4.2 3.3-6.7.2-.5-.6-.8-.8-.2z"/><path d="M217.7 38.7c.1 1.6 0 3.2-.2 4.8-.3 2.6-1.4 4.9-2 7.5.4 0 .7-.1 1.1-.1-.8-1.3-1.8-1.7-3-2.5-.3-.2-.7.2-.5.5.7 1 1.8 1.4 2.4 2.6.2.5 1 .4 1.1-.1 1-4.3 2.2-8.1 1.6-12.5.1-.6-.5-.6-.5-.2z"/><path d="M213.2 49.2c-.3 1.6.2 3.1-.6 4.7.2-.1.4-.2.6-.2-.2-.1-.4-.4-.6-.6-.2-.2-.5-.4-.8-.6-.7-.5-1.6-.8-2.3-1.2-.7-.4-1.3.7-.6 1l2.4 1.2c.6.3.9 1 1.6 1.2.2.1.5 0 .6-.2.7-1.5.9-3.6.3-5.2-.1-.4-.5-.5-.6-.1zm-1.1-9.6c-3.1 6.1-10.9 4.2-14-.7-.2-.3-.7-.1-.5.2 2.5 6 12.2 6.9 14.9.7.1-.2-.2-.5-.4-.2z"/><path d="M213.7 39.3c-1 .9-1.8 2.7-2.5 3.8-.9 1.4-1.9 2.6-3.1 3.7-1.6 1.6-2.4-1.6-2.9-2.5-.1-.2-.4-.2-.5-.1l-2.1 2.4c-1.1 1.3-2.2-1.5-2.6-2.3-.8-1.6-1.4-3.2-1.9-4.9-.1-.3-.6-.3-.6.1.3 2.9 2.1 6.6 4.3 8.4.1.1.4.2.5 0 .7-.8 1.4-1.7 2.1-2.5.9-1.1 2.1 3 2 2.8.1.2.3.3.4.2 1.7-1.2 3-2.6 4.2-4.3 1-1.3 1.7-3.4 2.9-4.6.3-.1 0-.4-.2-.2z"/><path d="M206.4 47.1c-.4.8-.9 1.7-1.5 2.4-.5.6-1.1-.5-1.4-.8-.4-.4-.7-.9-1.1-1.3-.2-.3-.7.1-.5.4.5.7 1 1.3 1.5 1.9.3.3.7.8 1.2.6 1.1-.3 1.8-2 2.1-3.1.2-.1-.2-.3-.3-.1z"/><path d="M204.6 50.4c1 7 2.4 17.8-1.4 24.3-.2.4.3.6.5.3 4.4-6 2.4-18.1 1.3-24.7 0-.3-.5-.2-.4.1z"/><path d="M203.7 50.5c-1.7 7.2-4.7 17-.8 24 .2.3.6.1.5-.2-1.2-3.4-1.7-5.7-1.5-9.3.3-4.8 1.4-9.5 2.2-14.3.1-.4-.3-.5-.4-.2zm15.2 6.8c-.1.2-.1.4-.2.6-.2.6-.7-.4-.8-.5-.3-.3-.2-.2-.6-.3 0 0-.1 0-.1.1-.1.2-.5 0-.6 0-.1 0-.1 0-.1.1-.2.5-.9.2-1.3.2-.2 0-.7-.1-.8-.1-.3.1.8.6-.8.2-.2 0-.2.2-.1.3.2.1.4.1.6 0 .7-.3 1.5-.1 2.3 0 .1 0 .1 0 .1-.1.1-.3.2-.3.6-.2h.2c.4-.4.9.7 1.5.7.1 0 .1 0 .1-.1l.3-.9c-.1-.1-.3-.2-.3 0zm1.2-2.2c-2.5-.1-5.1.2-7.6.4-.7 0-.7 1.1 0 1 2.6-.2 5.2-.2 7.7-.6.6 0 .4-.7-.1-.8zm.4 3.7c-1.2-.2-2.5.3-3.8.3-1.4.1-2.8 0-4.3.2-.4.1-.3.7.1.7 1.4.1 2.8-.1 4.2-.2 1.2-.1 2.5-.5 3.7-.5.4.2.5-.4.1-.5z"/><path d="M212.1 56.6c.3 1 .2 2 .1 3-.1.5.7.6.7.1.1-1.1.2-2.2-.2-3.3-.2-.3-.8-.2-.6.2zm8-.8v3.3c0 .5.8.5.8 0v-3.3c-.1-.5-.8-.5-.8 0z"/><path class="st23" d="M219.1 37.2c3.4 4.4 7.4 14 7.5 14.4 1.3 3.3 2.3 7.4 3 9 .7 1.7 1 3.1.8 3.6 0 0-.4 6.2-1.1 9.8-.8 3.7-1.7 7.2-1.7 7.2"/><path d="M206.9 86.7c-2.2 0-4.6.4-6.7 0-.7-.1-1 .9-.3 1.1 2.2.6 4.9.2 7.2-.2.5-.1.3-.9-.2-.9zm-6.9 33.1c-3.2-.9-15.6-3.6-15.8 2.6-.2 6.8 9 3 12.2 1.4.5-.2.1-1.1-.4-.9-1.2.5-2.4 1-3.6 1.4-.7.2-1.5.3-2.3.4-.4 0-.8.1-1.2.1-1.9.3-2.6-1.2-1.9-4.2 3.3-2.2 9.2-.7 12.7.1.6.2.9-.7.3-.9z"/><path d="M196.3 123c-.1.6-.1 1.1-.1 1.7 0 .4.3.7.7.7 1.2 0 2.4-.1 3.6-.1.5 0 .8-.5.7-1-.2-.8-.1-1.7-.1-2.5 0-.7-.2-1.3-.5-1.9-.2-.5-1-.1-.8.4.2.6.4 1.2.4 1.9s-.2 1.5-.3 2.2c.3-.2.6-.4.9-.5-1.3-.3-2.9-.3-4.1.3.3.1.7.3 1 .4-.1-.4-.1-.9-.2-1.4-.2-.6-1-.8-1.2-.2zm15.3-1.1c3.5-.9 6.9-2.6 10.6-2.7 2 .1 3.3 1.1 4 3 1 2.7-1.9 2.3-3.3 2.4-2.4.1-4.8-.3-7.1-1.1-.9-.3-1.2 1-.4 1.3 3.6 1.4 14.3 3.2 11.7-3.7-2.3-5.8-12-1.4-15.7-.1-.7.2-.4 1.1.2.9z"/><path d="M211.7 121.9v-.3c0-.5-.7-.6-.9-.1-.3 1.1 0 2.3-.2 3.4-.1.3.2.7.5.7 1.1 0 2.2.1 3.3.3.7.1 1.1-.5.8-1.1-.2-.4-.1-.8-.1-1.2 0-.6-.9-1-1.2-.3-.4.8-.2 1.5.1 2.3.2-.4.4-.7.6-1.1-1.2-.2-2.3-.1-3.5.1.2.1.4.3.5.4-.3-1.1.1-2.2.1-3.3-.3 0-.6.1-.9.1 0 .1 0 .2.1.3.1.4.8.3.8-.2zm-16.9-82.3c-.5 3.4-1.2 6.6-1.3 10 0 .2.2.5.5.5.9-.1 2-.1 2.9-.4.5-.1.4-1-.1-.9-.9.1-1.8.3-2.8.4l.5.5c-.1-3.3.8-6.6 1.2-9.9 0-.6-.8-.7-.9-.2z"/><path d="M199.5 51.8c-1.7.5-3.1 1.5-4.6 2.5.2.1.5.2.7.3-.6-1.5.6-3.4 1.3-4.6.3-.6-.6-1.1-.9-.5-.8 1.5-2 3.6-1.3 5.4.1.3.4.5.7.3 1.4-1 2.7-2 4.3-2.5.6-.2.4-1-.2-.9zm6.8-48.9c9-.1 18.7 2.7 21.6 12.2 3.3 10.5-6.5 22-16.7 23-10.9 1.1-20-3.1-23.3-13.9-3.7-11.9 7.1-20.1 17.9-20.9.7-.1.7-1.1 0-1.1-10.9.7-21.4 7.6-20.1 19.7.6 5.6 3.2 11.1 7.6 14.7 4.4 3.6 11.4 3.9 16.7 3.8 11.6-.3 21.3-11.8 19.9-23.2-1.4-11.6-13.4-15.4-23.5-15.1-.7-.1-.7.8-.1.8z"/><path class="st23" d="M196.2 37c-2.8 3.9-5.3 7.6-6.6 9.4-1.2 1.8-4.6 10.2-5.5 12-.9 1.8-1.1 3.5-1.1 3.5s0 8.8.6 11.6c.6 2.7 1.5 6.4 1.5 6.4"/><path d="M192.9 56.9c1.5.6 3.1.4 4.7.9-.1-.2-.3-.5-.4-.7-.5 1.8-.7 3.6-.8 5.4 0 1.6-1.9 2.6-3 3.8.3 0 .6.1.9.1-1-1.7-2.1-2.7-2-4.8.1-1.8.8-3.5.7-5.4 0-.7-1-.7-1 0-.1 2.3-.9 4.4-.7 6.7.1 1.5 1.4 2.7 2.1 4 .2.3.6.4.9.1.9-.9 1.8-2 3.1-2.5.2-.1.3-.3.3-.5 0-2.3.1-4.5.7-6.6.1-.3-.1-.6-.4-.7-1.6-.5-3.2-.2-4.8-.5-.6-.1-.7.5-.3.7zM211.5 30c-3.8.4-7.2.3-10.8-1-.9-.3-1.4 1.1-.6 1.5 1.9 1 3.4 2.7 5.5 3.3 1.7.5 3.6-1.1 4.8-2.1.6-.5-.2-1.2-.7-1-1.9.9-2.8 2.2-5.1 1-1.3-.7-2.4-1.8-3.7-2.6-.3.5-.5.9-.8 1.4 3.6 2 7.8 1.7 11.6.5.5-.2.4-1.1-.2-1zm-8.1-11.7c-2.7-1.3-6.3-.9-9 .2-1 .5-.2 1.8.7 1.7 1.4-.2 2.7-.6 4.1-.8 1.3-.1 2.6.1 3.9 0 .6 0 .9-.9.3-1.1zm8.1 1.8c1.5-.1 2.9 0 4.3.4 1.3.4 2.3 1.3 3.6 1.7.8.3 1.3-.8.8-1.4-1.9-2.2-6.3-2.7-8.9-1.9-.5.3-.4 1.2.2 1.2z"/><path d="M228.9 22.2c-3.1-6.8-6.1-13-20.9-10.8 0 0-15.2-6.3-21.8 5.5 0 0-1.5-2.3-.1-3.4 0 0-1.4-2.1.3-2.7 0 0-.3-2.7 1.5-2.5 0 0 .3-2 1.9-1.8 0 0 .1-2.2 2.5-1.8 0 0 .6-2.3 2.5-1.5 0 0 .4-1.8 2.5-1.1 0 0 .7-1.9 3.6-.5 0 0 1.3-2 3.4-.6 0 0 1.1-2 3.5-.1 0 0 1.4-1.8 3.3.1 0 0 1.8-1.6 3.4.6 0 0 2.4-1.2 3.4.7 0 0 2.5-.9 3.1 1.2 0 0 2.5-.5 2.5 1.5 0 0 2.9.4 2.5 2.4 0 0 2.5.4 2 2.4 0 0 2.2 1.1 1.1 2.5 0 0 2.3 1.6.7 3.2 0 0 2 1.3.6 2.8 0 0 1.5 1.3 0 2 .2.1.9 2.5-1.5 1.9z"/><path class="st24" d="M223.8 72.7c2-.9 5.9-2.1 9.2.1-2.7 4.9-4.4 7.7-4 10.4.4 2.7.9 5-1.1 5.6-2 .6-3.7-1.1-4.1-3.4-.4-2.3 1.3-3.9 1.7-6.5.4-2.5.1-4.4-1.7-6.2z"/><path class="st24" d="M224.1 72.9c.7.7 1.3 1.6 1.5 2.6.4 1.4 0 2.9-.4 4.3-.5 1.4-1 2.7-1.2 4.1-.2 1.4.1 3.1 1.1 4 .8.7 2.1 1.8 3.5 0 .6-.8.8-2 .6-3s-.6-1.9-.6-2.8c0-.9.4-1.8.8-2.7.9-2.2 1.9-4.3 3.2-6.3"/><path d="M223.8 73.2c3.4 4.1-.6 8.1-.3 12.5.1 1.4 1.5 3.7 3.2 3.7 2.1.1 3-1.8 3.1-3.6 0-.5-.3-1.4-.4-1.8-.6-2 0-3.3.8-5.2.8-1.9 1.8-3.6 2.7-5.4.2-.4-.3-.8-.6-.5-1.5 1.9-2.4 4.1-3.3 6.3-1.1 2.6-.5 3.9-.2 6.6-2.6 2.9-4.1 2.5-4.4-1 0-1 .2-1.9.6-2.8.4-1.4 1.2-2.8 1.2-4.3.1-2.1-.5-3.5-1.8-5-.4-.4-.9.1-.6.5z"/><path class="st24" d="M224.6 72.1c2.3-1 5.7-.7 7.8.7"/><path d="M224.7 72.5c2.4-.9 5.2-.6 7.4.8.6.4 1.2-.6.6-1-2.4-1.4-5.6-1.5-8.1-.5-.5.2-.3.8.1.7z"/><path class="st24" d="M179.2 72.8c1.8-1.3 5.1-3.5 8.9-2.2-2 7-1.6 8.2-.4 11.1 1 2.6 1.2 5.4-.6 6.4s-3.1-.9-4-3-.5-3.3-.6-5.9-1.1-5.1-3.3-6.4z"/><path class="st24" d="M179.6 72.9c.8.6 1.6 1.3 2.1 2.2.7 1.3.9 3.4.8 4.9-.2 1.4-.3 2.1.1 3.6.4 1.4 1.1 3.6 2.3 4.3 1.2.7 2.5.4 3-.9.4-.9.8-2.6.4-3.4-.4-.9-1-1.7-1.2-2.7-.2-.9-.9-3-.7-4 .4-2.3.5-3.6 1.4-5.8"/><path d="M179.3 73.2c3.9 3.2 1.8 7.2 3 11.3.5 1.5 1.9 5 4.1 4.3 1.8-.5 2.9-2.8 2.5-4.6-.4-1.7-1.3-3.2-1.8-5-.7-2.6.3-5.5 1-8 .1-.4-.5-.7-.7-.3-.9 2-1.5 4.4-1.6 6.7 0 1.1.5 2.3.8 3.4.1.4.2.7.3 1 .1.3.3.6.4.9 1.3 3.1.2 4.3-3.2 3.6-2-2.7-1.1-6-1.4-9-.3-2.2-1.4-3.7-3-4.9-.3-.3-.7.3-.4.6z"/><path class="st24" d="M179 72.7c1.4-1.2 5-3.3 8.1-2.3"/><path d="M179.2 73c2.2-1.7 5-2.9 7.8-2.1.7.2 1-.9.3-1.1-3-.7-6.1.7-8.5 2.6-.3.3.1.8.4.6z"/><path class="st7" d="M138.6 159l-2.2-.1s-3.6-4.3-6.9-3.3c-3.3 1-5.4 4.2-3.3 5.7 2.1 1.5 4.9.9 8-.5l.1 1.1 4.2-.3c-.1 0-.1-2.7.1-2.6zm13.5-.1c-.2-.1-2-.1-2-.1l-.6 2.8 3.9.3.4-1.3s3.6 2.7 6.7 1.3c3.1-1.3 3.7-2.8 1.8-4.6-1.9-1.8-9-2.2-10.2 1.6z"/><path class="st15" d="M152 85.4c1.2-3.3.9-4.4.7-6.5 7.7-2.5 13.3-7.2 13.1-18s-6.3-16.6-20.1-17.3c-10.2-.5-21.7 6.9-21.2 19.9s10.3 14.6 14.1 15.4c.7 3.8.6 4.9 2.5 5.8 2.2 1 5.2 2.4 6.1 4.6.9-1.7 3.6-3.7 4.8-3.9z"/><path class="st13" d="M152 85.4c-1.2.2-3.9 2.1-4.9 3.8-.9-2.2-3.9-3.7-6.1-4.6l-.9-.1s.6 1.3 1.9 2.9c1.3 1.6 3.6 5.2 3.3 8.4-.3 3.2-2.2 19-2.8 25.6 0 0 6.5.9 10.1-.2-.6-11.3-2.4-19.1-2.6-22.7-.2-3.5-1.2-6.6 2-13.1z"/><path class="st2" d="M134.4 77.9c-1.5 2.7-4.5 10.5-4 18.2s2 25.8.1 30.9c0 0 4.2 3.6 11.7 1.6.6-11.4 2-25.1 2.8-29.8.8-4.8.3-7.1-2.2-10.3-2.4-3.1-4.3-6.5-4.4-9.9l-4-.7zm18.2.6c.7 2.5.1 6.8-2 10.4-2.2 3.6-1.3 7.1-.6 10.9s2.2 10.3 2.2 16.5c.1 6.1-.1 13.3-.1 13.3s10.1 1 11.2-2c0 0 .4-13.7.3-21.3-.1-7.6-.6-20-6.5-29l-4.5 1.2z"/><path class="st4" d="M163.3 103.4c2.2.4 5.4 1.1 6.2 3.6l-3.7 4.8s3.8 2.7-2.4 6.9c.1 0-.3-10.6-.1-15.3zm-37.5-.1c1 1.1 2.4 3.5 5.5 4l.3 12.1s-4.7-1.2-3.2-7.2c0 0-5.2-1.6-6.7-3.1-.1-.1-.7-2.9 4.1-5.8z"/><path class="st10" d="M126.5 61.7c8-1.5 27.1-4 38.7-2.1-.9 4.7-.9 9.1-8 9.5-7 .4-7.5-.8-8.9-2.5-1.5-1.7-1.8-2.6-2.4-2.6s-1.6 1.2-2.1 2.3c-.4 1.2-2.7 4.3-7.9 3.7-7.6-.7-7.1-2.7-9.4-8.3z"/><path class="st25" d="M154.6 129.9c-.4 9.1-2.3 20-3.5 29m-11.6-29.7c-.1 9.5-1.1 20.3-2.3 29.8"/><path d="M153.5 160.8c2.1 1.8 5.1 2.3 7.8 1.8 2.5-.5 3-3.1 2-5-1.2-2.3-4.9-2.5-7-2-1.1.2-3.2.6-4 1.6-.5.7-.6 1.8-1.8 1.2 0 .3.1.5.1.8h-.6c.4.5 1.1-.2.7-.7-.2-.2-.5-.1-.7 0-.2.2-.1.6.1.8.6.3 1.4.2 2.1.3.3 0 .5-.2.5-.5 0-2.8 6.3-2.6 7.6-2.2 2.3.8 2.7 2.2 1.2 4.2-1 .4-2 .5-3.1.4-1.6-.1-3-.4-4.4-1.2-.4-.3-.8.2-.5.5z"/><path d="M153.3 160.4c-.2.5-.3.9-.3 1.4.2-.1.4-.2.6-.4-.6-.3-1.2-.5-1.9-.6-.4 0-.8-.1-1.1-.1h-.8c.1.2.2.3.3.5 0-.4.2-.8.3-1.2.1-.5.1-1 0-1.5-.1-.7-1.1-.4-1.1.2-.1.7-.1 1.4-.2 2-.1.5-.2.9.3 1.2.4.2 1.1.1 1.5.1.8 0 1.6.1 2.4.3.3.1.5-.1.5-.4 0-.4.1-.8.1-1.2 0-.4-.5-.6-.6-.3zM134 160c-1.9 1-4.3 1.5-6.5 1.2-.3-1.1-.7-2.2-1-3.3.7-1.3 1.8-2 3.3-2 1.3-.2 2.5.5 3.6 1 1.1.6 1.5 1.4 2.3 2.2.6.6 1.9.3 2.5.3.7 0 .7-1.1 0-1.1-.8 0-1.6.4-1.9-.4-.1-.2-.3-.4-.5-.6-.8-.9-2.4-1.6-3.5-2-2.8-.9-5.2-.6-6.9 1.9-1.2 1.7-1.1 4.5 1.1 5.2 2.9 1 5.6-.1 7.9-1.9.4-.2-.1-.7-.4-.5z"/><path d="M138 159.3l-.3 2.1.6-.3c-.6-.2-1.3-.2-2-.2-.8 0-1.6 0-2.3.1.3.1.5.3.8.4l-.3-1.5c-.1-.3-.7-.4-.7 0-.1.5-.1 1-.2 1.5-.1.3.1.7.4.8.6.1 1.2 0 1.9-.1.8-.1 1.5-.2 2.3-.2.2 0 .5-.2.5-.5 0-.7 0-1.5.1-2.3-.1-.2-.7-.2-.8.2zm-5.2-112.2c-9.3 3.6-11 16.9-7 24.9 4.7 9.3 20 9.8 28.6 7.5 12.2-3.2 14.5-16.3 10.4-26.9-4.3-11-21.9-12.9-30.7-6.7-.9.6-.1 2 .9 1.5 8.9-4.9 24-3.8 28.1 6.9 1.7 4.5 1.6 9.8.4 14.3-1.3 5-6.1 7.6-10.8 8.8-7.5 2-19.5 1-24.5-5.7-5.1-6.8-3.1-20.2 4.9-23.9.5 0 .2-.9-.3-.7z"/><path d="M133.7 78.9c-8.2 14.9-.8 32-4 47.9-.2 1.1 1.5 1.6 1.7.5 3.4-15.8-4.2-32.7 3.1-47.8.3-.7-.5-1.2-.8-.6zm30 48.7c.3-9.7.9-19.3.3-29-.2-3.7-.8-7.4-1.6-11-.9-4-2.7-6.9-4.6-10.4-.5-1-2.1-.1-1.6.9 1.7 3.4 3.5 6.3 4.4 10 1.2 4.7 1.6 9.5 1.8 14.3.4 8.4.1 16.8.3 25.2.1.6 1 .6 1 0z"/><path d="M138.1 80.4c.7 3.7 2.6 6.4 4.8 9.4 3.1 4.4.9 13 .2 17.9-.6 4.1-.8 8.2-1 12.4-.1 2.3-.3 4.5-.4 6.8-.1 3.3-10.1-.1-10.8-.5-.9-.5-1.7.8-.8 1.4 3.9 2.4 8.3 2.2 12.7 1.6.4-.1.6-.5.6-.8-.1-9.3 1.3-18.5 2.3-27.7.4-3.5.6-7.3-.8-10.5-1.6-3.7-4.7-6.1-5.9-10.1-.2-.7-1-.4-.9.1zm14.3-1.4c.7 5.1-2.6 7.8-3.2 12.4-.5 3.9.2 7.9.7 11.8 1.1 8.9 1.6 17.5 1.6 26.5 0 .5.4.9.9.9 3.8-.1 7.7.3 11.1-1.5.8-.4.2-1.8-.6-1.5-2.1.8-4.2 1.1-6.5 1.2-3.6.2-3.2-.7-3.2-4.1 0-5.4-.2-10.7-.9-16-.7-5.2-1.7-10.5-1.7-15.8 0-5.1 3.9-8.8 2.8-14.1-.3-.7-1.1-.4-1 .2z"/><path d="M143.3 122c3.2.5 6.3.6 9.4-.1.8-.2.5-1.5-.3-1.3-3 .8-5.9.5-9 .4-.5 0-.6.9-.1 1zm-10-28.8c-.5 1.9-.3 4-.2 6 .1 1 0 1.2.6 2 .9 1.1 2.1 1.9 3.1 2.7.3.2.6.2.8 0 1.4-1.1 3.1-1.9 4.5-3 .2-.2.2-.5.1-.8-1.1-2-.5-4.6-.5-6.8 0-.4-.3-.7-.7-.7h-8.1c-.9 0-.9 1.3 0 1.3h8.1l-.7-.7c0 2.4-.8 5.4.7 7.4 0-.3.1-.5.1-.8-1.4 1.2-3.1 1.9-4.4 3.1.2 0 .5-.1.7-.1-1.7-1.3-3.5-2.1-3.7-4.4-.1-1.8-.2-3.5 0-5.3.3-.2-.3-.3-.4.1zm19.8-.4c-.4 1.4-.2 2.8-.5 4.2-.1.3.1.7.5.7 2.7.1 5.3-.4 8-.5.3 0 .5-.2.5-.5-.1-1.3-.3-2.6-.4-4 0-.3-.2-.5-.5-.5-2.5.1-5 0-7.4.7-.6.2-.4 1.2.3 1 2.4-.6 4.7-.5 7.1-.6l-.5-.5c.1 1.3.3 2.6.4 4l.5-.5c-2.7.2-5.3.6-8 .5l.5.5c.1-1.4 0-2.8 0-4.2 0-.5-.4-.6-.5-.3z"/><path d="M154.3 94.8c0 .4.3.4.6.4.4-.1.9-.2 1.3-.4.2-.1.3-.1.5-.2.4-.1.3 0 .2.5 0 .1.2.2.3.2.2-.1 1.2-.9 1.4-.5.1.2.1.3.2.4.2.2.5 0 .7-.2.2-.1-.1-.4-.2-.3-.3.2-.3-.4-.6-.4-.6-.2-1.1.4-1.6.7.1.1.2.1.3.2 0-.3-.1-.5-.1-.8 0-.1-.1-.1-.2-.1-.3.1-2.4 1-2.5.5 0-.2-.2-.1-.3 0zm-18.9-31.9c-.6.4-1 1.2-.9 2 .1.7.8 1 1.5 1 .6 0 1.2-.4 1.5-.9.4-.6.3-1.7-.2-2.2-.5-.5-1.5-.2-1.5.6 0 .2.1.4.1.7v.1c0-.3-.1.1 0-.1 0 .1-.1.2 0 0 0 0-.2.2 0 0 0 0-.2.1 0 0h-.2c.2-.1.1 0 0 0 .3 0 0 0 .2.1-.2-.1.2.2 0 0 .2.2.1.1 0 0 .1.2 0 0 0 .1v-.1c0-.2.1-.4.2-.6.3-.5-.2-1-.7-.7zm16.3-.8c-.5.6-.8 1.5-.6 2.2.2.7 1 1 1.6.8.6-.2 1.1-.7 1.2-1.3.2-.8-.2-2.2-1.2-2.1-.3 0-.7.2-.8.6-.1.4 0 .7.2 1 0 0 .2.3.1.1.1.2 0-.1 0 .1s.1-.2 0 0c.1-.2 0 0 0 0 .1-.2 0 0 0 0 .2-.2 0 0 0 0 .2-.1.1 0 0 0 .2-.1-.1 0 .2 0h.1c-.1 0 0 0 .1.1-.2-.1.1.1 0 0 .1.2 0 0 0-.1v-.2c0-.3 0-.6.1-.9 0-.5-.7-.6-1-.3z"/><path class="st25" d="M134.3 78.2c-3.9 2.8-7.8 7.7-9.4 9.4-1.5 1.7-7.5 9.8-7.5 9.8s2.3 4.7 6.1 8.2m34-28c3.2 2.8 10.5 9.9 12.3 12.2 1.8 2.2 3.4 5.3 3.4 5.3s-3.8 5.9-5.7 9.4"/><path d="M164 104c2.1.3 3.7 1.2 5 3 .4.5 1.2 0 .8-.5-1.3-1.9-3.3-3.4-5.7-3.2-.4 0-.5.6-.1.7z"/><path d="M168.8 107.4c-1.4 1.3-2.7 2.6-3.7 4.2-.1.2-.1.5.1.7 2.3 2.5.6 4.1-1.7 5.5-.6.3-.2 1.3.5 1.1 3.5-1.4 4.9-4.5 2.1-7.4 0 .2.1.5.1.7.9-1.6 2.1-2.9 3.3-4.2.3-.4-.3-1-.7-.6zm-37.9-.4c-1.9-.9-3.4-2.6-4.8-4.1-.2-.2-.5-.2-.7-.1-2.2 1.4-3.6 3.4-4.3 5.9-.1.3.1.6.3.7 2.1 1.3 4.5 2.4 6.8 3.2-.2-.3-.3-.5-.5-.8-1 3.7-.1 5.7 3 7.8.7.5 1.3-.6.6-1.1-2.5-1.9-3.3-3.2-2.4-6.3.1-.4-.1-.7-.5-.8-1.4-.5-2.7-1.1-4-1.7l-1.8-.9c-1.1-.6 1.1-2.9 1.6-3.6.5-.6.9-1.4 1.6-.7.5.5 1 1 1.6 1.5.9.8 1.9 1.6 3.1 1.8.5 0 .8-.5.4-.8zm24.2-27.3c1.3 1.9 1.4 4.3 1.4 6.5.2-.1.4-.3.6-.4-.8-.3-1.4-.4-2.3-.5-.5 0-.7.5-.5.9.8 1.5.8 2.9.7 4.5l.6-.6c-1.7-.1-3.4-.6-5.1-.6-.8 0-.7 1.1 0 1.2 1.7.1 3.4.5 5.1.6.3 0 .6-.3.6-.6.1-1.8-.1-3.4-.9-5-.2.3-.3.6-.5.9.7 0 1.4.1 2 .2.3 0 .6-.1.6-.4-.1-2.4-.2-4.8-1.6-6.8-.3-.6-1-.3-.7.1zm-18.9 0c-.8 2.6-1.1 5.4-.8 8.2 0 .4.4.7.8.4.9-.6 1.6-1.2 2.7-1.5-.2-.2-.5-.3-.7-.5 0 1.4.1 2.9.1 4.3 0 .4.3.6.7.6 1.6-.2 3.2-.2 4.7-.6.7-.2.4-1.2-.3-1.1-1.6.3-3.2.3-4.7.6.2.2.5.4.7.6-.1-1.4-.2-2.9-.2-4.3 0-.3-.3-.6-.7-.5-1.1.3-2 1-2.9 1.7.3.1.5.3.8.4-.3-2.7-.1-5.3.5-8 .1-.6-.6-.7-.7-.3z"/><path d="M134.9 88c-16.2-5-13.4-18.9-12.8-28.5S129 44.7 132.9 45c4.4-10.6 28.5-.1 32.5 5.1 4 5.2 2.6 16 2.4 25s-10.1 11.8-10.1 11.8c1.1-4.3.6-9.9.6-9.9 2.2-.9 6.9-10.8 6.4-17S148 52.8 144 54c-4 1.2-8.2.6-9.9-1-6.6 6.7-10 5.3-5.1 21.5l6.2 3.1c.1 0-2.4 6.5-.3 10.4z"/><path d="M151.1 58.1c2.7-.4 5.8 1.3 5.7 4.3 0 .5.8.5.8 0 .2-3.5-3.6-5.5-6.7-5-.4.1-.2.7.2.7zm-13.8-.1c-3 0-6.1 2.1-6.5 5.2-.1.5.8.7.9.1.5-2.7 2.9-4.4 5.6-4.7.5 0 .5-.6 0-.6zm4.2 13.8c2.7 1.6 6 1.5 8.9.4-.2-.3-.4-.5-.6-.8-1 1.7-1.7 2.7-3.8 2.9-2 .2-3.4-.5-3.9-2.5-.3.3-.7.5-1 .8 2.5 1.8 5.8 2.6 8.4.5.7-.6-.3-1.6-1-1-2.1 1.7-4.8.6-6.7-.7-.5-.4-1.2.2-1 .8.6 2.5 2.3 3.5 4.8 3.5 2.8-.1 4-1.4 5.1-3.7.2-.5-.2-1-.7-.7-2.6 1.2-5.6 1.2-8.1 0-.5-.3-.8.3-.4.5zM139 83.1c2.4 2.5 5.9 3.4 7.5 6.7.3.5 1 .3 1.1-.1.7-1.7 2.6-2.4 3.8-3.6.6-.6-.3-1.4-.9-.9-1.5 1.5-3.4 2.1-4.2 4.1.4 0 .8-.1 1.1-.1-1.7-3.6-5.2-4.2-7.9-6.7-.3-.4-.9.2-.5.6zm-3.9 8.1v1.6c0 .7 1.1.7 1 0 0-.6-.1-1.1-.3-1.7-.1-.4-.7-.3-.7.1zm1.5.7c0 .4 0 .8.2 1.2.2.6 1.2.4 1-.3-.1-.3-.2-.7-.3-1-.2-.5-.8-.4-.9.1z"/><path d="M126.5 62c6.6-.7 13.3-1.6 19.9-2.1 5.5-.4 13.3-1.2 18.6.6.8.3 1.2-1 .4-1.3-5.1-1.7-11.9-.9-17.2-.7-7.3.3-14.7 1.2-21.8 2.8-.4 0-.3.7.1.7z"/><path d="M126.5 61.8c.2 4.1 2.8 7.8 6.9 8.7 2.6.6 5.7-.3 8.1-1 1.2-.4 4.6-5.4 5.7-3.9 2.7 3.8 5.3 4.8 10.3 3.9 5.8-1.1 7.5-4.6 8.2-10.2.1-.5-.7-.6-.8-.1-.2 1.4-.4 2.7-.7 4-1.1 4.7-5.8 5.5-9.8 5.6-3.3 0-5.3-2.2-7-4.6-.2-.3-.6-.5-1-.6-1.4-.4-2.1 1.5-2.6 2.4-2.2 4.2-9.9 5-13.4 2.2-1.7-1.4-2.9-4.3-3.2-6.4-.3-.3-.7-.3-.7 0z"/><path class="st26" d="M268.6 175.2c-.6-.7-1.1 2.3 2.2 3.2 3.3 1 12.3 2.3 13.3-1.3 0 0-7.8-.5-11-.9-3.3-.3-4-.3-4.5-1zm-11.4-.7c-1.5.5-8.1 2.5-10.9 2.5h-5s-.8 1.9 1.2 2.4 5.9.5 8.5-.3c3.3-.9 6.2-2.4 6.2-4.6z"/><path class="st2" d="M257 174.7l.1-1.2s-5.4-2-9.2-1.3-6.2 2.4-6.6 4.9c5 .3 11.4-.9 15.7-2.4zm11.6.5c1.5.8 5 1.2 15.6 2-.5-2.3-2.5-6-7.1-5.1-4.6 1-7.4 2-8.5 3.1zm-15.8-83.4c-.8 3.2.3 6.9 1.7 10.1 1.4 3.2 1.4 7.6 1.4 12.4 0 4.8.2 17.4-.1 21.8-.3 4.4-.6 7.9-.8 9.1s-.6 1.9-2.6 1.7c-2-.2-4.3-1.2-5-1.5-.7-.3-.8-.6-.8-3s.2-16.5.3-23.3c.1-6.8-1.1-17.4 5.4-28.4l.5 1.1zm19.8 0c0 3-5.8 11.1-7.1 12.3s-1 3.3-1.1 5.6c-.1 2.3-.5 15.7-.8 21.7-.3 6-.4 14.6-.1 15.7 0 0 11.4.3 14.3-1.3 0 0 1-23.2.9-28.4-.1-5.2-.3-20.5-3.6-27.6l-2.5 2z"/><path class="st19" d="M256.9 96.4s8.3 3.2 11.3-2.6l4.2-1.1c-.2 2.7-5.8 10.6-6.8 11.4-1 .8-1.5 2.2-1.4 5 .1 2.8-.1 20-.4 24.3-.3 4.3-.5 7.3-.5 7.3s-5.5 1.1-7.7-.3c0 0 .5-21.7.3-27-.3-5.4-.6-9.7-.6-9.7-.2-1.4-2.1-4.4-2.4-5.4-1.1-3.8 0-7.3 0-7.3l1 .8c0-.1-1.4 2 3 4.6z"/><path class="st24" d="M257.8 122.6s-1.9.6 2-18.6l-1.7-2.2 2.9-3.2 1.5 2.8s-1.4 2.6-1.9 2.7c0 0 1.3 12.4 0 18.5-.5 2.1-1.5 3.1-1.5 3.1s-.7-1.4-1.3-3.1z"/><path class="st15" d="M263.5 56.8c14.7-.4 22.8 10 21.4 18.6s-7.3 16.2-16.7 18.1c-.9 2.3-3.2 4.7-7.3 4.3-4.1-.4-7.3-3.6-7.8-6.2-7.3-3.6-11.6-12.1-11-18.3.7-6.2 5.3-16.1 21.4-16.5z"/><path d="M283.2 80.5c3.4 1.6 6.5 1.8 8.2 1.3 0 0-3.2-2.7-4.5-4.3 0 0 5.4.1 6.9-1.7 0 0-5.4-1.5-6.6-3.4-1.2-1.9-.3.1-.3.1s7.6-5.4 8.5-10.8c0 0-6.9 2.4-9.9.4 0 0 3.7-1.8 2.7-6.4 0 0-8.2 4-14.9 3.3 0 0-5.4-3-7.2-5.4-1.8-2.4-5.5-8.5-5.5-8.5s-6.5 3.9-6 9.8c0 0-2.9-2.2-3.8-3.3-.9-1.1-2.9-3.6-3.8-3.6-.9-.1-1.5 2.6-1 4.5.4 1.9 2.6 6.8 2.6 6.8s-10.1-.5-14.5-2.6c0 0 4.6 6.1 10.5 7.7 0 0-9.1 2.9-10.8 3.6 0 0 5.6 1.6 7.1 3.3 0 0-4.2 3.8-5.5 4.6 0 0 3.4.8 4.3 2 0 0-1.8 2.4-1 3.3.8.9 3.6.1 4.8-.1-2.4-4.9-1.7-12.4 3.1-16.8s12.3-7.3 19.7-6.5c7.4.8 14.3 3.5 16.6 9.9 2.2 6.2 1 10.8.3 12.8z" fill="#d3d3d3" stroke="#000" stroke-width=".21"/><path d="M253.4 66.9c-2.5 0-6.6 2.7-6.1 6.1s4.1 5.5 7 5.7c2.9.1 7.2-2.2 7.1-5.7s-1.9-6.2-8-6.1zm11 4.6c.2 3 2.9 6.4 6.1 6.4 3.2 0 6.9-2.7 6.8-5.1-.1-2.4-1.8-5.4-5.2-6.2-3.5-.7-8.1-.2-7.7 4.9z" opacity=".3" fill="#575757" stroke="#000" stroke-width=".21"/><path class="st25" d="M256.1 141.2c1.3 9.6-.5 25.2-.6 32.1m13.3-26.1c.7 9.5-.3 18.2.4 27.6"/><path d="M257.1 173.1c-4.4-1.5-8.8-2.3-13-.2-2.3 1.2-4.1 3.8-3 6.3.4.8 1.9.9 2.6 1 2.7.3 5.3 0 7.9-.7 2.6-.7 6.8-2.4 6-5.8-.1-.5-.8-.4-.9.1-.4 5.2-9.3 5.4-13.1 5.2-.4-1-.9-2.1-1.3-3.1.6-.9 1.3-1.5 2.2-2 1.3-.8 2.9-1 4.3-1.2 2.7-.3 5.4.6 8 1.3.6 0 .8-.7.3-.9zm11.4 2.3c4-2.3 11.2-4.8 14.5-.2.1 2.7-1 3.9-3.3 3.5-1.1.1-2.3.1-3.4 0-1.5 0-2.9-.4-4.3-.7-.4-.1-.7-.2-1.1-.3-1.8-.2-1.8-1.2-.2-3 .4-.1.3-.8-.1-.8-2.3.3-4.5 2.9-1.5 4.5 3.6 1.9 10.2 2.6 13.9.7 3.2-1.6 1-4.9-1.1-6.5-3.5-2.6-10.6-.1-13.6 2.1-.4.3-.2.9.2.7z"/><path d="M269.1 175.9c1.8.7 3.7.7 5.6.8 3 .3 6 .5 9 .6.4 0 .4-.5 0-.6-4.5-.3-10.1.1-14.4-1.4-.4 0-.6.5-.2.6zm-28 1.4c5.4.7 10.7-.8 15.9-2.3.4-.1.2-.7-.2-.6-5.2 1.5-10.2 2.7-15.7 2.4-.2 0-.2.4 0 .5zm4.4-3.9c.7.3 1.3.6 1.4 1.5.1-.1.3-.2.4-.3-.9-.4-1 1.1 0 1 .9-.1.6-1.5-.3-1.3-.4.1-.2.6.2.6 0 .1-.1.1-.1.2.2.1.5-.1.4-.3-.2-.8-.9-1.8-1.8-1.7-.3-.1-.4.2-.2.3zm2.1-.8c.7.4 1.2.9 1.5 1.6l.4-.4c-.3 0-.5 0-.7.3-.1.2 0 .6.2.7.6.3 1.2-.3.8-.9 0-.1-.2-.1-.3-.1h-.3c-.3 0-.4.5-.1.5.1 0 .3 0 .4.1-.1 0-.2-.1-.3-.1v.1c.2 0 .5-.1.4-.4-.4-.8-.9-1.6-1.8-1.9-.3-.1-.5.3-.2.5zm2-.3c.3.2.5.5.8.8.1.1.2.3.3.4.1.1-.1.2-.1.3-.1.4.1.8.5.9.3.1.9-.2.8-.6-.1-.4-.6-.6-.9-.4-.3.2 0 .7.3.5h.1c0-.1.1-.2.1-.3-.2 0-.2-.1-.1-.2 0-.1.1-.2.1-.3 0-.2-.1-.4-.2-.6-.3-.5-.7-.9-1.1-1.1-.5.1-.8.4-.6.6zm29.9.3c-.7.4-1.1 1.1-1.5 1.8.1 0 .3-.1.4-.1-.3-.1-.6-.2-.9 0-.1 0-.2.1-.2.3 0 .4.1.8.7.7.4-.1.7-.4.6-.8-.1-.2-.5-.3-.5 0 0 .2-.1.3-.3.2 0 .1.1.2.1.3v-.4c0 .1-.1.2-.1.2.2-.1.4-.1.5 0 .1 0 .3 0 .3-.1.3-.7.8-1.2 1.2-1.7.1-.2-.1-.5-.3-.4zm-1.7-.7c-1 .3-1.7 1.3-1.9 2.2.1-.1.3-.1.4-.2-.4-.2-.7-.1-1.1.1-.3.3.1.9.4 1 .9.4 1.3-1.1.4-1.1-.3 0-.4.4-.1.5.1-.1.2-.1.3 0 .1 0 .3-.1.4-.2.1-.9.7-1.5 1.5-1.9.2 0 0-.4-.3-.4zm-2.8.4c-.3 0-.5.1-.6.4-.3.4-.5.9-.7 1.3.1 0 .2-.1.3-.1-.8-.2-1.4.8-.6 1.2.7.4 1.2-1.1.3-1.1-.4 0-.4.7 0 .6 0-.1.1-.1.1-.2.1 0 .3 0 .3-.1.1-.2.2-.4.3-.7.1-.1.3-.8.5-.8.4 0 .4-.4.1-.5zm-.1-81.2c1.1 4.5 2.5 8.8 2.9 13.5.5 5.5.2 11 .1 16.5-.1 8-1.8 16.5-1 24.4.1.7 1.2 1 1.3.2 1.5-7.8 1.1-16.7 1.1-24.6 0-6.1 0-12.2-.6-18.3-.4-4.1-1.9-8-3-12-.1-.5-1-.2-.8.3z"/><path d="M277.5 145.7c-2.2.2-4.5.4-6.7.6-2.1.2-4.6.6-6.7.2-.9-.2-1.2 1.1-.4 1.3 2 .4 4.1 0 6.1-.1 2.6-.2 5.2-.5 7.8-1.1.5-.1.4-.9-.1-.9zm-25-54.4c-1.3 3.7-.1 7.3 1.4 10.8 1.5 3.5 1.7 7.3 1.4 11-.3 4.3-.1 8.6 0 12.8.1 3.2 1.4 20.9-4 20-5.9-1-3.9-11.4-3.8-15.9 0-4.1.1-8.2.2-12.4.1-9.2.2-18.5 5.1-26.7.3-.5-.5-.9-.8-.5-5.2 8.4-5.3 17.6-5.6 27.1-.1 4.9-.2 9.8-.2 14.7-.1 3.9-.1 7.8 0 11.7 0 1 .5 1.7 1.5 2.1 4.7 1.8 8 2.7 8.3-2.8.5-7.3.7-14.4.6-21.7-.1-5.2.4-10.4-.2-15.6-.6-5-4.5-9.1-2.9-14.5.1-.4-.8-.7-1-.1z"/><path d="M271.9 92.6c-.7 2.7-2.4 5.1-3.9 7.4-1.1 1.7-4 3.5-4.2 5.8-.3 3.6-.3 7.2-.4 10.7-.3 10.3-1 20.6-.6 30.9 0 .8 1.2.8 1.2 0-.3-9.9.3-19.9.6-29.8.1-3.4.2-6.9.2-10.3 0-2.4 3.4-5.7 4.8-7.7 1.4-2.1 2.7-4.2 3.3-6.7 0-.6-.8-.8-1-.3z"/><path d="M273.5 92.7c.1 1.6 0 3.2-.2 4.7-.3 2.6-1.4 4.9-2 7.4.4 0 .7-.1 1.1-.1-.8-1.3-1.7-1.6-2.9-2.4-.3-.2-.7.2-.5.5.7 1 1.8 1.4 2.4 2.5.2.5 1 .4 1.1-.1 1-4.2 2.2-8 1.6-12.4 0-.5-.6-.5-.6-.1z"/><path d="M269 103.1c-.2 1.6.2 3.1-.6 4.7.2-.1.4-.2.6-.2-.2-.1-.4-.4-.5-.6-.2-.2-.5-.4-.8-.6-.7-.5-1.6-.8-2.3-1.2-.7-.4-1.3.7-.6 1 .8.4 1.6.7 2.4 1.1.6.3.9 1 1.6 1.2.2.1.5 0 .6-.2.7-1.5.9-3.6.3-5.2-.1-.2-.6-.3-.7 0zm-1-9.5c-3 6.1-10.8 4.2-13.9-.7-.2-.3-.7-.1-.5.2 2.4 6 12.1 6.8 14.8.7 0-.2-.3-.4-.4-.2z"/><path d="M269.6 93.3c-1 .9-1.7 2.6-2.5 3.7-.9 1.4-1.9 2.6-3.1 3.7-1.6 1.6-2.3-1.6-2.9-2.5-.1-.2-.4-.2-.5-.1l-2.1 2.4c-1.1 1.3-2.2-1.5-2.6-2.3-.8-1.5-1.4-3.2-1.9-4.8-.1-.3-.6-.3-.5.1.3 2.8 2 6.6 4.3 8.3.1.1.4.2.5 0 .7-.8 1.4-1.6 2-2.5.9-1.1 2.1 3 2 2.7.1.2.3.3.4.2 1.7-1.2 3-2.6 4.1-4.3 1-1.3 1.7-3.3 2.8-4.5.4 0 .2-.3 0-.1z"/><path d="M262.3 101.1c-.4.8-.9 1.6-1.4 2.3-.5.6-1.1-.5-1.4-.8-.4-.4-.7-.9-1.1-1.3-.2-.3-.7.1-.5.4.5.7 1 1.3 1.5 1.9.3.3.7.8 1.2.6 1.1-.3 1.7-2 2.1-3 .1-.2-.3-.4-.4-.1z"/><path d="M260.5 104.3c.9 6.5 2.2 15.3-1.5 21.3-.2.4.3.6.5.3 4.2-5.5 2.4-15.5 1.4-21.7 0-.3-.5-.2-.4.1z"/><path d="M259.6 104.4c-1.5 6.5-4.5 14.7-1 20.9.2.3.6.1.5-.2-1-2.9-1.7-4.7-1.4-7.8.4-4.3 1.5-8.6 2.2-12.8.2-.3-.2-.4-.3-.1zm15 6.7c-.1.2-.1.4-.2.6-.2.5-.7-.4-.8-.5-.3-.3-.2-.2-.6-.3 0 0-.1 0-.1.1-.1.2-.5 0-.6 0-.1 0-.1 0-.1.1-.2.5-.8.2-1.3.2-.2 0-.7-.1-.8-.1-.3.1.8.6-.8.2-.2 0-.2.2-.1.2.2.1.4.1.6 0 .7-.3 1.5-.1 2.3 0 .1 0 .1 0 .1-.1.1-.3.2-.3.6-.2h.2c.4-.4.9.7 1.5.7.1 0 .1 0 .1-.1l.3-.9c0 .1-.2 0-.3.1zm1.3-2.1c-2.5-.1-5 .2-7.5.4-.7 0-.7 1.1 0 1 2.5-.2 5.1-.2 7.7-.6.4 0 .3-.8-.2-.8zm.3 3.7c-1.2-.2-2.5.3-3.8.3-1.4.1-2.8 0-4.2.2-.4.1-.3.7.1.7 1.4.1 2.8-.1 4.1-.2 1.2-.1 2.5-.5 3.7-.5.5.2.5-.5.1-.5z"/><path d="M267.9 110.5c.3 1 .2 2 .1 3-.1.5.7.6.7.1.1-1.1.2-2.2-.2-3.3-.1-.4-.7-.2-.6.2zm7.9-.8v3.2c0 .5.8.5.8 0v-3.2c0-.5-.8-.5-.8 0z"/><path class="st29" d="M274.9 91.2c3.4 4.3 7.3 13.9 7.5 14.3 1.3 3.3 2.3 7.3 2.9 8.9.6 1.6 1 3.1.8 3.6 0 0-.4 6.1-1.1 9.8-.8 3.6-1.7 7.1-1.7 7.1"/><path d="M262.8 140.3c-2.2 0-4.6.4-6.7 0-.7-.1-1 .9-.3 1.1 2.2.6 4.9.2 7.1-.2.5-.1.4-.9-.1-.9zm-12-46.7c-.5 3.3-1.2 6.6-1.3 9.9 0 .2.2.5.5.5.9-.1 2-.1 2.9-.4.5-.1.4-1-.1-.9-.9.1-1.8.3-2.7.4l.5.5c-.1-3.3.8-6.6 1.2-9.8-.1-.5-.9-.7-1-.2z"/><path d="M255.5 105.7c-1.7.5-3.1 1.5-4.5 2.5.2.1.5.2.7.3-.6-1.5.6-3.3 1.3-4.6.3-.6-.6-1.1-.9-.5-.8 1.5-2 3.6-1.3 5.3.1.3.4.5.7.3 1.4-1 2.7-2 4.3-2.5.5-.1.2-.9-.3-.8z"/><path class="st29" d="M252.2 91.1c-2.7 3.9-5.3 7.5-6.5 9.3-1.2 1.8-4.5 10.1-5.4 11.9s-1.1 3.5-1.1 3.5 0 8.8.6 11.5 1.5 6.3 1.5 6.3"/><path d="M247.1 110.1c.6.5 1.3.6 2 .8.5.1 1.1.2 1.6.2.6.1 1.5-.2 1.3.4-.4 1.5-.5 3-.6 4.5-.1.7-.9 1.3-1.3 1.8-.5.6-.9 1.3-1.4 2 .3 0 .6.1.8.1-.5-1.1-1.1-2.1-1.7-3.1-.2-.4-.9-.1-.7.3.4 1.1 1.1 2 1.5 3.1.1.4.6.5.8.1.5-.8 1-1.6 1.6-2.4.3-.3.9-.6 1-1 .5-1.9.2-4.1.7-6 0-.2-.1-.4-.3-.4-1.7 0-3.7.1-5.2-.8-.1 0-.3.3-.1.4zm33.4-23.7c7.3-8.7 5.4-23.3-5.7-27.9-8.8-3.7-20.6-2-27.9 4-3.2 2.6-5.4 6.8-5.7 10.9-.4 6.5 2.5 11 7 15.4 7.3 6.9 24.9 8.1 31-.9.4-.5-.4-1-.9-.7-7.7 6.6-19.6 6.1-27.9.9-9.1-5.7-11.1-17.4-2.8-24.7 5.7-5 14.6-6 21.8-4.9 5.8.8 10 4.6 12.7 9.6 3 5.6.7 12.9-2.6 17.8 0 .4.6.9 1 .5z"/><path d="M255.3 74.6c.9-.2 1.6-1 .8-1.8-.6-.7-1.7-.6-2.3-.1-.7.6-.4 1.8.1 2.4.8.8 1.9.3 2.2-.7.2-.7-.7-1-1.1-.5-.1.1-.1.2-.2.3.1-.1.1.1 0-.1-.1-.1-.2-.4-.1-.5 0-.1.3 0 .4 0 .2.1.1.1.1-.1s.1-.3.1-.2c-.1.1-.2.1-.3.2-.8.2-.5 1.3.3 1.1zm15.9-1.1c.3-.3.6-.7.5-1.2-.1-.4-.5-.7-.9-.7-.8 0-1.6.7-1.5 1.5.1 1 1.2 1.5 2.2 1.4 1.1-.2 1.3-1.4.8-2.2-.5-.7-1.5-.1-1.1.7 0 .1.1.2.1.3 0 0 0 .1 0 0s.1-.1 0-.1-.4 0-.6-.2c-.1-.1 0-.1.1-.1.2-.1-.1 0 .1 0h-.1c.1 0 .1 0-.1-.1 0 0-.1-.2-.1-.3 0 .1-.1.2-.2.3-.5.5.3 1.1.8.7zm-17.7 10c.3-.4.6-.8 1.1-1.1-.3-.1-.6-.2-1-.3.4 2.8 3.6 3 5.9 3.2 4.2.3 8.5.4 12-2.2.6-.4.1-1.4-.6-1-2.8 1.4-14.4 3.7-16.2-.5-.2-.4-.7-.4-.9-.1-.6.6-.6.6-1 1.3-.4.5.3 1.1.7.7zm3.4-13.2c-2.2-.6-4.7-.4-5.9 1.7-.3.4.4.8.7.4 1.3-1.8 3.1-1.9 5.2-1.6.2 0 .3-.5 0-.5zm11.5-.7c2.1.3 4.1.5 5.5 2.2.3.4.8-.1.6-.5-1.1-2.1-4-2.2-6.1-2.2-.3 0-.3.5 0 .5z"/><path d="M256.7 67.1c-3.2-1.6-7.3-.2-9.3 2.7-2.7 4 1.1 7.7 4.6 8.9 3.8 1.2 8.1 0 9.4-4 1.1-3.4-1-7.9-4.8-7.9-.3 0-.4.5-.1.6 3.4.7 4.5 3.9 3.8 7.1-.8 3.8-5.2 3.9-8.1 3.2-3.8-.9-6.1-4.8-3.3-8.1 1.8-2.2 5-2 7.5-1.8.5-.1.6-.6.3-.7zm16.7-.1c-2.6-2.1-6.9-1.6-8.8 1.2-2.2 3.2.3 8.3 3.6 9.7 3.2 1.3 7 0 8.8-2.9 2.3-3.7-.9-6.9-3.9-8.7-.5-.3-.8.4-.4.7 2.3 1.7 4.6 3.6 3.5 6.8-.8 2.6-3.9 3.9-6.5 3.5-3.3-.5-5.3-4.1-4.9-7.3.5-3.7 5.6-4.3 8.2-2.7.4.1.6-.2.4-.3z"/><path d="M261.2 72.5c.7.1 1.4.2 2.1.4.6.2.9-.8.3-1-.7-.3-1.6-.2-2.4-.1-.4.1-.4.7 0 .7zm16.1.6c1.9.7 4.8 1.4 6.8.9.5-.1.5-1 0-1.1-1-.2-2-.1-3-.1-1.2 0-2.4-.1-3.6-.3-.5-.1-.6.4-.2.6zm-30.3.2c-1.9-.2-3.8-.5-5.5.6-.7.5-.1 1.4.6 1.1 1.6-.7 3.3-.5 5-1 .4-.1.3-.6-.1-.7z"/><path d="M283.2 81c2.9 1.4 5.8 1.5 9 1.5.5 0 .7-.7.3-1-2.3-1.3-3.8-3-5.4-5-.2.3-.4.6-.5.9 3 1 5.6.1 8.1-1.6.4-.3.2-.8-.2-.8s-7.6-1.8-5.9-3.4c1.3-1.2 2.6-2.3 3.8-3.4 2-1.9 3.1-4.2 3.7-6.9.1-.4-.3-.7-.7-.5-2.8 1.4-5.6 1.7-8.7 1.1.1 0-.2.3.9-.7 1.4-1.2 1.3-3.8 1.2-5.5 0-.4-.4-.6-.7-.4-4.4 2-8.6 3.2-13.5 2.9-.6 0-.6.9 0 .9 3.2.2 6.1-.1 9.2-1 1.1-.3 2.3-.8 3.3-1.3 2.9-1.3-1.3 4.5-1.7 4.6-.5.2-.5.8 0 1 3.1 1.3 6.2 1 9.3-.2.5-.2-2.4 4.7-3 5.4-1.4 1.6-3.2 2.9-4.7 4.4-.2.2-.2.5 0 .6 1.1 1.2 2.5 2.1 4.1 2.6.8.2 1.7.6 2.5.7-3.7-.5-2 2.2-6.7.6-.6-.2-.8.5-.5.9 1.2 1.5 2.5 3.5 4.3 4.4-1.3-.7-5.1-.5-7.2-1.2-.4-.2-.6.3-.3.4zm-10.7-23.2c-5.5-2.6-8.3-8.4-11.5-13.1-.2-.2-.5-.3-.7-.2-3.5 2-6.9 7-5.9 11.1.3-.1.6-.3.9-.4-1.1-1.5-2.5-2.5-3.9-3.7-1.6-1.5-2.4-3.2-4.5-4.1-.2-.1-.5 0-.6.2-1.1 3.8-.8 6.9 1.1 10.4.6 1.1-5.5-.1-6.4-.2-2.5-.4-5-1.1-7.3-2.2-.4-.2-.9.2-.6.6 1.9 2.7 4.8 5.1 7.5 7 .4.2.7.3 1.1.5.9.3 2.8.2 1.4.7-3.2 1.2-6.7 1.7-9.9 2.9-.4.2-.4.7 0 .9 1.5.6 3 1.1 4.6 1.6 2 0 2.6.6 1.7 1.8-1.6 1.3-2.9 2.7-4.7 3.8-.4.3-.2.8.2.9 8.2.9 1.3 1.8 3.1 4.8.7 1.3 3.4.7 4.5.6.6-.1.6-1 0-.9-1.9.2-3.5-.9-2.3-3 .1-.2.1-.5-.2-.6-1.1-.7-2.5-1.5-3.8-1.6 1.2.1 4.1-3.4 5-4.2.2-.2.1-.6-.1-.7-2-1.4-4.4-2-6.8-2.8.8.3 3.2-.9 3.9-1.1 2.2-.6 4.4-1.1 6.5-1.9.5-.2.4-.7 0-.9-2.4-.9-4.4-1.7-6.4-3.4-.8-.6-6.1-4.2-3-3 4.1 1.5 8.9 2.1 13.3 2.2.3 0 .6-.4.4-.7-.9-1.2-1.6-2.5-2.1-3.8-.2-.5-1.6-8.3 1.5-5.8 1.8 1.5 4.7 4.6 5.9 6.5.3.5 1.1.2.9-.4-.7-3.1 1.5-6.1 3.4-8.3 2.2-2.6 4.5 3.3 5.6 4.8 1.9 2.6 4.9 5.5 8 6.4.3-.2.4-.6.2-.7z"/><path class="st30" d="M279.5 126.5c2-.9 5.8-2.1 9.2.1-2.6 4.9-4.4 7.6-3.9 10.3.4 2.7.8 5-1.1 5.6-1.9.6-3.7-1.1-4.1-3.3s1.2-3.9 1.7-6.5 0-4.5-1.8-6.2z"/><path d="M279.5 127c3.4 4.3-.8 8.3-.3 12.9.2 1.6 1.6 3.4 3.4 3.3 2.2-.2 2.8-1.6 2.8-3.7 0-.6-.2-1.3-.4-1.8-.5-2 0-3.3.8-5.1.8-1.9 1.8-3.6 2.7-5.4.2-.4-.3-.8-.6-.5-1.5 1.9-2.4 4.1-3.3 6.3-1.1 2.6-.5 3.9-.2 6.5-1.8 3.5-3.2 3.4-4.4-.4 0-.8 0-1.6.2-2.4.3-1.8 1.2-3.4 1.5-5.2.4-2-.6-3.7-1.8-5.1-.1-.4-.7.2-.4.6z"/><path d="M280.4 126.2c2.4-.9 5.2-.6 7.3.8.6.4 1.2-.6.6-.9-2.4-1.4-5.5-1.5-8.1-.5-.4.1-.2.8.2.6z"/><path class="st30" d="M235.3 126.5c1.8-1.3 5.1-3.5 8.8-2.1-2 6.9-1.6 8.1-.4 11.1 1 2.5 1.2 5.3-.6 6.3-1.8 1-3.1-.9-4-3-.9-2.1-.5-3.3-.6-5.9-.1-2.7-1-5.1-3.2-6.4z"/><path d="M235.4 126.9c3.9 3.1 1.8 7.1 3 11.2.5 1.5 1.8 4.9 4.1 4.3 1.7-.5 2.9-2.7 2.5-4.6-.4-1.7-1.3-3.2-1.7-4.9-.7-2.6.3-5.4 1-7.9.1-.4-.5-.7-.7-.3-.9 2-1.5 4.4-1.6 6.6 0 1.1.5 2.3.8 3.4.1.4.2.7.3 1 .1.3.3.6.4.9 1.3 3.1.2 4.3-3.2 3.6-2-2.7-1.1-5.9-1.4-8.9-.2-2.1-1.3-3.6-3-4.9-.3-.4-.8.2-.5.5z"/><path d="M235.3 126.8c2.2-1.7 5-2.9 7.7-2.1.7.2 1-.9.3-1.1-3-.7-6.1.7-8.4 2.6-.3.3.1.8.4.6z"/><path class="st26" d="M173 223.3c.7-.8 1.2 2.5-2.4 3.5-3.6 1.1-13.5 2.5-14.5-1.4 0 0 8.6-.6 12.1-1 3.5-.3 4.2-.3 4.8-1.1zm12.5-.8c1.6.5 8.9 2.7 12 2.8s5.5 0 5.5 0 .9 2.1-1.3 2.7c-2.2.6-6.5.6-9.3-.3-3.8-1.1-6.9-2.8-6.9-5.2z"/><path class="st20" d="M185.7 222.7l-.1-1.3s5.9-2.2 10.1-1.4c4.2.8 6.8 2.7 7.3 5.3-5.6.4-12.6-.9-17.3-2.6zm-12.7.6c-1.6.9-5.5 1.3-17.1 2.2.5-2.6 2.8-6.6 7.8-5.6 5 1.1 8.1 2.1 9.3 3.4z"/><path class="st2" d="M169.7 132.3c-.9 3.5.3 7.6 1.9 11 1.6 3.5 1.6 8.3 1.6 13.6s.2 19-.1 23.8c-.4 4.8-.7 8.6-.8 10-.2 1.4-.6 2.1-2.8 1.8-2.2-.2-4.7-1.3-5.5-1.6-.8-.4-.9-.7-.9-3.3 0-2.6.2-18.1.3-25.6.1-7.5-1.2-19.1 5.9-31.2l.4 1.5zm21.7.1c0 3.3-6.3 12.2-7.7 13.4-1.4 1.3-1.1 3.6-1.3 6.2-.1 2.5-.6 17.2-.8 23.8s-.4 16-.1 17.2c0 0 12.5.3 15.7-1.4 0 0 1.1-25.4 1-31.2-.1-5.7-.3-22.5-4-30.2l-2.8 2.2z"/><path d="M174.1 137.4s9.1 3.5 12.4-2.9l4.6-1.2c-.2 3-6.3 11.6-7.5 12.5-1.1.8-1.7 2.4-1.5 5.5.1 3.1-.1 21.9-.4 26.7s-.6 8-.6 8-6 1.3-8.4-.3c0 0 .6-23.8.3-29.6s-.7-10.6-.7-10.6c-.2-1.5-2.3-4.9-2.6-5.9-1.2-4.1 0-8 0-8l1.1.8c.1-.1-1.4 2.1 3.3 5z" fill="#fbe4a2"/><path class="st13" d="M175.1 166.1s-2.1.6 2.2-20.4l-1.8-2.4 3.2-3.5 1.7 3.1s-1.5 2.8-2.1 2.9c0 0 1.4 13.6 0 20.3-.5 2.3-1.6 3.5-1.6 3.5s-.9-1.6-1.6-3.5z"/><path class="st15" d="M181.4 93.9c16.2-.4 25 11 23.5 20.4s-8 17.7-18.3 19.8c-1 2.5-3.5 5.2-8 4.7s-8-3.9-8.5-6.8c-8-3.9-12.7-13.2-12.1-20 .7-6.8 5.7-17.6 23.4-18.1z"/><path d="M187.2 192.6c-1.4 10.5-.1 20.9 0 28.6M173 186.4c-.7 10.4.2 26.1-.7 36.4" fill="none" stroke="#000" stroke-width="2.757" stroke-miterlimit="10"/><path d="M185.9 221.8c5.2-1.4 12.2-3 15.9 2.1 2.7 3.8-2.8 3.5-3.9 3.5-1.6 0-3.1-.2-4.7-.5-2.9-.6-6.9-1.8-7.2-5.3 0-.5-.8-.7-1-.1-1.5 6.8 14.3 9.3 18 6.2 2.1-1.8-1-5.6-2.4-6.5-4.7-3-10-2-15.1-.3-.4.3-.2 1.1.4.9zm-12.5 1c-3.2-2.4-10.3-4.9-14.1-2.8-1.7.9-6.2 5.5-2.7 7.2 4.1 2 11.2 2 15.3-.1 3.3-1.7 2.6-4.8-.9-5.2-.5-.1-.6.7-.1.9 1.7 1.9 1.7 3-.3 3.3-1.2.4-2.4.6-3.7.8-1.9.3-12.3 1.4-9.7-3.7 2.8-5.4 12-1.9 15.9.3.4.2.7-.4.3-.7z"/><path d="M172.3 223.5c-4.7 1.7-10.8 1.2-15.8 1.6-.4 0-.4.6 0 .6 2.9-.1 5.7-.3 8.6-.5 2.4-.2 5.1-.2 7.4-1 .3-.2.2-.9-.2-.7zM203 225c-6 .2-11.5-1-17.2-2.7-.4-.1-.6.5-.2.6 5.6 1.6 11.5 3.3 17.4 2.5.4.1.3-.4 0-.4zm-4.9-4.2c-1-.1-1.8 1-2 1.9-.1.3.2.5.5.4 0-.1-.1-.2-.1-.2.4.1.6-.5.2-.6-1-.3-1.4 1.1-.4 1.4 1 .3 1.1-1.6 0-1.1.2.1.3.2.5.4.1-.4.2-.8.5-1.1.3-.3.6-.4 1-.6.2-.1.1-.4-.2-.5zm-2.3-.9c-.9.4-1.6 1.2-2 2.1-.1.3.2.4.4.4v-.1c-.1.1-.2.1-.3.2.2 0 .3 0 .5-.1.3-.1.2-.5-.1-.6h-.4c-.1 0-.2.1-.3.2-.3.5.2 1.5.9 1 .6-.4.3-1.3-.5-1.2l.4.4c.3-.8.9-1.4 1.6-1.8.3-.2.1-.6-.2-.5zm-2.3-.3c-.5.3-.8.7-1.2 1.1-.1.2-.3.4-.3.6v.5c.1.1.1.2-.1.2 0 .1.1.2.1.3h.1c.4.2.7-.3.3-.6-.4-.2-.7-.1-1 .2-.3.4.3.8.7.8.5 0 .7-.6.6-1 0-.1-.2-.2-.1-.4.1-.1.2-.3.3-.4.2-.3.6-.6.9-.9.2-.2-.1-.5-.3-.4zm-32.7 1.2c.5.6 1 1.1 1.4 1.9.1.2.3.2.4.1.2-.1.3-.1.5 0-.1-.1-.1-.2-.2-.3-.1.2-.1.2 0 .2-.2 0-.2-.2-.2-.3-.1-.3-.5-.3-.6 0-.2.4.2.8.6.9.2.1.4 0 .5-.1.3-.2.2-.4.2-.7 0-.2-.1-.2-.2-.3-.4-.1-.7-.1-1 0 .1 0 .3.1.4.1-.4-.7-.9-1.5-1.6-2-.2 0-.4.3-.2.5zm1.9-.6c.9.5 1.5 1.1 1.7 2.1 0 .2.2.3.4.2.1-.1.2-.1.3 0 .3-.2.1-.6-.2-.6-1 0-.6 1.6.4 1.2.3-.1.6-.7.4-1-.2-.4-.9-.4-1.2-.2.2.1.3.1.5.2-.2-1.1-1-2.2-2.1-2.4-.3-.1-.5.3-.2.5zm3.2.5c.2 0 .4.6.4.7.2.3.3.6.5 1 .1.1.2.2.4.2s.3 0 .3.1c-.1 0-.2.1-.2.1h.1c.5 0 .5-.7 0-.7-.9 0-.6 1.5.3 1.2.4-.1.5-.5.4-.9-.2-.4-.6-.5-1-.4.1.1.2.1.4.2-.3-.5-.5-.9-.8-1.4-.2-.3-.4-.5-.8-.4-.3-.2-.3.3 0 .3zm23.7-104.1c-.3-.1-.6-.1-.8-.2-.1-.1-.1 0 0 0 .1.2-.1.2.1.1.4-.1.9.1 1.1.4 0-.3-.1-.6-.1-.9-.2.3-.4.4-.7.4-.8.2-.6 1.4.2 1.4s1.4-.4 1.8-1.1c.2-.3.1-.7-.1-.9-.9-.9-2.5-1.3-3.5-.3-.4.5-.4 1.3 0 1.7.6.5 1.2.5 2 .4.6-.1.5-.9 0-1zm-16.3.7c-.5-.2-.9-.3-1.2-.7.1.2.1.4.2.6.2-.9 1.4-.1 1.8.2 0-.3-.1-.6-.1-.9-.2.3-.6.1-.9 0-1-.3-1.5 1.3-.4 1.6 1.1.3 2.3.2 2.8-1 .1-.3-.1-.7-.4-.9-1.1-.8-2.6-1.2-3.6-.2-.4.4-.6 1.2-.1 1.6.5.4 1.2.7 1.9.5.2-.1.4-.7 0-.8zm20.4 13.2c1.1 4.6 2.6 9.2 3.2 14 .8 6.6.4 13.4.3 20 0 4.4-.2 8.7-.5 13.1-.2 4.4-1.1 9.3-.6 13.7.1.7 1.2 1.1 1.4.2.8-4 .5-8.5.8-12.6.2-4.8.4-9.6.5-14.4 0-6.7.3-13.5-.7-20.2-.7-4.8-2.2-9.4-3.5-14.1-.1-.6-1.1-.3-.9.3z"/><path d="M196.7 191.5c-2.5.2-4.9.5-7.3.7-2.3.2-5 .7-7.3.2-.9-.2-1.3 1.3-.4 1.4 2.2.4 4.5 0 6.7-.2 2.9-.2 5.7-.5 8.5-1.2.5-.1.4-1-.2-.9zm-27.4-59.7c-1.4 3.8-.3 7.7 1.3 11.3 1.8 4.2 2.1 8.6 1.7 13.2-.4 4.7-.1 9.6 0 14.4.1 3.2 1.3 22-3.9 21.1-6.9-1.1-4.7-11.1-4.7-16.4.1-4.8.1-9.7.2-14.5.1-10.1.2-20.4 5.6-29.4.3-.5-.5-1-.8-.5-5.9 9.5-5.9 20.3-6.1 31.1-.1 5.1-.2 10.3-.2 15.4-.1 4.1-.1 8.1 0 12.2.1 1.8 1.5 2.2 2.9 2.8 1.3.5 4.6 1.7 6 .9 2.3-1.3 1.8-3.6 2-6 .6-7.5.7-14.8.5-22.3-.1-5.7.4-11.4-.3-17.1-.6-5.5-5-10-3.2-15.9.2-.7-.8-.9-1-.3z"/><path d="M190.7 133.2c-.7 3-2.7 5.7-4.4 8.2-1.1 1.6-4.3 3.9-4.5 6.2-.3 3.8-.4 7.7-.5 11.5-.3 11.3-1.1 22.8-.7 34.1 0 .8 1.3.9 1.3 0-.4-11 .3-22.1.6-33.1.1-3.7.2-7.5.2-11.2 0-2.7 3.6-5.7 5.1-7.9 1.6-2.3 3.2-4.8 3.8-7.6.1-.5-.8-.8-.9-.2z"/><path d="M192.4 133.4c.1 1.7-.1 3.5-.2 5.2-.3 2.8-1.6 5.4-2.1 8.1.4-.1.8-.1 1.2-.2-.8-1.4-1.9-1.8-3.2-2.7-.3-.2-.8.2-.6.6.8 1.1 2 1.5 2.6 2.8.3.5 1.1.4 1.2-.2 1.1-4.6 2.4-8.8 1.8-13.6 0-.5-.7-.5-.7 0z"/><path d="M187.5 144.8c-.3 1.8.2 3.4-.7 5.1l.6-.3c-.2-.1-.4-.5-.6-.7-.2-.3-.6-.4-.8-.6-.8-.5-1.7-.9-2.5-1.3s-1.4.8-.7 1.1c.9.4 1.7.8 2.6 1.3.7.4 1 1.1 1.8 1.3.2.1.5 0 .6-.3.8-1.6 1-4 .4-5.7-.1-.2-.7-.3-.7.1zm-1.2-10.5c-3.3 6.7-11.9 4.6-15.2-.8-.2-.3-.7-.1-.6.2 2.7 6.5 13.2 7.5 16.2.8.1-.2-.3-.4-.4-.2z"/><path d="M188 134c-1.1 1-1.9 2.9-2.7 4.1-1 1.5-2.1 2.8-3.3 4.1-1.8 1.7-2.6-1.7-3.2-2.7-.1-.2-.4-.2-.5-.1-.8.9-1.5 1.8-2.3 2.7-1.2 1.4-2.4-1.7-2.8-2.5-.8-1.7-1.5-3.5-2.1-5.3-.1-.3-.6-.3-.6.1.4 3.1 2.2 7.2 4.7 9.2.2.1.4.2.5 0 .7-.9 1.5-1.8 2.2-2.7 1-1.2 2.3 3.3 2.2 3 .1.2.3.3.5.2 1.8-1.3 3.2-2.9 4.5-4.7 1-1.5 1.9-3.7 3.1-5 .4-.3.1-.6-.2-.4z"/><path d="M180 142.5c-.4.9-.9 1.8-1.6 2.6-.6.7-1.2-.5-1.5-.8-.4-.5-.8-1-1.2-1.4-.3-.3-.8.1-.5.4.5.7 1.1 1.4 1.7 2.1.3.3.8.8 1.3.7 1.2-.4 1.9-2.2 2.3-3.3.1-.4-.3-.5-.5-.3z"/><path d="M178.1 146.1c1 7.2 2.4 16.8-1.7 23.3-.2.4.3.7.6.3 4.6-6.1 2.7-16.9 1.6-23.8-.1-.3-.6-.1-.5.2z"/><path d="M177.2 146.2c-1.7 7.1-4.9 16.1-1 23 .2.3.7.1.6-.2-1.1-3.2-1.9-5.2-1.5-8.5.5-4.7 1.7-9.4 2.5-14.1-.1-.4-.6-.5-.6-.2zm16.4 7.4c-.1.2-.2.5-.2.7-.2.6-.8-.5-.8-.5-.3-.3-.2-.2-.6-.3 0 0-.1 0-.1.1-.1.2-.6 0-.7 0-.1 0-.1 0-.2.1-.3.5-.9.2-1.4.2-.2 0-.8-.1-.9-.1-.4.1.9.6-.8.2-.2 0-.3.2-.1.3.2.1.4.1.6 0 .8-.4 1.6-.1 2.5 0 .1 0 .1 0 .2-.1.1-.3.3-.4.6-.2h.2c.4-.4 1 .7 1.6.7.1 0 .1 0 .1-.1.1-.3.2-.7.3-1 0-.1-.2-.2-.3 0zm1.4-2.4c-2.7-.1-5.5.3-8.3.4-.7 0-.7 1.2 0 1.1 2.8-.2 5.6-.2 8.4-.6.6 0 .4-.8-.1-.9zm.4 4c-1.4-.3-2.8.3-4.1.4-1.5.1-3.1 0-4.6.3-.5.1-.3.8.1.8 1.5.1 3-.1 4.5-.2 1.3-.1 2.7-.6 4-.5.4 0 .5-.7.1-.8z"/><path d="M186.2 152.8c.3 1.1.2 2.2.1 3.3-.1.6.7.7.8.1.2-1.2.2-2.4-.2-3.6-.1-.4-.8-.2-.7.2zm8.7-.8v3.6c0 .6.9.6.9 0V152c0-.6-.9-.6-.9 0z"/><path class="st33" d="M193.9 131.7c3.7 4.7 8 15.2 8.2 15.7 1.4 3.6 2.5 8 3.2 9.8.7 1.8 1.1 3.3.9 3.9 0 0-3.3 5.9-5.8 9.1-2.5 3.2-5.1 6.2-5.1 6.2"/><path d="M180.6 185.5c-2.4 0-5 .5-7.3 0-.8-.2-1.1 1-.3 1.2 2.4.6 5.3.2 7.8-.2.5-.1.4-1-.2-1zm-13.1-51.2c-.6 3.6-1.3 7.2-1.4 10.9 0 .3.2.6.5.5 1-.1 2.2-.2 3.1-.4.5-.2.5-1-.1-1-1 .1-2 .3-3 .4l.5.5c-.1-3.6.8-7.2 1.3-10.8.1-.5-.8-.6-.9-.1z"/><path d="M172.6 147.6c-1.9.5-3.4 1.7-5 2.8.2.1.5.2.7.3-.6-1.7.6-3.6 1.4-5 .3-.6-.6-1.2-.9-.5-.9 1.7-2.2 3.9-1.5 5.9.1.3.5.5.7.3 1.5-1 2.9-2.2 4.7-2.7.8-.3.5-1.2-.1-1.1zm7.4-53.2c9.9-.2 20.6 3.1 23.6 13.6 3.3 11.9-7.8 23.9-19.3 24.7-4.7.3-9.6-.4-14-1.9-5.6-1.9-8.9-8.1-10.5-13.5-3.8-12.9 7.9-21.6 19.5-22.4.8-.1.8-1.2 0-1.2-11.8.7-23.2 8.3-21.9 21.3.6 6.2 3.5 12.3 8.4 16.1 4.9 3.9 12.6 4.2 18.5 4 12.4-.4 22.6-12.9 21.2-25-1.4-12.7-14.5-17-25.6-16.7-.6 0-.6 1 .1 1z"/><path class="st33" d="M169 131.6c-3 4.2-5.8 8.2-7.1 10.2-1.3 2-5 11.1-6 13.1s-1.2 3.8-1.2 3.8 3.3 9.1 4.9 11.7c1.6 2.6 3.9 6 3.9 6"/><path d="M163.7 153.2c2.2.5 4.3.7 6.5.5-.1-.2-.3-.4-.4-.5-.8 2.5-1 5-.6 7.6l.3-.6c-1 .2-1.9.5-2.8 1-.3.2-.7.5-1 .7-.2.1-1.9-1.1-2.2-1.3-.5-.3-.9.4-.4.8.8.5 1.6 1.1 2.3 1.6.2.1.4.1.6-.1 1.1-1 2.2-1.7 3.7-1.9.3 0 .4-.3.3-.6-.4-2.4-.1-4.8.5-7.2.1-.2-.1-.6-.4-.5-2.1.3-4.2.1-6.3-.4-.3.1-.5.8-.1.9zm12.3-27.4c3.5 1.9 6.4 1.6 10 .4.9-.3.4-1.6-.5-1.2-3.2 1.5-6 1.5-9.3.3-.3-.1-.5.3-.2.5zm-2.1-13.7c-2.2-.3-6.3.1-6.6 3 0 .4.6.7.8.3.7-.9 1.1-1.7 2.3-2.1 1.1-.4 2.3-.4 3.4-.6.6 0 .6-.6.1-.6zm14.9-.1c1.4.1 2.7.3 3.7 1.3.7.7.9 2 1.8 2.5.4.2.8-.2.7-.6-.2-1-1.4-2.2-2.2-2.9-1.1-1-2.7-1.1-4.1-1.1-.3.1-.3.7.1.8zm-17.1-9.8c3.2-4.9 8.1-6.6 13.7-7.1.5 0 .5-.8 0-.8-5.7 0-11.1 2.7-14.2 7.6-.2.3.3.6.5.3zm3.3.2c5.4-4.1 11.2-5.6 17.9-5.9.5 0 .5-.8 0-.8-6.8-.1-12.9 2.2-18.2 6.3-.2.2.1.6.3.4z"/><path d="M183.2 100.9c4.7-2.9 10.5-3.7 15.6-1.4.5.2.9-.5.4-.7-5.2-2.4-11.6-1.4-16.3 1.7-.3.1 0 .6.3.4zm-17.6 50.6c.1.6 0 1.2 0 1.8.1.8 1.1.8 1.2 0 0-.7 0-1.5-.4-2.1-.2-.3-.9-.1-.8.3zm1.8.9c-.1.3-.1.6-.1 1 0 .7 1.1.7 1.1 0 0-.3 0-.6-.1-1 0-.5-.8-.5-.9 0z"/><path class="st4" d="M195.6 166.3c2.4.1 6.7.7 9 4.4-4.9 3.5-8 5.4-8.9 8.3s-1.6 5.3-3.8 5c-2.2-.4-3.1-2.8-2.4-5.2s3.1-3.2 4.7-5.6c1.7-2.3 2.4-4.3 1.4-6.9z"/><path d="M195.4 166.8c1.3 5.7-4.5 7.6-6.3 12.2-.6 1.5 0 5.4 1.8 5.9 1.6.4 3.2-.9 4-2.1 1.4-1.9.6-4.1 2.5-6.1 1.9-2.1 4.5-3.7 6.7-5.3.4-.3.1-1-.4-.7-2.6 1.3-4.9 3.4-7 5.3-2.7 2.4-1.4 6.4-5 7.9-.9-.4-1.4-1.1-1.5-2.1-.4-1.5-.1-2.8.7-4.1 1-1.8 3-3.2 4.3-4.8 1.5-1.9 1.5-4 1-6.3-.1-.6-.9-.4-.8.2z"/><path d="M196.7 166.5c2.8.2 5.4 1.9 6.8 4.3.4.7 1.5 0 1-.6-1.7-2.5-4.8-4.2-7.8-4.4-.5-.1-.5.6 0 .7z"/><path class="st4" d="M154.8 171.2c1.3-2 3.9-5.5 8.3-5.5.5 7.9 1.4 8.9 3.8 11.5 2 2.2 3.2 5 1.7 6.7s-3.5.3-5.2-1.6-1.7-3.2-2.8-5.8-3-4.7-5.8-5.3z"/><path d="M155.1 171.6c3.8 1.3 4.7 4.4 5.7 7.8.4 1.5 1.7 2.9 2.6 4.1.8 1 3.4 2.9 4.7 1.7 1.7-1.6 1.7-4.2.8-6.2-.7-1.5-2.6-2.9-3.6-4.2-1.8-2.5-1.8-5.6-2-8.5 0-.5-.8-.5-.8 0-.2 2.1-.1 5.6.9 7.4 1.6 2.9 5.9 6.1 4.6 9.6-1.3 3.4-4.7-1.5-5.4-2.5-1-1.4-1.1-3-1.8-4.6-1.2-2.8-2.7-4.5-5.6-5.4-.4-.2-.6.7-.1.8z"/><path d="M154.9 171.4c1.5-2.5 4-4.8 7.1-5 .8 0 .8-1.3 0-1.2-3.3.4-6 3-7.7 5.8-.3.5.4.8.6.4z"/></svg>