<svg width="240" height="32" viewBox="0 0 240 32" fill="none" xmlns="http://www.w3.org/2000/svg">
<path d="M239.83 19.7885V22.7308H229.022V9.26923H239.58V12.2115H232.792V14.4808H238.772V17.3269H232.792V19.7885H239.83Z" fill="#1A64B7"/>
<path d="M221.537 23C220.126 23 218.857 22.7051 217.729 22.1154C216.614 21.5128 215.735 20.6795 215.094 19.6154C214.453 18.5513 214.133 17.3462 214.133 16C214.133 14.6538 214.453 13.4487 215.094 12.3846C215.735 11.3205 216.614 10.4936 217.729 9.90385C218.857 9.30128 220.126 9 221.537 9C222.767 9 223.876 9.21795 224.864 9.65385C225.851 10.0897 226.671 10.7179 227.325 11.5385L224.902 13.7308C224.03 12.6795 222.973 12.1538 221.729 12.1538C220.998 12.1538 220.344 12.3141 219.767 12.6346C219.203 12.9551 218.761 13.4103 218.441 14C218.133 14.5769 217.979 15.2436 217.979 16C217.979 16.7564 218.133 17.4295 218.441 18.0192C218.761 18.5962 219.203 19.0449 219.767 19.3654C220.344 19.6859 220.998 19.8462 221.729 19.8462C222.973 19.8462 224.03 19.3205 224.902 18.2692L227.325 20.4615C226.671 21.2821 225.851 21.9103 224.864 22.3462C223.876 22.7821 222.767 23 221.537 23Z" fill="#1A64B7"/>
<path d="M212.139 9.26923V22.7308H209.004L203.062 15.5577V22.7308H199.331V9.26923H202.466L208.408 16.4423V9.26923H212.139Z" fill="#1A64B7"/>
<path d="M193.232 20.1154H187.54L186.482 22.7308H182.598L188.54 9.26923H192.29L198.252 22.7308H194.29L193.232 20.1154ZM192.117 17.3077L190.386 13L188.655 17.3077H192.117Z" fill="#1A64B7"/>
<path d="M175.863 19.1538H173.786V22.7308H169.979V9.26923H176.132C177.35 9.26923 178.408 9.47435 179.305 9.88461C180.203 10.282 180.895 10.859 181.382 11.6154C181.87 12.359 182.113 13.2372 182.113 14.25C182.113 15.2244 181.882 16.0769 181.421 16.8077C180.972 17.5256 180.325 18.0897 179.479 18.5L182.382 22.7308H178.305L175.863 19.1538ZM178.267 14.25C178.267 13.6218 178.068 13.1346 177.671 12.7885C177.273 12.4423 176.684 12.2692 175.902 12.2692H173.786V16.2115H175.902C176.684 16.2115 177.273 16.0449 177.671 15.7115C178.068 15.3654 178.267 14.8782 178.267 14.25Z" fill="#1A64B7"/>
<path d="M161.072 23C159.072 23 157.514 22.4551 156.399 21.3654C155.296 20.2756 154.745 18.7308 154.745 16.7308V9.26923H158.553V16.6154C158.553 18.7692 159.405 19.8462 161.11 19.8462C162.803 19.8462 163.649 18.7692 163.649 16.6154V9.26923H167.399V16.7308C167.399 18.7308 166.841 20.2756 165.726 21.3654C164.623 22.4551 163.072 23 161.072 23Z" fill="#1A64B7"/>
<path d="M147.14 23C146.05 23 144.992 22.8654 143.967 22.5962C142.941 22.3269 142.108 21.9679 141.467 21.5192L142.717 18.7115C143.319 19.109 144.018 19.4295 144.813 19.6731C145.608 19.9167 146.39 20.0385 147.159 20.0385C148.621 20.0385 149.351 19.6731 149.351 18.9423C149.351 18.5577 149.14 18.2756 148.717 18.0962C148.307 17.9038 147.64 17.7051 146.717 17.5C145.704 17.2821 144.858 17.0513 144.178 16.8077C143.499 16.5513 142.916 16.1474 142.428 15.5962C141.941 15.0449 141.698 14.3013 141.698 13.3654C141.698 12.5449 141.922 11.8077 142.371 11.1538C142.819 10.4872 143.486 9.96154 144.371 9.57692C145.268 9.19231 146.364 9 147.659 9C148.544 9 149.416 9.10256 150.274 9.30769C151.133 9.5 151.89 9.78846 152.544 10.1731L151.371 13C150.089 12.3077 148.845 11.9615 147.64 11.9615C146.883 11.9615 146.332 12.0769 145.986 12.3077C145.64 12.5256 145.467 12.8141 145.467 13.1731C145.467 13.5321 145.672 13.8013 146.082 13.9808C146.492 14.1603 147.153 14.3462 148.063 14.5385C149.089 14.7564 149.935 14.9936 150.601 15.25C151.281 15.4936 151.864 15.891 152.351 16.4423C152.851 16.9808 153.101 17.7179 153.101 18.6538C153.101 19.4615 152.877 20.1923 152.428 20.8462C151.98 21.5 151.307 22.0256 150.409 22.4231C149.512 22.8077 148.422 23 147.14 23Z" fill="#1A64B7"/>
<path d="M139.724 9.26923V22.7308H136.589L130.647 15.5577V22.7308H126.916V9.26923H130.051L135.993 16.4423V9.26923H139.724Z" fill="#1A64B7"/>
<path d="M120.398 9.26923H124.206V22.7308H120.398V9.26923Z" fill="#1A64B7"/>
<path d="M108.704 20.1154H103.012L101.954 22.7308H98.0693L104.012 9.26923H107.762L113.723 22.7308H109.762L108.704 20.1154ZM107.589 17.3077L105.858 13L104.127 17.3077H107.589Z" fill="#1A64B7"/>
<path d="M91.9641 23C90.8743 23 89.8167 22.8654 88.791 22.5962C87.7654 22.3269 86.932 21.9679 86.291 21.5192L87.541 18.7115C88.1436 19.109 88.8423 19.4295 89.6372 19.6731C90.432 19.9167 91.2141 20.0385 91.9833 20.0385C93.4449 20.0385 94.1756 19.6731 94.1756 18.9423C94.1756 18.5577 93.9641 18.2756 93.541 18.0962C93.1308 17.9038 92.4641 17.7051 91.541 17.5C90.5282 17.2821 89.682 17.0513 89.0026 16.8077C88.3231 16.5513 87.7397 16.1474 87.2526 15.5962C86.7654 15.0449 86.5218 14.3013 86.5218 13.3654C86.5218 12.5449 86.7461 11.8077 87.1949 11.1538C87.6436 10.4872 88.3102 9.96154 89.1949 9.57692C90.0923 9.19231 91.1885 9 92.4833 9C93.3679 9 94.2397 9.10256 95.0987 9.30769C95.9577 9.5 96.7141 9.78846 97.3679 10.1731L96.1949 13C94.9128 12.3077 93.6692 11.9615 92.4641 11.9615C91.7077 11.9615 91.1564 12.0769 90.8102 12.3077C90.4641 12.5256 90.291 12.8141 90.291 13.1731C90.291 13.5321 90.4961 13.8013 90.9064 13.9808C91.3167 14.1603 91.9769 14.3462 92.8872 14.5385C93.9128 14.7564 94.759 14.9936 95.4256 15.25C96.1051 15.4936 96.6885 15.891 97.1756 16.4423C97.6756 16.9808 97.9256 17.7179 97.9256 18.6538C97.9256 19.4615 97.7013 20.1923 97.2526 20.8462C96.8038 21.5 96.1308 22.0256 95.2333 22.4231C94.3359 22.8077 93.2461 23 91.9641 23Z" fill="#1A64B7"/>
<path d="M78.3269 23C76.3269 23 74.7692 22.4551 73.6538 21.3654C72.5513 20.2756 72 18.7308 72 16.7308V9.26923H75.8077V16.6154C75.8077 18.7692 76.6603 19.8462 78.3654 19.8462C80.0577 19.8462 80.9038 18.7692 80.9038 16.6154V9.26923H84.6538V16.7308C84.6538 18.7308 84.0962 20.2756 82.9808 21.3654C81.8782 22.4551 80.3269 23 78.3269 23Z" fill="#1A64B7"/>
<g clip-path="url(#clip0_68_7799)">
<path d="M46.3996 14.6144L46.4518 16.1745C46.4518 16.1456 46.446 16.1168 46.4402 16.088C46.275 15.4708 44.748 15.2546 43.2094 15.2546C37.9473 15.3007 32.3607 16.1312 26.609 17.7201C25.505 18.0258 24.4097 18.3545 23.3491 18.6717C22.3466 18.9716 21.3237 19.2773 20.2835 19.5656L20.2458 18.4958C20.2429 18.3862 20.0951 18.2824 19.8141 18.1844C18.9651 17.896 17.9277 17.8037 16.8672 17.8066L16.928 19.5541V19.5916C17.9886 19.5916 19.0288 19.681 19.8778 19.9694C20.1589 20.0645 20.3066 20.1712 20.3095 20.2808L20.3472 21.3506C21.3875 21.0594 22.4132 20.7566 23.4129 20.4567C24.4734 20.1366 25.5716 19.8079 26.6727 19.5051C32.4245 17.9162 38.0082 17.0857 43.2731 17.0396C44.8117 17.0396 46.3359 17.2558 46.5039 17.8729C46.5126 17.9018 46.5155 17.9306 46.5155 17.9594L46.4634 16.3994C48.6598 16.2408 50.8677 16.1427 53.0786 16.1024L53.0178 14.3174C50.8069 14.3578 48.596 14.4587 46.4025 14.6144H46.3996Z" fill="#DB3232"/>
<path d="M46.5215 18.1873L46.536 18.5823L46.5765 19.7473C46.5765 19.7185 46.5708 19.6897 46.565 19.6608C46.3998 19.0437 44.8728 18.8274 43.3341 18.8274C38.0721 18.8736 32.4855 19.7041 26.7337 21.293C25.6297 21.5986 24.5344 21.9274 23.4739 22.2446C22.4713 22.5445 21.4485 22.8502 20.4082 23.1385L20.3706 22.0687C20.3677 21.9591 20.2199 21.8553 19.9388 21.7572C19.0898 21.4689 17.9887 21.3939 16.9311 21.3939L17.0035 23.1241L16.9949 21.391C16.3255 21.391 15.6475 21.4285 15.0042 21.4747C10.0319 21.8322 5.23345 22.582 0.739258 23.7066L0.800108 25.4483C5.2943 24.3266 10.0927 23.574 15.065 23.2164C15.7083 23.1702 16.3864 23.1328 17.0557 23.1328C18.1162 23.1328 19.1536 23.2221 20.0026 23.5105C20.3242 23.6201 20.472 23.7441 20.4256 23.871C20.3822 23.9892 20.1851 24.0671 20.0026 24.1305C18.6784 24.5977 17.2064 25.01 15.7865 25.408C14.5435 25.7569 13.283 26.1116 12.1066 26.5066C14.0103 26.3625 16.0357 26.0366 18.1713 25.5262C20.02 25.0821 21.8107 24.5486 23.5377 24.0296C24.5982 23.7095 25.6964 23.3808 26.7975 23.078C32.5492 21.4891 38.1329 20.6586 43.3979 20.6124C44.9365 20.6124 46.4606 20.8287 46.6287 21.4458C46.6374 21.4747 46.6403 21.5035 46.6403 21.5323L46.6171 20.8806L46.5852 19.9261C48.7816 19.7675 50.9896 19.6695 53.2005 19.6291L53.1396 17.8903C50.9288 17.9306 48.7179 18.0316 46.5244 18.1873H46.5215Z" fill="#DB3232"/>
<path d="M46.4607 16.4023L46.5128 17.9623C46.5128 17.9335 46.507 17.9047 46.5012 17.8758C46.3361 17.2587 44.809 17.0425 43.2704 17.0425C38.0083 17.0886 32.4217 17.9191 26.67 19.508C25.566 19.8137 24.4707 20.1424 23.4102 20.4596C22.4076 20.7595 21.3848 21.0652 20.3445 21.3535L20.3068 20.2837C20.3039 20.1741 20.1562 20.0703 19.8751 19.9723C19.0261 19.6839 17.9453 19.5916 16.8848 19.5916L16.8993 21.3535L16.9891 21.3968C18.0496 21.3968 19.0869 21.4718 19.9359 21.7601C20.217 21.8553 20.3648 21.962 20.3677 22.0716L20.4054 23.1414C21.4456 22.8502 22.4714 22.5474 23.471 22.2475C24.5316 21.9303 25.6298 21.5986 26.7308 21.2959C32.4826 19.707 38.0663 18.8765 43.3312 18.8303C44.8699 18.8303 46.394 19.0466 46.5621 19.6637C46.5708 19.6925 46.5737 19.7214 46.5737 19.7502L46.5331 18.5852L46.5186 18.1902C48.715 18.0316 50.923 17.9335 53.1339 17.8931L53.073 16.1082C50.8621 16.1485 48.6513 16.2495 46.4578 16.4052L46.4607 16.4023Z" fill="white"/>
<path d="M46.5792 19.9261L46.611 20.8806L46.6342 21.5323C46.6342 21.5035 46.6284 21.4746 46.6226 21.4458C46.4575 20.8287 44.9304 20.6124 43.3918 20.6124C38.1297 20.6585 32.5431 21.489 26.7914 23.0779C25.6874 23.3836 24.5921 23.7123 23.5316 24.0295C21.8017 24.5486 20.0139 25.085 18.1652 25.5262C16.0326 26.0366 14.0042 26.3624 12.1005 26.5066C10.5909 27.0141 9.22318 27.588 8.21191 28.3118C8.37998 28.332 8.55383 28.3435 8.7161 28.3493C9.14205 28.3695 9.57379 28.381 10.0171 28.381C12.5149 28.3781 15.2705 28.0205 18.2261 27.314C20.0747 26.87 21.8655 26.3365 23.5924 25.8174C24.653 25.4973 25.7511 25.1686 26.8522 24.8658C32.604 23.2769 38.1877 22.4464 43.4526 22.4003C44.9913 22.4003 46.5154 22.6165 46.6835 23.2337C46.6922 23.2625 46.6951 23.2913 46.6951 23.3202L46.6574 22.1926L46.64 21.714C48.8364 21.5554 51.0444 21.4573 53.2553 21.4169L53.1944 19.632C50.9835 19.6723 48.7727 19.7733 46.5792 19.929V19.9261Z" fill="white"/>
<path d="M46.6404 21.714L46.6578 22.1927L46.6954 23.3202C46.6954 23.2913 46.6896 23.2625 46.6838 23.2337C46.5187 22.6166 44.9916 22.4003 43.453 22.4003C38.1909 22.4464 32.6043 23.2769 26.8526 24.8658C25.7486 25.1715 24.6533 25.5002 23.5928 25.8174C21.8629 26.3365 20.0751 26.8729 18.2264 27.3141C15.2708 28.0205 12.5152 28.3781 10.0175 28.381C9.57704 28.381 9.1424 28.3724 8.71645 28.3493C8.55418 28.3406 8.38032 28.332 8.21226 28.3118C8.06738 28.4156 7.9254 28.5223 7.79501 28.6319C7.48786 28.8914 7.28213 29.1971 7.29662 29.4653C7.29662 29.4768 7.29662 29.4883 7.29952 29.497C7.29952 29.5143 7.30531 29.5316 7.30821 29.5489C7.30821 29.5604 7.314 29.572 7.3198 29.5835C7.32559 29.5979 7.33139 29.6152 7.33718 29.6296C7.34298 29.6412 7.34877 29.6527 7.35457 29.6614C7.36326 29.6758 7.37196 29.6902 7.38355 29.7046C7.39224 29.7161 7.39803 29.7248 7.40962 29.7363C7.42121 29.7507 7.4357 29.7652 7.45019 29.7767C7.46178 29.7853 7.47047 29.7969 7.48206 29.8055C7.49945 29.82 7.51684 29.8315 7.53712 29.843C7.54871 29.8517 7.5603 29.8603 7.57479 29.869C7.59797 29.8834 7.62405 29.8949 7.64723 29.9065C7.65882 29.9122 7.67041 29.918 7.6849 29.9238C7.72546 29.9411 7.76893 29.9584 7.81819 29.9728C8.09636 30.0622 8.45856 30.0881 8.7773 30.1026C9.20325 30.1256 9.63499 30.1343 10.0783 30.1343C12.5761 30.1314 15.3317 29.7738 18.2873 29.0673C20.1359 28.6261 21.9267 28.0898 23.6536 27.5707C24.7142 27.2506 25.8123 26.9219 26.9134 26.6191C32.6652 25.0302 38.2489 24.1997 43.5138 24.1536C45.0525 24.1536 46.5766 24.3698 46.7447 24.9869C46.7505 25.0129 46.7563 25.036 46.7563 25.0619C46.7563 25.0648 46.7563 25.0677 46.7563 25.0706L46.7012 23.4932C48.8976 23.3346 51.1056 23.2366 53.3165 23.1962L53.2556 21.4112C51.0447 21.4516 48.8339 21.5525 46.6404 21.7082V21.714Z" fill="#DB3232"/>
<path d="M46.7041 23.499L46.7592 25.0763C46.7592 25.0763 46.7592 25.0706 46.7592 25.0677C46.7621 25.1398 46.7418 25.2147 46.7041 25.2926C48.9208 25.1311 51.1519 25.0302 53.3831 24.9898L53.3222 23.2048C51.1114 23.2452 48.9005 23.3461 46.707 23.5019L46.7041 23.499Z" fill="white"/>
<path d="M46.6979 25.2897C46.5791 25.5233 46.2575 25.7684 45.733 26.0222C44.1103 26.8037 41.9806 27.3054 39.874 27.7726C39.8972 27.7726 39.9175 27.7668 39.9407 27.7639C44.3566 27.1872 48.9001 26.8556 53.4406 26.7719L53.4175 26.1289L53.3769 24.9841C51.1457 25.0244 48.9146 25.1254 46.6979 25.2869V25.2897Z" fill="#DB3232"/>
<path d="M40.0018 29.5518C39.7439 29.5835 39.486 29.6181 39.2281 29.6527C37.533 29.8805 35.7887 30.1141 34.0617 30.1141C33.7053 30.1141 33.346 30.1055 32.9925 30.0824C32.8679 30.0737 32.7375 30.0622 32.61 30.0507C32.4188 30.1718 32.2362 30.2987 32.071 30.4342C31.7494 30.6966 31.5437 31.0052 31.5987 31.2676C31.5987 31.2705 31.5987 31.2762 31.6016 31.2791C31.6074 31.2993 31.6132 31.3195 31.6219 31.3397C31.6248 31.3483 31.6306 31.357 31.6335 31.3627C31.6422 31.3772 31.648 31.3945 31.6596 31.4089C31.6654 31.4175 31.6712 31.4262 31.677 31.4348C31.6886 31.4492 31.6973 31.4608 31.7117 31.4752C31.7204 31.4838 31.7291 31.4925 31.7378 31.5011C31.7523 31.5127 31.7668 31.5271 31.7813 31.5386C31.79 31.5473 31.8016 31.5531 31.8103 31.5617C31.8276 31.5732 31.8508 31.5877 31.8711 31.5992C31.8827 31.605 31.8914 31.6107 31.903 31.6165C31.9378 31.6338 31.9725 31.6511 32.0102 31.6655C32.3 31.7809 32.6998 31.8184 33.0533 31.8385C33.4097 31.8587 33.7661 31.8703 34.1255 31.8703C35.8524 31.8703 37.5939 31.6367 39.2919 31.4089C39.5498 31.3743 39.8077 31.3397 40.0656 31.3079C44.4815 30.7312 49.025 30.3996 53.5655 30.316L53.5047 28.5598C48.9612 28.6406 44.4178 28.9751 40.0047 29.5518H40.0018Z" fill="#DB3232"/>
<path d="M39.9403 27.7639C39.9171 27.7639 39.8968 27.7696 39.8737 27.7725C39.7114 27.81 39.5462 27.8446 39.384 27.8821C36.7384 28.4675 34.2262 29.0269 32.6064 30.0506C32.7368 30.065 32.8643 30.0766 32.9889 30.0823C33.3453 30.1025 33.7017 30.1141 34.0581 30.1141C35.7851 30.1141 37.5266 29.8805 39.2246 29.6527C39.4825 29.6181 39.7404 29.5835 39.9982 29.5517C44.4142 28.975 48.9577 28.6434 53.4982 28.5598L53.4374 26.7748C48.8939 26.8555 44.3505 27.19 39.9374 27.7668L39.9403 27.7639Z" fill="white"/>
<path d="M31.1318 25.7309L31.1376 25.878C31.1376 25.829 31.1434 25.777 31.155 25.728C31.1463 25.728 31.1405 25.7309 31.1318 25.7338V25.7309Z" fill="white"/>
<path d="M31.7751 28.6146C33.3832 27.3025 36.3504 26.645 39.2161 26.0106C41.2705 25.555 43.3829 25.0821 45.0374 24.3727C44.5941 24.3122 44.0986 24.2862 43.6147 24.2891C41.4009 24.3093 39.1466 24.465 36.8604 24.7505C34.7973 25.258 32.8877 25.8665 31.7084 26.8296C31.3926 27.0891 31.184 27.3919 31.1926 27.663L31.2535 29.448C31.2448 29.174 31.4534 28.8712 31.7693 28.6146H31.7751Z" fill="#D1D1D1"/>
<path d="M42.7836 2.80005C37.5215 2.84619 31.9349 3.67668 26.1832 5.26558C25.0792 5.57125 23.9839 5.89999 22.9234 6.21719C21.9208 6.51709 20.8979 6.82276 19.8577 7.11112L19.8432 6.70164L19.82 6.04129C19.8171 5.93171 19.6693 5.82789 19.3883 5.72985C18.5393 5.44148 17.5019 5.34921 16.4414 5.35209L16.5023 7.09959V7.13708C17.5628 7.13708 18.603 7.22647 19.452 7.51484C19.7331 7.61 19.8809 7.71669 19.8838 7.82627L19.9214 8.89611C20.9617 8.60486 21.9874 8.30208 22.9871 8.00218C24.0476 7.68209 25.1458 7.35335 26.2469 7.05057C31.9987 5.46167 37.5824 4.63117 42.8473 4.58504C44.386 4.58504 45.9101 4.80131 46.0782 5.41841C46.0869 5.44725 46.0897 5.47609 46.0897 5.50492L46.0289 3.71994C46.0289 3.6911 46.0231 3.66226 46.0173 3.63343C45.8521 3.01632 44.3251 2.80005 42.7865 2.80005H42.7836Z" fill="white"/>
<path d="M42.8441 4.58502C37.5821 4.63116 31.9955 5.46166 26.2437 7.05055C25.1397 7.35622 24.0444 7.68496 22.9839 8.00216C21.9813 8.30206 20.9585 8.60773 19.9182 8.8961L19.8806 7.82626C19.8777 7.71668 19.7299 7.61287 19.4488 7.51482C18.5998 7.22646 17.5625 7.13418 16.502 7.13706L16.5628 8.88456V8.92205C17.6233 8.92205 18.6636 9.01144 19.5126 9.29981C19.7936 9.39497 19.9414 9.50167 19.9443 9.61125L19.982 10.6811C21.0222 10.3898 22.048 10.087 23.0477 9.78715C24.1082 9.46706 25.2064 9.13832 26.3075 8.83554C32.0592 7.24664 37.6429 6.41615 42.9079 6.37001C44.4465 6.37001 45.9706 6.58628 46.1387 7.20339C46.1474 7.23222 46.1503 7.26106 46.1503 7.2899L46.0894 5.50491C46.0894 5.47607 46.0837 5.44724 46.0779 5.4184C45.9127 4.8013 44.3857 4.58502 42.847 4.58502H42.8441Z" fill="#DB3232"/>
<path d="M42.9047 6.37286C37.6426 6.419 32.056 7.2495 26.3043 8.83839C25.2003 9.14406 24.105 9.4728 23.0445 9.79C22.0419 10.0899 21.019 10.3956 19.9788 10.6839L19.9411 9.6141C19.9382 9.50452 19.7904 9.40071 19.5094 9.30266C18.6604 9.0143 17.623 8.92202 16.5625 8.9249L16.6031 10.087L16.6233 10.7128C17.6839 10.7128 18.7212 10.8022 19.5702 11.0905C19.8513 11.1857 19.9991 11.2924 20.002 11.402L20.0367 12.4084C20.0367 12.4286 20.0367 12.4516 20.0367 12.4718C21.077 12.1806 22.1027 11.8778 23.1024 11.5779C24.1629 11.2578 25.2611 10.929 26.3622 10.6263C32.114 9.03737 37.6977 8.20687 42.9626 8.16073C44.5013 8.16073 46.0254 8.37701 46.1935 8.99411C46.2021 9.02295 46.205 9.05179 46.205 9.08062L46.15 7.47731L46.1442 7.29275C46.1442 7.26392 46.1384 7.23508 46.1326 7.20624C45.9674 6.58914 44.4404 6.37286 42.9018 6.37286H42.9047Z" fill="white"/>
<path d="M46.1536 7.47445L46.2087 9.07776C46.2087 9.04893 46.2029 9.02009 46.1971 8.99125C46.0319 8.37415 44.5049 8.15787 42.9662 8.15787C37.7042 8.20401 32.1176 9.03451 26.3658 10.6234C25.2618 10.9291 24.1665 11.2578 23.106 11.575C22.1034 11.8749 21.0806 12.1806 20.0403 12.469C20.0403 12.4488 20.0403 12.4257 20.0403 12.4055L20.0056 11.3991C20.0027 11.2895 19.8549 11.1857 19.5738 11.0877C18.7248 10.7993 17.6875 10.707 16.627 10.7099L16.6878 12.4488C17.7483 12.4488 18.7857 12.5382 19.6347 12.8265C19.9157 12.9217 20.0635 13.0284 20.0664 13.138L20.1041 14.2539C21.1443 13.9627 22.1701 13.6599 23.1698 13.36C24.2303 13.0399 25.3285 12.7112 26.4296 12.4084C32.1813 10.8195 37.765 9.989 43.03 9.94286C44.5686 9.94286 46.0927 10.1591 46.2608 10.7762C46.2695 10.8051 46.2724 10.8339 46.2724 10.8627L46.2173 9.25655C48.4137 9.09795 50.6217 8.9999 52.8326 8.95953L52.7717 7.17743C50.5609 7.2178 48.35 7.31873 46.1565 7.47445H46.1536Z" fill="#DB3232"/>
<path d="M16.3776 3.5296L16.3167 1.7821C16.45 1.7821 16.5804 1.7821 16.7137 1.78499C17.6351 1.80517 18.5218 1.9061 19.2665 2.15986C19.5475 2.25502 19.6953 2.36172 19.6982 2.4713C19.6982 2.45111 19.6982 2.43093 19.6982 2.41074L19.6866 2.07624C19.6866 2.05605 19.6866 2.03587 19.6866 2.01568L19.6663 1.45337C19.6577 1.18519 19.649 0.919888 19.6403 0.689195C19.6374 0.579616 19.4896 0.475804 19.2085 0.37776C18.4609 0.123997 17.5714 0.0230693 16.6528 0.00288366C16.5224 0 16.3891 0 16.2559 0L16.3167 1.7475L16.3776 3.5296Z" fill="#DB3232"/>
<path d="M13.9172 5.05504L13.7318 4.50714L13.5869 5.08099C13.4101 5.09541 13.2305 5.10983 13.0537 5.12713L13.497 5.43568L13.3522 6.00953L13.7723 5.62889L14.2157 5.94321L14.0302 5.39531L14.4504 5.01755C14.4504 5.01755 14.4388 5.01755 14.433 5.01755C14.2591 5.02908 14.0882 5.0435 13.9172 5.05504Z" fill="white"/>
<path d="M7.93066 9.08062L8.07265 8.49524L7.93066 9.08062Z" fill="#DB3232"/>
<path d="M10.6602 8.72018L10.8021 8.14056L10.6602 8.72018Z" fill="#DB3232"/>
<path d="M15.2474 7.96753C15.2243 8.05404 15.2011 8.15208 15.175 8.25301C15.1489 8.35394 15.1228 8.45198 15.1026 8.53849C14.9258 8.55003 14.7491 8.56156 14.5752 8.5731C14.7201 8.67979 14.8679 8.78361 15.0127 8.8903C14.9693 9.06044 14.9113 9.29113 14.8679 9.46127C15.0069 9.33727 15.146 9.21327 15.2851 9.08927C15.4358 9.19885 15.5836 9.30555 15.7313 9.41513C15.6763 9.24788 15.6009 9.02872 15.5459 8.86146C15.6879 8.74035 15.8299 8.61924 15.9718 8.49812C15.7922 8.50389 15.6096 8.50966 15.43 8.51831C15.3749 8.35394 15.2996 8.1319 15.2445 7.96753H15.2474Z" fill="white"/>
<path d="M14.6184 9.88232L14.1982 10.263L14.6184 9.88232Z" fill="#DB3232"/>
<path d="M13.5176 10.8772L13.6625 10.3033L13.5176 10.8772Z" fill="#DB3232"/>
<path d="M11.8682 11.2491L12.3086 11.5519L11.8682 11.2491Z" fill="#DB3232"/>
<path d="M10.4896 11.402L10.0752 11.797L10.4896 11.402Z" fill="#DB3232"/>
<path d="M16.8033 15.987L16.7656 14.9345L16.8004 15.9409L16.8033 15.987Z" fill="white"/>
<path d="M16.8638 17.772L16.8262 16.6647L16.8638 17.772Z" fill="#DB3232"/>
<path d="M16.9538 20.3788L16.9857 21.3449L16.9277 19.5974L16.9248 19.5599L16.9277 19.6089L16.9538 20.3788Z" fill="#7A0A1D"/>
<path d="M7.49881 26.818C9.27795 25.3128 12.4827 24.4159 15.586 23.5451C15.8961 23.4586 16.2119 23.3692 16.5249 23.2798C16.0381 23.2942 15.5542 23.3173 15.0877 23.349C13.0361 23.4961 11.0165 23.7152 9.03455 23.9949C8.42895 24.3064 7.88999 24.6466 7.44086 25.0273C7.11633 25.3012 6.89901 25.6271 6.9106 25.9155L6.97145 27.7004C6.96276 27.4092 7.17718 27.0862 7.50171 26.8123L7.49881 26.818Z" fill="#D1D1D1"/>
<path d="M16.9882 21.3968L17.0462 23.1327L16.9882 21.3823L16.9854 21.3448L16.9882 21.3968Z" fill="#D1D1D1"/>
<path d="M19.2632 2.15986C18.5215 1.9061 17.6319 1.80517 16.7104 1.78499C16.5801 1.7821 16.4468 1.7821 16.3135 1.7821L16.3743 3.5296L16.4352 5.31747L16.3743 3.56998C16.5076 3.56998 16.638 3.56998 16.7713 3.57286C17.6927 3.59304 18.5794 3.69397 19.3241 3.94773C19.6052 4.0429 19.7529 4.14959 19.7558 4.25917L19.695 2.47418C19.6921 2.3646 19.5443 2.26079 19.2632 2.16275V2.15986Z" fill="white"/>
<path d="M19.3238 3.94773C18.582 3.69397 17.6924 3.59304 16.771 3.57285C16.6406 3.56997 16.5073 3.56997 16.374 3.56997L16.4349 5.31747L16.4957 7.10246L16.4349 5.35496C17.4954 5.35496 18.5327 5.44435 19.3817 5.73272C19.6628 5.82788 19.8106 5.93457 19.8135 6.04415L19.8367 6.70451L19.8512 7.11399C20.8914 6.82274 21.9172 6.51996 22.9168 6.22006C23.9774 5.89997 25.0755 5.57123 26.1766 5.26845C31.9284 3.67955 37.5121 2.84905 42.777 2.80292C44.3157 2.80292 45.8398 3.01919 46.0079 3.63629C46.0166 3.66513 46.0195 3.69397 46.0195 3.7228L45.9586 1.9407C45.9586 1.91186 45.9528 1.88303 45.947 1.85419C45.7819 1.23709 44.2548 1.02081 42.7162 1.02081C37.4541 1.06695 31.8675 1.89745 26.1158 3.48634C25.0118 3.79201 23.9165 4.12075 22.856 4.43795C21.8534 4.73785 20.8305 5.04352 19.7903 5.33189L19.7526 4.25628C19.7497 4.1467 19.602 4.04289 19.3209 3.94485L19.3238 3.94773Z" fill="#DB3232"/>
<path d="M16.6815 12.4545L16.6207 10.7128L16.6004 10.087L16.5598 8.92493V8.88745L16.499 7.13995V7.10246L16.4352 5.31747L16.3744 3.53249L16.3135 1.75038L16.2556 0C15.9195 0 15.5833 0.00865099 15.2501 0.025953C14.9169 0.0403713 14.5866 0.0634406 14.2649 0.0865099C11.1587 0.311435 8.1191 0.686311 5.17803 1.21114C3.41338 1.52546 1.68641 1.89457 0 2.31558L0.425949 14.7701C4.92014 13.6484 9.71858 12.8957 14.6909 12.5382C15.3342 12.492 16.0122 12.4545 16.6815 12.4545ZM15.8152 11.8461C15.6674 11.7365 15.5167 11.6298 15.3689 11.5202C15.2298 11.6442 15.0879 11.7682 14.9517 11.8922C14.9633 11.849 14.9748 11.8028 14.9864 11.7538C15.0096 11.6586 15.0357 11.5548 15.0618 11.4568C15.0734 11.4078 15.085 11.3616 15.0965 11.3184C14.9517 11.2117 14.8039 11.1079 14.659 11.0012C14.8329 10.9896 15.0096 10.9781 15.1864 10.9666C15.2096 10.8801 15.2327 10.782 15.2588 10.6811C15.2849 10.5802 15.311 10.4821 15.3313 10.3956C15.3863 10.56 15.4616 10.782 15.5167 10.9464C15.6964 10.9377 15.876 10.9291 16.0586 10.9262C15.9166 11.0473 15.7746 11.1684 15.6326 11.2895C15.6877 11.4568 15.763 11.6759 15.8181 11.8432L15.8152 11.8461ZM15.5457 8.85861C15.6007 9.02586 15.6761 9.24502 15.7311 9.41227C15.5833 9.30269 15.4327 9.196 15.2849 9.08642C15.1458 9.21042 15.0038 9.33441 14.8676 9.45841C14.9111 9.28827 14.9691 9.05758 15.0125 8.88745C14.8676 8.78075 14.7199 8.67694 14.575 8.57024C14.7488 8.55871 14.9256 8.54717 15.1023 8.53564C15.1255 8.44913 15.1487 8.35109 15.1748 8.25016C15.2009 8.14923 15.2269 8.05118 15.2472 7.96467C15.3023 8.12904 15.3776 8.35109 15.4327 8.51545C15.6123 8.5068 15.792 8.49815 15.9745 8.49527C15.8325 8.61638 15.6906 8.7375 15.5486 8.85861H15.5457ZM14.2997 8.37416L13.8564 8.06272L13.4362 8.44336L13.5811 7.86951L13.1378 7.56096C13.3145 7.54654 13.4942 7.52924 13.6709 7.51482L13.8158 6.94097L14.0013 7.48887C14.1722 7.47445 14.3461 7.46292 14.517 7.45138C14.5228 7.45138 14.5286 7.45138 14.5344 7.45138L14.1954 7.75705L14.1143 7.82914L14.2997 8.37704V8.37416ZM12.9378 9.61125L12.4974 9.30558L12.0801 9.69487L12.225 9.11814L11.7846 8.81535C11.9613 8.79805 12.1381 8.78075 12.3148 8.76345L12.4597 8.18672L12.6423 8.73173C12.819 8.71443 12.9958 8.70001 13.1754 8.68271L12.7582 9.06623L12.9407 9.61125H12.9378ZM11.5122 8.62503L11.0747 8.32513L10.6603 8.72019L10.8023 8.14058L10.3647 7.84356C10.5386 7.82338 10.7154 7.80319 10.8892 7.783L11.0312 7.20339L11.2137 7.74552C11.3905 7.72533 11.5644 7.70803 11.7411 7.69073L11.3268 8.0829L11.5093 8.62503H11.5122ZM10.1735 9.90538L9.73887 9.61125L9.3274 10.0121L9.46939 9.42957L9.03475 9.13832C9.2086 9.11526 9.38246 9.09219 9.55632 9.06912L9.6983 8.4895L9.87795 9.02875C10.0315 9.00856 10.1851 8.99126 10.3387 8.97396C10.359 8.97396 10.3821 8.96819 10.4024 8.96531L9.99096 9.36325L10.1706 9.9025L10.1735 9.90538ZM8.76817 8.95954L8.33642 8.67406L7.93076 9.08065L8.06984 8.49815L7.641 8.21555C7.81196 8.1896 7.98581 8.16365 8.15677 8.13769L8.29875 7.55519L8.47841 8.09156C8.65226 8.06849 8.82322 8.04253 8.99708 8.01946L8.58852 8.42318L8.76817 8.96242V8.95954ZM7.45265 10.2803L7.02381 9.99766L6.62104 10.41L6.76012 9.82464L6.33418 9.5478C6.50513 9.51897 6.67609 9.49013 6.84705 9.46418L6.98614 8.8788L7.16579 9.41516C7.33675 9.3892 7.50771 9.36325 7.67867 9.33441L7.273 9.74389L7.44975 10.2803H7.45265ZM6.07339 9.37478L5.65034 9.10084L5.25047 9.51897L5.38955 8.9307L4.9694 8.65964C5.04764 8.64522 5.12587 8.6308 5.207 8.61638C5.29683 8.59908 5.38666 8.58466 5.47648 8.56736L5.61557 7.97909L5.79232 8.51257C5.96038 8.48373 6.13134 8.4549 6.3023 8.42606L5.90243 8.84131L6.07919 9.37478H6.07339ZM4.78395 10.7359L4.3638 10.4677L3.96973 10.8945L4.10591 10.3033L3.68866 10.038C3.85672 10.0034 4.02188 9.9717 4.18994 9.9371L4.32613 9.34595L4.49999 9.87654C4.66805 9.84482 4.83611 9.8131 5.00417 9.78138L4.6072 10.2024L4.78395 10.733V10.7359ZM3.43077 9.87078L3.01641 9.60836L2.62523 10.0409L2.75852 9.44688L2.34706 9.18735C2.51223 9.14986 2.67739 9.11526 2.84256 9.08065L2.97585 8.48662L3.1497 9.01433C3.31487 8.97972 3.48293 8.94512 3.64809 8.91052L3.25691 9.34018L3.43077 9.86789V9.87078ZM3.17578 6.90925L3.34964 7.43696L2.93528 7.17455L2.5441 7.6071L2.67739 7.01307L2.26593 6.75354C2.43109 6.71605 2.59626 6.68144 2.76142 6.64684L2.89471 6.05281L3.06857 6.58052C3.23373 6.54591 3.40179 6.51131 3.56696 6.4767L3.17578 6.90637V6.90925ZM4.70282 8.30206L4.28267 8.03388L3.88859 8.46066L4.02478 7.86951L3.60752 7.60422C3.77269 7.56961 3.94075 7.53789 4.10881 7.50329L4.245 6.91214L4.41885 7.44273C4.58692 7.41101 4.75498 7.37929 4.92304 7.34757L4.52607 7.77147L4.70282 8.30206ZM3.52349 5.16752C3.68866 5.13292 3.85672 5.1012 4.02478 5.06948L4.16097 4.47833L4.33482 5.00892C4.50289 4.9772 4.67095 4.94548 4.83901 4.91376L4.44204 5.33477L4.61879 5.86537L4.19864 5.59719L3.80456 6.02397L3.94075 5.43282L3.52349 5.16752ZM5.99226 6.94097L5.56921 6.66703L5.16934 7.08804L5.30842 6.49977L4.88827 6.22871C5.05633 6.19699 5.22439 6.16815 5.39535 6.13643L5.53443 5.54817L5.71119 6.08164C5.87925 6.05281 6.05021 6.02397 6.22117 5.99513L5.8213 6.41038L5.99805 6.94386L5.99226 6.94097ZM7.37152 7.84356L6.94267 7.56385L6.53991 7.97621L6.67899 7.39083L6.25304 7.11399C6.424 7.08516 6.59496 7.05632 6.76592 7.03037L6.905 6.44498L7.08466 6.97846C7.25562 6.95251 7.42657 6.92656 7.59753 6.9006L7.19187 7.31008L7.36862 7.84356H7.37152ZM8.50738 5.98937L8.68703 6.52861L8.25529 6.24024L7.84963 6.64684L7.98871 6.06434L7.55986 5.78174C7.73082 5.75579 7.90468 5.72984 8.07564 5.70388L8.21762 5.12138L8.39727 5.65774C8.57113 5.63468 8.74209 5.60872 8.91595 5.58565L8.50738 5.98937ZM7.10784 4.87627L7.28459 5.41263L6.85574 5.13292L6.45298 5.54528L6.59206 4.9599L6.16611 4.68307C6.33707 4.65423 6.50803 4.62539 6.67899 4.59944L6.81808 4.01406L6.99773 4.55042C7.16869 4.52447 7.33965 4.49563 7.5106 4.46968L7.10494 4.87916L7.10784 4.87627ZM9.90983 6.92944L10.0895 7.46868L9.65484 7.17455L9.24337 7.57538L9.38536 6.99576L8.95072 6.70451C9.12457 6.68144 9.29843 6.65838 9.47229 6.63531L9.61427 6.05569L9.79392 6.59494C9.96778 6.57187 10.1416 6.55168 10.3184 6.53149L9.90693 6.92944H9.90983ZM11.4282 6.19122L10.9906 5.89132L10.5763 6.28638L10.7183 5.70677L10.2807 5.40975C10.4546 5.38956 10.6313 5.36938 10.8052 5.34919L10.9472 4.76958L11.1297 5.31171C11.3065 5.29152 11.4803 5.27422 11.6571 5.25692L11.2427 5.64621L11.4253 6.18834L11.4282 6.19122ZM9.82579 4.49563L10.0054 5.03487L9.5708 4.74074L9.15934 5.14157L9.30133 4.55907L8.86669 4.26782C9.04054 4.24475 9.2144 4.22168 9.38826 4.19861L9.53024 3.619L9.70989 4.15824C9.88375 4.13517 10.0576 4.11499 10.2344 4.0948L9.8229 4.49275L9.82579 4.49563ZM12.8567 7.17743L12.4163 6.87177L11.999 7.25818L12.1439 6.68144L11.7034 6.37866C11.8802 6.36136 12.057 6.34406 12.2337 6.32675L12.3786 5.75291L12.5611 6.29792C12.7379 6.28062 12.9146 6.2662 13.0943 6.2489L12.677 6.63531L12.8596 7.18032L12.8567 7.17743ZM14.4504 5.01469L14.0302 5.39245L14.2157 5.94034L13.7723 5.62602L13.3522 6.00667L13.4971 5.43282L13.0537 5.12427C13.2305 5.10985 13.4101 5.09255 13.5869 5.07813L13.7318 4.50428L13.9172 5.05218C14.0882 5.03776 14.262 5.02622 14.433 5.01469C14.4388 5.01469 14.4446 5.01469 14.4504 5.01469ZM12.5901 4.19861L12.7727 4.74362L12.3322 4.43796L11.915 4.82437L12.0599 4.24763L11.6194 3.94485C11.7962 3.92755 11.9729 3.91025 12.1497 3.89294L12.2946 3.31621L12.4771 3.86122C12.6539 3.84392 12.8306 3.8295 13.0103 3.8122L12.593 4.19573L12.5901 4.19861ZM15.4616 6.4248C15.5022 6.5488 15.5544 6.70451 15.6036 6.84293C15.6181 6.88907 15.6355 6.93521 15.6471 6.97558C15.4993 6.866 15.3486 6.7593 15.2009 6.64972C15.0618 6.77372 14.9198 6.89772 14.7836 7.02172C14.8155 6.89484 14.856 6.73335 14.8937 6.58917C14.9053 6.54015 14.9169 6.49401 14.9285 6.45075C14.7836 6.34406 14.6358 6.24024 14.4909 6.13355C14.6648 6.12201 14.8416 6.11048 15.0183 6.09895C15.0618 5.92881 15.1197 5.701 15.1632 5.53086C15.2182 5.69523 15.2936 5.91727 15.3486 6.08164C15.5283 6.07299 15.7079 6.06434 15.8905 6.06146C15.7485 6.18257 15.6065 6.30369 15.4645 6.4248H15.4616ZM15.3805 3.99099C15.4356 4.15824 15.5109 4.3774 15.566 4.54465C15.4182 4.43507 15.2675 4.32838 15.1197 4.2188C14.9806 4.34279 14.8387 4.46679 14.7025 4.59079C14.7459 4.42065 14.8039 4.18996 14.8474 4.01982C14.83 4.00541 14.8097 3.99387 14.7923 3.97945C14.6648 3.88718 14.5373 3.7949 14.4098 3.70262C14.5837 3.69109 14.7604 3.67955 14.9372 3.66802C14.9604 3.58151 14.9835 3.48346 15.0096 3.38254C15.0357 3.28161 15.0618 3.18356 15.0821 3.09705C15.1371 3.26142 15.2125 3.48346 15.2675 3.64783C15.4472 3.63918 15.6268 3.63053 15.8094 3.62765C15.6674 3.74876 15.5254 3.86987 15.3834 3.99099H15.3805ZM14.8503 1.23421C14.8734 1.1477 14.8966 1.04965 14.9227 0.948725C14.9459 0.862215 14.9662 0.775705 14.9864 0.697846C14.9864 0.686312 14.9922 0.674777 14.9951 0.666126C15.0502 0.830495 15.1255 1.05254 15.1806 1.21691C15.3602 1.20825 15.5399 1.1996 15.7224 1.19672C15.5804 1.31783 15.4385 1.43895 15.2965 1.56006C15.3515 1.72731 15.4269 1.94647 15.4819 2.11372C15.3342 2.00415 15.1835 1.89745 15.0357 1.78787C14.8966 1.91187 14.7546 2.03587 14.6184 2.15986C14.6619 1.98973 14.7199 1.75903 14.7633 1.5889C14.6184 1.4822 14.4707 1.37839 14.3258 1.27169C14.4996 1.26016 14.6764 1.24863 14.8531 1.23709L14.8503 1.23421ZM13.6477 2.07335L13.8332 2.62125C14.0041 2.60683 14.178 2.5953 14.349 2.58376C14.3548 2.58376 14.3606 2.58376 14.3664 2.58376L13.9462 2.96152L14.1316 3.50942L13.6883 3.19798L13.2682 3.57862L13.413 3.00478L12.9697 2.69334C13.1465 2.67892 13.3261 2.66162 13.5029 2.6472L13.6477 2.07335ZM12.0656 1.45913L12.2105 0.882401L12.3931 1.42741C12.5698 1.41011 12.7466 1.39569 12.9262 1.37839L12.509 1.76192L12.6915 2.30693L12.2511 2.00126L11.8338 2.39056L11.9787 1.81382L11.5383 1.51104C11.715 1.49374 11.8918 1.47643 12.0685 1.45913H12.0656ZM10.8689 2.33865L11.0515 2.88078C11.2282 2.86059 11.4021 2.84329 11.5788 2.82599L11.1645 3.21817L11.347 3.7603L10.9095 3.46039L10.4951 3.85546L10.6371 3.27872L10.1996 2.98171C10.3734 2.96152 10.5502 2.94134 10.7241 2.92115L10.8689 2.34442V2.33865ZM9.30712 1.77057L9.44911 1.19095L9.62876 1.7302C9.80261 1.70713 9.97647 1.68694 10.1532 1.66676L9.74176 2.0647L9.92142 2.60395L9.48677 2.30981L9.07531 2.71064L9.2173 2.12814L8.78265 1.83689C8.95651 1.81382 9.13037 1.79075 9.30422 1.76768L9.30712 1.77057ZM8.13359 2.68469L8.31324 3.22105C8.4871 3.19798 8.65806 3.17203 8.83191 3.14896L8.42335 3.55267L8.603 4.08903L8.17126 3.80355L7.76559 4.21015L7.90468 3.62765L7.47583 3.34216C7.64679 3.31621 7.82065 3.29026 7.99161 3.26431L8.13359 2.68181V2.68469ZM6.59786 2.16275L6.73694 1.57736L6.91659 2.11372C7.08755 2.08777 7.25851 2.06182 7.42947 2.03587L7.02381 2.44535L7.20056 2.98171L6.77171 2.69911L6.36895 3.11147L6.50803 2.52609L6.08208 2.24926C6.25304 2.22042 6.424 2.19158 6.59496 2.16563L6.59786 2.16275ZM5.30842 3.69974L5.44751 3.11147L5.62426 3.64207C5.79232 3.61323 5.96328 3.58439 6.13424 3.55556L5.73437 3.97369L5.91112 4.50716L5.48807 4.23322L5.0882 4.65135L5.22729 4.06308L4.80424 3.79202C4.88827 3.7776 4.9723 3.7603 5.05633 3.74588C5.14036 3.73146 5.22439 3.71416 5.30842 3.69974ZM3.94075 2.63567L4.07694 2.04452L4.25079 2.57511C4.41885 2.54339 4.58692 2.51167 4.75498 2.47995L4.35801 2.90096L4.53476 3.43156L4.11461 3.16338L3.72053 3.59016L3.85672 2.99901L3.43946 2.73371C3.60463 2.69911 3.77269 2.66739 3.94075 2.63278V2.63567ZM2.81068 3.62188L2.98454 4.14959C3.1497 4.11499 3.31776 4.08038 3.48293 4.04578L3.09175 4.47544L3.26561 5.00315L2.85125 4.74074L2.46007 5.17329L2.59336 4.58214L2.1819 4.32261C2.34706 4.28512 2.51223 4.25052 2.67739 4.21591L2.81068 3.62476V3.62188ZM1.3387 3.18933L1.47199 2.5953L1.64294 3.12012C1.80811 3.08263 1.97037 3.04515 2.13554 3.01054L1.74726 3.44598L1.91822 3.9708L1.50676 3.71416L1.12137 4.15247L1.25467 3.55556L0.846102 3.30179C1.00837 3.26431 1.17353 3.22393 1.3358 3.18645L1.3387 3.18933ZM1.42273 5.62314L1.55602 5.02911L1.72698 5.55393C1.89214 5.51645 2.05441 5.47896 2.21957 5.44435L1.83129 5.87979L2.00225 6.40461L1.59079 6.14797L1.20541 6.58628L1.3387 5.98937L0.930133 5.7356C1.0924 5.69812 1.25756 5.65774 1.41983 5.62026L1.42273 5.62314ZM1.50676 8.05695L1.64005 7.46292L1.81101 7.98774C1.97617 7.95026 2.13844 7.91277 2.3036 7.87816L1.91532 8.3136L2.08628 8.83842L1.67482 8.58178L1.28944 9.02009L1.42273 8.42606L1.01416 8.1723C1.17643 8.13481 1.34159 8.09444 1.50386 8.05695H1.50676ZM1.58789 10.4908L1.72118 9.89673L1.89214 10.4216C2.0573 10.3841 2.21957 10.3466 2.38473 10.312L1.99645 10.7474L2.16741 11.2722L1.75595 11.0156L1.37057 11.4539L1.50386 10.857L1.0953 10.6032C1.25756 10.5657 1.42273 10.5254 1.58499 10.4879L1.58789 10.4908ZM2.25434 13.706L1.84288 13.4494L1.4575 13.8877L1.59079 13.2908L1.18222 13.037C1.34449 12.9995 1.50965 12.9592 1.67192 12.9217L1.80521 12.3277L1.97617 12.8525C2.14133 12.815 2.3036 12.7775 2.46876 12.7429L2.08048 13.1783L2.25144 13.7032L2.25434 13.706ZM3.10044 12.0451L2.70927 12.4776L2.84256 11.8865L2.43109 11.6269C2.59626 11.5894 2.76142 11.5548 2.92659 11.5202L3.05988 10.9262L3.23373 11.4539C3.3989 11.4193 3.56696 11.3847 3.73212 11.3501L3.34094 11.7798L3.5148 12.3075L3.10044 12.0451ZM4.86798 13.1697L4.44783 12.9015L4.05376 13.3283L4.18994 12.7371L3.77269 12.4718C3.93785 12.4372 4.10591 12.4055 4.27397 12.3709L4.41016 11.7798L4.58402 12.3104C4.75208 12.2786 4.92014 12.2469 5.0882 12.2152L4.69123 12.6362L4.86798 13.1668V13.1697ZM5.73437 11.5346L5.3345 11.9528L5.47358 11.3645L5.05053 11.0934C5.2186 11.0617 5.38666 11.0329 5.55762 11.0012L5.6967 10.4129L5.87346 10.9464C6.04152 10.9175 6.21248 10.8887 6.38343 10.8599L5.98356 11.278L6.16032 11.8115L5.73727 11.5375L5.73437 11.5346ZM7.53668 12.7141L7.10784 12.4344L6.70507 12.8467L6.84415 12.2613L6.41821 11.9845C6.58916 11.9557 6.76012 11.9268 6.93108 11.9009L7.07017 11.3155L7.24982 11.8519C7.42078 11.8259 7.59174 11.7999 7.7627 11.7711L7.35703 12.1806L7.53379 12.7169L7.53668 12.7141ZM8.42045 11.1079L8.01479 11.5145L8.15387 10.932L7.72503 10.6465C7.89599 10.6205 8.06984 10.5946 8.2408 10.5686L8.38278 9.98612L8.56244 10.5225C8.73629 10.4994 8.90725 10.4735 9.08111 10.4504L8.67255 10.8541L8.8522 11.3905L8.42045 11.105V11.1079ZM10.2575 12.3392L9.8229 12.0451L9.41144 12.4459L9.55342 11.8634L9.11878 11.5721C9.29263 11.5491 9.46649 11.526 9.64035 11.5029L9.75915 11.0127L9.78233 10.9233L9.96198 11.4626C10.1358 11.4395 10.3097 11.4193 10.4864 11.3991L10.075 11.7971L10.2546 12.3363L10.2575 12.3392ZM11.1587 10.7589L10.7443 11.154L10.8863 10.5773L10.4488 10.2803C10.6226 10.2601 10.7994 10.2399 10.9732 10.2197L11.1181 9.64008L11.3007 10.1822C11.4774 10.162 11.6513 10.1447 11.828 10.1274L11.4137 10.5196L11.5962 11.0617L11.1587 10.7618V10.7589ZM13.0219 12.0451L12.5814 11.7394L12.1642 12.1258L12.309 11.5491L11.8686 11.2463C12.0454 11.229 12.2221 11.2117 12.3989 11.1944L12.5438 10.6176L12.7263 11.1627C12.9031 11.1454 13.0798 11.1309 13.2595 11.1136L12.8422 11.4972L13.0248 12.0422L13.0219 12.0451ZM13.9375 10.4965L13.5174 10.8772L13.6622 10.3033L13.2189 9.99189C13.3956 9.97747 13.5753 9.96017 13.7521 9.94575L13.8245 9.66027L13.8969 9.3719L14.0824 9.9198C14.2533 9.90538 14.4272 9.89384 14.5982 9.88231C14.604 9.88231 14.6097 9.88231 14.6155 9.88231L14.1954 10.2601L14.3808 10.808L13.9375 10.4965Z" fill="#0053AF"/>
<path d="M1.20792 6.58629L1.5933 6.14797L2.00477 6.40462L1.83381 5.87979L2.22209 5.44436C2.05692 5.48185 1.89176 5.51645 1.72949 5.55394L1.55853 5.02911L1.42524 5.62315C1.26008 5.66064 1.09781 5.69812 0.935547 5.73849L1.34411 5.99226L1.21082 6.58917L1.20792 6.58629Z" fill="white"/>
<path d="M1.12394 4.15245L1.50932 3.71414L1.92078 3.97078L1.74982 3.44596L2.1381 3.01052C1.97294 3.04801 1.80777 3.08261 1.64551 3.1201L1.47455 2.59528L1.34126 3.18931C1.17609 3.2268 1.01383 3.26429 0.851562 3.30466L1.26013 3.55842L1.12684 4.15534L1.12394 4.15245Z" fill="white"/>
<path d="M1.37394 11.4539L1.75932 11.0156L2.17078 11.2722L1.99982 10.7474L2.3881 10.312C2.22294 10.3495 2.05777 10.3841 1.89551 10.4216L1.72455 9.89673L1.59126 10.4908C1.42609 10.5283 1.26383 10.5657 1.10156 10.6061L1.51013 10.8599L1.37684 11.4568L1.37394 11.4539Z" fill="white"/>
<path d="M1.42227 8.42603L1.28898 9.02007L1.67436 8.58175L2.08582 8.8384L1.91486 8.31357L2.30314 7.87814C2.13798 7.91563 1.97281 7.95023 1.81055 7.98772L1.63959 7.46289L1.5063 8.05693C1.34113 8.09441 1.17887 8.1319 1.0166 8.17227L1.42516 8.42603H1.42227Z" fill="white"/>
<path d="M1.97656 12.8554L1.8056 12.3306L1.67231 12.9246C1.50715 12.9621 1.34488 12.9996 1.18262 13.0399L1.59118 13.2937L1.45789 13.8906L1.84327 13.4523L2.25473 13.709L2.08377 13.1841L2.47205 12.7487C2.30689 12.7862 2.14173 12.8208 1.97946 12.8583L1.97656 12.8554Z" fill="white"/>
<path d="M2.5931 4.58215L2.45981 5.1733L2.85099 4.74075L3.26535 5.00316L3.09149 4.47545L3.48267 4.04579C3.31461 4.08039 3.14944 4.11499 2.98428 4.1496L2.81042 3.62189L2.67713 4.21304C2.51197 4.24764 2.3468 4.28513 2.18164 4.31973L2.5931 4.57926V4.58215Z" fill="white"/>
<path d="M2.89441 6.05566L2.76112 6.6497C2.59595 6.6843 2.43079 6.72179 2.26562 6.75639L2.67709 7.01592L2.5438 7.60996L2.93497 7.17741L3.34933 7.43982L3.17547 6.91211L3.56665 6.48245C3.39859 6.51705 3.23343 6.55165 3.06826 6.58626L2.89441 6.05855V6.05566Z" fill="white"/>
<path d="M3.15225 9.01721L2.97839 8.4895L2.8451 9.08354C2.67994 9.11814 2.51477 9.15563 2.34961 9.19023L2.76107 9.44976L2.62778 10.0438L3.01896 9.61125L3.43332 9.87366L3.25946 9.34595L3.65064 8.91628C3.48258 8.95089 3.31741 8.98549 3.15225 9.0201V9.01721Z" fill="white"/>
<path d="M3.73462 11.3501C3.56656 11.3847 3.4014 11.4193 3.23623 11.4539L3.06238 10.9262L2.92909 11.5202C2.76392 11.5548 2.59876 11.5923 2.43359 11.6269L2.84505 11.8865L2.71176 12.4776L3.10294 12.0451L3.5173 12.3075L3.34344 11.7798L3.73462 11.3501Z" fill="white"/>
<path d="M3.80451 6.02398L4.19858 5.59719L4.61873 5.86537L4.44198 5.33478L4.83895 4.91377C4.67089 4.94549 4.50283 4.97721 4.33477 5.00893L4.16091 4.47833L4.02472 5.06948C3.85666 5.1012 3.6915 5.13581 3.52344 5.16753L3.94069 5.43282L3.80451 6.02398Z" fill="white"/>
<path d="M3.72052 3.59014L4.1146 3.16336L4.53475 3.43154L4.358 2.90094L4.75497 2.47993C4.58691 2.51165 4.41885 2.54337 4.25078 2.57509L4.07693 2.04449L3.94074 2.63565C3.77268 2.66737 3.60751 2.70197 3.43945 2.73657L3.85671 3.00187L3.72052 3.59302V3.59014Z" fill="white"/>
<path d="M4.50274 9.87654L4.32888 9.34595L4.19269 9.9371C4.02463 9.96882 3.85947 10.0034 3.69141 10.038L4.10866 10.3033L3.97247 10.8945L4.36655 10.4677L4.7867 10.7359L4.60995 10.2053L5.00692 9.78426C4.83886 9.81598 4.6708 9.8477 4.50274 9.87942V9.87654Z" fill="white"/>
<path d="M4.92294 7.34754C4.75488 7.37926 4.58681 7.41098 4.41875 7.4427L4.2449 6.91211L4.10871 7.50326C3.94065 7.53498 3.77548 7.56958 3.60742 7.60419L4.02468 7.86949L3.88849 8.46064L4.28256 8.03385L4.70272 8.30204L4.52596 7.77144L4.92294 7.34754Z" fill="white"/>
<path d="M4.58379 12.3104L4.40994 11.7798L4.27375 12.3709C4.10569 12.4027 3.94052 12.4373 3.77246 12.4719L4.18972 12.7372L4.05353 13.3283L4.4476 12.9015L4.86776 13.1697L4.691 12.6391L5.08798 12.2181C4.91991 12.2498 4.75185 12.2815 4.58379 12.3133V12.3104Z" fill="white"/>
<path d="M5.22481 4.06306L5.08572 4.65133L5.48559 4.23319L5.90864 4.50714L5.73189 3.97367L6.13176 3.55553C5.9608 3.58437 5.79274 3.61321 5.62178 3.64204L5.44503 3.11145L5.30594 3.69972C5.22191 3.71414 5.13788 3.73144 5.05385 3.74586C4.96982 3.76027 4.88579 3.77758 4.80176 3.79199L5.22191 4.06306H5.22481Z" fill="white"/>
<path d="M5.70573 6.07877L5.52898 5.54529L5.38989 6.13356C5.22183 6.16239 5.05087 6.19411 4.88281 6.22583L5.30297 6.4969L5.16388 7.08516L5.56375 6.66415L5.9868 6.9381L5.81005 6.40462L6.20992 5.98937C6.03896 6.01821 5.8709 6.04705 5.69994 6.07588L5.70573 6.07877Z" fill="white"/>
<path d="M5.78972 8.51254L5.61296 7.97906L5.47388 8.56733C5.38405 8.58463 5.29423 8.59905 5.2044 8.61635C5.12617 8.63077 5.04793 8.64519 4.9668 8.65961L5.38695 8.93067L5.24787 9.51894L5.64774 9.10081L6.07079 9.37476L5.89403 8.84128L6.2939 8.42603C6.12294 8.45487 5.95488 8.48371 5.78392 8.51254H5.78972Z" fill="white"/>
<path d="M6.38075 10.8599C6.20979 10.8887 6.04173 10.9175 5.87077 10.9464L5.69402 10.4129L5.55493 11.0012C5.38687 11.03 5.21591 11.0617 5.04785 11.0934L5.46801 11.3645L5.32892 11.9528L5.72879 11.5346L6.15184 11.8086L5.97509 11.2751L6.37496 10.857L6.38075 10.8599Z" fill="white"/>
<path d="M6.82091 4.01118L6.68182 4.59657C6.51086 4.6254 6.3399 4.65136 6.16895 4.68019L6.59489 4.95703L6.45581 5.54241L6.85858 5.13005L7.28742 5.40976L7.11067 4.8734L7.51633 4.46392C7.34537 4.48987 7.17442 4.51583 7.00346 4.54466L6.8238 4.0083L6.82091 4.01118Z" fill="white"/>
<path d="M6.37479 3.10857L6.77755 2.69621L7.2064 2.97881L7.02965 2.44245L7.43531 2.03297C7.26435 2.05892 7.09339 2.08487 6.92243 2.11082L6.74278 1.57446L6.6037 2.15985C6.43274 2.18868 6.26178 2.21464 6.09082 2.24347L6.51677 2.5203L6.37768 3.10569L6.37479 3.10857Z" fill="white"/>
<path d="M7.1656 9.41228L6.98595 8.87592L6.84686 9.4613C6.6759 9.49014 6.50494 9.51609 6.33398 9.54492L6.75993 9.82176L6.62085 10.4071L7.02362 9.99478L7.45246 10.2774L7.27571 9.74101L7.68137 9.33153C7.51041 9.35749 7.33945 9.38344 7.1685 9.41228H7.1656Z" fill="white"/>
<path d="M7.08161 6.97848L6.90196 6.44501L6.76288 7.03039C6.59192 7.05923 6.42096 7.08518 6.25 7.11402L6.67595 7.39085L6.53686 7.97623L6.93963 7.56387L7.36848 7.84358L7.19172 7.31011L7.59739 6.90063C7.42643 6.92658 7.25547 6.95253 7.08451 6.97848H7.08161Z" fill="white"/>
<path d="M7.24958 11.8461L7.06993 11.3098L6.93085 11.8951C6.75989 11.924 6.58893 11.9499 6.41797 11.9788L6.84392 12.2556L6.70483 12.841L7.1076 12.4286L7.53645 12.7083L7.35969 12.172L7.76536 11.7625C7.5944 11.7884 7.42344 11.8144 7.25248 11.8432L7.24958 11.8461Z" fill="white"/>
<path d="M7.90443 3.62765L7.76535 4.21015L8.17101 3.80355L8.60276 4.08904L8.4231 3.55267L8.83167 3.14896C8.65781 3.17203 8.48395 3.1951 8.313 3.22105L8.13334 2.68469L7.99136 3.26719C7.8175 3.29315 7.64654 3.3191 7.47559 3.34505L7.90443 3.63053V3.62765Z" fill="white"/>
<path d="M8.21733 5.11853L8.07535 5.70103C7.90149 5.72698 7.73053 5.75294 7.55957 5.77889L7.98842 6.06149L7.84933 6.64399L8.255 6.23739L8.68674 6.52576L8.50709 5.98651L8.91565 5.5828C8.7418 5.60587 8.56794 5.62894 8.39698 5.65489L8.21733 5.11853Z" fill="white"/>
<path d="M8.47803 8.08867L8.29838 7.55231L8.1564 8.13481C7.98254 8.16076 7.81158 8.18671 7.64062 8.21267L8.06947 8.49526L7.93039 9.07776L8.33605 8.67117L8.7678 8.95665L8.58814 8.41741L8.99671 8.01369C8.82285 8.03676 8.64899 8.05983 8.47803 8.08578V8.08867Z" fill="white"/>
<path d="M9.08069 10.4533C8.90683 10.4764 8.73298 10.4994 8.56202 10.5254L8.38237 9.98901L8.24038 10.5715C8.06653 10.5975 7.89557 10.6234 7.72461 10.6494L8.15346 10.9349L8.01437 11.5174L8.42004 11.1108L8.85178 11.3962L8.67213 10.8599L9.08069 10.4562V10.4533Z" fill="white"/>
<path d="M9.53269 3.62189L9.39071 4.2015C9.21685 4.22457 9.043 4.24764 8.86914 4.27071L9.30378 4.56196L9.1618 5.14446L9.57326 4.74363L10.0079 5.03777L9.82825 4.49852L10.2397 4.10058C10.0659 4.12076 9.8891 4.14383 9.71524 4.16402L9.53559 3.62477L9.53269 3.62189Z" fill="white"/>
<path d="M9.07785 2.71067L9.48931 2.30984L9.92395 2.60397L9.7443 2.06473L10.1558 1.66678C9.9819 1.68697 9.80515 1.71004 9.63129 1.73022L9.45164 1.19098L9.30966 1.7706C9.1358 1.79366 8.96194 1.81673 8.78809 1.8398L9.22273 2.13105L9.08074 2.71355L9.07785 2.71067Z" fill="white"/>
<path d="M10.4058 8.96817C10.3855 8.96817 10.3623 8.97394 10.342 8.97683C10.1884 8.99413 10.0349 9.01431 9.88129 9.03162L9.70164 8.49237L9.55966 9.07199C9.3858 9.09506 9.21194 9.11813 9.03809 9.14119L9.47273 9.43244L9.33074 10.0149L9.7422 9.61411L10.1768 9.90825L9.99719 9.369L10.4087 8.97106L10.4058 8.96817Z" fill="white"/>
<path d="M10.3218 6.53147C10.1479 6.55165 9.97116 6.57472 9.79731 6.59491L9.61765 6.05566L9.47567 6.63528C9.30182 6.65835 9.12796 6.68142 8.9541 6.70449L9.38874 6.99574L9.24676 7.57535L9.65822 7.17452L10.0929 7.46866L9.91321 6.92941L10.3247 6.53147H10.3218Z" fill="white"/>
<path d="M9.96527 11.4655L9.78562 10.9262L9.76244 11.0156L9.64364 11.5058C9.46978 11.5289 9.29593 11.552 9.12207 11.575L9.55671 11.8663L9.41473 12.4488L9.82619 12.048L10.2608 12.3421L10.0812 11.8028L10.4926 11.4049C10.3188 11.4251 10.142 11.4482 9.96817 11.4683L9.96527 11.4655Z" fill="white"/>
<path d="M10.6368 3.27296L10.4948 3.84969L10.9091 3.45463L11.3467 3.75453L11.1641 3.2124L11.5785 2.82022C11.4017 2.83753 11.225 2.85771 11.0511 2.87501L10.8686 2.33289L10.7237 2.90962C10.5469 2.9298 10.3731 2.94999 10.1992 2.97018L10.6368 3.26719V3.27296Z" fill="white"/>
<path d="M11.1351 5.31459L10.9526 4.77246L10.8106 5.35208C10.6338 5.37226 10.46 5.39245 10.2861 5.41263L10.7237 5.70965L10.5817 6.28927L10.996 5.89421L11.4336 6.19411L11.251 5.65198L11.6654 5.26268C11.4886 5.27999 11.3119 5.30017 11.138 5.31747L11.1351 5.31459Z" fill="white"/>
<path d="M11.2162 7.74843L11.0336 7.2063L10.8917 7.78592C10.7149 7.8061 10.541 7.82629 10.3672 7.84647L10.8047 8.14349L10.6627 8.72311L11.0771 8.32804L11.5146 8.62794L11.3321 8.08582L11.7465 7.69364C11.5697 7.71094 11.3929 7.73113 11.2191 7.74843H11.2162Z" fill="white"/>
<path d="M11.8285 10.1274C11.6517 10.1447 11.475 10.1649 11.3011 10.1822L11.1186 9.64008L10.9737 10.2197C10.7969 10.2399 10.6231 10.2601 10.4492 10.2802L10.8868 10.5773L10.7448 11.154L11.1591 10.7589L11.5967 11.0588L11.4141 10.5167L11.8285 10.1245V10.1274Z" fill="white"/>
<path d="M12.2914 3.31622L12.1465 3.89296C11.9697 3.91026 11.793 3.92756 11.6162 3.94486L12.0566 4.24765L11.9118 4.82438L12.329 4.43797L12.7695 4.74364L12.5869 4.19862L13.0042 3.8151C12.8274 3.82951 12.6478 3.84682 12.471 3.86412L12.2885 3.31911L12.2914 3.31622Z" fill="white"/>
<path d="M11.8307 2.39054L12.2479 2.00125L12.6884 2.30691L12.5058 1.7619L12.9231 1.37838C12.7463 1.39279 12.5667 1.4101 12.3899 1.4274L12.2074 0.882385L12.0625 1.45912C11.8857 1.47642 11.709 1.49372 11.5322 1.51102L11.9727 1.81381L11.8278 2.39054H11.8307Z" fill="white"/>
<path d="M12.6419 8.73172L12.4593 8.18671L12.3144 8.76344C12.1377 8.78074 11.9609 8.79804 11.7842 8.81534L12.2246 9.11813L12.0797 9.69486L12.497 9.30557L12.9374 9.61124L12.7549 9.06622L13.1721 8.6827C12.9954 8.69712 12.8157 8.71442 12.639 8.73172H12.6419Z" fill="white"/>
<path d="M12.5579 6.29501L12.3753 5.75L12.2305 6.32385C12.0537 6.34115 11.8769 6.35845 11.7002 6.37575L12.1406 6.67854L11.9958 7.25527L12.413 6.86886L12.8534 7.17453L12.6709 6.62952L13.0881 6.24311C12.9114 6.25752 12.7317 6.27483 12.555 6.29213L12.5579 6.29501Z" fill="white"/>
<path d="M12.7259 11.1656L12.5433 10.6205L12.3984 11.1973C12.2217 11.2146 12.0449 11.2319 11.8682 11.2492L12.3086 11.552L12.1637 12.1287L12.581 11.7423L13.0214 12.048L12.8389 11.5029L13.2561 11.1194C13.0794 11.1338 12.8997 11.1511 12.723 11.1684L12.7259 11.1656Z" fill="white"/>
<path d="M13.4131 3.00192L13.2682 3.57577L13.6883 3.19512L14.1317 3.50656L13.9462 2.95866L14.3664 2.5809C14.3664 2.5809 14.3548 2.5809 14.349 2.5809C14.1751 2.59244 14.0042 2.60686 13.8332 2.61839L13.6478 2.0705L13.5029 2.64434C13.3261 2.65876 13.1465 2.67318 12.9697 2.69048L13.4131 3.00192Z" fill="white"/>
<path d="M14.1953 7.75419L14.5343 7.44852C14.5343 7.44852 14.5228 7.44852 14.517 7.44852C14.3431 7.46005 14.1721 7.47447 14.0012 7.48601L13.8157 6.93811L13.6709 7.51196C13.4941 7.52638 13.3144 7.5408 13.1377 7.5581L13.581 7.86665L13.4361 8.4405L13.8563 8.05986L14.2996 8.37129L14.1142 7.82339L14.1953 7.7513V7.75419Z" fill="white"/>
<path d="M14.6183 9.8823C14.6183 9.8823 14.6067 9.8823 14.6009 9.8823C14.4271 9.89383 14.2561 9.90825 14.0852 9.91978L13.8997 9.37189L13.8273 9.66025L13.7548 9.94574C13.5781 9.96015 13.3984 9.97457 13.2217 9.99188L13.665 10.3033L13.5201 10.8772L13.9403 10.4965L14.3836 10.808L14.1982 10.2601L14.6183 9.8823Z" fill="white"/>
<path d="M15.0795 3.09705C15.0563 3.18356 15.0331 3.2816 15.007 3.38253C14.981 3.48346 14.9549 3.5815 14.9346 3.66801C14.7578 3.67955 14.5811 3.69108 14.4072 3.70262C14.5347 3.79489 14.6622 3.88717 14.7897 3.97945C14.8071 3.99387 14.8274 4.0054 14.8448 4.01982C14.8013 4.18995 14.7433 4.42065 14.6999 4.59078C14.839 4.46679 14.9781 4.34279 15.1171 4.21879C15.2678 4.32549 15.4156 4.43507 15.5634 4.54464C15.5083 4.37739 15.433 4.15823 15.3779 3.99098C15.5199 3.86987 15.6619 3.74875 15.8039 3.62764C15.6242 3.63341 15.4417 3.63917 15.262 3.64783C15.207 3.48346 15.1316 3.26141 15.0766 3.09705H15.0795Z" fill="white"/>
<path d="M14.6159 2.15701C14.755 2.03301 14.894 1.90901 15.0331 1.78501C15.1838 1.89459 15.3316 2.00129 15.4794 2.11087C15.4243 1.94362 15.349 1.72446 15.2939 1.5572C15.4359 1.43609 15.5779 1.31498 15.7199 1.19386C15.5402 1.19963 15.3577 1.2054 15.178 1.21405C15.123 1.04968 15.0476 0.827638 14.9926 0.663269C14.9926 0.674804 14.9868 0.686338 14.9839 0.694989C14.9636 0.772848 14.9433 0.859358 14.9201 0.945868C14.894 1.0468 14.868 1.14484 14.8477 1.23135C14.6709 1.24289 14.4942 1.25442 14.3203 1.26595C14.4652 1.37265 14.613 1.47646 14.7579 1.58316C14.7144 1.75329 14.6564 1.98399 14.613 2.15412L14.6159 2.15701Z" fill="white"/>
<path d="M15.1635 5.53375C15.12 5.70389 15.062 5.9317 15.0186 6.10183C14.8418 6.11337 14.6651 6.1249 14.4912 6.13644C14.6361 6.24313 14.7839 6.34983 14.9288 6.45364C14.9172 6.4969 14.9056 6.54303 14.894 6.59206C14.8563 6.73624 14.8157 6.89772 14.7839 7.02461C14.923 6.90061 15.062 6.77661 15.2011 6.65261C15.3518 6.75931 15.4996 6.86889 15.6474 6.97847C15.6329 6.9381 15.6184 6.89196 15.6039 6.84582C15.5575 6.7074 15.5054 6.55169 15.4619 6.42769C15.6039 6.30657 15.7459 6.18546 15.8879 6.06435C15.7082 6.07011 15.5257 6.07588 15.346 6.08453C15.291 5.92016 15.2156 5.69812 15.1606 5.53375H15.1635Z" fill="white"/>
<path d="M15.5139 10.9521C15.4589 10.7878 15.3836 10.5657 15.3285 10.4014C15.3053 10.4879 15.2821 10.5859 15.2561 10.6869C15.23 10.7878 15.2039 10.8858 15.1836 10.9723C15.0069 10.9839 14.8301 10.9954 14.6562 11.0069C14.8011 11.1136 14.9489 11.2174 15.0938 11.3241C15.0822 11.3674 15.0706 11.4135 15.059 11.4626C15.0358 11.5577 15.0098 11.6615 14.9837 11.7596C14.9721 11.8086 14.9605 11.8547 14.9489 11.898C15.088 11.774 15.2271 11.65 15.3662 11.526C15.5168 11.6356 15.6646 11.7423 15.8124 11.8518C15.7573 11.6846 15.682 11.4654 15.6269 11.2982C15.7689 11.1771 15.9109 11.056 16.0529 10.9348C15.8732 10.9406 15.6907 10.9464 15.511 10.955L15.5139 10.9521Z" fill="white"/>
<path d="M46.2139 9.25654L46.2689 10.8627C46.2689 10.8339 46.2631 10.8051 46.2573 10.7762C46.0921 10.1591 44.5651 9.94285 43.0265 9.94285C37.7644 9.98899 32.1778 10.8195 26.4261 12.4084C25.3221 12.714 24.2268 13.0428 23.1663 13.36C22.1637 13.6599 21.1408 13.9656 20.1006 14.2539L20.0629 13.1379C20.06 13.0284 19.9122 12.9246 19.6312 12.8265C18.7822 12.5381 17.7448 12.4459 16.6843 12.4487C16.015 12.4487 15.3369 12.4891 14.6936 12.5353C9.72135 12.8928 4.9229 13.6426 0.428711 14.7672L0.489561 16.5551C4.98375 15.4333 9.7822 14.6807 14.7545 14.3231C15.3978 14.277 16.0758 14.2395 16.7452 14.2395C16.8784 14.2366 17.0088 14.2395 17.1421 14.2395C18.0636 14.2597 18.9502 14.3606 19.6949 14.6144C19.976 14.7095 20.1238 14.8162 20.1267 14.9258L20.1643 16.0418C21.2046 15.7505 22.2303 15.4478 23.23 15.1479C24.2905 14.8278 25.3887 14.499 26.4898 14.1962C32.2416 12.6074 37.8253 11.7769 43.0902 11.7307C44.6289 11.7307 46.153 11.947 46.3211 12.5641C46.3298 12.5929 46.3326 12.6218 46.3326 12.6506L46.2776 11.0444C48.474 10.8858 50.682 10.7878 52.8928 10.7474L52.832 8.9624C50.6211 9.00277 48.4102 9.1037 46.2167 9.25942L46.2139 9.25654Z" fill="white"/>
<path d="M46.2744 11.0416L46.3294 12.6478C46.3294 12.6189 46.3236 12.5901 46.3178 12.5613C46.1527 11.9442 44.6256 11.7279 43.087 11.7279C37.8249 11.774 32.2383 12.6045 26.4866 14.1934C25.3826 14.4991 24.2873 14.8278 23.2268 15.145C22.2242 15.4449 21.2013 15.7506 20.1611 16.039L20.1234 14.923C20.1205 14.8134 19.9728 14.7096 19.6917 14.6115C18.9499 14.3578 18.0603 14.2569 17.1389 14.2367C17.0085 14.2338 16.8752 14.2338 16.7419 14.2338C16.0726 14.2367 15.3945 14.2742 14.7513 14.3232C9.77896 14.6808 4.98052 15.4305 0.486328 16.5551L0.495021 16.8031L0.547178 18.343C5.04137 17.2213 9.83981 16.4686 14.8121 16.111C15.4554 16.0649 16.1334 16.0274 16.8028 16.0274V16.0217C16.9361 16.0217 17.0665 16.0217 17.1997 16.0245C18.1212 16.0447 19.0078 16.1457 19.7525 16.3994C20.0336 16.4946 20.1814 16.6013 20.1843 16.7109L20.1901 16.8521L20.2219 17.7807C21.2622 17.4894 22.2879 17.1867 23.2876 16.8868C24.3481 16.5667 25.4463 16.2379 26.5474 15.9351C32.2992 14.3462 37.8829 13.5158 43.1478 13.4696C44.6865 13.4696 46.2106 13.6859 46.3787 14.303C46.3874 14.3318 46.3903 14.3607 46.3903 14.3895L46.3381 12.8294C48.5345 12.6708 50.7425 12.5728 52.9534 12.5324L52.8925 10.7474C50.6816 10.7878 48.4707 10.8887 46.2773 11.0445L46.2744 11.0416ZM16.8028 15.9871V15.9409L16.768 14.9345L16.8028 15.9871Z" fill="#DB3232"/>
<path d="M46.3388 12.8294L46.3909 14.3895C46.3909 14.3607 46.3851 14.3318 46.3793 14.303C46.2142 13.6859 44.6871 13.4696 43.1485 13.4696C37.8865 13.5157 32.2999 14.3462 26.5481 15.9351C25.4441 16.2408 24.3488 16.5695 23.2883 16.8867C22.2857 17.1866 21.2629 17.4923 20.2226 17.7807L20.1907 16.8521L20.185 16.7108C20.1821 16.6013 20.0343 16.4974 19.7532 16.3994C19.0114 16.1456 18.1219 16.0447 17.2004 16.0245C17.07 16.0216 16.9367 16.0216 16.8034 16.0216V16.0274C16.1341 16.0274 15.4561 16.0649 14.8128 16.111C9.84049 16.4686 5.04204 17.2184 0.547852 18.343L0.608701 20.1309C2.29511 19.7098 4.02209 19.3407 5.78673 19.0264C8.7278 18.5016 11.7674 18.1238 14.8736 17.9018C15.5169 17.8557 16.1949 17.8182 16.8643 17.8182L16.9049 19.0322L16.9222 19.557L16.8614 17.8095C17.9219 17.8095 18.9593 17.8989 19.8083 18.1873C20.0893 18.2824 20.2371 18.3891 20.24 18.4987L20.2777 19.5685C21.3179 19.2773 22.3437 18.9745 23.3433 18.6746C24.4039 18.3545 25.5021 18.0258 26.6032 17.723C32.3549 16.1341 37.9386 15.3036 43.2036 15.2575C44.7422 15.2575 46.2663 15.4737 46.4344 16.0908C46.4431 16.1197 46.446 16.1485 46.446 16.1774L46.3938 14.6173C48.5902 14.4587 50.7982 14.3607 53.0091 14.3203L52.9482 12.5324C50.7374 12.5728 48.5265 12.6737 46.333 12.8294H46.3388Z" fill="white"/>
<path d="M16.9278 19.6089V19.5599L16.9075 19.0351L16.8669 17.821C16.1976 17.821 15.5195 17.8585 14.8763 17.9047C11.77 18.1267 8.73043 18.5045 5.78936 19.0293C4.02471 19.3436 2.29774 19.7127 0.611328 20.1337L0.672178 21.9187C5.16637 20.7999 9.96481 20.0501 14.9371 19.6925C15.5804 19.6464 16.2584 19.6089 16.9278 19.6089Z" fill="#DB3232"/>
<path d="M16.9883 21.3968L17.1708 21.2929L17.1216 20.3788L16.9245 19.6089C16.2552 19.6089 15.5771 19.6464 14.9339 19.6925C9.96158 20.0501 5.16314 20.7998 0.668945 21.9245L0.729795 23.7123C5.22399 22.5906 10.0224 21.838 14.9947 21.4804C15.638 21.4342 16.316 21.3968 16.9854 21.3968H16.9883Z" fill="white"/>
<path d="M40.0594 31.3079C39.8015 31.3396 39.5436 31.3742 39.2857 31.4088C37.5906 31.6367 35.8463 31.8702 34.1193 31.8702C33.7629 31.8702 33.4036 31.8616 33.0472 31.8385C32.6937 31.8154 32.2909 31.7808 32.004 31.6655C31.9635 31.6511 31.9287 31.6338 31.8968 31.6165C31.8852 31.6107 31.8765 31.6049 31.865 31.5992C31.8447 31.5876 31.8244 31.5732 31.8041 31.5617C31.7925 31.553 31.7838 31.5473 31.7751 31.5386C31.7606 31.5271 31.7433 31.5127 31.7317 31.5011C31.723 31.4925 31.7143 31.4838 31.7056 31.4752C31.694 31.4608 31.6824 31.4492 31.6708 31.4348C31.665 31.4262 31.6592 31.4175 31.6534 31.4088C31.6447 31.3944 31.636 31.38 31.6273 31.3627C31.6244 31.3541 31.6187 31.3454 31.6158 31.3396C31.6071 31.3195 31.6013 31.2993 31.5955 31.2791C31.5955 31.2762 31.5955 31.2704 31.5926 31.2676C31.5375 31.0051 31.7433 30.6966 32.0649 30.4342C32.2301 30.2986 32.4126 30.1718 32.6038 30.0506C34.2265 29.0269 36.7358 28.4675 39.3814 27.8821C39.5436 27.8475 39.7088 27.81 39.871 27.7726C41.9776 27.3054 44.1074 26.8008 45.73 26.0222C46.2574 25.7684 46.5761 25.5233 46.6949 25.2897C46.7326 25.2147 46.7529 25.1398 46.75 25.0648C46.75 25.0388 46.7442 25.0129 46.7384 24.9898C46.5732 24.3727 45.0462 24.1564 43.5075 24.1564C38.2455 24.2026 32.6589 25.0331 26.9071 26.622C25.8032 26.9276 24.7079 27.2564 23.6473 27.5736C21.9175 28.0926 20.1296 28.629 18.281 29.0702C15.3254 29.7767 12.5698 30.1343 10.072 30.1372C9.63159 30.1372 9.19695 30.1285 8.771 30.1054C8.45226 30.0881 8.09006 30.0651 7.81189 29.9757C7.76553 29.9613 7.71917 29.9439 7.6786 29.9266C7.66411 29.9209 7.65252 29.9151 7.64093 29.9093C7.61485 29.8978 7.58878 29.8834 7.56849 29.8719C7.55401 29.8632 7.54241 29.8546 7.53082 29.8459C7.51054 29.8344 7.49316 29.82 7.47577 29.8084C7.46418 29.7998 7.45549 29.7882 7.4439 29.7796C7.42941 29.7652 7.41492 29.7536 7.40333 29.7392C7.39464 29.7277 7.38594 29.719 7.37725 29.7075C7.36566 29.6931 7.35697 29.6787 7.34827 29.6642C7.34248 29.6527 7.33668 29.6412 7.33089 29.6325C7.3222 29.6181 7.3164 29.6008 7.3135 29.5864C7.31061 29.5748 7.30481 29.5633 7.30191 29.5518C7.29902 29.5345 7.29612 29.5172 7.29322 29.4999C7.29322 29.4883 7.29032 29.4768 7.29032 29.4681C7.27583 29.2028 7.48156 28.8943 7.78871 28.6348C7.9191 28.5252 8.05819 28.4185 8.20597 28.3147C9.21723 27.5938 10.5849 27.017 12.0946 26.5095C13.271 26.1144 14.5314 25.7598 15.7745 25.4108C17.1944 25.0129 18.6663 24.6005 19.9905 24.1334C20.1731 24.0699 20.3701 23.9921 20.4136 23.8738C20.46 23.7498 20.3122 23.6258 19.9905 23.5134C19.1415 23.225 18.1042 23.1327 17.0437 23.1356C16.3743 23.1356 15.6963 23.1731 15.053 23.2192C10.0807 23.5768 5.28228 24.3266 0.788086 25.4512L0.909786 25.5666C2.8367 25.085 4.82156 24.6784 6.84989 24.3352L6.90494 25.9184C6.89625 25.63 7.11067 25.3041 7.4352 25.0302C7.88433 24.6495 8.42329 24.3093 9.02889 23.9978C11.0109 23.7181 13.0334 23.499 15.082 23.3519C15.5485 23.3173 16.0353 23.2942 16.5192 23.2827C16.2063 23.3721 15.8933 23.4586 15.5804 23.548C12.477 24.416 9.26939 25.3157 7.49316 26.8209C7.16862 27.0949 6.9513 27.4207 6.96289 27.7091L7.02374 29.4653C7.02374 29.4653 7.02374 29.448 7.02374 29.4393C7.02374 29.7046 7.2005 29.9411 7.65542 30.0881C7.98285 30.1948 8.38272 30.2208 8.73333 30.241C9.16797 30.264 9.60841 30.2727 10.0604 30.2727C12.6016 30.2698 15.4007 29.9065 18.3969 29.1884C20.2571 28.7443 22.0536 28.2051 23.7864 27.686C24.8469 27.3688 25.9422 27.0401 27.0404 26.7344C28.4139 26.3538 29.7758 26.0193 31.129 25.728C31.1376 25.728 31.1434 25.7252 31.1521 25.7223C31.1405 25.7742 31.1319 25.8232 31.1348 25.8722L31.1956 27.6572C31.1869 27.3833 31.3955 27.0805 31.7114 26.8238C32.8907 25.8607 34.7973 25.2522 36.8633 24.7447C39.1495 24.4592 41.401 24.3006 43.6177 24.2833C44.0987 24.2833 44.597 24.3093 45.0404 24.3669C43.3829 25.0763 41.2706 25.5492 39.2191 26.0049C36.3505 26.6393 33.3862 27.2967 31.778 28.6088C31.4622 28.8683 31.2536 29.1711 31.2622 29.4422L31.3231 31.1983C31.3231 31.1983 31.3231 31.1782 31.3231 31.1695C31.3173 31.4031 31.4651 31.6136 31.8331 31.7607C32.1721 31.8962 32.6212 31.9394 33.0124 31.9625C33.3804 31.9856 33.7484 31.9942 34.1164 31.9942C35.8781 31.9942 37.6399 31.7578 39.3553 31.5271C39.6132 31.4925 39.8681 31.4579 40.126 31.4262C44.5217 30.8523 49.042 30.5207 53.5652 30.4399V30.3102C49.0188 30.3909 44.4753 30.7254 40.0623 31.3022L40.0594 31.3079Z" fill="#7A0A1D"/>
</g>
<defs>
<clipPath id="clip0_68_7799">
<rect width="53.5652" height="32" fill="white"/>
</clipPath>
</defs>
</svg>
