<?xml version="1.0" standalone="no"?>
<!DOCTYPE svg PUBLIC "-//W3C//DTD SVG 20010904//EN"
 "http://www.w3.org/TR/2001/REC-SVG-20010904/DTD/svg10.dtd">
<svg version="1.0" xmlns="http://www.w3.org/2000/svg"
 width="260.000000pt" height="260.000000pt" viewBox="0 0 260.000000 260.000000"
 preserveAspectRatio="xMidYMid meet">
<metadata>
Created by potrace 1.11, written by Peter Selinger 2001-2013
</metadata>
<g transform="translate(0.000000,260.000000) scale(0.100000,-0.100000)"
fill="#000000" stroke="none">
<path d="M1150 2593 c-390 -59 -695 -241 -912 -545 -94 -130 -190 -352 -213
-488 -3 -19 -10 -60 -15 -90 -13 -79 -4 -352 15 -430 8 -36 18 -75 20 -87 10
-46 58 -170 91 -235 188 -374 544 -635 959 -702 83 -13 315 -15 400 -3 139 21
333 89 455 161 231 135 413 335 527 576 31 66 86 227 98 288 15 73 16 93 19
244 2 120 -2 178 -15 247 -22 110 -48 203 -60 216 -5 5 -9 16 -9 25 -1 23 -81
178 -136 261 -63 96 -249 282 -343 343 -155 101 -316 168 -486 202 -74 15
-335 26 -395 17z"/>
</g>
</svg>
