<svg width="88" height="88" viewBox="0 0 88 88" fill="none" xmlns="http://www.w3.org/2000/svg"><g clip-path="url(#clip0)" fill="#5C6278"><path opacity=".3" fill-rule="evenodd" clip-rule="evenodd" d="M44 3.667a29.334 29.334 0 100 58.667 29.334 29.334 0 000-58.667z"/><path opacity=".3" d="M53.24 40.335H34.65l9.203 23.687 9.35-23.724.037.037zM38.683 70.988L23.907 32.965h40.076L48.95 70.95l-5.133-2.053-5.17 1.98.036.11z"/><path opacity=".3" fill-rule="evenodd" clip-rule="evenodd" d="M36.666 80.667h14.667C51.333 84.7 48.033 88 44 88c-4.07 0-7.334-3.3-7.334-7.333z"/><path fill-rule="evenodd" clip-rule="evenodd" d="M33 73.334a3.654 3.654 0 01-3.666-3.667A3.631 3.631 0 0133 66a3.654 3.654 0 01-3.666-3.666A3.631 3.631 0 0133 58.667h22a3.654 3.654 0 013.667 3.667A3.677 3.677 0 0155 66a3.654 3.654 0 013.667 3.667A3.677 3.677 0 0155 73.334 3.654 3.654 0 0158.667 77 3.677 3.677 0 0155 80.667H33A3.654 3.654 0 0129.334 77 3.631 3.631 0 0133 73.334z"/></g><defs><clipPath id="clip0"><path fill="#fff" d="M0 0h88v88H0z"/></clipPath></defs></svg>