<svg width="91" height="91" viewBox="0 0 91 91" fill="none" xmlns="http://www.w3.org/2000/svg"><path opacity=".3" fill-rule="evenodd" clip-rule="evenodd" d="M7.621 56.875l-.076-.038v17.366a3.803 3.803 0 003.792 3.792c1.024 0 1.972-.418 2.692-1.138l8.721-8.72h45.614c6.294 0 11.375-5.12 11.375-11.376V22.636a11.36 11.36 0 00-11.375-11.375H19.072c-6.256 0-11.375 5.081-11.375 11.375v34.125h.038l-.114.114z" fill="#5C6278"/><path opacity=".3" fill-rule="evenodd" clip-rule="evenodd" d="M62.563 45.5c3.147 0 5.687-2.578 5.687-5.687a5.68 5.68 0 00-5.688-5.688c-3.109 0-5.687 2.54-5.687 5.688 0 3.109 2.578 5.687 5.688 5.687zm-18.959 0c3.147 0 5.688-2.578 5.688-5.687a5.68 5.68 0 00-5.688-5.688c-3.109 0-5.687 2.54-5.687 5.688 0 3.109 2.578 5.687 5.687 5.687zm-18.958 0c3.147 0 5.687-2.578 5.687-5.687a5.68 5.68 0 00-5.687-5.688c-3.11 0-5.688 2.54-5.688 5.688 0 3.109 2.579 5.687 5.688 5.687z" fill="#5C6278"/></svg>