<svg width="24" height="24" viewBox="0 0 24 24" fill="none" xmlns="http://www.w3.org/2000/svg"><path opacity=".3" fill-rule="evenodd" clip-rule="evenodd" d="M21.99 15l.02-.01v4.58c0 .55-.45 1-1 1a1 1 0 01-.71-.3l-2.3-2.3H5.97c-1.66 0-3-1.35-3-3v-9c0-1.66 1.34-3 3-3h13c1.65 0 3 1.34 3 3v9h-.01l.03.03z" fill="#CB2E2D"/><path opacity=".3" fill-rule="evenodd" clip-rule="evenodd" d="M7.5 12c-.83 0-1.5-.68-1.5-1.5C6 9.67 6.67 9 7.5 9c.82 0 1.5.67 1.5 1.5 0 .82-.68 1.5-1.5 1.5zm5 0c-.83 0-1.5-.68-1.5-1.5 0-.83.67-1.5 1.5-1.5.82 0 1.5.67 1.5 1.5 0 .82-.68 1.5-1.5 1.5zm5 0c-.83 0-1.5-.68-1.5-1.5 0-.83.67-1.5 1.5-1.5.82 0 1.5.67 1.5 1.5 0 .82-.68 1.5-1.5 1.5z" fill="#CB2E2D"/></svg>