<svg width="20" height="20" viewBox="0 0 20 20" fill="none" xmlns="http://www.w3.org/2000/svg"><path opacity=".7" d="M16.37 7.907c0 .057-.445 5.674-.698 8.038-.159 1.45-1.094 2.33-2.497 2.356-1.078.024-2.133.032-3.171.032-1.103 0-2.18-.008-3.227-.032-1.356-.033-2.292-.93-2.443-2.356-.26-2.372-.697-7.981-.705-8.038a.662.662 0 01.16-.465.592.592 0 01.435-.195h11.559c.166 0 .317.073.436.195a.623.623 0 01.15.465z" fill="#fff"/><path d="M17.5 4.981c0-.342-.27-.61-.594-.61h-2.43c-.494 0-.924-.352-1.034-.848l-.136-.608a1.654 1.654 0 00-1.585-1.248H8.28c-.746 0-1.397.514-1.595 1.288l-.127.569a1.07 1.07 0 01-1.034.846h-2.43a.602.602 0 00-.595.611v.317c0 .334.27.61.595.61h13.81a.607.607 0 00.595-.61V4.98z" fill="#fff"/></svg>