<svg width="19" height="19" viewBox="0 0 19 19" fill="none" xmlns="http://www.w3.org/2000/svg"><path opacity=".4" d="M16.015 14.706h-5.254c-.336 0-.61.27-.61.604 0 .333.274.603.61.603h5.254c.337 0 .61-.27.61-.604a.607.607 0 00-.61-.603z" fill="#fff"/><path d="M13.358 9.263l-6.022 5.95c-.412.408-.97.638-1.553.638h-2.84a.606.606 0 01-.41-.166.585.585 0 01-.158-.411l.076-2.83a2.14 2.14 0 01.643-1.488l5.991-5.928c.1-.098.26-.098.36 0l3.913 3.88c.1.097.1.257 0 .355z" fill="#fff"/><path opacity=".4" d="M15.473 7.143l-.819.817a.318.318 0 01-.446 0l-3.82-3.778a.31.31 0 010-.441l.81-.809a1.92 1.92 0 012.7-.005l1.57 1.555a1.87 1.87 0 01.005 2.66z" fill="#fff"/></svg>