<svg width="52" height="52" viewBox="0 0 52 52" fill="none" xmlns="http://www.w3.org/2000/svg"><path opacity=".4" d="M25.514 47.315a78.563 78.563 0 01-13.71-10.742 27.448 27.448 0 01-6.567-10.41c-2.465-7.67.404-16.436 8.415-19.038a13.612 13.612 0 0112.363 2.191 13.63 13.63 0 0112.363-2.191c8.01 2.602 10.9 11.368 8.434 19.038a27.452 27.452 0 01-6.528 10.41 79.278 79.278 0 01-13.71 10.742l-.54.352-.52-.352z" fill="#fff"/><path d="M26.024 47.666l-.51-.352a78.696 78.696 0 01-13.73-10.742 27.446 27.446 0 01-6.604-10.41c-2.446-7.67.423-16.435 8.434-19.038a13.642 13.642 0 0112.41 2.215v38.327zM39.5 21.665a1.557 1.557 0 01-1.121-.602 1.773 1.773 0 01-.362-1.281c.047-1.522-.82-2.907-2.155-3.446-.846-.231-1.36-1.148-1.147-2.052.2-.89 1.034-1.443 1.871-1.243a.83.83 0 01.3.113c2.678 1.03 4.411 3.803 4.273 6.835-.004.46-.183.898-.496 1.214a1.534 1.534 0 01-1.163.462z" fill="#fff"/></svg>