<svg width="52" height="52" viewBox="0 0 52 52" fill="none" xmlns="http://www.w3.org/2000/svg"><path d="M40.084 10.833H11.917a3.25 3.25 0 100 6.5h28.167a3.25 3.25 0 000-6.5z" fill="#fff"/><path opacity=".3" fill-rule="evenodd" clip-rule="evenodd" d="M11.917 32.5h28.167a3.26 3.26 0 013.25 3.25c0 1.777-1.474 3.25-3.25 3.25H11.917a3.26 3.26 0 01-3.25-3.25 3.246 3.246 0 013.25-3.25zm0-10.833h28.167a3.26 3.26 0 013.25 3.25c0 1.776-1.474 3.25-3.25 3.25H11.917a3.26 3.26 0 01-3.25-3.25 3.246 3.246 0 013.25-3.25z" fill="#fff"/></svg>