<svg width="22" height="24" viewBox="0 0 22 24" fill="none" xmlns="http://www.w3.org/2000/svg"><path opacity=".3" d="M14.155 17.47a1.362 1.362 0 010-1.953 1.346 1.346 0 011.94 0l5.503 5.503a1.37 1.37 0 010 1.94 1.387 1.387 0 01-1.954 0l-5.502-5.503.013.014z" fill="#000"/><path d="M9.63 16.508a6.88 6.88 0 006.878-6.878A6.872 6.872 0 009.63 2.75a6.863 6.863 0 00-6.88 6.88 6.872 6.872 0 006.879 6.878zm0 2.751c-5.324 0-9.63-4.32-9.63-9.63A9.622 9.622 0 019.63 0c5.31 0 9.629 4.306 9.629 9.63 0 5.31-4.32 9.629-9.63 9.629z" fill="#000"/></svg>