<svg width="19" height="19" viewBox="0 0 19 19" fill="none" xmlns="http://www.w3.org/2000/svg"><path d="M16.963 2.041a1.534 1.534 0 00-1.528-.396L2.697 5.325c-.576.16-.985.617-1.095 1.197-.112.59.28 1.341.794 1.655l3.982 2.432c.409.25.936.187 1.274-.152l4.561-4.56a.582.582 0 01.84 0 .598.598 0 010 .839l-4.57 4.56a1.037 1.037 0 00-.152 1.274l2.433 3.998c.285.474.776.744 1.315.744.063 0 .134 0 .197-.008a1.539 1.539 0 001.29-1.093L17.344 3.57a1.538 1.538 0 00-.38-1.528z" fill="#fff"/><path opacity=".4" fill-rule="evenodd" clip-rule="evenodd" d="M2.384 13.306a.593.593 0 01-.42-1.013l1.08-1.082a.595.595 0 01.84 0 .595.595 0 010 .84l-1.08 1.081a.589.589 0 01-.42.174zm2.977.944a.593.593 0 01-.42-1.013l1.08-1.082a.595.595 0 01.84 0 .595.595 0 010 .84l-1.08 1.081a.589.589 0 01-.42.174zm.2 2.825a.589.589 0 00.84 0l1.081-1.08a.595.595 0 000-.84.595.595 0 00-.84 0l-1.08 1.08a.593.593 0 000 .84z" fill="#fff"/></svg>