<svg width="42" height="42" viewBox="0 0 42 42" fill="none" xmlns="http://www.w3.org/2000/svg"><path d="M26.46 33.267l-12.757-7.35a7.037 7.037 0 001.785-3.115l12.652 7.35a6.793 6.793 0 00-1.715 3.08l.035.035zm-12.897-17.36l12.81-7.56a6.824 6.824 0 001.592 3.22l-12.477 7.578a7.155 7.155 0 00-1.943-3.272l.018.035z" fill="#fff"/><path opacity=".3" fill-rule="evenodd" clip-rule="evenodd" d="M33.25 1.75a5.25 5.25 0 100 10.501 5.25 5.25 0 000-10.501zm0 28a5.25 5.25 0 100 10.5 5.25 5.25 0 000-10.5zm-24.5-14a5.25 5.25 0 100 10.5 5.25 5.25 0 000-10.5z" fill="#fff"/></svg>