<svg version="1" xmlns="http://www.w3.org/2000/svg" width="360" height="360" viewBox="0 0 270.000000 270.000000"><path d="M.3 132.8c.2 109.5.4 132.7 1.5 132.4.8-.1 1.1.2.7.8-.3.6-1.1.7-1.7.4-.6-.4-.8.1-.6 1.2.3 1.6 1.4 1.9 7.6 2.1 3.9.1 7.2-.3 7.2-.8s.5-.9 1.1-.9c.5 0 .8.4.5.8-.2.4.6.8 1.8.8 1.4 0 2.3-.6 2.3-1.5.1-3.7-3.9-5-5.8-2-.5.8-.9 1-.9.5s.8-1.8 1.7-2.8c1.5-1.7 1.5-2.1.3-3-1.2-.8-1.1-.9.3-.4 1.2.4 1.7.2 1.4-.6-.2-.7-1.1-1.3-2-1.3-2.2 0-3.1-1.2-1-1.2 1 0 2.4.5 3.2 1.1 1.1.9 1.3.7.7-1.2-.5-1.4-.3-2.2.4-2.2.6 0 .8.5.5 1-.3.6-.2 1 .4 1 .6 0 .1 1.6-1 3.5-1.6 2.7-1.7 3.4-.6 2.9.8-.3 1.8-.1 2.2.5.3.6 1.1 1.1 1.8 1.1.6 0 .1-.7-1.1-1.6-1.9-1.3-2-1.8-1-3.7.7-1.2 1.1-2.6 1-3-.1-.5.2-.5.8-.2.6.4.9 1.3.6 2.1-.3.8 0 1.1 1 .7 1.1-.4 1.2-.9.5-1.6-1.6-1.6-1.3-3.1.2-1.8.8.6 1.7.8 2 .4 1.1-1.1.8-2-.9-2.7-.8-.3-1.3-.2-1 .2.2.4-.5.9-1.7.9-2.1.2-2.1.1.3-1.7 1.4-1.1 2.9-2 3.3-2 .5 0 .5-.5.2-1-.4-.6-.1-.9.5-.8.7.2 1.4-.5 1.5-1.5.2-1.1.7-2.2 1.1-2.5.4-.4.5 0 .1.9-.3.9 0 2.2.6 2.9.9 1 .9 1.1-.2.5-1-.6-1.2-.4-.7.4.4.7.2 1-.5.9-.6-.2-1.4.4-1.6 1.2-.4 1.3-.3 1.3.6 0 .9-1.3 1.1-1.2 1.1.5.1 1.8.2 1.7 1.1-.4.6-1.4 1.5-2.1 2.4-1.8.9.4 1.2.1.8-.8-.3-.8-.9-1.2-1.4-.9-1.5.9-1-.6.6-2.3 1.2-1.1 1.3-1.9.5-2.8-.8-.9-.8-1.5 0-2 .6-.3.8-1.1.5-1.6-.4-.5-.1-.9.4-.9 1.3 0 1.4 1.3.2 2.6-.6.5-.4 1.4.6 2.3 1.2 1.1 1.4 1 1.1-.5-.2-1.3.3-1.9 1.7-1.9 1.2 0 1.9.6 1.7 1.4-.3 1.2 0 1.2 1.2.1 1.7-1.3 2.2-2.5.7-1.6-.5.3-1.4-.1-2.1-.9-.7-.8-1.6-1.2-2.1-.9-.5.3-.6-.3-.2-1.2.5-1.3.3-1.5-.7-.9-.8.5-1.1.4-.6-.3.4-.6 1.4-.8 2.3-.5 1.2.5 1.4.3.8-.8-.4-.8-.4-1.1 0-.6.5.4 1.9 0 3.1-.8 1.7-1.1 2.5-1.2 3-.3.5.7.3.8-.6.3-.8-.5-1.1-.4-.6.3.6 1-2.1 3.2-3.6 2.9-.3-.1-1 .1-1.4.5-.4.4 1.1.7 3.4.5 2.9-.1 3.8-.5 3.1-1.4-.7-.7-.6-1.4.1-1.8 1.4-.9 3.2.4 2.4 1.8-.4.7-.3.8.1.4 1.2-1 1.6-3.9.5-3.2-.9.6-4-2.1-4-3.5 0-.5.4-1.1.9-1.4.5-.3.8.2.7 1.1 0 1 .7 1.9 1.7 2.1.9.2 1.7-.2 1.7-.8 0-.6-.5-.8-1-.5-.6.3-1 .2-1-.3 0-.6.7-1.2 1.5-1.6.8-.3 1.5-.1 1.5.4s.9.8 1.9.7c1.2-.1 1.7-.6 1.3-1.6-.4-1-.1-1.2.7-.6 1 .6 1.1.3.2-1.2-1.6-3.1.7-4.8 3.3-2.5 1.9 1.5 2 1.6.7 0-1.4-1.9-.6-4.2 1.1-3.2.7.4.8.2.4-.4-1-1.6.6-1.5 2.4.1 1.2 1 1.2.9.2-.4s-.9-1.9.2-2.9c.9-.6 2-.9 2.6-.5.6.4.9.1.8-.6-.2-.7.7-1.8 2-2.4 2.2-1.2 2.2-1.3.3-1.8-1.1-.2-2.2-.2-2.6.1-.3.3-1.6.7-2.8.9-2 .2-2 .2-.4-.8 1-.6 1.4-1.5 1-2.2-.5-.9-.3-.9.8 0 1.3 1 2 1 3.5-.1 2.1-1.6 2.5-3.7.9-4.8-.6-.5-.6-.8.3-.9 2.1-.3 2.6-.4 5-1.7 1.2-.7 1.9-1.8 1.6-2.4-.4-.7-.3-.8.4-.4s1.2.3 1.2-.3c0-.5-.6-1.1-1.2-1.4-.7-.2-.5-.3.5-.2.9.2 1.7-.1 1.7-.6 0-.6.6-.4 1.4.3.8.7 1.2 1.7.9 2.2-.3.4-.9.3-1.3-.4-.5-.8-1-.6-1.5.7-.5 1-.7 2.2-.6 2.6.1.5-.3.6-.8.3-.5-.4-1.2-.2-1.5.3-.4.5-.2 1.2.4 1.6.6.4.7 1.1.4 1.7-.4.7-.2.8.5.4.6-.4.9-1.1.6-1.6-.3-.5.3-1.3 1.2-1.9 1.1-.6 1.3-1.1.5-1.1-.7 0-1.1-.4-.8-.9.4-.5 1.7-.8 3.1-.7 1.3.2 2.2-.1 1.9-.6-.3-.5 0-1.5.6-2.3.7-.8.9-1.5.4-1.5s.2-.7 1.4-1.6c1.2-.8 2.2-2.2 2.2-3.1 0-.9.3-1.3.7-1 .3.4 1.3-.2 2-1.3.8-1.1 1.8-1.8 2.3-1.5.5.3.7-.8.5-2.5-.5-3.5.8-3.9 2.9-.8.9 1.2 1.6 1.7 1.6 1.1 0-.7-.5-1.5-1.1-1.9-.8-.4-.7-.9.2-1.5 2.2-1.3 2.9-1.1 2.3.9-.5 1.4-.4 1.4.4.2 1.7-2.2-.5-4.3-3-2.9-1.1.6-2.2.8-2.5.6-.2-.3.5-.8 1.6-1.2 2-.6 2.4-1.5 1.9-3.3-.2-.4-.7-.6-1.1-.4-.5.1-.6-.2-.2-.8.9-1.4 3.8.9 3.1 2.5-.2.6.5 1.7 1.6 2.4s1.7.8 1.4.3c-.8-1.4 2-3.5 3.6-2.7.7.4.6.1-.3-.7-1.6-1.3-1.5-4.3.2-3.2.5.3 1.2-.2 1.5-1 .3-.9 1.1-1.3 1.8-.9.6.4.4-.2-.4-1.2-1.4-1.7-1.3-1.8.4-1.2 1 .4 2.5.2 3.2-.4.7-.6 1.7-.8 2.2-.5.5.3.9-.1.9-.9 0-.7-.8-1.3-1.8-1.2-1 .1-1.5.5-1.2 1.1.4.5-.1.7-1.1.3-1.2-.5-1.5-.3-1 .6.4.6.3.8-.1.4-1.6-1.4-1.4-3.6.3-3 1.1.3.9-.3-.7-1.6-1.3-1.2-1.9-2.1-1.3-2.1.5 0 1.5.7 2.2 1.5.7.9 2 1.5 2.9 1.3.9-.1 2.1.1 2.8.5.6.4 1.5.2 1.9-.4.4-.7.3-.9-.4-.5-.6.3-1.3.2-1.7-.4-.6-.9.7-1.4 2.8-1.1.4 0 .7-.3.7-.9 0-1.4-1.2-1.2-3.9.7-1.6 1-2.1 1.2-1.6.3.6-1 .4-1.2-.9-.7-1 .4-1.5.3-1.1-.3.4-.6 1.2-1 1.8-.9 2.8.3 3.5-.2 3.1-2.3-.3-1.5-.2-1.8.3-.8.9 1.8 4.3 2.6 4.3 1 0-2 .2-2.5 1.2-3.7.6-.7 1.4-1.1 1.8-.8.4.3 1.1-.2 1.4-1 .4-1.2 1-1.3 2.5-.6 1.4.8 2.2.7 3-.3.8-.9.8-1.6.2-2-.5-.4-1.2-.2-1.6.3-.7 1.2-4.5 1-4.5-.2 0-.4-.5-.5-1.2-.1-.6.4-.8.3-.5-.3.4-.6 1.9-.9 3.4-.7 1.5.1 3.4-.3 4.2-.9 1.2-.9 1.3-.9.7 0-.4.7-.3 1.3.2 1.3 1.9 0 2.1-1.4.5-3.4-1.4-1.5-1.4-1.8-.2-.8.9.6 1.9 1 2.2.7.4-.3.5-.2.2.2-.6.8 1.4 3.3 2.7 3.3.6 0 .4-.8-.3-1.8-1.2-1.5-1.2-1.6.2-.4 1.3 1 1.9.9 2.9-.3.7-.8 1.7-1.5 2.2-1.5.5 0-.3 1-1.7 2.3-1.7 1.4-2.4 2.8-2 3.9.7 1.8 2.1 1.8 5-.1 1.3-.8 1.5-1.1.3-.7-1.9.5-3.3-2-1.6-3 .7-.4.8-.3.4.4-1.1 1.9 1.5 1.4 3.1-.6 1.3-1.5 1.3-1.5.4.5-.7 1.4-.8 2.4-.1 2.8.5.3 1 .1 1-.6s.9-.2 2 1.1 2 2.7 2 3.3c0 .5.8.3 1.8-.4 1.4-1.1 1.5-1.1.5.1-1.7 1.8-1.7 3.3 0 2.3 2.5-1.5 3.7-1.2 2.7.7-1.3 2.4-1.3 3.3 0 2.5 1.6-1 1.2.5-.7 2.3-1.3 1.3-1.6 1.4-1.1.2.4-1-.1-1.5-1.7-1.6-2.2-.2-2.1-.1.6 2.6 1.6 1.5 2.5 3.1 2.1 3.5-.4.5-.2.5.5.1s2.1.2 3.3 1.4c1.1 1.1 2 1.5 2 1v-1.5c0-.3-.3-.5-.6-.4-.8.1-2.4-2.2-2.4-3.4 0-.4 1 .1 2.2 1.2 1.1 1.1 2.5 1.8 3.1 1.4.5-.3.3-.9-.4-1.4-1-.6-1-.9-.2-.9 1.7 0 2.9 2.3 1.5 2.8-1.7.5-1.5 4.2.3 4.2.8 0 1.5-.6 1.5-1.3 0-.9.3-.8.9.2.7 1.1 1 1.1 1.5 0 .3-.8.3-.3-.1 1.1-.5 2.2-.4 2.3 1 1.1 1.4-1.1 1.8-1.1 2.3.3.3.9 1 1.4 1.4 1.1.5-.3 1.2 0 1.6.7.4.7.4 1-.1.6-.4-.4-1.6.3-2.7 1.5s-1.7 1.7-1.4 1c.4-.6-.3-1.4-1.4-1.8-1.1-.4-1.8-1-1.6-1.4.3-.4.1-1.3-.3-1.9-.6-1-1.1-.9-2.1.3-1.1 1.3-1 1.4.4.9.9-.4 1.6-.3 1.5.2-.4 2.1.2 3.5 1.1 2.9 1.4-.9 1.2.8-.2 2.4-1.1 1.1-1 1.2.2.5.8-.5 2.3-.7 3.3-.6.9.2 1.7-.2 1.7-.7 0-.6.5-1.1 1.1-1.1.5 0 .7.5.4 1-.3.6-.2 1 .4 1 .5 0 1.2-.6 1.5-1.3.4-.8.5-.7.5.3-.2 3 .1 4.1 1.1 3.5 1.6-1 1.1.1-.7 1.6-1.4 1.2-1.6 1.2-.8 0 .5-1 .4-1.2-.3-.7-1.9 1.2-1.4 2.9.5 2.1 2.7-1.1 6.3-1.4 6.3-.5 0 .4-.7 1.3-1.5 2-1.3 1.1-1.4 1-.9-.4.8-2.1-1-2.1-2.7.1-.8.9-.9 1.4-.2 1 .6-.4 1.3-.2 1.5.5.3.9 1.5.6 4-.9s3.5-1.7 3.5-.7c0 .7-.4 1.1-.9.8-.4-.3-.7.5-.5 1.7.4 2.2 3.4 4.1 5 3.2.4-.2.7.1.7.7 0 .7-.8.9-2 .5-2.6-.8-2.3 1.2.5 3.8 2 1.8 2 1.8-.5.3-2.8-1.8-4-2-4-.6 0 .6.3.9.7.9 2-.3 3.3.2 3.1 1.2-.3 1.2 2.2 2.1 5.8 2.1 2.9 0 4.9 3.4 3.2 5.6-.8 1-.9 1.3-.1.9 1.1-.7 5.7 4.6 4.8 5.5-.7.7 5 .2 6.2-.5 1.6-1 1 3.2-.7 4.4-1.3.9-1.2 1 .3.5.9-.3 2.3-.9 3.1-1.2 1.1-.4 1.4.3 1.2 3-.3 2.8 0 3.4.9 2.6.9-.8 1.4-.6 1.9.5.3.8.1 1.5-.4 1.5-.6 0-1 .5-1 1.1 0 .8.6.7 1.7-.2 1.5-1.2 1.6-1.2 1.1.2-.4.9-.2 2.1.4 2.7 1.3 1.3 3.8.5 3.4-1.1-.1-.7-.1-.9.1-.4.3.4 1 .4 1.6 0 .8-.5.8-.2 0 .9-.7.8-1 1.8-.6 2.1.3.4 1.2-.1 2-1.1 1.2-1.6 1.3-1.6.6.2-.4 1.4-.3 1.7.6 1.2.8-.5 1.4-.1 1.8 1.3.3 1.1.8 1.9 1.2 1.7.4-.3 1.3.4 2 1.6.7 1.1.8 1.7.2 1.3-1.2-.7-1.5.8-.4 1.9.5.4.8 1.1.8 1.4 0 .4 1 1.7 2.1 2.8 1.2 1.2 2.4 2.8 2.6 3.5.4 1.1 1.3.8 3.9-1 1.9-1.4 2.8-1.8 2.1-.9-.7.9-.9 1.8-.5 2 .4.3.2.3-.5.2-.7-.2-1.5.3-1.8 1.1-.4.8-1.1 1.2-1.7.8-.6-.3-.7-.1-.3.6.6.8 1.2.9 2 .2.7-.6 1.6-.8 1.9-.4.4.3 1.5 0 2.4-.8 1.7-1.3 1.7-1.3 0 .7-.9 1.1-2.4 2.1-3.2 2.2-.8.1-2.2.3-3 .4-.8.1-1.2.4-1 .8.5.8 4.2.6 5.1-.3.4-.4 1.2-.7 1.8-.7.6 0 .5.5-.2 1.2s-1.2 1.7-1.2 2.2c0 .6.4.5.9-.3.7-1.1 1-.9 1.6.8.4 1.3 1.2 2 2 1.7.8-.3 1.9.2 2.5 1 1 1.1.9 1.8-.1 3.1-1.2 1.5-1.2 1.6.1.8.8-.5 2.3-.8 3.3-.7.9.2 1.7-.3 1.7-1 0-.9.3-.9.8-.2.4.6 1.4 1.4 2.2 1.7 1.1.5.9.6-.5.6-3.8-.2-4.4.1-3.9 1.8.5 1.5.3 1.5-1.1-.2l-1.7-2 .4 2c.2 1.2-.2 1.9-.9 1.8-.7-.2-1.3.2-1.3.7 0 1.4 1.3 1.3 2.8-.2.7-.7 1.2-.8 1.2-.2 0 .6-.5 1.5-1.1 2.1-.9.9-.5 1.4 1.5 1.9s3 .2 4.1-1.2c.7-1.1 1.7-1.6 2.1-1.1.4.4.2.7-.5.7s-.9.4-.6 1c.3.5 3.5 1 7 1h6.4l.1-134.9V.2L135.1.1H.1l.2 132.7zM127 148c0 .5-.5 1-1.1 1-.5 0-.7-.5-.4-1 .3-.6.8-1 1.1-1 .2 0 .4.4.4 1zm24 1.6c0 .8-1.9 1.3-2.4.6-.3-.5.1-.9.9-.9s1.5.2 1.5.3zm-27.3 3.4c1.1 0 .7.7-1.1 2.1-1.4 1.1-2.4 2.4-2.1 2.9.3.5.1 1.1-.4 1.5-.6.3-1.5-.3-2.1-1.4-.9-1.7-.8-2 .5-1.5 1 .4 1.5.2 1.3-.7-.2-.8.3-1.3 1-1.1.9.2 1.2-.5.8-2-.3-1.3-.3-1.7 0-1.1.3.7 1.3 1.3 2.1 1.3zm17.6-.6c.4 1 .1 1.3-.9.9-1.5-.6-1.9-2.3-.5-2.3.5 0 1.1.7 1.4 1.4zm-22.9 1.8c-.2.3-1.3.6-2.4.5-2.4-.2-1.8-1.3.9-1.3 1.1 0 1.8.4 1.5.8zM115 158c0 .5-.5 1-1.1 1-.5 0-.7-.5-.4-1 .3-.6.8-1 1.1-1 .2 0 .4.4.4 1zm45.7 5.6c-.3.3-1.2.4-1.9.1-.8-.3-.5-.6.6-.6 1.1-.1 1.7.2 1.3.5zm-3.4 2.5c.4 1.6.3 1.8-.9.8-.7-.6-1.1-1.5-.8-2 .8-1.3 1.1-1.1 1.7 1.2zm-50.3 1.7c0 .4-.5 1.3-1.2 2-.9.9-.9 1.2 0 1.2.6 0 .9.7.6 1.5-.4.8-1 1.3-1.4 1-.4-.2-1.5.4-2.4 1.4-1.2 1.3-1.4 2-.6 2.3.8.2.7.8-.4 1.7-1.5 1.3-1.6 1.2-1.2-1.2.2-1.4.1-2.8-.2-3-.4-.2-.2-.2.5-.1.7.2 1.5-.1 1.8-.6.6-.9-.8-1.4-2.8-1.1-.5.1-.6-.3-.2-.8.3-.6 1.3-.7 2.2-.4 1.2.5 1.4.3.8-.8-.4-.8-.5-1.1 0-.7 1 1 3.7-1.1 2.9-2.3-.3-.5 0-.9.5-.9.6 0 1.1.4 1.1.8zm61.5 1.3c-.4.5-1.2.9-1.8.8-.9 0-.8-.2.1-.6.6-.2.9-1 .6-1.5-.4-.7-.2-.8.5-.4.6.4.9 1.2.6 1.7zm-77.2 17.3c.7-.3-.4 1-2.3 2.9-4.5 4.5-6.5 7-6.5 7.9 0 .5-.4.8-1 .7-.5 0-.9-.7-.7-1.6.2-1-.1-1.2-.9-.7-.8.4-1 .3-.5-.4.4-.6 1.4-.8 2.4-.5 1.4.6 1.5.4.5-.8-.8-1-.9-1.9-.1-2.9.8-1.2.9-1.2.4.2-.3 1-.1 2 .4 2.3 1.2.7 1.9-1.7.9-3.6-.4-.8-.3-2.2.2-3 .8-1.2 1-1.2.8.1-.3 2.8.1 4.1 1 3.6.5-.4.8-1.7.7-3.1-.2-1.3.1-2.2.5-1.9.5.3.9-.1.9-.8 0-.8.5-.6 1.1.5.6.9 1.6 1.5 2.2 1.1zm-14.5 10.1c-.3.3-.9-.2-1.2-1.2-.6-1.4-.5-1.5.5-.6.7.7 1 1.5.7 1.8zm116 1.3c-.2 2.1.3 3.2 1.4 2.6.7-.4.8-.3.4.4-.4.6-1.3.9-2.2.5-.8-.3-1.3-.8-1-1.1.3-.2.1-1.3-.5-2.3-.7-1.5-.6-1.7.5-1.3.9.3 1.5.9 1.4 1.2zm-120.3 4.4c-.9.6-1.9.7-2.2.4-.4-.3-.1-.6.6-.6s.9-.4.6-1c-.4-.6.1-.7 1.1-.3 1.5.6 1.5.7-.1 1.5zm128.3 2.4c-.4.3-1.2-.5-1.8-1.8-1.2-2.2-1.2-2.2.6-.6 1 1 1.5 2 1.2 2.4zm3.2 2.9c0 .7-.6 1.5-1.4 1.8-1.8.7-4.2-1.8-2.6-2.8.5-.3 1 .1 1 1s.5 1.3 1.1 1c.6-.4.8-1.4.5-2.2-.3-.8-.1-1.1.4-.8.6.3 1 1.2 1 2zm-136.2 1c-.2.5-.8 1-1.5 1.1-.6.1-.9-.4-.6-1.2.6-1.6 2.7-1.5 2.1.1zm141.2 1c0 .7-3 1.3-3.4.7-.3-.4.4-.9 1.5-.9 1-.1 1.9 0 1.9.2zm-2.5 2.7c.5-.4.5-.1.1.6-.5.9-1.2.9-2.7.2-1.1-.6-1.6-1.6-1.3-2.2.5-.7 1.1-.6 1.9.5.7.9 1.6 1.3 2 .9zm-148 1.7c.3.5.2 1.2-.3 1.5-.5.3-.9-.1-.9-.9 0-1.7.3-1.9 1.2-.6zm8.5-.5c0 .2-3.5 3-7.7 6.1-9.9 7.4-9.7 7.1-8.2 8 .8.5 1 .4.5-.3-.4-.7-.2-1.2.3-1.2 1.3 0 1.4 1 .2 2.9-.7 1.1-1.1.9-2.1-.9-.9-1.8-.9-2.4 0-3 .7-.4.9-1.3.5-2-.5-.9-.4-1.1.3-.6.7.4 1.2.1 1.2-.6 0-.9.3-.9 1 .2.5.8 1 1.2 1.1.7.1-.4.3-1.2.4-1.7.1-.6.3-1.5.4-2.1 0-.5.6-.7 1.1-.4.6.3 1 .1 1-.5 0-.7.8-.9 2-.5 1.6.5 1.9.3 1.3-1.1-.5-1.3-.3-1.6.9-1.1.9.3 2.4-.1 3.5-.8 1.9-1.5 2.3-1.7 2.3-1.1zm149 5c-2 2-1 2.9 1.2 1 1.9-1.5 2-1.6.9-.2-1 1.3-1 1.8-.2 1.8.7 0 1 .4.6.9-.3.5-.1 1.2.3 1.5.5.3.7 1.7.5 3.1-.3 1.3-.9 2.2-1.4 2-.4-.3-.6-1.2-.3-1.9.3-.8.1-1.7-.5-2-.6-.4-.8-1.3-.4-2.2.3-.8.2-1.4-.3-1.3-2.6.4-3.6-.1-2.5-1.4.6-.8.9-1.6.6-1.9-.3-.2.2-.5 1-.5 1.1 0 1.2.4.5 1.1zm6.5 5.6c.3.5.1 1-.4 1-.6 0-1.1-.5-1.1-1 0-.6.2-1 .4-1 .3 0 .8.4 1.1 1zm-174 4c.3.5.1 1-.4 1-.6 0-1.1-.5-1.1-1 0-.6.2-1 .4-1 .3 0 .8.4 1.1 1zm-6.1 4.2c-.2.3-1.3.6-2.4.5-2.4-.2-1.8-1.3.9-1.3 1.1 0 1.8.4 1.5.8zm190.3 5.1c-.7 1.8.2 2.9 3.5 4.6 2.2 1.1 2.5 1.7 1.7 2.8-.9 1-1.6.8-3.8-1.5-1.5-1.5-2.6-3.4-2.5-4.2.2-.8.3-1.8.3-2.3.1-.4.4-.7.7-.7.3 0 .4.6.1 1.3zm5.8.6c-.3.2-1.6.6-2.8.8-1.5.2-1.8 0-.9-.5 1.4-.9 4.5-1.2 3.7-.3zM31 242c0 .5-.5 1-1.1 1-.5 0-.7-.5-.4-1 .3-.6.8-1 1.1-1 .2 0 .4.4.4 1zm2 2.4c0 .3-.4.8-1 1.1-.5.3-1 .1-1-.4 0-.6.5-1.1 1-1.1.6 0 1 .2 1 .4zm212.2 6.8c-.4 1.6-.2 2 1 1.6.8-.4 2.1-.2 2.9.4 1.1.8 1 .9-.4.4-1.2-.4-1.7-.2-1.4.6.2.7 1.3 1.2 2.3 1 1.4-.2 1.6-.1.6.6-1.1.8-1.1 1 .2 1.5.8.3 1.7.1 2-.6.3-.8.5-.8.5-.1.1.6-.7 1.8-1.6 2.5-1 .7-1.5.9-1.1.5.8-.9-2.8-4-4.7-4.1-.5-.1-.9-.6-.7-1.3.1-.7-.2-1.2-.8-1.2-1.2 0-.9-2.2.5-3.2 1.4-1.1 1.4-1.1.7 1.4zm-225.1 2.1c-1 .9-1.1.8-.5-.6.3-1 .9-1.5 1.2-1.2.3.3 0 1.1-.7 1.8zm-8.7 8.5c.3.5-.1.9-.9.9s-1.2-.4-.9-.9c.3-.4.7-.8.9-.8.2 0 .6.4.9.8zm257.2.4c.3.4-.1.5-1 .4-.8-.1-1.8-.5-2.2-.8-.3-.4.1-.5 1-.4.8.1 1.8.5 2.2.8zm-14.4 2c-1.8 1.8-1.4 3.2.5 1.7 1.5-1.3 1.5-1.2.2.8-.9 1.6-1.6 1.9-2.1 1-.6-.9-.8-.8-.8.2 0 .8-.2 1.2-.5.9-.8-.8 1.7-5.8 2.9-5.8.6 0 .5.5-.2 1.2zM12.4 267c-.6.6-1 .3-1-1s.4-1.6 1-1c.7.7.7 1.3 0 2zm7 1c-.8.8-1.5.6-2.5-.6-.9-1.2-1-1.5-.1-1 .7.4 1.2.2 1.2-.5 0-1 .3-1 1.2-.1.8.8.9 1.5.2 2.2zm-13-.2c.3.5-.1.9-.9.9s-1.2-.4-.9-.9c.3-.4.7-.8.9-.8.2 0 .6.4.9.8zm256 0c.3.5-.1.9-.9.9s-1.2-.4-.9-.9c.3-.4.7-.8.9-.8.2 0 .6.4.9.8zm4.6.2c0 .5-.5 1-1.1 1-.5 0-.7-.5-.4-1 .3-.6.8-1 1.1-1 .2 0 .4.4.4 1z"/><path d="M88.4 186.8c.3.5 0 1.3-.6 1.5-.9.4-1 .6-.1.6 1.7.1 2.5-1.6 1.2-2.5-.7-.4-.9-.3-.5.4zm-31.8 32.7c-1.1.8-1.5 1.5-.9 1.5s1.6-.7 2.3-1.5c1.6-1.9 1.1-1.9-1.4 0zm179 23.8c.3 1 .9 1.5 1.2 1.2.3-.3 0-1.1-.7-1.8-1-.9-1.1-.8-.5.6zm-101.7-93.2c-.8 4.1-.8 5.2 0 4 .7-1.1.9-1.1 1.3 0 .3 1 .6.9 1.1-.3.3-.9-.1-2.2-.9-2.8-.8-.7-1.4-1.1-1.5-.9zm10.1 4.4c-.7.9-.6 1.4.4 1.8 1.1.4 1.3.1 1-1.1-.4-1 .2-.7 1.5.8 1.1 1.4 2.1 3.1 2.1 3.9 0 .7.6 1.1 1.5.8.8-.4 1.7-.1 2.1.5.4.7.9.6 1.5-.3 1.3-2.1 1.1-3.3-.5-2-1.1.9-1.8.5-3.4-2.2-2-3.5-4.5-4.3-6.2-2.2zm5 1.5c.6 1.1.8 2 .6 2-.3 0-1-.9-1.6-2-.6-1.1-.8-2-.6-2 .3 0 1 .9 1.6 2zm-12-1.1c0 .6.4 1.3 1 1.6.6.3.7-.1.4-.9-.7-1.8-1.4-2.1-1.4-.7zm-14 3.2c0 .5.5.7 1 .4.6-.3 1-.8 1-1.1 0-.2-.4-.4-1-.4-.5 0-1 .5-1 1.1zm28.6 9.2c.3 1 .9 1.5 1.2 1.2.3-.3 0-1.1-.7-1.8-1-.9-1.1-.8-.5.6zM113 172c0 .5.5 1 1.1 1 .5 0 .7-.5.4-1-.3-.6-.8-1-1.1-1-.2 0-.4.4-.4 1zm48.6 2.3c.3 1 .9 1.5 1.2 1.2.3-.3 0-1.1-.7-1.8-1-.9-1.1-.8-.5.6zm7.9.7c-.4.7-.2 1.6.6 2.1 1.8 1.1 2.3.4 1.1-1.7-.7-1.2-1.1-1.3-1.7-.4zm-6.5 2.4c0 .2.7.7 1.6 1 .8.3 1.2.2.9-.4-.6-1-2.5-1.4-2.5-.6zm8.9 4.7c-.9.5-1 .9-.2.9.6 0 1.4.8 1.6 1.7.4 1.7.5 1.7.6 0 0-1 .6-1.5 1.1-1.2.6.3 1 .2 1-.3 0-1.5-2.5-2.1-4.1-1.1zm-2.8 1.5c0 1.1.3 1.4.6.6.3-.7.2-1.6-.1-1.9-.3-.4-.6.2-.5 1.3zm-75 4c0 1.1.3 1.4.6.6.3-.7.2-1.6-.1-1.9-.3-.4-.6.2-.5 1.3zm88 2.8c-1 1.2-.8 1.3.8.9 1.2-.3 1.8-.9 1.5-1.4-.7-1.2-1-1.1-2.3.5zm.6 2.3c-.4.3-.7 1.1-.7 1.7 0 .6.4.4 1-.4.5-.8 1.2-1.1 1.6-.7.4.3.1 1.5-.7 2.4-1.2 1.6-1.2 1.7.2.6.9-.7 1.9-.9 2.4-.5.4.4.2-.3-.4-1.6-1.2-2.2-2.2-2.7-3.4-1.5zM87 195.4c0 .2.7.7 1.6 1 .8.3 1.2.2.9-.4-.6-1-2.5-1.4-2.5-.6zm-2.4 4.8c.3.5 1 .6 1.5.3 1.3-.9 1.1-1.2-.6-1.2-.8 0-1.2.4-.9.9zm110.1 3.5c-1 1.6 1.1 3.9 2.3 2.7.8-.8.7-1.4-.4-2.3-.8-.7-1.7-.8-1.9-.4zm-124.1 3.6c.2 1.1.8 2.5 1.4 3.1.8.8.9.6.4-.8-.5-1.3-.4-1.7.3-1.3.7.4 1 0 .9-1-.2-.9-1-1.7-1.9-1.9-1.1-.1-1.4.4-1.1 1.9zm118.9-1.3c-.2.3.5.7 1.6.7 1 .1 1.9-.2 1.9-.6 0-.9-2.9-1-3.5-.1zm8 5.1c-.4.6-.5 1.2-.2 1.5.2.3.7-.2 1-1.1.7-1.7.1-2-.8-.4zm6 4.9c-.3.5-.1 1 .4 1 .6 0 1.1-.5 1.1-1 0-.6-.2-1-.4-1-.3 0-.8.4-1.1 1zm3 0c-.3.5.1 1 .9 1 .9 0 1.6-.5 1.6-1 0-.6-.4-1-.9-1-.6 0-1.3.4-1.6 1zM67 218.1c0 .5.5.7 1 .4.6-.3 1-.8 1-1.1 0-.2-.4-.4-1-.4-.5 0-1 .5-1 1.1zm138 .8c0 .6.4 1.3 1 1.6.6.3.7-.1.4-.9-.7-1.8-1.4-2.1-1.4-.7zm5 .6c-.9 1.1-.9 1.5-.1 1.5.7 0 .9.5.5 1.2s-.3 1 .1.5c.8-.6 1.6-4.7 1-4.7-.2 0-.8.7-1.5 1.5zm-146.5.5c.3.5.8 1 1.1 1 .2 0 .4-.5.4-1 0-.6-.5-1-1.1-1-.5 0-.7.4-.4 1zm-8.5 5.9c0 .6.4 1.3 1 1.6.6.3.7-.1.4-.9-.7-1.8-1.4-2.1-1.4-.7zm164.9 4.5c-.1.3-.2.9-.3 1.3-.1.5-.4 1.3-.8 1.8-.4.6.2 1.1 1.2 1.1 1.2 0 1.6-.5 1.2-1.6-.5-1.2-.3-1.3.9-.3.8.6 1.7 1.2 2.2 1.2.4.1 1 .1 1.5.2.4 0-.2.5-1.3 1-1.9.9-1.8.9.3.5 1.5-.3 2.2.1 2.2 1.2 0 1.5.2 1.5 1 .2.6-1 .5-1.7-.5-2.3-.8-.4-1.5-1.4-1.5-2.2 0-.7-.8-1.2-1.7-1-1 .1-2.4-.2-3-.8-.7-.5-1.4-.7-1.4-.3zm7.1 9.6c0 .5.5 1 1 1 .6 0 1-.5 1-1 0-.6-.4-1-1-1-.5 0-1 .4-1 1zm-193 6.5c0 .5.5 1.7 1 2.5s1 1 1 .5c0-.6-.5-1.7-1-2.5s-1-1.1-1-.5zM21.5 262c.3.5.8 1 1.1 1 .2 0 .4-.5.4-1 0-.6-.5-1-1.1-1-.5 0-.7.4-.4 1z"/></svg>