<svg width="80" height="80" viewBox="0 0 80 80" fill="none" xmlns="http://www.w3.org/2000/svg"><rect width="80" height="80" rx="17" fill="#F9F9FA"/><mask id="a" maskUnits="userSpaceOnUse" x="0" y="0" width="80" height="80"><rect width="80" height="80" rx="17" fill="#F9F9FA"/></mask><g mask="url(#a)"><path transform="rotate(-35.623 -40 53.567)" fill="url(#paint0_linear)" d="M-40 53.567h64.5v123.216H-40z"/><path transform="rotate(45 66.654 -61)" fill="url(#paint1_linear)" d="M66.654-61h95.98v198.915h-95.98z"/><path transform="rotate(75 85.138 12)" fill="url(#paint2_linear)" d="M85.138 12h95.98v198.915h-95.98z"/></g><path d="M64 25c-1.103 0-2 .897-2 2s.897 2 2 2 2-.897 2-2-.897-2-2-2zM8.5 36c-.827 0-1.5.673-1.5 1.5S7.673 39 8.5 39s1.5-.673 1.5-1.5S9.327 36 8.5 36z" fill="#fff"/><path d="M21 59c-1.103 0-2 .897-2 2s.897 2 2 2 2-.897 2-2-.897-2-2-2z" fill="#fff" fill-opacity=".5"/><path d="M47.25 15v12.5h12.5L47.25 15z" fill="#fff"/><path d="M47.25 30.625a3.13 3.13 0 01-3.125-3.125V15h-18.75a3.13 3.13 0 00-3.125 3.125v43.75A3.128 3.128 0 0025.375 65h31.25c1.725 0 3.125-1.4 3.125-3.125v-31.25h-12.5zM34.75 58.75H28.5v-9.375h6.25v9.375zm9.375 0h-6.25V43.125h6.25V58.75zm9.375 0h-6.25V36.875h6.25V58.75z" fill="#fff"/><defs><linearGradient id="paint0_linear" x1="-7.75" y1="53.567" x2="-7.75" y2="176.783" gradientUnits="userSpaceOnUse"><stop stop-color="#3899FF"/><stop offset="1" stop-color="#D2E8FF" stop-opacity="0"/></linearGradient><linearGradient id="paint1_linear" x1="114.645" y1="-61" x2="114.645" y2="137.915" gradientUnits="userSpaceOnUse"><stop stop-color="#3899FF"/><stop offset="1" stop-color="#D2E8FF" stop-opacity="0"/></linearGradient><linearGradient id="paint2_linear" x1="133.128" y1="12" x2="133.128" y2="210.915" gradientUnits="userSpaceOnUse"><stop stop-color="#3899FF"/><stop offset="1" stop-color="#D2E8FF" stop-opacity="0"/></linearGradient></defs></svg>