<svg width="80" height="80" viewBox="0 0 80 80" fill="none" xmlns="http://www.w3.org/2000/svg"><rect width="80" height="80" rx="17" fill="#F9F9FA"/><mask id="a" maskUnits="userSpaceOnUse" x="0" y="0" width="80" height="80"><rect width="80" height="80" rx="17" fill="#F9F9FA"/></mask><g mask="url(#a)"><path transform="rotate(-35.623 -40 53.567)" fill="url(#paint0_linear)" d="M-40 53.567h64.5v123.216H-40z"/><path transform="rotate(-32.904 -36 .14)" fill="url(#paint1_linear)" d="M-36 .14h95.98v198.915H-36z"/><path transform="rotate(75 139.909 15.165)" fill="url(#paint2_linear)" d="M139.909 15.165h95.98V214.08h-95.98z"/></g><path d="M64 25c-1.103 0-2 .897-2 2s.897 2 2 2 2-.897 2-2-.897-2-2-2zM8.5 36c-.827 0-1.5.673-1.5 1.5S7.673 39 8.5 39s1.5-.673 1.5-1.5S9.327 36 8.5 36z" fill="#fff"/><path d="M21 59c-1.103 0-2 .897-2 2s.897 2 2 2 2-.897 2-2-.897-2-2-2z" fill="#fff" fill-opacity=".5"/><path d="M58.722 41.705H57.21c-.409 0-.886-.37-1.04-.808-.145-.406-.314-.81-.503-1.201-.202-.416-.128-1.012.161-1.3l1.076-1.077a1.934 1.934 0 000-2.732l-1.746-1.746a1.92 1.92 0 00-1.366-.566c-.516 0-1.002.201-1.367.566l-1.075 1.076c-.173.172-.46.275-.769.275-.193 0-.377-.04-.531-.114-.392-.19-.797-.359-1.203-.503-.438-.156-.808-.633-.808-1.041v-1.511a1.935 1.935 0 00-1.933-1.932h-2.469a1.935 1.935 0 00-1.932 1.932v1.51c0 .41-.37.886-.808 1.042-.406.144-.81.313-1.202.502-.152.073-.34.114-.53.114-.31 0-.598-.104-.771-.277l-1.074-1.073a1.92 1.92 0 00-1.367-.566 1.92 1.92 0 00-1.366.566l-1.748 1.746a1.92 1.92 0 00-.566 1.366c0 .516.201 1.002.566 1.367l1.076 1.075c.289.29.363.885.162 1.302-.189.39-.358.794-.502 1.2-.156.438-.632.808-1.04.808h-1.511a1.935 1.935 0 00-1.933 1.933v2.469c0 1.065.867 1.932 1.933 1.932h1.51c.41 0 .886.37 1.041.808.144.405.313.809.502 1.2.202.416.127 1.013-.162 1.302l-1.076 1.075a1.935 1.935 0 000 2.733l1.748 1.748c.365.365.85.566 1.367.566.516 0 1.001-.2 1.366-.566l1.076-1.075c.172-.173.46-.276.77-.276.193 0 .377.039.53.113.392.19.796.358 1.201.503.438.155.808.632.808 1.04v1.511c0 1.066.867 1.933 1.933 1.933h2.469a1.935 1.935 0 001.932-1.933v-1.51c0-.41.37-.886.808-1.041a12.45 12.45 0 001.202-.502 1.24 1.24 0 01.53-.114c.31 0 .598.103.771.276l1.076 1.076c.365.365.85.566 1.366.566a1.92 1.92 0 001.367-.567l1.746-1.747a1.936 1.936 0 000-2.733L55.83 51.35c-.289-.29-.363-.885-.162-1.302.19-.39.358-.795.502-1.2.155-.439.632-.808 1.04-.808h1.511a1.935 1.935 0 001.933-1.933v-2.469a1.936 1.936 0 00-1.933-1.933zm-8.186 3.167a5.67 5.67 0 01-5.663 5.663 5.67 5.67 0 01-5.663-5.663 5.67 5.67 0 015.663-5.663 5.67 5.67 0 015.663 5.663zM33.164 29.307c.037-.102.16-.19.217-.19h.756a1.29 1.29 0 001.289-1.288v-1.234a1.29 1.29 0 00-1.289-1.288h-.756c-.058 0-.18-.087-.216-.19a6.256 6.256 0 00-.265-.633c-.047-.097-.022-.242.018-.282l.538-.538a1.29 1.29 0 000-1.822l-.873-.873a1.28 1.28 0 00-.91-.377 1.28 1.28 0 00-.912.378l-.537.537c-.017.017-.075.044-.157.044a.298.298 0 01-.125-.025c-.207-.1-.42-.19-.634-.265-.103-.036-.19-.159-.19-.216v-.757A1.29 1.29 0 0027.83 19h-1.234a1.29 1.29 0 00-1.289 1.288v.757c0 .057-.086.18-.19.216a6.263 6.263 0 00-.633.265.301.301 0 01-.125.025c-.083 0-.14-.027-.157-.044l-.538-.538a1.28 1.28 0 00-.91-.377 1.28 1.28 0 00-.911.378l-.873.872a1.29 1.29 0 000 1.822l.537.538c.04.04.066.186.02.282-.1.206-.19.42-.266.633-.036.103-.159.19-.216.19h-.757A1.29 1.29 0 0019 26.595v1.235c0 .71.578 1.288 1.288 1.288h.757c.057 0 .18.087.216.19.076.214.165.427.265.633.047.096.022.242-.018.282l-.538.538a1.28 1.28 0 00-.378.911c0 .344.134.668.378.911l.873.873c.243.243.566.377.91.377.345 0 .668-.134.911-.377l.538-.538c.017-.017.074-.044.157-.044.047 0 .093.01.125.025.207.1.42.189.634.265.103.036.19.159.19.216v.757c0 .71.577 1.288 1.288 1.288h1.234a1.29 1.29 0 001.289-1.288v-.757c0-.057.086-.18.19-.216.213-.076.426-.165.632-.265a.298.298 0 01.126-.025c.082 0 .14.027.157.044l.538.538c.243.243.566.377.91.377.345 0 .668-.134.911-.377l.873-.873a1.29 1.29 0 000-1.822l-.538-.537c-.04-.04-.065-.186-.018-.282.1-.208.189-.42.264-.635zm-3.442-2.095a2.512 2.512 0 01-2.509 2.51 2.512 2.512 0 01-2.51-2.51 2.512 2.512 0 012.51-2.51 2.512 2.512 0 012.51 2.51z" fill="#fff"/><defs><linearGradient id="paint0_linear" x1="-7.75" y1="53.567" x2="-7.75" y2="176.783" gradientUnits="userSpaceOnUse"><stop stop-color="#3899FF"/><stop offset="1" stop-color="#D2E8FF" stop-opacity="0"/></linearGradient><linearGradient id="paint1_linear" x1="11.99" y1=".14" x2="11.99" y2="199.055" gradientUnits="userSpaceOnUse"><stop stop-color="#3899FF"/><stop offset="1" stop-color="#D2E8FF" stop-opacity="0"/></linearGradient><linearGradient id="paint2_linear" x1="187.899" y1="15.165" x2="187.899" y2="214.08" gradientUnits="userSpaceOnUse"><stop stop-color="#3899FF"/><stop offset="1" stop-color="#D2E8FF" stop-opacity="0"/></linearGradient></defs></svg>