<svg width="80" height="80" viewBox="0 0 80 80" fill="none" xmlns="http://www.w3.org/2000/svg"><rect width="80" height="80" rx="17" fill="#F9F9FA"/><mask id="a" maskUnits="userSpaceOnUse" x="0" y="0" width="80" height="80"><rect width="80" height="80" rx="17" fill="#F9F9FA"/></mask><g mask="url(#a)"><path transform="rotate(-35.623 -22 51.567)" fill="url(#paint0_linear)" d="M-22 51.567h64.5v123.216H-22z"/><path transform="rotate(-32.904 -25 -26.86)" fill="url(#paint1_linear)" d="M-25-26.86h95.98v198.915H-25z"/><path transform="rotate(45 55.654 -78)" fill="url(#paint2_linear)" d="M55.654-78h95.98v198.915h-95.98z"/></g><path d="M30 66c-1.103 0-2 .897-2 2s.897 2 2 2 2-.897 2-2-.897-2-2-2zm41.5-32c-.827 0-1.5.673-1.5 1.5s.673 1.5 1.5 1.5 1.5-.673 1.5-1.5-.673-1.5-1.5-1.5z" fill="#fff"/><path d="M14 16c-1.103 0-2 .897-2 2s.897 2 2 2 2-.897 2-2-.897-2-2-2z" fill="#fff" fill-opacity=".5"/><path d="M46.67 28.024A16.12 16.12 0 0032.201 19c-8.933 0-16.2 7.226-16.2 16.108 0 2.414.518 4.728 1.54 6.885l-1.514 7.572a1.381 1.381 0 001.622 1.625l7.666-1.515c1.032.49 2.1.862 3.197 1.118-2.46-11.648 6.37-22.58 18.158-22.768z" fill="#fff"/><path d="M61.588 53.775a16.07 16.07 0 00.691-1.704h-.05c3.447-10.118-3.802-20.751-14.504-21.27-9.208-.425-16.859 6.947-16.859 16.09 0 8.874 7.213 16.095 16.085 16.107a15.933 15.933 0 006.864-1.541c8.395 1.66 7.74 1.542 7.933 1.542.873 0 1.525-.8 1.354-1.652l-1.514-7.572z" fill="#fff"/><defs><linearGradient id="paint0_linear" x1="10.25" y1="51.567" x2="10.25" y2="174.783" gradientUnits="userSpaceOnUse"><stop stop-color="#3899FF"/><stop offset="1" stop-color="#D2E8FF" stop-opacity="0"/></linearGradient><linearGradient id="paint1_linear" x1="22.99" y1="-26.86" x2="22.99" y2="172.055" gradientUnits="userSpaceOnUse"><stop stop-color="#3899FF"/><stop offset="1" stop-color="#D2E8FF" stop-opacity="0"/></linearGradient><linearGradient id="paint2_linear" x1="103.645" y1="-78" x2="103.645" y2="120.915" gradientUnits="userSpaceOnUse"><stop stop-color="#3899FF"/><stop offset="1" stop-color="#D2E8FF" stop-opacity="0"/></linearGradient></defs></svg>