<svg width="80" height="80" viewBox="0 0 80 80" fill="none" xmlns="http://www.w3.org/2000/svg"><rect width="80" height="80" rx="17" fill="#F9F9FA"/><mask id="a" maskUnits="userSpaceOnUse" x="0" y="0" width="80" height="80"><rect width="80" height="80" rx="17" fill="#F9F9FA"/></mask><g mask="url(#a)"><path transform="rotate(-35.623 -40 69.567)" fill="url(#paint0_linear)" d="M-40 69.567h64.5v123.216H-40z"/><path transform="rotate(-32.904 -21 11.14)" fill="url(#paint1_linear)" d="M-21 11.14h95.98v198.915H-21z"/><path transform="rotate(45 92.654 -17)" fill="url(#paint2_linear)" d="M92.654-17h95.98v198.915h-95.98z"/></g><path d="M68 20c-1.103 0-2 .897-2 2s.897 2 2 2 2-.897 2-2-.897-2-2-2zM11.5 46c-.827 0-1.5.673-1.5 1.5s.673 1.5 1.5 1.5 1.5-.673 1.5-1.5-.673-1.5-1.5-1.5z" fill="#fff"/><path d="M26 12c-1.103 0-2 .897-2 2s.897 2 2 2 2-.897 2-2-.897-2-2-2z" fill="#fff" fill-opacity=".5"/><path d="M61.066 44.773a2.88 2.88 0 00-2.87-2.87 2.88 2.88 0 002.87-2.872 2.88 2.88 0 00-2.87-2.87H46.423c1.751-5.255 1.723-6.93 1.723-10.145 0-2.39-1.96-4.307-4.307-4.307h-.862c-.545 0-1.234.43-1.378 1.091-1.42 5.53-3.64 11.875-9.245 13.16v20.774l4.967 1.648c1.465.488 2.986.747 4.537.747h13.465a2.871 2.871 0 100-5.742h2.871a2.88 2.88 0 002.871-2.871 2.88 2.88 0 00-2.87-2.871 2.88 2.88 0 002.87-2.872zM25.178 33.29h-5.742c-.794 0-1.436.641-1.436 1.435v25.84c0 .793.642 1.435 1.436 1.435h5.742a4.311 4.311 0 004.306-4.307V37.596a4.311 4.311 0 00-4.306-4.307zm0 22.968a1.436 1.436 0 110-2.871 1.436 1.436 0 010 2.87zM37.749 19.33l-2.03-2.03a1.435 1.435 0 10-2.03 2.03l2.03 2.03a1.435 1.435 0 102.03-2.03zM53.99 17.3a1.435 1.435 0 00-2.029 0l-2.03 2.03a1.435 1.435 0 102.03 2.03l2.03-2.03c.56-.56.56-1.47 0-2.03zM43.84 13c-.804 0-1.436.632-1.436 1.435v2.967c0 .804.632 1.436 1.436 1.436.804 0 1.435-.632 1.435-1.436v-2.967c0-.803-.631-1.435-1.435-1.435z" fill="#fff"/><defs><linearGradient id="paint0_linear" x1="-7.75" y1="69.567" x2="-7.75" y2="192.783" gradientUnits="userSpaceOnUse"><stop stop-color="#3899FF"/><stop offset="1" stop-color="#D2E8FF" stop-opacity="0"/></linearGradient><linearGradient id="paint1_linear" x1="26.99" y1="11.14" x2="26.99" y2="210.055" gradientUnits="userSpaceOnUse"><stop stop-color="#3899FF"/><stop offset="1" stop-color="#D2E8FF" stop-opacity="0"/></linearGradient><linearGradient id="paint2_linear" x1="140.645" y1="-17" x2="140.645" y2="181.915" gradientUnits="userSpaceOnUse"><stop stop-color="#3899FF"/><stop offset="1" stop-color="#D2E8FF" stop-opacity="0"/></linearGradient></defs></svg>