<svg width="80" height="80" viewBox="0 0 80 80" fill="none" xmlns="http://www.w3.org/2000/svg"><rect width="80" height="80" rx="17" fill="#F9F9FA"/><mask id="a" maskUnits="userSpaceOnUse" x="0" y="0" width="80" height="80"><rect width="80" height="80" rx="17" fill="#F9F9FA"/></mask><g mask="url(#a)"><path transform="rotate(-35.623 -40 69.567)" fill="url(#paint0_linear)" d="M-40 69.567h64.5v123.216H-40z"/><path transform="rotate(45 -11.345 -61)" fill="url(#paint1_linear)" d="M-11.345-61h95.98v198.915h-95.98z"/><path transform="rotate(45 60.654 -20)" fill="url(#paint2_linear)" d="M60.654-20h95.98v198.915h-95.98z"/></g><path d="M40.5 23c-4.687 0-8.5 3.813-8.5 8.5 0 4.687 3.813 8.5 8.5 8.5 4.687 0 8.5-3.813 8.5-8.5 0-4.687-3.813-8.5-8.5-8.5zM63 26c-1.103 0-2 .897-2 2s.897 2 2 2 2-.897 2-2-.897-2-2-2zM19.5 42c-.827 0-1.5.673-1.5 1.5s.673 1.5 1.5 1.5 1.5-.673 1.5-1.5-.673-1.5-1.5-1.5z" fill="#fff"/><path d="M26 12c-1.103 0-2 .897-2 2s.897 2 2 2 2-.897 2-2-.897-2-2-2z" fill="#fff" fill-opacity=".5"/><path d="M52.638 47.885c-2.67-2.712-6.212-4.205-9.97-4.205h-4.336c-3.758 0-7.3 1.493-9.97 4.205a14.218 14.218 0 00-4.122 10.031c0 .599.486 1.084 1.084 1.084h30.352c.598 0 1.084-.485 1.084-1.084 0-3.77-1.464-7.332-4.122-10.03z" fill="url(#paint3_linear)"/><defs><linearGradient id="paint0_linear" x1="-7.75" y1="69.567" x2="-7.75" y2="192.783" gradientUnits="userSpaceOnUse"><stop stop-color="#3899FF"/><stop offset="1" stop-color="#D2E8FF" stop-opacity="0"/></linearGradient><linearGradient id="paint1_linear" x1="36.645" y1="-61" x2="36.645" y2="137.915" gradientUnits="userSpaceOnUse"><stop stop-color="#3899FF"/><stop offset="1" stop-color="#D2E8FF" stop-opacity="0"/></linearGradient><linearGradient id="paint2_linear" x1="108.645" y1="-20" x2="108.645" y2="178.915" gradientUnits="userSpaceOnUse"><stop stop-color="#3899FF"/><stop offset="1" stop-color="#D2E8FF" stop-opacity="0"/></linearGradient><linearGradient id="paint3_linear" x1="38.5" y1="44" x2="75.032" y2="35.784" gradientUnits="userSpaceOnUse"><stop stop-color="#fff"/><stop offset="1" stop-color="#fff"/></linearGradient></defs></svg>