<svg width="178" height="33" viewBox="0 0 178 33" fill="none" xmlns="http://www.w3.org/2000/svg"><path d="M41.775 25.785V6.947h3.341v16.015h7.835v2.823H41.775zm19.853.345a7.536 7.536 0 01-2.736-.489 6.68 6.68 0 01-2.218-1.469c-.634-.634-1.133-1.402-1.498-2.304-.345-.922-.518-1.969-.518-3.14 0-1.152.182-2.19.547-3.111.365-.922.845-1.7 1.44-2.333a6.606 6.606 0 012.103-1.47 5.962 5.962 0 012.42-.518c.96 0 1.805.164 2.534.49.73.326 1.335.787 1.815 1.383.5.595.874 1.305 1.123 2.131.25.826.375 1.728.375 2.708 0 .326-.02.634-.058.922a4.789 4.789 0 01-.086.69h-8.987c.154 1.268.595 2.248 1.325 2.939.749.672 1.7 1.008 2.851 1.008.615 0 1.181-.086 1.7-.26a8.06 8.06 0 001.584-.777l1.124 2.074a10.15 10.15 0 01-2.247 1.095 7.816 7.816 0 01-2.593.432zm-3.773-8.756h6.28c0-1.095-.24-1.949-.72-2.563-.462-.634-1.182-.951-2.161-.951-.845 0-1.584.298-2.218.893-.634.595-1.027 1.469-1.181 2.621zm15.414 8.756c-1.248 0-2.257-.374-3.025-1.123-.768-.768-1.152-1.776-1.152-3.024 0-.75.154-1.412.461-1.988.326-.595.826-1.104 1.498-1.526.691-.423 1.555-.778 2.592-1.066 1.056-.288 2.314-.509 3.774-.663a4.503 4.503 0 00-.173-1.037 2.043 2.043 0 00-.432-.893 1.75 1.75 0 00-.778-.604c-.326-.154-.73-.23-1.21-.23a5.48 5.48 0 00-2.045.402 14.02 14.02 0 00-1.93.98l-1.21-2.218c.788-.5 1.671-.931 2.65-1.296a9.003 9.003 0 013.169-.548c1.767 0 3.082.528 3.946 1.585.884 1.037 1.325 2.544 1.325 4.522v8.382h-2.736l-.23-1.555h-.116a10.21 10.21 0 01-2.045 1.353 5.033 5.033 0 01-2.333.548zm1.066-2.592a3.03 3.03 0 001.555-.403c.48-.269.99-.653 1.527-1.152v-3.169c-.96.116-1.767.27-2.42.461-.653.192-1.18.413-1.584.663-.403.23-.691.499-.864.806a1.97 1.97 0 00-.26.98c0 .633.193 1.094.577 1.382.384.288.873.432 1.469.432zM88.64 26.13a8.13 8.13 0 01-2.91-.547c-.94-.384-1.757-.854-2.448-1.411l1.556-2.132c.633.5 1.257.893 1.872 1.181a5.18 5.18 0 002.045.404c.768 0 1.335-.154 1.7-.461a1.59 1.59 0 00.547-1.239c0-.288-.087-.538-.26-.749a2.378 2.378 0 00-.69-.605 5.795 5.795 0 00-.98-.46l-1.095-.461c-.46-.173-.931-.375-1.411-.605a5.993 5.993 0 01-1.296-.836 4.72 4.72 0 01-.922-1.123c-.23-.442-.346-.96-.346-1.555 0-1.249.461-2.266 1.383-3.054.922-.787 2.18-1.18 3.773-1.18.98 0 1.863.172 2.65.518a9.86 9.86 0 012.045 1.18l-1.526 2.017a7.184 7.184 0 00-1.527-.864 3.735 3.735 0 00-1.584-.346c-.71 0-1.239.154-1.584.461-.327.288-.49.653-.49 1.095 0 .288.077.537.23.749.173.192.394.364.663.518a6.8 6.8 0 00.922.432c.364.135.739.27 1.123.404.48.172.96.374 1.44.604.48.212.912.48 1.296.807.404.326.72.73.951 1.21.25.46.374 1.017.374 1.67a4.05 4.05 0 01-.374 1.729c-.23.518-.576.979-1.037 1.382-.46.384-1.037.692-1.728.922-.692.23-1.479.346-2.362.346zm14.508 0a7.53 7.53 0 01-2.737-.489 6.68 6.68 0 01-2.218-1.469 6.856 6.856 0 01-1.498-2.304c-.345-.922-.518-1.969-.518-3.14 0-1.152.182-2.19.547-3.111.365-.922.845-1.7 1.44-2.333a6.607 6.607 0 012.103-1.47 5.962 5.962 0 012.42-.518c.96 0 1.805.164 2.534.49.73.326 1.335.787 1.815 1.383.499.595.874 1.305 1.124 2.131.249.826.374 1.728.374 2.708 0 .326-.019.634-.058.922a4.824 4.824 0 01-.086.69h-8.987c.154 1.268.595 2.248 1.325 2.939.749.672 1.699 1.008 2.852 1.008a5.31 5.31 0 001.699-.26 8.04 8.04 0 001.584-.777l1.124 2.074a10.15 10.15 0 01-2.247 1.095 7.816 7.816 0 01-2.592.432zm-3.774-8.756h6.28c0-1.095-.24-1.949-.721-2.563-.46-.634-1.181-.951-2.16-.951-.845 0-1.584.298-2.218.893-.634.595-1.027 1.469-1.18 2.621zm16.968 14.662c-.845 0-1.632-.077-2.362-.23-.71-.154-1.325-.385-1.843-.692a3.761 3.761 0 01-1.239-1.152c-.288-.461-.432-.999-.432-1.613 0-.596.173-1.153.518-1.671.346-.5.845-.95 1.498-1.354v-.115a3.004 3.004 0 01-.921-.922c-.231-.384-.346-.864-.346-1.44 0-.557.154-1.056.461-1.498.326-.46.691-.835 1.094-1.123v-.116c-.48-.364-.912-.864-1.296-1.497-.365-.653-.547-1.402-.547-2.247 0-.807.153-1.527.461-2.16a4.756 4.756 0 011.21-1.585 5.055 5.055 0 011.785-.979 6.527 6.527 0 012.132-.346c.384 0 .749.039 1.095.116.364.057.691.134.979.23h5.069v2.448h-2.592c.23.27.423.615.576 1.037.154.404.231.855.231 1.354 0 .787-.144 1.479-.432 2.074a4.169 4.169 0 01-1.124 1.498 5 5 0 01-1.699.922 6.792 6.792 0 01-2.103.316 5.48 5.48 0 01-.951-.086 4.718 4.718 0 01-.979-.288 3.5 3.5 0 00-.518.576c-.116.192-.173.451-.173.778 0 .403.163.72.489.95.346.23.951.346 1.815.346h2.506c1.709 0 2.996.279 3.86.835.883.538 1.325 1.421 1.325 2.65 0 .692-.183 1.345-.547 1.96-.346.614-.845 1.142-1.498 1.583-.653.442-1.45.788-2.391 1.037-.922.27-1.959.404-3.111.404zm.173-12.818c.672 0 1.248-.24 1.728-.72.48-.5.72-1.21.72-2.132 0-.883-.24-1.565-.72-2.045a2.253 2.253 0 00-1.728-.75 2.39 2.39 0 00-1.757.721c-.48.48-.72 1.171-.72 2.074 0 .922.24 1.632.72 2.131.48.48 1.066.72 1.757.72zm.346 10.657c1.152 0 2.074-.23 2.765-.691.71-.442 1.066-.97 1.066-1.584 0-.557-.221-.932-.663-1.124-.422-.192-1.037-.288-1.843-.288h-1.93c-.768 0-1.412-.067-1.93-.201-.73.557-1.095 1.18-1.095 1.872 0 .634.317 1.123.951 1.469.653.365 1.546.547 2.679.547zm9.52-4.09V11.642h2.737l.23 2.506h.115c.5-.922 1.105-1.623 1.815-2.103.711-.5 1.44-.749 2.189-.749.672 0 1.21.096 1.613.288l-.576 2.88a6.023 6.023 0 00-.691-.172 4.435 4.435 0 00-.778-.058c-.557 0-1.142.221-1.757.663-.614.422-1.142 1.171-1.584 2.247v8.641h-3.313zm16.514.345a7.53 7.53 0 01-2.737-.489 6.682 6.682 0 01-2.218-1.469c-.634-.634-1.133-1.402-1.498-2.304-.345-.922-.518-1.969-.518-3.14 0-1.152.182-2.19.547-3.111.365-.922.845-1.7 1.44-2.333a6.617 6.617 0 012.103-1.47 5.962 5.962 0 012.42-.518c.96 0 1.805.164 2.534.49.73.326 1.335.787 1.815 1.383.499.595.874 1.305 1.124 2.131.249.826.374 1.728.374 2.708 0 .326-.019.634-.058.922a4.824 4.824 0 01-.086.69h-8.987c.154 1.268.595 2.248 1.325 2.939.749.672 1.699 1.008 2.852 1.008a5.31 5.31 0 001.699-.26 8.04 8.04 0 001.584-.777l1.124 2.074a10.15 10.15 0 01-2.247 1.095 7.816 7.816 0 01-2.592.432zm-3.774-8.756h6.28c0-1.095-.241-1.949-.721-2.563-.46-.634-1.181-.951-2.16-.951-.845 0-1.584.298-2.218.893-.634.595-1.027 1.469-1.181 2.621zm15.414 8.756c-1.248 0-2.256-.374-3.025-1.123-.768-.768-1.152-1.776-1.152-3.024 0-.75.154-1.412.461-1.988.327-.595.826-1.104 1.498-1.526.691-.423 1.555-.778 2.592-1.066 1.057-.288 2.314-.509 3.774-.663a4.492 4.492 0 00-.173-1.037 2.049 2.049 0 00-.432-.893 1.747 1.747 0 00-.778-.604c-.326-.154-.73-.23-1.21-.23a5.48 5.48 0 00-2.045.402c-.653.27-1.296.596-1.93.98l-1.209-2.218c.787-.5 1.67-.931 2.65-1.296a8.999 8.999 0 013.168-.548c1.767 0 3.082.528 3.946 1.585.884 1.037 1.325 2.544 1.325 4.522v8.382h-2.736l-.231-1.555h-.115c-.633.537-1.315.988-2.045 1.353a5.03 5.03 0 01-2.333.548zm1.066-2.592c.576 0 1.094-.134 1.555-.403.48-.269.989-.653 1.527-1.152v-3.169c-.96.116-1.767.27-2.42.461-.653.192-1.181.413-1.584.663-.403.23-.691.499-.864.806a1.965 1.965 0 00-.259.98c0 .633.192 1.094.576 1.382.384.288.873.432 1.469.432zm15.313 2.592c-1.786 0-3.207-.643-4.263-1.93-1.037-1.305-1.556-3.13-1.556-5.472 0-1.152.164-2.19.49-3.111.346-.922.797-1.7 1.354-2.333a6.042 6.042 0 011.901-1.47 5.196 5.196 0 012.247-.518c.806 0 1.488.144 2.045.432a7.725 7.725 0 011.671 1.124l-.116-2.276V5.45H178v20.336h-2.737l-.23-1.527h-.115a7.506 7.506 0 01-1.815 1.325 4.625 4.625 0 01-2.189.548zm.806-2.736c1.057 0 2.046-.528 2.967-1.584v-6.596c-.499-.442-.989-.75-1.469-.922a3.99 3.99 0 00-1.411-.26c-.922 0-1.7.404-2.333 1.21-.634.807-.951 1.96-.951 3.457 0 1.536.269 2.708.807 3.514.557.788 1.354 1.181 2.39 1.181z" fill="#353F86"/><path d="M15.842 15.842v.016M27.157 4.526c-2.5-2.5-9.592.54-15.842 6.79-6.249 6.249-9.289 13.341-6.789 15.841s9.592-.54 15.842-6.79c6.25-6.249 9.289-13.341 6.79-15.84" stroke="#3387FF" stroke-width="3" stroke-linecap="round" stroke-linejoin="round"/><path d="M4.526 4.526c-2.5 2.5.54 9.593 6.79 15.842 6.249 6.25 13.341 9.29 15.841 6.79 2.5-2.5-.54-9.593-6.79-15.842-6.249-6.25-13.341-9.29-15.84-6.79" stroke="#3387FF" stroke-width="3" stroke-linecap="round" stroke-linejoin="round"/></svg>