<svg width="615" height="271" viewBox="0 0 615 271" fill="none" xmlns="http://www.w3.org/2000/svg"><circle opacity=".4" cx="196" cy="120" r="98" fill="#16D895"/><circle opacity=".4" cx="312" cy="31" r="31" fill="#007CFF"/><path d="M178.351 130.492l46.18-50.908 45.396 50.357V227h-91.576v-96.508z" fill="url(#paint0_linear)"/><path d="M269.621 129.839l-45.482-49.635 84.378-.62 45.169 50.255h-84.065z" fill="#007CFF"/><path d="M207.387 169.485c0-9.56 7.75-17.31 17.31-17.31 9.56 0 17.31 7.75 17.31 17.31V227h-34.62v-57.515z" fill="#fff"/><path d="M269.927 128.723l83.759.543V227h-83.759v-98.277z" fill="#72B7FF"/><path d="M281.095 149.942h37.971m-37.971 15.635h25.686" stroke="#CAE4FF" stroke-width="6" stroke-linecap="round"/><path d="M281.095 214.715h25.686" stroke="#A3D0FF" stroke-width="6" stroke-linecap="round"/><path d="M333.584 149.942h8.934m-23.453 15.635H328" stroke="#CAE4FF" stroke-width="6" stroke-linecap="round"/><path d="M319.065 214.715H328" stroke="#A3D0FF" stroke-width="6" stroke-linecap="round"/><rect x="326.883" y="74" width="6.701" height="6.701" rx="3.35" fill="#007CFF" fill-opacity=".4"/><rect x="175" y="107.504" width="6.701" height="6.701" rx="3.35" fill="#007CFF" fill-opacity=".4"/><rect x="360.387" y="176.745" width="6.701" height="6.701" rx="3.35" fill="#007CFF" fill-opacity=".4"/><path d="M317.677 113.448a8 8 0 015.707-9.811l91.884-23.983a8 8 0 019.748 5.67l29.382 109.658a8 8 0 01-5.656 9.798l-91.725 24.577a8 8 0 01-9.798-5.656l-29.542-110.253z" fill="url(#paint1_linear)"/><path opacity=".8" d="M349.018 129.091l32.868-8.807" stroke="#fff" stroke-width="6" stroke-linecap="round"/><path d="M408.482 63.583a8 8 0 0110.936-3.038l82.52 46.992a8 8 0 013.019 10.866l-55.538 99.013a8 8 0 01-10.891 3.064l-82.821-46.455a8 8 0 01-3.064-10.891l55.839-99.551z" fill="url(#paint2_linear)"/><path opacity=".8" d="M411.573 88.315l43.872 24.608m-54.005-6.543l29.678 16.646m-61.524 40.129l29.678 16.647m72.947-57.47l10.323 5.79m-37.23 2.866l10.322 5.79m-42.168 50.985l10.323 5.79" stroke="#fff" stroke-width="6" stroke-linecap="round"/><path stroke="#007CFF" stroke-width="2" stroke-miterlimit="16" d="M615 227H0"/><defs><linearGradient id="paint0_linear" x1="264.343" y1="129.839" x2="122.511" y2="227" gradientUnits="userSpaceOnUse"><stop stop-color="#3899FF"/><stop offset="1" stop-color="#fff"/></linearGradient><linearGradient id="paint1_linear" x1="369.183" y1="91.311" x2="402.879" y2="217.069" gradientUnits="userSpaceOnUse"><stop stop-color="#00B2FF"/><stop offset="1" stop-color="#97EDFF"/></linearGradient><linearGradient id="paint2_linear" x1="460.809" y1="83.702" x2="397.118" y2="197.252" gradientUnits="userSpaceOnUse"><stop stop-color="#00B2FF"/><stop offset="1" stop-color="#97EDFF"/></linearGradient></defs></svg>