<svg width="30" height="30" fill="none" xmlns="http://www.w3.org/2000/svg"><circle cx="15" cy="15" r="15" fill="#2191FB" fill-opacity=".5"/><g clip-path="url(#clip0_1_470)"><path d="M7.822 24a.281.281 0 01-.199-.082l-1.54-1.541a.281.281 0 010-.398l3.8-3.8H7.607a.281.281 0 01-.281-.282v-2.18a.28.28 0 01.281-.28h6.676a.28.28 0 01.28.28v6.676a.281.281 0 01-.28.281h-2.18a.281.281 0 01-.281-.281v-2.276l-3.8 3.8a.281.281 0 01-.2.083zM6.68 22.178l1.143 1.143 4.082-4.082a.281.281 0 01.48.2v2.673h1.617v-6.113H7.888v1.617h2.674a.281.281 0 01.199.48l-4.082 4.082zm15.714-7.614h-6.676a.281.281 0 01-.28-.282V7.607a.28.28 0 01.28-.281h2.18c.155 0 .282.126.282.281v2.276l3.8-3.8c.11-.11.288-.11.398 0l1.54 1.54a.282.282 0 010 .398l-3.8 3.8h2.276c.155 0 .281.126.281.282v2.18a.281.281 0 01-.281.28zM15.999 14h6.113v-1.617h-2.674a.281.281 0 01-.199-.48l4.082-4.082-1.143-1.143-4.082 4.082a.281.281 0 01-.48-.2V7.889h-1.617v6.113z" fill="#fff"/></g><defs><clipPath id="clip0_1_470"><path fill="#fff" transform="translate(6 6)" d="M0 0h18v18H0z"/></clipPath></defs></svg>