<svg width="30" height="30" fill="none" xmlns="http://www.w3.org/2000/svg"><circle cx="15" cy="15" r="15" fill="#2191FB" fill-opacity=".5"/><g clip-path="url(#clip0_1_453)" fill="#fff"><path d="M22.104 16.708a1.646 1.646 0 00-.76-.434 1.658 1.658 0 00-1.199-1.996 1.654 1.654 0 00-.945-1.91l1.706-1.705a1.657 1.657 0 10-2.345-2.344l-5.319 5.32-.31-1.348a2.188 2.188 0 00-3.678-1.055.528.528 0 00-.155.374l.007 6.56-1.54 1.54a.527.527 0 000 .746l3.389 3.39a.527.527 0 00.373.154h4.907c.593 0 1.152-.231 1.571-.65l4.297-4.298c.64-.639.656-1.69 0-2.344zm-2.797-1.251a.602.602 0 11.852.852l-1.198 1.198a.602.602 0 11-.852-.852l1.198-1.198zm-1.944.452a.603.603 0 01-.852-.852l1.598-1.598a.603.603 0 01.852.852l-1.598 1.598zm-.302 6.694a1.175 1.175 0 01-.826.342h-4.689l-2.862-2.862 1.322-1.322a.523.523 0 00.155-.373l-.007-6.536a1.132 1.132 0 011.75.676l.525 2.275a.526.526 0 00.14.254l.4.4a2.3 2.3 0 010 3.248.527.527 0 00.746.746 3.356 3.356 0 000-4.74l-.027-.027 5.62-5.619a.602.602 0 11.851.852l-4.394 4.394a1.66 1.66 0 000 2.344c.309.309.71.47 1.115.483a1.652 1.652 0 001.597 1.598c.014.421.185.815.484 1.114.148.149.32.265.506.347l-2.406 2.406zm4.297-4.297l-.8.799a.602.602 0 11-.851-.852l.799-.799a.602.602 0 01.852.852zm-8.336-8.994a.527.527 0 00.528-.528v-2.26c-.028-.7-1.027-.699-1.055 0v2.26c0 .292.236.528.527.528zm-2.632-.155a.527.527 0 10.746-.745l-.565-.565a.527.527 0 10-.746.746l.565.564z"/><path d="M15.655 9.157l.565-.565a.527.527 0 10-.746-.746l-.565.565a.527.527 0 10.746.746z"/></g><defs><clipPath id="clip0_1_453"><path fill="#fff" transform="translate(6 6)" d="M0 0h18v18H0z"/></clipPath></defs></svg>