<svg width="30" height="30" fill="none" xmlns="http://www.w3.org/2000/svg"><circle cx="15" cy="15" r="15" fill="#2191FB" fill-opacity=".5"/><g clip-path="url(#clip0_1_474)" fill="#fff"><path d="M21.965 15.832a7.115 7.115 0 00-2.045-4.316 7.06 7.06 0 00-3.473-1.907v-.893a1.197 1.197 0 00-.288-2.355h-2.531a1.197 1.197 0 00-.289 2.355v.896a7.06 7.06 0 00-4.059 2.582.336.336 0 00-.027-.002H6.748a.352.352 0 000 .704h2.054a7.05 7.05 0 00-.624 1.35H4.352a.352.352 0 000 .704h3.627a7.15 7.15 0 00-.174 1.351H6.25a.352.352 0 000 .703h1.566c.03.455.103.908.22 1.352H5.757a.352.352 0 000 .703H8.26a7.06 7.06 0 001.617 2.5 7.115 7.115 0 005.016 2.08 7.119 7.119 0 003.876-1.145.352.352 0 00-.384-.59c-2.515 1.639-5.885 1.285-8.01-.842a6.406 6.406 0 010-9.049 6.406 6.406 0 019.048 0c2.124 2.124 2.48 5.49.847 8.005a.352.352 0 10.59.383 7.125 7.125 0 001.105-4.57zm-8.83-8.276c0-.271.221-.492.493-.492h2.53a.493.493 0 010 .984h-2.53a.493.493 0 01-.492-.492zm.907 1.935v-.74h1.702v.739a7.163 7.163 0 00-1.702.001z"/><path d="M19.672 20.96a.353.353 0 00-.352.35.353.353 0 00.6.25.354.354 0 000-.498.355.355 0 00-.248-.103zm-4.774-9.876a5.46 5.46 0 00-5.454 5.454 5.46 5.46 0 005.454 5.454 5.46 5.46 0 005.454-5.454 5.46 5.46 0 00-5.454-5.454zm0 10.204a4.756 4.756 0 01-4.75-4.75c0-2.62 2.13-4.75 4.75-4.75s4.75 2.13 4.75 4.75-2.13 4.75-4.75 4.75z"/><path d="M17.122 13.817l-1.741 1.741a1.086 1.086 0 00-.965 0l-.78-.78a.352.352 0 10-.497.498l.78.78a1.094 1.094 0 102.072.483 1.09 1.09 0 00-.113-.484l1.69-1.69.051-.051a.352.352 0 10-.497-.497zm-2.224 3.11a.39.39 0 11.001-.78.39.39 0 010 .78zm3.76-.737h-.326a.352.352 0 000 .704h.326a.352.352 0 000-.703zm-7.193-.008h-.325a.352.352 0 000 .703h.325a.352.352 0 000-.703zm3.438-2.726a.352.352 0 00.352-.351v-.326a.352.352 0 10-.703 0v.326a.35.35 0 00.351.351zm-.009 6.164a.352.352 0 00-.351.351v.326a.352.352 0 00.703 0v-.326a.352.352 0 00-.352-.351zM4.352 18.355a.354.354 0 00-.352.352.354.354 0 00.352.352.354.354 0 00.351-.352.354.354 0 00-.351-.352z"/></g><defs><clipPath id="clip0_1_474"><path fill="#fff" transform="translate(4 6)" d="M0 0h18v18H0z"/></clipPath></defs></svg>