<svg width="30" height="30" fill="none" xmlns="http://www.w3.org/2000/svg"><circle cx="15" cy="15" r="15" fill="#2191FB" fill-opacity=".5"/><g clip-path="url(#clip0_1_446)" fill="#fff"><path d="M23.079 13.11l-1.264-.214a7.135 7.135 0 00-.507-1.226l.744-1.041a1.109 1.109 0 00-.12-1.433l-1.12-1.12a1.104 1.104 0 00-1.43-.12l-1.045.744a7.06 7.06 0 00-1.27-.523l-.211-1.248A1.11 1.11 0 0015.758 6h-1.583a1.11 1.11 0 00-1.098.929l-.219 1.278a6.957 6.957 0 00-1.222.515l-1.034-.744a1.104 1.104 0 00-.646-.207c-.297 0-.58.117-.786.327l-1.124 1.12a1.113 1.113 0 00-.12 1.433l.751 1.057a6.969 6.969 0 00-.5 1.23l-1.248.21A1.11 1.11 0 006 14.246v1.583c0 .545.391 1.008.929 1.098l1.278.218c.132.421.305.831.515 1.222l-.74 1.03a1.109 1.109 0 00.12 1.433l1.12 1.12a1.104 1.104 0 001.43.12l1.056-.751c.38.2.778.36 1.188.489l.21 1.263c.09.538.553.929 1.099.929h1.586a1.11 1.11 0 001.098-.929l.215-1.263a7.148 7.148 0 001.226-.508l1.041.745c.188.135.414.206.647.206.297 0 .575-.116.786-.327l1.12-1.12c.384-.384.436-.99.12-1.433l-.744-1.045a7.08 7.08 0 00.508-1.226l1.263-.21a1.11 1.11 0 00.929-1.1v-1.583a1.097 1.097 0 00-.921-1.098zm-.087 2.681c0 .05-.034.09-.083.098l-1.579.263a.505.505 0 00-.406.373 6.02 6.02 0 01-.654 1.575.508.508 0 00.022.553l.93 1.309a.102.102 0 01-.012.127l-1.12 1.12a.095.095 0 01-.072.03.092.092 0 01-.056-.018l-1.305-.929a.508.508 0 00-.553-.022 6.02 6.02 0 01-1.576.654.499.499 0 00-.372.406l-.267 1.58a.097.097 0 01-.098.082h-1.583a.097.097 0 01-.097-.083l-.264-1.579a.505.505 0 00-.372-.406 6.252 6.252 0 01-1.541-.632.52.52 0 00-.256-.067.495.495 0 00-.294.094l-1.316.936a.112.112 0 01-.056.019.1.1 0 01-.071-.03l-1.12-1.12a.102.102 0 01-.012-.129l.925-1.297a.515.515 0 00.022-.556 5.964 5.964 0 01-.661-1.572.515.515 0 00-.406-.372l-1.591-.271a.097.097 0 01-.083-.098v-1.583c0-.049.034-.09.083-.098l1.568-.263c.2-.034.36-.18.41-.376a6 6 0 01.643-1.58.502.502 0 00-.027-.548l-.936-1.316a.102.102 0 01.011-.128l1.121-1.12a.095.095 0 01.071-.03c.023 0 .042.007.057.018l1.297.925a.515.515 0 00.557.023 5.962 5.962 0 011.571-.662.515.515 0 00.373-.406l.27-1.59a.097.097 0 01.098-.084h1.583c.049 0 .09.034.098.083l.263 1.568c.034.2.18.361.376.41.568.143 1.11.365 1.613.662a.509.509 0 00.553-.023l1.297-.932a.112.112 0 01.057-.019.1.1 0 01.071.03l1.12 1.12a.102.102 0 01.012.128l-.929 1.305a.508.508 0 00-.022.553 6.02 6.02 0 01.654 1.575.5.5 0 00.406.373l1.58.267a.097.097 0 01.082.097v1.583h-.004z"/><path d="M15.001 11.114a3.887 3.887 0 00-3.884 3.884 3.887 3.887 0 003.884 3.884 3.887 3.887 0 003.885-3.884A3.887 3.887 0 0015 11.114zm0 6.753a2.87 2.87 0 01-2.869-2.869 2.87 2.87 0 012.87-2.869 2.87 2.87 0 012.868 2.869 2.87 2.87 0 01-2.869 2.869z"/></g><defs><clipPath id="clip0_1_446"><path fill="#fff" transform="translate(6 6)" d="M0 0h18v18H0z"/></clipPath></defs></svg>