<svg width="30" height="30" fill="none" xmlns="http://www.w3.org/2000/svg"><circle cx="15" cy="15" r="15" fill="#2191FB" fill-opacity=".5"/><path d="M15.235 15.824a.278.278 0 00-.102-.004.671.671 0 01-.593-.665.295.295 0 10-.59 0c0 .568.38 1.065.928 1.216v.295a.295.295 0 10.59 0v-.277a1.26 1.26 0 00-.258-2.495.67.67 0 11.67-.67.295.295 0 00.591 0c0-.597-.419-1.112-1.002-1.235v-.269a.295.295 0 00-.591 0v.287a1.26 1.26 0 00.332 2.477.67.67 0 01.025 1.34z" fill="#fff"/><path d="M10.929 14.212a4.281 4.281 0 108.563 0 4.281 4.281 0 00-8.563 0zm4.281-3.691a3.69 3.69 0 110 7.381 3.69 3.69 0 010-7.381z" fill="#fff"/><path d="M20.947 19.221l-2.312 1.093a1.884 1.884 0 00-1.606-.991l-2.136-.059a2.254 2.254 0 01-.97-.25l-.217-.113a3.832 3.832 0 00-3.55.004l.014-.492a.295.295 0 00-.287-.304l-2.341-.064a.295.295 0 00-.304.287l-.141 5.138a.295.295 0 00.287.303l2.341.064h.008c.16 0 .291-.127.296-.287l.006-.246.609-.325c.238-.129.517-.16.778-.085l3.632 1.019.02.005a3.939 3.939 0 002.444-.277.284.284 0 00.036-.02l5.266-3.407a.295.295 0 00.097-.393 1.491 1.491 0 00-1.97-.6zm-13.252 3.97l.126-4.548 1.75.048-.125 4.548-1.75-.048zm9.556-.078a3.34 3.34 0 01-2.047.229l-3.622-1.017a1.633 1.633 0 00-1.217.133l-.31.167.082-3.024a3.246 3.246 0 013.297-.176l.218.113c.38.196.798.304 1.225.317l2.136.058c.6.017 1.109.445 1.23 1.032l-3.18-.088a.296.296 0 00-.016.59l3.51.097h.008c.16 0 .29-.127.295-.287a1.877 1.877 0 00-.029-.383l2.372-1.12.007-.004a.902.902 0 011.02.143l-4.979 3.22zM15.506 9.1V6.295a.295.295 0 00-.59 0V9.1a.295.295 0 00.59 0zm2.214 0V7.772a.295.295 0 00-.59 0V9.1a.295.295 0 10.59 0zm-4.428 0V7.772a.295.295 0 00-.59 0V9.1a.295.295 0 10.59 0z" fill="#fff"/></svg>