<svg width="30" height="30" fill="none" xmlns="http://www.w3.org/2000/svg"><circle cx="15" cy="15" r="15" fill="#2191FB" fill-opacity=".5"/><g clip-path="url(#clip0_1_434)" fill="#fff"><path d="M19.875 17.75a.375.375 0 01-.14-.027l-3.75-1.5a.374.374 0 010-.696l3.75-1.5a.372.372 0 01.279 0l3.75 1.5a.373.373 0 010 .696l-3.75 1.5a.375.375 0 01-.139.027zm-2.74-1.875l2.74 1.096 2.74-1.096-2.74-1.096-2.74 1.096z"/><path d="M19.875 22.25a.375.375 0 01-.14-.027l-3.75-1.5a.374.374 0 01-.235-.348v-4.5a.375.375 0 01.75 0v4.247l3.375 1.35 3.375-1.35v-4.247a.375.375 0 01.75 0v4.5a.374.374 0 01-.235.348l-3.75 1.5a.375.375 0 01-.14.027z"/><path d="M19.875 22.25a.375.375 0 01-.375-.375v-4.5a.375.375 0 01.75 0v4.5a.375.375 0 01-.375.375zm-9.75-4.5a.375.375 0 01-.14-.027l-3.75-1.5a.374.374 0 010-.696l3.75-1.5a.372.372 0 01.279 0l3.75 1.5a.374.374 0 010 .696l-3.75 1.5a.375.375 0 01-.139.027zm-2.74-1.875l2.74 1.096 2.74-1.096-2.74-1.096-2.74 1.096z"/><path d="M10.125 22.25a.375.375 0 01-.14-.027l-3.75-1.5A.374.374 0 016 20.375v-4.5a.375.375 0 01.75 0v4.247l3.375 1.35 3.375-1.35v-4.247a.375.375 0 01.75 0v4.5a.374.374 0 01-.236.348l-3.75 1.5a.375.375 0 01-.139.027z"/><path d="M10.125 22.25a.375.375 0 01-.375-.375v-4.5a.375.375 0 01.75 0v4.5a.375.375 0 01-.375.375zm4.875-12a.375.375 0 01-.14-.027l-3.75-1.5a.374.374 0 010-.696l3.75-1.5a.372.372 0 01.279 0l3.75 1.5a.374.374 0 010 .696l-3.75 1.5a.375.375 0 01-.139.027zm-2.74-1.875L15 9.471l2.74-1.096L15 7.279l-2.74 1.096z"/><path d="M15 14.75a.375.375 0 01-.14-.027l-3.75-1.5a.374.374 0 01-.235-.348v-4.5a.375.375 0 01.75 0v4.246L15 13.971l3.375-1.35V8.375a.375.375 0 01.75 0v4.5a.374.374 0 01-.235.348l-3.75 1.5a.375.375 0 01-.14.027z"/><path d="M15 14.75a.375.375 0 01-.375-.375v-4.5a.375.375 0 01.75 0v4.5a.375.375 0 01-.375.375z"/></g><defs><clipPath id="clip0_1_434"><path fill="#fff" transform="translate(6 5)" d="M0 0h18v18H0z"/></clipPath></defs></svg>