<svg width="26" height="16" fill="none" xmlns="http://www.w3.org/2000/svg"><g clip-path="url(#clip0_1_92)" fill="#BAC2C8"><path d="M25.744 8.856l-2.05-4.401a2.289 2.289 0 00-.859-.971 2.37 2.37 0 00-1.26-.363h-3.58V1.75a1.676 1.676 0 00-.134-.67 1.711 1.711 0 00-.393-.565A1.793 1.793 0 0016.203 0H2.856A1.792 1.792 0 001.2 1.08a1.7 1.7 0 00-.136.67v5.492a.638.638 0 00.054.273.59.59 0 00.155.235c.067.068.15.12.24.152a.714.714 0 00.56 0 .646.646 0 00.233-.152.597.597 0 00.155-.235.638.638 0 00.054-.273V1.75a.36.36 0 01.101-.235.354.354 0 01.241-.09h13.345a.347.347 0 01.241.09.359.359 0 01.101.235v8.333a.329.329 0 01-.1.235.361.361 0 01-.242.099H9.798a.739.739 0 00-.511.21.704.704 0 00.51 1.206h6.405a1.825 1.825 0 001.27-.51 1.74 1.74 0 00.39-.569c.09-.213.135-.44.134-.67v-5.54h3.579a.862.862 0 01.473.137.878.878 0 01.326.363l.07.16h-1.972a1.305 1.305 0 00-.892.363 1.227 1.227 0 00-.373.871v2.084a1.2 1.2 0 00.373.871c.237.231.557.362.892.364h4.045c.008.085.008.171 0 .257v2.152a.328.328 0 01-.1.235.343.343 0 01-.241.098h-1.468a2.783 2.783 0 00-.97-1.454 2.981 2.981 0 00-1.81-.61c-.655 0-1.292.215-1.808.61a2.766 2.766 0 00-.955 1.454H8.827a2.812 2.812 0 00-.955-1.454 2.997 2.997 0 00-1.813-.608 3 3 0 00-1.812.607c-.467.376-.8.885-.955 1.455h-.435a.377.377 0 01-.24-.098.33.33 0 01-.102-.235v-.356a.694.694 0 00.319-.182.689.689 0 00.21-.5.667.667 0 00-.21-.523.716.716 0 00-.505-.19H.722a.73.73 0 00-.512.19.748.748 0 00-.21.5c.005.186.08.364.21.5a.79.79 0 00.512.205h.342v.333c-.001.23.045.46.136.673.09.213.224.407.392.57.336.326.79.51 1.265.514h.435c.157.568.49 1.074.955 1.447a2.981 2.981 0 001.812.612c.658 0 1.296-.215 1.813-.612.465-.373.798-.88.955-1.447h8.346a2.791 2.791 0 001.023 1.496 2.91 2.91 0 001.745.579 2.91 2.91 0 001.744-.579c.5-.375.86-.9 1.023-1.495h1.499c.476-.006.932-.19 1.273-.516.334-.33.521-.777.52-1.242v-2.129a2.72 2.72 0 00-.256-1.159zm-1.84-.523h-3.238V6.63h2.438l.8 1.704zm-2.562 4.88c.008.359-.128.707-.38.969a1.456 1.456 0 01-1.778.167 1.377 1.377 0 01-.426-.435 1.339 1.339 0 01.216-1.671c.196-.196.448-.328.722-.38.09-.007.181-.007.272 0 .186.002.37.038.543.107.257.105.476.282.63.508.153.227.234.493.232.764l-.031-.03zm-13.873 0a1.342 1.342 0 01-.412.969 1.445 1.445 0 01-1.919.103 1.381 1.381 0 01-.41-.55 1.348 1.348 0 01.303-1.515c.196-.194.448-.326.722-.38a2.18 2.18 0 01.28 0 1.421 1.421 0 011.165.616c.154.227.237.492.24.764l.03-.008z"/><path d="M9.16 5.886a1.283 1.283 0 00-.394-1.861 1.36 1.36 0 00-.692-.192H6.987a.531.531 0 00-.373.152.52.52 0 00-.155.371v3.121c-.002.07.011.14.039.205a.552.552 0 00.287.28.475.475 0 00.411 0 .552.552 0 00.288-.28.482.482 0 00.039-.205v-.621l.87.97c.045.05.1.092.162.12A.451.451 0 008.757 8c.07.015.14.015.21 0a.594.594 0 00.178-.099.547.547 0 00.132-.166.57.57 0 00.04-.22.621.621 0 000-.204.596.596 0 00-.11-.175l-.667-.772c.252-.093.47-.26.62-.478zm-.9-.583a.24.24 0 01-.186.076h-.536v-.5h.536a.259.259 0 01.243.16.252.252 0 01-.057.28v-.016zm-2.732-.424a.54.54 0 00.528-.523.49.49 0 00-.155-.363.528.528 0 00-.373-.16h-1.6a.54.54 0 00-.38.152c-.1.1-.155.232-.155.371v3.121a.636.636 0 000 .205.552.552 0 00.497.326.46.46 0 00.202-.046.483.483 0 00.287-.28.385.385 0 000-.205V6.44h.776a.607.607 0 00.28-.037.708.708 0 00.178-.114.5.5 0 00.156-.371.555.555 0 000-.197.688.688 0 00-.117-.174.713.713 0 00-.217-.114.596.596 0 00-.202 0h-.776V4.88h1.071zm9.603 0a.547.547 0 00.396-.16.539.539 0 00.155-.363.536.536 0 00-.536-.523h-1.614a.524.524 0 00-.373.152.532.532 0 00-.163.371v3.121a.512.512 0 00.163.371.514.514 0 00.373.152h1.6a.54.54 0 00.38-.152.553.553 0 00.155-.37.539.539 0 00-.155-.364.53.53 0 00-.38-.152h-1.064V6.44h.776a.561.561 0 00.202-.038.887.887 0 00.178-.113.5.5 0 00.155-.371.557.557 0 000-.197.687.687 0 00-.116-.175.887.887 0 00-.178-.113.597.597 0 00-.202 0h-.777V4.88h1.025zm-3.066 0a.523.523 0 00.38-.152.43.43 0 00.117-.181.439.439 0 000-.394.435.435 0 00-.14-.167.513.513 0 00-.38-.152h-1.576a.54.54 0 00-.381.151.514.514 0 00-.155.372v3.121a.504.504 0 00.155.372.55.55 0 00.38.151h1.6a.682.682 0 00.21-.038.553.553 0 00.333-.485.553.553 0 00-.334-.477.516.516 0 00-.21-.038h-1.063V6.44h.777a.524.524 0 00.38-.151.409.409 0 00.117-.167.49.49 0 00.046-.204.43.43 0 00-.046-.197.432.432 0 00-.117-.174.514.514 0 00-.38-.152H11V4.88h1.064zM.722 9.924h2.671a.722.722 0 00.7-.712.703.703 0 00-.21-.5.786.786 0 00-.513-.212H.722a.786.786 0 00-.512.212.703.703 0 00.234 1.157.73.73 0 00.278.055z"/></g><defs><clipPath id="clip0_1_92"><path fill="#fff" d="M0 0h26v16H0z"/></clipPath></defs></svg>