<svg width="25" height="25" fill="none" xmlns="http://www.w3.org/2000/svg"><g clip-path="url(#clip0_1_85)" fill="#BAC2C8"><path d="M10.742 7.813c.539 0 .977.438.977.976a.977.977 0 101.953 0 2.934 2.934 0 00-1.953-2.762V4.883a.977.977 0 00-1.953 0v1.144A2.934 2.934 0 007.812 8.79a2.933 2.933 0 002.93 2.93.978.978 0 010 1.953.978.978 0 01-.976-.977.977.977 0 00-1.954 0c0 1.273.817 2.359 1.954 2.762v1.145a.977.977 0 001.953 0v-1.145a2.934 2.934 0 001.953-2.762 2.933 2.933 0 00-2.93-2.93.978.978 0 010-1.953zm10.352 9.375h-2.525l.286-.287a.977.977 0 10-1.381-1.38l-1.954 1.953-.002.002a.977.977 0 000 1.376l.002.003 1.954 1.953a.977.977 0 101.38-1.381l-.285-.286h2.525c1.077 0 1.953.876 1.953 1.953a1.955 1.955 0 01-1.953 1.953H16.21a.977.977 0 000 1.953h4.883A3.91 3.91 0 0025 21.094a3.91 3.91 0 00-3.906-3.907z"/><path d="M12.605 19.334a8.852 8.852 0 01-1.863.197c-4.846 0-8.789-3.942-8.789-8.789 0-4.846 3.943-8.789 8.79-8.789 4.845 0 8.788 3.943 8.788 8.79 0 .592-.059 1.183-.176 1.758a.977.977 0 001.914.389c.143-.703.215-1.425.215-2.148A10.736 10.736 0 0010.742 0 10.736 10.736 0 000 10.742a10.736 10.736 0 0010.742 10.742c.766 0 1.532-.08 2.275-.241a.976.976 0 10-.412-1.91z"/></g><defs><clipPath id="clip0_1_85"><path fill="#fff" d="M0 0h25v25H0z"/></clipPath></defs></svg>