<svg width="21" height="20" fill="none" xmlns="http://www.w3.org/2000/svg"><path d="M20.006 5.385a5.432 5.432 0 00-1.627-3.802A5.437 5.437 0 0014.555 0C12.9 0 11.64.864 10.54 1.774h-.004c-.508 0-1.045-.306-1.664-.66C8 .619 6.916 0 5.452 0 2.49 0 .045 2.416 0 5.385c-.019 1.276.543 4.092 1.367 6.848.587 1.963 1.791 5.479 3.258 6.967.522.53 1.07.8 1.625.8.41 0 .78-.17 1.073-.493.198-.22.362-.51.5-.892.215-.593.349-1.348.491-2.146.365-2.05.721-3.62 1.691-3.625.97.006 1.327 1.575 1.691 3.624.143.8.277 1.554.492 2.147.138.381.301.673.5.892a1.42 1.42 0 001.058.493h.023c.551-.004 1.094-.273 1.613-.8 1.467-1.488 2.67-5.004 3.257-6.967.824-2.756 1.386-5.572 1.367-6.848zm-2.864 6.4c-.928 3.104-1.975 5.407-2.873 6.319-.194.197-.349.292-.449.322-.049-.068-.144-.239-.254-.627-.125-.444-.225-1.008-.331-1.604-.18-1.01-.383-2.152-.78-3.057-.665-1.518-1.684-1.85-2.431-1.857h-.038c-.746.008-1.765.34-2.43 1.857-.397.905-.6 2.048-.78 3.057-.106.596-.207 1.16-.332 1.604-.11.39-.206.56-.255.628-.099-.029-.255-.124-.451-.323-.898-.912-1.945-3.215-2.874-6.32C2 8.895 1.55 6.344 1.563 5.409c.032-2.12 1.776-3.846 3.889-3.846 1.05 0 1.862.463 2.646.91.322.183.648.37.989.522-.77.605-1.516 1.041-2.386 1.041v1.563c1.772 0 3.045-1.092 4.278-2.148 1.132-.97 2.202-1.888 3.573-1.888 2.114.008 3.86 1.733 3.892 3.846.014.934-.438 3.487-1.302 6.377z" fill="#0CCA4A"/></svg>