<svg width="121" height="13" viewBox="0 0 121 13" fill="none" xmlns="http://www.w3.org/2000/svg"><path d="M12.05.4V13H9.134V7.834H3.41V13H.494V.4H3.41v4.968h5.724V.4h2.916zm14.537 10.26V13h-9.756V.4h9.522v2.34H19.73v2.736h5.85v2.268h-5.85v2.916h6.858zM30.707.4h2.916v10.224h6.318V13h-9.234V.4zm12.664 0h2.916V13H43.37V.4zM59.015 13l-3.042-4.374L52.985 13h-3.348l4.662-6.408L49.87.4h3.312l2.898 4.086L58.925.4h3.15l-4.392 6.084L62.38 13h-3.366zm21.637 0l-2.43-3.51H75.54V13h-2.916V.4h5.454c1.116 0 2.082.186 2.898.558.828.372 1.464.9 1.908 1.584.444.684.666 1.494.666 2.43 0 .936-.228 1.746-.684 2.43-.444.672-1.08 1.188-1.908 1.548L83.784 13h-3.132zm-.054-8.028c0-.708-.228-1.248-.684-1.62-.456-.384-1.122-.576-1.998-.576H75.54v4.392h2.376c.876 0 1.542-.192 1.998-.576.456-.384.684-.924.684-1.62zm15.36 5.328h-5.85L88.992 13h-2.988L91.62.4h2.88l5.634 12.6h-3.06l-1.116-2.7zm-.918-2.214l-1.998-4.824-1.998 4.824h3.996zM103.242.4h2.916V13h-2.916V.4zm7.706 0h2.916v10.224h6.318V13h-9.234V.4z" fill="#23274B"/></svg>