<svg xmlns="http://www.w3.org/2000/svg" viewBox="0 0 121 13"><path d="M12.1.4V13h-3V7.8H3.4V13H.5V.4h2.9v5h5.7v-5h3zm14.5 10.3V13h-9.8V.4h9.5v2.3h-6.6v2.7h5.9v2.3h-5.9v2.9h6.9zM30.7.4h2.9v10.2h6.3V13h-9.2V.4zm12.7 0h2.9V13h-2.9V.4zM59 13l-3-4.4-3 4.4h-3.3l4.7-6.4L50 .4h3.3l2.9 4.1L59 .4h3.1l-4.4 6.1 4.7 6.5H59zm21.7 0l-2.4-3.5h-2.6V13h-2.9V.4h5.5c1.1 0 2.1.2 2.9.6.8.4 1.5.9 1.9 1.6s.5 1.4.5 2.4-.2 1.7-.7 2.4c-.4.7-1.1 1.2-1.9 1.5l2.8 4.1h-3.1zm-.1-8c0-.7-.2-1.2-.7-1.6-.5-.4-1.1-.6-2-.6h-2.4v4.4h2.4c.9 0 1.5-.2 2-.6s.7-.9.7-1.6zM96 10.3h-5.8L89 13h-3L91.6.4h2.9l5.6 12.6H97l-1-2.7zm-1-2.2l-2-4.8-2 4.8h4zm8.2-7.7h2.9V13h-2.9V.4zm7.7 0h2.9v10.2h6.3V13h-9.2V.4z" fill="#7c7f9e"/></svg>