<svg width="973" height="232" xmlns="http://www.w3.org/2000/svg"><path d="M652.55 22c4.509 0 7.45 3.18 7.45 8s-2.941 8-7.45 8c-4.609 0-7.55-3.18-7.55-8s2.941-8 7.55-8zm-16.844 0c3.594 0 6.882 1.846 7.192 5.743h-4.11c-.206-1.64-1.337-2.563-3.082-2.563-2.671 0-3.493 2.667-3.493 4.922 0 2.154.822 4.718 3.39 4.718 1.952 0 3.081-1.23 3.39-3.076H643c-.513 4-3.392 6.256-7.294 6.256-4.624 0-7.706-3.282-7.706-7.794 0-4.718 2.774-8.206 7.706-8.206zm-10.74 10.24c1.51 0 2.692 1.067 2.692 2.33 0 1.36-1.183 2.43-2.691 2.43-1.506 0-2.69-1.07-2.69-2.43 0-1.263 1.184-2.33 2.69-2.33zM574.497 6.09l-.001 3.96-3.915.001c-7.583 0-11.58 6.077-11.58 11.941 0 5.757 3.792 11.942 11.888 11.942h9.12c.512 0 1.024-.214 1.434-.64a2.14 2.14 0 00.616-1.491V12.29c0-.534.205-.96.512-1.065.41-.108.717.105 1.025.424 2.458 4.266 12.705 21.22 12.808 21.433.41.746 1.23 1.066 1.949.852.51-.214 1.125-.852 1.125-2.025V12.29c0-.534.206-.96.615-1.065.307-.108.615.105.924.424 2.459 4.266 12.705 21.22 12.809 21.433.51.746 1.228 1.066 1.946.852.614-.214 1.229-.852 1.229-2.025V6.09h3v25.256c0 6.518-7.603 7.536-10.744 2.342l-6.586-10.897v8.555c.101 6.518-7.5 7.536-10.642 2.342l-6.587-10.897v7.74c0 3.973-2.331 6.11-5.877 6.11h-8.412c-21.384 0-21.585-30.55-.305-30.55h3.648zM679.2 21.267c3.379 0 5.703 1.514 5.703 5.346v9.982h-4.224v-8.47c0-2.017-.212-3.63-2.64-3.63-2.43 0-2.852 1.916-2.852 3.83v8.27h-4.329v-8.949c-.01-1.558-.189-3.151-2.535-3.151-.844 0-2.956.504-2.956 3.428v8.672h-4.119V21.672h3.907v2.017h.106c1.056-1.513 2.746-2.421 4.752-2.421 1.901 0 3.696.706 4.54 2.522.845-1.312 2.535-2.522 4.647-2.522zm-26.65 3.912c-2.745 0-3.529 2.359-3.529 4.82 0 2.461.784 4.82 3.53 4.82 2.647 0 3.529-2.359 3.529-4.82 0-2.461-.882-4.82-3.53-4.82zM605.104 9.86c3.951 6.721 6.18 10.693 6.18 10.693V6.091h4.693V31.91c0 .533-.205.96-.512 1.066-.308 0-.615-.106-.82-.426-.104-.212-10.248-17.168-12.81-21.432-.512-.747-1.332-1.066-2.05-.852-.818.212-1.229 1.065-1.229 2.025V31.91c0 .533-.203.96-.513 1.066-.306 0-.614-.106-.82-.426-.1-.212-10.35-17.168-12.807-21.432-.513-.747-1.333-1.066-2.05-.852-.82.212-1.333 1.065-1.333 2.025v19.513c0 .534-.41 1.066-1.024 1.066h-9.12c-7.48 0-10.862-5.65-10.862-10.877 0-5.436 3.586-10.875 10.554-10.875l3.915-.001v3.63h-4.053c-8.817 0-9.729 13.24.608 13.24h4.763c.507 0 .912-.51.912-1.019V11.692c0-5.703 7.296-8.452 11.149-1.832 3.952 6.721 6.18 10.693 6.18 10.693v-8.861c0-5.703 7.197-8.452 11.049-1.832zM404.42 6.09c1.233 3.217 2.06 5.36 3.29 8.669 1.323-3.18 2.272-5.328 3.651-8.669h5.561c-2.233 5.407-4.428 10.341-6.58 15.512 2.16 5.507 4.51 11.572 6.658 17.398-1.772-.256-4.073-.591-5.847-.825-1.272-3.581-2.43-6.262-3.704-9.733-1.276 3.258-2.435 5.7-3.711 8.872-1.777-.201-3.617-.462-5.396-.64a1110.174 1110.174 0 006.485-15.16c-2.068-5.345-3.932-10.392-5.968-15.425zM297.888 6c2.195 7.17 4.384 11.684 6.572 18.504.009-6.989.02-11.516.029-18.504h5.09l-.052 30.658c-1.78.182-3.73.435-5.507.64-2.267-6.406-3.664-10.383-5.938-17.122-.004 6.848-.008 11.058-.014 17.904-1.652.219-3.418.446-5.068.683V6zm31.924 0c-.002 1.463.034 3.566.032 5.03a382 382 0 01-3.372.011h-1.403c-1.335 0-2.673.003-4.038.02-.006 2.691-.012 4.167-.015 6.858 2.169-.042 4.499-.046 6.704-.087l-.008 5.054c-2.226.04-4.527.006-6.706.044l-.015 7.61c2.981-.207 5.843-.405 8.835-.595l-.008 5.031c-4.6.274-9.198.626-13.79 1.057L316.081 6zm45.676 0c.013 8.378-.03 15.977-.018 24.354 2.865.123 5.847.331 8.71.505.003 1.505.004 3.67.008 5.174-4.523-.323-9.285-.51-13.815-.685-.01-9.783.034-19.565.021-29.348zm18.823 0c.017 10.011.005 20.03 0 30.033a371.565 371.565 0 00-4.545-.416L389.714 6zm-45.125 0l-.001 4.026v1.063c-1.853.004-3.767.01-5.62.016l-.023 23.858c-1.754.042-3.63.096-5.383.16.01-8.236.022-15.759.033-23.993h-.554c-.719 0-1.439-.005-2.158-.013-.72-.007-1.44-.013-2.16-.013l-.713.001.008-5.105zm17.497 0l.004 5.037a817.917 817.917 0 00-4.015-.007h-4.889l.002 4.828v1.75h.763c.668 0 1.348-.003 2.031-.005.684-.002 1.371-.004 2.05-.004.635 0 1.262.001 1.878.009l.004 4.987a140.89 140.89 0 00-1.989-.012c-.653 0-1.31.003-1.965.005-.655.003-1.308.006-1.95.006-.275 0-.549 0-.82-.002 0 3.99.002 7.632.003 11.62a432.096 432.096 0 00-4.92-.009L352.876 6zM17.128 31.289c8.592 4.872 19.218 7.806 30.193 7.806 7.403 0 15.541-1.497 23.03-4.592 1.129-.467 2.075.725.97 1.52-6.68 4.803-16.363 7.358-24.702 7.358-11.687 0-22.21-4.21-30.175-11.217-.625-.55-.067-1.302.684-.875zm59.647-.469c.706.886-.184 7.02-3.63 9.946-.53.45-1.035.21-.8-.384.775-1.966 2.512-6.368 1.69-7.437-.822-1.068-5.432-.506-7.503-.254-.627.076-.725-.48-.159-.883 3.677-2.623 9.702-1.865 10.402-.988zM88.935 8C94.168 8 97 12.693 97 18.659 97 24.426 93.873 29 88.934 29 83.8 29 81 24.307 81 18.46 81 12.574 83.831 8 88.934 8zm55.857 0C149.608 8 152 13.141 152 18.44c0 5.617-2.65 10.56-7.628 10.56l-.128-.002-.134.002c-4.912 0-7.11-5.3-7.11-10.599C137 12.825 139.586 8 144.53 8l.128.001.134-.001zM54.55 8c1.73 0 3.992.477 5.356 1.83 1.666 1.608 1.573 3.733 1.564 6.055v5.993c0 1.722.692 2.478 1.342 3.406.227.334.278.732-.012.976-.726.629-2.017 1.787-2.727 2.44l-.008-.008a.717.717 0 01-.84.086c-1.182-1.015-1.393-1.484-2.039-2.45C55.234 28.385 53.851 29 51.323 29 48.329 29 46 27.09 46 23.273c0-2.983 1.564-5.011 3.793-6.006 1.929-.875 4.624-1.034 6.686-1.273v-.477c0-.875.067-1.91-.432-2.665-.433-.676-1.264-.954-1.996-.954-1.357 0-2.562.718-2.859 2.206-.06.331-.295.659-.617.676l-3.447-.386c-.291-.067-.614-.308-.53-.768C47.39 9.306 51.165 8 54.55 8zm-46 0c1.73 0 3.992.477 5.356 1.83 1.73 1.67 1.564 3.897 1.564 6.323v5.725c0 1.722.692 2.478 1.342 3.406.227.334.278.732-.012.976-.726.629-2.017 1.787-2.727 2.44l-.008-.008a.717.717 0 01-.84.086c-1.182-1.015-1.393-1.484-2.039-2.45C9.234 28.385 7.851 29 5.323 29 2.329 29 0 27.09 0 23.273c0-2.983 1.564-5.011 3.792-6.006 1.93-.875 4.625-1.034 6.687-1.273v-.477c0-.875.067-1.91-.432-2.665-.433-.676-1.264-.954-1.996-.954-1.357 0-2.563.718-2.859 2.206-.061.331-.295.659-.617.676l-3.447-.386c-.291-.067-.615-.308-.53-.768C1.388 9.306 5.164 8 8.55 8zm119.926 0c3.48 0 5.964 2.76 6.503 6.884 0 .31-.278.578-.606.617l-1.57-.019c-.327-.048-.543-.34-.592-.664-.378-2.302-1.663-4.133-3.804-4.205-3.41.112-4.38 4.43-4.38 7.749 0 3.202.809 7.87 4.219 7.986 2.266-.073 3.456-1.942 3.95-4.366.096-.301.322-.534.652-.534l1.5-.007c.353.02.677.298.65.637-.692 4.122-3.11 6.922-6.555 6.922l-.139-.002-.13.002C123.16 29 121 23.82 121 18.56 121 13.338 123.192 8 128.207 8l.133.001.136-.001zm43.473 0c1.727 0 3.39 1.113 4.253 2.803.831 1.611.798 3.761.798 5.566v10.976c0 .35-.282.632-.64.655h-1.564a.675.675 0 01-.658-.566V16.369c0-1.306.067-2.688-.465-3.878-.543-1.218-1.578-1.975-2.691-2.03-1.243.06-2.384.962-3.121 2.184-.907 1.481-.93 2.827-.93 4.516V27.44a.674.674 0 01-.634.56h-1.556a.67.67 0 01-.665-.656l-.007-11.705c0-1.075-.066-2.342-.565-3.301-.574-1.105-1.605-1.82-2.686-1.877-1.121.062-2.255.917-2.927 1.915-.864 1.267-1.03 2.841-1.03 4.453l-.001 10.516c0 .35-.282.632-.64.655h-1.556a.669.669 0 01-.664-.656V9.099a.67.67 0 01.637-.6h1.307c.36 0 .655.262.684.6v2.66c.93-2.108 2.66-3.759 4.85-3.759l.136.002.132-.002c2.321 0 4.02 1.71 4.652 4.194C167.38 9.741 169.235 8 171.679 8l.127.002.143-.002zM109.13 8c1.527 0 3.023.58 3.978 2.162.891 1.468.891 3.939.891 5.715v11.545a.657.657 0 01-.653.578h-3.417a.656.656 0 01-.607-.578V17.46c0-2.008.222-4.942-2.132-4.942-.828 0-1.591.579-1.973 1.467-.477 1.12-.541 2.24-.541 3.475v9.88a.667.667 0 01-.664.66h-3.396a.657.657 0 01-.612-.659L100 8.986a.657.657 0 01.655-.599h3.162a.654.654 0 01.605.513v2.807h.064c.955-2.51 2.29-3.707 4.645-3.707zM37.958 8c1.496 0 3.126.618 4.124 2.008 1.13 1.544.898 3.784.898 5.753l-.002 11.578a.674.674 0 01-.688.661h-3.559a.67.67 0 01-.64-.659v-9.727c0-.772.066-2.702-.1-3.436-.266-1.236-1.064-1.583-2.095-1.583-.865 0-1.763.579-2.13 1.506-.334.849-.334 2.217-.332 3.243v9.995a.673.673 0 01-.686.661h-3.56a.67.67 0 01-.64-.659l-.003-9.727c0-2.046.333-5.058-2.195-5.058-2.561 0-2.461 2.935-2.461 5.058l-.002 9.725A.673.673 0 0123.2 28h-3.563a.672.672 0 01-.637-.604l.002-18.348c0-.367.308-.66.688-.66l3.318-.002a.673.673 0 01.648.617v2.395h.067C24.588 9.08 26.217 8 28.413 8c2.227 0 3.624 1.081 4.623 3.398C33.9 9.08 35.862 8 37.958 8zM118 25c1.105 0 2 .672 2 1.5s-.895 1.5-2 1.5c-1.104 0-2-.672-2-1.5s.896-1.5 2-1.5zM78.977 9c.372 0 .671.27.672.656v2.226c-.003.373-.318.86-.878 1.634l-6.036 8.603c2.24-.052 4.611.282 6.647 1.425.459.257.582.64.618 1.013v2.77c0 .381-.418.823-.858.593-3.587-1.876-8.347-2.08-12.313.023-.405.215-.829-.22-.829-.602V24.71c0-.422.008-1.142.433-1.784l6.994-10.016-6.089-.001c-.372 0-.67-.265-.673-.654V9.66a.642.642 0 01.659-.66h11.653zm65.49 1.534c-1.53.059-2.894 1.153-3.585 2.844-.614 1.464-.808 3.402-.808 5.023 0 1.82.226 3.915.937 5.497.69 1.499 2.023 2.475 3.461 2.529 1.617-.056 2.892-1.115 3.646-2.885.679-1.582.808-3.4.808-5.14 0-1.9-.194-3.877-1.034-5.498-.753-1.418-2.05-2.317-3.425-2.37zm-87.988 8.404c-2.573 0-5.29.569-5.29 3.698 0 1.591.8 2.665 2.163 2.665.998 0 1.896-.636 2.462-1.67.605-1.103.661-2.147.665-3.337zm-46 0c-2.572 0-5.29.569-5.29 3.698 0 1.591.8 2.665 2.163 2.665.998 0 1.897-.636 2.462-1.67.606-1.103.661-2.147.665-3.337zm78.488-7.08c-2.6 0-2.765 3.699-2.765 6.005v.316c.002 2.411.087 6.923 2.732 6.923 2.733 0 2.865-3.977 2.865-6.403 0-1.59-.066-3.5-.527-5.011-.395-1.313-1.186-1.83-2.305-1.83zm825.513-1.265l9.388 18.854 9.357-18.854h5.81L922.084 44h-6.14l4.872-9.276-12.755-24.131h6.418zM862.367 0l-.002 13.889c2.68-3.228 6.372-4.167 10.011-4.167 6.093 0 12.864 4.16 12.864 13.134 0 7.52-5.386 12.996-12.966 12.996-3.969 0-7.706-1.44-10.01-4.293 0 1.14-.061 2.29-.184 3.375h-5.368c.093-1.754.187-3.941.187-5.712l-.001-4.541h-22.156c.304 5.082 3.834 8.089 8.687 8.089 3.356 0 6.349-1.358 7.347-4.318h5.817c-1.13 6.002-7.554 8.037-13.082 8.037-10.056 0-14.511-5.494-14.511-12.905 0-8.165 4.606-13.532 14.603-13.532 6.606 0 11.745 2.85 13.296 8.984V0h5.468zm36.828 9.778c6.47 0 11.94 2.33 11.94 9.264V30.32c0 1.604.048 3.186.187 4.616h-5.074a30.944 30.944 0 01-.185-3.478c-2.74 3.415-6 4.395-10.524 4.395-6.709 0-10.3-3.593-10.3-7.747 0-6.006 4.885-8.132 13.365-8.327a321.64 321.64 0 017.082-.06v-.586c0-4.027-2.552-5.685-6.969-5.685-3.284 0-5.703 1.373-5.952 3.751h-5.725c.603-5.924 6.754-7.42 12.155-7.42zm6.49 13.606c-2.006 0-4.479.017-6.705.092-4.946.166-8.014 1.065-8.014 4.363 0 2.132 1.677 4.444 5.947 4.444 5.72 0 8.773-3.153 8.773-8.328v-.57zm-34.756-9.88c-5.054 0-8.562 3.7-8.562 9.284 0 5.584 3.508 9.28 8.562 9.28 5.082 0 8.562-3.696 8.562-9.28s-3.48-9.283-8.562-9.283zm-27.564.265c-4.386 0-7.89 2.205-8.502 7.198h16.594c-.217-5.237-4.024-7.198-8.092-7.198zm99.092-3.991v.672h.638v.348h-.638v1.47c0 .275.066.421.329.421l.324-.031v.347l-.406.032c-.42 0-.661-.163-.661-.73v-1.51h-.564v-.347h.564v-.672h.414zm4.53.815c.628 0 1.013.328 1.013 1.093v1.351h-.43v-1.18c0-.57-.153-.945-.622-.945-.376 0-.763.276-.763 1.052v1.073h-.429v-1.209c0-.63-.203-.916-.596-.916-.378 0-.792.29-.792.987v1.138h-.425v-1.82c0-.179-.011-.348-.018-.537h.401l.015.418h.009c.254-.36.567-.505.927-.505.372 0 .677.194.803.59.156-.32.5-.59.908-.59zM918.55 116c4.509 0 7.45 3.18 7.45 8s-2.941 8-7.45 8c-4.609 0-7.55-3.18-7.55-8s2.941-8 7.55-8zm-16.844 0c3.594 0 6.882 1.846 7.192 5.743h-4.11c-.206-1.64-1.337-2.563-3.082-2.563-2.671 0-3.493 2.667-3.493 4.922 0 2.154.822 4.718 3.39 4.718 1.952 0 3.081-1.23 3.39-3.076H909c-.513 4-3.392 6.256-7.294 6.256-4.624 0-7.706-3.282-7.706-7.794 0-4.718 2.774-8.206 7.706-8.206zm-10.74 10.24c1.51 0 2.692 1.067 2.692 2.33 0 1.36-1.183 2.43-2.691 2.43-1.506 0-2.69-1.07-2.69-2.43 0-1.263 1.184-2.33 2.69-2.33zm-50.47-26.149l-.001 3.96-3.915.001c-7.583 0-11.58 6.077-11.58 11.941 0 5.757 3.792 11.942 11.888 11.942h9.12c.512 0 1.024-.214 1.434-.64a2.14 2.14 0 00.616-1.491V106.29c0-.534.205-.96.512-1.065.41-.108.717.105 1.025.424 2.458 4.266 12.705 21.22 12.808 21.433.41.746 1.23 1.066 1.949.852.51-.214 1.125-.852 1.125-2.025V106.29c0-.534.206-.96.615-1.065.307-.108.615.105.924.424 2.459 4.266 12.705 21.22 12.809 21.433.51.746 1.228 1.066 1.946.852.614-.214 1.229-.852 1.229-2.025V100.09h3v25.256c0 6.518-7.603 7.536-10.744 2.342l-6.586-10.897v8.555c.101 6.518-7.5 7.536-10.642 2.342l-6.587-10.897v7.74c0 3.973-2.331 6.11-5.877 6.11h-8.412c-21.384 0-21.585-30.55-.305-30.55h3.648zm104.703 15.177c3.379 0 5.703 1.514 5.703 5.346v9.982h-4.224v-8.47c0-2.017-.212-3.63-2.64-3.63-2.43 0-2.852 1.916-2.852 3.83v8.27h-4.329v-8.949c-.01-1.558-.189-3.151-2.535-3.151-.844 0-2.956.504-2.956 3.428v8.672h-4.119v-14.924h3.907v2.017h.106c1.056-1.513 2.746-2.421 4.752-2.421 1.901 0 3.696.706 4.54 2.522.845-1.312 2.535-2.522 4.647-2.522zm-26.65 3.912c-2.745 0-3.529 2.359-3.529 4.82 0 2.461.784 4.82 3.53 4.82 2.647 0 3.529-2.359 3.529-4.82 0-2.461-.882-4.82-3.53-4.82zm-47.446-15.32c3.951 6.721 6.18 10.693 6.18 10.693v-14.462h4.693v25.819c0 .533-.205.96-.512 1.066-.308 0-.615-.106-.82-.426-.104-.212-10.248-17.168-12.81-21.432-.512-.747-1.332-1.066-2.05-.852-.818.212-1.229 1.065-1.229 2.025v19.619c0 .533-.203.96-.513 1.066-.306 0-.614-.106-.82-.426-.1-.212-10.35-17.168-12.807-21.432-.513-.747-1.333-1.066-2.05-.852-.82.212-1.333 1.065-1.333 2.025v19.513c0 .534-.41 1.066-1.024 1.066h-9.12c-7.48 0-10.862-5.65-10.862-10.877 0-5.436 3.586-10.875 10.554-10.875l3.915-.001v3.63h-4.053c-8.817 0-9.729 13.24.608 13.24h4.763c.507 0 .912-.51.912-1.019v-15.276c0-5.703 7.296-8.452 11.149-1.832 3.952 6.721 6.18 10.693 6.18 10.693v-8.861c0-5.703 7.197-8.452 11.049-1.832zm-201.683-3.77c1.233 3.217 2.06 5.36 3.29 8.669 1.323-3.18 2.272-5.328 3.651-8.669h5.561c-2.233 5.407-4.428 10.341-6.58 15.512 2.16 5.507 4.51 11.572 6.658 17.398-1.772-.256-4.073-.591-5.847-.825-1.272-3.581-2.43-6.262-3.704-9.733-1.276 3.258-2.435 5.7-3.711 8.872-1.777-.201-3.617-.462-5.396-.64a1110.174 1110.174 0 006.485-15.16c-2.068-5.345-3.932-10.392-5.968-15.425zM562.888 100c2.195 7.17 4.384 11.684 6.572 18.504.009-6.989.02-11.516.029-18.504h5.09l-.052 30.658c-1.78.182-3.73.435-5.507.64-2.267-6.406-3.664-10.383-5.938-17.122-.004 6.848-.008 11.058-.014 17.904-1.652.219-3.418.446-5.068.683V100zm31.924 0c-.002 1.463.034 3.566.032 5.03a382 382 0 01-3.372.011h-1.403c-1.335 0-2.673.003-4.038.02-.006 2.691-.012 4.167-.015 6.858 2.169-.042 4.499-.046 6.704-.087l-.008 5.054c-2.226.04-4.527.006-6.706.044l-.015 7.61c2.981-.207 5.843-.405 8.835-.595l-.008 5.031c-4.6.274-9.198.626-13.79 1.057l.054-30.033zm45.676 0c.013 8.378-.03 15.977-.018 24.354 2.865.123 5.847.331 8.71.505.003 1.505.004 3.67.008 5.174-4.523-.323-9.285-.51-13.815-.685-.01-9.783.034-19.565.021-29.348zm18.823 0c.017 10.011.005 20.03 0 30.033a371.565 371.565 0 00-4.545-.416L654.714 100zm-45.125 0l-.001 4.026v1.063c-1.853.004-3.767.01-5.62.016l-.023 23.858c-1.754.042-3.63.096-5.383.16.01-8.236.022-15.759.033-23.993h-.554c-.719 0-1.439-.005-2.158-.013-.72-.007-1.44-.013-2.16-.013l-.713.001.008-5.105zm17.497 0l.004 5.037a817.917 817.917 0 00-4.015-.007h-4.889l.002 4.828v1.75h.763c.668 0 1.348-.003 2.031-.005.684-.002 1.371-.004 2.05-.004.635 0 1.262.001 1.878.009l.004 4.987a140.89 140.89 0 00-1.989-.012c-.653 0-1.31.003-1.965.005-.655.003-1.308.006-1.95.006-.275 0-.549 0-.82-.002 0 3.99.002 7.632.003 11.62a432.096 432.096 0 00-4.92-.009l.005-28.203zm-348.555 25.289c8.592 4.872 19.218 7.806 30.193 7.806 7.403 0 15.541-1.497 23.03-4.592 1.129-.467 2.075.725.97 1.52-6.68 4.803-16.363 7.358-24.702 7.358-11.687 0-22.21-4.21-30.175-11.217-.625-.55-.067-1.302.684-.875zm59.647-.469c.706.886-.184 7.02-3.63 9.946-.53.45-1.035.21-.8-.384.775-1.966 2.512-6.368 1.69-7.437-.822-1.068-5.432-.506-7.503-.254-.627.076-.725-.48-.159-.883 3.677-2.623 9.702-1.865 10.402-.988zm12.16-22.82c5.234 0 8.065 4.693 8.065 10.659 0 5.767-3.127 10.341-8.066 10.341-5.135 0-7.934-4.693-7.934-10.54 0-5.886 2.831-10.46 7.934-10.46zm55.857 0c4.816 0 7.208 5.141 7.208 10.44 0 5.617-2.65 10.56-7.628 10.56l-.128-.002-.134.002c-4.912 0-7.11-5.3-7.11-10.599 0-5.576 2.586-10.401 7.53-10.401l.128.001.134-.001zm-90.242 0c1.73 0 3.992.477 5.356 1.83 1.666 1.608 1.573 3.733 1.564 6.055v5.993c0 1.722.692 2.478 1.342 3.406.227.334.278.732-.012.976-.726.629-2.017 1.787-2.727 2.44l-.008-.008a.717.717 0 01-.84.086c-1.182-1.015-1.393-1.484-2.039-2.45-1.952 2.056-3.335 2.672-5.863 2.672-2.994 0-5.323-1.91-5.323-5.727 0-2.983 1.564-5.011 3.793-6.006 1.929-.875 4.624-1.034 6.686-1.273v-.477c0-.875.067-1.91-.432-2.665-.433-.676-1.264-.954-1.996-.954-1.357 0-2.562.718-2.859 2.206-.06.331-.295.659-.617.676l-3.447-.386c-.291-.067-.614-.308-.53-.768.792-4.32 4.568-5.626 7.952-5.626zm-46 0c1.73 0 3.992.477 5.356 1.83 1.73 1.67 1.564 3.897 1.564 6.323v5.725c0 1.722.692 2.478 1.342 3.406.227.334.278.732-.012.976-.726.629-2.017 1.787-2.727 2.44l-.008-.008a.717.717 0 01-.84.086c-1.182-1.015-1.393-1.484-2.039-2.45-1.952 2.056-3.335 2.672-5.863 2.672-2.994 0-5.323-1.91-5.323-5.727 0-2.983 1.564-5.011 3.792-6.006 1.93-.875 4.625-1.034 6.687-1.273v-.477c0-.875.067-1.91-.432-2.665-.433-.676-1.264-.954-1.996-.954-1.357 0-2.563.718-2.859 2.206-.061.331-.295.659-.617.676l-3.447-.386c-.291-.067-.615-.308-.53-.768.791-4.32 4.567-5.626 7.952-5.626zm119.926 0c3.48 0 5.964 2.76 6.503 6.884 0 .31-.278.578-.606.617l-1.57-.019c-.327-.048-.543-.34-.592-.664-.378-2.302-1.663-4.133-3.804-4.205-3.41.112-4.38 4.43-4.38 7.749 0 3.202.809 7.87 4.219 7.986 2.266-.073 3.456-1.942 3.95-4.366.096-.301.322-.534.652-.534l1.5-.007c.353.02.677.298.65.637-.692 4.122-3.11 6.922-6.555 6.922l-.139-.002-.13.002c-5.015 0-7.174-5.18-7.174-10.44 0-5.221 2.192-10.56 7.207-10.56l.133.001.136-.001zm43.473 0c1.727 0 3.39 1.113 4.253 2.803.831 1.611.798 3.761.798 5.566v10.976c0 .35-.282.632-.64.655h-1.564a.675.675 0 01-.658-.566v-11.065c0-1.306.067-2.688-.465-3.878-.543-1.218-1.578-1.975-2.691-2.03-1.243.06-2.384.962-3.121 2.184-.907 1.481-.93 2.827-.93 4.516v10.279a.674.674 0 01-.634.56h-1.556a.67.67 0 01-.665-.656l-.007-11.705c0-1.075-.066-2.342-.565-3.301-.574-1.105-1.605-1.82-2.686-1.877-1.121.062-2.255.917-2.927 1.915-.864 1.267-1.03 2.841-1.03 4.453l-.001 10.516c0 .35-.282.632-.64.655h-1.556a.669.669 0 01-.664-.656v-18.245a.67.67 0 01.637-.6h1.307c.36 0 .655.262.684.6v2.66c.93-2.108 2.66-3.759 4.85-3.759l.136.002.132-.002c2.321 0 4.02 1.71 4.652 4.194.983-2.453 2.837-4.194 5.281-4.194l.127.002.143-.002zm-62.818 0c1.527 0 3.023.58 3.978 2.162.891 1.468.891 3.939.891 5.715v11.545a.657.657 0 01-.653.578h-3.417a.656.656 0 01-.607-.578v-9.962c0-2.008.222-4.942-2.132-4.942-.828 0-1.591.579-1.973 1.467-.477 1.12-.541 2.24-.541 3.475v9.88a.667.667 0 01-.664.66h-3.396a.657.657 0 01-.612-.659L366 102.986a.657.657 0 01.655-.599h3.162a.654.654 0 01.605.513v2.807h.064c.955-2.51 2.29-3.707 4.645-3.707zm-71.173 0c1.496 0 3.126.618 4.124 2.008 1.13 1.544.898 3.784.898 5.753l-.002 11.578a.674.674 0 01-.688.661h-3.559a.67.67 0 01-.64-.659v-9.727c0-.772.066-2.702-.1-3.436-.266-1.236-1.064-1.583-2.095-1.583-.865 0-1.763.579-2.13 1.506-.334.849-.334 2.217-.332 3.243v9.995a.673.673 0 01-.686.661h-3.56a.67.67 0 01-.64-.659l-.003-9.727c0-2.046.333-5.058-2.195-5.058-2.561 0-2.461 2.935-2.461 5.058l-.002 9.725a.673.673 0 01-.687.661h-3.563a.672.672 0 01-.637-.604l.002-18.348c0-.367.308-.66.688-.66l3.318-.002a.673.673 0 01.648.617v2.395h.067c.865-2.317 2.494-3.398 4.69-3.398 2.227 0 3.624 1.081 4.623 3.398.864-2.317 2.826-3.398 4.922-3.398zM384 119c1.105 0 2 .672 2 1.5s-.895 1.5-2 1.5c-1.104 0-2-.672-2-1.5s.896-1.5 2-1.5zm-39.023-16c.372 0 .671.27.672.656v2.226c-.003.373-.318.86-.878 1.634l-6.036 8.603c2.24-.052 4.611.282 6.647 1.425.459.257.582.64.618 1.013v2.77c0 .381-.418.823-.858.593-3.587-1.876-8.347-2.08-12.313.023-.405.215-.829-.22-.829-.602v-2.632c0-.422.008-1.142.433-1.784l6.994-10.016-6.089-.001c-.372 0-.67-.265-.673-.654v-2.595a.642.642 0 01.659-.658l11.653-.001zm65.49 1.534c-1.53.059-2.894 1.153-3.585 2.844-.614 1.464-.808 3.402-.808 5.023 0 1.82.226 3.915.937 5.497.69 1.499 2.023 2.475 3.461 2.529 1.617-.056 2.892-1.115 3.646-2.885.679-1.582.808-3.4.808-5.14 0-1.9-.194-3.877-1.034-5.498-.753-1.418-2.05-2.317-3.425-2.37zm-87.988 8.404c-2.573 0-5.29.569-5.29 3.698 0 1.591.8 2.665 2.163 2.665.998 0 1.896-.636 2.462-1.67.605-1.103.661-2.147.665-3.337zm-46 0c-2.572 0-5.29.569-5.29 3.698 0 1.591.8 2.665 2.163 2.665.998 0 1.897-.636 2.462-1.67.606-1.103.661-2.147.665-3.337zm78.488-7.08c-2.6 0-2.765 3.699-2.765 6.005v.316c.002 2.411.087 6.923 2.732 6.923 2.733 0 2.865-3.977 2.865-6.403 0-1.59-.066-3.5-.527-5.011-.395-1.313-1.186-1.83-2.305-1.83zm-236.487-1.265l9.388 18.854 9.357-18.854h5.81L126.084 138h-6.14l4.872-9.276-12.755-24.131h6.418zM66.367 94l-.002 13.889c2.68-3.228 6.372-4.167 10.011-4.167 6.093 0 12.864 4.16 12.864 13.134 0 7.52-5.386 12.996-12.966 12.996-3.969 0-7.706-1.44-10.01-4.293 0 1.14-.061 2.29-.184 3.375h-5.368c.093-1.754.187-3.941.187-5.712l-.001-4.541H38.742c.304 5.082 3.834 8.089 8.687 8.089 3.356 0 6.349-1.358 7.347-4.318h5.817c-1.13 6.002-7.554 8.037-13.082 8.037-10.056 0-14.511-5.494-14.511-12.905 0-8.165 4.606-13.532 14.603-13.532 6.606 0 11.745 2.85 13.296 8.984V94h5.468zm36.828 9.778c6.47 0 11.94 2.33 11.94 9.264v11.277c0 1.604.048 3.186.187 4.616h-5.074a30.944 30.944 0 01-.185-3.478c-2.74 3.415-6 4.395-10.524 4.395-6.709 0-10.3-3.593-10.3-7.747 0-6.006 4.885-8.132 13.365-8.327a321.64 321.64 0 017.082-.06v-.586c0-4.027-2.552-5.685-6.969-5.685-3.284 0-5.703 1.373-5.952 3.751H91.04c.603-5.924 6.754-7.42 12.155-7.42zm6.49 13.606c-2.006 0-4.479.017-6.705.092-4.946.166-8.014 1.065-8.014 4.363 0 2.132 1.677 4.444 5.947 4.444 5.72 0 8.773-3.153 8.773-8.328v-.57zm-34.756-9.88c-5.054 0-8.562 3.7-8.562 9.284 0 5.584 3.508 9.28 8.562 9.28 5.082 0 8.562-3.696 8.562-9.28s-3.48-9.283-8.562-9.283zm-27.564.265c-4.386 0-7.89 2.205-8.502 7.198h16.594c-.217-5.237-4.024-7.198-8.092-7.198zm99.092-3.991v.672h.638v.348h-.638v1.47c0 .275.066.421.329.421l.324-.031v.347l-.406.032c-.42 0-.661-.163-.661-.73v-1.51h-.564v-.347h.564v-.672h.414zm4.53.815c.628 0 1.013.328 1.013 1.093v1.351h-.43v-1.18c0-.57-.153-.945-.622-.945-.376 0-.763.276-.763 1.052v1.073h-.429v-1.209c0-.63-.203-.916-.596-.916-.378 0-.792.29-.792.987v1.138h-.425v-1.82c0-.179-.011-.348-.018-.537h.401l.015.418h.009c.254-.36.567-.505.927-.505.372 0 .677.194.803.59.156-.32.5-.59.908-.59zM387.55 210c4.509 0 7.45 3.18 7.45 8s-2.941 8-7.45 8c-4.609 0-7.55-3.18-7.55-8s2.941-8 7.55-8zm-16.844 0c3.594 0 6.882 1.846 7.192 5.743h-4.11c-.206-1.64-1.337-2.563-3.082-2.563-2.671 0-3.493 2.667-3.493 4.922 0 2.154.822 4.718 3.39 4.718 1.952 0 3.081-1.23 3.39-3.076H378c-.513 4-3.392 6.256-7.294 6.256-4.624 0-7.706-3.282-7.706-7.794 0-4.718 2.774-8.206 7.706-8.206zm-10.74 10.24c1.51 0 2.692 1.067 2.692 2.33 0 1.36-1.183 2.43-2.691 2.43-1.506 0-2.69-1.07-2.69-2.43 0-1.263 1.184-2.33 2.69-2.33zm-50.47-26.149l-.001 3.96-3.915.001c-7.583 0-11.58 6.077-11.58 11.941 0 5.757 3.792 11.942 11.888 11.942h9.12c.512 0 1.024-.214 1.434-.64a2.14 2.14 0 00.616-1.491V200.29c0-.534.205-.96.512-1.065.41-.108.717.105 1.025.424 2.458 4.266 12.705 21.22 12.808 21.433.41.746 1.23 1.066 1.949.852.51-.214 1.125-.852 1.125-2.025V200.29c0-.534.206-.96.615-1.065.307-.108.615.105.924.424 2.459 4.266 12.705 21.22 12.809 21.433.51.746 1.228 1.066 1.946.852.614-.214 1.229-.852 1.229-2.025V194.09h3v25.256c0 6.518-7.603 7.536-10.744 2.342l-6.586-10.897v8.555c.101 6.518-7.5 7.536-10.642 2.342l-6.587-10.897v7.74c0 3.973-2.331 6.11-5.877 6.11h-8.412c-21.384 0-21.585-30.55-.305-30.55h3.648zm104.703 15.177c3.379 0 5.703 1.514 5.703 5.346v9.982h-4.224v-8.47c0-2.017-.212-3.63-2.64-3.63-2.43 0-2.852 1.916-2.852 3.83v8.27h-4.329v-8.949c-.01-1.558-.189-3.151-2.535-3.151-.844 0-2.956.504-2.956 3.428v8.672h-4.119v-14.924h3.907v2.017h.106c1.056-1.513 2.746-2.421 4.752-2.421 1.901 0 3.696.706 4.54 2.522.845-1.312 2.535-2.522 4.647-2.522zm-26.65 3.912c-2.745 0-3.529 2.359-3.529 4.82 0 2.461.784 4.82 3.53 4.82 2.647 0 3.529-2.359 3.529-4.82 0-2.461-.882-4.82-3.53-4.82zm-47.446-15.32c3.951 6.721 6.18 10.693 6.18 10.693v-14.462h4.693v25.819c0 .533-.205.96-.512 1.066-.308 0-.615-.106-.82-.426-.104-.212-10.248-17.168-12.81-21.432-.512-.747-1.332-1.066-2.05-.852-.818.212-1.229 1.065-1.229 2.025v19.619c0 .533-.203.96-.513 1.066-.306 0-.614-.106-.82-.426-.1-.212-10.35-17.168-12.807-21.432-.513-.747-1.333-1.066-2.05-.852-.82.212-1.333 1.065-1.333 2.025v19.513c0 .534-.41 1.066-1.024 1.066h-9.12c-7.48 0-10.862-5.65-10.862-10.877 0-5.436 3.586-10.875 10.554-10.875l3.915-.001v3.63h-4.053c-8.817 0-9.729 13.24.608 13.24h4.763c.507 0 .912-.51.912-1.019v-15.276c0-5.703 7.296-8.452 11.149-1.832 3.952 6.721 6.18 10.693 6.18 10.693v-8.861c0-5.703 7.197-8.452 11.049-1.832zm-199.683-3.77c1.233 3.217 2.06 5.36 3.29 8.669 1.323-3.18 2.272-5.328 3.651-8.669h5.561c-2.233 5.407-4.428 10.341-6.58 15.512 2.16 5.507 4.51 11.572 6.658 17.398-1.772-.256-4.073-.591-5.847-.825-1.272-3.581-2.43-6.262-3.704-9.733-1.276 3.258-2.435 5.7-3.711 8.872-1.777-.201-3.617-.462-5.396-.64a1110.174 1110.174 0 006.485-15.16c-2.068-5.345-3.932-10.392-5.968-15.425zM33.888 194c2.195 7.17 4.384 11.684 6.572 18.504.009-6.989.02-11.516.029-18.504h5.09l-.052 30.658c-1.78.182-3.73.435-5.507.64-2.267-6.406-3.664-10.383-5.938-17.122-.004 6.848-.008 11.058-.014 17.904-1.652.219-3.418.446-5.068.683V194zm31.924 0c-.002 1.463.034 3.566.032 5.03a382 382 0 01-3.372.011H61.07c-1.335 0-2.673.003-4.038.02-.006 2.691-.012 4.167-.015 6.858 2.169-.042 4.499-.046 6.704-.087l-.008 5.054c-2.226.04-4.527.006-6.706.044l-.015 7.61c2.981-.207 5.843-.405 8.835-.595l-.008 5.031c-4.6.274-9.198.626-13.79 1.057L52.081 194zm45.676 0c.013 8.378-.03 15.977-.018 24.354 2.865.123 5.847.331 8.71.505.003 1.505.004 3.67.008 5.174-4.523-.323-9.285-.51-13.815-.685-.01-9.783.034-19.565.021-29.348zm18.823 0c.017 10.011.005 20.03 0 30.033a371.563 371.563 0 00-4.545-.416L125.714 194zm-45.125 0l-.001 4.026v1.063c-1.853.004-3.767.01-5.62.016l-.023 23.858c-1.754.042-3.63.096-5.383.16.01-8.236.022-15.759.033-23.993h-.554c-.719 0-1.439-.005-2.158-.013-.72-.007-1.44-.013-2.16-.013l-.713.001.008-5.105zm17.497 0l.004 5.037a817.917 817.917 0 00-4.015-.007h-4.889l.002 4.828v1.75h.763c.668 0 1.348-.003 2.031-.005.684-.002 1.371-.004 2.05-.004.635 0 1.262.001 1.878.009l.004 4.987a140.89 140.89 0 00-1.989-.012c-.653 0-1.31.003-1.965.005-.655.003-1.308.006-1.95.006-.275 0-.549 0-.82-.002 0 3.99.002 7.632.003 11.62a432.096 432.096 0 00-4.92-.009L88.876 194zm710.445 25.289c8.592 4.872 19.218 7.806 30.193 7.806 7.403 0 15.541-1.497 23.03-4.592 1.129-.467 2.075.725.97 1.52-6.68 4.803-16.363 7.358-24.702 7.358-11.687 0-22.21-4.21-30.175-11.217-.625-.55-.067-1.302.684-.875zm59.647-.469c.706.886-.184 7.02-3.63 9.946-.53.45-1.035.21-.8-.384.775-1.966 2.512-6.368 1.69-7.437-.822-1.068-5.432-.506-7.503-.254-.627.076-.725-.48-.159-.883 3.677-2.623 9.702-1.865 10.402-.988zm12.16-22.82c5.234 0 8.065 4.693 8.065 10.659 0 5.767-3.127 10.341-8.066 10.341-5.135 0-7.934-4.693-7.934-10.54 0-5.886 2.831-10.46 7.934-10.46zm55.857 0c4.816 0 7.208 5.141 7.208 10.44 0 5.617-2.65 10.56-7.628 10.56l-.128-.002-.134.002c-4.912 0-7.11-5.3-7.11-10.599 0-5.576 2.586-10.401 7.53-10.401l.128.001.134-.001zm-90.242 0c1.73 0 3.992.477 5.356 1.83 1.666 1.608 1.573 3.733 1.564 6.055v5.993c0 1.722.692 2.478 1.342 3.406.227.334.278.732-.012.976-.726.629-2.017 1.787-2.727 2.44l-.008-.008a.717.717 0 01-.84.086c-1.182-1.015-1.393-1.484-2.039-2.45-1.952 2.056-3.335 2.672-5.863 2.672-2.994 0-5.323-1.91-5.323-5.727 0-2.983 1.564-5.011 3.793-6.006 1.929-.875 4.624-1.034 6.686-1.273v-.477c0-.875.067-1.91-.432-2.665-.433-.676-1.264-.954-1.996-.954-1.357 0-2.562.718-2.859 2.206-.06.331-.295.659-.617.676l-3.447-.386c-.291-.067-.614-.308-.53-.768.792-4.32 4.568-5.626 7.952-5.626zm-46 0c1.73 0 3.992.477 5.356 1.83 1.73 1.67 1.564 3.897 1.564 6.323v5.725c0 1.722.692 2.478 1.342 3.406.227.334.278.732-.012.976-.726.629-2.017 1.787-2.727 2.44l-.008-.008a.717.717 0 01-.84.086c-1.182-1.015-1.393-1.484-2.039-2.45-1.952 2.056-3.335 2.672-5.863 2.672-2.994 0-5.323-1.91-5.323-5.727 0-2.983 1.564-5.011 3.792-6.006 1.93-.875 4.625-1.034 6.687-1.273v-.477c0-.875.067-1.91-.432-2.665-.433-.676-1.264-.954-1.996-.954-1.357 0-2.563.718-2.859 2.206-.061.331-.295.659-.617.676l-3.447-.386c-.291-.067-.615-.308-.53-.768.791-4.32 4.567-5.626 7.952-5.626zm119.926 0c3.48 0 5.964 2.76 6.503 6.884 0 .31-.278.578-.606.617l-1.57-.019c-.327-.048-.543-.34-.592-.664-.378-2.302-1.663-4.133-3.804-4.205-3.41.112-4.38 4.43-4.38 7.749 0 3.202.809 7.87 4.219 7.986 2.266-.073 3.456-1.942 3.95-4.366.096-.301.322-.534.652-.534l1.5-.007c.353.02.677.298.65.637-.692 4.122-3.11 6.922-6.555 6.922l-.139-.002-.13.002c-5.015 0-7.174-5.18-7.174-10.44 0-5.221 2.192-10.56 7.207-10.56l.133.001.136-.001zm43.473 0c1.727 0 3.39 1.113 4.253 2.803.831 1.611.798 3.761.798 5.566v10.976c0 .35-.282.632-.64.655h-1.564a.675.675 0 01-.658-.566v-11.065c0-1.306.067-2.688-.465-3.878-.543-1.218-1.578-1.975-2.691-2.03-1.243.06-2.384.962-3.121 2.184-.907 1.481-.93 2.827-.93 4.516v10.279a.674.674 0 01-.634.56h-1.556a.67.67 0 01-.665-.656l-.007-11.705c0-1.075-.066-2.342-.565-3.301-.574-1.105-1.605-1.82-2.686-1.877-1.121.062-2.255.917-2.927 1.915-.864 1.267-1.03 2.841-1.03 4.453l-.001 10.516c0 .35-.282.632-.64.655h-1.556a.669.669 0 01-.664-.656v-18.245a.67.67 0 01.637-.6h1.307c.36 0 .655.262.684.6v2.66c.93-2.108 2.66-3.759 4.85-3.759l.136.002.132-.002c2.321 0 4.02 1.71 4.652 4.194.983-2.453 2.837-4.194 5.281-4.194l.127.002.143-.002zm-62.818 0c1.527 0 3.023.58 3.978 2.162.891 1.468.891 3.939.891 5.715v11.545a.657.657 0 01-.653.578h-3.417a.656.656 0 01-.607-.578v-9.962c0-2.008.222-4.942-2.132-4.942-.828 0-1.591.579-1.973 1.467-.477 1.12-.541 2.24-.541 3.475v9.88a.667.667 0 01-.664.66h-3.396a.657.657 0 01-.612-.659L896 196.986a.657.657 0 01.655-.599h3.162a.654.654 0 01.605.513v2.807h.064c.955-2.51 2.29-3.707 4.645-3.707zm-71.173 0c1.496 0 3.126.618 4.124 2.008 1.13 1.544.898 3.784.898 5.753l-.002 11.578a.674.674 0 01-.688.661h-3.559a.67.67 0 01-.64-.659v-9.727c0-.772.066-2.702-.1-3.436-.266-1.236-1.064-1.583-2.095-1.583-.865 0-1.763.579-2.13 1.506-.334.849-.334 2.217-.332 3.243v9.995a.673.673 0 01-.686.661h-3.56a.67.67 0 01-.64-.659l-.003-9.727c0-2.046.333-5.058-2.195-5.058-2.561 0-2.461 2.935-2.461 5.058l-.002 9.725a.673.673 0 01-.687.661h-3.563a.672.672 0 01-.637-.604l.002-18.348c0-.367.308-.66.688-.66l3.318-.002a.673.673 0 01.648.617v2.395h.067c.865-2.317 2.494-3.398 4.69-3.398 2.227 0 3.624 1.081 4.623 3.398.864-2.317 2.826-3.398 4.922-3.398zM914 213c1.105 0 2 .672 2 1.5s-.895 1.5-2 1.5c-1.104 0-2-.672-2-1.5s.896-1.5 2-1.5zm-39.023-16c.372 0 .671.27.672.656v2.226c-.003.373-.318.86-.878 1.634l-6.036 8.603c2.24-.052 4.611.282 6.647 1.425.459.257.582.64.618 1.013v2.77c0 .381-.418.823-.858.593-3.587-1.876-8.347-2.08-12.313.023-.405.215-.829-.22-.829-.602v-2.632c0-.422.008-1.142.433-1.784l6.994-10.016-6.089-.001c-.372 0-.67-.265-.673-.654v-2.595a.642.642 0 01.659-.658l11.653-.001zm65.49 1.534c-1.53.059-2.894 1.153-3.585 2.844-.614 1.464-.808 3.402-.808 5.023 0 1.82.226 3.915.937 5.497.69 1.499 2.023 2.475 3.461 2.529 1.617-.056 2.892-1.115 3.646-2.885.679-1.582.808-3.4.808-5.14 0-1.9-.194-3.877-1.034-5.498-.753-1.418-2.05-2.317-3.425-2.37zm-87.988 8.404c-2.573 0-5.29.569-5.29 3.698 0 1.591.8 2.665 2.163 2.665.998 0 1.896-.636 2.462-1.67.605-1.103.661-2.147.665-3.337zm-46 0c-2.572 0-5.29.569-5.29 3.698 0 1.591.8 2.665 2.163 2.665.998 0 1.897-.636 2.462-1.67.606-1.103.661-2.147.665-3.337zm78.488-7.08c-2.6 0-2.765 3.699-2.765 6.005v.316c.002 2.411.087 6.923 2.732 6.923 2.733 0 2.865-3.977 2.865-6.403 0-1.59-.066-3.5-.527-5.011-.395-1.313-1.186-1.83-2.305-1.83zm-244.487-1.265l9.388 18.854 9.357-18.854h5.81L648.084 232h-6.14l4.872-9.276-12.755-24.131h6.418zM588.367 188l-.002 13.889c2.68-3.228 6.372-4.167 10.011-4.167 6.093 0 12.864 4.16 12.864 13.134 0 7.52-5.386 12.996-12.966 12.996-3.969 0-7.706-1.44-10.01-4.293 0 1.14-.061 2.29-.184 3.375h-5.368c.093-1.754.187-3.941.187-5.712l-.001-4.541h-22.156c.304 5.082 3.834 8.089 8.687 8.089 3.356 0 6.349-1.358 7.347-4.318h5.817c-1.13 6.002-7.554 8.037-13.082 8.037-10.056 0-14.511-5.494-14.511-12.905 0-8.165 4.606-13.532 14.603-13.532 6.606 0 11.745 2.85 13.296 8.984V188h5.468zm36.828 9.778c6.47 0 11.94 2.33 11.94 9.264v11.277c0 1.604.048 3.186.187 4.616h-5.074a30.944 30.944 0 01-.185-3.478c-2.74 3.415-6 4.395-10.524 4.395-6.709 0-10.3-3.593-10.3-7.747 0-6.006 4.885-8.132 13.365-8.327a321.64 321.64 0 017.082-.06v-.586c0-4.027-2.552-5.685-6.969-5.685-3.284 0-5.703 1.373-5.952 3.751h-5.725c.603-5.924 6.754-7.42 12.155-7.42zm6.49 13.606c-2.006 0-4.479.017-6.705.092-4.946.166-8.014 1.065-8.014 4.363 0 2.132 1.677 4.444 5.947 4.444 5.72 0 8.773-3.153 8.773-8.328v-.57zm-34.756-9.88c-5.054 0-8.562 3.7-8.562 9.284 0 5.584 3.508 9.28 8.562 9.28 5.082 0 8.562-3.696 8.562-9.28s-3.48-9.283-8.562-9.283zm-27.564.265c-4.386 0-7.89 2.205-8.502 7.198h16.594c-.217-5.237-4.024-7.198-8.092-7.198zm99.092-3.991v.672h.638v.348h-.638v1.47c0 .275.066.421.329.421l.324-.031v.347l-.406.032c-.42 0-.661-.163-.661-.73v-1.51h-.564v-.347h.564v-.672h.414zm4.53.815c.628 0 1.013.328 1.013 1.093v1.351h-.43v-1.18c0-.57-.153-.945-.622-.945-.376 0-.763.276-.763 1.052v1.073h-.429v-1.209c0-.63-.203-.916-.596-.916-.378 0-.792.29-.792.987v1.138h-.425v-1.82c0-.179-.011-.348-.018-.537h.401l.015.418h.009c.254-.36.567-.505.927-.505.372 0 .677.194.803.59.156-.32.5-.59.908-.59z" opacity=".5"/></svg>