<svg width="196" height="40" viewBox="0 0 196 40" fill="none" xmlns="http://www.w3.org/2000/svg">
<g clip-path="url(#clip0_123_1166)">
<path d="M9.1481 0C4.09568 0 0 4.095 0 9.1466V30.8468C0 35.905 4.09568 40 9.1481 40H10.5701V8.819H20.9633L29.0433 16.6814V0H9.1481Z" fill="#D108A0"/>
<path d="M40.8519 0H39.4299V31.181H29.0433L20.9633 23.3186V40H40.8519C45.9043 40 50 35.905 50 30.8534V9.1466C50 4.095 45.9043 0 40.8519 0Z" fill="#D108A0"/>
<path d="M0 23.2398H10.5701V8.81885H7.56225C3.38794 8.81885 0 12.2062 0 16.3799V23.2398Z" fill="url(#paint0_linear_123_1166)"/>
<path d="M50 16.7603H39.4299V31.1812H42.4377C46.612 31.1812 50 27.7938 50 23.6202V16.7603Z" fill="url(#paint1_linear_123_1166)"/>
<path d="M29.0433 31.181H39.4299V16.76V0H29.0433V16.6814L20.9568 8.819H10.5701V23.24V40H20.9568V23.3186L29.0433 31.181Z" fill="white"/>
</g>
<path d="M77.5358 29H73.2608L66.1108 18.15V29H61.8358V11.325H66.1108L73.2608 22.275V11.325H77.5358V29ZM84.7632 14.725V18.425H90.7382V21.65H84.7632V25.575H91.4882V29H80.4882V11.325H91.4882V14.725H84.7632ZM104.641 29L100.916 23.5L97.7159 29H92.8159L98.4659 19.9L92.6409 11.325H97.7159L101.341 16.65L104.466 11.325H109.341L103.766 20.225L109.716 29H104.641ZM124.072 11.325V14.725H119.272V29H114.972V14.725H110.222V11.325H124.072ZM144.751 11.325V14.725H139.951V29H135.651V14.725H130.901V11.325H144.751ZM150.828 14.725V18.425H156.803V21.65H150.828V25.575H157.553V29H146.553V11.325H157.553V14.725H150.828ZM168.055 11.15C170.305 11.15 172.164 11.7417 173.63 12.925C175.114 14.1083 176.072 15.7083 176.505 17.725H171.98C171.647 16.9083 171.13 16.2667 170.43 15.8C169.747 15.3333 168.93 15.1 167.98 15.1C166.73 15.1 165.722 15.5583 164.955 16.475C164.189 17.3917 163.805 18.6167 163.805 20.15C163.805 21.6833 164.189 22.9083 164.955 23.825C165.722 24.725 166.73 25.175 167.98 25.175C168.93 25.175 169.747 24.9417 170.43 24.475C171.13 24.0083 171.647 23.375 171.98 22.575H176.505C176.072 24.575 175.114 26.175 173.63 27.375C172.164 28.5583 170.305 29.15 168.055 29.15C166.339 29.15 164.83 28.775 163.53 28.025C162.23 27.2583 161.222 26.1917 160.505 24.825C159.805 23.4583 159.455 21.9 159.455 20.15C159.455 18.4 159.805 16.8417 160.505 15.475C161.222 14.1083 162.23 13.05 163.53 12.3C164.83 11.5333 166.339 11.15 168.055 11.15ZM194.176 11.325V29H189.876V21.625H183.176V29H178.901V11.325H183.176V18.175H189.876V11.325H194.176Z" fill="white"/>
<defs>
<linearGradient id="paint0_linear_123_1166" x1="5.28382" y1="22.383" x2="5.28382" y2="8.79311" gradientUnits="userSpaceOnUse">
<stop stop-color="#A8138C" stop-opacity="0"/>
<stop offset="1" stop-color="#A8138C"/>
</linearGradient>
<linearGradient id="paint1_linear_123_1166" x1="44.7155" y1="17.6142" x2="44.7155" y2="31.204" gradientUnits="userSpaceOnUse">
<stop stop-color="#A8138C" stop-opacity="0"/>
<stop offset="0.9981" stop-color="#A8138C"/>
</linearGradient>
<clipPath id="clip0_123_1166">
<rect width="50" height="40" fill="white"/>
</clipPath>
</defs>
</svg>
