<svg width="126" height="21" viewBox="0 0 126 21" fill="none" xmlns="http://www.w3.org/2000/svg">
<g clip-path="url(#clip0_203_394)">
<path d="M0.246675 8.02218H8.76456L11.3948 0L14.0251 8.02218H22.543L15.6538 12.9821L18.284 21.0043L11.3948 16.0444L4.50562 21.0043L7.13588 12.9821L0.246675 8.02218Z" fill="#FBA525"/>
</g>
<g clip-path="url(#clip1_203_394)">
<path d="M26.0001 8.02218H34.518L37.1482 0L39.7785 8.02218H48.2964L41.4072 12.9821L44.0374 21.0043L37.1482 16.0444L30.259 21.0043L32.8893 12.9821L26.0001 8.02218Z" fill="#FBA525"/>
</g>
<g clip-path="url(#clip2_203_394)">
<path d="M51.7535 8.02218H60.2714L62.9017 0L65.5319 8.02218H74.0498L67.1606 12.9821L69.7909 21.0043L62.9017 16.0444L56.0125 21.0043L58.6427 12.9821L51.7535 8.02218Z" fill="#FBA525"/>
</g>
<g clip-path="url(#clip3_203_394)">
<path d="M77.5069 8.02218H86.0248L88.6551 0L91.2853 8.02218H99.8032L92.914 12.9821L95.5443 21.0043L88.6551 16.0444L81.7659 21.0043L84.3961 12.9821L77.5069 8.02218Z" fill="#FBA525"/>
</g>
<g clip-path="url(#clip4_203_394)">
<path d="M103.26 8.02218H111.778L114.408 0L117.039 8.02218H125.557L118.667 12.9821L121.298 21.0043L114.408 16.0444L107.519 21.0043L110.15 12.9821L103.26 8.02218Z" fill="#FBA525"/>
</g>
<defs>
<clipPath id="clip0_203_394">
<rect width="22.2963" height="21" fill="white" transform="matrix(-1 0 0 1 22.543 0)"/>
</clipPath>
<clipPath id="clip1_203_394">
<rect width="22.2963" height="21" fill="white" transform="matrix(-1 0 0 1 48.2964 0)"/>
</clipPath>
<clipPath id="clip2_203_394">
<rect width="22.2963" height="21" fill="white" transform="matrix(-1 0 0 1 74.0498 0)"/>
</clipPath>
<clipPath id="clip3_203_394">
<rect width="22.2963" height="21" fill="white" transform="matrix(-1 0 0 1 99.8032 0)"/>
</clipPath>
<clipPath id="clip4_203_394">
<rect width="22.2963" height="21" fill="white" transform="matrix(-1 0 0 1 125.557 0)"/>
</clipPath>
</defs>
</svg>
