<svg width="29" height="31" viewBox="0 0 29 31" fill="none" xmlns="http://www.w3.org/2000/svg">
<path d="M6.15073 14.8282L14.5002 6.29068L22.8493 14.8282H29L14.5002 0L0 14.8282H6.15073Z" fill="#E67635"/>
<path d="M27.883 31V17.9014H23.5337V26.5521H5.29198V17.9014H0.942692V31" fill="#E67635"/>
<path d="M8.0133 6.68116H3.62311V11.4998H8.0133V6.68116Z" fill="#E67635"/>
<path d="M18.1759 19.0767C18.6058 17.2209 17.4832 15.3601 15.6686 14.9206C13.854 14.481 12.0345 15.629 11.6046 17.4848C11.1748 19.3406 12.2974 21.2013 14.112 21.6409C15.9266 22.0805 17.7461 20.9324 18.1759 19.0767Z" fill="#E67635"/>
<path d="M27.883 16.3617H21.7002H15.5174V19.4729H27.883V16.3617Z" fill="#E67635"/>
</svg>
