<svg width="60" height="60" viewBox="0 0 60 60" fill="none" xmlns="http://www.w3.org/2000/svg">
<g clip-path="url(#clip0_1272_1271)">
<path d="M30.0973 33.8091C30.0973 36.1205 31.7704 38.0007 33.827 38.0007C35.8836 38.0007 37.5568 36.1204 37.5568 33.8091C37.5568 31.4978 35.8836 29.6174 33.827 29.6174C31.7704 29.6174 30.0973 31.4978 30.0973 33.8091ZM33.827 31.3751C34.9144 31.3751 35.7991 32.467 35.7991 33.8091C35.7991 35.1513 34.9144 36.2431 33.827 36.2431C32.7396 36.2431 31.855 35.1512 31.855 33.8091C31.855 32.467 32.7396 31.3751 33.827 31.3751ZM57.0402 46.2582H56.5058V43.8955C56.5058 43.4102 56.1123 43.0167 55.6269 43.0167C55.1416 43.0167 54.7481 43.4102 54.7481 43.8955V47.137C54.7481 47.6224 55.1416 48.0159 55.6269 48.0159H57.0402C57.9841 48.0159 58.5548 49.0525 58.053 49.8564C57.2491 51.1444 56.2203 52.561 55.078 53.9533C54.0002 55.2668 52.8832 56.4826 51.8478 57.4695C51.1446 58.1397 50.0431 58.1395 49.3401 57.4695C48.3047 56.4828 47.1877 55.2669 46.1099 53.9533C44.9675 52.5611 43.9388 51.1444 43.1349 49.8565C42.6331 49.0527 43.2037 48.016 44.1476 48.016H45.5608C46.0462 48.016 46.4397 47.6225 46.4397 47.1372V35.069C46.4397 33.7787 47.4895 32.7287 48.7798 32.7287H52.4079C53.6983 32.7287 54.7481 33.7785 54.7481 35.069V39.694C54.7481 40.1793 55.1416 40.5728 55.6269 40.5728C56.1123 40.5728 56.5058 40.1793 56.5058 39.694V35.069C56.5058 33.017 54.9895 31.3126 53.0186 31.0168L51.8247 29.0811C51.624 28.7556 51.624 28.3511 51.8247 28.0255L53.8306 24.7735C55.5012 22.0648 54.3442 18.5032 51.4005 17.2936L47.8681 15.842C47.5145 15.6967 47.2769 15.3696 47.2477 14.9885L46.9565 11.1734C46.7147 8.00343 43.6892 5.80422 40.5991 6.5517L36.881 7.45152C36.5105 7.54151 36.1262 7.41648 35.8789 7.12588L33.3988 4.21152C31.3393 1.79131 27.6005 1.79131 25.5409 4.21152L23.061 7.12588C22.8136 7.41648 22.4293 7.54116 22.0587 7.45152L18.3407 6.5517C17.3166 6.30375 16.2709 6.37347 15.318 6.73298V4.3669C15.318 2.10734 13.4797 0.269043 11.2202 0.269043H7.5922C5.33264 0.269043 3.49434 2.10734 3.49434 4.3669V7.76052C3.49434 8.24587 3.88782 8.63936 4.37318 8.63936C4.85853 8.63936 5.25202 8.24587 5.25202 7.76052V4.3669C5.25202 3.07653 6.30182 2.02672 7.5922 2.02672H11.2203C12.5107 2.02672 13.5605 3.07653 13.5605 4.3669V16.4349C13.5605 16.9203 13.9539 17.3138 14.4393 17.3138H15.8526C16.7965 17.3138 17.3671 18.3503 16.8654 19.1543C15.2398 21.7587 12.7891 24.7383 10.6602 26.7673C9.9571 27.4374 8.8555 27.4374 8.15243 26.7673C7.11715 25.7806 6.00009 24.5648 4.92228 23.2511C3.77978 21.8589 2.75107 20.4422 1.94722 19.1543C1.44535 18.3501 2.01624 17.3138 2.95988 17.3138H4.37318C4.85853 17.3138 5.25202 16.9203 5.25202 16.4349V11.9156C5.25202 11.4302 4.85853 11.0367 4.37318 11.0367C3.88782 11.0367 3.49434 11.4302 3.49434 11.9156V15.5561H2.95988C0.63447 15.5561 -0.776949 18.1094 0.456124 20.0849C1.29923 21.436 2.37375 22.9164 3.56347 24.3662C4.66237 25.7055 6.51181 27.7334 7.22578 28.2847C7.30112 28.5523 7.26468 28.8391 7.1154 29.0812L5.10965 32.3334C3.43914 35.0416 4.5964 38.6037 7.53958 39.8133L11.0721 41.265C11.4256 41.4103 11.6633 41.7373 11.6924 42.1185L11.9835 45.9336C12.2254 49.1032 15.2514 51.3032 18.3409 50.5551L22.0589 49.6553C22.4297 49.5657 22.8137 49.6904 23.0611 49.981L25.5412 52.8954C27.6007 55.3157 31.3395 55.3157 33.3991 52.8954L35.8792 49.9811C36.1265 49.6906 36.5106 49.5658 36.8814 49.6555C40.9481 50.6396 40.9299 50.6665 41.5906 50.6953C42.0198 51.438 43.2526 53.2422 44.7512 55.0684C45.8737 56.4364 47.0411 57.7067 48.1275 58.7421C48.8191 59.4012 49.7065 59.7308 50.594 59.7307C51.4814 59.7306 52.369 59.4011 53.0605 58.7421C54.1469 57.7068 55.3143 56.4365 56.4368 55.0685C57.6264 53.6188 58.7009 52.1385 59.5441 50.7873C60.7768 48.8119 59.366 46.2582 57.0402 46.2582ZM17.0332 15.797C16.3962 15.5224 15.9306 15.5561 15.3181 15.5561V8.68565C16.0926 8.19689 17.0231 8.04128 17.9274 8.26005L21.6453 9.15987C22.6646 9.40641 23.72 9.06366 24.3996 8.26497L26.8796 5.35062C28.2372 3.755 30.7024 3.755 32.0602 5.35062L34.5403 8.26509C35.2199 9.06378 36.2753 9.40688 37.2944 9.15987L41.0124 8.26005C43.0499 7.76731 45.0443 9.21693 45.2039 11.3072L45.4951 15.1223C45.575 16.1697 46.2283 17.0685 47.1999 17.4677L50.7323 18.9193C52.6728 19.7169 53.4357 22.065 52.3345 23.8508L50.3286 27.1029C49.7768 27.9976 49.7768 29.1092 50.3286 30.0039L50.9251 30.9712H48.7796C48.1245 30.9712 47.5052 31.1266 46.9555 31.4011C46.831 31.1471 46.8897 31.2581 45.3648 28.7856C45.2765 28.6424 45.2765 28.4645 45.3648 28.3213L46.7709 26.0415C48.0271 24.0049 47.1569 21.3265 44.9438 20.417L42.4674 19.3993C42.3119 19.3353 42.2074 19.1915 42.1946 19.0241L41.9905 16.3495C41.8086 13.9658 39.5335 12.312 37.2101 12.8743L34.6037 13.5051C34.4404 13.5443 34.2718 13.4897 34.1631 13.3619L32.4245 11.3188C30.876 9.49898 28.0643 9.49887 26.5158 11.3188L24.7772 13.3619C24.6684 13.4896 24.4996 13.5445 24.3365 13.5051L21.7301 12.8743C19.6152 12.3626 17.5044 13.6879 17.0332 15.797ZM15.0712 29.7081C15.5106 28.9958 15.5106 28.1108 15.0712 27.3986L14.06 25.7588C15.5851 24.0405 17.1529 22.0132 18.3564 20.0849C18.8541 19.2874 18.9449 18.3455 18.6252 17.49L18.702 16.4832C18.8016 15.1795 20.0457 14.2751 21.3165 14.5826L23.9231 15.2133C24.7349 15.4098 25.5747 15.1367 26.1157 14.5009L27.8543 12.4577C28.7011 11.4625 30.2389 11.4625 31.0858 12.4577L32.8244 14.5009C33.3657 15.1368 34.206 15.4097 35.0172 15.2133L37.6236 14.5826C38.8944 14.2751 40.1386 15.1795 40.238 16.4832L40.4421 19.1578C40.5057 19.9916 41.0258 20.7071 41.7994 21.025L44.2757 22.0427C45.4862 22.5403 45.962 24.0049 45.275 25.1188L43.8689 27.3987C43.4296 28.111 43.4296 28.9959 43.8689 29.7082C45.4013 32.193 45.4208 32.1634 45.5263 32.5817C45.0415 33.2142 44.7366 33.9911 44.6889 34.836C44.4165 35.0271 44.5258 34.9613 41.7994 36.0817C41.0258 36.3995 40.5057 37.115 40.4421 37.9489L40.238 40.6235C40.1386 41.927 38.8941 42.8317 37.6236 42.5241L35.0172 41.8933C34.2057 41.697 33.3656 41.9699 32.8244 42.6057L31.0858 44.6488C30.239 45.644 28.7013 45.644 27.8543 44.6488L26.1157 42.6056C25.5746 41.9698 24.7344 41.6969 23.9231 41.8932L21.3166 42.524C20.0458 42.8313 18.8018 41.9269 18.7023 40.6233L18.4981 37.9488C18.4345 37.1149 17.9145 36.3994 17.1409 36.0816L14.6646 35.064C13.4542 34.5666 12.9783 33.1017 13.6653 31.9879L15.0712 29.7081ZM41.2067 48.8857C40.9996 48.8481 41.2013 48.8925 37.2947 47.947C36.2755 47.7004 35.2201 48.0432 34.5404 48.8419L32.0603 51.7564C30.7026 53.3519 28.2375 53.3519 26.8797 51.7564L24.3996 48.8419C23.72 48.0433 22.6644 47.7003 21.6453 47.947L17.9274 48.8468C15.8903 49.34 13.8955 47.8896 13.7359 45.7998L13.4448 41.9847C13.3649 40.9372 12.7116 40.0385 11.74 39.6392L8.2075 38.1875C6.26702 37.39 5.50419 35.0419 6.60543 33.256L8.61118 30.004C8.80406 29.6913 8.92885 29.3514 8.98627 29.0028C10.0833 29.1322 11.124 28.7532 11.8726 28.0398C12.1827 27.7443 12.4998 27.4279 12.8201 27.0972L13.5751 28.3213C13.6633 28.4645 13.6633 28.6424 13.5752 28.7856L12.1691 31.0654C10.9128 33.102 11.783 35.7803 13.9963 36.69L16.4726 37.7077C16.6281 37.7715 16.7326 37.9153 16.7454 38.083L16.9495 40.7575C17.1314 43.141 19.4066 44.795 21.7299 44.2328L24.3362 43.602C24.4993 43.5625 24.6682 43.6173 24.7769 43.7452L26.5155 45.7883C28.0642 47.6081 30.8757 47.6082 32.4243 45.7883L34.1627 43.7453C34.2715 43.6176 34.4401 43.5624 34.6034 43.6021L37.2098 44.2329C39.5335 44.7952 41.8084 43.1415 41.9904 40.7577L42.1944 38.0831C42.2072 37.9155 42.3117 37.7718 42.4672 37.7078L44.6816 36.7978V46.2584H44.1473C42.5524 46.2582 41.3703 47.4659 41.2067 48.8857ZM25.1132 27.4893C27.1698 27.4893 28.8429 25.609 28.8429 23.2977C28.8429 20.9865 27.1698 19.1061 25.1132 19.1061C23.0566 19.1061 21.3836 20.9865 21.3836 23.2977C21.3836 25.609 23.0566 27.4893 25.1132 27.4893ZM25.1132 20.8637C26.2007 20.8637 27.0852 21.9556 27.0852 23.2976C27.0852 24.6397 26.2007 25.7315 25.1132 25.7315C24.0258 25.7315 23.1412 24.6397 23.1412 23.2976C23.1412 21.9556 24.0258 20.8637 25.1132 20.8637ZM26.0083 36.8855C26.4559 37.0734 26.9709 36.8628 27.1587 36.4153L33.6107 21.0414C33.7985 20.5939 33.588 20.0788 33.1405 19.891C32.6931 19.7033 32.1779 19.9137 31.99 20.3612L25.5379 35.7351C25.3502 36.1827 25.5607 36.6978 26.0083 36.8855Z" fill="#05C653"/>
</g>
<defs>
<clipPath id="clip0_1272_1271">
<rect width="60" height="60" fill="white"/>
</clipPath>
</defs>
</svg>
