<svg width="60" height="60" viewBox="0 0 60 60" fill="none" xmlns="http://www.w3.org/2000/svg">
<path d="M40.522 1H20.4773C16.3544 1 13 3.924 13 7.51782V52.4822C13 56.076 16.3544 59 20.4773 59H40.5227C44.6456 59 48 56.076 48 52.4822V7.51782C48 3.92328 44.6456 1 40.522 1ZM45.8166 52.4815C45.8166 54.8776 43.4411 56.8269 40.5227 56.8269H20.4773C17.5581 56.8269 15.1834 54.8776 15.1834 52.4815V7.51782C15.1834 5.1217 17.5589 3.17237 20.4773 3.17237H40.5227C43.4419 3.17237 45.8166 5.1217 45.8166 7.51782V52.4815Z" fill="#05C653"/>
<path d="M41.2413 20.3319C41.2437 20.1832 41.2264 20.0353 41.1816 19.8967C41.1808 19.8942 41.1793 19.8917 41.1777 19.8883C41.1282 19.7413 41.0512 19.6069 40.953 19.4867C40.9475 19.48 40.946 19.4716 40.9405 19.4649C40.9381 19.4624 40.935 19.4615 40.9318 19.459C40.9271 19.4531 40.924 19.4464 40.9192 19.4414C40.8242 19.3355 40.7095 19.254 40.5885 19.1893C40.5728 19.1818 40.5595 19.1717 40.543 19.1641C40.4204 19.1053 40.2892 19.0734 40.1549 19.0633C40.1337 19.0616 40.1132 19.0608 40.092 19.0599C40.0645 19.0599 40.037 19.0532 40.0088 19.0557L35.1829 19.3221C34.5332 19.3573 34.0328 19.9505 34.0666 20.6453C34.1004 21.34 34.6267 21.8735 35.3039 21.8391L36.8421 21.7542L32.6266 25.8633C32.1458 26.3321 32.1113 27.1285 32.5496 27.6435C32.7822 27.9166 33.1003 28.0552 33.4201 28.0552C33.7037 28.0552 33.988 27.9468 34.2143 27.7258L38.6151 23.437L38.4478 25.3617C38.3873 26.0548 38.8634 26.669 39.5115 26.7328C39.5484 26.7362 39.5853 26.7379 39.6222 26.7379C40.224 26.7379 40.7378 26.2481 40.7936 25.5944L41.2413 20.431C41.2421 20.4184 41.2398 20.4067 41.2406 20.3941C41.2437 20.3731 41.2413 20.3529 41.2413 20.3319Z" fill="#05C653"/>
<path d="M28.1331 29.369L23.0263 33.8066L23.1909 31.9713C23.2506 31.3107 22.7366 30.7286 22.0438 30.6718C21.3459 30.6173 20.7404 31.1058 20.6816 31.7663L20.2424 36.6587C20.2416 36.6691 20.2433 36.6787 20.2433 36.6884C20.2416 36.7052 20.2441 36.722 20.2441 36.7388C20.2407 36.8813 20.2601 37.0223 20.3079 37.1544C20.3104 37.1616 20.3146 37.168 20.318 37.1744C20.3718 37.3169 20.4524 37.4498 20.5615 37.5651C20.5632 37.5659 20.5649 37.5675 20.5657 37.5683C20.5666 37.5683 20.5666 37.5691 20.5666 37.5691C20.5758 37.5787 20.5867 37.586 20.5968 37.5948C20.6489 37.6452 20.7026 37.6941 20.7614 37.7341C20.7942 37.7565 20.8303 37.7725 20.8656 37.7917C20.905 37.8142 20.9428 37.8382 20.9856 37.8566C21.0268 37.8742 21.0713 37.8846 21.1133 37.8982C21.1528 37.9102 21.1897 37.9247 21.23 37.9327C21.2745 37.9415 21.3182 37.9439 21.3627 37.9487C21.4005 37.9527 21.4375 37.9607 21.4752 37.9615L27.0465 38.0552H27.0691C27.7536 38.0552 28.3154 37.5315 28.328 36.8749C28.3406 36.2119 27.7855 35.6642 27.0901 35.653L24.6875 35.613L29.8312 31.1426C30.3452 30.6958 30.3821 29.9367 29.9135 29.4459C29.4432 28.9566 28.6479 28.9222 28.1331 29.369Z" fill="#05C653"/>
</svg>
