<svg width="60" height="60" viewBox="0 0 60 60" fill="none" xmlns="http://www.w3.org/2000/svg">
<g clip-path="url(#clip0_1272_1205)">
<path d="M59.8843 32.7716C59.3456 27.353 56.9248 22.2446 53.0677 18.3873C49.7714 15.0911 45.7368 12.9729 41.4915 12.031V9.0535C43.2254 8.62213 44.5142 7.05261 44.5142 5.18707C44.5142 2.99001 42.7269 1.20264 40.5298 1.20264H32.0922C29.8951 1.20264 28.1077 2.99001 28.1077 5.18707C28.1077 7.05249 29.3966 8.62201 31.1304 9.0535V12.0394C26.8981 12.9852 22.8769 15.1005 19.59 18.3874C18.8706 19.1067 18.2074 19.8613 17.6002 20.6455C17.5708 20.6433 17.5414 20.6411 17.5114 20.6411H9.16034C8.51322 20.6411 7.98844 21.1657 7.98844 21.813C7.98844 22.4602 8.51322 22.9849 9.16034 22.9849H16.0056C15.1464 24.4234 14.4535 25.934 13.9262 27.4891H1.17189C0.524774 27.4891 0 28.0138 0 28.661C0 29.3083 0.524774 29.8329 1.17189 29.8329H13.264C12.9262 31.3155 12.7324 32.8243 12.6823 34.3373H7.50012C6.853 34.3373 6.32822 34.862 6.32822 35.5092C6.32822 36.1565 6.853 36.6811 7.50012 36.6811H12.7197C12.8186 38.198 13.0625 39.7069 13.4515 41.1855H5.85947C5.21235 41.1855 4.68757 41.7102 4.68757 42.3574C4.68757 43.0047 5.21235 43.5293 5.85947 43.5293H14.1994C15.349 46.5705 17.1456 49.4209 19.59 51.8652C23.4509 55.7261 28.5645 58.1475 33.9888 58.6834C34.7629 58.7598 35.5377 58.7977 36.3113 58.7977C40.8843 58.7977 45.3991 57.4743 49.2301 54.9795C49.7724 54.6263 49.9258 53.9003 49.5726 53.358C49.2194 52.8156 48.4934 52.6622 47.9511 53.0154C39.5653 58.4761 28.3347 57.2954 21.2472 50.2079C12.9313 41.8919 12.9313 28.3609 21.2472 20.0448C29.5631 11.7289 43.0941 11.7289 51.4103 20.0448C58.4884 27.123 59.6755 38.344 54.2329 46.7257C53.8804 47.2685 54.0347 47.9943 54.5774 48.3467C55.1205 48.6992 55.8461 48.5449 56.1985 48.0021C59.1064 43.5237 60.4154 38.1148 59.8843 32.7716ZM30.4515 5.18719C30.4515 4.28249 31.1875 3.54654 32.0922 3.54654H40.5298C41.4345 3.54654 42.1705 4.28249 42.1705 5.18719C42.1705 6.09189 41.4345 6.82784 40.5298 6.82784H40.3196H32.3023H32.0922C31.1875 6.82784 30.4515 6.09178 30.4515 5.18719ZM33.4742 11.6365V9.17163H39.1477V11.6323C37.2637 11.4082 35.3578 11.4096 33.4742 11.6365Z" fill="#05C653"/>
<path d="M52.2422 49.8643C51.9328 49.8643 51.6316 49.9896 51.4138 50.2076C51.1946 50.4256 51.0703 50.7279 51.0703 51.0361C51.0703 51.3443 51.1946 51.6467 51.4138 51.8646C51.6316 52.0838 51.9329 52.208 52.2422 52.208C52.5504 52.208 52.8516 52.0838 53.0707 51.8646C53.2887 51.6467 53.4141 51.3443 53.4141 51.0361C53.4141 50.7279 53.2888 50.4256 53.0707 50.2076C52.8516 49.9896 52.5503 49.8643 52.2422 49.8643Z" fill="#05C653"/>
<path d="M36.3279 16.9468C26.3038 16.9468 18.1484 25.102 18.1484 35.1262C18.1484 45.1505 26.3038 53.3057 36.3279 53.3057C46.352 53.3057 54.5074 45.1505 54.5074 35.1262C54.5074 25.102 46.352 16.9468 36.3279 16.9468ZM36.3279 50.9619C27.596 50.9619 20.4922 43.858 20.4922 35.1262C20.4922 26.3945 27.596 19.2906 36.3279 19.2906C45.0598 19.2906 52.1636 26.3945 52.1636 35.1262C52.1636 43.858 45.0598 50.9619 36.3279 50.9619Z" fill="#05C653"/>
<path d="M43.7448 26.0561L37.9404 31.8604C37.455 31.6204 36.9091 31.4848 36.3319 31.4848C35.7546 31.4848 35.2088 31.6204 34.7234 31.8604L32.1256 29.2626C31.6679 28.805 30.9261 28.805 30.4682 29.2626C30.0106 29.7203 30.0106 30.4623 30.4682 30.9199L33.066 33.5177C32.8258 34.0031 32.6904 34.5491 32.6904 35.1262C32.6904 37.1341 34.3239 38.7678 36.3319 38.7678C38.3399 38.7678 39.9734 37.1341 39.9734 35.1262C39.9734 34.5491 39.8379 34.0031 39.5979 33.5177L45.2318 27.8837L45.4021 27.7134C45.8597 27.2558 45.8597 26.5137 45.4021 26.0561C44.9445 25.5985 44.2027 25.5985 43.7448 26.0561ZM36.3319 36.4241C35.6163 36.4241 35.0341 35.8419 35.0341 35.1263C35.0341 34.4108 35.6163 33.8286 36.3319 33.8286C37.0475 33.8286 37.6297 34.4108 37.6297 35.1263C37.6297 35.8419 37.0475 36.4241 36.3319 36.4241Z" fill="#05C653"/>
<path d="M48.8592 33.9688H47.7734C47.1263 33.9688 46.6016 34.4934 46.6016 35.1406C46.6016 35.7879 47.1263 36.3125 47.7734 36.3125H48.8592C49.5063 36.3125 50.0311 35.7879 50.0311 35.1406C50.0311 34.4934 49.5063 33.9688 48.8592 33.9688Z" fill="#05C653"/>
<path d="M24.8825 33.9399H23.7969C23.1498 33.9399 22.625 34.4646 22.625 35.1118C22.625 35.759 23.1498 36.2837 23.7969 36.2837H24.8825C25.5296 36.2837 26.0544 35.759 26.0544 35.1118C26.0544 34.4646 25.5296 33.9399 24.8825 33.9399Z" fill="#05C653"/>
<path d="M36.3438 24.8537C36.9909 24.8537 37.5156 24.329 37.5156 23.6818V22.5962C37.5156 21.949 36.9909 21.4243 36.3438 21.4243C35.6966 21.4243 35.1719 21.949 35.1719 22.5962V23.6818C35.1719 24.329 35.6966 24.8537 36.3438 24.8537Z" fill="#05C653"/>
<path d="M36.3125 45.3984C35.6654 45.3984 35.1406 45.9231 35.1406 46.5703V47.6559C35.1406 48.3032 35.6654 48.8278 36.3125 48.8278C36.9596 48.8278 37.4844 48.3032 37.4844 47.6559V46.5703C37.4844 45.9231 36.9596 45.3984 36.3125 45.3984Z" fill="#05C653"/>
<path d="M1.17188 41.1851C0.863672 41.1851 0.561328 41.3104 0.343359 41.5284C0.125391 41.7464 0 42.0487 0 42.3569C0 42.6663 0.125273 42.9675 0.343359 43.1855C0.561445 43.4034 0.863672 43.5288 1.17188 43.5288C1.48008 43.5288 1.78242 43.4034 2.00027 43.1855C2.21824 42.9675 2.34375 42.6651 2.34375 42.3569C2.34375 42.0487 2.21836 41.7464 2.00027 41.5284C1.78242 41.3104 1.48008 41.1851 1.17188 41.1851Z" fill="#05C653"/>
</g>
<defs>
<clipPath id="clip0_1272_1205">
<rect width="60" height="60" fill="white"/>
</clipPath>
</defs>
</svg>
