<svg width="60" height="60" viewBox="0 0 60 60" fill="none" xmlns="http://www.w3.org/2000/svg">
<path fill-rule="evenodd" clip-rule="evenodd" d="M7.21186 12.8314C6.81563 14.0427 5.67575 14.9186 4.33292 14.9186C2.66163 14.9186 1.30469 13.5616 1.30469 11.8902C1.30469 10.2189 2.66163 8.86197 4.33292 8.86197C5.67575 8.86197 6.81563 9.73785 7.21186 10.949H11.3961C11.6457 10.949 11.8852 11.0482 12.0616 11.2248L17.045 16.2081L17.4828 15.7703C17.7582 15.4949 18.1748 15.4176 18.5307 15.5758L20.2432 16.3373C20.5163 16.184 20.795 16.0414 21.0785 15.9098V9.51714C19.8673 9.12091 18.9914 7.98102 18.9914 6.6382C18.9914 4.96679 20.3482 3.60985 22.0196 3.60985C23.691 3.60985 25.048 4.96679 25.048 6.6382C25.048 7.98102 24.172 9.12091 22.9608 9.51714V15.1084L23.5893 13.4797C23.7294 13.1167 24.0783 12.8774 24.4674 12.8774H28.0572C28.4467 12.8774 28.796 13.1173 28.9356 13.4809L29.608 15.2308C30.5385 15.4928 31.4338 15.8637 32.2778 16.3373L33.9902 15.5758C34.3461 15.4176 34.7627 15.4949 35.0381 15.7703L37.5759 18.3081C37.8509 18.5831 37.9285 18.999 37.7709 19.3547L37.0121 21.0676C37.4861 21.9124 37.8574 22.8088 38.1194 23.7422L39.8656 24.4143C40.229 24.5541 40.4688 24.9033 40.4688 25.2927V28.8823C40.4688 29.2717 40.229 29.6209 39.8656 29.7607L38.1188 30.433C37.8563 31.3634 37.4836 32.2588 37.0116 33.1027L37.7709 34.8167C37.9285 35.1723 37.8509 35.5883 37.5759 35.8634L35.0381 38.401C34.763 38.6762 34.347 38.7536 33.9914 38.5961L32.2792 37.8376C31.4363 38.3113 30.5389 38.6823 29.6077 38.9442L28.9355 40.6909C28.7956 41.0543 28.4465 41.2941 28.0572 41.2941H24.4674C24.0781 41.2941 23.7289 41.0543 23.589 40.6909C23.589 40.6909 23.1101 39.4466 22.9608 39.0586V44.6564C24.172 45.0527 25.048 46.1926 25.048 47.5354C25.048 49.2067 23.691 50.5636 22.0196 50.5636C20.3482 50.5636 18.9914 49.2067 18.9914 47.5354C18.9914 46.1926 19.8673 45.0527 21.0785 44.6564V38.2635C20.795 38.132 20.5166 37.9896 20.2435 37.8369L18.5295 38.5961C18.1739 38.7536 17.7579 38.6762 17.4828 38.401L17.045 37.9633L12.0616 42.9467C11.8852 43.1231 11.6457 43.2223 11.3961 43.2223H7.21186C6.81563 44.4335 5.67575 45.3094 4.33292 45.3094C2.66163 45.3094 1.30469 43.9524 1.30469 42.2811C1.30469 40.6097 2.66163 39.2528 4.33292 39.2528C5.67575 39.2528 6.81563 40.1288 7.21186 41.34H11.0063L15.714 36.6322L14.945 35.8634C14.6696 35.588 14.5923 35.1714 14.7506 34.8154L15.5117 33.1036C15.0383 32.2613 14.6672 31.3643 14.4033 30.4335L12.6553 29.7607C12.2919 29.6209 12.0521 29.2717 12.0521 28.8823V28.0269H7.21186C6.81563 29.2381 5.67575 30.114 4.33292 30.114C2.66163 30.114 1.30469 28.757 1.30469 27.0857C1.30469 25.4143 2.66163 24.0574 4.33292 24.0574C5.67575 24.0574 6.81563 24.9334 7.21186 26.1446H12.0521V25.2927C12.0521 24.9033 12.2919 24.5541 12.6553 24.4143C12.6553 24.4143 14.4029 23.7416 14.4029 23.7417C14.6669 22.8087 15.0382 21.9127 15.512 21.0683L14.7506 19.356C14.5923 19.0001 14.6696 18.5835 14.945 18.3081L15.714 17.5391L11.0063 12.8314H7.21186ZM5.47892 11.8902C5.47892 11.2578 4.96539 10.7443 4.33292 10.7443C3.70045 10.7443 3.18704 11.2578 3.18704 11.8902C3.18704 12.5227 3.70045 13.0362 4.33292 13.0362C4.96539 13.0362 5.47892 12.5227 5.47892 11.8902ZM22.0196 7.78408C22.6521 7.78408 23.1656 7.27055 23.1656 6.6382C23.1656 6.00573 22.6521 5.4922 22.0196 5.4922C21.3872 5.4922 20.8737 6.00573 20.8737 6.6382C20.8737 7.27055 21.3872 7.78408 22.0196 7.78408ZM22.0196 46.3894C21.3872 46.3894 20.8737 46.9029 20.8737 47.5354C20.8737 48.1679 21.3872 48.6813 22.0196 48.6813C22.6521 48.6813 23.1656 48.1679 23.1656 47.5354C23.1656 46.9029 22.6521 46.3894 22.0196 46.3894ZM5.47892 42.2811C5.47892 41.6487 4.96539 41.1351 4.33292 41.1351C3.70045 41.1351 3.18704 41.6487 3.18704 42.2811C3.18704 42.9136 3.70045 43.427 4.33292 43.427C4.96539 43.427 5.47892 42.9136 5.47892 42.2811ZM5.47892 27.0857C5.47892 26.4533 4.96539 25.9397 4.33292 25.9397C3.70045 25.9397 3.18704 26.4533 3.18704 27.0857C3.18704 27.7182 3.70045 28.2316 4.33292 28.2316C4.96539 28.2316 5.47892 27.7182 5.47892 27.0857ZM28.0245 16.3576L27.4105 14.7597H25.113L24.496 16.3589C24.3843 16.6483 24.1373 16.8641 23.8355 16.9357C22.7617 17.1909 21.7377 17.6151 20.7966 18.195C20.5322 18.358 20.2043 18.38 19.9205 18.2537L18.3567 17.5584L16.7333 19.182L17.4286 20.7457C17.5548 21.0296 17.5328 21.3574 17.3699 21.6218C16.7895 22.5637 16.365 23.5886 16.1065 24.6663C16.0341 24.9675 15.8183 25.2138 15.5293 25.325L13.9345 25.9389V28.2361L15.5293 28.8498C15.8181 28.961 16.0339 29.2071 16.1062 29.508C16.3648 30.5821 16.7889 31.6101 17.369 32.5482C17.5327 32.8129 17.5549 33.1414 17.4286 33.4256L16.7333 34.9895L18.3574 36.6136L19.9217 35.9207C20.2046 35.7954 20.5308 35.817 20.7946 35.9787C21.7363 36.5556 22.7608 36.9837 23.8385 37.2391C24.1408 37.3107 24.3882 37.5269 24.4999 37.8169L25.1136 39.4117H27.4109L28.0247 37.8169C28.1362 37.5271 28.3834 37.311 28.6854 37.2393C29.7587 36.9842 30.7856 36.5604 31.723 35.9807C31.9873 35.8173 32.3152 35.7948 32.5992 35.9207L34.1635 36.6136L35.7883 34.9888L35.0954 33.4244C34.9702 33.1416 34.9919 32.8153 35.1534 32.5516C35.7305 31.6097 36.1587 30.5851 36.414 29.5107C36.4857 29.2087 36.7019 28.9614 36.9916 28.8498L38.5865 28.2361V25.9389L36.9916 25.325C36.7016 25.2135 36.4855 24.966 36.4139 24.6637C36.1587 23.5868 35.7346 22.5629 35.1547 21.6218C34.992 21.3578 34.9699 21.0306 35.0954 20.7469L35.7883 19.1826L34.1642 17.5584L32.6005 18.2537C32.3166 18.38 31.9888 18.358 31.7243 18.195C30.7832 17.6151 29.7592 17.1909 28.6854 16.9357C28.3833 16.864 28.1359 16.6476 28.0245 16.3576ZM26.2605 19.8833C30.24 19.8833 33.4665 23.1062 33.4665 27.0857C33.4665 31.065 30.2397 34.2917 26.2605 34.2917C22.281 34.2917 19.0581 31.0651 19.0581 27.0857C19.0581 23.1061 22.2808 19.8833 26.2605 19.8833ZM26.2605 21.7656C23.3209 21.7656 20.9405 24.1461 20.9405 27.0857C20.9405 30.0254 23.3208 32.4094 26.2605 32.4094C29.2003 32.4094 31.5841 30.0255 31.5841 27.0857C31.5841 24.146 29.2001 21.7656 26.2605 21.7656ZM26.2132 44.0764C26.2132 43.557 26.6348 43.1353 27.1543 43.1353H43.6174C44.0663 37.5683 45.5098 34.7815 46.8663 32.4409C48.1645 30.2013 49.4028 28.4194 49.4028 24.614C49.4028 17.1151 43.3236 11.0361 35.8249 11.0361C33.8869 11.0361 32.0436 11.4418 30.3757 12.1735C29.9001 12.3822 29.3445 12.1654 29.1357 11.6897C28.927 11.2141 29.1439 10.6584 29.6195 10.4497C31.5189 9.61644 33.6179 9.15373 35.8249 9.15373C44.3633 9.15373 51.2852 16.0756 51.2852 24.614C51.2852 28.0547 50.408 30.0375 49.305 31.9889C47.8043 34.6436 45.839 37.2327 45.435 44.1315C45.4347 44.1373 45.4343 44.1429 45.4339 44.1486L45.4317 46.4363C45.4317 47.9263 44.434 49.1915 43.0768 49.5994V51.156C43.0768 52.6687 42.044 53.9502 40.6537 54.3374V55.8756C40.6537 57.6867 39.1686 59.1767 37.3575 59.1767H34.2922C32.4817 59.1767 30.9912 57.6861 30.9912 55.8756V54.3367C29.5997 53.9487 28.5729 52.6677 28.5729 51.156V49.6001C27.2113 49.193 26.2132 47.9268 26.2132 46.4363V44.0764ZM43.5507 45.0176H28.0955V46.4363C28.0955 47.2173 28.7332 47.855 29.5141 47.855H42.1356C42.9132 47.855 43.5494 47.2168 43.5494 46.4358L43.5507 45.0176ZM41.1945 49.7374H30.4553V51.156C30.4553 51.937 31.093 52.5747 31.874 52.5747H39.7757C40.5539 52.5747 41.1945 51.937 41.1945 51.156V49.7374ZM38.7714 54.457H32.8735V55.8756C32.8735 56.6537 33.5141 57.2943 34.2922 57.2943H37.3575C38.135 57.2943 38.7714 56.6531 38.7714 55.8756V54.457ZM36.7661 5.1855C36.7661 5.70491 36.3443 6.12667 35.8249 6.12667C35.3054 6.12667 34.8838 5.70491 34.8838 5.1855V1.76491C34.8838 1.2455 35.3054 0.82373 35.8249 0.82373C36.3443 0.82373 36.7661 1.2455 36.7661 1.76491V5.1855ZM47.5874 8.59044C47.3275 9.0402 46.7513 9.1942 46.3016 8.93432C45.8519 8.67432 45.6978 8.0982 45.9577 7.64844L47.6705 4.68526C47.9303 4.2355 48.5066 4.0815 48.9562 4.34138C49.406 4.60138 49.5601 5.1775 49.3001 5.62726L47.5874 8.59044ZM55.2627 16.9526C54.8132 17.2128 54.2369 17.0591 53.9766 16.6096C53.7163 16.16 53.87 15.5837 54.3195 15.3235L57.2779 13.6108C57.7274 13.3506 58.3037 13.5042 58.564 13.9537C58.8242 14.4033 58.6706 14.9795 58.221 15.2398L55.2627 16.9526Z" fill="#05C653"/>
</svg>
