<svg width="60" height="60" viewBox="0 0 60 60" fill="none" xmlns="http://www.w3.org/2000/svg">
<path d="M44.538 31.4999C44.1936 34.8388 42.7141 37.9584 40.3466 40.3379C37.9792 42.7173 34.8671 44.2126 31.53 44.5739C31.4628 44.5731 31.3961 44.5858 31.3339 44.6111C31.2716 44.6365 31.2151 44.674 31.1676 44.7215C31.1201 44.769 31.0825 44.8256 31.0572 44.8878C31.0318 44.9501 31.0192 45.0167 31.02 45.0839V55.9979C31.02 56.2685 30.9125 56.5279 30.7212 56.7192C30.53 56.9105 30.2705 57.0179 30 57.0179C29.7295 57.0179 29.47 56.9105 29.2788 56.7192C29.0875 56.5279 28.98 56.2685 28.98 55.9979V52.0379C28.9703 51.9059 28.9134 51.7817 28.8198 51.6881C28.7262 51.5945 28.602 51.5376 28.47 51.5279C23.9335 51.1608 19.6304 49.3638 16.1802 46.3955C12.7299 43.4272 10.3105 39.4408 9.27 35.0099C9.23127 34.8787 9.21936 34.7409 9.23497 34.6049C9.25059 34.469 9.29341 34.3375 9.36089 34.2184C9.42837 34.0994 9.51912 33.9951 9.62775 33.9118C9.73637 33.8285 9.86065 33.768 9.99317 33.7337C10.1257 33.6995 10.2637 33.6923 10.3991 33.7125C10.5345 33.7327 10.6644 33.78 10.7811 33.8515C10.8978 33.923 10.999 34.0173 11.0785 34.1287C11.158 34.2401 11.2143 34.3663 11.244 34.4999C12.169 38.4771 14.3259 42.0608 17.4071 44.7403C20.4884 47.4197 24.3369 49.0581 28.404 49.4219C28.536 49.4879 28.662 49.4219 28.788 49.2959C28.8546 49.2583 28.9085 49.2017 28.9427 49.1333C28.9769 49.0649 28.9899 48.9878 28.98 48.9119V45.0839C28.9808 45.0167 28.9682 44.9501 28.9428 44.8878C28.9175 44.8256 28.8799 44.769 28.8324 44.7215C28.7849 44.674 28.7284 44.6365 28.6661 44.6111C28.6039 44.5858 28.5372 44.5731 28.47 44.5739C25.1488 44.2039 22.0497 42.7241 19.674 40.3739C17.2988 37.9868 15.816 34.856 15.474 31.5059C15.4545 31.3833 15.393 31.2714 15.2999 31.1892C15.2068 31.1071 15.0881 31.06 14.964 31.0559H4.05C3.77152 31.0559 3.50445 30.9453 3.30754 30.7484C3.11062 30.5515 3 30.2844 3 30.0059C3 29.7275 3.11062 29.4604 3.30754 29.2635C3.50445 29.0666 3.77152 28.9559 4.05 28.9559H8.196C8.31972 28.9508 8.4379 28.9032 8.53075 28.8213C8.6236 28.7394 8.68547 28.628 8.706 28.5059C8.97826 23.9762 10.6613 19.6452 13.5192 16.1202C16.377 12.5952 20.2664 10.053 24.642 8.84993C24.907 8.79964 25.1812 8.85263 25.4083 8.99806C25.6354 9.14348 25.7983 9.3703 25.8636 9.632C25.9288 9.8937 25.8914 10.1704 25.7591 10.4055C25.6268 10.6405 25.4096 10.816 25.152 10.8959C21.2374 11.9515 17.7501 14.2032 15.1771 17.3366C12.6041 20.4701 11.0739 24.3287 10.8 28.3739C10.7831 28.4485 10.7838 28.5259 10.802 28.6001C10.8202 28.6743 10.8554 28.7433 10.9049 28.8015C10.9544 28.8597 11.0168 28.9056 11.0871 28.9356C11.1574 28.9655 11.2337 28.9786 11.31 28.9739H14.94C15.0641 28.9699 15.1828 28.9228 15.2759 28.8406C15.369 28.7585 15.4305 28.6465 15.45 28.5239C15.7898 25.1789 17.2687 22.0523 19.639 19.6678C22.0093 17.2832 25.1271 15.7857 28.47 15.4259C28.5372 15.4267 28.6039 15.4141 28.6661 15.3888C28.7284 15.3634 28.7849 15.3259 28.8324 15.2784C28.8799 15.2308 28.9175 15.1743 28.9428 15.1121C28.9682 15.0498 28.9808 14.9831 28.98 14.9159V4.00193C28.98 3.73141 29.0875 3.47197 29.2788 3.28068C29.47 3.0894 29.7295 2.98193 30 2.98193C30.2705 2.98193 30.53 3.0894 30.7212 3.28068C30.9125 3.47197 31.02 3.73141 31.02 4.00193V16.3799C31.0268 16.5244 31.0034 16.6686 30.9513 16.8035C30.8991 16.9384 30.8194 17.0608 30.7171 17.1631C30.6149 17.2653 30.4924 17.3451 30.3576 17.3972C30.2227 17.4494 30.0784 17.4728 29.934 17.4659C18.84 17.4659 13.296 31.0499 21.138 38.8979C28.98 46.7459 42.366 41.1299 42.558 29.9999C42.5564 29.8655 42.5817 29.7322 42.6324 29.6077C42.6831 29.4832 42.7581 29.3701 42.8532 29.2751C42.9482 29.1801 43.0613 29.105 43.1858 29.0543C43.3102 29.0036 43.4436 28.9783 43.578 28.9799H55.95C56.2285 28.9799 56.4955 29.0906 56.6925 29.2875C56.8894 29.4844 57 29.7515 57 30.0299C57 30.3084 56.8894 30.5755 56.6925 30.7724C56.4955 30.9693 56.2285 31.0799 55.95 31.0799H51.87C51.7434 31.0748 51.6197 31.1188 51.5247 31.2026C51.4297 31.2864 51.3707 31.4037 51.36 31.5299C51.0289 36.088 49.2661 40.4249 46.3234 43.9214C43.3807 47.4179 39.4085 49.8954 34.974 50.9999C33.636 51.3179 33.174 49.2779 34.524 48.9599C38.4843 47.9753 42.0358 45.773 44.6784 42.6633C47.3209 39.5536 48.9213 35.6932 49.254 31.6259C49.2709 31.5514 49.2702 31.474 49.252 31.3998C49.2338 31.3255 49.1986 31.2566 49.1491 31.1984C49.0996 31.1401 49.0372 31.0942 48.9669 31.0643C48.8966 31.0344 48.8203 31.0212 48.744 31.0259H45.048C44.9239 31.03 44.8052 31.0771 44.7121 31.1592C44.619 31.2414 44.5575 31.3533 44.538 31.4759V31.4999ZM52.8 14.5319L45.426 21.8639C45.2458 22.0595 44.9957 22.176 44.73 22.1879H39.816C39.6819 22.1997 39.5524 22.2429 39.438 22.3139L30.702 31.1159C30.5056 31.2995 30.2456 31.3996 29.9768 31.3953C29.708 31.391 29.4514 31.2826 29.2609 31.0929C29.0704 30.9032 28.961 30.647 28.9556 30.3783C28.9502 30.1095 29.0493 29.8491 29.232 29.6519L37.968 20.8439C38.0268 20.8145 38.076 20.769 38.11 20.7127C38.144 20.6564 38.1613 20.5917 38.16 20.5259V15.5999C38.1588 15.458 38.1863 15.3173 38.241 15.1864C38.2956 15.0554 38.3763 14.9369 38.478 14.8379L45.81 7.51193C45.9516 7.35887 46.136 7.25199 46.3392 7.20522C46.5423 7.15845 46.7549 7.17395 46.9492 7.24971C47.1434 7.32547 47.3103 7.45797 47.4282 7.62995C47.5461 7.80194 47.6094 8.00543 47.61 8.21393V12.2339C47.6185 12.3664 47.6749 12.4913 47.7688 12.5851C47.8627 12.679 47.9875 12.7355 48.12 12.7439H52.074C52.2849 12.7384 52.4926 12.7965 52.67 12.9107C52.8473 13.025 52.9862 13.19 53.0684 13.3842C53.1507 13.5785 53.1725 13.7931 53.131 13.9999C53.0896 14.2068 52.9868 14.3964 52.836 14.5439L52.8 14.5319ZM44.4 19.9319L48.672 15.6599C48.7462 15.5914 48.7987 15.5025 48.8229 15.4044C48.847 15.3063 48.8419 15.2032 48.808 15.108C48.7741 15.0128 48.7131 14.9296 48.6324 14.8688C48.5516 14.808 48.4549 14.7722 48.354 14.7659H46.554C46.2753 14.7724 46.0053 14.6691 45.8021 14.4783C45.599 14.2875 45.4789 14.0245 45.468 13.7459V11.9999C45.4675 11.8966 45.4367 11.7957 45.3794 11.7097C45.3221 11.6237 45.2408 11.5564 45.1456 11.5162C45.0505 11.4759 44.9456 11.4645 44.8439 11.4833C44.7423 11.5021 44.6485 11.5503 44.574 11.6219L40.374 15.8939C40.2619 15.9916 40.1929 16.1296 40.182 16.2779V19.5959C40.1812 19.6631 40.1938 19.7298 40.2192 19.792C40.2445 19.8543 40.2821 19.9108 40.3296 19.9584C40.3771 20.0059 40.4336 20.0434 40.4959 20.0688C40.5581 20.0941 40.6248 20.1067 40.692 20.1059H44.07C44.202 20.1059 44.328 20.1059 44.388 19.9739L44.4 19.9319ZM38.664 30.0119C38.6664 31.7275 38.1598 33.4051 37.2083 34.8326C36.2568 36.2601 34.9032 37.3732 33.3188 38.0311C31.7344 38.689 29.9905 38.862 28.3077 38.5284C26.625 38.1947 25.079 37.3693 23.8655 36.1567C22.652 34.944 21.8256 33.3986 21.4907 31.7161C21.1559 30.0336 21.3278 28.2895 21.9845 26.7047C22.6413 25.1199 23.7535 23.7655 25.1803 22.813C26.6072 21.8605 28.2845 21.3527 30 21.3539C30.2578 21.3737 30.4986 21.49 30.6743 21.6797C30.85 21.8694 30.9476 22.1184 30.9476 22.3769C30.9476 22.6355 30.85 22.8845 30.6743 23.0742C30.4986 23.2638 30.2578 23.3802 30 23.3999C28.2496 23.3999 26.5708 24.0953 25.3331 25.333C24.0954 26.5708 23.4 28.2495 23.4 29.9999C23.4 31.7504 24.0954 33.4291 25.3331 34.6668C26.5708 35.9046 28.2496 36.5999 30 36.5999C33.828 36.5999 36.378 33.7319 36.564 29.9999C36.558 29.8552 36.5819 29.7107 36.6341 29.5756C36.6863 29.4405 36.7658 29.3175 36.8676 29.2144C36.9694 29.1113 37.0913 29.0302 37.2258 28.9763C37.3602 28.9223 37.5043 28.8966 37.6492 28.9007C37.794 28.9048 37.9364 28.9387 38.0676 29.0003C38.1988 29.0618 38.3159 29.1497 38.4116 29.2584C38.5074 29.3671 38.5797 29.4944 38.6242 29.6323C38.6686 29.7702 38.6842 29.9157 38.67 30.0599L38.664 30.0119Z" fill="#05C653"/>
</svg>
