<svg width="60" height="60" viewBox="0 0 60 60" fill="none" xmlns="http://www.w3.org/2000/svg">
<path d="M42.8132 26.1264C45.9435 26.1264 48.4901 23.5798 48.4901 20.4495C48.4901 17.5292 46.2971 15.2188 43.6445 14.8241C45.2933 11.0249 42.405 6.65188 38.0617 6.91925C37.8169 3.68934 35.0132 0.94043 31.5338 0.94043C28.5651 0.94043 26.0233 2.94107 25.2416 5.69316C20.3553 3.5837 15.1739 7.93916 16.2582 13.0333C12.8358 13.1309 9.91406 15.9539 9.91406 19.5776C9.91406 23.1887 12.8469 26.1263 16.4522 26.1263H25.0952L25.0956 38.9863L21.5338 35.4245C20.2545 34.1701 18.095 34.1608 16.7979 35.4339C16.0029 36.2364 15.3331 37.6769 16.6177 39.9065L21.7016 50.9847C23.9611 55.9092 28.9224 59.0911 34.3405 59.0911C42.0088 59.0911 48.2472 52.8526 48.2472 45.1843V34.2189C48.2472 32.2715 46.6716 30.642 44.6703 30.642C43.9522 30.642 43.2832 30.8555 42.723 31.2231C42.2231 29.7833 40.8573 28.815 39.3436 28.815C38.4633 28.815 37.6563 29.1346 37.0327 29.6637C36.3857 28.6392 35.2416 27.9924 34.0081 27.9924C33.3693 27.9924 32.7692 28.1607 32.2493 28.4554V26.1263L42.8132 26.1264ZM34.0082 29.8107C34.9649 29.8107 35.7669 30.6015 35.7669 31.5694V32.392C35.7669 32.894 36.174 33.3011 36.676 33.3011C37.178 33.3011 37.5851 32.894 37.5851 32.392C37.5851 31.4221 38.3739 30.6333 39.3438 30.6333C40.2922 30.6333 41.1025 31.4146 41.1025 32.392V34.2191C41.1025 34.7211 41.5096 35.1282 42.0116 35.1282C42.5136 35.1282 42.9207 34.7211 42.9207 34.2191C42.9207 33.2492 43.7055 32.4603 44.6705 32.4603C45.6454 32.4603 46.4292 33.2521 46.4292 34.2191V45.1845C46.4292 51.85 41.0062 57.2731 34.3407 57.2731C29.631 57.2731 25.3186 54.5072 23.3539 50.2267L18.2322 39.0748C17.3218 37.4893 17.8798 36.9254 18.0804 36.7226C18.6968 36.1182 19.6492 36.1229 20.2546 36.7164L25.3621 41.8239C25.6222 42.084 26.0119 42.1612 26.3528 42.021C26.6923 41.8802 26.9139 41.5487 26.9139 41.1812L26.9134 20.3154C26.9134 19.4245 27.4767 18.6424 28.2531 18.4555C29.3723 18.1854 30.4312 19.0502 30.4312 20.1636V31.5694C30.4312 32.0714 30.8383 32.4785 31.3403 32.4785C31.8423 32.4785 32.2494 32.0714 32.2494 31.5694C32.2494 30.5995 33.0382 29.8107 34.0082 29.8107ZM32.2385 20.0524C32.167 17.7622 30.0086 16.1601 27.8274 16.6879C26.2445 17.0687 25.0952 18.594 25.0952 20.3153V20.4124C23.295 18.5466 23.3082 15.5682 25.149 13.7275C25.5041 13.3724 25.5041 12.7972 25.149 12.442C24.7939 12.0868 24.2186 12.0869 23.8634 12.442C20.9134 15.392 21.3708 20.4483 25.0952 22.7001L25.0953 24.3082H16.4522C13.8497 24.3082 11.7323 22.1859 11.7323 19.5776C11.7323 16.5816 14.5037 14.3534 17.372 14.9438C17.7115 15.0143 18.0564 14.8865 18.2695 14.6158C18.4826 14.3454 18.5243 13.9779 18.3778 13.6663C16.3621 9.38097 21.425 5.02925 25.3877 7.85179C25.6558 8.04307 26.007 8.0737 26.3052 7.93261C26.6031 7.79098 26.8011 7.49888 26.8223 7.16952C26.9812 4.69616 29.0507 2.75852 31.5338 2.75852C34.4348 2.75852 36.5432 5.35716 36.2292 7.87034C36.192 8.16861 36.3047 8.46652 36.5302 8.66534C36.7566 8.86425 37.0661 8.93879 37.3572 8.86379C41.2775 7.85461 43.8015 12.3988 41.3012 15.1422C41.0372 15.4316 40.9883 15.8572 41.1796 16.1991C41.3713 16.5413 41.762 16.7229 42.1446 16.6474C44.4312 16.2103 46.6719 18.0217 46.6719 20.4493C46.6719 22.5769 44.9407 24.3081 42.8132 24.3081H32.2494V22.5113C35.6899 20.1725 36.0468 15.3124 33.1762 12.4419C32.8212 12.0868 32.2459 12.0868 31.8907 12.4419C31.5355 12.797 31.5356 13.3722 31.8907 13.7274C33.6197 15.4565 33.7212 18.1807 32.2385 20.0524Z" fill="#05C653"/>
<path d="M28.5185 8.75684C28.0165 8.75684 27.6094 9.16393 27.6094 9.66593V14.175C27.6094 14.677 28.0165 15.0841 28.5185 15.0841C29.0205 15.0841 29.4276 14.677 29.4276 14.175V9.66593C29.4276 9.16393 29.0205 8.75684 28.5185 8.75684Z" fill="#05C653"/>
</svg>
