<svg width="113" height="20" viewBox="0 0 113 20" fill="none" xmlns="http://www.w3.org/2000/svg">
<path d="M9.9974 1.66669L12.5724 6.88335L18.3307 7.72502L14.1641 11.7834L15.1474 17.5167L9.9974 14.8084L4.8474 17.5167L5.83073 11.7834L1.66406 7.72502L7.4224 6.88335L9.9974 1.66669Z" fill="#FDCB1A"/>
<path d="M33.4974 1.66687L36.0724 6.88354L41.8307 7.7252L37.6641 11.7835L38.6474 17.5169L33.4974 14.8085L28.3474 17.5169L29.3307 11.7835L25.1641 7.7252L30.9224 6.88354L33.4974 1.66687Z" fill="#FDCB1A"/>
<path d="M56.4974 1.66675L59.0724 6.88341L64.8307 7.72508L60.6641 11.7834L61.6474 17.5167L56.4974 14.8084L51.3474 17.5167L52.3307 11.7834L48.1641 7.72508L53.9224 6.88341L56.4974 1.66675Z" fill="#FDCB1A"/>
<path d="M79.4974 1.66675L82.0724 6.88341L87.8307 7.72508L83.6641 11.7834L84.6474 17.5167L79.4974 14.8084L74.3474 17.5167L75.3307 11.7834L71.1641 7.72508L76.9224 6.88341L79.4974 1.66675Z" fill="#FDCB1A"/>
<path d="M102.497 1.66675L105.072 6.88341L110.831 7.72508L106.664 11.7834L107.647 17.5167L102.497 14.8084L97.3474 17.5167L98.3307 11.7834L94.1641 7.72508L99.9224 6.88341L102.497 1.66675Z" fill="#FDCB1A"/>
</svg>
