<svg id="Layer_2" xmlns="http://www.w3.org/2000/svg" xmlns:xlink="http://www.w3.org/1999/xlink" viewBox="0 0 432.3373718 274.3200073"><style>.st0{fill:#aa3f59}.st0,.st1{clip-path:url(#XMLID_3_)}.st1,.st2{fill:#bc5572}.st3{fill:#aa3f59}.st4{fill:#9e3247}.st5{font-family:&apos;Georgia-Italic&apos;}.st6{font-size:12px}.st7{fill:#fff}</style><defs><path id="XMLID_1_" d="M432.337 274.32H25.777L229.057 0z"/></defs><use xlink:href="#XMLID_1_" overflow="visible" fill="#9e3247"/><clipPath id="XMLID_3_"><use xlink:href="#XMLID_1_" overflow="visible"/></clipPath><path class="st0" d="M78.676 91.251h300.763v91.819H78.676z"/><path class="st1" d="M72.631 0h300.763v91.819H72.631z"/><path class="st2" d="M172.944 47.234h46.097v3.023h-46.097z"/><path class="st3" d="M104.268 131.115h46.097v3.023h-46.097z"/><path class="st4" d="M29.79 222.553h46.097v3.023H29.79z"/><text transform="translate(118.102 51.523)" class="st5 st6">Högrisk</text><text transform="translate(203.297 57.057)"><tspan x="0" y="0" class="st7 st5 st6">Certifikat</tspan><tspan x="9.103" y="18" class="st7 st5 st6">Aktier</tspan></text><text transform="translate(197.384 115.558)"><tspan x="0" y="0" class="st7 st5 st6">Aktiefonder</tspan><tspan x="-3.548" y="18" class="st7 st5 st6">Hedgefonder</tspan><tspan x="-25.427" y="36" class="st7 st5 st6">Företagsobligationer</tspan><tspan x="6.724" y="54" class="st7 st5 st6">Autocalls</tspan></text><text transform="translate(153.57 215.462)"><tspan x="0" y="0" class="st7 st5 st6">Räntebärande värdepapper</tspan><tspan x="1.011" y="18" class="st7 st5 st6">Kapitalskyddade produkter</tspan><tspan x="46.187" y="36" class="st7 st5 st6">Bankkonto</tspan></text><text transform="translate(60.006 135.138)" class="st5 st6">Mellan</text><text transform="translate(.153 226.576)" class="st5 st6">Låg</text></svg>