<svg xmlns="http://www.w3.org/2000/svg" xmlns:xlink="http://www.w3.org/1999/xlink" width="430" height="108.694"><path fill="#FFF" d="M126 27v53.661h12.99V65.675h4.057l8.18 15.019h14.79l-12.925-20.941v-.164l11.321-17.57h-14.102l-7.657 12.76h-3.664V27z"/><defs><path id="a" d="M126 27h304v54.577H126z"/></defs><clipPath id="b"><use xlink:href="#a" overflow="visible"/></clipPath><path clip-path="url(#b)" fill="#FFF" d="M190.491 56.579h.524v-.688c0-3.239-2.487-4.286-5.693-4.286-4.876 0-10.438 3.664-10.438 3.664l-4.515-9.161s6.674-5.039 16.229-5.039c10.895 0 17.406 5.923 17.406 15.772V80.66H192.16v-2.323c0-1.276.164-2.388.164-2.388h-.164s-2.847 5.627-10.961 5.627c-7.199 0-13.121-4.81-13.121-12.466-.033-11.256 16.393-12.531 22.413-12.531m-5.726 15.083c3.37 0 6.38-3.664 6.38-6.838v-.818h-1.21c-4.123 0-8.867 1.211-8.867 4.417.032 1.8 1.145 3.239 3.697 3.239m28.237-29.643h12.466v6.544c0 1.275-.163 2.389-.163 2.389h.163c1.637-5.269 6.544-9.62 12.303-9.62.752 0 1.505.164 1.505.164v12.76s-1.047-.229-2.617-.229c-3.076 0-8.115.981-9.98 6.74-.458 1.439-.687 3.142-.687 5.269v14.625h-12.99V42.019zm32.262 0h12.466v3.37c0 1.276-.163 2.389-.163 2.389h.163c1.8-2.716 5.399-6.675 11.485-6.675 4.875 0 8.769 2.191 10.798 6.544h.163c2.029-3.239 6.609-6.544 12.401-6.544 7.067 0 12.532 3.828 12.532 14.494v25.064h-12.99V57.757c0-2.846-.523-4.876-3.01-4.876-4.123 0-6.315 3.011-7.133 7.297-.295 1.342-.295 2.912-.295 4.516v15.967h-12.989V57.757c0-2.846-.524-4.876-3.011-4.876-4.057 0-6.151 2.847-7.067 6.97-.295 1.439-.36 3.142-.36 4.81v16h-12.99V42.019zm88.442 14.56h.524v-.688c0-3.239-2.487-4.286-5.694-4.286-4.908 0-10.47 3.698-10.47 3.698l-4.515-9.162s6.675-5.039 16.229-5.039c10.895 0 17.407 5.922 17.407 15.771V80.66h-11.845v-2.323c0-1.276.164-2.388.164-2.388h-.164s-2.846 5.627-10.961 5.627c-7.198 0-13.121-4.81-13.121-12.466 0-11.256 16.425-12.531 22.446-12.531m-5.727 15.083c3.37 0 6.38-3.664 6.38-6.838v-.818h-1.21c-4.123 0-8.867 1.211-8.867 4.417.033 1.8 1.145 3.239 3.697 3.239m25.98 2.553l14.201-17.8c1.963-2.388 3.37-3.534 3.37-3.534v-.163s-.982.163-3.37.163h-13.579V42.019H389.1v6.544l-14.102 17.799c-1.865 2.323-3.468 3.534-3.468 3.534v.164s.981-.23 3.468-.23h14.495v10.83h-35.534v-6.445zm62.527-17.636h.524v-.688c0-3.239-2.487-4.286-5.694-4.286-4.875 0-10.437 3.664-10.437 3.664l-4.516-9.161s6.676-5.039 16.23-5.039c10.895 0 17.407 5.923 17.407 15.772V80.66h-11.845v-2.323c0-1.276.163-2.388.163-2.388h-.163s-2.847 5.627-10.961 5.627c-7.198 0-13.121-4.81-13.121-12.466-.032-11.256 16.393-12.531 22.413-12.531m-5.693 15.083c3.37 0 6.38-3.664 6.38-6.838v-.818h-1.21c-4.123 0-8.867 1.211-8.867 4.417 0 1.8 1.145 3.239 3.697 3.239"/><circle fill="#42964E" cx="54.347" cy="54.347" r="54.347"/><path fill="#56B55B" d="M54.347 0C24.332 0 0 24.332 0 54.347s24.332 54.347 54.347 54.347 54.347-24.332 54.347-54.347S84.362 0 54.347 0zm0 100.244c-25.348 0-45.897-20.549-45.897-45.897S28.999 8.45 54.347 8.45s45.897 20.549 45.897 45.897-20.549 45.897-45.897 45.897z"/><path fill="none" stroke="#FFF" stroke-width="2" stroke-miterlimit="10" d="M49.965 31.456v19.352h4.159l10.418-19.262M49.965 79.593V59.085h4.159l11.092 20.508M75.44 30.705l-13.575 23.8 14.241 25.088m-35.73-48.888v5.199h-5.43m5.43 43.441v-4.807h-5.43m0-30.604h5.43v19.12h-5.43"/><path fill="#FFF" d="M76.106 25.717a3.58 3.58 0 1 0 0 7.16 3.58 3.58 0 0 0 0-7.16zm0 5.133a1.553 1.553 0 1 1 0-3.105 1.553 1.553 0 0 1 0 3.105zm-10.89-5.133a3.58 3.58 0 1 0 0 7.16 3.58 3.58 0 0 0 0-7.16zm0 5.133a1.553 1.553 0 1 1 0-3.105 1.553 1.553 0 0 1 0 3.105zm-15.251-5.133a3.58 3.58 0 1 0 0 7.16 3.58 3.58 0 0 0 0-7.16zm0 5.133a1.553 1.553 0 1 1 0-3.105 1.553 1.553 0 0 1 0 3.105zm-9.589-5.133a3.58 3.58 0 1 0 0 7.16 3.58 3.58 0 0 0 0-7.16zm0 5.133a1.553 1.553 0 1 1 0-3.105 1.553 1.553 0 0 1 0 3.105zm-7.788 1.474a3.58 3.58 0 1 0 0 7.16 3.58 3.58 0 0 0 0-7.16zm0 5.133a1.553 1.553 0 1 1 0-3.105 1.553 1.553 0 0 1 0 3.105zm0 2.897a3.58 3.58 0 1 0 0 7.16 3.58 3.58 0 0 0 0-7.16zm0 5.133a1.553 1.553 0 1 1 0-3.105 1.553 1.553 0 0 1 0 3.105zm0 13.988a3.58 3.58 0 1 0 0 7.16 3.58 3.58 0 0 0 0-7.16zm0 5.133a1.553 1.553 0 1 1 0-3.105 1.553 1.553 0 0 1 0 3.105zm0 6.35a3.58 3.58 0 1 0 0 7.16 3.58 3.58 0 0 0 0-7.16zm0 5.133a1.553 1.553 0 1 1 0-3.105 1.553 1.553 0 0 1 0 3.105zm7.788 2.023a3.58 3.58 0 1 0 0 7.16 3.58 3.58 0 0 0 0-7.16zm0 5.133a1.553 1.553 0 1 1 0-3.105 1.553 1.553 0 0 1 0 3.105zm9.589-5.133a3.58 3.58 0 1 0 0 7.16 3.58 3.58 0 0 0 0-7.16zm0 5.133a1.553 1.553 0 1 1 0-3.105 1.553 1.553 0 0 1 0 3.105zm15.251-5.133a3.58 3.58 0 1 0 0 7.16 3.58 3.58 0 0 0 0-7.16zm0 5.133a1.553 1.553 0 1 1 0-3.105 1.553 1.553 0 0 1 0 3.105zm10.89-5.133a3.58 3.58 0 1 0 0 7.16 3.58 3.58 0 0 0 0-7.16zm0 5.133a1.553 1.553 0 1 1 0-3.105 1.553 1.553 0 0 1 0 3.105z"/><path fill="#367C3E" d="M92.72 54.347c0-23.916-18.361-43.531-41.754-45.548a46.279 46.279 0 0 1 3.977-.183c25.257 0 45.731 20.474 45.731 45.731S80.2 100.078 54.943 100.078c-1.341 0-2.665-.07-3.977-.183C74.358 97.878 92.72 78.263 92.72 54.347z"/></svg>