<svg id="Layer_1" xmlns="http://www.w3.org/2000/svg" viewBox="0 0 440.3 112.6"><style>.st3{fill:#fff}</style><circle cx="59.2" cy="56.2" r="54.3" fill="#41a56d"/><path d="M59.2 1.9c-30 0-54.3 24.3-54.3 54.3s24.3 54.3 54.3 54.3 54.3-24.3 54.3-54.3S89.2 1.9 59.2 1.9zm0 100.2c-25.3 0-45.9-20.5-45.9-45.9 0-25.3 20.5-45.9 45.9-45.9s45.9 20.5 45.9 45.9-20.6 45.9-45.9 45.9z" fill="#54bc7c"/><path d="M54.8 33.3v19.4H59l10.4-19.3M54.8 81.5V61H59l11 20.5m10.3-48.9L66.7 56.4l14.2 25.1M45.2 32.6v5.2h-5.4m5.4 43.4v-4.8h-5.4m0-30.6h5.4v19.1h-5.4" fill="none" stroke="#fff" stroke-width="2" stroke-miterlimit="10"/><path class="st3" d="M80.9 27.6c-2 0-3.6 1.6-3.6 3.6s1.6 3.6 3.6 3.6 3.6-1.6 3.6-3.6-1.6-3.6-3.6-3.6zm0 5.1c-.9 0-1.6-.7-1.6-1.6s.7-1.6 1.6-1.6 1.6.7 1.6 1.6-.7 1.6-1.6 1.6zM70 27.6c-2 0-3.6 1.6-3.6 3.6s1.6 3.6 3.6 3.6 3.6-1.6 3.6-3.6-1.6-3.6-3.6-3.6zm0 5.1c-.9 0-1.6-.7-1.6-1.6s.7-1.6 1.6-1.6 1.6.7 1.6 1.6-.7 1.6-1.6 1.6zm-15.2-5.1c-2 0-3.6 1.6-3.6 3.6s1.6 3.6 3.6 3.6 3.6-1.6 3.6-3.6-1.6-3.6-3.6-3.6zm0 5.1c-.9 0-1.6-.7-1.6-1.6s.7-1.6 1.6-1.6 1.6.7 1.6 1.6-.7 1.6-1.6 1.6zm-9.6-5.1c-2 0-3.6 1.6-3.6 3.6s1.6 3.6 3.6 3.6 3.6-1.6 3.6-3.6-1.6-3.6-3.6-3.6zm0 5.1c-.9 0-1.6-.7-1.6-1.6s.7-1.6 1.6-1.6 1.6.7 1.6 1.6-.7 1.6-1.6 1.6zm-7.8 1.5c-2 0-3.6 1.6-3.6 3.6s1.6 3.6 3.6 3.6 3.6-1.6 3.6-3.6-1.6-3.6-3.6-3.6zm0 5.1c-.9 0-1.6-.7-1.6-1.6s.7-1.6 1.6-1.6c.9 0 1.6.7 1.6 1.6s-.7 1.6-1.6 1.6zm0 2.9c-2 0-3.6 1.6-3.6 3.6s1.6 3.6 3.6 3.6 3.6-1.6 3.6-3.6-1.6-3.6-3.6-3.6zm0 5.2c-.9 0-1.6-.7-1.6-1.6s.7-1.6 1.6-1.6c.9 0 1.6.7 1.6 1.6s-.7 1.6-1.6 1.6zm0 14c-2 0-3.6 1.6-3.6 3.6s1.6 3.6 3.6 3.6S41 67 41 65s-1.6-3.6-3.6-3.6zm0 5.1c-.9 0-1.6-.7-1.6-1.6s.7-1.6 1.6-1.6c.9 0 1.6.7 1.6 1.6s-.7 1.6-1.6 1.6zm0 6.3c-2 0-3.6 1.6-3.6 3.6s1.6 3.6 3.6 3.6 3.6-1.6 3.6-3.6-1.6-3.6-3.6-3.6zm0 5.2c-.9 0-1.6-.7-1.6-1.6s.7-1.6 1.6-1.6c.9 0 1.6.7 1.6 1.6s-.7 1.6-1.6 1.6zm7.8 2c-2 0-3.6 1.6-3.6 3.6s1.6 3.6 3.6 3.6 3.6-1.6 3.6-3.6-1.6-3.6-3.6-3.6zm0 5.1c-.9 0-1.6-.7-1.6-1.6s.7-1.6 1.6-1.6 1.6.7 1.6 1.6-.7 1.6-1.6 1.6zm9.6-5.1c-2 0-3.6 1.6-3.6 3.6s1.6 3.6 3.6 3.6 3.6-1.6 3.6-3.6-1.6-3.6-3.6-3.6zm0 5.1c-.9 0-1.6-.7-1.6-1.6s.7-1.6 1.6-1.6 1.6.7 1.6 1.6-.7 1.6-1.6 1.6zM70 80c-2 0-3.6 1.6-3.6 3.6s1.6 3.6 3.6 3.6 3.6-1.6 3.6-3.6S72 80 70 80zm0 5.1c-.9 0-1.6-.7-1.6-1.6S69.2 82 70 82s1.6.7 1.6 1.6-.7 1.5-1.6 1.5zM80.9 80c-2 0-3.6 1.6-3.6 3.6s1.6 3.6 3.6 3.6 3.6-1.6 3.6-3.6-1.6-3.6-3.6-3.6zm0 5.1c-.9 0-1.6-.7-1.6-1.6s.7-1.6 1.6-1.6 1.6.7 1.6 1.6-.7 1.6-1.6 1.6z"/><path d="M97.6 56.2c0-23.9-18.4-43.5-41.8-45.5 1.3-.1 2.6-.2 4-.2 25.3 0 45.7 20.5 45.7 45.7S85 102 59.8 102c-1.3 0-2.7-.1-4-.2 23.4-2 41.8-21.7 41.8-45.6z" fill="#3a915d"/><path class="st3" d="M131.5 27.7h13v27.8h3.7l7.7-12.8H170l-11.3 17.6v.2l12.9 20.9h-14.8l-8.2-15h-4.1v15h-13V27.7zm64.4 29.6h.5v-.7c0-3.2-2.5-4.3-5.7-4.3-4.9 0-10.4 3.7-10.4 3.7l-4.5-9.2s6.7-5 16.2-5c10.9 0 17.4 5.9 17.4 15.8v23.8h-11.8v-2.3c0-1.3.2-2.4.2-2.4h-.2s-2.8 5.6-11 5.6c-7.2 0-13.1-4.8-13.1-12.5 0-11.2 16.4-12.5 22.4-12.5zm-5.7 15.1c3.4 0 6.4-3.7 6.4-6.8v-.8h-1.2c-4.1 0-8.9 1.2-8.9 4.4.1 1.8 1.2 3.2 3.7 3.2zm28.3-29.6H231v6.5c0 1.3-.2 2.4-.2 2.4h.2c1.6-5.3 6.5-9.6 12.3-9.6.8 0 1.5.2 1.5.2V55s-1-.2-2.6-.2c-3.1 0-8.1 1-10 6.7-.5 1.4-.7 3.1-.7 5.3v14.6h-13V42.8zm32.2 0h12.5v3.4c0 1.3-.2 2.4-.2 2.4h.2c1.8-2.7 5.4-6.7 11.5-6.7 4.9 0 8.8 2.2 10.8 6.5h.2c2-3.2 6.6-6.5 12.4-6.5 7.1 0 12.5 3.8 12.5 14.5v25.1h-13v-23c0-2.8-.5-4.9-3-4.9-4.1 0-6.3 3-7.1 7.3-.3 1.3-.3 2.9-.3 4.5v16h-13V58.5c0-2.8-.5-4.9-3-4.9-4.1 0-6.2 2.8-7.1 7-.3 1.4-.4 3.1-.4 4.8v16h-13V42.8zm88.5 14.5h.5v-.7c0-3.2-2.5-4.3-5.7-4.3-4.9 0-10.5 3.7-10.5 3.7l-4.5-9.2s6.7-5 16.2-5c10.9 0 17.4 5.9 17.4 15.8v23.8h-11.8v-2.3c0-1.3.2-2.4.2-2.4h-.2s-2.8 5.6-11 5.6c-7.2 0-13.1-4.8-13.1-12.5 0-11.2 16.4-12.5 22.5-12.5zm-5.8 15.1c3.4 0 6.4-3.7 6.4-6.8v-.8h-1.2c-4.1 0-8.9 1.2-8.9 4.4.1 1.8 1.2 3.2 3.7 3.2zm26 2.6l14.2-17.8c2-2.4 3.4-3.5 3.4-3.5v-.2s-1 .2-3.4.2H360V42.8h34.5v6.5l-14.1 17.8c-1.9 2.3-3.5 3.5-3.5 3.5v.2s1-.2 3.5-.2h14.5v10.8h-35.5V75zm62.5-17.7h.5v-.7c0-3.2-2.5-4.3-5.7-4.3-4.9 0-10.4 3.7-10.4 3.7l-4.5-9.2s6.7-5 16.2-5c10.9 0 17.4 5.9 17.4 15.8v23.8h-11.8v-2.3c0-1.3.2-2.4.2-2.4h-.2s-2.8 5.6-11 5.6c-7.2 0-13.1-4.8-13.1-12.5 0-11.2 16.4-12.5 22.4-12.5zm-5.7 15.1c3.4 0 6.4-3.7 6.4-6.8v-.8h-1.2c-4.1 0-8.9 1.2-8.9 4.4.1 1.8 1.2 3.2 3.7 3.2z"/></svg>