<svg xmlns="http://www.w3.org/2000/svg" width="3048.709" height="769.082" viewBox="34.701 1139.791 3048.709 769.082"><circle fill="#41A56D" cx="419.242" cy="1524.332" r="384.541"/><path fill="#54BC7C" d="M419.242 1139.791c-212.454 0-384.541 172.087-384.541 384.541s172.087 384.541 384.541 384.541 384.541-172.087 384.541-384.541-172.088-384.541-384.541-384.541zm0 709.595c-179.169 0-325.054-145.177-325.054-325.054 0-179.169 145.177-325.054 325.054-325.054s325.054 145.177 325.054 325.054c0 179.877-145.885 325.054-325.054 325.054z"/><path fill="none" stroke="#FFF" stroke-width="2" stroke-miterlimit="10" d="M388.082 1362.159v137.387h29.743l73.651-136.679m-103.394 340.634v-145.177h29.743l77.9 145.177m72.942-346.299l-96.312 168.546 100.561 177.753m-252.819-346.299v36.825h-38.242m38.242 307.349v-33.992h-38.242m0-216.703h38.242v135.262h-38.242"/><path fill="#FFF" d="M572.916 1321.793c-14.164 0-25.494 11.331-25.494 25.494s11.331 25.494 25.494 25.494c14.164 0 25.494-11.331 25.494-25.494s-11.33-25.494-25.494-25.494zm0 36.117c-6.374 0-11.331-4.957-11.331-11.331s4.957-11.331 11.331-11.331 11.331 4.957 11.331 11.331-4.957 11.331-11.331 11.331zm-77.191-36.117c-14.164 0-25.494 11.331-25.494 25.494s11.331 25.494 25.494 25.494 25.494-11.331 25.494-25.494-11.33-25.494-25.494-25.494zm0 36.117c-6.374 0-11.331-4.957-11.331-11.331s4.957-11.331 11.331-11.331 11.331 4.957 11.331 11.331-4.957 11.331-11.331 11.331zm-107.643-36.117c-14.164 0-25.494 11.331-25.494 25.494s11.331 25.494 25.494 25.494 25.494-11.331 25.494-25.494a25.388 25.388 0 0 0-25.494-25.494zm0 36.117c-6.374 0-11.331-4.957-11.331-11.331s4.957-11.331 11.331-11.331 11.331 4.957 11.331 11.331-4.958 11.331-11.331 11.331zm-67.985-36.117c-14.164 0-25.494 11.331-25.494 25.494s11.331 25.494 25.494 25.494 25.494-11.331 25.494-25.494-11.331-25.494-25.494-25.494zm0 36.117c-6.374 0-11.331-4.957-11.331-11.331s4.957-11.331 11.331-11.331 11.331 4.957 11.331 11.331-4.958 11.331-11.331 11.331zm-55.238 10.623c-14.164 0-25.494 11.331-25.494 25.494s11.331 25.494 25.494 25.494 25.494-11.331 25.494-25.494-11.331-25.494-25.494-25.494zm0 36.117c-6.374 0-11.331-4.957-11.331-11.331s4.957-11.331 11.331-11.331 11.331 4.957 11.331 11.331c0 6.373-4.958 11.331-11.331 11.331zm0 20.537c-14.164 0-25.494 11.331-25.494 25.494s11.331 25.494 25.494 25.494 25.494-11.331 25.494-25.494-11.331-25.494-25.494-25.494zm0 36.825c-6.374 0-11.331-4.957-11.331-11.331s4.957-11.331 11.331-11.331 11.331 4.957 11.331 11.331-4.958 11.331-11.331 11.331zm0 99.145c-14.164 0-25.494 11.331-25.494 25.495s11.331 25.494 25.494 25.494 25.494-11.331 25.494-25.494-11.331-25.495-25.494-25.495zm0 36.117c-6.374 0-11.331-4.957-11.331-11.331s4.957-11.331 11.331-11.331 11.331 4.957 11.331 11.331-4.958 11.331-11.331 11.331zm0 44.616c-14.164 0-25.494 11.331-25.494 25.494s11.331 25.494 25.494 25.494 25.494-11.331 25.494-25.494-11.331-25.494-25.494-25.494zm0 36.825c-6.374 0-11.331-4.957-11.331-11.331s4.957-11.331 11.331-11.331 11.331 4.957 11.331 11.331-4.958 11.331-11.331 11.331zm55.238 14.163c-14.164 0-25.494 11.331-25.494 25.495s11.331 25.494 25.494 25.494 25.494-11.331 25.494-25.494-11.331-25.495-25.494-25.495zm0 36.117c-6.374 0-11.331-4.957-11.331-11.331s4.957-11.331 11.331-11.331 11.331 4.957 11.331 11.331-4.958 11.331-11.331 11.331zm67.985-36.117c-14.164 0-25.494 11.331-25.494 25.495s11.331 25.494 25.494 25.494 25.494-11.331 25.494-25.494a25.389 25.389 0 0 0-25.494-25.495zm0 36.117c-6.374 0-11.331-4.957-11.331-11.331s4.957-11.331 11.331-11.331 11.331 4.957 11.331 11.331-4.958 11.331-11.331 11.331zm107.643-36.117c-14.164 0-25.494 11.331-25.494 25.495s11.331 25.494 25.494 25.494 25.494-11.331 25.494-25.494-11.33-25.495-25.494-25.495zm0 36.117c-6.374 0-11.331-4.957-11.331-11.331s5.665-10.623 11.331-10.623c5.665 0 11.331 4.957 11.331 11.331s-4.957 10.623-11.331 10.623zm77.191-36.117c-14.164 0-25.494 11.331-25.494 25.495s11.331 25.494 25.494 25.494c14.164 0 25.494-11.331 25.494-25.494s-11.33-25.495-25.494-25.495zm0 36.117c-6.374 0-11.331-4.957-11.331-11.331s4.957-11.331 11.331-11.331 11.331 4.957 11.331 11.331-4.957 11.331-11.331 11.331z"/><path fill="#3A915D" d="M691.182 1524.332c0-169.255-130.305-308.058-296.019-322.221 9.206-.708 18.413-1.416 28.327-1.416 179.169 0 323.638 145.177 323.638 323.638s-145.177 324.346-323.638 324.346c-9.206 0-19.121-.708-28.327-1.416 165.714-14.165 296.019-153.676 296.019-322.931z"/><path d="M931.255 1322.501h92.063v196.874h26.203l54.53-90.647h99.853l-80.024 124.639v1.416l91.355 148.009h-104.81l-58.071-106.227h-29.035v106.227h-92.063l-.001-380.291zm456.067 209.621h3.541v-4.957c0-22.662-17.704-30.452-40.366-30.452-34.701 0-73.651 26.203-73.651 26.203l-31.868-65.152s47.448-35.409 114.725-35.409c77.191 0 123.223 41.783 123.223 111.892v168.547h-83.565v-16.288c0-9.206 1.416-16.996 1.416-16.996h-1.416s-19.829 39.658-77.9 39.658c-50.989 0-92.771-33.993-92.771-88.522 0-79.318 116.141-88.524 158.632-88.524zm-40.366 106.935c24.078 0 45.323-26.203 45.323-48.156v-5.665h-8.498c-29.035 0-63.028 8.498-63.028 31.16.708 12.746 8.498 22.661 26.203 22.661zm200.414-209.621h88.522v46.032c0 9.206-1.416 16.996-1.416 16.996h1.416c11.331-37.533 46.032-67.985 87.106-67.985 5.665 0 10.623 1.416 10.623 1.416v89.939s-7.082-1.416-18.413-1.416c-21.954 0-57.363 7.082-70.818 47.448-3.541 9.914-4.957 21.953-4.957 37.533v103.394h-92.063v-273.357zm228.034 0h88.522v24.078c0 9.206-1.416 16.996-1.416 16.996h1.416c12.747-19.121 38.242-47.448 81.441-47.448 34.701 0 62.32 15.58 76.483 46.032h1.416c14.164-22.662 46.74-46.032 87.814-46.032 50.281 0 88.522 26.911 88.522 102.686v177.753h-92.063V1540.62c0-19.829-3.541-34.701-21.245-34.701-29.035 0-44.615 21.245-50.281 51.697-2.125 9.206-2.125 20.537-2.125 31.868v113.309h-92.063V1540.62c0-19.829-3.541-34.701-21.245-34.701-29.035 0-43.907 19.829-50.281 49.573-2.125 9.915-2.833 21.953-2.833 33.993v113.309h-92.063l.001-273.358zm626.738 102.686h3.541v-4.957c0-22.662-17.704-30.452-40.366-30.452-34.701 0-74.359 26.203-74.359 26.203l-31.868-65.152s47.448-35.409 114.725-35.409c77.191 0 123.223 41.783 123.223 111.892v168.547h-83.565v-16.288c0-9.206 1.417-16.996 1.417-16.996h-1.417s-19.829 39.658-77.9 39.658c-50.989 0-92.771-33.993-92.771-88.522 0-79.318 116.141-88.524 159.34-88.524zm-41.075 106.935c24.078 0 45.323-26.203 45.323-48.156v-5.665h-8.498c-29.035 0-63.028 8.498-63.028 31.16.709 12.746 8.499 22.661 26.203 22.661zm184.127 18.412l100.561-126.056c14.164-16.996 24.078-24.786 24.078-24.786v-1.416s-7.082 1.416-24.078 1.416h-96.312v-77.192h244.322v46.032l-99.853 126.056c-13.455 16.288-24.786 24.786-24.786 24.786v1.416s7.082-1.416 24.786-1.416h102.686v76.483h-251.403v-45.323zm442.611-125.347h3.541v-4.957c0-22.662-17.704-30.452-40.366-30.452-34.701 0-73.651 26.203-73.651 26.203l-31.868-65.152s47.448-35.409 114.725-35.409c77.191 0 123.223 41.783 123.223 111.892v168.547h-83.565v-16.288c0-9.206 1.417-16.996 1.417-16.996h-1.417s-19.829 39.658-77.9 39.658c-50.989 0-92.771-33.993-92.771-88.522 0-79.318 116.142-88.524 158.632-88.524zm-40.366 106.935c24.078 0 45.323-26.203 45.323-48.156v-5.665h-8.498c-29.035 0-63.028 8.498-63.028 31.16.709 12.746 8.499 22.661 26.203 22.661z" fill="#FFF"/></svg>