<svg xmlns="http://www.w3.org/2000/svg" width="1025.766" height="219.988"><path d="M250.087 41.798h32.998v70.836h9.24l19.359-32.558h36.078l-29.038 44.878v.44l32.998 53.237h-37.838l-20.679-38.278h-10.559v38.278h-32.998V41.798h.439zm164.551 75.676h1.32v-1.76c0-8.36-6.16-10.999-14.519-10.999-12.319 0-26.399 9.24-26.399 9.24l-11.439-23.319s17.159-12.759 41.358-12.759c27.718 0 44.438 14.959 44.438 40.038v60.717h-30.358v-5.72c0-3.08.44-6.16.44-6.16h-.44s-7.04 14.519-28.158 14.519c-18.479 0-33.438-12.319-33.438-31.678-.002-29.039 41.796-32.119 57.195-32.119zm-14.519 38.278c8.8 0 16.279-9.24 16.279-17.599v-2.2h-3.08c-10.559 0-22.439 3.08-22.439 11.439-.439 4.84 2.64 8.36 9.24 8.36zm71.716-75.676h31.678v16.719c0 3.08-.44 6.16-.44 6.16h.44c3.96-13.639 16.719-24.639 31.238-24.639 1.76 0 3.96.44 3.96.44v32.558s-2.64-.44-6.6-.44c-7.92 0-20.679 2.64-25.519 17.159-1.32 3.52-1.76 7.92-1.76 13.639v37.398h-32.998l.001-98.994zm82.276 0h31.678v8.8c0 3.08-.44 6.16-.44 6.16h.44c4.4-7.04 13.639-17.159 29.478-17.159 12.319 0 22.439 5.72 27.718 16.719h.44c5.28-8.36 16.719-16.719 31.678-16.719 18.039 0 32.118 9.68 32.118 36.958v63.797h-32.998v-58.517c0-7.04-1.32-12.319-7.48-12.319-10.559 0-16.279 7.48-18.039 18.479-.88 3.52-.88 7.48-.88 11.439v40.918h-32.998v-58.517c0-7.04-1.32-12.319-7.48-12.319-10.559 0-15.839 7.04-18.039 17.599-.88 3.52-.88 7.92-.88 12.319v40.918h-32.998V80.076h-1.318zm225.707 37.398h1.32v-1.76c0-8.36-6.16-10.999-14.519-10.999-12.319 0-26.839 9.24-26.839 9.24l-11.439-23.319s17.159-12.759 41.358-12.759c27.718 0 44.438 14.959 44.438 40.038v60.717h-30.358v-5.72c0-3.08.44-6.16.44-6.16h-.44s-7.04 14.519-28.158 14.519c-18.479 0-33.438-12.319-33.438-31.678.439-29.039 42.236-32.119 57.635-32.119zm-14.519 38.278c8.799 0 16.279-9.24 16.279-17.599v-2.2h-3.08c-10.559 0-22.439 3.08-22.439 11.439-.439 4.84 2.64 8.36 9.24 8.36zm65.997 6.599l36.078-45.317c4.84-6.16 8.8-8.8 8.8-8.8v-.44s-2.64.44-8.8.44h-34.758V80.516h87.995v16.719l-36.078 45.317c-4.84 5.72-8.799 8.8-8.799 8.8v.44s2.64-.44 8.799-.44h36.958v27.718h-90.635v-16.719h.44zm159.711-44.877h1.32v-1.76c0-8.36-6.16-10.999-14.519-10.999-12.319 0-26.399 9.24-26.399 9.24L939.97 90.636s17.159-12.759 41.358-12.759c27.718 0 44.438 14.959 44.438 40.038v60.717h-30.358v-5.72c0-3.08.44-6.16.44-6.16h-.44s-7.04 14.519-28.158 14.519c-18.479 0-33.438-12.319-33.438-31.678-.002-29.039 41.796-32.119 57.195-32.119zm-14.519 38.278c8.8 0 16.279-9.24 16.279-17.599v-2.2h-3.08c-10.559 0-22.439 3.08-22.439 11.439-.44 4.84 2.64 8.36 9.24 8.36z" fill="#FFF"/><circle fill="#40A36C" cx="109.994" cy="109.994" r="109.994"/><path fill="#53B378" d="M109.994 0C49.277 0 0 49.277 0 109.994s49.277 109.994 109.994 109.994 109.994-49.277 109.994-109.994S170.711 0 109.994 0zm0 202.829c-51.477 0-92.835-41.358-92.835-92.835s41.358-92.835 92.835-92.835 92.835 41.358 92.835 92.835c0 51.037-41.358 92.835-92.835 92.835z"/><path fill="none" stroke="#FFF" stroke-width="2" stroke-miterlimit="10" d="M101.194 63.797v39.157h8.36l21.119-39.157m-29.479 97.234v-41.357h8.36l22.439 41.357m20.679-98.994l-27.279 48.397 28.599 50.597M81.836 62.037v10.559h-11m11 87.995v-9.679h-11m0-62.037h11v38.718h-11"/><path fill="#FFF" d="M153.992 51.917c-3.96 0-7.04 3.08-7.04 7.04s3.08 7.04 7.04 7.04 7.04-3.08 7.04-7.04-3.081-7.04-7.04-7.04zm0 10.56c-1.76 0-3.08-1.32-3.08-3.08s1.32-3.08 3.08-3.08 3.08 1.32 3.08 3.08c-.001 1.76-1.321 3.08-3.08 3.08zm-21.999-10.56c-3.96 0-7.04 3.08-7.04 7.04s3.08 7.04 7.04 7.04 7.04-3.08 7.04-7.04-3.08-7.04-7.04-7.04zm0 10.56c-1.76 0-3.08-1.32-3.08-3.08s1.32-3.08 3.08-3.08 3.08 1.32 3.08 3.08-1.32 3.08-3.08 3.08zm-30.799-10.56c-3.96 0-7.04 3.08-7.04 7.04s3.08 7.04 7.04 7.04 7.04-3.08 7.04-7.04-3.08-7.04-7.04-7.04zm0 10.56c-1.76 0-3.08-1.32-3.08-3.08s1.32-3.08 3.08-3.08 3.08 1.32 3.08 3.08-1.32 3.08-3.08 3.08zm-19.358-10.56c-3.96 0-7.04 3.08-7.04 7.04s3.08 7.04 7.04 7.04 7.04-3.08 7.04-7.04-3.081-7.04-7.04-7.04zm0 10.56c-1.76 0-3.08-1.32-3.08-3.08s1.32-3.08 3.08-3.08 3.08 1.32 3.08 3.08c-.001 1.76-1.321 3.08-3.08 3.08zm-15.84 3.079c-3.96 0-7.04 3.08-7.04 7.04s3.08 7.04 7.04 7.04 7.04-3.08 7.04-7.04c.44-3.96-3.08-7.04-7.04-7.04zm0 10.12c-1.76 0-3.08-1.32-3.08-3.08s1.32-3.08 3.08-3.08 3.08 1.32 3.08 3.08-1.32 3.08-3.08 3.08zm0 6.16c-3.96 0-7.04 3.08-7.04 7.04s3.08 7.04 7.04 7.04 7.04-3.08 7.04-7.04c0-3.961-3.08-7.04-7.04-7.04zm0 10.119c-1.76 0-3.08-1.32-3.08-3.08s1.32-3.08 3.08-3.08 3.08 1.32 3.08 3.08-1.32 3.08-3.08 3.08zm0 28.598c-3.96 0-7.04 3.08-7.04 7.04s3.08 7.04 7.04 7.04 7.04-3.08 7.04-7.04-3.08-7.04-7.04-7.04zm0 10.12c-1.76 0-3.08-1.32-3.08-3.08s1.32-3.08 3.08-3.08 3.08 1.32 3.08 3.08-1.32 3.08-3.08 3.08zm0 12.759c-3.96 0-7.04 3.08-7.04 7.04s3.08 7.04 7.04 7.04 7.04-3.08 7.04-7.04c.44-3.52-3.08-7.04-7.04-7.04zm0 10.56c-1.76 0-3.08-1.32-3.08-3.08s1.32-3.08 3.08-3.08 3.08 1.32 3.08 3.08-1.32 3.08-3.08 3.08zm15.84 3.959c-3.96 0-7.04 3.08-7.04 7.04s3.08 7.04 7.04 7.04 7.04-3.08 7.04-7.04c-.001-3.96-3.081-7.04-7.04-7.04zm0 10.56c-1.76 0-3.08-1.32-3.08-3.08s1.32-3.08 3.08-3.08 3.08 1.32 3.08 3.08-1.321 3.08-3.08 3.08zm19.358-10.56c-3.96 0-7.04 3.08-7.04 7.04s3.08 7.04 7.04 7.04 7.04-3.08 7.04-7.04-3.08-7.04-7.04-7.04zm0 10.56c-1.76 0-3.08-1.32-3.08-3.08s1.32-3.08 3.08-3.08 3.08 1.32 3.08 3.08-1.32 3.08-3.08 3.08zm30.799-10.56c-3.96 0-7.04 3.08-7.04 7.04s3.08 7.04 7.04 7.04 7.04-3.08 7.04-7.04c-.001-3.96-3.08-7.04-7.04-7.04zm0 10.56c-1.76 0-3.08-1.32-3.08-3.08s1.32-3.08 3.08-3.08 3.08 1.32 3.08 3.08-1.32 3.08-3.08 3.08zm21.999-10.56c-3.96 0-7.04 3.08-7.04 7.04s3.08 7.04 7.04 7.04 7.04-3.08 7.04-7.04c-.001-3.96-3.081-7.04-7.04-7.04zm0 10.56c-1.76 0-3.08-1.32-3.08-3.08s1.32-3.08 3.08-3.08 3.08 1.32 3.08 3.08-1.321 3.08-3.08 3.08z"/><path fill="#38915D" d="M187.87 109.994c0-48.397-36.958-87.995-84.475-91.955 2.64-.44 5.28-.44 7.92-.44 51.037 0 92.395 41.358 92.395 92.395s-41.358 92.395-92.395 92.395c-2.64 0-5.28 0-7.92-.44 47.077-3.96 84.475-43.558 84.475-91.955z"/></svg>