<svg xmlns="http://www.w3.org/2000/svg" xmlns:xlink="http://www.w3.org/1999/xlink" width="209.612" height="249.734"><path fill="none" stroke="#FFF" stroke-miterlimit="10" d="M85.406 17.078v88.75h18l48-88.75m-66 213.323v-88.75h18l48 88.75m44.25-211.573l-58.75 103 61.63 108.573M43.906 18.828v22.5h-23.5m23.5 188v-20.802h-23.5m0-132.448h23.5v82.75h-23.5"/><defs><path id="a" d="M0 0h209.612v249.734H0z"/></defs><clipPath id="b"><use xlink:href="#a" overflow="visible"/></clipPath><path clip-path="url(#b)" fill="#FFF" d="M199.409 0c-5.636 0-10.203 4.567-10.203 10.203 0 5.635 4.567 10.203 10.203 10.203 5.635 0 10.203-4.568 10.203-10.203C209.612 4.567 205.044 0 199.409 0m0 14.63a4.428 4.428 0 1 1 0-8.856 4.428 4.428 0 0 1 0 8.856m-45-14.63c-5.636 0-10.203 4.567-10.203 10.203 0 5.635 4.567 10.203 10.203 10.203 5.635 0 10.203-4.568 10.203-10.203C164.612 4.567 160.044 0 154.409 0m0 14.63a4.428 4.428 0 1 1 0-8.856 4.428 4.428 0 0 1 0 8.856m45 214.698c-5.636 0-10.203 4.568-10.203 10.203s4.567 10.203 10.203 10.203c5.635 0 10.203-4.568 10.203-10.203s-4.568-10.203-10.203-10.203m0 14.63a4.427 4.427 0 1 1-.002-8.854 4.427 4.427 0 0 1 .002 8.854m-45-14.63c-5.636 0-10.203 4.568-10.203 10.203s4.567 10.203 10.203 10.203c5.635 0 10.203-4.568 10.203-10.203s-4.568-10.203-10.203-10.203m0 14.63a4.427 4.427 0 1 1-.002-8.854 4.427 4.427 0 0 1 .002 8.854M85.406 0c-5.635 0-10.203 4.567-10.203 10.203 0 5.635 4.568 10.203 10.203 10.203s10.203-4.568 10.203-10.203C95.609 4.567 91.041 0 85.406 0m0 14.63a4.427 4.427 0 1 1 0-8.854 4.427 4.427 0 0 1 0 8.854M43.906 0c-5.635 0-10.203 4.567-10.203 10.203 0 5.635 4.568 10.203 10.203 10.203s10.203-4.568 10.203-10.203C54.109 4.567 49.541 0 43.906 0m0 14.63a4.427 4.427 0 1 1 0-8.854 4.427 4.427 0 0 1 0 8.854M10.203 31.125C4.568 31.125 0 35.692 0 41.328c0 5.635 4.568 10.203 10.203 10.203s10.203-4.568 10.203-10.203c0-5.636-4.568-10.203-10.203-10.203m0 14.63a4.427 4.427 0 1 1 0-8.854 4.427 4.427 0 0 1 0 8.854m0 20.12C4.568 65.875 0 70.442 0 76.078c0 5.635 4.568 10.203 10.203 10.203s10.203-4.568 10.203-10.203c0-5.636-4.568-10.203-10.203-10.203m0 14.63a4.427 4.427 0 1 1 0-8.854 4.427 4.427 0 0 1 0 8.854m0 68.119C4.568 148.624 0 153.193 0 158.827s4.568 10.203 10.203 10.203 10.203-4.568 10.203-10.203-4.568-10.203-10.203-10.203m0 14.63a4.426 4.426 0 1 1 0-8.854 4.427 4.427 0 1 1 0 8.854m0 35.266C4.568 198.52 0 203.088 0 208.723c0 5.636 4.568 10.203 10.203 10.203s10.203-4.567 10.203-10.203c0-5.635-4.568-10.203-10.203-10.203m0 14.631a4.427 4.427 0 1 1 0-8.854 4.427 4.427 0 0 1 0 8.854m33.703 16.177c-5.635 0-10.203 4.568-10.203 10.203s4.568 10.203 10.203 10.203 10.203-4.568 10.203-10.203-4.568-10.203-10.203-10.203m0 14.63a4.426 4.426 0 1 1 0-8.854 4.427 4.427 0 1 1 0 8.854m41.5-14.63c-5.635 0-10.203 4.568-10.203 10.203s4.568 10.203 10.203 10.203 10.203-4.568 10.203-10.203-4.568-10.203-10.203-10.203m0 14.63a4.426 4.426 0 1 1 0-8.854 4.427 4.427 0 1 1 0 8.854"/></svg>