<?xml version="1.0" encoding="utf-8"?>
<!-- Generator: Adobe Illustrator 17.0.0, SVG Export Plug-In . SVG Version: 6.00 Build 0)  -->
<!DOCTYPE svg PUBLIC "-//W3C//DTD SVG 1.1//EN" "http://www.w3.org/Graphics/SVG/1.1/DTD/svg11.dtd">
<svg version="1.1" id="Слой_1" xmlns="http://www.w3.org/2000/svg" xmlns:xlink="http://www.w3.org/1999/xlink" x="0px" y="0px"
	 width="209.612px" height="249.734px" viewBox="0 0 209.612 249.734" enable-background="new 0 0 209.612 249.734"
	 xml:space="preserve">
<polyline fill="none" stroke="#FFFFFF" stroke-miterlimit="10" points="85.406,17.078 85.406,105.828 103.406,105.828 
	151.406,17.078 "/>
<polyline fill="none" stroke="#FFFFFF" stroke-miterlimit="10" points="85.406,230.401 85.406,141.651 103.406,141.651 
	151.406,230.401 "/>
<polyline fill="none" stroke="#FFFFFF" stroke-miterlimit="10" points="195.656,18.828 136.906,121.828 198.536,230.401 "/>
<polyline fill="none" stroke="#FFFFFF" stroke-miterlimit="10" points="43.906,18.828 43.906,41.328 20.406,41.328 "/>
<polyline fill="none" stroke="#FFFFFF" stroke-miterlimit="10" points="43.906,229.328 43.906,208.526 20.406,208.526 "/>
<polyline fill="none" stroke="#FFFFFF" stroke-miterlimit="10" points="20.406,76.078 43.906,76.078 43.906,158.828 20.406,158.828 
	"/>
<g>
	<defs>
		<rect id="SVGID_1_" width="209.612" height="249.734"/>
	</defs>
	<clipPath id="SVGID_2_">
		<use xlink:href="#SVGID_1_"  overflow="visible"/>
	</clipPath>
	<path clip-path="url(#SVGID_2_)" fill="#FFFFFF" d="M199.409,0c-5.636,0-10.203,4.567-10.203,10.203
		c0,5.635,4.567,10.203,10.203,10.203c5.635,0,10.203-4.568,10.203-10.203C209.612,4.567,205.044,0,199.409,0 M199.409,14.63
		c-2.445,0-4.428-1.982-4.428-4.427c0-2.445,1.983-4.427,4.428-4.427c2.444,0,4.427,1.982,4.427,4.427
		C203.836,12.648,201.853,14.63,199.409,14.63"/>
	<path clip-path="url(#SVGID_2_)" fill="#FFFFFF" d="M154.409,0c-5.636,0-10.203,4.567-10.203,10.203
		c0,5.635,4.567,10.203,10.203,10.203c5.635,0,10.203-4.568,10.203-10.203C164.612,4.567,160.044,0,154.409,0 M154.409,14.63
		c-2.445,0-4.428-1.982-4.428-4.427c0-2.445,1.983-4.427,4.428-4.427c2.444,0,4.427,1.982,4.427,4.427
		C158.836,12.648,156.853,14.63,154.409,14.63"/>
	<path clip-path="url(#SVGID_2_)" fill="#FFFFFF" d="M199.409,229.328c-5.636,0-10.203,4.568-10.203,10.203
		s4.567,10.203,10.203,10.203c5.635,0,10.203-4.568,10.203-10.203S205.044,229.328,199.409,229.328 M199.409,243.958
		c-2.445,0-4.428-1.981-4.428-4.427c0-2.445,1.983-4.427,4.428-4.427c2.444,0,4.427,1.982,4.427,4.427
		C203.836,241.977,201.853,243.958,199.409,243.958"/>
	<path clip-path="url(#SVGID_2_)" fill="#FFFFFF" d="M154.409,229.328c-5.636,0-10.203,4.568-10.203,10.203
		s4.567,10.203,10.203,10.203c5.635,0,10.203-4.568,10.203-10.203S160.044,229.328,154.409,229.328 M154.409,243.958
		c-2.445,0-4.428-1.981-4.428-4.427c0-2.445,1.983-4.427,4.428-4.427c2.444,0,4.427,1.982,4.427,4.427
		C158.836,241.977,156.853,243.958,154.409,243.958"/>
	<path clip-path="url(#SVGID_2_)" fill="#FFFFFF" d="M85.406,0c-5.635,0-10.203,4.567-10.203,10.203
		c0,5.635,4.568,10.203,10.203,10.203c5.635,0,10.203-4.568,10.203-10.203C95.609,4.567,91.041,0,85.406,0 M85.406,14.63
		c-2.445,0-4.427-1.982-4.427-4.427c0-2.445,1.982-4.427,4.427-4.427c2.445,0,4.427,1.982,4.427,4.427
		C89.833,12.648,87.851,14.63,85.406,14.63"/>
	<path clip-path="url(#SVGID_2_)" fill="#FFFFFF" d="M43.906,0c-5.635,0-10.203,4.567-10.203,10.203
		c0,5.635,4.568,10.203,10.203,10.203s10.203-4.568,10.203-10.203C54.109,4.567,49.541,0,43.906,0 M43.906,14.63
		c-2.445,0-4.427-1.982-4.427-4.427c0-2.445,1.982-4.427,4.427-4.427c2.445,0,4.427,1.982,4.427,4.427
		C48.333,12.648,46.351,14.63,43.906,14.63"/>
	<path clip-path="url(#SVGID_2_)" fill="#FFFFFF" d="M10.203,31.125C4.568,31.125,0,35.692,0,41.328
		c0,5.635,4.568,10.203,10.203,10.203s10.203-4.568,10.203-10.203C20.406,35.692,15.838,31.125,10.203,31.125 M10.203,45.755
		c-2.445,0-4.427-1.982-4.427-4.427c0-2.445,1.982-4.427,4.427-4.427s4.427,1.982,4.427,4.427
		C14.63,43.773,12.648,45.755,10.203,45.755"/>
	<path clip-path="url(#SVGID_2_)" fill="#FFFFFF" d="M10.203,65.875C4.568,65.875,0,70.442,0,76.078
		c0,5.635,4.568,10.203,10.203,10.203s10.203-4.568,10.203-10.203C20.406,70.442,15.838,65.875,10.203,65.875 M10.203,80.505
		c-2.445,0-4.427-1.982-4.427-4.427c0-2.445,1.982-4.427,4.427-4.427s4.427,1.982,4.427,4.427
		C14.63,78.523,12.648,80.505,10.203,80.505"/>
	<path clip-path="url(#SVGID_2_)" fill="#FFFFFF" d="M10.203,148.624C4.568,148.624,0,153.193,0,158.827s4.568,10.203,10.203,10.203
		s10.203-4.568,10.203-10.203S15.838,148.624,10.203,148.624 M10.203,163.254c-2.445,0-4.427-1.981-4.427-4.427
		c0-2.445,1.982-4.427,4.427-4.427s4.427,1.982,4.427,4.427C14.63,161.273,12.648,163.254,10.203,163.254"/>
	<path clip-path="url(#SVGID_2_)" fill="#FFFFFF" d="M10.203,198.52C4.568,198.52,0,203.088,0,208.723
		c0,5.636,4.568,10.203,10.203,10.203s10.203-4.567,10.203-10.203C20.406,203.088,15.838,198.52,10.203,198.52 M10.203,213.151
		c-2.445,0-4.427-1.982-4.427-4.428c0-2.444,1.982-4.426,4.427-4.426s4.427,1.982,4.427,4.426
		C14.63,211.169,12.648,213.151,10.203,213.151"/>
	<path clip-path="url(#SVGID_2_)" fill="#FFFFFF" d="M43.906,229.328c-5.635,0-10.203,4.568-10.203,10.203
		s4.568,10.203,10.203,10.203s10.203-4.568,10.203-10.203S49.541,229.328,43.906,229.328 M43.906,243.958
		c-2.445,0-4.427-1.981-4.427-4.427c0-2.445,1.982-4.427,4.427-4.427c2.445,0,4.427,1.982,4.427,4.427
		C48.333,241.977,46.351,243.958,43.906,243.958"/>
	<path clip-path="url(#SVGID_2_)" fill="#FFFFFF" d="M85.406,229.328c-5.635,0-10.203,4.568-10.203,10.203
		s4.568,10.203,10.203,10.203c5.635,0,10.203-4.568,10.203-10.203S91.041,229.328,85.406,229.328 M85.406,243.958
		c-2.445,0-4.427-1.981-4.427-4.427c0-2.445,1.982-4.427,4.427-4.427c2.445,0,4.427,1.982,4.427,4.427
		C89.833,241.977,87.851,243.958,85.406,243.958"/>
</g>
</svg>
