<?xml version="1.0" encoding="UTF-8"?>
<svg width="120px" height="37px" viewBox="0 0 120 37" version="1.1" xmlns="http://www.w3.org/2000/svg" xmlns:xlink="http://www.w3.org/1999/xlink">
    <!-- Generator: Sketch 48.2 (47327) - http://www.bohemiancoding.com/sketch -->
    <title>Page 1</title>
    <desc>Created with Sketch.</desc>
    <defs></defs>
    <g id="Home" stroke="none" stroke-width="1" fill="none" fill-rule="evenodd" transform="translate(-1107.000000, -1034.000000)">
        <g id="Clients" transform="translate(190.000000, 843.000000)">
            <g id="Group" transform="translate(25.000000, 105.000000)">
                <g id="Page-1" transform="translate(892.000000, 86.000000)">
                    <polygon id="Fill-1" fill="#020303" points="0 37 36 37 36 -1.10134043e-13 0 -1.10134043e-13"></polygon>
                    <polygon id="Fill-2" fill="#020303" points="42 37 78 37 78 -1.10134043e-13 42 -1.10134043e-13"></polygon>
                    <polygon id="Fill-3" fill="#020303" points="84 37 120 37 120 -1.10134043e-13 84 -1.10134043e-13"></polygon>
                    <g id="Group-16" transform="translate(9.000000, 5.000000)">
                        <path d="M7.40726012,14 L4,14 L4,22 L7.58672377,22 C9.58172734,22 10.9297441,21.8474534 11.6394412,21.5383851 C12.3465892,21.2308075 12.9181197,20.7498137 13.3540328,20.1028571 C13.7812787,19.449441 14,18.7557764 14,18.004472 C14,17.237764 13.7695524,16.5341615 13.3157948,15.8936646 C12.8559192,15.2586335 12.2084226,14.7850932 11.3763638,14.4675776 C10.538187,14.1550311 9.21515244,14 7.40726012,14 M7.21643549,3 L4,3 L4,11 L6.48887726,11 C8.47997906,11 9.89583879,10.6182736 10.7375033,9.83541981 C11.5796912,9.06305302 12,8.06416727 12,6.83351904 C12,4.27574228 10.405653,3 7.21643549,3 M8.90799379,26 L-2.06057393e-13,26 L-2.06057393e-13,1.234568e-13 L6.88912973,1.234568e-13 C9.06089809,1.234568e-13 10.7576086,0.291898919 11.9729342,0.862894172 C13.1930051,1.44105887 14.1178125,2.2368675 14.7605378,3.24775955 C15.4058994,4.26274842 15.7190896,5.43290461 15.7190896,6.76027654 C15.7190896,9.31413602 14.3830223,11.142345 11.7093061,12.2479762 C13.6279914,12.6079849 15.1596708,13.3904788 16.2953806,14.5908491 C17.4342541,15.8004373 18,17.2333025 18,18.9109531 C18,20.2373008 17.6535927,21.417187 16.964996,22.4603415 C16.2716541,23.5055445 15.2619585,24.3540998 13.9237822,25.0162494 C12.589824,25.6702054 10.9120947,26 8.90799379,26" id="Fill-4" fill="#FEFEFE"></path>
                        <path d="M7.40726012,14 L4,14 L4,22 L7.58672377,22 C9.58172734,22 10.9297441,21.8474534 11.6394412,21.5383851 C12.3465892,21.2308075 12.9181197,20.7498137 13.3540328,20.1028571 C13.7812787,19.449441 14,18.7557764 14,18.004472 C14,17.237764 13.7695524,16.5341615 13.3157948,15.8936646 C12.8559192,15.2586335 12.2084226,14.7850932 11.3763638,14.4675776 C10.538187,14.1550311 9.21515244,14 7.40726012,14 Z M7.21643549,3 L4,3 L4,11 L6.48887726,11 C8.47997906,11 9.89583879,10.6182736 10.7375033,9.83541981 C11.5796912,9.06305302 12,8.06416727 12,6.83351904 C12,4.27574228 10.405653,3 7.21643549,3 Z M8.90799379,26 L-2.06057393e-13,26 L-2.06057393e-13,1.234568e-13 L6.88912973,1.234568e-13 C9.06089809,1.234568e-13 10.7576086,0.291898919 11.9729342,0.862894172 C13.1930051,1.44105887 14.1178125,2.2368675 14.7605378,3.24775955 C15.4058994,4.26274842 15.7190896,5.43290461 15.7190896,6.76027654 C15.7190896,9.31413602 14.3830223,11.142345 11.7093061,12.2479762 C13.6279914,12.6079849 15.1596708,13.3904788 16.2953806,14.5908491 C17.4342541,15.8004373 18,17.2333025 18,18.9109531 C18,20.2373008 17.6535927,21.417187 16.964996,22.4603415 C16.2716541,23.5055445 15.2619585,24.3540998 13.9237822,25.0162494 C12.589824,25.6702054 10.9120947,26 8.90799379,26 Z" id="Stroke-6" stroke="#020303"></path>
                        <path d="M49.4062516,14 L46,14 L46,22 L49.5867625,22 C51.5830911,22 52.9287645,21.8474534 53.6390801,21.5383851 C54.3463362,21.2308075 54.9210137,20.7498137 55.3554638,20.1028571 C55.782775,19.449441 56,18.7557764 56,18.004472 C56,17.237764 55.7695171,16.5341615 55.3156902,15.8936646 C54.8557442,15.2586335 54.211208,14.7850932 53.3759625,14.4675776 C52.5407169,14.1550311 51.2144205,14 49.4062516,14 M49.2156041,3 L46,3 L46,11 L48.4898547,11 C50.4817384,11 51.8981542,10.6182736 52.7401492,9.83541981 C53.581097,9.06305302 54,8.06416727 54,6.83351904 C54,4.27574228 52.4097395,3 49.2156041,3 M50.906412,26 L42,26 L42,1.234568e-13 L48.8891297,1.234568e-13 C51.0608981,1.234568e-13 52.7591904,0.291898919 53.9729342,0.862894172 C55.1930051,1.44105887 56.1178125,2.2368675 56.7605378,3.24775955 C57.4032631,4.26274842 57.7190896,5.43290461 57.7190896,6.76027654 C57.7190896,9.31413602 56.3830223,11.142345 53.7077243,12.2479762 C55.6279914,12.6079849 57.158089,13.3904788 58.2969624,14.5908491 C59.4358358,15.8004373 60,17.2333025 60,18.9109531 C60,20.2373008 59.6530654,21.417187 58.9665778,22.4603415 C58.2695451,23.5055445 57.2635402,24.3540998 55.927473,25.0162494 C54.5882422,25.6702054 52.9120947,26 50.906412,26" id="Fill-8" fill="#FEFEFE"></path>
                        <path d="M49.4062516,14 L46,14 L46,22 L49.5867625,22 C51.5830911,22 52.9287645,21.8474534 53.6390801,21.5383851 C54.3463362,21.2308075 54.9210137,20.7498137 55.3554638,20.1028571 C55.782775,19.449441 56,18.7557764 56,18.004472 C56,17.237764 55.7695171,16.5341615 55.3156902,15.8936646 C54.8557442,15.2586335 54.211208,14.7850932 53.3759625,14.4675776 C52.5407169,14.1550311 51.2144205,14 49.4062516,14 Z M49.2156041,3 L46,3 L46,11 L48.4898547,11 C50.4817384,11 51.8981542,10.6182736 52.7401492,9.83541981 C53.581097,9.06305302 54,8.06416727 54,6.83351904 C54,4.27574228 52.4097395,3 49.2156041,3 Z M50.906412,26 L42,26 L42,1.234568e-13 L48.8891297,1.234568e-13 C51.0608981,1.234568e-13 52.7591904,0.291898919 53.9729342,0.862894172 C55.1930051,1.44105887 56.1178125,2.2368675 56.7605378,3.24775955 C57.4032631,4.26274842 57.7190896,5.43290461 57.7190896,6.76027654 C57.7190896,9.31413602 56.3830223,11.142345 53.7077243,12.2479762 C55.6279914,12.6079849 57.158089,13.3904788 58.2969624,14.5908491 C59.4358358,15.8004373 60,17.2333025 60,18.9109531 C60,20.2373008 59.6530654,21.417187 58.9665778,22.4603415 C58.2695451,23.5055445 57.2635402,24.3540998 55.927473,25.0162494 C54.5882422,25.6702054 52.9120947,26 50.906412,26 Z" id="Stroke-10" stroke="#020303"></path>
                        <path d="M103,19.8209506 L103,23.8163359 C100.31682,25.2751115 97.2210798,26 93.7097076,26 C90.8581253,26 88.4426492,25.4265882 86.4556015,24.2872635 C84.4690657,23.1524381 82.8981617,21.5841794 81.7362354,19.5889863 C80.5809632,17.582795 80,15.4281264 80,13.1009845 C80,9.40555299 81.3272578,6.29803107 83.9771665,3.77891863 C86.6275871,1.26330565 89.9009436,2.17048601e-14 93.7818801,2.17048601e-14 C96.4686429,2.17048601e-14 99.4456314,0.697892632 102.726154,2.08667897 L102.726154,5.99507768 C99.735857,4.30283802 96.8151734,3.45196893 93.9641029,3.45196893 C91.0459785,3.45196893 88.6141229,4.37082756 86.6869631,6.20604522 C84.7531491,8.04176281 83.782659,10.3334102 83.782659,13.1009845 C83.782659,15.8840563 84.7393288,18.174204 86.6337295,19.967928 C88.5378555,21.7601523 90.970223,22.6560145 93.9272489,22.6560145 C97.0229893,22.6560145 100.046045,21.7081603 103,19.8209506" id="Fill-12" fill="#FEFEFE"></path>
                        <path d="M103,19.8209506 L103,23.8163359 C100.31682,25.2751115 97.2210798,26 93.7097076,26 C90.8581253,26 88.4426492,25.4265882 86.4556015,24.2872635 C84.4690657,23.1524381 82.8981617,21.5841794 81.7362354,19.5889863 C80.5809632,17.582795 80,15.4281264 80,13.1009845 C80,9.40555299 81.3272578,6.29803107 83.9771665,3.77891863 C86.6275871,1.26330565 89.9009436,2.17048601e-14 93.7818801,2.17048601e-14 C96.4686429,2.17048601e-14 99.4456314,0.697892632 102.726154,2.08667897 L102.726154,5.99507768 C99.735857,4.30283802 96.8151734,3.45196893 93.9641029,3.45196893 C91.0459785,3.45196893 88.6141229,4.37082756 86.6869631,6.20604522 C84.7531491,8.04176281 83.782659,10.3334102 83.782659,13.1009845 C83.782659,15.8840563 84.7393288,18.174204 86.6337295,19.967928 C88.5378555,21.7601523 90.970223,22.6560145 93.9272489,22.6560145 C97.0229893,22.6560145 100.046045,21.7081603 103,19.8209506 Z" id="Stroke-14" stroke="#020303"></path>
                    </g>
                </g>
            </g>
        </g>
    </g>
</svg>