<?xml version="1.0" encoding="utf-8"?>
<!-- Generator: Adobe Illustrator 17.0.0, SVG Export Plug-In . SVG Version: 6.00 Build 0)  -->
<!DOCTYPE svg PUBLIC "-//W3C//DTD SVG 1.1//EN" "http://www.w3.org/Graphics/SVG/1.1/DTD/svg11.dtd">
<svg version="1.1" id="Слой_1" xmlns="http://www.w3.org/2000/svg" xmlns:xlink="http://www.w3.org/1999/xlink" x="0px" y="0px"
	 width="126px" height="122.995px" viewBox="-19.5 -6.498 126 122.995" enable-background="new -19.5 -6.498 126 122.995"
	 xml:space="preserve">
<title>@@ copy</title>
<desc>Created with Sketch.</desc>
<g id="Resource-Center" transform="translate(-526.000000, -1319.000000)">
	<g id="Success-Stories" transform="translate(9.000000, 664.000000)">
		<g id="Card-4---Industry-Briefs" transform="translate(381.000000, 576.000000)">
			<g id="_x40__x40_-copy" transform="translate(136.000000, 79.000000)">
				<g id="Group-5">
					<path id="Stroke-1" fill="none" stroke="#284E7B" stroke-width="2" d="M1,109h85V1H32.14L1,32.046V109z"/>
					<g id="Page-1" transform="translate(29.000000, 32.000000)">
						<path id="Path" fill="none" stroke="#578BC1" stroke-width="0.8" d="M6.4,14.499c0,4.467,3.634,8.101,8.099,8.101
							c4.467,0,8.101-3.634,8.101-8.101c0-4.466-3.634-8.099-8.101-8.099C10.033,6.4,6.4,10.033,6.4,14.499z"/>
						<path id="Path_1_" fill="none" stroke="#578BC1" stroke-width="2" d="M13.999,43.111C21.157,31.55,27,19.879,27,15.246
							C27,7.939,21.163,2,13.999,2C6.836,2,1,7.939,1,15.246C1,19.879,6.841,31.547,13.999,43.111z"/>
					</g>
					<path id="Stroke-3" fill="none" stroke="#284E7B" d="M1.207,31.5H31.5V1.207L1.207,31.5z"/>
				</g>
			</g>
		</g>
	</g>
</g>
</svg>
