<?xml version="1.0" encoding="UTF-8"?>
<svg width="227px" height="49px" viewBox="0 0 227 49" version="1.1" xmlns="http://www.w3.org/2000/svg" xmlns:xlink="http://www.w3.org/1999/xlink">
    <!-- Generator: Sketch 48.2 (47327) - http://www.bohemiancoding.com/sketch -->
    <title>Page 1</title>
    <desc>Created with Sketch.</desc>
    <defs>
        <polygon id="path-1" points="1.80904134e-13 -1.0490827e-13 63 -1.0490827e-13 63 41 1.80904066e-13 41"></polygon>
        <polygon id="path-3" points="0 49 227 49 227 0 0 0"></polygon>
    </defs>
    <g id="Success-Stories" stroke="none" stroke-width="1" fill="none" fill-rule="evenodd" transform="translate(-242.000000, -663.000000)">
        <g transform="translate(189.000000, 578.000000)" id="Card-1----Vubiquity">
            <g>
                <g id="Page-1" transform="translate(53.000000, 85.000000)">
                    <g id="Group-3">
                        <mask id="mask-2" fill="white">
                            <use xlink:href="#path-1"></use>
                        </mask>
                        <g id="Clip-2"></g>
                        <path d="M59.1139903,41 L3.88600974,41 C1.738945,41 1.80904066e-13,39.314278 1.80904066e-13,37.2356711 L1.80904066e-13,3.76432892 C1.80904066e-13,1.68572199 1.738945,5.26670721e-14 3.88600974,5.26670721e-14 L59.1139903,5.26670721e-14 C61.261055,5.26670721e-14 63,1.68572199 63,3.76432892 L63,37.2356711 C63,39.314278 61.261055,41 59.1139903,41" id="Fill-1" fill="#E75300" mask="url(#mask-2)"></path>
                    </g>
                    <path d="M89.4171422,18.4825409 C89.4171422,21.2014985 87.7274951,23.4000754 85.4754862,24.2105462 C87.9606382,25.0401018 90,27.3544602 90,30.2655389 C90,35.4349936 86.2914871,38 79.7660417,38 L68,38 L68,11 L79.1063235,11 C85.435775,11 89.4171422,13.3334433 89.4171422,18.4825409 Z M73,22 L78.3657631,22 C80.9737591,22 83,21.4686302 83,18.9727658 C83,16.5688925 80.9366258,16 78.3471964,16 L73,16 L73,22 Z M73,32.9823806 L79.1041057,33 C82.1278512,33 84,32.3586531 84,29.9729836 C84,27.6225529 82.1278512,27 79.1041057,27 L73,27 L73,32.9823806 Z" id="Fill-4" fill="#333E48"></path>
                    <mask id="mask-4" fill="white">
                        <use xlink:href="#path-3"></use>
                    </mask>
                    <g id="Clip-7"></g>
                    <polygon id="Fill-6" fill="#333E48" mask="url(#mask-4)" points="94 38 99 38 99 11 94 11"></polygon>
                    <path d="M148.499371,38 C141.710464,38 137,34.2685772 137,26.9344877 L137,11 L142.339533,11 L142.339533,26.6707255 C142.339533,31.0084263 144.839451,32.9410158 148.499371,32.9410158 C152.161807,32.9410158 154.659209,31.0084263 154.659209,26.6707255 L154.659209,11 L160,11 L160,26.9344877 C160,34.2685772 155.288277,38 148.499371,38" id="Fill-8" fill="#333E48" mask="url(#mask-4)"></path>
                    <polygon id="Fill-9" fill="#333E48" mask="url(#mask-4)" points="165 38 170 38 170 11 165 11"></polygon>
                    <polygon id="Fill-10" fill="#333E48" mask="url(#mask-4)" points="187.675026 16.0335533 187.675026 38 182.323709 38 182.323709 16.0335533 174 16.0335533 174 11 196 11 196 16.0335533"></polygon>
                    <polygon id="Fill-11" fill="#333E48" mask="url(#mask-4)" points="212.753995 38 207.380687 38 207.380687 27.3353753 197 11 203.317353 11 210.095929 22.4560106 216.875776 11 223 11 212.753995 27.3544602"></polygon>
                    <polygon id="Fill-12" fill="#FEFEFE" mask="url(#mask-4)" points="14.8320053 38 5 11 10.5504648 11 18.0468602 32.5417275 25.5802504 11 31 11 21.1679947 38"></polygon>
                    <path d="M45.5,38 C38.7107221,38 34,34.26875 34,26.935 L34,11 L39.3398249,11 L39.3398249,26.67125 C39.3398249,31.00875 41.8386214,32.94125 45.5,32.94125 C49.1613786,32.94125 51.6601751,31.00875 51.6601751,26.67125 L51.6601751,11 L57,11 L57,26.935 C57,34.26875 52.2892779,38 45.5,38" id="Fill-13" fill="#FEFEFE" mask="url(#mask-4)"></path>
                    <polygon id="Fill-14" fill="#FEFEFE" mask="url(#mask-4)" points="34 8 57 8 57 4 34 4"></polygon>
                    <polygon id="Fill-15" fill="#333E48" mask="url(#mask-4)" points="116 41 121 41 121 24 116 24"></polygon>
                    <path d="M117.990582,11 C109.767771,11 104,16.8544667 104,24.8466378 C104,31.2194883 107.671884,36.230952 113.329147,38 L113.329147,32.2877114 C110.99843,30.8118272 109.539221,28.1658046 109.539221,24.8466378 C109.539221,19.6590242 113.098085,16.1108626 117.990582,16.1108626 C122.919496,16.1108626 126.440687,19.6590242 126.440687,24.8466378 C126.440687,28.1645463 124.999058,30.810569 122.670853,32.2864532 L122.670853,37.9937089 C128.315558,36.2171117 132,31.2106808 132,24.8466378 C132,16.8544667 126.194555,11 117.990582,11" id="Fill-16" fill="#333E48" mask="url(#mask-4)"></path>
                    <polygon id="Fill-17" fill="#000000" mask="url(#mask-4)" points="224.415573 13 224.415573 11.2370062 224 11.2370062 224 11 225 11 225 11.2370062 224.582677 11.2370062 224.582677 13"></polygon>
                    <path d="M225,13 L225,11 L225.417151,11 L225.914244,12.4164934 C225.959302,12.5481635 225.992733,12.6465696 226.014535,12.7117117 C226.037791,12.6396396 226.075581,12.5329175 226.126453,12.3915454 L226.627907,11 L227,11 L227,13 L226.734012,13 L226.734012,11.3270963 L226.125,13 L225.873547,13 L225.267442,11.2979903 L225.267442,13 L225,13 Z" id="Fill-18" fill="#000000" mask="url(#mask-4)"></path>
                    <path d="M95,45.996 L96.107402,45.996 C96.6981132,45.996 97,45.835 97,45.498 C97,45.167 96.6981132,45 96.107402,45 L95,45 L95,45.996 Z M95.0301978,49 L94,49 L94,44 L96.1089899,44 C97.3418952,44 98,44.6217966 98,45.5902347 C98,46.5519288 97.3418952,47.1723766 96.115932,47.1723766 L95.0301978,47.1723766 L95.0301978,49 Z" id="Fill-19" fill="#333E48" mask="url(#mask-4)"></path>
                    <path d="M100,45.909 L101.142259,45.909 C101.709902,45.909 102,45.763 102,45.447 C102,45.138 101.694561,45 101.142259,45 L100,45 L100,45.909 Z M102.991851,45.5210356 C102.991851,46.342233 102.414601,46.9004854 101.442105,46.9975728 L103,49 L101.777589,49 L100.303905,47.0124056 L100.00781,47.0124056 L100.00781,49 L99,49 L99,44 L101.137861,44 C102.345331,44 102.991851,44.5636462 102.991851,45.5210356 Z" id="Fill-20" fill="#333E48" mask="url(#mask-4)"></path>
                    <polygon id="Fill-21" fill="#333E48" mask="url(#mask-4)" points="104 49 104 44 106.977354 44 106.977354 44.9142395 104.800144 44.9142395 104.800144 46.0213053 106.877067 46.0213053 106.877067 46.9355448 104.800144 46.9355448 104.800144 48.0857605 107 48.0857605 107 49"></polygon>
                    <polygon id="Fill-22" fill="#333E48" mask="url(#mask-4)" points="113.097324 49 113.097324 45.2257282 111.978102 48.5186084 111.023114 48.5186084 109.903893 45.2540453 109.903893 49 109 49 109 44 110.323601 44 111.501217 47.3751348 112.676399 44 114 44 114 49"></polygon>
                    <polygon id="Fill-23" fill="#333E48" mask="url(#mask-4)" points="116 49 116.742 49 116.742 44 116 44"></polygon>
                    <path d="M120,49 C118.819202,49 118,48.3084261 118,46.9491256 L118,44 L118.928928,44 L118.928928,46.9014308 C118.928928,47.7042925 119.362843,48.063328 120,48.063328 C120.637157,48.063328 121.071072,47.7042925 121.071072,46.9014308 L121.071072,44 L122,44 L122,46.9491256 C122,48.3084261 121.180798,49 120,49" id="Fill-24" fill="#333E48" mask="url(#mask-4)"></path>
                    <polygon id="Fill-25" fill="#333E48" mask="url(#mask-4)" points="127.097324 49 127.097324 45.2257282 125.978102 48.5186084 125.023114 48.5186084 123.903893 45.2540453 123.903893 49 123 49 123 44 124.323601 44 125.501217 47.3751348 126.675182 44 128 44 128 49"></polygon>
                    <path d="M136,45.0813621 L135.281329,45.5882506 C135.04027,45.1710424 134.665165,44.922797 134.195438,44.922797 C133.438468,44.922797 132.871867,45.563556 132.871867,46.4993501 C132.871867,47.4663374 133.456491,48.077203 134.195438,48.077203 C134.662912,48.077203 135.038017,47.8380556 135.290341,47.4156486 L135.972965,47.9797245 C135.595607,48.6061866 134.972684,49 134.20107,49 C132.907913,49 132,47.9485313 132,46.4993501 C132,45.0514687 132.907913,44 134.20107,44 C134.978316,44 135.654182,44.4094099 136,45.0813621" id="Fill-26" fill="#333E48" mask="url(#mask-4)"></path>
                    <path d="M139,46.500618 C139,47.3906057 139.631245,48 140.50127,48 C141.375106,48 142,47.3906057 142,46.500618 C142,45.6093943 141.375106,45 140.50127,45 C139.631245,45 139,45.6093943 139,46.500618 M143,46.5006499 C143,47.9420328 141.961155,49 140.498083,49 C139.028623,49 138,47.9420328 138,46.5006499 C138,45.0579672 139.028623,44 140.498083,44 C141.961155,44 143,45.0579672 143,46.5006499" id="Fill-27" fill="#333E48" mask="url(#mask-4)"></path>
                    <polygon id="Fill-28" fill="#333E48" mask="url(#mask-4)" points="147.163014 49 144.894626 45.6612729 144.892225 49 144 49 144 44 144.835785 44 147.105374 47.3400755 147.105374 44 148 44 148 49"></polygon>
                    <polygon id="Fill-29" fill="#333E48" mask="url(#mask-4)" points="152.486557 44.9317691 152.486557 49 151.513443 49 151.513443 44.9317691 150 44.9317691 150 44 154 44 154 44.9317691"></polygon>
                    <polygon id="Fill-30" fill="#333E48" mask="url(#mask-4)" points="155 49 155 44 157.977354 44 157.977354 44.9142395 155.800144 44.9142395 155.800144 46.0213053 157.877067 46.0213053 157.877067 46.9355448 155.800144 46.9355448 155.800144 48.0857605 158 48.0857605 158 49"></polygon>
                    <polygon id="Fill-31" fill="#333E48" mask="url(#mask-4)" points="163.163964 49 160.893694 45.6612729 160.891291 49 160 49 160 44 160.834835 44 163.106306 47.3400755 163.106306 44 164 44 164 49"></polygon>
                    <polygon id="Fill-32" fill="#333E48" mask="url(#mask-4)" points="168.485742 44.9317691 168.485742 49 167.512947 49 167.512947 44.9317691 166 44.9317691 166 44 170 44 170 44.9317691"></polygon>
                    <path d="M175.122818,44.8913213 C174.586296,44.8913213 174.201034,45.10503 174.201034,45.4698984 C174.201034,45.8230388 174.616031,45.9377118 175.195217,46.030232 L175.46671,46.0732343 C176.330317,46.2126661 177,46.5892624 177,47.4271566 C177,48.4904874 176.065288,49 175.029735,49 C174.296703,49 173.51713,48.7862914 173,48.370602 L173.500323,47.5926505 C173.850679,47.8702111 174.410472,48.1151942 175.033613,48.1151942 C175.570136,48.1151942 175.978668,47.9040917 175.978668,47.5301016 C175.978668,47.1965077 175.628313,47.0766224 174.957337,46.9658587 L174.650937,46.917644 C173.802844,46.7782121 173.183581,46.4094345 173.183581,45.5337503 C173.183581,44.5251499 174.076923,44 175.10084,44 C175.779573,44 176.332902,44.1524629 176.941823,44.514725 L176.488041,45.3004952 C176.106658,45.06724 175.648998,44.8913213 175.122818,44.8913213" id="Fill-33" fill="#333E48" mask="url(#mask-4)"></path>
                    <polygon id="Fill-34" fill="#333E48" mask="url(#mask-4)" points="179 49 179 44 181.977354 44 181.977354 44.9142395 179.800144 44.9142395 179.800144 46.0213053 181.877067 46.0213053 181.877067 46.9355448 179.800144 46.9355448 179.800144 48.0857605 182 48.0857605 182 49"></polygon>
                    <path d="M185,45.909 L186.141463,45.909 C186.708711,45.909 187,45.763 187,45.447 C187,45.138 186.694774,45 186.141463,45 L185,45 L185,45.909 Z M187.991851,45.5210356 C187.991851,46.342233 187.414601,46.9004854 186.442105,46.9975728 L188,49 L186.778947,49 L185.303905,47.0124056 L185.00781,47.0124056 L185.00781,49 L184,49 L184,44 L186.139219,44 C187.345331,44 187.991851,44.5636462 187.991851,45.5210356 Z" id="Fill-35" fill="#333E48" mask="url(#mask-4)"></path>
                    <polygon id="Fill-36" fill="#333E48" mask="url(#mask-4)" points="190.890541 49 189 44 190.067568 44 191.509459 47.9886731 192.958108 44 194 44 192.109459 49"></polygon>
                    <polygon id="Fill-37" fill="#333E48" mask="url(#mask-4)" points="195 49 195.742 49 195.742 44 195 44"></polygon>
                    <path d="M202,45.0813621 L201.281329,45.5882506 C201.041397,45.1710424 200.666291,44.922797 200.196564,44.922797 C199.439594,44.922797 198.872994,45.563556 198.872994,46.4993501 C198.872994,47.4663374 199.456491,48.077203 200.196564,48.077203 C200.664038,48.077203 201.038017,47.8380556 201.290341,47.4156486 L201.974092,47.9797245 C201.596733,48.6061866 200.972684,49 200.202197,49 C198.907913,49 198,47.9485313 198,46.4993501 C198,45.0514687 198.907913,44 200.202197,44 C200.978316,44 201.655308,44.4094099 202,45.0813621" id="Fill-38" fill="#333E48" mask="url(#mask-4)"></path>
                    <polygon id="Fill-39" fill="#333E48" mask="url(#mask-4)" points="204 49 204 44 206.978425 44 206.978425 44.9142395 204.799353 44.9142395 204.799353 46.0213053 206.878101 46.0213053 206.878101 46.9355448 204.799353 46.9355448 204.799353 48.0857605 207 48.0857605 207 49"></polygon>
                    <path d="M211.122211,44.8913213 C210.585516,44.8913213 210.200129,45.10503 210.200129,45.4698984 C210.200129,45.8230388 210.616554,45.9377118 211.194633,46.030232 L211.466214,46.0732343 C212.3301,46.2126661 213,46.5892624 213,47.4271566 C213,48.4904874 212.064985,49 211.029098,49 C210.297123,49 209.516004,48.7862914 209,48.370602 L209.499192,47.5926505 C209.849661,47.8702111 210.409635,48.1151942 211.032978,48.1151942 C211.569673,48.1151942 211.978338,47.9040917 211.978338,47.5301016 C211.978338,47.1965077 211.627869,47.0766224 210.956676,46.9658587 L210.650178,46.917644 C209.801811,46.7782121 209.182347,46.4094345 209.182347,45.5337503 C209.182347,44.5251499 210.075978,44 211.10152,44 C211.779179,44 212.332687,44.1524629 212.941804,44.514725 L212.487876,45.3004952 C212.106369,45.06724 211.648561,44.8913213 211.122211,44.8913213" id="Fill-40" fill="#333E48" mask="url(#mask-4)"></path>
                </g>
            </g>
        </g>
    </g>
</svg>