<?xml version="1.0" encoding="UTF-8"?>
<svg width="119px" height="21px" viewBox="0 0 119 21" version="1.1" xmlns="http://www.w3.org/2000/svg" xmlns:xlink="http://www.w3.org/1999/xlink">
    <!-- Generator: Sketch 48.2 (47327) - http://www.bohemiancoding.com/sketch -->
    <title>Page 1</title>
    <desc>Created with Sketch.</desc>
    <defs>
        <polygon id="path-1" points="3.61422215e-14 20 96 20 96 -6.7557071e-14 2.43030422e-14 -6.7557071e-14"></polygon>
    </defs>
    <g id="Home" stroke="none" stroke-width="1" fill="none" fill-rule="evenodd" transform="translate(-928.000000, -960.000000)">
        <g id="Clients" transform="translate(190.000000, 843.000000)">
            <g id="Group" transform="translate(25.000000, 105.000000)">
                <g id="Page-1" transform="translate(713.000000, 12.000000)">
                    <path d="M93.0395876,3.0285176 C93.0222077,3.04294407 93.0116989,3.06106963 93.0052319,3.08437393 C92.8888268,3.50237157 94.7274618,5.15512688 97.2592731,6 C97.655778,4.84033396 98.3938188,3.8408387 99.489967,3.14429925 C99.9531623,2.85022126 100.462839,2.6160686 101,2.42741479 C100.592582,2.28610939 100.152425,2.1725472 99.6734667,2.10041486 C96.9072284,1.68722604 93.4587269,2.65897809 93.0395876,3.0285176 M105.905879,0.0602315654 C105.896262,0.0450548931 105.885202,0.0317753048 105.8727,0.0218156136 C105.600048,-0.142282156 104.130037,0.629356779 103,2 C103.947308,1.86530703 104.936932,1.84633619 105.940502,1.92696226 C106.042926,0.999762438 106.001091,0.243774447 105.905879,0.0602315654" id="Fill-1" fill="#8AC53F"></path>
                    <path d="M112.713821,4.96003906 C108.864667,2.7320471 103.795525,2.23243171 100.632127,4.35506545 C96.1396434,7.36864511 97.5245769,15.6321582 103.819768,19.2774691 C110.308911,23.0335734 118.314165,20.2169132 118.953165,14.9694884 C119.402976,11.2748431 116.559512,7.18970337 112.713821,4.96003906" id="Fill-3" fill="#ED2424"></path>
                    <path d="M112.93463,4.86267589 C109.276466,2.8108247 104.501768,2.28722298 101.561502,4.13881216 C97.3860939,6.76725105 98.1338684,13.0679946 105.147431,17.006898 C112.161439,20.9437154 118.454873,18.5948089 118.967658,13.9107639 C119.331067,10.6118644 116.588335,6.91452707 112.93463,4.86267589" id="Fill-5" fill="#FEFEFE"></path>
                    <path d="M108.98753,9.61569952 C108.903878,9.42158936 108.736988,9.23846657 108.528891,9.10824592 C108.429581,9.04639111 108.304723,9.03255516 108.195111,9.01831228 L108.159673,9.0154637 C108.117641,9.00976655 108.074785,9.00569715 108.034402,9.00162776 C108.017507,9 107.928499,9 107.928499,9 L101.858647,9.32270305 C101.776232,9.33735288 101.697114,9.35322352 101.618407,9.37112886 L101.581321,9.37967459 C101.47583,9.40205626 101.357977,9.42972815 101.275562,9.47937478 C101.129275,9.56727372 101.046449,9.75975612 101.018427,9.90950987 C101.002357,9.99333942 100.98917,10.0816453 101.013071,10.1622193 C101.592859,11.8587503 102.855866,13.4999374 104.56927,14.7830178 L104.571743,14.7830178 L104.578748,14.7887149 C104.602648,14.808248 104.629845,14.8261534 104.657042,14.8387685 C104.85525,14.9417242 105.074885,14.9966611 105.310592,14.9999166 C105.505915,15.0019513 105.625417,14.9669545 105.738325,14.8745792 C105.864007,14.7720304 105.972383,14.6548318 106.075401,14.5445512 C106.127735,14.4867658 106.17842,14.4257249 106.227045,14.3699742 L108.905527,10.0136864 C108.905527,10.0136864 108.946734,9.922125 108.953327,9.89974332 C108.965278,9.85620079 108.975579,9.81998317 108.982585,9.78376555 L108.98753,9.76423246 C108.997419,9.71539971 109.009782,9.66168369 108.98753,9.61569952" id="Fill-7" fill="#F9A61A"></path>
                    <path d="M112.986327,5.8040901 C112.899267,5.66127848 112.745238,5.51656271 112.563944,5.40326549 C112.561552,5.39993322 112.556769,5.39755302 112.551985,5.39612491 C112.54194,5.38803225 112.530459,5.38136771 112.521371,5.37708336 C111.235087,4.70729687 109.842132,4.23506645 108.493185,4.00942409 C108.33533,3.98324196 108.185606,4.0156126 108.099982,4.05750401 C108.025359,4.09225483 107.999528,4.12462547 108.000007,4.17365745 C108.002877,4.24220703 108.017227,4.31456492 108.037318,4.39834773 L108.035404,4.39406339 L108.036361,4.39596754 L109.893794,8.30852985 C109.893794,8.30852985 109.959806,8.42801557 109.975114,8.44848523 C110.020079,8.51275046 110.06026,8.56749491 110.100441,8.61843106 C110.160713,8.69745349 110.217637,8.76362287 110.318091,8.81979544 C110.474511,8.90357826 110.64002,8.9607029 110.811748,8.98783711 C110.949034,9.01021093 111.031789,9.00211827 111.101149,8.96022686 C111.153768,8.925 111.203516,8.88596482 111.244654,8.84502549 C111.257092,8.83788491 111.312102,8.76219475 111.312102,8.76219475 L112.974368,6.03734907 C112.982978,6.00117013 112.992067,5.95975476 112.996372,5.91643524 L112.997329,5.90072596 C113.000677,5.86978344 113.004026,5.83693677 112.986327,5.8040901" id="Fill-9" fill="#F4E400"></path>
                    <path d="M108.96414,7.46563641 C108.961696,7.45097001 108.941329,7.38588785 108.941329,7.38588785 L107.331912,3.50616646 C107.30462,3.46354224 107.278957,3.42595958 107.253702,3.38791861 L107.244333,3.37416886 C107.211338,3.32512808 107.173455,3.2687541 107.121723,3.22887982 C107.000334,3.13675649 106.831286,3.06892438 106.714378,3.03867493 L106.696455,3.03317503 C106.642686,3.01805031 106.591361,3.00613385 106.54696,3.00200893 C105.263011,2.97267613 104.082121,3.2650875 103.133824,3.84486866 C103.040949,3.90170097 103.012842,4.0304903 103.004696,4.101989 C102.994105,4.18082091 102.994919,4.27569419 103.078425,4.3710258 C103.156635,4.45810755 103.252768,4.54335601 103.337496,4.61760467 L108.06391,7.80754688 C108.147822,7.85062944 108.212997,7.88179554 108.272877,7.90837839 L108.300984,7.92121149 C108.372676,7.95696084 108.454145,7.99500182 108.521764,7.9982101 C108.681851,8.01241817 108.82768,7.93954449 108.909556,7.86804579 C108.969028,7.81671338 109.006096,7.76629763 108.999172,7.68059085 C108.993876,7.60955047 108.980841,7.53301019 108.96414,7.46563641" id="Fill-11" fill="#F8DB01"></path>
                    <path d="M107.995074,9.12994044 C107.982704,9.02663272 107.95711,8.91763833 107.856866,8.80959172 C107.770272,8.71718343 107.670028,8.62998792 107.583435,8.55463963 L102.57508,5.21704189 C102.497444,5.17818302 102.427913,5.14358915 102.360942,5.11278639 L102.330229,5.09809584 C102.247901,5.06065864 102.158321,5.01943032 102.07514,5.00900477 C101.870387,4.97820201 101.6635,5.03175143 101.538089,5.08909195 L101.530837,5.09240918 C101.482635,5.11515583 101.428461,5.14027193 101.39988,5.16728358 C100.437113,6.20036083 99.9550888,7.58648512 100.003291,9.17259042 C100.039976,9.37351921 100.152164,9.57681744 100.315114,9.73177903 C100.423889,9.83461286 100.524559,9.90522227 100.68495,9.93934225 C100.845766,9.97204057 101.006583,9.98815278 101.157162,10 L107.413233,9.66259128 L107.476792,9.65880017 C107.476792,9.65880017 107.641022,9.62657575 107.692637,9.61141131 L107.719084,9.60477687 C107.788615,9.58439966 107.86881,9.56117911 107.910614,9.51900302 C107.995074,9.43370307 108.009578,9.26215538 107.995074,9.12994044" id="Fill-13" fill="#F7C213"></path>
                    <path d="M116.985863,9.50766806 C116.975227,9.49172872 116.929822,9.42757287 116.916323,9.41043807 C116.81324,9.28292333 116.673752,9.16537068 116.520764,9.07690733 C116.438543,9.03307414 116.353459,9.02271356 116.278601,9.01354844 L116.257739,9.01115754 C116.227878,9.00876664 116.200471,9.00438332 116.174292,9.00199242 L116.139113,9 L112.381504,9.31081718 C112.381504,9.31081718 112.336099,9.31798989 112.3271,9.31838837 C112.288239,9.33034288 112.253469,9.33990648 112.219108,9.35186099 L112.201519,9.35743976 C112.144251,9.37417607 112.081256,9.39489721 112.047304,9.43036225 C111.986354,9.49093175 111.992899,9.62840858 112.019079,9.73560066 C112.038714,9.82565795 112.07512,9.92846671 112.178203,10.0169301 C112.27065,10.0978222 112.372914,10.1707447 112.470679,10.2392839 L117.302065,12.8688769 C117.360151,12.891192 117.429691,12.9190859 117.500867,12.9421979 L117.52991,12.952957 C117.595769,12.9772645 117.670626,13.0051583 117.722168,12.9991811 C117.847339,12.9896175 117.933651,12.8951769 117.970466,12.8102999 C117.988464,12.770053 118.001145,12.7381743 117.999918,12.696732 C117.974556,11.6670505 117.624403,10.564845 116.985863,9.50766806" id="Fill-15" fill="#EE4823"></path>
                    <path d="M117.918098,13.6817441 C117.870484,13.5696213 117.81005,13.4495496 117.684604,13.3453758 C117.578387,13.2579367 117.463929,13.1759365 117.364579,13.1069057 L111.992381,10.1607541 C111.922791,10.1339785 111.848622,10.1034376 111.773995,10.076662 L111.743778,10.0645294 C111.665031,10.0364987 111.573923,10.0021924 111.501585,10.0001006 C111.329898,9.99675364 111.176983,10.0774988 111.093199,10.1569888 C111.028645,10.2147237 110.98744,10.2749688 111.003464,10.3699384 C111.018573,10.4774591 111.053826,10.590837 111.085416,10.6925006 C111.085416,10.6925006 111.085416,10.6945924 111.086332,10.6945924 L113.971588,16.2785579 C114.064528,16.4099256 114.141901,16.5140994 114.215612,16.6082323 C114.301685,16.7149163 114.381805,16.8086309 114.503131,16.8663658 C114.691757,16.9584069 114.884505,17.0031723 115.077252,16.9998253 C115.141806,17.0006621 115.193083,16.9981519 115.232915,16.9872743 C115.242071,16.9851824 115.322192,16.9512946 115.327686,16.9492027 C116.684241,16.3266703 117.605399,15.3355551 117.994098,14.0829596 C118.013327,13.9921736 117.984942,13.8423977 117.918098,13.6817441" id="Fill-17" fill="#F16522"></path>
                    <path d="M115.953904,8.36234259 C115.935232,8.3060643 115.911166,8.24733914 115.875068,8.18959273 C115.1506,7.07675086 114.215348,6.04220921 113.169725,5.20292873 C113.051885,5.1104366 112.906244,5.04877517 112.806246,5.02234885 C112.714962,4.99836941 112.647743,4.98907126 112.600441,5.01794446 C112.552309,5.04779642 112.509986,5.08988279 112.469323,5.13343729 L112.467663,5.13490542 L111.074329,7.90722256 C111.074329,7.90722256 111.041964,7.98552278 111.039475,7.99775719 C111.026197,8.0555036 111.017484,8.10541999 111.011675,8.15191075 L111.00794,8.17491144 C111.000471,8.22727471 110.991758,8.28599987 111.015409,8.33983127 C111.082213,8.49447421 111.196318,8.65156402 111.33366,8.78027001 C111.42287,8.86199586 111.499217,8.91974228 111.604194,8.94714735 C111.702533,8.9730843 111.802116,8.98776559 111.89423,9 L115.778389,8.776355 C115.813243,8.76460997 115.843118,8.75433306 115.873823,8.7430774 L115.884196,8.73671551 C115.925274,8.72105547 115.968012,8.70490605 115.985024,8.67456471 C116.012824,8.62073331 116.001621,8.49741047 115.953904,8.36234259" id="Fill-19" fill="#F1E91F"></path>
                    <path d="M112.989463,17.118851 C112.963591,16.9654741 112.918828,16.809422 112.880636,16.6761089 L110.242915,10.5998861 C110.205545,10.5379112 110.168174,10.4812865 110.131214,10.4282288 L110.115608,10.401477 C110.068792,10.3310307 110.015405,10.2525588 109.949699,10.2035138 C109.797751,10.0893728 109.59406,10.0287355 109.455254,10.0095633 C109.323019,9.99217469 109.22528,9.99395814 109.148075,10.0537038 C109.086064,10.0982901 109.031445,10.154023 108.983807,10.2070807 C108.964095,10.2271446 108.873748,10.3662539 108.873748,10.3662539 L106.079974,15.5333617 C106.076278,15.5476293 106.072172,15.5632345 106.068886,15.5757187 C106.061494,15.5989036 106.054102,15.623426 106.047531,15.6452733 L106.039318,15.6800506 C106.014267,15.7759112 105.983057,15.8949567 106.010982,15.991709 C106.082849,16.2480803 106.229868,16.490184 106.420829,16.6720961 C106.489,16.7363004 106.564152,16.8080844 106.636429,16.845091 C106.636429,16.845091 106.638483,16.8464286 106.643411,16.8468745 C108.613796,17.8433786 110.695472,18.2112156 112.504464,17.8830604 L112.504464,17.8808311 C112.66175,17.8545251 112.817804,17.7140783 112.924577,17.5085353 C112.984124,17.3917192 113.01862,17.2811452 112.989463,17.118851" id="Fill-21" fill="#F4821F"></path>
                    <g id="Group-25" transform="translate(0.000000, -0.000000)">
                        <mask id="mask-2" fill="white">
                            <use xlink:href="#path-1"></use>
                        </mask>
                        <g id="Clip-24"></g>
                        <path d="M95.9708793,11.443671 C95.9708793,10.5693048 95.7957205,9.73833462 95.4506185,8.94904185 C95.1042126,8.16017874 94.6374122,7.47658331 94.0497827,6.89567758 C93.4625878,6.31734983 92.7736877,5.85632036 91.9848211,5.51301882 C91.194216,5.17014695 90.35667,5 89.47001,5 C89.0258108,5 88.584654,5.04726304 88.1408893,5.14264845 C87.6971247,5.23932285 87.2803076,5.37466701 86.8865262,5.55598522 C86.4897024,5.73773309 86.1280843,5.95643207 85.8016717,6.21122282 C85.4735206,6.46902123 85.2123036,6.74873249 85.0197593,7.05207528 L85.0197593,5.73257712 L83,5.73257712 L83,20 L85.04888,20 L85.0197593,11.4496863 C85.0197593,10.9005757 85.1401538,10.3587694 85.3796389,9.82684541 C85.6230358,9.2957807 85.9433634,8.82615794 86.3493146,8.41539916 C86.7535272,8.00764802 87.2255433,7.67938472 87.7640588,7.43404658 C88.3012705,7.18741944 88.8693414,7.06453553 89.4656637,7.06453553 C90.0654631,7.06453553 90.6309261,7.17624817 91.1694417,7.40697774 C91.7109997,7.63384034 92.1812772,7.94663573 92.5850552,8.34622325 C92.9897024,8.74366246 93.3078569,9.20941823 93.5399532,9.74091261 C93.769007,10.2728366 93.8859244,10.8438601 93.8859244,11.4496863 L93.9133066,20 L96,20 L95.9708793,11.443671 Z M79,12.7422605 C78.9598647,13.4043312 78.8050573,14.0405177 78.5329315,14.6487977 C78.2197883,15.3100596 77.7910909,15.8916464 77.2437518,16.3935583 C76.6968539,16.8946614 76.0586592,17.2869696 75.3256395,17.574932 C74.5965892,17.8620854 73.8194649,18 72.9991179,18 C72.1818583,18 71.406057,17.8620854 70.6739194,17.574932 C69.9391355,17.2869696 69.3009409,16.8946614 68.754925,16.3935583 C68.2093502,15.8916464 67.7793296,15.306824 67.4683916,14.6346423 C67.1548074,13.9624605 67,13.253879 67,12.5004044 C67,11.7481432 67.1548074,11.0367306 67.4683916,10.3653577 C67.7793296,9.69560262 68.2093502,9.11037576 68.754925,8.60967718 C69.3009409,8.10816972 69.9391355,7.71424369 70.6739194,7.42668579 C71.406057,7.13831899 72.1818583,7 72.9991179,7 C73.8194649,7 74.5965892,7.13831899 75.3256395,7.42668579 C76.0586592,7.71424369 76.6968539,8.10816972 77.2437518,8.60967718 C77.7910909,9.11037576 78.2197883,9.69560262 78.5329315,10.3653577 C78.8438695,11.0367306 79,11.7481432 79,12.5004044 L79,12.7422605 Z M80.9991234,5.65376397 L78.9610464,5.65376397 L78.9610464,7.48027613 C78.8663745,7.38946417 78.7589919,7.28920118 78.6441583,7.18154175 C77.9179017,6.50805391 77.077688,5.97468771 76.1116833,5.58596318 C75.1408574,5.19600592 74.1034105,5 72.998466,5 C71.8935214,5 70.8560745,5.19600592 69.8874401,5.58596318 C68.9183673,5.97633136 68.0685112,6.51257396 67.3413779,7.19428008 C66.6142446,7.87762985 66.0418299,8.67521368 65.624572,9.58086785 C65.2095055,10.4898093 65,11.4661407 65,12.5004109 C65,13.535092 65.2095055,14.508547 65.624572,15.4162558 C66.0418299,16.3288955 66.6142446,17.1244247 67.3413779,17.8040763 C68.0685112,18.487426 68.9183673,19.0253123 69.8865635,19.4148586 C70.8560745,19.8060487 71.8935214,20 72.998466,20 C74.1034105,20 75.1408574,19.8060487 76.1116833,19.4148586 C77.0811944,19.0253123 77.9249144,18.4898915 78.6424051,17.8192801 C78.7594302,17.7116206 78.8654979,17.609714 78.961923,17.5197239 L78.961923,19.3454142 L81,19.3454142 L81,12.4983563 C81,12.4946581 80.9991234,12.4917817 80.9991234,12.4880835 L80.9991234,5.65376397 Z M65,5.42465842 L61.3725713,5.42465842 L61.3725713,-1.60427227e-14 L59.429545,-1.60427227e-14 L59.429545,5.42465842 L58,5.42465842 L58,7.32445401 L59.429545,7.32445401 L59.429545,19 L61.3725713,19 L61.3725713,7.32445401 L65,7.32445401 L65,5.42465842 Z M55.4627941,8.94904185 C55.1230005,8.16017874 54.6609161,7.47658331 54.0717366,6.89567758 C53.4794999,6.31734983 52.7863733,5.85632036 51.9932303,5.51301882 C51.2000874,5.17014695 50.3584648,5 49.467926,5 C48.3074739,5 47.2273844,5.27025866 46.2315881,5.81464295 C45.2349184,6.35601959 44.4465797,7.07226949 43.8656985,7.96468162 C43.2651635,7.07226949 42.508271,6.35601959 41.5893432,5.81464295 C40.6721625,5.27025866 39.6418628,5 38.5041219,5 C37.6336736,5 36.7972921,5.18604451 35.9958508,5.5585632 C35.1939728,5.93365988 34.5615548,6.42175819 34.0972867,7.03531838 L34.0972867,5.73257712 L32,5.73257712 L32.0283889,20 L34.1252388,20 L34.0972867,11.4496863 C34.0972867,10.8821002 34.2130262,10.3351379 34.4436316,9.81395549 C34.6768576,9.29148406 34.9956871,8.82615794 35.4018671,8.41539916 C35.8084839,8.00764802 36.2758094,7.67938472 36.8077742,7.43404658 C37.3375553,7.18741944 37.9048971,7.06453553 38.5041219,7.06453553 C39.1024731,7.06453553 39.6615166,7.17023288 40.1851832,7.39108018 C40.7040454,7.60891982 41.1652563,7.91398127 41.5583338,8.3015382 C41.955342,8.69382143 42.2763553,9.15656956 42.5161326,9.69837587 C42.7585303,10.2397525 42.8978545,10.8249549 42.9358519,11.4496863 L42.9638041,20 L45.0628378,20 L45.0357591,11.4496863 C45.0357591,10.8438601 45.1493148,10.2728366 45.3816673,9.74091261 C45.6127095,9.20941823 45.9324125,8.74366246 46.3377191,8.34622325 C46.7434624,7.94663573 47.2134083,7.63384034 47.7444996,7.40697774 C48.275591,7.17624817 48.8516678,7.06453553 49.467926,7.06453553 C50.0872414,7.06453553 50.6624447,7.17624817 51.1922258,7.40697774 C51.7246274,7.63384034 52.1867118,7.94663573 52.5841568,8.34622325 C52.9807283,8.74366246 53.295627,9.20941823 53.5244855,9.74091261 C53.7577114,10.2728366 53.8734509,10.8438601 53.8734509,11.4496863 L53.9044603,20 L56,20 L55.9707376,11.443671 C55.9707376,10.5693048 55.8017143,9.73833462 55.4627941,8.94904185 Z M28,20 L30,20 L30,6 L28,6 L28,20 Z M27.9985663,-1.60427227e-14 C27.7136201,-1.60427227e-14 27.4756272,0.0951526032 27.2845878,0.28545781 C27.0942652,0.476481149 27,0.71454219 27,1.0010772 C27,1.28689408 27.0942652,1.52387792 27.2845878,1.71526032 C27.4756272,1.90736086 27.7136201,2 27.9985663,2 C28.2849462,2 28.5218638,1.90736086 28.7136201,1.71526032 C28.9028674,1.52387792 29,1.28689408 29,1.0010772 C29,0.71454219 28.9028674,0.476481149 28.7136201,0.28545781 C28.5218638,0.0951526032 28.2849462,-1.60427227e-14 27.9985663,-1.60427227e-14 Z M19.3423797,7.26081223 C19.2270518,7.3728458 19.123082,7.52054548 19.030907,7.70433089 L19.030907,5.06671662 L17,5.06671662 L17.0297057,19 L19.0518757,19 L19.0518757,12.6677956 C19.0518757,11.8885958 19.20652,11.1459014 19.5184295,10.4506219 C19.8259706,9.75534242 20.2497133,9.14440282 20.7940261,8.62577551 C21.3330967,8.104211 21.9678371,7.69468005 22.693005,7.39844148 C23.417736,7.0996853 24.1874625,6.9490484 25,6.9490484 L25,5 C23.898269,5 22.8638126,5.20056946 21.896194,5.60086917 C20.9281385,6.00074929 20.0784688,6.55378391 19.3423797,7.26081223 Z M3.6733218,8.54741946 C4.19911517,8.03788626 4.81551856,7.63765615 5.52125578,7.34549638 C6.2261422,7.05251479 6.97569553,6.91198225 7.76693798,6.91198225 C8.55690423,6.91198225 9.30560676,7.05251479 10.0121948,7.34549638 C10.7192082,7.63765615 11.3356116,8.03788626 11.8622557,8.54741946 C12.2391594,8.90943458 12.5492754,9.31993754 12.7951561,9.77276463 L15,9.77276463 L14.9132186,9.58086785 C14.5180227,8.67521368 13.9667054,7.87762985 13.2592666,7.19756739 C12.5539548,6.51257396 11.7299566,5.97633136 10.7898245,5.58596318 C9.8475653,5.19600592 8.84149627,5 7.76693798,5 C6.69450668,5 5.68545986,5.19600592 4.74192451,5.58596318 C3.80349395,5.97633136 2.97949576,6.51257396 2.27418394,7.19428008 C1.56802133,7.87762985 1.01117382,8.67521368 0.607895409,9.58086785 C0.200363007,10.4898093 3.61116573e-14,11.4661407 3.61116573e-14,12.5004109 C3.61116573e-14,13.535092 0.200363007,14.508547 0.607895409,15.4162558 C1.01117382,16.3288955 1.56802133,17.1244247 2.27418394,17.8040763 C2.97949576,18.487426 3.80349395,19.0253123 4.74192451,19.4148586 C5.68545986,19.8060487 6.69450668,20 7.76693798,20 C8.84149627,20 9.8475653,19.8060487 10.7898245,19.4148586 C11.7299566,19.0253123 12.5539548,18.4898915 13.2592666,17.8065417 C13.9667054,17.1268902 14.5180227,16.3317719 14.9132186,15.4236522 L15,15.205046 L12.8236579,15.205046 C12.5599104,15.677597 12.2391594,16.0946746 11.8622557,16.4571006 C11.3356116,16.9649901 10.7192082,17.3635766 10.0121948,17.6569691 C9.30560676,17.9478961 8.55690423,18.0880178 7.76693798,18.0880178 C6.97569553,18.0880178 6.2261422,17.9478961 5.52125578,17.6561473 C4.81551856,17.3635766 4.19911517,16.9649901 3.6733218,16.4558679 C3.14242364,15.9459237 2.73063725,15.3517423 2.42775304,14.6688034 C2.12699583,13.9858646 1.97470293,13.2659435 1.97470293,12.5004109 C1.97470293,11.7361111 2.12699583,11.0133136 2.42775304,10.3311966 C2.73063725,9.65072321 3.14242364,9.05613083 3.6733218,8.54741946 Z" id="Fill-23" fill="#383838" mask="url(#mask-2)"></path>
                    </g>
                    <path d="M119,4.4433213 C119,4.36606498 118.987692,4.29747292 118.961846,4.23610108 C118.936,4.17617329 118.892923,4.12635379 118.832615,4.08808664 C118.776615,4.05054152 118.715692,4.02743682 118.651692,4.01516245 C118.587077,4.00649819 118.506462,4 118.408615,4 L118,4 L118,5 L118.348923,5 C118.462769,5 118.560615,4.98916968 118.643077,4.96967509 C118.724923,4.94873646 118.793846,4.91263538 118.845538,4.86353791 C118.902769,4.8101083 118.943385,4.75090253 118.966154,4.6866426 C118.988308,4.62093863 119,4.5400722 119,4.4433213 Z M119,6 L118.742136,6 L118.435608,5.22664064 L118.220772,5.22664064 L118.220772,6 L118,6 L118,4 L118.415134,4 C118.498516,4 118.567062,4.00585509 118.621365,4.01756526 C118.675371,4.02927543 118.72819,4.05806294 118.781009,4.10343986 C118.836499,4.1532081 118.877745,4.21322274 118.903561,4.2839717 C118.930267,4.35472066 118.943323,4.44254696 118.943323,4.54989022 C118.943323,4.69090022 118.918398,4.8089778 118.868249,4.90363503 C118.818101,4.99780434 118.749258,5.07196877 118.661424,5.12808002 L119,6 Z M120,4.49977794 C120,4.08852702 119.853288,3.73545522 119.56031,3.44100666 C119.266438,3.14700222 118.913523,3 118.499329,3 C118.085135,3 117.732667,3.14700222 117.438795,3.44100666 C117.146265,3.73545522 117,4.08852702 117,4.49977794 C117,4.91102887 117.146265,5.26365655 117.438795,5.55854922 C117.732667,5.85255366 118.085135,6 118.499329,6 C118.913523,6 119.266438,5.85255366 119.56031,5.55854922 C119.853288,5.26365655 120,4.91102887 120,4.49977794 Z M120,4.5 C120,4.91430046 119.853659,5.26781105 119.560588,5.56053175 C119.267518,5.85402685 118.914053,6 118.499806,6 C118.085947,6 117.732482,5.85402685 117.439799,5.56053175 C117.146341,5.26781105 117,4.91430046 117,4.5 C117,4.08608673 117.146341,3.73257615 117.439799,3.43985545 C117.732482,3.14636035 118.085947,3 118.499806,3 C118.914053,3 119.267518,3.14636035 119.560588,3.43985545 C119.853659,3.73257615 120,4.08608673 120,4.5 Z" id="Fill-26" fill="#383838"></path>
                </g>
            </g>
        </g>
    </g>
</svg>