<?xml version="1.0" encoding="UTF-8"?>
<svg width="119px" height="45px" viewBox="0 0 119 45" version="1.1" xmlns="http://www.w3.org/2000/svg" xmlns:xlink="http://www.w3.org/1999/xlink">
    <!-- Generator: Sketch 48.2 (47327) - http://www.bohemiancoding.com/sketch -->
    <title>Page 1</title>
    <desc>Created with Sketch.</desc>
    <defs></defs>
    <g id="Home" stroke="none" stroke-width="1" fill="none" fill-rule="evenodd" transform="translate(-215.000000, -949.000000)">
        <g id="Clients" transform="translate(190.000000, 843.000000)">
            <g id="Group" transform="translate(25.000000, 105.000000)">
                <g id="Page-1" transform="translate(0.000000, 1.000000)">
                    <polygon id="Fill-1" fill="#4967A9" points="-3.16413562e-14 45 119 45 119 6.3310468e-14 -3.16413562e-14 6.3310468e-14"></polygon>
                    <g id="Group-6" transform="translate(13.000000, 13.000000)" fill="#FEFEFE">
                        <path d="M74.9960427,9 C73.5133887,9 73,9.77463569 73,10.738133 L73,14.2578272 C73,15.2243544 73.5133887,16 74.9960427,16 C76.4760586,16 77,15.2243544 77,14.2578272 L77,10.738133 C77,9.77463569 76.4760586,9 74.9960427,9 Z M94,18 L89.6649341,18 L86,12.21193 L86,18 L82,18 L82,0.630751221 L86,-1.3405943e-13 L86,11.1822068 L89.6649341,5.68408998 L94,5.68408998 L89.997099,11.6837846 L94,18 Z M82,13.7793419 C82,16.4285818 80.8443082,19 76.0131781,19 C71.1780697,19 70,16.4285818 70,13.7793419 L70,11.2201865 C70,8.57047491 71.1780697,6 76.0131781,6 C80.8443082,6 82,8.57047491 82,11.2201865 L82,13.7793419 Z M69,13.7793419 C69,16.4285818 67.845207,19 63.0126818,19 C58.1756807,19 57,16.4285818 57,13.7793419 L57,11.2201865 C57,8.57047491 58.1756807,6 63.0126818,6 C67.845207,6 69,8.57047491 69,11.2201865 L69,13.7793419 Z M56,13.6036665 C56,16.7236988 55.0719111,19 49.4576201,19 C47.429353,19 46.2386538,18.8275166 44,18.4964444 L44,0.65974884 L48.1152236,-1.3405943e-13 L48.1152236,6.23958543 C49.0020309,5.92097034 50.1529407,5.76094412 51.2008953,5.76094412 C55.313632,5.76094412 56,7.53416885 56,10.3849354 L56,13.6036665 Z M43,13.6380408 L35.8815801,13.6380408 L35.8815801,13.8985675 C35.8815801,15.3780205 36.408071,15.7626971 38.1480249,15.7626971 C39.7124819,15.7626971 40.6655149,15.6865143 42.6752837,15.3399291 L42.6752837,18.5001085 C40.7377783,18.8965417 39.7279669,19 37.8251856,19 C33.6583056,19 32,16.8071553 32,13.6380408 L32,11.0421791 C32,8.2709087 33.230825,6 37.5,6 C41.7724597,6 43,8.2441036 43,11.0421791 L43,13.6380408 Z M31,9.6600709 C28.924583,9.31489654 28.3299492,9.23824338 27.3321247,9.23824338 C25.5395214,9.23824338 24.9970993,9.62339025 24.9970993,11.1009622 L24.9970993,13.8985675 C24.9970993,15.3780205 25.5395214,15.7626971 27.3321247,15.7626971 C28.3299492,15.7626971 28.924583,15.6865143 31,15.3399291 L31,18.5001085 C29.1832246,18.8965417 27.9992748,19 26.9995166,19 C22.7055838,19 21,16.8071553 21,13.6380408 L21,11.3680726 C21,8.19613659 22.7055838,6 26.9995166,6 C27.9992748,6 29.1832246,6.10345825 31,6.50036174 L31,9.6600709 Z M20,18.8643794 L16.66611,18.8643794 L16.5215576,18.0334643 C15.0001319,18.8643794 13.6411462,19 12.7457918,19 C10.3004878,19 9,17.3887889 9,15.1620321 C9,12.5322338 10.5170747,11.5953054 13.2335956,11.5953054 L15.9974948,11.5953054 L15.9974948,11.027036 C15.9974948,9.68420086 15.8418231,9.29166514 13.75089,9.29166514 L10.3309454,9.29166514 L10.6664616,6 L14.4030677,6 C18.9939349,6 20,7.43070198 20,11.052823 L20,18.8643794 Z M5.98424268,19 L1.99362204,19 L1.99362204,9.5 L-8.56537063e-14,9.5 L-8.56537063e-14,6.22484245 L1.99362204,6.22484245 L1.99362204,4.2596529 C1.99362204,1.58840152 3.12043091,3.64708264e-14 6.31804052,3.64708264e-14 L8.98118769,3.64708264e-14 L8.98118769,3.27420726 L7.31750456,3.27420726 C6.07203344,3.27420726 5.99003109,3.73271982 5.99003109,4.58607582 L5.98424268,6.22484245 L9,6.22484245 L8.64787223,9.5 L5.98424268,9.5 L5.98424268,19 Z M63.0010557,9 C61.5146477,9 61,9.77463569 61,10.738133 L61,14.2578272 C61,15.2243544 61.5146477,16 63.0010557,16 C64.4811296,16 65,15.2243544 65,14.2578272 L65,10.738133 C65,9.77463569 64.4811296,9 63.0010557,9 Z M12,14.8921142 C12,15.6216739 12.3447776,16 13.1058994,16 C13.9231141,16 14.4047389,15.7339139 15,15.4610547 L15,14 L13.2156673,14 C12.3708897,14 12,14.1567489 12,14.8921142 Z M37.500435,9 C36.2792923,9 36,9.68171757 36,10.5258964 L36,11 L39,11 L39,10.5258964 C39,9.68171757 38.7224478,9 37.500435,9 Z M50.1801873,9 C49.2900673,9 48.6489909,9.27819549 48,9.5593985 L48,15.9428571 C48.6226092,16 48.9782351,16 49.5697138,16 C51.7076903,16 52,15.0706767 52,13.7754386 L52,10.7253133 C52,9.76892231 51.6649519,9 50.1801873,9 Z" id="Fill-2"></path>
                        <path d="M96,18.0987 L96.0324165,18.0987 C96.0688605,18.0987 96.1,18.0849 96.1,18.0498 C96.1,18.0249 96.08222,18 96.0324165,18 C96.01778,18 96.0075639,18.0009 96,18.0023 L96,18.0987 Z M96.2204878,18 L96,18 L96,17.0233276 C96.1156098,17.0109777 96.224878,17 96.3912195,17 C96.6019512,17 96.7395122,17.0308748 96.822439,17.0737564 C96.9058537,17.1166381 96.9502439,17.1821612 96.9502439,17.2761578 C96.9502439,17.4041166 96.8287805,17.4813036 96.6790244,17.5135506 L96.6790244,17.5217839 C96.8004878,17.5365352 96.8843902,17.6137221 96.9112195,17.7578045 C96.9434146,17.909777 96.9785366,17.967753 97,18 L96.7678049,18 C96.7341463,17.967753 96.6995122,17.8789022 96.6731707,17.7509434 C96.6404878,17.6264151 96.5541463,17.5797599 96.3736585,17.5797599 L96.2204878,17.5797599 L96.2204878,18 Z M95.9958445,17 C95.4483011,17 95,17.4457717 95,17.9976574 C95,18.5597374 95.4483011,18.9999485 96.0031777,18.9999485 C96.5560988,19.0055091 97,18.5597374 97,18.0027546 C97,17.4457717 96.5560988,17 96.0031777,17 L95.9958445,17 Z M96.0079365,17 C96.5595238,17 97,17.4437488 97,17.9982391 C97,18.560947 96.5595238,19 96.0019841,19 C95.4496032,19 95,18.560947 95,17.9982391 C95,17.4437488 95.4496032,17 96.0019841,17 L96.0079365,17 Z" id="Fill-4"></path>
                    </g>
                </g>
            </g>
        </g>
    </g>
</svg>