<?xml version="1.0" encoding="UTF-8"?>
<svg width="120px" height="36px" viewBox="0 0 120 36" version="1.1" xmlns="http://www.w3.org/2000/svg" xmlns:xlink="http://www.w3.org/1999/xlink">
    <!-- Generator: Sketch 48.2 (47327) - http://www.bohemiancoding.com/sketch -->
    <title>Page 1</title>
    <desc>Created with Sketch.</desc>
    <defs>
        <polygon id="path-1" points="0 35 120 35 120 1.1618484e-13 0 1.1618484e-13"></polygon>
    </defs>
    <g id="Home" stroke="none" stroke-width="1" fill="none" fill-rule="evenodd" transform="translate(-749.000000, -1035.000000)">
        <g id="Clients" transform="translate(190.000000, 843.000000)">
            <g id="Group" transform="translate(25.000000, 105.000000)">
                <g id="Page-1" transform="translate(534.000000, 87.000000)">
                    <path d="M0.152016584,11.2111379 C-0.200750642,10.5698359 0.0816222223,10.0475188 0.779997925,10.0224293 L0.829711457,10.0224293 L11.5909015,10.0000008 C12.3246733,9.99924053 13.2123581,10.5291605 13.5726818,11.184908 L18.8482818,20.7892331 C19.2086055,21.4449806 18.9051541,21.9764212 18.170587,21.9790822 L7.40860148,21.9999901 C6.67522745,22.0026511 5.78754261,21.4708303 5.42761664,20.8169835 L0.152016584,11.2111379 Z" id="Fill-1" fill="#83B440"></path>
                    <path d="M20.0898167,22.757884 L23.1790086,28.3207728 C23.3889799,28.7008114 23.9031402,29.0047681 24.3261591,28.9999433 L30.5260786,28.9364799 C30.9494821,28.9331397 31.1202279,28.6221316 30.9102567,28.242093 L27.8218338,22.6792041 C27.6122472,22.3002789 27.0969332,21.9963223 26.6746834,22.0000336 L20.4747639,22.063126 L20.4532284,22.063126 C20.045592,22.077229 19.8829219,22.3841546 20.0898167,22.757884" id="Fill-3" fill="#83B440"></path>
                    <g id="Group-7" transform="translate(13.000000, -0.000000)" fill="#1091D0">
                        <path d="M6.86146834,0.374671667 L0.375143922,8.82085155 C-0.0678736453,9.39843441 -0.12702313,10.432369 0.24316412,11.1336321 L5.66680971,21.4003205 C6.03578983,22.1015837 6.69528646,22.2019974 7.13790165,21.6264554 L13.6250308,13.1786428 C14.0684508,12.6026927 14.1267955,11.5675336 13.7562059,10.8670868 L8.33416979,0.598765653 C8.11930024,0.193845372 7.8078601,-0.00983932512 7.49802946,0.000365319051 C7.27310047,0.0101617775 7.0477691,0.132209322 6.86146834,0.374671667" id="Fill-5"></path>
                    </g>
                    <path d="M18.9219542,23.2209073 L15.2145133,28.2123758 C14.9602248,28.5532368 14.9281976,29.1641148 15.1388827,29.5786537 L18.2381922,35.6453322 C18.4496491,36.0602759 18.8262584,36.1193801 19.0797751,35.7789239 L22.7860584,30.7870505 C23.0388034,30.4465943 23.0723741,29.8349067 22.8613031,29.4219871 L19.7623795,23.3532845 C19.6400587,23.114034 19.4621725,22.9933967 19.2846722,23.0002787 C19.1569492,23.0035173 19.0272968,23.0767903 18.9219542,23.2209073" id="Fill-8" fill="#1091D0"></path>
                    <mask id="mask-2" fill="white">
                        <use xlink:href="#path-1"></use>
                    </mask>
                    <g id="Clip-11"></g>
                    <polygon id="Fill-10" fill="#1091D0" mask="url(#mask-2)" points="88 25 90 25 90 9 88 9"></polygon>
                    <path d="M50.5007866,14 C47.4656393,14 45.0035398,16.5169398 45.0035398,19.6217955 L45,19.6217955 L45,30 L47.1175629,30 L47.1175629,24.0496632 L47.1175629,19.6217955 L47.1281822,19.6217955 C47.1281822,17.7012164 48.6506722,16.1445662 50.5267449,16.1445662 C52.4055707,16.1445662 53.927274,17.7012164 53.927274,19.6217955 C53.927274,21.5407661 52.4055707,23.0982206 50.5267449,23.0982206 C49.4683567,23.0982206 48.5216676,22.6023927 47.8982766,21.8250729 L47.8982766,24.5724339 C48.673484,24.9998995 49.5599971,25.2419825 50.5007866,25.2419825 C53.5386871,25.2419825 56,22.7250427 56,19.6217955 C56,16.5169398 53.5386871,14 50.5007866,14" id="Fill-12" fill="#83B440" mask="url(#mask-2)"></path>
                    <path d="M62.5021633,14 C59.4653341,14 57.0039332,16.5169398 57.0039332,19.6217955 L57,19.6217955 L57,30 L59.1172453,30 L59.1172453,24.0496632 L59.1172453,19.6217955 L59.1286516,19.6217955 C59.1286516,17.7012164 60.6504094,16.1445662 62.5273358,16.1445662 C64.4066221,16.1445662 65.9279866,17.7012164 65.9279866,19.6217955 C65.9279866,21.5407661 64.4066221,23.0982206 62.5273358,23.0982206 C61.4685165,23.0982206 60.5229735,22.6023927 59.8987736,21.8250729 L59.8987736,24.5724339 C60.6728287,24.9998995 61.5613402,25.2419825 62.5021633,25.2419825 C65.5382057,25.2419825 68,22.7250427 68,19.6217955 C68,16.5169398 65.5382057,14 62.5021633,14" id="Fill-13" fill="#83B440" mask="url(#mask-2)"></path>
                    <path d="M37.4990164,9 C34.4613184,9 32,11.4722606 32,14.5198421 L32,25 L34.1178511,25 L34.1178511,14.5198421 L34.1209986,14.5198421 C34.1209986,12.6465943 35.6325691,11.1279368 37.4998033,11.1279368 C39.3654637,11.1279368 40.8778211,12.6465943 40.8778211,14.5198421 L40.881362,14.5198421 L40.881362,15.7198421 L35.4397868,15.7198421 L35.4397868,17.8450148 L40.881362,17.8450148 L40.881362,25 L43,25 L43,14.5198421 C43,11.4722606 40.5375013,9 37.4990164,9" id="Fill-14" fill="#83B440" mask="url(#mask-2)"></path>
                    <path d="M81.0748735,14.5198421 C81.0748735,12.6469891 82.5576969,11.1271471 84.3878102,11.1271471 L84.3878102,11.1259625 L87,11.1259625 L87,9 L84.3874247,9 C81.4121417,9 79,11.4714709 79,14.5198421 L79,25 L81.0748735,25 L81.0748735,18.0625864 L86.8088172,18.0625864 L86.8088172,15.9370188 L81.0748735,15.9370188 L81.0748735,14.5198421 Z" id="Fill-15" fill="#1091D0" mask="url(#mask-2)"></path>
                    <path d="M98.9206404,14 L98.9206404,20.8344652 L98.9198678,20.8344652 C98.8932143,22.2098407 97.822825,23.316604 96.4982617,23.316604 C95.1787201,23.316604 94.1067857,22.2098407 94.0809048,20.8344652 L94.0782008,20.8344652 L94.0782008,14 L92,14 L92,20.8417359 L92.0030903,20.8417359 C92.0274261,23.0395092 93.4949139,24.8721315 95.4610928,25.358865 L95.4610928,30 L97.5400661,30 L97.5400661,25.358865 C99.5050861,24.8721315 100.973346,23.0395092 100.998069,20.8417359 L101,20.8417359 L101,14 L98.9206404,14 Z" id="Fill-16" fill="#1091D0" mask="url(#mask-2)"></path>
                    <path d="M110.825712,20.331882 C110.609233,21.1847167 110.060714,21.9529759 109.232791,22.4258114 C107.607021,23.3608612 105.526528,22.8069907 104.587792,21.191404 C103.648266,19.5726703 104.20747,17.5062771 105.832843,16.5728008 C107.135675,15.824997 108.730575,16.0338785 109.795161,16.9791561 L105.010065,19.7237259 L106.075442,21.5592086 L108.289702,20.286644 L112.766503,17.718699 C112.65213,17.3886583 112.507283,17.0637315 112.324047,16.7506058 C110.796426,14.1201144 107.411913,13.2188947 104.766674,14.7381048 C102.119457,16.2561348 101.214757,19.6190885 102.742774,22.2491865 C104.269604,24.8792845 107.652138,25.781291 110.298564,24.2620809 C111.811542,23.3946914 112.755027,21.9234729 113,20.331882 L110.825712,20.331882 Z" id="Fill-17" fill="#1091D0" mask="url(#mask-2)"></path>
                    <path d="M119.565569,14 C118.273825,14 117.088001,14.4393016 116.144677,15.1742487 L116.144677,14.0503986 L114,14.0503986 L114,25 L116.144677,25 L116.144677,19.5478192 L116.145076,19.5478192 C116.145076,17.6636242 117.676533,16.1373787 119.565569,16.1373787 L119.565569,16.1357913 L120,16.1357913 L120,14 L119.565569,14 Z" id="Fill-18" fill="#1091D0" mask="url(#mask-2)"></path>
                    <path d="M75.5076655,19.776347 L70.3572989,17.2267701 L70.3584529,17.2255455 C70.1111091,17.0949236 70.0045551,16.7789817 70.1218799,16.5120232 C70.2080464,16.3152739 70.3926887,16.2009797 70.5842551,16.2009797 L70.5842551,16.1960813 L76.4604968,16.1960813 L76.4604968,14 L70.5842551,14 L70.5842551,14.002041 C69.6110362,14.0036737 68.6805159,14.5853496 68.2427597,15.5821582 C67.6407488,16.950423 68.1973685,18.5750334 69.4817866,19.2179383 L74.6329225,21.7675152 L74.6321532,21.7687398 L74.6340765,21.7699644 C74.8906524,21.8960962 75.0010531,22.2181609 74.8814203,22.4896096 C74.7948692,22.6875835 74.6090729,22.8014695 74.4178911,22.8014695 L74.4178911,22.8035105 L68.395859,22.8035105 L68.395859,25 L74.4178911,25 L74.4178911,24.9987754 C75.3891867,24.9971426 76.3193223,24.4138341 76.7570785,23.4178418 C77.3602434,22.0467196 76.8017004,20.41517 75.5076655,19.776347" id="Fill-19" fill="#83B440" mask="url(#mask-2)"></path>
                </g>
            </g>
        </g>
    </g>
</svg>