<?xml version="1.0" encoding="UTF-8"?>
<svg width="120px" height="43px" viewBox="0 0 120 43" version="1.1" xmlns="http://www.w3.org/2000/svg" xmlns:xlink="http://www.w3.org/1999/xlink">
    <!-- Generator: Sketch 48.2 (47327) - http://www.bohemiancoding.com/sketch -->
    <title>Page 1</title>
    <desc>Created with Sketch.</desc>
    <defs>
        <polygon id="path-1" points="9 2.15494289e-13 9 20 6.83030021e-14 20 6.83030021e-14 2.68017661e-13 9 2.68017661e-13"></polygon>
        <polygon id="path-3" points="36 43 -1.73378931e-14 43 -3.09752224e-14 -1.26731958e-13 36 -1.26731958e-13 36 43"></polygon>
    </defs>
    <g id="Home" stroke="none" stroke-width="1" fill="none" fill-rule="evenodd" transform="translate(-572.000000, -949.000000)">
        <g id="Clients" transform="translate(190.000000, 843.000000)">
            <g id="Group" transform="translate(25.000000, 105.000000)">
                <g id="Page-1" transform="translate(357.000000, 1.000000)">
                    <polygon id="Fill-1" fill="#485560" points="12.7658993 11 12.7658993 19.3650125 4.23507914 19.3650125 4.23507914 11 1.41157431e-14 11 1.41157431e-14 32 4.23507914 32 4.23507914 23.2409083 12.7658993 23.2409083 12.7658993 32 17 32 17 11"></polygon>
                    <g id="Group-22" transform="translate(19.000000, 0.000000)">
                        <path d="M25.5305101,30 C23.0650022,30 21,27.744902 21,25 C21,22.2221112 23.034492,20 25.5305101,20 C27.9349978,20 30,22.287585 30,24.967513 C30,27.712415 27.965508,30 25.5305101,30 M26.0609374,16.1451769 C24.205096,16.1451769 22.7755773,16.7761345 21.6199182,18.1650136 L21.6199182,11 L18,11 L18,21.8894497 C18,25.5511279 18.0305882,25.9928465 18.5477193,27.5714474 C19.5819817,30.7909243 22.5628939,33 25.9089524,33 C30.4718463,33 34,29.3074256 34,24.5725884 C34,19.9323708 30.4407802,16.1451769 26.0609374,16.1451769" id="Fill-2" fill="#485560"></path>
                        <path d="M58.5305101,30 C56.034492,30 54,27.7775001 54,24.9997501 C54,22.2549853 56.0645179,20 58.5305101,20 C60.9650237,20 63,22.2874706 63,25.0327353 C63,27.7120296 60.9349978,30 58.5305101,30 M58.9084745,16 C55.5628939,16 52.5815037,18.2090757 51.5472414,21.4285526 C51.0310661,23.0071535 51,23.4488721 51,27.1105503 L51,38 L54.6199182,38 L54.6199182,30.8349864 C55.7755773,32.2238655 57.205574,32.8553059 59.0604594,32.8553059 C63.4403023,32.8553059 67,29.0676292 67,24.4274116 C67,19.6930571 63.4713684,16 58.9084745,16" id="Fill-4" fill="#485560"></path>
                        <path d="M43.1518556,19.8315072 L41.2727557,19.2032612 C40.2720949,18.8573462 39.6366387,18.1028815 39.6366387,17.160038 C39.6366387,15.9030713 40.7278703,15.0228626 42.3936907,15.0228626 C43.6665507,15.0228626 44.4549059,15.4000949 45.6055442,16.5 L46.0296685,16.9085497 L48.7876943,14.1113364 C46.6363953,11.6287206 45.3333449,11 42.2729296,11 C38.3029112,11 35.4241244,13.6719437 35.4241244,17.3488914 C35.4241244,20.208265 37.0909186,22.314123 40.2122013,23.3513933 L41.818615,23.8856872 C44.1515426,24.6719437 44.7874857,25.2683979 44.7874857,26.5263135 C44.7874857,27.971659 43.57598,28.94582 41.818615,28.94582 C40.1518208,28.94582 38.9393412,28.2539902 37.7575389,26.6202657 L35,29.5427487 C37.2121665,32.2773272 38.6666551,33 41.9086988,33 C46.0004522,33 49,30.2345786 49,26.4318868 C49,23.1630144 47.243122,21.1829005 43.1518556,19.8315072" id="Fill-6" fill="#485560"></path>
                        <g id="Group-10" transform="translate(92.000000, 12.000000)">
                            <mask id="mask-2" fill="white">
                                <use xlink:href="#path-1"></use>
                            </mask>
                            <g id="Clip-9"></g>
                            <path d="M7.46752793,16.3783784 C4.80062849,16.3783784 3.96682961,15.7592978 3.96682961,13.7163317 L3.96682961,7.8036498 L7.93418296,7.8036498 L7.93418296,4.3987064 L3.96682961,4.3987064 L3.96682961,4.1855408e-14 L6.83030021e-14,1.82628783 L6.83030021e-14,13.7163317 C6.83030021e-14,18.1118041 1.90066341,20 6.30010475,20 C6.83327514,20 7.10038408,19.969046 7.93418296,19.9380919 L9,16.2236082 C8.26728352,16.3478863 7.96665503,16.3783784 7.46752793,16.3783784" id="Fill-8" fill="#485560" mask="url(#mask-2)"></path>
                        </g>
                        <path d="M10.4267782,25.2808796 C10.4267782,27.1091538 8.95812552,28.5912571 7.14644351,28.5912571 L6.9707113,28.5912571 C5.15902929,28.5912571 3.69037657,27.1091538 3.69037657,25.2808796 L3.69037657,16 L-1.07913678e-13,16 L-1.07913678e-13,25.3792451 C-1.07913678e-13,29.0357935 2.93730544,32 6.56066946,32 L7.43933054,32 C11.0626946,32 14,29.0357935 14,25.3792451 L14,16 L10.4267782,16 L10.4267782,25.2808796 Z" id="Fill-11" fill="#485560"></path>
                        <g id="Group-15" transform="translate(53.000000, 0.000000)">
                            <mask id="mask-4" fill="white">
                                <use xlink:href="#path-3"></use>
                            </mask>
                            <g id="Clip-14"></g>
                            <path d="M25.9997547,29 C22.6861278,29 20,26.5372664 20,23.5002249 C20,20.4622838 22.6861278,18 25.9997547,18 C29.3133816,18 32,20.4622838 32,23.5002249 C32,26.5372664 29.3133816,29 25.9997547,29 M27.1559418,14.0823191 L27.1559418,9.51849586 C28.7671803,9.08160902 29.9523378,7.63847314 29.9523378,5.92146088 C29.9523378,3.85775777 28.2432159,2.18490397 26.1363224,2.18490397 C24.0279896,2.18490397 22.3193474,3.85775777 22.3193474,5.92146088 C22.3193474,7.50787685 23.3312897,8.8598772 24.7568374,9.40152293 L24.7568374,14.0823191 C23.4411686,14.2359342 22.2041904,14.6342998 21.0953244,15.2356064 L8.04275737,5.62785413 C8.24044357,5.15244609 8.35224183,4.63334936 8.35224183,4.08841523 C8.35224183,1.83069679 6.48237991,-1.26731958e-13 4.17636083,-1.26731958e-13 C1.86986192,-1.26731958e-13 -3.09752224e-14,1.83069679 -3.09752224e-14,4.08841523 C-3.09752224e-14,6.34660345 1.86986192,8.17683047 4.17636083,8.17683047 C5.05347337,8.17683047 5.86676974,7.9109402 6.53851895,7.45855092 L19.076718,16.687668 C17.1324839,18.4807831 15.9122994,21.0180152 15.9122994,23.8394586 C15.9122994,27.3669675 17.815269,30.4519523 20.6663646,32.1868158 L17.5585648,37.0292132 C17.4434078,37.0160596 17.3263315,37.0080735 17.2073359,37.0080735 C15.5174068,37.0080735 14.1475183,38.3492691 14.1475183,40.0038019 C14.1475183,41.6583346 15.5174068,43 17.2073359,43 C18.8977448,43 20.2681132,41.6583346 20.2681132,40.0038019 C20.2681132,39.3240435 20.0334808,38.6983088 19.6429066,38.1956541 L22.8553074,33.1902462 C23.8327025,33.500295 24.8739137,33.6727009 25.9563896,33.6727009 C31.502639,33.6727009 36,29.270009 36,23.8394586 C36,18.806804 32.1360026,14.6638954 27.1559418,14.0823191" id="Fill-13" fill="#ED6D23" mask="url(#mask-4)"></path>
                        </g>
                        <path d="M56.5847927,3.8365378 C56.1373458,4.64391029 55.5117786,5.14745726 55.1888014,4.96131461 C54.8663606,4.77630354 54.9666875,3.97119418 55.4152073,3.16382169 C55.8637272,2.3564492 56.4892944,1.85290224 56.8111986,2.03847909 C57.1336394,2.22405595 57.0333125,3.02916531 56.5847927,3.8365378" id="Fill-16" fill="#FEDBA5"></path>
                        <path d="M79.6801601,3.0142994 C80.5023369,3.07922385 81.0885847,3.35001631 80.9889702,3.61834329 C80.8893558,3.88625936 80.1429622,4.05103596 79.3207854,3.9857006 C78.498132,3.92077615 77.9114076,3.64957277 78.011022,3.38165671 C78.1096833,3.11374064 78.8570301,2.94896404 79.6801601,3.0142994" id="Fill-18" fill="#FEDBA5"></path>
                        <path d="M68.7296637,38.5583093 C69.2609422,38.0631194 69.8137932,37.8591443 69.9622635,38.1030005 C70.1120028,38.3464412 69.8027954,38.9467343 69.270671,39.4415089 C68.7393926,39.9366988 68.1869645,40.1410893 68.0372252,39.8968177 C67.8887549,39.6525462 68.1975393,39.0530839 68.7296637,38.5583093" id="Fill-20" fill="#FEDBA5"></path>
                    </g>
                </g>
            </g>
        </g>
    </g>
</svg>