<?xml version="1.0" encoding="UTF-8"?>
<svg width="120px" height="35px" viewBox="0 0 120 35" version="1.1" xmlns="http://www.w3.org/2000/svg" xmlns:xlink="http://www.w3.org/1999/xlink">
    <!-- Generator: Sketch 48.2 (47327) - http://www.bohemiancoding.com/sketch -->
    <title>Page 1</title>
    <desc>Created with Sketch.</desc>
    <defs>
        <polygon id="path-1" points="0 35 120 35 120 1 0 1"></polygon>
    </defs>
    <g id="Home" stroke="none" stroke-width="1" fill="none" fill-rule="evenodd" transform="translate(-928.000000, -1036.000000)">
        <g id="Clients" transform="translate(190.000000, 843.000000)">
            <g id="Group" transform="translate(25.000000, 105.000000)">
                <g id="Page-1" transform="translate(713.000000, 87.000000)">
                    <polygon id="Fill-1" fill="#50C5DA" points="27 36 33 36 33 11 27 11"></polygon>
                    <polygon id="Fill-2" fill="#BDD63F" points="14 36 20 36 20 11 14 11"></polygon>
                    <polygon id="Fill-3" fill="#3B3A3B" points="0 7 6 7 6 1 0 1"></polygon>
                    <polygon id="Fill-4" points="27 30 33 30 33 11 27 11"></polygon>
                    <polygon id="Fill-6" points="14 30 20 30 20 11 14 11"></polygon>
                    <polygon id="Fill-8" fill="#20B794" points="27.7273363 11 14 36 20.2721257 36 34 11"></polygon>
                    <polygon id="Fill-9" fill="#E79124" points="13.727505 11 1.1154892e-13 36 6.27357095 36 20 11"></polygon>
                    <polygon id="Fill-10" fill="#3B3A3B" points="0 36 6 36 6 11 0 11"></polygon>
                    <polygon id="Fill-11" fill="#C0922C" points="20 11 14 22 14.0036002 11"></polygon>
                    <polygon id="Fill-12" fill="#188E8C" points="27.0051418 11 27 22 33 11"></polygon>
                    <polygon id="Fill-13" fill="#352712" points="0 34.9761994 0 35 6 35 6 34.9761994 5.99691384 34.9761994 6 24"></polygon>
                    <polygon id="Fill-14" fill="#8EB93E" points="14 34.9761994 14 35 20 35 20 34.9761994 19.9958855 34.9761994 20 24"></polygon>
                    <polygon id="Fill-15" fill="#3C3A3C" points="42 25 44.4805232 25 46.5015558 28.4843511 48.5210326 25 51 25 51 34 48.6657255 34 48.6657255 28.8310774 46.5057047 32.3545661 46.4574738 32.3545661 44.3119742 28.8564341 44.3119742 34 42 34"></polygon>
                    <polygon id="Fill-16" fill="#3C3A3C" points="52 25 58.9370132 25 58.9370132 27.1222515 54.3575047 27.1222515 54.3575047 28.4843511 58.5056333 28.4843511 58.5056333 30.452257 54.3575047 30.452257 54.3575047 31.8782997 59 31.8782997 59 34 52 34"></polygon>
                    <g id="Group-32" transform="translate(0.000000, -0.000000)">
                        <path d="M61,24 L64.2462422,24 C65.0018063,24 65.6711825,24.1102468 66.2621121,24.3301893 C66.8525256,24.5457218 67.3500419,24.8527592 67.7551771,25.2463404 C68.1603122,25.6421265 68.4694536,26.1106756 68.682085,26.6541924 C68.8947165,27.2004655 69,27.7974521 69,28.4495621 L69,28.4738164 C69,29.1242727 68.8911038,29.7273228 68.6753758,30.2813132 C68.4586156,30.8347523 68.1453455,31.3099161 67.7365976,31.7134195 C67.3273337,32.1163717 66.8236243,32.4327801 66.2259854,32.6576836 C65.6293787,32.8864458 64.951745,33 64.1977292,33 L61,33 L61,24 Z M63.8717425,31 C64.5103611,31 65.0255887,30.7868754 65.4141287,30.3540036 C65.8045526,29.9217339 66,29.3100542 66,28.5159542 L66,28.487658 C66,27.7001806 65.8045526,27.089705 65.4141287,26.6556291 C65.0255887,26.217941 64.5103611,26 63.8717425,26 L63,26 L63,31 L63.8717425,31 Z" id="Fill-17" fill="#3C3A3C"></path>
                        <mask id="mask-2" fill="white">
                            <use xlink:href="#path-1"></use>
                        </mask>
                        <g id="Clip-20"></g>
                        <polygon id="Fill-19" fill="#3C3A3C" mask="url(#mask-2)" points="70 33 72 33 72 24 70 24"></polygon>
                        <path d="M76.8053776,24 L79.192432,24 L83,33 L80.3418761,33 L79.6913093,31.4032964 L76.2429768,31.4032964 L75.60391,33 L73,33 L76.8053776,24 Z M79,30 L78.0076461,27 L77,30 L79,30 Z" id="Fill-21" fill="#3C3A3C" mask="url(#mask-2)"></path>
                        <polygon id="Fill-22" fill="#3C3A3C" mask="url(#mask-2)" points="42 21 44 21 44 12 42 12"></polygon>
                        <polygon id="Fill-23" fill="#3C3A3C" mask="url(#mask-2)" points="54 12 51.6886352 12 51.6886352 16.7565052 48.1956409 12 46 12 46 21 48.3124027 21 48.3124027 16.0605523 51.938246 21 54 21"></polygon>
                        <polygon id="Fill-24" fill="#3C3A3C" mask="url(#mask-2)" points="62 12 55 12 55 21 57.4260876 21 57.4260876 17.7841793 61.5630362 17.7841793 61.5630362 15.7018306 57.4260876 15.7018306 57.4260876 14.1853915 62 14.1853915"></polygon>
                        <polygon id="Fill-25" fill="#3C3A3C" mask="url(#mask-2)" points="69.9385918 12 63 12 63 21 70 21 70 18.8774261 65.3562732 18.8774261 65.3562732 17.449152 69.5055585 17.449152 69.5055585 15.481969 65.3562732 15.481969 65.3562732 14.1203698 69.9385918 14.1203698"></polygon>
                        <path d="M75.398441,12 C74.7630822,12 74.177305,12.1149703 73.6416203,12.3454406 C73.1038911,12.5764408 72.6402786,12.8964502 72.2533384,13.3033496 C71.8607757,13.7118385 71.5561306,14.190793 71.3348029,14.7359746 C71.1109194,15.2848649 71,15.8729617 71,16.4981456 L71,16.5219874 C71,17.1646553 71.1139863,17.7606994 71.3409367,18.3080002 C71.5658424,18.8579502 71.8725321,19.3321363 72.2579388,19.7326779 C72.641812,20.1326897 73.0977573,20.4442221 73.623219,20.6656855 C74.146636,20.8876788 74.7083892,21 75.302856,21 C75.7654463,21 76.1799885,20.9512568 76.5495495,20.8527109 C76.9185995,20.7525755 77.2528912,20.6158827 77.5508913,20.4442221 C77.8488914,20.2709719 78.1146892,20.0638135 78.3493068,19.8253959 C78.5829021,19.5869783 78.8001406,19.3257785 79,19.0449756 L77.2585138,17.7569906 C77.1312376,17.9159357 77.0034503,18.056867 76.8715737,18.1845529 C76.7396971,18.3111791 76.6001533,18.4240301 76.4534535,18.5193972 C76.3057313,18.6142344 76.144208,18.6862895 75.9642834,18.7355625 C75.7879369,18.7858951 75.5890997,18.8102667 75.374417,18.8102667 C75.0815283,18.8102667 74.813686,18.7493377 74.5693566,18.6306587 C74.3270718,18.5125096 74.1205674,18.3466769 73.944732,18.1421675 C73.7694077,17.9344793 73.6339531,17.6902337 73.5337678,17.4051922 C73.4330714,17.1233296 73.3845122,16.8186849 73.3845122,16.4981456 L73.3845122,16.4737741 C73.3845122,16.1595926 73.4330714,15.8639548 73.5337678,15.5842115 C73.6339531,15.3034085 73.7694077,15.0581033 73.944732,14.8541237 C74.1205674,14.6485548 74.3270718,14.4853712 74.5693566,14.3656325 C74.813686,14.2464237 75.0815283,14.1876141 75.374417,14.1876141 C75.7812919,14.1876141 76.126829,14.2782128 76.4130726,14.45994 C76.698294,14.6406075 76.9610249,14.8869724 77.1987093,15.200624 L78.9396844,13.8024372 C78.7566929,13.5412374 78.5496773,13.296462 78.3140374,13.0755283 C78.0794198,12.8514158 77.8182225,12.6601519 77.5263561,12.4996174 C77.2370456,12.3390828 76.9160437,12.2156355 76.5674398,12.130335 C76.2173024,12.0429152 75.8288288,12 75.398441,12" id="Fill-26" fill="#3C3A3C" mask="url(#mask-2)"></path>
                        <polygon id="Fill-27" fill="#3C3A3C" mask="url(#mask-2)" points="88 12 80 12 80 14.1853915 82.7366804 14.1853915 82.7366804 21 85.2644368 21 85.2644368 14.1853915 88 14.1853915"></polygon>
                        <polygon id="Fill-28" fill="#3C3A3C" mask="url(#mask-2)" points="89 21 91 21 91 12 89 12"></polygon>
                        <path d="M97.0059887,19 C96.7060726,19 96.4344233,18.9313826 96.1867289,18.7969831 C95.9399928,18.658047 95.7296682,18.4748781 95.5538388,18.2457752 C95.3780093,18.0161053 95.2424242,17.7529772 95.144688,17.4524215 C95.048389,17.1501645 95,16.8359986 95,16.5002835 L95,16.4730634 C95,16.1373483 95.0455144,15.8203471 95.1394179,15.5203584 C95.2328423,15.2198027 95.366511,14.958943 95.5432986,14.7349439 C95.7186489,14.5098106 95.9289735,14.3311784 96.1699605,14.197346 C96.4143011,14.0652149 96.6835549,14 96.982992,14 C97.2805126,14 97.5545574,14.0663491 97.7998563,14.2047182 C98.0480297,14.3425201 98.2593125,14.5234207 98.4399329,14.7547919 C98.618637,14.9827606 98.7566176,15.248157 98.8543538,15.5464444 C98.9520901,15.8481343 99,16.1640014 99,16.5002835 L99,16.5258024 C99,16.8615175 98.9520901,17.1796529 98.8543538,17.4779403 C98.7566176,17.7790632 98.6219907,18.0399229 98.4504731,18.2667574 C98.2794347,18.4913236 98.0710265,18.6699558 97.822853,18.8020869 C97.576596,18.9347851 97.3044676,19 97.0059887,19 M97.51203,12 C96.8670155,12 96.271145,12.1181353 95.7213469,12.3522868 C95.1715488,12.586968 94.6944429,12.9069398 94.2895171,13.3159103 C93.8825437,13.7227618 93.5656675,14.2011301 93.3383767,14.7473071 C93.1121097,15.2971923 93,15.8809818 93,16.4976161 L93,16.5214551 C93,17.1412679 93.1121097,17.7202896 93.3383767,18.2638178 C93.5656675,18.8089352 93.8789602,19.2835953 94.2767192,19.6872682 C94.6734543,20.0909412 95.1495364,20.4109129 95.6972868,20.646124 C96.246573,20.8818647 96.8429555,21 97.4889938,21 C98.1334964,21 98.7303908,20.8818647 99.2786531,20.646124 C99.8279393,20.4109129 100.306069,20.0898817 100.711507,19.6825004 C101.117456,19.2708812 101.434333,18.7946318 101.6606,18.2473954 C101.888402,17.6969804 102,17.1147802 102,16.4976161 L102,16.4721879 C102,15.8544941 101.888402,15.2728236 101.6606,14.7314144 C101.434333,14.1868268 101.122064,13.7126965 100.724305,13.3090235 C100.326034,12.9058803 99.8525112,12.586968 99.3032251,12.3522868 C98.7539389,12.1181353 98.1570445,12 97.51203,12" id="Fill-29" fill="#3C3A3C" mask="url(#mask-2)"></path>
                        <path d="M111,12 L108.571532,12 L108.571532,16.9715059 C108.571532,17.5958521 108.429981,18.0530207 108.144248,18.3473399 C107.861146,18.6422002 107.480695,18.7899008 106.999737,18.7899008 C106.52141,18.7899008 106.13938,18.6367899 105.855752,18.3273219 C105.57265,18.0216411 105.42952,17.5487827 105.42952,16.9087466 L105.42952,12 L103,12 L103,16.9590622 C103,17.6488729 103.091035,18.2472498 103.275735,18.7574391 C103.460435,19.2676285 103.723541,19.6885482 104.066632,20.0218215 C104.4113,20.3545537 104.829113,20.6012624 105.320068,20.7608656 C105.810498,20.9215509 106.361968,21 106.976584,21 C107.589094,21 108.144248,20.9215509 108.639413,20.7608656 C109.133526,20.6012624 109.55397,20.3545537 109.903374,20.0218215 C110.249622,19.6885482 110.521147,19.2633003 110.714267,18.7466186 C110.905282,18.2272317 111,17.6110009 111,16.8957619 L111,12 Z" id="Fill-30" fill="#3C3A3C" mask="url(#mask-2)"></path>
                        <path d="M115.980351,12 C115.430737,12 114.937825,12.0681859 114.501053,12.2045576 C114.063158,12.3409293 113.691509,12.5343001 113.380491,12.7825392 C113.072842,13.0286475 112.835368,13.322699 112.673684,13.6614975 C112.513123,14.0024268 112.431158,14.3747854 112.431158,14.7796389 L112.431158,14.8036105 C112.431158,15.2489494 112.520421,15.6234389 112.700632,15.9265463 C112.880281,16.2285883 113.124491,16.479491 113.435509,16.6829831 C113.743719,16.8838118 114.107509,17.0505475 114.526316,17.178396 C114.947368,17.3057117 115.399298,17.4234389 115.889404,17.5310447 C116.203228,17.5981651 116.457544,17.6620894 116.655158,17.7244155 C116.851088,17.7846108 117.007158,17.8506659 117.125053,17.9156555 C117.242386,17.982776 117.325474,18.0509618 117.368702,18.1212785 C117.412491,18.1915951 117.434386,18.2715004 117.434386,18.3641906 L117.434386,18.3881622 C117.434386,18.5788695 117.344,18.7258952 117.163789,18.8287067 C116.985825,18.9325836 116.727579,18.9847884 116.386807,18.9847884 C115.320702,18.9847884 114.330947,18.636934 113.414175,17.9385617 L112,19.5478544 C112.56814,20.0336786 113.221053,20.3975141 113.957614,20.6372299 C114.695298,20.8785439 115.473965,21 116.294175,21 C116.852772,21 117.358596,20.9344777 117.812211,20.8071619 C118.267509,20.6798461 118.656,20.4939331 118.980491,20.2488902 C119.301614,20.0038473 119.552561,19.7081977 119.732211,19.3598106 C119.910175,19.0135543 120,18.6134951 120,18.168689 L120,18.1431193 C120,17.7387985 119.921965,17.3872152 119.765333,17.0942291 C119.609263,16.8017757 119.381333,16.550873 119.083789,16.3441847 C118.787368,16.138029 118.426386,15.9617046 118.003088,15.8168097 C117.581474,15.6729802 117.107649,15.5461971 116.582737,15.4396567 C116.270035,15.3725363 116.009544,15.3091447 115.805193,15.2462859 C115.598035,15.1855579 115.435228,15.1232317 115.319018,15.061971 C115.201684,15.0001776 115.120842,14.9309263 115.070877,14.8558153 C115.022596,14.7817698 114.997895,14.6960047 114.997895,14.5969222 L114.997895,14.5702871 C114.997895,14.4142054 115.074246,14.2799645 115.227509,14.1750222 C115.380772,14.0674164 115.610386,14.0130808 115.914667,14.0130808 C116.32393,14.0130808 116.749474,14.086061 117.190737,14.2298905 C117.632561,14.3758508 118.063719,14.5878662 118.482526,14.870731 L119.752421,13.1628884 C119.253333,12.779343 118.697544,12.4890204 118.083368,12.2945842 C117.466386,12.0990826 116.765193,12 115.980351,12" id="Fill-31" fill="#3C3A3C" mask="url(#mask-2)"></path>
                    </g>
                </g>
            </g>
        </g>
    </g>
</svg>