<?xml version="1.0" encoding="UTF-8"?>
<svg width="120px" height="12px" viewBox="0 0 120 12" version="1.1" xmlns="http://www.w3.org/2000/svg" xmlns:xlink="http://www.w3.org/1999/xlink">
    <!-- Generator: Sketch 48.2 (47327) - http://www.bohemiancoding.com/sketch -->
    <title>Page 1</title>
    <desc>Created with Sketch.</desc>
    <defs>
        <polygon id="path-1" points="0 12 120 12 120 -1.02418074e-14 0 -1.02418074e-14"></polygon>
    </defs>
    <g id="Home" stroke="none" stroke-width="1" fill="none" fill-rule="evenodd" transform="translate(-572.000000, -1047.000000)">
        <g id="Clients" transform="translate(190.000000, 843.000000)">
            <g id="Group" transform="translate(25.000000, 105.000000)">
                <g id="Page-1" transform="translate(357.000000, 99.000000)">
                    <polygon id="Fill-1" fill="#231F20" points="9.7171669 1 6.05989166 7.030981 6.02595987 7.030981 2.35151433 1 0 1 0 12 2.38626375 12 2.38626375 5.61516771 2.47211529 5.61516771 5.6134637 10.7543782 6.29986713 10.7543782 9.44162437 5.61516771 9.5274759 5.61516771 9.5274759 12 12 12 12 1"></polygon>
                    <g id="Group-17" transform="translate(0.000000, 0.000000)">
                        <path d="M19.4677515,10 C21.4479228,10 23,8.17089467 23,5.96327883 C23,3.79303601 21.4479228,2 19.4677515,2 C17.5196401,2 16,3.79303601 16,5.96327883 C16,8.17089467 17.5196401,10 19.4677515,10 Z M26,5.97377714 C26,9.33449879 23.3149331,12 19.9674572,12 C16.6203665,12 14,9.33449879 14,5.97377714 C14,2.68438166 16.6203665,-2.2037927e-14 19.9674572,-2.2037927e-14 C23.3149331,-2.2037927e-14 26,2.68438166 26,5.97377714 Z" id="Fill-2" fill="#231F20"></path>
                        <path d="M35.9974129,9.19001015 C35.4290547,9.70716715 34.9108458,10 33.6575124,10 L31,10 L31,3 L33.6575124,3 C34.9442786,3 35.5293532,3.32708719 36.080995,3.89687892 C36.6827861,4.53392612 37,5.43164051 37,6.50104434 C37,7.63895685 36.6322388,8.53583577 35.9974129,9.19001015 M34.1873583,1 L29,1 L29,12 L34.1873583,12 C36.265601,12 37.4654693,11.4449597 38.4114419,10.5515898 C39.4423147,9.54068193 40,8.09186361 40,6.49244982 C40,4.94241828 39.4765162,3.56093941 38.5128393,2.56635625 C37.5326652,1.57381368 36.2149023,1 34.1873583,1" id="Fill-4" fill="#231F20"></path>
                        <polygon id="Fill-6" fill="#231F20" points="43 12 51.9873928 12 51.9873928 9.92831701 45.3658291 9.92831701 45.3658291 7.30034877 49.3528717 7.30034877 49.3528717 5.22866578 45.3658291 5.22866578 45.3658291 3.08882458 52 3.08882458 52 1 43 1"></polygon>
                        <polygon id="Fill-8" fill="#231F20" points="65.5410137 8.24313595 65.507331 8.24313595 61.2323931 1 60 1 60 12 61.0647718 12 61.0647718 3.00474918 61.1487806 3.00474918 65.3250477 10.0805506 65.6246262 10.0805506 69.8008934 3.00474918 69.8849022 3.00474918 69.8849022 12 71 12 71 1 69.8008934 1"></polygon>
                        <polygon id="Fill-10" fill="#231F20" points="77.1099026 6.67753785 81.6687133 6.67753785 81.6687133 5.68332591 77.1099026 5.68332591 77.1099026 2.01135352 84.6349004 2.01135352 84.6349004 1 76 1 76 12 85 12 85 10.9890546 77.1099026 10.9890546"></polygon>
                        <path d="M96.6915833,9.78371744 C95.8292984,10.544252 95.0679947,11 93.3627533,11 L90,11 L90,2 L93.3627533,2 C95.0514274,2 95.8963562,2.47252148 96.7251122,3.24901132 C97.536512,4.07663985 98,5.22541934 98,6.49202236 C98,7.77539888 97.5033775,8.95690713 96.6915833,9.78371744 M93.3936596,1 L89,1 L89,12 L93.3936596,12 C95.4135118,12 96.4476762,11.4277976 97.4495229,10.4846023 C98.4344414,9.49079846 99,8.05825171 99,6.49224547 C99,4.95848175 98.466759,3.57695162 97.5299323,2.58396408 C96.5119267,1.60526121 95.397353,1 93.3936596,1" id="Fill-12" fill="#231F20"></path>
                        <mask id="mask-2" fill="white">
                            <use xlink:href="#path-1"></use>
                        </mask>
                        <g id="Clip-15"></g>
                        <polygon id="Fill-14" fill="#231F20" mask="url(#mask-2)" points="103 12 104 12 104 1 103 1"></polygon>
                        <path d="M112,7 L114.447706,2 L114.551468,2 L117,7 L112,7 Z M113.960096,1 L109,12 L110.129315,12 L111.701077,8.42896895 L117.21784,8.42896895 L118.805975,12 L120,12 L115.039904,1 L113.960096,1 Z" id="Fill-16" fill="#231F20" mask="url(#mask-2)"></path>
                    </g>
                </g>
            </g>
        </g>
    </g>
</svg>