<?xml version="1.0" encoding="UTF-8"?>
<svg width="120px" height="44px" viewBox="0 0 120 44" version="1.1" xmlns="http://www.w3.org/2000/svg" xmlns:xlink="http://www.w3.org/1999/xlink">
    <!-- Generator: Sketch 48.2 (47327) - http://www.bohemiancoding.com/sketch -->
    <title>Page 1</title>
    <desc>Created with Sketch.</desc>
    <defs>
        <polygon id="path-1" points="10 -3.97700037e-16 4.93997204e-14 -3.97700037e-16 4.93997204e-14 31 10 31 10 -9.24260668e-15"></polygon>
        <polygon id="path-3" points="4 5 6.334327e-14 5 6.28386232e-14 4.34791092e-14 4 4.34791092e-14 4 5"></polygon>
        <polygon id="path-5" points="5 5 -5.3971247e-14 5 -6.65856259e-14 4.34791092e-14 5 4.34791092e-14 5 5"></polygon>
        <polygon id="path-7" points="5 5 4.69069228e-15 5 2.48736985e-14 4.34791092e-14 5 4.34791092e-14"></polygon>
        <polygon id="path-9" points="5 5 4.81975571e-14 5 5.82904936e-14 4.34791092e-14 5 4.34791092e-14 5 5"></polygon>
        <polygon id="path-11" points="4 5 -1.2526709e-15 5 -9.32587341e-15 4.34791092e-14 4 4.34791092e-14 4 5"></polygon>
        <polygon id="path-13" points="5 5 -9.23503698e-15 5 -2.94209102e-14 4.34791092e-14 5 4.34791092e-14 5 5"></polygon>
        <polygon id="path-15" points="5 5 2.459144e-14 5 6.49631863e-14 4.34791092e-14 5 4.34791092e-14 5 5"></polygon>
        <polygon id="path-17" points="4 5 -8.87623308e-14 5 -7.26113381e-14 4.34791092e-14 4 4.34791092e-14 4 5"></polygon>
        <polygon id="path-19" points="5 5 1.33087985e-14 5 3.34975394e-14 4.34791092e-14 5 4.34791092e-14 5 5"></polygon>
    </defs>
    <g id="Home" stroke="none" stroke-width="1" fill="none" fill-rule="evenodd" transform="translate(-215.000000, -1031.000000)">
        <g id="Clients" transform="translate(190.000000, 843.000000)">
            <g id="Group" transform="translate(25.000000, 105.000000)">
                <g id="Page-1" transform="translate(0.000000, 83.000000)">
                    <path d="M7,15.8916769 C7.73193573,15.1474908 8.35080333,14.6150551 8.94862102,14.2282742 C9.54403299,13.8421053 10.290403,13.6481028 11.1865281,13.6481028 C12.5962712,13.6481028 13.6000516,14.1383109 14.1966664,15.1175031 C14.7932812,16.0985312 15.0927915,17.3892289 15.0927915,18.9895961 L15.0927915,29.4265606 C15.0927915,29.8684211 14.8756766,30.1505508 14.4414469,30.2747858 C14.0072171,30.3990208 13.4238337,30.4895961 12.6912965,30.5446756 L12.6912965,31 L21,31 L21,30.626683 C20.7552195,30.6003672 20.4899905,30.5660955 20.2055159,30.5226438 C19.9210413,30.4828641 19.6564138,30.4259486 19.4122347,30.3580171 C19.1686571,30.2882497 18.9569551,30.1848225 18.78194,30.0477356 C18.6057221,29.9088127 18.5173125,29.744186 18.5173125,29.5507956 L18.5173125,17.375765 C18.5173125,15.498776 18.0951113,13.9663403 17.2555202,12.7796818 C16.4141249,11.5930233 15.2070625,11 13.63313,11 C12.9011943,11 12.1957213,11.1438188 11.5173125,11.4339045 C10.8389037,11.7233782 10.2140218,12.0899633 9.64567403,12.5312118 C9.07612338,12.9724602 8.56671535,13.4626683 8.11865281,14.000612 C7.67119168,14.5397797 7.29830741,15.0428397 7.00060143,15.5122399" id="Fill-1" fill="#00ADEE"></path>
                    <path d="M5.76181359,16.6550078 L5.76181359,29.5091343 C5.81695642,29.7863766 5.91376273,29.9852811 6.05161982,30.1095199 C6.18947691,30.2343707 6.35613081,30.3237247 6.54913073,30.379418 C6.74213066,30.4344992 6.9639274,30.46816 7.21268285,30.4834603 C7.46205101,30.4963126 7.72428582,30.5305854 8,30.5868907 L8,31 L4.70051786e-14,31 L4.70051786e-14,30.5868907 C0.634755304,30.5305854 1.18066937,30.4063466 1.63712951,30.2135622 C2.09297695,30.0201659 2.32151336,29.7037547 2.32151336,29.2612687 L2.32151336,15.0154227 C2.32151336,14.7938737 2.30006893,14.62863 2.25840545,14.5190795 C2.21674198,14.408917 2.09971663,14.2834542 1.9073294,14.1451391 C1.65796125,14.007436 1.36754231,13.8489244 1.0360726,13.6696043 C0.703990197,13.4896723 0.372520487,13.3311607 0.0410507774,13.1934576 L0.0410507774,12.94498 L5.47200735,11 L5.75323581,11 L5.76181359,16.6550078 Z" id="Fill-3" fill="#00ADEE"></path>
                    <path d="M106,15.8916769 C106.733233,15.1474908 107.350977,14.6156671 107.947669,14.2288862 C108.544361,13.8427173 109.290827,13.6487148 110.185865,13.6487148 C111.597594,13.6487148 112.601504,14.1389229 113.198797,15.1175031 C113.794887,16.0985312 114.093233,17.3898409 114.093233,18.9902081 L114.093233,29.4271726 C114.093233,29.8684211 113.87609,30.1511628 113.442406,30.2753978 C113.007519,30.3996328 112.424662,30.4902081 111.69203,30.5446756 L111.69203,31 L120,31 L120,30.627295 C119.757594,30.6003672 119.492932,30.5667075 119.206617,30.5232558 C118.922105,30.4834761 118.658045,30.4265606 118.413835,30.3586291 C118.169023,30.2888617 117.959699,30.1848225 117.783459,30.0483476 C117.606617,29.9094247 117.518797,29.744186 117.518797,29.5507956 L117.518797,17.375765 C117.518797,15.498776 117.097143,13.9669523 116.257444,12.7802938 C115.41594,11.5930233 114.20812,11 112.633985,11 C111.902556,11 111.196391,11.1444308 110.517293,11.4345165 C109.839398,11.7239902 109.215639,12.0899633 108.646015,12.5318237 C108.075789,12.9730722 107.566917,13.4626683 107.118195,14.001224 C106.670677,14.5397797 106.299549,15.0434517 106.001203,15.5128519" id="Fill-5" fill="#545861"></path>
                    <path d="M104.760931,16.6548348 L104.760931,29.5091799 C104.816066,29.7858017 104.912857,29.9853121 105.051918,30.1089351 C105.188529,30.2337821 105.35577,30.3231334 105.547515,30.378825 C105.741711,30.4345165 105.962861,30.4681763 106.211578,30.4834761 C106.460296,30.496328 106.72249,30.5305998 107,30.5862913 L107,31 L99,31 L99,30.5862913 C99.6352707,30.5305998 100.179876,30.4057528 100.636879,30.2135863 C101.093269,30.0195838 101.320545,29.7031824 101.320545,29.2613219 L101.320545,15.0152999 C101.320545,14.7937576 101.299717,14.629131 101.259285,14.5195838 C101.216402,14.4088127 101.100008,14.2833537 100.906425,14.1456548 C100.658933,14.0073439 100.367945,13.8488372 100.036527,13.6701346 C99.704495,13.4902081 99.3724634,13.3310894 99.0404319,13.1933905 L99.0404319,12.9449204 L104.470557,11 L104.752967,11 L104.760931,16.6548348 Z" id="Fill-7" fill="#545861"></path>
                    <path d="M22,32 L22,31.5656957 C22.3353584,31.5366579 22.6688943,31.5006763 23.0042527,31.4564884 C23.3390036,31.4116692 23.6385176,31.339706 23.9021871,31.2374425 C24.1676792,31.137704 24.3924666,30.9994589 24.572904,30.8264947 C24.753949,30.652268 24.8438639,30.4344846 24.8438639,30.1725133 L24.8438639,15.2616106 C24.8438639,15.0299396 24.8238153,14.8273063 24.7818955,14.6537109 C24.7405832,14.4794842 24.6221142,14.3191451 24.4258809,14.1745874 C24.1755772,14.000992 23.8760632,13.8273965 23.5267315,13.6538011 C23.1780073,13.4789431 22.808627,13.3198665 22.4185905,13.1753089 L22.4185905,12.9146001 L28.072904,11 L28.3219927,11 L28.3219927,30.4344846 C28.3784933,30.7242312 28.4963548,30.9350708 28.6780073,31.0644783 C28.8602673,31.1964109 29.0753341,31.290468 29.3274605,31.3472811 C29.5771567,31.4066192 29.8499392,31.4413383 30.1421628,31.4564884 C30.4349939,31.470376 30.7211422,31.5063577 31,31.5656957 L31,32 L22,32 Z" id="Fill-9" fill="#545861"></path>
                    <path d="M27.4256353,6.42146451 C27.0434662,6.80659586 26.5668657,7 26.0002777,7 C25.4564644,7 24.9870851,6.80100615 24.59214,6.4019005 C24.1966394,6.0039128 24,5.53046395 24,4.98155394 C24,4.40804919 24.1905291,3.93460034 24.5743647,3.56120738 C24.9565338,3.18725545 25.4320233,3 26.0002777,3 C26.5668657,3 27.0434662,3.18725545 27.4256353,3.56120738 C27.80836,3.93460034 28,4.40804919 28,4.98155394 C28,5.55449972 27.80836,6.0352152 27.4256353,6.42146451" id="Fill-11" fill="#545861"></path>
                    <path d="M83.7875473,17.5632877 C83.8449727,17.2166907 84.0039966,16.7169607 84.2658814,16.0672488 C84.5252419,15.4156464 84.8944047,14.7709759 85.3714767,14.1351278 C85.8504417,13.49991 86.4152293,12.9415736 87.0658393,12.4645301 C87.7177114,11.9862261 88.4478334,11.7473893 89.2593605,11.7473893 C90.5031552,11.7473893 91.495793,12.1317969 92.2347497,12.8980915 C92.9724443,13.664386 93.340976,14.5838135 93.340976,15.6551134 C93.340976,16.0590565 93.2911233,16.3628016 93.1888936,16.5657184 C93.0872949,16.7686352 92.9352125,16.9854159 92.7326462,17.2166907 C92.4429954,17.332013 92.1110644,17.4044833 91.7336979,17.4341015 C91.3575936,17.4630897 90.9524611,17.4769535 90.5195625,17.4769535 C89.8512831,17.4769535 89.2448464,17.4838855 88.694573,17.4990097 C88.1442995,17.5135038 87.6148507,17.5267375 87.1106437,17.5418617 C86.6026504,17.5550954 86.2984855,17.5632877 85.7772402,17.5632877 L85.5828776,18.1550234 L97.6516618,18.1550234 C97.5658393,16.9413036 97.2894405,15.885758 96.8268826,14.9902773 C96.3624316,14.0935362 95.7616744,13.3486676 95.0220867,12.7563018 C94.28313,12.1639359 93.4135465,11.7209219 92.4139672,11.4335614 C91.4131258,11.1436802 90.3485486,11 89.2177114,11 C87.8256205,11 86.5584771,11.2961829 85.4131258,11.8885488 C84.2690366,12.482175 83.2978544,13.2560317 82.5008414,14.2113792 C81.7031973,15.1654663 81.088557,16.2430681 80.6525032,17.4435542 C80.2183424,18.6440403 80,19.8527188 80,21.0670688 C80,22.5700396 80.2322255,23.9954987 80.6960454,25.3415556 C81.1592343,26.685722 81.8199411,27.8578502 82.6750105,28.8560497 C83.5288178,29.8542492 84.5643668,30.6274757 85.7816576,31.1776197 C86.9995793,31.7258732 88.3487589,32 89.8260412,32 C91.0149348,32 92.0946571,31.7844797 93.0652082,31.3496579 C94.0357594,30.9154663 94.8700042,30.3659525 95.5647875,29.7004861 C96.2602019,29.0343896 96.8129996,28.3046453 97.2175011,27.5087324 C97.6238957,26.7134498 97.8851493,25.9975693 98,25.3592006 L97.6516618,25.2734966 C97.3045856,26.3441664 96.5870846,27.2472092 95.5010517,27.9851458 C94.4143879,28.7243428 93.1459823,29.0936262 91.6977282,29.0936262 C90.3643248,29.0936262 89.1912074,28.8459669 88.1777451,28.3556896 C87.1630206,27.8628916 86.3218342,27.1886028 85.6560791,26.3359741 C84.9884308,25.4827152 84.4816996,24.4996399 84.1327303,23.3854879 C83.7856542,22.271336 83.6121161,21.1067699 83.6121161,19.8911595 C83.6121161,19.5729204 83.6266302,19.2616133 83.6569205,18.9591286 C83.6846866,18.6547533 83.6998317,18.3869283 83.6998317,18.1550234 L83.7875473,17.5632877 Z" id="Fill-13" fill="#545861"></path>
                    <path d="M36.7865507,17.5637209 C36.8439801,17.2171343 37.0036463,16.7174194 37.2649183,16.0670968 C37.5236659,15.416144 37.8941168,14.7714929 38.3705911,14.1356639 C38.8495898,13.5004651 39.4144169,12.9421455 40.0663348,12.4651163 C40.7176215,11.9868267 41.4477947,11.747997 42.2593787,11.747997 C43.5032606,11.747997 44.4965991,12.1323931 45.2337143,12.8980345 C45.9720917,13.6649362 46.3412804,14.5843361 46.3412804,15.6556039 C46.3412804,16.0595349 46.2907931,16.3626407 46.1891873,16.5661815 C46.0875815,16.7684621 45.9348573,16.9852363 45.7341701,17.2171343 C45.4426057,17.331823 45.1106514,17.4049212 44.7332585,17.4339085 C44.3577589,17.4635259 43.952598,17.4767592 43.519669,17.4767592 C42.8513428,17.4767592 42.2436014,17.4843211 41.6939205,17.4988147 C41.1442395,17.5133083 40.6147535,17.5271718 40.1098801,17.5422956 C39.6018512,17.5555289 39.297665,17.5637209 38.7763831,17.5637209 L38.5832691,18.1554389 L50.6522684,18.1554389 C50.5651778,16.9411253 50.2893906,15.8862416 49.8280625,14.9901575 C49.363579,14.0934434 48.7621485,13.3492273 48.0218778,12.7562491 C47.2828694,12.1645311 46.4132249,11.7215304 45.4129444,11.4341785 C44.413295,11.1443061 43.347381,11 42.2177267,11 C40.8255382,11 39.5576748,11.2968042 38.4128743,11.8891523 C37.2680738,12.4827607 36.2974546,13.2565941 35.5003857,14.211913 C34.7026856,15.1659715 34.0867401,16.2429107 33.6525489,17.4446212 C33.2164645,18.6444411 33,19.8530833 33,21.0667667 C33,22.5703226 33.2316107,23.9957389 33.6954632,25.3411253 C34.1593156,26.6858815 34.8188065,27.8573443 35.674567,28.8548837 C36.5278031,29.8536834 37.5646869,30.6275169 38.782063,31.1776444 C39.9988079,31.7252513 41.3487133,32 42.8254681,32 C44.014445,32 45.0936119,31.783856 46.0654933,31.3496774 C47.0367436,30.9154989 47.8697847,30.3653713 48.5646168,29.699925 C49.260711,29.0344786 49.8129163,28.3034959 50.2174462,27.5088672 C50.6232382,26.7136084 50.8851413,25.9971193 51,25.3593998 L50.6522684,25.2730683 C50.3051679,26.3437059 49.5876166,27.2473518 48.5008765,27.9852663 C47.4147675,28.723811 46.1462731,29.0930833 44.6979174,29.0930833 C43.3644204,29.0930833 42.1905897,28.8454314 41.1770563,28.3551688 C40.1622607,27.8623856 39.3203843,27.188117 38.6552135,26.336144 C37.9881495,25.4829107 37.4807517,24.499865 37.132389,23.3851163 C36.7852885,22.2709977 36.6117383,21.1070968 36.6117383,19.8915229 C36.6117383,19.5732933 36.6262534,19.2613653 36.6559147,18.9588897 C36.6836828,18.6545236 36.6994601,18.3873368 36.6994601,18.1554389 L36.7865507,17.5637209 Z" id="Fill-15" fill="#545861"></path>
                    <g id="Group-19" transform="translate(51.000000, 0.000000)">
                        <mask id="mask-2" fill="white">
                            <use xlink:href="#path-1"></use>
                        </mask>
                        <g id="Clip-18"></g>
                        <path d="M4.93997204e-14,31 L4.93997204e-14,30.5269741 C1.31531419,30.4423274 2.18658529,30.3060212 2.61568163,30.1205453 C3.04540076,29.934447 3.2608831,29.6132873 3.2608831,29.1558215 L3.2608831,4.5030819 C3.2608831,4.27341538 3.23846298,4.1022547 3.19611384,3.98835505 C3.15189637,3.87321059 3.03232235,3.74437328 2.83178676,3.60122071 C2.5733325,3.45931295 2.18658529,3.23711526 1.67279068,2.93773968 C1.15775051,2.63711928 0.729276951,2.4167888 0.386747213,2.27239143 L0.386747213,2.01596161 L6.52488011,3.11278781e-14 L6.82443794,3.11278781e-14 L6.82443794,29.3705503 C6.82443794,29.6574779 6.88982998,29.8709619 7.01750016,30.0134921 C7.14579311,30.1566446 7.34072367,30.2568514 7.59730958,30.3141125 C7.85576384,30.3707511 8.18396961,30.406228 8.58504079,30.4199209 C8.98548919,30.4348586 9.45631189,30.4703355 10,30.5269741 L10,31 L4.93997204e-14,31 Z" id="Fill-17" fill="#545861" mask="url(#mask-2)"></path>
                    </g>
                    <path d="M76.3649068,28.5143481 C75.9421059,29.3369042 75.3759929,30.007391 74.6665676,30.5270654 C73.9565476,31.0467399 73.145436,31.4212574 72.2314488,31.6531315 C71.3174617,31.8850055 70.3553073,32 69.3443911,32 C68.1455634,32 67.012148,31.8850055 65.9477127,31.6531315 C64.8838721,31.4212574 63.9014994,31.0907268 63,30.6571411 L63,24.9413507 L63.3020855,24.9413507 C63.5203245,25.6350878 63.7950559,26.3633861 64.1244956,27.1281307 C64.4533407,27.8928753 64.849382,28.6016936 65.3144034,29.250187 C65.7806142,29.9005655 66.3425647,30.4346928 66.9984709,30.8538257 C67.6555664,31.2717017 68.4357559,31.4803256 69.3396339,31.4803256 C70.6532303,31.4803256 71.7004205,31.084443 72.4806099,30.2889075 C73.2602047,29.4958856 73.6508941,28.2761902 73.6508941,26.6304497 C73.6508941,25.7362578 73.3832986,24.9928783 72.8522703,24.4009396 C72.3170794,23.8083725 71.5868411,23.4124899 70.6562035,23.2107783 C69.9188294,23.0656214 69.2082148,22.9066399 68.5249543,22.733834 C67.8405046,22.5597714 67.2244404,22.3737694 66.679735,22.1701727 C65.6402752,21.7950268 64.7994308,21.145905 64.1560124,20.2228074 C63.5149726,19.2990814 63.1932634,18.1868398 63.1932634,16.8879679 C63.1932634,15.9931476 63.3704711,15.1850444 63.7278597,14.4642868 C64.0852483,13.7429007 64.5645415,13.1220563 65.1687126,12.6023819 C65.7716943,12.0820791 66.4692265,11.6849397 67.2613091,11.4109638 C68.0533917,11.1369879 68.8983987,11 69.8004927,11 C70.946396,11 71.9573122,11.1080822 72.8308627,11.3248751 C73.7044132,11.5410395 74.5369324,11.8081032 75.329015,12.1248092 L75.8202013,17.4949879 L75.4937349,17.5810766 C75.1101814,16.715162 74.7272225,15.9145995 74.345453,15.1775038 C73.9636835,14.4416649 73.5408826,13.8076244 73.0764558,13.2722403 C72.6132184,12.7387414 72.0863526,12.3277776 71.4994266,12.0380921 C70.9125005,11.7502918 70.2357813,11.6057632 69.4722423,11.6057632 C69.0084101,11.6057632 68.5505246,11.6918519 68.1003695,11.8659146 C67.6502145,12.0380921 67.2541732,12.2913313 66.9122457,12.6231186 C66.5715075,12.9549059 66.2926135,13.3734103 66.0725906,13.8780035 C65.853757,14.3838535 65.7449348,14.9682516 65.7449348,15.6318262 C65.7449348,16.7007092 66.0327486,17.4654538 66.6054029,17.9273168 C67.1780572,18.3898082 67.9017542,18.7360484 68.7735208,18.9660373 C69.3741239,19.1118226 70.0300302,19.262635 70.7376715,19.4216164 C71.4482861,19.5799695 72.0625664,19.7314103 72.5805123,19.8759388 C73.8078834,20.1939017 74.8521004,20.8574763 75.7107845,21.8672911 C76.5706579,22.8783626 77,24.1194231 77,25.5917293 C77,26.7171669 76.7877076,27.6905353 76.3649068,28.5143481" id="Fill-20" fill="#545861"></path>
                    <g id="Group-24" transform="translate(1.000000, 39.000000)">
                        <mask id="mask-4" fill="white">
                            <use xlink:href="#path-3"></use>
                        </mask>
                        <g id="Clip-23"></g>
                        <path d="M4,2.49964494 C4,3.87942054 3.10511364,5 2,5 C0.895454545,5 6.28386232e-14,3.87942054 6.28386232e-14,2.49964494 C6.28386232e-14,1.11915921 0.895454545,4.34791092e-14 2,4.34791092e-14 C3.10511364,4.34791092e-14 4,1.11915921 4,2.49964494" id="Fill-22" fill="#545861" mask="url(#mask-4)"></path>
                    </g>
                    <g id="Group-27" transform="translate(15.000000, 39.000000)">
                        <mask id="mask-6" fill="white">
                            <use xlink:href="#path-5"></use>
                        </mask>
                        <g id="Clip-26"></g>
                        <path d="M5,2.49964494 C5,3.87942054 3.88084079,5 2.50035506,5 C1.11915921,5 -6.65856259e-14,3.87942054 -6.65856259e-14,2.49964494 C-6.65856259e-14,1.11915921 1.11915921,4.34791092e-14 2.50035506,4.34791092e-14 C3.88084079,4.34791092e-14 5,1.11915921 5,2.49964494" id="Fill-25" fill="#545861" mask="url(#mask-6)"></path>
                    </g>
                    <g id="Group-30" transform="translate(30.000000, 39.000000)">
                        <mask id="mask-8" fill="white">
                            <use xlink:href="#path-7"></use>
                        </mask>
                        <g id="Clip-29"></g>
                        <path d="M5,2.49964494 C5,3.87942054 3.88155092,5 2.50035506,5 C1.11915921,5 2.3411828e-14,3.87942054 2.3411828e-14,2.49964494 C2.3411828e-14,1.11915921 1.11915921,4.34791092e-14 2.50035506,4.34791092e-14 C3.88155092,4.34791092e-14 5,1.11915921 5,2.49964494" id="Fill-28" fill="#545861" mask="url(#mask-8)"></path>
                    </g>
                    <g id="Group-33" transform="translate(44.000000, 39.000000)">
                        <mask id="mask-10" fill="white">
                            <use xlink:href="#path-9"></use>
                        </mask>
                        <g id="Clip-32"></g>
                        <path d="M5,2.49964494 C5,3.87942054 3.88068182,5 2.5,5 C1.12002841,5 4.81975571e-14,3.87942054 4.81975571e-14,2.49964494 C4.81975571e-14,1.11915921 1.12002841,4.34791092e-14 2.5,4.34791092e-14 C3.88068182,4.34791092e-14 5,1.11915921 5,2.49964494" id="Fill-31" fill="#545861" mask="url(#mask-10)"></path>
                    </g>
                    <g id="Group-36" transform="translate(57.000000, 39.000000)">
                        <mask id="mask-12" fill="white">
                            <use xlink:href="#path-11"></use>
                        </mask>
                        <g id="Clip-35"></g>
                        <path d="M4,2.49964494 C4,3.87942054 3.10467263,5 1.99971595,5 C0.895327368,5 -9.32587341e-15,3.87942054 -9.32587341e-15,2.49964494 C-9.32587341e-15,1.11915921 0.895327368,4.34791092e-14 1.99971595,4.34791092e-14 C3.10467263,4.34791092e-14 4,1.11915921 4,2.49964494" id="Fill-34" fill="#545861" mask="url(#mask-12)"></path>
                    </g>
                    <g id="Group-39" transform="translate(71.000000, 39.000000)">
                        <mask id="mask-14" fill="white">
                            <use xlink:href="#path-13"></use>
                        </mask>
                        <g id="Clip-38"></g>
                        <path d="M5,2.49964494 C5,3.87942054 3.88139205,5 2.5,5 C1.11860795,5 -2.94209102e-14,3.87942054 -2.94209102e-14,2.49964494 C-2.94209102e-14,1.11915921 1.11860795,4.34791092e-14 2.5,4.34791092e-14 C3.88139205,4.34791092e-14 5,1.11915921 5,2.49964494" id="Fill-37" fill="#545861" mask="url(#mask-14)"></path>
                    </g>
                    <g id="Group-42" transform="translate(86.000000, 39.000000)">
                        <mask id="mask-16" fill="white">
                            <use xlink:href="#path-15"></use>
                        </mask>
                        <g id="Clip-41"></g>
                        <path d="M5,2.49964494 C5,3.87942054 3.88068182,5 2.5,5 C1.11931818,5 -5.16531262e-14,3.87942054 -5.16531262e-14,2.49964494 C-5.16531262e-14,1.11915921 1.11931818,4.34791092e-14 2.5,4.34791092e-14 C3.88068182,4.34791092e-14 5,1.11915921 5,2.49964494" id="Fill-40" fill="#545861" mask="url(#mask-16)"></path>
                    </g>
                    <g id="Group-45" transform="translate(113.000000, 39.000000)">
                        <mask id="mask-18" fill="white">
                            <use xlink:href="#path-17"></use>
                        </mask>
                        <g id="Clip-44"></g>
                        <path d="M4,2.49964494 C4,3.87942054 3.1049865,5 1.99971587,5 C0.895013496,5 -7.31081862e-14,3.87942054 -7.31081862e-14,2.49964494 C-7.31081862e-14,1.11915921 0.895013496,4.34791092e-14 1.99971587,4.34791092e-14 C3.1049865,4.34791092e-14 4,1.11915921 4,2.49964494" id="Fill-43" fill="#545861" mask="url(#mask-18)"></path>
                    </g>
                    <g id="Group-48" transform="translate(100.000000, 39.000000)">
                        <mask id="mask-20" fill="white">
                            <use xlink:href="#path-19"></use>
                        </mask>
                        <g id="Clip-47"></g>
                        <path d="M5,2.49964494 C5,3.87942054 3.8805228,5 2.49964484,5 C1.1194772,5 1.33087985e-14,3.87942054 1.33087985e-14,2.49964494 C1.33087985e-14,1.11915921 1.1194772,4.34791092e-14 2.49964484,4.34791092e-14 C3.8805228,4.34791092e-14 5,1.11915921 5,2.49964494" id="Fill-46" fill="#545861" mask="url(#mask-20)"></path>
                    </g>
                </g>
            </g>
        </g>
    </g>
</svg>