<?xml version="1.0" encoding="UTF-8"?>
<svg width="199px" height="26px" viewBox="0 0 199 26" version="1.1" xmlns="http://www.w3.org/2000/svg" xmlns:xlink="http://www.w3.org/1999/xlink">
    <!-- Generator: Sketch 48.2 (47327) - http://www.bohemiancoding.com/sketch -->
    <title>Page 1</title>
    <desc>Created with Sketch.</desc>
    <defs></defs>
    <g id="Illustration/Net-Acuity-Pulse-Copy" stroke="none" stroke-width="1" fill="none" fill-rule="evenodd" transform="translate(-67.000000, -84.000000)">
        <g id="Page-1" transform="translate(67.000000, 84.000000)" fill="#FFFFFF">
            <path d="M125.9459,3.6699 C126.1059,3.6699 126.2579,3.6649 126.4009,3.6539 C126.5449,3.6439 126.6719,3.6139 126.7829,3.5649 C126.8949,3.5159 126.9839,3.4409 127.0499,3.3399 C127.1169,3.2389 127.1499,3.0979 127.1499,2.9159 C127.1499,2.7629 127.1199,2.6399 127.0609,2.5489 C127.0019,2.4589 126.9249,2.3889 126.8309,2.3399 C126.7359,2.2919 126.6279,2.2579 126.5059,2.2409 C126.3829,2.2229 126.2629,2.2139 126.1449,2.2139 L125.2029,2.2139 L125.2029,3.6699 L125.9459,3.6699 Z M126.2589,1.6389 C126.8039,1.6389 127.2079,1.7469 127.4689,1.9629 C127.7309,2.1799 127.8619,2.5079 127.8619,2.9469 C127.8619,3.3589 127.7469,3.6609 127.5159,3.8529 C127.2859,4.0449 126.9999,4.1579 126.6579,4.1929 L127.9669,6.2129 L127.2019,6.2129 L125.9569,4.2459 L125.2029,4.2459 L125.2029,6.2129 L124.4909,6.2129 L124.4909,1.6389 L126.2589,1.6389 Z M123.0299,5.2449 C123.1939,5.6539 123.4209,6.0069 123.7109,6.3079 C124.0009,6.6079 124.3419,6.8429 124.7369,7.0139 C125.1309,7.1849 125.5579,7.2709 126.0189,7.2709 C126.4719,7.2709 126.8949,7.1849 127.2859,7.0139 C127.6759,6.8429 128.0169,6.6079 128.3059,6.3079 C128.5959,6.0069 128.8229,5.6539 128.9869,5.2449 C129.1509,4.8369 129.2329,4.3919 129.2329,3.9109 C129.2329,3.4429 129.1509,3.0069 128.9869,2.6019 C128.8229,2.1969 128.5959,1.8469 128.3059,1.5499 C128.0169,1.2529 127.6759,1.0199 127.2859,0.8479 C126.8949,0.6769 126.4719,0.5919 126.0189,0.5919 C125.5579,0.5919 125.1309,0.6769 124.7369,0.8479 C124.3419,1.0199 124.0009,1.2529 123.7109,1.5499 C123.4209,1.8469 123.1939,2.1969 123.0299,2.6019 C122.8659,3.0069 122.7839,3.4429 122.7839,3.9109 C122.7839,4.3919 122.8659,4.8369 123.0299,5.2449 Z M122.3859,2.3719 C122.5949,1.8969 122.8799,1.4849 123.2399,1.1359 C123.5989,0.7869 124.0169,0.5129 124.4959,0.3149 C124.9739,0.1149 125.4809,0.0159 126.0189,0.0159 C126.5559,0.0159 127.0619,0.1149 127.5369,0.3149 C128.0109,0.5129 128.4269,0.7869 128.7829,1.1359 C129.1389,1.4849 129.4219,1.8969 129.6309,2.3719 C129.8409,2.8459 129.9449,3.3589 129.9449,3.9109 C129.9449,4.4759 129.8409,4.9979 129.6309,5.4759 C129.4219,5.9539 129.1389,6.3689 128.7829,6.7209 C128.4269,7.0739 128.0109,7.3479 127.5369,7.5439 C127.0619,7.7389 126.5559,7.8369 126.0189,7.8369 C125.4809,7.8369 124.9739,7.7389 124.4959,7.5439 C124.0169,7.3479 123.5989,7.0739 123.2399,6.7209 C122.8799,6.3689 122.5949,5.9539 122.3859,5.4759 C122.1759,4.9979 122.0719,4.4759 122.0719,3.9109 C122.0719,3.3589 122.1759,2.8459 122.3859,2.3719 Z" id="Fill-1"></path>
            <polygon id="Fill-3" points="2.1607 0.0698 13.7747 16.9318 13.8307 16.9318 13.8307 0.0698 15.7287 0.0698 15.7287 20.0028 13.6067 20.0028 1.9937 3.1408 1.9377 3.1408 1.9377 20.0028 0.0397 20.0028 0.0397 0.0698"></polygon>
            <path d="M29.3951,9.8686 C29.1811,9.2546 28.8781,8.7096 28.4881,8.2346 C28.0971,7.7606 27.6231,7.3796 27.0641,7.0906 C26.5051,6.8026 25.8731,6.6576 25.1661,6.6576 C24.4401,6.6576 23.7971,6.8026 23.2391,7.0906 C22.6811,7.3796 22.2071,7.7606 21.8151,8.2346 C21.4241,8.7096 21.1131,9.2596 20.8801,9.8826 C20.6471,10.5066 20.4941,11.1436 20.4191,11.7946 L29.7441,11.7946 C29.7251,11.1246 29.6091,10.4826 29.3951,9.8686 M20.6851,15.2426 C20.8621,15.9226 21.1451,16.5316 21.5371,17.0716 C21.9271,17.6116 22.4201,18.0576 23.0161,18.4116 C23.6111,18.7646 24.3281,18.9416 25.1661,18.9416 C26.4501,18.9416 27.4551,18.6066 28.1801,17.9366 C28.9071,17.2666 29.4091,16.3736 29.6881,15.2566 L31.4471,15.2566 C31.0751,16.8946 30.3901,18.1596 29.3951,19.0536 C28.3991,19.9466 26.9901,20.3926 25.1661,20.3926 C24.0301,20.3926 23.0481,20.1926 22.2201,19.7936 C21.3921,19.3926 20.7171,18.8446 20.1961,18.1456 C19.6751,17.4476 19.2891,16.6386 19.0381,15.7176 C18.7871,14.7966 18.6611,13.8236 18.6611,12.8006 C18.6611,11.8506 18.7871,10.9206 19.0381,10.0086 C19.2891,9.0966 19.6751,8.2816 20.1961,7.5646 C20.7171,6.8486 21.3921,6.2716 22.2201,5.8346 C23.0481,5.3976 24.0301,5.1786 25.1661,5.1786 C26.3191,5.1786 27.3051,5.4116 28.1241,5.8766 C28.9441,6.3416 29.6091,6.9506 30.1211,7.7046 C30.6321,8.4586 31.0001,9.3236 31.2241,10.3016 C31.4471,11.2786 31.5401,12.2686 31.5021,13.2746 L20.4191,13.2746 C20.4191,13.9076 20.5071,14.5636 20.6851,15.2426" id="Fill-5"></path>
            <path d="M39.5992,5.5971 L39.5992,7.0761 L36.6672,7.0761 L36.6672,16.7921 C36.6672,17.3691 36.7462,17.8211 36.9052,18.1461 C37.0632,18.4721 37.4582,18.6541 38.0912,18.6911 C38.5942,18.6911 39.0962,18.6621 39.5992,18.6071 L39.5992,20.0861 C39.3382,20.0861 39.0782,20.0951 38.8172,20.1151 C38.5562,20.1321 38.2962,20.1421 38.0362,20.1421 C36.8632,20.1421 36.0432,19.9141 35.5782,19.4581 C35.1142,19.0021 34.8902,18.1601 34.9092,16.9321 L34.9092,7.0761 L32.3962,7.0761 L32.3962,5.5971 L34.9092,5.5971 L34.9092,1.2701 L36.6672,1.2701 L36.6672,5.5971 L39.5992,5.5971 Z" id="Fill-7"></path>
            <path d="M47.8062,12.0737 L53.8922,12.0737 L50.9052,3.5037 L50.8222,3.5037 L47.8062,12.0737 Z M49.0352,0.0697 L52.7472,0.0697 L60.4252,20.0027 L56.6842,20.0027 L54.8142,14.7257 L46.8572,14.7257 L44.9872,20.0027 L41.3852,20.0027 L49.0352,0.0697 Z" id="Fill-9"></path>
            <path d="M70.6978,10.3989 C70.5678,9.5049 70.2098,8.8319 69.6238,8.3749 C69.0368,7.9199 68.2978,7.6909 67.4038,7.6909 C66.9948,7.6909 66.5568,7.7599 66.0918,7.8999 C65.6268,8.0399 65.1988,8.2999 64.8068,8.6819 C64.4168,9.0639 64.0908,9.5939 63.8308,10.2729 C63.5698,10.9529 63.4398,11.8409 63.4398,12.9399 C63.4398,13.5359 63.5098,14.1299 63.6488,14.7259 C63.7888,15.3219 64.0118,15.8519 64.3188,16.3179 C64.6268,16.7829 65.0208,17.1599 65.5058,17.4479 C65.9888,17.7369 66.5758,17.8809 67.2638,17.8809 C68.1948,17.8809 68.9628,17.5919 69.5678,17.0149 C70.1728,16.4389 70.5498,15.6289 70.6978,14.5859 L73.8808,14.5859 C73.5828,16.4659 72.8708,17.9049 71.7448,18.8999 C70.6188,19.8959 69.1258,20.3929 67.2638,20.3929 C66.1288,20.3929 65.1288,20.2029 64.2628,19.8209 C63.3978,19.4399 62.6678,18.9189 62.0718,18.2579 C61.4758,17.5969 61.0248,16.8109 60.7178,15.8989 C60.4108,14.9869 60.2578,14.0009 60.2578,12.9399 C60.2578,11.8599 60.4058,10.8449 60.7038,9.8959 C61.0018,8.9469 61.4478,8.1239 62.0438,7.4249 C62.6388,6.7279 63.3788,6.1789 64.2628,5.7789 C65.1468,5.3789 66.1848,5.1789 67.3758,5.1789 C68.2138,5.1789 69.0098,5.2859 69.7628,5.4999 C70.5168,5.7139 71.1868,6.0349 71.7728,6.4619 C72.3588,6.8909 72.8388,7.4299 73.2108,8.0819 C73.5828,8.7339 73.8058,9.5049 73.8808,10.3989 L70.6978,10.3989 Z" id="Fill-11"></path>
            <path d="M88.231,20.0024 L85.104,20.0024 L85.104,17.9924 L85.048,17.9924 C84.658,18.7184 84.076,19.3004 83.303,19.7374 C82.531,20.1744 81.745,20.3934 80.945,20.3934 C79.046,20.3934 77.673,19.9234 76.827,18.9834 C75.98,18.0444 75.556,16.6244 75.556,14.7264 L75.556,5.5694 L78.739,5.5694 L78.739,14.4194 C78.739,15.6854 78.981,16.5784 79.465,17.0994 C79.949,17.6204 80.627,17.8814 81.502,17.8814 C82.173,17.8814 82.731,17.7784 83.178,17.5734 C83.625,17.3694 83.988,17.0954 84.267,16.7504 C84.546,16.4054 84.746,15.9914 84.867,15.5084 C84.988,15.0234 85.048,14.5024 85.048,13.9444 L85.048,5.5694 L88.231,5.5694 L88.231,20.0024 Z" id="Fill-13"></path>
            <path d="M91.665,20.002 L94.848,20.002 L94.848,5.569 L91.665,5.569 L91.665,20.002 Z M91.665,3.085 L94.848,3.085 L94.848,0.07 L91.665,0.07 L91.665,3.085 Z" id="Fill-15"></path>
            <path d="M96.858,5.5693 L99.258,5.5693 L99.258,1.2423 L102.441,1.2423 L102.441,5.5693 L105.317,5.5693 L105.317,7.9423 L102.441,7.9423 L102.441,15.6483 C102.441,15.9833 102.456,16.2713 102.483,16.5133 C102.511,16.7553 102.576,16.9593 102.678,17.1273 C102.781,17.2943 102.934,17.4203 103.139,17.5043 C103.343,17.5873 103.623,17.6293 103.977,17.6293 C104.2,17.6293 104.423,17.6253 104.647,17.6153 C104.87,17.6073 105.093,17.5733 105.317,17.5183 L105.317,19.9753 C104.963,20.0123 104.619,20.0493 104.284,20.0863 C103.949,20.1233 103.604,20.1423 103.251,20.1423 C102.414,20.1423 101.739,20.0633 101.227,19.9043 C100.714,19.7463 100.315,19.5143 100.026,19.2063 C99.738,18.9003 99.543,18.5143 99.44,18.0483 C99.337,17.5833 99.277,17.0533 99.258,16.4573 L99.258,7.9423 L96.858,7.9423 L96.858,5.5693 Z" id="Fill-17"></path>
            <path d="M105.8746,5.5693 L109.3636,5.5693 L113.1336,16.3453 L113.1886,16.3453 L116.8466,5.5693 L120.1686,5.5693 L114.5576,20.7843 C114.2956,21.4363 114.0406,22.0593 113.7886,22.6543 C113.5376,23.2503 113.2306,23.7763 112.8676,24.2323 C112.5046,24.6883 112.0536,25.0513 111.5146,25.3203 C110.9746,25.5903 110.2856,25.7263 109.4476,25.7263 C108.7036,25.7263 107.9686,25.6703 107.2426,25.5583 L107.2426,22.8783 C107.5026,22.9153 107.7546,22.9573 107.9956,23.0033 C108.2376,23.0503 108.4886,23.0733 108.7496,23.0733 C109.1216,23.0733 109.4296,23.0273 109.6716,22.9343 C109.9126,22.8403 110.1126,22.7053 110.2706,22.5283 C110.4296,22.3523 110.5646,22.1433 110.6766,21.9013 C110.7876,21.6583 110.8906,21.3793 110.9826,21.0643 L111.3466,19.9463 L105.8746,5.5693 Z" id="Fill-18"></path>
            <path d="M143.7935,9.8403 C145.1145,9.8403 146.1855,9.5053 147.0035,8.8353 C147.8225,8.1653 148.2315,7.1423 148.2315,5.7643 C148.2315,4.3873 147.8225,3.3633 147.0035,2.6943 C146.1855,2.0243 145.1145,1.6893 143.7935,1.6893 L137.2605,1.6893 L137.2605,9.8403 L143.7935,9.8403 Z M144.2125,0.0693 C145.1055,0.0693 145.9155,0.1953 146.6415,0.4463 C147.3665,0.6973 147.9895,1.0703 148.5115,1.5633 C149.0325,2.0563 149.4335,2.6563 149.7115,3.3633 C149.9905,4.0713 150.1305,4.8713 150.1305,5.7643 C150.1305,6.6573 149.9905,7.4583 149.7115,8.1653 C149.4335,8.8733 149.0325,9.4733 148.5115,9.9663 C147.9895,10.4593 147.3665,10.8313 146.6415,11.0823 C145.9155,11.3343 145.1055,11.4593 144.2125,11.4593 L137.2605,11.4593 L137.2605,20.0023 L135.3615,20.0023 L135.3615,0.0693 L144.2125,0.0693 Z" id="Fill-19"></path>
            <path d="M162.6656,20.0024 L162.6656,17.4064 L162.6096,17.4064 C162.1446,18.3744 161.4696,19.1134 160.5856,19.6254 C159.7016,20.1374 158.7196,20.3934 157.6406,20.3934 C156.7286,20.3934 155.9516,20.2684 155.3096,20.0174 C154.6666,19.7654 154.1456,19.4074 153.7456,18.9414 C153.3456,18.4774 153.0526,17.9084 152.8666,17.2384 C152.6806,16.5684 152.5876,15.8064 152.5876,14.9494 L152.5876,5.5974 L154.3466,5.5974 L154.3466,14.9774 C154.3836,16.2804 154.6856,17.2674 155.2536,17.9374 C155.8206,18.6064 156.8026,18.9414 158.1986,18.9414 C158.9616,18.9414 159.6126,18.7784 160.1526,18.4534 C160.6926,18.1274 161.1396,17.6944 161.4926,17.1544 C161.8466,16.6154 162.1066,15.9964 162.2746,15.2984 C162.4416,14.6014 162.5256,13.8894 162.5256,13.1624 L162.5256,5.5974 L164.2846,5.5974 L164.2846,20.0024 L162.6656,20.0024 Z" id="Fill-20"></path>
            <polygon id="Fill-21" points="167.634 20.002 169.393 20.002 169.393 0.069 167.634 0.069"></polygon>
            <path d="M181.0631,8.4028 C180.8581,8.0028 180.5841,7.6728 180.2401,7.4118 C179.8951,7.1508 179.5001,6.9608 179.0531,6.8398 C178.6061,6.7178 178.1311,6.6578 177.6291,6.6578 C177.2381,6.6578 176.8421,6.6998 176.4431,6.7838 C176.0421,6.8678 175.6741,7.0068 175.3391,7.2028 C175.0041,7.3978 174.7351,7.6538 174.5301,7.9698 C174.3251,8.2868 174.2231,8.6768 174.2231,9.1428 C174.2231,9.5338 174.3211,9.8638 174.5161,10.1328 C174.7111,10.4038 174.9591,10.6318 175.2561,10.8178 C175.5531,11.0048 175.8791,11.1578 176.2331,11.2788 C176.5861,11.3998 176.9131,11.4978 177.2101,11.5718 L179.5551,12.1018 C180.0581,12.1758 180.5551,12.3108 181.0491,12.5068 C181.5421,12.7028 181.9791,12.9588 182.3611,13.2748 C182.7431,13.5908 183.0541,13.9818 183.2961,14.4468 C183.5381,14.9128 183.6601,15.4618 183.6601,16.0938 C183.6601,16.8758 183.4821,17.5418 183.1281,18.0908 C182.7751,18.6388 182.3241,19.0868 181.7751,19.4298 C181.2251,19.7748 180.6071,20.0208 179.9181,20.1708 C179.2291,20.3188 178.5501,20.3928 177.8801,20.3928 C176.1861,20.3928 174.8141,19.9938 173.7621,19.1928 C172.7101,18.3928 172.1111,17.1088 171.9611,15.3398 L173.7201,15.3398 C173.7941,16.5318 174.2271,17.4298 175.0191,18.0348 C175.8091,18.6388 176.7921,18.9418 177.9641,18.9418 C178.3921,18.9418 178.8341,18.8958 179.2911,18.8018 C179.7461,18.7098 180.1691,18.5508 180.5601,18.3278 C180.9521,18.1038 181.2721,17.8208 181.5241,17.4758 C181.7751,17.1318 181.9001,16.7088 181.9001,16.2058 C181.9001,15.7778 181.8121,15.4198 181.6351,15.1318 C181.4591,14.8418 181.2211,14.6008 180.9231,14.4048 C180.6261,14.2098 180.2861,14.0478 179.9041,13.9168 C179.5231,13.7868 179.1361,13.6748 178.7461,13.5818 L176.4841,13.0788 C175.9071,12.9298 175.3761,12.7578 174.8931,12.5628 C174.4091,12.3668 173.9861,12.1258 173.6231,11.8368 C173.2601,11.5488 172.9761,11.1948 172.7711,10.7758 C172.5661,10.3568 172.4641,9.8398 172.4641,9.2258 C172.4641,8.5008 172.6261,7.8778 172.9531,7.3558 C173.2781,6.8358 173.7021,6.4168 174.2231,6.0998 C174.7441,5.7838 175.3261,5.5508 175.9681,5.4018 C176.6101,5.2528 177.2481,5.1788 177.8801,5.1788 C178.6061,5.1788 179.2811,5.2718 179.9041,5.4578 C180.5281,5.6438 181.0771,5.9318 181.5511,6.3228 C182.0261,6.7138 182.4031,7.1978 182.6821,7.7748 C182.9611,8.3518 183.1201,9.0308 183.1571,9.8128 L181.3981,9.8128 C181.3791,9.2728 181.2671,8.8028 181.0631,8.4028" id="Fill-22"></path>
            <path d="M196.2076,9.8686 C195.9936,9.2546 195.6906,8.7096 195.3006,8.2346 C194.9096,7.7606 194.4356,7.3796 193.8766,7.0906 C193.3176,6.8026 192.6856,6.6576 191.9786,6.6576 C191.2526,6.6576 190.6096,6.8026 190.0516,7.0906 C189.4936,7.3796 189.0196,7.7606 188.6276,8.2346 C188.2366,8.7096 187.9256,9.2596 187.6926,9.8826 C187.4596,10.5066 187.3066,11.1436 187.2316,11.7946 L196.5566,11.7946 C196.5376,11.1246 196.4216,10.4826 196.2076,9.8686 M187.4976,15.2426 C187.6746,15.9226 187.9576,16.5316 188.3496,17.0716 C188.7396,17.6116 189.2326,18.0576 189.8286,18.4116 C190.4236,18.7646 191.1406,18.9416 191.9786,18.9416 C193.2626,18.9416 194.2676,18.6066 194.9926,17.9366 C195.7196,17.2666 196.2216,16.3736 196.5006,15.2566 L198.2596,15.2566 C197.8876,16.8946 197.2026,18.1596 196.2076,19.0536 C195.2116,19.9466 193.8026,20.3926 191.9786,20.3926 C190.8426,20.3926 189.8606,20.1926 189.0326,19.7936 C188.2046,19.3926 187.5296,18.8446 187.0086,18.1456 C186.4876,17.4476 186.1016,16.6386 185.8506,15.7176 C185.5996,14.7966 185.4736,13.8236 185.4736,12.8006 C185.4736,11.8506 185.5996,10.9206 185.8506,10.0086 C186.1016,9.0966 186.4876,8.2816 187.0086,7.5646 C187.5296,6.8486 188.2046,6.2716 189.0326,5.8346 C189.8606,5.3976 190.8426,5.1786 191.9786,5.1786 C193.1316,5.1786 194.1176,5.4116 194.9366,5.8766 C195.7566,6.3416 196.4216,6.9506 196.9336,7.7046 C197.4446,8.4586 197.8126,9.3236 198.0366,10.3016 C198.2596,11.2786 198.3526,12.2686 198.3146,13.2746 L187.2316,13.2746 C187.2316,13.9076 187.3196,14.5636 187.4976,15.2426" id="Fill-23"></path>
        </g>
    </g>
</svg>