<?xml version="1.0" encoding="UTF-8"?>
<svg width="138px" height="32px" viewBox="0 0 138 32" version="1.1" xmlns="http://www.w3.org/2000/svg" xmlns:xlink="http://www.w3.org/1999/xlink">
    <!-- Generator: Sketch 48.2 (47327) - http://www.bohemiancoding.com/sketch -->
    <title>Page 1</title>
    <desc>Created with Sketch.</desc>
    <defs></defs>
    <g id="Illustration/GeoMprint-Copy" stroke="none" stroke-width="1" fill="none" fill-rule="evenodd" transform="translate(-97.000000, -81.000000)">
        <g id="Page-1" transform="translate(97.000000, 81.000000)" fill="#FFFFFF">
            <path d="M12.2134,18.8545 C12.2344,18.8555 12.2564,18.8565 12.2774,18.8565 C12.2574,18.8555 12.2344,18.8555 12.2134,18.8545 Z" id="Fill-1"></path>
            <polygon id="Fill-3" points="59.0679 3.7954 63.7259 3.7954 68.8879 12.1014 74.0509 3.7954 78.7099 3.7954 78.7099 23.4374 74.4439 23.4374 74.4439 10.6134 68.9169 19.0034 68.8039 19.0034 63.3329 10.6984 63.3329 23.4374 59.0679 23.4374"></polygon>
            <path d="M87.8462,20.0986 C88.3512,20.0986 88.8242,19.9996 89.2632,19.8036 C89.7022,19.6066 90.0912,19.3266 90.4272,18.9616 C90.7642,18.5966 91.0312,18.1616 91.2272,17.6576 C91.4232,17.1516 91.5222,16.5816 91.5222,15.9456 L91.5222,15.8896 C91.5222,15.2716 91.4232,14.7066 91.2272,14.1916 C91.0312,13.6776 90.7642,13.2376 90.4272,12.8726 C90.0912,12.5076 89.7022,12.2266 89.2632,12.0316 C88.8242,11.8346 88.3512,11.7366 87.8462,11.7366 C87.3402,11.7366 86.8682,11.8346 86.4292,12.0316 C85.9892,12.2266 85.6052,12.5076 85.2782,12.8726 C84.9502,13.2376 84.6892,13.6776 84.4922,14.1916 C84.2962,14.7066 84.1982,15.2716 84.1982,15.8896 L84.1982,15.9456 C84.1982,16.5626 84.2962,17.1286 84.4922,17.6426 C84.6892,18.1576 84.9502,18.5966 85.2782,18.9616 C85.6052,19.3266 85.9892,19.6066 86.4292,19.8036 C86.8682,19.9996 87.3402,20.0986 87.8462,20.0986 Z M79.9892,8.3966 L84.2542,8.3966 L84.2542,10.5576 C84.7782,9.8476 85.4082,9.2626 86.1482,8.8046 C86.8872,8.3466 87.8182,8.1166 88.9402,8.1166 C89.8202,8.1166 90.6702,8.2856 91.4932,8.6216 C92.3172,8.9576 93.0452,9.4586 93.6822,10.1226 C94.3182,10.7866 94.8272,11.6006 95.2112,12.5636 C95.5942,13.5276 95.7862,14.6366 95.7862,15.8896 L95.7862,15.9456 C95.7862,17.1996 95.5942,18.3066 95.2112,19.2706 C94.8272,20.2346 94.3232,21.0476 93.6972,21.7116 C93.0692,22.3756 92.3442,22.8766 91.5222,23.2126 C90.6982,23.5506 89.8372,23.7186 88.9402,23.7186 C87.7992,23.7186 86.8592,23.4936 86.1202,23.0446 C85.3812,22.5966 84.7592,22.0716 84.2542,21.4736 L84.2542,27.9276 L79.9892,27.9276 L79.9892,8.3966 Z" id="Fill-5"></path>
            <path d="M97.0298,8.3969 L101.2948,8.3969 L101.2948,11.4279 C101.7238,10.3989 102.3138,9.5759 103.0618,8.9579 C103.8098,8.3409 104.8198,8.0599 106.0928,8.1159 L106.0928,12.5779 L105.8678,12.5779 C104.4468,12.5779 103.3288,13.0089 102.5148,13.8689 C101.7008,14.7299 101.2948,16.0669 101.2948,17.8819 L101.2948,23.4369 L97.0298,23.4369 L97.0298,8.3969 Z" id="Fill-7"></path>
            <polygon id="Fill-9" points="107.327 23.437 111.592 23.437 111.592 8.397 107.327 8.397"></polygon>
            <path d="M112.8891,8.3969 L117.1551,8.3969 L117.1551,10.5469 C117.3981,10.2269 117.6631,9.9209 117.9541,9.6289 C118.2441,9.3369 118.5671,9.0779 118.9221,8.8519 C119.2771,8.6259 119.6701,8.4469 120.1011,8.3149 C120.5311,8.1829 121.0171,8.1159 121.5601,8.1159 C123.1871,8.1159 124.4451,8.6129 125.3341,9.6039 C126.2221,10.5959 126.6661,11.9609 126.6661,13.6999 L126.6661,23.4369 L122.4021,23.4369 L122.4021,15.0679 C122.4021,14.0609 122.1771,13.2999 121.7291,12.7869 C121.2801,12.2739 120.6431,12.0169 119.8201,12.0169 C118.9961,12.0169 118.3471,12.2739 117.8701,12.7869 C117.3931,13.2999 117.1551,14.0609 117.1551,15.0679 L117.1551,23.4369 L112.8891,23.4369 L112.8891,8.3969 Z" id="Fill-11"></path>
            <path d="M134.0923,23.6899 C133.4373,23.6899 132.8443,23.6199 132.3113,23.4789 C131.7773,23.3389 131.3193,23.0909 130.9353,22.7359 C130.5513,22.3809 130.2523,21.9179 130.0373,21.3469 C129.8223,20.7759 129.7143,20.0519 129.7143,19.1719 L129.7143,12.0449 L127.9183,12.0449 L127.9183,8.3969 L129.7143,8.3969 L129.7143,4.5529 L133.9803,4.5529 L133.9803,8.3969 L137.5153,8.3969 L137.5153,12.0449 L133.9803,12.0449 L133.9803,18.4939 C133.9803,19.4699 134.4383,19.9579 135.3553,19.9579 C136.1033,19.9579 136.8043,19.7719 137.4593,19.3969 L137.4593,22.8199 C137.0103,23.0829 136.5143,23.2929 135.9723,23.4519 C135.4293,23.6099 134.8033,23.6899 134.0923,23.6899" id="Fill-12"></path>
            <path d="M36.5102,14.7041 C36.3792,13.7501 36.0422,12.9781 35.5002,12.3891 C34.9572,11.8001 34.2382,11.5051 33.3392,11.5051 C32.4422,11.5051 31.7162,11.7951 31.1642,12.3751 C30.6132,12.9551 30.2532,13.7321 30.0842,14.7041 L36.5102,14.7041 Z M33.7602,23.7401 C32.6382,23.7401 31.5952,23.5521 30.6322,23.1781 C29.6682,22.8041 28.8362,22.2721 28.1342,21.5791 C27.4332,20.8871 26.8862,20.0681 26.4932,19.1231 C26.1002,18.1791 25.9042,17.1271 25.9042,15.9671 L25.9042,15.9111 C25.9042,14.8451 26.0862,13.8341 26.4502,12.8801 C26.8162,11.9261 27.3252,11.0941 27.9802,10.3831 C28.6342,9.6721 29.4152,9.1111 30.3232,8.7001 C31.2312,8.2881 32.2362,8.0821 33.3392,8.0821 C34.5932,8.0821 35.6782,8.3071 36.5942,8.7561 C37.5112,9.2041 38.2732,9.8081 38.8812,10.5651 C39.4892,11.3231 39.9382,12.1931 40.2282,13.1751 C40.5182,14.1571 40.6632,15.1821 40.6632,16.2471 C40.6632,16.4161 40.6582,16.5941 40.6502,16.7811 C40.6392,16.9681 40.6252,17.1641 40.6072,17.3701 L30.1412,17.3701 C30.3462,18.3431 30.7722,19.0771 31.4172,19.5731 C32.0632,20.0681 32.8632,20.3161 33.8172,20.3161 C34.5282,20.3161 35.1632,20.1951 35.7242,19.9521 C36.2852,19.7081 36.8652,19.3151 37.4642,18.7731 L39.9062,20.9331 C39.1952,21.8131 38.3342,22.5001 37.3242,22.9961 C36.3142,23.4921 35.1262,23.7401 33.7602,23.7401 Z" id="Fill-13"></path>
            <path d="M49.9126,20.0634 C50.5306,20.0634 51.0776,19.9564 51.5546,19.7414 C52.0316,19.5254 52.4376,19.2314 52.7746,18.8564 C53.1116,18.4834 53.3686,18.0484 53.5466,17.5524 C53.7246,17.0574 53.8126,16.5284 53.8126,15.9674 L53.8126,15.9114 C53.8126,15.3494 53.7196,14.8214 53.5326,14.3254 C53.3456,13.8304 53.0736,13.3904 52.7196,13.0064 C52.3636,12.6234 51.9416,12.3194 51.4556,12.0944 C50.9696,11.8704 50.4356,11.7574 49.8566,11.7574 C49.2396,11.7574 48.6916,11.8654 48.2156,12.0804 C47.7386,12.2954 47.3316,12.5904 46.9946,12.9644 C46.6576,13.3384 46.4006,13.7734 46.2236,14.2694 C46.0446,14.7654 45.9566,15.2934 45.9566,15.8554 L45.9566,15.9114 C45.9566,16.4724 46.0496,17.0004 46.2366,17.4964 C46.4236,17.9924 46.6946,18.4324 47.0506,18.8154 C47.4056,19.1984 47.8216,19.5024 48.2996,19.7274 C48.7756,19.9514 49.3136,20.0634 49.9126,20.0634 M49.8566,23.7394 C48.6966,23.7394 47.6206,23.5384 46.6296,23.1364 C45.6386,22.7334 44.7816,22.1824 44.0616,21.4804 C43.3416,20.7784 42.7756,19.9564 42.3646,19.0114 C41.9526,18.0674 41.7476,17.0524 41.7476,15.9674 L41.7476,15.9114 C41.7476,14.8264 41.9526,13.8114 42.3646,12.8664 C42.7756,11.9214 43.3466,11.0944 44.0766,10.3834 C44.8066,9.6724 45.6666,9.1114 46.6576,8.6994 C47.6486,8.2884 48.7336,8.0824 49.9126,8.0824 C51.0726,8.0824 52.1476,8.2834 53.1406,8.6854 C54.1316,9.0874 54.9866,9.6394 55.7066,10.3404 C56.4276,11.0424 56.9926,11.8654 57.4046,12.8104 C57.8156,13.7544 58.0216,14.7704 58.0216,15.8554 L58.0216,15.9114 C58.0216,16.9964 57.8156,18.0114 57.4046,18.9554 C56.9926,19.9004 56.4226,20.7284 55.6926,21.4384 C54.9636,22.1494 54.1026,22.7104 53.1116,23.1224 C52.1196,23.5334 51.0346,23.7394 49.8566,23.7394" id="Fill-14"></path>
            <path d="M24.4292,9.7793 L24.3942,9.8023 C23.5592,12.9283 21.6192,15.5303 18.8702,17.1393 C17.1582,18.1403 15.1482,18.8363 13.0302,18.8673 C12.9392,18.8703 12.8502,18.8803 12.7582,18.8803 C12.5942,18.8803 12.4372,18.8673 12.2782,18.8573 C12.2562,18.8563 12.2352,18.8553 12.2132,18.8543 C12.1252,18.8483 12.0372,18.8433 11.9512,18.8353 C11.2632,18.7603 10.6202,18.5913 10.0282,18.3213 C9.2072,17.9493 8.4942,17.4433 7.8882,16.8043 C7.2822,16.1663 6.8132,15.4213 6.4832,14.5693 C6.1532,13.7173 5.9882,12.8133 5.9882,11.8553 L5.9882,11.7903 C5.9882,11.1283 6.0722,10.4943 6.2312,9.8873 C5.8632,11.1733 5.5992,12.4363 5.5992,13.8403 C5.5772,17.9833 7.3512,20.8113 7.3512,20.8113 L8.1912,22.1483 C8.3332,22.3583 8.4712,22.5363 8.6242,22.7383 C8.6382,22.7423 8.6602,22.7753 8.6742,22.7793 L12.7262,31.6023 L16.7952,22.7563 C17.0232,22.6793 17.2472,22.5963 17.4682,22.5043 C18.9252,21.8983 20.1822,21.0673 21.2372,20.0133 C22.2902,18.9603 23.1152,17.7363 23.7102,16.3413 C24.0402,15.5703 24.2702,14.7643 24.4162,13.9303 C24.5362,13.2583 24.6052,12.5683 24.6052,11.8553 L24.6052,11.7903 C24.6052,11.1003 24.5392,10.4313 24.4292,9.7793" id="Fill-15"></path>
            <path d="M21.2681,3.664 C20.4061,2.82 19.4051,2.125 18.2801,1.566 C18.0291,1.441 17.7791,1.316 17.5161,1.205 C16.0681,0.599 14.4821,0.295 12.7581,0.295 C11.0341,0.295 9.4421,0.599 7.9841,1.205 C7.9001,1.24 7.8241,1.283 7.7421,1.319 C9.4061,2.161 11.2821,1.83 12.8291,2.58 C15.0881,3.676 16.9561,5.403 18.1381,7.612 L22.0621,4.536 C21.8131,4.233 21.5501,3.941 21.2681,3.664" id="Fill-16"></path>
            <path d="M12.7261,9.7793 L12.7261,13.9303 L19.1961,13.9303 C19.1311,14.1633 19.0571,14.3923 18.9691,14.6173 C18.6381,15.4583 18.1811,16.1973 17.5961,16.8363 C17.0101,17.4753 16.3021,17.9753 15.4721,18.3373 C14.7201,18.6663 13.9041,18.8363 13.0301,18.8673 C15.1481,18.8363 17.1311,18.2513 18.8421,17.2503 C21.5911,15.6413 23.6651,12.9603 24.4291,9.7793 L12.7261,9.7793 Z" id="Fill-17"></path>
            <path d="M12.8501,2.5088 C12.4971,2.3378 12.1341,2.1838 11.7641,2.0478 C10.5081,1.5858 9.1561,1.3268 7.7421,1.3198 C6.3891,1.9158 5.2091,2.7028 4.2151,3.6958 C3.1621,4.7498 2.3371,5.9738 1.7411,7.3678 C1.4961,7.9398 1.3151,8.5328 1.1701,9.1388 C0.9631,10.0098 0.8471,10.9128 0.8471,11.8548 L0.8471,11.9188 C0.8471,13.5158 1.1391,15.0118 1.7251,16.4048 C2.3101,17.8008 3.1301,19.0138 4.1841,20.0458 C5.2381,21.0788 6.4881,21.8988 7.9361,22.5048 C8.1641,22.5998 8.4381,22.6998 8.6741,22.7788 C6.8121,20.3248 5.6641,17.2518 5.6641,13.9338 C5.6641,12.5298 5.8631,11.1728 6.2311,9.8878 C6.2831,9.6938 6.3411,9.5028 6.4081,9.3148 C6.4111,9.3088 6.5621,8.9168 6.5961,8.8388 C6.9151,8.1038 7.3311,7.4458 7.8561,6.8738 C8.4411,6.2348 9.1441,5.7348 9.9631,5.3718 C10.7831,5.0108 11.6941,4.8298 12.6941,4.8298 C13.6721,4.8298 14.5781,5.0158 15.4081,5.3888 C16.2391,5.7608 16.9571,6.2668 17.5641,6.9048 C17.7741,7.1268 17.9611,7.3648 18.1381,7.6128 L18.1561,7.5978 C16.9731,5.3898 15.1101,3.6038 12.8501,2.5088" id="Fill-18"></path>
        </g>
    </g>
</svg>