<?xml version="1.0" encoding="UTF-8"?>
<svg width="197px" height="27px" viewBox="0 0 197 27" version="1.1" xmlns="http://www.w3.org/2000/svg" xmlns:xlink="http://www.w3.org/1999/xlink">
    <!-- Generator: Sketch 48.2 (47327) - http://www.bohemiancoding.com/sketch -->
    <title>Page 1</title>
    <desc>Created with Sketch.</desc>
    <defs></defs>
    <g id="Illustration/Net-Acuity-Edge-Copy" stroke="none" stroke-width="1" fill="none" fill-rule="evenodd" transform="translate(-68.000000, -84.000000)">
        <g id="Page-1" transform="translate(68.000000, 84.000000)">
            <polygon id="Fill-1" fill="#FFFFFF" points="150.2188 0.8842 150.2188 2.5032 138.3538 2.5032 138.3538 9.7062 149.4648 9.7062 149.4648 11.3252 138.3538 11.3252 138.3538 19.1982 150.3588 19.1982 150.3588 20.8172 136.4548 20.8172 136.4548 0.8842"></polygon>
            <path d="M154.085,15.8339 C154.262,16.5689 154.541,17.2259 154.923,17.8019 C155.304,18.3789 155.792,18.8489 156.388,19.2119 C156.983,19.5749 157.7,19.7559 158.538,19.7559 C159.468,19.7559 160.255,19.5749 160.897,19.2119 C161.539,18.8489 162.06,18.3789 162.46,17.8019 C162.86,17.2259 163.148,16.5689 163.326,15.8339 C163.502,15.0989 163.591,14.3589 163.591,13.6149 C163.591,12.8709 163.502,12.1299 163.326,11.3949 C163.148,10.6599 162.86,10.0039 162.46,9.4269 C162.06,8.8499 161.539,8.3799 160.897,8.0169 C160.255,7.6539 159.468,7.4729 158.538,7.4729 C157.7,7.4729 156.983,7.6539 156.388,8.0169 C155.792,8.3799 155.304,8.8499 154.923,9.4269 C154.541,10.0039 154.262,10.6599 154.085,11.3949 C153.908,12.1299 153.819,12.8709 153.819,13.6149 C153.819,14.3589 153.908,15.0989 154.085,15.8339 Z M163.731,20.8169 L163.731,18.0819 L163.675,18.0819 C163.488,18.5469 163.214,18.9749 162.852,19.3659 C162.488,19.7559 162.074,20.0869 161.608,20.3569 C161.144,20.6269 160.646,20.8359 160.115,20.9849 C159.585,21.1339 159.059,21.2089 158.538,21.2089 C157.439,21.2089 156.486,21.0079 155.676,20.6079 C154.866,20.2079 154.191,19.6589 153.652,18.9609 C153.112,18.2629 152.712,17.4529 152.452,16.5319 C152.19,15.6109 152.061,14.6379 152.061,13.6149 C152.061,12.5909 152.19,11.6189 152.452,10.6969 C152.712,9.7759 153.112,8.9659 153.652,8.2689 C154.191,7.5699 154.866,7.0169 155.676,6.6069 C156.486,6.1979 157.439,5.9929 158.538,5.9929 C159.077,5.9929 159.604,6.0589 160.115,6.1879 C160.627,6.3189 161.106,6.5189 161.553,6.7889 C162,7.0589 162.395,7.3889 162.739,7.7799 C163.084,8.1699 163.349,8.6269 163.535,9.1479 L163.591,9.1479 L163.591,0.8839 L165.35,0.8839 L165.35,20.8169 L163.731,20.8169 Z" id="Fill-2" fill="#FFFFFF"></path>
            <path d="M176.4883,18.6816 C177.0653,18.3566 177.5503,17.9276 177.9403,17.3976 C178.3313,16.8676 178.6243,16.2576 178.8193,15.5686 C179.0143,14.8806 179.1133,14.1726 179.1133,13.4476 C179.1133,12.7396 179.0293,12.0326 178.8613,11.3256 C178.6943,10.6186 178.4243,9.9756 178.0513,9.3986 C177.6793,8.8226 177.2003,8.3566 176.6143,8.0026 C176.0283,7.6496 175.3163,7.4726 174.4783,7.4726 C173.6403,7.4726 172.9243,7.6446 172.3293,7.9896 C171.7333,8.3336 171.2403,8.7846 170.8493,9.3436 C170.4583,9.9016 170.1753,10.5386 169.9983,11.2556 C169.8203,11.9726 169.7323,12.7026 169.7323,13.4476 C169.7323,14.1726 169.8253,14.8806 170.0113,15.5686 C170.1973,16.2576 170.4863,16.8676 170.8773,17.3976 C171.2673,17.9276 171.7603,18.3566 172.3563,18.6816 C172.9523,19.0076 173.6593,19.1706 174.4783,19.1706 C175.2413,19.1706 175.9113,19.0076 176.4883,18.6816 M180.5223,22.5206 C180.2903,23.3766 179.9233,24.1016 179.4203,24.6976 C178.9173,25.2936 178.2613,25.7496 177.4523,26.0656 C176.6423,26.3826 175.6513,26.5406 174.4783,26.5406 C173.7533,26.5406 173.0453,26.4566 172.3563,26.2896 C171.6683,26.1216 171.0493,25.8606 170.5003,25.5086 C169.9513,25.1536 169.4953,24.7026 169.1323,24.1536 C168.7693,23.6046 168.5593,22.9486 168.5043,22.1856 L170.2623,22.1856 C170.3553,22.7246 170.5373,23.1766 170.8073,23.5396 C171.0773,23.9026 171.4023,24.1956 171.7843,24.4196 C172.1663,24.6416 172.5893,24.8056 173.0543,24.9076 C173.5193,25.0096 173.9943,25.0606 174.4783,25.0606 C176.1163,25.0606 177.2983,24.5956 178.0243,23.6656 C178.7503,22.7336 179.1133,21.3936 179.1133,19.6446 L179.1133,17.6906 L179.0563,17.6906 C178.6473,18.5836 178.0473,19.3006 177.2563,19.8406 C176.4653,20.3806 175.5393,20.6496 174.4783,20.6496 C173.3243,20.6496 172.3383,20.4596 171.5193,20.0776 C170.7003,19.6966 170.0253,19.1706 169.4953,18.4996 C168.9653,17.8296 168.5783,17.0436 168.3373,16.1406 C168.0943,15.2386 167.9733,14.2756 167.9733,13.2516 C167.9733,12.2646 168.1173,11.3296 168.4063,10.4456 C168.6943,9.5616 169.1133,8.7896 169.6633,8.1286 C170.2113,7.4686 170.8903,6.9476 171.7003,6.5656 C172.5103,6.1836 173.4353,5.9936 174.4783,5.9936 C175.0183,5.9936 175.5253,6.0676 176.0003,6.2166 C176.4743,6.3656 176.9073,6.5746 177.2983,6.8446 C177.6893,7.1146 178.0383,7.4266 178.3443,7.7796 C178.6523,8.1336 178.8893,8.5056 179.0563,8.8966 L179.1133,8.8966 L179.1133,6.4116 L180.8723,6.4116 L180.8723,19.6446 C180.8723,20.7056 180.7553,21.6646 180.5223,22.5206" id="Fill-4" fill="#FFFFFF"></path>
            <path d="M194.2305,10.6831 C194.0165,10.0691 193.7135,9.5241 193.3235,9.0501 C192.9325,8.5751 192.4585,8.1941 191.8995,7.9051 C191.3405,7.6171 190.7085,7.4731 190.0015,7.4731 C189.2755,7.4731 188.6325,7.6171 188.0745,7.9051 C187.5165,8.1941 187.0425,8.5751 186.6505,9.0501 C186.2595,9.5241 185.9485,10.0741 185.7155,10.6971 C185.4825,11.3211 185.3295,11.9581 185.2545,12.6091 L194.5795,12.6091 C194.5605,11.9391 194.4445,11.2971 194.2305,10.6831 M185.5205,16.0581 C185.6975,16.7371 185.9805,17.3461 186.3725,17.8861 C186.7625,18.4261 187.2555,18.8721 187.8515,19.2261 C188.4465,19.5801 189.1635,19.7561 190.0015,19.7561 C191.2855,19.7561 192.2905,19.4211 193.0155,18.7511 C193.7425,18.0811 194.2445,17.1881 194.5235,16.0711 L196.2825,16.0711 C195.9105,17.7091 195.2255,18.9751 194.2305,19.8681 C193.2345,20.7621 191.8255,21.2081 190.0015,21.2081 C188.8655,21.2081 187.8835,21.0081 187.0555,20.6081 C186.2275,20.2081 185.5525,19.6591 185.0315,18.9611 C184.5105,18.2631 184.1245,17.4531 183.8735,16.5321 C183.6225,15.6111 183.4965,14.6381 183.4965,13.6151 C183.4965,12.6651 183.6225,11.7351 183.8735,10.8231 C184.1245,9.9111 184.5105,9.0971 185.0315,8.3801 C185.5525,7.6631 186.2275,7.0861 187.0555,6.6491 C187.8835,6.2121 188.8655,5.9931 190.0015,5.9931 C191.1545,5.9931 192.1405,6.2261 192.9595,6.6911 C193.7795,7.1561 194.4445,7.7661 194.9565,8.5191 C195.4675,9.2731 195.8355,10.1391 196.0595,11.1161 C196.2825,12.0931 196.3755,13.0841 196.3375,14.0891 L185.2545,14.0891 C185.2545,14.7221 185.3425,15.3781 185.5205,16.0581" id="Fill-6" fill="#FFFFFF"></path>
            <path d="M126.857,4.4843 C127.017,4.4843 127.169,4.4793 127.312,4.4683 C127.456,4.4583 127.583,4.4283 127.694,4.3793 C127.806,4.3303 127.895,4.2553 127.961,4.1543 C128.028,4.0533 128.061,3.9123 128.061,3.7303 C128.061,3.5773 128.031,3.4543 127.972,3.3633 C127.913,3.2733 127.836,3.2033 127.742,3.1543 C127.647,3.1063 127.539,3.0723 127.417,3.0553 C127.294,3.0373 127.174,3.0283 127.056,3.0283 L126.114,3.0283 L126.114,4.4843 L126.857,4.4843 Z M127.17,2.4533 C127.715,2.4533 128.119,2.5613 128.38,2.7773 C128.642,2.9943 128.773,3.3223 128.773,3.7613 C128.773,4.1733 128.658,4.4753 128.427,4.6673 C128.197,4.8593 127.911,4.9723 127.569,5.0073 L128.878,7.0283 L128.113,7.0283 L126.868,5.0603 L126.114,5.0603 L126.114,7.0283 L125.402,7.0283 L125.402,2.4533 L127.17,2.4533 Z M123.941,6.0593 C124.105,6.4683 124.332,6.8223 124.622,7.1223 C124.912,7.4223 125.253,7.6583 125.648,7.8293 C126.042,8.0003 126.469,8.0853 126.93,8.0853 C127.383,8.0853 127.806,8.0003 128.197,7.8293 C128.587,7.6583 128.928,7.4223 129.217,7.1223 C129.507,6.8223 129.734,6.4683 129.898,6.0593 C130.062,5.6513 130.144,5.2063 130.144,4.7253 C130.144,4.2573 130.062,3.8213 129.898,3.4163 C129.734,3.0113 129.507,2.6613 129.217,2.3643 C128.928,2.0673 128.587,1.8343 128.197,1.6623 C127.806,1.4913 127.383,1.4063 126.93,1.4063 C126.469,1.4063 126.042,1.4913 125.648,1.6623 C125.253,1.8343 124.912,2.0673 124.622,2.3643 C124.332,2.6613 124.105,3.0113 123.941,3.4163 C123.777,3.8213 123.695,4.2573 123.695,4.7253 C123.695,5.2063 123.777,5.6513 123.941,6.0593 Z M123.297,3.1863 C123.506,2.7113 123.791,2.2993 124.151,1.9503 C124.51,1.6013 124.928,1.3273 125.407,1.1293 C125.885,0.9293 126.392,0.8303 126.93,0.8303 C127.467,0.8303 127.973,0.9293 128.448,1.1293 C128.922,1.3273 129.338,1.6013 129.694,1.9503 C130.05,2.2993 130.333,2.7113 130.542,3.1863 C130.752,3.6603 130.856,4.1733 130.856,4.7253 C130.856,5.2903 130.752,5.8123 130.542,6.2903 C130.333,6.7683 130.05,7.1833 129.694,7.5363 C129.338,7.8883 128.922,8.1623 128.448,8.3583 C127.973,8.5533 127.467,8.6513 126.93,8.6513 C126.392,8.6513 125.885,8.5533 125.407,8.3583 C124.928,8.1623 124.51,7.8883 124.151,7.5363 C123.791,7.1833 123.506,6.7683 123.297,6.2903 C123.087,5.8123 122.983,5.2903 122.983,4.7253 C122.983,4.1733 123.087,3.6603 123.297,3.1863 Z" id="Fill-8" fill="#FFFFFF"></path>
            <polygon id="Fill-10" fill="#FFFFFF" points="3.0718 0.8842 14.6858 17.7462 14.7418 17.7462 14.7418 0.8842 16.6398 0.8842 16.6398 20.8172 14.5178 20.8172 2.9048 3.9552 2.8488 3.9552 2.8488 20.8172 0.9508 20.8172 0.9508 0.8842"></polygon>
            <path d="M30.3062,10.6831 C30.0922,10.0691 29.7892,9.5241 29.3992,9.0501 C29.0082,8.5751 28.5342,8.1941 27.9752,7.9051 C27.4162,7.6171 26.7842,7.4731 26.0772,7.4731 C25.3512,7.4731 24.7082,7.6171 24.1502,7.9051 C23.5922,8.1941 23.1182,8.5751 22.7262,9.0501 C22.3352,9.5241 22.0242,10.0741 21.7912,10.6971 C21.5582,11.3211 21.4052,11.9581 21.3302,12.6091 L30.6552,12.6091 C30.6362,11.9391 30.5202,11.2971 30.3062,10.6831 M21.5962,16.0581 C21.7732,16.7371 22.0562,17.3461 22.4482,17.8861 C22.8382,18.4261 23.3312,18.8721 23.9272,19.2261 C24.5222,19.5801 25.2392,19.7561 26.0772,19.7561 C27.3612,19.7561 28.3662,19.4211 29.0912,18.7511 C29.8182,18.0811 30.3202,17.1881 30.5992,16.0711 L32.3582,16.0711 C31.9862,17.7091 31.3012,18.9751 30.3062,19.8681 C29.3102,20.7621 27.9012,21.2081 26.0772,21.2081 C24.9412,21.2081 23.9592,21.0081 23.1312,20.6081 C22.3032,20.2081 21.6282,19.6591 21.1072,18.9611 C20.5862,18.2631 20.2002,17.4531 19.9492,16.5321 C19.6982,15.6111 19.5722,14.6381 19.5722,13.6151 C19.5722,12.6651 19.6982,11.7351 19.9492,10.8231 C20.2002,9.9111 20.5862,9.0971 21.1072,8.3801 C21.6282,7.6631 22.3032,7.0861 23.1312,6.6491 C23.9592,6.2121 24.9412,5.9931 26.0772,5.9931 C27.2302,5.9931 28.2162,6.2261 29.0352,6.6911 C29.8552,7.1561 30.5202,7.7661 31.0322,8.5191 C31.5432,9.2731 31.9112,10.1391 32.1352,11.1161 C32.3582,12.0931 32.4512,13.0841 32.4132,14.0891 L21.3302,14.0891 C21.3302,14.7221 21.4182,15.3781 21.5962,16.0581" id="Fill-12" fill="#FFFFFF"></path>
            <path d="M40.5103,6.4116 L40.5103,7.8916 L37.5783,7.8916 L37.5783,17.6066 C37.5783,18.1836 37.6573,18.6356 37.8163,18.9606 C37.9743,19.2866 38.3693,19.4686 39.0023,19.5056 C39.5053,19.5056 40.0073,19.4776 40.5103,19.4216 L40.5103,20.9016 C40.2493,20.9016 39.9893,20.9106 39.7283,20.9296 C39.4673,20.9476 39.2073,20.9566 38.9473,20.9566 C37.7743,20.9566 36.9543,20.7296 36.4893,20.2726 C36.0253,19.8176 35.8013,18.9746 35.8203,17.7466 L35.8203,7.8916 L33.3073,7.8916 L33.3073,6.4116 L35.8203,6.4116 L35.8203,2.0846 L37.5783,2.0846 L37.5783,6.4116 L40.5103,6.4116 Z" id="Fill-14" fill="#FFFFFF"></path>
            <path d="M48.7173,12.8886 L54.8033,12.8886 L51.8163,4.3176 L51.7333,4.3176 L48.7173,12.8886 Z M49.9463,0.8846 L53.6583,0.8846 L61.3363,20.8176 L57.5953,20.8176 L55.7253,15.5406 L47.7683,15.5406 L45.8983,20.8176 L42.2963,20.8176 L49.9463,0.8846 Z" id="Fill-16" fill="#FFFFFF"></path>
            <path d="M71.6089,11.2138 C71.4789,10.3198 71.1209,9.6458 70.5349,9.1898 C69.9479,8.7338 69.2089,8.5058 68.3149,8.5058 C67.9059,8.5058 67.4679,8.5748 67.0029,8.7148 C66.5379,8.8548 66.1099,9.1148 65.7179,9.4968 C65.3279,9.8788 65.0019,10.4088 64.7419,11.0878 C64.4809,11.7678 64.3509,12.6558 64.3509,13.7548 C64.3509,14.3498 64.4209,14.9448 64.5599,15.5408 C64.6999,16.1368 64.9229,16.6668 65.2299,17.1318 C65.5379,17.5978 65.9319,17.9748 66.4169,18.2628 C66.8999,18.5518 67.4869,18.6958 68.1749,18.6958 C69.1059,18.6958 69.8739,18.4068 70.4789,17.8298 C71.0839,17.2538 71.4609,16.4438 71.6089,15.4008 L74.7919,15.4008 C74.4939,17.2808 73.7819,18.7188 72.6559,19.7148 C71.5299,20.7108 70.0369,21.2088 68.1749,21.2088 C67.0399,21.2088 66.0399,21.0168 65.1739,20.6358 C64.3089,20.2548 63.5789,19.7338 62.9829,19.0728 C62.3869,18.4118 61.9359,17.6258 61.6289,16.7138 C61.3219,15.8018 61.1689,14.8148 61.1689,13.7548 C61.1689,12.6748 61.3169,11.6598 61.6149,10.7108 C61.9129,9.7618 62.3589,8.9388 62.9549,8.2398 C63.5499,7.5428 64.2899,6.9938 65.1739,6.5928 C66.0579,6.1928 67.0959,5.9928 68.2869,5.9928 C69.1249,5.9928 69.9209,6.0998 70.6739,6.3138 C71.4279,6.5278 72.0979,6.8488 72.6839,7.2768 C73.2699,7.7058 73.7499,8.2448 74.1219,8.8968 C74.4939,9.5478 74.7169,10.3198 74.7919,11.2138 L71.6089,11.2138 Z" id="Fill-18" fill="#FFFFFF"></path>
            <path d="M89.1421,20.8173 L86.0151,20.8173 L86.0151,18.8073 L85.9591,18.8073 C85.5691,19.5333 84.9871,20.1153 84.2141,20.5523 C83.4421,20.9893 82.6561,21.2083 81.8561,21.2083 C79.9571,21.2083 78.5841,20.7383 77.7381,19.7983 C76.8911,18.8593 76.4671,17.4393 76.4671,15.5413 L76.4671,6.3833 L79.6501,6.3833 L79.6501,15.2343 C79.6501,16.4993 79.8921,17.3933 80.3761,17.9143 C80.8601,18.4353 81.5381,18.6953 82.4131,18.6953 C83.0841,18.6953 83.6421,18.5933 84.0891,18.3883 C84.5361,18.1843 84.8991,17.9093 85.1781,17.5653 C85.4571,17.2203 85.6571,16.8063 85.7781,16.3223 C85.8991,15.8383 85.9591,15.3173 85.9591,14.7593 L85.9591,6.3833 L89.1421,6.3833 L89.1421,20.8173 Z" id="Fill-20" fill="#FFFFFF"></path>
            <path d="M92.576,20.818 L95.759,20.818 L95.759,6.384 L92.576,6.384 L92.576,20.818 Z M92.576,3.899 L95.759,3.899 L95.759,0.884 L92.576,0.884 L92.576,3.899 Z" id="Fill-22" fill="#FFFFFF"></path>
            <path d="M97.7691,6.3838 L100.1691,6.3838 L100.1691,2.0568 L103.3521,2.0568 L103.3521,6.3838 L106.2281,6.3838 L106.2281,8.7568 L103.3521,8.7568 L103.3521,16.4628 C103.3521,16.7978 103.3671,17.0858 103.3941,17.3278 C103.4221,17.5698 103.4871,17.7748 103.5891,17.9418 C103.6921,18.1098 103.8451,18.2348 104.0501,18.3188 C104.2541,18.4028 104.5341,18.4448 104.8881,18.4448 C105.1111,18.4448 105.3341,18.4398 105.5581,18.4298 C105.7811,18.4218 106.0041,18.3888 106.2281,18.3328 L106.2281,20.7898 C105.8741,20.8268 105.5301,20.8638 105.1951,20.9018 C104.8601,20.9378 104.5151,20.9568 104.1621,20.9568 C103.3251,20.9568 102.6501,20.8778 102.1381,20.7198 C101.6251,20.5618 101.2261,20.3288 100.9371,20.0218 C100.6491,19.7148 100.4541,19.3288 100.3511,18.8628 C100.2481,18.3978 100.1881,17.8678 100.1691,17.2718 L100.1691,8.7568 L97.7691,8.7568 L97.7691,6.3838 Z" id="Fill-24" fill="#FFFFFF"></path>
            <path d="M106.7857,6.3838 L110.2747,6.3838 L114.0447,17.1598 L114.0997,17.1598 L117.7577,6.3838 L121.0797,6.3838 L115.4687,21.5988 C115.2067,22.2508 114.9517,22.8738 114.6997,23.4698 C114.4487,24.0648 114.1417,24.5918 113.7787,25.0478 C113.4157,25.5038 112.9647,25.8658 112.4257,26.1358 C111.8857,26.4058 111.1967,26.5408 110.3587,26.5408 C109.6147,26.5408 108.8797,26.4848 108.1537,26.3738 L108.1537,23.6928 C108.4137,23.7298 108.6657,23.7718 108.9067,23.8188 C109.1487,23.8648 109.3997,23.8878 109.6607,23.8878 C110.0327,23.8878 110.3407,23.8418 110.5827,23.7488 C110.8237,23.6558 111.0237,23.5208 111.1817,23.3438 C111.3407,23.1678 111.4757,22.9578 111.5877,22.7168 C111.6987,22.4738 111.8017,22.1948 111.8937,21.8788 L112.2577,20.7618 L106.7857,6.3838 Z" id="Fill-25" fill="#FFFFFF"></path>
            <g id="Group-42" transform="translate(106.000000, 5.570000)"></g>
        </g>
    </g>
</svg>