<?xml version="1.0" encoding="UTF-8"?>
<svg width="242px" height="27px" viewBox="0 0 242 27" version="1.1" xmlns="http://www.w3.org/2000/svg" xmlns:xlink="http://www.w3.org/1999/xlink">
    <!-- Generator: Sketch 48.2 (47327) - http://www.bohemiancoding.com/sketch -->
    <title>Page 1</title>
    <desc>Created with Sketch.</desc>
    <defs></defs>
    <g id="Illustration/Net-Acuity-Standard-Copy" stroke="none" stroke-width="1" fill="none" fill-rule="evenodd" transform="translate(-45.000000, -84.000000)">
        <g id="Page-1" transform="translate(45.000000, 84.000000)" fill="#FFFFFF">
            <path d="M126.3201,4.3881 C126.4801,4.3881 126.6321,4.3831 126.7751,4.3721 C126.9191,4.3621 127.0461,4.3321 127.1571,4.2831 C127.2691,4.2341 127.3581,4.1591 127.4241,4.0581 C127.4911,3.9571 127.5241,3.8161 127.5241,3.6341 C127.5241,3.4811 127.4941,3.3581 127.4351,3.2671 C127.3761,3.1771 127.2991,3.1071 127.2051,3.0581 C127.1101,3.0101 127.0021,2.9761 126.8801,2.9591 C126.7571,2.9411 126.6371,2.9321 126.5191,2.9321 L125.5771,2.9321 L125.5771,4.3881 L126.3201,4.3881 Z M126.6331,2.3571 C127.1781,2.3571 127.5821,2.4651 127.8431,2.6811 C128.1051,2.8981 128.2361,3.2261 128.2361,3.6651 C128.2361,4.0771 128.1211,4.3791 127.8901,4.5711 C127.6601,4.7631 127.3741,4.8761 127.0321,4.9111 L128.3411,6.9321 L127.5761,6.9321 L126.3311,4.9641 L125.5771,4.9641 L125.5771,6.9321 L124.8651,6.9321 L124.8651,2.3571 L126.6331,2.3571 Z M123.4041,5.9631 C123.5681,6.3721 123.7951,6.7261 124.0851,7.0261 C124.3751,7.3261 124.7161,7.5621 125.1111,7.7331 C125.5051,7.9041 125.9321,7.9891 126.3931,7.9891 C126.8461,7.9891 127.2691,7.9041 127.6601,7.7331 C128.0501,7.5621 128.3911,7.3261 128.6801,7.0261 C128.9701,6.7261 129.1971,6.3721 129.3611,5.9631 C129.5251,5.5551 129.6071,5.1101 129.6071,4.6291 C129.6071,4.1611 129.5251,3.7251 129.3611,3.3201 C129.1971,2.9151 128.9701,2.5651 128.6801,2.2681 C128.3911,1.9711 128.0501,1.7381 127.6601,1.5661 C127.2691,1.3951 126.8461,1.3101 126.3931,1.3101 C125.9321,1.3101 125.5051,1.3951 125.1111,1.5661 C124.7161,1.7381 124.3751,1.9711 124.0851,2.2681 C123.7951,2.5651 123.5681,2.9151 123.4041,3.3201 C123.2401,3.7251 123.1581,4.1611 123.1581,4.6291 C123.1581,5.1101 123.2401,5.5551 123.4041,5.9631 Z M122.7601,3.0901 C122.9691,2.6151 123.2541,2.2031 123.6141,1.8541 C123.9731,1.5051 124.3911,1.2311 124.8701,1.0331 C125.3481,0.8331 125.8551,0.7341 126.3931,0.7341 C126.9301,0.7341 127.4361,0.8331 127.9111,1.0331 C128.3851,1.2311 128.8011,1.5051 129.1571,1.8541 C129.5131,2.2031 129.7961,2.6151 130.0051,3.0901 C130.2151,3.5641 130.3191,4.0771 130.3191,4.6291 C130.3191,5.1941 130.2151,5.7161 130.0051,6.1941 C129.7961,6.6721 129.5131,7.0871 129.1571,7.4401 C128.8011,7.7921 128.3851,8.0661 127.9111,8.2621 C127.4361,8.4571 126.9301,8.5551 126.3931,8.5551 C125.8551,8.5551 125.3481,8.4571 124.8701,8.2621 C124.3911,8.0661 123.9731,7.7921 123.6141,7.4401 C123.2541,7.0871 122.9691,6.6721 122.7601,6.1941 C122.5501,5.7161 122.4461,5.1941 122.4461,4.6291 C122.4461,4.0771 122.5501,3.5641 122.7601,3.0901 Z" id="Fill-1"></path>
            <polygon id="Fill-3" points="2.5349 0.788 14.1489 17.65 14.2049 17.65 14.2049 0.788 16.1029 0.788 16.1029 20.721 13.9809 20.721 2.3679 3.859 2.3119 3.859 2.3119 20.721 0.4139 20.721 0.4139 0.788"></polygon>
            <path d="M29.7693,10.5869 C29.5553,9.9729 29.2523,9.4279 28.8623,8.9539 C28.4713,8.4789 27.9973,8.0979 27.4383,7.8089 C26.8793,7.5209 26.2473,7.3769 25.5403,7.3769 C24.8143,7.3769 24.1713,7.5209 23.6133,7.8089 C23.0553,8.0979 22.5813,8.4789 22.1893,8.9539 C21.7983,9.4279 21.4873,9.9779 21.2543,10.6009 C21.0213,11.2249 20.8683,11.8619 20.7933,12.5129 L30.1183,12.5129 C30.0993,11.8429 29.9833,11.2009 29.7693,10.5869 M21.0593,15.9619 C21.2363,16.6409 21.5193,17.2499 21.9113,17.7899 C22.3013,18.3309 22.7943,18.7769 23.3903,19.1299 C23.9853,19.4839 24.7023,19.6609 25.5403,19.6609 C26.8243,19.6609 27.8293,19.3259 28.5543,18.6559 C29.2813,17.9859 29.7833,17.0919 30.0623,15.9749 L31.8213,15.9749 C31.4493,17.6129 30.7643,18.8789 29.7693,19.7719 C28.7733,20.6659 27.3643,21.1119 25.5403,21.1119 C24.4043,21.1119 23.4223,20.9119 22.5943,20.5119 C21.7663,20.1119 21.0913,19.5629 20.5703,18.8649 C20.0493,18.1669 19.6633,17.3569 19.4123,16.4359 C19.1613,15.5149 19.0353,14.5419 19.0353,13.5189 C19.0353,12.5689 19.1613,11.6389 19.4123,10.7269 C19.6633,9.8149 20.0493,9.0009 20.5703,8.2839 C21.0913,7.5669 21.7663,6.9899 22.5943,6.5529 C23.4223,6.1159 24.4043,5.8969 25.5403,5.8969 C26.6933,5.8969 27.6793,6.1299 28.4983,6.5949 C29.3183,7.0599 29.9833,7.6699 30.4953,8.4229 C31.0063,9.1769 31.3743,10.0429 31.5983,11.0199 C31.8213,11.9969 31.9143,12.9879 31.8763,13.9929 L20.7933,13.9929 C20.7933,14.6259 20.8813,15.2819 21.0593,15.9619" id="Fill-5"></path>
            <path d="M39.9734,6.3154 L39.9734,7.7954 L37.0414,7.7954 L37.0414,17.5104 C37.0414,18.0884 37.1204,18.5394 37.2794,18.8644 C37.4374,19.1904 37.8324,19.3724 38.4654,19.4094 C38.9684,19.4094 39.4704,19.3814 39.9734,19.3254 L39.9734,20.8054 C39.7124,20.8054 39.4524,20.8144 39.1914,20.8334 C38.9304,20.8514 38.6704,20.8604 38.4104,20.8604 C37.2374,20.8604 36.4174,20.6334 35.9524,20.1774 C35.4884,19.7214 35.2644,18.8784 35.2834,17.6504 L35.2834,7.7954 L32.7704,7.7954 L32.7704,6.3154 L35.2834,6.3154 L35.2834,1.9884 L37.0414,1.9884 L37.0414,6.3154 L39.9734,6.3154 Z" id="Fill-7"></path>
            <path d="M48.1804,12.7924 L54.2664,12.7924 L51.2794,4.2214 L51.1964,4.2214 L48.1804,12.7924 Z M49.4094,0.7884 L53.1214,0.7884 L60.7994,20.7214 L57.0584,20.7214 L55.1884,15.4444 L47.2314,15.4444 L45.3614,20.7214 L41.7594,20.7214 L49.4094,0.7884 Z" id="Fill-9"></path>
            <path d="M71.072,11.1176 C70.942,10.2236 70.584,9.5496 69.998,9.0936 C69.411,8.6376 68.672,8.4096 67.778,8.4096 C67.369,8.4096 66.931,8.4786 66.466,8.6186 C66.001,8.7586 65.573,9.0186 65.181,9.4006 C64.791,9.7826 64.465,10.3126 64.205,10.9916 C63.944,11.6716 63.814,12.5596 63.814,13.6586 C63.814,14.2536 63.884,14.8486 64.023,15.4446 C64.163,16.0406 64.386,16.5706 64.693,17.0356 C65.001,17.5016 65.395,17.8786 65.88,18.1666 C66.363,18.4556 66.95,18.5996 67.638,18.5996 C68.569,18.5996 69.337,18.3106 69.942,17.7336 C70.547,17.1576 70.924,16.3476 71.072,15.3046 L74.255,15.3046 C73.957,17.1846 73.245,18.6236 72.119,19.6186 C70.993,20.6146 69.5,21.1116 67.638,21.1116 C66.503,21.1116 65.503,20.9216 64.637,20.5396 C63.772,20.1586 63.042,19.6376 62.446,18.9766 C61.85,18.3156 61.399,17.5296 61.092,16.6176 C60.785,15.7056 60.632,14.7186 60.632,13.6586 C60.632,12.5786 60.78,11.5636 61.078,10.6146 C61.376,9.6656 61.822,8.8426 62.418,8.1436 C63.013,7.4466 63.753,6.8976 64.637,6.4966 C65.521,6.0966 66.559,5.8966 67.75,5.8966 C68.588,5.8966 69.384,6.0036 70.137,6.2176 C70.891,6.4316 71.561,6.7526 72.147,7.1806 C72.733,7.6096 73.213,8.1486 73.585,8.8006 C73.957,9.4516 74.18,10.2236 74.255,11.1176 L71.072,11.1176 Z" id="Fill-11"></path>
            <path d="M88.6052,20.7212 L85.4782,20.7212 L85.4782,18.7112 L85.4222,18.7112 C85.0322,19.4372 84.4502,20.0192 83.6772,20.4562 C82.9052,20.8932 82.1192,21.1122 81.3192,21.1122 C79.4202,21.1122 78.0472,20.6422 77.2012,19.7022 C76.3542,18.7632 75.9302,17.3432 75.9302,15.4452 L75.9302,6.2872 L79.1132,6.2872 L79.1132,15.1382 C79.1132,16.4032 79.3552,17.2972 79.8392,17.8182 C80.3232,18.3392 81.0012,18.6002 81.8762,18.6002 C82.5472,18.6002 83.1052,18.4972 83.5522,18.2922 C83.9992,18.0882 84.3622,17.8132 84.6412,17.4692 C84.9202,17.1242 85.1202,16.7102 85.2412,16.2262 C85.3622,15.7422 85.4222,15.2212 85.4222,14.6632 L85.4222,6.2872 L88.6052,6.2872 L88.6052,20.7212 Z" id="Fill-13"></path>
            <path d="M92.039,20.722 L95.222,20.722 L95.222,6.288 L92.039,6.288 L92.039,20.722 Z M92.039,3.803 L95.222,3.803 L95.222,0.788 L92.039,0.788 L92.039,3.803 Z" id="Fill-15"></path>
            <path d="M97.2322,6.2876 L99.6322,6.2876 L99.6322,1.9606 L102.8152,1.9606 L102.8152,6.2876 L105.6912,6.2876 L105.6912,8.6606 L102.8152,8.6606 L102.8152,16.3666 C102.8152,16.7016 102.8302,16.9896 102.8572,17.2316 C102.8852,17.4736 102.9502,17.6786 103.0522,17.8456 C103.1552,18.0136 103.3082,18.1396 103.5132,18.2236 C103.7172,18.3066 103.9972,18.3486 104.3512,18.3486 C104.5742,18.3486 104.7972,18.3446 105.0212,18.3346 C105.2442,18.3256 105.4672,18.2926 105.6912,18.2366 L105.6912,20.6936 C105.3372,20.7306 104.9932,20.7676 104.6582,20.8056 C104.3232,20.8426 103.9782,20.8606 103.6252,20.8606 C102.7882,20.8606 102.1132,20.7816 101.6012,20.6236 C101.0882,20.4656 100.6892,20.2326 100.4002,19.9256 C100.1122,19.6186 99.9172,19.2326 99.8142,18.7666 C99.7112,18.3026 99.6512,17.7716 99.6322,17.1756 L99.6322,8.6606 L97.2322,8.6606 L97.2322,6.2876 Z" id="Fill-17"></path>
            <path d="M106.2488,6.2876 L109.7378,6.2876 L113.5078,17.0636 L113.5628,17.0636 L117.2208,6.2876 L120.5428,6.2876 L114.9318,21.5036 C114.6698,22.1546 114.4148,22.7776 114.1628,23.3736 C113.9118,23.9696 113.6048,24.4946 113.2418,24.9506 C112.8788,25.4066 112.4278,25.7696 111.8888,26.0396 C111.3488,26.3086 110.6598,26.4446 109.8218,26.4446 C109.0778,26.4446 108.3428,26.3896 107.6168,26.2766 L107.6168,23.5976 C107.8768,23.6346 108.1288,23.6766 108.3698,23.7226 C108.6118,23.7686 108.8628,23.7926 109.1238,23.7926 C109.4958,23.7926 109.8038,23.7456 110.0458,23.6526 C110.2868,23.5586 110.4868,23.4246 110.6448,23.2476 C110.8038,23.0706 110.9388,22.8616 111.0508,22.6196 C111.1618,22.3776 111.2648,22.0986 111.3568,21.7826 L111.7208,20.6656 L106.2488,6.2876 Z" id="Fill-18"></path>
            <path d="M136.8386,16.7295 C137.1736,17.4185 137.6346,17.9675 138.2206,18.3765 C138.8076,18.7855 139.4996,19.0785 140.3006,19.2555 C141.1006,19.4335 141.9566,19.5215 142.8686,19.5215 C143.3896,19.5215 143.9576,19.4465 144.5716,19.2975 C145.1866,19.1485 145.7586,18.9115 146.2886,18.5855 C146.8186,18.2605 147.2616,17.8415 147.6146,17.3295 C147.9686,16.8175 148.1456,16.1995 148.1456,15.4735 C148.1456,14.9145 148.0206,14.4315 147.7686,14.0215 C147.5176,13.6125 147.1916,13.2675 146.7916,12.9885 C146.3916,12.7095 145.9486,12.4815 145.4656,12.3045 C144.9816,12.1275 144.5066,11.9835 144.0416,11.8715 L139.6026,10.7825 C139.0256,10.6345 138.4626,10.4475 137.9136,10.2245 C137.3636,10.0015 136.8846,9.7035 136.4756,9.3315 C136.0666,8.9585 135.7356,8.5035 135.4846,7.9635 C135.2336,7.4235 135.1086,6.7625 135.1086,5.9805 C135.1086,5.4975 135.2006,4.9295 135.3876,4.2785 C135.5726,3.6265 135.9216,3.0125 136.4346,2.4355 C136.9456,1.8585 137.6486,1.3705 138.5416,0.9695 C139.4356,0.5695 140.5796,0.3695 141.9756,0.3695 C142.9616,0.3695 143.9016,0.5005 144.7956,0.7605 C145.6886,1.0215 146.4706,1.4125 147.1406,1.9335 C147.8106,2.4545 148.3456,3.1015 148.7456,3.8735 C149.1456,4.6465 149.3456,5.5435 149.3456,6.5675 L147.4476,6.5675 C147.4096,5.8045 147.2376,5.1395 146.9316,4.5715 C146.6236,4.0035 146.2236,3.5295 145.7306,3.1475 C145.2366,2.7665 144.6696,2.4775 144.0266,2.2815 C143.3856,2.0865 142.7106,1.9885 142.0036,1.9885 C141.3526,1.9885 140.7236,2.0585 140.1186,2.1985 C139.5146,2.3375 138.9836,2.5615 138.5276,2.8685 C138.0706,3.1755 137.7036,3.5805 137.4246,4.0825 C137.1466,4.5845 137.0066,5.2085 137.0066,5.9535 C137.0066,6.4185 137.0856,6.8235 137.2436,7.1675 C137.4006,7.5125 137.6206,7.8055 137.8996,8.0465 C138.1786,8.2895 138.4996,8.4845 138.8626,8.6335 C139.2256,8.7825 139.6116,8.9035 140.0216,8.9965 L144.8786,10.1965 C145.5866,10.3825 146.2516,10.6105 146.8746,10.8805 C147.4986,11.1505 148.0476,11.4855 148.5226,11.8855 C148.9966,12.2865 149.3686,12.7745 149.6396,13.3515 C149.9086,13.9285 150.0436,14.6265 150.0436,15.4455 C150.0436,15.6685 150.0206,15.9665 149.9746,16.3385 C149.9276,16.7105 149.8166,17.1065 149.6396,17.5245 C149.4616,17.9435 149.2106,18.3665 148.8856,18.7955 C148.5596,19.2235 148.1126,19.6095 147.5456,19.9535 C146.9776,20.2985 146.2756,20.5775 145.4376,20.7915 C144.6006,21.0055 143.5946,21.1115 142.4226,21.1115 C141.2496,21.1115 140.1606,20.9775 139.1556,20.7075 C138.1506,20.4375 137.2946,20.0235 136.5876,19.4655 C135.8796,18.9065 135.3356,18.1905 134.9536,17.3155 C134.5726,16.4405 134.4096,15.3895 134.4656,14.1615 L136.3636,14.1615 C136.3456,15.1845 136.5036,16.0415 136.8386,16.7295" id="Fill-19"></path>
            <path d="M158.447,6.3159 L158.447,7.7959 L155.515,7.7959 L155.515,17.5109 C155.515,18.0879 155.594,18.5399 155.753,18.8649 C155.911,19.1909 156.306,19.3729 156.939,19.4099 C157.442,19.4099 157.944,19.3809 158.447,19.3259 L158.447,20.8049 C158.186,20.8049 157.926,20.8139 157.665,20.8339 C157.404,20.8509 157.144,20.8609 156.884,20.8609 C155.711,20.8609 154.891,20.6329 154.426,20.1769 C153.962,19.7209 153.738,18.8789 153.757,17.6509 L153.757,7.7959 L151.244,7.7959 L151.244,6.3159 L153.757,6.3159 L153.757,1.9889 L155.515,1.9889 L155.515,6.3159 L158.447,6.3159 Z" id="Fill-20"></path>
            <path d="M170.1443,12.8486 C170.0333,13.0536 169.8183,13.2026 169.5023,13.2956 C169.1853,13.3886 168.9063,13.4536 168.6653,13.4906 C167.9193,13.6216 167.1523,13.7376 166.3613,13.8396 C165.5703,13.9426 164.8493,14.0966 164.1983,14.3006 C163.5463,14.5056 163.0113,14.7986 162.5923,15.1806 C162.1733,15.5616 161.9643,16.1056 161.9643,16.8126 C161.9643,17.2596 162.0523,17.6556 162.2293,17.9996 C162.4063,18.3446 162.6433,18.6406 162.9413,18.8926 C163.2393,19.1436 163.5833,19.3356 163.9743,19.4656 C164.3653,19.5956 164.7653,19.6606 165.1743,19.6606 C165.8453,19.6606 166.4873,19.5576 167.1013,19.3526 C167.7153,19.1486 168.2503,18.8506 168.7073,18.4606 C169.1633,18.0686 169.5253,17.5946 169.7953,17.0366 C170.0653,16.4776 170.2003,15.8456 170.2003,15.1386 L170.2003,12.8486 L170.1443,12.8486 Z M161.3503,8.5496 C161.6483,7.9356 162.0523,7.4326 162.5643,7.0416 C163.0763,6.6506 163.6763,6.3626 164.3653,6.1766 C165.0533,5.9906 165.8173,5.8976 166.6553,5.8976 C167.2873,5.8976 167.9193,5.9576 168.5533,6.0786 C169.1853,6.2006 169.7533,6.4276 170.2553,6.7626 C170.7583,7.0976 171.1673,7.5676 171.4843,8.1726 C171.8003,8.7776 171.9583,9.5636 171.9583,10.5316 L171.9583,18.1816 C171.9583,18.8886 172.3033,19.2416 172.9923,19.2416 C173.1973,19.2416 173.3823,19.2046 173.5503,19.1306 L173.5503,20.6096 C173.3453,20.6466 173.1643,20.6756 173.0053,20.6936 C172.8473,20.7126 172.6473,20.7216 172.4063,20.7216 C171.9583,20.7216 171.6003,20.6616 171.3313,20.5396 C171.0613,20.4196 170.8513,20.2466 170.7033,20.0236 C170.5533,19.8006 170.4563,19.5346 170.4103,19.2276 C170.3633,18.9206 170.3393,18.5816 170.3393,18.2086 L170.2843,18.2086 C169.9673,18.6746 169.6463,19.0886 169.3213,19.4516 C168.9953,19.8136 168.6313,20.1166 168.2323,20.3586 C167.8313,20.6006 167.3753,20.7866 166.8643,20.9166 C166.3523,21.0466 165.7433,21.1116 165.0363,21.1116 C164.3653,21.1116 163.7373,21.0326 163.1513,20.8746 C162.5643,20.7176 162.0523,20.4656 161.6153,20.1216 C161.1773,19.7766 160.8333,19.3396 160.5823,18.8086 C160.3313,18.2786 160.2063,17.6506 160.2063,16.9246 C160.2063,15.9196 160.4293,15.1336 160.8753,14.5656 C161.3223,13.9976 161.9133,13.5656 162.6483,13.2676 C163.3833,12.9706 164.2113,12.7606 165.1333,12.6396 C166.0543,12.5186 166.9903,12.4026 167.9393,12.2906 C168.3113,12.2536 168.6363,12.2066 168.9153,12.1506 C169.1953,12.0956 169.4273,11.9976 169.6143,11.8576 C169.7993,11.7186 169.9443,11.5276 170.0463,11.2856 C170.1493,11.0436 170.2003,10.7266 170.2003,10.3366 C170.2003,9.7406 170.1023,9.2526 169.9073,8.8706 C169.7113,8.4896 169.4413,8.1866 169.0973,7.9636 C168.7523,7.7396 168.3533,7.5866 167.8973,7.5026 C167.4413,7.4186 166.9523,7.3766 166.4313,7.3766 C165.3143,7.3766 164.4023,7.6416 163.6953,8.1726 C162.9883,8.7026 162.6163,9.5546 162.5793,10.7266 L160.8203,10.7266 C160.8753,9.8896 161.0523,9.1636 161.3503,8.5496 Z" id="Fill-21"></path>
            <path d="M177.2078,6.3159 L177.2078,8.8009 L177.2638,8.8009 C177.5988,7.9259 178.1938,7.2239 179.0508,6.6929 C179.9058,6.1629 180.8468,5.8979 181.8698,5.8979 C182.8748,5.8979 183.7168,6.0279 184.3958,6.2879 C185.0758,6.5489 185.6198,6.9169 186.0288,7.3909 C186.4378,7.8659 186.7278,8.4469 186.8958,9.1359 C187.0618,9.8249 187.1458,10.5969 187.1458,11.4529 L187.1458,20.7209 L185.3878,20.7209 L185.3878,11.7319 C185.3878,11.1179 185.3318,10.5449 185.2198,10.0149 C185.1078,9.4849 184.9128,9.0239 184.6338,8.6329 C184.3538,8.2419 183.9778,7.9359 183.5028,7.7119 C183.0278,7.4889 182.4368,7.3769 181.7298,7.3769 C181.0218,7.3769 180.3948,7.5029 179.8458,7.7539 C179.2968,8.0049 178.8308,8.3499 178.4498,8.7869 C178.0678,9.2239 177.7698,9.7459 177.5568,10.3499 C177.3428,10.9549 177.2258,11.6109 177.2078,12.3179 L177.2078,20.7209 L175.4488,20.7209 L175.4488,6.3159 L177.2078,6.3159 Z" id="Fill-22"></path>
            <path d="M191.8777,15.7382 C192.0547,16.4732 192.3337,17.1302 192.7157,17.7062 C193.0967,18.2832 193.5847,18.7532 194.1807,19.1152 C194.7757,19.4792 195.4927,19.6602 196.3307,19.6602 C197.2607,19.6602 198.0477,19.4792 198.6897,19.1152 C199.3317,18.7532 199.8527,18.2832 200.2527,17.7062 C200.6527,17.1302 200.9407,16.4732 201.1187,15.7382 C201.2947,15.0032 201.3837,14.2632 201.3837,13.5192 C201.3837,12.7752 201.2947,12.0342 201.1187,11.2992 C200.9407,10.5642 200.6527,9.9082 200.2527,9.3312 C199.8527,8.7542 199.3317,8.2842 198.6897,7.9212 C198.0477,7.5582 197.2607,7.3772 196.3307,7.3772 C195.4927,7.3772 194.7757,7.5582 194.1807,7.9212 C193.5847,8.2842 193.0967,8.7542 192.7157,9.3312 C192.3337,9.9082 192.0547,10.5642 191.8777,11.2992 C191.7007,12.0342 191.6117,12.7752 191.6117,13.5192 C191.6117,14.2632 191.7007,15.0032 191.8777,15.7382 Z M201.5237,20.7212 L201.5237,17.9862 L201.4677,17.9862 C201.2807,18.4502 201.0067,18.8782 200.6447,19.2702 C200.2807,19.6602 199.8667,19.9902 199.4007,20.2612 C198.9367,20.5302 198.4387,20.7392 197.9077,20.8892 C197.3777,21.0372 196.8517,21.1122 196.3307,21.1122 C195.2317,21.1122 194.2787,20.9112 193.4687,20.5122 C192.6587,20.1122 191.9837,19.5632 191.4447,18.8642 C190.9047,18.1662 190.5047,17.3572 190.2447,16.4362 C189.9827,15.5152 189.8537,14.5422 189.8537,13.5192 C189.8537,12.4952 189.9827,11.5232 190.2447,10.6012 C190.5047,9.6802 190.9047,8.8702 191.4447,8.1732 C191.9837,7.4742 192.6587,6.9212 193.4687,6.5112 C194.2787,6.1022 195.2317,5.8972 196.3307,5.8972 C196.8697,5.8972 197.3967,5.9632 197.9077,6.0922 C198.4197,6.2232 198.8987,6.4232 199.3457,6.6932 C199.7927,6.9632 200.1877,7.2932 200.5317,7.6842 C200.8767,8.0742 201.1417,8.5312 201.3277,9.0522 L201.3837,9.0522 L201.3837,0.7882 L203.1427,0.7882 L203.1427,20.7212 L201.5237,20.7212 Z" id="Fill-23"></path>
            <path d="M215.6492,12.8486 C215.5382,13.0536 215.3232,13.2026 215.0072,13.2956 C214.6902,13.3886 214.4112,13.4536 214.1702,13.4906 C213.4242,13.6216 212.6572,13.7376 211.8662,13.8396 C211.0752,13.9426 210.3542,14.0966 209.7032,14.3006 C209.0512,14.5056 208.5162,14.7986 208.0972,15.1806 C207.6782,15.5616 207.4692,16.1056 207.4692,16.8126 C207.4692,17.2596 207.5572,17.6556 207.7342,17.9996 C207.9112,18.3446 208.1482,18.6406 208.4462,18.8926 C208.7442,19.1436 209.0882,19.3356 209.4792,19.4656 C209.8702,19.5956 210.2702,19.6606 210.6792,19.6606 C211.3502,19.6606 211.9922,19.5576 212.6062,19.3526 C213.2202,19.1486 213.7552,18.8506 214.2122,18.4606 C214.6682,18.0686 215.0302,17.5946 215.3002,17.0366 C215.5702,16.4776 215.7052,15.8456 215.7052,15.1386 L215.7052,12.8486 L215.6492,12.8486 Z M206.8552,8.5496 C207.1532,7.9356 207.5572,7.4326 208.0692,7.0416 C208.5812,6.6506 209.1812,6.3626 209.8702,6.1766 C210.5582,5.9906 211.3222,5.8976 212.1602,5.8976 C212.7922,5.8976 213.4242,5.9576 214.0582,6.0786 C214.6902,6.2006 215.2582,6.4276 215.7602,6.7626 C216.2632,7.0976 216.6722,7.5676 216.9892,8.1726 C217.3052,8.7776 217.4632,9.5636 217.4632,10.5316 L217.4632,18.1816 C217.4632,18.8886 217.8082,19.2416 218.4972,19.2416 C218.7022,19.2416 218.8872,19.2046 219.0552,19.1306 L219.0552,20.6096 C218.8502,20.6466 218.6692,20.6756 218.5102,20.6936 C218.3522,20.7126 218.1522,20.7216 217.9112,20.7216 C217.4632,20.7216 217.1052,20.6616 216.8362,20.5396 C216.5662,20.4196 216.3562,20.2466 216.2082,20.0236 C216.0582,19.8006 215.9612,19.5346 215.9152,19.2276 C215.8682,18.9206 215.8442,18.5816 215.8442,18.2086 L215.7892,18.2086 C215.4722,18.6746 215.1512,19.0886 214.8262,19.4516 C214.5002,19.8136 214.1362,20.1166 213.7372,20.3586 C213.3362,20.6006 212.8802,20.7866 212.3692,20.9166 C211.8572,21.0466 211.2482,21.1116 210.5412,21.1116 C209.8702,21.1116 209.2422,21.0326 208.6562,20.8746 C208.0692,20.7176 207.5572,20.4656 207.1202,20.1216 C206.6822,19.7766 206.3382,19.3396 206.0872,18.8086 C205.8362,18.2786 205.7112,17.6506 205.7112,16.9246 C205.7112,15.9196 205.9342,15.1336 206.3802,14.5656 C206.8272,13.9976 207.4182,13.5656 208.1532,13.2676 C208.8882,12.9706 209.7162,12.7606 210.6382,12.6396 C211.5592,12.5186 212.4952,12.4026 213.4442,12.2906 C213.8162,12.2536 214.1412,12.2066 214.4202,12.1506 C214.7002,12.0956 214.9322,11.9976 215.1192,11.8576 C215.3042,11.7186 215.4492,11.5276 215.5512,11.2856 C215.6542,11.0436 215.7052,10.7266 215.7052,10.3366 C215.7052,9.7406 215.6072,9.2526 215.4122,8.8706 C215.2162,8.4896 214.9462,8.1866 214.6022,7.9636 C214.2572,7.7396 213.8582,7.5866 213.4022,7.5026 C212.9462,7.4186 212.4572,7.3766 211.9362,7.3766 C210.8192,7.3766 209.9072,7.6416 209.2002,8.1726 C208.4932,8.7026 208.1212,9.5546 208.0842,10.7266 L206.3252,10.7266 C206.3802,9.8896 206.5572,9.1636 206.8552,8.5496 Z" id="Fill-24"></path>
            <path d="M222.6004,6.3159 L222.6004,9.6939 L222.6574,9.6939 C223.1034,8.5219 223.7964,7.6189 224.7364,6.9859 C225.6754,6.3539 226.7974,6.0649 228.1004,6.1209 L228.1004,7.8789 C227.3004,7.8419 226.5744,7.9489 225.9224,8.2009 C225.2714,8.4519 224.7084,8.8109 224.2344,9.2749 C223.7594,9.7409 223.3914,10.2949 223.1314,10.9369 C222.8704,11.5789 222.7404,12.2809 222.7404,13.0449 L222.7404,20.7209 L220.9814,20.7209 L220.9814,6.3159 L222.6004,6.3159 Z" id="Fill-25"></path>
            <path d="M230.6834,15.7382 C230.8604,16.4732 231.1394,17.1302 231.5214,17.7062 C231.9024,18.2832 232.3904,18.7532 232.9864,19.1152 C233.5814,19.4792 234.2984,19.6602 235.1364,19.6602 C236.0664,19.6602 236.8534,19.4792 237.4954,19.1152 C238.1374,18.7532 238.6584,18.2832 239.0584,17.7062 C239.4584,17.1302 239.7464,16.4732 239.9244,15.7382 C240.1004,15.0032 240.1894,14.2632 240.1894,13.5192 C240.1894,12.7752 240.1004,12.0342 239.9244,11.2992 C239.7464,10.5642 239.4584,9.9082 239.0584,9.3312 C238.6584,8.7542 238.1374,8.2842 237.4954,7.9212 C236.8534,7.5582 236.0664,7.3772 235.1364,7.3772 C234.2984,7.3772 233.5814,7.5582 232.9864,7.9212 C232.3904,8.2842 231.9024,8.7542 231.5214,9.3312 C231.1394,9.9082 230.8604,10.5642 230.6834,11.2992 C230.5064,12.0342 230.4174,12.7752 230.4174,13.5192 C230.4174,14.2632 230.5064,15.0032 230.6834,15.7382 Z M240.3284,20.7212 L240.3284,17.9862 L240.2734,17.9862 C240.0864,18.4502 239.8124,18.8782 239.4504,19.2702 C239.0864,19.6602 238.6724,19.9902 238.2064,20.2612 C237.7424,20.5302 237.2444,20.7392 236.7134,20.8892 C236.1834,21.0372 235.6574,21.1122 235.1364,21.1122 C234.0374,21.1122 233.0844,20.9112 232.2744,20.5122 C231.4644,20.1122 230.7894,19.5632 230.2504,18.8642 C229.7104,18.1662 229.3104,17.3572 229.0504,16.4362 C228.7884,15.5152 228.6594,14.5422 228.6594,13.5192 C228.6594,12.4952 228.7884,11.5232 229.0504,10.6012 C229.3104,9.6802 229.7104,8.8702 230.2504,8.1732 C230.7894,7.4742 231.4644,6.9212 232.2744,6.5112 C233.0844,6.1022 234.0374,5.8972 235.1364,5.8972 C235.6754,5.8972 236.2024,5.9632 236.7134,6.0922 C237.2254,6.2232 237.7044,6.4232 238.1514,6.6932 C238.5984,6.9632 238.9934,7.2932 239.3374,7.6842 C239.6824,8.0742 239.9474,8.5312 240.1334,9.0522 L240.1894,9.0522 L240.1894,0.7882 L241.9484,0.7882 L241.9484,20.7212 L240.3284,20.7212 Z" id="Fill-26"></path>
        </g>
    </g>
</svg>