<?xml version="1.0" encoding="UTF-8"?>
<svg width="258px" height="27px" viewBox="0 0 258 27" version="1.1" xmlns="http://www.w3.org/2000/svg" xmlns:xlink="http://www.w3.org/1999/xlink">
    <!-- Generator: Sketch 48.2 (47327) - http://www.bohemiancoding.com/sketch -->
    <title>Page 1</title>
    <desc>Created with Sketch.</desc>
    <defs></defs>
    <g id="Illustration/Net-Acuity-Pulse-Plus-Copy" stroke="none" stroke-width="1" fill="none" fill-rule="evenodd" transform="translate(-37.000000, -84.000000)">
        <g id="Page-1" transform="translate(37.000000, 84.000000)" fill="#FFFFFF">
            <path d="M144.1678,10.3842 C145.4878,10.3842 146.5598,10.0492 147.3778,9.3802 C148.1968,8.7112 148.6048,7.6852 148.6048,6.3072 C148.6048,4.9302 148.1968,3.9082 147.3778,3.2382 C146.5598,2.5672 145.4878,2.2342 144.1678,2.2342 L137.6348,2.2342 L137.6348,10.3842 L144.1678,10.3842 Z M144.5858,0.6132 C145.4798,0.6132 146.2888,0.7382 147.0158,0.9912 C147.7418,1.2422 148.3648,1.6152 148.8858,2.1062 C149.4068,2.6012 149.8078,3.2022 150.0848,3.9082 C150.3658,4.6152 150.5028,5.4162 150.5028,6.3072 C150.5028,7.2042 150.3658,8.0032 150.0848,8.7112 C149.8078,9.4172 149.4068,10.0192 148.8858,10.5092 C148.3648,11.0052 147.7418,11.3762 147.0158,11.6262 C146.2888,11.8792 145.4798,12.0042 144.5858,12.0042 L137.6348,12.0042 L137.6348,20.5462 L135.7368,20.5462 L135.7368,0.6132 L144.5858,0.6132 Z" id="Fill-1"></path>
            <path d="M163.0389,20.5463 L163.0389,17.9513 L162.9839,17.9513 C162.5179,18.9183 161.8449,19.6593 160.9609,20.1703 C160.0769,20.6813 159.0949,20.9373 158.0159,20.9373 C157.1019,20.9373 156.3259,20.8123 155.6849,20.5613 C155.0409,20.3113 154.5199,19.9503 154.1199,19.4863 C153.7209,19.0213 153.4259,18.4523 153.2409,17.7843 C153.0549,17.1123 152.9629,16.3493 152.9629,15.4923 L152.9629,6.1423 L154.7209,6.1423 L154.7209,15.5233 C154.7579,16.8243 155.0609,17.8123 155.6269,18.4833 C156.1949,19.1513 157.1769,19.4863 158.5739,19.4863 C159.3349,19.4863 159.9869,19.3243 160.5269,18.9983 C161.0679,18.6733 161.5139,18.2393 161.8669,17.7013 C162.2199,17.1603 162.4829,16.5393 162.6479,15.8433 C162.8159,15.1453 162.9009,14.4343 162.9009,13.7073 L162.9009,6.1423 L164.6589,6.1423 L164.6589,20.5463 L163.0389,20.5463 Z" id="Fill-3"></path>
            <polygon id="Fill-5" points="168.007 20.546 169.765 20.546 169.765 0.613 168.007 0.613"></polygon>
            <path d="M181.4368,8.9467 C181.2308,8.5467 180.9578,8.2167 180.6128,7.9557 C180.2698,7.6947 179.8748,7.5047 179.4258,7.3847 C178.9798,7.2637 178.5038,7.2047 178.0038,7.2047 C177.6128,7.2047 177.2168,7.2447 176.8168,7.3297 C176.4158,7.4127 176.0478,7.5507 175.7148,7.7477 C175.3788,7.9427 175.1088,8.1987 174.9038,8.5157 C174.6978,8.8317 174.5978,9.2217 174.5978,9.6877 C174.5978,10.0787 174.6958,10.4097 174.8908,10.6797 C175.0858,10.9477 175.3318,11.1757 175.6298,11.3607 C175.9278,11.5497 176.2528,11.7017 176.6058,11.8217 C176.9588,11.9447 177.2878,12.0427 177.5848,12.1177 L179.9288,12.6477 C180.4328,12.7207 180.9308,12.8557 181.4238,13.0507 C181.9148,13.2467 182.3538,13.5047 182.7358,13.8197 C183.1168,14.1347 183.4278,14.5257 183.6698,14.9917 C183.9138,15.4577 184.0338,16.0067 184.0338,16.6397 C184.0338,17.4217 183.8558,18.0877 183.5028,18.6347 C183.1498,19.1837 182.6988,19.6297 182.1478,19.9747 C181.5998,20.3207 180.9808,20.5657 180.2918,20.7167 C179.6038,20.8647 178.9248,20.9367 178.2538,20.9367 C176.5618,20.9367 175.1888,20.5387 174.1368,19.7377 C173.0848,18.9387 172.4848,17.6537 172.3368,15.8837 L174.0948,15.8837 C174.1698,17.0757 174.6008,17.9737 175.3918,18.5777 C176.1828,19.1837 177.1648,19.4867 178.3388,19.4867 C178.7648,19.4867 179.2078,19.4387 179.6638,19.3467 C180.1198,19.2547 180.5428,19.0957 180.9338,18.8737 C181.3268,18.6477 181.6468,18.3647 181.8968,18.0217 C182.1478,17.6757 182.2758,17.2537 182.2758,16.7507 C182.2758,16.3247 182.1858,15.9637 182.0098,15.6757 C181.8328,15.3877 181.5948,15.1447 181.2968,14.9497 C180.9988,14.7547 180.6608,14.5917 180.2768,14.4617 C179.8968,14.3307 179.5108,14.2207 179.1208,14.1257 L176.8588,13.6247 C176.2808,13.4747 175.7498,13.3037 175.2668,13.1087 C174.7838,12.9137 174.3598,12.6707 173.9968,12.3837 C173.6338,12.0927 173.3508,11.7397 173.1458,11.3207 C172.9398,10.9007 172.8378,10.3837 172.8378,9.7707 C172.8378,9.0447 172.9998,8.4217 173.3258,7.9007 C173.6518,7.3797 174.0748,6.9617 174.5978,6.6437 C175.1188,6.3277 175.6998,6.0977 176.3408,5.9467 C176.9838,5.7967 177.6208,5.7217 178.2538,5.7217 C178.9798,5.7217 179.6538,5.8167 180.2768,6.0027 C180.9008,6.1877 181.4518,6.4777 181.9248,6.8687 C182.4008,7.2597 182.7758,7.7427 183.0568,8.3207 C183.3348,8.8967 183.4928,9.5757 183.5298,10.3567 L181.7718,10.3567 C181.7518,9.8187 181.6418,9.3477 181.4368,8.9467" id="Fill-7"></path>
            <path d="M196.5814,10.4145 C196.3664,9.7985 196.0654,9.2555 195.6724,8.7815 C195.2824,8.3065 194.8094,7.9255 194.2504,7.6355 C193.6914,7.3475 193.0584,7.2045 192.3524,7.2045 C191.6254,7.2045 190.9824,7.3475 190.4244,7.6355 C189.8654,7.9255 189.3924,8.3065 189.0014,8.7815 C188.6114,9.2555 188.2984,9.8035 188.0654,10.4275 C187.8324,11.0505 187.6794,11.6865 187.6044,12.3405 L196.9294,12.3405 C196.9124,11.6695 196.7944,11.0275 196.5814,10.4145 M187.8704,15.7885 C188.0474,16.4675 188.3304,17.0755 188.7214,17.6165 C189.1114,18.1575 189.6054,18.6025 190.2014,18.9565 C190.7974,19.3095 191.5134,19.4865 192.3524,19.4865 C193.6364,19.4865 194.6414,19.1515 195.3674,18.4825 C196.0934,17.8115 196.5944,16.9175 196.8744,15.8015 L198.6324,15.8015 C198.2594,17.4405 197.5754,18.7035 196.5814,19.6005 C195.5844,20.4905 194.1754,20.9365 192.3524,20.9365 C191.2154,20.9365 190.2334,20.7365 189.4074,20.3385 C188.5784,19.9375 187.9024,19.3895 187.3814,18.6905 C186.8604,17.9915 186.4754,17.1835 186.2244,16.2615 C185.9714,15.3425 185.8464,14.3685 185.8464,13.3445 C185.8464,12.3945 185.9714,11.4665 186.2244,10.5525 C186.4754,9.6415 186.8604,8.8265 187.3814,8.1105 C187.9024,7.3945 188.5784,6.8165 189.4074,6.3775 C190.2334,5.9425 191.2154,5.7215 192.3524,5.7215 C193.5044,5.7215 194.4904,5.9575 195.3094,6.4205 C196.1284,6.8865 196.7944,7.4945 197.3084,8.2515 C197.8184,9.0025 198.1864,9.8685 198.4094,10.8455 C198.6324,11.8215 198.7254,12.8135 198.6904,13.8195 L187.6044,13.8195 C187.6044,14.4515 187.6944,15.1065 187.8704,15.7885" id="Fill-8"></path>
            <path d="M217.5911,10.3842 C218.9111,10.3842 219.9831,10.0492 220.8011,9.3802 C221.6201,8.7112 222.0281,7.6852 222.0281,6.3072 C222.0281,4.9302 221.6201,3.9082 220.8011,3.2382 C219.9831,2.5672 218.9111,2.2342 217.5911,2.2342 L211.0581,2.2342 L211.0581,10.3842 L217.5911,10.3842 Z M218.0091,0.6132 C218.9031,0.6132 219.7121,0.7382 220.4381,0.9912 C221.1641,1.2422 221.7881,1.6152 222.3091,2.1062 C222.8301,2.6012 223.2301,3.2022 223.5081,3.9082 C223.7891,4.6152 223.9261,5.4162 223.9261,6.3072 C223.9261,7.2042 223.7891,8.0032 223.5081,8.7112 C223.2301,9.4172 222.8301,10.0192 222.3091,10.5092 C221.7881,11.0052 221.1641,11.3762 220.4381,11.6262 C219.7121,11.8792 218.9031,12.0042 218.0091,12.0042 L211.0581,12.0042 L211.0581,20.5462 L209.1601,20.5462 L209.1601,0.6132 L218.0091,0.6132 Z" id="Fill-9"></path>
            <polygon id="Fill-10" points="226.438 20.546 228.196 20.546 228.196 0.613 226.438 0.613"></polygon>
            <path d="M241.6253,20.5463 L241.6253,17.9513 L241.5703,17.9513 C241.1043,18.9183 240.4313,19.6593 239.5473,20.1703 C238.6633,20.6813 237.6813,20.9373 236.6023,20.9373 C235.6883,20.9373 234.9123,20.8123 234.2713,20.5613 C233.6273,20.3113 233.1063,19.9503 232.7063,19.4863 C232.3083,19.0213 232.0123,18.4523 231.8273,17.7843 C231.6413,17.1123 231.5493,16.3493 231.5493,15.4923 L231.5493,6.1423 L233.3073,6.1423 L233.3073,15.5233 C233.3443,16.8243 233.6473,17.8123 234.2133,18.4833 C234.7823,19.1513 235.7633,19.4863 237.1613,19.4863 C237.9223,19.4863 238.5733,19.3243 239.1143,18.9983 C239.6543,18.6733 240.1003,18.2393 240.4533,17.7013 C240.8073,17.1603 241.0693,16.5393 241.2343,15.8433 C241.4023,15.1453 241.4873,14.4343 241.4873,13.7073 L241.4873,6.1423 L243.2463,6.1423 L243.2463,20.5463 L241.6253,20.5463 Z" id="Fill-11"></path>
            <path d="M254.8597,8.9467 C254.6547,8.5467 254.3817,8.2167 254.0357,7.9557 C253.6927,7.6947 253.2977,7.5047 252.8487,7.3847 C252.4027,7.2637 251.9277,7.2047 251.4267,7.2047 C251.0357,7.2047 250.6407,7.2447 250.2397,7.3297 C249.8387,7.4127 249.4707,7.5507 249.1377,7.7477 C248.8027,7.9427 248.5317,8.1987 248.3267,8.5157 C248.1217,8.8317 248.0207,9.2217 248.0207,9.6877 C248.0207,10.0787 248.1187,10.4097 248.3147,10.6797 C248.5097,10.9477 248.7547,11.1757 249.0527,11.3607 C249.3507,11.5497 249.6757,11.7017 250.0287,11.8217 C250.3827,11.9447 250.7107,12.0427 251.0087,12.1177 L253.3527,12.6477 C253.8557,12.7207 254.3537,12.8557 254.8477,13.0507 C255.3387,13.2467 255.7767,13.5047 256.1597,13.8197 C256.5397,14.1347 256.8507,14.5257 257.0937,14.9917 C257.3367,15.4577 257.4567,16.0067 257.4567,16.6397 C257.4567,17.4217 257.2787,18.0877 256.9257,18.6347 C256.5727,19.1837 256.1217,19.6297 255.5707,19.9747 C255.0227,20.3207 254.4037,20.5657 253.7157,20.7167 C253.0267,20.8647 252.3477,20.9367 251.6767,20.9367 C249.9847,20.9367 248.6117,20.5387 247.5607,19.7377 C246.5087,18.9387 245.9077,17.6537 245.7597,15.8837 L247.5177,15.8837 C247.5927,17.0757 248.0237,17.9737 248.8147,18.5777 C249.6067,19.1837 250.5877,19.4867 251.7617,19.4867 C252.1877,19.4867 252.6307,19.4387 253.0867,19.3467 C253.5427,19.2547 253.9657,19.0957 254.3567,18.8737 C254.7497,18.6477 255.0697,18.3647 255.3207,18.0217 C255.5707,17.6757 255.6987,17.2537 255.6987,16.7507 C255.6987,16.3247 255.6087,15.9637 255.4337,15.6757 C255.2557,15.3877 255.0177,15.1447 254.7197,14.9497 C254.4217,14.7547 254.0837,14.5917 253.7007,14.4617 C253.3197,14.3307 252.9337,14.2207 252.5437,14.1257 L250.2817,13.6247 C249.7037,13.4747 249.1727,13.3037 248.6897,13.1087 C248.2067,12.9137 247.7827,12.6707 247.4207,12.3837 C247.0567,12.0927 246.7747,11.7397 246.5687,11.3207 C246.3627,10.9007 246.2607,10.3837 246.2607,9.7707 C246.2607,9.0447 246.4237,8.4217 246.7487,7.9007 C247.0747,7.3797 247.4977,6.9617 248.0207,6.6437 C248.5417,6.3277 249.1227,6.0977 249.7637,5.9467 C250.4077,5.7967 251.0437,5.7217 251.6767,5.7217 C252.4027,5.7217 253.0767,5.8167 253.7007,6.0027 C254.3237,6.1877 254.8747,6.4777 255.3477,6.8687 C255.8237,7.2597 256.1997,7.7427 256.4797,8.3207 C256.7577,8.8967 256.9157,9.5757 256.9537,10.3567 L255.1947,10.3567 C255.1747,9.8187 255.0657,9.3477 254.8597,8.9467" id="Fill-12"></path>
            <path d="M126.3206,4.1294 C126.4806,4.1294 126.6326,4.1244 126.7756,4.1134 C126.9196,4.1034 127.0466,4.0734 127.1576,4.0244 C127.2696,3.9754 127.3586,3.9004 127.4246,3.7994 C127.4916,3.6984 127.5246,3.5574 127.5246,3.3754 C127.5246,3.2224 127.4946,3.0994 127.4356,3.0084 C127.3766,2.9184 127.2996,2.8484 127.2056,2.7994 C127.1106,2.7514 127.0026,2.7174 126.8806,2.7004 C126.7576,2.6824 126.6376,2.6734 126.5196,2.6734 L125.5776,2.6734 L125.5776,4.1294 L126.3206,4.1294 Z M126.6336,2.0984 C127.1786,2.0984 127.5826,2.2064 127.8436,2.4224 C128.1056,2.6394 128.2366,2.9674 128.2366,3.4064 C128.2366,3.8184 128.1216,4.1204 127.8906,4.3124 C127.6606,4.5044 127.3746,4.6174 127.0326,4.6524 L128.3416,6.6734 L127.5766,6.6734 L126.3316,4.7054 L125.5776,4.7054 L125.5776,6.6734 L124.8656,6.6734 L124.8656,2.0984 L126.6336,2.0984 Z M123.4046,5.7044 C123.5686,6.1134 123.7956,6.4674 124.0856,6.7674 C124.3756,7.0674 124.7166,7.3034 125.1116,7.4744 C125.5056,7.6454 125.9326,7.7314 126.3936,7.7314 C126.8466,7.7314 127.2696,7.6454 127.6606,7.4744 C128.0506,7.3034 128.3916,7.0674 128.6806,6.7674 C128.9706,6.4674 129.1976,6.1134 129.3616,5.7044 C129.5256,5.2964 129.6076,4.8514 129.6076,4.3704 C129.6076,3.9024 129.5256,3.4664 129.3616,3.0614 C129.1976,2.6564 128.9706,2.3064 128.6806,2.0094 C128.3916,1.7124 128.0506,1.4794 127.6606,1.3074 C127.2696,1.1364 126.8466,1.0514 126.3936,1.0514 C125.9326,1.0514 125.5056,1.1364 125.1116,1.3074 C124.7166,1.4794 124.3756,1.7124 124.0856,2.0094 C123.7956,2.3064 123.5686,2.6564 123.4046,3.0614 C123.2406,3.4664 123.1586,3.9024 123.1586,4.3704 C123.1586,4.8514 123.2406,5.2964 123.4046,5.7044 Z M122.7606,2.8314 C122.9696,2.3564 123.2546,1.9444 123.6146,1.5954 C123.9736,1.2464 124.3916,0.9724 124.8706,0.7744 C125.3486,0.5744 125.8556,0.4754 126.3936,0.4754 C126.9306,0.4754 127.4366,0.5744 127.9116,0.7744 C128.3856,0.9724 128.8016,1.2464 129.1576,1.5954 C129.5136,1.9444 129.7966,2.3564 130.0056,2.8314 C130.2156,3.3054 130.3196,3.8184 130.3196,4.3704 C130.3196,4.9354 130.2156,5.4574 130.0056,5.9354 C129.7966,6.4134 129.5136,6.8284 129.1576,7.1814 C128.8016,7.5334 128.3856,7.8084 127.9116,8.0034 C127.4366,8.1984 126.9306,8.2964 126.3936,8.2964 C125.8556,8.2964 125.3486,8.1984 124.8706,8.0034 C124.3916,7.8084 123.9736,7.5334 123.6146,7.1814 C123.2546,6.8284 122.9696,6.4134 122.7606,5.9354 C122.5506,5.4574 122.4466,4.9354 122.4466,4.3704 C122.4466,3.8184 122.5506,3.3054 122.7606,2.8314 Z" id="Fill-13"></path>
            <polygon id="Fill-14" points="2.5355 0.5293 14.1495 17.3923 14.2055 17.3923 14.2055 0.5293 16.1035 0.5293 16.1035 20.4623 13.9815 20.4623 2.3685 3.6003 2.3125 3.6003 2.3125 20.4623 0.4145 20.4623 0.4145 0.5293"></polygon>
            <path d="M29.7698,10.3286 C29.5558,9.7146 29.2528,9.1696 28.8628,8.6946 C28.4718,8.2206 27.9978,7.8396 27.4388,7.5506 C26.8798,7.2626 26.2478,7.1176 25.5408,7.1176 C24.8148,7.1176 24.1718,7.2626 23.6138,7.5506 C23.0558,7.8396 22.5818,8.2206 22.1898,8.6946 C21.7988,9.1696 21.4878,9.7196 21.2548,10.3426 C21.0218,10.9666 20.8688,11.6036 20.7938,12.2546 L30.1188,12.2546 C30.0998,11.5846 29.9838,10.9426 29.7698,10.3286 M21.0598,15.7026 C21.2368,16.3826 21.5198,16.9916 21.9118,17.5316 C22.3018,18.0716 22.7948,18.5176 23.3908,18.8716 C23.9858,19.2246 24.7028,19.4016 25.5408,19.4016 C26.8248,19.4016 27.8298,19.0666 28.5548,18.3966 C29.2818,17.7266 29.7838,16.8336 30.0628,15.7166 L31.8218,15.7166 C31.4498,17.3546 30.7648,18.6196 29.7698,19.5136 C28.7738,20.4066 27.3648,20.8526 25.5408,20.8526 C24.4048,20.8526 23.4228,20.6526 22.5948,20.2536 C21.7668,19.8526 21.0918,19.3046 20.5708,18.6056 C20.0498,17.9076 19.6638,17.0986 19.4128,16.1776 C19.1618,15.2566 19.0358,14.2836 19.0358,13.2606 C19.0358,12.3106 19.1618,11.3806 19.4128,10.4686 C19.6638,9.5566 20.0498,8.7416 20.5708,8.0246 C21.0918,7.3086 21.7668,6.7316 22.5948,6.2936 C23.4228,5.8566 24.4048,5.6386 25.5408,5.6386 C26.6938,5.6386 27.6798,5.8706 28.4988,6.3356 C29.3188,6.8016 29.9838,7.4106 30.4958,8.1646 C31.0068,8.9186 31.3748,9.7836 31.5988,10.7616 C31.8218,11.7386 31.9148,12.7286 31.8768,13.7346 L20.7938,13.7346 C20.7938,14.3676 20.8818,15.0236 21.0598,15.7026" id="Fill-15"></path>
            <path d="M39.9739,6.0566 L39.9739,7.5366 L37.0419,7.5366 L37.0419,17.2526 C37.0419,17.8296 37.1209,18.2806 37.2799,18.6056 C37.4379,18.9316 37.8329,19.1136 38.4659,19.1506 C38.9689,19.1506 39.4709,19.1226 39.9739,19.0666 L39.9739,20.5466 C39.7129,20.5466 39.4529,20.5556 39.1919,20.5746 C38.9309,20.5926 38.6709,20.6016 38.4109,20.6016 C37.2379,20.6016 36.4179,20.3746 35.9529,19.9186 C35.4889,19.4626 35.2649,18.6196 35.2839,17.3916 L35.2839,7.5366 L32.7709,7.5366 L32.7709,6.0566 L35.2839,6.0566 L35.2839,1.7296 L37.0419,1.7296 L37.0419,6.0566 L39.9739,6.0566 Z" id="Fill-16"></path>
            <path d="M48.181,12.5337 L54.267,12.5337 L51.28,3.9627 L51.197,3.9627 L48.181,12.5337 Z M49.41,0.5297 L53.122,0.5297 L60.8,20.4627 L57.059,20.4627 L55.189,15.1857 L47.232,15.1857 L45.362,20.4627 L41.76,20.4627 L49.41,0.5297 Z" id="Fill-17"></path>
            <path d="M71.0726,10.8588 C70.9426,9.9648 70.5846,9.2918 69.9986,8.8348 C69.4116,8.3798 68.6726,8.1508 67.7786,8.1508 C67.3696,8.1508 66.9316,8.2198 66.4666,8.3598 C66.0016,8.4998 65.5736,8.7598 65.1816,9.1418 C64.7916,9.5238 64.4656,10.0538 64.2056,10.7328 C63.9446,11.4128 63.8146,12.3008 63.8146,13.3998 C63.8146,13.9958 63.8846,14.5898 64.0236,15.1858 C64.1636,15.7818 64.3866,16.3118 64.6936,16.7778 C65.0016,17.2428 65.3956,17.6198 65.8806,17.9078 C66.3636,18.1968 66.9506,18.3408 67.6386,18.3408 C68.5696,18.3408 69.3376,18.0518 69.9426,17.4748 C70.5476,16.8988 70.9246,16.0888 71.0726,15.0458 L74.2556,15.0458 C73.9576,16.9258 73.2456,18.3648 72.1196,19.3598 C70.9936,20.3558 69.5006,20.8528 67.6386,20.8528 C66.5036,20.8528 65.5036,20.6628 64.6376,20.2808 C63.7726,19.8998 63.0426,19.3788 62.4466,18.7178 C61.8506,18.0568 61.3996,17.2708 61.0926,16.3588 C60.7856,15.4468 60.6326,14.4608 60.6326,13.3998 C60.6326,12.3198 60.7806,11.3048 61.0786,10.3558 C61.3766,9.4068 61.8226,8.5838 62.4186,7.8848 C63.0136,7.1878 63.7536,6.6388 64.6376,6.2378 C65.5216,5.8378 66.5596,5.6378 67.7506,5.6378 C68.5886,5.6378 69.3846,5.7448 70.1376,5.9588 C70.8916,6.1728 71.5616,6.4938 72.1476,6.9218 C72.7336,7.3508 73.2136,7.8898 73.5856,8.5418 C73.9576,9.1938 74.1806,9.9648 74.2556,10.8588 L71.0726,10.8588 Z" id="Fill-18"></path>
            <path d="M88.6058,20.4624 L85.4788,20.4624 L85.4788,18.4524 L85.4228,18.4524 C85.0328,19.1784 84.4508,19.7604 83.6778,20.1974 C82.9058,20.6344 82.1198,20.8534 81.3198,20.8534 C79.4208,20.8534 78.0478,20.3834 77.2018,19.4434 C76.3548,18.5044 75.9308,17.0844 75.9308,15.1864 L75.9308,6.0284 L79.1138,6.0284 L79.1138,14.8794 C79.1138,16.1454 79.3558,17.0384 79.8398,17.5594 C80.3238,18.0804 81.0018,18.3414 81.8768,18.3414 C82.5478,18.3414 83.1058,18.2384 83.5528,18.0334 C83.9998,17.8294 84.3628,17.5554 84.6418,17.2104 C84.9208,16.8654 85.1208,16.4514 85.2418,15.9684 C85.3628,15.4834 85.4228,14.9624 85.4228,14.4044 L85.4228,6.0284 L88.6058,6.0284 L88.6058,20.4624 Z" id="Fill-19"></path>
            <path d="M92.039,20.463 L95.222,20.463 L95.222,6.029 L92.039,6.029 L92.039,20.463 Z M92.039,3.544 L95.222,3.544 L95.222,0.529 L92.039,0.529 L92.039,3.544 Z" id="Fill-20"></path>
            <path d="M97.2327,6.0288 L99.6327,6.0288 L99.6327,1.7018 L102.8157,1.7018 L102.8157,6.0288 L105.6917,6.0288 L105.6917,8.4018 L102.8157,8.4018 L102.8157,16.1078 C102.8157,16.4428 102.8307,16.7308 102.8577,16.9728 C102.8857,17.2158 102.9507,17.4198 103.0527,17.5878 C103.1557,17.7548 103.3087,17.8808 103.5137,17.9648 C103.7177,18.0478 103.9977,18.0898 104.3517,18.0898 C104.5747,18.0898 104.7977,18.0858 105.0217,18.0758 C105.2447,18.0668 105.4677,18.0338 105.6917,17.9778 L105.6917,20.4348 C105.3377,20.4718 104.9937,20.5088 104.6587,20.5468 C104.3237,20.5838 103.9787,20.6018 103.6257,20.6018 C102.7887,20.6018 102.1137,20.5228 101.6017,20.3648 C101.0887,20.2068 100.6897,19.9738 100.4007,19.6668 C100.1127,19.3598 99.9177,18.9738 99.8147,18.5078 C99.7117,18.0438 99.6517,17.5128 99.6327,16.9178 L99.6327,8.4018 L97.2327,8.4018 L97.2327,6.0288 Z" id="Fill-21"></path>
            <path d="M106.2493,6.0288 L109.7383,6.0288 L113.5083,16.8048 L113.5633,16.8048 L117.2213,6.0288 L120.5433,6.0288 L114.9323,21.2448 C114.6703,21.8958 114.4153,22.5188 114.1633,23.1148 C113.9123,23.7108 113.6053,24.2358 113.2423,24.6918 C112.8793,25.1478 112.4283,25.5108 111.8893,25.7808 C111.3493,26.0498 110.6603,26.1858 109.8223,26.1858 C109.0783,26.1858 108.3433,26.1308 107.6173,26.0178 L107.6173,23.3388 C107.8773,23.3758 108.1293,23.4178 108.3703,23.4638 C108.6123,23.5098 108.8633,23.5338 109.1243,23.5338 C109.4963,23.5338 109.8043,23.4868 110.0463,23.3938 C110.2873,23.2998 110.4873,23.1658 110.6453,22.9888 C110.8043,22.8118 110.9393,22.6028 111.0513,22.3608 C111.1623,22.1188 111.2653,21.8398 111.3573,21.5238 L111.7213,20.4068 L106.2493,6.0288 Z" id="Fill-22"></path>
        </g>
    </g>
</svg>