<?xml version="1.0" encoding="utf-8"?>
<!-- Generator: Adobe Illustrator 17.0.0, SVG Export Plug-In . SVG Version: 6.00 Build 0)  -->
<!DOCTYPE svg PUBLIC "-//W3C//DTD SVG 1.1//EN" "http://www.w3.org/Graphics/SVG/1.1/DTD/svg11.dtd">
<svg version="1.1" id="Слой_1" xmlns="http://www.w3.org/2000/svg" xmlns:xlink="http://www.w3.org/1999/xlink" x="0px" y="0px"
	 width="126px" height="123px" viewBox="-12.5 0 126 123" enable-background="new -12.5 0 126 123" xml:space="preserve">
<title>Page 1 Copy</title>
<desc>Created with Sketch.</desc>
<g id="Resource-Center" transform="translate(-142.000000, -1307.000000)">
	<g id="Success-Stories" transform="translate(9.000000, 664.000000)">
		<g id="Card-3---White-Papers" transform="translate(1.000000, 576.000000)">
			<g id="Page-1-Copy" transform="translate(133.000000, 67.000000)">
				<g id="Group-5">
					<polygon id="Stroke-1" fill="none" stroke="#184376" stroke-linecap="round" stroke-linejoin="round" points="0,112 87,112 
						87,1 31.727,1 0,32.922 					"/>
					<polyline id="Stroke-3" fill="none" stroke="#184376" stroke-linecap="round" stroke-linejoin="round" points="0,33 32,33 
						32,1 					"/>
				</g>
				<path id="Stroke-6" fill="none" stroke="#184376" stroke-linecap="round" stroke-linejoin="round" d="M33,52h46"/>
				<path id="Stroke-7" fill="none" stroke="#184376" stroke-linecap="round" stroke-linejoin="round" d="M33,74h46"/>
				<path id="Stroke-8" fill="none" stroke="#184376" stroke-linecap="round" stroke-linejoin="round" d="M33,95h44"/>
				<path id="Stroke-9" fill="none" stroke="#184376" stroke-linecap="round" stroke-linejoin="round" d="M24,58H11"/>
				<polygon id="Stroke-10" fill="none" stroke="#184376" stroke-linecap="round" stroke-linejoin="round" points="11,58 24,58 
					24,45 11,45 				"/>
				<polygon id="Stroke-11" fill="none" stroke="#184376" stroke-linecap="round" stroke-linejoin="round" points="11,80 24,80 
					24,67 11,67 				"/>
				<polygon id="Stroke-12" fill="none" stroke="#184376" stroke-linecap="round" stroke-linejoin="round" points="11,102 24,102 
					24,89 11,89 				"/>
				<polyline id="Stroke-13" fill="none" stroke="#184376" stroke-linecap="round" stroke-linejoin="round" points="11,111.056 
					11,122 99,122 99,12 87.888,12 				"/>
			</g>
		</g>
	</g>
</g>
</svg>
