<?xml version="1.0" encoding="UTF-8"?>
<svg width="119px" height="30px" viewBox="0 0 119 30" version="1.1" xmlns="http://www.w3.org/2000/svg" xmlns:xlink="http://www.w3.org/1999/xlink">
    <!-- Generator: Sketch 48.2 (47327) - http://www.bohemiancoding.com/sketch -->
    <title>Page 1</title>
    <desc>Created with Sketch.</desc>
    <defs>
        <polygon id="path-1" points="0 15 0 30 23 30 23 9.28979116e-14 0 9.28979116e-14 0 15"></polygon>
    </defs>
    <g id="Home" stroke="none" stroke-width="1" fill="none" fill-rule="evenodd" transform="translate(-1106.000000, -956.000000)">
        <g id="Clients" transform="translate(190.000000, 843.000000)">
            <g id="Group" transform="translate(25.000000, 105.000000)">
                <g id="Page-1" transform="translate(891.000000, 8.000000)">
                    <path d="M27.062408,11 C28.4218106,11 29.7265322,9.87252276 29.9533234,8.4816997 C30.2222458,7.12747724 29.2998421,6 27.9408877,6 C26.5819334,6 25.2767636,7.12747724 25.0468349,8.4816997 C24.7819464,9.87252276 25.6658046,11 27.062408,11" id="Fill-1" fill="#CA2026"></path>
                    <g id="Group-5" transform="translate(22.000000, -0.000000)" fill="#CA2026">
                        <path d="M39.3772679,14 C40.5818078,14 41,14.7358201 41,15.6126725 C41,17.0957588 39.8556667,18 38.0653324,18 C37.4246196,18 36.5284354,17.8475217 36,17.6705161 C36.2217069,16.3063873 37.0930762,14 39.3772679,14 M67.3763117,14 C68.4773448,14 69,14.7358201 69,15.6126725 C69,17.0957588 67.8550395,18 66.0649963,18 C65.4243879,18 64.5287562,17.8475217 64,17.6705161 C64.2220776,16.3063873 65.2047507,14 67.3763117,14 M92.9352937,14.5601509 L95.8330505,14.5601509 C96.2296936,14.5601509 96.4628121,14.397679 96.552473,14.0245953 C96.6801331,13.4877501 96.9132516,12.5503128 96.9798569,12.2937103 C97.0656753,11.9580209 96.8718368,11.7035675 96.5020921,11.7035675 L93.6423344,11.7035675 C93.8481277,10.8783132 94.6499528,8.20010507 94.6499528,6.4537466 C94.6499528,2.9661875 91.7090733,4.04398737e-14 87.5351421,4.04398737e-14 C82.8211104,4.04398737e-14 79.7542785,3.18453603 79.7542785,7.66583887 C79.7542785,8.97249152 80.2388747,10.4966331 80.8396031,11.4413773 C80.5885524,11.4271933 80.3298165,11.4194565 80.0629684,11.4194565 C76.4812265,11.4194565 74.225186,13.3755671 74.225186,16.221405 C74.225186,18.892736 76.317275,19.9307512 78.2868275,20.6210421 C80.0360701,21.234825 81.6465518,21.5202254 81.6465518,22.8960791 C81.6465518,23.8240604 80.7601891,24.3677826 79.025463,24.3677826 C76.9679574,24.3677826 75.8365215,23.3920913 75.5487525,23.0224462 C75.7438718,22.8681408 76.0337756,22.5010745 76.0337756,21.8890109 C76.0337756,21.0332394 75.4368898,20.334782 74.3276556,20.334782 C73.3883503,20.334782 72.5954913,21.1054492 72.3961024,22.1189646 C70.8893713,23.3607145 69.2438791,24.1644778 66.9109863,24.1644778 C64.6139579,24.1644778 63.4214671,22.9618415 63.4214671,20.4022637 C63.9598599,20.5668848 65.3624135,20.7654616 66.289337,20.7654616 C70.1789149,20.7654616 72.8303176,18.9864368 72.8303176,15.4232294 C72.8303176,13.507092 71.159635,11.4951048 67.8537073,11.4951048 L67.846449,11.4951048 C63.4987463,11.4951048 61.0638108,14.2674435 60.000688,17.3170161 C59.702672,17.2448063 59.4033752,17.173886 59.1053593,17.1068341 C59.3431743,16.4298677 59.5135301,15.6458761 59.5135301,14.77721 C59.5135301,13.2715507 58.5874605,11.4951048 56.1081214,11.4951048 C54.3810805,11.4951048 52.7432737,12.6336979 51.6079951,14.3405129 C51.8902137,13.2272792 52.0772208,12.4858398 52.0896026,12.4359807 C52.1634661,12.1449926 52.0426373,11.8209084 51.5926247,11.8209084 L49.0475343,11.8209084 C48.6850478,11.8209084 48.4288736,11.9494245 48.325977,12.3654902 C48.25681,12.6422943 47.3824021,16.0958976 46.53105,19.4583791 C45.994792,21.5550408 43.2217066,24.1644778 39.736457,24.1644778 C37.4385746,24.1644778 36.2469377,22.8823248 36.2469377,20.3223172 C36.8480931,20.5630164 38.1878841,20.7654616 39.1143807,20.7654616 C43.1619326,20.7654616 45.6553612,18.9864368 45.6553612,15.4232294 C45.6553612,13.507092 43.9846787,11.4951048 40.678751,11.4951048 L40.6714927,11.4951048 C35.7760042,11.4951048 32.7770586,15.3230813 32.2694067,19.6634032 C32.0576361,21.4673576 30.5449276,23.9452696 28.9054129,23.9452696 C28.1065764,23.9452696 27.6608334,23.4402311 27.6608334,22.5823105 C27.6608334,21.8413009 28.1791591,20.0304695 28.7465849,17.7610201 C28.9361538,17.0015282 29.2252036,15.8435933 29.5449944,14.5601509 L32.2066441,14.5601509 C32.6028601,14.5601509 32.8351247,14.397679 32.9256396,14.0245953 C33.0528728,13.4877501 33.2864182,12.5503128 33.3525965,12.2937103 C33.4384149,11.9580209 33.2454303,11.7035675 32.8744048,11.7035675 L30.2571586,11.7035675 C30.2571586,11.7035675 31.4620311,6.86336501 31.4906373,6.73914705 C31.6067695,6.2470032 31.1981717,5.96289221 30.7699339,6.05358422 C30.7699339,6.05358422 28.7470119,6.45245714 28.3717167,6.53111419 C27.9947137,6.60805196 27.7018212,6.81651464 27.565622,7.36367544 C27.5481167,7.43416591 26.49396,11.7035675 26.49396,11.7035675 L24.3924779,11.7035675 C23.9971157,11.7035675 23.7639972,11.8664693 23.6751902,12.2386933 C23.5471031,12.7746788 23.3122768,13.7129758 23.2478063,13.9695783 C23.160707,14.3056975 23.3549725,14.5601509 23.7255711,14.5601509 L25.7864923,14.5601509 C25.7715488,14.6190362 25.0423063,17.4141554 24.4518249,19.9165672 C24.1738759,21.1196332 23.2431097,23.9358136 21.7197273,23.9358136 C20.8094551,23.9358136 20.4247669,23.4733273 20.4247669,22.4817327 C20.4247669,20.9206266 21.9515649,17.0118439 21.9515649,15.2384068 C21.9515649,12.8692392 20.6890532,11.4968241 18.1029749,11.4968241 C16.4719994,11.4968241 14.7816768,12.5563303 14.065243,13.4864607 C14.065243,13.4864607 14.2825641,12.7252495 14.3568546,12.4325421 C14.4362686,12.1230718 14.2714632,11.8196189 13.8684158,11.8196189 L11.3395498,11.8196189 C10.8011571,11.8196189 10.6525761,12.1088877 10.573589,12.4278141 C10.5419942,12.5554707 9.63086806,16.1582215 8.75603326,19.616123 C8.1574396,21.9840011 6.70365117,23.9628922 5.14952785,23.9628922 C4.34983747,23.9628922 3.99418232,23.4578538 3.99418232,22.5999331 C3.99418232,21.8589235 4.46938542,20.0304695 5.03723817,17.7610201 C5.72762757,14.9977076 6.33646819,12.7231004 6.40221956,12.4570419 C6.48675703,12.1161947 6.33561427,11.8196189 5.89969122,11.8196189 L3.35545472,11.8196189 C2.89476816,11.8196189 2.72953582,12.062897 2.63304355,12.4011653 C2.63304355,12.4011653 1.91703673,15.1300922 1.15833422,18.1680596 C0.607559749,20.3726061 -4.68791672e-14,22.6184154 -4.68791672e-14,23.6731936 C-4.68791672e-14,25.555805 0.839397376,26.9750704 3.14838059,26.9750704 C4.93007197,26.9750704 6.3403108,26.0655714 7.41709624,24.906347 C7.25826825,25.534314 7.15750641,25.9310378 7.14725945,25.9714409 C7.05460979,26.3299107 7.16689947,26.6475476 7.58659815,26.6475476 L10.1897547,26.6475476 C10.643183,26.6475476 10.8178084,26.4640145 10.9121659,26.0660012 C11.0031077,25.6864702 12.9483236,17.9871054 12.9483236,17.9871054 C13.4619528,15.918382 14.7325767,14.5489756 16.5215264,14.5489756 C17.3690359,14.5489756 18.1034019,15.1141888 18.0180105,16.2128086 C17.923653,17.4214623 16.475842,21.7626439 16.475842,23.6684655 C16.475842,25.1105115 17.0074034,26.9763599 19.7040635,26.9763599 C21.5425402,26.9763599 22.8959937,26.0887817 23.8797026,24.9441712 C24.2400542,26.1592722 25.19473,26.9763599 26.9456805,26.9763599 C29.8558191,26.9763599 31.6097582,25.2385978 32.6400054,23.4935288 C33.4952002,25.5214194 35.4980552,26.9755003 38.4350921,26.9755003 C41.4289143,26.9755003 43.7455828,25.7053823 45.3872323,23.9779359 C45.092205,25.142748 44.8919622,25.9331869 44.8753109,25.9993791 C44.7813803,26.3638665 44.9397814,26.6501266 45.3641766,26.6501266 L47.9408618,26.6501266 C48.2935283,26.6501266 48.544579,26.4696022 48.6368017,26.0960886 C48.6816321,25.9129853 49.0539386,24.4644921 49.5799496,22.4065142 C50.5854332,18.4680739 52.2018922,14.3822055 54.6304234,14.3822055 C55.487326,14.3822055 55.8382846,14.8640336 55.8382846,15.6235255 C55.8382846,15.9815655 55.7349611,16.2910359 55.6457271,16.4569464 C54.4681798,16.221405 53.5211892,16.80639 53.5211892,18.0717799 C53.5211892,18.8961746 54.3832153,19.6457806 55.5458191,19.6457806 C56.4347435,19.6457806 57.1695364,19.4265724 57.7553214,19.0294188 C58.3022532,19.1428913 58.890173,19.2714074 59.4815083,19.4072305 C59.3914204,19.9995224 59.3465899,20.5814986 59.3465899,21.1333875 C59.3465899,24.2947132 61.5885409,26.9755003 65.6079137,26.9755003 C68.7571482,26.9755003 70.9179774,25.8162758 72.7837793,24.3290988 C73.6808158,25.80639 75.9453955,27 78.916162,27 C82.9876236,27 85.2970337,24.8685229 85.2970337,22.0514829 C85.2970337,19.5017909 83.2173264,18.5626343 81.0731486,17.7816515 C79.3303103,17.1480969 77.8760949,16.8029514 77.8760949,15.5629209 C77.8760949,14.5463967 78.6710887,14.0813315 80.0335084,14.0813315 C80.9177362,14.0813315 81.5812274,14.2730312 81.9356016,14.3731792 C82.2869872,15.2586083 83.0140949,16.2390277 84.2556857,16.2390277 C85.3064268,16.2390277 85.7782142,15.4030278 85.7782142,14.6323607 C85.7782142,12.4398491 82.149934,12.2094656 82.149934,7.50680548 C82.149934,4.58274034 83.7932913,2.17016094 87.1978461,2.17016094 C89.5631876,2.17016094 91.107491,3.68011844 91.107491,6.11762739 C91.107491,8.12660586 89.896641,11.7035675 89.896641,11.7035675 L87.8395624,11.7035675 C87.4442003,11.7035675 87.2110818,11.8664693 87.1214208,12.2386933 C86.9937607,12.7746788 86.7593613,13.7129758 86.693183,13.9695783 C86.6069377,14.3056975 86.8007761,14.5601509 87.1722287,14.5601509 L89.1810612,14.5601509 C89.1810612,14.5601509 87.1039156,22.2706911 87.1039156,23.6731936 C87.1039156,25.555805 88.1580723,26.9742108 90.4670555,26.9742108 C93.7345571,26.9742108 95.7754114,24.8375758 96.6634818,21.7299776 C96.7322219,21.4892784 96.5973035,21.2937103 96.3552189,21.2937103 L95.1089316,21.2937103 C94.8600156,21.2937103 94.7157042,21.4364105 94.6529415,21.6814079 C94.3715769,22.7843259 93.6735023,23.9452696 92.2995548,23.9452696 C91.5015722,23.9452696 91.0554022,23.4402311 91.0554022,22.5823105 C91.0554022,21.8413009 91.5429871,20.1069774 92.1420077,17.7610201 C92.426788,16.643918 92.9352937,14.5601509 92.9352937,14.5601509" id="Fill-3"></path>
                    </g>
                    <g id="Group-8" transform="translate(0.000000, -0.000000)">
                        <mask id="mask-2" fill="white">
                            <use xlink:href="#path-1"></use>
                        </mask>
                        <g id="Clip-7"></g>
                        <path d="M12.1958625,9.28979116e-14 C4.08824496,9.28979116e-14 0,5.86982794 0,10.7647437 C0,13.7284937 1.11119632,16.36487 3.49443105,17.3478393 C3.88540754,17.5089818 4.23564855,17.353352 4.34861598,16.916571 C4.42756719,16.6142168 4.61444639,15.8509102 4.69801709,15.5332898 C4.81182442,15.1015975 4.76814928,14.9497843 4.45234443,14.5732197 C3.76530091,13.7543613 3.32560985,12.6950613 3.32560985,11.1938916 C3.32560985,6.83880329 6.55253067,2.9408508 11.7280346,2.9408508 C16.3101446,2.9408508 18.8281843,5.76847778 18.8281843,9.54430122 C18.8281843,14.5130033 16.6503067,18.7065251 13.4179265,18.7065251 C11.6327052,18.7065251 10.296414,17.2155328 10.7243463,15.3869894 C11.2379492,13.2039324 12.2311386,10.8482834 12.2311386,9.27247925 C12.2311386,7.86205823 11.4815221,6.68571791 9.92979477,6.68571791 C8.10467791,6.68571791 6.63862109,8.59186417 6.63862109,11.1455489 C6.63862109,12.7722401 7.18288051,13.8722498 7.18288051,13.8722498 C7.18288051,13.8722498 5.31534838,21.862798 4.98778484,23.2621934 C4.33559743,26.0491107 4.88993573,29.4653319 4.93697049,29.8105161 C4.9638475,30.0149127 5.22421852,30.0636795 5.34264534,29.9088979 C5.51062664,29.6871149 7.6843047,26.9778005 8.42342244,24.2701822 C8.63255916,23.5034831 9.62364885,19.5334406 9.62364885,19.5334406 C10.2166228,20.6754321 11.94935,21.6813006 13.7921049,21.6813006 C19.2779543,21.6813006 23,16.6316032 23,9.87167495 C23,4.76006492 18.7126972,9.28979116e-14 12.1958625,9.28979116e-14" id="Fill-6" fill="#CA2026" mask="url(#mask-2)"></path>
                    </g>
                </g>
            </g>
        </g>
    </g>
</svg>