<?xml version="1.0" encoding="utf-8"?>
<!-- Generator: Adobe Illustrator 17.0.0, SVG Export Plug-In . SVG Version: 6.00 Build 0)  -->
<!DOCTYPE svg PUBLIC "-//W3C//DTD SVG 1.1//EN" "http://www.w3.org/Graphics/SVG/1.1/DTD/svg11.dtd">
<svg version="1.1" id="Слой_1" xmlns="http://www.w3.org/2000/svg" xmlns:xlink="http://www.w3.org/1999/xlink" x="0px" y="0px"
	 width="126px" height="122.995px" viewBox="0 -1.998 126 122.995" enable-background="new 0 -1.998 126 122.995"
	 xml:space="preserve">
<title>Page 1</title>
<desc>Created with Sketch.</desc>
<g id="Resource-Center" transform="translate(-129.000000, -800.000000)">
	<g id="Success-Stories" transform="translate(9.000000, 664.000000)">
		<g id="Card-1---Freqently-Asked" transform="translate(0.000000, 66.000000)">
			<g id="Page-1" transform="translate(120.000000, 70.000000)">
				<path id="Stroke-3" fill="none" stroke="#284E7B" stroke-width="2" d="M108.167,78.541V61.166l0.476-0.293
					C119.074,54.462,125,44.875,125,34.48C125,16.078,105.979,1,82.502,1C59.022,1,40,16.077,40,34.48
					c0,18.4,19.022,33.476,42.502,33.476c4.446,0,8.843-0.546,13.074-1.622l0.56-0.142L108.167,78.541z"/>
				<path id="Stroke-5" fill="none" stroke="#284E7B" stroke-width="2" d="M11.64,116.582l7.128-7.146l0.549,0.137
					c2.648,0.659,5.396,0.992,8.181,0.992c14.659,0,26.501-9.164,26.501-20.281C54,79.164,42.158,70,27.499,70
					C12.84,70,1,79.164,1,90.283c0,6.271,3.669,12.067,10.155,15.96l0.485,0.291V116.582z"/>
			</g>
		</g>
	</g>
</g>
</svg>
