<?xml version="1.0" encoding="utf-8"?>
<!-- Generator: Adobe Illustrator 17.0.0, SVG Export Plug-In . SVG Version: 6.00 Build 0)  -->
<!DOCTYPE svg PUBLIC "-//W3C//DTD SVG 1.1//EN" "http://www.w3.org/Graphics/SVG/1.1/DTD/svg11.dtd">
<svg version="1.1" id="Слой_1" xmlns="http://www.w3.org/2000/svg" xmlns:xlink="http://www.w3.org/1999/xlink" x="0px" y="0px"
	 width="126px" height="122.995px" viewBox="-19.5 -6.498 126 122.995" enable-background="new -19.5 -6.498 126 122.995"
	 xml:space="preserve">
<title>Page 1 Copy 2</title>
<desc>Created with Sketch.</desc>
<g id="Resource-Center" transform="translate(-148.000000, -1842.000000)">
	<g id="Success-Stories" transform="translate(9.000000, 664.000000)">
		<g id="Card-5---Data-Sheets" transform="translate(0.000000, 1099.000000)">
			<g id="Page-1-Copy-2" transform="translate(139.000000, 79.000000)">
				<g id="Group-5">
					<path id="Stroke-1" fill="none" stroke="#284E7B" stroke-width="2" d="M1,109h85V1H32.14L1,32.046V109z"/>
					<path id="Stroke-3" fill="none" stroke="#284E7B" d="M1.207,31.5H31.5V1.207L1.207,31.5z"/>
				</g>
				<g id="Page-1" transform="translate(25.000000, 43.000000)">
					<path id="Path" fill="none" stroke="#578BC1" stroke-width="2" d="M19,28c4.962,0,9-4.038,9-9.002C28,14.037,23.963,10,19,10
						s-9,4.037-9,8.998C10,23.962,14.038,28,19,28z"/>
					<path id="Fill-3" fill="none" stroke="#578BC1" stroke-width="2" d="M21.053,37l1.506-4.56l3.427-1.42l4.292,2.161l2.903-2.903
						l-2.161-4.29l1.418-3.429L37,21.054v-4.106l-4.562-1.505l-1.418-3.429l2.16-4.29l-2.904-2.903l-4.29,2.161l-3.427-1.42
						L21.052,1h-4.106l-1.503,4.562l-3.43,1.42l-4.29-2.161L4.82,7.724l2.162,4.29L5.56,15.443L1,16.948v4.106l4.56,1.505
						l1.422,3.429l-2.162,4.29l2.904,2.903l4.289-2.161l3.431,1.42L16.946,37H21.053z"/>
				</g>
			</g>
		</g>
	</g>
</g>
</svg>
