<?xml version="1.0" encoding="UTF-8"?>
<svg width="45px" height="45px" viewBox="0 0 45 45" version="1.1" xmlns="http://www.w3.org/2000/svg" xmlns:xlink="http://www.w3.org/1999/xlink">
    <!-- Generator: Sketch 48.2 (47327) - http://www.bohemiancoding.com/sketch -->
    <title>Page 1</title>
    <desc>Created with Sketch.</desc>
    <defs>
        <polygon id="path-1" points="0 22.5 0 45 45 45 45 22.5 45 9.8754338e-14 0 9.8754338e-14"></polygon>
    </defs>
    <g id="Home" stroke="none" stroke-width="1" fill="none" fill-rule="evenodd" transform="translate(-796.000000, -948.000000)">
        <g id="Clients" transform="translate(190.000000, 843.000000)">
            <g id="Group" transform="translate(25.000000, 105.000000)">
                <g id="Page-1" transform="translate(581.000000, 0.000000)">
                    <g id="Group-3" transform="translate(0.000000, -0.000000)">
                        <mask id="mask-2" fill="white">
                            <use xlink:href="#path-1"></use>
                        </mask>
                        <g id="Clip-2"></g>
                        <path d="M0,33.5541429 L0,33.556469 C0.0267709339,34.5551342 0.035306594,35.5600023 0.203691889,36.5524646 C0.382552766,37.603079 0.638234584,38.6273311 1.12515519,39.5806377 C1.78434094,40.8708387 2.68912091,41.9606089 3.83134743,42.8503358 C4.65115878,43.4896211 5.54701511,43.997095 6.5390916,44.3169315 C7.98472203,44.7829236 9.47652262,44.9616443 10.9900504,44.9701733 C11.9344047,44.9763762 12.8779832,45.0000247 13.8227255,44.9961479 C20.6830684,44.9670719 27.5434112,45.045771 34.404142,44.953503 C35.3147417,44.9414849 36.209822,44.8306083 37.1033505,44.6670071 C38.8159143,44.3537612 40.329054,43.6241463 41.6241464,42.4696335 C43.1334063,41.1243818 44.1514778,39.4786777 44.6108515,37.4918147 C44.9119275,36.1934724 44.9871965,34.8761337 45,33.5541429 L45,33.2901324 C45,33.1881724 44.9612015,10.8275313 44.9573217,10.531731 C44.9476221,9.7199278 44.8874845,8.91432753 44.7353945,8.11531783 C44.5499379,7.14185186 44.2880484,6.19358514 43.8216909,5.31277483 C43.3293385,4.38195373 42.7120551,3.54572669 41.9488895,2.8145611 C40.7795041,1.69416419 39.4308698,0.902132737 37.8603083,0.483050017 C36.4418368,0.10467376 34.9946544,0.020934752 33.5366085,0.0224854743 C33.5346686,0.0220977937 33.5288488,0.00736593125 33.5288488,9.8754338e-14 L11.4645555,9.8754338e-14 C11.4637795,0.00775361184 11.4637795,0.0151195431 11.4630035,0.0224854743 C10.6358205,0.0376050174 9.80708546,0.0314021279 8.98417023,0.133362124 C8.08249414,0.245401815 7.1893537,0.414042872 6.33578769,0.728839513 C4.99142123,1.22584603 3.82358774,1.99965649 2.82569147,3.03282527 C1.69549248,4.20323298 0.898572217,5.5570136 0.476057042,7.13332289 C0.0989360601,8.53982808 0.0166833356,9.97385859 0.0147434129,11.4183565" id="Fill-1" fill="#F6EB20" mask="url(#mask-2)"></path>
                    </g>
                    <path d="M22.7073558,38 C22.614172,38 22.5244826,37.9965034 22.4569243,37.9933953 C22.4033436,37.9980574 22.3474333,38 22.2919113,38 C20.3268978,38 19.0130061,37.0706838 17.8536442,36.2497619 C17.0227553,35.6623346 16.2392347,35.1083191 15.320986,34.9552461 C14.869821,34.8806522 14.421374,34.8425782 13.9880692,34.8425782 C13.2072666,34.8425782 12.5899239,34.9637934 12.1395355,35.0515967 C11.8623136,35.1059881 11.6231419,35.1526093 11.4387156,35.1526093 C11.2449709,35.1526093 11.0096818,35.1094847 10.9118388,34.7745889 C10.8341856,34.5107906 10.7782753,34.2543739 10.7246946,34.008447 C10.5899664,33.3926584 10.4925117,33.0165806 10.2618817,32.9808377 C7.79794654,32.6008748 6.34194954,32.0398662 6.05191494,31.361139 C6.02085367,31.2900416 6.00415824,31.2181672 6.00066385,31.1470699 C5.98901587,30.9450446 6.13189771,30.7674955 6.3310781,30.7344721 C8.28832633,30.4120087 10.0285339,29.3770177 11.5039442,27.6570834 C12.6466107,26.3252707 13.2076549,25.0532886 13.2678361,24.9126479 C13.2701657,24.9064317 13.2736601,24.8998271 13.2767662,24.8939994 C13.5609768,24.3162848 13.6176636,23.8174378 13.4456618,23.4114448 C13.1276721,22.6620087 12.0762481,22.3282785 11.3800874,22.1076048 C11.2073091,22.0524363 11.0434609,22.0007645 10.9133919,21.9490926 C10.2964374,21.7051083 9.28228695,21.1899439 9.41740347,20.4789703 C9.51563473,19.9606978 10.200924,19.5997719 10.7545911,19.5997719 C10.9083444,19.5997719 11.045014,19.6265791 11.1595524,19.680582 C11.7850487,19.9739072 12.3480342,20.1227065 12.8322018,20.1227065 C13.4344021,20.1227065 13.7252133,19.8934856 13.7958776,19.8282159 C13.7784057,19.5065295 13.7570511,19.1665831 13.7368612,18.8452852 C13.7368612,18.8448967 13.736473,18.8414001 13.736473,18.8414001 C13.5947559,16.5911495 13.4184832,13.7915455 14.1344455,12.1858332 C16.2768965,7.3799629 20.8199954,7.00621616 22.1606775,7.00621616 C22.1963979,7.00621616 22.7450176,7.00038851 22.7450176,7.00038851 C22.7698666,7 22.796657,7 22.8246121,7 C24.1691768,7 28.7215941,7.37374674 30.8652099,12.1831136 C31.5807839,13.789603 31.4041229,16.5919265 31.2627942,18.8441197 L31.2561937,18.951737 C31.2367804,19.257883 31.2189201,19.5469345 31.2033895,19.8278274 C31.269783,19.8888234 31.5357451,20.0990074 32.077376,20.1203755 C32.5386358,20.1028925 33.069007,19.9544817 33.6533471,19.6809705 C33.8338907,19.5962753 34.0338477,19.5784039 34.1693524,19.5784039 C34.3751334,19.5784039 34.5836321,19.6184204 34.7575752,19.6910718 L34.7672819,19.6945684 C35.2627091,19.8705635 35.5872994,20.2225536 35.5942882,20.5920268 C35.6005004,20.9366353 35.3446332,21.4517997 34.0862636,21.9494812 C33.9573593,21.9999875 33.7927346,22.0524363 33.6191797,22.1076048 C32.9226307,22.328667 31.8719833,22.6623972 31.5539936,23.4110562 C31.3816035,23.8174378 31.4382903,24.3158963 31.7228892,24.8936109 C31.7259953,24.8994385 31.7283249,24.9060432 31.7314311,24.9122594 C31.8195674,25.1181697 33.9391108,29.9543438 38.668189,30.7340836 C38.8673694,30.767107 39.0106395,30.9446561 38.9993798,31.1466814 C38.9947206,31.2193328 38.9772487,31.2915956 38.9465757,31.362693 C38.6588707,32.0375351 37.2028737,32.5977667 34.7373854,32.9785066 C34.5063672,33.0142495 34.4089125,33.3883848 34.2757373,34.0010653 C34.2202153,34.2535969 34.164305,34.5018548 34.0878166,34.7625451 C34.0159874,35.007695 33.8564102,35.1269676 33.6001547,35.1269676 L33.5613281,35.1269676 C33.3943738,35.1269676 33.1583081,35.0970523 32.8601199,35.0387758 C32.3394554,34.9369862 31.7551153,34.8425782 31.0115862,34.8425782 C30.5778932,34.8425782 30.1298344,34.8810407 29.6782812,34.9556347 C28.7611972,35.1083191 27.9776767,35.6619461 27.1483408,36.2485964 C25.986261,37.0702953 24.6723694,38 22.7073558,38" id="Fill-4" fill="#FEFEFE"></path>
                    <path d="M23.3271121,7 L23.3255495,7 C23.2962504,7 23.2689045,7 23.24234,7.00039105 C23.0329489,7.0023463 22.6887819,7.00586575 22.6579201,7.0062568 C21.902784,7.0062568 20.3929024,7.11301341 18.7709028,7.82980777 C17.8434878,8.23923696 17.0090487,8.79296355 16.2914154,9.47573658 C15.435881,10.2887292 14.7385618,11.2917721 14.2197719,12.4563185 C13.4599479,14.1616869 13.6404305,17.0343391 13.7849729,19.3427063 L13.7857542,19.3466168 C13.8009898,19.5937603 13.8173973,19.8518532 13.8322422,20.1032983 C13.7209055,20.1549168 13.5400322,20.2088817 13.2739962,20.2088817 C12.8454476,20.2088817 12.3356428,20.0716232 11.7598173,19.8014078 C11.5898824,19.7224157 11.3965082,19.6825286 11.1828199,19.6825286 C10.8398248,19.6825286 10.4780783,19.7834195 10.1647729,19.967995 C9.77021138,20.1998876 9.51511366,20.5279784 9.44557707,20.8912637 C9.40026109,21.1317594 9.40221436,21.607276 9.92959862,22.0886583 C10.2194646,22.3541812 10.6456693,22.5989784 11.1957115,22.8164021 C11.3398632,22.8734954 11.5113608,22.9278513 11.6930153,22.9853356 C12.3223606,23.1855532 13.2755588,23.4886168 13.5236247,24.0736274 C13.6498063,24.3704342 13.5955052,24.7607019 13.3630655,25.2330901 C13.3572057,25.2459948 13.3509552,25.2585084 13.3450954,25.2718041 C13.2872784,25.4074984 12.7454399,26.6357859 11.6344171,27.9313341 C11.0027279,28.668072 10.3077527,29.2835845 9.56824274,29.7618384 C8.66661098,30.3452848 7.69036411,30.7265584 6.66723865,30.8954919 C6.26603595,30.9611883 5.97929518,31.31939 6.00117186,31.7264729 C6.00820365,31.8441789 6.03594015,31.9611028 6.08360006,32.0741162 L6.08477203,32.0764625 C6.24689386,32.4561719 6.62348529,32.779179 7.23603234,33.0642544 C7.98374603,33.4122887 9.10258197,33.704794 10.5601158,33.9335582 C10.6339496,34.073554 10.710518,34.4258899 10.7636471,34.6671677 C10.8187294,34.9240874 10.876937,35.187655 10.9589746,35.4676467 C11.0476533,35.7714925 11.2785304,36.1336046 11.871154,36.1336046 C12.09539,36.1336046 12.353613,36.0835502 12.652464,36.0252838 C13.0903883,35.9392529 13.6892624,35.8219379 14.4361948,35.8219379 C14.8506798,35.8219379 15.2800096,35.8583055 15.7124647,35.9302587 C16.5453412,36.0690814 17.2637558,36.5770552 18.0942883,37.1651941 C19.310788,38.0258948 20.6874562,39 22.7911335,39 C22.8481691,39 22.905986,38.9984358 22.962631,38.9941343 C23.0321676,38.9976537 23.1185024,39 23.2091343,39 C25.3135929,39 26.6898705,38.0251127 27.9048075,37.1655852 L27.9071515,37.1636299 C28.7380747,36.5762731 29.4557079,36.0690814 30.2881937,35.9302587 C30.7202582,35.8583055 31.149588,35.8219379 31.564073,35.8219379 C32.2777997,35.8219379 32.8430775,35.9130525 33.3478038,36.0115971 C33.6771259,36.0765113 33.933005,36.1077953 34.1295044,36.1077953 L34.1486465,36.1081864 L34.1689606,36.1081864 C34.6018063,36.1081864 34.9205808,35.870037 35.0416839,35.4535689 C35.1225495,35.1790519 35.1803664,34.9217411 35.2370114,34.6609109 C35.2866246,34.4348841 35.3655369,34.0723809 35.4393707,33.9304298 C36.8980765,33.7012746 38.0165218,33.4095514 38.7646261,33.061517 C39.3752199,32.7780059 39.7514207,32.4553898 39.9147145,32.0764625 C39.963937,31.963058 39.9920642,31.8457431 39.9987053,31.7256908 C40.0217539,31.31939 39.7346225,30.9604062 39.3326385,30.8943188 C34.7873675,30.1446762 32.7399446,25.4696753 32.6551724,25.271022 C32.6493126,25.2581173 32.6434528,25.2452127 32.6368117,25.2326991 C32.4047626,24.7603109 32.3512428,24.3696521 32.4770338,24.0728453 C32.7250997,23.4878347 33.6771259,23.1851621 34.3068618,22.9849446 C34.4892977,22.9274603 34.6615766,22.8727133 34.8045563,22.8164021 C35.4249164,22.5708228 35.8683099,22.3049089 36.1609105,22.0030184 C36.5097654,21.6428615 36.5777394,21.2979555 36.5734422,21.0719287 C36.5628945,20.5256321 36.1456749,20.0403392 35.4819521,19.8025809 C35.2581068,19.7095111 35.0022277,19.6606298 34.7420515,19.6606298 C34.5650848,19.6606298 34.3025646,19.6848749 34.054108,19.8010167 C33.5224266,20.0505065 33.0458274,20.1865919 32.6372023,20.2057533 C32.4196075,20.1948039 32.267252,20.1474869 32.1684163,20.1025162 C32.1805266,19.889394 32.1941995,19.6704061 32.2086538,19.442033 L32.2145136,19.3446616 C32.3602279,17.0347301 32.5411012,14.1597316 31.7812772,12.4527991 C31.2601434,11.2839511 30.5604803,10.278953 29.7010393,9.46361403 C28.9806714,8.780841 28.1434977,8.22711442 27.2125669,7.81768523 C25.5929112,7.10636556 24.0830296,7 23.3271121,7 M23.3221062,8 C24.5800564,8 28.9105528,8.3379847 30.9515876,12.914282 C31.6239603,14.4213234 31.4511416,17.1510514 31.313041,19.3437078 C31.2914386,19.6921098 31.2702221,20.0293229 31.252863,20.3514887 L31.2455337,20.4900006 L31.3377293,20.5930165 C31.3751477,20.6343 31.7246426,20.9992926 32.5015551,21.0293872 L32.5138993,21.0301588 L32.527015,21.0301588 C33.0408419,21.0100958 33.6194759,20.8507491 34.2474866,20.5563629 C34.340068,20.5131503 34.4635099,20.4919298 34.5938954,20.4919298 C34.7420257,20.4919298 34.9001856,20.5197093 35.0305712,20.5744968 L35.049859,20.5822134 C35.3796803,20.6979615 35.6122911,20.9155681 35.615763,21.1127259 C35.6180775,21.2238441 35.5347542,21.6254903 34.3666852,22.0865539 C34.2525014,22.1320815 34.1020566,22.1799241 33.9280806,22.2347116 C33.1677556,22.4762395 32.0197459,22.8400746 31.6332184,23.7513986 C31.4152663,24.2645489 31.4754442,24.8699119 31.8102804,25.550897 C31.9476095,25.872677 34.1174868,30.760337 39,31.5651727 C38.9988427,31.5879365 38.9926706,31.6137869 38.9795549,31.6434956 C38.8970032,31.8383384 38.3712178,32.511607 35.0980785,33.0166549 C34.5857945,33.0953636 34.4604238,33.6694746 34.3149939,34.3369558 C34.262531,34.5757829 34.2092967,34.816925 34.1356173,35.0661694 C34.1132435,35.1414057 34.1090002,35.1460356 34.0283772,35.1460356 L33.9898016,35.1460356 C33.8447573,35.1460356 33.6244907,35.1159411 33.3691202,35.0657836 C32.9038985,34.9751141 32.2685585,34.8639959 31.4565422,34.8639959 C31.0032789,34.8639959 30.5361285,34.9033503 30.0678207,34.9812874 C29.0663982,35.1479648 28.2516817,35.7243907 27.3891313,36.3339978 C26.2307062,37.1527233 25.0337054,38 23.2063794,38 C23.126528,38 23.048991,37.9972992 22.9710683,37.9934409 L22.9502375,37.9926693 L22.9297924,37.9942126 C22.884659,37.9980709 22.8399113,38 22.7936206,38 C20.9674518,38 19.7692938,37.1531091 18.6112544,36.3339978 C17.7487041,35.7243907 16.9336018,35.1479648 15.932565,34.9812874 C15.4642573,34.9033503 14.9971068,34.8639959 14.5438436,34.8639959 C13.7318273,34.8639959 13.0957157,34.9882323 12.6316513,35.0789017 C12.3762808,35.1286734 12.1552427,35.1715002 12.0105842,35.1715002 C11.8917713,35.1715002 11.8898426,35.1649412 11.8647684,35.0789017 C11.791089,34.8300431 11.7378547,34.5827278 11.6850061,34.3442865 C11.5395762,33.6760337 11.4138197,33.0984503 10.9023073,33.0201273 C7.62916797,32.5146936 7.1033826,31.8402675 7.02044507,31.6458106 C7.00732936,31.6149444 7.00154302,31.5887081 7,31.5659443 C11.8825132,30.7618803 14.051619,25.8738345 14.1897196,25.550897 C14.5253273,24.8702977 14.5847337,24.2649347 14.3663958,23.7513986 C13.9798684,22.8408462 12.8318586,22.4762395 12.0723051,22.2350974 C11.8975577,22.1803099 11.7471129,22.1320815 11.6329291,22.0865539 C10.6469369,21.6972542 10.3429612,21.304482 10.3884804,21.0664266 C10.4405574,20.7921034 10.9161945,20.5131503 11.3312679,20.5131503 C11.4246209,20.5131503 11.5064011,20.5281975 11.5665791,20.5563629 C12.2408805,20.8723555 12.8561612,21.0324738 13.3962196,21.0324738 C14.244497,21.0324738 14.6217663,20.6377725 14.6626564,20.5926307 L14.7544663,20.4900006 L14.747137,20.3522603 C14.7301637,20.0300945 14.7085614,19.6928815 14.6861875,19.3456369 C14.5488584,17.1522089 14.3768112,14.4240242 15.0484124,12.9169828 C17.0813463,8.35766189 21.3913976,8.00617324 22.6636208,8.00617324 C22.694867,8.00617324 23.2480411,8.00038583 23.2480411,8.00038583 C23.2704149,8.00038583 23.2958748,8 23.3221062,8" id="Fill-6" fill="#040505"></path>
                </g>
            </g>
        </g>
    </g>
</svg>