<?xml version="1.0" encoding="utf-8"?>
<!-- Generator: Adobe Illustrator 17.0.0, SVG Export Plug-In . SVG Version: 6.00 Build 0)  -->
<!DOCTYPE svg PUBLIC "-//W3C//DTD SVG 1.1//EN" "http://www.w3.org/Graphics/SVG/1.1/DTD/svg11.dtd">
<svg version="1.1" id="Слой_1" xmlns="http://www.w3.org/2000/svg" xmlns:xlink="http://www.w3.org/1999/xlink" x="0px" y="0px"
	 width="126px" height="122.995px" viewBox="-20 -6.498 126 122.995" enable-background="new -20 -6.498 126 122.995"
	 xml:space="preserve">
<title>Group 3</title>
<desc>Created with Sketch.</desc>
<g id="Resource-Center" transform="translate(-530.000000, -809.000000)">
	<g id="Success-Stories" transform="translate(9.000000, 664.000000)">
		<g id="Card-2---Success-Stories" transform="translate(381.000000, 66.000000)">
			<g id="Group-3" transform="translate(140.000000, 79.000000)">
				<g id="Page-1">
					<g id="Group-5">
						<path id="Stroke-1" fill="none" stroke="#284E7B" stroke-width="2" d="M1,109h84V1H31.779L1,32.043V109z"/>
						<path id="Stroke-3" fill="none" stroke="#284E7B" d="M1.181,31.5H30.5V1.235L1.181,31.5z"/>
					</g>
				</g>
				<g id="Page-1_1_" transform="translate(12.000000, 34.000000)">
					<path id="Stroke-1_1_" fill="none" stroke="#578BC1" stroke-width="2" d="M9,39.499C9,41.986,6.986,44,4.501,44
						S0,41.986,0,39.499C0,37.014,2.015,35,4.501,35S9,37.014,9,39.499z"/>
					<path id="Stroke-3_1_" fill="none" stroke="#578BC1" stroke-width="2" d="M28,25.499C28,27.986,25.986,30,23.5,30
						S19,27.986,19,25.499C19,23.014,21.014,21,23.5,21S28,23.014,28,25.499z"/>
					<path id="Stroke-5" fill="none" stroke="#578BC1" stroke-width="2" d="M47,32.499C47,34.986,44.985,37,42.501,37
						C40.014,37,38,34.986,38,32.499C38,30.014,40.014,28,42.501,28C44.985,28,47,30.014,47,32.499z"/>
					<path id="Stroke-7" fill="none" stroke="#578BC1" stroke-width="2" d="M66,4.501C66,6.986,63.986,9,61.501,9
						C59.015,9,57,6.986,57,4.501C57,2.014,59.015,0,61.501,0C63.986,0,66,2.014,66,4.501z"/>
					<path id="Stroke-9" fill="none" stroke="#578BC1" stroke-width="2" d="M59,8L45,28"/>
					<path id="Stroke-11" fill="none" stroke="#578BC1" stroke-width="2" d="M20,28L8,37"/>
					<path id="Stroke-13" fill="none" stroke="#578BC1" stroke-width="2" d="M38,31l-10-4"/>
				</g>
			</g>
		</g>
	</g>
</g>
</svg>
