<?xml version="1.0" encoding="UTF-8"?>
<svg width="120px" height="35px" viewBox="0 0 120 35" version="1.1" xmlns="http://www.w3.org/2000/svg" xmlns:xlink="http://www.w3.org/1999/xlink">
    <!-- Generator: Sketch 48.2 (47327) - http://www.bohemiancoding.com/sketch -->
    <title>Page 1</title>
    <desc>Created with Sketch.</desc>
    <defs>
        <polygon id="path-1" points="0 36 120 36 120 1 0 1"></polygon>
    </defs>
    <g id="Home" stroke="none" stroke-width="1" fill="none" fill-rule="evenodd" transform="translate(-393.000000, -1035.000000)">
        <g id="Clients" transform="translate(190.000000, 843.000000)">
            <g id="Group" transform="translate(25.000000, 105.000000)">
                <g id="Page-1" transform="translate(178.000000, 86.000000)">
                    <polygon id="Fill-1" fill="#80B9E4" points="88.1628872 1 78 22.828434 81.0049581 29 95 1"></polygon>
                    <polygon id="Fill-2" fill="#293D49" points="78 23 78.803 21.6314545 78.412 21"></polygon>
                    <polygon id="Fill-3" fill="#557C98" points="69 1 79.2363832 21 82 13.8223653 75.7313571 1"></polygon>
                    <polygon id="Fill-4" fill="#1F5373" points="78 20.9003451 78.0507307 21 81 14.8455565 80.5966597 14"></polygon>
                    <polygon id="Fill-5" fill="#557C98" points="20.1798234 1 12.5727084 20.0773923 4.92729161 1 2.26460831e-14 1 10.5427162 26 14.4559855 26 25 1"></polygon>
                    <polygon id="Fill-6" fill="#557C98" points="26 1 26 26 45 26 45 22.0718308 30.4598865 22.0718308 30.4598865 15.3578487 43.1891457 15.3578487 43.1891457 11.4283995 30.4598865 11.4283995 30.4598865 4.92816916 44.8200192 4.92816916 44.8200192 1"></polygon>
                    <g id="Group-34" transform="translate(0.000000, -0.000000)">
                        <path d="M58.1117195,13 C61.0994414,13 63,11.4335494 63,9.01738467 L63,8.94784598 C63,6.39565383 61.1681876,5 58.0764338,5 L52,5 L52,13 L58.1117195,13 Z M48,1 L59.030559,1 C62.1435941,1 64.5813147,1.92860434 66.1714079,3.49974401 C67.4802256,4.85713189 68.222058,6.71434057 68.222058,8.89345689 L68.222058,8.96513414 C68.222058,13.0718564 65.7843374,15.5357618 62.318441,16.5354034 L69,26 L63.8736915,26 L57.7939606,17.2854546 L52.3483665,17.2854546 L52.3483665,26 L48,26 L48,1 Z" id="Fill-7" fill="#557C98"></path>
                        <polygon id="Fill-9" fill="#557C98" points="97 1 115.820007 1 115.820007 4.92880913 101.458892 4.92880913 101.458892 11.4296795 114.187073 11.4296795 114.187073 15.3578487 101.458892 15.3578487 101.458892 22.0718308 116 22.0718308 116 26 97 26"></polygon>
                        <path d="M118.267,23.895 C118.628,23.895 118.867,23.722 118.867,23.442 C118.867,23.148 118.654,23 118.279,23 L118,23 L118,23.895 L118.267,23.895 Z M118,23.8820059 L118.155977,23.8820059 L118.155977,23.1167299 L118,23.1167299 L118,23 L118.44898,23 C118.707969,23 118.88241,23.1061947 118.88241,23.2970923 C118.88241,23.426043 118.778426,23.5217025 118.648688,23.5672145 L118.857629,23.8820059 L119,23.8820059 L119,24 L118.753158,24 L118.493197,23.6009271 L118.305637,23.6009271 L118.305637,23.8820059 L118.461613,23.8820059 L118.461613,24 L118,24 L118,23.8820059 Z M117,23.4953023 C117,24.3351 117.644634,25 118.499623,25 C119.355366,25 120,24.3351 120,23.4953023 C120,22.6656227 119.365167,22 118.499623,22 C117.644634,22 117,22.6656227 117,23.4953023 Z M117,23.5034627 C117,22.6717733 117.635309,22 118.496134,22 C119.356314,22 120,22.6717733 120,23.5034627 C120,24.3263379 119.356314,25 118.496134,25 C117.635309,25 117,24.3263379 117,23.5034627 Z" id="Fill-11" fill="#FEFEFE"></path>
                        <polygon id="Fill-13" fill="#80B9E4" points="48 36 48 31 48.7177991 31 48.7177991 35.3188119 51 35.3188119 51 36"></polygon>
                        <path d="M54.7167355,32.3313819 C54.5484281,32.1291467 54.2842172,32 54.0003176,32 C53.7164179,32 53.452207,32.1291467 53.2838997,32.3313819 C53.0476342,32.6194784 53,32.9210573 53,34.001774 C53,35.0810715 53.0476342,35.3819407 53.2838997,35.6686181 C53.452207,35.8736917 53.7164179,36 54.0003176,36 C54.2842172,36 54.5484281,35.8736917 54.7167355,35.6686181 C54.953001,35.3819407 55,35.0810715 55,34.001774 C55,32.9210573 54.953001,32.6194784 54.7167355,32.3313819 M54.6018478,35.475974 C54.3149567,35.8149351 53.9449166,36 53.4999875,36 C53.0545078,36 52.6910756,35.8149351 52.4047351,35.475974 C51.9944972,34.9909091 52.0000038,34.4454545 52.0000038,33.5006494 C52.0000038,32.5532468 51.9944972,32.0077922 52.4047351,31.5246753 C52.6910756,31.1857143 53.0545078,31 53.4999875,31 C53.9449166,31 54.3149567,31.1857143 54.6018478,31.5246753 C55.0109844,32.0077922 54.9999713,32.5532468 54.9999713,33.5006494 C54.9999713,34.4454545 55.0109844,34.9909091 54.6018478,35.475974" id="Fill-15" fill="#80B9E4"></path>
                        <path d="M57.5063619,36 C57.0706023,36 56.6940131,35.8149591 56.40535,35.4753928 C55.9939221,34.9916894 56.000005,34.4450071 56.000005,33.4990261 C56.000005,32.5530451 55.9939221,32.0083106 56.40535,31.5233087 C56.6940131,31.1863394 57.0706023,31 57.5063619,31 C58.2772362,31 58.8529035,31.5304506 59,32.5121413 L58.3535495,32.5121413 C58.2534575,32.0135047 57.9708773,31.6693936 57.5063619,31.6693936 C57.2591734,31.6693936 57.0357637,31.7797689 56.8892201,31.9661083 C56.6829532,32.2290612 56.6353957,32.5121413 56.6353957,33.4990261 C56.6353957,34.488508 56.6829532,34.7709388 56.8892201,35.0338917 C57.0357637,35.2189326 57.2591734,35.3293079 57.5063619,35.3293079 C57.9708773,35.3293079 58.2595404,34.9851967 58.3596324,34.488508 L59,34.488508 C58.8595394,35.4682509 58.2650704,36 57.5063619,36" id="Fill-17" fill="#80B9E4"></path>
                        <path d="M61.5062205,32 L61,34 L62,34 L61.5062205,32 Z M63.2450617,36 L62.9228395,34.9955121 L61.0771605,34.9955121 L60.7549383,36 L60,36 L61.7154321,31 L62.2851852,31 L64,36 L63.2450617,36 Z" id="Fill-19" fill="#80B9E4"></path>
                        <polygon id="Fill-21" fill="#80B9E4" points="66.8232418 31.6805281 66.8232418 36 66.1756299 36 66.1756299 31.6805281 65 31.6805281 65 31 68 31 68 31.6805281"></polygon>
                        <mask id="mask-2" fill="white">
                            <use xlink:href="#path-1"></use>
                        </mask>
                        <g id="Clip-24"></g>
                        <polygon id="Fill-23" fill="#80B9E4" mask="url(#mask-2)" points="69 36 70 36 70 31 69 31"></polygon>
                        <path d="M73.7159199,32.3313819 C73.5475056,32.1291467 73.2831268,32 72.9990467,32 C72.7156022,32 72.4518589,32.1291467 72.2834446,32.3313819 C72.0463934,32.6194784 72,32.9210573 72,34.001774 C72,35.0810715 72.0463934,35.3819407 72.2834446,35.6686181 C72.4518589,35.8736917 72.7156022,36 72.9990467,36 C73.2831268,36 73.5475056,35.8736917 73.7159199,35.6686181 C73.9529711,35.3819407 74,35.0810715 74,34.001774 C74,32.9210573 73.9529711,32.6194784 73.7159199,32.3313819 M73.6011508,35.475974 C73.315256,35.8149351 72.9461818,36 72.4994367,36 C72.0543442,36 71.6918802,35.8149351 71.4043329,35.475974 C70.9944952,34.9909091 71.0000038,34.4454545 71.0000038,33.5006494 C71.0000038,32.5532468 70.9944952,32.0077922 71.4043329,31.5246753 C71.6918802,31.1857143 72.0543442,31 72.4994367,31 C72.9461818,31 73.315256,31.1857143 73.6011508,31.5246753 C74.0109885,32.0077922 73.9999713,32.5532468 73.9999713,33.5006494 C73.9999713,34.4454545 74.0109885,34.9909091 73.6011508,35.475974" id="Fill-25" fill="#80B9E4" mask="url(#mask-2)"></path>
                        <polygon id="Fill-26" fill="#80B9E4" mask="url(#mask-2)" points="79.2611822 36 76.8054727 32.4825083 76.8054727 36 76 36 76 31 76.7388178 31 79.1945273 34.5108911 79.1945273 31 80 31 80 36"></polygon>
                        <path d="M85.106,32 L84,32 L84,34 L85.106,34 C85.6386667,34 86,33.6374455 86,33.00595 C86,32.3720746 85.6386667,32 85.106,32 M84.6257078,34.0343234 L83.6506229,34.0343234 L83.6506229,36 L83,36 L83,31 L84.6257078,31 C85.4637599,31 86,31.6468647 86,32.5174917 C86,33.3874587 85.4637599,34.0343234 84.6257078,34.0343234" id="Fill-27" fill="#80B9E4" mask="url(#mask-2)"></path>
                        <path d="M90.7160102,32.3313819 C90.5476493,32.1291467 90.2833545,32 89.9993647,32 C89.7160102,32 89.4523507,32.1291467 89.2827192,32.3313819 C89.0463787,32.6194784 89,32.9210573 89,34.001774 C89,35.0810715 89.0463787,35.3819407 89.2827192,35.6686181 C89.4523507,35.8736917 89.7160102,36 89.9993647,36 C90.2833545,36 90.5476493,35.8736917 90.7160102,35.6686181 C90.9523507,35.3819407 91,35.0810715 91,34.001774 C91,32.9210573 90.9523507,32.6194784 90.7160102,32.3313819 M90.602791,35.475974 C90.3146941,35.8149351 89.9450708,36 89.4994296,36 C89.0543392,36 88.6902244,35.8149351 88.4043309,35.475974 C87.9944952,34.9909091 88.0000038,34.4454545 88.0000038,33.5006494 C88.0000038,32.5532468 87.9944952,32.0077922 88.4043309,31.5246753 C88.6902244,31.1857143 89.0543392,31 89.4994296,31 C89.9450708,31 90.3146941,31.1857143 90.602791,31.5246753 C91.0126267,32.0077922 90.999957,32.5532468 90.999957,33.5006494 C90.999957,34.4454545 91.0126267,34.9909091 90.602791,35.475974" id="Fill-28" fill="#80B9E4" mask="url(#mask-2)"></path>
                        <polygon id="Fill-29" fill="#80B9E4" mask="url(#mask-2)" points="96.685341 36 96.0210363 36 94.9960142 32.4957096 93.9789637 36 93.3139947 36 92 31 92.8064659 31 93.6820195 34.5749175 94.6924269 31 95.3075731 31 96.3173162 34.5749175 97.195527 31 98 31"></polygon>
                        <polygon id="Fill-30" fill="#80B9E4" mask="url(#mask-2)" points="99 36 99 31 102 31 102 31.6818482 99.7121901 31.6818482 99.7121901 33.1425743 101.66343 33.1425743 101.66343 33.8151815 99.7121901 33.8151815 99.7121901 35.3188119 102 35.3188119 102 36"></polygon>
                        <path d="M105.138462,32 L104,32 L104,34 L105.138462,34 C105.650167,34 106,33.6325327 106,33.0054783 C106,32.3784239 105.650167,32 105.138462,32 Z M106.028064,36 L104.872171,33.8943894 L103.832881,33.8943894 L103.832881,36 L103,36 L103,31 L105.127105,31 C106.167844,31 106.830527,31.6112211 106.830527,32.460066 C106.830527,33.1775578 106.351802,33.6330033 105.736918,33.7887789 L107,36 L106.028064,36 Z" id="Fill-31" fill="#80B9E4" mask="url(#mask-2)"></path>
                        <polygon id="Fill-32" fill="#80B9E4" mask="url(#mask-2)" points="108 36 108 31 111 31 111 31.6818482 108.712515 31.6818482 108.712515 33.1425743 110.662949 33.1425743 110.662949 33.8151815 108.712515 33.8151815 108.712515 35.3188119 111 35.3188119 111 36"></polygon>
                        <path d="M114.737439,32.3714856 C114.53128,32.1160892 114.255105,32 113.903728,32 L113,32 L113,36 L113.903728,36 C114.255105,36 114.53128,35.8839108 114.737439,35.6277889 C114.992869,35.3121712 115,34.7179394 115,33.9619082 C115,33.2051515 114.992869,32.6878288 114.737439,32.3714856 M114.571767,35.5299089 C114.304896,35.846164 113.919911,36 113.481997,36 L112,36 L112,31 L113.481997,31 C113.919911,31 114.304896,31.1531758 114.571767,31.4694309 C115.028066,32.0108279 114.999651,32.7410537 114.999651,33.4646771 C114.999651,34.1876403 115.028066,34.9885118 114.571767,35.5299089" id="Fill-33" fill="#80B9E4" mask="url(#mask-2)"></path>
                    </g>
                </g>
            </g>
        </g>
    </g>
</svg>