<?xml version="1.0" encoding="UTF-8"?>
<svg width="120px" height="22px" viewBox="0 0 120 22" version="1.1" xmlns="http://www.w3.org/2000/svg" xmlns:xlink="http://www.w3.org/1999/xlink">
    <!-- Generator: Sketch 48.2 (47327) - http://www.bohemiancoding.com/sketch -->
    <title>Page 1</title>
    <desc>Created with Sketch.</desc>
    <defs></defs>
    <g id="Home" stroke="none" stroke-width="1" fill="none" fill-rule="evenodd" transform="translate(-393.000000, -960.000000)">
        <g id="Clients" transform="translate(190.000000, 843.000000)" fill="#EE3D42">
            <g id="Group" transform="translate(25.000000, 105.000000)">
                <g id="Page-1" transform="translate(178.000000, 12.000000)">
                    <g id="Group-3" transform="translate(0.000000, 1.000000)">
                        <path d="M32.9922567,4.39346264 C32.4006274,4.45107737 29.9387944,4.987589 29.1099255,5.16002458 C28.2235313,5.38966627 20.125054,11.4776227 19.5934694,12.9743799 C19.4746397,13.4920952 19.4154348,14.2876688 19.4154348,15.0362517 L19.3562299,16.2437093 C19.3562299,17.1071131 19.6022872,18.4976303 19.720697,19.2449873 C20.2531214,19.3593995 24.1068998,19.2596974 24.8156793,19.3741097 L24.7283415,20.9186748 C24.035518,20.871684 19.1412446,20.8827166 16.3460166,20.8827166 C14.9276178,20.8827166 10.3646401,21.0347215 8.96345695,20.9926341 L9.22798958,19.5224369 C9.99681375,19.4652308 13.1791832,19.6568713 13.8799847,18.9381173 C14.2263965,18.5813964 14.1159646,18.1993412 14.1159646,16.1280713 L14.1159646,15.1502553 C14.1159646,14.6909719 14.1159646,13.8279768 13.9975547,13.0221878 C13.70195,12.1583755 6.56880689,3.49246633 4.73597372,2.11134727 C4.20396922,1.93850308 0.869178615,1.6144713 0.041149519,1.44162711 L-1.37704653e-14,0.116079703 C0.413174762,-0.0849589293 4.12167019,0.165522131 7.71973374,0.035582527 C10.0841515,-0.0498180302 15.4785175,0.035582527 16.1461475,0.112810782 L15.9744112,1.28104137 C15.264792,1.45347695 11.8481222,1.51681229 10.961728,1.74686259 C13.2682005,5.08320494 16.913712,9.37979278 18.0961308,11.0477596 C18.7457054,10.1263326 24.4604498,6.30128657 24.6384844,4.97778224 C23.7508305,4.80493805 20.8153582,4.39346264 20.3421387,4.39346264 L20.0608104,2.88730735 C20.8661653,2.76513144 25.0970076,2.88730735 27.2031912,2.88730735 C29.017969,2.88730735 32.8977807,2.88730735 34,2.97597683 L32.9922567,4.39346264 Z" id="Fill-1"></path>
                    </g>
                    <path d="M35.2567506,10.2548841 L35.215103,10 C34.4846682,11.6937756 33.2439359,14.355293 33,15 L37,14.9981826 C36.5125858,13.7482962 35.6210526,11.3030441 35.2567506,10.2548841 Z M44.9256319,22 C44.6676288,21.9618471 41.7386075,21.9635242 40.6679568,21.9635242 C40.0410216,21.9635242 36.8494271,21.9446574 36.2951981,21.9446574 L36.4626301,20.561931 C37.1988323,20.5250359 38.5706945,20.2248443 39.1980451,20.1497964 C38.7921368,19.2207115 37.4547582,16.2670101 37.1593632,15.7098107 C36.3849383,15.7098107 33.600914,15.798275 32.82732,15.945436 C32.6798303,16.2062171 31.6224744,17.2531145 31.4380084,18.6660278 C31.9544302,18.7779708 32.9453118,18.9938908 33.5344398,19.0676809 L33.3167366,20.4801749 C32.6898015,20.4432798 30.1895391,20.5174892 29.5999956,20.4801749 C29.047013,20.4801749 26.4786145,20.4856253 26,20.5606732 L26.4553486,19.0676809 C27.0457229,18.9938908 28.4047057,18.5675012 28.919881,18.4555582 C29.6938905,17.3394825 33.2814222,10.2661116 33.5751553,9.59696933 C33.0957098,9.48544562 32.2805694,9.09595113 31.7649786,9.02174173 L31.6935188,8 C32.3204539,8.03731433 35.436434,8.1316483 35.7675588,8.11529708 C36.5083311,8.07840201 39.2599493,8.09223766 39.8868845,8.05576186 L39.6550555,9.05905606 C39.1016575,9.09595113 38.2021779,9.36805223 37.6865871,9.47915668 C37.9437593,10.2610805 38.9699554,12.7800072 39.7447958,14.6394346 C40.3347547,15.978977 41.3140033,18.6043963 42.2346716,20.1296718 C42.8611913,20.2416148 44.2999431,20.6675851 44.9634392,20.7044801 L45,21.0759463 L44.9256319,22 Z" id="Fill-4"></path>
                    <path d="M65.8051786,17.8683812 C65.3039749,17.8300096 62.8877793,17.833723 61.6528167,17.8683812 C60.6618935,17.8968505 58.308861,17.7784349 57.1899709,17.827534 L57.1030191,16.4465686 C57.4906111,16.4081969 59.8986037,16.2423326 60.3624837,16.1651767 C60.5167003,15.4266263 60.442463,14.3802778 60.442463,13.4878284 L60.3829912,11.8626049 C59.1472083,11.8626049 50.980295,12.2896438 50.6328976,12.3276028 L50.0381796,12.406409 C50.0381796,14.6204098 50.1522014,15.320176 50.3072383,16.1350571 C50.9634788,16.2518223 53.3181518,16.4081969 53.820586,16.4849402 L53.7898247,17.9900976 C53.2111026,17.9513134 49.5878346,17.9900976 48.467714,17.9900976 C47.1174992,17.9900976 43.8301443,17.9612158 43.0586515,18 L43.1624195,16.4465686 C43.7805161,16.4081969 46.1167324,16.1759043 46.6187564,16.0983359 C46.6954545,15.0887086 46.7348289,13.4956677 46.7348289,11.8246459 L46.7348289,9.76578187 C46.7348289,9.06684087 46.6954545,7.04634851 46.6573105,6.34782011 C46.1556966,6.27025168 43.8194804,6.11305185 43.1242755,6.07426764 L43,4.89795076 C43.4647003,4.93714757 46.6884819,4.848439 48.3869144,4.848439 C49.9717353,4.848439 53.5605507,4.87979645 53.987107,4.84059964 L53.8599604,6.07426764 C53.1274319,6.11305185 50.6927796,6.30697291 50.2678638,6.38495393 C50.1522014,6.96754229 50.0381796,7.47256223 50.0381796,9.33750516 L49.9787078,10.3104112 C50.674733,10.3104112 59.2895305,10.275753 60.3624837,10.1214413 L60.3624837,8.78297346 C60.3624837,7.07399257 60.6262104,5.22596617 60.4334397,4.72094622 C60.0081138,4.60500619 57.7063502,4.27864118 56.9730014,4.24026956 L57.0767694,3 C57.5390089,3.03919681 59.7078838,3.02558108 61.3304385,3.06436529 C63.0284609,3.06436529 65.4971557,3.13491954 66,3.05735112 L65.8855681,4.07811855 C65.3847745,4.11731536 63.1445334,4.68711319 63.1445334,4.68711319 C63.1445334,4.68711319 62.9911372,5.75037821 63.1035184,7.28276716 C63.1962124,8.55398157 63.2249229,11.0543254 63.2249229,11.0543254 C63.2884962,13.8393618 63.459939,16.0896713 63.3057225,16.2064365 C63.1195142,16.3454821 65.0788024,16.4655481 65.6189703,16.5418787 L65.8306079,16.9123917 L65.8051786,17.8683812 Z" id="Fill-6"></path>
                    <path d="M83.995295,11.8699138 C84.1370018,7.8394646 81.0599406,6.7665137 77.1727135,7.04015218 C75.138829,7.18374885 71,8.28592739 71,11.8699138 C71,15.4128121 74.1753882,17.330823 78.4108918,16.9529816 C81.689978,16.6594344 83.4119424,15.422131 83.8329313,13.7019362 L83.995295,11.8699138 Z M86.9942139,11.0717067 C87.1822274,15.7017107 82.765801,18 77.0290734,18 C74.6421001,18 71.7365122,17.5638606 69.2557424,16.1386554 C67.3196651,15.0263591 67,13.5838372 67,11.7804835 C67,8.0521564 71.2397693,4.96011758 77.7298131,5.00038899 C80.2004882,5.00038899 82.581573,5.36041539 84.5079761,6.79810471 C86.2249144,8.08074911 86.5155574,8.71703738 86.8293339,10.1208987 L86.9942139,11.0717067 Z" id="Fill-8"></path>
                    <path d="M113.261768,18.8979779 L112.012246,18.786896 L112,16 L113.581324,16.2032563 L115,16.2710084 L114.606582,19 L113.261768,18.8979779 Z M114.979758,14 L112.130002,13.7628617 C112.429287,12.5245177 112.167413,3.01286174 112.144499,1.99839228 L112,3.09780616e-14 C112.791235,0.134646302 112.671989,0.0647106109 116.02258,0.366961415 C118.062396,0.551045016 118.328479,0.629823151 119,0.652733119 L118.123188,3.02130225 C117.376845,4.91639871 115.209366,13.3681672 114.979758,14 Z" id="Fill-10"></path>
                    <path d="M106.987618,10.4962066 C107.255668,6.27352677 103.129682,4.73581622 98.6793006,5.03641515 C96.3513642,5.19406621 92,6.55125405 92,10.4962066 C92,14.3958242 95.6408444,16.3619699 100.49268,15.9449706 C104.24497,15.6227253 105.807285,14.2304131 106.662395,12.3443182 C106.662395,12.3443182 106.906001,11.7815121 106.987618,10.4962066 Z M110.984304,9.9330402 C111.326052,14.3399336 106.043409,18 99.424378,18 C96.6716909,18 94.3270612,17.6791713 91.6113543,15.9489878 C89.3776651,14.5253104 88.31034,13.2939665 88.0315008,10.8656533 C87.5367312,6.566794 92.9239388,2.95419718 100.411367,3.00043907 C103.262668,3.00043907 106.009829,3.41948066 108.231192,5.08623495 C110.21197,6.57375074 110.558394,7.98515156 110.919695,9.61343914 L110.984304,9.9330402 Z" id="Fill-12"></path>
                    <path d="M118,19 L118.369222,19 C118.689292,19 119,18.9791988 119,18.4791988 C119,18.0508475 118.716793,18 118.471621,18 L118,18 L118,19 Z M118,18 L118.502476,18 C118.818752,18 118.968306,18.1886139 118.968306,18.569802 C118.968306,18.9326733 118.815451,19.0851485 118.616705,19.1173267 L119,20 L118.781776,20 L118.41928,19.139604 L118.202707,19.139604 L118.202707,20 L118,20 L118,18 Z M118.000176,20 C118.555516,20 119,19.3481795 119,18.4987299 C119,17.6508044 118.555516,17 118.000176,17 C117.44202,17 117,17.6508044 117,18.4987299 C117,19.3481795 117.44202,20 118.000176,20 Z M118.501086,17 C119.315911,17 120,17.6450912 120,18.4995656 C120,19.3544744 119.315911,20 118.501086,20 C117.681483,20 117,19.3544744 117,18.4995656 C117,17.6450912 117.681483,17 118.501086,17 Z" id="Fill-14"></path>
                </g>
            </g>
        </g>
    </g>
</svg>