<svg width="1170" height="469" viewBox="0 0 1170 469" fill="none" xmlns="http://www.w3.org/2000/svg"><rect width="1170" height="468.356" rx="14" fill="url(#paint0_linear)"/><mask id="a" maskUnits="userSpaceOnUse" x="0" y="0" width="1170" height="469"><rect width="1170" height="468.356" rx="18" fill="#007CFF"/></mask><g mask="url(#a)"><path transform="rotate(36.424 1048 -223.777)" fill="url(#paint1_linear)" d="M1048-223.777h546.788v902.74H1048z"/><rect x="347" y="-131.128" width="828.93" height="1055" rx="14" transform="rotate(-34.698 347 -131.128)" fill="url(#paint2_linear)"/><rect x="668" y="274" width="5" height="5" rx="2.5" fill="#fff"/><rect x="668" y="299" width="5" height="5" rx="2.5" fill="#fff"/><rect x="668" y="324" width="5" height="5" rx="2.5" fill="#fff"/><rect x="668" y="349" width="5" height="5" rx="2.5" fill="#fff"/><rect x="668" y="374" width="5" height="5" rx="2.5" fill="#fff"/><rect x="668" y="399" width="5" height="5" rx="2.5" fill="#fff"/><rect x="668" y="424" width="5" height="5" rx="2.5" fill="#fff"/><rect x="693" y="274" width="5" height="5" rx="2.5" fill="#fff"/><rect x="693" y="299" width="5" height="5" rx="2.5" fill="#fff"/><rect x="693" y="324" width="5" height="5" rx="2.5" fill="#fff"/><rect x="693" y="349" width="5" height="5" rx="2.5" fill="#fff"/><rect x="693" y="374" width="5" height="5" rx="2.5" fill="#fff"/><rect x="693" y="399" width="5" height="5" rx="2.5" fill="#fff"/><rect x="693" y="424" width="5" height="5" rx="2.5" fill="#fff"/><rect x="718" y="274" width="5" height="5" rx="2.5" fill="#fff"/><rect x="718" y="299" width="5" height="5" rx="2.5" fill="#fff"/><rect x="718" y="324" width="5" height="5" rx="2.5" fill="#fff"/><rect x="718" y="349" width="5" height="5" rx="2.5" fill="#fff"/><rect x="718" y="374" width="5" height="5" rx="2.5" fill="#fff"/><rect x="718" y="399" width="5" height="5" rx="2.5" fill="#fff"/><rect x="718" y="424" width="5" height="5" rx="2.5" fill="#fff"/><rect x="743" y="274" width="5" height="5" rx="2.5" fill="#fff"/><rect x="743" y="299" width="5" height="5" rx="2.5" fill="#fff"/><rect x="743" y="324" width="5" height="5" rx="2.5" fill="#fff"/><rect x="743" y="349" width="5" height="5" rx="2.5" fill="#fff"/><rect x="743" y="374" width="5" height="5" rx="2.5" fill="#fff"/><rect x="743" y="399" width="5" height="5" rx="2.5" fill="#fff"/><rect x="743" y="424" width="5" height="5" rx="2.5" fill="#fff"/><rect x="768" y="274" width="5" height="5" rx="2.5" fill="#fff"/><rect x="768" y="299" width="5" height="5" rx="2.5" fill="#fff"/><rect x="768" y="324" width="5" height="5" rx="2.5" fill="#fff"/><rect x="768" y="349" width="5" height="5" rx="2.5" fill="#fff"/><rect x="768" y="374" width="5" height="5" rx="2.5" fill="#fff"/><rect x="768" y="399" width="5" height="5" rx="2.5" fill="#fff"/><rect x="768" y="424" width="5" height="5" rx="2.5" fill="#fff"/><rect x="793" y="274" width="5" height="5" rx="2.5" fill="#fff"/><rect x="793" y="299" width="5" height="5" rx="2.5" fill="#fff"/><rect x="793" y="324" width="5" height="5" rx="2.5" fill="#fff"/><rect x="793" y="349" width="5" height="5" rx="2.5" fill="#fff"/><rect x="793" y="374" width="5" height="5" rx="2.5" fill="#fff"/><rect x="793" y="399" width="5" height="5" rx="2.5" fill="#fff"/><rect x="793" y="424" width="5" height="5" rx="2.5" fill="#fff"/><rect x="818" y="274" width="5" height="5" rx="2.5" fill="#fff"/><rect x="818" y="299" width="5" height="5" rx="2.5" fill="#fff"/><rect x="818" y="324" width="5" height="5" rx="2.5" fill="#fff"/><rect x="818" y="349" width="5" height="5" rx="2.5" fill="#fff"/><rect x="818" y="374" width="5" height="5" rx="2.5" fill="#fff"/><rect x="818" y="399" width="5" height="5" rx="2.5" fill="#fff"/><rect x="818" y="424" width="5" height="5" rx="2.5" fill="#fff"/><rect x="605" y="-94.905" width="828.93" height="1055" rx="14" transform="rotate(-34.698 605 -94.905)" fill="url(#paint3_linear)"/></g><defs><linearGradient id="paint0_linear" x1="1170" y1="215.293" x2="-.068" y2="227.843" gradientUnits="userSpaceOnUse"><stop stop-color="#98EDFF"/><stop offset="1" stop-color="#04B4FF"/></linearGradient><linearGradient id="paint1_linear" x1="1321.4" y1="-223.777" x2="1321.4" y2="678.963" gradientUnits="userSpaceOnUse"><stop stop-color="#3899FF"/><stop offset="1" stop-color="#D2E8FF" stop-opacity="0"/></linearGradient><linearGradient id="paint2_linear" x1="364.787" y1="-3.108" x2="1020.07" y2="516.281" gradientUnits="userSpaceOnUse"><stop stop-color="#98EDFF"/><stop offset="1" stop-color="#04B4FF"/></linearGradient><linearGradient id="paint3_linear" x1="756.55" y1="667.324" x2="726.221" y2="-25.819" gradientUnits="userSpaceOnUse"><stop stop-color="#98EDFF"/><stop offset="1" stop-color="#04B4FF"/></linearGradient></defs></svg>