<svg width="24" height="24" viewBox="0 0 24 24" fill="none" xmlns="http://www.w3.org/2000/svg">
<g clip-path="url(#clip0_6024_8)">
<path d="M21.46 10.2702C22.1689 10.1655 22.8162 9.80843 23.2829 9.26462C23.7495 8.7208 24.0042 8.0268 24 7.31023V3.69023C24.0004 2.97046 23.7421 2.27454 23.2721 1.72935C22.8022 1.18416 22.152 0.826016 21.4401 0.720226C15.1765 -0.241463 8.80259 -0.238091 2.54005 0.730226C1.83115 0.834931 1.18387 1.19202 0.717216 1.73583C0.250562 2.27965 -0.00409972 2.97365 4.99239e-05 3.69023V7.31023C-0.000308208 8.02999 0.258028 8.72591 0.727956 9.2711C1.19788 9.81629 1.8481 10.1744 2.56005 10.2802C5.35442 10.7032 8.17417 10.9371 11 10.9802V13.0202C8.16727 13.0659 5.34082 13.3031 2.54005 13.7302C1.83115 13.8349 1.18387 14.192 0.717216 14.7358C0.250562 15.2797 -0.00409972 15.9736 4.99239e-05 16.6902V20.3102C-0.000308208 21.03 0.258028 21.7259 0.727956 22.2711C1.19788 22.8163 1.8481 23.1744 2.56005 23.2802C5.68386 23.7596 8.83966 24.0003 12 24.0002C15.1675 24.0023 18.3304 23.7583 21.46 23.2702C22.1689 23.1655 22.8162 22.8084 23.2829 22.2646C23.7495 21.7208 24.0042 21.0268 24 20.3102V16.6902C24.0004 15.9705 23.7421 15.2745 23.2721 14.7293C22.8022 14.1842 22.152 13.826 21.4401 13.7202C18.6457 13.2968 15.826 13.0629 13 13.0202V10.9802C15.8331 10.9391 18.6598 10.7019 21.46 10.2702ZM4.00005 17.5002H8.00005C8.26527 17.5002 8.51962 17.6056 8.70716 17.7931C8.89469 17.9807 9.00005 18.235 9.00005 18.5002C9.00005 18.7654 8.89469 19.0198 8.70716 19.2073C8.51962 19.3949 8.26527 19.5002 8.00005 19.5002H4.00005C3.73483 19.5002 3.48048 19.3949 3.29294 19.2073C3.10541 19.0198 3.00005 18.7654 3.00005 18.5002C3.00005 18.235 3.10541 17.9807 3.29294 17.7931C3.48048 17.6056 3.73483 17.5002 4.00005 17.5002ZM10 18.5002C10 18.0058 10.1467 17.5224 10.4214 17.1113C10.6961 16.7002 11.0865 16.3797 11.5433 16.1905C12.0002 16.0013 12.5028 15.9518 12.9878 16.0483C13.4727 16.1447 13.9182 16.3828 14.2678 16.7325C14.6174 17.0821 14.8555 17.5275 14.952 18.0125C15.0485 18.4975 14.999 19.0001 14.8097 19.4569C14.6205 19.9137 14.3001 20.3042 13.889 20.5789C13.4779 20.8536 12.9945 21.0002 12.5 21.0002C11.8372 20.9995 11.2017 20.7359 10.733 20.2672C10.2644 19.7985 10.0007 19.1631 10 18.5002ZM18.5 21.0002C18.0056 21.0002 17.5222 20.8536 17.1111 20.5789C16.7 20.3042 16.3796 19.9137 16.1904 19.4569C16.0011 19.0001 15.9516 18.4975 16.0481 18.0125C16.1445 17.5275 16.3827 17.0821 16.7323 16.7325C17.0819 16.3828 17.5274 16.1447 18.0123 16.0483C18.4973 15.9518 18.9999 16.0013 19.4568 16.1905C19.9136 16.3797 20.304 16.7002 20.5787 17.1113C20.8534 17.5224 21 18.0058 21 18.5002C20.9994 19.1631 20.7357 19.7985 20.2671 20.2672C19.7984 20.7359 19.1629 20.9995 18.5 21.0002ZM21 5.50023C21 5.99468 20.8534 6.47803 20.5787 6.88915C20.304 7.30027 19.9136 7.62071 19.4568 7.80992C18.9999 7.99914 18.4973 8.04865 18.0123 7.95219C17.5274 7.85573 17.0819 7.61762 16.7323 7.26799C16.3827 6.91836 16.1445 6.4729 16.0481 5.98795C15.9516 5.503 16.0011 5.00033 16.1904 4.54352C16.3796 4.0867 16.7 3.69626 17.1111 3.42155C17.5222 3.14685 18.0056 3.00023 18.5 3.00023C19.1629 3.00091 19.7984 3.26453 20.2671 3.73322C20.7357 4.20191 20.9994 4.8374 21 5.50023ZM15 5.50023C15 5.99468 14.8534 6.47803 14.5787 6.88915C14.304 7.30027 13.9136 7.62071 13.4568 7.80992C12.9999 7.99914 12.4973 8.04865 12.0123 7.95219C11.5274 7.85573 11.0819 7.61762 10.7323 7.26799C10.3827 6.91836 10.1445 6.4729 10.0481 5.98795C9.95162 5.503 10.0011 5.00033 10.1904 4.54352C10.3796 4.0867 10.7 3.69626 11.1111 3.42155C11.5222 3.14685 12.0056 3.00023 12.5 3.00023C13.1629 3.00091 13.7984 3.26453 14.2671 3.73322C14.7357 4.20191 14.9994 4.8374 15 5.50023ZM4.00005 4.50023H8.00005C8.26527 4.50023 8.51962 4.60558 8.70716 4.79312C8.89469 4.98066 9.00005 5.23501 9.00005 5.50023C9.00005 5.76544 8.89469 6.0198 8.70716 6.20733C8.51962 6.39487 8.26527 6.50023 8.00005 6.50023H4.00005C3.73483 6.50023 3.48048 6.39487 3.29294 6.20733C3.10541 6.0198 3.00005 5.76544 3.00005 5.50023C3.00005 5.23501 3.10541 4.98066 3.29294 4.79312C3.48048 4.60558 3.73483 4.50023 4.00005 4.50023Z" fill="#FA5E0D"/>
<path d="M18.5 19C18.7761 19 19 18.7761 19 18.5C19 18.2239 18.7761 18 18.5 18C18.2239 18 18 18.2239 18 18.5C18 18.7761 18.2239 19 18.5 19Z" fill="#FA5E0D"/>
<path d="M12.5 19C12.7761 19 13 18.7761 13 18.5C13 18.2239 12.7761 18 12.5 18C12.2239 18 12 18.2239 12 18.5C12 18.7761 12.2239 19 12.5 19Z" fill="#FA5E0D"/>
<path d="M18.5 6C18.7761 6 19 5.77614 19 5.5C19 5.22386 18.7761 5 18.5 5C18.2239 5 18 5.22386 18 5.5C18 5.77614 18.2239 6 18.5 6Z" fill="#FA5E0D"/>
<path d="M12.5 6C12.7761 6 13 5.77614 13 5.5C13 5.22386 12.7761 5 12.5 5C12.2239 5 12 5.22386 12 5.5C12 5.77614 12.2239 6 12.5 6Z" fill="#FA5E0D"/>
</g>
<defs>
<clipPath id="clip0_6024_8">
<rect width="24" height="24" fill="white"/>
</clipPath>
</defs>
</svg>
