<svg width="56" height="56" viewBox="0 0 56 56" fill="none" xmlns="http://www.w3.org/2000/svg">
<g clip-path="url(#clip0_4003_729)">
<path d="M1.64062 56H54.3593C55.2653 56 55.9999 55.2655 55.9999 54.3594V31.2813C55.9999 30.3753 55.2653 29.6407 54.3593 29.6407H46.0468V1.64076C46.0468 0.879842 45.5236 0.218891 44.7831 0.0440003C44.0426 -0.130671 43.2791 0.226437 42.9387 0.907077C38.5322 9.72017 36.2031 19.6245 36.2031 29.5493V29.6407H32.9218V1.64076C32.9218 0.879842 32.3987 0.218891 31.6581 0.0440003C30.9176 -0.130671 30.1541 0.226437 29.8137 0.907077C25.4072 9.72017 23.078 19.6245 23.078 29.5493V29.6407H19.7967V1.64076C19.7967 0.879842 19.2736 0.218891 18.533 0.0440003C17.7924 -0.130671 17.029 0.226437 16.6886 0.907077C12.2822 9.72017 9.9531 19.6245 9.9531 29.5493V29.6407H1.64062C0.734561 29.6407 0 30.3753 0 31.2813V54.3594C0 55.2655 0.734452 56 1.64062 56ZM39.4843 29.5493C39.4843 22.8358 40.6068 16.1336 42.7655 9.80953V34.5625C42.7655 35.4671 42.0296 36.2031 41.1249 36.2031C40.2203 36.2031 39.4843 35.4671 39.4843 34.5625V29.5493ZM26.3593 29.5493C26.3593 22.8358 27.4818 16.1336 29.6406 9.80953V34.5625C29.6406 35.4671 28.9046 36.2031 27.9999 36.2031C27.0953 36.2031 26.3593 35.4671 26.3593 34.5625V29.5493ZM13.2343 29.5493C13.2343 22.8358 14.3569 16.1336 16.5156 9.80953V34.5625C16.5156 35.4671 15.7796 36.2031 14.875 36.2031C13.9703 36.2031 13.2343 35.4671 13.2343 34.5625V29.5493ZM3.28124 32.9219H9.9531V34.5626C9.9531 37.2765 12.1611 39.4844 14.875 39.4844C17.5889 39.4844 19.7968 37.2765 19.7968 34.5626V32.9219H23.0781V34.5626C23.0781 37.2765 25.286 39.4844 27.9999 39.4844C30.7139 39.4844 32.9218 37.2765 32.9218 34.5626V32.9219H36.2031V34.5626C36.2031 37.2765 38.411 39.4844 41.1249 39.4844C43.8388 39.4844 46.0468 37.2765 46.0468 34.5626V32.9219H52.7186V52.7188H3.28124V32.9219Z" fill="#FA5E0D"/>
<path d="M21.4375 42.7656C22.3436 42.7656 23.0781 42.0311 23.0781 41.125C23.0781 40.2189 22.3436 39.4844 21.4375 39.4844C20.5314 39.4844 19.7969 40.2189 19.7969 41.125C19.7969 42.0311 20.5314 42.7656 21.4375 42.7656Z" fill="#FA5E0D"/>
<path d="M34.5625 42.7656C35.4686 42.7656 36.2031 42.0311 36.2031 41.125C36.2031 40.2189 35.4686 39.4844 34.5625 39.4844C33.6564 39.4844 32.9219 40.2189 32.9219 41.125C32.9219 42.0311 33.6564 42.7656 34.5625 42.7656Z" fill="#FA5E0D"/>
<path d="M47.6875 42.7656C48.5936 42.7656 49.3281 42.0311 49.3281 41.125C49.3281 40.2189 48.5936 39.4844 47.6875 39.4844C46.7814 39.4844 46.0469 40.2189 46.0469 41.125C46.0469 42.0311 46.7814 42.7656 47.6875 42.7656Z" fill="#FA5E0D"/>
<path d="M8.3125 42.7656C9.21859 42.7656 9.95312 42.0311 9.95312 41.125C9.95312 40.2189 9.21859 39.4844 8.3125 39.4844C7.40641 39.4844 6.67188 40.2189 6.67188 41.125C6.67188 42.0311 7.40641 42.7656 8.3125 42.7656Z" fill="#FA5E0D"/>
<path d="M14.875 49.3281C15.7811 49.3281 16.5156 48.5936 16.5156 47.6875C16.5156 46.7814 15.7811 46.0469 14.875 46.0469C13.9689 46.0469 13.2344 46.7814 13.2344 47.6875C13.2344 48.5936 13.9689 49.3281 14.875 49.3281Z" fill="#FA5E0D"/>
<path d="M28 49.3281C28.9061 49.3281 29.6406 48.5936 29.6406 47.6875C29.6406 46.7814 28.9061 46.0469 28 46.0469C27.0939 46.0469 26.3594 46.7814 26.3594 47.6875C26.3594 48.5936 27.0939 49.3281 28 49.3281Z" fill="#FA5E0D"/>
<path d="M41.125 49.3281C42.0311 49.3281 42.7656 48.5936 42.7656 47.6875C42.7656 46.7814 42.0311 46.0469 41.125 46.0469C40.2189 46.0469 39.4844 46.7814 39.4844 47.6875C39.4844 48.5936 40.2189 49.3281 41.125 49.3281Z" fill="#FA5E0D"/>
</g>
<defs>
<clipPath id="clip0_4003_729">
<rect width="56" height="56" fill="white"/>
</clipPath>
</defs>
</svg>
