<svg width="24" height="24" viewBox="0 0 24 24" fill="none" xmlns="http://www.w3.org/2000/svg">
<g clip-path="url(#clip0_6024_15)">
<path d="M12 2C8.81822 2.00265 5.76751 3.26778 3.51765 5.51764C1.26778 7.76751 0.00265001 10.8182 1.8283e-06 14V16.57C-0.00103607 17.784 0.43986 18.957 1.24035 19.8697C2.04085 20.7824 3.1462 21.3726 4.35 21.53C6.88812 21.8416 9.44283 21.9985 12 22C14.5372 21.9985 17.072 21.8415 19.59 21.53C20.8045 21.3813 21.9229 20.7942 22.7349 19.879C23.547 18.9638 23.9969 17.7835 24 16.56V14C23.9974 10.8182 22.7322 7.76751 20.4824 5.51764C18.2325 3.26778 15.1818 2.00265 12 2ZM20 15C19.7348 15 19.4804 14.8946 19.2929 14.7071C19.1054 14.5196 19 14.2652 19 14C19 12.1435 18.2625 10.363 16.9498 9.05025C15.637 7.7375 13.8565 7 12 7C10.1435 7 8.36301 7.7375 7.05026 9.05025C5.7375 10.363 5 12.1435 5 14C5 14.2652 4.89465 14.5196 4.70711 14.7071C4.51957 14.8946 4.26522 15 4 15C3.73479 15 3.48043 14.8946 3.2929 14.7071C3.10536 14.5196 3 14.2652 3 14C3 11.6131 3.94821 9.32387 5.63604 7.63604C7.32387 5.94821 9.61305 5 12 5C14.387 5 16.6761 5.94821 18.364 7.63604C20.0518 9.32387 21 11.6131 21 14C21 14.2652 20.8946 14.5196 20.7071 14.7071C20.5196 14.8946 20.2652 15 20 15ZM9.5 16C9.49794 15.5926 9.59596 15.191 9.78545 14.8304C9.97494 14.4697 10.2501 14.1612 10.5868 13.9318C10.9234 13.7024 11.3113 13.5592 11.7162 13.5148C12.1212 13.4704 12.5308 13.5261 12.9092 13.6771L15.293 11.293C15.4816 11.1108 15.7342 11.01 15.9964 11.0123C16.2586 11.0146 16.5094 11.1198 16.6948 11.3052C16.8802 11.4906 16.9854 11.7414 16.9877 12.0036C16.99 12.2658 16.8892 12.5184 16.707 12.707L14.3231 15.0914C14.4571 15.4335 14.514 15.8009 14.4897 16.1674C14.4655 16.534 14.3606 16.8907 14.1827 17.2121C14.0048 17.5335 13.7581 17.8118 13.4604 18.0269C13.1626 18.2421 12.821 18.3889 12.46 18.4569C12.099 18.5249 11.7274 18.5124 11.3717 18.4204C11.0161 18.3283 10.6851 18.1589 10.4024 17.9243C10.1197 17.6897 9.89229 17.3955 9.73631 17.0629C9.58033 16.7303 9.49964 16.3674 9.5 16Z" fill="#FA5E0D"/>
<path d="M12 16.5C12.2761 16.5 12.5 16.2761 12.5 16C12.5 15.7239 12.2761 15.5 12 15.5C11.7239 15.5 11.5 15.7239 11.5 16C11.5 16.2761 11.7239 16.5 12 16.5Z" fill="#FA5E0D"/>
</g>
<defs>
<clipPath id="clip0_6024_15">
<rect width="24" height="24" fill="white"/>
</clipPath>
</defs>
</svg>
