<svg version="1" xmlns="http://www.w3.org/2000/svg" width="21.333" height="21.333" viewBox="0 0 16.000000 16.000000"><path d="M3.322 5.174c-.212.136-.188.48.04.578.232.095.49-.089.461-.332a.33.33 0 0 0-.5-.246zm1.241-.011c-.218.107-.23.434-.024.57.155.1.396.028.47-.139a.326.326 0 0 0-.446-.431zm-3.64.715a.64.64 0 0 1-.1.02c-.239.035-.59.29-.699.507-.167.327-.157.649.024.947.157.258.365.41.987.727.42.213.599.344.675.494.18.35-.078.71-.524.735-.501.026-.952-.339-1.136-.916C.1 8.23.074 8.177.043 8.177c-.04 0-.043.048-.043.656v.656h.74c.567 0 .767-.007.87-.033.32-.084.615-.322.754-.601.069-.139.078-.186.085-.377a.911.911 0 0 0-.043-.358c-.119-.35-.32-.518-1.06-.894C.741 6.918.633 6.83.57 6.594c-.045-.167.067-.368.265-.468.114-.06.326-.074.486-.036.363.084.687.422.787.816.022.088.04.117.081.122l.053.007V5.873h-.656c-.362 0-.66.003-.663.005zm3.124.05a37.4 37.4 0 0 0-.303.675 64.393 64.393 0 0 1-.477 1.064c0 .012-.021.062-.169.384a18.115 18.115 0 0 1-.465 1.006l-.172.348.084.008a.325.325 0 0 0 .114-.005c.027-.01.33-.604.444-.868l.043-.1h1.24l.017.052c.01.031.045.12.08.198.034.079.118.274.182.434l.117.293h.436c.239 0 .434-.01.434-.021a.541.541 0 0 0-.038-.112c-.071-.172-.563-1.31-.622-1.44-.034-.072-.146-.33-.253-.573-.496-1.143-.61-1.395-.634-1.402-.012-.005-.039.021-.058.06zm-.13 1.45c.025.065.07.172.1.239.03.064.102.226.157.357.055.132.105.246.112.256.005.01-.227.019-.515.019a8.568 8.568 0 0 1-.527-.012c0-.005.064-.158.145-.339.181-.41.189-.43.296-.66l.088-.191.048.107c.026.057.069.157.095.224zm10.46-1.438c-.048.093-.146.31-.317.699-.07.157-.153.346-.186.417-.034.072-.124.28-.206.458-.078.179-.198.449-.267.596l-.157.353a28.2 28.2 0 0 1-.231.487l-.196.405-.095-.138c-.05-.074-.146-.207-.208-.296l-.15-.207c-.02-.026-.174-.246-.344-.49l-.31-.438.089-.033c.448-.163.658-.418.67-.816a.884.884 0 0 0-.506-.844c-.217-.103-.427-.136-.935-.146l-.334-.007v.093c0 .053.007.093.015.095l.167.01c.415.021.61.14.708.43.062.18.055.534-.017.698-.105.241-.34.365-.708.372a.53.53 0 0 0-.174.017c0 .017.396.587.91 1.314l.328.46.536-.002c.296 0 .542-.005.549-.012.012-.014.386-.785.43-.892l.035-.083h.62c.608 0 .62 0 .634.05.01.026.039.1.067.16.029.061.05.116.053.123 0 .008.007.022.014.036.01.012.071.158.138.322l.122.298.43-.002c.238-.002.436-.007.44-.012a1.156 1.156 0 0 0-.085-.224c-.053-.12-.105-.236-.115-.263-.246-.586-1.336-3.052-1.352-3.057-.012-.005-.04.029-.062.07zm-.184 1.319l.115.262.19.442.117.274-.515.007c-.281.002-.517 0-.522-.005-.007-.007-.003-.026.007-.043a.116.116 0 0 0 .021-.043 51.05 51.05 0 0 1 .25-.56c.27-.606.242-.558.27-.49.015.034.043.104.067.156zM5.958 5.98c-.007.034-.005 3.359.002 3.425.003.02.596.03.809.015.021-.003.028-.368.028-1.739V5.945h-.415c-.36-.003-.417.002-.424.036zm2.929.06l-.16.127a46.978 46.978 0 0 1-1.062.867c-.119.099-.26.208-.31.249-.05.038-.138.112-.198.16a.762.762 0 0 1-.121.09c-.007 0-.026.022-.043.05-.034.053-.012.091.188.334.181.217.756.954.961 1.229l.213.283h.541c.48 0 .541-.004.518-.035-.015-.02-.141-.17-.28-.334a25.126 25.126 0 0 1-.524-.644 12.08 12.08 0 0 1-.191-.239c-.098-.124-.193-.245-.212-.267a1.68 1.68 0 0 1-.079-.095 26.401 26.401 0 0 0-.231-.294c-.103-.13-.184-.248-.177-.262a2.14 2.14 0 0 1 .239-.203c.126-.098.257-.202.29-.231.034-.029.187-.153.34-.274.455-.365.736-.594.736-.604 0-.002-.071-.005-.157-.005-.148 0-.165.008-.281.098zm.793-.083c-.009.11.003 3.444.013 3.453.007.01.19.017.407.017l.394.002V5.945h-.405a3.43 3.43 0 0 0-.408.012zm.063 3.945a.437.437 0 0 0-.26.229c-.165.331.024.698.372.734a.469.469 0 0 0 .48-.238c.042-.067.04-.07-.044-.072-.1 0-.129.01-.14.05-.034.105-.244.153-.382.088-.098-.045-.181-.195-.181-.322 0-.126.083-.276.183-.322a.29.29 0 0 1 .346.058c.05.057.086.074.15.074.093 0 .096-.005.058-.08-.1-.188-.372-.28-.582-.2zm1.679.002c-.14.081-.181.248-.09.374.042.062.219.165.28.165.036 0 .098.1.098.157 0 .065-.071.13-.148.13-.06 0-.138-.065-.138-.115 0-.017-.038-.029-.093-.029-.095 0-.095 0-.071.07a.306.306 0 0 0 .243.204c.172.022.281-.028.339-.157.08-.177-.01-.35-.218-.425a.431.431 0 0 1-.133-.069c-.053-.043-.055-.131-.01-.17.055-.044.167-.02.194.039.016.04.043.055.1.055.1 0 .105-.055.014-.162-.055-.065-.088-.081-.186-.09a.31.31 0 0 0-.181.023zm1.512-.01c-.067.027-.15.158-.15.234 0 .11.069.196.217.267.188.09.212.112.212.191a.146.146 0 0 1-.148.143c-.06 0-.138-.064-.138-.114 0-.017-.036-.029-.084-.029-.1 0-.11.043-.028.16.057.086.083.1.217.12.207.028.374-.142.336-.342-.02-.11-.126-.215-.248-.248a.308.308 0 0 1-.131-.07c-.05-.054-.043-.142.012-.176.054-.033.167 0 .18.055.01.036.032.046.094.043.09-.002.095-.017.043-.117-.06-.117-.246-.171-.384-.117zm-7.282.477v.477h.167v-.405h.186c.203 0 .191.01.175-.124a.385.385 0 0 0-.139-.014c-.236 0-.222.01-.222-.136v-.131h.382v-.144h-.549v.477zm.692 0v.477h.167v-.954h-.167v.477zm.358-.002v.48h.071c.081 0 .077.035.072-.404l-.002-.295.19.29c.108.16.194.299.194.31 0 .044.095.1.157.094l.067-.008-.003-.453-.004-.472c-.003-.01-.034-.017-.074-.017h-.072v.699l-.126-.2c-.289-.46-.31-.487-.394-.494l-.076-.007v.477zm1.04-.014c-.1.25-.182.465-.182.477 0 .01.036.016.08.016.07 0 .08-.01.116-.114l.043-.117.188-.002.189-.005.04.12c.038.116.043.118.134.118.083 0 .093-.004.071-.043a11.622 11.622 0 0 1-.18-.477l-.163-.434h-.155l-.181.46zm.267-.258a.649.649 0 0 0 .055.198c.038.1.069.186.069.188a.657.657 0 0 1-.143.008.574.574 0 0 1-.143-.01c0-.005.026-.083.06-.172.033-.09.066-.178.07-.195.006-.014.02-.029.027-.029.01 0 .012.005.005.012zm.529.274v.477h.155l-.002-.345-.005-.346.067.1c.377.587.382.591.453.591.064 0 .072-.007.074-.078a48.68 48.68 0 0 0 0-.835c-.002-.029-.021-.04-.074-.04h-.071v.698l-.127-.2-.222-.348c-.083-.132-.102-.148-.169-.15h-.079v.476zm2.004 0v.477h.572v-.143h-.405v-.283l.186-.008c.19-.007.188-.004.174-.114 0-.014-.079-.024-.181-.024h-.18v-.238h.382v-.144h-.548v.477zm1.407-.446c0 .017.01.041.021.053.01.014.074.129.143.255.117.224.122.239.122.425v.19h.167v-.193c0-.188.002-.195.143-.46.079-.148.143-.277.143-.284 0-.01-.036-.017-.079-.017-.073 0-.083.01-.18.208l-.103.21-.105-.21c-.103-.2-.108-.208-.189-.208-.052 0-.083.012-.083.031zm1.502.041c0 .07.003.072.12.072h.119v.81h.167v-.81h.12c.116 0 .118-.003.118-.072v-.072h-.644v.072zm.764.405v.477h.572v-.143h-.405v-.286h.176c.181 0 .222-.024.19-.107-.011-.026-.056-.036-.19-.036h-.176v-.238h.381v-.144h-.548v.477zm.808-.453l-.007.04a182.595 182.595 0 0 1-.072.606c-.01.086-.021.184-.028.22-.01.06-.005.064.074.064.08 0 .083-.002.086-.09 0-.048.004-.11.01-.136l.023-.263c.01-.119.021-.217.024-.221.005-.005.048.126.205.632.021.064.038.078.088.078.07 0 .07.003.224-.543.029-.093.053-.17.058-.167.01.01.03.183.045.365.026.324.033.345.105.345.036 0 .071-.004.079-.012a.423.423 0 0 0-.008-.138c-.01-.067-.023-.193-.033-.279a3.92 3.92 0 0 0-.029-.238 2.105 2.105 0 0 1-.019-.155c-.004-.041-.007-.086-.01-.103-.002-.017-.037-.029-.095-.029h-.095l-.095.3a2.851 2.851 0 0 0-.098.34c0 .085-.048-.022-.143-.325l-.1-.315h-.093c-.053 0-.096.01-.096.024z"/></svg>