<svg width="120" height="60" viewBox="0 0 120 60" fill="none" xmlns="http://www.w3.org/2000/svg">
<path fill-rule="evenodd" clip-rule="evenodd" d="M11.6842 24.1347V39.1579H0V20.821H5.00632V24.1558L11.6842 24.1347ZM6.67789 29.1453H4.99368V34.1516H6.67789V29.1453ZM25.0358 20.821V39.1789H13.3516V20.821H25.0358ZM20.0295 25.8063H18.3453V34.1516H20.0295V25.8063ZM31.7137 25.8063V20.821H26.7074V25.8063H31.7137ZM31.7137 39.1579V27.4947L26.7074 27.4737V39.1579H31.7137ZM33.3853 20.821V39.1579H38.3747V25.8063H40.0589V39.1789H45.0526V20.821H33.3853ZM58.4211 20.821V25.8063H51.7432V34.1516H53.4274V27.4737H58.4337V39.1579H46.7368V20.821H58.4211ZM72.9095 24.1347V39.1579H61.2253V20.821H66.2316V24.1558L72.9095 24.1347ZM67.9032 29.1453H66.2189V34.1516H67.9032V29.1453ZM86.2611 39.1789V20.821H74.5768V39.1789H86.2611ZM79.5789 25.8063H81.2632V34.1516H79.5789V25.8063ZM92.9389 20.821V25.8063H87.9326V20.821H92.9389ZM92.9389 27.4947V39.1579H87.9326V27.4737L92.9389 27.4947ZM94.6063 39.1579V20.821H106.291V39.1789H101.284V25.8063H99.6V39.1579H94.6063ZM119.646 25.8063V20.821H107.962V39.1579H119.659V27.4737H114.653V34.1516H112.968V25.8063H119.646Z" fill="black"/>
</svg>
