<svg width="120" height="60" viewBox="0 0 120 60" fill="none" xmlns="http://www.w3.org/2000/svg">
<path fill-rule="evenodd" clip-rule="evenodd" d="M1.69235 33.3431L0.175726 33.585L0.110026 35.1461H10.879L10.7033 30.7267L8.48359 30.6607L8.17583 33.563H4.87916V26.8788H6.30776L6.65937 28.374H8.13182V24.0205L6.65937 23.9765L6.3296 25.4276H4.90116V19.1171H8.17583L8.3077 21.7777L10.4175 21.8437L10.6813 17.6H0.0878628L0 19.1171L1.69235 19.337V33.3431ZM11.9341 33.8709L11.8681 35.1681V35.1901H17.1649L17.2528 33.8929L16.0001 33.651V25.6036C16.1538 25.4057 16.3298 25.1858 16.5055 25.0318C16.7911 24.9219 17.0549 24.8559 17.4285 24.8559C18.5275 24.8559 18.967 25.5374 18.967 26.7469V35.1461H23.0989L23.1649 33.8489L21.912 33.607V26.0872C21.912 23.8226 20.5056 22.6791 18.6154 22.6791C17.3186 22.6791 16.3077 23.2069 15.4726 24.0863V23.5807L15.2088 22.8331L11.7363 23.3388V24.658L13.1208 24.79V33.629L11.9341 33.8709ZM78.2637 35.1681L78.3078 33.8709L79.4945 33.629V24.79L78.1099 24.658V23.3388L81.5824 22.8331L81.8462 23.5807V24.0863C82.6813 23.2069 83.6922 22.6791 84.989 22.6791C86.8792 22.6791 88.2857 23.8226 88.2857 26.0872V33.607L89.5385 33.8489L89.4725 35.1461H85.3627V26.7469C85.3627 25.5374 84.9231 24.8559 83.8241 24.8559C83.4505 24.8559 83.1868 24.9219 82.9012 25.0318C82.7253 25.1858 82.5494 25.4057 82.3957 25.6036V33.651L83.6484 33.8929L83.5604 35.1901H78.2637V35.1681ZM27.2528 35.3442C28.3737 35.3442 29.2308 35.1241 29.7142 34.9262L29.5824 33.607H28.3957C27.7363 33.607 27.3845 33.1892 27.3845 32.5516V24.812L29.3846 24.5921L29.5385 23.0529H27.3627V20.5243L25.3406 20.6124L24.6594 22.965L23.0769 23.031L23.011 24.5701L24.4175 24.7899V32.5297C24.4175 34.6845 25.7802 35.3442 27.2528 35.3442ZM111.978 35.1681L112.022 33.8929L113.143 33.629V24.79L111.824 24.658V23.3388L115.429 22.8331L115.67 23.6906V23.9765C116.615 23.2728 117.89 22.8111 119.429 22.8111L119.956 23.2728L119.582 26.6149L117.604 26.549L117.407 24.768C116.945 24.8339 116.505 24.9659 116.132 25.2297V33.651L117.385 33.9149L117.297 35.1901H111.978V35.1681ZM60.2858 33.8929L60.2197 35.1681V35.1901H65.5165L65.6044 33.9149L64.3517 33.651V25.2297C64.7253 24.9659 65.1649 24.8339 65.6262 24.768L65.8241 26.549L67.8022 26.6149L68.2198 23.2728L67.6924 22.8111C66.1539 22.8111 64.8792 23.2728 63.934 23.9765V23.6906L63.6923 22.8331L60.0879 23.3388V24.658L61.4066 24.79V33.629L60.2858 33.8929ZM30.5934 35.1681L30.6594 33.8929L31.7802 33.629V24.79L30.4615 24.658V23.3388L34.0659 22.8331L34.3077 23.6906V23.9765C35.2528 23.2728 36.5275 22.8111 38.044 22.8111L38.5714 23.2728L38.1978 26.6149L36.2197 26.549L36.0218 24.768C35.5604 24.8339 35.1209 24.9659 34.7473 25.2297V33.651L36 33.9149L35.9121 35.1901H30.5934V35.1681ZM44.7253 33.5192C42.9009 33.5192 41.978 31.892 41.978 29.7811L48 29.7153L48.3078 28.9237C48.3078 25.6254 47.099 22.6571 43.8901 22.6571C40.2198 22.6571 38.8792 25.9774 38.8792 29.0116C38.8792 32.5736 40.7253 35.344 43.9341 35.344C45.5824 35.344 46.9012 34.7944 47.8023 34.0688L47.2968 32.9033C46.4177 33.3213 45.6704 33.5192 44.7253 33.5192ZM41.9341 28.374L45.6264 28.198C45.5604 26.7249 45.2528 24.3943 43.8022 24.3943C43.4506 24.3943 43.2089 24.4601 42.7692 24.68C42.1759 25.6916 41.9341 27.5165 41.9341 28.374ZM95.8023 33.5192C93.9779 33.5192 93.0549 31.892 93.0549 29.7811L99.0769 29.7153L99.3845 28.9237C99.3845 25.6254 98.1758 22.6571 94.967 22.6571C91.2967 22.6571 89.9561 25.9774 89.9561 29.0116C89.9561 32.5736 91.8021 35.344 95.011 35.344C96.6594 35.344 97.9781 34.7944 98.8791 34.0688L98.3736 32.9033C97.4946 33.3213 96.7474 33.5192 95.8023 33.5192ZM93.0109 28.374L96.7032 28.198C96.6374 26.7249 96.3296 24.3943 94.8792 24.3943C94.5275 24.3943 94.2856 24.4601 93.8462 24.68C93.2528 25.6916 93.0109 27.5165 93.0109 28.374ZM74.3517 33.5192C72.5273 33.5192 71.6044 31.892 71.6044 29.7811L77.6264 29.7153L77.9341 28.9237C77.9341 25.6254 76.7253 22.6571 73.5165 22.6571C69.8462 22.6571 68.5056 25.9774 68.5056 29.0116C68.5056 32.5736 70.3515 35.344 73.5605 35.344C75.2088 35.344 76.5275 34.7944 77.4285 34.0688L76.923 32.9033C76.0441 33.3213 75.2968 33.5192 74.3517 33.5192ZM71.5604 28.374L75.2528 28.198C75.1868 26.7249 74.8792 24.3943 73.4286 24.3943C73.077 24.3943 72.8351 24.4601 72.3956 24.68C71.8023 25.6916 71.5385 27.5165 71.5604 28.374ZM107.385 34.1128L107.692 35.1681H111.143L111.297 33.8709L110.044 33.629V23.7786L109.736 22.7231L105.692 23.1849V24.3502L107.121 24.4821V32.6174C106.962 32.8634 106.778 33.0919 106.571 33.2991C106.22 33.431 105.824 33.475 105.516 33.475C104.439 33.475 103.89 32.7713 103.89 31.4301V23.7786L103.582 22.7231L99.5824 23.1849V24.3502L100.967 24.4823V31.782C100.967 34.3986 102.659 35.344 104.549 35.344C105.78 35.344 106.571 34.8822 107.385 34.1128ZM54.3078 33.585C53.6704 33.585 53.1647 33.4752 52.7693 33.2553V25.4934C52.945 25.2295 53.1429 24.9878 53.3408 24.7679C53.7144 24.6358 54.044 24.592 54.4395 24.592C56.088 24.592 56.3736 26.263 56.3736 29.2533C56.3736 31.8187 56.025 32.7272 55.8711 33.1282L55.871 33.1284C55.8521 33.1776 55.8362 33.2191 55.8242 33.2551C55.3626 33.475 54.8791 33.5849 54.3076 33.5849L54.3078 33.585ZM55.3846 22.6791C58.1319 22.6791 59.2308 25.0099 59.2308 28.7258C59.2308 30.8146 59.1868 35.366 54.7032 35.366C53.9341 35.366 53.2308 35.1901 52.7253 34.9044V39.6537L53.978 39.8955L53.8901 41.1488H48.5934L48.6594 39.8955L49.8462 39.6537V24.658L48.4615 24.4821V23.2069L52.0439 22.7011L52.3517 23.7564V24.1744C52.7033 23.7346 53.5604 22.6791 55.3846 22.6791Z" fill="black"/>
</svg>
