<svg width="120" height="60" viewBox="0 0 120 60" fill="none" xmlns="http://www.w3.org/2000/svg">
<path fill-rule="evenodd" clip-rule="evenodd" d="M2.21533 36.2904C3.8136 38.0696 6.05477 39.0495 8.52599 39.0495C11.6568 39.0495 14.0314 37.807 15.1136 36.7431C15.4266 36.435 15.6035 36.0122 15.6035 35.5699L15.6035 30.7075C15.6035 29.8047 14.8808 29.0727 13.9894 29.0727H9.89175C9.00035 29.0727 8.27762 29.8047 8.27762 30.7075C8.27762 31.6105 9.00035 32.3423 9.89175 32.3423H12.3751V34.7729C11.6422 35.2392 10.3815 35.717 8.58827 35.717C5.40112 35.717 3.66281 32.9607 3.66281 30.6238C3.66281 26.5159 6.55368 25.1324 8.65003 25.1324C10.8968 25.1324 12.6035 26.2263 12.6624 26.264L12.6632 26.2645C13.403 26.7614 14.4008 26.5594 14.8958 25.8118C15.3919 25.0618 15.1937 24.0462 14.4532 23.5436C14.3521 23.4753 11.9383 21.8628 8.65003 21.8628C5.30552 21.8628 0 24.2414 0 30.6238C0 32.6576 0.807235 34.7229 2.21533 36.2904ZM19.6292 36.9973L19.6292 23.9033C19.6292 23.2234 19.7843 22.7128 20.0945 22.373C20.4044 22.033 20.8058 21.8626 21.2972 21.8626C21.8041 21.8626 22.2143 22.0312 22.5285 22.3674C22.8422 22.7037 22.9996 23.2154 22.9996 23.9033L22.9996 36.9973C22.9996 37.6848 22.8422 38.1989 22.5285 38.5389C22.2143 38.8793 21.8041 39.0495 21.2972 39.0495C20.813 39.0495 20.414 38.8773 20.1 38.5334C19.7861 38.1894 19.6292 37.6771 19.6292 36.9973ZM102.601 30.4616C102.601 35.1967 106.454 39.0495 111.189 39.0495C115.925 39.0495 119.777 35.1967 119.777 30.4616C119.777 25.7258 115.925 21.8733 111.189 21.8733C106.454 21.8733 102.601 25.7258 102.601 30.4616ZM106.078 30.4616C106.078 27.6431 108.371 25.3498 111.189 25.3498C114.007 25.3498 116.301 27.6431 116.301 30.4616C116.301 33.2798 114.007 35.5729 111.189 35.5729C108.371 35.5729 106.078 33.2798 106.078 30.4616ZM72.636 39.0495C67.9006 39.0495 64.0481 35.1967 64.0481 30.4616C64.0481 25.7258 67.9006 21.8733 72.636 21.8733C77.3716 21.8733 81.2242 25.7258 81.2242 30.4616C81.2242 35.1967 77.3716 39.0495 72.636 39.0495ZM72.636 25.3498C69.8178 25.3498 67.5247 27.6431 67.5247 30.4616C67.5247 33.2798 69.8178 35.5729 72.636 35.5729C75.4547 35.5729 77.7472 33.2798 77.7472 30.4616C77.7472 27.6431 75.4547 25.3498 72.636 25.3498ZM99.8494 30.4537V30.4561V30.4584C99.8484 32.3537 99.2305 34.1065 98.1875 35.5287C96.6703 37.597 94.2523 38.9622 91.5163 39.043C91.4904 39.0437 91.4645 39.0446 91.4385 39.0454L91.4385 39.0454C91.3795 39.0474 91.3205 39.0495 91.2609 39.0495L86.9484 39.0441C86.2122 39.0441 85.6789 38.8766 85.3495 38.5411C85.0195 38.2054 84.8546 37.6637 84.8546 36.9148V23.9973C84.8546 23.2484 85.0195 22.7065 85.3495 22.3712C85.6789 22.0359 86.2122 21.8682 86.9484 21.8682L91.2609 21.8626C91.3235 21.8626 91.3854 21.8649 91.4473 21.8671L91.5163 21.8694C94.2523 21.9499 96.6703 23.3151 98.1875 25.3834C99.2305 26.8056 99.8484 28.5584 99.8494 30.4537ZM90.5264 35.5626C91.0073 35.5626 91.4544 35.5579 91.8699 35.5309C93.3605 35.3525 94.6556 34.5323 95.4692 33.3525C96.0361 32.5307 96.3699 31.5375 96.3722 30.4663L96.3723 30.4622L96.3725 30.458V30.4543L96.3723 30.4499L96.3722 30.4458C96.3699 29.3746 96.0361 28.3814 95.4692 27.5599C94.6556 26.38 93.3605 25.5594 91.8699 25.3812C91.4544 25.3548 91.0073 25.3495 90.5264 25.3495H88.2717V35.5626H90.5264ZM57.5133 22.5478C57.8789 21.9909 58.5568 21.7443 59.1844 21.9392C59.812 22.1344 60.2409 22.7258 60.2409 23.3962V37.4151C60.2409 38.2563 59.5732 38.9381 58.7512 38.9381C57.9273 38.9381 57.2607 38.2563 57.2607 37.4151V28.3994L53.5848 33.9991L53.5804 34.0055L53.5771 34.0105L53.5729 34.0172C53.5715 34.0193 53.57 34.0214 53.5686 34.0234C53.5676 34.0247 53.5667 34.0259 53.5657 34.0272C53.5644 34.029 53.563 34.0308 53.5617 34.0325C53.5606 34.0341 53.5596 34.0356 53.5585 34.0372C53.5354 34.0707 53.5118 34.1041 53.4859 34.136C53.4748 34.1499 53.4628 34.1629 53.4509 34.1761L53.4387 34.1901C53.4223 34.2091 53.406 34.228 53.3882 34.2462C53.3721 34.2624 53.3551 34.2779 53.3384 34.2934L53.3382 34.2935L53.3274 34.3034L53.3104 34.3191C53.3007 34.3282 53.2911 34.3371 53.281 34.3456C53.252 34.3703 53.2217 34.3924 53.1909 34.4141C53.1869 34.417 53.1831 34.4201 53.1793 34.4231C53.1749 34.4267 53.1706 34.4303 53.1659 34.4335C53.1651 34.434 53.1644 34.4344 53.1635 34.4348L53.1617 34.4358C53.1289 34.4581 53.0951 34.4783 53.0607 34.498C53.0565 34.5003 53.0524 34.5028 53.0485 34.5053C53.043 34.5087 53.0375 34.5121 53.0318 34.5149C53.0126 34.5256 52.9926 34.5348 52.9726 34.5441L52.9526 34.5534C52.8018 34.6238 52.644 34.6679 52.4847 34.6843C52.4838 34.6843 52.4826 34.6844 52.4818 34.6849C52.4584 34.6869 52.4352 34.6877 52.4118 34.6886L52.3872 34.6896L52.3679 34.6905C52.3571 34.6911 52.3463 34.6917 52.3352 34.6917C52.3246 34.6917 52.3138 34.6911 52.303 34.6905L52.2834 34.6896L52.2585 34.6886C52.2355 34.6877 52.2123 34.6869 52.1891 34.6849C52.1882 34.6844 52.1873 34.6843 52.1859 34.6843C52.027 34.6679 51.8691 34.6238 51.7183 34.5534L51.7022 34.5459C51.6808 34.5361 51.6596 34.5263 51.639 34.5149C51.6329 34.5118 51.6269 34.508 51.6209 34.5043L51.6105 34.498C51.5758 34.4783 51.5419 34.4581 51.5091 34.4358L51.5076 34.435C51.5067 34.4345 51.506 34.4341 51.5053 34.4335C51.503 34.432 51.5009 34.4304 51.4987 34.4288C51.4964 34.427 51.4941 34.4251 51.4918 34.4232L51.4917 34.4232C51.4878 34.4201 51.484 34.417 51.4799 34.4141C51.4491 34.3924 51.4193 34.3703 51.3899 34.3456C51.3794 34.3366 51.3692 34.3271 51.359 34.3177L51.3441 34.304L51.3315 34.2924C51.3148 34.2771 51.2983 34.2618 51.2826 34.2458C51.2653 34.2281 51.2491 34.2096 51.2329 34.1909L51.2201 34.1763L51.2093 34.1641L51.2093 34.1641C51.2011 34.155 51.193 34.1459 51.1851 34.136C51.159 34.1041 51.1354 34.0707 51.1125 34.0372C51.1103 34.034 51.1081 34.0309 51.1058 34.0279C51.104 34.0254 51.1021 34.023 51.1004 34.0205C51.0997 34.0194 51.099 34.0183 51.0983 34.0172L51.0937 34.0105L51.0864 33.9991L47.4099 28.3994V37.4151C47.4099 38.2563 46.7429 38.9381 45.92 38.9381C45.0976 38.9381 44.4305 38.2563 44.4305 37.4151V23.3962C44.4305 22.7258 44.8588 22.1344 45.4862 21.9392C46.1138 21.7443 46.7921 21.9909 47.1573 22.5478L52.3352 30.4355L57.5133 22.5478ZM39.3602 38.5269L28.2237 38.5269C27.638 38.5269 26.9871 38.1604 26.7461 37.5901C26.5049 37.0204 26.4555 36.2446 26.9742 35.6264L36.0839 25.0566H28.5579C27.7351 25.0566 27.0678 24.344 27.0678 23.4649C27.0678 22.5857 27.7351 22.0488 28.5579 22.0488H38.7065C39.2921 22.0488 39.8986 22.1419 40.4285 22.7225C40.9127 23.253 40.8914 24.3979 40.3491 25.0807L31.5471 35.3438H39.3602C40.1831 35.3438 40.7821 36.0564 40.7821 36.9351C40.7821 37.8141 40.1831 38.5269 39.3602 38.5269Z" fill="black"/>
</svg>
