<svg width="120" height="60" viewBox="0 0 120 60" fill="none" xmlns="http://www.w3.org/2000/svg">
<path fill-rule="evenodd" clip-rule="evenodd" d="M107.137 26.8875V34.9594C107.137 35.6344 107.137 35.8406 107.128 37.2094C105.619 38.5312 102.853 39.5906 100.022 39.5906C94.3125 39.5906 89.9062 34.8562 89.9062 29.2406C89.9062 27.9 90.1594 26.55 90.6562 25.3031C91.5094 23.1844 93.1219 21.4031 95.1562 20.3531C97.4082 19.1903 99.8318 19.2149 102.283 19.2397C102.638 19.2433 102.994 19.2469 103.35 19.2469H104.859V25.1156C104.859 25.1156 101.55 25.1062 100.153 25.1062C97.8469 25.1062 96.1875 27.075 96.1875 29.2969C96.1875 31.5187 97.8938 33.3375 100.2 33.3375C100.762 33.3375 101.306 33.2156 101.559 32.9906V31.3875H98.25V26.8875H107.137ZM52.3688 31.3687H52.425L56.0625 19.2937H73.4719V24.75H67.8281V26.8312H71.4094V31.3406H67.8281V33.6469H73.4719V39.1031H61.8188V22.5281C59.9344 27.6281 56.4844 36.9844 56.4844 36.9844L55.7063 39.1031H49.2563L42.0563 19.3031H54.6188L52.9875 24.7594H50.5125L51.9188 29.7375L52.3688 31.3687ZM0 24.75V19.3031H10.0125V39.1125H3.72187V24.75H0ZM17.6906 26.8312H20.6344V19.3031H26.9344V39.1125H20.6344V31.6219H17.6906V39.1125H11.4094V19.3031H19.1719V24.7406H17.6906V26.8312ZM28.3125 39.1125H39.9656V33.6562H34.3219V31.35H37.9125V26.8312H34.3219V24.75H39.9656V19.3031H28.3125V39.1125ZM81.8719 19.3031C86.3531 19.3031 89.5125 21.7312 89.5125 26.0062C89.5125 28.6781 88.5938 30.5062 86.7562 31.5094L91.8562 39.1031H84.7594L81.1594 34.0312V39.1031H74.8688V19.3031H81.8719ZM81.1406 28.2V24.5156C82.0125 24.5156 83.0813 24.7781 83.4 25.7344C83.4156 25.7813 83.4284 25.8311 83.4414 25.8821L83.4415 25.8824C83.4519 25.9231 83.4625 25.9647 83.475 26.0062C83.475 26.0156 83.475 26.0344 83.4844 26.0437C83.4858 26.0583 83.4875 26.0734 83.4893 26.0888C83.4907 26.1006 83.4922 26.1126 83.4936 26.1249C83.5026 26.1993 83.5125 26.2809 83.5125 26.3625C83.5125 27.8344 82.1719 28.2 81.1406 28.2ZM120 24.7594V19.3125H108.347V39.1125H120V33.6562H114.347V31.35H117.938V26.85H114.347V24.7594H120Z" fill="black"/>
</svg>
