<svg width="120" height="60" viewBox="0 0 120 60" fill="none" xmlns="http://www.w3.org/2000/svg">
<path fill-rule="evenodd" clip-rule="evenodd" d="M0.120117 41.5405H24.0606V17.6H0.120117V41.5405ZM71.8801 41.5405H47.9406V17.6H71.8801V41.5405ZM119.88 41.5405H95.9396V17.6H119.88V41.5405ZM101.16 37.88V21.32H109.32C111.6 21.32 112.92 21.68 113.88 22.52C115.08 23.6 115.68 25.52 115.68 29.6C115.68 33.68 115.08 35.6 113.88 36.68C112.92 37.52 111.6 37.88 109.32 37.88H101.16ZM111.36 34.52C112.08 34.04 112.32 33.2 112.32 29.6C112.32 26 112.08 25.16 111.36 24.56C110.88 24.08 110.28 24.08 109.08 24.08H104.52V35H109.08C110.28 35 110.88 34.88 111.36 34.52ZM76.3806 21.32V24.08H78.6606V35.12H76.3816V37.88H90.6596V32.24H87.6606V35.12H81.7796V30.68H86.3396V28.04H81.7796V24.08H87.5396V26.6H90.5406V21.32H76.3806ZM63.5406 33.56C63.5406 35.36 63.6596 36.68 63.8996 37.76H67.1406C67.0196 36.92 66.9006 35.36 66.9006 33.32C66.7796 30.92 66.0596 30.56 64.3796 30.2C66.2996 29.84 67.1406 29 67.1406 26C67.1406 23.6 66.7796 22.64 66.0596 22.04C65.5796 21.56 64.7406 21.32 63.4196 21.32H53.3396V37.88H56.6996V31.4H61.3806C62.3406 31.4 62.6996 31.52 63.0606 31.76C63.4216 32 63.5406 32.36 63.5406 33.56ZM56.6996 24.2V28.76L62.1006 28.88C62.8206 28.88 63.0606 28.76 63.1796 28.64C63.4196 28.4 63.6596 27.92 63.6596 26.48C63.6596 25.04 63.4196 24.68 63.1796 24.44C63.0606 24.32 62.8206 24.2 62.1006 24.2H56.6996ZM41.7006 37.88V35.12H37.6196V24.08H41.6996V21.32H30.2996V24.08H34.3796V35.12H30.2996V37.88H41.7006ZM22.4401 21.32H19.3201L17.0401 34.4L14.4001 22.28C14.2801 21.44 13.9201 21.32 13.2001 21.32H11.5201C10.8001 21.32 10.4401 21.56 10.3201 22.28L7.68012 34.4L5.40012 21.32H2.04012L5.28012 37.04C5.40012 37.76 5.64012 37.88 6.48012 37.88H8.76012C9.48012 37.88 9.72012 37.76 9.96012 37.04L12.4801 25.64L15.0001 37.04C15.1201 37.76 15.3601 37.88 16.2001 37.88H18.3601C19.0801 37.88 19.4401 37.76 19.5601 37.04L22.4401 21.32Z" fill="black"/>
</svg>
