<?xml version="1.0" standalone="no"?>
<!DOCTYPE svg PUBLIC "-//W3C//DTD SVG 20010904//EN"
 "http://www.w3.org/TR/2001/REC-SVG-20010904/DTD/svg10.dtd">
<svg version="1.0" xmlns="http://www.w3.org/2000/svg"
 width="16.000000pt" height="16.000000pt" viewBox="0 0 16.000000 16.000000"
 preserveAspectRatio="xMidYMid meet">
<metadata>
Created by potrace 1.11, written by Peter Selinger 2001-2013
</metadata>
<g transform="translate(0.000000,16.000000) scale(0.002385,-0.002385)"
fill="#000000" stroke="none">
<path d="M1393 4539 c-89 -57 -79 -201 17 -242 97 -40 205 37 193 139 -11 101
-126 157 -210 103z"/>
<path d="M1913 4544 c-91 -45 -96 -182 -10 -239 65 -42 166 -12 197 58 55 122
-67 240 -187 181z"/>
<path d="M387 4244 c-1 -1 -20 -5 -42 -8 -100 -15 -247 -122 -293 -213 -70
-137 -66 -272 10 -397 66 -108 153 -172 414 -305 176 -89 251 -144 283 -207
75 -147 -33 -298 -220 -308 -210 -11 -399 142 -476 384 -21 68 -32 90 -45 90
-17 0 -18 -20 -18 -275 l0 -275 310 0 c238 0 322 3 365 14 134 35 258 135 316
252 29 58 33 78 36 158 2 70 -3 105 -18 150 -50 147 -134 217 -445 375 -253
129 -298 166 -325 265 -19 70 28 154 111 196 48 25 137 31 204 15 152 -35 288
-177 330 -342 9 -37 17 -49 34 -51 l22 -3 0 243 0 244 -275 0 c-152 0 -277 -1
-278 -2z"/>
<path d="M1697 4223 c-8 -15 -65 -143 -127 -283 -62 -140 -132 -297 -156 -348
-24 -51 -44 -95 -44 -98 0 -5 -9 -26 -71 -161 -16 -34 -35 -78 -43 -98 -25
-59 -77 -171 -152 -324 l-72 -146 35 -3 c19 -2 41 -1 48 2 11 4 138 253 186
364 l18 42 260 0 260 0 7 -22 c4 -13 19 -50 34 -83 14 -33 49 -115 76 -182
l49 -123 183 0 c100 0 182 4 182 9 0 5 -7 26 -16 47 -30 72 -236 549 -261 604
-14 30 -61 138 -106 240 -208 479 -256 585 -266 588 -5 2 -16 -9 -24 -25z
m-55 -608 c11 -27 30 -72 42 -100 13 -27 43 -95 66 -150 23 -55 44 -103 47
-107 2 -4 -95 -8 -216 -8 -122 1 -221 3 -221 5 0 2 27 66 61 142 76 172 79
180 124 277 l37 80 20 -45 c11 -24 29 -66 40 -94z"/>
<path d="M6028 4218 c-20 -39 -61 -130 -133 -293 -29 -66 -64 -145 -78 -175
-14 -30 -52 -117 -86 -192 -33 -75 -83 -188 -112 -250 -28 -62 -58 -129 -66
-148 -8 -19 -52 -111 -97 -204 l-82 -170 -40 58 c-21 31 -61 87 -87 124 -27
37 -55 76 -63 87 -8 11 -73 103 -144 205 l-130 184 37 14 c188 68 276 175 281
342 5 154 -76 290 -212 354 -91 43 -179 57 -392 61 l-140 3 0 -39 c0 -22 3
-39 6 -40 3 0 34 -2 70 -4 174 -9 256 -59 297 -180 26 -76 23 -224 -7 -293
-44 -101 -143 -153 -297 -156 -40 0 -73 -4 -73 -7 0 -7 166 -246 382 -551
l137 -193 225 1 c124 0 227 2 230 5 5 6 162 329 180 374 l15 35 260 0 c255 0
260 0 266 -21 4 -11 16 -42 28 -67 12 -26 21 -49 22 -52 0 -3 3 -9 6 -15 4 -5
30 -66 58 -135 l51 -125 180 1 c100 1 183 3 185 5 2 3 -14 45 -36 94 -22 50
-44 99 -48 110 -103 246 -560 1280 -567 1282 -5 2 -17 -12 -26 -29z m-77 -553
c9 -22 31 -71 48 -110 17 -38 53 -122 80 -185 l49 -115 -216 -3 c-118 -1 -217
0 -219 2 -3 3 -1 11 3 18 5 7 9 15 9 18 1 3 10 25 22 50 11 25 48 108 83 185
113 254 101 234 113 205 6 -14 18 -43 28 -65z"/>
<path d="M2498 4201 c-3 -14 -2 -1408 1 -1436 1 -8 250 -12 339 -6 9 1 12 154
12 729 l0 728 -174 0 c-151 1 -175 -1 -178 -15z"/>
<path d="M3726 4176 c-29 -23 -59 -47 -67 -53 -22 -20 -271 -225 -315 -259
-21 -18 -80 -65 -130 -105 -50 -41 -109 -87 -130 -104 -21 -16 -58 -47 -83
-67 -25 -21 -48 -38 -51 -38 -3 0 -11 -9 -18 -21 -14 -22 -5 -38 79 -140 76
-91 317 -400 403 -515 l89 -119 227 0 c201 0 227 2 217 15 -6 8 -59 71 -117
140 -58 69 -130 157 -160 195 -30 39 -57 72 -60 75 -3 3 -39 48 -80 100 -41
52 -81 103 -89 112 -9 10 -24 28 -33 40 -10 13 -53 68 -97 123 -43 55 -77 104
-74 110 2 5 47 44 100 85 53 41 108 85 122 97 14 12 78 64 142 115 191 153
309 249 309 253 0 1 -30 2 -66 2 -62 0 -69 -3 -118 -41z"/>
<path d="M4059 4211 c-4 -46 1 -1444 5 -1448 3 -4 80 -7 171 -7 l165 -1 0 731
0 730 -170 0 c-93 0 -170 -2 -171 -5z"/>
<path d="M4085 2557 c-54 -21 -86 -49 -109 -96 -69 -139 10 -293 156 -308 88
-9 153 24 201 100 18 28 17 29 -18 30 -42 0 -54 -4 -59 -21 -14 -44 -102 -64
-160 -37 -41 19 -76 82 -76 135 0 53 35 116 77 135 52 25 110 15 145 -24 21
-24 36 -31 63 -31 39 0 40 2 24 33 -42 79 -156 118 -244 84z"/>
<path d="M4789 2556 c-59 -34 -76 -104 -38 -157 18 -26 92 -69 118 -69 15 0
41 -42 41 -66 0 -27 -30 -54 -62 -54 -25 0 -58 27 -58 48 0 7 -16 12 -39 12
-40 0 -40 0 -30 -29 16 -47 56 -79 102 -86 72 -9 118 12 142 66 34 74 -4 147
-91 178 -21 7 -47 20 -56 29 -22 18 -23 55 -4 71 23 19 70 9 81 -16 7 -17 18
-23 42 -23 42 0 44 23 6 68 -23 27 -37 34 -78 38 -34 3 -59 0 -76 -10z"/>
<path d="M5423 2560 c-28 -11 -63 -66 -63 -98 0 -46 29 -82 91 -112 79 -38 89
-47 89 -80 0 -33 -28 -60 -62 -60 -25 0 -58 27 -58 48 0 7 -15 12 -35 12 -42
0 -46 -18 -12 -67 24 -36 35 -42 91 -50 87 -12 157 59 141 143 -8 46 -53 90
-104 104 -21 5 -46 19 -55 29 -21 23 -18 60 5 74 23 14 70 0 76 -23 4 -15 13
-19 39 -18 38 1 40 7 18 49 -25 49 -103 72 -161 49z"/>
<path d="M2370 2360 l0 -200 35 0 35 0 0 85 0 85 78 0 c85 0 80 -4 73 52 -1 3
-27 6 -58 6 -99 0 -93 -4 -93 57 l0 55 80 0 80 0 0 30 0 30 -115 0 -115 0 0
-200z"/>
<path d="M2660 2360 l0 -200 35 0 35 0 0 200 0 200 -35 0 -35 0 0 -200z"/>
<path d="M2810 2361 l0 -201 30 0 c34 0 32 -15 30 169 l-1 124 80 -122 c45
-67 81 -125 81 -130 0 -18 40 -42 66 -39 l28 3 -1 190 c-1 105 -2 193 -2 198
-1 4 -14 7 -31 7 l-30 0 0 -147 0 -146 -53 84 c-121 193 -130 204 -165 207
l-32 3 0 -200z"/>
<path d="M3246 2367 c-42 -105 -76 -195 -76 -200 0 -4 15 -7 33 -7 30 0 34 4
49 48 l18 49 79 1 79 2 17 -50 c16 -49 18 -50 56 -50 35 0 39 2 30 18 -5 9
-39 99 -76 200 l-68 182 -33 0 -32 0 -76 -193z m112 108 c-3 -3 7 -41 23 -83
16 -42 29 -78 29 -79 0 -2 -27 -3 -60 -3 -33 0 -60 2 -60 4 0 2 11 35 25 72
14 38 28 75 30 82 2 6 8 12 11 12 4 0 5 -2 2 -5z"/>
<path d="M3580 2360 l0 -200 33 0 32 0 -1 145 -2 145 28 -42 c158 -246 160
-248 190 -248 27 0 30 3 31 33 1 36 1 322 0 350 -1 12 -9 17 -31 17 l-30 0 0
-147 0 -146 -53 84 c-30 46 -71 112 -93 146 -35 55 -43 62 -71 63 l-33 0 0
-200z"/>
<path d="M4420 2360 l0 -200 120 0 120 0 0 30 0 30 -85 0 -85 0 0 60 0 59 78
3 c80 3 79 2 73 48 0 6 -33 10 -76 10 l-75 0 0 50 0 50 80 0 80 0 0 30 0 30
-115 0 -115 0 0 -200z"/>
<path d="M5010 2547 c0 -7 4 -17 9 -22 4 -6 31 -54 60 -107 49 -94 51 -100 51
-178 l0 -80 35 0 35 0 0 81 c0 79 1 82 60 193 33 62 60 116 60 119 0 4 -15 7
-33 7 -31 0 -35 -4 -76 -87 l-43 -88 -44 88 c-43 84 -45 87 -79 87 -22 0 -35
-5 -35 -13z"/>
<path d="M5640 2530 c0 -29 1 -30 50 -30 l50 0 0 -170 0 -170 35 0 35 0 0 170
0 170 50 0 c49 0 50 1 50 30 l0 30 -135 0 -135 0 0 -30z"/>
<path d="M5960 2360 l0 -200 120 0 120 0 0 30 0 30 -85 0 -85 0 0 60 0 60 74
0 c76 0 93 10 80 45 -5 11 -24 15 -80 15 l-74 0 0 50 0 50 80 0 80 0 0 30 0
30 -115 0 -115 0 0 -200z"/>
<path d="M6299 2550 c-1 -5 -2 -13 -3 -17 -1 -5 -6 -42 -10 -83 -5 -41 -10
-82 -11 -90 -2 -9 -6 -45 -9 -81 -4 -36 -9 -77 -12 -92 -4 -25 -2 -27 31 -27
34 0 35 1 36 38 0 20 2 46 4 57 1 11 6 61 10 110 4 50 9 91 10 93 2 2 20 -53
86 -265 9 -27 16 -33 37 -33 29 0 29 -1 94 228 12 39 22 71 24 70 4 -4 13 -77
19 -153 11 -136 14 -145 44 -145 15 0 30 2 33 5 3 3 1 29 -3 58 -4 28 -10 81
-14 117 -3 36 -9 81 -12 100 -3 19 -7 49 -8 65 -2 17 -3 36 -4 43 -1 7 -16 12
-40 12 l-40 0 -40 -126 c-23 -69 -41 -133 -41 -142 0 -36 -20 9 -60 136 l-42
132 -39 0 c-22 0 -40 -4 -40 -10z"/>
</g>
</svg>
