<?xml version="1.0" encoding="utf-8"?>
<!-- Generator: Adobe Illustrator 17.0.0, SVG Export Plug-In . SVG Version: 6.00 Build 0)  -->
<!DOCTYPE svg PUBLIC "-//W3C//DTD SVG 1.1//EN" "http://www.w3.org/Graphics/SVG/1.1/DTD/svg11.dtd">
<svg version="1.1" id="Слой_1" xmlns="http://www.w3.org/2000/svg" xmlns:xlink="http://www.w3.org/1999/xlink" x="0px" y="0px"
	 width="99.477px" height="42.92px" viewBox="0 0 99.477 42.92" enable-background="new 0 0 99.477 42.92" xml:space="preserve">
<polygon fill="#FFFFFF" points="95.539,18.076 94.699,18.076 94.699,17.793 96.717,17.793 96.717,18.076 95.877,18.076 
	95.877,20.32 95.539,20.32 "/>
<polygon fill="#FFFFFF" points="99.017,17.793 98.219,19.915 97.422,17.793 96.961,17.793 96.961,20.32 97.281,20.32 97.281,18.218 
	97.286,18.218 98.077,20.32 98.364,20.32 99.154,18.218 99.158,18.218 99.158,20.32 99.477,20.32 99.477,17.793 "/>
<g>
	<defs>
		<rect id="SVGID_1_" width="99.477" height="42.92"/>
	</defs>
	<clipPath id="SVGID_2_">
		<use xlink:href="#SVGID_1_"  overflow="visible"/>
	</clipPath>
	<path clip-path="url(#SVGID_2_)" fill="#FFFFFF" d="M29.266,24.845c-2.326-1.898,1.032-8.477,5.187-8.655
		c1.542-0.055,2.01,1.293,1.322,1.472c-0.689,0.179-0.441-0.399-1.266-0.399c-2.987-0.042-6.179,5.477-4.5,6.811
		c1.087,0.854,3.261,0.249,4.678-1.127c0.51-0.496,1.253,0.178,0.688,0.825C34.481,24.804,31.151,26.373,29.266,24.845"/>
	<path clip-path="url(#SVGID_2_)" fill="#FFFFFF" d="M39.257,20.359c3.165,0,2.807,5.092-0.909,5.092
		C35.225,25.451,35.514,20.359,39.257,20.359 M38.541,24.474c2.119,0.014,2.642-3.138,0.523-3.138S36.422,24.46,38.541,24.474"/>
	<path clip-path="url(#SVGID_2_)" fill="#FFFFFF" d="M46.944,20.662c1.748,1.5-0.605,4.679-3.014,4.651c-0.522,0-0.605-0.963,0-0.99
		c1.872-0.097,3.111-2.299,2.368-2.904c-0.688-0.55-2.808,0.716-2.835,0.921l-1.143,6.812c-0.027,0.234-0.302,0.413-0.578,0.372
		c-0.22-0.027-0.44-0.289-0.399-0.55l1.376-8.257c0.069-0.427,0.289-0.605,0.606-0.578c0.592,0.055,0.385,0.798,0.385,0.798
		C44.343,20.565,46.05,19.891,46.944,20.662"/>
	<path clip-path="url(#SVGID_2_)" fill="#FFFFFF" d="M53.231,20.662c1.748,1.5-0.606,4.679-3.015,4.651c-0.521,0-0.604-0.963,0-0.99
		c1.872-0.097,3.111-2.299,2.369-2.904c-0.688-0.55-2.809,0.716-2.836,0.921l-1.142,6.812c-0.027,0.234-0.303,0.413-0.578,0.372
		c-0.22-0.027-0.44-0.289-0.399-0.55l1.376-8.257c0.069-0.427,0.289-0.605,0.606-0.578c0.592,0.055,0.386,0.798,0.386,0.798
		C50.629,20.565,52.337,19.891,53.231,20.662"/>
	<path clip-path="url(#SVGID_2_)" fill="#FFFFFF" d="M55.027,25.135c-1.514-1.252,0.275-5.89,3.798-4.486
		c1.294,0.509,0.564,1.596,0.234,1.844c-0.771,0.578-1.652,1.087-2.904,1.431c-0.412,0.11-0.688-0.592-0.275-0.743
		c2.133-0.785,3.331-1.445,2.381-1.762c-2.161-0.715-3.385,1.982-2.656,2.862c0.633,0.771,2.284,0.234,3.276-0.413
		c0.632-0.413,1.073,0.455,0.48,0.868C58.454,25.368,56.155,26.057,55.027,25.135"/>
	<path clip-path="url(#SVGID_2_)" fill="#FFFFFF" d="M62.223,21.749c0,0,1.129-1.349,3.289-1.239
		c0.799,0.042,0.619,1.032-0.041,0.991c-0.592-0.042-1.211,0.082-1.871,0.427c-0.798,0.426-1.652,1.389-1.679,1.623l-0.261,1.625
		c-0.028,0.234-0.276,0.399-0.538,0.357c-0.288-0.041-0.495-0.262-0.454-0.523l0.675-4.115c0.041-0.316,0.247-0.453,0.551-0.426
		c0.274,0.028,0.494,0.234,0.44,0.592L62.223,21.749z"/>
	<path clip-path="url(#SVGID_2_)" fill="#FFFFFF" d="M65.966,24.901c0.743-3.551,3.825-8.546,4.609-8.574
		c0.413-0.013,0.372,0.675,0.551,1.707c0.138,0.825,0.248,1.624,0.716,2.739c0.068,0.192,1.679-3.469,3.716-4.61
		c0.825-0.455-0.138,3.495,1.802,8.71c0.234,0.661-0.756,1.06-1.004,0.385c-0.565-1.513-0.812-2.518-1.019-3.646
		c-0.386-2.009-0.316-3.674-0.386-3.578c-1.706,2.243-2.806,4.706-3.013,4.693c-0.316-0.014-0.743-0.592-1.156-1.665
		c-0.413-1.047-0.701-2.753-0.701-2.753c-0.125,0.179-2.229,3.303-3.055,6.812C66.874,25.796,65.828,25.561,65.966,24.901"/>
	<path clip-path="url(#SVGID_2_)" fill="#FFFFFF" d="M80.778,20.359c3.164,0,2.806,5.092-0.909,5.092
		C76.745,25.451,77.035,20.359,80.778,20.359 M80.062,24.474c2.119,0.014,2.642-3.138,0.522-3.138
		C78.466,21.336,77.943,24.46,80.062,24.474"/>
	<path clip-path="url(#SVGID_2_)" fill="#FFFFFF" d="M86.387,20.359c3.166,0,2.807,5.092-0.908,5.092
		C82.356,25.451,82.644,20.359,86.387,20.359 M85.671,24.474c2.12,0.014,2.643-3.138,0.523-3.138
		C84.075,21.336,83.553,24.46,85.671,24.474"/>
	<path clip-path="url(#SVGID_2_)" fill="#FFFFFF" d="M89.083,24.983l0.716-4.293c0.041-0.262,0.371-0.399,0.577-0.372
		c0.221,0.028,0.455,0.248,0.413,0.496l-0.151,0.88c0,0,2.423-1.789,3.261-1.155c0.868,0.66,0.62,2.972-0.013,4.65
		c-0.235,0.647-1.184,0.317-0.964-0.274c0.551-1.404,0.702-3.193,0.345-3.372c-0.496-0.248-2.849,1.486-2.891,1.789l-0.303,1.817
		c-0.04,0.247-0.274,0.426-0.563,0.385C89.221,25.492,89.056,25.217,89.083,24.983"/>
	<path clip-path="url(#SVGID_2_)" fill="#FFFFFF" d="M20.662,20.837c0-9.445,15.195-17.367,37.611-17.367
		c11.741,0,21.878,2.234,28.762,5.781C78.554,3.726,64.34,0.109,47.701,0.003C19.273-0.18-0.138,8.878,0.001,21.461
		c0.13,11.85,21.356,21.459,47.7,21.459c19.572,0,36.38-5.304,43.735-12.889c-6.183,4.945-17.732,8.174-33.163,8.174
		C37.501,38.205,20.662,30.429,20.662,20.837"/>
</g>
</svg>
