<svg width="384" height="29" viewBox="0 0 384 29" fill="none" xmlns="http://www.w3.org/2000/svg"><path d="M66.962 23.144c-1.664 0-3.168-.368-4.512-1.104a8.22 8.22 0 01-3.144-3.048c-.752-1.312-1.128-2.776-1.128-4.392 0-1.616.376-3.072 1.128-4.368a8.122 8.122 0 013.168-3.072c1.344-.736 2.848-1.104 4.512-1.104 1.248 0 2.4.208 3.456.624a7.164 7.164 0 012.688 1.824l-1.128 1.128C70.69 8.304 69.034 7.64 67.034 7.64c-1.328 0-2.536.304-3.624.912a6.752 6.752 0 00-2.568 2.496c-.608 1.056-.912 2.24-.912 3.552 0 1.312.304 2.496.912 3.552a6.752 6.752 0 002.568 2.496c1.088.608 2.296.912 3.624.912 2.016 0 3.672-.672 4.968-2.016l1.128 1.128c-.736.8-1.64 1.416-2.712 1.848-1.056.416-2.208.624-3.456.624zm14.191-.024c-1.216 0-2.312-.272-3.288-.816A6.126 6.126 0 0175.561 20c-.56-.976-.84-2.08-.84-3.312 0-1.232.28-2.336.84-3.312a5.953 5.953 0 012.304-2.28c.976-.544 2.072-.816 3.288-.816 1.216 0 2.312.272 3.288.816a5.787 5.787 0 012.28 2.28c.56.976.84 2.08.84 3.312 0 1.232-.28 2.336-.84 3.312a5.953 5.953 0 01-2.28 2.304c-.976.544-2.072.816-3.288.816zm0-1.512c.896 0 1.696-.2 2.4-.6.72-.416 1.28-1 1.68-1.752.4-.752.6-1.608.6-2.568s-.2-1.816-.6-2.568a4.166 4.166 0 00-1.68-1.728c-.704-.416-1.504-.624-2.4-.624-.896 0-1.704.208-2.424.624-.704.4-1.264.976-1.68 1.728-.4.752-.6 1.608-.6 2.568s.2 1.816.6 2.568a4.541 4.541 0 001.68 1.752c.72.4 1.528.6 2.424.6zm16.32-11.328c1.583 0 2.839.464 3.767 1.392.944.912 1.416 2.248 1.416 4.008V23h-1.704v-7.152c0-1.312-.328-2.312-.984-3-.656-.688-1.592-1.032-2.808-1.032-1.36 0-2.44.408-3.24 1.224-.784.8-1.176 1.912-1.176 3.336V23H91.04V10.376h1.632v2.328a4.677 4.677 0 011.92-1.776c.832-.432 1.792-.648 2.88-.648zm13.193 12.84a10.06 10.06 0 01-2.952-.432c-.928-.304-1.656-.68-2.184-1.128l.768-1.344c.528.416 1.192.76 1.992 1.032a8.14 8.14 0 002.496.384c1.152 0 2-.176 2.544-.528.56-.368.84-.88.84-1.536 0-.464-.152-.824-.456-1.08-.304-.272-.688-.472-1.152-.6-.464-.144-1.08-.28-1.848-.408-1.024-.192-1.848-.384-2.472-.576a3.817 3.817 0 01-1.608-1.032c-.432-.48-.648-1.144-.648-1.992 0-1.056.44-1.92 1.32-2.592.88-.672 2.104-1.008 3.672-1.008.816 0 1.632.112 2.448.336.816.208 1.488.488 2.016.84l-.744 1.368c-1.04-.72-2.28-1.08-3.72-1.08-1.088 0-1.912.192-2.472.576-.544.384-.816.888-.816 1.512 0 .48.152.864.456 1.152.32.288.712.504 1.176.648.464.128 1.104.264 1.92.408 1.008.192 1.816.384 2.424.576.608.192 1.128.52 1.56.984.432.464.648 1.104.648 1.92 0 1.104-.464 1.984-1.392 2.64-.912.64-2.184.96-3.816.96zM130.4 10.376V23h-1.632v-2.304a4.758 4.758 0 01-1.848 1.8c-.784.416-1.68.624-2.688.624-1.648 0-2.952-.456-3.912-1.368-.944-.928-1.416-2.28-1.416-4.056v-7.32h1.704v7.152c0 1.328.328 2.336.984 3.024.656.688 1.592 1.032 2.808 1.032 1.328 0 2.376-.4 3.144-1.2.768-.816 1.152-1.944 1.152-3.384v-6.624h1.704zm20.517-.096c1.584 0 2.824.456 3.72 1.368.912.912 1.368 2.256 1.368 4.032V23h-1.704v-7.152c0-1.312-.32-2.312-.96-3-.624-.688-1.512-1.032-2.664-1.032-1.312 0-2.344.408-3.096 1.224-.752.8-1.128 1.912-1.128 3.336V23h-1.704v-7.152c0-1.312-.32-2.312-.96-3-.624-.688-1.52-1.032-2.688-1.032-1.296 0-2.328.408-3.096 1.224-.752.8-1.128 1.912-1.128 3.336V23h-1.704V10.376h1.632v2.304a4.553 4.553 0 011.872-1.776c.8-.416 1.72-.624 2.76-.624 1.056 0 1.968.224 2.736.672.784.448 1.368 1.112 1.752 1.992A4.86 4.86 0 01147.917 11c.88-.48 1.88-.72 3-.72zm20.748 6.936h-10.56c.096 1.312.6 2.376 1.512 3.192.912.8 2.064 1.2 3.456 1.2.784 0 1.504-.136 2.16-.408a4.847 4.847 0 001.704-1.248l.96 1.104a5.388 5.388 0 01-2.112 1.536c-.832.352-1.752.528-2.76.528-1.296 0-2.448-.272-3.456-.816A6.077 6.077 0 01160.241 20c-.56-.976-.84-2.08-.84-3.312 0-1.232.264-2.336.792-3.312a5.933 5.933 0 012.208-2.28c.944-.544 2-.816 3.168-.816 1.168 0 2.216.272 3.144.816a5.764 5.764 0 012.184 2.28c.528.96.792 2.064.792 3.312l-.024.528zm-6.096-5.472c-1.216 0-2.24.392-3.072 1.176-.816.768-1.28 1.776-1.392 3.024h8.952c-.112-1.248-.584-2.256-1.416-3.024-.816-.784-1.84-1.176-3.072-1.176zm11.22 1.104c.4-.848.992-1.488 1.776-1.92.8-.432 1.784-.648 2.952-.648v1.656l-.408-.024c-1.328 0-2.368.408-3.12 1.224-.752.816-1.128 1.96-1.128 3.432V23h-1.704V10.376h1.632v2.472zm17.906-5.112h-5.904V6.2h13.584v1.536h-5.904V23h-1.776V7.736zm11.461 5.112c.4-.848.992-1.488 1.776-1.92.8-.432 1.784-.648 2.952-.648v1.656l-.408-.024c-1.328 0-2.368.408-3.12 1.224-.752.816-1.128 1.96-1.128 3.432V23h-1.704V10.376h1.632v2.472zm19.377-2.472V23h-1.632v-2.304a4.758 4.758 0 01-1.848 1.8c-.784.416-1.68.624-2.688.624-1.648 0-2.952-.456-3.912-1.368-.944-.928-1.416-2.28-1.416-4.056v-7.32h1.704v7.152c0 1.328.328 2.336.984 3.024.656.688 1.592 1.032 2.808 1.032 1.328 0 2.376-.4 3.144-1.2.768-.816 1.152-1.944 1.152-3.384v-6.624h1.704zm8.157 12.744a10.06 10.06 0 01-2.952-.432c-.928-.304-1.656-.68-2.184-1.128l.768-1.344c.528.416 1.192.76 1.992 1.032a8.14 8.14 0 002.496.384c1.152 0 2-.176 2.544-.528.56-.368.84-.88.84-1.536 0-.464-.152-.824-.456-1.08-.304-.272-.688-.472-1.152-.6-.464-.144-1.08-.28-1.848-.408-1.024-.192-1.848-.384-2.472-.576a3.817 3.817 0 01-1.608-1.032c-.432-.48-.648-1.144-.648-1.992 0-1.056.44-1.92 1.32-2.592.88-.672 2.104-1.008 3.672-1.008.816 0 1.632.112 2.448.336.816.208 1.488.488 2.016.84l-.744 1.368c-1.04-.72-2.28-1.08-3.72-1.08-1.088 0-1.912.192-2.472.576-.544.384-.816.888-.816 1.512 0 .48.152.864.456 1.152.32.288.712.504 1.176.648.464.128 1.104.264 1.92.408 1.008.192 1.816.384 2.424.576.608.192 1.128.52 1.56.984.432.464.648 1.104.648 1.92 0 1.104-.464 1.984-1.392 2.64-.912.64-2.184.96-3.816.96zm15.006-.888a3.35 3.35 0 01-1.2.672 4.911 4.911 0 01-1.464.216c-1.184 0-2.096-.32-2.736-.96-.64-.64-.96-1.544-.96-2.712v-7.632h-2.256v-1.44h2.256v-2.76h1.704v2.76h3.84v1.44h-3.84v7.536c0 .752.184 1.328.552 1.728.384.384.928.576 1.632.576a3.03 3.03 0 001.008-.168c.336-.112.624-.272.864-.48l.6 1.224zm13.649-5.016h-10.56c.096 1.312.6 2.376 1.512 3.192.912.8 2.064 1.2 3.456 1.2.784 0 1.504-.136 2.16-.408a4.847 4.847 0 001.704-1.248l.96 1.104a5.388 5.388 0 01-2.112 1.536c-.832.352-1.752.528-2.76.528-1.296 0-2.448-.272-3.456-.816A6.077 6.077 0 01250.921 20c-.56-.976-.84-2.08-.84-3.312 0-1.232.264-2.336.792-3.312a5.933 5.933 0 012.208-2.28c.944-.544 2-.816 3.168-.816 1.168 0 2.216.272 3.144.816a5.764 5.764 0 012.184 2.28c.528.96.792 2.064.792 3.312l-.024.528zm-6.096-5.472c-1.216 0-2.24.392-3.072 1.176-.816.768-1.28 1.776-1.392 3.024h8.952c-.112-1.248-.584-2.256-1.416-3.024-.816-.784-1.84-1.176-3.072-1.176zm21.108-6.552V23h-1.632v-2.496a5.174 5.174 0 01-2.04 1.944c-.832.448-1.776.672-2.832.672-1.184 0-2.256-.272-3.216-.816a5.832 5.832 0 01-2.256-2.28c-.544-.976-.816-2.088-.816-3.336 0-1.248.272-2.36.816-3.336a5.668 5.668 0 012.256-2.256c.96-.544 2.032-.816 3.216-.816 1.024 0 1.944.216 2.76.648a5.139 5.139 0 012.04 1.848V5.192h1.704zm-6.36 16.416c.88 0 1.672-.2 2.376-.6.72-.416 1.28-1 1.68-1.752.416-.752.624-1.608.624-2.568s-.208-1.816-.624-2.568a4.166 4.166 0 00-1.68-1.728c-.704-.416-1.496-.624-2.376-.624-.896 0-1.704.208-2.424.624-.704.4-1.264.976-1.68 1.728-.4.752-.6 1.608-.6 2.568s.2 1.816.6 2.568a4.541 4.541 0 001.68 1.752c.72.4 1.528.6 2.424.6zM300.216 23l-3.84-5.4c-.432.048-.88.072-1.344.072h-4.512V23h-1.776V6.2h6.288c2.144 0 3.824.512 5.04 1.536 1.216 1.024 1.824 2.432 1.824 4.224 0 1.312-.336 2.424-1.008 3.336-.656.896-1.6 1.544-2.832 1.944L302.16 23h-1.944zm-5.232-6.84c1.664 0 2.936-.368 3.816-1.104.88-.736 1.32-1.768 1.32-3.096 0-1.36-.44-2.4-1.32-3.12-.88-.736-2.152-1.104-3.816-1.104h-4.464v8.424h4.464zm21.736 1.056h-10.56c.096 1.312.6 2.376 1.512 3.192.912.8 2.064 1.2 3.456 1.2.784 0 1.504-.136 2.16-.408a4.847 4.847 0 001.704-1.248l.96 1.104a5.388 5.388 0 01-2.112 1.536c-.832.352-1.752.528-2.76.528-1.296 0-2.448-.272-3.456-.816A6.077 6.077 0 01305.296 20c-.56-.976-.84-2.08-.84-3.312 0-1.232.264-2.336.792-3.312a5.933 5.933 0 012.208-2.28c.944-.544 2-.816 3.168-.816 1.168 0 2.216.272 3.144.816a5.764 5.764 0 012.184 2.28c.528.96.792 2.064.792 3.312l-.024.528zm-6.096-5.472c-1.216 0-2.24.392-3.072 1.176-.816.768-1.28 1.776-1.392 3.024h8.952c-.112-1.248-.584-2.256-1.416-3.024-.816-.784-1.84-1.176-3.072-1.176zm19.962-1.368L324.97 23h-1.752l-5.592-12.624h1.776l4.728 10.752 4.776-10.752h1.68zm2.399 0h1.704V23h-1.704V10.376zm.864-2.76c-.352 0-.648-.12-.888-.36s-.36-.528-.36-.864c0-.32.12-.6.36-.84s.536-.36.888-.36.648.12.888.36c.24.224.36.496.36.816 0 .352-.12.648-.36.888s-.536.36-.888.36zm16.574 9.6h-10.56c.096 1.312.6 2.376 1.512 3.192.912.8 2.064 1.2 3.456 1.2.784 0 1.504-.136 2.16-.408a4.847 4.847 0 001.704-1.248l.96 1.104a5.388 5.388 0 01-2.112 1.536c-.832.352-1.752.528-2.76.528-1.296 0-2.448-.272-3.456-.816A6.077 6.077 0 01338.999 20c-.56-.976-.84-2.08-.84-3.312 0-1.232.264-2.336.792-3.312a5.933 5.933 0 012.208-2.28c.944-.544 2-.816 3.168-.816 1.168 0 2.216.272 3.144.816a5.764 5.764 0 012.184 2.28c.528.96.792 2.064.792 3.312l-.024.528zm-6.096-5.472c-1.216 0-2.24.392-3.072 1.176-.816.768-1.28 1.776-1.392 3.024h8.952c-.112-1.248-.584-2.256-1.416-3.024-.816-.784-1.84-1.176-3.072-1.176zm27.882-1.368L367.433 23h-1.608l-3.984-10.344L357.857 23h-1.608l-4.752-12.624h1.632l3.96 10.728 4.056-10.728h1.464l4.032 10.728 4.008-10.728h1.56zm5.809 12.744a10.06 10.06 0 01-2.952-.432c-.928-.304-1.656-.68-2.184-1.128l.768-1.344c.528.416 1.192.76 1.992 1.032a8.14 8.14 0 002.496.384c1.152 0 2-.176 2.544-.528.56-.368.84-.88.84-1.536 0-.464-.152-.824-.456-1.08-.304-.272-.688-.472-1.152-.6-.464-.144-1.08-.28-1.848-.408-1.024-.192-1.848-.384-2.472-.576a3.817 3.817 0 01-1.608-1.032c-.432-.48-.648-1.144-.648-1.992 0-1.056.44-1.92 1.32-2.592.88-.672 2.104-1.008 3.672-1.008.816 0 1.632.112 2.448.336.816.208 1.488.488 2.016.84l-.744 1.368c-1.04-.72-2.28-1.08-3.72-1.08-1.088 0-1.912.192-2.472.576-.544.384-.816.888-.816 1.512 0 .48.152.864.456 1.152.32.288.712.504 1.176.648.464.128 1.104.264 1.92.408 1.008.192 1.816.384 2.424.576.608.192 1.128.52 1.56.984.432.464.648 1.104.648 1.92 0 1.104-.464 1.984-1.392 2.64-.912.64-2.184.96-3.816.96z" fill="#003432"/><path d="M14.992 6.54h5.772v2.986h-5.772V6.54zM4.88 12.508h3.36v2.985H4.88v-2.986zm5.176 5.971h11.726v2.986H10.057v-2.986zm-.22-5.971h8.42v2.985h-8.42v-2.986zm-3.86 11.506h11.723V27H5.975v-2.986zm9.87-20.028h-4.34V1h4.34v2.987zm18.165 0H17.293V1h17.624c.454 0 .907.05 1.35.148L34.01 3.987zM19.743 24.015h15.174c.807 0 1.582-.315 2.153-.875.57-.56.892-1.32.893-2.114v-6.654l3.04-2.768v9.422a5.868 5.868 0 01-.466 2.282 5.945 5.945 0 01-1.32 1.933l-.006.006a6.07 6.07 0 01-1.968 1.297A6.156 6.156 0 0134.92 27H19.743v-2.986zm5.96-13.593l-3.92 4.265 6.968 5.79L40.997 9.333V6.975a5.919 5.919 0 00-.831-3.003 6.059 6.059 0 00-2.251-2.19L28.7 13.365l-2.998-2.943zM0 18.48h8.24v2.986H0V18.48zM7.087 6.54h6.458v2.986H7.087V6.54z" fill="#52B5B3"/></svg>