<svg width="127" height="127" viewBox="0 0 127 127" fill="none" xmlns="http://www.w3.org/2000/svg"><path d="M14.387 86.18H0V127h14.387V86.18zM127 0H86.173v14.385H127V0z" fill="#CE8F00"/><path d="M0 127L127 .021 126.979 0h-45.07a9.219 9.219 0 00-6.537 2.716L2.716 75.36A9.179 9.179 0 000 81.894V127z" fill="#F4BB3A"/><path d="M12.738 89.393l1.25 1.93 1.213-1.213.92.92-1.407 1.406 1.333 2.068-1.002 1.002-1.333-2.068-1.801 1.801 1.333 2.069-1.002 1.002-1.333-2.069-1.425 1.425-.92-.92 1.618-1.617-1.25-1.93-1.415 1.415-.92-.919 1.61-1.609-1.315-2.031 1.002-1.002 1.314 2.031 1.802-1.801-1.315-2.032 1.002-1.002 1.315 2.032 1.222-1.223.92.92-1.416 1.415zm-1.002 1.002l-1.802 1.802 1.25 1.93 1.802-1.802-1.25-1.93zm4.236-7.306l-.956-.957 1.912-1.912 6.701 6.702-1.057 1.057-5.745-5.745-.855.855zm8.065-2.992c-.625-.624-1.041-1.33-1.25-2.114a4.41 4.41 0 01.028-2.344 4.676 4.676 0 011.222-2.068c.68-.68 1.453-1.115 2.317-1.305.864-.203 1.722-.117 2.574.257l-1.26 1.26c-.502-.172-.983-.194-1.443-.065-.46.129-.882.386-1.268.772-.423.423-.705.895-.846 1.416a2.846 2.846 0 00.037 1.6c.171.539.493 1.044.965 1.516s.977.794 1.517.965a2.928 2.928 0 001.608.046c.521-.14.993-.423 1.416-.846.386-.386.643-.808.772-1.268.129-.46.107-.94-.064-1.443l1.26-1.26c.373.852.459 1.71.256 2.574-.196.858-.634 1.627-1.314 2.307a4.71 4.71 0 01-2.06 1.232 4.508 4.508 0 01-2.352.019c-.785-.209-1.49-.625-2.115-1.25zm9.38-15.74l6.39 6.388-1.049 1.048-2.794-2.795-3.006 3.006 2.794 2.795-1.047 1.048-6.39-6.39 1.049-1.047 2.74 2.74 3.005-3.007-2.74-2.739 1.049-1.048zm10.747 2.159a4.757 4.757 0 01-2.059 1.231 4.507 4.507 0 01-2.353.019c-.79-.215-1.498-.635-2.124-1.26-.625-.625-1.041-1.33-1.25-2.114a4.408 4.408 0 01.028-2.344 4.676 4.676 0 011.222-2.068 4.63 4.63 0 012.069-1.223 4.29 4.29 0 012.344-.027c.784.208 1.489.625 2.114 1.25.625.625 1.045 1.333 1.26 2.123a4.384 4.384 0 01-.019 2.354 4.71 4.71 0 01-1.232 2.059zm-.91-.91c.423-.423.705-.895.846-1.416a2.85 2.85 0 00-.055-1.6c-.172-.551-.494-1.063-.965-1.535-.472-.471-.981-.79-1.526-.956a2.763 2.763 0 00-1.59-.046c-.522.141-.993.423-1.416.846-.423.423-.705.895-.846 1.416a2.846 2.846 0 00.037 1.6c.171.539.493 1.044.965 1.516s.98.797 1.526.974a2.931 2.931 0 001.609.046c.52-.14.992-.422 1.415-.845zm-.2-10.886l6.388 6.389-1.048 1.048-6.388-6.389 1.048-1.048zm4.207 2.154c-.625-.625-1.042-1.33-1.25-2.114a4.41 4.41 0 01.027-2.344 4.676 4.676 0 011.223-2.068c.68-.68 1.452-1.116 2.316-1.306.864-.202 1.722-.116 2.574.258l-1.26 1.259c-.502-.172-.983-.193-1.442-.064-.46.128-.883.386-1.27.772-.422.423-.704.895-.845 1.415a2.853 2.853 0 00.037 1.6c.172.54.493 1.045.965 1.517s.978.793 1.517.965a2.95 2.95 0 001.609.046c.52-.141.992-.423 1.415-.846.386-.386.644-.809.772-1.268.13-.46.108-.941-.064-1.444l1.26-1.259c.373.852.459 1.71.257 2.574-.196.858-.634 1.627-1.315 2.307a4.71 4.71 0 01-2.059 1.232 4.507 4.507 0 01-2.353.018c-.785-.208-1.49-.625-2.114-1.25zm6.172-10.842l1.875 1.876 2.206-2.207.855.855-2.206 2.207 1.958 1.958 2.482-2.482.855.854-3.53 3.53-6.398-6.398 3.53-3.53.855.855-2.482 2.482zm14.682-3.467a4.757 4.757 0 01-2.06 1.232 4.506 4.506 0 01-2.353.018c-.79-.214-1.498-.634-2.123-1.259-.625-.625-1.042-1.33-1.25-2.114a4.409 4.409 0 01.027-2.344 4.677 4.677 0 011.223-2.069 4.63 4.63 0 012.068-1.222 4.291 4.291 0 012.344-.028c.785.209 1.49.625 2.115 1.25.625.625 1.044 1.333 1.259 2.124a4.385 4.385 0 01-.018 2.353 4.71 4.71 0 01-1.232 2.06zm-.91-.91c.422-.423.704-.895.845-1.416a2.85 2.85 0 00-.055-1.599c-.171-.551-.493-1.063-.965-1.535s-.98-.79-1.526-.956a2.764 2.764 0 00-1.59-.046c-.521.14-.993.423-1.416.846-.423.422-.705.894-.845 1.415a2.847 2.847 0 00.036 1.6c.172.539.494 1.045.965 1.517.472.471.981.796 1.526.974a2.95 2.95 0 001.609.046c.52-.141.993-.423 1.416-.846zm2.51-13.597l.856.855-2.712 2.712 1.884 1.884 2.115-2.114.855.855-2.115 2.114 2.795 2.794-1.048 1.048-6.389-6.388 3.76-3.76zm8.765 1.164a51.37 51.37 0 00.138-2.639 8.044 8.044 0 00-.175-1.884c-.129-.582-.37-1.051-.726-1.407-.368-.367-.745-.566-1.13-.597-.38-.037-.758.132-1.131.506-.362.361-.527.76-.497 1.195.03.422.233.833.607 1.231l-1.011 1.012c-.68-.717-1.005-1.459-.975-2.225.031-.778.356-1.477.975-2.096.668-.668 1.373-1.005 2.114-1.011.748-.012 1.428.288 2.04.9.442.442.755.981.938 1.619.184.625.282 1.256.295 1.893a29.36 29.36 0 01-.065 2.29l-.046.78 2.914-2.914.873.874-4.467 4.467-.763-.763.092-1.231zm2.713-6.74c-1.06-1.06-1.71-2.065-1.949-3.015-.239-.962.08-1.881.956-2.758.877-.876 1.793-1.192 2.749-.947.956.233 1.964.88 3.024 1.94 1.073 1.073 1.731 2.093 1.977 3.061.245.956-.071 1.872-.947 2.749-.877.876-1.796 1.195-2.758.956-.962-.252-1.98-.913-3.052-1.986zm3.75-3.75c-.496-.497-.95-.883-1.36-1.159-.404-.282-.812-.432-1.222-.45-.417-.024-.819.156-1.205.542-.386.386-.567.788-.542 1.205.018.41.165.82.441 1.231.282.405.671.855 1.168 1.352.514.514.977.916 1.388 1.204.41.288.82.441 1.231.46.417.012.819-.175 1.205-.561.386-.386.57-.785.551-1.195-.012-.417-.162-.83-.45-1.241-.288-.41-.69-.874-1.204-1.388zm4.731-.705c.08-1.097.126-1.976.138-2.638a8.038 8.038 0 00-.174-1.884c-.13-.583-.371-1.051-.727-1.407-.367-.368-.744-.567-1.13-.597-.38-.037-.757.132-1.131.505-.362.362-.527.76-.496 1.195.03.423.232.834.606 1.232l-1.01 1.011c-.681-.717-1.006-1.458-.975-2.224.03-.779.355-1.477.974-2.096.668-.668 1.373-1.005 2.114-1.011.748-.013 1.428.288 2.041.9.441.442.754.981.938 1.618.183.626.282 1.257.294 1.894.012.625-.01 1.388-.064 2.289l-.047.781 2.914-2.914.874.874-4.468 4.467-.763-.763.092-1.232zm.268-8.908l-.956-.956 1.912-1.913 6.701 6.702-1.057 1.057-5.745-5.745-.855.855z" fill="#fff"/></svg>