<?xml version="1.0" standalone="no"?>
<!DOCTYPE svg PUBLIC "-//W3C//DTD SVG 1.1//EN" "http://www.w3.org/Graphics/SVG/1.1/DTD/svg11.dtd" >
<svg xmlns="http://www.w3.org/2000/svg">
<metadata>Generated by IcoMoon</metadata>
<defs>
<font id="icomoon" horiz-adv-x="1024">
<font-face units-per-em="1024" ascent="960" descent="-64" />
<missing-glyph horiz-adv-x="1024" />
<glyph unicode="&#x20;" horiz-adv-x="512" d="" />
<glyph unicode="&#xe900;" glyph-name="facebook" d="M512 960c-282.752 0-512-229.248-512-512s229.248-512 512-512 512 229.248 512 512-229.248 512-512 512zM640 618.667h-57.6c-22.955 0-27.733-9.429-27.733-33.195v-52.139h85.333l-8.917-85.333h-76.416v-298.667h-128v298.667h-85.333v85.333h85.333v98.475c0 75.477 39.723 114.859 129.237 114.859h84.096v-128z" />
<glyph unicode="&#xe901;" glyph-name="instagram" d="M736 649.045v-54.144c0-12.672-10.283-22.997-22.955-22.997h-54.144c-12.757 0-22.955 10.325-22.955 22.997v54.144c0 12.672 10.197 22.955 22.955 22.955h54.144c12.672 0 22.955-10.283 22.955-22.955zM512 333.184c63.403 0 114.901 51.413 114.901 114.859s-51.499 114.773-114.901 114.773c-63.445 0-114.816-51.371-114.816-114.816s51.371-114.816 114.816-114.816zM693.803 473.6c1.195-8.363 1.963-16.896 1.963-25.557 0-101.547-82.261-183.808-183.765-183.808s-183.765 82.261-183.765 183.765c0 8.704 0.768 17.195 1.963 25.557 1.152 8.277 2.816 16.341 5.035 24.192h-47.232v-250.837c0-12.672 10.283-22.955 22.955-22.955h402.091c12.672 0 22.955 10.283 22.955 22.955v250.837h-47.232c2.133-7.851 3.84-15.915 5.035-24.149zM1024 448c0-282.752-229.248-512-512-512s-512 229.248-512 512 229.248 512 512 512 512-229.248 512-512zM810.667 677.76c0 38.059-30.848 68.907-68.907 68.907h-459.52c-38.059 0-68.907-30.848-68.907-68.907v-459.477c0-38.101 30.848-68.949 68.907-68.949h459.52c38.059 0 68.907 30.848 68.907 68.949v459.477z" />
<glyph unicode="&#xe902;" glyph-name="linkedin" d="M512 960c-282.752 0-512-229.248-512-512s229.248-512 512-512 512 229.248 512 512-229.248 512-512 512zM426.667 277.333h-85.333v256h85.333v-256zM384 571.349c-25.899 0-46.933 21.163-46.933 47.317 0 26.112 20.992 47.317 46.933 47.317s46.933-21.205 46.933-47.317c0-26.155-21.035-47.317-46.933-47.317zM725.333 277.333h-85.248v122.069c0 80.256-85.419 73.472-85.419 0v-122.069h-85.333v256h85.333v-46.635c37.205 68.949 170.667 74.069 170.667-66.048v-143.317z" />
<glyph unicode="&#xe903;" glyph-name="twitter" d="M512 960c-282.752 0-512-229.248-512-512s229.248-512 512-512 512 229.248 512 512-229.248 512-512 512zM770.816 548.48c7.808-172.373-120.747-364.544-348.331-364.544-69.205 0-133.589 20.309-187.819 55.083 65.024-7.68 129.92 10.411 181.419 50.731-53.589 0.981-98.859 36.437-114.517 85.12 19.243-3.669 38.187-2.603 55.381 2.091-58.923 11.861-99.627 64.939-98.304 121.728 16.555-9.173 35.413-14.677 55.509-15.317-54.571 36.48-70.016 108.544-37.931 163.627 60.416-74.155 150.741-122.923 252.587-128.043-17.877 76.629 40.277 150.485 119.424 150.485 35.2 0 67.072-14.891 89.429-38.699 27.904 5.461 54.187 15.701 77.824 29.739-9.173-28.629-28.587-52.608-53.888-67.797 24.789 2.987 48.427 9.557 70.357 19.328-16.384-24.661-37.12-46.251-61.141-63.531z" />
<glyph unicode="&#xe904;" glyph-name="menu" d="M984 488h-944c-22.092 0-40-17.908-40-40s17.908-40 40-40h944c22.092 0 40 17.908 40 40s-17.908 40-40 40zM984 808h-944c-22.092 0-40-17.908-40-40s17.908-40 40-40h944c22.092 0 40 17.908 40 40s-17.908 40-40 40zM984 168h-944c-22.092 0-40-17.908-40-40s17.908-40 40-40h944c22.092 0 40 17.908 40 40s-17.908 40-40 40z" />
<glyph unicode="&#xe905;" glyph-name="find" horiz-adv-x="1131" d="M878.686 20.559h-766.243c-61.889 0-112.443 50.554-112.443 112.669v714.329c0 61.889 50.554 112.443 112.443 112.443h896.368c62.116 0 112.443-50.554 112.443-112.443v-714.329c0-9.295-7.708-17.002-17.002-17.002s-17.002 7.708-17.002 17.002v714.329c0 43.3-35.138 78.438-78.438 78.438h-896.368c-43.3 0-78.438-35.138-78.438-78.438v-714.329c0-43.3 35.138-78.438 78.438-78.438h766.016c9.295 0 17.002-7.708 17.002-17.002 0.227-9.521-7.481-17.229-16.776-17.229zM225.112 709.724h-133.526c-9.295 0-17.002 7.708-17.002 17.002s7.708 17.002 17.002 17.002h116.523v113.803c0 9.295 7.708 17.002 17.002 17.002s17.002-7.708 17.002-17.002v-131.032c0-9.295-7.481-16.776-17.002-16.776zM824.278 709.724h-516.874c-9.295 0-17.002 7.708-17.002 17.002v130.805c0 9.295 7.708 17.002 17.002 17.002s17.002-7.708 17.002-17.002v-114.030h482.869v114.030c0 9.295 7.708 17.002 17.002 17.002s17.002-7.708 17.002-17.002v-131.032c0-9.295-7.708-16.776-17.002-16.776zM396.497 440.406h-88.866c-9.295 0-17.002 7.708-17.002 17.002v192.468c0 9.295 7.708 17.002 17.002 17.002h225.792c9.295 0 17.002-7.708 17.002-17.002s-7.708-17.002-17.002-17.002h-208.79v-158.463h72.090c9.295 0 17.002-7.708 17.002-17.002-0.227-9.295-7.934-17.002-17.229-17.002zM692.793 104.437c-69.143 0-138.060 26.297-190.654 78.891-51.007 51.007-79.118 118.79-79.118 190.654 0 72.090 28.111 139.873 79.118 190.654 51.007 51.007 118.79 79.118 190.654 79.118 72.090 0 139.873-28.111 190.654-79.118 105.188-105.188 105.188-276.346 0-381.535-52.368-52.368-121.511-78.665-190.654-78.665zM692.793 609.523c-60.302 0-120.831-22.897-166.624-68.917-91.813-91.813-91.813-241.435 0-333.474 91.813-91.813 241.435-91.813 333.474 0 91.813 91.813 91.813 241.435 0 333.474-46.020 46.020-106.549 68.917-166.851 68.917zM692.793 177.888c-52.368 0-101.561 20.403-138.513 57.355s-57.355 86.146-57.355 138.513c0 52.368 20.403 101.561 57.355 138.513 76.398 76.398 200.855 76.398 277.253 0 36.952-36.952 57.355-86.146 57.355-138.513s-20.403-101.561-57.355-138.513v0c0 0 0 0 0 0-37.179-36.952-86.372-57.355-138.74-57.355zM692.793 535.846c-41.486 0-82.972-15.869-114.483-47.38-30.604-30.604-47.38-71.184-47.38-114.483s16.776-83.879 47.38-114.483c30.604-30.604 71.184-47.38 114.483-47.38s83.879 16.776 114.483 47.38c0 0 0 0 0 0 30.604 30.604 47.38 71.184 47.38 114.483s-16.776 83.879-47.38 114.483c-31.511 31.738-72.997 47.38-114.483 47.38zM1081.355-64c-12.695 0-25.39 4.761-35.138 14.509l-209.47 209.47c-6.574 6.574-6.574 17.456 0 24.030s17.456 6.574 24.030 0l209.47-209.47c6.121-6.121 15.869-6.121 21.99 0s6.121 15.869 0 21.99l-209.47 209.47c-6.574 6.574-6.574 17.456 0 24.030s17.456 6.574 24.030 0l209.47-209.47c19.269-19.269 19.269-50.781 0-70.050-9.748-9.748-22.443-14.509-34.912-14.509zM1028.987 709.724h-125.591c-9.295 0-17.002 7.708-17.002 17.002v130.805c0 9.295 7.708 17.002 17.002 17.002s17.002-7.708 17.002-17.002v-114.030h108.589c9.295 0 17.002-7.708 17.002-17.002s-7.708-16.776-17.002-16.776zM1031.254 632.873h-186.573c-9.295 0-17.002 7.708-17.002 17.002s7.708 17.002 17.002 17.002h186.573c9.295 0 17.002-7.708 17.002-17.002s-7.708-17.002-17.002-17.002zM225.112 440.406h-133.526c-9.295 0-17.002 7.708-17.002 17.002s7.708 17.002 17.002 17.002h116.523v158.463h-116.523c-9.295 0-17.002 7.708-17.002 17.002s7.708 17.002 17.002 17.002h133.526c9.295 0 17.002-7.708 17.002-17.002v-192.468c0-9.295-7.481-17.002-17.002-17.002zM102.921 95.823c-4.307 0-8.388 1.587-11.788 4.761-6.801 6.348-7.028 17.229-0.68 24.030l117.657 124.004v108.362h-116.523c-9.295 0-17.002 7.708-17.002 17.002s7.708 17.002 17.002 17.002h133.526c9.295 0 17.002-7.708 17.002-17.002v-132.166c0-4.307-1.587-8.615-4.761-11.788l-122.191-128.992c-3.174-3.627-7.708-5.214-12.242-5.214zM208.337 95.823c-4.081 0-8.161 1.36-11.335 4.307-7.028 6.348-7.708 17.002-1.36 24.030l94.76 106.095v143.727c0 9.295 7.708 17.002 17.002 17.002h72.997c9.295 0 17.002-7.708 17.002-17.002s-7.708-17.002-17.002-17.002h-55.995v-133.299c0-4.081-1.587-8.161-4.307-11.335l-99.068-110.856c-3.4-3.854-7.934-5.667-12.695-5.667z" />
<glyph unicode="&#xe906;" glyph-name="follow" horiz-adv-x="1131" d="M726.797 377.157c-73.224 0-132.846 59.622-132.846 132.846s59.622 132.846 132.846 132.846c73.224 0 132.846-59.622 132.846-132.846s-59.395-132.846-132.846-132.846zM726.797 609.070c-54.408 0-98.841-44.433-98.841-98.841s44.433-98.841 98.841-98.841c54.408 0 98.841 44.433 98.841 98.841s-44.206 98.841-98.841 98.841zM1114.453 88.795h-1097.451c-9.295 0-17.002 7.708-17.002 17.002s7.708 17.002 17.002 17.002h1097.451c9.295 0 17.002-7.708 17.002-17.002s-7.481-17.002-17.002-17.002zM766.696 100.13c-9.295 0-17.002 7.708-17.002 17.002v0.907c0 36.272 26.977 67.103 63.022 71.637l147.581 17.909c9.295 1.133 17.683-5.441 18.816-14.735s-5.441-17.909-14.735-19.043l-147.354-17.909c-18.816-2.494-33.098-18.816-33.098-37.859v-0.907c-0.227-9.295-7.934-17.002-17.229-17.002zM1054.378 96.956c-9.295 0-17.002 7.708-17.002 17.002v22.443c0 36.499-12.468 72.544-35.138 101.108l-56.901 71.864c-21.99 27.884-53.048 48.060-87.506 56.675l-82.292 21.083c-9.068 2.267-14.509 11.562-12.242 20.63s11.562 14.509 20.63 12.242l82.292-21.083c41.486-10.655 79.118-34.912 105.642-68.69l56.675-71.864c27.431-34.685 42.619-77.985 42.619-122.191v-22.443c0.227-9.068-7.481-16.776-16.776-16.776zM926.519 179.928c-4.761 0-9.521 2.040-12.695 5.667l-56.675 64.383c-6.121 7.028-5.441 17.909 1.587 24.030s17.683 5.441 24.030-1.587l56.675-64.383c6.121-7.028 5.441-17.909-1.587-24.030-3.4-2.72-7.481-4.081-11.335-4.081zM672.843 101.037c-9.295 0-17.002 7.708-17.002 17.002 0 19.269-14.282 35.592-33.325 37.859l-137.606 17.909c-9.295 1.133-15.869 9.748-14.735 19.043s9.748 15.869 19.043 14.735l137.606-17.909c35.818-4.761 63.022-35.365 63.022-71.637 0-9.295-7.481-17.002-17.002-17.002zM394.91 96.956c-9.295 0-17.002 7.708-17.002 17.002v22.443c0 44.206 15.189 87.506 42.393 122.191l56.675 71.864c26.524 33.551 64.156 58.035 105.642 68.69l82.292 21.083c9.068 2.267 18.363-3.174 20.63-12.242s-3.174-18.363-12.242-20.63l-82.292-21.083c-34.458-8.841-65.516-29.017-87.506-56.675l-56.675-71.864c-22.67-28.564-35.138-64.609-35.138-101.108v-22.443c0.227-9.521-7.254-17.229-16.776-17.229zM522.768 179.928c-4.081 0-7.934 1.36-11.108 4.307-7.028 6.121-7.708 17.002-1.587 24.030l34.005 38.766c6.121 7.028 17.002 7.708 24.030 1.587s7.708-17.002 1.587-24.030l-34.005-38.766c-3.4-3.854-8.161-5.894-12.922-5.894zM304.004 166.1h-265.918c-9.295 0-17.002 7.708-17.002 17.002s7.708 17.002 17.002 17.002h266.145c9.295 0 17.002-7.708 17.002-17.002s-7.708-17.002-17.229-17.002zM304.004 234.109h-265.918c-9.295 0-17.002 7.708-17.002 17.002s7.708 17.002 17.002 17.002h266.145c9.295 0 17.002-7.708 17.002-17.002-0.227-9.295-7.708-17.002-17.229-17.002zM304.004 299.172h-265.918c-9.295 0-17.002 7.708-17.002 17.002s7.708 17.002 17.002 17.002h266.145c9.295 0 17.002-7.708 17.002-17.002s-7.708-17.002-17.229-17.002zM304.004 367.182h-265.918c-9.295 0-17.002 7.708-17.002 17.002s7.708 17.002 17.002 17.002h266.145c9.295 0 17.002-7.708 17.002-17.002-0.227-9.295-7.708-17.002-17.229-17.002zM686.445 52.070c-7.934 0-15.189 5.667-16.776 13.829l-41.939 218.085c-1.814 9.295 4.307 18.136 13.375 19.95 9.295 1.814 18.136-4.307 19.95-13.375l41.939-218.085c1.814-9.295-4.307-18.136-13.375-19.95-1.133-0.453-2.267-0.453-3.174-0.453zM895.008-64h-356.144c-5.894 0-11.335 2.947-14.509 8.161s-3.4 11.335-0.68 16.549l76.624 152.795c4.307 8.388 14.509 11.788 22.897 7.481s11.788-14.509 7.481-22.897l-64.156-128.312h303.323l-52.821 129.445c-3.627 8.615 0.68 18.589 9.295 22.217s18.589-0.68 22.217-9.295l62.342-152.795c2.040-5.214 1.587-11.108-1.587-15.869-3.4-4.761-8.841-7.481-14.282-7.481zM498.738 509.776c-3.4 0-6.801 1.133-9.748 3.174l-80.705 57.355c-4.081-0.227-8.388-0.453-12.242-0.453h-46.927c-107.455 0-194.961 87.506-194.961 194.961s87.506 194.961 194.961 194.961h46.927c107.455 0 194.961-87.506 194.961-194.961 0-65.969-33.778-127.632-88.639-163.45l13.149-71.637c1.36-6.801-1.814-13.602-7.481-17.456-2.947-1.587-6.121-2.494-9.295-2.494zM413.046 604.762c3.627 0 7.028-1.133 9.748-3.174l51.461-36.725-7.708 41.939c-1.36 7.028 2.040 14.282 8.388 17.909 50.554 28.564 81.838 82.292 81.838 140.327 0 88.866-72.317 160.956-160.956 160.956h-46.7c-88.866 0-160.956-72.317-160.956-160.956 0-88.866 72.317-160.956 160.956-160.956h46.927c4.987 0 10.201 0.227 15.416 0.68 0.68 0 1.133 0 1.587 0zM332.114 683.88c-4.307 0-8.615 1.587-12.015 4.987l-34.005 34.005c-6.574 6.574-6.574 17.456 0 24.030s17.456 6.574 24.030 0l21.99-21.99 114.936 114.936c6.574 6.574 17.456 6.574 24.030 0s6.574-17.456 0-24.030l-126.952-126.952c-3.4-3.174-7.708-4.987-12.015-4.987z" />
<glyph unicode="&#xe907;" glyph-name="login" d="M384 960v-128h512v-640h-512v-128h640v896h-640zM512 704v-128h-512v-128h512v-128l256 192-256 192z" />
<glyph unicode="&#xe908;" glyph-name="pin" d="M764.263 853.489c-67.27 67.27-156.964 104.642-254.131 104.642-95.299 0-184.993-37.372-254.131-104.642-125.197-125.197-140.146-360.642-33.635-504.526l287.766-414.832 285.898 414.832c110.248 143.883 93.431 379.328-31.766 504.526zM515.737 474.161c-72.876 0-130.803 57.927-130.803 130.803s57.927 130.803 130.803 130.803c72.876 0 130.803-57.927 130.803-130.803s-59.796-130.803-130.803-130.803z" />
<glyph unicode="&#xe909;" glyph-name="search" d="M1001.153 70.062l-211.007 211.007c50.866 73.497 76.299 155.184 76.299 245.493 0 58.625-11.423 114.664-34.27 168.332-22.847 53.452-53.452 99.792-92.248 138.373s-84.92 69.617-138.373 92.248c-53.452 22.847-109.707 34.054-168.332 34.054s-114.664-11.423-168.332-34.054c-53.452-22.847-99.792-53.452-138.373-92.248-38.796-38.796-69.617-84.92-92.248-138.373-22.847-53.452-34.27-109.491-34.27-168.116s11.423-114.664 34.054-168.332c22.847-53.452 53.452-99.577 92.248-138.373s84.92-69.617 138.373-92.248c53.452-22.847 109.707-34.054 168.332-34.054 90.309 0 172.211 25.433 245.493 76.299l211.007-210.361c14.872-15.518 33.192-23.278 55.392-23.278 21.338 0 39.874 7.759 55.392 23.278s23.278 34.054 23.278 55.392c0.431 21.338-7.113 39.874-22.415 54.961zM628.065 331.935c-53.883-53.883-118.759-80.825-194.842-80.825-75.868 0-140.743 26.942-194.842 80.825-53.883 53.883-80.825 118.759-80.825 194.842 0 75.868 26.942 140.743 80.825 194.842 53.883 53.883 118.759 80.825 194.842 80.825 75.868 0 140.743-26.942 194.842-80.825 53.883-53.883 80.825-118.759 80.825-194.842 0-75.868-26.942-140.743-80.825-194.842z" />
<glyph unicode="&#xe90a;" glyph-name="trust" horiz-adv-x="772" d="M690.031-64h-673.944c-8.794 0-16.087 7.293-16.087 16.087v927.048c0 8.794 7.293 16.087 16.087 16.087h673.944c8.794 0 16.087-7.293 16.087-16.087v-927.048c0-8.794-7.078-16.087-16.087-16.087zM32.174-31.826h641.77v894.874h-641.77v-894.874zM352.845 507.415c-75.717 0-137.062 61.56-137.062 137.062 0 75.717 61.56 137.062 137.062 137.062 25.739 0 51.050-7.293 72.928-20.806 7.507-4.719 9.867-14.586 5.148-22.093s-14.586-9.867-22.093-5.148c-16.731 10.51-36.035 16.087-55.769 16.087-57.914 0-104.888-47.189-104.888-104.888 0-57.914 47.189-104.888 104.888-104.888s104.888 47.189 104.888 104.888c0 4.719-0.214 9.223-0.858 13.942-1.072 8.794 5.148 16.945 13.942 18.018s16.945-4.933 18.018-13.942c0.858-6.006 1.072-12.012 1.072-18.018 0-75.717-61.56-137.277-137.277-137.277zM353.274 597.074c-4.29 0-8.365 1.716-11.368 4.719l-31.316 31.316c-6.22 6.22-6.22 16.516 0 22.736s16.516 6.22 22.736 0l19.948-19.948 109.607 109.607c6.22 6.22 16.516 6.22 22.736 0s6.22-16.516 0-22.736l-120.975-120.975c-3.003-3.003-7.078-4.719-11.368-4.719zM242.809 399.524h-127.839c-8.794 0-16.087 7.293-16.087 16.087s7.293 16.087 16.087 16.087h127.839c8.794 0 16.087-7.293 16.087-16.087 0-9.009-7.293-16.087-16.087-16.087zM591.149 297.853h-476.179c-8.794 0-16.087 7.293-16.087 16.087s7.293 16.087 16.087 16.087h476.179c8.794 0 16.087-7.293 16.087-16.087 0-9.009-7.293-16.087-16.087-16.087zM591.149 196.183h-476.179c-8.794 0-16.087 7.293-16.087 16.087s7.293 16.087 16.087 16.087h476.179c8.794 0 16.087-7.293 16.087-16.087 0-9.009-7.293-16.087-16.087-16.087zM486.69 94.297h-371.72c-8.794 0-16.087 7.293-16.087 16.087s7.293 16.087 16.087 16.087h371.72c8.794 0 16.087-7.293 16.087-16.087s-7.293-16.087-16.087-16.087zM755.667 12.146c-8.794 0-16.087 7.293-16.087 16.087v899.593h-650.349c-8.794 0-16.087 7.293-16.087 16.087s7.293 16.087 16.087 16.087h666.437c8.794 0 16.087-7.293 16.087-16.087v-915.68c0-9.009-7.293-16.087-16.087-16.087z" />
<glyph unicode="&#xe90b;" glyph-name="user" d="M749.403 722.597c0-131.114-106.289-237.403-237.403-237.403s-237.403 106.289-237.403 237.403c0 131.114 106.289 237.403 237.403 237.403s237.403-106.289 237.403-237.403zM512 366.491c-237.799 0-430.491-192.692-430.491-430.491h860.587c0 237.799-192.692 430.491-430.096 430.491z" />
<glyph unicode="&#xe90c;" glyph-name="chevron-down" d="M225.83 606.17c16.663 16.662 43.677 16.662 60.34 0l225.83-225.831 225.83 225.831c16.661 16.662 43.678 16.662 60.339 0s16.661-43.677 0-60.34l-256-256c-16.661-16.661-43.678-16.661-60.339 0l-256 256c-16.662 16.663-16.662 43.677 0 60.34z" />
<glyph unicode="&#xe90d;" glyph-name="chevron-left" d="M670.17 734.17c16.661-16.663 16.661-43.677 0-60.34l-225.83-225.83 225.83-225.83c16.661-16.661 16.661-43.678 0-60.339s-43.678-16.661-60.339 0l-256 256c-16.662 16.661-16.662 43.678 0 60.339l256 256c16.661 16.662 43.678 16.662 60.339 0z" />
<glyph unicode="&#xe90e;" glyph-name="chevron-right" d="M353.83 734.17c16.663 16.662 43.677 16.662 60.34 0l256-256c16.661-16.661 16.661-43.678 0-60.339l-256-256c-16.663-16.661-43.677-16.661-60.34 0s-16.662 43.678 0 60.339l225.831 225.83-225.831 225.83c-16.662 16.663-16.662 43.677 0 60.34z" />
<glyph unicode="&#xe90f;" glyph-name="chevron-up" d="M481.83 606.17c16.661 16.662 43.678 16.662 60.339 0l256-256c16.661-16.661 16.661-43.678 0-60.339s-43.678-16.661-60.339 0l-225.83 225.83-225.83-225.83c-16.663-16.661-43.677-16.661-60.34 0s-16.662 43.678 0 60.339l256 256z" />
<glyph unicode="&#xe910;" glyph-name="check" d="M325.818 220.977l-244.364 244.364-81.455-81.455 325.818-325.818 698.182 698.182-81.455 81.455z" />
<glyph unicode="&#xe911;" glyph-name="close" d="M138.607 767.811c-13.394 13.394-13.394 36.836 0 53.582 13.394 13.394 36.836 13.394 53.582 0l318.135-318.135 318.135 318.135c13.394 13.394 36.836 13.394 53.582 0 13.394-13.394 13.394-40.186 0-53.582l-318.135-318.135 318.135-318.135c13.394-13.394 13.394-36.836 0-53.582-13.394-13.394-36.836-13.394-53.582 0l-318.135 318.135-318.135-318.135c-13.394-13.394-36.836-13.394-53.582 0-13.394 13.394-13.394 40.186 0 53.582l318.135 318.135-318.135 318.135z" />
<glyph unicode="&#xe912;" glyph-name="heart" d="M924.6 834.8c-109.6 93.4-272.6 76.6-373.2-27.2l-39.4-40.6-39.4 40.6c-100.4 103.8-263.6 120.6-373.2 27.2-125.6-107.2-132.2-299.6-19.8-415.8l387-399.6c25-25.8 65.6-25.8 90.6 0l387 399.6c112.6 116.2 106 308.6-19.6 415.8z" />
<glyph unicode="&#xe913;" glyph-name="question-circle" d="M1008 448c0-273.994-222.086-496-496-496s-496 222.006-496 496c0 273.834 222.086 496 496 496s496-222.166 496-496zM525.31 780c-108.994 0-178.51-45.914-233.098-127.516-7.072-10.572-4.706-24.83 5.43-32.516l69.398-52.62c10.41-7.894 25.242-6.016 33.33 4.244 35.728 45.316 60.226 71.594 114.606 71.594 40.858 0 91.396-26.296 91.396-65.916 0-29.952-24.726-45.334-65.068-67.952-47.048-26.374-109.304-59.2-109.304-141.318v-8c0-13.254 10.746-24 24-24h112c13.254 0 24 10.746 24 24v2.666c0 56.924 166.372 59.294 166.372 213.334 0 116.004-120.33 204-233.062 204zM512 284c-50.73 0-92-41.27-92-92 0-50.728 41.27-92 92-92s92 41.272 92 92c0 50.73-41.27 92-92 92z" />
<glyph unicode="&#xe914;" glyph-name="star" horiz-adv-x="1152" d="M518.6 924.4l-130.6-264.8-292.2-42.6c-52.4-7.6-73.4-72.2-35.4-109.2l211.4-206-50-291c-9-52.6 46.4-92 92.8-67.4l261.4 137.4 261.4-137.4c46.4-24.4 101.8 14.8 92.8 67.4l-50 291 211.4 206c38 37 17 101.6-35.4 109.2l-292.2 42.6-130.6 264.8c-23.4 47.2-91.2 47.8-114.8 0z" />
<glyph unicode="&#xe915;" glyph-name="thumbs-down" d="M0 848v-480c0-26.51 21.49-48 48-48h160c26.51 0 48 21.49 48 48v480c0 26.51-21.49 48-48 48h-160c-26.51 0-48-21.49-48-48zM80 448c0 26.51 21.49 48 48 48s48-21.49 48-48-21.49-48-48-48-48 21.49-48 48zM624-64c-40.366 0-58.97 78.586-67.862 115.59-10.412 43.332-21.178 88.14-50.786 117.804-64.938 65.048-99.006 147.934-178.234 226.222-4.395 4.345-7.116 10.375-7.116 17.040 0 0.001 0 0.001 0 0.002v0 427.54c0 13.082 10.486 23.756 23.566 23.996 31.662 0.58 73.388 18.158 105.302 32.356 63.508 28.254 142.548 63.416 239.12 63.45h5.688c85.554 0 186.726-0.826 227.548-59.474 16.784-24.114 20.892-54.068 12.296-89.264 32.624-34.106 50.126-97.726 32.764-149.514 35.088-46.864 38.286-112.264 18.616-158.938l0.22-0.22c23.786-23.898 39.046-62.518 38.878-98.394-0.312-60.704-52.314-116.196-119.106-116.196h-203.448c14.614-56.68 66.554-104.264 66.554-189.096 0-146.904-96-162.904-144-162.904z" />
<glyph unicode="&#xe916;" glyph-name="time-back" d="M537.7 934.3c-179.1 0-337.92-97.18-419.84-245.76l-117.86 117.86v-332.9h332.9l-143.36 143.36c66.66 128.1 194.56 215.040 348.16 215.040 209.82 0 383.9-174.080 383.9-383.9s-174.080-383.9-383.9-383.9c-168.86 0-307.2 107.42-363.62 256h-107.42c56.22-204.8 245.76-358.4 471.040-358.4 271.26 0 486.3 220.060 486.3 486.3s-220.060 486.3-486.3 486.3zM460.8 678.5v-261.020l240.74-143.36 40.96 66.46-204.8 122.88v215.040h-76.9z" />
<glyph unicode="&#xe917;" glyph-name="time-forward" d="M615.457 27.35c-8.365-2.201-16.949-3.962-25.534-5.503-22.232-4.182-37.2-25.534-33.018-47.986 1.981-11.006 8.365-20.251 16.729-26.194 8.805-6.163 19.811-9.025 31.257-6.824 10.126 1.981 20.471 4.182 30.597 6.604 22.012 5.503 35.439 27.735 29.936 49.967-5.503 22.012-27.955 35.439-49.967 29.936zM919.883 579.192c2.862-8.585 8.365-15.849 15.408-20.691 10.346-7.264 23.773-9.685 36.76-5.503 21.572 7.264 33.238 30.377 26.194 51.948-3.302 9.905-6.824 19.811-10.786 29.276-8.365 21.132-32.358 31.477-53.489 22.893-21.132-8.365-31.477-32.358-22.893-53.489 3.082-7.924 5.943-16.289 8.805-24.433zM749.29 86.122c-7.264-4.843-14.748-9.465-22.232-13.868-19.591-11.446-26.414-36.54-15.188-56.131 3.082-5.283 7.264-9.685 11.887-12.987 12.767-9.025 29.936-10.346 44.244-1.981 9.025 5.283 17.83 10.786 26.635 16.509 18.93 12.547 24.213 38.081 11.666 57.011-12.547 18.71-38.081 23.993-57.011 11.446zM1023.56 464.069c-0.88 22.672-20.031 40.502-42.703 39.622s-40.502-20.031-39.402-42.703c0.44-8.585 0.44-17.39 0.22-26.194-0.22-14.308 6.604-26.855 17.39-34.559 6.383-4.623 14.308-7.264 22.672-7.484 22.672-0.44 41.603 17.61 42.043 40.282 0.22 10.126 0.22 20.691-0.22 31.037zM913.059 194.421c-18.27 13.647-44.024 9.905-57.672-8.144-5.283-7.044-10.786-13.868-16.289-20.471-14.748-17.39-12.547-43.364 4.623-58.112 0.88-0.88 1.981-1.541 3.082-2.421 17.169-12.107 41.163-9.245 55.030 7.044 6.824 7.924 13.207 16.069 19.591 24.433 13.647 18.27 9.905 44.024-8.365 57.672zM973.592 343.223c-21.792 6.824-44.905-5.283-51.508-27.075-2.641-8.365-5.503-16.509-8.585-24.874-6.824-18.050-0.22-37.641 14.748-48.206 2.862-1.981 5.723-3.522 9.025-4.843 21.132-8.144 45.125 2.641 53.049 23.773 3.742 9.685 7.044 19.591 10.126 29.496 7.044 21.792-5.063 44.905-26.855 51.728zM435.838 21.407c-36.76 6.604-72.199 17.83-105.658 33.458-0.44 0.22-0.66 0.44-1.101 0.66-7.924 3.742-15.849 7.704-23.333 11.887 0 0 0 0-0.22 0-14.088 7.704-27.735 16.289-40.942 25.534-193.706 136.475-240.151 405.021-103.677 598.507 29.716 42.043 65.596 77.262 105.658 104.997 0.44 0.44 0.88 0.66 1.541 1.101 141.097 97.073 332.602 103.677 482.284 3.962l-32.138-46.445c-9.025-12.987-3.522-22.452 12.107-20.911l139.776 12.547c15.629 1.321 25.094 14.968 20.911 30.156l-37.42 135.154c-4.182 15.188-14.968 16.949-23.993 3.962l-32.578-46.666c-109.84 73.74-241.692 101.916-372.444 79.243-13.207-2.201-26.194-5.063-38.961-8.365 0 0-0.22 0-0.22 0-0.44-0.22-1.101-0.22-1.541-0.44-112.702-29.056-211.316-94.872-281.534-188.643-0.66-0.66-1.101-1.321-1.761-2.201-2.421-3.082-4.623-6.383-6.824-9.685-3.742-5.283-7.264-10.786-10.786-16.069-0.44-0.66-0.88-1.321-1.101-1.981-57.892-89.809-85.847-193.706-81.224-299.364 0-0.44 0-0.66 0-1.101 0.44-10.346 1.321-20.691 2.421-31.037 0-0.66 0.22-1.321 0.22-1.981 1.101-10.346 2.641-20.691 4.402-31.037 18.27-105.878 68.237-201.19 143.298-275.371 0.22-0.22 0.44-0.44 0.44-0.44s0.22 0 0.22-0.22c20.031-19.811 42.043-38.301 65.596-54.81 61.634-43.364 130.311-72.199 204.052-85.407 22.452-3.962 43.804 10.786 47.766 33.238s-10.786 43.804-33.238 47.766zM486.686 776.86c-18.49 0-33.238-14.968-33.238-33.238v-331.721l303.546-156.946c4.843-2.421 10.126-3.742 15.188-3.742 12.107 0 23.773 6.604 29.716 18.050 8.365 16.289 1.981 36.32-14.308 44.905l-267.446 138.236v291.219c-0.22 18.27-14.968 33.238-33.458 33.238z" />
<glyph unicode="&#xe918;" glyph-name="flag" d="M699.13 762.434c-107.174 0-195.688 69.566-330.434 69.566-49.91 0-94.618-8.768-136.090-24.026 4.683 11.873 7.398 25.625 7.398 40.011 0 2.502-0.082 4.986-0.244 7.447l0.018-0.335c-3.544 56.872-50.166 102.49-107.102 104.806-63.986 2.604-116.676-48.496-116.676-111.904 0-38.052 18.994-71.65 48-91.89v-772.11c0-26.51 21.49-48 48-48h32c26.51 0 48 21.49 48 48v188.8c56.622 24.128 127.164 44.244 228.87 44.244 107.176 0 195.688-69.566 330.434-69.566 96.338 0 173.334 32.588 245.010 81.716 17.366 11.902 27.686 31.664 27.686 52.716v486.2c0 46.786-48.538 77.74-90.97 58.032-68.676-31.896-152.908-63.708-233.9-63.708z" />
<glyph unicode="&#xe919;" glyph-name="heart-empty" d="M916.8 831.4c-115.6 97.2-294.2 82.6-404.8-30-110.6 112.6-289.2 127.4-404.8 30-150.4-126.6-128.4-333-21.2-442.4l350.8-357.4c20-20.4 46.8-31.8 75.2-31.8 28.6 0 55.2 11.2 75.2 31.6l350.8 357.4c107 109.4 129.4 315.8-21.2 442.6zM869.6 456.4l-350.8-357.4c-4.8-4.8-8.8-4.8-13.6 0l-350.8 357.4c-73 74.4-87.8 215.2 14.6 301.4 77.8 65.4 197.8 55.6 273-21l70-71.4 70 71.4c75.6 77 195.6 86.4 273 21.2 102.2-86.2 87-227.8 14.6-301.6z" />
<glyph unicode="&#xe91a;" glyph-name="arrow-left" d="M542.17 716.497c16.661 16.663 16.661 43.677 0 60.34s-43.678 16.662-60.339 0l-298.667-298.667c-16.662-16.661-16.662-43.678 0-60.339l298.667-298.667c16.661-16.661 43.678-16.661 60.339 0s16.661 43.678 0 60.339l-225.83 225.83h494.327c23.565 0 42.667 19.102 42.667 42.667s-19.102 42.667-42.667 42.667h-494.327l225.83 225.83z" />
<glyph unicode="&#xe91b;" glyph-name="arrow-right" d="M542.17 776.837c-16.661 16.662-43.678 16.662-60.339 0s-16.661-43.677 0-60.34l225.83-225.83h-494.327c-23.564 0-42.667-19.102-42.667-42.667s19.103-42.667 42.667-42.667h494.327l-225.83-225.83c-16.661-16.661-16.661-43.678 0-60.339s43.678-16.661 60.339 0l298.667 298.667c16.661 16.661 16.661 43.678 0 60.339l-298.667 298.667z" />
</font>
</defs>
</svg>
