<?xml version="1.0" standalone="no"?>
<!DOCTYPE svg PUBLIC "-//W3C//DTD SVG 20010904//EN"
 "http://www.w3.org/TR/2001/REC-SVG-20010904/DTD/svg10.dtd">
<svg version="1.0" xmlns="http://www.w3.org/2000/svg"
 width="89.000000pt" height="89.000000pt" viewBox="0 0 89.000000 89.000000"
 preserveAspectRatio="xMidYMid meet">
<metadata>
Created by potrace 1.11, written by Peter Selinger 2001-2013
</metadata>
<g transform="translate(0.000000,89.000000) scale(0.100000,-0.100000)"
fill="#000000" stroke="none">
<path d="M408 791 c-5 -15 -102 -91 -115 -91 -7 0 -13 9 -13 20 0 19 -5 21
-57 18 l-58 -3 0 -74 -1 -74 -40 -31 c-23 -18 -49 -40 -59 -50 -10 -9 -28 -24
-41 -33 -25 -16 -32 -33 -13 -33 6 0 26 12 46 27 19 15 40 28 47 29 8 1 11
-56 11 -200 l0 -201 320 -1 c223 -1 322 2 327 10 4 6 8 98 8 204 0 105 3 192
8 192 4 0 25 -14 46 -30 38 -29 74 -40 61 -20 -5 8 -194 152 -313 238 -13 9
-51 38 -85 64 -64 50 -73 54 -79 39z"/>
</g>
</svg>
