<svg width="30" height="30" viewBox="0 0 30 30" fill="none" xmlns="http://www.w3.org/2000/svg">
<circle cx="15" cy="15" r="15" fill="#2191FB" fill-opacity="0.5"/>
<g clip-path="url(#clip0_1_470)">
<path d="M7.82236 24C7.74776 24 7.67621 23.9703 7.62348 23.9176L6.08237 22.3765C6.02964 22.3237 6 22.2522 6 22.1776C6 22.103 6.02964 22.0315 6.08237 21.9787L9.88269 18.1784H7.60717C7.45185 18.1784 7.32592 18.0525 7.32592 17.8972V15.7175C7.32592 15.5622 7.45185 15.4363 7.60717 15.4363H14.2825C14.4378 15.4363 14.5637 15.5622 14.5637 15.7175V22.3928C14.5637 22.5481 14.4378 22.6741 14.2825 22.6741H12.1028C11.9475 22.6741 11.8215 22.5481 11.8215 22.3928V20.1172L8.02124 23.9176C7.9685 23.9703 7.89696 24 7.82236 24ZM6.67897 22.1776L7.82232 23.321L11.9039 19.2394C11.9843 19.1589 12.1053 19.1348 12.2104 19.1784C12.3155 19.222 12.384 19.3245 12.384 19.4383V22.1116H14.0012V15.9988H7.88842V17.6159H10.5617C10.6754 17.6159 10.778 17.6845 10.8215 17.7896C10.865 17.8946 10.841 18.0156 10.7605 18.0961L6.67897 22.1776ZM22.3928 14.5637H15.7175C15.5622 14.5637 15.4363 14.4378 15.4363 14.2824V7.60714C15.4363 7.45182 15.5622 7.32589 15.7175 7.32589H17.8972C18.0525 7.32589 18.1785 7.45182 18.1785 7.60714V9.88267L21.9788 6.08234C22.0886 5.97255 22.2667 5.97255 22.3765 6.08234L23.9176 7.62345C23.9703 7.67622 24 7.74773 24 7.82233C24 7.89693 23.9703 7.96844 23.9176 8.02121L20.1173 11.8215H22.3928C22.5482 11.8215 22.6741 11.9474 22.6741 12.1027V14.2824C22.6741 14.4378 22.5482 14.5637 22.3928 14.5637ZM15.9988 14.0012H22.1116V12.384H19.4383C19.3245 12.384 19.222 12.3155 19.1785 12.2104C19.1349 12.1053 19.159 11.9843 19.2394 11.9039L23.321 7.82233L22.1777 6.67898L18.0961 10.7605C18.0156 10.841 17.8947 10.865 17.7896 10.8214C17.6845 10.7779 17.616 10.6754 17.616 10.5616V7.88839H15.9988V14.0012Z" fill="white"/>
</g>
<defs>
<clipPath id="clip0_1_470">
<rect width="18" height="18" fill="white" transform="translate(6 6)"/>
</clipPath>
</defs>
</svg>
