<svg width="30" height="30" viewBox="0 0 30 30" fill="none" xmlns="http://www.w3.org/2000/svg">
<circle cx="15" cy="15" r="15" fill="#2191FB" fill-opacity="0.5"/>
<path d="M15.2346 15.8237C15.2013 15.8164 15.1672 15.8151 15.1334 15.8202C14.7954 15.7808 14.5403 15.4948 14.5398 15.1546C14.5398 14.9915 14.4076 14.8593 14.2445 14.8593C14.0814 14.8593 13.9492 14.9915 13.9492 15.1546C13.9501 15.7227 14.3301 16.2204 14.878 16.3708V16.666C14.878 16.8291 15.0102 16.9613 15.1732 16.9613C15.3363 16.9613 15.4685 16.8291 15.4685 16.666V16.3886C16.1008 16.2563 16.5305 15.6674 16.4641 15.0248C16.3975 14.3823 15.8561 13.894 15.2101 13.8938C14.8399 13.8938 14.5398 13.5937 14.5398 13.2235C14.5398 12.8533 14.8399 12.5531 15.2101 12.5531C15.5803 12.5531 15.8805 12.8533 15.8805 13.2235C15.8805 13.3865 16.0127 13.5187 16.1757 13.5187C16.3388 13.5187 16.471 13.3865 16.471 13.2235C16.4701 12.6269 16.0522 12.1124 15.4685 11.9893V11.7205C15.4685 11.5575 15.3363 11.4253 15.1732 11.4253C15.0102 11.4253 14.878 11.5575 14.878 11.7205V12.0073C14.2687 12.1737 13.8766 12.7652 13.9605 13.3911C14.0444 14.0171 14.5785 14.4844 15.2101 14.4842C15.5754 14.4842 15.8734 14.7767 15.8801 15.1419C15.8868 15.5071 15.5997 15.8104 15.2346 15.8237Z" fill="white"/>
<path d="M10.9287 14.2116C10.9287 16.5762 12.8455 18.4931 15.2102 18.4931C17.5748 18.4931 19.4916 16.5762 19.4916 14.2116C19.4916 11.847 17.5748 9.93018 15.2102 9.93018C12.8467 9.93277 10.9315 11.8482 10.9287 14.2116ZM15.2102 10.5207C17.2487 10.5207 18.9011 12.1731 18.9011 14.2116C18.9011 16.2501 17.2487 17.9026 15.2102 17.9026C13.1716 17.9026 11.5192 16.2501 11.5192 14.2116C11.5215 12.1741 13.1727 10.523 15.2102 10.5207Z" fill="white"/>
<path d="M20.9474 19.221L18.6346 20.3138C18.3153 19.7199 17.7027 19.3419 17.0286 19.3228L14.8935 19.2641C14.5554 19.2545 14.2237 19.1689 13.9231 19.0136L13.7058 18.901C12.5934 18.3212 11.2676 18.3226 10.1563 18.9047L10.1699 18.4126C10.1743 18.2495 10.0459 18.1137 9.88284 18.1092L7.54158 18.0448C7.37853 18.0403 7.24287 18.1688 7.2384 18.3318L7.09698 23.4696C7.09251 23.6327 7.22096 23.7685 7.38401 23.7729L9.72527 23.8374H9.73334C9.89336 23.8374 10.0243 23.7101 10.0286 23.5502L10.0354 23.3044L10.6436 22.9787C10.8823 22.8503 11.1614 22.8197 11.4222 22.8935L15.0544 23.9129C15.0607 23.9148 15.067 23.9162 15.0735 23.9177C15.3361 23.9726 15.6036 24.0001 15.8718 24C16.4398 24.0003 17.0012 23.8779 17.5174 23.6409C17.5301 23.6351 17.5424 23.6283 17.5541 23.6207L22.8203 20.2143C22.9515 20.1294 22.9939 19.9572 22.917 19.8211C22.5261 19.1273 21.6589 18.8631 20.9474 19.221ZM7.69541 23.1908L7.82055 18.6432L9.57144 18.6914L9.44631 23.2391L7.69541 23.1908ZM17.2515 23.1135C16.6101 23.403 15.8937 23.4829 15.2043 23.342L11.582 22.3252C11.1743 22.21 10.7379 22.2578 10.3649 22.4583L10.0541 22.6248L10.1373 19.6012C11.1222 18.9461 12.3854 18.8788 13.4344 19.4253L13.6516 19.5379C14.0314 19.734 14.4502 19.8421 14.8773 19.8545L17.0126 19.9132C17.6123 19.9305 18.1216 20.3575 18.2433 20.9451L15.0629 20.8573C14.8998 20.8529 14.7642 20.9815 14.7595 21.1444C14.7551 21.3074 14.8837 21.4432 15.0466 21.4477L18.5564 21.5443H18.5647C18.7245 21.5441 18.8553 21.4168 18.8596 21.2571C18.8632 21.1288 18.8537 21.0003 18.8311 20.874L21.2033 19.7532C21.2056 19.7521 21.2079 19.751 21.2102 19.7498C21.5467 19.5796 21.9536 19.6365 22.2304 19.8927L17.2515 23.1135Z" fill="white"/>
<path d="M15.5057 9.10015V6.29525C15.5057 6.1322 15.3735 6 15.2105 6C15.0474 6 14.9152 6.1322 14.9152 6.29525V9.10015C14.9152 9.2632 15.0474 9.3954 15.2105 9.3954C15.3735 9.3954 15.5057 9.2632 15.5057 9.10015Z" fill="white"/>
<path d="M17.7204 9.1002V7.77157C17.7204 7.60852 17.5882 7.47632 17.4251 7.47632C17.2621 7.47632 17.1299 7.60852 17.1299 7.77157V9.1002C17.1299 9.26326 17.2621 9.39546 17.4251 9.39546C17.5882 9.39546 17.7204 9.26326 17.7204 9.1002Z" fill="white"/>
<path d="M13.2917 9.1002V7.77157C13.2917 7.60852 13.1595 7.47632 12.9964 7.47632C12.8334 7.47632 12.7012 7.60852 12.7012 7.77157V9.1002C12.7012 9.26326 12.8334 9.39546 12.9964 9.39546C13.1595 9.39546 13.2917 9.26326 13.2917 9.1002Z" fill="white"/>
</svg>
