<svg width="30" height="30" viewBox="0 0 30 30" fill="none" xmlns="http://www.w3.org/2000/svg">
<circle cx="15" cy="15" r="15" fill="#2191FB" fill-opacity="0.5"/>
<g clip-path="url(#clip0_1_434)">
<path d="M19.875 17.75C19.8277 17.75 19.7805 17.741 19.7355 17.723L15.9855 16.223C15.843 16.166 15.75 16.0287 15.75 15.875C15.75 15.7212 15.843 15.584 15.9855 15.527L19.7355 14.027C19.8247 13.991 19.9245 13.991 20.0137 14.027L23.7637 15.527C23.907 15.584 24 15.7212 24 15.875C24 16.0287 23.907 16.166 23.7645 16.223L20.0145 17.723C19.9695 17.741 19.9223 17.75 19.875 17.75ZM17.1353 15.875L19.875 16.9707L22.6147 15.875L19.875 14.7792L17.1353 15.875Z" fill="white"/>
<path d="M19.875 22.25C19.8277 22.25 19.7805 22.241 19.7355 22.223L15.9855 20.723C15.843 20.666 15.75 20.5287 15.75 20.375V15.875C15.75 15.668 15.918 15.5 16.125 15.5C16.332 15.5 16.5 15.668 16.5 15.875V20.1215L19.875 21.4715L23.25 20.1215V15.875C23.25 15.668 23.418 15.5 23.625 15.5C23.832 15.5 24 15.668 24 15.875V20.375C24 20.5287 23.907 20.666 23.7645 20.723L20.0145 22.223C19.9695 22.241 19.9223 22.25 19.875 22.25Z" fill="white"/>
<path d="M19.875 22.25C19.668 22.25 19.5 22.082 19.5 21.875V17.375C19.5 17.168 19.668 17 19.875 17C20.082 17 20.25 17.168 20.25 17.375V21.875C20.25 22.082 20.082 22.25 19.875 22.25Z" fill="white"/>
<path d="M10.125 17.75C10.0777 17.75 10.0305 17.741 9.9855 17.723L6.2355 16.223C6.093 16.166 6 16.0287 6 15.875C6 15.7212 6.093 15.584 6.2355 15.527L9.9855 14.027C10.0748 13.991 10.1745 13.991 10.2637 14.027L14.0138 15.527C14.157 15.584 14.25 15.7212 14.25 15.875C14.25 16.0287 14.157 16.166 14.0145 16.223L10.2645 17.723C10.2195 17.741 10.1723 17.75 10.125 17.75ZM7.38525 15.875L10.125 16.9707L12.8647 15.875L10.125 14.7792L7.38525 15.875Z" fill="white"/>
<path d="M10.125 22.25C10.0777 22.25 10.0305 22.241 9.9855 22.223L6.2355 20.723C6.093 20.666 6 20.5287 6 20.375V15.875C6 15.668 6.168 15.5 6.375 15.5C6.582 15.5 6.75 15.668 6.75 15.875V20.1215L10.125 21.4715L13.5 20.1215V15.875C13.5 15.668 13.668 15.5 13.875 15.5C14.082 15.5 14.25 15.668 14.25 15.875V20.375C14.25 20.5287 14.157 20.666 14.0145 20.723L10.2645 22.223C10.2195 22.241 10.1723 22.25 10.125 22.25Z" fill="white"/>
<path d="M10.125 22.25C9.918 22.25 9.75 22.082 9.75 21.875V17.375C9.75 17.168 9.918 17 10.125 17C10.332 17 10.5 17.168 10.5 17.375V21.875C10.5 22.082 10.332 22.25 10.125 22.25Z" fill="white"/>
<path d="M15 10.25C14.9527 10.25 14.9055 10.241 14.8605 10.223L11.1105 8.723C10.968 8.666 10.875 8.52875 10.875 8.375C10.875 8.22125 10.968 8.084 11.1105 8.027L14.8605 6.527C14.9498 6.491 15.0495 6.491 15.1388 6.527L18.8887 8.027C19.032 8.084 19.125 8.22125 19.125 8.375C19.125 8.52875 19.032 8.666 18.8895 8.723L15.1395 10.223C15.0945 10.241 15.0473 10.25 15 10.25V10.25ZM12.2603 8.375L15 9.47075L17.7397 8.375L15 7.27925L12.2603 8.375Z" fill="white"/>
<path d="M15 14.75C14.9527 14.75 14.9055 14.741 14.8605 14.723L11.1105 13.223C10.968 13.166 10.875 13.0287 10.875 12.875V8.375C10.875 8.168 11.043 8 11.25 8C11.457 8 11.625 8.168 11.625 8.375V12.6215L15 13.9715L18.375 12.6215V8.375C18.375 8.168 18.543 8 18.75 8C18.957 8 19.125 8.168 19.125 8.375V12.875C19.125 13.0287 19.032 13.166 18.8895 13.223L15.1395 14.723C15.0945 14.741 15.0473 14.75 15 14.75Z" fill="white"/>
<path d="M15 14.75C14.793 14.75 14.625 14.582 14.625 14.375V9.875C14.625 9.668 14.793 9.5 15 9.5C15.207 9.5 15.375 9.668 15.375 9.875V14.375C15.375 14.582 15.207 14.75 15 14.75Z" fill="white"/>
</g>
<defs>
<clipPath id="clip0_1_434">
<rect width="18" height="18" fill="white" transform="translate(6 5)"/>
</clipPath>
</defs>
</svg>
