<svg width="30" height="30" viewBox="0 0 30 30" fill="none" xmlns="http://www.w3.org/2000/svg">
<circle cx="15" cy="15" r="15" fill="#2191FB" fill-opacity="0.5"/>
<g clip-path="url(#clip0_1_474)">
<path d="M21.9653 15.8315C21.8037 14.2059 21.0775 12.6734 19.9203 11.5162C18.9314 10.5274 17.721 9.89192 16.4474 9.60936V8.7161C16.9676 8.58669 17.3543 8.11583 17.3543 7.55617C17.3543 6.89705 16.8181 6.36084 16.1589 6.36084H13.6277C12.9685 6.36084 12.4323 6.89705 12.4323 7.55617C12.4323 8.1158 12.819 8.58665 13.3391 8.7161V9.61186C12.0694 9.89561 10.8631 10.5302 9.87699 11.5163C9.66119 11.7321 9.46221 11.9584 9.28006 12.1937C9.27123 12.193 9.26241 12.1924 9.25341 12.1924H6.7481C6.55397 12.1924 6.39653 12.3498 6.39653 12.5439C6.39653 12.7381 6.55397 12.8955 6.7481 12.8955H8.80168C8.54391 13.3271 8.33606 13.7803 8.17786 14.2468H4.35157C4.15743 14.2468 4 14.4042 4 14.5984C4 14.7925 4.15743 14.9499 4.35157 14.9499H7.97919C7.87787 15.3947 7.81972 15.8473 7.8047 16.3012H6.25004C6.0559 16.3012 5.89847 16.4586 5.89847 16.6528C5.89847 16.847 6.0559 17.0044 6.25004 17.0044H7.81592C7.84559 17.4595 7.91875 17.9121 8.03544 18.3557H5.75784C5.5637 18.3557 5.40627 18.5131 5.40627 18.7073C5.40627 18.9014 5.5637 19.0588 5.75784 19.0588H8.25981C8.6047 19.9712 9.14369 20.8263 9.87699 21.5596C11.0353 22.7179 12.5694 23.4443 14.1966 23.6051C14.4289 23.628 14.6613 23.6394 14.8934 23.6394C16.2653 23.6394 17.6197 23.2423 18.769 22.4939C18.9317 22.3879 18.9777 22.1701 18.8718 22.0074C18.7658 21.8447 18.548 21.7987 18.3853 21.9047C15.8696 23.5429 12.5004 23.1887 10.3742 21.0624C7.87938 18.5676 7.87938 14.5083 10.3742 12.0135C12.8689 9.51873 16.9282 9.51873 19.4231 12.0135C21.5465 14.137 21.9027 17.5033 20.2699 20.0177C20.1641 20.1806 20.2104 20.3984 20.3732 20.5041C20.5361 20.6098 20.7538 20.5635 20.8596 20.4007C21.7319 19.0572 22.1246 17.4345 21.9653 15.8315ZM13.1355 7.55621C13.1355 7.2848 13.3562 7.06401 13.6277 7.06401H16.1589C16.4304 7.06401 16.6511 7.2848 16.6511 7.55621C16.6511 7.82762 16.4304 8.0484 16.1589 8.0484H16.0959H13.6907H13.6277C13.3562 8.0484 13.1355 7.82758 13.1355 7.55621ZM14.0423 9.49099V8.75154H15.7443V9.48972C15.1791 9.4225 14.6073 9.42293 14.0423 9.49099Z" fill="white"/>
<path d="M19.6718 20.9592C19.579 20.9592 19.4887 20.9968 19.4233 21.0622C19.3576 21.1276 19.3203 21.2183 19.3203 21.3108C19.3203 21.4033 19.3576 21.494 19.4233 21.5593C19.4887 21.6251 19.5791 21.6624 19.6718 21.6624C19.7643 21.6624 19.8547 21.6251 19.9204 21.5593C19.9858 21.494 20.0234 21.4033 20.0234 21.3108C20.0234 21.2183 19.9858 21.1276 19.9204 21.0622C19.8547 20.9968 19.7643 20.9592 19.6718 20.9592Z" fill="white"/>
<path d="M14.8982 11.084C11.8909 11.084 9.44434 13.5305 9.44434 16.5378C9.44434 19.5451 11.8909 21.9917 14.8982 21.9917C17.9054 21.9917 20.352 19.5451 20.352 16.5378C20.352 13.5305 17.9054 11.084 14.8982 11.084ZM14.8982 21.2885C12.2786 21.2885 10.1475 19.1574 10.1475 16.5378C10.1475 13.9183 12.2786 11.7871 14.8982 11.7871C17.5177 11.7871 19.6489 13.9183 19.6489 16.5378C19.6489 19.1574 17.5177 21.2885 14.8982 21.2885Z" fill="white"/>
<path d="M17.1221 13.8168L15.3808 15.5581C15.2351 15.4861 15.0714 15.4454 14.8982 15.4454C14.725 15.4454 14.5613 15.4861 14.4156 15.5581L13.6363 14.7788C13.499 14.6415 13.2765 14.6415 13.1391 14.7788C13.0018 14.9161 13.0018 15.1387 13.1391 15.276L13.9184 16.0553C13.8464 16.2009 13.8057 16.3647 13.8057 16.5379C13.8057 17.1402 14.2958 17.6303 14.8982 17.6303C15.5006 17.6303 15.9907 17.1402 15.9907 16.5379C15.9907 16.3647 15.95 16.2009 15.878 16.0553L17.5682 14.3651L17.6193 14.314C17.7566 14.1767 17.7566 13.9541 17.6193 13.8168C17.482 13.6795 17.2594 13.6795 17.1221 13.8168ZM14.8982 16.9272C14.6835 16.9272 14.5089 16.7526 14.5089 16.5379C14.5089 16.3232 14.6835 16.1486 14.8982 16.1486C15.1129 16.1486 15.2875 16.3232 15.2875 16.5379C15.2875 16.7526 15.1129 16.9272 14.8982 16.9272Z" fill="white"/>
<path d="M18.6576 16.1907H18.3318C18.1377 16.1907 17.9803 16.3481 17.9803 16.5422C17.9803 16.7364 18.1377 16.8938 18.3318 16.8938H18.6576C18.8517 16.8938 19.0091 16.7364 19.0091 16.5422C19.0091 16.3481 18.8517 16.1907 18.6576 16.1907Z" fill="white"/>
<path d="M11.4654 16.1821H11.1397C10.9456 16.1821 10.7881 16.3395 10.7881 16.5337C10.7881 16.7279 10.9456 16.8853 11.1397 16.8853H11.4654C11.6595 16.8853 11.817 16.7279 11.817 16.5337C11.817 16.3395 11.6595 16.1821 11.4654 16.1821Z" fill="white"/>
<path d="M14.9033 13.4563C15.0975 13.4563 15.2549 13.2989 15.2549 13.1047V12.7791C15.2549 12.5849 15.0975 12.4275 14.9033 12.4275C14.7092 12.4275 14.5518 12.5849 14.5518 12.7791V13.1047C14.5518 13.2989 14.7092 13.4563 14.9033 13.4563Z" fill="white"/>
<path d="M14.8943 19.6196C14.7002 19.6196 14.5428 19.777 14.5428 19.9712V20.2969C14.5428 20.491 14.7002 20.6484 14.8943 20.6484C15.0885 20.6484 15.2459 20.491 15.2459 20.2969V19.9712C15.2459 19.777 15.0885 19.6196 14.8943 19.6196Z" fill="white"/>
<path d="M4.35156 18.3555C4.2591 18.3555 4.1684 18.3931 4.10301 18.4585C4.03762 18.5239 4 18.6146 4 18.707C4 18.7998 4.03758 18.8902 4.10301 18.9556C4.16843 19.021 4.2591 19.0586 4.35156 19.0586C4.44402 19.0586 4.53473 19.021 4.60008 18.9556C4.66547 18.8902 4.70312 18.7995 4.70312 18.707C4.70312 18.6146 4.66551 18.5239 4.60008 18.4585C4.53473 18.3931 4.44402 18.3555 4.35156 18.3555Z" fill="white"/>
</g>
<defs>
<clipPath id="clip0_1_474">
<rect width="18" height="18" fill="white" transform="translate(4 6)"/>
</clipPath>
</defs>
</svg>
