<svg width="30" height="30" viewBox="0 0 30 30" fill="none" xmlns="http://www.w3.org/2000/svg">
<circle cx="15" cy="15" r="15" fill="#2191FB" fill-opacity="0.5"/>
<g clip-path="url(#clip0_1_446)">
<path d="M23.0786 13.1105L21.8152 12.8961C21.6836 12.4712 21.5144 12.0614 21.3076 11.6703L22.0521 10.6288C22.368 10.1851 22.3191 9.57967 21.9318 9.19614L20.8113 8.07561C20.6007 7.86504 20.3224 7.74847 20.0254 7.74847C19.7923 7.74847 19.5704 7.81992 19.3824 7.95528L18.3371 8.6998C17.931 8.48547 17.5061 8.30874 17.0662 8.17713L16.8556 6.92876C16.7653 6.39106 16.3028 6 15.7576 6H14.1746C13.6294 6 13.1669 6.39106 13.0766 6.92876L12.8585 8.20721C12.4374 8.33882 12.0275 8.51179 11.6365 8.72236L10.6024 7.97784C10.4144 7.84248 10.1888 7.77104 9.95569 7.77104C9.65864 7.77104 9.37662 7.8876 9.16982 8.09817L8.04553 9.2187C7.66199 9.60223 7.60935 10.2076 7.9252 10.6513L8.67723 11.7079C8.47043 12.1027 8.30498 12.5126 8.17713 12.9375L6.92876 13.1481C6.39106 13.2383 6 13.7008 6 14.246V15.8291C6 16.3743 6.39106 16.8368 6.92876 16.927L8.20721 17.1451C8.33882 17.5663 8.51179 17.9761 8.72236 18.3672L7.9816 19.3975C7.66575 19.8412 7.71463 20.4465 8.10193 20.8301L9.22246 21.9506C9.43303 22.1612 9.71128 22.2777 10.0083 22.2777C10.2415 22.2777 10.4633 22.2063 10.6513 22.0709L11.7079 21.3189C12.0877 21.5182 12.4863 21.6799 12.8961 21.8077L13.1067 23.0711C13.1969 23.6088 13.6594 23.9999 14.2047 23.9999H15.7915C16.3367 23.9999 16.7992 23.6088 16.8894 23.0711L17.1038 21.8077C17.5287 21.6761 17.9385 21.5069 18.3296 21.3001L19.3711 22.0446C19.5591 22.18 19.7847 22.2514 20.0179 22.2514C20.3149 22.2514 20.5932 22.1348 20.8038 21.9243L21.9243 20.8038C22.3078 20.4202 22.3605 19.8148 22.0446 19.3711L21.3001 18.3258C21.5069 17.931 21.6799 17.5211 21.8077 17.1L23.0711 16.8894C23.6088 16.7992 23.9999 16.3367 23.9999 15.7915V14.2084C24.0074 13.6632 23.6164 13.2007 23.0786 13.1105ZM22.9922 15.7915C22.9922 15.8403 22.9583 15.8817 22.9094 15.8892L21.3302 16.1524C21.1309 16.1863 20.973 16.3329 20.9241 16.5247C20.7812 17.0774 20.5631 17.6076 20.2698 18.1002C20.1683 18.2732 20.1758 18.4875 20.2924 18.6529L21.2211 19.9615C21.2474 19.9991 21.2437 20.0555 21.2098 20.0893L20.0893 21.2098C20.063 21.2362 20.0367 21.2399 20.0179 21.2399C19.9953 21.2399 19.9765 21.2324 19.9615 21.2211L18.6567 20.2924C18.495 20.1758 18.2769 20.1683 18.104 20.2698C17.6114 20.5631 17.0812 20.7812 16.5284 20.9241C16.3329 20.973 16.1863 21.1346 16.1562 21.3302L15.8892 22.9094C15.8817 22.9583 15.8403 22.9922 15.7915 22.9922H14.2084C14.1595 22.9922 14.1182 22.9583 14.1107 22.9094L13.8475 21.3302C13.8136 21.1309 13.667 20.973 13.4752 20.9241C12.9375 20.785 12.4186 20.5706 11.9335 20.2924C11.8546 20.2472 11.7643 20.2247 11.6778 20.2247C11.5763 20.2247 11.471 20.2548 11.3845 20.3187L10.0685 21.255C10.0497 21.2663 10.0309 21.2738 10.0121 21.2738C9.99705 21.2738 9.96697 21.27 9.94065 21.2437L8.82012 20.1232C8.78628 20.0893 8.78252 20.0367 8.80884 19.9953L9.73384 18.6981C9.8504 18.5326 9.85792 18.3145 9.7564 18.1416C9.46311 17.6527 9.2375 17.1226 9.09461 16.5698C9.04197 16.378 8.88404 16.2314 8.68851 16.1976L7.09797 15.9268C7.04908 15.9193 7.01524 15.8779 7.01524 15.8291V14.246C7.01524 14.1971 7.04908 14.1558 7.09797 14.1483L8.66595 13.8851C8.86524 13.8512 9.02693 13.7046 9.07581 13.509C9.21494 12.9563 9.42927 12.4224 9.7188 11.9298C9.82032 11.7568 9.80904 11.5425 9.69248 11.3808L8.7562 10.0647C8.72988 10.0271 8.73364 9.97073 8.76748 9.93689L9.88801 8.81636C9.91433 8.79004 9.94065 8.78628 9.95945 8.78628C9.98201 8.78628 10.0008 8.7938 10.0159 8.80508L11.3131 9.73008C11.4786 9.84664 11.6966 9.85416 11.8696 9.75264C12.3584 9.45935 12.8886 9.23374 13.4414 9.09085C13.6331 9.03821 13.7798 8.88028 13.8136 8.68475L14.0843 7.09421C14.0919 7.04532 14.1332 7.01148 14.1821 7.01148H15.7651C15.814 7.01148 15.8554 7.04532 15.8629 7.09421L16.1261 8.66219C16.16 8.86148 16.3066 9.02317 16.5021 9.07205C17.0699 9.21494 17.6114 9.43679 18.1152 9.73384C18.2882 9.83536 18.5025 9.82784 18.668 9.71128L19.9652 8.77876C19.984 8.76748 20.0028 8.75996 20.0216 8.75996C20.0367 8.75996 20.0668 8.76372 20.0931 8.79004L21.2136 9.91057C21.2474 9.94441 21.2512 9.99705 21.2249 10.0384L20.2961 11.3432C20.1796 11.5049 20.172 11.723 20.2736 11.8959C20.5669 12.3885 20.7849 12.9187 20.9278 13.4714C20.9767 13.667 21.1384 13.8136 21.3339 13.8437L22.9132 14.1107C22.9621 14.1182 22.9959 14.1595 22.9959 14.2084V15.7915H22.9922Z" fill="white"/>
<path d="M15.0014 11.1138C12.8581 11.1138 11.1172 12.8547 11.1172 14.998C11.1172 17.1413 12.8581 18.8823 15.0014 18.8823C17.1447 18.8823 18.8857 17.1413 18.8857 14.998C18.8857 12.8547 17.1447 11.1138 15.0014 11.1138ZM15.0014 17.867C13.4184 17.867 12.1324 16.581 12.1324 14.998C12.1324 13.415 13.4184 12.129 15.0014 12.129C16.5845 12.129 17.8704 13.415 17.8704 14.998C17.8704 16.581 16.5845 17.867 15.0014 17.867Z" fill="white"/>
</g>
<defs>
<clipPath id="clip0_1_446">
<rect width="18" height="18" fill="white" transform="translate(6 6)"/>
</clipPath>
</defs>
</svg>
