<svg width="30" height="30" viewBox="0 0 30 30" fill="none" xmlns="http://www.w3.org/2000/svg">
<circle cx="15" cy="15" r="15" fill="#2191FB" fill-opacity="0.5"/>
<g clip-path="url(#clip0_1_453)">
<path d="M22.1036 16.7081C21.8901 16.4946 21.6285 16.3467 21.3433 16.2742C21.4745 15.731 21.3285 15.134 20.9053 14.7108C20.6877 14.4931 20.424 14.3491 20.1454 14.2781C20.2692 13.7663 20.1547 13.1613 19.7068 12.7134C19.5565 12.5632 19.3843 12.4483 19.2004 12.368L20.9056 10.663C21.5523 10.0155 21.5534 8.96744 20.9053 8.31941C20.258 7.67209 19.2099 7.67096 18.5615 8.31941L13.2424 13.6385L12.9314 12.2905C12.7528 11.5161 12.1671 10.8989 11.4031 10.6798C10.6392 10.4607 9.81553 10.6737 9.25361 11.2359C9.25354 11.236 9.25347 11.2361 9.25337 11.2361C9.15446 11.3352 9.0988 11.4696 9.09894 11.6096L9.10551 18.17L7.56543 19.7101C7.35946 19.9161 7.35946 20.25 7.56543 20.456L10.955 23.8456C11.0539 23.9445 11.188 24.0001 11.3279 24.0001H16.2352C16.8285 24.0001 17.3865 23.7689 17.8063 23.3491L22.1035 19.0518C22.7429 18.4131 22.7588 17.3624 22.1036 16.7081ZM19.3074 15.4566C19.543 15.221 19.9242 15.2213 20.1594 15.4566C20.3943 15.6915 20.3943 16.0737 20.1594 16.3086L18.9609 17.5071C18.7249 17.7431 18.3437 17.742 18.109 17.5072C17.8741 17.2722 17.8741 16.8899 18.1089 16.6551L19.3074 15.4566ZM17.363 15.9092C17.1281 16.1441 16.7459 16.144 16.511 15.9092C16.2761 15.6743 16.2761 15.2921 16.511 15.0572L18.1089 13.4593C18.344 13.2243 18.7262 13.2246 18.9609 13.4593C19.1965 13.6949 19.1961 14.0761 18.9609 14.3113C18.9609 14.3113 18.9608 14.3115 18.9608 14.3114C18.9609 14.3113 17.363 15.9092 17.363 15.9092ZM17.0605 22.6031C16.8431 22.8205 16.5423 22.9452 16.2352 22.9452H11.5464L8.68428 20.083L10.0061 18.7612C10.1052 18.6621 10.1607 18.5278 10.1606 18.3877L10.1541 11.8525C10.4304 11.6603 10.7822 11.599 11.1123 11.6938C11.5079 11.8072 11.8111 12.1267 11.9035 12.5276L12.4287 14.8029C12.4513 14.9008 12.5009 14.988 12.5694 15.0566C12.5695 15.0568 12.969 15.4566 12.969 15.4566C13.8647 16.3523 13.8647 17.8097 12.969 18.7054C12.7631 18.9113 12.7631 19.2453 12.969 19.4512C13.175 19.6573 13.509 19.6572 13.7149 19.4512C15.0219 18.1443 15.0219 16.0177 13.7149 14.7108L13.6885 14.6843L19.3075 9.06526C19.5485 8.82416 19.9301 8.8359 20.1594 9.0653C20.3946 9.30042 20.3947 9.68168 20.1594 9.9173L15.7651 14.3113C15.1189 14.9575 15.1189 16.0089 15.7652 16.6552C16.0739 16.9637 16.4748 17.1244 16.8799 17.1383C16.8938 17.5434 17.0546 17.9444 17.363 18.253C17.6714 18.5614 18.0721 18.7223 18.4771 18.7363C18.4913 19.1574 18.6616 19.5513 18.9607 19.8504C19.1088 19.9988 19.2804 20.1151 19.4668 20.1969L17.0605 22.6031ZM21.3579 18.3057C21.3578 18.3058 21.3577 18.3059 21.3576 18.306L20.5586 19.105C20.3264 19.3375 19.9445 19.3428 19.7068 19.1048C19.4698 18.8678 19.4734 18.4864 19.707 18.2529L20.5059 17.454C20.743 17.2169 21.1242 17.2206 21.3578 17.4542C21.5963 17.6923 21.5896 18.0743 21.3579 18.3057Z" fill="white"/>
<path d="M13.0224 9.31177C13.3136 9.31177 13.5498 9.07562 13.5498 8.78434V6.52464C13.5219 5.82486 12.5225 5.82538 12.4949 6.52464V8.78438C12.4949 9.07566 12.7311 9.31177 13.0224 9.31177Z" fill="white"/>
<path d="M10.3901 9.15741C10.5961 9.36343 10.9301 9.36336 11.136 9.15741C11.342 8.95144 11.342 8.61751 11.136 8.41153L10.5711 7.84662C10.3651 7.64064 10.0312 7.64064 9.8252 7.84662C9.61922 8.0526 9.61922 8.38653 9.8252 8.59251L10.3901 9.15741Z" fill="white"/>
<path d="M15.6551 9.15717L16.22 8.59226C16.426 8.38628 16.426 8.05235 16.22 7.84638C16.014 7.6404 15.6801 7.6404 15.4741 7.84638L14.9092 8.41128C14.7032 8.61726 14.7032 8.95119 14.9092 9.15717C15.1152 9.36318 15.4491 9.36311 15.6551 9.15717Z" fill="white"/>
</g>
<defs>
<clipPath id="clip0_1_453">
<rect width="18" height="18" fill="white" transform="translate(6 6)"/>
</clipPath>
</defs>
</svg>
