<svg width="26" height="16" viewBox="0 0 26 16" fill="none" xmlns="http://www.w3.org/2000/svg">
<g clip-path="url(#clip0_1_92)">
<path d="M25.7438 8.85609L23.6942 4.45458C23.5094 4.05724 23.2113 3.72023 22.8354 3.4838C22.4596 3.24736 22.022 3.1215 21.5748 3.12124H17.9958V1.75003C17.9973 1.52016 17.9513 1.29236 17.8606 1.0802C17.7699 0.868049 17.6363 0.67589 17.4679 0.515185C17.3032 0.350817 17.1063 0.220495 16.8889 0.131989C16.6715 0.0434825 16.438 -0.0013947 16.2024 3.30259e-05H2.85697C2.6214 -0.0013947 2.38795 0.0434825 2.17054 0.131989C1.95313 0.220495 1.75621 0.350817 1.59152 0.515185C1.42379 0.676409 1.2907 0.868667 1.20005 1.0807C1.1094 1.29274 1.06301 1.52029 1.0636 1.75003V7.24246C1.06141 7.33612 1.07995 7.42915 1.11795 7.51518C1.14998 7.60433 1.20319 7.6848 1.27322 7.75003C1.34006 7.81836 1.42253 7.87029 1.51388 7.90155C1.60204 7.93909 1.69719 7.95847 1.79337 7.95847C1.88955 7.95847 1.9847 7.93909 2.07286 7.90155C2.16093 7.86831 2.24044 7.81658 2.30576 7.75003C2.37579 7.6848 2.429 7.60433 2.46103 7.51518C2.49903 7.42915 2.51757 7.33612 2.51538 7.24246V1.75003C2.51891 1.66244 2.55475 1.57904 2.6163 1.51518C2.6817 1.45602 2.7678 1.42349 2.85697 1.42428H16.2024C16.2916 1.42349 16.3777 1.45602 16.4431 1.51518C16.5047 1.57904 16.5405 1.66244 16.544 1.75003V10.0834C16.5436 10.1716 16.5073 10.2561 16.4431 10.3182C16.3785 10.3795 16.2925 10.4147 16.2024 10.4167H9.79755C9.60535 10.4187 9.42172 10.4946 9.28654 10.6279C9.15135 10.7613 9.07553 10.9413 9.07554 11.1288C9.0745 11.2216 9.09247 11.3137 9.12839 11.3996C9.1643 11.4856 9.21745 11.5636 9.2847 11.6293C9.35195 11.6949 9.43196 11.7468 9.52003 11.7818C9.60809 11.8168 9.70245 11.8344 9.79755 11.8334H16.2024C16.4382 11.8344 16.6719 11.7898 16.89 11.7022C17.108 11.6146 17.3061 11.4857 17.4728 11.323C17.6396 11.1603 17.7716 10.967 17.8614 10.7542C17.9512 10.5415 17.9968 10.3135 17.9958 10.0834V4.54549H21.5748C21.743 4.54399 21.9079 4.59147 22.0484 4.68185C22.19 4.77064 22.3031 4.8967 22.3744 5.04549L22.4443 5.20458H20.4724C20.1377 5.20805 19.8175 5.33846 19.5796 5.56821C19.3427 5.79946 19.2088 6.11249 19.2069 6.43943V8.52276C19.207 8.68479 19.24 8.8452 19.304 8.99473C19.3679 9.14426 19.4616 9.27995 19.5796 9.39397C19.8166 9.62509 20.1373 9.75575 20.4724 9.75761H24.5172C24.5247 9.84331 24.5247 9.92948 24.5172 10.0152V12.1667C24.5172 12.2105 24.5083 12.2538 24.4912 12.2943C24.474 12.3347 24.4488 12.3714 24.4171 12.4024C24.3854 12.4334 24.3477 12.4579 24.3063 12.4747C24.2649 12.4914 24.2204 12.5 24.1756 12.5H22.7083C22.5516 11.9268 22.2117 11.4172 21.7378 11.0455C21.2215 10.6511 20.5847 10.4368 19.9289 10.4368C19.2732 10.4368 18.6364 10.6511 18.12 11.0455C17.6511 11.4187 17.3166 11.9283 17.1651 12.5H8.82711C8.67269 11.9296 8.33869 11.4208 7.8722 11.0455C7.35409 10.6517 6.71614 10.4379 6.05942 10.4379C5.4027 10.4379 4.76475 10.6517 4.24664 11.0455C3.78015 11.4208 3.44615 11.9296 3.29173 12.5H2.85697C2.76721 12.4966 2.68174 12.4616 2.6163 12.4015C2.55213 12.3394 2.51584 12.2549 2.51538 12.1667V11.8106C2.6364 11.7793 2.74642 11.7165 2.83368 11.6288C2.90132 11.5635 2.95475 11.4856 2.99077 11.3997C3.02679 11.3138 3.04465 11.2216 3.0433 11.1288C3.04838 11.0322 3.03231 10.9356 2.99617 10.8454C2.96003 10.7553 2.90464 10.6737 2.83368 10.6061C2.69786 10.4802 2.51634 10.412 2.32905 10.4167H0.722006C0.628028 10.4138 0.534388 10.429 0.446459 10.4615C0.35853 10.494 0.278043 10.5432 0.209615 10.6061C0.0791511 10.742 0.00453133 10.92 0 11.1061C0.00453133 11.2922 0.0791511 11.4702 0.209615 11.6061C0.34885 11.7334 0.531254 11.8062 0.722006 11.8106H1.0636V12.144C1.06285 12.3749 1.10913 12.6036 1.19976 12.8169C1.29039 13.0302 1.42355 13.2238 1.59152 13.3864C1.92818 13.7128 2.38239 13.8977 2.85697 13.9015H3.29173C3.44858 14.4688 3.78229 14.9745 4.24664 15.3485C4.76363 15.7448 5.402 15.9602 6.05942 15.9602C6.71684 15.9602 7.35521 15.7448 7.8722 15.3485C8.33655 14.9745 8.67026 14.4688 8.82711 13.9015H17.1729C17.3357 14.4964 17.6953 15.0222 18.1958 15.3972C18.6962 15.7723 19.3096 15.9756 19.9406 15.9756C20.5716 15.9756 21.1849 15.7723 21.6854 15.3972C22.1859 15.0222 22.5454 14.4964 22.7083 13.9015H24.2066C24.6831 13.8957 25.139 13.7113 25.4798 13.3864C25.8141 13.0552 26.001 12.6088 26 12.144V10.0152C26.0013 9.61531 25.9139 9.21991 25.7438 8.85609ZM23.9039 8.33337H20.6665V6.62882H23.1042L23.9039 8.33337ZM21.3419 13.2122C21.3503 13.5716 21.2136 13.9198 20.9615 14.1819C20.7287 14.4026 20.4257 14.5394 20.1025 14.5697C19.7794 14.6 19.4553 14.522 19.1836 14.3485C19.0106 14.2365 18.8653 14.0882 18.7584 13.9144C18.6514 13.7407 18.5855 13.5459 18.5655 13.3441C18.5454 13.1424 18.5716 12.9389 18.6423 12.7483C18.713 12.5577 18.8263 12.3849 18.974 12.2425C19.1696 12.0475 19.4215 11.9153 19.696 11.8637C19.7864 11.8563 19.8773 11.8563 19.9678 11.8637C20.1541 11.8652 20.3385 11.9012 20.5112 11.9697C20.7678 12.0748 20.9868 12.2518 21.1402 12.4784C21.2936 12.705 21.3746 12.9709 21.3729 13.2425L21.3419 13.2122ZM7.4685 13.2122C7.46853 13.3922 7.4322 13.5706 7.3616 13.7369C7.291 13.9033 7.18751 14.0545 7.05703 14.1819C6.89308 14.3476 6.68919 14.4706 6.46398 14.5396C6.23877 14.6087 5.99943 14.6216 5.7678 14.5771C5.53618 14.5327 5.31966 14.4323 5.13802 14.2852C4.95638 14.138 4.8154 13.9489 4.72798 13.7349C4.61779 13.4817 4.58775 13.2021 4.6417 12.9321C4.69566 12.6621 4.83115 12.414 5.03076 12.2197C5.22749 12.0262 5.47886 11.8944 5.75276 11.8409C5.84577 11.8335 5.93924 11.8335 6.03225 11.8409C6.21612 11.8425 6.39797 11.8785 6.56793 11.947C6.82423 12.0533 7.04308 12.2305 7.19757 12.4566C7.35205 12.6827 7.43543 12.948 7.43744 13.2197L7.4685 13.2122Z" fill="#BAC2C8"/>
<path d="M9.16091 5.88629C9.30143 5.69148 9.38453 5.4628 9.40118 5.22513C9.41782 4.98745 9.36738 4.74987 9.25533 4.53822C9.14328 4.32656 8.97391 4.14893 8.76563 4.02464C8.55736 3.90035 8.31815 3.83416 8.07402 3.83326H6.98713C6.9178 3.833 6.84912 3.84628 6.78512 3.8723C6.72113 3.89832 6.66311 3.93656 6.61448 3.98477C6.51493 4.08391 6.45919 4.21719 6.45921 4.35598V7.47719C6.45707 7.5473 6.47031 7.61703 6.49802 7.68174C6.55436 7.80702 6.65689 7.90707 6.78527 7.96204C6.84802 7.9923 6.91714 8.00786 6.98713 8.0075C7.05967 8.00848 7.13145 7.99292 7.19674 7.96204C7.32513 7.90707 7.42765 7.80702 7.48399 7.68174C7.51171 7.61703 7.52494 7.5473 7.52281 7.47719V6.85598L8.39232 7.82568C8.4376 7.87654 8.49309 7.9178 8.55536 7.94689C8.61755 7.97951 8.68663 7.99766 8.75721 7.99992C8.82626 8.0147 8.89777 8.0147 8.96682 7.99992C9.03178 7.97752 9.09221 7.94419 9.14538 7.90144C9.20005 7.85478 9.24488 7.79817 9.27736 7.73477C9.30465 7.66465 9.31783 7.59006 9.31618 7.51507C9.32748 7.44734 9.32748 7.37826 9.31618 7.31053C9.29043 7.24681 9.25367 7.18787 9.20749 7.13629L8.53983 6.36356C8.79222 6.27056 9.00909 6.1039 9.16091 5.88629ZM8.26034 5.30295C8.23676 5.32799 8.20788 5.34773 8.17571 5.36081C8.14354 5.37389 8.10884 5.38 8.07402 5.37871H7.53834V4.87871H8.07402C8.12613 4.87883 8.17704 4.89401 8.22033 4.92232C8.26362 4.95063 8.29735 4.99081 8.31728 5.0378C8.3372 5.08479 8.34243 5.13648 8.3323 5.18636C8.32216 5.23624 8.29713 5.28208 8.26034 5.3181V5.30295Z" fill="#BAC2C8"/>
<path d="M5.52807 4.87887C5.59788 4.87771 5.66676 4.86306 5.73073 4.83575C5.79469 4.80844 5.85247 4.76902 5.90072 4.71978C5.95013 4.67232 5.98932 4.6157 6.01598 4.55326C6.04264 4.49081 6.05625 4.42379 6.05599 4.35614C6.05669 4.28843 6.04329 4.22128 6.0166 4.15877C5.98991 4.09626 5.95049 4.0397 5.90072 3.9925C5.85247 3.94326 5.79469 3.90384 5.73073 3.87653C5.66676 3.84922 5.59788 3.83457 5.52807 3.83341H3.92879C3.85822 3.83257 3.78819 3.84555 3.72285 3.87157C3.65751 3.8976 3.59819 3.93614 3.54837 3.98493C3.44883 4.08407 3.39308 4.21734 3.3931 4.35614V7.47735C3.38207 7.54511 3.38207 7.61414 3.3931 7.6819C3.44944 7.80718 3.55197 7.90723 3.68035 7.9622C3.74615 7.99163 3.81759 8.00712 3.88997 8.00765C3.95996 8.00802 4.02907 7.99245 4.09182 7.9622C4.15994 7.93909 4.22124 7.90007 4.27038 7.84856C4.31795 7.80088 4.35495 7.74414 4.37907 7.6819C4.39753 7.6149 4.39753 7.54434 4.37907 7.47735V6.43947H5.15542C5.25036 6.4494 5.34634 6.43639 5.43491 6.40159C5.49998 6.37275 5.56018 6.33443 5.61347 6.28796C5.6642 6.23989 5.70418 6.18209 5.7309 6.1182C5.75763 6.05432 5.77051 5.98573 5.76874 5.91675C5.78049 5.85159 5.78049 5.78493 5.76874 5.71978C5.73918 5.65628 5.69991 5.59753 5.65229 5.54553C5.58721 5.49551 5.51363 5.45705 5.43491 5.4319C5.36814 5.42043 5.29983 5.42043 5.23306 5.4319H4.45671V4.87887H5.52807Z" fill="#BAC2C8"/>
<path d="M15.1311 4.87873C15.2047 4.88021 15.2779 4.86684 15.346 4.83947C15.4142 4.8121 15.4758 4.7713 15.527 4.71964C15.6234 4.62154 15.6787 4.49186 15.6823 4.356C15.6803 4.21983 15.6247 4.08963 15.527 3.99237C15.4776 3.94256 15.4185 3.90284 15.3532 3.87552C15.2879 3.84821 15.2176 3.83385 15.1466 3.83328H13.5318C13.4624 3.83259 13.3936 3.84567 13.3295 3.87171C13.2655 3.89776 13.2075 3.93623 13.1591 3.98479C13.0574 4.08317 12.999 4.2163 12.9961 4.356V7.47722C12.9967 7.54655 13.0114 7.61508 13.0394 7.67881C13.0674 7.74254 13.1081 7.8002 13.1591 7.84843C13.2075 7.89699 13.2655 7.93546 13.3295 7.96151C13.3936 7.98755 13.4624 8.00063 13.5318 7.99994H15.1311C15.2016 8.00078 15.2717 7.98781 15.337 7.96178C15.4023 7.93576 15.4617 7.89721 15.5115 7.84843C15.6084 7.7476 15.6637 7.6154 15.6667 7.47722C15.6632 7.34136 15.6078 7.21169 15.5115 7.11358C15.4617 7.0648 15.4023 7.02625 15.337 7.00023C15.2717 6.9742 15.2016 6.96123 15.1311 6.96207H14.0675V6.43934H14.8438C14.9129 6.43849 14.9812 6.42567 15.0457 6.40146C15.1097 6.37074 15.1696 6.33258 15.2242 6.28782C15.275 6.23975 15.3149 6.18196 15.3417 6.11807C15.3684 6.05418 15.3813 5.98559 15.3795 5.91661C15.3912 5.85145 15.3912 5.7848 15.3795 5.71964C15.3499 5.65615 15.3107 5.5974 15.263 5.5454C15.2084 5.50064 15.1485 5.46248 15.0845 5.43176C15.0177 5.4203 14.9494 5.4203 14.8826 5.43176H14.1063V4.87873H15.1311Z" fill="#BAC2C8"/>
<path d="M12.0649 4.87886C12.1356 4.88059 12.2059 4.86802 12.2713 4.84194C12.3368 4.81587 12.396 4.77685 12.4453 4.72735C12.4992 4.67726 12.5392 4.61473 12.5618 4.54553C12.5926 4.48423 12.6086 4.41685 12.6086 4.34856C12.6086 4.28027 12.5926 4.21289 12.5618 4.15159C12.5303 4.08541 12.4823 4.02807 12.422 3.98492C12.3728 3.93542 12.3135 3.8964 12.2481 3.87033C12.1826 3.84425 12.1123 3.83168 12.0416 3.83341H10.4656C10.395 3.83239 10.3248 3.84521 10.2594 3.87112C10.1939 3.89703 10.1344 3.93549 10.0845 3.98424C10.0345 4.03298 9.99512 4.09101 9.96857 4.15489C9.94202 4.21878 9.92888 4.28721 9.92993 4.35614V7.47735C9.92907 7.54621 9.94237 7.61454 9.96904 7.6783C9.99571 7.74206 10.0352 7.79995 10.0852 7.84856C10.1868 7.9457 10.3234 8.0001 10.4656 8.00008H12.0649C12.1364 7.99849 12.2072 7.9857 12.2745 7.9622C12.4029 7.90722 12.5054 7.80717 12.5618 7.68189C12.5919 7.61769 12.6078 7.54797 12.6083 7.47735C12.6087 7.40905 12.5928 7.34161 12.5618 7.28038C12.5054 7.1551 12.4029 7.05505 12.2745 7.00007C12.2082 6.97303 12.1367 6.96011 12.0649 6.9622H11.0013V6.43947H11.7776C11.8483 6.4412 11.9186 6.42863 11.9841 6.40255C12.0496 6.37647 12.1088 6.33746 12.1581 6.28795C12.2105 6.24275 12.2506 6.18546 12.2745 6.12129C12.3047 6.05708 12.3205 5.98737 12.3211 5.91674C12.3215 5.84844 12.3055 5.781 12.2745 5.71977C12.2508 5.6533 12.2108 5.59348 12.1581 5.54553C12.1088 5.49603 12.0496 5.45701 11.9841 5.43093C11.9186 5.40486 11.8483 5.39229 11.7776 5.39401H11.0013V4.87886H12.0649Z" fill="#BAC2C8"/>
<path d="M0.722406 9.92424H3.39305C3.5781 9.91807 3.75346 9.84202 3.88215 9.71212C4.0168 9.57887 4.09229 9.39926 4.09229 9.21212C4.09229 9.02499 4.0168 8.84537 3.88215 8.71212C3.7441 8.58205 3.56156 8.50648 3.36976 8.5H0.722406C0.530612 8.50648 0.348074 8.58205 0.210014 8.71212C0.0753652 8.84537 -0.00012207 9.02499 -0.00012207 9.21212C-0.00012207 9.39926 0.0753652 9.57887 0.210014 9.71212C0.276525 9.77914 0.356148 9.83245 0.444164 9.86889C0.53218 9.90533 0.626797 9.92415 0.722406 9.92424Z" fill="#BAC2C8"/>
</g>
<defs>
<clipPath id="clip0_1_92">
<rect width="26" height="16" fill="white"/>
</clipPath>
</defs>
</svg>
