<svg width="25" height="25" viewBox="0 0 25 25" fill="none" xmlns="http://www.w3.org/2000/svg">
<g clip-path="url(#clip0_1_85)">
<path d="M10.7422 7.8125C11.2807 7.8125 11.7188 8.25059 11.7188 8.78906C11.7188 9.32842 12.156 9.76562 12.6953 9.76562C13.2347 9.76562 13.6719 9.32842 13.6719 8.78906C13.6719 7.51597 12.8554 6.43052 11.7188 6.02734V4.88281C11.7188 4.34346 11.2815 3.90625 10.7422 3.90625C10.2028 3.90625 9.76562 4.34346 9.76562 4.88281V6.02734C8.629 6.43047 7.8125 7.51597 7.8125 8.78906C7.8125 10.4045 9.12676 11.7188 10.7422 11.7188C11.2807 11.7188 11.7188 12.1568 11.7188 12.6953C11.7188 13.2338 11.2807 13.6719 10.7422 13.6719C10.2037 13.6719 9.76562 13.2338 9.76562 12.6953C9.76562 12.156 9.32842 11.7188 8.78906 11.7188C8.24971 11.7188 7.8125 12.156 7.8125 12.6953C7.8125 13.9684 8.629 15.0539 9.76562 15.457V16.6016C9.76562 17.1409 10.2028 17.5781 10.7422 17.5781C11.2815 17.5781 11.7188 17.1409 11.7188 16.6016V15.457C12.8554 15.0539 13.6719 13.9684 13.6719 12.6953C13.6719 11.0799 12.3576 9.76562 10.7422 9.76562C10.2037 9.76562 9.76562 9.32754 9.76562 8.78906C9.76562 8.25059 10.2037 7.8125 10.7422 7.8125Z" fill="#BAC2C8"/>
<path d="M21.0938 17.1875H18.5686L18.8546 16.9015C19.236 16.5201 19.236 15.9018 18.8546 15.5204C18.4732 15.1391 17.8549 15.139 17.4735 15.5204L15.5204 17.4735C15.5196 17.4743 15.5189 17.4752 15.5182 17.476C15.144 17.8528 15.1369 18.4683 15.5182 18.8521C15.5189 18.8529 15.5196 18.8538 15.5204 18.8546L17.4735 20.8077C17.8549 21.1891 18.4732 21.1891 18.8546 20.8077C19.236 20.4263 19.236 19.808 18.8546 19.4267L18.5686 19.1406H21.0938C22.1707 19.1406 23.0469 20.0168 23.0469 21.0937C23.0469 22.1707 22.1707 23.0469 21.0938 23.0469H16.2109C15.6716 23.0469 15.2344 23.4841 15.2344 24.0234C15.2344 24.5628 15.6716 25 16.2109 25H21.0938C23.2477 25 25 23.2476 25 21.0937C25 18.9398 23.2477 17.1875 21.0938 17.1875Z" fill="#BAC2C8"/>
<path d="M12.605 19.3337C11.9971 19.4648 11.3704 19.5312 10.7422 19.5312C5.8959 19.5312 1.95312 15.5885 1.95312 10.7422C1.95312 5.8959 5.8959 1.95312 10.7422 1.95312C15.5885 1.95312 19.5312 5.8959 19.5312 10.7422C19.5312 11.3346 19.4721 11.9263 19.3554 12.501C19.2481 13.0296 19.5896 13.5451 20.1181 13.6524C20.6465 13.7596 21.1621 13.4183 21.2694 12.8896C21.4121 12.1873 21.4844 11.4648 21.4844 10.7422C21.4844 4.80532 16.6799 0 10.7422 0C4.80527 0 0 4.80449 0 10.7422C0 16.6791 4.80449 21.4844 10.7422 21.4844C11.5085 21.4844 12.2738 21.4031 13.0167 21.2429C13.5439 21.1292 13.8792 20.6096 13.7654 20.0824C13.6517 19.5552 13.1322 19.2198 12.605 19.3337Z" fill="#BAC2C8"/>
</g>
<defs>
<clipPath id="clip0_1_85">
<rect width="25" height="25" fill="white"/>
</clipPath>
</defs>
</svg>
