<svg width="21" height="20" viewBox="0 0 21 20" fill="none" xmlns="http://www.w3.org/2000/svg">
<path d="M20.0062 5.38492C19.9847 3.94921 19.4066 2.59903 18.3786 1.58311C17.3508 0.567338 15.9939 0.0051189 14.5552 0C12.9002 0 11.6398 0.864351 10.5401 1.77399C10.5388 1.77399 10.5376 1.77399 10.5363 1.77399C10.0285 1.77399 9.49134 1.46783 8.87188 1.11475C8.00061 0.618058 6.91638 0 5.45152 0C2.49033 0 0.0450225 2.41569 0.00047639 5.38496C-0.0187097 6.66117 0.543392 9.47703 1.36734 12.2326C1.95437 14.1958 3.15821 17.7117 4.62472 19.2003C5.14739 19.7309 5.69425 20 6.24991 20C6.65985 20 7.03079 19.8296 7.32265 19.5073C7.52127 19.2879 7.68488 18.9961 7.82274 18.6154C8.03761 18.022 8.17192 17.2675 8.31411 16.4685C8.67896 14.4187 9.03529 12.8498 10.0053 12.8441C10.9753 12.8498 11.3316 14.4187 11.6964 16.4685C11.8386 17.2674 11.973 18.022 12.1878 18.6154C12.3257 18.9962 12.4893 19.2879 12.6879 19.5073C12.9764 19.8259 13.3421 19.996 13.7465 19.9999C13.7507 19.9999 13.7548 20 13.759 20C13.7595 20 13.7601 20 13.7607 20C13.7633 20 13.766 19.9999 13.7686 19.9999C14.3203 19.9961 14.8631 19.7271 15.3821 19.2002C16.8485 17.7116 18.0523 14.1958 18.6394 12.2325C19.4633 9.47695 20.0254 6.66113 20.0062 5.38492ZM17.1423 11.7848C16.2141 14.8891 15.1668 17.1922 14.269 18.1036C14.0748 18.3007 13.92 18.3962 13.8205 18.4264C13.7715 18.3577 13.6761 18.187 13.5665 17.7986C13.4412 17.3547 13.3409 16.7912 13.2347 16.1946C13.0551 15.1859 12.8516 14.0425 12.4553 13.1384C11.7897 11.6201 10.7708 11.2885 10.024 11.2815C10.0196 11.2815 10.0151 11.2814 10.0107 11.2814H9.99983C9.99538 11.2814 9.99092 11.2815 9.98647 11.2815C9.23973 11.2885 8.2208 11.6201 7.55519 13.1384C7.15884 14.0425 6.95534 15.1858 6.77579 16.1946C6.66962 16.7912 6.56931 17.3547 6.44404 17.7986C6.33392 18.1888 6.23815 18.3592 6.18934 18.4274C6.09001 18.3982 5.93398 18.3028 5.73782 18.1037C4.83994 17.1923 3.79264 14.8892 2.8644 11.7849C2.00021 8.89481 1.54881 6.34255 1.56283 5.40841C1.59468 3.28774 3.33917 1.56247 5.45159 1.56247C6.50238 1.56247 7.31362 2.02493 8.0981 2.47204C8.41966 2.65534 8.74582 2.8413 9.08652 2.9935C8.31661 3.59874 7.57136 4.03545 6.70072 4.03545V5.59796C8.47252 5.59796 9.7465 4.506 10.9786 3.45002C12.1111 2.4793 13.1809 1.5624 14.5524 1.5624C16.6665 1.56994 18.4122 3.2952 18.4439 5.40833C18.4579 6.34247 18.0065 8.89473 17.1423 11.7848Z" fill="#0CCA4A"/>
</svg>
