<svg width="28" height="28" viewBox="0 0 28 28" fill="none" xmlns="http://www.w3.org/2000/svg">
<path d="M22.2079 2H5.79213C3.70107 2 2 3.70107 2 5.79213V22.2079C2 24.2989 3.70107 26 5.79213 26H22.2079C24.2989 26 26 24.2989 26 22.2079V5.79213C26 3.70107 24.2989 2 22.2079 2ZM23.4719 22.2079C23.4719 22.9048 22.9048 23.4719 22.2079 23.4719H5.79213C5.0952 23.4719 4.5282 22.9048 4.5282 22.2079V5.79213C4.5282 5.0952 5.09527 4.5282 5.79213 4.5282H22.2079C22.9048 4.5282 23.4718 5.09527 23.4718 5.79213V22.2079H23.4719Z" fill="#FA5E0D"/>
<path d="M18.6564 9.10547C18.2487 9.10547 17.8655 9.26434 17.5771 9.5528L11.9292 15.2099L10.4238 13.7047C10.1356 13.4165 9.75245 13.2577 9.34485 13.2577C8.93718 13.2577 8.55398 13.4165 8.26571 13.7047C7.97751 13.9929 7.81885 14.3761 7.81885 14.7837C7.81885 15.1913 7.97751 15.5745 8.26571 15.8626L10.8504 18.4473C11.1386 18.7355 11.5218 18.8943 11.9294 18.8943C12.3369 18.8943 12.7202 18.7355 13.0088 18.447L19.7355 11.7106C20.3304 11.1155 20.3303 10.1474 19.7355 9.55234C19.4473 9.2642 19.064 9.10547 18.6564 9.10547Z" fill="#FA5E0D"/>
</svg>
