<svg width="56" height="56" viewBox="0 0 56 56" fill="none" xmlns="http://www.w3.org/2000/svg">
<path d="M49.084 1.75H6.916C4.067 1.75 1.75 4.067 1.75 6.916V49.084C1.75 51.933 4.067 54.25 6.916 54.25H49.084C51.933 54.25 54.25 51.933 54.25 49.084V6.916C54.25 4.067 51.933 1.75 49.084 1.75ZM50.75 49.084C50.75 50.0028 50.0028 50.75 49.084 50.75H6.916C5.99725 50.75 5.25 50.0028 5.25 49.084V6.916C5.25 5.99725 5.99725 5.25 6.916 5.25H49.084C50.0028 5.25 50.75 5.99725 50.75 6.916V49.084Z" fill="#FA5E0D"/>
<path d="M34.743 23.2452C34.414 22.7814 33.882 22.5067 33.315 22.5067H27.0377V10.4999C27.0377 9.65468 26.434 8.93019 25.601 8.77969C24.7732 8.62219 23.949 9.09468 23.6497 9.88393L16.1632 29.7464C15.9602 30.2837 16.0337 30.8857 16.361 31.3599C16.6882 31.8324 17.2255 32.1142 17.7995 32.1142H24.0785V45.4999C24.0785 46.3522 24.6927 47.0802 25.5345 47.2237C26.3587 47.3637 27.197 46.8894 27.4805 46.0809L34.9652 24.8377C35.1525 24.3039 35.0702 23.7107 34.743 23.2452ZM27.5785 35.2659V30.3624C27.5785 29.3947 26.7945 28.6124 25.8285 28.6124H20.3282L23.5342 20.1057V24.2567C23.5342 25.2244 24.3182 26.0067 25.2842 26.0067H30.8405L27.5785 35.2659Z" fill="#FA5E0D"/>
<path d="M20.5782 35.3043H12.25V20.6953H16.8525C17.8185 20.6953 18.6025 19.9131 18.6025 18.9453C18.6025 17.9776 17.8185 17.1953 16.8525 17.1953H10.5C9.534 17.1953 8.75 17.9776 8.75 18.9453V37.0543C8.75 38.0221 9.534 38.8043 10.5 38.8043H20.5782C21.5442 38.8043 22.3282 38.0221 22.3282 37.0543C22.3282 36.0866 21.546 35.3043 20.5782 35.3043Z" fill="#FA5E0D"/>
<path d="M45.5002 20.2456H42.3642V18.9453C42.3642 17.9776 41.5819 17.1953 40.6142 17.1953H30.5342C29.5682 17.1953 28.7842 17.9776 28.7842 18.9453C28.7842 19.9131 29.5682 20.6953 30.5342 20.6953H38.8642V35.3043H34.0552C33.0874 35.3043 32.3052 36.0866 32.3052 37.0543C32.3052 38.0221 33.0874 38.8043 34.0552 38.8043H40.6142C41.5819 38.8043 42.3642 38.0221 42.3642 37.0543V35.7541H45.5002C46.4679 35.7541 47.2502 34.9718 47.2502 34.0041V21.9973C47.2502 21.0296 46.4679 20.2456 45.5002 20.2456ZM43.7502 32.2541H42.3642V23.7473H43.7502V32.2541Z" fill="#FA5E0D"/>
</svg>
