<svg width="20" height="20" viewBox="0 0 20 20" fill="none" xmlns="http://www.w3.org/2000/svg">
<g clip-path="url(#clip0_1241_7172)">
<path d="M9.91071 6.10352e-05C-3.30357 0.428632 -3.30357 19.5715 9.91071 20.0001C23.125 19.5715 23.125 0.428632 9.91071 6.10352e-05Z" fill="#CC2936"/>
<path d="M10.9142 10.0001L13.9142 7.00006C14.5571 6.35721 13.5571 5.35721 12.9142 6.00006L9.91425 9.00006L6.91425 6.00006C6.27139 5.35721 5.27139 6.35721 5.91425 7.00006L8.91425 10.0001L5.91425 13.0001C5.27139 13.6429 6.27139 14.6429 6.91425 14.0001L9.91425 11.0001L12.9142 14.0001C13.5571 14.6429 14.5571 13.6429 13.9142 13.0001L10.9142 10.0001Z" fill="white"/>
</g>
<defs>
<clipPath id="clip0_1241_7172">
<rect width="20" height="20" fill="white"/>
</clipPath>
</defs>
</svg>
