<!-- Generated by IcoMoon.io -->
<svg version="1.1" xmlns="http://www.w3.org/2000/svg" width="512" height="512" viewBox="0 0 512 512">
<title></title>
<g id="icomoon-ignore">
</g>
<path fill="#d7dfeb" d="M422.957 352h-322.783c-55.233 0-100.174-44.413-100.174-99 0-42.63 27.489-80.040 67.782-93.596 8.505-90.004 84.815-159.404 177.087-159.404 90.049 0 165.767 67.117 176.57 154.521 50.989 4.984 90.56 47.249 90.56 98.479 0 48.55-35.837 89.885-83.962 97.625-1.522 0.87-3.25 1.375-5.082 1.375z"></path>
<path fill="#199bd8" d="M272 512c-8.844 0-16-5.117-16-11.428v-137.143c0-6.312 7.156-11.428 16-11.428s16 5.117 16 11.428v137.143c0 6.312-7.156 11.428-16 11.428z"></path>
<path fill="#199bd8" d="M176 448c-8.844 0-16-5.117-16-11.428v-137.143c0-6.312 7.156-11.428 16-11.428s16 5.117 16 11.428v137.143c0 6.312-7.156 11.428-16 11.428z"></path>
<path fill="#199bd8" d="M336 448c-8.844 0-16-5.117-16-11.428v-137.143c0-6.312 7.156-11.428 16-11.428s16 5.117 16 11.428v137.143c0 6.312-7.156 11.428-16 11.428z"></path>
</svg>
