<!-- Generated by IcoMoon.io -->
<svg version="1.1" xmlns="http://www.w3.org/2000/svg" width="535" height="512" viewBox="0 0 535 512">
<title></title>
<g id="icomoon-ignore">
</g>
<path fill="#87613e" d="M133.565 66.782h-133.565c0 49.177 39.865 89.043 89.043 89.043h35.15l9.372-89.043z"></path>
<path fill="#87613e" d="M400.695 66.782h133.565c0 49.177-39.865 89.043-89.043 89.043h-35.149l-9.373-89.043z"></path>
<path fill="#444" d="M400.695 77.913v-55.652c0-12.293-9.967-22.261-22.261-22.261s-22.261 9.967-22.261 22.261v55.652h44.522z"></path>
<path fill="#444" d="M178.087 77.913v-55.652c0-12.293-9.968-22.261-22.261-22.261s-22.261 9.967-22.261 22.261v55.652h44.522z"></path>
<path fill="#a08775" d="M422.402 295.261h-310.543c-3.152 0-6.163-1.337-8.272-3.685s-3.13-5.478-2.793-8.608l21.707-206.218c0.587-5.663 5.37-9.968 11.065-9.968h267.13c5.695 0 10.478 4.305 11.065 9.968l21.707 206.218c0.337 3.13-0.685 6.261-2.793 8.608s-5.12 3.685-8.272 3.685z"></path>
<path fill="#444" d="M211.478 200.348c0 12.294-9.966 22.261-22.261 22.261s-22.261-9.966-22.261-22.261c0-12.294 9.966-22.261 22.261-22.261s22.261 9.966 22.261 22.261z"></path>
<path fill="#444" d="M367.305 200.348c0 12.294-9.966 22.261-22.261 22.261s-22.261-9.966-22.261-22.261c0-12.294 9.966-22.261 22.261-22.261s22.261 9.966 22.261 22.261z"></path>
<path fill="#c19f85" d="M333.913 512h-133.565c-67.511 0-122.435-54.924-122.435-122.435v-66.782c0-30.685 24.968-55.652 55.652-55.652h267.13c30.685 0 55.652 24.968 55.652 55.652v66.783c0 67.511-54.924 122.435-122.435 122.435z"></path>
<path fill="#8e725e" d="M222.608 389.565c0 18.442-14.95 33.392-33.392 33.392s-33.392-14.95-33.392-33.392c0-18.442 14.95-33.392 33.392-33.392s33.392 14.95 33.392 33.392z"></path>
<path fill="#8e725e" d="M378.435 389.565c0 18.442-14.95 33.392-33.392 33.392s-33.392-14.95-33.392-33.392c0-18.442 14.95-33.392 33.392-33.392s33.392 14.95 33.392 33.392z"></path>
</svg>
