<?xml version="1.0" encoding="UTF-8"?>
<svg width="580px" height="150px" viewBox="0 0 580 150" version="1.1" xmlns="http://www.w3.org/2000/svg" xmlns:xlink="http://www.w3.org/1999/xlink">
    <title>aimfox-logo-color-reversed</title>
    <defs>
        <linearGradient x1="50%" y1="-2.48949813e-15%" x2="50%" y2="100%" id="linearGradient-1">
            <stop stop-color="#0299FE" offset="0%"></stop>
            <stop stop-color="#896EFF" offset="100%"></stop>
        </linearGradient>
    </defs>
    <g id="aimfox-logo-color-reversed" stroke="none" stroke-width="1" fill="none" fill-rule="evenodd">
        <path d="M60,0 L60,30 L60.9922097,30.0080383 C93.671657,30.5378857 120,57.1942859 120,90 C120,122.805714 93.671657,149.462114 60.9922097,149.991962 L60,150 C26.862915,150 0,123.137085 0,90 L30,90 C30,73.4314575 16.5685425,60 0,60 L0,0 L30,30 L60,0 Z M60,60 C59.6719429,60 59.3451156,60.0052657 59.0195981,60.0157171 L58.5175793,60.035987 C58.2512142,60.0489484 57.9857613,60.0653838 57.7212651,60.0852488 C57.6638218,60.0895628 57.6063112,60.0940478 57.5488463,60.0986946 C57.107534,60.134386 56.6692493,60.1795869 56.2338653,60.234118 C56.190879,60.2395015 56.1476232,60.2450146 56.1043962,60.2506197 C55.9917878,60.2652227 55.8797471,60.2803976 55.7679045,60.2961892 C55.7280893,60.3018108 55.6881386,60.3075338 55.6482134,60.3133354 L55.394202,60.3513591 C55.3106664,60.3642308 55.22744,60.3774152 55.1443283,60.3909412 C55.0566018,60.4052168 54.9685307,60.419954 54.8805905,60.435074 L54.7049298,60.465816 L54.3464546,60.5319134 C54.3066762,60.5394998 54.2673422,60.5470836 54.2280355,60.5547441 C54.146401,60.5706524 54.06436,60.5869986 53.9824404,60.6036786 C53.9025058,60.6199554 53.8230154,60.6364803 53.743641,60.6533191 C53.6893979,60.664826 53.634995,60.6765262 53.5806471,60.6883736 L53.2748782,60.7567141 C53.224716,60.7682027 53.1746175,60.7798133 53.1245672,60.7915493 C53.0241876,60.8150863 52.9239161,60.8391486 52.8238419,60.863713 L52.5310446,60.9371586 C52.4817981,60.9497765 52.4321694,60.9626291 52.3825907,60.9756053 C52.1036491,61.0486178 51.826774,61.1254035 51.551539,61.2060284 C51.5330966,61.2114309 51.5148245,61.2168025 51.4965597,61.222191 C51.4057015,61.2489959 51.3149072,61.2762546 51.224295,61.3039308 C51.1436429,61.3285644 51.0630285,61.3535623 50.9825603,61.3788902 C50.9572117,61.3868692 50.9321798,61.3947848 50.9071622,61.4027324 L50.6071536,61.4997916 L50.5176797,61.5294199 C50.4353005,61.5568437 50.35308,61.5846151 50.2710201,61.6127322 C50.2301884,61.6267227 50.1892943,61.6408343 50.1484403,61.6550317 C50.0244276,61.6981301 49.9011721,61.741879 49.7782903,61.786408 L49.7128507,61.810208 C49.6189346,61.8444906 49.52558,61.8791003 49.4324459,61.9141599 C49.3645033,61.9397369 49.2968341,61.9654932 49.2292826,61.9914869 C49.1758029,62.012065 49.1219947,62.0329492 49.0682621,62.053984 C48.9785099,62.0891202 48.8892212,62.1245746 48.8001442,62.160444 C48.7140887,62.1950974 48.6284029,62.2300671 48.5429162,62.2654204 L48.4043583,62.3231305 C48.155111,62.4276814 47.9076595,62.5354623 47.6619706,62.6464561 C47.6224433,62.6643122 47.5824493,62.6824857 47.5425025,62.7007442 C47.476496,62.7309153 47.4111022,62.7610931 47.3458361,62.7914988 C47.1236169,62.8950239 46.9028134,63.0012227 46.6835303,63.1100249 C46.6123343,63.1453501 46.5412067,63.1809962 46.4702413,63.216916 C46.403921,63.2504852 46.3379108,63.2842065 46.2720426,63.3181646 C46.2109369,63.3496671 46.1498576,63.3814235 46.0889018,63.4133835 L45.8620402,63.5335738 C45.7935384,63.5702428 45.7251268,63.6072075 45.6568757,63.6444296 C45.5930164,63.6792569 45.5294069,63.7142488 45.4659385,63.7494643 C45.4038703,63.7839028 45.3418934,63.8185796 45.2800527,63.8534695 C45.1938285,63.9021167 45.1079532,63.9511295 45.0223447,64.000553 L44.9366963,64.0501883 C44.8346318,64.1095646 44.7333359,64.1692948 44.632424,64.229601 L44.4801292,64.3212276 C44.4131745,64.3617813 44.3464922,64.4025271 44.2799821,64.4435252 C44.056503,64.5812818 43.8349282,64.7219131 43.6153482,64.8653441 L43.5575251,64.9032095 C43.4642969,64.9644141 43.3715963,65.0260124 43.27926,65.0881106 C43.2255555,65.1242277 43.17191,65.1605578 43.1183886,65.1970566 C43.0357099,65.2534393 42.9533448,65.3102126 42.8712788,65.3673856 C42.8332279,65.3938954 42.7955709,65.4202591 42.7579775,65.446707 C42.6908692,65.4939173 42.623505,65.5417238 42.5563473,65.5898007 C42.4811611,65.6436265 42.4065512,65.6975594 42.3322004,65.751826 C42.2799756,65.7899434 42.2278707,65.8282312 42.1758943,65.866683 C42.1213096,65.9070639 42.0666891,65.9477588 42.0122123,65.9886347 C41.9375599,66.044651 41.8635514,66.100721 41.7898123,66.1571253 C41.7306534,66.2023758 41.6713642,66.2480773 41.6122513,66.2939951 C41.5582391,66.3359513 41.5045271,66.3779675 41.4509623,66.4201624 C41.3892552,66.4687695 41.3273266,66.5179473 41.2655975,66.567364 L41.1138847,66.689623 L40.98486,66.7948803 L40.8284587,66.9240747 C40.7982501,66.9491998 40.7680916,66.974383 40.7379834,66.9996243 C40.7026172,67.0292738 40.667372,67.0589597 40.6321963,67.0887251 C40.5353388,67.1706879 40.4393894,67.2529227 40.3439683,67.3357502 C40.3242122,67.3528991 40.3046379,67.3699345 40.285086,67.3869949 C40.2081011,67.4541698 40.1315196,67.5216803 40.0552868,67.589574 C39.8661945,67.7579869 39.6795918,67.9284347 39.4951724,68.1011852 C39.4573727,68.1365942 39.4200017,68.1717811 39.3827212,68.2070627 C39.3175027,68.2687817 39.2521365,68.3311993 39.187053,68.3939083 C39.1341418,68.4448911 39.0818477,68.4956457 39.0297386,68.5465885 C38.9851553,68.5901732 38.9405238,68.6340774 38.8960294,68.6781199 C38.8230072,68.7504007 38.7504007,68.8230072 38.6781661,68.8959827 C38.6366392,68.9379346 38.5950219,68.9802266 38.5535294,69.0226412 C38.4979398,69.0794665 38.4426614,69.1364213 38.3876078,69.1935941 C38.3314581,69.251906 38.2757199,69.3102571 38.2202155,69.368832 L38.0921862,69.5047835 C37.923733,69.6847736 37.7575293,69.8667768 37.593559,70.0508133 L37.4559647,70.2063199 C37.397207,70.2731878 37.3385645,70.340525 37.2802186,70.4081253 L37.1908702,70.5121225 C37.0259653,70.7049492 36.8634912,70.899857 36.703465,71.0968338 L36.5791302,71.2509091 C36.5181213,71.3270215 36.4575134,71.4033898 36.397271,71.4800588 C36.3666452,71.5190355 36.3361342,71.558064 36.3057179,71.5971697 C36.2549248,71.6624743 36.2045092,71.7278459 36.1543582,71.7934305 L36.0726988,71.9007157 L35.9911637,72.0088423 C35.9671625,72.0408222 35.9437332,72.0721669 35.9203639,72.103559 C35.8632417,72.1802862 35.8058914,72.2580989 35.7489093,72.3361972 C35.6903697,72.4164323 35.6324349,72.4966662 35.5748884,72.5771968 C35.5440005,72.6204221 35.513397,72.6634888 35.4829045,72.7066397 C35.4313977,72.779525 35.3798348,72.8531882 35.3285953,72.9270927 C35.2830246,72.9928223 35.2378794,73.0584941 35.1929896,73.1243539 C35.1655934,73.1645491 35.1384756,73.2045425 35.111452,73.2446047 C35.0438381,73.3448381 34.9765596,73.445889 34.9098801,73.5473686 L34.8913677,73.5755772 C34.8208076,73.6832239 34.7507716,73.7915863 34.6814182,73.900426 C34.6717081,73.9156643 34.6619253,73.9310476 34.6521562,73.9464403 C34.589092,74.0458062 34.5264775,74.1457597 34.4644381,74.2461062 C34.4154031,74.3254173 34.3666375,74.4051224 34.3182347,74.4850716 C34.283299,74.542777 34.2485962,74.6005359 34.2140828,74.6584207 C34.2002066,74.6816939 34.1864621,74.7048167 34.1727479,74.7279595 C34.1046448,74.8428773 34.0369103,74.9589439 33.9699362,75.0755029 C33.9605645,75.091813 33.951176,75.108188 33.9418025,75.1245728 C33.8781946,75.2357561 33.8151274,75.3476565 33.7527605,75.4599994 L33.6287489,75.6856656 C33.5988841,75.7405705 33.5693298,75.7953104 33.5399409,75.8501523 C33.494855,75.9342843 33.4500346,76.0188933 33.4056083,76.1037412 L33.3217188,76.2651507 C33.2861568,76.3340846 33.2507273,76.4034247 33.2155602,76.4729202 C33.1801561,76.5428864 33.1451821,76.6126795 33.110473,76.6826273 C32.9994235,76.9064154 32.8909658,77.1320444 32.7852688,77.3592174 C32.5649898,77.8326437 32.3565521,78.3131448 32.1605136,78.7999713 C32.1305445,78.8743997 32.1011475,78.9482584 32.0720361,79.0222607 C31.9858392,79.2413738 31.902095,79.4618864 31.8208934,79.6836248 C31.8157342,79.6977125 31.81048,79.7120942 31.8052365,79.726481 C31.7579387,79.8562526 31.7115023,79.9864689 31.6659437,80.1170967 C31.6604095,80.1329643 31.6548345,80.1489931 31.6492726,80.1650281 C31.6031176,80.2980951 31.5578744,80.4315835 31.513549,80.5654899 C31.4361369,80.7993508 31.361529,81.0344712 31.2897599,81.2708268 C31.1343066,81.7828141 30.9923185,82.3000075 30.8640224,82.8225815 C30.7737763,83.1901515 30.6902312,83.5607395 30.6136135,83.9338544 C30.5640473,84.1752587 30.5174923,84.4171015 30.4738601,84.659959 L30.4654059,84.7072332 C30.4301551,84.9052678 30.3968473,85.1039747 30.365503,85.3033334 C30.2615103,85.9647565 30.1791308,86.6333469 30.1191088,87.3083673 C30.1116062,87.3927224 30.1044018,87.4778124 30.0975532,87.5630028 C30.0676073,87.9355799 30.0444897,88.3095953 30.0282859,88.6854028 L30.0158758,89.0146661 L30.0040191,89.5038951 L30,90 C30,106.402857 43.1641715,119.731057 59.5038951,119.995981 L60,120 L60.4961049,119.995981 C76.8358285,119.731057 90,106.402857 90,90 C90,73.7611715 77.0977955,60.5358143 60.9853339,60.0158758 L60.4961049,60.0040191 L60,60 Z M60,75 L60.3138282,75.0032178 C68.4532136,75.1702698 75,81.8205929 75,90 C75,98.1794071 68.4532136,104.82973 60.3138282,104.996782 L60,105 C51.7157288,105 45,98.2842712 45,90 C45,81.7157288 51.7157288,75 60,75 Z M20.4545455,45 C20.3015261,45 20.1499784,45.0057759 20.0008579,45.017179 C19.8506997,45.0058018 19.6988163,45 19.5454545,45 L19.5454545,45 L19.5455862,45.0691118 C16.965782,45.4657938 15,47.5224609 15,50 C15,52.4775391 16.965782,54.5342062 19.5455862,54.9308882 L19.5455862,54.9308882 L19.5454545,55 L19.7742688,54.9956865 L19.7742688,54.9956865 L20.0001476,54.9828971 C20.1499784,54.9942241 20.3015261,55 20.4545455,55 L20.4545455,55 L20.4544138,54.9308882 C23.034218,54.5342062 25,52.4775391 25,50 C25,47.5224609 23.034218,45.4657938 20.4544138,45.0691118 L20.4544138,45.0691118 Z M40.4545455,45 C40.3015261,45 40.1499784,45.0057759 40.0008579,45.017179 C39.8506997,45.0058018 39.6988163,45 39.5454545,45 L39.5454545,45 L39.5455862,45.0691118 C36.965782,45.4657938 35,47.5224609 35,50 C35,52.4775391 36.965782,54.5342062 39.5455862,54.9308882 L39.5455862,54.9308882 L39.5454545,55 L39.7742688,54.9956865 L39.7742688,54.9956865 L40.0001476,54.9828971 C40.1499784,54.9942241 40.3015261,55 40.4545455,55 L40.4545455,55 L40.4544138,54.9308882 C43.034218,54.5342062 45,52.4775391 45,50 C45,47.5224609 43.034218,45.4657938 40.4544138,45.0691118 L40.4544138,45.0691118 Z" id="Icon" fill="url(#linearGradient-1)"></path>
        <path d="M166.08,130.2 L172.56,111 L206.52,111 L213.24,130.2 L229.2,130.2 L197.4,44.64 L181.08,44.64 L150,130.2 L166.08,130.2 Z M201.84,97.68 L177,97.68 L188.4,64.08 L189.24,59.4 L190.08,64.08 L201.84,97.68 Z M243.92,53.76 C247.44,53.76 250.06,52.94 251.78,51.3 C253.5,49.66 254.36,47 254.36,43.32 C254.36,39.48 253.48,36.8 251.72,35.28 C249.96,33.76 247.36,33 243.92,33 C240.48,33 237.88,33.76 236.12,35.28 C234.36,36.8 233.48,39.48 233.48,43.32 C233.48,47.24 234.28,49.96 235.88,51.48 C237.48,53 240.16,53.76 243.92,53.76 Z M251.72,130.2 L251.72,61.2 L235.76,61.2 L235.76,130.2 L251.72,130.2 Z M278.68,130.2 L278.68,93.24 C278.68,87.32 279.92,82.5 282.4,78.78 C284.88,75.06 288.68,73.2 293.8,73.2 C297.4,73.2 300.22,73.98 302.26,75.54 C304.3,77.1 305.72,79.2 306.52,81.84 C307,83.2 307.34,84.62 307.54,86.1 C307.74,87.58 307.84,89.12 307.84,90.72 L307.84,130.2 L323.44,130.2 L323.44,91.08 C323.44,85.88 324.56,81.6 326.8,78.24 C329.04,74.88 332.72,73.2 337.84,73.2 C343.12,73.2 346.84,74.86 349,78.18 C351.16,81.5 352.24,85.88 352.24,91.32 L352.24,130.2 L367.96,130.2 L367.96,87 C367.96,78.44 365.9,71.72 361.78,66.84 C357.66,61.96 351.56,59.52 343.48,59.52 C337.88,59.52 333.2,60.82 329.44,63.42 C325.68,66.02 322.92,69.52 321.16,73.92 C319.64,69.44 317.12,65.92 313.6,63.36 C310.08,60.8 305.36,59.52 299.44,59.52 C294,59.52 289.46,60.82 285.82,63.42 C282.18,66.02 279.44,69.48 277.6,73.8 L276.16,61.2 L262.96,61.2 L262.96,130.2 L278.68,130.2 Z M394.56,130.2 L394.56,96.6 L433.44,96.6 L433.44,82.44 L394.56,82.44 L394.56,58.68 L435.84,58.68 L435.84,44.64 L379.2,44.64 L379.2,130.2 L394.56,130.2 Z M476.04,132 C483,132 489.08,130.64 494.28,127.92 C499.48,125.2 503.56,121.24 506.52,116.04 C507.96,113.48 509.04,110.62 509.76,107.46 C510.48,104.3 510.84,100.84 510.84,97.08 L510.84,95.28 C510.84,87.68 509.36,81.22 506.4,75.9 C503.44,70.58 499.32,66.52 494.04,63.72 C491.48,62.28 488.7,61.22 485.7,60.54 C482.7,59.86 479.48,59.52 476.04,59.52 C469.32,59.52 463.34,60.9 458.1,63.66 C452.86,66.42 448.76,70.44 445.8,75.72 C444.28,78.36 443.14,81.32 442.38,84.6 C441.62,87.88 441.24,91.44 441.24,95.28 L441.24,97.08 C441.24,108.28 444.26,116.9 450.3,122.94 C456.34,128.98 464.92,132 476.04,132 Z M476.04,118.2 C470.2,118.2 465.62,116.34 462.3,112.62 C458.98,108.9 457.32,103.64 457.32,96.84 L457.32,95.28 C457.32,88 459.06,82.46 462.54,78.66 C466.02,74.86 470.56,72.96 476.16,72.96 C481.84,72.96 486.38,74.92 489.78,78.84 C493.18,82.76 494.88,88.24 494.88,95.28 L494.88,96.84 C494.88,103.64 493.22,108.9 489.9,112.62 C486.58,116.34 481.96,118.2 476.04,118.2 Z M527.08,130.2 L544.36,105.48 L561.52,130.2 L580,130.2 L553.36,93.96 L578.32,61.2 L560.08,61.2 L544.48,83.16 L529.36,61.2 L510.88,61.2 L535.48,94.08 L508,130.2 L527.08,130.2 Z" id="AimFox" fill="#FFFFFF" fill-rule="nonzero"></path>
    </g>
</svg>