<?xml version="1.0" encoding="UTF-8"?>
<svg width="612px" height="431px" viewBox="0 0 612 431" version="1.1" xmlns="http://www.w3.org/2000/svg" xmlns:xlink="http://www.w3.org/1999/xlink">
    <!-- Generator: Sketch 49 (51002) - http://www.bohemiancoding.com/sketch -->
    <title>logo</title>
    <desc>Created with Sketch.</desc>
    <defs></defs>
    <g id="Page-1" stroke="none" stroke-width="1" fill="none" fill-rule="evenodd" opacity="0.049999997">
        <g id="landing-page" transform="translate(-314.000000, -6383.000000)" fill="#000000">
            <g id="Group-24" transform="translate(0.000000, 6320.000000)">
                <path d="M342.567055,172 C361.503881,196.287428 424.141873,208.243939 424.141873,208.243939 C416.860077,232.538365 429.450002,250.513372 436.524044,273.019745 C443.601548,295.522619 440.166673,340 440.166673,340 C429.242247,316.443889 398.650392,304.669333 380.440707,289.948513 C362.231022,275.227693 361.503881,258.298925 361.503881,258.298925 C355.676367,268.60035 328,274.489378 328,274.489378 C338.924426,268.60035 341.839915,229.592102 338.924426,207.509123 C336.008937,185.429643 342.567055,172 342.567055,172 Z M358.540658,293 C358.540658,293 367.215674,304.847177 387.459668,315.958527 C407.703662,327.066356 440.369014,354.475057 440.96018,381.130326 C441.685389,413.714465 433.010373,454.445519 373.000163,470 C373.000163,470 393.244157,431.490512 378.784653,410.010681 C364.325148,388.537892 331.06863,357.43245 358.540658,293 Z M445.161531,213 C445.161531,213 495.265718,221.874729 548.276597,213 C548.276597,213 565.70294,231.491362 564.977993,265.517016 C564.253046,299.535637 527.943563,315.808317 527.218616,347.611772 C527.218616,347.611772 514.873806,341.69763 509.788821,324.686562 C509.788821,324.686562 502.484118,338.213139 500.350703,349.092065 C498.168958,360.185476 494.540771,380.157132 502.528996,409 C502.528996,409 468.397805,385.332885 463.316273,367.583428 C458.231288,349.830454 459.587974,315.108606 460.409581,295.840177 C461.862927,261.81804 438.626653,245.54536 445.161531,213 Z M454.991835,405 C497.266903,453.674649 471.754951,473.585572 467.382266,489.075351 C463.00958,504.561623 478.313979,520.047896 476.858727,544.39048 C475.400011,568.726052 454.991835,582 454.991835,582 C454.991835,559.876753 440.415061,540.702104 425.107197,527.424649 C409.802798,514.150701 398.39986,479.822855 415.6342,469.900701 C457.905804,445.561623 454.991835,405 454.991835,405 Z M489,421.293794 C511.738642,443.433297 535.209551,450.074096 535.209551,450.074096 C510.27062,419.080194 515.403465,363 515.403465,363 C530.808974,405.058392 578.486546,419.080194 594.624322,478.114193 C610.758611,537.148192 563.816792,577 563.816792,577 C560.148482,548.959903 557.25777,523.568408 532.276995,505.417593 C505.870043,486.235402 489,421.293794 489,421.293794 Z M493.749712,487 C493.749712,487 501.701129,504.880478 519.772221,520.522798 C537.843313,536.168659 540.733175,556.276671 542.901431,575.648074 C545.069688,595.015936 560.250916,609.170872 560.972523,628.538734 C561.69413,647.910137 547.962986,671 547.962986,671 C547.962986,671 540.733175,650.141213 515.435709,633.007968 C490.134806,615.874723 485.80173,586.82116 490.859849,572.666224 C495.917968,558.51483 505.316035,545.850819 492.306498,510.093404 C488.691593,497.429394 493.749712,487 493.749712,487 Z M581.605355,286 C580.877434,325.164556 629,365.808014 629,391.669478 C629,417.530942 606.396294,453 606.396294,453 C573.58435,396.840366 564.104035,408.664556 548.06549,380.586496 C532.023479,352.504922 547.07413,332.007552 556.086495,321.47257 C565.563345,310.386075 581.605355,286 581.605355,286 Z M574,212.782818 C606.639569,200.909442 622.038715,192 622.038715,192 C680.152734,205.101291 677.718386,263.99888 655.236874,298.881553 C632.751914,333.767753 643.630621,359 643.630621,359 C643.630621,359 621.145661,345.641129 609.539408,321.149866 C597.933155,296.658603 596.48496,282.551691 591.405931,255.83395 C586.330351,229.112679 574,212.782818 574,212.782818 Z M610.641949,469 C679.7981,499.083102 671.789926,554.850559 669.609654,576.865222 C667.422461,598.876397 676.88761,617.221368 680.528318,626.029326 C684.169026,634.830308 682.71205,661.979749 682.71205,661.979749 C679.7981,656.844971 664.511971,648.773044 654.320064,639.968574 C644.128158,631.160616 644.128158,623.824721 644.128158,623.824721 C638.303717,632.629191 640.48745,628.226956 625.928078,648.773044 C611.368707,669.319133 628.111811,695 628.111811,695 C576.425523,662.715781 574.968547,618.689943 577.882498,601.077514 C580.792988,583.465086 595.359281,574.367599 607.727999,548.247206 C623.017588,515.962987 610.641949,469 610.641949,469 Z M650.419243,379.290167 C659.048497,379.290167 664.802474,386.636217 664.802474,386.636217 C664.802474,386.636217 666.241823,377.08705 661.205811,361.661742 C656.173219,346.239925 658.330533,332.284525 668.399136,310.990058 C678.46774,289.688608 682.060984,275 682.060984,275 C682.060984,275 704.355505,311.719775 710.109481,344.036808 C715.863457,376.35035 707.952167,392.508867 693.568936,419.682967 C679.185705,446.860558 631,452 631,452 C631,452 637.471941,442.450833 648.261929,417.47985 C659.048497,392.508867 650.419243,379.290167 650.419243,379.290167 Z M646,465.885601 C700.525728,458.45539 712.885262,428 712.885262,428 C712.885262,428 721.608825,433.198323 741.240299,470.345846 C760.868317,507.486307 732.516736,559.48719 722.338093,581.77076 C712.15945,604.057862 721.608825,636 721.608825,636 C700.525728,622.629858 693.983055,601.825973 690.350541,586.969083 C686.714571,572.112192 693.983055,563.202295 687.440383,525.313163 C680.89771,487.431094 646,465.885601 646,465.885601 Z M756.106514,453.250799 L724,406.24352 C724,406.24352 732.027496,386.411287 732.756007,363.646119 C733.484518,340.873968 724,318.1088 724,318.1088 C724,318.1088 753.917513,315.905606 769.243993,331.32796 C784.567005,346.753806 794.464345,361.610522 799.890017,381.271667 C807.189002,407.713479 799.890017,444.438025 805,465 C805,465 771.429526,437.091719 761.945008,394.494319 C761.945008,394.494319 762.676988,406.24352 760.484518,420.93264 C758.295516,435.62176 756.106514,453.250799 756.106514,453.250799 Z M671,200 C706.557278,213.92081 746.468228,215.387075 746.468228,215.387075 C746.468228,215.387075 775.322509,233.132016 782.753418,241.027557 C810.331266,270.331961 800.171551,337 800.171551,337 C800.171551,337 772.504007,303.286353 752.277722,300.367755 C701.479146,293.043395 687.690221,252.019321 687.690221,252.019321 C693.496266,225.640482 671,200 671,200 Z M889.740772,179 C889.740772,179 888.296141,212.931239 910,231.373197 C910,231.373197 878.888842,223.995011 876.718456,221.782257 C876.718456,221.782257 896.25193,252.764325 883.95193,287.435487 C870.96745,324.038863 901.318456,373 901.318456,373 C901.318456,373 831.859228,340.541593 824.622315,311.775785 C817.388842,283.006471 831.133473,254.97708 787,217.356748 C787,217.356748 838.370386,209.242146 889.740772,179 Z M816,339 C816,339 828.293796,361.03807 853.105283,371.779106 C882.360719,384.443116 876.139189,415.568393 873.801875,424.666224 C865.952028,455.210713 831.696301,479.05135 848.111776,523 C848.111776,523 824.562236,507.35768 822.421677,484.264276 C815.148526,405.815405 829.559135,382.952191 816,339 Z M812.473805,522.808834 C813.040998,526.967987 813.130918,530.803962 812.833488,534.369453 C812.612145,540.885694 811.197622,554.705042 803.744577,567.143861 C793.559324,584.138779 783.374072,584.879979 783.374072,605.570361 C783.374072,605.570361 772.078644,594.090537 769.844459,584.76757 C756.031251,596.240369 746.997675,610 746.997675,610 C740.450754,590.792019 752.092031,565.664973 752.092031,565.664973 C781.191765,528.720873 773.188819,460 773.188819,460 C773.188819,460 807.625002,487.340109 812.473805,522.808834 Z M612,110.598882 C612,110.598882 611.647932,153.077027 611.647932,157.399526 C611.647932,161.72907 614.105508,169.592001 580.407031,181.38992 C546.708555,193.187839 451.498191,210.636359 376.110665,173.720744 C297.792685,135.367819 315.782694,66 315.782694,66 C315.782694,66 333.413732,114.593758 389.748141,137.407531 C457.538582,164.867901 508.799063,124.760612 548.814062,110.598882 C588.832513,96.4406746 612,110.598882 612,110.598882 Z M613,96.651291 C613,96.651291 596.637774,83.6807195 556.492317,88.3769005 C522.801715,92.3160851 478.812433,131 434.147886,131 C408.792496,131 382,114.763129 382,114.763129 C466.238626,108.672113 468.243648,63 554.539239,63 C595.415369,63 613,96.651291 613,96.651291 Z M628,110.598882 C628,110.598882 651.167432,96.4406746 691.185789,110.598882 C731.200694,124.760612 782.461053,164.867901 850.251335,137.407531 C906.589063,114.593758 924.216607,66 924.216607,66 C924.216607,66 942.210025,135.367819 863.888779,173.720744 C788.50143,210.636359 693.291291,193.187839 659.592894,181.38992 C625.894497,169.592001 628.352068,161.72907 628.352068,157.399526 C628.352068,153.077027 628,110.598882 628,110.598882 Z M628,96.651291 C628,96.651291 645.584631,63 686.460761,63 C772.756352,63 774.761374,108.672113 859,114.763129 C859,114.763129 832.207504,131 806.852114,131 C762.187567,131 718.198285,92.3160851 684.511146,88.3769005 C644.362226,83.6807195 628,96.651291 628,96.651291 Z" id="logo"></path>
            </g>
        </g>
    </g>
</svg>