<svg width="40" height="40" viewBox="0 0 40 40" fill="none" xmlns="http://www.w3.org/2000/svg">
<g clip-path="url(#clip0_251_206)">
<path d="M33.8398 12.5475L31.9618 10.2691C31.7039 9.9563 31.547 9.57789 31.5086 9.17475L31.2254 6.23561C31.0783 4.70852 29.8631 3.49332 28.336 3.34622L25.3969 3.06333C24.9937 3.02457 24.6153 2.86771 24.3025 2.61014L22.0241 0.731793C20.8403 -0.24385 19.1219 -0.24385 17.9381 0.731793L15.6597 2.61014C15.3472 2.86771 14.9688 3.02457 14.5653 3.06333L11.6262 3.34622C10.0991 3.49332 8.88419 4.70852 8.73679 6.23561L8.45389 9.17475C8.41513 9.57789 8.25827 9.9563 8.00071 10.2691L6.12236 12.5475C5.14671 13.7313 5.14671 15.4497 6.12236 16.6335L8.00071 18.912C8.25827 19.2248 8.41513 19.6032 8.45389 20.0063L8.73679 22.9454C8.88388 24.4725 10.0991 25.6874 11.6262 25.8348L13.4227 26.0079L9.15426 36.2077C9.0386 36.4854 9.09079 36.7979 9.29068 37.0231C9.49057 37.2481 9.79422 37.3372 10.0829 37.2551L13.7862 36.2095C13.8024 36.205 13.8179 36.212 13.8253 36.2251L15.6798 39.5973C15.8177 39.8484 16.0756 39.9998 16.3594 39.9998C16.3729 39.9998 16.3863 39.9995 16.4 39.9989C16.7 39.9836 16.9594 39.8024 17.0781 39.5228L21.5846 28.7532C21.7375 28.6653 21.8846 28.5643 22.0244 28.4493L24.3028 26.5712C24.5912 26.3332 24.9364 26.1827 25.3047 26.1302L29.3864 35.8833L26.4979 35.0679C25.9486 34.9132 25.3734 35.1539 25.0978 35.6535L23.6516 38.2832L21.7354 33.7041C21.6087 33.4016 21.2614 33.2594 20.959 33.3858C20.6569 33.5121 20.5144 33.8597 20.641 34.1618L22.8856 39.5259C23.0031 39.8024 23.2622 39.9836 23.5625 39.9989C23.5762 39.9995 23.5896 40.0001 23.6031 40.0001C23.8869 40.0001 24.1447 39.8484 24.2827 39.5973L26.1369 36.2257C26.1445 36.212 26.1604 36.2056 26.176 36.2095L29.8787 37.2551C30.168 37.3369 30.4719 37.2481 30.6715 37.0231C30.8714 36.7979 30.9236 36.4857 30.8076 36.2071L26.5394 26.0076L28.336 25.8345C29.8631 25.6874 31.0783 24.4725 31.2254 22.9454L31.5086 20.006C31.547 19.6029 31.7039 19.2248 31.9618 18.912L33.8398 16.6335C34.8158 15.4497 34.8158 13.7313 33.8398 12.5475ZM16.3109 38.2832L14.8644 35.6529C14.5891 35.1536 14.0133 34.9129 13.4642 35.0679L10.5761 35.883L14.6575 26.1302C15.0261 26.1827 15.3713 26.3332 15.6597 26.5709L17.9381 28.4493C18.5301 28.9372 19.2555 29.1811 19.9812 29.1811C20.0279 29.1811 20.0743 29.1799 20.121 29.1777L16.3109 38.2832ZM32.9246 15.8791L31.0466 18.1576C30.6376 18.6532 30.3892 19.2531 30.3276 19.8925L30.0447 22.8316C29.9519 23.7947 29.1856 24.561 28.2225 24.6538L25.6407 24.9025C25.6306 24.9031 25.6203 24.9041 25.6102 24.9056L25.2833 24.937C24.6437 24.9987 24.0437 25.2471 23.5481 25.6557L21.2697 27.5337C20.5232 28.1493 19.4393 28.1493 18.6928 27.5337L16.4144 25.6557C15.9188 25.2471 15.3188 24.9984 14.6791 24.937L14.3508 24.9053C14.3416 24.9041 14.3328 24.9034 14.3236 24.9028L11.74 24.6538C10.7769 24.561 10.0106 23.7947 9.91781 22.8316L9.63491 19.8928C9.57327 19.2531 9.32486 18.6532 8.91592 18.1576L7.03788 15.8791C6.42234 15.1324 6.42234 14.0484 7.03788 13.3019L8.91592 11.0235C9.32486 10.5279 9.57327 9.92792 9.63491 9.28827L9.91781 6.34914C10.0106 5.38601 10.7769 4.61972 11.74 4.52694L14.6791 4.24405C15.3188 4.1824 15.9188 3.93399 16.4144 3.52536L18.6928 1.64732C19.066 1.3397 19.5238 1.18559 19.9812 1.18559C20.4387 1.18559 20.8965 1.3394 21.2697 1.64732L23.5481 3.52536C24.0437 3.93399 24.6437 4.18271 25.2833 4.24405L28.2225 4.52694C29.1856 4.61972 29.9519 5.38601 30.0447 6.34914L30.3276 9.28827C30.3892 9.92792 30.6376 10.5279 31.0466 11.0235L32.9246 13.3019C33.5398 14.0487 33.5398 15.1324 32.9246 15.8791Z" fill="#F68E5F"/>
<path d="M19.9809 5.32471C19.5847 5.32471 19.1862 5.34973 18.7956 5.39978C18.4709 5.44128 18.2411 5.73852 18.2826 6.06323C18.3241 6.38824 18.6216 6.61773 18.946 6.57653C19.2866 6.53289 19.6348 6.51092 19.9809 6.51092C24.4361 6.51092 28.0607 10.1355 28.0607 14.5907C28.0607 19.046 24.4358 22.6702 19.9809 22.6702C15.5256 22.6702 11.9011 19.0456 11.9011 14.5904C11.9011 11.4126 13.7748 8.51805 16.6746 7.21587C16.9734 7.0819 17.107 6.73065 16.9728 6.43188C16.8385 6.13281 16.4872 5.99945 16.1888 6.13372C12.8633 7.62694 10.7148 10.9463 10.7148 14.5904C10.7148 19.6999 14.8716 23.8564 19.9809 23.8564C25.0901 23.8564 29.2469 19.6999 29.2469 14.5904C29.2469 9.48118 25.0901 5.32471 19.9809 5.32471Z" fill="#F68E5F"/>
<path d="M14.0889 13.9034C13.3818 14.6105 13.3818 15.7613 14.0889 16.4684L16.6796 19.0594C17.0223 19.4018 17.4776 19.5904 17.9622 19.5904C18.4465 19.5904 18.9021 19.4018 19.2449 19.0594L24.9001 13.4039C25.6072 12.6965 25.6072 11.5459 24.9001 10.8385C24.193 10.1315 23.0422 10.1315 22.3348 10.8385L17.9622 15.2114L16.6539 13.9034C15.9468 13.1963 14.796 13.1963 14.0889 13.9034ZM17.9622 16.6436C18.1194 16.6436 18.2701 16.581 18.3815 16.4697L23.1737 11.6775C23.4184 11.4327 23.8164 11.433 24.0611 11.6775C24.3059 11.9222 24.3059 12.3205 24.0611 12.5649L18.4059 18.2204C18.2875 18.3389 18.1297 18.4042 17.9622 18.4042C17.7944 18.4042 17.6369 18.3389 17.5185 18.2204L14.9275 15.6298C14.6831 15.3851 14.6831 14.9868 14.9275 14.7424C15.0499 14.62 15.2107 14.5586 15.3716 14.5586C15.5321 14.5586 15.6929 14.62 15.815 14.7421L17.5426 16.4697C17.654 16.581 17.8047 16.6436 17.9622 16.6436Z" fill="#F68E5F"/>
</g>
<defs>
<clipPath id="clip0_251_206">
<rect width="40" height="40" fill="white"/>
</clipPath>
</defs>
</svg>
