<svg width="40" height="40" viewBox="0 0 40 40" fill="none" xmlns="http://www.w3.org/2000/svg">
<path d="M37.1998 22.417L36.164 18.2736C36.4472 18.2135 36.6597 17.9622 36.6597 17.6612V16.9932C36.6597 15.5427 35.4796 14.3627 34.0292 14.3627H29.3111V12.9848C29.3111 12.2711 28.7305 11.6904 28.0167 11.6904H19.2438L24.575 9.55793C24.8962 9.42949 25.0523 9.06496 24.9239 8.74379C24.7955 8.4227 24.4312 8.26637 24.1098 8.39488L19.7446 10.1409C21.0748 9.28746 22.3908 8.34817 22.8918 7.69129C23.8672 6.41246 23.6202 4.57856 22.3413 3.60317C21.0625 2.6277 19.2286 2.87481 18.2532 4.15363C17.5405 5.08817 16.6002 7.71403 15.9916 9.56442C15.383 7.71418 14.4427 5.08817 13.7301 4.15363C12.7548 2.87481 10.9208 2.62785 9.64195 3.60317C8.36312 4.57848 8.11617 6.41238 9.09148 7.69129C9.5925 8.34824 10.9084 9.28746 12.2387 10.1409L7.87352 8.39488C7.55219 8.26621 7.18781 8.42262 7.05937 8.74379C6.93086 9.06496 7.08711 9.42949 7.40828 9.55793L12.7395 11.6904H3.96656C3.25281 11.6904 2.67219 12.2711 2.67219 12.9848V24.3418C2.67219 24.6877 2.95258 24.9682 3.29852 24.9682C3.64438 24.9682 3.92484 24.6878 3.92484 24.3418V12.9848C3.92484 12.9618 3.94352 12.9431 3.96656 12.9431H28.0166C28.0397 12.9431 28.0584 12.9618 28.0584 12.9848V24.342C28.0584 24.6879 28.3388 24.9683 28.6847 24.9683C29.0305 24.9683 29.311 24.6879 29.311 24.342V23.632H36.699C36.6997 23.632 36.7002 23.6322 36.7009 23.6322C36.7016 23.6322 36.7023 23.6321 36.703 23.6321C37.612 23.6328 38.3839 24.2295 38.6489 25.0517H36.7014C36.3555 25.0517 36.0751 25.3321 36.0751 25.678V27.0141C36.0751 28.0962 36.9554 28.9765 38.0375 28.9765H38.7473V31.7322H37.1097C36.5717 30.1789 35.0951 29.06 33.3611 29.06C31.6271 29.06 30.1504 30.1789 29.6125 31.7322H29.3109V27.014C29.3109 26.6682 29.0305 26.3877 28.6846 26.3877C28.3387 26.3877 28.0583 26.6681 28.0583 27.014V31.7321H15.0638C14.5259 30.1789 13.0492 29.0599 11.3152 29.0599C9.58125 29.0599 8.10453 30.1788 7.56664 31.7321H3.96656C3.94352 31.7321 3.92484 31.7135 3.92484 31.6904V30.3125H6.63883C6.98469 30.3125 7.26516 30.0322 7.26516 29.6862C7.26516 29.3403 6.98477 29.0599 6.63883 29.0599H0.626328C0.280469 29.0599 0 29.3403 0 29.6862C0 30.0322 0.280391 30.3125 0.626328 30.3125H2.67227V31.6904C2.67227 32.4042 3.25289 32.9848 3.96664 32.9848H7.34977C7.34961 32.9987 7.34867 33.0125 7.34867 33.0265C7.34867 35.2136 9.12813 36.9931 11.3152 36.9931C13.5023 36.9931 15.2818 35.2136 15.2818 33.0265C15.2818 33.0125 15.2809 32.9987 15.2807 32.9848H29.3955C29.3954 32.9987 29.3945 33.0125 29.3945 33.0265C29.3945 35.2136 31.1739 36.9931 33.361 36.9931C35.5481 36.9931 37.3276 35.2136 37.3276 33.0265C37.3276 33.0125 37.3266 32.9987 37.3265 32.9848H39.3736C39.7195 32.9848 39.9999 32.7044 39.9999 32.3585V25.6779C40 24.0284 38.783 22.6579 37.1998 22.417ZM13.5078 9.4577C11.0373 7.92246 10.3045 7.21613 10.0875 6.9316C9.53102 6.20199 9.67195 5.15567 10.4016 4.59918C10.7024 4.36981 11.057 4.25895 11.4089 4.25895C11.9106 4.25895 12.407 4.48442 12.7341 4.91332C13.34 5.7077 14.2888 8.38137 14.9152 10.308C14.4925 10.0591 14.0066 9.76777 13.5078 9.4577ZM17.0682 10.3079C17.6946 8.38137 18.6434 5.70777 19.2492 4.91324C19.8057 4.18363 20.852 4.04277 21.5816 4.59918C22.3113 5.15567 22.4522 6.20199 21.8958 6.9316C21.6788 7.21606 20.946 7.92246 18.4756 9.45762C17.977 9.76762 17.491 10.059 17.0682 10.3079ZM29.3111 15.6152H34.0292C34.789 15.6152 35.4071 16.2333 35.4071 16.9931V17.0348H29.3111V15.6152ZM29.3111 22.3793V18.2875H34.8763L35.8993 22.3793H29.3111ZM11.3152 35.7405C9.81875 35.7405 8.60125 34.523 8.60125 33.0265C8.60125 31.53 9.81875 30.3125 11.3152 30.3125C12.8117 30.3125 14.0292 31.53 14.0292 33.0265C14.0292 34.523 12.8117 35.7405 11.3152 35.7405ZM33.3612 35.7405C31.8647 35.7405 30.6472 34.523 30.6472 33.0265C30.6472 31.53 31.8647 30.3125 33.3612 30.3125C34.8577 30.3125 36.0752 31.53 36.0752 33.0265C36.0752 34.523 34.8577 35.7405 33.3612 35.7405ZM38.7474 27.7238H38.0376C37.6462 27.7238 37.3277 27.4054 37.3277 27.0139V26.3041H38.7473V27.7238H38.7474Z" fill="#F68E5F"/>
<path d="M11.3139 31.7322C10.6002 31.7322 10.0195 32.3128 10.0195 33.0266C10.0195 33.7403 10.6002 34.3209 11.3139 34.3209C12.0277 34.3209 12.6083 33.7403 12.6083 33.0266C12.6083 32.3128 12.0277 31.7322 11.3139 31.7322Z" fill="#F68E5F"/>
<path d="M33.3608 31.7322C32.647 31.7322 32.0664 32.3128 32.0664 33.0266C32.0664 33.7403 32.647 34.3209 33.3608 34.3209C34.0745 34.3209 34.6552 33.7403 34.6552 33.0266C34.6552 32.3128 34.0745 31.7322 33.3608 31.7322Z" fill="#F68E5F"/>
<path d="M26.0143 29.0599H16.6615C16.3156 29.0599 16.0352 29.3403 16.0352 29.6862C16.0352 30.0321 16.3155 30.3125 16.6615 30.3125H26.0143C26.3601 30.3125 26.6406 30.0321 26.6406 29.6862C26.6406 29.3403 26.3602 29.0599 26.0143 29.0599Z" fill="#F68E5F"/>
<path d="M9.98288 26.3878H1.96617C1.62031 26.3878 1.33984 26.6681 1.33984 27.0141C1.33984 27.36 1.62023 27.6404 1.96617 27.6404H9.98288C10.3287 27.6404 10.6092 27.36 10.6092 27.0141C10.6092 26.6681 10.3287 26.3878 9.98288 26.3878Z" fill="#F68E5F"/>
<path d="M9.97828 17.0348H7.30602C6.96016 17.0348 6.67969 17.3152 6.67969 17.6611V23.0056C6.67969 23.3514 6.96008 23.6319 7.30602 23.6319C7.65195 23.6319 7.93234 23.3515 7.93234 23.0056V20.9596H9.31023C9.65609 20.9596 9.93656 20.6793 9.93656 20.3333C9.93656 19.9874 9.65617 19.707 9.31023 19.707H7.93234V18.2874H9.97828C10.3241 18.2874 10.6046 18.0071 10.6046 17.6611C10.6045 17.3153 10.3241 17.0348 9.97828 17.0348Z" fill="#F68E5F"/>
<path d="M14.9104 21.2533C15.5372 20.8428 15.9523 20.1348 15.9523 19.3313C15.9523 18.0649 14.9222 17.0348 13.6559 17.0348H11.9857C11.6398 17.0348 11.3594 17.3152 11.3594 17.6611V23.0056C11.3594 23.3514 11.6398 23.6319 11.9857 23.6319C12.3316 23.6319 12.612 23.3515 12.612 23.0056V21.6277H13.6547L14.8048 23.3529C14.9255 23.5339 15.1241 23.6319 15.3265 23.6319C15.4459 23.6319 15.5666 23.5978 15.6733 23.5266C15.9612 23.3348 16.0389 22.9459 15.847 22.6582L14.9104 21.2533ZM13.6559 20.3751H12.612V18.2874H13.6559C14.2315 18.2874 14.6997 18.7557 14.6997 19.3313C14.6997 19.9069 14.2315 20.3751 13.6559 20.3751Z" fill="#F68E5F"/>
<path d="M20.0017 22.3793H17.9558V20.9576C17.9696 20.9585 17.9834 20.9597 17.9975 20.9597H19.3336C19.6794 20.9597 19.9599 20.6793 19.9599 20.3334C19.9599 19.9875 19.6795 19.7071 19.3336 19.7071H17.9975C17.9834 19.7071 17.9696 19.7082 17.9558 19.7092V18.2874H20.0017C20.3476 18.2874 20.628 18.0071 20.628 17.6611C20.628 17.3153 20.3476 17.0348 20.0017 17.0348H17.3295C16.9836 17.0348 16.7031 17.3152 16.7031 17.6611V23.0056C16.7031 23.3514 16.9835 23.6319 17.3295 23.6319H20.0017C20.3476 23.6319 20.628 23.3515 20.628 23.0056C20.628 22.6596 20.3476 22.3793 20.0017 22.3793Z" fill="#F68E5F"/>
<path d="M24.6775 22.3793H22.6316V20.9597H23.3414C23.6873 20.9597 23.9677 20.6793 23.9677 20.3334C23.9677 19.9875 23.6873 19.7071 23.3414 19.7071H22.6316V18.2874H24.6775C25.0234 18.2874 25.3038 18.0071 25.3038 17.6611C25.3038 17.3153 25.0234 17.0348 24.6775 17.0348H22.0052C21.6594 17.0348 21.3789 17.3152 21.3789 17.6611V23.0056C21.3789 23.3514 21.6593 23.6319 22.0052 23.6319H24.6775C25.0234 23.6319 25.3038 23.3515 25.3038 23.0056C25.3038 22.6596 25.0234 22.3793 24.6775 22.3793Z" fill="#F68E5F"/>
</svg>
