<svg width="208" height="72" xmlns="http://www.w3.org/2000/svg"><g fill="none"><path d="M84.776 11.646c1.974 0 3.595.334 4.88 1.002 1.272.654 2.472 1.76 3.584 3.304v-3.739h9.105v23.843l.03 1.122a10.53 10.53 0 01-1.02 4.526c-.673 1.428-1.572 2.586-2.689 3.48-1.128.888-2.552 1.525-4.276 1.923-1.716.395-3.698.591-5.925.591-5.09 0-8.59-.756-10.489-2.283-1.894-1.522-2.847-3.561-2.847-6.108 0-.323.019-.755.052-1.288l9.43 1.083c.237.866.607 1.475 1.089 1.805.714.494 1.61.743 2.69.743 1.396 0 2.443-.376 3.125-1.117.69-.737 1.033-2.032 1.033-3.868v-3.81c-.948 1.098-1.9 1.91-2.86 2.405-1.494.78-3.107 1.165-4.832 1.165-3.402 0-6.128-1.472-8.216-4.42-1.475-2.088-2.213-4.856-2.213-8.288 0-3.934.95-6.924 2.864-8.984 1.906-2.054 4.392-3.087 7.485-3.087zM49.073 2.664V37.45h-9.73v-.44c-1.951.763-3.832 1.144-5.662 1.144-5.742 0-10.172-2.451-12.561-6.573l-9.483 6.718-2.416 1.677L.707 28.082l2.86-2.026 4.39 6.13 11.206-7.945-.007-.535c0-1.701.25-3.322.742-4.822h-5.955a3.07 3.07 0 01-1.505 1.82l1.888 2.765-7.26 4.88L0 17.94l7.261-4.88 1.81 2.666c.544-.445 1.216-.726 1.966-.726.2 0 .563.01.563.01h10.23c2.609-3.728 6.909-6.073 11.852-6.073 1.987 0 3.91.368 5.661 1.053V2.664h9.73zm113.808 8.982c2.909 0 5.251.155 7.02.489 1.765.33 3.228.998 4.415 2.025.823.718 1.477 1.725 1.954 3.027.482 1.308.72 2.56.72 3.75v11.14c0 1.185.072 2.116.222 2.791.151.667.477 1.528.99 2.582h-9.093c-.37-.653-.608-1.14-.719-1.49-.102-.327-.22-.865-.33-1.594-1.275 1.217-2.551 2.087-3.805 2.61-1.713.698-3.727 1.043-6.001 1.043-3.026 0-5.33-.698-6.898-2.098-1.566-1.394-2.353-3.113-2.353-5.165 0-1.92.566-3.5 1.7-4.742 1.123-1.237 3.211-2.156 6.266-2.761 3.647-.731 6.012-1.24 7.093-1.534a30.81 30.81 0 003.447-1.156c0-1.178-.241-2.006-.744-2.473-.49-.482-1.365-.713-2.607-.713-1.597 0-2.799.252-3.589.76-.632.397-1.125 1.14-1.516 2.237l-9.283-.954c.348-1.62.856-2.89 1.52-3.813.66-.934 1.608-1.736 2.855-2.421.897-.488 2.107-.865 3.68-1.14 1.56-.26 3.235-.4 5.056-.4zM139.1 2.665v9.548h5.303v7.083H139.1v8.964c0 1.071.096 1.78.306 2.131.316.543.871.808 1.666.808.721 0 1.718-.203 3.005-.614l.726 6.649c-2.409.526-4.655.785-6.74.785-2.415 0-4.193-.303-5.344-.93-1.144-.617-1.987-1.554-2.529-2.808-.559-1.265-.836-3.301-.836-6.116v-8.87h-3.577v-7.082h3.577V7.602l9.746-4.937zm-71.726 9.549v25.235H57.64V12.214h9.734zm127.051-9.55V37.45h-9.743V2.665h9.743zm-74.531 9.55v25.235h-9.733V12.214h9.733zM167.51 25.41a46.94 46.94 0 01-4.195 1.273c-1.978.52-3.23 1.043-3.755 1.561-.55.525-.827 1.13-.827 1.796 0 .775.276 1.404.808 1.897.534.486 1.32.736 2.362.736 1.086 0 2.09-.27 3.036-.807.925-.52 1.59-1.167 1.984-1.925.395-.765.587-1.754.587-2.971zM34.721 16.907c-3.79 0-6.189 2.59-6.189 6.737 0 4.204 2.351 6.809 6.189 6.809a9.3 9.3 0 004.621-1.235V18.036c-1.533-.746-3.106-1.129-4.621-1.129zm53.452 1.745c-1.234 0-2.222.452-2.955 1.354-.752.906-1.124 2.406-1.124 4.498 0 1.85.393 3.207 1.167 4.093.785.885 1.816 1.332 3.084 1.332 1.21 0 2.233-.458 3.048-1.378.817-.922 1.222-2.31 1.222-4.167 0-1.847-.426-3.273-1.283-4.25-.856-.982-1.915-1.482-3.16-1.482zm-77.136-2.35a1.74 1.74 0 00-1.229.509l1.904 2.798a1.71 1.71 0 001.056-1.577c0-.065-.016-.133-.02-.193a1.692 1.692 0 00-.347-.856 1.726 1.726 0 00-1.364-.681zm192.631-13.68c.726 0 1.438.192 2.132.573.693.38 1.233.924 1.62 1.633.388.71.58 1.448.58 2.218 0 .762-.19 1.494-.571 2.198a4.078 4.078 0 01-1.603 1.637 4.34 4.34 0 01-2.158.582 4.34 4.34 0 01-2.158-.582 4.092 4.092 0 01-1.606-1.637 4.546 4.546 0 01-.576-2.198c0-.77.195-1.508.584-2.218a4.011 4.011 0 011.624-1.633c.692-.381 1.403-.572 2.132-.572zm0 .74c-.607 0-1.202.16-1.777.476a3.397 3.397 0 00-1.35 1.362 3.787 3.787 0 00-.489 1.846c0 .637.16 1.246.48 1.828a3.429 3.429 0 001.34 1.364 3.609 3.609 0 001.796.488c.622 0 1.223-.164 1.796-.488a3.439 3.439 0 001.337-1.364 3.763 3.763 0 00.476-1.828c0-.638-.16-1.254-.486-1.846a3.367 3.367 0 00-1.35-1.362 3.655 3.655 0 00-1.773-.476zm-.296 1.374c.547 0 .943.044 1.188.132.245.089.44.24.585.459.145.218.218.45.218.696 0 .348-.123.65-.365.907-.243.257-.567.403-.969.431.163.072.296.155.394.253.19.189.42.502.69.942l.57.932h-.923l-.413-.75c-.327-.589-.586-.957-.786-1.106-.137-.11-.337-.162-.601-.158h-.442v2.014h-.749V4.736zm-83.48-2.071v6.558h-9.732V2.665h9.733zm-52.519 0v6.558H57.64V2.665h9.734zm136.002 2.723h-.857v1.424h.916c.436 0 .735-.067.892-.197a.649.649 0 00.241-.524.665.665 0 00-.116-.376.689.689 0 00-.32-.247c-.135-.054-.387-.08-.756-.08z" fill="#000"/><path d="M181.435 46.23l-.774 14.168 7.76-14.169h3.614L177.19 72h-3.652l3.858-6.625.58-19.146h3.459zm-13.605-.374c2.185 0 3.67.616 4.432 1.867.423.642.616 1.457.597 2.422.019.884-.15 1.9-.496 3.066l-1.421 4.87c-.786 2.676-1.77 4.554-2.954 5.655-1.169 1.098-2.811 1.638-4.915 1.638-2.188 0-3.67-.615-4.458-1.866-.394-.654-.596-1.451-.596-2.41-.018-.877.151-1.885.493-3.018l1.422-4.869c.783-2.71 1.777-4.61 2.954-5.709 1.196-1.103 2.842-1.646 4.942-1.646zm-51.797 0c2.025 0 3.37.616 4.044 1.862.338.613.507 1.358.523 2.261 0 .934-.185 2-.538 3.205l-1.041 3.51h-8.576l-.38 1.34c-.568 1.979-.77 3.304-.59 3.957.179.669.828 1 1.935 1a2.53 2.53 0 001.922-.835c.546-.572.983-1.445 1.31-2.624h3.328c-.461 2.19-1.217 3.714-2.263 4.568-1.017.852-2.608 1.274-4.786 1.274-2.134 0-3.59-.615-4.364-1.866-.365-.635-.556-1.423-.564-2.356.008-.885.181-1.913.513-3.072l1.42-4.869c.786-2.71 1.771-4.61 2.995-5.709 1.217-1.103 2.926-1.646 5.112-1.646zm31.552.374l-1.215 14.934 7.576-14.934h3.524l-9.809 18.76h-4.47l1.015-18.76h3.38zm-12.422-.374c1.699 0 2.803.516 3.335 1.576.515 1.054.46 2.638-.2 4.744l-3.959 12.813h-3.437l4.04-13.087c.376-1.23.486-2.143.304-2.754-.173-.616-.633-.924-1.362-.924-1.147 0-2.092.488-2.826 1.442-.73.954-1.397 2.55-1.983 4.794l-3.251 10.53h-3.586l5.794-18.76h3.4l-.513 1.658c1.242-1.36 2.652-2.032 4.244-2.032zm32.089 2.369c-.867 0-1.592.383-2.165 1.134-.569.747-1.094 2.03-1.59 3.83l-1.425 4.868c-.56 1.907-.742 3.21-.552 3.897.2.696.9 1.037 2.12 1.037.878 0 1.609-.365 2.163-1.112.562-.74 1.097-2.017 1.585-3.822l1.416-4.868c.564-1.915.753-3.222.564-3.91-.196-.698-.901-1.054-2.116-1.054zm-51.765 0c-.927 0-1.705.376-2.323 1.114-.59.75-1.146 2.01-1.678 3.797l-.34 1.175h5.082l.347-1.175c.577-1.961.783-3.27.651-3.917-.14-.662-.72-.994-1.74-.994zM24.483 0c2.664 0 4.823 2.153 4.823 4.802 0 2.643-2.16 4.802-4.823 4.802-2.66 0-4.828-2.159-4.828-4.802C19.655 2.153 21.822 0 24.483 0z" fill="#CECCCC"/></g></svg>