<?xml version="1.0" encoding="utf-8"?>
<!-- Generator: Adobe Illustrator 17.0.0, SVG Export Plug-In . SVG Version: 6.00 Build 0)  -->
<!DOCTYPE svg PUBLIC "-//W3C//DTD SVG 1.1//EN" "http://www.w3.org/Graphics/SVG/1.1/DTD/svg11.dtd">
<svg version="1.1" id="svg" xmlns="http://www.w3.org/2000/svg" xmlns:xlink="http://www.w3.org/1999/xlink" x="0px" y="0px"
	 width="400px" height="978.279px" viewBox="0 0 400 978.279" enable-background="new 0 0 400 978.279" xml:space="preserve">
<g id="svgg">
	<path id="path0" fill="none" d="M0,0"/>
	<path id="path1" fill="none" d="M0,0"/>
	<path id="path2" fill="#D8D8D8" d="M368.201,0.273c-0.866,0.285-1.918,0.737-4.603,1.974c-1.265,0.584-2.819,1.185-3.452,1.335
		c-0.632,0.151-1.15,0.442-1.15,0.647c0,0.206-0.377,0.374-0.837,0.374c-0.46,0-0.837,0.149-0.837,0.331
		c0,0.183-1.035,0.684-2.301,1.114c-1.266,0.43-2.301,0.94-2.301,1.133c0,0.193-0.377,0.35-0.837,0.35
		c-0.46,0-0.837,0.189-0.837,0.419c0,0.23-0.187,0.418-0.416,0.418c-0.692,0-3.768,1.431-3.768,1.754
		c0,0.165-0.659,0.424-1.465,0.575c-0.805,0.151-1.464,0.442-1.464,0.647c0,0.204-0.282,0.371-0.628,0.371
		c-0.345,0-0.627,0.189-0.627,0.419c0,0.23-0.301,0.418-0.668,0.418c-0.637,0-3.076,1.189-3.516,1.714
		c-0.115,0.137-0.772,0.388-1.461,0.556c-0.688,0.169-1.347,0.435-1.464,0.592c-0.117,0.157-1.343,0.84-2.724,1.518
		c-1.381,0.678-2.604,1.335-2.719,1.46c-0.116,0.125-1.151,0.715-2.302,1.312c-5.029,2.608-6.708,3.512-6.903,3.717
		c-0.116,0.12-0.963,0.594-1.883,1.052c-0.921,0.458-1.768,0.929-1.883,1.046c-0.115,0.117-1.057,0.629-2.092,1.136
		c-2.021,0.991-4.95,2.636-5.643,3.17c-1.075,0.828-6.074,3.648-6.468,3.648c-0.243,0-0.442,0.188-0.442,0.418
		s-0.282,0.419-0.627,0.419c-0.345,0-0.628,0.175-0.628,0.39c0,0.214-0.418,0.523-0.93,0.685c-0.81,0.257-5.185,2.936-5.764,3.53
		c-0.115,0.118-0.916,0.585-1.779,1.038s-1.569,0.969-1.569,1.146c0,0.178-0.282,0.324-0.627,0.324c-0.345,0-0.628,0.184-0.628,0.41
		c0,0.226-0.457,0.525-1.015,0.665s-1.341,0.615-1.739,1.054c-0.397,0.44-0.86,0.799-1.029,0.799c-0.427,0-5.6,3.458-5.771,3.857
		c-0.076,0.18-0.303,0.328-0.504,0.328c-0.316,0-3.182,1.877-6.132,4.018c-1.489,1.081-6.127,4.305-7.007,4.872
		c-0.447,0.288-1.256,0.947-1.798,1.465c-0.541,0.518-1.119,0.942-1.283,0.942c-0.165,0-0.807,0.47-1.428,1.046
		c-0.62,0.575-1.243,1.046-1.383,1.046c-0.294,0-2.938,1.938-4.174,3.061c-0.461,0.418-1.449,1.139-2.197,1.603
		c-0.748,0.464-1.36,1.016-1.36,1.228c0,0.211-0.237,0.384-0.527,0.384c-0.29,0-0.996,0.423-1.569,0.941
		c-0.573,0.518-1.795,1.503-2.716,2.19c-2.086,1.556-3.072,2.342-3.947,3.145c-0.375,0.345-1.423,1.186-2.328,1.868
		c-0.904,0.682-1.953,1.529-2.329,1.883c-0.376,0.353-1.042,0.925-1.479,1.271c-1.428,1.129-5.393,4.387-5.607,4.607
		c-0.115,0.118-1.239,1.06-2.497,2.092c-2.143,1.759-3.099,2.595-7.938,6.938c-1.049,0.942-2.455,2.166-3.123,2.719
		c-0.669,0.554-2.724,2.468-4.569,4.253c-1.844,1.786-4.58,4.328-6.08,5.649c-3.007,2.649-20.877,20.611-22.164,22.278
		c-0.445,0.577-2.196,2.496-3.892,4.264c-1.697,1.769-3.555,3.765-4.13,4.436c-1.839,2.143-5.583,6.374-7.741,8.745
		c-1.151,1.265-2.265,2.611-2.477,2.992c-0.212,0.38-0.686,0.974-1.054,1.319c-0.367,0.345-1.512,1.658-2.543,2.917
		c-1.032,1.259-2.158,2.59-2.503,2.958c-0.346,0.368-1.193,1.395-1.883,2.283c-0.691,0.887-1.491,1.849-1.778,2.137
		c-0.288,0.288-0.523,0.657-0.523,0.819c0,0.163-0.471,0.732-1.046,1.266c-0.576,0.533-1.046,1.121-1.046,1.307
		c0,0.186-0.433,0.807-0.962,1.38c-0.528,0.573-1.986,2.36-3.24,3.97c-1.253,1.611-2.61,3.294-3.014,3.74
		c-0.404,0.447-0.734,0.935-0.734,1.086c0,0.151-0.471,0.821-1.046,1.49c-0.575,0.669-1.046,1.344-1.046,1.5
		c0,0.156-0.242,0.532-0.537,0.837c-0.295,0.304-2.031,2.624-3.857,5.155s-3.434,4.697-3.574,4.812
		c-0.14,0.115-0.61,0.821-1.045,1.569c-0.435,0.748-0.939,1.36-1.119,1.36c-0.181,0-0.329,0.196-0.329,0.436
		c0,0.24-0.753,1.456-1.673,2.702c-0.921,1.246-1.674,2.446-1.674,2.667c0,0.22-0.141,0.464-0.314,0.54
		c-0.172,0.077-0.878,0.987-1.568,2.023c-0.689,1.035-1.35,1.977-1.468,2.092c-0.551,0.538-2.508,3.795-2.508,4.175
		c0,0.235-0.184,0.427-0.41,0.427c-0.226,0-0.529,0.471-0.673,1.046c-0.144,0.576-0.43,1.046-0.636,1.046
		c-0.205,0-0.373,0.283-0.373,0.628s-0.175,0.628-0.39,0.628c-0.214,0-0.522,0.423-0.684,0.941
		c-0.161,0.518-0.429,1.036-0.595,1.151c-0.491,0.34-4.607,7.065-4.607,7.526c0,0.233-0.166,0.423-0.369,0.423
		c-0.204,0-0.481,0.33-0.616,0.733c-0.239,0.711-1.102,2.191-1.525,2.615c-0.115,0.115-0.506,0.774-0.867,1.464
		c-0.98,1.868-1.825,3.321-2.071,3.557c-0.119,0.115-0.446,0.68-0.724,1.255c-0.279,0.575-1.175,2.176-1.99,3.556
		c-0.816,1.381-1.708,3.029-1.982,3.661c-0.275,0.633-0.646,1.151-0.826,1.151s-0.327,0.377-0.327,0.837
		c0,0.46-0.141,0.838-0.314,0.839c-0.172,0.001-1.161,1.649-2.196,3.661c-1.036,2.012-2.024,3.722-2.197,3.798
		c-0.173,0.077-0.314,0.485-0.314,0.907s-0.157,0.83-0.35,0.906c-0.192,0.077-1.049,1.552-1.904,3.278
		c-0.854,1.726-1.921,3.794-2.369,4.596c-0.449,0.802-0.816,1.696-0.816,1.987c0,0.292-0.188,0.53-0.419,0.53
		c-0.23,0-0.418,0.377-0.418,0.837s-0.188,0.837-0.418,0.837c-0.23,0-0.422,0.235-0.425,0.523c-0.003,0.287-0.757,2.018-1.674,3.846
		c-0.917,1.827-1.667,3.569-1.667,3.87s-0.188,0.547-0.418,0.547c-0.231,0-0.419,0.377-0.419,0.837s-0.173,0.837-0.385,0.837
		c-0.212,0-0.518,0.612-0.68,1.36c-0.162,0.748-0.423,1.454-0.578,1.569c-0.462,0.341-1.704,3.209-1.704,3.933
		c0,0.368-0.188,0.669-0.419,0.669c-0.23,0-0.418,0.377-0.418,0.837c0,0.46-0.18,0.837-0.399,0.837c-0.22,0-0.523,0.659-0.675,1.464
		c-0.151,0.806-0.442,1.465-0.646,1.465c-0.205,0-0.372,0.253-0.372,0.563c0,0.525-0.792,2.452-1.701,4.138
		c-0.215,0.4-0.391,1.012-0.391,1.36s-0.188,0.633-0.418,0.633c-0.231,0-0.419,0.261-0.419,0.58s-0.281,1.119-0.625,1.778
		c-0.344,0.66-0.626,1.528-0.628,1.931c-0.001,0.403-0.143,0.732-0.316,0.732c-0.173,0-0.678,1.14-1.123,2.534
		c-0.446,1.393-0.963,2.628-1.151,2.744c-0.188,0.116-0.341,0.576-0.341,1.023c0,0.447-0.167,0.812-0.372,0.812
		c-0.204,0-0.504,0.706-0.665,1.569c-0.161,0.863-0.438,1.758-0.615,1.988c-0.177,0.23-0.651,1.36-1.053,2.51
		c-0.826,2.365-1.419,3.87-1.918,4.865c-0.187,0.374-0.469,1.363-0.625,2.197c-0.156,0.833-0.452,1.516-0.656,1.516
		c-0.205,0-0.372,0.341-0.372,0.758c0,0.417-0.382,1.548-0.848,2.513s-0.963,2.365-1.105,3.112c-0.141,0.746-0.384,1.545-0.54,1.776
		c-0.156,0.23-0.626,1.548-1.046,2.928c-0.794,2.614-1.346,4.134-1.914,5.274c-0.185,0.369-0.466,1.545-0.627,2.615
		c-0.16,1.069-0.458,1.944-0.662,1.944c-0.204,0-0.371,0.46-0.371,1.021c0,0.562-0.171,1.127-0.379,1.256
		c-0.209,0.129-0.509,1.176-0.667,2.326c-0.158,1.15-0.458,2.092-0.667,2.092s-0.379,0.553-0.379,1.23s-0.183,1.344-0.406,1.482
		c-0.224,0.138-0.531,1.189-0.683,2.335c-0.152,1.146-0.44,2.185-0.64,2.309c-0.2,0.123-0.363,0.673-0.363,1.221
		s-0.175,1.105-0.389,1.237c-0.214,0.132-0.518,1.273-0.676,2.535c-0.158,1.262-0.453,2.295-0.657,2.295
		c-0.204,0-0.37,0.473-0.37,1.052c0,0.578-0.166,1.378-0.369,1.778c-0.5,0.983-1.395,4.555-1.624,6.48
		c-0.103,0.863-0.336,1.569-0.518,1.569c-0.181,0-0.435,0.706-0.564,1.569c-0.494,3.32-1.29,7.017-1.554,7.217
		c-0.315,0.239-0.656,1.832-1.32,6.172c-0.255,1.668-0.622,3.033-0.814,3.033c-0.193,0-0.35,0.753-0.35,1.674
		c0,0.92-0.169,1.674-0.375,1.674s-0.508,1.507-0.671,3.349c-0.164,1.842-0.466,3.454-0.672,3.581
		c-0.206,0.128-0.374,0.963-0.374,1.856c0,0.894-0.172,1.73-0.381,1.86c-0.21,0.129-0.515,1.838-0.678,3.796
		c-0.163,1.959-0.462,3.664-0.665,3.789c-0.203,0.126-0.368,1.053-0.368,2.061c0,1.009-0.189,1.95-0.419,2.093
		c-0.23,0.142-0.418,1.107-0.418,2.144c0,1.037-0.183,2.227-0.407,2.645c-0.223,0.418-0.534,2.577-0.69,4.798
		c-0.156,2.222-0.444,4.138-0.64,4.259c-0.195,0.121-0.355,1.216-0.355,2.434c0,1.218-0.184,2.76-0.41,3.427
		c-0.225,0.667-0.608,3.378-0.851,6.025c-0.243,2.646-0.627,6.318-0.854,8.159c-0.688,5.601-1.141,11.516-1.188,15.502
		c-0.025,2.082-0.217,3.965-0.429,4.184c-1.357,1.403-1.352,76.36,0.005,77.782c0.209,0.219,0.399,2.102,0.424,4.184
		c0.047,3.983,0.499,9.892,1.188,15.503c0.226,1.841,0.601,5.303,0.834,7.695c0.232,2.391,0.513,4.437,0.623,4.547
		c0.183,0.183,8.027-0.6,15.721-1.571c5.421-0.684,10.159-1.233,12.761-1.479c7.13-0.676,8.986-1.277,7.77-2.519
		c-0.214-0.218-0.524-2.898-0.688-5.953c-0.163-3.056-0.459-5.656-0.656-5.778c-0.198-0.122-0.359-1.8-0.359-3.729
		c0-1.929-0.161-3.607-0.358-3.729c-0.197-0.121-0.489-3.569-0.648-7.66c-0.16-4.092-0.422-8.663-0.584-10.159
		c-0.382-3.547-0.381-52.946,0.001-56.486c0.162-1.495,0.421-5.92,0.577-9.832c0.155-3.912,0.432-7.302,0.614-7.534
		c0.182-0.231,0.43-2.02,0.551-3.975c0.357-5.744,1.323-15.218,1.622-15.897c0.152-0.345,0.373-1.757,0.491-3.138
		c0.438-5.135,1.301-11.451,1.604-11.753c0.173-0.171,0.314-1.21,0.314-2.309s0.168-2.101,0.374-2.229
		c0.205-0.127,0.508-1.926,0.672-3.999c0.164-2.073,0.467-3.769,0.672-3.769c0.206,0,0.374-0.941,0.374-2.092
		c0-1.15,0.172-2.092,0.381-2.092c0.21,0,0.514-1.6,0.677-3.556c0.163-1.956,0.462-3.557,0.665-3.557s0.369-0.753,0.369-1.673
		c0-0.921,0.164-1.674,0.364-1.674c0.2,0,0.484-0.8,0.629-1.778c0.357-2.396,1.314-7.069,1.607-7.845
		c0.479-1.274,1.584-6.64,1.584-7.696c0-0.6,0.189-1.091,0.419-1.091c0.23,0,0.418-0.659,0.418-1.465
		c0-0.805,0.179-1.464,0.398-1.464c0.218,0,0.525-1.13,0.681-2.51c0.157-1.381,0.448-2.511,0.649-2.511
		c0.2,0,0.364-0.554,0.364-1.23c0-0.677,0.166-1.334,0.37-1.459c0.203-0.126,0.499-1.267,0.657-2.535
		c0.159-1.269,0.463-2.307,0.677-2.307c0.214,0,0.388-0.659,0.388-1.465c0-0.805,0.171-1.464,0.379-1.464
		c0.209,0,0.509-0.941,0.667-2.092c0.158-1.15,0.459-2.197,0.667-2.326c0.209-0.129,0.379-0.788,0.379-1.465
		c0-0.676,0.189-1.23,0.419-1.23s0.418-0.304,0.418-0.676c0-0.633,0.974-3.931,1.717-5.809c0.181-0.461,0.646-1.967,1.032-3.348
		c0.702-2.508,1.231-4,1.874-5.283c0.187-0.374,0.469-1.365,0.626-2.201c0.157-0.837,0.452-1.624,0.656-1.75
		c0.204-0.126,0.371-0.573,0.371-0.994c0-0.42,0.282-1.303,0.625-1.962c0.344-0.66,0.627-1.607,0.628-2.105
		c0.001-0.499,0.144-0.97,0.316-1.046c0.404-0.18,1.783-4.097,1.781-5.056c-0.002-0.403,0.186-0.732,0.416-0.732
		c0.23,0,0.418-0.261,0.418-0.58s0.282-1.119,0.625-1.778c0.344-0.66,0.627-1.623,0.628-2.14c0.001-0.518,0.191-0.942,0.421-0.942
		c0.23,0,0.418-0.376,0.418-0.837c0-0.46,0.189-0.836,0.419-0.836s0.418-0.355,0.418-0.789c0-0.434,0.282-1.329,0.625-1.988
		c0.344-0.659,0.626-1.528,0.628-1.931c0.001-0.402,0.191-0.732,0.421-0.732c0.23,0,0.418-0.261,0.418-0.58
		c0-0.318,0.282-1.119,0.625-1.778c0.344-0.659,0.627-1.528,0.628-1.93c0.001-0.403,0.191-0.733,0.421-0.733
		c0.23,0,0.418-0.261,0.418-0.579c0-0.319,0.282-1.12,0.625-1.779c0.344-0.659,0.627-1.528,0.628-1.93
		c0.001-0.403,0.191-0.733,0.421-0.733c0.23,0,0.418-0.376,0.418-0.836c0-0.461,0.172-0.837,0.382-0.837
		c0.21,0,0.509-0.753,0.664-1.674c0.156-0.92,0.409-1.674,0.563-1.674c0.153,0,0.537-0.611,0.852-1.359
		c0.315-0.748,0.831-1.907,1.148-2.575s0.576-1.468,0.576-1.778s0.188-0.564,0.418-0.564c0.23,0,0.418-0.197,0.418-0.437
		c0-0.241,1.244-3.018,2.764-6.172c1.52-3.153,3.262-6.769,3.87-8.035c0.609-1.266,1.211-2.395,1.338-2.51
		c0.372-0.338,1.652-3.223,1.652-3.725c0-0.253,0.141-0.463,0.314-0.466c0.172-0.004,0.878-1.181,1.569-2.616
		c0.69-1.434,1.359-2.702,1.486-2.817c0.127-0.115,0.578-0.962,1.003-1.883c0.425-0.92,0.886-1.768,1.024-1.883
		c0.525-0.436,1.717-2.876,1.717-3.516c0-0.367,0.188-0.668,0.418-0.668s0.419-0.282,0.419-0.627c0-0.345,0.169-0.628,0.377-0.628
		c0.208,0,0.582-0.518,0.831-1.151c0.482-1.222,1.876-3.8,2.433-4.497c0.183-0.231,0.71-1.172,1.17-2.093
		c0.461-0.92,0.957-1.767,1.103-1.882c0.147-0.115,0.787-1.151,1.424-2.302c0.636-1.15,1.269-2.186,1.407-2.301
		c0.138-0.115,0.546-0.774,0.908-1.465c1.101-2.099,1.827-3.286,2.376-3.883c0.287-0.313,0.523-0.838,0.523-1.167
		c0-0.329,0.158-0.598,0.352-0.598s0.712-0.706,1.151-1.569c0.439-0.863,0.911-1.663,1.049-1.778
		c0.139-0.115,0.773-1.042,1.411-2.059c0.637-1.018,1.327-2.053,1.533-2.302c0.206-0.248,2.163-3.155,4.348-6.459
		c3.481-5.262,4.563-6.833,5.95-8.636c0.176-0.23,0.681-0.979,1.121-1.663c0.44-0.685,1.143-1.612,1.561-2.061
		c0.419-0.449,0.87-1.16,1.003-1.58c0.134-0.42,0.418-0.763,0.633-0.763c0.214,0,0.39-0.197,0.39-0.437
		c0-0.24,0.471-0.944,1.046-1.565c0.575-0.62,1.046-1.279,1.046-1.464s0.471-0.844,1.046-1.464c0.575-0.621,1.046-1.263,1.046-1.428
		c0-0.164,0.424-0.76,0.941-1.324c1.011-1.1,1.152-1.277,3.047-3.816c0.683-0.916,1.556-2.046,1.939-2.511
		c2.489-3.018,3.588-4.391,4.324-5.407c0.46-0.635,1.177-1.563,1.593-2.062c2.165-2.599,3.481-4.154,3.951-4.668
		c0.288-0.315,0.523-0.671,0.523-0.792c0-0.12,0.622-0.839,1.382-1.598c0.76-0.759,1.782-1.906,2.271-2.548
		c1.209-1.591,5.019-5.957,6.807-7.803c0.806-0.832,1.998-2.166,2.65-2.965c4.83-5.921,28.353-29.463,36.991-37.021
		c0.975-0.853,2.519-2.238,3.431-3.076c3.17-2.915,6.518-5.853,7.765-6.815c0.69-0.532,1.461-1.16,1.713-1.395
		c0.252-0.235,1.26-1.086,2.24-1.891c0.98-0.806,2.225-1.888,2.766-2.406c0.541-0.518,1.167-0.942,1.391-0.942
		s0.75-0.424,1.169-0.943c0.42-0.519,1.328-1.307,2.018-1.751c0.691-0.443,1.495-1.045,1.789-1.338
		c0.293-0.292,1.423-1.246,2.51-2.12c1.088-0.873,2.04-1.729,2.117-1.902c0.077-0.173,0.406-0.314,0.732-0.314
		s0.593-0.141,0.594-0.314c0-0.172,0.941-0.955,2.092-1.739c1.15-0.784,2.091-1.584,2.091-1.778s0.202-0.353,0.448-0.353
		c0.247,0,0.711-0.235,1.032-0.523c0.968-0.869,1.505-1.272,5.424-4.076c2.071-1.482,3.828-2.842,3.905-3.023
		c0.076-0.18,0.361-0.328,0.632-0.328s0.961-0.433,1.534-0.963c0.573-0.529,1.371-1.088,1.774-1.242
		c0.403-0.153,0.732-0.473,0.732-0.71c0-0.238,0.201-0.432,0.447-0.432s2.037-1.13,3.98-2.51c1.943-1.381,3.703-2.511,3.911-2.511
		s0.442-0.142,0.518-0.316c0.077-0.173,1.458-1.158,3.069-2.187c1.611-1.03,3.023-1.984,3.138-2.122
		c0.115-0.137,0.868-0.612,1.673-1.055c0.806-0.443,1.559-0.908,1.674-1.033c0.115-0.126,1.527-1.049,3.138-2.051
		c1.611-1.003,2.992-1.983,3.068-2.178c0.077-0.195,0.501-0.355,0.942-0.355c0.441,0,0.802-0.168,0.802-0.373
		c0-0.205,0.471-0.491,1.046-0.636c0.575-0.144,1.046-0.447,1.046-0.673c0-0.225,0.282-0.41,0.628-0.41
		c0.345,0,0.627-0.188,0.627-0.418c0-0.231,0.269-0.419,0.598-0.419c0.329,0,0.846-0.248,1.15-0.552
		c0.305-0.303,1.354-0.904,2.332-1.335c0.978-0.432,1.778-0.936,1.778-1.122c0-0.186,0.282-0.338,0.627-0.338
		c0.346,0,0.63-0.141,0.632-0.314c0.002-0.173,0.85-0.685,1.883-1.14c1.033-0.454,1.881-0.925,1.883-1.046
		c0.002-0.121,0.849-0.591,1.883-1.046c1.033-0.454,1.878-0.93,1.878-1.057s0.846-0.602,1.879-1.056
		c1.034-0.455,1.881-0.968,1.883-1.14c0.002-0.173,0.287-0.314,0.632-0.314c0.345,0,0.627-0.188,0.627-0.419
		c0-0.23,0.301-0.418,0.668-0.418c0.602,0,2.996-1.143,3.517-1.68c0.115-0.118,1.007-0.589,1.982-1.046
		c0.976-0.457,1.776-0.972,1.778-1.144c0.003-0.173,0.192-0.314,0.421-0.314c0.714,0,3.768-1.436,3.768-1.772
		c0-0.176,0.301-0.32,0.668-0.32c0.738,0,3.227-1.284,3.447-1.778c0.076-0.173,0.5-0.314,0.941-0.314
		c0.441,0,0.802-0.173,0.802-0.385c0-0.212,0.565-0.51,1.255-0.661c0.691-0.152,1.256-0.449,1.256-0.661
		c0-0.212,0.376-0.385,0.836-0.385c0.461,0,0.837-0.188,0.837-0.419c0-0.23,0.276-0.418,0.614-0.418
		c0.656,0,3.641-1.291,3.989-1.726c0.115-0.143,0.821-0.394,1.569-0.556c0.748-0.162,1.36-0.468,1.36-0.68
		c0-0.212,0.376-0.385,0.836-0.385c0.461,0,0.837-0.174,0.837-0.385c0-0.212,0.606-0.519,1.346-0.681
		c1.244-0.273,2.756-0.944,3.257-1.445c0.285-0.285,2.922-1.29,4.079-1.555c0.518-0.119,0.942-0.382,0.942-0.586
		c0-0.203,0.376-0.369,0.836-0.369c0.461,0,0.837-0.188,0.837-0.419c0-0.23,0.33-0.419,0.732-0.42
		c0.403-0.001,1.659-0.471,2.791-1.046c1.132-0.574,2.233-1.044,2.447-1.044c0.368,0,0.914-0.22,4.554-1.833
		c0.84-0.373,1.697-0.678,1.904-0.678c0.207,0,0.883-0.235,1.502-0.523l1.126-0.523l0.004-13.493L400,0l-15.586,0.033
		C375.842,0.051,368.546,0.159,368.201,0.273"/>
	<path id="path3" fill="#D8D8D8" d="M0,0"/>
	<path id="path4" fill="#6B7C85" d="M76.95,572.144c-0.097,0.097-2.153,0.38-4.568,0.63c-4.412,0.455-8.818,0.969-14.641,1.707
		c-1.726,0.219-6.026,0.715-9.555,1.102l-6.417,0.704l0.27,1.082c0.148,0.596,0.365,2.213,0.48,3.593
		c0.116,1.381,0.369,2.887,0.562,3.348c0.31,0.737,0.705,3.543,1.531,10.878c0.129,1.151,0.406,2.271,0.615,2.49
		c0.209,0.218,0.38,1.196,0.38,2.172s0.16,1.874,0.357,1.995c0.196,0.121,0.487,1.779,0.646,3.683
		c0.159,1.904,0.469,3.643,0.689,3.863s0.4,1.209,0.4,2.199c0,0.989,0.166,1.799,0.369,1.799s0.501,1.411,0.663,3.135
		c0.162,1.725,0.466,3.242,0.677,3.372c0.21,0.131,0.383,0.968,0.383,1.861c0,0.894,0.166,1.727,0.369,1.853
		c0.203,0.125,0.5,1.452,0.66,2.949c0.161,1.496,0.465,2.828,0.677,2.959c0.212,0.131,0.386,0.875,0.386,1.654
		c0,0.778,0.163,1.516,0.363,1.639c0.2,0.124,0.491,1.353,0.647,2.732c0.156,1.379,0.463,2.618,0.683,2.753
		c0.219,0.136,0.399,0.895,0.399,1.687c0,0.792,0.188,1.44,0.418,1.44c0.23,0,0.427,0.612,0.437,1.359
		c0.01,0.748,0.29,2.113,0.621,3.034c0.332,0.92,0.606,2.086,0.61,2.59c0.003,0.504,0.194,1.033,0.424,1.176
		c0.23,0.142,0.419,0.812,0.419,1.489s0.166,1.23,0.37,1.23c0.204,0,0.499,1.033,0.657,2.295s0.462,2.403,0.676,2.535
		c0.214,0.132,0.389,0.794,0.389,1.471s0.175,1.231,0.388,1.231c0.214,0,0.518,1.038,0.677,2.306
		c0.158,1.269,0.454,2.41,0.657,2.536c0.204,0.125,0.37,0.688,0.37,1.249c0,0.562,0.17,1.022,0.379,1.022s0.509,0.941,0.667,2.091
		c0.158,1.151,0.458,2.197,0.667,2.326c0.208,0.129,0.379,0.683,0.379,1.231s0.166,1.1,0.37,1.226
		c0.204,0.125,0.497,1.073,0.652,2.107c0.155,1.033,0.459,1.987,0.676,2.121c0.217,0.134,0.394,0.704,0.394,1.265
		c0,0.562,0.188,1.022,0.418,1.022c0.231,0,0.419,0.336,0.419,0.748c0,0.842,1.387,4.962,1.814,5.39
		c0.153,0.152,0.279,0.67,0.28,1.149c0.002,0.479,0.284,1.411,0.628,2.07c0.344,0.659,0.625,1.554,0.625,1.988
		c0,0.434,0.188,0.789,0.418,0.789c0.231,0,0.419,0.47,0.419,1.046c0,0.575,0.188,1.046,0.418,1.046c0.23,0,0.42,0.423,0.421,0.941
		c0.002,0.518,0.284,1.481,0.628,2.14c0.344,0.659,0.625,1.459,0.625,1.778c0,0.319,0.188,0.58,0.418,0.58
		c0.23,0,0.419,0.395,0.419,0.878c0,0.803,0.743,2.83,1.709,4.66c0.21,0.4,0.383,0.936,0.383,1.192s0.26,1.059,0.578,1.784
		c1.415,3.229,1.872,4.353,2.405,5.921c0.313,0.921,0.664,1.768,0.78,1.883c0.286,0.283,1.291,2.915,1.558,4.079
		c0.119,0.518,0.382,0.942,0.585,0.942c0.204,0,0.37,0.376,0.37,0.837c0,0.46,0.188,0.837,0.418,0.837
		c0.23,0,0.419,0.281,0.419,0.624c0,0.872,1.384,3.978,1.772,3.978c0.176,0,0.321,0.33,0.322,0.732
		c0.002,0.403,0.284,1.272,0.628,1.931c0.344,0.659,0.625,1.459,0.625,1.778c0,0.319,0.168,0.58,0.373,0.58
		c0.205,0,0.492,0.471,0.636,1.048c0.145,0.576,0.918,2.428,1.719,4.115s1.456,3.287,1.456,3.555c0,0.268,0.141,0.488,0.314,0.489
		c0.173,0,0.676,0.895,1.12,1.987c0.443,1.092,0.924,2.08,1.068,2.195c0.251,0.201,0.913,1.587,2.147,4.498
		c0.317,0.748,0.719,1.36,0.893,1.36s0.316,0.187,0.316,0.415c0,0.676,1.427,3.769,1.739,3.769c0.158,0,0.411,0.565,0.562,1.255
		c0.152,0.691,0.403,1.255,0.559,1.255c0.156,0,0.541,0.612,0.856,1.36c1.331,3.163,3.765,7.567,4.297,7.776
		c0.195,0.076,0.355,0.424,0.355,0.772c0,0.569,1.147,2.955,1.674,3.482c0.188,0.188,1.011,1.629,2.27,3.974
		c0.247,0.461,0.544,0.931,0.659,1.046c0.115,0.116,0.584,0.963,1.042,1.883c0.458,0.921,0.928,1.768,1.046,1.883
		c0.117,0.116,0.566,0.869,0.998,1.674c1.474,2.746,2.437,4.392,2.939,5.021c0.276,0.345,0.864,1.333,1.308,2.196
		c0.444,0.863,0.952,1.569,1.13,1.569s0.323,0.283,0.323,0.628s0.189,0.628,0.419,0.628c0.23,0,0.418,0.215,0.418,0.477
		c0,0.263,0.753,1.671,1.674,3.128c0.92,1.458,1.673,2.843,1.673,3.079s0.176,0.429,0.391,0.429c0.214,0,0.499,0.343,0.632,0.763
		c0.133,0.419,0.569,1.131,0.97,1.58c0.4,0.45,1.086,1.518,1.525,2.375c0.439,0.857,0.957,1.558,1.151,1.558
		s0.352,0.163,0.352,0.363c0,0.199,1.412,2.471,3.138,5.049c1.726,2.577,3.138,4.846,3.138,5.041c0,0.196,0.159,0.418,0.354,0.495
		c0.391,0.154,3.726,4.841,4.586,6.444c0.3,0.56,0.681,1.018,0.846,1.018c0.165,0,0.655,0.659,1.089,1.464
		c0.434,0.806,0.947,1.465,1.141,1.465s0.353,0.241,0.353,0.535c0,0.294,0.376,0.807,0.836,1.138
		c0.461,0.332,0.837,0.799,0.837,1.038c0,0.24,0.434,0.904,0.963,1.477c0.53,0.573,1.323,1.654,1.764,2.402
		c0.44,0.748,0.949,1.359,1.129,1.359c0.181,0,0.328,0.267,0.328,0.593c0,0.326,0.149,0.656,0.33,0.732
		c0.181,0.077,0.981,0.981,1.778,2.008c0.797,1.028,1.778,2.24,2.181,2.694s0.732,0.959,0.732,1.121s0.518,0.853,1.151,1.534
		c1.355,1.459,2.913,3.359,4.079,4.976c0.461,0.638,1.12,1.456,1.465,1.819c0.345,0.363,1.185,1.407,1.867,2.32
		c0.683,0.913,1.436,1.871,1.674,2.129c0.239,0.259,1.093,1.266,1.898,2.239c1.743,2.105,7.03,7.322,8.377,8.265
		c0.524,0.367,1.835,1.545,2.914,2.619c1.079,1.073,2.669,2.49,3.532,3.149c0.864,0.659,2.496,2.104,3.627,3.211
		c1.131,1.108,2.158,2.014,2.283,2.014c0.124,0,0.654,0.424,1.178,0.941c0.525,0.518,2.233,2.072,3.796,3.452
		c1.564,1.381,3.33,2.981,3.926,3.557c0.595,0.575,1.844,1.674,2.775,2.443c1.596,1.318,5.111,4.452,9.223,8.226
		c1.003,0.921,2.605,2.333,3.56,3.138c0.954,0.806,2.428,2.124,3.275,2.929c0.846,0.806,2.493,2.254,3.658,3.219
		c1.166,0.965,2.879,2.471,3.808,3.347c2.193,2.069,7.057,6.382,8.404,7.451c0.579,0.46,2.025,1.778,3.213,2.929
		c1.188,1.15,3.042,2.809,4.121,3.685c1.079,0.877,2.801,2.383,3.826,3.348c1.026,0.964,2.835,2.601,4.022,3.636
		c1.186,1.036,2.598,2.288,3.137,2.783l0.98,0.9l-5.729,0.267c-3.152,0.147-6.672,0.359-7.822,0.471
		c-1.151,0.113-5.011,0.313-8.578,0.445c-3.567,0.133-6.664,0.41-6.882,0.616c-0.219,0.207-2.811,0.376-5.759,0.376
		c-2.949,0-5.689,0.178-6.088,0.395c-0.638,0.347-7.421,0.71-28.537,1.527c-3.099,0.12-5.829,0.373-6.067,0.563
		c-0.238,0.189-5.139,0.481-10.893,0.648c-5.753,0.167-10.836,0.415-11.297,0.55c-0.46,0.135-3.519,0.313-6.799,0.395
		c-3.279,0.082-5.962,0.301-5.962,0.487c0,0.185-4.737,0.474-10.526,0.642c-5.788,0.168-10.919,0.411-11.401,0.54
		c-0.482,0.129-3.512,0.389-6.734,0.579c-3.222,0.19-7.05,0.462-8.507,0.605l-2.65,0.26l0.28,8.015
		c0.154,4.409,0.385,8.487,0.512,9.062c0.128,0.575,0.392,3.682,0.587,6.904c0.195,3.221,0.466,7.325,0.602,9.118l0.247,3.261
		l6.975-0.257c3.836-0.142,7.54-0.37,8.23-0.508c0.69-0.138,3.703-0.316,6.695-0.396c2.991-0.08,5.815-0.316,6.276-0.524
		c0.46-0.208,5.92-0.588,12.134-0.844c6.213-0.256,13.838-0.639,16.945-0.851c3.107-0.213,9.32-0.573,13.808-0.801
		c4.487-0.227,9.477-0.529,11.088-0.67c4.152-0.364,14.082-0.958,23.849-1.427c4.602-0.221,9.498-0.517,10.879-0.658
		c1.38-0.141,5.57-0.363,9.309-0.493c3.74-0.13,6.799-0.403,6.799-0.606s2.605-0.37,5.788-0.37c3.184,0,5.929-0.141,6.1-0.313
		c0.285-0.287,14.759-1.102,28.698-1.616c3.107-0.115,5.828-0.386,6.046-0.604c0.219-0.217,2.403-0.395,4.853-0.395
		c6.267,0,10.894-0.443,11.133-1.065c0.109-0.284,1.505-1.903,3.103-3.596c1.598-1.694,3.01-3.409,3.139-3.812
		c0.129-0.403,0.397-0.732,0.595-0.732c0.432,0,0.996-0.558,2.93-2.896c1.562-1.889,2.599-3.066,5.168-5.864
		c1.261-1.373,1.544-1.953,1.303-2.669c-0.169-0.503-0.573-6.092-0.896-12.421c-0.324-6.328-0.757-14.048-0.963-17.155
		c-0.206-3.106-0.566-9.508-0.8-14.226c-0.235-4.717-0.54-9.989-0.68-11.715c-0.14-1.726-0.35-5.821-0.468-9.1
		c-0.118-3.28-0.36-5.963-0.538-5.963c-0.178,0-0.456-4.283-0.618-9.519c-0.162-5.235-0.389-10.083-0.504-10.774
		c-0.116-0.69-0.316-4.173-0.445-7.74s-0.377-6.674-0.551-6.904c-0.174-0.23-0.451-4.561-0.614-9.623
		c-0.164-5.063-0.389-9.77-0.5-10.461c-0.111-0.69-0.384-4.362-0.607-8.159c-0.222-3.797-0.58-9.445-0.794-12.552
		c-0.615-8.902-1.708-28.527-1.935-34.728c-0.113-3.107-0.384-5.827-0.602-6.046c-0.217-0.219-0.395-1.889-0.395-3.713v-3.315
		l-5.753,0.288c-3.164,0.159-8.483,0.466-11.82,0.683c-3.337,0.218-8.702,0.503-11.922,0.634c-3.221,0.131-6.092,0.435-6.381,0.675
		c-0.606,0.503-0.748,6.842-0.161,7.205c0.201,0.124,0.504,5.314,0.674,11.534c0.169,6.22,0.475,11.412,0.681,11.539
		c0.205,0.127,0.372,2.855,0.372,6.064c0,3.208,0.163,5.833,0.362,5.833c0.199,0,0.501,4.934,0.671,10.964
		c0.17,6.03,0.477,11.409,0.684,11.952c0.206,0.543,0.375,3.331,0.375,6.196s0.176,5.536,0.391,5.935
		c0.346,0.645,0.989,12.559,1.53,28.342c0.103,2.991,0.357,5.816,0.567,6.276c0.209,0.46,0.499,5.029,0.645,10.153
		c0.146,5.125,0.364,9.738,0.484,10.252c0.12,0.513,0.309,3.852,0.42,7.419c0.11,3.567,0.392,6.877,0.625,7.355
		c0.233,0.477,0.362,1.49,0.287,2.251l-0.137,1.382l-1.746-1.624c-0.96-0.893-2.518-2.282-3.461-3.088
		c-0.944-0.805-2.524-2.217-3.511-3.138c-0.987-0.92-2.536-2.272-3.442-3.003c-0.906-0.732-2.723-2.332-4.037-3.557
		c-4.068-3.79-7.94-7.22-8.862-7.849c-0.485-0.331-1.447-1.178-2.138-1.883c-0.69-0.704-2.209-2.07-3.376-3.035
		c-1.167-0.965-2.872-2.471-3.789-3.348c-1.879-1.794-6.84-6.181-8.426-7.45c-0.575-0.46-1.543-1.308-2.151-1.883
		c-1.101-1.043-2.581-2.373-8.377-7.531c-1.681-1.496-3.706-3.316-4.5-4.045c-0.795-0.728-2.205-1.952-3.135-2.719
		c-0.93-0.768-2.389-2.054-3.241-2.86c-0.852-0.805-2.385-2.152-3.407-2.994c-1.021-0.841-2.924-2.535-4.229-3.765
		c-1.304-1.23-3.297-2.99-4.428-3.91c-1.131-0.921-2.794-2.596-3.695-3.723s-1.83-2.257-2.063-2.51
		c-0.234-0.254-1.076-1.309-1.871-2.345c-0.796-1.035-1.782-2.187-2.191-2.559c-0.409-0.372-0.744-0.81-0.744-0.972
		s-0.235-0.548-0.523-0.858c-0.288-0.311-0.9-1.066-1.36-1.678c-0.46-0.612-1.354-1.657-1.987-2.321
		c-0.633-0.664-1.151-1.356-1.151-1.539s-0.424-0.801-0.941-1.374c-0.518-0.573-1.601-1.949-2.406-3.059
		c-0.806-1.109-1.888-2.501-2.406-3.094c-0.518-0.593-0.942-1.192-0.942-1.331c-0.001-0.139-0.567-0.911-1.258-1.717
		c-0.691-0.805-1.362-1.794-1.491-2.196c-0.13-0.403-0.411-0.733-0.626-0.733s-0.39-0.282-0.39-0.627
		c0-0.345-0.148-0.628-0.33-0.628c-0.181,0-1.161-1.271-2.178-2.824c-1.017-1.554-2.092-3.073-2.39-3.377
		c-0.298-0.304-0.541-0.693-0.541-0.863c0-0.17-0.33-0.685-0.733-1.143c-0.995-1.135-1.753-2.316-2.048-3.195
		c-0.135-0.402-0.383-0.732-0.55-0.732c-0.167,0-0.658-0.659-1.092-1.464c-0.434-0.806-0.912-1.465-1.063-1.465
		s-0.385-0.329-0.52-0.732c-0.329-0.978-1.165-2.251-1.989-3.027c-0.37-0.349-0.806-1.058-0.97-1.575
		c-0.163-0.518-0.472-0.942-0.687-0.942c-0.215,0-0.39-0.282-0.39-0.627c0-0.346-0.185-0.628-0.411-0.628
		c-0.225,0-0.528-0.471-0.673-1.046c-0.144-0.575-0.43-1.046-0.635-1.046s-0.373-0.192-0.373-0.427c0-0.379-1.954-3.633-2.507-4.176
		c-0.117-0.115-0.575-0.868-1.018-1.673c-0.443-0.806-0.914-1.559-1.046-1.674c-0.133-0.115-0.6-0.915-1.039-1.778
		c-0.439-0.863-0.957-1.569-1.151-1.569s-0.352-0.377-0.352-0.837c0-0.46-0.168-0.837-0.373-0.837c-0.206,0-0.481-0.427-0.612-0.95
		c-0.131-0.522-0.582-1.322-1.002-1.778c-0.42-0.455-1.022-1.456-1.337-2.224c-0.315-0.767-0.779-1.618-1.031-1.891
		c-0.251-0.272-0.971-1.492-1.6-2.711c-1.483-2.874-2.57-4.828-2.832-5.09c-0.115-0.115-0.868-1.573-1.674-3.24
		c-0.805-1.667-1.605-3.033-1.778-3.034c-0.172-0.001-0.314-0.379-0.314-0.839c0-0.46-0.188-0.837-0.418-0.837
		s-0.418-0.282-0.418-0.628c0-0.345-0.189-0.627-0.419-0.627c-0.23,0-0.418-0.187-0.418-0.416c0-0.714-1.437-3.768-1.773-3.768
		c-0.175,0-0.319-0.301-0.319-0.668c0-0.738-1.284-3.227-1.779-3.447c-0.172-0.076-0.313-0.424-0.313-0.772
		c0-0.711-1.296-3.197-1.779-3.412c-0.172-0.076-0.313-0.339-0.313-0.583c0-0.245-0.644-1.783-1.431-3.419
		c-0.787-1.636-1.56-3.491-1.719-4.123c-0.159-0.632-0.456-1.149-0.661-1.149c-0.206,0-0.373-0.377-0.373-0.837
		c0-0.461-0.189-0.837-0.419-0.837c-0.23,0-0.419-0.235-0.42-0.523c-0.001-0.288-0.458-1.422-1.015-2.52s-1.136-2.557-1.287-3.243
		c-0.15-0.685-0.447-1.246-0.658-1.246c-0.212,0-0.386-0.376-0.386-0.836c0-0.461-0.188-0.837-0.418-0.837
		c-0.23,0-0.42-0.33-0.421-0.732c-0.001-0.403-0.284-1.272-0.628-1.931c-0.343-0.659-0.625-1.459-0.625-1.778
		s-0.188-0.58-0.418-0.58c-0.23,0-0.418-0.301-0.418-0.669c0-0.368-0.283-1.309-0.628-2.092c-0.345-0.783-0.896-2.035-1.223-2.783
		c-0.327-0.748-0.844-2.16-1.148-3.138s-0.695-1.778-0.869-1.778c-0.174,0-0.317-0.261-0.317-0.58s-0.281-1.119-0.625-1.778
		c-0.343-0.66-0.626-1.517-0.627-1.906c-0.002-0.389-0.191-0.824-0.421-0.966c-0.23-0.143-0.419-0.625-0.419-1.071
		c0-0.447-0.188-0.812-0.418-0.812c-0.23,0-0.418-0.373-0.418-0.829c0-0.811-0.77-3.093-1.929-5.72
		c-0.32-0.725-0.582-1.714-0.582-2.197c0-0.483-0.188-0.878-0.418-0.878c-0.23,0-0.419-0.47-0.419-1.046
		c0-0.575-0.164-1.046-0.365-1.046c-0.2,0-0.486-0.761-0.635-1.692c-0.149-0.93-0.433-2.013-0.632-2.406
		c-0.61-1.202-1.147-2.694-1.914-5.316c-0.404-1.381-0.875-2.887-1.046-3.347c-0.171-0.461-0.639-1.967-1.039-3.348
		c-0.401-1.38-0.898-2.837-1.105-3.237c-0.207-0.399-0.377-1.105-0.377-1.569c0-0.463-0.166-0.842-0.37-0.842
		c-0.203,0-0.499-1.033-0.657-2.295c-0.157-1.262-0.462-2.403-0.676-2.535c-0.214-0.132-0.389-0.689-0.389-1.237
		s-0.175-1.105-0.389-1.237c-0.214-0.132-0.518-1.273-0.676-2.535c-0.157-1.262-0.453-2.295-0.657-2.295
		c-0.203,0-0.37-0.659-0.37-1.464c0-0.806-0.188-1.465-0.418-1.465c-0.23,0-0.427-0.612-0.437-1.36
		c-0.01-0.748-0.29-2.113-0.621-3.033c-0.332-0.921-0.606-2.006-0.61-2.412c-0.003-0.406-0.175-1.065-0.382-1.464
		c-0.436-0.842-1.729-6.653-1.721-7.735c0.003-0.403-0.142-0.732-0.321-0.732c-0.318,0-1.213-4.287-1.638-7.845
		c-0.117-0.978-0.382-1.779-0.588-1.779c-0.207,0-0.377-0.753-0.377-1.673c0-0.921-0.171-1.674-0.381-1.674
		c-0.209,0-0.514-1.6-0.677-3.556c-0.163-1.957-0.462-3.557-0.665-3.557c-0.203,0-0.369-0.816-0.369-1.813
		c0-0.997-0.141-1.953-0.314-2.124c-0.29-0.288-1.075-5.145-1.629-10.08c-0.129-1.15-0.386-2.28-0.571-2.51
		s-0.473-2.353-0.639-4.716c-0.167-2.364-0.467-4.399-0.667-4.523c-0.2-0.124-0.364-1.155-0.364-2.292
		C78.661,572.111,77.864,571.23,76.95,572.144"/>
</g>
</svg>
