<svg xmlns="http://www.w3.org/2000/svg" xmlns:xlink="http://www.w3.org/1999/xlink" viewBox="0 0 280 72"><defs><linearGradient id="linear-gradient" x1="-854.41" y1="1027.1" x2="-854.41" y2="1026.1" gradientTransform="matrix(277 0 0 -69 236812.5 70871.5)" gradientUnits="userSpaceOnUse"><stop offset="0" stop-color="#ffde00"/><stop offset="1" stop-color="#ff8700"/></linearGradient><linearGradient id="linear-gradient-2" x1="-854.41" y1="1027.1" x2="-854.41" y2="1026.1" gradientTransform="matrix(277 0 0 -69 236812.5 70871.5)" gradientUnits="userSpaceOnUse"><stop offset="0" stop-color="#ffe100"/><stop offset="1" stop-color="#ffa324"/></linearGradient><linearGradient id="linear-gradient-3" x1="-23.56" y1="58.87" x2="-23.56" y2="59.52" gradientTransform="matrix(50 0 0 43 1216.03 -2508)" xlink:href="#linear-gradient"/><style>.cls-4{fill:#052011}</style></defs><g id="Layer_2" data-name="Layer 2"><g id="Layer_1-2" data-name="Layer 1"><path id="azjgzljsmb" d="M36 0h208a36 36 0 0136 36 36 36 0 01-36 36H36A36 36 0 010 36 36 36 0 0136 0z" fill-rule="evenodd"/><path d="M36 1.5h208A34.5 34.5 0 01278.5 36h0A34.5 34.5 0 01244 70.5H36A34.5 34.5 0 011.5 36h0A34.5 34.5 0 0136 1.5z" stroke-width="3" fill="url(#linear-gradient)" stroke="url(#linear-gradient-2)" fill-rule="evenodd"/><path class="cls-4" d="M93.19 49.1V25.28h10.51c4.48 0 7.27 2.29 7.27 5.93a5.29 5.29 0 01-4.47 5.2v.11a5.75 5.75 0 015.59 5.76c0 4.19-3.13 6.82-8.22 6.82zm5-13.92H102c2.69 0 4.19-1.18 4.19-3.19s-1.34-3-3.69-3h-4.28v6.21zm4.42 10.23c2.85 0 4.42-1.23 4.42-3.52s-1.62-3.41-4.53-3.41h-4.28v6.93zm30.45 3.69h-4.64v-3.3h-.11a5.42 5.42 0 01-5.48 3.58c-3.91 0-6.54-2.57-6.54-6.77V30.93h4.81v10.68c0 2.46 1.23 3.8 3.46 3.8s3.64-1.62 3.64-4.08v-10.4h4.8V49.1zm5.43 6.6V52a6.65 6.65 0 001.12.06c1.79 0 2.85-.62 3.24-2.07l.17-.67L136.64 31H142l3.92 14.26h.08L150 31h5l-6.32 18.57c-1.56 4.64-3.8 6.26-8.33 6.26-.18-.07-1.69-.13-1.86-.13zm29.3-6.6V25.28h4.14l11.18 15.54h.12V25.28H188V49.1h-4.14l-11.2-15.6h-.17v15.6zm24.89-9.1c0-5.82 3.52-9.4 8.94-9.4s8.95 3.58 8.95 9.4-3.47 9.39-8.95 9.39-8.94-3.48-8.94-9.39zm13 0c0-3.58-1.51-5.71-4.09-5.71s-4.08 2.13-4.08 5.71 1.51 5.7 4.08 5.7 4.12-2.08 4.12-5.7zm29.55 9.1h-5.14l-3.36-13h-.11l-3.3 13h-5.09l-4.86-18.17h4.86L221 44.52h.11l3.3-13.59h4.64l3.3 13.59h.11l2.85-13.59h4.76z"/><circle class="cls-4" cx="36.77" cy="37" r="27.07"/><path id="_56p9a39d5e" data-name="56p9a39d5e" d="M45.15 43.12h-18.5a.9.9 0 01-.91-.71L22 29.72a1.31 1.31 0 01.12-.84.94.94 0 01.78-.39h24.3l1.29-4.32a.9.9 0 01.9-.71h3.8a1 1 0 010 1.94h-3.08l-1.29 4.32v.06L45.4 41.25a3.74 3.74 0 01-.25 7.48h-1a3.4 3.4 0 01-3.29 2.45 3.47 3.47 0 01-3.29-2.45h-5.06a3.4 3.4 0 01-3.29 2.45 3.46 3.46 0 01-3.28-2.45h-1.23a1 1 0 010-1.93h1.23a3.66 3.66 0 013.35-2.52 3.46 3.46 0 013.29 2.45h5.09A3.4 3.4 0 0141 44.28a3.46 3.46 0 013.28 2.45h.91a1.8 1.8 0 001.8-1.8 1.76 1.76 0 00-1.84-1.81zm-14-12.69h-7l1.29 4.44h5.67v-4.44zm0 6.31h-5.08l1.29 4.45h3.8v-4.45zm7.09-6.31h-5.15v4.44h5.16zm0 6.31h-5.15v4.45h5.16zm1.87 4.45h3.29l1.29-4.45h-4.64c.07 0 .07 4.45.07 4.45zm6.51-10.76h-6.5v4.44h5.15l1.36-4.44zM29.29 46.22a1.48 1.48 0 101.48 1.48 1.5 1.5 0 00-1.48-1.48zm11.67 0a1.48 1.48 0 101.48 1.48A1.5 1.5 0 0041 46.22z" fill="#fff"/><path id="_56p9a39d5e-2" data-name="56p9a39d5e" d="M45.15 43.12h-18.5a.9.9 0 01-.91-.71L22 29.72a1.31 1.31 0 01.12-.84.94.94 0 01.78-.39h24.3l1.29-4.32a.9.9 0 01.9-.71h3.8a1 1 0 010 1.94h-3.08l-1.29 4.32v.06L45.4 41.25a3.74 3.74 0 01-.25 7.48h-1a3.4 3.4 0 01-3.29 2.45 3.47 3.47 0 01-3.29-2.45h-5.06a3.4 3.4 0 01-3.29 2.45 3.46 3.46 0 01-3.28-2.45h-1.23a1 1 0 010-1.93h1.23a3.66 3.66 0 013.35-2.52 3.46 3.46 0 013.29 2.45h5.09A3.4 3.4 0 0141 44.28a3.46 3.46 0 013.28 2.45h.91a1.8 1.8 0 001.8-1.8 1.76 1.76 0 00-1.84-1.81zm-14-12.69h-7l1.29 4.44h5.67v-4.44zm0 6.31h-5.08l1.29 4.45h3.8v-4.45zm7.09-6.31h-5.15v4.44h5.16zm0 6.31h-5.15v4.45h5.16zm1.87 4.45h3.29l1.29-4.45h-4.64c.07 0 .07 4.45.07 4.45zm6.51-10.76h-6.5v4.44h5.15l1.36-4.44zM29.29 46.22a1.48 1.48 0 101.48 1.48 1.5 1.5 0 00-1.48-1.48zm11.67 0a1.48 1.48 0 101.48 1.48A1.5 1.5 0 0041 46.22z" fill="url(#linear-gradient-3)"/></g></g></svg>