<?xml version="1.0" standalone="no"?>
<!DOCTYPE svg PUBLIC "-//W3C//DTD SVG 20010904//EN"
 "http://www.w3.org/TR/2001/REC-SVG-20010904/DTD/svg10.dtd">
<svg version="1.0" xmlns="http://www.w3.org/2000/svg"
 width="608.000000pt" height="608.000000pt" viewBox="0 0 608.000000 608.000000"
 preserveAspectRatio="xMidYMid meet">
<metadata>
Created by potrace 1.11, written by Peter Selinger 2001-2013
</metadata>
<g transform="translate(0.000000,608.000000) scale(0.100000,-0.100000)"
fill="#000000" stroke="none">
<path d="M6015 6048 c-16 -5 -45 -16 -63 -25 -18 -8 -40 -16 -50 -18 -18 -4
-233 -80 -267 -95 -11 -5 -51 -20 -90 -33 -38 -14 -120 -44 -180 -66 -61 -23
-114 -41 -117 -41 -4 0 -17 -4 -30 -9 -13 -5 -26 -9 -31 -10 -4 0 -20 -7 -37
-16 -16 -8 -37 -17 -47 -18 -10 -2 -31 -10 -48 -16 -16 -7 -34 -14 -40 -15 -5
-2 -17 -6 -25 -9 -8 -3 -67 -25 -130 -47 -63 -23 -169 -61 -235 -85 -226 -82
-410 -147 -420 -149 -5 -1 -19 -7 -30 -13 -11 -5 -33 -13 -50 -17 -16 -4 -43
-14 -60 -21 -16 -7 -79 -30 -140 -51 -60 -20 -114 -40 -120 -44 -5 -4 -37 -15
-70 -25 -33 -10 -64 -20 -70 -24 -5 -3 -14 -6 -20 -7 -5 -1 -46 -16 -90 -32
-120 -46 -471 -172 -478 -172 -3 0 -18 -5 -34 -12 -15 -6 -30 -12 -33 -12 -4
-1 -80 -28 -120 -43 -8 -3 -19 -7 -25 -9 -28 -9 -124 -44 -150 -55 -16 -7 -32
-13 -35 -14 -3 0 -43 -14 -90 -30 -47 -16 -87 -30 -90 -30 -3 -1 -16 -6 -30
-12 -14 -5 -61 -22 -105 -38 -44 -15 -91 -32 -105 -38 -14 -5 -30 -11 -37 -13
-6 -1 -49 -16 -95 -32 -142 -52 -260 -94 -272 -97 -6 -1 -22 -7 -36 -12 -14
-6 -52 -20 -85 -31 -33 -12 -112 -40 -175 -62 -141 -51 -245 -84 -246 -79 0 2
-7 -1 -15 -7 -8 -6 -45 -22 -84 -34 -283 -91 -613 -271 -788 -430 -90 -81
-207 -208 -216 -233 -2 -7 -8 -14 -12 -17 -20 -13 -111 -187 -135 -257 -14
-43 -29 -85 -32 -93 -3 -8 -6 -19 -7 -25 -14 -58 -18 -100 -20 -222 -2 -130 3
-179 30 -293 7 -31 44 -129 56 -152 7 -12 14 -29 15 -36 1 -8 10 -22 18 -31 9
-10 16 -21 16 -25 0 -9 53 -90 63 -94 4 -2 7 -8 7 -13 0 -25 212 -239 305
-307 39 -28 75 -55 80 -60 28 -23 174 -106 271 -155 89 -44 294 -131 314 -132
3 0 19 -5 35 -12 58 -22 70 -26 83 -29 8 -1 21 -6 30 -10 9 -4 22 -8 27 -10 6
-2 69 -24 140 -49 72 -26 191 -68 265 -95 74 -26 142 -50 150 -53 8 -3 69 -24
135 -47 66 -23 129 -45 140 -50 11 -5 58 -22 105 -39 338 -118 437 -154 455
-161 11 -5 74 -27 140 -50 66 -23 129 -45 140 -50 17 -7 124 -45 230 -82 17
-5 39 -14 50 -19 26 -12 264 -96 339 -120 32 -11 72 -25 90 -33 17 -8 51 -21
76 -29 25 -8 97 -34 160 -57 63 -23 142 -51 175 -62 33 -11 71 -25 85 -31 14
-6 27 -11 30 -11 3 -1 19 -6 35 -13 17 -6 71 -26 120 -43 50 -17 98 -35 107
-40 10 -6 25 -10 33 -10 8 0 23 -4 33 -9 16 -9 161 -64 172 -66 11 -2 86 -28
95 -34 6 -3 15 -6 20 -7 12 -2 123 -42 150 -54 11 -5 47 -18 80 -29 64 -22 91
-32 225 -81 47 -17 90 -33 95 -34 6 -2 17 -6 25 -9 65 -25 217 -79 225 -81 6
-1 15 -4 20 -8 6 -3 26 -11 45 -16 38 -12 97 -33 145 -53 17 -7 37 -13 46 -15
9 -2 38 -13 64 -24 26 -11 49 -19 51 -17 2 1 -27 23 -64 47 -59 40 -137 94
-167 117 -5 5 -30 24 -55 43 -214 165 -443 392 -614 610 -36 47 -70 90 -75 96
-31 38 -141 204 -141 212 0 6 -4 12 -8 14 -12 4 -98 153 -164 283 -62 122
-133 286 -168 385 -12 36 -26 74 -31 85 -8 19 -40 128 -45 150 -1 6 -11 42
-22 80 -19 64 -25 89 -37 153 -2 13 -6 31 -9 40 -3 9 -7 33 -10 52 -3 19 -7
44 -10 55 -7 35 -16 99 -22 145 -3 25 -7 59 -9 75 -24 202 -24 575 0 760 2 17
6 50 9 75 5 48 10 80 28 175 6 33 12 69 14 80 15 95 114 452 133 480 4 6 13
28 20 50 7 22 16 49 21 60 5 11 21 49 36 85 14 36 58 128 97 205 38 77 75 150
81 162 6 13 14 23 19 23 4 0 7 5 7 12 0 7 11 28 24 47 13 20 49 74 79 121 82
124 118 175 128 178 5 2 9 8 9 14 0 5 6 15 13 23 6 7 28 32 47 56 19 24 45 54
58 67 12 13 22 25 22 27 0 13 237 254 323 329 28 24 68 59 87 76 19 18 54 46
78 63 23 17 42 34 42 39 0 5 4 7 9 4 5 -4 11 -3 13 2 4 11 177 136 215 155 25
13 55 40 41 36 -2 0 -16 -5 -33 -11z"/>
</g>
</svg>
