<?xml version="1.0" standalone="no"?>
<!DOCTYPE svg PUBLIC "-//W3C//DTD SVG 1.1//EN" "http://www.w3.org/Graphics/SVG/1.1/DTD/svg11.dtd" >
<svg xmlns="http://www.w3.org/2000/svg">
<metadata>Generated by IcoMoon</metadata>
<defs>
<font id="icomoon" horiz-adv-x="1024">
<font-face units-per-em="1024" ascent="960" descent="-64" />
<missing-glyph horiz-adv-x="1024" />
<glyph unicode="&#x20;" horiz-adv-x="512" d="" />
<glyph unicode="&#xe900;" glyph-name="analog" horiz-adv-x="1380" d="M888.6 515.2c-30.4 0-55.2 24.8-55.2 55.2s24.8 55.2 55.2 55.2 55.2-24.8 55.2-55.2-24.6-55.2-55.2-55.2zM888.6 595.2c-13.8 0-24.8-11-24.8-24.8s11-24.8 24.8-24.8c13.8 0 24.8 11 24.8 24.8s-11 24.8-24.8 24.8zM888.6 275c-30.4 0-55.2 24.8-55.2 55.2s24.8 55.2 55.2 55.2 55.2-24.8 55.2-55.2c0.2-30.6-24.6-55.2-55.2-55.2zM888.6 355c-13.8 0-24.8-11-24.8-24.8s11-24.8 24.8-24.8c13.8 0 24.8 11 24.8 24.8s-11 24.8-24.8 24.8zM694 168c-30.4 0-55.2 24.8-55.2 55.2s24.8 55.2 55.2 55.2 55.2-24.8 55.2-55.2c0-30.2-24.8-55.2-55.2-55.2zM694 248.2c-13.8 0-24.8-11-24.8-24.8s11-24.8 24.8-24.8c13.8 0 24.8 11 24.8 24.8-0.4 13.6-11.4 24.8-24.8 24.8zM498.8 275c-30.4 0-55.2 24.8-55.2 55.2s24.8 55.2 55.2 55.2c30.4 0 55.2-24.8 55.2-55.2s-24.8-55.2-55.2-55.2zM498.8 355c-13.8 0-24.8-11-24.8-24.8s11-24.8 24.8-24.8c13.8 0 24.8 11 24.8 24.8s-11 24.8-24.8 24.8zM488.4 504.4c-30.4 0-55.2 24.8-55.2 55.2s24.8 55.2 55.2 55.2c30.4 0 55.2-24.8 55.2-55.2s-24.8-55.2-55.2-55.2zM488.4 584.4c-13.8 0-24.8-11-24.8-24.8s11-24.8 24.8-24.8c13.8 0 24.8 11 24.8 24.8-0.4 13.8-11.4 24.8-24.8 24.8v0zM694 621.8c-30.4 0-55.2 24.8-55.2 55.2s24.8 55.2 55.2 55.2 55.2-24.8 55.2-55.2-24.8-55.2-55.2-55.2zM694 702c-13.8 0-24.8-11-24.8-24.8s11-24.8 24.8-24.8c13.8 0 24.8 11 24.8 24.8-0.4 13.6-11.4 24.8-24.8 24.8zM540.6 610.2l80.2 53.6 17-25.4-80.2-53.6-17 25.4zM748.8 251.8l80.2 53.6 17-25.4-80.2-53.6-17 25.4zM475.8 492.8l30.4 0.4 1-85.6-30.4-0.4-1 85.6zM881.4 492.8l30.4 0.4 1-85.6-30.4-0.4-1 85.6zM543.2 274.6l16.2 25.8 76.6-48.4-16.2-25.8-76.6 48.4zM748.8 637.6l16.2 25.8 76.6-48.4-16.2-25.8-76.6 48.4zM691.4 853.6c-29.4 0-53.4 24-53.4 53.4s24 53.4 53.4 53.4c29.4 0 53.4-24 53.4-53.4 0-29.8-24-53.4-53.4-53.4zM691.4 929.6c-12.4 0-22.6-10.2-22.6-22.6s10.2-22.6 22.6-22.6c12.4 0 22.6 10.2 22.6 22.6s-9.8 22.6-22.6 22.6zM678 838.2h29.6v-89h-29.6v89zM1076.2 650.2c-17.6 0-34 8.6-44 23.2-8 11.8-11 25.8-8.4 39.8s10.6 26.2 22.4 34.2c8.8 6.2 19.4 9.4 30.2 9.4 17.6 0 34-8.6 44-23.2 8-11.8 11-25.8 8.4-39.8s-10.6-26.2-22-34.2c-9.4-6.2-19.8-9.4-30.6-9.4v0zM1076.2 726.2c-4.6 0-8.8-1.4-13-4-5.2-3.6-8.4-8.6-9.4-14.6s0.2-12.2 3.6-17c4.4-6.2 11.4-10 18.8-10 4.6 0 8.8 1.4 13 4 5.2 3.6 8.4 8.6 9.4 14.6s-0.2 12.2-3.6 17c-4.2 6.2-11.2 10-18.8 10v0zM939 627.4l72.6 49.8 16.8-24.4-72.6-49.8-16.8 24.4zM297.4 630.6v0c-10.8 0-21.2 3.2-30.2 9.4-11.8 8-19.6 20.2-22.4 34.2s0.2 28 8.4 39.8c10 14.6 26.4 23.2 44 23.2 10.8 0 21.2-3.2 30.2-9.4 11.8-8 19.6-20.2 22.4-34.2 2.6-14-0.2-28-8.4-39.8-10.2-14.4-26.6-23.2-44-23.2v0zM297.4 706.4c-7.6 0-14.6-3.8-18.8-10-3.6-5.2-4.6-11-3.6-17s4.6-11 9.4-14.6c3.8-2.6 8.4-4 13-4v0c7.6 0 14.6 3.8 18.8 10 3.6 5.2 4.6 11 3.6 17s-4.6 11-9.4 14.6c-4.2 2.8-8.4 4-13 4v0zM345.4 633.2l16.8 24.4 72.6-49.8-16.8-24.4c0.2 0-72.6 49.8-72.6 49.8zM697.2-64c-29.4 0-53.4 24-53.4 53.4s24 53.4 53.4 53.4c29.4 0 53.4-24 53.4-53.4-0.4-29.6-24.2-53.4-53.4-53.4zM697.2 11.8c-12.4 0-22.6-10.2-22.6-22.6s10.2-22.6 22.6-22.6c12.4 0 22.6 10.2 22.6 22.6 0 12.6-10.2 22.6-22.6 22.6zM683.4 145.8h29.6v-89h-29.6v89zM1081.8 139.4v0c-10.8 0-21.2 3.2-30.2 9.4-11.8 8-19.6 20.2-22.4 34.2s0.2 28 8.4 39.8c10 14.6 26.4 23.2 44 23.2 10.8 0 21.2-3.2 30.2-9.4 24.2-16.8 30.4-49.8 13.8-74-9.8-14.6-26.2-23.2-43.8-23.2zM1081.8 215c-7.6 0-14.6-3.8-18.8-10-3.6-5.2-4.6-11-3.6-17s4.6-11 9.4-14.6c3.8-2.6 8.4-4 13-4 7.6 0 14.6 3.8 18.8 10 7 10.2 4.4 24.6-6 31.6-3.8 2.8-8.2 4.2-12.8 4v0zM944.6 268.4l16.8 24.4 72.6-49.8-16.8-24.4-72.6 49.8zM302.8 158.8c-17.6 0-34 8.6-44 23.2-8 11.8-11 25.8-8.4 39.8s10.6 26.2 22.4 34.2c8.8 6.2 19.4 9.4 30.2 9.4 17.6 0 34-8.6 44-23.2 8-11.8 11-25.8 8.4-39.8s-10.6-26.2-22.4-34.2c-9-6.2-19.4-9.4-30.2-9.4v0zM302.8 234.8c-4.6 0-8.8-1.4-13-4-5.2-3.6-8.4-8.6-9.4-14.6s0.2-12.2 3.6-17c4.4-6.2 11.4-10 18.8-10 4.6 0 8.8 1.4 13 4 5.2 3.6 8.4 8.6 9.4 14.6s-0.2 12.2-3.6 17c-4.4 6.2-11.4 10-18.8 10zM350.8 262.4l72.6 49.8 16.8-24.4-72.6-49.8c0 0-16.8 24.4-16.8 24.4z" />
<glyph unicode="&#xe901;" glyph-name="antibodies" horiz-adv-x="1380" d="M499 593.6c-9 0-17.6 6-20.4 15-3.4 11.2 3 23.4 14.4 26.8 9.8 3 19.6 5.6 29.4 8.2 11.2 3 23 6.4 33.8 9.8 6.8 2.2 14 4.2 20.8 6.4 33.6 9.8 68.2 20.4 94.8 37.6 6.8 4.6 13.6 8.6 20.4 12.8 14.4 8.6 27.8 17 38.8 26.8 10.2 9.4 69.2 74.2 96 108.8-3 0-6.4-0.4-9.8-0.4-10.2-0.4-20.8-1.2-31.2 0.4-55.4 7.2-135.2 2.6-193.6-29.8-41.8-23.4-72-51.2-106.6-88.8-3-3.4-6-6.4-9-9.8-24.8-27.4-53-58.8-94.8-69.2-11.2-3-23 4.2-26 15.4s4.2 23 15.4 26c29.4 7.6 51.2 31.2 74.6 56.4 3 3.4 6 6.8 9.4 10.2 36.6 39.2 70.4 70.8 117 96.8 57.2 32 139.2 45.2 219.4 35 6.8-0.8 15-0.4 23.8 0 16.2 0.8 34.6 1.8 52.4-5.6 7.2-3 12.4-9.8 14-17.6 1.8-10.2 3.4-20-58.4-90.4-27.4-31.6-58-64-63.6-68.8-14-12.8-30.2-22.2-45.6-31.6-6.8-4.2-12.8-8-18.8-11.6-32-21-71.6-32.8-106.2-43-6.8-1.8-13.6-4.2-20.4-6-11.6-3.8-23.8-6.8-35.4-10.2-9.8-2.6-19.2-5.2-28.2-8-2.4-1.2-4.6-1.6-6.4-1.6v0zM327.2 671.6c-2.2 0-4.2 0-6.4 0.4-11.6 1.8-19.6 13.2-17.4 24.4 1.8 11.2 12 18.8 23.4 17.6 4.2 1.8 11.2 11.6 15 16.2 2.6 3.8 5.2 7.2 8 9.8 18 20 34.6 40.6 49.6 60.2 41 53 97.6 93.8 155.2 111.8 6 1.8 11.6 3.8 17.6 5.6 23 8 47 15.8 72.2 17.4 21.4 1.2 42.2 6.4 64.4 12 10.6 2.6 21 5.2 32 7.6 1.6 0.4 3 0.8 4.8 1.2 12.4 3.4 41 11 53.8-14 10.6-20-3-45.2-13.6-65.6-1.8-3.8-3.8-7.6-4.6-9.4-4.6-11-17-15.8-27.8-11.2s-15.8 17-11.2 27.8c1.6 3.8 3.8 8 6.4 12.8 2.2 4.2 6 11.6 9 18-0.4 0-0.4 0-0.8 0-2.6-0.8-4.8-1.6-7.2-1.8-9.8-1.8-20-4.6-30.2-7.2-23.4-5.6-47-11.6-72.6-13.2-19.6-1.2-39.6-8-61-15-6-2.2-12.4-4.2-18.4-6-48.6-15.4-98.6-51.6-134-97.2-15.8-20.4-32.8-41.8-52-62.8-1.6-1.6-3.4-4.2-5.6-7.2-10.2-11.4-26-32.2-48.6-32.2v0zM261.4 392c-21 0-40.2 7.2-56.8 13.2l-1.8 0.8c-28.6 10.6-58 23.4-80.6 44.8-21.8 21-37.6 58.4 10.6 118.2 8 9.8 16.6 17.6 24.8 25.2 3.8 3.4 7.6 6.8 11 10.2 6.4 6.4 12 14.6 17.6 23.8 6 9 12.4 18.8 20.4 27.4 56 60.6 113 73 156.2 34.2 8.6-8 9.4-21.4 1.8-30.2-8-8.6-21.4-9.4-30.2-1.8-24.4 21.8-56.8 11.2-96.8-31.6-5.6-6-10.6-14-16.2-21.8-6.8-10.6-14-21-23.8-30.4-4.2-4.2-8.2-8-12.4-11.6-7.6-6.8-14.4-13.2-20.4-20.4-33.8-41.8-20-55-14.4-60.6 17-16.2 41.8-26.8 65.8-35.4l1.8-0.8c19.6-7.2 38-14 54.6-8.6 33.2 10.2 44 20.4 45.2 23.4 0.8 11.6 10.6 20.8 22.2 20.4s21-10.2 20.8-22.2c-0.8-26.8-25.6-47-75.6-62.2-7.2-3-15.6-4-23.8-4v0zM1128.8 79.8c-9.8 0-18.8 7.2-21 17.4-6.4 32-2.2 62.8 1.6 92.6 2.2 18.4 4.8 35.4 4.6 52.8v5.4c-0.4 42.6-0.4 76-15 115.2-19.6 52.8-36.2 88-66.6 125.4-26 31.6-72.6 59.2-135.2 79-61 19.6-145.4 17-225.8-7.2l-3.8-1.2c-29.4-8.6-69.6-20.8-101.6-20-35.4 0.8-64 30.2-79.4 57.2-5.6 10.2-1.8 23.4 8.2 29s23.4 1.8 29-8.2c9.8-17.4 27.4-35 43-35.4 25.2-0.4 61.8 10.6 88.4 18.4l3.8 1.2c42.2 12.4 151.4 38.4 250.8 6.8 71.6-23 123.8-54.2 155.4-92.6 37.2-46 56-91.2 73.4-137.4s17.6-85 17.6-129.8v-5.6c0-20-2.6-39.6-4.8-58.4-3.8-27.4-7.2-53.4-2.2-78.6 2.2-11.6-5.2-23-16.6-25.2-1.2-0.8-2.4-0.8-3.8-0.8v0zM419.2 569.2c-1.6 0-3.4 0.4-5.2 0.8-11.2 2.6-18.4 14.4-15.4 26 5.6 23.8 30.2 37.2 52 40.6 11.6 1.8 22.6-6.4 24-18 1.8-11.6-6.4-22.6-18-24-9-1.6-16.2-6.4-16.6-8.2-2.8-10.8-11.4-17.2-20.8-17.2v0zM750.4-60.2c-32.4 0-63.6 1.8-74.6 2.2-5.2 0.4-12.4 0-20 0-29.4-0.8-65.8-1.6-87.4 21-11 11.2-15.8 26.4-14.6 44.4 1.2 18.4 11 36.2 28.6 50.8 23.8 20.4 58.8 32.4 84.8 29.8 26.4-2.6 64.8-8 93.4-21.8 10.6-5.2 15-17.6 10.2-28.6-5.2-10.6-17.6-15-28.6-10.2-23 11-56 15.4-79.4 17.6-12.8 1.2-36.6-6-53-20-8.2-7.2-13.2-14.4-13.6-21-0.4-8.6 1.8-11.2 2.6-12 8.2-8.6 36.8-8.2 55.8-8 8.2 0 16.6 0.4 23.4 0 38-2.2 76.8-3 103.2-1.6 60.6 3 122 3 181 3.4 26.4 0 53.8 0 80.6 0.4 31.2 0.4 56.8 2.2 81.6 10.6 44.8 15 84.8 48.6 101.6 85.4 11.6 26 12.4 52.4 1.6 78.4-8 19.2-23.4 34.6-38.4 39.2-9.4 2.6-18.4 0.8-27.4-5.6-9.4-7.2-23-4.8-29.8 4.6-7.2 9.4-4.8 23 4.6 29.8 19.6 14.4 42.2 18.8 64.4 12.4 27.8-8 53.4-32.4 66.2-64 15-36.8 14.4-75.6-2.2-112.2-21.8-47.8-70.4-89.2-126.8-108.4-30.2-10.2-59.4-12.4-94.8-12.8-27.2-0.4-54.6-0.4-81-0.4-58.8 0-119.4-0.4-179.2-3.4-10.2 0.4-21.4 0-32.8 0v0zM743.6 33.8c-4.2 0-8.6 1.2-12.4 3.8-56 40-89.6 87-96.8 136.6-9.4 63.6 9.8 119.8 55.8 161.8 21 19.6 45.2 30.8 68.2 40.2 11 4.6 23.4-0.8 27.8-11.6s-0.8-23.4-11.6-27.8c-22.2-9-40-18-55.4-32-35.8-33.2-50-75-42.6-124.6 7.2-47.8 47-85 79.4-108 9.8-6.8 12-20.4 4.8-29.8-4-5.2-10.4-8.6-17.2-8.6v0zM889 340.8c-2.6 0-5.6 0.4-8.2 1.8-18.8 8-34.6 8.2-58 8h-1.8c-11.6 0-21.4 9.4-21.4 21.4 0 11.6 9.4 21.4 21.4 21.4h1.8c26 0 47.8 0 75-11.6 11-4.6 15.8-17.4 11.2-27.8-3.8-8.4-11.8-13.2-20-13.2v0zM603.2 262.4c-11.2 0-20.4 8.6-21 20-0.8 10.6-7.6 24.4-18 36.8-7.6 9-6.4 22.6 2.6 30.2s22.6 6.4 30.2-2.6c7.6-9 26-33.6 27.8-61.4 0.8-11.6-8-21.8-20-23-0.4 0-0.8 0-1.6 0v0zM410-64c-23.8 0-50.8 7.2-66.6 28.2-12.8 17-14.4 37.6-4.6 56.8 13.6 26.4 46.6 46.4 77.2 45.6 24.8-0.4 45.6-13.6 56-36.6 4.8-10.6 0.4-23.4-10.2-28.2s-23.4-0.4-28.2 10.2c-3.8 8.2-9.4 12-18 12h-0.4c-14.4 0-32-10.2-38-22.2-3-6-1.6-9.4 0.4-11.6 7.6-9.8 26-12.4 40-11 6.4 0.8 13.2 1.2 20 1.6 23.4 1.6 47 3.4 62.2 14 26.4 18.8 51.2 49.6 67.8 84.8 20.4 42.2 35.4 98.2 24 128.4-4.2 11 1.6 23.4 12.4 27.4 11 4.2 23.4-1.6 27.4-12.4 21-56-14.4-138.2-25.6-161.8-19.6-41.4-49.4-78-81.6-100.8-24.4-17.6-56-20-84-21.8-6.4-0.4-12.8-0.8-18.4-1.6-3.4-1-7.6-1-11.8-1v0zM430.4 32.4c-9.4 0-18 6.4-20.8 16.2-3 11.2 3.8 23 15.4 26 14.4 3.8 23 10.2 25.6 18.8 4.2 13.6-3.4 34.2-19.6 53-9.4 11-22.2 19.6-35.8 28.6-8.6 5.6-17.4 11.6-26 18.8-21.8 18-41.4 40.6-59.4 69.2-28.6 45.2-41.4 86.6-41.4 135.2 0 11.6 9.4 21.4 21.4 21.4v0c11.6 0 21.4-9.4 21.4-21.4 0-40.2 10.2-73.8 34.6-112.2 15.4-24.4 32-44 50.4-59.2 7.2-5.6 14.6-11 23-16.6 15-10.2 30.4-20.8 43.6-36.2 26.4-30.4 36.8-65.6 28.2-93.8-5.2-16.6-18.8-38-55.8-47.4-1.4 0-3.2-0.4-4.8-0.4v0z" />
<glyph unicode="&#xe902;" glyph-name="apparatus" horiz-adv-x="1380" d="M170-34.4h1038.8v-29.6h-1038.8v29.6zM693.4 66.6h29.6v-61.8h-29.6v61.8zM693.4 569.8h29.6v-417.2h-29.6v417.2zM693.4 960h29.6v-234.2h-29.6v234.2zM709.6 582.6c-35.6 0-64.6 29-64.6 64.6s29 64.6 64.6 64.6 64.6-29 64.6-64.6-29-64.6-64.6-64.6v0zM709.6 682.2c-19.4 0-35-15.6-35-35s15.6-35 35-35 35 15.6 35 35-15.6 35-35 35zM444.6 662.6h185.6v-29.6h-185.6v29.6zM439.2 587.2h-126.4c-8 0-14.8 6.8-14.8 14.8v99.6c0 8 6.8 14.8 14.8 14.8h126.4c8 0 14.8-6.8 14.8-14.8v-99.6c0-8-6.8-14.8-14.8-14.8zM327.4 616.8h96.8v70h-96.8v-70zM1011 20.2c-96.4 0-175 78.6-175 175s78.6 175 175 175 175-78.6 175-175c0-96.6-78.6-175-175-175zM1011 340.4c-80.2 0-145.4-65.2-145.4-145.4s65.2-145.4 145.4-145.4c80.2 0 145.4 65.2 145.4 145.4s-65.2 145.4-145.4 145.4v0zM978.8 335.6h-29.6v220.8c0 8 6.8 14.8 14.8 14.8h96.8c8 0 14.8-6.8 14.8-14.8v-215.2h-29.6v200.4h-67.2v-206zM926.2 571.2h169.6v-29.6h-169.6v29.6zM1050 474.2h-80.8c-8 0-14.8 6.8-14.8 14.8v123.8c0 8 6.8 14.8 14.8 14.8h80.8c8 0 14.8-6.8 14.8-14.8v-123.8c0-8-6.8-14.8-14.8-14.8zM984 503.8h51.2v94.2h-51.2v-94.2zM714.4 51.8c-32.8 0-59.8 26.6-59.8 59.8 0 32.8 26.6 59.8 59.8 59.8 32.8 0 59.8-26.6 59.8-59.8s-26.6-59.8-59.8-59.8zM714.4 141.4c-16.6 0-30.2-13.4-30.2-30.2s13.4-30.2 30.2-30.2 30.2 13.4 30.2 30.2-13.4 30.2-30.2 30.2zM756.6-56h-99.6c-8 0-14.8 6.8-14.8 14.8v45.8c0 8 6.8 14.8 14.8 14.8h99.6c8 0 14.8-6.8 14.8-14.8v-45.8c0-8-6.6-14.8-14.8-14.8zM672-26.4h70v16.2h-70v-16.2zM696.2 372c-75.6 0-137.2 61.6-137.2 137.2v136h29.6v-136c0-59.4 48.2-107.6 107.6-107.6s107.6 48.2 107.6 107.6v90.2h29.6v-90.2c0-75.6-61.6-137.2-137.2-137.2v0zM833.4 513.2h-29.6v107.6c0 61.6 50 111.6 111.6 111.6 48 0 90.4-30.4 105.8-75.6l4.8-14-28-9.4-4.8 14c-11.4 33.2-42.6 55.4-77.8 55.4-45.2 0-82-36.8-82-82v-107.6zM588.4 680.2h-29.6v122.4c0 40.6-34.8 70-82.6 70h-1.6c-47 0-85.4-33.6-85.4-75.4v-17.4h-29.6v17.4c0 57.8 51.6 105 115 105h1.6c64 0 112.2-42.8 112.2-99.6v-122.4zM316.6 607.4h29.6v-64.6h-29.6v64.6zM402.8 607.4h29.6v-64.6h-29.6v64.6zM538.6 259h-314.8c-22.8 0-41.8 17.4-41.8 39 0 2.4 0.6 4.8 1.8 7l136.2 252.4 26.2-14-134-248.2c1.6-3.8 6.2-6.8 11.6-6.8h314.8c5.2 0 9.6 2.6 11.6 6.4l-150.2 250.4 25.2 15.4 152.8-254.8c1.4-2.4 2.2-4.8 2.2-7.6 0.2-21.8-18.6-39.2-41.6-39.2v0zM421.8 697.4l-24.8 16.2 15.8 24.4h-74.8l14.2-24.4-25.6-14.8-26.6 46.8c-2.6 4.6-2.6 10.2 0 14.8s7.6 7.2 13 7.2h127.8c5.4 0 10.4-3 13-7.8s2.4-10.4-0.6-15l-31.4-47.4zM346.2 747.4h-29.6v45.8c0 8 6.8 14.8 14.8 14.8h86.2c8 0 14.8-6.8 14.8-14.8v-40.4h-29.6v25.6h-56.6v-31zM794.4 127h406.4v-29.6h-406.4v29.6zM600.6 127h56.6v-29.6h-56.6v29.6zM474.2-56h-188.4c-21.6 0-39 17.4-39 39v70c0 21.6 17.4 39 39 39h188.4c21.6 0 39-17.4 39-39v-70c0-21.4-17.6-39-39-39zM285.8 62.4c-5.2 0-9.4-4.4-9.4-9.4v-70c0-5.2 4.4-9.4 9.4-9.4h188.4c5.2 0 9.4 4.4 9.4 9.4v70c0 5.2-4.4 9.4-9.4 9.4 0 0-188.4 0-188.4 0zM365.2 171.4h29.6v-91.4h-29.6v91.4zM386.6 61.6l-13.2 6.8c-2.4 1-58.6 29.8-56.6 80.2 1.8 46 47.6 96 49.8 98.2l10 10.8 21.8-20.2-10-10.8c-11.6-12.2-41-50-42.2-79.4-1.4-30.6 39.8-52.2 40.4-52.4l13.2-6.8-13.2-26.4zM370.4 61.6l-13.2 26.4 13.2 6.8c0.2 0.2 41.8 21.6 40.4 52.4-1.4 29.4-30.6 67.2-41.8 79.4l-10 10.8 21.8 20.2 10-10.8c1.8-2.2 47.6-52 49.8-98.2 2.2-50.4-54-79.2-56.6-80.2l-13.6-6.8zM837.4 207.8h347.2v-29.6h-347.2v29.6z" />
<glyph unicode="&#xe903;" glyph-name="carbohydrates" horiz-adv-x="1380" d="M820.6 633.6c-2.4 0-4.6 0.6-6.6 1.6l-132.2 68.2c-4.8 2.4-7.8 7.2-8 12.6l-6.4 148.4c-0.2 5.4 2.4 10.2 6.6 13l125.8 80.4c4.6 3 9.8 3.2 14.6 0.8l132.2-68.2c4.8-2.4 7.8-7.2 8-12.6l6.4-148.4c0.2-5.4-2.4-10.2-6.6-13l-126-80.4c-2.6-1.6-5.2-2.4-7.8-2.4v0zM702.4 725.4l117-60.4 111.8 71.6-5.6 131.6-117 60.4-111.4-71.4 5.2-131.8zM952.4 417.2c-2.4 0-4.8 0.6-7 1.6l-131.2 70.2c-4.6 2.4-7.8 7.2-7.8 12.6l-4.2 148.8c-0.2 5.4 2.4 10.2 7 12.8l127 78.4c4.6 2.6 10.2 3 14.6 0.6l131.2-70c4.6-2.4 7.8-7.2 7.8-12.6l4.2-148.8c0.2-5.4-2.4-10.2-7-12.8l-127-78.4c-2.2-1.6-4.8-2.4-7.6-2.4v0zM835.6 511l116.2-62 112.6 69.8-3.8 131.6-116.2 62-112.8-69.8 4-131.6zM824.6 187.4c-2.4 0-4.8 0.6-7.2 1.8l-130.4 71.8c-4.6 2.6-7.4 7.4-7.4 12.6l-2.4 148.8c0 5.4 2.6 10.2 7.2 12.8l128 76.8c4.6 2.6 10.2 3 14.6 0.2l130.4-71.8c4.6-2.6 7.4-7.4 7.4-12.6l2.4-148.8c0-5.4-2.6-10.2-7.2-12.8l-128-76.8c-2.2-1.2-4.8-2-7.4-2v0zM708.8 282.6l115.4-63.6 113.6 68.4-2.2 131.6-115.4 63.6-113.6-68.4 2.2-131.6zM561.2 175.8c-2.4 0-4.8 0.6-7.2 1.8l-134 74.2c-4.6 2.6-7.4 7.4-7.4 12.6l-1.8 153.2c0 5.4 2.6 10.2 7.2 12.8l132.2 78.8c4.6 2.6 10.2 2.6 14.6 0.2l134-74.2c4.6-2.6 7.4-7.4 7.4-12.6l1.8-153.2c0-5.4-2.6-10.2-7.2-12.8l-132.2-78.8c-2.4-1.2-5-2-7.4-2v0zM441.6 273.4l119.2-66.2 117.6 70.2-1.6 136.2-119.2 66.2-117.6-70.2 1.6-136.2zM433.4-50.6c-2.4 0-4.8 0.6-7 1.8l-130.4 71.6c-4.6 2.6-7.4 7.4-7.4 12.6l-2.4 148.8c0 5.4 2.6 10.2 7.2 12.8l128 77.2c4.6 2.6 10.2 3 14.6 0.2l130.4-71.6c4.6-2.6 7.4-7.4 7.4-12.6l2.4-148.8c0-5.4-2.6-10.2-7.2-12.8l-128-77.2c-2.6-1.4-5-2-7.6-2v0zM317.4 44.2l115.4-63.6 113.4 68.4-2.2 131.6-115.4 63.6-113.2-68.2 2-131.8zM141.6 274l16.8 24 149.8-105.6-16.8-24c0 0.2-149.8 105.6-149.8 105.6zM131.8-38.2l159 85.8 13.8-25.8-159-85.8c0.2 0.2-13.8 25.8-13.8 25.8zM806.8 216.8l29.2 0.2 1-181.8-29.2-0.2-1 181.8zM1066.2 498.6l13.4 26 168.4-86-13.4-26-168.4 86zM1056.8 664.4l156 81.6 13.6-26-156-81.6-13.6 26zM760.2 827.6l-15.4 25 69 42.8 66.8-36-14-25.8-51.6 28-54.8-34zM896.8 604l-15.4 25 68.6 42.8 66.8-36-13.8-25.8-51.8 28-54.4-34zM768.2 380.6l-15.6 25 69 42.8 66.8-36-13.8-25.8-51.8 28-54.6-34zM507.6 372.8l-15.4 24.8 69 42.8 66.8-36-13.8-25.8-51.8 28-54.8-33.8zM373.6 138.8l-15.4 25 69 42.8 66.8-36-13.8-25.8-51.8 28-54.8-34z" />
<glyph unicode="&#xe904;" glyph-name="catalog" horiz-adv-x="1380" d="M752.2-64c-14.2 0-33.4 1.8-57.2 7.6-9.4 2.4-34.4 10.8-81.6 26.4-89.2 30-298.6 100-329 95.8-19.6-2.8-43.6-10.4-71.8-22.6-10.4-4.6-23 0-27.6 10.8-4.6 10.4 0 23 10.8 27.6 31.4 14 59.2 22.6 82.6 25.8 33.8 4.6 153-32.4 348-97.6 37.6-12.6 70-23.4 78.4-25.4 37.6-9.4 60.6-5.6 63.8-5.2 55.8 17.4 116.4 70.4 200.4 143.2 40.8 35.6 87.2 75.6 141.8 119.8 27.2 22 50.8 41.2 70.8 56.8 25.4 20.6 48 38.4 55.4 45 0.4 2 0.4 6.6-2.4 10.4-5.6 8-21 12.6-41.4 12.2-43.2-0.6-188.4-91.6-309.8-180.8-39.4-29-61-50.2-61.4-50.6-8.4-8-21.6-8-29.6 0.4s-8 21.6 0.4 29.6c1 1 23.6 23.4 65.8 54.4 60 44 260.6 187.8 333.8 189.2 56.4 1 75.6-24.8 82.2-40 7.6-18.4 5.2-40.8-6-52-5.6-5.6-22.6-19.2-60.6-49.8-19.6-15.6-43.6-34.8-70.4-56.4-54-43.6-100-83.6-140.4-118.8-88.2-76.6-152-132-216.4-152-0.4 0-0.6-0.4-1-0.4-1.8-1.4-11.2-3.4-27.6-3.4v0zM152.2 11.2c-10.8 0-17 9-17.4 9.8-1.8 2.8-10.2 17.8 8.8 30.6 9.4 6.6 22.6 4.2 29-5.6 5.2-7.4 4.8-17-0.4-24-1.8-2.8-4.2-4.8-7-6.6-5-3.2-9.2-4.2-13-4.2v0zM651.6 960h168v-41.8h-168v41.8zM1030.6 494.8h-603.2v465.2h188.6v-41.8h-146.6v-381.6h519.4v381.6h-133.8v41.8h175.6v-465.2zM821.2 753.4h-171v206.6h171v-206.6zM692.2 795.2h87.4v123h-87.4v-123zM939 330l-22.2 35.2 17.8 11.2c10.4 6.6 20.2 12.8 28.6 18.4 42.6 27.6 70.4 46 107 40.8 48.8-6.6 76-49.2 77-51.2l11.2-17.8-35.6-22.2-11.2 17.8c-0.6 1-18.8 28.2-47.4 32-20.2 2.8-37.6-8-78.4-34.4-8.8-5.6-18.4-12.2-29.2-18.8l-17.6-11zM757 195.2c-81.2 0-174.2 3.8-202 4.8-11.4 0.4-20.6 10.2-19.8 21.6 0.4 11.4 10.2 20.6 21.6 19.8 115.4-4.8 289.6-8 314.6 0.6 14.6 5.2 23.6 20.6 23.6 41.4 0 17.8-21 28.2-30.4 32-27.2 9-390.2 71.4-462.4 54.8-34.8-8-135.8-50.8-215.4-87.2-10.4-4.8-23-0.4-27.8 10.4-4.8 10.4-0.4 23 10.4 27.8 17 8 169.6 77.4 223 89.8 85.8 20.2 463-46.6 487.4-56.4 35.8-14.2 56.8-40 56.8-70.8 0-39-19.8-70-51.6-81.2-17.4-5.2-69.8-7.4-128-7.4v0zM122.2 255.2c-15 0-19.8 13.2-19.8 14-0.6 1.8-6 18.4 13.2 27.6 10.4 4.8 23 0.4 27.8-10.2 1-1.8 1.4-3.8 1.8-6 2-10.8-4.6-21.2-15.4-24-2.6-1.2-5.4-1.4-7.6-1.4v0zM804.4 131.8c-4.2 0-8.4 1.4-12.2 3.8-21.2 15.4-78.8 46.4-111.4 60-10.8 4.6-15.6 16.8-11.2 27.2 4.6 10.8 16.8 15.6 27.2 11.2 32.4-13.6 94.4-46 119.8-64.8 9.4-6.6 11.4-19.8 4.6-29.2-3.8-5-10.2-8.2-16.8-8.2v0z" />
<glyph unicode="&#xe905;" glyph-name="contact" horiz-adv-x="1380" d="M760.7-0.006c-0.7 0-1.050 0-1.925 0-9.8 0.7-18.026 7.876-20.3 17.326l-93.452 390.78c-1.925 7.526 0.35 15.4 5.6 20.65l440.656 460.256c7.526 7.876 19.426 9.45 28.526 3.325 8.926-5.95 12.776-17.326 8.576-27.3l-346.679-851.21c-3.675-8.576-12.076-13.826-21-13.826v0zM692.1 406.524l74.2-310.978 275.978 677.082-350.18-366.104zM280.67 473.726c-8.576 0-16.8 4.9-20.65 13.126-5.25 11.2 0 24.676 11.2 29.576l824.784 372.054c11.2 5.25 24.676 0 29.576-11.2 5.25-11.2 0-24.676-11.2-29.576l-824.434-372.054c-2.975-1.575-5.95-1.925-9.276-1.925v0zM666.55 399.35c-1.575 0-2.625 0-4.2 0.35l-394.104 72.8c-12.426 2.275-20.3 13.826-18.026 26.25s13.826 20.3 26.25 18.026l394.28-72.8c12.426-2.275 20.3-13.826 18.026-26.25-1.925-10.85-11.726-18.376-22.226-18.376v0z" />
<glyph unicode="&#xe906;" glyph-name="distributor" horiz-adv-x="1380" d="M988.2 629.6c-65.6 0-118.8 53.4-118.8 118.8 0 65.6 53.4 118.8 118.8 118.8 15.4 0 30.4-2.8 44.8-8.6 11.2-4.6 16.2-17.2 11.8-28-4.6-11.2-17.2-16.2-28-11.8-9 3.6-18.6 5.8-28.8 5.8-41.6 0-75.8-34-75.8-75.8s34-75.8 75.8-75.8 75.8 34 75.8 75.8c0 0.8 0 1.4 0 2.2-0.4 11.8 9 21.8 20.8 22.2 11.8 0 21.8-9 22.2-20.8 0-1 0-2.2 0-3.2 0.2-66.2-53.2-119.6-118.6-119.6v0zM1067.8 783.2c-1 0-2.2 0-2.8 0.4-6 0.8-11.2 4-14.8 9-6.8 9.6-4.6 23 5 30.2 2.6 1.8 5.8 3.2 8.6 3.6 3.6 1 7.2 0.8 9.4 0.4 6-1 11.4-4.6 15-9.6 6.4-10 4-23.4-6-29.8-2.6-1.8-5.4-2.8-8.2-3.2-3-0.8-4.6-1-6.2-1v0zM1092.2 590.8c-6.4 0-13 2.8-16.8 8.2-7.2 9.4-5.8 23 3.6 30.2 39.4 30.8 62 77.2 62 127 0 88.6-72.2 160.8-160.8 160.8s-160.8-72.2-160.8-160.8c0-48 21.2-93.2 58.2-123.8 9.4-7.6 10.4-21.2 2.8-30.2s-21.2-10.4-30.2-2.8c-47 38.8-74 96.2-74 156.8 0.4 112.4 91.8 203.8 204.2 203.8s203.8-91.4 203.8-203.8c0-63.6-28.8-122-78.6-161-4.4-3-9-4.4-13.4-4.4v0zM979.6 471c-5.8 0-11.4 2.6-15.8 6.8l-124.6 131c-8.2 8.6-7.8 22.2 0.8 30.4s22.2 7.8 30.4-0.8l108.8-114.4 131.4 141.8c8.2 8.6 21.6 9.4 30.4 1 8.6-8.2 9.4-21.6 1-30.4l-147.2-159c-3.8-4-9-6.4-15.2-6.4v0 0zM681.4-64c-11.8 0-21.6 9.6-21.6 21.6l-5.4 910.6c0 11.8 9.6 21.6 21.6 21.6v0c11.8 0 21.6-9.6 21.6-21.6l5.4-910.6c0-12-9.8-21.6-21.6-21.6v0zM778.6 842.6l-21.2 4.4c-4 0.8-7.2 1.4-10.4 2.2-8.2 1.8-14 3.2-23.6 4.4l-21.4 2.4 4.6 42.6 21.6-2.6c11.8-1.4 19.4-2.8 28.4-5 2.8-0.8 6-1.4 10-2.2l21.2-4.4-9.2-41.8zM221.8 334c-10.8 0-19.8 7.8-21.2 18.6-2.8 21.6-4.4 43.8-4.4 65.6-0.2 265.6 215.8 481.6 481 481.6 8.2 0 16.8-0.4 25.2-0.8 11.8-0.8 21.2-10.8 20.4-22.6s-10.8-20.8-22.6-20.4c-7.6 0.4-15.4 0.8-23 0.8-241.4 0-438-196.6-438-438 0-20 1.4-40.2 4-60 1.4-11.8-6.4-22.6-18.2-24.4-1.4-0.2-2-0.4-3.2-0.4v0zM230.8 271.8c-9.6 0-18.2 6.4-20.8 16.6-2.2 8.6 0.4 16.8 6.4 22.2 0.4 0.4 0.4 0.4 0.8 0.8 2.8 2.6 6.2 4.6 10.4 5.8 11.4 2.6 23-4.6 25.8-16.2 1.8-8.2-0.8-16.6-6.8-22.2l-0.4-0.4c-2.6-2.6-6-4.6-10-5.8-1.8-0.4-3.6-0.8-5.4-0.8v0zM677.2-63c-192.4 0-366 114-442 291-4.6 10.8 0.4 23.6 11.2 28.4 10.8 4.6 23.6-0.4 28.4-11.2 69.2-160.8 227.4-264.8 402.6-264.8 241.4 0 438 196.6 438 438 0 22.6-1.8 45.2-5 67-1.8 11.8 6 22.6 18 24.4s22.6-6.2 24.4-18c3.6-24 5.8-49.2 5.8-73.6-0.4-265.2-216-481.2-481.4-481.2v0zM1115.2 527c-8.2 0-16.8 4.4-20.8 15.4-1.4 4-1.4 7.6-0.8 11.4 1 12.2 11.2 18 16.8 19 9.4 2.2 21.2-2.2 25.4-15.4 1-3.6 1.4-6.8 0.8-10.4-1-12.2-10.4-18-16.6-19.4-1.6-0.4-3-0.6-4.8-0.6v0zM1137.4 398.8h-919.2c-11.8 0-21.6 9.6-21.6 21.6s9.6 21.6 21.6 21.6h919.2c11.8 0 21.6-9.6 21.6-21.6s-9.6-21.6-21.6-21.6zM622.6-11.2c-2.8 0-5.8 0.4-8.2 1.8-31.2 13-168 151-204.2 346.2-15.4 83.2-9.6 165.8 16.2 245 30.8 93.6 90.8 182.6 178.4 265.6 8.6 8.2 22.2 7.8 30.4-0.8s7.8-22.2-0.8-30.4c-147.8-140-209.8-294.2-184-458.8 29-185.2 160.4-317.6 180.4-326.8 11.2-4.6 16.2-17.2 11.4-28-3-8.8-11-13.8-19.6-13.8v0zM744.6-13.8c-8.6 0-16.6 5-19.8 13.2-4.6 11.2 0.8 23.6 11.4 28 9 4.4 63.6 51.4 114.8 136 42.4 70 90.4 180.4 79.2 307.8-1 11.8 7.8 22.2 19.8 23.4s22.2-7.8 23.4-19.8c12.2-140.2-40.6-260.2-86.8-336.2-50.2-82.6-111.2-142-133.8-151.4-2.4-0.6-5.4-1-8.2-1v0zM783.4 785.2c-5.8 0-11.2 2.2-15.4 6.4-6.8 7.2-14.4 14.4-21.8 21.6-8.6 8.2-9 21.8-0.8 30.4s21.8 9 30.4 0.8c7.8-7.6 15.8-15 23-22.6 8.2-8.6 8.2-22.2-0.4-30.4-4-4-9.4-6.2-15-6.2zM660.6 551c-59.6 0-122 9-186.6 27-107.2 29.8-181.2 73.2-184 75-10.4 6.2-13.6 19.4-7.6 29.4 6.2 10.4 19.4 13.6 29.4 7.6v0c2.8-1.8 287.4-166.4 531.4-60 10.8 4.6 23.6-0.4 28.4-11.2s-0.4-23.6-11.2-28.4c-60.2-26.2-127.6-39.4-199.8-39.4v0zM1054.2 145.2c-3.2 0-6.2 0.8-9 2.2-189 88.2-377.8 84.4-503 65.4-135.6-20.4-227.2-62-227.8-62.4-10.8-5-23.6-0.4-28.8 10.4-5 10.8-0.4 23.6 10.4 28.8 4 1.8 98 44.4 239.6 66 131 19.8 328.6 23.6 527.8-69.2 10.8-5 15.4-18 10.4-28.8-3.4-7.8-11.4-12.4-19.6-12.4v0z" />
<glyph unicode="&#xe907;" glyph-name="order" horiz-adv-x="1380" d="M676.25 294.55c-29.975 0-54.725 24.475-54.725 54.725 0 29.975 24.475 54.725 54.725 54.725 12.375 0 24.475-4.4 34.1-12.1 7.7-6.050 8.8-17.325 2.75-25.025s-17.325-8.8-25.025-2.75c-2.475 1.925-6.325 4.125-11.825 4.125-10.45 0-18.975-8.525-18.975-18.975s8.525-18.975 18.975-18.975c9.35 0 17.325 6.875 18.7 16.225 1.375 9.9 10.45 16.775 20.075 15.4 9.9-1.375 16.5-10.45 15.4-20.075-3.575-26.95-26.95-47.3-54.175-47.3v0zM857.063 408.262h-233.475l-95.563 209.825h-77.275v35.75h100.513l95.288-209.825h210.65l-0.137-35.75zM592.238 607.775h318.587v-35.75h-318.587v35.75zM624.138 553.6h257.4v-35.75h-257.4v35.75zM647.1 496.537h218.625v-35.75h-218.625v35.75zM809.212 294.55c-29.975 0-54.725 24.475-54.725 54.725 0 29.975 24.475 54.725 54.725 54.725 9.075 0 17.875-2.2 25.85-6.6 8.8-4.675 11.825-15.4 7.15-24.2s-15.4-11.825-24.2-7.15c-2.75 1.375-5.775 2.2-8.8 2.2-10.45 0-18.975-8.525-18.975-18.975s8.525-18.975 18.975-18.975 18.7 8.525 18.975 18.7c0 9.9 7.975 17.875 17.875 17.875v0c9.9 0 17.875-7.975 17.875-17.875-0.275-30.25-24.75-54.45-54.725-54.45v0zM267.875 601.175h-33v16.5l16.5 0.55 16.5-0.55v-16.5zM267.875 618.225h-33v17.875h33v-17.875zM1145.125 160.763h-910.25v414.837h33v-381.837h844.112v573.237h-844.113v-107.938h-33v140.938h910.25v-639.237zM483.475 129h417.175v-33h-417.175v33z" />
<glyph unicode="&#xe908;" glyph-name="protocol" horiz-adv-x="1380" d="M703.351 133.749h-477.15v673.95h419.25v-29.7h-389.55v-614.55h417.9v605.25h29.7v-634.95zM734.4 807.7h121.351v-29.7h-121.351c0 0.151 0 29.7 0 29.7zM1150.95 133.749h-477.15v634.95h29.7v-605.25h417.9v614.7h-79.5v29.551h109.2l-0.151-673.95zM891 613.9c-3.751 0-7.8 1.651-10.5 4.351s-4.351 6.451-4.351 10.5 1.651 7.8 4.351 10.5 6.451 4.351 10.5 4.351c3.751 0 7.8-1.651 10.5-4.351s4.351-6.451 4.351-10.5c0-3.751-1.651-7.8-4.351-10.5-2.851-2.7-6.751-4.351-10.5-4.351zM1009.351 447.549c-3.451 0-7.051 1.351-9.9 3.751l-48.3 42.9-50.7-43.2c-4.351-3.751-10.5-4.651-15.9-2.1-5.1 2.4-8.7 7.5-8.7 13.5v121.651c0 8.1 6.751 14.851 14.851 14.851s14.851-6.751 14.851-14.851v-89.551l36.151 30.751c5.7 4.8 13.951 4.651 19.351-0.3l33.451-29.7v307.051h-88.951v-134.851c0-8.1-6.751-14.851-14.851-14.851s-14.851 6.751-14.851 14.851v149.7c0 8.1 6.751 14.851 14.851 14.851h118.651c8.1 0 14.851-6.751 14.851-14.851v-354.75c0-6-3.451-11.1-8.7-13.5-2.1-0.751-4.051-1.351-6.151-1.351zM690.151 64c-25.351 0-48.451 13.951-60.151 36.6-3.751 7.351-0.751 16.2 6.451 19.951s16.2 0.751 19.951-6.451c6.451-12.6 19.351-20.551 33.751-20.551 13.951 0 27 7.8 33.451 20.251 3.751 7.351 12.6 9.9 19.951 6.151s9.9-12.6 6.151-19.951c-11.551-22.2-34.5-36-59.551-36v0zM653.549 93.4h-475.8v687.45h74.1v-29.7h-44.4v-628.050h446.1v-29.7zM1202.1 90.7h-475.8v29.7h446.1v622.65h-36.451v29.7h66l0.151-682.050zM686.7 741.1l-58.8 42 17.551 24.3 42.6-30.751 49.351 30.451 15.3-25.351-66-40.651zM327.3 689.2h272.251v-29.7h-272.251c0 0 0 29.7 0 29.7zM327.3 592.151h272.251v-29.7h-272.251c0 0 0 29.7 0 29.7zM327.3 508.451h272.251v-29.7h-272.251c0 0.151 0 29.7 0 29.7zM327.3 430.3h272.251v-29.7h-272.251c0 0.151 0 29.7 0 29.7zM327.3 346.749h272.251v-29.7h-272.251c0 0 0 29.7 0 29.7z" />
<glyph unicode="&#xe909;" glyph-name="quote" horiz-adv-x="1380" d="M1078 636.4l-34.8 14.8 14.2 33.4-498.4 225.8c-11.6-24.4-33.6-72-55.4-119.8l-7.8-17.2-34.6 15.4 7.8 17.2c31 68.6 63.2 136.6 63.8 137.2l7.8 16.8 566.2-256.2-28.8-67.4zM465.4 707.2l-34.2 15.6 0.6 1.4 7.8 17.4 8.4 18.6 34.2-15.6-7.8-17.2c-0.2-0.6-0.6-0.8-0.6-1.4v0-0.2c-0.2-0.6-0.2-0.8-0.6-1.4l-7.8-17.2zM759.6-64l-566.6 256.6 7.8 17.2c1.2 2.6 119.6 263.8 213 470.4l7.8 17.2 34.2-15.6-7.8-17.2c-79.6-176.2-177.2-391.8-205.4-453.2l498.2-225.4 154.4 334.6 34.2-15.6-169.8-369zM570.8 731.4l15.6 34.4 348.8-157.8-15.6-34.4-348.8 157.8zM491.2 554.2l15 34.6 274.8-118.8-15-34.6-274.8 118.8zM451.2 467.8l16 34.2 213.6-100.2-16-34.2-213.6 100.2zM411.8 380.2l16.2 34 169.8-80.6-16.2-34-169.8 80.6zM370.6 288.2l15.4 34.4 181-80.8-15.4-34.4c0 0-181 80.8-181 80.8zM659.6 196c-16.6 0-46.2 2.4-55.8 17.2-10.2 15.6-2.6 42 5.6 61.2 5.2 11.8 19.4 41.4 42.6 57.4 29.6 20.6 404.8 291 408.6 293.6 8.4 6 20.4 4 26.4-4.4l60.6-83.8c3-4 4-9 3.4-14-0.8-5-3.4-9.2-7.6-12.2-15.4-11-373.8-270.2-409.4-294.8-25.4-17.6-57.6-20.2-74.4-20.2v0zM636.6 235.8c5-1.2 12.8-2.4 23-2.4 21.4 0 40.6 5 53.2 13.6 31 21.8 323 232.4 393.4 283.4l-38.6 53.6c-72-52-367-264.4-393.8-283.2-20-13.6-35.2-49.4-37.2-65v0zM1117.4 532.6c-5.8 0-11.6 2.6-15.4 7.8-6 8.4-4.4 20.4 4 26.4l38.4 27.8-0.8 3-39.8-27.6c-8.8-5.8-20.4-3.8-26.2 4.6-5.8 8.8-3.8 20.4 4.6 26.2l60 41.4c5 3.4 11 4.4 16.6 2.4 5.6-1.8 10.2-6 11.8-11.8l13.6-39.4c2.6-7.8 0-16.6-6.6-21.4l-49.4-36.2c-2.8-2-7-3.2-10.8-3.2v0zM961.4 324.8c-2 0-4 0.2-6 0.8l-22 7.6c-9.8 3.4-15 14.2-11.6 24s14.2 15 24 11.6l12.8-4.4 157.2 113.8-0.8 47.6c-0.2 10.4 8.2 19.2 18.6 19.2 10.4 0.2 19.2-8.2 19.2-18.6l1.2-57.4c0-6-3-12.2-7.8-15.6l-173.6-125.4c-3.4-2-7.2-3.2-11.2-3.2v0zM853.4 318.2c-5.8 0-11.6 2.6-15.4 7.8l-53.6 74.2c-6 8.4-4 20.4 4.4 26.4s20.4 4.4 26.4-4.4l53.6-74.2c6-8.4 4-20.4-4.4-26.4-3.4-2.2-7.2-3.4-11-3.4v0zM601 192c-6 0-11.8 3-15.6 8.2-5.8 8.8-3.8 20.4 5 26.2l18.2 12.4c8.8 5.8 20.4 3.8 26.2-5s3.8-20.4-5-26.2l-18.2-12.4c-3-2.4-6.8-3.2-10.6-3.2v0z" />
<glyph unicode="&#xe90a;" glyph-name="request" horiz-adv-x="1380" d="M698.925 0.35h-373.8v895.65h728.176v-192.5h-36.4v156.1h-655.375v-822.85h337.4v-36.4zM854.675 0.35h-80.85v36.4h44.275v219.45l197.925-0.875v365.575h36.4v-402.325l-197.925 0.875 0.175-219.1zM824.225 24.325l202.65 224.525 27.125-24.325-202.65-224.525-27.125 24.325zM543.35 407.225h357.7v-36.4h-357.7c0-0.175 0 36.4 0 36.4zM543.35 484.050h357.7v-36.4h-357.7c0-0.175 0 36.4 0 36.4zM543.35 330.4h357.7v-36.4h-357.7c0-0.175 0 36.4 0 36.4zM543.35 251.125h250.425v-36.4h-250.425c0 0 0 36.4 0 36.4zM649.050 759.325h84.7v-36.4h-84.7v36.4zM814.95 560.875h-251.825v198.45h81.025v-36.4h-44.625v-125.65h178.85v125.65h-41.825v36.4h78.4v-198.45zM734.8 659.75h-85.925v99.575h85.925v-99.575zM685.275 696.15h13.125v26.775h-13.125v-26.775zM481.75 485.45h39.55v-36.4h-39.55v36.4zM481.75 408.1h39.55v-36.4h-39.55v36.4zM481.75 330.925h39.55v-36.4h-39.55v36.4zM481.75 250.775h39.55v-36.4h-39.55v36.4zM713.45 36.75h39.55v-36.4h-39.55v36.4zM1016.55 681.275h36.4v-39.55h-36.4v39.55z" />
<glyph unicode="&#xe90b;" glyph-name="support" horiz-adv-x="1380" d="M877.6 412.4h-307.2c-9.6 0-17.6 7.8-17.6 17.6 0 9.6 7.8 17.6 17.6 17.6h307.4c9.6 0 17.6-7.8 17.6-17.6s-8.2-17.6-17.8-17.6zM539 708.6v0h-258.4c-9.6 0-17.6 7.8-17.6 17.6 0 9.6 7.8 17.6 17.6 17.6v0h258.4c9.6 0 17.6-7.8 17.6-17.6 0.2-9.6-8-17.6-17.6-17.6zM776.2 206c-39 0-70.4 31.6-70.4 70.4s31.6 70.4 70.4 70.4 70.4-31.6 70.4-70.4c0.2-38.6-31.4-70.4-70.4-70.4v0zM776.2 312c-19.4 0-35.6-15.8-35.6-35.6 0-19.4 15.8-35.6 35.6-35.6 19.4 0 35.6 15.8 35.6 35.6 0 19.4-16 35.6-35.6 35.6v0zM569.8 44.2c-39 0-70.4 31.6-70.4 70.4s31.6 70.4 70.4 70.4c39 0 70.4-31.6 70.4-70.4s-31.6-70.4-70.4-70.4zM569.8 150.2c-19.4 0-35.6-15.8-35.6-35.6 0-19.4 15.8-35.6 35.6-35.6 19.4 0 35.6 15.8 35.6 35.6-0.2 19.6-16.2 35.6-35.6 35.6zM869.2 46.4c-27.2 0-49.4 22.2-49.4 49.4s22.2 49.4 49.4 49.4 49.4-22.2 49.4-49.4-21.8-49.4-49.4-49.4v0zM869.2 119c-12.6 0-23.2-10.6-23.2-23.2s10.6-23.2 23.2-23.2 23.2 10.6 23.2 23.2-10.2 23.2-23.2 23.2zM421 496.8h-89.4c-9.2 0-17 7.8-17 17s7.8 17 17 17h89.4c9.2 0 17-7.8 17-17s-7.4-17-17-17zM361 196.4c-1.8 0-3.8 0.4-5.6 1-39 14-42 70.4-42.4 77 0 0.4 0 0.4 0 0.6v374.8c0 9.2 7.8 17 17 17s17-7.8 17-17v-374.8c0.6-13 5.8-41.2 19.4-45.8 9-3 13.6-13 10.6-21.6-2.6-7-9.2-11.2-16-11.2v0zM632.8 540.2c-9.2 0-17 7.8-17 17v178.8c0 9.2 7.8 17 17 17s17-7.8 17-17v-179c0-9.4-7.8-16.8-17-16.8v0zM815.2 540.2c-9.2 0-17 7.8-17 17v178.8c0 4.4 1.6 8.4 4.4 11.4l31.4 35.2h-265c-9.2 0-17 7.8-17 17s7.8 17 17 17h303c6.8 0 12.6-4 15.4-10.2s1.6-13.2-2.8-18.2l-52.6-58.8v-172.6c0.2-9.2-7.6-16.6-16.8-16.6v0zM471 666.8h34v-279.8h-34v279.8zM494 644.6c-3.4 0-7.2 1-9.8 3-8 5.6-9.8 16.4-4.4 24.4l45.2 65c5.6 8 16.4 9.8 24.4 4.4 8-5.6 9.8-16.4 4.4-24.4l-45.4-65c-3.6-4.8-9.2-7.4-14.4-7.4v0zM1023.2-64v0c-40.6 0-80.6 0-120.8 0h-436.2c-14.2 0-33.8 0-46 1-41.4 3.8-62.2 18-78.8 54.4-16.6 35.8-11.4 75.4 15.2 118.2 36.2 57.8 70.4 118.2 103.6 176.8 16.6 29.4 34 59.6 51 89.4 17.4 30 35.2 60 52.6 89.4 17.4 29 35.2 59 52.6 88.8 4.6 8 15.2 10.8 23.2 6.2s10.8-15.2 6.2-23.2c-17.4-30-35.2-60-52.6-89s-35.2-59-52.6-89c-17-29.4-34.4-59.6-51-89-33.4-58.8-67.8-119.6-104.2-178-20.4-32.4-24.8-60.6-13-85.6 11.8-25.6 21.4-32.2 51-34.6 10.8-1 29.4-1 43-1h436.2c40.2 0 80.6 0 120.8 0v0c20.8 0 38.6 9.8 49.4 27.6 13.2 21.6 12.6 51.4-1.6 78.6-4.6 9.2-10.2 17.6-15.8 26.2-4 6.2-8.4 12.6-12.4 20-6.2 10.6-12.4 21-18.6 31.6s-12.4 21-18.6 31.8c-32.2 54.8-64 109.4-96.2 164.2-24.8 42-49.2 83.8-73.8 125.8-10.2 17.6-20.8 35.6-31.6 53.2h-48.2c-9.2 0-17 7.8-17 17s7.8 17 17 17h58c5.8 0 11.4-3 14.6-8 12.4-20.4 24.8-41.4 36.8-61.8 24.8-42 49.2-84 73.8-125.8 32.2-54.8 64.4-109.4 96.2-164.4 6.2-10.6 12.4-21 18.6-31.6s12.4-21 18.6-31.6c3.8-6.4 7.8-12.6 11.8-18.8 5.8-9 11.8-18.2 17.4-29 19.8-38 19.8-80 0.4-112-17.4-29-45.8-44.8-79-44.8v0zM800 855.2v34h34v-34c-34 0 0 0-34 0zM738.2 855.2v34h34v-34c-34 0 0 0-34 0zM676.4 855.2v34h34v-34c-34 0 0 0-34 0zM614.6 855.2v34h34v-34c-34 0 0 0-34 0zM739.8 926v34h34v-34c-34 0 0 0-34 0zM678.2 926v34h34v-34c-34 0 0 0-34 0zM672.6 566.8h43.4v-34h-43.2l-0.2 34zM405.2 668.8h61.8v-34h-61.8v34z" />
<glyph unicode="&#xe90c;" glyph-name="synthetic" horiz-adv-x="1380" d="M1135.2 333.4c-33.4 0-60.8 27.4-60.8 60.8s27.4 60.8 60.8 60.8c33.4 0 60.8-27.4 60.8-60.8s-27.2-60.8-60.8-60.8zM1135.2 423c-16 0-28.8-12.8-28.8-28.8s12.8-28.8 28.8-28.8 28.8 12.8 28.8 28.8-13 28.8-28.8 28.8zM1135.2 64.6c-33.4 0-60.8 27.4-60.8 60.8s27.4 60.8 60.8 60.8c33.4 0 60.8-27.4 60.8-60.8 0-33.8-27.2-60.8-60.8-60.8zM1135.2 154.2c-16 0-28.8-12.8-28.8-28.8s12.8-28.8 28.8-28.8 28.8 12.8 28.8 28.8c0 15.6-13 28.8-28.8 28.8zM917-55c-33.4 0-60.8 27.4-60.8 60.8s27.4 60.8 60.8 60.8c33.4 0 60.8-27.4 60.8-60.8s-27.2-60.8-60.8-60.8zM917 34.6c-16 0-28.8-12.8-28.8-28.8s12.8-28.8 28.8-28.8 28.8 12.8 28.8 28.8c0 15.8-13 28.8-28.8 28.8zM699 64.6c-33.4 0-60.8 27.4-60.8 60.8s27.4 60.8 60.8 60.8 60.8-27.4 60.8-60.8c0-33.8-27.4-60.8-60.8-60.8zM699 154.2c-16 0-28.8-12.8-28.8-28.8s12.8-28.8 28.8-28.8 28.8 12.8 28.8 28.8c0 15.6-12.8 28.8-28.8 28.8zM687 321.4c-33.4 0-60.8 27.4-60.8 60.8s27.4 60.8 60.8 60.8 60.8-27.4 60.8-60.8-27.4-60.8-60.8-60.8zM687 411c-16 0-28.8-12.8-28.8-28.8s12.8-28.8 28.8-28.8 28.8 12.8 28.8 28.8-12.8 28.8-28.8 28.8zM465.8 455.8c-33.4 0-60.8 27.4-60.8 60.8s27.4 60.8 60.8 60.8 60.8-27.4 60.8-60.8-27.2-60.8-60.8-60.8zM465.8 545.4c-16 0-28.8-12.8-28.8-28.8s12.8-28.8 28.8-28.8 28.8 12.8 28.8 28.8-13 28.8-28.8 28.8zM463-64c-33.4 0-60.8 27.4-60.8 60.8s27.4 60.8 60.8 60.8 60.8-27.4 60.8-60.8c0-33.4-27.4-60.8-60.8-60.8zM463 25.6c-16 0-28.8-12.8-28.8-28.8s12.8-28.8 28.8-28.8 28.8 12.8 28.8 28.8-13.2 28.8-28.8 28.8zM247.8 73.4c-33.4 0-60.8 27.4-60.8 60.8s27.4 60.8 60.8 60.8c33.4 0 60.8-27.4 60.8-60.8s-27.4-60.8-60.8-60.8zM247.8 163.2c-16 0-28.8-12.8-28.8-28.8s12.8-28.8 28.8-28.8 28.8 12.8 28.8 28.8c0 15.8-12.8 28.8-28.8 28.8zM244.8 324.6c-33.4 0-60.8 27.4-60.8 60.8s27.4 60.8 60.8 60.8c33.4 0 60.8-27.4 60.8-60.8s-27.4-60.8-60.8-60.8zM244.8 414.2c-16 0-28.8-12.8-28.8-28.8s12.8-28.8 28.8-28.8 28.8 12.8 28.8 28.8-12.8 28.8-28.8 28.8zM463 712.8c-33.8 0-60.8 27.4-60.8 61 0 33.4 27.4 60.8 60.8 60.8s60.8-27.4 60.8-60.8c0-33.8-27.4-61-60.8-61zM463 802.6c-16 0-28.8-12.8-28.8-28.8s12.8-28.8 28.8-28.8 28.8 12.8 28.8 28.8c0 15.8-13.2 28.8-28.8 28.8zM687 838.4c-33.4 0-60.8 27.4-60.8 60.8s27.4 60.8 60.8 60.8 60.8-27.4 60.8-60.8-27.4-60.8-60.8-60.8zM687 928c-16 0-28.8-12.8-28.8-28.8s12.8-28.8 28.8-28.8 28.8 12.8 28.8 28.8-12.8 28.8-28.8 28.8zM917 712.8c-33.4 0-60.8 27.4-60.8 60.8s27.4 60.8 60.8 60.8c33.4 0 60.8-27.4 60.8-60.8s-27.2-60.8-60.8-60.8zM917 802.6c-16 0-28.8-12.8-28.8-28.8s12.8-28.8 28.8-28.8 28.8 12.8 28.8 28.8c0 15.8-13 28.8-28.8 28.8zM917 453c-33.4 0-60.8 27.4-60.8 60.8s27.4 60.8 60.8 60.8c33.4 0 60.8-27.4 60.8-60.8s-27.2-60.8-60.8-60.8zM917 542.6c-16 0-28.8-12.8-28.8-28.8s12.8-28.8 28.8-28.8 28.8 12.8 28.8 28.8-13 28.8-28.8 28.8zM769 418c-5.2 0-10.2 2.6-13.4 7-5 7.2-3 17.2 4.4 22.2l61.4 41c7.2 5 17.2 3 22.2-4.4s3-17.2-4.4-22.2l-61.4-41c-2.4-1.6-5.6-2.6-8.8-2.6v0zM324 423c-5 0-9.8 2.4-13 6.6-5.2 7.2-3.4 17.2 3.8 22.4l51 35.8c7.2 5.2 17.2 3.4 22.4-3.8s3.4-17.2-3.8-22.4l-51-35.8c-3-2-6.2-2.8-9.4-2.8v0zM1002.4 16.6c-5.2 0-10.2 2.6-13.4 7-5 7.2-3 17.2 4.4 22.2l61.4 41c7.2 5 17.2 3 22.2-4.4 5-7.2 3-17.2-4.4-22.2l-61.4-41c-2.8-1.8-6-2.6-8.8-2.6v0zM551.2 16.6c-5.2 0-10.2 2.6-13.4 7-5 7.2-3 17.2 4.4 22.2l61.4 41c7.2 5 17.2 3 22.2-4.4 5-7.2 3-17.2-4.4-22.2l-61.4-41c-2.8-1.8-6-2.6-8.8-2.6zM918.2 592c-0.2 0-0.2 0-0.6 0-8.8 0.2-15.8 7.6-15.4 16.6l2.4 73.6c0.2 8.8 7.8 15.8 16.6 15.4s15.8-7.6 15.4-16.6l-2.4-73.6c-0.2-8.8-7.6-15.4-16-15.4zM449.4 592c-0.2 0-0.2 0-0.6 0-8.8 0.2-15.8 7.6-15.4 16.6l2.4 73.6c0.2 8.8 7.8 15.8 16.6 15.4s15.8-7.6 15.4-16.6l-2.4-73.6c-0.4-8.8-7.6-15.4-16-15.4v0zM691 212.4c-8.8 0-16 7-16 15.8l-0.6 61.6c0 8.8 7 16 15.8 16.2 0 0 0 0 0.2 0 8.8 0 16-7 16-15.8l0.6-61.6c0-8.6-7-16-16-16.2v0 0zM228 212.4c-8.8 0-16 7-16 15.8l-0.6 61.6c0 8.8 7 16 15.8 16.2 0 0 0 0 0.2 0 8.8 0 16-7 16-15.8l0.6-61.6c0-8.6-7-16-16-16.2v0zM1145.2 212.4c-8.8 0-16 7-16 15.8l-0.6 61.6c0 8.8 7 16 15.8 16.2 0 0 0 0 0.2 0 8.8 0 16-7 16-15.8l0.6-61.6c0-8.6-7-16-16-16.2 0.2 0 0 0 0 0zM601.8 423c-3 0-5.8 0.8-8.4 2.6l-56.8 35.8c-7.6 4.6-9.6 14.6-5 22.2s14.6 9.6 22.2 5l56.8-35.8c7.6-4.6 9.6-14.6 5-22.2-3.4-5-8.6-7.6-13.8-7.6v0zM374.8 16.6c-3 0-5.8 0.8-8.4 2.6l-56.8 35.8c-7.6 4.6-9.6 14.6-5 22.2s14.6 9.6 22.2 5l56.8-35.8c7.6-4.6 9.6-14.6 5-22.2-3.2-5-8.6-7.6-13.8-7.6v0zM829 16.6c-3 0-5.8 0.8-8.4 2.6l-56.8 35.8c-7.6 4.6-9.6 14.6-5 22.2s14.6 9.6 22.2 5l56.8-35.8c7.6-4.6 9.6-14.6 5-22.2-3.4-5-8.6-7.6-13.8-7.6v0zM1059 423c-3 0-5.8 0.8-8.4 2.6l-56.8 35.8c-7.6 4.6-9.6 14.6-5 22.2s14.6 9.6 22.2 5l56.8-35.8c7.6-4.6 9.6-14.6 5-22.2-3.2-5-8.6-7.6-13.8-7.6v0zM539.2 809.4c-5.2 0-10.2 2.6-13.4 7-5 7.2-3 17.2 4.4 22.2l61.4 41c7.2 5 17.2 3 22.2-4.4 5-7.2 3-17.2-4.4-22.2l-61.4-41c-2.6-1.8-5.6-2.6-8.8-2.6zM834.8 808.4c-3 0-5.8 0.8-8.4 2.6l-56.8 35.8c-7.6 4.6-9.6 14.6-5 22.2s14.6 9.6 22.2 5l56.8-35.8c7.6-4.6 9.6-14.6 5-22.2-3.4-5-8.4-7.6-13.8-7.6v0z" />
<glyph unicode="&#xe90d;" glyph-name="address-card" horiz-adv-x="1152" d="M1056 896h-960c-53 0-96-43-96-96v-704c0-53 43-96 96-96h960c53 0 96 43 96 96v704c0 53-43 96-96 96zM352 704c70.6 0 128-57.4 128-128s-57.4-128-128-128-128 57.4-128 128 57.4 128 128 128zM576 230.4c0-21.2-20-38.4-44.8-38.4h-358.4c-24.8 0-44.8 17.2-44.8 38.4v38.4c0 63.6 60.2 115.2 134.4 115.2h10c24.6-10.2 51.4-16 79.6-16s55.2 5.8 79.6 16h10c74.2 0 134.4-51.6 134.4-115.2v-38.4zM1024 336c0-8.8-7.2-16-16-16h-288c-8.8 0-16 7.2-16 16v32c0 8.8 7.2 16 16 16h288c8.8 0 16-7.2 16-16v-32zM1024 464c0-8.8-7.2-16-16-16h-288c-8.8 0-16 7.2-16 16v32c0 8.8 7.2 16 16 16h288c8.8 0 16-7.2 16-16v-32zM1024 592c0-8.8-7.2-16-16-16h-288c-8.8 0-16 7.2-16 16v32c0 8.8 7.2 16 16 16h288c8.8 0 16-7.2 16-16v-32z" />
<glyph unicode="&#xe90e;" glyph-name="cc-amex" horiz-adv-x="1152" d="M650.2 624.4c0 32.8-28.2 36.8-54.8 36.8l-78.2 0.6v-138.6h32.8v50.2h36c36.8 0 29-20.6 29.6-50.2h33.2v27c0 18.4-3 30.2-22 36.8 14.8 6 23.6 21.4 23.4 37.4zM591.4 601.8h-41.4v30.6h42c10.2 0 21.4-2 21.4-14.8 0-13.2-10.6-15.8-22-15.8zM558 422.8h-105.4l-42-45.6-41 45.6h-133l-0.2-138.6h130.8l42.6 46 40.8-46h64.4l0.2 46.6c37.8 0 98.6-9.2 98.6 46.6 0 34.6-24.6 45.4-55.8 45.4zM350.4 313.4h-81.2v27.6h72.6v28.2h-72.6v25h83.4l35.8-40.4zM482 297l-50.6 56.2 50.6 54.8zM557.6 359h-42.4v35.2h43c11.2 0 20.4-4.6 20.4-16.8 0-12.8-9.2-18.4-21-18.4zM494.4 632.4v29.2h-111v-138.6h111v28.6h-77.8v27.6h75.6v28.2h-75.6v25zM1152 449.2h-0.4zM762.8 385.4c0 32.8-28.2 37.4-54.2 37.4h-78.8l-0.2-138.6h33.2l0.2 50.6h35.2c22 0 29.6-4 29.6-27.6l-0.2-23h33.2l0.2 27.6c0 17.8-3.6 30.2-22 36.8 15.4 6.2 23.6 21.6 23.8 36.8zM704.4 363h-41.4v31.2h42c10.2 0 21.4-2 21.4-14.8 0-13.8-10.8-16.4-22-16.4zM358.8 523v138.6h-55.2l-39.4-94-43.4 94h-54.2v-131.4l-56.2 131.4h-49l-59.4-138.6h35.8l12.8 30.6h69l12.8-30.6h67.6v108.4l48-108.4h29.2l48 108.4v-108.4zM62.4 582.4l22.4 55.2 23-55.2zM1017.2 264.6v9c-21.6-11.2-7.8-9-313.4-9 0 50.4 0.2 47.8 0 50.4-3.4 0.2-6.4 0.2-18.8 0.2 0-35.8-0.2-13.6-0.2-50.6h-79.2c0 24.2 0.2 30.6 0.2 58.4-20-12-45.6-12.8-68.6-12.4 0-29.4-0.2-16.6-0.2-46h-97.8c-10.2 11.4-5.4 6.2-30.8 34.8-6.4-7-25.6-27.8-32.2-34.8h-164v184.6h166.2c10-11.2 5.6-6.2 31-34.4 6.4 7 24.4 26.8 31.4 34.4h116c19.6 0 36-3.8 48.6-11.2v11.2c108.6 0 128.6 2.8 151.4-10.2v10.2h156.4v-10.4c22.8 13.8 39.2 10.4 129.8 10.4v-10c20.6 11.8 33.2 10.4 108.6 10v350.8c0 53-43 96-96 96h-960c-53 0-96-43-96-96v-219.6c18.8 43.8 39.4 92 46.2 107.8h79.4c8.6-20.2 3.2-7.4 18-42.2v42.2h92c5.8-12.4 22.2-48 27.8-60 11.6 27.2 20.2 47.8 25.2 60h206c0 0.2 23 0 23.2 0 87.4-0.4 107.2 1.6 128.8-10.6v10.6h79.8v-18.6c15.2 12.2 35.8 18.6 61.4 18.6h55.2c0-1 3.8-0.6 4.6-0.6h64.8c8.4-19.6 5.2-12 17.6-41.2v41.2h86.6c9.8-16-2 3.6 22.4-36.8v36.8h79.8v-184h-83.2c-10.8 18-2.8 4.4-26.4 43.8v-43.8h-105.6c-12.8 29.6-0.2 0.6-13.2 30.6h-38c-8.4-20-4.4-10.4-12.8-30.6h-53.6c-24.6 0-44.6 6-59.4 17.8v-17.8h-133c-0.6 27.8-0.2 49.6-0.2 49.6-3.6 0.6-6.8 0.4-19.6 0.4v-50.2h-271v22.8c-5-11.2-5.4-11.8-10.2-22.8h-59c-8 17.8-5.8 12.8-10.2 22.8v-22.8h-105.8c-8.4 20.2-4.4 10.6-12.8 30.6h-38.4c-8.4-20-4.4-10.4-12.8-30.6h-53.2v-407.4c0-53 43-96 96-96h960.2c53 0 96 43 96 96v180.8c-25.4-16.6-65.4-12.2-135-12.2zM1089.8 393.6h60.2v29.2h-65.8c-25.6 0-47.6-13.2-47.6-41.4 0-66 85.4-25.6 85.4-54.8 0-10.2-8.6-12.8-16.8-12.8h-64l-0.2-29.6h64c16.8 0 35.2 3.6 45 17.8v51.6c-21 27.6-78.6 2.6-78.6 27 0 11.6 9.2 13 18.4 13zM975.8 314h-64.4l-0.2-29.6h64.4c29.6 0 52.4 11.2 52.4 44 0 66.4-85.8 22.4-85.8 52.6 0 11.2 9.8 12.8 18.4 12.8h60.8v29.2h-66.4c-25.6 0-47-13.2-47-41.4 0-66 85.4-25 85.4-54.8-0.2-10.8-9.4-12.8-17.6-12.8zM891.4 394.2v28.6h-110.4l-0.2-138.6h110.4l0.2 28.6-77.2 0.6v27.6h75.8v28.2h-75.6v25zM778.8 610.4c-0.6-0.4-2.8-4.4-2.8-15.2 0-12 1.8-15.4 2.2-15.8 0.4-0.2 2.2-1 6.8-1l14.6 33.8c-2.2 0-4.2 0.2-6.2 0.2-11.2 0-14-1.4-14.6-2zM819.6 631.4h-0.2zM787.2 661.8c-47 0-68-24-68-70.6 0-44.4 20.4-68 66-68h38.4l12.8 30.6h68.6l13.2-30.6h67.4v103.8l62.4-103.8h47.2v138h-33.8v-96.2l-58.2 96.2h-50.6v-130.8l-55.8 130.8h-49.6l-47-109h-14.8c-26.6 0-32.2 16.2-32.2 39.8 0 47.6 31.4 40 66.2 39.4v30.4zM871.4 637.6l22.4-55.2h-45.6zM669.2 661.6v-138.6h33.8v138.6z" />
<glyph unicode="&#xe90f;" glyph-name="cc-discover" horiz-adv-x="1152" d="M1040.8 567.8c0 15.8-11 24.2-31.2 24.2h-9.8v-49.8h9.4c20.6 0 31.6 8.8 31.6 25.6zM1056 896h-960c-53 0-96-43-96-96v-704c0-53 43-96 96-96h960c53 0 96 43 96 96v704c0 53-43 96-96 96zM967.8 618.2c45.2 0 105.8 8.2 105.8-48.8 0-25.2-13.2-41.4-37.4-46.4l51.6-68.8h-39.2l-44.4 65.6h-4.4v-65.6h-32zM856 618h90.6v-28h-58.6v-36.4h56.6v-27.6h-56.6v-44.4h58.6v-27.6h-90.6zM718.6 618l43.8-110.4 44.4 110.4h35l-71-168.4h-17.2l-70 168.4zM606.8 624c49.4 0 89.2-40 89.2-89.2 0-49.4-40-89.2-89.2-89.2-49.4 0-89.2 40-89.2 89.2 0 49.4 40 89.2 89.2 89.2zM508.2 611.8v-38c-40.2 40.2-93.6 9.4-93.6-38 0-50 55-77 93.6-38.4v-38c-59.4-28.6-126.6 11.4-126.6 76.4 0 62.4 66.2 106 126.6 76zM313.8 479.2c22.8 0 44.8 30.6-6.6 48.8-30 11-40.4 22.8-40.4 45.4 0 46.4 61.2 62.8 99.4 28.6l-16.8-21.6c-20.8 23.2-49.8 12.4-49.8-5 0-8.8 5.4-13.8 24.6-20.6 36.4-13.2 47.2-25 47.2-51.2 0-59-77.6-74.8-113.2-22.6l20.6 19.8c7.4-14.2 19.8-21.6 35-21.6zM110.8 454h-46.8v164h46.8c52.2 0 88.2-34 88.2-82.2 0-37-26.4-81.8-88.2-81.8zM245.8 454h-32v164h32zM1088 94c0-16.4-13.6-30-30-30h-802c379.2 71.2 765.4 278.4 832 320zM148.2 576.8c-10.4 9.8-23.2 13.2-43.8 13.2h-8.4v-108.4h8.4c20.6 0 34 4 43.8 12.8 11.4 10.4 17.8 25.6 17.8 41.4s-6.4 31-17.8 41z" />
<glyph unicode="&#xe910;" glyph-name="cc-mastercard" horiz-adv-x="1152" d="M965.8 139.4c0-13.6-9.2-23.4-22.4-23.4-13.6 0-22.4 10.4-22.4 23.4s8.8 23.4 22.4 23.4c13.2 0 22.4-10.4 22.4-23.4zM344.2 162.8c-14.2 0-22.4-10.4-22.4-23.4s8.2-23.4 22.4-23.4c13 0 21.8 9.8 21.8 23.4-0.2 13-8.8 23.4-21.8 23.4zM579.2 163.4c-10.8 0-17.4-7-19-17.4h38.2c-1.8 11.4-8.8 17.4-19.2 17.4zM794.8 162.8c-13.6 0-21.8-10.4-21.8-23.4s8.2-23.4 21.8-23.4c13.6 0 22.4 9.8 22.4 23.4 0 13-8.8 23.4-22.4 23.4zM1006.6 110.6c0-0.6 0.6-1 0.6-2.2 0-0.6-0.6-1-0.6-2.2-0.6-0.6-0.6-1-1-1.6-0.6-0.6-1-1-2.2-1-0.6-0.6-1-0.6-2.2-0.6-0.6 0-1 0-2.2 0.6-0.6 0-1 0.6-1.6 1-0.6 0.6-1 1-1 1.6-0.6 1-0.6 1.6-0.6 2.2 0 1 0 1.6 0.6 2.2 0 1 0.6 1.6 1 2.2 0.6 0.6 1 0.6 1.6 1 1 0.6 1.6 0.6 2.2 0.6 1 0 1.6 0 2.2-0.6 1-0.6 1.6-0.6 2.2-1s0.4-1.2 1-2.2zM1002.2 107.8c1 0 1 0.6 1.6 0.6 0.6 0.6 0.6 1 0.6 1.6s0 1-0.6 1.6c-0.6 0-1 0.6-2.2 0.6h-3.2v-7h1.6v2.8h0.6l2.2-2.8h1.6l-2.2 2.6zM1152 798v-704c0-53-43-96-96-96h-960c-53 0-96 43-96 96v704c0 53 43 96 96 96h960c53 0 96-43 96-96zM128 518.8c0-153 124.2-277 277-277 54.4 0 107.8 16.4 153 46.2-145.8 118.6-144.8 342.4 0 461-45.2 30-98.6 46.2-153 46.2-152.8 0.2-277-124-277-276.4zM576 301.2c141 110 140.4 324.4 0 435-140.4-110.6-141-325.2 0-435zM291.4 148.6c0 17.4-11.4 28.8-29.4 29.4-9.2 0-19-2.8-25.6-13-4.8 8.2-13 13-24.4 13-7.6 0-15.2-2.8-21.2-10.8v8.8h-16.4v-73.4h16.4c0 37.8-5 60.4 18 60.4 20.4 0 16.4-20.4 16.4-60.4h15.8c0 36.6-5 60.4 18 60.4 20.4 0 16.4-20 16.4-60.4h16.4v46zM381.2 176h-15.8v-8.8c-5.4 6.6-13 10.8-23.4 10.8-20.6 0-36.4-16.4-36.4-38.6 0-22.4 15.8-38.6 36.4-38.6 10.4 0 18 3.8 23.4 10.8v-9.2h15.8v73.6zM462.2 124.8c0 30-45.8 16.4-45.8 30.4 0 11.4 23.8 9.6 37 2.2l6.6 13c-18.8 12.2-60.4 12-60.4-16.4 0-28.6 45.8-16.6 45.8-30 0-12.6-27-11.6-41.4-1.6l-7-12.6c22.4-15.2 65.2-12 65.2 15zM533 106.2l-4.4 13.6c-7.6-4.2-24.4-8.8-24.4 8.2v33.2h26.2v14.8h-26.2v22.4h-16.4v-22.4h-15.2v-14.6h15.2v-33.4c0-35.2 34.6-28.8 45.2-21.8zM559.6 133h55c0 32.4-14.8 45.2-34.8 45.2-21.2 0-36.4-15.8-36.4-38.6 0-41 45.2-47.8 67.6-28.4l-7.6 12c-15.6-12.8-39.2-11.6-43.8 9.8zM677.8 176c-9.2 4-23.2 3.6-30.4-8.8v8.8h-16.4v-73.4h16.4v41.4c0 23.2 19 20.2 25.6 16.8l4.8 15.2zM699 139.4c0 22.8 23.2 30.2 41.4 16.8l7.6 13c-23.2 18.2-65.4 8.2-65.4-30 0-39.6 44.8-47.6 65.4-30l-7.6 13c-18.4-13-41.4-5.2-41.4 17.2zM832.4 176h-16.4v-8.8c-16.6 22-59.8 9.6-59.8-27.8 0-38.4 44.8-49.4 59.8-27.8v-9.2h16.4v73.6zM899.8 176c-4.8 2.4-22 5.8-30.4-8.8v8.8h-15.8v-73.4h15.8v41.4c0 22 18 20.6 25.6 16.8l4.8 15.2zM980.4 205.8h-15.8v-38.6c-16.4 21.8-59.8 10.2-59.8-27.8 0-38.8 45-49.2 59.8-27.8v-9.2h15.8v103.4zM995.6 356v-9.2h1.6v9.2h3.8v1.6h-9.2v-1.6h3.8zM1008.8 108.4c0 1 0 2.2-0.6 3.2-0.6 0.6-1 1.6-1.6 2.2s-1.6 1-2.2 1.6c-1 0-2.2 0.6-3.2 0.6-0.6 0-1.6-0.6-2.8-0.6-1-0.6-1.6-1-2.2-1.6-1-0.6-1.6-1.6-1.6-2.2-0.6-1-0.6-2.2-0.6-3.2 0-0.6 0-1.6 0.6-2.8 0-0.6 0.6-1.6 1.6-2.2 0.6-0.6 1-1 2.2-1.6 1-0.6 2.2-0.6 2.8-0.6 1 0 2.2 0 3.2 0.6 0.6 0.6 1.6 1 2.2 1.6s1 1.6 1.6 2.2c0.6 1.2 0.6 2.2 0.6 2.8zM1015.2 357.8h-2.8l-3.2-7-3.2 7h-2.8v-10.8h1.6v8.2l3.2-7h2.2l2.8 7v-8.2h2.2v10.8zM1024 518.8c0 152.4-124.2 276.6-277 276.6-54.4 0-107.8-16.4-153-46.2 144.2-118.6 146.4-343 0-461 45.2-30 99-46.2 153-46.2 152.8-0.2 277 123.8 277 276.8z" />
<glyph unicode="&#xe911;" glyph-name="cc-visa" horiz-adv-x="1152" d="M940.2 497.4s15.2-74.4 18.6-90h-66.8c6.6 17.8 32 87 32 87-0.4-0.6 6.6 18.2 10.6 29.8l5.6-26.8zM1152 800v-704c0-53-43-96-96-96h-960c-53 0-96 43-96 96v704c0 53 43 96 96 96h960c53 0 96-43 96-96zM305 297.6l126.4 310.4h-85l-78.6-212-8.6 43-28 142.8c-4.6 19.8-18.8 25.4-36.4 26.2h-129.4l-1.4-6.2c31.6-8 59.8-19.6 84.4-34.2l71.6-270h85zM493.8 297.2l50.4 310.8h-80.4l-50.2-310.8h80.2zM773.6 398.8c0.4 35.4-21.2 62.4-67.4 84.6-28.2 14.2-45.4 23.8-45.4 38.4 0.4 13.2 14.6 26.8 46.2 26.8 26.2 0.6 45.4-5.6 59.8-11.8l7.2-3.4 11 67.2c-15.8 6.2-41 13.2-72 13.2-79.4 0-135.2-42.4-135.6-102.8-0.6-44.6 40-69.4 70.4-84.4 31-15.2 41.6-25.2 41.6-38.6-0.4-20.8-25.2-30.4-48.2-30.4-32 0-49.2 5-75.4 16.6l-10.6 5-11.2-69.8c18.8-8.6 53.6-16.2 89.6-16.6 84.4-0.2 139.4 41.6 140 106zM1056 297.2l-64.8 310.8h-62.2c-19.2 0-33.8-5.6-42-25.8l-119.4-285h84.4s13.8 38.4 16.8 46.6h103.2c2.4-11 9.6-46.6 9.6-46.6h74.4z" />
<glyph unicode="&#xe912;" glyph-name="file-invoice-dollar" horiz-adv-x="768" d="M754 750l-195.8 196c-9 9-21.2 14-34 14h-12.2v-256h256v12.2c0 12.6-5 24.8-14 33.8zM448 688v272h-400c-26.6 0-48-21.4-48-48v-928c0-26.6 21.4-48 48-48h672c26.6 0 48 21.4 48 48v656h-272c-26.4 0-48 21.6-48 48zM128 816c0 8.84 7.16 16 16 16h160c8.84 0 16-7.16 16-16v-32c0-8.84-7.16-16-16-16h-160c-8.84 0-16 7.16-16 16v32zM128 656v32c0 8.84 7.16 16 16 16h160c8.84 0 16-7.16 16-16v-32c0-8.84-7.16-16-16-16h-160c-8.84 0-16 7.16-16 16zM416 128.24v-48.24c0-8.84-7.16-16-16-16h-32c-8.84 0-16 7.16-16 16v48.58c-22.58 1.16-44.54 9.040-62.74 22.7-7.8 5.86-8.2 17.54-1.14 24.28l23.5 22.42c5.54 5.28 13.78 5.52 20.26 1.46 7.74-4.84 16.52-7.44 25.64-7.44h56.22c13 0 23.6 11.84 23.6 26.38 0 11.9-7.22 22.38-17.54 25.46l-90 27c-37.18 11.16-63.16 46.84-63.16 86.78 0 49.040 38.1 88.88 85.34 90.14v48.24c0 8.84 7.16 16 16 16h32c8.84 0 16-7.16 16-16v-48.58c22.58-1.16 44.54-9.020 62.74-22.7 7.8-5.86 8.2-17.54 1.14-24.28l-23.5-22.42c-5.54-5.28-13.78-5.52-20.26-1.46-7.74 4.86-16.52 7.44-25.64 7.44h-56.22c-13 0-23.6-11.84-23.6-26.38 0-11.9 7.22-22.38 17.54-25.46l90-27c37.18-11.16 63.16-46.84 63.16-86.78 0-49.060-38.1-88.88-85.34-90.14z" />
<glyph unicode="&#xe913;" glyph-name="file-upload" horiz-adv-x="768" d="M448 688v272h-400c-26.6 0-48-21.4-48-48v-928c0-26.6 21.4-48 48-48h672c26.6 0 48 21.4 48 48v656h-272c-26.4 0-48 21.6-48 48zM578.36 255.98h-130.36v-160c0-17.68-14.32-32-32-32h-64c-17.68 0-32 14.32-32 32v160h-130.36c-28.56 0-42.82 34.58-22.54 54.72l192.84 191.4c13.3 13.22 34.78 13.22 48.080 0l192.84-191.4c20.3-20.14 6.060-54.72-22.5-54.72zM754 750l-195.8 196c-9 9-21.2 14-34 14h-12.2v-256h256v12.2c0 12.6-5 24.8-14 33.8z" />
<glyph unicode="&#xe914;" glyph-name="money-check-alt" horiz-adv-x="1280" d="M1216 896h-1152c-35.34 0-64-28.66-64-64v-768c0-35.34 28.66-64 64-64h1152c35.34 0 64 28.66 64 64v768c0 35.34-28.66 64-64 64zM352 304.24v-32.24c0-8.84-7.16-16-16-16h-32c-8.84 0-16 7.16-16 16v32.58c-22.58 1.16-44.54 9.040-62.74 22.7-7.8 5.86-8.2 17.54-1.14 24.28l23.5 22.42c5.54 5.28 13.78 5.52 20.26 1.46 7.74-4.84 16.52-7.44 25.64-7.44h56.22c13 0 23.6 11.84 23.6 26.38 0 11.9-7.22 22.38-17.54 25.46l-90 27c-37.18 11.16-63.16 46.84-63.16 86.78 0 49.040 38.1 88.88 85.34 90.14v32.24c0 8.84 7.16 16 16 16h32c8.84 0 16-7.16 16-16v-32.58c22.58-1.16 44.54-9.020 62.74-22.7 7.8-5.86 8.2-17.54 1.14-24.28l-23.5-22.42c-5.54-5.28-13.78-5.52-20.26-1.46-7.74 4.86-16.52 7.44-25.64 7.44h-56.22c-13 0-23.6-11.84-23.6-26.38 0-11.9 7.22-22.38 17.54-25.46l90-27c37.18-11.16 63.16-46.84 63.16-86.78 0-49.060-38.1-88.88-85.34-90.14zM832 336c0-8.84-7.16-16-16-16h-224c-8.84 0-16 7.16-16 16v32c0 8.84 7.16 16 16 16h224c8.84 0 16-7.16 16-16v-32zM1152 336c0-8.84-7.16-16-16-16h-160c-8.84 0-16 7.16-16 16v32c0 8.84 7.16 16 16 16h160c8.84 0 16-7.16 16-16v-32zM1152 528c0-8.84-7.16-16-16-16h-544c-8.84 0-16 7.16-16 16v32c0 8.84 7.16 16 16 16h544c8.84 0 16-7.16 16-16v-32z" />
<glyph unicode="&#xe915;" glyph-name="down-arrow" d="M962.878 685.346c-12.701 12.701-33.34 12.701-46.040 0l-404.837-405.631-405.631 405.631c-12.701 12.701-33.34 12.701-46.040 0s-12.701-33.34 0-46.040l427.857-427.857c6.35-6.35 14.288-9.526 23.020-9.526 7.938 0 16.67 3.175 23.020 9.526l427.857 427.857c13.495 12.701 13.495 33.34 0.794 46.040z" />
<glyph unicode="&#xe916;" glyph-name="left-arrow" d="M702.512 898.878c6.35 6.35 14.288 9.526 23.020 9.526s16.67-3.175 23.020-9.526c12.701-12.701 12.701-33.34 0-46.040l-404.837-404.837 404.837-404.837c12.701-12.701 12.701-33.34 0-46.040s-33.34-12.701-46.040 0l-427.857 427.857c-12.701 12.701-12.701 33.34 0 46.040l427.857 427.857z" />
<glyph unicode="&#xe917;" glyph-name="right-arrow" d="M320.695-2.878c-6.35-6.35-14.288-9.526-23.020-9.526s-16.67 3.175-23.020 9.526c-12.701 12.701-12.701 33.34 0 46.040l404.837 404.837-404.837 404.837c-12.701 12.701-12.701 33.34 0 46.040s33.34 12.701 46.040 0l427.857-427.857c12.701-12.701 12.701-33.34 0-46.040l-427.857-427.857z" />
<glyph unicode="&#xe918;" glyph-name="up-arrow" d="M60.329 211.448c12.701-12.701 33.34-12.701 46.040 0l404.837 405.631 405.631-405.631c12.701-12.701 33.34-12.701 46.040 0s12.701 33.34 0 46.040l-427.857 427.857c-6.35 6.35-14.288 9.526-23.020 9.526-7.938 0-16.67-3.175-23.020-9.526l-427.857-427.857c-13.495-12.701-13.495-33.34-0.794-46.040z" />
<glyph unicode="&#xe919;" glyph-name="arrow-down-circular" d="M955.349 705.005c-45.786 78.439-107.891 140.545-186.333 186.328-78.456 45.781-164.101 68.667-257.001 68.667-92.891 0-178.562-22.886-257.003-68.667-78.446-45.776-140.552-107.882-186.338-186.328-45.788-78.451-68.674-164.122-68.674-257.006 0-92.889 22.893-178.546 68.667-257.001 45.783-78.439 107.889-140.545 186.335-186.333 78.451-45.779 164.115-68.667 257.003-68.667s178.562 22.888 257.008 68.667c78.442 45.772 140.545 107.894 186.326 186.333 45.774 78.449 68.658 164.117 68.658 257.001 0.002 92.893-22.884 178.567-68.648 257.006zM844.004 417.335l-301.991-302.009c-8-7.991-17.996-11.986-30.003-11.986-11.993 0-21.994 3.995-29.998 11.986l-302.012 302.009c-7.991 8.009-11.995 17.996-11.995 30.003 0 11.995 3.991 21.996 11.995 29.998l60.667 60.667c8.455 8.446 18.447 12.665 30.005 12.665 11.563 0 21.564-4.219 30.005-12.665l125.997-125.988v334.654c0 11.556 4.224 21.56 12.67 29.998 8.444 8.448 18.442 12.675 29.998 12.675h85.339c11.554 0 21.56-4.226 29.998-12.675 8.439-8.439 12.675-18.442 12.675-29.998v-334.656l125.986 125.988c8.007 8.002 17.987 12.002 29.998 12.002 12.005 0 21.999-4 29.998-12.002l60.667-60.667c8.014-8.002 12.002-18.003 12.002-29.998-0.002-12.005-3.991-22.003-12.005-30.001z" />
<glyph unicode="&#xe91a;" glyph-name="box-open" horiz-adv-x="1280" d="M851.4 448c-33.8 0-65.6 18-82.8 46.8l-128.6 213.2-128.4-213.2c-17.4-29-49.2-47-83-47-9 0-18 1.2-26.6 3.8l-274 78.4v-356c0-29.4 20-55 48.4-62l432.4-108.2c20.4-5 41.8-5 62 0l432.8 108.2c28.4 7.2 48.4 32.8 48.4 62v356l-274-78.2c-8.6-2.6-17.6-3.8-26.6-3.8zM1276.6 672.4l-103 205.6c-6.2 12.4-19.6 19.6-33.4 17.8l-500.2-63.8 183.4-304.2c7.6-12.6 22.8-18.6 37-14.6l395.8 113c19.8 5.8 29.4 27.8 20.4 46.2zM106.4 878l-103-205.6c-9.2-18.4 0.6-40.4 20.2-46l395.8-113c14.2-4 29.4 2 37 14.6l183.6 304-500.4 63.8c-13.8 1.6-27-5.4-33.2-17.8z" />
<glyph unicode="&#xe91b;" glyph-name="file-download" horiz-adv-x="768" d="M448 688v272h-400c-26.6 0-48-21.4-48-48v-928c0-26.6 21.4-48 48-48h672c26.6 0 48 21.4 48 48v656h-272c-26.4 0-48 21.6-48 48zM600.9 265.28l-192.84-191.4c-13.3-13.22-34.78-13.22-48.080 0l-192.84 191.4c-20.3 20.14-6.060 54.72 22.5 54.72h130.36v160c0 17.68 14.32 32 32 32h64c17.68 0 32-14.32 32-32v-160h130.36c28.56 0 42.8-34.58 22.54-54.72zM754 750l-195.8 196c-9 9-21.2 14-34 14h-12.2v-256h256v12.2c0 12.6-5 24.8-14 33.8z" />
<glyph unicode="&#xe91c;" glyph-name="girl-chat" horiz-adv-x="1236" d="M45.542-63.082h-45.274v22.637c0 27.163 2.090 263.987 71.743 329.46 27.861 34.827 103.784 58.509 128.51 64.427l21.941 5.224 10.099-44.228-21.941-5.224c-38.309-8.706-90.896-31.692-103.784-49.106l-1.393-1.741-1.741-1.393c-42.489-37.962-58.161-202.343-58.161-297.42v-22.637zM680.433-63.778l-45.274 1.393 0.695 22.637c0 1.045 3.482 114.579-19.155 206.87l-5.573 21.941 43.882 10.796 5.573-21.941c24.378-98.211 20.548-214.184 20.548-219.408l-0.695-22.289zM340.873 207.173c-0.695 0-1.393 0-2.090 0-72.44 0.695-125.376 58.161-145.576 114.579l-7.662 21.244 42.489 15.323 7.662-21.244c14.976-41.792 52.937-84.281 103.784-84.629 59.553-0.695 89.504 36.219 91.942 70.696l1.741 21.244 21.244-0.348c47.712-0.695 107.963-7.314 153.586-54.678 8.358-8.706 16.020-19.155 22.986-30.996l11.144-19.503-39.354-22.637-11.144 19.503c-5.224 8.706-10.448 16.368-16.020 22.289-28.558 29.603-66.519 37.962-102.391 40.051-13.931-48.061-59.553-90.896-132.342-90.896zM335.3 353.446c-47.016 0-94.38 37.613-129.555 103.087l-10.796 19.851 40.051 21.244 10.796-19.851c26.12-48.757 60.599-79.405 89.504-79.405 0.348 0 1.045 0 1.393 0l22.637 0.695 1.045-45.274-22.637-0.695c-0.695 0.348-1.741 0.348-2.438 0.348zM345.4 353.446c-3.482 0-7.314 0.348-11.144 0.695l-22.637 2.786 5.573 44.927 22.637-2.786c1.741-0.348 3.829-0.348 5.573-0.348 29.951 0 64.778 31.692 91.245 82.539l10.448 20.199 40.051-20.894-10.448-20.199c-35.175-67.912-82.887-106.918-131.297-106.918zM456.497 157.371h120.849v-45.274h-120.849v45.274zM232.912 305.735c-0.348 0-0.695 0-1.393 0l-22.637 0.348 0.695 45.274 22.637-0.348c8.358-0.348 14.976 2.438 19.851 7.314 4.876 5.224 7.314 12.885 6.617 21.593l-1.393 22.637 45.274 2.786 1.393-22.637c1.393-21.593-5.573-41.444-19.155-55.723-13.233-13.582-31.344-21.244-51.892-21.244zM447.094 298.42c-12.19 0-24.029 4.527-34.13 13.582-20.894 18.458-30.298 51.195-30.298 73.484v22.637h45.274v-22.637c0-14.279 6.964-32.389 14.976-39.702 1.741-1.741 3.482-2.438 4.527-2.438l22.289 2.786 5.92-44.927-22.289-2.786c-2.090 0.348-4.179 0-6.269 0zM84.548 331.504l-6.964 21.593c-27.861 86.37-42.141 218.363-13.233 291.848 35.175 89.853 128.163 194.682 274.783 194.682 172.74 0 244.483-124.331 271.996-198.512 30.996-84.281 17.065-205.478-9.403-282.793l-7.314-21.593-42.836 14.628 7.314 21.593c28.558 83.933 32.737 190.154 9.752 252.494-28.558 77.316-91.245 169.258-229.508 169.258-123.633 0-202.691-89.504-232.642-166.123-21.593-55.374-15.323-170.301 14.279-261.549l6.964-21.593-43.185-13.931zM498.638 504.245l-44.927 5.224 2.786 22.637c9.403 79.405-58.161 145.576-124.68 155.327l-20.894 3.135 1.393 20.894c2.438 34.478-0.348 73.484-0.695 73.831l-1.741 22.637 45.274 3.482 1.741-22.637c0-1.393 2.090-29.603 1.393-60.599 81.495-21.941 154.631-102.739 143.138-201.299l-2.786-22.637zM170.919 504.245l-2.786 22.637c-11.841 98.908 62.34 179.705 144.183 201.299 0.348 39.006 0.348 82.887 0.348 83.235v22.637h45.274v-22.637c0-0.695 0-59.553-0.695-102.042l-0.348-19.155-18.807-2.786c-66.519-9.752-134.083-75.922-124.68-155.327l2.786-22.637-45.274-5.224zM1186.814 306.081h-210.7v45.274h210.7c2.090 0 4.179 1.393 4.179 3.829v556.531c0 2.438-3.135 2.786-4.179 2.786h-618.867c-3.829 0-3.829-1.741-3.829-2.786v-50.15h-45.274v50.15c0 27.163 21.593 48.061 49.106 48.061h618.867c27.861 0 49.454-20.894 49.454-48.061v-556.531c-0.348-27.163-22.289-49.106-49.454-49.106zM683.219 351.356h176.919v-45.274h-176.919v45.274zM814.864 106.525v244.832h45.274v-129.903l122.938 131.993 33.086-30.996zM822.525 818.382h138.61v-45.274h-138.61v45.274zM1116.812 460.711h-459.712v357.67h144.879v-45.274h-99.604v-267.12h369.163v267.12h-90.201v45.274h135.476zM962.181 651.562h-140.698v166.82h140.698v-166.82zM866.756 696.837h50.15v76.271h-50.15v-76.271z" />
<glyph unicode="&#xe91d;" glyph-name="file" horiz-adv-x="768" d="M448 688v272h-400c-26.6 0-48-21.4-48-48v-928c0-26.6 21.4-48 48-48h672c26.6 0 48 21.4 48 48v656h-272c-26.4 0-48 21.6-48 48zM576 216c0-13.2-10.8-24-24-24h-336c-13.2 0-24 10.8-24 24v16c0 13.2 10.8 24 24 24h336c13.2 0 24-10.8 24-24v-16zM576 344c0-13.2-10.8-24-24-24h-336c-13.2 0-24 10.8-24 24v16c0 13.2 10.8 24 24 24h336c13.2 0 24-10.8 24-24v-16zM576 488v-16c0-13.2-10.8-24-24-24h-336c-13.2 0-24 10.8-24 24v16c0 13.2 10.8 24 24 24h336c13.2 0 24-10.8 24-24zM768 716.2v-12.2h-256v256h12.2c12.8 0 25-5 34-14l195.8-196c9-9 14-21.2 14-33.8z" />
<glyph unicode="&#xe986;" glyph-name="search" d="M992.262 88.604l-242.552 206.294c-25.074 22.566-51.89 32.926-73.552 31.926 57.256 67.068 91.842 154.078 91.842 249.176 0 212.078-171.922 384-384 384-212.076 0-384-171.922-384-384s171.922-384 384-384c95.098 0 182.108 34.586 249.176 91.844-1-21.662 9.36-48.478 31.926-73.552l206.294-242.552c35.322-39.246 93.022-42.554 128.22-7.356s31.892 92.898-7.354 128.22zM384 320c-141.384 0-256 114.616-256 256s114.616 256 256 256 256-114.616 256-256-114.614-256-256-256z" />
<glyph unicode="&#xe9bd;" glyph-name="menu" d="M64 768h896v-192h-896zM64 512h896v-192h-896zM64 256h896v-192h-896z" />
<glyph unicode="&#xea0f;" glyph-name="cross" d="M1014.662 137.34c-0.004 0.004-0.008 0.008-0.012 0.010l-310.644 310.65 310.644 310.65c0.004 0.004 0.008 0.006 0.012 0.010 3.344 3.346 5.762 7.254 7.312 11.416 4.246 11.376 1.824 24.682-7.324 33.83l-146.746 146.746c-9.148 9.146-22.45 11.566-33.828 7.32-4.16-1.55-8.070-3.968-11.418-7.31 0-0.004-0.004-0.006-0.008-0.010l-310.648-310.652-310.648 310.65c-0.004 0.004-0.006 0.006-0.010 0.010-3.346 3.342-7.254 5.76-11.414 7.31-11.38 4.248-24.682 1.826-33.83-7.32l-146.748-146.748c-9.148-9.148-11.568-22.452-7.322-33.828 1.552-4.16 3.97-8.072 7.312-11.416 0.004-0.002 0.006-0.006 0.010-0.010l310.65-310.648-310.65-310.652c-0.002-0.004-0.006-0.006-0.008-0.010-3.342-3.346-5.76-7.254-7.314-11.414-4.248-11.376-1.826-24.682 7.322-33.83l146.748-146.746c9.15-9.148 22.452-11.568 33.83-7.322 4.16 1.552 8.070 3.97 11.416 7.312 0.002 0.004 0.006 0.006 0.010 0.010l310.648 310.65 310.648-310.65c0.004-0.002 0.008-0.006 0.012-0.008 3.348-3.344 7.254-5.762 11.414-7.314 11.378-4.246 24.684-1.826 33.828 7.322l146.746 146.748c9.148 9.148 11.57 22.454 7.324 33.83-1.552 4.16-3.97 8.068-7.314 11.414z" />
<glyph unicode="&#xea52;" glyph-name="checkbox-checked" d="M896 960h-768c-70.4 0-128-57.6-128-128v-768c0-70.4 57.6-128 128-128h768c70.4 0 128 57.6 128 128v768c0 70.4-57.6 128-128 128zM448 165.49l-237.254 237.256 90.51 90.508 146.744-146.744 306.746 306.746 90.508-90.51-397.254-397.256z" />
<glyph unicode="&#xea53;" glyph-name="checkbox-unchecked" d="M896 960h-768c-70.4 0-128-57.6-128-128v-768c0-70.4 57.6-128 128-128h768c70.4 0 128 57.6 128 128v768c0 70.4-57.6 128-128 128zM896 64h-768v768h768v-768z" />
<glyph unicode="&#xea5b;" glyph-name="filter" d="M512 960c-282.77 0-512-71.634-512-160v-96l384-384v-320c0-35.346 57.306-64 128-64 70.692 0 128 28.654 128 64v320l384 384v96c0 88.366-229.23 160-512 160zM94.384 821.176c23.944 13.658 57.582 26.62 97.278 37.488 87.944 24.076 201.708 37.336 320.338 37.336 118.628 0 232.394-13.26 320.338-37.336 39.696-10.868 73.334-23.83 97.28-37.488 15.792-9.006 24.324-16.624 28.296-21.176-3.972-4.552-12.506-12.168-28.296-21.176-23.946-13.658-57.584-26.62-97.28-37.488-87.942-24.076-201.708-37.336-320.338-37.336s-232.394 13.26-320.338 37.336c-39.696 10.868-73.334 23.83-97.278 37.488-15.792 9.008-24.324 16.624-28.298 21.176 3.974 4.552 12.506 12.168 28.298 21.176z" />
<glyph unicode="&#xea96;" glyph-name="twitter" d="M1024 733.6c-37.6-16.8-78.2-28-120.6-33 43.4 26 76.6 67.2 92.4 116.2-40.6-24-85.6-41.6-133.4-51-38.4 40.8-93 66.2-153.4 66.2-116 0-210-94-210-210 0-16.4 1.8-32.4 5.4-47.8-174.6 8.8-329.4 92.4-433 219.6-18-31-28.4-67.2-28.4-105.6 0-72.8 37-137.2 93.4-174.8-34.4 1-66.8 10.6-95.2 26.2 0-0.8 0-1.8 0-2.6 0-101.8 72.4-186.8 168.6-206-17.6-4.8-36.2-7.4-55.4-7.4-13.6 0-26.6 1.4-39.6 3.8 26.8-83.4 104.4-144.2 196.2-146-72-56.4-162.4-90-261-90-17 0-33.6 1-50.2 3 93.2-59.8 203.6-94.4 322.2-94.4 386.4 0 597.8 320.2 597.8 597.8 0 9.2-0.2 18.2-0.6 27.2 41 29.4 76.6 66.4 104.8 108.6z" />
<glyph unicode="&#xeac9;" glyph-name="linkedin" d="M928 960h-832c-52.8 0-96-43.2-96-96v-832c0-52.8 43.2-96 96-96h832c52.8 0 96 43.2 96 96v832c0 52.8-43.2 96-96 96zM384 128h-128v448h128v-448zM320 640c-35.4 0-64 28.6-64 64s28.6 64 64 64c35.4 0 64-28.6 64-64s-28.6-64-64-64zM832 128h-128v256c0 35.4-28.6 64-64 64s-64-28.6-64-64v-256h-128v448h128v-79.4c26.4 36.2 66.8 79.4 112 79.4 79.6 0 144-71.6 144-160v-288z" />
<glyph unicode="&#xeaca;" glyph-name="linkedin2" d="M384 576h177.106v-90.782h2.532c24.64 44.194 84.958 90.782 174.842 90.782 186.946 0 221.52-116.376 221.52-267.734v-308.266h-184.61v273.278c0 65.184-1.334 149.026-96.028 149.026-96.148 0-110.82-70.986-110.82-144.292v-278.012h-184.542v576zM64 576h192v-576h-192v576zM256 736c0-53.019-42.981-96-96-96s-96 42.981-96 96c0 53.019 42.981 96 96 96s96-42.981 96-96z" />
</font>
</defs>
</svg>
