<svg xmlns="http://www.w3.org/2000/svg" width="170.079" height="170.079" viewBox="-9.539 -19.539 170.079 170.079" enable-background="new -9.539 -19.539 170.079 170.079"><path fill="#DFE0E1" d="M76.627 130.499h-24.5c-6.6 0-12-5.399-12-12v-86c0-6.6 5.4-12 12-12h24.5c6.6 0 12 5.4 12 12v86c0 6.601-5.4 12-12 12"/><path fill="#B5B7B9" d="M76.627 20.499h-12.25v110h12.25c6.6 0 12-5.399 12-12v-86c0-6.6-5.4-12-12-12"/><g transform="translate(40 -.096)"><defs><filter id="a" filterUnits="userSpaceOnUse" x=".126" y=".095" width="48.5" height="19.167"><feColorMatrix values="1 0 0 0 0 0 1 0 0 0 0 0 1 0 0 0 0 0 1 0"/></filter></defs><mask maskUnits="userSpaceOnUse" x=".126" y=".095" width="48.5" height="19.167" id="b"><path fill="#FFF" d="M.126.096h48.5v19.166H.126z" filter="url(#a)"/></mask><path mask="url(#b)" fill="#DFE0E1" d="M41.426 19.262h-34.1c-3.96 0-7.2-3.24-7.2-7.2V7.295c0-3.96 3.24-7.2 7.2-7.2h34.1c3.96 0 7.2 3.24 7.2 7.2v4.767c0 3.96-3.24 7.2-7.2 7.2"/></g><g transform="translate(64 -.096)"><defs><filter id="c" filterUnits="userSpaceOnUse" x=".376" y=".095" width="24.25" height="19.167"><feColorMatrix values="1 0 0 0 0 0 1 0 0 0 0 0 1 0 0 0 0 0 1 0"/></filter></defs><mask maskUnits="userSpaceOnUse" x=".376" y=".095" width="24.25" height="19.167" id="d"><path fill="#FFF" d="M.376.096h24.25v19.166H.376z" filter="url(#c)"/></mask><path mask="url(#d)" fill="#B5B7B9" d="M17.426.095H.376v19.167h17.05c3.96 0 7.2-3.24 7.2-7.2V7.295c0-3.96-3.24-7.2-7.2-7.2"/></g><g opacity=".2" fill="#231F20"><path d="M51.995 59.676s-.289.586-.161 1.55c.129.963 0 2.666-.481 2.923 0 0 1.22-.257 1.477-.707 0 0 .032.739.835 1.381.804.643 2.153 1.157 2.634 2.184 0 0 .152-1.94-.16-2.923-.312-.982-.868-1.766-.546-2.826 0 0-2.763-.522-3.598-1.582m.674 5.244s.385.514 1.285.996c.899.482 2.35 1.671 2.377 2.827.032 1.413-.354 3.179-3.02 3.854 0 0 .9-1.671.257-2.602-.642-.932-2.12-2.281-.899-5.075m3.79-3.437s2.216.385 4.562 0c0 0 .771.803.738 2.28-.032 1.478-1.638 2.185-1.67 3.566 0 0-.546-.257-.771-.996 0 0-.323.587-.418 1.06-.096.482-.256 1.35.097 2.602 0 0-1.51-1.028-1.735-1.799-.225-.771-.165-2.279-.128-3.115.064-1.478-.964-2.185-.675-3.598"/><path d="M56.909 69.802s.128 1.767-1.734 2.827c-.76.432-.257 1.927.417 2.505.675.578 1.317 1.413 1.317 2.377 0 0 .899-.578.964-1.638.064-1.06-.61-1.735-.418-2.409.193-.675 1.317-1.542-.546-3.662m1.542.675s.739 2.826 1.895 3.661c1.094.791 1.221 1.896 1.381 3.116 0 0 2.056-1.734 1.349-4.304-.706-2.57-2.794-3.18-3.469-5.011 0 0-.224 2.441.867 3.791 0 0-1.027-.289-2.023-1.253m.193 2.955s-.225.449-.064.995c.578 1.542.16 2.089-.065 2.698-.225.611-.032 1.864 1.092 2.603 1.125.738 1.446 1.638 1.446 1.638s.61-.996.578-1.831c-.032-.835-.707-1.446-.803-2.281-.096-.835-.225-1.702-1.028-2.377-.803-.674-1.156-1.445-1.156-1.445m3.855-8.801s-.707 1.06-1.125 1.542c-.396.458-1.06 1.349-.353 2.57.707 1.22 1.124.706 2.57 3.147 0 0 .996-1.542.996-2.666s-2.12-2.891-2.088-4.593m-.354-3.213s.546.707.771 1.863c.225 1.157.289 1.767.803 2.827s1.509 1.638 1.509 1.638-.481-1.092.515-2.602c.995-1.51 1.103-4.059-1.471-4.625 0 0-.682.385-2.127.899"/><path d="M63.783 72.533s.546 2.056-.128 3.469c-.546 1.143-1.189 1.542-1.317 2.312-.129.772-.065 2.698 2.216 4.113 0 0-.739-1.125-.096-2.025.642-.899.546-.706.803-1.092 0 0 0 .322.449.707.45.385 1.125.739 1.253.964 0 0 .064-1.188-.097-1.574-.16-.386-.578-1.188-.481-2.152.096-.964.45-3.406-2.602-4.722m1.735-3.855s.385.578-.097 1.67c-.482 1.093-.771 1.51-.771 1.51s2.153-.225 2.795-1.413c.642-1.189.996-1.896.739-3.309-.257-1.414-1.253-3.02-1.253-3.02s-.161.643-.61 1.575c-.45.931-.546 1.542-.322 2.216.226.674.161 1.092.161 1.092s-.257-.321-.642-.321"/><path d="M65.389 72.468s1.542.932 1.831 2.569c.289 1.639-.032 2.025.128 2.667.161.642.45 1.541 1.382 2.119 0 0-.418-1.38.032-2.344.45-.963 1.702-3.212.835-4.819-.867-1.605-1.252-1.83-1.252-1.83s-.547 1.317-2.956 1.638m4.755-.513l-1.414-2.056s.354-.867.386-1.863c.032-.996-.386-1.992-.386-1.992s1.317-.096 1.992.579c.674.674 1.11 1.324 1.349 2.184.321 1.156 0 2.762.225 3.662 0 0-1.478-1.221-1.895-3.084 0 0 .032.514-.065 1.157-.096.641-.192 1.413-.192 1.413m-3.662-11.019s.996 1.125.739 2.281c0 0 .61 1.799 2.859 2.12.895.128 2.12 1.606 2.12 1.606s.449-2.923-.771-4.208c-.329-.346-1.606-1.124-1.606-1.124s-1.767-.065-3.341-.675m9.668-.931s-.064 1.478.899 2.28c0 0-1.381-.321-1.477-.417 0 0 .867 1.349.321 2.859-.576 1.594.771 3.726.771 3.726s-3.084-1.414-3.405-2.666c-.321-1.253.289-2.473-1.67-4.112 0 0 2.281-.353 4.561-1.67m-3.309 6.939s.554.95 1.67 1.413c1.317.546 1.038 1.888.932 2.28-.353 1.318-1.895 2.345-1.156 4.241 0 0-1.06-.675-1.156-1.67-.328-3.383.32-4.369-.29-6.264m-.16 7.933c-.214-1.542-1.735-2.73-1.735-2.73s.354 2.987-.932 4.593c0 0-.513 1.092-.224 1.927 0 0 .399-.598 1.009-1.097.098.406.597.905.597.905 0-.9.45-.932.899-1.67.329-.541.392-1.142.402-1.425a2.275 2.275 0 0 0-.016-.503m-8.818-17.872s-1.025-.614-2.795 0c-1.771.614-4.038 2.353-7.038 1.162-2.492-.989-3.272-3.095-3.272-3.095s-.796 3.007 2.669 4.669c3.335 1.6 7.547.844 9.038.332 1.491-.511 1.382-.852 1.382-1.039 0-.188.016-2.029.016-2.029"/><path d="M63.863 56.405s-.775-1.466-2.578-1.466c-3.805 0-3.894 1.99-7.609 2.256 0 0 1.182.707 2.3.707 1.97 0 3.909-1.685 5.395-1.857 1.77-.205 2.492.36 2.492.36m.676.6s1.025-.614 2.795 0c1.771.614 4.038 2.353 7.038 1.162 2.492-.989 3.272-3.095 3.272-3.095s.796 3.007-2.669 4.669c-3.335 1.6-7.547.844-9.039.332-1.49-.511-1.381-.852-1.381-1.039 0-.188-.016-2.029-.016-2.029"/><path d="M64.539 56.405s.775-1.466 2.578-1.466c3.805 0 3.894 1.99 7.608 2.256 0 0-1.181.707-2.299.707-1.97 0-3.909-1.685-5.395-1.857-1.77-.205-2.492.36-2.492.36"/></g><g transform="translate(0 48.904)"><defs><filter id="e" filterUnits="userSpaceOnUse" x="0" y=".662" width="35.741" height="81.06"><feColorMatrix values="1 0 0 0 0 0 1 0 0 0 0 0 1 0 0 0 0 0 1 0"/></filter></defs><mask maskUnits="userSpaceOnUse" x="0" y=".662" width="35.741" height="81.06" id="f"><path fill="#FFF" d="M0 81.722V.662h35.741v81.06z" filter="url(#e)"/></mask><path mask="url(#f)" fill="#DFE0E1" d="M29.784 81.722H5.957C2.681 81.722 0 79.041 0 75.765V18.532C0 8.703 8.042.662 17.87.662c9.829 0 17.871 8.041 17.871 17.87v57.233c0 3.276-2.681 5.957-5.957 5.957"/></g><path fill="#DFE0E1" d="M23.459 48.706H12.282c-3.884 0-7.062-3.178-7.062-7.062s3.178-7.062 7.062-7.062h11.177c3.884 0 7.062 3.178 7.062 7.062s-3.178 7.062-7.062 7.062"/><path fill="#B5B7B9" d="M25.215 34.582H17.87v14.124h7.345c2.918 0 5.306-2.388 5.306-5.306v-3.512c0-2.918-2.388-5.306-5.306-5.306m-5.392 14.984H17.87v81.06h12.565c2.918 0 5.305-2.388 5.305-5.306V65.483c0-8.754-7.163-15.917-15.917-15.917"/><g opacity=".2" fill="#231F20"><path d="M8.875 80.701s-.213.433-.118 1.143 0 1.964-.355 2.153c0 0 .899-.189 1.089-.521 0 0 .023.545.615 1.018.592.474 1.586.853 1.941 1.61 0 0 .112-1.43-.118-2.154s-.639-1.302-.403-2.083c0 0-2.035-.385-2.651-1.166m.497 3.864s.284.379.947.734 1.732 1.231 1.752 2.083c.023 1.041-.261 2.343-2.225 2.84 0 0 .662-1.23.189-1.917-.474-.686-1.562-1.68-.663-3.74m2.794-2.532s1.633.283 3.361 0c0 0 .568.592.545 1.681-.024 1.089-1.208 1.609-1.231 2.627 0 0-.403-.19-.569-.734 0 0-.237.433-.307.781a3.81 3.81 0 0 0 .071 1.917s-1.113-.757-1.278-1.325c-.166-.568-.122-1.679-.095-2.297.047-1.088-.71-1.609-.497-2.65"/><path d="M12.497 88.163s.095 1.303-1.278 2.083c-.56.319-.189 1.421.308 1.847.497.425.97 1.042.97 1.752 0 0 .663-.427.71-1.207.048-.782-.449-1.279-.307-1.776.141-.497.97-1.137-.403-2.699m1.136.497s.544 2.083 1.397 2.699c.806.582.899 1.397 1.018 2.296 0 0 1.515-1.278.994-3.172-.521-1.893-2.059-2.344-2.556-3.692 0 0-.166 1.799.638 2.793 0 0-.757-.213-1.491-.924m.142 2.177s-.166.332-.047.734c.426 1.136.118 1.538-.048 1.989-.165.449-.023 1.373.805 1.917.829.545 1.065 1.207 1.065 1.207s.45-.734.427-1.349c-.024-.615-.521-1.065-.592-1.681-.071-.615-.166-1.255-.758-1.752-.591-.497-.852-1.065-.852-1.065m2.841-6.485s-.521.781-.829 1.136c-.292.338-.781.994-.26 1.894.521.9.828.521 1.894 2.32 0 0 .734-1.137.734-1.965s-1.563-2.13-1.539-3.385m-.261-2.367s.402.521.568 1.373c.166.853.213 1.302.592 2.083.379.781 1.112 1.207 1.112 1.207s-.355-.805.379-1.917.813-2.991-1.083-3.409c0 0-.503.284-1.568.663"/><path d="M17.563 90.175s.402 1.515-.095 2.557c-.402.841-.876 1.135-.97 1.704-.095.567-.048 1.988 1.633 3.029 0 0-.545-.828-.071-1.491.473-.662.402-.521.592-.805 0 0 0 .236.331.521.331.284.829.545.923.711 0 0 .048-.876-.071-1.161-.118-.284-.426-.876-.355-1.586.071-.709.332-2.508-1.917-3.479m1.277-2.841s.284.426-.071 1.23c-.355.806-.568 1.114-.568 1.114s1.586-.166 2.059-1.042c.474-.876.734-1.397.545-2.438-.19-1.042-.923-2.225-.923-2.225s-.119.473-.45 1.16c-.331.686-.403 1.136-.237 1.633.166.497.119.804.119.804s-.19-.236-.474-.236"/><path d="M18.746 90.127s1.136.687 1.349 1.894c.213 1.208-.024 1.491.095 1.964.118.474.331 1.137 1.017 1.563 0 0-.307-1.018.024-1.729.331-.71 1.255-2.366.616-3.549-.64-1.184-.924-1.35-.924-1.35s-.402.971-2.177 1.207m3.503-.379l-1.042-1.515s.261-.638.285-1.373c.023-.733-.285-1.466-.285-1.466s.971-.072 1.468.425.818.976.994 1.61c.237.852 0 2.036.166 2.698 0 0-1.089-.9-1.397-2.273 0 0 .024.379-.047.853s-.142 1.041-.142 1.041m-2.698-8.118s.734.828.544 1.681c0 0 .45 1.325 2.107 1.561.66.095 1.562 1.184 1.562 1.184s.331-2.155-.568-3.101c-.242-.255-1.184-.828-1.184-.828s-1.301-.048-2.461-.497m7.124-.686s-.047 1.089.663 1.681c0 0-1.018-.238-1.089-.309 0 0 .639.995.237 2.107-.425 1.175.568 2.746.568 2.746s-2.273-1.041-2.509-1.964c-.237-.924.213-1.823-1.231-3.031 0 0 1.681-.26 3.361-1.23m-2.438 5.112s.408.7 1.231 1.042c.971.402.764 1.392.686 1.681-.26.969-1.396 1.727-.852 3.124 0 0-.781-.497-.852-1.231-.241-2.493.237-3.22-.213-4.616m-.118 5.847c-.158-1.136-1.278-2.012-1.278-2.012s.26 2.201-.687 3.385c0 0-.378.805-.165 1.42 0 0 .294-.44.743-.809.073.299.44.667.44.667 0-.663.331-.686.663-1.231.242-.399.288-.841.296-1.05a1.673 1.673 0 0 0-.012-.37m-6.498-13.17s-.755-.452-2.06 0c-1.304.452-2.975 1.733-5.186.856-1.836-.728-2.411-2.281-2.411-2.281s-.587 2.216 1.967 3.442c2.458 1.178 5.562.621 6.66.244 1.099-.376 1.019-.628 1.019-.766 0-.139.011-1.495.011-1.495"/><path d="M17.621 78.29s-.571-1.08-1.899-1.08c-2.805 0-2.87 1.467-5.607 1.662 0 0 .87.522 1.694.522 1.452 0 2.881-1.243 3.976-1.37 1.304-.15 1.836.266 1.836.266m.498.443s.755-.452 2.06 0 2.976 1.733 5.186.856c1.837-.728 2.411-2.281 2.411-2.281s.587 2.216-1.967 3.442c-2.458 1.178-5.561.621-6.66.244-1.098-.376-1.018-.628-1.018-.766 0-.139-.012-1.495-.012-1.495"/><path d="M18.119 78.29s.572-1.08 1.9-1.08c2.804 0 2.869 1.467 5.606 1.662 0 0-.87.522-1.694.522-1.451 0-2.881-1.243-3.976-1.37-1.304-.15-1.836.266-1.836.266"/></g><path fill="#DFE0E1" d="M143.516 130.904h-43.6c-3.96 0-7.2-3.239-7.2-7.199V104.21c0-3.96 3.24-7.201 7.2-7.201h43.6c3.96 0 7.2 3.241 7.2 7.201v19.495c0 3.96-3.24 7.199-7.2 7.199m3.6-34.7h-50.8a3.6 3.6 0 0 1-3.6-3.601v-3.599a3.6 3.6 0 0 1 3.6-3.6h50.8a3.6 3.6 0 0 1 3.6 3.6v3.599a3.6 3.6 0 0 1-3.6 3.601"/><path fill="#B5B7B9" d="M148.016 85.405h-26.3v10.8h26.3a2.7 2.7 0 0 0 2.7-2.7v-5.401a2.7 2.7 0 0 0-2.7-2.699"/><g transform="translate(121 96.904)"><defs><filter id="g" filterUnits="userSpaceOnUse" x=".715" y=".105" width="29" height="33.895"><feColorMatrix values="1 0 0 0 0 0 1 0 0 0 0 0 1 0 0 0 0 0 1 0"/></filter></defs><mask maskUnits="userSpaceOnUse" x=".715" y=".105" width="29" height="33.895" id="h"><path fill="#FFF" d="M29.715 34h-29V.105h29z" filter="url(#g)"/></mask><path mask="url(#h)" fill="#B5B7B9" d="M24.316.105H.716V34h23.6c2.97 0 5.4-2.43 5.4-5.4V5.505c-.001-2.969-2.431-5.4-5.4-5.4"/></g><g opacity=".2" fill="#231F20"><path d="M112.561 107.202s-.217.439-.121 1.162c.097.723 0 2-.361 2.192 0 0 .916-.192 1.108-.529 0 0 .024.554.627 1.035.602.483 1.614.868 1.975 1.639 0 0 .114-1.456-.12-2.192-.234-.737-.651-1.326-.41-2.12 0 0-2.072-.392-2.698-1.187m.506 3.932s.289.386.964.747c.674.361 1.763 1.253 1.783 2.12.024 1.06-.266 2.385-2.265 2.891 0 0 .674-1.252.193-1.951-.482-.699-1.591-1.71-.675-3.807m2.843-2.577s1.662.289 3.421 0c0 0 .578.602.554 1.71s-1.228 1.639-1.253 2.675c0 0-.409-.194-.578-.747 0 0-.242.44-.313.795a3.886 3.886 0 0 0 .072 1.951s-1.132-.771-1.301-1.349c-.168-.578-.123-1.71-.096-2.337.048-1.108-.723-1.638-.506-2.698"/><path d="M116.247 114.796s.096 1.325-1.301 2.12c-.57.324-.193 1.445.313 1.879.506.434.988 1.061.988 1.783 0 0 .674-.433.723-1.228.048-.796-.458-1.302-.314-1.808.145-.506.988-1.156-.409-2.746m1.156.506s.554 2.12 1.421 2.746c.821.593.916 1.422 1.036 2.337 0 0 1.542-1.301 1.012-3.228-.53-1.927-2.096-2.385-2.602-3.758 0 0-.168 1.831.651 2.842 0 0-.771-.216-1.518-.939m.145 2.217s-.168.337-.048.746c.433 1.157.12 1.567-.048 2.025-.169.457-.025 1.396.819 1.951.843.553 1.084 1.228 1.084 1.228s.458-.747.433-1.373c-.024-.627-.53-1.084-.602-1.711-.072-.626-.168-1.276-.771-1.782a3.486 3.486 0 0 1-.867-1.084m2.891-6.602s-.53.795-.843 1.156c-.298.344-.795 1.013-.265 1.928.529.915.843.53 1.927 2.361 0 0 .747-1.157.747-2 0-.842-1.59-2.168-1.566-3.445m-.265-2.409s.41.53.578 1.397c.169.868.217 1.326.602 2.121.386.794 1.133 1.228 1.133 1.228s-.362-.818.385-1.951c.747-1.132.828-3.044-1.102-3.469 0 0-.512.289-1.596.674"/><path d="M121.402 116.844s.41 1.542-.096 2.602c-.409.857-.892 1.156-.988 1.734-.096.578-.048 2.024 1.662 3.084 0 0-.554-.843-.072-1.518.482-.674.41-.53.602-.819 0 0 0 .241.337.53.338.289.844.554.94.723 0 0 .048-.892-.072-1.181-.121-.289-.434-.891-.361-1.614.072-.723.337-2.554-1.952-3.541m1.301-2.89s.289.434-.072 1.252c-.362.819-.578 1.133-.578 1.133s1.614-.169 2.096-1.061c.482-.89.746-1.421.554-2.48-.193-1.061-.94-2.265-.94-2.265s-.12.482-.457 1.18c-.338.699-.41 1.157-.241 1.663.168.506.12.818.12.818s-.193-.24-.482-.24"/><path d="M122.607 116.796s1.156.698 1.373 1.927c.217 1.228-.024 1.517.097 2 .12.481.337 1.156 1.035 1.59 0 0-.313-1.037.025-1.759.337-.723 1.277-2.409.626-3.613-.651-1.206-.94-1.374-.94-1.374s-.409.988-2.216 1.229m3.565-.385l-1.06-1.542s.265-.65.289-1.397c.024-.747-.289-1.494-.289-1.494s.988-.072 1.494.434c.505.506.833.993 1.011 1.638.242.867 0 2.072.169 2.747 0 0-1.108-.916-1.421-2.314 0 0 .024.386-.048.867-.073.483-.145 1.061-.145 1.061m-2.746-8.264s.747.844.554 1.711c0 0 .458 1.349 2.144 1.59.672.095 1.59 1.205 1.59 1.205s.337-2.193-.578-3.156c-.247-.26-1.205-.844-1.205-.844s-1.325-.048-2.505-.506m7.251-.698s-.048 1.108.675 1.71c0 0-1.036-.24-1.109-.313 0 0 .651 1.012.242 2.144-.433 1.196.578 2.795.578 2.795s-2.313-1.06-2.554-2c-.241-.94.217-1.855-1.253-3.083 0 0 1.711-.266 3.421-1.253m-2.481 5.204s.415.712 1.252 1.06c.988.409.778 1.416.699 1.71-.265.988-1.421 1.758-.867 3.18 0 0-.795-.506-.867-1.253-.246-2.537.241-3.276-.217-4.697"/><path d="M128.076 118.603c-.161-1.156-1.301-2.048-1.301-2.048s.265 2.24-.699 3.445c0 0-.385.819-.168 1.446 0 0 .299-.449.756-.823.074.304.448.678.448.678 0-.675.338-.699.675-1.253.247-.405.293-.856.301-1.068.01-.116.007-.241-.012-.377m-6.614-13.404s-.769-.46-2.097 0c-1.327.46-3.028 1.765-5.278.872-1.869-.742-2.454-2.322-2.454-2.322s-.597 2.256 2.002 3.502c2.502 1.2 5.66.634 6.779.25 1.118-.384 1.036-.64 1.036-.781 0-.14.012-1.521.012-1.521"/><path d="M121.462 104.748s-.582-1.1-1.934-1.1c-2.854 0-2.92 1.494-5.706 1.692 0 0 .886.531 1.725.531 1.477 0 2.932-1.265 4.046-1.394 1.328-.153 1.869.271 1.869.271m.507.451s.769-.46 2.097 0c1.327.46 3.028 1.765 5.278.872 1.869-.742 2.454-2.322 2.454-2.322s.597 2.256-2.002 3.502c-2.501 1.2-5.66.634-6.779.25-1.118-.384-1.036-.64-1.036-.781 0-.14-.012-1.521-.012-1.521"/><path d="M121.969 104.748s.582-1.1 1.934-1.1c2.854 0 2.92 1.494 5.706 1.692 0 0-.886.531-1.725.531-1.477 0-2.932-1.265-4.046-1.394-1.328-.153-1.869.271-1.869.271"/></g></svg>