<svg xmlns="http://www.w3.org/2000/svg" width="170.079" height="170.079" viewBox="-0.539 -38.039 170.079 170.079"><path fill="#B5B7B9" d="M160.003 66.695h2.121v-8.194h-2.121v8.194zM7.367 61.915h2.021V49.958H7.367v11.957zM118.846 25.63c.001 5.57.257 5.897 5.816 6.894 8.29 1.488 16.586 2.948 24.88 4.412.24.042.495.005.888.005-1.47-4.973-2.909-9.875-4.371-14.77-.628-2.102-1.273-4.2-1.971-6.281-.436-1.298-1.323-2.086-2.805-2.084-7.241.009-14.482.004-21.723.008-.192 0-.382.047-.713.091l-.001 11.725zm47.451 54.367c-4.045-.074-8.092-.028-12.27-.028-.224-5.26-2.298-9.547-6.577-12.637-2.999-2.167-6.418-3.198-10.119-2.938-7.643.538-14.364 6.148-14.889 15.479H49.964c-.119-5.059-2.169-9.196-6.19-12.29-3.023-2.327-6.523-3.416-10.337-3.195-7.539.437-14.529 6.054-15 15.581h-5.255c-3.494-.001-6.988-.054-10.48.029C1.515 80.027.67 79.673 0 78.767v-9.621l2.847-1.793c.127.096.255.192.382.29v-1.76c0-20.937.004-41.873-.011-62.809C3.217 1.826 3.253.659 4.559 0h117.936c2.754.302 5.517.54 8.262.918 5.544.764 10.226 3.125 13.431 7.776 1.029 1.493 1.707 3.272 2.291 5.004 2.5 7.418 4.881 14.875 7.379 22.293.242.719.872 1.431 1.514 1.876 2.563 1.776 5.184 3.471 7.82 5.141 1.327.841 1.878 1.967 1.87 3.51-.033 6.505-.014 13.01-.014 19.515v1.677c1.486.241 3.146-.227 3.953 1.436v9.621c-.663.926-1.523 1.252-2.704 1.23z"/><path fill="#DFE0E1" d="M29.401 79.974c.007 2.466 2.109 4.552 4.579 4.544 2.452-.008 4.568-2.124 4.564-4.566-.004-2.494-2.053-4.511-4.583-4.511-2.517.001-4.567 2.039-4.56 4.533M40 79.942c.015 3.216-2.743 6.015-5.97 6.057-3.326.043-6.054-2.711-6.029-6.088.024-3.356 2.623-5.92 5.989-5.912 3.332.01 5.994 2.642 6.01 5.943"/><path fill="#B5B7B9" d="M138.153 84.519c2.492-.097 4.419-2.193 4.353-4.735-.064-2.501-2.158-4.431-4.71-4.342-2.558.089-4.424 2.111-4.343 4.704a4.51 4.51 0 0 0 4.7 4.373m5.847-4.61c.03 3.303-2.786 6.12-6.087 6.091-3.311-.031-5.918-2.701-5.913-6.055.006-3.388 2.566-5.944 5.955-5.945 3.353-.001 6.015 2.6 6.045 5.909"/><path fill="#DFE0E1" d="M7.328 61.915h2.01V49.957h-2.01v11.958zM0 69.146v9.621c.667.906 1.507 1.26 2.687 1.231 3.472-.084 6.948-.029 10.423-.029h5.227c.469-9.527 7.421-15.145 14.92-15.581 3.794-.221 7.275.868 10.282 3.195 4 3.095 6.039 7.231 6.157 12.29H78V0H4.535C3.236.659 3.2 1.826 3.201 3.074c.015 20.936.01 41.872.01 62.809v1.76l-.38-.29L0 69.146z"/><path fill="#B4B6B8" d="M138.5 71.91c-4.738 0-8.591 3.854-8.591 8.59 0 4.737 3.853 8.591 8.591 8.591 4.737 0 8.591-3.854 8.591-8.591 0-4.737-3.854-8.59-8.591-8.59m0 22.09c-7.445 0-13.5-6.056-13.5-13.5 0-7.443 6.055-13.5 13.5-13.5 7.444 0 13.5 6.056 13.5 13.5S145.944 94 138.5 94"/><path fill="#DEDFE1" d="M34.5 71.909c-4.737 0-8.591 3.854-8.591 8.591 0 4.737 3.854 8.591 8.591 8.591s8.591-3.854 8.591-8.591c0-4.737-3.854-8.591-8.591-8.591M34.5 94C27.056 94 21 87.944 21 80.5S27.056 67 34.5 67 48 73.056 48 80.5 41.944 94 34.5 94"/><g opacity=".2" fill="#231F20"><path d="M63.189 27.334s-.357.71-.198 1.878c.158 1.168 0 3.231-.595 3.541 0 0 1.506-.311 1.823-.856 0 0 .04.895 1.03 1.673.991.778 2.655 1.401 3.25 2.647 0 0 .187-2.351-.198-3.541s-1.069-2.141-.673-3.425c0 0-3.408-.632-4.439-1.917m.833 6.354s.475.622 1.585 1.206c1.11.583 2.9 2.024 2.933 3.425.04 1.712-.436 3.853-3.725 4.67 0 0 1.11-2.024.317-3.152s-2.616-2.763-1.11-6.149m4.676-4.165s2.734.467 5.627 0c0 0 .951.973.911 2.763-.04 1.79-2.021 2.647-2.06 4.32 0 0-.674-.312-.951-1.207 0 0-.398.712-.515 1.284-.119.584-.317 1.635.119 3.153 0 0-1.863-1.245-2.14-2.18-.278-.934-.204-2.761-.159-3.775.079-1.789-1.189-2.645-.832-4.358"/><path d="M69.252 39.603s.158 2.141-2.14 3.425c-.937.523-.317 2.335.515 3.036.832.7 1.625 1.712 1.625 2.88 0 0 1.11-.7 1.189-1.984.079-1.285-.753-2.102-.515-2.919.237-.819 1.625-1.869-.674-4.438m1.903.818s.911 3.425 2.338 4.437c1.349.957 1.506 2.296 1.704 3.775 0 0 2.536-2.101 1.664-5.215-.872-3.113-3.448-3.853-4.279-6.071 0 0-.278 2.958 1.069 4.592 0-.001-1.268-.351-2.496-1.518m.237 3.58s-.278.545-.079 1.206c.713 1.868.198 2.529-.079 3.269-.278.74-.04 2.257 1.347 3.152 1.387.896 1.783 1.985 1.783 1.985s.753-1.206.713-2.218c-.04-1.012-.872-1.752-.99-2.764-.119-1.011-.278-2.063-1.268-2.88-.991-.816-1.427-1.75-1.427-1.75m4.755-10.664s-.872 1.284-1.387 1.868c-.49.555-1.307 1.634-.436 3.113.872 1.479 1.387.856 3.17 3.814 0 0 1.229-1.868 1.229-3.23 0-1.361-2.615-3.502-2.576-5.565m-.435-3.892s.674.856.951 2.257c.278 1.401.357 2.141.991 3.425s1.863 1.985 1.863 1.985-.595-1.323.634-3.152c1.229-1.829 1.361-4.918-1.813-5.605-.002.001-.844.468-2.626 1.09"/><path d="M77.732 42.911s.674 2.491-.158 4.203c-.674 1.385-1.466 1.868-1.625 2.802-.158.934-.079 3.269 2.735 4.982 0 0-.912-1.362-.119-2.452.793-1.09.674-.856.991-1.324 0 0 0 .39.555.857.555.467 1.387.895 1.545 1.167 0 0 .079-1.44-.119-1.906-.198-.468-.713-1.44-.595-2.608.119-1.167.555-4.125-3.21-5.721m2.14-4.67s.476.701-.119 2.024c-.595 1.324-.951 1.83-.951 1.83s2.654-.273 3.447-1.713c.793-1.44 1.228-2.296.911-4.009-.317-1.712-1.545-3.658-1.545-3.658s-.198.778-.753 1.907c-.555 1.128-.674 1.868-.397 2.685.278.817.198 1.323.198 1.323s-.315-.389-.791-.389"/><path d="M79.714 42.834s1.902 1.128 2.259 3.113-.04 2.452.158 3.23.555 1.868 1.704 2.569c0 0-.516-1.673.04-2.841.555-1.168 2.1-3.892 1.03-5.838-1.069-1.946-1.545-2.219-1.545-2.219s-.674 1.596-3.646 1.986m5.865-.623l-1.744-2.491s.436-1.051.476-2.257c.04-1.206-.476-2.413-.476-2.413s1.625-.117 2.457.7c.832.818 1.369 1.605 1.664 2.647.396 1.401 0 3.347.277 4.436 0 0-1.822-1.479-2.337-3.736 0 0 .04.622-.08 1.401-.119.779-.237 1.713-.237 1.713m-4.518-13.349s1.228 1.362.911 2.763c0 0 .753 2.18 3.527 2.569 1.105.155 2.616 1.946 2.616 1.946s.555-3.541-.951-5.098c-.406-.42-1.981-1.362-1.981-1.362s-2.18-.079-4.122-.818m11.928-1.129s-.079 1.79 1.11 2.763c0 0-1.704-.389-1.823-.506 0 0 1.07 1.634.396 3.464-.712 1.931.951 4.514.951 4.514s-3.804-1.712-4.201-3.23c-.396-1.518.357-2.996-2.061-4.982 0 .001 2.814-.427 5.628-2.023m-4.082 8.406s.682 1.151 2.06 1.713c1.625.661 1.279 2.288 1.149 2.763-.436 1.596-2.338 2.841-1.426 5.137 0 0-1.307-.817-1.427-2.024-.403-4.097.397-5.292-.356-7.589m-.198 9.614c-.264-1.868-2.14-3.308-2.14-3.308s.436 3.62-1.15 5.566c0 0-.634 1.323-.277 2.334 0 0 .492-.724 1.244-1.329.121.492.737 1.096.737 1.096 0-1.089.555-1.129 1.109-2.024.407-.655.483-1.383.496-1.726a2.634 2.634 0 0 0-.019-.609M77.83 24.098s-1.264-.744-3.448 0-4.982 2.85-8.682 1.408c-3.075-1.199-4.037-3.75-4.037-3.75s-.982 3.643 3.292 5.657c4.115 1.939 9.311 1.023 11.15.403s1.705-1.033 1.705-1.26l.02-2.458"/><path d="M77.83 23.372s-.956-1.776-3.181-1.776c-4.694 0-4.803 2.411-9.386 2.733 0 0 1.458.857 2.837.857 2.43 0 4.823-2.042 6.655-2.251 2.186-.248 3.075.437 3.075.437m.835.726s1.264-.744 3.449 0c2.183.744 4.981 2.85 8.681 1.408 3.075-1.199 4.037-3.75 4.037-3.75s.982 3.643-3.292 5.657c-4.115 1.939-9.311 1.023-11.15.403-1.839-.62-1.705-1.033-1.705-1.26l-.02-2.458"/><path d="M78.665 23.372s.956-1.776 3.181-1.776c4.694 0 4.803 2.411 9.386 2.733 0 0-1.458.857-2.837.857-2.429 0-4.823-2.042-6.655-2.251-2.185-.248-3.075.437-3.075.437"/></g></svg>