<svg xmlns="http://www.w3.org/2000/svg" width="170.079" height="170.079" viewBox="-7.539 -48.039 170.079 170.079"><path fill="#B5B7B9" d="M147.138 20.186H7.168C3.226 20.186 0 16.96 0 13.018 0 9.075 3.226 5.85 7.168 5.85h139.97c3.942 0 7.168 3.225 7.168 7.168 0 3.942-3.226 7.168-7.168 7.168"/><path fill="#DFE0E1" d="M147.138 44.02H7.168C3.226 44.02 0 40.794 0 36.852s3.226-7.168 7.168-7.168h139.97c3.942 0 7.168 3.226 7.168 7.168s-3.226 7.168-7.168 7.168"/><path fill="#B5B7B9" d="M7.168 67.973C3.226 67.973 0 64.747 0 60.805s3.226-7.168 7.168-7.168h139.97c3.942 0 7.168 3.226 7.168 7.168s-3.226 7.168-7.168 7.168H7.168z"/><path fill="#6C6E70" d="M43.644 11.855c0 6.548-5.308 11.856-11.855 11.856-6.548 0-11.856-5.308-11.856-11.856C19.933 5.308 25.241 0 31.789 0c6.547 0 11.855 5.308 11.855 11.855"/><path fill="#C3C5C7" d="M25.939 8.295s-.134.271-.074.716c.059.445 0 1.231-.223 1.35 0 0 .564-.119.683-.326 0 0 .014.341.385.637.372.297.995.535 1.217 1.01 0 0 .07-.897-.074-1.35-.144-.454-.4-.817-.252-1.306 0 0-1.276-.241-1.662-.731m.311 2.423s.178.237.594.46c.415.222 1.086.771 1.097 1.306.015.652-.163 1.468-1.394 1.78 0 0 .415-.772.118-1.202-.297-.43-.978-1.053-.415-2.344m1.751-1.588s1.023.178 2.106 0c0 0 .357.371.342 1.054-.015.682-.757 1.009-.771 1.647 0 0-.253-.119-.357-.46 0 0-.149.271-.193.489-.044.223-.118.624.045 1.202 0 0-.697-.475-.801-.831s-.076-1.053-.059-1.439c.029-.683-.446-1.009-.312-1.662"/><path fill="#C3C5C7" d="M28.208 12.973s.06.816-.801 1.306c-.35.199-.119.89.194 1.157.311.267.607.653.607 1.098 0 0 .416-.267.445-.757.031-.489-.281-.801-.192-1.113.089-.311.608-.712-.253-1.691m.713.311s.341 1.306.875 1.692c.506.365.563.875.638 1.439 0 0 .95-.801.624-1.988-.327-1.187-1.291-1.469-1.603-2.315 0 0-.104 1.128.401 1.751 0 0-.475-.134-.935-.579m.089 1.365s-.104.208-.03.46c.267.712.074.964-.03 1.247-.103.281-.014.86.505 1.201.519.342.667.757.667.757s.283-.46.268-.846c-.015-.386-.326-.668-.371-1.053-.045-.386-.104-.787-.475-1.099-.371-.311-.534-.667-.534-.667m1.78-4.065s-.326.49-.52.712c-.182.212-.489.623-.163 1.187.327.564.52.327 1.188 1.455 0 0 .46-.713.46-1.232s-.98-1.335-.965-2.122M30.627 9.1s.252.327.356.861c.104.534.133.816.371 1.306.238.489.698.756.698.756s-.223-.505.237-1.202c.46-.697.51-1.874-.68-2.136 0 0-.314.178-.982.415"/><path fill="#C3C5C7" d="M31.384 14.234s.252.95-.06 1.603c-.252.528-.548.712-.608 1.068-.06.356-.029 1.246 1.023 1.899 0 0-.34-.519-.043-.935.296-.415.251-.326.371-.504 0 0 0 .148.207.326.208.178.519.341.579.445 0 0 .029-.548-.045-.727-.074-.178-.267-.549-.223-.994.045-.445.208-1.573-1.201-2.181m.801-1.78s.179.267-.044.771c-.223.505-.356.698-.356.698s.994-.104 1.291-.653c.296-.549.46-.876.34-1.528-.118-.653-.578-1.395-.578-1.395s-.074.297-.282.727c-.208.43-.252.712-.148 1.024s.074.504.074.504-.118-.148-.297-.148"/><path fill="#C3C5C7" d="M32.125 14.204s.713.431.846 1.187c.133.757-.015.935.059 1.232.074.296.208.712.639.979 0 0-.193-.638.015-1.083.207-.445.786-1.484.385-2.226-.4-.742-.579-.845-.579-.845s-.252.608-1.365.756m2.197-.237l-.652-.949s.163-.401.177-.861c.015-.46-.177-.92-.177-.92s.608-.044.92.267c.311.312.512.612.623 1.009.148.534 0 1.276.103 1.691 0 0-.682-.563-.875-1.424 0 0 .015.238-.03.534-.044.297-.089.653-.089.653M32.63 8.878s.46.519.341 1.053c0 0 .282.831 1.321.98.413.059.979.741.979.741s.208-1.35-.356-1.943c-.152-.16-.742-.519-.742-.519s-.815-.03-1.543-.312m4.466-.431s-.029.683.416 1.054c0 0-.639-.149-.683-.193 0 0 .401.623.149 1.32-.267.736.355 1.721.355 1.721s-1.424-.652-1.572-1.231c-.148-.579.134-1.143-.771-1.899 0 0 1.053-.164 2.106-.772m-1.528 3.205s.256.439.771.653c.609.252.48.872.431 1.053-.163.608-.875 1.084-.534 1.959 0 0-.489-.312-.534-.772-.152-1.562.148-2.018-.134-2.893m-.075 3.665c-.099-.712-.801-1.261-.801-1.261s.163 1.38-.43 2.122c0 0-.238.504-.104.89 0 0 .185-.276.466-.507.046.188.276.418.276.418 0-.415.207-.43.415-.771a1.4 1.4 0 0 0 .186-.659.969.969 0 0 0-.008-.232M31.42 7.062s-.473-.284-1.291 0c-.817.283-1.865 1.086-3.25.537-1.151-.457-1.512-1.43-1.512-1.43s-.368 1.389 1.233 2.157c1.541.739 3.486.389 4.174.153.689-.236.639-.394.639-.48l.007-.937"/><path fill="#C3C5C7" d="M31.42 6.785s-.357-.677-1.19-.677c-1.758 0-1.799.919-3.515 1.042 0 0 .546.326 1.062.326.91 0 1.806-.778 2.493-.858.817-.094 1.15.167 1.15.167m.313.277s.474-.284 1.291 0c.818.283 1.865 1.086 3.251.537 1.151-.457 1.512-1.43 1.512-1.43s.367 1.389-1.234 2.157c-1.54.739-3.485.389-4.174.153s-.638-.394-.638-.48l-.008-.937"/><path fill="#C3C5C7" d="M31.733 6.785s.358-.677 1.191-.677c1.758 0 1.798.919 3.514 1.042 0 0-.545.326-1.061.326-.911 0-1.806-.778-2.493-.858-.817-.094-1.151.167-1.151.167"/><path fill="#6C6E70" d="M132.45 36.852c0 6.548-5.308 11.855-11.855 11.855-6.548 0-11.856-5.307-11.856-11.855s5.308-11.855 11.856-11.855c6.547 0 11.855 5.307 11.855 11.855"/><path fill="#C3C5C7" d="M114.745 33.291s-.134.271-.074.716c.059.445 0 1.232-.223 1.35 0 0 .564-.118.683-.326 0 0 .014.341.385.638.372.297.995.534 1.217 1.009 0 0 .07-.897-.074-1.35-.144-.454-.4-.816-.252-1.306-.001 0-1.277-.241-1.662-.731m.311 2.423s.178.237.594.46c.415.223 1.086.771 1.097 1.306.015.652-.163 1.468-1.394 1.78 0 0 .415-.772.118-1.202-.296-.43-.978-1.053-.415-2.344m1.751-1.588s1.023.178 2.106 0c0 0 .357.371.342 1.054-.014.682-.757 1.009-.771 1.646 0 0-.253-.118-.357-.46 0 0-.149.272-.192.49-.045.223-.119.624.044 1.202 0 0-.697-.475-.801-.831-.104-.356-.076-1.052-.059-1.439.029-.683-.446-1.009-.312-1.662"/><path fill="#C3C5C7" d="M117.015 37.969s.059.816-.802 1.306c-.35.2-.118.89.194 1.157.311.267.608.653.608 1.099 0 0 .415-.268.444-.757.031-.491-.281-.802-.192-1.114.089-.311.608-.712-.252-1.691m.712.311s.341 1.306.875 1.691c.506.366.564.876.639 1.44 0 0 .949-.801.623-1.988-.327-1.187-1.291-1.469-1.603-2.315 0 0-.104 1.128.401 1.751 0 0-.475-.134-.935-.579m.06 1.825c.266.712.074.965-.031 1.246-.103.282-.014.86.505 1.202.52.341.667.757.667.757s.283-.46.268-.846c-.015-.385-.326-.668-.371-1.053-.044-.386-.104-.787-.475-1.098-.371-.312-.534-.668-.534-.668s-.104.208-.029.46zm1.809-4.525s-.326.489-.52.712c-.182.212-.489.623-.163 1.187.328.564.52.327 1.188 1.455 0 0 .46-.713.46-1.232s-.98-1.336-.965-2.122m-.163-1.483s.252.326.356.86c.104.535.133.817.372 1.306.237.489.697.757.697.757s-.223-.505.237-1.202c.46-.698.51-1.875-.68-2.137 0 0-.314.179-.982.416"/><path fill="#C3C5C7" d="M120.19 39.23s.252.949-.06 1.602c-.252.528-.548.712-.608 1.068-.06.356-.029 1.247 1.024 1.899 0 0-.341-.519-.044-.934.296-.415.251-.326.371-.505 0 0 0 .148.208.327.207.178.518.341.578.444 0 0 .029-.548-.045-.726-.073-.178-.267-.549-.222-.994.044-.446.207-1.574-1.202-2.181m.801-1.781s.179.268-.044.771c-.223.505-.356.698-.356.698s.994-.104 1.291-.653c.296-.548.46-.875.34-1.528-.118-.652-.578-1.394-.578-1.394s-.074.296-.282.726c-.208.431-.252.713-.148 1.025.104.311.074.503.074.503s-.118-.148-.297-.148"/><path fill="#C3C5C7" d="M120.932 39.2s.712.431.846 1.187c.133.756-.016.935.058 1.232.075.297.208.712.639.978 0 0-.193-.637.015-1.083.208-.444.786-1.483.385-2.225-.4-.741-.579-.846-.579-.846s-.252.609-1.364.757m2.195-.237l-.652-.949s.163-.402.177-.862c.015-.46-.177-.919-.177-.919s.608-.044.92.267c.311.312.512.611.623 1.009.148.534 0 1.276.103 1.691 0 0-.682-.563-.875-1.424 0 0 .015.238-.03.535-.044.296-.089.652-.089.652m-1.691-5.089s.46.52.342 1.053c0 0 .281.831 1.32.979.413.06.98.742.98.742s.207-1.35-.357-1.943c-.152-.16-.742-.519-.742-.519s-.815-.031-1.543-.312m4.466-.431s-.029.683.416 1.054c0 0-.639-.149-.683-.194 0 0 .401.623.149 1.322-.267.736.355 1.72.355 1.72s-1.424-.653-1.572-1.231c-.148-.579.134-1.143-.771-1.9 0 0 1.053-.163 2.106-.771m-1.529 3.205s.256.438.771.652c.609.253.48.873.431 1.054-.163.608-.875 1.083-.534 1.959 0 0-.489-.311-.534-.771-.152-1.563.148-2.019-.134-2.894"/><path fill="#C3C5C7" d="M124.299 40.313c-.099-.713-.801-1.262-.801-1.262s.163 1.38-.43 2.122c0 0-.238.504-.104.89 0 0 .185-.275.466-.506.046.187.276.417.276.417 0-.415.207-.43.415-.771a1.4 1.4 0 0 0 .186-.659 1.015 1.015 0 0 0-.008-.231m-4.073-8.255s-.473-.283-1.291 0c-.817.284-1.865 1.087-3.25.537-1.151-.457-1.512-1.43-1.512-1.43s-.368 1.389 1.233 2.157c1.541.739 3.486.39 4.174.154.69-.236.639-.395.639-.481l.007-.937"/><path fill="#C3C5C7" d="M120.226 31.78s-.357-.677-1.19-.677c-1.758 0-1.799.919-3.515 1.042 0 0 .546.326 1.062.326.911 0 1.806-.778 2.493-.857.817-.095 1.15.166 1.15.166m.312.278s.474-.283 1.292 0c.817.284 1.865 1.087 3.25.537 1.151-.457 1.512-1.43 1.512-1.43s.367 1.389-1.233 2.157c-1.541.739-3.486.39-4.175.154s-.638-.395-.638-.481c.001-.086-.008-.937-.008-.937"/><path fill="#C3C5C7" d="M120.538 31.78s.358-.677 1.191-.677c1.758 0 1.799.919 3.514 1.042 0 0-.545.326-1.061.326-.911 0-1.806-.778-2.493-.857-.816-.095-1.151.166-1.151.166"/><path fill="#6C6E70" d="M57.45 61.852c0 6.548-5.308 11.855-11.855 11.855-6.548 0-11.856-5.307-11.856-11.855s5.308-11.855 11.856-11.855c6.547 0 11.855 5.307 11.855 11.855"/><path fill="#C3C5C7" d="M39.745 58.291s-.134.271-.074.716c.059.445 0 1.232-.223 1.35 0 0 .564-.118.683-.326 0 0 .014.341.385.638.372.297.995.534 1.217 1.009 0 0 .07-.897-.074-1.35-.144-.454-.4-.816-.252-1.306-.001 0-1.277-.241-1.662-.731m.311 2.423s.178.237.594.46c.415.223 1.086.771 1.097 1.306.015.652-.163 1.468-1.394 1.78 0 0 .415-.772.118-1.202-.296-.43-.978-1.053-.415-2.344m1.751-1.588s1.023.178 2.106 0c0 0 .357.371.342 1.054-.014.682-.757 1.009-.771 1.646 0 0-.253-.118-.357-.46 0 0-.149.272-.192.49-.045.223-.119.624.044 1.202 0 0-.697-.475-.801-.831-.104-.356-.076-1.052-.059-1.439.029-.683-.446-1.009-.312-1.662"/><path fill="#C3C5C7" d="M42.015 62.969s.059.816-.802 1.306c-.35.2-.118.89.194 1.157.311.267.608.653.608 1.099 0 0 .415-.268.444-.757.031-.491-.281-.802-.192-1.114.089-.311.608-.712-.252-1.691m.712.311s.341 1.306.875 1.691c.506.366.564.876.639 1.44 0 0 .949-.801.623-1.988-.327-1.187-1.291-1.469-1.603-2.315 0 0-.104 1.128.401 1.751 0 0-.475-.134-.935-.579m.06 1.825c.266.712.074.965-.031 1.246-.103.282-.014.86.505 1.202.52.341.667.757.667.757s.283-.46.268-.846c-.015-.385-.326-.668-.371-1.053-.044-.386-.104-.787-.475-1.098-.371-.312-.534-.668-.534-.668s-.104.208-.029.46zm1.809-4.525s-.326.489-.52.712c-.182.212-.489.623-.163 1.187.328.564.52.327 1.188 1.455 0 0 .46-.713.46-1.232s-.98-1.336-.965-2.122m-.163-1.483s.252.326.356.86c.104.535.133.817.372 1.306.237.489.697.757.697.757s-.223-.505.237-1.202c.46-.698.51-1.875-.68-2.137 0 0-.314.179-.982.416"/><path fill="#C3C5C7" d="M45.19 64.23s.252.949-.06 1.602c-.252.528-.548.712-.608 1.068-.06.356-.029 1.247 1.024 1.899 0 0-.341-.519-.044-.934.296-.415.251-.326.371-.505 0 0 0 .148.208.327.207.178.518.341.578.444 0 0 .029-.548-.045-.726-.073-.178-.267-.549-.222-.994.044-.446.207-1.574-1.202-2.181m.801-1.781s.179.268-.044.771c-.223.505-.356.698-.356.698s.994-.104 1.291-.653c.296-.548.46-.875.34-1.528-.118-.652-.578-1.394-.578-1.394s-.074.296-.282.726c-.208.431-.252.713-.148 1.025.104.311.074.503.074.503s-.118-.148-.297-.148"/><path fill="#C3C5C7" d="M45.932 64.2s.712.431.846 1.187c.133.756-.016.935.058 1.232.075.297.208.712.639.978 0 0-.193-.637.015-1.083.208-.444.786-1.483.385-2.225-.4-.741-.579-.846-.579-.846s-.252.609-1.364.757m2.195-.237l-.652-.949s.163-.402.177-.862c.015-.46-.177-.919-.177-.919s.608-.044.92.267c.311.312.512.611.623 1.009.148.534 0 1.276.103 1.691 0 0-.682-.563-.875-1.424 0 0 .015.238-.03.535-.044.296-.089.652-.089.652m-1.691-5.089s.46.52.342 1.053c0 0 .281.831 1.32.979.413.06.98.742.98.742s.207-1.35-.357-1.943c-.152-.16-.742-.519-.742-.519s-.815-.031-1.543-.312m4.466-.431s-.029.683.416 1.054c0 0-.639-.149-.683-.194 0 0 .401.623.149 1.322-.267.736.355 1.72.355 1.72s-1.424-.653-1.572-1.231c-.148-.579.134-1.143-.771-1.9 0 0 1.053-.163 2.106-.771m-1.529 3.205s.256.438.771.652c.609.253.48.873.431 1.054-.163.608-.875 1.083-.534 1.959 0 0-.489-.311-.534-.771-.152-1.563.148-2.019-.134-2.894"/><path fill="#C3C5C7" d="M49.299 65.313c-.099-.713-.801-1.262-.801-1.262s.163 1.38-.43 2.122c0 0-.238.504-.104.89 0 0 .185-.275.466-.506.046.187.276.417.276.417 0-.415.207-.43.415-.771a1.4 1.4 0 0 0 .186-.659 1.015 1.015 0 0 0-.008-.231m-4.073-8.255s-.473-.283-1.291 0c-.817.284-1.865 1.087-3.25.537-1.151-.457-1.512-1.43-1.512-1.43s-.368 1.389 1.233 2.157c1.541.739 3.486.39 4.174.154.69-.236.639-.395.639-.481l.007-.937"/><path fill="#C3C5C7" d="M45.226 56.78s-.357-.677-1.19-.677c-1.758 0-1.799.919-3.515 1.042 0 0 .546.326 1.062.326.911 0 1.806-.778 2.493-.857.817-.095 1.15.166 1.15.166m.312.278s.474-.283 1.292 0c.817.284 1.865 1.087 3.25.537 1.151-.457 1.512-1.43 1.512-1.43s.367 1.389-1.233 2.157c-1.541.739-3.486.39-4.175.154s-.638-.395-.638-.481c.001-.086-.008-.937-.008-.937"/><path fill="#C3C5C7" d="M45.538 56.78s.358-.677 1.191-.677c1.758 0 1.799.919 3.514 1.042 0 0-.545.326-1.061.326-.911 0-1.806-.778-2.493-.857-.816-.095-1.151.166-1.151.166"/></svg>