<?xml version="1.0" encoding="UTF-8"?>
<svg width="20px" height="26px" viewBox="0 0 20 26" version="1.1" xmlns="http://www.w3.org/2000/svg" xmlns:xlink="http://www.w3.org/1999/xlink">
    <!-- Generator: Sketch 47 (45396) - http://www.bohemiancoding.com/sketch -->
    <title>Page 1</title>
    <desc>Created with Sketch.</desc>
    <defs></defs>
    <g id="Page-1" stroke="none" stroke-width="1" fill="none" fill-rule="evenodd">
        <g id="Screen_01_v2" transform="translate(-23.000000, -286.000000)">
            <g id="Page-1" transform="translate(23.000000, 286.000000)">
                <path d="M19.2251,12.7652 C19.2251,9.6202 17.6821,6.6692 15.0981,4.8702 L14.5261,5.6912 C16.8421,7.3032 18.2251,9.9472 18.2251,12.7652 C18.2251,17.5142 14.3611,21.3772 9.6121,21.3772 C9.4711,21.3772 9.3301,21.3662 9.1891,21.3582 L11.6151,18.9322 L10.9081,18.2252 L7.2561,21.8772 L10.9081,25.5302 L11.6151,24.8232 L9.1491,22.3572 C9.3041,22.3642 9.4571,22.3772 9.6121,22.3772 C14.9131,22.3772 19.2251,18.0652 19.2251,12.7652" id="Fill-3" fill="#D6405A"></path>
                <path d="M8.3164,0 L7.6094,0.707 L10.0804,3.178 C9.9234,3.17 9.7704,3.152 9.6124,3.152 C4.3124,3.152 0.0004,7.465 0.0004,12.765 C0.0004,15.814 1.4694,18.713 3.9304,20.52 L4.5224,19.714 C2.3164,18.095 1.0004,15.497 1.0004,12.765 C1.0004,8.016 4.8634,4.152 9.6124,4.152 C9.7544,4.152 9.8924,4.168 10.0314,4.175 L7.6094,6.598 L8.3164,7.305 L11.9684,3.652 L8.3164,0 Z" id="Fill-1" fill="#FFFFFF"></path>
            </g>
        </g>
    </g>
</svg>