<?xml version="1.0" encoding="UTF-8"?>
<svg width="24px" height="17px" viewBox="0 0 24 17" version="1.1" xmlns="http://www.w3.org/2000/svg" xmlns:xlink="http://www.w3.org/1999/xlink">
    <!-- Generator: Sketch 47 (45396) - http://www.bohemiancoding.com/sketch -->
    <title>Page 1</title>
    <desc>Created with Sketch.</desc>
    <defs>
        <polygon id="path-1" points="14.522 0.616 0 0.616 0 8.80785 0 16.9997 14.522 16.9997"></polygon>
    </defs>
    <g id="Page-1" stroke="none" stroke-width="1" fill="none" fill-rule="evenodd">
        <g id="Screen_01_v2" transform="translate(-21.000000, -417.000000)">
            <g id="Page-1" transform="translate(21.000000, 416.000000)">
                <path d="M20.8286,16.0986 C20.7056,16.0986 20.5826,16.0536 20.4856,15.9626 C20.2846,15.7736 20.2756,15.4566 20.4646,15.2556 C22.0156,13.6086 22.8696,11.4546 22.8696,9.1916 C22.8696,6.9266 22.0146,4.7726 20.4626,3.1256 C20.2736,2.9246 20.2826,2.6086 20.4836,2.4186 C20.6836,2.2296 21.0006,2.2396 21.1906,2.4406 C22.9176,4.2736 23.8696,6.6706 23.8696,9.1916 C23.8696,11.7096 22.9186,14.1076 21.1926,15.9416 C21.0946,16.0456 20.9616,16.0986 20.8286,16.0986" id="Fill-1" fill="#D6405A"></path>
                <path d="M16.7837,12.8057 C16.6457,12.8057 16.5087,12.7487 16.4097,12.6377 C16.2267,12.4307 16.2447,12.1157 16.4517,11.9317 C17.2357,11.2367 17.6847,10.2377 17.6847,9.1917 C17.6847,8.1457 17.2347,7.1467 16.4507,6.4517 C16.2447,6.2677 16.2257,5.9517 16.4087,5.7447 C16.5917,5.5367 16.9087,5.5217 17.1157,5.7027 C18.1127,6.5887 18.6847,7.8597 18.6847,9.1917 C18.6847,10.5237 18.1127,11.7947 17.1157,12.6797 C17.0207,12.7637 16.9017,12.8057 16.7837,12.8057" id="Fill-3" fill="#D6405A"></path>
                <path d="M18.8169,14.458 C18.6899,14.458 18.5619,14.409 18.4639,14.312 C18.2689,14.118 18.2679,13.802 18.4629,13.605 C19.6359,12.424 20.2829,10.856 20.2829,9.191 C20.2829,7.52 19.6309,5.947 18.4489,4.765 C18.2539,4.569 18.2539,4.253 18.4489,4.058 C18.6439,3.862 18.9609,3.862 19.1559,4.058 C20.5269,5.429 21.2829,7.252 21.2829,9.191 C21.2829,11.122 20.5329,12.94 19.1709,14.311 C19.0739,14.409 18.9449,14.458 18.8169,14.458" id="Fill-5" fill="#D6405A"></path>
                <g id="Group-9" transform="translate(0.000000, 0.383800)">
                    <mask id="mask-2" fill="white">
                        <use xlink:href="#path-1"></use>
                    </mask>
                    <g id="Clip-8"></g>
                    <path d="M1,10.2197 L1,7.3957 L13.522,2.7647 L13.522,14.8507 L1,10.2197 Z M6.712,14.1157 C6.688,14.1827 6.64,14.2377 6.576,14.2677 C6.512,14.2977 6.439,14.3017 6.372,14.2797 L3.741,13.3567 C3.603,13.3077 3.529,13.1557 3.577,13.0167 L3.817,12.3277 L6.934,13.4807 L6.712,14.1157 Z M14.022,0.6157 C13.746,0.6157 13.522,0.8397 13.522,1.1157 L13.522,1.6987 L0.961,6.3427 C0.886,6.1627 0.708,6.0357 0.5,6.0357 C0.224,6.0357 0,6.2597 0,6.5357 L0,6.6987 L0,10.9167 L0,11.0797 C0,11.3567 0.224,11.5797 0.5,11.5797 C0.708,11.5797 0.886,11.4527 0.961,11.2727 L2.879,11.9817 L2.633,12.6877 C2.404,13.3447 2.752,14.0687 3.41,14.2997 L6.04,15.2227 C6.178,15.2717 6.32,15.2947 6.461,15.2947 C6.649,15.2947 6.835,15.2527 7.009,15.1687 C7.315,15.0227 7.544,14.7647 7.656,14.4457 L7.872,13.8267 L13.522,15.9157 L13.522,16.4997 C13.522,16.7767 13.746,16.9997 14.022,16.9997 C14.298,16.9997 14.522,16.7767 14.522,16.4997 L14.522,16.2857 L14.522,1.3287 L14.522,1.1157 C14.522,0.8397 14.298,0.6157 14.022,0.6157 L14.022,0.6157 Z" id="Fill-7" fill="#FFFFFF" mask="url(#mask-2)"></path>
                </g>
            </g>
        </g>
    </g>
</svg>