<?xml version="1.0" encoding="UTF-8"?>
<svg width="21px" height="21px" viewBox="0 0 21 21" version="1.1" xmlns="http://www.w3.org/2000/svg" xmlns:xlink="http://www.w3.org/1999/xlink">
    <!-- Generator: Sketch 47 (45396) - http://www.bohemiancoding.com/sketch -->
    <title>Page 1</title>
    <desc>Created with Sketch.</desc>
    <defs>
        <polygon id="path-1" points="20.1126 21 0 21 0 0.1802 20.1126 0.1802 20.1126 21"></polygon>
    </defs>
    <g id="Page-1" stroke="none" stroke-width="1" fill="none" fill-rule="evenodd">
        <g id="Screen_01_v2" transform="translate(-22.000000, -161.000000)">
            <g id="Page-1" transform="translate(22.000000, 160.000000)">
                <g id="Group-3" transform="translate(0.000000, 0.819800)">
                    <mask id="mask-2" fill="white">
                        <use xlink:href="#path-1"></use>
                    </mask>
                    <g id="Clip-2"></g>
                    <path d="M2.4116,1.1802 C1.6386,1.1802 1.0096,1.8132 1.0096,2.5912 L1.0006,18.5842 L4.1156,15.4702 L17.7016,15.4702 C18.4796,15.4702 19.1126,14.8372 19.1126,14.0582 L19.1126,2.5912 C19.1126,1.8132 18.4796,1.1802 17.7016,1.1802 L2.4116,1.1802 Z M-0.0004,21.0002 L0.0096,2.5912 C0.0096,1.2622 1.0876,0.1802 2.4116,0.1802 L17.7016,0.1802 C19.0316,0.1802 20.1126,1.2622 20.1126,2.5912 L20.1126,14.0582 C20.1126,15.3882 19.0316,16.4702 17.7016,16.4702 L4.5296,16.4702 L-0.0004,21.0002 Z" id="Fill-1" fill="#FFFFFF" mask="url(#mask-2)"></path>
                </g>
                <path d="M7.1191,9.0859 C7.1191,9.7419 6.5871,10.2729 5.9321,10.2729 C5.2761,10.2729 4.7441,9.7419 4.7441,9.0859 C4.7441,8.4299 5.2761,7.8989 5.9321,7.8989 C6.5871,7.8989 7.1191,8.4299 7.1191,9.0859" id="Fill-4" fill="#D6405A"></path>
                <path d="M11.2441,9.0859 C11.2441,9.7419 10.7121,10.2729 10.0571,10.2729 C9.4011,10.2729 8.8691,9.7419 8.8691,9.0859 C8.8691,8.4299 9.4011,7.8989 10.0571,7.8989 C10.7121,7.8989 11.2441,8.4299 11.2441,9.0859" id="Fill-6" fill="#D6405A"></path>
                <path d="M15.3691,9.0859 C15.3691,9.7419 14.8371,10.2729 14.1821,10.2729 C13.5261,10.2729 12.9941,9.7419 12.9941,9.0859 C12.9941,8.4299 13.5261,7.8989 14.1821,7.8989 C14.8371,7.8989 15.3691,8.4299 15.3691,9.0859" id="Fill-8" fill="#D6405A"></path>
            </g>
        </g>
    </g>
</svg>