<?xml version="1.0" encoding="UTF-8"?>
<svg width="24px" height="21px" viewBox="0 0 24 21" version="1.1" xmlns="http://www.w3.org/2000/svg" xmlns:xlink="http://www.w3.org/1999/xlink">
    <!-- Generator: Sketch 47 (45396) - http://www.bohemiancoding.com/sketch -->
    <title>Page 1</title>
    <desc>Created with Sketch.</desc>
    <defs></defs>
    <g id="Page-1" stroke="none" stroke-width="1" fill="none" fill-rule="evenodd">
        <g id="Screen_01_v2" transform="translate(-20.000000, -96.000000)" fill="#FFFFFF">
            <g id="Page-1" transform="translate(20.000000, 96.000000)">
                <polygon id="Fill-1" points="11.8341 0.0002 0.0001 10.6512 0.6691 11.3942 11.8341 1.3462 23.0001 11.3942 23.6691 10.6512"></polygon>
                <polygon id="Fill-2" points="19.3842 11.0225 19.3842 19.7225 14.6342 19.7225 14.6342 12.8225 9.0352 12.8225 9.0352 19.7225 4.2852 19.7225 4.2852 11.0225 3.2852 11.0225 3.2852 20.7225 10.0352 20.7225 10.0352 13.8225 13.6342 13.8225 13.6342 20.7225 20.3842 20.7225 20.3842 11.0225"></polygon>
                <polygon id="Fill-3" points="20.3843 5.0059 19.3843 5.0059 19.3843 2.0889 15.5013 2.0889 15.5013 1.0889 20.3843 1.0889"></polygon>
            </g>
        </g>
    </g>
</svg>