<?xml version="1.0" encoding="UTF-8"?>
<svg width="20px" height="15px" viewBox="0 0 20 15" version="1.1" xmlns="http://www.w3.org/2000/svg" xmlns:xlink="http://www.w3.org/1999/xlink">
    <!-- Generator: Sketch 47 (45396) - http://www.bohemiancoding.com/sketch -->
    <title>Page 1</title>
    <desc>Created with Sketch.</desc>
    <defs>
        <polygon id="path-1" points="0 14.7842 19.225 14.7842 19.225 0.0002 0 0.0002"></polygon>
    </defs>
    <g id="Page-1" stroke="none" stroke-width="1" fill="none" fill-rule="evenodd">
        <g id="Screen_01_v2" transform="translate(-23.000000, -480.000000)">
            <g id="Page-1" transform="translate(23.000000, 480.000000)">
                <path d="M9.6123,8.2793 C8.8773,8.2793 8.2793,8.8783 8.2793,9.6133 C8.2793,10.3483 8.8773,10.9463 9.6123,10.9463 C10.3473,10.9463 10.9453,10.3483 10.9453,9.6133 C10.9453,8.8783 10.3473,8.2793 9.6123,8.2793 Z M9.6123,11.9463 C8.3253,11.9463 7.2793,10.8993 7.2793,9.6133 C7.2793,8.3263 8.3253,7.2793 9.6123,7.2793 C10.8993,7.2793 11.9453,8.3263 11.9453,9.6133 C11.9453,10.8993 10.8993,11.9463 9.6123,11.9463 Z" id="Fill-1" fill="#D6405A"></path>
                <mask id="mask-2" fill="white">
                    <use xlink:href="#path-1"></use>
                </mask>
                <g id="Clip-4"></g>
                <polygon id="Fill-3" fill="#FFFFFF" mask="url(#mask-2)" points="9.112 3.2792 10.112 3.2792 10.112 0.5002 9.112 0.5002"></polygon>
                <polygon id="Fill-5" fill="#FFFFFF" mask="url(#mask-2)" points="3.8638 6.9112 1.4508 5.5402 1.9458 4.6712 4.3578 6.0422"></polygon>
                <path d="M17.7314,14.7842 L14.8804,13.1722 L15.3754,12.3032 L17.3394,13.4202 C17.9204,12.2422 18.2254,10.9362 18.2254,9.6132 C18.2254,4.8642 14.3614,1.0002 9.6124,1.0002 C4.8634,1.0002 1.0004,4.8642 1.0004,9.6132 C1.0004,10.9362 1.3044,12.2422 1.8844,13.4202 L3.8544,12.3012 L4.3484,13.1702 L1.5104,14.7822 L1.2484,14.3542 C0.4314,12.9162 0.0004,11.2762 0.0004,9.6132 C0.0004,4.3122 4.3124,0.0002 9.6124,0.0002 C14.9124,0.0002 19.2254,4.3122 19.2254,9.6132 C19.2254,11.2772 18.7934,12.9172 17.9754,14.3552 L17.7314,14.7842 Z" id="Fill-6" fill="#FFFFFF" mask="url(#mask-2)"></path>
                <polygon id="Fill-7" fill="#D6405A" mask="url(#mask-2)" points="11.4473 9.1358 10.9533 8.2668 17.6773 4.4448 18.1713 5.3138"></polygon>
            </g>
        </g>
    </g>
</svg>