<?xml version="1.0" encoding="UTF-8"?>
<svg width="19px" height="19px" viewBox="0 0 19 19" version="1.1" xmlns="http://www.w3.org/2000/svg" xmlns:xlink="http://www.w3.org/1999/xlink">
    <!-- Generator: Sketch 47 (45396) - http://www.bohemiancoding.com/sketch -->
    <title>Page 1</title>
    <desc>Created with Sketch.</desc>
    <defs>
        <polygon id="path-1" points="18.609 18.9996 18.609 0.391 0 0.391 0 18.9996 18.609 18.9996"></polygon>
    </defs>
    <g id="Page-1" stroke="none" stroke-width="1" fill="none" fill-rule="evenodd">
        <g id="Screen_01_v2" transform="translate(-23.000000, -542.000000)">
            <g id="Page-1" transform="translate(23.000000, 541.000000)">
                <g id="Group-3" transform="translate(0.000000, 0.609400)">
                    <mask id="mask-2" fill="white">
                        <use xlink:href="#path-1"></use>
                    </mask>
                    <g id="Clip-2"></g>
                    <path d="M10.4956,1.3096 C10.4956,1.3106 10.4956,1.3106 10.4956,1.3116 L10.4956,1.3096 Z M17.7036,8.5276 C17.7036,8.5276 17.7036,8.5286 17.7036,8.5286 L17.7036,8.5276 Z M6.2146,15.0346 L6.4946,15.1766 C6.7846,15.3256 7.1066,15.4576 7.4536,15.5706 L7.7466,15.6656 L8.1036,18.0126 L10.5186,17.9996 C10.5886,17.7096 10.6906,17.1426 10.8266,15.9876 L10.8636,15.6666 L11.1706,15.5696 C11.5006,15.4636 11.8256,15.3296 12.1346,15.1666 L12.4206,15.0176 L14.2436,16.4456 C14.2656,16.4106 14.4816,16.2666 14.9726,15.7826 C15.4996,15.2626 15.8636,14.8666 16.0546,14.6046 C15.5066,13.9906 15.0866,13.4476 14.8106,13.0546 L14.6336,12.8016 L14.7806,12.5296 C14.9206,12.2716 15.0596,11.9456 15.1956,11.5586 L15.2956,11.2756 L17.6116,10.9246 L17.6096,8.5136 L15.2946,8.1596 L15.2026,7.8616 C15.0966,7.5246 14.9496,7.1736 14.7656,6.8196 L14.6236,6.5466 L14.8036,6.2966 C14.9436,6.1016 15.1546,5.8266 15.4346,5.4696 C15.7046,5.1306 15.8936,4.8826 16.0056,4.7266 C15.8406,4.5416 15.3826,4.0166 14.1936,2.9196 L12.3926,4.3566 L12.1146,4.2126 C11.8266,4.0656 11.5036,3.9326 11.1556,3.8196 L10.8626,3.7236 L10.5056,1.3786 L8.0906,1.3906 C7.9976,1.7796 7.8956,2.4506 7.7836,3.4026 L7.7456,3.7216 L7.4396,3.8206 C7.1066,3.9266 6.7816,4.0626 6.4746,4.2226 L6.1906,4.3716 L4.3646,2.9556 C4.3316,2.9896 4.1126,3.1386 3.6316,3.6136 C2.9716,4.2656 2.6826,4.6096 2.5566,4.7836 C3.0586,5.3286 3.4806,5.8716 3.7986,6.3246 L3.9766,6.5786 L3.8286,6.8496 C3.6546,7.1696 3.5176,7.4936 3.4196,7.8126 L3.3286,8.1136 L0.9966,8.4636 L0.9996,10.8766 L3.3236,11.2196 L3.4126,11.5306 C3.5076,11.8676 3.6516,12.2146 3.8406,12.5636 L3.9906,12.8396 L3.8066,13.0946 C3.6646,13.2896 3.4546,13.5646 3.1746,13.9186 C2.9056,14.2586 2.7156,14.5066 2.6046,14.6626 C2.8696,14.9926 3.4816,15.6146 4.4126,16.4556 L6.2146,15.0346 Z M8.1136,18.0796 L8.1136,18.0806 C8.1146,18.0806 8.1136,18.0806 8.1136,18.0796 L8.1136,18.0796 Z M10.5776,18.9996 L8.0326,18.9996 C7.8116,18.9996 7.6046,18.9276 7.4356,18.7896 C7.2516,18.6426 7.1396,18.4296 7.1206,18.1946 L6.8496,16.4196 C6.6686,16.3526 6.4936,16.2816 6.3256,16.2056 L4.9526,17.2476 C4.6726,17.4986 4.0796,17.5336 3.7246,17.1806 C2.7456,16.2956 2.1036,15.6406 1.7806,15.1926 C1.6646,15.0286 1.6046,14.8376 1.6046,14.6366 C1.6046,14.4396 1.6676,14.2516 1.7906,14.0806 C1.9076,13.9166 2.1066,13.6576 2.3906,13.2986 C2.5576,13.0866 2.6986,12.9056 2.8146,12.7526 C2.7116,12.5396 2.6236,12.3276 2.5496,12.1166 L0.7606,11.8526 C0.5316,11.8186 0.3366,11.7036 0.1946,11.5166 C0.0676,11.3536 -0.0004,11.1546 -0.0004,10.9446 L-0.0004,8.3996 C-0.0004,8.2036 0.0646,8.0096 0.1886,7.8406 C0.3226,7.6566 0.5046,7.5376 0.7136,7.4966 L2.5656,7.2166 C2.6346,7.0296 2.7146,6.8416 2.8056,6.6556 C2.5276,6.2756 2.1826,5.8366 1.7776,5.3486 C1.5876,5.1206 1.5486,4.8996 1.5486,4.7536 C1.5486,4.5746 1.6126,4.3896 1.7406,4.2056 C1.9646,3.8956 2.3516,3.4716 2.9296,2.9026 C3.7426,2.0996 4.0806,1.9386 4.3636,1.9386 C4.5746,1.9386 4.7766,2.0116 4.9656,2.1556 L6.3036,3.1926 C6.4746,3.1136 6.6496,3.0396 6.8286,2.9736 C6.9386,2.0726 7.0396,1.4536 7.1356,1.0846 C7.2426,0.6526 7.5786,0.3906 8.0316,0.3906 L10.5766,0.3906 C10.7976,0.3906 11.0046,0.4626 11.1736,0.6006 C11.3606,0.7496 11.4706,0.9576 11.4886,1.1976 L11.7596,2.9696 C11.9416,3.0376 12.1176,3.1096 12.2856,3.1856 L13.6696,2.1426 C13.7286,2.0756 13.9316,1.9386 14.2456,1.9386 C14.4616,1.9386 14.6716,2.0186 14.8526,2.1686 C15.8916,3.1256 16.5336,3.7886 16.8326,4.2136 C16.8916,4.2766 17.0046,4.4636 17.0046,4.7536 C17.0046,4.9496 16.9396,5.1426 16.8166,5.3116 C16.7006,5.4726 16.5016,5.7346 16.2196,6.0896 C16.0506,6.3036 15.9086,6.4876 15.7926,6.6406 C15.8916,6.8496 15.9796,7.0576 16.0546,7.2636 L17.8526,7.5386 C18.0786,7.5726 18.2736,7.6876 18.4146,7.8726 L18.4156,7.8736 C18.5426,8.0396 18.6096,8.2376 18.6096,8.4456 L18.6096,10.9906 C18.6096,11.1886 18.5466,11.3756 18.4246,11.5466 C18.2806,11.7406 18.0916,11.8586 17.8726,11.8966 L16.0346,12.1746 C15.9586,12.3726 15.8816,12.5546 15.8036,12.7216 C16.0576,13.0676 16.4036,13.5066 16.8346,14.0336 C16.9846,14.2136 17.0616,14.4176 17.0616,14.6366 C17.0616,14.8606 16.9806,15.0686 16.8286,15.2366 C16.6376,15.5026 16.2486,15.9286 15.6746,16.4946 C14.8656,17.2916 14.5286,17.4526 14.2466,17.4526 C14.0586,17.4526 13.8666,17.3906 13.6786,17.2696 L12.3066,16.1976 C12.1346,16.2776 11.9586,16.3506 11.7816,16.4156 C11.6716,17.3126 11.5706,17.9316 11.4746,18.3036 C11.3656,18.7386 11.0296,18.9996 10.5776,18.9996 L10.5776,18.9996 Z" id="Fill-1" fill="#FFFFFF" mask="url(#mask-2)"></path>
                </g>
                <path d="M9.3052,7.8692 C8.6272,7.8692 8.0642,8.1022 7.5832,8.5832 C7.1032,9.0622 6.8702,9.6262 6.8702,10.3052 C6.8702,10.9822 7.1032,11.5462 7.5832,12.0262 C8.0632,12.5062 8.6262,12.7392 9.3052,12.7392 C9.9842,12.7392 10.5472,12.5062 11.0262,12.0262 C11.5062,11.5462 11.7402,10.9822 11.7402,10.3052 C11.7402,9.6262 11.5062,9.0632 11.0262,8.5832 C10.5462,8.1022 9.9832,7.8692 9.3052,7.8692 M9.3052,13.7392 C8.3612,13.7392 7.5442,13.4002 6.8762,12.7332 C6.2082,12.0652 5.8702,11.2482 5.8702,10.3052 C5.8702,9.3602 6.2082,8.5432 6.8762,7.8762 C7.5442,7.2082 8.3622,6.8692 9.3052,6.8692 C10.2492,6.8692 11.0662,7.2082 11.7332,7.8762 C12.4012,8.5442 12.7402,9.3602 12.7402,10.3052 C12.7402,11.2472 12.4012,12.0642 11.7342,12.7332 L11.7332,12.7332 C11.0662,13.4002 10.2492,13.7392 9.3052,13.7392" id="Fill-4" fill="#D6405A"></path>
            </g>
        </g>
    </g>
</svg>