<?xml version="1.0" encoding="UTF-8"?>
<svg width="23px" height="20px" viewBox="0 0 23 20" version="1.1" xmlns="http://www.w3.org/2000/svg" xmlns:xlink="http://www.w3.org/1999/xlink">
    <!-- Generator: Sketch 47 (45396) - http://www.bohemiancoding.com/sketch -->
    <title>Page 1</title>
    <desc>Created with Sketch.</desc>
    <defs></defs>
    <g id="Page-1" stroke="none" stroke-width="1" fill="none" fill-rule="evenodd">
        <g id="Screen_01_v2" transform="translate(-21.000000, -350.000000)">
            <g id="Page-1" transform="translate(21.000000, 349.000000)">
                <g id="Group-3" transform="translate(0.000000, 0.225100)" fill="#FFFFFF">
                    <path d="M9.6123,1.7749 C4.8633,1.7749 1.0003,5.6389 1.0003,10.3879 C1.0003,15.1369 4.8633,18.9999 9.6123,18.9999 C14.3613,18.9999 18.2253,15.1369 18.2253,10.3879 C18.2253,5.6389 14.3613,1.7749 9.6123,1.7749 M9.6123,19.9999 C4.3123,19.9999 0.0003,15.6879 0.0003,10.3879 C0.0003,5.0879 4.3123,0.7749 9.6123,0.7749 C14.9123,0.7749 19.2253,5.0879 19.2253,10.3879 C19.2253,15.6879 14.9123,19.9999 9.6123,19.9999" id="Fill-1"></path>
                </g>
                <polygon id="Fill-4" fill="#D6405A" points="9.5718 14.478 5.1818 9.581 5.9268 8.914 9.6528 13.07 21.6868 2.4 22.3498 3.148"></polygon>
            </g>
        </g>
    </g>
</svg>