<svg xmlns="http://www.w3.org/2000/svg" xmlns:xlink="http://www.w3.org/1999/xlink" width="474.192" height="59.303"><defs><path id="a" d="M0 0h474.192v59.303H0z"/></defs><clipPath id="b"><use xlink:href="#a" overflow="visible"/></clipPath><path clip-path="url(#b)" fill="#FFF" d="M22.816 4.408l-.658 2.282.741-.044c2.043 0 3.386 1.84 3.386 3.887 0 2.342-1.735 3.946-3.904 3.946-1.301 0-2.602-.721-3.217-1.943l.978-.972c.322.943 1.4 1.65 2.337 1.65 1.427 0 2.547-1.238 2.547-2.725 0-1.429-1.161-2.636-2.519-2.636-.742 0-1.511.368-1.972.987h-.252l1.623-5.699h4.225v1.267h-3.315z"/><path clip-path="url(#b)" fill="none" stroke="#FFF" stroke-width=".12" stroke-miterlimit="10" d="M22.816 4.408l-.658 2.282.741-.044c2.043 0 3.386 1.84 3.386 3.887 0 2.342-1.735 3.946-3.904 3.946-1.301 0-2.602-.721-3.217-1.943l.978-.972c.322.943 1.4 1.65 2.337 1.65 1.427 0 2.547-1.238 2.547-2.725 0-1.429-1.161-2.636-2.519-2.636-.742 0-1.511.368-1.972.987h-.252l1.623-5.699h4.225v1.267h-3.315z"/><path clip-path="url(#b)" fill="#FFF" d="M32.996 1.463V8.28h.028c.392-.736 1.175-1.133 1.974-1.133 1.846 0 2.322 1.31 2.322 2.989v4.108h-1.26v-3.946c0-1.178-.154-1.973-1.441-1.973-1.623 0-1.623 1.502-1.623 2.753v3.166h-1.259V1.463h1.259z"/><path clip-path="url(#b)" fill="none" stroke="#FFF" stroke-width=".12" stroke-miterlimit="10" d="M32.996 1.463V8.28h.028c.392-.736 1.175-1.133 1.974-1.133 1.846 0 2.322 1.31 2.322 2.989v4.108h-1.26v-3.946c0-1.178-.154-1.973-1.441-1.973-1.623 0-1.623 1.502-1.623 2.753v3.166h-1.259V1.463h1.259z"/><path clip-path="url(#b)" fill="#FFF" d="M40.396 8.472h.042c.308-.81.951-1.325 1.791-1.325.363 0 .728.133 1.035.339l-.574 1.208c-.223-.207-.475-.281-.77-.281-1.356 0-1.524 1.326-1.524 2.445v3.386h-1.259V7.353h1.259v1.119z"/><path clip-path="url(#b)" fill="none" stroke="#FFF" stroke-width=".12" stroke-miterlimit="10" d="M40.396 8.472h.042c.308-.81.951-1.325 1.791-1.325.363 0 .728.133 1.035.339l-.574 1.208c-.223-.207-.475-.281-.77-.281-1.356 0-1.524 1.326-1.524 2.445v3.386h-1.259V7.353h1.259v1.119z"/><path clip-path="url(#b)" fill="#FFF" d="M46.592 8.929c-.154-.339-.476-.604-.84-.604-.349 0-.685.294-.685.677 0 .604.755.869 1.525 1.238.77.368 1.512.868 1.512 1.958a2.254 2.254 0 0 1-2.254 2.282c-.951 0-1.916-.574-2.266-1.546l1.077-.516c.266.516.587.884 1.189.884.532 0 .994-.383.994-.972 0-.368-.168-.545-.462-.751l-1.231-.692c-.728-.412-1.26-.795-1.26-1.737 0-1.119.868-2.003 1.931-2.003.797 0 1.442.457 1.791 1.208l-1.021.574z"/><path clip-path="url(#b)" fill="none" stroke="#FFF" stroke-width=".12" stroke-miterlimit="10" d="M46.592 8.929c-.154-.339-.476-.604-.84-.604-.349 0-.685.294-.685.677 0 .604.755.869 1.525 1.238.77.368 1.512.868 1.512 1.958a2.254 2.254 0 0 1-2.254 2.282c-.951 0-1.916-.574-2.266-1.546l1.077-.516c.266.516.587.884 1.189.884.532 0 .994-.383.994-.972 0-.368-.168-.545-.462-.751l-1.231-.692c-.728-.412-1.26-.795-1.26-1.737 0-1.119.868-2.003 1.931-2.003.797 0 1.442.457 1.791 1.208l-1.021.574z"/><path clip-path="url(#b)" fill="#FFF" d="M59.782 10.813c0 2.076-1.539 3.666-3.498 3.666s-3.498-1.59-3.498-3.666c0-2.076 1.539-3.667 3.498-3.667s3.498 1.591 3.498 3.667m-5.737 0c0 1.296.994 2.4 2.239 2.4s2.24-1.104 2.24-2.4c0-1.311-.995-2.4-2.24-2.4s-2.239 1.089-2.239 2.4"/><path clip-path="url(#b)" fill="none" stroke="#FFF" stroke-width=".12" stroke-miterlimit="10" d="M59.782 10.813c0 2.076-1.539 3.666-3.498 3.666s-3.498-1.59-3.498-3.666c0-2.076 1.539-3.667 3.498-3.667s3.498 1.591 3.498 3.667zm-5.737 0c0 1.296.994 2.4 2.239 2.4s2.24-1.104 2.24-2.4c0-1.311-.995-2.4-2.24-2.4s-2.239 1.089-2.239 2.4z"/><path clip-path="url(#b)" fill="#FFF" d="M64.173 2.803c-.252-.117-.573-.279-.839-.279-.896 0-.896 1.192-.896 1.87v2.959h1.735V8.59h-1.735v5.654h-1.259V8.59h-.573V7.353h.573V3.996c0-1.502.489-2.71 2.112-2.71.309 0 .602.06.882.177v1.34z"/><path clip-path="url(#b)" fill="none" stroke="#FFF" stroke-width=".12" stroke-miterlimit="10" d="M64.173 2.803c-.252-.117-.573-.279-.839-.279-.896 0-.896 1.192-.896 1.87v2.959h1.735V8.59h-1.735v5.654h-1.259V8.59h-.573V7.353h.573V3.996c0-1.502.489-2.71 2.112-2.71.309 0 .602.06.882.177v1.34z"/><path clip-path="url(#b)" fill="#FFF" d="M73.628 9.312c-.503-.604-1.119-.928-1.875-.928-1.231 0-2.183 1.149-2.183 2.415 0 1.413.938 2.445 2.267 2.445.728 0 1.315-.354 1.791-.913v1.693c-.573.324-1.147.456-1.805.456-1.93 0-3.512-1.561-3.512-3.622 0-2.135 1.568-3.711 3.582-3.711.588 0 1.232.147 1.735.457v1.708z"/><path clip-path="url(#b)" fill="none" stroke="#FFF" stroke-width=".12" stroke-miterlimit="10" d="M73.628 9.312c-.503-.604-1.119-.928-1.875-.928-1.231 0-2.183 1.149-2.183 2.415 0 1.413.938 2.445 2.267 2.445.728 0 1.315-.354 1.791-.913v1.693c-.573.324-1.147.456-1.805.456-1.93 0-3.512-1.561-3.512-3.622 0-2.135 1.568-3.711 3.582-3.711.588 0 1.232.147 1.735.457v1.708z"/><path clip-path="url(#b)" fill="#FFF" d="M81.39 10.813c0 2.076-1.539 3.666-3.498 3.666s-3.498-1.59-3.498-3.666c0-2.076 1.539-3.667 3.498-3.667s3.498 1.591 3.498 3.667m-5.736 0c0 1.296.994 2.4 2.238 2.4 1.246 0 2.24-1.104 2.24-2.4 0-1.311-.994-2.4-2.24-2.4-1.244 0-2.238 1.089-2.238 2.4"/><path clip-path="url(#b)" fill="none" stroke="#FFF" stroke-width=".12" stroke-miterlimit="10" d="M81.39 10.813c0 2.076-1.539 3.666-3.498 3.666s-3.498-1.59-3.498-3.666c0-2.076 1.539-3.667 3.498-3.667s3.498 1.591 3.498 3.667zm-5.736 0c0 1.296.994 2.4 2.238 2.4 1.246 0 2.24-1.104 2.24-2.4 0-1.311-.994-2.4-2.24-2.4-1.244 0-2.238 1.089-2.238 2.4z"/><path clip-path="url(#b)" fill="#FFF" d="M88.943 10.813c0 2.076-1.539 3.666-3.498 3.666s-3.498-1.59-3.498-3.666c0-2.076 1.539-3.667 3.498-3.667s3.498 1.591 3.498 3.667m-5.736 0c0 1.296.994 2.4 2.238 2.4 1.246 0 2.24-1.104 2.24-2.4 0-1.311-.994-2.4-2.24-2.4-1.244 0-2.238 1.089-2.238 2.4"/><path clip-path="url(#b)" fill="none" stroke="#FFF" stroke-width=".12" stroke-miterlimit="10" d="M88.943 10.813c0 2.076-1.539 3.666-3.498 3.666s-3.498-1.59-3.498-3.666c0-2.076 1.539-3.667 3.498-3.667s3.498 1.591 3.498 3.667zm-5.736 0c0 1.296.994 2.4 2.238 2.4 1.246 0 2.24-1.104 2.24-2.4 0-1.311-.994-2.4-2.24-2.4-1.244 0-2.238 1.089-2.238 2.4z"/><path clip-path="url(#b)" fill="#FFF" d="M91.432 9.944l2.463-2.592h1.664l-2.798 2.858 3.078 4.034h-1.636l-2.337-3.137-.434.457v2.68h-1.26V1.463h1.26z"/><path clip-path="url(#b)" fill="none" stroke="#FFF" stroke-width=".12" stroke-miterlimit="10" d="M91.432 9.944l2.463-2.592h1.664l-2.798 2.858 3.078 4.034h-1.636l-2.337-3.137-.434.457v2.68h-1.26V1.463h1.26z"/><path clip-path="url(#b)" fill="#FFF" d="M98.327 4.202c0 .5-.391.898-.868.898-.475 0-.867-.398-.867-.898 0-.515.392-.927.867-.927.477 0 .868.412.868.927m-.237 10.042h-1.26V7.352h1.26v6.892z"/><path clip-path="url(#b)" fill="none" stroke="#FFF" stroke-width=".12" stroke-miterlimit="10" d="M98.327 4.202c0 .5-.391.898-.868.898-.475 0-.867-.398-.867-.898 0-.515.392-.927.867-.927.477 0 .868.412.868.927zm-.237 10.042h-1.26V7.352h1.26v6.892z"/><path clip-path="url(#b)" fill="#FFF" d="M101.362 8.28h.028c.391-.736 1.175-1.134 1.973-1.134 1.847 0 2.322 1.311 2.322 2.989v4.109h-1.26v-3.946c0-1.178-.153-1.973-1.44-1.973-1.623 0-1.623 1.502-1.623 2.753v3.166h-1.259V7.352h1.259v.928z"/><path clip-path="url(#b)" fill="none" stroke="#FFF" stroke-width=".12" stroke-miterlimit="10" d="M101.362 8.28h.028c.391-.736 1.175-1.134 1.973-1.134 1.847 0 2.322 1.311 2.322 2.989v4.109h-1.26v-3.946c0-1.178-.153-1.973-1.44-1.973-1.623 0-1.623 1.502-1.623 2.753v3.166h-1.259V7.352h1.259v.928z"/><path clip-path="url(#b)" fill="#FFF" d="M113.546 14.112c0 2.371-.644 4.079-3.19 4.079-1.819 0-3.135-1.178-3.163-3.122h1.26c0 1.237.811 1.944 1.959 1.944 1.552 0 1.875-1.119 1.875-2.533v-1.311h-.028c-.504.78-1.301 1.311-2.225 1.311-2.015 0-3.134-1.752-3.134-3.726 0-1.885 1.189-3.607 3.078-3.607.98 0 1.763.53 2.281 1.384h.028V7.353h1.259v6.759zm-1.189-3.313c0-1.34-.77-2.474-2.127-2.474-1.301 0-2.071 1.193-2.071 2.474 0 1.296.741 2.503 2.071 2.503 1.371 0 2.127-1.149 2.127-2.503"/><path clip-path="url(#b)" fill="none" stroke="#FFF" stroke-width=".12" stroke-miterlimit="10" d="M113.546 14.112c0 2.371-.644 4.079-3.19 4.079-1.819 0-3.135-1.178-3.163-3.122h1.26c0 1.237.811 1.944 1.959 1.944 1.552 0 1.875-1.119 1.875-2.533v-1.311h-.028c-.504.78-1.301 1.311-2.225 1.311-2.015 0-3.134-1.752-3.134-3.726 0-1.885 1.189-3.607 3.078-3.607.98 0 1.763.53 2.281 1.384h.028V7.353h1.259v6.759zm-1.189-3.313c0-1.34-.77-2.474-2.127-2.474-1.301 0-2.071 1.193-2.071 2.474 0 1.296.741 2.503 2.071 2.503 1.371 0 2.127-1.149 2.127-2.503z"/><path clip-path="url(#b)" fill="#FFF" d="M125.631 1.935L119.797 16.1l-.994-.472 5.82-14.165z"/><path clip-path="url(#b)" fill="none" stroke="#FFF" stroke-width=".12" stroke-miterlimit="10" d="M125.631 1.935L119.797 16.1l-.994-.472 5.82-14.165z"/><path clip-path="url(#b)" fill="#FFF" d="M130.762 4.408V3.141h7.598l-6.577 11.338-1.021-.662 5.457-9.409z"/><path clip-path="url(#b)" fill="none" stroke="#FFF" stroke-width=".12" stroke-miterlimit="10" d="M130.762 4.408V3.141h7.598l-6.577 11.338-1.021-.662 5.457-9.409z"/><path clip-path="url(#b)" fill="#FFF" d="M144.357 1.463V8.28h.028c.391-.736 1.175-1.133 1.973-1.133 1.847 0 2.322 1.31 2.322 2.989v4.108h-1.26v-3.946c0-1.178-.153-1.973-1.44-1.973-1.623 0-1.623 1.502-1.623 2.753v3.166h-1.259V1.463h1.259z"/><path clip-path="url(#b)" fill="none" stroke="#FFF" stroke-width=".12" stroke-miterlimit="10" d="M144.357 1.463V8.28h.028c.391-.736 1.175-1.133 1.973-1.133 1.847 0 2.322 1.31 2.322 2.989v4.108h-1.26v-3.946c0-1.178-.153-1.973-1.44-1.973-1.623 0-1.623 1.502-1.623 2.753v3.166h-1.259V1.463h1.259z"/><path clip-path="url(#b)" fill="#FFF" d="M151.756 8.472h.041c.309-.81.951-1.325 1.791-1.325.364 0 .729.133 1.035.339l-.573 1.208c-.224-.207-.476-.281-.77-.281-1.356 0-1.524 1.326-1.524 2.445v3.386h-1.26V7.353h1.26v1.119z"/><path clip-path="url(#b)" fill="none" stroke="#FFF" stroke-width=".12" stroke-miterlimit="10" d="M151.756 8.472h.041c.309-.81.951-1.325 1.791-1.325.364 0 .729.133 1.035.339l-.573 1.208c-.224-.207-.476-.281-.77-.281-1.356 0-1.524 1.326-1.524 2.445v3.386h-1.26V7.353h1.26v1.119z"/><path clip-path="url(#b)" fill="#FFF" d="M157.951 8.929c-.153-.339-.475-.604-.839-.604a.693.693 0 0 0-.685.677c0 .604.754.869 1.524 1.238.77.368 1.512.868 1.512 1.958a2.253 2.253 0 0 1-2.253 2.282c-.951 0-1.917-.574-2.267-1.546l1.077-.516c.267.516.588.884 1.19.884.532 0 .993-.383.993-.972 0-.368-.168-.545-.461-.751l-1.232-.692c-.727-.412-1.259-.795-1.259-1.737 0-1.119.868-2.003 1.93-2.003.798 0 1.442.457 1.791 1.208l-1.021.574z"/><path clip-path="url(#b)" fill="none" stroke="#FFF" stroke-width=".12" stroke-miterlimit="10" d="M157.951 8.929c-.153-.339-.475-.604-.839-.604a.693.693 0 0 0-.685.677c0 .604.754.869 1.524 1.238.77.368 1.512.868 1.512 1.958a2.253 2.253 0 0 1-2.253 2.282c-.951 0-1.917-.574-2.267-1.546l1.077-.516c.267.516.588.884 1.19.884.532 0 .993-.383.993-.972 0-.368-.168-.545-.461-.751l-1.232-.692c-.727-.412-1.259-.795-1.259-1.737 0-1.119.868-2.003 1.93-2.003.798 0 1.442.457 1.791 1.208l-1.021.574z"/><path clip-path="url(#b)" fill="#FFF" d="M171.142 10.813c0 2.076-1.539 3.666-3.498 3.666s-3.498-1.59-3.498-3.666c0-2.076 1.539-3.667 3.498-3.667s3.498 1.591 3.498 3.667m-5.737 0c0 1.296.993 2.4 2.239 2.4 1.245 0 2.239-1.104 2.239-2.4 0-1.311-.994-2.4-2.239-2.4-1.246 0-2.239 1.089-2.239 2.4"/><path clip-path="url(#b)" fill="none" stroke="#FFF" stroke-width=".12" stroke-miterlimit="10" d="M171.142 10.813c0 2.076-1.539 3.666-3.498 3.666s-3.498-1.59-3.498-3.666c0-2.076 1.539-3.667 3.498-3.667s3.498 1.591 3.498 3.667zm-5.737 0c0 1.296.993 2.4 2.239 2.4 1.245 0 2.239-1.104 2.239-2.4 0-1.311-.994-2.4-2.239-2.4-1.246 0-2.239 1.089-2.239 2.4z"/><path clip-path="url(#b)" fill="#FFF" d="M175.533 2.803c-.252-.117-.574-.279-.84-.279-.895 0-.895 1.192-.895 1.87v2.959h1.735V8.59h-1.735v5.654h-1.26V8.59h-.573V7.353h.573V3.996c0-1.502.489-2.71 2.113-2.71.308 0 .602.06.882.177v1.34z"/><path clip-path="url(#b)" fill="none" stroke="#FFF" stroke-width=".12" stroke-miterlimit="10" d="M175.533 2.803c-.252-.117-.574-.279-.84-.279-.895 0-.895 1.192-.895 1.87v2.959h1.735V8.59h-1.735v5.654h-1.26V8.59h-.573V7.353h.573V3.996c0-1.502.489-2.71 2.113-2.71.308 0 .602.06.882.177v1.34z"/><path clip-path="url(#b)" fill="#FFF" d="M181.434 1.463V8.28h.028c.392-.736 1.175-1.133 1.974-1.133 1.846 0 2.322 1.31 2.322 2.989v4.108h-1.26v-3.946c0-1.178-.154-1.973-1.441-1.973-1.623 0-1.623 1.502-1.623 2.753v3.166h-1.259V1.463h1.259z"/><path clip-path="url(#b)" fill="none" stroke="#FFF" stroke-width=".12" stroke-miterlimit="10" d="M181.434 1.463V8.28h.028c.392-.736 1.175-1.133 1.974-1.133 1.846 0 2.322 1.31 2.322 2.989v4.108h-1.26v-3.946c0-1.178-.154-1.973-1.441-1.973-1.623 0-1.623 1.502-1.623 2.753v3.166h-1.259V1.463h1.259z"/><path clip-path="url(#b)" fill="#FFF" d="M188.245 11.02c.014 1.178.769 2.282 1.973 2.282.965 0 1.483-.515 1.959-1.34l1.063.633c-.615 1.194-1.763 1.885-3.036 1.885-2.001 0-3.218-1.59-3.218-3.622 0-2.12 1.077-3.711 3.189-3.711 2.085 0 3.065 1.62 3.065 3.667v.206h-4.995zm3.735-1.001c-.153-1.031-.797-1.724-1.805-1.724-.978 0-1.707.737-1.861 1.724h3.666z"/><path clip-path="url(#b)" fill="none" stroke="#FFF" stroke-width=".12" stroke-miterlimit="10" d="M188.245 11.02c.014 1.178.769 2.282 1.973 2.282.965 0 1.483-.515 1.959-1.34l1.063.633c-.615 1.194-1.763 1.885-3.036 1.885-2.001 0-3.218-1.59-3.218-3.622 0-2.12 1.077-3.711 3.189-3.711 2.085 0 3.065 1.62 3.065 3.667v.206h-4.995zm3.735-1.001c-.153-1.031-.797-1.724-1.805-1.724-.978 0-1.707.737-1.861 1.724h3.666z"/><path clip-path="url(#b)" fill="#FFF" d="M200.458 14.244H199.2v-1.075h-.03c-.503.78-1.287 1.311-2.224 1.311-2 0-3.134-1.752-3.134-3.726 0-1.885 1.189-3.607 3.093-3.607.965 0 1.748.53 2.265 1.355h.03V7.353h1.258v6.891zm-1.189-3.445c0-1.34-.77-2.474-2.127-2.474-1.302 0-2.071 1.193-2.071 2.474 0 1.296.742 2.503 2.071 2.503 1.372 0 2.127-1.149 2.127-2.503"/><path clip-path="url(#b)" fill="none" stroke="#FFF" stroke-width=".12" stroke-miterlimit="10" d="M200.458 14.244H199.2v-1.075h-.03c-.503.78-1.287 1.311-2.224 1.311-2 0-3.134-1.752-3.134-3.726 0-1.885 1.189-3.607 3.093-3.607.965 0 1.748.53 2.265 1.355h.03V7.353h1.258v6.891zm-1.189-3.445c0-1.34-.77-2.474-2.127-2.474-1.302 0-2.071 1.193-2.071 2.474 0 1.296.742 2.503 2.071 2.503 1.372 0 2.127-1.149 2.127-2.503z"/><path clip-path="url(#b)" fill="#FFF" d="M203.533 14.244h-1.26V8.59h-.685V7.352h.685V4.717h1.26v2.635h1.231V8.59h-1.231z"/><path clip-path="url(#b)" fill="none" stroke="#FFF" stroke-width=".12" stroke-miterlimit="10" d="M203.533 14.244h-1.26V8.59h-.685V7.352h.685V4.717h1.26v2.635h1.231V8.59h-1.231z"/><path clip-path="url(#b)" fill="#FFF" d="M207.227 4.202c0 .5-.393.898-.869.898-.475 0-.867-.398-.867-.898 0-.515.392-.927.867-.927.476 0 .869.412.869.927m-.239 10.042h-1.26V7.352h1.26v6.892z"/><path clip-path="url(#b)" fill="none" stroke="#FFF" stroke-width=".12" stroke-miterlimit="10" d="M207.227 4.202c0 .5-.393.898-.869.898-.475 0-.867-.398-.867-.898 0-.515.392-.927.867-.927.476 0 .869.412.869.927zm-.239 10.042h-1.26V7.352h1.26v6.892z"/><path clip-path="url(#b)" fill="#FFF" d="M210.262 8.28h.027c.392-.736 1.176-1.134 1.973-1.134 1.848 0 2.323 1.311 2.323 2.989v4.109h-1.26v-3.946c0-1.178-.153-1.973-1.44-1.973-1.623 0-1.623 1.502-1.623 2.753v3.166h-1.26V7.352h1.26v.928z"/><path clip-path="url(#b)" fill="none" stroke="#FFF" stroke-width=".12" stroke-miterlimit="10" d="M210.262 8.28h.027c.392-.736 1.176-1.134 1.973-1.134 1.848 0 2.323 1.311 2.323 2.989v4.109h-1.26v-3.946c0-1.178-.153-1.973-1.44-1.973-1.623 0-1.623 1.502-1.623 2.753v3.166h-1.26V7.352h1.26v.928z"/><path clip-path="url(#b)" fill="#FFF" d="M222.445 14.112c0 2.371-.643 4.079-3.19 4.079-1.819 0-3.134-1.178-3.162-3.122h1.259c0 1.237.812 1.944 1.959 1.944 1.553 0 1.875-1.119 1.875-2.533v-1.311h-.028c-.504.78-1.3 1.311-2.224 1.311-2.016 0-3.135-1.752-3.135-3.726 0-1.885 1.189-3.607 3.078-3.607.981 0 1.764.53 2.281 1.384h.028V7.353h1.259v6.759zm-1.189-3.313c0-1.34-.77-2.474-2.127-2.474-1.301 0-2.07 1.193-2.07 2.474 0 1.296.741 2.503 2.07 2.503 1.371 0 2.127-1.149 2.127-2.503"/><path clip-path="url(#b)" fill="none" stroke="#FFF" stroke-width=".12" stroke-miterlimit="10" d="M222.445 14.112c0 2.371-.643 4.079-3.19 4.079-1.819 0-3.134-1.178-3.162-3.122h1.259c0 1.237.812 1.944 1.959 1.944 1.553 0 1.875-1.119 1.875-2.533v-1.311h-.028c-.504.78-1.3 1.311-2.224 1.311-2.016 0-3.135-1.752-3.135-3.726 0-1.885 1.189-3.607 3.078-3.607.981 0 1.764.53 2.281 1.384h.028V7.353h1.259v6.759zm-1.189-3.313c0-1.34-.77-2.474-2.127-2.474-1.301 0-2.07 1.193-2.07 2.474 0 1.296.741 2.503 2.07 2.503 1.371 0 2.127-1.149 2.127-2.503z"/><path clip-path="url(#b)" fill="#FFF" d="M25.978 31.003v-4.477h1.315v11.103h-1.315v-5.33h-5.022v5.33h-1.317V26.526h1.317v4.477z"/><path clip-path="url(#b)" fill="none" stroke="#FFF" stroke-width=".12" stroke-miterlimit="10" d="M25.978 31.003v-4.477h1.315v11.103h-1.315v-5.33h-5.022v5.33h-1.317V26.526h1.317v4.477z"/><path clip-path="url(#b)" fill="#FFF" d="M29.808 34.404c.014 1.178.769 2.282 1.973 2.282.965 0 1.483-.515 1.959-1.34l1.063.633c-.615 1.194-1.763 1.885-3.036 1.885-2.001 0-3.218-1.59-3.218-3.622 0-2.12 1.077-3.711 3.189-3.711 2.085 0 3.065 1.62 3.065 3.667v.206h-4.995zm3.735-1.001c-.153-1.031-.797-1.724-1.805-1.724-.978 0-1.707.737-1.861 1.724h3.666z"/><path clip-path="url(#b)" fill="none" stroke="#FFF" stroke-width=".12" stroke-miterlimit="10" d="M29.808 34.404c.014 1.178.769 2.282 1.973 2.282.965 0 1.483-.515 1.959-1.34l1.063.633c-.615 1.194-1.763 1.885-3.036 1.885-2.001 0-3.218-1.59-3.218-3.622 0-2.12 1.077-3.711 3.189-3.711 2.085 0 3.065 1.62 3.065 3.667v.206h-4.995zm3.735-1.001c-.153-1.031-.797-1.724-1.805-1.724-.978 0-1.707.737-1.861 1.724h3.666z"/><path clip-path="url(#b)" fill="#FFF" d="M35.933 24.848h1.26v12.781h-1.26z"/><path clip-path="url(#b)" fill="none" stroke="#FFF" stroke-width=".12" stroke-miterlimit="10" d="M35.933 24.848h1.26v12.781h-1.26z"/><path clip-path="url(#b)" fill="#FFF" d="M40.144 31.887h.027c.518-.825 1.302-1.355 2.282-1.355 1.888 0 3.078 1.722 3.078 3.607 0 1.974-1.119 3.726-3.135 3.726-.923 0-1.721-.531-2.225-1.311h-.027v5.022h-1.26V30.738h1.26v1.149zm4.127 2.297c0-1.34-.77-2.474-2.127-2.474-1.301 0-2.07 1.193-2.07 2.474 0 1.296.742 2.503 2.07 2.503 1.371 0 2.127-1.149 2.127-2.503"/><path clip-path="url(#b)" fill="none" stroke="#FFF" stroke-width=".12" stroke-miterlimit="10" d="M40.144 31.887h.027c.518-.825 1.302-1.355 2.282-1.355 1.888 0 3.078 1.722 3.078 3.607 0 1.974-1.119 3.726-3.135 3.726-.923 0-1.721-.531-2.225-1.311h-.027v5.022h-1.26V30.738h1.26v1.149zm4.127 2.297c0-1.34-.77-2.474-2.127-2.474-1.301 0-2.07 1.193-2.07 2.474 0 1.296.742 2.503 2.07 2.503 1.371 0 2.127-1.149 2.127-2.503z"/><path clip-path="url(#b)" fill="#FFF" d="M49.391 32.313c-.154-.339-.477-.604-.84-.604-.349 0-.685.294-.685.677 0 .604.755.869 1.525 1.238.77.368 1.511.868 1.511 1.958a2.253 2.253 0 0 1-2.253 2.282c-.951 0-1.917-.574-2.267-1.546l1.077-.516c.266.516.588.884 1.19.884.531 0 .994-.383.994-.972 0-.368-.168-.545-.463-.751l-1.23-.692c-.729-.412-1.26-.795-1.26-1.737 0-1.119.867-2.003 1.931-2.003.797 0 1.442.457 1.791 1.208l-1.021.574z"/><path clip-path="url(#b)" fill="none" stroke="#FFF" stroke-width=".12" stroke-miterlimit="10" d="M49.391 32.313c-.154-.339-.477-.604-.84-.604-.349 0-.685.294-.685.677 0 .604.755.869 1.525 1.238.77.368 1.511.868 1.511 1.958a2.253 2.253 0 0 1-2.253 2.282c-.951 0-1.917-.574-2.267-1.546l1.077-.516c.266.516.588.884 1.19.884.531 0 .994-.383.994-.972 0-.368-.168-.545-.463-.751l-1.23-.692c-.729-.412-1.26-.795-1.26-1.737 0-1.119.867-2.003 1.931-2.003.797 0 1.442.457 1.791 1.208l-1.021.574z"/><path clip-path="url(#b)" fill="#FFF" d="M61 28.632c-.393-.691-.896-1.045-1.693-1.045-.84 0-1.764.604-1.764 1.575 0 .869.812 1.325 1.47 1.591l.755.309c1.498.618 2.617 1.487 2.617 3.342 0 2.018-1.484 3.46-3.372 3.46-1.707 0-3.036-1.325-3.261-3.106l1.33-.295c-.014 1.223.909 2.106 2.043 2.106 1.133 0 1.944-1.001 1.944-2.165 0-1.192-.909-1.708-1.819-2.105l-.727-.324c-1.204-.545-2.294-1.267-2.294-2.813 0-1.796 1.51-2.871 3.105-2.871 1.176 0 2.141.604 2.715 1.679L61 28.632z"/><path clip-path="url(#b)" fill="none" stroke="#FFF" stroke-width=".12" stroke-miterlimit="10" d="M61 28.632c-.393-.691-.896-1.045-1.693-1.045-.84 0-1.764.604-1.764 1.575 0 .869.812 1.325 1.47 1.591l.755.309c1.498.618 2.617 1.487 2.617 3.342 0 2.018-1.484 3.46-3.372 3.46-1.707 0-3.036-1.325-3.261-3.106l1.33-.295c-.014 1.223.909 2.106 2.043 2.106 1.133 0 1.944-1.001 1.944-2.165 0-1.192-.909-1.708-1.819-2.105l-.727-.324c-1.204-.545-2.294-1.267-2.294-2.813 0-1.796 1.51-2.871 3.105-2.871 1.176 0 2.141.604 2.715 1.679L61 28.632z"/><path clip-path="url(#b)" fill="#FFF" d="M69.826 37.629h-1.259v-1.075h-.029c-.503.78-1.287 1.311-2.224 1.311-2.001 0-3.134-1.752-3.134-3.726 0-1.885 1.189-3.607 3.092-3.607.965 0 1.749.53 2.266 1.355h.029v-1.149h1.259v6.891zm-1.189-3.445c0-1.34-.77-2.474-2.127-2.474-1.302 0-2.071 1.193-2.071 2.474 0 1.296.741 2.503 2.071 2.503 1.371 0 2.127-1.149 2.127-2.503"/><path clip-path="url(#b)" fill="none" stroke="#FFF" stroke-width=".12" stroke-miterlimit="10" d="M69.826 37.629h-1.259v-1.075h-.029c-.503.78-1.287 1.311-2.224 1.311-2.001 0-3.134-1.752-3.134-3.726 0-1.885 1.189-3.607 3.092-3.607.965 0 1.749.53 2.266 1.355h.029v-1.149h1.259v6.891zm-1.189-3.445c0-1.34-.77-2.474-2.127-2.474-1.302 0-2.071 1.193-2.071 2.474 0 1.296.741 2.503 2.071 2.503 1.371 0 2.127-1.149 2.127-2.503z"/><path clip-path="url(#b)" fill="#FFF" d="M73.699 35.037l1.889-4.3h1.413l-3.302 7.127-3.289-7.127h1.414z"/><path clip-path="url(#b)" fill="none" stroke="#FFF" stroke-width=".12" stroke-miterlimit="10" d="M73.699 35.037l1.889-4.3h1.413l-3.302 7.127-3.289-7.127h1.414z"/><path clip-path="url(#b)" fill="#FFF" d="M78.44 34.404c.013 1.178.769 2.282 1.972 2.282.966 0 1.484-.515 1.959-1.34l1.064.633c-.615 1.194-1.763 1.885-3.036 1.885-2.001 0-3.219-1.59-3.219-3.622 0-2.12 1.078-3.711 3.191-3.711 2.084 0 3.064 1.62 3.064 3.667v.206H78.44zm3.736-1.001c-.154-1.031-.798-1.724-1.805-1.724-.98 0-1.707.737-1.861 1.724h3.666z"/><path clip-path="url(#b)" fill="none" stroke="#FFF" stroke-width=".12" stroke-miterlimit="10" d="M78.44 34.404c.013 1.178.769 2.282 1.972 2.282.966 0 1.484-.515 1.959-1.34l1.064.633c-.615 1.194-1.763 1.885-3.036 1.885-2.001 0-3.219-1.59-3.219-3.622 0-2.12 1.078-3.711 3.191-3.711 2.084 0 3.064 1.62 3.064 3.667v.206H78.44zm3.736-1.001c-.154-1.031-.798-1.724-1.805-1.724-.98 0-1.707.737-1.861 1.724h3.666z"/><path clip-path="url(#b)" fill="#FFF" d="M90.482 30.296h-.027l-1.233 7.333h-1.356l2.155-11.573 3.623 8.746 3.625-8.746 2.154 11.573h-1.357l-1.231-7.333h-.029l-3.162 7.568z"/><path clip-path="url(#b)" fill="none" stroke="#FFF" stroke-width=".12" stroke-miterlimit="10" d="M90.482 30.296h-.027l-1.233 7.333h-1.356l2.155-11.573 3.623 8.746 3.625-8.746 2.154 11.573h-1.357l-1.231-7.333h-.029l-3.162 7.568z"/><path clip-path="url(#b)" fill="#FFF" d="M106.863 34.198c0 2.076-1.539 3.666-3.498 3.666s-3.498-1.59-3.498-3.666c0-2.076 1.539-3.667 3.498-3.667s3.498 1.591 3.498 3.667m-5.737 0c0 1.296.993 2.4 2.239 2.4 1.245 0 2.239-1.104 2.239-2.4 0-1.311-.994-2.4-2.239-2.4-1.246 0-2.239 1.089-2.239 2.4"/><path clip-path="url(#b)" fill="none" stroke="#FFF" stroke-width=".12" stroke-miterlimit="10" d="M106.863 34.198c0 2.076-1.539 3.666-3.498 3.666s-3.498-1.59-3.498-3.666c0-2.076 1.539-3.667 3.498-3.667s3.498 1.591 3.498 3.667zm-5.737 0c0 1.296.993 2.4 2.239 2.4 1.245 0 2.239-1.104 2.239-2.4 0-1.311-.994-2.4-2.239-2.4-1.246 0-2.239 1.089-2.239 2.4z"/><path clip-path="url(#b)" fill="#FFF" d="M109.267 31.665h.028c.391-.736 1.175-1.134 1.973-1.134 1.847 0 2.322 1.311 2.322 2.989v4.109h-1.26v-3.946c0-1.178-.153-1.973-1.44-1.973-1.623 0-1.623 1.502-1.623 2.753v3.166h-1.259v-6.892h1.259v.928z"/><path clip-path="url(#b)" fill="none" stroke="#FFF" stroke-width=".12" stroke-miterlimit="10" d="M109.267 31.665h.028c.391-.736 1.175-1.134 1.973-1.134 1.847 0 2.322 1.311 2.322 2.989v4.109h-1.26v-3.946c0-1.178-.153-1.973-1.44-1.973-1.623 0-1.623 1.502-1.623 2.753v3.166h-1.259v-6.892h1.259v.928z"/><path clip-path="url(#b)" fill="#FFF" d="M116.078 34.404c.013 1.178.769 2.282 1.972 2.282.965 0 1.483-.515 1.959-1.34l1.063.633c-.615 1.194-1.762 1.885-3.035 1.885-2.002 0-3.219-1.59-3.219-3.622 0-2.12 1.078-3.711 3.19-3.711 2.085 0 3.064 1.62 3.064 3.667v.206h-4.994zm3.735-1.001c-.153-1.031-.798-1.724-1.805-1.724-.979 0-1.707.737-1.861 1.724h3.666z"/><path clip-path="url(#b)" fill="none" stroke="#FFF" stroke-width=".12" stroke-miterlimit="10" d="M116.078 34.404c.013 1.178.769 2.282 1.972 2.282.965 0 1.483-.515 1.959-1.34l1.063.633c-.615 1.194-1.762 1.885-3.035 1.885-2.002 0-3.219-1.59-3.219-3.622 0-2.12 1.078-3.711 3.19-3.711 2.085 0 3.064 1.62 3.064 3.667v.206h-4.994zm3.735-1.001c-.153-1.031-.798-1.724-1.805-1.724-.979 0-1.707.737-1.861 1.724h3.666z"/><path clip-path="url(#b)" fill="#FFF" d="M121.098 30.737h1.47l2.211 4.374 2.057-4.374h1.412l-5.302 10.838h-1.428l2.575-5.124z"/><path clip-path="url(#b)" fill="none" stroke="#FFF" stroke-width=".12" stroke-miterlimit="10" d="M121.098 30.737h1.47l2.211 4.374 2.057-4.374h1.412l-5.302 10.838h-1.428l2.575-5.124z"/><path clip-path="url(#b)" fill="#FFF" d="M134.227 35.759l1.441-3.564 1.433 3.564 1.421-3.278h1.066l-2.487 5.324-1.433-3.443-1.441 3.443-2.488-5.324h1.066z"/><path clip-path="url(#b)" fill="none" stroke="#FFF" stroke-width=".12" stroke-miterlimit="10" d="M134.227 35.759l1.441-3.564 1.433 3.564 1.421-3.278h1.066l-2.487 5.324-1.433-3.443-1.441 3.443-2.488-5.324h1.066z"/><path clip-path="url(#b)" fill="#FFF" d="M141.385 30.126a.66.66 0 0 1-.649.671.66.66 0 0 1-.648-.671c0-.385.293-.693.648-.693.356 0 .649.308.649.693m-.178 7.503h-.941v-5.148h.941v5.148z"/><path clip-path="url(#b)" fill="none" stroke="#FFF" stroke-width=".12" stroke-miterlimit="10" d="M141.385 30.126a.66.66 0 0 1-.649.671.66.66 0 0 1-.648-.671c0-.385.293-.693.648-.693.356 0 .649.308.649.693zm-.178 7.503h-.941v-5.148h.941v5.148z"/><path clip-path="url(#b)" fill="#FFF" d="M143.578 37.629h-.94v-4.225h-.512v-.923h.512v-1.97h.94v1.97h.92v.923h-.92z"/><path clip-path="url(#b)" fill="none" stroke="#FFF" stroke-width=".12" stroke-miterlimit="10" d="M143.578 37.629h-.94v-4.225h-.512v-.923h.512v-1.97h.94v1.97h.92v.923h-.92z"/><path clip-path="url(#b)" fill="#FFF" d="M146.369 28.079v5.094h.021c.291-.55.877-.847 1.473-.847 1.379 0 1.735.98 1.735 2.233v3.07h-.94v-2.948c0-.88-.115-1.475-1.077-1.475-1.212 0-1.212 1.122-1.212 2.058v2.365h-.941v-9.55h.941z"/><path clip-path="url(#b)" fill="none" stroke="#FFF" stroke-width=".12" stroke-miterlimit="10" d="M146.369 28.079v5.094h.021c.291-.55.877-.847 1.473-.847 1.379 0 1.735.98 1.735 2.233v3.07h-.94v-2.948c0-.88-.115-1.475-1.077-1.475-1.212 0-1.212 1.122-1.212 2.058v2.365h-.941v-9.55h.941z"/><path clip-path="url(#b)" fill="#FFF" d="M155.797 36.362h3.204v1.267h-4.519V26.526h1.315z"/><path clip-path="url(#b)" fill="none" stroke="#FFF" stroke-width=".12" stroke-miterlimit="10" d="M155.797 36.362h3.204v1.267h-4.519V26.526h1.315z"/><path clip-path="url(#b)" fill="#FFF" d="M166.134 34.198c0 2.076-1.539 3.666-3.498 3.666s-3.498-1.59-3.498-3.666c0-2.076 1.539-3.667 3.498-3.667s3.498 1.591 3.498 3.667m-5.736 0c0 1.296.993 2.4 2.238 2.4 1.246 0 2.239-1.104 2.239-2.4 0-1.311-.993-2.4-2.239-2.4-1.245 0-2.238 1.089-2.238 2.4"/><path clip-path="url(#b)" fill="none" stroke="#FFF" stroke-width=".12" stroke-miterlimit="10" d="M166.134 34.198c0 2.076-1.539 3.666-3.498 3.666s-3.498-1.59-3.498-3.666c0-2.076 1.539-3.667 3.498-3.667s3.498 1.591 3.498 3.667zm-5.736 0c0 1.296.993 2.4 2.238 2.4 1.246 0 2.239-1.104 2.239-2.4 0-1.311-.993-2.4-2.239-2.4-1.245 0-2.238 1.089-2.238 2.4z"/><path clip-path="url(#b)" fill="#FFF" d="M168.539 31.665h.027c.392-.736 1.176-1.134 1.973-1.134 1.848 0 2.323 1.311 2.323 2.989v4.109h-1.26v-3.946c0-1.178-.153-1.973-1.44-1.973-1.623 0-1.623 1.502-1.623 2.753v3.166h-1.26v-6.892h1.26v.928z"/><path clip-path="url(#b)" fill="none" stroke="#FFF" stroke-width=".12" stroke-miterlimit="10" d="M168.539 31.665h.027c.392-.736 1.176-1.134 1.973-1.134 1.848 0 2.323 1.311 2.323 2.989v4.109h-1.26v-3.946c0-1.178-.153-1.973-1.44-1.973-1.623 0-1.623 1.502-1.623 2.753v3.166h-1.26v-6.892h1.26v.928z"/><path clip-path="url(#b)" fill="#FFF" d="M180.722 37.497c0 2.371-.643 4.079-3.19 4.079-1.819 0-3.134-1.178-3.162-3.122h1.259c0 1.237.812 1.944 1.959 1.944 1.553 0 1.875-1.119 1.875-2.533v-1.311h-.028c-.504.78-1.3 1.311-2.224 1.311-2.016 0-3.135-1.752-3.135-3.726 0-1.885 1.189-3.607 3.078-3.607.981 0 1.764.53 2.281 1.384h.028v-1.178h1.259v6.759zm-1.189-3.313c0-1.34-.77-2.474-2.127-2.474-1.301 0-2.07 1.193-2.07 2.474 0 1.296.741 2.503 2.07 2.503 1.371 0 2.127-1.149 2.127-2.503"/><path clip-path="url(#b)" fill="none" stroke="#FFF" stroke-width=".12" stroke-miterlimit="10" d="M180.722 37.497c0 2.371-.643 4.079-3.19 4.079-1.819 0-3.134-1.178-3.162-3.122h1.259c0 1.237.812 1.944 1.959 1.944 1.553 0 1.875-1.119 1.875-2.533v-1.311h-.028c-.504.78-1.3 1.311-2.224 1.311-2.016 0-3.135-1.752-3.135-3.726 0-1.885 1.189-3.607 3.078-3.607.981 0 1.764.53 2.281 1.384h.028v-1.178h1.259v6.759zm-1.189-3.313c0-1.34-.77-2.474-2.127-2.474-1.301 0-2.07 1.193-2.07 2.474 0 1.296.741 2.503 2.07 2.503 1.371 0 2.127-1.149 2.127-2.503z"/><path clip-path="url(#b)" fill="#FFF" d="M183.113 34.404c.014 1.178.769 2.282 1.973 2.282.965 0 1.483-.515 1.959-1.34l1.063.633c-.615 1.194-1.763 1.885-3.036 1.885-2.001 0-3.218-1.59-3.218-3.622 0-2.12 1.077-3.711 3.189-3.711 2.085 0 3.065 1.62 3.065 3.667v.206h-4.995zm3.735-1.001c-.153-1.031-.797-1.724-1.805-1.724-.978 0-1.707.737-1.861 1.724h3.666z"/><path clip-path="url(#b)" fill="none" stroke="#FFF" stroke-width=".12" stroke-miterlimit="10" d="M183.113 34.404c.014 1.178.769 2.282 1.973 2.282.965 0 1.483-.515 1.959-1.34l1.063.633c-.615 1.194-1.763 1.885-3.036 1.885-2.001 0-3.218-1.59-3.218-3.622 0-2.12 1.077-3.711 3.189-3.711 2.085 0 3.065 1.62 3.065 3.667v.206h-4.995zm3.735-1.001c-.153-1.031-.797-1.724-1.805-1.724-.978 0-1.707.737-1.861 1.724h3.666z"/><path clip-path="url(#b)" fill="#FFF" d="M190.525 31.856h.043c.307-.81.951-1.325 1.791-1.325.363 0 .727.133 1.035.339l-.574 1.208c-.224-.207-.476-.281-.77-.281-1.357 0-1.525 1.326-1.525 2.445v3.386h-1.259v-6.891h1.259v1.119z"/><path clip-path="url(#b)" fill="none" stroke="#FFF" stroke-width=".12" stroke-miterlimit="10" d="M190.525 31.856h.043c.307-.81.951-1.325 1.791-1.325.363 0 .727.133 1.035.339l-.574 1.208c-.224-.207-.476-.281-.77-.281-1.357 0-1.525 1.326-1.525 2.445v3.386h-1.259v-6.891h1.259v1.119z"/><path clip-path="url(#b)" fill="#FFF" d="M27.434 45.647a4.145 4.145 0 0 0-2.785-1.089c-2.365 0-4.17 2.076-4.17 4.535 0 2.43 1.791 4.506 4.142 4.506 1.036 0 2.029-.413 2.813-1.149v1.635c-.812.5-1.848.78-2.771.78-3.008 0-5.499-2.518-5.499-5.728 0-3.284 2.504-5.845 5.611-5.845.923 0 1.86.235 2.659.751v1.604z"/><path clip-path="url(#b)" fill="none" stroke="#FFF" stroke-width=".12" stroke-miterlimit="10" d="M27.434 45.647a4.145 4.145 0 0 0-2.785-1.089c-2.365 0-4.17 2.076-4.17 4.535 0 2.43 1.791 4.506 4.142 4.506 1.036 0 2.029-.413 2.813-1.149v1.635c-.812.5-1.848.78-2.771.78-3.008 0-5.499-2.518-5.499-5.728 0-3.284 2.504-5.845 5.611-5.845.923 0 1.86.235 2.659.751v1.604z"/><path clip-path="url(#b)" fill="#FFF" d="M35.264 51.198c0 2.076-1.539 3.666-3.498 3.666s-3.498-1.59-3.498-3.666 1.539-3.667 3.498-3.667 3.498 1.591 3.498 3.667m-5.737 0c0 1.296.994 2.4 2.239 2.4 1.245 0 2.24-1.104 2.24-2.4 0-1.311-.995-2.4-2.24-2.4s-2.239 1.089-2.239 2.4"/><path clip-path="url(#b)" fill="none" stroke="#FFF" stroke-width=".12" stroke-miterlimit="10" d="M35.264 51.198c0 2.076-1.539 3.666-3.498 3.666s-3.498-1.59-3.498-3.666 1.539-3.667 3.498-3.667 3.498 1.591 3.498 3.667zm-5.737 0c0 1.296.994 2.4 2.239 2.4 1.245 0 2.24-1.104 2.24-2.4 0-1.311-.995-2.4-2.24-2.4s-2.239 1.089-2.239 2.4z"/><path clip-path="url(#b)" fill="#FFF" d="M42.817 51.198c0 2.076-1.539 3.666-3.498 3.666s-3.498-1.59-3.498-3.666 1.539-3.667 3.498-3.667 3.498 1.591 3.498 3.667m-5.737 0c0 1.296.994 2.4 2.239 2.4s2.24-1.104 2.24-2.4c0-1.311-.995-2.4-2.24-2.4s-2.239 1.089-2.239 2.4"/><path clip-path="url(#b)" fill="none" stroke="#FFF" stroke-width=".12" stroke-miterlimit="10" d="M42.817 51.198c0 2.076-1.539 3.666-3.498 3.666s-3.498-1.59-3.498-3.666 1.539-3.667 3.498-3.667 3.498 1.591 3.498 3.667zm-5.737 0c0 1.296.994 2.4 2.239 2.4s2.24-1.104 2.24-2.4c0-1.311-.995-2.4-2.24-2.4s-2.239 1.089-2.239 2.4z"/><path clip-path="url(#b)" fill="#FFF" d="M45.305 50.329l2.463-2.592h1.665l-2.798 2.858 3.078 4.034h-1.637l-2.337-3.137-.434.457v2.68h-1.259V41.848h1.259z"/><path clip-path="url(#b)" fill="none" stroke="#FFF" stroke-width=".12" stroke-miterlimit="10" d="M45.305 50.329l2.463-2.592h1.665l-2.798 2.858 3.078 4.034h-1.637l-2.337-3.137-.434.457v2.68h-1.259V41.848h1.259z"/><path clip-path="url(#b)" fill="#FFF" d="M52.201 44.587c0 .5-.392.898-.868.898s-.867-.398-.867-.898c0-.515.391-.928.867-.928s.868.413.868.928m-.238 10.042h-1.26v-6.892h1.26v6.892z"/><path clip-path="url(#b)" fill="none" stroke="#FFF" stroke-width=".12" stroke-miterlimit="10" d="M52.201 44.587c0 .5-.392.898-.868.898s-.867-.398-.867-.898c0-.515.391-.928.867-.928s.868.413.868.928zm-.238 10.042h-1.26v-6.892h1.26v6.892z"/><path clip-path="url(#b)" fill="#FFF" d="M55.236 48.665h.027c.392-.736 1.176-1.134 1.973-1.134 1.848 0 2.323 1.311 2.323 2.989v4.109h-1.26v-3.946c0-1.178-.153-1.973-1.44-1.973-1.623 0-1.623 1.502-1.623 2.753v3.166h-1.26v-6.892h1.26v.928z"/><path clip-path="url(#b)" fill="none" stroke="#FFF" stroke-width=".12" stroke-miterlimit="10" d="M55.236 48.665h.027c.392-.736 1.176-1.134 1.973-1.134 1.848 0 2.323 1.311 2.323 2.989v4.109h-1.26v-3.946c0-1.178-.153-1.973-1.44-1.973-1.623 0-1.623 1.502-1.623 2.753v3.166h-1.26v-6.892h1.26v.928z"/><path clip-path="url(#b)" fill="#FFF" d="M67.419 54.497c0 2.371-.643 4.079-3.19 4.079-1.819 0-3.134-1.178-3.162-3.122h1.259c0 1.237.812 1.944 1.959 1.944 1.553 0 1.875-1.119 1.875-2.533v-1.311h-.028c-.504.78-1.3 1.311-2.224 1.311-2.016 0-3.135-1.752-3.135-3.726 0-1.885 1.189-3.607 3.078-3.607.981 0 1.764.53 2.281 1.384h.028v-1.178h1.259v6.759zm-1.189-3.313c0-1.34-.77-2.474-2.127-2.474-1.301 0-2.07 1.193-2.07 2.474 0 1.296.741 2.503 2.07 2.503 1.371 0 2.127-1.149 2.127-2.503"/><path clip-path="url(#b)" fill="none" stroke="#FFF" stroke-width=".12" stroke-miterlimit="10" d="M67.419 54.497c0 2.371-.643 4.079-3.19 4.079-1.819 0-3.134-1.178-3.162-3.122h1.259c0 1.237.812 1.944 1.959 1.944 1.553 0 1.875-1.119 1.875-2.533v-1.311h-.028c-.504.78-1.3 1.311-2.224 1.311-2.016 0-3.135-1.752-3.135-3.726 0-1.885 1.189-3.607 3.078-3.607.981 0 1.764.53 2.281 1.384h.028v-1.178h1.259v6.759zm-1.189-3.313c0-1.34-.77-2.474-2.127-2.474-1.301 0-2.07 1.193-2.07 2.474 0 1.296.741 2.503 2.07 2.503 1.371 0 2.127-1.149 2.127-2.503z"/><path clip-path="url(#b)" fill="#FFF" d="M76.861 42.319l-5.835 14.165-.993-.472 5.82-14.165z"/><path clip-path="url(#b)" fill="none" stroke="#FFF" stroke-width=".12" stroke-miterlimit="10" d="M76.861 42.319l-5.835 14.165-.993-.472 5.82-14.165z"/><path clip-path="url(#b)" fill="#FFF" d="M83.462 51.478l2.979-8.187 2.981 8.187 2.953-7.951h1.427l-4.38 11.544-2.981-8.143-2.979 8.143-4.38-11.544h1.428z"/><path clip-path="url(#b)" fill="none" stroke="#FFF" stroke-width=".12" stroke-miterlimit="10" d="M83.462 51.478l2.979-8.187 2.981 8.187 2.953-7.951h1.427l-4.38 11.544-2.981-8.143-2.979 8.143-4.38-11.544h1.428z"/><path clip-path="url(#b)" fill="#FFF" d="M99.788 54.629H98.53v-1.075h-.03c-.503.78-1.287 1.311-2.224 1.311-2 0-3.134-1.752-3.134-3.726 0-1.885 1.189-3.607 3.093-3.607.965 0 1.748.53 2.265 1.355h.03v-1.149h1.258v6.891zm-1.189-3.445c0-1.34-.77-2.474-2.127-2.474-1.302 0-2.071 1.193-2.071 2.474 0 1.296.742 2.503 2.071 2.503 1.372 0 2.127-1.149 2.127-2.503"/><path clip-path="url(#b)" fill="none" stroke="#FFF" stroke-width=".12" stroke-miterlimit="10" d="M99.788 54.629H98.53v-1.075h-.03c-.503.78-1.287 1.311-2.224 1.311-2 0-3.134-1.752-3.134-3.726 0-1.885 1.189-3.607 3.093-3.607.965 0 1.748.53 2.265 1.355h.03v-1.149h1.258v6.891zm-1.189-3.445c0-1.34-.77-2.474-2.127-2.474-1.302 0-2.071 1.193-2.071 2.474 0 1.296.742 2.503 2.071 2.503 1.372 0 2.127-1.149 2.127-2.503z"/><path clip-path="url(#b)" fill="#FFF" d="M102.766 48.856h.042c.308-.81.951-1.325 1.791-1.325.364 0 .728.133 1.035.339l-.573 1.208c-.225-.207-.477-.281-.77-.281-1.357 0-1.525 1.326-1.525 2.445v3.386h-1.26v-6.891h1.26v1.119z"/><path clip-path="url(#b)" fill="none" stroke="#FFF" stroke-width=".12" stroke-miterlimit="10" d="M102.766 48.856h.042c.308-.81.951-1.325 1.791-1.325.364 0 .728.133 1.035.339l-.573 1.208c-.225-.207-.477-.281-.77-.281-1.357 0-1.525 1.326-1.525 2.445v3.386h-1.26v-6.891h1.26v1.119z"/><path clip-path="url(#b)" fill="#FFF" d="M107.658 48.606h.027c.364-.604 1.022-1.075 1.735-1.075.854 0 1.469.457 1.889 1.222.406-.736 1.19-1.222 2.015-1.222 1.721 0 2.169 1.414 2.169 2.974v4.123h-1.259v-3.902c0-.883-.112-2.016-1.218-2.016-1.342 0-1.44 1.471-1.44 2.532v3.386h-1.26v-3.651c0-.898-.042-2.267-1.203-2.267-1.344 0-1.455 1.457-1.455 2.532v3.386h-1.26v-6.891h1.26v.869z"/><path clip-path="url(#b)" fill="none" stroke="#FFF" stroke-width=".12" stroke-miterlimit="10" d="M107.658 48.606h.027c.364-.604 1.022-1.075 1.735-1.075.854 0 1.469.457 1.889 1.222.406-.736 1.19-1.222 2.015-1.222 1.721 0 2.169 1.414 2.169 2.974v4.123h-1.259v-3.902c0-.883-.112-2.016-1.218-2.016-1.342 0-1.44 1.471-1.44 2.532v3.386h-1.26v-3.651c0-.898-.042-2.267-1.203-2.267-1.344 0-1.455 1.457-1.455 2.532v3.386h-1.26v-6.891h1.26v.869z"/><path clip-path="url(#b)" fill="#FFF" d="M118.945 44.587c0 .5-.391.898-.867.898s-.867-.398-.867-.898c0-.515.391-.928.867-.928s.867.413.867.928m-.238 10.042h-1.259v-6.892h1.259v6.892z"/><path clip-path="url(#b)" fill="none" stroke="#FFF" stroke-width=".12" stroke-miterlimit="10" d="M118.945 44.587c0 .5-.391.898-.867.898s-.867-.398-.867-.898c0-.515.391-.928.867-.928s.867.413.867.928zm-.238 10.042h-1.259v-6.892h1.259v6.892z"/><path clip-path="url(#b)" fill="#FFF" d="M121.98 48.665h.027c.393-.736 1.176-1.134 1.974-1.134 1.847 0 2.323 1.311 2.323 2.989v4.109h-1.26v-3.946c0-1.178-.154-1.973-1.441-1.973-1.623 0-1.623 1.502-1.623 2.753v3.166h-1.26v-6.892h1.26v.928z"/><path clip-path="url(#b)" fill="none" stroke="#FFF" stroke-width=".12" stroke-miterlimit="10" d="M121.98 48.665h.027c.393-.736 1.176-1.134 1.974-1.134 1.847 0 2.323 1.311 2.323 2.989v4.109h-1.26v-3.946c0-1.178-.154-1.973-1.441-1.973-1.623 0-1.623 1.502-1.623 2.753v3.166h-1.26v-6.892h1.26v.928z"/><path clip-path="url(#b)" fill="#FFF" d="M134.164 54.497c0 2.371-.642 4.079-3.189 4.079-1.819 0-3.135-1.178-3.162-3.122h1.259c0 1.237.811 1.944 1.959 1.944 1.553 0 1.875-1.119 1.875-2.533v-1.311h-.029c-.504.78-1.3 1.311-2.224 1.311-2.015 0-3.135-1.752-3.135-3.726 0-1.885 1.189-3.607 3.079-3.607.98 0 1.763.53 2.28 1.384h.029v-1.178h1.258v6.759zm-1.189-3.313c0-1.34-.77-2.474-2.126-2.474-1.302 0-2.071 1.193-2.071 2.474 0 1.296.742 2.503 2.071 2.503 1.371 0 2.126-1.149 2.126-2.503"/><path clip-path="url(#b)" fill="none" stroke="#FFF" stroke-width=".12" stroke-miterlimit="10" d="M134.164 54.497c0 2.371-.642 4.079-3.189 4.079-1.819 0-3.135-1.178-3.162-3.122h1.259c0 1.237.811 1.944 1.959 1.944 1.553 0 1.875-1.119 1.875-2.533v-1.311h-.029c-.504.78-1.3 1.311-2.224 1.311-2.015 0-3.135-1.752-3.135-3.726 0-1.885 1.189-3.607 3.079-3.607.98 0 1.763.53 2.28 1.384h.029v-1.178h1.258v6.759zm-1.189-3.313c0-1.34-.77-2.474-2.126-2.474-1.302 0-2.071 1.193-2.071 2.474 0 1.296.742 2.503 2.071 2.503 1.371 0 2.126-1.149 2.126-2.503z"/><path clip-path="url(#b)" fill="#FFF" d="M139.87 43.527h1.287c1.986 0 3.861.545 3.861 3.048 0 .81-.42 1.753-1.133 2.105v.03c1.245.236 2.112 1.517 2.112 2.813 0 2.223-1.804 3.106-3.666 3.106h-2.461V43.527zm1.314 4.918h.336c1.246 0 2.268-.265 2.268-1.856 0-1.56-1.008-1.825-2.24-1.825h-.364v3.681zm0 4.947h1.008c1.217 0 2.49-.383 2.49-1.958 0-1.561-1.511-1.885-2.686-1.885h-.812v3.843z"/><path clip-path="url(#b)" fill="none" stroke="#FFF" stroke-width=".12" stroke-miterlimit="10" d="M139.87 43.527h1.287c1.986 0 3.861.545 3.861 3.048 0 .81-.42 1.753-1.133 2.105v.03c1.245.236 2.112 1.517 2.112 2.813 0 2.223-1.804 3.106-3.666 3.106h-2.461V43.527zm1.314 4.918h.336c1.246 0 2.268-.265 2.268-1.856 0-1.56-1.008-1.825-2.24-1.825h-.364v3.681zm0 4.947h1.008c1.217 0 2.49-.383 2.49-1.958 0-1.561-1.511-1.885-2.686-1.885h-.812v3.843z"/><path clip-path="url(#b)" fill="#FFF" d="M148.527 47.737v3.814c0 1.105.266 2.077 1.511 2.077 1.245 0 1.51-.972 1.51-2.077v-3.814h1.26v3.961c0 1.885-.84 3.166-2.77 3.166-1.931 0-2.771-1.281-2.771-3.166v-3.961h1.26z"/><path clip-path="url(#b)" fill="none" stroke="#FFF" stroke-width=".12" stroke-miterlimit="10" d="M148.527 47.737v3.814c0 1.105.266 2.077 1.511 2.077 1.245 0 1.51-.972 1.51-2.077v-3.814h1.26v3.961c0 1.885-.84 3.166-2.77 3.166-1.931 0-2.771-1.281-2.771-3.166v-3.961h1.26z"/><path clip-path="url(#b)" fill="#FFF" d="M155.828 48.856h.042c.308-.81.951-1.325 1.791-1.325.364 0 .728.133 1.035.339l-.573 1.208c-.225-.207-.477-.281-.77-.281-1.357 0-1.525 1.326-1.525 2.445v3.386h-1.26v-6.891h1.26v1.119z"/><path clip-path="url(#b)" fill="none" stroke="#FFF" stroke-width=".12" stroke-miterlimit="10" d="M155.828 48.856h.042c.308-.81.951-1.325 1.791-1.325.364 0 .728.133 1.035.339l-.573 1.208c-.225-.207-.477-.281-.77-.281-1.357 0-1.525 1.326-1.525 2.445v3.386h-1.26v-6.891h1.26v1.119z"/><path clip-path="url(#b)" fill="#FFF" d="M160.763 48.665h.028c.391-.736 1.175-1.134 1.973-1.134 1.847 0 2.322 1.311 2.322 2.989v4.109h-1.26v-3.946c0-1.178-.153-1.973-1.44-1.973-1.623 0-1.623 1.502-1.623 2.753v3.166h-1.259v-6.892h1.259v.928z"/><path clip-path="url(#b)" fill="none" stroke="#FFF" stroke-width=".12" stroke-miterlimit="10" d="M160.763 48.665h.028c.391-.736 1.175-1.134 1.973-1.134 1.847 0 2.322 1.311 2.322 2.989v4.109h-1.26v-3.946c0-1.178-.153-1.973-1.44-1.973-1.623 0-1.623 1.502-1.623 2.753v3.166h-1.259v-6.892h1.259v.928z"/><path clip-path="url(#b)" fill="#FFF" d="M173.84 54.629h-1.314v-9.836h-2.505v-1.267h6.325v1.267h-2.506z"/><path clip-path="url(#b)" fill="none" stroke="#FFF" stroke-width=".12" stroke-miterlimit="10" d="M173.84 54.629h-1.314v-9.836h-2.505v-1.267h6.325v1.267h-2.506z"/><path clip-path="url(#b)" fill="#FFF" d="M178.807 44.587c0 .5-.391.898-.868.898-.475 0-.867-.398-.867-.898 0-.515.392-.928.867-.928.477 0 .868.413.868.928m-.238 10.042h-1.259v-6.892h1.259v6.892z"/><path clip-path="url(#b)" fill="none" stroke="#FFF" stroke-width=".12" stroke-miterlimit="10" d="M178.807 44.587c0 .5-.391.898-.868.898-.475 0-.867-.398-.867-.898 0-.515.392-.928.867-.928.477 0 .868.413.868.928zm-.238 10.042h-1.259v-6.892h1.259v6.892z"/><path clip-path="url(#b)" fill="#FFF" d="M181.801 48.606h.027c.364-.604 1.022-1.075 1.735-1.075.854 0 1.469.457 1.889 1.222.406-.736 1.19-1.222 2.015-1.222 1.721 0 2.169 1.414 2.169 2.974v4.123h-1.259v-3.902c0-.883-.112-2.016-1.218-2.016-1.342 0-1.44 1.471-1.44 2.532v3.386h-1.26v-3.651c0-.898-.042-2.267-1.203-2.267-1.344 0-1.455 1.457-1.455 2.532v3.386h-1.26v-6.891h1.26v.869z"/><path clip-path="url(#b)" fill="none" stroke="#FFF" stroke-width=".12" stroke-miterlimit="10" d="M181.801 48.606h.027c.364-.604 1.022-1.075 1.735-1.075.854 0 1.469.457 1.889 1.222.406-.736 1.19-1.222 2.015-1.222 1.721 0 2.169 1.414 2.169 2.974v4.123h-1.259v-3.902c0-.883-.112-2.016-1.218-2.016-1.342 0-1.44 1.471-1.44 2.532v3.386h-1.26v-3.651c0-.898-.042-2.267-1.203-2.267-1.344 0-1.455 1.457-1.455 2.532v3.386h-1.26v-6.891h1.26v.869z"/><path clip-path="url(#b)" fill="#FFF" d="M192.067 51.404c.013 1.178.769 2.282 1.972 2.282.966 0 1.484-.515 1.959-1.34l1.064.633c-.615 1.194-1.763 1.885-3.036 1.885-2.001 0-3.219-1.59-3.219-3.622 0-2.12 1.078-3.711 3.191-3.711 2.084 0 3.064 1.62 3.064 3.667v.206h-4.995zm3.736-1.001c-.154-1.031-.798-1.724-1.805-1.724-.98 0-1.707.737-1.861 1.724h3.666z"/><path clip-path="url(#b)" fill="none" stroke="#FFF" stroke-width=".12" stroke-miterlimit="10" d="M192.067 51.404c.013 1.178.769 2.282 1.972 2.282.966 0 1.484-.515 1.959-1.34l1.064.633c-.615 1.194-1.763 1.885-3.036 1.885-2.001 0-3.219-1.59-3.219-3.622 0-2.12 1.078-3.711 3.191-3.711 2.084 0 3.064 1.62 3.064 3.667v.206h-4.995zm3.736-1.001c-.154-1.031-.798-1.724-1.805-1.724-.98 0-1.707.737-1.861 1.724h3.666z"/><path clip-path="url(#b)" fill="#FFF" d="M0 8.613s3.027 3.596 3.408 5.301h1.136s4.165-7.572 9.845-12.873l-.854-.758S7.478 4.968 4.166 9.797c0 0-1.184-1.137-2.887-2.745L0 8.613zm0 24.201s3.027 3.598 3.408 5.301h1.136s4.165-7.572 9.845-12.873l-.854-.758s-6.057 4.687-9.369 9.514c0 0-1.184-1.135-2.887-2.746L0 32.814zM250.736 8.613s3.028 3.596 3.408 5.301h1.135s4.166-7.572 9.846-12.873l-.854-.758s-6.056 4.685-9.369 9.514c0 0-1.184-1.137-2.887-2.745l-1.279 1.561zm0 24.326s3.028 3.598 3.408 5.303h1.135s4.166-7.574 9.846-12.873l-.854-.758s-6.056 4.685-9.369 9.512c0 0-1.184-1.135-2.887-2.745l-1.279 1.561zm24.439-27.692c-.393-.691-.896-1.045-1.693-1.045-.84 0-1.764.604-1.764 1.575 0 .869.812 1.325 1.47 1.591l.756.309c1.497.618 2.616 1.487 2.616 3.342 0 2.018-1.484 3.46-3.372 3.46-1.707 0-3.036-1.325-3.261-3.106l1.33-.295c-.015 1.223.909 2.106 2.043 2.106 1.133 0 1.944-1.001 1.944-2.165 0-1.192-.909-1.708-1.818-2.105l-.729-.324c-1.203-.545-2.293-1.267-2.293-2.813 0-1.796 1.51-2.871 3.105-2.871 1.176 0 2.142.604 2.715 1.679l-1.049.662z"/><path clip-path="url(#b)" fill="none" stroke="#FFF" stroke-width=".12" stroke-miterlimit="10" d="M275.175 5.247c-.393-.691-.896-1.045-1.693-1.045-.84 0-1.764.604-1.764 1.575 0 .869.812 1.325 1.47 1.591l.756.309c1.497.618 2.616 1.487 2.616 3.342 0 2.018-1.484 3.46-3.372 3.46-1.707 0-3.036-1.325-3.261-3.106l1.33-.295c-.015 1.223.909 2.106 2.043 2.106 1.133 0 1.944-1.001 1.944-2.165 0-1.192-.909-1.708-1.818-2.105l-.729-.324c-1.203-.545-2.293-1.267-2.293-2.813 0-1.796 1.51-2.871 3.105-2.871 1.176 0 2.142.604 2.715 1.679l-1.049.662z"/><path clip-path="url(#b)" fill="#FFF" d="M284 14.244h-1.258v-1.075h-.029c-.504.78-1.287 1.311-2.224 1.311-2.001 0-3.134-1.752-3.134-3.726 0-1.885 1.188-3.607 3.092-3.607.966 0 1.749.53 2.266 1.355h.029V7.353H284v6.891zm-1.188-3.445c0-1.34-.771-2.474-2.127-2.474-1.302 0-2.071 1.193-2.071 2.474 0 1.296.741 2.503 2.071 2.503 1.371 0 2.127-1.149 2.127-2.503"/><path clip-path="url(#b)" fill="none" stroke="#FFF" stroke-width=".12" stroke-miterlimit="10" d="M284 14.244h-1.258v-1.075h-.029c-.504.78-1.287 1.311-2.224 1.311-2.001 0-3.134-1.752-3.134-3.726 0-1.885 1.188-3.607 3.092-3.607.966 0 1.749.53 2.266 1.355h.029V7.353H284v6.891zm-1.188-3.445c0-1.34-.771-2.474-2.127-2.474-1.302 0-2.071 1.193-2.071 2.474 0 1.296.741 2.503 2.071 2.503 1.371 0 2.127-1.149 2.127-2.503z"/><path clip-path="url(#b)" fill="#FFF" d="M288.88 2.803c-.251-.117-.573-.279-.839-.279-.895 0-.895 1.192-.895 1.87v2.959h1.734V8.59h-1.734v5.654h-1.26V8.59h-.573V7.353h.573V3.996c0-1.502.49-2.71 2.113-2.71.308 0 .602.06.881.177v1.34z"/><path clip-path="url(#b)" fill="none" stroke="#FFF" stroke-width=".12" stroke-miterlimit="10" d="M288.88 2.803c-.251-.117-.573-.279-.839-.279-.895 0-.895 1.192-.895 1.87v2.959h1.734V8.59h-1.734v5.654h-1.26V8.59h-.573V7.353h.573V3.996c0-1.502.49-2.71 2.113-2.71.308 0 .602.06.881.177v1.34z"/><path clip-path="url(#b)" fill="#FFF" d="M290.237 11.02c.013 1.178.769 2.282 1.972 2.282.966 0 1.484-.515 1.959-1.34l1.064.633c-.615 1.194-1.763 1.885-3.036 1.885-2.001 0-3.218-1.59-3.218-3.622 0-2.12 1.077-3.711 3.189-3.711 2.085 0 3.065 1.62 3.065 3.667v.206h-4.995zm3.736-1.001c-.154-1.031-.798-1.724-1.806-1.724-.979 0-1.707.737-1.86 1.724h3.666z"/><path clip-path="url(#b)" fill="none" stroke="#FFF" stroke-width=".12" stroke-miterlimit="10" d="M290.237 11.02c.013 1.178.769 2.282 1.972 2.282.966 0 1.484-.515 1.959-1.34l1.064.633c-.615 1.194-1.763 1.885-3.036 1.885-2.001 0-3.218-1.59-3.218-3.622 0-2.12 1.077-3.711 3.189-3.711 2.085 0 3.065 1.62 3.065 3.667v.206h-4.995zm3.736-1.001c-.154-1.031-.798-1.724-1.806-1.724-.979 0-1.707.737-1.86 1.724h3.666z"/><path clip-path="url(#b)" fill="#FFF" d="M303.594 2.803c-.251-.117-.573-.279-.839-.279-.895 0-.895 1.192-.895 1.87v2.959h1.734V8.59h-1.734v5.654h-1.26V8.59h-.573V7.353h.573V3.996c0-1.502.49-2.71 2.113-2.71.308 0 .602.06.881.177v1.34z"/><path clip-path="url(#b)" fill="none" stroke="#FFF" stroke-width=".12" stroke-miterlimit="10" d="M303.594 2.803c-.251-.117-.573-.279-.839-.279-.895 0-.895 1.192-.895 1.87v2.959h1.734V8.59h-1.734v5.654h-1.26V8.59h-.573V7.353h.573V3.996c0-1.502.49-2.71 2.113-2.71.308 0 .602.06.881.177v1.34z"/><path clip-path="url(#b)" fill="#FFF" d="M310.603 10.813c0 2.076-1.539 3.666-3.498 3.666-1.959 0-3.498-1.59-3.498-3.666 0-2.076 1.539-3.667 3.498-3.667 1.959 0 3.498 1.591 3.498 3.667m-5.737 0c0 1.296.993 2.4 2.239 2.4 1.245 0 2.239-1.104 2.239-2.4 0-1.311-.994-2.4-2.239-2.4-1.246 0-2.239 1.089-2.239 2.4"/><path clip-path="url(#b)" fill="none" stroke="#FFF" stroke-width=".12" stroke-miterlimit="10" d="M310.603 10.813c0 2.076-1.539 3.666-3.498 3.666-1.959 0-3.498-1.59-3.498-3.666 0-2.076 1.539-3.667 3.498-3.667 1.959 0 3.498 1.591 3.498 3.667zm-5.737 0c0 1.296.993 2.4 2.239 2.4 1.245 0 2.239-1.104 2.239-2.4 0-1.311-.994-2.4-2.239-2.4-1.246 0-2.239 1.089-2.239 2.4z"/><path clip-path="url(#b)" fill="#FFF" d="M313.091 8.472h.042c.308-.81.951-1.325 1.791-1.325.363 0 .728.133 1.035.339l-.573 1.208c-.225-.207-.477-.281-.77-.281-1.357 0-1.525 1.326-1.525 2.445v3.386h-1.26V7.353h1.26v1.119z"/><path clip-path="url(#b)" fill="none" stroke="#FFF" stroke-width=".12" stroke-miterlimit="10" d="M313.091 8.472h.042c.308-.81.951-1.325 1.791-1.325.363 0 .728.133 1.035.339l-.573 1.208c-.225-.207-.477-.281-.77-.281-1.357 0-1.525 1.326-1.525 2.445v3.386h-1.26V7.353h1.26v1.119z"/><path clip-path="url(#b)" fill="#FFF" d="M320.797 3.141h1.314v11.103h-1.314z"/><path clip-path="url(#b)" fill="none" stroke="#FFF" stroke-width=".12" stroke-miterlimit="10" d="M320.797 3.141h1.314v11.103h-1.314z"/><path clip-path="url(#b)" fill="#FFF" d="M325.203 8.28h.028c.392-.736 1.175-1.134 1.973-1.134 1.847 0 2.322 1.311 2.322 2.989v4.109h-1.259v-3.946c0-1.178-.154-1.973-1.441-1.973-1.623 0-1.623 1.502-1.623 2.753v3.166h-1.26V7.352h1.26v.928z"/><path clip-path="url(#b)" fill="none" stroke="#FFF" stroke-width=".12" stroke-miterlimit="10" d="M325.203 8.28h.028c.392-.736 1.175-1.134 1.973-1.134 1.847 0 2.322 1.311 2.322 2.989v4.109h-1.259v-3.946c0-1.178-.154-1.973-1.441-1.973-1.623 0-1.623 1.502-1.623 2.753v3.166h-1.26V7.352h1.26v.928z"/><path clip-path="url(#b)" fill="#FFF" d="M336.143 13.169h-.029c-.504.78-1.3 1.311-2.224 1.311-2.015 0-3.134-1.752-3.134-3.726 0-1.885 1.188-3.607 3.078-3.607.98 0 1.763.53 2.28 1.355h.029V1.463h1.258v12.781h-1.258v-1.075zm.069-2.37c0-1.34-.77-2.474-2.126-2.474-1.302 0-2.071 1.193-2.071 2.474 0 1.296.741 2.503 2.071 2.503 1.371 0 2.126-1.149 2.126-2.503"/><path clip-path="url(#b)" fill="none" stroke="#FFF" stroke-width=".12" stroke-miterlimit="10" d="M336.143 13.169h-.029c-.504.78-1.3 1.311-2.224 1.311-2.015 0-3.134-1.752-3.134-3.726 0-1.885 1.188-3.607 3.078-3.607.98 0 1.763.53 2.28 1.355h.029V1.463h1.258v12.781h-1.258v-1.075zm.069-2.37c0-1.34-.77-2.474-2.126-2.474-1.302 0-2.071 1.193-2.071 2.474 0 1.296.741 2.503 2.071 2.503 1.371 0 2.126-1.149 2.126-2.503z"/><path clip-path="url(#b)" fill="#FFF" d="M345.444 10.813c0 2.076-1.539 3.666-3.498 3.666-1.959 0-3.498-1.59-3.498-3.666 0-2.076 1.539-3.667 3.498-3.667 1.959 0 3.498 1.591 3.498 3.667m-5.737 0c0 1.296.993 2.4 2.239 2.4 1.245 0 2.239-1.104 2.239-2.4 0-1.311-.994-2.4-2.239-2.4-1.246 0-2.239 1.089-2.239 2.4"/><path clip-path="url(#b)" fill="none" stroke="#FFF" stroke-width=".12" stroke-miterlimit="10" d="M345.444 10.813c0 2.076-1.539 3.666-3.498 3.666-1.959 0-3.498-1.59-3.498-3.666 0-2.076 1.539-3.667 3.498-3.667 1.959 0 3.498 1.591 3.498 3.667zm-5.737 0c0 1.296.993 2.4 2.239 2.4 1.245 0 2.239-1.104 2.239-2.4 0-1.311-.994-2.4-2.239-2.4-1.246 0-2.239 1.089-2.239 2.4z"/><path clip-path="url(#b)" fill="#FFF" d="M352.997 10.813c0 2.076-1.539 3.666-3.498 3.666-1.959 0-3.498-1.59-3.498-3.666 0-2.076 1.539-3.667 3.498-3.667 1.959 0 3.498 1.591 3.498 3.667m-5.737 0c0 1.296.993 2.4 2.239 2.4 1.245 0 2.239-1.104 2.239-2.4 0-1.311-.994-2.4-2.239-2.4-1.246 0-2.239 1.089-2.239 2.4"/><path clip-path="url(#b)" fill="none" stroke="#FFF" stroke-width=".12" stroke-miterlimit="10" d="M352.997 10.813c0 2.076-1.539 3.666-3.498 3.666-1.959 0-3.498-1.59-3.498-3.666 0-2.076 1.539-3.667 3.498-3.667 1.959 0 3.498 1.591 3.498 3.667zm-5.737 0c0 1.296.993 2.4 2.239 2.4 1.245 0 2.239-1.104 2.239-2.4 0-1.311-.994-2.4-2.239-2.4-1.246 0-2.239 1.089-2.239 2.4z"/><path clip-path="url(#b)" fill="#FFF" d="M355.484 8.472h.042c.308-.81.951-1.325 1.791-1.325.363 0 .728.133 1.035.339l-.573 1.208c-.225-.207-.476-.281-.77-.281-1.357 0-1.525 1.326-1.525 2.445v3.386h-1.26V7.353h1.26v1.119z"/><path clip-path="url(#b)" fill="none" stroke="#FFF" stroke-width=".12" stroke-miterlimit="10" d="M355.484 8.472h.042c.308-.81.951-1.325 1.791-1.325.363 0 .728.133 1.035.339l-.573 1.208c-.225-.207-.476-.281-.77-.281-1.357 0-1.525 1.326-1.525 2.445v3.386h-1.26V7.353h1.26v1.119z"/><path clip-path="url(#b)" fill="#FFF" d="M368.103 1.935L362.268 16.1l-.993-.472 5.82-14.165z"/><path clip-path="url(#b)" fill="none" stroke="#FFF" stroke-width=".12" stroke-miterlimit="10" d="M368.103 1.935L362.268 16.1l-.993-.472 5.82-14.165z"/><path clip-path="url(#b)" fill="#FFF" d="M382.215 8.693c0 3.298-2.476 5.786-5.526 5.786-3.051 0-5.527-2.488-5.527-5.786 0-3.181 2.505-5.787 5.527-5.787 3.023 0 5.526 2.606 5.526 5.787m-1.314 0c0-2.444-1.735-4.491-4.212-4.491-2.476 0-4.212 2.047-4.212 4.491 0 2.532 1.931 4.49 4.212 4.49 2.28 0 4.212-1.958 4.212-4.49"/><path clip-path="url(#b)" fill="none" stroke="#FFF" stroke-width=".12" stroke-miterlimit="10" d="M382.215 8.693c0 3.298-2.476 5.786-5.526 5.786-3.051 0-5.527-2.488-5.527-5.786 0-3.181 2.505-5.787 5.527-5.787 3.023 0 5.526 2.606 5.526 5.787zm-1.314 0c0-2.444-1.735-4.491-4.212-4.491-2.476 0-4.212 2.047-4.212 4.491 0 2.532 1.931 4.49 4.212 4.49 2.28 0 4.212-1.958 4.212-4.49z"/><path clip-path="url(#b)" fill="#FFF" d="M384.549 7.353v3.814c0 1.105.266 2.077 1.511 2.077s1.51-.972 1.51-2.077V7.353h1.26v3.961c0 1.885-.84 3.166-2.77 3.166-1.931 0-2.771-1.281-2.771-3.166V7.353h1.26z"/><path clip-path="url(#b)" fill="none" stroke="#FFF" stroke-width=".12" stroke-miterlimit="10" d="M384.549 7.353v3.814c0 1.105.266 2.077 1.511 2.077s1.51-.972 1.51-2.077V7.353h1.26v3.961c0 1.885-.84 3.166-2.77 3.166-1.931 0-2.771-1.281-2.771-3.166V7.353h1.26z"/><path clip-path="url(#b)" fill="#FFF" d="M391.947 14.244h-1.259V8.59h-.685V7.352h.685V4.717h1.259v2.635h1.231V8.59h-1.231z"/><path clip-path="url(#b)" fill="none" stroke="#FFF" stroke-width=".12" stroke-miterlimit="10" d="M391.947 14.244h-1.259V8.59h-.685V7.352h.685V4.717h1.259v2.635h1.231V8.59h-1.231z"/><path clip-path="url(#b)" fill="#FFF" d="M398.746 13.169h-.029c-.504.78-1.3 1.311-2.224 1.311-2.015 0-3.134-1.752-3.134-3.726 0-1.885 1.188-3.607 3.078-3.607.98 0 1.763.53 2.28 1.355h.029V1.463h1.258v12.781h-1.258v-1.075zm.069-2.37c0-1.34-.77-2.474-2.126-2.474-1.302 0-2.071 1.193-2.071 2.474 0 1.296.741 2.503 2.071 2.503 1.371 0 2.126-1.149 2.126-2.503"/><path clip-path="url(#b)" fill="none" stroke="#FFF" stroke-width=".12" stroke-miterlimit="10" d="M398.746 13.169h-.029c-.504.78-1.3 1.311-2.224 1.311-2.015 0-3.134-1.752-3.134-3.726 0-1.885 1.188-3.607 3.078-3.607.98 0 1.763.53 2.28 1.355h.029V1.463h1.258v12.781h-1.258v-1.075zm.069-2.37c0-1.34-.77-2.474-2.126-2.474-1.302 0-2.071 1.193-2.071 2.474 0 1.296.741 2.503 2.071 2.503 1.371 0 2.126-1.149 2.126-2.503z"/><path clip-path="url(#b)" fill="#FFF" d="M408.048 10.813c0 2.076-1.539 3.666-3.498 3.666-1.959 0-3.498-1.59-3.498-3.666 0-2.076 1.539-3.667 3.498-3.667 1.959 0 3.498 1.591 3.498 3.667m-5.737 0c0 1.296.993 2.4 2.239 2.4 1.245 0 2.239-1.104 2.239-2.4 0-1.311-.994-2.4-2.239-2.4-1.246 0-2.239 1.089-2.239 2.4"/><path clip-path="url(#b)" fill="none" stroke="#FFF" stroke-width=".12" stroke-miterlimit="10" d="M408.048 10.813c0 2.076-1.539 3.666-3.498 3.666-1.959 0-3.498-1.59-3.498-3.666 0-2.076 1.539-3.667 3.498-3.667 1.959 0 3.498 1.591 3.498 3.667zm-5.737 0c0 1.296.993 2.4 2.239 2.4 1.245 0 2.239-1.104 2.239-2.4 0-1.311-.994-2.4-2.239-2.4-1.246 0-2.239 1.089-2.239 2.4z"/><path clip-path="url(#b)" fill="#FFF" d="M415.6 10.813c0 2.076-1.539 3.666-3.498 3.666-1.959 0-3.498-1.59-3.498-3.666 0-2.076 1.539-3.667 3.498-3.667 1.959 0 3.498 1.591 3.498 3.667m-5.737 0c0 1.296.993 2.4 2.239 2.4 1.245 0 2.239-1.104 2.239-2.4 0-1.311-.994-2.4-2.239-2.4-1.246 0-2.239 1.089-2.239 2.4"/><path clip-path="url(#b)" fill="none" stroke="#FFF" stroke-width=".12" stroke-miterlimit="10" d="M415.6 10.813c0 2.076-1.539 3.666-3.498 3.666-1.959 0-3.498-1.59-3.498-3.666 0-2.076 1.539-3.667 3.498-3.667 1.959 0 3.498 1.591 3.498 3.667zm-5.737 0c0 1.296.993 2.4 2.239 2.4 1.245 0 2.239-1.104 2.239-2.4 0-1.311-.994-2.4-2.239-2.4-1.246 0-2.239 1.089-2.239 2.4z"/><path clip-path="url(#b)" fill="#FFF" d="M418.088 8.472h.042c.308-.81.951-1.325 1.791-1.325.363 0 .728.133 1.035.339l-.573 1.208c-.225-.207-.476-.281-.77-.281-1.357 0-1.525 1.326-1.525 2.445v3.386h-1.26V7.353h1.26v1.119z"/><path clip-path="url(#b)" fill="none" stroke="#FFF" stroke-width=".12" stroke-miterlimit="10" d="M418.088 8.472h.042c.308-.81.951-1.325 1.791-1.325.363 0 .728.133 1.035.339l-.573 1.208c-.225-.207-.476-.281-.77-.281-1.357 0-1.525 1.326-1.525 2.445v3.386h-1.26V7.353h1.26v1.119z"/><path clip-path="url(#b)" fill="#FFF" d="M426.969 3.142v6.553c0 1.81.518 3.489 2.547 3.489 2.028 0 2.547-1.679 2.547-3.489V3.142h1.314v7.023c0 2.445-1.44 4.315-3.861 4.315-2.421 0-3.862-1.87-3.862-4.315V3.142h1.315z"/><path clip-path="url(#b)" fill="none" stroke="#FFF" stroke-width=".12" stroke-miterlimit="10" d="M426.969 3.142v6.553c0 1.81.518 3.489 2.547 3.489 2.028 0 2.547-1.679 2.547-3.489V3.142h1.314v7.023c0 2.445-1.44 4.315-3.861 4.315-2.421 0-3.862-1.87-3.862-4.315V3.142h1.315z"/><path clip-path="url(#b)" fill="#FFF" d="M437.684 8.929c-.154-.339-.476-.604-.84-.604-.349 0-.685.294-.685.677 0 .604.755.869 1.525 1.238.77.368 1.511.868 1.511 1.958a2.253 2.253 0 0 1-2.252 2.282c-.952 0-1.917-.574-2.268-1.546l1.078-.516c.266.516.588.884 1.19.884.531 0 .993-.383.993-.972 0-.368-.168-.545-.462-.751l-1.231-.692c-.728-.412-1.259-.795-1.259-1.737 0-1.119.867-2.003 1.93-2.003.798 0 1.442.457 1.791 1.208l-1.021.574z"/><path clip-path="url(#b)" fill="none" stroke="#FFF" stroke-width=".12" stroke-miterlimit="10" d="M437.684 8.929c-.154-.339-.476-.604-.84-.604-.349 0-.685.294-.685.677 0 .604.755.869 1.525 1.238.77.368 1.511.868 1.511 1.958a2.253 2.253 0 0 1-2.252 2.282c-.952 0-1.917-.574-2.268-1.546l1.078-.516c.266.516.588.884 1.19.884.531 0 .993-.383.993-.972 0-.368-.168-.545-.462-.751l-1.231-.692c-.728-.412-1.259-.795-1.259-1.737 0-1.119.867-2.003 1.93-2.003.798 0 1.442.457 1.791 1.208l-1.021.574z"/><path clip-path="url(#b)" fill="#FFF" d="M441.18 11.02c.013 1.178.769 2.282 1.972 2.282.966 0 1.484-.515 1.959-1.34l1.064.633c-.615 1.194-1.763 1.885-3.036 1.885-2.001 0-3.218-1.59-3.218-3.622 0-2.12 1.077-3.711 3.189-3.711 2.085 0 3.065 1.62 3.065 3.667v.206h-4.995zm3.736-1.001c-.154-1.031-.798-1.724-1.806-1.724-.979 0-1.707.737-1.86 1.724h3.666z"/><path clip-path="url(#b)" fill="none" stroke="#FFF" stroke-width=".12" stroke-miterlimit="10" d="M441.18 11.02c.013 1.178.769 2.282 1.972 2.282.966 0 1.484-.515 1.959-1.34l1.064.633c-.615 1.194-1.763 1.885-3.036 1.885-2.001 0-3.218-1.59-3.218-3.622 0-2.12 1.077-3.711 3.189-3.711 2.085 0 3.065 1.62 3.065 3.667v.206h-4.995zm3.736-1.001c-.154-1.031-.798-1.724-1.806-1.724-.979 0-1.707.737-1.86 1.724h3.666z"/><path clip-path="url(#b)" fill="#FFF" d="M270.361 25.996l7.919 8.732v-8.202h1.315v11.559l-7.919-8.732v8.276h-1.315z"/><path clip-path="url(#b)" fill="none" stroke="#FFF" stroke-width=".12" stroke-miterlimit="10" d="M270.361 25.996l7.919 8.732v-8.202h1.315v11.559l-7.919-8.732v8.276h-1.315z"/><path clip-path="url(#b)" fill="#FFF" d="M287.735 34.198c0 2.076-1.539 3.666-3.498 3.666-1.959 0-3.498-1.59-3.498-3.666 0-2.076 1.539-3.667 3.498-3.667 1.959 0 3.498 1.591 3.498 3.667m-5.737 0c0 1.296.993 2.4 2.239 2.4 1.245 0 2.239-1.104 2.239-2.4 0-1.311-.994-2.4-2.239-2.4-1.246 0-2.239 1.089-2.239 2.4"/><path clip-path="url(#b)" fill="none" stroke="#FFF" stroke-width=".12" stroke-miterlimit="10" d="M287.735 34.198c0 2.076-1.539 3.666-3.498 3.666-1.959 0-3.498-1.59-3.498-3.666 0-2.076 1.539-3.667 3.498-3.667 1.959 0 3.498 1.591 3.498 3.667zm-5.737 0c0 1.296.993 2.4 2.239 2.4 1.245 0 2.239-1.104 2.239-2.4 0-1.311-.994-2.4-2.239-2.4-1.246 0-2.239 1.089-2.239 2.4z"/><path clip-path="url(#b)" fill="#FFF" d="M290.139 31.665h.028c.392-.736 1.175-1.134 1.973-1.134 1.847 0 2.322 1.311 2.322 2.989v4.109h-1.259v-3.946c0-1.178-.154-1.973-1.441-1.973-1.623 0-1.623 1.502-1.623 2.753v3.166h-1.26v-6.892h1.26v.928z"/><path clip-path="url(#b)" fill="none" stroke="#FFF" stroke-width=".12" stroke-miterlimit="10" d="M290.139 31.665h.028c.392-.736 1.175-1.134 1.973-1.134 1.847 0 2.322 1.311 2.322 2.989v4.109h-1.259v-3.946c0-1.178-.154-1.973-1.441-1.973-1.623 0-1.623 1.502-1.623 2.753v3.166h-1.26v-6.892h1.26v.928z"/><path clip-path="url(#b)" fill="#FFF" d="M296.125 32.358h3.064v1.104h-3.064z"/><path clip-path="url(#b)" fill="none" stroke="#FFF" stroke-width=".12" stroke-miterlimit="10" d="M296.125 32.358h3.064v1.104h-3.064z"/><path clip-path="url(#b)" fill="#FFF" d="M307.205 31.003v-4.477h1.314v11.103h-1.314v-5.33h-5.023v5.33h-1.316V26.526h1.316v4.477z"/><path clip-path="url(#b)" fill="none" stroke="#FFF" stroke-width=".12" stroke-miterlimit="10" d="M307.205 31.003v-4.477h1.314v11.103h-1.314v-5.33h-5.023v5.33h-1.316V26.526h1.316v4.477z"/><path clip-path="url(#b)" fill="#FFF" d="M316.421 37.629h-1.258v-1.075h-.029c-.504.78-1.287 1.311-2.224 1.311-2.001 0-3.134-1.752-3.134-3.726 0-1.885 1.188-3.607 3.092-3.607.966 0 1.749.53 2.266 1.355h.029v-1.149h1.258v6.891zm-1.188-3.445c0-1.34-.771-2.474-2.127-2.474-1.302 0-2.071 1.193-2.071 2.474 0 1.296.741 2.503 2.071 2.503 1.371 0 2.127-1.149 2.127-2.503"/><path clip-path="url(#b)" fill="none" stroke="#FFF" stroke-width=".12" stroke-miterlimit="10" d="M316.421 37.629h-1.258v-1.075h-.029c-.504.78-1.287 1.311-2.224 1.311-2.001 0-3.134-1.752-3.134-3.726 0-1.885 1.188-3.607 3.092-3.607.966 0 1.749.53 2.266 1.355h.029v-1.149h1.258v6.891zm-1.188-3.445c0-1.34-.771-2.474-2.127-2.474-1.302 0-2.071 1.193-2.071 2.474 0 1.296.741 2.503 2.071 2.503 1.371 0 2.127-1.149 2.127-2.503z"/><path clip-path="url(#b)" fill="#FFF" d="M323.919 36.392v1.237h-6.702l4.435-5.654h-3.68v-1.237h6.129l-4.436 5.654z"/><path clip-path="url(#b)" fill="none" stroke="#FFF" stroke-width=".12" stroke-miterlimit="10" d="M323.919 36.392v1.237h-6.702l4.435-5.654h-3.68v-1.237h6.129l-4.436 5.654z"/><path clip-path="url(#b)" fill="#FFF" d="M331.122 37.629h-1.258v-1.075h-.029c-.504.78-1.287 1.311-2.224 1.311-2.001 0-3.134-1.752-3.134-3.726 0-1.885 1.188-3.607 3.092-3.607.966 0 1.749.53 2.266 1.355h.029v-1.149h1.258v6.891zm-1.189-3.445c0-1.34-.77-2.474-2.126-2.474-1.302 0-2.071 1.193-2.071 2.474 0 1.296.741 2.503 2.071 2.503 1.371 0 2.126-1.149 2.126-2.503"/><path clip-path="url(#b)" fill="none" stroke="#FFF" stroke-width=".12" stroke-miterlimit="10" d="M331.122 37.629h-1.258v-1.075h-.029c-.504.78-1.287 1.311-2.224 1.311-2.001 0-3.134-1.752-3.134-3.726 0-1.885 1.188-3.607 3.092-3.607.966 0 1.749.53 2.266 1.355h.029v-1.149h1.258v6.891zm-1.189-3.445c0-1.34-.77-2.474-2.126-2.474-1.302 0-2.071 1.193-2.071 2.474 0 1.296.741 2.503 2.071 2.503 1.371 0 2.126-1.149 2.126-2.503z"/><path clip-path="url(#b)" fill="#FFF" d="M334.1 31.856h.042c.308-.81.951-1.325 1.791-1.325.363 0 .728.133 1.035.339l-.573 1.208c-.225-.207-.476-.281-.77-.281-1.357 0-1.525 1.326-1.525 2.445v3.386h-1.26v-6.891h1.26v1.119z"/><path clip-path="url(#b)" fill="none" stroke="#FFF" stroke-width=".12" stroke-miterlimit="10" d="M334.1 31.856h.042c.308-.81.951-1.325 1.791-1.325.363 0 .728.133 1.035.339l-.573 1.208c-.225-.207-.476-.281-.77-.281-1.357 0-1.525 1.326-1.525 2.445v3.386h-1.26v-6.891h1.26v1.119z"/><path clip-path="url(#b)" fill="#FFF" d="M342.549 36.554h-.029c-.504.78-1.3 1.311-2.224 1.311-2.015 0-3.134-1.752-3.134-3.726 0-1.885 1.188-3.607 3.078-3.607.98 0 1.763.53 2.28 1.355h.029v-7.039h1.258v12.781h-1.258v-1.075zm.069-2.37c0-1.34-.77-2.474-2.126-2.474-1.302 0-2.071 1.193-2.071 2.474 0 1.296.741 2.503 2.071 2.503 1.371 0 2.126-1.149 2.126-2.503"/><path clip-path="url(#b)" fill="none" stroke="#FFF" stroke-width=".12" stroke-miterlimit="10" d="M342.549 36.554h-.029c-.504.78-1.3 1.311-2.224 1.311-2.015 0-3.134-1.752-3.134-3.726 0-1.885 1.188-3.607 3.078-3.607.98 0 1.763.53 2.28 1.355h.029v-7.039h1.258v12.781h-1.258v-1.075zm.069-2.37c0-1.34-.77-2.474-2.126-2.474-1.302 0-2.071 1.193-2.071 2.474 0 1.296.741 2.503 2.071 2.503 1.371 0 2.126-1.149 2.126-2.503z"/><path clip-path="url(#b)" fill="#FFF" d="M351.85 34.198c0 2.076-1.539 3.666-3.498 3.666-1.959 0-3.498-1.59-3.498-3.666 0-2.076 1.539-3.667 3.498-3.667 1.959 0 3.498 1.591 3.498 3.667m-5.737 0c0 1.296.993 2.4 2.239 2.4 1.245 0 2.239-1.104 2.239-2.4 0-1.311-.994-2.4-2.239-2.4-1.246 0-2.239 1.089-2.239 2.4"/><path clip-path="url(#b)" fill="none" stroke="#FFF" stroke-width=".12" stroke-miterlimit="10" d="M351.85 34.198c0 2.076-1.539 3.666-3.498 3.666-1.959 0-3.498-1.59-3.498-3.666 0-2.076 1.539-3.667 3.498-3.667 1.959 0 3.498 1.591 3.498 3.667zm-5.737 0c0 1.296.993 2.4 2.239 2.4 1.245 0 2.239-1.104 2.239-2.4 0-1.311-.994-2.4-2.239-2.4-1.246 0-2.239 1.089-2.239 2.4z"/><path clip-path="url(#b)" fill="#FFF" d="M354.198 30.737v3.814c0 1.105.266 2.077 1.511 2.077s1.51-.972 1.51-2.077v-3.814h1.26v3.961c0 1.885-.84 3.166-2.77 3.166-1.931 0-2.771-1.281-2.771-3.166v-3.961h1.26z"/><path clip-path="url(#b)" fill="none" stroke="#FFF" stroke-width=".12" stroke-miterlimit="10" d="M354.198 30.737v3.814c0 1.105.266 2.077 1.511 2.077s1.51-.972 1.51-2.077v-3.814h1.26v3.961c0 1.885-.84 3.166-2.77 3.166-1.931 0-2.771-1.281-2.771-3.166v-3.961h1.26z"/><path clip-path="url(#b)" fill="#FFF" d="M362.786 32.313c-.154-.339-.476-.604-.84-.604-.349 0-.685.294-.685.677 0 .604.755.869 1.525 1.238.77.368 1.511.868 1.511 1.958a2.253 2.253 0 0 1-2.252 2.282c-.952 0-1.917-.574-2.268-1.546l1.078-.516c.266.516.588.884 1.19.884.531 0 .993-.383.993-.972 0-.368-.168-.545-.462-.751l-1.231-.692c-.728-.412-1.259-.795-1.259-1.737 0-1.119.867-2.003 1.93-2.003.798 0 1.442.457 1.791 1.208l-1.021.574z"/><path clip-path="url(#b)" fill="none" stroke="#FFF" stroke-width=".12" stroke-miterlimit="10" d="M362.786 32.313c-.154-.339-.476-.604-.84-.604-.349 0-.685.294-.685.677 0 .604.755.869 1.525 1.238.77.368 1.511.868 1.511 1.958a2.253 2.253 0 0 1-2.252 2.282c-.952 0-1.917-.574-2.268-1.546l1.078-.516c.266.516.588.884 1.19.884.531 0 .993-.383.993-.972 0-.368-.168-.545-.462-.751l-1.231-.692c-.728-.412-1.259-.795-1.259-1.737 0-1.119.867-2.003 1.93-2.003.798 0 1.442.457 1.791 1.208l-1.021.574z"/><path clip-path="url(#b)" fill="#FFF" d="M368.045 36.333l-1.86 3.932-.77-.339 1.539-4.049z"/><path clip-path="url(#b)" fill="none" stroke="#FFF" stroke-width=".12" stroke-miterlimit="10" d="M368.045 36.333l-1.86 3.932-.77-.339 1.539-4.049z"/><path clip-path="url(#b)" fill="#FFF" d="M384.062 32.078c0 3.298-2.476 5.786-5.526 5.786-3.051 0-5.527-2.488-5.527-5.786 0-3.181 2.505-5.787 5.527-5.787 3.023 0 5.526 2.606 5.526 5.787m-1.314 0c0-2.444-1.735-4.491-4.212-4.491-2.476 0-4.212 2.047-4.212 4.491 0 2.532 1.931 4.49 4.212 4.49 2.28 0 4.212-1.958 4.212-4.49"/><path clip-path="url(#b)" fill="none" stroke="#FFF" stroke-width=".12" stroke-miterlimit="10" d="M384.062 32.078c0 3.298-2.476 5.786-5.526 5.786-3.051 0-5.527-2.488-5.527-5.786 0-3.181 2.505-5.787 5.527-5.787 3.023 0 5.526 2.606 5.526 5.787zm-1.314 0c0-2.444-1.735-4.491-4.212-4.491-2.476 0-4.212 2.047-4.212 4.491 0 2.532 1.931 4.49 4.212 4.49 2.28 0 4.212-1.958 4.212-4.49z"/><path clip-path="url(#b)" fill="#FFF" d="M386.535 31.856h.042c.308-.81.951-1.325 1.791-1.325.363 0 .728.133 1.035.339l-.573 1.208c-.225-.207-.476-.281-.77-.281-1.357 0-1.525 1.326-1.525 2.445v3.386h-1.26v-6.891h1.26v1.119z"/><path clip-path="url(#b)" fill="none" stroke="#FFF" stroke-width=".12" stroke-miterlimit="10" d="M386.535 31.856h.042c.308-.81.951-1.325 1.791-1.325.363 0 .728.133 1.035.339l-.573 1.208c-.225-.207-.476-.281-.77-.281-1.357 0-1.525 1.326-1.525 2.445v3.386h-1.26v-6.891h1.26v1.119z"/><path clip-path="url(#b)" fill="#FFF" d="M396.229 37.497c0 2.371-.643 4.079-3.19 4.079-1.818 0-3.134-1.178-3.162-3.122h1.26c0 1.237.811 1.944 1.959 1.944 1.552 0 1.875-1.119 1.875-2.533v-1.311h-.029c-.504.78-1.301 1.311-2.224 1.311-2.016 0-3.135-1.752-3.135-3.726 0-1.885 1.189-3.607 3.078-3.607.98 0 1.764.53 2.281 1.384h.029v-1.178h1.258v6.759zm-1.189-3.313c0-1.34-.77-2.474-2.127-2.474-1.301 0-2.07 1.193-2.07 2.474 0 1.296.741 2.503 2.07 2.503 1.371 0 2.127-1.149 2.127-2.503"/><path clip-path="url(#b)" fill="none" stroke="#FFF" stroke-width=".12" stroke-miterlimit="10" d="M396.229 37.497c0 2.371-.643 4.079-3.19 4.079-1.818 0-3.134-1.178-3.162-3.122h1.26c0 1.237.811 1.944 1.959 1.944 1.552 0 1.875-1.119 1.875-2.533v-1.311h-.029c-.504.78-1.301 1.311-2.224 1.311-2.016 0-3.135-1.752-3.135-3.726 0-1.885 1.189-3.607 3.078-3.607.98 0 1.764.53 2.281 1.384h.029v-1.178h1.258v6.759zm-1.189-3.313c0-1.34-.77-2.474-2.127-2.474-1.301 0-2.07 1.193-2.07 2.474 0 1.296.741 2.503 2.07 2.503 1.371 0 2.127-1.149 2.127-2.503z"/><path clip-path="url(#b)" fill="#FFF" d="M404.005 37.629h-1.258v-1.075h-.029c-.504.78-1.287 1.311-2.224 1.311-2.001 0-3.134-1.752-3.134-3.726 0-1.885 1.188-3.607 3.092-3.607.966 0 1.749.53 2.266 1.355h.029v-1.149h1.258v6.891zm-1.188-3.445c0-1.34-.771-2.474-2.127-2.474-1.302 0-2.071 1.193-2.071 2.474 0 1.296.741 2.503 2.071 2.503 1.371 0 2.127-1.149 2.127-2.503"/><path clip-path="url(#b)" fill="none" stroke="#FFF" stroke-width=".12" stroke-miterlimit="10" d="M404.005 37.629h-1.258v-1.075h-.029c-.504.78-1.287 1.311-2.224 1.311-2.001 0-3.134-1.752-3.134-3.726 0-1.885 1.188-3.607 3.092-3.607.966 0 1.749.53 2.266 1.355h.029v-1.149h1.258v6.891zm-1.188-3.445c0-1.34-.771-2.474-2.127-2.474-1.302 0-2.071 1.193-2.071 2.474 0 1.296.741 2.503 2.071 2.503 1.371 0 2.127-1.149 2.127-2.503z"/><path clip-path="url(#b)" fill="#FFF" d="M406.899 31.665h.028c.392-.736 1.175-1.134 1.973-1.134 1.847 0 2.322 1.311 2.322 2.989v4.109h-1.259v-3.946c0-1.178-.154-1.973-1.441-1.973-1.623 0-1.623 1.502-1.623 2.753v3.166h-1.26v-6.892h1.26v.928z"/><path clip-path="url(#b)" fill="none" stroke="#FFF" stroke-width=".12" stroke-miterlimit="10" d="M406.899 31.665h.028c.392-.736 1.175-1.134 1.973-1.134 1.847 0 2.322 1.311 2.322 2.989v4.109h-1.259v-3.946c0-1.178-.154-1.973-1.441-1.973-1.623 0-1.623 1.502-1.623 2.753v3.166h-1.26v-6.892h1.26v.928z"/><path clip-path="url(#b)" fill="#FFF" d="M414.732 27.587c0 .5-.391.898-.867.898-.475 0-.868-.398-.868-.898 0-.515.393-.928.868-.928.476 0 .867.413.867.928m-.238 10.042h-1.259v-6.892h1.259v6.892z"/><path clip-path="url(#b)" fill="none" stroke="#FFF" stroke-width=".12" stroke-miterlimit="10" d="M414.732 27.587c0 .5-.391.898-.867.898-.475 0-.868-.398-.868-.898 0-.515.393-.928.868-.928.476 0 .867.413.867.928zm-.238 10.042h-1.259v-6.892h1.259v6.892z"/><path clip-path="url(#b)" fill="#FFF" d="M421.321 32.696c-.504-.604-1.119-.928-1.875-.928-1.231 0-2.183 1.149-2.183 2.415 0 1.413.938 2.445 2.267 2.445.728 0 1.315-.354 1.791-.913v1.693c-.573.324-1.147.456-1.805.456-1.93 0-3.511-1.561-3.511-3.622 0-2.135 1.566-3.711 3.582-3.711.587 0 1.23.147 1.734.457v1.708z"/><path clip-path="url(#b)" fill="none" stroke="#FFF" stroke-width=".12" stroke-miterlimit="10" d="M421.321 32.696c-.504-.604-1.119-.928-1.875-.928-1.231 0-2.183 1.149-2.183 2.415 0 1.413.938 2.445 2.267 2.445.728 0 1.315-.354 1.791-.913v1.693c-.573.324-1.147.456-1.805.456-1.93 0-3.511-1.561-3.511-3.622 0-2.135 1.566-3.711 3.582-3.711.587 0 1.23.147 1.734.457v1.708z"/><path clip-path="url(#b)" fill="#FFF" d="M428.649 30.296h-.028l-1.232 7.333h-1.357l2.155-11.573 3.624 8.746 3.624-8.746 2.154 11.573h-1.357l-1.23-7.333h-.029l-3.162 7.568z"/><path clip-path="url(#b)" fill="none" stroke="#FFF" stroke-width=".12" stroke-miterlimit="10" d="M428.649 30.296h-.028l-1.232 7.333h-1.357l2.155-11.573 3.624 8.746 3.624-8.746 2.154 11.573h-1.357l-1.23-7.333h-.029l-3.162 7.568z"/><path clip-path="url(#b)" fill="#FFF" d="M444.762 37.629h-1.258v-1.075h-.029c-.504.78-1.287 1.311-2.224 1.311-2.001 0-3.134-1.752-3.134-3.726 0-1.885 1.188-3.607 3.092-3.607.966 0 1.749.53 2.266 1.355h.029v-1.149h1.258v6.891zm-1.189-3.445c0-1.34-.77-2.474-2.126-2.474-1.302 0-2.071 1.193-2.071 2.474 0 1.296.741 2.503 2.071 2.503 1.371 0 2.126-1.149 2.126-2.503"/><path clip-path="url(#b)" fill="none" stroke="#FFF" stroke-width=".12" stroke-miterlimit="10" d="M444.762 37.629h-1.258v-1.075h-.029c-.504.78-1.287 1.311-2.224 1.311-2.001 0-3.134-1.752-3.134-3.726 0-1.885 1.188-3.607 3.092-3.607.966 0 1.749.53 2.266 1.355h.029v-1.149h1.258v6.891zm-1.189-3.445c0-1.34-.77-2.474-2.126-2.474-1.302 0-2.071 1.193-2.071 2.474 0 1.296.741 2.503 2.071 2.503 1.371 0 2.126-1.149 2.126-2.503z"/><path clip-path="url(#b)" fill="#FFF" d="M447.838 37.629h-1.259v-5.654h-.685v-1.238h.685v-2.635h1.259v2.635h1.231v1.238h-1.231z"/><path clip-path="url(#b)" fill="none" stroke="#FFF" stroke-width=".12" stroke-miterlimit="10" d="M447.838 37.629h-1.259v-5.654h-.685v-1.238h.685v-2.635h1.259v2.635h1.231v1.238h-1.231z"/><path clip-path="url(#b)" fill="#FFF" d="M450.509 34.404c.013 1.178.769 2.282 1.972 2.282.966 0 1.484-.515 1.959-1.34l1.064.633c-.615 1.194-1.763 1.885-3.036 1.885-2.001 0-3.218-1.59-3.218-3.622 0-2.12 1.077-3.711 3.189-3.711 2.085 0 3.065 1.62 3.065 3.667v.206h-4.995zm3.736-1.001c-.154-1.031-.798-1.724-1.806-1.724-.979 0-1.707.737-1.86 1.724h3.666z"/><path clip-path="url(#b)" fill="none" stroke="#FFF" stroke-width=".12" stroke-miterlimit="10" d="M450.509 34.404c.013 1.178.769 2.282 1.972 2.282.966 0 1.484-.515 1.959-1.34l1.064.633c-.615 1.194-1.763 1.885-3.036 1.885-2.001 0-3.218-1.59-3.218-3.622 0-2.12 1.077-3.711 3.189-3.711 2.085 0 3.065 1.62 3.065 3.667v.206h-4.995zm3.736-1.001c-.154-1.031-.798-1.724-1.806-1.724-.979 0-1.707.737-1.86 1.724h3.666z"/><path clip-path="url(#b)" fill="#FFF" d="M457.922 31.856h.042c.308-.81.951-1.325 1.791-1.325.363 0 .728.133 1.035.339l-.573 1.208c-.225-.207-.476-.281-.77-.281-1.357 0-1.525 1.326-1.525 2.445v3.386h-1.26v-6.891h1.26v1.119z"/><path clip-path="url(#b)" fill="none" stroke="#FFF" stroke-width=".12" stroke-miterlimit="10" d="M457.922 31.856h.042c.308-.81.951-1.325 1.791-1.325.363 0 .728.133 1.035.339l-.573 1.208c-.225-.207-.476-.281-.77-.281-1.357 0-1.525 1.326-1.525 2.445v3.386h-1.26v-6.891h1.26v1.119z"/><path clip-path="url(#b)" fill="#FFF" d="M463.265 27.587c0 .5-.392.898-.868.898-.475 0-.868-.398-.868-.898 0-.515.393-.928.868-.928.476 0 .868.413.868.928m-.239 10.042h-1.259v-6.892h1.259v6.892z"/><path clip-path="url(#b)" fill="none" stroke="#FFF" stroke-width=".12" stroke-miterlimit="10" d="M463.265 27.587c0 .5-.392.898-.868.898-.475 0-.868-.398-.868-.898 0-.515.393-.928.868-.928.476 0 .868.413.868.928zm-.239 10.042h-1.259v-6.892h1.259v6.892z"/><path clip-path="url(#b)" fill="#FFF" d="M471.182 37.629h-1.258v-1.075h-.029c-.504.78-1.287 1.311-2.224 1.311-2.001 0-3.134-1.752-3.134-3.726 0-1.885 1.188-3.607 3.092-3.607.966 0 1.749.53 2.266 1.355h.029v-1.149h1.258v6.891zm-1.189-3.445c0-1.34-.77-2.474-2.126-2.474-1.302 0-2.071 1.193-2.071 2.474 0 1.296.741 2.503 2.071 2.503 1.371 0 2.126-1.149 2.126-2.503"/><path clip-path="url(#b)" fill="none" stroke="#FFF" stroke-width=".12" stroke-miterlimit="10" d="M471.182 37.629h-1.258v-1.075h-.029c-.504.78-1.287 1.311-2.224 1.311-2.001 0-3.134-1.752-3.134-3.726 0-1.885 1.188-3.607 3.092-3.607.966 0 1.749.53 2.266 1.355h.029v-1.149h1.258v6.891zm-1.189-3.445c0-1.34-.77-2.474-2.126-2.474-1.302 0-2.071 1.193-2.071 2.474 0 1.296.741 2.503 2.071 2.503 1.371 0 2.126-1.149 2.126-2.503z"/><path clip-path="url(#b)" fill="#FFF" d="M472.873 24.848h1.259v12.781h-1.259z"/><path clip-path="url(#b)" fill="none" stroke="#FFF" stroke-width=".12" stroke-miterlimit="10" d="M472.873 24.848h1.259v12.781h-1.259z"/><path clip-path="url(#b)" fill="#FFF" d="M272.158 44.586c-.718 1.583-.98 3.598-.98 5.349s.262 3.766.98 5.349l-.844.659c-.843-1.738-1.185-4.077-1.185-6.008 0-1.943.342-4.282 1.185-6.009l.844.66z"/><path clip-path="url(#b)" fill="none" stroke="#FFF" stroke-width=".12" stroke-miterlimit="10" d="M272.158 44.586c-.718 1.583-.98 3.598-.98 5.349s.262 3.766.98 5.349l-.844.659c-.843-1.738-1.185-4.077-1.185-6.008 0-1.943.342-4.282 1.185-6.009l.844.66z"/><path clip-path="url(#b)" fill="#FFF" d="M275.658 49.299c-.125-.275-.388-.491-.684-.491a.565.565 0 0 0-.558.552c0 .491.615.707 1.242 1.007.627.3 1.231.707 1.231 1.595a1.834 1.834 0 0 1-1.835 1.858c-.775 0-1.562-.466-1.846-1.258l.877-.42c.217.42.478.72.969.72.433 0 .809-.312.809-.792 0-.3-.137-.444-.376-.612l-1.003-.563c-.593-.336-1.026-.648-1.026-1.415 0-.912.707-1.632 1.573-1.632.649 0 1.174.372 1.459.984l-.832.467z"/><path clip-path="url(#b)" fill="none" stroke="#FFF" stroke-width=".12" stroke-miterlimit="10" d="M275.658 49.299c-.125-.275-.388-.491-.684-.491a.565.565 0 0 0-.558.552c0 .491.615.707 1.242 1.007.627.3 1.231.707 1.231 1.595a1.834 1.834 0 0 1-1.835 1.858c-.775 0-1.562-.466-1.846-1.258l.877-.42c.217.42.478.72.969.72.433 0 .809-.312.809-.792 0-.3-.137-.444-.376-.612l-1.003-.563c-.593-.336-1.026-.648-1.026-1.415 0-.912.707-1.632 1.573-1.632.649 0 1.174.372 1.459.984l-.832.467z"/><path clip-path="url(#b)" fill="#FFF" d="M282.898 53.629h-1.027v-.876h-.022c-.41.635-1.049 1.067-1.813 1.067-1.629 0-2.553-1.427-2.553-3.034 0-1.535.969-2.939 2.519-2.939.786 0 1.425.433 1.847 1.104h.022v-.936h1.027v5.614zm-.969-2.807c0-1.091-.627-2.015-1.733-2.015-1.06 0-1.687.972-1.687 2.015 0 1.056.605 2.039 1.687 2.039 1.117 0 1.733-.935 1.733-2.039"/><path clip-path="url(#b)" fill="none" stroke="#FFF" stroke-width=".12" stroke-miterlimit="10" d="M282.898 53.629h-1.027v-.876h-.022c-.41.635-1.049 1.067-1.813 1.067-1.629 0-2.553-1.427-2.553-3.034 0-1.535.969-2.939 2.519-2.939.786 0 1.425.433 1.847 1.104h.022v-.936h1.027v5.614zm-.969-2.807c0-1.091-.627-2.015-1.733-2.015-1.06 0-1.687.972-1.687 2.015 0 1.056.605 2.039 1.687 2.039 1.117 0 1.733-.935 1.733-2.039z"/><path clip-path="url(#b)" fill="#FFF" d="M286.876 44.31c-.206-.096-.468-.228-.685-.228-.729 0-.729.972-.729 1.524v2.41h1.414v1.008h-1.414v4.605h-1.025v-4.605h-.468v-1.008h.468v-2.734c0-1.223.398-2.207 1.72-2.207.251 0 .49.048.719.144v1.091z"/><path clip-path="url(#b)" fill="none" stroke="#FFF" stroke-width=".12" stroke-miterlimit="10" d="M286.876 44.31c-.206-.096-.468-.228-.685-.228-.729 0-.729.972-.729 1.524v2.41h1.414v1.008h-1.414v4.605h-1.025v-4.605h-.468v-1.008h.468v-2.734c0-1.223.398-2.207 1.72-2.207.251 0 .49.048.719.144v1.091z"/><path clip-path="url(#b)" fill="#FFF" d="M287.981 51.002c.012.96.627 1.86 1.607 1.86.787 0 1.208-.42 1.596-1.092l.866.516c-.502.971-1.436 1.535-2.473 1.535-1.63 0-2.622-1.295-2.622-2.95 0-1.727.878-3.023 2.599-3.023 1.699 0 2.496 1.319 2.496 2.986v.168h-4.069zm3.043-.815c-.125-.839-.649-1.403-1.47-1.403-.798 0-1.39.599-1.516 1.403h2.986z"/><path clip-path="url(#b)" fill="none" stroke="#FFF" stroke-width=".12" stroke-miterlimit="10" d="M287.981 51.002c.012.96.627 1.86 1.607 1.86.787 0 1.208-.42 1.596-1.092l.866.516c-.502.971-1.436 1.535-2.473 1.535-1.63 0-2.622-1.295-2.622-2.95 0-1.727.878-3.023 2.599-3.023 1.699 0 2.496 1.319 2.496 2.986v.168h-4.069zm3.043-.815c-.125-.839-.649-1.403-1.47-1.403-.798 0-1.39.599-1.516 1.403h2.986z"/><path clip-path="url(#b)" fill="#FFF" d="M294.023 48.928h.034c.251-.66.776-1.08 1.459-1.08.297 0 .593.108.844.276l-.468.984a.87.87 0 0 0-.627-.228c-1.105 0-1.242 1.079-1.242 1.99v2.759h-1.025v-5.613h1.025v.912z"/><path clip-path="url(#b)" fill="none" stroke="#FFF" stroke-width=".12" stroke-miterlimit="10" d="M294.023 48.928h.034c.251-.66.776-1.08 1.459-1.08.297 0 .593.108.844.276l-.468.984a.87.87 0 0 0-.627-.228c-1.105 0-1.242 1.079-1.242 1.99v2.759h-1.025v-5.613h1.025v.912z"/><path clip-path="url(#b)" fill="#FFF" d="M301.399 53.629h-1.026v-4.605h-.559v-1.008h.559v-2.147h1.026v2.147h1.003v1.008h-1.003z"/><path clip-path="url(#b)" fill="none" stroke="#FFF" stroke-width=".12" stroke-miterlimit="10" d="M301.399 53.629h-1.026v-4.605h-.559v-1.008h.559v-2.147h1.026v2.147h1.003v1.008h-1.003z"/><path clip-path="url(#b)" fill="#FFF" d="M303.987 43.219v5.553h.022c.32-.6.958-.924 1.608-.924 1.505 0 1.892 1.067 1.892 2.435v3.346h-1.026v-3.214c0-.96-.125-1.607-1.174-1.607-1.322 0-1.322 1.223-1.322 2.243v2.578h-1.025v-10.41h1.025z"/><path clip-path="url(#b)" fill="none" stroke="#FFF" stroke-width=".12" stroke-miterlimit="10" d="M303.987 43.219v5.553h.022c.32-.6.958-.924 1.608-.924 1.505 0 1.892 1.067 1.892 2.435v3.346h-1.026v-3.214c0-.96-.125-1.607-1.174-1.607-1.322 0-1.322 1.223-1.322 2.243v2.578h-1.025v-10.41h1.025z"/><path clip-path="url(#b)" fill="#FFF" d="M313.928 53.629h-1.027v-.876h-.022c-.41.635-1.049 1.067-1.813 1.067-1.629 0-2.553-1.427-2.553-3.034 0-1.535.969-2.939 2.519-2.939.786 0 1.425.433 1.847 1.104h.022v-.936h1.027v5.614zm-.97-2.807c0-1.091-.626-2.015-1.732-2.015-1.06 0-1.687.972-1.687 2.015 0 1.056.605 2.039 1.687 2.039 1.117 0 1.732-.935 1.732-2.039"/><path clip-path="url(#b)" fill="none" stroke="#FFF" stroke-width=".12" stroke-miterlimit="10" d="M313.928 53.629h-1.027v-.876h-.022c-.41.635-1.049 1.067-1.813 1.067-1.629 0-2.553-1.427-2.553-3.034 0-1.535.969-2.939 2.519-2.939.786 0 1.425.433 1.847 1.104h.022v-.936h1.027v5.614zm-.97-2.807c0-1.091-.626-2.015-1.732-2.015-1.06 0-1.687.972-1.687 2.015 0 1.056.605 2.039 1.687 2.039 1.117 0 1.732-.935 1.732-2.039z"/><path clip-path="url(#b)" fill="#FFF" d="M316.288 48.772h.022c.32-.6.958-.924 1.608-.924 1.505 0 1.892 1.068 1.892 2.436v3.345h-1.026v-3.213c0-.96-.125-1.608-1.174-1.608-1.322 0-1.322 1.224-1.322 2.243v2.578h-1.025v-5.613h1.025v.756z"/><path clip-path="url(#b)" fill="none" stroke="#FFF" stroke-width=".12" stroke-miterlimit="10" d="M316.288 48.772h.022c.32-.6.958-.924 1.608-.924 1.505 0 1.892 1.068 1.892 2.436v3.345h-1.026v-3.213c0-.96-.125-1.608-1.174-1.608-1.322 0-1.322 1.224-1.322 2.243v2.578h-1.025v-5.613h1.025v.756z"/><path clip-path="url(#b)" fill="#FFF" d="M328.44 49.611c-.41-.492-.912-.756-1.527-.756-1.003 0-1.779.936-1.779 1.967 0 1.151.764 1.991 1.847 1.991.593 0 1.071-.288 1.459-.744v1.38a2.865 2.865 0 0 1-1.471.371c-1.573 0-2.861-1.271-2.861-2.95 0-1.738 1.277-3.023 2.918-3.023.479 0 1.004.12 1.414.372v1.392z"/><path clip-path="url(#b)" fill="none" stroke="#FFF" stroke-width=".12" stroke-miterlimit="10" d="M328.44 49.611c-.41-.492-.912-.756-1.527-.756-1.003 0-1.779.936-1.779 1.967 0 1.151.764 1.991 1.847 1.991.593 0 1.071-.288 1.459-.744v1.38a2.865 2.865 0 0 1-1.471.371c-1.573 0-2.861-1.271-2.861-2.95 0-1.738 1.277-3.023 2.918-3.023.479 0 1.004.12 1.414.372v1.392z"/><path clip-path="url(#b)" fill="#FFF" d="M334.766 50.834c0 1.691-1.254 2.986-2.85 2.986-1.595 0-2.849-1.295-2.849-2.986 0-1.69 1.254-2.986 2.849-2.986 1.596 0 2.85 1.296 2.85 2.986m-4.673 0c0 1.056.81 1.955 1.823 1.955 1.015 0 1.824-.899 1.824-1.955 0-1.067-.809-1.954-1.824-1.954-1.013 0-1.823.887-1.823 1.954"/><path clip-path="url(#b)" fill="none" stroke="#FFF" stroke-width=".12" stroke-miterlimit="10" d="M334.766 50.834c0 1.691-1.254 2.986-2.85 2.986-1.595 0-2.849-1.295-2.849-2.986 0-1.69 1.254-2.986 2.849-2.986 1.596 0 2.85 1.296 2.85 2.986zm-4.673 0c0 1.056.81 1.955 1.823 1.955 1.015 0 1.824-.899 1.824-1.955 0-1.067-.809-1.954-1.824-1.954-1.013 0-1.823.887-1.823 1.954z"/><path clip-path="url(#b)" fill="#FFF" d="M336.693 48.724h.022c.297-.492.832-.876 1.415-.876.695 0 1.196.372 1.538.996.331-.599.969-.996 1.641-.996 1.403 0 1.767 1.151 1.767 2.423v3.358h-1.026v-3.178c0-.719-.09-1.643-.992-1.643-1.094 0-1.174 1.199-1.174 2.062v2.759h-1.025v-2.974c0-.732-.034-1.847-.98-1.847-1.095 0-1.186 1.187-1.186 2.062v2.759h-1.025v-5.613h1.025v.708z"/><path clip-path="url(#b)" fill="none" stroke="#FFF" stroke-width=".12" stroke-miterlimit="10" d="M336.693 48.724h.022c.297-.492.832-.876 1.415-.876.695 0 1.196.372 1.538.996.331-.599.969-.996 1.641-.996 1.403 0 1.767 1.151 1.767 2.423v3.358h-1.026v-3.178c0-.719-.09-1.643-.992-1.643-1.094 0-1.174 1.199-1.174 2.062v2.759h-1.025v-2.974c0-.732-.034-1.847-.98-1.847-1.095 0-1.186 1.187-1.186 2.062v2.759h-1.025v-5.613h1.025v.708z"/><path clip-path="url(#b)" fill="#FFF" d="M345.392 48.951h.023c.422-.671 1.06-1.104 1.858-1.104 1.539 0 2.507 1.404 2.507 2.939 0 1.607-.912 3.034-2.552 3.034-.753 0-1.403-.432-1.813-1.067h-.023v4.09h-1.026v-8.828h1.026v.936zm3.363 1.871c0-1.091-.627-2.015-1.732-2.015-1.061 0-1.688.972-1.688 2.015 0 1.056.605 2.039 1.688 2.039 1.116 0 1.732-.935 1.732-2.039"/><path clip-path="url(#b)" fill="none" stroke="#FFF" stroke-width=".12" stroke-miterlimit="10" d="M345.392 48.951h.023c.422-.671 1.06-1.104 1.858-1.104 1.539 0 2.507 1.404 2.507 2.939 0 1.607-.912 3.034-2.552 3.034-.753 0-1.403-.432-1.813-1.067h-.023v4.09h-1.026v-8.828h1.026v.936zm3.363 1.871c0-1.091-.627-2.015-1.732-2.015-1.061 0-1.688.972-1.688 2.015 0 1.056.605 2.039 1.688 2.039 1.116 0 1.732-.935 1.732-2.039z"/><path clip-path="url(#b)" fill="#FFF" d="M351.399 51.002c.012.96.627 1.86 1.607 1.86.787 0 1.208-.42 1.596-1.092l.866.516c-.502.971-1.436 1.535-2.473 1.535-1.63 0-2.622-1.295-2.622-2.95 0-1.727.878-3.023 2.599-3.023 1.699 0 2.496 1.319 2.496 2.986v.168h-4.069zm3.043-.815c-.125-.839-.649-1.403-1.47-1.403-.798 0-1.39.599-1.516 1.403h2.986z"/><path clip-path="url(#b)" fill="none" stroke="#FFF" stroke-width=".12" stroke-miterlimit="10" d="M351.399 51.002c.012.96.627 1.86 1.607 1.86.787 0 1.208-.42 1.596-1.092l.866.516c-.502.971-1.436 1.535-2.473 1.535-1.63 0-2.622-1.295-2.622-2.95 0-1.727.878-3.023 2.599-3.023 1.699 0 2.496 1.319 2.496 2.986v.168h-4.069zm3.043-.815c-.125-.839-.649-1.403-1.47-1.403-.798 0-1.39.599-1.516 1.403h2.986z"/><path clip-path="url(#b)" fill="#FFF" d="M357.522 53.629h-1.026v-4.605h-.56v-1.008h.56v-2.147h1.026v2.147h1.003v1.008h-1.003z"/><path clip-path="url(#b)" fill="none" stroke="#FFF" stroke-width=".12" stroke-miterlimit="10" d="M357.522 53.629h-1.026v-4.605h-.56v-1.008h.56v-2.147h1.026v2.147h1.003v1.008h-1.003z"/><path clip-path="url(#b)" fill="#FFF" d="M360.531 45.449a.718.718 0 0 1-.707.732.718.718 0 0 1-.706-.732c0-.419.319-.755.706-.755.388 0 .707.336.707.755m-.193 8.18h-1.026v-5.613h1.026v5.613z"/><path clip-path="url(#b)" fill="none" stroke="#FFF" stroke-width=".12" stroke-miterlimit="10" d="M360.531 45.449a.718.718 0 0 1-.707.732.718.718 0 0 1-.706-.732c0-.419.319-.755.706-.755.388 0 .707.336.707.755zm-.193 8.18h-1.026v-5.613h1.026v5.613z"/><path clip-path="url(#b)" fill="#FFF" d="M363.005 48.772h.022c.32-.6.958-.924 1.608-.924 1.505 0 1.892 1.068 1.892 2.436v3.345h-1.026v-3.213c0-.96-.125-1.608-1.174-1.608-1.322 0-1.322 1.224-1.322 2.243v2.578h-1.025v-5.613h1.025v.756z"/><path clip-path="url(#b)" fill="none" stroke="#FFF" stroke-width=".12" stroke-miterlimit="10" d="M363.005 48.772h.022c.32-.6.958-.924 1.608-.924 1.505 0 1.892 1.068 1.892 2.436v3.345h-1.026v-3.213c0-.96-.125-1.608-1.174-1.608-1.322 0-1.322 1.224-1.322 2.243v2.578h-1.025v-5.613h1.025v.756z"/><path clip-path="url(#b)" fill="#FFF" d="M372.934 53.52c0 1.932-.525 3.323-2.599 3.323-1.482 0-2.554-.959-2.576-2.542h1.025c0 1.006.661 1.583 1.596 1.583 1.266 0 1.527-.912 1.527-2.064v-1.067h-.022c-.41.635-1.06 1.067-1.813 1.067-1.64 0-2.552-1.427-2.552-3.034 0-1.535.968-2.939 2.508-2.939.797 0 1.435.433 1.857 1.128h.022v-.96h1.027v5.505zm-.969-2.698c0-1.091-.627-2.015-1.732-2.015-1.061 0-1.688.972-1.688 2.015 0 1.056.605 2.039 1.688 2.039 1.117 0 1.732-.935 1.732-2.039"/><path clip-path="url(#b)" fill="none" stroke="#FFF" stroke-width=".12" stroke-miterlimit="10" d="M372.934 53.52c0 1.932-.525 3.323-2.599 3.323-1.482 0-2.554-.959-2.576-2.542h1.025c0 1.006.661 1.583 1.596 1.583 1.266 0 1.527-.912 1.527-2.064v-1.067h-.022c-.41.635-1.06 1.067-1.813 1.067-1.64 0-2.552-1.427-2.552-3.034 0-1.535.968-2.939 2.508-2.939.797 0 1.435.433 1.857 1.128h.022v-.96h1.027v5.505zm-.969-2.698c0-1.091-.627-2.015-1.732-2.015-1.061 0-1.688.972-1.688 2.015 0 1.056.605 2.039 1.688 2.039 1.117 0 1.732-.935 1.732-2.039z"/><path clip-path="url(#b)" fill="#FFF" d="M378.509 48.951h.023c.422-.671 1.06-1.104 1.858-1.104 1.539 0 2.507 1.404 2.507 2.939 0 1.607-.912 3.034-2.552 3.034-.753 0-1.403-.432-1.813-1.067h-.023v4.09h-1.026v-8.828h1.026v.936zm3.363 1.871c0-1.091-.627-2.015-1.732-2.015-1.061 0-1.688.972-1.688 2.015 0 1.056.605 2.039 1.688 2.039 1.116 0 1.732-.935 1.732-2.039"/><path clip-path="url(#b)" fill="none" stroke="#FFF" stroke-width=".12" stroke-miterlimit="10" d="M378.509 48.951h.023c.422-.671 1.06-1.104 1.858-1.104 1.539 0 2.507 1.404 2.507 2.939 0 1.607-.912 3.034-2.552 3.034-.753 0-1.403-.432-1.813-1.067h-.023v4.09h-1.026v-8.828h1.026v.936zm3.363 1.871c0-1.091-.627-2.015-1.732-2.015-1.061 0-1.688.972-1.688 2.015 0 1.056.605 2.039 1.688 2.039 1.116 0 1.732-.935 1.732-2.039z"/><path clip-path="url(#b)" fill="#FFF" d="M384.995 48.928h.034c.251-.66.776-1.08 1.459-1.08.297 0 .593.108.844.276l-.468.984a.868.868 0 0 0-.627-.228c-1.105 0-1.242 1.079-1.242 1.99v2.759h-1.025v-5.613h1.025v.912z"/><path clip-path="url(#b)" fill="none" stroke="#FFF" stroke-width=".12" stroke-miterlimit="10" d="M384.995 48.928h.034c.251-.66.776-1.08 1.459-1.08.297 0 .593.108.844.276l-.468.984a.868.868 0 0 0-.627-.228c-1.105 0-1.242 1.079-1.242 1.99v2.759h-1.025v-5.613h1.025v.912z"/><path clip-path="url(#b)" fill="#FFF" d="M393.122 50.834c0 1.691-1.254 2.986-2.85 2.986-1.595 0-2.849-1.295-2.849-2.986 0-1.69 1.254-2.986 2.849-2.986 1.596 0 2.85 1.296 2.85 2.986m-4.673 0c0 1.056.81 1.955 1.823 1.955 1.015 0 1.824-.899 1.824-1.955 0-1.067-.809-1.954-1.824-1.954-1.013 0-1.823.887-1.823 1.954"/><path clip-path="url(#b)" fill="none" stroke="#FFF" stroke-width=".12" stroke-miterlimit="10" d="M393.122 50.834c0 1.691-1.254 2.986-2.85 2.986-1.595 0-2.849-1.295-2.849-2.986 0-1.69 1.254-2.986 2.849-2.986 1.596 0 2.85 1.296 2.85 2.986zm-4.673 0c0 1.056.81 1.955 1.823 1.955 1.015 0 1.824-.899 1.824-1.955 0-1.067-.809-1.954-1.824-1.954-1.013 0-1.823.887-1.823 1.954z"/><path clip-path="url(#b)" fill="#FFF" d="M398.036 52.753h-.022c-.41.635-1.061 1.067-1.813 1.067-1.641 0-2.553-1.427-2.553-3.034 0-1.535.969-2.939 2.508-2.939.797 0 1.436.433 1.858 1.104h.022v-5.733h1.027v10.411h-1.027v-.876zm.057-1.931c0-1.091-.626-2.015-1.732-2.015-1.06 0-1.687.972-1.687 2.015 0 1.056.605 2.039 1.687 2.039 1.117 0 1.732-.935 1.732-2.039"/><path clip-path="url(#b)" fill="none" stroke="#FFF" stroke-width=".12" stroke-miterlimit="10" d="M398.036 52.753h-.022c-.41.635-1.061 1.067-1.813 1.067-1.641 0-2.553-1.427-2.553-3.034 0-1.535.969-2.939 2.508-2.939.797 0 1.436.433 1.858 1.104h.022v-5.733h1.027v10.411h-1.027v-.876zm.057-1.931c0-1.091-.626-2.015-1.732-2.015-1.06 0-1.687.972-1.687 2.015 0 1.056.605 2.039 1.687 2.039 1.117 0 1.732-.935 1.732-2.039z"/><path clip-path="url(#b)" fill="#FFF" d="M401.377 48.016v3.106c0 .9.217 1.692 1.231 1.692 1.015 0 1.232-.792 1.232-1.692v-3.106h1.025v3.227c0 1.535-.683 2.578-2.257 2.578-1.573 0-2.256-1.043-2.256-2.578v-3.227h1.025z"/><path clip-path="url(#b)" fill="none" stroke="#FFF" stroke-width=".12" stroke-miterlimit="10" d="M401.377 48.016v3.106c0 .9.217 1.692 1.231 1.692 1.015 0 1.232-.792 1.232-1.692v-3.106h1.025v3.227c0 1.535-.683 2.578-2.257 2.578-1.573 0-2.256-1.043-2.256-2.578v-3.227h1.025z"/><path clip-path="url(#b)" fill="#FFF" d="M410.155 49.611c-.41-.492-.912-.756-1.527-.756-1.003 0-1.779.936-1.779 1.967 0 1.151.764 1.991 1.847 1.991.593 0 1.071-.288 1.459-.744v1.38a2.865 2.865 0 0 1-1.471.371c-1.573 0-2.861-1.271-2.861-2.95 0-1.738 1.277-3.023 2.918-3.023.479 0 1.004.12 1.414.372v1.392z"/><path clip-path="url(#b)" fill="none" stroke="#FFF" stroke-width=".12" stroke-miterlimit="10" d="M410.155 49.611c-.41-.492-.912-.756-1.527-.756-1.003 0-1.779.936-1.779 1.967 0 1.151.764 1.991 1.847 1.991.593 0 1.071-.288 1.459-.744v1.38a2.865 2.865 0 0 1-1.471.371c-1.573 0-2.861-1.271-2.861-2.95 0-1.738 1.277-3.023 2.918-3.023.479 0 1.004.12 1.414.372v1.392z"/><path clip-path="url(#b)" fill="#FFF" d="M412.436 53.629h-1.026v-4.605h-.559v-1.008h.559v-2.147h1.026v2.147h1.003v1.008h-1.003z"/><path clip-path="url(#b)" fill="none" stroke="#FFF" stroke-width=".12" stroke-miterlimit="10" d="M412.436 53.629h-1.026v-4.605h-.559v-1.008h.559v-2.147h1.026v2.147h1.003v1.008h-1.003z"/><path clip-path="url(#b)" fill="#FFF" d="M416.141 49.299c-.125-.275-.388-.491-.684-.491a.565.565 0 0 0-.558.552c0 .491.615.707 1.242 1.007.627.3 1.231.707 1.231 1.595a1.834 1.834 0 0 1-1.835 1.858c-.775 0-1.562-.466-1.846-1.258l.877-.42c.217.42.478.72.969.72.433 0 .809-.312.809-.792 0-.3-.137-.444-.376-.612l-1.003-.563c-.593-.336-1.026-.648-1.026-1.415 0-.912.707-1.632 1.573-1.632.649 0 1.174.372 1.459.984l-.832.467z"/><path clip-path="url(#b)" fill="none" stroke="#FFF" stroke-width=".12" stroke-miterlimit="10" d="M416.141 49.299c-.125-.275-.388-.491-.684-.491a.565.565 0 0 0-.558.552c0 .491.615.707 1.242 1.007.627.3 1.231.707 1.231 1.595a1.834 1.834 0 0 1-1.835 1.858c-.775 0-1.562-.466-1.846-1.258l.877-.42c.217.42.478.72.969.72.433 0 .809-.312.809-.792 0-.3-.137-.444-.376-.612l-1.003-.563c-.593-.336-1.026-.648-1.026-1.415 0-.912.707-1.632 1.573-1.632.649 0 1.174.372 1.459.984l-.832.467z"/><path clip-path="url(#b)" fill="#FFF" d="M419.162 43.926c.844 1.728 1.186 4.066 1.186 6.009 0 1.931-.342 4.27-1.186 6.009l-.844-.66c.719-1.583.981-3.598.981-5.349s-.262-3.766-.981-5.349l.844-.66z"/><path clip-path="url(#b)" fill="none" stroke="#FFF" stroke-width=".12" stroke-miterlimit="10" d="M419.162 43.926c.844 1.728 1.186 4.066 1.186 6.009 0 1.931-.342 4.27-1.186 6.009l-.844-.66c.719-1.583.981-3.598.981-5.349s-.262-3.766-.981-5.349l.844-.66z"/><path clip-path="url(#b)" fill="none" stroke="#FFF" stroke-miterlimit="10" d="M234.756 0v59.303"/></svg>