<svg xmlns="http://www.w3.org/2000/svg" xmlns:xlink="http://www.w3.org/1999/xlink" width="497.131" height="79.388"><defs><path id="a" d="M0 0h497.131v79.388H0z"/></defs><clipPath id="b"><use xlink:href="#a" overflow="visible"/></clipPath><path clip-path="url(#b)" fill="#FFF" d="M495.561 39.561c0 20.772-16.836 37.611-37.61 37.611-20.767 0-37.612-16.839-37.612-37.611 0-20.77 16.845-37.608 37.612-37.608 20.774 0 37.61 16.838 37.61 37.608"/><path clip-path="url(#b)" d="M476.82 33.316h-12.453V20.863c0-1.36-.507-2.469-1.106-2.469h-11.087c-.598 0-1.096 1.109-1.096 2.469v12.453h-12.465c-1.375 0-2.463.501-2.463 1.122v11.077c0 .596 1.088 1.088 2.463 1.088h12.465v12.472c0 1.366.498 2.479 1.096 2.479h11.087c.599 0 1.106-1.113 1.106-2.479V46.603l12.453.007c1.363-.007 2.472-.499 2.472-1.095V34.438c0-.621-1.109-1.122-2.472-1.122"/><path clip-path="url(#b)" fill="#F96632" d="M429.84 12.096c15.391-15.394 40.338-15.394 55.754.015 15.382 15.38 15.382 40.344 0 55.731-15.416 15.402-40.363 15.39-55.754 0-15.372-15.387-15.372-40.351 0-55.746m27.873-7.256c-9.004.017-17.972 3.419-24.826 10.291-6.876 6.879-10.29 15.82-10.308 24.841.018 9.02 3.432 17.972 10.308 24.835 6.854 6.865 15.822 10.284 24.826 10.284 9.01 0 17.975-3.419 24.838-10.284 6.863-6.863 10.289-15.815 10.289-24.835 0-9.009-3.426-17.962-10.289-24.841-6.863-6.872-15.828-10.274-24.838-10.291"/><path clip-path="url(#b)" fill="#FFF" d="M285.769 39.561c0 20.772-16.84 37.611-37.617 37.611-20.772 0-37.605-16.839-37.605-37.611 0-20.77 16.833-37.608 37.605-37.608 20.777 0 37.617 16.838 37.617 37.608"/><path clip-path="url(#b)" fill="#F96632" d="M220.517 11.67c15.383-15.393 40.342-15.393 55.721.006 15.408 15.382 15.408 40.337.014 55.745-15.393 15.395-40.352 15.376-55.735 0-15.391-15.408-15.391-40.363 0-55.751m27.857-7.258c-9.009.015-17.953 3.424-24.838 10.294-6.872 6.877-10.251 15.819-10.268 24.833.017 9.02 3.396 17.958 10.268 24.842 6.885 6.881 15.829 10.293 24.838 10.293 9.006 0 17.974-3.412 24.837-10.293 6.871-6.884 10.288-15.822 10.288-24.842 0-8.997-3.417-17.956-10.288-24.833-6.863-6.87-15.831-10.279-24.837-10.294"/><path clip-path="url(#b)" fill-rule="evenodd" clip-rule="evenodd" d="M274.258 43.514h-52.612c.4-2.519.492-4.988 1.194-7.264 3.183-10.15 10.097-16.298 20.455-18.688.833-.187 1.719-.848 2.201-1.55 1.532-2.114 3.773-2.114 5.202.033.471.697 1.378 1.375 2.204 1.53 11.336 2.168 20.13 11.674 21.348 23.203.086.836.008 1.669.008 2.736m-48.502-5.222c.397.447.969 1.583 1.633 1.652.732.041 2.051-.731 2.255-1.409 2.341-7.863 7.48-12.544 15.438-14.403.732-.171 1.224-1.473 1.831-2.253-.936-.491-2.045-1.588-2.777-1.374-2.907.879-5.891 1.8-8.461 3.358-5.142 3.167-8.357 7.932-9.919 14.429m22.099 11.149h-25.362c-.854 0-1.796.13-2.534-.166-.673-.262-1.586-1.085-1.544-1.63.026-.732.714-1.664 1.393-2.058.654-.392 1.648-.229 2.498-.229 17.073-.021 34.161-.021 51.228-.013.609 0 1.355-.215 1.761.068.845.546 1.503 1.353 2.237 2.06-.756.643-1.469 1.796-2.275 1.849-3.065.23-6.147.119-9.22.119h-18.182"/><path clip-path="url(#b)" fill="#FFF" d="M389.913 39.561c0 20.772-16.837 37.611-37.608 37.611-20.769 0-37.606-16.839-37.606-37.611 0-20.77 16.837-37.608 37.606-37.608 20.771 0 37.608 16.838 37.608 37.608"/><path clip-path="url(#b)" fill="#F96632" d="M324.963 11.799c15.398-15.393 40.345-15.393 55.751.008 15.384 15.38 15.384 40.35 0 55.735-15.406 15.396-40.353 15.39-55.751 0-15.39-15.385-15.39-40.355 0-55.743m27.866-7.263c-9.009.021-17.959 3.434-24.835 10.294-6.869 6.872-10.274 15.829-10.28 24.84.006 9.024 3.411 17.975 10.28 24.842 6.876 6.868 15.826 10.287 24.835 10.287 9.004 0 17.969-3.419 24.835-10.287 6.879-6.867 10.299-15.818 10.302-24.842-.003-8.998-3.423-17.968-10.302-24.84-6.866-6.86-15.831-10.273-24.835-10.294"/><path clip-path="url(#b)" d="M383.97 45.052c-.074-1.001.018-1.985-.02-2.961-.026-.357-.14-.99-.326-1.043-1.743-.476-1.206-1.835-1.248-2.961-.077-1.802-.5-2.369-2.252-2.729-2.122-.431-4.247-.807-6.361-1.279-1.433-.299-2.99-.46-4.199-1.175-2.026-1.214-3.787-2.881-5.743-4.259-2.498-1.762-4.898-3.87-8.212-3.983-5.492-.163-10.989-.326-16.511-.314-1.691 0-2.987-.101-3.721-1.915-.187-.415-1.269-.827-1.744-.653-.933.324-.829 1.173-.334 1.947.136.246.231.52.213.435-1.834 1.372-3.763 2.436-5.169 3.972-1.834 2.027-3.654 4.263-4.669 6.724-.899 2.178.097 4.812-.976 7.26-.491 1.13 0 3.043.682 4.204.364.598 2.157.336 3.31.466.042.012.083.018.237.086 1.456 4.036 3.539 5.991 6.722 6.123 4.374.178 6.783-2.25 7.912-6.149H365.8c1.207 4.044 3.678 6.149 7.169 6.172 3.604.026 6.046-2.009 7.418-6.254.587 0 1.224-.047 1.873.012 1.26.084 1.788-.456 1.71-1.726m-49.785 4.15c-1.947-.007-3.385-1.467-3.382-3.444 0-1.933 1.489-3.436 3.42-3.445 1.942-.011 3.436 1.456 3.465 3.405.012 2.039-1.467 3.524-3.503 3.484m3.334-16.604c-.383.641-2.03.641-3.115.641-.682 0-1.401-.451-2.003-.842-.163-.099-.074-.763.035-1.107.97-2.802 3.666-4.324 6.85-3.77-.558 1.734-.857 3.58-1.767 5.078m12.154.799h-8.948c.578-1.947 1.13-3.743 1.752-5.508.11-.28.673-.542 1.026-.564a73.564 73.564 0 0 1 5.147.071c.358.025.954.55.97.877.1 1.645.053 3.318.053 5.124m3.156.076v-5.656c2.878-.643 8.796 2.359 10.803 5.656h-10.803zm20.158 15.729c-1.929-.012-3.467-1.545-3.467-3.444.044-1.877 1.61-3.424 3.518-3.445 1.959-.011 3.568 1.62 3.509 3.556-.057 1.93-1.595 3.373-3.56 3.333"/><path clip-path="url(#b)" fill="#FFF" d="M179.625 39.561c0 20.772-16.842 37.611-37.617 37.611-20.772 0-37.608-16.839-37.608-37.611 0-20.77 16.836-37.608 37.608-37.608 20.775 0 37.617 16.838 37.617 37.608"/><path clip-path="url(#b)" d="M113.59 50.116l-.577 1.956a1.072 1.072 0 0 0 .737 1.336 1.07 1.07 0 0 0 1.334-.738l.581-1.957a3.347 3.347 0 0 1-2.075-.597m28.792-2.484h-21.193c-.815 0-1.108-.785-.735-1.443 1.173-1.959 2.35-3.939 3.515-5.912.8-1.305 1.511-2.071 2.738-2.98l6.129-4.466v3.713c0 3.063 2.507 5.563 5.559 5.563h7.964c3.056 0 5.556-2.5 5.556-5.563v-3.713l6.126 4.466c1.23.909 1.948 1.675 2.753 2.98 1.168 1.973 2.339 3.953 3.503 5.912.383.658.081 1.443-.729 1.443h-21.186zm0-23.353c1.126-.006 2.258.36 3.328 1.052l13.757 10.015c1.476 1.069 2.448 2.091 3.396 3.705l5.26 8.857c.792 1.191 2.452.572 2.256-.603-2.587-12.274-12.24-29.264-27.997-29.241-15.763-.023-25.419 16.967-28.009 29.241-.19 1.175 1.47 1.794 2.258.603l5.258-8.857c.951-1.614 1.929-2.636 3.402-3.705l13.763-10.015c1.072-.692 2.198-1.058 3.328-1.052m26.533 26.422l.581 1.969c.154.578.758.903 1.327.738.57-.16.907-.769.741-1.336l-.548-1.85a3.484 3.484 0 0 1-2.101.479"/><path clip-path="url(#b)" fill="#F96632" d="M114.222 11.541c15.407-15.388 40.352-15.388 55.748.006 15.387 15.379 15.399 40.34.009 55.742-15.405 15.381-40.35 15.381-55.757 0-15.391-15.402-15.391-40.363 0-55.748M142.1 4.28c-9.015.014-17.968 3.431-24.837 10.285-6.862 6.897-10.287 15.833-10.29 24.844.003 9.02 3.428 17.966 10.29 24.843 6.869 6.853 15.822 10.284 24.837 10.284s17.971-3.431 24.829-10.284c6.873-6.877 10.296-15.823 10.296-24.843 0-9.004-3.423-17.947-10.296-24.844C160.071 7.711 151.115 4.294 142.1 4.28"/><path clip-path="url(#b)" fill="#FFF" d="M76.963 39.561c0 20.772-16.836 37.611-37.611 37.611-20.768 0-37.608-16.839-37.608-37.611 0-20.77 16.84-37.608 37.608-37.608 20.775 0 37.611 16.838 37.611 37.608"/><path clip-path="url(#b)" fill="#F96632" d="M11.536 11.632c15.396-15.392 40.353-15.392 55.734 0 15.404 15.392 15.404 40.343.014 55.743-15.395 15.401-40.352 15.378-55.748 0-15.381-15.401-15.381-40.351 0-55.743M39.4 4.368c-9.009.018-17.941 3.418-24.834 10.293C7.701 21.54 4.294 30.491 4.282 39.493c.012 9.018 3.419 17.979 10.284 24.837 6.893 6.876 15.825 10.294 24.834 10.294s17.977-3.418 24.835-10.294c6.881-6.858 10.295-15.819 10.295-24.837 0-9-3.414-17.953-10.295-24.832C57.376 7.786 48.409 4.386 39.4 4.368"/><path clip-path="url(#b)" d="M64.388 32.249l-20.617-16.85c-.978-.798-2.3-1.294-3.779-1.294-1.461 0-2.792.496-3.764 1.294L14.075 33.507c-.75.631-1.034 1.579-.613 2.474.432.86 1.428 1.401 2.487 1.401h4.125v22.16c0 1.032.841 1.87 1.891 1.87h12.26V47.645h10.032v13.767h12.512c1.04 0 1.894-.838 1.894-1.87v-22.16h3.256c1.391 0 2.73-.72 3.287-1.881.557-1.136.166-2.43-.818-3.252"/></svg>