<svg xmlns="http://www.w3.org/2000/svg" xmlns:xlink="http://www.w3.org/1999/xlink" width="55.202" height="104.027"><defs><path id="a" d="M0 0h55.202v104.027H0z"/></defs><clipPath id="b"><use xlink:href="#a" overflow="visible"/></clipPath><g clip-path="url(#b)"><defs><path id="c" d="M0 0h55.202v104.027H0z"/></defs><clipPath id="d"><use xlink:href="#c" overflow="visible"/></clipPath><path clip-path="url(#d)" fill="#fff" d="M21.408.269l-.341-.22a.348.348 0 0 0-.377.014.328.328 0 0 0-.096.366c.05.136 4.815 13.694-9.662 33.498C-2.966 52.951-3.655 70.86 9.108 81.85a.292.292 0 0 0 .208.084c.172-.017.33-.141.33-.321a.29.29 0 0 0-.085-.211c-4.183-8.687-2.903-21.77 6.412-32.72 9.239-10.861 12.131-19.512 12.598-21.958a.311.311 0 0 1 .212-.273c.039-.014.075-.014.109-.014.079 0 .166.033.231.102 7.347 7.909 14.158 15.743 15.792 32.347 1.383 14.116-5.48 25.337-12.895 30.2a.315.315 0 0 0-.132.375c.057.129.169.22.31.22.009 0 .023-.015.04-.022 6.434-.945 12.257-4.717 16.374-10.628 6.015-8.611 7.938-20.868 5.282-33.613C48.054 17.392 32.023 7.081 21.408.269"/><g clip-path="url(#d)"><defs><path id="e" d="M.141 0h55.06v89.68H.141z"/></defs><clipPath id="f"><use xlink:href="#e" overflow="visible"/></clipPath><g clip-path="url(#f)"><defs><path id="g" d="M21.549.269l-.344-.22a.338.338 0 0 0-.371.013.32.32 0 0 0-.098.367c.047.135 4.814 13.693-9.667 33.498C-2.819 52.95-3.514 70.859 9.243 81.85a.32.32 0 0 0 .212.084c.172-.017.332-.141.332-.322a.301.301 0 0 0-.084-.211c-4.187-8.686-2.906-21.769 6.409-32.719C25.351 37.82 28.239 29.17 28.71 26.724a.308.308 0 0 1 .219-.274c.022-.013.07-.013.099-.013.084 0 .168.033.234.101 7.344 7.909 14.166 15.743 15.791 32.348 1.38 14.116-5.477 25.337-12.897 30.2a.32.32 0 0 0-.129.375c.056.129.174.22.307.22.011 0 .028-.015.048-.023 6.428-.944 12.251-4.717 16.371-10.628 6.018-8.61 7.932-20.868 5.285-33.612C48.195 17.392 32.159 7.08 21.549.269"/></defs><clipPath id="i"><use xlink:href="#g" overflow="visible"/></clipPath><defs><filter id="h" filterUnits="userSpaceOnUse" x="-42.743" y="-26.35" width="138.657" height="142.356"><feColorMatrix values="1 0 0 0 0 0 1 0 0 0 0 0 1 0 0 0 0 0 1 0"/></filter></defs><mask maskUnits="userSpaceOnUse" x="-42.743" y="-26.35" width="138.657" height="142.356" id="k"><g filter="url(#h)"><linearGradient id="j" gradientUnits="userSpaceOnUse" y1="104.085" x2="1" y2="104.085" gradientTransform="scale(76.5611 -76.5611) rotate(59.5 92.007 51.588)"><stop offset="0" stop-color="#fff"/><stop offset=".326" stop-color="#fff"/><stop offset=".467" stop-color="#fff"/><stop offset=".61" stop-color="#fff"/><stop offset=".739" stop-color="#fff"/><stop offset=".852" stop-color="#fff"/><stop offset=".943" stop-color="#fff"/><stop offset="1" stop-color="#fff"/></linearGradient><path clip-path="url(#i)" fill="url(#j)" d="M-42.743 66.573L11.993-26.35l83.921 49.434-54.736 92.923z"/></g></mask><linearGradient id="l" gradientUnits="userSpaceOnUse" y1="104.085" x2="1" y2="104.085" gradientTransform="scale(76.5611 -76.5611) rotate(59.5 92.007 51.588)"><stop offset="0" stop-color="#fff"/><stop offset=".326" stop-color="#fff"/><stop offset=".468" stop-color="#fff"/><stop offset=".61" stop-color="#fff"/><stop offset=".74" stop-color="#fff"/><stop offset=".852" stop-color="#fff"/><stop offset=".943" stop-color="#fff"/><stop offset="1" stop-color="#fff"/></linearGradient><path clip-path="url(#i)" mask="url(#k)" fill="url(#l)" d="M-42.743 66.573L11.993-26.35l83.921 49.434-54.736 92.923z"/></g></g><path clip-path="url(#d)" fill="#fff" d="M13.854 74.376c.03-.259.053-.523.087-.777-.031.262-.073.518-.087.777m-.271 2.199l-.045.248.104.031c.003-.076.011-.149.011-.225-.028-.02-.05-.023-.07-.054"/></g><g clip-path="url(#b)"><defs><path id="m" d="M32.647 46.925c-.663 1.323-3.312 6.014-9.789 11.739-5.175 4.559-8.32 9.891-8.894 14.786 0 .014-.01.034-.01.05l-.013.099c-.034.254-.057.518-.087.777a56.95 56.95 0 0 0-.2 2.253c0 .076-.009.15-.012.225-.287 4.581.175 9.34 2.58 14.138.055.135.205.2.349.17a.332.332 0 0 0 .261-.298c1.023-14.013 9.833-26.65 9.98-26.85a.333.333 0 0 1 .448-.079c.14.104.179.292.095.439-.043.073-.971 1.628-2.157 4.213 0 0-9.759 17.624-3.63 33.618l.685 1.625a.318.318 0 0 0 .253.197h.042a.338.338 0 0 0 .248-.116 6.717 6.717 0 0 1 1.775-1.565.32.32 0 0 0 .115-.422c-1.521-3.103-2.478-6.584-2.844-10.346 4.552-3.202 12.17-9.983 14.183-20.728.336-1.753.628-3.356.724-5.034.803-7.972-1.724-13.947-3.79-18.906-.014-.051-.048-.092-.098-.101-.017-.009-.034-.009-.057-.009-.062.009-.121.059-.157.125"/></defs><clipPath id="n"><use xlink:href="#m" overflow="visible"/></clipPath><linearGradient id="o" gradientUnits="userSpaceOnUse" y1="104.027" x2="1" y2="104.027" gradientTransform="matrix(23.335 0 0 -23.335 13.566 2502.88)"><stop offset="0" stop-color="#fff"/><stop offset=".264" stop-color="#fff"/><stop offset=".42" stop-color="#fff"/><stop offset=".688" stop-color="#fff"/><stop offset="1" stop-color="#fff"/></linearGradient><path clip-path="url(#n)" fill="url(#o)" d="M13.355 46.8h24.197v57.227H13.355z"/></g></svg>