<svg xmlns="http://www.w3.org/2000/svg" xmlns:xlink="http://www.w3.org/1999/xlink" width="595.511" height="168.182"><defs><path id="a" d="M0 0h595.511v168.182H0z"/></defs><clipPath id="b"><use xlink:href="#a" overflow="visible"/></clipPath><g clip-path="url(#b)"><defs><path id="c" d="M0 0h595.511v168.182H0z"/></defs><clipPath id="d"><use xlink:href="#c" overflow="visible"/></clipPath><path clip-path="url(#d)" fill="#151011" d="M515.899 39.589v1.421h-2.767v7.202h-1.687V41.01h-2.773v-1.421h7.227zm9.317 8.623l-.32-5.079c-.033-.672-.033-1.483-.058-2.402h-.099c-.221.759-.483 1.77-.73 2.57l-1.549 4.765h-1.784l-1.553-4.904c-.152-.661-.41-1.672-.595-2.431h-.092c0 .795-.036 1.613-.073 2.402l-.312 5.079h-1.65l.636-8.623h2.563l1.497 4.213c.192.673.349 1.298.56 2.184h.033c.232-.788.422-1.511.614-2.151l1.476-4.246h2.475l.677 8.623h-1.716zM173.98 57.695c0 12.517-1.334 13.993-4.708 15.992 4.544 1.152 7.739 4.514 7.739 17.35 0 15.569-4.035 21.451-16.158 21.451H113.08V39.517h43.069c13.799 0 17.831 5.35 17.831 18.178m-19.939 9.259c3.708 0 5.98-1.469 5.98-6.412 0-4.733-2.189-6.521-6.053-6.521h-26.853v12.933h26.926zm2.108 30.921c4.37 0 6.812-2.21 6.812-8.626 0-5.991-2.599-7.678-7.321-7.678h-28.525v16.304h29.034zm30.706-58.358h13.956v72.972h-13.956zm52.994 72.971c-22.375 0-27.675-5.675-27.675-30.917v-8.833c0-27.13 4.969-33.549 27.933-33.549h7.819c24.05 0 29.354 6.733 29.354 33.233v8.837c0 26.918-5.38 31.229-29.609 31.229h-7.822zm1.508-56.788c-13.207 0-15.046 2.835-15.046 17.361v7.561c0 13.047 1.839 15.769 14.545 15.769h6.561c13.711 0 15.824-2.093 15.824-16.081v-7.572c0-14.723-2.025-17.038-16.075-17.038h-5.809zm99.945-16.183v14.504h-39.63v13.457h38.194v14.617h-38.194v30.394H287.63V39.517zm23.044 45.307c0 10.103 3.278 13.051 12.704 13.051h9.081c9.004 0 12.287-3.054 12.287-13.145V39.516h14.05v46.992c0 19.244-5.809 25.98-23.814 25.98h-14.635c-17.162 0-23.644-7.361-23.644-25.98V39.516h13.971v45.308zM476.65 39.517v14.504h-39.707v13.457h38.27v14.617h-38.27v15.78h39.707v14.614h-53.678V39.517zm25.315 0v58.249h37.436v14.723h-51.482V39.517z"/><path clip-path="url(#d)" fill="#FE430B" d="M57.712.348l-.439-.284a.45.45 0 0 0-.488.018.421.421 0 0 0-.123.473c.065.174 6.216 17.678-12.473 43.244-17.943 24.559-18.833 47.679-2.355 61.866.069.077.181.11.269.11.221-.023.425-.183.425-.415a.377.377 0 0 0-.109-.273c-5.402-11.214-3.748-28.103 8.277-42.24C62.623 48.826 66.357 37.659 66.96 34.5a.4.4 0 0 1 .273-.352c.05-.019.098-.019.141-.019a.42.42 0 0 1 .298.131c9.485 10.211 18.278 20.324 20.387 41.761 1.784 18.222-7.075 32.709-16.646 38.986a.406.406 0 0 0-.171.485c.073.167.219.283.4.283.011 0 .029-.019.051-.03 8.306-1.217 15.824-6.088 21.138-13.718 7.765-11.117 10.248-26.941 6.82-43.393C92.111 22.453 71.417 9.141 57.712.348"/><g clip-path="url(#d)"><defs><path id="e" d="M30.258 0h71.081v115.775H30.258z"/></defs><clipPath id="f"><use xlink:href="#e" overflow="visible"/></clipPath><g clip-path="url(#f)"><defs><path id="g" d="M57.895.348l-.444-.284a.436.436 0 0 0-.48.018.41.41 0 0 0-.127.473c.061.174 6.216 17.678-12.48 43.244-17.928 24.559-18.826 47.679-2.355 61.866.076.076.189.11.272.11.222-.023.429-.183.429-.415a.393.393 0 0 0-.108-.273c-5.406-11.214-3.752-28.103 8.273-42.24C62.802 48.825 66.532 37.658 67.139 34.5a.393.393 0 0 1 .283-.352c.029-.019.091-.019.127-.019.109 0 .219.044.302.131 9.481 10.211 18.289 20.324 20.386 41.761 1.781 18.222-7.07 32.709-16.649 38.986-.167.106-.226.303-.167.484.073.167.225.284.396.284.015 0 .037-.019.062-.03 8.299-1.217 15.816-6.089 21.135-13.718 7.768-11.117 10.24-26.941 6.822-43.393C92.294 22.453 71.592 9.141 57.895.348"/></defs><clipPath id="i"><use xlink:href="#g" overflow="visible"/></clipPath><defs><filter id="h" filterUnits="userSpaceOnUse" x="-25.105" y="-34.017" width="179.002" height="183.778"><feColorMatrix values="1 0 0 0 0 0 1 0 0 0 0 0 1 0 0 0 0 0 1 0"/></filter></defs><mask maskUnits="userSpaceOnUse" x="-25.105" y="-34.017" width="179.002" height="183.778" id="k"><g filter="url(#h)"><linearGradient id="j" gradientUnits="userSpaceOnUse" y1="168.24" x2="1" y2="168.24" gradientTransform="scale(98.8376 -98.8376) rotate(59.5 148.283 83.932)"><stop offset="0" stop-color="#fff"/><stop offset=".326" stop-color="#fff"/><stop offset=".467" stop-color="#b8b8b8"/><stop offset=".61" stop-color="#777"/><stop offset=".739" stop-color="#444"/><stop offset=".852" stop-color="#1f1f1f"/><stop offset=".943" stop-color="#080808"/><stop offset="1"/></linearGradient><path clip-path="url(#i)" fill="url(#j)" d="M-25.105 85.944L45.557-34.017 153.897 29.8 83.235 149.761z"/></g></mask><linearGradient id="l" gradientUnits="userSpaceOnUse" y1="168.24" x2="1" y2="168.24" gradientTransform="scale(98.8376 -98.8376) rotate(59.5 148.283 83.932)"><stop offset="0" stop-color="#c42f01"/><stop offset=".326" stop-color="#c42f01"/><stop offset=".468" stop-color="#d26432"/><stop offset=".61" stop-color="#e1986b"/><stop offset=".74" stop-color="#edc3a4"/><stop offset=".852" stop-color="#f6e3d3"/><stop offset=".943" stop-color="#fdf7f3"/><stop offset="1" stop-color="#fff"/></linearGradient><path clip-path="url(#i)" mask="url(#k)" fill="url(#l)" d="M-25.105 85.944L45.557-34.017 153.897 29.8 83.235 149.761z"/></g></g><path clip-path="url(#d)" fill="#74BE21" d="M47.959 96.018c.04-.335.069-.677.113-1.004-.041.339-.095.669-.113 1.004m-.349 2.839l-.058.32.135.04c.003-.098.014-.193.014-.291-.036-.025-.066-.029-.091-.069"/></g><g clip-path="url(#b)"><defs><path id="m" d="M77.557 83.19l.001.112-.001-.112m-5.336-22.612c-.855 1.709-4.276 7.765-12.636 15.156-6.682 5.884-10.742 12.77-11.484 19.087 0 .019-.01.044-.01.066-.008.044-.012.087-.018.127-.044.327-.073.669-.114 1.004a78.32 78.32 0 0 0-.258 2.908c0 .097-.011.193-.014.291-.371 5.914.225 12.058 3.329 18.252a.393.393 0 0 0 .451.218.426.426 0 0 0 .338-.385c1.32-18.089 12.694-34.403 12.883-34.662a.433.433 0 0 1 .578-.102.435.435 0 0 1 .123.568c-.054.094-1.253 2.1-2.783 5.439 0 0-12.6 22.751-4.687 43.399l.884 2.097a.412.412 0 0 0 .327.255h.055a.449.449 0 0 0 .32-.149 8.64 8.64 0 0 1 2.29-2.021.414.414 0 0 0 .148-.546c-1.962-4.006-3.198-8.499-3.671-13.355 5.878-4.134 15.712-12.887 18.311-26.759.432-2.264.81-4.333.934-6.499 1.036-10.291-2.225-18.005-4.893-24.406-.018-.067-.062-.121-.127-.132-.022-.011-.044-.011-.073-.011-.08.011-.157.076-.203.16"/></defs><clipPath id="n"><use xlink:href="#m" overflow="visible"/></clipPath><linearGradient id="o" gradientUnits="userSpaceOnUse" y1="168.182" x2="1" y2="168.182" gradientTransform="matrix(30.1246 0 0 -30.1246 47.59 5163.769)"><stop offset="0" stop-color="#7fc21e"/><stop offset=".264" stop-color="#7fc21e"/><stop offset=".42" stop-color="#89c71d"/><stop offset=".688" stop-color="#a4d417"/><stop offset="1" stop-color="#cce610"/></linearGradient><path clip-path="url(#n)" fill="url(#o)" d="M47.316 60.418h31.237v73.878H47.316z"/></g><g clip-path="url(#b)"><defs><path id="p" d="M0 0h595.511v168.182H0z"/></defs><clipPath id="q"><use xlink:href="#p" overflow="visible"/></clipPath><g opacity=".3" clip-path="url(#q)"><defs><path id="r" d="M0 137.947h595.511v30.236H0z"/></defs><clipPath id="s"><use xlink:href="#r" overflow="visible"/></clipPath><path clip-path="url(#s)" fill="#151011" d="M24.313 159.022H9.111l-3.955 8.317H.198l14.038-28.55h5.257l14.032 28.55h-5.256l-3.956-8.317zm-7.648-16.315l-5.816 12.637h11.77l-5.954-12.637z"/><path clip-path="url(#s)" fill="none" stroke="#151011" stroke-width=".246" stroke-miterlimit="10" d="M24.313 159.022H9.111l-3.955 8.317H.198l14.038-28.55h5.257l14.032 28.55h-5.256l-3.956-8.317zm-7.648-16.315l-5.816 12.637h11.77l-5.954-12.637z"/><path clip-path="url(#s)" fill="#151011" d="M41.223 138.789h4.603v24.871h18.859v3.679H41.223z"/><path clip-path="url(#s)" fill="none" stroke="#151011" stroke-width=".246" stroke-miterlimit="10" d="M41.223 138.789h4.603v24.871h18.859v3.679H41.223z"/><path clip-path="url(#s)" fill="#151011" d="M72.944 138.789h4.609v24.871h18.86v3.679H72.944z"/><path clip-path="url(#s)" fill="none" stroke="#151011" stroke-width=".246" stroke-miterlimit="10" d="M72.944 138.789h4.609v24.871h18.86v3.679H72.944z"/><path clip-path="url(#s)" fill="#151011" d="M128.22 144.627h-.087v22.712h-4.602v-28.55h5.344l19.942 22.712h.088v-22.712h4.609v28.55h-5.344z"/><path clip-path="url(#s)" fill="none" stroke="#151011" stroke-width=".246" stroke-miterlimit="10" d="M128.22 144.627h-.087v22.712h-4.602v-28.55h5.344l19.942 22.712h.088v-22.712h4.609v28.55h-5.344z"/><path clip-path="url(#s)" fill="#151011" d="M185.321 159.022h-15.21l-3.955 8.317h-4.95l14.031-28.55h5.257l14.039 28.55h-5.256l-3.956-8.317zm-7.648-16.315l-5.824 12.637h11.778l-5.954-12.637z"/><path clip-path="url(#s)" fill="none" stroke="#151011" stroke-width=".246" stroke-miterlimit="10" d="M185.321 159.022h-15.21l-3.955 8.317h-4.95l14.031-28.55h5.257l14.039 28.55h-5.256l-3.956-8.317zm-7.648-16.315l-5.824 12.637h11.778l-5.954-12.637z"/><path clip-path="url(#s)" fill="#151011" d="M208.099 142.468h-11.734v-3.679h28.07v3.679h-11.734v24.871h-4.602z"/><path clip-path="url(#s)" fill="none" stroke="#151011" stroke-width=".246" stroke-miterlimit="10" d="M208.099 142.468h-11.734v-3.679h28.07v3.679h-11.734v24.871h-4.602z"/><path clip-path="url(#s)" fill="#151011" d="M232.084 138.789h4.609v18.273c0 5.159 3.737 7.318 9.43 7.318 5.692 0 9.429-2.159 9.429-7.318v-18.273h4.602v17.754c0 7.638-4.602 11.516-14.031 11.516-9.43 0-14.039-3.878-14.039-11.516v-17.754z"/><path clip-path="url(#s)" fill="none" stroke="#151011" stroke-width=".246" stroke-miterlimit="10" d="M232.084 138.789h4.609v18.273c0 5.159 3.737 7.318 9.43 7.318 5.692 0 9.429-2.159 9.429-7.318v-18.273h4.602v17.754c0 7.638-4.602 11.516-14.031 11.516-9.43 0-14.039-3.878-14.039-11.516v-17.754z"/><path clip-path="url(#s)" fill="#151011" d="M271.285 138.789h19.201c6.216 0 8.477 3.958 8.477 7.597 0 3.479-1.825 6.038-5.213 7.038v.08c2.734.359 4.34 2.719 4.515 6.078.262 5.318.436 6.638 1.476 7.757h-4.864c-.734-.8-.734-1.999-.952-5.438-.306-5.118-2.174-6.677-5.999-6.677h-12.039v12.115h-4.602v-28.55zm17.464 12.756c4.522 0 5.605-2.52 5.605-4.519 0-2.719-1.781-4.558-5.474-4.558h-12.992v9.077h12.861z"/><path clip-path="url(#s)" fill="none" stroke="#151011" stroke-width=".246" stroke-miterlimit="10" d="M271.285 138.789h19.201c6.216 0 8.477 3.958 8.477 7.597 0 3.479-1.825 6.038-5.213 7.038v.08c2.734.359 4.34 2.719 4.515 6.078.262 5.318.436 6.638 1.476 7.757h-4.864c-.734-.8-.734-1.999-.952-5.438-.306-5.118-2.174-6.677-5.999-6.677h-12.039v12.115h-4.602v-28.55zm17.464 12.756c4.522 0 5.605-2.52 5.605-4.519 0-2.719-1.781-4.558-5.474-4.558h-12.992v9.077h12.861z"/><path clip-path="url(#s)" fill="#151011" d="M329.033 159.022h-15.202l-3.955 8.317h-4.958l14.039-28.55h5.256l14.032 28.55h-5.256l-3.956-8.317zm-7.648-16.315l-5.816 12.637h11.771l-5.955-12.637z"/><path clip-path="url(#s)" fill="none" stroke="#151011" stroke-width=".246" stroke-miterlimit="10" d="M329.033 159.022h-15.202l-3.955 8.317h-4.958l14.039-28.55h5.256l14.032 28.55h-5.256l-3.956-8.317zm-7.648-16.315l-5.816 12.637h11.771l-5.955-12.637z"/><path clip-path="url(#s)" fill="#151011" d="M345.944 138.789h4.602v24.871h18.859v3.679h-23.461z"/><path clip-path="url(#s)" fill="none" stroke="#151011" stroke-width=".246" stroke-miterlimit="10" d="M345.944 138.789h4.602v24.871h18.859v3.679h-23.461z"/><path clip-path="url(#s)" fill="#151011" d="M398.305 157.943c.088 5.118 5.308 6.437 9.997 6.437 4.907 0 8.383-1.718 8.383-4.837 0-2.6-2.211-3.679-5.773-4.24l-7.045-1.079c-3.693-.559-9.211-1.919-9.211-7.477 0-5.199 4.478-8.677 12.432-8.677 6.208 0 12.774 2.079 13.21 8.957h-4.609c-.393-2.24-1.781-5.278-9.212-5.278-3.388 0-7.212 1.319-7.212 4.677 0 1.76 1.258 3.16 5.082 3.759l7.604 1.2c2.436.4 9.343 1.48 9.343 7.318 0 7.277-7.081 9.356-13.341 9.356-6.994 0-14.25-2.239-14.25-10.116h4.602z"/><path clip-path="url(#s)" fill="none" stroke="#151011" stroke-width=".246" stroke-miterlimit="10" d="M398.305 157.943c.088 5.118 5.308 6.437 9.997 6.437 4.907 0 8.383-1.718 8.383-4.837 0-2.6-2.211-3.679-5.773-4.24l-7.045-1.079c-3.693-.559-9.211-1.919-9.211-7.477 0-5.199 4.478-8.677 12.432-8.677 6.208 0 12.774 2.079 13.21 8.957h-4.609c-.393-2.24-1.781-5.278-9.212-5.278-3.388 0-7.212 1.319-7.212 4.677 0 1.76 1.258 3.16 5.082 3.759l7.604 1.2c2.436.4 9.343 1.48 9.343 7.318 0 7.277-7.081 9.356-13.341 9.356-6.994 0-14.25-2.239-14.25-10.116h4.602z"/><path clip-path="url(#s)" fill="#151011" d="M450.28 159.022h-15.209l-3.955 8.317h-4.951l14.031-28.55h5.257l14.039 28.55h-5.256l-3.956-8.317zm-7.648-16.315l-5.823 12.637h11.778l-5.955-12.637z"/><path clip-path="url(#s)" fill="none" stroke="#151011" stroke-width=".246" stroke-miterlimit="10" d="M450.28 159.022h-15.209l-3.955 8.317h-4.951l14.031-28.55h5.257l14.039 28.55h-5.256l-3.956-8.317zm-7.648-16.315l-5.823 12.637h11.778l-5.955-12.637z"/><path clip-path="url(#s)" fill="#151011" d="M467.01 138.789h24.028v3.679h-19.419v8.436h18.51v3.68h-18.51v12.755h-4.609z"/><path clip-path="url(#s)" fill="none" stroke="#151011" stroke-width=".246" stroke-miterlimit="10" d="M467.01 138.789h24.028v3.679h-19.419v8.436h18.51v3.68h-18.51v12.755h-4.609z"/><path clip-path="url(#s)" fill="#151011" d="M499.515 138.789h24.945v3.679h-20.336v8.276h19.725v3.68h-19.725v9.236h20.772v3.679h-25.381z"/><path clip-path="url(#s)" fill="none" stroke="#151011" stroke-width=".246" stroke-miterlimit="10" d="M499.515 138.789h24.945v3.679h-20.336v8.276h19.725v3.68h-19.725v9.236h20.772v3.679h-25.381z"/><path clip-path="url(#s)" fill="#151011" d="M542.883 142.468h-11.728v-3.679h28.072v3.679h-11.735v24.871h-4.609z"/><path clip-path="url(#s)" fill="none" stroke="#151011" stroke-width=".246" stroke-miterlimit="10" d="M542.883 142.468h-11.728v-3.679h28.072v3.679h-11.735v24.871h-4.609z"/><path clip-path="url(#s)" fill="#151011" d="M589.646 138.789h5.604l-13.682 16.594v11.956h-4.611v-11.756l-13.602-16.794h5.867l10.128 12.995z"/><path clip-path="url(#s)" fill="none" stroke="#151011" stroke-width=".246" stroke-miterlimit="10" d="M589.646 138.789h5.604l-13.682 16.594v11.956h-4.611v-11.756l-13.602-16.794h5.867l10.128 12.995z"/></g></g></svg>