<svg xmlns="http://www.w3.org/2000/svg" xmlns:xlink="http://www.w3.org/1999/xlink" width="561.059" height="340.312"><defs><path id="a" d="M0 0h561.059v340.312H0z"/></defs><clipPath id="b"><use xlink:href="#a" overflow="visible"/></clipPath><path clip-path="url(#b)" fill="#74BE21" d="M207.938 323.798h3.074v11.171h6.966v2.789h-10.04zm19.669-.097h2.834l5.985 14.058h-3.212l-1.276-3.127h-5.901l-1.281 3.127h-3.131l5.982-14.058zm3.232 8.214l-1.854-4.518-1.854 4.518h3.708zm7.451-8.117h3.293l2.887 9.45 3.135-9.49h2.631l3.131 9.49 2.883-9.45h3.217l-4.77 14.058h-2.663l-3.156-9.137-3.151 9.137h-2.671zm25.421 0h2.839l6.538 8.592v-8.592h3.029v13.96h-2.61l-6.754-8.873v8.873h-3.042zm26.542-1.956h2.396v18.47h-2.396z"/><g clip-path="url(#b)"><defs><path id="c" d="M0 0h561.059v340.312H0z"/></defs><clipPath id="d"><use xlink:href="#c" overflow="visible"/></clipPath><path clip-path="url(#d)" fill="#74BE21" d="M306.156 330.817v-.045c0-3.965 3.095-7.209 7.319-7.209 2.514 0 4.027.671 5.482 1.919l-1.927 2.326c-1.082-.902-2.041-1.411-3.656-1.411-2.232 0-4.009 1.977-4.009 4.343v.032c0 2.566 1.752 4.433 4.225 4.433 1.127 0 2.114-.281 2.903-.834v-1.989h-3.099v-2.663h6.068v6.063c-1.432 1.216-3.416 2.217-5.961 2.217-4.352 0-7.345-3.055-7.345-7.182m22.918-7.116h2.83l5.981 14.058h-3.208l-1.276-3.127h-5.905l-1.273 3.127h-3.135l5.986-14.058zm3.233 8.214l-1.858-4.518-1.851 4.518h3.709zm9.759-8.116h6.372c1.782 0 3.16.5 4.079 1.415.777.781 1.191 1.879 1.191 3.192v.032c0 2.261-1.22 3.672-2.992 4.335l3.416 4.986h-3.595l-2.989-4.465h-2.411v4.465h-3.071v-13.96zm6.181 6.778c1.488 0 2.354-.792 2.354-1.964v-.044c0-1.326-.915-1.989-2.407-1.989h-3.057v3.997h3.11zm10.463-6.778h5.44c4.384 0 7.413 3.008 7.413 6.941v.032c0 3.933-3.029 6.987-7.413 6.987h-5.44v-13.96zm5.44 11.19c2.51 0 4.205-1.695 4.205-4.172v-.045c0-2.464-1.695-4.2-4.205-4.2h-2.366v8.417h2.366zm12.284-11.191h10.528v2.741h-7.486v2.821h6.58v2.738h-6.58v2.924h7.584v2.736h-10.626zm15.693 0h2.834l6.543 8.592v-8.592h3.025v13.96h-2.602l-6.762-8.873v8.873h-3.038zm26.536-1.956h2.395v18.47h-2.395zm16.531 1.956h3.069v5.53h5.66v-5.53h3.071v13.96h-3.071v-5.595h-5.66v5.595h-3.069zm16.7 7.019v-.045c0-3.965 3.135-7.209 7.433-7.209 4.31 0 7.401 3.204 7.401 7.177v.032c0 3.977-3.136 7.227-7.438 7.227-4.306 0-7.396-3.217-7.396-7.182m11.621 0v-.045c0-2.387-1.753-4.375-4.225-4.375-2.476 0-4.192 1.956-4.192 4.343v.032c0 2.392 1.761 4.4 4.229 4.4s4.188-1.964 4.188-4.355m8.076-7.019h3.302l3.679 5.913 3.66-5.913h3.314v13.96h-3.05v-9.113l-3.924 5.962h-.081l-3.891-5.897v9.048h-3.009zm19.567 0h10.532v2.741h-7.473v2.821h6.575v2.738h-6.575v2.924h7.579v2.736h-10.638z"/><path clip-path="url(#d)" fill="#73BD1F" d="M79.784 196.282a.355.355 0 0 1 .447.187.338.338 0 0 1-.179.444c-19.022 8.734-33.164 27.557-35.389 50.427a64.067 64.067 0 0 0-.305 6.156c0 .923.032 1.826.065 2.749 1.972-4.563 7.571-8.475 18.538-8.755h.325c.208 0 .399-.021.594-.021 13.293-.195 20.035-7.03 20.035-16.923V192.83c-.87-.252-1.748-.48-2.639-.687a73.044 73.044 0 0 0-16.806-1.976c-10.588 0-17.12 4.139-19.542 10.666-.77 1.773-1.14 3.705-1.14 5.673l-.024 28.317c5.864-17.912 19.307-32.002 36.02-38.541"/><path clip-path="url(#d)" fill="#74BE21" d="M39.901 276.885c-2.217-22.869-16.359-41.692-35.386-50.427a.33.33 0 0 1-.178-.443.343.343 0 0 1 .443-.187c16.306 6.376 29.489 19.933 35.576 37.207l-.032-26.971c0-1.978-.366-3.912-1.135-5.682-2.419-6.53-8.95-10.67-19.547-10.67-5.587 0-11.361.675-16.802 1.977-.89.207-1.773.434-2.643.675v37.727c0 9.905 6.742 16.729 20.039 16.924.199.009.391.02.594.02h.333c11.78.293 17.372 4.803 18.909 9.788.073-1.26.13-2.521.13-3.782 0-2.041-.102-4.094-.301-6.156"/><path clip-path="url(#d)" fill="#FFF" d="M64.726 308.505c-13.464 0-20.279-6.896-20.279-16.944v-23.098c0-10.23 6.815-16.956 20.279-16.956 6.396 0 12.959.838 17.696 1.749l-1.492 10.885c-4.822-.748-12.215-1.334-16.204-1.334-6.242 0-7.815 3.245-7.815 7.572v19.018c0 4.323 1.573 7.897 7.815 7.897 2.488 0 4.151-.086 7.392-.5v-16.957h11.715v26.008c-6.067 1.749-12.711 2.66-19.107 2.66m45.994-18.022h-7.311v17.198H90.942v-55.348h23.02c13.459 0 18.444 5.323 18.444 15.708v6.823c0 6.885-2.493 11.545-8.064 13.871l13.382 18.946h-14.797l-12.207-17.198zm9.223-21.279c0-4.147-1.582-5.811-6.649-5.811h-9.885v16.282h9.885c5.315 0 6.649-1.911 6.649-6.059v-4.412zm22.93 38.476v-55.335h34.808v11.048h-22.345v10.133h20.608v11.049h-20.608v12.048h22.345v11.057zm41.537 0v-55.335h34.816v11.048h-22.348v10.133h20.604v11.049h-20.604v12.048h22.348v11.057zm53.431-36.402v36.402h-11.886v-55.335h15.286l18.201 38.138v-38.138h11.874v55.335h-15.363zm57.613 37.227c-6.396 0-13.126-1.403-17.863-3.563l2.082-9.645c5.066 1.586 10.215 2.659 15.943 2.659 6.405 0 7.65-1.248 7.65-5.895 0-4.99-.245-5.576-9.308-7.573-13.374-2.902-15.367-5.562-15.367-17.521 0-11.061 3.908-15.46 19.107-15.46 4.819 0 10.638.5 16.782 1.825l-1.244 10.472c-6.31-1.073-10.389-1.574-15.375-1.574-5.562 0-6.81 1.001-6.81 5.062 0 5.323.256 5.4 8.977 7.483 14.952 3.574 15.7 6.477 15.7 17.359 0 10.971-3.578 16.371-20.274 16.371m38.223-18.945c0 4.822 1.578 7.648 7.718 7.648 3.989 0 9.474-.5 14.293-1.325l1.749 10.886c-5.478 1.158-10.467 1.736-16.042 1.736-13.947 0-20.186-6.896-20.186-16.944v-23.105c0-10.048 6.239-16.949 20.186-16.949 5.575 0 10.564.59 16.042 1.749l-1.749 10.885c-4.819-.838-10.304-1.334-14.293-1.334-6.14 0-7.718 2.822-7.718 7.645v19.108zm77.992 18.12h-12.972l-2.984-10.797h-18.522l-2.997 10.797h-12.972l16.875-55.347h16.62l16.952 55.347zm-31.66-21.194h12.711l-6.319-23.183-6.392 23.183zm58.563 4.412h-9.474v16.783h-12.464v-55.348h22.597c13.467 0 18.445 5.323 18.445 15.708v7.226c0 10.394-5.645 15.631-19.104 15.631m6.64-21.694c0-3.984-1.411-5.811-6.64-5.811h-9.474v16.697h9.474c5.477 0 6.64-2.074 6.64-6.063v-4.823zm17.946 38.476v-55.335h34.819v11.048h-22.352v10.133h20.604v11.049h-20.604v12.048h22.352v11.057zm58.344.825c-6.396 0-13.126-1.403-17.863-3.563l2.082-9.645c5.066 1.586 10.214 2.659 15.96 2.659 6.387 0 7.633-1.248 7.633-5.895 0-4.99-.249-5.576-9.304-7.573-13.379-2.902-15.371-5.562-15.371-17.521 0-11.061 3.903-15.46 19.099-15.46 4.831 0 10.642.5 16.794 1.825l-1.249 10.472c-6.31-1.073-10.385-1.574-15.37-1.574-5.571 0-6.815 1.001-6.815 5.062 0 5.323.256 5.4 8.978 7.483 14.952 3.574 15.7 6.477 15.7 17.359 0 10.971-3.574 16.371-20.274 16.371"/><path clip-path="url(#d)" fill="#74BE21" d="M545.33 257.354a7.75 7.75 0 0 1 1.769-2.569c.744-.737 1.619-1.297 2.615-1.716 1-.419 2.057-.63 3.171-.63 1.123 0 2.171.211 3.16.63.997.419 1.85.979 2.598 1.716a7.906 7.906 0 0 1 1.765 2.569c.432.98.65 2.046.65 3.192 0 1.184-.218 2.27-.65 3.258a8.175 8.175 0 0 1-1.765 2.598 7.878 7.878 0 0 1-2.598 1.704c-.989.419-2.037.614-3.16.614-1.114 0-2.171-.195-3.171-.614a7.92 7.92 0 0 1-2.615-1.704 8.01 8.01 0 0 1-1.769-2.598c-.439-.988-.667-2.074-.667-3.258a7.73 7.73 0 0 1 .667-3.192m1.334 5.974a6.565 6.565 0 0 0 1.419 2.209 6.57 6.57 0 0 0 2.127 1.479c.821.358 1.716.521 2.675.521.952 0 1.822-.163 2.639-.521a6.667 6.667 0 0 0 2.127-1.479c.598-.611 1.066-1.355 1.419-2.209.338-.837.504-1.777.504-2.782 0-.967-.166-1.878-.504-2.716a6.911 6.911 0 0 0-1.419-2.192 6.543 6.543 0 0 0-2.127-1.451 6.47 6.47 0 0 0-2.639-.537 6.63 6.63 0 0 0-2.675.537 6.448 6.448 0 0 0-2.127 1.451 6.6 6.6 0 0 0-1.419 2.192 7.14 7.14 0 0 0-.513 2.716c0 1.005.171 1.945.513 2.782m6.729-7.502c1.127 0 1.973.227 2.509.674.546.453.817 1.135.817 2.046 0 .854-.239 1.496-.71 1.883-.485.406-1.082.647-1.794.715l2.728 4.197h-1.598l-2.585-4.087h-1.575v4.087h-1.479v-9.515h3.687zm-.654 4.232c.325 0 .643-.016.943-.048a2.11 2.11 0 0 0 .793-.179 1.31 1.31 0 0 0 .562-.463c.134-.208.211-.505.211-.879 0-.333-.062-.581-.192-.777a1.345 1.345 0 0 0-.483-.434 1.994 1.994 0 0 0-.671-.196 4.325 4.325 0 0 0-.757-.061h-1.96v3.037h1.554z"/><path clip-path="url(#d)" fill="#FFF" d="M399.667 30.666v1.101h-2.142v5.578h-1.307v-5.578h-2.148v-1.101h5.597zm7.217 6.679l-.248-3.934c-.025-.52-.025-1.148-.045-1.861h-.076c-.172.589-.374 1.371-.566 1.991l-1.199 3.692h-1.383l-1.202-3.799c-.119-.513-.318-1.295-.462-1.884h-.071c0 .616-.027 1.25-.056 1.861l-.242 3.934h-1.278l.493-6.679h1.984l1.161 3.263c.149.521.27 1.006.433 1.692h.026c.18-.61.327-1.171.476-1.667l1.143-3.288h1.918l.523 6.679h-1.329zm-272.072 7.347c0 9.695-1.034 10.838-3.646 12.387 3.52.892 5.994 3.497 5.994 13.44 0 12.061-3.125 16.616-12.516 16.616H87.638V30.61H121c10.689 0 13.812 4.144 13.812 14.082m-15.445 7.172c2.872 0 4.632-1.138 4.632-4.967 0-3.667-1.695-5.052-4.688-5.052H98.51v10.019h20.857zM121 75.816c3.385 0 5.277-1.712 5.277-6.683 0-4.64-2.013-5.947-5.671-5.947H98.51v12.63H121zm23.786-45.206h10.81v56.525h-10.81zm41.048 56.525c-17.331 0-21.436-4.395-21.436-23.949v-6.842c0-21.014 3.848-25.987 21.636-25.987h6.057c18.63 0 22.738 5.215 22.738 25.742v6.845c0 20.851-4.168 24.191-22.935 24.191h-6.06zm1.169-43.989c-10.23 0-11.655 2.196-11.655 13.448v5.858c0 10.105 1.425 12.215 11.266 12.215h5.082c10.622 0 12.258-1.623 12.258-12.458v-5.865c0-11.404-1.568-13.198-12.452-13.198h-4.499zm77.419-12.536v11.235h-30.698v10.424h29.586v11.322h-29.586v23.544h-10.878V30.61zm17.85 35.097c0 7.825 2.54 10.109 9.841 10.109h7.034c6.975 0 9.518-2.366 9.518-10.182V30.61h10.883v36.401c0 14.907-4.5 20.125-18.447 20.125h-11.336c-13.294 0-18.314-5.702-18.314-20.125V30.61h10.821v35.097zm86.993-35.097v11.235h-30.758v10.424h29.646v11.322h-29.646v12.225h30.758v11.319h-41.579V30.61zm19.61 0v45.121h28.997v11.404h-39.878V30.61z"/><path clip-path="url(#d)" fill="#FE430B" d="M44.75.269l-.341-.22a.348.348 0 0 0-.377.014.328.328 0 0 0-.096.366c.05.136 4.815 13.694-9.662 33.498C20.376 52.951 19.687 70.86 32.45 81.85a.292.292 0 0 0 .208.084c.172-.017.33-.141.33-.321a.29.29 0 0 0-.085-.211c-4.183-8.687-2.903-21.77 6.412-32.72 9.239-10.861 12.131-19.512 12.598-21.958a.311.311 0 0 1 .212-.273c.039-.014.075-.014.109-.014.079 0 .166.033.231.102 7.347 7.909 14.158 15.743 15.792 32.347 1.383 14.116-5.48 25.337-12.895 30.2a.315.315 0 0 0-.132.375c.057.129.169.22.31.22.009 0 .023-.015.04-.022 6.434-.945 12.257-4.717 16.374-10.628 6.015-8.611 7.938-20.868 5.282-33.613C71.396 17.392 55.365 7.081 44.75.269"/><g clip-path="url(#d)"><defs><path id="e" d="M23.483 0h55.06v89.681h-55.06z"/></defs><clipPath id="f"><use xlink:href="#e" overflow="visible"/></clipPath><g clip-path="url(#f)"><defs><path id="g" d="M44.89.269l-.343-.22a.34.34 0 0 0-.372.014.318.318 0 0 0-.098.366c.048.136 4.814 13.694-9.667 33.498C20.522 52.951 19.827 70.86 32.585 81.85a.312.312 0 0 0 .212.084c.171-.017.332-.141.332-.321a.306.306 0 0 0-.084-.211c-4.188-8.687-2.907-21.77 6.408-32.72 9.239-10.861 12.128-19.512 12.598-21.958a.307.307 0 0 1 .219-.273c.023-.014.07-.014.099-.014.085 0 .169.033.234.102 7.344 7.909 14.166 15.743 15.791 32.347 1.38 14.116-5.476 25.337-12.896 30.2a.319.319 0 0 0-.13.375c.056.129.175.22.307.22.011 0 .028-.014.048-.022 6.428-.945 12.251-4.717 16.371-10.628 6.018-8.611 7.932-20.868 5.286-33.613C71.537 17.392 55.501 7.081 44.89.269"/></defs><clipPath id="i"><use xlink:href="#g" overflow="visible"/></clipPath><defs><filter id="h" filterUnits="userSpaceOnUse" x="-19.402" y="-26.35" width="138.657" height="142.356"><feColorMatrix values="1 0 0 0 0 0 1 0 0 0 0 0 1 0 0 0 0 0 1 0"/></filter></defs><mask maskUnits="userSpaceOnUse" x="-19.402" y="-26.35" width="138.657" height="142.356" id="k"><g filter="url(#h)"><linearGradient id="j" gradientUnits="userSpaceOnUse" y1="340.37" x2="1" y2="340.37" gradientTransform="scale(76.5611 -76.5611) rotate(59.5 298.866 169.998)"><stop offset="0" stop-color="#fff"/><stop offset=".326" stop-color="#fff"/><stop offset=".467" stop-color="#b8b8b8"/><stop offset=".61" stop-color="#777"/><stop offset=".739" stop-color="#444"/><stop offset=".852" stop-color="#1f1f1f"/><stop offset=".943" stop-color="#080808"/><stop offset="1"/></linearGradient><path clip-path="url(#i)" fill="url(#j)" d="M-19.402 66.573L35.334-26.35l83.921 49.434-54.736 92.923z"/></g></mask><linearGradient id="l" gradientUnits="userSpaceOnUse" y1="340.37" x2="1" y2="340.37" gradientTransform="scale(76.5611 -76.5611) rotate(59.5 298.866 169.998)"><stop offset="0" stop-color="#c42f01"/><stop offset=".326" stop-color="#c42f01"/><stop offset=".468" stop-color="#d26432"/><stop offset=".61" stop-color="#e1986b"/><stop offset=".74" stop-color="#edc3a4"/><stop offset=".852" stop-color="#f6e3d3"/><stop offset=".943" stop-color="#fdf7f3"/><stop offset="1" stop-color="#fff"/></linearGradient><path clip-path="url(#i)" mask="url(#k)" fill="url(#l)" d="M-19.402 66.573L35.334-26.35l83.921 49.434-54.736 92.923z"/></g></g><path clip-path="url(#d)" fill="#74BE21" d="M37.195 74.377c.03-.259.053-.523.087-.777-.031.262-.073.518-.087.777m-.271 2.199l-.045.248.104.031c.003-.076.011-.149.011-.225-.028-.02-.05-.023-.07-.054"/></g><g clip-path="url(#b)"><defs><path id="m" d="M55.988 46.925c-.662 1.323-3.312 6.015-9.788 11.739-5.176 4.56-8.322 9.892-8.896 14.785 0 .016-.009.035-.009.052-.004.034-.007.068-.013.098-.035.255-.057.519-.087.777a59.089 59.089 0 0 0-.2 2.253c0 .077-.009.15-.012.226-.287 4.581.174 9.34 2.58 14.138a.3.3 0 0 0 .348.168.327.327 0 0 0 .262-.298c1.023-14.011 9.834-26.649 9.98-26.849a.334.334 0 0 1 .449-.078c.14.104.179.292.095.439-.043.073-.972 1.628-2.157 4.213 0 0-9.76 17.623-3.63 33.617l.684 1.626a.32.32 0 0 0 .253.197h.042a.346.346 0 0 0 .249-.116 6.69 6.69 0 0 1 1.773-1.565.32.32 0 0 0 .116-.422c-1.52-3.105-2.478-6.585-2.843-10.346 4.552-3.202 12.169-9.983 14.183-20.728.335-1.754.628-3.356.723-5.035.803-7.971-1.723-13.946-3.79-18.905-.014-.051-.047-.094-.099-.102-.016-.008-.034-.008-.056-.008-.062.008-.121.059-.157.124"/></defs><clipPath id="n"><use xlink:href="#m" overflow="visible"/></clipPath><linearGradient id="o" gradientUnits="userSpaceOnUse" y1="340.312" x2="1" y2="340.312" gradientTransform="matrix(23.335 0 0 -23.335 36.908 8016.582)"><stop offset="0" stop-color="#7fc21e"/><stop offset=".264" stop-color="#7fc21e"/><stop offset=".42" stop-color="#89c71d"/><stop offset=".688" stop-color="#a4d417"/><stop offset="1" stop-color="#cce610"/></linearGradient><path clip-path="url(#n)" fill="url(#o)" d="M36.696 46.801h24.197v57.227H36.696z"/></g><g clip-path="url(#b)"><defs><path id="p" d="M0 0h561.059v340.312H0z"/></defs><clipPath id="q"><use xlink:href="#p" overflow="visible"/></clipPath><g opacity=".3" clip-path="url(#q)"><defs><path id="r" d="M0 106.828h461.395v23.476H0z"/></defs><clipPath id="s"><use xlink:href="#r" overflow="visible"/></clipPath><path clip-path="url(#s)" fill="#FFF" d="M18.878 123.182H7.101l-3.063 6.442H.197l10.875-22.115h4.072l10.87 22.115h-4.073l-3.063-6.442zm-5.925-12.638l-4.505 9.788h9.117l-4.612-9.788z"/><path clip-path="url(#s)" fill="none" stroke="#151011" stroke-width=".246" stroke-miterlimit="10" d="M18.878 123.182H7.101l-3.063 6.442H.197l10.875-22.115h4.072l10.87 22.115h-4.073l-3.063-6.442zm-5.925-12.638l-4.505 9.788h9.117l-4.612-9.788z"/><path clip-path="url(#s)" fill="#FFF" d="M31.976 107.508h3.565v19.266H50.15v2.849H31.976z"/><path clip-path="url(#s)" fill="none" stroke="#151011" stroke-width=".246" stroke-miterlimit="10" d="M31.976 107.508h3.565v19.266H50.15v2.849H31.976z"/><path clip-path="url(#s)" fill="#FFF" d="M56.548 107.508h3.57v19.266h14.61v2.849h-18.18z"/><path clip-path="url(#s)" fill="none" stroke="#151011" stroke-width=".246" stroke-miterlimit="10" d="M56.548 107.508h3.57v19.266h14.61v2.849h-18.18z"/><path clip-path="url(#s)" fill="#FFF" d="M99.366 112.03h-.067v17.594h-3.566v-22.115h4.14l15.447 17.592h.068v-17.592h3.571v22.115h-4.14z"/><path clip-path="url(#s)" fill="none" stroke="#151011" stroke-width=".246" stroke-miterlimit="10" d="M99.366 112.03h-.067v17.594h-3.566v-22.115h4.14l15.447 17.592h.068v-17.592h3.571v22.115h-4.14z"/><path clip-path="url(#s)" fill="#FFF" d="M143.597 123.182h-11.782l-3.064 6.442h-3.835l10.869-22.115h4.073l10.874 22.115h-4.072l-3.063-6.442zm-5.924-12.638l-4.511 9.788h9.123l-4.612-9.788z"/><path clip-path="url(#s)" fill="none" stroke="#151011" stroke-width=".246" stroke-miterlimit="10" d="M143.597 123.182h-11.782l-3.064 6.442h-3.835l10.869-22.115h4.073l10.874 22.115h-4.072l-3.063-6.442zm-5.924-12.638l-4.511 9.788h9.123l-4.612-9.788z"/><path clip-path="url(#s)" fill="#FFF" d="M161.241 110.358h-9.089v-2.85h21.743v2.85h-9.089v19.266h-3.565z"/><path clip-path="url(#s)" fill="none" stroke="#151011" stroke-width=".246" stroke-miterlimit="10" d="M161.241 110.358h-9.089v-2.85h21.743v2.85h-9.089v19.266h-3.565z"/><path clip-path="url(#s)" fill="#FFF" d="M179.82 107.508h3.57v14.155c0 3.995 2.896 5.668 7.305 5.668 4.41 0 7.305-1.673 7.305-5.668v-14.155h3.564v13.752c0 5.916-3.564 8.921-10.869 8.921s-10.875-3.005-10.875-8.921v-13.752z"/><path clip-path="url(#s)" fill="none" stroke="#151011" stroke-width=".246" stroke-miterlimit="10" d="M179.82 107.508h3.57v14.155c0 3.995 2.896 5.668 7.305 5.668 4.41 0 7.305-1.673 7.305-5.668v-14.155h3.564v13.752c0 5.916-3.564 8.921-10.869 8.921s-10.875-3.005-10.875-8.921v-13.752z"/><path clip-path="url(#s)" fill="#FFF" d="M210.186 107.508h14.873c4.815 0 6.567 3.067 6.567 5.885 0 2.694-1.414 4.677-4.038 5.451v.063c2.117.278 3.361 2.105 3.497 4.708.203 4.119.338 5.141 1.144 6.008h-3.769c-.568-.619-.568-1.548-.737-4.213-.237-3.963-1.684-5.171-4.647-5.171h-9.325v9.384h-3.565v-22.115zm13.528 9.881c3.503 0 4.342-1.952 4.342-3.501 0-2.106-1.38-3.53-4.24-3.53h-10.064v7.031h9.962z"/><path clip-path="url(#s)" fill="none" stroke="#151011" stroke-width=".246" stroke-miterlimit="10" d="M210.186 107.508h14.873c4.815 0 6.567 3.067 6.567 5.885 0 2.694-1.414 4.677-4.038 5.451v.063c2.117.278 3.361 2.105 3.497 4.708.203 4.119.338 5.141 1.144 6.008h-3.769c-.568-.619-.568-1.548-.737-4.213-.237-3.963-1.684-5.171-4.647-5.171h-9.325v9.384h-3.565v-22.115zm13.528 9.881c3.503 0 4.342-1.952 4.342-3.501 0-2.106-1.38-3.53-4.24-3.53h-10.064v7.031h9.962z"/><path clip-path="url(#s)" fill="#FFF" d="M254.919 123.182h-11.776l-3.063 6.442h-3.841l10.874-22.115h4.072l10.87 22.115h-4.073l-3.063-6.442zm-5.925-12.638l-4.505 9.788h9.117l-4.612-9.788z"/><path clip-path="url(#s)" fill="none" stroke="#151011" stroke-width=".246" stroke-miterlimit="10" d="M254.919 123.182h-11.776l-3.063 6.442h-3.841l10.874-22.115h4.072l10.87 22.115h-4.073l-3.063-6.442zm-5.925-12.638l-4.505 9.788h9.117l-4.612-9.788z"/><path clip-path="url(#s)" fill="#FFF" d="M268.018 107.508h3.564v19.266h14.61v2.849h-18.174z"/><path clip-path="url(#s)" fill="none" stroke="#151011" stroke-width=".246" stroke-miterlimit="10" d="M268.018 107.508h3.564v19.266h14.61v2.849h-18.174z"/><path clip-path="url(#s)" fill="#FFF" d="M308.578 122.344c.067 3.965 4.111 4.987 7.743 4.987 3.802 0 6.494-1.332 6.494-3.748 0-2.013-1.713-2.849-4.471-3.283l-5.458-.836c-2.861-.433-7.135-1.487-7.135-5.793 0-4.026 3.469-6.721 9.63-6.721 4.809 0 9.895 1.611 10.233 6.938h-3.571c-.304-1.734-1.379-4.088-7.135-4.088-2.625 0-5.587 1.022-5.587 3.624 0 1.362.975 2.446 3.937 2.911l5.89.93c1.887.309 7.238 1.145 7.238 5.668 0 5.638-5.486 7.248-10.334 7.248-5.418 0-11.038-1.734-11.038-7.837h3.564z"/><path clip-path="url(#s)" fill="none" stroke="#151011" stroke-width=".246" stroke-miterlimit="10" d="M308.578 122.344c.067 3.965 4.111 4.987 7.743 4.987 3.802 0 6.494-1.332 6.494-3.748 0-2.013-1.713-2.849-4.471-3.283l-5.458-.836c-2.861-.433-7.135-1.487-7.135-5.793 0-4.026 3.469-6.721 9.63-6.721 4.809 0 9.895 1.611 10.233 6.938h-3.571c-.304-1.734-1.379-4.088-7.135-4.088-2.625 0-5.587 1.022-5.587 3.624 0 1.362.975 2.446 3.937 2.911l5.89.93c1.887.309 7.238 1.145 7.238 5.668 0 5.638-5.486 7.248-10.334 7.248-5.418 0-11.038-1.734-11.038-7.837h3.564z"/><path clip-path="url(#s)" fill="#FFF" d="M348.839 123.182h-11.781l-3.064 6.442h-3.835l10.869-22.115h4.072l10.875 22.115h-4.073l-3.063-6.442zm-5.925-12.638l-4.511 9.788h9.124l-4.613-9.788z"/><path clip-path="url(#s)" fill="none" stroke="#151011" stroke-width=".246" stroke-miterlimit="10" d="M348.839 123.182h-11.781l-3.064 6.442h-3.835l10.869-22.115h4.072l10.875 22.115h-4.073l-3.063-6.442zm-5.925-12.638l-4.511 9.788h9.124l-4.613-9.788z"/><path clip-path="url(#s)" fill="#FFF" d="M361.797 107.508h18.612v2.85h-15.042v6.535h14.338v2.849h-14.338v9.881h-3.57z"/><path clip-path="url(#s)" fill="none" stroke="#151011" stroke-width=".246" stroke-miterlimit="10" d="M361.797 107.508h18.612v2.85h-15.042v6.535h14.338v2.849h-14.338v9.881h-3.57z"/><path clip-path="url(#s)" fill="#FFF" d="M386.976 107.508h19.322v2.85h-15.752v6.411h15.28v2.849h-15.28v7.156h16.09v2.849h-19.66z"/><path clip-path="url(#s)" fill="none" stroke="#151011" stroke-width=".246" stroke-miterlimit="10" d="M386.976 107.508h19.322v2.85h-15.752v6.411h15.28v2.849h-15.28v7.156h16.09v2.849h-19.66z"/><path clip-path="url(#s)" fill="#FFF" d="M420.57 110.358h-9.084v-2.85h21.744v2.85h-9.09v19.266h-3.57z"/><path clip-path="url(#s)" fill="none" stroke="#151011" stroke-width=".246" stroke-miterlimit="10" d="M420.57 110.358h-9.084v-2.85h21.744v2.85h-9.09v19.266h-3.57z"/><path clip-path="url(#s)" fill="#FFF" d="M456.793 107.508h4.342l-10.599 12.854v9.261h-3.57v-9.106l-10.537-13.009h4.545l7.844 10.066z"/><path clip-path="url(#s)" fill="none" stroke="#151011" stroke-width=".246" stroke-miterlimit="10" d="M456.793 107.508h4.342l-10.599 12.854v9.261h-3.57v-9.106l-10.537-13.009h4.545l7.844 10.066z"/></g></g></svg>