<?xml version="1.0" encoding="UTF-8"?>
<!DOCTYPE svg PUBLIC "-//W3C//DTD SVG 1.1//EN" "http://www.w3.org/Graphics/SVG/1.1/DTD/svg11.dtd">
<!-- Creator: CorelDRAW X8 -->
<svg xmlns="http://www.w3.org/2000/svg" xml:space="preserve" width="51.5209mm" height="31.5041mm" version="1.1" style="shape-rendering:geometricPrecision; text-rendering:geometricPrecision; image-rendering:optimizeQuality; fill-rule:evenodd; clip-rule:evenodd"
viewBox="0 0 5152 3150"
 xmlns:xlink="http://www.w3.org/1999/xlink">
 <defs>
  <style type="text/css">
   <![CDATA[
    .fil1 {fill:#3B92E8}
    .fil0 {fill:#3B92E8;fill-rule:nonzero}
   ]]>
  </style>
 </defs>
 <g id="Слой_x0020_1">
  <metadata id="CorelCorpID_0Corel-Layer"/>
  <g id="_1622361581952">
   <path class="fil0" d="M630 1961l0 82 -630 0 0 -891 611 0 0 82 -517 0 0 316 461 0 0 81 -461 0 0 330 536 0zm394 -727l-313 0 0 -82 720 0 0 82 -313 0 0 809 -94 0 0 -809zm1187 727l0 82 -629 0 0 -891 610 0 0 82 -516 0 0 316 460 0 0 81 -460 0 0 330 535 0zm830 82l-203 -287c-23,3 -47,4 -72,4l-239 0 0 283 -94 0 0 -891 333 0c114,0 203,27 267,82 65,54 97,128 97,223 0,70 -17,129 -53,177 -35,48 -85,82 -150,103l217 306 -103 0zm-277 -363c88,0 155,-19 202,-58 47,-39 70,-94 70,-165 0,-72 -23,-127 -70,-166 -47,-38 -114,-57 -202,-57l-237 0 0 446 237 0zm1333 -528l0 891 -77 0 -573 -723 0 723 -94 0 0 -891 77 0 574 723 0 -723 93 0zm849 653l-496 0 -107 238 -98 0 407 -891 93 0 407 891 -99 0 -107 -238zm-34 -77l-214 -478 -214 478 428 0z"/>
   <polygon class="fil1" points="1020,0 1107,0 1107,648 1020,648 "/>
   <polygon class="fil1" points="1020,87 1020,0 3437,0 3437,87 "/>
   <polygon class="fil1" points="1020,3150 1107,3150 1107,2517 1020,2517 "/>
   <polygon class="fil1" points="1020,3064 1020,3150 3437,3150 3437,3064 "/>
  </g>
 </g>
</svg>
