<?xml version="1.0" encoding="utf-8"?>
<!-- Generator: Adobe Illustrator 17.0.0, SVG Export Plug-In . SVG Version: 6.00 Build 0)  -->
<!DOCTYPE svg PUBLIC "-//W3C//DTD SVG 1.1//EN" "http://www.w3.org/Graphics/SVG/1.1/DTD/svg11.dtd">
<svg version="1.1" id="Слой_1" xmlns="http://www.w3.org/2000/svg" xmlns:xlink="http://www.w3.org/1999/xlink" x="0px" y="0px"
	 width="70.449px" height="74.018px" viewBox="0 0 70.449 74.018" enable-background="new 0 0 70.449 74.018" xml:space="preserve">
<metadata><?xpacket begin="﻿" id="W5M0MpCehiHzreSzNTczkc9d"?>
<x:xmpmeta xmlns:x="adobe:ns:meta/" x:xmptk="Adobe XMP Core 5.5-c014 79.151739, 2013/04/03-12:12:15        ">
   <rdf:RDF xmlns:rdf="http://www.w3.org/1999/02/22-rdf-syntax-ns#">
      <rdf:Description rdf:about=""
            xmlns:xmpMM="http://ns.adobe.com/xap/1.0/mm/"
            xmlns:stRef="http://ns.adobe.com/xap/1.0/sType/ResourceRef#"
            xmlns:stEvt="http://ns.adobe.com/xap/1.0/sType/ResourceEvent#"
            xmlns:xmp="http://ns.adobe.com/xap/1.0/"
            xmlns:xmpGImg="http://ns.adobe.com/xap/1.0/g/img/"
            xmlns:pdf="http://ns.adobe.com/pdf/1.3/"
            xmlns:dc="http://purl.org/dc/elements/1.1/"
            xmlns:xmpTPg="http://ns.adobe.com/xap/1.0/t/pg/"
            xmlns:stDim="http://ns.adobe.com/xap/1.0/sType/Dimensions#"
            xmlns:xmpG="http://ns.adobe.com/xap/1.0/g/">
         <xmpMM:RenditionClass>proof:pdf</xmpMM:RenditionClass>
         <xmpMM:DocumentID>xmp.did:a816e739-bd51-4c13-9cc7-1b992e8f2bbe</xmpMM:DocumentID>
         <xmpMM:InstanceID>xmp.iid:a816e739-bd51-4c13-9cc7-1b992e8f2bbe</xmpMM:InstanceID>
         <xmpMM:OriginalDocumentID>uuid:3aba4013-ae3e-6c4f-ab0b-96f78feae8dc</xmpMM:OriginalDocumentID>
         <xmpMM:DerivedFrom rdf:parseType="Resource">
            <stRef:instanceID>uuid:cea809dc-8a22-0f40-a042-8bd5499e5ac5</stRef:instanceID>
            <stRef:documentID>uuid:3aba4013-ae3e-6c4f-ab0b-96f78feae8dc</stRef:documentID>
            <stRef:originalDocumentID>uuid:3aba4013-ae3e-6c4f-ab0b-96f78feae8dc</stRef:originalDocumentID>
            <stRef:renditionClass>proof:pdf</stRef:renditionClass>
         </xmpMM:DerivedFrom>
         <xmpMM:History>
            <rdf:Seq>
               <rdf:li rdf:parseType="Resource">
                  <stEvt:action>saved</stEvt:action>
                  <stEvt:instanceID>xmp.iid:a816e739-bd51-4c13-9cc7-1b992e8f2bbe</stEvt:instanceID>
                  <stEvt:when>2017-11-04T09:25:37+02:00</stEvt:when>
                  <stEvt:softwareAgent>Adobe Illustrator CC (Macintosh)</stEvt:softwareAgent>
                  <stEvt:changed>/</stEvt:changed>
               </rdf:li>
            </rdf:Seq>
         </xmpMM:History>
         <xmp:CreateDate>2017-11-04T09:25:37+02:00</xmp:CreateDate>
         <xmp:CreatorTool>Adobe Illustrator CC (Macintosh)</xmp:CreatorTool>
         <xmp:ModifyDate>2017-11-04T09:25:37+02:00</xmp:ModifyDate>
         <xmp:MetadataDate>2017-11-04T09:25:37+02:00</xmp:MetadataDate>
         <xmp:Thumbnails>
            <rdf:Alt>
               <rdf:li rdf:parseType="Resource">
                  <xmpGImg:width>244</xmpGImg:width>
                  <xmpGImg:height>256</xmpGImg:height>
                  <xmpGImg:format>JPEG</xmpGImg:format>
                  <xmpGImg:image>/9j/4AAQSkZJRgABAgEASABIAAD/7QAsUGhvdG9zaG9wIDMuMAA4QklNA+0AAAAAABAASAAAAAEA&#xA;AQBIAAAAAQAB/+4ADkFkb2JlAGTAAAAAAf/bAIQABgQEBAUEBgUFBgkGBQYJCwgGBggLDAoKCwoK&#xA;DBAMDAwMDAwQDA4PEA8ODBMTFBQTExwbGxscHx8fHx8fHx8fHwEHBwcNDA0YEBAYGhURFRofHx8f&#xA;Hx8fHx8fHx8fHx8fHx8fHx8fHx8fHx8fHx8fHx8fHx8fHx8fHx8fHx8fHx8f/8AAEQgBAAD0AwER&#xA;AAIRAQMRAf/EAaIAAAAHAQEBAQEAAAAAAAAAAAQFAwIGAQAHCAkKCwEAAgIDAQEBAQEAAAAAAAAA&#xA;AQACAwQFBgcICQoLEAACAQMDAgQCBgcDBAIGAnMBAgMRBAAFIRIxQVEGE2EicYEUMpGhBxWxQiPB&#xA;UtHhMxZi8CRygvElQzRTkqKyY3PCNUQnk6OzNhdUZHTD0uIIJoMJChgZhJRFRqS0VtNVKBry4/PE&#xA;1OT0ZXWFlaW1xdXl9WZ2hpamtsbW5vY3R1dnd4eXp7fH1+f3OEhYaHiImKi4yNjo+Ck5SVlpeYmZ&#xA;qbnJ2en5KjpKWmp6ipqqusra6voRAAICAQIDBQUEBQYECAMDbQEAAhEDBCESMUEFURNhIgZxgZEy&#xA;obHwFMHR4SNCFVJicvEzJDRDghaSUyWiY7LCB3PSNeJEgxdUkwgJChgZJjZFGidkdFU38qOzwygp&#xA;0+PzhJSktMTU5PRldYWVpbXF1eX1RlZmdoaWprbG1ub2R1dnd4eXp7fH1+f3OEhYaHiImKi4yNjo&#xA;+DlJWWl5iZmpucnZ6fkqOkpaanqKmqq6ytrq+v/aAAwDAQACEQMRAD8A9K4uU7FXYq7FXYq7FXYq&#xA;7FXYq7FXYq7FXYq7FXYqq2v9+v0/qxYz5I/Fx3Yq7FXYq7FXYq7FXYq7FXYq7FXYq7FXYq7FUrxc&#xA;p2KuxV2KuxV2KuxV2KuxV2KuxV2KuxV2KuxVVtf79fp/VixnyR+LjuxV2KuxV2KuxV2KuxV2KuxV&#xA;2KuxV2KuxV2KpXi5TsVdirsVdirsVdirsVdirsVdirsVdirsVdiqra/36/T+rFjPkj8XHdirsVdi&#xA;rsVdirsVdirsVdirsVdirsVdirsVSvFynYq7FXYq7FWHedPzI03y8TaQKLzVKVMANEjqNjIw/wCI&#xA;jf5ZCeQB2ug7Lnn9R9MPv9zyvVPzG84ag5Lag9slarHa/uQPpX4z9LZQchL0eHsvBD+G/fulw1fz&#xA;QRUXt8Qf+LZv64LLf4OH+bH5Bv8AS3mn/lsvv+Rs39cbK+Dh/mx+Qd+lvNP/AC2X3/I2b+uNlfBw&#xA;/wA2PyDv0t5p/wCWy+/5Gzf1xsr4OH+bH5B36W80/wDLZff8jZv642V8HD/Nj8g79Leaf+Wy+/5G&#xA;zf1xsr4OH+bH5B36W80/8tl9/wAjZv642V8HD/Nj8g79Leaf+Wy+/wCRs39cbK+Dh/mx+QcNX81A&#xA;7Xt9X2lm/rjZR4OH+bH5Bd+mfN3/AC3ah/yNm/rjZR4GD+bD5B36Z83f8t2of8jZv642V8DB/Nh8&#xA;g79M+bv+W7UP+Rs39cbK+Bg/mw+Qd+mfN3/LdqH/ACNm/rjZXwMH82HyDv0z5u/5btQ/5Gzf1xsr&#xA;4GD+bD5B36Z83f8ALdqH/I2b+uNlfAwfzYfIO/TPm7/lu1D/AJGzf1xsr4GD+bD5B36Z83f8t2of&#xA;8jZv642V8DB/Nh8g4635uQcjf6goXct60wpTv1xsp/L4D/DD5BNdH/NPztpkikag15ED8UN3++Df&#xA;7M/vPubCMhDi5+x9PkH08J8tv2PY/I35k6T5oX6vx+p6qi8ntHNQ4HVom25D26j8cvhMF5XtDsqe&#xA;n3+qHf8ArZfk3VuxV2KuxVK8XKdirsVdirGvP/mj/D2gSTwkfXrg+jZg70Yjd6f5A3+dMhOVB2HZ&#xA;uk8fLR+kbl4t5Y8t6l5p1k26OdyZby7ercVJ3Y/zMx6eOY8YmRer1eqhp8d/IPcvL/kzy9oUSizt&#xA;Va4FOV3KA8rHx5H7PyWgzJjAB5DU67LmPqO3d0TzJOG7FXYq7FXYq7FXYq7FVW1/v1+n9WLGfJH4&#xA;uO7FXYq7FXYq7FXYq7FXYqxvzP8Al95a8wwOLm1WC7I+C9gUJKG7EkfbHs2RlAF2Gk7SzYDsbj3H&#xA;l+x4Fr+h615Q8wC3kcxXNuwmtLuOoDrX4ZE+7ceO2YxBiXtdNqMeqxWOR2I/Q+gfInmlPMvl2DUC&#xA;Atyp9G8QdBMgHKnswIYfPMmErDxHaOj/AC+Ux6cx7mQZJwXYq7FUrxcp2KuxV2KvGPzrvpJNfs7O&#xA;p9K3tuYHbnK55H7kXMfMd3q+wcYGIy6k/czL8pNKis/KUV0FHrX7vLI3fijGNB8qLX6csxDZ1XbO&#xA;YyzmPSP9rNcsdS7FXYq7FXYq7FXYq7FXYqq2v9+v0/qxYz5I/Fx3Yq7FXYq7FXYq7FXYq7FXYq84&#xA;/PHR4bnyxDqVALiwmUB+/pzfCy/8FxOVZRs772fzmOYw6SH2hj/5BX7rqOq6eTVJIY7gDwMbcD9/&#xA;qDI4S53tJj9EJedfj5PZ8veTdirsVSvFynYq7FXYq8P/ADk/5S5P+YSL/iT5j5eb1/Yf9x/nH9D0&#xA;r8tv+UI0r/Uf/k6+W4/pdB2p/jE/x0ZNk3XuxV2KuxV2KuxV2KuxV2Kqtr/fr9P6sWM+SPxcd2Ku&#xA;xV2KuxV2KuxV2KuxV2KsQ/Nz/wAl7qv/AEb/APUTFkMn0u07F/xqHx/3Jeb/AJD/APKX3n/bPk/5&#xA;PQ5Vi5u/9ov7gf1x90nu+ZDxjsVdiqV4uU7FXYq7FXh/5yf8pcn/ADCRf8SfMfLzev7D/uP84/oe&#xA;lflt/wAoRpX+o/8AydfLcf0ug7U/xif46Mmybr3Yqk3m7zEnl7Q5tSMRnZCqRRVoC7mgqewyMpUL&#xA;cvRaXx8ghdPMz+duv12sLSnb+8/5qynxi7/+QcX86X2O/wCV2+YP+WG0/wCSn/NePjFP8g4v50vs&#xA;d/yu3zB/yw2n/JT/AJrx8Yr/ACDi/nS+x3/K7fMH/LDaf8lP+a8fGK/yDi/nS+x3/K7fMH/LDaf8&#xA;lP8AmvHxiv8AIOL+dL7Hf8rt8wf8sNp/yU/5rx8Yr/IOL+dL7F0f54eYEcMLC0JH/GT/AJrx8YoP&#xA;s/iI+qX2fqVv+V9eY/8Aq32f/JX/AJrx8Ytf+hzF/Ol9n6nf8r68x/8AVvs/+Sv/ADXj4xX/AEOY&#xA;v50vs/U7/lfXmP8A6t9n/wAlf+a8fGK/6HMX86X2fqd/yvrzH/1b7P8A5K/814+MV/0OYv50vs/U&#xA;7/lfXmP/AKt9n/yV/wCa8fGK/wChzF/Ol9n6nf8AK+vMf/Vvs/8Akr/zXj4xX/Q5i/nS+z9SfeSv&#xA;zjvtZ1+30rUbGKJbslIpoC/wuASOSsWqDSmSjks04ev7DjixGcJE8Pe9Ty55t2KuxViH5uf+S91X&#xA;/o3/AOomLIZPpdp2L/jUPj/uS83/ACH/AOUvvP8Atnyf8nocqxc3f+0X9wP64+6T3fMh4x2KuxVK&#xA;8XKdirsVdirw/wDOT/lLk/5hIv8AiT5j5eb1/Yf9x/nH9D0r8tv+UI0r/Uf/AJOvluP6XQdqf4xP&#xA;8dGTZN17sVQup6ZY6nYy2N9EJrWYUkjNR0NQQRuCD0IxItsxZZY5CUTRDGf+VT+Sf+WOT/kdL/zV&#xA;kPCi7D+WdR3/AGB3/Kp/JP8Ayxyf8jpf+asfCiv8s6jv+wO/5VP5J/5Y5P8AkdL/AM1Y+FFf5Z1H&#xA;f9gd/wAqn8k/8scn/I6X/mrHwor/ACzqO/7A7/lU/kn/AJY5P+R0v/NWPhRX+WdR3/YHf8qn8k/8&#xA;scn/ACOl/wCasfCiv8s6jv8AsC+D8pPI7yqrWchBrX99L4f62PhRYy7Z1IHP7AjP+VOeQv8Alik/&#xA;5Hy/81YPDDV/Lmp/nD5B3/KnPIX/ACxSf8j5f+asfDC/y5qf5w+Qd/ypzyF/yxSf8j5f+asfDC/y&#xA;5qf5w+Qd/wAqc8hf8sUn/I+X/mrHwwv8uan+cPkHf8qc8hf8sUn/ACPl/wCasfDC/wAuan+cPkHf&#xA;8qc8hf8ALFJ/yPl/5qx8ML/Lmp/nD5BMNC/Lnyjol+t/YWRW7QERyvI8nHkKHiGJAJBpXCIANGo7&#xA;Uz5o8MpelkuTde7FXYqxD83P/Je6r/0b/wDUTFkMn0u07F/xqHx/3Jeb/kP/AMpfef8AbPk/5PQ5&#xA;Vi5u/wDaL+4H9cfdJ7vmQ8Y7FXYqleLlOxV2KuxV4f8AnJ/ylyf8wkX/ABJ8x8vN6/sP+4/zj+h6&#xA;V+W3/KEaV/qP/wAnXy3H9LoO1P8AGJ/joybJuvdirsVdirsVdirsVdirsVVbX+/X6f1YsZ8kfi47&#xA;sVdirsVdirsVdirsVdirsVYh+bn/AJL3Vf8Ao3/6iYshk+l2nYv+NQ+P+5Lzf8h/+UvvP+2fJ/ye&#xA;hyrFzd/7Rf3A/rj7pPd8yHjHYq7FUrxcp2KuxV2KvD/zk/5S5P8AmEi/4k+Y+Xm9f2H/AHH+cf0P&#xA;Svy2/wCUI0r/AFH/AOTr5bj+l0Han+MT/HRk2Tde7FWP+etdvtD8t3GoWSB7hSiKzCqpzbjzI9v1&#xA;5GZoOb2fp45sojLk8f8A+Vpee/8Aq5/8kLf/AKp5j+JJ6n+SNN/N+2X63f8AK0vPf/Vz/wCSFv8A&#xA;9U8fEkv8kab+b9sv1u/5Wl57/wCrn/yQt/8Aqnj4kl/kjTfzftl+t3/K0vPf/Vz/AOSFv/1Tx8SS&#xA;/wAkab+b9sv1u/5Wl57/AOrn/wAkLf8A6p4+JJf5I03837Zfrd/ytLz3/wBXP/khb/8AVPHxJL/J&#xA;Gm/m/bL9ba/mp59Rgy6pQjofQt/+qePiSQex9Mf4ftl+tU/5W5+YX/V1/wCne2/6pY+JJj/Iul/m&#xA;fbL9bv8Albn5hf8AV1/6d7b/AKpY+JJf5F0v8z7Zfrd/ytz8wv8Aq6/9O9t/1Sx8SS/yLpf5n2y/&#xA;W7/lbn5hf9XX/p3tv+qWPiSX+RdL/M+2X63f8rc/ML/q6/8ATvbf9UsfEkv8i6X+Z9sv1u/5W5+Y&#xA;X/V1/wCne2/6pY+JJf5F0v8AM+2X62S/l5+Z3m/UfNNnpuozi+trssjL6UaMlFLc1Map0pvXtk4Z&#xA;CS6/tPsnBjwmcBwmPmf0vasveSdirsVYh+bn/kvdV/6N/wDqJiyGT6Xadi/41D4/7kvN/wAh/wDl&#xA;L7z/ALZ8n/J6HKsXN3/tF/cD+uPuk93zIeMdirsVSvFynYq7FXYq8P8Azk/5S5P+YSL/AIk+Y+Xm&#xA;9f2H/cf5x/Q9K/Lb/lCNK/1H/wCTr5bj+l0Han+MT/HRk2Tde7FVk0MM0TwzIskUgKvG4DKwPUEH&#xA;YjFMZEGxzSz/AAn5V/6s1j/0jQ/804OEdzkfnM38+X+mLv8ACflX/qzWP/SND/zTjwjuX85m/ny/&#xA;0xd/hPyr/wBWax/6Rof+aceEdy/nM38+X+mLv8J+Vf8AqzWP/SND/wA048I7l/OZv58v9MXf4T8q&#xA;/wDVmsf+kaH/AJpx4R3L+czfz5f6Yu/wn5V/6s1j/wBI0P8AzTjwjuX85m/ny/0xVbbyj5UMyg6L&#xA;YEb7G2h8P9XHhHcxnrc1fXL/AExR3+DfKH/Vj0//AKRYf+acHCO5o/PZ/wCfP/TF3+DfKH/Vj0//&#xA;AKRYf+aceEdy/ns/8+f+mLv8G+UP+rHp/wD0iw/8048I7l/PZ/58/wDTF3+DfKH/AFY9P/6RYf8A&#xA;mnHhHcv57P8Az5/6Yu/wb5Q/6sen/wDSLD/zTjwjuX89n/nz/wBMXf4N8of9WPT/APpFh/5px4R3&#xA;L+ez/wA+f+mKJsNA0LT5TLYada2krDi0kEMcTEeBKKDhAAa8mpyTFSlKQ8ySjsLS7FXYqxD83P8A&#xA;yXuq/wDRv/1ExZDJ9LtOxf8AGofH/cl5v+Q//KX3n/bPk/5PQ5Vi5u/9ov7gf1x90nu+ZDxjsVdi&#xA;qV4uU7FXYq7FXh/5yf8AKXJ/zCRf8SfMfLzev7D/ALj/ADj+h6V+W3/KEaV/qP8A8nXy3H9LoO1P&#xA;8Yn+OjJsm692KuxV2KuxV2KuxV2KuxVVtf79fp/VixnyR+LjuxV2KuxV2KuxV2KuxV2KuxViH5uf&#xA;+S91X/o3/wComLIZPpdp2L/jUPj/ALkvN/yH/wCUvvP+2fJ/yehyrFzd/wC0X9wP64+6T3fMh4x2&#xA;KuxVK8XKdirsVdirw/8AOT/lLk/5hIv+JPmPl5vX9h/3H+cf0PSvy2/5QjSv9R/+Tr5bj+l0Han+&#xA;MT/HRk2Tde7FXYq7FXYq7FXYq7FUk1jzNBYyGCFPWuB9reir7HxOFrlkpKU87aqjhligqOlVf/mv&#xA;Gms5CUZa/mFeCQfW7aN4+/pclYD/AGRauNMLZlY31tfWqXNs/OJxt4g9wR4jAlXxV2KuxV2KuxV2&#xA;KuxV2KsQ/Nz/AMl7qv8A0b/9RMWQyfS7TsX/ABqHx/3Jeb/kP/yl95/2z5P+T0OVYubv/aL+4H9c&#xA;fdJ7vmQ8Y7FXYqleLlOxV2KuxV4f+cn/AClyf8wkX/EnzHy83r+w/wC4/wA4/oelflt/yhGlf6j/&#xA;APJ18tx/S6DtT/GJ/joybJuvdirsVdirsVQWp6vZ6fFymarn7ES/ab+z3wsZSAYheeZtVuJCUlME&#xA;f7KR7U+Z6nFpOQluy8z6pbt+8k+sR91k3P0N1xUZCEFZW8l9fxwljymf43777scWIFlmdr5R0Qui&#xA;PG79asXYE7e1MW2UAAgPNflexsLFbyyDIFYLKhJYUbod9+uLSk+keY73Sra4htwCZipVm3CEVBIH&#xA;idsVWHzJrpk5/XZeVa0rt/wPTFWSaD54WQrb6qQrHZboCin/AFwOnzGNKy5WVlDKQVIqCNwQcCW8&#xA;VdirsVdirsVYh+bn/kvdV/6N/wDqJiyGT6Xadi/41D4/7kvN/wAh/wDlL7z/ALZ8n/J6HKsXN3/t&#xA;F/cD+uPuk93zIeMdirsVQH1Sfw/EYt/GHfVJ/D8RivGHfVJ/D8RivGHfVJ/D8RivGHhn50RsnnBF&#xA;bY/VIj/wz5j5eb2PYRvB/nH9D038tLeVvI2lMBsY3pv/AMWvluP6Xn+1Zgamf46Mm+qT+H4jJuu4&#xA;w76pP4fiMV4w76pP4fiMV4w76pP4fiMV4wpXayW1rNcOvwQoztuOiiuK+IHnCre6rqIUfvLm4bYf&#xA;59ABhaCbZppPlCKyQPMi3FwerNQqv+qD+vFsjwhQ13yfJcj6xZRqk4+1ECFV/wCAOKJ0eSzQvJ99&#xA;ZXSXdw6FkB4xrvuwp128cVhQNsmgt5UlVmGwrXf2wM5TBDtX08ajp01mW4eqBR6VoQQwNNu4xaWG&#xA;R+QdS+uJHJIn1UmrzodwB24mm5w2imXR6BpCWQs/qsbQgUJYAsT/ADFutffAlhXmXyrJpgN1bt6l&#xA;kTQ1+0hPQHxHvhQmnkHVJn9bTpGLJGvqw1/ZFaMPlVhiVDMcCXYq7FXYq7FWIfm5/wCS91X/AKN/&#xA;+omLIZPpdp2L/jUPj/uS83/If/lL7z/tnyf8nocqxc3f+0X9wP64+6T3fMh4x2KuxV2KuxV2KuxV&#xA;4F+eP/KaJ/zBxf8AE3zHy83tfZ//ABf/ADj+h6p+V3/KBaR/xjf/AJOvluPk852v/jM/x0DKcm61&#xA;2KuxVxIAJJoBuScVY7rHmjQJLW5svXLtLG8fNFLKCwoN+h+jCrBdLvWsdQt7sCvpOGI8V6MPuxQ9&#xA;aikSWNJIzyRwGRh3BFQcCV2KuxV2KuxV2KuxVifn7UlS1i09ftzH1JPZF6fe36sIQUi8papYaZez&#xA;XF2zDlH6aBV5VqwJ/wCI4qz7TtW0/UUL2kwk4/aXcMPmpocCUXirsVdirsVYh+bn/kvdV/6N/wDq&#xA;JiyGT6Xadi/41D4/7kvN/wAh/wDlL7z/ALZ8n/J6HKsXN3/tF/cD+uPuk93zIeMdirsVdirsVdir&#xA;sVeBfnj/AMpon/MHF/xN8x8vN7X2f/xf/OP6Hqn5Xf8AKBaR/wAY3/5OvluPk852v/jM/wAdAynJ&#xA;utdirsVYh591WSNItOibj6o9SenUrWij5Eg4QgpFovla/wBVgaeNkihBKqz1+IjwAGKpnZ+Qb5by&#xA;P63JE1qDWT02bkQO26jrja0zhESNFRAFRAFVRsABsAMCULqeqWem2xuLp+K9FUbsx8FGKsG1Pztq&#xA;t0xW2P1SHsE3cj3Y/wAMNISoXGsT1cS3Evi3J2/HFVS217W7N/3d1KOPWNyWX/gWrirL9B86QXjr&#xA;bXyrBcNskg/u2Phv9k40rJsCUj8z+XRq0CvDxS9i2R22DLXdWI+8Yqx1Py/1YqS08CtTZQXP3njh&#xA;tFJJbz3ukanyFY7i3crIldjQ7qadQcVerQTRzwRzRmscqh0PswqMCV+KuxV2KsQ/Nz/yXuq/9G//&#xA;AFExZDJ9LtOxf8ah8f8Acl5v+Q//ACl95/2z5P8Ak9DlWLm7/wBov7gf1x90nu+ZDxjsVdirsVdi&#xA;rsVdirwL88f+U0T/AJg4v+JvmPl5va+z/wDi/wDnH9D1T8rv+UC0j/jG/wDydfLcfJ5ztf8Axmf4&#xA;6BlOTda7FXYq8t8z3TXOu3jN0jkMSjwEfw/wrhQ9E0SyFlpNrbd0QF/9Zvib8TgSjsVWySJHG0jn&#xA;iiAszHoABUnFXl2tarcaxqRkAYoTwtoR2UmgFB3PfChl+geTrS0jWe+RZ7sivBt0T2A6E++KWSAA&#xA;AACgHQDAqFvtMsL+Mx3UKyilAxHxD5MNxirzzzH5el0i4BUmS0lJ9KQ9Qf5Wp3/XhQyvyZrb39m1&#xA;tO3K5tgPiPVkPQn3HQ4lLIsCuxV5957svR1dbhfs3KAn/WT4T+FMIQWR+SbtrjQkVtzbu0VfYUYf&#xA;g2ApT7FXYq7FWIfm5/5L3Vf+jf8A6iYshk+l2nYv+NQ+P+5Lzf8AIf8A5S+8/wC2fJ/yehyrFzd/&#xA;7Rf3A/rj7pPd8yHjHYq7FXYq7FXYq7FXgX54/wDKaJ/zBxf8TfMfLze19n/8X/zj+h6p+V3/ACgW&#xA;kf8AGN/+Tr5bj5POdr/4zP8AHQMpybrXYq7FXm/nDSZrPVZbjifq90xkR+3Jt2U+9d8KEfofniSB&#xA;EttQQyxKAqzp9sAbDkP2saVnOBKS+cbloNAuOJo0pWMH2Y7/AIA4qxbyNYpcawZnFVtkLqP8sniP&#xA;44SgPQ8CXYq7FUu8w2SXmj3UTCrBDJGfB0HIf0xVgnk+5aDX7en2ZeUbjxDA0/4YDCh6ZgSlWv8A&#xA;mCDR4Y2eNpZZuXpINh8NK1Pb7WKvPdV1a+1e7WWehb7EUSA0AJ6AbmpwoeheWNMk07SI4ZRSZyZZ&#xA;R4M3b6ABgSmuKuxV2KsQ/Nz/AMl7qv8A0b/9RMWQyfS7TsX/ABqHx/3Jeb/kP/yl95/2z5P+T0OV&#xA;Yubv/aL+4H9cfdJ7vmQ8Y7FXYq7FXYq7FXYq8C/PH/lNE/5g4v8Aib5j5eb2vs//AIv/AJx/Q9U/&#xA;K7/lAtI/4xv/AMnXy3Hyec7X/wAZn+OgZTk3WuxV2KsH86+YJHmfS7egiSn1hqAlm68R4UwhCS6N&#xA;5f1TUnV7ePjCDvO+yCnh4/Rir1LAlIPO8Rk0CRh/uqRHP38f+NsQqRfl/cKmo3EBNDLEGX3KHp9z&#xA;YSgM8wJdirsVQurTpBpl1M/2Uic/M8SAPpOKvOfKsbSeYLML2csfkqkn9WFD1DAljvnLQ77U4bd7&#xA;QB2t+fKMmhYPx+zXb9nCrBrW5vdLv1lVTFcwndJF+8EHxxQ9Q0nUotR0+K7jHH1B8SfysNmH34Eo&#xA;vFXYq7FWIfm5/wCS91X/AKN/+omLIZPpdp2L/jUPj/uS83/If/lL7z/tnyf8nocqxc3f+0X9wP64&#xA;+6T3fMh4x2KuxV2KuxV2KuxV4F+eP/KaJ/zBxf8AE3zHy83tfZ//ABf/ADj+h6p+V3/KBaR/xjf/&#xA;AJOvluPk852v/jM/x0DKcm612KuxV5T5gjkj1u+V9mM7sPkzcl/A4UPTdMkgk062e3UJC0alFAoA&#xA;COmBKJxVRvbWO7tJraT7EyFCfCo6/Riry1WvdG1WtONzav0PQ/2MMKHpWkaxZ6paia3ajD+9iJ+J&#xA;D4H+BwJR2KuJAFT0xVgvnLzHFdD9H2b84Vas8o6MR0UeIGFCI8g6U49XUpBRWBigr33+Jvwp9+JU&#xA;MywJdirAvzAlgbUoI0A9VIqyMPBj8IPyp+OEIKd+Q4pE0Ms32ZJnaP8A1aKv61OJSGRYFdirsVYh&#xA;+bn/AJL3Vf8Ao3/6iYshk+l2nYv+NQ+P+5Lzf8h/+UvvP+2fJ/yehyrFzd/7Rf3A/rj7pPd8yHjH&#xA;Yq7FXYq7FXYq7FXgX54/8pon/MHF/wATfMfLze19n/8AF/8AOP6Hqn5Xf8oFpH/GN/8Ak6+W4+Tz&#xA;na/+Mz/HQMpybrXYq7FWCef7Ax3sN6q/BMvBz/lp0r81/VhCCv8ALHm2zsdP+p3ocekSYnUcgVY1&#xA;ofpOKp1Z+dNIuryO1RZUMp4rJIFC1PQbMTv0wUlPsVSTzJ5ah1aMSxkRXkYojnow/lb+BxVgU1vq&#xA;2j3fxiS1nX7LqSAR7MNiMKEyi8769GnFnjlP8zoK/wDC8caVBX/mPWb9THPcH0jsYkART7EL1+nF&#xA;Uy0Dydd3kiz3ytBaDfi2zv7Adh74qz+KKOGJYolCRoAqKNgAO2BKE1bVrXS7Q3NxUioVUWnJifCt&#xA;MVSpfPmhlSxEykfslBU/cxGGlthGo3k2qapLcBSXuHAjj6mmyqv3UxQ9R06zWzsILVf90oqkjuQN&#xA;z9JwJRGKuxV2KsQ/Nz/yXuq/9G//AFExZDJ9LtOxf8ah8f8Acl5v+Q//ACl95/2z5P8Ak9DlWLm7&#xA;/wBov7gf1x90nu+ZDxjsVdirsVdirsVdirwL88f+U0T/AJg4v+JvmPl5va+z/wDi/wDnH9D1T8rv&#xA;+UC0j/jG/wDydfLcfJ5ztf8Axmf46BlOTda7FXYqoX1jbX1s9tcpzifqO4PYg9iMVYZqHkOSBJZ4&#xA;btPq8as7eoCGCqKn7Na4bRTGLaCW4uI4IRWWVgiD3JoMVevW8TRQRxM5kaNFUyN1YgUqfc4Er8VW&#xA;ywwzIY5UWRD1RwGB+g4qlsnljQJG5NZRg/5NVH3KRiqJtdI0u0blb2scbjo4Ucv+CO+KovFXYqwz&#xA;8wbOflbXgYmEAxFOyt9oH/ZD9WEILHtE0SbVppIYZUjeNedHrutaGlAemKs00LyhaabKLmZ/rF0v&#xA;2DSip8hvv74EsgxV2KuxV2KsQ/Nz/wAl7qv/AEb/APUTFkMn0u07F/xqHx/3Jeb/AJD/APKX3n/b&#xA;Pk/5PQ5Vi5u/9ov7gf1x90nu+ZDxjsVdirsVdirsVdirwL88f+U0T/mDi/4m+Y+Xm9r7P/4v/nH9&#xA;D1T8rv8AlAtI/wCMb/8AJ18tx8nnO1/8Zn+OgZTk3WuxV2KuxVDapbvc6bdW6fblidE+ZUgYq8v0&#xA;q9Gn6nBdSRlxC/xx9D0IP0jCh6hp+pWeoW4ntZA6ftD9pT4MOxwJQ2t69Z6TAHm+OV/7uBT8Te/s&#xA;PfFVPSPM+manIIYS6XBBb0nWhoOtCKjFU2xVSurqC1t3uJ24QxirtQmg+QxVIk89aO94sAEiwtsb&#xA;hgAoPbbrT3w0rIgQQCDUHcEYFYb5z8wWM1q2m25E0nIGSQbqvE1oD3OEIQ/5fW0hv7m5p+6SL0yf&#xA;8p2DfqXEqGdYEuxV2KuxV2KsQ/Nz/wAl7qv/AEb/APUTFkMn0u07F/xqHx/3Jeb/AJD/APKX3n/b&#xA;Pk/5PQ5Vi5u/9ov7gf1x90nu+ZDxjsVdirsVdirsVdirwL88f+U0T/mDi/4m+Y+Xm9r7P/4v/nH9&#xA;D1T8rv8AlAtI/wCMb/8AJ18tx8nnO1/8Zn+OgZTk3WuxV2KuxV2KsZ8x+T4r5nu7IiK7O7xnZJD4&#xA;+zYUMLSXU9Ku2CtJa3C7MOhp7joRirVNS1S7LfHdXLCrHqaD9QGKq3l69Sy1m1uHPGMPxkPYK4Kk&#xA;n5Vrir1RWVlDKQyncMNwRgSxzzzfxRaQbQOPWuGUcAd+KnkT8qgYQrA4bS5millijZ44aGVlFeIa&#xA;tCfuxQrrrGqLafVFupBb0p6YY0p4V609sVR+heVr3U2ErgwWfeVhu3+oO/z6Yq9C0/T7WwtVtrZO&#xA;Ea7+JJPUk9zgSiMVdiq2QkRsR1AJH3YpHNBfW5/H8Bi3cAd9bn8fwGK8AYn+alxK/kLVFY7H0K7f&#xA;8vEeQyfS7PseAGpj8f8Acl59+SMjx+a7sqaH6hIP+S0WVYebvO3xeAf1h9xe2/W5/H8BmQ8hwB31&#xA;ufx/AYrwBv61NxrXv4DFeAI7FodirsVdirwL88f+U0T/AJg4v+JvmPl5va+z/wDi/wDnH9D1T8rv&#xA;+UC0j/jG/wDydfLcfJ5ztf8Axmf46BlOTda7FXYq7FXYq7FVKe0tbgAXEKTAdBIoYfiDircFtb26&#xA;8IIkiX+VFCj7hirCPMXk67juHudOj9a3kJYwr9pCeoA7jwphtDHzpWqKaGznBHUGN/6Yqr2nl3Wr&#xA;pwsdnIoP7cilF+9qYq9B8v6JHpNl6IIeeQ8p5B0J8B7DAlFHTNNMnqm0hMn8/pry++mKonFXYq7F&#xA;XYqtl/un/wBU/qxTHmluLkuxVin5pf8AKCan/wA8P+oiPIZPpdl2R/jMfj/uS8//ACU/5Sq6/wCY&#xA;GT/k9FlWHm7vt7+5H9b9Be15kPJOxVv9n6cVTPFxXYq7FXYq8C/PH/lNE/5g4v8Aib5j5eb2vs//&#xA;AIv/AJx/Q9U/K7/lAtI/4xv/AMnXy3Hyec7X/wAZn+OgZTk3WuxV2KuxV2KuxV2KuxV2KuxV2Kux&#xA;V2KuxV2KuxV2KrZf7p/9U/qxTHmluLkuxVin5pEDyLqVT19AD/pIjyGT6XZdkf4zH4/cWAfkp/yl&#xA;N1/zAyf8nosqw83d9vf3I/rfoL2rMh5J2Kt/s/TiqZ4uK7FXYq7FXiH586bJHr1hqIH7m5t/Rr/l&#xA;wuSf+FkGY+UbvYezuUHFKHUG/n/Yy/8AJXXIb3ymNOLD6zpkjIyd/TlYyI3yqWX6MsxHZ1fb2nMM&#xA;/H0n942egZY6N2KuxV2KuxV2KuxV2KuxV2KuxV2KuxV2KuxV2KuxVbL/AHT/AOqf1YpjzS3FyXYq&#xA;86/OfWYoNEg0pWBuLyQSOvhFFvU/N6U+RyrKdqd72FgJyGfSI+0pV+SGnyG41PUSCI1RLdD2JY82&#xA;+7iv35HCHJ7fyCow+L1rL3mXYq3+z9OKpni4rsVdirsVY7588pxeZvL81jUJdxn1rKU9FlUGgP8A&#xA;ksCVP39sjONhz+ztYdPlEv4eR9z5/wBF1nXfJ/mAzRqYLy2YxXVrINnWvxRuPA9iPmMxgTEvb58G&#xA;PVYqO8TuD+l7l5c/NTylrMKepdJp12R8dtdMEof8mQ0RvbevtmRHIC8bqux8+I7Dij3j9XNkn6Z0&#xA;f/lut/8Akan9clYcDwMn80/J36Z0j/lut/8Akan9cbC+Bk/mn5O/TOkf8t1v/wAjU/rjYXwMn80/&#xA;J36Z0j/lut/+Rqf1xsL4GT+afk79M6R/y3W//I1P642F8DJ/NPyd+mdI/wCW63/5Gp/XGwvgZP5p&#xA;+Tv0zpH/AC3W/wDyNT+uNhfAyfzT8nfpnSP+W63/AORqf1xsL4GT+afk79M6R/y3W/8AyNT+uNhf&#xA;AyfzT8nfpnSP+W63/wCRqf1xsL4GT+afk79M6R/y3W//ACNT+uNhfAyfzT8nfpnSP+W63/5Gp/XG&#xA;wvgZP5p+Tv0zpH/Ldb/8jU/rjYXwMn80/J36Z0j/AJbrf/kan9cbC+Bk/mn5O/TOkf8ALdb/API1&#xA;P642F8DJ/NPyd+mdI/5brf8A5Gp/XGwvgZP5p+S2XWdI9J/9Ot/sn/dqeHzxsJjgyX9J+SWnV9JA&#xA;JN7AANyTKn9cbDk+DP8Amn5Mb8xfmf5a0mF1tp11G8oeEFuwZK/5cgqoHyqfbIyyAOfpeyc2Q7jh&#xA;j5/qeOXd3rfmrXg7g3OoXjBIo12VR2VR+yqj+pzHJMi9VCGPTYu6MXvflPy9B5f0ODToyGkX47iU&#xA;ftyt9pv4D2GZMY0Hi9ZqTmyGZ+HuTjJOK7FW/wBn6cVTPFxXYq7FXYq7FWLec/y80TzTGJJwbbUE&#xA;HGK9jALU7K67B1/HwOQlAF2Wg7Tyac0N49345PJNX/JrzpYyN9Whj1GEdJIHVWp2qkhQ1+VcpOIv&#xA;T4e3dPMbkxPn+xKP+VceeP8AqzXH3D+uR4C5P8qab+eHf8q488f9Wa4+4f1x4Cv8qab+eHf8q488&#xA;f9Wa4+4f1x4Cv8qab+eHf8q488f9Wa4+4f1x4Cv8qab+eHf8q488f9Wa4+4f1x4Cv8qab+eHf8q4&#xA;88f9Wa4+4f1x4Cv8qab+eHf8q488f9Wa4+4f1x4Cv8qab+eHf8q488f9Wa4+4f1x4Cv8qab+eHf8&#xA;q488f9Wa4+4f1x4Cv8qab+eHf8q488f9Wa4+4f1x4Cv8qab+eHf8q488f9Wa4+4f1x4Cv8qab+eH&#xA;f8q488f9Wa4+4f1x4Cv8qab+eHf8q488f9Wa4+4f1x4Cv8qab+eHf8q488f9Wa4+4f1x4Cv8qab+&#xA;eHf8q488f9Wa4+4f1x4Cv8qab+eHf8q488f9Wa4+4f1x4Cv8qab+eHH8ufPABJ0e4oOuw/rjwFf5&#xA;U0388LP8Aecv+rTP9w/rh4Cy/lLT/wA8JvpP5Rea7yRfrix6fDX4nkdXen+SkZbf5kYRiLi5u2sM&#xA;R6bkfx3vU/KnknRvLcJFoplu5BSa7koXYeA7KvsPprl8YAPOazX5M59W0e5kGScJ2KuxVv8AZ+nF&#xA;UzxcV2KuxV2KuxV2KuxV2KuxV2KuxV2KuxV2KuxV2KuxV2KuxV2KuxV2KuxVbL/dP/qn9WKY80tx&#xA;cl2KuxV2KuxV2Kt/s/Tir//Z</xmpGImg:image>
               </rdf:li>
            </rdf:Alt>
         </xmp:Thumbnails>
         <pdf:Producer>Adobe PDF library 15.00</pdf:Producer>
         <dc:format>image/svg+xml</dc:format>
         <xmpTPg:MaxPageSize rdf:parseType="Resource">
            <stDim:w>24.852983</stDim:w>
            <stDim:h>26.111730</stDim:h>
            <stDim:unit>Millimeters</stDim:unit>
         </xmpTPg:MaxPageSize>
         <xmpTPg:NPages>1</xmpTPg:NPages>
         <xmpTPg:HasVisibleTransparency>False</xmpTPg:HasVisibleTransparency>
         <xmpTPg:HasVisibleOverprint>False</xmpTPg:HasVisibleOverprint>
         <xmpTPg:PlateNames>
            <rdf:Seq>
               <rdf:li>Cyan</rdf:li>
               <rdf:li>Magenta</rdf:li>
               <rdf:li>Yellow</rdf:li>
               <rdf:li>Black</rdf:li>
            </rdf:Seq>
         </xmpTPg:PlateNames>
         <xmpTPg:SwatchGroups>
            <rdf:Seq>
               <rdf:li rdf:parseType="Resource">
                  <xmpG:groupName>Группа образцов по умолчанию</xmpG:groupName>
                  <xmpG:groupType>0</xmpG:groupType>
               </rdf:li>
            </rdf:Seq>
         </xmpTPg:SwatchGroups>
      </rdf:Description>
   </rdf:RDF>
</x:xmpmeta>
                                                                                                    
                                                                                                    
                                                                                                    
                                                                                                    
                                                                                                    
                                                                                                    
                                                                                                    
                                                                                                    
                                                                                                    
                                                                                                    
                                                                                                    
                                                                                                    
                                                                                                    
                                                                                                    
                                                                                                    
                                                                                                    
                                                                                                    
                                                                                                    
                                                                                                    
                                                                                                    
                           
<?xpacket end="w"?>
	</metadata>
<rect y="0" fill="#FCE9F0" width="36.419" height="36.35"/>
<rect x="55.261" y="58.537" fill="#FCE9F0" width="15.188" height="15.481"/>
<g>
	<defs>
		<rect id="SVGID_1_" y="0.001" width="70.449" height="74.017"/>
	</defs>
	<clipPath id="SVGID_2_">
		<use xlink:href="#SVGID_1_"  overflow="visible"/>
	</clipPath>
	<path clip-path="url(#SVGID_2_)" fill="none" stroke="#D63F5A" stroke-width="2" d="M56.99,70.269H16.892
		c-3.226,0-5.865-2.639-5.865-5.865V14.035c0-3.226,2.639-5.866,5.865-5.866H56.99c3.226,0,5.865,2.64,5.865,5.866v50.369
		C62.855,67.63,60.216,70.269,56.99,70.269z"/>
	
		<line clip-path="url(#SVGID_2_)" fill="none" stroke="#D63F5A" stroke-width="2" stroke-linecap="round" x1="21.089" y1="18.175" x2="51.748" y2="18.175"/>
	
		<line clip-path="url(#SVGID_2_)" fill="none" stroke="#D63F5A" stroke-width="2" stroke-linecap="round" x1="21.089" y1="24.745" x2="51.748" y2="24.745"/>
	<path clip-path="url(#SVGID_2_)" fill="#B1B3B5" d="M37.467,32.975c0.611,0,1.114,0.478,1.145,1.087l0.341,1.745
		c0.595,0.14,1.179,0.33,1.742,0.566l1.272-1.181c0.216-0.267,0.545-0.425,0.891-0.425c0.243,0,0.476,0.076,0.673,0.219l1.696,1.232
		c0.248,0.18,0.411,0.446,0.459,0.748c0.045,0.282-0.016,0.565-0.171,0.803l-0.723,1.583c0.401,0.464,0.762,0.962,1.081,1.485
		l1.746-0.198c0.097-0.026,0.196-0.039,0.296-0.039c0.498,0,0.936,0.318,1.09,0.792l0.648,1.994c0.189,0.583-0.116,1.21-0.682,1.425
		l-1.534,0.846c0.024,0.303,0.037,0.609,0.037,0.913s-0.013,0.61-0.037,0.912c1.76,0.961,1.781,0.976,1.82,1.006
		c0.02,0.015,0.051,0.042,0.062,0.051c0.001,0.001,0.002,0.001,0.002,0.002c0.343,0.303,0.473,0.779,0.332,1.213
		c-0.683,2.092-0.691,2.108-0.714,2.156c-0.196,0.389-0.589,0.63-1.025,0.63H47.9c-0.034,0-0.083-0.001-2.029-0.234
		c-0.318,0.522-0.679,1.019-1.079,1.482l0.723,1.583c0.155,0.238,0.216,0.521,0.171,0.803c-0.048,0.302-0.211,0.568-0.459,0.748
		l-1.696,1.233c-0.197,0.143-0.43,0.218-0.673,0.218c-0.346,0-0.675-0.157-0.892-0.425l-1.27-1.181
		c-0.564,0.237-1.148,0.426-1.743,0.566l-0.341,1.745c-0.003,0.058-0.01,0.115-0.022,0.171c-0.04,0.198-0.132,0.381-0.267,0.532
		c-0.01,0.012-0.021,0.023-0.032,0.034c-0.005,0.006-0.01,0.011-0.014,0.015c-0.217,0.217-0.504,0.335-0.81,0.335H35.37
		c-0.343,0-0.665-0.151-0.884-0.417c-0.156-0.189-0.248-0.425-0.26-0.669l-0.342-1.746c-0.595-0.14-1.178-0.329-1.742-0.566
		l-1.271,1.181c-0.216,0.268-0.545,0.425-0.891,0.425c-0.243,0-0.476-0.075-0.674-0.218l-1.696-1.233
		c-0.247-0.18-0.411-0.446-0.458-0.748c-0.045-0.282,0.015-0.565,0.17-0.803l0.723-1.583c-0.4-0.464-0.762-0.961-1.08-1.484
		l-1.747,0.198c-0.096,0.026-0.195,0.038-0.295,0.038c-0.498,0-0.936-0.318-1.09-0.792l-0.648-1.994
		c-0.094-0.291-0.07-0.601,0.069-0.874c0.13-0.256,0.346-0.449,0.612-0.551l1.535-0.845c-0.025-0.303-0.038-0.61-0.038-0.914
		s0.013-0.61,0.038-0.913l-1.535-0.846c-0.12-0.045-0.23-0.11-0.329-0.193c-0.013-0.012-0.026-0.023-0.039-0.035
		c-0.005-0.005-0.01-0.01-0.016-0.015c-0.315-0.302-0.432-0.766-0.297-1.182l0.648-1.994c0.118-0.363,0.408-0.643,0.776-0.748
		c0.102-0.029,0.208-0.044,0.314-0.044c0.099,0,0.199,0.013,0.295,0.039l1.747,0.198c0.318-0.523,0.68-1.021,1.08-1.485
		l-0.723-1.583c-0.155-0.238-0.215-0.521-0.17-0.803c0.047-0.302,0.211-0.568,0.458-0.748l1.696-1.232
		c0.198-0.143,0.431-0.219,0.674-0.219c0.346,0,0.675,0.158,0.891,0.425l1.271,1.181c0.564-0.236,1.147-0.426,1.742-0.566
		l0.342-1.745c0.012-0.245,0.104-0.481,0.26-0.67c0.035-0.042,0.073-0.082,0.113-0.119c0.212-0.193,0.486-0.298,0.771-0.298H37.467
		 M37.467,30.975H35.37c-0.784,0-1.535,0.291-2.116,0.818c-0.112,0.101-0.216,0.211-0.311,0.326
		c-0.378,0.458-0.621,1.024-0.695,1.614c-0.592-0.617-1.404-0.966-2.268-0.966c-0.669,0-1.308,0.208-1.849,0.601L26.434,34.6
		c-0.679,0.494-1.126,1.223-1.258,2.053c-0.109,0.693,0.014,1.396,0.349,2.005c-0.198-0.038-0.4-0.058-0.602-0.058
		c-0.293,0-0.583,0.041-0.864,0.121c-1.009,0.288-1.804,1.055-2.128,2.053l-0.648,1.994c-0.371,1.141-0.051,2.414,0.815,3.244
		l0.023,0.022l0.04,0.037c0.018,0.016,0.055,0.049,0.092,0.079c0.197,0.166,0.414,0.307,0.647,0.42
		c-0.614,0.298-1.115,0.788-1.428,1.402c-0.381,0.749-0.449,1.601-0.189,2.4l0.648,1.994c0.422,1.301,1.625,2.174,2.992,2.174
		c0.202,0,0.404-0.019,0.602-0.058c-0.335,0.61-0.458,1.313-0.349,2.005c0.132,0.83,0.579,1.559,1.258,2.053l1.697,1.232
		c0.541,0.394,1.18,0.601,1.849,0.601c0.864,0,1.677-0.349,2.268-0.965c0.074,0.589,0.317,1.155,0.696,1.614
		c0.599,0.726,1.484,1.143,2.426,1.143h2.097c0.839,0,1.628-0.326,2.222-0.919l0.021-0.02l0.034-0.036
		c0.016-0.016,0.046-0.048,0.077-0.083c0.365-0.41,0.618-0.915,0.729-1.456c0.016-0.081,0.029-0.162,0.039-0.243
		c0.592,0.617,1.405,0.965,2.269,0.965c0.668,0,1.308-0.207,1.849-0.601l1.696-1.232c0.68-0.494,1.127-1.223,1.258-2.053
		c0.109-0.689-0.013-1.388-0.343-1.996c0.416,0.047,0.465,0.048,0.556,0.049h0.001c1.237,0,2.313-0.664,2.85-1.732
		c0.1-0.198,0.1-0.198,0.829-2.434c0.383-1.179,0.04-2.467-0.872-3.299l-0.015-0.015l-0.041-0.035
		c-0.018-0.016-0.103-0.087-0.155-0.126c-0.106-0.081-0.15-0.114-0.534-0.328c1.401-0.678,2.108-2.295,1.618-3.803l-0.648-1.994
		c-0.423-1.3-1.625-2.174-2.992-2.174c-0.202,0-0.404,0.02-0.602,0.058c0.334-0.609,0.458-1.312,0.348-2.005
		c-0.131-0.83-0.578-1.559-1.258-2.053l-1.696-1.232c-0.541-0.393-1.18-0.601-1.849-0.601c-0.864,0-1.677,0.349-2.268,0.965
		C40.397,32.169,39.067,30.975,37.467,30.975"/>
	<path clip-path="url(#SVGID_2_)" fill="none" stroke="#B1B3B5" stroke-width="2" stroke-miterlimit="10" d="M36.419,52.682
		c-1.632,0-3.167-0.636-4.321-1.79c-1.155-1.154-1.79-2.689-1.79-4.321c0-1.633,0.635-3.167,1.79-4.322
		c1.154-1.154,2.689-1.79,4.321-1.79s3.167,0.636,4.321,1.79c1.154,1.155,1.79,2.689,1.79,4.322c0,1.632-0.636,3.167-1.79,4.321
		S38.051,52.682,36.419,52.682z"/>
</g>
</svg>
