<?xml version="1.0" encoding="utf-8"?>
<!-- Generator: Adobe Illustrator 17.0.0, SVG Export Plug-In . SVG Version: 6.00 Build 0)  -->
<!DOCTYPE svg PUBLIC "-//W3C//DTD SVG 1.1//EN" "http://www.w3.org/Graphics/SVG/1.1/DTD/svg11.dtd">
<svg version="1.1" id="Слой_1" xmlns="http://www.w3.org/2000/svg" xmlns:xlink="http://www.w3.org/1999/xlink" x="0px" y="0px"
	 width="87.874px" height="82.205px" viewBox="-8.712 -4.093 87.874 82.205" enable-background="new -8.712 -4.093 87.874 82.205"
	 xml:space="preserve">
<metadata><?xpacket begin="﻿" id="W5M0MpCehiHzreSzNTczkc9d"?>
<x:xmpmeta xmlns:x="adobe:ns:meta/" x:xmptk="Adobe XMP Core 5.5-c014 79.151739, 2013/04/03-12:12:15        ">
   <rdf:RDF xmlns:rdf="http://www.w3.org/1999/02/22-rdf-syntax-ns#">
      <rdf:Description rdf:about=""
            xmlns:xmpMM="http://ns.adobe.com/xap/1.0/mm/"
            xmlns:stRef="http://ns.adobe.com/xap/1.0/sType/ResourceRef#"
            xmlns:stEvt="http://ns.adobe.com/xap/1.0/sType/ResourceEvent#"
            xmlns:xmp="http://ns.adobe.com/xap/1.0/"
            xmlns:xmpGImg="http://ns.adobe.com/xap/1.0/g/img/"
            xmlns:pdf="http://ns.adobe.com/pdf/1.3/"
            xmlns:dc="http://purl.org/dc/elements/1.1/"
            xmlns:xmpTPg="http://ns.adobe.com/xap/1.0/t/pg/"
            xmlns:stDim="http://ns.adobe.com/xap/1.0/sType/Dimensions#"
            xmlns:xmpG="http://ns.adobe.com/xap/1.0/g/">
         <xmpMM:RenditionClass>proof:pdf</xmpMM:RenditionClass>
         <xmpMM:DocumentID>xmp.did:a816e739-bd51-4c13-9cc7-1b992e8f2bbe</xmpMM:DocumentID>
         <xmpMM:InstanceID>xmp.iid:a816e739-bd51-4c13-9cc7-1b992e8f2bbe</xmpMM:InstanceID>
         <xmpMM:OriginalDocumentID>uuid:3aba4013-ae3e-6c4f-ab0b-96f78feae8dc</xmpMM:OriginalDocumentID>
         <xmpMM:DerivedFrom rdf:parseType="Resource">
            <stRef:instanceID>uuid:cea809dc-8a22-0f40-a042-8bd5499e5ac5</stRef:instanceID>
            <stRef:documentID>uuid:3aba4013-ae3e-6c4f-ab0b-96f78feae8dc</stRef:documentID>
            <stRef:originalDocumentID>uuid:3aba4013-ae3e-6c4f-ab0b-96f78feae8dc</stRef:originalDocumentID>
            <stRef:renditionClass>proof:pdf</stRef:renditionClass>
         </xmpMM:DerivedFrom>
         <xmpMM:History>
            <rdf:Seq>
               <rdf:li rdf:parseType="Resource">
                  <stEvt:action>saved</stEvt:action>
                  <stEvt:instanceID>xmp.iid:a816e739-bd51-4c13-9cc7-1b992e8f2bbe</stEvt:instanceID>
                  <stEvt:when>2017-11-04T09:25:37+02:00</stEvt:when>
                  <stEvt:softwareAgent>Adobe Illustrator CC (Macintosh)</stEvt:softwareAgent>
                  <stEvt:changed>/</stEvt:changed>
               </rdf:li>
            </rdf:Seq>
         </xmpMM:History>
         <xmp:CreateDate>2017-11-04T09:25:37+02:00</xmp:CreateDate>
         <xmp:CreatorTool>Adobe Illustrator CC (Macintosh)</xmp:CreatorTool>
         <xmp:ModifyDate>2017-11-04T09:25:37+02:00</xmp:ModifyDate>
         <xmp:MetadataDate>2017-11-04T09:25:37+02:00</xmp:MetadataDate>
         <xmp:Thumbnails>
            <rdf:Alt>
               <rdf:li rdf:parseType="Resource">
                  <xmpGImg:width>244</xmpGImg:width>
                  <xmpGImg:height>256</xmpGImg:height>
                  <xmpGImg:format>JPEG</xmpGImg:format>
                  <xmpGImg:image>/9j/4AAQSkZJRgABAgEASABIAAD/7QAsUGhvdG9zaG9wIDMuMAA4QklNA+0AAAAAABAASAAAAAEA&#xA;AQBIAAAAAQAB/+4ADkFkb2JlAGTAAAAAAf/bAIQABgQEBAUEBgUFBgkGBQYJCwgGBggLDAoKCwoK&#xA;DBAMDAwMDAwQDA4PEA8ODBMTFBQTExwbGxscHx8fHx8fHx8fHwEHBwcNDA0YEBAYGhURFRofHx8f&#xA;Hx8fHx8fHx8fHx8fHx8fHx8fHx8fHx8fHx8fHx8fHx8fHx8fHx8fHx8fHx8f/8AAEQgBAAD0AwER&#xA;AAIRAQMRAf/EAaIAAAAHAQEBAQEAAAAAAAAAAAQFAwIGAQAHCAkKCwEAAgIDAQEBAQEAAAAAAAAA&#xA;AQACAwQFBgcICQoLEAACAQMDAgQCBgcDBAIGAnMBAgMRBAAFIRIxQVEGE2EicYEUMpGhBxWxQiPB&#xA;UtHhMxZi8CRygvElQzRTkqKyY3PCNUQnk6OzNhdUZHTD0uIIJoMJChgZhJRFRqS0VtNVKBry4/PE&#xA;1OT0ZXWFlaW1xdXl9WZ2hpamtsbW5vY3R1dnd4eXp7fH1+f3OEhYaHiImKi4yNjo+Ck5SVlpeYmZ&#xA;qbnJ2en5KjpKWmp6ipqqusra6voRAAICAQIDBQUEBQYECAMDbQEAAhEDBCESMUEFURNhIgZxgZEy&#xA;obHwFMHR4SNCFVJicvEzJDRDghaSUyWiY7LCB3PSNeJEgxdUkwgJChgZJjZFGidkdFU38qOzwygp&#xA;0+PzhJSktMTU5PRldYWVpbXF1eX1RlZmdoaWprbG1ub2R1dnd4eXp7fH1+f3OEhYaHiImKi4yNjo&#xA;+DlJWWl5iZmpucnZ6fkqOkpaanqKmqq6ytrq+v/aAAwDAQACEQMRAD8A9L4uW7FXYq7FXYq7FXYq&#xA;7FXYq7FXYq7FXYq7FXYqqW398v0/qxY5OSOxcZ2KuxV2KuxV2KuxV2KuxV2KuxV2KuxV2KuxVLcX&#xA;LdirsVdirsVdirsVdirsVdirsVdirsVdirsVVLb++X6f1YscnJHYuM7FXYq7FXYq7FXYq7FXYq7F&#xA;XYq7FXYq7FXYqluLluxV2KuxV2KuxV2KuxV2KuxV2KuxV2KuxV2Kqlt/fL9P6sWOTkjsXGdirsVd&#xA;irsVdirsVdirsVdirsVdirsVdirsVS3Fy3Yq7FXYq7FWI+cfzD07QCbSFRd6nSphBokdRsZG/wCN&#xA;Rv8ALKsmUR97uuzexp6j1H04+/v9363mGp/mF5tv3Ja/e2Q9I7b9yB9K/H97ZjHLI9XrMHY+mxj6&#xA;BL+tv+xADVfM5FReXpB6H1Jf65HiLk/l8H82HyDf6V80f8tl9/yMm/rjxFfy+n/mw+Qd+lfNH/LZ&#xA;ff8AIyb+uPEV/L6f+bD5B36V80f8tl9/yMm/rjxFfy+n/mw+Qd+lfNH/AC2X3/Iyb+uPEV/L6f8A&#xA;mw+Qd+lfNH/LZff8jJv648RX8vp/5sPkHfpXzR/y2X3/ACMm/rjxFfy+n/mw+Qd+lfNH/LZff8jJ&#xA;v648RX8vp/5sPkHDVfNIO15fV/4yTf1x4ig6fT/zYfIN/pfzX/y23/8AyNm/rh4pI/Lab+bD5Rd+&#xA;l/Nf/Lbf/wDI2b+uPFJfy2m/mw+UXfpfzX/y23//ACNm/rjxSX8tpv5sPlF36X81/wDLbf8A/I2b&#xA;+uPFJfy2m/mw+UXfpfzX/wAtt/8A8jZv648Ul/Lab+bD5Rd+l/Nf/Lbf/wDI2b+uPFJfy2m/mw+U&#xA;XfpfzX/y23//ACNm/rjxSX8tpv5sPlF36X81/wDLbf8A/I2b+uPFJfy2m/mw+UXHWfNajkb6/ULu&#xA;W9WYUp364OKS/ldMf4YfKKaaR+ZvnLTZFP19ryIfahu/3wb/AGR+P7myUcsg4mp7C0uUfTwnvjt+&#xA;z7Hrnkr8xNK8zL9X4/VNTReT2rGoYDq0bbch7dR+OZWPKJPF9qdi5NL6vqx9/wCtlmWOmdirsVdi&#xA;qW4uW7FXYq7FWOee/M36A0J54iPrs59G0B3oxG70/wAgb/OmV5J8Idp2TofzGYA/QNz+r4vHfLXl&#xA;3UfM2sGBHO5Mt5dPVuKk7sfFmPTxzEhEyL2+u1kNLi4iPIB7XoPk/QNEiUWdspnH2rqQB5SfHkfs&#xA;/JaDMyOMB4PV9pZs59Utu4cvx706ybgOxV2KuxV2KuxV2KuxVUtv75fp/Vixyckdi4zsVdirsVdi&#xA;rsVdirsVdirHfMnkPy5r8Li4tlhuyPgvIQElB7VI+2PZshLGC7PQ9r59OfTK4/zTy/Z8HhWu6LrH&#xA;lPXhA7mO5gYS2l1HUB1r8Lr924zDlExL6FpNVi1mGwLidiD9z3nyR5mTzH5fgvyAtyv7q7QdBKgF&#xA;aezAhh88zMc+IW+d9q6E6XMYfw8x7vxsn2Tdc7FXYqluLluxV2KuxV4/+cl7JJrtnZ1PpW9vzA7c&#xA;pXPI/ci5iZzu9t7NYgMMpdTL7v7WXflVpcVp5ViuQv76+d5ZG70ViiD7lr9OW4RUXS+0Gcz1Bj0g&#xA;K/SzLLnRuxV2KuxV2KuxV2KuxV2Kqlt/fL9P6sWOTkjsXGdirsVdirsVdirsVdirsVdirz386tJh&#xA;uPLUWo0AnsZlAbv6cvwsv/BcTlGcbW9L7L6gxzmHSY+0fgpB+Rd863+qWBPwSRJOB4GNuB+/1BkN&#xA;OdyHZe1mIcEJ9xI+f9j2HMp4h2KuxVLcXLdirsVdirxb83v+UrT/AJhY/wDiT5h5/qe79nP8W/zj&#xA;+h6N+Xn/AChmmf6j/wDJxsyMX0h5jtr/ABqfvH3BkeWOrdirsVdirsVdirsVdirsVVLb++X6f1Ys&#xA;cnJHYuM7FXYq7FXYq7FXYq7FXYq7FWJ/mt/ygOqf88P+omPK830l3Ps//jsP87/cl55+R/8Ayll3&#xA;/wAwEn/J6HKMH1PTe1X+LR/rj/cye35lvAOxV2Kpbi5bsVdirsVeLfm9/wApWn/MLH/xJ8w8/wBT&#xA;3fs5/i3+cf0PRvy8/wCUM0z/AFH/AOTjZkYvpDzHbX+NT94+4Mjyx1bsVSjzV5gTQNFm1ExGZkKp&#xA;HHWgLuaCp8MhOXCLc7s/RnUZRC6ecH85tcrtY2tP+en/ADVmP+YL0/8AoZw/zpfZ+pr/AJXNrv8A&#xA;yw2v/JT/AJqx/MFP+hnD/Ol9n6nf8rm13/lhtf8Akp/zVj+YK/6GcP8AOl9n6nf8rm13/lhtf+Sn&#xA;/NWP5gr/AKGcP86X2fqd/wArm13/AJYbX/kp/wA1Y/mCv+hnD/Ol9n6nf8rm13/lhtf+Sn/NWP5g&#xA;r/oZw/zpfZ+pcn5068jBhY2tR/xk/wCasfzBYy9mMJH1S+z9St/yvLzD/wAsFp/yV/5rx/MFh/oU&#xA;wfz5/Z+p3/K8vMP/ACwWn/JX/mvH8wV/0KYP58/s/U7/AJXl5h/5YLT/AJK/814/mCv+hTB/Pn9n&#xA;6nf8ry8w/wDLBaf8lf8AmvH8wV/0KYP58/s/U7/leXmH/lgtP+Sv/NeP5gr/AKFMH8+f2fqd/wAr&#xA;y8w/8sFp/wAlf+a8fzBX/Qpg/nz+z9Sd+TvzcvdY1230zULKKNbolI5oC3wvQkclYtUGlMnDNZou&#xA;v7T9nIYcJyQkTw9C9OzIeTdirsVYn+a3/KA6p/zw/wComPK830l3Ps//AI7D/O/3Jeefkf8A8pZd&#xA;/wDMBJ/yehyjB9T03tV/i0f64/3Mnt+ZbwDsVdiqW4uW7FXYq7FXi35vf8pWn/MLH/xJ8w8/1Pd+&#xA;zn+Lf5x/Q9G/Lz/lDNM/1H/5ONmRi+kPMdtf41P3j7gyPLHVuxVDajptlqVlLZXsQmtphR4zUdNw&#xA;QRuCD0IwEAii3YM88UxOBqQY3/yq3yZ/yyP/AMjpP+asr8GLtP5f1X84fIO/5Vb5M/5ZH/5HSf8A&#xA;NWPgxX+X9V/OHyDv+VW+TP8Alkf/AJHSf81Y+DFf5f1X84fIO/5Vb5M/5ZH/AOR0n/NWPgxX+X9V&#xA;/OHyDv8AlVvkz/lkf/kdJ/zVj4MV/l/Vfzh8g7/lVvkz/lkf/kdJ/wA1Y+DFf5f1X84fIL4fyq8l&#xA;PKFNm9DX/d0vh/rY+DFjP2g1YH1D5BFf8qj8jf8ALHJ/yOl/5qx8GLR/oj1n84f6UO/5VH5G/wCW&#xA;OT/kdL/zVj4MV/0R6z+cP9KHf8qj8jf8scn/ACOl/wCasfBiv+iPWfzh/pQ7/lUfkb/ljk/5HS/8&#xA;1Y+DFf8ARHrP5w/0od/yqPyN/wAscn/I6X/mrHwYr/oj1n84f6UO/wCVR+Rv+WOT/kdL/wA1Y+DF&#xA;f9Ees/nD/ShMNE/L7ypot8t9Y2fG6QERyO7yceQoeIYkA0NK5KOOI3Dj6rtnU54cE5en3AMiybq3&#xA;Yq7FWJ/mt/ygOqf88P8AqJjyvN9Jdz7P/wCOw/zv9yXnn5H/APKWXf8AzASf8nocowfU9N7Vf4tH&#xA;+uP9zJ7fmW8A7FXYqluLluxV2KuxV4t+b3/KVp/zCx/8SfMPP9T3fs5/i3+cf0PRvy8/5QzTP9R/&#xA;+TjZkYvpDzHbX+NT94+4Mjyx1bsVdirsVdirsVdirsVdiqpbf3y/T+rFjk5I7FxnYq7FXYq7FXYq&#xA;7FXYq7FXYqxP81v+UB1T/nh/1Ex5Xm+ku59n/wDHYf53+5Lzz8j/APlLLv8A5gJP+T0OUYPqem9q&#xA;v8Wj/XH+5k9vzLeAdirsVS3Fy3Yq7FXYq8W/N7/lK0/5hY/+JPmHn+p7v2c/xb/OP6Ho35ef8oZp&#xA;n+o//JxsyMX0h5jtr/Gp+8fcGR5Y6t2KpD531u90Xy7cX9kgadSiKzCqpzYLyI9v15DJIgWHY9la&#xA;WGfOIT5fe8l/5Wb53/6uX/JC3/6p5i+NLvey/kLSfzP9lL9bv+Vm+d/+rl/yQt/+qePjS71/kLSf&#xA;zP8AZS/W7/lZvnf/AKuX/JC3/wCqePjS71/kLSfzP9lL9bv+Vm+d/wDq5f8AJC3/AOqePjS71/kL&#xA;SfzP9lL9bv8AlZvnf/q5f8kLf/qnj40u9f5C0n8z/ZS/W7/lZvnf/q5f8kLf/qnj40u9f5C0n8z/&#xA;AGUv1tr+Z/nlWDLqVCP+KLf/AKp4+NLvU9g6Q/wf7KX61T/la3n7/q6f8kLb/qnj40u9h/of0X8z&#xA;/ZS/W7/la3n7/q6f8kLb/qnj40u9f9D+i/mf7KX63f8AK1vP3/V0/wCSFt/1Tx8aXev+h/RfzP8A&#xA;ZS/W7/la3n7/AKun/JC2/wCqePjS71/0P6L+Z/spfrd/ytbz9/1dP+SFt/1Tx8aXev8Aof0X8z/Z&#xA;S/W7/la3n7/q6f8AJC2/6p4+NLvX/Q/ov5n+yl+tkXkH8yfNmoeZrTTtQmF7b3RZGX0o0ZKKW5gx&#xA;qnSm9e2Tx5ZE0XWdr9iabHp5TgOGUfMm/Le3seZTw7sVdirE/wA1v+UB1T/nh/1Ex5Xm+ku59n/8&#xA;dh/nf7kvPPyP/wCUsu/+YCT/AJPQ5Rg+p6b2q/xaP9cf7mT2/Mt4B2KuxVLcXLdirsVdirxb83v+&#xA;UrT/AJhY/wDiT5h5/qe79nP8W/zj+h6N+Xn/AChmmf6j/wDJxsyMX0h5jtr/ABqfvH3BkeWOrdiq&#xA;yWKKaJopkWSJwVeNwGVgeoIOxxZRkYmwaKXf4W8sf9Wiy/6Rov8AmnI8Ee5yvz+o/wBUn/pj+t3+&#xA;FvLH/Vosv+kaL/mnHgj3L+f1H+qT/wBMf1u/wt5Y/wCrRZf9I0X/ADTjwR7l/P6j/VJ/6Y/rd/hb&#xA;yx/1aLL/AKRov+aceCPcv5/Uf6pP/TH9bv8AC3lj/q0WX/SNF/zTjwR7l/P6j/VJ/wCmP63f4W8s&#xA;f9Wiy/6Rov8AmnHgj3L+f1H+qT/0x/WqW/lTyuZlB0exI32NtD4f6uPBHuYT7Q1Ff3k/9Mf1oz/C&#xA;PlP/AKsth/0iw/8ANOPBHuaP5R1P+qT/ANNL9bv8I+U/+rLYf9IsP/NOPBHuX+UdT/qk/wDTS/W7&#xA;/CPlP/qy2H/SLD/zTjwR7l/lHU/6pP8A00v1u/wj5T/6sth/0iw/8048Ee5f5R1P+qT/ANNL9bv8&#xA;I+U/+rLYf9IsP/NOPBHuX+UdT/qk/wDTS/W7/CPlP/qy2H/SLD/zTjwR7l/lHU/6pP8A00v1omx0&#xA;LRLCUy2On21pKw4tJBDHGxHhVQDhEQOTVl1eXIKnOUh5klG4XHdirsVYn+a3/KA6p/zw/wComPK8&#xA;30l3Ps//AI7D/O/3Jeefkf8A8pZd/wDMBJ/yehyjB9T03tV/i0f64/3Mnt+ZbwDsVdiqW4uW7FXY&#xA;q7FXi35vf8pWn/MLH/xJ8w8/1Pd+zn+Lf5x/Q9G/Lz/lDNM/1H/5ONmRi+kPMdtf41P3j7gyPLHV&#xA;uxV2KuxV2KuxV2KuxV2Kqlt/fL9P6sWOTkjsXGdirsVdirsVdirsVdirsVdirE/zW/5QHVP+eH/U&#xA;THleb6S7n2f/AMdh/nf7kvPPyP8A+Usu/wDmAk/5PQ5Rg+p6b2q/xaP9cf7mT2/Mt4B2KuxVLcXL&#xA;dirsVdirxb83v+UrT/mFj/4k+Yef6nu/Zz/Fv84/oejfl5/yhmmf6j/8nGzIxfSHmO2v8an7x9wZ&#xA;Hljq3Yq7FXYq7FXYq7FXYqkmseZ4LGQwQp61wv296Kvz8Ti1zyUlCedtVRwyxQVHSqv/AM14aajk&#xA;JCMtfzBvBIPrVtG8ff0uSsB/si1caYWzGxvra+tUubZ+cTjbxB7gjxGBKvirsVdirsVdirsVdirs&#xA;VYn+a3/KA6p/zw/6iY8rzfSXc+z/APjsP87/AHJeefkf/wApZd/8wEn/ACehyjB9T03tV/i0f64/&#xA;3Mnt+ZbwDsVdiqW4uW7FXYq7FXi35vf8pWn/ADCx/wDEnzDz/U937Of4t/nH9D0b8vP+UM0z/Uf/&#xA;AJONmRi+kPMdtf41P3j7gyPLHVuxV2KuxV2KoLU9Xs9Oi5TNVz9iJftN/Z74sZSAYhe+ZtVuJCUl&#xA;MEf7KR7U+bdThpoOQluy80apbt+8k+sR91k6/Q3XGlGQhA2VvJfX8cJY8p3+N+++7HFiBZZpbeUd&#xA;ELqjxu/ixdgTt7UGC26UAAl/mvyvY2Nit5ZBk4sFkQksCG6Gp3G+FoSfSPMV7pdtcQ24BMxUqzbh&#xA;CKgkDxO2KrD5k10yc/rsvKtaV2/4HpirI9B87iRhb6oQrHZbkCi/7MDp8xjSsuVlZQykFSKgjcEH&#xA;AlvFXYq7FXYq7FWJ/mt/ygOqf88P+omPK830l3Ps/wD47D/O/wByXnn5H/8AKWXf/MBJ/wAnocow&#xA;fU9N7Vf4tH+uP9zJ7fmW8A7FXYqgvqs3h+IxcjxA76rN4fiMV8QO+qzeH4jFfEDvqs3h+IxXxA8T&#xA;/OFGTzYgbY/VY/8AiT5h5/qe99mzem/zj+h6R+XMEreStLYDYxv3/wCLGzIxfSHl+2pgaufvH3Bk&#xA;n1Wbw/EZY6rxA76rN4fiMV8QO+qzeH4jFfEDvqs3h+IxXxApXYe2tZrhx8EKM7bjooriviB5wovd&#xA;V1EKP3lzcNsO39gAwuOTZZppPlGGyQPMi3FwerNQqv8Aqg/rwNseEIfXfKD3I+sWSKk4+1ECFV/4&#xA;A4WM+E8luheUL2yuku7h0LqDxjXehYU6mmKwoG2SwwSLKrMNhXv7YGc5ghrVtPGoadNZluHqgUel&#xA;aEEMDTbwxaWGx+QtS+uJHJIn1UmrzIdwB24mm5w2imWx6BpCWYs/qqNCBQlgCxP8xbrX3wJYX5k8&#xA;qyaYDc27epZk0NftIT0B8R74UJp5C1OZ/W06RiyRr6sNewrRh8qsMSoZhgS7FXYq7FXYqxP81v8A&#xA;lAdU/wCeH/UTHleb6S7n2f8A8dh/nf7kvPPyP/5Sy7/5gJP+T0OUYPqem9qv8Wj/AFx/uZPb8y3g&#xA;HYq7FXYq7FXYq7FXhf50/wDKYJ/zCRf8SfMPP9T6F7L/AOKn+uf0PTfyz/5QbSf+Mb/8nXzIxfSH&#xA;k+3f8cye8fcGT5Y6l2KuxVxIAJJoBuScVY7q/mjQZLa5svXLtLG8fNFLKCwoN+/0YVYPpl61jqEF&#xA;2BX0nDEeK9GH3YoesRSJLGkkZ5I4DKw7gioOBK7FXYq7FXYq7FXYqxPz9qKpaw2Cn45T6knsi9Pv&#xA;b9WEIKR+U9UsNNvJri7Zhyj9NAq8q1YE/wDEcVZ7p+rafqCF7SYScftLuGHzU0OBKLxV2KuxV2Ks&#xA;T/Nb/lAdU/54f9RMeV5vpLufZ/8Ax2H+d/uS88/I/wD5Sy7/AOYCT/k9DlGD6npvar/Fo/1x/uZP&#xA;b8y3gHYq7FXYq7FXYq7FXhf50/8AKYJ/zCRf8SfMPP8AU+hey/8Aip/rn9D038s/+UG0n/jG/wDy&#xA;dfMjF9IeT7d/xzJ7x9wZPljqXYq7FWI+fdVkjSLT4m4+qPUnp1K1oo+RIOEIKRaL5Wv9VgaeNkih&#xA;BKqz1+IjwAGKplZ+Qr1byP63JE1qDWT02bkQO26jrja0zhEREVEAVFAVVGwAGwAwJQ2panZ6dbG4&#xA;un4r0VRuzHwUYqwbU/Ouq3TFbY/VIewTdyPdj/DDSEqFxq8/7wSXEtf2+Tt+OKqltrutWb/u7qUc&#xA;esbksv8AwLVxVl2g+c4Lx1tr4LBcNskg/u2Phv8AZONJZNgVJPM/l0arArw8UvItkdtgy91JH3jF&#xA;WOp5A1UqS08CtTZQWP3niMNopJbee90jU+QrHcW78ZErsaHdTTqDir1SCZJ4I5ozWOVQ6H2YVGBK&#xA;/FXYq7FWJ/mt/wAoDqn/ADw/6iY8rzfSXc+z/wDjsP8AO/3Jeefkf/yll3/zASf8nocowfU9N7Vf&#xA;4tH+uP8Acye35lvAOxV2KuxV2KuxV2KvC/zp/wCUwT/mEi/4k+Yef6n0L2X/AMVP9c/oem/ln/yg&#xA;2k/8Y3/5OvmRi+kPJ9u/45k94+4Mnyx1LsVdiry/zNdNc67eM3SOQxKPAR/D/CuFD0PRLIWWlWtv&#xA;3RAX/wBZvib8TgSjcVWySJHG0jniiAszHoABUnFXl+tapcavqRkAYoTwtoR2UmgFB3PfChl+geT7&#xA;S0jWa+RZ7sivBt0T2A6E++KWRgAAACgHQDAqGvtMsL6Mx3UKyilAxHxD5MNxirzzzH5el0mcFSZL&#xA;SUn0pD1B/lanf9eFDKvJutvfWbW07crm2A+I9WQ9CfcdDilkWBXYq8/892Xo6stwv2blAT/rJ8J/&#xA;CmEILI/JV00+hIrbm3doq+wow/BsBSnuKuxV2KsT/Nb/AJQHVP8Anh/1Ex5Xm+ku59n/APHYf53+&#xA;5Lzz8j/+Usu/+YCT/k9DlGD6npvar/Fo/wBcf7mT2/Mt4B2KuxV2KuxV2KuxV4X+dP8AymCf8wkX&#xA;/EnzDz/U+hey/wDip/rn9D038s/+UG0n/jG//J18yMX0h5Pt3/HMnvH3Bk+WOpdirsVeceb9Kms9&#xA;VluOJ+r3TGRH7cjuyn3rvhQjtE87yQIlvqCGSJQFWdPtgDYch+1jSs5wJSXzhctBoNxxNGlKxg+z&#xA;Hf8AAHFWL+R7JLjVzM4qtshdR/lk8R/HCUB6FgS7FXYql3mGyS80e6iYVYIXjPg6DkP6YqwXyhct&#xA;Br9vQ/DLyjceIYGn/DAYUPS8CUq1/wAwQaPDGzxtLLNy9JBsPhpWp7faxV5/qurXur3ayz0LfYii&#xA;QGgBPQDc1OFD0Dyzpj6dpEcMopM5Mko8Gbt9AAwJTXFXYq7FWJ/mt/ygOqf88P8AqJjyvN9Jdz7P&#xA;/wCOw/zv9yXnn5H/APKWXf8AzASf8nocowfU9N7Vf4tH+uP9zJ7fmW8A7FXYq7FXYq7FXYq8L/On&#xA;/lME/wCYSL/iT5h5/qfQvZf/ABU/1z+h6b+Wf/KDaT/xjf8A5OvmRi+kPJ9u/wCOZPePuDJ8sdS7&#xA;FXYqwjzp5gkeZ9LgoIkp9YagJZuvEeFMIQk2jeX9T1J1e3ThCp3nfZBTw8foxV6hgSkPneIyaDIw&#xA;/wB1SI5+VeP/ABtiFSL8v7hU1G4gJoZYgy+5Q9PubCUBneBLsVdiqF1adINMupX+ykTn5niQB9Jx&#xA;V515WjaTX7ML2csfkqkn9WFD0/AljvnHRL3U4bd7QB2t+fKMmhYPx6V2/Zwqwi1uL3S79ZVUxXMJ&#xA;3SRfvBB8cUPTtJ1GPUbCK7jHH1B8SfysNmH34EovFXYq7FWJ/mt/ygOqf88P+omPK830l3Ps/wD4&#xA;7D/O/wByXnn5H/8AKWXf/MBJ/wAnocowfU9N7Vf4tH+uP9zJ7fmW8A7FXYq7FXYq7FXYq8L/ADp/&#xA;5TBP+YSL/iT5h5/qfQvZf/FT/XP6Hpv5Z/8AKDaT/wAY3/5OvmRi+kPJ9u/45k94+4Mnyx1LsVdi&#xA;ryrX45I9bvlfZjM7D5MeS/gcKHpmmSQSadbPbqEhaNSigUABHTAlE4qo3trHd2k1tJ9iZChPhUdf&#xA;oxV5cpvdG1WtONzav0PQ/wBjDCh6TpGsWmqWomt2+If3kRPxIfA/wOBKOxVxIAqemKsG84+Y4rof&#xA;o+zfnCprPKOjEdFHiBhCER5C0px6upSCisDFBXvv8TfhT78SoZjgS7FWB+f5YW1KCNQPVSKsjDwY&#xA;/CD8qfjhCCnXkSORNDLN9mSZ2T5UC/rU4lIZFgV2KuxVif5rf8oDqn/PD/qJjyvN9Jdz7P8A+Ow/&#xA;zv8Acl55+R//ACll3/zASf8AJ6HKMH1PTe1X+LR/rj/cye35lvAOxV2KuxV2KuxV2KvC/wA6f+Uw&#xA;T/mEi/4k+Yef6n0L2X/xU/1z+h6b+Wf/ACg2k/8AGN/+Tr5kYvpDyfbv+OZPePuDJ8sdS7FXYqwX&#xA;z9YGO9hvVX4Jl4Of8tOlfmv6sIQV/lnzZZ2Nh9TvQ49IkxOo5DixrQ/Tiqc2fnTSLq8jtUWVDKeK&#xA;ySBQtT0GzE79MFJT7FUk8x+WodVjEsZEV5GKI56MP5W/rirA5rfVtIuhzElrMv2XUkA/JhsRhQmU&#xA;XnfXo04s8ch/mdBX/heONKgr/wAxaxfqY57g+mdjEgCKfYhev04qmOg+T7u8kWe+VoLQb8Ts7+wH&#xA;Ye+Ks/iijhiWKJQkaAKijYADtgShdW1a10y1NxcVIqFVFpyYnwrTFUpXz3ohQsRMpHRSgqfuYjDS&#xA;2wnUbybU9UluApL3DgRx9TT7Kr91MUPUNOtFs7GC1XpCgUnxIG5+k4EojFXYq7FWJ/mt/wAoDqn/&#xA;ADw/6iY8rzfSXc+z/wDjsP8AO/3Jeefkf/yll3/zASf8nocowfU9N7Vf4tH+uP8Acye35lvAOxV2&#xA;KuxV2KuxV2KvC/zp/wCUwT/mEi/4k+Yef6n0L2X/AMVP9c/oem/ln/yg2k/8Y3/5OvmRi+kPJ9u/&#xA;45k94+4Mnyx1LsVdiqhfWNtfWz21ynOJ+o7g9iD2IxVhuoeRJIElniu1+rxqzt6gIYKoqfs1rhtF&#xA;MYtoJbi4jghFZZGCoPcmmKvXbeJooI4mcyNGiqZG6sQKVPucCV+KrZYYpkMcqLIh6q4DA/QcVS6T&#xA;yxoMjVayjB/yaqPuUjFURa6Tplo3K3tY43/nCjl9/XFUXirsVYZ+YNnNW2vAxMIBiKdlY/ED/sh+&#xA;rCEFj+iaJLq00kMMqRvGvOj13WtDSgPTFWaaF5QtNNlFxK/1i5X7BIoq+4G+/vgSn+KuxV2KuxVi&#xA;f5rf8oDqn/PD/qJjyvN9Jdz7P/47D/O/3Jeefkf/AMpZd/8AMBJ/yehyjB9T03tV/i0f64/3Mnt+&#xA;ZbwDsVdirsVdirsVdirwv86f+UwT/mEi/wCJPmHn+p9C9l/8VP8AXP6Hpv5Z/wDKDaT/AMY3/wCT&#xA;r5kYvpDyfbv+OZPePuDJ8sdS7FXYq7FUNqlu9zpt1bp9uWJ0X5lSBirzDSr0afqcF1JGXELfHH0P&#xA;Qg/SMKHp+n6lZ6hbie1kDp+0P2lPgw7HAlD61rtnpMAeb45X/u4FPxN7+w98VUtJ8z6ZqcghhLpc&#xA;EFvSdaGg60IqMVTbFVK6uoLW3e4nbhDGKu1CaD5DFUiTzzo73iwAOsLbG4YAKD226098NKyIEEAg&#xA;1B3BGBWHec/MFjNbNp1uRNJyBkkH2V4mtAe5whCH/L62kN9c3NP3SRemT/lMwb/jXEqGc4EuxV2K&#xA;uxV2KsT/ADW/5QHVP+eH/UTHleb6S7n2f/x2H+d/uS88/I//AJSy7/5gJP8Ak9DlGD6npvar/Fo/&#xA;1x/uZPb8y3gHYq7FXYq7FXYq7FXhf50/8pgn/MJF/wASfMPP9T6F7L/4qf65/Q9N/LP/AJQbSf8A&#xA;jG//ACdfMjF9IeT7d/xzJ7x9wZPljqXYq7FXYq7FWNeYvKEV8z3dkRFdnd4zsjn+DYVYWkmp6VdM&#xA;FaS1uF2YbqSPfsRih1NS1S7LfHdXLCrHqaD9QGKq3l+9Sy1m1uHPGMNxkPYK4Kkn5Vrir1JWV1DK&#xA;QyncMDUHAljvni/ii0k2ocetcMo4A78VPImnhsMIVgcVpczRSyxRs8cNDKyivENWhP3YoV11jVFt&#xA;Pqi3Ugt6U9MMaU8K9ae2Ko/QvK17qbCVwYLPvKw3b/UHf54q9B0/T7WwtVtrZOEa7+5J6knucCUR&#xA;irsVackIxHUAkYpHNB/WpvH8Bi3+GHfWpvH8Bivhhi35nzyN5G1NWOx9Dt/y8R5Xm+ku37BgBq4f&#xA;53+5LAfyYkZPNF0V2P1GQf8AJaLKMH1PR+04vTx/rj7pPZ/rU3j+AzLeF8MO+tTeP4DFfDDf1mbj&#xA;WvfwxXwwjMXHdirsVdirwv8AOn/lME/5hIv+JPmHn+p9C9l/8VP9c/oem/ln/wAoNpP/ABjf/k6+&#xA;ZGL6Q8n27/jmT3j7gyfLHUuxV2KuxV2KuxVSntLW4AFxCkwHQSKGH4g4q3BbW8C8IIkiX+VFCj7h&#xA;irCfMPk67juHudOj9W3cljCv2kJ6gDuPCmFDHzpWqA0NnOCOoMb/ANMVV7Xy9rVy4WO0kUH9uRSi&#xA;/e1MVegeX9Ej0my9EEPM55TSDufAewwJRR0zTTJ6ptITJ/P6a8vvpiqJxV2KuxV2KrZf7p/9U/qx&#xA;THml+LlOxVi/5m/8oRqX/PD/AKiI8rzfSXb9hf43D/O/3JYH+Tf/ACk91/zBSf8AJ2LKMH1PQ+0v&#xA;+Lx/rj7pPZMy3h3Yq3+z9OKpji4jsVdirsVeF/nT/wApgn/MJF/xJ8w8/wBT6F7L/wCKn+uf0PTf&#xA;yz/5QbSf+Mb/APJ18yMX0h5Pt3/HMnvH3Bk+WOpdirsVdirsVdirsVdirsVdirsVdirsVdirsVdi&#xA;rsVWy/3T/wCqf1YpjzS/FynYqxb8zSB5I1Gp6+jT/kfHlWb6S7fsL/G4fH/clgn5N/8AKT3X/ME/&#xA;/J2LKcH1PQ+0v+Lx/rj7pPZMy3h3Yq3+z9OKpji4jsVdirsVeL/njp0keuWOoAfuri39Gv8AlxOS&#xA;f+FkGYuoG9vd+ymYHDKHWMr+Y/Yyz8nNaivPKw08t/pGmuyMnf05GLo33lh9GWYJWKdN7S6Uw1HH&#xA;/DMfaNizzLnnXYq7FXYq7FXYq7FXYq7FXYq7FXYq7FXYq7FXYq7FVsv90/8Aqn9WKY80vxcp2KvP&#xA;/wA4NYig0WDS1YGe8kEjr4RR71PzelPpyjPLanpPZvTGWU5OkRXxP7Er/Jewcz6lqBBEaqkCHsSx&#xA;5t93FfvyOnHMuX7T5hwwh13P6HqmZLyDsVb/AGfpxVMcXEdirsVdiqQeePK0fmTQZbGoW6Q+rZyH&#xA;osqg0B9mB4n78hkhxB2XZWvOlzCf8PKXueDaPq+t+U9eMsamG7t2MVzbSDZlr8SOPA+I+YzDjIxL&#xA;6JqdNi1mGjvGW4I+8Pa/L35neVdXhT1LpdPuz9u2uWCUP+TIaI3tvX2zLjliXgtZ2DqcJ2jxx74/&#xA;q5si/TGk/wDLbb/8jU/rk+IOs/LZf5svkXfpfSf+W2D/AJGp/XHiC/lsn82XyLv0vpP/AC2wf8jU&#xA;/rjxBfy2T+bL5F36X0n/AJbYP+Rqf1x4gv5bJ/Nl8i79L6T/AMtsH/I1P648QX8tk/my+Rd+l9J/&#xA;5bYP+Rqf1x4gv5bJ/Nl8i79L6T/y2wf8jU/rjxBfy2T+bL5F36X0n/ltg/5Gp/XHiC/lsn82XyLv&#xA;0vpP/LbB/wAjU/rjxBfy2T+bL5F36X0n/ltg/wCRqf1x4gv5bJ/Nl8i79L6T/wAtsH/I1P648QX8&#xA;tk/my+Rd+l9J/wCW2D/kan9ceIL+WyfzZfIu/S+k/wDLbB/yNT+uPEF/LZP5svkXfpfSf+W2D/ka&#xA;n9ceIL+WyfzZfIu/S+k/8tsH/I1P648QX8tk/my+Rd+l9J/5bYP+Rqf1x4gv5bJ/Nl8itk1fSfTb&#xA;/TYOh/3anh88eIMo6bJf0y+RQB1XSwCTeQADqfUT+uPEHJ/LZP5svkWO+YPzK8uaVEy28y6heU+C&#xA;GBgy1/y5BVQPlU+2VyzAOz0fYefMfUOCPef1PIbq61rzRrodgbi/u2CRRrsqjsq/yqo/qcxSTIva&#xA;48eLSYaHphH8fN7p5W0CHQdFg0+MhnX455R+3K32m/gPbMyEeEU+fa/WHUZTM8unkE2ybhOxVv8A&#xA;Z+nFUxxcR2KuxV2KuxVjPnDyBovmZBJPW2v0HGO9jALU7K67c1/H3yueMSdt2b2xl0poeqH80/o7&#xA;nlWq/lB5wspG+rQx38I6SQuqtT3SQoa/KuY5wyD2Gn9pNLMeomB8x+kJV/yr3zr/ANWif7h/XI+H&#xA;Lucz+WdJ/qkXf8q986/9Wif7h/XHw5dy/wAs6T/VIu/5V751/wCrRP8AcP64+HLuX+WdJ/qkXf8A&#xA;KvfOv/Von+4f1x8OXcv8s6T/AFSLv+Ve+df+rRP9w/rj4cu5f5Z0n+qRd/yr3zr/ANWif7h/XHw5&#xA;dy/yzpP9Ui7/AJV751/6tE/3D+uPhy7l/lnSf6pF3/KvfOv/AFaJ/uH9cfDl3L/LOk/1SLv+Ve+d&#xA;f+rRP9w/rj4cu5f5Z0n+qRd/yr3zr/1aJ/uH9cfDl3L/ACzpP9Ui7/lXvnX/AKtE/wBw/rj4cu5f&#xA;5Z0n+qRd/wAq986/9Wif7h/XHw5dy/yzpP8AVIu/5V751/6tE/3D+uPhy7l/lnSf6pF3/KvfOv8A&#xA;1aJ/uH9cfDl3L/LOk/1SLv8AlXvnX/q0T/cP64+HLuX+WdJ/qkXf8q986/8AVon+4f1x8OXcv8s6&#xA;T/VItH8vvOgFTpE9B12H9cfDl3L/ACxpP9Uit/wH5v8A+rVN9w/rg8OXcy/lbTfz4prpX5T+aLuR&#xA;frax2ENfieRg70/yUjLfiRk44ZFw9R7Q6eA9NzPlt9p/a9O8r+TdI8uwkWqmS6kFJruTd2HgOyr7&#xA;D6cyYYxF5PX9p5dSfVtHoE+ybrnYq7FW/wBn6cVTHFxHYq7FXYq7FXYq7FXYq7FXYq7FXYq7FXYq&#xA;7FXYq7FXYq7FXYq7FXYq7FVsv90/+qf1YpjzS/FynYq7FXYq7FXYq3+z9OKv/9k=</xmpGImg:image>
               </rdf:li>
            </rdf:Alt>
         </xmp:Thumbnails>
         <pdf:Producer>Adobe PDF library 15.00</pdf:Producer>
         <dc:format>image/svg+xml</dc:format>
         <xmpTPg:MaxPageSize rdf:parseType="Resource">
            <stDim:w>31.000000</stDim:w>
            <stDim:h>29.000000</stDim:h>
            <stDim:unit>Millimeters</stDim:unit>
         </xmpTPg:MaxPageSize>
         <xmpTPg:NPages>1</xmpTPg:NPages>
         <xmpTPg:HasVisibleTransparency>False</xmpTPg:HasVisibleTransparency>
         <xmpTPg:HasVisibleOverprint>False</xmpTPg:HasVisibleOverprint>
         <xmpTPg:PlateNames>
            <rdf:Seq>
               <rdf:li>Cyan</rdf:li>
               <rdf:li>Magenta</rdf:li>
               <rdf:li>Yellow</rdf:li>
            </rdf:Seq>
         </xmpTPg:PlateNames>
         <xmpTPg:SwatchGroups>
            <rdf:Seq>
               <rdf:li rdf:parseType="Resource">
                  <xmpG:groupName>Группа образцов по умолчанию</xmpG:groupName>
                  <xmpG:groupType>0</xmpG:groupType>
               </rdf:li>
            </rdf:Seq>
         </xmpTPg:SwatchGroups>
      </rdf:Description>
   </rdf:RDF>
</x:xmpmeta>
                                                                                                    
                                                                                                    
                                                                                                    
                                                                                                    
                                                                                                    
                                                                                                    
                                                                                                    
                                                                                                    
                                                                                                    
                                                                                                    
                                                                                                    
                                                                                                    
                                                                                                    
                                                                                                    
                                                                                                    
                                                                                                    
                                                                                                    
                                                                                                    
                                                                                                    
                                                                                                    
                           
<?xpacket end="w"?>
	</metadata>
<rect x="0" y="0" fill="#FCE9F0" width="36.419" height="36.35"/>
<rect x="55.261" y="58.537" fill="#FCE9F0" width="15.188" height="15.481"/>
<g>
	<g>
		<defs>
			<rect id="SVGID_1_" x="0" y="0.001" width="70.449" height="74.017"/>
		</defs>
		<clipPath id="SVGID_2_">
			<use xlink:href="#SVGID_1_"  overflow="visible"/>
		</clipPath>
		<path clip-path="url(#SVGID_2_)" fill="none" stroke="#D63F5A" stroke-width="2" d="M56.99,70.269H16.892
			c-3.226,0-5.865-2.639-5.865-5.865V14.035c0-3.226,2.639-5.866,5.865-5.866H56.99c3.226,0,5.865,2.64,5.865,5.866v50.369
			C62.855,67.63,60.216,70.269,56.99,70.269z"/>
	</g>
	<g>
		<defs>
			<rect id="SVGID_3_" x="0" y="0.001" width="70.449" height="74.017"/>
		</defs>
		<clipPath id="SVGID_4_">
			<use xlink:href="#SVGID_3_"  overflow="visible"/>
		</clipPath>
		
			<line clip-path="url(#SVGID_4_)" fill="none" stroke="#D63F5A" stroke-width="2" stroke-linecap="round" x1="21.089" y1="18.175" x2="51.748" y2="18.175"/>
	</g>
	<g>
		<defs>
			<rect id="SVGID_5_" x="0" y="0.001" width="70.449" height="74.017"/>
		</defs>
		<clipPath id="SVGID_6_">
			<use xlink:href="#SVGID_5_"  overflow="visible"/>
		</clipPath>
		
			<line clip-path="url(#SVGID_6_)" fill="none" stroke="#D63F5A" stroke-width="2" stroke-linecap="round" x1="21.089" y1="24.745" x2="51.748" y2="24.745"/>
	</g>
	<g>
		<defs>
			<rect id="SVGID_7_" x="0" y="0.001" width="70.449" height="74.017"/>
		</defs>
		<clipPath id="SVGID_8_">
			<use xlink:href="#SVGID_7_"  overflow="visible"/>
		</clipPath>
		<path clip-path="url(#SVGID_8_)" fill="#B1B3B5" d="M37.467,32.975c0.611,0,1.114,0.478,1.145,1.087l0.341,1.745
			c0.595,0.14,1.179,0.33,1.742,0.566l1.272-1.181c0.216-0.267,0.545-0.425,0.891-0.425c0.243,0,0.476,0.076,0.673,0.219
			l1.696,1.232c0.248,0.18,0.411,0.446,0.459,0.748c0.045,0.282-0.016,0.565-0.171,0.803l-0.723,1.583
			c0.401,0.464,0.762,0.962,1.081,1.485l1.746-0.198c0.097-0.026,0.196-0.039,0.296-0.039c0.498,0,0.936,0.318,1.09,0.792
			l0.648,1.994c0.189,0.583-0.116,1.21-0.682,1.425l-1.534,0.846c0.024,0.303,0.037,0.609,0.037,0.913s-0.013,0.61-0.037,0.912
			c1.76,0.961,1.781,0.976,1.82,1.006c0.02,0.015,0.051,0.042,0.062,0.051c0.001,0.001,0.002,0.001,0.002,0.002
			c0.343,0.303,0.473,0.779,0.332,1.213c-0.683,2.092-0.691,2.108-0.714,2.156c-0.196,0.389-0.589,0.63-1.025,0.63H47.9
			c-0.034,0-0.083-0.001-2.029-0.234c-0.318,0.522-0.679,1.019-1.079,1.482l0.723,1.583c0.155,0.238,0.216,0.521,0.171,0.803
			c-0.048,0.302-0.211,0.568-0.459,0.748l-1.696,1.233c-0.197,0.143-0.43,0.218-0.673,0.218c-0.346,0-0.675-0.157-0.892-0.425
			l-1.27-1.181c-0.564,0.237-1.148,0.426-1.743,0.566l-0.341,1.745c-0.003,0.058-0.01,0.115-0.022,0.171
			c-0.04,0.198-0.132,0.381-0.267,0.532c-0.01,0.012-0.021,0.023-0.032,0.034c-0.005,0.006-0.01,0.011-0.014,0.015
			c-0.217,0.217-0.504,0.335-0.81,0.335H35.37c-0.343,0-0.665-0.151-0.884-0.417c-0.156-0.189-0.248-0.425-0.26-0.669l-0.342-1.746
			c-0.595-0.14-1.178-0.329-1.742-0.566l-1.271,1.181c-0.216,0.268-0.545,0.425-0.891,0.425c-0.243,0-0.476-0.075-0.674-0.218
			l-1.696-1.233c-0.247-0.18-0.411-0.446-0.458-0.748c-0.045-0.282,0.015-0.565,0.17-0.803l0.723-1.583
			c-0.4-0.464-0.762-0.961-1.08-1.484l-1.747,0.198c-0.096,0.026-0.195,0.038-0.295,0.038c-0.498,0-0.936-0.318-1.09-0.792
			l-0.648-1.994c-0.094-0.291-0.07-0.601,0.069-0.874c0.13-0.256,0.346-0.449,0.612-0.551l1.535-0.845
			c-0.025-0.303-0.038-0.61-0.038-0.914s0.013-0.61,0.038-0.913l-1.535-0.846c-0.12-0.045-0.23-0.11-0.329-0.193
			c-0.013-0.012-0.026-0.023-0.039-0.035c-0.005-0.005-0.01-0.01-0.016-0.015c-0.315-0.302-0.432-0.766-0.297-1.182l0.648-1.994
			c0.118-0.363,0.408-0.643,0.776-0.748c0.102-0.029,0.208-0.044,0.314-0.044c0.099,0,0.199,0.013,0.295,0.039l1.747,0.198
			c0.318-0.523,0.68-1.021,1.08-1.485l-0.723-1.583c-0.155-0.238-0.215-0.521-0.17-0.803c0.047-0.302,0.211-0.568,0.458-0.748
			l1.696-1.232c0.198-0.143,0.431-0.219,0.674-0.219c0.346,0,0.675,0.158,0.891,0.425l1.271,1.181
			c0.564-0.236,1.147-0.426,1.742-0.566l0.342-1.745c0.012-0.245,0.104-0.481,0.26-0.67c0.035-0.042,0.073-0.082,0.113-0.119
			c0.212-0.193,0.486-0.298,0.771-0.298L37.467,32.975 M37.467,30.975H35.37c-0.784,0-1.535,0.291-2.116,0.818
			c-0.112,0.101-0.216,0.211-0.311,0.326c-0.378,0.458-0.621,1.024-0.695,1.614c-0.592-0.617-1.404-0.966-2.268-0.966
			c-0.669,0-1.308,0.208-1.849,0.601L26.434,34.6c-0.679,0.494-1.126,1.223-1.258,2.053c-0.109,0.693,0.014,1.396,0.349,2.005
			c-0.198-0.038-0.4-0.058-0.602-0.058c-0.293,0-0.583,0.041-0.864,0.121c-1.009,0.288-1.804,1.055-2.128,2.053l-0.648,1.994
			c-0.371,1.141-0.051,2.414,0.815,3.244l0.023,0.022l0.04,0.037c0.018,0.016,0.055,0.049,0.092,0.079
			c0.197,0.166,0.414,0.307,0.647,0.42c-0.614,0.298-1.115,0.788-1.428,1.402c-0.381,0.749-0.449,1.601-0.189,2.4l0.648,1.994
			c0.422,1.301,1.625,2.174,2.992,2.174c0.202,0,0.404-0.019,0.602-0.058c-0.335,0.61-0.458,1.313-0.349,2.005
			c0.132,0.83,0.579,1.559,1.258,2.053l1.697,1.232c0.541,0.394,1.18,0.601,1.849,0.601c0.864,0,1.677-0.349,2.268-0.965
			c0.074,0.589,0.317,1.155,0.696,1.614c0.599,0.726,1.484,1.143,2.426,1.143h2.097c0.839,0,1.628-0.326,2.222-0.919l0.021-0.02
			l0.034-0.036c0.016-0.016,0.046-0.048,0.077-0.083c0.365-0.41,0.618-0.915,0.729-1.456c0.016-0.081,0.029-0.162,0.039-0.243
			c0.592,0.617,1.405,0.965,2.269,0.965c0.668,0,1.308-0.207,1.849-0.601l1.696-1.232c0.68-0.494,1.127-1.223,1.258-2.053
			c0.109-0.689-0.013-1.388-0.343-1.996c0.416,0.047,0.465,0.048,0.556,0.049h0.001c1.237,0,2.313-0.664,2.85-1.732
			c0.1-0.198,0.1-0.198,0.829-2.434c0.383-1.179,0.04-2.467-0.872-3.299l-0.015-0.015l-0.041-0.035
			c-0.018-0.016-0.103-0.087-0.155-0.126c-0.106-0.081-0.15-0.114-0.534-0.328c1.401-0.678,2.108-2.295,1.618-3.803l-0.648-1.994
			c-0.423-1.3-1.625-2.174-2.992-2.174c-0.202,0-0.404,0.02-0.602,0.058c0.334-0.609,0.458-1.312,0.348-2.005
			c-0.131-0.83-0.578-1.559-1.258-2.053l-1.696-1.232c-0.541-0.393-1.18-0.601-1.849-0.601c-0.864,0-1.677,0.349-2.268,0.965
			C40.397,32.169,39.067,30.975,37.467,30.975"/>
	</g>
	<g>
		<defs>
			<rect id="SVGID_9_" x="0" y="0.001" width="70.449" height="74.017"/>
		</defs>
		<clipPath id="SVGID_10_">
			<use xlink:href="#SVGID_9_"  overflow="visible"/>
		</clipPath>
		<path clip-path="url(#SVGID_10_)" fill="none" stroke="#B1B3B5" stroke-width="2" stroke-miterlimit="10" d="M36.419,52.682
			c-1.632,0-3.167-0.636-4.321-1.79c-1.155-1.154-1.79-2.689-1.79-4.321c0-1.633,0.635-3.167,1.79-4.322
			c1.154-1.154,2.689-1.79,4.321-1.79s3.167,0.636,4.321,1.79c1.154,1.155,1.79,2.689,1.79,4.322c0,1.632-0.636,3.167-1.79,4.321
			S38.051,52.682,36.419,52.682z"/>
	</g>
</g>
</svg>
