<?xml version="1.0" encoding="utf-8"?>
<!-- Generator: Adobe Illustrator 21.1.0, SVG Export Plug-In . SVG Version: 6.00 Build 0)  -->
<svg version="1.1" id="Layer_1" xmlns="http://www.w3.org/2000/svg" xmlns:xlink="http://www.w3.org/1999/xlink" x="0px" y="0px"
	 viewBox="0 0 104 100.3" style="enable-background:new 0 0 104 100.3;" xml:space="preserve">
<style type="text/css">
	.st0{opacity:0.15;fill:#E8815D;}
	.st1{fill:none;stroke:#E8815D;stroke-width:2;stroke-miterlimit:10;}
	.st2{fill:#E8815D;}
	.st3{fill:#DDDDDD;}
	.st4{fill:none;stroke:#E8815D;stroke-width:3;stroke-linecap:round;stroke-miterlimit:10;}
	.st5{fill:none;stroke:#919191;stroke-width:2;stroke-linecap:round;stroke-miterlimit:10;}
</style>
<rect x="10.4" y="14.9" class="st0" width="24" height="24.4"/>
<rect x="73.2" y="61.2" class="st0" width="23" height="25.5"/>
<rect x="14.9" y="20.3" class="st1" width="75" height="54.7"/>
<circle class="st2" cx="22.3" cy="25.7" r="1.4"/>
<circle class="st2" cx="28.2" cy="25.7" r="1.4"/>
<line class="st1" x1="14.9" y1="30.6" x2="89.2" y2="30.6"/>
<path class="st3" d="M62.6,70.3H42.4c-1.3,0-2.3-1-2.3-2.3V37.5c0-1.3,1-2.3,2.3-2.3h20.2c1.3,0,2.3,1,2.3,2.3V68
	C64.9,69.3,63.9,70.3,62.6,70.3z"/>
<line class="st4" x1="43.7" y1="40.8" x2="61.1" y2="40.8"/>
<line class="st5" x1="43.7" y1="50.2" x2="61.1" y2="50.2"/>
<line class="st5" x1="43.7" y1="53.8" x2="61.1" y2="53.8"/>
<line class="st5" x1="43.7" y1="57.5" x2="61.1" y2="57.5"/>
<line class="st5" x1="43.7" y1="61.2" x2="61.1" y2="61.2"/>
<line class="st5" x1="43.7" y1="64.9" x2="61.1" y2="64.9"/>
</svg>
