<svg width="24" height="24" viewBox="0 0 24 24" fill="none" xmlns="http://www.w3.org/2000/svg">
<g clip-path="url(#clip0_6024_5)">
<path d="M23.49 4.78C23.3388 3.70762 22.8455 2.71272 22.0833 1.94334C21.3211 1.17396 20.3309 0.671245 19.26 0.510001C14.4573 -0.17 9.58272 -0.17 4.78 0.510001C3.70763 0.661159 2.71272 1.15453 1.94334 1.9167C1.17397 2.67887 0.671248 3.66909 0.510004 4.74C-0.170001 9.54272 -0.170001 14.4173 0.510004 19.22C0.661162 20.2924 1.15454 21.2873 1.91671 22.0567C2.67888 22.826 3.6691 23.3288 4.74 23.49C7.14505 23.83 9.57104 24.0004 12 24C14.4157 24.0001 16.8283 23.8297 19.22 23.49C20.2924 23.3388 21.2873 22.8455 22.0567 22.0833C22.826 21.3211 23.3288 20.3309 23.49 19.26C23.83 16.855 24.0004 14.429 24 12C24.0001 9.58433 23.8297 7.17167 23.49 4.78ZM16 19H8C7.73479 19 7.48043 18.8946 7.2929 18.7071C7.10536 18.5196 7 18.2652 7 18C7 17.7348 7.10536 17.4804 7.2929 17.2929C7.48043 17.1054 7.73479 17 8 17H16C16.2652 17 16.5196 17.1054 16.7071 17.2929C16.8946 17.4804 17 17.7348 17 18C17 18.2652 16.8946 18.5196 16.7071 18.7071C16.5196 18.8946 16.2652 19 16 19ZM13.293 12.293C13.4816 12.1108 13.7342 12.01 13.9964 12.0123C14.2586 12.0146 14.5094 12.1198 14.6948 12.3052C14.8802 12.4906 14.9854 12.7414 14.9877 13.0036C14.99 13.2658 14.8892 13.5184 14.707 13.707L12.707 15.707C12.6142 15.7999 12.504 15.8736 12.3827 15.9238C12.2613 15.9741 12.1313 16 12 16C11.8687 16 11.7387 15.9741 11.6174 15.9238C11.496 15.8736 11.3858 15.7999 11.293 15.707L9.293 13.707C9.11085 13.5184 9.01005 13.2658 9.01233 13.0036C9.01461 12.7414 9.11978 12.4906 9.30519 12.3052C9.49059 12.1198 9.74141 12.0146 10.0036 12.0123C10.2658 12.01 10.5184 12.1108 10.707 12.293L11 12.5859V6C11 5.73479 11.1054 5.48043 11.2929 5.29289C11.4804 5.10536 11.7348 5 12 5C12.2652 5 12.5196 5.10536 12.7071 5.29289C12.8946 5.48043 13 5.73479 13 6V12.5859L13.293 12.293Z" fill="#FA5E0D"/>
</g>
<defs>
<clipPath id="clip0_6024_5">
<rect width="24" height="24" fill="white"/>
</clipPath>
</defs>
</svg>
