<svg width="612" height="431" xmlns="http://www.w3.org/2000/svg"><path d="M28.567 109c18.937 24.287 81.575 36.244 81.575 36.244-7.282 24.294 5.308 42.27 12.382 64.776 7.078 22.503 3.643 66.98 3.643 66.98-10.925-23.556-41.517-35.33-59.726-50.051-18.21-14.721-18.937-31.65-18.937-31.65C41.676 205.6 14 211.489 14 211.489c10.924-5.889 13.84-44.897 10.924-66.98C22.01 122.43 28.567 109 28.567 109zm15.974 121s8.675 11.847 28.919 22.959c20.244 11.107 52.909 38.516 53.5 65.171.725 32.584-7.95 73.316-67.96 88.87 0 0 20.244-38.51 5.785-59.99C50.325 325.539 17.069 294.433 44.54 230zm86.62-80s50.105 8.875 103.116 0c0 0 17.426 18.491 16.701 52.517-.725 34.019-37.034 50.291-37.76 82.095 0 0-12.344-5.914-17.43-22.925 0 0-7.304 13.526-9.437 24.405-2.182 11.093-5.81 31.065 2.178 59.908 0 0-34.131-23.667-39.213-41.417-5.085-17.753-3.728-52.474-2.906-71.743 1.453-34.022-21.783-50.295-15.248-82.84zm9.83 192c42.276 48.675 16.764 68.586 12.391 84.075-4.372 15.487 10.932 30.973 9.477 55.315C161.4 505.726 140.992 519 140.992 519c0-22.123-14.577-41.298-29.885-54.575-15.304-13.274-26.707-47.602-9.473-57.524C143.906 382.56 140.992 342 140.992 342zM175 358.294c22.739 22.14 46.21 28.78 46.21 28.78C196.27 356.08 201.403 300 201.403 300c15.406 42.058 63.084 56.08 79.221 115.114C296.76 474.148 249.817 514 249.817 514c-3.669-28.04-6.56-53.432-31.54-71.582C191.87 423.235 175 358.294 175 358.294zM179.75 424s7.951 17.88 26.022 33.523c18.071 15.646 20.961 35.754 23.13 55.125 2.168 19.368 17.349 33.523 18.07 52.89.722 19.372-13.009 42.462-13.009 42.462s-7.23-20.859-32.527-37.992c-25.301-17.133-29.634-46.187-24.576-60.342 5.058-14.151 14.456-26.815 1.446-62.573C174.692 434.43 179.75 424 179.75 424zm87.855-201C266.877 262.165 315 302.808 315 328.67c0 25.86-22.604 61.33-22.604 61.33-32.812-56.16-42.292-44.335-58.33-72.414-16.043-28.081-.992-48.578 8.02-59.113 9.477-11.087 25.52-35.473 25.52-35.473zM260 149.783C292.64 137.909 308.039 129 308.039 129c58.114 13.101 55.68 71.999 33.198 106.882C318.752 270.768 329.63 296 329.63 296s-22.485-13.359-34.092-37.85c-11.606-24.491-13.054-38.598-18.133-65.316C272.33 166.113 260 149.783 260 149.783zM296.642 406c69.156 30.083 61.148 85.85 58.968 107.865-2.188 22.011 7.278 40.356 10.918 49.164 3.641 8.801 2.184 35.95 2.184 35.95-2.914-5.134-18.2-13.206-28.392-22.01-10.192-8.808-10.192-16.144-10.192-16.144-5.824 8.804-3.64 4.402-18.2 24.948-14.56 20.546 2.184 46.227 2.184 46.227-51.686-32.284-53.143-76.31-50.23-93.922 2.911-17.613 17.477-26.71 29.846-52.83 15.29-32.285 2.914-79.248 2.914-79.248zm39.777-89.71c8.63 0 14.383 7.346 14.383 7.346s1.44-9.549-3.596-24.974c-5.033-15.422-2.875-29.377 7.193-50.672 10.069-21.3 13.662-35.99 13.662-35.99s22.295 36.72 28.048 69.037c5.754 32.313-2.157 48.472-16.54 75.646C365.186 383.861 317 389 317 389s6.472-9.55 17.262-34.52c10.786-24.971 2.157-38.19 2.157-38.19zM332 402.886c54.526-7.43 66.885-37.886 66.885-37.886s8.724 5.198 28.355 42.346c19.628 37.14-8.723 89.141-18.902 111.425-10.179 22.287-.73 54.229-.73 54.229-21.082-13.37-27.625-34.174-31.257-49.03-3.636-14.858 3.632-23.768-2.91-61.657C366.897 424.431 332 402.886 332 402.886zm110.107-12.635L410 343.244s8.027-19.833 8.756-42.598c.729-22.772-8.756-45.537-8.756-45.537s29.918-2.203 45.244 13.219c15.323 15.426 25.22 30.283 30.646 49.944 7.299 26.441 0 63.166 5.11 83.728 0 0-33.57-27.908-43.055-70.506 0 0 .732 11.75-1.46 26.439-2.19 14.689-4.378 32.318-4.378 32.318zM357 137c35.557 13.92 75.468 15.387 75.468 15.387s28.855 17.745 36.285 25.64C496.331 207.333 486.172 274 486.172 274s-27.668-33.714-47.894-36.632c-50.799-7.325-64.588-48.349-64.588-48.349C379.496 162.64 357 137 357 137zm218.74-21s-1.444 33.931 20.26 52.373c0 0-31.111-7.378-33.282-9.59 0 0 19.534 30.981 7.234 65.652C556.967 261.04 587.318 310 587.318 310s-69.459-32.458-76.696-61.224c-7.233-28.77 6.511-56.799-37.622-94.42 0 0 51.37-8.114 102.74-38.356zM502 276s12.294 22.038 37.105 32.78c29.256 12.663 23.034 43.788 20.697 52.886-7.85 30.545-42.106 54.385-25.69 98.334 0 0-23.55-15.642-25.69-38.736C501.149 342.815 515.559 319.952 502 276zm-3.526 183.809c.567 4.159.657 7.995.36 11.56-.222 6.517-1.636 20.336-9.09 32.775-10.185 16.995-20.37 17.736-20.37 38.426 0 0-11.295-11.48-13.53-20.802C442.031 533.24 432.998 547 432.998 547c-6.547-19.208 5.094-44.335 5.094-44.335C467.192 465.721 459.189 397 459.189 397s34.436 27.34 39.285 62.809zM298 47.599s-.352 42.478-.352 46.8c0 4.33 2.458 12.193-31.241 23.99-33.698 11.799-128.909 29.247-204.296-7.668C-16.207 72.368 1.783 3 1.783 3s17.63 48.594 73.965 71.408c67.79 27.46 119.051-12.647 159.066-26.81 40.019-14.157 63.186 0 63.186 0zm1-13.948s-16.362-12.97-56.508-8.274C208.802 29.317 164.812 68 120.148 68 94.792 68 68 51.763 68 51.763 152.239 45.673 154.244 0 240.54 0 281.414 0 299 33.651 299 33.651zM314 47.6s23.167-14.158 63.186 0C417.2 61.76 468.46 101.868 536.25 74.408 592.59 51.594 610.217 3 610.217 3s17.993 69.368-60.328 107.72c-75.388 36.916-170.598 19.468-204.296 7.67-33.699-11.798-31.24-19.66-31.24-23.99 0-4.323-.353-46.801-.353-46.801zm0-13.948S331.585 0 372.46 0C458.757 0 460.762 45.672 545 51.763c0 0-26.792 16.237-52.148 16.237-44.664 0-88.654-38.684-122.34-42.623C330.361 20.68 314 33.65 314 33.65z" fill-rule="evenodd" opacity=".05"/></svg>