<?xml version="1.0" encoding="UTF-8"?>
<svg width="73px" height="64px" viewBox="0 0 73 64" version="1.1" xmlns="http://www.w3.org/2000/svg" xmlns:xlink="http://www.w3.org/1999/xlink">
    <!-- Generator: Sketch 47 (45396) - http://www.bohemiancoding.com/sketch -->
    <title>Group 4</title>
    <desc>Created with Sketch.</desc>
    <defs></defs>
    <g id="Page-1" stroke="none" stroke-width="1" fill="none" fill-rule="evenodd">
        <g id="Desktop-Copy" transform="translate(-228.000000, -806.000000)" fill="#FFFFFF">
            <g id="Group-3" transform="translate(169.000000, 743.000000)">
                <g id="Group-4" transform="translate(59.873950, 63.067227)">
                    <path d="M53.8865546,27.9411765 L1.99579832,27.9411765 C0.893319328,27.9411765 0,28.8344958 0,29.9369748 C0,31.0394538 0.893319328,31.9327731 1.99579832,31.9327731 L53.8865546,31.9327731 C61.5895378,31.9327731 67.8571429,38.2003782 67.8571429,45.9033613 C67.8571429,53.6063445 61.5895378,59.8739496 53.8865546,59.8739496 C46.1835714,59.8739496 39.9159664,53.6063445 39.9159664,45.9033613 C39.9159664,44.8008824 39.0226471,43.907563 37.9201681,43.907563 C36.8176891,43.907563 35.9243697,44.8008824 35.9243697,45.9033613 C35.9243697,55.8073109 43.9818067,63.8655462 53.8865546,63.8655462 C63.7913025,63.8655462 71.8487395,55.8073109 71.8487395,45.9033613 C71.8487395,35.9994118 63.7913025,27.9411765 53.8865546,27.9411765" id="Fill-1"></path>
                    <path d="M21.9537815,35.9243697 L1.99579832,35.9243697 C0.893319328,35.9243697 0,36.8176891 0,37.9201681 C0,39.0226471 0.893319328,39.9159664 1.99579832,39.9159664 L21.9537815,39.9159664 C25.2556303,39.9159664 27.9411765,42.6015126 27.9411765,45.9033613 C27.9411765,49.2052101 25.2556303,51.8907563 21.9537815,51.8907563 C18.6519328,51.8907563 15.9663866,49.2052101 15.9663866,45.9033613 C15.9663866,44.8008824 15.0730672,43.907563 13.9705882,43.907563 C12.8681092,43.907563 11.9747899,44.8008824 11.9747899,45.9033613 C11.9747899,51.4061765 16.4509664,55.8823529 21.9537815,55.8823529 C27.4565966,55.8823529 31.9327731,51.4061765 31.9327731,45.9033613 C31.9327731,40.4005462 27.4565966,35.9243697 21.9537815,35.9243697" id="Fill-3"></path>
                    <path d="M0,17.9621849 C0,19.0646639 0.893319328,19.9579832 1.99579832,19.9579832 L45.9033613,19.9579832 C51.4061765,19.9579832 55.8823529,15.4818067 55.8823529,9.9789916 C55.8823529,4.47617647 51.4061765,0 45.9033613,0 C40.4005462,0 35.9243697,4.47617647 35.9243697,9.9789916 C35.9243697,11.0814706 36.8176891,11.9747899 37.9201681,11.9747899 C39.0226471,11.9747899 39.9159664,11.0814706 39.9159664,9.9789916 C39.9159664,6.67714286 42.6015126,3.99159664 45.9033613,3.99159664 C49.2052101,3.99159664 51.8907563,6.67714286 51.8907563,9.9789916 C51.8907563,13.2808403 49.2052101,15.9663866 45.9033613,15.9663866 L1.99579832,15.9663866 C0.893319328,15.9663866 0,16.8597059 0,17.9621849" id="Fill-5"></path>
                </g>
            </g>
        </g>
    </g>
</svg>