<?xml version="1.0" encoding="utf-8"?>
<!-- Generator: Adobe Illustrator 23.0.1, SVG Export Plug-In . SVG Version: 6.00 Build 0)  -->
<svg version="1.1" id="Layer_1" xmlns="http://www.w3.org/2000/svg" xmlns:xlink="http://www.w3.org/1999/xlink" x="0px" y="0px"
	 viewBox="0 0 148.3 167.6" style="enable-background:new 0 0 148.3 167.6;" xml:space="preserve">
<style type="text/css">
	.st0{fill:#D1D3D4;}
	.st1{fill:#792D91;}
	.st2{fill:#FFFFFF;}
</style>
<ellipse class="st0" cx="74.1" cy="9.6" rx="74.1" ry="9"/>
<g>
	<g>
		<path class="st1" d="M23,151.3c3.8,5.7,26,27.9,52.3,8.5c5.9,0.7,10.2-2.1,10.9-12.1c11.1-15.1,13.7-23.9,7.6-29.1
			c-6.2-5.2-11.4-6.4-16.3-6.6c3.1-18.2,14-38.6,24.9-39.1s23.2,3.1,30.1,24.1c0.9-18.2-1.7-47.3-38.8-49.9l-1.9-4.3
			c5.7-5.9,6.9-11.6,3.1-16.8s-0.9-12.6-4.7-16.4l-23.5,1c0,0-0.9,8.5,5.2,12.6c6.2,4,11.8,8.3-1.4,14.4c0,0,5-9.5-0.5-14.4
			c-5.4-5-4.2-12.6-4.2-12.6s-21.9,0-21.9,1c0,0.9-1.8,5.9,3.6,8.8s9.5,4.3,9.5,4.3s4.3,5.4-5.2,9.2s-24.1,23.9-5.2,35
			c0,0-3.3,11.8-0.5,21.3c-9.2-3.8-15.4-6.2-14.2,0.9c1.2,7.1,7.6,11.8,13,6.2c2.8,5,5.9,5.4,9.2,4c4.5,4,8.3,7.3,9,11.8
			c-9.7-0.9-19.2,2.8-22.5,16.8c-5.7,6.4-7.6,11.8-12.3,13S20.7,147.7,23,151.3z"/>
		<path class="st2" d="M87,146.3c4,2.8,8.5,3.3,10.2,3.3c-0.2-4.5-1.7-9.2-4.5-11.8L87,146.3z"/>
		<path class="st2" d="M95,133.3c5.2-0.2,13.7-2.8,10.4-5.2c-3.3-2.4-9-4-9-4S97.4,128.8,95,133.3z"/>
		<path class="st2" d="M94.8,120.5c2.6-4.5,6.6-10.2,0.9-9.9c-5.7,0.2-8.8,3.6-8.8,3.6S93.1,116.9,94.8,120.5z"/>
		<g>
			<path class="st2" d="M82.5,94.7c-2.7-2.5-6.9-6.7-8.6-9.5c-2.6-4.3-0.2-3.3,3.1-2.6c2.6,0.6,6.1,2.9,8.9,5
				C84.7,89.8,83.6,92.2,82.5,94.7z"/>
			<path class="st2" d="M101.3,63.3c0,0,3-0.9,5.2,3.4c1.5,3,1.9,5.3,2.2,6.4c-2.2-0.3-4.3-0.4-6.4-0.3c-0.6,0-1.2,0.1-1.8,0.3
				c0.2-1.5,0.5-3.5,0.4-4.9C100.8,65.9,101.3,63.3,101.3,63.3z"/>
			<path class="st2" d="M91.2,79.8c-1.4,1.7-2.8,3.6-4,5.7c-0.2-0.3-0.4-0.7-0.7-1c-1.7-1.9-4-8.8-4-8.8S84.8,74.8,91.2,79.8z"/>
			<path class="st2" d="M73,94.2c0.7-0.7,5.3,0.6,9,1.7c-1.1,2.7-2,5.5-2.8,8.3C75.3,99.3,72.2,95,73,94.2z"/>
			<path class="st2" d="M110.4,73.5c0.9-0.7,1.7-2.1,2.1-3.8c0.5-2.4,2-3.6,3.4-1.3c1,1.7,2,4.5,2.1,8C115.6,74.9,113,74,110.4,73.5
				z"/>
			<path class="st2" d="M95,68.1c1.9,2.8,3.2,4.5,4.1,5.6c-2.3,0.9-4.7,2.7-6.9,5c-1.4-4.4-4.4-13-7.1-17.5C88,60.6,91.6,63,95,68.1
				z"/>
		</g>
	</g>
	<path class="st2" d="M70.2,153.9c-5-1.1-6.9-10.7-3.6-14.2c3.3-3.6,7.3-6.4,10.4-0.2C80.1,145.6,79.1,155.8,70.2,153.9z"/>
</g>
<g>
	<g>
		<path d="M73.8,159.6c-6.7,6.7-17.7,6.4-26.4,5c-4.9-0.8-9.9-2.4-14.1-5.1c-2-1.3-3.9-2.9-5.5-4.7c-0.9-1-1.8-2.2-2.5-3.3
			c-1.2-2.1-2.4-3.2-0.4-4.9c2.6-2.2,6.1-2.5,8.6-5.2c3-3.1,4.8-7.1,7.8-10.2c7.1-7.5,18.1-9,27.6-5.9c1.2,0.4,1.8-1.6,0.5-2
			c-10-3.2-21.5-1.7-29.5,5.5c-5.4,4.8-7.1,11.5-14.3,14.2c-2.5,0.9-5.1,2.2-4.8,5.4c0.5,4.4,5.2,9,8.5,11.6
			c4.8,3.8,10.6,5.8,16.5,6.9c9.9,1.9,22.5,2.9,29.9-5.4C76.8,160.2,75,158.4,73.8,159.6L73.8,159.6z"/>
	</g>
</g>
<g>
	<g>
		<path d="M68.1,129.1c2.7-0.8,4.6-4.7,2.7-7c-0.6-0.8-2-0.1-2,0.8c0,0.9,0.3,1.6,0,2.4c-0.3,0.8-0.8,1.4-1.5,1.8
			C66.3,127.8,66.9,129.4,68.1,129.1L68.1,129.1z"/>
	</g>
</g>
<g>
	<g>
		<path d="M72.6,153c-2.5,0.1-4.5-0.5-5.4-3.1c-0.5-1.4-1-2.9-1-4.3c-0.2-3.6,1.8-7.6,5.9-7.7c4-0.1,5.3,4.3,5.3,7.5
			c0,3.4-1.9,5.7-4.8,7.4c-1.2,0.7-0.1,2.4,1.1,1.8c4.5-2.2,6.5-6.5,5.8-11.4c-0.7-4.4-3.3-8.6-8.3-7.7c-5,0.9-7.8,5.6-7.3,10.5
			c0.3,2.4,1.1,5.7,2.8,7.6c1.6,1.7,3.9,1.6,6,1.4C73.8,154.8,73.8,152.9,72.6,153L72.6,153z"/>
	</g>
</g>
<g>
	<g>
		<path d="M68.7,149.5c0.2,0.4,0.6,0.6,0.9,0.8c1.2,0.7,2.3-1.2,1.1-1.9c-0.4-0.2-0.7-0.4-1.2-0.4C68.8,148.1,68.3,148.9,68.7,149.5
			L68.7,149.5z"/>
	</g>
</g>
<g>
	<g>
		<path d="M38.4,131c1.5-0.5,2.5-1.4,3-2.8c0.5-0.9,1.1-1.9,1.6-2.8c1.4-2.1,3-4.2,4.9-5.9c4.2-3.9,9.5-5.7,15.2-5.1
			c0.8,0.1,1.5-0.9,1.3-1.6c-1.6-4.9-4.9-8.2-8.6-11.5c-1.3-1.2-3.3,0.8-1.9,1.9c3.4,3,6.6,5.9,8,10.3c0.4-0.5,0.8-1.1,1.3-1.6
			c-6-0.6-11.7,1.5-16.2,5.5c-3.4,3-8.8,9.1-8.9,13.9c0,0.5,0.5,1,1,1c0.1,0,0.2,0,0.3,0c0.5-0.1,0.9-0.4,1-1c0-0.1,0-0.2,0-0.3
			C40.3,129.7,38.5,129.8,38.4,131L38.4,131z"/>
	</g>
</g>
<g>
	<g>
		<path d="M75.4,160.4c2.9,1.7,6.4,0.9,8.5-1.6c2.7-3,3.1-7.3,3.4-11.2c0.1-1.2-1.9-1.5-2.1-0.3c-0.4,2.7-0.4,5.6-1.6,8.1
			c-1.3,2.8-4.2,5-7.2,3.3C75.3,158.1,74.3,159.8,75.4,160.4L75.4,160.4z"/>
	</g>
</g>
<g>
	<g>
		<path d="M87.7,147.7c4.8-6.8,12.4-16.7,9.6-25.7c-2.4-7.8-12.8-11.1-20.1-10.8c-2,0.1-2,3,0,3.1c7.2,0.4,18.2,3.2,18.2,12.3
			c0,7-5.6,14.6-9.4,20.2C85.3,147.8,87,148.7,87.7,147.7L87.7,147.7z"/>
	</g>
</g>
<g>
	<g>
		<path d="M44.5,158.9c-0.4,0-0.8,0.1-1.2,0.1c-0.5-0.1-1-0.3-1.5-0.4c-0.4,0-0.8,0.3-1,0.7c-0.2,0.4-0.1,0.8,0.2,1.2
			c0.8,1,3,1,4,0.3c0.4-0.3,0.6-0.6,0.5-1.1C45.4,159.2,44.9,158.8,44.5,158.9L44.5,158.9z"/>
	</g>
</g>
<g>
	<g>
		<path d="M61.3,96.9c-2.7,1.1-5.1,2.9-8,3.6c-2.7,0.7-5,0.2-6.3-2.4c-1.2-2.2-1.1-4.9,0.9-6.6c3.7-3.2,7.1-0.2,11,0.1
			c1.7,0.1,3.3-0.5,4-2.1c0.5-1.1-0.9-2.5-1.8-1.4c-1.6,1.8-6.4-0.9-8.7-0.9c-2,0-4.3,0.5-5.9,1.7c-2.6,1.9-3.4,5.4-2.5,8.4
			c2.6,9,13,5.7,18.3,1.1C63,97.9,62.3,96.5,61.3,96.9L61.3,96.9z"/>
	</g>
</g>
<g>
	<g>
		<path d="M43.8,97.5c-4,2.9-9.1,0.7-10.1-4c-0.2-1.1-0.3-2.2-0.3-3.3c0-2.1,1.9-1.9,3.5-1.7c2.5,0.4,4.8,1.2,7.1,2.2
			c1.4,0.6,2.4-1.8,1-2.4c-3.1-1.5-7.8-3.3-11.3-2.6c-3.7,0.7-3.1,5.3-2.5,8.1c1.4,6.3,8.4,9.3,13.7,5.2
			C45.7,98.3,44.6,96.8,43.8,97.5L43.8,97.5z"/>
	</g>
</g>
<g>
	<g>
		<path d="M46.9,89.8c-1.1-12.1-1-24.7,9.1-33.1c1.7-1.4-0.6-4.4-2.4-3.1c-0.2,0.2-0.4,0.3-0.7,0.5c-0.9,0.7-0.9,1.8,0,2.4
			c0.2,0.2,0.4,0.3,0.7,0.5c-0.1-1-0.3-2.1-0.4-3.1c-10.8,8.7-10.4,23.7-8.1,36.1C45.3,91.1,47,90.9,46.9,89.8L46.9,89.8z"/>
	</g>
</g>
<g>
	<g>
		<path d="M78.2,112.4c3.4-13.1,9.5-33.9,24.7-37.5c7.7-1.8,15.8,2.8,20.8,8.3c4.9,5.4,7.3,12.3,7.8,19.5c0.1,1.3,2,1.3,2.1,0
			c0.3-14.6-12.3-31.9-28.1-31.3C87.3,72.2,78.4,97,76.4,111.9C76.2,113.1,77.9,113.6,78.2,112.4L78.2,112.4z"/>
	</g>
</g>
<g>
	<g>
		<path d="M133,102.7c3.2-13.4,1.7-28.5-6.1-40.1C119.8,52.2,107.1,45,94.3,46c-2.3,0.2-2.4,3.7,0,3.7c12.3-0.2,23.5,5.6,30.6,15.7
			c7.5,10.8,8.6,24.2,6.2,36.8C130.9,103.4,132.7,103.9,133,102.7L133,102.7z"/>
	</g>
</g>
<g>
	<g>
		<path d="M95.3,56.7c0.2-2.2,0.2-4.5-0.1-6.7c-0.3-1.7-2-4.7-1.9-6.3c0.2-2.6,4.2-5.1,4.9-8.3c0.8-3.8-1.1-7-2.5-10.3
			c-1.7-3.9,0.1-7.8-2.1-11.6c-1-1.8-3.6-0.2-2.7,1.6c1.2,2.7-0.2,4.1-0.1,6.6c0.1,1.5,1,3,1.7,4.3c1.6,3,3.3,5.7,2.6,9.2
			c-0.6,2.9-2.6,4.7-4.6,6.7c-0.4,0.4-0.5,1.1-0.2,1.6c2.4,4.3,3.3,8.4,3,13.2C93.2,58,95.2,58,95.3,56.7L95.3,56.7z"/>
	</g>
</g>
<g>
	<g>
		<path d="M66.9,67.4c-8.1-1.9-11.2-12.9-7.8-19.8C62.2,41.4,69.2,40,75,37.5c4.2-1.8,5.5-2.9,4.8-7.5c-0.4-3-0.3-3.7-2.8-5.1
			c-3.8-2.2-9.5-4.1-8.9-9.7c0.2-2.2-3.1-2.1-3.4,0c-0.4,3.2,0.8,5.9,3.2,8.1c2.2,2,6.5,3,8,5.6c2.8,4.7-5.5,6.3-8.4,7.6
			c-2.6,1.1-5.1,2.3-7.3,4.2c-8.9,7.5-6.3,26.2,6.1,28.5C67.6,69.5,68.1,67.7,66.9,67.4L66.9,67.4z"/>
	</g>
</g>
<g>
	<g>
		<path d="M45.7,68.7c-9.8-7.2-9.9-21.2-0.7-29c3.2-2.7,7.3-3.4,10.6-5.8c3.2-2.3,3.7-5.7,3.6-9.4c0-1-0.8-1.9-1.8-1.8
			c-7,0.2-12.5-2.9-13.1-10.2c-0.1-1.3-1.9-1.7-2.3-0.3c-2.7,9.2,7.9,14.1,15.5,14.2c-0.6-0.6-1.2-1.2-1.8-1.8
			c0,2.7-0.7,5.5-3.1,6.9c-0.9,0.5-2,0.9-2.9,1.4c-2.1,1-4,2.1-5.8,3.6c-3.4,3-6.1,6.9-7.4,11.3c-2.6,8.6,0.8,17.8,8.4,22.6
			C45.8,71,46.7,69.4,45.7,68.7L45.7,68.7z"/>
	</g>
</g>
<g>
	<g>
		<path d="M70.3,38.1c0.1,0.1,2.7-6.8,2.8-7.3c0.5-2.4,0.5-4.9,0-7.4c-0.7,0.6-1.5,1.1-2.2,1.7c0.2,0.2,0.4,0.3,0.6,0.5
			c0.9,0.6,2.1-0.4,1.8-1.4c-0.1-0.3-0.2-0.5-0.2-0.8c-0.6-1.9-3.2-1.1-2.9,0.8c0.6,4.4,0,7.8-1.6,11.8c-0.6,1.5-1,2.8,0.7,3.7
			C70.5,40.3,71.3,38.8,70.3,38.1L70.3,38.1z"/>
	</g>
</g>
<g>
	<g>
		<path d="M87.3,146.3c0.1,1.6,1.6,2.1,2.9,2.6c2.3,0.9,4.8,1.4,7.3,1.5c0.3,0,0.6-0.3,0.6-0.6c-0.3-4.7-2-9.1-5.3-12.6
			c-0.6-0.7-1.6,0.3-1,1c3,3.3,4.8,7.1,5.1,11.6c0.2-0.2,0.4-0.4,0.6-0.6c-1.9-0.1-8.7-0.7-9.3-3.1
			C88.1,145.6,87.2,145.7,87.3,146.3L87.3,146.3z"/>
	</g>
</g>
<g>
	<g>
		<path d="M96,133.4c2.3,0.2,4.6-0.2,6.7-1c1.3-0.5,4.1-1.2,4.2-2.9c0.2-3.7-7-5.3-9.5-6c-1-0.3-1.4,1.3-0.4,1.6
			c1.3,0.3,9.3,2.6,8.1,4.5c-0.2,0.3-1.4,0.8-1.8,0.9c-0.7,0.3-1.5,0.6-2.3,0.9c-1.7,0.5-3.4,0.7-5.1,0.8
			C95.2,132.3,95.2,133.3,96,133.4L96,133.4z"/>
	</g>
</g>
<g>
	<g>
		<path d="M94.7,120.3c1.9-0.1,2.3-2.4,2.9-3.9c0.7-1.6,2.3-4.2,0.6-5.7c-1.4-1.2-3.9-1.1-5.5-0.8c-1,0.2-2,0.5-3,0.9
			c-0.1,0-2.8,1.9-2.6,2c0.2,0.2,0.4,0.4,0.7,0.7c0-0.1,0-0.1-0.1-0.2c-0.2-0.7-1.2-0.8-1.6-0.2c0,0-0.1,0.1-0.1,0.1
			c-0.3,0.4-0.1,1.1,0.3,1.3c0.6,0.3,1.1,0.3,1.7-0.1c0.7-0.4,1.2-1.3,2-1.7c0.8-0.5,1.6-0.8,2.4-1.1c2-0.5,5.2-0.8,4.9,2.2
			c-0.1,1.1-1.6,5.3-2.6,5.4C94,119.3,94,120.3,94.7,120.3L94.7,120.3z"/>
	</g>
</g>
<g>
	<g>
		<path d="M78.9,102.7c-0.8-1.1-1.7-2.1-2.6-3.1c-0.7-0.9-2.4-2.3-2.6-3.3c-0.4-1.8,1.5-1.2,2.6-0.9c1.2,0.3,2.4,0.6,3.6,1
			c0.1-0.6,0.2-1.1,0.2-1.7c-0.6,0.1-0.8,0.1-1.4,0.3c-0.6,0.2-0.6,1.1,0,1.2c0.6,0.1,0.8,0.2,1.4,0.2c1,0,1.1-1.4,0.2-1.7
			c-1.9-0.5-7.1-2.8-8.2,0.1c-0.5,1.3,0.5,2.4,1.3,3.3c1.5,1.8,3.1,3.6,4.6,5.4C78.6,104,79.3,103.2,78.9,102.7L78.9,102.7z"/>
	</g>
</g>
<g>
	<g>
		<path d="M81.7,93.7c-3.3-3.4-6.2-7.3-8.5-11.4c-0.2,0.4-0.3,0.8-0.5,1.2c4.6-1.7,8.9,2.4,12.5,4.8c0.1-0.5,0.1-1,0.2-1.6
			c-0.3,0.1-0.6,0.2-0.9,0.3c-0.8,0.2-0.5,1.2,0.2,1.3c0.3,0,0.7,0.1,1,0.1c0.9,0.1,1-1.2,0.4-1.6c-4-2.8-8.6-6.9-13.7-4.9
			c-0.5,0.2-0.8,0.7-0.5,1.2c2.5,4.2,5.5,8,9.1,11.4C81.4,94.9,82.1,94.2,81.7,93.7L81.7,93.7z"/>
	</g>
</g>
<g>
	<g>
		<path d="M86.7,84.4c-1.5-2.8-3-5.5-3.8-8.7c-0.2,0.3-0.4,0.5-0.6,0.8c3.5-0.4,6.1,2,8.3,4.4c0.3-0.4,0.6-0.8,1-1.2
			c-0.5-0.3-1.1-0.5-1.6-0.8c-0.6-0.2-1.1,0.7-0.6,1c0.5,0.4,0.9,0.8,1.4,1.1c0.8,0.5,1.6-0.6,1-1.2c-2.7-2.6-5.6-5.2-9.6-4.6
			c-0.3,0.1-0.5,0.5-0.5,0.8c1,3.2,2.3,6.3,4.3,8.9C86.3,85.5,87,84.9,86.7,84.4L86.7,84.4z"/>
	</g>
</g>
<g>
	<g>
		<path d="M92,78.1c0.2-2.7-1.1-5.1-2.2-7.5c-1.4-3.3-3.1-6.5-4.1-10c-0.3,0.4-0.5,0.7-0.8,1.1c3.6-0.3,5.8,3.1,7.8,5.6
			c2,2.5,3.9,5.1,5.8,7.7c0.1-0.4,0.2-0.8,0.3-1.2c0,0,0,0-0.1,0c-0.7-0.4-1.3,0.5-0.8,1.1c0.4,0.5,0.6,0.5,1.3,0.5
			c0.6,0,1.2-0.8,0.8-1.3c-2.4-3.4-4.9-6.8-7.6-10c-2-2.3-4.3-4.5-7.5-4.1c-0.7,0.1-1,0.6-0.7,1.3c2.2,5.2,6.3,11.2,6.8,16.9
			C91.1,78.8,92,78.8,92,78.1L92,78.1z"/>
	</g>
</g>
<g>
	<g>
		<path d="M100,74.2c1.1-0.6,1.4-1.8,1.5-3c0.3-2.6,0.2-5.3,0.2-7.9c-0.2,0.2-0.5,0.5-0.7,0.7c4.7-0.6,6,5.9,7.4,9.1
			c0.3,0.8,1.6,0.2,1.3-0.6c-1.5-4-3.4-10.7-8.9-9.9c-0.3,0-0.5,0.4-0.5,0.7c0.1,1.7,0.1,3.4,0.1,5.2c0,1.5,0.3,3.9-1,4.9
			C98.9,73.8,99.5,74.5,100,74.2L100,74.2z"/>
	</g>
</g>
<g>
	<g>
		<path d="M109.8,73.3c2.3,0.1,3.1-2.4,3.4-4.3c0.1-0.6,0.1-0.6,0.7-0.9c0.8-0.4,1.1-0.1,1.5,0.6c0.4,0.6,0.5,1.4,0.7,2.1
			c0.4,1.7,0.7,3.3,1,5c0.2,0.9,1.6,0.5,1.4-0.4c-0.4-2.1-0.8-4.2-1.4-6.2c-0.4-1.2-1.1-2.4-2.4-2.8c-1.1-0.3-2.1,0.2-2.6,1.2
			c-0.8,1.7-0.2,3.9-2.5,4.7C109.1,72.4,109.2,73.2,109.8,73.3L109.8,73.3z"/>
	</g>
</g>
<g>
	<g>
		<path d="M43.1,15.5c0.7-2.9,3.2-4.8,6.3-3.8c0-1.2,0-2.3,0-3.5c0,0,0,0,0,0c-2,0.6-1.6,3.5,0.5,3.6c4.7,0.2,9.3,0.3,14,1.1
			c2.5,0.4,3.5-3.4,1-3.8c-5-0.7-10-0.8-15-0.9c0.2,1.2,0.3,2.4,0.5,3.6c0,0,0,0,0,0c1.6-0.6,1.8-3,0-3.5c-4.8-1.4-9.6,2-8.9,7.1
			C41.5,16.2,42.8,16.6,43.1,15.5L43.1,15.5z"/>
	</g>
</g>
<g>
	<g>
		<path d="M67.5,16.2c1.8-6.2,5-5.1,10.3-4.6C81.6,12,87.6,11,90,14.5c1.1,1.6,3.4,1,3.6-1c0.5-6.9-12.4-5.6-16.5-6
			C71,7,63,7.9,65.6,16.2C65.9,17.2,67.2,17.2,67.5,16.2L67.5,16.2z"/>
	</g>
</g>
</svg>
