<?xml version="1.0" encoding="utf-8"?>
<!-- Generator: Adobe Illustrator 23.0.1, SVG Export Plug-In . SVG Version: 6.00 Build 0)  -->
<svg version="1.1" id="logo" xmlns="http://www.w3.org/2000/svg" xmlns:xlink="http://www.w3.org/1999/xlink" x="0px" y="0px"
	 viewBox="0 0 239.8 215.3" style="enable-background:new 0 0 239.8 215.3;" xml:space="preserve">
<style type="text/css">
	.st0{fill-rule:evenodd;clip-rule:evenodd;fill:#2C55A2;}
	.st1{fill:#2C55A2;}
	.st2{fill-rule:evenodd;clip-rule:evenodd;fill:#FEC81E;}
	.st3{fill-rule:evenodd;clip-rule:evenodd;fill:#D8422E;}
	.st4{fill-rule:evenodd;clip-rule:evenodd;fill:#41A048;}
</style>
<path class="st0" d="M67.8,0C79.6,0,89,9.4,89,21s-9.7,21-21.3,21c-11.9,0-21.3-9.4-21.3-21C46.5,9.4,56.2,0,67.8,0z M67.2,50
	c11.9,0,21.3,9.4,21.3,21s-9.7,21-21.3,21C55.6,92.2,46,82.8,46,71C46,59.4,55.6,50,67.2,50z M117.2,49.7c11.9,0,21.3,9.4,21.3,21
	s-9.7,21-21.3,21c-11.9,0-21.3-9.4-21.3-21C95.7,59.1,105.3,49.7,117.2,49.7z M117.2,99.7c11.9,0,21.3,9.4,21.3,21s-9.7,21-21.3,21
	c-11.9,0-21.3-9.4-21.3-21C95.7,109.1,105.3,99.7,117.2,99.7z M166.9,99.7c11.9,0,21.3,9.4,21.3,21s-9.7,21-21.3,21
	c-11.9,0-21.3-9.4-21.3-21C145.6,109.1,155,99.7,166.9,99.7z M67.2,100.2c11.9,0,21.3,9.4,21.3,21c0,11.6-9.7,21-21.3,21
	c-11.9,0-21.3-9.4-21.3-21C46,109.6,55.6,100.2,67.2,100.2z"/>
<path class="st1" d="M0,151.5h11.2V201H0V151.5z M29.4,166c-2.6,0-5,0.3-7.3,0.9c-2.2,0.6-4.1,1.3-5.8,2.3l2,7.8
	c1.3-0.7,2.7-1.2,4.2-1.5c1.5-0.4,3.1-0.6,4.7-0.6c4.2,0,6.2,1.9,6.2,5.6v1.1c-1.2,0-2.5,0.1-4,0.1s-3,0.1-4.3,0.2
	c-3.6,0.3-6.5,1.2-8.4,2.8c-2,1.6-3,4-3,7.2c0,1.4,0.2,2.6,0.7,3.8c0.4,1.2,1.1,2.2,1.9,3.1c0.8,0.9,1.8,1.6,3,2.1s2.6,0.8,4.1,0.8
	c2.2,0,4.2-0.4,6.1-1.2c1.8-0.8,3.3-1.8,4.4-2.8v3.4h10.8v-20c0-5-1.4-8.7-4.1-11.2C38,167.2,34.3,166,29.4,166L29.4,166z
	 M33.6,192.8c-0.8,0.5-1.7,0.8-2.6,1.1c-1,0.3-2,0.4-3,0.4c-1.1,0-1.9-0.3-2.5-0.8s-0.9-1.2-0.9-2c0-1.9,1.1-2.9,3.4-3.2
	c0.8-0.1,1.7-0.2,2.6-0.3c0.9-0.1,1.9-0.2,3-0.3V192.8z M78.8,170.9c-1.3-1.6-2.8-2.8-4.7-3.6c-1.8-0.9-3.9-1.3-6.1-1.3
	c-2.1,0-3.8,0.3-5.2,0.9c-1.4,0.6-2.6,1.4-3.5,2.4v-17.8H48.1v46.7c2.1,1.1,4.4,1.9,7,2.5c2.5,0.6,5.2,0.9,8,0.9
	c3.3,0,6.2-0.5,8.7-1.4c2.5-1,4.5-2.3,6.2-3.9c1.6-1.6,2.9-3.6,3.7-5.8s1.2-4.6,1.2-7c0-2.6-0.4-4.9-1.1-7.1
	C81.1,174.3,80.1,172.5,78.8,170.9L78.8,170.9z M71.2,187.5c-0.3,1.2-0.8,2.2-1.5,3.1c-0.7,0.9-1.5,1.6-2.6,2.1s-2.3,0.8-3.8,0.8
	c-0.7,0-1.5-0.1-2.2-0.2c-0.7-0.1-1.3-0.3-1.8-0.6v-16.3c1.6-1.3,3.4-1.9,5.5-1.9c2.3,0,4.1,0.8,5.1,2.5c1,1.7,1.6,3.9,1.6,6.7
	C71.7,185,71.5,186.3,71.2,187.5z M103.5,183.9c-1.2-0.8-2.4-1.5-3.6-2c-1.2-0.5-2.1-0.9-2.7-1.2c-0.7-0.3-1.4-0.7-2.1-1
	c-0.7-0.3-1.4-0.7-2.1-1.1c-0.6-0.4-1.1-0.8-1.5-1.3s-0.6-1.1-0.6-1.8c0-1.5,0.6-2.5,1.7-3.1c1.1-0.6,2.5-0.8,4.1-0.8
	c1.5,0,3,0.2,4.4,0.5c1.5,0.3,2.9,0.9,4.2,1.5l1.1-4.8c-1.4-0.7-2.9-1.2-4.6-1.6c-1.7-0.4-3.4-0.6-5.2-0.6c-1.5,0-3,0.2-4.5,0.5
	c-1.4,0.4-2.7,0.9-3.8,1.6s-2,1.7-2.7,2.9c-0.7,1.2-1,2.6-1,4.2c0,1.5,0.3,2.8,0.9,3.9c0.6,1.1,1.4,2,2.5,2.8c1,0.8,2.1,1.5,3.3,2.1
	c1.2,0.6,2.4,1.1,3.6,1.6c0.9,0.4,1.7,0.7,2.6,1.1c0.8,0.4,1.5,0.8,2.1,1.2c0.6,0.4,1.1,1,1.5,1.5c0.4,0.6,0.6,1.3,0.6,2
	c0,1.6-0.7,2.7-2.1,3.5c-1.4,0.7-3.1,1.1-5.1,1.1c-1.9,0-3.7-0.2-5.2-0.6c-1.6-0.4-3-0.9-4.2-1.4l-1.1,5c0.6,0.3,1.3,0.5,2.2,0.8
	s1.8,0.5,2.7,0.7s1.9,0.3,2.8,0.4c0.9,0.1,1.8,0.1,2.7,0.1c1.9,0,3.7-0.2,5.3-0.7s3-1.2,4.2-2.1c1.2-0.9,2.1-2,2.8-3.2
	c0.7-1.3,1-2.7,1-4.3c0-1.7-0.4-3.2-1.3-4.4C105.7,185.8,104.7,184.7,103.5,183.9L103.5,183.9z M126.5,171.7c1.4,0,2.7,0.1,4.1,0.4
	c1.4,0.3,2.7,0.7,3.9,1.2l0.9-4.9c-1.2-0.6-2.6-1-4.2-1.3c-1.6-0.3-3.4-0.5-5.3-0.5c-2.8,0-5.3,0.5-7.4,1.4
	c-2.1,0.9-3.9,2.2-5.3,3.8c-1.4,1.6-2.5,3.5-3.2,5.6s-1.1,4.4-1.1,6.7s0.4,4.6,1.1,6.7c0.7,2.1,1.8,4,3.2,5.6
	c1.4,1.6,3.2,2.9,5.3,3.8s4.6,1.4,7.4,1.4c1.6,0,3.3-0.2,5-0.5c1.8-0.3,3.2-0.8,4.4-1.3l-0.9-4.9c-1.2,0.5-2.5,0.9-3.9,1.2
	c-1.4,0.3-2.7,0.4-4.1,0.4c-3.8,0-6.6-1.2-8.4-3.5c-1.8-2.3-2.7-5.3-2.7-9s0.9-6.7,2.7-9C119.9,172.9,122.7,171.7,126.5,171.7z
	 M238.8,177c-0.7-2.1-1.6-3.9-2.7-5.5c-1.2-1.5-2.6-2.7-4.2-3.6c-1.6-0.8-3.5-1.3-5.5-1.3c-2.7,0-4.8,0.5-6.5,1.5s-3.1,2.3-4.1,3.7
	v-4.6h-6v48.1h6.3v-14.5c1,0.3,2,0.5,3,0.7c1.1,0.2,2.3,0.2,3.6,0.2c2.4,0,4.7-0.4,6.8-1.2c2.1-0.8,3.9-1.9,5.4-3.5
	c1.5-1.5,2.7-3.4,3.6-5.6s1.3-4.7,1.3-7.5C239.8,181.4,239.4,179.1,238.8,177L238.8,177z M230.3,193.3c-2.1,2.2-4.9,3.3-8.4,3.3
	c-1.1,0-2.2-0.1-3.2-0.2s-1.9-0.4-2.7-0.7v-19.4c0.9-1.1,2.1-2.2,3.5-3.1c1.4-1,3.2-1.4,5.3-1.4c1.4,0,2.7,0.3,3.8,0.9
	c1.1,0.6,2,1.4,2.7,2.5s1.3,2.4,1.6,3.8c0.3,1.5,0.5,3.1,0.5,4.8C233.5,188,232.4,191.1,230.3,193.3L230.3,193.3z"/>
<path class="st1" d="M152.7,166.6c-9.7,0-17.5,7.8-17.5,17.5c0,9.7,7.8,17.5,17.5,17.5s17.5-7.8,17.5-17.5
	C170.2,174.5,162.3,166.6,152.7,166.6z M152.7,196.2c-6.6,0-12-5.4-12-12c0-6.6,5.4-12,12-12s12,5.4,12,12
	C164.7,190.8,159.3,196.2,152.7,196.2z M189.7,166.6c-9.7,0-17.5,7.8-17.5,17.5c0,9.7,7.8,17.5,17.5,17.5s17.5-7.8,17.5-17.5
	C207.2,174.5,199.4,166.6,189.7,166.6L189.7,166.6z M189.7,196.2c-6.6,0-12-5.4-12-12c0-6.6,5.4-12,12-12c6.6,0,12,5.4,12,12
	C201.7,190.8,196.3,196.2,189.7,196.2L189.7,196.2z"/>
<path class="st2" d="M166.9,49.7c11.9,0,21.3,9.4,21.3,21s-9.7,21-21.3,21c-11.9,0-21.3-9.4-21.3-21S155,49.7,166.9,49.7z"/>
<path class="st3" d="M117.2,0c11.9,0,21.3,9.4,21.3,21s-9.7,21-21.3,21c-11.9,0-21.3-9.4-21.3-21C95.7,9.4,105.3,0,117.2,0z"/>
<path class="st4" d="M166.3,0c11.9,0,21.3,9.4,21.3,21s-9.7,21-21.3,21c-11.9,0-21.3-9.4-21.3-21C144.8,9.4,154.5,0,166.3,0z"/>
</svg>
