<?xml version="1.0" encoding="utf-8"?>
<!-- Generator: Adobe Illustrator 23.0.1, SVG Export Plug-In . SVG Version: 6.00 Build 0)  -->
<svg version="1.1" id="logo" xmlns="http://www.w3.org/2000/svg" xmlns:xlink="http://www.w3.org/1999/xlink" x="0px" y="0px"
	 viewBox="0 0 301.3 64.3" style="enable-background:new 0 0 301.3 64.3;" xml:space="preserve">
<style type="text/css">
	.st0{fill-rule:evenodd;clip-rule:evenodd;fill:#2C55A2;}
	.st1{fill:#2C55A2;}
	.st2{fill-rule:evenodd;clip-rule:evenodd;fill:#FEC81E;}
	.st3{fill-rule:evenodd;clip-rule:evenodd;fill:#D8422E;}
	.st4{fill-rule:evenodd;clip-rule:evenodd;fill:#41A048;}
</style>
<g>
	<path class="st0" d="M7.9,0c4.3,0,7.7,3.4,7.7,7.6c0,4.2-3.5,7.6-7.7,7.6c-4.3,0-7.7-3.4-7.7-7.6C0.2,3.4,3.7,0,7.9,0L7.9,0z"/>
	<path class="st0" d="M7.7,18.1c4.3,0,7.7,3.4,7.7,7.6c0,4.2-3.5,7.6-7.7,7.6C3.5,33.4,0,30,0,25.7C0,21.5,3.5,18.1,7.7,18.1
		L7.7,18.1z"/>
	<path class="st0" d="M25.8,18c4.3,0,7.7,3.4,7.7,7.6c0,4.2-3.5,7.6-7.7,7.6c-4.3,0-7.7-3.4-7.7-7.6C18,21.4,21.5,18,25.8,18
		L25.8,18z"/>
	<path class="st0" d="M25.8,36.1c4.3,0,7.7,3.4,7.7,7.6c0,4.2-3.5,7.6-7.7,7.6c-4.3,0-7.7-3.4-7.7-7.6C18,39.5,21.5,36.1,25.8,36.1
		L25.8,36.1z"/>
	<path class="st0" d="M43.8,36.1c4.3,0,7.7,3.4,7.7,7.6c0,4.2-3.5,7.6-7.7,7.6c-4.3,0-7.7-3.4-7.7-7.6
		C36.1,39.5,39.5,36.1,43.8,36.1L43.8,36.1z"/>
	<path class="st0" d="M7.7,36.3c4.3,0,7.7,3.4,7.7,7.6c0,4.2-3.5,7.6-7.7,7.6c-4.3,0-7.7-3.4-7.7-7.6C0,39.7,3.5,36.3,7.7,36.3
		L7.7,36.3z"/>
</g>
<g>
	<rect x="61.5" y="0.4" class="st1" width="11.2" height="49.5"/>
	<path class="st1" d="M90.9,14.9c-2.6,0-5,0.3-7.3,0.9c-2.2,0.6-4.1,1.3-5.8,2.3l2,7.8c1.3-0.7,2.7-1.2,4.2-1.5
		c1.5-0.4,3.1-0.6,4.7-0.6c4.2,0,6.2,1.9,6.2,5.6v1.1c-1.2,0-2.5,0.1-4,0.1c-1.5,0-3,0.1-4.3,0.2c-3.6,0.3-6.5,1.2-8.4,2.8
		c-2,1.6-3,4-3,7.2c0,1.4,0.2,2.6,0.7,3.8c0.4,1.2,1.1,2.2,1.9,3.1c0.8,0.9,1.8,1.6,3,2.1c1.2,0.5,2.6,0.8,4.1,0.8
		c2.2,0,4.2-0.4,6.1-1.2c1.8-0.8,3.3-1.8,4.4-2.8v3.4h10.8v-20c0-5-1.4-8.7-4.1-11.2C99.5,16.1,95.8,14.9,90.9,14.9z M95.1,41.7
		c-0.8,0.5-1.7,0.8-2.6,1.1c-1,0.3-2,0.4-3,0.4c-1.1,0-1.9-0.3-2.5-0.8c-0.6-0.5-0.9-1.2-0.9-2c0-1.9,1.1-2.9,3.4-3.2
		c0.8-0.1,1.7-0.2,2.6-0.3c0.9-0.1,1.9-0.2,3-0.3V41.7z"/>
	<path class="st1" d="M140.3,19.8c-1.3-1.6-2.8-2.8-4.7-3.6c-1.8-0.9-3.9-1.3-6.1-1.3c-2.1,0-3.8,0.3-5.2,0.9
		c-1.4,0.6-2.6,1.4-3.5,2.4V0.4h-11.2v46.7c2.1,1.1,4.4,1.9,7,2.5c2.5,0.6,5.2,0.9,8,0.9c3.3,0,6.2-0.5,8.7-1.4
		c2.5-1,4.5-2.3,6.2-3.9c1.6-1.6,2.9-3.6,3.7-5.8s1.2-4.6,1.2-7c0-2.6-0.4-4.9-1.1-7.1C142.6,23.2,141.6,21.4,140.3,19.8z
		 M132.7,36.4c-0.3,1.2-0.8,2.2-1.5,3.1c-0.7,0.9-1.5,1.6-2.6,2.1c-1.1,0.5-2.3,0.8-3.8,0.8c-0.7,0-1.5-0.1-2.2-0.2
		c-0.7-0.1-1.3-0.3-1.8-0.6V25.3c1.6-1.3,3.4-1.9,5.5-1.9c2.3,0,4.1,0.8,5.1,2.5s1.6,3.9,1.6,6.7C133.2,33.9,133,35.2,132.7,36.4z"
		/>
	<path class="st1" d="M165,32.8c-1.2-0.8-2.4-1.5-3.6-2c-1.2-0.5-2.1-0.9-2.7-1.2c-0.7-0.3-1.4-0.7-2.1-1c-0.7-0.3-1.4-0.7-2.1-1.1
		c-0.6-0.4-1.1-0.8-1.5-1.3c-0.4-0.5-0.6-1.1-0.6-1.8c0-1.5,0.6-2.5,1.7-3.1c1.1-0.6,2.5-0.8,4.1-0.8c1.5,0,3,0.2,4.4,0.5
		c1.5,0.3,2.9,0.9,4.2,1.5l1.1-4.8c-1.4-0.7-2.9-1.2-4.6-1.6c-1.7-0.4-3.4-0.6-5.2-0.6c-1.5,0-3,0.2-4.5,0.5
		c-1.4,0.4-2.7,0.9-3.8,1.6c-1.1,0.7-2,1.7-2.7,2.9c-0.7,1.2-1,2.6-1,4.2c0,1.5,0.3,2.8,0.9,3.9c0.6,1.1,1.4,2,2.5,2.8
		c1,0.8,2.1,1.5,3.3,2.1c1.2,0.6,2.4,1.1,3.6,1.6c0.9,0.4,1.7,0.7,2.6,1.1c0.8,0.4,1.5,0.8,2.1,1.2c0.6,0.4,1.1,1,1.5,1.5
		c0.4,0.6,0.6,1.3,0.6,2c0,1.6-0.7,2.7-2.1,3.5c-1.4,0.7-3.1,1.1-5.1,1.1c-1.9,0-3.7-0.2-5.2-0.6c-1.6-0.4-3-0.9-4.2-1.4l-1.1,5
		c0.6,0.3,1.3,0.5,2.2,0.8c0.9,0.3,1.8,0.5,2.7,0.7c0.9,0.2,1.9,0.3,2.8,0.4c0.9,0.1,1.8,0.1,2.7,0.1c1.9,0,3.7-0.2,5.3-0.7
		c1.6-0.5,3-1.2,4.2-2.1c1.2-0.9,2.1-2,2.8-3.2c0.7-1.3,1-2.7,1-4.3c0-1.7-0.4-3.2-1.3-4.4C167.2,34.7,166.2,33.6,165,32.8z"/>
	<path class="st1" d="M188,20.6c1.4,0,2.7,0.1,4.1,0.4c1.4,0.3,2.7,0.7,3.9,1.2l0.9-4.9c-1.2-0.6-2.6-1-4.2-1.3
		c-1.6-0.3-3.4-0.5-5.3-0.5c-2.8,0-5.3,0.5-7.4,1.4c-2.1,0.9-3.9,2.2-5.3,3.8c-1.4,1.6-2.5,3.5-3.2,5.6c-0.7,2.1-1.1,4.4-1.1,6.7
		c0,2.3,0.4,4.6,1.1,6.7c0.7,2.1,1.8,4,3.2,5.6c1.4,1.6,3.2,2.9,5.3,3.8c2.1,0.9,4.6,1.4,7.4,1.4c1.6,0,3.3-0.2,5-0.5
		c1.8-0.3,3.2-0.8,4.4-1.3l-0.9-4.9c-1.2,0.5-2.5,0.9-3.9,1.2c-1.4,0.3-2.7,0.4-4.1,0.4c-3.8,0-6.6-1.2-8.4-3.5
		c-1.8-2.3-2.7-5.3-2.7-9c0-3.7,0.9-6.7,2.7-9C181.4,21.8,184.2,20.6,188,20.6z"/>
	<path class="st1" d="M300.3,25.9c-0.7-2.1-1.6-3.9-2.7-5.5c-1.2-1.5-2.6-2.7-4.2-3.6c-1.6-0.8-3.5-1.3-5.5-1.3
		c-2.7,0-4.8,0.5-6.5,1.5c-1.7,1-3.1,2.3-4.1,3.7v-4.6h-6v48.1h6.3V49.7c1,0.3,2,0.5,3,0.7c1.1,0.2,2.3,0.2,3.6,0.2
		c2.4,0,4.7-0.4,6.8-1.2c2.1-0.8,3.9-1.9,5.4-3.5c1.5-1.5,2.7-3.4,3.6-5.6c0.9-2.2,1.3-4.7,1.3-7.5C301.3,30.3,300.9,28,300.3,25.9z
		 M291.8,42.2c-2.1,2.2-4.9,3.3-8.4,3.3c-1.1,0-2.2-0.1-3.2-0.2c-1-0.1-1.9-0.4-2.7-0.7V25.2c0.9-1.1,2.1-2.2,3.5-3.1
		c1.4-1,3.2-1.4,5.3-1.4c1.4,0,2.7,0.3,3.8,0.9c1.1,0.6,2,1.4,2.7,2.5c0.7,1.1,1.3,2.4,1.6,3.8c0.3,1.5,0.5,3.1,0.5,4.8
		C295,36.9,293.9,40,291.8,42.2z"/>
	<path class="st1" d="M214.2,15.5c-9.7,0-17.5,7.8-17.5,17.5c0,9.7,7.8,17.5,17.5,17.5c9.7,0,17.5-7.8,17.5-17.5
		C231.7,23.4,223.8,15.5,214.2,15.5z M214.2,45.1c-6.6,0-12-5.4-12-12s5.4-12,12-12c6.6,0,12,5.4,12,12S220.8,45.1,214.2,45.1z"/>
	<path class="st1" d="M251.2,15.5c-9.7,0-17.5,7.8-17.5,17.5c0,9.7,7.8,17.5,17.5,17.5c9.7,0,17.5-7.8,17.5-17.5
		C268.7,23.4,260.9,15.5,251.2,15.5z M251.2,45.1c-6.6,0-12-5.4-12-12s5.4-12,12-12s12,5.4,12,12S257.8,45.1,251.2,45.1z"/>
</g>
<path class="st2" d="M43.8,18c4.3,0,7.7,3.4,7.7,7.6c0,4.2-3.5,7.6-7.7,7.6c-4.3,0-7.7-3.4-7.7-7.6C36.1,21.4,39.5,18,43.8,18
	L43.8,18z"/>
<path class="st3" d="M25.8,0c4.3,0,7.7,3.4,7.7,7.6c0,4.2-3.5,7.6-7.7,7.6c-4.3,0-7.7-3.4-7.7-7.6C18,3.4,21.5,0,25.8,0L25.8,0z"/>
<path class="st4" d="M43.6,0c4.3,0,7.7,3.4,7.7,7.6c0,4.2-3.5,7.6-7.7,7.6c-4.3,0-7.7-3.4-7.7-7.6C35.8,3.4,39.3,0,43.6,0L43.6,0z"
	/>
</svg>
