<?xml version="1.0" encoding="utf-8"?>
<!-- Generator: Adobe Illustrator 23.0.1, SVG Export Plug-In . SVG Version: 6.00 Build 0)  -->
<svg version="1.1" id="Layer_1" xmlns="http://www.w3.org/2000/svg" xmlns:xlink="http://www.w3.org/1999/xlink" x="0px" y="0px"
	 viewBox="0 0 296.1 229.1" style="enable-background:new 0 0 296.1 229.1;" xml:space="preserve">
<style type="text/css">
	.st0{fill:#B49985;}
	.st1{fill:#725A45;}
	.st2{fill:#FFFFFF;}
	.st3{fill:#A3732D;}
	.st4{fill:#FFCA0F;}
	.st5{fill:#6E6D6E;}
	.st6{fill:none;stroke:#000000;stroke-width:2.3601;stroke-miterlimit:10;}
	.st7{fill:#2D2E2D;}
	.st8{fill:#8E7662;}
	.st9{fill:#88CA8E;}
	.st10{opacity:0.5;fill:#FFFFFF;}
	.st11{fill:none;stroke:#000000;stroke-width:2.5954;stroke-miterlimit:10;}
	.st12{fill:none;stroke:#000000;stroke-width:2.1628;stroke-linecap:round;stroke-miterlimit:10;}
	.st13{fill:#D24934;}
	.st14{fill:#D8BCA1;}
	.st15{fill:#F2DBC7;}
	.st16{fill:none;stroke:#000000;stroke-width:2.7234;stroke-miterlimit:10;}
	.st17{fill:none;stroke:#000000;stroke-width:2.2695;stroke-linecap:round;stroke-miterlimit:10;}
	.st18{fill:#5881C1;}
	.st19{fill:#C4D7EA;}
	.st20{fill:#A2A28D;}
	.st21{fill:#A0856E;}
	.st22{fill:none;stroke:#000000;stroke-width:2.5362;stroke-miterlimit:10;}
	.st23{fill:none;stroke:#000000;stroke-width:2.1135;stroke-linecap:round;stroke-miterlimit:10;}
	.st24{fill:#792D91;}
	.st25{fill:none;stroke:#000000;stroke-width:2.5149;stroke-miterlimit:10;}
	.st26{fill:#DDDAC5;}
	.st27{fill:#D3D3D3;stroke:#000000;stroke-width:0.2096;}
	.st28{opacity:0.3;fill:#575757;stroke:#000000;stroke-width:0.2096;}
	.st29{fill:none;stroke:#000000;stroke-width:2.0958;stroke-linecap:round;stroke-miterlimit:10;}
	.st30{fill:#38A047;}
	.st31{fill:#FBE4A2;}
	.st32{fill:none;stroke:#000000;stroke-width:2.7572;stroke-miterlimit:10;}
	.st33{fill:none;stroke:#000000;stroke-width:2.2977;stroke-linecap:round;stroke-miterlimit:10;}
</style>
<g>
	<path class="st0" d="M101,7c9.6-0.5,20.4,6.5,19.9,18.6s-9.7,13.7-13.3,14.5c-0.6,3.6-0.5,4.7-2.3,5.4c-1.8,0.7-6.6,2.1-10.3,0.7
		c-1.1-3.1-0.9-4.2-0.6-6.1c-7.2-2.3-12.5-6.7-12.3-16.9C82.3,13,88,7.6,101,7z"/>
	<path class="st1" d="M105.6,111.8c2.8,1.2,4.9,0.9,7.5,0.5c2.6-0.4,4.9,1.1,3.9,3s-3,3.9-5.2,3c-2.3-1-2.6-1.2-4.6-0.5
		c-2,0.7-6-0.6-2.8-5.1l0.9-1.2L105.6,111.8z"/>
	<path class="st1" d="M92.9,111.8c1,1.2,1.9,2.4,0.9,4.1c-1,1.6-1.6,2.7-3.8,2c-2.2-0.7-3.1-0.6-4.7,0.1c-1.6,0.7-2.4,1.1-3.5-0.5
		c-1.2-1.6-1.6-4,1.2-4.3s6.4,0.3,7.6-0.2C91.9,112.4,92.9,111.8,92.9,111.8z"/>
	<path class="st2" d="M111.5,39.2c1.4,2.6,4.3,9.9,3.7,17c-0.5,7.1-1.9,24.3-0.1,29c0,0-3.9,3.3-10.9,1.5c-0.6-10.7-1.9-23.5-2.6-28
		s-0.3-6.7,2-9.6s4.1-6.1,4.1-9.2L111.5,39.2z"/>
	<path class="st2" d="M94.3,39.8c-0.7,2.4-0.1,6.4,1.9,9.8c2,3.3,1.2,6.7,0.5,10.2s-2,9.7-2.1,15.5s0.1,12.5,0.1,12.5
		s-9.5,0.9-10.6-1.9c0,0-0.4-12.8-0.3-20s0.5-18.8,6.1-27.2L94.3,39.8z"/>
	<path class="st3" d="M105.9,45.4c-3.3,1.6-7.6,2.5-11.2,1.1c2.1,3.8,3.4,6.6,2.2,11.1s-2.5,16.7-2.2,22.2c3.3,0.7,7.4,0.7,9,0.2
		c-0.9-10.8-2-19.7-2.3-23.3c-0.3-3.6,0.1-5.2,2.1-7.5C105.6,46.8,105.9,45.4,105.9,45.4z"/>
	<path class="st4" d="M84.3,63.2c-2,0.4-5,1-5.8,3.3L82,71c0,0-3.6,2.6,2.2,6.5C84.2,77.5,84.5,67.6,84.3,63.2z"/>
	<path class="st4" d="M119.6,63c-0.9,1-2.2,3.3-5.2,3.7l-0.3,11.3c0,0,4.4-1.1,3-6.8c0,0,4.9-1.5,6.3-3
		C123.5,68.4,124,65.8,119.6,63z"/>
	<path class="st5" d="M81.4,27.7c-1.1,5.6-1,8.3-2.4,11.5c-1.4,3.2-3.2,6.8-3.2,6.8l10.6,1.1c0,0,2.8-6.8,3.7-8.1
		C87,37.2,82.7,34.7,81.4,27.7z"/>
	<path class="st5" d="M120.5,32c-0.2,4,1,10.4,3.5,13.6c-2.9,1.2-7.8,1.9-10.1,1.4c0,0-0.9-5-2.7-8.2
		C116.2,36.7,119.3,34.8,120.5,32z"/>
	<path class="st5" d="M101,7c8-0.4,16.8,4.4,19.2,13c-4.6-0.4-7.3-0.8-9.9-1.2c-2.7-0.4-8-1.5-10.1-1.6c-2.1-0.1-5.9,0.9-8.8,1.3
		c-2.4,0.4-5.5,1.3-8.9,1C84,11.7,89.7,7.6,101,7z"/>
	<g>
		<g>
			<path d="M112.6,11.2c7.9,3.6,8.8,15.4,4.8,22.2c-4,6.7-15.8,6.9-22.3,5.7C84.7,37.2,82,28,84.1,18.7c2.6-11.4,18.1-12.8,26.8-8
				c0.9,0.5,1.6-0.8,0.8-1.4c-8.6-6-24.2-3.8-28.8,6.3c-4.5,9.9-1.2,21.5,9.3,25.1c8.3,2.8,21.5,1.4,26.8-6.3
				c5.1-7.2,2.3-20.7-6.2-24.1C112.5,10.2,112.2,11,112.6,11.2L112.6,11.2z"/>
		</g>
	</g>
	<g>
		<g>
			<path d="M111.3,40.6c6.8,14.2-0.3,30,2.9,44.9c0.2,1.1,1.8,0.6,1.6-0.4c-3-14.9,3.9-30.9-3.8-44.9
				C111.8,39.6,111.1,40.1,111.3,40.6L111.3,40.6z"/>
		</g>
	</g>
	<g>
		<g>
			<path d="M84.8,85.9c0.2-7.8,0-15.5,0.2-23.3c0.1-4.1,0.6-8.1,1.4-12.2c0.8-4.2,2.6-7.3,4.5-11c0.5-1-1-1.8-1.5-0.9
				c-1.4,2.8-3,5.1-3.9,8.2c-0.9,3.3-1.4,6.8-1.8,10.2c-1,9.6-0.1,19.4,0.1,29C83.9,86.4,84.8,86.4,84.8,85.9L84.8,85.9z"/>
		</g>
	</g>
	<g>
		<g>
			<path d="M107.2,41.4c-1.2,3.8-4.1,6-5.6,9.5c-1.1,2.7-1,5.6-0.8,8.5c0.5,9.1,2.3,18.1,2.2,27.3c0,0.3,0.2,0.7,0.6,0.8
				c4.2,0.6,8.2,0.7,11.9-1.5c0.8-0.5,0.1-1.7-0.8-1.3c-2.2,1.1-4.2,1.5-6.6,1.6c-3.8,0.1-3.6-2.3-3.8-5.2c-0.3-4.3-0.4-8.6-1-13
				c-0.7-5.1-2-10.8-0.9-15.9c0.5-2,2.5-4,3.6-5.8c0.9-1.5,1.4-3.2,1.8-4.9C108.1,41.1,107.4,40.9,107.2,41.4L107.2,41.4z"/>
		</g>
	</g>
	<g>
		<g>
			<path d="M93.8,40c-0.6,2.8-0.2,5.3,1,7.9c2.7,6.1,1,12.7,0.1,19c-0.7,5.1-1,10.1-1,15.2c0,2,0.9,4.9-1.6,4.8
				c-2.6,0-5-0.2-7.5-1.1c-0.8-0.3-1.4,1-0.6,1.4c3.2,1.7,6.9,1.3,10.5,1.4c0.4,0,0.8-0.4,0.8-0.8c-0.1-8.3,0.3-16.2,1.4-24.4
				c0.5-3.8,1.2-7.7,0.7-11.6c-0.5-4.3-3.7-6.9-3-11.6C94.7,39.7,93.9,39.5,93.8,40L93.8,40z"/>
		</g>
	</g>
	<g>
		<g>
			<path d="M105.5,45.2c-3.2,1.3-6.9,2-10.3,0.5c-0.7-0.3-1.4,0.8-0.6,1.1c3.4,1.5,8,1.1,11.2-0.8C106.3,45.7,106,45,105.5,45.2
				L105.5,45.2z"/>
		</g>
	</g>
	<g>
		<g>
			<path d="M103,79.7c-2.8,0.1-5.6,0.4-8.4-0.4c-0.8-0.2-1.1,1-0.3,1.2c2.9,0.6,5.9,0.5,8.9,0.1C103.6,80.5,103.5,79.7,103,79.7
				L103,79.7z"/>
		</g>
	</g>
	<g>
		<g>
			<path d="M111.9,53.7c0.2,1.5,0.2,2.9,0.1,4.4c0,0.7,0.1,1.8-0.5,2.3c-0.9,0.9-2,1.6-3,2.3c0.2,0,0.5,0.1,0.7,0.1
				c-1.3-1.1-2.9-1.8-4.2-2.9c0,0.2,0.1,0.5,0.1,0.7c1.4-1.9,0.7-4.8,0.7-7c-0.2,0.2-0.4,0.4-0.6,0.6c2.5,0,5.1,0,7.6,0
				c0.8,0,0.8-1.2,0-1.2c-2.5,0-5.1,0-7.6,0c-0.3,0-0.6,0.3-0.6,0.6c0,2.1,0.6,4.5-0.4,6.4c-0.1,0.2-0.1,0.5,0.1,0.7
				c1.3,1.1,2.9,1.8,4.2,2.9c0.3,0.2,0.5,0.2,0.8,0c1.2-1,3.4-2.2,3.5-3.9c0.1-2,0.3-4.1-0.1-6.2C112.4,53.3,111.9,53.3,111.9,53.7
				L111.9,53.7z"/>
		</g>
	</g>
	<g>
		<g>
			<path d="M93.4,53.3c0,1.3-0.1,2.7,0,4c0.2-0.2,0.3-0.3,0.5-0.5c-2.5,0.1-5-0.4-7.5-0.5c0.2,0.2,0.3,0.3,0.5,0.5
				c0-1.3,0.3-2.5,0.4-3.7c-0.2,0.2-0.3,0.3-0.5,0.5c2.3,0.1,4.5,0.1,6.7,0.6c0.6,0.1,0.9-0.8,0.3-0.9c-2.3-0.7-4.6-0.5-7-0.6
				c-0.3,0-0.5,0.2-0.5,0.5c0,1.3-0.3,2.5-0.4,3.7c0,0.3,0.2,0.5,0.5,0.5c2.5,0.2,5,0.6,7.5,0.5c0.3,0,0.5-0.3,0.5-0.6
				c-0.3-1.3-0.1-2.6-0.5-3.9C93.9,53,93.4,53,93.4,53.3L93.4,53.3z"/>
		</g>
	</g>
	<g>
		<g>
			<path d="M92.5,55.1c-0.1,0.4-2-0.4-2.3-0.5c-0.1,0-0.2,0-0.2,0.1c-0.1,0.3-0.1,0.5-0.1,0.8c0.1-0.1,0.2-0.1,0.3-0.2
				c-0.4-0.3-0.9-0.8-1.5-0.6c-0.3,0.1-0.2,0.6-0.5,0.4c-0.2-0.1-0.4,0.1-0.2,0.3c0.2,0.1,0.4,0.4,0.6,0.2c0.1-0.1,0.1-0.2,0.1-0.3
				c0.2-0.5,1,0.2,1.3,0.3c0.1,0.1,0.3,0,0.3-0.2c0-0.7,0-0.6,0.5-0.4c0.4,0.1,0.8,0.3,1.2,0.4c0.3,0.1,0.8,0.1,0.7-0.3
				C92.7,55,92.6,55,92.5,55.1L92.5,55.1z"/>
		</g>
	</g>
	<g>
		<g>
			<path d="M109.6,25.8c0,0.2,0.1,0.4,0.1,0.5c0-0.1,0,0.1,0,0.1c0-0.2-0.1,0.1,0-0.1c-0.1,0.2,0,0,0.1,0c0.2-0.1,0.1,0,0,0
				c0.3-0.1-0.1,0,0.2,0c0,0-0.1,0-0.1,0c-0.2,0,0.2,0.1,0,0c-0.2-0.1,0.1,0.1,0,0c-0.1-0.1,0.1,0.2,0,0c0.1,0.2,0,0,0,0
				c0,0.2,0,0,0-0.1c0,0.2,0-0.1,0-0.1c0-0.1,0.1-0.3,0.1-0.4c0.1-0.7-0.9-1.1-1.4-0.6c-0.5,0.5-0.5,1.4-0.2,2
				c0.3,0.5,0.9,0.8,1.4,0.9c0.5,0.1,1.3-0.3,1.4-0.9c0.1-0.7-0.2-1.5-0.8-1.9C110,24.8,109.6,25.4,109.6,25.8L109.6,25.8z"/>
		</g>
	</g>
	<g>
		<g>
			<path d="M94.4,24.7c0,0.4,0.1,0.9,0,1.3c0.1-0.2-0.1,0.1,0.1-0.1c-0.1,0.2,0.1,0,0,0c0.1,0,0.2-0.1,0.1,0c0.1,0,0.2,0,0.1,0
				c0.3,0-0.1-0.1,0.1,0c0,0-0.2-0.1,0,0c0,0-0.2-0.2,0,0c0,0-0.1-0.1-0.1-0.1c0.1,0.2,0-0.2,0,0.1c0-0.1,0-0.2,0,0c0-0.2,0,0,0-0.1
				c0.1-0.1,0.1-0.1,0,0c0.1-0.1,0.2-0.2,0.2-0.4c0.1-0.2,0-0.4,0-0.6c0-0.3-0.4-0.6-0.7-0.6c-1,0-1.3,1.1-1.1,1.9
				c0.1,0.6,0.6,1,1.1,1.2c0.5,0.2,1.3,0,1.5-0.6c0.3-0.8,0-1.6-0.5-2.3C95,24.1,94.3,24.2,94.4,24.7L94.4,24.7z"/>
		</g>
	</g>
	<g>
		<g>
			<path d="M106.3,33.4c-2.5,2.4-5.7,1.9-8.6,0.7c-0.8-0.4-1.3,0.8-0.5,1.2c3.3,1.3,7.2,1.7,9.6-1.4C107,33.5,106.6,33.1,106.3,33.4
				L106.3,33.4z"/>
		</g>
	</g>
	<g>
		<g>
			<path d="M96.6,21.4c-2.3,0-4.4,0.8-6.5,1.6c-0.6,0.2-0.2,1,0.3,0.8c2-1,4-1.7,6.2-1.9C96.9,21.9,96.9,21.4,96.6,21.4L96.6,21.4z"
				/>
		</g>
	</g>
	<g>
		<g>
			<path d="M108.2,22.6c2.3,0.2,4.7,0,6.7,1.4c0.4,0.3,0.9-0.3,0.5-0.7c-1.9-1.7-4.9-1.4-7.2-1.2C107.9,22.2,107.9,22.6,108.2,22.6
				L108.2,22.6z"/>
		</g>
	</g>
	<path class="st6" d="M107.5,87.5c-0.3,4.6-0.1,6-0.4,11.8c-0.3,5.8-0.8,9.8-0.9,12.8"/>
	<path class="st6" d="M91.2,88c-0.4,3.9,0.3,6.2,0.3,11.1s-0.1,10.4,0,13.1"/>
	<path class="st6" d="M111.5,39.5c3.7,2.6,7.3,7.2,8.8,8.8c1.4,1.6,7.1,9.2,7.1,9.2s-2.1,4.4-5.7,7.7"/>
	<path class="st6" d="M89.8,39c-3,2.6-9.8,9.3-11.5,11.4s-3.1,5-3.1,5s3.5,5.5,5.4,8.8"/>
	<g>
		<g>
			<path d="M105.5,112.6c2.2,0.7,4.2,0.9,6.4,0.6c1.5-0.2,2.9-0.4,4.1,0.7c1.3,1.1-0.6,2.7-1.4,3.2c-2.2,1.4-4.2-0.5-6.5-0.3
				c-1.5,0.2-3,1.2-4.1-0.5c-0.8-1.1,0.3-2.7,0.9-3.5c0.3-0.4-0.3-0.9-0.7-0.6c-2.1,1.9-2.4,5,0.3,6.3c1.8,0.9,3.8-0.5,5.7,0.1
				c1.7,0.5,3,0.7,4.7-0.1c2.1-1,3.7-3.5,2-5.5c-1.1-1.2-2.9-1.2-4.4-1c-1,0.1-1.9,0.3-2.9,0.4c-1.3,0.1-2.7-0.4-4-0.5
				C105.2,111.8,105.2,112.5,105.5,112.6L105.5,112.6z"/>
		</g>
	</g>
	<g>
		<g>
			<path d="M93.2,112.9c1.3,2.1-0.4,4.1-2.6,4.1c-1.3,0-2.4-0.5-3.8-0.3c-1.7,0.2-2.9,1.6-4.7,0.1c-0.6-2-0.2-3.1,1.1-3.2
				c0.6-0.1,1.2-0.2,1.8-0.2c2.5-0.1,6.6,0.8,8.3-1.6c0.4-0.6-0.4-1.1-0.9-0.7c-2.3,2.1-7.1,0.8-10.1,1.4c-3.1,0.7-2.6,4-0.7,5.6
				c1.2,1,2.5,0.7,3.9,0.3c2.3-0.7,4.4,0.4,6.6-0.3c2.6-0.8,3.5-3.8,1.7-5.7C93.5,112.2,93,112.6,93.2,112.9L93.2,112.9z"/>
		</g>
	</g>
	<g>
		<g>
			<path d="M119,19.7c-5.9-0.7-11.9-2.7-17.9-2.8c-5.9-0.2-11.4,2.3-17.2,2.1c-0.6,0-0.5,0.8,0,0.9c5.4,0.2,10.4-1.8,15.7-2.2
				c6.2-0.4,13.1,2.2,19.4,2.5C119.3,20.2,119.3,19.7,119,19.7L119,19.7z"/>
		</g>
	</g>
	<g>
		<g>
			<path d="M120,31c-0.5,4.2,0.6,8,2.2,11.8c0.3,0.7,0.6,1.4,0.9,2.1c0.5,1-2.2,1.4-2.6,1.5c-2.1,0.5-4.3,0.3-6.4,0.2
				c-0.4,0-0.5,0.7-0.1,0.8c3.4,0.5,7.1,0.2,10.1-1.4c0.2-0.1,0.2-0.4,0.1-0.6c-2.3-4.5-4.4-9.2-3.9-14.4
				C120.5,30.7,120.1,30.7,120,31L120,31z"/>
		</g>
	</g>
	<g>
		<g>
			<path d="M81.4,26.6c-0.5,3.3-1.2,6.6-2.1,9.8c-0.9,3.5-3.2,6.2-4.1,9.7c-0.1,0.4,0.2,0.6,0.5,0.6c3.2,0.4,6.4,0.9,9.7,1
				c0.6,0,0.6-0.9,0-1c-2.8-0.1-5.5-0.5-8.3-0.9c-1-0.1,2-5.5,2.3-6.3c1.6-3.9,2.1-8.7,2.5-12.9C81.9,26.4,81.5,26.3,81.4,26.6
				L81.4,26.6z"/>
		</g>
	</g>
	<g>
		<g>
			<path d="M113,12.4c1.3,1.9,1.8,4,2.1,6.3c0,0.4,0.6,0.4,0.6,0c-0.2-2.3-0.9-4.6-2.3-6.5C113.2,12,112.8,12.2,113,12.4L113,12.4z"
				/>
		</g>
	</g>
	<g>
		<g>
			<path d="M109.5,10.7c1.5,2.3,1.1,5.1,1.3,7.7c0,0.4,0.6,0.4,0.6,0c0.1-2.6,0.1-5.7-1.4-8C109.7,10.2,109.4,10.5,109.5,10.7
				L109.5,10.7z"/>
		</g>
	</g>
	<g>
		<g>
			<path d="M105.6,8.9c1.9,2.7,1.7,6.1,1.9,9.3c0,0.4,0.7,0.4,0.7,0C108,15,108,11.3,106,8.6C105.8,8.4,105.4,8.6,105.6,8.9
				L105.6,8.9z"/>
		</g>
	</g>
	<g>
		<g>
			<path d="M102.3,8.1c0.4,2.9,0.5,5.8,0.5,8.7c0,0.4,0.7,0.4,0.7,0c0-2.9-0.2-5.9-0.7-8.8C102.8,7.8,102.3,7.9,102.3,8.1L102.3,8.1
				z"/>
		</g>
	</g>
	<g>
		<g>
			<path d="M99.5,9.1c-0.3,2.7-0.4,5.5-0.1,8.2c0,0.3,0.5,0.3,0.5,0c-0.2-2.8-0.1-5.5,0.1-8.2C100,8.8,99.6,8.8,99.5,9.1L99.5,9.1z"
				/>
		</g>
	</g>
	<g>
		<g>
			<path d="M96.4,8.3c-0.9,3.1-1.3,6.2-1.3,9.4c0,0.4,0.6,0.4,0.6,0c0-3.1,0.4-6.2,1.1-9.3C96.9,8.2,96.4,8,96.4,8.3L96.4,8.3z"/>
		</g>
	</g>
	<g>
		<g>
			<path d="M92.8,9.4c-1,2.9-1.6,5.8-1.6,8.9c0,0.4,0.7,0.4,0.7,0c-0.1-3,0.5-5.9,1.4-8.8C93.4,9.2,92.9,9.1,92.8,9.4L92.8,9.4z"/>
		</g>
	</g>
	<g>
		<g>
			<path d="M88.7,10.8c-0.1,2.6-0.9,5.1-1.1,7.7c0,0.5,0.7,0.5,0.8,0c0.2-2.6,1-5.1,0.9-7.7C89.2,10.5,88.7,10.5,88.7,10.8
				L88.7,10.8z"/>
		</g>
	</g>
	<g>
		<g>
			<path d="M82.8,34.5c-0.4,3.9-1.8,7.4-3.4,11c-0.2,0.4,0.4,0.8,0.7,0.4c1.8-3.5,3-7.5,3.2-11.4C83.3,34.2,82.8,34.2,82.8,34.5
				L82.8,34.5z"/>
		</g>
	</g>
	<g>
		<g>
			<path d="M85.2,35.9c0,3-0.8,6-2.1,8.7c-0.2,0.4,0.5,0.8,0.7,0.4c1.4-2.8,2.1-6,2-9.1C85.7,35.6,85.2,35.6,85.2,35.9L85.2,35.9z"
				/>
		</g>
	</g>
	<g>
		<g>
			<path d="M117.6,36.4c0.9,3.2,1.5,6.5,3,9.6c0.2,0.4,0.8,0.1,0.7-0.3c-1.2-3.1-2.1-6.3-3.2-9.4C118,35.9,117.5,36.1,117.6,36.4
				L117.6,36.4z"/>
		</g>
	</g>
	<g>
		<g>
			<path d="M114.8,37.9c0.6,2,0.9,4.1,2,5.8c0.2,0.4,0.8,0,0.6-0.3c-1.1-1.8-1.4-3.7-2.1-5.6C115.2,37.4,114.7,37.6,114.8,37.9
				L114.8,37.9z"/>
		</g>
	</g>
	<g>
		<g>
			<path d="M83.6,63c-2.3-0.2-4.1,1.2-5.4,3c-0.3,0.5,0.4,0.9,0.8,0.4c1.2-1.6,2.7-2.5,4.7-2.8C84.1,63.6,83.9,63.1,83.6,63L83.6,63
				z"/>
		</g>
	</g>
	<g>
		<g>
			<path d="M78.6,67.4c1.1,1.2,2.3,2.5,3.1,3.9c0-0.2,0.1-0.4,0.1-0.7c-2.6,2.7-1.4,5.7,1.9,7c0.6,0.2,1-0.7,0.4-1
				c-2.2-1.3-3.8-2.8-1.6-5.2c0.2-0.2,0.2-0.4,0.1-0.7c-0.9-1.5-2.2-2.7-3.5-3.9C78.8,66.5,78.2,67.1,78.6,67.4L78.6,67.4z"/>
		</g>
	</g>
	<g>
		<g>
			<path d="M115,67.3c0.9-0.2,1.6-0.6,2.3-1.2c0.6-0.5,1.1-0.9,1.6-1.4c1-1,0.9-0.7,1.9,0.3c0.2,0.2,2.1,3,1.9,3.1
				c-0.5,0.3-1,0.5-1.4,0.8c-1.4,0.7-2.9,1.4-4.4,1.9c-0.3,0.1-0.5,0.4-0.4,0.7c0.8,2.9,0.1,4.2-2.3,6c-0.6,0.5,0,1.5,0.6,1
				c2.9-2,3.8-3.9,2.8-7.3c-0.1,0.2-0.3,0.5-0.4,0.7c2.2-0.7,4.5-1.7,6.4-3c0.2-0.1,0.4-0.4,0.3-0.7c-0.7-2.3-2-4.2-4-5.6
				c-0.2-0.1-0.5-0.1-0.7,0.1c-1.4,1.4-2.7,3-4.5,3.9C114.4,66.8,114.6,67.3,115,67.3L115,67.3z"/>
		</g>
	</g>
	<g>
		<g>
			<path d="M91.4,40.6c-1.4,1.9-1.4,4.2-1.5,6.4c0,0.3,0.3,0.4,0.5,0.4c0.6-0.1,1.3-0.2,1.9-0.2c-0.2-0.3-0.3-0.5-0.5-0.8
				c-0.8,1.5-0.9,3-0.9,4.7c0,0.3,0.2,0.6,0.6,0.6c1.6-0.1,3.2-0.4,4.8-0.6c0.7-0.1,0.7-1.1,0-1.1c-1.6,0-3.2,0.5-4.8,0.5
				c0.2,0.2,0.4,0.4,0.6,0.6c-0.1-1.5,0-2.8,0.7-4.2c0.2-0.3,0-0.8-0.5-0.8c-0.8,0-1.4,0.2-2.1,0.4c0.2,0.1,0.4,0.3,0.5,0.4
				c-0.1-2.1,0.1-4.3,1.3-6.1C92.3,40.6,91.7,40.2,91.4,40.6L91.4,40.6z"/>
		</g>
	</g>
	<g>
		<g>
			<path d="M109.2,41.1c0.6,2.5,0.8,5,0.5,7.5c0.2-0.1,0.5-0.3,0.7-0.4c-0.9-0.7-1.7-1.3-2.8-1.6c-0.3-0.1-0.6,0.2-0.6,0.5
				c0,1.4-0.1,2.7-0.2,4.1c0.2-0.2,0.5-0.3,0.7-0.5c-1.5-0.2-3-0.3-4.5-0.5c-0.7-0.1-1,0.9-0.3,1c1.5,0.3,3,0.3,4.5,0.6
				c0.4,0,0.7-0.1,0.7-0.5c0.1-1.4,0.1-2.7,0.1-4.1c-0.2,0.2-0.4,0.3-0.6,0.5c1,0.3,1.7,0.8,2.5,1.4c0.3,0.2,0.7-0.1,0.7-0.4
				c0.2-2.6,0-5.2-0.8-7.7C109.7,40.5,109.1,40.7,109.2,41.1L109.2,41.1z"/>
		</g>
	</g>
</g>
<g>
	<path class="st7" d="M79.7,210.2c2.2-0.5,3.4-0.4,6,0.1c2.8,0.5,5.2,1.5,4.1,3.6c-1.2,2.1-2.7,3.5-5.2,2.4c-2.5-1.1-2.8-1.3-5-0.6
		c-2.2,0.7-6.6-0.6-3-5.6l1.7,0.2L79.7,210.2z"/>
	<path class="st7" d="M67.9,209.2c1.1,1.3,2.1,2.7,1,4.5s-1.7,3-4.2,2.2c-2.5-0.7-3.4-0.6-5.1,0.1c-1.7,0.7-2.6,1.2-3.9-0.6
		c-1.3-1.8-1.8-4.4,1.4-4.8s7.1,0.4,8.4-0.2C66.7,209.8,67.9,209.2,67.9,209.2z"/>
	<path class="st8" d="M75.1,93.9c10.5-0.5,22.4,7.2,21.9,20.5c-0.5,13.4-10.7,15.1-14.6,15.9c-0.7,3.9-0.5,5.1-2.6,5.9
		s-5.6,8.3-11.3,0.8c-1.2-3.4-0.9-4.6-0.7-6.7c-8-2.6-13.8-7.4-13.5-18.6C54.6,100.6,60.8,94.6,75.1,93.9z"/>
	<path class="st2" d="M86.4,129.4c1.5,2.8,3.6,11.7,3,19.5s-0.1,26.1,1.8,31.3c0,0-5.2,3.5-13,1.5c-0.6-11.8-2.1-25.9-2.9-30.8
		c-0.8-4.9-0.3-7.4,2.2-10.6c2.5-3.2,4.5-6.7,4.5-10.2L86.4,129.4z"/>
	<path class="st2" d="M67.6,130c-0.7,2.6-0.1,7.1,2.1,10.7c2.2,3.7,1.3,7.4,0.6,11.2c-0.7,3.9-2.2,10.7-2.3,17
		c-0.1,6.3,0.1,13.8,0.1,13.8s-10.5,1-11.6-2.1c0,0,0.5-13.6,0.6-21.5c0.1-7.9-0.3-21.2,5.8-30.4L67.6,130z"/>
	<path class="st8" d="M56.5,171.5c-1.1-1-2.3-2.3-2.9,0.5c-0.6,2.8-1.3,8.5,2.9,8.6C56.5,180.7,56.8,174.4,56.5,171.5z"/>
	<path class="st8" d="M95.8,171.8c-1.8,2.1-4,4.5-3.8,6.9c0.2,2.4,1.2,5.2,3,3.9c1.8-1.3,3-3.7,2.9-6.5
		C97.9,173.3,96.5,171.4,95.8,171.8z"/>
	<path class="st9" d="M82.1,130.7l-2.2-0.1c-0.3,3.2-6.7,9.4-6.7,9.4c-2.5-2.8-4-9-4-9l-1.9-0.4c-0.5,1.7-0.3,4,1.1,6.5
		c3.2,6.7,2.2,9.9,2,13.6c-0.2,3.7-2.1,11.8-2.7,23.5c3.7,1.1,10.5,0.2,10.5,0.2c-0.6-6.8-2.6-23.2-2.9-26.5s2.1-7,3.4-8.7
		c1.3-1.7,1.9-3,1.9-3C81.7,133.9,82.1,130.7,82.1,130.7z"/>
	<path class="st10" d="M74.4,110c-2.1-0.1-3.8-0.7-5.5-1.2c-1.7-0.5-7.1-2.8-10.6,1.8c2,4.6,4.2,8.4,7.7,8.1
		C69.5,118.4,73.1,113.9,74.4,110z"/>
	<path class="st10" d="M75,110.2c1.3,1.7,2.8,4.4,4.7,6.1c1.8,1.7,5.7,3.4,8.5,1.3c2.7-2.2,5.2-6.8,5.2-6.8c-4.4-1.8-8-3.2-10.4-2.7
		C80.5,108.5,76.3,110,75,110.2z"/>
	<path class="st11" d="M79.9,182.4c-0.3,5-0.1,6.6-0.4,13s-1.1,11.5-1.2,14.9"/>
	<path class="st11" d="M66,183c-0.4,4.3,0.3,6.8,0.3,12.3c0,5.5-0.1,11.5,0,14.4"/>
	<g>
		<g>
			<path d="M76.8,210.7c1.8,0.5,3.9-0.4,5.8-0.2c1.8,0.2,9.7,1.4,5.8,4.2c-2.6,1.8-4.9-0.4-7.6-0.2c-1.6,0.2-3.3,1.3-4.6-0.6
				c-0.8-1.2,0.3-3,1-3.9c0.4-0.5-0.4-1-0.8-0.6c-2.4,2.1-2.6,5.5,0.4,7c2,1,4.2-0.5,6.3,0.1c1.9,0.6,3.4,0.7,5.2-0.1
				c2.6-1.1,3.6-3.8,1.2-5.6c-1.6-1.2-4.2-1.3-6.2-1.5c-2.2-0.2-4.2,0.4-6.4,0.5C76.4,209.9,76.3,210.6,76.8,210.7L76.8,210.7z"/>
		</g>
	</g>
	<g>
		<g>
			<path d="M68.3,210.4c1,1.7,0.5,3.1-1.2,4.1c-1.4,0.8-2.8,0.1-4.3,0c-1-0.1-1.7,0-2.6,0.3c-0.5,0.2-1.1,0.4-1.6,0.5
				c-3,0.2-3.6-1.2-1.9-4c3.6-1.1,7.7-0.5,11.4-0.8c0.8-0.1,0.8-1.2,0-1.3c-3.8-0.3-8,0-11.8,0.8c-3.4,0.7-2.9,4.4-0.8,6.2
				c1.3,1.1,2.7,0.8,4.2,0.3c2.5-0.8,4.8,0.4,7.2-0.3c2.8-0.9,3.8-4.2,1.8-6.3C68.6,209.6,68,210,68.3,210.4L68.3,210.4z"/>
		</g>
	</g>
	<g>
		<g>
			<path d="M87.9,98.5c8.8,4,9.7,17.3,5,24.7c-4.7,7.4-18.2,7.5-25.6,5.7c-11.4-2.7-13.5-14.2-10.3-24.1C60.7,93.7,77.4,93.2,86,98
				c1,0.6,1.8-0.9,0.9-1.5c-9.2-6.6-26.3-4.2-31.4,6.4c-5.1,10.5-2,23.5,9.1,27.8c9.1,3.5,24.1,2.1,30.3-6.3
				c5.8-7.9,2.8-23.1-6.6-26.7C87.7,97.4,87.4,98.3,87.9,98.5L87.9,98.5z"/>
		</g>
	</g>
	<g>
		<g>
			<path d="M83.5,112.7c0,0.2,0.1,0.4,0.2,0.6c0-0.1,0,0.1,0,0.1c0-0.2-0.1,0.1,0-0.2c0,0-0.1,0.1-0.1,0.1c0,0,0.3-0.3,0.2-0.2
				c0.2-0.1,0.1-0.1,0,0c0.3-0.1-0.1-0.1,0.2,0c-0.1,0-0.1,0-0.2,0c0.2,0.1,0.1,0,0,0c0.2,0.1,0.1,0.1,0,0c0.2,0.2,0,0.1,0,0
				c0.1,0.2,0,0.1,0,0c0.1,0.2,0,0,0,0c0,0.2,0,0,0-0.1c0.1-0.2,0.1-0.3,0.1-0.5c0-0.8-1-1.1-1.5-0.6c-0.6,0.5-0.6,1.6-0.2,2.2
				c0.3,0.6,1,0.9,1.6,1c0.7,0.1,1.3-0.4,1.5-1c0.2-0.7-0.3-1.7-0.9-2.1C83.9,111.7,83.4,112.2,83.5,112.7L83.5,112.7z"/>
		</g>
	</g>
	<g>
		<g>
			<path d="M66.3,112.1c0,0.3,0,0.6,0.1,0.9c0,0,0,0.4,0,0.2c0,0.1-0.1,0.3,0,0.1c-0.1,0.2,0.1-0.1,0,0c0,0,0.1-0.1,0.2-0.1
				c-0.1,0,0.2,0,0,0c0.3,0-0.1-0.1,0.2,0c-0.1,0-0.2-0.2,0,0c-0.1,0-0.2-0.2,0,0c0-0.1-0.1-0.3,0,0c0-0.1,0-0.3,0,0
				c0-0.3,0,0.1,0-0.1c0-0.1-0.1,0.1,0-0.1c0.2-0.4,0.3-0.6,0.2-1c-0.1-0.4-0.5-0.6-0.8-0.6c-1.1-0.1-1.4,1.3-1.2,2.1
				c0.1,0.7,0.7,1.1,1.2,1.4c0.7,0.3,1.5-0.1,1.7-0.8c0.3-0.8-0.1-1.7-0.6-2.3C66.9,111.5,66.2,111.6,66.3,112.1L66.3,112.1z"/>
		</g>
	</g>
	<g>
		<g>
			<path d="M86.2,130.9c3.6,7.7,2.3,16.6,2.2,24.8c-0.1,8.3,0.1,16.6,1.9,24.7c0.3,1.2,2,0.7,1.8-0.5c-2.1-9.9-1.8-19.8-1.9-29.8
				c0-6.7,0.1-13.6-3.2-19.7C86.8,129.8,86,130.3,86.2,130.9L86.2,130.9z"/>
		</g>
	</g>
	<g>
		<g>
			<path d="M57.1,180.7c0.2-8.5,0.5-17,1.1-25.5c0.3-4.2,0.7-8.3,1-12.5c0.4-5.2,2.4-8.6,4.7-13.1c0.5-1.1-1.1-2-1.6-0.9
				c-1.5,3-3.3,5.5-4.2,8.8c-1,3.8-0.8,8-1.1,11.9c-0.8,10.5-1,20.9-0.8,31.4C56.1,181.3,57,181.3,57.1,180.7L57.1,180.7z"/>
		</g>
	</g>
	<g>
		<g>
			<path d="M81.7,131.7c-1.2,4.2-4.5,6.6-6.1,10.5c-1.4,3.4-1.1,7.3-0.8,10.9c0.8,9.5,2.4,18.9,2.3,28.6c0,0.4,0.3,0.8,0.7,0.9
				c4.7,0.7,9.8,1.1,14-1.5c0.9-0.6,0.1-1.9-0.8-1.4c-2.5,1.2-4.8,1.6-7.5,1.7c-0.9,0-1.9-0.1-2.8-0.1c-2.5-0.2-1.8-3.2-1.9-4.7
				c-0.3-4.8-0.4-9.7-1.1-14.5c-0.8-5.8-2.4-12.4-1-18.2c0.5-2.1,2.5-4.1,3.6-5.8c1.2-1.8,1.8-3.8,2.3-5.9
				C82.7,131.4,81.9,131.2,81.7,131.7L81.7,131.7z"/>
		</g>
	</g>
	<g>
		<g>
			<path d="M66.9,130.2c-0.7,3.1-0.1,6,1.2,8.9c3.1,6.8,0.9,14.6-0.1,21.7c-0.7,5-0.9,10-1,15c0,2.3,1.1,6-1.8,6
				c-2.8,0-5.5-0.2-8.2-1.2c-0.9-0.3-1.5,1.1-0.6,1.5c3.5,1.8,7.6,1.4,11.5,1.5c0.5,0,0.9-0.4,0.9-0.9c-0.1-9.3,0.4-18.2,1.6-27.4
				c0.5-4,1.2-8.2,0.7-12.2c-0.6-4.6-4.1-7.6-3.3-12.8C67.9,129.9,67.1,129.6,66.9,130.2L66.9,130.2z"/>
		</g>
	</g>
	<g>
		<g>
			<path d="M77.1,173.9c-3.1,0.1-6.2,0.4-9.3-0.4c-0.8-0.2-1.2,1.1-0.4,1.3c3.2,0.7,6.5,0.6,9.7,0.1
				C77.8,174.8,77.6,173.9,77.1,173.9L77.1,173.9z"/>
		</g>
	</g>
	<g>
		<g>
			<path d="M79.4,144.8c-0.4,1.4-0.2,2.9-0.5,4.3c-0.1,0.4,0.2,0.7,0.5,0.7c2.8,0.1,5.5-0.4,8.2-0.5c0.3,0,0.6-0.2,0.6-0.6
				c-0.1-1.4-0.4-2.7-0.4-4.1c0-0.3-0.2-0.6-0.6-0.6c-2.6,0.1-5.2,0-7.7,0.7c-0.7,0.2-0.4,1.2,0.3,1c2.4-0.6,4.9-0.5,7.4-0.7
				c-0.2-0.2-0.4-0.4-0.6-0.6c0.1,1.4,0.4,2.7,0.4,4.1c0.2-0.2,0.4-0.4,0.6-0.6c-2.7,0.2-5.5,0.6-8.2,0.6c0.2,0.2,0.4,0.4,0.5,0.5
				c0.2-1.5,0-2.9,0-4.4C80,144.5,79.5,144.5,79.4,144.8L79.4,144.8z"/>
		</g>
	</g>
	<g>
		<g>
			<path d="M80.7,146.8c0,0.4,0.4,0.4,0.7,0.4c0.5-0.1,0.9-0.2,1.3-0.4c0.2-0.1,0.4-0.1,0.5-0.2c0.4-0.1,0.3,0,0.2,0.5
				c0,0.2,0.2,0.2,0.3,0.2c0.2-0.1,1.3-0.9,1.4-0.5c0.1,0.2,0.1,0.3,0.2,0.4c0.2,0.2,0.5,0,0.7-0.2c0.2-0.2-0.1-0.4-0.2-0.3
				c-0.3,0.2-0.3-0.4-0.6-0.5c-0.6-0.2-1.2,0.4-1.7,0.7c0.1,0.1,0.2,0.1,0.3,0.2c0-0.3-0.1-0.6-0.1-0.9c0-0.1-0.1-0.1-0.2-0.1
				c-0.3,0.1-2.5,1-2.5,0.6C80.9,146.7,80.7,146.7,80.7,146.8L80.7,146.8z"/>
		</g>
	</g>
	<g>
		<g>
			<path d="M64.4,130.9c-1.5,2.1-1.6,4.6-1.7,7.1c0,0.3,0.3,0.5,0.6,0.4c0.7-0.1,1.4-0.2,2.1-0.2c-0.2-0.3-0.3-0.6-0.5-0.9
				c-0.9,1.7-1,3.3-1,5.2c0,0.3,0.3,0.6,0.6,0.6c1.8-0.1,3.5-0.5,5.2-0.6c0.8-0.1,0.8-1.2,0-1.2c-1.8,0-3.5,0.5-5.2,0.6
				c0.2,0.2,0.4,0.4,0.6,0.6c-0.1-1.6,0-3.1,0.8-4.6c0.2-0.4,0-0.9-0.5-0.9c-0.9,0-1.5,0.2-2.4,0.5c0.2,0.1,0.4,0.3,0.6,0.4
				c-0.1-2.3,0.1-4.7,1.4-6.7C65.3,130.8,64.7,130.5,64.4,130.9L64.4,130.9z"/>
		</g>
	</g>
	<g>
		<g>
			<path d="M83.9,131.4c0.6,2.7,0.8,5.5,0.5,8.2c0.3-0.2,0.5-0.3,0.8-0.5c-1-0.7-1.9-1.4-3-1.7c-0.4-0.1-0.7,0.2-0.7,0.5
				c0,1.5-0.1,3-0.2,4.5c0.2-0.2,0.5-0.4,0.7-0.6c-1.6-0.3-3.3-0.3-4.9-0.6c-0.7-0.1-1.1,0.9-0.3,1.1c1.6,0.4,3.3,0.4,4.9,0.6
				c0.4,0.1,0.7-0.2,0.7-0.6c0.1-1.5,0.1-3,0.1-4.5c-0.2,0.2-0.5,0.4-0.7,0.5c1.1,0.3,1.9,0.9,2.8,1.6c0.4,0.3,0.8-0.1,0.8-0.5
				c0.3-2.9,0-5.7-0.9-8.4C84.4,130.8,83.7,130.9,83.9,131.4L83.9,131.4z"/>
		</g>
	</g>
	<path class="st12" d="M87.1,129.3c4,5.6,6.3,12.9,6.8,14.8c0.5,1.9,1.8,5.2,2.1,7.2s0,5.1,0.2,7.7c0.1,2.6,0,9.5-0.2,12.5"/>
	<path class="st12" d="M62.5,128.5c-2.3,2.9-5.1,6.8-6,10c-1,3.1-2.7,7.7-3.3,10.3c-0.5,2.6-0.4,6.3-0.3,9.3c0.1,3,0.7,8.3,1.2,11.5
		"/>
	<g>
		<g>
			<path d="M95.2,171.7c-2.3,2.3-4.2,4.8-3.7,8.2c0.3,2.2,1.8,3.9,4.1,3.1c3.9-1.3,3.4-9.2,1.1-11.6c-0.5-0.5-1.2,0.2-0.8,0.8
				c1.8,2.1,1.7,6.8,0,8.9c-0.6,0.8-1.7,1-2.4,0.1c-0.5-0.7-0.6-1.8-0.6-2.6c-0.1-2.3,1.7-4.6,2.9-6.4
				C96.1,171.8,95.5,171.4,95.2,171.7L95.2,171.7z"/>
		</g>
	</g>
	<g>
		<g>
			<path d="M56.7,170.8c-0.8-0.4-1.5-0.8-2.3-1c-0.2-0.1-0.5,0.1-0.6,0.3c-2,2.9-2.6,10.4,1.8,11.7c0.8,0.2,1.4-0.8,0.8-1.4
				c-1.6-1.5-2.3-2.8-2.5-5c-0.1-1.1,0.1-2.2,0.3-3.2c0.4-1.6,1-0.9,2.2-0.5C56.8,171.6,57.1,171,56.7,170.8L56.7,170.8z"/>
		</g>
	</g>
	<g>
		<g>
			<path d="M79.3,131c-1,3.8-4.3,5.9-6.5,8.8c0.3,0,0.6,0.1,0.8,0.1c-1.6-3-3.3-5.8-4.2-9.1c-0.2-0.6-1.1-0.4-1,0.3
				c0.5,3.4,2.6,6.4,4.2,9.4c0.1,0.3,0.6,0.4,0.8,0.1c2.3-3,6-5.4,6.6-9.4C80.2,130.7,79.4,130.5,79.3,131L79.3,131z"/>
		</g>
	</g>
	<g>
		<g>
			<path d="M75.8,144.8c0-1.8-1.2-3.6-2.3-4.9c-0.3-0.4-0.9,0.1-0.7,0.5c0.9,1.5,2,2.8,2.3,4.5C75.2,145.3,75.8,145.2,75.8,144.8
				L75.8,144.8z"/>
		</g>
	</g>
	<g>
		<g>
			<path d="M72.7,140.5c-1,0.3-2.1,1.2-2.5,2.2c-0.2,0.4,0.5,0.7,0.8,0.4c0.3-0.3,0.5-0.7,0.8-1.1c0.3-0.4,0.8-0.7,1.2-0.9
				C73.4,141,73.1,140.4,72.7,140.5L72.7,140.5z"/>
		</g>
	</g>
	<g>
		<g>
			<path d="M82.9,121.3c-4.4,1.8-10.5,3.6-14.7,0.6c-0.7-0.5-1.5,0.7-0.7,1.2c4.7,3,11.1,1.3,15.7-1
				C83.7,121.9,83.4,121.2,82.9,121.3L82.9,121.3z"/>
		</g>
	</g>
	<g>
		<g>
			<path d="M76.9,118.5c-1.1,0.1-2.3,0.2-3.4-0.1c-0.6-0.2-0.8,0.7-0.2,0.9c1.2,0.3,2.5,0.1,3.7-0.1
				C77.4,119.1,77.3,118.4,76.9,118.5L76.9,118.5z"/>
		</g>
	</g>
	<g>
		<g>
			<path d="M93.3,110.6c-2.5-1.2-5.5-2.8-8.3-2.9c-4.6-0.2-8.6,2.6-13.2,1.5c-5-1.2-9.5-3.6-13.6,0.8c-0.4,0.4,0.2,1,0.6,0.6
				c5.2-5.2,9.6,0.1,15.2,0c2.2,0,4-0.7,6.1-1.5c4.6-1.7,8.9,0.2,13,1.9C93.4,111.1,93.6,110.7,93.3,110.6L93.3,110.6z"/>
		</g>
	</g>
	<g>
		<g>
			<path d="M92.9,110.8c-2.5,3.9-5.8,9.3-11.3,6.5c-2.7-1.4-4.1-4.7-6-6.9c-0.4-0.5-1.1,0.2-0.7,0.7c2.6,3.3,4.6,7.3,9.1,7.9
				c4.6,0.6,7.7-4.4,9.4-7.9C93.6,110.8,93.1,110.5,92.9,110.8L92.9,110.8z"/>
		</g>
	</g>
	<g>
		<g>
			<path d="M74.2,110.3c-1.9,2.4-3.2,5.2-5.7,7c-4.7,3.3-8.5-3.5-9.7-7c-0.2-0.6-1.2-0.4-1,0.3c1.3,4,3.8,8.4,8.4,8.5
				c4.1,0.1,6.7-5.5,8.5-8.4C74.9,110.4,74.5,110.1,74.2,110.3L74.2,110.3z"/>
		</g>
	</g>
	<g>
		<g>
			<path d="M58.6,110.6c-1.6-0.3-3-0.2-4.6-0.1c-0.6,0-0.6,1.1,0,1c1.5-0.2,3-0.4,4.5-0.3C58.8,111.3,58.9,110.7,58.6,110.6
				L58.6,110.6z"/>
		</g>
	</g>
	<g>
		<g>
			<path d="M93.4,111.8c0.7-0.2,1.4-0.2,2.1-0.2c0.6,0,1.1,0.2,1.6,0.1c0.5-0.1,0.5-0.9,0-1c-1.3-0.3-2.9-0.3-4,0.4
				C92.7,111.3,93,111.8,93.4,111.8L93.4,111.8z"/>
		</g>
	</g>
	<g>
		<g>
			<path d="M67.2,145.9c-0.2,1.6,0.5,5.1-1.1,5.9c-1.5,0.7-2.6,2.7-3.5,4.1c0.3,0,0.6,0,1,0c-0.4-0.7-0.8-1.3-1.3-1.9
				c-0.4-0.4-2-1.4-1.8-2.1c0.8-2.3,1-4.8,1-7.2c-0.2,0.2-0.5,0.4-0.7,0.6c2.4,0.5,4.9,0.6,7.4,0.8c0.8,0.1,0.8-1.2,0-1.3
				c-2.4-0.2-4.7-0.2-7-0.7c-0.4-0.1-0.7,0.2-0.7,0.6c-0.1,2.6-0.4,5.1-1.2,7.6c-0.1,0.3,0.1,0.5,0.3,0.7c1.4,0.9,2.5,2,3.3,3.4
				c0.2,0.4,0.7,0.4,1,0c1-1.6,2-3.5,3.9-4.1c0.2-0.1,0.4-0.3,0.4-0.5c-0.1-2-0.1-4,0-6C68,145.4,67.2,145.4,67.2,145.9L67.2,145.9z
				"/>
		</g>
	</g>
	<g>
		<g>
			<path d="M76.5,134.8c0.1,0.1,0.3,0.2,0.4,0.3c0.9,0.5,1.2-1.1,0.3-1.1c-0.2,0-0.3,0-0.5,0C76.3,134,76.1,134.6,76.5,134.8
				L76.5,134.8z"/>
		</g>
	</g>
	<g>
		<g>
			<path d="M76,135.3C76,135.3,76,135.3,76,135.3c-0.1,0-0.2,0.1-0.3,0.2c0,0,0,0,0.1,0c-0.2,0-0.4-0.1-0.5-0.1l0,0
				c0.3,0.5,1,0.3,1-0.3c0,0,0-0.1,0-0.1c0-0.2-0.2-0.5-0.4-0.5c-0.4-0.1-0.8,0.2-0.8,0.6C75,135.6,75.7,135.8,76,135.3L76,135.3z"
				/>
		</g>
	</g>
	<g>
		<g>
			<path d="M74.5,135.5c-0.1,0-0.1,0.1-0.2,0.1c0.7-0.3,0.4-1.2-0.3-1.1c0,0-0.1,0-0.1,0c-0.2,0-0.4,0.2-0.4,0.4c0,0.2,0,0.3,0,0.4
				C73.6,135.9,74.4,136.1,74.5,135.5L74.5,135.5z"/>
		</g>
	</g>
	<g>
		<g>
			<path d="M72.6,134.9c0.1,0,0.1,0,0.2,0c0.1,0.1,0.2,0.3,0.3,0.4c0-0.1,0-0.2,0-0.4c-0.1-0.4-0.7-0.4-0.9,0
				c-0.1,0.3,0,0.5,0.1,0.7c0.1,0.1,0.3,0.2,0.4,0.1c0.2,0,0.3-0.2,0.3-0.3C73.3,135.1,72.9,134.7,72.6,134.9L72.6,134.9z"/>
		</g>
	</g>
	<g>
		<g>
			<path d="M70.8,134.8c0,0.2-0.1,0.5,0.1,0.7c0.2,0.2,0.4,0.4,0.7,0.3c0.3-0.1,0.4-0.2,0.5-0.5c0.1-0.3-0.2-0.7-0.5-0.7
				c-0.2,0-0.4,0.1-0.6,0.3c0.2,0,0.3-0.1,0.5-0.1c0.1,0,0.1,0.1,0.2,0.1C71.5,134.4,70.9,134.3,70.8,134.8L70.8,134.8z"/>
		</g>
	</g>
	<path d="M96.2,108.4c-5.5-4.7-13.9-9.6-21.3-5.7c0,0-12.6-5.2-19.6,4c0,0-0.6-13.8,19.7-13.6S95.9,106.8,96.2,108.4z"/>
	<path d="M83.8,95c1.1-0.8,1.5-2.6,0.5-2.8c0,0,0.8-2.9-1.2-2.8c0,0,0-2.8-1.8-1.8c0,0-1.8-2.6-3.2-0.6c0,0-3.5-2.1-4.1-0.3
		c0,0-2.6-1.5-2.9,0.3c0,0-3.1-0.3-2.4,1.5c0,0-2.8,0.6-1.4,2c0,0-2,0.8-0.8,1.7c0,0-2.4,2.4,0.5,2.8C69.7,95.3,83.8,95,83.8,95z"/>
	<g>
		<g>
			<path d="M69.2,110.5c-2.4-1.2-5.4-1.1-7.2,1.1c-0.3,0.4,0.2,0.9,0.5,0.5c1.7-2.2,4-1.9,6.4-1.2C69.3,111,69.5,110.6,69.2,110.5
				L69.2,110.5z"/>
		</g>
	</g>
	<g>
		<g>
			<path d="M81.4,110.8c2.6-0.3,6.6-0.8,7.9,2.1c0.2,0.5,0.9,0.1,0.8-0.3c-0.9-3.4-6.1-2.9-8.7-2.3C81,110.4,81.1,110.8,81.4,110.8
				L81.4,110.8z"/>
		</g>
	</g>
</g>
<g>
	<path class="st7" d="M22.4,187.2c-7.7-1.9-16.6-1.8-16.8,2.2s5.5,4.7,12.6,1.3l0.4,1.9c0,0,4.4,0.3,4.2,0.1
		C22.6,192.5,22.4,187.2,22.4,187.2z"/>
	<path class="st7" d="M29.7,188.4l-0.2,4l3.7,0.3l0.1-2c0,0,4.8,2.5,8.5,1.8s6.2-1.7,3.9-4.8S37.8,184.5,29.7,188.4z"/>
	<path class="st2" d="M10.7,96.7c-1.6,3-3.9,11.4-3.3,19.7s1.2,30.8-0.8,36.2c0,0,5.5,3.9,13.6,1.7c0.7-12.3,2.2-29.9,3-35.1
		c0.8-5.1,0.3-7.7-2.3-11.1c-2.6-3.4-4.7-7-4.8-10.7L10.7,96.7z"/>
	<path class="st2" d="M31.5,97.4c0.8,2.7,0.2,7.4-2.2,11.3s-1.4,7.7-0.6,11.8c0.8,4.1,2.3,14,2.4,20.6c0.1,6.7-0.2,14.4-0.2,14.4
		s11,1.1,12.2-2.2c0,0,0.5-17,0.3-25.2s-0.6-22.4-7-32L31.5,97.4z"/>
	<path class="st13" d="M16.2,98.1l2.3-0.1c0.3,3.3,6.8,4.4,6.8,4.4c4.1-0.7,4.5-4,4.5-4l2-0.5c0.5,1.8,0.3,4.2-1.1,6.9
		c-3.4,7-2.3,10.4-2.1,14.3s2.2,18.2,2.8,30.5c-3.9,1.1-11,0.2-11,0.2c0.6-7.1,2.7-30.2,3-33.7s-2.2-7.3-3.6-9.1s-2-3.2-2-3.2
		C16.6,101.5,16.2,98.1,16.2,98.1z"/>
	<path class="st14" d="M24.8,61.5C7.7,61.8-0.7,71.7,2.5,84.7S13.7,99,18.9,99.2c0,0,2.9,3.2,5.8,3.2c0,0,4.6,0.1,5.1-3.9
		c8.1-1.9,18.1-9.3,16.4-20.5C44.5,66.7,37.6,61.2,24.8,61.5z"/>
	<path class="st15" d="M24.9,102.6l-1.7,3.2c0,0,0.6,2.3,1.9,2.3c0,0-1.5,2.1-1.9,8.8c-0.4,6.7-0.7,13.3,2,19.5
		c2.3-5,3.2-9.8,3-17.9c-0.3-8.1-2-11.1-2-11.1l1.1-1.8L24.9,102.6z"/>
	<polygon class="st10" points="43.1,75.4 28.7,76.1 28.8,82 43.7,80.7 	"/>
	<path class="st10" d="M23.1,76.1c0,0,0.9,4.3,0.5,6c0,0-7.9-0.9-14,0.4l-0.7-5.9L23.1,76.1z"/>
	<path class="st16" d="M18.4,155c1.4,10.4,1.7,21.8,2.6,32"/>
	<path class="st16" d="M33,155.7c0.2,14.5-2.9,21.9-2,32.1"/>
	<g>
		<g>
			<path d="M22.1,186.8c-3.4-1-16.8-3.8-16.9,2.8c-0.2,7.3,9.7,3.2,13.2,1.5c0.5-0.3,0.2-1.2-0.4-1c-1.3,0.5-2.5,1.1-3.9,1.5
				c-0.8,0.2-1.6,0.3-2.4,0.5c-0.4,0-0.9,0.1-1.3,0.1c-2.1,0.3-2.7-1.2-2-4.5c3.5-2.3,9.9-0.8,13.6,0.1
				C22.5,188,22.7,187,22.1,186.8L22.1,186.8z"/>
		</g>
	</g>
	<g>
		<g>
			<path d="M18.2,190.3c-0.1,0.6-0.1,1.2-0.1,1.8c0,0.4,0.3,0.8,0.7,0.7c1.3,0,2.6-0.1,3.9-0.1c0.5,0,0.9-0.5,0.8-1
				c-0.2-0.8-0.1-1.8-0.1-2.7c0-0.7-0.2-1.4-0.6-2.1c-0.3-0.5-1.1-0.2-0.9,0.4c0.2,0.7,0.4,1.3,0.4,2c0,0.7-0.2,1.6-0.3,2.3
				c0.3-0.2,0.7-0.4,1-0.6c-1.4-0.4-3.1-0.3-4.4,0.3c0.4,0.1,0.7,0.3,1.1,0.4c-0.1-0.5-0.1-1-0.2-1.5
				C19.3,189.9,18.3,189.6,18.2,190.3L18.2,190.3z"/>
		</g>
	</g>
	<g>
		<g>
			<path d="M29.9,188.7c3.7-1,7.5-2.8,11.3-2.9c2.1,0.1,3.6,1.2,4.3,3.3c1.1,2.9-2.1,2.5-3.6,2.5c-2.6,0.2-5.2-0.4-7.6-1.2
				c-0.9-0.3-1.3,1.1-0.4,1.4c3.8,1.5,15.4,3.5,12.5-4c-2.4-6.3-12.9-1.5-16.8-0.1C29.1,187.9,29.3,188.8,29.9,188.7L29.9,188.7z"/>
		</g>
	</g>
	<g>
		<g>
			<path d="M30.1,188.6c0-0.1,0-0.2,0-0.3c0-0.5-0.8-0.7-1-0.1c-0.4,1.2,0,2.4-0.3,3.6c-0.1,0.4,0.2,0.7,0.6,0.7
				c1.2,0,2.4,0.2,3.6,0.3c0.7,0.1,1.2-0.5,0.9-1.2c-0.2-0.4-0.1-0.9-0.2-1.3c0-0.7-1-1-1.3-0.4c-0.4,0.8-0.2,1.7,0.1,2.5
				c0.2-0.4,0.5-0.8,0.7-1.2c-1.3-0.2-2.5-0.1-3.8,0.1c0.2,0.1,0.4,0.3,0.6,0.4c-0.3-1.1,0.1-2.4,0.1-3.5c-0.3,0-0.6,0.1-1,0.1
				c0,0.1,0,0.2,0.1,0.3C29.3,189.2,30.1,189.1,30.1,188.6L30.1,188.6z"/>
		</g>
	</g>
	<g>
		<g>
			<path d="M10,97.7c-3.9,7.3-3.5,15.9-3.4,24c0.2,10.2,1.1,20.5-1,30.6c-0.3,1.2,1.6,1.7,1.9,0.5c2-8.6,1.5-17.5,1.2-26.2
				c-0.4-9.4-1.9-19.6,2.2-28.3C11.2,97.7,10.3,97.1,10,97.7L10,97.7z"/>
		</g>
	</g>
	<g>
		<g>
			<path d="M43.5,153.3c0.3-10,0.8-20,0.5-30c-0.1-4.4-0.6-8.8-1.4-13.2c-1-5.5-3.1-9.3-5.6-14.2c-0.6-1.1-2.3-0.1-1.7,1
				c2.4,4.6,4.4,8.6,5.4,13.7c1,4.7,1.2,9.5,1.4,14.4c0.4,9.4,0,18.9,0.3,28.3C42.5,153.9,43.5,153.9,43.5,153.3L43.5,153.3z"/>
		</g>
	</g>
	<g>
		<g>
			<path d="M15.7,99.4c1,5,4.9,8.2,6.3,12.8c1.5,4.8-0.2,11.5-0.7,16.4c-0.7,5.5-1,10.9-1.3,16.5c-0.1,2,0.6,8.3-2.3,8.6
				c-3.8,0.4-7.4-0.1-10.8-1.7c-1-0.5-1.8,0.9-0.9,1.5c4.4,2.8,9.8,2.5,14.7,1.7c0.4-0.1,0.7-0.5,0.7-0.9
				c-0.1-10.3,1.2-20.5,2.3-30.7c0.4-3.9,0.7-8,0-11.8c-0.3-1.6-1.4-3-2.4-4.3c-2.1-2.7-3.7-5-4.7-8.3
				C16.4,98.6,15.6,98.8,15.7,99.4L15.7,99.4z"/>
		</g>
	</g>
	<g>
		<g>
			<path d="M31.2,97.9c0.9,5.6-3.3,9.1-3.6,14.3c-0.3,4.5,0.5,9.1,1,13.5c1.2,10,1.6,19.8,1.5,29.9c0,0.5,0.4,0.9,0.9,0.9
				c4-0.1,8.4,0.4,12.1-1.6c0.9-0.5,0.3-2-0.7-1.6c-2.5,0.9-4.9,1.2-7.6,1.3c-1,0-2.9,0.7-2.9-0.8c0-1.8,0-3.7,0-5.5
				c0-6-0.4-11.8-1.1-17.7c-0.6-5.6-1.6-11.3-1.8-17c-0.2-5.8,4.3-10,3-16C32,96.9,31.1,97.2,31.2,97.9L31.2,97.9z"/>
		</g>
	</g>
	<g>
		<g>
			<path d="M21.3,150.5c3.4,0.5,6.8,0.6,10.2-0.1c0.9-0.2,0.5-1.6-0.4-1.4c-3.2,0.9-6.4,0.5-9.7,0.5
				C20.9,149.5,20.7,150.5,21.3,150.5L21.3,150.5z"/>
		</g>
	</g>
	<g>
		<g>
			<path d="M8.9,113.1c-0.6,2.5-0.1,5.2,0,7.7c0.1,1.5,4.2,3.3,5.2,4.1c0.3,0.2,0.6,0.2,0.9,0c1-0.8,5-2.4,5.1-3.8
				c0.1-2.6-0.6-5.1-0.6-7.7c0-0.4-0.3-0.7-0.7-0.7c-2.9,0-5.8,0-8.8,0c-0.9,0-0.9,1.4,0,1.4c2.9,0,5.8,0,8.8,0
				c-0.2-0.2-0.5-0.5-0.7-0.7c0,2,0.4,3.9,0.6,5.9c0.2,1.6-0.6,2.1-2,2.9c-0.9,0.5-1.7,1.1-2.5,1.8c0.3,0,0.5-0.1,0.8-0.1
				c-1.6-1.2-4.9-2.1-5.1-4.3c-0.2-2.1-0.4-4.2-0.2-6.4C9.7,112.7,9,112.7,8.9,113.1L8.9,113.1z"/>
		</g>
	</g>
	<g>
		<g>
			<path d="M31.7,112.9c-0.4,1.5-0.3,3-0.5,4.5c-0.1,0.4,0.2,0.7,0.5,0.7c2.9,0.1,5.7-0.4,8.6-0.6c0.3,0,0.6-0.2,0.6-0.6
				c-0.1-1.4-0.4-2.9-0.4-4.3c0-0.3-0.3-0.6-0.6-0.6c-2.7,0.1-5.4,0-8,0.7c-0.7,0.2-0.4,1.3,0.3,1.1c2.6-0.6,5.1-0.6,7.7-0.7
				c-0.2-0.2-0.4-0.4-0.6-0.6c0.1,1.4,0.4,2.9,0.4,4.3c0.2-0.2,0.4-0.4,0.6-0.6c-2.9,0.2-5.7,0.7-8.6,0.6c0.2,0.2,0.4,0.4,0.6,0.6
				c0.2-1.5,0-3.1,0-4.6C32.3,112.6,31.8,112.5,31.7,112.9L31.7,112.9z"/>
		</g>
	</g>
	<g>
		<g>
			<path d="M33.1,115c0,0.4,0.4,0.4,0.7,0.4c0.5-0.1,0.9-0.2,1.4-0.4c0.2-0.1,0.4-0.1,0.6-0.2c0.4-0.1,0.3,0,0.2,0.6
				c0,0.2,0.2,0.2,0.3,0.2c0.2-0.1,1.3-1,1.5-0.5c0.1,0.2,0.1,0.3,0.2,0.5c0.2,0.2,0.6,0,0.7-0.2c0.2-0.2-0.1-0.5-0.3-0.3
				c-0.3,0.3-0.3-0.4-0.6-0.5c-0.7-0.2-1.2,0.4-1.7,0.7c0.1,0.1,0.2,0.1,0.3,0.2c0-0.3-0.1-0.6-0.1-0.9c0-0.1-0.1-0.1-0.2-0.1
				c-0.3,0.1-2.6,1-2.7,0.6C33.3,114.8,33.1,114.9,33.1,115L33.1,115z"/>
		</g>
	</g>
	<g>
		<g>
			<path d="M34.1,98.7c1.4,2.1,1.5,4.6,1.5,7c0.2-0.2,0.4-0.3,0.6-0.5c-0.9-0.3-1.6-0.5-2.5-0.5c-0.5,0-0.7,0.5-0.5,0.9
				c0.8,1.6,0.9,3.1,0.8,4.8c0.2-0.2,0.4-0.4,0.6-0.6c-1.9-0.1-3.6-0.6-5.5-0.6c-0.8,0-0.8,1.2,0,1.3c1.8,0.1,3.7,0.6,5.5,0.6
				c0.4,0,0.6-0.3,0.6-0.6c0.1-2-0.1-3.7-1-5.4c-0.2,0.3-0.4,0.6-0.5,0.9c0.7,0,1.5,0.1,2.2,0.2c0.3,0,0.6-0.1,0.6-0.5
				c-0.1-2.6-0.2-5.2-1.8-7.4C34.5,97.9,33.8,98.2,34.1,98.7L34.1,98.7z"/>
		</g>
	</g>
	<g>
		<g>
			<path d="M13.6,98.6c-0.9,2.9-1.2,5.9-0.9,8.8c0,0.4,0.5,0.8,0.8,0.5c1-0.7,1.8-1.3,2.9-1.6c-0.2-0.2-0.5-0.4-0.7-0.6
				c0,1.6,0.1,3.1,0.1,4.7c0,0.4,0.4,0.7,0.8,0.6c1.7-0.2,3.4-0.2,5.1-0.6c0.8-0.2,0.4-1.3-0.3-1.2c-1.7,0.3-3.4,0.4-5.1,0.6
				c0.3,0.2,0.5,0.4,0.8,0.6c-0.1-1.6-0.2-3.1-0.2-4.7c0-0.4-0.4-0.7-0.7-0.6c-1.2,0.3-2.2,1-3.2,1.8c0.3,0.2,0.6,0.3,0.8,0.5
				c-0.4-2.9-0.2-5.8,0.5-8.6C14.5,98.4,13.8,98.2,13.6,98.6L13.6,98.6z"/>
		</g>
	</g>
	<path class="st17" d="M10,96.6c-4.2,5.9-6.6,13.5-7.2,15.5c-0.6,2-1.3,4.4-1.6,6.6c-0.3,2.2,0.3,6.7,0.3,9.4
		c0,2.7,1.9,10.3,3.4,13.5"/>
	<path class="st17" d="M36.8,95.8c2.4,3,5.3,7.2,6.3,10.5c1,3.3,2.9,8,3.4,10.8c0.6,2.7,1,6.6,1.4,9.7s-0.3,10.7-2,14.5"/>
	<g>
		<g>
			<path d="M19.3,100.5c3,2.8,8.1,3.3,10.4-0.5c0.3-0.4-0.4-0.8-0.7-0.4c-2.1,3.3-6.6,2.6-9.2,0.3C19.5,99.6,18.9,100.2,19.3,100.5
				L19.3,100.5z"/>
		</g>
	</g>
	<g>
		<g>
			<path d="M30.1,99.5c0,0-0.1,0.1-0.1,0.1c0.4-0.1,0.3-0.8-0.2-0.7c-0.1,0-0.2,0.1-0.3,0.2C29.2,99.5,29.8,99.9,30.1,99.5
				L30.1,99.5z"/>
		</g>
	</g>
	<g>
		<g>
			<path d="M17,102.6c1.7,1.7,3.2,3.9,5.1,5.3c0.2,0.1,0.5,0,0.6-0.1c0.7-1.7,1.6-3.3,2.6-4.9c-0.2,0-0.5,0-0.7,0
				c1,1.5,2.1,2.8,2.9,4.4c0.1,0.2,0.4,0.3,0.6,0.2c1.2-0.7,2.4-1.3,3.4-2.1c0.4-0.3-0.2-0.9-0.6-0.6c-0.2,0.2-2.6,2.2-3.1,1.4
				c-0.7-1.3-1.7-2.4-2.5-3.6c-0.2-0.3-0.6-0.3-0.7,0c-0.4,0.6-2.2,4.8-2.9,4c-1.4-1.5-2.7-2.9-4.3-4.3
				C17.1,101.9,16.7,102.3,17,102.6L17,102.6z"/>
		</g>
	</g>
	<g>
		<g>
			<path d="M23.2,106.3c0.4,1,0.9,2.5,2.3,2.1c1-0.3,1.9-2,2-3c0-0.4-0.5-0.5-0.7-0.2c-0.4,0.8-0.6,1.7-1.3,2.3
				c-0.8,0.8-1.6-1.1-1.9-1.6C23.4,105.7,23,106,23.2,106.3L23.2,106.3z"/>
		</g>
	</g>
	<g>
		<g>
			<path d="M24.7,108.3c-2,3.2-1.7,8.2-2.2,11.8c-0.7,5.6,0.5,11.2,2.2,16.6c0.1,0.4,0.7,0.5,0.9,0.1c2.4-4.5,2.9-9.4,2.8-14.5
				c-0.1-4.8,0.4-10.6-1.8-15c-0.2-0.5-0.9-0.1-0.7,0.4c2,4,1.3,8.8,1.6,13.2c0.4,4.8-0.1,9.8-2,14.2c0.1-0.2-1.2-4.2-1.4-4.8
				c-0.6-2.8-0.9-5.6-0.8-8.5c0.1-3.4,0.2-10.2,1.9-13.3C25.4,108.3,24.9,108,24.7,108.3L24.7,108.3z"/>
		</g>
	</g>
	<g>
		<g>
			<path d="M45.5,78.1c0.8,19.9-30.1,27-39.5,10.3C3.6,84.1,2.8,78.9,3.7,74c1.1-6.1,9.6-9.7,14.8-11.2c9.4-2.7,25.7,0.3,26.5,12.6
				c0.1,1,1.7,1,1.6,0c-0.7-12.2-15.4-16.5-25.4-15c-6.4,0.9-12.6,4-16.8,8.9C0.4,73.8,1,80.5,2.5,85.7c6.5,22.8,47.4,16.3,44-7.8
				C46.5,77.4,45.5,77.5,45.5,78.1L45.5,78.1z"/>
		</g>
	</g>
	<g>
		<g>
			<path d="M35.2,86.3c-5.8,2.2-11.5,4.4-17,0.3c-1.1-0.8-2.2,1.1-1.1,1.9c6.1,4.6,12.4,1.8,18.5-1.1C36.3,87.1,35.9,86.1,35.2,86.3
				L35.2,86.3z"/>
		</g>
	</g>
	<g>
		<g>
			<path d="M37.4,77.7c-1.4-1-3.9-1.7-5.2-0.2c-0.5,0.6,0,1.8,0.8,1.4c0.6-0.2,1.1-0.6,1.8-0.7c0.7,0,1.4,0.2,1.9,0.5
				C37.5,79.1,38,78.2,37.4,77.7L37.4,77.7z"/>
		</g>
	</g>
	<g>
		<g>
			<path d="M21.5,78.1c-1.5-1.2-4-1.5-5.4,0.1c-0.8,0.9,0.5,2.2,1.3,1.3c1-1,2.2-1,3.4-0.2C21.6,79.8,22.2,78.6,21.5,78.1L21.5,78.1
				z"/>
		</g>
	</g>
	<g>
		<g>
			<path d="M42.8,75.6c0,1.1,0,2.2,0.2,3.3c0.4,2.5-3.6,1.8-5.1,2c-0.9,0.1-8.8,1.2-8.7,0.2c0.1-1.4,0-2.7-0.1-4
				c-0.2-1.3,3.5-1,4.4-1.1c3.1-0.1,6.2,0,9.3-0.3c0.6,0,0.6-0.9,0-0.9c-4.8,0.4-9.6-0.1-14.3,0.9c-0.2,0-0.3,0.3-0.3,0.5
				c0.3,2,0.4,3.8,0.2,5.8c0,0.2,0.2,0.4,0.4,0.4c5-0.3,9.9-1.1,14.9-1.2c0.1,0,0.3-0.1,0.3-0.3c-0.2-1.7-0.5-3.5-0.5-5.2
				C43.4,75.3,42.8,75.3,42.8,75.6L42.8,75.6z"/>
		</g>
	</g>
	<g>
		<g>
			<path d="M22.7,76.3c0.4,1.6,0.6,3.2,0.5,4.9c0,0.4-4.2,0-4.6,0c-3.1,0-6.2,0.2-9.2,0.8c0.2,0.2,0.4,0.3,0.6,0.5
				c-0.1-1.1-0.3-2.1-0.5-3.2c-0.6-3.1,1.1-2.5,3.4-2.6c3.4-0.1,6.8-0.1,10.2-0.1c0.6,0,0.6-1,0-1c-4.7,0-9.5,0-14.2,0.3
				c-0.3,0-0.5,0.2-0.5,0.5c-0.2,2.1,0.4,4,0.6,6.1c0,0.3,0.3,0.5,0.6,0.5c4.6-0.8,9.3-0.9,13.9-0.5c0.3,0,0.5-0.2,0.5-0.5
				c0.1-2-0.1-3.9-0.8-5.8C23.1,75.8,22.6,76,22.7,76.3L22.7,76.3z"/>
		</g>
	</g>
	<g>
		<g>
			<path d="M29.2,78.2c-1.5,0.1-2.9,0.2-4.4,0.2c-0.6,0-0.5,1,0.1,0.8c1.4-0.3,2.9-0.2,4.4-0.4C29.6,78.8,29.6,78.2,29.2,78.2
				L29.2,78.2z"/>
		</g>
	</g>
	<g>
		<g>
			<path d="M8.9,79.6c-2-0.1-4,0-6.1-0.2c-0.7-0.1-0.7,1.2,0,1.1c2-0.2,4,0,6.1-0.2C9.4,80.4,9.4,79.7,8.9,79.6L8.9,79.6z"/>
		</g>
	</g>
	<g>
		<g>
			<path d="M43.5,78.8c0.8,0.1,1.6,0.2,2.4,0.2c0.6,0,0.6-0.9,0-0.9c-0.8-0.1-1.6,0-2.4,0.2C43.2,78.3,43.2,78.8,43.5,78.8
				L43.5,78.8z"/>
		</g>
	</g>
	<g>
		<g>
			<path d="M20.8,73.3c-2.7-1.2-6.4-0.9-8.2,1.7c-0.3,0.4,0.3,0.8,0.6,0.5c2.2-2.1,4.5-2.3,7.3-1.7C20.9,73.8,21.1,73.4,20.8,73.3
				L20.8,73.3z"/>
		</g>
	</g>
	<g>
		<g>
			<path d="M32.5,73.4c2-0.3,3.7,0,5.4,1.1c0.4,0.3,0.9-0.4,0.5-0.7c-1.7-1.4-4.1-1.6-6.1-0.9C32,73,32.2,73.5,32.5,73.4L32.5,73.4z
				"/>
		</g>
	</g>
	<path class="st14" d="M4.9,141.7c2.4,1.6,5.3,3.5,5.8,5.9c0.5,2.5,0.3,5.6-2,4.8c-2.2-0.8-4.1-2.9-4.8-5.7
		C3.2,143.8,4.1,141.4,4.9,141.7z"/>
	<path class="st14" d="M45.9,141.6c-2.7,1.1-5.9,2.4-6.8,4.7s-1.3,5.4,1,5.1c2.3-0.4,4.6-2,5.8-4.7
		C47.1,143.9,46.7,141.4,45.9,141.6z"/>
	<g>
		<g>
			<path d="M5,142.1c1.7,1.4,3.8,3,4.6,5.1c0.6,1.6,0.6,5.3-2,3.9C5,149.8,3.8,144.5,5,142.1c0.3-0.7-0.7-1.2-1-0.6
				c-1.7,3.3,0,10.8,4.2,11.4c2.6,0.4,3.6-2.1,3.4-4.3c-0.4-3.5-3.2-5.6-6.1-7.2C5.1,141.2,4.6,141.8,5,142.1L5,142.1z"/>
		</g>
	</g>
	<g>
		<g>
			<path d="M45.4,141.2c-2.9,1-5.8,2.3-7.1,5.3c-0.9,2.2-0.8,5,2,5.5c4.4,0.7,7.6-7,6.6-10.4c-0.2-0.7-1.3-0.4-1.1,0.3
				c0.7,2.8-1.6,7.4-4.3,8.5c-2.9,1.1-2-2.9-1.3-4.2c1.1-2,3.6-3.2,5.5-4.2C46.1,141.7,45.8,141.1,45.4,141.2L45.4,141.2z"/>
		</g>
	</g>
</g>
<g>
	<path class="st2" d="M196.9,37.7c-0.8,3.2,0.3,7,1.7,10.1c1.5,3.2,1.5,7.7,1.5,12.5s0.2,17.5-0.1,21.9c-0.3,4.4-0.6,7.9-0.8,9.2
		c-0.2,1.3-0.6,1.9-2.6,1.7s-4.3-1.2-5-1.5c-0.7-0.3-0.8-0.6-0.8-3S191,72,191,65.2s-1.1-17.5,5.4-28.7L196.9,37.7z"/>
	<path class="st2" d="M216.8,37.8c0,3-5.8,11.2-7.1,12.4c-1.3,1.2-1,3.3-1.2,5.7s-0.5,15.8-0.8,21.8c-0.3,6.1-0.4,14.7-0.1,15.8
		c0,0,11.5,0.3,14.4-1.3c0,0,1-23.4,0.9-28.7s-0.3-20.7-3.7-27.8L216.8,37.8z"/>
	<path class="st18" d="M200.9,42.4c0,0,8.3,3.3,11.4-2.7l4.2-1.1c-0.2,2.7-5.8,10.7-6.9,11.5c-1,0.8-1.5,2.2-1.4,5
		c0.1,2.8-0.1,20.2-0.4,24.6s-0.5,7.3-0.5,7.3s-5.5,1.2-7.7-0.3c0,0,0.5-21.8,0.3-27.3s-0.6-9.8-0.6-9.8c-0.2-1.4-2.1-4.5-2.4-5.5
		c-1.1-3.8,0-7.4,0-7.4l1,0.8C197.9,37.7,196.6,39.8,200.9,42.4z"/>
	<path class="st19" d="M202,71.6c0,0-2.1-2.3,1.9-21.6l-1.7-2.2l3-3.2l1.5,2.8c0,0-1.4,2.6-1.9,2.7c0,0,1.4,15.3,0.1,21.5
		c-0.5,2.1-1.5,3.2-1.5,3.2S202.6,73.4,202,71.6z"/>
	<path class="st20" d="M200.3,120.2c-7.1-1.8-15.5-1.7-15.7,2.1c-0.2,3.7,5.1,4.4,11.7,1.2l0.4,1.7c0,0,4.1,0.3,3.9,0.1
		S200.3,120.2,200.3,120.2z"/>
	<path class="st20" d="M211.4,121.3l-0.2,3.7l3.5,0.3l0.1-1.9c0,0,4.4,2.4,7.9,1.7c3.5-0.7,5.8-1.6,3.7-4.5
		C224.3,117.7,218.9,117.7,211.4,121.3z"/>
	<path class="st21" d="M207.6,2.4c14.9-0.4,23,10.1,21.6,18.8s-7.4,16.3-16.8,18.2c-0.9,2.3-3.2,4.8-7.4,4.3
		c-4.1-0.4-7.3-3.6-7.8-6.2c-7.4-3.6-11.7-12.2-11.1-18.4S191.4,2.9,207.6,2.4z"/>
	<path class="st22" d="M197.2,93.2c1.3,9.7,0.9,17.2,1.6,26.7"/>
	<path class="st22" d="M212,93.1c0.7,9.6-0.2,18.6,0.6,28.1"/>
	<g>
		<g>
			<path d="M214.3,22.9c0.1,0.2,0.3,0.3,0.4,0.5c0,0.1,0.1,0.2,0.1,0.2c-0.1-0.2,0.4-0.1,0-0.2c-0.3-0.1-0.6-0.6-0.6-0.9
				c-0.2,0.2-0.3,0.4-0.5,0.7c0.3-0.1,0.5-0.1,0.7,0c0.8,0.4,1.4-0.7,0.7-1.1c-0.5-0.4-1.2-0.4-1.8-0.2c-0.3,0.1-0.5,0.3-0.5,0.7
				c0.1,1.1,1,2.5,2.3,2.3c0.6-0.1,1-0.6,1-1.2c0-0.7-0.6-1.1-1.2-1.4C214.5,22,214,22.4,214.3,22.9L214.3,22.9z"/>
		</g>
	</g>
	<g>
		<g>
			<path d="M198.7,21.6c0.4,0.1,0.9,0.1,1.2,0.4c-0.1-0.2-0.2-0.4-0.3-0.5c0,0.8-1.3,0.4-1.6,0.2c0.1,0.3,0.2,0.5,0.3,0.8
				c0.1-0.3,0.6-0.2,0.8-0.2c1,0,1-1.5,0-1.5c-0.9,0-2.1,0.3-2.2,1.3c0,0.3,0,0.7,0.3,0.8c1.2,0.5,2.7,0.7,3.4-0.6
				c0.3-0.5,0.3-1.2-0.3-1.5c-0.6-0.3-1.3-0.3-1.8,0C198.3,21,198.4,21.5,198.7,21.6L198.7,21.6z"/>
		</g>
	</g>
	<g>
		<g>
			<path d="M218.9,36.1c1,4.3,2.4,8.5,3,12.8c0.8,6,0.3,12.3,0.3,18.4c-0.1,8-1.9,16.7-1,24.6c0.1,0.7,1.2,1,1.3,0.2
				c1.5-7.9,1.1-16.8,1.1-24.8c0-6.2,0-12.3-0.6-18.4c-0.4-4.4-2.1-8.8-3.2-13.1C219.7,35.2,218.8,35.5,218.9,36.1L218.9,36.1z"/>
		</g>
	</g>
	<g>
		<g>
			<path d="M221.7,92.2c-2.3,0.2-4.5,0.4-6.8,0.6c-2.1,0.2-4.6,0.6-6.7,0.2c-0.9-0.2-1.2,1.2-0.4,1.3c2,0.4,4.1,0,6.2-0.1
				c2.6-0.2,5.3-0.5,7.8-1.1C222.3,92.9,222.2,92.1,221.7,92.2L221.7,92.2z"/>
		</g>
	</g>
	<g>
		<g>
			<path d="M196.4,36.9c-1.3,3.7-0.1,7.4,1.4,10.9c1.5,3.5,1.7,7.3,1.4,11.1c-0.7,10.1,0.2,20.3-0.7,30.5c-1.3,2.5-3,3.2-5.1,2.2
				c-2.8-0.8-2.2-5-2.2-7c0-2.6,0-5.1,0.1-7.7c0-4.4,0.1-8.9,0.2-13.3c0.1-9.2,0.2-18.7,5.1-26.9c0.3-0.5-0.5-1-0.8-0.5
				c-5.4,8.8-5.4,18.6-5.6,28.5c-0.1,4.7-0.2,9.5-0.2,14.2c-0.1,5-2.3,11.8,3.2,13.9c5.9,2.3,6.5-0.1,6.9-5.3
				c0.6-6.9,0.6-13.7,0.4-20.7c-0.1-5,0.4-10.1-0.2-15.1c-0.6-5.1-4.5-9.2-2.9-14.6C197.5,36.6,196.6,36.3,196.4,36.9L196.4,36.9z"
				/>
		</g>
	</g>
	<g>
		<g>
			<path d="M216.1,38.6c-0.7,2.7-2.4,5.1-4,7.4c-1.1,1.7-4.1,3.5-4.2,5.8c-0.3,3.6-0.3,7.2-0.5,10.8c-0.3,10.4-1,20.8-0.6,31.2
				c0,0.8,1.2,0.8,1.2,0c-0.3-10,0.3-20.1,0.6-30.1c0.1-3.5,0.2-6.9,0.2-10.4c0-2.4,3.4-5.7,4.8-7.8c1.4-2.1,2.8-4.2,3.3-6.7
				C217.1,38.3,216.3,38,216.1,38.6L216.1,38.6z"/>
		</g>
	</g>
	<g>
		<g>
			<path d="M217.7,38.7c0.1,1.6,0,3.2-0.2,4.8c-0.3,2.6-1.4,4.9-2,7.5c0.4,0,0.7-0.1,1.1-0.1c-0.8-1.3-1.8-1.7-3-2.5
				c-0.3-0.2-0.7,0.2-0.5,0.5c0.7,1,1.8,1.4,2.4,2.6c0.2,0.5,1,0.4,1.1-0.1c1-4.3,2.2-8.1,1.6-12.5
				C218.3,38.3,217.7,38.3,217.7,38.7L217.7,38.7z"/>
		</g>
	</g>
	<g>
		<g>
			<path d="M213.2,49.2c-0.3,1.6,0.2,3.1-0.6,4.7c0.2-0.1,0.4-0.2,0.6-0.2c-0.2-0.1-0.4-0.4-0.6-0.6c-0.2-0.2-0.5-0.4-0.8-0.6
				c-0.7-0.5-1.6-0.8-2.3-1.2c-0.7-0.4-1.3,0.7-0.6,1c0.8,0.4,1.6,0.8,2.4,1.2c0.6,0.3,0.9,1,1.6,1.2c0.2,0.1,0.5,0,0.6-0.2
				c0.7-1.5,0.9-3.6,0.3-5.2C213.7,48.9,213.3,48.8,213.2,49.2L213.2,49.2z"/>
		</g>
	</g>
	<g>
		<g>
			<path d="M212.1,39.6c-3.1,6.1-10.9,4.2-14-0.7c-0.2-0.3-0.7-0.1-0.5,0.2c2.5,6,12.2,6.9,14.9,0.7
				C212.6,39.6,212.3,39.3,212.1,39.6L212.1,39.6z"/>
		</g>
	</g>
	<g>
		<g>
			<path d="M213.7,39.3c-1,0.9-1.8,2.7-2.5,3.8c-0.9,1.4-1.9,2.6-3.1,3.7c-1.6,1.6-2.4-1.6-2.9-2.5c-0.1-0.2-0.4-0.2-0.5-0.1
				c-0.7,0.8-1.4,1.6-2.1,2.4c-1.1,1.3-2.2-1.5-2.6-2.3c-0.8-1.6-1.4-3.2-1.9-4.9c-0.1-0.3-0.6-0.3-0.6,0.1c0.3,2.9,2.1,6.6,4.3,8.4
				c0.1,0.1,0.4,0.2,0.5,0c0.7-0.8,1.4-1.7,2.1-2.5c0.9-1.1,2.1,3,2,2.8c0.1,0.2,0.3,0.3,0.4,0.2c1.7-1.2,3-2.6,4.2-4.3
				c1-1.3,1.7-3.4,2.9-4.6C214.2,39.4,213.9,39.1,213.7,39.3L213.7,39.3z"/>
		</g>
	</g>
	<g>
		<g>
			<path d="M206.4,47.1c-0.4,0.8-0.9,1.7-1.5,2.4c-0.5,0.6-1.1-0.5-1.4-0.8c-0.4-0.4-0.7-0.9-1.1-1.3c-0.2-0.3-0.7,0.1-0.5,0.4
				c0.5,0.7,1,1.3,1.5,1.9c0.3,0.3,0.7,0.8,1.2,0.6c1.1-0.3,1.8-2,2.1-3.1C206.9,47.1,206.5,46.9,206.4,47.1L206.4,47.1z"/>
		</g>
	</g>
	<g>
		<g>
			<path d="M204.6,50.4c1,7,2.4,17.8-1.4,24.3c-0.2,0.4,0.3,0.6,0.5,0.3c4.4-6,2.4-18.1,1.3-24.7C205,50,204.5,50.1,204.6,50.4
				L204.6,50.4z"/>
		</g>
	</g>
	<g>
		<g>
			<path d="M203.7,50.5c-1.7,7.2-4.7,17-0.8,24c0.2,0.3,0.6,0.1,0.5-0.2c-1.2-3.4-1.7-5.7-1.5-9.3c0.3-4.8,1.4-9.5,2.2-14.3
				C204.2,50.3,203.8,50.2,203.7,50.5L203.7,50.5z"/>
		</g>
	</g>
	<g>
		<g>
			<path d="M218.9,57.3c-0.1,0.2-0.1,0.4-0.2,0.6c-0.2,0.6-0.7-0.4-0.8-0.5c-0.3-0.3-0.2-0.2-0.6-0.3c0,0-0.1,0-0.1,0.1
				c-0.1,0.2-0.5,0-0.6,0c-0.1,0-0.1,0-0.1,0.1c-0.2,0.5-0.9,0.2-1.3,0.2c-0.2,0-0.7-0.1-0.8-0.1c-0.3,0.1,0.8,0.6-0.8,0.2
				c-0.2,0-0.2,0.2-0.1,0.3c0.2,0.1,0.4,0.1,0.6,0c0.7-0.3,1.5-0.1,2.3,0c0.1,0,0.1,0,0.1-0.1c0.1-0.3,0.2-0.3,0.6-0.2
				c0,0,0.1,0,0.2,0c0.4-0.4,0.9,0.7,1.5,0.7c0.1,0,0.1,0,0.1-0.1c0.1-0.3,0.2-0.6,0.3-0.9C219.1,57.2,218.9,57.1,218.9,57.3
				L218.9,57.3z"/>
		</g>
	</g>
	<g>
		<g>
			<path d="M220.1,55.1c-2.5-0.1-5.1,0.2-7.6,0.4c-0.7,0-0.7,1.1,0,1c2.6-0.2,5.2-0.2,7.7-0.6C220.8,55.9,220.6,55.2,220.1,55.1
				L220.1,55.1z"/>
		</g>
	</g>
	<g>
		<g>
			<path d="M220.5,58.8c-1.2-0.2-2.5,0.3-3.8,0.3c-1.4,0.1-2.8,0-4.3,0.2c-0.4,0.1-0.3,0.7,0.1,0.7c1.4,0.1,2.8-0.1,4.2-0.2
				c1.2-0.1,2.5-0.5,3.7-0.5C220.8,59.5,220.9,58.9,220.5,58.8L220.5,58.8z"/>
		</g>
	</g>
	<g>
		<g>
			<path d="M212.1,56.6c0.3,1,0.2,2,0.1,3c-0.1,0.5,0.7,0.6,0.7,0.1c0.1-1.1,0.2-2.2-0.2-3.3C212.5,56.1,211.9,56.2,212.1,56.6
				L212.1,56.6z"/>
		</g>
	</g>
	<g>
		<g>
			<path d="M220.1,55.8c0,1.1,0,2.2,0,3.3c0,0.5,0.8,0.5,0.8,0c0-1.1,0-2.2,0-3.3C220.8,55.3,220.1,55.3,220.1,55.8L220.1,55.8z"/>
		</g>
	</g>
	<path class="st23" d="M219.1,37.2c3.4,4.4,7.4,14,7.5,14.4c1.3,3.3,2.3,7.4,3,9c0.7,1.7,1,3.1,0.8,3.6c0,0-0.4,6.2-1.1,9.8
		c-0.8,3.7-1.7,7.2-1.7,7.2"/>
	<g>
		<g>
			<path d="M206.9,86.7c-2.2,0-4.6,0.4-6.7,0c-0.7-0.1-1,0.9-0.3,1.1c2.2,0.6,4.9,0.2,7.2-0.2C207.6,87.5,207.4,86.7,206.9,86.7
				L206.9,86.7z"/>
		</g>
	</g>
	<g>
		<g>
			<path d="M200,119.8c-3.2-0.9-15.6-3.6-15.8,2.6c-0.2,6.8,9,3,12.2,1.4c0.5-0.2,0.1-1.1-0.4-0.9c-1.2,0.5-2.4,1-3.6,1.4
				c-0.7,0.2-1.5,0.3-2.3,0.4c-0.4,0-0.8,0.1-1.2,0.1c-1.9,0.3-2.6-1.2-1.9-4.2c3.3-2.2,9.2-0.7,12.7,0.1
				C200.3,120.9,200.6,120,200,119.8L200,119.8z"/>
		</g>
	</g>
	<g>
		<g>
			<path d="M196.3,123c-0.1,0.6-0.1,1.1-0.1,1.7c0,0.4,0.3,0.7,0.7,0.7c1.2,0,2.4-0.1,3.6-0.1c0.5,0,0.8-0.5,0.7-1
				c-0.2-0.8-0.1-1.7-0.1-2.5c0-0.7-0.2-1.3-0.5-1.9c-0.2-0.5-1-0.1-0.8,0.4c0.2,0.6,0.4,1.2,0.4,1.9c0,0.7-0.2,1.5-0.3,2.2
				c0.3-0.2,0.6-0.4,0.9-0.5c-1.3-0.3-2.9-0.3-4.1,0.3c0.3,0.1,0.7,0.3,1,0.4c-0.1-0.4-0.1-0.9-0.2-1.4
				C197.3,122.6,196.5,122.4,196.3,123L196.3,123z"/>
		</g>
	</g>
	<g>
		<g>
			<path d="M211.6,121.9c3.5-0.9,6.9-2.6,10.6-2.7c2,0.1,3.3,1.1,4,3c1,2.7-1.9,2.3-3.3,2.4c-2.4,0.1-4.8-0.3-7.1-1.1
				c-0.9-0.3-1.2,1-0.4,1.3c3.6,1.4,14.3,3.2,11.7-3.7c-2.3-5.8-12-1.4-15.7-0.1C210.7,121.2,211,122.1,211.6,121.9L211.6,121.9z"/>
		</g>
	</g>
	<g>
		<g>
			<path d="M211.7,121.9c0-0.1,0-0.2,0-0.3c0-0.5-0.7-0.6-0.9-0.1c-0.3,1.1,0,2.3-0.2,3.4c-0.1,0.3,0.2,0.7,0.5,0.7
				c1.1,0,2.2,0.1,3.3,0.3c0.7,0.1,1.1-0.5,0.8-1.1c-0.2-0.4-0.1-0.8-0.1-1.2c0-0.6-0.9-1-1.2-0.3c-0.4,0.8-0.2,1.5,0.1,2.3
				c0.2-0.4,0.4-0.7,0.6-1.1c-1.2-0.2-2.3-0.1-3.5,0.1c0.2,0.1,0.4,0.3,0.5,0.4c-0.3-1.1,0.1-2.2,0.1-3.3c-0.3,0-0.6,0.1-0.9,0.1
				c0,0.1,0,0.2,0.1,0.3C211,122.5,211.7,122.4,211.7,121.9L211.7,121.9z"/>
		</g>
	</g>
	<g>
		<g>
			<path d="M194.8,39.6c-0.5,3.4-1.2,6.6-1.3,10c0,0.2,0.2,0.5,0.5,0.5c0.9-0.1,2-0.1,2.9-0.4c0.5-0.1,0.4-1-0.1-0.9
				c-0.9,0.1-1.8,0.3-2.8,0.4c0.2,0.2,0.3,0.3,0.5,0.5c-0.1-3.3,0.8-6.6,1.2-9.9C195.7,39.2,194.9,39.1,194.8,39.6L194.8,39.6z"/>
		</g>
	</g>
	<g>
		<g>
			<path d="M199.5,51.8c-1.7,0.5-3.1,1.5-4.6,2.5c0.2,0.1,0.5,0.2,0.7,0.3c-0.6-1.5,0.6-3.4,1.3-4.6c0.3-0.6-0.6-1.1-0.9-0.5
				c-0.8,1.5-2,3.6-1.3,5.4c0.1,0.3,0.4,0.5,0.7,0.3c1.4-1,2.7-2,4.3-2.5C200.3,52.5,200.1,51.7,199.5,51.8L199.5,51.8z"/>
		</g>
	</g>
	<g>
		<g>
			<path d="M206.3,2.9c9-0.1,18.7,2.7,21.6,12.2c3.3,10.5-6.5,22-16.7,23c-10.9,1.1-20-3.1-23.3-13.9c-3.7-11.9,7.1-20.1,17.9-20.9
				c0.7-0.1,0.7-1.1,0-1.1c-10.9,0.7-21.4,7.6-20.1,19.7c0.6,5.6,3.2,11.1,7.6,14.7c4.4,3.6,11.4,3.9,16.7,3.8
				c11.6-0.3,21.3-11.8,19.9-23.2c-1.4-11.6-13.4-15.4-23.5-15.1C205.7,2,205.7,2.9,206.3,2.9L206.3,2.9z"/>
		</g>
	</g>
	<path class="st23" d="M196.2,37c-2.8,3.9-5.3,7.6-6.6,9.4c-1.2,1.8-4.6,10.2-5.5,12c-0.9,1.8-1.1,3.5-1.1,3.5s0,8.8,0.6,11.6
		c0.6,2.7,1.5,6.4,1.5,6.4"/>
	<g>
		<g>
			<path d="M192.9,56.9c1.5,0.6,3.1,0.4,4.7,0.9c-0.1-0.2-0.3-0.5-0.4-0.7c-0.5,1.8-0.7,3.6-0.8,5.4c0,1.6-1.9,2.6-3,3.8
				c0.3,0,0.6,0.1,0.9,0.1c-1-1.7-2.1-2.7-2-4.8c0.1-1.8,0.8-3.5,0.7-5.4c0-0.7-1-0.7-1,0c-0.1,2.3-0.9,4.4-0.7,6.7
				c0.1,1.5,1.4,2.7,2.1,4c0.2,0.3,0.6,0.4,0.9,0.1c0.9-0.9,1.8-2,3.1-2.5c0.2-0.1,0.3-0.3,0.3-0.5c0-2.3,0.1-4.5,0.7-6.6
				c0.1-0.3-0.1-0.6-0.4-0.7c-1.6-0.5-3.2-0.2-4.8-0.5C192.6,56.1,192.5,56.7,192.9,56.9L192.9,56.9z"/>
		</g>
	</g>
	<g>
		<g>
			<path d="M211.5,30c-3.8,0.4-7.2,0.3-10.8-1c-0.9-0.3-1.4,1.1-0.6,1.5c1.9,1,3.4,2.7,5.5,3.3c1.7,0.5,3.6-1.1,4.8-2.1
				c0.6-0.5-0.2-1.2-0.7-1c-1.9,0.9-2.8,2.2-5.1,1c-1.3-0.7-2.4-1.8-3.7-2.6c-0.3,0.5-0.5,0.9-0.8,1.4c3.6,2,7.8,1.7,11.6,0.5
				C212.2,30.8,212.1,29.9,211.5,30L211.5,30z"/>
		</g>
	</g>
	<g>
		<g>
			<path d="M203.4,18.3c-2.7-1.3-6.3-0.9-9,0.2c-1,0.5-0.2,1.8,0.7,1.7c1.4-0.2,2.7-0.6,4.1-0.8c1.3-0.1,2.6,0.1,3.9,0
				C203.7,19.4,204,18.5,203.4,18.3L203.4,18.3z"/>
		</g>
	</g>
	<g>
		<g>
			<path d="M211.5,20.1c1.5-0.1,2.9,0,4.3,0.4c1.3,0.4,2.3,1.3,3.6,1.7c0.8,0.3,1.3-0.8,0.8-1.4c-1.9-2.2-6.3-2.7-8.9-1.9
				C210.8,19.2,210.9,20.1,211.5,20.1L211.5,20.1z"/>
		</g>
	</g>
	<path d="M228.9,22.2c-3.1-6.8-6.1-13-20.9-10.8c0,0-15.2-6.3-21.8,5.5c0,0-1.5-2.3-0.1-3.4c0,0-1.4-2.1,0.3-2.7
		c0,0-0.3-2.7,1.5-2.5c0,0,0.3-2,1.9-1.8c0,0,0.1-2.2,2.5-1.8c0,0,0.6-2.3,2.5-1.5c0,0,0.4-1.8,2.5-1.1c0,0,0.7-1.9,3.6-0.5
		c0,0,1.3-2,3.4-0.6c0,0,1.1-2,3.5-0.1c0,0,1.4-1.8,3.3,0.1c0,0,1.8-1.6,3.4,0.6c0,0,2.4-1.2,3.4,0.7c0,0,2.5-0.9,3.1,1.2
		c0,0,2.5-0.5,2.5,1.5c0,0,2.9,0.4,2.5,2.4c0,0,2.5,0.4,2,2.4c0,0,2.2,1.1,1.1,2.5c0,0,2.3,1.6,0.7,3.2c0,0,2,1.3,0.6,2.8
		c0,0,1.5,1.3,0,2C230.6,20.4,231.3,22.8,228.9,22.2z"/>
	<g>
		<g>
			<path class="st24" d="M223.8,72.7c2-0.9,5.9-2.1,9.2,0.1c-2.7,4.9-4.4,7.7-4,10.4c0.4,2.7,0.9,5-1.1,5.6c-2,0.6-3.7-1.1-4.1-3.4
				c-0.4-2.3,1.3-3.9,1.7-6.5C225.9,76.4,225.6,74.5,223.8,72.7z"/>
		</g>
		<g>
			<g>
				<path class="st24" d="M224.1,72.9c0.7,0.7,1.3,1.6,1.5,2.6c0.4,1.4,0,2.9-0.4,4.3c-0.5,1.4-1,2.7-1.2,4.1
					c-0.2,1.4,0.1,3.1,1.1,4c0.8,0.7,2.1,1.8,3.5,0c0.6-0.8,0.8-2,0.6-3s-0.6-1.9-0.6-2.8c0-0.9,0.4-1.8,0.8-2.7
					c0.9-2.2,1.9-4.3,3.2-6.3"/>
				<g>
					<path d="M223.8,73.2c3.4,4.1-0.6,8.1-0.3,12.5c0.1,1.4,1.5,3.7,3.2,3.7c2.1,0.1,3-1.8,3.1-3.6c0-0.5-0.3-1.4-0.4-1.8
						c-0.6-2,0-3.3,0.8-5.2c0.8-1.9,1.8-3.6,2.7-5.4c0.2-0.4-0.3-0.8-0.6-0.5c-1.5,1.9-2.4,4.1-3.3,6.3c-1.1,2.6-0.5,3.9-0.2,6.6
						c-2.6,2.9-4.1,2.5-4.4-1c0-1,0.2-1.9,0.6-2.8c0.4-1.4,1.2-2.8,1.2-4.3c0.1-2.1-0.5-3.5-1.8-5C224,72.3,223.5,72.8,223.8,73.2
						L223.8,73.2z"/>
				</g>
			</g>
			<g>
				<path class="st24" d="M224.6,72.1c2.3-1,5.7-0.7,7.8,0.7"/>
				<g>
					<path d="M224.7,72.5c2.4-0.9,5.2-0.6,7.4,0.8c0.6,0.4,1.2-0.6,0.6-1c-2.4-1.4-5.6-1.5-8.1-0.5C224.1,72,224.3,72.6,224.7,72.5
						L224.7,72.5z"/>
				</g>
			</g>
		</g>
	</g>
	<g>
		<g>
			<path class="st24" d="M179.2,72.8c1.8-1.3,5.1-3.5,8.9-2.2c-2,7-1.6,8.2-0.4,11.1c1,2.6,1.2,5.4-0.6,6.4s-3.1-0.9-4-3
				s-0.5-3.3-0.6-5.9S181.4,74.1,179.2,72.8z"/>
		</g>
		<g>
			<path class="st24" d="M179.6,72.9c0.8,0.6,1.6,1.3,2.1,2.2c0.7,1.3,0.9,3.4,0.8,4.9c-0.2,1.4-0.3,2.1,0.1,3.6
				c0.4,1.4,1.1,3.6,2.3,4.3c1.2,0.7,2.5,0.4,3-0.9c0.4-0.9,0.8-2.6,0.4-3.4c-0.4-0.9-1-1.7-1.2-2.7c-0.2-0.9-0.9-3-0.7-4
				c0.4-2.3,0.5-3.6,1.4-5.8"/>
			<g>
				<path d="M179.3,73.2c3.9,3.2,1.8,7.2,3,11.3c0.5,1.5,1.9,5,4.1,4.3c1.8-0.5,2.9-2.8,2.5-4.6c-0.4-1.7-1.3-3.2-1.8-5
					c-0.7-2.6,0.3-5.5,1-8c0.1-0.4-0.5-0.7-0.7-0.3c-0.9,2-1.5,4.4-1.6,6.7c0,1.1,0.5,2.3,0.8,3.4c0.1,0.4,0.2,0.7,0.3,1
					c0.1,0.3,0.3,0.6,0.4,0.9c1.3,3.1,0.2,4.3-3.2,3.6c-2-2.7-1.1-6-1.4-9c-0.3-2.2-1.4-3.7-3-4.9C179.4,72.3,179,72.9,179.3,73.2
					L179.3,73.2z"/>
			</g>
		</g>
		<g>
			<path class="st24" d="M179,72.7c1.4-1.2,5-3.3,8.1-2.3"/>
			<g>
				<path d="M179.2,73c2.2-1.7,5-2.9,7.8-2.1c0.7,0.2,1-0.9,0.3-1.1c-3-0.7-6.1,0.7-8.5,2.6C178.5,72.7,178.9,73.2,179.2,73
					L179.2,73z"/>
			</g>
		</g>
	</g>
</g>
<g>
	<path class="st7" d="M138.6,159l-2.2-0.1c0,0-3.6-4.3-6.9-3.3c-3.3,1-5.4,4.2-3.3,5.7c2.1,1.5,4.9,0.9,8-0.5l0.1,1.1l4.2-0.3
		C138.4,161.6,138.4,158.9,138.6,159z"/>
	<path class="st7" d="M152.1,158.9c-0.2-0.1-2-0.1-2-0.1l-0.6,2.8l3.9,0.3l0.4-1.3c0,0,3.6,2.7,6.7,1.3c3.1-1.3,3.7-2.8,1.8-4.6
		C160.4,155.5,153.3,155.1,152.1,158.9z"/>
	<path class="st15" d="M152,85.4c1.2-3.3,0.9-4.4,0.7-6.5c7.7-2.5,13.3-7.2,13.1-18s-6.3-16.6-20.1-17.3
		c-10.2-0.5-21.7,6.9-21.2,19.9s10.3,14.6,14.1,15.4c0.7,3.8,0.6,4.9,2.5,5.8c2.2,1,5.2,2.4,6.1,4.6C148.1,87.6,150.8,85.6,152,85.4
		z"/>
	<path class="st13" d="M152,85.4c-1.2,0.2-3.9,2.1-4.9,3.8c-0.9-2.2-3.9-3.7-6.1-4.6l-0.9-0.1c0,0,0.6,1.3,1.9,2.9
		c1.3,1.6,3.6,5.2,3.3,8.4c-0.3,3.2-2.2,19-2.8,25.6c0,0,6.5,0.9,10.1-0.2c-0.6-11.3-2.4-19.1-2.6-22.7
		C149.8,95,148.8,91.9,152,85.4z"/>
	<path class="st2" d="M134.4,77.9c-1.5,2.7-4.5,10.5-4,18.2s2,25.8,0.1,30.9c0,0,4.2,3.6,11.7,1.6c0.6-11.4,2-25.1,2.8-29.8
		c0.8-4.8,0.3-7.1-2.2-10.3c-2.4-3.1-4.3-6.5-4.4-9.9L134.4,77.9z"/>
	<path class="st2" d="M152.6,78.5c0.7,2.5,0.1,6.8-2,10.4c-2.2,3.6-1.3,7.1-0.6,10.9s2.2,10.3,2.2,16.5c0.1,6.1-0.1,13.3-0.1,13.3
		s10.1,1,11.2-2c0,0,0.4-13.7,0.3-21.3c-0.1-7.6-0.6-20-6.5-29L152.6,78.5z"/>
	<path class="st4" d="M163.3,103.4c2.2,0.4,5.4,1.1,6.2,3.6l-3.7,4.8c0,0,3.8,2.7-2.4,6.9C163.5,118.7,163.1,108.1,163.3,103.4z"/>
	<path class="st4" d="M125.8,103.3c1,1.1,2.4,3.5,5.5,4l0.3,12.1c0,0-4.7-1.2-3.2-7.2c0,0-5.2-1.6-6.7-3.1
		C121.6,109,121,106.2,125.8,103.3z"/>
	<path class="st10" d="M126.5,61.7c8-1.5,27.1-4,38.7-2.1c-0.9,4.7-0.9,9.1-8,9.5c-7,0.4-7.5-0.8-8.9-2.5c-1.5-1.7-1.8-2.6-2.4-2.6
		s-1.6,1.2-2.1,2.3c-0.4,1.2-2.7,4.3-7.9,3.7C128.3,69.3,128.8,67.3,126.5,61.7z"/>
	<path class="st25" d="M154.6,129.9c-0.4,9.1-2.3,20-3.5,29"/>
	<path class="st25" d="M139.5,129.2c-0.1,9.5-1.1,20.3-2.3,29.8"/>
	<g>
		<g>
			<path d="M153.5,160.8c2.1,1.8,5.1,2.3,7.8,1.8c2.5-0.5,3-3.1,2-5c-1.2-2.3-4.9-2.5-7-2c-1.1,0.2-3.2,0.6-4,1.6
				c-0.5,0.7-0.6,1.8-1.8,1.2c0,0.3,0.1,0.5,0.1,0.8c-0.2,0-0.4,0-0.6,0c0.4,0.5,1.1-0.2,0.7-0.7c0,0,0,0,0,0
				c-0.2-0.2-0.5-0.1-0.7,0c0,0,0,0,0,0c-0.2,0.2-0.1,0.6,0.1,0.8c0.6,0.3,1.4,0.2,2.1,0.3c0.3,0,0.5-0.2,0.5-0.5
				c0-2.8,6.3-2.6,7.6-2.2c2.3,0.8,2.7,2.2,1.2,4.2c-1,0.4-2,0.5-3.1,0.4c-1.6-0.1-3-0.4-4.4-1.2C153.6,160,153.2,160.5,153.5,160.8
				L153.5,160.8z"/>
		</g>
	</g>
	<g>
		<g>
			<path d="M153.3,160.4c-0.2,0.5-0.3,0.9-0.3,1.4c0.2-0.1,0.4-0.2,0.6-0.4c-0.6-0.3-1.2-0.5-1.9-0.6c-0.4,0-0.8-0.1-1.1-0.1
				c-0.2,0-0.4,0-0.6,0c-0.3,0-0.4,0-0.2,0c0.1,0.2,0.2,0.3,0.3,0.5c0-0.4,0.2-0.8,0.3-1.2c0.1-0.5,0.1-1,0-1.5
				c-0.1-0.7-1.1-0.4-1.1,0.2c-0.1,0.7-0.1,1.4-0.2,2c-0.1,0.5-0.2,0.9,0.3,1.2c0.4,0.2,1.1,0.1,1.5,0.1c0.8,0,1.6,0.1,2.4,0.3
				c0.3,0.1,0.5-0.1,0.5-0.4c0-0.4,0.1-0.8,0.1-1.2C153.9,160.3,153.4,160.1,153.3,160.4L153.3,160.4z"/>
		</g>
	</g>
	<g>
		<g>
			<path d="M134,160c-1.9,1-4.3,1.5-6.5,1.2c-0.3-1.1-0.7-2.2-1-3.3c0.7-1.3,1.8-2,3.3-2c1.3-0.2,2.5,0.5,3.6,1
				c1.1,0.6,1.5,1.4,2.3,2.2c0.6,0.6,1.9,0.3,2.5,0.3c0.7,0,0.7-1.1,0-1.1c-0.8,0-1.6,0.4-1.9-0.4c-0.1-0.2-0.3-0.4-0.5-0.6
				c-0.8-0.9-2.4-1.6-3.5-2c-2.8-0.9-5.2-0.6-6.9,1.9c-1.2,1.7-1.1,4.5,1.1,5.2c2.9,1,5.6-0.1,7.9-1.9
				C134.8,160.3,134.3,159.8,134,160L134,160z"/>
		</g>
	</g>
	<g>
		<g>
			<path d="M138,159.3c-0.1,0.7-0.2,1.4-0.3,2.1c0.2-0.1,0.4-0.2,0.6-0.3c-0.6-0.2-1.3-0.2-2-0.2c-0.8,0-1.6,0-2.3,0.1
				c0.3,0.1,0.5,0.3,0.8,0.4c-0.1-0.5-0.2-1-0.3-1.5c-0.1-0.3-0.7-0.4-0.7,0c-0.1,0.5-0.1,1-0.2,1.5c-0.1,0.3,0.1,0.7,0.4,0.8
				c0.6,0.1,1.2,0,1.9-0.1c0.8-0.1,1.5-0.2,2.3-0.2c0.2,0,0.5-0.2,0.5-0.5c0-0.7,0-1.5,0.1-2.3C138.7,158.9,138.1,158.9,138,159.3
				L138,159.3z"/>
		</g>
	</g>
	<g>
		<g>
			<path d="M132.8,47.1c-9.3,3.6-11,16.9-7,24.9c4.7,9.3,20,9.8,28.6,7.5c12.2-3.2,14.5-16.3,10.4-26.9c-4.3-11-21.9-12.9-30.7-6.7
				c-0.9,0.6-0.1,2,0.9,1.5c8.9-4.9,24-3.8,28.1,6.9c1.7,4.5,1.6,9.8,0.4,14.3c-1.3,5-6.1,7.6-10.8,8.8c-7.5,2-19.5,1-24.5-5.7
				c-5.1-6.8-3.1-20.2,4.9-23.9C133.6,47.8,133.3,46.9,132.8,47.1L132.8,47.1z"/>
		</g>
	</g>
	<g>
		<g>
			<path d="M133.7,78.9c-8.2,14.9-0.8,32-4,47.9c-0.2,1.1,1.5,1.6,1.7,0.5c3.4-15.8-4.2-32.7,3.1-47.8
				C134.8,78.8,134,78.3,133.7,78.9L133.7,78.9z"/>
		</g>
	</g>
	<g>
		<g>
			<path d="M163.7,127.6c0.3-9.7,0.9-19.3,0.3-29c-0.2-3.7-0.8-7.4-1.6-11c-0.9-4-2.7-6.9-4.6-10.4c-0.5-1-2.1-0.1-1.6,0.9
				c1.7,3.4,3.5,6.3,4.4,10c1.2,4.7,1.6,9.5,1.8,14.3c0.4,8.4,0.1,16.8,0.3,25.2C162.8,128.2,163.7,128.2,163.7,127.6L163.7,127.6z"
				/>
		</g>
	</g>
	<g>
		<g>
			<path d="M138.1,80.4c0.7,3.7,2.6,6.4,4.8,9.4c3.1,4.4,0.9,13,0.2,17.9c-0.6,4.1-0.8,8.2-1,12.4c-0.1,2.3-0.3,4.5-0.4,6.8
				c-0.1,3.3-10.1-0.1-10.8-0.5c-0.9-0.5-1.7,0.8-0.8,1.4c3.9,2.4,8.3,2.2,12.7,1.6c0.4-0.1,0.6-0.5,0.6-0.8
				c-0.1-9.3,1.3-18.5,2.3-27.7c0.4-3.5,0.6-7.3-0.8-10.5c-1.6-3.7-4.7-6.1-5.9-10.1C138.8,79.6,138,79.9,138.1,80.4L138.1,80.4z"/>
		</g>
	</g>
	<g>
		<g>
			<path d="M152.4,79c0.7,5.1-2.6,7.8-3.2,12.4c-0.5,3.9,0.2,7.9,0.7,11.8c1.1,8.9,1.6,17.5,1.6,26.5c0,0.5,0.4,0.9,0.9,0.9
				c3.8-0.1,7.7,0.3,11.1-1.5c0.8-0.4,0.2-1.8-0.6-1.5c-2.1,0.8-4.2,1.1-6.5,1.2c-3.6,0.2-3.2-0.7-3.2-4.1c0-5.4-0.2-10.7-0.9-16
				c-0.7-5.2-1.7-10.5-1.7-15.8c0-5.1,3.9-8.8,2.8-14.1C153.1,78.1,152.3,78.4,152.4,79L152.4,79z"/>
		</g>
	</g>
	<g>
		<g>
			<path d="M143.3,122c3.2,0.5,6.3,0.6,9.4-0.1c0.8-0.2,0.5-1.5-0.3-1.3c-3,0.8-5.9,0.5-9,0.4C142.9,121,142.8,121.9,143.3,122
				L143.3,122z"/>
		</g>
	</g>
	<g>
		<g>
			<path d="M133.3,93.2c-0.5,1.9-0.3,4-0.2,6c0.1,1,0,1.2,0.6,2c0.9,1.1,2.1,1.9,3.1,2.7c0.3,0.2,0.6,0.2,0.8,0
				c1.4-1.1,3.1-1.9,4.5-3c0.2-0.2,0.2-0.5,0.1-0.8c-1.1-2-0.5-4.6-0.5-6.8c0-0.4-0.3-0.7-0.7-0.7c-2.7,0-5.4,0-8.1,0
				c-0.9,0-0.9,1.3,0,1.3c2.7,0,5.4,0,8.1,0c-0.2-0.2-0.4-0.4-0.7-0.7c0,2.4-0.8,5.4,0.7,7.4c0-0.3,0.1-0.5,0.1-0.8
				c-1.4,1.2-3.1,1.9-4.4,3.1c0.2,0,0.5-0.1,0.7-0.1c-1.7-1.3-3.5-2.1-3.7-4.4c-0.1-1.8-0.2-3.5,0-5.3
				C134,92.9,133.4,92.8,133.3,93.2L133.3,93.2z"/>
		</g>
	</g>
	<g>
		<g>
			<path d="M153.1,92.8c-0.4,1.4-0.2,2.8-0.5,4.2c-0.1,0.3,0.1,0.7,0.5,0.7c2.7,0.1,5.3-0.4,8-0.5c0.3,0,0.5-0.2,0.5-0.5
				c-0.1-1.3-0.3-2.6-0.4-4c0-0.3-0.2-0.5-0.5-0.5c-2.5,0.1-5,0-7.4,0.7c-0.6,0.2-0.4,1.2,0.3,1c2.4-0.6,4.7-0.5,7.1-0.6
				c-0.2-0.2-0.4-0.4-0.5-0.5c0.1,1.3,0.3,2.6,0.4,4c0.2-0.2,0.4-0.4,0.5-0.5c-2.7,0.2-5.3,0.6-8,0.5c0.2,0.2,0.3,0.3,0.5,0.5
				c0.1-1.4,0-2.8,0-4.2C153.6,92.6,153.2,92.5,153.1,92.8L153.1,92.8z"/>
		</g>
	</g>
	<g>
		<g>
			<path d="M154.3,94.8c0,0.4,0.3,0.4,0.6,0.4c0.4-0.1,0.9-0.2,1.3-0.4c0.2-0.1,0.3-0.1,0.5-0.2c0.4-0.1,0.3,0,0.2,0.5
				c0,0.1,0.2,0.2,0.3,0.2c0.2-0.1,1.2-0.9,1.4-0.5c0.1,0.2,0.1,0.3,0.2,0.4c0.2,0.2,0.5,0,0.7-0.2c0.2-0.1-0.1-0.4-0.2-0.3
				c-0.3,0.2-0.3-0.4-0.6-0.4c-0.6-0.2-1.1,0.4-1.6,0.7c0.1,0.1,0.2,0.1,0.3,0.2c0-0.3-0.1-0.5-0.1-0.8c0-0.1-0.1-0.1-0.2-0.1
				c-0.3,0.1-2.4,1-2.5,0.5C154.6,94.6,154.4,94.7,154.3,94.8L154.3,94.8z"/>
		</g>
	</g>
	<g>
		<g>
			<path d="M135.4,62.9c-0.6,0.4-1,1.2-0.9,2c0.1,0.7,0.8,1,1.5,1c0.6,0,1.2-0.4,1.5-0.9c0.4-0.6,0.3-1.7-0.2-2.2
				c-0.5-0.5-1.5-0.2-1.5,0.6c0,0.2,0.1,0.4,0.1,0.7c0-0.2,0,0,0,0.1c0-0.3-0.1,0.1,0-0.1c0,0.1-0.1,0.2,0,0c0,0-0.2,0.2,0,0
				c0,0-0.2,0.1,0,0c-0.1,0-0.1,0-0.2,0c0.2-0.1,0.1,0,0,0c0.3,0,0,0,0.2,0.1c-0.2-0.1,0.2,0.2,0,0c0.2,0.2,0.1,0.1,0,0
				c0.1,0.2,0,0,0,0.1c0,0,0-0.2,0-0.1c0-0.2,0.1-0.4,0.2-0.6C136.4,63.1,135.9,62.6,135.4,62.9L135.4,62.9z"/>
		</g>
	</g>
	<g>
		<g>
			<path d="M151.7,62.1c-0.5,0.6-0.8,1.5-0.6,2.2c0.2,0.7,1,1,1.6,0.8c0.6-0.2,1.1-0.7,1.2-1.3c0.2-0.8-0.2-2.2-1.2-2.1
				c-0.3,0-0.7,0.2-0.8,0.6c-0.1,0.4,0,0.7,0.2,1c0,0,0.2,0.3,0.1,0.1c0.1,0.2,0-0.1,0,0.1c0,0.2,0.1-0.2,0,0c0.1-0.2,0,0,0,0
				c0.1-0.2,0,0,0,0c0.2-0.2,0,0,0,0c0.2-0.1,0.1,0,0,0c0.2-0.1-0.1,0,0.2,0c-0.1,0-0.1,0,0.1,0c-0.1,0,0,0,0.1,0.1
				c-0.2-0.1,0.1,0.1,0,0c0.1,0.2,0,0,0-0.1c0,0.1,0-0.2,0-0.2c0-0.3,0-0.6,0.1-0.9C152.7,61.9,152,61.8,151.7,62.1L151.7,62.1z"/>
		</g>
	</g>
	<path class="st25" d="M134.3,78.2c-3.9,2.8-7.8,7.7-9.4,9.4c-1.5,1.7-7.5,9.8-7.5,9.8s2.3,4.7,6.1,8.2"/>
	<path class="st25" d="M157.5,77.6c3.2,2.8,10.5,9.9,12.3,12.2c1.8,2.2,3.4,5.3,3.4,5.3s-3.8,5.9-5.7,9.4"/>
	<g>
		<g>
			<path d="M164,104c2.1,0.3,3.7,1.2,5,3c0.4,0.5,1.2,0,0.8-0.5c-1.3-1.9-3.3-3.4-5.7-3.2C163.7,103.3,163.6,103.9,164,104L164,104z
				"/>
		</g>
	</g>
	<g>
		<g>
			<path d="M168.8,107.4c-1.4,1.3-2.7,2.6-3.7,4.2c-0.1,0.2-0.1,0.5,0.1,0.7c2.3,2.5,0.6,4.1-1.7,5.5c-0.6,0.3-0.2,1.3,0.5,1.1
				c3.5-1.4,4.9-4.5,2.1-7.4c0,0.2,0.1,0.5,0.1,0.7c0.9-1.6,2.1-2.9,3.3-4.2C169.8,107.6,169.2,107,168.8,107.4L168.8,107.4z"/>
		</g>
	</g>
	<g>
		<g>
			<path d="M130.9,107c-1.9-0.9-3.4-2.6-4.8-4.1c-0.2-0.2-0.5-0.2-0.7-0.1c-2.2,1.4-3.6,3.4-4.3,5.9c-0.1,0.3,0.1,0.6,0.3,0.7
				c2.1,1.3,4.5,2.4,6.8,3.2c-0.2-0.3-0.3-0.5-0.5-0.8c-1,3.7-0.1,5.7,3,7.8c0.7,0.5,1.3-0.6,0.6-1.1c-2.5-1.9-3.3-3.2-2.4-6.3
				c0.1-0.4-0.1-0.7-0.5-0.8c-1.4-0.5-2.7-1.1-4-1.7c-0.6-0.3-1.2-0.6-1.8-0.9c-1.1-0.6,1.1-2.9,1.6-3.6c0.5-0.6,0.9-1.4,1.6-0.7
				c0.5,0.5,1,1,1.6,1.5c0.9,0.8,1.9,1.6,3.1,1.8C131,107.8,131.3,107.3,130.9,107L130.9,107z"/>
		</g>
	</g>
	<g>
		<g>
			<path d="M155.1,79.7c1.3,1.9,1.4,4.3,1.4,6.5c0.2-0.1,0.4-0.3,0.6-0.4c-0.8-0.3-1.4-0.4-2.3-0.5c-0.5,0-0.7,0.5-0.5,0.9
				c0.8,1.5,0.8,2.9,0.7,4.5c0.2-0.2,0.4-0.4,0.6-0.6c-1.7-0.1-3.4-0.6-5.1-0.6c-0.8,0-0.7,1.1,0,1.2c1.7,0.1,3.4,0.5,5.1,0.6
				c0.3,0,0.6-0.3,0.6-0.6c0.1-1.8-0.1-3.4-0.9-5c-0.2,0.3-0.3,0.6-0.5,0.9c0.7,0,1.4,0.1,2,0.2c0.3,0,0.6-0.1,0.6-0.4
				c-0.1-2.4-0.2-4.8-1.6-6.8C155.5,79,154.8,79.3,155.1,79.7L155.1,79.7z"/>
		</g>
	</g>
	<g>
		<g>
			<path d="M136.2,79.7c-0.8,2.6-1.1,5.4-0.8,8.2c0,0.4,0.4,0.7,0.8,0.4c0.9-0.6,1.6-1.2,2.7-1.5c-0.2-0.2-0.5-0.3-0.7-0.5
				c0,1.4,0.1,2.9,0.1,4.3c0,0.4,0.3,0.6,0.7,0.6c1.6-0.2,3.2-0.2,4.7-0.6c0.7-0.2,0.4-1.2-0.3-1.1c-1.6,0.3-3.2,0.3-4.7,0.6
				c0.2,0.2,0.5,0.4,0.7,0.6c-0.1-1.4-0.2-2.9-0.2-4.3c0-0.3-0.3-0.6-0.7-0.5c-1.1,0.3-2,1-2.9,1.7c0.3,0.1,0.5,0.3,0.8,0.4
				c-0.3-2.7-0.1-5.3,0.5-8C137,79.4,136.3,79.3,136.2,79.7L136.2,79.7z"/>
		</g>
	</g>
	<path d="M134.9,88c-16.2-5-13.4-18.9-12.8-28.5S129,44.7,132.9,45c4.4-10.6,28.5-0.1,32.5,5.1c4,5.2,2.6,16,2.4,25
		s-10.1,11.8-10.1,11.8c1.1-4.3,0.6-9.9,0.6-9.9c2.2-0.9,6.9-10.8,6.4-17s-16.7-7.2-20.7-6c-4,1.2-8.2,0.6-9.9-1
		c-6.6,6.7-10,5.3-5.1,21.5l6.2,3.1C135.3,77.6,132.8,84.1,134.9,88z"/>
	<g>
		<g>
			<path d="M151.1,58.1c2.7-0.4,5.8,1.3,5.7,4.3c0,0.5,0.8,0.5,0.8,0c0.2-3.5-3.6-5.5-6.7-5C150.5,57.5,150.7,58.1,151.1,58.1
				L151.1,58.1z"/>
		</g>
	</g>
	<g>
		<g>
			<path d="M137.3,58c-3,0-6.1,2.1-6.5,5.2c-0.1,0.5,0.8,0.7,0.9,0.1c0.5-2.7,2.9-4.4,5.6-4.7C137.8,58.6,137.8,58,137.3,58
				L137.3,58z"/>
		</g>
	</g>
	<g>
		<g>
			<path d="M141.5,71.8c2.7,1.6,6,1.5,8.9,0.4c-0.2-0.3-0.4-0.5-0.6-0.8c-1,1.7-1.7,2.7-3.8,2.9c-2,0.2-3.4-0.5-3.9-2.5
				c-0.3,0.3-0.7,0.5-1,0.8c2.5,1.8,5.8,2.6,8.4,0.5c0.7-0.6-0.3-1.6-1-1c-2.1,1.7-4.8,0.6-6.7-0.7c-0.5-0.4-1.2,0.2-1,0.8
				c0.6,2.5,2.3,3.5,4.8,3.5c2.8-0.1,4-1.4,5.1-3.7c0.2-0.5-0.2-1-0.7-0.7c-2.6,1.2-5.6,1.2-8.1,0C141.4,71,141.1,71.6,141.5,71.8
				L141.5,71.8z"/>
		</g>
	</g>
	<g>
		<g>
			<path d="M139,83.1c2.4,2.5,5.9,3.4,7.5,6.7c0.3,0.5,1,0.3,1.1-0.1c0.7-1.7,2.6-2.4,3.8-3.6c0.6-0.6-0.3-1.4-0.9-0.9
				c-1.5,1.5-3.4,2.1-4.2,4.1c0.4,0,0.8-0.1,1.1-0.1c-1.7-3.6-5.2-4.2-7.9-6.7C139.2,82.1,138.6,82.7,139,83.1L139,83.1z"/>
		</g>
	</g>
	<g>
		<g>
			<path d="M135.1,91.2c0,0.5,0,1,0,1.6c0,0.7,1.1,0.7,1,0c0-0.6-0.1-1.1-0.3-1.7C135.7,90.7,135.1,90.8,135.1,91.2L135.1,91.2z"/>
		</g>
	</g>
	<g>
		<g>
			<path d="M136.6,91.9c0,0.4,0,0.8,0.2,1.2c0.2,0.6,1.2,0.4,1-0.3c-0.1-0.3-0.2-0.7-0.3-1C137.3,91.3,136.7,91.4,136.6,91.9
				L136.6,91.9z"/>
		</g>
	</g>
	<g>
		<g>
			<path d="M126.5,62c6.6-0.7,13.3-1.6,19.9-2.1c5.5-0.4,13.3-1.2,18.6,0.6c0.8,0.3,1.2-1,0.4-1.3c-5.1-1.7-11.9-0.9-17.2-0.7
				c-7.3,0.3-14.7,1.2-21.8,2.8C126,61.3,126.1,62,126.5,62L126.5,62z"/>
		</g>
	</g>
	<g>
		<g>
			<path d="M126.5,61.8c0.2,4.1,2.8,7.8,6.9,8.7c2.6,0.6,5.7-0.3,8.1-1c1.2-0.4,4.6-5.4,5.7-3.9c2.7,3.8,5.3,4.8,10.3,3.9
				c5.8-1.1,7.5-4.6,8.2-10.2c0.1-0.5-0.7-0.6-0.8-0.1c-0.2,1.4-0.4,2.7-0.7,4c-1.1,4.7-5.8,5.5-9.8,5.6c-3.3,0-5.3-2.2-7-4.6
				c-0.2-0.3-0.6-0.5-1-0.6c-1.4-0.4-2.1,1.5-2.6,2.4c-2.2,4.2-9.9,5-13.4,2.2c-1.7-1.4-2.9-4.3-3.2-6.4
				C126.9,61.5,126.5,61.5,126.5,61.8L126.5,61.8z"/>
		</g>
	</g>
</g>
<g>
	<path class="st26" d="M268.6,175.2c-0.6-0.7-1.1,2.3,2.2,3.2c3.3,1,12.3,2.3,13.3-1.3c0,0-7.8-0.5-11-0.9
		C269.8,175.9,269.1,175.9,268.6,175.2z"/>
	<path class="st26" d="M257.2,174.5c-1.5,0.5-8.1,2.5-10.9,2.5s-5,0-5,0s-0.8,1.9,1.2,2.4s5.9,0.5,8.5-0.3
		C254.3,178.2,257.2,176.7,257.2,174.5z"/>
	<path class="st2" d="M257,174.7l0.1-1.2c0,0-5.4-2-9.2-1.3s-6.2,2.4-6.6,4.9C246.3,177.4,252.7,176.2,257,174.7z"/>
	<path class="st2" d="M268.6,175.2c1.5,0.8,5,1.2,15.6,2c-0.5-2.3-2.5-6-7.1-5.1C272.5,173.1,269.7,174.1,268.6,175.2z"/>
	<path class="st2" d="M252.8,91.8c-0.8,3.2,0.3,6.9,1.7,10.1c1.4,3.2,1.4,7.6,1.4,12.4c0,4.8,0.2,17.4-0.1,21.8
		c-0.3,4.4-0.6,7.9-0.8,9.1s-0.6,1.9-2.6,1.7c-2-0.2-4.3-1.2-5-1.5c-0.7-0.3-0.8-0.6-0.8-3c0-2.4,0.2-16.5,0.3-23.3
		c0.1-6.8-1.1-17.4,5.4-28.4L252.8,91.8z"/>
	<path class="st2" d="M272.6,91.8c0,3-5.8,11.1-7.1,12.3s-1,3.3-1.1,5.6c-0.1,2.3-0.5,15.7-0.8,21.7c-0.3,6-0.4,14.6-0.1,15.7
		c0,0,11.4,0.3,14.3-1.3c0,0,1-23.2,0.9-28.4c-0.1-5.2-0.3-20.5-3.6-27.6L272.6,91.8z"/>
	<path class="st19" d="M256.9,96.4c0,0,8.3,3.2,11.3-2.6l4.2-1.1c-0.2,2.7-5.8,10.6-6.8,11.4c-1,0.8-1.5,2.2-1.4,5
		c0.1,2.8-0.1,20-0.4,24.3c-0.3,4.3-0.5,7.3-0.5,7.3s-5.5,1.1-7.7-0.3c0,0,0.5-21.7,0.3-27c-0.3-5.4-0.6-9.7-0.6-9.7
		c-0.2-1.4-2.1-4.4-2.4-5.4c-1.1-3.8,0-7.3,0-7.3l1,0.8C253.9,91.7,252.5,93.8,256.9,96.4z"/>
	<path class="st24" d="M257.8,122.6c0,0-1.9,0.6,2-18.6l-1.7-2.2l2.9-3.2l1.5,2.8c0,0-1.4,2.6-1.9,2.7c0,0,1.3,12.4,0,18.5
		c-0.5,2.1-1.5,3.1-1.5,3.1S258.4,124.3,257.8,122.6z"/>
	<path class="st15" d="M263.5,56.8c14.7-0.4,22.8,10,21.4,18.6s-7.3,16.2-16.7,18.1c-0.9,2.3-3.2,4.7-7.3,4.3
		c-4.1-0.4-7.3-3.6-7.8-6.2c-7.3-3.6-11.6-12.1-11-18.3C242.8,67.1,247.4,57.2,263.5,56.8z"/>
	<path class="st27" d="M283.2,80.5c3.4,1.6,6.5,1.8,8.2,1.3c0,0-3.2-2.7-4.5-4.3c0,0,5.4,0.1,6.9-1.7c0,0-5.4-1.5-6.6-3.4
		c-1.2-1.9-0.3,0.1-0.3,0.1s7.6-5.4,8.5-10.8c0,0-6.9,2.4-9.9,0.4c0,0,3.7-1.8,2.7-6.4c0,0-8.2,4-14.9,3.3c0,0-5.4-3-7.2-5.4
		c-1.8-2.4-5.5-8.5-5.5-8.5s-6.5,3.9-6,9.8c0,0-2.9-2.2-3.8-3.3c-0.9-1.1-2.9-3.6-3.8-3.6c-0.9-0.1-1.5,2.6-1,4.5
		c0.4,1.9,2.6,6.8,2.6,6.8s-10.1-0.5-14.5-2.6c0,0,4.6,6.1,10.5,7.7c0,0-9.1,2.9-10.8,3.6c0,0,5.6,1.6,7.1,3.3c0,0-4.2,3.8-5.5,4.6
		c0,0,3.4,0.8,4.3,2c0,0-1.8,2.4-1,3.3c0.8,0.9,3.6,0.1,4.8-0.1c-2.4-4.9-1.7-12.4,3.1-16.8s12.3-7.3,19.7-6.5
		c7.4,0.8,14.3,3.5,16.6,9.9C285.1,73.9,283.9,78.5,283.2,80.5z"/>
	<path class="st28" d="M253.4,66.9c-2.5,0-6.6,2.7-6.1,6.1s4.1,5.5,7,5.7c2.9,0.1,7.2-2.2,7.1-5.7S259.5,66.8,253.4,66.9z"/>
	<path class="st28" d="M264.4,71.5c0.2,3,2.9,6.4,6.1,6.4c3.2,0,6.9-2.7,6.8-5.1c-0.1-2.4-1.8-5.4-5.2-6.2
		C268.6,65.9,264,66.4,264.4,71.5z"/>
	<path class="st25" d="M256.1,141.2c1.3,9.6-0.5,25.2-0.6,32.1"/>
	<path class="st25" d="M268.8,147.2c0.7,9.5-0.3,18.2,0.4,27.6"/>
	<g>
		<g>
			<path d="M257.1,173.1c-4.4-1.5-8.8-2.3-13-0.2c-2.3,1.2-4.1,3.8-3,6.3c0.4,0.8,1.9,0.9,2.6,1c2.7,0.3,5.3,0,7.9-0.7
				c2.6-0.7,6.8-2.4,6-5.8c-0.1-0.5-0.8-0.4-0.9,0.1c-0.4,5.2-9.3,5.4-13.1,5.2c-0.4-1-0.9-2.1-1.3-3.1c0.6-0.9,1.3-1.5,2.2-2
				c1.3-0.8,2.9-1,4.3-1.2c2.7-0.3,5.4,0.6,8,1.3C257.4,174,257.6,173.3,257.1,173.1L257.1,173.1z"/>
		</g>
	</g>
	<g>
		<g>
			<path d="M268.5,175.4c4-2.3,11.2-4.8,14.5-0.2c0.1,2.7-1,3.9-3.3,3.5c-1.1,0.1-2.3,0.1-3.4,0c-1.5,0-2.9-0.4-4.3-0.7
				c-0.4-0.1-0.7-0.2-1.1-0.3c-1.8-0.2-1.8-1.2-0.2-3c0.4-0.1,0.3-0.8-0.1-0.8c-2.3,0.3-4.5,2.9-1.5,4.5c3.6,1.9,10.2,2.6,13.9,0.7
				c3.2-1.6,1-4.9-1.1-6.5c-3.5-2.6-10.6-0.1-13.6,2.1C267.9,175,268.1,175.6,268.5,175.4L268.5,175.4z"/>
		</g>
	</g>
	<g>
		<g>
			<path d="M269.1,175.9c1.8,0.7,3.7,0.7,5.6,0.8c3,0.3,6,0.5,9,0.6c0.4,0,0.4-0.5,0-0.6c-4.5-0.3-10.1,0.1-14.4-1.4
				C268.9,175.3,268.7,175.8,269.1,175.9L269.1,175.9z"/>
		</g>
	</g>
	<g>
		<g>
			<path d="M241.1,177.3c5.4,0.7,10.7-0.8,15.9-2.3c0.4-0.1,0.2-0.7-0.2-0.6c-5.2,1.5-10.2,2.7-15.7,2.4
				C240.9,176.8,240.9,177.2,241.1,177.3L241.1,177.3z"/>
		</g>
	</g>
	<g>
		<g>
			<path d="M245.5,173.4c0.7,0.3,1.3,0.6,1.4,1.5c0.1-0.1,0.3-0.2,0.4-0.3c-0.9-0.4-1,1.1,0,1c0.9-0.1,0.6-1.5-0.3-1.3
				c-0.4,0.1-0.2,0.6,0.2,0.6c0,0.1-0.1,0.1-0.1,0.2c0.2,0.1,0.5-0.1,0.4-0.3c-0.2-0.8-0.9-1.8-1.8-1.7
				C245.4,173,245.3,173.3,245.5,173.4L245.5,173.4z"/>
		</g>
	</g>
	<g>
		<g>
			<path d="M247.6,172.6c0.7,0.4,1.2,0.9,1.5,1.6c0.1-0.1,0.2-0.2,0.4-0.4c-0.3,0-0.5,0-0.7,0.3c-0.1,0.2,0,0.6,0.2,0.7
				c0.6,0.3,1.2-0.3,0.8-0.9c0-0.1-0.2-0.1-0.3-0.1c-0.1,0-0.2,0-0.3,0c-0.3,0-0.4,0.5-0.1,0.5c0.1,0,0.3,0,0.4,0.1
				c-0.1,0-0.2-0.1-0.3-0.1c0,0,0,0.1,0,0.1c0.2,0,0.5-0.1,0.4-0.4c-0.4-0.8-0.9-1.6-1.8-1.9C247.5,172,247.3,172.4,247.6,172.6
				L247.6,172.6z"/>
		</g>
	</g>
	<g>
		<g>
			<path d="M249.6,172.3c0.3,0.2,0.5,0.5,0.8,0.8c0.1,0.1,0.2,0.3,0.3,0.4c0.1,0.1-0.1,0.2-0.1,0.3c-0.1,0.4,0.1,0.8,0.5,0.9
				c0.3,0.1,0.9-0.2,0.8-0.6c-0.1-0.4-0.6-0.6-0.9-0.4c-0.3,0.2,0,0.7,0.3,0.5c0,0,0,0,0.1,0c0-0.1,0.1-0.2,0.1-0.3
				c-0.2,0-0.2-0.1-0.1-0.2c0-0.1,0.1-0.2,0.1-0.3c0-0.2-0.1-0.4-0.2-0.6c-0.3-0.5-0.7-0.9-1.1-1.1
				C249.7,171.8,249.4,172.1,249.6,172.3L249.6,172.3z"/>
		</g>
	</g>
	<g>
		<g>
			<path d="M279.5,172.6c-0.7,0.4-1.1,1.1-1.5,1.8c0.1,0,0.3-0.1,0.4-0.1c-0.3-0.1-0.6-0.2-0.9,0c-0.1,0-0.2,0.1-0.2,0.3
				c0,0.4,0.1,0.8,0.7,0.7c0.4-0.1,0.7-0.4,0.6-0.8c-0.1-0.2-0.5-0.3-0.5,0c0,0.2-0.1,0.3-0.3,0.2c0,0.1,0.1,0.2,0.1,0.3
				c0-0.1,0-0.2,0-0.4c0,0.1-0.1,0.2-0.1,0.2c0.2-0.1,0.4-0.1,0.5,0c0.1,0,0.3,0,0.3-0.1c0.3-0.7,0.8-1.2,1.2-1.7
				C279.9,172.8,279.7,172.5,279.5,172.6L279.5,172.6z"/>
		</g>
	</g>
	<g>
		<g>
			<path d="M277.8,171.9c-1,0.3-1.7,1.3-1.9,2.2c0.1-0.1,0.3-0.1,0.4-0.2c-0.4-0.2-0.7-0.1-1.1,0.1c-0.3,0.3,0.1,0.9,0.4,1
				c0.9,0.4,1.3-1.1,0.4-1.1c-0.3,0-0.4,0.4-0.1,0.5c0.1-0.1,0.2-0.1,0.3,0c0.1,0,0.3-0.1,0.4-0.2c0.1-0.9,0.7-1.5,1.5-1.9
				C278.3,172.3,278.1,171.9,277.8,171.9L277.8,171.9z"/>
		</g>
	</g>
	<g>
		<g>
			<path d="M275,172.3c-0.3,0-0.5,0.1-0.6,0.4c-0.3,0.4-0.5,0.9-0.7,1.3c0.1,0,0.2-0.1,0.3-0.1c-0.8-0.2-1.4,0.8-0.6,1.2
				c0.7,0.4,1.2-1.1,0.3-1.1c-0.4,0-0.4,0.7,0,0.6c0-0.1,0.1-0.1,0.1-0.2c0.1,0,0.3,0,0.3-0.1c0.1-0.2,0.2-0.4,0.3-0.7
				c0.1-0.1,0.3-0.8,0.5-0.8C275.3,172.8,275.3,172.4,275,172.3L275,172.3z"/>
		</g>
	</g>
	<g>
		<g>
			<path d="M274.9,91.1c1.1,4.5,2.5,8.8,2.9,13.5c0.5,5.5,0.2,11,0.1,16.5c-0.1,8-1.8,16.5-1,24.4c0.1,0.7,1.2,1,1.3,0.2
				c1.5-7.8,1.1-16.7,1.1-24.6c0-6.1,0-12.2-0.6-18.3c-0.4-4.1-1.9-8-3-12C275.6,90.3,274.7,90.6,274.9,91.1L274.9,91.1z"/>
		</g>
	</g>
	<g>
		<g>
			<path d="M277.5,145.7c-2.2,0.2-4.5,0.4-6.7,0.6c-2.1,0.2-4.6,0.6-6.7,0.2c-0.9-0.2-1.2,1.1-0.4,1.3c2,0.4,4.1,0,6.1-0.1
				c2.6-0.2,5.2-0.5,7.8-1.1C278.1,146.5,278,145.7,277.5,145.7L277.5,145.7z"/>
		</g>
	</g>
	<g>
		<g>
			<path d="M252.5,91.3c-1.3,3.7-0.1,7.3,1.4,10.8c1.5,3.5,1.7,7.3,1.4,11c-0.3,4.3-0.1,8.6,0,12.8c0.1,3.2,1.4,20.9-4,20
				c-5.9-1-3.9-11.4-3.8-15.9c0-4.1,0.1-8.2,0.2-12.4c0.1-9.2,0.2-18.5,5.1-26.7c0.3-0.5-0.5-0.9-0.8-0.5
				c-5.2,8.4-5.3,17.6-5.6,27.1c-0.1,4.9-0.2,9.8-0.2,14.7c-0.1,3.9-0.1,7.8,0,11.7c0,1,0.5,1.7,1.5,2.1c4.7,1.8,8,2.7,8.3-2.8
				c0.5-7.3,0.7-14.4,0.6-21.7c-0.1-5.2,0.4-10.4-0.2-15.6c-0.6-5-4.5-9.1-2.9-14.5C253.6,91,252.7,90.7,252.5,91.3L252.5,91.3z"/>
		</g>
	</g>
	<g>
		<g>
			<path d="M271.9,92.6c-0.7,2.7-2.4,5.1-3.9,7.4c-1.1,1.7-4,3.5-4.2,5.8c-0.3,3.6-0.3,7.2-0.4,10.7c-0.3,10.3-1,20.6-0.6,30.9
				c0,0.8,1.2,0.8,1.2,0c-0.3-9.9,0.3-19.9,0.6-29.8c0.1-3.4,0.2-6.9,0.2-10.3c0-2.4,3.4-5.7,4.8-7.7c1.4-2.1,2.7-4.2,3.3-6.7
				C272.9,92.3,272.1,92.1,271.9,92.6L271.9,92.6z"/>
		</g>
	</g>
	<g>
		<g>
			<path d="M273.5,92.7c0.1,1.6,0,3.2-0.2,4.7c-0.3,2.6-1.4,4.9-2,7.4c0.4,0,0.7-0.1,1.1-0.1c-0.8-1.3-1.7-1.6-2.9-2.4
				c-0.3-0.2-0.7,0.2-0.5,0.5c0.7,1,1.8,1.4,2.4,2.5c0.2,0.5,1,0.4,1.1-0.1c1-4.2,2.2-8,1.6-12.4C274.1,92.3,273.5,92.3,273.5,92.7
				L273.5,92.7z"/>
		</g>
	</g>
	<g>
		<g>
			<path d="M269,103.1c-0.2,1.6,0.2,3.1-0.6,4.7c0.2-0.1,0.4-0.2,0.6-0.2c-0.2-0.1-0.4-0.4-0.5-0.6c-0.2-0.2-0.5-0.4-0.8-0.6
				c-0.7-0.5-1.6-0.8-2.3-1.2c-0.7-0.4-1.3,0.7-0.6,1c0.8,0.4,1.6,0.7,2.4,1.1c0.6,0.3,0.9,1,1.6,1.2c0.2,0.1,0.5,0,0.6-0.2
				c0.7-1.5,0.9-3.6,0.3-5.2C269.6,102.9,269.1,102.8,269,103.1L269,103.1z"/>
		</g>
	</g>
	<g>
		<g>
			<path d="M268,93.6c-3,6.1-10.8,4.2-13.9-0.7c-0.2-0.3-0.7-0.1-0.5,0.2c2.4,6,12.1,6.8,14.8,0.7C268.4,93.6,268.1,93.4,268,93.6
				L268,93.6z"/>
		</g>
	</g>
	<g>
		<g>
			<path d="M269.6,93.3c-1,0.9-1.7,2.6-2.5,3.7c-0.9,1.4-1.9,2.6-3.1,3.7c-1.6,1.6-2.3-1.6-2.9-2.5c-0.1-0.2-0.4-0.2-0.5-0.1
				c-0.7,0.8-1.4,1.6-2.1,2.4c-1.1,1.3-2.2-1.5-2.6-2.3c-0.8-1.5-1.4-3.2-1.9-4.8c-0.1-0.3-0.6-0.3-0.5,0.1c0.3,2.8,2,6.6,4.3,8.3
				c0.1,0.1,0.4,0.2,0.5,0c0.7-0.8,1.4-1.6,2-2.5c0.9-1.1,2.1,3,2,2.7c0.1,0.2,0.3,0.3,0.4,0.2c1.7-1.2,3-2.6,4.1-4.3
				c1-1.3,1.7-3.3,2.8-4.5C270,93.4,269.8,93.1,269.6,93.3L269.6,93.3z"/>
		</g>
	</g>
	<g>
		<g>
			<path d="M262.3,101.1c-0.4,0.8-0.9,1.6-1.4,2.3c-0.5,0.6-1.1-0.5-1.4-0.8c-0.4-0.4-0.7-0.9-1.1-1.3c-0.2-0.3-0.7,0.1-0.5,0.4
				c0.5,0.7,1,1.3,1.5,1.9c0.3,0.3,0.7,0.8,1.2,0.6c1.1-0.3,1.7-2,2.1-3C262.8,101,262.4,100.8,262.3,101.1L262.3,101.1z"/>
		</g>
	</g>
	<g>
		<g>
			<path d="M260.5,104.3c0.9,6.5,2.2,15.3-1.5,21.3c-0.2,0.4,0.3,0.6,0.5,0.3c4.2-5.5,2.4-15.5,1.4-21.7
				C260.9,103.9,260.4,104,260.5,104.3L260.5,104.3z"/>
		</g>
	</g>
	<g>
		<g>
			<path d="M259.6,104.4c-1.5,6.5-4.5,14.7-1,20.9c0.2,0.3,0.6,0.1,0.5-0.2c-1-2.9-1.7-4.7-1.4-7.8c0.4-4.3,1.5-8.6,2.2-12.8
				C260.1,104.2,259.7,104.1,259.6,104.4L259.6,104.4z"/>
		</g>
	</g>
	<g>
		<g>
			<path d="M274.6,111.1c-0.1,0.2-0.1,0.4-0.2,0.6c-0.2,0.5-0.7-0.4-0.8-0.5c-0.3-0.3-0.2-0.2-0.6-0.3c0,0-0.1,0-0.1,0.1
				c-0.1,0.2-0.5,0-0.6,0c-0.1,0-0.1,0-0.1,0.1c-0.2,0.5-0.8,0.2-1.3,0.2c-0.2,0-0.7-0.1-0.8-0.1c-0.3,0.1,0.8,0.6-0.8,0.2
				c-0.2,0-0.2,0.2-0.1,0.2c0.2,0.1,0.4,0.1,0.6,0c0.7-0.3,1.5-0.1,2.3,0c0.1,0,0.1,0,0.1-0.1c0.1-0.3,0.2-0.3,0.6-0.2
				c0,0,0.1,0,0.2,0c0.4-0.4,0.9,0.7,1.5,0.7c0.1,0,0.1,0,0.1-0.1c0.1-0.3,0.2-0.6,0.3-0.9C274.9,111.1,274.7,111,274.6,111.1
				L274.6,111.1z"/>
		</g>
	</g>
	<g>
		<g>
			<path d="M275.9,109c-2.5-0.1-5,0.2-7.5,0.4c-0.7,0-0.7,1.1,0,1c2.5-0.2,5.1-0.2,7.7-0.6C276.5,109.8,276.4,109,275.9,109
				L275.9,109z"/>
		</g>
	</g>
	<g>
		<g>
			<path d="M276.2,112.7c-1.2-0.2-2.5,0.3-3.8,0.3c-1.4,0.1-2.8,0-4.2,0.2c-0.4,0.1-0.3,0.7,0.1,0.7c1.4,0.1,2.8-0.1,4.1-0.2
				c1.2-0.1,2.5-0.5,3.7-0.5C276.6,113.4,276.6,112.7,276.2,112.7L276.2,112.7z"/>
		</g>
	</g>
	<g>
		<g>
			<path d="M267.9,110.5c0.3,1,0.2,2,0.1,3c-0.1,0.5,0.7,0.6,0.7,0.1c0.1-1.1,0.2-2.2-0.2-3.3C268.4,109.9,267.8,110.1,267.9,110.5
				L267.9,110.5z"/>
		</g>
	</g>
	<g>
		<g>
			<path d="M275.8,109.7c0,1.1,0,2.2,0,3.2c0,0.5,0.8,0.5,0.8,0c0-1.1,0-2.2,0-3.2C276.6,109.2,275.8,109.2,275.8,109.7L275.8,109.7
				z"/>
		</g>
	</g>
	<path class="st29" d="M274.9,91.2c3.4,4.3,7.3,13.9,7.5,14.3c1.3,3.3,2.3,7.3,2.9,8.9c0.6,1.6,1,3.1,0.8,3.6c0,0-0.4,6.1-1.1,9.8
		c-0.8,3.6-1.7,7.1-1.7,7.1"/>
	<g>
		<g>
			<path d="M262.8,140.3c-2.2,0-4.6,0.4-6.7,0c-0.7-0.1-1,0.9-0.3,1.1c2.2,0.6,4.9,0.2,7.1-0.2C263.4,141.1,263.3,140.3,262.8,140.3
				L262.8,140.3z"/>
		</g>
	</g>
	<g>
		<g>
			<path d="M250.8,93.6c-0.5,3.3-1.2,6.6-1.3,9.9c0,0.2,0.2,0.5,0.5,0.5c0.9-0.1,2-0.1,2.9-0.4c0.5-0.1,0.4-1-0.1-0.9
				c-0.9,0.1-1.8,0.3-2.7,0.4c0.2,0.2,0.3,0.3,0.5,0.5c-0.1-3.3,0.8-6.6,1.2-9.8C251.7,93.3,250.9,93.1,250.8,93.6L250.8,93.6z"/>
		</g>
	</g>
	<g>
		<g>
			<path d="M255.5,105.7c-1.7,0.5-3.1,1.5-4.5,2.5c0.2,0.1,0.5,0.2,0.7,0.3c-0.6-1.5,0.6-3.3,1.3-4.6c0.3-0.6-0.6-1.1-0.9-0.5
				c-0.8,1.5-2,3.6-1.3,5.3c0.1,0.3,0.4,0.5,0.7,0.3c1.4-1,2.7-2,4.3-2.5C256.3,106.4,256,105.6,255.5,105.7L255.5,105.7z"/>
		</g>
	</g>
	<path class="st29" d="M252.2,91.1c-2.7,3.9-5.3,7.5-6.5,9.3c-1.2,1.8-4.5,10.1-5.4,11.9s-1.1,3.5-1.1,3.5s0,8.8,0.6,11.5
		s1.5,6.3,1.5,6.3"/>
	<g>
		<g>
			<path d="M247.1,110.1c0.6,0.5,1.3,0.6,2,0.8c0.5,0.1,1.1,0.2,1.6,0.2c0.6,0.1,1.5-0.2,1.3,0.4c-0.4,1.5-0.5,3-0.6,4.5
				c-0.1,0.7-0.9,1.3-1.3,1.8c-0.5,0.6-0.9,1.3-1.4,2c0.3,0,0.6,0.1,0.8,0.1c-0.5-1.1-1.1-2.1-1.7-3.1c-0.2-0.4-0.9-0.1-0.7,0.3
				c0.4,1.1,1.1,2,1.5,3.1c0.1,0.4,0.6,0.5,0.8,0.1c0.5-0.8,1-1.6,1.6-2.4c0.3-0.3,0.9-0.6,1-1c0.5-1.9,0.2-4.1,0.7-6
				c0-0.2-0.1-0.4-0.3-0.4c-1.7,0-3.7,0.1-5.2-0.8C247.1,109.7,246.9,110,247.1,110.1L247.1,110.1z"/>
		</g>
	</g>
	<g>
		<g>
			<path d="M280.5,86.4c7.3-8.7,5.4-23.3-5.7-27.9c-8.8-3.7-20.6-2-27.9,4c-3.2,2.6-5.4,6.8-5.7,10.9c-0.4,6.5,2.5,11,7,15.4
				c7.3,6.9,24.9,8.1,31-0.9c0.4-0.5-0.4-1-0.9-0.7c-7.7,6.6-19.6,6.1-27.9,0.9c-9.1-5.7-11.1-17.4-2.8-24.7c5.7-5,14.6-6,21.8-4.9
				c5.8,0.8,10,4.6,12.7,9.6c3,5.6,0.7,12.9-2.6,17.8C279.5,86.3,280.1,86.8,280.5,86.4L280.5,86.4z"/>
		</g>
	</g>
	<g>
		<g>
			<path d="M255.3,74.6c0.9-0.2,1.6-1,0.8-1.8c-0.6-0.7-1.7-0.6-2.3-0.1c-0.7,0.6-0.4,1.8,0.1,2.4c0.8,0.8,1.9,0.3,2.2-0.7
				c0.2-0.7-0.7-1-1.1-0.5c-0.1,0.1-0.1,0.2-0.2,0.3c0.1-0.1,0.1,0.1,0-0.1c-0.1-0.1-0.2-0.4-0.1-0.5c0-0.1,0.3,0,0.4,0
				c0.2,0.1,0.1,0.1,0.1-0.1c0-0.2,0.1-0.3,0.1-0.2c-0.1,0.1-0.2,0.1-0.3,0.2C254.2,73.7,254.5,74.8,255.3,74.6L255.3,74.6z"/>
		</g>
	</g>
	<g>
		<g>
			<path d="M271.2,73.5c0.3-0.3,0.6-0.7,0.5-1.2c-0.1-0.4-0.5-0.7-0.9-0.7c-0.8,0-1.6,0.7-1.5,1.5c0.1,1,1.2,1.5,2.2,1.4
				c1.1-0.2,1.3-1.4,0.8-2.2c-0.5-0.7-1.5-0.1-1.1,0.7c0,0.1,0.1,0.2,0.1,0.3c0,0,0,0.1,0,0c0-0.1,0.1-0.1,0-0.1
				c-0.1,0-0.4,0-0.6-0.2c-0.1-0.1,0-0.1,0.1-0.1c0.2-0.1-0.1,0,0.1,0c0,0,0,0-0.1,0c0.1,0,0.1,0-0.1-0.1c0,0-0.1-0.2-0.1-0.3
				c0,0.1-0.1,0.2-0.2,0.3C269.9,73.3,270.7,73.9,271.2,73.5L271.2,73.5z"/>
		</g>
	</g>
	<g>
		<g>
			<path d="M253.5,83.5c0.3-0.4,0.6-0.8,1.1-1.1c-0.3-0.1-0.6-0.2-1-0.3c0.4,2.8,3.6,3,5.9,3.2c4.2,0.3,8.5,0.4,12-2.2
				c0.6-0.4,0.1-1.4-0.6-1c-2.8,1.4-14.4,3.7-16.2-0.5c-0.2-0.4-0.7-0.4-0.9-0.1c-0.6,0.6-0.6,0.6-1,1.3
				C252.4,83.3,253.1,83.9,253.5,83.5L253.5,83.5z"/>
		</g>
	</g>
	<g>
		<g>
			<path d="M256.9,70.3c-2.2-0.6-4.7-0.4-5.9,1.7c-0.3,0.4,0.4,0.8,0.7,0.4c1.3-1.8,3.1-1.9,5.2-1.6
				C257.1,70.8,257.2,70.3,256.9,70.3L256.9,70.3z"/>
		</g>
	</g>
	<g>
		<g>
			<path d="M268.4,69.6c2.1,0.3,4.1,0.5,5.5,2.2c0.3,0.4,0.8-0.1,0.6-0.5c-1.1-2.1-4-2.2-6.1-2.2C268.1,69.1,268.1,69.6,268.4,69.6
				L268.4,69.6z"/>
		</g>
	</g>
	<g>
		<g>
			<path d="M256.7,67.1c-3.2-1.6-7.3-0.2-9.3,2.7c-2.7,4,1.1,7.7,4.6,8.9c3.8,1.2,8.1,0,9.4-4c1.1-3.4-1-7.9-4.8-7.9
				c-0.3,0-0.4,0.5-0.1,0.6c3.4,0.7,4.5,3.9,3.8,7.1c-0.8,3.8-5.2,3.9-8.1,3.2c-3.8-0.9-6.1-4.8-3.3-8.1c1.8-2.2,5-2,7.5-1.8
				C256.9,67.7,257,67.2,256.7,67.1L256.7,67.1z"/>
		</g>
	</g>
	<g>
		<g>
			<path d="M273.4,67c-2.6-2.1-6.9-1.6-8.8,1.2c-2.2,3.2,0.3,8.3,3.6,9.7c3.2,1.3,7,0,8.8-2.9c2.3-3.7-0.9-6.9-3.9-8.7
				c-0.5-0.3-0.8,0.4-0.4,0.7c2.3,1.7,4.6,3.6,3.5,6.8c-0.8,2.6-3.9,3.9-6.5,3.5c-3.3-0.5-5.3-4.1-4.9-7.3c0.5-3.7,5.6-4.3,8.2-2.7
				C273.4,67.4,273.6,67.1,273.4,67L273.4,67z"/>
		</g>
	</g>
	<g>
		<g>
			<path d="M261.2,72.5c0.7,0.1,1.4,0.2,2.1,0.4c0.6,0.2,0.9-0.8,0.3-1c-0.7-0.3-1.6-0.2-2.4-0.1C260.8,71.9,260.8,72.5,261.2,72.5
				L261.2,72.5z"/>
		</g>
	</g>
	<g>
		<g>
			<path d="M277.3,73.1c1.9,0.7,4.8,1.4,6.8,0.9c0.5-0.1,0.5-1,0-1.1c-1-0.2-2-0.1-3-0.1c-1.2,0-2.4-0.1-3.6-0.3
				C277,72.4,276.9,72.9,277.3,73.1L277.3,73.1z"/>
		</g>
	</g>
	<g>
		<g>
			<path d="M247,73.3c-1.9-0.2-3.8-0.5-5.5,0.6c-0.7,0.5-0.1,1.4,0.6,1.1c1.6-0.7,3.3-0.5,5-1C247.5,73.9,247.4,73.4,247,73.3
				L247,73.3z"/>
		</g>
	</g>
	<g>
		<g>
			<path d="M283.2,81c2.9,1.4,5.8,1.5,9,1.5c0.5,0,0.7-0.7,0.3-1c-2.3-1.3-3.8-3-5.4-5c-0.2,0.3-0.4,0.6-0.5,0.9
				c3,1,5.6,0.1,8.1-1.6c0.4-0.3,0.2-0.8-0.2-0.8c-0.4,0-7.6-1.8-5.9-3.4c1.3-1.2,2.6-2.3,3.8-3.4c2-1.9,3.1-4.2,3.7-6.9
				c0.1-0.4-0.3-0.7-0.7-0.5c-2.8,1.4-5.6,1.7-8.7,1.1c0.1,0-0.2,0.3,0.9-0.7c1.4-1.2,1.3-3.8,1.2-5.5c0-0.4-0.4-0.6-0.7-0.4
				c-4.4,2-8.6,3.2-13.5,2.9c-0.6,0-0.6,0.9,0,0.9c3.2,0.2,6.1-0.1,9.2-1c1.1-0.3,2.3-0.8,3.3-1.3c2.9-1.3-1.3,4.5-1.7,4.6
				c-0.5,0.2-0.5,0.8,0,1c3.1,1.3,6.2,1,9.3-0.2c0.5-0.2-2.4,4.7-3,5.4c-1.4,1.6-3.2,2.9-4.7,4.4c-0.2,0.2-0.2,0.5,0,0.6
				c1.1,1.2,2.5,2.1,4.1,2.6c0.8,0.2,1.7,0.6,2.5,0.7c-3.7-0.5-2,2.2-6.7,0.6c-0.6-0.2-0.8,0.5-0.5,0.9c1.2,1.5,2.5,3.5,4.3,4.4
				c-1.3-0.7-5.1-0.5-7.2-1.2C283.1,80.4,282.9,80.9,283.2,81L283.2,81z"/>
		</g>
	</g>
	<g>
		<g>
			<path d="M272.5,57.8c-5.5-2.6-8.3-8.4-11.5-13.1c-0.2-0.2-0.5-0.3-0.7-0.2c-3.5,2-6.9,7-5.9,11.1c0.3-0.1,0.6-0.3,0.9-0.4
				c-1.1-1.5-2.5-2.5-3.9-3.7c-1.6-1.5-2.4-3.2-4.5-4.1c-0.2-0.1-0.5,0-0.6,0.2c-1.1,3.8-0.8,6.9,1.1,10.4c0.6,1.1-5.5-0.1-6.4-0.2
				c-2.5-0.4-5-1.1-7.3-2.2c-0.4-0.2-0.9,0.2-0.6,0.6c1.9,2.7,4.8,5.1,7.5,7c0.4,0.2,0.7,0.3,1.1,0.5c0.9,0.3,2.8,0.2,1.4,0.7
				c-3.2,1.2-6.7,1.7-9.9,2.9c-0.4,0.2-0.4,0.7,0,0.9c1.5,0.6,3,1.1,4.6,1.6c2,0,2.6,0.6,1.7,1.8c-1.6,1.3-2.9,2.7-4.7,3.8
				c-0.4,0.3-0.2,0.8,0.2,0.9c8.2,0.9,1.3,1.8,3.1,4.8c0.7,1.3,3.4,0.7,4.5,0.6c0.6-0.1,0.6-1,0-0.9c-1.9,0.2-3.5-0.9-2.3-3
				c0.1-0.2,0.1-0.5-0.2-0.6c-1.1-0.7-2.5-1.5-3.8-1.6c1.2,0.1,4.1-3.4,5-4.2c0.2-0.2,0.1-0.6-0.1-0.7c-2-1.4-4.4-2-6.8-2.8
				c0.8,0.3,3.2-0.9,3.9-1.1c2.2-0.6,4.4-1.1,6.5-1.9c0.5-0.2,0.4-0.7,0-0.9c-2.4-0.9-4.4-1.7-6.4-3.4c-0.8-0.6-6.1-4.2-3-3
				c4.1,1.5,8.9,2.1,13.3,2.2c0.3,0,0.6-0.4,0.4-0.7c-0.9-1.2-1.6-2.5-2.1-3.8c-0.2-0.5-1.6-8.3,1.5-5.8c1.8,1.5,4.7,4.6,5.9,6.5
				c0.3,0.5,1.1,0.2,0.9-0.4c-0.7-3.1,1.5-6.1,3.4-8.3c2.2-2.6,4.5,3.3,5.6,4.8c1.9,2.6,4.9,5.5,8,6.4
				C272.6,58.3,272.7,57.9,272.5,57.8L272.5,57.8z"/>
		</g>
	</g>
	<g>
		<g>
			<path class="st30" d="M279.5,126.5c2-0.9,5.8-2.1,9.2,0.1c-2.6,4.9-4.4,7.6-3.9,10.3c0.4,2.7,0.8,5-1.1,5.6
				c-1.9,0.6-3.7-1.1-4.1-3.3s1.2-3.9,1.7-6.5S281.3,128.2,279.5,126.5z"/>
		</g>
		<g>
			<g>
				<g>
					<path d="M279.5,127c3.4,4.3-0.8,8.3-0.3,12.9c0.2,1.6,1.6,3.4,3.4,3.3c2.2-0.2,2.8-1.6,2.8-3.7c0-0.6-0.2-1.3-0.4-1.8
						c-0.5-2,0-3.3,0.8-5.1c0.8-1.9,1.8-3.6,2.7-5.4c0.2-0.4-0.3-0.8-0.6-0.5c-1.5,1.9-2.4,4.1-3.3,6.3c-1.1,2.6-0.5,3.9-0.2,6.5
						c-1.8,3.5-3.2,3.4-4.4-0.4c0-0.8,0-1.6,0.2-2.4c0.3-1.8,1.2-3.4,1.5-5.2c0.4-2-0.6-3.7-1.8-5.1
						C279.8,126,279.2,126.6,279.5,127L279.5,127z"/>
				</g>
			</g>
			<g>
				<g>
					<path d="M280.4,126.2c2.4-0.9,5.2-0.6,7.3,0.8c0.6,0.4,1.2-0.6,0.6-0.9c-2.4-1.4-5.5-1.5-8.1-0.5
						C279.8,125.7,280,126.4,280.4,126.2L280.4,126.2z"/>
				</g>
			</g>
		</g>
	</g>
	<g>
		<g>
			<path class="st30" d="M235.3,126.5c1.8-1.3,5.1-3.5,8.8-2.1c-2,6.9-1.6,8.1-0.4,11.1c1,2.5,1.2,5.3-0.6,6.3c-1.8,1-3.1-0.9-4-3
				c-0.9-2.1-0.5-3.3-0.6-5.9C238.4,130.2,237.5,127.8,235.3,126.5z"/>
		</g>
		<g>
			<g>
				<path d="M235.4,126.9c3.9,3.1,1.8,7.1,3,11.2c0.5,1.5,1.8,4.9,4.1,4.3c1.7-0.5,2.9-2.7,2.5-4.6c-0.4-1.7-1.3-3.2-1.7-4.9
					c-0.7-2.6,0.3-5.4,1-7.9c0.1-0.4-0.5-0.7-0.7-0.3c-0.9,2-1.5,4.4-1.6,6.6c0,1.1,0.5,2.3,0.8,3.4c0.1,0.4,0.2,0.7,0.3,1
					c0.1,0.3,0.3,0.6,0.4,0.9c1.3,3.1,0.2,4.3-3.2,3.6c-2-2.7-1.1-5.9-1.4-8.9c-0.2-2.1-1.3-3.6-3-4.9
					C235.6,126,235.1,126.6,235.4,126.9L235.4,126.9z"/>
			</g>
		</g>
		<g>
			<g>
				<path d="M235.3,126.8c2.2-1.7,5-2.9,7.7-2.1c0.7,0.2,1-0.9,0.3-1.1c-3-0.7-6.1,0.7-8.4,2.6C234.6,126.5,235,127,235.3,126.8
					L235.3,126.8z"/>
			</g>
		</g>
	</g>
</g>
<g>
	<path class="st26" d="M173,223.3c0.7-0.8,1.2,2.5-2.4,3.5c-3.6,1.1-13.5,2.5-14.5-1.4c0,0,8.6-0.6,12.1-1
		C171.7,224.1,172.4,224.1,173,223.3z"/>
	<path class="st26" d="M185.5,222.5c1.6,0.5,8.9,2.7,12,2.8s5.5,0,5.5,0s0.9,2.1-1.3,2.7c-2.2,0.6-6.5,0.6-9.3-0.3
		C188.6,226.6,185.5,224.9,185.5,222.5z"/>
	<path class="st20" d="M185.7,222.7l-0.1-1.3c0,0,5.9-2.2,10.1-1.4c4.2,0.8,6.8,2.7,7.3,5.3C197.4,225.7,190.4,224.4,185.7,222.7z"
		/>
	<path class="st20" d="M173,223.3c-1.6,0.9-5.5,1.3-17.1,2.2c0.5-2.6,2.8-6.6,7.8-5.6C168.7,221,171.8,222,173,223.3z"/>
	<path class="st2" d="M169.7,132.3c-0.9,3.5,0.3,7.6,1.9,11c1.6,3.5,1.6,8.3,1.6,13.6s0.2,19-0.1,23.8c-0.4,4.8-0.7,8.6-0.8,10
		c-0.2,1.4-0.6,2.1-2.8,1.8c-2.2-0.2-4.7-1.3-5.5-1.6c-0.8-0.4-0.9-0.7-0.9-3.3c0-2.6,0.2-18.1,0.3-25.6c0.1-7.5-1.2-19.1,5.9-31.2
		L169.7,132.3z"/>
	<path class="st2" d="M191.4,132.4c0,3.3-6.3,12.2-7.7,13.4c-1.4,1.3-1.1,3.6-1.3,6.2c-0.1,2.5-0.6,17.2-0.8,23.8s-0.4,16-0.1,17.2
		c0,0,12.5,0.3,15.7-1.4c0,0,1.1-25.4,1-31.2c-0.1-5.7-0.3-22.5-4-30.2L191.4,132.4z"/>
	<path class="st31" d="M174.1,137.4c0,0,9.1,3.5,12.4-2.9l4.6-1.2c-0.2,3-6.3,11.6-7.5,12.5c-1.1,0.8-1.7,2.4-1.5,5.5
		c0.1,3.1-0.1,21.9-0.4,26.7s-0.6,8-0.6,8s-6,1.3-8.4-0.3c0,0,0.6-23.8,0.3-29.6s-0.7-10.6-0.7-10.6c-0.2-1.5-2.3-4.9-2.6-5.9
		c-1.2-4.1,0-8,0-8l1.1,0.8C170.9,132.3,169.4,134.5,174.1,137.4z"/>
	<path class="st13" d="M175.1,166.1c0,0-2.1,0.6,2.2-20.4l-1.8-2.4l3.2-3.5l1.7,3.1c0,0-1.5,2.8-2.1,2.9c0,0,1.4,13.6,0,20.3
		c-0.5,2.3-1.6,3.5-1.6,3.5S175.8,168,175.1,166.1z"/>
	<path class="st15" d="M181.4,93.9c16.2-0.4,25,11,23.5,20.4s-8,17.7-18.3,19.8c-1,2.5-3.5,5.2-8,4.7s-8-3.9-8.5-6.8
		c-8-3.9-12.7-13.2-12.1-20C158.7,105.2,163.7,94.4,181.4,93.9z"/>
	<path class="st32" d="M187.2,192.6c-1.4,10.5-0.1,20.9,0,28.6"/>
	<path class="st32" d="M173,186.4c-0.7,10.4,0.2,26.1-0.7,36.4"/>
	<g>
		<g>
			<path d="M185.9,221.8c5.2-1.4,12.2-3,15.9,2.1c2.7,3.8-2.8,3.5-3.9,3.5c-1.6,0-3.1-0.2-4.7-0.5c-2.9-0.6-6.9-1.8-7.2-5.3
				c0-0.5-0.8-0.7-1-0.1c-1.5,6.8,14.3,9.3,18,6.2c2.1-1.8-1-5.6-2.4-6.5c-4.7-3-10-2-15.1-0.3C185.1,221.2,185.3,222,185.9,221.8
				L185.9,221.8z"/>
		</g>
	</g>
	<g>
		<g>
			<path d="M173.4,222.8c-3.2-2.4-10.3-4.9-14.1-2.8c-1.7,0.9-6.2,5.5-2.7,7.2c4.1,2,11.2,2,15.3-0.1c3.3-1.7,2.6-4.8-0.9-5.2
				c-0.5-0.1-0.6,0.7-0.1,0.9c1.7,1.9,1.7,3-0.3,3.3c-1.2,0.4-2.4,0.6-3.7,0.8c-1.9,0.3-12.3,1.4-9.7-3.7c2.8-5.4,12-1.9,15.9,0.3
				C173.5,223.7,173.8,223.1,173.4,222.8L173.4,222.8z"/>
		</g>
	</g>
	<g>
		<g>
			<path d="M172.3,223.5c-4.7,1.7-10.8,1.2-15.8,1.6c-0.4,0-0.4,0.6,0,0.6c2.9-0.1,5.7-0.3,8.6-0.5c2.4-0.2,5.1-0.2,7.4-1
				C172.8,224,172.7,223.3,172.3,223.5L172.3,223.5z"/>
		</g>
	</g>
	<g>
		<g>
			<path d="M203,225c-6,0.2-11.5-1-17.2-2.7c-0.4-0.1-0.6,0.5-0.2,0.6c5.6,1.6,11.5,3.3,17.4,2.5C203.4,225.5,203.3,225,203,225
				L203,225z"/>
		</g>
	</g>
	<g>
		<g>
			<path d="M198.1,220.8c-1-0.1-1.8,1-2,1.9c-0.1,0.3,0.2,0.5,0.5,0.4c0-0.1-0.1-0.2-0.1-0.2c0.4,0.1,0.6-0.5,0.2-0.6
				c-1-0.3-1.4,1.1-0.4,1.4c1,0.3,1.1-1.6,0-1.1c0.2,0.1,0.3,0.2,0.5,0.4c0.1-0.4,0.2-0.8,0.5-1.1c0.3-0.3,0.6-0.4,1-0.6
				C198.5,221.2,198.4,220.9,198.1,220.8L198.1,220.8z"/>
		</g>
	</g>
	<g>
		<g>
			<path d="M195.8,219.9c-0.9,0.4-1.6,1.2-2,2.1c-0.1,0.3,0.2,0.4,0.4,0.4c0,0,0-0.1,0-0.1c-0.1,0.1-0.2,0.1-0.3,0.2
				c0.2,0,0.3,0,0.5-0.1c0.3-0.1,0.2-0.5-0.1-0.6c-0.1,0-0.3,0-0.4,0c-0.1,0-0.2,0.1-0.3,0.2c-0.3,0.5,0.2,1.5,0.9,1
				c0.6-0.4,0.3-1.3-0.5-1.2c0.1,0.1,0.3,0.3,0.4,0.4c0.3-0.8,0.9-1.4,1.6-1.8C196.3,220.2,196.1,219.8,195.8,219.9L195.8,219.9z"/>
		</g>
	</g>
	<g>
		<g>
			<path d="M193.5,219.6c-0.5,0.3-0.8,0.7-1.2,1.1c-0.1,0.2-0.3,0.4-0.3,0.6c0,0.2,0,0.2,0,0.4c0,0,0,0.1,0,0.1
				c0.1,0.1,0.1,0.2-0.1,0.2c0,0.1,0.1,0.2,0.1,0.3c0,0,0,0,0.1,0c0.4,0.2,0.7-0.3,0.3-0.6c-0.4-0.2-0.7-0.1-1,0.2
				c-0.3,0.4,0.3,0.8,0.7,0.8c0.5,0,0.7-0.6,0.6-1c0-0.1-0.2-0.2-0.1-0.4c0.1-0.1,0.2-0.3,0.3-0.4c0.2-0.3,0.6-0.6,0.9-0.9
				C194,219.8,193.7,219.5,193.5,219.6L193.5,219.6z"/>
		</g>
	</g>
	<g>
		<g>
			<path d="M160.8,220.8c0.5,0.6,1,1.1,1.4,1.9c0.1,0.2,0.3,0.2,0.4,0.1c0.2-0.1,0.3-0.1,0.5,0c-0.1-0.1-0.1-0.2-0.2-0.3
				c-0.1,0.2-0.1,0.2,0,0.2c-0.2,0-0.2-0.2-0.2-0.3c-0.1-0.3-0.5-0.3-0.6,0c-0.2,0.4,0.2,0.8,0.6,0.9c0.2,0.1,0.4,0,0.5-0.1
				c0.3-0.2,0.2-0.4,0.2-0.7c0-0.2-0.1-0.2-0.2-0.3c-0.4-0.1-0.7-0.1-1,0c0.1,0,0.3,0.1,0.4,0.1c-0.4-0.7-0.9-1.5-1.6-2
				C160.8,220.3,160.6,220.6,160.8,220.8L160.8,220.8z"/>
		</g>
	</g>
	<g>
		<g>
			<path d="M162.7,220.2c0.9,0.5,1.5,1.1,1.7,2.1c0,0.2,0.2,0.3,0.4,0.2c0.1-0.1,0.2-0.1,0.3,0c0.3-0.2,0.1-0.6-0.2-0.6
				c-1,0-0.6,1.6,0.4,1.2c0.3-0.1,0.6-0.7,0.4-1c-0.2-0.4-0.9-0.4-1.2-0.2c0.2,0.1,0.3,0.1,0.5,0.2c-0.2-1.1-1-2.2-2.1-2.4
				C162.6,219.6,162.4,220,162.7,220.2L162.7,220.2z"/>
		</g>
	</g>
	<g>
		<g>
			<path d="M165.9,220.7c0.2,0,0.4,0.6,0.4,0.7c0.2,0.3,0.3,0.6,0.5,1c0.1,0.1,0.2,0.2,0.4,0.2c0.2,0,0.3,0,0.3,0.1
				c-0.1,0-0.2,0.1-0.2,0.1c0,0,0.1,0,0.1,0c0.5,0,0.5-0.7,0-0.7c-0.9,0-0.6,1.5,0.3,1.2c0.4-0.1,0.5-0.5,0.4-0.9
				c-0.2-0.4-0.6-0.5-1-0.4c0.1,0.1,0.2,0.1,0.4,0.2c-0.3-0.5-0.5-0.9-0.8-1.4c-0.2-0.3-0.4-0.5-0.8-0.4
				C165.6,220.2,165.6,220.7,165.9,220.7L165.9,220.7z"/>
		</g>
	</g>
	<g>
		<g>
			<path d="M189.6,116.6c-0.3-0.1-0.6-0.1-0.8-0.2c-0.1-0.1-0.1,0,0,0c0.1,0.2-0.1,0.2,0.1,0.1c0.4-0.1,0.9,0.1,1.1,0.4
				c0-0.3-0.1-0.6-0.1-0.9c-0.2,0.3-0.4,0.4-0.7,0.4c-0.8,0.2-0.6,1.4,0.2,1.4c0.8,0,1.4-0.4,1.8-1.1c0.2-0.3,0.1-0.7-0.1-0.9
				c-0.9-0.9-2.5-1.3-3.5-0.3c-0.4,0.5-0.4,1.3,0,1.7c0.6,0.5,1.2,0.5,2,0.4C190.2,117.5,190.1,116.7,189.6,116.6L189.6,116.6z"/>
		</g>
	</g>
	<g>
		<g>
			<path d="M173.3,117.3c-0.5-0.2-0.9-0.3-1.2-0.7c0.1,0.2,0.1,0.4,0.2,0.6c0.2-0.9,1.4-0.1,1.8,0.2c0-0.3-0.1-0.6-0.1-0.9
				c-0.2,0.3-0.6,0.1-0.9,0c-1-0.3-1.5,1.3-0.4,1.6c1.1,0.3,2.3,0.2,2.8-1c0.1-0.3-0.1-0.7-0.4-0.9c-1.1-0.8-2.6-1.2-3.6-0.2
				c-0.4,0.4-0.6,1.2-0.1,1.6c0.5,0.4,1.2,0.7,1.9,0.5C173.5,118,173.7,117.4,173.3,117.3L173.3,117.3z"/>
		</g>
	</g>
	<g>
		<g>
			<path d="M193.7,130.5c1.1,4.6,2.6,9.2,3.2,14c0.8,6.6,0.4,13.4,0.3,20c0,4.4-0.2,8.7-0.5,13.1c-0.2,4.4-1.1,9.3-0.6,13.7
				c0.1,0.7,1.2,1.1,1.4,0.2c0.8-4,0.5-8.5,0.8-12.6c0.2-4.8,0.4-9.6,0.5-14.4c0-6.7,0.3-13.5-0.7-20.2c-0.7-4.8-2.2-9.4-3.5-14.1
				C194.5,129.6,193.5,129.9,193.7,130.5L193.7,130.5z"/>
		</g>
	</g>
	<g>
		<g>
			<path d="M196.7,191.5c-2.5,0.2-4.9,0.5-7.3,0.7c-2.3,0.2-5,0.7-7.3,0.2c-0.9-0.2-1.3,1.3-0.4,1.4c2.2,0.4,4.5,0,6.7-0.2
				c2.9-0.2,5.7-0.5,8.5-1.2C197.4,192.3,197.3,191.4,196.7,191.5L196.7,191.5z"/>
		</g>
	</g>
	<g>
		<g>
			<path d="M169.3,131.8c-1.4,3.8-0.3,7.7,1.3,11.3c1.8,4.2,2.1,8.6,1.7,13.2c-0.4,4.7-0.1,9.6,0,14.4c0.1,3.2,1.3,22-3.9,21.1
				c-6.9-1.1-4.7-11.1-4.7-16.4c0.1-4.8,0.1-9.7,0.2-14.5c0.1-10.1,0.2-20.4,5.6-29.4c0.3-0.5-0.5-1-0.8-0.5
				c-5.9,9.5-5.9,20.3-6.1,31.1c-0.1,5.1-0.2,10.3-0.2,15.4c-0.1,4.1-0.1,8.1,0,12.2c0.1,1.8,1.5,2.2,2.9,2.8c1.3,0.5,4.6,1.7,6,0.9
				c2.3-1.3,1.8-3.6,2-6c0.6-7.5,0.7-14.8,0.5-22.3c-0.1-5.7,0.4-11.4-0.3-17.1c-0.6-5.5-5-10-3.2-15.9
				C170.5,131.4,169.5,131.2,169.3,131.8L169.3,131.8z"/>
		</g>
	</g>
	<g>
		<g>
			<path d="M190.7,133.2c-0.7,3-2.7,5.7-4.4,8.2c-1.1,1.6-4.3,3.9-4.5,6.2c-0.3,3.8-0.4,7.7-0.5,11.5c-0.3,11.3-1.1,22.8-0.7,34.1
				c0,0.8,1.3,0.9,1.3,0c-0.4-11,0.3-22.1,0.6-33.1c0.1-3.7,0.2-7.5,0.2-11.2c0-2.7,3.6-5.7,5.1-7.9c1.6-2.3,3.2-4.8,3.8-7.6
				C191.7,132.9,190.8,132.6,190.7,133.2L190.7,133.2z"/>
		</g>
	</g>
	<g>
		<g>
			<path d="M192.4,133.4c0.1,1.7-0.1,3.5-0.2,5.2c-0.3,2.8-1.6,5.4-2.1,8.1c0.4-0.1,0.8-0.1,1.2-0.2c-0.8-1.4-1.9-1.8-3.2-2.7
				c-0.3-0.2-0.8,0.2-0.6,0.6c0.8,1.1,2,1.5,2.6,2.8c0.3,0.5,1.1,0.4,1.2-0.2c1.1-4.6,2.4-8.8,1.8-13.6
				C193.1,132.9,192.4,132.9,192.4,133.4L192.4,133.4z"/>
		</g>
	</g>
	<g>
		<g>
			<path d="M187.5,144.8c-0.3,1.8,0.2,3.4-0.7,5.1c0.2-0.1,0.4-0.2,0.6-0.3c-0.2-0.1-0.4-0.5-0.6-0.7c-0.2-0.3-0.6-0.4-0.8-0.6
				c-0.8-0.5-1.7-0.9-2.5-1.3c-0.8-0.4-1.4,0.8-0.7,1.1c0.9,0.4,1.7,0.8,2.6,1.3c0.7,0.4,1,1.1,1.8,1.3c0.2,0.1,0.5,0,0.6-0.3
				c0.8-1.6,1-4,0.4-5.7C188.1,144.5,187.5,144.4,187.5,144.8L187.5,144.8z"/>
		</g>
	</g>
	<g>
		<g>
			<path d="M186.3,134.3c-3.3,6.7-11.9,4.6-15.2-0.8c-0.2-0.3-0.7-0.1-0.6,0.2c2.7,6.5,13.2,7.5,16.2,0.8
				C186.8,134.3,186.4,134.1,186.3,134.3L186.3,134.3z"/>
		</g>
	</g>
	<g>
		<g>
			<path d="M188,134c-1.1,1-1.9,2.9-2.7,4.1c-1,1.5-2.1,2.8-3.3,4.1c-1.8,1.7-2.6-1.7-3.2-2.7c-0.1-0.2-0.4-0.2-0.5-0.1
				c-0.8,0.9-1.5,1.8-2.3,2.7c-1.2,1.4-2.4-1.7-2.8-2.5c-0.8-1.7-1.5-3.5-2.1-5.3c-0.1-0.3-0.6-0.3-0.6,0.1c0.4,3.1,2.2,7.2,4.7,9.2
				c0.2,0.1,0.4,0.2,0.5,0c0.7-0.9,1.5-1.8,2.2-2.7c1-1.2,2.3,3.3,2.2,3c0.1,0.2,0.3,0.3,0.5,0.2c1.8-1.3,3.2-2.9,4.5-4.7
				c1-1.5,1.9-3.7,3.1-5C188.6,134.1,188.3,133.8,188,134L188,134z"/>
		</g>
	</g>
	<g>
		<g>
			<path d="M180,142.5c-0.4,0.9-0.9,1.8-1.6,2.6c-0.6,0.7-1.2-0.5-1.5-0.8c-0.4-0.5-0.8-1-1.2-1.4c-0.3-0.3-0.8,0.1-0.5,0.4
				c0.5,0.7,1.1,1.4,1.7,2.1c0.3,0.3,0.8,0.8,1.3,0.7c1.2-0.4,1.9-2.2,2.3-3.3C180.6,142.4,180.2,142.3,180,142.5L180,142.5z"/>
		</g>
	</g>
	<g>
		<g>
			<path d="M178.1,146.1c1,7.2,2.4,16.8-1.7,23.3c-0.2,0.4,0.3,0.7,0.6,0.3c4.6-6.1,2.7-16.9,1.6-23.8
				C178.5,145.6,178,145.8,178.1,146.1L178.1,146.1z"/>
		</g>
	</g>
	<g>
		<g>
			<path d="M177.2,146.2c-1.7,7.1-4.9,16.1-1,23c0.2,0.3,0.7,0.1,0.6-0.2c-1.1-3.2-1.9-5.2-1.5-8.5c0.5-4.7,1.7-9.4,2.5-14.1
				C177.7,146,177.2,145.9,177.2,146.2L177.2,146.2z"/>
		</g>
	</g>
	<g>
		<g>
			<path d="M193.6,153.6c-0.1,0.2-0.2,0.5-0.2,0.7c-0.2,0.6-0.8-0.5-0.8-0.5c-0.3-0.3-0.2-0.2-0.6-0.3c0,0-0.1,0-0.1,0.1
				c-0.1,0.2-0.6,0-0.7,0c-0.1,0-0.1,0-0.2,0.1c-0.3,0.5-0.9,0.2-1.4,0.2c-0.2,0-0.8-0.1-0.9-0.1c-0.4,0.1,0.9,0.6-0.8,0.2
				c-0.2,0-0.3,0.2-0.1,0.3c0.2,0.1,0.4,0.1,0.6,0c0.8-0.4,1.6-0.1,2.5,0c0.1,0,0.1,0,0.2-0.1c0.1-0.3,0.3-0.4,0.6-0.2
				c0.1,0,0.1,0,0.2,0c0.4-0.4,1,0.7,1.6,0.7c0.1,0,0.1,0,0.1-0.1c0.1-0.3,0.2-0.7,0.3-1C193.9,153.5,193.7,153.4,193.6,153.6
				L193.6,153.6z"/>
		</g>
	</g>
	<g>
		<g>
			<path d="M195,151.2c-2.7-0.1-5.5,0.3-8.3,0.4c-0.7,0-0.7,1.2,0,1.1c2.8-0.2,5.6-0.2,8.4-0.6C195.7,152.1,195.5,151.3,195,151.2
				L195,151.2z"/>
		</g>
	</g>
	<g>
		<g>
			<path d="M195.4,155.2c-1.4-0.3-2.8,0.3-4.1,0.4c-1.5,0.1-3.1,0-4.6,0.3c-0.5,0.1-0.3,0.8,0.1,0.8c1.5,0.1,3-0.1,4.5-0.2
				c1.3-0.1,2.7-0.6,4-0.5C195.7,156,195.8,155.3,195.4,155.2L195.4,155.2z"/>
		</g>
	</g>
	<g>
		<g>
			<path d="M186.2,152.8c0.3,1.1,0.2,2.2,0.1,3.3c-0.1,0.6,0.7,0.7,0.8,0.1c0.2-1.2,0.2-2.4-0.2-3.6
				C186.8,152.2,186.1,152.4,186.2,152.8L186.2,152.8z"/>
		</g>
	</g>
	<g>
		<g>
			<path d="M194.9,152c0,1.2,0,2.4,0,3.6c0,0.6,0.9,0.6,0.9,0c0-1.2,0-2.4,0-3.6C195.8,151.4,194.9,151.4,194.9,152L194.9,152z"/>
		</g>
	</g>
	<path class="st33" d="M193.9,131.7c3.7,4.7,8,15.2,8.2,15.7c1.4,3.6,2.5,8,3.2,9.8c0.7,1.8,1.1,3.3,0.9,3.9c0,0-3.3,5.9-5.8,9.1
		c-2.5,3.2-5.1,6.2-5.1,6.2"/>
	<g>
		<g>
			<path d="M180.6,185.5c-2.4,0-5,0.5-7.3,0c-0.8-0.2-1.1,1-0.3,1.2c2.4,0.6,5.3,0.2,7.8-0.2C181.3,186.4,181.2,185.5,180.6,185.5
				L180.6,185.5z"/>
		</g>
	</g>
	<g>
		<g>
			<path d="M167.5,134.3c-0.6,3.6-1.3,7.2-1.4,10.9c0,0.3,0.2,0.6,0.5,0.5c1-0.1,2.2-0.2,3.1-0.4c0.5-0.2,0.5-1-0.1-1
				c-1,0.1-2,0.3-3,0.4c0.2,0.2,0.4,0.4,0.5,0.5c-0.1-3.6,0.8-7.2,1.3-10.8C168.5,133.9,167.6,133.8,167.5,134.3L167.5,134.3z"/>
		</g>
	</g>
	<g>
		<g>
			<path d="M172.6,147.6c-1.9,0.5-3.4,1.7-5,2.8c0.2,0.1,0.5,0.2,0.7,0.3c-0.6-1.7,0.6-3.6,1.4-5c0.3-0.6-0.6-1.2-0.9-0.5
				c-0.9,1.7-2.2,3.9-1.5,5.9c0.1,0.3,0.5,0.5,0.7,0.3c1.5-1,2.9-2.2,4.7-2.7C173.5,148.4,173.2,147.5,172.6,147.6L172.6,147.6z"/>
		</g>
	</g>
	<g>
		<g>
			<path d="M180,94.4c9.9-0.2,20.6,3.1,23.6,13.6c3.3,11.9-7.8,23.9-19.3,24.7c-4.7,0.3-9.6-0.4-14-1.9c-5.6-1.9-8.9-8.1-10.5-13.5
				c-3.8-12.9,7.9-21.6,19.5-22.4c0.8-0.1,0.8-1.2,0-1.2c-11.8,0.7-23.2,8.3-21.9,21.3c0.6,6.2,3.5,12.3,8.4,16.1
				c4.9,3.9,12.6,4.2,18.5,4c12.4-0.4,22.6-12.9,21.2-25c-1.4-12.7-14.5-17-25.6-16.7C179.3,93.4,179.3,94.4,180,94.4L180,94.4z"/>
		</g>
	</g>
	<path class="st33" d="M169,131.6c-3,4.2-5.8,8.2-7.1,10.2c-1.3,2-5,11.1-6,13.1s-1.2,3.8-1.2,3.8s3.3,9.1,4.9,11.7
		c1.6,2.6,3.9,6,3.9,6"/>
	<g>
		<g>
			<path d="M163.7,153.2c2.2,0.5,4.3,0.7,6.5,0.5c-0.1-0.2-0.3-0.4-0.4-0.5c-0.8,2.5-1,5-0.6,7.6c0.1-0.2,0.2-0.4,0.3-0.6
				c-1,0.2-1.9,0.5-2.8,1c-0.3,0.2-0.7,0.5-1,0.7c-0.2,0.1-1.9-1.1-2.2-1.3c-0.5-0.3-0.9,0.4-0.4,0.8c0.8,0.5,1.6,1.1,2.3,1.6
				c0.2,0.1,0.4,0.1,0.6-0.1c1.1-1,2.2-1.7,3.7-1.9c0.3,0,0.4-0.3,0.3-0.6c-0.4-2.4-0.1-4.8,0.5-7.2c0.1-0.2-0.1-0.6-0.4-0.5
				c-2.1,0.3-4.2,0.1-6.3-0.4C163.5,152.4,163.3,153.1,163.7,153.2L163.7,153.2z"/>
		</g>
	</g>
	<g>
		<g>
			<path d="M176,125.8c3.5,1.9,6.4,1.6,10,0.4c0.9-0.3,0.4-1.6-0.5-1.2c-3.2,1.5-6,1.5-9.3,0.3C175.9,125.2,175.7,125.6,176,125.8
				L176,125.8z"/>
		</g>
	</g>
	<g>
		<g>
			<path d="M173.9,112.1c-2.2-0.3-6.3,0.1-6.6,3c0,0.4,0.6,0.7,0.8,0.3c0.7-0.9,1.1-1.7,2.3-2.1c1.1-0.4,2.3-0.4,3.4-0.6
				C174.4,112.7,174.4,112.1,173.9,112.1L173.9,112.1z"/>
		</g>
	</g>
	<g>
		<g>
			<path d="M188.8,112c1.4,0.1,2.7,0.3,3.7,1.3c0.7,0.7,0.9,2,1.8,2.5c0.4,0.2,0.8-0.2,0.7-0.6c-0.2-1-1.4-2.2-2.2-2.9
				c-1.1-1-2.7-1.1-4.1-1.1C188.4,111.3,188.4,111.9,188.8,112L188.8,112z"/>
		</g>
	</g>
	<g>
		<g>
			<path d="M171.7,102.2c3.2-4.9,8.1-6.6,13.7-7.1c0.5,0,0.5-0.8,0-0.8c-5.7,0-11.1,2.7-14.2,7.6C171,102.2,171.5,102.5,171.7,102.2
				L171.7,102.2z"/>
		</g>
	</g>
	<g>
		<g>
			<path d="M175,102.4c5.4-4.1,11.2-5.6,17.9-5.9c0.5,0,0.5-0.8,0-0.8c-6.8-0.1-12.9,2.2-18.2,6.3
				C174.5,102.2,174.8,102.6,175,102.4L175,102.4z"/>
		</g>
	</g>
	<g>
		<g>
			<path d="M183.2,100.9c4.7-2.9,10.5-3.7,15.6-1.4c0.5,0.2,0.9-0.5,0.4-0.7c-5.2-2.4-11.6-1.4-16.3,1.7
				C182.6,100.6,182.9,101.1,183.2,100.9L183.2,100.9z"/>
		</g>
	</g>
	<g>
		<g>
			<path d="M165.6,151.5c0.1,0.6,0,1.2,0,1.8c0.1,0.8,1.1,0.8,1.2,0c0-0.7,0-1.5-0.4-2.1C166.2,150.9,165.5,151.1,165.6,151.5
				L165.6,151.5z"/>
		</g>
	</g>
	<g>
		<g>
			<path d="M167.4,152.4c-0.1,0.3-0.1,0.6-0.1,1c0,0.7,1.1,0.7,1.1,0c0-0.3,0-0.6-0.1-1C168.3,151.9,167.5,151.9,167.4,152.4
				L167.4,152.4z"/>
		</g>
	</g>
	<g>
		<g>
			<path class="st4" d="M195.6,166.3c2.4,0.1,6.7,0.7,9,4.4c-4.9,3.5-8,5.4-8.9,8.3s-1.6,5.3-3.8,5c-2.2-0.4-3.1-2.8-2.4-5.2
				s3.1-3.2,4.7-5.6C195.9,170.9,196.6,168.9,195.6,166.3z"/>
		</g>
		<g>
			<g>
				<g>
					<path d="M195.4,166.8c1.3,5.7-4.5,7.6-6.3,12.2c-0.6,1.5,0,5.4,1.8,5.9c1.6,0.4,3.2-0.9,4-2.1c1.4-1.9,0.6-4.1,2.5-6.1
						c1.9-2.1,4.5-3.7,6.7-5.3c0.4-0.3,0.1-1-0.4-0.7c-2.6,1.3-4.9,3.4-7,5.3c-2.7,2.4-1.4,6.4-5,7.9c-0.9-0.4-1.4-1.1-1.5-2.1
						c-0.4-1.5-0.1-2.8,0.7-4.1c1-1.8,3-3.2,4.3-4.8c1.5-1.9,1.5-4,1-6.3C196.1,166,195.3,166.2,195.4,166.8L195.4,166.8z"/>
				</g>
			</g>
			<g>
				<g>
					<path d="M196.7,166.5c2.8,0.2,5.4,1.9,6.8,4.3c0.4,0.7,1.5,0,1-0.6c-1.7-2.5-4.8-4.2-7.8-4.4
						C196.2,165.7,196.2,166.4,196.7,166.5L196.7,166.5z"/>
				</g>
			</g>
		</g>
	</g>
	<g>
		<g>
			<path class="st4" d="M154.8,171.2c1.3-2,3.9-5.5,8.3-5.5c0.5,7.9,1.4,8.9,3.8,11.5c2,2.2,3.2,5,1.7,6.7s-3.5,0.3-5.2-1.6
				s-1.7-3.2-2.8-5.8S157.6,171.8,154.8,171.2z"/>
		</g>
		<g>
			<g>
				<path d="M155.1,171.6c3.8,1.3,4.7,4.4,5.7,7.8c0.4,1.5,1.7,2.9,2.6,4.1c0.8,1,3.4,2.9,4.7,1.7c1.7-1.6,1.7-4.2,0.8-6.2
					c-0.7-1.5-2.6-2.9-3.6-4.2c-1.8-2.5-1.8-5.6-2-8.5c0-0.5-0.8-0.5-0.8,0c-0.2,2.1-0.1,5.6,0.9,7.4c1.6,2.9,5.9,6.1,4.6,9.6
					c-1.3,3.4-4.7-1.5-5.4-2.5c-1-1.4-1.1-3-1.8-4.6c-1.2-2.8-2.7-4.5-5.6-5.4C154.8,170.6,154.6,171.5,155.1,171.6L155.1,171.6z"/>
			</g>
		</g>
		<g>
			<g>
				<path d="M154.9,171.4c1.5-2.5,4-4.8,7.1-5c0.8,0,0.8-1.3,0-1.2c-3.3,0.4-6,3-7.7,5.8C154,171.5,154.7,171.8,154.9,171.4
					L154.9,171.4z"/>
			</g>
		</g>
	</g>
</g>
</svg>
