<?xml version="1.0" encoding="utf-8"?>
<!-- Generator: Adobe Illustrator 23.0.1, SVG Export Plug-In . SVG Version: 6.00 Build 0)  -->
<svg version="1.1" xmlns="http://www.w3.org/2000/svg" xmlns:xlink="http://www.w3.org/1999/xlink" x="0px" y="0px"
	 viewBox="0 0 147.2 75.3" style="enable-background:new 0 0 147.2 75.3;" xml:space="preserve">
<style type="text/css">
	.st0{fill:#EBEBEC;}
	.st1{fill:#2B56A7;}
	.st2{fill:#AC9959;}
	.st3{fill:#C6B481;}
	.st4{fill:#6D6E71;}
	.st5{fill:#D1D3D4;}
</style>
<g id="Layer_1">
</g>
<g id="Layer_2">
	<rect x="31.6" y="1.4" class="st0" width="71.2" height="49"/>
	<g>
		<g>
			<path class="st1" d="M68.9,23.2c0.1,0,0.2,0.1,0.3,0.2c0.1,0.1,0.1,0.3,0.1,0.4c0,0.5-0.1,1-0.1,1.5s-0.1,1-0.3,1.5
				c-0.2,0.6-0.4,1.2-0.8,1.8c-0.4,0.5-0.9,0.9-1.5,1.2c-0.3,0.1-0.7,0.2-1,0.2c-0.4,0-0.7,0-1.1-0.1s-0.7-0.2-1.1-0.3
				c-0.4-0.1-0.7-0.3-1-0.4c-0.6-0.3-1.1-0.7-1.6-1.2c-0.4-0.5-0.8-1-1.1-1.5c-0.3-0.6-0.6-1.2-0.7-1.8c-0.2-0.6-0.3-1.3-0.3-2
				c-0.1-1.3,0-2.7,0.3-4c0.2-0.7,0.4-1.4,0.7-2.1c0.3-0.7,0.6-1.3,1.1-1.9c0.4-0.5,0.9-0.9,1.5-1.2c0.6-0.3,1.2-0.5,1.8-0.5
				c0.7-0.1,1.4,0,2.1,0.1c0.7,0.1,1.4,0.3,2,0.5c0.2,0.1,0.3,0.2,0.4,0.3c0.1,0.2,0.1,0.3,0,0.5c0,0.2-0.1,0.3-0.3,0.4
				C68.1,15,67.9,15,67.7,15c-0.6-0.2-1.3-0.4-1.9-0.5c-0.6-0.1-1.3-0.2-2-0.1c0,0-0.1,0-0.1,0c0,0,0,0,0,0c0,0,0,0,0,0h0
				c0,0-0.1,0-0.2,0c-0.1,0-0.1,0-0.2,0c-0.1,0-0.1,0-0.2,0.1c-0.1,0-0.1,0-0.1,0c0,0-0.1,0-0.1,0.1c-0.1,0-0.1,0.1-0.2,0.1
				c-0.1,0-0.1,0.1-0.2,0.1c-0.2,0.1-0.4,0.3-0.6,0.5c-0.2,0.2-0.4,0.4-0.5,0.7c-0.3,0.6-0.6,1.2-0.8,1.8c-0.2,0.6-0.3,1.3-0.4,1.9
				c-0.1,0.6-0.2,1.2-0.2,1.8c0,0.6,0,1.3,0.1,1.8c0.1,0.6,0.3,1.2,0.5,1.7c0.2,0.5,0.5,1,0.9,1.5c0.4,0.5,0.9,0.9,1.4,1.2
				c0.5,0.3,1.1,0.5,1.7,0.7c0.2,0,0.3,0.1,0.5,0.1c0.2,0,0.4,0,0.5,0c0.1,0,0.1,0,0.2,0s0.1,0,0.2,0l0.2-0.1c0,0,0,0,0.1,0
				c0.1,0,0.1,0,0,0c0.4-0.2,0.8-0.5,1-1c0.3-0.5,0.4-1,0.5-1.5c0.1-0.5,0.2-1.1,0.2-1.6c-0.5-0.1-1.1-0.2-1.6-0.2
				c-0.5,0-1.1,0-1.6,0c-0.2,0-0.4-0.1-0.5-0.2c-0.1-0.1-0.2-0.3-0.2-0.5c0-0.2,0.1-0.3,0.2-0.5c0.1-0.1,0.3-0.2,0.5-0.2
				c0.7,0,1.4,0,2.1,0.1C67.5,22.8,68.2,22.9,68.9,23.2z"/>
			<path class="st1" d="M80.8,14.3C81,15.5,81,16.8,81,18c0,1.3-0.1,2.5-0.2,3.8c-0.1,1.3-0.2,2.5-0.2,3.7c-0.1,1.2-0.1,2.5-0.1,3.7
				c0,0.2,0,0.4-0.2,0.5c-0.1,0.1-0.3,0.2-0.4,0.2c-0.2,0-0.3-0.1-0.5-0.2c-0.1-0.1-0.2-0.3-0.2-0.5c0-1.1,0-2.2,0-3.3
				c0.1-1.1,0.1-2.2,0.2-3.3c0.1-1.1,0.1-2.2,0.2-3.3c0.1-1.1,0.1-2.2,0-3.3c-0.6,1-1.1,2.1-1.6,3.2c-0.3,0.8-0.6,1.5-0.9,2.3
				c-0.3,0.8-0.7,1.4-1.3,2c-0.1,0.2-0.3,0.2-0.5,0.2c-0.2,0-0.4-0.1-0.5-0.3c-0.5-1.1-1-2.1-1.5-3.2c-0.5-1.1-1-2.1-1.5-3.2
				c0,2.1,0,4.2-0.1,6.2c0,2.1-0.2,4.1-0.5,6.2c0,0.2-0.1,0.3-0.3,0.4c-0.2,0.1-0.3,0.1-0.5,0.1c-0.2-0.1-0.3-0.2-0.4-0.3
				c-0.1-0.2-0.1-0.3-0.1-0.5c0.2-1.2,0.3-2.5,0.3-3.7c0.1-1.2,0.1-2.5,0.1-3.7c0-1.2,0-2.5,0-3.7s0-2.5,0-3.7c0-0.2,0-0.3,0.1-0.4
				c0.1-0.1,0.2-0.2,0.3-0.2c0.1,0,0.3,0,0.4,0c0.1,0,0.2,0.1,0.3,0.3c0.6,1.3,1.2,2.7,1.9,4c0.6,1.3,1.3,2.6,1.9,4
				c0.3-0.5,0.6-1,0.8-1.6s0.4-1.1,0.6-1.7c0.3-0.9,0.7-1.7,1.2-2.5c0.5-0.8,1-1.6,1.5-2.3c0.1-0.1,0.2-0.2,0.4-0.2
				c0.2,0,0.3,0,0.4,0.1c0.1,0.1,0.2,0.2,0.2,0.3C80.8,14,80.8,14.2,80.8,14.3z"/>
			<path class="st1" d="M92.4,19.9c0.1,0.6,0.2,1.3,0.2,1.9c0,0.6,0,1.3-0.1,1.9c-0.1,0.6-0.3,1.2-0.5,1.8c-0.2,0.6-0.5,1.2-0.9,1.7
				c-0.4,0.5-0.8,1.1-1.3,1.6s-1.1,0.9-1.7,1.1c-0.6,0.3-1.2,0.4-1.8,0.4c-0.6,0-1.2-0.2-1.7-0.6c-0.6-0.4-1-1-1.3-1.6
				c-0.3-0.7-0.5-1.3-0.7-2c-0.2-0.7-0.3-1.4-0.4-2.1c-0.1-0.7-0.1-1.4-0.1-2.2c0-0.7,0.1-1.4,0.2-2.1c0.1-0.7,0.2-1.4,0.5-2.1
				s0.5-1.3,0.9-1.9c0.4-0.6,0.8-1.1,1.4-1.6c0.2-0.2,0.4-0.2,0.7-0.2c0.1-0.1,0.2-0.1,0.4-0.1c0.8,0,1.6,0.1,2.4,0.4
				c0.8,0.3,1.4,0.8,2,1.4c0.5,0.6,1,1.2,1.3,2S92.2,19.1,92.4,19.9z M91.2,22.4c0-0.6,0-1.2-0.1-1.8c-0.1-0.6-0.2-1.1-0.4-1.7
				c-0.2-0.5-0.4-1-0.7-1.5c-0.3-0.5-0.6-0.9-1.1-1.3c-0.2-0.1-0.4-0.3-0.6-0.4c-0.2-0.1-0.5-0.3-0.7-0.3c-0.3-0.1-0.6-0.2-0.9-0.2
				c-0.3,0-0.6,0-0.9,0c0,0-0.1,0-0.2,0c-0.4,0.4-0.8,0.8-1.1,1.3c-0.3,0.5-0.5,1-0.7,1.5c-0.2,0.5-0.3,1.1-0.4,1.6
				c-0.1,0.6-0.2,1.1-0.2,1.7c-0.1,1.4,0,2.8,0.3,4.2c0.1,0.3,0.2,0.6,0.2,0.9c0.1,0.3,0.2,0.6,0.3,0.9c0,0.1,0.1,0.3,0.2,0.4
				c0.1,0.2,0.2,0.3,0.2,0.4c0.1,0.1,0.2,0.2,0.3,0.3c0.1,0.1,0.2,0.2,0.2,0.2c0.1,0.1,0.2,0.2,0.3,0.2c0.1,0,0.2,0.1,0.3,0.1
				c0,0,0.1,0,0.1,0c0,0,0,0,0.1,0c0,0,0,0,0.1,0c0,0,0.1,0,0.1,0c0.1,0,0.1,0,0.2,0c0.1,0,0.1,0,0.2,0h0c0,0,0.1,0,0.1,0
				c0,0,0.1,0,0.2,0c0.1,0,0.1,0,0.2,0c0.1,0,0.1,0,0.2-0.1c0.1,0,0.2-0.1,0.3-0.1c0.1-0.1,0.3-0.1,0.4-0.2c0.5-0.3,1-0.7,1.4-1.2
				c0.4-0.5,0.8-1,1.1-1.6c0.1-0.2,0.2-0.3,0.2-0.4c0-0.1,0.1-0.2,0.1-0.3c0-0.1,0.1-0.3,0.1-0.4c0-0.1,0.1-0.3,0.1-0.4
				c0.1-0.3,0.1-0.6,0.2-0.8C91.2,23,91.2,22.7,91.2,22.4z"/>
			<path class="st1" d="M62.9,39.1c0.1,0,0.2,0,0.2,0.1c0,0.1,0.1,0.1,0.1,0.2c0,0.1,0,0.2-0.1,0.2c-0.1,0.1-0.1,0.1-0.2,0.1
				c-0.5,0-1,0-1.5,0c-0.5,0-1,0-1.5,0c-0.1,0-0.1,0.1-0.2,0.1c-0.1,0-0.2,0-0.2-0.1c-0.1-0.1-0.1-0.1-0.1-0.2
				c0.1-1.3,0.2-2.5,0.2-3.8s0-2.5,0-3.8c0-0.1,0-0.2,0.1-0.2c0.1-0.1,0.1-0.1,0.2-0.1c0.1,0,0.2,0,0.2,0.1c0.1,0.1,0.1,0.1,0.1,0.2
				c0,1.2,0,2.4,0,3.6s-0.1,2.4-0.2,3.6c0.5,0,0.9,0,1.4,0C61.9,39.1,62.4,39.1,62.9,39.1z"/>
			<path class="st1" d="M67.3,39.9c0,0.1,0,0.2,0,0.2c0,0.1-0.1,0.1-0.2,0.1c-0.1,0-0.2,0-0.2,0c-0.1,0-0.1-0.1-0.2-0.2
				c-0.1-0.4-0.2-0.8-0.4-1.2c-0.1-0.4-0.2-0.8-0.4-1.2h-1.7c0,0.3-0.1,0.7-0.1,1c0,0.3-0.1,0.6-0.1,1c0,0.1-0.1,0.2-0.1,0.2
				c-0.1,0-0.2,0-0.2,0c-0.1,0-0.2-0.1-0.2-0.1c0-0.1,0-0.2,0-0.2c0.1-0.3,0.1-0.7,0.1-1c0-0.3,0.1-0.6,0.1-1c0-0.1-0.1-0.1,0-0.2
				s0-0.1,0.1-0.2c0.1-0.8,0.2-1.7,0.2-2.5c0.1-0.8,0.2-1.7,0.4-2.5c0-0.1,0-0.1,0.1-0.2c0.1,0,0.1-0.1,0.2,0c0.1,0,0.1,0,0.2,0.1
				s0.1,0.1,0.1,0.2c0.2,0.6,0.4,1.3,0.6,1.9c0.2,0.6,0.4,1.3,0.6,1.9c0.2,0.6,0.4,1.3,0.6,1.9C66.9,38.6,67.1,39.2,67.3,39.9z
				 M65.8,37.1c-0.2-0.6-0.3-1.2-0.5-1.7c-0.2-0.6-0.3-1.2-0.5-1.8c-0.1,0.6-0.2,1.2-0.2,1.8c-0.1,0.6-0.1,1.2-0.2,1.7H65.8z"/>
			<path class="st1" d="M68.8,37c0.2,0,0.4,0.1,0.7,0.1c0.2,0.1,0.5,0.1,0.7,0.2c0.2,0.1,0.4,0.2,0.5,0.4c0.1,0.2,0.2,0.4,0.2,0.6
				c0,0.4-0.1,0.7-0.3,0.9c-0.2,0.2-0.5,0.4-0.8,0.5c-0.3,0.1-0.6,0.2-0.9,0.2c-0.3,0-0.6,0-0.9,0.1c-0.1,0-0.2,0-0.3,0
				c-0.1,0-0.2-0.1-0.2-0.3c0-1.3,0-2.5,0.1-3.8c0-1.3,0.1-2.5,0-3.8c0-0.1,0-0.2,0.1-0.3c0.1,0,0.2,0,0.3,0c0.1,0,0.3-0.1,0.4-0.1
				c0.2,0,0.3,0,0.5,0c0.3,0.1,0.6,0.2,0.9,0.4c0.3,0.2,0.5,0.4,0.7,0.7c0.2,0.3,0.2,0.5,0.3,0.9c0,0.3,0,0.6-0.2,0.9
				c-0.1,0.3-0.3,0.6-0.5,0.9c-0.2,0.3-0.4,0.6-0.7,0.8c-0.1,0.1-0.2,0.2-0.3,0.3C69,36.8,68.9,36.9,68.8,37z M70.1,38.4
				C70.1,38.4,70.1,38.4,70.1,38.4L70.1,38.4L70.1,38.4l0-0.2c0,0,0,0,0-0.1c0,0,0,0,0,0c0,0,0,0,0,0s0,0,0,0c0,0,0,0,0,0
				c0,0,0,0,0,0c0,0,0,0,0,0c0,0,0,0,0,0l0,0l0,0c0,0,0,0-0.1,0c0,0-0.1,0-0.1,0c0,0,0,0,0,0c0,0,0,0,0,0c0,0,0,0,0,0l0,0
				c0,0,0,0-0.1,0c0,0,0,0-0.1,0c-0.1,0-0.2-0.1-0.3-0.1c-0.1,0-0.2-0.1-0.3-0.1c-0.1,0-0.1,0-0.2,0c-0.1,0-0.1,0-0.2,0l0,0h-0.1
				c0,0,0,0-0.1,0c0,0-0.1,0-0.1,0H68v1.8h0.1c0.2,0,0.3,0,0.5,0c0.2,0,0.3,0,0.5-0.1c0.1,0,0.3,0,0.4-0.1c0.1,0,0.3-0.1,0.3-0.2
				c0.1-0.1,0.1-0.1,0.2-0.2c0-0.1,0.1-0.1,0.1-0.2L70.1,38.4C70.1,38.5,70.1,38.5,70.1,38.4z M68.3,32.5
				C68.2,32.5,68.2,32.5,68.3,32.5c-0.1,0-0.1,0-0.2,0c0,0.7,0,1.4,0,2.1c0,0.7,0,1.4,0,2.1c0,0,0,0,0,0c0,0,0,0,0.1,0
				c0.1,0,0.1-0.1,0.2-0.1c0.1,0,0.1-0.1,0.2-0.1c0.1-0.1,0.2-0.2,0.4-0.3c0.1-0.1,0.2-0.2,0.3-0.3c0.2-0.2,0.4-0.5,0.5-0.8
				c0.2-0.3,0.3-0.6,0.3-0.9c0-0.1,0-0.2,0-0.3c0-0.1,0-0.2-0.1-0.3c-0.1-0.1-0.1-0.2-0.3-0.3c-0.1-0.1-0.2-0.2-0.3-0.3
				c-0.1-0.1-0.3-0.2-0.4-0.2c-0.1-0.1-0.3-0.1-0.4-0.1c0,0-0.1,0-0.1,0c0,0-0.1,0-0.1,0H68.3L68.3,32.5z"/>
			<path class="st1" d="M74.9,35.7c0.2,0.3,0.4,0.7,0.5,1.1c0.1,0.4,0.1,0.8,0,1.2c-0.1,0.4-0.2,0.7-0.5,1.1
				c-0.2,0.3-0.5,0.6-0.9,0.8c-0.3,0.1-0.6,0.2-0.9,0.3c-0.3,0-0.6,0-0.9-0.1c-0.3-0.1-0.6-0.3-0.8-0.5s-0.4-0.5-0.4-0.9
				c0-0.1,0-0.2,0-0.3c0-0.1,0.1-0.1,0.2-0.1c0.1,0,0.2,0,0.2,0c0.1,0,0.1,0.1,0.1,0.2c0,0.2,0.1,0.3,0.2,0.5c0,0,0.1,0.1,0.1,0.2
				c0.1,0.1,0.1,0.1,0.1,0.1c0.2,0.2,0.4,0.2,0.7,0.3c0.1,0,0.3,0,0.4,0c0.1,0,0.3-0.1,0.4-0.1c0.3-0.1,0.5-0.3,0.7-0.5
				c0.1-0.2,0.2-0.3,0.3-0.5c0.1-0.2,0.2-0.4,0.2-0.6c0.1-0.4,0-0.7-0.1-1c-0.1-0.3-0.3-0.6-0.5-0.9c-0.2-0.2-0.5-0.5-0.7-0.7
				c-0.3-0.2-0.5-0.4-0.8-0.5c-0.2-0.1-0.5-0.3-0.7-0.5c-0.2-0.2-0.5-0.3-0.6-0.5c-0.1-0.1-0.2-0.2-0.2-0.3
				c-0.1-0.1-0.1-0.2-0.2-0.3c0-0.1,0-0.2,0-0.4c0-0.1,0.1-0.2,0.1-0.3c0.1-0.1,0.2-0.3,0.4-0.3c0.1-0.1,0.3-0.2,0.4-0.2
				c0.2-0.1,0.4-0.1,0.6-0.2c0.2,0,0.4,0,0.6,0c0.4,0.1,0.7,0.3,1,0.6c0.3,0.3,0.5,0.6,0.6,0.9c0,0.1,0,0.2,0,0.2
				c0,0.1-0.1,0.1-0.1,0.2c-0.1,0-0.2,0-0.2,0c-0.1,0-0.2-0.1-0.2-0.1c-0.1-0.2-0.2-0.4-0.3-0.6c-0.1-0.2-0.3-0.3-0.4-0.4
				c-0.1-0.1-0.3-0.2-0.4-0.2c-0.1,0-0.3,0-0.5,0c-0.2,0-0.4,0.1-0.5,0.2c-0.1,0-0.1,0.1-0.2,0.1c-0.1,0-0.1,0.1-0.1,0.1
				c0,0,0,0,0,0c0,0,0,0,0,0c0,0,0,0,0,0h0v0c0,0,0,0,0,0c0,0,0,0,0,0c0,0,0,0,0,0c0,0,0,0,0,0c0,0,0,0,0,0c0,0,0,0.1,0,0.1l0,0
				c0,0,0,0,0,0c0,0,0.1,0.1,0.1,0.1c0,0,0.1,0.1,0.1,0.1c0.2,0.2,0.4,0.3,0.6,0.5c0.2,0.1,0.5,0.3,0.7,0.4c0.3,0.2,0.6,0.4,0.9,0.6
				C74.4,35.2,74.7,35.4,74.9,35.7z"/>
			<path class="st1" d="M76.5,39.5c0,0.2,0,0.4,0,0.6c0,0.1,0,0.2-0.1,0.2c0,0.1-0.1,0.2-0.1,0.2s-0.1,0.1-0.2,0.2
				c-0.1,0-0.2,0-0.3,0c-0.1,0-0.1-0.1-0.1-0.2c0-0.1,0-0.2,0-0.3l0-0.1l0,0c0,0,0,0,0,0s0,0,0,0c0-0.1,0-0.1,0-0.2
				c0-0.1,0-0.1,0-0.2c0,0,0,0,0,0s0,0,0,0c0-0.1,0-0.2,0-0.2c0-0.1,0.1-0.1,0.2-0.2c0.1,0,0.2,0,0.2,0
				C76.5,39.3,76.5,39.4,76.5,39.5z"/>
			<path class="st1" d="M80,32.1c0,1.3,0,2.5,0.1,3.7c0,1.2,0.1,2.5,0.1,3.7c0,0.1,0,0.2-0.1,0.2c-0.1,0.1-0.1,0.1-0.2,0.1
				c-0.1,0-0.2,0-0.2-0.1c-0.1-0.1-0.1-0.1-0.1-0.2c0-1.3,0-2.5-0.1-3.7c0-1.2-0.1-2.5-0.1-3.7c0-0.1,0-0.2,0.1-0.2
				c0.1-0.1,0.1-0.1,0.2-0.1c0.1,0,0.2,0,0.2,0.1C79.9,31.9,80,32,80,32.1z"/>
			<path class="st1" d="M85.9,32.1c-0.1,0.7-0.2,1.3-0.3,2c-0.1,0.7-0.1,1.4-0.2,2c0,0.3,0,0.6,0,0.9c0,0.3,0,0.6,0,0.9
				c0,0.3,0,0.6-0.1,0.9c0,0.3-0.1,0.6-0.2,0.9c0,0.1-0.1,0.1-0.1,0.2C85,40,84.9,40,84.9,40c-0.1,0-0.1,0-0.2,0
				c-0.1,0-0.1-0.1-0.1-0.1c-0.1-0.3-0.3-0.5-0.5-0.8c-0.2-0.2-0.4-0.5-0.5-0.8c-0.4-0.5-0.7-1.1-1-1.6c-0.2-0.5-0.4-0.9-0.6-1.4
				c0,0.7,0,1.4,0,2.1c0,0.7,0,1.4,0,2.1c0,0.1,0,0.2-0.1,0.2c-0.1,0.1-0.1,0.1-0.2,0.1c-0.1,0-0.2,0-0.2-0.1
				c-0.1-0.1-0.1-0.1-0.1-0.2c0-1.1,0-2.2,0-3.2c0-1.1,0-2.1,0-3.2c0-0.1,0-0.2,0.1-0.2c0.1-0.1,0.1-0.1,0.2-0.1c0.1,0,0.1,0,0.2,0
				c0.1,0,0.1,0.1,0.1,0.2c0.1,0.6,0.3,1.2,0.5,1.8c0.2,0.6,0.4,1.2,0.7,1.7c0.1,0.3,0.3,0.6,0.5,0.8c0.2,0.3,0.3,0.5,0.5,0.8
				c0.1,0.1,0.2,0.3,0.3,0.4s0.2,0.3,0.3,0.4c0.1-0.5,0.1-1,0.1-1.4c0-0.5,0-1,0-1.4c0-0.3,0-0.7,0.1-1c0-0.3,0.1-0.7,0.1-1
				c0.1-0.7,0.2-1.4,0.3-2.1c0-0.1,0.1-0.1,0.1-0.2c0.1,0,0.2-0.1,0.2,0c0.1,0,0.1,0.1,0.2,0.1C85.9,31.9,85.9,32,85.9,32.1z"/>
			<path class="st1" d="M91.4,39.3c0.1,0,0.2,0,0.2,0.1c0.1,0.1,0.1,0.1,0.1,0.2c0,0.1,0,0.2-0.1,0.2c-0.1,0-0.1,0.1-0.2,0.1
				C91,40,90.6,40,90.3,40c-0.4,0-0.7,0-1.1,0c-0.2,0-0.4-0.1-0.6-0.1c-0.2,0-0.4-0.1-0.5-0.1c-0.2-0.1-0.3-0.1-0.5-0.2
				c-0.2-0.1-0.3-0.1-0.4-0.2c-0.5-0.4-0.8-0.9-0.9-1.5c-0.1-0.3-0.1-0.6-0.1-0.9c0-0.3,0-0.6,0-0.9c0-0.3,0.1-0.6,0.1-0.9
				c0.1-0.3,0.1-0.6,0.3-0.9c0.1-0.3,0.2-0.6,0.4-0.8c0.2-0.3,0.4-0.5,0.6-0.7c0.3-0.2,0.5-0.4,0.8-0.5c0.3-0.1,0.6-0.2,0.9-0.2
				c0.3,0,0.6,0,0.9,0s0.6,0.1,0.9,0.2c0.1,0,0.2,0.1,0.2,0.2c0,0.1,0,0.2,0,0.2c0,0.1-0.1,0.1-0.1,0.2c-0.1,0.1-0.1,0.1-0.2,0
				c-0.2-0.1-0.5-0.1-0.7-0.2c-0.2,0-0.5-0.1-0.7,0c-0.2,0-0.4,0-0.6,0.1c-0.2,0-0.4,0.1-0.5,0.2c-0.3,0.2-0.6,0.4-0.9,0.7
				c-0.2,0.3-0.4,0.7-0.5,1c-0.1,0.3-0.2,0.6-0.2,1c0,0.3-0.1,0.7-0.1,1c0,0.2,0,0.3,0,0.5c0,0.2,0,0.3,0,0.5c0,0.2,0,0.3,0.1,0.5
				c0,0.2,0.1,0.3,0.2,0.4c0.2,0.2,0.4,0.4,0.6,0.6c0.4,0.2,0.7,0.3,1.1,0.4c0.4,0.1,0.8,0.1,1.3,0.1C90.6,39.4,91,39.4,91.4,39.3z"
				/>
			<path class="st1" d="M92.3,39.4c0.1,0,0.2,0,0.2,0.1c0.1,0.1,0.1,0.1,0.1,0.2c0,0.1,0,0.2-0.1,0.2c0,0.1-0.1,0.1-0.2,0.1
				c-0.1,0-0.2,0-0.2-0.1S92,39.8,92,39.7c0-0.1,0-0.2,0.1-0.2S92.2,39.4,92.3,39.4z"/>
		</g>
		<g>
			<path class="st1" d="M55.5,34.6c-1.3-2.5-3.2-5.3-3.2-8.2c0-2.2,0-4.5,0-6.7c0-0.1,0-0.2-0.1-0.3c-0.1-0.2-0.3-0.4-0.6-0.3
				c-1.6,0.1-3.2-0.1-4.7-0.1c-0.3,0-0.7,0.3-0.7,0.7c0.1,2.2,0.2,4.6,0.4,6.8c0.2,3-1.9,5.8-3.3,8.4c-0.8,1.5-2.7,4-0.4,5.1
				c0.6,0.3,1.4,0.1,2.1,0.1c1.5,0,3,0,4.5,0c2,0,4.5,0.5,6.4-0.1C58.5,39.1,56.3,35.9,55.5,34.6z M47.9,26
				c-0.1-1.9-0.2-3.9-0.3-5.8c1.1,0,2.3,0.1,3.4,0.1c0,3.9-0.2,7.6,1.5,11.2c-0.8,0.2-1.7-0.3-2.4,0.2c-0.9,0.6-1.3,0.7-2.2,0.1
				c-0.5-0.3-0.9-0.4-1.3-0.4C47.4,29.7,48,28,47.9,26z"/>
			<circle class="st1" cx="49" cy="14.5" r="1.8"/>
			<circle class="st1" cx="51.5" cy="10.9" r="1.1"/>
		</g>
	</g>
	<g>
		<polygon class="st2" points="116.3,49.7 131.4,56.9 146.3,49.5 146.1,63.9 131.1,71.2 116.4,63.7 		"/>
		<polygon class="st3" points="146.3,49.5 131.4,56.9 116.3,49.7 131.4,41.4 		"/>
	</g>
	<g>
		<polygon class="st2" points="103.2,24.4 111,28.5 125.8,21 125.7,35.5 110.7,42.7 103.3,38.4 		"/>
		<polygon class="st3" points="125.8,21 111,28.5 102.8,24.1 102.5,17.5 111,12.9 		"/>
	</g>
	<path class="st1" d="M102.9,50.4l-70.6,0.3l-0.5-29.3L8.9,23.7L1.3,46l0.8,18.2l10.5,0.3c0,0-0.2-10.7,10-10.7s9.9,8.5,10.2,10.5
		l35.7,0.1c0,0,0.4-10,10.1-10.1S88.9,64,88.9,64h4.6l9.7-6.3L102.9,50.4z"/>
	<polygon class="st0" points="21.8,41.5 22.2,28.5 10.9,29.9 5.9,43.3 	"/>
	<circle class="st4" cx="78.7" cy="64.2" r="10.1"/>
	<circle class="st4" cx="22.7" cy="63.9" r="10.1"/>
	<circle class="st5" cx="22.7" cy="63.9" r="5"/>
	<circle class="st5" cx="78.8" cy="64.3" r="5"/>
	<g>
		<g>
			<path d="M12.5,62.8C9,62.9,5.6,63.2,2.2,63c-1.4-0.1-1.3,2.1,0.1,2.2c3.4,0.2,6.9-0.1,10.3-0.2C13.9,65,13.9,62.8,12.5,62.8
				L12.5,62.8z"/>
		</g>
	</g>
	<g>
		<g>
			<path d="M68.3,63.1c-11.9,0-23.8,0.3-35.7-0.1c-1.3,0-1.2,2,0,2c11.9-0.1,23.8-0.1,35.7,0C69.5,65,69.5,63.1,68.3,63.1L68.3,63.1
				z"/>
		</g>
	</g>
	<g>
		<g>
			<path d="M94.3,63.5c-1.8-0.2-3.6-0.4-5.4-0.5c-1.2-0.1-1.1,1.9,0,1.8c1.8-0.1,3.6-0.4,5.4-0.6C94.8,64.2,94.8,63.6,94.3,63.5
				L94.3,63.5z"/>
		</g>
	</g>
	<g>
		<g>
			<path d="M103.9,50.1c-10.6-1.1-21.7-0.6-32.4-0.5c-13,0.1-26.1,0.4-39,0.1c-1.4,0-1.4,2.1,0.1,2.2c12.9,0.6,26.1-0.8,39-0.5
				c10.8,0.2,21.7,0.7,32.4-0.5C104.4,50.8,104.4,50.1,103.9,50.1L103.9,50.1z"/>
		</g>
	</g>
	<g>
		<g>
			<path d="M31.4,1.9c12.2,1.5,24.9,0.3,37.2,0.5c10.9,0.2,21.8,0,32.7,0.1c1.4,0,1.4-2.2-0.1-2.2C91,0.1,80.6,0.6,70.3,0.7
				c-12.8,0.1-26-1.2-38.8,0.5C31.1,1.2,31,1.9,31.4,1.9L31.4,1.9z"/>
		</g>
	</g>
	<g>
		<g>
			<path d="M31.2,1.6c-0.3,5.1-0.2,10.1-0.1,15.2c0.1,5.7,0,11.4,0.1,17.1c0.1,5.5,0.1,11,0,16.5c0,1.2,1.9,1.4,2.1,0.2
				c1-4.6,0.2-10.2-0.2-14.9c-0.5-5.7-1-11.4-0.5-17.1C33.2,13,32.9,7,31.9,1.5C31.8,1.1,31.2,1.2,31.2,1.6L31.2,1.6z"/>
		</g>
	</g>
	<g>
		<g>
			<path d="M101.8,0.5c-1.7,5-0.5,10.9-0.5,16.1c0,6.9,0.1,13.7,0.4,20.6c0.3,6.8-0.1,13.6,0.7,20.3c0.1,1,1.5,1,1.5,0
				c0.1-6.7,0.3-13.5,0.1-20.3c-0.2-6.3-0.2-12.6-0.1-18.9c0.1-5.8,1.2-12.2-0.8-17.8C102.9-0.2,102-0.1,101.8,0.5L101.8,0.5z"/>
		</g>
	</g>
	<g>
		<g>
			<g>
				<path d="M115.5,50c3.8,4.2,10.6,4.8,15.3,7.8c1.1,0.7,2.1-1.1,1-1.8c-2.1-1.3-4.4-2.3-6.7-3.2c-3.1-1.2-5.8-2.6-8.7-4.1
					C115.6,48.4,114.9,49.4,115.5,50L115.5,50z"/>
			</g>
		</g>
		<g>
			<g>
				<path d="M116,64.2c4.6,3.4,9.7,5.7,15,7.7c0.8,0.3,1.2-1.1,0.3-1.4c-5.3-1.7-9.6-5.8-15.1-7C115.8,63.4,115.6,64,116,64.2
					L116,64.2z"/>
			</g>
		</g>
		<g>
			<g>
				<path d="M130.8,42c4.6,3.4,9.7,5.7,15,7.7c0.8,0.3,1.2-1.1,0.3-1.4c-5.3-1.7-9.6-5.8-15.1-7C130.6,41.2,130.5,41.8,130.8,42
					L130.8,42z"/>
			</g>
		</g>
		<g>
			<g>
				<path d="M123.9,45.5c4.6,3.4,9.7,5.7,15,7.7c0.8,0.3,1.2-1.1,0.3-1.4c-5.3-1.7-9.6-5.8-15.1-7C123.7,44.8,123.6,45.3,123.9,45.5
					L123.9,45.5z"/>
			</g>
		</g>
		<g>
			<g>
				<path d="M130.5,57.4c-1,4.2-0.6,9.3-0.1,13.5c0.1,0.6,1.1,0.9,1.2,0.1c0.6-4.3,0.9-9.4-0.1-13.7
					C131.4,56.9,130.6,56.9,130.5,57.4L130.5,57.4z"/>
			</g>
		</g>
		<g>
			<g>
				<path d="M115.5,49.9c-0.4,4.6-0.4,9.1-0.3,13.7c0,1.4,2.2,1.3,2.1-0.1c-0.2-4.6-0.2-9.2-1.2-13.8
					C116.1,49.4,115.5,49.6,115.5,49.9L115.5,49.9z"/>
			</g>
		</g>
		<g>
			<g>
				<path d="M146.1,48.8c-5.3,2.1-10.6,4.7-15.6,7.4c-1.2,0.6-0.1,2.3,1.1,1.7c4.9-2.6,11.1-4.2,15.3-7.9
					C147.4,49.5,146.8,48.5,146.1,48.8L146.1,48.8z"/>
			</g>
		</g>
		<g>
			<g>
				<path d="M146,63.5c-5.3,1.4-10,5.1-15.1,7c-0.9,0.3-0.4,1.7,0.4,1.4c4.9-2.1,11.2-3.8,15.1-7.8C146.7,63.9,146.4,63.4,146,63.5
					L146,63.5z"/>
			</g>
		</g>
		<g>
			<g>
				<path d="M131.3,41.2c-5.3,1.4-10,5.1-15.1,7c-0.9,0.3-0.4,1.7,0.4,1.4c4.9-2.1,11.2-3.8,15.1-7.8
					C132,41.5,131.7,41.1,131.3,41.2L131.3,41.2z"/>
			</g>
		</g>
		<g>
			<g>
				<path d="M145.8,49.8c-0.4,4.6-0.6,9.2-0.9,13.8c-0.1,1.4,2.1,1.3,2.1-0.1c0.2-4.6,0.3-9.4-0.6-13.9
					C146.4,49.2,145.8,49.4,145.8,49.8L145.8,49.8z"/>
			</g>
		</g>
	</g>
	<g>
		<g>
			<path d="M1.1,45c-1,2.9-0.7,6-0.6,9.1c0.1,3.5,0.2,7,0.4,10.5c0.1,1.3,1.9,1.2,1.9,0c0.1-3.5-0.2-7-0.4-10.5
				c-0.2-3-0.1-6.1-0.9-9.1C1.5,44.8,1.2,44.8,1.1,45L1.1,45z"/>
		</g>
	</g>
	<g>
		<g>
			<path d="M9,22.9C6.8,25.5,6,29,5,32.2c-1.4,4.6-3.4,9-5,13.5c-0.4,1.2,1.6,1.8,2,0.5c2.4-7.5,6.5-15.1,7.5-23
				C9.5,22.9,9.2,22.6,9,22.9L9,22.9z"/>
		</g>
	</g>
	<g>
		<g>
			<path d="M8.5,23.8c3.1,0.8,6.4,0.1,9.5-0.2c4.2-0.4,8.3-0.7,12.5-0.7c1.4,0,1.4-2.2-0.1-2.2c-3.7,0-7.3,0.2-10.9,0.6
				c-3.6,0.3-7.7,0.3-11,1.7C8.1,23.1,8.1,23.7,8.5,23.8L8.5,23.8z"/>
		</g>
	</g>
	<g>
		<g>
			<path d="M10.3,29.1c-1,4.8-4.3,8.7-5,13.6c-0.2,1.2,1.6,1.6,1.8,0.4c0.6-4.8,4.4-9,4.1-13.9C11.2,28.7,10.4,28.6,10.3,29.1
				L10.3,29.1z"/>
		</g>
	</g>
	<g>
		<g>
			<path d="M22.1,27.7c-0.8,4.6-1,9.7-0.9,14.4c0,0.8,1.4,1,1.5,0.2c0.7-4.7,0.7-9.9-0.1-14.5C22.5,27.5,22.1,27.5,22.1,27.7
				L22.1,27.7z"/>
		</g>
	</g>
	<g>
		<g>
			<path d="M5.5,44c5.4-0.2,11.3-0.3,16.5-1.6c1-0.3,0.8-1.9-0.3-1.8c-2.7,0.1-5.5,0.7-8.2,1c-2.8,0.3-5.8,0-8.3,1.5
				C4.7,43.3,5,44.1,5.5,44L5.5,44z"/>
		</g>
	</g>
	<g>
		<g>
			<path d="M10.4,30.5c3.8-0.3,7.8-0.6,11.6-1.1c1-0.1,1-1.8,0-1.6c-3.8,0.5-8.1,0.2-11.7,1.8C9.7,29.7,9.7,30.5,10.4,30.5
				L10.4,30.5z"/>
		</g>
	</g>
	<g>
		<g>
			<path d="M102,51c-0.3,2.2,0.1,4.4-0.1,6.6c-0.1,1.2,1.8,1.2,1.9,0c0.1-2.2-0.3-4.4-0.9-6.5C102.8,50.6,102.1,50.5,102,51L102,51z
				"/>
		</g>
	</g>
	<g>
		<g>
			<path d="M93.3,64.5c1.7-0.8,3.3-1.5,5-2.4c1.7-0.9,3-2,4.5-3.2c0.6-0.4,0.1-1.3-0.6-0.9c-1.6,0.9-3.3,1.5-4.9,2.4
				c-1.6,1-3.1,2.1-4.6,3.3C92.2,64.1,92.8,64.7,93.3,64.5L93.3,64.5z"/>
		</g>
	</g>
	<g>
		<g>
			<path d="M23,53.8c-6.1-1.6-10.7,3.5-11.1,9.4c-0.5,6.8,3.6,11.5,10.5,11.9c7.5,0.4,12.2-6.4,11.2-13.4
				c-0.9-6.6-9.2-11.4-15.2-7.9c-0.6,0.4-0.2,1.3,0.5,1.1c6.3-1.8,12,2.1,12.7,8.6c0.6,5.9-5.2,9.7-10.5,9.1c-5-0.6-7.4-4.9-7.4-9.6
				c0.1-5.4,3.8-9,9.1-8.5C23.4,54.7,23.4,53.9,23,53.8L23,53.8z"/>
		</g>
	</g>
	<g>
		<g>
			<path d="M20.3,67.6c-0.4-0.8-1.4-1.2-1.7-2.1c-0.3-0.8-0.4-2.1-0.2-2.9c0.6-2.3,2.5-4,4.9-3.3c2.9,0.8,4.8,4.4,3.3,7
				c-0.6,1.1-2,1.8-3.2,1.9c-1.8,0.2-2.8-1.1-4.3-1.5c-0.5-0.1-1.1,0.4-0.9,0.9c0.8,1.7,3.1,2.5,4.9,2.5c1.8,0,3.3-1.1,4.3-2.6
				c2.2-3.4,0.6-7.8-3-9.4c-2.9-1.3-5.8,1-6.9,3.6c-0.6,1.4-0.8,2.8-0.3,4.2c0.4,1,1.6,2.6,2.9,2.1C20.3,68,20.4,67.8,20.3,67.6
				L20.3,67.6z"/>
		</g>
	</g>
	<g>
		<g>
			<path d="M78.4,74.1c6.1,1.6,10.7-3.5,11.1-9.4C90,58,85.9,53.3,79,52.9c-7.5-0.4-12.2,6.4-11.2,13.4c0.9,6.6,9.2,11.4,15.2,7.9
				c0.6-0.4,0.2-1.3-0.5-1.1c-6.3,1.8-12-2.1-12.7-8.6c-0.6-5.9,5.2-9.7,10.5-9.1c5,0.6,7.4,4.9,7.4,9.6c-0.1,5.4-3.8,9-9.1,8.5
				C78.1,73.3,78,74,78.4,74.1L78.4,74.1z"/>
		</g>
	</g>
	<g>
		<g>
			<path d="M81.2,60.3c0.4,0.8,1.4,1.2,1.7,2.1c0.3,0.8,0.4,2.1,0.2,2.9c-0.6,2.3-2.5,4-4.9,3.3c-2.9-0.8-4.8-4.4-3.3-7
				c0.6-1.1,2-1.8,3.2-1.9c1.8-0.2,2.8,1.1,4.3,1.5c0.5,0.1,1.1-0.4,0.9-0.9c-0.8-1.7-3.1-2.5-4.9-2.5c-1.8,0-3.3,1.1-4.3,2.6
				c-2.2,3.4-0.6,7.8,3,9.4c2.9,1.3,5.8-1,6.9-3.6c0.6-1.4,0.8-2.8,0.3-4.2c-0.4-1-1.6-2.6-2.9-2.1C81.1,60,81.1,60.2,81.2,60.3
				L81.2,60.3z"/>
		</g>
	</g>
	<g>
		<g>
			<g>
				<path d="M102.2,24.2c0.4,1,1.5,1.4,2.5,1.8c2.1,0.9,4.1,2,6.1,3.3c1.1,0.7,2.1-1.1,1-1.8c-2.7-1.7-5.8-2.7-8.5-4.4
					C102.5,22.8,101.9,23.6,102.2,24.2L102.2,24.2z"/>
			</g>
		</g>
		<g>
			<g>
				<path d="M102.5,39.1c0.1,0.7,1.5,1.3,2.1,1.7c0.8,0.5,1.6,1,2.4,1.3c1.2,0.6,2.6,0.6,3.8,1.3c0.9,0.5,1.5-1.1,0.5-1.3
					c-1.3-0.3-2.5-1.3-3.7-1.9c-0.9-0.4-1.8-0.7-2.7-1C104.5,39,102.4,38,102.5,39.1L102.5,39.1z"/>
			</g>
		</g>
		<g>
			<g>
				<path d="M110.7,13.5c4.6,3.4,9.7,5.7,15,7.7c0.8,0.3,1.2-1.1,0.3-1.4c-5.3-1.7-9.6-5.8-15.1-7C110.6,12.7,110.4,13.2,110.7,13.5
					L110.7,13.5z"/>
			</g>
		</g>
		<g>
			<g>
				<path d="M103.8,17c4.6,3.4,9.7,5.7,15,7.7c0.8,0.3,1.2-1.1,0.3-1.4c-5.3-1.7-9.6-5.8-15.1-7C103.6,16.2,103.5,16.7,103.8,17
					L103.8,17z"/>
			</g>
		</g>
		<g>
			<g>
				<path d="M110.4,28.9c-1,4.2-0.6,9.3-0.1,13.5c0.1,0.6,1.1,0.9,1.2,0.1c0.6-4.3,0.9-9.4-0.1-13.7
					C111.3,28.3,110.5,28.4,110.4,28.9L110.4,28.9z"/>
			</g>
		</g>
		<g>
			<g>
				<path d="M126,20.2c-5.3,2.1-10.6,4.7-15.6,7.4c-1.2,0.6-0.1,2.3,1.1,1.7c4.9-2.6,11.1-4.2,15.3-7.9
					C127.3,21,126.7,19.9,126,20.2L126,20.2z"/>
			</g>
		</g>
		<g>
			<g>
				<path d="M126,35c-5.3,1.4-10,5.1-15.1,7c-0.9,0.3-0.4,1.7,0.4,1.4c4.9-2.1,11.2-3.8,15.1-7.8C126.6,35.3,126.3,34.9,126,35
					L126,35z"/>
			</g>
		</g>
		<g>
			<g>
				<path d="M111.2,12.6c-3.4,0.7-6.1,3-9.3,4.1c-0.9,0.3-0.4,1.7,0.4,1.4c3.2-1.3,6.8-2.1,9.2-4.8
					C111.9,12.9,111.6,12.5,111.2,12.6L111.2,12.6z"/>
			</g>
		</g>
		<g>
			<g>
				<path d="M125.7,21.2c-0.4,4.6-0.6,9.2-0.9,13.8c-0.1,1.4,2.1,1.3,2.1-0.1c0.2-4.6,0.3-9.4-0.6-13.9
					C126.3,20.7,125.7,20.9,125.7,21.2L125.7,21.2z"/>
			</g>
		</g>
	</g>
</g>
</svg>
