<svg xmlns="http://www.w3.org/2000/svg" viewBox="0 0 118 109.8"><style>.st2{fill:#fff}.st5{fill:#ac9959}.st6{fill:#c6b481}</style><g id="Layer_2"><path fill="#d1d3d4" d="M103.6 55.3H16.1l-14.8 9 .8 2.2h113.5l.6-3.7z"/><path d="M2.5 63.5l-1.2.8.8 2.2h113.5l.5-3zM16.1 1h87.5v54.3H16.1z" fill="#939598"/><path class="st2" d="M23.3 8.2h73.5v41.2H23.3z"/><path d="M23.3 8.2h6.1v41.2h-6.1zm67.3 0h6.1v41.2h-6.1z" fill="#7596cc"/><path fill="#2b56a7" d="M23.5 8.7H97v16.9H23.5z"/><path class="st5" d="M19 90.4l13.3 6.4 13-6.5-.1 12.6-13.2 6.4-12.8-6.7z"/><path class="st6" d="M45.3 90.3l-13 6.5L19 90.4l13.3-7.3z"/><path class="st5" d="M47.5 82.3l13.3 6.4 13-6.5-.1 12.6-13.2 6.4-12.8-6.6z"/><path class="st6" d="M73.8 82.2l-13 6.5-13.3-6.4 13.3-7.2z"/><path class="st5" d="M76.2 90.2l13.2 6.4 13-6.5-.1 12.6-13.1 6.4-12.9-6.6z"/><path class="st6" d="M102.4 90.1l-13 6.5-13.2-6.4L89.4 83z"/><path class="st2" d="M38.9 14.3s-.1.2-.1.1c-.2.8-.3 1.7-.3 2.5 0 .9-.1 1.9.1 2.7 0 .2.2.3.3.3.3.1.6-.1.6-.4 0-.5-.1-1-.1-1.6 0-.8-.1-1.6-.2-2.4 0-.4 0-.8-.2-1.1h-.1c-.1.2-.1-.1 0-.1-.2.1-.2 0 0 0zm1.5 2.7c.3-.1.8-.1 1.1-.1.5 0 .7.1.8.6.1.5.1 1 0 1.5 0 .4-.1.9.2 1.2.1.2.4.1.5-.1.3-.4.2-1.4.2-1.9 0-.6 0-1.3-.5-1.7-.6-.6-2.1-.6-2.6.2-.1.2.1.4.3.3z"/><path class="st2" d="M42.5 18c-.6 0-1.2-.3-1.7-.1-.7.2-.8 1-.7 1.7.1.7.8.8 1.3.7.5-.1 1.3-.4 1.5-.9.1-.2-.1-.5-.4-.5-.3 0-1.5 1-1.7.4-.1-.5.2-.7.6-.8.4-.1.8-.1 1.2-.3 0 0 0-.2-.1-.2zm1.7-3.5c-.5.6-.3 1.7-.3 2.4.1 1 0 2 0 2.9 0 .5.8.5.8 0v-2.7c0-.5-.1-.9-.1-1.4 0-.4 0-.8-.1-1.2-.1-.1-.3-.1-.3 0z"/><path class="st2" d="M44.6 17.5c.5-.2 1.4-1.1 1.7-.2.1.4.1 1.1-.1 1.4-.3.6-1.1.1-1.5-.1-.4-.2-.8.3-.5.6.6.7 1.7 1.1 2.5.3.6-.6.6-1.6.4-2.4-.2-.7-.7-1.1-1.4-1.1-.6 0-1.3.5-1.4 1.2.1.3.2.4.3.3zm5.4-1c-.6-.4-1.2-.4-1.7 0s-.5 1.1-.1 1.5c.3.3 1.5.5 1.4 1-.1.7-1.2.5-1.6.2-.4-.3-.8.4-.4.7.9.7 2.5.4 2.8-.8.1-.6-.3-1-.8-1.2-.3-.2-.7-.2-1-.5-.3-.2.3-.5.5-.6.2-.1.5 0 .7 0 .3.1.4-.1.2-.3zm3.4.2c-.5-.5-1.3-.6-1.9-.2-.7.4-.9 1.2-.9 2 .1 1.5 2 2.7 3.1 1.3.3-.4-.2-.7-.5-.5-.4.2-.7.4-1.1.2-.4-.2-.6-.7-.7-1.1 0-.4.1-.9.4-1.2.4-.4.9-.3 1.4-.1.2 0 .3-.3.2-.4z"/><path class="st2" d="M55.5 16.5c-.8-.8-1.6.5-1.8 1.2-.2 1.1.3 2.3 1.5 2.6 2.6.6 2.8-3.8.2-4.1-.5 0-.6.7-.1.8.7.2 1.1.6 1.1 1.3 0 .6-.4 1.1-1 1.1-.8 0-1-.8-1-1.5s.4-1.1 1-1.3c.2 0 .2-.1.1-.1z"/><path class="st2" d="M59.5 16.3c-.8-.8-1.6.5-1.8 1.2-.2 1.1.3 2.3 1.5 2.6 2.6.6 2.8-3.8.2-4.1-.5 0-.6.7-.1.8.7.2 1.1.6 1.1 1.3 0 .6-.4 1.1-1 1.1-.8 0-1-.8-1-1.5s.4-1.1 1-1.3c.2.1.2 0 .1-.1z"/><path class="st2" d="M62.1 16.4c-.3.8-.2 1.8-.2 2.7 0 .8-.3 1.6.1 2.3.2.3.7.2.7-.2-.1-.8 0-1.6 0-2.4 0-.8.1-1.8-.3-2.5-.1-.1-.3 0-.3.1z"/><path class="st2" d="M62.7 17.5c.3-.4.7-.7 1.2-.7s.6 1 .7 1.3c0 .4-.1.9-.5 1.1-.4.3-1 .2-1.3-.2-.3-.4-.8-.1-.6.4.4.7 1.2.8 1.9.6.9-.2 1.2-1.1 1.2-1.9 0-.7-.3-1.7-1-2-.8-.2-1.8.3-2 1.1 0 .3.2.4.4.3z"/><circle class="st2" cx="29.1" cy="15" r="1.2"/><circle class="st2" cx="31.8" cy="15" r="1.2"/><circle class="st2" cx="34.6" cy="15" r="1.2"/><circle class="st2" cx="29.1" cy="17.7" r="1.2"/><circle class="st2" cx="31.8" cy="17.7" r="1.2"/><circle class="st2" cx="34.6" cy="17.7" r="1.2"/><circle class="st2" cx="29.1" cy="20.4" r="1.2"/><circle class="st2" cx="31.8" cy="20.4" r="1.2"/><circle class="st2" cx="34.6" cy="20.4" r="1.2"/><path class="st2" d="M74.9 14.1c2.3.1 4.6-.2 7-.1 2.8.1 5.4.2 8.2 0 .7-.1.7-1.1 0-1.1-4.9-.1-10.5-1-15.3.2-.7.1-.5.9.1 1zm-.6 3.9c2 .7 4.5.1 6.6.1 3.4 0 6.8-.3 10.2 0 .6 0 .7-.9.1-1-2.6-.4-5.3-.1-8-.2-3-.2-6 .5-8.9.2-.5-.1-.5.7 0 .9zm-.3 4c2.3-.2 4.5 0 6.7.2 3.3.3 6.5-.4 9.7-.3.7 0 .7-1.1 0-1.1-3.2-.1-6.5.3-9.8.1-2.3-.2-4.8-.7-6.9.4-.2.2 0 .7.3.7z"/><path d="M36.1 31.1c16.1.2 32.3.4 48.3.1.4 0 .4-.6 0-.6-16 0-32.3-1.2-48.3 0-.3 0-.3.5 0 .5zm-.2 4.4c16.2-.4 32.6-.6 48.8 0 .4 0 .3-.5 0-.6-8.5-.5-17.1-.1-25.7-.2-7.6-.1-15.5-.4-23.1.2-.4.1-.4.6 0 .6zm0 7.8c16.2-.4 32.6-.6 48.8 0 .4 0 .3-.5 0-.6-8.5-.5-17.1-.1-25.7-.2-7.6-.1-15.5-.4-23.1.2-.4.1-.4.6 0 .6zm.2-4c6.8-.4 13.6-.1 20.4.1 9.4.3 18.9-.4 28.3-.2.4 0 .4-.6 0-.6-9.4-.1-18.9.3-28.3.1-6.7-.1-13.7-.9-20.4.2-.3 0-.2.4 0 .4z" fill="#bcbec0"/><path d="M16.4 1.8c15 1.5 30.5.7 45.6.5 13.8-.2 27.8-.3 41.6 0 1.4 0 1.4-2.1-.1-2.2-6.3-.3-12.6.3-18.9.3-7 0-14-.1-21 .1-15.7.4-31.6-1-47.2.6-.5 0-.5.7 0 .7zm32.9 63.6c-15.6-.4-31.2.4-46.7 0-1.4 0-1.4 2.1.1 2.2 15.5.6 31.2-.3 46.7-.3 1.1 0 1.1-1.8-.1-1.9zm62.3.5c-13.4-.6-26.9.3-40.2-.5-1.2-.1-1.2 1.9 0 1.9 13.4-.5 26.8 0 40.2-.7.5 0 .5-.7 0-.7z"/><path d="M15.3 1.7c-.7 9.2-.6 18.5-.5 27.7.1 8.4-1 17.9.6 26.1.1.5 1 .5 1.1 0 1.5-8.3.5-17.7.4-26.1-.1-9 1.6-19.1-.5-27.8-.2-.7-1-.5-1.1.1zm88.4-.9c-.9 4-.6 7.9-.6 12 .1 5.4-.4 10.8-.6 16.2-.4 8.6-.3 17.4.3 26 .1 1.3 1.9 1.2 1.9 0 .5-8-.1-16.1-.1-24.1 0-9.8.8-20.2-.5-29.9 0-.4-.3-.5-.4-.2z"/><path d="M70.7 56.5c5.8 0 11.5.1 17.3.1 4.9 0 11.3 1.4 16-.2 1-.3 1.1-1.9-.1-2.2-2.2-.5-3.9-.1-6.2.2-3.2.3-6.6.2-9.8.2-5.8 0-11.5-.2-17.3-.2-1.3 0-1.3 2.1.1 2.1zM15.2 56c11.4 1 22.7-.1 34.1.1 1.3 0 1.3-2.1-.1-2.1-4.7-.1-9.2.2-13.9.4-6.6.5-13.4-.4-20.1.6-.7.1-.7 1 0 1zm8-46.8c10.3 1.4 21.2.4 31.6.4 4.8 0 9.5 0 14.3-.2 5.1-.2 10.2-.2 15.4-.2 4.2 0 8.7 1.1 12.7.1 1.1-.3 1-2-.1-2.2-3.5-.7-7.3.2-10.9.2-5.1 0-10.2-.1-15.3-.1-5 .1-10.1.3-15.1.3-5.8 0-11.6 0-17.5.1-5 0-10.3-.4-15.2.6-.5 0-.4.9.1 1z"/><path d="M15.1 55c-4.8 2.7-9.6 5.6-14.5 8.1-.5.2-.7.9-.5 1.4.3.7.5 1.7 1 2.3.7.9 2.4.7 2.3-.7-.1-.8-.5-1.6-.8-2.3-.2.5-.4 1-.5 1.4 4.7-2.6 10.9-5 13.7-9.8 0-.2-.4-.5-.7-.4zm86 .1c2.5 1.5 4.9 3.2 7.5 4.6 1.2.6 2.3 1.3 3.6 1.9 1.8.8 3.6 1.1 2.6 3.4-.8 1.8 1.8 2.8 2.5 1 .5-1.3 1.3-3 .2-4.2-1.3-1.3-3.5-1.7-5.2-2.5-3.7-1.8-7-3.5-11-4.6-.3-.1-.4.2-.2.4z"/><linearGradient id="SVGID_1_" gradientUnits="userSpaceOnUse" x1="60.402" y1="75.077" x2="60.402" y2="27.773"><stop offset="0" stop-color="#2b56a7" stop-opacity="0"/><stop offset=".142" stop-color="#2b56a7"/></linearGradient><path fill="url(#SVGID_1_)" d="M50.1 75.1h19.8l.5-30.8 7.2-.3-16.9-16.2-17.5 16.1 6.9.6z"/><path d="M49.8 44.3c.1 6-.4 12.1-.3 18.1.1 4.2-.7 8.9.1 13.1.1.5.9.5 1 0 .8-4.3-.2-8.8.1-13.1.5-5.8.2-12.2-.3-18.1 0-.4-.6-.4-.6 0zm19.8 0c-.9 5-.4 10.1-.5 15.2 0 5.3.1 10.4.7 15.7 0 .3.5.3.5 0 .1-5.2.6-10.5.6-15.7 0-4.8.8-10.6-.8-15.2-.1-.2-.5-.2-.5 0zm-26.5.7C49.2 39.6 55 34 61 28.6c.8-.7-.4-1.8-1.2-1.1-6.1 5.3-11.9 11-17.9 16.4-.8.7.4 1.8 1.2 1.1z"/><path d="M78.2 43.5c-5.5-5.6-11.5-10.8-17-16.4-.7-.7-1.9.5-1.1 1.1 6 5.2 11.4 10.9 17.1 16.3.6.7 1.6-.3 1-1z"/><path d="M69.3 44.6c.5.9 1.6.9 2.5.9 1.7.1 3.4-.1 5.1.2 1.6.2 2.2-2.2.6-2.4-1.6-.2-3.1-.2-4.7-.2-1.1.1-2.9 0-3.5 1.1-.1.1-.1.3 0 .4zm-26.7.6c2.2.2 4.4.1 6.6.4 1.5.2 2.1-2 .6-2.3-2.5-.4-5-.1-7.4.6-.8.2-.5 1.2.2 1.3zm-20-36.9c-.6 7.8 1 15.5.4 23.2-.3 4.3-.1 8.6-.2 12.9 0 1.5-.5 3.8.6 5 .9 1 2.2-.3 1.7-1.3-.8-1.7-.1-7.1-.2-9.4-.1-3.6-.3-7.3-.7-10.9-.7-6.6.5-13.1-.9-19.7-.2-.3-.7-.2-.7.2z"/><path d="M23.8 50c8.2.1 16.5.3 24.7.3 1.1 0 1.1-1.8 0-1.8-4.4 0-8.9 0-13.3-.1-3.5-.1-8.4-1.1-11.6.8-.4.3-.2.8.2.8zm47.5 0c8.4 1.3 17 .2 25.4.8.5 0 1-.5 1-1-.1-.5-.1-1-.2-1.5-.1-1.1-1.5-1-1.6 0-.1.9-22 .6-24.4.7-.7-.1-.8.9-.2 1zm-53.8 9.4c10.5.2 21-.2 31.4-.1.9 0 .8-1.4 0-1.3-10.5.1-20.9.5-31.4.8-.4 0-.4.6 0 .6zm53.8-.3c10 1 20.5.6 30.5.2.7 0 .6-1 0-1-10.2-.4-20.3.3-30.5.2-.4 0-.4.6 0 .6zm35 1.8c-11.6-.3-23.1-.1-34.7-.2-.9 0-.8 1.4 0 1.3 11.6-.1 23.1-.3 34.7-.5.4 0 .4-.6 0-.6zm-56.2.3c-12 .7-24.1-1.3-36.1-.2-.7.1-.6 1 0 1 6.2.5 12.5-.1 18.7.1 5.7.1 11.7.5 17.4-.3.4 0 .4-.6 0-.6zM33 96c-3.6-3.4-9.3-3.7-13.2-6.8-1-.8-2.4.7-1.4 1.5 3.9 3 9.2 4.7 13.7 6.5.7.3 1.5-.5.9-1.2zm-14.1 6.9c4 3.1 8.4 5 13 6.8 1 .4 1.5-1 .5-1.3-4.6-1.4-8.4-5.2-13.2-6.1-.3-.1-.6.3-.3.6zm13-19.5c4 3.1 8.4 5 13 6.8 1 .4 1.5-1 .5-1.3-4.6-1.4-8.4-5.2-13.2-6.1-.3-.1-.6.4-.3.6zm-6 3.1c4 3.1 8.4 5 13 6.8 1 .4 1.5-1 .5-1.3-4.6-1.4-8.4-5.2-13.2-6.1-.3-.1-.6.4-.3.6z"/><path d="M31.7 97c-1 3.6-.6 8.2-.1 11.9.1.6 1.1.9 1.2.1.6-3.7.9-8.4-.1-12-.1-.6-.9-.6-1 0zm-13.1-6.6c-.4 4-.4 8-.3 12 0 1.4 2.2 1.3 2.1-.1-.2-4-.2-8.1-1.1-12.1-.1-.3-.7-.2-.7.2z"/><path d="M45.4 89.3c-2.3.8-4.4 2.1-6.6 3.1-2.4 1.1-4.8 2.1-7.2 3.3-1.2.6-.1 2.3 1.1 1.7 4.3-2.3 9.8-3.6 13.4-6.9.6-.5 0-1.5-.7-1.2zm-.1 13c-4.7 1-8.8 4.4-13.2 6.1-.9.3-.4 1.7.4 1.4 4.3-1.8 10-3.2 13.2-6.9.3-.3 0-.7-.4-.6zM32.5 82.7c-4.7 1-8.8 4.4-13.2 6.1-.9.3-.4 1.7.4 1.4 4.3-1.8 10-3.2 13.2-6.9.2-.3-.1-.7-.4-.6z"/><path d="M45.1 90.2c-.5 4.1-.6 8.1-.8 12.2-.1 1.4 2.1 1.3 2.1-.1.1-4 .3-8.2-.6-12.2-.1-.3-.7-.3-.7.1zm30.4.3c3.3 3.7 9.3 4.3 13.4 6.9 1.1.7 2.1-1.1 1-1.8-1.9-1.2-3.9-2-5.9-2.8-2.7-1-5.1-2.3-7.6-3.6-.9-.3-1.5.7-.9 1.3zm.3 12.4c4 3.1 8.4 5 13 6.8 1 .4 1.5-1 .5-1.3-4.6-1.4-8.4-5.2-13.2-6.1-.2-.1-.6.3-.3.6zm13-19.5c4 3.1 8.4 5 13 6.8 1 .4 1.5-1 .5-1.3-4.6-1.4-8.4-5.2-13.2-6.1-.2-.1-.6.4-.3.6zm-6 3.1c4 3.1 8.4 5 13 6.8 1 .4 1.5-1 .5-1.3-4.6-1.4-8.4-5.2-13.2-6.1-.3-.1-.6.4-.3.6z"/><path d="M88.6 97c-1 3.6-.6 8.2-.1 11.9.1.6 1.1.9 1.2.1.6-3.7.9-8.4-.1-12-.1-.6-.9-.6-1 0zm-13.1-6.6c-.4 4-.4 8-.3 12 0 1.4 2.2 1.3 2.1-.1-.2-4-.2-8.1-1.1-12.1-.1-.3-.7-.2-.7.2z"/><path d="M102.3 89.3c-2.3.8-4.4 2.1-6.6 3.1-2.4 1.1-4.8 2.1-7.2 3.3-1.2.6-.1 2.3 1.1 1.7 4.3-2.3 9.8-3.6 13.4-6.9.6-.5 0-1.5-.7-1.2zm0 13c-4.7 1-8.8 4.4-13.2 6.1-.9.3-.4 1.7.4 1.4 4.3-1.8 10-3.2 13.2-6.9.2-.3-.1-.7-.4-.6zM89.4 82.7c-4.7 1-8.8 4.4-13.2 6.1-.9.3-.4 1.7.4 1.4 4.3-1.8 10-3.2 13.2-6.9.2-.3-.1-.7-.4-.6z"/><path d="M102 90.2c-.5 4.1-.6 8.1-.8 12.2-.1 1.4 2.1 1.3 2.1-.1.1-4 .3-8.2-.6-12.2-.1-.3-.6-.3-.7.1zm-55.1-7.6c3.3 3.7 9.3 4.3 13.4 6.9 1.1.7 2.1-1.1 1-1.8-1.9-1.2-3.9-2-5.9-2.8-2.7-1-5.1-2.3-7.6-3.6-.8-.3-1.5.6-.9 1.3zm.4 12.3c4 3.1 8.4 5 13 6.8 1 .4 1.5-1 .5-1.3-4.6-1.4-8.4-5.2-13.2-6.1-.3-.1-.7.4-.3.6zm13-19.4c4 3.1 8.4 5 13 6.8 1 .4 1.5-1 .5-1.3-4.6-1.4-8.4-5.2-13.2-6.1-.3-.1-.7.3-.3.6zm-6.1 3.1c4 3.1 8.4 5 13 6.8 1 .4 1.5-1 .5-1.3-4.6-1.4-8.4-5.2-13.2-6.1-.3-.1-.6.3-.3.6z"/><path d="M60 89c-1 3.6-.6 8.2-.1 11.9.1.6 1.1.9 1.2.1.6-3.7.9-8.4-.1-12-.1-.6-.9-.5-1 0zm-13.1-6.6c-.4 4-.4 8-.3 12 0 1.4 2.2 1.3 2.1-.1-.2-4-.2-8.1-1.1-12.1-.1-.3-.7-.2-.7.2z"/><path d="M73.7 81.3c-2.3.8-4.4 2.1-6.6 3.1-2.4 1.1-4.8 2.1-7.2 3.3-1.2.6-.1 2.3 1.1 1.7 4.3-2.3 9.8-3.6 13.4-6.9.6-.5 0-1.5-.7-1.2zm0 13c-4.7 1-8.8 4.4-13.2 6.1-.9.3-.4 1.7.4 1.4 4.3-1.8 10-3.2 13.2-6.9.2-.3-.1-.7-.4-.6zM60.8 74.7c-4.7 1-8.8 4.4-13.2 6.1-.9.3-.4 1.7.4 1.4 4.3-1.8 10-3.2 13.2-6.9.2-.3 0-.7-.4-.6z"/><path d="M73.4 82.2c-.5 4.1-.6 8.1-.8 12.2-.1 1.4 2.1 1.3 2.1-.1.1-4 .3-8.2-.6-12.2 0-.3-.6-.3-.7.1zM95.9 7.5c-1.6 6.2-.8 12.5-.8 18.8 0 7.4-.5 15.1.5 22.5.1.8 1.3 1.1 1.5.2 1.2-6.8.5-13.9.3-20.8-.2-6.8.6-13.8-.6-20.6 0-.6-.7-.5-.9-.1z"/></g></svg>