<?xml version="1.0" encoding="utf-8"?>
<!-- Generator: Adobe Illustrator 23.0.1, SVG Export Plug-In . SVG Version: 6.00 Build 0)  -->
<svg version="1.1" xmlns="http://www.w3.org/2000/svg" xmlns:xlink="http://www.w3.org/1999/xlink" x="0px" y="0px"
	 viewBox="0 0 118 109.8" style="enable-background:new 0 0 118 109.8;" xml:space="preserve">
<style type="text/css">
	.st0{fill:#D1D3D4;}
	.st1{fill:#939598;}
	.st2{fill:#FFFFFF;}
	.st3{fill:#7596CC;}
	.st4{fill:#2B56A7;}
	.st5{fill:#AC9959;}
	.st6{fill:#C6B481;}
	.st7{fill:#BCBEC0;}
	.st8{fill:url(#SVGID_1_);}
</style>
<g id="Layer_1">
</g>
<g id="Layer_2">
	<polygon class="st0" points="103.6,55.3 16.1,55.3 1.3,64.3 2.1,66.5 115.6,66.5 116.2,62.8 	"/>
	<polygon class="st1" points="2.5,63.5 1.3,64.3 2.1,66.5 115.6,66.5 116.1,63.5 	"/>
	<rect x="16.1" y="1" class="st1" width="87.5" height="54.3"/>
	<rect x="23.3" y="8.2" class="st2" width="73.5" height="41.2"/>
	<rect x="23.3" y="8.2" class="st3" width="6.1" height="41.2"/>
	<rect x="90.6" y="8.2" class="st3" width="6.1" height="41.2"/>
	<rect x="23.5" y="8.7" class="st4" width="73.5" height="16.9"/>
	<g>
		<polygon class="st5" points="19,90.4 32.3,96.8 45.3,90.3 45.2,102.9 32,109.3 19.2,102.6 		"/>
		<polygon class="st6" points="45.3,90.3 32.3,96.8 19,90.4 32.3,83.1 		"/>
	</g>
	<g>
		<polygon class="st5" points="47.5,82.3 60.8,88.7 73.8,82.2 73.7,94.8 60.5,101.2 47.7,94.6 		"/>
		<polygon class="st6" points="73.8,82.2 60.8,88.7 47.5,82.3 60.8,75.1 		"/>
	</g>
	<g>
		<polygon class="st5" points="76.2,90.2 89.4,96.6 102.4,90.1 102.3,102.7 89.2,109.1 76.3,102.5 		"/>
		<polygon class="st6" points="102.4,90.1 89.4,96.6 76.2,90.2 89.4,83 		"/>
	</g>
	<g>
		<g>
			<path class="st2" d="M38.9,14.3C38.9,14.3,38.9,14.3,38.9,14.3c0,0-0.1,0.2-0.1,0.1c-0.2,0.8-0.3,1.7-0.3,2.5
				c0,0.9-0.1,1.9,0.1,2.7c0,0.2,0.2,0.3,0.3,0.3c0.3,0.1,0.6-0.1,0.6-0.4c0-0.5-0.1-1-0.1-1.6c0-0.8-0.1-1.6-0.2-2.4
				c0-0.4,0-0.8-0.2-1.1c0,0-0.1,0-0.1,0C38.8,14.6,38.8,14.3,38.9,14.3C38.7,14.4,38.7,14.3,38.9,14.3L38.9,14.3z"/>
			<path class="st2" d="M40.4,17c0.3-0.1,0.8-0.1,1.1-0.1c0.5,0,0.7,0.1,0.8,0.6c0.1,0.5,0.1,1,0,1.5c0,0.4-0.1,0.9,0.2,1.2
				c0.1,0.2,0.4,0.1,0.5-0.1c0.3-0.4,0.2-1.4,0.2-1.9c0-0.6,0-1.3-0.5-1.7c-0.6-0.6-2.1-0.6-2.6,0.2C40,16.9,40.2,17.1,40.4,17
				L40.4,17z"/>
			<path class="st2" d="M42.5,18c-0.6,0-1.2-0.3-1.7-0.1c-0.7,0.2-0.8,1-0.7,1.7c0.1,0.7,0.8,0.8,1.3,0.7c0.5-0.1,1.3-0.4,1.5-0.9
				c0.1-0.2-0.1-0.5-0.4-0.5c-0.3,0-1.5,1-1.7,0.4c-0.1-0.5,0.2-0.7,0.6-0.8c0.4-0.1,0.8-0.1,1.2-0.3C42.6,18.2,42.6,18,42.5,18
				L42.5,18z"/>
			<path class="st2" d="M44.2,14.5c-0.5,0.6-0.3,1.7-0.3,2.4c0.1,1,0,2,0,2.9c0,0.5,0.8,0.5,0.8,0c0-0.9,0-1.8,0-2.7
				c0-0.5-0.1-0.9-0.1-1.4c0-0.4,0-0.8-0.1-1.2C44.4,14.4,44.2,14.4,44.2,14.5L44.2,14.5z"/>
			<path class="st2" d="M44.6,17.5c0.5-0.2,1.4-1.1,1.7-0.2c0.1,0.4,0.1,1.1-0.1,1.4c-0.3,0.6-1.1,0.1-1.5-0.1
				c-0.4-0.2-0.8,0.3-0.5,0.6c0.6,0.7,1.7,1.1,2.5,0.3c0.6-0.6,0.6-1.6,0.4-2.4c-0.2-0.7-0.7-1.1-1.4-1.1c-0.6,0-1.3,0.5-1.4,1.2
				C44.4,17.5,44.5,17.6,44.6,17.5L44.6,17.5z"/>
			<path class="st2" d="M50,16.5c-0.6-0.4-1.2-0.4-1.7,0c-0.5,0.4-0.5,1.1-0.1,1.5c0.3,0.3,1.5,0.5,1.4,1c-0.1,0.7-1.2,0.5-1.6,0.2
				c-0.4-0.3-0.8,0.4-0.4,0.7c0.9,0.7,2.5,0.4,2.8-0.8c0.1-0.6-0.3-1-0.8-1.2c-0.3-0.2-0.7-0.2-1-0.5c-0.3-0.2,0.3-0.5,0.5-0.6
				c0.2-0.1,0.5,0,0.7,0C50.1,16.9,50.2,16.7,50,16.5L50,16.5z"/>
			<path class="st2" d="M53.4,16.7c-0.5-0.5-1.3-0.6-1.9-0.2c-0.7,0.4-0.9,1.2-0.9,2c0.1,1.5,2,2.7,3.1,1.3c0.3-0.4-0.2-0.7-0.5-0.5
				c-0.4,0.2-0.7,0.4-1.1,0.2c-0.4-0.2-0.6-0.7-0.7-1.1c0-0.4,0.1-0.9,0.4-1.2c0.4-0.4,0.9-0.3,1.4-0.1
				C53.4,17.1,53.5,16.8,53.4,16.7L53.4,16.7z"/>
			<path class="st2" d="M55.5,16.5c-0.8-0.8-1.6,0.5-1.8,1.2c-0.2,1.1,0.3,2.3,1.5,2.6c2.6,0.6,2.8-3.8,0.2-4.1
				c-0.5,0-0.6,0.7-0.1,0.8c0.7,0.2,1.1,0.6,1.1,1.3c0,0.6-0.4,1.1-1,1.1c-0.8,0-1-0.8-1-1.5c0-0.7,0.4-1.1,1-1.3
				C55.6,16.6,55.6,16.5,55.5,16.5L55.5,16.5z"/>
			<path class="st2" d="M59.5,16.3c-0.8-0.8-1.6,0.5-1.8,1.2c-0.2,1.1,0.3,2.3,1.5,2.6c2.6,0.6,2.8-3.8,0.2-4.1
				c-0.5,0-0.6,0.7-0.1,0.8c0.7,0.2,1.1,0.6,1.1,1.3c0,0.6-0.4,1.1-1,1.1c-0.8,0-1-0.8-1-1.5c0-0.7,0.4-1.1,1-1.3
				C59.6,16.5,59.6,16.4,59.5,16.3L59.5,16.3z"/>
			<path class="st2" d="M62.1,16.4c-0.3,0.8-0.2,1.8-0.2,2.7c0,0.8-0.3,1.6,0.1,2.3c0.2,0.3,0.7,0.2,0.7-0.2c-0.1-0.8,0-1.6,0-2.4
				c0-0.8,0.1-1.8-0.3-2.5C62.3,16.2,62.1,16.3,62.1,16.4L62.1,16.4z"/>
			<path class="st2" d="M62.7,17.5c0.3-0.4,0.7-0.7,1.2-0.7c0.5,0,0.6,1,0.7,1.3c0,0.4-0.1,0.9-0.5,1.1c-0.4,0.3-1,0.2-1.3-0.2
				c-0.3-0.4-0.8-0.1-0.6,0.4c0.4,0.7,1.2,0.8,1.9,0.6c0.9-0.2,1.2-1.1,1.2-1.9c0-0.7-0.3-1.7-1-2c-0.8-0.2-1.8,0.3-2,1.1
				C62.3,17.5,62.5,17.6,62.7,17.5L62.7,17.5z"/>
		</g>
		<g>
			<circle class="st2" cx="29.1" cy="15" r="1.2"/>
			<circle class="st2" cx="31.8" cy="15" r="1.2"/>
			<circle class="st2" cx="34.6" cy="15" r="1.2"/>
			<circle class="st2" cx="29.1" cy="17.7" r="1.2"/>
			<circle class="st2" cx="31.8" cy="17.7" r="1.2"/>
			<circle class="st2" cx="34.6" cy="17.7" r="1.2"/>
			<circle class="st2" cx="29.1" cy="20.4" r="1.2"/>
			<circle class="st2" cx="31.8" cy="20.4" r="1.2"/>
			<circle class="st2" cx="34.6" cy="20.4" r="1.2"/>
		</g>
	</g>
	<g>
		<g>
			<g>
				<path class="st2" d="M74.9,14.1c2.3,0.1,4.6-0.2,7-0.1c2.8,0.1,5.4,0.2,8.2,0c0.7-0.1,0.7-1.1,0-1.1c-4.9-0.1-10.5-1-15.3,0.2
					C74.1,13.2,74.3,14,74.9,14.1L74.9,14.1z"/>
			</g>
		</g>
		<g>
			<g>
				<path class="st2" d="M74.3,18c2,0.7,4.5,0.1,6.6,0.1c3.4,0,6.8-0.3,10.2,0c0.6,0,0.7-0.9,0.1-1c-2.6-0.4-5.3-0.1-8-0.2
					c-3-0.2-6,0.5-8.9,0.2C73.8,17,73.8,17.8,74.3,18L74.3,18z"/>
			</g>
		</g>
		<g>
			<g>
				<path class="st2" d="M74,22c2.3-0.2,4.5,0,6.7,0.2c3.3,0.3,6.5-0.4,9.7-0.3c0.7,0,0.7-1.1,0-1.1c-3.2-0.1-6.5,0.3-9.8,0.1
					c-2.3-0.2-4.8-0.7-6.9,0.4C73.5,21.5,73.7,22,74,22L74,22z"/>
			</g>
		</g>
	</g>
	<g>
		<g>
			<g>
				<path class="st7" d="M36.1,31.1c16.1,0.2,32.3,0.4,48.3,0.1c0.4,0,0.4-0.6,0-0.6c-16,0-32.3-1.2-48.3,0
					C35.8,30.6,35.8,31.1,36.1,31.1L36.1,31.1z"/>
			</g>
		</g>
		<g>
			<g>
				<path class="st7" d="M35.9,35.5c16.2-0.4,32.6-0.6,48.8,0c0.4,0,0.3-0.5,0-0.6c-8.5-0.5-17.1-0.1-25.7-0.2
					c-7.6-0.1-15.5-0.4-23.1,0.2C35.5,35,35.5,35.5,35.9,35.5L35.9,35.5z"/>
			</g>
		</g>
		<g>
			<g>
				<path class="st7" d="M35.9,43.3c16.2-0.4,32.6-0.6,48.8,0c0.4,0,0.3-0.5,0-0.6c-8.5-0.5-17.1-0.1-25.7-0.2
					c-7.6-0.1-15.5-0.4-23.1,0.2C35.5,42.8,35.5,43.3,35.9,43.3L35.9,43.3z"/>
			</g>
		</g>
		<g>
			<g>
				<path class="st7" d="M36.1,39.3c6.8-0.4,13.6-0.1,20.4,0.1c9.4,0.3,18.9-0.4,28.3-0.2c0.4,0,0.4-0.6,0-0.6
					c-9.4-0.1-18.9,0.3-28.3,0.1c-6.7-0.1-13.7-0.9-20.4,0.2C35.8,38.9,35.9,39.3,36.1,39.3L36.1,39.3z"/>
			</g>
		</g>
	</g>
	<g>
		<g>
			<path d="M16.4,1.8C31.4,3.3,46.9,2.5,62,2.3c13.8-0.2,27.8-0.3,41.6,0c1.4,0,1.4-2.1-0.1-2.2c-6.3-0.3-12.6,0.3-18.9,0.3
				c-7,0-14-0.1-21,0.1c-15.7,0.4-31.6-1-47.2,0.6C15.9,1.1,15.9,1.8,16.4,1.8L16.4,1.8z"/>
		</g>
	</g>
	<g>
		<g>
			<path d="M49.3,65.4c-15.6-0.4-31.2,0.4-46.7,0c-1.4,0-1.4,2.1,0.1,2.2c15.5,0.6,31.2-0.3,46.7-0.3C50.5,67.3,50.5,65.5,49.3,65.4
				L49.3,65.4z"/>
		</g>
	</g>
	<g>
		<g>
			<path d="M111.6,65.9c-13.4-0.6-26.9,0.3-40.2-0.5c-1.2-0.1-1.2,1.9,0,1.9c13.4-0.5,26.8,0,40.2-0.7
				C112.1,66.6,112.1,65.9,111.6,65.9L111.6,65.9z"/>
		</g>
	</g>
	<g>
		<g>
			<path d="M15.3,1.7c-0.7,9.2-0.6,18.5-0.5,27.7c0.1,8.4-1,17.9,0.6,26.1c0.1,0.5,1,0.5,1.1,0c1.5-8.3,0.5-17.7,0.4-26.1
				c-0.1-9,1.6-19.1-0.5-27.8C16.2,0.9,15.4,1.1,15.3,1.7L15.3,1.7z"/>
		</g>
	</g>
	<g>
		<g>
			<path d="M103.7,0.8c-0.9,4-0.6,7.9-0.6,12c0.1,5.4-0.4,10.8-0.6,16.2c-0.4,8.6-0.3,17.4,0.3,26c0.1,1.3,1.9,1.2,1.9,0
				c0.5-8-0.1-16.1-0.1-24.1c0-9.8,0.8-20.2-0.5-29.9C104.1,0.6,103.8,0.5,103.7,0.8L103.7,0.8z"/>
		</g>
	</g>
	<g>
		<g>
			<path d="M70.7,56.5c5.8,0,11.5,0.1,17.3,0.1c4.9,0,11.3,1.4,16-0.2c1-0.3,1.1-1.9-0.1-2.2c-2.2-0.5-3.9-0.1-6.2,0.2
				c-3.2,0.3-6.6,0.2-9.8,0.2c-5.8,0-11.5-0.2-17.3-0.2C69.3,54.4,69.3,56.5,70.7,56.5L70.7,56.5z"/>
		</g>
	</g>
	<g>
		<g>
			<path d="M15.2,56c11.4,1,22.7-0.1,34.1,0.1c1.3,0,1.3-2.1-0.1-2.1c-4.7-0.1-9.2,0.2-13.9,0.4C28.7,54.9,21.9,54,15.2,55
				C14.5,55.1,14.5,56,15.2,56L15.2,56z"/>
		</g>
	</g>
	<g>
		<g>
			<path d="M23.2,9.2c10.3,1.4,21.2,0.4,31.6,0.4c4.8,0,9.5,0,14.3-0.2c5.1-0.2,10.2-0.2,15.4-0.2c4.2,0,8.7,1.1,12.7,0.1
				c1.1-0.3,1-2-0.1-2.2c-3.5-0.7-7.3,0.2-10.9,0.2c-5.1,0-10.2-0.1-15.3-0.1c-5,0.1-10.1,0.3-15.1,0.3c-5.8,0-11.6,0-17.5,0.1
				c-5,0-10.3-0.4-15.2,0.6C22.6,8.2,22.7,9.1,23.2,9.2L23.2,9.2z"/>
		</g>
	</g>
	<g>
		<g>
			<path d="M15.1,55c-4.8,2.7-9.6,5.6-14.5,8.1c-0.5,0.2-0.7,0.9-0.5,1.4c0.3,0.7,0.5,1.7,1,2.3c0.7,0.9,2.4,0.7,2.3-0.7
				c-0.1-0.8-0.5-1.6-0.8-2.3c-0.2,0.5-0.4,1-0.5,1.4c4.7-2.6,10.9-5,13.7-9.8C15.8,55.2,15.4,54.9,15.1,55L15.1,55z"/>
		</g>
	</g>
	<g>
		<g>
			<path d="M101.1,55.1c2.5,1.5,4.9,3.2,7.5,4.6c1.2,0.6,2.3,1.3,3.6,1.9c1.8,0.8,3.6,1.1,2.6,3.4c-0.8,1.8,1.8,2.8,2.5,1
				c0.5-1.3,1.3-3,0.2-4.2c-1.3-1.3-3.5-1.7-5.2-2.5c-3.7-1.8-7-3.5-11-4.6C101,54.6,100.9,54.9,101.1,55.1L101.1,55.1z"/>
		</g>
	</g>
	<g>
		<linearGradient id="SVGID_1_" gradientUnits="userSpaceOnUse" x1="60.402" y1="75.0774" x2="60.402" y2="27.7728">
			<stop  offset="0" style="stop-color:#2B56A7;stop-opacity:0"/>
			<stop  offset="0.1425" style="stop-color:#2B56A7"/>
		</linearGradient>
		<polygon class="st8" points="50.1,75.1 69.9,75.1 70.4,44.3 77.6,44 60.7,27.8 43.2,43.9 50.1,44.5 		"/>
		<g>
			<g>
				<path d="M49.8,44.3c0.1,6-0.4,12.1-0.3,18.1c0.1,4.2-0.7,8.9,0.1,13.1c0.1,0.5,0.9,0.5,1,0c0.8-4.3-0.2-8.8,0.1-13.1
					c0.5-5.8,0.2-12.2-0.3-18.1C50.4,43.9,49.8,43.9,49.8,44.3L49.8,44.3z"/>
			</g>
		</g>
		<g>
			<g>
				<path d="M69.6,44.3c-0.9,5-0.4,10.1-0.5,15.2c0,5.3,0.1,10.4,0.7,15.7c0,0.3,0.5,0.3,0.5,0c0.1-5.2,0.6-10.5,0.6-15.7
					c0-4.8,0.8-10.6-0.8-15.2C70,44.1,69.6,44.1,69.6,44.3L69.6,44.3z"/>
			</g>
		</g>
		<g>
			<g>
				<path d="M43.1,45c6.1-5.4,11.9-11,17.9-16.4c0.8-0.7-0.4-1.8-1.2-1.1c-6.1,5.3-11.9,11-17.9,16.4C41.1,44.6,42.3,45.7,43.1,45
					L43.1,45z"/>
			</g>
		</g>
		<g>
			<g>
				<path d="M78.2,43.5c-5.5-5.6-11.5-10.8-17-16.4c-0.7-0.7-1.9,0.5-1.1,1.1c6,5.2,11.4,10.9,17.1,16.3
					C77.8,45.2,78.8,44.2,78.2,43.5L78.2,43.5z"/>
			</g>
		</g>
		<g>
			<g>
				<path d="M69.3,44.6c0.5,0.9,1.6,0.9,2.5,0.9c1.7,0.1,3.4-0.1,5.1,0.2c1.6,0.2,2.2-2.2,0.6-2.4c-1.6-0.2-3.1-0.2-4.7-0.2
					c-1.1,0.1-2.9,0-3.5,1.1C69.2,44.3,69.2,44.5,69.3,44.6L69.3,44.6z"/>
			</g>
		</g>
		<g>
			<g>
				<path d="M42.6,45.2c2.2,0.2,4.4,0.1,6.6,0.4c1.5,0.2,2.1-2,0.6-2.3c-2.5-0.4-5-0.1-7.4,0.6C41.6,44.1,41.9,45.1,42.6,45.2
					L42.6,45.2z"/>
			</g>
		</g>
	</g>
	<g>
		<g>
			<path d="M22.6,8.3c-0.6,7.8,1,15.5,0.4,23.2c-0.3,4.3-0.1,8.6-0.2,12.9c0,1.5-0.5,3.8,0.6,5c0.9,1,2.2-0.3,1.7-1.3
				c-0.8-1.7-0.1-7.1-0.2-9.4c-0.1-3.6-0.3-7.3-0.7-10.9c-0.7-6.6,0.5-13.1-0.9-19.7C23.1,7.8,22.6,7.9,22.6,8.3L22.6,8.3z"/>
		</g>
	</g>
	<g>
		<g>
			<path d="M23.8,50c8.2,0.1,16.5,0.3,24.7,0.3c1.1,0,1.1-1.8,0-1.8c-4.4,0-8.9,0-13.3-0.1c-3.5-0.1-8.4-1.1-11.6,0.8
				C23.2,49.5,23.4,50,23.8,50L23.8,50z"/>
		</g>
	</g>
	<g>
		<g>
			<path d="M71.3,50c8.4,1.3,17,0.2,25.4,0.8c0.5,0,1-0.5,1-1c-0.1-0.5-0.1-1-0.2-1.5c-0.1-1.1-1.5-1-1.6,0
				c-0.1,0.9-22,0.6-24.4,0.7C70.8,48.9,70.7,49.9,71.3,50L71.3,50z"/>
		</g>
	</g>
	<g>
		<g>
			<path d="M17.5,59.4c10.5,0.2,21-0.2,31.4-0.1c0.9,0,0.8-1.4,0-1.3c-10.5,0.1-20.9,0.5-31.4,0.8C17.1,58.8,17.1,59.4,17.5,59.4
				L17.5,59.4z"/>
		</g>
	</g>
	<g>
		<g>
			<path d="M71.3,59.1c10,1,20.5,0.6,30.5,0.2c0.7,0,0.6-1,0-1c-10.2-0.4-20.3,0.3-30.5,0.2C70.9,58.5,70.9,59.1,71.3,59.1
				L71.3,59.1z"/>
		</g>
	</g>
	<g>
		<g>
			<path d="M106.3,60.9c-11.6-0.3-23.1-0.1-34.7-0.2c-0.9,0-0.8,1.4,0,1.3c11.6-0.1,23.1-0.3,34.7-0.5
				C106.7,61.5,106.7,60.9,106.3,60.9L106.3,60.9z"/>
		</g>
	</g>
	<g>
		<g>
			<path d="M50.1,61.2C38.1,61.9,26,59.9,14,61c-0.7,0.1-0.6,1,0,1c6.2,0.5,12.5-0.1,18.7,0.1c5.7,0.1,11.7,0.5,17.4-0.3
				C50.5,61.8,50.5,61.2,50.1,61.2L50.1,61.2z"/>
		</g>
	</g>
	<g>
		<g>
			<g>
				<path d="M33,96c-3.6-3.4-9.3-3.7-13.2-6.8c-1-0.8-2.4,0.7-1.4,1.5c3.9,3,9.2,4.7,13.7,6.5C32.8,97.5,33.6,96.7,33,96L33,96z"/>
			</g>
		</g>
		<g>
			<g>
				<path d="M18.9,102.9c4,3.1,8.4,5,13,6.8c1,0.4,1.5-1,0.5-1.3c-4.6-1.4-8.4-5.2-13.2-6.1C18.9,102.2,18.6,102.6,18.9,102.9
					L18.9,102.9z"/>
			</g>
		</g>
		<g>
			<g>
				<path d="M31.9,83.4c4,3.1,8.4,5,13,6.8c1,0.4,1.5-1,0.5-1.3c-4.6-1.4-8.4-5.2-13.2-6.1C31.9,82.7,31.6,83.2,31.9,83.4L31.9,83.4
					z"/>
			</g>
		</g>
		<g>
			<g>
				<path d="M25.9,86.5c4,3.1,8.4,5,13,6.8c1,0.4,1.5-1,0.5-1.3c-4.6-1.4-8.4-5.2-13.2-6.1C25.9,85.8,25.6,86.3,25.9,86.5L25.9,86.5
					z"/>
			</g>
		</g>
		<g>
			<g>
				<path d="M31.7,97c-1,3.6-0.6,8.2-0.1,11.9c0.1,0.6,1.1,0.9,1.2,0.1c0.6-3.7,0.9-8.4-0.1-12C32.6,96.4,31.8,96.4,31.7,97L31.7,97
					z"/>
			</g>
		</g>
		<g>
			<g>
				<path d="M18.6,90.4c-0.4,4-0.4,8-0.3,12c0,1.4,2.2,1.3,2.1-0.1c-0.2-4-0.2-8.1-1.1-12.1C19.2,89.9,18.6,90,18.6,90.4L18.6,90.4z
					"/>
			</g>
		</g>
		<g>
			<g>
				<path d="M45.4,89.3c-2.3,0.8-4.4,2.1-6.6,3.1c-2.4,1.1-4.8,2.1-7.2,3.3c-1.2,0.6-0.1,2.3,1.1,1.7c4.3-2.3,9.8-3.6,13.4-6.9
					C46.7,90,46.1,89,45.4,89.3L45.4,89.3z"/>
			</g>
		</g>
		<g>
			<g>
				<path d="M45.3,102.3c-4.7,1-8.8,4.4-13.2,6.1c-0.9,0.3-0.4,1.7,0.4,1.4c4.3-1.8,10-3.2,13.2-6.9C46,102.6,45.7,102.2,45.3,102.3
					L45.3,102.3z"/>
			</g>
		</g>
		<g>
			<g>
				<path d="M32.5,82.7c-4.7,1-8.8,4.4-13.2,6.1c-0.9,0.3-0.4,1.7,0.4,1.4c4.3-1.8,10-3.2,13.2-6.9C33.1,83,32.8,82.6,32.5,82.7
					L32.5,82.7z"/>
			</g>
		</g>
		<g>
			<g>
				<path d="M45.1,90.2c-0.5,4.1-0.6,8.1-0.8,12.2c-0.1,1.4,2.1,1.3,2.1-0.1c0.1-4,0.3-8.2-0.6-12.2C45.7,89.8,45.1,89.8,45.1,90.2
					L45.1,90.2z"/>
			</g>
		</g>
	</g>
	<g>
		<g>
			<g>
				<path d="M75.5,90.5c3.3,3.7,9.3,4.3,13.4,6.9c1.1,0.7,2.1-1.1,1-1.8c-1.9-1.2-3.9-2-5.9-2.8c-2.7-1-5.1-2.3-7.6-3.6
					C75.5,88.9,74.9,89.9,75.5,90.5L75.5,90.5z"/>
			</g>
		</g>
		<g>
			<g>
				<path d="M75.8,102.9c4,3.1,8.4,5,13,6.8c1,0.4,1.5-1,0.5-1.3c-4.6-1.4-8.4-5.2-13.2-6.1C75.9,102.2,75.5,102.6,75.8,102.9
					L75.8,102.9z"/>
			</g>
		</g>
		<g>
			<g>
				<path d="M88.8,83.4c4,3.1,8.4,5,13,6.8c1,0.4,1.5-1,0.5-1.3c-4.6-1.4-8.4-5.2-13.2-6.1C88.9,82.7,88.5,83.2,88.8,83.4L88.8,83.4
					z"/>
			</g>
		</g>
		<g>
			<g>
				<path d="M82.8,86.5c4,3.1,8.4,5,13,6.8c1,0.4,1.5-1,0.5-1.3c-4.6-1.4-8.4-5.2-13.2-6.1C82.8,85.8,82.5,86.3,82.8,86.5L82.8,86.5
					z"/>
			</g>
		</g>
		<g>
			<g>
				<path d="M88.6,97c-1,3.6-0.6,8.2-0.1,11.9c0.1,0.6,1.1,0.9,1.2,0.1c0.6-3.7,0.9-8.4-0.1-12C89.5,96.4,88.7,96.4,88.6,97L88.6,97
					z"/>
			</g>
		</g>
		<g>
			<g>
				<path d="M75.5,90.4c-0.4,4-0.4,8-0.3,12c0,1.4,2.2,1.3,2.1-0.1c-0.2-4-0.2-8.1-1.1-12.1C76.1,89.9,75.5,90,75.5,90.4L75.5,90.4z
					"/>
			</g>
		</g>
		<g>
			<g>
				<path d="M102.3,89.3c-2.3,0.8-4.4,2.1-6.6,3.1c-2.4,1.1-4.8,2.1-7.2,3.3c-1.2,0.6-0.1,2.3,1.1,1.7c4.3-2.3,9.8-3.6,13.4-6.9
					C103.6,90,103,89,102.3,89.3L102.3,89.3z"/>
			</g>
		</g>
		<g>
			<g>
				<path d="M102.3,102.3c-4.7,1-8.8,4.4-13.2,6.1c-0.9,0.3-0.4,1.7,0.4,1.4c4.3-1.8,10-3.2,13.2-6.9
					C102.9,102.6,102.6,102.2,102.3,102.3L102.3,102.3z"/>
			</g>
		</g>
		<g>
			<g>
				<path d="M89.4,82.7c-4.7,1-8.8,4.4-13.2,6.1c-0.9,0.3-0.4,1.7,0.4,1.4c4.3-1.8,10-3.2,13.2-6.9C90,83,89.7,82.6,89.4,82.7
					L89.4,82.7z"/>
			</g>
		</g>
		<g>
			<g>
				<path d="M102,90.2c-0.5,4.1-0.6,8.1-0.8,12.2c-0.1,1.4,2.1,1.3,2.1-0.1c0.1-4,0.3-8.2-0.6-12.2C102.6,89.8,102.1,89.8,102,90.2
					L102,90.2z"/>
			</g>
		</g>
	</g>
	<g>
		<g>
			<g>
				<path d="M46.9,82.6c3.3,3.7,9.3,4.3,13.4,6.9c1.1,0.7,2.1-1.1,1-1.8c-1.9-1.2-3.9-2-5.9-2.8c-2.7-1-5.1-2.3-7.6-3.6
					C47,81,46.3,81.9,46.9,82.6L46.9,82.6z"/>
			</g>
		</g>
		<g>
			<g>
				<path d="M47.3,94.9c4,3.1,8.4,5,13,6.8c1,0.4,1.5-1,0.5-1.3c-4.6-1.4-8.4-5.2-13.2-6.1C47.3,94.2,46.9,94.7,47.3,94.9L47.3,94.9
					z"/>
			</g>
		</g>
		<g>
			<g>
				<path d="M60.3,75.5c4,3.1,8.4,5,13,6.8c1,0.4,1.5-1,0.5-1.3c-4.6-1.4-8.4-5.2-13.2-6.1C60.3,74.8,59.9,75.2,60.3,75.5L60.3,75.5
					z"/>
			</g>
		</g>
		<g>
			<g>
				<path d="M54.2,78.6c4,3.1,8.4,5,13,6.8c1,0.4,1.5-1,0.5-1.3c-4.6-1.4-8.4-5.2-13.2-6.1C54.2,77.9,53.9,78.3,54.2,78.6L54.2,78.6
					z"/>
			</g>
		</g>
		<g>
			<g>
				<path d="M60,89c-1,3.6-0.6,8.2-0.1,11.9c0.1,0.6,1.1,0.9,1.2,0.1c0.6-3.7,0.9-8.4-0.1-12C60.9,88.4,60.1,88.5,60,89L60,89z"/>
			</g>
		</g>
		<g>
			<g>
				<path d="M46.9,82.4c-0.4,4-0.4,8-0.3,12c0,1.4,2.2,1.3,2.1-0.1c-0.2-4-0.2-8.1-1.1-12.1C47.5,81.9,46.9,82,46.9,82.4L46.9,82.4z
					"/>
			</g>
		</g>
		<g>
			<g>
				<path d="M73.7,81.3c-2.3,0.8-4.4,2.1-6.6,3.1c-2.4,1.1-4.8,2.1-7.2,3.3c-1.2,0.6-0.1,2.3,1.1,1.7c4.3-2.3,9.8-3.6,13.4-6.9
					C75,82,74.4,81,73.7,81.3L73.7,81.3z"/>
			</g>
		</g>
		<g>
			<g>
				<path d="M73.7,94.3c-4.7,1-8.8,4.4-13.2,6.1c-0.9,0.3-0.4,1.7,0.4,1.4c4.3-1.8,10-3.2,13.2-6.9C74.3,94.6,74,94.2,73.7,94.3
					L73.7,94.3z"/>
			</g>
		</g>
		<g>
			<g>
				<path d="M60.8,74.7c-4.7,1-8.8,4.4-13.2,6.1c-0.9,0.3-0.4,1.7,0.4,1.4c4.3-1.8,10-3.2,13.2-6.9C61.4,75,61.2,74.6,60.8,74.7
					L60.8,74.7z"/>
			</g>
		</g>
		<g>
			<g>
				<path d="M73.4,82.2c-0.5,4.1-0.6,8.1-0.8,12.2c-0.1,1.4,2.1,1.3,2.1-0.1c0.1-4,0.3-8.2-0.6-12.2C74.1,81.8,73.5,81.8,73.4,82.2
					L73.4,82.2z"/>
			</g>
		</g>
	</g>
	<g>
		<g>
			<path d="M95.9,7.5c-1.6,6.2-0.8,12.5-0.8,18.8c0,7.4-0.5,15.1,0.5,22.5c0.1,0.8,1.3,1.1,1.5,0.2c1.2-6.8,0.5-13.9,0.3-20.8
				c-0.2-6.8,0.6-13.8-0.6-20.6C96.8,7,96.1,7.1,95.9,7.5L95.9,7.5z"/>
		</g>
	</g>
</g>
</svg>
