<svg width="76" height="76" viewBox="0 0 76 76" fill="none" xmlns="http://www.w3.org/2000/svg"><path d="M52.25 62.938H11.875A5.938 5.938 0 015.937 57v-2.375h40.376V57a5.937 5.937 0 005.937 5.938zM70.063 19v2.375H58.187V19a5.937 5.937 0 0111.876 0z" fill="#A8B6CA"/><path d="M23.75 13.063A5.937 5.937 0 0017.812 19v35.625h28.5V57a5.937 5.937 0 0011.876 0v-3.563h-7.126v-3.562h-1.187a4.466 4.466 0 014.477-4.75A2.648 2.648 0 0057 42.477a26.47 26.47 0 00-2.078-11.127 4.75 4.75 0 013.266-6.258V19a5.937 5.937 0 015.937-5.938H23.75zm27.313 14.25H24.936a1.188 1.188 0 010-2.375h26.125a1.188 1.188 0 010 2.375zm0-5.938H24.936a1.188 1.188 0 010-2.375h26.125a1.188 1.188 0 010 2.375z" fill="url(#paint0_linear)"/><path d="M51.063 49.875h16.624v3.563H51.064v-3.563z" fill="#0D51B5"/><path d="M68.875 49.602c0 .392 2.09.273-19 .273a4.464 4.464 0 014.477-4.75A2.648 2.648 0 0057 42.477a26.467 26.467 0 00-2.078-11.127 4.75 4.75 0 119.06-2.85c.725 3.1-2.232 5.842-2.232 13.977a2.648 2.648 0 002.648 2.648 4.477 4.477 0 014.477 4.477z" fill="#0168FF"/><path d="M35.625 51.062a9.499 9.499 0 115.938-16.945 1.19 1.19 0 01-1.497 1.852 7.125 7.125 0 102.684 5.593 1.187 1.187 0 01.986-1.377c3.325-.546.878 10.877-8.111 10.877z" fill="#FF6E41"/><path d="M35.625 46.313c-.653 0-.51 0-4.406-3.907a1.192 1.192 0 111.687-1.687l2.719 2.732 9.844-9.857a1.192 1.192 0 111.687 1.687c-11.531 11.59-10.83 11.032-11.531 11.032z" fill="#FF6E41"/><path d="M51.063 21.375H24.936a1.188 1.188 0 010-2.375h26.125a1.188 1.188 0 010 2.375zm0 5.938H24.936a1.188 1.188 0 010-2.375h26.125a1.188 1.188 0 010 2.375z" fill="#A8B6CA"/><defs><linearGradient id="paint0_linear" x1="40.969" y1="62.938" x2="40.969" y2="13.063" gradientUnits="userSpaceOnUse"><stop stop-color="#C8D4E6"/><stop offset="1" stop-color="#E8EFF9"/></linearGradient></defs></svg>