<svg width="76" height="76" viewBox="0 0 76 76" fill="none" xmlns="http://www.w3.org/2000/svg"><path d="M42 46.751a14.25 14.25 0 001.247 7.125 14.071 14.071 0 002.874 4.145 14.25 14.25 0 0012.504 3.966v6.14A2.375 2.375 0 0156.25 70.5H11.125a2.303 2.303 0 01-2.375-2.22V6.22A2.304 2.304 0 0111.125 4H46.75v9.417a2.373 2.373 0 002.375 2.458h9.5V33.89A14.249 14.249 0 0042 46.75z" fill="url(#paint0_linear)"/><path d="M58.625 15.876h-9.5a2.375 2.375 0 01-2.375-2.458V4l11.875 11.875z" fill="#A8B6CA"/><circle cx="19.5" cy="22.5" r="3.5" fill="#A8B6CA"/><rect x="26" y="21" width="20" height="3" rx="1.5" fill="#A8B6CA"/><circle cx="19.5" cy="32.5" r="3.5" fill="#A8B6CA"/><rect x="26" y="31" width="8" height="3" rx="1.5" fill="#A8B6CA"/><circle cx="19.5" cy="42.5" r="3.5" fill="#A8B6CA"/><rect x="26" y="41" width="14" height="3" rx="1.5" fill="#A8B6CA"/><circle cx="19.5" cy="52.5" r="3.5" fill="#A8B6CA"/><rect x="26" y="51" width="20" height="3" rx="1.5" fill="#A8B6CA"/><path d="M59.75 31h-17.5A5.25 5.25 0 0037 36.25V69.5a5.25 5.25 0 005.25 5.25h17.5A5.25 5.25 0 0065 69.5V36.25A5.25 5.25 0 0059.75 31z" fill="#0168FF"/><path d="M61.203 35.27a2.022 2.022 0 00-.473-.473 1.94 1.94 0 00-.297-.157 1.751 1.751 0 00-.683-.14h-3.5l-.403.788a1.75 1.75 0 01-1.557.962h-6.58a1.75 1.75 0 01-.875-.263 1.75 1.75 0 01-.648-.7l-.437-.787h-3.5c-.235 0-.467.048-.682.14a1.94 1.94 0 00-.298.157c-.183.13-.342.29-.473.473-.192.29-.295.631-.297.98V69.5c.002.349.105.69.297.98a2 2 0 00.473.472c.094.061.194.114.297.158.216.092.448.14.683.14h17.5c.235 0 .467-.048.682-.14a1.94 1.94 0 00.298-.157c.183-.13.342-.29.473-.473.192-.29.295-.631.297-.98V36.25a1.794 1.794 0 00-.297-.98z" fill="#F0F7FC"/><path fill-rule="evenodd" clip-rule="evenodd" d="M55.06 40.94a1.5 1.5 0 010 2.12l-4 4a1.5 1.5 0 01-2.12 0l-2-2a1.5 1.5 0 012.12-2.12l.94.939 2.94-2.94a1.5 1.5 0 012.12 0zm0 10a1.5 1.5 0 010 2.12l-4 4a1.5 1.5 0 01-2.12 0l-2-2a1.5 1.5 0 012.12-2.12l.94.939 2.94-2.94a1.5 1.5 0 012.12 0zm0 10a1.5 1.5 0 010 2.12l-4 4a1.5 1.5 0 01-2.12 0l-2-2a1.5 1.5 0 012.12-2.12l.94.939 2.94-2.94a1.5 1.5 0 012.12 0z" fill="#FF6E41"/><defs><linearGradient id="paint0_linear" x1="33.688" y1="70.502" x2="33.688" y2="4" gradientUnits="userSpaceOnUse"><stop stop-color="#C8D4E6"/><stop offset="1" stop-color="#E8EFF9"/></linearGradient></defs></svg>