<svg width="76" height="76" viewBox="0 0 76 76" fill="none" xmlns="http://www.w3.org/2000/svg"><path d="M55.813 15.438v35.624l-4.75-4.75-3.017-3.016a2.47 2.47 0 00-3.467 0 5.937 5.937 0 000 8.408l4.108 4.108a12.516 12.516 0 001.734 6.366 12.21 12.21 0 003.135 3.562 7.125 7.125 0 01-4.868 1.948h-23.75a7.125 7.125 0 01-7.125-7.126V45.126h11.875l4.75 4.75V28.5a7.125 7.125 0 00-7.126-7.125h-9.5v-5.938a7.125 7.125 0 017.125-7.124h23.75a7.125 7.125 0 017.126 7.124z" fill="#0168FF"/><path d="M67.688 52.832v14.855H57l-.677-.284-.51-.238a11.626 11.626 0 01-2.257-1.413 12.208 12.208 0 01-3.135-3.563 12.517 12.517 0 01-1.733-6.377l-4.11-4.108a5.94 5.94 0 010-8.408 2.47 2.47 0 013.468 0l3.017 3.017 4.75 4.75V38l9.784 9.785a7.125 7.125 0 012.09 5.047z" fill="#FF6E41"/><path d="M58.188 40.375v13.063l-2.376-2.376V38l2.376 2.375z" fill="#FF9D7E"/><path d="M44.579 43.296a5.937 5.937 0 000 8.408l4.108 4.108a12.516 12.516 0 001.734 6.366 2.374 2.374 0 01-1.733.76h-23.75a2.375 2.375 0 01-2.375-2.376V45.126h7.125l4.75 4.75V28.5a7.125 7.125 0 00-7.126-7.125h-4.75v-5.938a2.375 2.375 0 012.375-2.374h4.75l.547 1.068a2.376 2.376 0 002.113 1.306h8.93a2.375 2.375 0 002.114-1.306l.547-1.069h4.75a2.375 2.375 0 012.374 2.376v30.874l-3.016-3.016a2.47 2.47 0 00-3.467 0z" fill="#F0F7FC"/><path d="M31.895 22.66l-5.766 5.823a8.152 8.152 0 10-5.824 13.977v8.153a16.307 16.307 0 1111.532-27.837l.058-.117z" fill="#FF6E41"/><path d="M36.67 34.19h-8.153a8.153 8.153 0 00-2.33-5.765l5.766-5.824a16.307 16.307 0 014.717 11.59z" fill="#FFC5B3"/><path d="M39 34.19a18.637 18.637 0 01-18.636 18.636v-8.153A10.483 10.483 0 0030.847 34.19H39z" fill="#FF9D7E"/></svg>