<svg xmlns="http://www.w3.org/2000/svg" viewBox="0 0 1231.2 331.3"><style>.st2{fill:#eee}</style><g id="Layer_1"><g id="Layer_2_1_"><g id="Layer_1-2"><path class="st2" d="M141.7 237.7c-.6-.2-1.1-.3-1.8-.4h-.1c3.1-5.2 3.5-11.5 1-17-2.6-5.7-7.8-9.8-14-11 2.8-5.1 3-11.2.4-16.4-2.5-5.3-7.3-9.1-12.9-10.4l.6-.7 5.9-5.9c4.8-4.9 9.9-9.9 14.8-14.8 4.6-4.5 6.4-9.9 5.3-16-1-6.9-5.9-12.6-12.5-14.7-6.9-2.4-13.3-.9-18.6 4.3-1.7 1.7-3.4 3.3-5 5L91 153.4l-32 32c-3.2 3.2-6.4 6.5-9.7 9.8l-4.1 4.2c-1.5-5.8-4.2-11.2-8-15.8-5.3-6.6-10.7-10.4-17-12-7.5-1.9-14.1 1.8-16.2 9.2-.9 3.2-.7 6.6.4 9.7 3.3 8.9 4.9 18.5 4.7 28-.2 5.2-.6 10.4-1 15.5l-.3 3.9c0 .5-.1 1-.1 1.4 0 1.6-.2 3.3-.7 4.8-4.2 9.4-6.4 18-6.9 26.3-.6 12 1.9 21.8 7.8 29.8 3.6 4.6 7.5 9 11.8 13l1.5 1.5c3.1 3 6.9 6.9 11.2 9.6 7.4 4.7 16 7.1 24.7 7 4.4 0 8.8-.5 13.1-1.4 15.1-3.1 28.3-10.5 40.5-22.6 4.4-4.4 8.8-8.8 13.1-13.2 8.4-8.5 17.1-17.2 25.8-25.6 4.7-4.5 6.6-11.1 5-17.3-1.6-6.5-6.5-11.6-12.9-13.5zM16 240.5c.1-3.2.4-6.5.7-9.7s.6-6.3.7-9.5c.5-11.3-1.3-22.5-5.1-33.1-.3-.8-.5-1.7-.6-2.6-.3-1.8.4-3.7 1.7-5 .9-.7 2-1.1 3.2-1.1.7 0 1.3.1 2 .3 3.5.9 6.6 3 9.8 6.4 6.1 6.5 9.2 13.5 9.4 21.5.1 2.3 1 3.8 2.9 4.4 2.1.7 3.6-.4 4.9-1.7l42.9-42.9 7-7 20-20c1.8-1.9 4.4-2.9 7-2.9 2.7.1 5.2 1.2 7.1 3.2 4.1 4.1 4.2 10.2.2 14.1-20.2 20.2-40.6 40.7-60.8 60.7-1.3 1.3-2.5 2.9-1.6 5.2.5 1.4 1.6 2.4 3 2.7 1.5.3 3.1-.2 4.2-1.4 3.2-3.2 6.4-6.4 9.7-9.6l8.6-8.5 10.7-10.7c1.8-1.9 4.2-2.9 6.8-3 2.9.1 5.6 1.4 7.5 3.5 3.6 3.8 3.5 9.9-.3 13.5l-.1.1-15.2 15.2L89 236.1c-2.2 2.3-1.8 4.2-1 5.5 1 1.8 3.1 2.7 5.1 2.1.9-.4 1.7-.9 2.3-1.6l3.4-3.4c5.9-5.8 12-11.9 17.9-17.9 3.1-3.2 6.4-4.1 10.2-2.9 3.9 1.2 6.7 4.5 7.2 8.6.5 2.9-.6 5.8-2.7 7.7-5.2 5.1-10.3 10.3-15.4 15.4l-5.6 5.6c-.5.4-.9.9-1.4 1.4-1.7 1.8-1.6 4.6.1 6.2s4.6 1.6 6.2-.1c2.7-2.6 5.3-5.2 7.9-7.9l7-7c3.8-3.8 9.5-3.7 13.5.3 2 1.9 3.2 4.5 3.2 7.2 0 2.4-1 4.7-2.7 6.4l-9 9c-10.4 10.4-21.1 21.2-31.8 31.7-10.2 10-22 16.5-35 19.1-2.6.5-5.2.8-7.2 1-.7.1-1.3.1-1.8.2-13.3-.1-22.6-3.7-30.1-11.7-2.4-2.5-4.8-5-7.2-7.3-1.1-1.1-2.3-2.2-3.4-3.3-6.4-6.4-9.8-14.3-10.4-24.2-.5-8.7 1.1-17.4 4.7-25.3 1.5-3.2 2.8-6.6 3-10.4zm139.7-64.4l4 4.8 4-3.7-4.3-4.4zm-37.2-76.9l-.9-6-5.5 1 1.6 6zm-33.6 29.7l-5.9-1.6-1.1 5.5 6.1.9zm76.5 41.7l4.7 3.9 3.3-4.5-5-3.4z"/><path class="st2" d="M141.8 183.5l1.9 5.8 5.2-2-2.5-5.6zm-50-68.8l-4.9-3.6-3 4.6 5.2 3.2zm74.1 49.4l5.4 2.9 2.3-5.1-5.7-2.3zM110.8 101l-2.1-5.7-5.1 2.1 2.7 5.5zm-7.1 3.3l-3.3-5.2-4.6 3.1 3.7 4.9zm-6.6 4.5l-3.9-4.2-4.1 3.7 4.3 3.9zm-9.4 12.7l-5.5-2.7-2.1 5.2 5.7 2zm61.5 59l2.9 5.3 4.7-2.8-3.4-5.1zm19.8-23.7l5.8 1.7 1.3-5.3-6-1.2zm1.8-12.6v4.9l5.8.5.3-5.4zm-72.9-9.6l1.1-4-4.1-1.4-.2.4c-.9 2.3-1.3 3.6-.7 4.4.5.5 1.3.8 2.1.7.4 0 .9 0 1.4-.1h.4zm42.1 39.6l4.7-2.1-2.1-4-4.2 1.9zm16.4-24.8l4.4.8.6-5-4.5-.4zm-47.3-31.9l4-2.3-2.1-4-4.4 2.6zm-1.9 1.6l-3.1-3.3-3.8 3.4 3.3 2.9zm49.4 41.7l-3.7-2.4-2.8 3.7 3.5 2.8zm-41.1-46.6l4.4-1.3-1.1-4.4-4.9 1.6zm-13.2 10.1l-3.8-2.5-2.5 4.5 4 2zm49.1 42.9l-3.1-3.2-3.5 2.8 2.6 3.7zm8.7-14l-4.4-1.3-1.6 4.3 4.1 1.9zm16.7-12.6l-.6-3.3-5.9.9.3 2.9zm-36.6 49.6l-1.2-6-3 .5 1 5.9zm-56.6-53.4l-5.9-.5-.3 3.2h6.2zm40.7-38v-5.9h-3.2l.4 5.9zm37 43l-.4-3.1-4.5.7.6 3zm-38.9-29.3h2.8v-4.4l-3.1.1zm-29.4 28h4.5l-.2-3H93zm40.1 30.8l.7 4.5 3.2-.9-1.1-4.3zm112-88c3.6-.1 7.3.7 10.6 2.2l.5.2 2-6.6-.4-.2c-1.1-.6-5.3-2.4-12.9-2.4-17 0-28.4 11.5-28.4 28.6 0 16.8 10.6 27.6 26.9 27.6 6.8 0 11.9-1.3 14.4-2.6l.4-.2-1.7-6.5-.6.3c-3.5 1.5-7.3 2.2-11.1 2.2-12.6 0-20.1-7.8-20.1-21 0-13.4 7.8-21.6 20.4-21.6zm20.3-8.8h8v57.4h-8zm22.7 2.7c-2.6-.1-4.8 2-4.9 4.7v.2c-.1 2.6 1.9 4.7 4.5 4.8h.2c1.4 0 2.7-.5 3.7-1.4.9-.9 1.3-2.1 1.2-3.3.1-2.6-1.9-4.8-4.5-4.9 0-.1-.1-.1-.2-.1zm-4 15.2h8v39.4h-8zm36.9 5.8c2.7-.1 5.4.5 7.9 1.8l.5.3 1.9-6.4-.4-.2c-3.1-1.4-6.5-2-9.9-2-12.5 0-21.1 8.6-21.1 20.9 0 12 7.9 20.1 19.6 20.1 3.9.1 7.7-.7 11.3-2.3l.3-.2-1.4-6.2-.6.2c-2.6 1.2-5.5 1.9-8.4 1.9-7.7 0-12.8-5.6-12.8-13.9.1-8.5 5.2-14 13.1-14zm49.1-5.8h-9.8l-11.4 13.4c-.8 1-1.8 2.2-2.7 3.4V74.5h-7.9v57.4h7.9v-14.8l3-3.4 13 18.1h9.8l-17.3-23.1 15.4-16.3zm39-.9c-11.7 0-19.5 8.4-19.5 20.9 0 11.9 7.8 20.3 18.9 20.3 9.8 0 19.6-6.5 19.6-20.9 0-12.1-7.6-20.3-19-20.3zm-.3 35c-6.5 0-11.2-6-11.2-14.3 0-7.2 3.5-14.4 11.3-14.4 7.6 0 11 7.4 11 14.3 0 8.3-4.7 14.4-11.1 14.4zm44.6-35c-4.5 0-8.5 2.8-10.5 7.2l-.2-6.4h-7.1v.5c.2 3.3.3 7 .3 12v26.9h7.9v-21c0-1.1.1-2.1.3-3.2.9-5.2 4.4-8.6 8.9-8.6.8 0 1.5.1 2.3.2l.6.1v-7.6l-.4-.1c-.7.1-1.4 0-2.1 0zm34.7-10.3l-7.8 2.1v9.1h-6v6.3h6v20.5c0 5 .9 8.3 2.8 10.3 1.8 2 4.5 3.1 7.9 3.1 2.2.1 4.3-.3 6.4-1l.3-.1-.4-6.2-.6.2c-1.3.3-2.6.5-3.9.5-3.3 0-4.7-2.1-4.7-7V98.7h10v-6.3h-10V81.2zm44.9 40.9v-14.4c0-7.4-2.6-16.2-15.1-16.2-4.5-.1-9 1.1-12.9 3.5l-.3.2 1.9 5.6.5-.3c2.9-1.8 6.3-2.8 9.7-2.8 5.5 0 8.2 2.8 8.2 8.4v.3c-9 0-15.7 2-19.5 5.8-2.4 2.4-3.7 5.6-3.6 9 0 5.6 3.8 11.5 12.3 11.5 4.4.1 8.7-1.8 11.6-5.2l.5 4.3h7.4l-.1-.6c-.4-3-.6-6-.6-9.1zm-7.8-9.9v6.2c0 .7-.1 1.4-.4 2.1-1.3 3.7-4.9 6.2-8.8 6.1-2.9 0-6.1-1.6-6.1-6.2-.1-1.8.6-3.5 1.9-4.8 2.3-2.2 6.5-3.3 12.7-3.3l.7-.1zm38.6-20.7c-5.3-.2-10.3 2.3-13.4 6.6l-.3-5.8h-7.3v.5c.2 3.8.3 7.7.3 12.5v42.1h7.9v-20c2.8 3.4 7.1 5.3 11.5 5.2 8.9 0 18-6.5 18-21.2.1-11.4-7-19.9-16.7-19.9zm-2.1 6.6c7.5 0 10.9 6.9 10.9 13.8 0 8.8-4.3 14.3-11.2 14.3-4.7 0-8.9-3.2-10-7.8-.2-.9-.3-1.8-.3-2.8V109c.3-5.7 4.8-10.4 10.6-10.9zm53-16.9l-7.8 2.1v9.1h-6v6.3h6v20.5c0 5 .9 8.3 2.8 10.3s4.5 3.1 7.9 3.1c2.2.1 4.3-.3 6.4-1l.3-.1-.4-6.2-.6.2c-1.3.3-2.6.5-3.9.5-3.3 0-4.7-2.1-4.7-7V98.7h10v-6.3h-10V81.2zm33.1 10.3c-11.7 0-19.6 8.4-19.6 20.9 0 11.9 7.8 20.3 18.9 20.3 9.8 0 19.6-6.5 19.6-20.9.1-12.1-7.5-20.3-18.9-20.3zm-.3 35c-6.5 0-11.2-6-11.2-14.3 0-7.2 3.5-14.4 11.3-14.4 7.6 0 11 7.4 11 14.3.1 8.3-4.6 14.4-11.1 14.4zm62.3-28.3c2.7-.1 5.4.5 7.8 1.8l.5.3 1.9-6.4-.4-.2c-3.1-1.4-6.5-2-9.9-2-12.4 0-21.1 8.6-21.1 20.9 0 12 7.9 20.1 19.6 20.1 3.9.1 7.7-.7 11.3-2.3l.3-.2-1.4-6.2-.5.2c-2.6 1.2-5.5 1.9-8.4 1.9-7.7 0-12.8-5.6-12.8-13.9.1-8.5 5.2-14 13.1-14zm33.5-6.7c-11.7 0-19.5 8.4-19.5 20.9 0 11.9 7.8 20.3 18.9 20.3 9.8 0 19.6-6.5 19.6-20.9 0-12.1-7.6-20.3-19-20.3zm-.3 35c-6.5 0-11.2-6-11.2-14.3 0-7.2 3.5-14.4 11.3-14.4 7.6 0 11 7.4 11 14.3.1 8.3-4.6 14.4-11.1 14.4zm46.8-35c-5-.1-9.6 2.3-12.5 6.3l-.3-5.5h-7.2v.5c.2 3 .3 6.1.3 10.4v28.5h8v-23.6c0-1.1.1-2.1.5-3.1 1.1-4 4.8-6.7 8.9-6.8 6.9 0 8.4 5.9 8.4 10.8v22.7h8v-23.4c0-15.9-11.8-16.8-14.1-16.8zm33.5-10.3l-7.8 2.1v9.1h-6v6.3h6v20.5c0 5 .9 8.3 2.8 10.3s4.5 3.1 7.9 3.1c2.2.1 4.3-.3 6.4-1l.3-.1-.4-6.2-.6.2c-1.3.3-2.6.5-3.9.5-3.3 0-4.7-2.1-4.7-7V98.7h10v-6.3h-10V81.2zm16.9 11.2h8v39.4h-8zm4-15.2c-2.6-.1-4.8 2-4.9 4.7v.2c-.1 2.6 1.9 4.7 4.5 4.8h.2c1.4 0 2.7-.5 3.7-1.4.9-.9 1.3-2.1 1.3-3.3.1-2.6-1.9-4.8-4.5-4.9-.1-.1-.2-.1-.3-.1zm34.2 14.3c-5-.1-9.6 2.3-12.5 6.3l-.3-5.4h-7.2v.6c.2 3 .3 6.1.3 10.4v28.5h8v-23.6c0-1.1.1-2.1.5-3.1 1.1-4 4.8-6.7 8.9-6.8 6.9 0 8.4 5.9 8.4 10.8v22.7h8v-23.4c0-16.1-11.8-17-14.1-17zm57.6 29.4V92.4h-8v24.1c0 1.2-.2 2.3-.6 3.4-1.4 3.6-4.9 6-8.8 6-5.4 0-8.1-3.8-8.1-11.7V92.4h-8v23c0 15.6 9.6 17.3 13.8 17.3 4.9.1 9.6-2.3 12.4-6.3l.3 5.4h7.2v-.5c-.1-2.7-.2-6-.2-10.4zm39.4-22.7c-2.9-4.3-7.4-6.6-13.1-6.6-10.9 0-18.5 8.7-18.5 21.2 0 12.1 7.6 19.9 19.4 19.9 4.5.1 8.9-.7 13-2.4l.4-.2-1.4-6-.5.2c-3.3 1.4-6.9 2.1-10.4 1.9-7.6 0-12.3-4.6-12.7-12.3h26.9l.1-.8c.1-1 .2-2 .2-3-.1-4.2-1.2-8.3-3.4-11.9zm-13.6-.7c2.3-.1 4.6.8 6.3 2.4 2.5 2.5 2.8 6.3 2.9 8h-19.3c.5-4.1 3.3-10.3 10.1-10.4z"/><path class="st2" d="M1181.9 0H94.3C66.6 0 44.1 22.5 44.1 50.3v35c0 2.6 2.1 4.8 4.8 4.8 2.6 0 4.8-2.1 4.8-4.8v-35c0-22.5 18.2-40.7 40.7-40.7H1182c22.5 0 39.7 18.2 39.7 40.7v116.3c0 22.5-17.2 40.7-39.7 40.7H182.8c-2.6 0-4.8 2.1-4.8 4.8 0 2.6 2.1 4.8 4.8 4.8h999.1c27.8 0 49.3-22.5 49.3-50.3V50.3c0-27.8-21.5-50.3-49.3-50.3z"/></g></g><linearGradient id="SVGID_1_" gradientUnits="userSpaceOnUse" x1="-984.691" y1="-535.506" x2="-984.691" y2="-432.132" gradientTransform="rotate(180 58.048 -187.955)"><stop offset="0" stop-color="#65c6bc"/><stop offset="1" stop-color="#23aae2"/></linearGradient><path d="M1051.2 161.4l104.8-45.8c4.9-2.1 4.9-8.4 0-10.5l-104.8-45.8c-4.3-1.9-9.3.9-9.3 5.2v91.7c0 4.2 5 7.1 9.3 5.2z" fill="url(#SVGID_1_)"/></g></svg>