<svg xmlns="http://www.w3.org/2000/svg" xmlns:xlink="http://www.w3.org/1999/xlink" viewBox="0 0 1190.3 331.29"><defs><linearGradient id="linear-gradient" x1="36.74" y1="1090.3" x2="36.74" y2="1082.91" gradientTransform="matrix(5.22 0 0 -5.22 848.34 5786.24)" gradientUnits="userSpaceOnUse"><stop offset="0" stop-color="#65c6bc"/><stop offset="1" stop-color="#23aae2"/></linearGradient><linearGradient id="linear-gradient-2" x1="33.83" y1="1093.21" x2="33.83" y2="1080" xlink:href="#linear-gradient"/><linearGradient id="linear-gradient-3" x1="30.89" y1="1095.94" x2="30.89" y2="1077.28" xlink:href="#linear-gradient"/><linearGradient id="linear-gradient-4" x1="27.98" y1="1093.21" x2="27.98" y2="1080" xlink:href="#linear-gradient"/><linearGradient id="linear-gradient-5" x1="25.04" y1="1090.49" x2="25.04" y2="1082.73" xlink:href="#linear-gradient"/><linearGradient id="linear-gradient-6" x1="45.54" y1="1095.94" x2="45.54" y2="1077.28" xlink:href="#linear-gradient"/><linearGradient id="linear-gradient-7" x1="42.6" y1="1093.21" x2="42.6" y2="1080" xlink:href="#linear-gradient"/><linearGradient id="linear-gradient-8" x1="39.69" y1="1091.74" x2="39.69" y2="1081.47" xlink:href="#linear-gradient"/><linearGradient id="linear-gradient-9" x1="48.45" y1="1093.21" x2="48.45" y2="1080" xlink:href="#linear-gradient"/><linearGradient id="linear-gradient-10" x1="51.39" y1="1090.49" x2="51.39" y2="1082.73" xlink:href="#linear-gradient"/><style>.fill{fill:#eee}</style></defs><g id="Layer_2" data-name="Layer 2"><g id="Layer_1-2" data-name="Layer 1"><path class="fill animated pulse infinite" d="M141.68 237.73c-.57-.17-1.14-.3-1.73-.45h-.17a18.39 18.39 0 001-17 19.21 19.21 0 00-14-11 17.49 17.49 0 00.38-16.4 18.76 18.76 0 00-12.94-10.37l.64-.67 5.93-6c4.84-4.86 9.85-9.89 14.83-14.79 4.62-4.54 6.41-9.93 5.31-16a18.17 18.17 0 00-12.54-14.69c-6.9-2.37-13.31-.9-18.55 4.26q-2.55 2.5-5.08 5.06l-12.82 12.83Q75.49 169 59.05 185.42c-3.23 3.23-6.43 6.49-9.73 9.83l-4.1 4.16a42.42 42.42 0 00-8-15.82c-5.29-6.6-10.67-10.41-16.95-12-7.57-1.91-14.12 1.81-16.27 9.25a15.33 15.33 0 00.44 9.66 75.1 75.1 0 014.7 28c-.18 5.16-.6 10.41-1 15.48-.11 1.3-.21 2.59-.31 3.88 0 .48-.06 1-.08 1.45a14 14 0 01-.75 4.81c-4.19 9.39-6.43 18-6.86 26.31-.62 12 1.93 21.75 7.8 29.78a111 111 0 0011.8 13l1.49 1.47a70.91 70.91 0 0011.16 9.59 44.6 44.6 0 0024.7 7 65.29 65.29 0 0013.09-1.41c15.1-3.09 28.35-10.48 40.5-22.59q6.59-6.57 13.11-13.18c8.4-8.47 17.08-17.23 25.81-25.64a17.91 17.91 0 005-17.31 18.51 18.51 0 00-12.92-13.41zM16 240.46c.14-3.24.44-6.54.73-9.73s.57-6.3.71-9.46a88.14 88.14 0 00-5.05-33.14 10.51 10.51 0 01-.62-2.61 5.66 5.66 0 011.72-5 4.89 4.89 0 013.2-1.07 7.86 7.86 0 012 .28c3.47.95 6.6 3 9.84 6.44 6.13 6.52 9.22 13.54 9.43 21.46.06 2.33 1 3.79 2.92 4.45 2.09.73 3.58-.37 4.88-1.67q21.42-21.41 42.86-42.9l6.71-6.71q10.14-10.16 20.3-20.28a9.65 9.65 0 017-2.89 10.4 10.4 0 017.11 3.17c4.09 4.11 4.2 10.19.25 14.15-20 20-40.42 40.45-60.75 60.74-1.29 1.29-2.5 2.93-1.62 5.23a4.16 4.16 0 003 2.69 4.57 4.57 0 004.17-1.36c3.21-3.17 6.4-6.37 9.59-9.56l8.62-8.57q5.36-5.37 10.74-10.72a9.54 9.54 0 016.81-3 10.61 10.61 0 017.49 3.52 9.56 9.56 0 01-.36 13.57l-15.09 15.1L89 236.12c-2.25 2.26-1.77 4.25-1 5.53a4.31 4.31 0 005.11 2.09 6.71 6.71 0 002.31-1.6l3.37-3.35c5.88-5.85 12-11.89 17.87-17.92 3.1-3.17 6.44-4.1 10.21-2.85a10.1 10.1 0 017.15 8.59 8.6 8.6 0 01-2.73 7.73q-7.65 7.62-15.27 15.26l-5.73 5.73c-.46.45-.94.92-1.39 1.42a4.42 4.42 0 006.39 6.11c2.65-2.62 5.27-5.25 7.9-7.88l7-7c3.83-3.81 9.52-3.7 13.53.26a10.24 10.24 0 013.21 7.22 9 9 0 01-2.7 6.44l-9 9c-10.38 10.44-21.11 21.23-31.79 31.71-10.22 10-22 16.46-35 19.12-2.58.53-5.24.81-7.18 1-.7.08-1.31.14-1.8.21-13.31-.13-22.59-3.73-30.1-11.67-2.35-2.5-4.84-4.95-7.24-7.31l-3.38-3.35c-6.4-6.4-9.81-14.32-10.42-24.23A55 55 0 0113 251.05c1.5-3.37 2.81-6.71 3-10.59z"/><path class="fill" d="M155.74 176.13l3.96 4.72 3.97-3.67-4.22-4.42-3.71 3.37zm-37.27-76.96l-.89-5.96-5.44 1.01 1.51 5.98 4.82-1.03zm-33.53 29.72l-5.9-1.54-1.1 5.49 6.06.85.94-4.8zm76.45 41.71l4.76 3.88 3.29-4.47-5.09-3.38-2.96 3.97zm-19.58 12.86l1.86 5.81 5.18-1.93-2.4-5.65-4.64 1.77zm-50-68.77l-4.9-3.61-3.04 4.65 5.25 3.14 2.69-4.18zm74.05 49.38l5.43 2.9 2.28-5.09-5.64-2.26-2.07 4.45zm-55.05-63.04l-2.1-5.74-5.11 2.12 2.66 5.53 4.55-1.91zm-7.16 3.25l-3.23-5.17-4.58 3.04 3.66 4.93 4.15-2.8zm-6.51 4.55l-3.9-4.27-4.11 3.72 4.29 3.93 3.72-3.38zm-9.45 12.63l-5.51-2.62-2.13 5.15 5.8 2 1.84-4.53zm61.47 59.03l2.9 5.35 4.74-2.88-3.44-5.11-4.2 2.64zm19.83-23.65l5.8 1.69 1.34-5.36-6.05-1.15-1.09 4.82zm1.76-12.62v4.86l5.85.55.26-5.41h-6.11zm-72.84-9.57l1.09-4-4.07-1.35-.17.43c-.93 2.26-1.29 3.56-.69 4.36a2.38 2.38 0 002.05.69c.43 0 .91 0 1.45-.09zm42.1 39.54l4.21-1.87.46-.28-2.09-3.94-4.16 1.86 1.58 4.23zm16.44-24.78l4.37.82.57-5.02-4.49-.43-.45 4.63zm-47.33-31.89l3.93-2.33-2.05-4.02-4.4 2.61 2.52 3.74zm-1.97 1.6l-3.01-3.31-3.8 3.44 3.26 2.81 3.55-2.94zm49.47 41.71l-3.74-2.44-2.75 3.67 3.48 2.89 3.01-4.12zm-41.27-47.03l.22.42 3.84-1.15.43-.22-1-4.31-4.91 1.54 1.42 3.72zm-13.05 10.53l-3.8-2.51-2.52 4.45 3.99 2 2.33-3.94zm49.11 42.91l-3.14-3.27-3.44 2.86 2.62 3.63 3.96-3.22zm8.66-13.99l-4.36-1.3-1.56 4.21 4.04 1.91 1.88-4.82zm16.75-12.67l-.65-3.25-5.9.92.38 2.84 6.17-.51zm-36.64 49.58l-1.22-5.91-2.96.41 1.03 5.97 3.15-.47zm-56.63-53.41l-5.85-.48-.3 3.21h6.15v-2.73zm40.72-37.97v-5.89h-3.16l.37 5.89h2.79zm37.05 43.04l-.4-3.13-4.47.75.54 2.94 4.33-.56zm-38.96-29.3h2.89v-4.47l-3.14.15.25 4.32zM93 140.46h4.47l-.17-2.95H93v2.95zm40.08 30.87l.74 4.44 3.15-.84-1.07-4.29-2.82.69zm111.98-87.07a24.84 24.84 0 0110.58 2.17l.53.26 1.95-6.6-.36-.19c-1.1-.57-5.27-2.44-12.94-2.44-17 0-28.44 11.5-28.44 28.6 0 16.75 10.57 27.58 26.93 27.58 6.76 0 11.85-1.34 14.36-2.6l.36-.18-1.68-6.46-.55.27a27.23 27.23 0 01-11.06 2.17c-12.56 0-20.06-7.85-20.06-21 0-13.32 7.81-21.58 20.38-21.58zm20.3-8.78h7.99v57.37h-7.99zm22.73 2.77a4.76 4.76 0 00-4.86 4.87 4.64 4.64 0 004.7 4.79 5.06 5.06 0 003.7-1.45 4.53 4.53 0 001.25-3.35 4.67 4.67 0 00-4.79-4.86zm-3.99 15.17h7.99v39.43h-7.99zm36.9 5.76a15.7 15.7 0 017.85 1.76l.55.32 1.88-6.41-.37-.19a23.83 23.83 0 00-9.91-2c-12.45 0-21.14 8.6-21.14 20.91 0 12 7.89 20.11 19.63 20.11a26.34 26.34 0 0011.27-2.28l.34-.18-1.37-6.22-.55.25a19.36 19.36 0 01-8.38 1.86c-7.68 0-12.84-5.57-12.84-13.87.04-8.55 5.14-14.06 13.04-14.06zm49.07-5.76h-9.8l-11.43 13.44c-.83 1-1.83 2.23-2.69 3.37V75.48h-7.9v57.36h7.9v-14.75l3-3.37 13.05 18.12h9.8l-17.26-23.09zm39.02-.88c-11.7 0-19.55 8.4-19.55 20.91 0 11.93 7.77 20.27 18.91 20.27 9.78 0 19.64-6.47 19.64-20.91 0-12.12-7.64-20.27-19-20.27zm-.32 34.94c-6.47 0-11.17-6-11.17-14.27 0-7.18 3.5-14.43 11.33-14.43 7.57 0 11 7.4 11 14.27.01 8.36-4.69 14.43-11.16 14.43zm44.62-34.94c-4.46 0-8.45 2.8-10.51 7.25l-.2-6.37h-7.13v.53c.22 3.28.32 7 .32 12v26.93h7.91v-21a19.68 19.68 0 01.31-3.17c.94-5.2 4.43-8.56 8.87-8.56a10 10 0 012.28.23l.61.14v-7.63l-.38-.09a8.13 8.13 0 00-2.08-.26zm34.72-10.31l-7.83 2.09v9.1h-5.95v6.32h5.95v20.46c0 5 .9 8.33 2.83 10.33 1.78 2 4.51 3.11 7.91 3.11a17.63 17.63 0 006.39-1l.33-.14-.38-6.21-.59.16a15 15 0 01-3.92.46c-3.32 0-4.74-2.08-4.74-7V99.74h10v-6.32h-10zm44.89 40.9v-14.37c0-7.4-2.62-16.22-15.11-16.22A24.26 24.26 0 00505 96l-.32.21 1.92 5.58.54-.35a18.56 18.56 0 019.73-2.77c5.46 0 8.23 2.82 8.23 8.39v.29c-9 0-15.74 2-19.51 5.76a12.27 12.27 0 00-3.59 9c0 5.56 3.83 11.54 12.25 11.54a14.94 14.94 0 0011.6-5.2l.5 4.32h7.39l-.11-.59a52.81 52.81 0 01-.63-9.05zm-7.75-9.9v6.17a6.65 6.65 0 01-.37 2.06 9.11 9.11 0 01-8.82 6.1c-2.94 0-6.09-1.62-6.09-6.17a6.5 6.5 0 011.91-4.82c2.27-2.22 6.55-3.35 12.74-3.35zm38.58-20.69a15.66 15.66 0 00-13.38 6.64l-.28-5.76h-7.27v.52c.16 3.84.31 7.69.31 12.52v42.1h7.91v-20a14.3 14.3 0 0011.49 5.16c8.94 0 18-6.54 18-21.15-.01-11.57-7.06-20.03-16.78-20.03zm-2.14 6.56c7.55 0 10.93 6.93 10.93 13.79 0 8.85-4.28 14.35-11.17 14.35a10.25 10.25 0 01-10-7.77 15 15 0 01-.31-2.77v-6.59a11.61 11.61 0 0110.54-11zm52.18-7.25c0-7.14 2.28-10.61 7-10.61a10.08 10.08 0 014.24.83l.59.27 1.13-6.44-.37-.15a16.74 16.74 0 00-6.14-1.15 13.83 13.83 0 00-9.72 3.71c-3 2.91-4.6 7.54-4.6 13.78v1.33h-5.4v6.32h5.4v33.1h7.91v-33.1h9.29v-6.32h-9.29zm30.31.69c-11.7 0-19.56 8.4-19.56 20.91 0 11.93 7.78 20.27 18.92 20.27 9.77 0 19.63-6.47 19.63-20.91 0-12.12-7.63-20.27-18.99-20.27zm-.32 34.94c-6.47 0-11.17-6-11.17-14.27 0-7.18 3.5-14.43 11.33-14.43 7.56 0 11 7.4 11 14.27-.02 8.36-4.69 14.43-11.16 14.43zm44.62-34.94c-4.47 0-8.45 2.8-10.51 7.25l-.2-6.37h-7.13v.53c.22 3.28.32 7 .32 12v26.93h7.91v-21a19.29 19.29 0 01.3-3.17c.95-5.2 4.43-8.56 8.88-8.56a9.85 9.85 0 012.27.23l.61.14v-7.63l-.38-.09a8.06 8.06 0 00-2.07-.26zm38.36 17.03c-4.82-1.84-7-3.15-7-6s2.39-4.74 5.93-4.74a14.39 14.39 0 017.6 2.15l.53.34 2.1-6.12-.35-.2a19.84 19.84 0 00-9.65-2.46c-8.1 0-13.76 4.85-13.76 11.78 0 5 3.63 8.9 10.49 11.34 5 1.86 6.82 3.59 6.82 6.6 0 3.27-2.6 5.22-7 5.22a17.89 17.89 0 01-8.94-2.7l-.54-.36-2.07 6.32.35.21a22.42 22.42 0 0011 2.69c9 0 14.87-4.72 14.87-12 .03-5.64-3.08-9.29-10.38-12.07zM762 92.54c-11.7 0-19.56 8.4-19.56 20.91 0 11.93 7.78 20.27 18.92 20.27 9.77 0 19.64-6.47 19.64-20.91 0-12.12-7.64-20.27-19-20.27zm-.32 34.94c-6.47 0-11.17-6-11.17-14.27 0-7.18 3.5-14.43 11.33-14.43 7.56 0 11 7.4 11 14.27.01 8.36-4.69 14.43-11.16 14.43zm60.32-5.62V93.42h-8v24.08a9.75 9.75 0 01-.6 3.38 9.55 9.55 0 01-8.75 6c-5.43 0-8.07-3.83-8.07-11.73V93.42h-8v23c0 15.64 9.62 17.33 13.76 17.33a14.82 14.82 0 0012.44-6.33l.35 5.45h7.2v-.54c-.27-2.75-.33-6.07-.33-10.47zm30.19-29.32a14.7 14.7 0 00-12.45 6.33l-.34-5.45h-7.2v.54c.22 3 .32 6.06.32 10.36v28.52h8v-23.6a9.62 9.62 0 01.46-3.11 9.38 9.38 0 018.89-6.79c6.93 0 8.39 5.9 8.39 10.85v22.65h8V109.4c.01-16.04-11.72-16.86-14.07-16.86zm58.93 39.76c-.27-3-.31-7.49-.31-9.88V75.48h-8v22c-2.36-3.12-6.46-4.95-11.25-4.95a16.57 16.57 0 00-11.82 4.94c-3.85 3.87-6 9.63-5.91 16.21 0 11.6 7.12 20 16.94 20a15 15 0 0012.82-6.56l.27 5.68h7.3zm-8.3-22.74v6.67a11.75 11.75 0 01-.3 2.9 10 10 0 01-9.76 8c-8 0-10.85-7.39-10.85-13.71 0-8.58 4.42-14.35 11-14.35a9.77 9.77 0 019.6 7.73 11.55 11.55 0 01.31 2.76z"/><path class="fill" d="M1140 0H94.35a50.26 50.26 0 00-50.26 50.26v35a4.78 4.78 0 004.78 4.78 4.78 4.78 0 004.78-4.78v-35a40.7 40.7 0 0140.7-40.69H1140a40.7 40.7 0 0140.7 40.69v116.29a40.7 40.7 0 01-40.7 40.69H182.78A4.78 4.78 0 00178 212a4.78 4.78 0 004.78 4.78H1140a50.26 50.26 0 0050.26-50.26V50.26A50.26 50.26 0 001140 0z"/><path d="M1040.31 90a4.83 4.83 0 00-4.91 4.91v28.78a4.91 4.91 0 109.81 0v-28.8a4.82 4.82 0 00-4.9-4.89z" fill="url(#linear-gradient)"/><path d="M1025.1 74.77a4.83 4.83 0 00-4.91 4.91v59.2a4.91 4.91 0 109.81 0v-59.2a4.82 4.82 0 00-4.9-4.91z" fill="url(#linear-gradient-2)"/><path d="M1009.72 60.54a4.82 4.82 0 00-4.9 4.91v87.66a4.91 4.91 0 109.81 0V65.45a4.83 4.83 0 00-4.91-4.91z" fill="url(#linear-gradient-3)"/><path d="M994.51 74.77a4.82 4.82 0 00-4.9 4.91v59.2a4.91 4.91 0 109.81 0v-59.2a4.83 4.83 0 00-4.91-4.91z" fill="url(#linear-gradient-4)"/><path d="M979.14 89a4.83 4.83 0 00-4.91 4.91v30.74a4.91 4.91 0 009.82 0V93.91a4.83 4.83 0 00-4.91-4.91z" fill="url(#linear-gradient-5)"/><path d="M1086.26 60.54a4.82 4.82 0 00-4.9 4.91v87.66a4.91 4.91 0 109.81 0V65.45a4.83 4.83 0 00-4.91-4.91z" fill="url(#linear-gradient-6)"/><path d="M1070.89 74.77a4.83 4.83 0 00-4.91 4.91v59.2a4.91 4.91 0 109.82 0v-59.2a4.83 4.83 0 00-4.91-4.91z" fill="url(#linear-gradient-7)"/><path d="M1055.68 82.46a4.82 4.82 0 00-4.91 4.9v43.83a4.91 4.91 0 109.82 0V87.36a4.82 4.82 0 00-4.91-4.9z" fill="url(#linear-gradient-8)"/><path d="M1101.47 74.77a4.82 4.82 0 00-4.9 4.91v59.2a4.91 4.91 0 109.81 0v-59.2a4.83 4.83 0 00-4.91-4.91z" fill="url(#linear-gradient-9)"/><path d="M1116.85 89a4.83 4.83 0 00-4.91 4.91v30.74a4.91 4.91 0 109.81 0V93.91a4.82 4.82 0 00-4.9-4.91z" fill="url(#linear-gradient-10)"/></g></g></svg>