<svg xmlns="http://www.w3.org/2000/svg" width="25" height="17" fill="none" viewBox="0 0 25 17"><path fill="#636363" stroke="#100F37" stroke-width=".4" d="M6.645 10.75c1.6 0 2.9 1.258 2.9 2.807 0 1.548-1.3 2.807-2.9 2.807-1.599 0-2.899-1.26-2.899-2.807 0-1.549 1.3-2.808 2.9-2.808zm0 4.21c.8 0 1.45-.63 1.45-1.403 0-.775-.65-1.404-1.45-1.404-.8 0-1.45.63-1.45 1.404 0 .774.65 1.403 1.45 1.403zm9.905-4.21c1.6 0 2.9 1.258 2.9 2.807 0 1.548-1.3 2.807-2.9 2.807-1.598 0-2.899-1.26-2.899-2.807 0-1.549 1.301-2.808 2.9-2.808zm0 4.21c.8 0 1.45-.63 1.45-1.403 0-.775-.65-1.404-1.45-1.404-.799 0-1.449.63-1.449 1.404 0 .774.65 1.403 1.45 1.403zM4.693 2.714a.729.729 0 01.648-.387h3.817v1.404h-3.37L3.814 7.532l-1.295-.63 2.174-4.188z"/><path fill="#636363" stroke="#100F37" stroke-width=".4" d="M8.82 12.878h5.484v1.403H8.82v-1.403zm9.906 0h2.512c.4 0 .725.314.725.701a.713.713 0 01-.725.702h-2.512a.714.714 0 01-.725-.702c0-.387.325-.701.725-.701zM1.169 8.587L2.594 6.81a.734.734 0 01.573-.271h5.267V1.625c0-.388.324-.702.724-.702h12.08c.4 0 .725.314.725.702a.714.714 0 01-.725.702H9.883V7.24a.713.713 0 01-.724.701H3.522L2.466 9.258v3.62h2.005c.4 0 .725.314.725.702a.714.714 0 01-.725.702h-2.73a.714.714 0 01-.724-.702V9.018c0-.156.053-.308.152-.43zm17.605.734h3.334c.4 0 .725.314.725.702a.714.714 0 01-.725.702h-3.334a.714.714 0 01-.725-.702c0-.388.325-.702.725-.702zM17.107 6.56h6.185c.4 0 .725.315.725.702a.714.714 0 01-.725.702h-6.185a.714.714 0 01-.725-.702c0-.387.324-.701.725-.701z"/><path fill="#636363" stroke="#100F37" stroke-width=".4" d="M15.923 3.8h6.185c.4 0 .725.315.725.702a.714.714 0 01-.725.702h-6.185a.714.714 0 01-.725-.702c0-.387.325-.701.725-.701z"/></svg>