<svg xmlns="http://www.w3.org/2000/svg" width="1365.553" height="427.703" viewBox="26.056 494.773 1365.553 427.703"><path fill="#C41230" d="M134.86 698.352v-95.347c0-30.494 24.696-55.19 55.19-55.19s55.19 24.696 55.19 55.19v95.132h53.257v-95.132c0-59.699-48.532-108.232-108.446-108.232-59.699 0-108.232 48.533-108.232 108.232v95.132h53.042v.215z"/><path fill="#C41230" d="M174.588 600.858c8.59-7.301 22.548-7.301 31.138 0 8.59 7.301 24.266 10.737 35.218 7.516 10.737-3.221 23.622 2.362 28.346 12.67 4.939 10.308 17.824 19.757 29.205 21.045 11.167 1.503 20.616 11.811 20.83 23.193s8.375 25.34 18.039 31.138c9.664 5.798 13.958 19.112 9.664 29.635-4.295 10.308-2.577 26.414 3.651 35.862 6.442 9.234 4.939 23.193-3.221 30.923-8.16 7.731-13.314 23.193-11.167 34.145 2.147 11.167-4.939 23.193-15.462 26.843-10.737 3.651-21.475 15.676-24.051 26.628-2.577 10.952-13.958 19.112-25.125 18.253-11.167-.859-25.984 5.583-32.856 14.603-6.872 9.019-20.401 11.811-30.279 6.442s-25.984-5.369-36.077 0c-9.878 5.369-23.622 2.577-30.494-6.442s-21.689-15.462-32.856-14.603-22.548-7.301-25.125-18.253-13.314-22.978-24.051-26.628c-10.737-3.651-17.609-15.891-15.462-26.843 2.147-11.167-2.792-26.414-11.167-34.145-8.16-7.731-9.664-21.689-3.221-30.923 6.442-9.234 8.16-25.34 3.651-35.862-4.295-10.308 0-23.622 9.664-29.635 9.664-5.798 17.824-19.971 18.039-31.138.215-11.167 9.664-21.689 20.83-23.193s24.266-10.952 29.205-21.045c4.724-10.308 17.609-15.891 28.346-12.67 10.522 3.221 26.198-.215 34.788-7.516z"/><path fill="#FFF" d="M190.05 651.538c-59.27 0-107.373 48.103-107.373 107.373S130.78 866.284 190.05 866.284 297.422 818.18 297.422 758.91c0-59.269-48.103-107.372-107.372-107.372z"/><path fill="#C41230" d="M197.351 688.474c-6.872 0-13.314.644-19.112 1.503-34.574 5.154-53.257 24.051-57.552 56.049l-3.006 24.266c-1.933 16.75 1.074 29.205 9.019 38.225 9.449 10.523 25.555 19.112 49.391 19.112h41.875c24.266 0 27.273-25.34 27.273-25.34H189.62c-7.516 0-14.817-.644-19.971-2.577-6.872-2.577-11.167-7.087-12.67-15.247-.644-3.221-.429-10.308.215-15.032l2.792-21.26c.859-5.369 2.577-11.382 3.221-13.529 2.147-5.154 5.369-10.308 10.737-14.173 3.221-2.147 10.523-6.657 29.42-6.657h30.709c21.475 0 25.34-25.34 25.34-25.34h-62.062z"/><path d="M493.915 848.889c0 4.51-1.074 8.59-3.436 12.026s-5.583 6.228-9.878 8.16c-4.295 1.933-9.449 3.006-15.247 3.006-4.939 0-8.805-.215-12.241-1.074-3.221-.644-6.657-1.933-10.308-3.651v-17.394c3.651 1.933 7.731 3.436 11.596 4.51 4.08 1.074 7.731 1.503 11.167 1.503 3.006 0 5.154-.43 6.442-1.503 1.288-1.074 1.933-2.362 1.933-3.865 0-1.074-.215-1.933-.859-2.577-.644-.859-1.503-1.503-2.577-2.362-1.288-.859-4.51-2.362-9.664-4.724-4.724-2.147-8.375-4.295-10.737-6.228-2.362-1.933-4.08-4.295-5.369-6.872-1.074-2.577-1.718-5.798-1.718-9.234 0-6.657 2.362-12.026 7.301-15.676 4.939-3.651 11.596-5.583 20.186-5.583 7.516 0 15.247 1.718 22.978 5.154l-6.013 15.247c-6.872-3.221-12.67-4.724-17.609-4.724-2.577 0-4.295.43-5.583 1.289-1.074.859-1.718 1.933-1.718 3.436s.644 2.792 2.147 3.865 5.583 3.221 12.026 6.228c6.228 2.792 10.523 5.798 13.099 9.019 2.793 3.004 4.081 7.085 4.082 12.024zm58.84 0c0 4.51-1.074 8.59-3.436 12.026s-5.583 6.228-9.878 8.16c-4.295 1.933-9.449 3.006-15.247 3.006-4.724 0-8.805-.215-12.241-1.074-3.221-.644-6.657-1.933-10.308-3.651v-17.394c3.651 1.933 7.731 3.436 11.596 4.51 4.08 1.074 7.731 1.503 11.167 1.503 3.006 0 5.154-.43 6.442-1.503 1.288-1.074 2.147-2.362 2.147-3.865 0-1.074-.215-1.933-.859-2.577-.644-.859-1.503-1.503-2.577-2.362-1.289-.859-4.51-2.362-9.664-4.724-4.724-2.147-8.375-4.295-10.737-6.228-2.362-1.933-4.08-4.295-5.154-6.872-1.074-2.577-1.718-5.798-1.718-9.234 0-6.657 2.362-12.026 7.301-15.676 4.939-3.651 11.596-5.583 20.186-5.583 7.516 0 15.247 1.718 22.978 5.154l-6.013 15.247c-6.872-3.221-12.67-4.724-17.609-4.724-2.577 0-4.51.43-5.583 1.289s-1.718 1.933-1.718 3.436.644 2.792 2.147 3.865c1.503 1.074 5.369 3.221 12.026 6.228 6.228 2.792 10.737 5.798 13.099 9.019 2.364 3.004 3.653 7.085 3.653 12.024zm11.167 22.118v-72.799h19.542v56.908h27.917v15.891h-47.459zm92.77-69.148c-9.019 0-16.321 3.006-21.475 8.805-5.154 5.798-7.946 13.744-7.946 24.051s2.577 18.468 7.301 24.266c4.939 5.798 12.026 8.59 21.26 8.59 6.013 0 11.811-.859 16.75-2.362v4.51c-4.724 1.718-10.737 2.577-18.039 2.577-10.308 0-18.253-3.221-24.052-9.878-5.798-6.657-8.805-15.891-8.805-27.702 0-7.301 1.503-13.958 4.295-19.542 2.792-5.583 6.872-10.093 12.026-13.099 5.154-3.006 11.381-4.51 18.253-4.51 7.087 0 13.529 1.289 19.112 4.08l-1.933 4.51c-5.366-3.007-10.949-4.296-16.747-4.296zm71.939 69.148h-39.728v-72.799h39.728v4.724h-34.574v27.487h32.641v4.724h-32.641v31.138h34.574v4.726zm21.475-31.782v31.568h-4.939v-72.799h17.394c9.019 0 15.676 1.718 19.971 4.939 4.295 3.436 6.442 8.375 6.442 15.032 0 4.939-1.289 9.019-3.865 12.24-2.577 3.436-6.442 5.798-11.811 7.301l19.757 33.071h-6.013l-18.683-31.568h-18.253v.216zm0-4.295h13.958c6.228 0 10.952-1.289 14.173-4.08 3.436-2.792 5.154-6.872 5.154-12.026 0-5.583-1.718-9.664-4.939-12.026-3.221-2.577-8.805-3.865-16.321-3.865h-12.026v31.997h.001zm74.517 36.077h-5.154v-67.86h-23.622v-4.724h52.398v4.724h-23.622v67.86zm34.359 0v-72.799h5.154v72.799h-5.154zm30.708 0h-4.939v-72.799h39.943v4.724h-34.789v30.923h32.856v4.724h-32.856v32.427h-.215zm46.171 0v-72.799h5.154v72.799h-5.154zm56.692-69.148c-9.019 0-16.321 3.006-21.474 8.805-5.154 5.798-7.946 13.744-7.946 24.051s2.577 18.468 7.516 24.266c4.939 5.798 12.026 8.59 21.26 8.59 6.013 0 11.811-.859 16.75-2.362v4.51c-4.724 1.718-10.737 2.577-18.039 2.577-10.308 0-18.253-3.221-24.052-9.878-5.798-6.657-8.805-15.891-8.805-27.702 0-7.301 1.503-13.958 4.295-19.542 2.792-5.583 6.872-10.093 12.026-13.099 5.154-3.006 11.381-4.51 18.253-4.51 7.087 0 13.529 1.289 19.112 4.08l-2.147 4.51c-5.367-3.007-10.95-4.296-16.749-4.296zm67.216 43.379h-29.635l-10.093 25.555h-5.583l29.205-73.013h3.221l28.561 73.013h-5.798l-9.878-25.555zm-27.702-4.51h25.984l-9.878-26.199c-.859-2.147-1.718-4.939-3.006-8.59-.859 3.221-1.933 6.013-3.006 8.59l-10.094 26.199zm72.798 30.279h-5.154v-67.86h-23.622v-4.724h52.398v4.724h-23.622v67.86zm74.088 0h-39.728v-72.799h39.728v4.724h-34.789v27.487h32.856v4.724h-32.856v31.138h34.789v4.726z" fill="#231F20"/><path d="M1154.686 640.586h-56.263v3.865c.215 8.375 3.006 18.898 17.18 18.898h37.58c21.904 0 33.715 7.301 30.279 31.782l-2.577 19.542c-3.221 25.34-21.474 29.205-37.58 29.205h-21.26l6.013-48.747c.859-7.087-2.577-18.468-15.891-18.468h-18.468l-4.939 40.157-4.724 35.433c-1.288 9.449 5.583 14.817 20.401 14.817h43.379c44.023 0 56.048-15.891 62.061-25.984 3.221-5.798 5.583-12.67 6.872-20.83.215-1.503 3.221-26.843 3.221-26.843 1.933-15.247-1.074-26.843-8.59-35.433-10.094-11.381-28.562-17.394-56.694-17.394zm-511.094-2.792h-6.228c-44.238.43-67.43 18.898-72.369 54.116l-3.006 22.763c-1.933 15.676.859 27.487 8.59 36.077 9.449 10.523 25.984 18.253 50.895 18.468h6.228c43.379-.429 66.356-18.253 71.94-51.109l.43-2.362 3.006-22.763c1.933-16.321-.859-28.561-8.805-37.366-9.45-10.523-25.985-17.609-50.681-17.824zm22.978 55.189l-2.792 20.83c-1.288 9.234-3.651 16.321-7.731 21.689-5.583 7.087-13.958 11.382-25.555 11.382h-6.657c-11.596 0-19.971-4.08-23.622-10.737-2.362-4.939-3.006-12.026-1.718-21.475l2.792-20.83c1.503-11.167 5.154-19.327 10.952-25.125 5.798-5.583 13.744-8.16 23.622-8.16h6.442c6.657 0 15.676 1.074 20.616 7.731 3.866 5.583 5.154 13.529 3.651 24.695zm715.747-37.365c-9.449-10.523-25.984-17.609-50.68-17.824h-6.228c-44.238.43-67.43 18.898-72.369 54.116l-3.006 22.763c-1.933 15.676.859 27.487 8.59 36.077 9.449 10.523 25.984 18.253 50.895 18.468h6.228c43.379-.429 66.356-18.253 71.94-51.109l.429-2.362 3.006-22.763c1.717-16.321-1.075-28.562-8.805-37.366zm-27.703 37.365l-2.792 20.83c-1.288 9.234-3.651 16.321-7.731 21.689-5.583 7.087-13.958 11.382-25.555 11.382h-6.872c-11.596 0-19.971-4.08-23.622-10.737-2.362-4.939-3.006-12.026-1.718-21.475l2.792-20.83c1.503-11.167 5.154-19.327 10.952-25.125 5.583-5.583 13.744-8.16 23.622-8.16h6.442c6.657 0 15.676 1.074 20.615 7.731 4.082 5.583 5.37 13.529 3.867 24.695zm-354.33-55.189h-6.228c-44.238.43-67.43 18.898-72.369 54.116l-3.006 22.763c-1.933 15.676.859 27.487 8.59 36.077 9.449 10.523 25.984 18.253 50.895 18.468h6.228c43.379-.429 66.356-18.253 71.94-51.109l.429-2.362 3.006-22.763c1.933-16.321-.859-28.561-8.805-37.366-9.449-10.523-25.769-17.609-50.68-17.824zm23.193 55.189l-2.792 20.83c-1.289 9.234-3.651 16.321-7.731 21.689-5.583 7.087-13.958 11.382-25.555 11.382h-6.657c-11.596 0-19.971-4.08-23.622-10.737-2.362-4.939-3.006-12.026-1.718-21.475l2.792-20.83c1.503-11.167 4.939-19.327 10.952-25.125 5.798-5.583 13.744-8.16 23.622-8.16h6.442c6.657 0 15.676 1.074 20.616 7.731 3.866 5.583 5.154 13.529 3.651 24.695zM860.27 647.672l-48.747 55.19-34.145-54.76c-3.221-5.154-9.878-7.516-19.757-7.516H742.16l-15.462 126.27h18.898c6.228 0 10.737-2.577 13.314-4.939 4.08-3.436 6.657-8.375 7.301-13.529l6.872-55.404 25.125 47.888c1.074 1.718 4.08 5.798 8.16 5.798h.43c4.295 0 7.946-4.08 9.019-5.369l38.225-48.318-9.234 73.658h18.253c6.228 0 10.737-2.577 13.314-4.939 3.865-3.436 6.657-8.375 7.301-13.529l13.314-107.802h-16.106c-9.447.215-16.534 2.577-20.614 7.301zm-364.208-7.086c-6.228 0-12.026.43-17.394 1.289-31.568 4.724-48.318 21.904-52.398 50.895l-2.792 22.119c-1.718 15.247.859 26.628 8.16 34.789 8.59 9.449 23.193 17.394 44.882 17.394h38.225c22.119 0 24.696-23.193 24.696-23.193h-50.465c-6.872 0-13.529-.644-18.253-2.362-6.442-2.362-10.093-6.442-11.596-13.958-.43-3.006-.43-9.449.215-13.529l2.577-19.327c.859-4.939 2.362-10.523 3.006-12.24 1.933-4.51 4.939-9.449 9.878-12.885 2.792-2.147 9.664-6.228 26.843-6.228h28.132c19.542 0 23.193-22.978 23.193-22.978h-56.908v.214z" fill="#C41230"/></svg>