<svg xmlns="http://www.w3.org/2000/svg" width="512" height="512"><path fill="#d7dfeb" d="M422.957 352H100.174C44.941 352 0 307.587 0 253c0-42.63 27.489-80.04 67.782-93.596C76.287 69.4 152.597 0 244.869 0c90.049 0 165.767 67.117 176.57 154.521 50.989 4.984 90.56 47.249 90.56 98.479 0 48.55-35.837 89.885-83.962 97.625-1.522.87-3.25 1.375-5.082 1.375z"/><path fill="#199bd8" d="M272 512c-8.844 0-16-5.117-16-11.428V363.429c0-6.312 7.156-11.428 16-11.428s16 5.117 16 11.428v137.143c0 6.312-7.156 11.428-16 11.428zm-96-64c-8.844 0-16-5.117-16-11.428V299.429c0-6.312 7.156-11.428 16-11.428s16 5.117 16 11.428v137.143c0 6.312-7.156 11.428-16 11.428zm160 0c-8.844 0-16-5.117-16-11.428V299.429c0-6.312 7.156-11.428 16-11.428s16 5.117 16 11.428v137.143c0 6.312-7.156 11.428-16 11.428z"/></svg>