<svg xmlns="http://www.w3.org/2000/svg" width="535" height="512"><path fill="#87613e" d="M133.565 66.782H0c0 49.177 39.865 89.043 89.043 89.043h35.15l9.372-89.043zm267.13 0H534.26c0 49.177-39.865 89.043-89.043 89.043h-35.149l-9.373-89.043z"/><path fill="#444" d="M400.695 77.913V22.261C400.695 9.968 390.728 0 378.434 0s-22.261 9.967-22.261 22.261v55.652h44.522zm-222.608 0V22.261C178.087 9.968 168.119 0 155.826 0s-22.261 9.967-22.261 22.261v55.652h44.522z"/><path fill="#a08775" d="M422.402 295.261H111.859c-3.152 0-6.163-1.337-8.272-3.685s-3.13-5.478-2.793-8.608L122.501 76.75c.587-5.663 5.37-9.968 11.065-9.968h267.13c5.695 0 10.478 4.305 11.065 9.968l21.707 206.218c.337 3.13-.685 6.261-2.793 8.608s-5.12 3.685-8.272 3.685z"/><path fill="#444" d="M211.478 200.348c0 12.294-9.966 22.261-22.261 22.261s-22.261-9.966-22.261-22.261c0-12.294 9.966-22.261 22.261-22.261s22.261 9.966 22.261 22.261zm155.827 0c0 12.294-9.966 22.261-22.261 22.261s-22.261-9.966-22.261-22.261c0-12.294 9.966-22.261 22.261-22.261s22.261 9.966 22.261 22.261z"/><path fill="#c19f85" d="M333.913 512H200.348c-67.511 0-122.435-54.924-122.435-122.435v-66.782c0-30.685 24.968-55.652 55.652-55.652h267.13c30.685 0 55.652 24.968 55.652 55.652v66.783c0 67.511-54.924 122.435-122.435 122.435z"/><path fill="#8e725e" d="M222.608 389.565c0 18.442-14.95 33.392-33.392 33.392s-33.392-14.95-33.392-33.392c0-18.442 14.95-33.392 33.392-33.392s33.392 14.95 33.392 33.392zm155.827 0c0 18.442-14.95 33.392-33.392 33.392s-33.392-14.95-33.392-33.392c0-18.442 14.95-33.392 33.392-33.392s33.392 14.95 33.392 33.392z"/></svg>