<svg xmlns="http://www.w3.org/2000/svg" width="512" height="512"><path fill="#b3b3b3" d="M378.435 500.87V356.174c0-6.155 4.986-11.13 11.13-11.13h100.174c6.144 0 11.13 4.976 11.13 11.13V500.87c0 6.155-4.986 11.13-11.13 11.13H389.565c-6.144 0-11.13-4.976-11.13-11.13zm-256 11.13H22.261c-6.144 0-11.13-4.976-11.13-11.13V356.174c0-6.155 4.987-11.13 11.13-11.13h100.174c6.144 0 11.131 4.976 11.131 11.13V500.87c0 6.155-4.987 11.13-11.13 11.13z"/><path fill="#b3b3b3" d="M389.565 512h-267.13c-6.144 0-11.13-4.976-11.13-11.13v-256c0-6.155 4.987-11.131 11.13-11.131h267.13c6.144 0 11.13 4.976 11.13 11.131v256c0 6.155-4.986 11.13-11.13 11.13z"/><path fill="#5b5b5b" d="M256 155.826c-6.155 0-11.131-4.987-11.131-11.131V11.13C244.869 4.986 249.856 0 256 0s11.13 4.987 11.13 11.13v133.565c0 6.144-4.976 11.131-11.131 11.131z"/><path fill="#e86c60" d="M356.174 100.174h-89.043V22.261h89.043c6.144 0 11.13 4.986 11.13 11.13v55.652c0 6.144-4.986 11.13-11.13 11.13z"/><path fill="#e6e6e6" d="M434.087 256H77.913c-4.964 0-9.328-3.294-10.697-8.07s.59-9.873 4.808-12.5l178.087-111.305a11.114 11.114 0 0111.799 0L439.997 235.43c4.207 2.627 6.178 7.725 4.808 12.5S439.05 256 434.086 256z"/><path fill="#ddd" d="M100.174 256h44.522v256h-44.522V256zm267.131 0h44.522v256h-44.522V256zm-178.087 0h44.522v256h-44.522V256zm89.043 0h44.522v256h-44.522V256z"/><path fill="#ddd" d="M100.174 489.739h311.652V512H100.174v-22.261z"/><path fill="#72c472" d="M148.19 512c4.841-10.128 7.636-21.415 7.636-33.392 0-43.031-34.883-77.913-77.913-77.913S0 435.578 0 478.608C0 490.584 2.793 501.87 7.636 512h140.555zm215.62 0c-4.841-10.128-7.635-21.415-7.635-33.392 0-43.031 34.883-77.913 77.913-77.913s77.913 34.883 77.913 77.913c0 11.976-2.793 23.262-7.635 33.392H363.811z"/><path fill="#ccc" d="M100.174 256h44.522v33.392h-44.522V256zm89.044 0h44.522v33.392h-44.522V256zm89.043 0h44.522v33.392h-44.522V256z"/><path fill="#9e9e9e" d="M144.696 256h44.522v33.392h-44.522V256zm89.043 0h44.521v33.392h-44.522V256zm89.044 0h44.522v33.392h-44.522V256z"/><path fill="#ccc" d="M367.305 256h44.522v33.392h-44.522V256z"/></svg>