<?xml version="1.0" encoding="utf-8"?>
<!-- Generator: Adobe Illustrator 17.0.0, SVG Export Plug-In . SVG Version: 6.00 Build 0)  -->
<!DOCTYPE svg PUBLIC "-//W3C//DTD SVG 1.1//EN" "http://www.w3.org/Graphics/SVG/1.1/DTD/svg11.dtd">
<svg version="1.1" id="Слой_1" xmlns="http://www.w3.org/2000/svg" xmlns:xlink="http://www.w3.org/1999/xlink" x="0px" y="0px"
	 width="170.079px" height="170.079px" viewBox="-9.539 -19.539 170.079 170.079"
	 enable-background="new -9.539 -19.539 170.079 170.079" xml:space="preserve">
<title>1</title>
<desc>Created with Sketch.</desc>
<g id="Page-1">
	<g id="landing-page" transform="translate(-155.000000, -5241.000000)">
		<g id="how-it-works" transform="translate(0.000000, 4842.000000)">
			<g id="_x31_" transform="translate(155.000000, 398.000000)">
				<path id="Fill-1" fill="#DFE0E1" d="M76.627,131.499h-24.5c-6.6,0-12-5.399-12-12v-86c0-6.6,5.4-12,12-12h24.5
					c6.6,0,12,5.4,12,12v86C88.627,126.1,83.227,131.499,76.627,131.499"/>
				<path id="Fill-3" fill="#B5B7B9" d="M76.627,21.499h-12.25v110h12.25c6.6,0,12-5.399,12-12v-86
					C88.627,26.899,83.227,21.499,76.627,21.499"/>
				<g id="Group-7" transform="translate(40.000000, 0.904000)">
					<g id="Clip-6">
					</g>
					<defs>
						<filter id="Adobe_OpacityMaskFilter" filterUnits="userSpaceOnUse" x="0.126" y="0.095" width="48.5" height="19.167">
							<feColorMatrix  type="matrix" values="1 0 0 0 0  0 1 0 0 0  0 0 1 0 0  0 0 0 1 0"/>
						</filter>
					</defs>
					<mask maskUnits="userSpaceOnUse" x="0.126" y="0.095" width="48.5" height="19.167" id="mask-2">
						<g filter="url(#Adobe_OpacityMaskFilter)">
							<polygon id="path-1" fill="#FFFFFF" points="0.126,0.096 48.626,0.096 48.626,19.262 0.126,19.262 							"/>
						</g>
					</mask>
					<path id="Fill-5" mask="url(#mask-2)" fill="#DFE0E1" d="M41.426,19.262h-34.1c-3.96,0-7.2-3.24-7.2-7.2V7.295
						c0-3.96,3.24-7.2,7.2-7.2h34.1c3.96,0,7.2,3.24,7.2,7.2v4.767C48.626,16.022,45.386,19.262,41.426,19.262"/>
				</g>
				<g id="Group-10" transform="translate(64.000000, 0.904000)">
					<g id="Clip-9">
					</g>
					<defs>
						<filter id="Adobe_OpacityMaskFilter_1_" filterUnits="userSpaceOnUse" x="0.376" y="0.095" width="24.25" height="19.167">
							<feColorMatrix  type="matrix" values="1 0 0 0 0  0 1 0 0 0  0 0 1 0 0  0 0 0 1 0"/>
						</filter>
					</defs>
					<mask maskUnits="userSpaceOnUse" x="0.376" y="0.095" width="24.25" height="19.167" id="mask-4">
						<g filter="url(#Adobe_OpacityMaskFilter_1_)">
							<polygon id="path-3" fill="#FFFFFF" points="0.376,0.096 24.626,0.096 24.626,19.262 0.376,19.262 							"/>
						</g>
					</mask>
					<path id="Fill-8" mask="url(#mask-4)" fill="#B5B7B9" d="M17.426,0.095H0.376v19.167h17.05c3.96,0,7.2-3.24,7.2-7.2V7.295
						C24.626,3.335,21.386,0.095,17.426,0.095"/>
				</g>
				<g id="Group-51" transform="translate(50.000000, 55.904000)" opacity="0.2">
					<path id="Fill-11" fill="#231F20" d="M1.995,4.772c0,0-0.289,0.586-0.161,1.55c0.129,0.963,0,2.666-0.481,2.923
						c0,0,1.22-0.257,1.477-0.707c0,0,0.032,0.739,0.835,1.381c0.804,0.643,2.153,1.157,2.634,2.184c0,0,0.152-1.94-0.16-2.923
						C5.827,8.198,5.271,7.414,5.593,6.354C5.593,6.354,2.83,5.832,1.995,4.772"/>
					<path id="Fill-13" fill="#231F20" d="M2.669,10.016c0,0,0.385,0.514,1.285,0.996c0.899,0.482,2.35,1.671,2.377,2.827
						c0.032,1.413-0.354,3.179-3.02,3.854c0,0,0.9-1.671,0.257-2.602C2.926,14.159,1.448,12.81,2.669,10.016"/>
					<path id="Fill-15" fill="#231F20" d="M6.459,6.579c0,0,2.216,0.385,4.562,0c0,0,0.771,0.803,0.738,2.28
						c-0.032,1.478-1.638,2.185-1.67,3.566c0,0-0.546-0.257-0.771-0.996c0,0-0.323,0.587-0.418,1.06
						c-0.096,0.482-0.256,1.35,0.097,2.602c0,0-1.51-1.028-1.735-1.799c-0.225-0.771-0.165-2.279-0.128-3.115
						C7.198,8.699,6.17,7.992,6.459,6.579"/>
					<path id="Fill-17" fill="#231F20" d="M6.909,14.898c0,0,0.128,1.767-1.734,2.827c-0.76,0.432-0.257,1.927,0.417,2.505
						c0.675,0.578,1.317,1.413,1.317,2.377c0,0,0.899-0.578,0.964-1.638c0.064-1.06-0.61-1.735-0.418-2.409
						C7.648,17.885,8.772,17.018,6.909,14.898"/>
					<path id="Fill-19" fill="#231F20" d="M8.451,15.573c0,0,0.739,2.826,1.895,3.661c1.094,0.791,1.221,1.896,1.381,3.116
						c0,0,2.056-1.734,1.349-4.304c-0.706-2.57-2.794-3.18-3.469-5.011c0,0-0.224,2.441,0.867,3.791
						C10.474,16.826,9.447,16.537,8.451,15.573"/>
					<path id="Fill-21" fill="#231F20" d="M8.644,18.528c0,0-0.225,0.449-0.064,0.995c0.578,1.542,0.16,2.089-0.065,2.698
						c-0.225,0.611-0.032,1.864,1.092,2.603c1.125,0.738,1.446,1.638,1.446,1.638s0.61-0.996,0.578-1.831
						c-0.032-0.835-0.707-1.446-0.803-2.281c-0.096-0.835-0.225-1.702-1.028-2.377C8.997,19.299,8.644,18.528,8.644,18.528"/>
					<path id="Fill-23" fill="#231F20" d="M12.499,9.727c0,0-0.707,1.06-1.125,1.542c-0.396,0.458-1.06,1.349-0.353,2.57
						c0.707,1.22,1.124,0.706,2.57,3.147c0,0,0.996-1.542,0.996-2.666S12.467,11.429,12.499,9.727"/>
					<path id="Fill-25" fill="#231F20" d="M12.145,6.514c0,0,0.546,0.707,0.771,1.863c0.225,1.157,0.289,1.767,0.803,2.827
						s1.509,1.638,1.509,1.638s-0.481-1.092,0.515-2.602c0.995-1.51,1.103-4.059-1.471-4.625C14.272,5.615,13.59,6,12.145,6.514"/>
					<path id="Fill-27" fill="#231F20" d="M13.783,17.629c0,0,0.546,2.056-0.128,3.469c-0.546,1.143-1.189,1.542-1.317,2.312
						c-0.129,0.772-0.065,2.698,2.216,4.113c0,0-0.739-1.125-0.096-2.025c0.642-0.899,0.546-0.706,0.803-1.092
						c0,0,0,0.322,0.449,0.707c0.45,0.385,1.125,0.739,1.253,0.964c0,0,0.064-1.188-0.097-1.574
						c-0.16-0.386-0.578-1.188-0.481-2.152C16.481,21.387,16.835,18.945,13.783,17.629"/>
					<path id="Fill-29" fill="#231F20" d="M15.518,13.774c0,0,0.385,0.578-0.097,1.67c-0.482,1.093-0.771,1.51-0.771,1.51
						s2.153-0.225,2.795-1.413c0.642-1.189,0.996-1.896,0.739-3.309c-0.257-1.414-1.253-3.02-1.253-3.02s-0.161,0.643-0.61,1.575
						c-0.45,0.931-0.546,1.542-0.322,2.216c0.226,0.674,0.161,1.092,0.161,1.092S15.903,13.774,15.518,13.774"/>
					<path id="Fill-31" fill="#231F20" d="M15.389,17.564c0,0,1.542,0.932,1.831,2.569c0.289,1.639-0.032,2.025,0.128,2.667
						c0.161,0.642,0.45,1.541,1.382,2.119c0,0-0.418-1.38,0.032-2.344c0.45-0.963,1.702-3.212,0.835-4.819
						c-0.867-1.605-1.252-1.83-1.252-1.83S17.798,17.243,15.389,17.564"/>
					<path id="Fill-33" fill="#231F20" d="M20.144,17.051l-1.414-2.056c0,0,0.354-0.867,0.386-1.863
						c0.032-0.996-0.386-1.992-0.386-1.992s1.317-0.096,1.992,0.579c0.674,0.674,1.11,1.324,1.349,2.184
						c0.321,1.156,0,2.762,0.225,3.662c0,0-1.478-1.221-1.895-3.084c0,0,0.032,0.514-0.065,1.157
						C20.24,16.279,20.144,17.051,20.144,17.051"/>
					<path id="Fill-35" fill="#231F20" d="M16.482,6.032c0,0,0.996,1.125,0.739,2.281c0,0,0.61,1.799,2.859,2.12
						c0.895,0.128,2.12,1.606,2.12,1.606s0.449-2.923-0.771-4.208c-0.329-0.346-1.606-1.124-1.606-1.124S18.056,6.642,16.482,6.032"
						/>
					<path id="Fill-37" fill="#231F20" d="M26.15,5.101c0,0-0.064,1.478,0.899,2.28c0,0-1.381-0.321-1.477-0.417
						c0,0,0.867,1.349,0.321,2.859c-0.576,1.594,0.771,3.726,0.771,3.726s-3.084-1.414-3.405-2.666
						c-0.321-1.253,0.289-2.473-1.67-4.112C21.589,6.771,23.87,6.418,26.15,5.101"/>
					<path id="Fill-39" fill="#231F20" d="M22.841,12.04c0,0,0.554,0.95,1.67,1.413c1.317,0.546,1.038,1.888,0.932,2.28
						c-0.353,1.318-1.895,2.345-1.156,4.241c0,0-1.06-0.675-1.156-1.67C22.803,14.921,23.451,13.935,22.841,12.04"/>
					<path id="Fill-41" fill="#231F20" d="M22.681,19.973c-0.214-1.542-1.735-2.73-1.735-2.73s0.354,2.987-0.932,4.593
						c0,0-0.513,1.092-0.224,1.927c0,0,0.399-0.598,1.009-1.097c0.098,0.406,0.597,0.905,0.597,0.905c0-0.9,0.45-0.932,0.899-1.67
						c0.329-0.541,0.392-1.142,0.402-1.425C22.71,20.321,22.706,20.154,22.681,19.973"/>
					<path id="Fill-43" fill="#231F20" d="M13.863,2.101c0,0-1.025-0.614-2.795,0C9.297,2.715,7.03,4.454,4.03,3.263
						C1.538,2.274,0.758,0.168,0.758,0.168s-0.796,3.007,2.669,4.669c3.335,1.6,7.547,0.844,9.038,0.332
						c1.491-0.511,1.382-0.852,1.382-1.039C13.847,3.942,13.863,2.101,13.863,2.101"/>
					<path id="Fill-45" fill="#231F20" d="M13.863,1.501c0,0-0.775-1.466-2.578-1.466c-3.805,0-3.894,1.99-7.609,2.256
						c0,0,1.182,0.707,2.3,0.707c1.97,0,3.909-1.685,5.395-1.857C13.141,0.936,13.863,1.501,13.863,1.501"/>
					<path id="Fill-47" fill="#231F20" d="M14.539,2.101c0,0,1.025-0.614,2.795,0c1.771,0.614,4.038,2.353,7.038,1.162
						c2.492-0.989,3.272-3.095,3.272-3.095s0.796,3.007-2.669,4.669c-3.335,1.6-7.547,0.844-9.039,0.332
						c-1.49-0.511-1.381-0.852-1.381-1.039C14.555,3.942,14.539,2.101,14.539,2.101"/>
					<path id="Fill-49" fill="#231F20" d="M14.539,1.501c0,0,0.775-1.466,2.578-1.466c3.805,0,3.894,1.99,7.608,2.256
						c0,0-1.181,0.707-2.299,0.707c-1.97,0-3.909-1.685-5.395-1.857C15.261,0.936,14.539,1.501,14.539,1.501"/>
				</g>
				<g id="Group-54" transform="translate(0.000000, 49.904000)">
					<g id="Clip-53">
					</g>
					<defs>
						<filter id="Adobe_OpacityMaskFilter_2_" filterUnits="userSpaceOnUse" x="0" y="0.662" width="35.741" height="81.06">
							<feColorMatrix  type="matrix" values="1 0 0 0 0  0 1 0 0 0  0 0 1 0 0  0 0 0 1 0"/>
						</filter>
					</defs>
					<mask maskUnits="userSpaceOnUse" x="0" y="0.662" width="35.741" height="81.06" id="mask-6">
						<g filter="url(#Adobe_OpacityMaskFilter_2_)">
							<polygon id="path-5" fill="#FFFFFF" points="0,81.722 0,0.662 35.741,0.662 35.741,81.722 							"/>
						</g>
					</mask>
					<path id="Fill-52" mask="url(#mask-6)" fill="#DFE0E1" d="M29.784,81.722H5.957C2.681,81.722,0,79.041,0,75.765V18.532
						c0-9.829,8.042-17.87,17.87-17.87c9.829,0,17.871,8.041,17.871,17.87v57.233C35.741,79.041,33.06,81.722,29.784,81.722"/>
				</g>
				<path id="Fill-55" fill="#DFE0E1" d="M23.459,49.706H12.282c-3.884,0-7.062-3.178-7.062-7.062s3.178-7.062,7.062-7.062h11.177
					c3.884,0,7.062,3.178,7.062,7.062S27.343,49.706,23.459,49.706"/>
				<path id="Fill-57" fill="#B5B7B9" d="M25.215,35.582H17.87v14.124h7.345c2.918,0,5.306-2.388,5.306-5.306v-3.512
					C30.521,37.97,28.133,35.582,25.215,35.582"/>
				<path id="Fill-59" fill="#B5B7B9" d="M19.823,50.566H17.87v81.06h12.565c2.918,0,5.305-2.388,5.305-5.306V66.483
					C35.74,57.729,28.577,50.566,19.823,50.566"/>
				<g id="Group-101" transform="translate(7.000000, 77.904000)" opacity="0.2">
					<path id="Fill-61" fill="#231F20" d="M1.875,3.797c0,0-0.213,0.433-0.118,1.143s0,1.964-0.355,2.153
						c0,0,0.899-0.189,1.089-0.521c0,0,0.023,0.545,0.615,1.018C3.698,8.064,4.692,8.443,5.047,9.2c0,0,0.112-1.43-0.118-2.154
						S4.29,5.744,4.526,4.963C4.526,4.963,2.491,4.578,1.875,3.797"/>
					<path id="Fill-63" fill="#231F20" d="M2.372,7.661c0,0,0.284,0.379,0.947,0.734c0.663,0.355,1.732,1.231,1.752,2.083
						c0.023,1.041-0.261,2.343-2.225,2.84c0,0,0.662-1.23,0.189-1.917C2.561,10.715,1.473,9.721,2.372,7.661"/>
					<path id="Fill-65" fill="#231F20" d="M5.166,5.129c0,0,1.633,0.283,3.361,0c0,0,0.568,0.592,0.545,1.681
						C9.048,7.899,7.864,8.419,7.841,9.437c0,0-0.403-0.19-0.569-0.734c0,0-0.237,0.433-0.307,0.781
						c-0.071,0.355-0.19,0.995,0.071,1.917c0,0-1.113-0.757-1.278-1.325C5.592,9.508,5.636,8.397,5.663,7.779
						C5.71,6.691,4.953,6.17,5.166,5.129"/>
					<path id="Fill-67" fill="#231F20" d="M5.497,11.259c0,0,0.095,1.303-1.278,2.083c-0.56,0.319-0.189,1.421,0.308,1.847
						c0.497,0.425,0.97,1.042,0.97,1.752c0,0,0.663-0.427,0.71-1.207c0.048-0.782-0.449-1.279-0.307-1.776
						C6.041,13.461,6.87,12.821,5.497,11.259"/>
					<path id="Fill-69" fill="#231F20" d="M6.633,11.756c0,0,0.544,2.083,1.397,2.699c0.806,0.582,0.899,1.397,1.018,2.296
						c0,0,1.515-1.278,0.994-3.172c-0.521-1.893-2.059-2.344-2.556-3.692c0,0-0.166,1.799,0.638,2.793
						C8.124,12.68,7.367,12.467,6.633,11.756"/>
					<path id="Fill-71" fill="#231F20" d="M6.775,13.933c0,0-0.166,0.332-0.047,0.734c0.426,1.136,0.118,1.538-0.048,1.989
						c-0.165,0.449-0.023,1.373,0.805,1.917C8.314,19.118,8.55,19.78,8.55,19.78S9,19.046,8.977,18.431
						c-0.024-0.615-0.521-1.065-0.592-1.681c-0.071-0.615-0.166-1.255-0.758-1.752C7.036,14.501,6.775,13.933,6.775,13.933"/>
					<path id="Fill-73" fill="#231F20" d="M9.616,7.448c0,0-0.521,0.781-0.829,1.136c-0.292,0.338-0.781,0.994-0.26,1.894
						c0.521,0.9,0.828,0.521,1.894,2.32c0,0,0.734-1.137,0.734-1.965S9.592,8.703,9.616,7.448"/>
					<path id="Fill-75" fill="#231F20" d="M9.355,5.081c0,0,0.402,0.521,0.568,1.373c0.166,0.853,0.213,1.302,0.592,2.083
						c0.379,0.781,1.112,1.207,1.112,1.207s-0.355-0.805,0.379-1.917c0.734-1.112,0.813-2.991-1.083-3.409
						C10.923,4.418,10.42,4.702,9.355,5.081"/>
					<path id="Fill-77" fill="#231F20" d="M10.563,13.271c0,0,0.402,1.515-0.095,2.557c-0.402,0.841-0.876,1.135-0.97,1.704
						c-0.095,0.567-0.048,1.988,1.633,3.029c0,0-0.545-0.828-0.071-1.491c0.473-0.662,0.402-0.521,0.592-0.805
						c0,0,0,0.236,0.331,0.521c0.331,0.284,0.829,0.545,0.923,0.711c0,0,0.048-0.876-0.071-1.161
						c-0.118-0.284-0.426-0.876-0.355-1.586C12.551,16.041,12.812,14.242,10.563,13.271"/>
					<path id="Fill-79" fill="#231F20" d="M11.84,10.43c0,0,0.284,0.426-0.071,1.23c-0.355,0.806-0.568,1.114-0.568,1.114
						s1.586-0.166,2.059-1.042c0.474-0.876,0.734-1.397,0.545-2.438c-0.19-1.042-0.923-2.225-0.923-2.225s-0.119,0.473-0.45,1.16
						c-0.331,0.686-0.403,1.136-0.237,1.633c0.166,0.497,0.119,0.804,0.119,0.804S12.124,10.43,11.84,10.43"/>
					<path id="Fill-81" fill="#231F20" d="M11.746,13.223c0,0,1.136,0.687,1.349,1.894c0.213,1.208-0.024,1.491,0.095,1.964
						c0.118,0.474,0.331,1.137,1.017,1.563c0,0-0.307-1.018,0.024-1.729c0.331-0.71,1.255-2.366,0.616-3.549
						c-0.64-1.184-0.924-1.35-0.924-1.35S13.521,12.987,11.746,13.223"/>
					<path id="Fill-83" fill="#231F20" d="M15.249,12.844l-1.042-1.515c0,0,0.261-0.638,0.285-1.373
						c0.023-0.733-0.285-1.466-0.285-1.466s0.971-0.072,1.468,0.425c0.497,0.497,0.818,0.976,0.994,1.61
						c0.237,0.852,0,2.036,0.166,2.698c0,0-1.089-0.9-1.397-2.273c0,0,0.024,0.379-0.047,0.853S15.249,12.844,15.249,12.844"/>
					<path id="Fill-85" fill="#231F20" d="M12.551,4.726c0,0,0.734,0.828,0.544,1.681c0,0,0.45,1.325,2.107,1.561
						c0.66,0.095,1.562,1.184,1.562,1.184s0.331-2.155-0.568-3.101c-0.242-0.255-1.184-0.828-1.184-0.828S13.711,5.175,12.551,4.726
						"/>
					<path id="Fill-87" fill="#231F20" d="M19.675,4.04c0,0-0.047,1.089,0.663,1.681c0,0-1.018-0.238-1.089-0.309
						c0,0,0.639,0.995,0.237,2.107c-0.425,1.175,0.568,2.746,0.568,2.746s-2.273-1.041-2.509-1.964
						c-0.237-0.924,0.213-1.823-1.231-3.031C16.314,5.27,17.995,5.01,19.675,4.04"/>
					<path id="Fill-89" fill="#231F20" d="M17.237,9.152c0,0,0.408,0.7,1.231,1.042c0.971,0.402,0.764,1.392,0.686,1.681
						c-0.26,0.969-1.396,1.727-0.852,3.124c0,0-0.781-0.497-0.852-1.231C17.209,11.275,17.687,10.548,17.237,9.152"/>
					<path id="Fill-91" fill="#231F20" d="M17.119,14.999c-0.158-1.136-1.278-2.012-1.278-2.012s0.26,2.201-0.687,3.385
						c0,0-0.378,0.805-0.165,1.42c0,0,0.294-0.44,0.743-0.809c0.073,0.299,0.44,0.667,0.44,0.667c0-0.663,0.331-0.686,0.663-1.231
						c0.242-0.399,0.288-0.841,0.296-1.05C17.14,15.255,17.138,15.133,17.119,14.999"/>
					<path id="Fill-93" fill="#231F20" d="M10.621,1.829c0,0-0.755-0.452-2.06,0C7.257,2.281,5.586,3.562,3.375,2.685
						C1.539,1.957,0.964,0.404,0.964,0.404S0.377,2.62,2.931,3.846c2.458,1.178,5.562,0.621,6.66,0.244
						c1.099-0.376,1.019-0.628,1.019-0.766C10.61,3.185,10.621,1.829,10.621,1.829"/>
					<path id="Fill-95" fill="#231F20" d="M10.621,1.386c0,0-0.571-1.08-1.899-1.08c-2.805,0-2.87,1.467-5.607,1.662
						c0,0,0.87,0.522,1.694,0.522c1.452,0,2.881-1.243,3.976-1.37C10.089,0.97,10.621,1.386,10.621,1.386"/>
					<path id="Fill-97" fill="#231F20" d="M11.119,1.829c0,0,0.755-0.452,2.06,0s2.976,1.733,5.186,0.856
						c1.837-0.728,2.411-2.281,2.411-2.281s0.587,2.216-1.967,3.442c-2.458,1.178-5.561,0.621-6.66,0.244
						c-1.098-0.376-1.018-0.628-1.018-0.766C11.131,3.185,11.119,1.829,11.119,1.829"/>
					<path id="Fill-99" fill="#231F20" d="M11.119,1.386c0,0,0.572-1.08,1.9-1.08c2.804,0,2.869,1.467,5.606,1.662
						c0,0-0.87,0.522-1.694,0.522c-1.451,0-2.881-1.243-3.976-1.37C11.651,0.97,11.119,1.386,11.119,1.386"/>
				</g>
				<path id="Fill-102" fill="#DFE0E1" d="M143.516,131.904h-43.6c-3.96,0-7.2-3.239-7.2-7.199V105.21c0-3.96,3.24-7.201,7.2-7.201
					h43.6c3.96,0,7.2,3.241,7.2,7.201v19.495C150.716,128.665,147.476,131.904,143.516,131.904"/>
				<path id="Fill-104" fill="#DFE0E1" d="M147.116,97.204h-50.8c-1.989,0-3.6-1.612-3.6-3.601v-3.599c0-1.988,1.611-3.6,3.6-3.6
					h50.8c1.988,0,3.6,1.612,3.6,3.6v3.599C150.716,95.592,149.104,97.204,147.116,97.204"/>
				<path id="Fill-106" fill="#B5B7B9" d="M148.016,86.405h-26.3v10.8h26.3c1.491,0,2.7-1.209,2.7-2.7v-5.401
					C150.716,87.613,149.507,86.405,148.016,86.405"/>
				<g id="Group-110" transform="translate(121.000000, 97.904000)">
					<g id="Clip-109">
					</g>
					<defs>
						<filter id="Adobe_OpacityMaskFilter_3_" filterUnits="userSpaceOnUse" x="0.715" y="0.105" width="29" height="33.895">
							<feColorMatrix  type="matrix" values="1 0 0 0 0  0 1 0 0 0  0 0 1 0 0  0 0 0 1 0"/>
						</filter>
					</defs>
					<mask maskUnits="userSpaceOnUse" x="0.715" y="0.105" width="29" height="33.895" id="mask-8">
						<g filter="url(#Adobe_OpacityMaskFilter_3_)">
							<polygon id="path-7" fill="#FFFFFF" points="29.715,34 0.715,34 0.715,0.105 29.715,0.105 							"/>
						</g>
					</mask>
					<path id="Fill-108" mask="url(#mask-8)" fill="#B5B7B9" d="M24.316,0.105h-23.6V34h23.6c2.97,0,5.4-2.43,5.4-5.4V5.505
						C29.715,2.536,27.285,0.105,24.316,0.105"/>
				</g>
				<g id="Group-151" transform="translate(111.000000, 103.904000)" opacity="0.2">
					<path id="Fill-111" fill="#231F20" d="M1.561,4.298c0,0-0.217,0.439-0.121,1.162c0.097,0.723,0,2-0.361,2.192
						c0,0,0.916-0.192,1.108-0.529c0,0,0.024,0.554,0.627,1.035c0.602,0.483,1.614,0.868,1.975,1.639c0,0,0.114-1.456-0.12-2.192
						c-0.234-0.737-0.651-1.326-0.41-2.12C4.259,5.485,2.187,5.093,1.561,4.298"/>
					<path id="Fill-113" fill="#231F20" d="M2.067,8.23c0,0,0.289,0.386,0.964,0.747c0.674,0.361,1.763,1.253,1.783,2.12
						c0.024,1.06-0.266,2.385-2.265,2.891c0,0,0.674-1.252,0.193-1.951C2.26,11.338,1.151,10.327,2.067,8.23"/>
					<path id="Fill-115" fill="#231F20" d="M4.91,5.653c0,0,1.662,0.289,3.421,0c0,0,0.578,0.602,0.554,1.71
						s-1.228,1.639-1.253,2.675c0,0-0.409-0.194-0.578-0.747c0,0-0.242,0.44-0.313,0.795c-0.072,0.361-0.193,1.011,0.072,1.951
						c0,0-1.132-0.771-1.301-1.349c-0.168-0.578-0.123-1.71-0.096-2.337C5.464,7.243,4.693,6.713,4.91,5.653"/>
					<path id="Fill-117" fill="#231F20" d="M5.247,11.892c0,0,0.096,1.325-1.301,2.12c-0.57,0.324-0.193,1.445,0.313,1.879
						c0.506,0.434,0.988,1.061,0.988,1.783c0,0,0.674-0.433,0.723-1.228c0.048-0.796-0.458-1.302-0.314-1.808
						C5.801,14.132,6.644,13.482,5.247,11.892"/>
					<path id="Fill-119" fill="#231F20" d="M6.403,12.398c0,0,0.554,2.12,1.421,2.746c0.821,0.593,0.916,1.422,1.036,2.337
						c0,0,1.542-1.301,1.012-3.228c-0.53-1.927-2.096-2.385-2.602-3.758c0,0-0.168,1.831,0.651,2.842
						C7.921,13.337,7.15,13.121,6.403,12.398"/>
					<path id="Fill-121" fill="#231F20" d="M6.548,14.615c0,0-0.168,0.337-0.048,0.746c0.433,1.157,0.12,1.567-0.048,2.025
						c-0.169,0.457-0.025,1.396,0.819,1.951c0.843,0.553,1.084,1.228,1.084,1.228s0.458-0.747,0.433-1.373
						c-0.024-0.627-0.53-1.084-0.602-1.711c-0.072-0.626-0.168-1.276-0.771-1.782C6.813,15.193,6.548,14.615,6.548,14.615"/>
					<path id="Fill-123" fill="#231F20" d="M9.439,8.013c0,0-0.53,0.795-0.843,1.156c-0.298,0.344-0.795,1.013-0.265,1.928
						c0.529,0.915,0.843,0.53,1.927,2.361c0,0,0.747-1.157,0.747-2C11.005,10.616,9.415,9.29,9.439,8.013"/>
					<path id="Fill-125" fill="#231F20" d="M9.174,5.604c0,0,0.41,0.53,0.578,1.397c0.169,0.868,0.217,1.326,0.602,2.121
						c0.386,0.794,1.133,1.228,1.133,1.228s-0.362-0.818,0.385-1.951C12.619,7.267,12.7,5.355,10.77,4.93
						C10.77,4.93,10.258,5.219,9.174,5.604"/>
					<path id="Fill-127" fill="#231F20" d="M10.402,13.94c0,0,0.41,1.542-0.096,2.602c-0.409,0.857-0.892,1.156-0.988,1.734
						C9.222,18.854,9.27,20.3,10.98,21.36c0,0-0.554-0.843-0.072-1.518c0.482-0.674,0.41-0.53,0.602-0.819c0,0,0,0.241,0.337,0.53
						c0.338,0.289,0.844,0.554,0.94,0.723c0,0,0.048-0.892-0.072-1.181c-0.121-0.289-0.434-0.891-0.361-1.614
						C12.426,16.758,12.691,14.927,10.402,13.94"/>
					<path id="Fill-129" fill="#231F20" d="M11.703,11.05c0,0,0.289,0.434-0.072,1.252c-0.362,0.819-0.578,1.133-0.578,1.133
						s1.614-0.169,2.096-1.061c0.482-0.89,0.746-1.421,0.554-2.48c-0.193-1.061-0.94-2.265-0.94-2.265s-0.12,0.482-0.457,1.18
						c-0.338,0.699-0.41,1.157-0.241,1.663c0.168,0.506,0.12,0.818,0.12,0.818S11.992,11.05,11.703,11.05"/>
					<path id="Fill-131" fill="#231F20" d="M11.607,13.892c0,0,1.156,0.698,1.373,1.927c0.217,1.228-0.024,1.517,0.097,2
						c0.12,0.481,0.337,1.156,1.035,1.59c0,0-0.313-1.037,0.025-1.759c0.337-0.723,1.277-2.409,0.626-3.613
						c-0.651-1.206-0.94-1.374-0.94-1.374S13.414,13.651,11.607,13.892"/>
					<path id="Fill-133" fill="#231F20" d="M15.172,13.507l-1.06-1.542c0,0,0.265-0.65,0.289-1.397
						c0.024-0.747-0.289-1.494-0.289-1.494s0.988-0.072,1.494,0.434c0.505,0.506,0.833,0.993,1.011,1.638
						c0.242,0.867,0,2.072,0.169,2.747c0,0-1.108-0.916-1.421-2.314c0,0,0.024,0.386-0.048,0.867
						C15.244,12.929,15.172,13.507,15.172,13.507"/>
					<path id="Fill-135" fill="#231F20" d="M12.426,5.243c0,0,0.747,0.844,0.554,1.711c0,0,0.458,1.349,2.144,1.59
						c0.672,0.095,1.59,1.205,1.59,1.205s0.337-2.193-0.578-3.156c-0.247-0.26-1.205-0.844-1.205-0.844S13.606,5.701,12.426,5.243"
						/>
					<path id="Fill-137" fill="#231F20" d="M19.677,4.545c0,0-0.048,1.108,0.675,1.71c0,0-1.036-0.24-1.109-0.313
						c0,0,0.651,1.012,0.242,2.144c-0.433,1.196,0.578,2.795,0.578,2.795s-2.313-1.06-2.554-2c-0.241-0.94,0.217-1.855-1.253-3.083
						C16.256,5.798,17.967,5.532,19.677,4.545"/>
					<path id="Fill-139" fill="#231F20" d="M17.196,9.749c0,0,0.415,0.712,1.252,1.06c0.988,0.409,0.778,1.416,0.699,1.71
						c-0.265,0.988-1.421,1.758-0.867,3.18c0,0-0.795-0.506-0.867-1.253C17.167,11.909,17.654,11.17,17.196,9.749"/>
					<path id="Fill-141" fill="#231F20" d="M17.076,15.699c-0.161-1.156-1.301-2.048-1.301-2.048s0.265,2.24-0.699,3.445
						c0,0-0.385,0.819-0.168,1.446c0,0,0.299-0.449,0.756-0.823c0.074,0.304,0.448,0.678,0.448,0.678
						c0-0.675,0.338-0.699,0.675-1.253c0.247-0.405,0.293-0.856,0.301-1.068C17.098,15.96,17.095,15.835,17.076,15.699"/>
					<path id="Fill-143" fill="#231F20" d="M10.462,2.295c0,0-0.769-0.46-2.097,0C7.038,2.755,5.337,4.06,3.087,3.167
						C1.218,2.425,0.633,0.845,0.633,0.845S0.036,3.101,2.635,4.347c2.502,1.2,5.66,0.634,6.779,0.25
						c1.118-0.384,1.036-0.64,1.036-0.781C10.45,3.676,10.462,2.295,10.462,2.295"/>
					<path id="Fill-145" fill="#231F20" d="M10.462,1.844c0,0-0.582-1.1-1.934-1.1c-2.854,0-2.92,1.494-5.706,1.692
						c0,0,0.886,0.531,1.725,0.531c1.477,0,2.932-1.265,4.046-1.394C9.921,1.42,10.462,1.844,10.462,1.844"/>
					<path id="Fill-147" fill="#231F20" d="M10.969,2.295c0,0,0.769-0.46,2.097,0c1.327,0.46,3.028,1.765,5.278,0.872
						c1.869-0.742,2.454-2.322,2.454-2.322s0.597,2.256-2.002,3.502c-2.501,1.2-5.66,0.634-6.779,0.25
						c-1.118-0.384-1.036-0.64-1.036-0.781C10.981,3.676,10.969,2.295,10.969,2.295"/>
					<path id="Fill-149" fill="#231F20" d="M10.969,1.844c0,0,0.582-1.1,1.934-1.1c2.854,0,2.92,1.494,5.706,1.692
						c0,0-0.886,0.531-1.725,0.531c-1.477,0-2.932-1.265-4.046-1.394C11.51,1.42,10.969,1.844,10.969,1.844"/>
				</g>
			</g>
		</g>
	</g>
</g>
</svg>
