<?xml version="1.0" encoding="utf-8"?>
<!-- Generator: Adobe Illustrator 17.0.0, SVG Export Plug-In . SVG Version: 6.00 Build 0)  -->
<!DOCTYPE svg PUBLIC "-//W3C//DTD SVG 1.1//EN" "http://www.w3.org/Graphics/SVG/1.1/DTD/svg11.dtd">
<svg version="1.1" id="Слой_1" xmlns="http://www.w3.org/2000/svg" xmlns:xlink="http://www.w3.org/1999/xlink" x="0px" y="0px"
	 width="170.079px" height="170.079px" viewBox="-0.539 -38.039 170.079 170.079"
	 enable-background="new -0.539 -38.039 170.079 170.079" xml:space="preserve">
<title>2</title>
<desc>Created with Sketch.</desc>
<g id="Page-1">
	<g id="landing-page" transform="translate(-531.000000, -5276.000000)">
		<g id="how-it-works" transform="translate(0.000000, 4842.000000)">
			<g id="Group-11" transform="translate(107.000000, 269.000000)">
				<g id="Group-2">
					<g id="Group-4" transform="translate(403.000000, 165.000000)">
						<g id="_x32_" transform="translate(21.000000, 0.000000)">
							<path id="Fill-1" fill="#B5B7B9" d="M160.003,66.695h2.121v-8.194h-2.121V66.695z M7.367,61.915h2.021V49.958H7.367V61.915z
								 M118.846,25.63c0.001,5.57,0.257,5.897,5.816,6.894c8.29,1.488,16.586,2.948,24.88,4.412
								c0.24,0.042,0.495,0.005,0.888,0.005c-1.47-4.973-2.909-9.875-4.371-14.77c-0.628-2.102-1.273-4.2-1.971-6.281
								c-0.436-1.298-1.323-2.086-2.805-2.084c-7.241,0.009-14.482,0.004-21.723,0.008c-0.192,0-0.382,0.047-0.713,0.091
								C118.846,17.844,118.846,21.737,118.846,25.63z M166.297,79.997c-4.045-0.074-8.092-0.028-12.27-0.028
								c-0.224-5.26-2.298-9.547-6.577-12.637c-2.999-2.167-6.418-3.198-10.119-2.938c-7.643,0.538-14.364,6.148-14.889,15.479
								H49.964c-0.119-5.059-2.169-9.196-6.19-12.29c-3.023-2.327-6.523-3.416-10.337-3.195c-7.539,0.437-14.529,6.054-15,15.581
								h-5.255c-3.494-0.001-6.988-0.054-10.48,0.029C1.515,80.027,0.67,79.673,0,78.767v-9.621
								c0.949-0.598,1.898-1.196,2.847-1.793c0.127,0.096,0.255,0.192,0.382,0.29v-1.76c0-20.937,0.004-41.873-0.011-62.809
								C3.217,1.826,3.253,0.659,4.559,0h117.936c2.754,0.302,5.517,0.54,8.262,0.918c5.544,0.764,10.226,3.125,13.431,7.776
								c1.029,1.493,1.707,3.272,2.291,5.004c2.5,7.418,4.881,14.875,7.379,22.293c0.242,0.719,0.872,1.431,1.514,1.876
								c2.563,1.776,5.184,3.471,7.82,5.141c1.327,0.841,1.878,1.967,1.87,3.51c-0.033,6.505-0.014,13.01-0.014,19.515v1.677
								c1.486,0.241,3.146-0.227,3.953,1.436v9.621C168.338,79.693,167.478,80.019,166.297,79.997z"/>
							<path id="Fill-3" fill="#DFE0E1" d="M29.401,79.974c0.007,2.466,2.109,4.552,4.579,4.544
								c2.452-0.008,4.568-2.124,4.564-4.566c-0.004-2.494-2.053-4.511-4.583-4.511C31.444,75.442,29.394,77.48,29.401,79.974
								 M40,79.942c0.015,3.216-2.743,6.015-5.97,6.057c-3.326,0.043-6.054-2.711-6.029-6.088c0.024-3.356,2.623-5.92,5.989-5.912
								C37.322,74.009,39.984,76.641,40,79.942"/>
							<path id="Fill-4" fill="#B5B7B9" d="M138.153,84.519c2.492-0.097,4.419-2.193,4.353-4.735
								c-0.064-2.501-2.158-4.431-4.71-4.342c-2.558,0.089-4.424,2.111-4.343,4.704C133.532,82.664,135.632,84.617,138.153,84.519
								 M144,79.909c0.03,3.303-2.786,6.12-6.087,6.091c-3.311-0.031-5.918-2.701-5.913-6.055c0.006-3.388,2.566-5.944,5.955-5.945
								C141.308,73.999,143.97,76.6,144,79.909"/>
							<path id="Fill-5" fill="#DFE0E1" d="M7.328,61.915h2.01V49.957h-2.01V61.915z M0,69.146v9.621
								c0.667,0.906,1.507,1.26,2.687,1.231c3.472-0.084,6.948-0.029,10.423-0.029h5.227c0.469-9.527,7.421-15.145,14.92-15.581
								c3.794-0.221,7.275,0.868,10.282,3.195c4,3.095,6.039,7.231,6.157,12.29H78V0H4.535C3.236,0.659,3.2,1.826,3.201,3.074
								c0.015,20.936,0.01,41.872,0.01,62.809v1.76c-0.127-0.097-0.253-0.194-0.38-0.29C1.888,67.951,0.944,68.549,0,69.146z"/>
							<path id="Fill-6" fill="#B4B6B8" d="M138.5,71.91c-4.738,0-8.591,3.854-8.591,8.59c0,4.737,3.853,8.591,8.591,8.591
								c4.737,0,8.591-3.854,8.591-8.591C147.091,75.763,143.237,71.91,138.5,71.91 M138.5,94c-7.445,0-13.5-6.056-13.5-13.5
								c0-7.443,6.055-13.5,13.5-13.5c7.444,0,13.5,6.056,13.5,13.5C152,87.944,145.944,94,138.5,94"/>
							<path id="Fill-7" fill="#DEDFE1" d="M34.5,71.909c-4.737,0-8.591,3.854-8.591,8.591c0,4.737,3.854,8.591,8.591,8.591
								s8.591-3.854,8.591-8.591C43.091,75.763,39.237,71.909,34.5,71.909 M34.5,94C27.056,94,21,87.944,21,80.5S27.056,67,34.5,67
								S48,73.056,48,80.5S41.944,94,34.5,94"/>
							<g id="Group-28" transform="translate(61.000000, 21.000000)" opacity="0.2">
								<path id="Fill-8" fill="#231F20" d="M2.189,6.334c0,0-0.357,0.71-0.198,1.878c0.158,1.168,0,3.231-0.595,3.541
									c0,0,1.506-0.311,1.823-0.856c0,0,0.04,0.895,1.03,1.673c0.991,0.778,2.655,1.401,3.25,2.647c0,0,0.187-2.351-0.198-3.541
									c-0.385-1.19-1.069-2.141-0.673-3.425C6.628,8.251,3.22,7.619,2.189,6.334"/>
								<path id="Fill-9" fill="#231F20" d="M3.022,12.688c0,0,0.475,0.622,1.585,1.206c1.11,0.583,2.9,2.024,2.933,3.425
									c0.04,1.712-0.436,3.853-3.725,4.67c0,0,1.11-2.024,0.317-3.152S1.516,16.074,3.022,12.688"/>
								<path id="Fill-10" fill="#231F20" d="M7.698,8.523c0,0,2.734,0.467,5.627,0c0,0,0.951,0.973,0.911,2.763
									c-0.04,1.79-2.021,2.647-2.06,4.32c0,0-0.674-0.312-0.951-1.207c0,0-0.398,0.712-0.515,1.284
									c-0.119,0.584-0.317,1.635,0.119,3.153c0,0-1.863-1.245-2.14-2.18c-0.278-0.934-0.204-2.761-0.159-3.775
									C8.609,11.092,7.341,10.236,7.698,8.523"/>
								<path id="Fill-11" fill="#231F20" d="M8.252,18.603c0,0,0.158,2.141-2.14,3.425c-0.937,0.523-0.317,2.335,0.515,3.036
									c0.832,0.7,1.625,1.712,1.625,2.88c0,0,1.11-0.7,1.189-1.984c0.079-1.285-0.753-2.102-0.515-2.919
									C9.163,22.222,10.551,21.172,8.252,18.603"/>
								<path id="Fill-12" fill="#231F20" d="M10.155,19.421c0,0,0.911,3.425,2.338,4.437c1.349,0.957,1.506,2.296,1.704,3.775
									c0,0,2.536-2.101,1.664-5.215c-0.872-3.113-3.448-3.853-4.279-6.071c0,0-0.278,2.958,1.069,4.592
									C12.651,20.938,11.383,20.588,10.155,19.421"/>
								<path id="Fill-13" fill="#231F20" d="M10.392,23.001c0,0-0.278,0.545-0.079,1.206c0.713,1.868,0.198,2.529-0.079,3.269
									c-0.278,0.74-0.04,2.257,1.347,3.152c1.387,0.896,1.783,1.985,1.783,1.985s0.753-1.206,0.713-2.218
									c-0.04-1.012-0.872-1.752-0.99-2.764c-0.119-1.011-0.278-2.063-1.268-2.88C10.828,23.935,10.392,23.001,10.392,23.001"/>
								<path id="Fill-14" fill="#231F20" d="M15.147,12.337c0,0-0.872,1.284-1.387,1.868c-0.49,0.555-1.307,1.634-0.436,3.113
									c0.872,1.479,1.387,0.856,3.17,3.814c0,0,1.229-1.868,1.229-3.23C17.723,16.541,15.108,14.4,15.147,12.337"/>
								<path id="Fill-15" fill="#231F20" d="M14.712,8.445c0,0,0.674,0.856,0.951,2.257c0.278,1.401,0.357,2.141,0.991,3.425
									s1.863,1.985,1.863,1.985s-0.595-1.323,0.634-3.152c1.229-1.829,1.361-4.918-1.813-5.605
									C17.336,7.356,16.494,7.823,14.712,8.445"/>
								<path id="Fill-16" fill="#231F20" d="M16.732,21.911c0,0,0.674,2.491-0.158,4.203c-0.674,1.385-1.466,1.868-1.625,2.802
									c-0.158,0.934-0.079,3.269,2.735,4.982c0,0-0.912-1.362-0.119-2.452c0.793-1.09,0.674-0.856,0.991-1.324
									c0,0,0,0.39,0.555,0.857c0.555,0.467,1.387,0.895,1.545,1.167c0,0,0.079-1.44-0.119-1.906
									c-0.198-0.468-0.713-1.44-0.595-2.608C20.061,26.465,20.497,23.507,16.732,21.911"/>
								<path id="Fill-17" fill="#231F20" d="M18.872,17.241c0,0,0.476,0.701-0.119,2.024c-0.595,1.324-0.951,1.83-0.951,1.83
									s2.654-0.273,3.447-1.713c0.793-1.44,1.228-2.296,0.911-4.009c-0.317-1.712-1.545-3.658-1.545-3.658
									s-0.198,0.778-0.753,1.907c-0.555,1.128-0.674,1.868-0.397,2.685c0.278,0.817,0.198,1.323,0.198,1.323
									S19.348,17.241,18.872,17.241"/>
								<path id="Fill-18" fill="#231F20" d="M18.714,21.834c0,0,1.902,1.128,2.259,3.113c0.357,1.985-0.04,2.452,0.158,3.23
									c0.198,0.778,0.555,1.868,1.704,2.569c0,0-0.516-1.673,0.04-2.841c0.555-1.168,2.1-3.892,1.03-5.838
									c-1.069-1.946-1.545-2.219-1.545-2.219S21.686,21.444,18.714,21.834"/>
								<path id="Fill-19" fill="#231F20" d="M24.579,21.211l-1.744-2.491c0,0,0.436-1.051,0.476-2.257
									c0.04-1.206-0.476-2.413-0.476-2.413s1.625-0.117,2.457,0.7c0.832,0.818,1.369,1.605,1.664,2.647
									c0.396,1.401,0,3.347,0.277,4.436c0,0-1.822-1.479-2.337-3.736c0,0,0.04,0.622-0.08,1.401
									C24.697,20.277,24.579,21.211,24.579,21.211"/>
								<path id="Fill-20" fill="#231F20" d="M20.061,7.862c0,0,1.228,1.362,0.911,2.763c0,0,0.753,2.18,3.527,2.569
									c1.105,0.155,2.616,1.946,2.616,1.946s0.555-3.541-0.951-5.098c-0.406-0.42-1.981-1.362-1.981-1.362
									S22.003,8.601,20.061,7.862"/>
								<path id="Fill-21" fill="#231F20" d="M31.989,6.733c0,0-0.079,1.79,1.11,2.763c0,0-1.704-0.389-1.823-0.506
									c0,0,1.07,1.634,0.396,3.464c-0.712,1.931,0.951,4.514,0.951,4.514s-3.804-1.712-4.201-3.23
									c-0.396-1.518,0.357-2.996-2.061-4.982C26.361,8.757,29.175,8.329,31.989,6.733"/>
								<path id="Fill-22" fill="#231F20" d="M27.907,15.139c0,0,0.682,1.151,2.06,1.713c1.625,0.661,1.279,2.288,1.149,2.763
									c-0.436,1.596-2.338,2.841-1.426,5.137c0,0-1.307-0.817-1.427-2.024C27.86,18.631,28.66,17.436,27.907,15.139"/>
								<path id="Fill-23" fill="#231F20" d="M27.709,24.753c-0.264-1.868-2.14-3.308-2.14-3.308s0.436,3.62-1.15,5.566
									c0,0-0.634,1.323-0.277,2.334c0,0,0.492-0.724,1.244-1.329c0.121,0.492,0.737,1.096,0.737,1.096
									c0-1.089,0.555-1.129,1.109-2.024c0.407-0.655,0.483-1.383,0.496-1.726C27.745,25.173,27.74,24.971,27.709,24.753"/>
								<path id="Fill-24" fill="#231F20" d="M16.83,3.098c0,0-1.264-0.744-3.448,0S8.4,5.948,4.7,4.506
									c-3.075-1.199-4.037-3.75-4.037-3.75s-0.982,3.643,3.292,5.657c4.115,1.939,9.311,1.023,11.15,0.403s1.705-1.033,1.705-1.26
									C16.811,5.329,16.83,3.098,16.83,3.098"/>
								<path id="Fill-25" fill="#231F20" d="M16.83,2.372c0,0-0.956-1.776-3.181-1.776c-4.694,0-4.803,2.411-9.386,2.733
									c0,0,1.458,0.857,2.837,0.857c2.43,0,4.823-2.042,6.655-2.251C15.941,1.687,16.83,2.372,16.83,2.372"/>
								<path id="Fill-26" fill="#231F20" d="M17.665,3.098c0,0,1.264-0.744,3.449,0c2.183,0.744,4.981,2.85,8.681,1.408
									c3.075-1.199,4.037-3.75,4.037-3.75s0.982,3.643-3.292,5.657c-4.115,1.939-9.311,1.023-11.15,0.403
									c-1.839-0.62-1.705-1.033-1.705-1.26C17.684,5.329,17.665,3.098,17.665,3.098"/>
								<path id="Fill-27" fill="#231F20" d="M17.665,2.372c0,0,0.956-1.776,3.181-1.776c4.694,0,4.803,2.411,9.386,2.733
									c0,0-1.458,0.857-2.837,0.857c-2.429,0-4.823-2.042-6.655-2.251C18.555,1.687,17.665,2.372,17.665,2.372"/>
							</g>
						</g>
					</g>
				</g>
			</g>
		</g>
	</g>
</g>
</svg>
