<?xml version="1.0" encoding="utf-8"?>
<!-- Generator: Adobe Illustrator 17.0.0, SVG Export Plug-In . SVG Version: 6.00 Build 0)  -->
<!DOCTYPE svg PUBLIC "-//W3C//DTD SVG 1.1//EN" "http://www.w3.org/Graphics/SVG/1.1/DTD/svg11.dtd">
<svg version="1.1" id="Слой_1" xmlns="http://www.w3.org/2000/svg" xmlns:xlink="http://www.w3.org/1999/xlink" x="0px" y="0px"
	 width="170.079px" height="170.079px" viewBox="-7.539 -48.039 170.079 170.079"
	 enable-background="new -7.539 -48.039 170.079 170.079" xml:space="preserve">
<title>3</title>
<desc>Created with Sketch.</desc>
<g id="Page-1">
	<g id="landing-page" transform="translate(-926.000000, -5298.000000)">
		<g id="how-it-works" transform="translate(0.000000, 4842.000000)">
			<g id="Group-11" transform="translate(107.000000, 269.000000)">
				<g id="Group-2">
					<g id="Group-3_1_" transform="translate(776.000000, 187.000000)">
						<g id="_x33_" transform="translate(43.000000, 0.000000)">
							<g id="Group-3" transform="translate(0.000000, 5.660600)">
								<path id="Fill-1" fill="#B5B7B9" d="M147.138,14.525H7.168C3.226,14.525,0,11.299,0,7.357c0-3.943,3.226-7.168,7.168-7.168
									h139.97c3.942,0,7.168,3.225,7.168,7.168C154.306,11.299,151.08,14.525,147.138,14.525"/>
							</g>
							<g id="Group-6" transform="translate(0.000000, 29.660600)">
								<path id="Fill-4" fill="#DFE0E1" d="M147.138,14.359H7.168C3.226,14.359,0,11.133,0,7.191s3.226-7.168,7.168-7.168h139.97
									c3.942,0,7.168,3.226,7.168,7.168S151.08,14.359,147.138,14.359"/>
							</g>
							<g id="Group-9" transform="translate(0.000000, 52.660600)">
								<path id="Fill-7" fill="#B5B7B9" d="M7.168,15.312C3.226,15.312,0,12.086,0,8.144s3.226-7.168,7.168-7.168h139.97
									c3.942,0,7.168,3.226,7.168,7.168s-3.226,7.168-7.168,7.168H7.168z"/>
							</g>
							<path id="Fill-10" fill="#6C6E70" d="M43.644,11.855c0,6.548-5.308,11.856-11.855,11.856
								c-6.548,0-11.856-5.308-11.856-11.856C19.933,5.308,25.241,0,31.789,0C38.336,0,43.644,5.308,43.644,11.855"/>
							<path id="Fill-12" fill="#C3C5C7" d="M25.939,8.295c0,0-0.134,0.271-0.074,0.716c0.059,0.445,0,1.231-0.223,1.35
								c0,0,0.564-0.119,0.683-0.326c0,0,0.014,0.341,0.385,0.637c0.372,0.297,0.995,0.535,1.217,1.01c0,0,0.07-0.897-0.074-1.35
								c-0.144-0.454-0.4-0.817-0.252-1.306C27.601,9.026,26.325,8.785,25.939,8.295"/>
							<path id="Fill-14" fill="#C3C5C7" d="M26.25,10.718c0,0,0.178,0.237,0.594,0.46c0.415,0.222,1.086,0.771,1.097,1.306
								c0.015,0.652-0.163,1.468-1.394,1.78c0,0,0.415-0.772,0.118-1.202C26.368,12.632,25.687,12.009,26.25,10.718"/>
							<path id="Fill-16" fill="#C3C5C7" d="M28.001,9.13c0,0,1.023,0.178,2.106,0c0,0,0.357,0.371,0.342,1.054
								c-0.015,0.682-0.757,1.009-0.771,1.647c0,0-0.253-0.119-0.357-0.46c0,0-0.149,0.271-0.193,0.489
								c-0.044,0.223-0.118,0.624,0.045,1.202c0,0-0.697-0.475-0.801-0.831s-0.076-1.053-0.059-1.439
								C28.342,10.109,27.867,9.783,28.001,9.13"/>
							<path id="Fill-18" fill="#C3C5C7" d="M28.208,12.973c0,0,0.06,0.816-0.801,1.306c-0.35,0.199-0.119,0.89,0.194,1.157
								c0.311,0.267,0.607,0.653,0.607,1.098c0,0,0.416-0.267,0.445-0.757c0.031-0.489-0.281-0.801-0.192-1.113
								C28.55,14.353,29.069,13.952,28.208,12.973"/>
							<path id="Fill-20" fill="#C3C5C7" d="M28.921,13.284c0,0,0.341,1.306,0.875,1.692c0.506,0.365,0.563,0.875,0.638,1.439
								c0,0,0.95-0.801,0.624-1.988c-0.327-1.187-1.291-1.469-1.603-2.315c0,0-0.104,1.128,0.401,1.751
								C29.856,13.863,29.381,13.729,28.921,13.284"/>
							<path id="Fill-22" fill="#C3C5C7" d="M29.01,14.649c0,0-0.104,0.208-0.03,0.46c0.267,0.712,0.074,0.964-0.03,1.247
								c-0.103,0.281-0.014,0.86,0.505,1.201c0.519,0.342,0.667,0.757,0.667,0.757s0.283-0.46,0.268-0.846
								c-0.015-0.386-0.326-0.668-0.371-1.053c-0.045-0.386-0.104-0.787-0.475-1.099C29.173,15.005,29.01,14.649,29.01,14.649"/>
							<path id="Fill-24" fill="#C3C5C7" d="M30.79,10.584c0,0-0.326,0.49-0.52,0.712c-0.182,0.212-0.489,0.623-0.163,1.187
								c0.327,0.564,0.52,0.327,1.188,1.455c0,0,0.46-0.713,0.46-1.232S30.775,11.371,30.79,10.584"/>
							<path id="Fill-26" fill="#C3C5C7" d="M30.627,9.1c0,0,0.252,0.327,0.356,0.861c0.104,0.534,0.133,0.816,0.371,1.306
								c0.238,0.489,0.698,0.756,0.698,0.756s-0.223-0.505,0.237-1.202c0.46-0.697,0.51-1.874-0.68-2.136
								C31.609,8.685,31.295,8.863,30.627,9.1"/>
							<path id="Fill-28" fill="#C3C5C7" d="M31.384,14.234c0,0,0.252,0.95-0.06,1.603c-0.252,0.528-0.548,0.712-0.608,1.068
								c-0.06,0.356-0.029,1.246,1.023,1.899c0,0-0.34-0.519-0.043-0.935c0.296-0.415,0.251-0.326,0.371-0.504
								c0,0,0,0.148,0.207,0.326c0.208,0.178,0.519,0.341,0.579,0.445c0,0,0.029-0.548-0.045-0.727
								c-0.074-0.178-0.267-0.549-0.223-0.994C32.63,15.97,32.793,14.842,31.384,14.234"/>
							<path id="Fill-30" fill="#C3C5C7" d="M32.185,12.454c0,0,0.179,0.267-0.044,0.771c-0.223,0.505-0.356,0.698-0.356,0.698
								s0.994-0.104,1.291-0.653c0.296-0.549,0.46-0.876,0.34-1.528c-0.118-0.653-0.578-1.395-0.578-1.395s-0.074,0.297-0.282,0.727
								c-0.208,0.43-0.252,0.712-0.148,1.024s0.074,0.504,0.074,0.504S32.364,12.454,32.185,12.454"/>
							<path id="Fill-32" fill="#C3C5C7" d="M32.125,14.204c0,0,0.713,0.431,0.846,1.187c0.133,0.757-0.015,0.935,0.059,1.232
								c0.074,0.296,0.208,0.712,0.639,0.979c0,0-0.193-0.638,0.015-1.083c0.207-0.445,0.786-1.484,0.385-2.226
								c-0.4-0.742-0.579-0.845-0.579-0.845S33.238,14.056,32.125,14.204"/>
							<path id="Fill-34" fill="#C3C5C7" d="M34.322,13.967l-0.652-0.949c0,0,0.163-0.401,0.177-0.861
								c0.015-0.46-0.177-0.92-0.177-0.92s0.608-0.044,0.92,0.267c0.311,0.312,0.512,0.612,0.623,1.009
								c0.148,0.534,0,1.276,0.103,1.691c0,0-0.682-0.563-0.875-1.424c0,0,0.015,0.238-0.03,0.534
								C34.367,13.611,34.322,13.967,34.322,13.967"/>
							<path id="Fill-36" fill="#C3C5C7" d="M32.63,8.878c0,0,0.46,0.519,0.341,1.053c0,0,0.282,0.831,1.321,0.98
								c0.413,0.059,0.979,0.741,0.979,0.741s0.208-1.35-0.356-1.943c-0.152-0.16-0.742-0.519-0.742-0.519S33.358,9.16,32.63,8.878"
								/>
							<path id="Fill-38" fill="#C3C5C7" d="M37.096,8.447c0,0-0.029,0.683,0.416,1.054c0,0-0.639-0.149-0.683-0.193
								c0,0,0.401,0.623,0.149,1.32c-0.267,0.736,0.355,1.721,0.355,1.721s-1.424-0.652-1.572-1.231
								c-0.148-0.579,0.134-1.143-0.771-1.899C34.99,9.219,36.043,9.055,37.096,8.447"/>
							<path id="Fill-40" fill="#C3C5C7" d="M35.568,11.652c0,0,0.256,0.439,0.771,0.653c0.609,0.252,0.48,0.872,0.431,1.053
								c-0.163,0.608-0.875,1.084-0.534,1.959c0,0-0.489-0.312-0.534-0.772C35.55,12.983,35.85,12.527,35.568,11.652"/>
							<path id="Fill-42" fill="#C3C5C7" d="M35.493,15.317c-0.099-0.712-0.801-1.261-0.801-1.261s0.163,1.38-0.43,2.122
								c0,0-0.238,0.504-0.104,0.89c0,0,0.185-0.276,0.466-0.507c0.046,0.188,0.276,0.418,0.276,0.418
								c0-0.415,0.207-0.43,0.415-0.771c0.153-0.25,0.181-0.528,0.186-0.659C35.507,15.478,35.506,15.4,35.493,15.317"/>
							<path id="Fill-44" fill="#C3C5C7" d="M31.42,7.062c0,0-0.473-0.284-1.291,0c-0.817,0.283-1.865,1.086-3.25,0.537
								c-1.151-0.457-1.512-1.43-1.512-1.43S24.999,7.558,26.6,8.326c1.541,0.739,3.486,0.389,4.174,0.153
								c0.689-0.236,0.639-0.394,0.639-0.48C31.413,7.912,31.42,7.062,31.42,7.062"/>
							<path id="Fill-46" fill="#C3C5C7" d="M31.42,6.785c0,0-0.357-0.677-1.19-0.677c-1.758,0-1.799,0.919-3.515,1.042
								c0,0,0.546,0.326,1.062,0.326c0.91,0,1.806-0.778,2.493-0.858C31.087,6.524,31.42,6.785,31.42,6.785"/>
							<path id="Fill-48" fill="#C3C5C7" d="M31.733,7.062c0,0,0.474-0.284,1.291,0c0.818,0.283,1.865,1.086,3.251,0.537
								c1.151-0.457,1.512-1.43,1.512-1.43s0.367,1.389-1.234,2.157c-1.54,0.739-3.485,0.389-4.174,0.153s-0.638-0.394-0.638-0.48
								C31.741,7.912,31.733,7.062,31.733,7.062"/>
							<path id="Fill-50" fill="#C3C5C7" d="M31.733,6.785c0,0,0.358-0.677,1.191-0.677c1.758,0,1.798,0.919,3.514,1.042
								c0,0-0.545,0.326-1.061,0.326c-0.911,0-1.806-0.778-2.493-0.858C32.067,6.524,31.733,6.785,31.733,6.785"/>
							<g id="Group-22" transform="translate(108.000000, 24.000000)">
								<path id="Fill-52" fill="#6C6E70" d="M24.45,12.852c0,6.548-5.308,11.855-11.855,11.855
									c-6.548,0-11.856-5.307-11.856-11.855S6.047,0.997,12.595,0.997C19.142,0.997,24.45,6.304,24.45,12.852"/>
								<path id="Fill-54" fill="#C3C5C7" d="M6.745,9.291c0,0-0.134,0.271-0.074,0.716c0.059,0.445,0,1.232-0.223,1.35
									c0,0,0.564-0.118,0.683-0.326c0,0,0.014,0.341,0.385,0.638c0.372,0.297,0.995,0.534,1.217,1.009c0,0,0.07-0.897-0.074-1.35
									c-0.144-0.454-0.4-0.816-0.252-1.306C8.406,10.022,7.13,9.781,6.745,9.291"/>
								<path id="Fill-56" fill="#C3C5C7" d="M7.056,11.714c0,0,0.178,0.237,0.594,0.46c0.415,0.223,1.086,0.771,1.097,1.306
									c0.015,0.652-0.163,1.468-1.394,1.78c0,0,0.415-0.772,0.118-1.202C7.175,13.628,6.493,13.005,7.056,11.714"/>
								<path id="Fill-58" fill="#C3C5C7" d="M8.807,10.126c0,0,1.023,0.178,2.106,0c0,0,0.357,0.371,0.342,1.054
									c-0.014,0.682-0.757,1.009-0.771,1.646c0,0-0.253-0.118-0.357-0.46c0,0-0.149,0.272-0.192,0.49
									c-0.045,0.223-0.119,0.624,0.044,1.202c0,0-0.697-0.475-0.801-0.831c-0.104-0.356-0.076-1.052-0.059-1.439
									C9.148,11.105,8.673,10.779,8.807,10.126"/>
								<path id="Fill-60" fill="#C3C5C7" d="M9.015,13.969c0,0,0.059,0.816-0.802,1.306c-0.35,0.2-0.118,0.89,0.194,1.157
									c0.311,0.267,0.608,0.653,0.608,1.099c0,0,0.415-0.268,0.444-0.757c0.031-0.491-0.281-0.802-0.192-1.114
									C9.356,15.349,9.875,14.948,9.015,13.969"/>
								<path id="Fill-62" fill="#C3C5C7" d="M9.727,14.28c0,0,0.341,1.306,0.875,1.691c0.506,0.366,0.564,0.876,0.639,1.44
									c0,0,0.949-0.801,0.623-1.988c-0.327-1.187-1.291-1.469-1.603-2.315c0,0-0.104,1.128,0.401,1.751
									C10.662,14.859,10.187,14.725,9.727,14.28"/>
								<path id="Fill-64" fill="#C3C5C7" d="M9.787,16.105c0.266,0.712,0.074,0.965-0.031,1.246
									c-0.103,0.282-0.014,0.86,0.505,1.202c0.52,0.341,0.667,0.757,0.667,0.757s0.283-0.46,0.268-0.846
									c-0.015-0.385-0.326-0.668-0.371-1.053c-0.044-0.386-0.104-0.787-0.475-1.098c-0.371-0.312-0.534-0.668-0.534-0.668
									S9.712,15.853,9.787,16.105z"/>
								<path id="Fill-66" fill="#C3C5C7" d="M11.596,11.58c0,0-0.326,0.489-0.52,0.712c-0.182,0.212-0.489,0.623-0.163,1.187
									c0.328,0.564,0.52,0.327,1.188,1.455c0,0,0.46-0.713,0.46-1.232S11.581,12.366,11.596,11.58"/>
								<path id="Fill-68" fill="#C3C5C7" d="M11.433,10.097c0,0,0.252,0.326,0.356,0.86c0.104,0.535,0.133,0.817,0.372,1.306
									c0.237,0.489,0.697,0.757,0.697,0.757s-0.223-0.505,0.237-1.202c0.46-0.698,0.51-1.875-0.68-2.137
									C12.415,9.681,12.101,9.86,11.433,10.097"/>
								<path id="Fill-70" fill="#C3C5C7" d="M12.19,15.23c0,0,0.252,0.949-0.06,1.602c-0.252,0.528-0.548,0.712-0.608,1.068
									c-0.06,0.356-0.029,1.247,1.024,1.899c0,0-0.341-0.519-0.044-0.934c0.296-0.415,0.251-0.326,0.371-0.505
									c0,0,0,0.148,0.208,0.327c0.207,0.178,0.518,0.341,0.578,0.444c0,0,0.029-0.548-0.045-0.726
									c-0.073-0.178-0.267-0.549-0.222-0.994C13.436,16.965,13.599,15.837,12.19,15.23"/>
								<path id="Fill-72" fill="#C3C5C7" d="M12.991,13.449c0,0,0.179,0.268-0.044,0.771c-0.223,0.505-0.356,0.698-0.356,0.698
									s0.994-0.104,1.291-0.653c0.296-0.548,0.46-0.875,0.34-1.528c-0.118-0.652-0.578-1.394-0.578-1.394
									s-0.074,0.296-0.282,0.726c-0.208,0.431-0.252,0.713-0.148,1.025c0.104,0.311,0.074,0.503,0.074,0.503
									S13.17,13.449,12.991,13.449"/>
								<path id="Fill-74" fill="#C3C5C7" d="M12.932,15.2c0,0,0.712,0.431,0.846,1.187c0.133,0.756-0.016,0.935,0.058,1.232
									c0.075,0.297,0.208,0.712,0.639,0.978c0,0-0.193-0.637,0.015-1.083c0.208-0.444,0.786-1.483,0.385-2.225
									c-0.4-0.741-0.579-0.846-0.579-0.846S14.044,15.052,12.932,15.2"/>
								<path id="Fill-76" fill="#C3C5C7" d="M15.127,14.963l-0.652-0.949c0,0,0.163-0.402,0.177-0.862
									c0.015-0.46-0.177-0.919-0.177-0.919s0.608-0.044,0.92,0.267c0.311,0.312,0.512,0.611,0.623,1.009
									c0.148,0.534,0,1.276,0.103,1.691c0,0-0.682-0.563-0.875-1.424c0,0,0.015,0.238-0.03,0.535
									C15.172,14.607,15.127,14.963,15.127,14.963"/>
								<path id="Fill-78" fill="#C3C5C7" d="M13.436,9.874c0,0,0.46,0.52,0.342,1.053c0,0,0.281,0.831,1.32,0.979
									c0.413,0.06,0.98,0.742,0.98,0.742s0.207-1.35-0.357-1.943c-0.152-0.16-0.742-0.519-0.742-0.519S14.164,10.155,13.436,9.874
									"/>
								<path id="Fill-80" fill="#C3C5C7" d="M17.902,9.443c0,0-0.029,0.683,0.416,1.054c0,0-0.639-0.149-0.683-0.194
									c0,0,0.401,0.623,0.149,1.322c-0.267,0.736,0.355,1.72,0.355,1.72s-1.424-0.653-1.572-1.231
									c-0.148-0.579,0.134-1.143-0.771-1.9C15.796,10.214,16.849,10.051,17.902,9.443"/>
								<path id="Fill-82" fill="#C3C5C7" d="M16.373,12.648c0,0,0.256,0.438,0.771,0.652c0.609,0.253,0.48,0.873,0.431,1.054
									c-0.163,0.608-0.875,1.083-0.534,1.959c0,0-0.489-0.311-0.534-0.771C16.355,13.979,16.655,13.523,16.373,12.648"/>
								<path id="Fill-84" fill="#C3C5C7" d="M16.299,16.313c-0.099-0.713-0.801-1.262-0.801-1.262s0.163,1.38-0.43,2.122
									c0,0-0.238,0.504-0.104,0.89c0,0,0.185-0.275,0.466-0.506c0.046,0.187,0.276,0.417,0.276,0.417
									c0-0.415,0.207-0.43,0.415-0.771c0.153-0.25,0.181-0.528,0.186-0.659C16.313,16.473,16.311,16.396,16.299,16.313"/>
								<path id="Fill-86" fill="#C3C5C7" d="M12.226,8.058c0,0-0.473-0.283-1.291,0c-0.817,0.284-1.865,1.087-3.25,0.537
									c-1.151-0.457-1.512-1.43-1.512-1.43S5.805,8.554,7.406,9.322c1.541,0.739,3.486,0.39,4.174,0.154
									c0.69-0.236,0.639-0.395,0.639-0.481C12.219,8.909,12.226,8.058,12.226,8.058"/>
								<path id="Fill-88" fill="#C3C5C7" d="M12.226,7.78c0,0-0.357-0.677-1.19-0.677c-1.758,0-1.799,0.919-3.515,1.042
									c0,0,0.546,0.326,1.062,0.326c0.911,0,1.806-0.778,2.493-0.857C11.893,7.519,12.226,7.78,12.226,7.78"/>
								<path id="Fill-90" fill="#C3C5C7" d="M12.538,8.058c0,0,0.474-0.283,1.292,0c0.817,0.284,1.865,1.087,3.25,0.537
									c1.151-0.457,1.512-1.43,1.512-1.43s0.367,1.389-1.233,2.157c-1.541,0.739-3.486,0.39-4.175,0.154s-0.638-0.395-0.638-0.481
									C12.547,8.909,12.538,8.058,12.538,8.058"/>
								<path id="Fill-92" fill="#C3C5C7" d="M12.538,7.78c0,0,0.358-0.677,1.191-0.677c1.758,0,1.799,0.919,3.514,1.042
									c0,0-0.545,0.326-1.061,0.326c-0.911,0-1.806-0.778-2.493-0.857C12.873,7.519,12.538,7.78,12.538,7.78"/>
							</g>
							<g id="Group-22_1_" transform="translate(33.000000, 49.000000)">
								<path id="Fill-52_1_" fill="#6C6E70" d="M24.45,12.852c0,6.548-5.308,11.855-11.855,11.855
									c-6.548,0-11.856-5.307-11.856-11.855S6.047,0.997,12.595,0.997C19.142,0.997,24.45,6.304,24.45,12.852"/>
								<path id="Fill-54_1_" fill="#C3C5C7" d="M6.745,9.291c0,0-0.134,0.271-0.074,0.716c0.059,0.445,0,1.232-0.223,1.35
									c0,0,0.564-0.118,0.683-0.326c0,0,0.014,0.341,0.385,0.638c0.372,0.297,0.995,0.534,1.217,1.009c0,0,0.07-0.897-0.074-1.35
									c-0.144-0.454-0.4-0.816-0.252-1.306C8.406,10.022,7.13,9.781,6.745,9.291"/>
								<path id="Fill-56_1_" fill="#C3C5C7" d="M7.056,11.714c0,0,0.178,0.237,0.594,0.46c0.415,0.223,1.086,0.771,1.097,1.306
									c0.015,0.652-0.163,1.468-1.394,1.78c0,0,0.415-0.772,0.118-1.202C7.175,13.628,6.493,13.005,7.056,11.714"/>
								<path id="Fill-58_1_" fill="#C3C5C7" d="M8.807,10.126c0,0,1.023,0.178,2.106,0c0,0,0.357,0.371,0.342,1.054
									c-0.014,0.682-0.757,1.009-0.771,1.646c0,0-0.253-0.118-0.357-0.46c0,0-0.149,0.272-0.192,0.49
									c-0.045,0.223-0.119,0.624,0.044,1.202c0,0-0.697-0.475-0.801-0.831c-0.104-0.356-0.076-1.052-0.059-1.439
									C9.148,11.105,8.673,10.779,8.807,10.126"/>
								<path id="Fill-60_1_" fill="#C3C5C7" d="M9.015,13.969c0,0,0.059,0.816-0.802,1.306c-0.35,0.2-0.118,0.89,0.194,1.157
									c0.311,0.267,0.608,0.653,0.608,1.099c0,0,0.415-0.268,0.444-0.757c0.031-0.491-0.281-0.802-0.192-1.114
									C9.356,15.349,9.875,14.948,9.015,13.969"/>
								<path id="Fill-62_1_" fill="#C3C5C7" d="M9.727,14.28c0,0,0.341,1.306,0.875,1.691c0.506,0.366,0.564,0.876,0.639,1.44
									c0,0,0.949-0.801,0.623-1.988c-0.327-1.187-1.291-1.469-1.603-2.315c0,0-0.104,1.128,0.401,1.751
									C10.662,14.859,10.187,14.725,9.727,14.28"/>
								<path id="Fill-64_1_" fill="#C3C5C7" d="M9.787,16.105c0.266,0.712,0.074,0.965-0.031,1.246
									c-0.103,0.282-0.014,0.86,0.505,1.202c0.52,0.341,0.667,0.757,0.667,0.757s0.283-0.46,0.268-0.846
									c-0.015-0.385-0.326-0.668-0.371-1.053c-0.044-0.386-0.104-0.787-0.475-1.098c-0.371-0.312-0.534-0.668-0.534-0.668
									S9.712,15.853,9.787,16.105z"/>
								<path id="Fill-66_1_" fill="#C3C5C7" d="M11.596,11.58c0,0-0.326,0.489-0.52,0.712c-0.182,0.212-0.489,0.623-0.163,1.187
									c0.328,0.564,0.52,0.327,1.188,1.455c0,0,0.46-0.713,0.46-1.232S11.581,12.366,11.596,11.58"/>
								<path id="Fill-68_1_" fill="#C3C5C7" d="M11.433,10.097c0,0,0.252,0.326,0.356,0.86c0.104,0.535,0.133,0.817,0.372,1.306
									c0.237,0.489,0.697,0.757,0.697,0.757s-0.223-0.505,0.237-1.202c0.46-0.698,0.51-1.875-0.68-2.137
									C12.415,9.681,12.101,9.86,11.433,10.097"/>
								<path id="Fill-70_1_" fill="#C3C5C7" d="M12.19,15.23c0,0,0.252,0.949-0.06,1.602c-0.252,0.528-0.548,0.712-0.608,1.068
									c-0.06,0.356-0.029,1.247,1.024,1.899c0,0-0.341-0.519-0.044-0.934c0.296-0.415,0.251-0.326,0.371-0.505
									c0,0,0,0.148,0.208,0.327c0.207,0.178,0.518,0.341,0.578,0.444c0,0,0.029-0.548-0.045-0.726
									c-0.073-0.178-0.267-0.549-0.222-0.994C13.436,16.965,13.599,15.837,12.19,15.23"/>
								<path id="Fill-72_1_" fill="#C3C5C7" d="M12.991,13.449c0,0,0.179,0.268-0.044,0.771c-0.223,0.505-0.356,0.698-0.356,0.698
									s0.994-0.104,1.291-0.653c0.296-0.548,0.46-0.875,0.34-1.528c-0.118-0.652-0.578-1.394-0.578-1.394
									s-0.074,0.296-0.282,0.726c-0.208,0.431-0.252,0.713-0.148,1.025c0.104,0.311,0.074,0.503,0.074,0.503
									S13.17,13.449,12.991,13.449"/>
								<path id="Fill-74_1_" fill="#C3C5C7" d="M12.932,15.2c0,0,0.712,0.431,0.846,1.187c0.133,0.756-0.016,0.935,0.058,1.232
									c0.075,0.297,0.208,0.712,0.639,0.978c0,0-0.193-0.637,0.015-1.083c0.208-0.444,0.786-1.483,0.385-2.225
									c-0.4-0.741-0.579-0.846-0.579-0.846S14.044,15.052,12.932,15.2"/>
								<path id="Fill-76_1_" fill="#C3C5C7" d="M15.127,14.963l-0.652-0.949c0,0,0.163-0.402,0.177-0.862
									c0.015-0.46-0.177-0.919-0.177-0.919s0.608-0.044,0.92,0.267c0.311,0.312,0.512,0.611,0.623,1.009
									c0.148,0.534,0,1.276,0.103,1.691c0,0-0.682-0.563-0.875-1.424c0,0,0.015,0.238-0.03,0.535
									C15.172,14.607,15.127,14.963,15.127,14.963"/>
								<path id="Fill-78_1_" fill="#C3C5C7" d="M13.436,9.874c0,0,0.46,0.52,0.342,1.053c0,0,0.281,0.831,1.32,0.979
									c0.413,0.06,0.98,0.742,0.98,0.742s0.207-1.35-0.357-1.943c-0.152-0.16-0.742-0.519-0.742-0.519S14.164,10.155,13.436,9.874
									"/>
								<path id="Fill-80_1_" fill="#C3C5C7" d="M17.902,9.443c0,0-0.029,0.683,0.416,1.054c0,0-0.639-0.149-0.683-0.194
									c0,0,0.401,0.623,0.149,1.322c-0.267,0.736,0.355,1.72,0.355,1.72s-1.424-0.653-1.572-1.231
									c-0.148-0.579,0.134-1.143-0.771-1.9C15.796,10.214,16.849,10.051,17.902,9.443"/>
								<path id="Fill-82_1_" fill="#C3C5C7" d="M16.373,12.648c0,0,0.256,0.438,0.771,0.652c0.609,0.253,0.48,0.873,0.431,1.054
									c-0.163,0.608-0.875,1.083-0.534,1.959c0,0-0.489-0.311-0.534-0.771C16.355,13.979,16.655,13.523,16.373,12.648"/>
								<path id="Fill-84_1_" fill="#C3C5C7" d="M16.299,16.313c-0.099-0.713-0.801-1.262-0.801-1.262s0.163,1.38-0.43,2.122
									c0,0-0.238,0.504-0.104,0.89c0,0,0.185-0.275,0.466-0.506c0.046,0.187,0.276,0.417,0.276,0.417
									c0-0.415,0.207-0.43,0.415-0.771c0.153-0.25,0.181-0.528,0.186-0.659C16.313,16.473,16.311,16.396,16.299,16.313"/>
								<path id="Fill-86_1_" fill="#C3C5C7" d="M12.226,8.058c0,0-0.473-0.283-1.291,0c-0.817,0.284-1.865,1.087-3.25,0.537
									c-1.151-0.457-1.512-1.43-1.512-1.43S5.805,8.554,7.406,9.322c1.541,0.739,3.486,0.39,4.174,0.154
									c0.69-0.236,0.639-0.395,0.639-0.481C12.219,8.909,12.226,8.058,12.226,8.058"/>
								<path id="Fill-88_1_" fill="#C3C5C7" d="M12.226,7.78c0,0-0.357-0.677-1.19-0.677c-1.758,0-1.799,0.919-3.515,1.042
									c0,0,0.546,0.326,1.062,0.326c0.911,0,1.806-0.778,2.493-0.857C11.893,7.519,12.226,7.78,12.226,7.78"/>
								<path id="Fill-90_1_" fill="#C3C5C7" d="M12.538,8.058c0,0,0.474-0.283,1.292,0c0.817,0.284,1.865,1.087,3.25,0.537
									c1.151-0.457,1.512-1.43,1.512-1.43s0.367,1.389-1.233,2.157c-1.541,0.739-3.486,0.39-4.175,0.154s-0.638-0.395-0.638-0.481
									C12.547,8.909,12.538,8.058,12.538,8.058"/>
								<path id="Fill-92_1_" fill="#C3C5C7" d="M12.538,7.78c0,0,0.358-0.677,1.191-0.677c1.758,0,1.799,0.919,3.514,1.042
									c0,0-0.545,0.326-1.061,0.326c-0.911,0-1.806-0.778-2.493-0.857C12.873,7.519,12.538,7.78,12.538,7.78"/>
							</g>
						</g>
					</g>
				</g>
			</g>
		</g>
	</g>
</g>
</svg>
