<svg xmlns="http://www.w3.org/2000/svg" viewBox="0 0 226.9 60"><path d="M27.8 8.1c0 .6-.4 1-1 1s-1-.4-1-1 .4-1 1-1 1 .5 1 1m-2.6 0c0 .6-.4 1-1 1s-1-.4-1-1 .4-1 1-1 1 .5 1 1m-2.6 0c0 .6-.4 1-1 1s-1-.4-1-1 .4-1 1-1 1 .5 1 1m-2.6 0c0 .6-.4 1-1 1s-1-.4-1-1 .4-1 1-1 1 .5 1 1m7.8 2.6c0 .6-.4 1-1 1s-1-.4-1-1 .4-1 1-1 1 .5 1 1m-2.6 0c0 .6-.4 1-1 1s-1-.4-1-1 .4-1 1-1 1 .5 1 1m-2.6 0c0 .6-.4 1-1 1s-1-.4-1-1 .4-1 1-1 1 .5 1 1m-2.6 0c0 .6-.4 1-1 1s-1-.4-1-1 .4-1 1-1 1 .5 1 1m7.8 2.6c0 .6-.4 1-1 1s-1-.4-1-1 .4-1 1-1 1 .4 1 1m-2.6 0c0 .6-.4 1-1 1s-1-.4-1-1 .4-1 1-1 1 .4 1 1m-2.6 0c0 .6-.4 1-1 1s-1-.4-1-1 .4-1 1-1 1 .4 1 1m-2.6 0c0 .6-.4 1-1 1s-1-.4-1-1 .4-1 1-1 1 .4 1 1m7.8 2.6c0 .6-.4 1-1 1s-1-.4-1-1 .4-1 1-1 1 .4 1 1m-2.6 0c0 .6-.4 1-1 1s-1-.4-1-1 .4-1 1-1 1 .4 1 1m-2.6 0c0 .6-.4 1-1 1s-1-.4-1-1 .4-1 1-1 1 .4 1 1m-2.6 0c0 .6-.4 1-1 1s-1-.4-1-1 .4-1 1-1 1 .4 1 1m7.8 2.6c0 .6-.4 1-1 1s-1-.4-1-1 .4-1 1-1 1 .4 1 1m-2.6 0c0 .6-.4 1-1 1s-1-.4-1-1 .4-1 1-1 1 .4 1 1m-2.6 0c0 .6-.4 1-1 1s-1-.4-1-1 .4-1 1-1 1 .4 1 1m-2.6 0c0 .6-.4 1-1 1s-1-.4-1-1 .4-1 1-1 1 .4 1 1m5.2 2.5c0 .6-.4 1-1 1s-1-.4-1-1 .4-1 1-1 1 .5 1 1m-2.6 0c0 .6-.4 1-1 1s-1-.4-1-1 .4-1 1-1 1 .5 1 1M20 21c0 .6-.4 1-1 1s-1-.4-1-1 .4-1 1-1 1 .5 1 1m5.2 2.6c0 .6-.4 1-1 1s-1-.4-1-1 .4-1 1-1 1 .5 1 1m-2.6 0c0 .6-.4 1-1 1s-1-.4-1-1 .4-1 1-1 1 .5 1 1m-2.6 0c0 .6-.4 1-1 1s-1-.4-1-1 .4-1 1-1 1 .5 1 1m2.6 2.6c0 .6-.4 1-1 1s-1-.4-1-1 .4-1 1-1 1 .4 1 1m-2.6 0c0 .6-.4 1-1 1s-1-.4-1-1 .4-1 1-1 1 .4 1 1m-2.5 0c0 .6-.4 1-1 1s-1-.4-1-1 .4-1 1-1c.5 0 1 .4 1 1m5.1 2.6c0 .6-.4 1-1 1s-1-.4-1-1 .4-1 1-1 1 .4 1 1m-2.6 0c0 .6-.4 1-1 1s-1-.4-1-1 .4-1 1-1 1 .4 1 1m-2.5 0c0 .6-.4 1-1 1s-1-.4-1-1 .4-1 1-1c.5 0 1 .4 1 1m-2.6-2.6c0 .6-.4 1-1 1s-1-.4-1-1 .4-1 1-1c.5 0 1 .4 1 1m-2.6 0c0 .6-.4 1-1 1s-1-.4-1-1 .4-1 1-1 1 .4 1 1m-2.6 0c0 .6-.4 1-1 1s-1-.4-1-1 .4-1 1-1 1 .4 1 1m5.2 2.6c0 .6-.4 1-1 1s-1-.4-1-1 .4-1 1-1c.5 0 1 .4 1 1m-2.6 0c0 .6-.4 1-1 1s-1-.4-1-1 .4-1 1-1 1 .4 1 1m-2.6 0c0 .6-.4 1-1 1s-1-.4-1-1 .4-1 1-1 1 .4 1 1m-2.5-2.6c0 .6-.4 1-1 1s-1-.4-1-1 .4-1 1-1 1 .4 1 1m-2.6 0c0 .6-.4 1-1 1s-1-.4-1-1 .4-1 1-1 1 .4 1 1m-2.6 0c0 .6-.4 1-1 1s-1-.4-1-1 .4-1 1-1 1 .4 1 1m5.2 2.6c0 .6-.4 1-1 1s-1-.4-1-1 .4-1 1-1 1 .4 1 1m-2.6 0c0 .6-.4 1-1 1s-1-.4-1-1 .4-1 1-1 1 .4 1 1m-2.6 0c0 .6-.4 1-1 1s-1-.4-1-1 .4-1 1-1 1 .4 1 1m20.6 2.5c0 .6-.4 1-1 1s-1-.4-1-1 .4-1 1-1 1 .5 1 1m-2.6 0c0 .6-.4 1-1 1s-1-.4-1-1 .4-1 1-1 1 .5 1 1m-2.5 0c0 .6-.4 1-1 1s-1-.4-1-1 .4-1 1-1c.5 0 1 .5 1 1m5.1 2.6c0 .6-.4 1-1 1s-1-.4-1-1 .4-1 1-1 1 .5 1 1m2.6 0c0 .6-.4 1-1 1s-1-.4-1-1 .4-1 1-1c.5 0 1 .5 1 1m-5.2 0c0 .6-.4 1-1 1s-1-.4-1-1 .4-1 1-1 1 .5 1 1m2.6 2.6c0 .6-.4 1-1 1s-1-.4-1-1 .4-1 1-1 1 .4 1 1m2.6 0c0 .6-.4 1-1 1s-1-.4-1-1 .4-1 1-1c.5 0 1 .4 1 1m-5.2 0c0 .6-.4 1-1 1s-1-.4-1-1 .4-1 1-1 1 .4 1 1m2.6 2.6c0 .6-.4 1-1 1s-1-.4-1-1 .4-1 1-1 1 .4 1 1m2.6 0c0 .6-.4 1-1 1s-1-.4-1-1 .4-1 1-1c.5 0 1 .4 1 1m2.6 0c0 .6-.4 1-1 1s-1-.4-1-1 .4-1 1-1c.5 0 1 .4 1 1m-7.8 0c0 .6-.4 1-1 1s-1-.4-1-1 .4-1 1-1 1 .4 1 1m2.6 2.5c0 .6-.4 1-1 1s-1-.4-1-1 .4-1 1-1 1 .5 1 1m2.6 0c0 .6-.4 1-1 1s-1-.4-1-1 .4-1 1-1c.5 0 1 .5 1 1m2.6 0c0 .6-.4 1-1 1s-1-.4-1-1 .4-1 1-1c.5 0 1 .5 1 1m-7.8 0c0 .6-.4 1-1 1s-1-.4-1-1 .4-1 1-1 1 .5 1 1m2.6 2.6c0 .6-.4 1-1 1s-1-.4-1-1 .4-1 1-1 1 .5 1 1m2.6 0c0 .6-.4 1-1 1s-1-.4-1-1 .4-1 1-1c.5 0 1 .5 1 1m2.6 0c0 .6-.4 1-1 1s-1-.4-1-1 .4-1 1-1c.5 0 1 .5 1 1m-7.8 0c0 .6-.4 1-1 1s-1-.4-1-1 .4-1 1-1 1 .5 1 1m2.6 2.6c0 .6-.4 1-1 1s-1-.4-1-1 .4-1 1-1 1 .4 1 1m2.6 0c0 .6-.4 1-1 1s-1-.4-1-1 .4-1 1-1c.5 0 1 .4 1 1m2.6 0c0 .6-.4 1-1 1s-1-.4-1-1 .4-1 1-1c.5 0 1 .4 1 1m-7.8 0c0 .6-.4 1-1 1s-1-.4-1-1 .4-1 1-1 1 .4 1 1m2.6 2.6c0 .6-.4 1-1 1s-1-.4-1-1 .4-1 1-1 1 .4 1 1m2.6 0c0 .6-.4 1-1 1s-1-.4-1-1 .4-1 1-1c.5 0 1 .4 1 1m2.6 0c0 .6-.4 1-1 1s-1-.4-1-1 .4-1 1-1c.5 0 1 .4 1 1m-7.8 0c0 .6-.4 1-1 1s-1-.4-1-1 .4-1 1-1 1 .4 1 1m2.6 2.5c0 .6-.4 1-1 1s-1-.4-1-1 .4-1 1-1 1 .5 1 1m2.6 0c0 .6-.4 1-1 1s-1-.4-1-1 .4-1 1-1c.5 0 1 .5 1 1m2.6 0c0 .6-.4 1-1 1s-1-.4-1-1 .4-1 1-1c.5 0 1 .5 1 1m-7.8 0c0 .6-.4 1-1 1s-1-.4-1-1 .4-1 1-1 1 .5 1 1m-2.5-18c0 .6-.4 1-1 1s-1-.4-1-1 .4-1 1-1c.5 0 1 .5 1 1m-2.6-2.6c0 .6-.4 1-1 1s-1-.4-1-1 .4-1 1-1c.5 0 1 .5 1 1m-2.6 0c0 .6-.4 1-1 1s-1-.4-1-1 .4-1 1-1 1 .5 1 1m-2.6 0c0 .6-.4 1-1 1s-1-.4-1-1 .4-1 1-1 1 .5 1 1m5.2 2.6c0 .6-.4 1-1 1s-1-.4-1-1 .4-1 1-1c.5 0 1 .5 1 1m-2.6 0c0 .6-.4 1-1 1s-1-.4-1-1 .4-1 1-1 1 .5 1 1m-2.6 0c0 .6-.4 1-1 1s-1-.4-1-1 .4-1 1-1 1 .5 1 1m-2.5-2.6c0 .6-.4 1-1 1s-1-.4-1-1 .4-1 1-1 1 .5 1 1m-2.6 0c0 .6-.4 1-1 1s-1-.4-1-1 .4-1 1-1 1 .5 1 1m-2.6 0c0 .6-.4 1-1 1s-1-.4-1-1 .4-1 1-1 1 .5 1 1m5.2 2.6c0 .6-.4 1-1 1s-1-.4-1-1 .4-1 1-1 1 .5 1 1m-2.6 0c0 .6-.4 1-1 1s-1-.4-1-1 .4-1 1-1 1 .5 1 1m-2.6 0c0 .6-.4 1-1 1s-1-.4-1-1 .4-1 1-1 1 .5 1 1m36.1 1.2c-.6 0-1.2-.4-1.5-1L33 26.7c-.4-.8 0-1.8.8-2.2.8-.4 1.8 0 2.2.8l1.8 3.9 2.9-7.8c.3-.9 1.3-1.3 2.2-1 .9.3 1.3 1.3 1 2.2L39.6 34c-.2.6-.8 1-1.5 1.1" fill="#dc1946"/><path d="M45.3 37.5c-5.1 3.5-12.2 2.2-15.7-2.9s-2.2-12.2 2.9-15.7 12.2-2.2 15.7 2.9 2.2 12.2-2.9 15.7M52 19.1C47 11.9 37 10 29.8 15c-7.3 5-9.1 15-4.1 22.2 4.5 6.4 12.8 8.6 19.7 5.5l6.2 8.9c.9 1.3 2.7 1.6 4 .7 1.3-.9 1.6-2.7.8-4l-6.2-8.9c5.3-5.3 6.3-13.8 1.8-20.3m11.3 33.7c-.5 0-1-.1-1.4-.3l.2-.7c.3.2.7.3 1.1.3.6 0 .9-.2.9-.7 0-.4-.2-.5-.5-.6l-.9-.4c-.3-.1-.9-.4-.9-1.3s.8-1.4 1.7-1.4c.5 0 .9.1 1.3.3l-.3.7c-.3-.2-.6-.2-1-.2-.5 0-.9.2-.9.6 0 .4.3.5.5.6l.9.4c.7.3.9.7.9 1.2.1.9-.6 1.5-1.6 1.5zm5.3 0l-.1-.6c-.4.3-.7.6-1.3.6-.8 0-1.3-.5-1.3-1.3 0-.9.7-1.3 1.7-1.4l.9-.1v-.4c0-.7-.2-1.2-1-1.2-.4 0-.7.1-1 .3l-.3-.6c.4-.3.9-.4 1.5-.4 1 0 1.6.6 1.6 1.5v2.3l.2 1.1-.9.2zm-.2-2.2l-.8.1c-.6.1-1 .3-1 .7 0 .4.2.7.7.7.5 0 .8-.2 1.1-.4v-1.1zm8.1 2.1v-3.1c0-.7-.3-1.1-.9-1.1-.5 0-.9.2-1.1.5v3.8h-.8v-3.1c0-.7-.3-1.1-.9-1.1-.5 0-.8.2-1.1.5v3.8h-.8V49l-.1-1.1.8-.1.1.6c.4-.4.8-.6 1.4-.6.6 0 1 .2 1.3.7.4-.4.9-.7 1.6-.7.8 0 1.5.5 1.5 1.5v3.4h-1zm5.7-.3c-.5.3-.9.4-1.5.4-1.4 0-2.2-1-2.2-2.6 0-1.5.8-2.5 2-2.5s1.6.8 1.6 1.8v.6h-2.8c0 1.3.5 1.9 1.5 1.9.4 0 .7-.1 1.1-.3l.3.7zm-.8-2.8c0-.7-.3-1.2-.9-1.2-.6 0-1 .5-1.1 1.2h2zm4.8 3.1v-3.1c0-.7-.3-1.1-.9-1.1-.5 0-.8.2-1.1.5v3.8h-.8V49l-.1-1.1.8-.1.1.6c.4-.4.8-.6 1.4-.6.8 0 1.5.5 1.5 1.5v3.4h-.9zm7.3.1l-.1-.5c-.3.3-.7.5-1.3.5-1.1 0-1.8-.9-1.8-2.3 0-1.7.8-2.7 2.3-2.7.3 0 .5 0 .7.1v-1l-.2-1.1 1-.1v6l.1 1.1h-.7zm-.2-4.2c-.2-.1-.4-.1-.7-.1-.9 0-1.4.8-1.4 1.7 0 1.2.3 1.9 1.2 1.9.4 0 .7-.2.9-.4v-3.1zm5.7 3.8c-.5.3-.9.4-1.5.4-1.4 0-2.2-1-2.2-2.6 0-1.5.8-2.5 2-2.5s1.6.8 1.6 1.8v.6h-2.8c0 1.3.5 1.9 1.5 1.9.4 0 .7-.1 1.1-.3l.3.7zm-.8-2.8c0-.7-.3-1.2-.9-1.2-.6 0-1 .5-1.1 1.2h2zm3.7 3.1v-.6l2.4-3.6H102v-.7h3.3v.6l-2.4 3.6h2.5v.7h-3.5zm6.2.1c-1.5 0-2.1-1.1-2.1-2.5s.7-2.5 2.1-2.5c1.5 0 2.1 1.1 2.1 2.5s-.7 2.5-2.1 2.5zm0-4.3c-.8 0-1.2.5-1.2 1.8 0 1.2.4 1.8 1.2 1.8.8 0 1.2-.6 1.2-1.8 0-1.2-.4-1.8-1.2-1.8zm5.4.1c-.6 0-1 .1-1.3.5v3.6h-.8V49l-.1-1.1.8-.1.1.7c.3-.4.8-.7 1.4-.7v.8zm3.9-.1c.2.2.2.5.2.9 0 1-.7 1.6-1.7 1.6-.2 0-.4 0-.5-.1-.1 0-.1.1-.2.1-.1.1-.2.2-.2.4 0 .3.2.4.6.4h1.4c.9 0 1.3.3 1.3 1 0 1-1 2-2.7 2-1 0-1.6-.5-1.6-1.3 0-.4.2-.7.3-.9l.3-.3c-.2-.1-.3-.4-.3-.7 0-.3.2-.6.3-.7.1-.1.2-.2.3-.2-.4-.3-.7-.8-.7-1.4 0-1 .7-1.6 1.7-1.6.4 0 .7.1 1 .2l1.5-.2v.7h-1zm-.5 4.1h-1.7l-.2.2c-.1.2-.2.4-.2.6 0 .6.3.9 1.1.9 1.2 0 1.8-.7 1.8-1.2s-.3-.5-.8-.5zm-.9-4.3c-.5 0-1 .4-1 1 0 .7.4 1 1 1 .5 0 .9-.4.9-1s-.4-1-.9-1zm6.9 4.5c-.6 0-1.2-.1-1.5-.2v-5.8l-.1-1.1 1-.1v2.6c.3-.3.7-.5 1.3-.5 1.2 0 1.7.8 1.7 2.2 0 1.7-.8 2.9-2.4 2.9zm.4-4.3c-.4 0-.7.2-1 .4V52c.2.1.4.1.7.1 1 0 1.5-.8 1.5-1.8 0-1.1-.3-1.8-1.2-1.8zm6.6 3.9c-.5.3-.9.4-1.5.4-1.4 0-2.2-1-2.2-2.6 0-1.5.8-2.5 2-2.5s1.6.8 1.6 1.8v.6H127c0 1.3.5 1.9 1.5 1.9.4 0 .7-.1 1.1-.3l.3.7zm-.8-2.8c0-.7-.3-1.2-.9-1.2-.6 0-1 .5-1.1 1.2h2zm4.4 2.9c-.3.2-.6.3-1.1.3-.7 0-1.2-.5-1.2-1.3v-3h-.7V48l.7-.1V47l.8-.1v.9h1.4v.7H132v2.7c0 .7.2.9.6.9.3 0 .4-.1.6-.2l.3.6zm4.2-.1c-.5.3-.9.4-1.5.4-1.4 0-2.2-1-2.2-2.6 0-1.5.8-2.5 2-2.5s1.6.8 1.6 1.8v.6h-2.8c0 1.3.5 1.9 1.5 1.9.4 0 .7-.1 1.1-.3l.3.7zm-.8-2.8c0-.7-.3-1.2-.9-1.2-.6 0-1 .5-1.1 1.2h2zm4.1-1c-.6 0-1 .1-1.3.5v3.6h-.8V49l-.1-1.1.8-.1.1.7c.3-.4.8-.7 1.4-.7v.8zm8.7 4.1v-3.1c0-.7-.3-1.1-.9-1.1-.5 0-.9.2-1.1.5v3.8h-.8v-3.1c0-.7-.3-1.1-.9-1.1-.5 0-.8.2-1.1.5v3.8h-.9V49l-.1-1.1.8-.1.1.6c.4-.4.8-.6 1.4-.6.6 0 1 .2 1.3.7.4-.4.9-.7 1.6-.7.8 0 1.5.5 1.5 1.5v3.4h-.9zm4.7.1l-.1-.6c-.4.3-.7.6-1.3.6-.8 0-1.3-.5-1.3-1.3 0-.9.7-1.3 1.7-1.4l.9-.1v-.4c0-.7-.2-1.2-1-1.2-.4 0-.7.1-1 .3l-.3-.6c.4-.3.9-.4 1.5-.4 1 0 1.6.6 1.6 1.5v2.3l.2 1.1-.9.2zm-.2-2.2l-.8.1c-.6.1-1 .3-1 .7 0 .4.2.7.7.7.5 0 .8-.2 1.1-.4v-1.1zm2.4 2.1v-5.9l-.1-1.1 1-.1v7.1h-.9zm3.1.2l-2.2-2.8 1.8-2.2h.9l-1.7 2.1 2.1 2.6-.9.3zm4.9-.5c-.5.3-.9.4-1.5.4-1.4 0-2.2-1-2.2-2.6 0-1.5.8-2.5 2-2.5s1.6.8 1.6 1.8v.6h-2.8c0 1.3.5 1.9 1.5 1.9.4 0 .7-.1 1.1-.3l.3.7zm-.8-2.8c0-.7-.3-1.2-.9-1.2-.6 0-1 .5-1.1 1.2h2zm4.8 3.1v-3.1c0-.7-.3-1.1-.9-1.1-.5 0-.8.2-1.1.5v3.8h-.8V49l-.1-1.1.8-.1.1.6c.4-.4.8-.6 1.4-.6.8 0 1.5.5 1.5 1.5v3.4h-.9zM64.9 16.9h-.3v5.4h-2.5v-14c.4 0 .7-.1 1.1-.1.7-.1 1.7-.2 2.6-.2 3 0 4.8 1.3 4.8 3.8.1 3.3-2.6 5.1-5.7 5.1zm.8-7h-1.1v5h.3c1.8 0 3.4-.9 3.4-2.8 0-1.6-1.1-2.2-2.6-2.2zm12 12.6l-.2-1.3c-.7.7-1.6 1.3-2.9 1.3-1.8 0-2.9-1.1-2.9-2.9 0-2.1 1.6-3 3.8-3.2l1.8-.2v-.9c0-1.3-.5-2.3-2.1-2.3-.9 0-1.5.3-2.2.6l-.9-1.6c1-.7 2.1-1.1 3.6-1.1 2.4 0 3.9 1.4 3.9 3.6v5l.4 2.6-2.3.4zm-.4-4.8l-1.4.2c-1.2.2-1.9.6-1.9 1.5 0 .8.5 1.4 1.3 1.4.9 0 1.5-.4 2-.8v-2.3zm11.6 4.1c-.8.4-1.5.7-2.8.7-1.9 0-3-1.2-3-3.3v-6.1h-1.7v-1.6l1.7-.4V9.3l2.3-.3v2.2h3.1v1.9h-3.1v5.4c0 1.5.4 1.9 1.4 1.9.6 0 .9-.2 1.4-.4l.7 1.8zm3.2-11.9c-.9 0-1.6-.7-1.6-1.6 0-.9.7-1.6 1.6-1.6.9 0 1.6.7 1.6 1.6 0 .9-.7 1.6-1.6 1.6zm-1.2 12.4V14l-.4-2.6 2.7-.3v11.2h-2.3zm13.6-.6c-1.2.6-2.2.9-3.6.9-3.5 0-5.1-2.2-5.1-5.9 0-3.4 1.9-5.7 4.7-5.7 2.8 0 3.9 1.9 3.9 4.5v1.3h-6.3c.1 2.5 1 3.7 3.2 3.7 1 0 1.6-.3 2.4-.6l.8 1.8zM98 9.9c-.8 0-1.5-.6-1.5-1.5 0-.8.6-1.5 1.5-1.5.8 0 1.5.7 1.5 1.5-.1.8-.7 1.5-1.5 1.5zm4.3 5.3c0-1.4-.5-2.3-1.9-2.3s-2.1 1-2.3 2.3h4.2zm-.2-5.3c-.8 0-1.5-.6-1.5-1.5 0-.8.6-1.5 1.5-1.5.8 0 1.5.7 1.5 1.5s-.7 1.5-1.5 1.5zm11.1 12.4v-7.1c0-1.4-.5-2.1-1.8-2.1-.9 0-1.6.4-2.2.9v8.3h-2.4V14l-.4-2.6 2.3-.3.2 1.2c.7-.7 1.8-1.3 3.2-1.3 1.9 0 3.4 1.2 3.4 3.5v7.8h-2.3zm11.7-.5c-.8.4-1.5.7-2.8.7-1.9 0-3-1.2-3-3.3v-6.1h-1.7v-1.6l1.7-.4V9.3l2.4-.3v2.2h3.1v1.9h-3.1v5.4c0 1.5.4 1.9 1.4 1.9.6 0 .9-.2 1.4-.4l.6 1.8zm9.7-.1c-1.2.6-2.2.9-3.6.9-3.5 0-5.1-2.2-5.1-5.9 0-3.4 1.9-5.7 4.7-5.7 2.8 0 3.9 1.9 3.9 4.5v1.3h-6.3c.1 2.5 1 3.7 3.2 3.7 1 0 1.6-.3 2.4-.6l.8 1.8zm-2.3-6.5c0-1.4-.5-2.3-1.9-2.3-1.3 0-2.1 1-2.3 2.3h4.2zm11 7.1v-7.1c0-1.4-.5-2.1-1.8-2.1-.9 0-1.6.4-2.2.9v8.3h-2.4V14l-.4-2.6 2.3-.3.2 1.2c.7-.7 1.8-1.3 3.2-1.3 1.9 0 3.4 1.2 3.4 3.5v7.8h-2.3zm10.9-13.8c-.4-.1-.6-.2-1.1-.2-1 0-1.7.6-1.7 1.9v1.1h2.9v1.9h-2.9v9.1H149v-9.1h-1.7v-1.6l1.7-.4v-1c0-2.4 1.7-4 4-4 .7 0 1.1.1 1.7.2l-.5 2.1zm9.5 13.2c-1.2.6-2.2.9-3.6.9-3.5 0-5.1-2.2-5.1-5.9 0-3.4 1.9-5.7 4.7-5.7 2.8 0 3.9 1.9 3.9 4.5v1.3h-6.3c.1 2.5 1 3.7 3.2 3.7 1 0 1.6-.3 2.4-.6l.8 1.8zm-2.2-6.5c0-1.4-.5-2.3-1.9-2.3-1.3 0-2.1 1-2.3 2.3h4.2zm10.9 7.3l-.2-1.2c-.5.4-1.5 1.2-2.8 1.2-2.6 0-4.1-2.1-4.1-5.3 0-3.9 2.1-6.1 5.4-6.1.4 0 .7 0 .9.1.1 0 .3 0 .4.1V9.1l-.4-2.6 2.7-.4v13.4l.4 2.6-2.3.4zm-.5-9.1l-.4-.1c-.3-.1-.6-.1-1.1-.1-1.8 0-2.9 1.6-2.9 3.5 0 2.5.7 3.8 2.5 3.8.8 0 1.4-.3 1.8-.7v-6.4zm13.6 8.3c-1.2.6-2.2.9-3.6.9-3.5 0-5.1-2.2-5.1-5.9 0-3.4 1.9-5.7 4.7-5.7 2.8 0 3.9 1.9 3.9 4.5v1.3h-6.3c.1 2.5 1 3.7 3.2 3.7 1 0 1.6-.3 2.4-.6l.8 1.8zm-2.2-6.5c0-1.4-.5-2.3-1.9-2.3-1.3 0-2.1 1-2.3 2.3h4.2zm9.9-2c-1.3 0-2.2.3-3.1 1.1v7.9h-2.4v-8.3l-.4-2.6 2.3-.3.2 1.5c.7-.8 1.6-1.6 3.2-1.6v2.3zm6.8 9.3l-.2-1.3c-.7.7-1.6 1.3-2.9 1.3-1.8 0-2.9-1.1-2.9-2.9 0-2.1 1.6-3 3.8-3.2l1.8-.2v-.9c0-1.3-.5-2.3-2.1-2.3-.9 0-1.5.3-2.2.6l-.9-1.7c1-.7 2.1-1.1 3.6-1.1 2.4 0 3.9 1.4 3.9 3.6v5l.4 2.6-2.3.5zm-.4-4.8l-1.4.2c-1.2.2-1.9.6-1.9 1.5 0 .8.5 1.4 1.3 1.4.9 0 1.5-.4 2-.8v-2.3zm11.7 4.1c-.8.4-1.5.7-2.8.7-1.9 0-3-1.2-3-3.3v-6.1h-1.7v-1.6l1.7-.4V9.3l2.4-.3v2.2h3.1v1.9h-3.1v5.4c0 1.5.4 1.9 1.4 1.9.6 0 .9-.2 1.4-.4l.6 1.8zm3.2-11.9c-.9 0-1.6-.7-1.6-1.6 0-.9.7-1.6 1.6-1.6.9 0 1.6.7 1.6 1.6 0 .9-.7 1.6-1.6 1.6zm-1.2 12.4V14l-.4-2.6 2.7-.3v11.2h-2.3zm13.6-.6c-1.2.6-2.2.9-3.6.9-3.5 0-5.1-2.2-5.1-5.9 0-3.4 1.9-5.7 4.7-5.7 2.8 0 3.9 1.9 3.9 4.5v1.3h-6.3c.1 2.5 1 3.7 3.2 3.7 1 0 1.6-.3 2.4-.6l.8 1.8zm-2.3-6.5c0-1.4-.5-2.3-1.9-2.3-1.3 0-2.1 1-2.3 2.3h4.2zM70.8 41l-7-12.1.1 11.9h-1.5V26.7h1.9l6.8 11.7-.1-11.7h1.5v14l-1.7.3zm13.3-.7c-1 .5-2.1.8-3.4.8-3.1 0-4.8-2.2-4.8-5.8 0-3.4 1.7-5.7 4.4-5.7 2.5 0 3.6 1.6 3.6 3.9v1.3h-6.6c0 3.3 1.1 4.8 3.7 4.8.9 0 1.6-.3 2.4-.7l.7 1.4zm-1.5-6.5c0-1.8-.6-2.9-2.2-2.9-1.5 0-2.5 1.2-2.8 2.9h5zM93.8 41l-.2-1.1c-.8.7-1.8 1.2-3 1.2-2.3 0-4-1.9-4-5.2 0-3.7 1.9-6.2 5.2-6.2.5 0 .9 0 1.2.1.2 0 .3.1.5.1v-2.5l-.3-2.3 1.8-.3v13.7l.3 2.3-1.5.2zm-.3-9.6l-.5-.2c-.4-.1-.8-.2-1.4-.2-2.3 0-3.5 2-3.5 4.2 0 2.8.8 4.5 3 4.5 1 0 1.7-.4 2.3-.9v-7.4zm13 8.9c-1 .5-2.1.8-3.4.8-3.1 0-4.8-2.2-4.8-5.8 0-3.4 1.7-5.7 4.4-5.7 2.5 0 3.6 1.6 3.6 3.9v1.3h-6.6c0 3.3 1.1 4.8 3.7 4.8.9 0 1.6-.3 2.4-.7l.7 1.4zm-1.5-6.5c0-1.8-.6-2.9-2.2-2.9-1.5 0-2.5 1.2-2.8 2.9h5zm9.3-2.5c-1.2 0-2.2.4-3.1 1.1v8.5h-1.5v-8.5l-.3-2.3 1.5-.3.2 1.5c.8-.8 1.8-1.5 3.1-1.5v1.5zm2.7 9.6V27.4l-.3-2.3 1.8-.3v16H117zm11.1.1l-.2-1.3c-.8.8-1.7 1.4-3 1.4-1.9 0-2.9-1.1-2.9-2.8 0-1.9 1.5-2.8 3.8-3.1l2.1-.2v-1.1c0-1.7-.5-2.8-2.4-2.8-.9 0-1.6.3-2.3.6l-.5-1.2c.9-.5 1.9-.9 3.2-.9 2 0 3.5 1.2 3.5 3.4v5.4l.3 2.3-1.6.3zm-.3-4.9l-2 .3c-1.6.2-2.4.7-2.4 1.8 0 1 .6 1.6 1.6 1.6 1.2 0 2-.5 2.7-1.2v-2.5zm12.3 4.8v-7.2c0-1.8-.6-2.7-2.3-2.7-1.2 0-1.9.5-2.7 1.2v8.7h-1.5v-8.5l-.3-2.3 1.5-.3.2 1.2c.9-.8 1.9-1.4 3.3-1.4 1.9 0 3.3 1.2 3.3 3.4v7.8h-1.5zm12.1.1l-.2-1.1c-.8.7-1.8 1.2-3 1.2-2.3 0-4-1.9-4-5.2 0-3.7 1.9-6.2 5.2-6.2.5 0 .9 0 1.2.1.2 0 .3.1.5.1v-2.5l-.3-2.3 1.8-.3v13.7l.3 2.3-1.5.2zm-.3-9.6l-.5-.2c-.4-.1-.8-.2-1.4-.2-2.3 0-3.5 2-3.5 4.2 0 2.8.8 4.5 3 4.5 1 0 1.7-.4 2.3-.9v-7.4z" fill="#110e72"/></svg>