<svg width="65" height="65" viewBox="0 0 65 65" xmlns="http://www.w3.org/2000/svg"><title>Group 2</title><g fill="none" fill-rule="evenodd"><rect fill="#7952B3" width="65" height="65" rx="6"/><path d="M35.32 47.754H21.991V16.585h13.025c5.918 0 9.482 2.981 9.482 7.776 0 3.284-2.42 6.178-5.551 6.675v.389c4.19.388 7.085 3.412 7.085 7.473 0 5.465-4.061 8.856-10.714 8.856zm-7.755-26.74v8.683h5.378c3.953 0 6.048-1.534 6.048-4.342 0-2.743-1.966-4.342-5.335-4.342h-6.091zm0 22.312h6.48c4.104 0 6.285-1.685 6.285-4.86 0-3.11-2.246-4.752-6.501-4.752h-6.264v9.612z" fill="#FFF"/></g></svg>