<svg width="150" height="150" viewBox="0 0 150 150" xmlns="http://www.w3.org/2000/svg" xmlns:xlink="http://www.w3.org/1999/xlink"><defs><path id="a" d="M0 0h150v150H0z"/></defs><g fill="none" fill-rule="evenodd"><mask id="b" fill="#fff"><use xlink:href="#a"/></mask><g mask="url(#b)"><path d="M70.915 124.94c5.123 6.68 6.125 7.254 15.638 5.773 3.6-.561 3.887-4.7 5.898-7.216-6.192-1.266-17.851-.438-21.536 1.443m12.112-25.528c2.84 0 5.687.123 8.517-.04 2.088-.12 3.049 1.125 3.404 2.698 1.509 6.704 2.168 13.562 1.34 20.351-.499 4.102-3.738 7.314-5.749 10.898-1.374 2.45-2.875 4.934-4.551 7.261-1.483 2.058-2.91 2.757-4.858.654-4.824-5.206-10.384-9.729-14.506-15.585-.998-1.417-1.701-2.905-1.597-4.78.301-5.43-1.75-10.682-1.25-16.166.197-2.16.9-3.558 3.103-3.787 5.374-.56 10.67-2.028 16.147-1.504m-6.484-59.3c-11.65.184-21.185 5.915-26.728 16.997-4.234 8.463-2.876 17.635 5.138 26.722 3.113 3.53 6.349 6.953 9.46 10.487.55.625 1.74 1.355 1.006 2.33-.815 1.08-2.061.484-2.865-.17-8.13-6.631-15.344-14.142-18.061-24.553-1.826-6.993-.05-13.854 4.025-19.904 4.952-7.354 11.767-11.902 20.38-14.367 12.058-3.449 26.184 1.035 33.01 10.453 7.907 10.91 8.185 21.916.846 32.775-2.96 4.378-6.974 8.09-7.858 13.677-.17 1.079-1.21 1.295-2.308 1.097-1.588-.286-1.51-1.528-1.234-2.474 1.015-3.47 2.689-6.58 4.935-9.481 4.512-5.827 8.391-12.091 7.958-19.84-.553-9.901-6.744-17.99-16.59-22.069-3.308-1.371-6.717-1.436-11.114-1.68" fill="#000"/><path d="M61.944 65.528c-.135.069-.594.157-.651.36-.236.83-.32 1.585.563 2.276 1.024.801 1.464 2.345 3.073 2.392.139.004.352-.216.417-.378.367-.913-2.289-4.721-3.402-4.65m24.564 2.516c.926-.105 4.602-4.386 4.533-5.34-.116-1.605-1.413-1.372-2.073-.864-1.662 1.28-3.019 2.88-3.459 5.075-.188.937.223 1.145.999 1.13M75.135 94.088c-3.195-2.092-2.034-5.63-3.393-8.193-1.531-2.889-2.242-6.2-3.495-9.25-1.275-3.108-4.953-2.748-7.18-4.654-2.272-1.945-3.774-4.57-2.89-6.683 1.163-2.779 4.314-3.537 6.702-1.623 1.46 1.17 2.328 2.71 3.177 4.366 2.003 3.905 5.802 4.766 10.124 3.665 3.982-1.016 3.54-4.588 4.968-6.99 1.053-1.771 2.157-3.345 3.641-4.726 1.883-1.75 4.154-2.219 6.052-.64 1.87 1.556 1.337 3.905.395 5.96-1.467 3.2-4.14 5.187-7.217 6.541-1.993.877-2.715 2.148-2.69 4.21.06 4.798.045 9.6-.012 14.398-.01.852.59 2.177-.9 2.388-1.608.226-1.353-1.137-1.71-2.147-1.604-4.54-1.277-9.202-.99-13.835.153-2.468-1.017-2.483-2.754-2.038-.199.052-.366.231-.548.352-1.423.95-4.265-.243-4.44 1.035-.275 2.024.908 4.254 1.504 6.387 1.026 3.664 2.606 7.25 1.656 11.477" fill="#FD415B"/><path d="M72.772 13.465c0-1.53.099-3.067-.037-4.583-.08-.891.263-1.757.847-1.86.804-.144 1.622.45 1.867 1.42 1.353 5.37 2.236 10.812 2.477 16.348.037.862.023 1.767-.691 2.442-.49.461-.074 1.707-1.289 1.527-.976-.144-1.62-.684-1.583-1.732.164-4.594-2.204-8.91-1.59-13.562m-38.17 9.949c.642.167 1.214.195 1.814.616 3.737 2.628 6.726 5.996 9.673 9.421.825.959.99 2.151.127 2.888-.596.508-1.523.092-2.456-.59-3.935-2.884-6.87-6.74-10.326-10.076-.372-.36-1.187-.918-.81-1.617.391-.726 1.281-.598 1.978-.642m77.893 66.476c3.367 1.595 6.765 3.128 10.089 4.81 1.623.822 3.128 1.887 4.644 2.905.66.442 1.12 1.095.582 1.931-.467.726-1.077.862-1.957.591-5.247-1.616-9.78-4.632-14.464-7.342-.498-.287-.909-1.31-.81-1.898.128-.756.905-1.177 1.916-.998m6.298-68.075c-.038.194-.2.832-.774 1.455-3.237 3.506-6.432 7.055-9.534 10.68-.706.827-1.452 1.609-2.352 1.05-.785-.486-.96-1.686-.424-2.617 2.818-4.909 6.631-8.99 10.975-12.54.97-.794 2.407-.51 2.109 1.972M24.434 67.8c-2.278 0-4.575.173-6.826-.076-1.058-.118-2.768-.267-2.596-2.105.16-1.703 1.586-1.453 2.725-1.457 4.125-.01 8.25.049 12.375.024 1.503-.009 3.252.422 3.275 1.805.03 1.8-1.862 1.967-3.416 1.961-1.845-.005-3.691 0-5.537 0V67.8zm10.046 40.737c-.746.066-.871-.316-.96-.771-.125-.625-.423-1.213.209-1.794 3.59-3.298 7.758-5.665 12.226-7.516.594-.246 1.419-.215 1.905.734.76 1.486-.508 2.195-1.198 2.602-2.707 1.601-5.591 2.899-8.369 4.385-1.362.729-2.635 1.625-3.813 2.36m92.838-44.44c-1.893.362-4.342-.53-6.577.807-.998.598-1.745-.139-2.041-.974-.329-.924-.153-1.867.979-2.313 3.726-1.467 7.61-1.596 11.516-1.247.792.07 1.496.892 2.306 1.07 1.148.255.908 1.01.894 1.741-.019.995-.834.878-1.416.897-1.743.054-3.49.02-5.66.02" fill="#000"/></g></g></svg>