<svg width="150" height="150" viewBox="0 0 150 150" xmlns="http://www.w3.org/2000/svg" xmlns:xlink="http://www.w3.org/1999/xlink"><defs><path id="a" d="M0 0h150v150H0z"/></defs><g fill="none" fill-rule="evenodd"><mask id="b" fill="#fff"><use xlink:href="#a"/></mask><g mask="url(#b)"><path d="M59.977 44.795c-3.5 14.537-11.056 26.44-16.284 39.322-3.787 9.34-5.272 19.18-.297 28.918.454.888 1.763 2.997-.385 3.878-1.734.71-2.084-.93-2.807-2.1-5.088-8.24-5.043-17.156-2.584-25.93 3.244-11.576 10.468-21.53 14.401-32.868 1.82-5.25 3.548-10.556 3.172-16.274-.084-1.258-.315-2.859 1.234-3.523 1.564-.671 2.258.703 3.312 1.547 3.287 2.635 5.666 5.967 7.727 9.527.803 1.386 1.403 2.966 3.168 2.797 1.616-.155.758-1.966 1.29-2.916 4.799-8.577 4.15-17.922 3.956-27.234-.033-1.593-1.241-3.812 1.336-4.744 2.535-.918 3.397 1.64 4.097 2.773 8.397 13.59 18.222 26.378 24.672 41.073 5.141 11.716 8.681 24.12 6.427 37.036-2.686 15.382-11.098 26.51-26.134 32.478-8.76 3.477-17.286 4.348-26.275 1.676-2.061-.613-4.142-2.002-3.884-3.672.34-2.205 2.47-2.398 4.87-1.669 15.738 4.776 31.932-.655 41.02-14.667 5.77-8.901 7.064-19.035 5.307-29.95-3.029-18.814-12.952-34.055-23.12-49.344-.441-.662-.357-1.696-1.554-1.646-1.384.059-1.48 1.148-1.78 2.108-1.413 4.516-.865 9.346-2.817 13.884-1.63 3.788-3.24 7.598-5.26 11.157-2.17 3.823-3.256 3.455-5.67-.293-1.79-2.783-2.268-6.282-4.892-8.578-.685-.598-1.171-1.424-2.246-2.766" fill="#000"/><path d="M85.18 60.578c8.644 12.31 11.758 25.573 7.905 39.636-4.057 14.804-21.25 20.58-32.199 11.746-5.57-4.496-6.332-10.541-5.006-16.893 1.423-6.811 6.11-12.623 6.134-20.003.008-2.304 1.75-2.876 3.744-.829 2.2 2.26 4.682 4.206 6 7.218 1.179 2.688 2.551 2.831 4.301.278 3.055-4.453 4.918-9.397 5.942-14.606.472-2.403 1.06-4.517 3.18-6.547" fill="#FD415B"/></g></g></svg>