<svg width="150" height="150" viewBox="0 0 150 150" xmlns="http://www.w3.org/2000/svg" xmlns:xlink="http://www.w3.org/1999/xlink"><defs><path id="a" d="M0 0h150v150H0z"/></defs><g fill="none" fill-rule="evenodd"><mask id="b" fill="#fff"><use xlink:href="#a"/></mask><g mask="url(#b)"><path d="M25.516 37.702c-3.831 6.08-4.082 12.38-3.779 18.763.444 9.336.735 18.686 1.517 27.994.601 7.156 2.762 13.827 10.734 16.019 5.63 1.548 11.4 2.849 17.193 3.48 8.665.947 9.585 1.403 10.106 10.033.208 3.427 1.066 6.661 1.825 9.95.138.598-.24 1.395.736 1.553.893.143 1.078-.663 1.39-1.188 2.057-3.466 4.145-6.917 6.094-10.446 2.328-4.216 5.97-5.94 10.603-5.808 12.639.362 25.035-1.318 37.256-4.407 10.229-2.586 11.707-7.563 12.36-15.784.9-11.357.347-22.723.269-34.089-.085-12.328-5.826-20.018-17.986-22.186-7.945-1.416-15.95-2.6-24.04-3.339-18.075-1.652-35.965-.897-53.797 2.33-4.798.87-8.794 2.716-10.481 7.125m96.867-7.21c9.343 3.42 12.153 11.326 12.882 20.582 1.09 13.833.828 27.658-.178 41.48-.463 6.36-6.546 12.634-14.664 14.83-12.44 3.366-25.206 4.404-38.015 4.127-4.006-.087-6.149 1.611-7.994 4.388-3.266 4.917-6.343 9.958-9.517 14.938-.475.747-.608 1.884-1.846 1.869-1.378-.018-1.627-1.107-2.047-2.116-2.331-5.597-3.772-11.442-4.254-17.45-.277-3.465-1.543-4.621-5.089-4.989-7.698-.8-15.377-2.411-22.543-5.283-5.47-2.192-8.28-7.373-9.041-13.115-1.955-14.713-4.048-29.614-1.812-44.32 1.98-13.027 6.183-17.918 23.664-20.22 18.86-2.484 37.744-2.493 56.552-.242 7.954.951 16.311 1.104 23.902 5.522" fill="#000"/><path d="M38.902 72.968c2.47-4.833 4.943-9.46 10.497-9.958 10.342-.929 13.634.222 18.05 11.569 1.337 3.439 1.57 7.138 2.134 10.77.408 2.632-.683 2.787-2.394 2.717-10.28-.426-20.533-1.49-30.845-1.317-1.154.02-2.672-.508-2.03-2.563 1.256-4.016 2.079-8.19 4.588-11.218m9.51-30.009c2.586-4.36 8.31-5.756 12.738-3.108 3.945 2.359 5.241 7.974 2.806 12.16-2.29 3.936-8.77 5.971-12.514 3.927-4.577-2.5-5.896-8.147-3.03-12.98" fill="#FD415B"/><path d="M118.007 65.485c-3.608 5.72-3.558 5.94 1.91 10.246 1.038.819 2.374 1.541 2.897 2.632.347.724 2.227 1.933.35 2.924-1.18.623-2.832.93-3.491-.69-1.007-2.47-3.745-2.946-5.129-4.91-.424-.602-1.025-.859-1.738-.63-1.243.397-.373 1.293-.422 1.969-.057.78-.206 1.583-.09 2.343.27 1.767-.183 3.764-1.782 3.914-2.028.19-2.734-2.014-2.64-3.742.378-6.984-.036-13.924-.73-20.864-.076-.762.316-1.558.419-2.348.127-.983.742-1.467 1.623-1.411.795.05.682.776.891 1.411.797 2.404 1.547 4.829 1.25 7.337-.155 1.313.428 2.28 1.171 2.657 1.117.567 1.464-.823 1.913-1.562 1.184-1.951 2.23-3.99 3.457-5.913.429-.67.608-2.111 1.854-1.577 1.103.474 1.29 1.818.92 2.785-.715 1.872-1.738 3.626-2.633 5.43m-19.492-4.863c2.07 6.264.97 12.708 1.62 18.976.073.71.127 3.012-1.786 2.9-2.044-.118-1.464-2.296-1.283-3.108.28-1.26-.278-2.264-.273-3.393.03-6.243-.052-6.244-6.346-6.48-4.105-.155-5.64-2.308-4.089-7.012 1.3-3.941 1.09-7.977 1.684-11.945.18-1.205.318-2.438 1.369-2.407 1.259.036 1.482 1.275 1.44 2.628-.129 4.153.024 8.31-1.405 12.32-.511 1.434.129 3.468 1.403 2.953 1.915-.774 5.223 2.217 5.812-1.965.186-1.325.463-2.555 1.854-3.467" fill="#000"/></g></g></svg>