<svg width="24" height="28" viewBox="0 0 24 28" xmlns="http://www.w3.org/2000/svg"><path d="M5.787 21.315c0-.827-.108-1.671.02-2.476.426-2.7-.3-4.391-3.196-5.132-1.069-.274-3.048-.848-2.525-2.932.464-1.85 2.107-1.179 3.146-1.076 3.088.308 4.332-.953 3.975-4.02-.04-.349.042-.709.038-1.062-.023-1.84.567-3.962 1.994-4.492 1.976-.733 2.293 1.944 3.007 3.103 2.827 4.593 2.689 4.69 7.393 2.685.897-.383 1.91-.67 2.517.19.628.889.555 2.069-.113 3.003-1.145 1.597-3.967 2.464-3.221 4.788.577 1.802 2.486 3.162 3.8 4.72.82.971 1.972 2.177 1.017 3.308-1 1.185-2.483.691-3.711-.265-1.056-.822-2.41-1.086-3.586-1.747-1.498-.842-3.135-.791-4.14 1.445-.906 2.013-2.54 3.676-3.643 5.615-.501.882-.922 1.204-1.85.941-.85-.239-.985-.981-1.015-1.64-.078-1.649-.026-3.304-.026-4.956h.119z" fill="#FFF" fill-rule="evenodd"/></svg>