<svg width="21" height="24" viewBox="0 0 21 24" xmlns="http://www.w3.org/2000/svg"><path d="M13.374 24c-.344-.469-.641-.826-.885-1.214-1.88-2.994-3.987-2.196-5.824-.11-1.005 1.14-2.066 1.724-3.163.812-.728-.603-1.407-1.638-.343-3.047.804-1.065.41-2.78 1.445-4.14.729-.958.813-2.582-1.255-3.191-.916-.271-1.697-1.157-2.384-1.896C-.078 10.091-.317 8.647.452 7.39c.715-1.168 1.816-.791 3.048-.293 3.798 1.538 5.313-.792 6.064-3.776C9.97 1.703 10.66-.136 12.266.008c1.849.167 2.24 2.148 1.98 3.87-.543 3.578.273 5.87 4.801 4.987.695-.135 1.643-.253 1.778.875.099.839.527 1.704-.479 2.385-1.304.885-2.666 1.738-3.79 2.81-1.151 1.1-2.67 2.045-1.192 4.2 1.297 1.894.145 3.615-1.99 4.865" fill="#FFF" fill-rule="evenodd"/></svg>