<svg width="17" height="22" viewBox="0 0 17 22" xmlns="http://www.w3.org/2000/svg"><path d="M10.177 10.44c-.842-1-.034-3.049-2.033-3.216-1.08-.09-1.817 1.475-1.667 1.71.734 1.157.38 3.258 2.44 3.336 1.202.047.606-1.317 1.26-1.83m3.778-7.258c-.988 2.77-.57 5.015 2.117 6.694 1.044.652 1.144 2.098.614 3.103-.625 1.188-1.465 2.685-3.102 2.444-2.852-.42-3.49 1.444-3.823 3.493-.243 1.499-1.152 2.579-2.253 3.022-1.017.41-1.454-1.324-2.159-1.735-2.835-1.653-2.961-3.449-1.552-6.222.705-1.387-.688-2.514-2.228-3.122C-.421 10.073-.096 8.224.29 6.694c.394-1.554 1.283-2.863 3.3-2.536 2.283.373 3.824-.565 4.766-2.684.806-1.815 2.378-1.588 3.897-1.22 1.542.374 2.016 1.435 1.701 2.928" fill="#FFF" fill-rule="evenodd"/></svg>