<svg width="150" height="150" viewBox="0 0 150 150" xmlns="http://www.w3.org/2000/svg" xmlns:xlink="http://www.w3.org/1999/xlink"><defs><path id="a" d="M0 0h150v150H0z"/></defs><g fill="none" fill-rule="evenodd"><mask id="b" fill="#fff"><use xlink:href="#a"/></mask><g mask="url(#b)"><path d="M20.797 118.406c10.6-.698 21.198-1.388 31.796-2.104 1.389-.094 2.772-.473 4.154-.457 14.087.15 28.081-1.564 42.14-2.074 12.5-.453 24.965-1.893 37.446-2.893.632-.05 1.277-.135 1.899-.06 1.216.148 2.978-.682 3.078 1.638.086 1.98-1.397 2.811-2.794 2.793-5.363-.068-10.562 1.385-15.866 1.543-11.274.337-22.506 1.405-33.754 2.077-17.69 1.057-35.36 2.317-53.08 2.963-5.925.215-11.86.898-17.813 1.1-3.166.108-4.963-1.064-5.167-4.37-.164-2.657-.676-5.31-.641-7.958.204-15.74-1.262-31.416-2.221-47.09-.68-11.092-1.24-22.238-2.608-33.3-.13-1.036-1.212-3.022 1.095-3.204 2.077-.163 1.615 1.656 1.872 2.948 3.721 18.776 3.834 37.906 5.53 56.877.72 8.067.431 16.223.68 24.336.035 1.11-.776 2.63 1.024 3.238-1.85 3.757-1.45 4.252 3.23 3.997" fill="#000"/><path d="M20.797 118.406c-4.68.255-5.08-.24-3.23-3.997 8.082-10.457 15.948-21.093 24.66-31.048 3.379-3.862 3.862-3.81 7.465-.4 5.551 5.255 11.125 10.491 16.486 15.936 2.263 2.3 3.954 2.121 5.813-.177 10.08-12.457 22.386-22.773 33.19-34.533.583-.633 1.138-1.448 1.88-1.751 2.539-1.04 1.507-2.071.167-3.246-6.445-5.65-6.24-7.037 1.72-10.282 4.121-1.679 8.303-3.219 12.505-4.682 3.421-1.191 4.496-.259 4.583 3.36.151 6.242-2.57 11.924-3.444 17.977-.266 1.845-1.53 3.67-4.254 1.43-6.865-5.65-5.436-5.002-11.74 1.996-11.155 12.383-23.07 23.978-34.893 35.687-2.9 2.871-4.656.34-6.604-1.072-6.17-4.476-11.662-9.724-16.775-15.352-1.837-2.023-3.07-1.278-4.275.444-5.475 7.814-11.44 15.228-17.808 22.332-2.037 2.273-4.019 4.633-5.446 7.378" fill="#FD415B"/></g></g></svg>