<svg width="112" height="33" viewBox="0 0 112 33" xmlns="http://www.w3.org/2000/svg"><path d="M57.772 6.465c0-1.53.099-3.067-.037-4.583-.08-.891.263-1.757.847-1.86.804-.144 1.622.45 1.867 1.42 1.353 5.37 2.236 10.812 2.477 16.348.037.862.023 1.767-.691 2.442-.49.461-.074 1.707-1.289 1.527-.976-.144-1.62-.684-1.583-1.732.164-4.594-2.204-8.91-1.59-13.562m-29.17 1.949c.642.167 1.214.195 1.814.616 3.737 2.628 6.726 5.996 9.673 9.421.825.959.99 2.151.127 2.888-.596.508-1.523.092-2.456-.59-3.935-2.884-6.87-6.74-10.326-10.076-.372-.36-1.187-.918-.81-1.617.391-.726 1.281-.598 1.978-.642m63.191.4c-.038.194-.2.832-.774 1.455-3.237 3.506-6.432 7.055-9.534 10.68-.706.827-1.452 1.609-2.352 1.05-.785-.486-.96-1.686-.424-2.617 2.818-4.909 6.631-8.99 10.975-12.54.97-.794 2.407-.51 2.109 1.972M9.822 27.777c-2.14-.78-4.359-1.403-6.388-2.406-.955-.473-2.51-1.198-1.72-2.866.733-1.546 1.988-.823 3.058-.437 3.88 1.402 7.737 2.867 11.621 4.255 1.415.506 2.912 1.508 2.46 2.816-.587 1.701-2.422 1.211-3.88.675-1.733-.637-3.469-1.264-5.203-1.895l.052-.142zm94.936.95c-1.655.988-4.261.987-5.905 3.008-.733.903-1.686.466-2.25-.218-.625-.755-.783-1.701.128-2.508 3-2.653 6.605-4.102 10.395-5.11.769-.205 1.71.326 2.533.217 1.166-.153 1.199.639 1.436 1.33.322.942-.484 1.11-1.024 1.327-1.62.647-3.273 1.211-5.313 1.954" fill="#FFF" fill-rule="evenodd"/></svg>