<svg width="150" height="150" viewBox="0 0 150 150" xmlns="http://www.w3.org/2000/svg" xmlns:xlink="http://www.w3.org/1999/xlink"><defs><path id="a" d="M0 0h150v150H0z"/></defs><g fill="none" fill-rule="evenodd"><mask id="b" fill="#fff"><use xlink:href="#a"/></mask><g mask="url(#b)"><path d="M118.92 36.15c-2-4.53-6.074-6.519-10.89-7.614-6.323-1.438-12.713-.915-19.063-.722-12.748.384-25.364 2.21-37.746 5.131-8.236 1.943-16.465 4.148-24.281 7.607-4.037 1.787-6.919 4.33-8.269 8.676-2.514 8.098-.488 15.906 1.3 23.703 1.602 6.99 3.798 13.848 5.273 20.86 1.367 6.502 6.392 12.052 13.012 12.779 7.086.778 14.229.635 21.344.223 2.367-.136 4.059.388 4.906 2.822 1.589 4.57 3.311 9.092 4.902 13.661.287.826.087 2.13 1.126 2.193.964.06 1.44-.887 1.796-1.98 1.25-3.836 2.948-7.53 4.126-11.386 1.246-4.079 4.48-6.113 7.977-6.746 11.81-2.138 23.183-5.45 34.16-10.311 8.078-3.576 11.29-9.51 9.623-18.039-1.63-8.342-2.618-16.823-4.5-25.103-1.19-5.235-1.628-10.792-4.797-15.754m-52.822 88.887c-2.31-2.717-2.938-7.2-4.432-11.297-.917-2.518-2.471-3.386-4.753-3.137-6.146.668-12.242-.12-18.362-.251-7.343-.156-14.564-6.549-16.361-13.752-2.111-8.457-4.492-16.897-6.59-25.374-1.69-6.822-2.503-13.85-1.368-20.954 1.506-9.412 8.583-13.229 16.404-15.755 4.92-1.589 9.995-2.886 15.017-4.232 9.515-2.55 19.136-4.475 28.883-5.412 10.43-1.003 20.925-2.244 31.437-.744 9.02 1.286 15.645 5.075 18.388 14.77 3.883 13.721 6.52 27.607 7.764 41.768.604 6.873-2.12 12.272-8.201 15.853-7.582 4.463-15.938 6.72-24.32 9.078-5.127 1.442-10.288 2.445-15.495 3.416-1.674.311-3.112 1.228-3.909 3.273-2.318 5.951-5.06 11.736-7.534 17.628-.398.948-.44 2.166-1.608 2.358-1.377.226-1.378-1.286-1.91-2.038-.965-1.369-1.716-2.887-3.05-5.198" fill="#000"/><path d="M35.216 52.607c3.31-1.98 6.199-2.626 9.257-.442 2.026 1.448 3.854.928 5.15-1.15 3.27-5.238 10.074-6.413 15.362-1.803 2.23 1.944 2.185 5.064 2.376 7.489.925 11.736-2.142 22.644-8.605 32.46-4.009 6.088-5.521 6.161-11.372-.233-5.567-6.085-11.253-12.17-15.043-19.652-1.45-2.86-2.114-5.926-1.87-9.127.267-3.512 1.613-6.387 4.745-7.542" fill="#FD415B"/><path d="M101.74 50.176c.979 1.837 2.027 3.451 1.846 5.54-.062.72.301 1.644 1.12 1.889 1.129.337 1.642-.862 1.943-1.452.905-1.78 1.573-3.7 2.132-5.625.256-.882.525-1.37 1.474-1.336 1.173.04.794.958 1.01 1.613.941 2.862-.558 5.165-1.766 7.448-1.115 2.108-1.967 3.527 1.176 4.842 2.18.912 3.824 3.033 6.083 4.149.7.346 2.006 1.372 1.126 2.469-.6.748-1.544 1.331-2.985.484a40.46 40.46 0 01-5.657-4.013c-.827-.699-1.89-1.187-2.806-.586-1.094.718.015 1.597.297 2.32.806 2.066.833 4.082-.152 6.054-.17.34-.779.875-1.264.354-1.497-1.607-2.147-3.413-2.515-5.723-.927-5.83-2.514-11.56-3.995-17.289-.347-1.344-.919-2.69.635-3.28 1.923-.732 1.488 1.595 2.298 2.142M88.12 47.71c2.296 4.443 2.636 9.354 3.727 13.988 1.047 4.445 2.362 8.87 3.051 13.426.255 1.686.427 3.25-1.438 3.608-2.267.437-2.108-.887-2.524-2.984-1.143-5.753-2.868-11.41-3.701-17.25-.09-.636-.259-1.068-.772-.989-.612.096-.849.572-1.03 1.327-.501 2.085-1.074 4.16-1.949 6.166-.384.88-.823 1.539-1.488 2.004-.635.446-1.25 1.561-2.282.67-.867-.747.099-1.365.255-2.03 1.394-5.904 2.89-11.786 4.148-17.718.239-1.125.672-1.704 1.573-1.75 1.094-.057 2.418-.067 2.43 1.531" fill="#000"/></g></g></svg>