<svg width="150" height="150" viewBox="0 0 150 150" xmlns="http://www.w3.org/2000/svg" xmlns:xlink="http://www.w3.org/1999/xlink"><defs><path id="a" d="M0 0h150v150H0z"/></defs><g fill="none" fill-rule="evenodd"><mask id="b" fill="#fff"><use xlink:href="#a"/></mask><g mask="url(#b)"><path d="M21.31 98.259c1.357 1.262 1.817 2.083 2.818 2.722 6.649 4.247 13.93 5.881 21.696 5.318 2.372-.172 3.748.488 5.25 2.376 7.657 9.622 17.882 14.073 30.07 14.501 6.797.24 13.416-.611 19.737-3.01 5.89-2.232 11.207-5.415 15.641-10.099 9.406-9.936 12.221-22.374 13.235-35.286.56-7.115-1.037-14.177-3.71-20.94-5.994-15.169-17.693-23.37-33.122-26.119-8.926-1.59-18.02-1.19-26.838 2.367-8.147 3.286-14.42 8.456-19.307 15.599-6.209 9.074-8.658 19.27-8.775 30.059-.052 4.81.292 9.7 1.197 14.412.406 2.116.433 2.941-1.456 4.01-4.869 2.75-10.04 4.222-16.436 4.09m113.056-27.407c-.087 17-4.087 30.502-14.052 41.77-5.178 5.856-11.931 9.337-19.298 12.016-8.224 2.992-16.653 3.363-25 2.331-10.428-1.288-19.597-5.863-26.375-14.235-1.516-1.872-2.992-2.46-5.318-2.463-10.731-.015-20.064-3.796-27.921-11.095-.68-.633-1.939-1.349-1.151-2.843.669-1.27 1.784-.914 2.7-.865 5.462.292 10.58-1.142 15.646-2.912 1.557-.544 2.453-1.36 2.046-3.254-1.949-9.065-1.773-18.09.002-27.217 1.89-9.73 6.244-18.052 12.803-25.33 6.788-7.535 15.361-11.569 25.23-13.604a54.645 54.645 0 0113.636-1.094c17.84.806 35.523 11.15 42.774 29.074.881 2.178 1.963 4.313 2.522 6.575 1.236 5.005 2.146 10.084 1.756 13.146" fill="#000"/><path d="M55.242 76.472c.012-3.195 2.736-5.884 5.969-5.95 2.87-.058 6.525 3.116 6.432 6.029-.097 3.1-3.16 6.274-6.266 6.253-3.283-.022-6.148-2.979-6.135-6.332m36.063.543c-.115 3.478-2.815 5.838-6.293 5.823-2.769-.013-6.308-4.11-6.016-6.521.387-3.187 3.719-5.997 6.636-5.79 3.366.241 5.789 2.977 5.673 6.488m17.177 4.619c-3.646-.029-6.094-2.402-6.112-5.927-.016-3.28 2.423-5.473 6.102-5.482 3.836-.01 6.3 2.229 6.255 5.687-.044 3.457-2.548 5.752-6.245 5.722" fill="#FD415B"/></g></g></svg>