<svg xmlns="http://www.w3.org/2000/svg" xmlns:xlink="http://www.w3.org/1999/xlink" width="225.208" height="54.003"><defs><path id="a" d="M0 0h225.208v54.003H0z"/></defs><clipPath id="b"><use xlink:href="#a" overflow="visible"/></clipPath><path clip-path="url(#b)" fill="#45347D" d="M12.938 34.495c-.032-.107-.06-.226-.093-.331l-1.577-5.715a3.597 3.597 0 0 0-1.133-1.71c-.532-.441-1.252-.661-2.159-.661H0l6.758 21.505 6.18-13.088zM43.871 0h-8.435c-.881 0-1.642.247-2.281.739s-1.101 1.036-1.387 1.632l-.4.864.006-.008L8.67 53.669l.015.048h9.446L43.871 0zm2.177 53.691h4.913l-6.59-28.409h-6.513l-13.57 28.409h4.991c.507 0 .968-.14 1.384-.419.416-.28.696-.602.839-.965l7.214-17.51c.065-.156.172-.396.322-.721.149-.325.305-.676.468-1.053l.497-1.16c.169-.396.305-.751.41-1.063.09.572.204 1.206.341 1.901.136.696.263 1.382.38 2.057l1.384 8.112h-4.759l-1.736 4.328h7.236l.878 5.109c.065.416.263.75.594 1.004.332.253.771.38 1.317.38M75.373 31.6l2.223-2.574a8.962 8.962 0 0 0-3.364-2.915 10.5 10.5 0 0 0-2.378-.839c-.878-.201-1.85-.302-2.915-.302a14.77 14.77 0 0 0-7.722 2.145 14.82 14.82 0 0 0-3.09 2.515 15.63 15.63 0 0 0-2.389 3.334 17.456 17.456 0 0 0-1.54 4.037 18.991 18.991 0 0 0-.546 4.621c0 1.755.244 3.389.731 4.903.488 1.515 1.206 2.825 2.155 3.929.948 1.105 2.115 1.973 3.5 2.603 1.384.631 2.973.946 4.767.946 2.158 0 4.085-.38 5.781-1.141 1.697-.76 3.162-1.874 4.397-3.344l-2.223-2.671a.83.83 0 0 0-.302-.243c-.136-.072-.309-.108-.517-.108s-.403.056-.585.166a5.415 5.415 0 0 0-.584.419 51.53 51.53 0 0 1-.702.556 4.696 4.696 0 0 1-.956.556 6.67 6.67 0 0 1-1.355.419c-.526.11-1.147.166-1.862.166a5.1 5.1 0 0 1-2.281-.517 5.126 5.126 0 0 1-1.814-1.502c-.507-.656-.906-1.459-1.199-2.408-.292-.948-.439-2.027-.439-3.236 0-1.664.215-3.169.644-4.514.429-1.345 1.024-2.489 1.784-3.432a7.908 7.908 0 0 1 2.691-2.174 7.488 7.488 0 0 1 3.344-.76c.611 0 1.14.052 1.589.156.448.104.835.231 1.16.38.325.149.604.315.838.497.234.182.445.348.634.497.188.15.374.277.556.381.182.104.383.156.604.156.338 0 .611-.072.819-.215.208-.143.39-.305.546-.487m25.386 0l2.223-2.574a8.955 8.955 0 0 0-3.363-2.915 10.526 10.526 0 0 0-2.379-.839c-.877-.201-1.849-.302-2.915-.302a14.736 14.736 0 0 0-7.721 2.145 14.826 14.826 0 0 0-3.091 2.515c-.929.988-1.726 2.1-2.388 3.334a17.457 17.457 0 0 0-1.541 4.037 18.991 18.991 0 0 0-.546 4.621c0 1.755.244 3.389.731 4.903.488 1.515 1.206 2.825 2.155 3.929.949 1.105 2.116 1.973 3.5 2.603 1.384.631 2.973.946 4.767.946 2.158 0 4.085-.38 5.781-1.141 1.697-.76 3.162-1.874 4.397-3.344l-2.223-2.671a.822.822 0 0 0-.302-.243 1.1 1.1 0 0 0-.516-.108c-.208 0-.403.056-.585.166a5.42 5.42 0 0 0-.585.419c-.208.169-.442.354-.702.556-.26.202-.579.387-.956.556a6.65 6.65 0 0 1-1.355.419c-.526.11-1.147.166-1.862.166a5.1 5.1 0 0 1-2.281-.517 5.123 5.123 0 0 1-1.813-1.502c-.507-.656-.907-1.459-1.2-2.408-.292-.948-.438-2.027-.438-3.236 0-1.664.214-3.169.643-4.514s1.024-2.489 1.784-3.432a7.927 7.927 0 0 1 2.691-2.174 7.488 7.488 0 0 1 3.344-.76c.611 0 1.141.052 1.589.156s.835.231 1.16.38c.325.149.605.315.839.497.234.182.445.348.633.497.188.15.374.277.556.381.182.104.383.156.604.156.338 0 .611-.072.82-.215.207-.143.389-.305.545-.487m10.49 22.091l3.471-28.409h-6.396l-3.47 28.409h6.395z"/><path clip-path="url(#b)" fill="#61AC9E" d="M140.101 30.645l1.248-1.521a12.412 12.412 0 0 0-1.511-1.521 8.788 8.788 0 0 0-1.804-1.17 9.338 9.338 0 0 0-2.203-.741 13.15 13.15 0 0 0-2.691-.253c-2.054 0-3.971.4-5.752 1.199a13.954 13.954 0 0 0-4.65 3.373c-1.319 1.45-2.356 3.182-3.11 5.196-.754 2.015-1.131 4.238-1.131 6.669 0 1.781.244 3.412.733 4.894.486 1.482 1.188 2.759 2.104 3.831a9.498 9.498 0 0 0 3.364 2.506c1.326.597 2.82.896 4.484.896 2.119 0 3.974-.367 5.567-1.101a13.231 13.231 0 0 0 4.221-3.09l-1.267-1.58a.684.684 0 0 0-.195-.165.57.57 0 0 0-.293-.069c-.143 0-.305.072-.486.215l-.674.526c-.266.208-.579.439-.936.692-.358.254-.789.485-1.296.693s-1.091.383-1.755.526c-.663.143-1.424.214-2.281.214-1.106 0-2.119-.214-3.042-.643a6.85 6.85 0 0 1-2.388-1.842c-.669-.8-1.193-1.771-1.57-2.916-.377-1.143-.566-2.437-.566-3.88 0-1.989.277-3.782.829-5.381.552-1.599 1.31-2.961 2.272-4.085a9.88 9.88 0 0 1 3.412-2.593c1.312-.605 2.723-.907 4.231-.907 1.131 0 2.05.13 2.759.39.708.26 1.287.543 1.735.848.449.306.802.588 1.064.848.259.26.506.39.74.39a.871.871 0 0 0 .487-.127c.13-.084.247-.191.351-.321m6.542 23.047l3.471-28.721h-3.471l-3.471 28.721h3.471zm13.5-13.444c.013-.28.019-.549.019-.809 0-1.885-.403-3.322-1.208-4.31-.806-.987-1.957-1.481-3.452-1.481-1.312 0-2.596.393-3.851 1.179a9.68 9.68 0 0 0-1.331 1.036l-.225 1.958s.28.62 1.009.066c.212-.162.863-.666 1.308-.895.617-.319 1.218-.478 1.804-.478.857 0 1.484.26 1.881.78.396.52.595 1.313.595 2.379 0 .221-.01.451-.029.692-.02.24-.043.49-.069.75l-1.482 12.577h3.471l1.483-12.577c.039-.299.064-.588.077-.867m19.833.292a5.34 5.34 0 0 0 .526-2.369c0-.481-.114-.988-.341-1.521-.228-.533-.575-1.02-1.043-1.462s-1.066-.806-1.794-1.092c-.728-.286-1.591-.429-2.592-.429a8.799 8.799 0 0 0-2.955.487 9.534 9.534 0 0 0-2.515 1.336 10.07 10.07 0 0 0-2.028 2.018 12.974 12.974 0 0 0-1.501 2.535 14.13 14.13 0 0 0-.936 2.876 14.492 14.492 0 0 0-.322 3.032c0 1.222.168 2.327.508 3.315.337.988.818 1.829 1.442 2.525a6.292 6.292 0 0 0 2.281 1.608c.898.377 1.911.565 3.042.565.831 0 1.609-.074 2.33-.224a8.656 8.656 0 0 0 2.076-.712c.663-.324 1.31-.73 1.94-1.218a17.996 17.996 0 0 0 1.94-1.764l-.858-1.073c-.194-.221-.409-.331-.643-.331a1.17 1.17 0 0 0-.624.195c-.208.13-.436.289-.682.478-.246.188-.517.396-.81.623a5.75 5.75 0 0 1-1.014.624 7.078 7.078 0 0 1-1.306.478 6.482 6.482 0 0 1-1.667.195c-1.533 0-2.681-.458-3.441-1.375-.688-.828-1.062-1.997-1.128-3.5 0 0-.082-1.21.082-2.523.126-1.004.628-2.43.628-2.43.147-.435.315-.854.505-1.257a8.534 8.534 0 0 1 1.365-2.086 6.03 6.03 0 0 1 1.833-1.394 5.066 5.066 0 0 1 2.262-.507c.519 0 .961.068 1.326.204.364.137.66.309.887.517.227.208.393.439.497.692.104.254.156.498.156.732 0 .468-.104.916-.312 1.345-.208.429-.637.829-1.287 1.199-.65.371-1.579.715-2.788 1.034-.925.243-2.088.466-3.478.668-.209.564-.297 1.423-.311 1.569-.041.417.451.704.692.672 1.664-.221 3.088-.485 4.267-.794 1.638-.429 2.925-.933 3.86-1.511.937-.578 1.58-1.228 1.931-1.95m17.36-2.856l1.091-1.307c-.662-.884-1.436-1.556-2.319-2.018-.885-.461-1.977-.692-3.277-.692-1.481 0-2.84.338-4.075 1.014a10.468 10.468 0 0 0-3.197 2.71c-.897 1.131-1.596 2.431-2.096 3.9a14.158 14.158 0 0 0-.751 4.602c0 1.195.153 2.29.458 3.285.305.994.754 1.846 1.345 2.554a6.014 6.014 0 0 0 2.204 1.648c.877.39 1.889.584 3.032.584.753 0 1.459-.058 2.115-.175a7.384 7.384 0 0 0 1.901-.614 9.169 9.169 0 0 0 1.823-1.179 18.434 18.434 0 0 0 1.921-1.853l-.858-1.053c-.182-.221-.403-.331-.663-.331a.927.927 0 0 0-.536.185 8.24 8.24 0 0 0-.585.458 37.1 37.1 0 0 1-.72.595 5.585 5.585 0 0 1-.928.594 5.99 5.99 0 0 1-1.208.459 6.003 6.003 0 0 1-1.56.185c-.702 0-1.316-.127-1.843-.38a3.758 3.758 0 0 1-1.335-1.072c-.365-.462-.637-1.021-.819-1.678a8.197 8.197 0 0 1-.273-2.193c0-1.326.173-2.567.516-3.724.344-1.157.816-2.158 1.414-3.003.598-.845 1.296-1.511 2.096-1.999a4.814 4.814 0 0 1 2.544-.731c.663 0 1.206.082 1.629.244.422.163.773.345 1.052.546.28.202.507.383.683.546.175.163.354.244.536.244a.79.79 0 0 0 .39-.098.918.918 0 0 0 .293-.253m6.537 16.008l3.509-28.721h-3.412l-3.529 28.721h3.432zm14.214-19.752h-3.061c-.312 0-.566.065-.761.195a4.03 4.03 0 0 0-.604.507l-5.713 5.85s-.692.585-.869 1.784c-.1.69-.27 2.33-.106 2.641l5.03 8.092c.144.247.303.422.479.527.175.104.405.156.691.156h2.984l-5.927-9.749a10.887 10.887 0 0 0-.43-.683 2.307 2.307 0 0 0-.526-.546c.221-.13.425-.283.614-.458.188-.176.38-.367.575-.575l7.624-7.741zm2.199-7.077c.29-.395.648-.706 1.076-.933.426-.226.865-.34 1.316-.34.464 0 .874.118 1.232.354.355.236.613.547.771.935.158.387.203.803.133 1.25a2.845 2.845 0 0 1-.542 1.269 3.2 3.2 0 0 1-1.07.925c-.424.227-.865.34-1.321.34-.456 0-.862-.114-1.215-.342a2.017 2.017 0 0 1-.78-.925 2.265 2.265 0 0 1-.142-1.267 2.87 2.87 0 0 1 .542-1.266m-.748 2.692c.18.444.473.799.881 1.064.406.265.876.398 1.407.398.532 0 1.045-.133 1.535-.4a3.584 3.584 0 0 0 1.214-1.065c.318-.444.516-.918.597-1.423a2.62 2.62 0 0 0-.161-1.45 2.245 2.245 0 0 0-.896-1.058 2.533 2.533 0 0 0-1.381-.385c-.519 0-1.021.13-1.512.389a3.56 3.56 0 0 0-1.224 1.061 3.3 3.3 0 0 0-.611 1.443c-.08.507-.029.983.151 1.426m3.696-2.88c-.178-.159-.449-.239-.816-.239h-.811l-.532 3.385h.389l.217-1.385h.646l.591 1.385h.464l-.673-1.512c.198-.087.358-.208.482-.363.122-.155.2-.334.232-.537.052-.33-.011-.575-.189-.734m-1.291.092h.423c.505 0 .723.221.654.662a.79.79 0 0 1-.282.521.91.91 0 0 1-.578.179h-.431l.214-1.362z"/></svg>