<svg xmlns="http://www.w3.org/2000/svg" xmlns:xlink="http://www.w3.org/1999/xlink" width="225.208" height="54.003"><defs><path id="a" d="M0 0h225.208v54.003H0z"/></defs><clipPath id="b"><use xlink:href="#a" overflow="visible"/></clipPath><path clip-path="url(#b)" fill="#FFF" d="M12.938 34.495c-.032-.107-.06-.225-.093-.331l-1.577-5.715a3.597 3.597 0 0 0-1.133-1.71c-.532-.441-1.252-.661-2.159-.661H0l6.758 21.505 6.18-13.088zM43.871 0h-8.435c-.881 0-1.642.247-2.281.739s-1.101 1.036-1.387 1.632l-.4.864.006-.007L8.67 53.669l.015.048h9.446L43.871 0zm2.177 53.691h4.913l-6.59-28.409h-6.513l-13.57 28.409h4.991c.507 0 .968-.139 1.384-.419s.696-.602.839-.965l7.214-17.511c.065-.155.172-.395.322-.72.149-.325.305-.676.468-1.053.162-.377.328-.763.497-1.16.169-.396.305-.751.41-1.063.09.572.204 1.205.341 1.901.136.696.263 1.382.38 2.057l1.384 8.112h-4.759l-1.736 4.328h7.236l.878 5.109c.065.416.263.75.594 1.004.332.253.771.38 1.317.38M75.373 31.6l2.223-2.574a8.962 8.962 0 0 0-3.364-2.915 10.5 10.5 0 0 0-2.378-.839c-.878-.201-1.85-.302-2.915-.302-1.417 0-2.776.186-4.075.556-1.3.371-2.516.9-3.647 1.589a14.847 14.847 0 0 0-3.09 2.514c-.93.99-1.726 2.101-2.389 3.336a17.43 17.43 0 0 0-1.54 4.036 18.991 18.991 0 0 0-.546 4.621c0 1.755.244 3.389.731 4.904.488 1.514 1.206 2.824 2.155 3.928.948 1.105 2.115 1.973 3.5 2.603 1.384.631 2.973.946 4.767.946 2.158 0 4.085-.38 5.781-1.141 1.697-.76 3.162-1.874 4.397-3.344l-2.223-2.671a.82.82 0 0 0-.302-.243c-.136-.072-.309-.108-.517-.108s-.403.056-.585.166a5.415 5.415 0 0 0-.584.419c-.209.169-.443.355-.702.556a4.742 4.742 0 0 1-.956.556 6.67 6.67 0 0 1-1.355.419c-.526.11-1.147.166-1.862.166a5.1 5.1 0 0 1-2.281-.517 5.126 5.126 0 0 1-1.814-1.502c-.507-.656-.906-1.458-1.199-2.408-.292-.948-.439-2.027-.439-3.236 0-1.664.215-3.169.644-4.514.429-1.346 1.024-2.489 1.784-3.432a7.908 7.908 0 0 1 2.691-2.174 7.488 7.488 0 0 1 3.344-.76c.611 0 1.14.052 1.589.156.448.104.835.231 1.16.38.325.149.604.315.838.497.234.182.445.348.634.497.188.15.374.277.556.381s.383.156.604.156c.338 0 .611-.072.819-.215.208-.143.39-.305.546-.487m25.386 0l2.223-2.574a8.955 8.955 0 0 0-3.363-2.915 10.526 10.526 0 0 0-2.379-.839c-.877-.201-1.849-.302-2.915-.302a14.736 14.736 0 0 0-7.721 2.145 14.853 14.853 0 0 0-3.091 2.514 15.663 15.663 0 0 0-2.388 3.336c-.663 1.235-1.177 2.58-1.541 4.036s-.546 2.996-.546 4.621c0 1.755.244 3.389.731 4.904.488 1.514 1.206 2.824 2.155 3.928.949 1.105 2.116 1.973 3.5 2.603 1.384.631 2.973.946 4.767.946 2.158 0 4.085-.38 5.781-1.141 1.697-.76 3.162-1.874 4.397-3.344l-2.223-2.671a.812.812 0 0 0-.302-.243 1.1 1.1 0 0 0-.516-.108c-.208 0-.403.056-.585.166a5.42 5.42 0 0 0-.585.419 37.03 37.03 0 0 1-.702.556c-.26.201-.579.387-.956.556a6.65 6.65 0 0 1-1.355.419c-.526.11-1.147.166-1.862.166a5.1 5.1 0 0 1-2.281-.517 5.123 5.123 0 0 1-1.813-1.502c-.507-.656-.907-1.458-1.2-2.408-.292-.948-.438-2.027-.438-3.236 0-1.664.214-3.169.643-4.514.429-1.346 1.024-2.489 1.784-3.432a7.927 7.927 0 0 1 2.691-2.174 7.488 7.488 0 0 1 3.344-.76c.611 0 1.141.052 1.589.156s.835.231 1.16.38c.325.149.605.315.839.497.234.182.445.348.633.497.188.15.374.277.556.381.182.104.383.156.604.156.338 0 .611-.072.82-.215.207-.143.389-.305.545-.487m10.49 22.091l3.471-28.409h-6.396l-3.47 28.409h6.395zm28.852-23.047l1.248-1.52a12.35 12.35 0 0 0-1.511-1.522 8.788 8.788 0 0 0-1.804-1.17 9.338 9.338 0 0 0-2.203-.741 13.15 13.15 0 0 0-2.691-.253c-2.054 0-3.971.4-5.752 1.199a13.954 13.954 0 0 0-4.65 3.373c-1.319 1.45-2.356 3.182-3.11 5.197-.754 2.014-1.131 4.237-1.131 6.669 0 1.781.244 3.412.733 4.893.486 1.483 1.188 2.76 2.104 3.831.917 1.073 2.038 1.908 3.364 2.506s2.82.896 4.484.896c2.119 0 3.974-.367 5.567-1.101a13.204 13.204 0 0 0 4.221-3.091l-1.267-1.579a.718.718 0 0 0-.195-.165.57.57 0 0 0-.293-.068c-.143 0-.305.071-.486.214l-.674.527c-.266.208-.579.438-.936.691-.358.254-.789.486-1.296.694s-1.091.382-1.755.525c-.663.144-1.424.215-2.281.215-1.106 0-2.119-.215-3.042-.644a6.838 6.838 0 0 1-2.388-1.842c-.669-.799-1.193-1.771-1.57-2.916-.377-1.143-.566-2.437-.566-3.879 0-1.99.277-3.783.829-5.381.552-1.6 1.31-2.961 2.272-4.085a9.884 9.884 0 0 1 3.412-2.594c1.312-.605 2.723-.906 4.231-.906 1.131 0 2.05.13 2.759.389.708.26 1.287.543 1.735.848a7.6 7.6 0 0 1 1.064.849c.259.259.506.389.74.389a.88.88 0 0 0 .487-.126 1.5 1.5 0 0 0 .351-.322m6.542 23.047l3.471-28.721h-3.471l-3.471 28.721h3.471zm13.5-13.443c.013-.281.019-.549.019-.81 0-1.885-.403-3.321-1.208-4.31-.806-.987-1.957-1.481-3.452-1.481-1.312 0-2.596.394-3.851 1.18-.46.289-.901.645-1.331 1.036l-.225 1.958s.28.619 1.009.065c.212-.162.863-.666 1.308-.895.617-.319 1.218-.478 1.804-.478.857 0 1.484.26 1.881.78.396.52.595 1.313.595 2.379 0 .221-.01.452-.029.693-.02.239-.043.489-.069.75l-1.482 12.576h3.471l1.483-12.576c.039-.3.064-.589.077-.867m19.833.292a5.341 5.341 0 0 0 .526-2.37c0-.481-.114-.988-.341-1.521a4.384 4.384 0 0 0-1.043-1.462c-.468-.441-1.066-.806-1.794-1.092-.728-.286-1.591-.428-2.592-.428a8.774 8.774 0 0 0-2.955.488 9.473 9.473 0 0 0-2.515 1.335 10.064 10.064 0 0 0-2.028 2.017 12.982 12.982 0 0 0-1.501 2.536c-.41.91-.722 1.869-.936 2.875a14.487 14.487 0 0 0-.322 3.033c0 1.221.168 2.327.508 3.314.337.988.818 1.829 1.442 2.526a6.301 6.301 0 0 0 2.281 1.607c.898.377 1.911.565 3.042.565.831 0 1.609-.074 2.33-.223a8.789 8.789 0 0 0 2.076-.712c.663-.324 1.31-.731 1.94-1.219a17.892 17.892 0 0 0 1.94-1.764l-.858-1.073c-.194-.22-.409-.331-.643-.331-.208 0-.416.066-.624.195-.208.13-.436.29-.682.478s-.517.396-.81.623c-.292.229-.63.437-1.014.624-.383.19-.819.349-1.306.479a6.529 6.529 0 0 1-1.667.194c-1.533 0-2.681-.458-3.441-1.375-.688-.827-1.062-1.996-1.128-3.5 0 0-.082-1.21.082-2.523.126-1.003.628-2.429.628-2.429.147-.436.315-.855.505-1.258a8.553 8.553 0 0 1 1.365-2.086 6.03 6.03 0 0 1 1.833-1.394 5.079 5.079 0 0 1 2.262-.506c.519 0 .961.067 1.326.204.364.136.66.308.887.516.227.208.393.44.497.693.104.254.156.498.156.731 0 .468-.104.916-.312 1.346-.208.429-.637.828-1.287 1.198-.65.371-1.579.715-2.788 1.034-.925.243-2.088.466-3.478.668-.209.565-.297 1.423-.311 1.57-.041.417.451.704.692.671 1.664-.22 3.088-.485 4.267-.793 1.638-.429 2.925-.934 3.86-1.511.937-.578 1.58-1.229 1.931-1.95m17.36-2.857l1.091-1.306c-.662-.884-1.436-1.556-2.319-2.019-.885-.461-1.977-.691-3.277-.691-1.481 0-2.84.337-4.075 1.013a10.468 10.468 0 0 0-3.197 2.71c-.897 1.131-1.596 2.432-2.096 3.901a14.147 14.147 0 0 0-.751 4.601c0 1.195.153 2.29.458 3.285.305.994.754 1.846 1.345 2.554a6.003 6.003 0 0 0 2.204 1.648c.877.39 1.889.584 3.032.584.753 0 1.459-.057 2.115-.174a7.426 7.426 0 0 0 1.901-.615 9.162 9.162 0 0 0 1.823-1.178 18.556 18.556 0 0 0 1.921-1.854l-.858-1.053c-.182-.22-.403-.331-.663-.331a.928.928 0 0 0-.536.186 7.92 7.92 0 0 0-.585.457c-.214.183-.455.382-.72.596a5.583 5.583 0 0 1-.928.593 6.05 6.05 0 0 1-1.208.459 6.003 6.003 0 0 1-1.56.185c-.702 0-1.316-.127-1.843-.38a3.756 3.756 0 0 1-1.335-1.071c-.365-.462-.637-1.022-.819-1.679a8.19 8.19 0 0 1-.273-2.192c0-1.327.173-2.568.516-3.725.344-1.156.816-2.157 1.414-3.003.598-.845 1.296-1.511 2.096-1.999a4.822 4.822 0 0 1 2.544-.73c.663 0 1.206.082 1.629.244.422.163.773.344 1.052.546.28.202.507.382.683.546.175.163.354.244.536.244a.79.79 0 0 0 .39-.099.894.894 0 0 0 .293-.253m6.537 16.008l3.509-28.721h-3.412l-3.529 28.721h3.432zm14.214-19.752h-3.061c-.312 0-.566.065-.761.195a4.03 4.03 0 0 0-.604.507l-5.713 5.851s-.692.585-.869 1.783c-.1.69-.27 2.33-.106 2.642l5.03 8.091c.144.247.303.422.479.528.175.103.405.155.691.155h2.984l-5.927-9.749a11.186 11.186 0 0 0-.43-.683 2.326 2.326 0 0 0-.526-.546c.221-.129.425-.283.614-.458.188-.175.38-.367.575-.575l7.624-7.741zm2.199-7.075c.29-.396.648-.706 1.076-.934a2.79 2.79 0 0 1 1.316-.34c.464 0 .874.118 1.232.355.355.235.613.547.771.934.158.388.203.804.133 1.25a2.854 2.854 0 0 1-.542 1.27c-.29.39-.646.697-1.07.925-.424.226-.865.34-1.321.34a2.2 2.2 0 0 1-1.215-.342 2.022 2.022 0 0 1-.78-.925 2.27 2.27 0 0 1-.142-1.268 2.86 2.86 0 0 1 .542-1.265m-.748 2.691c.18.444.473.8.881 1.065.406.264.876.398 1.407.398a3.18 3.18 0 0 0 1.535-.4 3.576 3.576 0 0 0 1.214-1.066c.318-.443.516-.918.597-1.423.081-.517.028-1.002-.161-1.45s-.487-.802-.896-1.057a2.533 2.533 0 0 0-1.381-.385 3.21 3.21 0 0 0-1.512.388 3.563 3.563 0 0 0-1.224 1.062c-.326.448-.531.93-.611 1.442-.08.507-.029.984.151 1.426m3.696-2.88c-.178-.158-.449-.238-.816-.238h-.811l-.532 3.385h.389l.217-1.385h.646l.591 1.385h.464l-.673-1.512c.198-.088.358-.208.482-.363.122-.156.2-.334.232-.537.052-.33-.011-.576-.189-.735m-1.291.093h.423c.505 0 .723.221.654.661a.792.792 0 0 1-.282.522.91.91 0 0 1-.578.178h-.431l.214-1.361z"/></svg>