<svg xmlns="http://www.w3.org/2000/svg" width="126.147" height="31.879" viewBox="0 0 126.147 31.879"><path d="M8.364 29.591c-.188.737-.546 1.304-1.075 1.7-.544.392-1.188.588-1.933.588-.673-.015-1.235-.167-1.685-.458-.458-.28-.791-.604-.998-.972a6.79 6.79 0 0 1-.17-.344 2.084 2.084 0 0 1-.117-.426c-.059-.32-.088-.935-.088-1.845 0-.924.03-1.542.088-1.855.062-.312.158-.565.288-.758.208-.368.541-.695.999-.982.45-.291 1.012-.44 1.686-.447.826.007 1.5.234 2.021.681a2.94 2.94 0 0 1 .986 1.673H6.987a1.745 1.745 0 0 0-.576-.82c-.291-.215-.643-.326-1.059-.334a1.916 1.916 0 0 0-.788.17 1.61 1.61 0 0 0-.541.41c-.169.171-.28.392-.335.662-.062.284-.094.818-.094 1.602 0 .784.032 1.314.094 1.592.055.277.167.501.335.673.137.164.318.297.542.398.22.121.482.181.789.181.729 0 1.275-.362 1.636-1.088h1.374zm.839-1.756c0-.926.029-1.546.088-1.859.062-.313.158-.566.288-.76.208-.366.54-.692.998-.979.45-.29 1.011-.438 1.685-.445.681.007 1.249.156 1.703.447.45.287.775.614.974.982.145.192.245.445.299.758.051.313.076.932.076 1.855 0 .91-.025 1.524-.076 1.845-.055.32-.155.577-.299.77-.2.367-.524.691-.975.972-.454.291-1.021.443-1.702.458-.673-.015-1.235-.167-1.685-.458-.458-.28-.791-.604-.998-.972a6.79 6.79 0 0 1-.17-.344 2.084 2.084 0 0 1-.117-.426c-.06-.32-.089-.934-.089-1.844zm1.296 0c0 .784.032 1.314.094 1.592.055.277.167.501.335.673.137.164.317.297.541.398.22.121.482.181.789.181.31 0 .578-.06.806-.181a1.41 1.41 0 0 0 .518-.398c.168-.172.284-.396.347-.673.059-.277.088-.808.088-1.592 0-.783-.029-1.317-.088-1.602a1.36 1.36 0 0 0-.347-.662 1.514 1.514 0 0 0-.518-.41 2.037 2.037 0 0 0-.806-.17 1.921 1.921 0 0 0-.789.17 1.61 1.61 0 0 0-.541.41c-.168.171-.28.392-.335.662-.062.285-.094.819-.094 1.602zm6.568-3.978h1.222l3.878 5.656h.024v-5.656h1.296v7.956H22.26l-3.872-5.656h-.023v5.656h-1.297v-7.956zm8.601 6.029c.682.521 1.493.786 2.433.793 1.113-.015 1.677-.384 1.693-1.108.008-.594-.364-.95-1.116-1.07l-1.134-.147c-.736-.113-1.296-.366-1.68-.76a2.029 2.029 0 0 1-.594-1.475c0-.695.249-1.256.746-1.682.481-.423 1.164-.638 2.048-.645 1.064.021 1.989.295 2.775.821l-.723.991a4.122 4.122 0 0 0-2.122-.613c-.4 0-.732.094-.999.279-.278.192-.421.48-.429.862 0 .229.096.438.288.623.192.189.5.32.922.394.235.036.556.078.963.125.803.103 1.396.37 1.78.803.38.427.57.922.57 1.486-.043 1.521-1.044 2.294-3.004 2.315-1.268 0-2.357-.362-3.269-1.086l.852-.906zm8.474-4.96h-2.347v-1.068h5.992v1.068h-2.348v6.888h-1.296v-6.888zm4.753-1.069h3.346c.713 0 1.296.174 1.747.523.542.396.826.962.849 1.697-.016 1.08-.567 1.815-1.654 2.205l1.982 3.53h-1.54l-1.772-3.4h-1.66v3.4h-1.297v-7.955zm1.297 3.488h1.966c.487-.008.852-.139 1.095-.394.239-.237.359-.529.359-.876-.008-.416-.151-.717-.43-.902-.22-.165-.538-.247-.954-.247h-2.037v2.419zm6.119-3.488h1.296v5.134c.008.543.176.956.506 1.24.321.298.735.447 1.241.447s.923-.149 1.253-.447c.321-.284.486-.697.494-1.24v-5.134h1.296v5.261c-.016.836-.308 1.5-.875 1.991-.572.506-1.294.763-2.168.77-.858-.007-1.575-.264-2.15-.769-.587-.49-.885-1.153-.893-1.989v-5.264zm13.755 5.734c-.188.737-.546 1.304-1.075 1.7-.544.392-1.188.588-1.933.588-.673-.015-1.235-.167-1.685-.458-.458-.28-.791-.604-.998-.972a6.79 6.79 0 0 1-.17-.344 2.084 2.084 0 0 1-.117-.426c-.059-.32-.088-.935-.088-1.845 0-.924.03-1.542.088-1.855.062-.312.158-.565.288-.758.208-.368.541-.695.999-.982.45-.291 1.012-.44 1.686-.447.826.007 1.5.234 2.021.681a2.94 2.94 0 0 1 .986 1.673H58.69a1.745 1.745 0 0 0-.576-.82c-.291-.215-.643-.326-1.059-.334a1.916 1.916 0 0 0-.788.17 1.61 1.61 0 0 0-.541.41c-.169.171-.28.392-.335.662-.062.284-.094.818-.094 1.602 0 .784.032 1.314.094 1.592.055.277.167.501.335.673.137.164.318.297.542.398.22.121.482.181.789.181.729 0 1.275-.362 1.636-1.088h1.373zm2.586-4.665h-2.347v-1.068h5.992v1.068h-2.348v6.888h-1.296v-6.888zm4.754-1.069h1.297v7.956h-1.297v-7.956zm2.91 3.978c0-.926.029-1.546.088-1.859.062-.313.158-.566.288-.76.208-.366.54-.692.998-.979.45-.29 1.011-.438 1.685-.445.681.007 1.249.156 1.703.447.45.287.775.614.974.982.145.192.245.445.299.758.051.313.076.932.076 1.855 0 .91-.025 1.524-.076 1.845-.055.32-.155.577-.299.77-.2.367-.524.691-.975.972-.454.291-1.021.443-1.702.458-.673-.015-1.235-.167-1.685-.458-.458-.28-.791-.604-.998-.972a6.79 6.79 0 0 1-.17-.344 2.084 2.084 0 0 1-.117-.426c-.059-.32-.089-.934-.089-1.844zm1.297 0c0 .784.032 1.314.094 1.592.055.277.167.501.335.673.137.164.317.297.541.398.22.121.482.181.789.181.31 0 .578-.06.806-.181a1.41 1.41 0 0 0 .518-.398c.168-.172.284-.396.347-.673.059-.277.088-.808.088-1.592 0-.783-.029-1.317-.088-1.602a1.36 1.36 0 0 0-.347-.662 1.514 1.514 0 0 0-.518-.41 2.037 2.037 0 0 0-.806-.17 1.921 1.921 0 0 0-.789.17 1.61 1.61 0 0 0-.541.41c-.168.171-.28.392-.335.662-.063.285-.094.819-.094 1.602zm6.568-3.978h1.222l3.878 5.656h.024v-5.656h1.296v7.956h-1.228l-3.872-5.656h-.023v5.656h-1.297v-7.956zm14.248 3.581h3.043v1.618c-.016.796-.309 1.463-.88 2-.575.534-1.299.809-2.172.823-.673-.015-1.235-.167-1.685-.458-.458-.28-.791-.604-.998-.972a6.79 6.79 0 0 1-.17-.344 2.084 2.084 0 0 1-.117-.426c-.059-.32-.088-.935-.088-1.845 0-.924.029-1.542.088-1.855.062-.312.158-.565.288-.758.207-.368.54-.695.998-.982.45-.291 1.011-.44 1.685-.447.826.007 1.499.234 2.02.682.52.451.849 1.01.986 1.675H94.05a1.755 1.755 0 0 0-.576-.822c-.29-.216-.643-.327-1.058-.335a1.916 1.916 0 0 0-.788.17 1.61 1.61 0 0 0-.541.41c-.168.171-.28.392-.335.662-.062.284-.094.818-.094 1.602 0 .784.032 1.314.094 1.592.055.277.167.501.335.673.137.164.317.297.541.398.22.121.482.181.789.181.506 0 .923-.16 1.253-.481.33-.307.498-.71.506-1.21v-.416h-1.747v-1.135zm4.796-3.581h3.346c.713 0 1.296.174 1.747.523.542.396.826.962.849 1.697-.016 1.08-.567 1.815-1.654 2.205l1.982 3.53h-1.54l-1.772-3.4h-1.66v3.4h-1.297v-7.955zm1.297 3.488h1.966c.487-.008.852-.139 1.095-.394.239-.237.359-.529.359-.876-.008-.416-.151-.717-.43-.902-.22-.165-.538-.247-.954-.247h-2.037v2.419zm5.986.49c0-.926.029-1.546.088-1.859.062-.313.158-.566.288-.76.208-.366.54-.692.998-.979.45-.29 1.011-.438 1.685-.445.681.007 1.249.156 1.703.447.45.287.775.614.974.982.145.192.245.445.299.758.051.313.076.932.076 1.855 0 .91-.025 1.524-.076 1.845-.055.32-.155.577-.299.77-.2.367-.524.691-.975.972-.454.291-1.021.443-1.702.458-.673-.015-1.235-.167-1.685-.458-.458-.28-.791-.604-.998-.972a6.79 6.79 0 0 1-.17-.344 2.084 2.084 0 0 1-.117-.426c-.06-.32-.089-.934-.089-1.844zm1.296 0c0 .784.032 1.314.094 1.592.055.277.167.501.335.673.137.164.317.297.541.398.22.121.482.181.789.181.31 0 .578-.06.806-.181a1.41 1.41 0 0 0 .518-.398c.168-.172.284-.396.347-.673.059-.277.088-.808.088-1.592 0-.783-.029-1.317-.088-1.602a1.36 1.36 0 0 0-.347-.662 1.514 1.514 0 0 0-.518-.41 2.037 2.037 0 0 0-.806-.17 1.921 1.921 0 0 0-.789.17 1.61 1.61 0 0 0-.541.41c-.168.171-.28.392-.335.662-.062.285-.094.819-.094 1.602zm6.411-3.978h1.296v5.134c.008.543.176.956.506 1.24.321.298.735.447 1.241.447s.923-.149 1.253-.447c.321-.284.486-.697.494-1.24v-5.134h1.296v5.261c-.016.836-.308 1.5-.875 1.991-.572.506-1.294.763-2.168.77-.858-.007-1.575-.264-2.15-.769-.587-.49-.885-1.153-.893-1.989v-5.264zm7.979 0h3.104c.337 0 .663.028.976.087.313.076.631.232.952.47.27.178.489.433.657.764.176.32.264.698.264 1.135 0 .589-.223 1.126-.67 1.609-.459.51-1.129.771-2.011.786h-1.975v3.105h-1.297v-7.956zm1.297 3.717h1.924c.482-.008.845-.146 1.088-.417.231-.264.347-.556.347-.877 0-.267-.047-.492-.141-.675a1.044 1.044 0 0 0-.412-.389 1.74 1.74 0 0 0-.93-.226h-1.877v2.584z" fill="#B74F46"/><path fill="#6F716F" d="M82.991 11.632l4.572 7.624h3.697l-6.203-9.858-2.066 2.234zM78.433.157h-3.112v19.099h3.112V13.44l.001-.001V9.995h-.001V.157zm5.55 7.532L90.569.157h-3.695l-6.373 7.409v3.775l1.461-1.425 2.036-2.202-.015-.025zm36.901 3.091c2.608-.935 3.932-2.698 3.969-5.292-.056-1.764-.736-3.122-2.038-4.074-1.082-.838-2.479-1.257-4.192-1.257h-8.031v19.099h3.112v-8.162h3.986l4.254 8.162h3.697l-4.757-8.476zm-7.18-2.252V2.723h4.89c.999 0 1.762.197 2.29.592.669.446 1.013 1.169 1.032 2.167 0 .832-.287 1.532-.862 2.102-.584.613-1.461.929-2.629.945h-4.721zm-100.155.904v-.053a6.777 6.777 0 0 0 1.494-.878c.404-.306.714-.629.93-.969a4.157 4.157 0 0 0 .606-2.254c0-1.536-.513-2.772-1.537-3.707C14.027.646 12.509.175 10.488.157H2.521v2.575h3.112v-.01h4.501c1.138.019 1.976.278 2.512.778.545.535.818 1.189.818 1.962s-.273 1.413-.818 1.923c-.536.553-1.374.829-2.511.829H2.521v11.042h8.663c1.618 0 2.968-.502 4.05-1.507 1.091-.96 1.646-2.266 1.665-3.916 0-.996-.269-1.917-.806-2.765-.575-.82-1.423-1.366-2.544-1.636zm-.568 6.22c-.537.569-1.385.862-2.543.88H5.634v-5.753h4.804c1.159.018 2.007.302 2.543.854.537.561.806 1.235.806 2.023 0 .771-.269 1.436-.806 1.996zm38.968-12.22c-.479-.882-1.259-1.668-2.34-2.358C48.519.375 47.158.018 45.523 0c-1.616.018-2.964.374-4.044 1.069-1.099.688-1.897 1.471-2.395 2.35-.311.464-.541 1.072-.691 1.824-.141.753-.211 2.24-.211 4.463 0 2.184.07 3.659.211 4.428.075.411.169.751.282 1.021.122.263.258.537.408.826.498.882 1.296 1.659 2.396 2.331 1.081.699 2.428 1.065 4.044 1.101 1.634-.035 2.996-.401 4.086-1.101 1.081-.672 1.86-1.449 2.339-2.331.348-.463.587-1.079.719-1.848.122-.769.183-2.244.183-4.428 0-2.218-.061-3.702-.183-4.453-.131-.75-.371-1.357-.718-1.82zm-2.423 10.094c-.151.665-.429 1.203-.833 1.614-.311.395-.725.714-1.243.959-.546.288-1.191.433-1.935.433-.734 0-1.365-.145-1.892-.433-.537-.245-.97-.564-1.299-.959-.405-.411-.673-.949-.805-1.614-.15-.665-.226-1.938-.226-3.82 0-1.881.075-3.163.226-3.846.132-.647.4-1.177.805-1.589.33-.394.762-.722 1.299-.984.527-.254 1.158-.39 1.892-.407.744.018 1.389.153 1.935.407.518.263.932.591 1.243.984.405.412.683.941.833 1.589.141.683.211 1.965.211 3.846.001 1.882-.07 3.155-.211 3.82zM70.127 3.432c-.479-.882-1.259-1.668-2.339-2.357C66.698.375 65.336.018 63.702 0c-1.616.018-2.964.374-4.044 1.069-1.099.688-1.897 1.471-2.395 2.35-.311.464-.541 1.072-.691 1.824-.141.753-.211 2.24-.211 4.463 0 2.184.07 3.659.211 4.428.075.411.169.751.282 1.021.122.263.258.537.408.826.498.882 1.296 1.659 2.396 2.331 1.081.699 2.428 1.065 4.044 1.101 1.634-.035 2.996-.401 4.086-1.101 1.081-.672 1.86-1.449 2.339-2.331.348-.463.587-1.079.719-1.848.122-.769.183-2.244.183-4.428 0-2.218-.061-3.702-.183-4.453-.132-.75-.372-1.357-.719-1.82zm-2.422 10.094c-.151.665-.429 1.203-.833 1.614-.311.395-.725.714-1.243.959-.546.288-1.191.433-1.935.433-.734 0-1.365-.145-1.892-.433-.537-.245-.97-.564-1.299-.959-.405-.411-.673-.949-.805-1.614-.15-.665-.226-1.938-.226-3.82 0-1.881.075-3.163.226-3.846.132-.647.4-1.177.805-1.589.33-.394.762-.722 1.299-.984.527-.254 1.158-.39 1.892-.407.744.018 1.389.153 1.935.407.518.263.932.591 1.243.984.405.412.683.941.833 1.589.141.683.211 1.965.211 3.846 0 1.882-.07 3.155-.211 3.82zm26.309 5.73h13.131v-2.724H97.126V10.91h8.552V8.346h-8.552V2.88h10.019V.157H94.014v19.099zM34.962 5.488c-.056-1.764-.736-3.122-2.038-4.074C31.842.576 30.445.157 28.732.157h-8.031v19.099h3.112v-8.162h3.986l4.254 8.162h3.697l-4.757-8.476c2.608-.934 3.931-2.698 3.969-5.292zm-11.149 3.04V2.723h4.89c.999 0 1.762.197 2.29.592.669.446 1.013 1.169 1.032 2.167 0 .832-.287 1.532-.862 2.102-.584.613-1.461.929-2.629.945h-4.721z"/><path d="M0 8.207h1.295v11.028H0zM0 .151h1.295v2.576H0z" fill="#B74F46"/></svg>