<?xml version="1.0" encoding="UTF-8"?>
<svg width="492px" height="492px" viewBox="0 0 492 492" version="1.1" xmlns="http://www.w3.org/2000/svg" xmlns:xlink="http://www.w3.org/1999/xlink">
    <!-- Generator: Sketch 47.1 (45422) - http://www.bohemiancoding.com/sketch -->
    <title>Page 1</title>
    <desc>Created with Sketch.</desc>
    <defs>
        <polygon id="path-1" points="491.990918 0.00560767846 0 0.00560767846 0 491.90159 491.990918 491.90159 491.990918 0.00560767846"></polygon>
    </defs>
    <g id="Symbols" stroke="none" stroke-width="1" fill="none" fill-rule="evenodd" opacity="0.604393116">
        <g id="Footer" transform="translate(-1220.000000, -7.000000)">
            <g id="Page-1" transform="translate(1220.000000, 7.000000)">
                <path d="M118.936735,396.058452 C114.331396,392.231571 106.941626,390.419862 98.6027046,400.32321 C91.6368008,408.598146 90.7157934,418.986392 98.4035869,425.373445 C101.206111,427.701301 108.832089,431.738235 118.511562,420.241819 C126.013807,411.334926 125.503298,401.513943 118.936735,396.058452" id="Fill-1" fill="#FFFFFF"></path>
                <path d="M298.419405,441.353939 C298.345654,441.186063 298.263875,440.969317 298.156366,441.003617 C298.047352,441.039997 298.021622,441.291223 298.021622,441.485616 L297,453.71732 C297.001648,453.913885 297.064219,454.035335 297.208496,453.990809 L303.838789,451.81774 C304.020049,451.759096 304.028076,451.609139 303.962281,451.485608 L298.419405,441.353939 Z" id="Fill-3" fill="#FFFFFF"></path>
                <path d="M28.4098692,193.081659 L38.9131403,195.949179 C39.286042,196.052068 39.4331681,196.000623 39.6247051,195.777555 C40.0827894,195.033313 40.4510597,193.945058 40.6934581,193.003555 C41.0793439,191.507406 41.0867043,190.960425 40.7951811,190.194294 C40.3029411,188.824797 39.0981439,187.121848 36.1908511,186.328973 C31.2089883,184.9691 29.0196283,188.123398 28.4469196,190.346754 C28.2062578,191.286297 28.0157133,192.196371 28,192.604264 C28.016623,192.883547 28.1193384,193.002618 28.4098692,193.081659" id="Fill-5" fill="#FFFFFF"></path>
                <path d="M454.18792,228.29476 C453.979409,229.24685 453.969841,230.527094 454.037334,231.607341 C454.141632,233.322882 454.315233,233.902144 454.853362,234.601138 C455.782998,235.86037 457.526594,237.207437 460.651326,236.973271 C466.011668,236.570817 467.14585,232.446039 466.985782,229.895964 C466.9201,228.816853 466.810284,227.789705 466.694522,227.355448 C466.586517,227.068372 466.447653,226.979496 466.135102,227.003821 L454.836036,227.851133 C454.43272,227.8818 454.305407,227.989796 454.18792,228.29476" id="Fill-7" fill="#FFFFFF"></path>
                <path d="M330.430058,68.0378512 C333.322431,69.3327208 340.496609,71.0010572 345.949096,60.5679608 C350.188447,52.4626235 347.536747,45.1042199 340.922448,42.1430427 C336.355223,40.1002251 329.827825,39.9434612 325.093473,48.9959289 C321.148413,56.5400516 322.698393,64.5774272 330.430058,68.0378512" id="Fill-9" fill="#FFFFFF"></path>
                <path d="M36.9114557,241.932945 C45.355872,242.632122 52.3733516,237.833311 52.9727842,228.954385 C53.1957314,225.63913 52.3004023,218.03473 40.6233914,217.067553 C31.5524311,216.317667 25.5482292,221.897656 25.036373,229.493898 C24.6829929,234.736588 26.7782121,241.094036 36.9114557,241.932945" id="Fill-11" fill="#FFFFFF"></path>
                <g id="Group-15">
                    <mask id="mask-2" fill="white">
                        <use xlink:href="#path-1"></use>
                    </mask>
                    <g id="Clip-14"></g>
                    <path d="M469.848753,268.280359 C469.210137,268.751503 461.36687,274.371872 454.058702,279.864544 C450.612537,282.438075 443.643652,287.413365 442.936746,287.97915 L442.908112,288.179649 L462.06915,290.656078 C464.702531,291.008378 465.523974,290.724453 466.089971,289.725007 C466.444506,289.106293 466.607358,288.047524 466.699854,287.439927 C466.785758,286.887325 467.010306,286.764054 467.261325,286.803702 C467.618025,286.856434 467.595885,287.318919 467.496993,287.97915 C467.140293,290.29945 466.673385,292.659692 466.528146,293.619392 C466.451099,294.121329 466.29484,295.805501 465.959985,297.973902 C465.867587,298.579433 465.755116,298.975611 465.400679,298.92278 C465.149661,298.883133 464.984546,298.601273 465.063758,298.095008 C465.132146,297.639212 465.187151,297.287011 465.121026,296.708042 C464.953845,295.442183 464.249202,294.973204 461.833581,294.548496 L434.835966,289.887925 C433.877944,289.740551 433.528034,289.326468 433.580874,288.96984 C433.69984,288.214771 434.245763,287.67968 434.772105,287.294423 C437.773403,284.910274 443.929996,280.170507 449.137521,276.214536 C454.530038,272.080201 460.453127,268.181389 461.342565,267.441667 L461.36687,267.287603 L443.764684,265.103757 C440.415542,264.692134 439.318972,265.092837 438.88306,265.902802 C438.515241,266.620585 438.332709,267.474723 438.224666,268.181389 C438.145552,268.685588 437.905456,268.907927 437.652371,268.868378 C437.299902,268.813187 437.260149,268.39271 437.352645,267.789638 C437.792985,264.91221 438.264419,262.862555 438.389978,262.054754 C438.451478,261.651887 438.62535,259.505326 438.973391,257.233429 C439.06815,256.630358 439.178162,256.233984 439.585341,256.293504 C439.834391,256.333151 439.992914,256.667644 439.931217,257.07061 C439.836458,257.678108 439.761674,258.492698 439.821107,259.122332 C439.946567,260.328868 441.085055,260.658934 444.815006,261.284141 L470.209487,265.594675 C471.068519,265.728866 471.62999,266.12524 471.557272,266.578675 C471.47373,267.135606 470.722742,267.639903 469.848753,268.280359 L469.848753,268.280359 Z M446.961897,326.740604 C443.698756,326.740604 441.06075,324.09437 441.06075,320.834046 C441.06075,317.575788 443.698756,314.938605 446.961897,314.938605 C450.22061,314.938605 452.862945,317.575788 452.862945,320.834046 C452.862945,324.09437 450.22061,326.740604 446.961897,326.740604 L446.961897,326.740604 Z M444.572745,364.126111 C442.828802,366.831471 440.95743,369.455668 440.206442,370.615867 C439.512722,371.69018 437.901028,374.477295 436.874716,376.068892 C436.489578,376.667831 436.183554,376.956086 435.837875,376.733746 C435.622084,376.597293 435.633006,376.299987 435.934701,375.828942 C436.322397,375.225871 436.571152,374.655659 436.733906,374.213144 C437.116977,373.240064 436.421387,372.249374 435.227894,371.357753 C433.50609,370.067791 431.702714,368.905329 431.017653,368.462814 L427.492571,366.19318 C425.173972,364.698389 423.952041,364.520026 422.346743,364.275649 C421.465965,364.132702 408.305162,363.800177 405.101356,363.861861 C402.82005,363.914692 401.054164,364.29562 400.056683,364.808477 C399.393959,365.171697 398.667374,365.735318 398.334683,366.250339 C398.114562,366.593785 397.832942,366.842785 397.53105,366.646615 C397.273439,366.481533 397.339662,366.09844 397.672058,365.578893 C398.169666,364.808477 400.37609,361.669062 401.287569,360.251402 C401.868916,359.353189 402.875154,357.506099 404.123752,355.573319 C404.398878,355.143987 404.663181,355.011961 404.923055,355.179207 C405.180568,355.34429 405.028737,355.674651 404.786378,356.427359 C404.623624,356.869873 404.830559,357.308059 405.173877,357.525972 C405.515325,357.748213 406.171456,357.867155 406.966331,357.955205 C408.641886,358.181873 422.870625,358.83807 424.515578,358.92612 C423.762621,357.831934 417.799679,346.331471 416.853071,344.874065 C416.185821,343.834972 415.566885,343.192155 415.007776,342.831099 C414.578162,342.55593 413.994846,342.423805 413.351999,343.042519 C413.017144,343.372782 412.682584,343.707275 412.427039,343.537864 C412.125542,343.346317 412.178186,343.077837 412.508613,342.558192 C413.424618,341.142598 414.435186,339.850176 415.241082,338.604386 C415.848899,337.659836 417.546594,334.742958 418.072838,333.926106 C418.379058,333.452995 418.65635,333.206356 418.913862,333.373602 C419.215557,333.567313 419.123061,333.994382 418.8193,334.465525 C418.541812,334.896923 418.185112,335.823863 418.116921,336.688921 C417.967058,337.868993 418.17419,338.672662 418.726902,340.365492 C419.5327,342.888357 425.750793,355.405974 427.100644,357.369645 C428.232244,359.009645 429.564678,359.868407 430.980556,360.781869 L434.503473,363.049437 C435.190403,363.494116 436.996142,364.656578 438.88306,365.691243 C440.184302,366.406665 441.380255,366.629201 442.381672,365.451294 C442.85537,364.905185 443.54909,364.013662 443.93649,363.414919 C444.242613,362.941612 444.508883,362.809487 444.72251,362.948203 C445.024106,363.13975 444.93161,363.568983 444.572745,364.126111 L444.572745,364.126111 Z M416.282646,402.099145 C413.915634,404.501002 411.548524,406.687111 410.54445,407.706233 C409.720941,408.545122 407.571885,410.949144 406.138197,412.404287 C405.669419,412.877497 405.310456,413.025067 405.057371,412.774197 C404.874544,412.593571 404.909968,412.344767 405.336926,411.904614 C405.876256,411.358406 406.235318,410.849976 406.484073,410.449372 C407.054596,409.579788 406.470986,408.571488 405.519753,407.426833 C404.17,405.738233 401.291997,402.907143 397.942854,399.609336 L383.011737,384.916726 L377.815331,390.484266 C375.80925,392.667915 375.131078,393.720388 375.393117,395.056786 C375.582438,395.957065 375.840148,396.56899 376.060269,396.925717 C376.278225,397.286773 376.31788,397.539807 376.102089,397.760081 C375.85107,398.011049 375.597986,397.907553 375.199466,397.513638 C374.613592,396.9389 371.982376,392.987258 371.762157,392.626202 C371.396699,392.051759 371.28659,391.728088 371.497854,391.510077 C371.786363,391.217199 372.508619,391.21287 373.479729,390.376539 C374.626876,389.427563 376.062434,388.113201 377.247071,386.911191 L391.438319,372.493849 C392.587828,371.329125 393.268362,370.417729 393.730744,369.799114 C394.157702,369.147443 394.373591,368.784321 394.516862,368.638915 C394.767782,368.383716 395.021063,368.564146 395.566986,369.099039 C396.331062,369.854305 398.737828,372.434329 399.684633,373.367762 C400.012698,373.761775 400.1602,374.050128 399.944409,374.268138 C399.655998,374.558754 399.402717,374.453093 398.823731,373.951157 L398.385458,373.592266 C397.366034,372.735963 395.37983,372.716189 392.116689,375.884035 L387.490314,380.366341 L402.423695,395.058852 C405.775199,398.354396 408.648578,401.185585 410.39685,402.543824 C411.521956,403.439872 412.539412,404.010084 413.759178,403.058943 C414.333834,402.620856 415.197098,401.894514 415.734362,401.34624 C416.126387,400.945537 416.416864,400.87067 416.599691,401.049033 C416.853071,401.3001 416.676837,401.700606 416.282646,402.099145 L416.282646,402.099145 Z M385.739877,429.932316 C382.987432,431.880738 380.270214,433.617741 379.145306,434.412359 C378.187283,435.092659 375.646202,437.078466 373.979502,438.258538 C373.43781,438.641434 373.056806,438.722795 372.852134,438.432376 C372.704632,438.225285 372.781679,437.981007 373.281453,437.626543 C373.906785,437.181962 374.347223,436.74594 374.664366,436.396002 C375.379833,435.640834 375.131078,434.751378 374.397801,433.454824 C373.365191,431.554903 371.031143,428.261326 368.168687,424.219469 L362.967755,416.880002 C358.480125,410.541751 357.650121,409.372894 356.624006,408.096016 C355.534127,406.739942 354.615858,406.326154 353.552351,406.766308 C353.004066,406.96661 352.42941,407.307891 351.931703,407.66452 C351.515668,407.959464 351.205019,408.051942 350.96945,407.719711 C350.79105,407.468546 351.066275,407.149401 351.731262,406.675994 C353.318946,405.555541 356.033901,403.820702 357.242843,402.9644 C358.284309,402.224678 360.657914,400.355551 362.243236,399.235097 C362.784928,398.852004 363.176954,398.697842 363.355254,398.946744 C363.590922,399.283599 363.401502,399.543224 362.983106,399.838267 C362.566972,400.133211 362.263014,400.410644 361.818345,400.850896 C360.842906,401.857031 361.010284,402.799121 361.961418,404.318212 C362.822418,405.714032 363.650258,406.880724 368.140053,413.216712 L373.336557,420.556376 C376.203342,424.60266 378.535226,427.893777 379.975211,429.569096 C380.895842,430.606123 381.721319,431.149773 383.088882,430.432088 C383.73173,430.101924 384.707267,429.53604 385.332599,429.093525 C385.792718,428.767788 386.089984,428.745849 386.237584,428.952743 C386.442256,429.245523 386.198027,429.606579 385.739877,429.932316 L385.739877,429.932316 Z M356.364131,449.261295 C353.050314,450.861845 350.61275,451.929566 348.520962,452.884937 C346.407134,453.796333 344.729414,454.553665 342.846628,455.462896 C342.3379,455.711798 341.327234,456.202519 340.246113,456.779421 C339.187132,457.29454 338.035557,457.963822 337.119354,458.408402 C336.52059,458.699116 336.130631,458.716628 335.974372,458.395121 C335.862196,458.164026 335.9788,457.939522 336.533776,457.673206 C337.222871,457.33645 337.727171,456.979723 338.097155,456.684779 C338.931587,456.055145 338.667285,454.934495 338.207166,453.510144 C337.502721,451.46708 335.74323,447.836945 333.693263,443.605804 L329.773893,435.510776 C326.387555,428.523411 325.761928,427.23335 324.958197,425.806737 C324.108316,424.290008 323.383994,423.730912 321.710406,424.144798 C321.298701,424.23275 320.724143,424.453024 320.127249,424.741377 C319.620882,424.985655 319.29941,425.029828 319.145315,424.706156 C318.988958,424.384551 319.264281,424.13801 319.955442,423.803517 C322.117881,422.757833 325.081689,421.491973 326.323497,420.888606 C327.428922,420.356074 330.718533,418.592606 332.51079,417.725285 C333.155999,417.412731 333.521654,417.348981 333.679979,417.670192 C333.834172,417.991601 333.600767,418.216203 333.048153,418.482519 C332.543951,418.72906 331.830453,419.131927 331.321823,419.490917 C330.194356,420.323018 330.20331,421.280554 330.892406,422.936294 C331.511145,424.450663 332.136378,425.738756 335.520945,432.730351 L339.440315,440.820854 C342.291652,446.705374 343.82866,449.877648 345.19829,450.236539 C346.312374,450.551455 347.66439,450.293797 351.251366,448.556892 C353.68893,447.376918 355.459146,446.460997 356.009694,444.662408 C356.271635,443.799515 356.198918,442.240777 355.866522,441.325053 C355.712428,440.891294 355.672871,440.570082 356.040395,440.391522 C356.361966,440.237458 356.518324,440.442286 356.786956,440.994692 C357.031382,441.501252 358.383496,445.104923 358.656261,446.615258 C358.872052,447.759913 358.753283,448.101194 356.364131,449.261295 L356.364131,449.261295 Z M322.117881,464.775085 C320.336447,465.237374 316.725364,466.175234 312.744198,467.104338 C311.839312,467.284767 311.247042,467.440995 311.154448,467.093319 C311.077401,466.796014 311.251274,466.646377 311.73363,466.468112 C312.055005,466.278632 312.284178,465.746 311.883297,465.213173 L305.279771,456.052882 C305.119084,455.830543 304.942948,455.771121 304.696161,455.83497 L293.6668,458.699116 C293.418045,458.762965 293.345426,458.886137 293.321219,459.207644 L292.409642,466.679335 C292.235572,468.042 292.297269,469.292513 292.449198,469.887025 C292.680537,470.776285 293.29475,471.304686 294.82733,470.90841 L295.569462,470.712534 C296.163798,470.562701 296.335605,470.619958 296.414817,470.917264 C296.51607,471.31354 296.245274,471.487378 295.703582,471.630521 C294.118259,472.040078 291.953754,472.445012 290.416845,472.841288 C289.875153,472.982168 287.193359,473.836405 284.621478,474.505686 C283.978336,474.672834 283.654698,474.648633 283.55128,474.254521 C283.474233,473.959577 283.648204,473.807776 284.044461,473.70428 C284.487162,473.587601 285.1675,473.360933 285.552834,473.206869 C287.750402,472.321741 288.250077,470.393192 288.600184,467.663531 L293.059082,433.780462 C293.281564,432.193293 293.435658,431.572611 293.931102,431.440388 C294.37587,431.328136 294.787674,431.693521 295.576055,432.704083 C297.469566,435.116861 310.520457,452.847455 315.637552,459.544498 C318.674078,463.504798 320.285771,463.823944 321.389032,463.804268 C322.170525,463.762456 322.925942,463.619313 323.51831,463.463085 C323.916633,463.359491 324.174342,463.346406 324.264674,463.691918 C324.366026,464.088194 323.947629,464.301777 322.117881,464.775085 L322.117881,464.775085 Z M274.629155,444.303714 C274.221779,444.327817 274.107242,444.081177 274.005988,443.319517 L273.922348,442.760422 C273.741784,441.439469 272.277494,440.094413 267.73289,440.266087 L261.296546,440.497182 L262.551638,461.404772 C262.829126,466.098202 263.071386,470.128942 263.458787,472.306394 C263.69662,473.724054 264.071032,474.829259 265.61237,474.941511 C266.332264,474.998768 267.464159,475.036054 268.225874,474.987651 C268.789706,474.954792 269.051646,475.091147 269.066997,475.346543 C269.086775,475.703171 268.690617,475.883601 268.129146,475.914492 C264.76239,476.119419 261.540971,476.156705 260.114171,476.242591 C258.93839,476.312933 255.734486,476.658641 253.693374,476.781912 C253.030552,476.821461 252.66293,476.689434 252.643053,476.330641 C252.627702,476.077607 252.823617,475.91223 253.4335,475.872681 C254.199741,475.828606 254.805393,475.68989 255.259017,475.560225 C256.265255,475.293713 256.505253,474.153288 256.569016,472.66745 C256.696838,470.512134 256.454675,466.479032 256.172661,461.789833 L254.91993,440.880374 L247.332011,441.536374 C244.380306,441.818233 243.17038,442.146036 242.472429,443.315287 C242.007784,444.109806 241.789828,444.737374 241.7116,445.151063 C241.634553,445.565048 241.493644,445.778632 241.187522,445.798406 C240.83092,445.81818 240.714119,445.569475 240.678892,445.008117 C240.63166,444.191265 241.320854,439.493408 241.400066,439.079522 C241.512438,438.405912 241.647837,438.093259 241.953861,438.071123 C242.361237,438.049283 242.901748,438.529084 244.184392,438.553482 C245.671806,438.617233 247.616092,438.603951 249.298437,438.502718 L269.498579,437.291853 C271.132511,437.195243 272.244333,436.975068 273.004178,436.827399 C273.761661,436.626999 274.162247,436.501662 274.364853,436.490545 C274.721651,436.468606 274.792204,436.770142 274.838354,437.536328 C274.90438,438.608378 274.959386,442.135116 275.040861,443.46266 C275.018819,443.973353 274.935278,444.283743 274.629155,444.303714 L274.629155,444.303714 Z M230.111913,438.588604 C229.604366,438.531347 229.19266,438.535774 228.570575,438.564402 C227.170245,438.658946 226.663682,439.47806 226.357658,441.241429 C226.068165,442.852899 225.90305,444.272724 225.007905,451.98889 L223.97195,460.920347 C223.400541,465.842807 222.935994,469.853969 222.885318,472.059656 C222.878726,473.446622 223.128662,474.404453 224.626998,474.780856 C225.32613,474.965713 226.430375,475.196808 227.192286,475.285055 C227.750411,475.348806 227.987162,475.531596 227.957445,475.78463 C227.915526,476.141357 227.4928,476.244755 226.934675,476.180906 C223.583368,475.791123 220.402686,475.269511 219.031974,475.110922 C217.864852,474.974567 214.649042,474.756654 212.618853,474.521033 C211.959474,474.444002 211.622553,474.250291 211.663192,473.895827 C211.691826,473.642596 211.911947,473.512734 212.522027,473.583174 C213.282758,473.673487 213.904744,473.642596 214.372734,473.592028 C215.412035,473.50624 215.817148,472.680633 216.139703,471.227654 C216.639575,469.125168 217.105302,465.114104 217.676613,460.191743 L218.712666,451.260285 C219.608795,443.544119 219.771746,442.124196 219.85883,440.486262 C219.959001,438.749357 219.54946,437.829009 218.463911,437.445916 C217.923203,437.228004 217.268253,437.100503 216.660436,437.032129 C216.152889,436.970641 215.859066,436.833893 215.905216,436.428861 C215.940443,436.125259 216.359922,436.070068 217.17251,436.160381 C219.100166,436.387147 222.280847,436.908957 223.752813,437.080729 C225.022271,437.225938 228.035574,437.423879 229.964411,437.646317 C230.623888,437.721283 231.018078,437.870919 230.982851,438.177079 C230.936603,438.582111 230.619558,438.648026 230.111913,438.588604 L230.111913,438.588604 Z M202.640896,443.046512 C200.582073,450.003181 194.036898,453.39563 187.077854,451.339481 C186.831165,451.266778 186.292818,451.108386 186.062661,450.985213 C185.832602,450.861845 185.503454,450.714176 185.604707,450.370828 C185.72141,449.978979 186.106744,449.934905 187.136106,450.234375 C189.880876,451.048964 194.617163,449.091884 196.09582,444.096722 C196.573454,442.476496 197.398144,439.152225 195.378976,435.889638 C194.092986,433.751834 192.170742,432.862574 191.043374,432.530147 C190.30803,432.312234 189.558321,432.142627 189.073898,432.160237 C188.800739,432.186603 188.566252,432.435407 188.406549,432.977089 L182.606853,452.572285 C181.272352,457.080957 180.12855,460.953403 179.749809,463.130461 C179.491115,464.548318 179.465728,465.712945 180.878358,466.344743 C181.535572,466.64195 182.584713,467.062428 183.320253,467.27611 C183.857517,467.438831 184.060122,467.656842 183.988487,467.901218 C183.886151,468.244566 183.451322,468.275457 182.911794,468.116966 C179.676107,467.161595 176.63417,466.100366 175.360283,465.723865 C174.231832,465.389273 171.100646,464.62535 169.14101,464.044119 C168.503574,463.854836 168.204143,463.608393 168.305397,463.264947 C168.376934,463.018209 168.618014,462.930257 169.205954,463.104194 C169.940214,463.322204 170.55797,463.396973 171.028026,463.427963 C172.066245,463.52477 172.62988,462.520798 173.245372,461.155968 C174.099681,459.170063 175.245746,455.299978 176.580148,450.791207 L179.132152,442.166008 C181.33523,434.720585 181.740342,433.3469 182.106981,431.750778 C182.502254,430.053521 182.34255,429.157473 180.826502,428.336292 C180.463307,428.122807 179.644127,427.8256 178.958279,427.620772 C178.418752,427.46238 178.153367,427.279687 178.255802,426.93634 C178.357154,426.592796 178.729302,426.597125 179.463563,426.815234 C182.060831,427.583486 185.105918,428.642452 186.47663,429.049549 C188.48704,429.643865 191.37262,430.337348 193.626275,431.000038 C199.753151,432.814171 201.350577,435.524254 201.916475,436.492611 C202.689309,437.840028 203.410482,440.448779 202.640896,443.046512 L202.640896,443.046512 Z M166.635254,422.255896 C166.331394,422.843522 165.470493,424.06757 163.641729,427.607687 C163.127589,428.609297 162.803951,428.902176 162.44056,428.715155 C162.122334,428.549876 162.126762,428.208693 162.40858,427.664945 C162.617877,427.251059 163.11765,425.729902 162.773054,424.056748 C162.537484,422.843522 161.921992,420.800654 158.970386,419.279498 C155.610321,417.54702 152.559527,418.445036 151.153588,421.170466 C150.074632,423.257408 150.301346,425.38626 152.594754,430.189974 L153.374279,431.799181 C156.738674,438.764606 157.075595,442.905631 154.849492,447.220494 C153.491966,449.853545 150.8761,452.470953 146.50527,452.917895 C143.485473,453.199853 140.730863,452.297115 138.324098,451.057818 C135.689536,449.699481 133.809112,448.327961 132.301919,446.458833 C131.739366,445.76535 131.720572,445.468242 132.235893,444.468698 C133.522866,441.972198 135.110452,439.339344 135.531014,438.636909 C135.927369,437.978744 136.320378,437.549511 136.685934,437.738893 C137.09331,437.947951 136.928097,438.379546 136.74094,438.742766 C136.435998,439.334917 136.125546,440.380602 135.954921,441.272124 C135.220562,445.14457 137.268266,447.753321 140.084572,449.204038 C144.171419,451.310852 147.598593,449.571685 148.840499,447.167663 C149.987646,444.942005 150.384002,442.502764 148.136939,437.606768 L146.890605,434.894521 C143.908199,428.413324 143.823378,424.345002 145.720334,420.668628 C148.296544,415.671203 154.325414,414.240261 160.638266,417.49419 C163.58997,419.017511 165.264542,420.452782 166.280718,421.381885 C166.642929,421.681257 166.799385,421.934389 166.635254,422.255896 L166.635254,422.255896 Z M126.93479,420.996628 C119.425098,429.972062 107.218775,431.823383 97.2605969,423.497554 C86.0099345,414.08846 88.5113609,401.861458 94.3154849,394.922497 C99.9228089,388.218862 111.598362,383.263347 123.358835,393.095181 C133.118738,401.260354 134.442119,412.023359 126.93479,420.996628 L126.93479,420.996628 Z M78.1238633,383.003524 C74.2694369,385.695997 70.9599497,388.007639 69.3052553,389.475966 C68.2206905,390.420515 67.4732441,391.316366 68.1832985,392.687985 C68.5102817,393.335229 69.0695873,394.314704 69.5088449,394.942272 C69.8303177,395.402298 69.8511785,395.701571 69.6431609,395.846977 C69.3481577,396.051805 68.9891945,395.803001 68.6379065,395.305393 C66.7355393,392.582128 65.0179673,389.854632 64.1988857,388.681151 C63.5262233,387.719287 61.5565505,385.167695 60.4160945,383.531925 C60.0053729,382.946267 59.9261609,382.565437 60.2199833,382.360806 C60.4291817,382.213235 60.6714425,382.292628 61.0226321,382.79663 C61.4619881,383.426264 61.8957353,383.866615 62.2424969,384.185761 C62.9978153,384.90797 64.0645697,384.474113 65.3956265,383.791846 C67.3025201,382.772429 70.6109249,380.460786 74.4653513,377.768412 L78.1524977,375.194979 C78.3209585,375.078399 78.3165305,374.893542 78.2272817,374.767812 L67.0493369,358.76763 C66.9611705,358.642195 66.8324633,358.545192 66.6220841,358.692762 L62.9361185,361.266392 C59.0817905,363.960832 55.7732873,366.268047 54.1175105,367.738636 C53.0319617,368.680825 52.2864833,369.579037 52.9967345,370.950557 C53.3226353,371.595539 53.8818425,372.575308 54.3222809,373.204844 C54.6437537,373.667231 54.6635321,373.962176 54.4543337,374.109746 C54.1614953,374.312114 53.8015481,374.06577 53.4502601,373.563834 C51.5488769,370.842634 49.8304193,368.117204 49.0112393,366.941657 C48.3374945,365.981859 46.3689041,363.428102 45.1974521,361.750521 C44.8177265,361.206675 44.7394985,360.828206 45.0312545,360.621115 C45.2415353,360.475906 45.4848785,360.555102 45.8361665,361.057235 C46.2742433,361.686672 46.7091713,362.129187 47.0559329,362.446267 C47.8079057,363.16828 48.8769233,362.734718 50.2079801,362.052155 C52.1148737,361.032837 55.4242625,358.725818 59.2776065,356.031083 L66.6518993,350.881857 C73.0187729,346.432705 74.1923897,345.615951 75.4738529,344.596731 C76.8401369,343.517991 77.2761473,342.714519 76.6044689,341.127152 C76.4536217,340.735402 75.9967505,339.993417 75.5882921,339.405693 C75.2657369,338.945569 75.1732409,338.635179 75.4682441,338.430351 C75.7611809,338.225621 76.0496897,338.461144 76.4592305,339.046802 C78.0390425,341.309845 79.7576969,344.037537 80.5470617,345.166747 C81.2494409,346.172981 83.2191137,348.724573 84.3596681,350.35808 C84.7702913,350.941377 84.8902409,351.293578 84.5975009,351.498406 C84.3045641,351.7053 84.0447881,351.509326 83.6935001,351.009554 C83.4590129,350.674864 83.1541697,350.325024 82.7192417,349.882411 C81.7205801,348.898411 80.7737753,349.059066 79.2478865,349.999287 C77.8508033,350.851162 76.6771865,351.669981 70.3103129,356.116969 L69.4295345,356.731157 C69.2203361,356.878728 69.2236817,357.061518 69.3117497,357.186953 L80.4897929,373.189398 C80.5778609,373.314931 80.7507497,373.380945 80.9599481,373.233473 L81.8395457,372.619284 C88.2053369,368.174461 89.3789537,367.353281 90.6604169,366.33406 C92.0267993,365.253156 92.4637937,364.45175 91.7911313,362.866744 C91.6402841,362.470468 91.1844953,361.728582 90.7748561,361.145187 C90.4533833,360.6828 90.3630521,360.37241 90.6549065,360.167779 C90.9489257,359.965213 91.2373361,360.198473 91.6457945,360.786296 C93.2267873,363.047272 94.9453433,365.774867 95.7357905,366.904273 C96.4382681,367.910212 98.4067601,370.461804 99.5473145,372.093146 C99.9569537,372.680969 100.077986,373.033072 99.7850489,373.235637 C99.4912265,373.440465 99.2336153,373.24882 98.8824257,372.744719 C98.6478401,372.412292 98.3417177,372.062255 97.9079705,371.61974 C96.9072425,370.635642 95.9615201,370.796494 94.4367137,371.736518 C93.0373673,372.590656 91.8637505,373.409573 85.4968769,377.858725 L78.1238633,383.003524 Z M39.1279433,320.834046 C39.1279433,317.575788 41.7691961,314.938605 45.0290897,314.938605 C48.2889833,314.938605 50.9302361,317.575788 50.9302361,320.834046 C50.9302361,324.09437 48.2889833,326.740604 45.0290897,326.740604 C41.7691961,326.740604 39.1279433,324.09437 39.1279433,320.834046 L39.1279433,320.834046 Z M19.0014041,295.642584 C18.9209129,295.085653 19.5110177,294.532952 20.2938881,293.540098 C20.8631321,292.837957 27.8256209,283.963659 34.0735289,275.50787 C37.0063409,271.567246 43.2840641,263.672913 43.9677473,262.693144 L43.9314377,262.442077 L21.3023897,266.279402 C18.2252249,266.78124 17.3311625,267.377818 17.0042777,268.665617 C16.8126929,269.469285 16.9909937,270.682216 17.0933297,271.388981 C17.1848417,271.996578 17.0603657,272.221081 16.7575889,272.267222 C16.3535585,272.324479 16.2215057,271.776304 16.1091329,271.016808 C15.7238969,268.388282 15.5190281,265.938022 15.3638513,264.87699 C15.2823761,264.322322 14.8486289,262.422303 14.4841553,259.945677 C14.3884121,259.289677 14.3630249,258.776623 14.7693185,258.7173 C15.0731777,258.675488 15.2690921,258.952822 15.3572585,259.560419 C15.4320425,260.068947 15.4903937,260.471815 15.7304897,261.052947 C16.3437185,262.411284 17.4654785,262.65999 20.3038265,262.294704 L52.2909113,258.16696 C53.4040121,258.006207 53.8885337,258.140496 53.9545601,258.593931 C54.0360353,259.15096 53.5692257,259.839918 53.0946425,260.478308 C50.5294529,264.106476 44.8540361,271.547471 40.4193449,277.572971 C35.7667961,283.884364 30.4226921,290.403044 29.5959353,291.453254 L29.6178785,291.602891 L50.6208665,287.952784 C54.5490929,287.274648 55.7677769,286.422773 55.9737281,285.359577 C56.1498641,284.456839 56.0607137,283.488186 55.9417481,282.678123 C55.8602729,282.123356 55.9164593,281.806276 56.2203185,281.760038 C56.6254313,281.700616 56.7928097,282.140966 56.8974089,282.847534 C57.3784865,286.132158 57.5238233,288.177386 57.6648305,289.137185 C57.7318409,289.592981 58.2317129,291.946238 58.6182281,294.577125 C58.7150537,295.230862 58.7305025,295.695414 58.2767801,295.763591 C57.9730193,295.807666 57.8266001,295.519411 57.7517177,295.015114 C57.6559745,294.357048 57.4721633,293.45431 57.1649585,292.774207 C56.5681625,291.521432 55.0731713,291.534516 50.6660321,292.131193 L20.8189505,296.045451 C19.8072017,296.192923 19.0752041,296.14452 19.0014041,295.642584 L19.0014041,295.642584 Z M20.7409193,228.753014 C21.5842073,217.440654 28.3782353,210.879179 38.3154545,211.621163 C48.2537561,212.361869 55.5113465,220.179267 54.6480833,231.74476 C53.6737265,244.789597 44.0029745,249.39842 36.3073073,248.821617 C28.9176641,248.271277 19.7246441,242.358128 20.7409193,228.753014 L20.7409193,228.753014 Z M24.7076201,201.336976 C25.3086473,199.064981 26.1421937,196.325285 26.3777633,195.435927 C26.7719537,193.955402 27.7198409,189.978377 28.0731953,188.645422 C28.8064721,185.879361 29.8931033,182.784021 32.0389121,180.868753 C33.2058377,179.858288 35.8152089,178.59233 38.6302361,179.339922 C41.7427265,180.164251 44.0371193,182.676098 46.3182281,187.825324 C52.0819097,185.229854 56.6958857,183.178132 60.0087185,181.25401 C63.0704345,179.475195 63.6749057,177.996933 64.0062185,177.345261 C64.2230921,176.927047 64.2892169,176.679325 64.3806305,176.333715 C64.4719457,175.988105 64.7713769,175.85598 64.9696529,175.90881 C65.3153321,175.999025 65.3351105,176.321516 65.1908561,176.865362 L64.0910393,181.01406 C63.4491761,183.433528 62.8877057,184.553981 61.9948241,185.53257 C60.5580857,187.16047 58.1502377,188.266756 54.2473985,189.822149 C51.5181761,190.94821 48.2185289,192.028033 47.4302465,192.402272 C47.1175313,192.583882 47.0041745,192.816158 46.9248641,193.113266 L45.7909025,196.989057 C45.7402265,197.186113 45.7998569,197.361033 46.0452665,197.426063 L46.6387169,197.583471 C50.5404737,198.618039 53.8147337,199.432628 55.6433993,199.706814 C56.9193521,199.886161 57.7627385,199.898262 58.3132865,198.615973 C58.5819185,198.000604 58.8790865,197.074943 59.0244233,196.531097 C59.1147545,196.186569 59.4152681,196.054543 59.6123633,196.107373 C59.9095313,196.185487 59.9657177,196.569662 59.8203809,197.11341 C59.1543113,199.631946 58.0489841,203.198332 57.8793425,203.838984 C57.6559745,204.679841 57.0724625,207.484566 56.6133281,209.212714 C56.4690737,209.756462 56.2423601,210.012842 55.9450937,209.934728 C55.7479001,209.881897 55.5410633,209.669494 55.6852193,209.126927 C55.8558449,208.482929 55.9362377,207.976566 55.9417481,207.556088 C55.9803209,206.612818 55.2558017,206.158202 54.0602417,205.682632 C52.3339121,205.012268 49.0244249,204.136093 45.1722617,203.114708 L37.7627417,201.15084 C31.3904561,199.460174 30.2046377,199.14644 28.8582305,198.843822 C27.3994505,198.560782 26.8500833,198.840477 26.0881721,200.117257 C25.8988505,200.436599 25.6511777,201.165204 25.4815361,201.807037 C25.3649321,202.251618 25.1369393,202.509276 24.8408537,202.428899 C24.5446697,202.350785 24.5380769,201.979793 24.7076201,201.336976 L24.7076201,201.336976 Z M33.7309985,167.242684 C33.8752529,166.915767 34.3894913,166.641777 34.9861889,165.676371 C35.6654441,164.522764 36.3964577,163.004854 36.9965009,161.64996 L44.4015929,144.978135 C44.9816609,143.672628 45.2822729,142.74254 45.4595897,142.095296 C45.6556025,141.399649 45.7072625,141.030919 45.7700417,140.891121 C45.8944193,140.611524 46.1498657,140.668683 46.7554193,140.937261 C47.5964441,141.310418 50.4975713,142.709485 51.5258513,143.166363 C51.9243713,143.399721 52.1160545,143.596678 52.0135217,143.831217 C51.8681849,144.158135 51.6392081,144.169055 51.0116129,143.944551 L50.5701905,143.804753 C49.5011729,143.441533 47.8100705,143.978689 46.1256593,147.646308 L43.7299145,152.786778 L59.7962729,159.920532 C63.4392377,161.536527 66.5880377,162.879419 68.4001721,163.459469 C69.5826449,163.817278 70.4336081,163.916249 71.1591113,162.785859 C71.5016417,162.266214 71.9640233,161.351572 72.2336393,160.74614 C72.4418537,160.278341 72.7577177,160.196882 72.9449729,160.278341 C73.2246257,160.403875 73.2191153,160.792378 73.0120817,161.260275 C71.8087481,163.968095 70.4447273,166.661552 69.9272417,167.828244 C69.5120921,168.762759 68.4090281,171.625823 67.6812617,173.260412 C67.4544497,173.774548 67.1901473,173.99246 66.9095105,173.866927 C66.7223537,173.784484 66.5516297,173.540009 66.7784417,173.025972 C67.0481561,172.420539 67.2308849,171.885645 67.2816593,171.516916 C67.4688161,170.59342 66.8257721,170.027536 65.7193625,169.370454 C64.1207561,168.437021 60.9918329,167.047891 57.3487697,165.430912 L41.2825097,158.29706 L38.7052169,164.475443 C37.6934681,166.878284 37.5381929,167.983587 38.1569321,168.985197 C38.5312457,169.654478 38.9628281,170.068266 39.2005625,170.287359 C39.4858241,170.525144 39.6310625,170.701245 39.5078657,170.982022 C39.3823073,171.261521 39.1059017,171.251584 38.6875049,171.065645 C38.0324561,170.773948 34.5556889,168.280695 34.2716081,168.043008 C33.7993865,167.720518 33.6264977,167.476042 33.7309985,167.242684 L33.7309985,167.242684 Z M50.5096745,132.429725 C51.8825513,130.459462 53.6605409,128.085151 54.3618377,127.079015 C54.9739841,126.19861 56.6716793,123.581988 57.6934649,122.114744 C58.0445561,121.612808 58.3044305,121.419097 58.5553505,121.594116 C58.8064673,121.770118 58.7865905,122.067423 58.4662985,122.527548 C58.2603473,122.82141 58.0699433,123.186893 57.8607449,123.663447 C57.3279089,124.787443 57.6273401,125.430161 58.8273281,126.39114 C59.8996913,127.26397 61.2010313,128.167692 66.6100793,131.93438 L67.3652993,132.459534 C67.5754817,132.605825 67.7054681,132.509019 67.7924537,132.384568 L77.4875105,118.462473 C77.5469441,118.379932 77.5920113,118.224688 77.3828129,118.078298 L76.6276913,117.553242 C71.2175609,113.785473 69.8875865,112.92248 68.7260729,112.176167 C67.4522849,111.414507 66.8413193,111.484849 65.6873825,112.424873 C65.3989721,112.662658 64.9200593,113.261499 64.5698537,113.764518 C64.2760313,114.183913 64.0040537,114.306101 63.7530353,114.13 C63.5031977,113.956064 63.5934305,113.645773 63.9732545,113.098581 C65.3450489,111.12822 67.2397409,108.585581 67.9114193,107.622437 C68.5246481,106.741835 70.1341769,104.249665 71.1272297,102.827577 C71.5059713,102.282747 71.7669281,102.089036 72.0167657,102.264054 C72.2699489,102.439171 72.2204537,102.779174 71.9287961,103.197487 C71.7240257,103.491349 71.5323425,103.85575 71.2945097,104.375296 C70.7903081,105.456102 71.0898377,106.101281 72.2887433,107.061079 C73.3632713,107.934008 74.3706905,108.633984 79.7797385,112.399589 L86.0704505,116.779481 C89.3425457,119.055805 92.1510785,121.013967 93.8212217,121.926543 C94.9144457,122.500002 95.7325433,122.758644 96.6870233,121.74267 C97.1219513,121.296909 97.7197313,120.530821 98.1271073,119.944081 C98.3913113,119.565415 98.7470273,119.503731 98.9143073,119.619327 C99.1653257,119.794346 99.0871961,120.176357 98.7668057,120.635399 C97.1009921,123.025057 95.2810841,125.369559 94.5819521,126.374514 C93.9974561,127.214387 92.3129465,129.902432 91.3188113,131.328947 C90.9687041,131.832064 90.6383753,132.037876 90.3862745,131.862857 C90.2189945,131.747359 90.1264985,131.433624 90.4182545,131.013146 C90.8277953,130.426406 91.0776329,129.978382 91.2274961,129.583188 C91.5851801,128.712621 91.0600193,128.035567 90.0989465,127.179265 C88.7051105,125.960726 85.9802177,124.063068 82.7093033,121.785662 L79.9822457,119.888004 C79.8566873,119.799855 79.6838969,119.868131 79.6266281,119.951755 L69.9304889,133.872767 C69.8445857,133.997218 69.7995185,134.152364 69.9667985,134.270125 L72.6917897,136.168964 C75.9627041,138.445189 78.7193801,140.301134 80.3863745,141.214694 C81.4806809,141.789333 82.2975977,142.045811 83.2256081,141.072633 C83.6594537,140.628052 84.2858681,139.818972 84.6656921,139.274044 C84.9574481,138.854747 85.2844313,138.83271 85.4507273,138.94929 C85.7028281,139.125489 85.6236161,139.505237 85.3032257,139.966444 C83.6385929,142.355119 81.7316993,144.825153 81.0017681,145.874084 C80.4182561,146.713957 78.8493665,149.233576 77.8276793,150.700918 C77.5062065,151.163207 77.2045121,151.327207 76.9546745,151.151107 C76.7850329,151.033345 76.6640009,150.761422 76.9843913,150.30238 C77.3641169,149.756369 77.6152337,149.307361 77.7638177,148.914332 C78.1226825,148.042584 77.5964393,147.365629 76.6375313,146.510408 C75.2436953,145.290689 72.4329977,143.33479 69.1619849,141.058368 L62.8711745,136.678574 C57.4610441,132.911788 56.4548057,132.210632 55.2932921,131.465499 C54.0184217,130.700494 53.4073577,130.77418 52.2546017,131.714204 C51.9651089,131.949825 51.4862945,132.549749 51.1052897,133.094579 C50.8443329,133.472162 50.5415561,133.636162 50.2916201,133.461045 C50.0384369,133.284945 50.1594689,132.933825 50.5096745,132.429725 L50.5096745,132.429725 Z M77.3828129,94.6270851 C79.0916273,93.0905812 81.0227273,91.4922944 81.3255041,91.2193874 C81.6303473,90.9452014 83.1959897,89.3997449 85.1336825,87.6594954 C85.6257809,87.2147179 85.9229489,87.0860365 86.1277193,87.3138853 C86.3347529,87.5428163 86.1707201,87.8961984 85.8283865,88.2021612 C85.5619193,88.4421109 85.2932873,88.753583 85.1292545,89.1069651 C84.9277313,89.4943868 85.0598825,89.7168247 85.3681697,90.0590899 C85.7446481,90.477403 87.0053489,91.2675938 88.7557865,92.3727983 C91.2395993,93.9886951 103.062654,101.018068 104.888073,102.054898 L105.00261,101.951402 L96.5185625,79.6868523 C96.0408305,78.4683136 96.1442489,77.8948547 96.4481081,77.6218493 C96.8280305,77.2795842 97.5754769,77.5007431 98.9164721,78.1491678 L119.957934,88.0908931 L120.07139,87.9874954 C119.042027,85.5459909 113.933591,74.7467827 111.727266,69.9266388 C111.27256,68.9623148 110.804668,68.2138373 110.395127,67.7592218 C109.916116,67.2264924 109.269825,67.1196513 107.941031,68.3161528 C107.637172,68.5903388 107.234224,68.6762248 107.063598,68.4857605 C106.857647,68.2589939 107.057006,67.9430947 107.587578,67.4631954 C109.33595,65.8912746 110.924618,64.6013118 111.226312,64.3272242 C111.455289,64.1224948 112.830429,62.7476298 113.933591,61.7591043 C114.312234,61.4179213 114.609501,61.2891415 114.780225,61.4785236 C114.984995,61.706274 114.969546,61.9947251 114.664605,62.2677305 C114.323354,62.5758577 113.902694,63.0238817 113.62432,63.4784972 C113.098962,64.5010623 113.813543,66.0575374 114.804333,68.5330815 C116.903894,73.9993874 122.71156,87.3314954 125.417658,93.6243928 C126.06395,95.1060005 126.214797,95.65634 125.721419,96.1021013 C125.265729,96.510478 124.695402,96.33664 123.141962,95.6035098 L101.987044,85.7640017 L101.911079,85.8333598 C102.571737,87.7134078 108.408923,103.218344 109.708098,107.411018 C110.29594,109.285655 110.446787,109.837077 109.953606,110.281854 C109.536292,110.657077 109.037601,110.486584 107.982851,109.922963 L82.4593673,95.7664276 C80.9840561,94.9650215 80.0330201,94.4443928 79.2666809,94.5853718 C78.7193801,94.6634858 78.0390425,95.208316 77.7351833,95.4802392 C77.3927513,95.7884648 77.1009953,95.8445416 76.8951425,95.6166927 C76.6903721,95.3899261 76.8885497,95.0751091 77.3828129,94.6270851 L77.3828129,94.6270851 Z M121.145819,58.1201145 C123.165086,56.9136765 125.671924,55.53222 126.769576,54.8763184 C127.997116,54.1420077 136.574644,49.0720761 137.293653,48.5822404 C137.96848,48.1188691 138.504662,47.6190971 138.785495,47.3912482 C138.978064,47.2173118 139.120154,46.9542428 139.295207,46.8507467 C139.514246,46.7176382 139.662928,46.8672746 139.766346,47.0433754 C139.92605,47.3064444 139.96787,47.8766567 140.903654,49.6378613 C141.095238,50.059421 141.978182,51.7348379 142.153235,52.2245752 C142.21385,52.4259597 142.388805,52.9180581 142.082781,53.1018325 C141.818577,53.2593394 141.669993,53.1095062 141.485001,52.8024612 C141.328643,52.5393922 140.89155,51.9074954 140.410473,51.5993682 C139.709176,51.1260605 139.087091,50.7837953 137.053655,51.762286 C136.343502,52.0683472 131.686526,54.7342572 130.895882,55.2064828 C130.719746,55.3110611 130.71207,55.4959177 130.843139,55.7139285 L136.352358,64.922622 C136.482246,65.1417149 136.630929,65.2903676 136.85223,65.159325 C137.728482,64.6354498 142.726907,61.6446879 143.552483,61.0315818 C144.421257,60.3941756 144.869272,59.9485128 145.054264,59.3617725 C145.202946,58.9137485 145.202946,58.6165416 145.377902,58.5119633 C145.554038,58.4063028 145.790886,58.5031091 145.921857,58.722202 C146.051745,58.941295 146.331398,59.6071331 147.24081,61.6249135 C147.599675,62.4217941 148.403406,63.9661684 148.560846,64.2292374 C148.744658,64.5352002 149.015553,65.0878025 148.664363,65.2980413 C148.401143,65.4553514 148.234946,65.3772374 148.129264,65.2001528 C147.850694,64.8324072 147.562185,64.349163 147.185805,63.9198313 C146.519637,63.305643 145.696127,63.0249639 144.171419,63.7580941 C143.416101,64.0905212 138.979245,66.625487 138.013646,67.2022908 C137.838592,67.3068691 137.900289,67.5093358 138.030177,67.7284288 L139.81594,70.7092542 C140.575588,71.981607 142.419702,75.1639153 143.119917,76.2338013 C144.728462,78.7247911 146.253268,78.5872554 150.200092,76.2261277 C151.209774,75.6228595 152.806118,74.6091487 153.551498,73.5668091 C154.254959,72.5507371 154.220913,71.4996418 153.566848,69.8087791 C153.418264,69.3619357 153.400552,69.1340869 153.663772,68.97658 C153.970878,68.7928055 154.303372,69.2496837 154.53904,69.6437953 C155.037731,70.4769783 156.252086,73.2024084 156.478898,74.0785836 C156.792695,75.2013982 156.441506,75.4104564 154.995911,76.2767935 C152.100393,78.0081888 149.750994,79.3544252 147.811137,80.3946004 C145.898733,81.4787515 144.426767,82.2988499 143.286114,82.980232 C142.846857,83.243301 142.040961,83.7860653 141.119445,84.337487 C140.225481,84.9318025 139.285269,85.5515986 138.496986,86.0248079 C138.014728,86.3121768 137.672394,86.3386412 137.514954,86.0743916 C137.410355,85.9004552 137.410355,85.6010839 137.89468,85.3138133 C138.462842,84.972532 138.875728,84.6665692 139.174077,84.3693622 C139.858842,83.7221181 139.6585,82.8899189 139.134422,81.7143724 C138.364934,80.030298 136.607706,77.0934486 134.559904,73.6735518 L130.627348,67.0966304 C127.241994,61.4410407 126.613317,60.3876825 125.860163,59.2296478 C125.012447,58.0111091 124.424606,57.8262524 122.986686,58.209247 C122.627822,58.3060533 121.944138,58.6561888 121.373812,58.9962896 C120.978539,59.2319105 120.636206,59.2582764 120.479848,58.9952074 C120.32231,58.7321385 120.576772,58.4613958 121.145819,58.1201145 L121.145819,58.1201145 Z M161.043378,36.6040425 C163.729797,35.4778829 166.008741,34.9661085 167.212173,34.7943364 C167.627224,34.7294054 167.875979,34.7922704 167.993764,35.0740317 C168.211818,35.5923976 168.544312,36.7834882 169.868776,39.9404144 C170.224394,40.7890431 170.213373,41.2909795 169.884126,41.4296957 C169.602309,41.547457 169.361229,41.3701756 169.163051,40.9002128 C169.004529,40.5237113 168.30215,39.3778757 166.970994,38.7173502 C166.044066,38.2199393 164.25053,37.6420533 161.563127,38.7691966 C158.593907,40.0141013 156.561554,42.6943748 157.706438,45.4274786 C158.459493,47.2173118 159.711436,48.3554738 164.30337,48.8673466 L166.395256,49.0973598 C173.127587,49.8216358 176.107828,52.1717449 177.63047,55.7997161 C178.875623,58.7684408 178.752328,61.6446879 176.625314,65.0305452 C175.239251,67.2727311 172.605674,68.6552698 170.389509,69.5830947 C167.985006,70.5913946 165.34277,71.4225116 163.215755,71.3730263 C162.437214,71.3674186 162.217094,71.2387371 161.841698,70.3438697 C160.932285,68.1753706 160.073548,65.599577 159.84339,64.9216382 C159.588042,64.3073514 159.597882,63.8043328 159.927129,63.6656166 C160.304788,63.5092902 160.509558,63.8659189 160.628524,64.1476801 C160.845398,64.6651606 161.341826,65.4553514 161.87476,66.0619645 C164.01496,68.6564504 167.541321,68.3404528 170.132882,67.2540389 C173.714346,65.7514762 174.933129,62.5814654 173.747409,59.7547035 C173.016395,58.0111091 171.861474,56.4469603 167.274854,55.819589 L164.280246,55.4145572 C158.172263,54.5944588 155.444025,52.5812038 153.962121,49.0489567 C151.905462,44.1474522 155.29426,39.0146555 161.043378,36.6040425 L161.043378,36.6040425 Z M176.907131,30.4002776 C177.252909,30.3122272 177.786827,30.5455854 178.915278,30.4211343 C180.242006,30.2439513 181.888926,29.8807311 183.325763,29.5174126 L201.014738,25.0539957 C202.401981,24.7039585 203.317986,24.3660221 203.937808,24.1052158 C204.605058,23.8311283 204.927614,23.6450911 205.076198,23.6054438 C205.374546,23.5305764 205.485837,23.7661972 205.648689,24.4099981 C205.874418,25.301619 206.56253,28.4475266 206.837754,29.5394498 C206.901616,29.9952458 206.864224,30.269235 206.617634,30.3321001 C206.269691,30.4190683 206.121107,30.2471978 205.907481,29.6154978 L205.745613,29.1795746 C205.372283,28.1151978 203.907009,27.1167359 199.980947,28.0544972 L194.456476,29.3435746 L198.758918,46.385211 C199.734455,50.2487047 200.621728,53.5553658 201.282287,55.3385092 C201.732664,56.4888703 202.179597,57.2197377 203.517345,57.0930239 C204.137068,57.040292 205.141142,56.8398913 205.784087,56.678154 C206.280712,56.5538013 206.542653,56.7519393 206.591066,56.9499789 C206.665948,57.2472842 206.356578,57.4827083 205.862315,57.60834 C202.987658,58.3325176 200.027195,58.9214222 198.787552,59.2363376 C197.796664,59.4850431 194.862671,60.3842392 193.128666,60.821343 C192.582546,60.9600593 192.246806,60.886274 192.173104,60.5890671 C192.12351,60.3909291 192.208233,60.1058229 192.753172,59.9671067 C193.397298,59.8042872 193.930134,59.6171678 194.252788,59.4322128 C195.094994,59.0083904 195.142324,58.1531702 194.978291,56.8773742 C194.725108,55.043565 193.887232,51.7237209 192.911793,47.8601289 L188.609253,30.8185908 L182.156476,32.6061612 C179.641864,33.2941349 178.676462,33.8533286 178.267905,34.9572542 C177.973984,35.6640185 177.912386,36.2595146 177.889262,36.5820053 C177.877158,36.9529975 177.828647,37.1764192 177.531381,37.2523688 C177.23313,37.326154 177.071164,37.1038145 176.959972,36.6579549 C176.783836,35.9633898 176.601107,31.6903388 176.612226,31.3182644 C176.574736,30.7480521 176.659458,30.4630443 176.907131,30.4002776 L176.907131,30.4002776 Z M230.167017,16.6146364 L240.336657,16.7786364 L244.199742,24.3539213 C245.388808,26.6721552 246.372021,29.090442 246.372021,29.090442 L246.474455,29.0926064 C246.474455,29.0926064 247.483941,26.7590251 248.798466,24.4287887 L252.957933,16.9833658 L263.124129,17.1485464 L251.636618,35.3590395 L262.481085,53.6742092 L252.517494,53.5135542 L248.450622,45.7819429 C247.212062,43.4627251 246.278442,41.198502 246.278442,41.198502 L246.176008,41.1974198 C246.176008,41.1974198 245.168786,43.4297677 243.854162,45.7070755 L239.53942,53.3043976 L229.626407,53.1437425 L241.008138,35.1862836 L230.167017,16.6146364 Z M282.723342,54.3930743 C283.394922,51.6653814 284.326475,48.736304 284.573066,47.9548691 C284.804207,47.2228211 285.088288,46.713211 285.484643,46.8121816 C285.933839,46.9201049 285.872142,47.3802296 285.775218,47.7765056 C285.616696,48.4215854 285.559624,49.5124264 285.599181,50.4171319 C285.786141,54.3566735 288.38459,56.4172494 291.460574,57.1745812 C295.926064,58.274178 298.854645,55.7832866 299.502018,53.1546627 C300.100782,50.7242752 299.920317,48.2586675 296.593118,44.0207383 L294.752349,41.6717113 C290.341962,36.0624588 289.311518,32.1250815 290.302406,28.1063436 C291.645467,22.6488919 297.176826,19.8541037 304.075454,21.5514594 C307.298939,22.3450935 309.260838,23.353295 310.465254,24.0182476 C310.888178,24.2284864 311.099442,24.437643 311.015802,24.7843352 C310.855115,25.431481 310.304567,26.8196274 309.348906,30.6898109 C309.080274,31.7805536 308.833684,32.1405272 308.437329,32.0448031 C308.089386,31.9589171 308.012438,31.6243256 308.159841,31.0288295 C308.272214,30.5829699 308.400035,28.9825188 307.675418,27.4359801 C307.164525,26.3110995 306.092358,24.4683376 302.864248,23.6748019 C299.193633,22.7721624 296.436957,24.3550035 295.703582,27.3314018 C295.142111,29.6143172 295.85561,31.6309171 299.204654,35.7695806 L300.33645,37.154382 C305.231555,43.1468259 306.521678,47.0951235 305.358885,51.8074426 C304.649913,54.6858541 302.718911,57.8405176 298.568399,59.2924144 C295.69935,60.2698229 292.808358,60.0320377 290.179209,59.3848919 C287.301206,58.6759633 285.154216,57.7800137 283.254014,56.3116873 C282.542778,55.7689231 282.456875,55.4849975 282.723342,54.3930743 L282.723342,54.3930743 Z M370.641381,121.329964 C386.825426,137.510675 399.537033,156.358574 408.413106,177.345261 C417.608291,199.080328 422.269696,222.160647 422.269696,245.949797 C422.269696,269.73993 417.608291,292.824676 408.413106,314.557677 C399.537033,335.544167 386.825426,354.390984 370.641381,370.571891 C354.455171,386.752798 335.606651,399.461864 314.615865,408.335867 C292.878616,417.52941 269.787088,422.189883 245.995444,422.189883 C222.201635,422.189883 199.1167,417.52941 177.378369,408.335867 C156.387582,399.461864 137.535815,386.752798 121.350688,370.571891 C105.165462,354.390984 92.4561185,335.544167 83.5778801,314.557677 C74.3827937,292.824676 69.7212905,269.737765 69.7212905,245.949797 C69.7212905,222.160647 74.3827937,199.080328 83.5778801,177.345261 C92.4561185,156.358574 105.165462,137.510675 121.350688,121.329964 C137.535815,105.147975 156.387582,92.4421564 177.378369,83.5657917 C199.1167,74.3736262 222.201635,69.7130551 245.995444,69.7130551 C269.787088,69.7130551 292.878616,74.3736262 314.615865,83.5657917 C335.606651,92.4421564 354.455171,105.147975 370.641381,121.329964 L370.641381,121.329964 Z M320.032686,49.718238 C323.2606,43.0488391 332.13874,36.67222 344.421028,42.6130143 C354.635637,47.5530839 358.244654,56.2797137 353.906886,65.2496382 C349.566758,74.218382 339.629637,78.0963376 329.185953,73.0449999 C317.407965,67.3486807 316.674688,56.6637905 320.032686,49.718238 L320.032686,49.718238 Z M364.896592,76.7654486 L368.917216,71.8010791 C373.06576,66.68058 373.87815,65.7603304 374.666433,64.6232506 C375.551639,63.368508 375.492304,62.7926879 374.635732,61.5742476 C374.426435,61.2715314 373.8628,60.7487383 373.38497,60.363481 C372.984186,60.0408919 372.885098,59.761295 373.076682,59.5235098 C373.270432,59.2847407 373.57439,59.3992554 374.089612,59.8174702 C375.954587,61.3287887 378.23363,63.305643 379.266338,64.1422692 C380.140326,64.8488367 382.549355,66.6683808 383.819798,67.6965536 C384.332954,68.1136861 384.511254,68.3866915 384.315242,68.6244768 C384.121492,68.862262 383.828654,68.8214342 383.46969,68.5309171 C383.071072,68.2104924 382.842095,68.088304 382.340255,67.8143148 C381.298691,67.2331822 380.633802,67.4852326 379.589975,68.6112938 C378.645335,69.6194954 377.870337,70.5716202 373.724056,75.6944804 L369.89482,80.4177197 C365.904995,85.3401792 365.312824,88.0182884 365.927135,90.7513922 C366.47975,93.2357905 368.049722,94.7063796 369.240952,95.6706052 C370.75149,96.8923904 372.891789,97.9040353 375.375405,97.679433 C378.801693,97.4285632 381.258938,94.5555626 384.057729,91.1014294 L387.501434,86.8536621 C391.649879,81.7309003 392.380794,80.7469003 393.211094,79.6427779 C394.065304,78.4275842 394.076325,77.845271 393.222016,76.6256501 C393.008488,76.3218517 392.44259,75.7990587 392.046038,75.4775518 C391.649879,75.1562416 391.548527,74.8766448 391.740112,74.6377773 C391.936125,74.4010743 392.237819,74.5134246 392.713386,74.9008463 C394.501216,76.3472338 396.780258,78.3252686 396.817749,78.3571439 C397.216269,78.6785524 399.622936,80.4970143 400.972689,81.5878553 C401.448354,81.975277 401.62449,82.2471019 401.430741,82.4860677 C401.239058,82.7226723 400.944054,82.6819429 400.545436,82.360436 C400.147113,82.0391259 399.917939,81.9180197 399.415902,81.6439321 C398.334683,81.0297437 397.709548,81.3137677 396.665819,82.4397305 C395.758571,83.4799057 394.943918,84.4013358 390.797834,89.5219333 L387.869253,93.1356394 C384.81285,96.9056717 381.199602,100.555779 376.300266,100.598574 C372.165203,100.667932 369.214482,98.8715074 366.950889,97.0377965 C365.12547,95.5583532 361.576182,92.5511618 360.836214,88.2704372 C360.30328,85.2752482 360.939633,81.6483592 364.896592,76.7654486 L364.896592,76.7654486 Z M412.279439,97.8710779 C410.588534,95.885271 409.674693,95.2490455 408.501174,95.3491966 C407.737,95.3811702 407.173365,95.5793082 406.87167,95.6926424 C406.528058,95.8401145 406.303607,95.8896981 406.111924,95.6529951 C405.918174,95.4164888 406.048062,95.1752602 406.404861,94.8858253 C406.959837,94.432292 410.75355,92.4520929 411.097262,92.3057029 C411.594575,92.0283688 411.889677,91.9853766 412.052726,92.1835146 C412.277373,92.4608487 412.292723,93.0431618 412.887453,94.0096501 C413.607249,95.1357113 414.635529,96.4730935 415.573674,97.6201097 L427.122587,111.740244 C428.025506,112.848794 428.719029,113.535587 429.220967,113.984693 C429.751737,114.474528 430.057859,114.685849 430.15685,114.803709 C430.348434,115.041396 430.185484,115.245043 429.668097,115.663356 C428.95696,116.245571 426.402693,118.204913 425.528409,118.917089 C425.14091,119.167073 424.87887,119.250598 424.718183,119.051476 C424.489206,118.775126 424.583769,118.56715 425.066224,118.106927 L425.391928,117.77568 C426.195561,116.986375 426.482003,115.235205 423.965128,112.07818 L420.453035,107.623519 L406.843036,118.747579 C403.758196,121.270444 401.137804,123.476328 399.803402,124.832501 C398.951356,125.727368 398.480217,126.441806 399.165081,127.599743 C399.471006,128.140146 400.08089,128.962408 400.499286,129.476446 C400.823022,129.872722 400.756898,130.190785 400.600638,130.320647 C400.358378,130.514358 400.014962,130.335011 399.691226,129.940997 C397.817591,127.647063 396.027203,125.215495 395.216978,124.225888 C394.567341,123.435697 392.508419,121.159275 391.378984,119.775654 C391.022186,119.338648 390.947303,119.005139 391.185234,118.811428 C391.341592,118.681566 391.638858,118.637492 391.993394,119.074497 C392.413955,119.588534 392.807949,119.990418 393.114071,120.201641 C393.853842,120.783954 394.651178,120.46589 395.736628,119.776834 C397.288888,118.770699 399.940079,116.602298 403.027084,114.080417 L416.637083,102.955275 L412.279439,97.8710779 Z M438.889653,130.292117 C438.819198,129.925552 438.52203,129.218886 438.222599,128.624472 C438.015566,128.213833 438.013302,127.871666 438.288724,127.733933 C438.56385,127.597578 438.812704,127.870485 439.090094,128.417578 C440.168951,130.563942 441.40889,133.256316 441.961406,134.352765 C442.44573,135.3103 443.93649,138.048913 444.740222,139.646118 C445.015446,140.193309 445.061596,140.512455 444.790996,140.650089 C444.515476,140.787625 444.26249,140.628052 444.00911,140.126116 C443.850587,139.807954 443.619347,139.465689 443.300138,139.055147 C442.564794,138.052258 441.855724,138.007102 440.439846,138.604861 C439.162713,139.134245 437.746934,139.845437 431.856611,142.808554 L431.037431,143.220275 C430.80875,143.335774 430.83089,143.496527 430.901147,143.634161 L438.528525,158.786797 C438.57251,158.87711 438.687047,158.991625 438.916122,158.876028 L439.73727,158.463224 C445.62533,155.501189 447.017099,154.742776 448.227911,154.077921 C449.505143,153.320688 449.734218,152.748311 449.454369,151.28756 C449.386374,150.919913 449.086746,150.213247 448.809455,149.665072 C448.580183,149.210456 448.600158,148.913249 448.875285,148.775615 C449.152871,148.636997 449.379585,148.865928 449.679016,149.45926 C450.757775,151.604542 452.09021,154.480789 452.618519,155.529818 C453.100974,156.488534 454.523346,159.089513 455.304938,160.640479 C455.604369,161.233811 455.652782,161.551973 455.377655,161.691673 C455.104497,161.829307 454.827206,161.623495 454.59813,161.167798 C454.437443,160.847373 454.208368,160.50619 453.864854,160.04941 C453.155882,159.090694 452.446713,159.047702 451.028867,159.646444 C449.751734,160.174845 448.655066,160.725283 442.767302,163.6884 L435.919252,167.131515 C432.358746,168.923512 429.300474,170.462377 427.70177,171.494879 C426.677819,172.181672 426.061442,172.779431 426.499518,174.10363 C426.682247,174.696961 427.074371,175.587402 427.395647,176.225792 C427.600418,176.635349 427.488143,176.978696 427.305513,177.072256 C427.034519,177.207627 426.735186,176.958922 426.482003,176.458166 C425.171906,173.854826 423.978412,171.139332 423.423436,170.044162 C422.967549,169.131488 421.404268,166.370936 420.624743,164.816724 C420.347354,164.269631 420.32541,163.881127 420.598372,163.743493 C420.783364,163.651015 421.102672,163.719291 421.33155,164.175973 C421.653122,164.81456 421.928346,165.249302 422.203473,165.566284 C422.798006,166.298332 423.643655,166.158533 424.854664,165.720446 C426.58985,165.07753 429.557987,163.583822 433.11623,161.793005 L436.084466,160.299296 C436.220848,160.232102 436.243086,160.048328 436.198905,159.956933 L428.571626,144.804198 C428.503041,144.667647 428.388503,144.554312 428.208234,144.644626 L425.240097,146.137153 C421.677328,147.929249 418.733397,149.466934 417.136955,150.499435 C416.11084,151.187409 415.494462,151.783987 415.910596,153.061948 C416.093325,153.655279 416.507195,154.589794 416.806725,155.18529 C417.035406,155.640988 416.899221,155.938195 416.718755,156.030574 C416.443432,156.169389 416.143902,155.91724 415.893081,155.415402 C414.582786,152.814423 413.318937,149.961295 412.746347,148.819788 C412.286229,147.907114 410.815149,145.328172 410.013878,143.730967 C409.760596,143.229031 409.760596,142.886766 410.033656,142.74805 C410.216385,142.656654 410.511486,142.679774 410.766834,143.180628 C411.064101,143.774943 411.34149,144.208604 411.612287,144.526864 C412.211346,145.257732 413.054634,145.116851 414.265643,144.680928 C416.002994,144.035946 419.061462,142.497081 422.619606,140.706166 L429.469919,137.261969 C435.355715,134.298754 436.452186,133.748414 437.663294,133.082478 C438.940329,132.326228 439.167141,131.752868 438.889653,130.292117 L438.889653,130.292117 Z M460.814255,180.697079 C460.825178,180.325005 460.679841,179.569837 460.514824,178.92702 C460.398122,178.483423 460.470544,178.146569 460.767909,178.070718 C461.065175,177.993686 461.252332,178.313914 461.417447,178.95683 C462.007454,181.232071 462.624126,184.028925 462.943434,185.266156 C463.302299,186.651942 465.74439,196.31102 466.008496,197.139875 C466.261778,197.918063 466.59191,198.572981 466.728489,198.905506 C466.843026,199.139848 467.05439,199.349005 467.10723,199.548225 C467.170994,199.794766 466.9861,199.895999 466.787922,199.946665 C466.490656,200.022713 465.93135,199.903771 463.976044,200.303392 C463.516024,200.368323 461.661971,200.741381 461.139959,200.771092 C460.930859,200.772273 460.411209,200.800901 460.318713,200.455291 C460.24383,200.158084 460.428921,200.057933 460.7746,199.96762 C461.07167,199.890588 461.800518,199.649557 462.234364,199.275219 C462.884099,198.736981 463.390466,198.237209 463.027074,196.009386 C462.934578,195.242216 461.690606,190.022452 461.459366,189.132011 C461.40869,188.933873 461.236883,188.873271 460.988128,188.93712 L450.597186,191.619558 C450.348431,191.682324 450.163341,191.783558 450.227399,192.030099 C450.485109,193.020887 451.940543,198.659949 452.294882,199.625257 C452.660438,200.637885 452.964297,201.19275 453.472828,201.537278 C453.862689,201.805857 454.144408,201.89066 454.19961,202.088798 C454.250188,202.285657 454.089501,202.484976 453.844977,202.548825 C453.593958,202.612674 452.876229,202.69305 450.68309,202.994684 C449.817858,203.113626 448.109044,203.448119 447.811778,203.524069 C447.466197,203.615464 446.858478,203.71896 446.757225,203.321602 C446.682244,203.026658 446.805441,202.888925 447.001552,202.837276 C447.435299,202.674358 447.981321,202.532297 448.496642,202.292347 C449.273903,201.828976 449.778203,201.118965 449.505143,199.446991 C449.399462,198.629156 448.221417,193.658195 447.939402,192.569617 C447.886562,192.370298 447.677462,192.372561 447.430871,192.437492 L444.064115,193.306092 C442.628558,193.675805 439.054965,194.546471 437.832837,194.914118 C434.983468,195.755171 434.69063,197.256455 435.837875,201.70905 C436.13278,202.847212 436.654497,204.664494 437.443074,205.673876 C438.220238,206.634756 439.237497,206.90117 441.0454,206.749271 C441.516539,206.734907 441.741088,206.782327 441.81597,207.078353 C441.9064,207.424062 441.37563,207.614428 440.926434,207.729926 C439.988486,207.972138 437.026842,208.36625 436.124022,208.337621 C434.959262,208.321093 434.85791,207.924916 434.435183,206.292491 C433.58973,203.027642 432.9643,200.391443 432.513038,198.239471 C432.012969,196.099699 431.643083,194.453993 431.31059,193.167277 C431.180603,192.674096 430.890225,191.746272 430.623659,190.70708 C430.302285,189.68117 429.971956,188.605775 429.740716,187.715335 C429.601972,187.171587 429.672525,186.835815 429.96989,186.758783 C430.170134,186.708215 430.454214,186.79174 430.595025,187.335587 C430.760337,187.979486 430.940802,188.461648 431.138685,188.831558 C431.570464,189.671332 432.424871,189.714226 433.69984,189.543635 C435.529686,189.281648 438.84557,188.425345 442.70777,187.430228 L450.128212,185.51378 C456.511617,183.866008 457.700584,183.560045 459.021702,183.163769 C460.430987,182.694888 460.7746,182.184098 460.814255,180.697079 L460.814255,180.697079 Z M468.903916,218.325684 C468.981062,217.962365 468.978897,217.194212 468.934912,216.531423 C468.903916,216.072479 469.033902,215.756678 469.34219,215.736806 C469.648214,215.714768 469.771509,216.063625 469.817855,216.727397 C469.978444,219.071899 470.07094,221.932798 470.132637,222.850884 C470.238122,224.379812 470.619323,228.451282 470.713886,229.827327 C470.907734,232.681439 470.874573,235.961636 469.458794,238.464825 C468.679466,239.799944 466.616116,241.835236 463.71184,242.034555 C460.50154,242.252467 457.520118,240.612369 453.702002,236.470262 C449.080252,240.780796 445.367817,244.208366 442.850942,247.095632 C440.523486,249.763903 440.428924,251.357665 440.32521,252.082039 C440.254854,252.546394 440.27237,252.804052 440.294411,253.158516 C440.320881,253.517309 440.076554,253.737583 439.873948,253.750864 C439.514886,253.775066 439.393953,253.477761 439.356659,252.916304 L439.061459,248.634596 C438.894179,246.136916 439.065887,244.896438 439.596362,243.681146 C440.43099,241.677828 442.357662,239.857201 445.550349,237.128525 C447.774484,235.184628 450.551037,233.099752 451.174204,232.4955 C451.414202,232.222495 451.447067,231.963853 451.427289,231.657792 L451.251251,227.62469 C451.237967,227.421141 451.127858,227.274653 450.872313,227.292263 L450.260462,227.334173 C446.23295,227.609343 442.87072,227.890022 441.049828,228.21812 C439.783617,228.459054 438.982149,228.718876 438.874204,230.109089 C438.81477,230.77837 438.832384,231.750368 438.869776,232.311726 C438.894179,232.668354 438.651918,232.889612 438.449313,232.902696 C438.143387,232.923651 437.96489,232.578041 437.927596,232.015601 C437.749197,229.416688 437.647746,225.685221 437.603762,225.021449 C437.54423,224.15639 437.196386,221.313101 437.073189,219.527695 C437.035502,218.968599 437.167751,218.650437 437.473775,218.630564 C437.678644,218.617381 437.942946,218.752753 437.982503,219.311946 C438.026685,219.975719 438.110128,220.481984 438.242378,220.882785 C438.508746,221.786408 439.341112,221.984546 440.627003,222.05056 C442.476431,222.128772 445.89406,221.895414 449.868338,221.624671 L457.517855,221.10178 C464.094911,220.653854 465.314776,220.567968 466.688834,220.423743 C468.164046,220.221177 468.593562,219.781909 468.903916,218.325684 L468.903916,218.325684 Z M245.995444,0.00557816437 C110.352126,0.00557816437 -2.95200001e-05,110.335767 -2.95200001e-05,245.949797 C-2.95200001e-05,381.566089 110.352126,491.90159 245.995444,491.90159 C381.637778,491.90159 491.990918,381.566089 491.990918,245.949797 C491.990918,110.335767 381.637778,0.00557816437 245.995444,0.00557816437 L245.995444,0.00557816437 Z" id="Fill-13" fill="#FFFFFF" mask="url(#mask-2)"></path>
                </g>
                <path d="M261.265814,137.058765 C262.394161,142.209455 261.462813,147.244249 259.509826,151.9981 C255.683297,161.394305 249.858049,169.552796 243.103505,177.078261 C242.928688,177.281615 242.72094,177.455555 242.311893,177.841449 C236.083266,171.212559 230.74778,164.222791 226.899459,156.156156 C224.836247,151.854941 223.467417,147.40617 223.097848,142.606391 C222.316106,132.40107 229.948742,123.282584 240.123114,122.105164 C249.923715,120.966929 259.164394,127.413279 261.265814,137.058765 L261.265814,137.058765 Z M233.611301,187.677097 C233.611301,186.591533 237.546199,185.710202 242.398276,185.710202 C247.251525,185.710202 251.187596,186.591533 251.187596,187.677097 C251.187596,188.767255 247.251525,189.64409 242.398276,189.64409 C237.546199,189.64409 233.611301,188.767255 233.611301,187.677097 L233.611301,187.677097 Z M334.973334,264.001092 C340.783143,263.898389 344.205316,260.675213 344.205316,256.489991 C344.205316,253.780624 342.453725,251.97223 338.861132,249.58651 L327.22373,241.86756 C322.625328,238.818228 320.340101,234.746556 320.830156,229.882282 C321.398482,222.962579 326.462802,218.183614 334.892424,218.183614 C337.041823,218.183614 340.938416,218.481951 343.991021,218.869017 L348.187119,218.869017 L347.312545,228.687272 L346.665165,228.687272 C346.656566,224.048241 342.902152,220.997736 337.245076,220.997736 C331.994995,220.997736 328.667021,223.835017 328.507351,227.42337 C328.341133,230.050652 330.36604,231.819763 333.158422,233.63578 L345.899839,241.912414 C349.870991,244.49152 352.182113,247.998961 351.89795,252.989098 C351.491249,261.689736 344.931163,266.819709 334.249539,266.819709 C328.260222,266.819709 322.640572,265.273886 320.200267,262.765724 C319.096057,259.964501 320.042844,254.338113 321.785542,251.425588 L322.37605,251.425588 C321.840264,258.385844 326.959208,264.134479 334.973334,264.001092 L334.973334,264.001092 Z M352.158075,138.169541 L247.828744,242.502736 L352.158075,346.834856 L346.835878,352.163786 L242.498827,247.832741 L138.164122,352.163786 L132.838505,346.834856 L237.168911,242.502736 L132.838505,138.169541 L138.16852,132.839537 L242.498827,237.171559 L346.835878,132.839537 L352.158075,138.169541 Z M267.639845,367.730772 L268.479436,367.730772 L268.490478,368.389107 L248.191863,368.389107 L248.207107,367.730772 L249.053343,367.730772 C251.375703,367.730772 253.260483,365.876449 253.328299,363.576038 L253.328299,346.517757 L231.668379,346.517757 L231.668379,363.53011 C231.713231,365.848013 233.606805,367.730772 235.947732,367.730772 L236.795042,367.730772 L236.803739,368.389107 L216.507372,368.389107 L216.521541,367.730772 L217.36338,367.730772 C219.700984,367.730772 221.60003,365.848013 221.642733,363.53011 L221.642733,326.492032 C221.585861,324.178624 219.696586,322.291663 217.368852,322.291663 L216.521541,322.291663 L216.507372,321.620136 L236.803739,321.620136 L236.795042,322.291663 L235.947732,322.291663 C233.624395,322.291663 231.73512,324.178624 231.668379,326.492032 L231.668379,343.703439 L253.328299,343.703439 L253.328299,326.492032 C253.240842,324.196116 251.362511,322.291663 249.053343,322.291663 L248.207107,322.291663 L248.191863,321.620136 L268.490478,321.620136 L268.479436,322.291663 L267.635545,322.291663 C265.293642,322.291663 263.397722,324.161034 263.351892,326.492032 L263.351892,363.53011 C263.397722,365.848013 265.293642,367.730772 267.639845,367.730772 L267.639845,367.730772 Z M116.200397,265.918834 L116.209192,265.249652 L117.44239,265.249652 C119.698009,265.249652 121.52709,263.443505 121.565297,261.204461 L121.565297,226.497283 C121.565297,221.532358 120.789125,218.148533 120.789125,218.148533 L121.448427,218.148533 L155.154405,250.277581 L155.154405,223.868828 C155.111702,221.623237 153.282621,219.821292 151.028175,219.821292 L149.798202,219.821292 L149.789505,219.151231 L170.041117,219.151231 L170.033398,219.816993 L168.799027,219.816993 C166.563245,219.816993 164.747161,221.596951 164.677293,223.813128 L164.677293,258.328972 C164.677293,263.367088 165.451315,266.85264 165.451315,266.85264 L164.842338,266.85264 L131.083788,234.712745 L131.083788,261.226351 C131.135285,263.4523 132.959968,265.249652 135.206695,265.249652 L136.43999,265.249652 L136.448785,265.918834 L116.200397,265.918834 Z M76,242.502736 C76,334.307333 150.692515,409 242.498827,409 C334.31071,409 409,334.307333 409,242.502736 C409,150.690518 334.31071,76 242.498827,76 C150.692515,76 76,150.690518 76,242.502736 L76,242.502736 Z" id="Fill-16" fill="#FFFFFF"></path>
                <path d="M234,143.650128 C234,150.438239 239.756165,156 246.771172,156 C253.291995,156 258.982115,150.219955 259,143.591711 C259,136.842008 253.251729,131.007971 246.562148,131.000028 C239.739479,130.985348 234,136.7667 234,143.650128" id="Fill-18" fill="#FFFFFF"></path>
            </g>
        </g>
    </g>
</svg>