<?xml version="1.0" encoding="UTF-8"?>
<svg width="5000px" height="5000px" viewBox="0 0 5000 5000" version="1.1" xmlns="http://www.w3.org/2000/svg" xmlns:xlink="http://www.w3.org/1999/xlink">
    <!-- Generator: Sketch 47.1 (45422) - http://www.bohemiancoding.com/sketch -->
    <title>Page 1</title>
    <desc>Created with Sketch.</desc>
    <defs>
        <polygon id="path-1" points="4999.9077 0.057 0 0.057 0 4999.9997 4999.9077 4999.9997 4999.9077 0.057"></polygon>
    </defs>
    <g id="Symbols" stroke="none" stroke-width="1" fill="none" fill-rule="evenodd">
        <g id="Logo" transform="translate(0.000000, -1.000000)">
            <g id="Page-1">
                <path d="M1226.1011,4006.0738 C1180.2831,3967.7418 1106.7631,3949.5948 1023.8001,4048.7918 C954.4971,4131.6778 945.3341,4235.7318 1021.8191,4299.7078 C1049.7011,4323.0248 1125.5711,4363.4608 1221.8711,4248.3068 C1296.5101,4159.0908 1291.4311,4060.7188 1226.1011,4006.0738" id="Fill-1" fill="#48B7C2"></path>
                <path d="M3004.8271,4496.0659 C3003.7981,4494.2109 3002.6571,4491.8159 3001.1571,4492.1949 C2999.6361,4492.5969 2999.2771,4495.3729 2999.2771,4497.5209 L2985.0231,4632.6789 C2985.0461,4634.8509 2985.9191,4636.1929 2987.9321,4635.7009 L3080.4401,4611.6889 C3082.9691,4611.0409 3083.0811,4609.3839 3082.1631,4608.0189 L3004.8271,4496.0659 Z" id="Fill-3" fill="#48B7C2"></path>
                <path d="M304.7988,1964.4478 L431.8008,1998.1148 C436.3098,1999.3228 438.0888,1998.7188 440.4048,1996.0998 C445.9438,1987.3618 450.3968,1974.5848 453.3278,1963.5308 C457.9938,1945.9648 458.0828,1939.5428 454.5578,1930.5478 C448.6058,1914.4688 434.0378,1894.4748 398.8838,1885.1658 C338.6448,1869.1998 312.1718,1906.2338 305.2468,1932.3378 C302.3368,1943.3688 300.0328,1954.0538 299.8428,1958.8428 C300.0438,1962.1218 301.2858,1963.5198 304.7988,1964.4478" id="Fill-5" fill="#48B7C2"></path>
                <path d="M4611.8223,2313.4087 C4609.4033,2323.4677 4609.2923,2336.9937 4610.0753,2348.4067 C4611.2853,2366.5317 4613.2993,2372.6517 4619.5423,2380.0367 C4630.3273,2393.3407 4650.5553,2407.5727 4686.8063,2405.0987 C4748.9933,2400.8467 4762.1513,2357.2677 4760.2943,2330.3257 C4759.5323,2318.9247 4758.2583,2308.0727 4756.9153,2303.4847 C4755.6623,2300.4517 4754.0513,2299.5127 4750.4253,2299.7697 L4619.3413,2308.7217 C4614.6623,2309.0457 4613.1853,2310.1867 4611.8223,2313.4087" id="Fill-7" fill="#48B7C2"></path>
                <path d="M3372.5967,730.0455 C3401.6197,744.0875 3473.6077,762.1795 3528.3197,649.0395 C3570.8587,561.1425 3544.2507,481.3455 3477.8807,449.2335 C3432.0517,427.0805 3366.5537,425.3805 3319.0477,523.5485 C3279.4617,605.3595 3295.0147,692.5195 3372.5967,730.0455" id="Fill-9" fill="#48B7C2"></path>
                <path d="M360.541,2461.7916 C451.179,2468.5616 526.501,2422.0956 532.935,2336.1226 C535.328,2304.0216 525.718,2230.3896 400.383,2221.0246 C303.02,2213.7636 238.574,2267.7936 233.08,2341.3466 C229.287,2392.1106 251.776,2453.6686 360.541,2461.7916" id="Fill-11" fill="#48B7C2"></path>
                <g id="Group-15" transform="translate(0.000000, 0.940000)">
                    <mask id="mask-2" fill="white">
                        <use xlink:href="#path-1"></use>
                    </mask>
                    <g id="Clip-14"></g>
                    <path d="M4774.8857,2726.9717 C4768.3957,2731.7607 4688.6877,2788.8897 4614.4177,2844.7207 C4579.3957,2870.8797 4508.5737,2921.4517 4501.3897,2927.2027 L4501.0987,2929.2407 L4695.8247,2954.4127 C4722.5867,2957.9937 4730.9347,2955.1077 4736.6867,2944.9487 C4740.2897,2938.6597 4741.9447,2927.8977 4742.8847,2921.7217 C4743.7577,2916.1047 4746.0397,2914.8517 4748.5907,2915.2547 C4752.2157,2915.7907 4751.9907,2920.4917 4750.9857,2927.2027 C4747.3607,2950.7877 4742.6157,2974.7787 4741.1397,2984.5337 C4740.3567,2989.6357 4738.7687,3006.7547 4735.3657,3028.7957 C4734.4267,3034.9507 4733.2837,3038.9777 4729.6817,3038.4407 C4727.1307,3038.0377 4725.4527,3035.1727 4726.2577,3030.0267 C4726.9527,3025.3937 4727.5117,3021.8137 4726.8397,3015.9287 C4725.1407,3003.0617 4717.9797,2998.2947 4693.4307,2993.9777 L4419.0647,2946.6047 C4409.3287,2945.1067 4405.7727,2940.8977 4406.3097,2937.2727 C4407.5187,2929.5977 4413.0667,2924.1587 4418.4157,2920.2427 C4448.9167,2896.0087 4511.4837,2847.8307 4564.4057,2807.6197 C4619.2077,2765.5957 4679.4017,2725.9657 4688.4407,2718.4467 L4688.6877,2716.8807 L4509.8037,2694.6827 C4475.7677,2690.4987 4464.6237,2694.5717 4460.1937,2702.8047 C4456.4557,2710.1007 4454.6007,2718.7827 4453.5027,2725.9657 C4452.6987,2731.0907 4450.2587,2733.3507 4447.6867,2732.9487 C4444.1047,2732.3877 4443.7007,2728.1137 4444.6407,2721.9837 C4449.1157,2692.7357 4453.9067,2671.9017 4455.1827,2663.6907 C4455.8077,2659.5957 4457.5747,2637.7767 4461.1117,2614.6837 C4462.0747,2608.5537 4463.1927,2604.5247 4467.3307,2605.1297 C4469.8617,2605.5327 4471.4727,2608.9327 4470.8457,2613.0287 C4469.8827,2619.2037 4469.1227,2627.4837 4469.7267,2633.8837 C4471.0017,2646.1477 4482.5717,2649.5027 4520.4777,2655.8577 L4778.5517,2699.6727 C4787.2817,2701.0367 4792.9877,2705.0657 4792.2487,2709.6747 C4791.3997,2715.3357 4783.7677,2720.4617 4774.8857,2726.9717 L4774.8857,2726.9717 Z M4542.2957,3321.1987 C4509.1337,3321.1987 4482.3247,3294.3007 4482.3247,3261.1607 C4482.3247,3228.0417 4509.1337,3201.2357 4542.2957,3201.2357 C4575.4127,3201.2357 4602.2657,3228.0417 4602.2657,3261.1607 C4602.2657,3294.3007 4575.4127,3321.1987 4542.2957,3321.1987 L4542.2957,3321.1987 Z M4518.0157,3701.2087 C4500.2927,3728.7077 4481.2747,3755.3817 4473.6427,3767.1747 C4466.5927,3778.0947 4450.2137,3806.4247 4439.7837,3822.6027 C4435.8697,3828.6907 4432.7597,3831.6207 4429.2467,3829.3607 C4427.0537,3827.9737 4427.1647,3824.9517 4430.2307,3820.1637 C4434.1707,3814.0337 4436.6987,3808.2377 4438.3527,3803.7397 C4442.2457,3793.8487 4435.1767,3783.7787 4423.0477,3774.7157 C4405.5497,3761.6037 4387.2227,3749.7877 4380.2607,3745.2897 L4344.4367,3722.2197 C4320.8737,3707.0257 4308.4557,3705.2127 4292.1417,3702.7287 C4283.1907,3701.2757 4149.4427,3697.8957 4116.8837,3698.5227 C4093.6997,3699.0597 4075.7537,3702.9317 4065.6167,3708.1447 C4058.8817,3711.8367 4051.4977,3717.5657 4048.1167,3722.8007 C4045.8797,3726.2917 4043.0177,3728.8227 4039.9497,3726.8287 C4037.3317,3725.1507 4038.0047,3721.2567 4041.3827,3715.9757 C4046.4397,3708.1447 4068.8627,3676.2337 4078.1257,3661.8237 C4084.0337,3652.6937 4094.2597,3633.9187 4106.9487,3614.2727 C4109.7447,3609.9087 4112.4307,3608.5667 4115.0717,3610.2667 C4117.6887,3611.9447 4116.1457,3615.3027 4113.6827,3622.9537 C4112.0287,3627.4517 4114.1317,3631.9057 4117.6207,3634.1207 C4121.0907,3636.3797 4127.7587,3637.5887 4135.8367,3638.4837 C4152.8647,3640.7877 4297.4657,3647.4577 4314.1827,3648.3527 C4306.5307,3637.2307 4245.9317,3520.3327 4236.3117,3505.5187 C4229.5307,3494.9567 4223.2407,3488.4227 4217.5587,3484.7527 C4213.1927,3481.9557 4207.2647,3480.6127 4200.7317,3486.9017 C4197.3287,3490.2587 4193.9287,3493.6587 4191.3317,3491.9367 C4188.2677,3489.9897 4188.8027,3487.2607 4192.1607,3481.9787 C4201.4697,3467.5897 4211.7397,3454.4527 4219.9297,3441.7897 C4226.1067,3432.1887 4243.3597,3402.5397 4248.7077,3394.2367 C4251.8197,3389.4277 4254.6377,3386.9207 4257.2547,3388.6207 C4260.3207,3390.5897 4259.3807,3394.9307 4256.2937,3399.7197 C4253.4737,3404.1047 4249.8487,3413.5267 4249.1557,3422.3197 C4247.6327,3434.3147 4249.7377,3442.4837 4255.3547,3459.6907 C4263.5437,3485.3347 4326.7357,3612.5717 4340.4537,3632.5317 C4351.9537,3649.2017 4365.4947,3657.9307 4379.8837,3667.2157 L4415.6857,3690.2647 C4422.6667,3694.7847 4441.0177,3706.6007 4460.1937,3717.1177 C4473.4177,3724.3897 4485.5717,3726.6517 4495.7487,3714.6787 C4500.5627,3709.1277 4507.6127,3700.0657 4511.5497,3693.9797 C4514.6607,3689.1687 4517.3667,3687.8257 4519.5377,3689.2357 C4522.6027,3691.1827 4521.6627,3695.5457 4518.0157,3701.2087 L4518.0157,3701.2087 Z M4230.5147,4087.1907 C4206.4597,4111.6047 4182.4037,4133.8257 4172.1997,4144.1847 C4163.8307,4152.7117 4141.9907,4177.1477 4127.4207,4191.9387 C4122.6567,4196.7487 4119.0087,4198.2487 4116.4367,4195.6987 C4114.5787,4193.8627 4114.9387,4191.3337 4119.2777,4186.8597 C4124.7587,4181.3077 4128.4077,4176.1397 4130.9357,4172.0677 C4136.7337,4163.2287 4130.8027,4152.9797 4121.1357,4141.3447 C4107.4187,4124.1807 4078.1707,4095.4037 4044.1347,4061.8827 L3892.3957,3912.5377 L3839.5867,3969.1297 C3819.1997,3991.3257 3812.3077,4002.0237 3814.9707,4015.6077 C3816.8947,4024.7587 3819.5137,4030.9787 3821.7507,4034.6047 C3823.9657,4038.2747 3824.3687,4040.8467 3822.1757,4043.0857 C3819.6247,4045.6367 3817.0527,4044.5847 3813.0027,4040.5807 C3807.0487,4034.7387 3780.3087,3994.5717 3778.0707,3990.9017 C3774.3567,3985.0627 3773.2377,3981.7727 3775.3847,3979.5567 C3778.3167,3976.5797 3785.6567,3976.5357 3795.5257,3968.0347 C3807.1837,3958.3887 3821.7727,3945.0287 3833.8117,3932.8107 L3978.0317,3786.2637 C3989.7137,3774.4247 3996.6297,3765.1607 4001.3287,3758.8727 C4005.6677,3752.2487 4007.8617,3748.5577 4009.3177,3747.0797 C4011.8677,3744.4857 4014.4417,3746.3197 4019.9897,3751.7567 C4027.7547,3759.4337 4052.2137,3785.6587 4061.8357,3795.1467 C4065.1697,3799.1517 4066.6687,3802.0827 4064.4757,3804.2987 C4061.5447,3807.2527 4058.9707,3806.1787 4053.0867,3801.0767 L4048.6327,3797.4287 C4038.2727,3788.7247 4018.0877,3788.5237 3984.9257,3820.7237 L3937.9097,3866.2847 L4089.6717,4015.6287 C4123.7317,4049.1267 4152.9327,4077.9047 4170.6997,4091.7107 C4182.1337,4100.8187 4192.4737,4106.6147 4204.8697,4096.9467 C4210.7097,4092.4937 4219.4827,4085.1107 4224.9427,4079.5377 C4228.9267,4075.4647 4231.8787,4074.7037 4233.7367,4076.5167 C4236.3117,4079.0687 4234.5207,4083.1397 4230.5147,4087.1907 L4230.5147,4087.1907 Z M3920.1207,4370.1047 C3892.1487,4389.9097 3864.5347,4407.5657 3853.1027,4415.6427 C3843.3667,4422.5577 3817.5427,4442.7427 3800.6047,4454.7377 C3795.0997,4458.6297 3791.2277,4459.4567 3789.1477,4456.5047 C3787.6487,4454.3997 3788.4317,4451.9167 3793.5107,4448.3137 C3799.8657,4443.7947 3804.3417,4439.3627 3807.5647,4435.8057 C3814.8357,4428.1297 3812.3077,4419.0887 3804.8557,4405.9097 C3794.3617,4386.5977 3770.6417,4353.1197 3741.5517,4312.0357 L3688.6967,4237.4327 C3643.0907,4173.0067 3634.6557,4161.1257 3624.2277,4148.1467 C3613.1517,4134.3627 3603.8197,4130.1567 3593.0117,4134.6307 C3587.4397,4136.6667 3581.5997,4140.1357 3576.5417,4143.7607 C3572.3137,4146.7587 3569.1567,4147.6987 3566.7627,4144.3217 C3564.9497,4141.7687 3567.7467,4138.5247 3574.5047,4133.7127 C3590.6397,4122.3237 3618.2307,4104.6897 3630.5167,4095.9857 C3641.1007,4088.4667 3665.2227,4069.4677 3681.3337,4058.0787 C3686.8387,4054.1847 3690.8227,4052.6177 3692.6347,4055.1477 C3695.0297,4058.5717 3693.1047,4061.2107 3688.8527,4064.2097 C3684.6237,4067.2077 3681.5347,4070.0277 3677.0157,4074.5027 C3667.1027,4084.7297 3668.8037,4094.3057 3678.4697,4109.7467 C3687.2197,4123.9347 3695.6327,4135.7937 3741.2607,4200.1967 L3794.0707,4274.8017 C3823.2047,4315.9307 3846.9027,4349.3837 3861.5367,4366.4127 C3870.8927,4376.9537 3879.2817,4382.4797 3893.1797,4375.1847 C3899.7127,4371.8287 3909.6267,4366.0767 3915.9817,4361.5787 C3920.6577,4358.2677 3923.6787,4358.0447 3925.1787,4360.1477 C3927.2587,4363.1237 3924.7767,4366.7937 3920.1207,4370.1047 L3920.1207,4370.1047 Z M3621.5867,4566.5767 C3587.9097,4582.8457 3563.1377,4593.6987 3541.8797,4603.4097 C3520.3977,4612.6737 3503.3477,4620.3717 3484.2137,4629.6137 C3479.0437,4632.1437 3468.7727,4637.1317 3457.7857,4642.9957 C3447.0237,4648.2317 3435.3207,4655.0347 3426.0097,4659.5537 C3419.9247,4662.5087 3415.9617,4662.6867 3414.3737,4659.4187 C3413.2337,4657.0697 3414.4187,4654.7877 3420.0587,4652.0807 C3427.0617,4648.6577 3432.1867,4645.0317 3435.9467,4642.0337 C3444.4267,4635.6337 3441.7407,4624.2427 3437.0647,4609.7647 C3429.9057,4588.9977 3412.0247,4552.0987 3391.1917,4509.0907 L3351.3607,4426.8077 C3316.9467,4355.7837 3310.5887,4342.6707 3302.4207,4328.1697 C3293.7837,4312.7527 3286.4227,4307.0697 3269.4147,4311.2767 C3265.2307,4312.1707 3259.3917,4314.4097 3253.3257,4317.3407 C3248.1797,4319.8237 3244.9127,4320.2727 3243.3467,4316.9827 C3241.7577,4313.7137 3244.5557,4311.2077 3251.5797,4307.8077 C3273.5557,4297.1787 3303.6757,4284.3117 3316.2957,4278.1787 C3327.5297,4272.7657 3360.9607,4254.8407 3379.1747,4246.0247 C3385.7317,4242.8477 3389.4477,4242.1997 3391.0567,4245.4647 C3392.6237,4248.7317 3390.2517,4251.0147 3384.6357,4253.7217 C3379.5117,4256.2277 3372.2607,4260.3227 3367.0917,4263.9717 C3355.6337,4272.4297 3355.7247,4282.1627 3362.7277,4298.9927 C3369.0157,4314.3857 3375.3697,4327.4787 3409.7657,4398.5457 L3449.5967,4480.7827 C3478.5737,4540.5967 3494.1937,4572.8417 3508.1127,4576.4897 C3519.4347,4579.6907 3533.1747,4577.0717 3569.6277,4559.4167 C3594.3997,4547.4227 3612.3897,4538.1127 3617.9847,4519.8307 C3620.6467,4511.0597 3619.9077,4495.2157 3616.5297,4485.9077 C3614.9637,4481.4987 3614.5617,4478.2337 3618.2967,4476.4187 C3621.5647,4474.8527 3623.1537,4476.9347 3625.8837,4482.5497 C3628.3677,4487.6987 3642.1087,4524.3287 3644.8807,4539.6807 C3647.0737,4551.3157 3645.8667,4554.7847 3621.5867,4566.5767 L3621.5867,4566.5767 Z M3273.5557,4724.2687 C3255.4517,4728.9677 3218.7537,4738.5007 3178.2947,4747.9447 C3169.0987,4749.7787 3163.0797,4751.3667 3162.1387,4747.8327 C3161.3557,4744.8107 3163.1227,4743.2897 3168.0247,4741.4777 C3171.2907,4739.5517 3173.6197,4734.1377 3169.5457,4728.7217 L3102.4367,4635.6107 C3100.8037,4633.3507 3099.0137,4632.7467 3096.5057,4633.3957 L2984.4187,4662.5087 C2981.8907,4663.1577 2981.1527,4664.4097 2980.9067,4667.6777 L2971.6427,4743.6247 C2969.8737,4757.4757 2970.5007,4770.1867 2972.0447,4776.2297 C2974.3957,4785.2687 2980.6377,4790.6397 2996.2127,4786.6117 L3003.7547,4784.6207 C3009.7947,4783.0977 3011.5407,4783.6797 3012.3457,4786.7017 C3013.3747,4790.7297 3010.6227,4792.4967 3005.1177,4793.9517 C2989.0067,4798.1147 2967.0097,4802.2307 2951.3907,4806.2587 C2945.8857,4807.6907 2918.6317,4816.3737 2892.4947,4823.1767 C2885.9587,4824.8757 2882.6697,4824.6297 2881.6187,4820.6237 C2880.8357,4817.6257 2882.6037,4816.0827 2886.6307,4815.0307 C2891.1297,4813.8447 2898.0437,4811.5407 2901.9597,4809.9747 C2924.2927,4800.9777 2929.3707,4781.3747 2932.9287,4753.6287 L2978.2427,4409.2197 C2980.5037,4393.0867 2982.0697,4386.7777 2987.1047,4385.4337 C2991.6247,4384.2927 2995.8097,4388.0067 3003.8217,4398.2787 C3023.0647,4422.8037 3155.6957,4603.0287 3207.6987,4671.1017 C3238.5577,4711.3567 3254.9367,4714.6007 3266.1487,4714.4007 C3274.0907,4713.9757 3281.7677,4712.5207 3287.7877,4710.9327 C3291.8357,4709.8797 3294.4547,4709.7467 3295.3727,4713.2587 C3296.4027,4717.2867 3292.1507,4719.4577 3273.5557,4724.2687 L3273.5557,4724.2687 Z M2790.9467,4516.1847 C2786.8067,4516.4297 2785.6427,4513.9227 2784.6137,4506.1807 L2783.7637,4500.4977 C2781.9287,4487.0707 2767.0477,4473.3987 2720.8627,4475.1437 L2655.4527,4477.4927 L2668.2077,4690.0107 C2671.0277,4737.7177 2673.4897,4778.6887 2677.4267,4800.8217 C2679.8437,4815.2317 2683.6487,4826.4657 2699.3127,4827.6067 C2706.6287,4828.1887 2718.1317,4828.5677 2725.8727,4828.0757 C2731.6027,4827.7417 2734.2647,4829.1277 2734.4207,4831.7237 C2734.6217,4835.3487 2730.5957,4837.1827 2724.8897,4837.4967 C2690.6747,4839.5797 2657.9367,4839.9587 2643.4367,4840.8317 C2631.4877,4841.5467 2598.9277,4845.0607 2578.1847,4846.3137 C2571.4487,4846.7157 2567.7127,4845.3737 2567.5107,4841.7267 C2567.3547,4839.1547 2569.3457,4837.4737 2575.5437,4837.0717 C2583.3307,4836.6237 2589.4857,4835.2137 2594.0957,4833.8957 C2604.3217,4831.1867 2606.7607,4819.5947 2607.4087,4804.4917 C2608.7077,4782.5837 2606.2467,4741.5887 2603.3807,4693.9247 L2590.6497,4481.3877 L2513.5367,4488.0557 C2483.5397,4490.9207 2471.2437,4494.2527 2464.1507,4506.1377 C2459.4287,4514.2137 2457.2137,4520.5927 2456.4187,4524.7977 C2455.6357,4529.0057 2454.2037,4531.1767 2451.0927,4531.3777 C2447.4687,4531.5787 2446.2817,4529.0507 2445.9237,4523.3447 C2445.4437,4515.0417 2452.4477,4467.2897 2453.2527,4463.0827 C2454.3947,4456.2357 2455.7707,4453.0577 2458.8807,4452.8327 C2463.0207,4452.6107 2468.5137,4457.4877 2481.5487,4457.7357 C2496.6647,4458.3837 2516.4237,4458.2487 2533.5207,4457.2197 L2738.8067,4444.9117 C2755.4117,4443.9297 2766.7107,4441.6917 2774.4327,4440.1907 C2782.1307,4438.1537 2786.2017,4436.8797 2788.2607,4436.7667 C2791.8867,4436.5437 2792.6037,4439.6087 2793.0727,4447.3967 C2793.7437,4458.2937 2794.3027,4494.1417 2795.1307,4507.6357 C2794.9067,4512.8267 2794.0577,4515.9817 2790.9467,4516.1847 L2790.9467,4516.1847 Z M2338.5357,4458.0927 C2333.3777,4457.5107 2329.1937,4457.5557 2322.8717,4457.8467 C2308.6407,4458.8077 2303.4927,4467.1337 2300.3827,4485.0577 C2297.4407,4501.4377 2295.7627,4515.8697 2286.6657,4594.3017 L2276.1377,4685.0867 C2270.3307,4735.1217 2265.6097,4775.8937 2265.0947,4798.3137 C2265.0277,4812.4117 2267.5677,4822.1477 2282.7947,4825.9737 C2289.8997,4827.8527 2301.1217,4830.2017 2308.8647,4831.0987 C2314.5367,4831.7467 2316.9427,4833.6047 2316.6407,4836.1767 C2316.2147,4839.8027 2311.9187,4840.8537 2306.2467,4840.2047 C2272.1887,4836.2427 2239.8647,4830.9407 2225.9347,4829.3287 C2214.0737,4827.9427 2181.3927,4825.7277 2160.7607,4823.3327 C2154.0597,4822.5497 2150.6357,4820.5807 2151.0487,4816.9777 C2151.3397,4814.4037 2153.5767,4813.0837 2159.7767,4813.7997 C2167.5077,4814.7177 2173.8287,4814.4037 2178.5847,4813.8897 C2189.1467,4813.0177 2193.2637,4804.6257 2196.5417,4789.8567 C2201.6217,4768.4857 2206.3547,4727.7147 2212.1607,4677.6807 L2222.6897,4586.8957 C2231.7967,4508.4637 2233.4527,4494.0307 2234.3377,4477.3817 C2235.3557,4459.7267 2231.1937,4450.3717 2220.1617,4446.4777 C2214.6667,4444.2627 2208.0107,4442.9667 2201.8337,4442.2717 C2196.6757,4441.6467 2193.6897,4440.2567 2194.1587,4436.1397 C2194.5167,4433.0537 2198.7797,4432.4927 2207.0377,4433.4107 C2226.6277,4435.7157 2258.9517,4441.0197 2273.9107,4442.7657 C2286.8117,4444.2417 2317.4347,4446.2537 2337.0367,4448.5147 C2343.7387,4449.2767 2347.7447,4450.7977 2347.3867,4453.9097 C2346.9167,4458.0267 2343.6947,4458.6967 2338.5357,4458.0927 L2338.5357,4458.0927 Z M2059.3587,4503.4057 C2038.4357,4574.1177 1971.9197,4608.6007 1901.1977,4587.7007 C1898.6907,4586.9617 1893.2197,4585.3517 1890.8807,4584.0997 C1888.5427,4582.8457 1885.1977,4581.3447 1886.2267,4577.8547 C1887.4127,4573.8717 1891.3287,4573.4237 1901.7897,4576.4677 C1929.6837,4584.7477 1977.8167,4564.8547 1992.8437,4514.0807 C1997.6977,4497.6117 2006.0787,4463.8217 1985.5587,4430.6587 C1972.4897,4408.9287 1952.9547,4399.8897 1941.4977,4396.5107 C1934.0247,4394.2957 1926.4057,4392.5717 1921.4827,4392.7507 C1918.7067,4393.0187 1916.3237,4395.5477 1914.7007,4401.0537 L1855.7607,4600.2317 C1842.1987,4646.0607 1830.5747,4685.4227 1826.7257,4707.5517 C1824.0967,4721.9637 1823.8387,4733.8017 1838.1947,4740.2237 C1844.8737,4743.2447 1855.5357,4747.5187 1863.0107,4749.6907 C1868.4707,4751.3447 1870.5297,4753.5607 1869.8017,4756.0447 C1868.7617,4759.5347 1864.3427,4759.8487 1858.8597,4758.2377 C1825.9767,4748.5267 1795.0627,4737.7397 1782.1167,4733.9127 C1770.6487,4730.5117 1738.8277,4722.7467 1718.9127,4716.8387 C1712.4347,4714.9147 1709.3917,4712.4097 1710.4207,4708.9187 C1711.1477,4706.4107 1713.5977,4705.5167 1719.5727,4707.2847 C1727.0347,4709.5007 1733.3127,4710.2607 1738.0897,4710.5757 C1748.6407,4711.5597 1754.3687,4701.3547 1760.6237,4687.4817 C1769.3057,4667.2957 1780.9527,4627.9577 1794.5137,4582.1277 L1820.4487,4494.4557 C1842.8377,4418.7757 1846.9547,4404.8127 1850.6807,4388.5887 C1854.6977,4371.3367 1853.0747,4362.2287 1837.6677,4353.8817 C1833.9767,4351.7117 1825.6517,4348.6907 1818.6817,4346.6087 C1813.1987,4344.9987 1810.5017,4343.1417 1811.5427,4339.6517 C1812.5727,4336.1597 1816.3547,4336.2037 1823.8167,4338.4207 C1850.2117,4346.2297 1881.1577,4356.9937 1895.0877,4361.1317 C1915.5187,4367.1727 1944.8437,4374.2217 1967.7467,4380.9577 C2030.0117,4399.3977 2046.2457,4426.9447 2051.9967,4436.7877 C2059.8507,4450.4837 2067.1797,4477.0007 2059.3587,4503.4057 L2059.3587,4503.4057 Z M1693.4477,4292.0767 C1690.3597,4298.0497 1681.6107,4310.4917 1663.0257,4346.4757 C1657.8007,4356.6567 1654.5117,4359.6337 1650.8187,4357.7327 C1647.5847,4356.0527 1647.6297,4352.5847 1650.4937,4347.0577 C1652.6207,4342.8507 1657.6997,4327.3887 1654.1977,4310.3817 C1651.8037,4298.0497 1645.5487,4277.2847 1615.5527,4261.8227 C1581.4057,4244.2127 1550.4017,4253.3407 1536.1137,4281.0437 C1525.1487,4302.2567 1527.4527,4323.8957 1550.7597,4372.7237 L1558.6817,4389.0807 C1592.8727,4459.8817 1596.2967,4501.9737 1573.6737,4545.8327 C1559.8777,4572.5967 1533.2937,4599.2017 1488.8747,4603.7447 C1458.1857,4606.6107 1430.1917,4597.4347 1405.7327,4584.8377 C1378.9587,4571.0307 1359.8487,4557.0897 1344.5317,4538.0907 C1338.8147,4531.0417 1338.6237,4528.0217 1343.8607,4517.8617 C1356.9397,4492.4857 1373.0737,4465.7237 1377.3477,4458.5837 C1381.3757,4451.8937 1385.3697,4447.5307 1389.0847,4449.4557 C1393.2247,4451.5807 1391.5457,4455.9677 1389.6437,4459.6597 C1386.5447,4465.6787 1383.3897,4476.3077 1381.6557,4485.3697 C1374.1927,4524.7317 1395.0027,4551.2487 1423.6237,4565.9947 C1465.1567,4587.4097 1499.9857,4569.7317 1512.6067,4545.2957 C1524.2647,4522.6727 1528.2927,4497.8787 1505.4567,4448.1127 L1492.7907,4420.5437 C1462.4817,4354.6647 1461.6197,4313.3117 1480.8977,4275.9427 C1507.0787,4225.1457 1568.3477,4210.6007 1632.5027,4243.6757 C1662.4997,4259.1597 1679.5177,4273.7487 1689.8447,4283.1927 C1693.5257,4286.2357 1695.1157,4288.8087 1693.4477,4292.0767 L1693.4477,4292.0767 Z M1289.9877,4279.2767 C1213.6697,4370.5087 1089.6217,4389.3267 988.4207,4304.6977 C874.0847,4209.0577 899.5057,4084.7747 958.4907,4014.2427 C1015.4757,3946.1027 1134.1297,3895.7317 1253.6467,3995.6687 C1352.8327,4078.6647 1366.2817,4188.0667 1289.9877,4279.2767 L1289.9877,4279.2767 Z M793.9417,3893.0907 C754.7707,3920.4587 721.1377,3943.9557 704.3217,3958.8807 C693.2997,3968.4817 685.7037,3977.5877 692.9197,3991.5297 C696.2427,3998.1087 701.9267,4008.0647 706.3907,4014.4437 C709.6577,4019.1197 709.8697,4022.1617 707.7557,4023.6397 C704.7577,4025.7217 701.1097,4023.1927 697.5397,4018.1347 C678.2067,3990.4537 660.7517,3962.7297 652.4277,3950.8017 C645.5917,3941.0247 625.5747,3915.0887 613.9847,3898.4617 C609.8107,3892.5087 609.0057,3888.6377 611.9917,3886.5577 C614.1177,3885.0577 616.5797,3885.8647 620.1487,3890.9877 C624.6137,3897.3877 629.0217,3901.8637 632.5457,3905.1077 C640.2217,3912.4487 651.0627,3908.0387 664.5897,3901.1037 C683.9687,3890.7417 717.5907,3867.2447 756.7617,3839.8777 L794.2327,3813.7197 C795.9447,3812.5347 795.8997,3810.6557 794.9927,3809.3777 L681.3957,3646.7417 C680.4997,3645.4667 679.1917,3644.4807 677.0537,3645.9807 L639.5947,3672.1407 C600.4247,3699.5287 566.8017,3722.9807 549.9747,3737.9287 C538.9427,3747.5057 531.3667,3756.6357 538.5847,3770.5767 C541.8967,3777.1327 547.5797,3787.0917 552.0557,3793.4907 C555.3227,3798.1907 555.5237,3801.1887 553.3977,3802.6887 C550.4217,3804.7457 546.7637,3802.2417 543.1937,3797.1397 C523.8707,3769.4797 506.4067,3741.7767 498.0817,3729.8277 C491.2347,3720.0717 471.2287,3694.1137 459.3237,3677.0617 C455.4647,3671.5337 454.6697,3667.6867 457.6347,3665.5817 C459.7717,3664.1057 462.2447,3664.9107 465.8147,3670.0147 C470.2667,3676.4127 474.6867,3680.9107 478.2107,3684.1337 C485.8527,3691.4727 496.7167,3687.0657 510.2437,3680.1277 C529.6227,3669.7667 563.2547,3646.3167 602.4147,3618.9257 L677.3567,3566.5857 C742.0607,3521.3617 753.9877,3513.0597 767.0107,3502.6997 C780.8957,3491.7347 785.3267,3483.5677 778.5007,3467.4327 C776.9677,3463.4507 772.3247,3455.9087 768.1737,3449.9347 C764.8957,3445.2577 763.9557,3442.1027 766.9537,3440.0207 C769.9307,3437.9397 772.8627,3440.3337 777.0247,3446.2867 C793.0797,3469.2897 810.5457,3497.0157 818.5677,3508.4937 C825.7057,3518.7217 845.7227,3544.6577 857.3137,3561.2617 C861.4867,3567.1907 862.7057,3570.7707 859.7307,3572.8527 C856.7537,3574.9557 854.1137,3572.9637 850.5437,3567.8837 C848.1607,3564.4817 845.0627,3560.9257 840.6427,3556.4267 C830.4937,3546.4247 820.8717,3548.0577 805.3647,3557.6147 C791.1667,3566.2737 779.2397,3574.5967 714.5357,3619.7987 L705.5847,3626.0417 C703.4587,3627.5417 703.4927,3629.3997 704.3877,3630.6747 L817.9857,3793.3337 C818.8807,3794.6097 820.6377,3795.2807 822.7637,3793.7817 L831.7027,3787.5387 C896.3957,3742.3587 908.3227,3734.0117 921.3457,3723.6517 C935.2317,3712.6647 939.6727,3704.5187 932.8367,3688.4077 C931.3037,3684.3797 926.6717,3676.8387 922.5087,3670.9087 C919.2417,3666.2087 918.3237,3663.0537 921.2897,3660.9737 C924.2777,3658.9147 927.2087,3661.2857 931.3597,3667.2607 C947.4267,3690.2427 964.8917,3717.9677 972.9247,3729.4477 C980.0637,3739.6727 1000.0687,3765.6087 1011.6597,3782.1907 C1015.8227,3788.1657 1017.0527,3791.7447 1014.0757,3793.8037 C1011.0897,3795.8857 1008.4717,3793.9377 1004.9027,3788.8137 C1002.5187,3785.4347 999.4077,3781.8767 994.9997,3777.3787 C984.8297,3767.3757 975.2187,3769.0107 959.7227,3778.5657 C945.5017,3787.2477 933.5747,3795.5717 868.8707,3840.7957 L793.9417,3893.0907 Z M397.6417,3261.1607 C397.6417,3228.0417 424.4837,3201.2357 457.6127,3201.2357 C490.7417,3201.2357 517.5837,3228.0417 517.5837,3261.1607 C517.5837,3294.3007 490.7417,3321.1987 457.6127,3321.1987 C424.4837,3321.1987 397.6417,3294.3007 397.6417,3261.1607 L397.6417,3261.1607 Z M193.1037,3005.0987 C192.2857,2999.4377 198.2827,2993.8197 206.2387,2983.7277 C212.0237,2976.5907 282.7807,2886.3867 346.2757,2800.4367 C376.0807,2760.3817 439.8787,2680.1387 446.8267,2670.1797 L446.4577,2667.6277 L216.4877,2706.6327 C185.2157,2711.7337 176.1297,2717.7977 172.8077,2730.8877 C170.8607,2739.0567 172.6727,2751.3857 173.7127,2758.5697 C174.6427,2764.7457 173.3777,2767.0277 170.3007,2767.4967 C166.1947,2768.0787 164.8527,2762.5067 163.7107,2754.7867 C159.7957,2728.0687 157.7137,2703.1627 156.1367,2692.3777 C155.3087,2686.7397 150.9007,2667.4267 147.1967,2642.2527 C146.2237,2635.5847 145.9657,2630.3697 150.0947,2629.7667 C153.1827,2629.3417 155.1737,2632.1607 156.0697,2638.3367 C156.8297,2643.5057 157.4227,2647.6007 159.8627,2653.5077 C166.0947,2667.3147 177.4947,2669.8427 206.3397,2666.1297 L531.4117,2624.1727 C542.7237,2622.5387 547.6477,2623.9037 548.3187,2628.5127 C549.1467,2634.1747 544.4027,2641.1777 539.5797,2647.6667 C513.5107,2684.5457 455.8337,2760.1807 410.7657,2821.4277 C363.4837,2885.5807 309.1737,2951.8407 300.7717,2962.5157 L300.9947,2964.0367 L514.4397,2926.9347 C554.3607,2920.0417 566.7457,2911.3827 568.8387,2900.5757 C570.6287,2891.3997 569.7227,2881.5537 568.5137,2873.3197 C567.6857,2867.6807 568.2567,2864.4577 571.3447,2863.9877 C575.4617,2863.3837 577.1627,2867.8597 578.2257,2875.0417 C583.1147,2908.4287 584.5917,2929.2177 586.0247,2938.9737 C586.7057,2943.6067 591.7857,2967.5267 595.7137,2994.2687 C596.6977,3000.9137 596.8547,3005.6357 592.2437,3006.3287 C589.1567,3006.7767 587.6687,3003.8467 586.9077,2998.7207 C585.9347,2992.0317 584.0667,2982.8557 580.9447,2975.9427 C574.8797,2963.2087 559.6867,2963.3417 514.8987,2969.4067 L211.5747,3009.1937 C201.2927,3010.6927 193.8537,3010.2007 193.1037,3005.0987 L193.1037,3005.0987 Z M210.7817,2325.1907 C219.3517,2210.2047 288.3967,2143.5097 389.3847,2151.0517 C490.3837,2158.5807 564.1397,2238.0417 555.3667,2355.6007 C545.4647,2488.1967 447.1847,2535.0437 368.9767,2529.1807 C293.8787,2523.5867 200.4537,2463.4817 210.7817,2325.1907 L210.7817,2325.1907 Z M251.0937,2046.5167 C257.2017,2023.4227 265.6727,1995.5747 268.0667,1986.5347 C272.0727,1971.4857 281.7057,1931.0607 285.2967,1917.5117 C292.7487,1889.3957 303.7917,1857.9327 325.5987,1838.4647 C337.4577,1828.1937 363.9757,1815.3257 392.5837,1822.9247 C424.2147,1831.3037 447.5317,1856.8357 470.7137,1909.1757 C529.2877,1882.7937 576.1777,1861.9387 609.8447,1842.3807 C640.9597,1824.2997 647.1027,1809.2737 650.4697,1802.6497 C652.6737,1798.3987 653.3457,1795.8807 654.2747,1792.3677 C655.2027,1788.8547 658.2457,1787.5117 660.2607,1788.0487 C663.7737,1788.9657 663.9747,1792.2437 662.5087,1797.7717 L651.3317,1839.9417 C644.8087,1864.5347 639.1027,1875.9237 630.0287,1885.8707 C615.4277,1902.4177 590.9577,1913.6627 551.2947,1929.4727 C523.5587,1940.9187 490.0257,1951.8947 482.0147,1955.6987 C478.8367,1957.5447 477.6847,1959.9057 476.8787,1962.9257 L465.3547,2002.3217 C464.8397,2004.3247 465.4457,2006.1027 467.9397,2006.7637 L473.9707,2008.3637 C513.6227,2018.8797 546.8977,2027.1597 565.4817,2029.9467 C578.4487,2031.7697 587.0197,2031.8927 592.6147,2018.8587 C595.3447,2012.6037 598.3647,2003.1947 599.8417,1997.6667 C600.7597,1994.1647 603.8137,1992.8227 605.8167,1993.3597 C608.8367,1994.1537 609.4077,1998.0587 607.9307,2003.5857 C601.1617,2029.1857 589.9287,2065.4367 588.2047,2071.9487 C585.9347,2080.4957 580.0047,2109.0047 575.3387,2126.5707 C573.8727,2132.0977 571.5687,2134.7037 568.5477,2133.9097 C566.5437,2133.3727 564.4417,2131.2137 565.9067,2125.6987 C567.6407,2119.1527 568.4577,2114.0057 568.5137,2109.7317 C568.9057,2100.1437 561.5427,2095.5227 549.3927,2090.6887 C531.8487,2083.8747 498.2157,2074.9687 459.0677,2064.5867 L383.7677,2044.6247 C319.0087,2027.4397 306.9577,2024.2507 293.2747,2021.1747 C278.4497,2018.2977 272.8667,2021.1407 265.1237,2034.1187 C263.1997,2037.3647 260.6827,2044.7707 258.9587,2051.2947 C257.7737,2055.8137 255.4567,2058.4327 252.4477,2057.6157 C249.4377,2056.8217 249.3707,2053.0507 251.0937,2046.5167 L251.0937,2046.5167 Z M342.7947,1699.9607 C344.2607,1696.6377 349.4867,1693.8527 355.5507,1684.0397 C362.4537,1672.3137 369.8827,1656.8847 375.9807,1643.1127 L451.2357,1473.6497 C457.1307,1460.3797 460.1857,1450.9257 461.9877,1444.3467 C463.9797,1437.2757 464.5047,1433.5277 465.1427,1432.1067 C466.4067,1429.2647 469.0027,1429.8457 475.1567,1432.5757 C483.7037,1436.3687 513.1867,1450.5897 523.6367,1455.2337 C527.6867,1457.6057 529.6347,1459.6077 528.5927,1461.9917 C527.1157,1465.3147 524.7887,1465.4257 518.4107,1463.1437 L513.9247,1461.7227 C503.0607,1458.0307 485.8747,1463.4907 468.7567,1500.7707 L444.4097,1553.0217 L607.6857,1625.5337 C644.7077,1641.9597 676.7077,1655.6097 695.1237,1661.5057 C707.1407,1665.1427 715.7887,1666.1487 723.1617,1654.6587 C726.6427,1649.3767 731.3417,1640.0797 734.0817,1633.9257 C736.1977,1629.1707 739.4077,1628.3427 741.3107,1629.1707 C744.1527,1630.4467 744.0967,1634.3957 741.9927,1639.1517 C729.7637,1666.6757 715.9017,1694.0537 710.6427,1705.9127 C706.4237,1715.4117 695.2137,1744.5137 687.8177,1761.1287 C685.5127,1766.3547 682.8267,1768.5697 679.9747,1767.2937 C678.0727,1766.4557 676.3377,1763.9707 678.6427,1758.7457 C681.3837,1752.5917 683.2407,1747.1547 683.7567,1743.4067 C685.6587,1734.0197 679.1237,1728.2677 667.8797,1721.5887 C651.6337,1712.1007 619.8357,1697.9807 582.8127,1681.5447 L419.5377,1609.0317 L393.3457,1671.8327 C383.0637,1696.2567 381.4857,1707.4917 387.7737,1717.6727 C391.5777,1724.4757 395.9637,1728.6817 398.3797,1730.9087 C401.2787,1733.3257 402.7547,1735.1157 401.5027,1737.9697 C400.2267,1740.8107 397.4177,1740.7097 393.1657,1738.8197 C386.5087,1735.8547 351.1757,1710.5117 348.2887,1708.0957 C343.4897,1704.8177 341.7327,1702.3327 342.7947,1699.9607 L342.7947,1699.9607 Z M513.3097,1346.0997 C527.2617,1326.0727 545.3307,1301.9387 552.4577,1291.7117 C558.6787,1282.7627 575.9317,1256.1657 586.3157,1241.2517 C589.8837,1236.1497 592.5247,1234.1807 595.0747,1235.9597 C597.6267,1237.7487 597.4247,1240.7707 594.1697,1245.4477 C592.0767,1248.4347 590.1417,1252.1497 588.0157,1256.9937 C582.6007,1268.4187 585.6437,1274.9517 597.8387,1284.7197 C608.7367,1293.5917 621.9617,1302.7777 676.9317,1341.0647 L684.6067,1346.4027 C686.7427,1347.8897 688.0637,1346.9057 688.9477,1345.6407 L787.4747,1204.1277 C788.0787,1203.2887 788.5367,1201.7107 786.4107,1200.2227 L778.7367,1194.8857 C723.7557,1156.5877 710.2397,1147.8157 698.4357,1140.2297 C685.4907,1132.4877 679.2817,1133.2027 667.5547,1142.7577 C664.6237,1145.1747 659.7567,1151.2617 656.1977,1156.3747 C653.2117,1160.6377 650.4477,1161.8797 647.8967,1160.0897 C645.3577,1158.3217 646.2747,1155.1677 650.1347,1149.6057 C664.0757,1129.5777 683.3307,1103.7327 690.1567,1093.9427 C696.3887,1084.9917 712.7457,1059.6597 722.8377,1045.2047 C726.6867,1039.6667 729.3387,1037.6977 731.8777,1039.4767 C734.4507,1041.2567 733.9477,1044.7127 730.9837,1048.9647 C728.9027,1051.9517 726.9547,1055.6557 724.5377,1060.9367 C719.4137,1071.9227 722.4577,1078.4807 734.6417,1088.2367 C745.5617,1097.1097 755.7997,1104.2247 810.7697,1142.5007 L874.6997,1187.0207 C907.9527,1210.1587 936.4947,1230.0627 953.4677,1239.3387 C964.5777,1245.1677 972.8917,1247.7967 982.5917,1237.4697 C987.0117,1232.9387 993.0867,1225.1517 997.2267,1219.1877 C999.9117,1215.3387 1003.5267,1214.7117 1005.2267,1215.8867 C1007.7777,1217.6657 1006.9837,1221.5487 1003.7277,1226.2147 C986.7987,1250.5047 968.3037,1274.3357 961.1987,1284.5507 C955.2587,1293.0877 938.1397,1320.4107 928.0367,1334.9107 C924.4787,1340.0247 921.1217,1342.1167 918.5597,1340.3377 C916.8597,1339.1637 915.9197,1335.9747 918.8847,1331.7007 C923.0467,1325.7367 925.5857,1321.1827 927.1087,1317.1657 C930.7437,1308.3167 925.4067,1301.4347 915.6397,1292.7307 C901.4747,1280.3447 873.7827,1261.0557 840.5417,1237.9067 L812.8277,1218.6177 C811.5517,1217.7217 809.7957,1218.4157 809.2137,1219.2657 L710.6757,1360.7677 C709.8027,1362.0327 709.3447,1363.6097 711.0447,1364.8067 L738.7377,1384.1077 C771.9787,1407.2447 799.9937,1426.1097 816.9347,1435.3957 C828.0557,1441.2367 836.3577,1443.8437 845.7887,1433.9517 C850.1977,1429.4327 856.5637,1421.2087 860.4237,1415.6697 C863.3887,1411.4077 866.7117,1411.1837 868.4017,1412.3687 C870.9637,1414.1597 870.1587,1418.0197 866.9027,1422.7077 C849.9857,1446.9877 830.6067,1472.0947 823.1887,1482.7567 C817.2587,1491.2937 801.3147,1516.9047 790.9317,1531.8197 C787.6647,1536.5187 784.5987,1538.1857 782.0597,1536.3957 C780.3357,1535.1987 779.1057,1532.4347 782.3617,1527.7687 C786.2207,1522.2187 788.7727,1517.6547 790.2827,1513.6597 C793.9297,1504.7987 788.5817,1497.9177 778.8367,1489.2247 C764.6717,1476.8267 736.1077,1456.9457 702.8657,1433.8067 L638.9347,1389.2877 C583.9537,1350.9997 573.7277,1343.8727 561.9237,1336.2987 C548.9677,1328.5227 542.7577,1329.2717 531.0427,1338.8267 C528.1007,1341.2217 523.2347,1347.3197 519.3627,1352.8577 C516.7107,1356.6957 513.6337,1358.3627 511.0937,1356.5827 C508.5207,1354.7927 509.7507,1351.2237 513.3097,1346.0997 L513.3097,1346.0997 Z M786.4107,961.8497 C803.7767,946.2317 823.4017,929.9857 826.4787,927.2117 C829.5767,924.4247 845.4877,908.7157 865.1797,891.0267 C870.1807,886.5057 873.2007,885.1977 875.2817,887.5137 C877.3857,889.8407 875.7187,893.4327 872.2397,896.5427 C869.5317,898.9817 866.8017,902.1477 865.1347,905.7397 C863.0867,909.6777 864.4297,911.9387 867.5627,915.4177 C871.3887,919.6697 884.2007,927.7017 901.9897,938.9357 C927.2317,955.3607 1047.3847,1026.8117 1065.9357,1037.3507 L1067.0997,1036.2987 L980.8797,809.9877 C976.0247,797.6017 977.0757,791.7727 980.1637,788.9977 C984.0247,785.5187 991.6207,787.7667 1005.2487,794.3577 L1219.0847,895.4117 L1220.2377,894.3607 C1209.7767,869.5437 1157.8617,759.7737 1135.4397,710.7787 C1130.8187,700.9767 1126.0637,693.3687 1121.9017,688.7477 C1117.0337,683.3327 1110.4657,682.2467 1096.9617,694.4087 C1093.8737,697.1957 1089.7787,698.0687 1088.0447,696.1327 C1085.9517,693.8277 1087.9777,690.6167 1093.3697,685.7387 C1111.1377,669.7607 1127.2827,656.6487 1130.3487,653.8627 C1132.6757,651.7817 1146.6507,637.8067 1157.8617,627.7587 C1161.7097,624.2907 1164.7307,622.9817 1166.4657,624.9067 C1168.5467,627.2217 1168.3897,630.1537 1165.2907,632.9287 C1161.8227,636.0607 1157.5477,640.6147 1154.7187,645.2357 C1149.3797,655.6297 1156.6417,671.4507 1166.7107,696.6137 C1188.0477,752.1767 1247.0687,887.6927 1274.5697,951.6577 C1281.1377,966.7177 1282.6707,972.3117 1277.6567,976.8427 C1273.0257,980.9937 1267.2297,979.2267 1251.4427,971.7747 L1036.4537,871.7597 L1035.6817,872.4647 C1042.3957,891.5747 1101.7167,1049.1767 1114.9197,1091.7937 C1120.8937,1110.8487 1122.4267,1116.4537 1117.4147,1120.9747 C1113.1737,1124.7887 1108.1057,1123.0557 1097.3867,1117.3267 L838.0017,973.4307 C823.0087,965.2847 813.3437,959.9927 805.5557,961.4257 C799.9937,962.2197 793.0797,967.7577 789.9917,970.5217 C786.5117,973.6547 783.5467,974.2247 781.4547,971.9087 C779.3737,969.6037 781.3877,966.4037 786.4107,961.8497 L786.4107,961.8497 Z M1231.1567,590.7697 C1251.6777,578.5067 1277.1537,564.4647 1288.3087,557.7977 C1300.7837,550.3337 1387.9537,498.7997 1395.2607,493.8207 C1402.1187,489.1107 1407.5677,484.0307 1410.4217,481.7147 C1412.3787,479.9467 1413.8227,477.2727 1415.6017,476.2207 C1417.8277,474.8677 1419.3387,476.3887 1420.3897,478.1787 C1422.0127,480.8527 1422.4377,486.6487 1431.9477,504.5507 C1433.8947,508.8357 1442.8677,525.8657 1444.6467,530.8437 C1445.2627,532.8907 1447.0407,537.8927 1443.9307,539.7607 C1441.2457,541.3617 1439.7357,539.8387 1437.8557,536.7177 C1436.2667,534.0437 1431.8247,527.6207 1426.9357,524.4887 C1419.8087,519.6777 1413.4867,516.1987 1392.8217,526.1447 C1385.6047,529.2557 1338.2777,556.3537 1330.2427,561.1537 C1328.4527,562.2167 1328.3747,564.0957 1329.7067,566.3117 L1385.6947,659.9147 C1387.0147,662.1417 1388.5257,663.6527 1390.7747,662.3207 C1399.6797,656.9957 1450.4767,626.5957 1458.8667,620.3637 C1467.6957,613.8847 1472.2487,609.3547 1474.1287,603.3907 C1475.6397,598.8367 1475.6397,595.8157 1477.4177,594.7527 C1479.2077,593.6787 1481.6147,594.6627 1482.9457,596.8897 C1484.2657,599.1167 1487.1077,605.8847 1496.3497,626.3947 C1499.9967,634.4947 1508.1647,650.1927 1509.7647,652.8667 C1511.6327,655.9767 1514.3857,661.5937 1510.8167,663.7307 C1508.1417,665.3297 1506.4527,664.5357 1505.3787,662.7357 C1502.5477,658.9977 1499.6157,654.0857 1495.7907,649.7217 C1489.0207,643.4787 1480.6517,640.6257 1465.1567,648.0777 C1457.4807,651.4567 1412.3907,677.2237 1402.5777,683.0867 C1400.7987,684.1497 1401.4257,686.2077 1402.7457,688.4347 L1420.8937,718.7337 C1428.6137,731.6667 1447.3547,764.0137 1454.4707,774.8887 C1470.8177,800.2087 1486.3137,798.8107 1526.4237,774.8107 C1536.6847,768.6787 1552.9077,758.3747 1560.4827,747.7797 C1567.6317,737.4517 1567.2857,726.7677 1560.6387,709.5807 C1559.1287,705.0387 1558.9487,702.7227 1561.6237,701.1217 C1564.7447,699.2537 1568.1237,703.8977 1570.5187,707.9037 C1575.5867,716.3727 1587.9277,744.0757 1590.2327,752.9817 C1593.4217,764.3947 1589.8527,766.5197 1575.1617,775.3257 C1545.7357,792.9247 1521.8597,806.6087 1502.1457,817.1817 C1482.7107,828.2017 1467.7517,836.5377 1456.1597,843.4637 C1451.6957,846.1377 1443.5057,851.6547 1434.1407,857.2597 C1425.0557,863.3007 1415.5007,869.6007 1407.4897,874.4107 C1402.5887,877.3317 1399.1097,877.6007 1397.5097,874.9147 C1396.4467,873.1467 1396.4467,870.1037 1401.3687,867.1837 C1407.1427,863.7147 1411.3387,860.6047 1414.3707,857.5837 C1421.3297,851.0047 1419.2937,842.5457 1413.9677,830.5967 C1406.1477,813.4787 1388.2897,783.6267 1367.4787,748.8647 L1327.5137,682.0127 C1293.1097,624.5257 1286.7207,613.8187 1279.0667,602.0477 C1270.4517,589.6617 1264.4777,587.7827 1249.8647,591.6757 C1246.2177,592.6597 1239.2697,596.2187 1233.4737,599.6757 C1229.4567,602.0707 1225.9777,602.3387 1224.3887,599.6647 C1222.7877,596.9907 1225.3737,594.2387 1231.1567,590.7697 L1231.1567,590.7697 Z M1636.6197,372.0667 C1663.9207,360.6197 1687.0807,355.4177 1699.3107,353.6717 C1703.5287,353.0117 1706.0567,353.6507 1707.2537,356.5147 C1709.4697,361.7837 1712.8487,373.8907 1726.3087,405.9797 C1729.9227,414.6057 1729.8107,419.7077 1726.4647,421.1177 C1723.6007,422.3147 1721.1507,420.5127 1719.1367,415.7357 C1717.5257,411.9087 1710.3877,400.2617 1696.8597,393.5477 C1687.4397,388.4917 1669.2127,382.6177 1641.9017,394.0747 C1611.7267,406.7287 1591.0727,433.9727 1602.7077,461.7537 C1610.3607,479.9467 1623.0837,491.5157 1669.7497,496.7187 L1691.0087,499.0567 C1759.4267,506.4187 1789.7137,530.3067 1805.1877,567.1837 C1817.8417,597.3597 1816.5887,626.5957 1794.9727,661.0117 C1780.8867,683.8027 1754.1227,697.8557 1731.6007,707.2867 C1707.1647,717.5357 1680.3127,725.9837 1658.6967,725.4807 C1650.7847,725.4237 1648.5477,724.1157 1644.7327,715.0197 C1635.4907,692.9777 1626.7637,666.7957 1624.4247,659.9047 C1621.8297,653.6607 1621.9297,648.5477 1625.2757,647.1377 C1629.1137,645.5487 1631.1947,649.1737 1632.4037,652.0377 C1634.6077,657.2977 1639.6527,665.3297 1645.0687,671.4957 C1666.8187,697.8677 1702.6557,694.6557 1728.9927,683.6127 C1765.3897,668.3397 1777.7757,636.1177 1765.7257,607.3847 C1758.2967,589.6617 1746.5597,573.7627 1699.9477,567.3857 L1669.5147,563.2687 C1607.4417,554.9327 1579.7157,534.4687 1564.6557,498.5647 C1543.7547,448.7427 1578.1937,396.5697 1636.6197,372.0667 L1636.6197,372.0667 Z M1797.8367,309.0077 C1801.3507,308.1127 1806.7767,310.4847 1818.2447,309.2197 C1831.7277,307.4187 1848.4647,303.7267 1863.0667,300.0337 L2042.8327,254.6647 C2056.9307,251.1067 2066.2397,247.6717 2072.5387,245.0207 C2079.3197,242.2347 2082.5977,240.3437 2084.1077,239.9407 C2087.1397,239.1797 2088.2707,241.5747 2089.9257,248.1187 C2092.2197,257.1817 2099.2127,289.1587 2102.0097,300.2577 C2102.6587,304.8907 2102.2787,307.6757 2099.7727,308.3147 C2096.2367,309.1987 2094.7267,307.4517 2092.5557,301.0307 L2090.9107,296.5997 C2087.1167,285.7807 2072.2257,275.6317 2032.3267,285.1637 L1976.1837,298.2667 L2019.9077,471.4887 C2029.8217,510.7597 2038.8387,544.3707 2045.5517,562.4957 C2050.1287,574.1887 2054.6707,581.6177 2068.2657,580.3297 C2074.5637,579.7937 2084.7677,577.7567 2091.3017,576.1127 C2096.3487,574.8487 2099.0107,576.8627 2099.5027,578.8757 C2100.2637,581.8977 2097.1197,584.2907 2092.0967,585.5677 C2062.8827,592.9287 2032.7967,598.9147 2020.1987,602.1157 C2010.1287,604.6437 1980.3117,613.7837 1962.6897,618.2267 C1957.1397,619.6367 1953.7277,618.8867 1952.9787,615.8657 C1952.4747,613.8517 1953.3357,610.9537 1958.8737,609.5437 C1965.4197,607.8887 1970.8347,605.9867 1974.1137,604.1067 C1982.6727,599.7987 1983.1537,591.1057 1981.4867,578.1377 C1978.9137,559.4977 1970.3987,525.7527 1960.4857,486.4807 L1916.7607,313.2597 L1851.1837,331.4297 C1825.6287,338.4227 1815.8177,344.1067 1811.6657,355.3277 C1808.6787,362.5117 1808.0527,368.5647 1807.8177,371.8427 C1807.6947,375.6137 1807.2017,377.8847 1804.1807,378.6567 C1801.1497,379.4067 1799.5037,377.1467 1798.3737,372.6147 C1796.5837,365.5547 1794.7267,322.1207 1794.8397,318.3387 C1794.4587,312.5427 1795.3197,309.6457 1797.8367,309.0077 L1797.8367,309.0077 Z M2339.0957,168.8817 L2442.4457,170.5487 L2481.7047,247.5487 C2493.7887,271.1127 2503.7807,295.6937 2503.7807,295.6937 L2504.8217,295.7157 C2504.8217,295.7157 2515.0807,271.9957 2528.4397,248.3097 L2570.7107,172.6297 L2674.0257,174.3087 L2557.2827,359.4117 L2667.4907,545.5787 L2566.2347,543.9457 L2524.9047,465.3567 C2512.3177,441.7827 2502.8297,418.7677 2502.8297,418.7677 L2501.7887,418.7567 C2501.7887,418.7567 2491.5527,441.4477 2478.1927,464.5957 L2434.3437,541.8197 L2333.6017,540.1867 L2449.2697,357.6557 L2339.0957,168.8817 Z M2873.2047,552.8857 C2880.0297,525.1597 2889.4967,495.3867 2892.0027,487.4437 C2894.3517,480.0027 2897.2387,474.8227 2901.2667,475.8287 C2905.8317,476.9257 2905.2047,481.6027 2904.2197,485.6307 C2902.6087,492.1877 2902.0287,503.2757 2902.4307,512.4717 C2904.3307,552.5157 2930.7377,573.4607 2961.9977,581.1587 C3007.3787,592.3357 3037.1407,567.0167 3043.7197,540.2977 C3049.8047,515.5937 3047.9707,490.5317 3014.1577,447.4547 L2995.4507,423.5777 C2950.6297,366.5617 2940.1577,326.5397 2950.2277,285.6907 C2963.8767,230.2177 3020.0897,201.8097 3090.1977,219.0627 C3122.9567,227.1297 3142.8947,237.3777 3155.1347,244.1367 C3159.4327,246.2737 3161.5797,248.3997 3160.7297,251.9237 C3159.0967,258.5017 3153.5017,272.6117 3143.7897,311.9507 C3141.0597,323.0377 3138.5537,326.6967 3134.5257,325.7237 C3130.9897,324.8507 3130.2077,321.4497 3131.7057,315.3967 C3132.8477,310.8647 3134.1467,294.5967 3126.7827,278.8767 C3121.5907,267.4427 3110.6947,248.7117 3077.8887,240.6457 C3040.5857,231.4707 3012.5707,247.5597 3005.1177,277.8137 C2999.4117,301.0187 3006.6627,321.5167 3040.6977,363.5847 L3052.1997,377.6607 C3101.9467,438.5717 3115.0577,478.7047 3103.2407,526.6037 C3096.0357,555.8617 3076.4117,587.9277 3034.2317,602.6857 C3005.0747,612.6207 2975.6947,610.2037 2948.9757,603.6257 C2919.7277,596.4197 2897.9087,587.3127 2878.5977,572.3877 C2871.3697,566.8707 2870.4967,563.9847 2873.2047,552.8857 L2873.2047,552.8857 Z M3766.6807,1233.2747 C3931.1527,1397.7457 4060.3357,1589.3277 4150.5397,1802.6497 C4243.9867,2023.5787 4291.3587,2258.1817 4291.3587,2499.9897 C4291.3587,2741.8077 4243.9867,2976.4557 4150.5397,3197.3637 C4060.3357,3410.6837 3931.1527,3602.2547 3766.6807,3766.7277 C3602.1867,3931.2007 3410.6367,4060.3837 3197.3157,4150.5847 C2976.4087,4244.0337 2741.7387,4291.4057 2499.9537,4291.4057 C2258.1467,4291.4057 2023.5437,4244.0337 1802.6257,4150.5847 C1589.3047,4060.3837 1397.7217,3931.2007 1233.2387,3766.7277 C1068.7547,3602.2547 939.5947,3410.6837 849.3687,3197.3637 C755.9227,2976.4557 708.5497,2741.7857 708.5497,2499.9897 C708.5497,2258.1817 755.9227,2023.5787 849.3687,1802.6497 C939.5947,1589.3277 1068.7547,1397.7457 1233.2387,1233.2747 C1397.7217,1068.7907 1589.3047,939.6407 1802.6257,849.4157 C2023.5437,755.9807 2258.1467,708.6077 2499.9537,708.6077 C2741.7387,708.6077 2976.4087,755.9807 3197.3157,849.4157 C3410.6367,939.6407 3602.1867,1068.7907 3766.6807,1233.2747 L3766.6807,1233.2747 Z M3252.3647,505.3677 C3285.1687,437.5757 3375.3937,372.7597 3500.2137,433.1457 C3604.0207,483.3597 3640.6977,572.0627 3596.6147,663.2387 C3552.5077,754.4027 3451.5207,793.8207 3345.3857,742.4757 C3225.6907,684.5747 3218.2387,575.9667 3252.3647,505.3677 L3252.3647,505.3677 Z M3708.2987,780.2927 L3749.1587,729.8317 C3791.3187,677.7837 3799.5747,668.4297 3807.5857,656.8717 C3816.5817,644.1177 3815.9787,638.2647 3807.2737,625.8797 C3805.1467,622.8027 3799.4187,617.4887 3794.5627,613.5727 C3790.4897,610.2937 3789.4827,607.4517 3791.4297,605.0347 C3793.3987,602.6077 3796.4877,603.7717 3801.7237,608.0227 C3820.6767,623.3847 3843.8377,643.4787 3854.3327,651.9827 C3863.2147,659.1647 3887.6967,677.6597 3900.6077,688.1107 C3905.8227,692.3507 3907.6347,695.1257 3905.6427,697.5427 C3903.6737,699.9597 3900.6977,699.5447 3897.0497,696.5917 C3892.9987,693.3347 3890.6717,692.0927 3885.5717,689.3077 C3874.9867,683.4007 3868.2297,685.9627 3857.6217,697.4087 C3848.0217,707.6567 3840.1457,717.3347 3798.0087,769.4067 L3759.0937,817.4167 C3718.5467,867.4517 3712.5287,894.6737 3718.7717,922.4547 C3724.3877,947.7077 3740.3427,962.6557 3752.4487,972.4567 C3767.7997,984.8757 3789.5507,995.1587 3814.7907,992.8757 C3849.6107,990.3257 3874.5827,961.1227 3903.0257,926.0127 L3938.0227,882.8357 C3980.1817,830.7647 3987.6097,820.7627 3996.0477,809.5397 C4004.7287,797.1877 4004.8407,791.2687 3996.1587,778.8717 C3993.9887,775.7837 3988.2377,770.4697 3984.2077,767.2017 C3980.1817,763.9357 3979.1517,761.0937 3981.0987,758.6657 C3983.0907,756.2597 3986.1567,757.4017 3990.9897,761.3397 C4009.1587,776.0417 4032.3197,796.1477 4032.7007,796.4717 C4036.7507,799.7387 4061.2087,818.2227 4074.9257,829.3107 C4079.7597,833.2487 4081.5497,836.0117 4079.5807,838.4407 C4077.6327,840.8457 4074.6347,840.4317 4070.5837,837.1637 C4066.5357,833.8977 4064.2067,832.6667 4059.1047,829.8807 C4048.1167,823.6377 4041.7637,826.5247 4031.1567,837.9697 C4021.9367,848.5427 4013.6577,857.9087 3971.5227,909.9577 L3941.7607,946.6897 C3910.6997,985.0107 3873.9797,1022.1127 3824.1897,1022.5477 C3782.1667,1023.2527 3752.1797,1004.9927 3729.1757,986.3537 C3710.6247,971.3157 3674.5547,940.7487 3667.0347,897.2367 C3661.6187,866.7917 3668.0857,829.9257 3708.2987,780.2927 L3708.2987,780.2927 Z M4189.8317,994.8237 C4172.6477,974.6387 4163.3607,968.1717 4151.4347,969.1897 C4143.6687,969.5147 4137.9407,971.5287 4134.8747,972.6807 C4131.3827,974.1797 4129.1017,974.6837 4127.1537,972.2777 C4125.1847,969.8737 4126.5047,967.4217 4130.1307,964.4797 C4135.7707,959.8697 4174.3247,939.7417 4177.8177,938.2537 C4182.8717,935.4347 4185.8707,934.9977 4187.5277,937.0117 C4189.8107,939.8307 4189.9667,945.7497 4196.0107,955.5737 C4203.3257,967.0197 4213.7757,980.6137 4223.3097,992.2727 L4340.6767,1135.7987 C4349.8527,1147.0667 4356.9007,1154.0477 4362.0017,1158.6127 C4367.3957,1163.5917 4370.5067,1165.7397 4371.5127,1166.9377 C4373.4597,1169.3537 4371.8037,1171.4237 4366.5457,1175.6757 C4359.3187,1181.5937 4333.3607,1201.5097 4324.4757,1208.7487 C4320.5377,1211.2897 4317.8747,1212.1387 4316.2417,1210.1147 C4313.9147,1207.3057 4314.8757,1205.1917 4319.7787,1200.5137 L4323.0887,1197.1467 C4331.2557,1189.1237 4334.1667,1171.3237 4308.5887,1139.2337 L4272.8967,1093.9537 L4134.5837,1207.0257 C4103.2337,1232.6697 4076.6037,1255.0917 4063.0427,1268.8767 C4054.3837,1277.9727 4049.5957,1285.2347 4056.5557,1297.0047 C4059.6647,1302.4977 4065.8627,1310.8557 4070.1147,1316.0807 C4073.4047,1320.1087 4072.7327,1323.3417 4071.1447,1324.6617 C4068.6827,1326.6307 4065.1927,1324.8077 4061.9027,1320.8027 C4042.8617,1297.4857 4024.6667,1272.7697 4016.4327,1262.7107 C4009.8307,1254.6787 3988.9067,1231.5397 3977.4287,1217.4757 C3973.8027,1213.0337 3973.0417,1209.6437 3975.4597,1207.6747 C3977.0487,1206.3547 3980.0697,1205.9067 3983.6727,1210.3487 C3987.9467,1215.5737 3991.9507,1219.6587 3995.0617,1221.8057 C4002.5797,1227.7247 4010.6827,1224.4917 4021.7137,1217.4877 C4037.4887,1207.2607 4064.4317,1185.2197 4095.8037,1159.5857 L4234.1167,1046.5027 L4189.8317,994.8237 Z M4460.2607,1324.3717 C4459.5447,1320.6457 4456.5247,1313.4627 4453.4817,1307.4207 C4451.3777,1303.2467 4451.3547,1299.7687 4454.1537,1298.3687 C4456.9497,1296.9827 4459.4787,1299.7567 4462.2977,1305.3177 C4473.2617,1327.1347 4485.8627,1354.5017 4491.4777,1365.6467 C4496.3997,1375.3797 4511.5497,1403.2167 4519.7177,1419.4517 C4522.5147,1425.0137 4522.9837,1428.2577 4520.2337,1429.6567 C4517.4337,1431.0547 4514.8627,1429.4327 4512.2877,1424.3307 C4510.6767,1421.0967 4508.3267,1417.6177 4505.0827,1413.4447 C4497.6097,1403.2507 4490.4037,1402.7917 4476.0147,1408.8677 C4463.0357,1414.2487 4448.6477,1421.4777 4388.7867,1451.5967 L4380.4617,1455.7817 C4378.1377,1456.9557 4378.3627,1458.5897 4379.0767,1459.9887 L4456.5907,1614.0097 C4457.0377,1614.9277 4458.2017,1616.0917 4460.5297,1614.9167 L4468.8747,1610.7207 C4528.7127,1580.6127 4542.8567,1572.9037 4555.1617,1566.1457 C4568.1417,1558.4487 4570.4697,1552.6307 4567.6257,1537.7827 C4566.9347,1534.0457 4563.8897,1526.8627 4561.0717,1521.2907 C4558.7417,1516.6697 4558.9447,1513.6487 4561.7407,1512.2497 C4564.5617,1510.8407 4566.8657,1513.1677 4569.9087,1519.1987 C4580.8717,1541.0047 4594.4127,1570.2407 4599.7817,1580.9037 C4604.6847,1590.6487 4619.1397,1617.0867 4627.0827,1632.8517 C4630.1257,1638.8827 4630.6177,1642.1167 4627.8217,1643.5367 C4625.0457,1644.9357 4622.2277,1642.8437 4619.8997,1638.2117 C4618.2667,1634.9547 4615.9387,1631.4867 4612.4477,1626.8437 C4605.2427,1617.0987 4598.0357,1616.6617 4583.6267,1622.7477 C4570.6477,1628.1187 4559.5027,1633.7137 4499.6677,1663.8327 L4430.0737,1698.8307 C4393.8897,1717.0457 4362.8097,1732.6877 4346.5627,1743.1827 C4336.1567,1750.1637 4329.8927,1756.2397 4334.3447,1769.6997 C4336.2017,1775.7307 4340.1867,1784.7817 4343.4517,1791.2707 C4345.5327,1795.4337 4344.3917,1798.9237 4342.5357,1799.8747 C4339.7817,1801.2507 4336.7397,1798.7227 4334.1667,1793.6327 C4320.8527,1767.1707 4308.7237,1739.5687 4303.0837,1728.4367 C4298.4507,1719.1597 4282.5637,1691.0997 4274.6417,1675.3017 C4271.8227,1669.7407 4271.5997,1665.7917 4274.3737,1664.3927 C4276.2537,1663.4527 4279.4987,1664.1467 4281.8247,1668.7887 C4285.0927,1675.2797 4287.8897,1679.6987 4290.6857,1682.9207 C4296.7277,1690.3617 4305.3217,1688.9407 4317.6287,1684.4877 C4335.2627,1677.9527 4365.4267,1662.7697 4401.5877,1644.5667 L4431.7527,1629.3837 C4433.1387,1628.7007 4433.3647,1626.8327 4432.9157,1625.9037 L4355.4027,1471.8817 C4354.7057,1470.4937 4353.5417,1469.3417 4351.7097,1470.2597 L4321.5457,1485.4307 C4285.3387,1503.6467 4255.4207,1519.2767 4239.1967,1529.7717 C4228.7687,1536.7647 4222.5047,1542.8287 4226.7337,1555.8187 C4228.5907,1561.8497 4232.7967,1571.3487 4235.8407,1577.4017 C4238.1647,1582.0337 4236.7807,1585.0547 4234.9467,1585.9937 C4232.1487,1587.4047 4229.1047,1584.8417 4226.5557,1579.7407 C4213.2397,1553.3027 4200.3957,1524.3017 4194.5767,1512.6987 C4189.9007,1503.4217 4174.9507,1477.2077 4166.8077,1460.9727 C4164.2337,1455.8707 4164.2337,1452.3917 4167.0087,1450.9817 C4168.8657,1450.0527 4171.8647,1450.2877 4174.4597,1455.3787 C4177.4807,1461.4197 4180.2997,1465.8277 4183.0517,1469.0627 C4189.1397,1476.4917 4197.7097,1475.0597 4210.0167,1470.6287 C4227.6727,1464.0727 4258.7547,1448.4307 4294.9147,1430.2267 L4364.5317,1395.2177 C4424.3467,1365.0977 4435.4897,1359.5037 4447.7977,1352.7347 C4460.7757,1345.0477 4463.0807,1339.2197 4460.2607,1324.3717 L4460.2607,1324.3717 Z M4683.0717,1836.7197 C4683.1827,1832.9377 4681.7057,1825.2617 4680.0287,1818.7277 C4678.8427,1814.2187 4679.5787,1810.7947 4682.6007,1810.0237 C4685.6217,1809.2407 4687.5237,1812.4957 4689.2017,1819.0307 C4695.1977,1842.1577 4701.4647,1870.5867 4704.7097,1883.1627 C4708.3567,1897.2487 4733.1747,1995.4297 4735.8587,2003.8547 C4738.4327,2011.7647 4741.7877,2018.4217 4743.1757,2021.8017 C4744.3397,2024.1837 4746.4877,2026.3097 4747.0247,2028.3347 C4747.6727,2030.8407 4745.7937,2031.8697 4743.7797,2032.3847 C4740.7587,2033.1577 4735.0747,2031.9487 4715.2037,2036.0107 C4710.5287,2036.6707 4691.6867,2040.4627 4686.3817,2040.7647 C4684.2567,2040.7767 4678.9757,2041.0677 4678.0357,2037.5547 C4677.2747,2034.5337 4679.1557,2033.5157 4682.6687,2032.5977 C4685.6877,2031.8147 4693.0947,2029.3647 4697.5037,2025.5597 C4704.1067,2020.0887 4709.2527,2015.0087 4705.5597,1992.3637 C4704.6197,1984.5657 4691.9777,1931.5087 4689.6277,1922.4577 C4689.1127,1920.4437 4687.3667,1919.8277 4684.8387,1920.4767 L4579.2397,1947.7427 C4576.7117,1948.3807 4574.8307,1949.4097 4575.4817,1951.9157 C4578.1007,1961.9867 4592.8917,2019.3057 4596.4927,2029.1177 C4600.2077,2039.4107 4603.2957,2045.0507 4608.4637,2048.5527 C4612.4257,2051.2827 4615.2887,2052.1447 4615.8497,2054.1587 C4616.3637,2056.1597 4614.7307,2058.1857 4612.2457,2058.8347 C4609.6947,2059.4837 4602.4007,2060.3007 4580.1127,2063.3667 C4571.3197,2064.5757 4553.9537,2067.9757 4550.9327,2068.7477 C4547.4207,2069.6767 4541.2447,2070.7287 4540.2157,2066.6897 C4539.4537,2063.6917 4540.7057,2062.2917 4542.6987,2061.7667 C4547.1067,2060.1107 4552.6557,2058.6667 4557.8927,2056.2277 C4565.7917,2051.5177 4570.9167,2044.3007 4568.1417,2027.3057 C4567.0677,2018.9927 4555.0957,1968.4647 4552.2297,1957.3997 C4551.6927,1955.3737 4549.5677,1955.3967 4547.0617,1956.0567 L4512.8467,1964.8857 C4498.2577,1968.6437 4461.9407,1977.4937 4449.5207,1981.2307 C4420.5637,1989.7797 4417.5877,2005.0397 4429.2467,2050.2987 C4432.2437,2061.8677 4437.5457,2080.3397 4445.5597,2090.5997 C4453.4577,2100.3667 4463.7957,2103.0747 4482.1687,2101.5307 C4486.9567,2101.3847 4489.2387,2101.8667 4489.9997,2104.8757 C4490.9187,2108.3897 4485.5247,2110.3247 4480.9597,2111.4987 C4471.4277,2113.9607 4441.3297,2117.9667 4432.1547,2117.6757 C4420.3177,2117.5077 4419.2877,2113.4807 4414.9917,2096.8877 C4406.3997,2063.7017 4400.0437,2036.9057 4395.4577,2015.0317 C4390.3757,1993.2817 4386.6167,1976.5537 4383.2377,1963.4747 C4381.9167,1958.4617 4378.9657,1949.0307 4376.2567,1938.4677 C4372.9907,1928.0397 4369.6337,1917.1087 4367.2837,1908.0577 C4365.8737,1902.5307 4366.5907,1899.1177 4369.6127,1898.3347 C4371.6477,1897.8207 4374.5347,1898.6697 4375.9657,1904.1977 C4377.6457,1910.7427 4379.4797,1915.6437 4381.4907,1919.4037 C4385.8787,1927.9397 4394.5617,1928.3757 4407.5187,1926.6417 C4426.1147,1923.9787 4459.8127,1915.2747 4499.0627,1905.1597 L4574.4737,1885.6797 C4639.3457,1868.9307 4651.4287,1865.8207 4664.8547,1861.7927 C4679.1767,1857.0267 4682.6687,1851.8347 4683.0717,1836.7197 L4683.0717,1836.7197 Z M4765.2837,2219.2007 C4766.0677,2215.5077 4766.0457,2207.6997 4765.5987,2200.9627 C4765.2837,2196.2977 4766.6047,2193.0877 4769.7377,2192.8857 C4772.8477,2192.6617 4774.1007,2196.2077 4774.5717,2202.9547 C4776.2037,2226.7857 4777.1437,2255.8657 4777.7707,2265.1977 C4778.8427,2280.7387 4782.7167,2322.1237 4783.6777,2336.1107 C4785.6477,2365.1217 4785.3107,2398.4637 4770.9227,2423.9077 C4763.0027,2437.4787 4742.0337,2458.1667 4712.5187,2460.1927 C4679.8937,2462.4077 4649.5947,2445.7367 4610.7927,2403.6337 C4563.8237,2447.4487 4526.0957,2482.2887 4500.5177,2511.6367 C4476.8647,2538.7587 4475.9037,2554.9587 4474.8497,2562.3217 C4474.1347,2567.0417 4474.3127,2569.6607 4474.5367,2573.2637 C4474.8057,2576.9107 4472.3227,2579.1497 4470.2637,2579.2847 C4466.6147,2579.5307 4465.3857,2576.5087 4465.0067,2570.8017 L4462.0067,2527.2797 C4460.3067,2501.8917 4462.0517,2489.2827 4467.4427,2476.9297 C4475.9247,2456.5667 4495.5047,2438.0607 4527.9507,2410.3247 C4550.5537,2390.5657 4578.7707,2369.3737 4585.1037,2363.2317 C4587.5427,2360.4567 4587.8767,2357.8277 4587.6757,2354.7167 L4585.8867,2313.7217 C4585.7517,2311.6527 4584.6327,2310.1637 4582.0357,2310.3427 L4575.8177,2310.7687 C4534.8877,2313.5657 4500.7187,2316.4187 4482.2137,2319.7537 C4469.3457,2322.2027 4461.2007,2324.8437 4460.1037,2338.9747 C4459.4997,2345.7777 4459.6787,2355.6577 4460.0587,2361.3637 C4460.3067,2364.9887 4457.8447,2367.2377 4455.7857,2367.3707 C4452.6767,2367.5837 4450.8627,2364.0707 4450.4837,2358.3537 C4448.6707,2331.9367 4447.6397,2294.0077 4447.1927,2287.2607 C4446.5877,2278.4677 4443.0527,2249.5667 4441.8007,2231.4187 C4441.4177,2225.7357 4442.7617,2222.5017 4445.8717,2222.2997 C4447.9537,2222.1657 4450.6397,2223.5417 4451.0417,2229.2257 C4451.4907,2235.9727 4452.3387,2241.1187 4453.6827,2245.1927 C4456.3897,2254.3777 4464.8487,2256.3917 4477.9167,2257.0627 C4496.7117,2257.8577 4531.4437,2255.4857 4571.8327,2252.7337 L4649.5717,2247.4187 C4716.4117,2242.8657 4728.8087,2241.9927 4742.7727,2240.5267 C4757.7647,2238.4677 4762.1297,2234.0027 4765.2837,2219.2007 L4765.2837,2219.2007 Z M2499.9537,0.0567 C1121.4647,0.0567 -0.000300000001,1121.5227 -0.000300000001,2499.9897 C-0.000300000001,3878.4797 1121.4647,4999.9997 2499.9537,4999.9997 C3878.4327,4999.9997 4999.9077,3878.4797 4999.9077,2499.9897 C4999.9077,1121.5227 3878.4327,0.0567 2499.9537,0.0567 L2499.9537,0.0567 Z" id="Fill-13" fill="#48B7C2" mask="url(#mask-2)"></path>
                </g>
                <path d="M2691.9951,1421.9029 C2703.5421,1474.6119 2694.0111,1526.1349 2674.0251,1574.7829 C2634.8661,1670.9379 2575.2531,1754.4269 2506.1301,1831.4379 C2504.3411,1833.5189 2502.2151,1835.2989 2498.0291,1839.2479 C2434.2881,1771.4119 2379.6871,1699.8829 2340.3051,1617.3339 C2319.1911,1573.3179 2305.1831,1527.7919 2301.4011,1478.6739 C2293.4011,1374.2389 2371.5101,1280.9259 2475.6301,1268.8769 C2575.9251,1257.2289 2670.4901,1323.1969 2691.9951,1421.9029 L2691.9951,1421.9029 Z M2408.9911,1939.8999 C2408.9911,1928.7909 2449.2591,1919.7719 2498.9131,1919.7719 C2548.5791,1919.7719 2588.8591,1928.7909 2588.8591,1939.8999 C2588.8591,1951.0559 2548.5791,1960.0289 2498.9131,1960.0289 C2449.2591,1960.0289 2408.9911,1951.0559 2408.9911,1939.8999 L2408.9911,1939.8999 Z M3446.2851,2720.9529 C3505.7401,2719.9019 3540.7611,2686.9179 3540.7611,2644.0889 C3540.7611,2616.3629 3522.8361,2597.8569 3486.0711,2573.4429 L3366.9791,2494.4519 C3319.9211,2463.2469 3296.5351,2421.5799 3301.5501,2371.8019 C3307.3661,2300.9899 3359.1921,2252.0849 3445.4571,2252.0849 C3467.4531,2252.0849 3507.3291,2255.1379 3538.5681,2259.0989 L3581.5091,2259.0989 L3572.5591,2359.5729 L3565.9341,2359.5729 C3565.8461,2312.0999 3527.4251,2280.8829 3469.5331,2280.8829 C3415.8061,2280.8829 3381.7491,2309.9179 3380.1151,2346.6389 C3378.4141,2373.5249 3399.1361,2391.6289 3427.7121,2410.2129 L3558.1021,2494.9109 C3598.7411,2521.3039 3622.3921,2557.1969 3619.4841,2608.2629 C3615.3221,2697.2999 3548.1891,2749.7969 3438.8781,2749.7969 C3377.5861,2749.7969 3320.0771,2733.9779 3295.1041,2708.3109 C3283.8041,2679.6449 3293.4931,2622.0679 3311.3271,2592.2629 L3317.3701,2592.2629 C3311.8871,2663.4899 3364.2721,2722.3179 3446.2851,2720.9529 L3446.2851,2720.9529 Z M3622.1461,1433.2699 L2554.4861,2500.9519 L3622.1461,3568.6229 L3567.6811,3623.1559 L2499.9421,2555.4959 L1432.2271,3623.1559 L1377.7271,3568.6229 L2445.3981,2500.9519 L1377.7271,1433.2699 L1432.2721,1378.7259 L2499.9421,2446.3959 L3567.6811,1378.7259 L3622.1461,1433.2699 Z M2757.2241,3782.4589 L2765.8161,3782.4589 L2765.9291,3789.1959 L2558.2021,3789.1959 L2558.3581,3782.4589 L2567.0181,3782.4589 C2590.7841,3782.4589 2610.0721,3763.4829 2610.7661,3739.9419 L2610.7661,3565.3779 L2389.1081,3565.3779 L2389.1081,3739.4719 C2389.5671,3763.1919 2408.9451,3782.4589 2432.9011,3782.4589 L2441.5721,3782.4589 L2441.6611,3789.1959 L2233.9571,3789.1959 L2234.1021,3782.4589 L2242.7171,3782.4589 C2266.6391,3782.4589 2286.0731,3763.1919 2286.5101,3739.4719 L2286.5101,3360.4469 C2285.9281,3336.7729 2266.5941,3317.4629 2242.7731,3317.4629 L2234.1021,3317.4629 L2233.9571,3310.5909 L2441.6611,3310.5909 L2441.5721,3317.4629 L2432.9011,3317.4629 C2409.1251,3317.4629 2389.7911,3336.7729 2389.1081,3360.4469 L2389.1081,3536.5779 L2610.7661,3536.5779 L2610.7661,3360.4469 C2609.8711,3336.9519 2590.6491,3317.4629 2567.0181,3317.4629 L2558.3581,3317.4629 L2558.2021,3310.5909 L2765.9291,3310.5909 L2765.8161,3317.4629 L2757.1801,3317.4629 C2733.2141,3317.4629 2713.8121,3336.5929 2713.3431,3360.4469 L2713.3431,3739.4719 C2713.8121,3763.1919 2733.2141,3782.4589 2757.2241,3782.4589 L2757.2241,3782.4589 Z M1207.4601,2740.5779 L1207.5501,2733.7299 L1220.1701,2733.7299 C1243.2531,2733.7299 1261.9711,2715.2469 1262.3621,2692.3339 L1262.3621,2337.1619 C1262.3621,2286.3539 1254.4191,2251.7259 1254.4191,2251.7259 L1261.1661,2251.7259 L1606.0981,2580.5149 L1606.0981,2310.2639 C1605.6611,2287.2839 1586.9431,2268.8439 1563.8721,2268.8439 L1551.2851,2268.8439 L1551.1961,2261.9869 L1758.4421,2261.9869 L1758.3631,2268.7999 L1745.7311,2268.7999 C1722.8511,2268.7999 1704.2661,2287.0149 1703.5511,2309.6939 L1703.5511,2662.9079 C1703.5511,2714.4649 1711.4721,2750.1339 1711.4721,2750.1339 L1705.2401,2750.1339 L1359.7701,2421.2339 L1359.7701,2692.5579 C1360.2971,2715.3369 1378.9701,2733.7299 1401.9621,2733.7299 L1414.5831,2733.7299 L1414.6731,2740.5779 L1207.4601,2740.5779 Z M796.0671,2500.9519 C796.0671,3440.4239 1560.4371,4204.7829 2499.9421,4204.7829 C3439.5041,4204.7829 4203.8411,3440.4239 4203.8411,2500.9519 C4203.8411,1561.4019 3439.5041,797.0649 2499.9421,797.0649 C1560.4371,797.0649 796.0671,1561.4019 796.0671,2500.9519 L796.0671,2500.9519 Z" id="Fill-16" fill="#48B7C2"></path>
                <path d="M2373.6904,1465.5152 C2373.6904,1533.0282 2431.3004,1588.3442 2501.5094,1588.3442 C2566.7724,1588.3442 2623.7214,1530.8572 2623.9004,1464.9342 C2623.9004,1397.8032 2566.3694,1339.7792 2499.4174,1339.7002 C2431.1334,1339.5542 2373.6904,1397.0542 2373.6904,1465.5152" id="Fill-18" fill="#48B7C2"></path>
            </g>
        </g>
    </g>
</svg>