<svg width="64" height="64" viewBox="0 0 64 64" fill="none" xmlns="http://www.w3.org/2000/svg">
<circle cx="32" cy="32" r="32" fill="#FF5410"/>
<path d="M45.0542 18.5H30.9954C29.3684 18.5 28.0498 19.8188 28.0498 21.4456V28.3706C28.793 28.74 29.5959 29.1394 30.3455 29.512L31.4922 27.2175C32.1865 25.8301 33.8792 25.2664 35.2661 25.9595C36.656 26.655 37.2192 28.343 36.5234 29.7332L34.4792 33.8225C34.5334 34.3638 34.4854 34.9094 34.3328 35.4375H35.6824L32.1228 45.2256C31.9116 45.8062 32.3198 46.4836 33.0042 46.4836C33.3867 46.4836 33.7466 46.2476 33.8848 45.8662L37.6772 35.4375H38.3342L42.1653 45.8694C42.3047 46.2488 42.6636 46.4836 43.0459 46.4836C43.6853 46.4836 44.1541 45.845 43.9253 45.2231L40.3315 35.4375H45.0542C46.6809 35.4375 47.9998 34.1187 47.9998 32.4919V21.4456C47.9998 19.8188 46.6809 18.5 45.0542 18.5ZM43.0454 31.4211H38.8391C38.3215 31.4211 37.9016 31.0012 37.9016 30.4836C37.9016 29.9656 38.3215 29.5461 38.8391 29.5461H43.0454C43.5635 29.5461 43.9829 29.9656 43.9829 30.4836C43.9829 31.0012 43.5635 31.4211 43.0454 31.4211ZM43.0454 27.9062H38.8391C38.3215 27.9062 37.9016 27.4868 37.9016 26.9688C37.9016 26.4512 38.3215 26.0312 38.8391 26.0312H43.0454C43.5635 26.0312 43.9829 26.4512 43.9829 26.9688C43.9829 27.4868 43.5635 27.9062 43.0454 27.9062ZM43.0454 24.3918H33.0042C32.4861 24.3918 32.0667 23.9719 32.0667 23.4543C32.0667 22.9368 32.4861 22.5168 33.0042 22.5168H43.0454C43.5635 22.5168 43.9829 22.9368 43.9829 23.4543C43.9829 23.9719 43.5635 24.3918 43.0454 24.3918Z" fill="white"/>
<path d="M32.4951 35.0354C32.6646 34.5391 32.6633 34.0205 32.5203 33.5474L34.8469 28.8945C35.0784 28.4314 34.8909 27.8682 34.4277 27.6367C33.9648 27.405 33.4016 27.5928 33.1699 28.0559L31.1855 32.0242C29.9995 31.4336 28.1975 30.5376 26.7458 29.8157C25.3953 29.144 24.4314 28.5417 22.7869 28.5417H21.9585C23.239 28.5417 24.3818 27.9524 25.1299 27.03C25.7007 26.3281 26.042 25.4336 26.042 24.4587C26.042 22.2031 24.2139 20.375 21.958 20.375C19.7031 20.375 17.875 22.2031 17.875 24.4587C17.875 25.542 18.2969 26.5264 18.9851 27.2568C19.7292 28.0481 20.7861 28.5417 21.9578 28.542C20.387 28.542 18.8513 29.1785 17.7466 30.2861C16.6204 31.4094 16 32.906 16 34.5002V37.5127C16 38.8096 16.842 39.9131 18.0083 40.3057V45.5459C18.0083 46.0637 18.428 46.4834 18.9458 46.4834H24.9707C25.4885 46.4834 25.9082 46.0637 25.9082 45.5459V35.0125C26.7971 35.4568 27.9648 36.0405 28.9097 36.5132C29.572 36.8442 30.3459 36.874 31.0361 36.5933C31.7244 36.3101 32.2549 35.7463 32.4915 35.0464C32.4927 35.0427 32.4939 35.0391 32.4951 35.0354Z" fill="white"/>
</svg>
