<svg width="64" height="64" viewBox="0 0 64 64" fill="none" xmlns="http://www.w3.org/2000/svg">
<circle cx="32" cy="32" r="32" fill="#FF5410"/>
<g clip-path="url(#clip0_2001_2047)">
<path d="M33.9912 16.5054C33.4758 16.4514 33.008 16.8066 32.9448 17.3193C32.8807 17.8338 33.2451 18.3017 33.7587 18.3657C35.0312 18.5241 36.2746 18.9747 37.4547 19.4727C37.9371 19.6731 38.4832 19.4471 38.6833 18.9729C38.8838 18.495 38.6604 17.9456 38.1834 17.7442C36.844 17.1802 35.4332 16.6849 33.9912 16.5054Z" fill="white"/>
<path d="M44.5178 24.1191C44.9307 23.8059 45.0113 23.2172 44.6982 22.8052C43.8202 21.6489 42.7884 20.6171 41.6321 19.7391C41.2192 19.4279 40.6323 19.5057 40.3183 19.9195C40.0052 20.3315 40.0857 20.9202 40.4986 21.2333C41.5195 22.0079 42.4295 22.9179 43.204 23.9387C43.5182 24.3524 44.106 24.4307 44.5178 24.1191Z" fill="white"/>
<path d="M45.4645 25.7542C44.9875 25.9556 44.7642 26.5049 44.9647 26.9828C45.4627 28.1629 45.9738 29.4687 46.1322 30.7413C46.1937 31.2385 46.6433 31.6175 47.1787 31.5552C47.6923 31.4911 48.0567 31.0232 47.9925 30.5087C47.8131 29.0668 47.2571 27.5934 46.6932 26.254C46.4918 25.777 45.9415 25.5564 45.4645 25.7542Z" fill="white"/>
<path d="M25.8166 17.7442C25.3396 17.9457 25.1162 18.495 25.3167 18.9729C25.5172 19.4481 26.0642 19.6727 26.5453 19.4727C27.7255 18.9747 28.9687 18.5241 30.2413 18.3657C30.755 18.3017 31.1193 17.8338 31.0552 17.3193C30.9912 16.8066 30.5215 16.4514 30.0088 16.5054C28.5668 16.6849 27.156 17.1802 25.8166 17.7442Z" fill="white"/>
<path d="M32 48.5001C40.0236 48.5001 47.0011 42.4418 47.9926 34.4913C48.0567 33.9777 47.6923 33.509 47.1788 33.4449C46.6624 33.3872 46.1955 33.7452 46.1323 34.2588C45.2571 41.2736 39.0798 46.6251 32 46.6251C24.2455 46.6251 17.875 40.2546 17.875 32.5001C17.875 29.0824 19.2311 25.7564 21.4375 23.2161V23.5265C21.4375 24.0447 21.8568 24.464 22.375 24.464C22.8932 24.464 23.3125 24.0447 23.3125 23.5265V20.8751C23.3125 20.3569 22.8932 19.9376 22.375 19.9376H19.7227C19.2046 19.9376 18.7852 20.3569 18.7852 20.8751C18.7852 21.3933 19.2046 21.812 19.7227 21.812H20.1742C17.5774 24.7156 16 28.5472 16 32.5001C16 41.2882 23.2119 48.5001 32 48.5001Z" fill="white"/>
<path d="M20.6875 32.5001C20.6875 38.7037 25.7964 43.8126 32 43.8126C38.2036 43.8126 43.3125 38.7037 43.3125 32.5001C43.3125 26.2965 38.2036 21.1876 32 21.1876C25.7964 21.1876 20.6875 26.2965 20.6875 32.5001ZM32.9375 28.7501C32.9375 28.2319 33.3568 27.8126 33.875 27.8126C34.3932 27.8126 34.8125 28.2319 34.8125 28.7501V31.5626H36.6875V28.7501C36.6875 28.2319 37.1068 27.8126 37.625 27.8126C38.1432 27.8126 38.5625 28.2319 38.5625 28.7501V36.2501C38.5625 36.7683 38.1432 37.1876 37.625 37.1876C37.1068 37.1876 36.6875 36.7683 36.6875 36.2501V33.4376H33.875C33.3568 33.4376 32.9375 33.0183 32.9375 32.5001V28.7501ZM28.25 29.6876C27.7327 29.6876 27.3125 30.1079 27.3125 30.6251C27.3125 31.1433 26.8932 31.5626 26.375 31.5626C25.8568 31.5626 25.4375 31.1433 25.4375 30.6251C25.4375 29.0742 26.6991 27.8126 28.25 27.8126C29.8009 27.8126 31.0625 29.0742 31.0625 30.6251C31.0625 32.5001 29.8146 33.4358 28.8121 34.1874C28.2568 34.6042 27.8612 34.9376 27.6101 35.3126H30.125C30.6432 35.3126 31.0625 35.7319 31.0625 36.2501C31.0625 36.7683 30.6432 37.1876 30.125 37.1876H26.375C25.8568 37.1876 25.4375 36.7683 25.4375 36.2501C25.4375 34.3751 26.6854 33.4394 27.6879 32.6878C28.6456 31.9691 29.1875 31.5187 29.1875 30.6251C29.1875 30.1078 28.7673 29.6876 28.25 29.6876Z" fill="white"/>
</g>
<defs>
<clipPath id="clip0_2001_2047">
<rect width="32" height="32" fill="white" transform="translate(16 16.5)"/>
</clipPath>
</defs>
</svg>
