<svg width="20" height="20" viewBox="0 0 20 20" fill="none" xmlns="http://www.w3.org/2000/svg">
<path d="M18.6859 2.79908C18.65 2.54122 18.4645 2.32911 18.2137 2.25939L10.1754 0.0239216C10.0608 -0.00797385 9.93971 -0.00797385 9.82503 0.0239216L1.78668 2.25939C1.53588 2.32911 1.35034 2.54113 1.31444 2.79908C1.26782 3.13434 0.204201 11.0556 2.93231 14.9961C5.65719 18.932 9.67697 19.9406 9.84673 19.9817C9.89719 19.9939 9.9486 19.9999 10.0002 19.9999C10.0518 19.9999 10.1032 19.9938 10.1537 19.9817C10.3235 19.9406 14.3433 18.932 17.0681 14.9961C19.7962 11.0556 18.7326 3.13442 18.6859 2.79908ZM15.1839 7.42357L9.70093 12.9065C9.57335 13.0341 9.40603 13.098 9.2388 13.098C9.07157 13.098 8.90424 13.0342 8.77666 12.9065L5.3866 9.51647C5.26398 9.39394 5.19514 9.22767 5.19514 9.05434C5.19514 8.881 5.26407 8.71473 5.3866 8.5922L6.05971 7.91908C6.31496 7.66392 6.72882 7.66383 6.98398 7.91908L9.2388 10.1739L13.5865 5.8261C13.709 5.70349 13.8753 5.63464 14.0486 5.63464C14.222 5.63464 14.3883 5.70349 14.5108 5.8261L15.1839 6.49922C15.4391 6.75447 15.4391 7.16832 15.1839 7.42357Z" fill="#FF5410"/>
</svg>
