<svg width="64" height="64" viewBox="0 0 64 64" fill="none" xmlns="http://www.w3.org/2000/svg">
<path d="M55.7074 15.4773C56.3069 15.4773 56.8849 15.2394 57.3113 14.8129L63.5947 8.52939C64.4344 7.68977 63.8876 6.24877 62.7046 6.17452L59.3609 5.96465L61.5427 3.78278C61.9089 3.41665 61.9089 2.82303 61.5427 2.45703C61.1765 2.0909 60.583 2.0909 60.2169 2.45703L58.035 4.6389L57.8251 1.29516C57.7508 0.110032 56.3084 -0.432967 55.4703 0.405032L49.1866 6.68852C48.7265 7.14864 48.4862 7.78502 48.5269 8.43439L48.7429 11.8754C43.4987 7.40389 36.7398 4.83965 29.5801 4.83965C13.2313 4.83965 0 18.0694 0 34.4196C0 41.7985 2.73249 48.8658 7.69436 54.3195C8.04298 54.7024 8.63586 54.7304 9.01873 54.382C9.40173 54.0336 9.42973 53.4407 9.08136 53.0577C4.43424 47.9499 1.875 41.3308 1.875 34.4196C1.875 19.143 14.3035 6.71452 29.5801 6.71452C36.7391 6.71452 43.4755 9.45826 48.5144 14.1594L44.2367 18.437C40.368 14.8859 35.2172 12.7128 29.5801 12.7128C17.611 12.7128 7.87336 22.4504 7.87336 34.4195C7.87336 37.8642 8.70436 41.2953 10.2769 44.3421C10.277 44.3422 10.277 44.3423 10.2771 44.3424C13.9207 51.4026 21.2588 56.1262 29.5802 56.1262C39.8338 56.1262 48.7516 48.8838 50.8359 38.833C50.941 38.326 50.6153 37.8297 50.1083 37.7246C49.6014 37.6195 49.1052 37.9452 49 38.4522C47.1015 47.6067 38.9344 54.2512 29.5803 54.2512C22.1292 54.2512 15.371 50.1248 11.9434 43.4826C11.9434 43.4824 11.9432 43.4823 11.9432 43.4822C10.487 40.6603 9.74848 37.6112 9.74848 34.4195C9.74848 23.4842 18.645 14.5878 29.5802 14.5878C34.7014 14.5878 39.3837 16.5505 42.9113 19.7624L38.6717 24.002C36.2387 21.876 33.0574 20.586 29.5802 20.586C21.9525 20.586 15.7468 26.7916 15.7468 34.4193C15.7468 42.0471 21.9525 48.2527 29.5802 48.2527C37.2079 48.2527 43.4137 42.0471 43.4137 34.4193C43.4137 30.9421 42.1237 27.7609 39.9975 25.3279L44.2374 21.088C47.4244 24.5872 49.3825 29.2242 49.4115 34.304C49.4144 34.8198 49.8336 35.2361 50.3489 35.2361H50.3544C50.8721 35.2331 51.2894 34.811 51.2865 34.2932C51.2545 28.7013 49.0869 23.5997 45.5633 19.762L49.8413 15.484C54.5221 20.4889 57.2851 27.1854 57.2851 34.4192C57.285 49.6962 44.8567 62.1247 29.5801 62.1247C23.2515 62.1247 17.0632 59.9354 12.1553 55.9603C11.7527 55.6345 11.1629 55.6964 10.8367 56.0987C10.5109 56.501 10.5729 57.0914 10.9751 57.4173C16.2158 61.662 22.8232 63.9997 29.5801 63.9997C45.9288 63.9997 59.1601 50.7699 59.1601 34.4196C59.1601 28.018 57.1484 21.9254 53.3426 16.8006C52.9486 16.27 52.5383 15.7556 52.1141 15.256C55.7893 15.4869 55.5911 15.4773 55.7074 15.4773ZM41.5385 34.4196C41.5385 41.0135 36.1741 46.3779 29.5801 46.3779C22.9862 46.3779 17.6217 41.0135 17.6217 34.4196C17.6217 27.8257 22.9862 22.4612 29.5801 22.4612C32.5403 22.4612 35.2523 23.5429 37.3428 25.331L33.0766 29.5972C32.0936 28.8826 30.8856 28.4595 29.5801 28.4595C26.2937 28.4595 23.62 31.1332 23.62 34.4196C23.62 37.706 26.2937 40.3797 29.5801 40.3797C32.8666 40.3797 35.5403 37.706 35.5403 34.4196C35.5403 33.114 35.1172 31.906 34.4026 30.9231L38.6688 26.6569C40.4568 28.7474 41.5385 31.4593 41.5385 34.4196ZM28.9171 35.0826C29.2833 35.4487 29.8768 35.4487 30.2429 35.0826L33.0532 32.2723C33.4407 32.8967 33.6652 33.6323 33.6652 34.4197C33.6652 36.6723 31.8326 38.5048 29.5799 38.5048C27.3273 38.5048 25.4948 36.6722 25.4948 34.4197C25.4948 32.1672 27.3273 30.3346 29.5799 30.3346C30.3673 30.3346 31.1029 30.5591 31.7273 30.9465L28.9169 33.7568C28.5509 34.1228 28.5509 34.7165 28.9171 35.0826ZM50.3983 8.31689C50.3911 8.20427 50.4329 8.09389 50.5126 8.01427L56.0224 2.50465L56.2673 6.40665L50.632 12.0419L50.3983 8.31689ZM51.9579 13.3676L57.5931 7.73239L61.4951 7.97727L55.9854 13.487C55.9058 13.5668 55.7945 13.6091 55.6828 13.6014L51.9579 13.3676Z" fill="#FF5410"/>
</svg>
