<svg width="64" height="64" viewBox="0 0 64 64" fill="none" xmlns="http://www.w3.org/2000/svg">
<circle cx="32" cy="32" r="32" fill="#FF5410"/>
<g clip-path="url(#clip0_2001_2045)">
<path d="M26.9868 42.375C27.8498 42.375 28.5493 41.6754 28.5493 40.8125C28.5493 39.9496 27.8498 39.25 26.9868 39.25C26.1239 39.25 25.4243 39.9496 25.4243 40.8125C25.4243 41.6754 26.1239 42.375 26.9868 42.375Z" fill="white"/>
<path d="M43.1945 18.8832C42.5451 18.2331 41.6814 17.875 40.7625 17.875H40.1403V19.125C40.1403 20.5035 39.0188 21.625 37.6403 21.625H26.3903C25.0118 21.625 23.8903 20.5035 23.8903 19.125V17.875H23.2625C21.3692 17.875 19.8271 19.4154 19.825 21.3087L19.7993 44.5587C19.7983 45.4776 20.1554 46.3417 20.8048 46.9918C21.4541 47.6419 22.3179 48 23.2368 48H40.7368C42.6301 48 44.1722 46.4596 44.1743 44.5663L44.2 21.3163C44.201 20.3974 43.8439 19.5333 43.1945 18.8832ZM23.5493 40.8125C23.5493 38.9171 25.0913 37.375 26.9868 37.375C28.8822 37.375 30.4243 38.9171 30.4243 40.8125C30.4243 42.7079 28.8822 44.25 26.9868 44.25C25.0913 44.25 23.5493 42.7079 23.5493 40.8125ZM34.4301 25.4484C34.064 25.0824 34.064 24.4888 34.4301 24.1226C34.7962 23.7566 35.3898 23.7566 35.7559 24.1226L37.3028 25.6694L38.8496 24.1226C39.2156 23.7566 39.8093 23.7566 40.1754 24.1226C40.5415 24.4887 40.5415 25.0823 40.1754 25.4484L38.6286 26.9952L40.1754 28.5421C40.5415 28.9081 40.5415 29.5017 40.1754 29.8679C39.9923 30.0509 39.7524 30.1425 39.5125 30.1425C39.2726 30.1425 39.0326 30.0509 38.8496 29.8679L37.3028 28.3211L35.756 29.8679C35.5729 30.0509 35.333 30.1425 35.0931 30.1425C34.8533 30.1425 34.6133 30.0509 34.4303 29.8679C34.0641 29.5018 34.0641 28.9082 34.4303 28.5421L35.9771 26.9952L34.4301 25.4484ZM26.0598 24.4176C26.4259 24.0515 27.0195 24.0515 27.3856 24.4176L29.6032 26.6351C29.9693 27.0012 29.9693 27.5948 29.6032 27.9609C29.4201 28.144 29.1802 28.2356 28.9403 28.2356C28.7004 28.2356 28.4604 28.144 28.2774 27.9609L27.6653 27.3488V30.5867C27.6653 31.747 28.3941 32.8036 29.4788 33.2157L34.9278 35.2864C36.7356 35.9733 37.9502 37.7343 37.9502 39.6681V43.3125C37.9502 43.8302 37.5304 44.25 37.0127 44.25C36.4949 44.25 36.0752 43.8302 36.0752 43.3125V39.6681C36.0752 38.5078 35.3464 37.4513 34.2618 37.0391L28.8128 34.9684C27.0049 34.2815 25.7903 32.5206 25.7903 30.5867V27.3387L25.1782 27.9508C24.8121 28.3169 24.2185 28.3169 23.8524 27.9508C23.4863 27.5848 23.4863 26.9911 23.8524 26.625L26.0598 24.4176Z" fill="white"/>
<path d="M25.7656 19.125C25.7656 19.4702 26.0454 19.75 26.3906 19.75H37.6406C37.9858 19.75 38.2656 19.4702 38.2656 19.125V16.625C38.2656 16.2798 37.9858 16 37.6406 16H26.3906C26.0454 16 25.7656 16.2798 25.7656 16.625V19.125Z" fill="white"/>
</g>
<defs>
<clipPath id="clip0_2001_2045">
<rect width="32" height="32" fill="white" transform="translate(16 16)"/>
</clipPath>
</defs>
</svg>
