<svg width="64" height="64" viewBox="0 0 64 64" fill="none" xmlns="http://www.w3.org/2000/svg">
<circle cx="32" cy="32" r="32" fill="#FF5410"/>
<g clip-path="url(#clip0_2001_2120)">
<path d="M41.4939 26.464C40.9757 26.464 40.5557 26.8841 40.5557 27.4022V44.1965H46.0449V27.4022C46.0449 26.8841 45.6248 26.464 45.1067 26.464H41.4939Z" fill="white"/>
<path d="M33.906 32.916C33.3878 32.916 32.9678 33.3361 32.9678 33.8542V44.1964H38.457V33.8542C38.457 33.3361 38.0369 32.916 37.5188 32.916H33.906Z" fill="white"/>
<path d="M47.068 46.059H16.9382C16.4201 46.059 16 46.479 16 46.9972C16 47.5153 16.4201 47.9354 16.9382 47.9354H47.068C48.3017 47.8938 48.3195 46.1079 47.068 46.059Z" fill="white"/>
<path d="M23.2812 36.231C23.2812 35.7129 22.8611 35.2928 22.343 35.2928H18.7302C18.2121 35.2928 17.792 35.7129 17.792 36.231V44.1964H23.2811L23.2812 36.231Z" fill="white"/>
<path d="M26.3181 30.5459C25.7999 30.5459 25.3799 30.966 25.3799 31.4841V44.1965H30.869V31.4841C30.869 30.966 30.449 30.5459 29.9308 30.5459H26.3181Z" fill="white"/>
<path d="M20.6201 32.9326C22.6521 32.9637 24.0367 30.7389 23.1479 28.9341L26.5271 25.5549C27.387 26.1163 28.5956 26.1282 29.4669 25.5847L33.085 27.4732C33.3951 28.6809 34.4931 29.5761 35.7962 29.5761C37.6137 29.604 39.0019 27.7723 38.4936 26.0325L42.1507 22.3754C43.9618 23.2998 46.2101 21.9065 46.1829 19.8637C46.1829 18.3205 44.9274 17.065 43.3841 17.065C41.3807 17.0305 39.9742 19.2343 40.8413 21.0312L37.3924 24.4801C36.0563 23.505 34.0388 24.0268 33.3182 25.4783L30.6689 24.0955C31.3016 22.3108 29.9174 20.3659 28.0205 20.3888C26.1371 20.3658 24.7532 22.2872 25.3625 24.0659L21.8211 27.6073C20.7818 27.1148 19.4997 27.2974 18.6411 28.156C16.8791 29.91 18.1621 32.9493 20.6201 32.9326Z" fill="white"/>
</g>
<defs>
<clipPath id="clip0_2001_2120">
<rect width="32" height="32" fill="white" transform="translate(16 16.5)"/>
</clipPath>
</defs>
</svg>
