<svg width="29" height="29" viewBox="0 0 29 29" fill="none" xmlns="http://www.w3.org/2000/svg">
<circle cx="14.5" cy="14.5" r="14.5" fill="#FF5410"/>
<path d="M13.9118 21.7177C13.7353 21.9059 13.5441 22 13.3382 22C13.152 22 12.9706 21.9307 12.7941 21.792L11.9853 21.1829C11.7696 20.9848 11.6618 20.7916 11.6618 20.6034C11.6618 20.4152 11.75 20.232 11.9265 20.0537C12.2304 19.7467 12.5588 19.405 12.9118 19.0286C13.2647 18.6423 13.6127 18.2411 13.9559 17.8251C14.299 17.4091 14.6225 16.9882 14.9265 16.5623C15.2304 16.1364 15.4853 15.7154 15.6912 15.2994C15.7402 15.2202 15.7696 15.1459 15.7794 15.0766C15.799 15.0072 15.8088 14.9429 15.8088 14.8834C15.8088 14.6952 15.7108 14.4971 15.5147 14.2891C15.3284 14.0811 15.0833 13.8731 14.7794 13.6651C14.4755 13.4571 14.1275 13.2541 13.7353 13.056C13.3529 12.848 12.9657 12.6598 12.5735 12.4914C12.1814 12.3131 11.8039 12.1547 11.4412 12.016C11.0784 11.8674 10.7696 11.7486 10.5147 11.6594C10.1716 11.5208 10 11.3276 10 11.08C10 10.981 10.049 10.8175 10.1471 10.5897C10.2549 10.3619 10.3873 10.1291 10.5441 9.89143C10.701 9.65371 10.8725 9.44571 11.0588 9.26743C11.2549 9.08914 11.4363 9 11.6029 9C11.652 9 11.701 9.00495 11.75 9.01486C11.8088 9.01486 11.8676 9.02971 11.9265 9.05943C12.4559 9.24762 12.9804 9.46057 13.5 9.69829C14.0196 9.936 14.5392 10.1935 15.0588 10.4709C15.4118 10.6491 15.8137 10.8621 16.2647 11.1097C16.7255 11.3573 17.1569 11.6347 17.5588 11.9417C17.9608 12.2488 18.299 12.5905 18.5735 12.9669C18.8578 13.3333 19 13.7394 19 14.1851C19 14.7101 18.8235 15.2994 18.4706 15.9531C18.1275 16.6069 17.6961 17.2754 17.1765 17.9589C16.6667 18.6423 16.1176 19.3109 15.5294 19.9646C14.9412 20.6183 14.402 21.2027 13.9118 21.7177Z" fill="white"/>
</svg>
