<svg width="168" height="57" viewBox="0 0 168 57" fill="none" xmlns="http://www.w3.org/2000/svg">
<g clip-path="url(#clip0_23_82)">
<path d="M47.9466 25.7548L43.7302 28.4873C43.7302 28.4873 48.8941 19.5016 44.7196 13.7513C44.7196 13.7513 43.4676 16.5026 39.7371 18.5032C39.7371 18.5032 40.7683 4.50037 27.4152 4.25014C14.0633 4.00117 10.929 0 10.929 0C10.929 0 4.72997 4.99957 10.0271 13.7513C10.0271 13.7513 3.72534 12.3091 1.70468 8.53046C1.70468 8.53046 0.946137 17.2873 5.48597 20.3956L0.121634 18.7534C0.121634 18.7534 0.0835804 19.1659 0.0531373 19.8788C-0.106689 23.367 -0.19675 34.0967 4.26698 39.686C4.22385 39.8042 4.19975 39.9299 4.19975 40.062V40.5147C4.19975 40.9925 4.50672 41.3999 4.93419 41.5546C5.12827 46.5478 9.28756 50.5515 14.3716 50.5515C19.4556 50.5515 23.8166 46.3517 23.8166 41.1899C23.8166 41.0516 23.8128 40.912 23.8064 40.7687C24.3113 40.6291 24.8364 40.5637 25.3831 40.5624C25.9222 40.5599 26.4499 40.6291 26.9547 40.7687C26.9484 40.912 26.9446 41.0516 26.9446 41.1899C26.9446 46.3517 31.1813 50.5515 36.3896 50.5515C41.5979 50.5515 45.6329 46.5478 45.827 41.5546C46.2557 41.3999 46.5614 40.9912 46.5614 40.5147V40.062C46.5614 39.9111 46.5297 39.7665 46.4739 39.6357C46.8582 38.8825 49.9203 32.5601 47.9466 25.7548ZM14.3855 48.6063C10.2605 48.6063 6.90412 45.2791 6.90412 41.1899C6.90412 37.1007 10.2605 33.7735 14.3855 33.7735C18.5106 33.7735 21.8669 37.1007 21.8669 41.1899C21.8669 45.2791 18.5106 48.6063 14.3855 48.6063ZM25.3844 38.4323C24.7286 38.4311 24.0842 38.5002 23.4627 38.6511C22.9388 36.8102 21.8428 35.1492 20.3359 33.9307C18.659 32.5739 16.5406 31.827 14.3728 31.827C10.5839 31.827 7.22631 34.0753 5.73967 37.3937V30.2816C5.73967 29.6906 5.85002 29.1021 6.09103 28.5614C6.18743 28.3452 6.29398 28.1566 6.41195 28.0044C8.00895 25.9208 12.3813 29.7548 19.3604 29.0883C26.3395 28.4219 27.7678 26.0881 27.7678 26.0881C27.7678 26.0881 27.4647 31.1945 23.9003 32.3866C23.9003 32.3866 32.6438 32.506 35.8391 28.1716C35.8391 28.1716 40.2939 28.0849 41.9772 31.4762C42.4884 32.506 42.9209 33.6692 43.2761 34.7908C41.537 32.9549 39.0711 31.8283 36.3883 31.8283C34.2205 31.8283 32.1022 32.5752 30.4253 33.932C28.9183 35.1504 27.8224 36.8115 27.2985 38.6524C26.6782 38.5015 26.03 38.4298 25.3844 38.4336V38.4323ZM36.3756 48.6063C32.2506 48.6063 28.8942 45.2791 28.8942 41.1899C28.8942 37.1007 32.2506 33.7735 36.3756 33.7735C40.5007 33.7735 43.857 37.1007 43.857 41.1899C43.857 45.2791 40.5007 48.6063 36.3756 48.6063Z" fill="#F15722"/>
<path d="M24.4154 56C20.7787 56 18.1378 54.5251 17.9729 54.4308C17.4363 54.1239 17.2524 53.4424 17.5619 52.9105C17.8714 52.3786 18.5551 52.1963 19.0929 52.5018C19.2997 52.6175 24.2087 55.3198 29.5387 52.4868C30.0842 52.1963 30.7653 52.4 31.0584 52.9419C31.3514 53.4839 31.1459 54.1579 30.5992 54.4484C28.4098 55.6127 26.2813 56.0013 24.4154 56.0013V56Z" fill="#F15722"/>
<path d="M16.0321 41.1044C16.5979 41.6614 17.1357 42.1933 17.6773 42.7202C17.8727 42.9101 18.0287 43.1175 18.087 43.3892C18.1974 43.9047 17.9627 44.4177 17.501 44.6692C17.0456 44.9169 16.4799 44.8428 16.1057 44.4756C15.5641 43.9424 15.0262 43.4055 14.4884 42.8686C14.458 42.8384 14.4377 42.7982 14.392 42.7315C14.3007 42.8371 14.2385 42.9176 14.1675 42.9893C13.6741 43.4822 13.1819 43.9751 12.6834 44.463C12.3498 44.7899 11.9477 44.893 11.4999 44.7598C11.0509 44.6252 10.7731 44.3159 10.6843 43.8607C10.6056 43.4545 10.7236 43.0974 11.0204 42.8019C11.557 42.2688 12.0923 41.7356 12.6301 41.2037C12.658 41.1761 12.6948 41.1585 12.7468 41.1245C12.5451 40.9296 12.3663 40.7611 12.1912 40.5876C11.8005 40.2028 11.4111 39.8168 11.0242 39.4282C10.6703 39.0724 10.5663 38.6486 10.7388 38.1808C10.9113 37.7118 11.2728 37.4566 11.7726 37.4176C12.124 37.3899 12.4297 37.5119 12.6808 37.7596C13.2187 38.2915 13.754 38.8247 14.2893 39.3591C14.3197 39.3892 14.3387 39.4295 14.3768 39.4848C14.4909 39.3654 14.5759 39.2685 14.6673 39.178C15.1442 38.7027 15.6199 38.2249 16.1032 37.7558C16.4342 37.4352 16.8351 37.3346 17.2778 37.4679C17.7205 37.6012 17.9983 37.9055 18.0896 38.3556C18.172 38.7618 18.0591 39.1214 17.7636 39.4169C17.2296 39.9513 16.6917 40.4832 16.1552 41.0151C16.1247 41.0453 16.0854 41.0667 16.0334 41.1056L16.0321 41.1044Z" fill="#F15722"/>
<path d="M37.5453 42.2612C37.5491 43.0521 37.5491 43.8041 37.5567 44.5573C37.5592 44.8276 37.5212 45.0841 37.369 45.3168C37.0798 45.7581 36.547 45.9568 36.0409 45.8109C35.5424 45.6663 35.1948 45.2174 35.1936 44.6956C35.1898 43.9386 35.1936 43.1829 35.1961 42.4259C35.1961 42.3832 35.2113 42.3404 35.2253 42.2612C35.0857 42.2713 34.9843 42.2851 34.8828 42.2851C34.1826 42.2876 33.4824 42.2914 32.7822 42.2876C32.3141 42.2851 31.9552 42.0751 31.7345 41.6677C31.5125 41.259 31.5378 40.8441 31.7991 40.4605C32.0325 40.1185 32.3712 39.9475 32.7924 39.9475C33.5522 39.9475 34.3107 39.945 35.0705 39.945C35.1098 39.945 35.1479 39.9588 35.21 39.9701C35.2062 39.691 35.2012 39.4458 35.1999 39.2019C35.1999 38.6561 35.1974 38.1104 35.2012 37.5634C35.205 37.0642 35.4333 36.6907 35.8887 36.4808C36.3453 36.2695 36.7829 36.3437 37.1648 36.6656C37.4324 36.8919 37.5618 37.1937 37.5631 37.5445C37.5631 38.2978 37.5631 39.0497 37.5592 39.8029C37.5592 39.8457 37.544 39.8884 37.5313 39.9525C37.6975 39.9475 37.8256 39.94 37.955 39.94C38.6311 39.9387 39.3085 39.9337 39.9846 39.94C40.4475 39.945 40.8027 40.155 41.0209 40.5599C41.2391 40.9648 41.2175 41.3747 40.9613 41.757C40.7304 42.1028 40.3943 42.2775 39.9744 42.2788C39.2146 42.2826 38.4561 42.2813 37.6962 42.2813C37.6531 42.2813 37.61 42.27 37.5453 42.2599V42.2612Z" fill="#F15722"/>
</g>
<path d="M67.6561 5.30193V7.51917H67.1964C66.7097 7.51917 66.3131 7.58226 66.0067 7.70845C65.7183 7.83463 65.5741 8.09602 65.5741 8.4926V22.1476H68.278C68.981 22.1476 69.5489 22.1205 69.9815 22.0664C70.4322 21.9943 70.7657 21.8772 70.982 21.7149C71.1983 21.5347 71.3155 21.2823 71.3335 20.9578L71.712 17.5508H74.416V24.5H57.976V22.2828H58.2463C58.679 22.2828 59.0305 22.2197 59.3009 22.0935C59.5713 21.9673 59.7065 21.7059 59.7065 21.3093V8.4926C59.7065 8.09602 59.5713 7.83463 59.3009 7.70845C59.0305 7.58226 58.679 7.51917 58.2463 7.51917H57.976V5.30193H67.6561ZM81.651 17.2534C81.651 18.1727 81.7231 18.9569 81.8673 19.6058C82.0115 20.2548 82.2278 20.7776 82.5162 21.1741C82.8227 21.5707 83.2102 21.8591 83.6789 22.0394C84.1656 22.2197 84.7335 22.3098 85.3824 22.3098C86.0494 22.3098 86.6172 22.2107 87.0859 22.0124C87.5726 21.8141 87.9872 21.5437 88.3297 21.2012C88.6903 20.8406 89.0057 20.4351 89.2761 19.9844L91.277 21.3364C90.8805 22.0755 90.3757 22.7064 89.7628 23.2291C89.168 23.7519 88.4469 24.1485 87.5997 24.4189C86.7704 24.6893 85.779 24.8245 84.6253 24.8245C82.8768 24.8245 81.3716 24.5361 80.1097 23.9592C78.8479 23.3824 77.8835 22.5351 77.2165 21.4175C76.5495 20.2818 76.216 18.9028 76.216 17.2804C76.216 15.7302 76.5405 14.3782 77.1894 13.2245C77.8564 12.0708 78.7848 11.1785 79.9745 10.5476C81.1643 9.89865 82.5433 9.57418 84.1116 9.57418C85.3734 9.57418 86.464 9.75444 87.3833 10.115C88.3027 10.4755 89.0598 11.0073 89.6547 11.7103C90.2676 12.4133 90.7272 13.3056 91.0337 14.3872C91.3401 15.4508 91.5024 16.6856 91.5204 18.0916H80.3531V16.0637H87.0048L86.491 16.8749C86.455 15.8473 86.3919 15.0091 86.3018 14.3602C86.2297 13.7112 86.1035 13.2155 85.9232 12.873C85.761 12.5125 85.5356 12.2601 85.2472 12.1159C84.9588 11.9717 84.6163 11.8996 84.2197 11.8996C83.8051 11.8996 83.4356 11.9897 83.1111 12.17C82.8047 12.3322 82.5433 12.6116 82.327 13.0082C82.1106 13.4048 81.9394 13.9546 81.8132 14.6576C81.705 15.3426 81.651 16.2079 81.651 17.2534ZM102.228 15.6581V17.5238C101.507 17.668 100.894 17.8212 100.389 17.9835C99.8846 18.1277 99.47 18.2989 99.1455 18.4972C98.8211 18.6955 98.5687 18.9028 98.3884 19.1191C98.2262 19.3354 98.109 19.5788 98.0369 19.8492C97.9648 20.1016 97.9288 20.372 97.9288 20.6604C97.9288 21.111 97.9919 21.4716 98.118 21.742C98.2442 21.9943 98.4245 22.1746 98.6588 22.2828C98.8932 22.3909 99.1816 22.445 99.5241 22.445C99.8486 22.445 100.155 22.3729 100.443 22.2287C100.75 22.0664 101.047 21.8141 101.336 21.4716C101.624 21.1291 101.922 20.6784 102.228 20.1196L102.444 21.4716C102.084 22.2647 101.678 22.9047 101.228 23.3914C100.777 23.8781 100.245 24.2386 99.6323 24.473C99.0374 24.6893 98.3344 24.7974 97.5232 24.7974C96.4957 24.7974 95.6304 24.6622 94.9274 24.3918C94.2424 24.1214 93.7286 23.7068 93.3861 23.148C93.0436 22.5712 92.8724 21.8411 92.8724 20.9578C92.8724 20.1827 93.0436 19.5157 93.3861 18.9569C93.7286 18.3981 94.2694 17.9204 95.0085 17.5238C95.7476 17.1092 96.712 16.7577 97.9017 16.4693C99.0915 16.1628 100.534 15.8924 102.228 15.6581ZM102.417 24.5L102.093 21.5797L101.877 21.6608V13.5219C101.877 13.1975 101.822 12.9181 101.714 12.6837C101.606 12.4314 101.408 12.2511 101.119 12.1429C100.849 12.0167 100.443 11.9537 99.9026 11.9537C99.1455 11.9537 98.5146 12.0528 98.0099 12.2511C97.5232 12.4494 97.1897 12.6747 97.0094 12.9271C96.8292 12.8369 96.721 12.7198 96.6849 12.5756C96.6669 12.4314 96.703 12.2871 96.7931 12.1429C96.8832 11.9987 97.0365 11.8816 97.2528 11.7914C97.4691 11.6833 97.7395 11.6292 98.064 11.6292V14.7928H93.7376V11.3047C94.0261 11.1244 94.4587 10.8991 95.0355 10.6287C95.6304 10.3583 96.3785 10.115 97.2798 9.89865C98.1992 9.68233 99.2627 9.57418 100.47 9.57418C101.534 9.57418 102.48 9.67332 103.31 9.87161C104.157 10.0519 104.869 10.3403 105.446 10.7369C106.041 11.1154 106.491 11.6112 106.798 12.2241C107.104 12.8189 107.257 13.5219 107.257 14.3331V21.5257C107.257 21.6879 107.302 21.8231 107.393 21.9312C107.483 22.0214 107.609 22.0935 107.771 22.1476C107.951 22.2016 108.177 22.2557 108.447 22.3098L108.636 22.3639V24.5H102.417ZM121.878 9.79049V14.6576C121.733 14.6396 121.526 14.6216 121.256 14.6035C120.985 14.5675 120.697 14.5404 120.39 14.5224C120.084 14.5044 119.796 14.4954 119.525 14.4954C119.165 14.4954 118.813 14.5224 118.471 14.5765C118.146 14.6125 117.84 14.6756 117.551 14.7658C117.263 14.8559 117.001 14.9821 116.767 15.1443C116.533 15.2885 116.307 15.4778 116.091 15.7122L115.983 14.7658C116.416 13.6662 116.83 12.7378 117.227 11.9807C117.641 11.2236 118.119 10.6467 118.66 10.2502C119.201 9.83556 119.895 9.62826 120.742 9.62826C121.012 9.62826 121.247 9.64628 121.445 9.68233C121.643 9.71839 121.787 9.75444 121.878 9.79049ZM109.737 24.5V22.5532H109.791C110.205 22.5532 110.521 22.463 110.737 22.2828C110.972 22.1025 111.089 21.76 111.089 21.2553V12.9271C111.089 12.7468 111.044 12.6116 110.954 12.5215C110.881 12.4314 110.764 12.3592 110.602 12.3052C110.44 12.2331 110.224 12.17 109.953 12.1159L109.737 12.0618V9.87161H116.064L116.443 14.2791L116.632 14.225V22.2557C116.632 22.3278 116.713 22.3909 116.875 22.445C117.056 22.481 117.281 22.5081 117.551 22.5261C117.822 22.5441 118.101 22.5532 118.389 22.5532H118.579V24.5H109.737ZM123.277 24.5V22.5532H123.331C123.601 22.5532 123.835 22.5171 124.034 22.445C124.232 22.3549 124.376 22.2197 124.466 22.0394C124.575 21.8411 124.629 21.5797 124.629 21.2553V12.9271C124.629 12.7468 124.584 12.6116 124.493 12.5215C124.421 12.4314 124.304 12.3592 124.142 12.3052C123.98 12.2331 123.763 12.17 123.493 12.1159L123.277 12.0618V9.87161H129.631L129.955 13.2516L130.172 13.3056V22.3098C130.172 22.3639 130.226 22.4089 130.334 22.445C130.46 22.481 130.604 22.5081 130.767 22.5261C130.929 22.5441 131.082 22.5532 131.226 22.5532H131.334V24.5H123.277ZM141.204 24.5H133.146V22.5532H133.227C133.371 22.5532 133.525 22.5532 133.687 22.5532C133.867 22.5351 134.011 22.5081 134.119 22.472C134.246 22.418 134.309 22.3639 134.309 22.3098V14.252C134.309 13.8915 134.264 13.6031 134.174 13.3868C134.083 13.1524 133.939 12.9812 133.741 12.873C133.561 12.7468 133.308 12.6837 132.984 12.6837C132.587 12.6837 132.191 12.8099 131.794 13.0623C131.416 13.2966 131.028 13.6481 130.631 14.1168C130.253 14.5855 129.856 15.1894 129.442 15.9285L129.523 13.549C129.901 12.7739 130.379 12.0889 130.956 11.494C131.551 10.8811 132.218 10.4034 132.957 10.0609C133.714 9.71839 134.516 9.54714 135.363 9.54714C136.301 9.54714 137.103 9.7274 137.77 10.0879C138.437 10.4304 138.951 10.9442 139.311 11.6292C139.672 12.2962 139.852 13.1254 139.852 14.1168V21.2553C139.852 21.5797 139.897 21.8411 139.987 22.0394C140.095 22.2197 140.248 22.3549 140.447 22.445C140.645 22.5171 140.87 22.5532 141.123 22.5532H141.204V24.5ZM68.954 30.3019C70.0897 30.3019 71.0811 30.4011 71.9284 30.5994C72.7936 30.7796 73.5057 31.059 74.0645 31.4376C74.6413 31.8161 75.0739 32.2938 75.3624 32.8707C75.6688 33.4475 75.822 34.1145 75.822 34.8716C75.822 35.8631 75.5787 36.6833 75.092 37.3322C74.6233 37.9631 73.9563 38.4408 73.0911 38.7653C72.2258 39.0718 71.2073 39.27 70.0356 39.3602L70.5223 38.7112V40.1714L70.1167 39.3602C71.4146 39.4503 72.5412 39.6756 73.4966 40.0362C74.4701 40.3787 75.2182 40.8834 75.7409 41.5504C76.2817 42.2174 76.5521 43.0826 76.5521 44.1462C76.5521 45.0295 76.3899 45.8136 76.0654 46.4986C75.759 47.1656 75.2903 47.7244 74.6593 48.1751C74.0284 48.6077 73.2533 48.9412 72.3339 49.1755C71.4146 49.3918 70.351 49.5 69.1433 49.5H57.976V47.2828H58.2463C58.679 47.2828 59.0305 47.2197 59.3009 47.0935C59.5713 46.9673 59.7065 46.7059 59.7065 46.3093V33.4926C59.7065 33.096 59.5713 32.8346 59.3009 32.7084C59.0305 32.5823 58.679 32.5192 58.2463 32.5192H57.976V30.3019H68.954ZM64.3302 38.4138H67.4668C68.0437 38.4138 68.5124 38.3056 68.8729 38.0893C69.2514 37.873 69.5308 37.5395 69.7111 37.0889C69.8914 36.6202 69.9815 36.0163 69.9815 35.2772C69.9815 34.7004 69.8824 34.2136 69.6841 33.8171C69.5038 33.4205 69.2334 33.1231 68.8729 32.9248C68.5304 32.7084 68.0977 32.6003 67.575 32.6003H65.5741V47.2016H67.6831C68.3141 47.2016 68.8458 47.0845 69.2785 46.8501C69.7111 46.5978 70.0356 46.2282 70.2519 45.7415C70.4862 45.2368 70.6034 44.6058 70.6034 43.8487C70.6034 43.1097 70.4862 42.4968 70.2519 42.01C70.0356 41.5233 69.6931 41.1628 69.2244 40.9285C68.7737 40.6761 68.1879 40.5499 67.4668 40.5499H64.3302V38.4138ZM83.9219 42.2534C83.9219 43.1727 83.994 43.9569 84.1382 44.6058C84.2824 45.2548 84.4987 45.7776 84.7871 46.1741C85.0936 46.5707 85.4811 46.8591 85.9498 47.0394C86.4365 47.2197 87.0044 47.3098 87.6533 47.3098C88.3203 47.3098 88.8881 47.2107 89.3568 47.0124C89.8435 46.8141 90.2581 46.5437 90.6006 46.2012C90.9612 45.8406 91.2766 45.4351 91.547 44.9844L93.5479 46.3364C93.1514 47.0755 92.6466 47.7064 92.0337 48.2291C91.4389 48.7519 90.7178 49.1485 89.8706 49.4189C89.0413 49.6893 88.0499 49.8245 86.8962 49.8245C85.1477 49.8245 83.6425 49.5361 82.3806 48.9592C81.1188 48.3824 80.1544 47.5351 79.4874 46.4175C78.8204 45.2818 78.4869 43.9028 78.4869 42.2804C78.4869 40.7302 78.8114 39.3782 79.4603 38.2245C80.1273 37.0708 81.0557 36.1785 82.2454 35.5476C83.4352 34.8987 84.8142 34.5742 86.3825 34.5742C87.6443 34.5742 88.7349 34.7544 89.6542 35.115C90.5736 35.4755 91.3307 36.0073 91.9256 36.7103C92.5385 37.4133 92.9981 38.3056 93.3046 39.3872C93.611 40.4508 93.7733 41.6856 93.7913 43.0916H82.624V41.0637H89.2757L88.7619 41.8749C88.7259 40.8473 88.6628 40.0091 88.5727 39.3602C88.5006 38.7112 88.3744 38.2155 88.1941 37.873C88.0319 37.5125 87.8065 37.2601 87.5181 37.1159C87.2297 36.9717 86.8872 36.8996 86.4906 36.8996C86.076 36.8996 85.7065 36.9897 85.382 37.17C85.0755 37.3322 84.8142 37.6116 84.5979 38.0082C84.3815 38.4048 84.2103 38.9546 84.0841 39.6576C83.9759 40.3426 83.9219 41.2079 83.9219 42.2534ZM104.995 46.1741L103.454 48.7429L101.832 51.1494L95.991 38.1704C95.8468 37.864 95.7116 37.6296 95.5854 37.4674C95.4592 37.2871 95.306 37.17 95.1257 37.1159C94.9455 37.0438 94.7111 37.0077 94.4227 37.0077H94.2605V34.8716H102.913V36.9537H102.778C102.526 36.9537 102.273 36.9627 102.021 36.9807C101.786 36.9807 101.597 36.9987 101.453 37.0348C101.309 37.0528 101.237 37.0979 101.237 37.17L104.995 46.1741ZM104.887 49.0403C104.328 50.3022 103.787 51.3747 103.265 52.258C102.76 53.1413 102.228 53.8624 101.669 54.4212C101.129 54.98 100.534 55.3856 99.8847 55.638C99.2357 55.8903 98.4876 56.0165 97.6404 56.0165C97.0095 56.0165 96.4326 55.9534 95.9099 55.8273C95.4051 55.7011 95.0446 55.5659 94.8283 55.4217V51.7984C94.9004 51.8164 95.0897 51.8705 95.3961 51.9606C95.7206 52.0688 96.1172 52.1679 96.5859 52.258C97.0546 52.3662 97.5413 52.4203 98.046 52.4203C98.5688 52.4203 99.0284 52.3572 99.425 52.231C99.8396 52.1048 100.209 51.8975 100.534 51.6091C100.858 51.3207 101.156 50.9241 101.426 50.4193C101.714 49.9326 101.985 49.3197 102.237 48.5807L103.184 47.2287L107.402 37.4944C107.402 37.3863 107.33 37.2962 107.185 37.2241C107.059 37.1339 106.879 37.0708 106.645 37.0348C106.41 36.9807 106.158 36.9537 105.887 36.9537H105.752V34.8716H111.404V37.0077H111.241C110.971 37.0077 110.746 37.0528 110.565 37.1429C110.385 37.2331 110.214 37.3773 110.052 37.5756C109.907 37.7739 109.763 38.0443 109.619 38.3868L104.887 49.0403ZM128.4 42.1993C128.4 43.7496 128.076 45.1016 127.427 46.2553C126.778 47.3909 125.831 48.2742 124.587 48.9051C123.362 49.518 121.865 49.8245 120.099 49.8245C118.35 49.8245 116.854 49.518 115.61 48.9051C114.385 48.2742 113.447 47.3909 112.798 46.2553C112.149 45.1016 111.825 43.7496 111.825 42.1993C111.825 41.0276 112.005 39.9731 112.366 39.0357C112.726 38.0983 113.267 37.2962 113.988 36.6292C114.709 35.9622 115.574 35.4575 116.584 35.115C117.611 34.7544 118.783 34.5742 120.099 34.5742C121.415 34.5742 122.586 34.7544 123.614 35.115C124.641 35.4575 125.507 35.9622 126.21 36.6292C126.931 37.2962 127.472 38.0983 127.832 39.0357C128.211 39.9731 128.4 41.0276 128.4 42.1993ZM117.476 42.1993C117.476 43.4431 117.557 44.4526 117.719 45.2278C117.9 45.9849 118.179 46.5437 118.558 46.9042C118.954 47.2467 119.468 47.418 120.099 47.418C120.748 47.418 121.262 47.2467 121.64 46.9042C122.019 46.5437 122.289 45.9849 122.451 45.2278C122.632 44.4526 122.722 43.4431 122.722 42.1993C122.722 40.9555 122.632 39.955 122.451 39.1979C122.289 38.4408 122.019 37.891 121.64 37.5485C121.262 37.206 120.748 37.0348 120.099 37.0348C119.468 37.0348 118.954 37.206 118.558 37.5485C118.179 37.891 117.9 38.4408 117.719 39.1979C117.557 39.955 117.476 40.9555 117.476 42.1993ZM129.878 49.5V47.5532H129.932C130.203 47.5532 130.437 47.5171 130.635 47.445C130.833 47.3549 130.978 47.2197 131.068 47.0394C131.176 46.8411 131.23 46.5797 131.23 46.2553V37.9271C131.23 37.7468 131.185 37.6116 131.095 37.5215C131.023 37.4314 130.906 37.3592 130.743 37.3052C130.581 37.2331 130.365 37.17 130.094 37.1159L129.878 37.0618V34.8716H136.232L136.557 38.2516L136.773 38.3056V47.3098C136.773 47.3639 136.827 47.4089 136.935 47.445C137.062 47.481 137.206 47.5081 137.368 47.5261C137.53 47.5441 137.683 47.5532 137.828 47.5532H137.936V49.5H129.878ZM147.805 49.5H139.748V47.5532H139.829C139.973 47.5532 140.126 47.5532 140.288 47.5532C140.469 47.5351 140.613 47.5081 140.721 47.472C140.847 47.418 140.91 47.3639 140.91 47.3098V39.252C140.91 38.8915 140.865 38.6031 140.775 38.3868C140.685 38.1524 140.541 37.9812 140.342 37.873C140.162 37.7468 139.91 37.6837 139.585 37.6837C139.189 37.6837 138.792 37.8099 138.396 38.0623C138.017 38.2966 137.629 38.6481 137.233 39.1168C136.854 39.5855 136.458 40.1894 136.043 40.9285L136.124 38.549C136.503 37.7739 136.98 37.0889 137.557 36.494C138.152 35.8811 138.819 35.4034 139.558 35.0609C140.315 34.7184 141.118 34.5471 141.965 34.5471C142.902 34.5471 143.704 34.7274 144.371 35.0879C145.038 35.4304 145.552 35.9442 145.913 36.6292C146.273 37.2962 146.453 38.1254 146.453 39.1168V46.2553C146.453 46.5797 146.498 46.8411 146.589 47.0394C146.697 47.2197 146.85 47.3549 147.048 47.445C147.246 47.5171 147.472 47.5532 147.724 47.5532H147.805V49.5ZM165.376 46.5257C165.376 46.778 165.475 46.9493 165.674 47.0394C165.872 47.1295 166.169 47.2197 166.566 47.3098L166.755 47.3639V49.5H160.455L160.076 46.1471L159.86 46.4716V32.0054C159.86 31.8432 159.806 31.717 159.698 31.6269C159.608 31.5367 159.473 31.4646 159.292 31.4106C159.112 31.3384 158.896 31.2754 158.643 31.2213L158.427 31.1672V29.004H165.376V46.5257ZM155.615 34.5742C156.516 34.5742 157.3 34.7454 157.967 35.0879C158.652 35.4304 159.247 35.9262 159.752 36.5751C160.257 37.206 160.671 37.9812 160.996 38.9005V40.9014C160.509 40.1443 160.076 39.5134 159.698 39.0087C159.337 38.5039 158.968 38.1254 158.589 37.873C158.229 37.6206 157.796 37.4944 157.291 37.4944C156.823 37.4944 156.426 37.6026 156.102 37.8189C155.777 38.0172 155.507 38.3237 155.29 38.7383C155.092 39.1348 154.939 39.6396 154.831 40.2525C154.741 40.8654 154.696 41.5684 154.696 42.3616C154.696 43.1367 154.732 43.8127 154.804 44.3895C154.894 44.9483 155.029 45.417 155.209 45.7956C155.408 46.1561 155.651 46.4265 155.939 46.6068C156.228 46.787 156.597 46.8772 157.048 46.8772C157.535 46.8772 157.967 46.751 158.346 46.4986C158.742 46.2462 159.148 45.8406 159.563 45.2818C159.977 44.723 160.455 43.9749 160.996 43.0376V45.1196C160.581 46.111 160.112 46.9583 159.59 47.6613C159.085 48.3643 158.49 48.8961 157.805 49.2566C157.12 49.6172 156.3 49.7974 155.344 49.7974C153.992 49.7974 152.848 49.491 151.91 48.8781C150.973 48.2472 150.261 47.3729 149.774 46.2553C149.288 45.1376 149.044 43.8397 149.044 42.3616C149.044 40.8654 149.306 39.5314 149.828 38.3597C150.369 37.188 151.126 36.2687 152.1 35.6017C153.091 34.9167 154.263 34.5742 155.615 34.5742Z" fill="black"/>
<defs>
<clipPath id="clip0_23_82">
<rect width="48.6038" height="56" fill="white"/>
</clipPath>
</defs>
</svg>
