<svg xmlns="http://www.w3.org/2000/svg" width="16" height="16"><g fill="none" fill-rule="evenodd"><circle cx="8" cy="8" r="7" fill="#FFF"/><g fill="#FFC200" fill-rule="nonzero"><path d="M8 2.844A5.162 5.162 0 0 0 2.844 8 5.162 5.162 0 0 0 8 13.156 5.162 5.162 0 0 0 13.156 8 5.162 5.162 0 0 0 8 2.844zm1.406 8.437v.469a.468.468 0 1 1-.937 0v-.469H7.53v.469a.468.468 0 1 1-.937 0v-.469h-.469a.468.468 0 0 1-.469-.469V5.189c0-.26.21-.47.469-.47h.469V4.25a.468.468 0 1 1 .937 0v.469h.938V4.25a.468.468 0 1 1 .937 0v.73a1.868 1.868 0 0 1 .616 2.664c.73.255 1.26.945 1.26 1.762a1.878 1.878 0 0 1-1.876 1.875z"/><path d="M9.406 8.469H6.594v1.875h2.812a.939.939 0 0 0 0-1.875zm-.937-2.813H6.594v1.875h1.875a.939.939 0 0 0 0-1.875z"/><path d="M8 0C3.606 0 0 3.606 0 8s3.606 8 8 8 8-3.606 8-8-3.606-8-8-8zm0 14.094A6.1 6.1 0 0 1 1.906 8 6.1 6.1 0 0 1 8 1.906 6.1 6.1 0 0 1 14.094 8 6.1 6.1 0 0 1 8 14.094z"/></g></g></svg>