<svg xmlns="http://www.w3.org/2000/svg" width="20" height="20"><g fill="none"><path fill="#FFF" d="M7.063.938C4.75 1.75 2.75 3.5 1.625 5.688 1.25 6.438.937 7.25.812 8.124c-.437 2.063-.125 4.313.813 6.188A9.22 9.22 0 0 0 4.25 17.5a8.805 8.805 0 0 0 3.5 1.75 9.913 9.913 0 0 0 4.875.063 8.288 8.288 0 0 0 3.938-2.063c1.187-1.063 2-2.438 2.437-4 .5-1.625.563-3.375.25-5.063h-9v3.75h5.188c-.188 1.188-.938 2.313-1.938 2.938-.625.438-1.375.688-2.125.813a7.177 7.177 0 0 1-2.313 0c-.75-.126-1.5-.5-2.124-.938a5.74 5.74 0 0 1-2.188-2.938c-.438-1.187-.438-2.5 0-3.75.313-.812.75-1.624 1.375-2.25A5.037 5.037 0 0 1 9 4.25c.938-.188 1.875-.188 2.813.125.75.25 1.5.688 2.062 1.188l1.75-1.75.938-.938A9.8 9.8 0 0 0 13.5.937a10.304 10.304 0 0 0-6.438 0z"/><path fill="#EA4335" d="M7.063.938C9.124.25 11.438.25 13.5 1c1.125.438 2.188 1.063 3.063 1.938l-.938.937-1.75 1.75a4.59 4.59 0 0 0-2.063-1.188A6.088 6.088 0 0 0 9 4.313c-1.063.25-2.063.813-2.875 1.563a5.626 5.626 0 0 0-1.375 2.25C3.687 7.312 2.687 6.5 1.625 5.687 2.75 3.5 4.75 1.75 7.063.938z"/><path fill="#FBBC05" d="M.813 8.125a12.4 12.4 0 0 1 .812-2.438C2.688 6.5 3.688 7.313 4.75 8.126c-.438 1.188-.438 2.5 0 3.75-1.063.813-2.063 1.625-3.125 2.438-.938-1.938-1.25-4.126-.813-6.188z"/><path fill="#4285F4" d="M10.188 8.188h9c.312 1.687.25 3.437-.25 5.062a8.908 8.908 0 0 1-2.438 4c-1-.813-2-1.563-3.063-2.375a4.75 4.75 0 0 0 1.938-2.938h-5.188v-3.75z"/><path fill="#34A853" d="M1.625 14.313c1.063-.813 2.063-1.626 3.125-2.438a5.74 5.74 0 0 0 2.188 2.938c.625.437 1.375.75 2.125.937.75.125 1.5.125 2.312 0 .75-.125 1.5-.438 2.125-.813 1 .813 2 1.563 3.063 2.376a9.187 9.187 0 0 1-3.938 2.062c-1.625.375-3.313.375-4.875-.063-1.25-.312-2.438-.937-3.5-1.75-1.063-.937-2-2.062-2.625-3.25z"/></g></svg>