<svg xmlns="http://www.w3.org/2000/svg" width="32" height="20"><g fill="none"><path fill="#F6F6F6" d="M29.6 0h-28C.8 0 0 .8 0 1.6v16C0 19.2.8 20 2.4 20h27.2c1.6 0 2.4-.8 2.4-2.4V2.4C32 .8 31.2 0 29.6 0z"/><path fill="#306FC5" d="M30.353 6.691h-.841a.482.482 0 0 0-.443.326l-.008.022-.054.243-1.154 5.093-.05.21.002.002a.27.27 0 0 0 .25.342l.003.003h.872a.484.484 0 0 0 .44-.322c.004-.009.008-.017.01-.025l1.259-5.546h-.002c.043-.19-.083-.348-.284-.348zm-4.309 5.006c-.117.071-.24.132-.369.184a1.351 1.351 0 0 1-.49.104c-.233 0-.412-.032-.533-.1-.122-.066-.185-.18-.183-.341 0-.188.044-.333.136-.447a.975.975 0 0 1 .4-.263 3.55 3.55 0 0 1 .62-.136c.213-.026.637-.073.69-.074.055 0 .091-.03.067.111-.01.061-.133.55-.19.772a.437.437 0 0 1-.148.19s.042-.026 0 0zm1.661-3.434c-.356-.194-.914-.291-1.677-.291-.377 0-.757.029-1.137.087-.28.041-.308.048-.482.085-.357.075-.412.423-.412.423l-.114.46c-.065.293.106.28.183.258.156-.046.24-.091.558-.161.304-.067.625-.118.882-.116.375 0 .661.04.851.118.19.08.284.218.284.414 0 .047.002.091-.015.13-.016.036-.046.07-.136.082-.536.031-.92.079-1.384.145-.458.063-.858.17-1.193.319-.356.154-.623.36-.807.621-.179.262-.269.58-.27.955 0 .353.131.642.384.866.255.22.588.33.99.33.251-.002.448-.02.59-.053a3.15 3.15 0 0 0 .452-.151c.12-.05.25-.12.386-.209.137-.089.232-.152.354-.23l.004.008-.034.147-.002.004v.002a.272.272 0 0 0 .251.342l.003.004h.873c.009 0 .01-.003.013-.005a.485.485 0 0 0 .402-.343l.686-2.882a1.56 1.56 0 0 0 .035-.236c.009-.09.02-.166.016-.22a.96.96 0 0 0-.534-.903zm-4.129-.656a1.412 1.412 0 0 0-.517-.54 2.37 2.37 0 0 0-.816-.291 6.73 6.73 0 0 0-1.105-.085l-1.964.001a.486.486 0 0 0-.447.349l-1.321 5.595c-.048.19.083.349.282.348l.942-.002c.2.002.404-.155.451-.346l.319-1.358a.48.48 0 0 1 .45-.346h.269c1.15 0 2.04-.23 2.68-.688.636-.46.956-1.064.956-1.814-.002-.328-.06-.604-.179-.823zm-2.026 1.83c-.282.2-.676.3-1.185.3h-.233c-.202.001-.333-.158-.285-.348L20.13 8.2a.478.478 0 0 1 .446-.346l.309-.002c.36.002.63.06.816.177.183.118.271.301.273.545 0 .372-.14.658-.423.862z"/><path fill="#265697" d="M16.967 7.972c-.179 0-.413.141-.524.313 0 0-1.197 2.009-1.314 2.21-.064.108-.129.039-.14-.001l-.37-2.196c-.041-.173-.226-.321-.456-.32h-.746c-.18 0-.292.142-.252.312 0 0 .57 3.166.681 3.91.056.413-.005.486-.005.486l-.74 1.263c-.108.17-.049.311.13.311h.865c.179 0 .416-.14.522-.312l3.326-5.51s.319-.47.025-.466c-.2.002-1.002 0-1.002 0zm-6.244 3.725c-.117.071-.24.132-.369.184a1.361 1.361 0 0 1-.49.104c-.232 0-.412-.032-.534-.1-.12-.066-.185-.18-.183-.342 0-.187.045-.332.137-.446a.972.972 0 0 1 .4-.264c.17-.056.379-.102.619-.135.214-.026.638-.073.692-.074.054 0 .09-.03.066.111-.01.061-.133.55-.19.772a.444.444 0 0 1-.148.19s.04-.026 0 0zm1.661-3.434c-.356-.194-.914-.291-1.677-.291-.377 0-.757.029-1.137.086-.28.042-.308.049-.482.086-.357.075-.412.423-.412.423l-.114.46c-.065.293.107.28.183.258.155-.046.24-.091.558-.162a4.26 4.26 0 0 1 .881-.115c.376 0 .662.04.852.117.19.081.284.219.284.415a.3.3 0 0 1-.015.13c-.016.036-.046.07-.136.082-.536.032-.92.079-1.385.145-.457.063-.857.17-1.192.319-.357.154-.623.36-.807.621-.18.262-.27.58-.27.955 0 .353.131.642.383.866.256.22.588.33.99.33a2.73 2.73 0 0 0 .59-.053 3.03 3.03 0 0 0 .452-.151c.12-.05.25-.12.387-.209s.232-.152.354-.23l.004.008-.034.147-.002.004v.002a.272.272 0 0 0 .251.342l.003.004h.872c.01 0 .01-.003.014-.005a.487.487 0 0 0 .402-.343l.686-2.882c.015-.068.028-.146.035-.236.009-.091.019-.166.016-.22a.96.96 0 0 0-.534-.903zm-4.289-.656a1.412 1.412 0 0 0-.517-.54 2.37 2.37 0 0 0-.816-.291 6.73 6.73 0 0 0-1.105-.085l-1.964.001a.486.486 0 0 0-.447.349l-1.321 5.595c-.048.19.083.349.282.348l.942-.002c.2.002.404-.155.451-.346l.319-1.358a.48.48 0 0 1 .45-.346h.269c1.15 0 2.04-.23 2.679-.688.637-.46.957-1.064.957-1.814-.002-.328-.06-.604-.179-.823zM6.07 9.437c-.282.2-.677.3-1.185.3h-.233c-.202.001-.333-.158-.285-.348L4.648 8.2a.478.478 0 0 1 .446-.346l.309-.002c.36.002.63.06.816.177.183.118.271.301.273.545 0 .372-.14.658-.423.862z"/></g></svg>