<svg xmlns="http://www.w3.org/2000/svg" width="83" height="68"><g fill="#29BE68" fill-rule="evenodd"><text font-family="HappyMonkey-Regular, Happy Monkey" font-size="13" transform="rotate(29 54.233 26.433)"><tspan x="5" y="31">1 month free</tspan></text><path fill-rule="nonzero" stroke="#222838" d="M1.307 58.903l-.001.001a1.18 1.18 0 0 0-.203.344c-.016.038-.026.074-.038.113a1.274 1.274 0 0 0-.053.298c-.003.038-.009.074-.008.113 0 .02-.005.038-.004.057a1.3 1.3 0 0 0 .068.344c.003.011.011.02.015.032.044.12.107.225.182.322.01.014.014.032.025.045l5.155 6.073c.395.465 1.042.474 1.447.019.404-.455.412-1.201.016-1.667L5.13 61.722c4.06.538 8.052-.316 8.24-.358C25.694 59.13 34.414 47.75 32.81 35.996c-.08-.582-.513-.996-1.01-.996a.969.969 0 0 0-.16.013c-.558.102-.939.705-.852 1.348 1.429 10.47-6.528 20.641-17.768 22.68-.052.011-4.176.896-8.059.286l4.289-2.546c.502-.299.699-1.01.44-1.589-.258-.579-.874-.804-1.378-.508l-6.76 4.014a1.084 1.084 0 0 0-.245.205z"/></g></svg>