<svg width="179" height="23" viewBox="0 0 179 23" fill="none" xmlns="http://www.w3.org/2000/svg">
<g clip-path="url(#clip0_525_4312)">
<path d="M112.922 7.32373V20.5353H116.831V7.32373H112.922ZM114.892 2.00809C116.445 2.00809 117.193 2.99147 117.193 4.24136C117.193 5.49125 116.445 6.39406 114.892 6.39406C113.338 6.39406 112.562 5.43753 112.562 4.24136C112.562 3.04518 113.338 2.00809 114.892 2.00809Z" fill="#050A52"/>
<path d="M169.71 20.5354V9.82144L168.906 7.32373H172.649L173.453 9.58385C174.119 7.9621 175.476 7.05929 177.445 7.05929C178.027 7.05929 178.583 7.16465 178.999 7.29894V10.9143C178.555 10.7821 178.057 10.7015 177.501 10.7015C174.784 10.7015 173.593 12.5092 173.593 14.9553V20.5374H169.712L169.71 20.5354Z" fill="#050A52"/>
<path d="M141.1 20.5353H136.304L132.117 7.32373H136.442L139.075 16.9716L141.46 9.47643L140.766 7.32373H144.897L147.698 16.9985L150.275 7.32373H154.352L150.109 20.5353H145.341L143.261 14.2343L141.1 20.5353Z" fill="#050A52"/>
<path d="M100.002 20.5354L93.5703 2.51218H98.1168L102.441 16.387L106.988 2.51218H111.259L104.799 20.5354H100.002Z" fill="#050A52"/>
<path d="M167.846 13.7302C167.846 9.79664 165.323 7.05722 161.442 7.05722C156.978 7.05722 154.316 10.247 154.316 13.9946C154.316 17.7422 156.949 20.7729 161.248 20.7729C164.159 20.7729 166.017 19.8433 167.32 18.2484L164.769 16.201C163.993 17.1576 162.94 17.7422 161.526 17.7422C159.613 17.7422 158.505 16.6783 158.255 15.0049H167.792C167.82 14.5793 167.848 14.1805 167.848 13.7281L167.846 13.7302ZM163.909 12.6662H158.253C158.503 10.9908 159.391 10.0074 161.302 10.0074C163.05 10.0074 163.881 11.2304 163.907 12.6662H163.909Z" fill="#050A52"/>
<path d="M132.017 13.7302C132.017 9.79664 129.521 7.05722 125.613 7.05722C121.204 7.05722 118.543 10.247 118.543 13.9946C118.543 17.7422 121.122 20.7729 125.475 20.7729C128.386 20.7729 130.215 19.8433 131.547 18.2484L128.996 16.201C128.192 17.1576 127.166 17.7422 125.753 17.7422C123.839 17.7422 122.704 16.6783 122.454 15.0049H131.963C132.019 14.5793 132.019 14.1805 132.019 13.7281L132.017 13.7302ZM128.108 12.6662H122.452C122.702 10.9908 123.615 10.0074 125.529 10.0074C127.248 10.0074 128.08 11.2304 128.108 12.6662Z" fill="#050A52"/>
<path d="M34.1206 20.5126V5.91889H27.8008V2.48945H44.4892V5.91889H38.1974V20.5126H34.1206Z" fill="#050A52"/>
<path d="M55.081 13.7074C55.081 9.77392 52.4759 7.03449 48.5931 7.03449C44.1565 7.03449 41.5234 10.2243 41.5234 13.9719C41.5234 17.7195 44.1285 20.7502 48.4832 20.7502C51.3943 20.7502 53.2516 19.8205 54.5272 18.2256L51.976 16.1783C51.2283 17.1348 50.1467 17.7195 48.7052 17.7195C46.8198 17.7195 45.7101 16.6555 45.4881 14.9821H54.997C55.025 14.5565 55.081 14.1578 55.081 13.7054V13.7074ZM45.4881 12.6435C45.7101 10.968 46.6258 9.98464 48.5112 9.98464C50.2867 9.98464 51.0904 11.2077 51.1443 12.6435H45.4881Z" fill="#050A52"/>
<path d="M70.855 17.986V7.301H67.444V8.76368H67.416C66.4464 7.75344 65.0587 7.03656 63.2013 7.03656C59.2366 7.03656 56.5195 9.98671 56.5195 13.9471C56.5195 17.9075 59.2366 20.7523 63.2013 20.7523C65.0587 20.7523 66.4442 20.1676 67.416 19.1574H67.444L67.8879 20.5126H71.7147L70.855 17.9881V17.986ZM63.9512 17.6678C61.734 17.6678 60.5683 15.9676 60.5683 13.8665C60.5683 11.9783 61.706 10.1458 63.9512 10.1458C66.1964 10.1458 67.3621 12.0072 67.3621 13.8665C67.3621 15.9655 66.3925 17.6678 63.9512 17.6678Z" fill="#050A52"/>
<path d="M80.1992 10.4371C78.6737 10.4371 77.842 11.5795 77.842 13.255V20.5126H73.9333V9.79871L73.1016 7.301H76.9284L77.5942 9.34834C78.232 8.0468 79.5076 7.03656 81.5869 7.03656C83.2503 7.03656 84.4139 7.80715 85.0797 9.05704C85.9955 7.88772 87.409 7.03656 89.4883 7.03656C92.7592 7.03656 93.9788 9.37519 93.9788 12.6187V20.5126H90.0701V13.0959C90.0701 11.3151 89.6542 10.4371 88.2407 10.4371C86.8272 10.4371 85.9114 11.5795 85.9114 13.255V20.5395H82.0308V13.0959C82.0308 11.3151 81.5869 10.4371 80.2014 10.4371H80.1992Z" fill="#050A52"/>
<path d="M20.4398 0H3.551C1.59019 0 0 1.52466 0 3.40465V19.5974C0 21.4774 1.59019 23.0021 3.551 23.0021H20.4398C22.4006 23.0021 23.9908 21.4774 23.9908 19.5974V3.40465C23.9908 1.52466 22.4006 0 20.4398 0ZM11.9954 20.7461C6.66889 20.7461 2.35081 16.6059 2.35081 11.499C2.35081 6.39199 6.66889 2.25393 11.9954 2.25393C17.3219 2.25393 21.64 6.39405 21.64 11.501C21.64 16.608 17.3219 20.7481 11.9954 20.7481V20.7461Z" fill="#050A52"/>
<path d="M20.1612 11.499L13.9383 8.23893L14.6235 10.2945H9.36599L10.049 8.23893L3.82617 11.501L10.049 14.7631L9.36599 12.7055H14.6235L13.9383 14.7631L20.1612 11.499Z" fill="#050A52"/>
</g>
<defs>
<clipPath id="clip0_525_4312">
<rect width="179" height="23" fill="white"/>
</clipPath>
</defs>
</svg>
