<svg width="113" height="32" viewBox="0 0 113 32" fill="none" xmlns="http://www.w3.org/2000/svg">
<path d="M17.0338 12.1349C17.0338 11.8997 16.99 11.8365 16.7328 11.8365H12.6408C12.3817 11.8365 12.3398 11.8997 12.3398 12.1349V13.522C12.3398 13.7572 12.3837 13.8204 12.6408 13.8204H14.2992V22.0862C14.2992 22.3214 14.343 22.3846 14.6001 22.3846H16.7328C16.992 22.3846 17.0338 22.3214 17.0338 22.0862V12.1349Z" fill="#232323"/>
<path d="M70.9795 8.27764C70.9795 7.29555 70.1823 6.52687 69.2136 6.52687C68.2449 6.52687 67.4257 7.29555 67.4257 8.27764C67.4257 9.25973 68.223 10.0501 69.2136 10.0501C70.2042 10.0501 70.9795 9.25973 70.9795 8.27764Z" fill="#232323"/>
<path d="M70.6228 12.1349C70.6228 11.8997 70.5789 11.8365 70.3218 11.8365H66.2278C65.9687 11.8365 65.9268 11.8997 65.9268 12.1349V13.522C65.9268 13.7572 65.9687 13.8204 66.2278 13.8204H67.8861V22.0862C67.8861 22.3214 67.928 22.3846 68.1871 22.3846H70.3198C70.5789 22.3846 70.6208 22.3214 70.6208 22.0862V12.1349H70.6228Z" fill="#232323"/>
<path d="M42.0444 0.744974C35.9034 -0.0395135 32.6545 -0.286518 27.3167 0.405096C22.8679 0.982099 18.0384 2.57676 13.5557 4.95789C11.132 6.24429 6.56757 9.4929 3.29873 15.6087C0.0298978 21.7246 0 26.801 0 26.801C0 26.801 1.11818 23.8409 2.83432 20.7721C4.08405 18.5372 5.89187 16.1719 6.62935 15.2056C7.89304 13.5517 9.96994 11.5144 12.5451 9.58578C12.3678 9.17871 12.2701 8.72818 12.2701 8.25788C12.2701 6.39843 13.7909 4.89071 15.6665 4.89071C16.679 4.89071 17.5839 5.33136 18.2058 6.02693C21.3391 4.37694 23.8326 3.60628 27.227 2.70916C33.9341 0.93665 43.7725 1.11252 43.7725 1.11252C43.7725 1.11252 44.8767 1.10461 42.0424 0.742998L42.0444 0.744974Z" fill="#232323"/>
<path d="M17.4305 8.25986C17.4305 7.27776 16.6332 6.50908 15.6645 6.50908C14.6958 6.50908 13.8766 7.27776 13.8766 8.25986C13.8766 9.24195 14.6739 10.0324 15.6645 10.0324C16.6551 10.0324 17.4305 9.24195 17.4305 8.25986Z" fill="#232323"/>
<path d="M28.2814 13.5477C29.0408 12.457 30.161 11.8424 31.4207 11.8424C33.9799 11.8424 35.1798 13.2296 35.1798 15.4902V22.3708H32.3395V16.4426C32.3395 15.095 32.1402 14.0635 30.5995 14.0635C29.26 14.0635 28.7 14.9962 28.7 16.6402V22.3708H25.8597V16.3241C25.8597 14.9962 25.6603 14.0635 24.1395 14.0635C23.4798 14.0635 22.2201 14.52 22.2201 16.4031V22.3708H19.3798V12.1191H22.0606V13.5062H22.1005C22.8998 12.3759 23.9801 11.8404 25.2597 11.8404C26.8005 11.8404 27.799 12.4747 28.2794 13.5458L28.2814 13.5477Z" fill="#232323"/>
<path d="M47.0413 17.4129C47.0413 17.571 47.0214 17.9286 47.0214 17.9286H39.5609C39.6406 19.6932 40.4618 20.5251 42.0803 20.5251C43.1606 20.5251 44.1193 19.9106 44.3405 19.1972H46.84C46.0806 21.5171 44.4801 22.6474 42.0005 22.6474C38.7197 22.6474 36.7206 20.4066 36.7206 17.2548C36.7206 14.103 38.8812 11.8424 42.0005 11.8424C45.1199 11.8424 47.0413 14.3797 47.0413 17.4148V17.4129ZM44.1811 16.1443C43.9 14.597 43.2204 13.9627 41.9009 13.9627C40.5814 13.9627 39.6805 14.7946 39.5609 16.1443H44.1811Z" fill="#232323"/>
<path d="M54.5995 15.1128C54.5198 14.1208 53.8401 13.7256 52.6601 13.7256C51.5599 13.7256 51.0795 14.0635 51.0795 14.678C51.0795 15.3321 51.6994 15.67 53.2999 15.9862C55.4008 16.4031 56.1602 16.7193 56.78 17.235C57.3202 17.7113 57.5793 18.306 57.5793 19.0787C57.5793 21.7147 55.2792 22.6474 52.8594 22.6474C50.0391 22.6474 48.0798 21.4578 48 19.0392H50.7008C50.7008 20.1892 51.7014 20.7642 52.8814 20.7642C53.8421 20.7642 54.741 20.3473 54.741 19.4561C54.741 18.7032 53.862 18.3456 51.6217 17.8891C49.2219 17.3931 48.2412 16.6007 48.2412 15.1325C48.2412 12.951 49.8417 11.8404 52.7418 11.8404C55.6419 11.8404 57.1209 12.9905 57.3023 15.1128H54.5995Z" fill="#232323"/>
<path d="M65.4405 15.749V18.1677H59.421V15.749H65.4405Z" fill="#232323"/>
<path d="M82.4424 15.7273H79.6619C79.4825 14.5575 78.7809 13.9627 77.5611 13.9627C75.8409 13.9627 75.1413 15.6285 75.1413 17.2943C75.1413 18.9601 75.8409 20.5271 77.5013 20.5271C78.761 20.5271 79.5622 19.8138 79.7615 18.4444H82.5022C82.1215 21.1417 80.2818 22.6474 77.5212 22.6474C74.3022 22.6474 72.301 20.3671 72.301 17.3931C72.301 14.1208 74.3002 11.8404 77.581 11.8404C80.222 11.8404 82.3009 13.2671 82.4404 15.7273H82.4424Z" fill="#232323"/>
<path d="M94.2819 17.2548C94.2819 20.5666 92.1014 22.6474 88.9222 22.6474C85.7431 22.6474 83.5825 20.4856 83.5825 17.2548C83.5825 14.024 85.6833 11.8424 88.9222 11.8424C92.1612 11.8424 94.2819 14.0042 94.2819 17.2548ZM88.9222 20.5271C90.6025 20.5271 91.4416 19.2783 91.4416 17.2548C91.4416 15.589 90.8616 13.9627 88.9023 13.9627C87.3217 13.9627 86.4228 15.1523 86.4228 17.2548C86.4228 19.3573 87.3018 20.5271 88.9222 20.5271Z" fill="#232323"/>
<path d="M102.183 11.9412V14.5575C101.902 14.4982 101.563 14.4587 101.162 14.4587C99.1015 14.4587 98.362 15.8656 98.362 17.7508V22.3708H95.5217V12.1191H98.2225V14.022H98.2623C98.8025 12.7336 100.142 11.8404 101.561 11.8404C101.842 11.8404 102.041 11.8997 102.181 11.9392L102.183 11.9412Z" fill="#232323"/>
<path d="M112.962 17.4129C112.962 17.571 112.942 17.9286 112.942 17.9286H105.482C105.561 19.6932 106.383 20.5251 108.001 20.5251C109.081 20.5251 110.042 19.9106 110.261 19.1972H112.761C112.001 21.5171 110.401 22.6474 107.921 22.6474C104.641 22.6474 102.641 20.4066 102.641 17.2548C102.641 14.103 104.802 11.8424 107.921 11.8424C111.041 11.8424 112.96 14.3797 112.96 17.4148L112.962 17.4129ZM110.102 16.1443C109.821 14.597 109.141 13.9627 107.822 13.9627C106.502 13.9627 105.601 14.7946 105.482 16.1443H110.102Z" fill="#232323"/>
<path d="M17.0737 29.3264C17.0139 29.9113 16.5774 30.3342 16.0372 30.3342C15.212 30.3342 14.7815 29.5695 14.7815 28.8146C14.7815 28.0598 15.212 27.295 16.0372 27.295C16.5814 27.295 16.9202 27.5816 17.0458 28.1447L17.0498 28.1665H17.5481L17.5441 28.1368C17.4404 27.3306 16.8903 26.8702 16.0352 26.8702C15.0008 26.8702 14.2792 27.6705 14.2792 28.8166C14.2792 29.9627 15.0008 30.763 16.0352 30.763C16.8764 30.763 17.4504 30.2295 17.572 29.3343L17.576 29.3047H17.0737V29.3284V29.3264Z" fill="#232323"/>
<path d="M19.8582 26.8702C18.8237 26.8702 18.1022 27.6705 18.1022 28.8166C18.1022 29.9627 18.8237 30.763 19.8582 30.763C20.8926 30.763 21.6142 29.9805 21.6142 28.8166C21.6142 27.6527 20.8926 26.8702 19.8582 26.8702ZM19.8582 30.3342C19.033 30.3342 18.6025 29.5695 18.6025 28.8146C18.6025 28.0598 19.031 27.295 19.8522 27.295C20.7192 27.295 21.1159 28.0835 21.1159 28.8146C21.1159 29.5458 20.6853 30.3342 19.8602 30.3342H19.8582Z" fill="#232323"/>
<path d="M26.2444 26.8702C25.7301 26.8702 25.2996 27.1172 25.0803 27.5341C24.9368 27.1231 24.5382 26.8702 24.0259 26.8702C23.4838 26.8702 23.0931 27.0915 22.834 27.548V26.9769H22.3696V30.6583H22.8699V28.6071C22.8699 27.7752 23.2586 27.299 23.9342 27.299C24.4166 27.299 24.6737 27.6033 24.6737 28.1783V30.6583H25.174V28.5854C25.174 27.9985 25.3414 27.299 26.1387 27.299C26.7267 27.299 26.9759 27.5638 26.9759 28.1862V30.6583H27.4761V28.1566C27.4761 27.303 27.0616 26.8722 26.2444 26.8722V26.8702Z" fill="#232323"/>
<path d="M30.1709 26.8702C29.5929 26.8702 29.1066 27.1468 28.8794 27.5994V26.9769H28.4149V32H28.9152V30.0457C29.1185 30.4844 29.6029 30.765 30.1789 30.765C31.1895 30.765 31.8432 30.0002 31.8432 28.8186C31.8432 27.6369 31.1875 26.8722 30.1709 26.8722V26.8702ZM30.163 27.297C31.032 27.297 31.3409 28.1151 31.3409 28.8166C31.3409 29.5181 31.034 30.3362 30.1689 30.3362C29.2421 30.3362 28.9132 29.5517 28.9132 28.8166C28.9132 27.8227 29.3458 27.297 30.163 27.297Z" fill="#232323"/>
<path d="M34.1194 26.8702C32.8797 26.8702 32.4412 27.9175 32.4412 28.8166C32.4412 30.0338 33.069 30.763 34.1194 30.763C35.0044 30.763 35.5346 30.3302 35.7419 29.441L35.7499 29.4074H35.2476L35.2416 29.4272C35.0901 30.022 34.7015 30.3342 34.1194 30.3342C33.3262 30.3342 32.9574 29.6485 32.9415 28.9608H35.7559V28.8285C35.7559 27.6389 35.1141 26.8682 34.1194 26.8682V26.8702ZM34.1115 27.297C34.825 27.297 35.2237 27.9155 35.2536 28.536H32.9455C33.0511 27.7713 33.4976 27.297 34.1135 27.297H34.1115Z" fill="#232323"/>
<path d="M37.2089 25.8861H36.7086V26.9749H36.0708V27.4018H36.7086V29.8837C36.7086 30.4844 36.9239 30.6978 37.5298 30.6978C37.6315 30.6978 37.7052 30.6938 37.7989 30.6899C37.8368 30.6899 37.8786 30.6859 37.9284 30.684H37.9543V30.2473L37.9245 30.2512C37.8088 30.265 37.6793 30.2729 37.5936 30.2729C37.3026 30.2729 37.2089 30.1702 37.2089 29.8501V27.4037H37.9524V26.9769H37.2089V25.8861Z" fill="#232323"/>
<path d="M40.1807 26.8702C38.941 26.8702 38.5025 27.9175 38.5025 28.8166C38.5025 30.0338 39.1303 30.763 40.1807 30.763C41.0657 30.763 41.5959 30.3302 41.8032 29.441L41.8112 29.4074H41.3089L41.3029 29.4272C41.1514 30.022 40.7628 30.3342 40.1807 30.3342C39.3875 30.3342 39.0187 29.6485 39.0028 28.9608H41.8172V28.8285C41.8172 27.6389 41.1753 26.8682 40.1807 26.8682V26.8702ZM40.1728 27.297C40.8863 27.297 41.285 27.9155 41.3149 28.536H39.0068C39.1124 27.7713 39.5589 27.297 40.1748 27.297H40.1728Z" fill="#232323"/>
<path d="M44.1651 26.8702C43.6569 26.8702 43.2004 27.133 43.0011 27.5322V26.9749H42.5008V30.6563H43.0011V28.5498C43.0011 27.9274 43.3479 27.297 44.1233 27.297C44.7292 27.297 45.0242 27.6448 45.0242 28.3601V30.6583H45.5245V28.2771C45.5245 27.3188 45.092 26.8722 44.1651 26.8722V26.8702Z" fill="#232323"/>
<path d="M49.0644 29.3264C49.0046 29.9113 48.5681 30.3342 48.0279 30.3342C47.2028 30.3342 46.7722 29.5695 46.7722 28.8146C46.7722 28.0598 47.2028 27.295 48.0279 27.295C48.5721 27.295 48.9109 27.5816 49.0365 28.1447L49.0405 28.1665H49.5388L49.5348 28.1368C49.4311 27.3306 48.881 26.8702 48.0259 26.8702C46.9915 26.8702 46.2699 27.6705 46.2699 28.8166C46.2699 29.9627 46.9915 30.763 48.0259 30.763C48.8671 30.763 49.4411 30.2295 49.5627 29.3343L49.5667 29.3047H49.0644V29.3284V29.3264Z" fill="#232323"/>
<path d="M51.7712 26.8702C50.5314 26.8702 50.0929 27.9175 50.0929 28.8166C50.0929 30.0338 50.7207 30.763 51.7712 30.763C52.6561 30.763 53.1863 30.3302 53.3936 29.441L53.4016 29.4074H52.8993L52.8933 29.4272C52.7418 30.022 52.3532 30.3342 51.7712 30.3342C50.9779 30.3342 50.6091 29.6485 50.5932 28.9608H53.4076V28.8285C53.4076 27.6389 52.7658 26.8682 51.7712 26.8682V26.8702ZM51.7632 27.297C52.4767 27.297 52.8754 27.9155 52.9053 28.536H50.5972C50.7028 27.7713 51.1493 27.297 51.7652 27.297H51.7632Z" fill="#232323"/>
<path d="M56.7183 25.5838H56.218V26.3465H56.7183V25.5838Z" fill="#232323"/>
<path d="M56.7183 26.9749H56.218V30.6563H56.7183V26.9749Z" fill="#232323"/>
<path d="M59.3214 26.8702C58.8131 26.8702 58.3567 27.133 58.1573 27.5322V26.9749H57.657V30.6563H58.1573V28.5498C58.1573 27.9274 58.5042 27.297 59.2795 27.297C59.8854 27.297 60.1804 27.6448 60.1804 28.3601V30.6583H60.6807V28.2771C60.6807 27.3188 60.2482 26.8722 59.3214 26.8722V26.8702Z" fill="#232323"/>
<path d="M66.4968 27.5875C66.2955 27.1548 65.8052 26.8702 65.2411 26.8702C64.2266 26.8702 63.5689 27.6349 63.5689 28.8166C63.5689 29.9983 64.2246 30.763 65.2411 30.763C65.7095 30.763 66.2876 30.512 66.5327 30.0338V30.6583H66.9991V25.5858H66.4988V27.5895L66.4968 27.5875ZM65.2411 27.297C66.168 27.297 66.4968 28.0815 66.4968 28.8166C66.4968 29.5517 66.166 30.3362 65.2411 30.3362C64.3761 30.3362 64.0711 29.5181 64.0711 28.8166C64.0711 28.1151 64.3781 27.297 65.2411 27.297Z" fill="#232323"/>
<path d="M69.4308 26.8702C68.1911 26.8702 67.7526 27.9175 67.7526 28.8166C67.7526 30.0338 68.3804 30.763 69.4308 30.763C70.3158 30.763 70.846 30.3302 71.0533 29.441L71.0613 29.4074H70.559L70.553 29.4272C70.4015 30.022 70.0128 30.3342 69.4308 30.3342C68.6375 30.3342 68.2688 29.6485 68.2529 28.9608H71.0672V28.8285C71.0672 27.6389 70.4254 26.8682 69.4308 26.8682V26.8702ZM69.4229 27.297C70.1364 27.297 70.5351 27.9155 70.565 28.536H68.2568C68.3625 27.7713 68.809 27.297 69.4249 27.297H69.4229Z" fill="#232323"/>
<path d="M73.4132 26.8702C72.905 26.8702 72.4485 27.133 72.2492 27.5322V26.9749H71.7489V30.6563H72.2492V28.5498C72.2492 27.9274 72.596 27.297 73.3714 27.297C73.9773 27.297 74.2723 27.6448 74.2723 28.3601V30.6583H74.7726V28.2771C74.7726 27.3188 74.3401 26.8722 73.4132 26.8722V26.8702Z" fill="#232323"/>
<path d="M76.4668 25.8861H75.9665V26.9749H75.3287V27.4018H75.9665V29.8837C75.9665 30.4844 76.1818 30.6978 76.7877 30.6978C76.8894 30.6978 76.9631 30.6938 77.0568 30.6899C77.0946 30.6899 77.1365 30.6859 77.1863 30.684H77.2122V30.2473L77.1824 30.2512C77.0667 30.265 76.9372 30.2729 76.8515 30.2729C76.5645 30.2729 76.4668 30.1662 76.4668 29.8501V27.4037H77.2122V26.9769H76.4668V25.8861Z" fill="#232323"/>
<path d="M81.0192 30.2295C80.8598 30.2295 80.784 30.1524 80.784 29.9884V28.0618C80.784 27.2694 80.3236 26.8682 79.4167 26.8682C78.5098 26.8682 77.9517 27.297 77.9019 28.1092V28.1368H78.4022V28.1112C78.4241 27.5756 78.753 27.2931 79.3549 27.2931C79.9987 27.2931 80.2857 27.5144 80.2857 28.0104C80.2857 28.4174 80.0745 28.4412 79.5642 28.4945H79.5503C78.6593 28.5894 78.3603 28.698 78.1191 28.866C77.868 29.0458 77.7464 29.3086 77.7464 29.6683C77.7464 30.3401 78.2268 30.7571 79.0001 30.7571C79.6101 30.7571 79.9728 30.5674 80.3216 30.0595C80.3316 30.4844 80.491 30.6523 80.8797 30.6523C80.9873 30.6523 81.0591 30.6444 81.1687 30.6227L81.1907 30.6187V30.184L81.1528 30.1979C81.1209 30.2117 81.081 30.2235 81.0212 30.2235L81.0192 30.2295ZM79.034 30.3342C78.6513 30.3342 78.2467 30.0931 78.2467 29.6446C78.2467 29.2296 78.5836 29.0873 78.9503 28.9964C79.1078 28.9569 79.3908 28.9154 79.616 28.8838C79.7017 28.8719 79.7815 28.8601 79.8413 28.8502C80.0525 28.8186 80.206 28.783 80.2857 28.7079V29.2316C80.2857 29.8718 79.7595 30.3362 79.036 30.3362L79.034 30.3342Z" fill="#232323"/>
<path d="M82.2729 25.5838H81.7727V30.6563H82.2729V25.5838Z" fill="#232323"/>
<path d="M87.0227 28.5992L86.5543 28.4945C86.0082 28.3759 85.7531 28.1843 85.7531 27.8958C85.7531 27.4551 86.1856 27.297 86.5902 27.297C87.1503 27.297 87.5071 27.5915 87.519 28.0657V28.0914H88.0213V28.0637C87.9914 27.3286 87.4672 26.8702 86.654 26.8702C85.9564 26.8702 85.2508 27.1943 85.2508 27.9155C85.2508 28.4491 85.5737 28.7474 86.3291 28.9194L86.8035 29.0241C87.4114 29.1545 87.6466 29.3383 87.6466 29.6801C87.6466 30.1307 87.1423 30.3342 86.6739 30.3342C86.0501 30.3342 85.6574 30.0042 85.6235 29.4529V29.4272H85.1212V29.4568C85.201 30.3105 85.7311 30.761 86.654 30.761C87.3975 30.761 88.1489 30.4152 88.1489 29.6446C88.1489 28.8739 87.3596 28.6704 87.0227 28.5992Z" fill="#232323"/>
<path d="M90.455 26.8702C89.4205 26.8702 88.699 27.6705 88.699 28.8166C88.699 29.9627 89.4205 30.763 90.455 30.763C91.4895 30.763 92.211 29.9805 92.211 28.8166C92.211 27.6527 91.4895 26.8702 90.455 26.8702ZM90.455 30.3342C89.6298 30.3342 89.1993 29.5695 89.1993 28.8146C89.1993 28.0598 89.6278 27.295 90.449 27.295C91.3181 27.295 91.7127 28.0835 91.7127 28.8146C91.7127 29.5458 91.2822 30.3342 90.457 30.3342H90.455Z" fill="#232323"/>
<path d="M93.4727 25.5838H92.9724V30.6563H93.4727V25.5838Z" fill="#232323"/>
<path d="M96.9349 28.8996C96.9349 29.5616 96.6519 30.3342 95.8566 30.3342C95.0613 30.3342 94.9118 29.8244 94.9118 29.2711V26.9749H94.4115V29.3561C94.4115 30.3006 94.84 30.761 95.721 30.761C96.2612 30.761 96.7216 30.5002 96.9708 30.0576V30.6563H97.4352V26.9749H96.9349V28.8996Z" fill="#232323"/>
<path d="M99.1314 25.8861H98.6311V26.9749H97.9933V27.4018H98.6311V29.8837C98.6311 30.4844 98.8463 30.6978 99.4523 30.6978C99.5539 30.6978 99.6277 30.6938 99.7214 30.6899C99.7592 30.6899 99.8011 30.6859 99.8509 30.684H99.8768V30.2473L99.8469 30.2512C99.7313 30.265 99.6018 30.2729 99.5161 30.2729C99.225 30.2729 99.1314 30.1702 99.1314 29.8501V27.4037H99.8748V26.9769H99.1314V25.8861Z" fill="#232323"/>
<path d="M101.115 26.9749H100.614V30.6563H101.115V26.9749Z" fill="#232323"/>
<path d="M101.115 25.5838H100.614V26.3465H101.115V25.5838Z" fill="#232323"/>
<path d="M103.634 26.8702C102.6 26.8702 101.878 27.6705 101.878 28.8166C101.878 29.9627 102.6 30.763 103.634 30.763C104.668 30.763 105.39 29.9805 105.39 28.8166C105.39 27.6527 104.668 26.8702 103.634 26.8702ZM103.634 30.3342C102.809 30.3342 102.378 29.5695 102.378 28.8146C102.378 28.0598 102.807 27.295 103.628 27.295C104.497 27.295 104.892 28.0835 104.892 28.8146C104.892 29.5458 104.461 30.3342 103.636 30.3342H103.634Z" fill="#232323"/>
<path d="M107.802 26.8702C107.293 26.8702 106.837 27.133 106.638 27.5322V26.9749H106.137V30.6563H106.638V28.5498C106.638 27.9274 106.985 27.297 107.76 27.297C108.366 27.297 108.661 27.6448 108.661 28.3601V30.6583H109.161V28.2771C109.161 27.3188 108.729 26.8722 107.802 26.8722V26.8702Z" fill="#232323"/>
<path d="M111.784 28.5992L111.316 28.4945C110.77 28.3759 110.514 28.1843 110.514 27.8958C110.514 27.4551 110.947 27.297 111.352 27.297C111.912 27.297 112.269 27.5915 112.28 28.0657V28.0914H112.783V28.0637C112.753 27.3286 112.229 26.8702 111.415 26.8702C110.718 26.8702 110.012 27.1943 110.012 27.9155C110.012 28.4491 110.335 28.7474 111.091 28.9194L111.565 29.0241C112.173 29.1545 112.408 29.3383 112.408 29.6801C112.408 30.1307 111.904 30.3342 111.435 30.3342C110.811 30.3342 110.419 30.0042 110.385 29.4529V29.4272H109.883V29.4568C109.962 30.3105 110.493 30.761 111.415 30.761C112.159 30.761 112.91 30.4152 112.91 29.6446C112.91 28.8739 112.121 28.6704 111.784 28.5992Z" fill="#232323"/>
<path d="M112.336 6.23244C112.777 6.66914 113 7.18884 113 7.80339C113 8.41794 112.777 8.96333 112.336 9.39806C111.89 9.83476 111.36 10.0501 110.74 10.0501C110.12 10.0501 109.578 9.82883 109.131 9.39213C108.691 8.95542 108.467 8.42387 108.467 7.80339C108.467 7.18291 108.691 6.66914 109.137 6.23244C109.578 5.79573 110.114 5.58034 110.74 5.58034C111.366 5.58034 111.892 5.80166 112.336 6.23244ZM109.414 9.17279C109.769 9.53638 110.21 9.72213 110.74 9.72213C111.27 9.72213 111.704 9.53045 112.059 9.16686C112.414 8.79734 112.589 8.34285 112.589 7.80537C112.589 7.26788 112.414 6.82525 112.059 6.46166C111.704 6.09807 111.258 5.91232 110.734 5.91232C110.21 5.91232 109.769 6.09214 109.414 6.45573C109.059 6.81932 108.878 7.27381 108.878 7.80537C108.878 8.33692 109.059 8.80327 109.414 9.17279ZM110.903 6.50711C111.475 6.50711 111.802 6.74028 111.802 7.25405C111.802 7.64926 111.591 7.90614 111.108 7.96543L111.862 9.11943H111.421L110.704 7.99704H110.269V9.11943H109.859V6.50908H110.901L110.903 6.50711ZM110.742 7.66704C111.236 7.66704 111.391 7.54848 111.391 7.23627C111.391 6.9616 111.204 6.83513 110.837 6.83513H110.271V7.66507H110.742V7.66704Z" fill="#232323"/>
</svg>
