<svg width="103" height="22" viewBox="0 0 103 22" fill="none" xmlns="http://www.w3.org/2000/svg">
<path d="M13.3787 9.93357C13.3787 7.93739 15.3456 6.79282 18.1265 6.79282C21.1326 6.79282 21.462 7.26207 21.462 8.48361C21.462 8.72692 21.3337 8.9032 21.0866 8.9032C20.8395 8.9032 19.5581 8.4712 18.1604 8.4712C17.0049 8.4712 15.956 8.87838 15.956 9.74736C15.956 11.7187 22.4988 11.3165 22.4988 14.9513C22.4988 17.2454 19.7228 18.313 17.5039 18.313C15.4037 18.313 13.4586 17.6725 13.4586 17.6725C13.4586 17.6725 13.2551 16.7091 13.2551 16.1331C13.2551 15.937 13.4029 15.8054 13.6015 15.8054C13.8001 15.8054 15.7114 16.6371 17.5693 16.6371C19.0445 16.6371 19.8488 15.8849 19.8488 15.1326C19.8488 13.1538 13.3811 13.3425 13.3811 9.93357" fill="#232323"/>
<path d="M26.5829 2.81537C26.5829 2.0308 28.172 2.15494 28.6782 2.15494C28.9641 2.15494 29.2329 2.32626 29.2329 2.64654V8.68968C29.2329 8.79893 29.2281 8.88086 29.2717 8.88086C29.589 8.88086 30.9577 6.79282 33.7046 6.79282C35.9865 6.79282 37.6579 8.06402 37.6579 10.1843V17.5632C37.6579 17.9257 37.2485 18.0623 37.0475 18.0623H35.6183C35.3155 18.0623 35.0054 17.8612 35.0054 17.5632V11.2395C35.0054 9.62322 34.7535 8.71451 33.1983 8.71451C30.8365 8.71451 29.2329 11.0012 29.2329 11.0012V17.5632C29.2329 17.8463 28.9495 18.0623 28.6201 18.0623H27.1909C26.8372 18.0623 26.5829 17.8214 26.5829 17.5632V2.81537Z" fill="#232323"/>
<path d="M46.7248 6.36081C45.4433 6.36081 44.0505 6.53957 43.4376 6.8251C42.8538 7.09572 42.7424 7.31918 42.7424 8.05657C42.7424 8.41658 42.8514 8.95534 42.9192 8.95534C43.1227 8.95534 44.736 8.22043 46.7054 8.22043C48.9509 8.22043 49.7697 8.67479 49.7697 10.1396C49.7697 10.3283 49.7769 10.4674 49.5371 10.4674C45.0582 10.4674 41.6863 11.5176 41.6863 14.6608C41.6863 17.0791 43.784 18.3106 45.6323 18.3106C48.0619 18.3106 49.2852 16.9922 49.7915 16.9922C50.1379 16.9922 49.9319 18.0052 50.8718 18.0052H51.8383C52.1436 18.0052 52.3107 17.7147 52.3107 17.5061V10.7231C52.3107 8.00195 51.0801 6.3633 46.7248 6.3633M49.7721 14.7552C49.7721 15.4578 47.6864 16.3591 46.3735 16.3591C45.4118 16.3591 44.1474 16.0338 44.1474 14.5367C44.1474 12.034 48.5415 12.188 49.5541 12.188C49.6606 12.188 49.7721 12.188 49.7721 12.188V14.7552Z" fill="#232323"/>
<path d="M64.1197 6.79282C61.334 6.79282 59.8248 8.861 59.8248 8.861C59.8248 8.861 59.6916 8.2974 59.5366 7.77105C59.3791 7.23476 59.1926 7.03614 58.7493 7.03614H57.8288C57.6714 7.03614 57.2184 7.15531 57.2184 7.53518V21.501C57.2184 21.8411 57.4776 22 57.6883 22H59.3985C59.7352 22 59.8684 21.7269 59.8684 21.501V16.9947C59.8684 16.9947 61.2516 18.3106 63.7321 18.3106C67.1185 18.3106 69.3083 15.356 69.3083 12.2177C69.3083 8.85603 67.293 6.79282 64.1197 6.79282ZM63.2258 16.6347C61.5423 16.6347 59.8684 15.7508 59.8684 14.8272V10.4376C59.8684 10.4376 61.5302 8.71699 63.5383 8.71699C65.5464 8.71699 66.5057 10.0453 66.5057 12.4213C66.5057 14.415 65.5028 16.6371 63.2234 16.6371" fill="#232323"/>
<path d="M75.3158 13.2332C75.3158 13.0694 75.4127 12.9601 75.5944 12.9601H83.1787C83.45 12.9601 83.8013 12.8062 83.8013 12.2624C83.8013 9.11921 82.1904 6.79282 78.5811 6.79282C75.357 6.79282 72.5785 8.90817 72.5785 12.5033C72.5785 16.0984 75.6937 18.313 79.4144 18.313C80.892 18.313 83.4161 18.03 83.5445 17.2454C83.6099 16.8482 83.7528 15.865 83.7528 15.865C83.7528 15.865 82.0766 16.6396 79.8383 16.6396C76.5197 16.6396 75.3182 14.6186 75.3182 13.2357M78.4019 8.4712C80.1363 8.4712 81.0955 9.44942 81.0955 10.9987C81.0955 11.2718 80.9502 11.2817 80.7031 11.2817H75.3352C75.3473 10.9714 75.4369 8.46871 78.4019 8.46871" fill="#232323"/>
<path d="M2.73968 12.8459C2.39328 12.8459 2.21161 12.6473 2.21161 12.327V11.8106C2.21161 11.4903 2.39328 11.2917 2.73968 11.2917H3.50999C5.11601 11.2917 6.62756 10.805 6.62756 9.60584C6.62756 8.69217 5.30253 8.39671 3.9339 8.39671C2.07353 8.39671 0.242235 9.09935 0.242235 9.09935C0.242235 9.09935 0.302794 8.79893 0.37062 8.20305C0.387576 8.05905 0.433601 7.57987 0.433601 7.54015C0.433601 7.02869 2.1026 6.74565 3.96539 6.74565C7.26464 6.74565 9.00873 7.7338 9.00873 9.35011C9.00873 11.4307 6.02197 12.0539 6.02197 12.0539C6.02197 12.0539 9.52227 12.4164 9.52227 14.9464C9.52227 16.8556 7.75637 18.3106 3.92663 18.3106C2.14136 18.3106 0.256769 17.9654 0.256769 17.9654C0.256769 17.9654 0 16.9102 0 16.508C0 16.3516 0.176832 16.1555 0.380309 16.1555C0.595899 16.1555 2.72272 16.657 3.82489 16.657C5.63681 16.657 7.01271 16.22 7.01271 14.9488C7.01271 13.4765 5.54476 12.8484 3.05216 12.8484H2.73968V12.8459Z" fill="#232323"/>
<path d="M91.2452 0.151319C90.8406 -0.136687 90.3319 0.0147644 90.0946 0.367323C89.9153 0.632983 89.8572 0.990507 89.8232 1.1941C89.7893 1.39769 88.0598 11.6641 87.9944 12.2873C87.958 12.615 88.0767 12.908 88.3408 13.0942C88.5346 13.2307 88.7671 13.2655 88.9246 13.2382C89.3679 13.1538 101.584 9.88143 102.32 9.74239C102.507 9.70763 102.71 9.60087 102.853 9.38983C103.112 9.00748 103.02 8.47616 102.642 8.20802C102.112 7.83312 91.8144 0.553533 91.2476 0.151319M90.688 4.57319C90.9206 3.65952 90.9714 3.10586 91.2403 2.70612C91.4293 2.42557 91.7611 2.31632 92.0421 2.51495C92.5072 2.84268 92.5387 3.75635 92.2093 4.44409C91.8532 5.18893 89.409 10.239 89.409 10.239C89.409 10.239 90.1139 6.83006 90.688 4.57319ZM99.3213 7.84305C99.3213 7.92995 99.3019 7.99698 99.2389 8.08388C99.1057 8.26264 98.8053 8.3992 98.5292 8.50844C98.253 8.61768 91.1555 11.4183 90.8891 11.5449C90.6226 11.669 90.0728 11.8851 89.8983 11.7609C89.6222 11.5648 89.7675 11.2569 90.0074 10.887C90.6759 9.85412 93.2824 5.7997 93.6021 5.323C94.0478 4.66257 94.7067 4.39691 95.3414 4.8463C96.039 5.34038 98.8029 7.29186 98.9967 7.42842C99.2074 7.57739 99.3213 7.68911 99.3213 7.84553" fill="#232323"/>
</svg>
