<svg width="104" height="32" viewBox="0 0 104 32" fill="none" xmlns="http://www.w3.org/2000/svg">
<path d="M21.9262 12.6761L11.3419 18.8491V6.50311L21.9262 12.6761Z" fill="#232323"/>
<path d="M11.3428 32V19.654L21.9262 25.827L11.3428 32Z" fill="#232323"/>
<path d="M0.276174 25.827L10.8595 19.654V32L0.276174 25.827Z" fill="#232323"/>
<path d="M0 13.0786L10.5834 19.2516L0 25.4236V13.0786Z" fill="#232323"/>
<path d="M10.8407 6.50311V18.8491L0.257344 12.6761L10.8407 6.50311Z" fill="#232323"/>
<path d="M17.4501 19.3366L28.0325 13.1636V25.5096L17.4501 19.3366Z" fill="#232323"/>
<path d="M28.0325 0V12.346L17.4492 6.17388L28.0325 0Z" fill="#232323"/>
<path d="M39.0992 6.17388L28.5167 12.3469V0L39.0992 6.17388Z" fill="#232323"/>
<path d="M39.3763 18.9259L28.7938 12.753L39.3763 6.57999V18.9259Z" fill="#232323"/>
<path d="M28.5356 25.5096V13.1636L39.118 19.3357L28.5356 25.5096Z" fill="#232323"/>
<path d="M85.5304 25.7881V11.1855C85.5304 10.424 84.8678 9.69497 84.0895 9.72843C83.3085 9.76552 82.6477 10.3688 82.6477 11.1855V25.7881H85.5304Z" fill="#232323"/>
<path d="M90.8916 25.7637H104V22.8513H93.7744L90.8916 25.7637Z" fill="#232323"/>
<path d="M101.234 9.72934H88.1137V12.6417H98.3519L101.234 9.72934Z" fill="#232323"/>
<path d="M90.1402 25.7637L93.0221 22.8522H92.997C93.3575 22.4895 96.3783 19.4505 99.1024 16.71L103.525 12.2419C104.516 11.2335 103.732 9.73024 102.549 9.73024H101.986L88.5101 23.3045C87.5605 24.2686 88.4061 25.7637 89.5054 25.7637H90.1402Z" fill="#232323"/>
<path fill-rule="evenodd" clip-rule="evenodd" d="M48.7464 9.72843H45.8628V22.3439H48.7464V9.72843Z" fill="#232323"/>
<path fill-rule="evenodd" clip-rule="evenodd" d="M61.7356 9.72843H58.851V22.3439H61.7356V9.72843Z" fill="#232323"/>
<path d="M45.8637 22.8803V24.3319C45.8637 25.1188 46.5254 25.7881 47.3064 25.7881H60.2955C61.0747 25.7881 61.7356 25.1206 61.7356 24.3319V22.8803H45.8637Z" fill="#232323"/>
<path d="M80.0913 23.0449V9.72843H77.2085V20.1334L80.0913 23.0449Z" fill="#232323"/>
<path d="M64.2202 12.5965V25.7881H67.103V15.508L64.2202 12.5965Z" fill="#232323"/>
<path d="M66.6296 10.2042C65.6621 9.24002 64.2202 10.0857 64.2202 11.2181V11.8358L77.6353 25.3893C78.6001 26.3399 80.0913 25.5575 80.0913 24.3962V23.8046L66.6296 10.2042Z" fill="#232323"/>
</svg>
