<svg width="65" height="28" viewBox="0 0 65 28" fill="none" xmlns="http://www.w3.org/2000/svg">
<path d="M61.4619 10.2342C61.4619 13.2207 59.062 15.6421 56.1005 15.6421C53.139 15.6421 50.739 13.2207 50.739 10.2342C50.739 7.24761 53.139 4.82617 56.1005 4.82617C59.062 4.82617 61.4619 7.24761 61.4619 10.2342ZM65 10.2342C65 5.28798 61.0151 1.27756 56.099 1.27756C51.1828 1.27756 47.1995 5.28798 47.1995 10.2342C47.1995 15.1803 51.1843 19.1923 56.099 19.1923C61.0136 19.1923 65 15.1819 65 10.2342Z" fill="#232323"/>
<path d="M49.2719 0H46.1172C45.5542 0 45.281 0.499783 45.281 0.499783L38.0916 13.0475L31.9257 2.31814C31.9257 2.31814 31.6283 1.80317 31.0894 1.80317H27.9333C27.9333 1.80317 27.3793 1.80621 27.6676 2.31207C27.6676 2.31207 36.3528 17.4544 36.463 17.6489C37.0637 18.7016 37.3007 18.7016 38.1113 18.7016C38.9807 18.7016 39.1029 18.7016 39.6931 17.6656C39.7807 17.5182 49.5541 0.492187 49.5541 0.492187C49.8349 0 49.2719 0 49.2719 0Z" fill="#232323"/>
<path d="M6.99011 7.36154H3.69958V2.33941C3.69958 2.33941 3.69958 1.77279 3.13657 1.77279H0.563012C0.563012 1.77279 0 1.77279 0 2.33941V16.1708C0 16.1708 0 16.7374 0.563012 16.7374H3.13657C3.13657 16.7374 3.69958 16.7374 3.69958 16.1708V11.1016H6.93124L11.0172 18.2094C11.0172 18.2094 11.298 18.7001 11.861 18.7001H15.0021C15.0021 18.7001 15.5651 18.7001 15.2844 18.2094C15.2844 18.2094 10.5735 10.0017 10.4572 9.80577C10.3395 9.60981 10.098 9.35916 10.3803 8.86849L15.1787 0.490668C15.1787 0.490668 15.4594 0 14.8964 0H11.7704C11.7704 0 11.2074 0 10.9252 0.490668L6.9886 7.36154H6.99011Z" fill="#232323"/>
<path d="M32.4585 18.2094C32.4585 18.2094 22.6624 1.10438 22.5748 0.957031C22.0239 0.0273438 21.8096 0 20.9099 0C20.0798 0 19.7884 0.0197483 19.1726 1.08008C19.0609 1.27452 14.7817 8.7576 14.6972 8.89279C14.5342 9.15712 14.5417 9.38042 14.7198 9.69032C14.7379 9.7207 17.3628 14.316 17.4383 14.4405C17.6089 14.7292 17.8413 14.8294 18.19 14.834C18.2836 14.834 22.9552 14.834 22.9552 14.834C23.5182 14.834 23.236 14.3433 23.236 14.3433L21.5182 11.5922C21.2375 11.1016 20.673 11.1016 20.673 11.1016H17.6873L20.9009 5.49609L28.1944 18.2079C28.1944 18.2079 28.4751 18.6986 29.0382 18.6986H32.1747C32.1747 18.6986 32.7377 18.6986 32.457 18.2079" fill="#232323"/>
<path d="M63.8755 25.9188H61.3216C61.3638 25.2307 61.868 24.6458 62.7313 24.6458C63.5449 24.6458 63.8966 25.1289 63.8966 25.6667C63.8966 25.7548 63.883 25.8444 63.8755 25.9188ZM64.0928 27.1706C63.7849 27.4015 63.3502 27.6066 62.8098 27.6066C61.8136 27.6066 61.3578 27.0354 61.308 26.2925H64.2891C64.3238 26.1634 64.3525 25.9325 64.3525 25.735C64.3525 24.9253 63.8559 24.2524 62.7404 24.2524C61.5616 24.2524 60.8265 25.1031 60.8265 26.1361C60.8265 27.1691 61.4151 28 62.7962 28C63.4136 28 63.9193 27.8101 64.2966 27.5184L64.0944 27.1706H64.0928ZM56.7797 26.1224C56.7797 27.1903 57.5782 28 58.7284 28C59.2823 28 59.7518 27.8162 60.0959 27.5184L59.8499 27.1706C59.5827 27.4091 59.2189 27.5716 58.7495 27.5716C57.8665 27.5716 57.2703 26.9518 57.2703 26.1224C57.2703 25.293 57.8665 24.6793 58.7495 24.6793C59.2189 24.6793 59.5842 24.8433 59.8499 25.0803L60.0959 24.7324C59.7518 24.4332 59.2823 24.2509 58.7284 24.2509C57.5782 24.2509 56.7797 25.0529 56.7797 26.1224ZM52.342 24.3466V27.9043H52.8175V25.6181C52.9579 25.1274 53.4062 24.7187 54.0869 24.7187C54.8522 24.7187 55.2024 25.2292 55.2024 25.9158V27.9028H55.6778V25.855C55.6778 24.9633 55.2084 24.2843 54.2122 24.2843C53.5737 24.2843 53.0832 24.5623 52.816 25.0119V24.3466H52.3405H52.342ZM50.6862 25.9188H48.1323C48.1745 25.2307 48.6787 24.6458 49.5421 24.6458C50.3556 24.6458 50.7058 25.1289 50.7058 25.6667C50.7058 25.7548 50.6922 25.8444 50.6847 25.9188M50.9021 27.1706C50.5941 27.4015 50.1594 27.6066 49.619 27.6066C48.6228 27.6066 48.167 27.0354 48.1172 26.2925H51.0983C51.133 26.1634 51.1617 25.9325 51.1617 25.735C51.1617 24.9253 50.6651 24.2524 49.5496 24.2524C48.3708 24.2524 47.6357 25.1031 47.6357 26.1361C47.6357 27.1691 48.2243 28 49.6055 28C50.2228 28 50.7285 27.8101 51.1058 27.5184L50.9021 27.1706ZM45.6629 23.0751V27.1721C45.6629 27.7433 45.9708 27.9742 46.4191 27.9742C46.6923 27.9742 46.9383 27.8921 47.0923 27.798L47.0289 27.4243C46.8885 27.5124 46.7557 27.5747 46.573 27.5747C46.3134 27.5747 46.1383 27.4243 46.1383 27.0779V23.0766H45.6629V23.0751ZM43.3912 23.0751V27.1721C43.3912 27.7433 43.6991 27.9742 44.1474 27.9742C44.4206 27.9742 44.6666 27.8921 44.8206 27.798L44.7572 27.4243C44.6168 27.5124 44.484 27.5747 44.3014 27.5747C44.0418 27.5747 43.8667 27.4243 43.8667 27.0779V23.0766H43.3912V23.0751ZM41.7248 25.9188H39.1709C39.2131 25.2307 39.7173 24.6458 40.5807 24.6458C41.3942 24.6458 41.7444 25.1289 41.7444 25.6667C41.7444 25.7548 41.7308 25.8444 41.7233 25.9188M41.9406 27.1706C41.6327 27.4015 41.198 27.6066 40.6576 27.6066C39.6614 27.6066 39.2056 27.0354 39.1558 26.2925H42.1369C42.1716 26.1634 42.2003 25.9325 42.2003 25.735C42.2003 24.9253 41.7037 24.2524 40.5882 24.2524C39.4094 24.2524 38.6743 25.1031 38.6743 26.1361C38.6743 27.1691 39.2629 28 40.6441 28C41.2614 28 41.7671 27.8101 42.1444 27.5184L41.9406 27.1706ZM34.6275 26.1224C34.6275 27.1903 35.426 28 36.5762 28C37.1301 28 37.5996 27.8162 37.9437 27.5184L37.6977 27.1706C37.4305 27.4091 37.0667 27.5716 36.5973 27.5716C35.7143 27.5716 35.1181 26.9518 35.1181 26.1224C35.1181 25.293 35.7143 24.6793 36.5973 24.6793C37.0667 24.6793 37.432 24.8433 37.6977 25.0803L37.9437 24.7324C37.5996 24.4332 37.1301 24.2509 36.5762 24.2509C35.426 24.2509 34.6275 25.0529 34.6275 26.1224ZM33.5075 24.3466L32.2804 25.8505L31.0532 24.3466H30.5279V24.3876L31.9438 26.1361L30.5279 27.8633V27.9043H31.0683L32.2819 26.4217L33.4955 27.9043H34.0358V27.8633L32.6124 26.1361L34.0358 24.3876V24.3466H33.5075ZM29.6751 27.9043V27.4896H26.5129V25.6986H29.1634V25.2839H26.5129V23.6903H29.6751V23.2756H26.0571V27.9013H29.6751V27.9043ZM22.0948 23.0736V27.1706C22.0948 27.7418 22.4028 27.9727 22.8511 27.9727C23.1243 27.9727 23.3703 27.8906 23.5243 27.7964L23.4609 27.4227C23.3205 27.5108 23.1877 27.5731 23.005 27.5731C22.7454 27.5731 22.5703 27.4227 22.5703 27.0764V23.0751H22.0948V23.0736ZM18.1794 26.8485C18.1794 26.2363 18.7892 25.9842 19.5756 25.9842C19.8352 25.9842 20.1024 26.0252 20.2639 26.0662V27.1341C20.039 27.3392 19.6752 27.5914 19.1273 27.5914C18.5522 27.5914 18.1794 27.3255 18.1794 26.85V26.8485ZM18.1522 24.936C18.4813 24.7795 18.8888 24.6914 19.3024 24.6914C19.9409 24.6914 20.2639 24.9983 20.2639 25.6105V25.7198C20.0466 25.6651 19.7794 25.6317 19.4926 25.6317C18.4677 25.6317 17.7039 26.0191 17.7039 26.8895C17.7039 27.5503 18.2005 27.9711 19.0005 27.9711C19.6043 27.9711 20.0043 27.7205 20.2639 27.4744V27.9028H20.7394V25.5907C20.7394 24.8069 20.2911 24.2843 19.3371 24.2843C18.9024 24.2843 18.3968 24.38 18.0602 24.5289L18.1507 24.9375L18.1522 24.936ZM14.8859 23.4397L14.8376 24.345H14.101V24.7248H14.83V26.8895C14.83 27.5898 15.2149 27.9711 15.8594 27.9711C16.3228 27.9711 16.7289 27.8359 17.0307 27.6445L16.8617 27.2769C16.6443 27.4334 16.2791 27.5564 15.9923 27.5564C15.544 27.5564 15.3055 27.3043 15.3055 26.8075V24.7248H16.8345V24.345H15.313V23.4397H14.8859ZM9.96819 24.345V27.9028H10.4437V25.6165C10.584 25.1259 11.0323 24.7172 11.7131 24.7172C12.4783 24.7172 12.8285 25.2276 12.8285 25.9143V27.9013H13.304V25.8535C13.304 24.9618 12.8346 24.2828 11.8384 24.2828C11.1999 24.2828 10.7093 24.5608 10.4421 25.0104V24.345H9.96668H9.96819ZM8.31236 25.9173H5.75842C5.80069 25.2292 6.30483 24.6443 7.16822 24.6443C7.98179 24.6443 8.33198 25.1274 8.33198 25.6651C8.33198 25.7533 8.31839 25.8429 8.31085 25.9173M8.5282 27.1691C8.22028 27.4 7.78557 27.605 7.2452 27.605C6.24898 27.605 5.79314 27.0339 5.74333 26.291H8.72443C8.75914 26.1619 8.78782 25.931 8.78782 25.7335C8.78782 24.9238 8.29122 24.2509 7.17577 24.2509C5.99691 24.2509 5.26183 25.1016 5.26183 26.1345C5.26183 27.1675 5.8505 27.9985 7.23161 27.9985C7.84897 27.9985 8.35462 27.8086 8.73197 27.5169L8.52971 27.1691H8.5282ZM1.80526 23.6918C2.96298 23.6918 3.79014 24.3526 3.79014 25.5983C3.79014 26.844 2.96298 27.4896 1.80526 27.4896H0.475466V23.6918H1.80828H1.80526ZM0 27.9058H1.82337C3.23317 27.9058 4.28523 27.0901 4.28523 25.5998C4.28523 24.1096 3.23468 23.2862 1.82337 23.2802H0V27.9058Z" fill="#232323"/>
</svg>
