<?xml version="1.0" encoding="UTF-8"?>
<svg width="150px" height="150px" viewBox="0 0 150 150" version="1.1" xmlns="http://www.w3.org/2000/svg" xmlns:xlink="http://www.w3.org/1999/xlink">
    <title>A2DBBDA8-8952-4665-BE34-C5551D7F8A38</title>
    <defs>
        <rect id="path-1" x="0" y="0" width="150" height="150"></rect>
    </defs>
    <g id="Page-2" stroke="none" stroke-width="1" fill="none" fill-rule="evenodd">
        <g id="Nitreo-Landing-Page" transform="translate(-355.000000, -1720.000000)">
            <g id="easy-icon" transform="translate(355.000000, 1720.000000)">
                <mask id="mask-2" fill="white">
                    <use xlink:href="#path-1"></use>
                </mask>
                <g id="Mask"></g>
                <g id="lamp" mask="url(#mask-2)">
                    <g transform="translate(15.000000, 7.000000)">
                        <path d="M55.9149239,117.939824 C61.0375468,124.619168 62.0401698,125.19425 71.5529567,123.712938 C75.1523009,123.151627 75.4401698,119.013922 77.4506616,116.496545 C71.2591862,115.230971 59.5995141,116.059168 55.9149239,117.939824 M68.027055,92.4119549 C70.867055,92.4119549 73.7136124,92.5345778 76.5437763,92.3719549 C78.6323009,92.2519549 79.5929567,93.4972008 79.9477108,95.0703155 C81.4565632,101.773922 82.1162354,108.632283 81.2886944,115.421135 C80.7890222,119.522775 77.549678,122.734578 75.5391862,126.31884 C74.16476,128.769332 72.6644321,131.253266 70.9877108,133.580479 C69.5050878,135.637529 68.0788583,136.336545 66.1300059,134.233594 C61.3057436,129.027693 55.7463993,124.50507 51.6237763,118.649332 C50.6257436,117.231627 49.9227927,115.744414 50.027055,113.869004 C50.3280386,108.439496 48.2775468,103.187037 48.777219,97.7031024 C48.9739403,95.5437582 49.6768911,94.1450696 51.8795141,93.9155614 C57.2539403,93.3562172 62.5503337,91.8880204 68.027055,92.4119549" id="Fill-20" fill="#000000"></path>
                        <path d="M61.5431206,33.112086 C49.8926288,33.2956926 40.3575468,39.0274959 34.814596,50.1094631 C30.5811534,58.5724139 31.9391862,67.7442172 39.9529567,76.8307745 C43.0663993,80.3612664 46.3018091,83.7842172 49.4126288,87.3179877 C49.9627927,87.9429057 51.1536124,88.6733975 50.4191862,89.6478237 C49.6041042,90.7278237 48.3575468,90.1324139 47.5542682,89.4773319 C39.4244321,82.8465123 32.2100059,75.3363483 29.4926288,64.924545 C27.667055,57.9317582 29.4427927,51.0707745 33.5175468,45.0209385 C38.469678,37.6668401 45.28476,33.1186434 53.8978747,30.6543811 C65.9562354,27.2052008 80.082137,31.6891352 86.9077108,41.1074959 C94.814596,52.0176598 95.0926288,63.0229057 87.7536124,73.8819221 C84.7949239,78.2602827 80.7804977,81.9724139 79.8959075,87.5592991 C79.7254157,88.6379877 78.6860714,88.8543811 77.5883665,88.6563483 C76.0001698,88.3704467 76.0782026,87.1278237 76.3542682,86.1815942 C77.3686944,82.7127418 79.0427927,79.6012664 81.2893501,76.7009385 C85.8014813,70.8740532 89.6801698,64.6097909 89.2473829,56.8615942 C88.6939403,46.9599549 82.5031206,38.8714303 72.6578747,34.792086 C69.3490222,33.4209385 65.9398419,33.3560204 61.5431206,33.112086" id="Fill-28" fill="#000000"></path>
                        <path d="M46.9443665,58.5276926 C46.8086288,58.596545 46.3496124,58.6850696 46.2925632,58.8876926 C46.0571534,59.7172008 45.973219,60.4726106 46.8564977,61.1644139 C47.8801042,61.9650696 48.3201042,63.5086762 49.9292845,63.5558893 C50.0676452,63.5598237 50.28076,63.3401516 50.345678,63.1781844 C50.7128911,62.2653975 48.0571534,58.4568729 46.9443665,58.5276926 M71.5076452,61.0444139 C72.4342026,60.9388401 76.1102682,56.6581844 76.0414157,55.7047418 C75.9253501,54.0988401 74.6283009,54.331627 73.9679731,54.8404795 C72.3063337,56.1204795 70.9489567,57.7198237 70.5089567,59.9145778 C70.32076,60.8522827 70.7319075,61.0601516 71.5076452,61.0444139 M60.1351862,87.0890041 C56.9404321,84.996545 58.1010878,81.4588401 56.7417436,78.8955614 C55.210596,76.0070368 54.4997763,72.6962172 53.2473173,69.6450696 C51.9719075,66.5375286 48.2938747,66.8981844 46.0676452,64.9919549 C43.7948583,63.0470368 42.293219,60.4214631 43.1771534,58.3093319 C44.3404321,55.5303155 47.490596,54.771627 49.8794485,56.6857254 C51.3384649,57.8568729 52.2073173,59.3958893 53.0564977,61.051627 C55.0591206,64.9572008 58.8584649,65.8181844 63.1797763,64.716545 C67.1620714,63.7014631 66.7201042,60.1290041 68.1483009,57.7263811 C69.2014157,55.9558893 70.3050222,54.3821188 71.7889567,53.0011352 C73.6715796,51.2503155 75.943055,50.7821188 77.8414157,52.3617909 C79.7102682,53.9172008 79.1784649,56.2660532 78.2361698,58.3211352 C76.7692845,61.5211352 74.0951862,63.5080204 71.0191206,64.8621188 C69.025678,65.7394959 68.3043665,67.0103155 68.3299403,69.0712991 C68.3896124,73.8699877 68.3738747,78.6712991 68.3168255,83.4699877 C68.3069895,84.3224467 68.9069895,85.6470368 67.4164977,85.8581844 C65.8086288,86.0844139 66.0643665,84.7211352 65.7069895,83.7106434 C64.103055,79.171627 64.4302682,74.5093319 64.7174813,69.8758893 C64.8702682,67.4076926 63.7004321,67.3926106 61.9633829,67.8378565 C61.7640386,67.8896598 61.5968255,68.0693319 61.4151862,68.1899877 C59.9915796,69.1394959 57.1496124,67.946709 56.9758419,69.2253975 C56.7004321,71.2490041 57.8827272,73.4785123 58.4794485,75.611627 C59.5050222,79.2758893 61.0853501,82.8627745 60.1351862,87.0890041" id="Fill-38" fill="#FD415B"></path>
                        <path d="M57.7723665,6.46506963 C57.7723665,4.9358893 57.8707272,3.39818438 57.7349895,1.88211881 C57.6549895,0.990971269 57.9979403,0.124741761 58.5815468,0.0211352036 C59.386137,-0.121815616 60.2044977,0.472282745 60.4490878,1.44277455 C61.8018747,6.81129914 62.6851534,12.2539221 62.9258091,17.7896598 C62.9631862,18.6519549 62.9494157,19.5568729 62.2346616,20.231627 C61.7454813,20.6932664 62.161219,21.9385123 60.946137,21.7588401 C59.9703993,21.6152336 59.3251534,21.0749057 59.3631862,20.0270368 C59.5271206,15.4329385 57.158596,11.1168729 57.7723665,6.46506963" id="Fill-56" fill="#000000"></path>
                        <path d="M19.6028583,16.4144467 C20.2448255,16.5810041 20.8166288,16.608545 21.4166288,17.0295286 C25.153678,19.6577254 28.1425304,23.02625 31.0900714,26.451168 C31.9149895,27.4098565 32.0802354,28.6019877 31.2166288,29.3390368 C30.6205632,29.8465778 29.6940059,29.4314959 28.7608911,28.7482172 C24.8264649,25.8649385 21.8913829,22.008545 18.4349895,18.6734631 C18.0625304,18.3134631 17.2481042,17.7547745 17.6244977,17.0564139 C18.0159731,16.3298565 18.9064649,16.4577254 19.6028583,16.4144467" id="Fill-58" fill="#000000"></path>
                        <path d="M97.4960386,82.8892008 C100.863252,84.4846106 104.261285,86.0177254 107.584563,87.7003483 C109.20817,88.5219877 110.713088,89.5869057 112.229153,90.6052664 C112.888826,91.0472336 113.349809,91.7003483 112.810793,92.5364139 C112.343907,93.2616598 111.734071,93.3980532 110.854071,93.1272336 C105.606858,91.5114959 101.073088,88.4951024 96.3898091,85.7849385 C95.8921042,85.4977254 95.4809567,84.4754303 95.5806288,83.8865778 C95.7084977,83.1305123 96.4848911,82.7095286 97.4960386,82.8892008" id="Fill-60" fill="#000000"></path>
                        <path d="M103.793744,14.8135286 C103.755711,15.0082827 103.594399,15.6463155 103.019973,16.2692664 C99.782596,19.7748401 96.5878419,23.3236926 93.4862026,26.9499221 C92.7799731,27.7761516 92.0337436,28.5577909 91.1340714,27.9997582 C90.3491534,27.512545 90.1747272,26.3132008 90.7098091,25.3820532 C93.5275141,20.4732008 97.3412845,16.3918893 101.684891,12.8410696 C102.654071,12.0482827 104.092104,12.3315614 103.793744,14.8135286" id="Fill-64" fill="#000000"></path>
                        <path d="M9.4343993,60.7996926 C7.15636651,60.7996926 4.85866159,60.9728073 2.60816979,60.723627 C1.54980914,60.60625 -0.160354799,60.4567418 0.012104217,58.6193647 C0.172104217,56.9157582 1.59833373,57.1655942 2.73669438,57.1623155 C6.86194028,57.1524795 10.9871862,57.2108401 15.1117763,57.1859221 C16.6147272,57.1773975 18.3635796,57.6075614 18.3865304,58.991168 C18.4166944,60.7905123 16.5248911,60.9577254 14.9714485,60.9524795 C13.1255468,60.9465778 11.2796452,60.951168 9.4343993,60.951168 L9.4343993,60.7996926 Z" id="Fill-66" fill="#000000"></path>
                        <path d="M19.4804977,101.537397 C18.7342682,101.602971 18.6090222,101.220676 18.5191862,100.765594 C18.394596,100.140676 18.0968911,99.5531352 18.7290222,98.9721516 C22.3198419,95.6737909 26.487055,93.3065778 30.954596,91.456086 C31.5486944,91.2101844 32.3736124,91.2410041 32.8595141,92.1898565 C33.6195141,93.6757582 32.3519731,94.3846106 31.662137,94.7924795 C28.9552518,96.3931352 26.0706616,97.6908401 23.2929567,99.1767418 C21.9309895,99.9059221 20.6582026,100.80166 19.4804977,101.537397" id="Fill-72" fill="#000000"></path>
                        <path d="M112.318334,57.0970696 C110.425219,57.4590368 107.976039,56.5672336 105.740629,57.9042827 C104.743252,58.5016598 103.996367,57.7652664 103.699973,56.9298565 C103.371448,56.0059221 103.54653,55.0629713 104.678989,54.6170696 C108.404891,53.1495286 112.28817,53.0210041 116.195055,53.3698565 C116.987186,53.4406762 117.690793,54.2616598 118.500629,54.4406762 C119.648826,54.6951024 119.408826,55.4505123 119.395055,56.1810041 C119.376039,57.1764139 118.560957,57.0590368 117.978662,57.0780532 C116.235711,57.1324795 114.489481,57.0970696 112.318334,57.0970696" id="Fill-74" fill="#000000"></path>
                    </g>
                </g>
            </g>
        </g>
    </g>
</svg>