<?xml version="1.0" encoding="UTF-8"?>
<svg width="150px" height="150px" viewBox="0 0 150 150" version="1.1" xmlns="http://www.w3.org/2000/svg" xmlns:xlink="http://www.w3.org/1999/xlink">
    <title>A9C3370F-BC92-4CA2-A625-A76F4FD3284D</title>
    <defs>
        <rect id="path-1" x="0" y="0" width="150" height="150"></rect>
    </defs>
    <g id="Page-2" stroke="none" stroke-width="1" fill="none" fill-rule="evenodd">
        <g id="Nitreo-Landing-Page" transform="translate(-765.000000, -2196.000000)">
            <g id="fast-icon" transform="translate(765.000000, 2196.000000)">
                <mask id="mask-2" fill="white">
                    <use xlink:href="#path-1"></use>
                </mask>
                <g id="Mask"></g>
                <g id="fire" mask="url(#mask-2)">
                    <g transform="translate(36.000000, 15.000000)">
                        <path d="M23.976597,29.7946141 C20.4768852,44.3321949 12.92125,56.2347106 7.69327272,69.1170224 C3.90568802,78.4564413 2.42108642,88.2975816 7.39614678,98.034882 C7.84954658,98.9231755 9.15936822,101.031844 7.01060274,101.912941 C5.27719671,102.622342 4.92660865,100.983523 4.20384208,99.8135252 C-0.884311199,91.5721357 -0.839074031,82.6573292 1.62018292,73.8823468 C4.86389349,62.3067723 12.0884748,52.3535673 16.0210241,41.015488 C17.8418201,35.7648921 19.5690574,30.4587779 19.1927665,24.7414168 C19.1094889,23.483001 18.8781625,21.8822221 20.4265074,21.2180583 C21.9913022,20.5466976 22.6852814,21.9212906 23.7391018,22.765375 C27.0259933,25.4004401 29.4050571,28.7315406 31.4664326,32.2919114 C32.2693924,33.6778137 32.8687848,35.2580302 34.6340625,35.089419 C36.2502631,34.9341732 35.3917851,33.1226303 35.9233218,32.1726497 C40.7225741,23.5960939 40.0748601,14.2505063 39.8795178,4.93884648 C39.846618,3.34629254 38.63858,1.12658696 41.2160705,0.195112546 C43.7514081,-0.722996341 44.6129705,1.83495989 45.3131185,2.96794532 C53.7097538,16.55863 63.5354723,29.3463549 69.9848531,44.0412376 C75.1264685,55.756636 78.6662769,68.1608731 76.4116153,81.0771127 C73.7261725,96.4587779 65.3141155,107.586093 50.2778977,113.555343 C41.518337,117.032436 32.9921589,117.903252 24.003328,115.231175 C21.9419525,114.618417 19.8610428,113.22943 20.1191003,111.558739 C20.458379,109.354455 22.5886384,109.161169 24.9892927,109.890104 C40.7266865,114.66571 56.9205646,109.235194 66.0080948,95.2229808 C71.7799461,86.3215398 73.0733179,76.1884142 71.3162652,65.2728912 C68.2874311,46.4593699 58.3640415,31.2175286 48.1959599,15.9294221 C47.7548975,15.2673144 47.8392031,14.2330283 46.6424744,14.283406 C45.2576002,14.3420087 45.1619852,15.4307851 44.8617749,16.3910468 C43.4491416,20.9065387 43.9971282,25.7366345 42.0447331,30.2747449 C40.415167,34.0633577 38.805135,37.8725329 36.7848842,41.4318755 C34.6155564,45.2554443 33.5288362,44.8873783 31.1158446,41.1388621 C29.324864,38.3557481 28.8467894,34.8570644 26.2230336,32.5612781 C25.5383074,31.9629138 25.0520078,31.1373355 23.976597,29.7946141" id="Fill-12" fill="#000000"></path>
                        <path d="M49.1805879,45.577862 C57.8239714,57.8885404 60.9381391,71.1512555 57.0847549,85.2138461 C53.0278035,100.017709 35.8345953,105.794701 24.8861725,96.960088 C19.3162031,92.4641304 18.5539971,86.4187997 19.8802686,80.0670901 C21.3031832,73.255812 25.9893425,67.443864 26.0140173,60.0640369 C26.0222423,57.7600257 27.7649014,57.1883924 29.7584211,59.2353742 C31.9575643,61.4941483 34.440468,63.4414028 35.7585146,66.4527588 C36.9367372,69.1412859 38.309274,69.2841943 40.0591299,66.7313786 C43.1136668,62.2775738 44.9766157,57.3343851 46.0006206,52.1249139 C46.4725266,49.7222034 47.0606097,47.608394 49.1805879,45.577862" id="Fill-16" fill="#FD415B"></path>
                    </g>
                </g>
            </g>
        </g>
    </g>
</svg>