<?xml version="1.0" encoding="UTF-8"?>
<svg width="150px" height="150px" viewBox="0 0 150 150" version="1.1" xmlns="http://www.w3.org/2000/svg" xmlns:xlink="http://www.w3.org/1999/xlink">
    <title>4552FBDC-8EA3-417C-BF5B-2DC9949AFB52</title>
    <defs>
        <rect id="path-1" x="0" y="0" width="150" height="150"></rect>
    </defs>
    <g id="Page-2" stroke="none" stroke-width="1" fill="none" fill-rule="evenodd">
        <g id="Nitreo-Landing-Page" transform="translate(-765.000000, -1720.000000)">
            <g id="followers-icon" transform="translate(765.000000, 1720.000000)">
                <mask id="mask-2" fill="white">
                    <use xlink:href="#path-1"></use>
                </mask>
                <g id="Mask"></g>
                <g id="followers" mask="url(#mask-2)">
                    <g transform="translate(74.822822, 71.373833) rotate(-330.000000) translate(-74.822822, -71.373833) translate(10.322822, 11.873833)">
                        <path d="M4.96270195,54.9928095 C4.68513337,62.1732829 7.61816188,67.7553162 11.0724384,73.1315938 C16.124348,80.9946922 21.0511904,88.9465481 26.3822824,96.6168009 C30.4812603,102.51352 35.6880919,107.2104 43.6883609,105.12218 C49.3381726,103.648 54.9855637,101.88899 60.3182695,99.5401468 C68.2951387,96.0269676 69.3198832,95.9624168 74.0861554,103.175166 C75.9799155,106.039609 78.3400554,108.411045 80.6420995,110.880114 C81.0600661,111.328743 81.131072,112.208248 82.0557627,111.857253 C82.9005718,111.534499 82.6576993,110.743751 82.6649612,110.133745 C82.7141812,106.102546 82.7964836,102.069733 82.7198294,98.0401468 C82.6278445,93.2246546 84.9193991,89.9099693 88.9982049,87.7079789 C100.125155,81.7023307 110.019991,74.0490225 119.059528,65.263654 C126.624886,57.9097003 125.416978,52.8602113 121.870717,45.4142726 C116.972923,35.1289042 110.810739,25.5624706 105.060066,15.7580058 C98.8228418,5.12406285 90.0051979,1.33492891 78.3908892,5.53718819 C70.8021318,8.28301928 63.2771183,11.2604265 55.9021855,14.665483 C39.4223577,22.2727987 24.3069731,31.8715077 10.4777638,43.5818359 C6.75721513,46.7335303 4.21956048,50.3306255 4.96270195,54.9928095 M85.2478015,0.315832624 C95.0490387,-1.39476447 101.435537,4.0476777 106.694816,11.6985653 C114.555494,23.1329386 121.24054,35.2378337 127.280077,47.7106686 C130.05899,53.4500446 127.928813,61.9247622 121.996591,67.8860317 C112.90622,77.0207815 102.369103,84.3029225 91.1372582,90.4675271 C87.6248859,92.3951764 86.6178929,94.9368654 86.4081027,98.2644609 C86.0385492,104.155531 85.8941167,110.060319 85.6359134,115.959458 C85.5971829,116.843805 86.0506525,117.895176 84.9710398,118.501147 C83.7687805,119.174897 83.0086944,118.355908 82.1404857,117.692648 C77.3233797,114.01083 73.152589,109.668979 69.7322017,104.707441 C67.7585599,101.844612 66.0842727,101.476672 62.8301038,102.930679 C55.7634013,106.087215 48.30778,108.531271 40.6657681,109.627021 C34.8319865,110.463762 29.8091248,107.381459 26.2781942,102.790281 C17.2289741,91.0250849 7.96592949,79.1670967 2.54930766,65.3136809 C-2.24923995,53.0417605 -1.05504953,46.7044824 12.9323093,35.9704857 C28.0234873,24.3900661 44.3734066,14.9390171 61.7868009,7.4850096 C69.1512442,4.33170137 76.4648536,0.285170978 85.2478015,0.315832624" id="Fill-10" fill="#000000"></path>
                        <path d="M34.1886568,78.840873 C33.9118951,73.4202167 33.7400285,68.1770752 38.3005449,64.9688988 C46.7922071,58.9931054 50.2190495,58.3435626 59.7160909,65.9629816 C62.5942512,68.2722877 64.644547,71.3594313 66.9498187,74.2230677 C68.6192646,76.298377 67.7518628,76.9777745 66.2349182,77.7725567 C57.1187267,82.5444771 47.708022,86.7483501 38.8637509,92.0552355 C37.8745094,92.6491032 36.2954346,92.9508783 35.8242135,90.8505556 C34.9043641,86.7443157 33.5294314,82.7171505 34.1886568,78.840873" id="Fill-90" fill="#FD415B"></path>
                        <path d="M27.4203405,48.0972474 C27.48005,43.0292 31.7387912,38.9576562 36.8972098,39.036731 C41.4932291,39.10693 45.423568,43.3220994 45.4074798,48.1642189 C45.3920995,52.7190871 40.7976939,57.7209698 36.5341113,57.8226374 C31.3200177,57.9468977 27.3541759,53.7155906 27.4203405,48.0972474" id="Fill-92" fill="#FD415B"></path>
                        <path d="M98.9546062,32.808221 C98.6899478,39.5658864 98.8424491,39.7312979 105.73083,40.7269945 C107.039598,40.9166126 108.558156,40.8738477 109.556274,41.5572796 C110.218727,42.0107492 112.451379,42.118065 111.321739,43.914192 C110.610873,45.0438315 109.333573,46.1363544 107.952992,45.0631968 C105.845408,43.4268332 103.236747,44.3837993 101.056543,43.3751925 C100.388442,43.0653485 99.7388988,43.1436164 99.2354023,43.6979467 C98.3583179,44.6637885 99.5597703,45.0042942 99.8550903,45.6142995 C100.196403,46.3187105 100.468323,47.0884792 100.94842,47.6879951 C102.065956,49.0839069 102.671927,51.0397971 101.362352,51.9685222 C99.7009752,53.146575 97.9871506,51.5917067 97.2044717,50.0489418 C94.0398671,43.8109106 90.2120027,38.0077907 86.1404588,32.3442619 C85.6942512,31.7229601 85.6353485,30.8369999 85.329539,30.1019273 C84.948689,29.1869192 85.2383609,28.4599155 86.0299155,28.0677691 C86.7432022,27.7135464 87.0078606,28.3993991 87.5073227,28.8447998 C89.399469,30.5279628 91.2609537,32.2530838 92.2582641,34.5736863 C92.780319,35.7880489 93.7687536,36.3343103 94.6006525,36.2891247 C95.8513249,36.2213463 95.4567579,34.8447998 95.4761231,33.9806255 C95.52615,31.6979467 95.4115723,29.4096196 95.5132399,27.1309752 C95.5495497,26.3353861 94.9847299,24.998377 96.3306148,24.8386137 C97.5231915,24.6966019 98.3567041,25.7673388 98.519695,26.7904695 C98.8368009,28.7681457 98.8279252,30.7990763 98.9546062,32.808221" id="Fill-94" fill="#000000"></path>
                        <path d="M79.6429333,38.3436971 C84.567355,42.7331538 86.8363168,48.8638692 90.5334658,53.9674195 C90.9514325,54.5451495 92.1496573,56.5115292 90.4366396,57.3716691 C88.6074303,58.2915185 88.0208246,56.1153485 87.771497,55.3213732 C87.384192,54.0900661 86.3989849,53.5002328 85.8390064,52.5190602 C82.7437939,47.097597 82.6719811,47.1379413 77.102858,50.0798455 C73.4702598,51.9986191 71.0641275,50.9020618 70.0563276,46.0526804 C69.2115185,41.9892054 67.0119489,38.5994797 65.5418036,34.8660209 C65.0947891,33.7323469 64.5977477,32.5954453 65.5232453,32.0967901 C66.6319058,31.498888 67.4444394,32.4598886 68.0851065,33.6524652 C70.0498725,37.3141113 72.2607385,40.8377799 73.0280866,45.0247084 C73.3024276,46.5222877 74.8734335,47.9633851 75.7198563,46.8805448 C76.9915078,45.2530569 81.3519166,46.189044 79.7704212,42.2732291 C79.2693453,41.0322393 78.8941436,39.8283662 79.6429333,38.3436971" id="Fill-96" fill="#000000"></path>
                    </g>
                </g>
            </g>
        </g>
    </g>
</svg>