<?xml version="1.0" encoding="UTF-8"?>
<svg width="17px" height="22px" viewBox="0 0 17 22" version="1.1" xmlns="http://www.w3.org/2000/svg" xmlns:xlink="http://www.w3.org/1999/xlink">
    <title>1E55248C-8C31-494C-AFBE-CA84966DF076</title>
    <g id="Page-2" stroke="none" stroke-width="1" fill="none" fill-rule="evenodd">
        <g id="Nitreo-Landing-Page" transform="translate(-1122.000000, -7074.000000)" fill="#FFFFFF">
            <g id="footer" transform="translate(0.000000, 6530.000000)">
                <path d="M1132.17693,554.440061 C1131.33492,553.440834 1132.14269,551.391263 1130.14352,551.223909 C1129.06462,551.133579 1128.32742,552.699291 1128.47696,552.934568 C1129.21066,554.091347 1128.85709,556.192034 1130.91705,556.27046 C1132.11893,556.317375 1131.52288,554.953329 1132.17693,554.440061 M1135.95517,547.182186 C1134.96711,549.951592 1135.38497,552.197227 1138.07173,553.875676 C1139.11639,554.52829 1139.21562,555.973562 1138.68595,556.979091 C1138.06125,558.16738 1137.22063,559.66447 1135.58412,559.422891 C1132.73175,559.002053 1132.09308,560.867464 1131.76116,562.915634 C1131.51799,564.414824 1130.6089,565.494577 1129.50834,565.937822 C1128.49093,566.347456 1128.0542,564.614389 1127.34915,564.203355 C1124.51355,562.550114 1124.38777,560.754026 1125.79718,557.981119 C1126.50224,556.593965 1125.1089,555.467297 1123.56881,554.858798 C1121.57872,554.073141 1121.90365,552.223836 1122.29147,550.693835 C1122.68487,549.140027 1123.5744,547.830598 1125.59105,548.158306 C1127.87392,548.530828 1129.4154,547.592521 1130.35664,545.473627 C1131.16302,543.659334 1132.73455,543.886208 1134.25367,544.254529 C1135.79585,544.628451 1136.27031,545.689298 1135.95517,547.182186" id="Flower"></path>
            </g>
        </g>
    </g>
</svg>