<?xml version="1.0" encoding="UTF-8"?>
<svg width="24px" height="28px" viewBox="0 0 24 28" version="1.1" xmlns="http://www.w3.org/2000/svg" xmlns:xlink="http://www.w3.org/1999/xlink">
    <title>1D82415C-AA84-4333-B306-8092A3E36E77</title>
    <g id="Page-2" stroke="none" stroke-width="1" fill="none" fill-rule="evenodd">
        <g id="Nitreo-Landing-Page" transform="translate(-1196.000000, -6670.000000)" fill="#FFFFFF">
            <g id="footer" transform="translate(0.000000, 6530.000000)">
                <path d="M1201.78669,161.314662 C1201.78669,160.488131 1201.67889,159.643818 1201.80629,158.838627 C1202.23331,156.138533 1201.50668,154.447773 1198.61136,153.706599 C1197.54241,153.43346 1195.56343,152.858729 1196.08635,150.774621 C1196.55047,148.92453 1198.19344,149.595997 1199.23158,149.699135 C1202.32011,150.007128 1203.56406,148.745994 1203.20705,145.678158 C1203.16645,145.330332 1203.24905,144.970414 1203.24485,144.616898 C1203.22245,142.777477 1203.81187,140.654958 1205.23923,140.12504 C1207.21542,139.392401 1207.53183,142.069022 1208.24586,143.228441 C1211.07328,147.821304 1210.93467,147.918041 1215.63887,145.912887 C1216.5363,145.530207 1217.54994,145.243553 1218.15617,146.102092 C1218.7841,146.991928 1218.71129,148.171975 1218.04276,149.105911 C1216.89822,150.703491 1214.0764,151.569854 1214.82193,153.894382 C1215.39876,155.696104 1217.30773,157.05611 1218.62239,158.613856 C1219.44282,159.585492 1220.59437,160.791145 1219.63883,161.922112 C1218.63919,163.107137 1217.15583,162.613495 1215.92798,161.656797 C1214.87163,160.834534 1213.51848,160.571353 1212.34173,159.909844 C1210.84367,159.067665 1209.207,159.118879 1208.20176,161.355206 C1207.29592,163.368184 1205.66275,165.031203 1204.55881,166.970207 C1204.05758,167.852218 1203.63687,168.173726 1202.70933,167.911256 C1201.85809,167.672259 1201.72439,166.929662 1201.69359,166.27171 C1201.61588,164.622206 1201.66769,162.967011 1201.66769,161.314662 L1201.78669,161.314662 Z" id="Fill-24"></path>
            </g>
        </g>
    </g>
</svg>