<?xml version="1.0" encoding="UTF-8"?>
<svg width="21px" height="24px" viewBox="0 0 21 24" version="1.1" xmlns="http://www.w3.org/2000/svg" xmlns:xlink="http://www.w3.org/1999/xlink">
    <title>D67DE431-AB45-4B79-BE9F-5F06077A7C35</title>
    <g id="Page-2" stroke="none" stroke-width="1" fill="none" fill-rule="evenodd">
        <g id="Nitreo-Landing-Page" transform="translate(-450.000000, -6976.000000)" fill="#FFFFFF">
            <g id="footer" transform="translate(0.000000, 6530.000000)">
                <path d="M463.374305,470 C463.030203,469.531465 462.732666,469.174018 462.488796,468.786343 C460.608866,465.792254 458.501639,466.590274 456.665117,468.675255 C455.660435,469.815609 454.59893,470.399766 453.501909,469.48839 C452.774245,468.884584 452.094724,467.850029 453.158597,466.440646 C453.962816,465.375862 453.569783,463.660419 454.603665,462.301668 C455.332908,461.343438 455.416565,459.71868 453.3488,459.109585 C452.433301,458.839043 451.65197,457.953361 450.965345,457.214285 C449.921992,456.091312 449.682857,454.647167 450.45235,453.388924 C451.166597,452.220609 452.267564,452.597704 453.499542,453.096467 C457.298074,454.633564 458.812593,452.304492 459.563934,449.320226 C459.971173,447.703025 460.660165,445.863647 462.266235,446.007986 C464.114596,446.174996 464.50684,448.156446 464.245607,449.87869 C463.703411,453.456181 464.519468,455.747468 469.047242,454.864809 C469.741759,454.729538 470.690405,454.612405 470.824573,455.739911 C470.924015,456.57874 471.351774,457.444018 470.346304,458.124905 C469.041718,459.009832 467.679518,459.863019 466.556453,460.93536 C465.404976,462.034905 463.885721,462.980288 465.363937,465.135549 C466.66142,467.028581 465.509154,468.75007 463.374305,470" id="Fill-28"></path>
            </g>
        </g>
    </g>
</svg>