<?xml version="1.0" encoding="UTF-8"?>
<svg width="150px" height="150px" viewBox="0 0 150 150" version="1.1" xmlns="http://www.w3.org/2000/svg" xmlns:xlink="http://www.w3.org/1999/xlink">
    <title>7BA1096C-2A1E-41DD-9D80-06FECFD10D99</title>
    <defs>
        <rect id="path-1" x="0" y="0" width="150" height="150"></rect>
    </defs>
    <g id="Page-2" stroke="none" stroke-width="1" fill="none" fill-rule="evenodd">
        <g id="Nitreo-Landing-Page" transform="translate(-1175.000000, -1720.000000)">
            <g id="growth-icon" transform="translate(1175.000000, 1720.000000)">
                <mask id="mask-2" fill="white">
                    <use xlink:href="#path-1"></use>
                </mask>
                <g id="Mask"></g>
                <g id="growth" mask="url(#mask-2)">
                    <g transform="translate(7.000000, 27.000000)">
                        <path d="M13.7972446,91.4061413 C24.3961017,90.7082365 34.9949588,90.0179508 45.5930541,89.3017604 C46.9820065,89.2080461 48.3648636,88.8293794 49.7469588,88.8446175 C63.833816,88.9954746 77.8284827,87.2811889 91.8871493,86.7714746 C104.387721,86.3181413 116.852483,84.8781413 129.333245,83.8777604 C129.964864,83.8274746 130.610197,83.7429032 131.231911,83.8183318 C132.447911,83.9661413 134.210197,83.136427 134.310006,85.4556651 C134.396102,87.4350937 132.913435,88.2670937 131.516102,88.248808 C126.153054,88.1809984 120.953816,89.6339508 115.650197,89.792427 C104.376292,90.1291889 93.1435303,91.1973794 81.8962922,91.8686175 C64.2063874,92.9261413 46.5355303,94.1855699 28.8166731,94.8316651 C22.8905779,95.0472842 16.9561017,95.7299508 11.0033398,95.9318556 C7.83686361,96.0400461 6.03953028,94.8682365 5.83610171,91.5615699 C5.67153028,88.904808 5.16029218,86.2526175 5.1945779,83.6042365 C5.39876837,67.8632842 3.93286361,52.1878556 2.97362551,36.5147127 C2.29476837,25.4221413 1.73476837,14.2762365 0.365625515,3.21414131 C0.23686361,2.17795083 -0.845803057,0.191665116 1.46124456,0.0103317825 C3.53819694,-0.153477741 3.07648266,1.66595083 3.33324456,2.95814131 C7.05438742,21.7337604 7.16714932,40.864427 8.86238742,59.8350937 C9.58391123,67.9021413 9.29438742,76.0575699 9.54353028,84.1710937 C9.57781599,85.2811889 8.76714932,86.8011889 10.5667684,87.4091889 C8.71686361,91.1661413 9.11610171,91.6606175 13.7972446,91.4061413" id="Fill-24" fill="#000000"></path>
                        <path d="M13.7972446,91.4061413 C9.11610171,91.6606175 8.71686361,91.1661413 10.5667684,87.4091889 C18.6490541,76.9520461 26.5149588,66.3158556 35.2265779,56.360808 C38.6056255,52.4987127 39.089435,52.5505223 42.6924827,55.9615699 C48.2429588,61.2156651 53.8170541,66.4522365 59.177816,71.896808 C61.441435,74.1962365 63.1321017,74.0179508 64.9911493,71.7200461 C75.0703874,59.2629032 87.3766731,48.9467127 98.1812446,37.1874746 C98.7641017,36.5535699 99.3187684,35.7390937 100.060864,35.4358556 C102.59953,34.3966175 101.567911,33.3649984 100.228483,32.1901413 C93.7827684,26.5406175 93.9884827,25.1531889 101.948864,21.9082365 C106.069245,20.2289984 110.250578,18.6891889 114.453245,17.2263318 C117.874197,16.0347127 118.949245,16.9672842 119.036102,20.5863318 C119.186959,26.8278556 116.465435,32.5101413 115.592292,38.5627127 C115.325626,40.4080461 114.061626,42.2335699 111.337816,39.992808 C104.473054,34.3432842 105.902387,34.9909032 99.5983874,41.9889984 C88.4425779,54.3722365 76.5271493,65.9669032 64.7046731,77.6758556 C61.8056255,80.5474746 60.049435,78.016427 58.1012446,76.6038556 C51.9305779,72.128427 46.4387684,66.880427 41.3263874,61.2522365 C39.489435,59.2293794 38.2566731,59.9737604 37.0505779,61.6956651 C31.5755303,69.5097604 25.6113398,76.9238556 19.2425779,84.0278556 C17.2060065,86.3006175 15.2242922,88.6609984 13.7972446,91.4061413" id="Fill-26" fill="#FD415B"></path>
                    </g>
                </g>
            </g>
        </g>
    </g>
</svg>