<?xml version="1.0" encoding="UTF-8"?>
<svg width="112px" height="33px" viewBox="0 0 112 33" version="1.1" xmlns="http://www.w3.org/2000/svg" xmlns:xlink="http://www.w3.org/1999/xlink">
    <title>BD105A33-E20D-43A5-8F7A-9B8CB1351DD3</title>
    <g id="Page-2" stroke="none" stroke-width="1" fill="none" fill-rule="evenodd">
        <g id="Nitreo-Landing-Page" transform="translate(-806.000000, -83.000000)" fill="#FFFFFF">
            <g id="highlight" transform="translate(806.000000, 83.000000)">
                <path d="M57.7723665,6.46506963 C57.7723665,4.9358893 57.8707272,3.39818438 57.7349895,1.88211881 C57.6549895,0.990971269 57.9979403,0.124741761 58.5815468,0.0211352036 C59.386137,-0.121815616 60.2044977,0.472282745 60.4490878,1.44277455 C61.8018747,6.81129914 62.6851534,12.2539221 62.9258091,17.7896598 C62.9631862,18.6519549 62.9494157,19.5568729 62.2346616,20.231627 C61.7454813,20.6932664 62.161219,21.9385123 60.946137,21.7588401 C59.9703993,21.6152336 59.3251534,21.0749057 59.3631862,20.0270368 C59.5271206,15.4329385 57.158596,11.1168729 57.7723665,6.46506963" id="Fill-56"></path>
                <path d="M28.6028583,8.41444668 C29.2448255,8.58100406 29.8166288,8.60854504 30.4166288,9.02952865 C34.153678,11.6577254 37.1425304,15.02625 40.0900714,18.451168 C40.9149895,19.4098565 41.0802354,20.6019877 40.2166288,21.3390368 C39.6205632,21.8465778 38.6940059,21.4314959 37.7608911,20.7482172 C33.8264649,17.8649385 30.8913829,14.008545 27.4349895,10.6734631 C27.0625304,10.3134631 26.2481042,9.75477455 26.6244977,9.05641389 C27.0159731,8.32985652 27.9064649,8.45772537 28.6028583,8.41444668" id="Fill-58"></path>
                <path d="M91.7937436,8.81352865 C91.7557108,9.00828274 91.5943993,9.64631553 91.0199731,10.2692664 C87.782596,13.7748401 84.5878419,17.3236926 81.4862026,20.9499221 C80.7799731,21.7761516 80.0337436,22.5577909 79.1340714,21.9997582 C78.3491534,21.512545 78.1747272,20.3132008 78.7098091,19.3820532 C81.5275141,14.4732008 85.3412845,10.3918893 89.6848911,6.84106963 C90.6540714,6.04828274 92.0921042,6.33156143 91.7937436,8.81352865" id="Fill-64"></path>
                <path d="M10.4343993,27.7996926 C8.15636651,27.7996926 5.85866159,27.9728073 3.60816979,27.723627 C2.54980914,27.60625 0.839645201,27.4567418 1.01210422,25.6193647 C1.17210422,23.9157582 2.59833373,24.1655942 3.73669438,24.1623155 C7.86194028,24.1524795 11.9871862,24.2108401 16.1117763,24.1859221 C17.6147272,24.1773975 19.3635796,24.6075614 19.3865304,25.991168 C19.4166944,27.7905123 17.5248911,27.9577254 15.9714485,27.9524795 C14.1255468,27.9465778 12.2796452,27.951168 10.4343993,27.951168 L10.4343993,27.7996926 Z" id="Fill-66" transform="translate(10.193443, 26.051906) rotate(20.000000) translate(-10.193443, -26.051906) "></path>
                <path d="M104.318334,29.0970696 C102.425219,29.4590368 99.9760386,28.5672336 97.7406288,29.9042827 C96.7432518,30.5016598 95.9963665,29.7652664 95.6999731,28.9298565 C95.3714485,28.0059221 95.5465304,27.0629713 96.6789895,26.6170696 C100.404891,25.1495286 104.28817,25.0210041 108.195055,25.3698565 C108.987186,25.4406762 109.690793,26.2616598 110.500629,26.4406762 C111.648826,26.6951024 111.408826,27.4505123 111.395055,28.1810041 C111.376039,29.1764139 110.560957,29.0590368 109.978662,29.0780532 C108.235711,29.1324795 106.489481,29.0970696 104.318334,29.0970696" id="Fill-74" transform="translate(103.488636, 27.664691) rotate(-20.000000) translate(-103.488636, -27.664691) "></path>
            </g>
        </g>
    </g>
</svg>