<?xml version="1.0" encoding="UTF-8"?>
<svg width="150px" height="150px" viewBox="0 0 150 150" version="1.1" xmlns="http://www.w3.org/2000/svg" xmlns:xlink="http://www.w3.org/1999/xlink">
    <title>33B94549-6792-4107-B6BB-CD6A62F61CDA</title>
    <defs>
        <rect id="path-1" x="0" y="0" width="150" height="150"></rect>
    </defs>
    <g id="Page-2" stroke="none" stroke-width="1" fill="none" fill-rule="evenodd">
        <g id="Nitreo-Landing-Page" transform="translate(-355.000000, -2196.000000)">
            <g id="likes-icon" transform="translate(355.000000, 2196.000000)">
                <mask id="mask-2" fill="white">
                    <use xlink:href="#path-1"></use>
                </mask>
                <g id="Mask"></g>
                <g id="likes" mask="url(#mask-2)">
                    <g transform="translate(75.000000, 69.333333) rotate(-30.000000) translate(-75.000000, -69.333333) translate(15.000000, 16.000000)">
                        <path d="M114.626873,46.5554511 C115.159896,41.6323742 112.626873,37.8732444 109.003719,34.5166011 C104.24692,30.1102297 98.4512712,27.3681939 92.8553116,24.3596469 C81.6237654,18.3184659 69.7846046,13.5911932 57.6012324,9.9307425 C49.4971143,7.49562206 41.2678991,5.29049386 32.7690646,4.37829495 C28.3797872,3.90665547 24.6128874,4.66811624 21.2702301,7.75747132 C15.0441228,13.5127161 12.8949387,21.2881629 10.5445113,28.9346275 C8.43728522,35.7893284 6.9097017,42.8258474 4.68126347,49.6362592 C2.6144414,55.9509445 4.19097598,63.2695148 9.56082835,67.2089088 C15.3083031,71.425692 21.5654904,74.8732444 27.9337887,78.0744876 C30.0511158,79.1397557 31.25469,80.439678 30.7706186,82.9711465 C29.8623047,87.7225063 29.0922969,92.5010611 28.185537,97.2531978 C28.0215898,98.1125607 27.196415,99.1413097 28.0643249,99.7147363 C28.8700747,100.248536 29.7558555,99.6673392 30.6097794,98.8988855 C33.6105564,96.2019158 36.9283497,93.8507114 39.8762907,91.1009057 C42.9943948,88.1918148 46.8125766,88.0472926 50.1575649,89.2477588 C61.4536022,93.2998179 72.9594297,96.1179997 84.8964927,97.39772 C93.6804865,98.3394449 99.4287382,94.8064224 102.249251,86.5873082 C105.008381,78.5469041 108.393773,70.7092973 110.904263,62.5974092 C112.491675,57.468427 114.890277,52.43657 114.626873,46.5554511 M24.4380622,97.1226617 C23.7954826,93.6145032 25.4932293,89.417922 26.248474,85.1234387 C26.7131205,82.4839671 25.8009216,80.9556065 23.7006885,80.0301986 C18.0441228,77.5352491 13.1591189,73.8048684 7.92446471,70.6315972 C1.64319043,66.8250704 -1.41430763,57.6782172 0.630758418,50.5414651 C3.03091382,42.1622887 5.18942198,33.6619002 7.6105564,25.2718458 C9.55927435,18.5189321 12.3681322,12.0255366 16.9034857,6.44123201 C22.9128097,-0.956592389 30.9508827,-0.723492156 38.9874018,0.999118567 C44.0417918,2.08303465 49.0860809,3.49717606 54.1078369,4.84216441 C63.6229884,7.39150396 72.9174717,10.5352491 81.8273396,14.5974092 C91.3619161,18.9439515 101.071318,23.1164457 109.424853,29.6712242 C116.592685,35.2951559 120.435731,41.8887845 117.964092,51.6564612 C114.466034,65.480859 109.806361,78.8242934 103.80403,91.7100743 C100.890277,97.9649305 95.8327786,101.278839 88.7752806,101.338668 C79.9780778,101.41326 71.6128874,99.1894838 63.173882,97.0410766 C58.0130428,95.7263913 53.0417918,94.0146586 48.0472308,92.2516438 C46.4419472,91.6844333 44.7387615,91.7590253 43.0254748,93.1319857 C38.0425688,97.1265467 32.7752806,100.765241 27.6867025,104.63082 C26.8677437,105.253198 26.22361,106.287386 25.1156069,105.869359 C23.8102456,105.376741 24.5647134,104.066718 24.4807973,103.14908 C24.3292821,101.481636 24.4380622,99.7908824 24.4380622,97.1226617" id="Fill-8" fill="#000000"></path>
                        <path d="M33.9090801,18.955995 C37.765335,18.895389 40.5905098,19.7811698 42.1468423,23.2015273 C43.1771454,25.4688155 45.0209682,25.931908 47.1810304,24.7811698 C52.6324678,21.8790719 59.1134313,24.2636873 61.3877126,30.900051 C62.3473085,33.6988078 60.7474639,36.3779064 59.7008439,38.5737106 C54.6340218,49.1999733 46.5236877,57.1129492 36.0186372,62.3825685 C29.5027087,65.6506337 28.1561663,64.957549 26.2867025,56.4952336 C24.5081477,48.4416205 22.6262518,40.3281784 23.0846823,31.954441 C23.2595074,28.7516438 24.2167724,25.7648528 26.0287382,23.1145032 C28.0163062,20.2069663 30.6192588,18.3895615 33.9090801,18.955995" id="Fill-84" fill="#FD415B"></path>
                        <path d="M92.7361974,50.1127161 C92.6654904,52.1927472 92.7665005,54.1150471 91.5644803,55.8337728 C91.1511158,56.4250704 91.0034857,57.4079764 91.5901213,58.0288 C92.3989791,58.8858319 93.4432681,58.1041691 93.9988237,57.7428637 C95.6724834,56.6550626 97.2117219,55.3248373 98.6577203,53.9378909 C99.320502,53.3015273 99.7975805,53.014037 100.602553,53.5175335 C101.598668,54.1391341 100.810789,54.7444177 100.670152,55.4196314 C100.054768,58.3691263 97.6048843,59.6138816 95.4176271,60.986842 C93.3982021,62.2549072 91.9498726,63.058326 94.0143637,65.7685047 C95.4455991,67.6480696 95.8092355,70.3069663 97.2078369,72.4025374 C97.6414033,73.05211 98.2591189,74.5944566 96.9490956,75.1041691 C96.0547677,75.4514884 94.9459876,75.4848995 94.1215898,74.031131 C92.9654127,71.990727 92.0143637,69.9114729 91.2288159,67.7265467 C90.8620715,66.7078987 90.1860809,65.7537417 89.0920638,65.8159018 C87.7851485,65.8912709 88.306516,67.2075102 88.1891889,67.9736329 C87.8543015,70.1663291 86.8698416,71.9254589 85.0306807,73.1414651 C84.7128874,73.3512553 83.9187926,73.5089865 83.7587304,72.8159018 C83.266112,70.6752646 83.6056613,68.7863758 84.4424911,66.6022266 C86.5543792,61.0901831 88.0454437,55.3341613 89.6274173,49.6317526 C89.9988237,48.2937573 90.1767569,46.8423198 91.8170055,47.1080541 C93.8480855,47.4359484 92.30807,49.2339282 92.7361974,50.1127161" id="Fill-86" fill="#000000"></path>
                        <path d="M82.1749698,41.1665622 C81.9403155,46.1626772 79.7794764,50.5853657 78.407293,55.1440292 C77.0918307,59.5169896 76.0180156,64.0080541 74.3373629,68.2970984 C73.7149853,69.884511 73.0817297,71.3242934 71.2876349,70.7034698 C69.1058167,69.948225 69.9053505,68.8806259 70.5937732,66.8565389 C72.4803311,61.3033144 73.8152184,55.5410766 76.0133536,50.0671061 C76.2526698,49.4711465 76.3233769,49.0127161 75.8393054,48.8246819 C75.2619938,48.6016827 74.8183264,48.895389 74.2829729,49.4587145 C72.8074484,51.0134931 71.2736489,52.5239826 69.5129651,53.8246819 C68.7406263,54.3950005 68.0312246,54.7454278 67.2223668,54.8161349 C66.450028,54.884511 65.3583419,55.5426306 64.9107895,54.2551403 C64.5339441,53.1751092 65.6792433,53.1222732 66.1469977,52.6249927 C70.3062829,48.2085203 74.5424911,43.8627549 78.5984352,39.3538194 C79.367666,38.4991186 80.0320016,38.2147363 80.8354204,38.6249927 C81.8113334,39.1230502 82.9628486,39.7757308 82.1749698,41.1665622" id="Fill-88" fill="#000000"></path>
                    </g>
                </g>
            </g>
        </g>
    </g>
</svg>