<?xml version="1.0" encoding="UTF-8"?>
<svg width="150px" height="150px" viewBox="0 0 150 150" version="1.1" xmlns="http://www.w3.org/2000/svg" xmlns:xlink="http://www.w3.org/1999/xlink">
    <title>40FDBF80-CEE6-4B4C-9AED-D9B8218B381C</title>
    <defs>
        <rect id="path-1" x="0" y="0" width="150" height="150"></rect>
    </defs>
    <g id="Page-2" stroke="none" stroke-width="1" fill="none" fill-rule="evenodd">
        <g id="Nitreo-Landing-Page" transform="translate(-1175.000000, -2196.000000)">
            <g id="support-icon" transform="translate(1175.000000, 2196.000000)">
                <mask id="mask-2" fill="white">
                    <use xlink:href="#path-1"></use>
                </mask>
                <g id="Mask"></g>
                <g id="bubble" mask="url(#mask-2)">
                    <g transform="translate(15.000000, 22.000000)">
                        <path d="M6.30996034,76.2587657 C7.66741698,77.5211934 8.12730138,78.3424651 9.12753259,78.981309 C15.7767811,83.227783 23.0586309,84.8620027 30.8239488,84.2994593 C33.1955095,84.1274362 34.5716944,84.7870894 36.0741222,86.6751818 C43.731232,96.2966847 53.9562031,100.747783 66.1448736,101.176454 C72.9411742,101.41576 79.5599025,100.564662 85.8810586,98.1667425 C91.7700759,95.9339102 97.0875326,92.7514824 101.521983,88.0673206 C110.928457,78.1309044 113.743255,65.6932165 114.757359,52.7810778 C115.316434,45.6663957 113.719671,38.6037368 111.047764,31.8414246 C105.052619,16.6721761 93.3543534,8.47055757 77.9249892,5.72234947 C68.9985152,4.13182924 59.9055673,4.53206046 51.0873014,8.08905468 C42.9397869,11.374835 36.6671858,16.544546 31.7797869,23.6876674 C25.5710008,32.761887 23.1224459,42.9584188 23.0045268,53.7466269 C22.9525037,58.5570316 23.2972436,63.447205 24.2017522,68.1591125 C24.6075326,70.2747194 24.6345846,71.1001529 22.7457985,72.168361 C17.877128,74.9193437 12.7060297,76.3905576 6.30996034,76.2587657 M119.365914,48.8522917 C119.278515,65.8513668 115.278978,79.3537946 105.314122,90.6220027 C100.136088,96.4777252 93.3827927,99.9591125 86.0163187,102.637956 C77.79181,105.629633 69.3626771,106.000731 61.0153939,104.969286 C50.5878794,103.6805 41.4193245,99.1059333 34.6410586,90.7343726 C33.1254517,88.8622339 31.6493823,88.2733321 29.3229083,88.2705576 C18.5915788,88.2559911 9.25863086,84.4749506 1.40175224,77.1757599 C0.721289816,76.5431587 -0.53697608,75.8273206 0.251000798,74.3325229 C0.919671319,73.0624651 2.03504704,73.4189969 2.95134762,73.4682454 C8.41308172,73.7602685 13.5307696,72.3258177 18.597128,70.5556443 C20.1543534,70.0118292 21.0498447,69.1961067 20.6433707,67.3024651 C18.6942378,58.2372628 18.8704228,49.2122917 20.644758,40.0846616 C22.5356251,30.3556443 26.8889199,22.0333321 33.447995,14.754257 C40.2359719,7.21992173 48.8093823,3.18639572 58.6778216,1.15125121 C63.2537754,0.207204965 67.750654,-0.150020468 72.3141222,0.0566847341 C90.1531973,0.863389936 107.836897,11.2069738 115.088226,29.1313668 C115.969151,31.3094015 117.050538,33.4444304 117.609614,35.7057021 C118.846377,40.71102 119.756434,45.7898639 119.365914,48.8522917" id="Fill-14" fill="#000000"></path>
                        <path d="M40.2417578,54.4723842 C40.2535904,51.2767772 42.9782147,48.5875287 46.2105846,48.5216327 C49.0815673,48.4640605 52.7356713,51.6381645 52.643417,54.5507657 C52.5456135,57.6506501 49.4831858,60.8254477 46.3770586,60.8040535 C43.0940528,60.7817483 40.2293129,57.8254477 40.2417578,54.4723842" id="Fill-66" fill="#FD415B"></path>
                        <path d="M76.3050586,55.0152975 C76.1899141,58.4932165 73.4902609,60.8529853 70.0123418,60.8377988 C67.2433245,60.8252396 63.7036713,56.7285922 63.9963881,54.3168003 C64.3834401,51.1302107 67.7150008,48.3195749 70.6317638,48.5276674 C73.9980066,48.768361 76.4208968,51.5040836 76.3050586,55.0152975" id="Fill-68" fill="#FD415B"></path>
                        <path d="M93.4821915,59.6343957 C89.8364112,59.6052628 87.3878563,57.2316212 87.3704306,53.7072281 C87.3538679,50.4263032 89.7927118,48.2343957 93.4717869,48.2246486 C97.3083187,48.2142801 99.7714401,50.4540489 99.727047,53.9118524 C99.682654,57.3689622 97.1786077,59.6642223 93.4821915,59.6343957" id="Fill-70" fill="#FD415B"></path>
                    </g>
                </g>
            </g>
        </g>
    </g>
</svg>