<svg width="72" height="25" viewBox="0 0 72 25" xmlns="http://www.w3.org/2000/svg"><title>Wyre White</title><g fill="#FFF" fill-rule="evenodd"><path d="M40.245 20.693c2.207.31 3.55-.094 4.592-1.134.653-.652 1.15-1.417 1.588-2.22 1.776-3.25 6.049-11.1 6.049-11.1h-3.078l-3.2 6.431-1-6.432h-3.27v.15l1.675 8.905c.085.45.173 1.607-.64 2.356-.456.418-1.113.766-2.245.58l-.47 2.464zM37.793 6.239l-2.976 6.753-.08-.007-.403-6.58h-3.24l-3.16 6.587-.08-.027-.136-6.726h-3.101l.617 10.787h3.356l3.252-7.039.076.014.516 7.025h3.378l4.886-10.787zM55.73 17.027h-3.256c.725-3.638 1.418-7.154 2.143-10.789h2.525v1.985c.338-.82.8-1.584 1.582-1.919.767-.328 1.953-.311 3.163.06-.477.923-.84 1.744-1.356 2.742-.465-.092-.883-.21-1.31-.252-.956-.095-1.652.287-1.978 1.194-.228.634-.37 1.305-.508 1.968-.346 1.659-.666 3.322-1.005 5.01m10.412-8.222c.466-.566 1.304-.879 1.927-.684.759.238 1.008 1.08.469 1.667-.184.2-.439.364-.693.46-.784.294-1.594.285-2.447.138.144-.625.372-1.13.744-1.581zm4.168 5.54h-.109c-1.247.479-2.63.604-3.584.334-1.054-.299-1.661-1.216-1.47-2.252 3.14.265 4.473-.333 5.189-.761 1.938-1.16 2.431-4.262-.098-5.181-2.222-.807-5.318-.423-6.78 1.348-1.333 1.615-1.724 3.39-1.52 5.366.153 1.487 1.173 3.618 4.504 3.951 2.015.201 3.304-.316 3.398-.355l.47-2.45zM4.977 24.226h7.405a3.6 3.6 0 0 0 3.33-2.234l3.994-9.758-4.483 5.702c-.68.905-1.708 1.493-2.918 1.493H6.941l-1.964 4.797z"/><path d="M2.522 18.228h7.405a3.6 3.6 0 0 0 3.33-2.234l3.994-9.758-4.483 5.702c-.68.905-1.708 1.493-2.918 1.493H4.486l-1.964 4.797z"/><path d="M7.391.23h7.406L10.8 9.99a3.597 3.597 0 0 1-3.329 2.234H.067l3.995-9.759A3.597 3.597 0 0 1 7.392.231"/></g></svg>