<svg width="132" height="44" viewBox="0 0 132 44" xmlns="http://www.w3.org/2000/svg"><title>WyreLogo</title><g fill="none" fill-rule="evenodd"><path d="M73.746 37.261c4.026.564 6.478-.17 8.377-2.058 1.192-1.185 2.099-2.573 2.899-4.031 3.24-5.901 11.035-20.158 11.035-20.158h-5.616l-5.839 11.679-1.822-11.68h-5.968v.272s2.02 10.692 3.057 16.172c.155.816.315 2.918-1.17 4.276-.83.76-2.03 1.392-4.095 1.056l-.858 4.472zm-4.475-26.247l-5.429 12.263-.147-.013-.735-11.946h-5.913l-5.764 11.96-.147-.05-.247-12.214H45.23l1.126 19.59h6.124l5.933-12.782.14.023.94 12.757h6.164l8.915-19.588zM102 30.604h-5.943c1.324-6.606 2.589-12.99 3.912-19.59h4.606v3.604c.617-1.49 1.458-2.876 2.886-3.484 1.4-.597 3.564-.566 5.77.109-.868 1.675-1.53 3.165-2.472 4.978-.849-.167-1.612-.38-2.39-.457-1.746-.173-3.014.52-3.61 2.168-.417 1.151-.676 2.37-.927 3.573-.63 3.012-1.216 6.033-1.833 9.099m18.997-14.931c.85-1.028 2.38-1.596 3.515-1.242 1.385.431 1.84 1.96.856 3.026-.334.362-.8.662-1.265.835-1.429.535-2.908.518-4.464.252.263-1.136.68-2.051 1.358-2.871zm7.605 10.061h-.199c-2.275.868-4.8 1.096-6.54.605-1.922-.543-3.03-2.208-2.681-4.088 5.73.48 8.161-.606 9.467-1.383 3.537-2.105 4.436-7.74-.179-9.408-4.055-1.466-9.703-.769-12.371 2.448-2.432 2.932-3.145 6.156-2.773 9.744.28 2.7 2.14 6.57 8.219 7.174 3.675.365 6.028-.574 6.199-.645l.858-4.447z" fill="#061027"/><path d="M22.76 21.9h13.512l-7.29 17.72a6.563 6.563 0 0 1-6.074 4.058H9.396l7.29-17.721a6.563 6.563 0 0 1 6.074-4.058" fill="#94C5FF"/><path d="M36.272 21.9L28.09 32.255c-1.24 1.643-3.116 2.712-5.323 2.712H12.98l3.716-9.015a6.563 6.563 0 0 1 6.073-4.052h13.503z" fill="#1A32AF"/><path d="M18.28 11.007h13.513l-7.29 17.722a6.563 6.563 0 0 1-6.074 4.057H4.917l7.29-17.721a6.563 6.563 0 0 1 6.074-4.058" fill="#0092FF"/><path d="M31.793 11.008L23.61 21.363c-1.24 1.644-3.116 2.712-5.323 2.712H8.501l3.716-9.015a6.563 6.563 0 0 1 6.072-4.052h13.504z" fill="#1A32AF"/><path d="M13.801.105h13.512l-7.29 17.721a6.563 6.563 0 0 1-6.073 4.058H.438l7.29-17.722A6.563 6.563 0 0 1 13.8.105" fill="#05F"/></g></svg>