<svg xmlns="http://www.w3.org/2000/svg" viewBox="0 0 508 70"><style>.st0{enable-background:new}.st1,.st3{fill-rule:evenodd;clip-rule:evenodd;fill:#2f455c}.st3{fill:#fff}</style><g id="Top_1_" class="st0"><path class="st1" d="M.2 20.6h12.1V52h2.4V20.6h12.1v-2.2H.2v2.2zm55.4-.2c-2.7-1.5-5.6-2.2-8.9-2.2-3.3 0-6.3.7-8.9 2.2-2.7 1.5-4.7 3.5-6.3 6.1-1.5 2.6-2.3 5.5-2.3 8.7 0 3.2.8 6.1 2.3 8.7 1.5 2.6 3.6 4.6 6.3 6.1 2.7 1.5 5.6 2.2 8.9 2.2 3.3 0 6.3-.7 8.9-2.2 2.7-1.5 4.7-3.5 6.3-6.1 1.5-2.6 2.3-5.5 2.3-8.7 0-3.2-.8-6.1-2.3-8.7-1.6-2.6-3.7-4.7-6.3-6.1zm4.1 22.4c-1.3 2.3-3.1 4-5.4 5.3-2.3 1.2-4.8 1.9-7.6 1.9s-5.4-.6-7.7-1.9c-2.3-1.3-4.1-3-5.4-5.3-1.3-2.3-2-4.8-2-7.6s.7-5.3 2-7.6 3.1-4 5.4-5.3c2.3-1.3 4.8-1.9 7.7-1.9 2.8 0 5.4.6 7.6 1.9 2.3 1.3 4.1 3 5.4 5.3 1.3 2.3 2 4.8 2 7.6s-.7 5.3-2 7.6zm34.9-21.4c-2.4-2-5.7-3-9.9-3h-12V52h2.4V41h9.6c4.2 0 7.5-1 9.9-3 2.4-2 3.6-4.8 3.6-8.3 0-3.5-1.2-6.3-3.6-8.3zm-1.7 15c-1.9 1.6-4.6 2.4-8.2 2.4h-9.6V20.6h9.6c3.6 0 6.3.8 8.2 2.4 1.9 1.6 2.8 3.8 2.8 6.7 0 2.9-.9 5.2-2.8 6.7z" id="Top"/></g><g id="Ellipse_2_1_" class="st0"><circle cx="150" cy="35" r="35" fill-rule="evenodd" clip-rule="evenodd" fill="#75b823" id="Ellipse_2"/></g><g id="_x35__1_" class="st0"><path class="st3" d="M139.7 18c-.6 5.4-1.1 10.8-1.7 16.3.1 0 .2-.1.3-.1.1 0 .3-.1.4-.1l3.9-3.6.9-8.6h14V18h-17.8z" id="_x35_"/></g><g id="Shape_1_1_" class="st0"><path class="st3" d="M138.7 46.6v6.3h6.3c.1-3.4-2.8-6.2-6.3-6.3zm0-8.3v4.2c5.8 0 10.6 4.7 10.6 10.5h4.2c0-8.1-6.6-14.7-14.8-14.7zm0-8.4v4.2c10.5 0 19 8.5 19.1 18.9h4.2c-.1-12.7-10.5-23-23.3-23.1z" id="Shape_1"/></g><g id="Wifi_Boosters_1_" class="st0"><path class="st1" d="M235.8 49.7l-10.9-31.3h-1.6l-10.9 31.2-10.6-31.2h-1.7L211.5 52h1.7l10.9-31.3 11 31.3h1.6l11.5-33.6h-1.6l-10.8 31.3zm19.4-32.3c-.4 0-.8.2-1.1.5-.3.3-.5.7-.5 1.1 0 .4.2.8.5 1.1.3.3.7.5 1.1.5.4 0 .8-.2 1.1-.5.3-.3.5-.7.5-1.1 0-.4-.2-.8-.5-1.1-.3-.3-.7-.5-1.1-.5zm-.8 34.6h1.6V27.1h-1.6V52zm19.1-35.8c-2 0-3.6.6-4.7 1.7-1.1 1.2-1.7 2.7-1.7 4.7V27h-4.7v1.4h4.7V52h1.6V28.5h8.2v-1.4h-8.2v-4.2c0-1.7.4-3 1.2-3.9.8-.9 2-1.3 3.7-1.3 1.6 0 2.9.5 4 1.5l.8-1.2c-.6-.5-1.3-1-2.2-1.2-.8-.4-1.7-.6-2.7-.6zM285.8 52h1.6V27.1h-1.6V52zm.8-34.6c-.4 0-.8.2-1.1.5-.3.3-.5.7-.5 1.1 0 .4.2.8.5 1.1.3.3.7.5 1.1.5.4 0 .8-.2 1.1-.5.3-.3.5-.7.5-1.1 0-.4-.2-.8-.5-1.1-.4-.3-.7-.5-1.1-.5zm43.3 17.3c1.9-.5 3.4-1.5 4.5-2.8 1.1-1.3 1.6-3 1.6-5 0-2.8-1-4.9-3-6.3-2-1.5-4.8-2.2-8.4-2.2H311V52h14.6c4.1 0 7.1-.8 9.2-2.3 2-1.5 3.1-3.7 3.1-6.6 0-2.4-.7-4.3-2-5.7-1.4-1.3-3.4-2.3-6-2.7zm-17.3-14.9h12c3.1 0 5.5.6 7.2 1.8 1.7 1.2 2.5 3 2.5 5.4 0 2.3-.8 4.1-2.5 5.4-1.7 1.2-4.1 1.8-7.2 1.8h-12V19.8zm21 28.9c-1.8 1.2-4.4 1.8-7.9 1.8h-13.1V35.6h13.1c3.5 0 6.1.6 7.9 1.8 1.8 1.2 2.6 3.1 2.6 5.7 0 2.5-.9 4.4-2.6 5.6zm28.3-20.2c-1.9-1.1-4-1.6-6.3-1.6s-4.4.5-6.3 1.6c-1.9 1.1-3.3 2.6-4.4 4.5-1.1 1.9-1.6 4.1-1.6 6.5 0 2.4.5 4.6 1.6 6.5 1.1 1.9 2.5 3.4 4.4 4.5 1.9 1.1 4 1.6 6.3 1.6s4.4-.5 6.3-1.6c1.9-1.1 3.3-2.6 4.4-4.5 1.1-1.9 1.6-4.1 1.6-6.5 0-2.4-.5-4.6-1.6-6.5-1.1-1.9-2.6-3.4-4.4-4.5zm2.9 16.8c-.9 1.7-2.2 3-3.8 4-1.6.9-3.4 1.4-5.4 1.4s-3.8-.5-5.4-1.4c-1.6-.9-2.9-2.3-3.8-4-.9-1.7-1.4-3.6-1.4-5.8 0-2.2.5-4.1 1.4-5.8.9-1.7 2.2-3 3.8-3.9 1.6-.9 3.4-1.4 5.4-1.4s3.8.5 5.4 1.4c1.6.9 2.9 2.3 3.8 3.9.9 1.7 1.4 3.6 1.4 5.8 0 2.2-.4 4.1-1.4 5.8zm26.5-16.8c-1.9-1.1-4-1.6-6.3-1.6s-4.4.5-6.3 1.6c-1.9 1.1-3.3 2.6-4.4 4.5-1.1 1.9-1.6 4.1-1.6 6.5 0 2.4.5 4.6 1.6 6.5 1.1 1.9 2.5 3.4 4.4 4.5 1.9 1.1 4 1.6 6.3 1.6s4.4-.5 6.3-1.6c1.9-1.1 3.3-2.6 4.4-4.5 1.1-1.9 1.6-4.1 1.6-6.5 0-2.4-.5-4.6-1.6-6.5-1-1.9-2.5-3.4-4.4-4.5zm3 16.8c-.9 1.7-2.2 3-3.8 4-1.6.9-3.4 1.4-5.4 1.4s-3.8-.5-5.4-1.4c-1.6-.9-2.9-2.3-3.8-4-.9-1.7-1.4-3.6-1.4-5.8 0-2.2.5-4.1 1.4-5.8.9-1.7 2.2-3 3.8-3.9 1.6-.9 3.4-1.4 5.4-1.4s3.8.5 5.4 1.4c1.6.9 2.9 2.3 3.8 3.9.9 1.7 1.4 3.6 1.4 5.8 0 2.2-.5 4.1-1.4 5.8zm22.1-5.2c-1.2-.4-2.7-.8-4.7-1.1-1.8-.4-3.2-.7-4.2-1-1-.3-1.9-.9-2.6-1.6-.7-.7-1.1-1.7-1.1-2.9 0-1.5.6-2.8 1.9-3.7 1.2-.9 3.1-1.4 5.6-1.4 1.4 0 2.8.2 4.1.6 1.3.4 2.5 1 3.5 1.8l.8-1.2c-1-.8-2.2-1.4-3.7-1.8-1.5-.5-3.1-.7-4.6-.7-3 0-5.2.6-6.8 1.9-1.6 1.3-2.3 2.8-2.3 4.7 0 1.6.4 2.8 1.2 3.7.8.9 1.8 1.5 3 1.9 1.2.4 2.8.8 4.8 1.2 1.7.3 3.1.6 4.1 1 1 .3 1.9.8 2.6 1.5.7.7 1 1.6 1 2.7 0 1.6-.6 2.9-1.9 3.8-1.3.9-3.3 1.4-6 1.4-1.8 0-3.5-.3-5.2-.9a14 14 0 01-4-2.3l-.8 1.2c1 1 2.4 1.8 4.2 2.4 1.8.6 3.7.9 5.7.9 3.1 0 5.4-.6 7.1-1.8 1.6-1.2 2.4-2.8 2.4-4.8 0-1.5-.4-2.7-1.2-3.6-.7-.9-1.7-1.5-2.9-1.9zm18.2 10.7c-1.6 0-2.8-.4-3.6-1.3-.8-.9-1.2-2.2-1.2-3.9v-17h8.2v-1.4h-8.2v-5.5h-1.6v5.5h-4.7v1.4h4.7v17.3c0 2 .6 3.5 1.7 4.7 1.1 1.1 2.7 1.7 4.7 1.7 1 0 1.9-.2 2.8-.5.9-.3 1.6-.7 2.2-1.3l-.8-1.2c-1.3 1-2.6 1.5-4.2 1.5zm25.7-22.3c-1.8-1.1-3.8-1.6-5.9-1.6-2.2 0-4.2.5-6 1.6-1.8 1.1-3.2 2.6-4.2 4.5s-1.5 4.1-1.5 6.5c0 2.4.5 4.6 1.6 6.5 1.1 1.9 2.6 3.4 4.5 4.5s4.1 1.6 6.5 1.6c1.9 0 3.6-.4 5.2-1.1 1.6-.7 3-1.7 4.1-3l-1-1.1c-.9 1.2-2.1 2.1-3.6 2.8s-3 .9-4.7.9c-2.1 0-4-.5-5.6-1.4-1.7-.9-3-2.2-4-3.9-1-1.7-1.5-3.6-1.5-5.7H466v-.4c0-2.4-.5-4.5-1.5-6.4-1-1.8-2.4-3.3-4.2-4.3zm-16 10c.1-1.9.6-3.7 1.5-5.2.9-1.6 2.1-2.8 3.6-3.6 1.5-.9 3.2-1.3 5-1.3 1.9 0 3.5.4 5 1.3s2.7 2.1 3.6 3.6c.9 1.6 1.4 3.3 1.6 5.2h-20.3zm31.1-5.4v-6h-1.5V52h1.6V38.8c0-3.2.8-5.7 2.4-7.5s3.9-2.7 6.8-2.7h.4V27c-2.4 0-4.5.5-6.1 1.6-1.6 1-2.8 2.5-3.6 4.5zm31.2 8.9c-.8-.9-1.8-1.5-3-1.9-1.2-.4-2.7-.8-4.7-1.1-1.8-.4-3.2-.7-4.2-1-1-.3-1.9-.9-2.6-1.6-.7-.7-1.1-1.7-1.1-2.9 0-1.5.6-2.8 1.9-3.7 1.2-.9 3.1-1.4 5.6-1.4 1.4 0 2.8.2 4.1.6 1.3.4 2.5 1 3.5 1.8l.8-1.2c-1-.8-2.2-1.4-3.7-1.8-1.5-.5-3.1-.7-4.6-.7-3 0-5.2.6-6.8 1.9-1.6 1.3-2.3 2.8-2.3 4.7 0 1.6.4 2.8 1.2 3.7.8.9 1.8 1.5 3 1.9 1.2.4 2.8.8 4.8 1.2 1.7.3 3.1.6 4.1 1 1 .3 1.9.8 2.6 1.5.7.7 1 1.6 1 2.7 0 1.6-.6 2.9-1.9 3.8-1.3.9-3.3 1.4-6 1.4-1.8 0-3.5-.3-5.2-.9a14 14 0 01-4-2.3l-.8 1.2c1 1 2.4 1.8 4.2 2.4 1.8.6 3.7.9 5.7.9 3.1 0 5.4-.6 7.1-1.8 1.6-1.2 2.4-2.8 2.4-4.8.1-1.6-.3-2.8-1.1-3.6z" id="Wifi_Boosters"/></g></svg>