<?xml version="1.0" encoding="utf-8"?>
<!-- Generator: Adobe Illustrator 17.0.0, SVG Export Plug-In . SVG Version: 6.00 Build 0)  -->
<!DOCTYPE svg PUBLIC "-//W3C//DTD SVG 1.1//EN" "http://www.w3.org/Graphics/SVG/1.1/DTD/svg11.dtd">
<svg version="1.1" id="Слой_1" xmlns="http://www.w3.org/2000/svg" xmlns:xlink="http://www.w3.org/1999/xlink" x="0px" y="0px"
	 width="497.131px" height="79.388px" viewBox="0 0 497.131 79.388" enable-background="new 0 0 497.131 79.388"
	 xml:space="preserve">
<g>
	<defs>
		<rect id="SVGID_1_" y="0" width="497.131" height="79.388"/>
	</defs>
	<clipPath id="SVGID_2_">
		<use xlink:href="#SVGID_1_"  overflow="visible"/>
	</clipPath>
	<path clip-path="url(#SVGID_2_)" fill="#FFFFFF" d="M495.561,39.561c0,20.772-16.836,37.611-37.61,37.611
		c-20.767,0-37.612-16.839-37.612-37.611c0-20.77,16.845-37.608,37.612-37.608C478.725,1.953,495.561,18.791,495.561,39.561"/>
	<path clip-path="url(#SVGID_2_)" d="M476.82,33.316h-12.453V20.863c0-1.36-0.507-2.469-1.106-2.469h-11.087
		c-0.598,0-1.096,1.109-1.096,2.469v12.453h-12.465c-1.375,0-2.463,0.501-2.463,1.122v11.077c0,0.596,1.088,1.088,2.463,1.088
		h12.465v12.472c0,1.366,0.498,2.479,1.096,2.479h11.087c0.599,0,1.106-1.113,1.106-2.479V46.603l12.453,0.007
		c1.363-0.007,2.472-0.499,2.472-1.095V34.438C479.292,33.817,478.183,33.316,476.82,33.316"/>
	<path clip-path="url(#SVGID_2_)" fill="#F96632" d="M429.84,12.096c15.391-15.394,40.338-15.394,55.754,0.015
		c15.382,15.38,15.382,40.344,0,55.731c-15.416,15.402-40.363,15.39-55.754,0C414.468,52.455,414.468,27.491,429.84,12.096
		 M457.713,4.84c-9.004,0.017-17.972,3.419-24.826,10.291c-6.876,6.879-10.29,15.82-10.308,24.841
		c0.018,9.02,3.432,17.972,10.308,24.835c6.854,6.865,15.822,10.284,24.826,10.284c9.01,0,17.975-3.419,24.838-10.284
		c6.863-6.863,10.289-15.815,10.289-24.835c0-9.009-3.426-17.962-10.289-24.841C475.688,8.259,466.723,4.857,457.713,4.84"/>
	<path clip-path="url(#SVGID_2_)" fill="#FFFFFF" d="M285.769,39.561c0,20.772-16.84,37.611-37.617,37.611
		c-20.772,0-37.605-16.839-37.605-37.611c0-20.77,16.833-37.608,37.605-37.608C268.929,1.953,285.769,18.791,285.769,39.561"/>
	<path clip-path="url(#SVGID_2_)" fill="#F96632" d="M220.517,11.67c15.383-15.393,40.342-15.393,55.721,0.006
		c15.408,15.382,15.408,40.337,0.014,55.745c-15.393,15.395-40.352,15.376-55.735,0C205.126,52.013,205.126,27.058,220.517,11.67
		 M248.374,4.412c-9.009,0.015-17.953,3.424-24.838,10.294c-6.872,6.877-10.251,15.819-10.268,24.833
		c0.017,9.02,3.396,17.958,10.268,24.842c6.885,6.881,15.829,10.293,24.838,10.293c9.006,0,17.974-3.412,24.837-10.293
		c6.871-6.884,10.288-15.822,10.288-24.842c0-8.997-3.417-17.956-10.288-24.833C266.348,7.836,257.38,4.427,248.374,4.412"/>
	<path clip-path="url(#SVGID_2_)" fill-rule="evenodd" clip-rule="evenodd" d="M274.258,43.514h-52.612
		c0.4-2.519,0.492-4.988,1.194-7.264c3.183-10.15,10.097-16.298,20.455-18.688c0.833-0.187,1.719-0.848,2.201-1.55
		c1.532-2.114,3.773-2.114,5.202,0.033c0.471,0.697,1.378,1.375,2.204,1.53c11.336,2.168,20.13,11.674,21.348,23.203
		C274.336,41.614,274.258,42.447,274.258,43.514 M225.756,38.292c0.397,0.447,0.969,1.583,1.633,1.652
		c0.732,0.041,2.051-0.731,2.255-1.409c2.341-7.863,7.48-12.544,15.438-14.403c0.732-0.171,1.224-1.473,1.831-2.253
		c-0.936-0.491-2.045-1.588-2.777-1.374c-2.907,0.879-5.891,1.8-8.461,3.358C230.533,27.03,227.318,31.795,225.756,38.292"/>
	<path clip-path="url(#SVGID_2_)" fill-rule="evenodd" clip-rule="evenodd" d="M247.855,49.441h-25.362
		c-0.854,0-1.796,0.13-2.534-0.166c-0.673-0.262-1.586-1.085-1.544-1.63c0.026-0.732,0.714-1.664,1.393-2.058
		c0.654-0.392,1.648-0.229,2.498-0.229c17.073-0.021,34.161-0.021,51.228-0.013c0.609,0,1.355-0.215,1.761,0.068
		c0.845,0.546,1.503,1.353,2.237,2.06c-0.756,0.643-1.469,1.796-2.275,1.849c-3.065,0.23-6.147,0.119-9.22,0.119H247.855"/>
	<path clip-path="url(#SVGID_2_)" fill="#FFFFFF" d="M389.913,39.561c0,20.772-16.837,37.611-37.608,37.611
		c-20.769,0-37.606-16.839-37.606-37.611c0-20.77,16.837-37.608,37.606-37.608C373.076,1.953,389.913,18.791,389.913,39.561"/>
	<path clip-path="url(#SVGID_2_)" fill="#F96632" d="M324.963,11.799c15.398-15.393,40.345-15.393,55.751,0.008
		c15.384,15.38,15.384,40.35,0,55.735c-15.406,15.396-40.353,15.39-55.751,0C309.573,52.157,309.573,27.187,324.963,11.799
		 M352.829,4.536C343.82,4.557,334.87,7.97,327.994,14.83c-6.869,6.872-10.274,15.829-10.28,24.84
		c0.006,9.024,3.411,17.975,10.28,24.842c6.876,6.868,15.826,10.287,24.835,10.287c9.004,0,17.969-3.419,24.835-10.287
		c6.879-6.867,10.299-15.818,10.302-24.842c-0.003-8.998-3.423-17.968-10.302-24.84C370.798,7.97,361.833,4.557,352.829,4.536"/>
	<path clip-path="url(#SVGID_2_)" d="M383.97,45.052c-0.074-1.001,0.018-1.985-0.02-2.961c-0.026-0.357-0.14-0.99-0.326-1.043
		c-1.743-0.476-1.206-1.835-1.248-2.961c-0.077-1.802-0.5-2.369-2.252-2.729c-2.122-0.431-4.247-0.807-6.361-1.279
		c-1.433-0.299-2.99-0.46-4.199-1.175c-2.026-1.214-3.787-2.881-5.743-4.259c-2.498-1.762-4.898-3.87-8.212-3.983
		c-5.492-0.163-10.989-0.326-16.511-0.314c-1.691,0-2.987-0.101-3.721-1.915c-0.187-0.415-1.269-0.827-1.744-0.653
		c-0.933,0.324-0.829,1.173-0.334,1.947c0.136,0.246,0.231,0.52,0.213,0.435c-1.834,1.372-3.763,2.436-5.169,3.972
		c-1.834,2.027-3.654,4.263-4.669,6.724c-0.899,2.178,0.097,4.812-0.976,7.26c-0.491,1.13,0,3.043,0.682,4.204
		c0.364,0.598,2.157,0.336,3.31,0.466c0.042,0.012,0.083,0.018,0.237,0.086c1.456,4.036,3.539,5.991,6.722,6.123
		c4.374,0.178,6.783-2.25,7.912-6.149H365.8c1.207,4.044,3.678,6.149,7.169,6.172c3.604,0.026,6.046-2.009,7.418-6.254
		c0.587,0,1.224-0.047,1.873,0.012C383.52,46.862,384.048,46.322,383.97,45.052 M334.185,49.202
		c-1.947-0.007-3.385-1.467-3.382-3.444c0-1.933,1.489-3.436,3.42-3.445c1.942-0.011,3.436,1.456,3.465,3.405
		C337.7,47.757,336.221,49.242,334.185,49.202 M337.519,32.598c-0.383,0.641-2.03,0.641-3.115,0.641
		c-0.682,0-1.401-0.451-2.003-0.842c-0.163-0.099-0.074-0.763,0.035-1.107c0.97-2.802,3.666-4.324,6.85-3.77
		C338.728,29.254,338.429,31.1,337.519,32.598 M349.673,33.397h-8.948c0.578-1.947,1.13-3.743,1.752-5.508
		c0.11-0.28,0.673-0.542,1.026-0.564c1.718-0.028,3.437-0.021,5.147,0.071c0.358,0.025,0.954,0.55,0.97,0.877
		C349.72,29.918,349.673,31.591,349.673,33.397 M352.829,33.473v-5.656c2.878-0.643,8.796,2.359,10.803,5.656H352.829z
		 M372.987,49.202c-1.929-0.012-3.467-1.545-3.467-3.444c0.044-1.877,1.61-3.424,3.518-3.445c1.959-0.011,3.568,1.62,3.509,3.556
		C376.49,47.799,374.952,49.242,372.987,49.202"/>
	<path clip-path="url(#SVGID_2_)" fill="#FFFFFF" d="M179.625,39.561c0,20.772-16.842,37.611-37.617,37.611
		c-20.772,0-37.608-16.839-37.608-37.611c0-20.77,16.836-37.608,37.608-37.608C162.783,1.953,179.625,18.791,179.625,39.561"/>
	<path clip-path="url(#SVGID_2_)" d="M113.59,50.116l-0.577,1.956c-0.169,0.567,0.159,1.176,0.737,1.336
		c0.576,0.165,1.174-0.16,1.334-0.738l0.581-1.957C114.924,50.747,114.201,50.541,113.59,50.116 M142.382,47.632h-21.193
		c-0.815,0-1.108-0.785-0.735-1.443c1.173-1.959,2.35-3.939,3.515-5.912c0.8-1.305,1.511-2.071,2.738-2.98l6.129-4.466v3.713
		c0,3.063,2.507,5.563,5.559,5.563h3.987h3.977c3.056,0,5.556-2.5,5.556-5.563v-3.713l6.126,4.466
		c1.23,0.909,1.948,1.675,2.753,2.98c1.168,1.973,2.339,3.953,3.503,5.912c0.383,0.658,0.081,1.443-0.729,1.443H142.382z
		 M142.382,24.279c1.126-0.006,2.258,0.36,3.328,1.052l13.757,10.015c1.476,1.069,2.448,2.091,3.396,3.705l5.26,8.857
		c0.792,1.191,2.452,0.572,2.256-0.603c-2.587-12.274-12.24-29.264-27.997-29.241c-15.763-0.023-25.419,16.967-28.009,29.241
		c-0.19,1.175,1.47,1.794,2.258,0.603l5.258-8.857c0.951-1.614,1.929-2.636,3.402-3.705l13.763-10.015
		C140.126,24.639,141.252,24.273,142.382,24.279 M168.915,50.701l0.581,1.969c0.154,0.578,0.758,0.903,1.327,0.738
		c0.57-0.16,0.907-0.769,0.741-1.336l-0.548-1.85C170.396,50.597,169.632,50.771,168.915,50.701"/>
	<path clip-path="url(#SVGID_2_)" fill="#F96632" d="M114.222,11.541c15.407-15.388,40.352-15.388,55.748,0.006
		c15.387,15.379,15.399,40.34,0.009,55.742c-15.405,15.381-40.35,15.381-55.757,0C98.831,51.887,98.831,26.926,114.222,11.541
		 M142.1,4.28c-9.015,0.014-17.968,3.431-24.837,10.285c-6.862,6.897-10.287,15.833-10.29,24.844
		c0.003,9.02,3.428,17.966,10.29,24.843c6.869,6.853,15.822,10.284,24.837,10.284c9.015,0,17.971-3.431,24.829-10.284
		c6.873-6.877,10.296-15.823,10.296-24.843c0-9.004-3.423-17.947-10.296-24.844C160.071,7.711,151.115,4.294,142.1,4.28"/>
	<path clip-path="url(#SVGID_2_)" fill="#FFFFFF" d="M76.963,39.561c0,20.772-16.836,37.611-37.611,37.611
		c-20.768,0-37.608-16.839-37.608-37.611c0-20.77,16.84-37.608,37.608-37.608C60.127,1.953,76.963,18.791,76.963,39.561"/>
	<path clip-path="url(#SVGID_2_)" fill="#F96632" d="M11.536,11.632c15.396-15.392,40.353-15.392,55.734,0
		c15.404,15.392,15.404,40.343,0.014,55.743c-15.395,15.401-40.352,15.378-55.748,0C-3.845,51.974-3.845,27.024,11.536,11.632
		 M39.4,4.368c-9.009,0.018-17.941,3.418-24.834,10.293C7.701,21.54,4.294,30.491,4.282,39.493
		c0.012,9.018,3.419,17.979,10.284,24.837c6.893,6.876,15.825,10.294,24.834,10.294s17.977-3.418,24.835-10.294
		c6.881-6.858,10.295-15.819,10.295-24.837c0-9-3.414-17.953-10.295-24.832C57.376,7.786,48.409,4.386,39.4,4.368"/>
	<path clip-path="url(#SVGID_2_)" d="M64.388,32.249l-20.617-16.85c-0.978-0.798-2.3-1.294-3.779-1.294
		c-1.461,0-2.792,0.496-3.764,1.294L14.075,33.507c-0.75,0.631-1.034,1.579-0.613,2.474c0.432,0.86,1.428,1.401,2.487,1.401h4.125
		v22.16c0,1.032,0.841,1.87,1.891,1.87h12.26V47.645h10.032v13.767h12.512c1.04,0,1.894-0.838,1.894-1.87v-22.16h3.256
		c1.391,0,2.73-0.72,3.287-1.881C65.763,34.365,65.372,33.071,64.388,32.249"/>
</g>
</svg>
