<?xml version="1.0" encoding="utf-8"?>
<!-- Generator: Adobe Illustrator 17.0.0, SVG Export Plug-In . SVG Version: 6.00 Build 0)  -->
<!DOCTYPE svg PUBLIC "-//W3C//DTD SVG 1.1//EN" "http://www.w3.org/Graphics/SVG/1.1/DTD/svg11.dtd">
<svg version="1.1" id="Слой_1" xmlns="http://www.w3.org/2000/svg" xmlns:xlink="http://www.w3.org/1999/xlink" x="0px" y="0px"
	 width="55.202px" height="104.027px" viewBox="0 0 55.202 104.027" enable-background="new 0 0 55.202 104.027"
	 xml:space="preserve">
<g>
	<defs>
		<rect id="SVGID_1_" width="55.202" height="104.027"/>
	</defs>
	<clipPath id="SVGID_2_">
		<use xlink:href="#SVGID_1_"  overflow="visible"/>
	</clipPath>
	<g clip-path="url(#SVGID_2_)">
		<defs>
			<rect id="SVGID_3_" y="0" width="55.202" height="104.027"/>
		</defs>
		<clipPath id="SVGID_4_">
			<use xlink:href="#SVGID_3_"  overflow="visible"/>
		</clipPath>
		<path clip-path="url(#SVGID_4_)" fill="#ffffff" d="M21.408,0.269l-0.341-0.22c-0.118-0.073-0.27-0.061-0.377,0.014
			c-0.101,0.091-0.149,0.231-0.096,0.366c0.05,0.136,4.815,13.694-9.662,33.498C-2.966,52.951-3.655,70.86,9.108,81.85
			c0.054,0.059,0.141,0.084,0.208,0.084c0.172-0.017,0.33-0.141,0.33-0.321c0-0.087-0.034-0.163-0.085-0.211
			c-4.183-8.687-2.903-21.77,6.412-32.72c9.239-10.861,12.131-19.512,12.598-21.958c0.012-0.127,0.093-0.236,0.212-0.273
			c0.039-0.014,0.075-0.014,0.109-0.014c0.079,0,0.166,0.033,0.231,0.102c7.347,7.909,14.158,15.743,15.792,32.347
			c1.383,14.116-5.48,25.337-12.895,30.2c-0.132,0.082-0.179,0.234-0.132,0.375c0.057,0.129,0.169,0.22,0.31,0.22
			c0.009,0,0.023-0.015,0.04-0.022c6.434-0.945,12.257-4.717,16.374-10.628c6.015-8.611,7.938-20.868,5.282-33.613
			C48.054,17.392,32.023,7.081,21.408,0.269"/>
		<g clip-path="url(#SVGID_4_)">
			<g>
				<defs>
					<rect id="SVGID_5_" x="0.141" y="0" width="55.06" height="89.68"/>
				</defs>
				<clipPath id="SVGID_6_">
					<use xlink:href="#SVGID_5_"  overflow="visible"/>
				</clipPath>
				<g clip-path="url(#SVGID_6_)">
					<defs>
						<path id="SVGID_7_" d="M21.549,0.269l-0.344-0.22c-0.112-0.073-0.269-0.062-0.371,0.013c-0.11,0.091-0.149,0.232-0.098,0.367
							c0.047,0.135,4.814,13.693-9.667,33.498C-2.819,52.95-3.514,70.859,9.243,81.85c0.06,0.058,0.147,0.084,0.212,0.084
							c0.172-0.017,0.332-0.141,0.332-0.322c0-0.087-0.036-0.163-0.084-0.211c-4.187-8.686-2.906-21.769,6.409-32.719
							C25.351,37.82,28.239,29.17,28.71,26.724c0.011-0.127,0.093-0.237,0.219-0.274c0.022-0.013,0.07-0.013,0.099-0.013
							c0.084,0,0.168,0.033,0.234,0.101c7.344,7.909,14.166,15.743,15.791,32.348c1.38,14.116-5.477,25.337-12.897,30.2
							c-0.129,0.082-0.174,0.233-0.129,0.375c0.056,0.129,0.174,0.22,0.307,0.22c0.011,0,0.028-0.015,0.048-0.023
							c6.428-0.944,12.251-4.717,16.371-10.628c6.018-8.61,7.932-20.868,5.285-33.612C48.195,17.392,32.159,7.08,21.549,0.269"/>
					</defs>
					<clipPath id="SVGID_8_">
						<use xlink:href="#SVGID_7_"  overflow="visible"/>
					</clipPath>
					<defs>
						<filter id="Adobe_OpacityMaskFilter" filterUnits="userSpaceOnUse" x="-42.743" y="-26.35" width="138.657" height="142.356">
							<feColorMatrix  type="matrix" values="1 0 0 0 0  0 1 0 0 0  0 0 1 0 0  0 0 0 1 0"/>
						</filter>
					</defs>
					<mask maskUnits="userSpaceOnUse" x="-42.743" y="-26.35" width="138.657" height="142.356" id="SVGID_9_">
						<g filter="url(#Adobe_OpacityMaskFilter)">

								<linearGradient id="SVGID_10_" gradientUnits="userSpaceOnUse" x1="0" y1="104.0848" x2="1" y2="104.0848" gradientTransform="matrix(38.8577 -65.9673 -65.9673 -38.8577 6872.1221 4124.4028)">
								<stop  offset="0" style="stop-color:#ffffff"/>
								<stop  offset="0.3261" style="stop-color:#ffffff"/>
								<stop  offset="0.4671" style="stop-color:#ffffff"/>
								<stop  offset="0.6096" style="stop-color:#ffffff"/>
								<stop  offset="0.7394" style="stop-color:#ffffff"/>
								<stop  offset="0.8519" style="stop-color:#ffffff"/>
								<stop  offset="0.9425" style="stop-color:#ffffff"/>
								<stop  offset="1" style="stop-color:#ffffff"/>
							</linearGradient>
							<polygon clip-path="url(#SVGID_8_)" fill="url(#SVGID_10_)" points="-42.743,66.573 11.993,-26.35 95.914,23.084
								41.178,116.007 							"/>
						</g>
					</mask>

						<linearGradient id="SVGID_11_" gradientUnits="userSpaceOnUse" x1="0" y1="104.0848" x2="1" y2="104.0848" gradientTransform="matrix(38.8577 -65.9673 -65.9673 -38.8577 6872.1226 4124.4033)">
						<stop  offset="0" style="stop-color:#ffffff"/>
						<stop  offset="0.3261" style="stop-color:#ffffff"/>
						<stop  offset="0.4681" style="stop-color:#ffffff"/>
						<stop  offset="0.6103" style="stop-color:#ffffff"/>
						<stop  offset="0.7398" style="stop-color:#ffffff"/>
						<stop  offset="0.8519" style="stop-color:#ffffff"/>
						<stop  offset="0.9425" style="stop-color:#ffffff"/>
						<stop  offset="1" style="stop-color:#ffffff"/>
					</linearGradient>
					<polygon clip-path="url(#SVGID_8_)" mask="url(#SVGID_9_)" fill="url(#SVGID_11_)" points="-42.743,66.573 11.993,-26.35
						95.914,23.084 41.178,116.007 					"/>
				</g>
			</g>
		</g>
		<path clip-path="url(#SVGID_4_)" fill="#ffffff" d="M13.854,74.376c0.03-0.259,0.053-0.523,0.087-0.777
			C13.91,73.861,13.868,74.117,13.854,74.376"/>
		<path clip-path="url(#SVGID_4_)" fill="#ffffff" d="M13.583,76.575l-0.045,0.248l0.104,0.031c0.003-0.076,0.011-0.149,0.011-0.225
			C13.625,76.609,13.603,76.606,13.583,76.575"/>
	</g>
	<g clip-path="url(#SVGID_2_)">
		<defs>
			<path id="SVGID_12_" d="M36.78,64.44c0,0.029,0,0.058,0,0.087C36.78,64.498,36.78,64.469,36.78,64.44 M32.647,46.925
				c-0.663,1.323-3.312,6.014-9.789,11.739c-5.175,4.559-8.32,9.891-8.894,14.786c0,0.014-0.01,0.034-0.01,0.05
				c-0.005,0.034-0.008,0.068-0.013,0.099c-0.034,0.254-0.057,0.518-0.087,0.777c-0.079,0.746-0.15,1.495-0.2,2.253
				c0,0.076-0.009,0.15-0.012,0.225c-0.287,4.581,0.175,9.34,2.58,14.138c0.055,0.135,0.205,0.2,0.349,0.17
				c0.14-0.027,0.247-0.15,0.261-0.298c1.023-14.013,9.833-26.65,9.98-26.85c0.107-0.138,0.296-0.176,0.448-0.079
				c0.14,0.104,0.179,0.292,0.095,0.439c-0.043,0.073-0.971,1.628-2.157,4.213c0,0-9.759,17.624-3.63,33.618l0.685,1.625
				c0.039,0.104,0.141,0.183,0.253,0.197h0.042c0.099-0.005,0.19-0.045,0.248-0.116c0.499-0.619,1.085-1.151,1.775-1.565
				c0.143-0.087,0.191-0.265,0.115-0.422c-1.521-3.103-2.478-6.584-2.844-10.346c4.552-3.202,12.17-9.983,14.183-20.728
				c0.336-1.753,0.628-3.356,0.724-5.034c0.803-7.972-1.724-13.947-3.79-18.906c-0.014-0.051-0.048-0.092-0.098-0.101
				C32.844,46.8,32.827,46.8,32.804,46.8C32.742,46.809,32.683,46.859,32.647,46.925"/>
		</defs>
		<clipPath id="SVGID_13_">
			<use xlink:href="#SVGID_12_"  overflow="visible"/>
		</clipPath>

			<linearGradient id="SVGID_14_" gradientUnits="userSpaceOnUse" x1="0" y1="104.027" x2="1" y2="104.027" gradientTransform="matrix(23.335 0 0 -23.335 13.5665 2502.8799)">
			<stop  offset="0" style="stop-color:#ffffff"/>
			<stop  offset="0.2637" style="stop-color:#ffffff"/>
			<stop  offset="0.4198" style="stop-color:#ffffff"/>
			<stop  offset="0.688" style="stop-color:#ffffff"/>
			<stop  offset="1" style="stop-color:#ffffff"/>
		</linearGradient>
		<rect x="13.355" y="46.8" clip-path="url(#SVGID_13_)" fill="url(#SVGID_14_)" width="24.197" height="57.227"/>
	</g>
</g>
</svg>
