<?xml version="1.0" encoding="utf-8"?>
<!-- Generator: Adobe Illustrator 17.0.0, SVG Export Plug-In . SVG Version: 6.00 Build 0)  -->
<!DOCTYPE svg PUBLIC "-//W3C//DTD SVG 1.1//EN" "http://www.w3.org/Graphics/SVG/1.1/DTD/svg11.dtd">
<svg version="1.1" id="Слой_1" xmlns="http://www.w3.org/2000/svg" xmlns:xlink="http://www.w3.org/1999/xlink" x="0px" y="0px"
	 width="595.511px" height="168.182px" viewBox="0 0 595.511 168.182" enable-background="new 0 0 595.511 168.182"
	 xml:space="preserve">
<g>
	<defs>
		<rect id="SVGID_1_" width="595.511" height="168.182"/>
	</defs>
	<clipPath id="SVGID_2_">
		<use xlink:href="#SVGID_1_"  overflow="visible"/>
	</clipPath>
	<g clip-path="url(#SVGID_2_)">
		<defs>
			<rect id="SVGID_3_" width="595.511" height="168.182"/>
		</defs>
		<clipPath id="SVGID_4_">
			<use xlink:href="#SVGID_3_"  overflow="visible"/>
		</clipPath>
		<path clip-path="url(#SVGID_4_)" fill="#151011" d="M515.899,39.589v1.421h-2.767v7.202h-1.687V41.01h-2.773v-1.421H515.899z
			 M525.216,48.212l-0.32-5.079c-0.033-0.672-0.033-1.483-0.058-2.402h-0.099c-0.221,0.759-0.483,1.77-0.73,2.57l-1.549,4.765
			h-1.784l-1.553-4.904c-0.152-0.661-0.41-1.672-0.595-2.431h-0.092c0,0.795-0.036,1.613-0.073,2.402l-0.312,5.079h-1.65
			l0.636-8.623h2.563l1.497,4.213c0.192,0.673,0.349,1.298,0.56,2.184h0.033c0.232-0.788,0.422-1.511,0.614-2.151l1.476-4.246h2.475
			l0.677,8.623H525.216z"/>
		<path clip-path="url(#SVGID_4_)" fill="#151011" d="M173.98,57.695c0,12.517-1.334,13.993-4.708,15.992
			c4.544,1.152,7.739,4.514,7.739,17.35c0,15.569-4.035,21.451-16.158,21.451H113.08V39.517h43.069
			C169.948,39.517,173.98,44.867,173.98,57.695 M154.041,66.954c3.708,0,5.98-1.469,5.98-6.412c0-4.733-2.189-6.521-6.053-6.521
			h-26.853v12.933H154.041z M156.149,97.875c4.37,0,6.812-2.21,6.812-8.626c0-5.991-2.599-7.678-7.321-7.678h-28.525v16.304H156.149
			z"/>
		<rect x="186.855" y="39.517" clip-path="url(#SVGID_4_)" fill="#151011" width="13.956" height="72.972"/>
		<path clip-path="url(#SVGID_4_)" fill="#151011" d="M239.849,112.488c-22.375,0-27.675-5.675-27.675-30.917v-8.833
			c0-27.13,4.969-33.549,27.933-33.549h7.819c24.05,0,29.354,6.733,29.354,33.233v8.837c0,26.918-5.38,31.229-29.609,31.229H239.849
			z M241.357,55.7c-13.207,0-15.046,2.835-15.046,17.361v7.561c0,13.047,1.839,15.769,14.545,15.769h6.561
			c13.711,0,15.824-2.093,15.824-16.081v-7.572c0-14.723-2.025-17.038-16.075-17.038H241.357z"/>
		<polygon clip-path="url(#SVGID_4_)" fill="#151011" points="341.302,39.517 341.302,54.021 301.672,54.021 301.672,67.478 
			339.866,67.478 339.866,82.095 301.672,82.095 301.672,112.489 287.63,112.489 287.63,39.517 		"/>
		<path clip-path="url(#SVGID_4_)" fill="#151011" d="M364.346,84.824c0,10.103,3.278,13.051,12.704,13.051h9.081
			c9.004,0,12.287-3.054,12.287-13.145V39.516h14.05v46.992c0,19.244-5.809,25.98-23.814,25.98h-14.635
			c-17.162,0-23.644-7.361-23.644-25.98V39.516h13.971V84.824z"/>
		<polygon clip-path="url(#SVGID_4_)" fill="#151011" points="476.65,39.517 476.65,54.021 436.943,54.021 436.943,67.478 
			475.213,67.478 475.213,82.095 436.943,82.095 436.943,97.875 476.65,97.875 476.65,112.489 422.972,112.489 422.972,39.517 		"/>
		<polygon clip-path="url(#SVGID_4_)" fill="#151011" points="501.965,39.517 501.965,97.766 539.401,97.766 539.401,112.489 
			487.919,112.489 487.919,39.517 		"/>
		<path clip-path="url(#SVGID_4_)" fill="#FE430B" d="M57.712,0.348l-0.439-0.284c-0.153-0.095-0.35-0.079-0.488,0.018
			c-0.131,0.117-0.192,0.298-0.123,0.473c0.065,0.174,6.216,17.678-12.473,43.244c-17.943,24.559-18.833,47.679-2.355,61.866
			c0.069,0.077,0.181,0.11,0.269,0.11c0.221-0.023,0.425-0.183,0.425-0.415c0-0.113-0.044-0.211-0.109-0.273
			c-5.402-11.214-3.748-28.103,8.277-42.24C62.623,48.826,66.357,37.659,66.96,34.5c0.015-0.164,0.12-0.305,0.273-0.352
			c0.05-0.019,0.098-0.019,0.141-0.019c0.102,0,0.215,0.044,0.298,0.131c9.485,10.211,18.278,20.324,20.387,41.761
			c1.784,18.222-7.075,32.709-16.646,38.986c-0.171,0.107-0.233,0.303-0.171,0.485c0.073,0.167,0.219,0.283,0.4,0.283
			c0.011,0,0.029-0.019,0.051-0.03c8.306-1.217,15.824-6.088,21.138-13.718c7.765-11.117,10.248-26.941,6.82-43.393
			C92.111,22.453,71.417,9.141,57.712,0.348"/>
		<g clip-path="url(#SVGID_4_)">
			<g>
				<defs>
					<rect id="SVGID_5_" x="30.258" width="71.081" height="115.775"/>
				</defs>
				<clipPath id="SVGID_6_">
					<use xlink:href="#SVGID_5_"  overflow="visible"/>
				</clipPath>
				<g clip-path="url(#SVGID_6_)">
					<defs>
						<path id="SVGID_7_" d="M57.895,0.348l-0.444-0.284c-0.145-0.095-0.349-0.079-0.48,0.018c-0.142,0.116-0.193,0.298-0.127,0.473
							c0.061,0.174,6.216,17.678-12.48,43.244c-17.928,24.559-18.826,47.679-2.355,61.866c0.076,0.076,0.189,0.11,0.272,0.11
							c0.222-0.023,0.429-0.183,0.429-0.415c0-0.113-0.047-0.211-0.108-0.273c-5.406-11.214-3.752-28.103,8.273-42.24
							C62.802,48.825,66.532,37.658,67.139,34.5c0.014-0.164,0.119-0.305,0.283-0.352c0.029-0.019,0.091-0.019,0.127-0.019
							c0.109,0,0.219,0.044,0.302,0.131c9.481,10.211,18.289,20.324,20.386,41.761c1.781,18.222-7.07,32.709-16.649,38.986
							c-0.167,0.106-0.226,0.303-0.167,0.484c0.073,0.167,0.225,0.284,0.396,0.284c0.015,0,0.037-0.019,0.062-0.03
							c8.299-1.217,15.816-6.089,21.135-13.718c7.768-11.117,10.24-26.941,6.822-43.393C92.294,22.453,71.592,9.141,57.895,0.348"/>
					</defs>
					<clipPath id="SVGID_8_">
						<use xlink:href="#SVGID_7_"  overflow="visible"/>
					</clipPath>
					<defs>
						
							<filter id="Adobe_OpacityMaskFilter" filterUnits="userSpaceOnUse" x="-25.105" y="-34.017" width="179.002" height="183.778">
							<feColorMatrix  type="matrix" values="1 0 0 0 0  0 1 0 0 0  0 0 1 0 0  0 0 0 1 0"/>
						</filter>
					</defs>
					<mask maskUnits="userSpaceOnUse" x="-25.105" y="-34.017" width="179.002" height="183.778" id="SVGID_9_">
						<g filter="url(#Adobe_OpacityMaskFilter)">
							
								<linearGradient id="SVGID_10_" gradientUnits="userSpaceOnUse" x1="0" y1="168.2398" x2="1" y2="168.2398" gradientTransform="matrix(50.1639 -85.1614 -85.1614 -50.1639 14365.2627 8542.7188)">
								<stop  offset="0" style="stop-color:#FFFFFF"/>
								<stop  offset="0.3261" style="stop-color:#FFFFFF"/>
								<stop  offset="0.4671" style="stop-color:#B8B8B8"/>
								<stop  offset="0.6096" style="stop-color:#777777"/>
								<stop  offset="0.7394" style="stop-color:#444444"/>
								<stop  offset="0.8519" style="stop-color:#1F1F1F"/>
								<stop  offset="0.9425" style="stop-color:#080808"/>
								<stop  offset="1" style="stop-color:#000000"/>
							</linearGradient>
							<polygon clip-path="url(#SVGID_8_)" fill="url(#SVGID_10_)" points="-25.105,85.944 45.557,-34.017 153.897,29.8 
								83.235,149.761 							"/>
						</g>
					</mask>
					
						<linearGradient id="SVGID_11_" gradientUnits="userSpaceOnUse" x1="0" y1="168.2398" x2="1" y2="168.2398" gradientTransform="matrix(50.1639 -85.1614 -85.1614 -50.1639 14365.2627 8542.7188)">
						<stop  offset="0" style="stop-color:#C42F01"/>
						<stop  offset="0.3261" style="stop-color:#C42F01"/>
						<stop  offset="0.4681" style="stop-color:#D26432"/>
						<stop  offset="0.6103" style="stop-color:#E1986B"/>
						<stop  offset="0.7398" style="stop-color:#EDC3A4"/>
						<stop  offset="0.8519" style="stop-color:#F6E3D3"/>
						<stop  offset="0.9425" style="stop-color:#FDF7F3"/>
						<stop  offset="1" style="stop-color:#FFFFFF"/>
					</linearGradient>
					<polygon clip-path="url(#SVGID_8_)" mask="url(#SVGID_9_)" fill="url(#SVGID_11_)" points="-25.105,85.944 45.557,-34.017 
						153.897,29.8 83.235,149.761 					"/>
				</g>
			</g>
		</g>
		<path clip-path="url(#SVGID_4_)" fill="#74BE21" d="M47.959,96.018c0.04-0.335,0.069-0.677,0.113-1.004
			C48.031,95.353,47.977,95.683,47.959,96.018"/>
		<path clip-path="url(#SVGID_4_)" fill="#74BE21" d="M47.61,98.857l-0.058,0.32l0.135,0.04c0.003-0.098,0.014-0.193,0.014-0.291
			C47.665,98.901,47.635,98.897,47.61,98.857"/>
	</g>
	<g clip-path="url(#SVGID_2_)">
		<defs>
			<path id="SVGID_12_" d="M77.557,83.19c0.001,0.037,0.001,0.075,0.001,0.112C77.558,83.265,77.558,83.227,77.557,83.19
				 M72.221,60.578c-0.855,1.709-4.276,7.765-12.636,15.156c-6.682,5.884-10.742,12.77-11.484,19.087c0,0.019-0.01,0.044-0.01,0.066
				c-0.008,0.044-0.012,0.087-0.018,0.127c-0.044,0.327-0.073,0.669-0.114,1.004c-0.102,0.962-0.191,1.93-0.258,2.908
				c0,0.097-0.011,0.193-0.014,0.291c-0.371,5.914,0.225,12.058,3.329,18.252c0.073,0.173,0.266,0.258,0.451,0.218
				c0.182-0.033,0.32-0.193,0.338-0.385c1.32-18.089,12.694-34.403,12.883-34.662c0.139-0.178,0.382-0.224,0.578-0.102
				c0.182,0.135,0.233,0.378,0.123,0.568c-0.054,0.094-1.253,2.1-2.783,5.439c0,0-12.6,22.751-4.687,43.399l0.884,2.097
				c0.051,0.135,0.182,0.236,0.327,0.255h0.055c0.127-0.008,0.243-0.058,0.32-0.149c0.643-0.8,1.399-1.486,2.29-2.021
				c0.185-0.113,0.247-0.342,0.148-0.546c-1.962-4.006-3.198-8.499-3.671-13.355c5.878-4.134,15.712-12.887,18.311-26.759
				c0.432-2.264,0.81-4.333,0.934-6.499c1.036-10.291-2.225-18.005-4.893-24.406c-0.018-0.067-0.062-0.121-0.127-0.132
				c-0.022-0.011-0.044-0.011-0.073-0.011C72.344,60.429,72.267,60.494,72.221,60.578"/>
		</defs>
		<clipPath id="SVGID_13_">
			<use xlink:href="#SVGID_12_"  overflow="visible"/>
		</clipPath>
		
			<linearGradient id="SVGID_14_" gradientUnits="userSpaceOnUse" x1="0" y1="168.182" x2="1" y2="168.182" gradientTransform="matrix(30.1246 0 0 -30.1246 47.5892 5163.769)">
			<stop  offset="0" style="stop-color:#7FC21E"/>
			<stop  offset="0.2637" style="stop-color:#7FC21E"/>
			<stop  offset="0.4198" style="stop-color:#89C71D"/>
			<stop  offset="0.688" style="stop-color:#A4D417"/>
			<stop  offset="1" style="stop-color:#CCE610"/>
		</linearGradient>
		<rect x="47.316" y="60.418" clip-path="url(#SVGID_13_)" fill="url(#SVGID_14_)" width="31.237" height="73.878"/>
	</g>
	<g clip-path="url(#SVGID_2_)">
		<defs>
			<rect id="SVGID_15_" width="595.511" height="168.182"/>
		</defs>
		<clipPath id="SVGID_16_">
			<use xlink:href="#SVGID_15_"  overflow="visible"/>
		</clipPath>
		<g opacity="0.3" clip-path="url(#SVGID_16_)">
			<g>
				<defs>
					<rect id="SVGID_17_" y="137.947" width="595.511" height="30.236"/>
				</defs>
				<clipPath id="SVGID_18_">
					<use xlink:href="#SVGID_17_"  overflow="visible"/>
				</clipPath>
				<path clip-path="url(#SVGID_18_)" fill="#151011" d="M24.313,159.022H9.111l-3.955,8.317H0.198l14.038-28.55h5.257l14.032,28.55
					h-5.256L24.313,159.022z M16.665,142.707l-5.816,12.637h11.77L16.665,142.707z"/>
				<path clip-path="url(#SVGID_18_)" fill="none" stroke="#151011" stroke-width="0.246" stroke-miterlimit="10" d="
					M24.313,159.022H9.111l-3.955,8.317H0.198l14.038-28.55h5.257l14.032,28.55h-5.256L24.313,159.022z M16.665,142.707
					l-5.816,12.637h11.77L16.665,142.707z"/>
				<polygon clip-path="url(#SVGID_18_)" fill="#151011" points="41.223,138.789 45.826,138.789 45.826,163.66 64.685,163.66 
					64.685,167.339 41.223,167.339 				"/>
				<polygon clip-path="url(#SVGID_18_)" fill="none" stroke="#151011" stroke-width="0.246" stroke-miterlimit="10" points="
					41.223,138.789 45.826,138.789 45.826,163.66 64.685,163.66 64.685,167.339 41.223,167.339 				"/>
				<polygon clip-path="url(#SVGID_18_)" fill="#151011" points="72.944,138.789 77.553,138.789 77.553,163.66 96.413,163.66 
					96.413,167.339 72.944,167.339 				"/>
				<polygon clip-path="url(#SVGID_18_)" fill="none" stroke="#151011" stroke-width="0.246" stroke-miterlimit="10" points="
					72.944,138.789 77.553,138.789 77.553,163.66 96.413,163.66 96.413,167.339 72.944,167.339 				"/>
				<polygon clip-path="url(#SVGID_18_)" fill="#151011" points="128.22,144.627 128.133,144.627 128.133,167.339 123.531,167.339 
					123.531,138.789 128.875,138.789 148.817,161.501 148.905,161.501 148.905,138.789 153.514,138.789 153.514,167.339 
					148.17,167.339 				"/>
				<polygon clip-path="url(#SVGID_18_)" fill="none" stroke="#151011" stroke-width="0.246" stroke-miterlimit="10" points="
					128.22,144.627 128.133,144.627 128.133,167.339 123.531,167.339 123.531,138.789 128.875,138.789 148.817,161.501 
					148.905,161.501 148.905,138.789 153.514,138.789 153.514,167.339 148.17,167.339 				"/>
				<path clip-path="url(#SVGID_18_)" fill="#151011" d="M185.321,159.022h-15.21l-3.955,8.317h-4.95l14.031-28.55h5.257
					l14.039,28.55h-5.256L185.321,159.022z M177.673,142.707l-5.824,12.637h11.778L177.673,142.707z"/>
				<path clip-path="url(#SVGID_18_)" fill="none" stroke="#151011" stroke-width="0.246" stroke-miterlimit="10" d="
					M185.321,159.022h-15.21l-3.955,8.317h-4.95l14.031-28.55h5.257l14.039,28.55h-5.256L185.321,159.022z M177.673,142.707
					l-5.824,12.637h11.778L177.673,142.707z"/>
				<polygon clip-path="url(#SVGID_18_)" fill="#151011" points="208.099,142.468 196.365,142.468 196.365,138.789 224.435,138.789 
					224.435,142.468 212.701,142.468 212.701,167.339 208.099,167.339 				"/>
				<polygon clip-path="url(#SVGID_18_)" fill="none" stroke="#151011" stroke-width="0.246" stroke-miterlimit="10" points="
					208.099,142.468 196.365,142.468 196.365,138.789 224.435,138.789 224.435,142.468 212.701,142.468 212.701,167.339 
					208.099,167.339 				"/>
				<path clip-path="url(#SVGID_18_)" fill="#151011" d="M232.084,138.789h4.609v18.273c0,5.159,3.737,7.318,9.43,7.318
					c5.692,0,9.429-2.159,9.429-7.318v-18.273h4.602v17.754c0,7.638-4.602,11.516-14.031,11.516c-9.43,0-14.039-3.878-14.039-11.516
					V138.789z"/>
				<path clip-path="url(#SVGID_18_)" fill="none" stroke="#151011" stroke-width="0.246" stroke-miterlimit="10" d="
					M232.084,138.789h4.609v18.273c0,5.159,3.737,7.318,9.43,7.318c5.692,0,9.429-2.159,9.429-7.318v-18.273h4.602v17.754
					c0,7.638-4.602,11.516-14.031,11.516c-9.43,0-14.039-3.878-14.039-11.516V138.789z"/>
				<path clip-path="url(#SVGID_18_)" fill="#151011" d="M271.285,138.789h19.201c6.216,0,8.477,3.958,8.477,7.597
					c0,3.479-1.825,6.038-5.213,7.038v0.08c2.734,0.359,4.34,2.719,4.515,6.078c0.262,5.318,0.436,6.638,1.476,7.757h-4.864
					c-0.734-0.8-0.734-1.999-0.952-5.438c-0.306-5.118-2.174-6.677-5.999-6.677h-12.039v12.115h-4.602V138.789z M288.749,151.545
					c4.522,0,5.605-2.52,5.605-4.519c0-2.719-1.781-4.558-5.474-4.558h-12.992v9.077H288.749z"/>
				<path clip-path="url(#SVGID_18_)" fill="none" stroke="#151011" stroke-width="0.246" stroke-miterlimit="10" d="
					M271.285,138.789h19.201c6.216,0,8.477,3.958,8.477,7.597c0,3.479-1.825,6.038-5.213,7.038v0.08
					c2.734,0.359,4.34,2.719,4.515,6.078c0.262,5.318,0.436,6.638,1.476,7.757h-4.864c-0.734-0.8-0.734-1.999-0.952-5.438
					c-0.306-5.118-2.174-6.677-5.999-6.677h-12.039v12.115h-4.602V138.789z M288.749,151.545c4.522,0,5.605-2.52,5.605-4.519
					c0-2.719-1.781-4.558-5.474-4.558h-12.992v9.077H288.749z"/>
				<path clip-path="url(#SVGID_18_)" fill="#151011" d="M329.033,159.022h-15.202l-3.955,8.317h-4.958l14.039-28.55h5.256
					l14.032,28.55h-5.256L329.033,159.022z M321.385,142.707l-5.816,12.637h11.771L321.385,142.707z"/>
				<path clip-path="url(#SVGID_18_)" fill="none" stroke="#151011" stroke-width="0.246" stroke-miterlimit="10" d="
					M329.033,159.022h-15.202l-3.955,8.317h-4.958l14.039-28.55h5.256l14.032,28.55h-5.256L329.033,159.022z M321.385,142.707
					l-5.816,12.637h11.771L321.385,142.707z"/>
				<polygon clip-path="url(#SVGID_18_)" fill="#151011" points="345.944,138.789 350.546,138.789 350.546,163.66 369.405,163.66 
					369.405,167.339 345.944,167.339 				"/>
				<polygon clip-path="url(#SVGID_18_)" fill="none" stroke="#151011" stroke-width="0.246" stroke-miterlimit="10" points="
					345.944,138.789 350.546,138.789 350.546,163.66 369.405,163.66 369.405,167.339 345.944,167.339 				"/>
				<path clip-path="url(#SVGID_18_)" fill="#151011" d="M398.305,157.943c0.088,5.118,5.308,6.437,9.997,6.437
					c4.907,0,8.383-1.718,8.383-4.837c0-2.6-2.211-3.679-5.773-4.24l-7.045-1.079c-3.693-0.559-9.211-1.919-9.211-7.477
					c0-5.199,4.478-8.677,12.432-8.677c6.208,0,12.774,2.079,13.21,8.957h-4.609c-0.393-2.24-1.781-5.278-9.212-5.278
					c-3.388,0-7.212,1.319-7.212,4.677c0,1.76,1.258,3.16,5.082,3.759l7.604,1.2c2.436,0.4,9.343,1.48,9.343,7.318
					c0,7.277-7.081,9.356-13.341,9.356c-6.994,0-14.25-2.239-14.25-10.116H398.305z"/>
				<path clip-path="url(#SVGID_18_)" fill="none" stroke="#151011" stroke-width="0.246" stroke-miterlimit="10" d="
					M398.305,157.943c0.088,5.118,5.308,6.437,9.997,6.437c4.907,0,8.383-1.718,8.383-4.837c0-2.6-2.211-3.679-5.773-4.24
					l-7.045-1.079c-3.693-0.559-9.211-1.919-9.211-7.477c0-5.199,4.478-8.677,12.432-8.677c6.208,0,12.774,2.079,13.21,8.957h-4.609
					c-0.393-2.24-1.781-5.278-9.212-5.278c-3.388,0-7.212,1.319-7.212,4.677c0,1.76,1.258,3.16,5.082,3.759l7.604,1.2
					c2.436,0.4,9.343,1.48,9.343,7.318c0,7.277-7.081,9.356-13.341,9.356c-6.994,0-14.25-2.239-14.25-10.116H398.305z"/>
				<path clip-path="url(#SVGID_18_)" fill="#151011" d="M450.28,159.022h-15.209l-3.955,8.317h-4.951l14.031-28.55h5.257
					l14.039,28.55h-5.256L450.28,159.022z M442.632,142.707l-5.823,12.637h11.778L442.632,142.707z"/>
				<path clip-path="url(#SVGID_18_)" fill="none" stroke="#151011" stroke-width="0.246" stroke-miterlimit="10" d="
					M450.28,159.022h-15.209l-3.955,8.317h-4.951l14.031-28.55h5.257l14.039,28.55h-5.256L450.28,159.022z M442.632,142.707
					l-5.823,12.637h11.778L442.632,142.707z"/>
				<polygon clip-path="url(#SVGID_18_)" fill="#151011" points="467.01,138.789 491.038,138.789 491.038,142.468 471.619,142.468 
					471.619,150.904 490.129,150.904 490.129,154.584 471.619,154.584 471.619,167.339 467.01,167.339 				"/>
				<polygon clip-path="url(#SVGID_18_)" fill="none" stroke="#151011" stroke-width="0.246" stroke-miterlimit="10" points="
					467.01,138.789 491.038,138.789 491.038,142.468 471.619,142.468 471.619,150.904 490.129,150.904 490.129,154.584 
					471.619,154.584 471.619,167.339 467.01,167.339 				"/>
				<polygon clip-path="url(#SVGID_18_)" fill="#151011" points="499.515,138.789 524.46,138.789 524.46,142.468 504.124,142.468 
					504.124,150.744 523.849,150.744 523.849,154.424 504.124,154.424 504.124,163.66 524.896,163.66 524.896,167.339 
					499.515,167.339 				"/>
				<polygon clip-path="url(#SVGID_18_)" fill="none" stroke="#151011" stroke-width="0.246" stroke-miterlimit="10" points="
					499.515,138.789 524.46,138.789 524.46,142.468 504.124,142.468 504.124,150.744 523.849,150.744 523.849,154.424 
					504.124,154.424 504.124,163.66 524.896,163.66 524.896,167.339 499.515,167.339 				"/>
				<polygon clip-path="url(#SVGID_18_)" fill="#151011" points="542.883,142.468 531.155,142.468 531.155,138.789 559.227,138.789 
					559.227,142.468 547.492,142.468 547.492,167.339 542.883,167.339 				"/>
				<polygon clip-path="url(#SVGID_18_)" fill="none" stroke="#151011" stroke-width="0.246" stroke-miterlimit="10" points="
					542.883,142.468 531.155,142.468 531.155,138.789 559.227,138.789 559.227,142.468 547.492,142.468 547.492,167.339 
					542.883,167.339 				"/>
				<polygon clip-path="url(#SVGID_18_)" fill="#151011" points="589.646,138.789 595.25,138.789 581.568,155.383 581.568,167.339 
					576.957,167.339 576.957,155.583 563.355,138.789 569.222,138.789 579.35,151.784 				"/>
				<polygon clip-path="url(#SVGID_18_)" fill="none" stroke="#151011" stroke-width="0.246" stroke-miterlimit="10" points="
					589.646,138.789 595.25,138.789 581.568,155.383 581.568,167.339 576.957,167.339 576.957,155.583 563.355,138.789 
					569.222,138.789 579.35,151.784 				"/>
			</g>
		</g>
	</g>
</g>
</svg>
