<?xml version="1.0" encoding="utf-8"?>
<!-- Generator: Adobe Illustrator 17.0.0, SVG Export Plug-In . SVG Version: 6.00 Build 0)  -->
<!DOCTYPE svg PUBLIC "-//W3C//DTD SVG 1.1//EN" "http://www.w3.org/Graphics/SVG/1.1/DTD/svg11.dtd">
<svg version="1.1" id="Слой_1" xmlns="http://www.w3.org/2000/svg" xmlns:xlink="http://www.w3.org/1999/xlink" x="0px" y="0px"
	 width="561.059px" height="340.312px" viewBox="0 0 561.059 340.312" enable-background="new 0 0 561.059 340.312"
	 xml:space="preserve">
<g>
	<defs>
		<rect id="SVGID_1_" width="561.059" height="340.312"/>
	</defs>
	<clipPath id="SVGID_2_">
		<use xlink:href="#SVGID_1_"  overflow="visible"/>
	</clipPath>
	<polygon clip-path="url(#SVGID_2_)" fill="#74BE21" points="207.938,323.798 211.012,323.798 211.012,334.969 217.978,334.969 
		217.978,337.758 207.938,337.758 	"/>
	<path clip-path="url(#SVGID_2_)" fill="#74BE21" d="M227.607,323.701h2.834l5.985,14.058h-3.212l-1.276-3.127h-5.901l-1.281,3.127
		h-3.131L227.607,323.701z M230.839,331.915l-1.854-4.518l-1.854,4.518H230.839z"/>
	<polygon clip-path="url(#SVGID_2_)" fill="#74BE21" points="238.29,323.798 241.583,323.798 244.47,333.248 247.605,323.758 
		250.236,323.758 253.367,333.248 256.25,323.798 259.467,323.798 254.697,337.856 252.034,337.856 248.878,328.719 
		245.727,337.856 243.056,337.856 	"/>
	<polygon clip-path="url(#SVGID_2_)" fill="#74BE21" points="263.711,323.798 266.55,323.798 273.088,332.39 273.088,323.798 
		276.117,323.798 276.117,337.758 273.507,337.758 266.753,328.885 266.753,337.758 263.711,337.758 	"/>
	<rect x="290.253" y="321.842" clip-path="url(#SVGID_2_)" fill="#74BE21" width="2.396" height="18.47"/>
	<g clip-path="url(#SVGID_2_)">
		<defs>
			<rect id="SVGID_3_" width="561.059" height="340.312"/>
		</defs>
		<clipPath id="SVGID_4_">
			<use xlink:href="#SVGID_3_"  overflow="visible"/>
		</clipPath>
		<path clip-path="url(#SVGID_4_)" fill="#74BE21" d="M306.156,330.817v-0.045c0-3.965,3.095-7.209,7.319-7.209
			c2.514,0,4.027,0.671,5.482,1.919l-1.927,2.326c-1.082-0.902-2.041-1.411-3.656-1.411c-2.232,0-4.009,1.977-4.009,4.343v0.032
			c0,2.566,1.752,4.433,4.225,4.433c1.127,0,2.114-0.281,2.903-0.834v-1.989h-3.099v-2.663h6.068v6.063
			c-1.432,1.216-3.416,2.217-5.961,2.217C309.149,337.999,306.156,334.944,306.156,330.817"/>
		<path clip-path="url(#SVGID_4_)" fill="#74BE21" d="M329.074,323.701h2.83l5.981,14.058h-3.208l-1.276-3.127h-5.905l-1.273,3.127
			h-3.135L329.074,323.701z M332.307,331.915l-1.858-4.518l-1.851,4.518H332.307z"/>
		<path clip-path="url(#SVGID_4_)" fill="#74BE21" d="M342.066,323.799h6.372c1.782,0,3.16,0.5,4.079,1.415
			c0.777,0.781,1.191,1.879,1.191,3.192v0.032c0,2.261-1.22,3.672-2.992,4.335l3.416,4.986h-3.595l-2.989-4.465h-0.045h-2.366v4.465
			h-3.071V323.799z M348.247,330.577c1.488,0,2.354-0.792,2.354-1.964v-0.044c0-1.326-0.915-1.989-2.407-1.989h-3.057v3.997H348.247
			z"/>
		<path clip-path="url(#SVGID_4_)" fill="#74BE21" d="M358.71,323.799h5.44c4.384,0,7.413,3.008,7.413,6.941v0.032
			c0,3.933-3.029,6.987-7.413,6.987h-5.44V323.799z M364.15,334.989c2.51,0,4.205-1.695,4.205-4.172v-0.045
			c0-2.464-1.695-4.2-4.205-4.2h-2.366v8.417H364.15z"/>
		<polygon clip-path="url(#SVGID_4_)" fill="#74BE21" points="376.434,323.798 386.962,323.798 386.962,326.539 379.476,326.539 
			379.476,329.36 386.056,329.36 386.056,332.098 379.476,332.098 379.476,335.022 387.06,335.022 387.06,337.758 376.434,337.758 
					"/>
		<polygon clip-path="url(#SVGID_4_)" fill="#74BE21" points="392.127,323.798 394.961,323.798 401.504,332.39 401.504,323.798 
			404.529,323.798 404.529,337.758 401.927,337.758 395.165,328.885 395.165,337.758 392.127,337.758 		"/>
		<rect x="418.663" y="321.842" clip-path="url(#SVGID_4_)" fill="#74BE21" width="2.395" height="18.47"/>
		<polygon clip-path="url(#SVGID_4_)" fill="#74BE21" points="435.194,323.798 438.263,323.798 438.263,329.328 443.923,329.328 
			443.923,323.798 446.994,323.798 446.994,337.758 443.923,337.758 443.923,332.163 438.263,332.163 438.263,337.758 
			435.194,337.758 		"/>
		<path clip-path="url(#SVGID_4_)" fill="#74BE21" d="M451.894,330.817v-0.045c0-3.965,3.135-7.209,7.433-7.209
			c4.31,0,7.401,3.204,7.401,7.177v0.032c0,3.977-3.136,7.227-7.438,7.227C454.984,337.999,451.894,334.782,451.894,330.817
			 M463.515,330.817v-0.045c0-2.387-1.753-4.375-4.225-4.375c-2.476,0-4.192,1.956-4.192,4.343v0.032c0,2.392,1.761,4.4,4.229,4.4
			C461.795,335.172,463.515,333.208,463.515,330.817"/>
		<polygon clip-path="url(#SVGID_4_)" fill="#74BE21" points="471.591,323.798 474.893,323.798 478.572,329.711 482.232,323.798 
			485.546,323.798 485.546,337.758 482.496,337.758 482.496,328.645 478.572,334.607 478.491,334.607 474.6,328.71 474.6,337.758 
			471.591,337.758 		"/>
		<polygon clip-path="url(#SVGID_4_)" fill="#74BE21" points="491.158,323.798 501.69,323.798 501.69,326.539 494.217,326.539 
			494.217,329.36 500.792,329.36 500.792,332.098 494.217,332.098 494.217,335.022 501.796,335.022 501.796,337.758 
			491.158,337.758 		"/>
		<path clip-path="url(#SVGID_4_)" fill="#73BD1F" d="M79.784,196.282c0.171-0.064,0.366,0.013,0.447,0.187
			c0.074,0.171-0.005,0.367-0.179,0.444c-19.022,8.734-33.164,27.557-35.389,50.427c-0.199,2.061-0.305,4.115-0.305,6.156
			c0,0.923,0.032,1.826,0.065,2.749c1.972-4.563,7.571-8.475,18.538-8.755h0.325c0.208,0,0.399-0.021,0.594-0.021
			c13.293-0.195,20.035-7.03,20.035-16.923V192.83c-0.87-0.252-1.748-0.48-2.639-0.687c-5.432-1.301-11.211-1.976-16.806-1.976
			c-10.588,0-17.12,4.139-19.542,10.666c-0.77,1.773-1.14,3.705-1.14,5.673l-0.024,28.317
			C49.628,216.911,63.071,202.821,79.784,196.282"/>
		<path clip-path="url(#SVGID_4_)" fill="#74BE21" d="M39.901,276.885c-2.217-22.869-16.359-41.692-35.386-50.427
			c-0.175-0.073-0.256-0.272-0.178-0.443c0.069-0.175,0.268-0.252,0.443-0.187c16.306,6.376,29.489,19.933,35.576,37.207
			l-0.032-26.971c0-1.978-0.366-3.912-1.135-5.682c-2.419-6.53-8.95-10.67-19.547-10.67c-5.587,0-11.361,0.675-16.802,1.977
			c-0.89,0.207-1.773,0.434-2.643,0.675v37.727c0,9.905,6.742,16.729,20.039,16.924c0.199,0.009,0.391,0.02,0.594,0.02h0.333
			c11.78,0.293,17.372,4.803,18.909,9.788c0.073-1.26,0.13-2.521,0.13-3.782C40.202,281,40.1,278.947,39.901,276.885"/>
		<path clip-path="url(#SVGID_4_)" fill="#FFFFFF" d="M64.726,308.505c-13.464,0-20.279-6.896-20.279-16.944v-23.098
			c0-10.23,6.815-16.956,20.279-16.956c6.396,0,12.959,0.838,17.696,1.749l-1.492,10.885c-4.822-0.748-12.215-1.334-16.204-1.334
			c-6.242,0-7.815,3.245-7.815,7.572v19.018c0,4.323,1.573,7.897,7.815,7.897c2.488,0,4.151-0.086,7.392-0.5v-16.957h11.715v26.008
			C77.766,307.594,71.122,308.505,64.726,308.505"/>
		<path clip-path="url(#SVGID_4_)" fill="#FFFFFF" d="M110.72,290.483h-7.311v17.198H90.942v-55.348h23.02
			c13.459,0,18.444,5.323,18.444,15.708v6.823c0,6.885-2.493,11.545-8.064,13.871l13.382,18.946h-14.797L110.72,290.483z
			 M119.943,269.204c0-4.147-1.582-5.811-6.649-5.811h-9.885v16.282h9.885c5.315,0,6.649-1.911,6.649-6.059V269.204z"/>
		<polygon clip-path="url(#SVGID_4_)" fill="#FFFFFF" points="142.873,307.68 142.873,252.345 177.681,252.345 177.681,263.393 
			155.336,263.393 155.336,273.526 175.944,273.526 175.944,284.575 155.336,284.575 155.336,296.623 177.681,296.623 
			177.681,307.68 		"/>
		<polygon clip-path="url(#SVGID_4_)" fill="#FFFFFF" points="184.41,307.68 184.41,252.345 219.226,252.345 219.226,263.393 
			196.878,263.393 196.878,273.526 217.482,273.526 217.482,284.575 196.878,284.575 196.878,296.623 219.226,296.623 
			219.226,307.68 		"/>
		<polygon clip-path="url(#SVGID_4_)" fill="#FFFFFF" points="237.841,271.278 237.841,307.68 225.955,307.68 225.955,252.345 
			241.241,252.345 259.442,290.483 259.442,252.345 271.316,252.345 271.316,307.68 255.953,307.68 		"/>
		<path clip-path="url(#SVGID_4_)" fill="#FFFFFF" d="M295.454,308.505c-6.396,0-13.126-1.403-17.863-3.563l2.082-9.645
			c5.066,1.586,10.215,2.659,15.943,2.659c6.405,0,7.65-1.248,7.65-5.895c0-4.99-0.245-5.576-9.308-7.573
			c-13.374-2.902-15.367-5.562-15.367-17.521c0-11.061,3.908-15.46,19.107-15.46c4.819,0,10.638,0.5,16.782,1.825l-1.244,10.472
			c-6.31-1.073-10.389-1.574-15.375-1.574c-5.562,0-6.81,1.001-6.81,5.062c0,5.323,0.256,5.4,8.977,7.483
			c14.952,3.574,15.7,6.477,15.7,17.359C315.728,303.105,312.15,308.505,295.454,308.505"/>
		<path clip-path="url(#SVGID_4_)" fill="#FFFFFF" d="M333.677,289.56c0,4.822,1.578,7.648,7.718,7.648
			c3.989,0,9.474-0.5,14.293-1.325l1.749,10.886c-5.478,1.158-10.467,1.736-16.042,1.736c-13.947,0-20.186-6.896-20.186-16.944
			v-23.105c0-10.048,6.239-16.949,20.186-16.949c5.575,0,10.564,0.59,16.042,1.749l-1.749,10.885
			c-4.819-0.838-10.304-1.334-14.293-1.334c-6.14,0-7.718,2.822-7.718,7.645V289.56z"/>
		<path clip-path="url(#SVGID_4_)" fill="#FFFFFF" d="M411.669,307.68h-12.972l-2.984-10.797h-18.522l-2.997,10.797h-12.972
			l16.875-55.347h16.62L411.669,307.68z M380.009,286.486h12.711l-6.319-23.183L380.009,286.486z"/>
		<path clip-path="url(#SVGID_4_)" fill="#FFFFFF" d="M438.572,290.898h-9.474v16.783h-12.464v-55.348h22.597
			c13.467,0,18.445,5.323,18.445,15.708v7.226C457.676,285.661,452.031,290.898,438.572,290.898 M445.212,269.204
			c0-3.984-1.411-5.811-6.64-5.811h-9.474v16.697h9.474c5.477,0,6.64-2.074,6.64-6.063V269.204z"/>
		<polygon clip-path="url(#SVGID_4_)" fill="#FFFFFF" points="463.158,307.68 463.158,252.345 497.977,252.345 497.977,263.393 
			475.625,263.393 475.625,273.526 496.229,273.526 496.229,284.575 475.625,284.575 475.625,296.623 497.977,296.623 
			497.977,307.68 		"/>
		<path clip-path="url(#SVGID_4_)" fill="#FFFFFF" d="M521.502,308.505c-6.396,0-13.126-1.403-17.863-3.563l2.082-9.645
			c5.066,1.586,10.214,2.659,15.96,2.659c6.387,0,7.633-1.248,7.633-5.895c0-4.99-0.249-5.576-9.304-7.573
			c-13.379-2.902-15.371-5.562-15.371-17.521c0-11.061,3.903-15.46,19.099-15.46c4.831,0,10.642,0.5,16.794,1.825l-1.249,10.472
			c-6.31-1.073-10.385-1.574-15.37-1.574c-5.571,0-6.815,1.001-6.815,5.062c0,5.323,0.256,5.4,8.978,7.483
			c14.952,3.574,15.7,6.477,15.7,17.359C541.776,303.105,538.202,308.505,521.502,308.505"/>
		<path clip-path="url(#SVGID_4_)" fill="#74BE21" d="M545.33,257.354c0.431-1,1.021-1.854,1.769-2.569
			c0.744-0.737,1.619-1.297,2.615-1.716c1-0.419,2.057-0.63,3.171-0.63c1.123,0,2.171,0.211,3.16,0.63
			c0.997,0.419,1.85,0.979,2.598,1.716c0.741,0.715,1.33,1.569,1.765,2.569c0.432,0.98,0.65,2.046,0.65,3.192
			c0,1.184-0.218,2.27-0.65,3.258c-0.435,1-1.024,1.87-1.765,2.598c-0.748,0.732-1.601,1.302-2.598,1.704
			c-0.989,0.419-2.037,0.614-3.16,0.614c-1.114,0-2.171-0.195-3.171-0.614c-0.996-0.402-1.871-0.972-2.615-1.704
			c-0.748-0.728-1.338-1.598-1.769-2.598c-0.439-0.988-0.667-2.074-0.667-3.258C544.663,259.4,544.891,258.334,545.33,257.354
			 M546.664,263.328c0.338,0.854,0.817,1.598,1.419,2.209c0.597,0.625,1.313,1.122,2.127,1.479c0.821,0.358,1.716,0.521,2.675,0.521
			c0.952,0,1.822-0.163,2.639-0.521c0.814-0.357,1.521-0.854,2.127-1.479c0.598-0.611,1.066-1.355,1.419-2.209
			c0.338-0.837,0.504-1.777,0.504-2.782c0-0.967-0.166-1.878-0.504-2.716c-0.353-0.854-0.821-1.57-1.419-2.192
			c-0.606-0.613-1.313-1.109-2.127-1.451c-0.817-0.358-1.687-0.537-2.639-0.537c-0.959,0-1.854,0.179-2.675,0.537
			c-0.814,0.342-1.53,0.838-2.127,1.451c-0.602,0.622-1.081,1.338-1.419,2.192c-0.342,0.838-0.513,1.749-0.513,2.716
			C546.151,261.551,546.322,262.491,546.664,263.328 M553.393,255.826c1.127,0,1.973,0.227,2.509,0.674
			c0.546,0.453,0.817,1.135,0.817,2.046c0,0.854-0.239,1.496-0.71,1.883c-0.485,0.406-1.082,0.647-1.794,0.715l2.728,4.197h-1.598
			l-2.585-4.087h-1.575v4.087h-1.479v-9.515H553.393z M552.739,260.058c0.325,0,0.643-0.016,0.943-0.048
			c0.293-0.013,0.566-0.073,0.793-0.179c0.232-0.106,0.419-0.252,0.562-0.463c0.134-0.208,0.211-0.505,0.211-0.879
			c0-0.333-0.062-0.581-0.192-0.777c-0.126-0.178-0.284-0.333-0.483-0.434c-0.195-0.102-0.419-0.163-0.671-0.196
			c-0.252-0.045-0.509-0.061-0.757-0.061h-1.96v3.037H552.739z"/>
		<path clip-path="url(#SVGID_4_)" fill="#FFFFFF" d="M399.667,30.666v1.101h-2.142v5.578h-1.307v-5.578h-2.148v-1.101H399.667z
			 M406.884,37.345l-0.248-3.934c-0.025-0.52-0.025-1.148-0.045-1.861h-0.076c-0.172,0.589-0.374,1.371-0.566,1.991l-1.199,3.692
			h-1.383l-1.202-3.799c-0.119-0.513-0.318-1.295-0.462-1.884h-0.071c0,0.616-0.027,1.25-0.056,1.861l-0.242,3.934h-1.278
			l0.493-6.679h1.984l1.161,3.263c0.149,0.521,0.27,1.006,0.433,1.692h0.026c0.18-0.61,0.327-1.171,0.476-1.667l1.143-3.288h1.918
			l0.523,6.679H406.884z"/>
		<path clip-path="url(#SVGID_4_)" fill="#FFFFFF" d="M134.812,44.692c0,9.695-1.034,10.838-3.646,12.387
			c3.52,0.892,5.994,3.497,5.994,13.44c0,12.061-3.125,16.616-12.516,16.616H87.638V30.61H121
			C131.689,30.61,134.812,34.754,134.812,44.692 M119.367,51.864c2.872,0,4.632-1.138,4.632-4.967c0-3.667-1.695-5.052-4.688-5.052
			H98.51v10.019H119.367z M121,75.816c3.385,0,5.277-1.712,5.277-6.683c0-4.64-2.013-5.947-5.671-5.947H98.51v12.63H121z"/>
		<rect x="144.786" y="30.61" clip-path="url(#SVGID_4_)" fill="#FFFFFF" width="10.81" height="56.525"/>
		<path clip-path="url(#SVGID_4_)" fill="#FFFFFF" d="M185.834,87.135c-17.331,0-21.436-4.395-21.436-23.949v-6.842
			c0-21.014,3.848-25.987,21.636-25.987h6.057c18.63,0,22.738,5.215,22.738,25.742v6.845c0,20.851-4.168,24.191-22.935,24.191
			H185.834z M187.003,43.146c-10.23,0-11.655,2.196-11.655,13.448v5.858c0,10.105,1.425,12.215,11.266,12.215h5.082
			c10.622,0,12.258-1.623,12.258-12.458v-5.865c0-11.404-1.568-13.198-12.452-13.198H187.003z"/>
		<polygon clip-path="url(#SVGID_4_)" fill="#FFFFFF" points="264.422,30.61 264.422,41.845 233.724,41.845 233.724,52.269 
			263.31,52.269 263.31,63.591 233.724,63.591 233.724,87.135 222.846,87.135 222.846,30.61 		"/>
		<path clip-path="url(#SVGID_4_)" fill="#FFFFFF" d="M282.272,65.707c0,7.825,2.54,10.109,9.841,10.109h7.034
			c6.975,0,9.518-2.366,9.518-10.182V30.61h10.883v36.401c0,14.907-4.5,20.125-18.447,20.125h-11.336
			c-13.294,0-18.314-5.702-18.314-20.125V30.61h10.821V65.707z"/>
		<polygon clip-path="url(#SVGID_4_)" fill="#FFFFFF" points="369.265,30.61 369.265,41.845 338.507,41.845 338.507,52.269 
			368.153,52.269 368.153,63.591 338.507,63.591 338.507,75.816 369.265,75.816 369.265,87.135 327.686,87.135 327.686,30.61 		"/>
		<polygon clip-path="url(#SVGID_4_)" fill="#FFFFFF" points="388.875,30.61 388.875,75.731 417.872,75.731 417.872,87.135 
			377.994,87.135 377.994,30.61 		"/>
		<path clip-path="url(#SVGID_4_)" fill="#FE430B" d="M44.75,0.269l-0.341-0.22c-0.118-0.073-0.27-0.061-0.377,0.014
			c-0.101,0.091-0.149,0.231-0.096,0.366c0.05,0.136,4.815,13.694-9.662,33.498C20.376,52.951,19.687,70.86,32.45,81.85
			c0.054,0.059,0.141,0.084,0.208,0.084c0.172-0.017,0.33-0.141,0.33-0.321c0-0.087-0.034-0.163-0.085-0.211
			c-4.183-8.687-2.903-21.77,6.412-32.72c9.239-10.861,12.131-19.512,12.598-21.958c0.012-0.127,0.093-0.236,0.212-0.273
			c0.039-0.014,0.075-0.014,0.109-0.014c0.079,0,0.166,0.033,0.231,0.102c7.347,7.909,14.158,15.743,15.792,32.347
			c1.383,14.116-5.48,25.337-12.895,30.2c-0.132,0.082-0.179,0.234-0.132,0.375c0.057,0.129,0.169,0.22,0.31,0.22
			c0.009,0,0.023-0.015,0.04-0.022c6.434-0.945,12.257-4.717,16.374-10.628c6.015-8.611,7.938-20.868,5.282-33.613
			C71.396,17.392,55.365,7.081,44.75,0.269"/>
		<g clip-path="url(#SVGID_4_)">
			<g>
				<defs>
					<rect id="SVGID_5_" x="23.483" y="0" width="55.06" height="89.681"/>
				</defs>
				<clipPath id="SVGID_6_">
					<use xlink:href="#SVGID_5_"  overflow="visible"/>
				</clipPath>
				<g clip-path="url(#SVGID_6_)">
					<defs>
						<path id="SVGID_7_" d="M44.89,0.269l-0.343-0.22c-0.113-0.073-0.27-0.061-0.372,0.014c-0.11,0.091-0.149,0.231-0.098,0.366
							c0.048,0.136,4.814,13.694-9.667,33.498C20.522,52.951,19.827,70.86,32.585,81.85c0.059,0.059,0.146,0.084,0.212,0.084
							c0.171-0.017,0.332-0.141,0.332-0.321c0-0.087-0.037-0.163-0.084-0.211c-4.188-8.687-2.907-21.77,6.408-32.72
							c9.239-10.861,12.128-19.512,12.598-21.958c0.011-0.127,0.093-0.236,0.219-0.273c0.023-0.014,0.07-0.014,0.099-0.014
							c0.085,0,0.169,0.033,0.234,0.102c7.344,7.909,14.166,15.743,15.791,32.347c1.38,14.116-5.476,25.337-12.896,30.2
							c-0.13,0.082-0.175,0.234-0.13,0.375c0.056,0.129,0.175,0.22,0.307,0.22c0.011,0,0.028-0.014,0.048-0.022
							c6.428-0.945,12.251-4.717,16.371-10.628c6.018-8.611,7.932-20.868,5.286-33.613C71.537,17.392,55.501,7.081,44.89,0.269"/>
					</defs>
					<clipPath id="SVGID_8_">
						<use xlink:href="#SVGID_7_"  overflow="visible"/>
					</clipPath>
					<defs>
						<filter id="Adobe_OpacityMaskFilter" filterUnits="userSpaceOnUse" x="-19.402" y="-26.35" width="138.657" height="142.356">
							<feColorMatrix  type="matrix" values="1 0 0 0 0  0 1 0 0 0  0 0 1 0 0  0 0 0 1 0"/>
						</filter>
					</defs>
					<mask maskUnits="userSpaceOnUse" x="-19.402" y="-26.35" width="138.657" height="142.356" id="SVGID_9_">
						<g filter="url(#Adobe_OpacityMaskFilter)">
							
								<linearGradient id="SVGID_10_" gradientUnits="userSpaceOnUse" x1="0" y1="340.3698" x2="1" y2="340.3698" gradientTransform="matrix(38.8577 -65.9673 -65.9673 -38.8577 22482.5508 13305.8984)">
								<stop  offset="0" style="stop-color:#FFFFFF"/>
								<stop  offset="0.3261" style="stop-color:#FFFFFF"/>
								<stop  offset="0.4671" style="stop-color:#B8B8B8"/>
								<stop  offset="0.6096" style="stop-color:#777777"/>
								<stop  offset="0.7394" style="stop-color:#444444"/>
								<stop  offset="0.8519" style="stop-color:#1F1F1F"/>
								<stop  offset="0.9425" style="stop-color:#080808"/>
								<stop  offset="1" style="stop-color:#000000"/>
							</linearGradient>
							<polygon clip-path="url(#SVGID_8_)" fill="url(#SVGID_10_)" points="-19.402,66.573 35.334,-26.35 119.255,23.084 
								64.519,116.007 							"/>
						</g>
					</mask>
					
						<linearGradient id="SVGID_11_" gradientUnits="userSpaceOnUse" x1="0" y1="340.3698" x2="1" y2="340.3698" gradientTransform="matrix(38.8577 -65.9673 -65.9673 -38.8577 22482.5527 13305.9014)">
						<stop  offset="0" style="stop-color:#C42F01"/>
						<stop  offset="0.3261" style="stop-color:#C42F01"/>
						<stop  offset="0.4681" style="stop-color:#D26432"/>
						<stop  offset="0.6103" style="stop-color:#E1986B"/>
						<stop  offset="0.7398" style="stop-color:#EDC3A4"/>
						<stop  offset="0.8519" style="stop-color:#F6E3D3"/>
						<stop  offset="0.9425" style="stop-color:#FDF7F3"/>
						<stop  offset="1" style="stop-color:#FFFFFF"/>
					</linearGradient>
					<polygon clip-path="url(#SVGID_8_)" mask="url(#SVGID_9_)" fill="url(#SVGID_11_)" points="-19.402,66.573 35.334,-26.35 
						119.255,23.084 64.519,116.007 					"/>
				</g>
			</g>
		</g>
		<path clip-path="url(#SVGID_4_)" fill="#74BE21" d="M37.195,74.377c0.03-0.259,0.053-0.523,0.087-0.777
			C37.251,73.862,37.209,74.118,37.195,74.377"/>
		<path clip-path="url(#SVGID_4_)" fill="#74BE21" d="M36.924,76.576l-0.045,0.248l0.104,0.031c0.003-0.076,0.011-0.149,0.011-0.225
			C36.966,76.61,36.944,76.607,36.924,76.576"/>
	</g>
	<g clip-path="url(#SVGID_2_)">
		<defs>
			<path id="SVGID_12_" d="M60.122,64.44c0,0.03,0,0.059,0,0.088C60.122,64.499,60.122,64.47,60.122,64.44 M55.988,46.925
				c-0.662,1.323-3.312,6.015-9.788,11.739c-5.176,4.56-8.322,9.892-8.896,14.785c0,0.016-0.009,0.035-0.009,0.052
				c-0.004,0.034-0.007,0.068-0.013,0.098c-0.035,0.255-0.057,0.519-0.087,0.777c-0.079,0.747-0.149,1.495-0.2,2.253
				c0,0.077-0.009,0.15-0.012,0.226c-0.287,4.581,0.174,9.34,2.58,14.138c0.056,0.134,0.205,0.2,0.348,0.168
				c0.142-0.025,0.249-0.149,0.262-0.298c1.023-14.011,9.834-26.649,9.98-26.849c0.107-0.138,0.296-0.175,0.449-0.078
				c0.14,0.104,0.179,0.292,0.095,0.439c-0.043,0.073-0.972,1.628-2.157,4.213c0,0-9.76,17.623-3.63,33.617l0.684,1.626
				c0.04,0.104,0.141,0.182,0.253,0.197h0.042c0.099-0.006,0.19-0.045,0.249-0.116c0.498-0.62,1.084-1.151,1.773-1.565
				c0.144-0.088,0.192-0.265,0.116-0.422c-1.52-3.105-2.478-6.585-2.843-10.346c4.552-3.202,12.169-9.983,14.183-20.728
				c0.335-1.754,0.628-3.356,0.723-5.035c0.803-7.971-1.723-13.946-3.79-18.905c-0.014-0.051-0.047-0.094-0.099-0.102
				c-0.016-0.008-0.034-0.008-0.056-0.008C56.083,46.809,56.024,46.86,55.988,46.925"/>
		</defs>
		<clipPath id="SVGID_13_">
			<use xlink:href="#SVGID_12_"  overflow="visible"/>
		</clipPath>
		
			<linearGradient id="SVGID_14_" gradientUnits="userSpaceOnUse" x1="0" y1="340.312" x2="1" y2="340.312" gradientTransform="matrix(23.335 0 0 -23.335 36.9078 8016.5815)">
			<stop  offset="0" style="stop-color:#7FC21E"/>
			<stop  offset="0.2637" style="stop-color:#7FC21E"/>
			<stop  offset="0.4198" style="stop-color:#89C71D"/>
			<stop  offset="0.688" style="stop-color:#A4D417"/>
			<stop  offset="1" style="stop-color:#CCE610"/>
		</linearGradient>
		<rect x="36.696" y="46.801" clip-path="url(#SVGID_13_)" fill="url(#SVGID_14_)" width="24.197" height="57.227"/>
	</g>
	<g clip-path="url(#SVGID_2_)">
		<defs>
			<rect id="SVGID_15_" width="561.059" height="340.312"/>
		</defs>
		<clipPath id="SVGID_16_">
			<use xlink:href="#SVGID_15_"  overflow="visible"/>
		</clipPath>
		<g opacity="0.3" clip-path="url(#SVGID_16_)">
			<g>
				<defs>
					<rect id="SVGID_17_" y="106.828" width="461.395" height="23.476"/>
				</defs>
				<clipPath id="SVGID_18_">
					<use xlink:href="#SVGID_17_"  overflow="visible"/>
				</clipPath>
				<path clip-path="url(#SVGID_18_)" fill="#FFFFFF" d="M18.878,123.182H7.101l-3.063,6.442H0.197l10.875-22.115h4.072
					l10.87,22.115h-4.073L18.878,123.182z M12.953,110.544l-4.505,9.788h9.117L12.953,110.544z"/>
				<path clip-path="url(#SVGID_18_)" fill="none" stroke="#151011" stroke-width="0.246" stroke-miterlimit="10" d="
					M18.878,123.182H7.101l-3.063,6.442H0.197l10.875-22.115h4.072l10.87,22.115h-4.073L18.878,123.182z M12.953,110.544
					l-4.505,9.788h9.117L12.953,110.544z"/>
				<polygon clip-path="url(#SVGID_18_)" fill="#FFFFFF" points="31.976,107.508 35.541,107.508 35.541,126.774 50.15,126.774 
					50.15,129.623 31.976,129.623 				"/>
				<polygon clip-path="url(#SVGID_18_)" fill="none" stroke="#151011" stroke-width="0.246" stroke-miterlimit="10" points="
					31.976,107.508 35.541,107.508 35.541,126.774 50.15,126.774 50.15,129.623 31.976,129.623 				"/>
				<polygon clip-path="url(#SVGID_18_)" fill="#FFFFFF" points="56.548,107.508 60.118,107.508 60.118,126.774 74.728,126.774 
					74.728,129.623 56.548,129.623 				"/>
				<polygon clip-path="url(#SVGID_18_)" fill="none" stroke="#151011" stroke-width="0.246" stroke-miterlimit="10" points="
					56.548,107.508 60.118,107.508 60.118,126.774 74.728,126.774 74.728,129.623 56.548,129.623 				"/>
				<polygon clip-path="url(#SVGID_18_)" fill="#FFFFFF" points="99.366,112.03 99.299,112.03 99.299,129.624 95.733,129.624 
					95.733,107.509 99.873,107.509 115.32,125.101 115.388,125.101 115.388,107.509 118.959,107.509 118.959,129.624 
					114.819,129.624 				"/>
				<polygon clip-path="url(#SVGID_18_)" fill="none" stroke="#151011" stroke-width="0.246" stroke-miterlimit="10" points="
					99.366,112.03 99.299,112.03 99.299,129.624 95.733,129.624 95.733,107.509 99.873,107.509 115.32,125.101 115.388,125.101 
					115.388,107.509 118.959,107.509 118.959,129.624 114.819,129.624 				"/>
				<path clip-path="url(#SVGID_18_)" fill="#FFFFFF" d="M143.597,123.182h-11.782l-3.064,6.442h-3.835l10.869-22.115h4.073
					l10.874,22.115h-4.072L143.597,123.182z M137.673,110.544l-4.511,9.788h9.123L137.673,110.544z"/>
				<path clip-path="url(#SVGID_18_)" fill="none" stroke="#151011" stroke-width="0.246" stroke-miterlimit="10" d="
					M143.597,123.182h-11.782l-3.064,6.442h-3.835l10.869-22.115h4.073l10.874,22.115h-4.072L143.597,123.182z M137.673,110.544
					l-4.511,9.788h9.123L137.673,110.544z"/>
				<polygon clip-path="url(#SVGID_18_)" fill="#FFFFFF" points="161.241,110.358 152.152,110.358 152.152,107.508 173.895,107.508 
					173.895,110.358 164.806,110.358 164.806,129.624 161.241,129.624 				"/>
				<polygon clip-path="url(#SVGID_18_)" fill="none" stroke="#151011" stroke-width="0.246" stroke-miterlimit="10" points="
					161.241,110.358 152.152,110.358 152.152,107.508 173.895,107.508 173.895,110.358 164.806,110.358 164.806,129.624 
					161.241,129.624 				"/>
				<path clip-path="url(#SVGID_18_)" fill="#FFFFFF" d="M179.82,107.508h3.57v14.155c0,3.995,2.896,5.668,7.305,5.668
					c4.41,0,7.305-1.673,7.305-5.668v-14.155h3.564v13.752c0,5.916-3.564,8.921-10.869,8.921c-7.305,0-10.875-3.005-10.875-8.921
					V107.508z"/>
				<path clip-path="url(#SVGID_18_)" fill="none" stroke="#151011" stroke-width="0.246" stroke-miterlimit="10" d="
					M179.82,107.508h3.57v14.155c0,3.995,2.896,5.668,7.305,5.668c4.41,0,7.305-1.673,7.305-5.668v-14.155h3.564v13.752
					c0,5.916-3.564,8.921-10.869,8.921c-7.305,0-10.875-3.005-10.875-8.921V107.508z"/>
				<path clip-path="url(#SVGID_18_)" fill="#FFFFFF" d="M210.186,107.508h14.873c4.815,0,6.567,3.067,6.567,5.885
					c0,2.694-1.414,4.677-4.038,5.451v0.063c2.117,0.278,3.361,2.105,3.497,4.708c0.203,4.119,0.338,5.141,1.144,6.008h-3.769
					c-0.568-0.619-0.568-1.548-0.737-4.213c-0.237-3.963-1.684-5.171-4.647-5.171h-9.325v9.384h-3.565V107.508z M223.714,117.389
					c3.503,0,4.342-1.952,4.342-3.501c0-2.106-1.38-3.53-4.24-3.53h-10.064v7.031H223.714z"/>
				<path clip-path="url(#SVGID_18_)" fill="none" stroke="#151011" stroke-width="0.246" stroke-miterlimit="10" d="
					M210.186,107.508h14.873c4.815,0,6.567,3.067,6.567,5.885c0,2.694-1.414,4.677-4.038,5.451v0.063
					c2.117,0.278,3.361,2.105,3.497,4.708c0.203,4.119,0.338,5.141,1.144,6.008h-3.769c-0.568-0.619-0.568-1.548-0.737-4.213
					c-0.237-3.963-1.684-5.171-4.647-5.171h-9.325v9.384h-3.565V107.508z M223.714,117.389c3.503,0,4.342-1.952,4.342-3.501
					c0-2.106-1.38-3.53-4.24-3.53h-10.064v7.031H223.714z"/>
				<path clip-path="url(#SVGID_18_)" fill="#FFFFFF" d="M254.919,123.182h-11.776l-3.063,6.442h-3.841l10.874-22.115h4.072
					l10.87,22.115h-4.073L254.919,123.182z M248.994,110.544l-4.505,9.788h9.117L248.994,110.544z"/>
				<path clip-path="url(#SVGID_18_)" fill="none" stroke="#151011" stroke-width="0.246" stroke-miterlimit="10" d="
					M254.919,123.182h-11.776l-3.063,6.442h-3.841l10.874-22.115h4.072l10.87,22.115h-4.073L254.919,123.182z M248.994,110.544
					l-4.505,9.788h9.117L248.994,110.544z"/>
				<polygon clip-path="url(#SVGID_18_)" fill="#FFFFFF" points="268.018,107.508 271.582,107.508 271.582,126.774 286.192,126.774 
					286.192,129.623 268.018,129.623 				"/>
				<polygon clip-path="url(#SVGID_18_)" fill="none" stroke="#151011" stroke-width="0.246" stroke-miterlimit="10" points="
					268.018,107.508 271.582,107.508 271.582,126.774 286.192,126.774 286.192,129.623 268.018,129.623 				"/>
				<path clip-path="url(#SVGID_18_)" fill="#FFFFFF" d="M308.578,122.344c0.067,3.965,4.111,4.987,7.743,4.987
					c3.802,0,6.494-1.332,6.494-3.748c0-2.013-1.713-2.849-4.471-3.283l-5.458-0.836c-2.861-0.433-7.135-1.487-7.135-5.793
					c0-4.026,3.469-6.721,9.63-6.721c4.809,0,9.895,1.611,10.233,6.938h-3.571c-0.304-1.734-1.379-4.088-7.135-4.088
					c-2.625,0-5.587,1.022-5.587,3.624c0,1.362,0.975,2.446,3.937,2.911l5.89,0.93c1.887,0.309,7.238,1.145,7.238,5.668
					c0,5.638-5.486,7.248-10.334,7.248c-5.418,0-11.038-1.734-11.038-7.837H308.578z"/>
				<path clip-path="url(#SVGID_18_)" fill="none" stroke="#151011" stroke-width="0.246" stroke-miterlimit="10" d="
					M308.578,122.344c0.067,3.965,4.111,4.987,7.743,4.987c3.802,0,6.494-1.332,6.494-3.748c0-2.013-1.713-2.849-4.471-3.283
					l-5.458-0.836c-2.861-0.433-7.135-1.487-7.135-5.793c0-4.026,3.469-6.721,9.63-6.721c4.809,0,9.895,1.611,10.233,6.938h-3.571
					c-0.304-1.734-1.379-4.088-7.135-4.088c-2.625,0-5.587,1.022-5.587,3.624c0,1.362,0.975,2.446,3.937,2.911l5.89,0.93
					c1.887,0.309,7.238,1.145,7.238,5.668c0,5.638-5.486,7.248-10.334,7.248c-5.418,0-11.038-1.734-11.038-7.837H308.578z"/>
				<path clip-path="url(#SVGID_18_)" fill="#FFFFFF" d="M348.839,123.182h-11.781l-3.064,6.442h-3.835l10.869-22.115h4.072
					l10.875,22.115h-4.073L348.839,123.182z M342.914,110.544l-4.511,9.788h9.124L342.914,110.544z"/>
				<path clip-path="url(#SVGID_18_)" fill="none" stroke="#151011" stroke-width="0.246" stroke-miterlimit="10" d="
					M348.839,123.182h-11.781l-3.064,6.442h-3.835l10.869-22.115h4.072l10.875,22.115h-4.073L348.839,123.182z M342.914,110.544
					l-4.511,9.788h9.124L342.914,110.544z"/>
				<polygon clip-path="url(#SVGID_18_)" fill="#FFFFFF" points="361.797,107.508 380.409,107.508 380.409,110.358 365.367,110.358 
					365.367,116.893 379.705,116.893 379.705,119.742 365.367,119.742 365.367,129.623 361.797,129.623 				"/>
				<polygon clip-path="url(#SVGID_18_)" fill="none" stroke="#151011" stroke-width="0.246" stroke-miterlimit="10" points="
					361.797,107.508 380.409,107.508 380.409,110.358 365.367,110.358 365.367,116.893 379.705,116.893 379.705,119.742 
					365.367,119.742 365.367,129.623 361.797,129.623 				"/>
				<polygon clip-path="url(#SVGID_18_)" fill="#FFFFFF" points="386.976,107.508 406.298,107.508 406.298,110.358 390.546,110.358 
					390.546,116.769 405.826,116.769 405.826,119.618 390.546,119.618 390.546,126.774 406.636,126.774 406.636,129.623 
					386.976,129.623 				"/>
				<polygon clip-path="url(#SVGID_18_)" fill="none" stroke="#151011" stroke-width="0.246" stroke-miterlimit="10" points="
					386.976,107.508 406.298,107.508 406.298,110.358 390.546,110.358 390.546,116.769 405.826,116.769 405.826,119.618 
					390.546,119.618 390.546,126.774 406.636,126.774 406.636,129.623 386.976,129.623 				"/>
				<polygon clip-path="url(#SVGID_18_)" fill="#FFFFFF" points="420.57,110.358 411.486,110.358 411.486,107.508 433.23,107.508 
					433.23,110.358 424.14,110.358 424.14,129.624 420.57,129.624 				"/>
				<polygon clip-path="url(#SVGID_18_)" fill="none" stroke="#151011" stroke-width="0.246" stroke-miterlimit="10" points="
					420.57,110.358 411.486,110.358 411.486,107.508 433.23,107.508 433.23,110.358 424.14,110.358 424.14,129.624 420.57,129.624 
									"/>
				<polygon clip-path="url(#SVGID_18_)" fill="#FFFFFF" points="456.793,107.508 461.135,107.508 450.536,120.362 450.536,129.623 
					446.966,129.623 446.966,120.517 436.429,107.508 440.974,107.508 448.818,117.574 				"/>
				<polygon clip-path="url(#SVGID_18_)" fill="none" stroke="#151011" stroke-width="0.246" stroke-miterlimit="10" points="
					456.793,107.508 461.135,107.508 450.536,120.362 450.536,129.623 446.966,129.623 446.966,120.517 436.429,107.508 
					440.974,107.508 448.818,117.574 				"/>
			</g>
		</g>
	</g>
</g>
</svg>
