<svg width="121" height="39" viewBox="0 0 121 39" fill="none" xmlns="http://www.w3.org/2000/svg">
    <g clip-path="url(#c6h5mffqqa)">
        <path d="M35.234 27.258c-.189-.455-.365-.933-.553-1.341l-.87-1.949-.036-.035c-2.588-5.6-5.353-11.293-8.282-16.893l-.118-.233c-.294-.549-.588-1.155-.894-1.715-.377-.665-.741-1.377-1.341-2.054a6.228 6.228 0 0 0-2.155-1.67 6.279 6.279 0 0 0-5.337 0 6.228 6.228 0 0 0-2.155 1.67c-.553.677-.965 1.389-1.342 2.054a34.749 34.749 0 0 1-.894 1.75l-.117.233c-2.883 5.6-5.694 11.293-8.283 16.893l-.07.07c-.26.607-.565 1.237-.86 1.913-.187.409-.376.852-.564 1.342a7.872 7.872 0 0 0 1.139 7.78 7.993 7.993 0 0 0 3.266 2.458 8.061 8.061 0 0 0 4.066.53 9.913 9.913 0 0 0 3.74-1.283c1.53-.852 3-2.088 4.648-3.873 1.647 1.785 3.153 3.021 4.647 3.885a9.92 9.92 0 0 0 4.73 1.342 8.027 8.027 0 0 0 5.254-1.927 7.903 7.903 0 0 0 2.687-4.875 6.877 6.877 0 0 0-.306-4.083v.011zM18.34 29.195c-2.024-2.567-3.341-4.924-3.789-6.942a6.018 6.018 0 0 1-.117-2.287c.082-.595.306-1.12.612-1.563.705-1.015 1.94-1.645 3.294-1.645.642-.02 1.28.12 1.854.405.575.285 1.07.707 1.44 1.229.306.466.53.98.6 1.575.117.676.07 1.458-.118 2.286-.447 1.983-1.765 4.363-3.776 6.942zm14.988 1.727a5.53 5.53 0 0 1-1.118 2.638 5.595 5.595 0 0 1-2.294 1.736c-.894.374-1.882.479-2.847.374-.941-.117-1.882-.42-2.847-.98a18.361 18.361 0 0 1-4.27-3.617c2.47-3.033 3.964-5.798 4.529-8.26a9.073 9.073 0 0 0 .188-3.185 6.42 6.42 0 0 0-1.012-2.567 6.29 6.29 0 0 0-2.306-1.983 6.349 6.349 0 0 0-2.976-.676c-2.177 0-4.118 1.003-5.294 2.648a6.013 6.013 0 0 0-1 2.578 7.62 7.62 0 0 0 .188 3.185c.565 2.462 2.094 5.262 4.53 8.284a16.821 16.821 0 0 1-4.271 3.64 7.446 7.446 0 0 1-2.847.968 5.635 5.635 0 0 1-4.114-1.098 5.544 5.544 0 0 1-2.145-3.65c-.118-.934-.035-1.867.341-2.917.118-.373.294-.747.483-1.19.258-.607.564-1.237.858-1.867l.047-.082a380.34 380.34 0 0 1 8.2-16.811l.118-.233c.294-.56.588-1.155.894-1.715.306-.595.636-1.167 1.059-1.634a3.902 3.902 0 0 1 1.342-1.022 3.933 3.933 0 0 1 4.646 1.022c.412.467.753 1.039 1.059 1.634.294.56.588 1.166.894 1.715l.118.233A460.691 460.691 0 0 1 31.716 24.9l.035.035c.306.607.565 1.284.86 1.867.188.455.376.817.493 1.202.224 1.05.342 1.983.224 2.917zm16.376-1.984a5.947 5.947 0 0 1-2.569-.542 5.899 5.899 0 0 1-2.078-1.593 7.603 7.603 0 0 1-1.882-5.227 8.08 8.08 0 0 1 1.953-5.343 6.23 6.23 0 0 1 2.157-1.613 6.28 6.28 0 0 1 2.643-.557 5.094 5.094 0 0 1 2.468.562c.762.392 1.41.97 1.885 1.678l.117-1.832h3.436v14.094h-3.447l-.118-2.053a5.3 5.3 0 0 1-1.964 1.801 5.353 5.353 0 0 1-2.6.625zm.895-3.36c.682 0 1.282-.186 1.847-.525a4.389 4.389 0 0 0 1.27-1.458c.294-.595.447-1.307.447-2.1a3.962 3.962 0 0 0-.392-2 3.998 3.998 0 0 0-1.337-1.547 3.493 3.493 0 0 0-3.67 0 4.389 4.389 0 0 0-1.271 1.459 4.646 4.646 0 0 0-.448 2.1c-.045.689.09 1.378.393 2a4 4 0 0 0 1.337 1.546 3.423 3.423 0 0 0 1.824.525zm13.117-14.91c0 .409-.07.782-.259 1.085a2.2 2.2 0 0 1-.788.747 2.21 2.21 0 0 1-1.082.257c-.377 0-.753-.07-1.094-.257a2.158 2.158 0 0 1-.789-.747 2.11 2.11 0 0 1-.258-1.085c0-.42.082-.793.258-1.085.189-.35.46-.56.789-.746a2.233 2.233 0 0 1 1.094-.269 2.18 2.18 0 0 1 1.074.255c.33.176.609.434.808.749.171.34.256.716.247 1.096zm-4 17.85v-14.07h3.741v14.093h-3.753l.012-.023zm13.741-10.383v.046c-.176-.081-.411-.116-.588-.151-.235-.047-.424-.047-.647-.047-1.047 0-1.835.303-2.353.933-.565.642-.823 1.54-.823 2.695v6.919h-3.753V14.436h3.447l.117 2.136c.377-.747.824-1.307 1.46-1.727a3.67 3.67 0 0 1 2.129-.584c.27 0 .529.024.752.07.118.036.189.036.26.07v3.734zm1.506 10.383V8.662h3.741v7.583a5.923 5.923 0 0 1 1.883-1.61 5.95 5.95 0 0 1 3.844-.467 5.914 5.914 0 0 1 3.309 1.995 7.603 7.603 0 0 1 1.882 5.238 8.079 8.079 0 0 1-1.953 5.344 6.23 6.23 0 0 1-2.157 1.613 6.28 6.28 0 0 1-2.643.557 5.094 5.094 0 0 1-2.468-.562 5.044 5.044 0 0 1-1.885-1.678l-.118 1.831-3.435.035v-.023zm7.236-2.94c.67 0 1.27-.186 1.835-.525a4.39 4.39 0 0 0 1.27-1.458c.306-.595.447-1.307.447-2.1 0-.782-.14-1.494-.447-2.088a4.386 4.386 0 0 0-1.27-1.459 3.493 3.493 0 0 0-3.67 0c-.53.373-.942.863-1.283 1.459a4.644 4.644 0 0 0-.447 2.1 3.96 3.96 0 0 0 .392 2 3.999 3.999 0 0 0 1.337 1.546 3.433 3.433 0 0 0 1.835.525zm8.835 2.952V14.436h3.447l.117 1.832a4.644 4.644 0 0 1 1.78-1.664 4.69 4.69 0 0 1 2.385-.54 4.852 4.852 0 0 1 2.68.75 4.797 4.797 0 0 1 1.814 2.096c.412.887.636 1.983.636 3.208v8.447h-3.753v-7.957c0-.98-.224-1.75-.671-2.322-.447-.56-1.059-.863-1.835-.863-.565 0-1.06.117-1.494.374a2.923 2.923 0 0 0-1.012 1.084 3.129 3.129 0 0 0-.377 1.575v8.074h-3.717zm14.729 0V8.65h3.753v7.583a5.486 5.486 0 0 1 1.931-1.617 5.534 5.534 0 0 1 2.457-.588 5.944 5.944 0 0 1 2.569.542c.805.37 1.515.914 2.078 1.593a7.625 7.625 0 0 1 1.871 5.227 8.069 8.069 0 0 1-1.953 5.343 6.228 6.228 0 0 1-2.157 1.613 6.28 6.28 0 0 1-2.643.557 5.089 5.089 0 0 1-2.468-.562 5.046 5.046 0 0 1-1.885-1.678l-.106 1.832-3.447.035zm7.271-2.952c.682 0 1.282-.186 1.835-.525.529-.373.941-.863 1.282-1.458.295-.595.447-1.307.447-2.1a3.961 3.961 0 0 0-.392-2 3.999 3.999 0 0 0-1.337-1.547 3.492 3.492 0 0 0-3.671 0 4.39 4.39 0 0 0-1.27 1.459 4.202 4.202 0 0 0-.447 2.1c-.046.689.089 1.378.392 2a3.999 3.999 0 0 0 1.337 1.546 3.336 3.336 0 0 0 1.824.525z" fill="#FF385C"/>
    </g>
    <defs>
        <clipPath id="c6h5mffqqa">
            <path fill="#fff" transform="translate(.833 .799)" d="M0 0h120v37.333H0z"/>
        </clipPath>
    </defs>
</svg>
