<?xml version="1.0" encoding="UTF-8" standalone="no"?>
<!-- Generator: Adobe Illustrator 16.0.0, SVG Export Plug-In . SVG Version: 6.00 Build 0)  -->

<svg
   xmlns:dc="http://purl.org/dc/elements/1.1/"
   xmlns:cc="http://creativecommons.org/ns#"
   xmlns:rdf="http://www.w3.org/1999/02/22-rdf-syntax-ns#"
   xmlns:svg="http://www.w3.org/2000/svg"
   xmlns="http://www.w3.org/2000/svg"
   xmlns:sodipodi="http://sodipodi.sourceforge.net/DTD/sodipodi-0.dtd"
   xmlns:inkscape="http://www.inkscape.org/namespaces/inkscape"
   version="1.1"
   id="svg8"
   sodipodi:docname="CNBC Horizontal 2.svg"
   inkscape:version="0.92.2 (5c3e80d, 2017-08-06)"
   x="0px"
   y="0px"
   width="1000"
   height="141.793"
   viewBox="483.352 437.5 1000 141.793"
   enable-background="new 483.352 437.5 908.297 1000"
   xml:space="preserve"><metadata
     id="metadata5323"><rdf:RDF><cc:Work
         rdf:about=""><dc:format>image/svg+xml</dc:format><dc:type
           rdf:resource="http://purl.org/dc/dcmitype/StillImage" /><dc:title></dc:title></cc:Work></rdf:RDF></metadata><defs
     id="defs5321" /><sodipodi:namedview
     showgrid="false"
     inkscape:cy="104.74164"
     inkscape:cx="400.63532"
     inkscape:zoom="0.77109376"
     borderopacity="1.0"
     bordercolor="#666666"
     pagecolor="#ffffff"
     id="base"
     inkscape:window-maximized="1"
     inkscape:window-y="-8"
     inkscape:current-layer="svg8"
     inkscape:document-units="px"
     inkscape:pageopacity="0.0"
     inkscape:window-x="-8"
     inkscape:window-height="705"
     inkscape:window-width="1366"
     inkscape:pageshadow="2" /><g
     id="g11909"
     transform="matrix(0.26270201,0,0,0.26270201,643.48486,389.78639)"><path
       id="path39"
       inkscape:connector-curvature="0"
       d="M 203.7271,501.69659 -74.3909,687.68239 19.2789,465.04408 63.7172,361.37223 c 17.9958,-33.50302 51.8896,-54.86862 88.8698,-55.46088 35.4181,0 66.8366,17.05041 86.7542,47.62535 20.5077,30.57495 21.6557,80.54941 1.1459,111.51402 -9.1762,14.49317 -22.7827,27.42437 -36.76,36.64587 z"
       style="fill:#0089d0" /><path
       id="path41"
       inkscape:connector-curvature="0"
       d="m 65.2415,326.09797 -137.5169,325.12682 -6.1285,-35.468 -41.36957,-266.53527 c -1.73248,-16.26996 4.96837,-29.98269 17.98257,-38.99609 l 19.7338,-11.75993 c 1.1591,-4.11924 -4.5908,-5.49307 -7.282,-6.85914 l -38.68058,-0.39077 c -2.48745,-38.41601 14.36808,-73.29285 46.92128,-94.26213 25.2966,-16.47143 63.7879,-20.77334 91.9374,-7.45139 36.5905,14.89724 62.0565,53.89887 62.6288,93.67651 -0.1826,14.70019 -2.6768,29.78674 -8.2263,42.91939 z"
       style="fill:#6460aa" /><path
       id="path43"
       inkscape:connector-curvature="0"
       d="M -198.87484,652.40929 -334.29288,326.48875 c -14.56292,-34.89013 -8.43443,-80.74424 16.47144,-108.97008 26.61843,-29.5919 64.15878,-42.1334 102.85374,-32.13695 32.75358,8.03147 63.39161,39.3924 71.44742,72.90317 3.82925,12.54703 3.25027,27.63247 2.48754,41.35184 z"
       style="fill:#cc004c" /><path
       id="path45"
       inkscape:connector-curvature="0"
       d="m -488.2879,489.93669 c -27.77748,-24.10552 -40.21824,-56.24801 -36.20527,-93.48724 4.0185,-37.62891 33.71778,-74.47072 69.14814,-85.83435 36.38905,-11.36915 76.03385,-2.35575 102.46962,24.88705 11.11122,10.58759 18.00245,23.12245 23.74017,36.06136 l 130.83386,316.70448 z"
       style="fill:#f37021" /><path
       id="path47"
       inkscape:connector-curvature="0"
       d="m -518.01043,721.29949 c -36.18756,-4.1015 -64.08572,-23.6151 -81.09849,-56.7904 -17.22753,-33.4908 -12.7485,-81.021 10.41158,-110.7269 25.24019,-30.2473 61.75432,-45.4589 98.55075,-37.9887 14.99798,2.4188 27.56936,8.8695 39.39351,16.302 l 281.5454,189.2793 -348.80275,-0.075 z"
       style="fill:#fcb711" /><path
       id="path49"
       inkscape:connector-curvature="0"
       d="m 246.3332,721.29949 c 36.2053,-4.1015 64.0846,-23.6151 81.0974,-56.7904 17.2331,-33.4908 12.7552,-81.021 -10.4049,-110.7269 -25.2469,-30.2473 -61.7599,-45.4589 -98.5641,-37.9887 -14.9847,2.4188 -27.5583,8.8695 -39.3802,16.302 l -281.5454,189.2793 348.7972,-0.075 z"
       style="fill:#0db14b" /></g><path
     style="fill:#000000;stroke-width:0.72309375"
     inkscape:connector-curvature="0"
     id="path5311"
     d="m 886.8799,496.31343 c -2.664,-12.95344 -13.2624,-16.39544 -25.12796,-17.48899 -38.32314,-3.56771 -45.11365,25.1449 -45.11365,37.26493 0,20.73737 6.04365,37.88686 43.66077,37.88686 6.93698,0 26.09416,-7.16029 26.09416,-18.78983 h 54.10473 c -2.18213,34.49774 -60.04432,42.76514 -85.27716,42.76514 -52.28677,0 -97.0546,-9.76036 -94.88689,-61.39144 1.54012,-36.8566 36.2875,-62.72196 105.39485,-61.1057 38.52326,0.89722 75.52568,12.93418 75.68483,40.85903 z m 541.9305,0 c -2.6688,-12.95344 -13.2721,-16.39544 -25.1321,-17.48899 -38.3231,-3.56771 -45.1097,25.1449 -45.1097,37.26493 0,20.73737 6.039,37.88686 43.6609,37.88686 6.9361,0 26.0836,-7.16029 26.0836,-18.78983 h 54.1143 c -2.1724,34.49774 -60.0393,42.76514 -85.2762,42.76514 -52.2868,0 -97.0546,-9.76036 -94.8917,-61.39144 1.549,-36.8566 36.2962,-62.72196 105.39,-61.1057 38.5369,0.89722 75.544,12.93418 75.7025,40.85903 z M 951.07302,457.91832 h 70.23688 l 59.9298,84.22431 h 0.4834 v -84.22431 h 45.0177 v 116.94577 h -67.2904 L 996.58231,490.6477 h -0.49166 v 84.21639 h -45.01763 z m 189.56498,0 h 85.3083 c 41.0095,0 65.1264,11.48195 65.1264,28.8301 0,10.23901 -10.0972,22.88746 -32.6029,26.61769 v 0.31864 c 27.0963,1.61696 37.1024,18.79695 37.1024,29.09115 0,20.61878 -23.5109,32.08819 -69.3762,32.08819 h -85.558 z m 49.3897,45.44094 h 14.143 c 21.7756,0 33.3393,-1.69943 33.3393,-10.77205 0,-9.71551 -9.6242,-12.96227 -29.232,-12.96227 h -18.2551 v 23.73432 h 0.01 z m 0,46.99559 h 14.143 c 26.2526,0 35.8856,-2.75606 35.8856,-11.82397 0,-9.72423 -12.1705,-12.96217 -31.7776,-12.96217 h -18.255 v 24.78695 0 z" /></svg>