<svg width="295" height="238" viewBox="0 0 295 238" fill="none" xmlns="http://www.w3.org/2000/svg">
<path d="M259.714 -13.5219C265.078 -18.2941 265.603 -26.5771 260.246 -31.358C243.742 -46.0887 223.194 -55.7185 201.11 -58.8991C174.717 -62.7003 147.829 -57.0452 125.203 -42.934C102.577 -28.8228 85.6707 -7.16475 77.4734 18.2097C69.2762 43.5842 70.3165 71.04 80.4104 95.7214C90.5043 120.403 109.001 140.719 132.63 153.078C156.259 165.437 183.497 169.041 209.527 163.253C235.557 157.466 258.702 142.659 274.868 121.453C288.395 103.708 296.306 82.4396 297.758 60.3654C298.229 53.2012 292.051 47.6596 284.88 48.0138L266.673 48.9131C259.502 49.2673 254.102 55.4125 253.102 62.5222C251.47 74.1294 246.886 85.2028 239.693 94.6387C229.855 107.545 215.769 116.556 199.928 120.078C184.086 123.6 167.509 121.407 153.129 113.885C138.749 106.364 127.492 93.9998 121.349 78.979C115.206 63.9582 114.573 47.2489 119.561 31.8063C124.55 16.3637 134.839 3.18285 148.609 -5.40505C162.379 -13.993 178.742 -17.4346 194.805 -15.1212C206.549 -13.4298 217.578 -8.74194 226.876 -1.60484C232.572 2.76686 240.73 3.36737 246.094 -1.4049L259.714 -13.5219Z" fill="#057CFF" fill-opacity="0.2"/>
<path d="M275.774 -27.8102C275.982 -27.9951 276 -28.3138 275.814 -28.5208C256.709 -49.8178 230.722 -63.7271 202.393 -67.8071C173.897 -71.911 144.868 -65.8056 120.44 -50.5705C96.0124 -35.3354 77.7591 -11.9523 68.909 15.4431C60.0588 42.8385 61.182 72.4812 72.0799 99.1283C82.9777 125.776 102.948 147.71 128.459 161.053C153.97 174.396 183.377 178.287 211.48 172.039C239.584 165.79 264.572 149.805 282.025 126.909C299.377 104.147 308.17 76.0135 306.877 47.432C306.864 47.1542 306.628 46.9397 306.35 46.9534C306.072 46.9671 305.858 47.2039 305.871 47.4817C307.152 75.8258 298.432 103.725 281.224 126.298C263.915 149.005 239.133 164.859 211.262 171.056C183.391 177.253 154.226 173.393 128.926 160.161C103.625 146.928 83.82 125.174 73.0121 98.7471C62.2042 72.3199 61.0903 42.922 69.8674 15.7527C78.6445 -11.4165 96.747 -34.6065 120.973 -49.7159C145.2 -64.8252 173.989 -70.8802 202.249 -66.8102C230.343 -62.764 256.115 -48.9708 275.062 -27.8513C275.248 -27.6443 275.566 -27.6253 275.774 -27.8102Z" fill="#057CFF" fill-opacity="0.2"/>
<path d="M282.471 -33.7677C282.694 -33.9662 282.714 -34.3083 282.514 -34.5305C268.751 -49.8729 251.559 -61.7531 232.336 -69.2024C212.945 -76.7168 192.043 -79.5065 171.359 -77.3408C150.676 -75.175 130.805 -68.116 113.391 -56.7476C95.9767 -45.3793 81.5193 -30.0283 71.2145 -11.9643C60.9097 6.09968 55.0536 26.3575 54.1307 47.1335C53.2078 67.9096 57.2446 88.6068 65.9071 107.513C74.5697 126.42 87.609 142.992 103.947 155.86C120.143 168.616 139.119 177.368 159.33 181.407C159.623 181.465 159.907 181.274 159.965 180.981C160.022 180.688 159.831 180.404 159.538 180.346C139.495 176.339 120.677 167.66 104.616 155.01C88.4131 142.249 75.4814 125.813 66.8903 107.063C58.2993 88.3124 54.2959 67.786 55.2112 47.1815C56.1264 26.577 61.9341 6.48644 72.1538 -11.4284C82.3736 -29.3432 96.7116 -44.5675 113.982 -55.842C131.253 -67.1165 150.959 -74.1173 171.472 -76.2651C191.985 -78.413 212.714 -75.6463 231.945 -68.1939C251.009 -60.8067 268.057 -49.0257 281.706 -33.8117C281.906 -33.5894 282.247 -33.5692 282.471 -33.7677Z" fill="#057CFF" fill-opacity="0.2"/>
</svg>
