<svg width="149" height="35" viewBox="0 0 149 35" fill="none" xmlns="http://www.w3.org/2000/svg">
    <g clip-path="url(#mm84cdusia)">
        <path d="M53.17 12.462v1.965h.06c.706-1.052 1.88-2.29 4.481-2.29 2.024 0 3.576 1.03 4.242 2.585h.06c.568-.786 1.22-1.382 1.95-1.803.864-.5 1.825-.787 3.035-.787 2.74 0 5.166 1.782 5.166 6.276v8.524h-4.177v-7.928c0-2.278-.822-3.595-2.532-3.595-1.252 0-2.162.791-2.509 1.765-.12.335-.175.79-.175 1.173v8.59h-4.177v-8.255c0-1.934-.79-3.277-2.477-3.277-1.35 0-2.195 1-2.541 1.856-.148.365-.194.787-.194 1.182v8.489H49.2v-14.47h3.97zm40.553 0v2.73h.116c.767-2.087 2.587-3.056 4.186-3.056.402 0 .624.03.947.091v3.79c-.383-.051-.739-.104-1.238-.104-1.811 0-3.073.991-3.391 2.543-.07.322-.093.67-.093 1.07v7.41h-4.288V12.462h3.761zm11.071-4.794v4.555h3.623v3.686h-3.623v5.437c0 1.76.476 2.613 1.89 2.613.665 0 1.155-.078 1.58-.178l.056 3.055c-.569.2-1.779.418-3.008.418-1.447 0-2.653-.474-3.387-1.209-.841-.839-1.229-2.212-1.229-4.168V7.668h4.098zM46.289 26.932h-4.158V7.668h4.158v19.264zM35.2 21.764c0 .265-.023.543-.102.782-.323 1.004-1.427 1.852-2.804 1.852-1.15 0-2.066-.613-2.066-1.913 0-1.986 2.33-2.538 4.977-2.525v1.804H35.2zm4.154-3.464c0-3.282-1.488-6.164-6.52-6.164-2.583 0-4.634.683-5.752 1.291l.818 2.634c1.02-.608 2.652-1.108 4.195-1.108 2.555-.005 2.971 1.36 2.971 2.234v.208c-5.568-.008-9.084 1.804-9.084 5.499 0 2.256 1.788 4.368 4.902 4.368 1.918 0 3.517-.717 4.478-1.869h.092s.638 2.5 4.14 1.543c-.185-1.043-.245-2.151-.245-3.486V18.3h.005zM5.093 7.668c.43 2.038 1.65 7.958 1.65 7.958.512 2.435.983 4.986 1.34 7.003h.064c.346-2.143.892-4.173 1.474-6.685l2.056-8.276h4.551l1.922 8.489c.504 2.36.906 4.181 1.225 6.376h.06c.346-2.217.8-4.112 1.294-6.537l1.848-8.328h4.366l-5.41 19.264c-3.447.708-4.769-.596-5.24-2.665-.471-2.073-1.395-6.015-1.395-6.015-.476-2.16-.846-3.682-1.105-5.898h-.064c-.37 2.195-.758 3.733-1.331 5.893l-2.269 8.69c-3.52.66-4.74-.318-5.415-2.974C4.132 21.69.5 7.673.5 7.673h4.593v-.005zm77.939 14.096c0 .265-.024.543-.102.782-.324 1.004-1.428 1.852-2.805 1.852-1.15 0-2.065-.613-2.065-1.913 0-1.986 2.329-2.538 4.976-2.525v1.804h-.004zm4.153-3.464c0-3.282-1.487-6.164-6.52-6.164-2.582 0-4.634.683-5.752 1.291l.818 2.634c1.021-.608 2.652-1.108 4.196-1.108 2.55-.005 2.97 1.36 2.97 2.234v.208c-5.563-.008-9.079 1.804-9.079 5.499 0 2.256 1.793 4.368 4.903 4.368 1.912 0 3.516-.717 4.472-1.869h.097s.638 2.5 4.14 1.543c-.184-1.043-.245-2.151-.245-3.486V18.3z" fill="#041E42"/>
        <path d="M125.273 20.297c.41.704.383 1.489-.055 1.848l-7.562 5.224c-.788.449-1.967-.096-2.635-1.235-.672-1.144-.552-2.419.235-2.868l8.373-3.84c.525-.2 1.235.168 1.644.871zm9.953 0c.415-.703 1.12-1.066 1.645-.876l8.377 3.84c.788.45.903 1.725.235 2.869-.672 1.139-1.856 1.679-2.639 1.234l-7.562-5.224c-.433-.354-.466-1.144-.056-1.843zm-4.978 2.832c.824 0 1.501.418 1.593.967l.815 9.069c0 .898-1.064 1.633-2.404 1.633-1.335 0-2.404-.735-2.404-1.633l.811-9.069c.092-.549.769-.966 1.589-.966zm5.034-10.339 7.562-5.228c.783-.45 1.967.09 2.639 1.234.668 1.144.553 2.42-.235 2.869l-8.377 3.844c-.525.19-1.235-.173-1.645-.876-.41-.703-.377-1.489.056-1.843zm-11.653 2.719-8.373-3.844c-.783-.45-.903-1.725-.235-2.869.668-1.144 1.852-1.684 2.635-1.234l7.562 5.228c.438.35.465 1.14.055 1.843-.409.704-1.119 1.067-1.644.876zm5.03-4.675-.811-9.068c0-.899 1.064-1.634 2.404-1.634 1.34 0 2.404.735 2.404 1.634l-.815 9.068c-.092.545-.769.967-1.593.967-.82 0-1.497-.422-1.589-.967zm18.869 16.498v-.227h.207c.069 0 .115.046.115.114a.11.11 0 0 1-.115.113h-.207zm-.17.413c0 .023.018.046.046.046h.087c.023 0 .046-.023.046-.046v-.258h.143l.115.272c.009.018.023.032.042.032h.106a.045.045 0 0 0 .041-.064 13.22 13.22 0 0 1-.124-.254.252.252 0 0 0 .175-.254c0-.173-.143-.273-.286-.273h-.345c-.023 0-.046.023-.046.046v.753zm-.373-.376c0-.368.304-.668.677-.668a.67.67 0 0 1 .677.668.67.67 0 0 1-.677.667.67.67 0 0 1-.677-.667zm-.162 0c0 .454.373.826.839.826.46 0 .838-.372.838-.826a.835.835 0 0 0-.838-.826.832.832 0 0 0-.839.826z" fill="#FFC124"/>
    </g>
    <defs>
        <clipPath id="mm84cdusia">
            <path fill="#fff" transform="translate(.5 .132)" d="M0 0h148v34.667H0z"/>
        </clipPath>
    </defs>
</svg>
