<svg width="24" height="24" viewBox="0 0 24 24" fill="none" xmlns="http://www.w3.org/2000/svg">
<g clip-path="url(#clip0_2026_956)">
<path d="M19 12H16.386L16.926 7.669C17.0203 7.23091 17.0159 6.7773 16.913 6.34114C16.8101 5.90497 16.6113 5.49721 16.3311 5.14748C16.0509 4.79775 15.6963 4.51483 15.2931 4.31929C14.8898 4.12374 14.4481 4.02048 14 4.017H11.631C11.74 3.24601 11.674 2.01 12.765 2.005H16C16.2652 2.005 16.5196 1.89965 16.7071 1.71211C16.8946 1.52458 17 1.27022 17 1.005C17 0.739788 16.8946 0.485434 16.7071 0.297898C16.5196 0.110362 16.2652 0.00500488 16 0.00500488H12.765C12.0341 0.00545481 11.3285 0.272722 10.7807 0.756616C10.2329 1.24051 9.88063 1.90774 9.79 2.633L9.617 4.017H3C2.5608 4.02172 2.12791 4.12214 1.73149 4.31128C1.33507 4.50042 0.98467 4.77373 0.704693 5.11215C0.424717 5.45058 0.221905 5.84599 0.110389 6.27082C-0.00112732 6.69566 -0.0186643 7.1397 0.0589998 7.572L1.572 19.63C1.72499 20.8377 2.31292 21.9483 3.22573 22.7538C4.13853 23.5593 5.31362 24.0045 6.531 24.006L19 23.994C19.6566 23.994 20.3068 23.8647 20.9134 23.6134C21.52 23.3621 22.0712 22.9938 22.5355 22.5295C22.9998 22.0652 23.3681 21.5141 23.6194 20.9074C23.8707 20.3008 24 19.6506 24 18.994V17C24 16.3434 23.8707 15.6932 23.6194 15.0866C23.3681 14.48 22.9998 13.9288 22.5355 13.4645C22.0712 13.0002 21.52 12.6319 20.9134 12.3806C20.3068 12.1293 19.6566 12 19 12ZM22 17H10C10 16.2044 10.3161 15.4413 10.8787 14.8787C11.4413 14.3161 12.2044 14 13 14H19C19.7956 14 20.5587 14.3161 21.1213 14.8787C21.6839 15.4413 22 16.2044 22 17ZM14 6.016C14.158 6.01686 14.3136 6.05472 14.4543 6.12656C14.595 6.19841 14.7169 6.30222 14.8102 6.42969C14.9036 6.55715 14.9657 6.70472 14.9917 6.86055C15.0178 7.01638 15.0069 7.17614 14.96 7.327L14.873 8H11.133L11.381 6.014L14 6.016ZM2.224 6.39C2.3173 6.27378 2.4354 6.17987 2.56966 6.11516C2.70393 6.05045 2.85096 6.01658 3 6.016H9.367L9.118 8H2.124L2.024 7.23C1.99195 7.08397 1.99329 6.93258 2.02792 6.78713C2.06255 6.64168 2.12958 6.50593 2.224 6.39ZM3.556 19.382L2.376 10H14.623L14.372 12H13C11.6739 12 10.4021 12.5268 9.46447 13.4645C8.52678 14.4022 8 15.6739 8 17C7.958 18.634 7.9 20.74 9.036 22.01H6.531C5.80009 22.0096 5.09449 21.7423 4.54671 21.2584C3.99892 20.7745 3.64663 20.1073 3.556 19.382ZM19 22H13C12.2044 22 11.4413 21.6839 10.8787 21.1213C10.3161 20.5587 10 19.7957 10 19H13.7C14.087 19.186 16.575 21.111 17 21C17.416 21.118 19.93 19.177 20.3 19H22C22 19.7957 21.6839 20.5587 21.1213 21.1213C20.5587 21.6839 19.7956 22 19 22Z" fill="white"/>
</g>
<defs>
<clipPath id="clip0_2026_956">
<rect width="24" height="24" fill="white"/>
</clipPath>
</defs>
</svg>
