<svg version="1.0" xmlns="http://www.w3.org/2000/svg" width="810.667" height="810.667" viewBox="0 0 608 608"><path d="M601.5 3.2c-1.6.5-4.5 1.6-6.3 2.5-1.8.8-4 1.6-5 1.8-1.8.4-23.3 8-26.7 9.5-1.1.5-5.1 2-9 3.3-3.8 1.4-12 4.4-18 6.6-6.1 2.3-11.4 4.1-11.7 4.1-.4 0-1.7.4-3 .9s-2.6.9-3.1 1c-.4 0-2 .7-3.7 1.6-1.6.8-3.7 1.7-4.7 1.8-1 .2-3.1 1-4.8 1.6-1.6.7-3.4 1.4-4 1.5-.5.2-1.7.6-2.5.9-.8.3-6.7 2.5-13 4.7-6.3 2.3-16.9 6.1-23.5 8.5-22.6 8.2-41 14.7-42 14.9-.5.1-1.9.7-3 1.3-1.1.5-3.3 1.3-5 1.7-1.6.4-4.3 1.4-6 2.1-1.6.7-7.9 3-14 5.1-6 2-11.4 4-12 4.4-.5.4-3.7 1.5-7 2.5s-6.4 2-7 2.4c-.5.3-1.4.6-2 .7-.5.1-4.6 1.6-9 3.2-12 4.6-47.1 17.2-47.8 17.2-.3 0-1.8.5-3.4 1.2-1.5.6-3 1.2-3.3 1.2-.4.1-8 2.8-12 4.3-.8.3-1.9.7-2.5.9-2.8.9-12.4 4.4-15 5.5-1.6.7-3.2 1.3-3.5 1.4-.3 0-4.3 1.4-9 3s-8.7 3-9 3c-.3.1-1.6.6-3 1.2-1.4.5-6.1 2.2-10.5 3.8-4.4 1.5-9.1 3.2-10.5 3.8-1.4.5-3 1.1-3.7 1.3-.6.1-4.9 1.6-9.5 3.2-14.2 5.2-26 9.4-27.2 9.7-.6.1-2.2.7-3.6 1.2-1.4.6-5.2 2-8.5 3.1-3.3 1.2-11.2 4-17.5 6.2-14.1 5.1-24.5 8.4-24.6 7.9 0-.2-.7.1-1.5.7s-4.5 2.2-8.4 3.4c-28.3 9.1-61.3 27.1-78.8 43-9 8.1-20.7 20.8-21.6 23.3-.2.7-.8 1.4-1.2 1.7-2 1.3-11.1 18.7-13.5 25.7-1.4 4.3-2.9 8.5-3.2 9.3-.3.8-.6 1.9-.7 2.5-1.4 5.8-1.8 10-2 22.2-.2 13 .3 17.9 3 29.3.7 3.1 4.4 12.9 5.6 15.2.7 1.2 1.4 2.9 1.5 3.6.1.8 1 2.2 1.8 3.1.9 1 1.6 2.1 1.6 2.5 0 .9 5.3 9 6.3 9.4.4.2.7.8.7 1.3 0 2.5 21.2 23.9 30.5 30.7 3.9 2.8 7.5 5.5 8 6 2.8 2.3 17.4 10.6 27.1 15.5 8.9 4.4 29.4 13.1 31.4 13.2.3 0 1.9.5 3.5 1.2 5.8 2.2 7 2.6 8.3 2.9.8.1 2.1.6 3 1 .9.4 2.2.8 2.7 1 .6.2 6.9 2.4 14 4.9 7.2 2.6 19.1 6.8 26.5 9.5 7.4 2.6 14.2 5 15 5.3.8.3 6.9 2.4 13.5 4.7 6.6 2.3 12.9 4.5 14 5 1.1.5 5.8 2.2 10.5 3.9 33.8 11.8 43.7 15.4 45.5 16.1 1.1.5 7.4 2.7 14 5s12.9 4.5 14 5c1.7.7 12.4 4.5 23 8.2 1.7.5 3.9 1.4 5 1.9 2.6 1.2 26.4 9.6 33.9 12 3.2 1.1 7.2 2.5 9 3.3 1.7.8 5.1 2.1 7.6 2.9 2.5.8 9.7 3.4 16 5.7 6.3 2.3 14.2 5.1 17.5 6.2 3.3 1.1 7.1 2.5 8.5 3.1 1.4.6 2.7 1.1 3 1.1.3.1 1.9.6 3.5 1.3 1.7.6 7.1 2.6 12 4.3 5 1.7 9.8 3.5 10.7 4 1 .6 2.5 1 3.3 1 .8 0 2.3.4 3.3.9 1.6.9 16.1 6.4 17.2 6.6 1.1.2 8.6 2.8 9.5 3.4.6.3 1.5.6 2 .7 1.2.2 12.3 4.2 15 5.4 1.1.5 4.7 1.8 8 2.9 6.4 2.2 9.1 3.2 22.5 8.1 4.7 1.7 9 3.3 9.5 3.4.6.2 1.7.6 2.5.9 6.5 2.5 21.7 7.9 22.5 8.1.6.1 1.5.4 2 .8.6.3 2.6 1.1 4.5 1.6 3.8 1.2 9.7 3.3 14.5 5.3 1.7.7 3.7 1.3 4.6 1.5.9.2 3.8 1.3 6.4 2.4 2.6 1.1 4.9 1.9 5.1 1.7.2-.1-2.7-2.3-6.4-4.7-5.9-4-13.7-9.4-16.7-11.7-.5-.5-3-2.4-5.5-4.3-21.4-16.5-44.3-39.2-61.4-61-3.6-4.7-7-9-7.5-9.6-3.1-3.8-14.1-20.4-14.1-21.2 0-.6-.4-1.2-.8-1.4-1.2-.4-9.8-15.3-16.4-28.3-6.2-12.2-13.3-28.6-16.8-38.5-1.2-3.6-2.6-7.4-3.1-8.5-.8-1.9-4-12.8-4.5-15-.1-.6-1.1-4.2-2.2-8-1.9-6.4-2.5-8.9-3.7-15.3-.2-1.3-.6-3.1-.9-4-.3-.9-.7-3.3-1-5.2-.3-1.9-.7-4.4-1-5.5-.7-3.5-1.6-9.9-2.2-14.5-.3-2.5-.7-5.9-.9-7.5-2.4-20.2-2.4-57.5 0-76 .2-1.7.6-5 .9-7.5.5-4.8 1-8 2.8-17.5.6-3.3 1.2-6.9 1.4-8 1.5-9.5 11.4-45.2 13.3-48 .4-.6 1.3-2.8 2-5s1.6-4.9 2.1-6c.5-1.1 2.1-4.9 3.6-8.5 1.4-3.6 5.8-12.8 9.7-20.5 3.8-7.7 7.5-15 8.1-16.2.6-1.3 1.4-2.3 1.9-2.3.4 0 .7-.5.7-1.2s1.1-2.8 2.4-4.7c1.3-2 4.9-7.4 7.9-12.1 8.2-12.4 11.8-17.5 12.8-17.8.5-.2.9-.8.9-1.4 0-.5.6-1.5 1.3-2.3.6-.7 2.8-3.2 4.7-5.6 1.9-2.4 4.5-5.4 5.8-6.7 1.2-1.3 2.2-2.5 2.2-2.7 0-1.3 23.7-25.4 32.3-32.9 2.8-2.4 6.8-5.9 8.7-7.6 1.9-1.8 5.4-4.6 7.8-6.3 2.3-1.7 4.2-3.4 4.2-3.9s.4-.7.9-.4c.5.4 1.1.3 1.3-.2.4-1.1 17.7-13.6 21.5-15.5 2.5-1.3 5.5-4 4.1-3.6-.2 0-1.6.5-3.3 1.1z"/></svg>