<svg xmlns="http://www.w3.org/2000/svg" xmlns:xlink="http://www.w3.org/1999/xlink" width="369.206" height="394.408" viewBox="0 0 369.206 394.408">
  <defs>
    <linearGradient id="linear-gradient" x1="0.2" y1="0.132" x2="0.813" y2="0.88" gradientUnits="objectBoundingBox">
      <stop offset="0" stop-color="#fff0be"/>
      <stop offset="1" stop-color="#fffdf4"/>
    </linearGradient>
    <filter id="Эллипс_1485" x="36.206" y="61.408" width="333" height="333" filterUnits="userSpaceOnUse">
      <feOffset dy="6" input="SourceAlpha"/>
      <feGaussianBlur stdDeviation="6" result="blur"/>
      <feFlood flood-color="#a6adc9" flood-opacity="0.161"/>
      <feComposite operator="in" in2="blur"/>
      <feComposite in="SourceGraphic"/>
    </filter>
  </defs>
  <g id="Сгруппировать_16413" data-name="Сгруппировать 16413" transform="translate(-1027.794 -152.592)">
    <g id="Сгруппировать_16397" data-name="Сгруппировать 16397" transform="translate(1215.097 145.592)">
      <g id="Эллипс_1480" data-name="Эллипс 1480" transform="translate(-187.303 7)" fill="none" stroke="#fff0be" stroke-width="6">
        <ellipse cx="107.099" cy="106.784" rx="107.099" ry="106.784" stroke="none"/>
        <ellipse cx="107.099" cy="106.784" rx="104.099" ry="103.784" fill="none"/>
      </g>
      <g id="Эллипс_1482" data-name="Эллипс 1482" transform="translate(-152.023 42.28)" fill="none" stroke="#fff0be" stroke-width="6">
        <ellipse cx="71.819" cy="71.504" rx="71.819" ry="71.504" stroke="none"/>
        <ellipse cx="71.819" cy="71.504" rx="68.819" ry="68.504" fill="none"/>
      </g>
      <g id="Эллипс_1481" data-name="Эллипс 1481" transform="translate(-108.554 85.749)" fill="none" stroke="#fff0be" stroke-width="6">
        <ellipse cx="28.35" cy="28.035" rx="28.35" ry="28.035" stroke="none"/>
        <ellipse cx="28.35" cy="28.035" rx="25.35" ry="25.035" fill="none"/>
      </g>
    </g>
    <g transform="matrix(1, 0, 0, 1, 1027.79, 152.59)" filter="url(#Эллипс_1485)">
      <circle id="Эллипс_1485-2" data-name="Эллипс 1485" cx="148.5" cy="148.5" r="148.5" transform="translate(54.21 73.41)" fill="url(#linear-gradient)"/>
    </g>
    <path id="Контур_17655" data-name="Контур 17655" d="M66.763,11.439A39.119,39.119,0,0,0,11.44,66.762L39.1,94.421,66.763,66.76A39.163,39.163,0,0,0,66.763,11.439ZM27.711,50.489a16.107,16.107,0,1,1,22.779,0A16.126,16.126,0,0,1,27.711,50.489Z" transform="matrix(0.809, -0.588, 0.588, 0.809, 1055.077, 211.353)" fill="#fed140"/>
  </g>
</svg>
