<?xml version="1.0" encoding="utf-8"?>
<!-- Generator: Adobe Illustrator 19.2.0, SVG Export Plug-In . SVG Version: 6.00 Build 0)  -->
<!DOCTYPE svg PUBLIC "-//W3C//DTD SVG 1.1//EN" "http://www.w3.org/Graphics/SVG/1.1/DTD/svg11.dtd">
<svg version="1.1"
	 id="Laag_1" inkscape:version="0.91 r13725" sodipodi:docname="logo_npcf.svg" xmlns:cc="http://creativecommons.org/ns#" xmlns:dc="http://purl.org/dc/elements/1.1/" xmlns:inkscape="http://www.inkscape.org/namespaces/inkscape" xmlns:rdf="http://www.w3.org/1999/02/22-rdf-syntax-ns#" xmlns:sodipodi="http://sodipodi.sourceforge.net/DTD/sodipodi-0.dtd" xmlns:svg="http://www.w3.org/2000/svg"
	 xmlns="http://www.w3.org/2000/svg" xmlns:xlink="http://www.w3.org/1999/xlink" x="0px" y="0px" viewBox="0 0 226.9 60"
	 style="enable-background:new 0 0 226.9 60;" xml:space="preserve">
<style type="text/css">
	.st0{fill:#DC1946;}
	.st1{fill:#110E72;}
</style>
<sodipodi:namedview  bordercolor="#666666" borderopacity="1" fit-margin-bottom="0" fit-margin-left="0" fit-margin-right="0" fit-margin-top="0" gridtolerance="10" guidetolerance="10" id="namedview3904" inkscape:current-layer="Laag_1" inkscape:cx="106.17199" inkscape:cy="18.813673" inkscape:pageopacity="0" inkscape:pageshadow="2" inkscape:window-height="701" inkscape:window-maximized="0" inkscape:window-width="1169" inkscape:window-x="428" inkscape:window-y="89" inkscape:zoom="1" objecttolerance="10" pagecolor="#ffffff" showgrid="false">
	</sodipodi:namedview>
<g>
	<path class="st0" d="M27.8,8.1c0,0.6-0.4,1-1,1s-1-0.4-1-1c0-0.6,0.4-1,1-1S27.8,7.6,27.8,8.1"/>
	<path class="st0" d="M25.2,8.1c0,0.6-0.4,1-1,1s-1-0.4-1-1c0-0.6,0.4-1,1-1S25.2,7.6,25.2,8.1"/>
	<path class="st0" d="M22.6,8.1c0,0.6-0.4,1-1,1s-1-0.4-1-1c0-0.6,0.4-1,1-1S22.6,7.6,22.6,8.1"/>
	<path class="st0" d="M20,8.1c0,0.6-0.4,1-1,1s-1-0.4-1-1c0-0.6,0.4-1,1-1S20,7.6,20,8.1"/>
	<path class="st0" d="M27.8,10.7c0,0.6-0.4,1-1,1s-1-0.4-1-1c0-0.6,0.4-1,1-1S27.8,10.2,27.8,10.7"/>
	<path class="st0" d="M25.2,10.7c0,0.6-0.4,1-1,1s-1-0.4-1-1c0-0.6,0.4-1,1-1S25.2,10.2,25.2,10.7"/>
	<path class="st0" d="M22.6,10.7c0,0.6-0.4,1-1,1s-1-0.4-1-1c0-0.6,0.4-1,1-1S22.6,10.2,22.6,10.7"/>
	<path class="st0" d="M20,10.7c0,0.6-0.4,1-1,1s-1-0.4-1-1c0-0.6,0.4-1,1-1S20,10.2,20,10.7"/>
	<path class="st0" d="M27.8,13.3c0,0.6-0.4,1-1,1s-1-0.4-1-1c0-0.6,0.4-1,1-1S27.8,12.7,27.8,13.3"/>
	<path class="st0" d="M25.2,13.3c0,0.6-0.4,1-1,1s-1-0.4-1-1c0-0.6,0.4-1,1-1S25.2,12.7,25.2,13.3"/>
	<path class="st0" d="M22.6,13.3c0,0.6-0.4,1-1,1s-1-0.4-1-1c0-0.6,0.4-1,1-1S22.6,12.7,22.6,13.3"/>
	<path class="st0" d="M20,13.3c0,0.6-0.4,1-1,1s-1-0.4-1-1c0-0.6,0.4-1,1-1S20,12.7,20,13.3"/>
	<path class="st0" d="M27.8,15.9c0,0.6-0.4,1-1,1s-1-0.4-1-1c0-0.6,0.4-1,1-1S27.8,15.3,27.8,15.9"/>
	<path class="st0" d="M25.2,15.9c0,0.6-0.4,1-1,1s-1-0.4-1-1c0-0.6,0.4-1,1-1S25.2,15.3,25.2,15.9"/>
	<path class="st0" d="M22.6,15.9c0,0.6-0.4,1-1,1s-1-0.4-1-1c0-0.6,0.4-1,1-1S22.6,15.3,22.6,15.9"/>
	<path class="st0" d="M20,15.9c0,0.6-0.4,1-1,1s-1-0.4-1-1c0-0.6,0.4-1,1-1S20,15.3,20,15.9"/>
	<path class="st0" d="M27.8,18.5c0,0.6-0.4,1-1,1s-1-0.4-1-1c0-0.6,0.4-1,1-1S27.8,17.9,27.8,18.5"/>
	<path class="st0" d="M25.2,18.5c0,0.6-0.4,1-1,1s-1-0.4-1-1c0-0.6,0.4-1,1-1S25.2,17.9,25.2,18.5"/>
	<path class="st0" d="M22.6,18.5c0,0.6-0.4,1-1,1s-1-0.4-1-1c0-0.6,0.4-1,1-1S22.6,17.9,22.6,18.5"/>
	<path class="st0" d="M20,18.5c0,0.6-0.4,1-1,1s-1-0.4-1-1c0-0.6,0.4-1,1-1S20,17.9,20,18.5"/>
	<path class="st0" d="M25.2,21c0,0.6-0.4,1-1,1s-1-0.4-1-1c0-0.6,0.4-1,1-1S25.2,20.5,25.2,21"/>
	<path class="st0" d="M22.6,21c0,0.6-0.4,1-1,1s-1-0.4-1-1c0-0.6,0.4-1,1-1S22.6,20.5,22.6,21"/>
	<path class="st0" d="M20,21c0,0.6-0.4,1-1,1s-1-0.4-1-1c0-0.6,0.4-1,1-1S20,20.5,20,21"/>
	<path class="st0" d="M25.2,23.6c0,0.6-0.4,1-1,1s-1-0.4-1-1c0-0.6,0.4-1,1-1S25.2,23.1,25.2,23.6"/>
	<path class="st0" d="M22.6,23.6c0,0.6-0.4,1-1,1s-1-0.4-1-1c0-0.6,0.4-1,1-1S22.6,23.1,22.6,23.6"/>
	<path class="st0" d="M20,23.6c0,0.6-0.4,1-1,1s-1-0.4-1-1c0-0.6,0.4-1,1-1S20,23.1,20,23.6"/>
	<path class="st0" d="M22.6,26.2c0,0.6-0.4,1-1,1c-0.6,0-1-0.4-1-1c0-0.6,0.4-1,1-1C22.2,25.2,22.6,25.6,22.6,26.2"/>
	<path class="st0" d="M20,26.2c0,0.6-0.4,1-1,1s-1-0.4-1-1c0-0.6,0.4-1,1-1S20,25.6,20,26.2"/>
	<path class="st0" d="M17.5,26.2c0,0.6-0.4,1-1,1c-0.6,0-1-0.4-1-1c0-0.6,0.4-1,1-1C17,25.2,17.5,25.6,17.5,26.2"/>
	<path class="st0" d="M22.6,28.8c0,0.6-0.4,1-1,1c-0.6,0-1-0.4-1-1c0-0.6,0.4-1,1-1C22.2,27.8,22.6,28.2,22.6,28.8"/>
	<path class="st0" d="M20,28.8c0,0.6-0.4,1-1,1s-1-0.4-1-1c0-0.6,0.4-1,1-1S20,28.2,20,28.8"/>
	<path class="st0" d="M17.5,28.8c0,0.6-0.4,1-1,1c-0.6,0-1-0.4-1-1c0-0.6,0.4-1,1-1C17,27.8,17.5,28.2,17.5,28.8"/>
	<path class="st0" d="M14.9,26.2c0,0.6-0.4,1-1,1c-0.6,0-1-0.4-1-1c0-0.6,0.4-1,1-1C14.4,25.2,14.9,25.6,14.9,26.2"/>
	<path class="st0" d="M12.3,26.2c0,0.6-0.4,1-1,1s-1-0.4-1-1c0-0.6,0.4-1,1-1S12.3,25.6,12.3,26.2"/>
	<path class="st0" d="M9.7,26.2c0,0.6-0.4,1-1,1s-1-0.4-1-1c0-0.6,0.4-1,1-1S9.7,25.6,9.7,26.2"/>
	<path class="st0" d="M14.9,28.8c0,0.6-0.4,1-1,1c-0.6,0-1-0.4-1-1c0-0.6,0.4-1,1-1C14.4,27.8,14.9,28.2,14.9,28.8"/>
	<path class="st0" d="M12.3,28.8c0,0.6-0.4,1-1,1s-1-0.4-1-1c0-0.6,0.4-1,1-1S12.3,28.2,12.3,28.8"/>
	<path class="st0" d="M9.7,28.8c0,0.6-0.4,1-1,1s-1-0.4-1-1c0-0.6,0.4-1,1-1S9.7,28.2,9.7,28.8"/>
	<path class="st0" d="M7.2,26.2c0,0.6-0.4,1-1,1s-1-0.4-1-1c0-0.6,0.4-1,1-1S7.2,25.6,7.2,26.2"/>
	<path class="st0" d="M4.6,26.2c0,0.6-0.4,1-1,1s-1-0.4-1-1c0-0.6,0.4-1,1-1S4.6,25.6,4.6,26.2"/>
	<path class="st0" d="M2,26.2c0,0.6-0.4,1-1,1s-1-0.4-1-1c0-0.6,0.4-1,1-1S2,25.6,2,26.2"/>
	<path class="st0" d="M7.2,28.8c0,0.6-0.4,1-1,1s-1-0.4-1-1c0-0.6,0.4-1,1-1S7.2,28.2,7.2,28.8"/>
	<path class="st0" d="M4.6,28.8c0,0.6-0.4,1-1,1s-1-0.4-1-1c0-0.6,0.4-1,1-1S4.6,28.2,4.6,28.8"/>
	<path class="st0" d="M2,28.8c0,0.6-0.4,1-1,1s-1-0.4-1-1c0-0.6,0.4-1,1-1S2,28.2,2,28.8"/>
	<path class="st0" d="M22.6,31.3c0,0.6-0.4,1-1,1c-0.6,0-1-0.4-1-1c0-0.6,0.4-1,1-1C22.2,30.3,22.6,30.8,22.6,31.3"/>
	<path class="st0" d="M20,31.3c0,0.6-0.4,1-1,1s-1-0.4-1-1c0-0.6,0.4-1,1-1S20,30.8,20,31.3"/>
	<path class="st0" d="M17.5,31.3c0,0.6-0.4,1-1,1c-0.6,0-1-0.4-1-1c0-0.6,0.4-1,1-1C17,30.3,17.5,30.8,17.5,31.3"/>
	<path class="st0" d="M22.6,33.9c0,0.6-0.4,1-1,1c-0.6,0-1-0.4-1-1s0.4-1,1-1C22.2,32.9,22.6,33.4,22.6,33.9"/>
	<path class="st0" d="M25.2,33.9c0,0.6-0.4,1-1,1c-0.6,0-1-0.4-1-1s0.4-1,1-1C24.7,32.9,25.2,33.4,25.2,33.9"/>
	<path class="st0" d="M20,33.9c0,0.6-0.4,1-1,1s-1-0.4-1-1s0.4-1,1-1S20,33.4,20,33.9"/>
	<path class="st0" d="M22.6,36.5c0,0.6-0.4,1-1,1s-1-0.4-1-1c0-0.6,0.4-1,1-1S22.6,35.9,22.6,36.5"/>
	<path class="st0" d="M25.2,36.5c0,0.6-0.4,1-1,1c-0.6,0-1-0.4-1-1c0-0.6,0.4-1,1-1C24.7,35.5,25.2,35.9,25.2,36.5"/>
	<path class="st0" d="M20,36.5c0,0.6-0.4,1-1,1s-1-0.4-1-1c0-0.6,0.4-1,1-1S20,35.9,20,36.5"/>
	<path class="st0" d="M22.6,39.1c0,0.6-0.4,1-1,1s-1-0.4-1-1s0.4-1,1-1S22.6,38.5,22.6,39.1"/>
	<path class="st0" d="M25.2,39.1c0,0.6-0.4,1-1,1c-0.6,0-1-0.4-1-1s0.4-1,1-1C24.7,38.1,25.2,38.5,25.2,39.1"/>
	<path class="st0" d="M27.8,39.1c0,0.6-0.4,1-1,1c-0.6,0-1-0.4-1-1s0.4-1,1-1C27.3,38.1,27.8,38.5,27.8,39.1"/>
	<path class="st0" d="M20,39.1c0,0.6-0.4,1-1,1s-1-0.4-1-1s0.4-1,1-1S20,38.5,20,39.1"/>
	<path class="st0" d="M22.6,41.6c0,0.6-0.4,1-1,1s-1-0.4-1-1c0-0.6,0.4-1,1-1S22.6,41.1,22.6,41.6"/>
	<path class="st0" d="M25.2,41.6c0,0.6-0.4,1-1,1c-0.6,0-1-0.4-1-1c0-0.6,0.4-1,1-1C24.7,40.6,25.2,41.1,25.2,41.6"/>
	<path class="st0" d="M27.8,41.6c0,0.6-0.4,1-1,1c-0.6,0-1-0.4-1-1c0-0.6,0.4-1,1-1C27.3,40.6,27.8,41.1,27.8,41.6"/>
	<path class="st0" d="M20,41.6c0,0.6-0.4,1-1,1s-1-0.4-1-1c0-0.6,0.4-1,1-1S20,41.1,20,41.6"/>
	<path class="st0" d="M22.6,44.2c0,0.6-0.4,1-1,1s-1-0.4-1-1s0.4-1,1-1S22.6,43.7,22.6,44.2"/>
	<path class="st0" d="M25.2,44.2c0,0.6-0.4,1-1,1c-0.6,0-1-0.4-1-1s0.4-1,1-1C24.7,43.2,25.2,43.7,25.2,44.2"/>
	<path class="st0" d="M27.8,44.2c0,0.6-0.4,1-1,1c-0.6,0-1-0.4-1-1s0.4-1,1-1C27.3,43.2,27.8,43.7,27.8,44.2"/>
	<path class="st0" d="M20,44.2c0,0.6-0.4,1-1,1s-1-0.4-1-1s0.4-1,1-1S20,43.7,20,44.2"/>
	<path class="st0" d="M22.6,46.8c0,0.6-0.4,1-1,1s-1-0.4-1-1c0-0.6,0.4-1,1-1S22.6,46.2,22.6,46.8"/>
	<path class="st0" d="M25.2,46.8c0,0.6-0.4,1-1,1c-0.6,0-1-0.4-1-1c0-0.6,0.4-1,1-1C24.7,45.8,25.2,46.2,25.2,46.8"/>
	<path class="st0" d="M27.8,46.8c0,0.6-0.4,1-1,1c-0.6,0-1-0.4-1-1c0-0.6,0.4-1,1-1C27.3,45.8,27.8,46.2,27.8,46.8"/>
	<path class="st0" d="M20,46.8c0,0.6-0.4,1-1,1s-1-0.4-1-1c0-0.6,0.4-1,1-1S20,46.2,20,46.8"/>
	<path class="st0" d="M22.6,49.4c0,0.6-0.4,1-1,1s-1-0.4-1-1c0-0.6,0.4-1,1-1S22.6,48.8,22.6,49.4"/>
	<path class="st0" d="M25.2,49.4c0,0.6-0.4,1-1,1c-0.6,0-1-0.4-1-1c0-0.6,0.4-1,1-1C24.7,48.4,25.2,48.8,25.2,49.4"/>
	<path class="st0" d="M27.8,49.4c0,0.6-0.4,1-1,1c-0.6,0-1-0.4-1-1c0-0.6,0.4-1,1-1C27.3,48.4,27.8,48.8,27.8,49.4"/>
	<path class="st0" d="M20,49.4c0,0.6-0.4,1-1,1s-1-0.4-1-1c0-0.6,0.4-1,1-1S20,48.8,20,49.4"/>
	<path class="st0" d="M22.6,51.9c0,0.6-0.4,1-1,1s-1-0.4-1-1c0-0.6,0.4-1,1-1S22.6,51.4,22.6,51.9"/>
	<path class="st0" d="M25.2,51.9c0,0.6-0.4,1-1,1c-0.6,0-1-0.4-1-1c0-0.6,0.4-1,1-1C24.7,50.9,25.2,51.4,25.2,51.9"/>
	<path class="st0" d="M27.8,51.9c0,0.6-0.4,1-1,1c-0.6,0-1-0.4-1-1c0-0.6,0.4-1,1-1C27.3,50.9,27.8,51.4,27.8,51.9"/>
	<path class="st0" d="M20,51.9c0,0.6-0.4,1-1,1s-1-0.4-1-1c0-0.6,0.4-1,1-1S20,51.4,20,51.9"/>
	<path class="st0" d="M17.5,33.9c0,0.6-0.4,1-1,1c-0.6,0-1-0.4-1-1s0.4-1,1-1C17,32.9,17.5,33.4,17.5,33.9"/>
	<path class="st0" d="M14.9,31.3c0,0.6-0.4,1-1,1c-0.6,0-1-0.4-1-1c0-0.6,0.4-1,1-1C14.4,30.3,14.9,30.8,14.9,31.3"/>
	<path class="st0" d="M12.3,31.3c0,0.6-0.4,1-1,1s-1-0.4-1-1c0-0.6,0.4-1,1-1S12.3,30.8,12.3,31.3"/>
	<path class="st0" d="M9.7,31.3c0,0.6-0.4,1-1,1s-1-0.4-1-1c0-0.6,0.4-1,1-1S9.7,30.8,9.7,31.3"/>
	<path class="st0" d="M14.9,33.9c0,0.6-0.4,1-1,1c-0.6,0-1-0.4-1-1s0.4-1,1-1C14.4,32.9,14.9,33.4,14.9,33.9"/>
	<path class="st0" d="M12.3,33.9c0,0.6-0.4,1-1,1s-1-0.4-1-1s0.4-1,1-1S12.3,33.4,12.3,33.9"/>
	<path class="st0" d="M9.7,33.9c0,0.6-0.4,1-1,1s-1-0.4-1-1s0.4-1,1-1S9.7,33.4,9.7,33.9"/>
	<path class="st0" d="M7.2,31.3c0,0.6-0.4,1-1,1s-1-0.4-1-1c0-0.6,0.4-1,1-1S7.2,30.8,7.2,31.3"/>
	<path class="st0" d="M4.6,31.3c0,0.6-0.4,1-1,1s-1-0.4-1-1c0-0.6,0.4-1,1-1S4.6,30.8,4.6,31.3"/>
	<path class="st0" d="M2,31.3c0,0.6-0.4,1-1,1s-1-0.4-1-1c0-0.6,0.4-1,1-1S2,30.8,2,31.3"/>
	<path class="st0" d="M7.2,33.9c0,0.6-0.4,1-1,1s-1-0.4-1-1s0.4-1,1-1S7.2,33.4,7.2,33.9"/>
	<path class="st0" d="M4.6,33.9c0,0.6-0.4,1-1,1s-1-0.4-1-1s0.4-1,1-1S4.6,33.4,4.6,33.9"/>
	<path class="st0" d="M2,33.9c0,0.6-0.4,1-1,1s-1-0.4-1-1s0.4-1,1-1S2,33.4,2,33.9"/>
	<g>
		<path class="st0" d="M38.1,35.1c-0.6,0-1.2-0.4-1.5-1L33,26.7c-0.4-0.8,0-1.8,0.8-2.2c0.8-0.4,1.8,0,2.2,0.8l1.8,3.9l2.9-7.8
			c0.3-0.9,1.3-1.3,2.2-1c0.9,0.3,1.3,1.3,1,2.2L39.6,34C39.4,34.6,38.8,35,38.1,35.1C38.1,35.1,38.1,35.1,38.1,35.1"/>
		<path class="st1" d="M45.3,37.5c-5.1,3.5-12.2,2.2-15.7-2.9s-2.2-12.2,2.9-15.7c5.1-3.5,12.2-2.2,15.7,2.9S50.4,34,45.3,37.5
			 M52,19.1C47,11.9,37,10,29.8,15c-7.3,5-9.1,15-4.1,22.2c4.5,6.4,12.8,8.6,19.7,5.5l6.2,8.9l0,0c0.9,1.3,2.7,1.6,4,0.7
			c1.3-0.9,1.6-2.7,0.8-4l0,0l-6.2-8.9C55.5,34.1,56.5,25.6,52,19.1"/>
	</g>
	<g>
		<path class="st1" d="M63.3,52.8c-0.5,0-1-0.1-1.4-0.3l0.2-0.7c0.3,0.2,0.7,0.3,1.1,0.3c0.6,0,0.9-0.2,0.9-0.7
			c0-0.4-0.2-0.5-0.5-0.6l-0.9-0.4c-0.3-0.1-0.9-0.4-0.9-1.3c0-0.9,0.8-1.4,1.7-1.4c0.5,0,0.9,0.1,1.3,0.3l-0.3,0.7
			c-0.3-0.2-0.6-0.2-1-0.2c-0.5,0-0.9,0.2-0.9,0.6c0,0.4,0.3,0.5,0.5,0.6l0.9,0.4c0.7,0.3,0.9,0.7,0.9,1.2
			C65,52.2,64.3,52.8,63.3,52.8z"/>
		<path class="st1" d="M68.6,52.8l-0.1-0.6h0c-0.4,0.3-0.7,0.6-1.3,0.6c-0.8,0-1.3-0.5-1.3-1.3c0-0.9,0.7-1.3,1.7-1.4l0.9-0.1v-0.4
			c0-0.7-0.2-1.2-1-1.2c-0.4,0-0.7,0.1-1,0.3l-0.3-0.6c0.4-0.3,0.9-0.4,1.5-0.4c1,0,1.6,0.6,1.6,1.5v2.3l0.2,1.1L68.6,52.8z
			 M68.4,50.6l-0.8,0.1c-0.6,0.1-1,0.3-1,0.7c0,0.4,0.2,0.7,0.7,0.7c0.5,0,0.8-0.2,1.1-0.4V50.6z"/>
		<path class="st1" d="M76.5,52.7v-3.1c0-0.7-0.3-1.1-0.9-1.1c-0.5,0-0.9,0.2-1.1,0.5c0,0.1,0,0.2,0,0.4v3.4h-0.8v-3.1
			c0-0.7-0.3-1.1-0.9-1.1c-0.5,0-0.8,0.2-1.1,0.5v3.8h-0.8V49l-0.1-1.1l0.8-0.1l0.1,0.6h0c0.4-0.4,0.8-0.6,1.4-0.6
			c0.6,0,1,0.2,1.3,0.7h0c0.4-0.4,0.9-0.7,1.6-0.7c0.8,0,1.5,0.5,1.5,1.5v3.4H76.5z"/>
		<path class="st1" d="M82.2,52.4c-0.5,0.3-0.9,0.4-1.5,0.4c-1.4,0-2.2-1-2.2-2.6c0-1.5,0.8-2.5,2-2.5c1.2,0,1.6,0.8,1.6,1.8v0.6
			h-2.8c0,1.3,0.5,1.9,1.5,1.9c0.4,0,0.7-0.1,1.1-0.3L82.2,52.4z M81.4,49.6c0-0.7-0.3-1.2-0.9-1.2c-0.6,0-1,0.5-1.1,1.2H81.4z"/>
		<path class="st1" d="M86.2,52.7v-3.1c0-0.7-0.3-1.1-0.9-1.1c-0.5,0-0.8,0.2-1.1,0.5v3.8h-0.8V49l-0.1-1.1l0.8-0.1l0.1,0.6h0
			c0.4-0.4,0.8-0.6,1.4-0.6c0.8,0,1.5,0.5,1.5,1.5v3.4H86.2z"/>
		<path class="st1" d="M93.5,52.8l-0.1-0.5h0c-0.3,0.3-0.7,0.5-1.3,0.5c-1.1,0-1.8-0.9-1.8-2.3c0-1.7,0.8-2.7,2.3-2.7
			c0.3,0,0.5,0,0.7,0.1v-1l-0.2-1.1l1-0.1v6l0.1,1.1L93.5,52.8z M93.3,48.6c-0.2-0.1-0.4-0.1-0.7-0.1c-0.9,0-1.4,0.8-1.4,1.7
			c0,1.2,0.3,1.9,1.2,1.9c0.4,0,0.7-0.2,0.9-0.4V48.6z"/>
		<path class="st1" d="M99,52.4c-0.5,0.3-0.9,0.4-1.5,0.4c-1.4,0-2.2-1-2.2-2.6c0-1.5,0.8-2.5,2-2.5c1.2,0,1.6,0.8,1.6,1.8v0.6h-2.8
			c0,1.3,0.5,1.9,1.5,1.9c0.4,0,0.7-0.1,1.1-0.3L99,52.4z M98.2,49.6c0-0.7-0.3-1.2-0.9-1.2c-0.6,0-1,0.5-1.1,1.2H98.2z"/>
		<path class="st1" d="M101.9,52.7v-0.6l2.4-3.6v0H102v-0.7h3.3v0.6l-2.4,3.6v0h2.5v0.7H101.9z"/>
		<path class="st1" d="M108.1,52.8c-1.5,0-2.1-1.1-2.1-2.5c0-1.4,0.7-2.5,2.1-2.5c1.5,0,2.1,1.1,2.1,2.5
			C110.2,51.7,109.5,52.8,108.1,52.8z M108.1,48.5c-0.8,0-1.2,0.5-1.2,1.8c0,1.2,0.4,1.8,1.2,1.8c0.8,0,1.2-0.6,1.2-1.8
			C109.3,49.1,108.9,48.5,108.1,48.5z"/>
		<path class="st1" d="M113.5,48.6c-0.6,0-1,0.1-1.3,0.5v3.6h-0.8V49l-0.1-1.1l0.8-0.1l0.1,0.7h0c0.3-0.4,0.8-0.7,1.4-0.7V48.6z"/>
		<path class="st1" d="M117.4,48.5c0.2,0.2,0.2,0.5,0.2,0.9c0,1-0.7,1.6-1.7,1.6c-0.2,0-0.4,0-0.5-0.1c-0.1,0-0.1,0.1-0.2,0.1
			c-0.1,0.1-0.2,0.2-0.2,0.4c0,0.3,0.2,0.4,0.6,0.4h1.4c0.9,0,1.3,0.3,1.3,1c0,1-1,2-2.7,2c-1,0-1.6-0.5-1.6-1.3
			c0-0.4,0.2-0.7,0.3-0.9c0.1-0.1,0.2-0.2,0.3-0.3c-0.2-0.1-0.3-0.4-0.3-0.7c0-0.3,0.2-0.6,0.3-0.7c0.1-0.1,0.2-0.2,0.3-0.2
			c-0.4-0.3-0.7-0.8-0.7-1.4c0-1,0.7-1.6,1.7-1.6c0.4,0,0.7,0.1,1,0.2l1.5-0.2v0.7H117.4z M116.9,52.6h-1.3c-0.1,0-0.3,0-0.4,0
			c-0.1,0.1-0.1,0.1-0.2,0.2c-0.1,0.2-0.2,0.4-0.2,0.6c0,0.6,0.3,0.9,1.1,0.9c1.2,0,1.8-0.7,1.8-1.2
			C117.7,52.6,117.4,52.6,116.9,52.6z M116,48.3c-0.5,0-1,0.4-1,1c0,0.7,0.4,1,1,1c0.5,0,0.9-0.4,0.9-1
			C116.9,48.7,116.5,48.3,116,48.3z"/>
		<path class="st1" d="M122.9,52.8c-0.6,0-1.2-0.1-1.5-0.2v-5.8l-0.1-1.1l1-0.1v2.6h0c0.3-0.3,0.7-0.5,1.3-0.5
			c1.2,0,1.7,0.8,1.7,2.2C125.3,51.6,124.5,52.8,122.9,52.8z M123.3,48.5c-0.4,0-0.7,0.2-1,0.4V52c0.2,0.1,0.4,0.1,0.7,0.1
			c1,0,1.5-0.8,1.5-1.8C124.5,49.2,124.2,48.5,123.3,48.5z"/>
		<path class="st1" d="M129.9,52.4c-0.5,0.3-0.9,0.4-1.5,0.4c-1.4,0-2.2-1-2.2-2.6c0-1.5,0.8-2.5,2-2.5c1.2,0,1.6,0.8,1.6,1.8v0.6
			H127c0,1.3,0.5,1.9,1.5,1.9c0.4,0,0.7-0.1,1.1-0.3L129.9,52.4z M129.1,49.6c0-0.7-0.3-1.2-0.9-1.2c-0.6,0-1,0.5-1.1,1.2H129.1z"/>
		<path class="st1" d="M133.5,52.5c-0.3,0.2-0.6,0.3-1.1,0.3c-0.7,0-1.2-0.5-1.2-1.3v-3h-0.7V48l0.7-0.1V47l0.8-0.1v0.9h1.4v0.7
			h-1.4v2.7c0,0.7,0.2,0.9,0.6,0.9c0.3,0,0.4-0.1,0.6-0.2L133.5,52.5z"/>
		<path class="st1" d="M137.7,52.4c-0.5,0.3-0.9,0.4-1.5,0.4c-1.4,0-2.2-1-2.2-2.6c0-1.5,0.8-2.5,2-2.5c1.2,0,1.6,0.8,1.6,1.8v0.6
			h-2.8c0,1.3,0.5,1.9,1.5,1.9c0.4,0,0.7-0.1,1.1-0.3L137.7,52.4z M136.9,49.6c0-0.7-0.3-1.2-0.9-1.2c-0.6,0-1,0.5-1.1,1.2H136.9z"
			/>
		<path class="st1" d="M141,48.6c-0.6,0-1,0.1-1.3,0.5v3.6h-0.8V49l-0.1-1.1l0.8-0.1l0.1,0.7h0c0.3-0.4,0.8-0.7,1.4-0.7V48.6z"/>
		<path class="st1" d="M149.7,52.7v-3.1c0-0.7-0.3-1.1-0.9-1.1c-0.5,0-0.9,0.2-1.1,0.5c0,0.1,0,0.2,0,0.4v3.4h-0.8v-3.1
			c0-0.7-0.3-1.1-0.9-1.1c-0.5,0-0.8,0.2-1.1,0.5v3.8H144V49l-0.1-1.1l0.8-0.1l0.1,0.6h0c0.4-0.4,0.8-0.6,1.4-0.6
			c0.6,0,1,0.2,1.3,0.7h0c0.4-0.4,0.9-0.7,1.6-0.7c0.8,0,1.5,0.5,1.5,1.5v3.4H149.7z"/>
		<path class="st1" d="M154.4,52.8l-0.1-0.6h0c-0.4,0.3-0.7,0.6-1.3,0.6c-0.8,0-1.3-0.5-1.3-1.3c0-0.9,0.7-1.3,1.7-1.4l0.9-0.1v-0.4
			c0-0.7-0.2-1.2-1-1.2c-0.4,0-0.7,0.1-1,0.3l-0.3-0.6c0.4-0.3,0.9-0.4,1.5-0.4c1,0,1.6,0.6,1.6,1.5v2.3l0.2,1.1L154.4,52.8z
			 M154.2,50.6l-0.8,0.1c-0.6,0.1-1,0.3-1,0.7c0,0.4,0.2,0.7,0.7,0.7c0.5,0,0.8-0.2,1.1-0.4V50.6z"/>
		<path class="st1" d="M156.6,52.7v-5.9l-0.1-1.1l1-0.1v7.1H156.6z M159.7,52.9l-2.2-2.8l1.8-2.2h0.9l-1.7,2.1l2.1,2.6L159.7,52.9z"
			/>
		<path class="st1" d="M164.6,52.4c-0.5,0.3-0.9,0.4-1.5,0.4c-1.4,0-2.2-1-2.2-2.6c0-1.5,0.8-2.5,2-2.5c1.2,0,1.6,0.8,1.6,1.8v0.6
			h-2.8c0,1.3,0.5,1.9,1.5,1.9c0.4,0,0.7-0.1,1.1-0.3L164.6,52.4z M163.8,49.6c0-0.7-0.3-1.2-0.9-1.2c-0.6,0-1,0.5-1.1,1.2H163.8z"
			/>
		<path class="st1" d="M168.6,52.7v-3.1c0-0.7-0.3-1.1-0.9-1.1c-0.5,0-0.8,0.2-1.1,0.5v3.8h-0.8V49l-0.1-1.1l0.8-0.1l0.1,0.6h0
			c0.4-0.4,0.8-0.6,1.4-0.6c0.8,0,1.5,0.5,1.5,1.5v3.4H168.6z"/>
	</g>
	<g>
		<path class="st1" d="M64.9,16.9h-0.3v5.4h-2.5v-14c0.4,0,0.7-0.1,1.1-0.1C63.9,8.1,64.9,8,65.8,8c3,0,4.8,1.3,4.8,3.8
			C70.7,15.1,68,16.9,64.9,16.9z M65.7,9.9c-0.3,0-0.6,0-0.8,0c-0.1,0-0.2,0-0.3,0v5h0.3c1.8,0,3.4-0.9,3.4-2.8
			C68.3,10.5,67.2,9.9,65.7,9.9z"/>
		<path class="st1" d="M77.7,22.5l-0.2-1.3h0c-0.7,0.7-1.6,1.3-2.9,1.3c-1.8,0-2.9-1.1-2.9-2.9c0-2.1,1.6-3,3.8-3.2l1.8-0.2v-0.9
			c0-1.3-0.5-2.3-2.1-2.3c-0.9,0-1.5,0.3-2.2,0.6L72.1,12c1-0.7,2.1-1.1,3.6-1.1c2.4,0,3.9,1.4,3.9,3.6v5l0.4,2.6L77.7,22.5z
			 M77.3,17.7l-1.4,0.2c-1.2,0.2-1.9,0.6-1.9,1.5c0,0.8,0.5,1.4,1.3,1.4c0.9,0,1.5-0.4,2-0.8V17.7z"/>
		<path class="st1" d="M88.9,21.8c-0.8,0.4-1.5,0.7-2.8,0.7c-1.9,0-3-1.2-3-3.3v-6.1h-1.7v-1.6l1.7-0.4V9.3L85.4,9v2.2h3.1v1.9h-3.1
			v5.4c0,1.5,0.4,1.9,1.4,1.9c0.6,0,0.9-0.2,1.4-0.4L88.9,21.8z"/>
		<path class="st1" d="M92.1,9.9c-0.9,0-1.6-0.7-1.6-1.6c0-0.9,0.7-1.6,1.6-1.6c0.9,0,1.6,0.7,1.6,1.6C93.7,9.2,93,9.9,92.1,9.9z
			 M90.9,22.3v-8.3l-0.4-2.6l2.7-0.3v11.2H90.9z"/>
		<path class="st1" d="M104.5,21.7c-1.2,0.6-2.2,0.9-3.6,0.9c-3.5,0-5.1-2.2-5.1-5.9c0-3.4,1.9-5.7,4.7-5.7c2.8,0,3.9,1.9,3.9,4.5
			v1.3h-6.3c0.1,2.5,1,3.7,3.2,3.7c1,0,1.6-0.3,2.4-0.6L104.5,21.7z M98,9.9c-0.8,0-1.5-0.6-1.5-1.5c0-0.8,0.6-1.5,1.5-1.5
			c0.8,0,1.5,0.7,1.5,1.5C99.4,9.2,98.8,9.9,98,9.9z M102.3,15.2c0-1.4-0.5-2.3-1.9-2.3s-2.1,1-2.3,2.3H102.3z M102.1,9.9
			c-0.8,0-1.5-0.6-1.5-1.5c0-0.8,0.6-1.5,1.5-1.5c0.8,0,1.5,0.7,1.5,1.5C103.6,9.2,102.9,9.9,102.1,9.9z"/>
		<path class="st1" d="M113.2,22.3v-7.1c0-1.4-0.5-2.1-1.8-2.1c-0.9,0-1.6,0.4-2.2,0.9v8.3h-2.4v-8.3l-0.4-2.6l2.3-0.3l0.2,1.2h0
			c0.7-0.7,1.8-1.3,3.2-1.3c1.9,0,3.4,1.2,3.4,3.5v7.8H113.2z"/>
		<path class="st1" d="M124.9,21.8c-0.8,0.4-1.5,0.7-2.8,0.7c-1.9,0-3-1.2-3-3.3v-6.1h-1.7v-1.6l1.7-0.4V9.3l2.4-0.3v2.2h3.1v1.9
			h-3.1v5.4c0,1.5,0.4,1.9,1.4,1.9c0.6,0,0.9-0.2,1.4-0.4L124.9,21.8z"/>
		<path class="st1" d="M134.6,21.7c-1.2,0.6-2.2,0.9-3.6,0.9c-3.5,0-5.1-2.2-5.1-5.9c0-3.4,1.9-5.7,4.7-5.7c2.8,0,3.9,1.9,3.9,4.5
			v1.3h-6.3c0.1,2.5,1,3.7,3.2,3.7c1,0,1.6-0.3,2.4-0.6L134.6,21.7z M132.3,15.2c0-1.4-0.5-2.3-1.9-2.3c-1.3,0-2.1,1-2.3,2.3H132.3z
			"/>
		<path class="st1" d="M143.3,22.3v-7.1c0-1.4-0.5-2.1-1.8-2.1c-0.9,0-1.6,0.4-2.2,0.9v8.3h-2.4v-8.3l-0.4-2.6l2.3-0.3l0.2,1.2h0
			c0.7-0.7,1.8-1.3,3.2-1.3c1.9,0,3.4,1.2,3.4,3.5v7.8H143.3z"/>
		<path class="st1" d="M154.2,8.5c-0.4-0.1-0.6-0.2-1.1-0.2c-1,0-1.7,0.6-1.7,1.9v1.1h2.9v1.9h-2.9v9.1h-2.4v-9.1h-1.7v-1.6l1.7-0.4
			v-1c0-2.4,1.7-4,4-4c0.7,0,1.1,0.1,1.7,0.2L154.2,8.5z"/>
		<path class="st1" d="M163.7,21.7c-1.2,0.6-2.2,0.9-3.6,0.9c-3.5,0-5.1-2.2-5.1-5.9c0-3.4,1.9-5.7,4.7-5.7c2.8,0,3.9,1.9,3.9,4.5
			v1.3h-6.3c0.1,2.5,1,3.7,3.2,3.7c1,0,1.6-0.3,2.4-0.6L163.7,21.7z M161.5,15.2c0-1.4-0.5-2.3-1.9-2.3c-1.3,0-2.1,1-2.3,2.3H161.5z
			"/>
		<path class="st1" d="M172.4,22.5l-0.2-1.2h0c-0.5,0.4-1.5,1.2-2.8,1.2c-2.6,0-4.1-2.1-4.1-5.3c0-3.9,2.1-6.1,5.4-6.1
			c0.4,0,0.7,0,0.9,0.1c0.1,0,0.3,0,0.4,0.1V9.1l-0.4-2.6l2.7-0.4v13.4l0.4,2.6L172.4,22.5z M171.9,13.4l-0.4-0.1
			c-0.3-0.1-0.6-0.1-1.1-0.1c-1.8,0-2.9,1.6-2.9,3.5c0,2.5,0.7,3.8,2.5,3.8c0.8,0,1.4-0.3,1.8-0.7V13.4z"/>
		<path class="st1" d="M185.5,21.7c-1.2,0.6-2.2,0.9-3.6,0.9c-3.5,0-5.1-2.2-5.1-5.9c0-3.4,1.9-5.7,4.7-5.7c2.8,0,3.9,1.9,3.9,4.5
			v1.3h-6.3c0.1,2.5,1,3.7,3.2,3.7c1,0,1.6-0.3,2.4-0.6L185.5,21.7z M183.3,15.2c0-1.4-0.5-2.3-1.9-2.3c-1.3,0-2.1,1-2.3,2.3H183.3z
			"/>
		<path class="st1" d="M193.2,13.2c-1.3,0-2.2,0.3-3.1,1.1v7.9h-2.4v-8.3l-0.4-2.6l2.3-0.3l0.2,1.5h0c0.7-0.8,1.6-1.6,3.2-1.6V13.2z
			"/>
		<path class="st1" d="M200,22.5l-0.2-1.3h0c-0.7,0.7-1.6,1.3-2.9,1.3c-1.8,0-2.9-1.1-2.9-2.9c0-2.1,1.6-3,3.8-3.2l1.8-0.2v-0.9
			c0-1.3-0.5-2.3-2.1-2.3c-0.9,0-1.5,0.3-2.2,0.6l-0.9-1.7c1-0.7,2.1-1.1,3.6-1.1c2.4,0,3.9,1.4,3.9,3.6v5l0.4,2.6L200,22.5z
			 M199.6,17.7l-1.4,0.2c-1.2,0.2-1.9,0.6-1.9,1.5c0,0.8,0.5,1.4,1.3,1.4c0.9,0,1.5-0.4,2-0.8V17.7z"/>
		<path class="st1" d="M211.3,21.8c-0.8,0.4-1.5,0.7-2.8,0.7c-1.9,0-3-1.2-3-3.3v-6.1h-1.7v-1.6l1.7-0.4V9.3l2.4-0.3v2.2h3.1v1.9
			h-3.1v5.4c0,1.5,0.4,1.9,1.4,1.9c0.6,0,0.9-0.2,1.4-0.4L211.3,21.8z"/>
		<path class="st1" d="M214.5,9.9c-0.9,0-1.6-0.7-1.6-1.6c0-0.9,0.7-1.6,1.6-1.6c0.9,0,1.6,0.7,1.6,1.6
			C216.1,9.2,215.4,9.9,214.5,9.9z M213.3,22.3v-8.3l-0.4-2.6l2.7-0.3v11.2H213.3z"/>
		<path class="st1" d="M226.9,21.7c-1.2,0.6-2.2,0.9-3.6,0.9c-3.5,0-5.1-2.2-5.1-5.9c0-3.4,1.9-5.7,4.7-5.7c2.8,0,3.9,1.9,3.9,4.5
			v1.3h-6.3c0.1,2.5,1,3.7,3.2,3.7c1,0,1.6-0.3,2.4-0.6L226.9,21.7z M224.6,15.2c0-1.4-0.5-2.3-1.9-2.3c-1.3,0-2.1,1-2.3,2.3H224.6z
			"/>
		<path class="st1" d="M70.8,41l-7-12.1h0l0.1,11.9h-1.5V26.7h1.9l6.8,11.7h0L71,26.7h1.5v14L70.8,41z"/>
		<path class="st1" d="M84.1,40.3c-1,0.5-2.1,0.8-3.4,0.8c-3.1,0-4.8-2.2-4.8-5.8c0-3.4,1.7-5.7,4.4-5.7c2.5,0,3.6,1.6,3.6,3.9v1.3
			h-6.6c0,3.3,1.1,4.8,3.7,4.8c0.9,0,1.6-0.3,2.4-0.7L84.1,40.3z M82.6,33.8c0-1.8-0.6-2.9-2.2-2.9c-1.5,0-2.5,1.2-2.8,2.9H82.6z"/>
		<path class="st1" d="M93.8,41l-0.2-1.1h0c-0.8,0.7-1.8,1.2-3,1.2c-2.3,0-4-1.9-4-5.2c0-3.7,1.9-6.2,5.2-6.2c0.5,0,0.9,0,1.2,0.1
			c0.2,0,0.3,0.1,0.5,0.1v-2.5l-0.3-2.3l1.8-0.3v13.7l0.3,2.3L93.8,41z M93.5,31.4L93,31.2c-0.4-0.1-0.8-0.2-1.4-0.2
			c-2.3,0-3.5,2-3.5,4.2c0,2.8,0.8,4.5,3,4.5c1,0,1.7-0.4,2.3-0.9V31.4z"/>
		<path class="st1" d="M106.5,40.3c-1,0.5-2.1,0.8-3.4,0.8c-3.1,0-4.8-2.2-4.8-5.8c0-3.4,1.7-5.7,4.4-5.7c2.5,0,3.6,1.6,3.6,3.9v1.3
			h-6.6c0,3.3,1.1,4.8,3.7,4.8c0.9,0,1.6-0.3,2.4-0.7L106.5,40.3z M105,33.8c0-1.8-0.6-2.9-2.2-2.9c-1.5,0-2.5,1.2-2.8,2.9H105z"/>
		<path class="st1" d="M114.3,31.3c-1.2,0-2.2,0.4-3.1,1.1v8.5h-1.5v-8.5l-0.3-2.3l1.5-0.3l0.2,1.5h0c0.8-0.8,1.8-1.5,3.1-1.5V31.3z
			"/>
		<path class="st1" d="M117,40.9V27.4l-0.3-2.3l1.8-0.3v16H117z"/>
		<path class="st1" d="M128.1,41l-0.2-1.3h0c-0.8,0.8-1.7,1.4-3,1.4c-1.9,0-2.9-1.1-2.9-2.8c0-1.9,1.5-2.8,3.8-3.1l2.1-0.2v-1.1
			c0-1.7-0.5-2.8-2.4-2.8c-0.9,0-1.6,0.3-2.3,0.6l-0.5-1.2c0.9-0.5,1.9-0.9,3.2-0.9c2,0,3.5,1.2,3.5,3.4v5.4l0.3,2.3L128.1,41z
			 M127.8,36.1l-2,0.3c-1.6,0.2-2.4,0.7-2.4,1.8c0,1,0.6,1.6,1.6,1.6c1.2,0,2-0.5,2.7-1.2V36.1z"/>
		<path class="st1" d="M140.1,40.9v-7.2c0-1.8-0.6-2.7-2.3-2.7c-1.2,0-1.9,0.5-2.7,1.2v8.7h-1.5v-8.5l-0.3-2.3l1.5-0.3L135,31h0
			c0.9-0.8,1.9-1.4,3.3-1.4c1.9,0,3.3,1.2,3.3,3.4v7.8H140.1z"/>
		<path class="st1" d="M152.2,41l-0.2-1.1h0c-0.8,0.7-1.8,1.2-3,1.2c-2.3,0-4-1.9-4-5.2c0-3.7,1.9-6.2,5.2-6.2c0.5,0,0.9,0,1.2,0.1
			c0.2,0,0.3,0.1,0.5,0.1v-2.5l-0.3-2.3l1.8-0.3v13.7l0.3,2.3L152.2,41z M151.9,31.4l-0.5-0.2c-0.4-0.1-0.8-0.2-1.4-0.2
			c-2.3,0-3.5,2-3.5,4.2c0,2.8,0.8,4.5,3,4.5c1,0,1.7-0.4,2.3-0.9V31.4z"/>
	</g>
</g>
</svg>
