<svg width="320" height="319" fill="none" xmlns="http://www.w3.org/2000/svg"><path fill="#fff" stroke="#F0F0F0" d="M.5.5h319v318H.5z"/><path d="M290.499 293.965h4.56V295h-6.195v-1.005c3.1-2.34 4.65-4.29 4.65-5.85 0-.62-.18-1.095-.54-1.425-.36-.34-.845-.51-1.455-.51-.79 0-1.57.295-2.34.885v-1.185a3.883 3.883 0 0 1 2.445-.825c.88 0 1.62.255 2.22.765.6.51.9 1.235.9 2.175 0 1.77-1.415 3.75-4.245 5.94zm-44.653-6.09V286.6l2.325-1.41h1.11V295h-1.17v-8.52l-2.265 1.395z" fill="#A9ADB5"/><path d="M198.365 287.65v-2.04c.74-.37 1.485-.555 2.235-.555 1.06 0 1.9.255 2.52.765.62.5.93 1.155.93 1.965 0 1.11-.505 1.875-1.515 2.295 1.14.27 1.71 1.01 1.71 2.22 0 .84-.32 1.515-.96 2.025-.63.5-1.515.75-2.655.75-1.07 0-1.955-.17-2.655-.51v-2.1c.8.44 1.625.66 2.475.66.49 0 .87-.105 1.14-.315.28-.21.42-.475.42-.795 0-.73-.675-1.095-2.025-1.095h-.525v-1.8h.525c.53 0 .965-.09 1.305-.27.34-.18.51-.45.51-.81 0-.69-.45-1.035-1.35-1.035-.69 0-1.385.215-2.085.645zm6.561 1.38v-2.235l2.76-1.605h1.89V295h-2.175v-7.455l-2.475 1.485zm-51.813-1.38v-2.04c.74-.37 1.485-.555 2.235-.555 1.06 0 1.9.255 2.52.765.62.5.93 1.155.93 1.965 0 1.11-.505 1.875-1.515 2.295 1.14.27 1.71 1.01 1.71 2.22 0 .84-.32 1.515-.96 2.025-.63.5-1.515.75-2.655.75-1.07 0-1.955-.17-2.655-.51v-2.1c.8.44 1.625.66 2.475.66.49 0 .87-.105 1.14-.315.28-.21.42-.475.42-.795 0-.73-.675-1.095-2.025-1.095h-.525v-1.8h.525c.53 0 .965-.09 1.305-.27.34-.18.51-.45.51-.81 0-.69-.45-1.035-1.35-1.035-.69 0-1.385.215-2.085.645zm6.936 2.4c0-1.56.3-2.795.9-3.705.6-.91 1.49-1.365 2.67-1.365s2.07.455 2.67 1.365c.61.91.915 2.145.915 3.705 0 1.54-.305 2.77-.915 3.69-.6.92-1.49 1.38-2.67 1.38s-2.07-.455-2.67-1.365c-.6-.92-.9-2.155-.9-3.705zm3.57-3.12c-.89 0-1.335 1.04-1.335 3.12s.445 3.12 1.335 3.12c.9 0 1.35-1.04 1.35-3.12s-.45-3.12-1.35-3.12zm-51.865 6.21h3.48V295h-6.54v-1.695c1.08-.74 2.03-1.56 2.85-2.46.83-.9 1.245-1.695 1.245-2.385 0-.42-.125-.75-.375-.99-.25-.25-.63-.375-1.14-.375-.85 0-1.655.315-2.415.945v-2.115c.33-.24.76-.445 1.29-.615a5.09 5.09 0 0 1 1.56-.255c1.02 0 1.83.27 2.43.81.61.53.915 1.275.915 2.235 0 1.73-1.1 3.41-3.3 5.04zm7.814-3.33c.6 0 1.085-.225 1.455-.675-.12-1.42-.6-2.13-1.44-2.13-.39 0-.705.125-.945.375-.23.25-.345.6-.345 1.05 0 .4.115.73.345.99.23.26.54.39.93.39zm-2.805 5.025v-2.07c.52.25 1.035.375 1.545.375.78 0 1.385-.175 1.815-.525.43-.36.71-.92.84-1.68-.43.43-1.08.645-1.95.645-.88 0-1.595-.28-2.145-.84-.54-.57-.81-1.325-.81-2.265 0-.98.305-1.795.915-2.445.62-.65 1.455-.975 2.505-.975 1.17 0 2.085.425 2.745 1.275.67.84 1.005 1.99 1.005 3.45 0 1.79-.425 3.13-1.275 4.02-.85.88-1.985 1.32-3.405 1.32-.68 0-1.275-.095-1.785-.285zm-49.097-1.695h3.48V295h-6.54v-1.695c1.08-.74 2.03-1.56 2.85-2.46.83-.9 1.245-1.695 1.245-2.385 0-.42-.125-.75-.375-.99-.25-.25-.63-.375-1.14-.375-.85 0-1.655.315-2.415.945v-2.115c.33-.24.76-.445 1.29-.615a5.09 5.09 0 0 1 1.56-.255c1.02 0 1.83.27 2.43.81.61.53.915 1.275.915 2.235 0 1.73-1.1 3.41-3.3 5.04zm8.07.27c.46 0 .804-.11 1.034-.33.24-.23.36-.505.36-.825 0-.36-.125-.655-.375-.885-.24-.23-.58-.345-1.02-.345-.45 0-.79.125-1.02.375-.22.25-.33.545-.33.885 0 .31.105.575.315.795.22.22.565.33 1.035.33zm-.016-6.66c-.4 0-.695.115-.885.345-.19.22-.285.49-.285.81 0 .38.115.675.345.885.23.21.52.315.87.315.34 0 .625-.105.855-.315.23-.21.345-.505.345-.885 0-.77-.415-1.155-1.245-1.155zm2.205 3.255c.93.43 1.395 1.185 1.395 2.265 0 .86-.335 1.555-1.005 2.085-.66.53-1.525.795-2.595.795-1.08 0-1.94-.25-2.58-.75-.63-.51-.945-1.195-.945-2.055 0-1.06.475-1.825 1.425-2.295-.85-.49-1.275-1.195-1.275-2.115 0-.92.315-1.635.945-2.145.64-.52 1.45-.78 2.43-.78 1.02 0 1.845.245 2.475.735.64.49.96 1.22.96 2.19 0 .9-.41 1.59-1.23 2.07zM24.15 293.14h3.48V295h-6.54v-1.695c1.08-.74 2.03-1.56 2.85-2.46.83-.9 1.244-1.695 1.244-2.385 0-.42-.125-.75-.375-.99-.25-.25-.63-.375-1.14-.375-.85 0-1.655.315-2.415.945v-2.115c.33-.24.76-.445 1.29-.615a5.09 5.09 0 0 1 1.56-.255c1.02 0 1.83.27 2.43.81.61.53.915 1.275.915 2.235 0 1.73-1.1 3.41-3.3 5.04zm4.304-7.965h6.6v1.86L31.244 295h-2.31l3.825-7.965h-4.305v-1.86z" fill="#333"/><path d="M287.724 256.14h3.48V258h-6.54v-1.695c1.08-.74 2.03-1.56 2.85-2.46.83-.9 1.245-1.695 1.245-2.385 0-.42-.125-.75-.375-.99-.25-.25-.63-.375-1.14-.375-.85 0-1.655.315-2.415.945v-2.115c.33-.24.76-.445 1.29-.615a5.09 5.09 0 0 1 1.56-.255c1.02 0 1.83.27 2.43.81.61.53.915 1.275.915 2.235 0 1.73-1.1 3.41-3.3 5.04zm8.205.21c.39 0 .695-.135.915-.405.22-.27.33-.63.33-1.08 0-.41-.11-.735-.33-.975-.21-.25-.51-.375-.9-.375-.54 0-1.015.215-1.425.645.11 1.46.58 2.19 1.41 2.19zm2.715-8.1v2.025c-.39-.21-.845-.315-1.365-.315-.71 0-1.295.22-1.755.66-.45.43-.755 1.01-.915 1.74.54-.46 1.185-.69 1.935-.69.86 0 1.55.285 2.07.855.53.57.795 1.335.795 2.295 0 .99-.315 1.82-.945 2.49-.62.66-1.47.99-2.55.99-1.21 0-2.125-.43-2.745-1.29-.61-.87-.915-2.035-.915-3.495 0-1.67.455-3.005 1.365-4.005.92-1 2.08-1.5 3.48-1.5.53 0 1.045.08 1.545.24zm-54.641 7.89h3.48V258h-6.54v-1.695c1.08-.74 2.03-1.56 2.85-2.46.83-.9 1.245-1.695 1.245-2.385 0-.42-.125-.75-.375-.99-.25-.25-.63-.375-1.14-.375-.85 0-1.655.315-2.415.945v-2.115c.33-.24.76-.445 1.29-.615a5.09 5.09 0 0 1 1.56-.255c1.02 0 1.83.27 2.43.81.61.53.915 1.275.915 2.235 0 1.73-1.1 3.41-3.3 5.04zm7.079-6.12v1.665c.22-.03.44-.045.66-.045 1.07 0 1.89.275 2.46.825.57.55.855 1.3.855 2.25 0 1.02-.34 1.84-1.02 2.46-.67.61-1.625.915-2.865.915-1.09 0-1.97-.175-2.64-.525v-2.07c.68.42 1.44.63 2.28.63 1.34 0 2.01-.48 2.01-1.44 0-.36-.14-.645-.42-.855-.27-.21-.68-.315-1.23-.315-.77 0-1.51.165-2.22.495v-5.85h5.505v1.86h-3.375zm-51.541 6.12h3.48V258h-6.54v-1.695c1.08-.74 2.03-1.56 2.85-2.46.83-.9 1.245-1.695 1.245-2.385 0-.42-.125-.75-.375-.99-.25-.25-.63-.375-1.14-.375-.85 0-1.655.315-2.415.945v-2.115c.33-.24.76-.445 1.29-.615a5.09 5.09 0 0 1 1.56-.255c1.02 0 1.83.27 2.43.81.61.53.915 1.275.915 2.235 0 1.73-1.1 3.41-3.3 5.04zm6.6-2.085h2.16v-4.44l-2.16 4.44zm5.535 0v1.86h-1.2V258h-2.175v-2.085h-4.305v-1.86l3-5.895h3.48v5.895h1.2zm-55.549 2.085h3.48V258h-6.54v-1.695c1.08-.74 2.03-1.56 2.85-2.46.83-.9 1.245-1.695 1.245-2.385 0-.42-.125-.75-.375-.99-.25-.25-.63-.375-1.14-.375-.85 0-1.655.315-2.415.945v-2.115c.33-.24.76-.445 1.29-.615a5.09 5.09 0 0 1 1.56-.255c1.02 0 1.83.27 2.43.81.61.53.915 1.275.915 2.235 0 1.73-1.1 3.41-3.3 5.04zm4.845-5.49v-2.04c.74-.37 1.485-.555 2.235-.555 1.06 0 1.9.255 2.52.765.62.5.93 1.155.93 1.965 0 1.11-.505 1.875-1.515 2.295 1.14.27 1.71 1.01 1.71 2.22 0 .84-.32 1.515-.96 2.025-.63.5-1.515.75-2.655.75-1.07 0-1.955-.17-2.655-.51v-2.1c.8.44 1.625.66 2.475.66.49 0 .87-.105 1.14-.315.28-.21.42-.475.42-.795 0-.73-.675-1.095-2.025-1.095h-.525v-1.8h.525c.53 0 .965-.09 1.305-.27.34-.18.51-.45.51-.81 0-.69-.45-1.035-1.35-1.035-.69 0-1.385.215-2.085.645zm-48.977 5.49h3.48V258h-6.54v-1.695c1.08-.74 2.03-1.56 2.85-2.46.83-.9 1.245-1.695 1.245-2.385 0-.42-.125-.75-.375-.99-.25-.25-.63-.375-1.14-.375-.85 0-1.655.315-2.415.945v-2.115c.33-.24.76-.445 1.29-.615a5.09 5.09 0 0 1 1.56-.255c1.02 0 1.83.27 2.43.81.61.53.915 1.275.915 2.235 0 1.73-1.1 3.41-3.3 5.04zm7.515 0h3.48V258h-6.54v-1.695c1.08-.74 2.03-1.56 2.85-2.46.83-.9 1.245-1.695 1.245-2.385 0-.42-.125-.75-.375-.99-.25-.25-.63-.375-1.14-.375-.85 0-1.655.315-2.415.945v-2.115c.33-.24.76-.445 1.29-.615a5.09 5.09 0 0 1 1.56-.255c1.02 0 1.83.27 2.43.81.61.53.915 1.275.915 2.235 0 1.73-1.1 3.41-3.3 5.04zm-50.606 0h3.48V258h-6.54v-1.695c1.08-.74 2.03-1.56 2.85-2.46.83-.9 1.245-1.695 1.245-2.385 0-.42-.125-.75-.375-.99-.25-.25-.63-.375-1.14-.375-.85 0-1.655.315-2.415.945v-2.115c.33-.24.76-.445 1.29-.615a5.09 5.09 0 0 1 1.56-.255c1.02 0 1.83.27 2.43.81.61.53.915 1.275.915 2.235 0 1.73-1.1 3.41-3.3 5.04zm4.154-4.11v-2.235l2.76-1.605h1.89V258h-2.175v-7.455l-2.475 1.485zm-49.407 4.11h3.48V258h-6.54v-1.695c1.08-.74 2.03-1.56 2.85-2.46.83-.9 1.245-1.695 1.245-2.385 0-.42-.125-.75-.375-.99-.25-.25-.63-.375-1.14-.375-.85 0-1.655.315-2.415.945v-2.115c.33-.24.76-.445 1.29-.615a5.09 5.09 0 0 1 1.56-.255c1.02 0 1.83.27 2.43.81.61.53.915 1.275.915 2.235 0 1.73-1.1 3.41-3.3 5.04zm4.53-3.09c0-1.56.3-2.795.9-3.705.6-.91 1.49-1.365 2.67-1.365s2.07.455 2.67 1.365c.61.91.915 2.145.915 3.705 0 1.54-.305 2.77-.915 3.69-.6.92-1.49 1.38-2.67 1.38s-2.07-.455-2.67-1.365c-.6-.92-.9-2.155-.9-3.705zm3.57-3.12c-.89 0-1.335 1.04-1.335 3.12s.445 3.12 1.335 3.12c.9 0 1.35-1.04 1.35-3.12s-.45-3.12-1.35-3.12zm253.551-34.9v-2.235l2.76-1.605h1.89V221h-2.175v-7.455l-2.475 1.485zm9.358.78c.6 0 1.085-.225 1.455-.675-.12-1.42-.6-2.13-1.44-2.13-.39 0-.705.125-.945.375-.23.25-.345.6-.345 1.05 0 .4.115.73.345.99.23.26.54.39.93.39zm-2.805 5.025v-2.07c.52.25 1.035.375 1.545.375.78 0 1.385-.175 1.815-.525.43-.36.71-.92.84-1.68-.43.43-1.08.645-1.95.645-.88 0-1.595-.28-2.145-.84-.54-.57-.81-1.325-.81-2.265 0-.98.305-1.795.915-2.445.62-.65 1.455-.975 2.505-.975 1.17 0 2.085.425 2.745 1.275.67.84 1.005 1.99 1.005 3.45 0 1.79-.425 3.13-1.275 4.02-.85.88-1.985 1.32-3.405 1.32-.68 0-1.275-.095-1.785-.285zm-50.641-5.805v-2.235l2.76-1.605h1.89V221h-2.175v-7.455l-2.475 1.485zm9.613 4.38c.46 0 .805-.11 1.035-.33.24-.23.36-.505.36-.825 0-.36-.125-.655-.375-.885-.24-.23-.58-.345-1.02-.345-.45 0-.79.125-1.02.375-.22.25-.33.545-.33.885 0 .31.105.575.315.795.22.22.565.33 1.035.33zm-.015-6.66c-.4 0-.695.115-.885.345-.19.22-.285.49-.285.81 0 .38.115.675.345.885.23.21.52.315.87.315.34 0 .625-.105.855-.315.23-.21.345-.505.345-.885 0-.77-.415-1.155-1.245-1.155zm2.205 3.255c.93.43 1.395 1.185 1.395 2.265 0 .86-.335 1.555-1.005 2.085-.66.53-1.525.795-2.595.795-1.08 0-1.94-.25-2.58-.75-.63-.51-.945-1.195-.945-2.055 0-1.06.475-1.825 1.425-2.295-.85-.49-1.275-1.195-1.275-2.115 0-.92.315-1.635.945-2.145.64-.52 1.45-.78 2.43-.78 1.02 0 1.845.245 2.475.735.64.49.96 1.22.96 2.19 0 .9-.41 1.59-1.23 2.07zm-55.32-.975v-2.235l2.76-1.605h1.89V221h-2.175v-7.455l-2.475 1.485zm5.849-3.855h6.6v1.86l-3.81 7.965h-2.31l3.825-7.965h-4.305v-1.86zm-50.273 3.855v-2.235l2.76-1.605h1.89V221h-2.175v-7.455l-2.475 1.485zm9.748 4.32c.39 0 .695-.135.915-.405.22-.27.33-.63.33-1.08 0-.41-.11-.735-.33-.975-.21-.25-.51-.375-.9-.375-.54 0-1.015.215-1.425.645.11 1.46.58 2.19 1.41 2.19zm2.715-8.1v2.025c-.39-.21-.845-.315-1.365-.315-.71 0-1.295.22-1.755.66-.45.43-.755 1.01-.915 1.74.54-.46 1.185-.69 1.935-.69.86 0 1.55.285 2.07.855.53.57.795 1.335.795 2.295 0 .99-.315 1.82-.945 2.49-.62.66-1.47.99-2.55.99-1.21 0-2.125-.43-2.745-1.29-.61-.87-.915-2.035-.915-3.495 0-1.67.455-3.005 1.365-4.005.92-1 2.08-1.5 3.48-1.5.53 0 1.045.08 1.545.24zm-56.185 3.78v-2.235l2.76-1.605h1.89V221h-2.175v-7.455l-2.475 1.485zm8.623-2.01v1.665c.22-.03.44-.045.66-.045 1.07 0 1.89.275 2.46.825.57.55.855 1.3.855 2.25 0 1.02-.34 1.84-1.02 2.46-.67.61-1.625.915-2.865.915-1.09 0-1.97-.175-2.64-.525v-2.07c.68.42 1.44.63 2.28.63 1.34 0 2.01-.48 2.01-1.44 0-.36-.14-.645-.42-.855-.27-.21-.68-.315-1.23-.315-.77 0-1.51.165-2.22.495v-5.85h5.505v1.86h-3.375zm-53.084 2.01v-2.235l2.76-1.605h1.89V221h-2.175v-7.455l-2.475 1.485zm8.143 2.025h2.16v-4.44l-2.16 4.44zm5.535 0v1.86h-1.2V221h-2.175v-2.085h-4.305v-1.86l3-5.895h3.48v5.895h1.2zm-57.093-2.025v-2.235l2.76-1.605h1.89V221H24.15v-7.455l-2.475 1.485zm6.389-1.38v-2.04c.74-.37 1.485-.555 2.235-.555 1.06 0 1.9.255 2.52.765.62.5.93 1.155.93 1.965 0 1.11-.505 1.875-1.515 2.295 1.14.27 1.71 1.01 1.71 2.22 0 .84-.32 1.515-.96 2.025-.63.5-1.515.75-2.655.75-1.07 0-1.955-.17-2.655-.51v-2.1c.8.44 1.625.66 2.475.66.49 0 .87-.105 1.14-.315.28-.21.42-.475.42-.795 0-.73-.675-1.095-2.025-1.095h-.525v-1.8h.525c.53 0 .965-.09 1.305-.27.34-.18.51-.45.51-.81 0-.69-.45-1.035-1.35-1.035-.69 0-1.385.215-2.085.645z" fill="#1C1B17"/><path fill="#1C336B" d="M142 160h36v36h-36z"/><path d="M285.544 177.03v-2.235l2.76-1.605h1.89V183h-2.175v-7.455l-2.475 1.485zm9.058 4.11h3.48V183h-6.54v-1.695c1.08-.74 2.03-1.56 2.85-2.46.83-.9 1.245-1.695 1.245-2.385 0-.42-.125-.75-.375-.99-.25-.25-.63-.375-1.14-.375-.85 0-1.655.315-2.415.945v-2.115c.33-.24.76-.445 1.29-.615a5.09 5.09 0 0 1 1.56-.255c1.02 0 1.83.27 2.43.81.61.53.915 1.275.915 2.235 0 1.73-1.1 3.41-3.3 5.04zm-52.15-4.11v-2.235l2.76-1.605h1.89V183h-2.175v-7.455l-2.475 1.485zm5.698 0v-2.235l2.76-1.605h1.89V183h-2.175v-7.455l-2.475 1.485zm-50.951 0v-2.235l2.76-1.605h1.89V183h-2.175v-7.455l-2.475 1.485zm6.074 1.02c0-1.56.3-2.795.9-3.705.6-.91 1.49-1.365 2.67-1.365s2.07.455 2.67 1.365c.61.91.915 2.145.915 3.705 0 1.54-.305 2.77-.915 3.69-.6.92-1.49 1.38-2.67 1.38s-2.07-.455-2.67-1.365c-.6-.92-.9-2.155-.9-3.705zm3.57-3.12c-.89 0-1.335 1.04-1.335 3.12s.445 3.12 1.335 3.12c.9 0 1.35-1.04 1.35-3.12s-.45-3.12-1.35-3.12z" fill="#1B2E5C"/><path d="M159.811 177.81c.6 0 1.085-.225 1.455-.675-.12-1.42-.6-2.13-1.44-2.13-.39 0-.705.125-.945.375-.23.25-.345.6-.345 1.05 0 .4.115.73.345.99.23.26.54.39.93.39zm-2.805 5.025v-2.07c.52.25 1.035.375 1.545.375.78 0 1.385-.175 1.815-.525.43-.36.71-.92.84-1.68-.43.43-1.08.645-1.95.645-.88 0-1.595-.28-2.145-.84-.54-.57-.81-1.325-.81-2.265 0-.98.305-1.795.915-2.445.62-.65 1.455-.975 2.505-.975 1.17 0 2.085.425 2.745 1.275.67.84 1.005 1.99 1.005 3.45 0 1.79-.425 3.13-1.275 4.02-.85.88-1.985 1.32-3.405 1.32-.68 0-1.275-.095-1.785-.285z" fill="#fff"/><path d="M115.978 181.41c.46 0 .805-.11 1.035-.33.24-.23.36-.505.36-.825 0-.36-.125-.655-.375-.885-.24-.23-.58-.345-1.02-.345-.45 0-.79.125-1.02.375-.22.25-.33.545-.33.885 0 .31.105.575.315.795.22.22.565.33 1.035.33zm-.015-6.66c-.4 0-.695.115-.885.345-.19.22-.285.49-.285.81 0 .38.115.675.345.885.23.21.52.315.87.315.34 0 .625-.105.855-.315.23-.21.345-.505.345-.885 0-.77-.415-1.155-1.245-1.155zm2.205 3.255c.93.43 1.395 1.185 1.395 2.265 0 .86-.335 1.555-1.005 2.085-.66.53-1.525.795-2.595.795-1.08 0-1.94-.25-2.58-.75-.63-.51-.945-1.195-.945-2.055 0-1.06.475-1.825 1.425-2.295-.85-.49-1.275-1.195-1.275-2.115 0-.92.315-1.635.945-2.145.64-.52 1.45-.78 2.43-.78 1.02 0 1.845.245 2.475.735.64.49.96 1.22.96 2.19 0 .9-.41 1.59-1.23 2.07z" fill="#1C336B"/><path d="M68.697 173.175h6.6v1.86L71.486 183h-2.31L73 175.035h-4.305v-1.86zm-40.525 8.175c.39 0 .695-.135.915-.405.22-.27.33-.63.33-1.08 0-.41-.11-.735-.33-.975-.21-.25-.51-.375-.9-.375-.54 0-1.015.215-1.425.645.11 1.46.58 2.19 1.41 2.19zm2.715-8.1v2.025c-.39-.21-.845-.315-1.365-.315-.71 0-1.295.22-1.755.66-.45.43-.755 1.01-.915 1.74.54-.46 1.185-.69 1.935-.69.86 0 1.55.285 2.07.855.53.57.795 1.335.795 2.295 0 .99-.315 1.82-.945 2.49-.62.66-1.47.99-2.55.99-1.21 0-2.125-.43-2.745-1.29-.61-.87-.915-2.035-.915-3.495 0-1.67.455-3.005 1.365-4.005.92-1 2.08-1.5 3.48-1.5.53 0 1.045.08 1.545.24z" fill="#1B2E5C"/><path d="M291.325 138.02v1.665c.22-.03.44-.045.66-.045 1.07 0 1.89.275 2.46.825.57.55.855 1.3.855 2.25 0 1.02-.34 1.84-1.02 2.46-.67.61-1.625.915-2.865.915-1.09 0-1.97-.175-2.64-.525v-2.07c.68.42 1.44.63 2.28.63 1.34 0 2.01-.48 2.01-1.44 0-.36-.14-.645-.42-.855-.27-.21-.68-.315-1.23-.315-.77 0-1.51.165-2.22.495v-5.85h5.505v1.86h-3.375zm-44.941 4.035h2.16v-4.44l-2.16 4.44zm5.535 0v1.86h-1.2V146h-2.175v-2.085h-4.305v-1.86l3-5.895h3.48v5.895h1.2zm-50.704-3.405v-2.04c.74-.37 1.485-.555 2.235-.555 1.06 0 1.9.255 2.52.765.62.5.93 1.155.93 1.965 0 1.11-.505 1.875-1.515 2.295 1.14.27 1.71 1.01 1.71 2.22 0 .84-.32 1.515-.96 2.025-.63.5-1.515.75-2.655.75-1.07 0-1.955-.17-2.655-.51v-2.1c.8.44 1.625.66 2.475.66.49 0 .87-.105 1.14-.315.28-.21.42-.475.42-.795 0-.73-.675-1.095-2.025-1.095h-.525v-1.8h.525c.53 0 .965-.09 1.305-.27.34-.18.51-.45.51-.81 0-.69-.45-1.035-1.35-1.035-.69 0-1.385.215-2.085.645zm-41.462 5.49h3.48V146h-6.54v-1.695c1.08-.74 2.03-1.56 2.85-2.46.83-.9 1.245-1.695 1.245-2.385 0-.42-.125-.75-.375-.99-.25-.25-.63-.375-1.14-.375-.85 0-1.655.315-2.415.945v-2.115c.33-.24.76-.445 1.29-.615a5.09 5.09 0 0 1 1.56-.255c1.02 0 1.83.27 2.43.81.61.53.915 1.275.915 2.235 0 1.73-1.1 3.41-3.3 5.04zm-46.452-4.11v-2.235l2.76-1.605h1.89V146h-2.175v-7.455l-2.475 1.485z" fill="#1C1B17"/><path d="M65.297 137.795v-1.155c.58-.37 1.25-.555 2.01-.555.97 0 1.72.25 2.25.75.54.49.81 1.1.81 1.83 0 .53-.135 1.005-.405 1.425-.26.42-.65.735-1.17.945.57.13 1.02.395 1.35.795.34.39.51.88.51 1.47 0 .8-.28 1.465-.84 1.995-.56.53-1.35.795-2.37.795-.94 0-1.755-.165-2.445-.495v-1.185a5.1 5.1 0 0 0 2.415.585c.64 0 1.135-.165 1.485-.495.36-.33.54-.76.54-1.29s-.2-.935-.6-1.215c-.39-.29-.955-.435-1.695-.435h-.63v-1.035h.63c.56 0 1.03-.155 1.41-.465.39-.32.585-.745.585-1.275 0-.53-.165-.93-.495-1.2-.33-.27-.785-.405-1.365-.405-.69 0-1.35.205-1.98.615zm6.762 3.27c0-1.54.31-2.755.93-3.645.63-.9 1.455-1.35 2.475-1.35 1.06 0 1.9.45 2.52 1.35.63.89.945 2.105.945 3.645 0 1.53-.3 2.755-.9 3.675-.6.92-1.455 1.38-2.565 1.38-1.03 0-1.855-.46-2.475-1.38-.62-.92-.93-2.145-.93-3.675zm1.86-2.85c-.43.67-.645 1.62-.645 2.85s.21 2.195.63 2.895c.42.69.94 1.035 1.56 1.035.69 0 1.235-.34 1.635-1.02.41-.68.615-1.65.615-2.91 0-1.25-.215-2.205-.645-2.865-.42-.67-.955-1.005-1.605-1.005-.6 0-1.115.34-1.545 1.02zm-51.199 6.75h4.56V146h-6.195v-1.005c3.1-2.34 4.65-4.29 4.65-5.85 0-.62-.18-1.095-.54-1.425-.36-.34-.845-.51-1.455-.51-.79 0-1.57.295-2.34.885v-1.185a3.883 3.883 0 0 1 2.445-.825c.88 0 1.62.255 2.22.765.6.51.9 1.235.9 2.175 0 1.77-1.415 3.75-4.245 5.94zm10.967-4.485v-.075c0-.95-.17-1.725-.51-2.325-.33-.61-.865-.915-1.605-.915-.57 0-1.025.19-1.365.57-.34.38-.51.9-.51 1.56 0 .69.18 1.22.54 1.59.36.37.85.555 1.47.555.82 0 1.48-.32 1.98-.96zm-4.8 5.355v-1.17c.52.23 1.07.345 1.65.345 1.81 0 2.84-1.135 3.09-3.405-.5.59-1.24.885-2.22.885-.8 0-1.49-.29-2.07-.87-.58-.59-.87-1.365-.87-2.325 0-.93.275-1.7.825-2.31.55-.61 1.3-.915 2.25-.915 1.1 0 1.925.41 2.475 1.23.56.82.84 1.855.84 3.105 0 1.78-.36 3.18-1.08 4.2-.71 1.01-1.775 1.515-3.195 1.515-.58 0-1.145-.095-1.695-.285z" fill="#A9ADB5"/><path fill="#F0F0F0" d="M0 111h320v1H0z"/><path d="M288.057 85.265v1.275c-.61-.4-1.34-.6-2.19-.6-.61 0-1.095.145-1.455.435-.36.28-.54.65-.54 1.11 0 .24.045.455.135.645.1.19.27.37.51.54.24.16.445.285.615.375.17.08.435.2.795.36.34.15.6.27.78.36.18.08.41.215.69.405.29.18.505.36.645.54.15.17.28.4.39.69.12.28.18.585.18.915 0 .89-.305 1.58-.915 2.07-.61.48-1.395.72-2.355.72-1.06 0-1.96-.215-2.7-.645v-1.305c.73.55 1.62.825 2.67.825.63 0 1.125-.14 1.485-.42.36-.28.54-.685.54-1.215 0-.22-.045-.415-.135-.585a1.18 1.18 0 0 0-.42-.48 3.25 3.25 0 0 0-.555-.36 8.75 8.75 0 0 0-.975-.48c-.43-.19-.76-.345-.99-.465a7.096 7.096 0 0 1-.795-.525c-.3-.24-.52-.515-.66-.825-.14-.31-.21-.67-.21-1.08 0-.86.305-1.53.915-2.01.62-.49 1.395-.735 2.325-.735.87 0 1.61.155 2.22.465zm6.606 6.225h-1.32c-.64 0-1.12.125-1.44.375-.32.25-.48.565-.48.945s.125.69.375.93c.25.23.615.345 1.095.345.54 0 .97-.15 1.29-.45.32-.31.48-.7.48-1.17v-.975zm-3.93-2.505V87.8c.57-.35 1.32-.525 2.25-.525 1.91 0 2.865.97 2.865 2.91V95h-1.17v-.9c-.39.65-1.1.975-2.13.975-.71 0-1.285-.21-1.725-.63-.43-.42-.645-.95-.645-1.59 0-.73.275-1.295.825-1.695.56-.41 1.32-.615 2.28-.615h1.38v-.39c0-.6-.135-1.05-.405-1.35-.27-.31-.725-.465-1.365-.465-.81 0-1.53.215-2.16.645zm8.853-.63v4.455c0 .81.38 1.215 1.14 1.215.39 0 .735-.115 1.035-.345v1.125c-.33.18-.7.27-1.11.27-1.5 0-2.25-.765-2.25-2.295v-4.425h-1.215v-.96h1.215v-1.89h1.185v1.89h2.1v.96h-2.1zm-52.747-2.4h-4.335v3.585h3.81v1.065h-3.81V95h-1.215V84.89h5.55v1.065zm2.899 1.44v1.335c.4-.94 1.09-1.41 2.07-1.41.18 0 .32.01.42.03v1.17a2.027 2.027 0 0 0-.645-.105c-.53 0-.97.245-1.32.735a2.842 2.842 0 0 0-.525 1.695V95h-1.185l.015-7.605h1.17zM253.52 95v-7.605h1.185V95h-1.185zm.03-9.435a.783.783 0 0 1-.21-.555c0-.22.07-.405.21-.555a.754.754 0 0 1 .555-.225c.22 0 .405.075.555.225.15.15.225.335.225.555 0 .22-.075.405-.225.555a.783.783 0 0 1-.555.21.783.783 0 0 1-.555-.21zm-54.324-.675v1.065h-2.73V95h-1.215v-9.045h-2.73V84.89h6.675zm2.557-.495v4.32c.45-.95 1.25-1.425 2.4-1.425.73 0 1.315.225 1.755.675.45.45.675 1.06.675 1.83V95h-1.185v-4.92c0-.55-.145-.975-.435-1.275-.28-.3-.65-.45-1.11-.45-.56 0-1.05.215-1.47.645-.42.43-.63 1.045-.63 1.845V95h-1.17V84.395h1.17zm11.655 3h1.185V95h-1.185v-1.32c-.4.94-1.195 1.41-2.385 1.41-.75 0-1.345-.22-1.785-.66-.43-.45-.645-1.05-.645-1.8v-5.235h1.185v4.935c0 .55.14.97.42 1.26.28.29.66.435 1.14.435.63 0 1.13-.22 1.5-.66.38-.44.57-1.035.57-1.785v-4.185zm-62.17-2.355h1.215l1.11 3.6 1.53 5.13c.46-2.21.83-3.915 1.11-5.115l.855-3.765h1.23L155.948 95h-1.56l-.975-3.195-1.515-5.055c-.31 1.18-.79 2.865-1.44 5.055L149.513 95h-1.545l-2.64-10.11h1.275l.945 3.75 1.245 5.085a329.7 329.7 0 0 1 1.425-5.085l1.05-3.6zm13.537 5.67v-.3c0-.63-.17-1.13-.51-1.5-.34-.38-.81-.57-1.41-.57-.57 0-1.055.205-1.455.615-.4.41-.635.995-.705 1.755h4.08zm.705 2.79v1.11c-.59.31-1.31.465-2.16.465-1.15 0-2.08-.35-2.79-1.05-.7-.71-1.05-1.645-1.05-2.805 0-1.21.315-2.165.945-2.865.63-.7 1.44-1.05 2.43-1.05.95 0 1.705.305 2.265.915.56.61.84 1.475.84 2.595 0 .32-.025.615-.075.885h-5.19c.09.75.375 1.325.855 1.725.48.4 1.11.6 1.89.6.85 0 1.53-.175 2.04-.525zm5.182.54c.62 0 1.145-.23 1.575-.69.44-.46.66-1.195.66-2.205 0-.96-.225-1.665-.675-2.115-.45-.45-.945-.675-1.485-.675-.63 0-1.155.255-1.575.765-.41.5-.615 1.22-.615 2.16 0 .82.2 1.485.6 1.995.4.51.905.765 1.515.765zm2.235-9.645h1.185V95h-1.185v-1.125c-.54.83-1.32 1.245-2.34 1.245-1.01 0-1.805-.375-2.385-1.125-.57-.75-.855-1.66-.855-2.73 0-1.19.305-2.15.915-2.88.61-.74 1.395-1.11 2.355-1.11.99 0 1.76.425 2.31 1.275v-4.155zm-61.569.495v1.065h-2.73V95h-1.215v-9.045h-2.73V84.89h6.675zm6.111 2.505h1.185V95h-1.185v-1.32c-.4.94-1.195 1.41-2.385 1.41-.75 0-1.345-.22-1.785-.66-.43-.45-.645-1.05-.645-1.8v-5.235h1.185v4.935c0 .55.14.97.42 1.26.28.29.66.435 1.14.435.63 0 1.13-.22 1.5-.66.38-.44.57-1.035.57-1.785v-4.185zm8.221 3.315v-.3c0-.63-.17-1.13-.51-1.5-.34-.38-.81-.57-1.41-.57-.57 0-1.055.205-1.455.615-.4.41-.635.995-.705 1.755h4.08zm.705 2.79v1.11c-.59.31-1.31.465-2.16.465-1.15 0-2.08-.35-2.79-1.05-.7-.71-1.05-1.645-1.05-2.805 0-1.21.315-2.165.945-2.865.63-.7 1.44-1.05 2.43-1.05.95 0 1.705.305 2.265.915.56.61.84 1.475.84 2.595 0 .32-.025.615-.075.885h-5.19c.09.75.375 1.325.855 1.725.48.4 1.11.6 1.89.6.85 0 1.53-.175 2.04-.525zM58.358 95l.735-10.11h1.545l1.335 3.69 1.62 4.71c.58-1.64 1.15-3.21 1.71-4.71l1.395-3.69h1.545L69.128 95h-1.215l-.345-3.99-.36-4.485c-.53 1.48-1.075 2.975-1.635 4.485l-1.41 3.765h-1.155l-1.335-3.765-1.53-4.395c0 .39-.095 1.855-.285 4.395L59.573 95h-1.215zm15.996.135c-1.09 0-1.955-.365-2.595-1.095-.63-.74-.945-1.67-.945-2.79 0-1.13.325-2.07.975-2.82.66-.76 1.515-1.14 2.565-1.14 1.15 0 2.035.37 2.655 1.11.63.74.945 1.68.945 2.82 0 1.13-.32 2.065-.96 2.805-.64.74-1.52 1.11-2.64 1.11zm0-6.795c-.72 0-1.285.28-1.695.84-.41.56-.615 1.245-.615 2.055 0 .79.21 1.465.63 2.025.42.55.98.825 1.68.825.76 0 1.345-.27 1.755-.81.41-.55.615-1.23.615-2.04 0-.84-.195-1.53-.585-2.07-.39-.55-.985-.825-1.785-.825zm6.503-.945v1.32c.45-.95 1.25-1.425 2.4-1.425.74 0 1.33.225 1.77.675.44.45.66 1.05.66 1.8V95h-1.185v-4.92c0-.56-.145-.985-.435-1.275-.28-.3-.65-.45-1.11-.45-.57 0-1.065.22-1.485.66-.41.44-.615 1.05-.615 1.83V95h-1.17v-7.605h1.17zm-58.441-2.13v1.275c-.61-.4-1.34-.6-2.19-.6-.61 0-1.095.145-1.455.435-.36.28-.54.65-.54 1.11 0 .24.045.455.135.645.1.19.27.37.51.54.24.16.445.285.615.375.17.08.435.2.795.36.34.15.6.27.78.36.18.08.41.215.69.405.29.18.505.36.645.54.15.17.28.4.39.69.12.28.18.585.18.915 0 .89-.305 1.58-.915 2.07-.61.48-1.395.72-2.355.72-1.06 0-1.96-.215-2.7-.645v-1.305c.73.55 1.62.825 2.67.825.63 0 1.125-.14 1.485-.42.36-.28.54-.685.54-1.215 0-.22-.045-.415-.135-.585a1.18 1.18 0 0 0-.42-.48 3.25 3.25 0 0 0-.555-.36 8.75 8.75 0 0 0-.975-.48c-.43-.19-.76-.345-.99-.465a7.096 7.096 0 0 1-.795-.525c-.3-.24-.52-.515-.66-.825-.14-.31-.21-.67-.21-1.08 0-.86.305-1.53.915-2.01.62-.49 1.395-.735 2.325-.735.87 0 1.61.155 2.22.465zm7.236 2.13h1.185V95h-1.184v-1.32c-.4.94-1.195 1.41-2.386 1.41-.75 0-1.345-.22-1.784-.66-.43-.45-.646-1.05-.646-1.8v-5.235h1.186v4.935c0 .55.14.97.42 1.26.28.29.66.435 1.14.435.63 0 1.13-.22 1.5-.66.38-.44.57-1.035.57-1.785v-4.185zm4.546 0v1.32c.45-.95 1.25-1.425 2.4-1.425.74 0 1.33.225 1.77.675.44.45.66 1.05.66 1.8V95h-1.185v-4.92c0-.56-.145-.985-.435-1.275-.28-.3-.65-.45-1.11-.45-.57 0-1.065.22-1.485.66-.41.44-.615 1.05-.615 1.83V95h-1.17v-7.605h1.17z" fill="#656B74"/><path d="M296 60.05l6.875-6.875L296 46.3m-272-.35l-6.875 6.875L24 59.7" stroke="#000" stroke-width="1.5"/><path d="M119.247 61l1.392-16.176h4.056l2.256 5.856c.384.976.712 1.872.984 2.688.272.816.448 1.392.528 1.728l.12.48c.256-1.056.816-2.688 1.68-4.896l2.28-5.856h4.056L138.279 61h-3.696l-.6-6.264-.312-4.728c-.416 1.2-.992 2.776-1.728 4.728l-2.28 6.096h-2.184l-2.256-6.096c-.368-.992-.68-1.88-.936-2.664a34.821 34.821 0 0 1-.504-1.632l-.12-.432c0 1.136-.072 2.712-.216 4.728L122.943 61h-3.696zm26.51-6.288h3.888l-.168-.576a224.707 224.707 0 0 1-1.152-4.008c-.288-1.104-.464-1.816-.528-2.136l-.096-.48c-.128.88-.72 3.088-1.776 6.624l-.168.576zm5.76 6.288l-.984-3.312h-5.664L143.885 61h-3.864l5.4-16.176h4.656l5.4 16.176h-3.96zm9.778-13.176v4.56h1.752c1.6 0 2.4-.784 2.4-2.352 0-.688-.208-1.224-.624-1.608-.416-.4-.984-.6-1.704-.6h-1.824zM165.927 61l-3.504-5.616h-1.128V61h-3.696V44.824h5.592c1.808 0 3.256.48 4.344 1.44 1.104.96 1.656 2.208 1.656 3.744 0 2.304-.984 3.896-2.952 4.776L170.343 61h-4.416zm18.366-15.48v3.552c-1.2-.736-2.536-1.104-4.008-1.104-1.296 0-2.384.456-3.264 1.368-.88.896-1.32 2.104-1.32 3.624 0 1.488.44 2.672 1.32 3.552.88.864 2.016 1.296 3.408 1.296 1.504 0 2.792-.384 3.864-1.152v3.624c-.976.608-2.384.912-4.224.912-2.368 0-4.352-.76-5.952-2.28-1.584-1.536-2.376-3.52-2.376-5.952 0-2.464.768-4.472 2.304-6.024 1.552-1.552 3.568-2.328 6.048-2.328 1.824 0 3.224.304 4.2.912zm12.391-.696h3.72V61h-3.72v-6.456h-5.928V61h-3.696V44.824h3.696V51.4h5.928v-6.576zM148.803 25.14h3.48V27h-6.54v-1.695c1.08-.74 2.03-1.56 2.85-2.46.83-.9 1.245-1.695 1.245-2.385 0-.42-.125-.75-.375-.99-.25-.25-.63-.375-1.14-.375-.85 0-1.655.315-2.415.945v-2.115c.33-.24.76-.445 1.29-.615a5.09 5.09 0 0 1 1.56-.255c1.02 0 1.83.27 2.43.81.61.53.915 1.275.915 2.235 0 1.73-1.1 3.41-3.3 5.04zm4.53-3.09c0-1.56.3-2.795.9-3.705.6-.91 1.49-1.365 2.67-1.365s2.07.455 2.67 1.365c.61.91.915 2.145.915 3.705 0 1.54-.305 2.77-.915 3.69-.6.92-1.49 1.38-2.67 1.38s-2.07-.455-2.67-1.365c-.6-.92-.9-2.155-.9-3.705zm3.57-3.12c-.89 0-1.335 1.04-1.335 3.12s.445 3.12 1.335 3.12c.9 0 1.35-1.04 1.35-3.12s-.45-3.12-1.35-3.12zm4.258 2.1v-2.235l2.76-1.605h1.89V27h-2.175v-7.455l-2.475 1.485zm9.358.78c.6 0 1.085-.225 1.455-.675-.12-1.42-.6-2.13-1.44-2.13-.39 0-.705.125-.945.375-.23.25-.345.6-.345 1.05 0 .4.115.73.345.99.23.26.54.39.93.39zm-2.805 5.025v-2.07c.52.25 1.035.375 1.545.375.78 0 1.385-.175 1.815-.525.43-.36.71-.92.84-1.68-.43.43-1.08.645-1.95.645-.88 0-1.595-.28-2.145-.84-.54-.57-.81-1.325-.81-2.265 0-.98.305-1.795.915-2.445.62-.65 1.455-.975 2.505-.975 1.17 0 2.085.425 2.745 1.275.67.84 1.005 1.99 1.005 3.45 0 1.79-.425 3.13-1.275 4.02-.85.88-1.985 1.32-3.405 1.32-.68 0-1.275-.095-1.785-.285z" fill="#000"/></svg>