<svg xmlns="http://www.w3.org/2000/svg" viewBox="0 0 392.4 72.9"><linearGradient id="a" gradientUnits="userSpaceOnUse" x1="196.82" y1="74.914" x2="196.82" y2="-2.086" gradientTransform="matrix(1 0 0 -1 0 57.828)"><stop offset="0" stop-color="#ffd600"/><stop offset="1" stop-color="#ffa800"/></linearGradient><path d="M27.2 58c1.1.8 2 1.7 2.5 2.7.6 1 .8 2 .8 3.1 0 1.8-.7 3.5-2.1 5-1.7 1.9-4.3 2.9-7.7 3-1.9.1-4.5.1-8 .1H1.3v-5.6l.1-9-.1-9.8v-7.6h12.6c3.1 0 5.3.1 6.5.2 1.2.1 2.4.3 3.7.7 1.3.4 2.6 1 3.7 1.9 1.2.8 2.1 1.7 2.7 2.7 1 1.5 1.5 3.2 1.5 5.1 0 1.7-.4 3.2-1.2 4.6-1 1.3-2.1 2.3-3.6 2.9zm-1.8.6c-.7.1-1.3.2-1.9.2-1.2 0-2.2-.2-3-.6-.8-.4-1.1-.9-1.1-1.6 0-.4.1-.5.4-.5.2 0 .4.1.8.2 1.1.5 2.2.8 3.5.8 2.3 0 4-.9 5.2-2.7.8-1.1 1.1-2.4 1.1-3.9 0-2.2-.9-4.1-2.6-5.7-1.2-1.2-2.7-2-4.4-2.5-1.7-.5-3.8-.8-6.4-.8h-1.3l-.1 14.1.1 14.8h2.1c2.3 0 4.1-.1 5.4-.4 1.3-.3 2.4-.7 3.2-1.3 1.8-1.3 2.7-3 2.7-5 0-1-.3-1.9-.9-2.8-.7-.8-1.6-1.6-2.8-2.3zM50 39.9v1.6l-.1 12.8.1 17.6H35.7l.2-19.1-.2-11.7V40H50zm19.9 0l-.1 4.9-.1 7.8v5.7l.1 12.1h1.7l10-.1h1.8c.9 0 1.4.3 1.4.8s-.2.8-.8.8H55.4l.1-8.9V51.3l-.1-9.4v-2h14.5zm32.1 0l-.1 4.9-.1 7.8v5.7l.1 12.1h1.7l10-.1h1.8c.9 0 1.4.3 1.4.8s-.2.8-.8.8H87.6l.1-8.9V51.3l-.1-9.4v-2H102zm32.1 0v1.6l-.1 12.9.1 17.5h-14.3l.2-19.1-.2-11.7V40h14.3zm22.1-1.9L175 71.9h-16.2l-2.2-4.3h-16l-1.5 2.9c-.5.9-.8 1.4-1 1.6-.2.2-.4.3-.7.3-.5 0-.8-.2-.8-.7 0-.2.1-.6.4-1.1.3-.6 1.4-2.4 3.2-5.5l14.2-23.9 1.8-3.2zm-7.3 15.4l-4.1 6.9-3.3 5.7 7 .1 7.1-.1-6.7-12.6zm47.7 13.2c1.5 1 3.1 1.9 4.9 2.6 1.8.7 3.6 1.3 5.6 1.7.5.1.7.3.7.7 0 .5-.4.8-1.1.8-1.6 0-3.9-.7-6.9-2.2-2.5-1.2-5.3-3.1-8.5-5.6v7.3H177v-8.7l.1-9.1V39.9h9.4c4.2 0 7.4.1 9.6.4 2.2.2 4 .7 5.5 1.3 2.5 1 4.4 2.7 5.9 5.1 1.3 2.2 2 4.5 2 6.9 0 2.6-.7 5-2.2 7.2-2.5 3.6-6 5.6-10.7 5.8zm-2.3-1.4h1.1c3.2 0 5.9-.9 8.2-2.7 1.4-1.1 2.5-2.5 3.2-4.2.7-1.5 1.1-3.1 1.1-4.7 0-2.7-.9-5.2-2.7-7.3-1.4-1.7-3.1-2.9-5.1-3.5s-4.9-1.1-8.6-1.1l-.2 15.7v5.3c.9.8 2 1.7 3 2.5zm19.5-25.3h12.3c3.2 0 5.6.2 7.3.5 4 .8 7.3 2.9 9.7 6.4 1.9 2.8 2.9 5.8 2.9 9.1 0 3.4-1 6.5-3 9.3-2.4 3.4-5.5 5.4-9.4 6.3-1 .2-1.9.3-2.7.4-.8 0-2.5.1-5.2.1h-11.9l.1-15.5-.1-16.6zm14.3 1.5l-.1 18.9.1 10.1c2.1 0 3.6-.1 4.5-.2.9-.2 2-.5 3.2-1 2.8-1.2 5-3.1 6.6-5.8 1.4-2.3 2.1-4.8 2.1-7.5 0-2.9-.8-5.6-2.5-8-2.9-4.3-7.2-6.5-13-6.5h-.9zm47.4-.8l-.1 16.6.1 14.1c.8.1 1.5.2 2 .2 1.5 0 3.1-.3 4.7-.8s3-1.3 4.3-2.2c.8-.6 1.6-1.4 2.5-2.4.9-1 1.5-2 2.1-3 .3-.6.6-.8 1-.8.5 0 .8.2.8.7 0 .5-.4 1.3-1.2 2.4-.8 1.1-1.6 2.1-2.5 3-2 1.9-4.4 3.3-7.1 4-1.6.5-3.2.7-4.7.7-2.2 0-4.4-.5-6.6-1.4-3.5-1.5-6.2-3.8-8.1-7.1-1.5-2.7-2.3-5.5-2.3-8.5 0-3.1.8-6 2.4-8.7 1.7-2.9 4.1-5.1 7.2-6.6 2.3-1.1 4.7-1.6 7.3-1.6 4.5 0 8.4 1.5 11.7 4.6 1.6 1.5 2.3 2.5 2.3 3.1 0 .2-.1.3-.2.5-.2.1-.3.2-.5.2-.3 0-.7-.3-1.1-.9-1.3-1.9-3.1-3.3-5.3-4.4-2.2-1.1-4.5-1.6-7-1.6-.6-.3-1.1-.3-1.7-.1zm34.6-.7l-.1 4.9-.1 7.8v5.7l.1 12.1h1.7l10-.1h1.8c.9 0 1.4.3 1.4.8s-.2.8-.8.8h-28.5l.1-8.9V51.3l-.1-9.4v-2h14.5zm29.9 0l-.1 12.1v12.8l.1 6.5c.8.1 1.5.1 2.1.1 5.5 0 9.2-1.3 11-3.8 1-1.3 1.6-3.2 1.9-5.6.3-2.4.5-6.8.5-13.2l-.1-6.2-.1-1.9c0-.8.3-1.2 1-1.2.6 0 .9.4.9 1.2 0 .5 0 1.1-.1 1.9l-.2 9.4c-.1 3.9-.1 6.6-.2 8-.1 1.4-.2 2.7-.5 4-.5 2.5-1.6 4.6-3.4 6.1-2.2 2-6.1 2.9-11.5 2.9-4.8 0-8.3-.6-10.8-1.9-1.9-1-3.3-2.6-4.1-5a9.6 9.6 0 0 1-.6-3.3c-.1-1.1-.1-4.6-.1-10.4l-.1-12.3H340zM387.8 58c1.1.8 2 1.7 2.5 2.7.6 1 .8 2 .8 3.1 0 1.8-.7 3.5-2.1 5-1.7 1.9-4.3 2.9-7.7 3-1.9.1-4.5.1-8 .1h-11.6v-5.6l.1-9-.1-9.8v-7.6h12.6c3.1 0 5.3.1 6.5.2 1.2.1 2.4.3 3.7.7 1.3.4 2.6 1 3.7 1.9 1.2.8 2.1 1.7 2.7 2.7 1 1.5 1.5 3.2 1.5 5.1 0 1.7-.4 3.2-1.2 4.6-.9 1.3-2 2.3-3.4 2.9zm-1.9.6c-.7.1-1.3.2-1.9.2-1.2 0-2.2-.2-3-.6-.8-.4-1.1-.9-1.1-1.6 0-.4.1-.5.4-.5.2 0 .4.1.8.2 1.1.5 2.2.8 3.5.8 2.3 0 4-.9 5.2-2.7.8-1.1 1.1-2.4 1.1-3.9 0-2.2-.9-4.1-2.6-5.7-1.2-1.2-2.7-2-4.4-2.5-1.7-.5-3.8-.8-6.4-.8h-1.3l-.2 14 .1 14.8h2.1c2.3 0 4.1-.1 5.4-.4 1.3-.3 2.4-.7 3.2-1.3 1.8-1.3 2.7-3 2.7-5 0-1-.3-1.9-.9-2.8-.6-.7-1.5-1.5-2.7-2.2z" fill="url(#a)"/><linearGradient id="b" gradientUnits="userSpaceOnUse" x1="194.688" y1="67.914" x2="194.688" y2="-10.086" gradientTransform="matrix(1 0 0 -1 0 57.828)"><stop offset="0" stop-color="#ffd600"/><stop offset="1" stop-color="#ffa800"/></linearGradient><path d="M15.1 2.6L15 19.2l.1 14.1c.8.1 1.5.2 2 .2 1.5 0 3.1-.3 4.7-.8s3-1.3 4.3-2.2c.8-.6 1.6-1.4 2.5-2.4.9-1 1.5-2 2.1-3 .3-.6.6-.8 1-.8.5 0 .8.2.8.7 0 .5-.4 1.3-1.2 2.4-.8 1.1-1.6 2.1-2.5 3-2 1.9-4.4 3.3-7.1 4-1.6.5-3.2.7-4.7.7-2.2 0-4.4-.5-6.6-1.4-3.5-1.5-6.2-3.8-8.1-7.1C.8 23.7 0 20.9 0 17.9c0-3.1.8-6 2.4-8.7 1.7-2.9 4.1-5.1 7.2-6.6C11.9 1.5 14.3 1 16.9 1c4.5 0 8.4 1.5 11.7 4.6C30.2 7 31 8 31 8.7c0 .2-.1.3-.2.5-.2.1-.3.2-.5.2-.3 0-.7-.3-1.1-.9C27.7 6.6 26 5.1 23.8 4s-4.5-1.6-7-1.6c-.6 0-1.1 0-1.7.2zm50.5 10.3V3.4c0-.8.1-1.3.2-1.5.1-.3.4-.4.8-.4.6 0 .9.5.9 1.4v6.8l-.1 8.4.1 8.7v6.1c0 .6-.1.9-.2 1.1-.1.2-.3.3-.7.3-.4 0-.6-.1-.8-.3-.1-.2-.2-.6-.2-1.2v-2l.1-11.8v-4.4h-.9l-4.6-.1-10.1.1v6.5l.1 12.7H35.9l.1-20.3V1.8h14.4V3l-.1 9.8c1.6.1 4.1.2 7.6.2 3 .1 5.7 0 7.7-.1zM89.5 0l18.8 33.9H92l-2.2-4.3h-16l-1.5 2.9c-.5.9-.8 1.4-1 1.6-.2.2-.4.3-.7.3-.5 0-.8-.2-.8-.7 0-.2.1-.6.4-1.1.3-.6 1.4-2.4 3.2-5.5L87.6 3.2 89.5 0zm-7.3 15.4l-4.1 6.9-3.3 5.7 7 .1 7.1-.1-6.7-12.6zm46.4-11.9l-.1 7.3-.1 7 .1 16.1h-14.3l.1-18.7-.1-6.4-.1-5.4-3.1.1-4.4.1h-.7c-.8 0-1.1-.3-1.1-.8s.2-.8.7-.8c.1 0 .5-.1 1.1-.1h28.8c1 0 1.6.1 1.8.1.3.1.5.4.5.8 0 .5-.4.8-1.2.8l-2-.1-5.4-.1h-.5zm33.7 0l-.1 7.3-.1 7 .1 16.1h-14.3l.1-18.7-.1-6.4-.1-5.4-3.1.1-4.4.1h-.7c-.8 0-1.1-.3-1.1-.8s.2-.8.7-.8c.1 0 .5-.1 1.1-.1h28.8c1 0 1.6.1 1.8.1.3.1.5.4.5.8 0 .5-.4.8-1.2.8l-2-.1-5.4-.1h-.5zM188 0l18.8 33.9h-16.2l-2.2-4.3h-16l-1.5 2.9c-.5.9-.8 1.4-1 1.6-.2.2-.4.3-.7.3-.5 0-.8-.2-.8-.7 0-.2.1-.6.4-1.1.3-.6 1.4-2.4 3.2-5.5l14.2-23.9L188 0zm-7.3 15.4l-4.1 6.9-3.3 5.7 7 .1 7.1-.1-6.7-12.6zm57.4 2.1V2.8c0-.8.3-1.3.9-1.3.3 0 .6.1.7.3.1.2.2.6.2 1.1v1.9l-.1 7.9-.1 7.2.1 7.6.1 7.6c-3.2-2-7.9-4.8-14.1-8.3-6.2-3.6-11.2-6.4-15.1-8.4v1.1l.2 12.1v1.6c0 .7-.3 1-.9 1-.6 0-1-.4-1-1.2v-4.2l.1-12-.2-16.2c6.3 3.9 16.1 9.6 29.2 16.9zm23-16.5c2.5 0 4.9.5 7.1 1.6 3.4 1.5 6 3.9 7.7 7.1 1.4 2.6 2.1 5.4 2.1 8.4 0 2.4-.5 4.8-1.6 7.1-1.6 3.4-4.1 6-7.5 7.8-2.5 1.3-5.1 1.9-7.9 1.9-2.9 0-5.7-.7-8.2-2.2-3.5-1.9-5.9-4.7-7.4-8.2-.9-2.1-1.4-4.4-1.4-6.6 0-2.9.7-5.6 2.1-8.2 1.8-3.2 4.3-5.6 7.7-7.1 2.3-1.1 4.7-1.6 7.3-1.6zm-1.9 1.5l-.1 15.3.1 12.7v2.9c.5.1 1 .1 1.5.1 3.5 0 6.5-1 9.3-2.9 2.5-1.8 4.3-4 5.4-6.8.8-1.9 1.2-3.9 1.2-6 0-2.7-.7-5.2-2-7.6-1.6-2.9-3.9-5-6.8-6.4-2.2-1-4.5-1.5-6.9-1.5-.5.1-1.1.1-1.7.2zM298 1c2.5 0 4.9.5 7.1 1.6 3.4 1.5 6 3.9 7.7 7.1 1.4 2.6 2.1 5.4 2.1 8.4 0 2.4-.5 4.8-1.6 7.1-1.6 3.4-4.1 6-7.5 7.8-2.5 1.3-5.1 1.9-7.9 1.9-2.9 0-5.7-.7-8.2-2.2-3.5-1.9-5.9-4.7-7.4-8.2-.9-2.1-1.4-4.4-1.4-6.6 0-2.9.7-5.6 2.1-8.2 1.8-3.2 4.3-5.6 7.7-7.1 2.4-1.1 4.8-1.6 7.3-1.6zm-1.8 1.5l-.2 15.3.1 12.7v2.9c.5.1 1 .1 1.5.1 3.5 0 6.5-1 9.3-2.9 2.5-1.8 4.3-4 5.4-6.8.8-1.9 1.2-3.9 1.2-6 0-2.7-.7-5.2-2-7.6-1.6-2.9-3.9-5-6.8-6.4-2.2-1-4.5-1.5-6.9-1.5-.5.1-1.1.1-1.6.2zM352 17.8c-.1 4.6-1.6 8.5-4.5 11.6-1.6 1.7-3.5 3.1-5.7 4.1-2.2 1-4.5 1.4-6.9 1.4-2.1 0-4.1-.4-6.1-1.2-2-.8-3.8-1.9-5.3-3.3-2-1.8-3.5-4-4.4-6.5-.8-2-1.1-4-1.1-6 0-3.7 1.1-7.1 3.4-10.1 1.6-2.1 3.6-3.8 6-4.9 2.4-1.2 4.9-1.8 7.5-1.8 4.6 0 8.6 1.6 11.9 4.8 1.5 1.4 2.2 2.4 2.2 3 0 .2-.1.4-.3.5-.2.1-.4.2-.6.2-.4 0-.7-.3-1.1-.8-3.1-4.2-7.2-6.3-12.1-6.3-.6 0-1.2 0-1.8.1l-.1 16.5.1 14.1c.6.1 1.2.2 1.8.2 1.8 0 3.5-.3 5.1-.9 4.2-1.5 7.2-4.2 9-8.2.8-1.7 1.2-3.4 1.4-5.1h-12.2c-1.1 0-1.7-.1-1.9-.2-.2-.1-.3-.3-.3-.6 0-.5.4-.8 1.1-.8H352zM370.6 0l18.8 33.9h-16.2l-2.2-4.3h-16.1l-1.5 2.9c-.5.9-.8 1.4-1 1.6-.2.2-.4.3-.7.3-.5 0-.8-.2-.8-.7 0-.2.1-.6.4-1.1.3-.6 1.4-2.4 3.2-5.5l14.2-23.9 1.9-3.2zm-7.3 15.4l-4.1 6.9L356 28l7 .1 7-.1-6.7-12.6z" fill="url(#b)"/></svg>