<?xml version="1.0" standalone="no"?>
<!DOCTYPE svg PUBLIC "-//W3C//DTD SVG 20010904//EN"
 "http://www.w3.org/TR/2001/REC-SVG-20010904/DTD/svg10.dtd">
<svg version="1.0" xmlns="http://www.w3.org/2000/svg"
 width="512.000000pt" height="512.000000pt" viewBox="0 0 512.000000 512.000000"
 preserveAspectRatio="xMidYMid meet">
<metadata>
Created by potrace 1.14, written by Peter Selinger 2001-2017
</metadata>
<g transform="translate(0.000000,512.000000) scale(0.100000,-0.100000)"
fill="#000000" stroke="none">
<path d="M2760 5063 c-52 -31 -135 -79 -185 -108 -701 -404 -1232 -712 -1328
-769 -43 -25 -80 -46 -82 -46 -3 0 -45 -25 -96 -55 -50 -30 -93 -55 -95 -55
-2 0 -48 -27 -103 -59 -55 -33 -117 -69 -138 -80 -21 -12 -56 -32 -78 -46 -22
-14 -47 -28 -55 -32 -13 -6 -83 -46 -487 -281 l-113 -65 0 -1734 0 -1733 2557
2 2558 3 0 713 0 712 -25 1 c-14 0 -832 0 -1817 1 -1655 0 -1793 1 -1794 17
-1 21 -1 1182 0 1198 1 12 29 30 179 114 20 12 75 44 122 72 47 27 101 59 120
70 50 28 338 194 520 300 85 50 173 100 195 113 22 12 87 49 144 82 l104 61
41 -23 c44 -25 450 -251 551 -306 33 -18 94 -52 135 -75 41 -23 100 -55 130
-72 30 -16 219 -121 420 -233 201 -111 383 -213 405 -225 22 -12 87 -48 145
-79 58 -32 164 -91 235 -131 72 -40 144 -79 160 -88 l30 -15 0 828 c0 456 -2
830 -5 833 -3 2 -57 32 -120 67 -63 35 -128 71 -145 80 -16 9 -142 79 -280
155 -137 76 -266 147 -285 158 -46 26 -400 222 -470 260 -30 16 -104 58 -165
92 -60 34 -141 79 -178 99 -37 20 -84 46 -105 58 -40 23 -188 104 -267 148
-27 15 -92 51 -143 79 -50 28 -93 51 -95 50 -1 0 -45 -25 -97 -56z"/>
</g>
</svg>
