<svg width="40" height="40" viewBox="0 0 40 40" fill="none" xmlns="http://www.w3.org/2000/svg">
<path d="M37.9154 17.5C37.9154 15.6621 36.42 14.1666 34.582 14.1666H23.21L24.8845 8.7254C25.2775 7.44831 25.0479 6.09956 24.2537 5.02456C23.4595 3.94956 22.2383 3.33331 20.902 3.33331H20.7266C19.7 3.33331 18.7625 3.97706 18.3929 4.93581L16.2579 10.4883C15.3629 12.8146 13.927 14.895 12.082 16.5596V15.8333C12.082 14.4546 10.9608 13.3333 9.58203 13.3333H4.58203C3.20328 13.3333 2.08203 14.4546 2.08203 15.8333V34.1667C2.08203 35.5454 3.20328 36.6667 4.58203 36.6667H9.58203C10.9608 36.6667 12.082 35.5454 12.082 34.1667V33.1025L13.5945 33.9667C15.7312 35.1879 18.1616 35.8333 20.6229 35.8333H29.582C31.42 35.8333 32.9154 34.3379 32.9154 32.5C32.9154 31.8129 32.7062 31.1742 32.3487 30.6429C33.647 30.1871 34.582 28.9521 34.582 27.5C34.582 26.8129 34.3729 26.1742 34.0154 25.6429C35.3137 25.1871 36.2487 23.9521 36.2487 22.5C36.2487 21.8129 36.0395 21.1741 35.682 20.6429C36.9804 20.1871 37.9154 18.9521 37.9154 17.5ZM10.4154 34.1667C10.4154 34.6262 10.0416 35 9.58203 35H4.58203C4.12245 35 3.7487 34.6262 3.7487 34.1667V15.8333C3.7487 15.3737 4.12245 15 4.58203 15H9.58203C10.0416 15 10.4154 15.3737 10.4154 15.8333V34.1667ZM34.582 19.1666H28.7487C28.2887 19.1666 27.9154 19.54 27.9154 20C27.9154 20.46 28.2887 20.8333 28.7487 20.8333H32.9154C33.8345 20.8333 34.582 21.5808 34.582 22.5C34.582 23.4191 33.8345 24.1667 32.9154 24.1667H27.9154C27.4554 24.1667 27.082 24.54 27.082 25C27.082 25.46 27.4554 25.8333 27.9154 25.8333H31.2487C32.1679 25.8333 32.9154 26.5808 32.9154 27.5C32.9154 28.4192 32.1679 29.1667 31.2487 29.1667H27.082C26.622 29.1667 26.2487 29.54 26.2487 30C26.2487 30.46 26.622 30.8333 27.082 30.8333H29.582C30.5012 30.8333 31.2487 31.5808 31.2487 32.5C31.2487 33.4192 30.5012 34.1667 29.582 34.1667H20.6229C18.4512 34.1667 16.307 33.5975 14.4212 32.52L12.082 31.1833V18.7337L12.4116 18.47C14.8325 16.5337 16.7004 13.9808 17.8137 11.0866L19.9487 5.53415C20.072 5.21498 20.3845 4.99998 20.7266 4.99998H20.902C21.7037 4.99998 22.437 5.36998 22.9133 6.01498C23.3895 6.65998 23.5275 7.46915 23.2916 8.2354L21.6166 13.6771C21.4595 14.1879 21.552 14.7275 21.8691 15.1575C22.1875 15.5866 22.6762 15.8333 23.2104 15.8333H34.582C35.5012 15.8333 36.2487 16.5808 36.2487 17.5C36.2487 18.4191 35.5012 19.1666 34.582 19.1666Z" fill="#F68E5F"/>
</svg>
