<svg width="292" height="202" viewBox="0 0 292 202" fill="none" xmlns="http://www.w3.org/2000/svg">
<path d="M67.9408 87.7284H190.393C191.749 87.7284 192.98 88.3444 192.98 89.2067C192.98 90.069 191.872 90.685 190.393 90.685H77.057C72.6221 90.685 69.0495 94.2576 69.0495 98.6925V174.209C69.0495 174.579 69.0495 175.071 69.1727 175.441H68.064C67.9408 175.441 67.8176 175.441 67.6944 175.441C65.6001 175.195 63.9986 173.47 63.9986 171.376V91.9169C63.7523 89.5763 65.6001 87.7284 67.9408 87.7284Z" fill="#BDDEFE"/>
<path d="M191.381 94.5039H76.9359C74.5952 94.5039 72.8705 96.3518 72.8705 98.5693V178.028C72.8705 180.122 74.472 181.97 76.5663 182.093C72.7473 181.847 69.6676 179.013 69.1748 175.318C69.0516 174.948 69.0516 174.579 69.0516 174.086V98.6924C69.0516 94.2575 72.6242 90.685 77.0591 90.685H190.396C191.751 90.685 192.983 90.069 192.983 89.2067C192.983 88.3443 191.874 87.7284 190.396 87.7284H67.9429C65.6022 87.7284 63.8775 89.5762 63.8775 91.7937V171.252C63.8775 173.347 65.479 175.195 67.5733 175.318C63.3848 175.071 60.0586 171.622 60.0586 167.433V91.9169C60.0586 87.482 63.6312 83.9094 68.0661 83.9094H191.381C196.309 83.9094 200.374 86.2501 200.374 89.2067C200.374 90.685 199.389 92.0401 197.787 92.9024C196.062 93.888 193.845 94.5039 191.381 94.5039Z" fill="#BDDEFE"/>
<path d="M200.251 89.2068V176.919C200.251 179.876 196.186 182.217 191.258 182.217H76.9364C76.8132 182.217 76.69 182.217 76.5668 182.217C74.4726 181.97 72.8711 180.246 72.8711 178.151V98.6926C72.8711 96.4751 74.719 94.6272 76.9364 94.6272H191.382C193.845 94.6272 196.063 94.0113 197.664 93.1489C199.266 92.0402 200.251 90.6851 200.251 89.2068Z" fill="white"/>
<path d="M191.383 182.586H76.9381C76.6917 182.586 76.4453 182.34 76.4453 182.093C76.4453 181.847 76.6917 181.601 76.9381 181.601H191.383C196.065 181.601 199.883 179.506 199.883 176.796V89.2068C199.883 88.9604 200.13 88.714 200.376 88.714C200.623 88.714 200.869 88.9604 200.869 89.2068V176.919C200.746 180.122 196.68 182.586 191.383 182.586Z" fill="#2191FB"/>
<path d="M76.5747 182.586C76.4515 182.586 76.4515 182.586 76.5747 182.586C74.234 182.34 72.3862 180.369 72.3862 178.028V98.6924C72.3862 96.1054 74.4804 94.1343 76.9443 94.1343H191.389C193.73 94.1343 195.824 93.6415 197.549 92.656C199.151 91.7936 199.89 90.5617 199.89 89.3298C199.89 86.6196 196.071 84.5253 191.389 84.5253H67.9513C63.7627 84.5253 60.4366 87.8515 60.4366 92.04V167.557C60.4366 171.499 63.5164 174.825 67.5817 175.071C67.8281 175.071 68.0745 175.318 68.0745 175.564C68.0745 175.81 67.8281 176.057 67.5817 176.057C63.1468 175.81 59.5742 172.115 59.5742 167.68V91.9168C59.5742 87.2355 63.3932 83.5398 67.9513 83.5398H191.389C196.563 83.5398 200.752 86.1268 200.752 89.3298C200.752 90.9313 199.766 92.4096 197.919 93.3951C196.194 94.3807 193.853 94.9966 191.389 94.9966H76.9443C74.9732 94.9966 73.2485 96.5981 73.2485 98.6924V178.028C73.2485 179.876 74.6036 181.477 76.5747 181.724C76.8211 181.724 77.0674 181.97 76.9443 182.216C76.9443 182.463 76.6979 182.586 76.5747 182.586Z" fill="#2191FB"/>
<path d="M76.9378 182.586C76.8146 182.586 76.5682 182.586 76.4451 182.586C72.6261 182.34 69.4231 179.629 68.684 175.81H67.9448C67.8216 175.81 67.5752 175.81 67.4521 175.81C65.1114 175.564 63.3867 173.593 63.3867 171.252V91.9169C63.3867 89.3298 65.481 87.3588 67.9448 87.3588H190.397C192.122 87.3588 193.354 88.2211 193.354 89.3298C193.354 90.4386 191.999 91.3009 190.397 91.3009H77.061C72.8725 91.3009 69.5463 94.6271 69.5463 98.8156V174.332C69.5463 174.702 69.5463 175.071 69.6695 175.441C70.1623 178.89 73.1189 181.6 76.6914 181.724C76.8146 181.724 76.9378 181.724 77.061 181.724C77.3074 181.724 77.5538 181.97 77.5538 182.216C77.5538 182.463 77.1842 182.586 76.9378 182.586ZM67.9448 88.2211C65.9737 88.2211 64.2491 89.8226 64.2491 91.9169V171.376C64.2491 173.223 65.6042 174.825 67.5752 175.071C67.6984 175.071 67.8216 175.071 67.9448 175.071H68.5608C68.5608 174.825 68.5608 174.579 68.5608 174.332V98.6924C68.5608 94.0111 72.3797 90.3154 76.9378 90.3154H190.274C191.506 90.3154 192.369 89.8226 192.369 89.3298C192.369 88.8371 191.506 88.3443 190.274 88.3443H67.9448V88.2211Z" fill="#2191FB"/>
<path d="M184.489 91.178H77.8053C77.5589 91.178 77.3125 90.9317 77.3125 90.6853C77.3125 90.4389 77.5589 90.1925 77.8053 90.1925H184.489C184.736 90.1925 184.982 90.4389 184.982 90.6853C184.982 90.9317 184.736 91.178 184.489 91.178Z" fill="#2191FB"/>
<path d="M159.23 179.752V187.144C159.23 189.238 170.318 190.84 183.992 190.84C197.666 190.84 208.754 189.238 208.754 187.144V179.752H159.23Z" fill="#FDDECF"/>
<path d="M202.237 174.086H201.867V192.934H202.237V174.086Z" fill="#F68E5F"/>
<path d="M206.788 174.086H206.418V192.934H206.788V174.086Z" fill="#F68E5F"/>
<path d="M183.998 191.333C173.897 191.333 158.867 190.224 158.867 187.144V179.753C158.867 179.506 159.114 179.26 159.36 179.26H208.637C208.883 179.26 209.129 179.506 209.129 179.753V187.144C209.129 190.224 194.1 191.333 183.998 191.333ZM159.73 180.245V187.144C159.73 188.253 168.107 190.347 183.998 190.347C199.89 190.347 208.267 188.253 208.267 187.144V180.245H159.73Z" fill="#F68E5F"/>
<path d="M208.636 179.753C208.636 181.847 197.549 183.448 183.875 183.448C170.201 183.448 159.113 181.847 159.113 179.753C159.113 177.658 170.201 176.057 183.875 176.057C197.549 176.057 208.636 177.782 208.636 179.753Z" fill="white"/>
<path d="M183.998 183.941C173.897 183.941 158.867 182.832 158.867 179.753C158.867 176.673 173.897 175.564 183.998 175.564C194.1 175.564 209.129 176.673 209.129 179.753C209.129 182.832 194.1 183.941 183.998 183.941ZM183.998 176.55C168.107 176.55 159.73 178.644 159.73 179.753C159.73 180.861 168.107 182.956 183.998 182.956C199.89 182.956 208.267 180.861 208.267 179.753C208.267 178.644 199.89 176.55 183.998 176.55Z" fill="#F68E5F"/>
<path d="M203.589 179.383C203.589 180.492 194.72 181.478 183.879 181.478C173.038 181.478 164.168 180.615 164.168 179.383C164.168 178.275 173.038 177.289 183.879 177.289C194.843 177.289 203.589 178.275 203.589 179.383Z" fill="#FDDECF"/>
<path d="M184 181.847C181.906 181.847 163.797 181.724 163.797 179.383C163.797 176.919 181.906 176.919 184 176.919C186.095 176.919 204.204 177.043 204.204 179.383C204.081 181.847 185.971 181.847 184 181.847ZM164.906 179.383C166.138 180.122 173.036 180.985 184 180.985C194.964 180.985 201.863 180.122 203.095 179.383C201.863 178.644 194.964 177.782 184 177.782C172.913 177.782 166.014 178.644 164.906 179.383Z" fill="#F68E5F"/>
<path d="M159.23 170.76V178.151C159.23 180.245 170.318 181.847 183.992 181.847C197.666 181.847 208.754 180.245 208.754 178.151V170.76H159.23Z" fill="#FDDECF"/>
<path d="M202.237 165.093H201.867V183.941H202.237V165.093Z" fill="#F68E5F"/>
<path d="M206.788 165.093H206.418V183.941H206.788V165.093Z" fill="#F68E5F"/>
<path d="M183.998 182.34C173.897 182.34 158.867 181.231 158.867 178.151V170.76C158.867 170.513 159.114 170.267 159.36 170.267H208.637C208.883 170.267 209.129 170.513 209.129 170.76V178.151C209.129 181.231 194.1 182.34 183.998 182.34ZM159.73 171.252V178.151C159.73 179.26 168.107 181.354 183.998 181.354C199.89 181.354 208.267 179.26 208.267 178.151V171.252H159.73Z" fill="#F68E5F"/>
<path d="M208.636 170.759C208.636 172.854 197.549 174.455 183.875 174.455C170.201 174.455 159.113 172.854 159.113 170.759C159.113 168.665 170.201 167.064 183.875 167.064C197.549 167.064 208.636 168.788 208.636 170.759Z" fill="white"/>
<path d="M183.998 174.948C173.897 174.948 158.867 173.839 158.867 170.759C158.867 167.68 173.897 166.571 183.998 166.571C194.1 166.571 209.129 167.68 209.129 170.759C209.129 173.839 194.1 174.948 183.998 174.948ZM183.998 167.556C168.107 167.556 159.73 169.651 159.73 170.759C159.73 171.868 168.107 173.962 183.998 173.962C199.89 173.962 208.267 171.868 208.267 170.759C208.267 169.651 199.89 167.556 183.998 167.556Z" fill="#F68E5F"/>
<path d="M203.589 170.39C203.589 171.499 194.72 172.485 183.879 172.485C173.038 172.485 164.168 171.622 164.168 170.39C164.168 169.282 173.038 168.296 183.879 168.296C194.843 168.419 203.589 169.282 203.589 170.39Z" fill="#FDDECF"/>
<path d="M184 172.854C181.906 172.854 163.797 172.731 163.797 170.39C163.797 167.926 181.906 167.926 184 167.926C186.095 167.926 204.204 168.049 204.204 170.39C204.081 172.854 185.971 172.854 184 172.854ZM164.906 170.39C166.138 171.129 173.036 171.992 184 171.992C194.964 171.992 201.863 171.129 203.095 170.39C201.863 169.651 194.964 168.789 184 168.789C172.913 168.789 166.014 169.774 164.906 170.39Z" fill="#F68E5F"/>
<path d="M159.23 161.89V169.282C159.23 171.376 170.318 172.977 183.992 172.977C197.666 172.977 208.754 171.376 208.754 169.282V161.89H159.23Z" fill="#FDDECF"/>
<path d="M202.237 156.223H201.867V175.071H202.237V156.223Z" fill="#F68E5F"/>
<path d="M206.788 156.223H206.418V175.071H206.788V156.223Z" fill="#F68E5F"/>
<path d="M183.998 173.347C173.897 173.347 158.867 172.238 158.867 169.158V161.767C158.867 161.52 159.114 161.274 159.36 161.274H208.637C208.883 161.274 209.129 161.52 209.129 161.767V169.158C209.129 172.238 194.1 173.347 183.998 173.347ZM159.73 162.26V169.158C159.73 170.267 168.107 172.361 183.998 172.361C199.89 172.361 208.267 170.267 208.267 169.158V162.26H159.73Z" fill="#F68E5F"/>
<path d="M208.636 161.89C208.636 163.984 197.549 165.586 183.875 165.586C170.201 165.586 159.113 163.984 159.113 161.89C159.113 159.796 170.201 158.194 183.875 158.194C197.549 158.194 208.636 159.796 208.636 161.89Z" fill="white"/>
<path d="M183.998 165.955C173.897 165.955 158.867 164.847 158.867 161.767C158.867 158.687 173.897 157.578 183.998 157.578C194.1 157.578 209.129 158.687 209.129 161.767C209.129 164.847 194.1 165.955 183.998 165.955ZM183.998 158.564C168.107 158.564 159.73 160.658 159.73 161.767C159.73 162.876 168.107 164.97 183.998 164.97C199.89 164.97 208.267 162.876 208.267 161.767C208.267 160.658 199.89 158.564 183.998 158.564Z" fill="#F68E5F"/>
<path d="M203.589 161.397C203.589 162.506 194.72 163.491 183.879 163.491C173.038 163.491 164.168 162.629 164.168 161.397C164.168 160.288 173.038 159.303 183.879 159.303C194.843 159.426 203.589 160.288 203.589 161.397Z" fill="#FDDECF"/>
<path d="M184 163.984C181.906 163.984 163.797 163.861 163.797 161.52C163.797 159.18 181.906 159.057 184 159.057C186.095 159.057 204.204 159.18 204.204 161.52C204.204 163.861 185.971 163.984 184 163.984ZM164.906 161.397C166.138 162.136 173.036 162.999 184 162.999C194.964 162.999 201.863 162.136 203.095 161.397C201.863 160.658 194.964 159.796 184 159.796C172.913 159.919 166.014 160.781 164.906 161.397Z" fill="#F68E5F"/>
<path d="M159.23 152.897V160.288C159.23 162.383 170.318 163.984 183.992 163.984C197.666 163.984 208.754 162.383 208.754 160.288V152.897H159.23Z" fill="#FDDECF"/>
<path d="M183.998 164.354C173.897 164.354 158.867 163.245 158.867 160.165V152.774C158.867 152.527 159.114 152.281 159.36 152.281H208.637C208.883 152.281 209.129 152.527 209.129 152.774V160.165C209.129 163.245 194.1 164.354 183.998 164.354ZM159.73 153.266V160.165C159.73 161.274 168.107 163.368 183.998 163.368C199.89 163.368 208.267 161.274 208.267 160.165V153.266H159.73Z" fill="#F68E5F"/>
<path d="M208.636 152.897C208.636 154.991 197.549 156.593 183.875 156.593C170.201 156.593 159.113 154.991 159.113 152.897C159.113 150.803 170.201 149.201 183.875 149.201C197.549 149.201 208.636 150.803 208.636 152.897Z" fill="white"/>
<path d="M183.998 156.962C173.897 156.962 158.867 155.854 158.867 152.774C158.867 149.694 173.897 148.585 183.998 148.585C194.1 148.585 209.129 149.694 209.129 152.774C209.129 155.854 194.1 156.962 183.998 156.962ZM183.998 149.694C168.107 149.694 159.73 151.788 159.73 152.897C159.73 154.006 168.107 156.1 183.998 156.1C199.89 156.1 208.267 154.006 208.267 152.897C208.144 151.788 199.89 149.694 183.998 149.694Z" fill="#F68E5F"/>
<path d="M203.589 152.404C203.589 153.513 194.72 154.498 183.879 154.498C173.038 154.498 164.168 153.636 164.168 152.404C164.168 151.295 173.038 150.31 183.879 150.31C194.843 150.433 203.589 151.295 203.589 152.404Z" fill="#FDDECF"/>
<path d="M184 154.991C181.906 154.991 163.797 154.868 163.797 152.527C163.797 150.063 181.906 150.063 184 150.063C186.095 150.063 204.204 150.187 204.204 152.527C204.081 154.868 185.971 154.991 184 154.991ZM164.906 152.404C166.138 153.143 173.036 154.005 184 154.005C194.964 154.005 201.863 153.143 203.095 152.404C201.863 151.665 194.964 150.802 184 150.802C172.913 150.926 166.014 151.788 164.906 152.404Z" fill="#F68E5F"/>
<path d="M159.23 143.904V151.295C159.23 153.39 170.318 154.991 183.992 154.991C197.666 154.991 208.754 153.39 208.754 151.295V143.904H159.23Z" fill="#FDDECF"/>
<path d="M183.998 155.484C173.897 155.484 158.867 154.375 158.867 151.296V143.904C158.867 143.658 159.114 143.411 159.36 143.411H208.637C208.883 143.411 209.129 143.658 209.129 143.904V151.296C209.129 154.375 194.1 155.484 183.998 155.484ZM159.73 144.397V151.296C159.73 152.404 168.107 154.499 183.998 154.499C199.89 154.499 208.267 152.404 208.267 151.296V144.397H159.73Z" fill="#F68E5F"/>
<path d="M208.636 143.904C208.636 145.998 197.549 147.6 183.875 147.6C170.201 147.6 159.113 145.998 159.113 143.904C159.113 141.81 170.201 140.208 183.875 140.208C197.549 140.208 208.636 141.81 208.636 143.904Z" fill="white"/>
<path d="M183.998 148.092C173.897 148.092 158.867 146.984 158.867 143.904C158.867 140.824 173.897 139.715 183.998 139.715C194.1 139.715 209.129 140.824 209.129 143.904C209.129 146.984 194.1 148.092 183.998 148.092ZM183.998 140.701C168.107 140.701 159.73 142.795 159.73 143.904C159.73 145.013 168.107 147.107 183.998 147.107C199.89 147.107 208.267 145.013 208.267 143.904C208.267 142.795 199.89 140.701 183.998 140.701Z" fill="#F68E5F"/>
<path d="M203.589 143.535C203.589 144.643 194.72 145.629 183.879 145.629C173.038 145.629 164.168 144.766 164.168 143.535C164.168 142.426 173.038 141.44 183.879 141.44C194.843 141.44 203.589 142.303 203.589 143.535Z" fill="#FDDECF"/>
<path d="M184 145.998C181.906 145.998 163.797 145.875 163.797 143.534C163.797 141.071 181.906 141.071 184 141.071C186.095 141.071 204.204 141.194 204.204 143.534C204.081 145.875 185.971 145.998 184 145.998ZM164.906 143.534C166.138 144.274 173.036 145.136 184 145.136C194.964 145.136 201.863 144.274 203.095 143.534C201.863 142.795 194.964 141.933 184 141.933C173.036 141.933 166.014 142.795 164.906 143.534Z" fill="#F68E5F"/>
<path d="M159.23 134.911V142.302C159.23 144.397 170.318 145.998 183.992 145.998C197.666 145.998 208.754 144.397 208.754 142.302V134.911H159.23Z" fill="#FDDECF"/>
<path d="M183.998 146.491C173.897 146.491 158.867 145.382 158.867 142.302V134.911C158.867 134.664 159.114 134.418 159.36 134.418H208.637C208.883 134.418 209.129 134.664 209.129 134.911V142.302C209.129 145.382 194.1 146.491 183.998 146.491ZM159.73 135.404V142.302C159.73 143.411 168.107 145.505 183.998 145.505C199.89 145.505 208.267 143.411 208.267 142.302V135.404H159.73Z" fill="#F68E5F"/>
<path d="M208.636 134.911C208.636 137.005 197.549 138.606 183.875 138.606C170.201 138.606 159.113 137.005 159.113 134.911C159.113 132.816 170.201 131.215 183.875 131.215C197.549 131.215 208.636 132.94 208.636 134.911Z" fill="white"/>
<path d="M183.998 139.099C173.897 139.099 158.867 137.99 158.867 134.911C158.867 131.831 173.897 130.722 183.998 130.722C194.1 130.722 209.129 131.831 209.129 134.911C209.129 137.99 194.1 139.099 183.998 139.099ZM183.998 131.708C168.107 131.708 159.73 133.802 159.73 134.911C159.73 136.019 168.107 138.114 183.998 138.114C199.89 138.114 208.267 136.019 208.267 134.911C208.267 133.802 199.89 131.708 183.998 131.708Z" fill="#F68E5F"/>
<path d="M203.589 134.542C203.589 135.65 194.72 136.636 183.879 136.636C173.038 136.636 164.168 135.773 164.168 134.542C164.168 133.433 173.038 132.447 183.879 132.447C194.843 132.447 203.589 133.433 203.589 134.542Z" fill="#FDDECF"/>
<path d="M184 137.005C181.906 137.005 163.797 136.882 163.797 134.541C163.797 132.078 181.906 132.078 184 132.078C186.095 132.078 204.204 132.201 204.204 134.541C204.081 136.882 185.971 137.005 184 137.005ZM164.906 134.541C166.138 135.281 173.036 136.143 184 136.143C194.964 136.143 201.863 135.281 203.095 134.541C201.863 133.802 194.964 132.94 184 132.94C173.036 132.94 166.014 133.802 164.906 134.541Z" fill="#F68E5F"/>
<path d="M200.742 189.608V196.999C200.742 199.094 211.829 200.695 225.504 200.695C239.178 200.695 250.265 199.094 250.265 196.999V189.608H200.742Z" fill="#FDDECF"/>
<path d="M225.385 201.065C215.283 201.065 200.254 199.956 200.254 196.876V189.485C200.254 189.239 200.5 188.992 200.747 188.992H250.147C250.393 188.992 250.639 189.239 250.639 189.485V196.876C250.639 199.956 235.487 201.065 225.385 201.065ZM201.116 189.978V196.876C201.116 197.985 209.493 200.079 225.385 200.079C241.277 200.079 249.654 197.985 249.654 196.876V189.978H201.116Z" fill="#F68E5F"/>
<path d="M250.148 189.608C250.148 191.702 239.061 193.304 225.387 193.304C211.712 193.304 200.625 191.702 200.625 189.608C200.625 187.514 211.712 185.912 225.387 185.912C239.061 185.912 250.148 187.514 250.148 189.608Z" fill="white"/>
<path d="M225.385 193.673C215.283 193.673 200.254 192.565 200.254 189.485C200.254 186.405 215.283 185.296 225.385 185.296C235.487 185.296 250.516 186.405 250.516 189.485C250.639 192.565 235.487 193.673 225.385 193.673ZM225.385 186.282C209.493 186.282 201.116 188.376 201.116 189.485C201.116 190.594 209.493 192.688 225.385 192.688C241.277 192.688 249.654 190.594 249.654 189.485C249.654 188.376 241.277 186.282 225.385 186.282Z" fill="#F68E5F"/>
<path d="M245.093 189.115C245.093 190.224 236.223 191.21 225.383 191.21C214.542 191.21 205.672 190.347 205.672 189.115C205.672 188.007 214.542 187.021 225.383 187.021C236.223 187.144 245.093 188.007 245.093 189.115Z" fill="#FDDECF"/>
<path d="M225.383 191.702C223.289 191.702 205.18 191.579 205.18 189.239C205.18 186.775 223.289 186.775 225.383 186.775C227.477 186.775 245.587 186.898 245.587 189.239C245.587 191.579 227.477 191.702 225.383 191.702ZM206.288 189.115C207.52 189.855 214.419 190.717 225.383 190.717C236.347 190.717 243.246 189.855 244.478 189.115C243.246 188.376 236.347 187.514 225.383 187.514C214.419 187.637 207.52 188.499 206.288 189.115Z" fill="#F68E5F"/>
<path d="M200.742 180.615V188.006C200.742 190.101 211.829 191.702 225.504 191.702C239.178 191.702 250.265 190.101 250.265 188.006V180.615H200.742Z" fill="#FDDECF"/>
<path d="M225.385 192.072C215.283 192.072 200.254 190.963 200.254 187.883V180.492C200.254 180.246 200.5 179.999 200.747 179.999H250.147C250.393 179.999 250.639 180.246 250.639 180.492V187.883C250.639 190.963 235.487 192.072 225.385 192.072ZM201.116 180.985V187.883C201.116 188.992 209.493 191.086 225.385 191.086C241.277 191.086 249.654 188.992 249.654 187.883V180.985H201.116Z" fill="#F68E5F"/>
<path d="M250.148 180.615C250.148 182.709 239.061 184.311 225.387 184.311C211.712 184.311 200.625 182.709 200.625 180.615C200.625 178.521 211.712 176.919 225.387 176.919C239.061 176.919 250.148 178.521 250.148 180.615Z" fill="white"/>
<path d="M225.385 184.68C215.283 184.68 200.254 183.572 200.254 180.492C200.254 177.412 215.283 176.303 225.385 176.303C235.487 176.303 250.516 177.412 250.516 180.492C250.639 183.572 235.487 184.68 225.385 184.68ZM225.385 177.412C209.493 177.412 201.116 179.506 201.116 180.615C201.116 181.724 209.493 183.818 225.385 183.818C241.277 183.818 249.654 181.724 249.654 180.615C249.654 179.506 241.277 177.412 225.385 177.412Z" fill="#F68E5F"/>
<path d="M245.093 180.122C245.093 181.231 236.223 182.217 225.383 182.217C214.542 182.217 205.672 181.354 205.672 180.122C205.672 179.014 214.542 178.028 225.383 178.028C236.223 178.151 245.093 179.014 245.093 180.122Z" fill="#FDDECF"/>
<path d="M225.383 182.709C223.289 182.709 205.18 182.586 205.18 180.246C205.18 177.782 223.289 177.782 225.383 177.782C227.477 177.782 245.587 177.905 245.587 180.246C245.587 182.586 227.477 182.709 225.383 182.709ZM206.288 180.122C207.52 180.862 214.419 181.724 225.383 181.724C236.347 181.724 243.246 180.862 244.478 180.122C243.246 179.383 236.347 178.521 225.383 178.521C214.419 178.644 207.52 179.506 206.288 180.122Z" fill="#F68E5F"/>
<path d="M200.742 171.622V179.014C200.742 181.108 211.829 182.709 225.504 182.709C239.178 182.709 250.265 181.108 250.265 179.014V171.622H200.742Z" fill="#FDDECF"/>
<path d="M225.385 183.202C215.283 183.202 200.254 182.093 200.254 179.014V171.622C200.254 171.376 200.5 171.129 200.747 171.129H250.147C250.393 171.129 250.639 171.376 250.639 171.622V179.014C250.639 182.093 235.487 183.202 225.385 183.202ZM201.116 172.115V179.014C201.116 180.122 209.493 182.217 225.385 182.217C241.277 182.217 249.654 180.122 249.654 179.014V172.115H201.116Z" fill="#F68E5F"/>
<path d="M250.148 171.622C250.148 173.716 239.061 175.318 225.387 175.318C211.712 175.318 200.625 173.716 200.625 171.622C200.625 169.528 211.712 167.926 225.387 167.926C239.061 167.926 250.148 169.528 250.148 171.622Z" fill="white"/>
<path d="M225.385 175.811C215.283 175.811 200.254 174.702 200.254 171.622C200.254 168.542 215.283 167.434 225.385 167.434C235.487 167.434 250.516 168.542 250.516 171.622C250.516 174.702 235.487 175.811 225.385 175.811ZM225.385 168.419C209.493 168.419 201.116 170.513 201.116 171.622C201.116 172.731 209.493 174.825 225.385 174.825C241.277 174.825 249.654 172.731 249.654 171.622C249.654 170.513 241.277 168.419 225.385 168.419Z" fill="#F68E5F"/>
<path d="M245.093 171.253C245.093 172.361 236.223 173.347 225.383 173.347C214.542 173.347 205.672 172.484 205.672 171.253C205.672 170.144 214.542 169.158 225.383 169.158C236.223 169.158 245.093 170.021 245.093 171.253Z" fill="#FDDECF"/>
<path d="M225.383 173.716C223.289 173.716 205.18 173.593 205.18 171.252C205.18 168.789 223.289 168.789 225.383 168.789C227.477 168.789 245.587 168.912 245.587 171.252C245.587 173.593 227.477 173.716 225.383 173.716ZM206.288 171.252C207.52 171.992 214.419 172.854 225.383 172.854C236.347 172.854 243.246 171.992 244.478 171.252C243.246 170.513 236.347 169.651 225.383 169.651C214.419 169.651 207.52 170.513 206.288 171.252Z" fill="#F68E5F"/>
<path d="M200.742 162.629V170.02C200.742 172.114 211.829 173.716 225.504 173.716C239.178 173.716 250.265 172.114 250.265 170.02V162.629H200.742Z" fill="#FDDECF"/>
<path d="M225.385 174.209C215.283 174.209 200.254 173.1 200.254 170.02V162.629C200.254 162.382 200.5 162.136 200.747 162.136H250.147C250.393 162.136 250.639 162.382 250.639 162.629V170.02C250.639 173.1 235.487 174.209 225.385 174.209ZM201.116 163.122V170.02C201.116 171.129 209.493 173.223 225.385 173.223C241.277 173.223 249.654 171.129 249.654 170.02V163.122H201.116Z" fill="#F68E5F"/>
<path d="M250.148 162.629C250.148 164.723 239.061 166.325 225.387 166.325C211.712 166.325 200.625 164.723 200.625 162.629C200.625 160.535 211.712 158.933 225.387 158.933C239.061 158.933 250.148 160.535 250.148 162.629Z" fill="white"/>
<path d="M225.385 166.817C215.283 166.817 200.254 165.709 200.254 162.629C200.254 159.549 215.283 158.44 225.385 158.44C235.487 158.44 250.516 159.549 250.516 162.629C250.639 165.709 235.487 166.817 225.385 166.817ZM225.385 159.426C209.493 159.426 201.116 161.52 201.116 162.629C201.116 163.738 209.493 165.832 225.385 165.832C241.277 165.832 249.654 163.738 249.654 162.629C249.654 161.52 241.277 159.426 225.385 159.426Z" fill="#F68E5F"/>
<path d="M245.093 162.26C245.093 163.368 236.223 164.354 225.383 164.354C214.542 164.354 205.672 163.492 205.672 162.26C205.672 161.151 214.542 160.165 225.383 160.165C236.223 160.165 245.093 161.151 245.093 162.26Z" fill="#FDDECF"/>
<path d="M225.383 164.723C223.289 164.723 205.18 164.6 205.18 162.259C205.18 159.796 223.289 159.796 225.383 159.796C227.477 159.796 245.587 159.919 245.587 162.259C245.587 164.6 227.477 164.723 225.383 164.723ZM206.288 162.259C207.52 162.999 214.419 163.861 225.383 163.861C236.347 163.861 243.246 162.999 244.478 162.259C243.246 161.52 236.347 160.658 225.383 160.658C214.419 160.658 207.52 161.52 206.288 162.259Z" fill="#F68E5F"/>
<path d="M291.659 162.752C291.536 162.752 291.536 162.752 291.413 162.629L288.21 159.426C288.086 159.303 288.086 159.057 288.21 158.933C288.333 158.81 288.579 158.81 288.702 158.933L291.905 162.136C292.029 162.26 292.029 162.506 291.905 162.629C291.905 162.752 291.782 162.752 291.659 162.752Z" fill="#F68E5F"/>
<path d="M288.456 162.752C288.333 162.752 288.333 162.752 288.21 162.629C288.086 162.506 288.086 162.26 288.21 162.136L291.413 158.933C291.536 158.81 291.782 158.81 291.905 158.933C292.029 159.057 292.029 159.303 291.905 159.426L288.702 162.629C288.702 162.752 288.579 162.752 288.456 162.752Z" fill="#F68E5F"/>
<path d="M201.487 11.7191C201.364 11.7191 201.364 11.7191 201.241 11.5959L197.792 7.28419C197.668 7.161 197.668 7.03781 197.792 7.03781C197.792 6.91461 197.915 6.91461 198.038 6.79142L203.458 5.92908C203.582 5.92908 203.705 5.92908 203.705 6.05227C203.828 6.17546 203.828 6.29865 203.705 6.29865L201.734 11.4727C201.734 11.5959 201.611 11.7191 201.487 11.7191ZM198.531 7.40738L201.364 10.8567L202.966 6.66823L198.531 7.40738Z" fill="#2191FB"/>
<path d="M90.3624 6.54514C90.2392 6.54514 90.2392 6.54514 90.116 6.42195L86.6666 2.11024C86.5434 1.98705 86.5434 1.86385 86.6666 1.86385C86.6666 1.74066 86.7898 1.74066 86.913 1.61747L92.3334 0.755127C92.4566 0.755127 92.5798 0.755127 92.5798 0.878319C92.703 1.00151 92.703 1.1247 92.5798 1.1247L90.6087 6.29876C90.6087 6.42195 90.4856 6.54514 90.3624 6.54514ZM87.4058 2.23343L90.2392 5.6828L91.8407 1.49428L87.4058 2.23343Z" fill="#2191FB"/>
<path d="M44.6678 63.3364C43.6823 63.3364 43.1895 62.9668 42.6967 62.5973C42.204 62.2277 41.8344 61.9813 41.0952 61.9813C40.2329 61.9813 39.8633 62.2277 39.4937 62.5973C39.001 62.9668 38.5082 63.3364 37.5227 63.3364C36.5371 63.3364 36.0444 62.9668 35.5516 62.5973C35.0588 62.2277 34.6893 61.9813 33.9501 61.9813C33.211 61.9813 32.7182 62.2277 32.3486 62.5973C31.8558 62.9668 31.3631 63.3364 30.3775 63.3364C29.392 63.3364 28.8992 62.9668 28.4065 62.5973C27.9137 62.2277 27.5441 61.9813 26.805 61.9813C26.6818 61.9813 26.5586 61.8581 26.5586 61.7349C26.5586 61.6117 26.6818 61.4885 26.805 61.4885C27.7905 61.4885 28.2833 61.8581 28.776 62.2277C29.2688 62.5972 29.6384 62.8436 30.3775 62.8436C31.2399 62.8436 31.6095 62.5972 31.979 62.2277C32.4718 61.8581 32.9646 61.4885 33.9501 61.4885C34.9356 61.4885 35.4284 61.8581 35.9212 62.2277C36.4139 62.5972 36.7835 62.8436 37.5227 62.8436C38.385 62.8436 38.7546 62.5972 39.1242 62.2277C39.6169 61.8581 40.1097 61.4885 41.0952 61.4885C42.0808 61.4885 42.5735 61.8581 43.0663 62.2277C43.5591 62.5972 43.9286 62.8436 44.6678 62.8436C45.4069 62.8436 45.8997 62.5972 46.2693 62.2277C46.7621 61.8581 47.2548 61.4885 48.2404 61.4885C48.3635 61.4885 48.4867 61.6117 48.4867 61.7349C48.4867 61.8581 48.3635 61.9813 48.2404 61.9813C47.378 61.9813 47.0084 62.2277 46.6389 62.5973C46.2693 62.9668 45.6533 63.3364 44.6678 63.3364Z" fill="#0CCA4A"/>
<path d="M281.078 195.029C280.092 195.029 279.6 194.659 279.107 194.289C278.614 193.92 278.245 193.673 277.505 193.673C276.643 193.673 276.273 193.92 275.904 194.289C275.411 194.659 274.918 195.029 273.933 195.029C272.947 195.029 272.455 194.659 271.962 194.289C271.469 193.92 271.099 193.673 270.36 193.673C269.621 193.673 269.128 193.92 268.759 194.289C268.266 194.659 267.773 195.029 266.788 195.029C265.802 195.029 265.309 194.659 264.817 194.289C264.324 193.92 263.954 193.673 263.215 193.673C263.092 193.673 262.969 193.55 262.969 193.427C262.969 193.304 263.092 193.181 263.215 193.181C264.201 193.181 264.693 193.55 265.186 193.92C265.679 194.289 266.049 194.536 266.788 194.536C267.65 194.536 268.02 194.289 268.389 193.92C268.882 193.55 269.375 193.181 270.36 193.181C271.346 193.181 271.839 193.55 272.331 193.92C272.824 194.289 273.194 194.536 273.933 194.536C274.795 194.536 275.165 194.289 275.534 193.92C276.027 193.55 276.52 193.181 277.505 193.181C278.491 193.181 278.984 193.55 279.476 193.92C279.969 194.289 280.339 194.536 281.078 194.536C281.94 194.536 282.31 194.289 282.679 193.92C283.172 193.55 283.665 193.181 284.65 193.181C284.774 193.181 284.897 193.304 284.897 193.427C284.897 193.55 284.774 193.673 284.65 193.673C283.788 193.673 283.419 193.92 283.049 194.289C282.679 194.659 282.063 195.029 281.078 195.029Z" fill="#2191FB"/>
<path d="M18.9217 168.05C17.9362 168.05 17.4434 167.68 16.9506 167.311C16.4579 166.941 16.0883 166.695 15.3491 166.695C14.4868 166.695 14.1172 166.941 13.7476 167.311C13.2549 167.68 12.7621 168.05 11.7766 168.05C10.791 168.05 10.2983 167.68 9.8055 167.311C9.31273 166.941 8.94316 166.695 8.20401 166.695C7.34167 166.695 6.97209 166.941 6.60251 167.311C6.10975 167.68 5.61698 168.05 4.63145 168.05C3.64591 168.05 3.15314 167.68 2.66038 167.311C2.16761 166.941 1.79803 166.695 1.05888 166.695C0.935692 166.695 0.8125 166.571 0.8125 166.448C0.8125 166.325 0.935692 166.202 1.05888 166.202C2.04442 166.202 2.53719 166.571 3.02995 166.941C3.52272 167.311 3.8923 167.557 4.63145 167.557C5.49379 167.557 5.86336 167.311 6.23294 166.941C6.72571 166.571 7.21847 166.202 8.20401 166.202C9.18954 166.202 9.68231 166.571 10.1751 166.941C10.6678 167.311 11.0374 167.557 11.7766 167.557C12.6389 167.557 13.0085 167.311 13.3781 166.941C13.8708 166.571 14.3636 166.202 15.3491 166.202C16.3347 166.202 16.8274 166.571 17.3202 166.941C17.813 167.311 18.1825 167.557 18.9217 167.557C19.784 167.557 20.1536 167.311 20.5232 166.941C21.016 166.571 21.5087 166.202 22.4943 166.202C22.6174 166.202 22.7406 166.325 22.7406 166.448C22.7406 166.571 22.6174 166.695 22.4943 166.695C21.6319 166.695 21.2623 166.941 20.8928 167.311C20.4 167.68 19.9072 168.05 18.9217 168.05Z" fill="#0CCA4A"/>
<path d="M36.8983 120.497H36.7751L35.9128 120.005C33.6953 118.649 33.6953 117.541 33.6953 117.171C33.6953 116.678 33.9417 116.186 34.1881 115.816C34.9272 115.077 36.1591 115.077 36.7751 115.816C37.1447 115.447 37.6375 115.323 38.1302 115.323C39.1158 115.323 39.9781 116.186 39.9781 117.171C39.9781 117.541 39.9781 118.649 37.8838 120.005L37.0215 120.497C37.0215 120.497 37.0215 120.497 36.8983 120.497ZM35.5432 115.693C35.1736 115.693 34.9272 115.816 34.6808 116.062C34.4345 116.309 34.3113 116.555 34.3113 116.925C34.3113 117.294 34.3113 118.034 36.1591 119.265L36.8983 119.758L37.6375 119.265C39.4853 118.034 39.4853 117.171 39.4853 116.925C39.4853 116.186 38.8694 115.693 38.2534 115.693C37.8838 115.693 37.3911 115.939 37.2679 116.309C37.2679 116.432 37.1447 116.432 37.0215 116.432C36.8983 116.432 36.7751 116.432 36.7751 116.309C36.4055 115.939 36.036 115.693 35.5432 115.693Z" fill="#2191FB"/>
<mask id="mask0_251_244" style="mask-type:alpha" maskUnits="userSpaceOnUse" x="52" y="2" width="138" height="89">
<rect x="52.832" y="2.35596" width="136.548" height="88.1212" fill="#C4C4C4"/>
</mask>
<g mask="url(#mask0_251_244)">
<path d="M132.126 157.701C126.952 158.687 122.025 155.237 121.162 150.063L99.4807 32.908C98.4951 27.7339 101.945 22.8062 107.119 21.9439L159.845 12.2118C165.019 11.2262 169.946 14.6756 170.809 19.8496L192.49 137.128C193.476 142.302 190.027 147.23 184.853 148.092L132.126 157.701Z" fill="#B7F0C9"/>
<path d="M130.405 158.317C128.434 158.317 126.463 157.701 124.739 156.593C122.521 155.114 121.043 152.774 120.55 150.187L98.9915 33.0311C98.006 27.6107 101.579 22.4366 106.999 21.4511L159.725 11.719C165.146 10.7334 170.32 14.306 171.305 19.7264L192.987 137.005C193.972 142.425 190.4 147.6 184.979 148.585L132.253 158.317C131.637 158.317 131.021 158.317 130.405 158.317ZM161.45 12.4581C160.957 12.4581 160.341 12.4581 159.848 12.5813L107.122 22.3135C102.195 23.1758 98.9915 27.8571 99.8539 32.7848L121.536 150.063C122.028 152.404 123.26 154.498 125.231 155.853C127.202 157.208 129.666 157.701 132.007 157.332L184.733 147.6C189.661 146.737 192.864 142.056 192.001 137.128L170.32 19.8496C169.58 15.5379 165.761 12.4581 161.45 12.4581Z" fill="#0CCA4A"/>
<path d="M166.012 22.8062C165.396 19.3568 162.07 17.1393 158.621 17.7553L110.083 26.6251C106.634 27.2411 104.416 30.5672 105.032 34.0166L125.852 147.107C126.468 150.556 129.794 152.773 133.243 152.158L181.781 143.165C185.23 142.549 187.448 139.222 186.832 135.773L166.012 22.8062Z" fill="#0CCA4A"/>
<path d="M130.411 136.759L112.918 42.1475C118.092 41.1619 121.418 36.2343 120.556 31.1834L150.491 25.6398C151.477 30.8138 156.405 34.14 161.456 33.2777L178.949 127.766C173.775 128.751 170.449 133.679 171.311 138.73L141.375 144.273C140.513 139.099 135.462 135.773 130.411 136.759Z" fill="#B7F0C9"/>
<path d="M166.872 81.0759C164.777 69.4959 153.69 61.858 142.11 64.0755C130.53 66.1697 122.892 77.257 125.11 88.837C127.204 100.417 138.291 108.055 149.871 105.837C161.328 103.743 168.966 92.656 166.872 81.0759ZM137.798 88.221L134.103 88.837L133.487 85.634L137.182 84.8949C137.059 82.6774 137.675 80.46 138.661 78.6121L142.233 79.7208C141.001 81.6919 140.509 84.5253 140.878 86.25C141.125 87.6051 141.741 88.3442 142.726 88.221C145.683 87.7283 142.233 79.1049 148.27 77.9961C150.857 77.5034 152.951 78.9817 154.06 81.8151L157.632 81.1991L158.248 84.4021L154.799 85.0181C154.922 87.1123 154.676 89.2066 153.937 90.8081L150.241 89.8225C150.98 87.8515 151.226 85.5108 150.98 84.0325C150.734 82.9238 150.241 82.3078 149.378 82.431C146.422 82.9238 149.748 91.5472 143.712 92.7791C140.878 93.3951 138.784 91.3008 137.798 88.221Z" fill="#0CCA4A"/>
<path d="M140.267 54.2202C136.078 54.9594 132.013 52.2491 131.274 48.0606C130.535 43.8721 133.245 39.8068 137.433 39.0676C141.622 38.3285 145.687 41.0387 146.426 45.2272C147.289 49.4157 144.455 53.3579 140.267 54.2202Z" fill="#0CCA4A"/>
<path d="M132.627 156.716C127.7 158.564 122.279 155.977 120.431 151.172L78.9157 39.3141C77.0678 34.3864 79.6548 28.966 84.4593 27.1181L134.722 8.51614C139.649 6.66826 145.07 9.25529 146.918 14.0598L188.433 125.918C190.281 130.846 187.694 136.266 182.89 138.114L132.627 156.716Z" fill="#B7F0C9"/>
<path d="M129.297 157.825C127.942 157.825 126.464 157.578 125.108 156.962C122.645 155.854 120.92 153.882 119.934 151.419L78.542 39.5605C76.6941 34.3864 79.2811 28.7196 84.332 26.8717L134.594 8.26975C139.768 6.42187 145.435 9.0089 147.406 14.0598L188.922 125.918C190.77 131.092 188.183 136.759 183.132 138.73L132.87 157.332C131.638 157.578 130.529 157.825 129.297 157.825ZM138.044 8.39294C137.058 8.39294 135.949 8.51613 134.964 9.0089L84.7016 27.6109C80.0203 29.3355 77.6796 34.5096 79.4043 39.1909L120.92 151.049C121.782 153.266 123.384 155.114 125.601 156.1C127.819 157.085 130.283 157.209 132.5 156.346L182.762 137.744C187.444 136.02 189.784 130.846 188.059 126.164L146.544 14.3061C145.189 10.6104 141.739 8.39294 138.044 8.39294Z" fill="#0CCA4A"/>
<path d="M142.731 17.8787C141.5 14.6757 137.927 12.951 134.601 14.183L88.4039 31.4298C85.2009 32.6617 83.4762 36.2343 84.7081 39.5605L124.745 147.476C125.977 150.679 129.55 152.404 132.876 151.172L179.196 134.049C182.399 132.817 184.124 129.244 182.892 125.918L142.731 17.8787Z" fill="#0CCA4A"/>
<path d="M127.325 136.266L93.8164 46.2127C98.7441 44.3648 101.208 38.9444 99.36 34.0167L127.941 23.4222C129.788 28.3499 135.209 30.8137 140.137 28.9659L173.521 119.142C168.594 120.99 166.13 126.411 167.978 131.338L139.397 141.933C137.673 137.005 132.129 134.541 127.325 136.266Z" fill="#B7F0C9"/>
<path d="M153.567 75.2862C149.501 64.3222 137.305 58.6553 126.218 62.7207C115.377 66.786 109.71 78.982 113.776 90.0693C117.841 101.033 130.037 106.7 141.124 102.635C152.088 98.4463 157.632 86.2503 153.567 75.2862ZM126.218 87.359L122.769 88.591L121.66 85.5112L125.232 84.156C124.74 81.9386 124.986 79.5979 125.602 77.7501L129.298 78.1196C128.435 80.3371 128.435 83.1705 129.051 84.8952C129.544 86.1271 130.283 86.8663 131.269 86.4967C134.102 85.388 129.298 77.5037 134.965 75.4094C137.428 74.5471 139.769 75.6558 141.371 78.2428L144.82 77.0109L145.929 80.0907L142.602 81.3226C143.095 83.2937 143.218 85.5112 142.726 87.2358L138.907 86.8663C139.276 84.772 139.153 82.4314 138.66 81.0763C138.291 79.9675 137.552 79.4748 136.812 79.7211C133.979 80.7067 138.784 88.7141 132.993 90.8084C130.16 91.7939 127.696 90.1924 126.218 87.359Z" fill="#0CCA4A"/>
<path d="M122.772 53.235C118.83 54.7133 114.395 52.7422 112.917 48.6769C111.438 44.7348 113.533 40.2999 117.475 38.8216C121.417 37.3433 125.852 39.3143 127.33 43.3797C128.808 47.3218 126.837 51.7567 122.772 53.235Z" fill="#0CCA4A"/>
<path d="M132.87 155.607C128.435 158.194 122.522 156.716 119.935 152.158L59.9403 49.2926C57.3533 44.8577 58.8316 38.9445 63.3897 36.3575L109.587 9.25527C114.022 6.66825 119.935 8.14655 122.522 12.7046L182.639 115.693C185.226 120.128 183.748 126.041 179.19 128.628L132.87 155.607Z" fill="#B7F0C9"/>
<path d="M128.195 157.455C127.332 157.455 126.47 157.332 125.608 157.085C123.021 156.469 120.926 154.745 119.571 152.527L59.4536 49.5389C58.0984 47.1983 57.7289 44.6112 58.468 42.0242C59.2072 39.4372 60.8087 37.3429 63.0261 35.9878L109.346 9.00882C114.028 6.2986 120.187 7.90009 122.897 12.5814L183.015 115.57C185.725 120.251 184.124 126.411 179.442 129.121L133.122 156.1C131.644 156.962 129.919 157.455 128.195 157.455ZM114.274 8.51605C112.796 8.51605 111.194 8.88562 109.716 9.74797L63.5189 36.727C61.4246 37.9589 59.9463 39.93 59.3304 42.2706C58.7144 44.6112 59.084 47.0751 60.1927 49.0461L120.31 152.034C121.542 154.129 123.513 155.607 125.854 156.223C128.195 156.839 130.658 156.469 132.629 155.361L178.95 128.382C183.261 125.918 184.74 120.374 182.153 116.062L122.158 12.951C120.433 10.1175 117.477 8.51605 114.274 8.51605Z" fill="#0CCA4A"/>
<path d="M119.074 17.1394C117.349 14.1828 113.407 13.0741 110.45 14.922L67.7029 39.8067C64.7463 41.5314 63.6376 45.4735 65.4854 48.4301L123.509 147.846C125.233 150.802 129.176 151.911 132.132 150.063L174.757 125.179C177.713 123.454 178.822 119.512 176.974 116.555L119.074 17.1394Z" fill="#0CCA4A"/>
<path d="M124.129 136.389L75.7148 53.3579C80.2729 50.7709 81.7512 44.9809 79.1642 40.4228L105.527 25.0238C108.114 29.5819 113.904 31.0602 118.462 28.4732L166.754 111.504C162.195 114.091 160.717 119.881 163.304 124.44L137.064 139.839C134.477 135.28 128.687 133.802 124.129 136.389Z" fill="#B7F0C9"/>
<path d="M105.534 55.4519C101.838 57.5462 97.157 56.3143 94.9395 52.7417C92.8453 49.0459 94.0772 44.3647 97.7729 42.1472C101.469 40.0529 106.15 41.2849 108.367 44.8574C110.339 48.5532 109.107 53.2345 105.534 55.4519Z" fill="#0CCA4A"/>
</g>
</svg>
