<svg width="35" height="35" viewBox="0 0 35 35" fill="none" xmlns="http://www.w3.org/2000/svg">
<path d="M29.1654 33.0834C30.5231 33.0834 31.6237 31.9827 31.6237 30.625C31.6237 29.2673 30.5231 28.1667 29.1654 28.1667C27.8077 28.1667 26.707 29.2673 26.707 30.625C26.707 31.9827 27.8077 33.0834 29.1654 33.0834Z" stroke="#F68E5F" stroke-width="2" stroke-linecap="round" stroke-linejoin="round"/>
<path d="M13.1263 33.0834C14.484 33.0834 15.5846 31.9827 15.5846 30.625C15.5846 29.2673 14.484 28.1667 13.1263 28.1667C11.7686 28.1667 10.668 29.2673 10.668 30.625C10.668 31.9827 11.7686 33.0834 13.1263 33.0834Z" stroke="#F68E5F" stroke-width="2" stroke-linecap="round" stroke-linejoin="round"/>
<path d="M1.45703 1.45831H7.29036L11.1987 20.9854C11.3321 21.6568 11.6973 22.2599 12.2305 22.6892C12.7638 23.1184 13.431 23.3464 14.1154 23.3333H28.2904C28.9748 23.3464 29.642 23.1184 30.1752 22.6892C30.7084 22.2599 31.0737 21.6568 31.207 20.9854L33.5404 8.74998H8.7487" stroke="#F68E5F" stroke-width="2" stroke-linecap="round" stroke-linejoin="round"/>
</svg>
