<svg width="97" height="28" viewBox="0 0 97 28" xmlns="http://www.w3.org/2000/svg"><path d="M8.803 13.304a4.169 4.169 0 012.845-1.048c1.092 0 1.886.337 2.381 1.01.495.673.646 1.606.45 2.8l-1.917 11.456h5.41L20.056 15.1c.381-2.278.064-4.07-.952-5.379-1.016-1.308-2.536-1.962-4.56-1.962-1.456 0-2.747.33-3.873.99a6.868 6.868 0 00-2.617 2.706h-.216l.56-3.441H3.251L.001 27.522h5.398l1.88-11.278c.22-1.261.728-2.241 1.524-2.94zm17.915 14.218l3.251-19.508h-5.41l-3.252 19.508h5.41zm3.251-22.86c.635-.542.995-1.185 1.08-1.93A2.29 2.29 0 0030.407.8c-.512-.534-1.17-.8-1.974-.8a3.25 3.25 0 00-2.147.8 2.933 2.933 0 00-1.092 1.93c-.106.708.13 1.424.635 1.93a2.616 2.616 0 001.981.813 3.236 3.236 0 002.16-.812zm10.117 3.353l.775-4.674h-5.41l-.776 4.673h-2.654l-.686 4.065h2.667l-1.676 10.16c-.339 1.905.008 3.325 1.041 4.26 1.034.936 2.545 1.366 4.535 1.29a9.433 9.433 0 001.816-.197 17.36 17.36 0 001.22-.311l-.204-4.026-.597.108a4.38 4.38 0 01-.775.07c-.542 0-.963-.132-1.264-.394-.301-.263-.388-.766-.26-1.512l1.575-9.448h3.683l.673-4.065h-3.683zm8.466 19.507l1.816-11.037a4.871 4.871 0 014.814-4.05c.414 0 .828.028 1.238.082.343.035.682.105 1.01.21l.813-4.814a7.116 7.116 0 00-1.664-.178 5.446 5.446 0 00-3.054.934c-.944.622-1.696 1.539-2.255 2.75h-.203l.572-3.404h-5.246l-3.251 19.508h5.41v-.001zm22.482-1.245c1.714-1.083 2.919-2.53 3.613-4.343l-4.94-.33a3.976 3.976 0 01-1.683 1.689 5.169 5.169 0 01-2.445.571c-1.38 0-2.397-.379-3.048-1.136-.652-.758-.855-1.903-.61-3.436l.025-.14h13.285l.241-1.485c.373-2.21.276-4.05-.292-5.519-.567-1.469-1.481-2.567-2.743-3.295-1.261-.728-2.756-1.092-4.483-1.092-1.914 0-3.65.423-5.207 1.27a10.977 10.977 0 00-3.88 3.543c-1.03 1.516-1.713 3.277-2.051 5.283-.517 3.09-.064 5.538 1.358 7.34 1.423 1.804 3.637 2.706 6.643 2.706 2.43 0 4.502-.542 6.217-1.626zM63.496 13.82a5.483 5.483 0 011.727-1.467 4.503 4.503 0 012.185-.553c1.168 0 2.053.377 2.654 1.13.602.754.805 1.711.61 2.871h-8.116c.158-.723.48-1.401.94-1.981zm27.117 12.833a10.766 10.766 0 003.874-3.499c1.02-1.499 1.691-3.243 2.012-5.232.33-2.024.231-3.798-.298-5.322a6.782 6.782 0 00-2.75-3.562c-1.303-.851-2.946-1.277-4.927-1.277-1.965 0-3.73.418-5.296 1.252a10.697 10.697 0 00-3.874 3.498c-1.016 1.499-1.685 3.247-2.007 5.246-.33 2.015-.23 3.784.299 5.308a6.79 6.79 0 002.743 3.563c1.3.85 2.945 1.276 4.934 1.276 1.965 0 3.728-.417 5.29-1.25zm-7.48-4.591c-.496-1.1-.608-2.49-.337-4.166.28-1.718.87-3.15 1.772-4.292.901-1.144 2.038-1.715 3.41-1.715 1.338 0 2.252.553 2.743 1.658.491 1.104.601 2.5.33 4.184-.288 1.72-.882 3.146-1.784 4.28-.902 1.134-2.034 1.702-3.398 1.702-1.329 0-2.241-.55-2.737-1.651z" fill="#FFF"/></svg>