<svg xmlns="http://www.w3.org/2000/svg" viewBox="0 0 97 28"><path d="M8.8 13.3c.8-.7 1.8-1.1 2.8-1 1.1 0 1.9.3 2.4 1s.6 1.6.5 2.8l-1.9 11.5H18l2.1-12.4c.4-2.3.1-4.1-1-5.4-1-1.3-2.5-2-4.6-2-1.5 0-2.7.3-3.9 1-1.1.6-2 1.6-2.6 2.7h-.2L8.4 8H3.3L0 27.5h5.4l1.9-11.3c.2-1.2.7-2.2 1.5-2.9zm17.9 14.2L30 8h-5.4l-3.3 19.5h5.4zM30 4.7c.6-.5 1-1.2 1.1-1.9.1-.7-.1-1.4-.6-1.9s-1.2-.8-2-.8-1.6.3-2.1.8c-.6.5-1 1.2-1.1 1.9-.1.7.1 1.4.6 1.9s1.2.8 2 .8c.7 0 1.5-.3 2.1-.8zM40.1 8l.8-4.7h-5.4L34.7 8H32l-.7 4.1H34l-1.7 10.2c-.3 1.9 0 3.3 1 4.3s2.5 1.4 4.5 1.3c.6 0 1.2-.1 1.8-.2.5-.1.9-.2 1.2-.3l-.2-4c-.1 0-.3.1-.6.1s-.5.1-.8.1c-.5 0-1-.1-1.3-.4-.3-.3-.4-.8-.3-1.5l1.6-9.4h3.7l.9-4.3h-3.7zm8.5 19.5l1.8-11c.4-2.3 2.4-4.1 4.8-4.1.4 0 .8 0 1.2.1.3 0 .7.1 1 .2l.8-4.8c-.5-.1-1.1-.2-1.7-.2-1.1 0-2.2.3-3.1.9-.9.6-1.7 1.5-2.3 2.8h-.2l.7-3.4h-5.2l-3.3 19.5h5.5zM71 26.3c1.7-1.1 2.9-2.5 3.6-4.3l-4.9-.3c-.4.7-1 1.3-1.7 1.7-.8.4-1.6.6-2.4.6-1.4 0-2.4-.4-3-1.1-.7-.8-.9-1.9-.6-3.4v-.1h13.3l.2-1.5c.4-2.2.3-4-.3-5.5s-1.5-2.6-2.7-3.3C71.2 8.4 69.7 8 68 8c-1.9 0-3.6.4-5.2 1.3-1.6.8-2.9 2.1-3.9 3.5-1 1.5-1.7 3.3-2.1 5.3-.5 3.1-.1 5.5 1.4 7.3 1.4 1.8 3.6 2.7 6.6 2.7 2.4-.2 4.5-.7 6.2-1.8zm-7.5-12.5c.5-.6 1.1-1.1 1.7-1.5.7-.4 1.4-.6 2.2-.6 1.2 0 2.1.4 2.7 1.1.6.8.8 1.7.6 2.9h-8.1c.1-.6.4-1.3.9-1.9zm27.1 12.9c1.6-.8 2.9-2 3.9-3.5s1.7-3.2 2-5.2c.3-2 .2-3.8-.3-5.3s-1.5-2.7-2.8-3.6c-1.3-.9-2.9-1.3-4.9-1.3-2 0-3.7.4-5.3 1.3-1.6.8-2.9 2-3.9 3.5s-1.7 3.2-2 5.2c-.3 2-.2 3.8.3 5.3s1.5 2.7 2.7 3.6c1.3.9 2.9 1.3 4.9 1.3 2.1-.1 3.9-.5 5.4-1.3zm-7.5-4.6c-.5-1.1-.6-2.5-.3-4.2.3-1.7.9-3.1 1.8-4.3s2-1.7 3.4-1.7c1.3 0 2.3.6 2.7 1.7s.6 2.5.3 4.2c-.3 1.7-.9 3.1-1.8 4.3-.9 1.1-2 1.7-3.4 1.7-1.3-.1-2.2-.6-2.7-1.7z"/></svg>