<svg width="264" height="42" viewBox="0 0 264 42" fill="none" xmlns="http://www.w3.org/2000/svg">
<g clip-path="url(#clip0_2_388)">
<path d="M21 42C32.598 42 42 32.598 42 21C42 9.40202 32.598 0 21 0C9.40202 0 0 9.40202 0 21C0 32.598 9.40202 42 21 42Z" fill="#FF9500"/>
<path d="M22.814 41.9227C33.5626 41.0031 41.9999 31.9868 41.9999 21C41.9999 19.9903 41.9286 18.9972 41.7908 18.0254L32.663 8.89758L29.0333 11.362L23.6522 5.98096L21.5459 17.6116L14.8882 10.9539L13.1407 12.7014L21.01 20.5707L20.1766 25.1728L10.8648 15.8611L5.48535 18.3325L12.3829 25.23L11.0844 27.0435L17.7782 33.7374L16.2353 35.344L22.814 41.9227Z" fill="#FE6A16"/>
<path d="M24.4001 24.8198V8.10706C24.4001 6.22929 22.8779 4.70703 21.0001 4.70703C19.1223 4.70703 17.6 6.22929 17.6 8.10706V24.8198C15.6163 25.987 14.2839 28.1429 14.2839 30.611C14.2839 34.3202 17.2909 37.3272 21.0001 37.3272C24.7093 37.3272 27.7162 34.3202 27.7162 30.611C27.7162 28.1429 26.3839 25.987 24.4001 24.8198Z" fill="white"/>
<path d="M21 37.3272C24.7092 37.3272 27.7162 34.3202 27.7162 30.611C27.7162 28.1429 26.3839 25.987 24.4001 24.8198V8.10706C24.4001 6.22929 22.8778 4.70703 21 4.70703C20.9889 4.70703 20.978 4.70777 20.9668 4.70785V29.5119L21 37.3272Z" fill="#E9EDF5"/>
<path d="M22.6405 26.9781V11.0369H19.3593V26.9782C17.9767 27.6035 17.0146 28.995 17.0146 30.6111C17.0146 32.8121 18.7989 34.5963 20.9999 34.5963C23.2009 34.5963 24.9851 32.8121 24.9851 30.6111C24.9851 28.9949 24.0231 27.6035 22.6405 26.9781Z" fill="#FA5D0F"/>
<path d="M22.6406 26.9781V11.0369H20.9668V34.5954C20.9779 34.5955 20.9889 34.5962 21 34.5962C23.201 34.5962 24.9853 32.812 24.9853 30.611C24.9853 28.9949 24.0232 27.6035 22.6406 26.9781Z" fill="#D13400"/>
<path d="M9.33496 8.89795L11.0823 7.15064L14.8855 10.9539L13.1382 12.7012L9.33496 8.89795Z" fill="#FFE85F"/>
<path d="M13.1418 21.4888L14.8892 23.2361L11.0859 27.0393L9.33858 25.292L13.1418 21.4888Z" fill="#FFE85F"/>
<path d="M10.8647 15.8611V18.3325H5.4853V15.8611H10.8647Z" fill="#FFE85F"/>
<path d="M32.6685 25.2954L30.9212 27.0427L27.1179 23.2394L28.8652 21.4921L32.6685 25.2954Z" fill="#FFC200"/>
<path d="M28.8616 12.7053L27.1143 10.958L30.9175 7.15475L32.6648 8.90205L28.8616 12.7053Z" fill="#FFC200"/>
<path d="M31.1353 18.3325V15.8611H36.5147V18.3325H31.1353Z" fill="#FFC200"/>
</g>
<path d="M53.9154 31.28C53.3554 31.28 52.9074 31.1307 52.5714 30.832C52.2354 30.5333 52.0674 30.1227 52.0674 29.6V12.8C52.0674 12.2773 52.2354 11.8667 52.5714 11.568C52.9074 11.2693 53.3554 11.12 53.9154 11.12C54.4754 11.12 54.9234 11.2787 55.2594 11.596C55.614 11.8947 55.7914 12.296 55.7914 12.8V19.492H65.8434V12.8C65.8434 12.296 66.0114 11.8947 66.3474 11.596C66.702 11.2787 67.1594 11.12 67.7194 11.12C68.2794 11.12 68.7274 11.2693 69.0634 11.568C69.3994 11.8667 69.5674 12.2773 69.5674 12.8V29.6C69.5674 30.1227 69.3994 30.5333 69.0634 30.832C68.7274 31.1307 68.2794 31.28 67.7194 31.28C67.1594 31.28 66.702 31.1307 66.3474 30.832C66.0114 30.5147 65.8434 30.104 65.8434 29.6V22.376H55.7914V29.6C55.7914 30.104 55.614 30.5147 55.2594 30.832C54.9234 31.1307 54.4754 31.28 53.9154 31.28ZM79.5159 31.28C77.9106 31.28 76.5106 30.9907 75.3159 30.412C74.1212 29.8333 73.1972 29.0213 72.5439 27.976C71.9092 26.912 71.5919 25.6707 71.5919 24.252C71.5919 21.956 72.2546 20.1733 73.5799 18.904C74.9239 17.6347 76.8092 17 79.2359 17C80.7292 17 82.0452 17.2333 83.1839 17.7C84.3412 18.1667 85.2372 18.82 85.8719 19.66C86.5252 20.4813 86.8519 21.424 86.8519 22.488C86.8519 23.384 86.5626 24.0747 85.9839 24.56C85.4239 25.0453 84.6212 25.288 83.5759 25.288H75.1479C75.1479 26.3333 75.5119 27.1267 76.2399 27.668C76.9866 28.1907 78.0786 28.452 79.5159 28.452C81.0279 28.452 82.3159 28.116 83.3799 27.444C83.9772 27.0707 84.4439 26.884 84.7799 26.884C85.0972 26.884 85.4052 27.0333 85.7039 27.332C86.0212 27.6493 86.1799 27.9947 86.1799 28.368C86.1799 28.816 85.9932 29.1707 85.6199 29.432C84.8359 30.0293 83.9212 30.4867 82.8759 30.804C81.8306 31.1213 80.7106 31.28 79.5159 31.28ZM82.4559 22.712C82.7732 22.712 82.9972 22.656 83.1279 22.544C83.2586 22.4133 83.3239 22.208 83.3239 21.928C83.3239 21.2747 82.9506 20.7613 82.2039 20.388C81.4759 20.0147 80.4866 19.828 79.2359 19.828C77.9852 19.828 76.9959 20.0893 76.2679 20.612C75.5586 21.1347 75.2039 21.8347 75.2039 22.712H82.4559ZM93.4822 31.28C92.3249 31.28 91.2982 31.084 90.4022 30.692C89.5249 30.3 88.8342 29.7587 88.3302 29.068C87.8449 28.3587 87.6022 27.5467 87.6022 26.632C87.6022 25.2507 88.1716 24.1493 89.3102 23.328C90.4676 22.5067 92.0262 22.096 93.9862 22.096C95.6849 22.096 97.0476 22.46 98.0742 23.188V22.516C98.0742 21.6387 97.8036 20.9667 97.2622 20.5C96.7209 20.0333 95.9369 19.8 94.9102 19.8C93.3796 19.8 92.0636 20.1267 90.9622 20.78C90.4956 21.0413 90.0942 21.172 89.7582 21.172C89.3476 21.172 88.9836 20.9853 88.6662 20.612C88.4609 20.3507 88.3582 20.08 88.3582 19.8C88.3582 19.3333 88.6009 18.9227 89.0862 18.568C89.7582 18.0827 90.6076 17.7 91.6342 17.42C92.6609 17.14 93.7436 17 94.8822 17C97.0476 17 98.7462 17.4947 99.9782 18.484C101.229 19.4547 101.854 20.7987 101.854 22.516V29.712C101.854 30.1973 101.686 30.58 101.35 30.86C101.033 31.14 100.594 31.28 100.034 31.28C99.4556 31.28 99.0076 31.1493 98.6902 30.888C98.3729 30.6267 98.2142 30.2533 98.2142 29.768V29.46C97.1502 30.6733 95.5729 31.28 93.4822 31.28ZM94.3502 28.704C95.5262 28.704 96.4409 28.5267 97.0942 28.172C97.7662 27.7987 98.1022 27.2853 98.1022 26.632C98.1022 26.016 97.7662 25.5213 97.0942 25.148C96.4222 24.7747 95.5262 24.588 94.4062 24.588C93.3982 24.588 92.6142 24.7653 92.0542 25.12C91.5129 25.4747 91.2422 25.9787 91.2422 26.632C91.2422 27.2853 91.5129 27.7987 92.0542 28.172C92.5956 28.5267 93.3609 28.704 94.3502 28.704ZM114.442 27.388C114.74 27.6307 114.89 27.9293 114.89 28.284C114.89 28.6387 114.759 29.0027 114.498 29.376C114.087 29.9733 113.508 30.44 112.762 30.776C112.015 31.112 111.175 31.28 110.242 31.28C108.748 31.28 107.572 30.8787 106.714 30.076C105.874 29.2547 105.454 28.1347 105.454 26.716V20.164H104.306C103.746 20.164 103.298 20.0333 102.962 19.772C102.626 19.5107 102.458 19.1653 102.458 18.736C102.458 18.288 102.616 17.9333 102.934 17.672C103.27 17.4107 103.727 17.28 104.306 17.28H105.454V13.052C105.454 12.5293 105.622 12.1187 105.958 11.82C106.294 11.5213 106.742 11.372 107.302 11.372C107.88 11.372 108.328 11.5213 108.646 11.82C108.963 12.1187 109.122 12.5293 109.122 13.052V17.28H111.81C112.388 17.28 112.836 17.4107 113.154 17.672C113.49 17.9333 113.658 18.288 113.658 18.736C113.658 19.1653 113.49 19.5107 113.154 19.772C112.836 20.0333 112.388 20.164 111.81 20.164H109.122V27.024C109.122 27.4347 109.243 27.7613 109.486 28.004C109.747 28.2467 110.092 28.368 110.522 28.368C110.858 28.368 111.147 28.3213 111.39 28.228C111.651 28.116 111.912 27.9387 112.174 27.696C112.659 27.2293 113.107 26.996 113.518 26.996C113.816 26.996 114.124 27.1267 114.442 27.388ZM123.992 31.28C122.387 31.28 120.987 30.9907 119.792 30.412C118.597 29.8333 117.673 29.0213 117.02 27.976C116.385 26.912 116.068 25.6707 116.068 24.252C116.068 21.956 116.731 20.1733 118.056 18.904C119.4 17.6347 121.285 17 123.712 17C125.205 17 126.521 17.2333 127.66 17.7C128.817 18.1667 129.713 18.82 130.348 19.66C131.001 20.4813 131.328 21.424 131.328 22.488C131.328 23.384 131.039 24.0747 130.46 24.56C129.9 25.0453 129.097 25.288 128.052 25.288H119.624C119.624 26.3333 119.988 27.1267 120.716 27.668C121.463 28.1907 122.555 28.452 123.992 28.452C125.504 28.452 126.792 28.116 127.856 27.444C128.453 27.0707 128.92 26.884 129.256 26.884C129.573 26.884 129.881 27.0333 130.18 27.332C130.497 27.6493 130.656 27.9947 130.656 28.368C130.656 28.816 130.469 29.1707 130.096 29.432C129.312 30.0293 128.397 30.4867 127.352 30.804C126.307 31.1213 125.187 31.28 123.992 31.28ZM126.932 22.712C127.249 22.712 127.473 22.656 127.604 22.544C127.735 22.4133 127.8 22.208 127.8 21.928C127.8 21.2747 127.427 20.7613 126.68 20.388C125.952 20.0147 124.963 19.828 123.712 19.828C122.461 19.828 121.472 20.0893 120.744 20.612C120.035 21.1347 119.68 21.8347 119.68 22.712H126.932ZM134.889 31.28C134.311 31.28 133.863 31.1307 133.545 30.832C133.228 30.5333 133.069 30.1227 133.069 29.6V18.68C133.069 18.1387 133.219 17.728 133.517 17.448C133.835 17.1493 134.273 17 134.833 17C135.393 17 135.832 17.1493 136.149 17.448C136.467 17.7467 136.625 18.1573 136.625 18.68V19.604C137.204 18.8573 137.876 18.288 138.641 17.896C139.425 17.4853 140.265 17.28 141.161 17.28H141.777C142.375 17.28 142.832 17.4107 143.149 17.672C143.485 17.9147 143.653 18.2693 143.653 18.736C143.653 19.2027 143.485 19.5667 143.149 19.828C142.832 20.0707 142.375 20.192 141.777 20.192H140.825C139.575 20.192 138.576 20.5933 137.829 21.396C137.101 22.18 136.737 23.2627 136.737 24.644V29.6C136.737 30.1227 136.569 30.5333 136.233 30.832C135.897 31.1307 135.449 31.28 134.889 31.28ZM152.054 15.544C152.054 14.2373 152.427 13.22 153.174 12.492C153.939 11.764 154.994 11.4 156.338 11.4H161.322C164.103 11.4 166.203 11.9413 167.622 13.024C169.04 14.1067 169.75 15.7213 169.75 17.868C169.75 19.8653 169.152 21.424 167.958 22.544C166.782 23.664 165.195 24.224 163.198 24.224L167.454 28.452C167.79 28.788 167.958 29.1707 167.958 29.6C167.958 30.048 167.762 30.44 167.37 30.776C166.959 31.0933 166.558 31.252 166.166 31.252C165.624 31.252 165.13 31.0093 164.682 30.524L158.634 24.336H155.778V29.6C155.778 30.1227 155.6 30.5333 155.246 30.832C154.891 31.1307 154.443 31.28 153.902 31.28C153.342 31.28 152.894 31.1307 152.558 30.832C152.222 30.5333 152.054 30.1227 152.054 29.6V15.544ZM161.21 21.452C162.442 21.452 163.403 21.3307 164.094 21.088C164.784 20.8453 165.27 20.472 165.55 19.968C165.848 19.4453 165.998 18.7453 165.998 17.868C165.998 16.5987 165.606 15.684 164.822 15.124C164.056 14.564 162.852 14.284 161.21 14.284H156.982C156.608 14.284 156.31 14.4053 156.086 14.648C155.88 14.8907 155.778 15.2267 155.778 15.656V21.452H161.21ZM178.709 31.28C177.104 31.28 175.704 30.9907 174.509 30.412C173.315 29.8333 172.391 29.0213 171.737 27.976C171.103 26.912 170.785 25.6707 170.785 24.252C170.785 21.956 171.448 20.1733 172.773 18.904C174.117 17.6347 176.003 17 178.429 17C179.923 17 181.239 17.2333 182.377 17.7C183.535 18.1667 184.431 18.82 185.065 19.66C185.719 20.4813 186.045 21.424 186.045 22.488C186.045 23.384 185.756 24.0747 185.177 24.56C184.617 25.0453 183.815 25.288 182.769 25.288H174.341C174.341 26.3333 174.705 27.1267 175.433 27.668C176.18 28.1907 177.272 28.452 178.709 28.452C180.221 28.452 181.509 28.116 182.573 27.444C183.171 27.0707 183.637 26.884 183.973 26.884C184.291 26.884 184.599 27.0333 184.897 27.332C185.215 27.6493 185.373 27.9947 185.373 28.368C185.373 28.816 185.187 29.1707 184.813 29.432C184.029 30.0293 183.115 30.4867 182.069 30.804C181.024 31.1213 179.904 31.28 178.709 31.28ZM181.649 22.712C181.967 22.712 182.191 22.656 182.321 22.544C182.452 22.4133 182.517 22.208 182.517 21.928C182.517 21.2747 182.144 20.7613 181.397 20.388C180.669 20.0147 179.68 19.828 178.429 19.828C177.179 19.828 176.189 20.0893 175.461 20.612C174.752 21.1347 174.397 21.8347 174.397 22.712H181.649ZM194.468 31.28C192.246 31.28 190.706 30.0387 189.848 27.556L186.88 19.044C186.824 18.876 186.796 18.7173 186.796 18.568C186.796 18.1387 186.982 17.7747 187.356 17.476C187.748 17.1773 188.252 17.028 188.868 17.028C189.241 17.028 189.558 17.112 189.82 17.28C190.081 17.448 190.268 17.6813 190.38 17.98L193.516 27.08C193.665 27.5467 193.814 27.8827 193.964 28.088C194.113 28.2747 194.281 28.368 194.468 28.368C194.654 28.368 194.822 28.2747 194.972 28.088C195.121 27.8827 195.27 27.5467 195.42 27.08L198.556 17.98C198.668 17.6813 198.854 17.448 199.116 17.28C199.377 17.112 199.694 17.028 200.068 17.028C200.702 17.028 201.206 17.1773 201.58 17.476C201.953 17.756 202.14 18.12 202.14 18.568C202.14 18.7173 202.112 18.876 202.056 19.044L199.088 27.556C198.229 30.0387 196.689 31.28 194.468 31.28ZM206.175 15.264C205.484 15.264 204.924 15.0773 204.495 14.704C204.084 14.312 203.879 13.808 203.879 13.192C203.879 12.576 204.084 12.0813 204.495 11.708C204.924 11.316 205.484 11.12 206.175 11.12C206.865 11.12 207.425 11.316 207.855 11.708C208.303 12.0813 208.527 12.576 208.527 13.192C208.527 13.808 208.303 14.312 207.855 14.704C207.425 15.0773 206.865 15.264 206.175 15.264ZM206.203 31.28C205.624 31.28 205.176 31.1307 204.859 30.832C204.541 30.5333 204.383 30.1227 204.383 29.6V18.68C204.383 18.1573 204.541 17.7467 204.859 17.448C205.176 17.1493 205.624 17 206.203 17C206.763 17 207.211 17.1493 207.547 17.448C207.883 17.7467 208.051 18.1573 208.051 18.68V29.6C208.051 30.1227 207.883 30.5333 207.547 30.832C207.211 31.1307 206.763 31.28 206.203 31.28ZM218.182 31.28C216.576 31.28 215.176 30.9907 213.982 30.412C212.787 29.8333 211.863 29.0213 211.21 27.976C210.575 26.912 210.258 25.6707 210.258 24.252C210.258 21.956 210.92 20.1733 212.246 18.904C213.59 17.6347 215.475 17 217.902 17C219.395 17 220.711 17.2333 221.85 17.7C223.007 18.1667 223.903 18.82 224.538 19.66C225.191 20.4813 225.518 21.424 225.518 22.488C225.518 23.384 225.228 24.0747 224.65 24.56C224.09 25.0453 223.287 25.288 222.242 25.288H213.814C213.814 26.3333 214.178 27.1267 214.906 27.668C215.652 28.1907 216.744 28.452 218.182 28.452C219.694 28.452 220.982 28.116 222.046 27.444C222.643 27.0707 223.11 26.884 223.446 26.884C223.763 26.884 224.071 27.0333 224.37 27.332C224.687 27.6493 224.846 27.9947 224.846 28.368C224.846 28.816 224.659 29.1707 224.286 29.432C223.502 30.0293 222.587 30.4867 221.542 30.804C220.496 31.1213 219.376 31.28 218.182 31.28ZM221.122 22.712C221.439 22.712 221.663 22.656 221.794 22.544C221.924 22.4133 221.99 22.208 221.99 21.928C221.99 21.2747 221.616 20.7613 220.87 20.388C220.142 20.0147 219.152 19.828 217.902 19.828C216.651 19.828 215.662 20.0893 214.934 20.612C214.224 21.1347 213.87 21.8347 213.87 22.712H221.122ZM232.915 31.28C230.843 31.28 229.527 30.048 228.967 27.584L227.035 18.904C226.997 18.68 226.979 18.5307 226.979 18.456C226.979 17.9893 227.137 17.6347 227.455 17.392C227.791 17.1307 228.257 17 228.855 17C229.452 17 229.937 17.1307 230.311 17.392C230.684 17.6533 230.908 18.0173 230.983 18.484L232.523 27.78C232.579 28.172 232.709 28.368 232.915 28.368C233.139 28.368 233.279 28.1813 233.335 27.808L234.399 20.08C234.548 19.0907 234.912 18.3347 235.491 17.812C236.069 17.2707 236.816 17 237.731 17C238.645 17 239.392 17.2707 239.971 17.812C240.549 18.3347 240.913 19.0907 241.063 20.08L242.127 27.808C242.183 28.1813 242.323 28.368 242.547 28.368C242.752 28.368 242.883 28.172 242.939 27.78L244.479 18.484C244.553 18.0173 244.777 17.6533 245.151 17.392C245.524 17.1307 246.009 17 246.607 17C247.204 17 247.661 17.1307 247.979 17.392C248.315 17.6347 248.483 17.9893 248.483 18.456C248.483 18.5307 248.464 18.68 248.427 18.904L246.495 27.584C245.935 30.048 244.619 31.28 242.547 31.28C241.52 31.28 240.727 30.9627 240.167 30.328C239.607 29.6933 239.233 28.704 239.047 27.36L238.123 20.472C238.104 20.2667 238.057 20.1267 237.983 20.052C237.927 19.9587 237.843 19.912 237.731 19.912C237.619 19.912 237.525 19.9587 237.451 20.052C237.395 20.1267 237.357 20.2667 237.339 20.472L236.415 27.36C236.228 28.704 235.855 29.6933 235.295 30.328C234.735 30.9627 233.941 31.28 232.915 31.28ZM256.307 31.28C253.302 31.28 251.09 30.412 249.671 28.676C249.373 28.284 249.223 27.9293 249.223 27.612C249.223 27.164 249.457 26.772 249.923 26.436C250.241 26.2307 250.549 26.128 250.847 26.128C251.258 26.128 251.641 26.3053 251.995 26.66C252.63 27.2947 253.246 27.752 253.843 28.032C254.459 28.2933 255.215 28.424 256.111 28.424C256.877 28.424 257.521 28.3213 258.043 28.116C258.566 27.9107 258.827 27.6587 258.827 27.36C258.827 26.9867 258.613 26.6693 258.183 26.408C257.754 26.1467 256.886 25.8107 255.579 25.4C253.526 24.7653 252.07 24.1027 251.211 23.412C250.353 22.7027 249.923 21.8253 249.923 20.78C249.923 19.604 250.427 18.68 251.435 18.008C252.443 17.336 253.834 17 255.607 17C256.97 17 258.202 17.2053 259.303 17.616C260.405 18.0267 261.207 18.5773 261.711 19.268C261.954 19.5853 262.075 19.9027 262.075 20.22C262.075 20.668 261.851 21.032 261.403 21.312C261.086 21.5173 260.759 21.62 260.423 21.62C259.882 21.62 259.387 21.396 258.939 20.948C258.566 20.5933 258.081 20.3227 257.483 20.136C256.905 19.9493 256.27 19.856 255.579 19.856C254.273 19.856 253.619 20.164 253.619 20.78C253.619 21.0227 253.722 21.2373 253.927 21.424C254.133 21.6107 254.497 21.8067 255.019 22.012C255.561 22.2173 256.401 22.4973 257.539 22.852C259.369 23.412 260.647 24.028 261.375 24.7C262.122 25.372 262.495 26.2587 262.495 27.36C262.495 28.536 261.954 29.488 260.871 30.216C259.789 30.9253 258.267 31.28 256.307 31.28Z" fill="black"/>
<defs>
<clipPath id="clip0_2_388">
<rect width="42" height="42" fill="white"/>
</clipPath>
</defs>
</svg>
