<svg width="179" height="23" fill="none" xmlns="http://www.w3.org/2000/svg"><g clip-path="url(#clip0_525_4312)" fill="#050A52"><path d="M112.922 7.324v13.211h3.909V7.324h-3.909zm1.97-5.316c1.553 0 2.301.983 2.301 2.233s-.748 2.153-2.301 2.153c-1.554 0-2.33-.956-2.33-2.153 0-1.196.776-2.233 2.33-2.233zm54.818 18.527V9.821l-.804-2.497h3.743l.804 2.26c.666-1.622 2.023-2.525 3.992-2.525a5.22 5.22 0 011.554.24v3.615a5.22 5.22 0 00-1.498-.213c-2.717 0-3.908 1.808-3.908 4.254v5.582h-3.881l-.002-.002zm-28.61 0h-4.796l-4.187-13.211h4.325l2.633 9.648 2.385-7.496-.694-2.152h4.131l2.801 9.674 2.577-9.674h4.077l-4.243 13.211h-4.768l-2.08-6.3-2.161 6.3zm-41.098 0L93.57 2.512h4.547l4.324 13.875 4.547-13.875h4.271l-6.46 18.023h-4.797zm67.844-6.805c0-3.933-2.523-6.673-6.404-6.673-4.464 0-7.126 3.19-7.126 6.938 0 3.747 2.633 6.778 6.932 6.778 2.911 0 4.769-.93 6.072-2.525l-2.551-2.047c-.776.957-1.829 1.541-3.243 1.541-1.913 0-3.021-1.064-3.271-2.737h9.537c.028-.426.056-.825.056-1.277l-.002.002zm-3.937-1.064h-5.656c.25-1.675 1.138-2.659 3.049-2.659 1.748 0 2.579 1.223 2.605 2.66h.002zm-31.892 1.064c0-3.933-2.496-6.673-6.404-6.673-4.409 0-7.07 3.19-7.07 6.938 0 3.747 2.579 6.778 6.932 6.778 2.911 0 4.74-.93 6.072-2.525l-2.551-2.047c-.804.957-1.83 1.541-3.243 1.541-1.914 0-3.049-1.064-3.299-2.737h9.509c.056-.426.056-.825.056-1.277l-.002.002zm-3.909-1.064h-5.656c.25-1.675 1.163-2.659 3.077-2.659 1.719 0 2.551 1.223 2.579 2.66zM34.12 20.513V5.919H27.8v-3.43h16.69v3.43h-6.293v14.594h-4.076z"/><path d="M55.081 13.707c0-3.933-2.605-6.673-6.488-6.673-4.437 0-7.07 3.19-7.07 6.938 0 3.748 2.605 6.778 6.96 6.778 2.911 0 4.769-.93 6.044-2.524l-2.551-2.048c-.748.957-1.83 1.541-3.27 1.541-1.886 0-2.996-1.064-3.218-2.737h9.509c.028-.425.084-.824.084-1.277v.002zm-9.593-1.064c.222-1.675 1.138-2.658 3.023-2.658 1.776 0 2.58 1.223 2.633 2.659h-5.656zm25.367 5.343V7.301h-3.411v1.463h-.028c-.97-1.01-2.357-1.727-4.215-1.727-3.964 0-6.681 2.95-6.681 6.91s2.717 6.805 6.681 6.805c1.858 0 3.243-.584 4.215-1.595h.028l.444 1.356h3.827l-.86-2.525v-.002zm-6.904-.318c-2.217 0-3.383-1.7-3.383-3.801 0-1.889 1.138-3.721 3.383-3.721s3.411 1.861 3.411 3.72c0 2.1-.97 3.802-3.41 3.802zM80.2 10.437c-1.526 0-2.358 1.143-2.358 2.818v7.258h-3.909V9.799L73.102 7.3h3.826l.666 2.047c.638-1.301 1.914-2.311 3.993-2.311 1.663 0 2.827.77 3.493 2.02.916-1.17 2.329-2.02 4.408-2.02 3.271 0 4.49 2.338 4.49 5.582v7.894H90.07v-7.417c0-1.78-.416-2.659-1.83-2.659-1.413 0-2.329 1.143-2.329 2.818v7.284h-3.88v-7.443c0-1.78-.444-2.659-1.83-2.659H80.2zM20.44 0H3.55C1.591 0 0 1.525 0 3.405v16.192c0 1.88 1.59 3.405 3.551 3.405H20.44c1.96 0 3.55-1.525 3.55-3.405V3.405C23.99 1.525 22.4 0 20.44 0zm-8.445 20.746c-5.326 0-9.644-4.14-9.644-9.247s4.318-9.245 9.644-9.245c5.327 0 9.645 4.14 9.645 9.247s-4.318 9.247-9.645 9.247v-.002z"/><path d="M20.161 11.499l-6.223-3.26.685 2.055H9.367l.683-2.055L3.826 11.5l6.223 3.262-.683-2.057h5.258l-.686 2.057 6.223-3.264z"/></g><defs><clipPath id="clip0_525_4312"><path fill="#fff" d="M0 0h179v23H0z"/></clipPath></defs></svg>