<svg width="113" height="32" fill="none" xmlns="http://www.w3.org/2000/svg"><path d="M17.034 12.135c0-.235-.044-.299-.301-.299H12.64c-.26 0-.301.064-.301.299v1.387c0 .235.044.298.3.298h1.66v8.266c0 .235.043.299.3.299h2.133c.259 0 .3-.064.3-.299v-9.951zM70.98 8.278c0-.982-.798-1.751-1.766-1.751-.97 0-1.788.769-1.788 1.75 0 .983.797 1.773 1.788 1.773.99 0 1.766-.79 1.766-1.772zm-.357 3.857c0-.235-.044-.299-.301-.299h-4.094c-.26 0-.301.064-.301.299v1.387c0 .235.042.298.3.298h1.66v8.266c0 .235.041.299.3.299h2.133c.259 0 .3-.064.3-.299v-9.951h.003z" fill="#232323"/><path d="M42.044.745c-6.14-.785-9.39-1.032-14.727-.34-4.45.577-9.279 2.172-13.761 4.553-2.424 1.286-6.988 4.535-10.257 10.65C.029 21.726 0 26.802 0 26.802s1.118-2.96 2.834-6.029c1.25-2.235 3.058-4.6 3.795-5.566 1.264-1.654 3.34-3.692 5.916-5.62a3.322 3.322 0 01-.275-1.328c0-1.86 1.52-3.367 3.396-3.367 1.013 0 1.918.44 2.54 1.136 3.133-1.65 5.627-2.42 9.021-3.318C33.934.937 43.773 1.113 43.773 1.113s1.104-.008-1.73-.37l.001.002z" fill="#232323"/><path d="M17.43 8.26c0-.982-.797-1.75-1.765-1.75-.97 0-1.788.768-1.788 1.75s.797 1.772 1.787 1.772c.991 0 1.766-.79 1.766-1.772zm10.851 5.288c.76-1.091 1.88-1.706 3.14-1.706 2.559 0 3.759 1.388 3.759 3.648v6.88h-2.84v-5.927c0-1.348-.2-2.38-1.74-2.38-1.34 0-1.9.933-1.9 2.577v5.73h-2.84v-6.046c0-1.328-.2-2.26-1.72-2.26-.66 0-1.92.456-1.92 2.34v5.967h-2.84V12.119h2.68v1.387h.04c.8-1.13 1.88-1.666 3.16-1.666 1.54 0 2.539.635 3.02 1.706l.001.002zm18.76 3.865c0 .158-.02.516-.02.516h-7.46c.08 1.764.9 2.596 2.52 2.596 1.08 0 2.038-.614 2.26-1.328h2.499c-.76 2.32-2.36 3.45-4.84 3.45-3.28 0-5.28-2.24-5.28-5.392s2.161-5.413 5.28-5.413c3.12 0 5.041 2.538 5.041 5.573v-.002zm-2.86-1.269c-.281-1.547-.96-2.181-2.28-2.181-1.32 0-2.22.832-2.34 2.181h4.62zM54.6 15.113c-.08-.992-.76-1.387-1.94-1.387-1.1 0-1.58.337-1.58.952 0 .654.62.992 2.22 1.308 2.1.417 2.86.733 3.48 1.249.54.476.8 1.071.8 1.844 0 2.636-2.3 3.568-4.72 3.568-2.82 0-4.78-1.19-4.86-3.608h2.7c0 1.15 1.001 1.725 2.181 1.725.961 0 1.86-.417 1.86-1.308 0-.753-.879-1.11-3.12-1.567-2.4-.496-3.38-1.288-3.38-2.756 0-2.182 1.6-3.293 4.5-3.293s4.38 1.15 4.561 3.273H54.6zm10.84.636v2.419h-6.019v-2.419h6.02zm17.002-.022h-2.78c-.18-1.17-.881-1.764-2.1-1.764-1.721 0-2.42 1.666-2.42 3.331 0 1.666.699 3.233 2.36 3.233 1.259 0 2.06-.713 2.26-2.083h2.74c-.38 2.698-2.22 4.203-4.98 4.203-3.22 0-5.221-2.28-5.221-5.254 0-3.272 2-5.553 5.28-5.553 2.641 0 4.72 1.427 4.86 3.887h.001zm11.84 1.528c0 3.312-2.18 5.392-5.36 5.392-3.179 0-5.34-2.161-5.34-5.392 0-3.231 2.101-5.413 5.34-5.413 3.24 0 5.36 2.162 5.36 5.413zm-5.36 3.272c1.68 0 2.52-1.249 2.52-3.272 0-1.666-.58-3.292-2.54-3.292-1.58 0-2.48 1.19-2.48 3.292s.88 3.272 2.5 3.272zm13.261-8.586v2.616a4.948 4.948 0 00-1.021-.098c-2.06 0-2.8 1.407-2.8 3.292v4.62h-2.84V12.119h2.7v1.903h.04c.54-1.288 1.88-2.182 3.299-2.182.281 0 .48.06.62.1l.002.001zm10.779 5.472c0 .158-.02.516-.02.516h-7.46c.079 1.764.901 2.596 2.519 2.596 1.08 0 2.041-.614 2.26-1.328h2.5c-.76 2.32-2.36 3.45-4.84 3.45-3.28 0-5.28-2.24-5.28-5.392s2.161-5.413 5.28-5.413c3.12 0 5.039 2.538 5.039 5.573l.002-.002zm-2.86-1.269c-.281-1.547-.961-2.181-2.28-2.181-1.32 0-2.221.832-2.34 2.181h4.62zM17.074 29.326c-.06.585-.497 1.008-1.037 1.008-.825 0-1.255-.764-1.255-1.52 0-.754.43-1.519 1.255-1.519.544 0 .883.287 1.009.85l.004.021h.498l-.004-.03c-.104-.805-.654-1.266-1.509-1.266-1.034 0-1.756.8-1.756 1.947 0 1.146.722 1.946 1.756 1.946.841 0 1.415-.534 1.537-1.429l.004-.03h-.502v.024-.002zm2.784-2.456c-1.034 0-1.756.8-1.756 1.947 0 1.146.722 1.946 1.756 1.946 1.035 0 1.756-.783 1.756-1.946 0-1.164-.721-1.947-1.756-1.947zm0 3.464c-.825 0-1.256-.764-1.256-1.52 0-.754.429-1.519 1.25-1.519.867 0 1.264.788 1.264 1.52 0 .73-.43 1.52-1.256 1.52h-.002zm6.386-3.464c-.514 0-.944.247-1.164.664-.143-.41-.542-.664-1.054-.664-.542 0-.933.221-1.192.678v-.571h-.464v3.681h.5v-2.05c0-.833.389-1.309 1.064-1.309.483 0 .74.304.74.88v2.48h.5v-2.074c0-.587.167-1.286.965-1.286.588 0 .837.265.837.887v2.472h.5v-2.501c0-.854-.414-1.285-1.232-1.285v-.002zm3.926 0c-.577 0-1.063.277-1.29.73v-.623h-.465V32h.5v-1.954c.204.438.688.719 1.264.719 1.01 0 1.664-.765 1.664-1.946 0-1.182-.655-1.947-1.672-1.947v-.002zm-.007.427c.869 0 1.178.818 1.178 1.52 0 .701-.307 1.52-1.172 1.52-.927 0-1.256-.785-1.256-1.52 0-.994.433-1.52 1.25-1.52zm3.957-.427c-1.24 0-1.679 1.047-1.679 1.947 0 1.217.628 1.946 1.678 1.946.885 0 1.416-.433 1.623-1.322l.008-.034h-.502l-.006.02c-.152.595-.54.907-1.123.907-.793 0-1.162-.686-1.178-1.373h2.815v-.133c0-1.19-.642-1.96-1.637-1.96v.002zm-.008.427c.713 0 1.112.619 1.142 1.239h-2.308c.105-.765.552-1.239 1.168-1.239h-.002zm3.097-1.411h-.5v1.089h-.638v.427h.638v2.482c0 .6.215.814.82.814.102 0 .176-.004.27-.008.038 0 .08-.004.13-.006h.025v-.437l-.03.004a3.092 3.092 0 01-.33.022c-.291 0-.385-.103-.385-.423v-2.446h.743v-.427h-.743v-1.09zm2.971.984c-1.239 0-1.678 1.047-1.678 1.947 0 1.217.628 1.946 1.679 1.946.885 0 1.415-.433 1.622-1.322l.008-.034h-.502l-.006.02c-.152.595-.54.907-1.122.907-.793 0-1.162-.686-1.178-1.373h2.814v-.133c0-1.19-.642-1.96-1.636-1.96v.002zm-.007.427c.713 0 1.112.619 1.142 1.239h-2.308c.105-.765.552-1.239 1.168-1.239h-.002zm3.992-.427c-.508 0-.965.263-1.164.662v-.557h-.5v3.681h.5V28.55c0-.623.347-1.253 1.122-1.253.606 0 .901.348.901 1.063v2.298h.5v-2.38c0-.96-.432-1.406-1.359-1.406v-.002zm4.899 2.456c-.06.585-.496 1.008-1.036 1.008-.825 0-1.256-.764-1.256-1.52 0-.754.43-1.519 1.256-1.519.544 0 .883.287 1.008.85l.005.021h.498l-.004-.03c-.104-.805-.654-1.266-1.51-1.266-1.033 0-1.755.8-1.755 1.947 0 1.146.721 1.946 1.756 1.946.841 0 1.415-.534 1.537-1.429l.004-.03h-.503v.024-.002zm2.707-2.456c-1.24 0-1.678 1.047-1.678 1.947 0 1.217.628 1.946 1.678 1.946.885 0 1.415-.433 1.623-1.322l.008-.034h-.503l-.006.02c-.151.595-.54.907-1.122.907-.793 0-1.162-.686-1.178-1.373h2.815v-.133c0-1.19-.642-1.96-1.637-1.96v.002zm-.008.427c.714 0 1.112.619 1.142 1.239h-2.308c.106-.765.552-1.239 1.168-1.239h-.002zm4.955-1.713h-.5v.762h.5v-.762zm0 1.391h-.5v3.681h.5v-3.681zm2.603-.105c-.508 0-.964.263-1.164.662v-.557h-.5v3.681h.5V28.55c0-.623.347-1.253 1.123-1.253.605 0 .9.348.9 1.063v2.298h.5v-2.38c0-.96-.432-1.406-1.359-1.406v-.002zm7.176.717c-.201-.432-.692-.717-1.256-.717-1.014 0-1.672.765-1.672 1.947 0 1.181.656 1.946 1.672 1.946.469 0 1.047-.251 1.292-.73v.625h.466v-5.072h-.5v2.004l-.002-.003zm-1.256-.29c.927 0 1.256.784 1.256 1.52 0 .735-.331 1.52-1.256 1.52-.865 0-1.17-.819-1.17-1.52 0-.702.307-1.52 1.17-1.52zm4.189-.427c-1.239 0-1.677 1.047-1.677 1.947 0 1.217.627 1.946 1.678 1.946.885 0 1.415-.433 1.622-1.322l.008-.034h-.502l-.006.02c-.151.595-.54.907-1.122.907-.793 0-1.162-.686-1.178-1.373h2.814v-.133c0-1.19-.642-1.96-1.636-1.96v.002zm-.007.427c.713 0 1.112.619 1.142 1.239h-2.308c.105-.765.552-1.239 1.168-1.239h-.002zm3.99-.427c-.508 0-.965.263-1.164.662v-.557h-.5v3.681h.5V28.55c0-.623.347-1.253 1.122-1.253.606 0 .901.348.901 1.063v2.298h.5v-2.38c0-.96-.432-1.406-1.359-1.406v-.002zm3.054-.984h-.5v1.089h-.638v.427h.638v2.482c0 .6.215.814.82.814.102 0 .176-.004.27-.008.038 0 .08-.004.13-.006h.025v-.437l-.03.004a3.092 3.092 0 01-.33.022c-.288 0-.385-.107-.385-.423v-2.446h.745v-.427h-.745v-1.09zm4.553 4.344c-.16 0-.236-.078-.236-.242v-1.926c0-.793-.46-1.194-1.367-1.194s-1.465.429-1.515 1.241v.028h.5v-.026c.022-.535.351-.818.953-.818.644 0 .93.221.93.717 0 .407-.21.431-.72.484h-.015c-.89.095-1.19.204-1.43.372-.252.18-.374.443-.374.802 0 .672.48 1.09 1.254 1.09.61 0 .973-.19 1.322-.698.01.424.169.592.558.592.107 0 .18-.008.289-.03l.022-.003v-.435l-.038.014a.315.315 0 01-.132.026l-.002.006zm-1.986.104c-.383 0-.787-.24-.787-.69 0-.414.337-.557.703-.648.158-.04.44-.08.666-.112a9.32 9.32 0 00.225-.034c.212-.031.365-.067.445-.142v.524c0 .64-.526 1.104-1.25 1.104l-.002-.002zm3.239-4.75h-.5v5.072h.5v-5.072zm4.75 3.016l-.469-.106c-.546-.118-.8-.31-.8-.598 0-.44.432-.599.836-.599.56 0 .917.294.929.769v.025h.502v-.027c-.03-.735-.554-1.194-1.367-1.194-.698 0-1.403.324-1.403 1.046 0 .533.323.831 1.078 1.003l.475.105c.607.13.843.314.843.656 0 .45-.505.654-.973.654-.624 0-1.017-.33-1.05-.881v-.026h-.503v.03c.08.854.61 1.304 1.533 1.304.743 0 1.495-.346 1.495-1.116 0-.771-.79-.975-1.126-1.046zm3.432-1.73c-1.034 0-1.756.8-1.756 1.947 0 1.146.722 1.946 1.756 1.946 1.035 0 1.756-.783 1.756-1.946 0-1.164-.721-1.947-1.756-1.947zm0 3.464c-.825 0-1.256-.764-1.256-1.52 0-.754.429-1.519 1.25-1.519.87 0 1.264.788 1.264 1.52 0 .73-.43 1.52-1.256 1.52h-.002zm3.018-4.75h-.5v5.072h.5v-5.072zm3.462 3.316c0 .662-.283 1.434-1.078 1.434-.796 0-.945-.51-.945-1.063v-2.296h-.5v2.381c0 .945.428 1.405 1.309 1.405.54 0 1-.26 1.25-.703v.598h.464v-3.681h-.5V28.9zm2.196-3.014h-.5v1.089h-.638v.427h.638v2.482c0 .6.215.814.821.814.102 0 .176-.004.27-.008.037 0 .08-.004.129-.006h.026v-.437l-.03.004a3.088 3.088 0 01-.33.022c-.292 0-.386-.103-.386-.423v-2.446h.744v-.427h-.744v-1.09zm1.984 1.089h-.501v3.681h.501v-3.681zm0-1.391h-.501v.762h.501v-.762zm2.519 1.286c-1.034 0-1.756.8-1.756 1.947 0 1.146.722 1.946 1.756 1.946s1.756-.783 1.756-1.946c0-1.164-.722-1.947-1.756-1.947zm0 3.464c-.825 0-1.256-.764-1.256-1.52 0-.754.429-1.519 1.25-1.519.869 0 1.264.788 1.264 1.52 0 .73-.431 1.52-1.256 1.52h-.002zm4.168-3.464c-.509 0-.965.263-1.164.662v-.557h-.501v3.681h.501V28.55c0-.623.347-1.253 1.122-1.253.606 0 .901.348.901 1.063v2.298h.5v-2.38c0-.96-.432-1.406-1.359-1.406v-.002zm3.982 1.73l-.468-.106c-.546-.118-.802-.31-.802-.598 0-.44.433-.599.838-.599.56 0 .917.294.928.769v.025h.503v-.027c-.03-.735-.554-1.194-1.368-1.194-.697 0-1.403.324-1.403 1.046 0 .533.323.831 1.079 1.003l.474.105c.608.13.843.314.843.656 0 .45-.504.654-.973.654-.624 0-1.016-.33-1.05-.881v-.026h-.502v.03c.079.854.61 1.304 1.532 1.304.744 0 1.495-.346 1.495-1.116 0-.771-.789-.975-1.126-1.046zm.552-22.368c.441.437.664.957.664 1.571 0 .615-.223 1.16-.664 1.595a2.196 2.196 0 01-1.596.652c-.62 0-1.162-.221-1.609-.658a2.162 2.162 0 01-.664-1.589c0-.62.224-1.134.67-1.57a2.194 2.194 0 011.603-.653 2.21 2.21 0 011.596.652zm-2.922 2.94c.355.364.796.55 1.326.55s.964-.192 1.319-.555c.355-.37.53-.824.53-1.362 0-.537-.175-.98-.53-1.343a1.787 1.787 0 00-1.325-.55c-.524 0-.965.18-1.32.544a1.867 1.867 0 00-.536 1.35c0 .53.181.997.536 1.367zm1.489-2.665c.572 0 .899.233.899.747 0 .395-.211.652-.694.711l.754 1.154h-.441l-.717-1.122h-.435v1.122h-.41V6.51h1.042l.002-.002zm-.161 1.16c.494 0 .649-.119.649-.43 0-.275-.187-.402-.554-.402h-.566v.83h.471v.002z" fill="#232323"/></svg>