<svg width="104" height="32" fill="none" xmlns="http://www.w3.org/2000/svg"><path d="M21.926 12.676L11.342 18.85V6.503l10.584 6.173zM11.343 32V19.654l10.583 6.173L11.343 32zM.276 25.827l10.584-6.173V32L.276 25.827zM0 13.079l10.583 6.173L0 25.424V13.079zm10.84-6.576V18.85L.258 12.676l10.584-6.173zm6.61 12.834l10.582-6.173V25.51L17.45 19.337zM28.032 0v12.346L17.45 6.174 28.032 0zM39.1 6.174l-10.583 6.173V0l10.582 6.174zm.276 12.752l-10.582-6.173L39.376 6.58v12.346zm-10.84 6.584V13.164l10.582 6.172-10.582 6.174zm56.994.278V11.185c0-.761-.662-1.49-1.44-1.457-.782.038-1.442.64-1.442 1.457v14.603h2.882zm5.362-.024H104V22.85H93.774l-2.882 2.913zM101.234 9.73h-13.12v2.912h10.238l2.882-2.913zM90.14 25.764l2.882-2.912h-.025l6.105-6.142 4.423-4.468c.991-1.009.207-2.512-.976-2.512h-.563L88.51 23.305c-.95.964-.104 2.459.995 2.459h.635z" fill="#232323"/><path fill-rule="evenodd" clip-rule="evenodd" d="M48.746 9.728h-2.883v12.616h2.883V9.728zm12.99 0H58.85v12.616h2.885V9.728z" fill="#232323"/><path d="M45.864 22.88v1.452c0 .787.661 1.456 1.442 1.456h12.99c.779 0 1.44-.667 1.44-1.456V22.88H45.864zm34.227.165V9.728H77.21v10.405l2.882 2.912zM64.22 12.597v13.191h2.883v-10.28l-2.883-2.911zm2.41-2.393c-.968-.964-2.41-.118-2.41 1.014v.618l13.415 13.553c.965.95 2.456.169 2.456-.993v-.591l-13.461-13.6z" fill="#232323"/></svg>