<svg width="103" height="22" fill="none" xmlns="http://www.w3.org/2000/svg"><path d="M13.379 9.934c0-1.997 1.967-3.141 4.748-3.141 3.006 0 3.335.47 3.335 1.69 0 .244-.128.42-.375.42s-1.529-.432-2.927-.432c-1.155 0-2.204.407-2.204 1.276 0 1.972 6.543 1.57 6.543 5.204 0 2.294-2.776 3.362-4.995 3.362-2.1 0-4.045-.64-4.045-.64s-.204-.964-.204-1.54c0-.196.148-.328.346-.328.2 0 2.11.832 3.968.832 1.476 0 2.28-.752 2.28-1.504 0-1.98-6.468-1.79-6.468-5.2m13.202-7.118c0-.784 1.589-.66 2.095-.66.286 0 .555.171.555.492V8.69c0 .109-.005.19.039.19.317 0 1.686-2.087 4.433-2.087 2.282 0 3.953 1.271 3.953 3.391v7.38c0 .362-.41.498-.61.498h-1.43c-.303 0-.613-.2-.613-.499V11.24c0-1.617-.252-2.525-1.807-2.525-2.361 0-3.965 2.286-3.965 2.286v6.562c0 .283-.284.5-.613.5h-1.43c-.353 0-.607-.242-.607-.5V2.815zM46.725 6.36c-1.282 0-2.675.18-3.287.465-.584.27-.696.494-.696 1.232 0 .36.11.898.177.898.204 0 1.817-.735 3.786-.735 2.246 0 3.065.455 3.065 1.92 0 .188.007.327-.233.327-4.479 0-7.85 1.05-7.85 4.194 0 2.418 2.097 3.65 3.945 3.65 2.43 0 3.653-1.319 4.16-1.319.346 0 .14 1.013 1.08 1.013h.966c.306 0 .473-.29.473-.499v-6.783c0-2.721-1.23-4.36-5.586-4.36m3.047 8.392c0 .703-2.086 1.604-3.398 1.604-.962 0-2.227-.325-2.227-1.822 0-2.503 4.395-2.349 5.407-2.349h.218v2.567zM64.12 6.793c-2.786 0-4.295 2.068-4.295 2.068s-.133-.564-.288-1.09c-.158-.536-.344-.735-.788-.735h-.92c-.158 0-.61.12-.61.5V21.5c0 .34.259.499.47.499h1.71c.336 0 .47-.273.47-.499v-4.506s1.383 1.316 3.863 1.316c3.386 0 5.576-2.955 5.576-6.093 0-3.362-2.015-5.425-5.188-5.425zm-.894 9.842c-1.684 0-3.358-.884-3.358-1.808v-4.39s1.662-1.72 3.67-1.72 2.968 1.328 2.968 3.704c0 1.994-1.003 4.216-3.283 4.216m12.093-3.404c0-.164.097-.273.278-.273h7.585c.271 0 .622-.154.622-.698 0-3.143-1.61-5.47-5.22-5.47-3.224 0-6.002 2.116-6.002 5.711s3.115 5.81 6.835 5.81c1.478 0 4.002-.283 4.13-1.068.066-.397.209-1.38.209-1.38s-1.676.775-3.915.775c-3.318 0-4.52-2.021-4.52-3.404m3.084-4.765c1.734 0 2.694.978 2.694 2.528 0 .273-.146.283-.393.283h-5.368c.012-.31.102-2.813 3.067-2.813M2.74 12.846c-.347 0-.528-.199-.528-.519v-.516c0-.32.181-.52.528-.52h.77c1.606 0 3.118-.486 3.118-1.685 0-.914-1.325-1.21-2.694-1.21-1.86 0-3.692.703-3.692.703s.06-.3.129-.896c.017-.144.063-.623.063-.663 0-.511 1.669-.794 3.531-.794 3.3 0 5.044.988 5.044 2.604 0 2.08-2.987 2.704-2.987 2.704s3.5.362 3.5 2.892c0 1.91-1.766 3.365-5.595 3.365-1.786 0-3.67-.346-3.67-.346S0 16.91 0 16.508c0-.156.177-.352.38-.352.216 0 2.343.501 3.445.501 1.812 0 3.188-.437 3.188-1.708 0-1.473-1.468-2.1-3.96-2.1H2.74v-.003zM91.245.151a.815.815 0 00-1.15.216c-.18.266-.238.624-.272.827-.034.204-1.763 10.47-1.829 11.093-.036.328.083.621.347.807a.823.823 0 00.584.144c.443-.084 12.659-3.357 13.395-3.496a.823.823 0 00.533-.352.864.864 0 00-.211-1.182c-.53-.375-10.828-7.654-11.394-8.057m-.56 4.422c.233-.913.283-1.467.552-1.867.19-.28.521-.39.802-.191.465.328.497 1.241.167 1.93-.356.744-2.8 5.794-2.8 5.794s.705-3.409 1.279-5.666zm8.633 3.27c0 .087-.02.154-.082.24-.133.18-.434.316-.71.425-.276.11-7.373 2.91-7.64 3.037-.266.124-.816.34-.99.216-.277-.196-.132-.504.108-.874.669-1.033 3.275-5.087 3.595-5.564.446-.66 1.105-.926 1.74-.477.697.494 3.46 2.446 3.655 2.582.21.15.324.261.324.418" fill="#232323"/></svg>