<svg width="120" height="37" xmlns="http://www.w3.org/2000/svg"><g fill="none" fill-rule="evenodd"><path fill="#020303" d="M0 37h36V0H0zm42 0h36V0H42zm42 0h36V0H84z"/><path d="M16.407 19H13v8h3.587c1.995 0 3.343-.153 4.052-.462a3.92 3.92 0 0 0 1.715-1.435c.427-.654.646-1.347.646-2.099 0-.766-.23-1.47-.684-2.11-.46-.635-1.108-1.109-1.94-1.426-.838-.313-2.16-.468-3.969-.468m-.19-11H13v8h2.489c1.991 0 3.407-.382 4.249-1.165.842-.772 1.262-1.77 1.262-3.001C21 9.276 19.406 8 16.216 8m1.692 23H9V5h6.89c2.17 0 3.868.292 5.083.863 1.22.578 2.145 1.374 2.788 2.385.645 1.015.958 2.185.958 3.512 0 2.554-1.336 4.382-4.01 5.488 1.919.36 3.45 1.142 4.586 2.343C26.435 20.8 27 22.233 27 23.91c0 1.326-.346 2.506-1.035 3.55-.693 1.045-1.703 1.893-3.041 2.555-1.334.654-3.012.984-5.016.984" fill="#FEFEFE"/><path d="M16.407 19H13v8h3.587c1.995 0 3.343-.153 4.052-.462a3.92 3.92 0 0 0 1.715-1.435c.427-.654.646-1.347.646-2.099 0-.766-.23-1.47-.684-2.11-.46-.635-1.108-1.109-1.94-1.426-.838-.313-2.16-.468-3.969-.468zm-.19-11H13v8h2.489c1.991 0 3.407-.382 4.249-1.165.842-.772 1.262-1.77 1.262-3.001C21 9.276 19.406 8 16.216 8zm1.691 23H9V5h6.89c2.17 0 3.868.292 5.083.863 1.22.578 2.145 1.374 2.788 2.385.645 1.015.958 2.185.958 3.512 0 2.554-1.336 4.382-4.01 5.488 1.919.36 3.45 1.142 4.586 2.343C26.435 20.8 27 22.233 27 23.91c0 1.326-.346 2.506-1.035 3.55-.693 1.045-1.703 1.893-3.041 2.555-1.334.654-3.012.984-5.016.984z" stroke="#020303"/><path d="M58.406 19H55v8h3.587c1.996 0 3.342-.153 4.052-.462a3.915 3.915 0 0 0 1.716-1.435c.428-.654.645-1.347.645-2.099 0-.766-.23-1.47-.684-2.11-.46-.635-1.105-1.109-1.94-1.426-.835-.313-2.162-.468-3.97-.468m-.19-11H55v8h2.49c1.992 0 3.408-.382 4.25-1.165.841-.772 1.26-1.77 1.26-3.001C63 9.276 61.41 8 58.216 8m1.69 23H51V5h6.89c2.17 0 3.87.292 5.083.863 1.22.578 2.145 1.374 2.788 2.385.642 1.015.958 2.185.958 3.512 0 2.554-1.336 4.382-4.011 5.488 1.92.36 3.45 1.142 4.589 2.343C68.436 20.8 69 22.233 69 23.91c0 1.326-.347 2.506-1.033 3.55-.697 1.045-1.703 1.893-3.04 2.555-1.339.654-3.015.984-5.02.984" fill="#FEFEFE"/><path d="M58.406 19H55v8h3.587c1.996 0 3.342-.153 4.052-.462a3.915 3.915 0 0 0 1.716-1.435c.428-.654.645-1.347.645-2.099 0-.766-.23-1.47-.684-2.11-.46-.635-1.105-1.109-1.94-1.426-.835-.313-2.162-.468-3.97-.468zm-.19-11H55v8h2.49c1.992 0 3.408-.382 4.25-1.165.841-.772 1.26-1.77 1.26-3.001C63 9.276 61.41 8 58.216 8zm1.69 23H51V5h6.89c2.17 0 3.87.292 5.083.863 1.22.578 2.145 1.374 2.788 2.385.642 1.015.958 2.185.958 3.512 0 2.554-1.336 4.382-4.011 5.488 1.92.36 3.45 1.142 4.589 2.343C68.436 20.8 69 22.233 69 23.91c0 1.326-.347 2.506-1.033 3.55-.697 1.045-1.703 1.893-3.04 2.555-1.339.654-3.015.984-5.02.984z" stroke="#020303"/><path d="M112 24.821v3.995c-2.683 1.46-5.779 2.184-9.29 2.184-2.852 0-5.267-.573-7.254-1.713-1.987-1.135-3.558-2.703-4.72-4.698A12.766 12.766 0 0 1 89 18.101c0-3.695 1.327-6.803 3.977-9.322C95.627 6.263 98.901 5 102.782 5c2.687 0 5.664.698 8.944 2.087v3.908c-2.99-1.692-5.91-2.543-8.762-2.543-2.918 0-5.35.919-7.277 2.754-1.934 1.836-2.904 4.127-2.904 6.895 0 2.783.956 5.073 2.85 6.867 1.905 1.792 4.337 2.688 7.294 2.688 3.096 0 6.119-.948 9.073-2.835" fill="#FEFEFE"/><path d="M112 24.821v3.995c-2.683 1.46-5.779 2.184-9.29 2.184-2.852 0-5.267-.573-7.254-1.713-1.987-1.135-3.558-2.703-4.72-4.698A12.766 12.766 0 0 1 89 18.101c0-3.695 1.327-6.803 3.977-9.322C95.627 6.263 98.901 5 102.782 5c2.687 0 5.664.698 8.944 2.087v3.908c-2.99-1.692-5.91-2.543-8.762-2.543-2.918 0-5.35.919-7.277 2.754-1.934 1.836-2.904 4.127-2.904 6.895 0 2.783.956 5.073 2.85 6.867 1.905 1.792 4.337 2.688 7.294 2.688 3.096 0 6.119-.948 9.073-2.835z" stroke="#020303"/></g></svg>