<svg xmlns="http://www.w3.org/2000/svg" width="126" height="122.995" viewBox="-19.5 -6.498 126 122.995"><g fill="none"><path stroke="#284E7B" stroke-width="2" d="M1 109h85V1H32.14L1 32.046V109z"/><g stroke="#578BC1"><path stroke-width=".8" d="M35.4 46.499c0 4.467 3.634 8.101 8.099 8.101 4.467 0 8.101-3.634 8.101-8.101 0-4.466-3.634-8.099-8.101-8.099-4.466 0-8.099 3.633-8.099 8.099z"/><path stroke-width="2" d="M42.999 75.111C50.157 63.55 56 51.879 56 47.246 56 39.939 50.163 34 42.999 34 35.836 34 30 39.939 30 47.246c0 4.633 5.841 16.301 12.999 27.865z"/></g><path stroke="#284E7B" d="M1.207 31.5H31.5V1.207L1.207 31.5z"/></g></svg>