<svg width="227" height="49" xmlns="http://www.w3.org/2000/svg" xmlns:xlink="http://www.w3.org/1999/xlink"><defs><path id="a" d="M0 0h63v41H0z"/><path id="c" d="M0 49h227V0H0z"/></defs><g fill="none" fill-rule="evenodd"><mask id="b" fill="#fff"><use xlink:href="#a"/></mask><path d="M59.114 41H3.886C1.739 41 0 39.314 0 37.236V3.764C0 1.686 1.739 0 3.886 0h55.228C61.261 0 63 1.686 63 3.764v33.472C63 39.314 61.261 41 59.114 41" fill="#E75300" mask="url(#b)"/><path d="M89.417 18.483c0 2.718-1.69 4.917-3.942 5.728 2.486.83 4.525 3.143 4.525 6.055C90 35.435 86.291 38 79.766 38H68V11h11.106c6.33 0 10.311 2.333 10.311 7.483zM73 22h5.366C80.974 22 83 21.469 83 18.973 83 16.569 80.937 16 78.347 16H73v6zm0 10.982l6.104.018C82.128 33 84 32.359 84 29.973 84 27.623 82.128 27 79.104 27H73v5.982z" fill="#333E48"/><mask id="d" fill="#fff"><use xlink:href="#c"/></mask><path fill="#333E48" mask="url(#d)" d="M94 38h5V11h-5zm54.5 0c-6.79 0-11.5-3.731-11.5-11.066V11h5.34v15.67c0 4.338 2.5 6.271 6.16 6.271 3.662 0 6.16-1.933 6.16-6.27V11H160v15.934C160 34.27 155.288 38 148.5 38m16.5 0h5V11h-5zm22.675-21.966V38h-5.351V16.034H174V11h22v5.034zM212.754 38h-5.373V27.335L197 11h6.317l6.779 11.456L216.876 11H223l-10.246 16.354z"/><path fill="#FEFEFE" mask="url(#d)" d="M14.832 38L5 11h5.55l7.497 21.542L25.58 11H31l-9.832 27zM45.5 38C38.71 38 34 34.269 34 26.935V11h5.34v15.671c0 4.338 2.499 6.27 6.16 6.27s6.16-1.932 6.16-6.27V11H57v15.935C57 34.269 52.29 38 45.5 38M34 8h23V4H34z"/><path fill="#333E48" mask="url(#d)" d="M116 41h5V24h-5z"/><path d="M117.99 11C109.769 11 104 16.854 104 24.847c0 6.372 3.672 11.384 9.33 13.153v-5.712c-2.332-1.476-3.79-4.122-3.79-7.441 0-5.188 3.558-8.736 8.45-8.736 4.93 0 8.45 3.548 8.45 8.736 0 3.318-1.44 5.964-3.77 7.44v5.707c5.646-1.777 9.33-6.783 9.33-13.147C132 16.854 126.195 11 117.99 11" fill="#333E48" mask="url(#d)"/><path fill="#000" mask="url(#d)" d="M224.416 13v-1.763H224V11h1v.237h-.417V13zm.584 0v-2h.417l.497 1.416c.045.132.079.23.1.296.024-.072.062-.18.112-.32l.502-1.392H227v2h-.266v-1.673L226.125 13h-.251l-.607-1.702V13H225z"/><path d="M95 45.996h1.107c.591 0 .893-.161.893-.498 0-.331-.302-.498-.893-.498H95v.996zM95.03 49H94v-5h2.109c1.233 0 1.891.622 1.891 1.59 0 .962-.658 1.582-1.884 1.582H95.03V49zm4.97-3.091h1.142c.568 0 .858-.146.858-.462 0-.309-.305-.447-.858-.447H100v.909zm2.992-.388c0 .821-.577 1.38-1.55 1.477L103 49h-1.222l-1.474-1.988h-.296V49H99v-5h2.138c1.207 0 1.854.564 1.854 1.521zM104 49v-5h2.977v.914H104.8v1.107h2.077v.915H104.8v1.15h2.2V49zm9.097 0v-3.774l-1.119 3.293h-.955l-1.12-3.265V49H109v-5h1.324l1.177 3.375L112.676 44H114v5zM116 49h.742v-5H116zm4 0c-1.18 0-2-.692-2-2.05V44h.929v2.901c0 .803.434 1.162 1.071 1.162s1.071-.359 1.071-1.162V44H122v2.95c0 1.358-.82 2.05-2 2.05m7.097 0v-3.774l-1.119 3.293h-.955l-1.12-3.265V49H123v-5h1.324l1.177 3.375L126.675 44H128v5zM136 45.081l-.719.507c-.24-.417-.616-.665-1.086-.665-.757 0-1.323.64-1.323 1.576 0 .967.584 1.578 1.323 1.578.468 0 .843-.239 1.095-.661l.683.564c-.377.626-1 1.02-1.772 1.02-1.293 0-2.201-1.051-2.201-2.5s.908-2.5 2.201-2.5c.777 0 1.453.41 1.799 1.081m3 1.419c0 .89.631 1.5 1.501 1.5.874 0 1.499-.61 1.499-1.5s-.625-1.5-1.499-1.5c-.87 0-1.501.61-1.501 1.5m4 0c0 1.442-1.039 2.5-2.502 2.5-1.47 0-2.498-1.058-2.498-2.5s1.029-2.5 2.498-2.5c1.463 0 2.502 1.058 2.502 2.5m4.163 2.5l-2.268-3.339-.003 3.339H144v-5h.836l2.27 3.34V44H148v5zm5.324-4.068V49h-.974v-4.068H150V44h4v.932zM155 49v-5h2.977v.914H155.8v1.107h2.077v.915H155.8v1.15h2.2V49zm8.164 0l-2.27-3.339L160.89 49H160v-5h.835l2.271 3.34V44H164v5zm5.322-4.068V49h-.973v-4.068H166V44h4v.932zm6.637-.041c-.537 0-.922.214-.922.579 0 .353.415.468.994.56l.272.043c.863.14 1.533.516 1.533 1.354 0 1.063-.935 1.573-1.97 1.573-.733 0-1.513-.214-2.03-.63l.5-.777c.35.277.91.522 1.534.522.536 0 .945-.21.945-.585 0-.333-.35-.453-1.022-.564l-.306-.048c-.848-.14-1.467-.509-1.467-1.384 0-1.009.893-1.534 1.917-1.534.679 0 1.232.152 1.84.515l-.453.785a2.602 2.602 0 0 0-1.365-.409M179 49v-5h2.977v.914H179.8v1.107h2.077v.915H179.8v1.15h2.2V49zm6-3.091h1.141c.568 0 .859-.146.859-.462 0-.309-.305-.447-.859-.447H185v.909zm2.992-.388c0 .821-.577 1.38-1.55 1.477L188 49h-1.221l-1.475-1.988h-.296V49H184v-5h2.14c1.205 0 1.852.564 1.852 1.521zM190.89 49L189 44h1.068l1.441 3.989L192.96 44H194l-1.89 5zm4.11 0h.742v-5H195zm7-3.919l-.719.507c-.24-.417-.615-.665-1.084-.665-.757 0-1.324.64-1.324 1.576 0 .967.583 1.578 1.324 1.578.467 0 .841-.239 1.093-.661l.684.564c-.377.626-1.001 1.02-1.772 1.02-1.294 0-2.202-1.051-2.202-2.5s.908-2.5 2.202-2.5c.776 0 1.453.41 1.798 1.081M204 49v-5h2.978v.914H204.8v1.107h2.08v.915h-2.08v1.15h2.2V49zm7.122-4.109c-.536 0-.922.214-.922.579 0 .353.417.468.995.56l.271.043c.864.14 1.534.516 1.534 1.354 0 1.063-.935 1.573-1.97 1.573-.733 0-1.514-.214-2.03-.63l.5-.777c.35.277.91.522 1.533.522.537 0 .945-.21.945-.585 0-.333-.35-.453-1.021-.564l-.307-.048c-.848-.14-1.468-.509-1.468-1.384 0-1.009.894-1.534 1.92-1.534.677 0 1.23.152 1.84.515l-.454.785c-.382-.233-.84-.409-1.366-.409" fill="#333E48" mask="url(#d)"/></g></svg>