<svg width="119" height="21" xmlns="http://www.w3.org/2000/svg" xmlns:xlink="http://www.w3.org/1999/xlink"><defs><path id="a" d="M0 20h96V0H0z"/></defs><g fill="none" fill-rule="evenodd"><path d="M93.04 3.029a.105.105 0 0 0-.035.055C92.89 3.502 94.727 5.155 97.26 6a5.389 5.389 0 0 1 2.231-2.856 7.36 7.36 0 0 1 1.51-.717 7.392 7.392 0 0 0-1.327-.327c-2.766-.413-6.214.559-6.633.929M105.906.06a.154.154 0 0 0-.033-.038C105.6-.142 104.13.629 103 2a13.35 13.35 0 0 1 2.94-.073c.103-.927.061-1.683-.034-1.867" fill="#8AC53F"/><path d="M112.714 4.96c-3.85-2.228-8.918-2.728-12.082-.605-4.492 3.014-3.107 11.277 3.188 14.922 6.489 3.757 14.494.94 15.133-4.308.45-3.694-2.393-7.78-6.24-10.009" fill="#ED2424"/><path d="M112.935 4.863c-3.659-2.052-8.433-2.576-11.373-.724-4.176 2.628-3.428 8.929 3.585 12.868 7.014 3.937 13.308 1.588 13.82-3.096.364-3.3-2.379-6.996-6.032-9.048" fill="#FEFEFE"/><path d="M108.988 9.616a1.177 1.177 0 0 0-.46-.508c-.098-.062-.223-.075-.333-.09l-.035-.003a2.835 2.835 0 0 0-.126-.013C108.018 9 107.928 9 107.928 9l-6.07.323c-.082.014-.16.03-.24.048l-.037.009c-.105.022-.223.05-.305.1-.147.087-.23.28-.258.43a.541.541 0 0 0-.005.252c.58 1.697 1.843 3.338 3.556 4.621h.003l.007.006a.38.38 0 0 0 .078.05c.198.103.418.158.654.16.195.003.314-.032.427-.124.126-.103.234-.22.337-.33.053-.058.103-.12.152-.175l2.679-4.356s.04-.092.047-.114c.012-.044.023-.08.03-.116l.005-.02c.01-.049.022-.102 0-.148" fill="#F9A61A"/><path d="M112.986 5.804a1.321 1.321 0 0 0-.465-.427 13.767 13.767 0 0 0-4.028-1.368.69.69 0 0 0-.393.049c-.075.034-.1.067-.1.116.003.068.017.14.037.224l-.002-.004.001.002 1.858 3.913s.066.119.081.14c.045.064.085.118.125.17a.67.67 0 0 0 .218.2c.157.085.322.142.494.169.137.022.22.014.29-.028a.971.971 0 0 0 .143-.115c.012-.007.067-.083.067-.083l1.662-2.725a.913.913 0 0 0 .022-.12l.001-.016a.157.157 0 0 0-.01-.097" fill="#F4E400"/><path d="M108.964 7.466c-.002-.015-.023-.08-.023-.08l-1.61-3.88c-.026-.042-.052-.08-.077-.118l-.01-.014c-.033-.049-.07-.105-.122-.145a1.25 1.25 0 0 0-.408-.19l-.018-.006a.877.877 0 0 0-.149-.031c-1.284-.03-2.465.263-3.413.843-.093.057-.121.185-.13.257a.313.313 0 0 0 .074.269c.079.087.175.172.26.247l4.726 3.19c.084.043.149.074.209.1l.028.013a.624.624 0 0 0 .22.077.542.542 0 0 0 .389-.13c.059-.051.096-.102.09-.187a1.337 1.337 0 0 0-.036-.215" fill="#F8DB01"/><path d="M107.995 9.13a.526.526 0 0 0-.138-.32 3.545 3.545 0 0 0-.274-.255l-5.008-3.338a7.332 7.332 0 0 0-.214-.104l-.03-.015c-.083-.037-.173-.079-.256-.089a1.005 1.005 0 0 0-.537.08l-.007.003c-.048.023-.103.048-.131.075-.963 1.033-1.445 2.42-1.397 4.006.037.2.15.404.312.559a.72.72 0 0 0 .37.207c.16.033.322.05.472.061l6.256-.337.064-.004s.164-.032.216-.048l.026-.006c.07-.02.15-.044.192-.086.084-.085.099-.257.084-.39" fill="#F7C213"/><path d="M116.986 9.508a2.916 2.916 0 0 0-.07-.098 1.45 1.45 0 0 0-.395-.333c-.082-.044-.168-.054-.242-.063l-.021-.003c-.03-.002-.058-.007-.084-.009L116.14 9l-3.757.31s-.046.008-.055.008c-.039.012-.074.022-.108.034l-.017.005a.365.365 0 0 0-.155.073c-.06.06-.054.198-.028.306.02.09.056.192.16.28.092.082.194.155.292.223l4.831 2.63c.058.022.128.05.199.073l.029.011c.066.024.14.052.192.046a.306.306 0 0 0 .248-.189.246.246 0 0 0 .03-.113c-.025-1.03-.376-2.132-1.014-3.19" fill="#EE4823"/><path d="M117.918 13.682a.825.825 0 0 0-.233-.337 4.979 4.979 0 0 0-.32-.238l-5.373-2.946c-.07-.027-.143-.058-.218-.084l-.03-.012c-.079-.029-.17-.063-.242-.065a.602.602 0 0 0-.409.157c-.064.058-.106.118-.09.213.016.107.05.22.082.323l.001.002 2.886 5.584c.093.13.17.235.244.33.086.106.166.2.287.257a1.251 1.251 0 0 0 .73.121c.01-.002.09-.036.095-.038 1.356-.622 2.277-1.613 2.666-2.866.02-.09-.01-.24-.076-.401" fill="#F16522"/><path d="M115.954 8.362a.79.79 0 0 0-.079-.172 12.916 12.916 0 0 0-2.705-2.987 1.074 1.074 0 0 0-.364-.18c-.091-.025-.158-.034-.206-.005a.671.671 0 0 0-.13.115l-.002.002-1.394 2.772s-.032.079-.035.09a1.524 1.524 0 0 0-.027.155l-.004.023a.3.3 0 0 0 .007.165c.067.154.181.312.319.44.089.082.165.14.27.167.099.026.198.04.29.053l3.884-.224.096-.033.01-.006c.041-.016.084-.032.101-.062.028-.054.017-.178-.031-.313" fill="#F1E91F"/><path d="M112.99 17.119a3.929 3.929 0 0 0-.11-.443l-2.637-6.076a3.092 3.092 0 0 0-.112-.172l-.015-.027a.793.793 0 0 0-.166-.197 1.135 1.135 0 0 0-.495-.194c-.132-.018-.23-.016-.307.044a1 1 0 0 0-.164.153c-.02.02-.11.16-.11.16l-2.794 5.166-.011.043a4.498 4.498 0 0 0-.021.07l-.009.034c-.025.096-.056.215-.028.312.072.256.219.498.41.68.068.064.143.136.215.173l.007.002c1.97.996 4.052 1.364 5.861 1.036v-.002c.158-.026.314-.167.42-.372a.564.564 0 0 0 .065-.39" fill="#F4821F"/><mask id="b" fill="#fff"><use xlink:href="#a"/></mask><path d="M95.97 11.444a6.16 6.16 0 0 0-.52-2.495 6.567 6.567 0 0 0-1.4-2.053 6.752 6.752 0 0 0-2.065-1.383A6.249 6.249 0 0 0 89.47 5a6.295 6.295 0 0 0-2.583.556 5.43 5.43 0 0 0-1.085.655c-.328.258-.59.538-.782.841v-1.32H83V20h2.049l-.03-8.55c0-.55.121-1.091.36-1.623.244-.531.564-1 .97-1.412a4.745 4.745 0 0 1 1.415-.981 4.034 4.034 0 0 1 1.702-.37c.6 0 1.165.112 1.703.343.542.227 1.012.54 1.416.94.405.397.723.862.955 1.394a4.28 4.28 0 0 1 .346 1.709l.027 8.55H96l-.03-8.556zM79 12.742a5.438 5.438 0 0 1-.467 1.907 5.595 5.595 0 0 1-1.29 1.745 6.112 6.112 0 0 1-1.917 1.18 6.293 6.293 0 0 1-2.327.426 6.31 6.31 0 0 1-2.325-.425 6.086 6.086 0 0 1-1.92-1.181 5.515 5.515 0 0 1-1.286-1.76A4.977 4.977 0 0 1 67 12.5c0-.752.155-1.463.468-2.135a5.498 5.498 0 0 1 1.287-1.755 6.076 6.076 0 0 1 1.919-1.183A6.286 6.286 0 0 1 72.999 7a6.27 6.27 0 0 1 4.245 1.61 5.53 5.53 0 0 1 1.289 1.755A5.02 5.02 0 0 1 79 12.5v.242zm2-7.088h-2.04V7.48l-.317-.298a8.167 8.167 0 0 0-2.532-1.596A8.273 8.273 0 0 0 72.998 5a8.254 8.254 0 0 0-5.657 2.194 7.626 7.626 0 0 0-1.716 2.387A6.957 6.957 0 0 0 65 12.5c0 1.034.21 2.008.625 2.915a7.51 7.51 0 0 0 1.716 2.388 8.088 8.088 0 0 0 2.546 1.61c.97.392 2.007.586 3.111.586a8.249 8.249 0 0 0 3.114-.585 8.084 8.084 0 0 0 2.53-1.596c.117-.107.223-.21.32-.3v1.826H81V5.654zm-16-.23h-3.627V0H59.43v5.425H58v1.9h1.43V19h1.943V7.324H65v-1.9zM55.463 8.95a6.406 6.406 0 0 0-1.391-2.053 6.824 6.824 0 0 0-2.079-1.383A6.294 6.294 0 0 0 49.468 5c-1.16 0-2.24.27-3.236.815-.997.541-1.785 1.257-2.366 2.15a6.986 6.986 0 0 0-2.277-2.15C40.672 5.27 39.642 5 38.504 5c-.87 0-1.707.186-2.508.559-.802.375-1.434.863-1.899 1.476V5.733H32L32.028 20h2.097l-.028-8.55a4 4 0 0 1 .347-1.636 4.69 4.69 0 0 1 .958-1.399 4.82 4.82 0 0 1 1.406-.981 3.976 3.976 0 0 1 1.696-.37 4.27 4.27 0 0 1 1.681.327c.519.218.98.523 1.373.91.397.393.718.856.958 1.397.243.542.382 1.127.42 1.752l.028 8.55h2.099l-.027-8.55c0-.606.113-1.177.346-1.71.23-.53.55-.996.956-1.394.405-.4.875-.712 1.406-.939a4.281 4.281 0 0 1 1.724-.342c.62 0 1.194.111 1.724.342a4.41 4.41 0 0 1 2.332 2.334c.234.532.35 1.103.35 1.709l.03 8.55H56l-.03-8.556a6.25 6.25 0 0 0-.507-2.495zM28 20h2V6h-2v14zm-.001-20A.971.971 0 0 0 27 1.001a.97.97 0 0 0 .999.999A.976.976 0 0 0 29 1.001.977.977 0 0 0 27.999 0zm-8.657 7.26a1.65 1.65 0 0 0-.311.444V5.067H17L17.03 19h2.022v-6.332c0-.78.155-1.522.466-2.217a5.652 5.652 0 0 1 1.276-1.825 5.925 5.925 0 0 1 1.899-1.228A5.997 5.997 0 0 1 25 6.95V5c-1.102 0-2.136.2-3.104.6-.968.4-1.818.954-2.554 1.66zM3.673 8.548a5.83 5.83 0 0 1 1.848-1.202 5.792 5.792 0 0 1 2.246-.433 5.8 5.8 0 0 1 2.245.433 5.835 5.835 0 0 1 1.85 1.202c.377.362.687.773.933 1.226H15l-.087-.192a7.356 7.356 0 0 0-1.654-2.383 7.798 7.798 0 0 0-2.47-1.612A7.821 7.821 0 0 0 7.768 5a7.844 7.844 0 0 0-5.493 2.194A7.59 7.59 0 0 0 .608 9.581 7.062 7.062 0 0 0 0 12.5c0 1.034.2 2.008.608 2.915.403.913.96 1.708 1.666 2.388A7.82 7.82 0 0 0 7.767 20c1.074 0 2.08-.194 3.023-.585a7.803 7.803 0 0 0 2.47-1.608 7.324 7.324 0 0 0 1.653-2.383l.087-.219h-2.176c-.264.473-.585.89-.962 1.252a5.88 5.88 0 0 1-1.85 1.2 5.836 5.836 0 0 1-2.245.431 5.84 5.84 0 0 1-4.094-1.632 5.584 5.584 0 0 1-1.245-1.787 5.313 5.313 0 0 1-.453-2.169c0-.764.152-1.487.453-2.169a5.584 5.584 0 0 1 1.245-1.784z" fill="#383838" mask="url(#b)"/><path d="M119 4.443a.528.528 0 0 0-.038-.207.327.327 0 0 0-.13-.148.485.485 0 0 0-.18-.073 1.828 1.828 0 0 0-.243-.015H118v1h.349c.114 0 .212-.01.294-.03a.454.454 0 0 0 .323-.283.767.767 0 0 0 .034-.244zM119 6h-.258l-.306-.773h-.215V6H118V4h.415a.97.97 0 0 1 .206.018c.054.011.107.04.16.085.055.05.097.11.123.181.026.07.04.159.04.266a.75.75 0 0 1-.076.354.59.59 0 0 1-.207.224L119 6zm1-1.5c0-.411-.147-.765-.44-1.059A1.445 1.445 0 0 0 118.5 3c-.415 0-.767.147-1.061.441A1.45 1.45 0 0 0 117 4.5c0 .411.146.764.439 1.059.294.294.646.441 1.06.441.415 0 .767-.147 1.061-.441a1.45 1.45 0 0 0 .44-1.06zm0 0c0 .414-.146.768-.44 1.06a1.44 1.44 0 0 1-1.06.44 1.44 1.44 0 0 1-1.06-.44A1.443 1.443 0 0 1 117 4.5c0-.414.146-.767.44-1.06A1.44 1.44 0 0 1 118.5 3c.414 0 .768.146 1.06.44.294.293.44.646.44 1.06z" fill="#383838"/></g></svg>