<svg width="119" height="45" xmlns="http://www.w3.org/2000/svg"><g fill="none" fill-rule="evenodd"><path fill="#4967A9" d="M0 45h119V0H0z"/><path d="M87.996 22C86.513 22 86 22.775 86 23.738v3.52c0 .966.513 1.742 1.996 1.742 1.48 0 2.004-.776 2.004-1.742v-3.52c0-.963-.524-1.738-2.004-1.738zM107 31h-4.335L99 25.212V31h-4V13.63l4-.63v11.182l3.665-5.498H107l-4.003 6L107 31zm-12-4.22c0 2.649-1.156 5.22-5.987 5.22C84.178 32 83 29.429 83 26.78v-2.56c0-2.65 1.178-5.22 6.013-5.22C93.844 19 95 21.57 95 24.22v2.56zm-13 0c0 2.649-1.155 5.22-5.987 5.22C71.176 32 70 29.429 70 26.78v-2.56c0-2.65 1.176-5.22 6.013-5.22C80.845 19 82 21.57 82 24.22v2.56zm-13-.176c0 3.12-.928 5.396-6.542 5.396-2.029 0-3.22-.172-5.458-.504V13.66l4.115-.66v6.24c.887-.319 2.038-.48 3.086-.48 4.113 0 4.799 1.774 4.799 4.625v3.219zm-13 .034h-7.118v.26c0 1.48.526 1.865 2.266 1.865 1.564 0 2.518-.076 4.527-.423v3.16c-1.937.397-2.947.5-4.85.5C46.658 32 45 29.807 45 26.638v-2.596C45 21.271 46.23 19 50.5 19c4.272 0 5.5 2.244 5.5 5.042v2.596zM44 22.66c-2.075-.345-2.67-.422-3.668-.422-1.792 0-2.335.385-2.335 1.863v2.798c0 1.479.543 1.864 2.335 1.864.998 0 1.593-.076 3.668-.423v3.16c-1.817.397-3 .5-4 .5-4.294 0-6-2.193-6-5.362v-2.27C34 21.196 35.706 19 40 19c1 0 2.183.103 4 .5v3.16zm-11 9.204h-3.334l-.144-.83a7.73 7.73 0 0 1-3.776.966C23.3 32 22 30.389 22 28.162c0-2.63 1.517-3.567 4.234-3.567h2.763v-.568c0-1.343-.155-1.735-2.246-1.735h-3.42L23.666 19h3.737C31.993 19 33 20.43 33 24.053v7.811zM18.984 32h-3.99v-9.5H13v-3.275h1.994V17.26c0-2.672 1.126-4.26 4.324-4.26h2.663v3.274h-1.663c-1.246 0-1.328.459-1.328 1.312l-.006 1.639H22l-.352 3.275h-2.664V32zm57.017-10C74.515 22 74 22.775 74 23.738v3.52c0 .966.515 1.742 2.001 1.742 1.48 0 1.999-.776 1.999-1.742v-3.52c0-.963-.519-1.738-1.999-1.738zM25 27.892c0 .73.345 1.108 1.106 1.108.817 0 1.299-.266 1.894-.539V27h-1.784c-.845 0-1.216.157-1.216.892zM50.5 22c-1.22 0-1.5.682-1.5 1.526V24h3v-.474c0-.844-.278-1.526-1.5-1.526zm12.68 0c-.89 0-1.531.278-2.18.56v6.383c.623.057.978.057 1.57.057 2.138 0 2.43-.93 2.43-2.225v-3.05C65 22.77 64.665 22 63.18 22zM109 31.099h.032c.037 0 .068-.014.068-.05 0-.024-.018-.049-.068-.049-.014 0-.024 0-.032.002v.097zm.22-.099H109v-.977a3.4 3.4 0 0 1 .391-.023c.211 0 .349.03.431.074a.214.214 0 0 1 .128.202c0 .128-.121.205-.271.238v.008c.121.015.205.092.232.236.032.152.068.21.089.242h-.232c-.034-.032-.068-.121-.095-.25-.033-.124-.119-.17-.3-.17h-.153V31zm-.224-1a.998.998 0 0 0-.996.998.997.997 0 0 0 1.003 1.002.988.988 0 0 0 .997-.997.996.996 0 0 0-.997-1.003h-.007zm.012 0a.99.99 0 0 1 .992.998.99.99 0 0 1-.998 1.002.997.997 0 0 1-1.002-1.002 1 1 0 0 1 1.002-.998h.006z" fill="#FEFEFE"/></g></svg>