<svg width="120" height="36" xmlns="http://www.w3.org/2000/svg" xmlns:xlink="http://www.w3.org/1999/xlink"><defs><path id="a" d="M0 35h120V0H0z"/></defs><g fill="none" fill-rule="evenodd"><path d="M.152 11.211c-.353-.641-.07-1.163.628-1.189h.05L11.59 10c.735 0 1.622.53 1.983 1.185l5.275 9.604c.36.656.057 1.187-.677 1.19L7.409 22c-.734.003-1.621-.53-1.981-1.183L.152 11.211zM20.09 22.758l3.089 5.563c.21.38.724.684 1.147.679l6.2-.064c.423-.003.594-.314.384-.694l-3.088-5.563c-.21-.379-.725-.683-1.147-.679l-6.2.063h-.022c-.407.014-.57.321-.363.695" fill="#83B440"/><path d="M19.861.375L13.375 8.82c-.443.577-.502 1.611-.132 2.313L18.667 21.4c.369.702 1.028.802 1.47.226l6.488-8.447c.443-.576.502-1.611.131-2.312L21.334.6c-.214-.406-.526-.61-.836-.6-.225.01-.45.132-.637.375m-.939 22.845l-3.707 4.992c-.255.341-.287.952-.076 1.367l3.1 6.066c.21.415.587.474.84.134l3.707-4.992c.253-.34.286-.952.075-1.365l-3.099-6.069c-.122-.239-.3-.36-.477-.353-.128.004-.258.077-.363.22" fill="#1091D0"/><mask id="b" fill="#fff"><use xlink:href="#a"/></mask><path fill="#1091D0" mask="url(#b)" d="M88 25h2V9h-2z"/><path d="M50.5 14c-3.034 0-5.496 2.517-5.496 5.622H45V30h2.118V19.622h.01c0-1.92 1.523-3.477 3.399-3.477 1.879 0 3.4 1.556 3.4 3.477 0 1.919-1.521 3.476-3.4 3.476a3.364 3.364 0 0 1-2.629-1.273v2.747c.775.428 1.662.67 2.603.67 3.038 0 5.499-2.517 5.499-5.62C56 16.517 53.539 14 50.5 14m12.002 0c-3.037 0-5.498 2.517-5.498 5.622H57V30h2.117V19.622h.012c0-1.92 1.521-3.477 3.398-3.477 1.88 0 3.401 1.556 3.401 3.477 0 1.919-1.521 3.476-3.4 3.476a3.364 3.364 0 0 1-2.63-1.273v2.747a5.37 5.37 0 0 0 2.604.67c3.036 0 5.498-2.517 5.498-5.62C68 16.517 65.538 14 62.502 14M37.499 9C34.461 9 32 11.472 32 14.52V25h2.118V14.52h.003a3.385 3.385 0 0 1 3.379-3.392 3.385 3.385 0 0 1 3.378 3.392h.003v1.2H35.44v2.125h5.441V25H43V14.52C43 11.472 40.538 9 37.499 9" fill="#83B440" mask="url(#b)"/><path d="M81.075 14.52c0-1.873 1.483-3.393 3.313-3.393v-.001H87V9h-2.613C81.412 9 79 11.471 79 14.52V25h2.075v-6.937h5.734v-2.126h-5.734V14.52zM98.92 14v6.834c-.027 1.376-1.097 2.483-2.422 2.483-1.32 0-2.391-1.107-2.417-2.483h-.003V14H92v6.842h.003c.024 2.198 1.492 4.03 3.458 4.517V30h2.08v-4.641c1.964-.487 3.432-2.32 3.457-4.517H101V14h-2.08zm11.906 6.332a3.353 3.353 0 0 1-1.593 2.094 3.41 3.41 0 0 1-4.645-1.235 3.37 3.37 0 0 1 1.245-4.618 3.415 3.415 0 0 1 3.962.406l-4.785 2.745 1.065 1.835 2.215-1.272 4.477-2.568a5.434 5.434 0 0 0-.443-.968c-1.528-2.63-4.912-3.532-7.557-2.013a5.478 5.478 0 0 0-2.024 7.511c1.527 2.63 4.91 3.532 7.556 2.013a5.481 5.481 0 0 0 2.701-3.93h-2.174zm8.74-6.332a5.55 5.55 0 0 0-3.421 1.174V14.05H114V25h2.145v-5.452a3.415 3.415 0 0 1 3.42-3.41v-.002H120V14h-.434z" fill="#1091D0" mask="url(#b)"/><path d="M75.508 19.776l-5.15-2.55a.557.557 0 0 1-.236-.714.507.507 0 0 1 .462-.311v-.005h5.876V14h-5.876v.002c-.973.002-1.903.583-2.341 1.58-.602 1.368-.046 2.993 1.239 3.636l5.15 2.55.002.002a.554.554 0 0 1 .247.72.509.509 0 0 1-.463.311v.003h-6.022V25h6.022v-.001c.971-.002 1.901-.585 2.34-1.581.602-1.371.044-3.003-1.25-3.642" fill="#83B440" mask="url(#b)"/></g></svg>