<svg width="120" height="43" xmlns="http://www.w3.org/2000/svg" xmlns:xlink="http://www.w3.org/1999/xlink"><defs><path id="a" d="M9 0v20H0V0h9z"/><path id="c" d="M36 43H0V0h36v43z"/></defs><g fill="none" fill-rule="evenodd"><path fill="#485560" d="M12.766 11v8.365h-8.53V11H0v21h4.235v-8.76h8.53V32H17V11zM44.53 30C42.066 30 40 27.745 40 25c0-2.778 2.034-5 4.53-5 2.405 0 4.47 2.288 4.47 4.968C49 27.712 46.966 30 44.53 30m.53-13.855c-1.855 0-3.284.631-4.44 2.02V11H37v10.89c0 3.661.03 4.103.548 5.681C38.582 30.791 41.563 33 44.909 33 49.472 33 53 29.307 53 24.573c0-4.64-3.56-8.428-7.94-8.428M77.53 30C75.035 30 73 27.778 73 25c0-2.745 2.065-5 4.53-5 2.435 0 4.47 2.287 4.47 5.033C82 27.712 79.935 30 77.53 30m.378-14c-3.345 0-6.326 2.21-7.36 5.429-.517 1.578-.548 2.02-.548 5.682V38h3.62v-7.165c1.156 1.389 2.586 2.02 4.44 2.02 4.38 0 7.94-3.787 7.94-8.428C86 19.693 82.471 16 77.908 16m-15.756 3.832l-1.88-.629c-1-.346-1.635-1.1-1.635-2.043 0-1.257 1.09-2.137 2.757-2.137 1.273 0 2.06.377 3.212 1.477l.424.409 2.758-2.798C65.636 11.63 64.333 11 61.273 11c-3.97 0-6.849 2.672-6.849 6.349 0 2.86 1.667 4.965 4.788 6.002l1.607.535c2.333.786 2.968 1.382 2.968 2.64 0 1.446-1.211 2.42-2.968 2.42-1.667 0-2.88-.692-4.061-2.326L54 29.543C56.212 32.277 57.667 33 60.909 33 65 33 68 30.235 68 26.432c0-3.269-1.757-5.25-5.848-6.6"/><g transform="translate(111 12)"><mask id="b" fill="#fff"><use xlink:href="#a"/></mask><path d="M7.468 16.378c-2.667 0-3.501-.619-3.501-2.662V7.804h3.967V4.399H3.967V0L0 1.826v11.89C0 18.112 1.9 20 6.3 20c.533 0 .8-.031 1.634-.062L9 16.224c-.733.124-1.033.154-1.532.154" fill="#485560" mask="url(#b)"/></g><path d="M29.427 25.28c0 1.83-1.469 3.311-3.28 3.311h-.176c-1.812 0-3.28-1.482-3.28-3.31V16H19v9.38c0 3.656 2.937 6.62 6.56 6.62h.88c3.623 0 6.56-2.964 6.56-6.62V16h-3.573v9.28z" fill="#485560"/><g transform="translate(72)"><mask id="d" fill="#fff"><use xlink:href="#c"/></mask><path d="M26 29c-3.314 0-6-2.463-6-5.5 0-3.038 2.686-5.5 6-5.5 3.313 0 6 2.462 6 5.5 0 3.037-2.687 5.5-6 5.5m1.156-14.918V9.518c1.611-.436 2.796-1.88 2.796-3.597 0-2.063-1.709-3.736-3.816-3.736-2.108 0-3.817 1.673-3.817 3.736 0 1.587 1.012 2.939 2.438 3.48v4.681a10.133 10.133 0 0 0-3.662 1.154L8.043 5.628c.197-.476.31-.995.31-1.54C8.352 1.831 6.482 0 4.175 0 1.87 0 0 1.83 0 4.088c0 2.259 1.87 4.089 4.176 4.089.877 0 1.69-.266 2.363-.718l12.538 9.229c-1.945 1.793-3.165 4.33-3.165 7.151 0 3.528 1.903 6.613 4.754 8.348l-3.107 4.842a3.091 3.091 0 0 0-.352-.02c-1.69 0-3.06 1.34-3.06 2.995 0 1.654 1.37 2.996 3.06 2.996s3.061-1.342 3.061-2.996c0-.68-.235-1.306-.625-1.808l3.212-5.006c.978.31 2.019.483 3.101.483C31.503 33.673 36 29.27 36 23.839c0-5.032-3.864-9.175-8.844-9.757" fill="#ED6D23" mask="url(#d)"/></g><path d="M75.585 3.837c-.448.807-1.073 1.31-1.396 1.124-.323-.185-.222-.99.226-1.797.449-.808 1.074-1.311 1.396-1.126.323.186.222.991-.226 1.799m23.095-.823c.822.065 1.409.336 1.309.604-.1.268-.846.433-1.668.368-.823-.065-1.41-.336-1.31-.604.099-.268.846-.433 1.67-.368M87.73 38.558c.53-.495 1.084-.699 1.232-.455.15.243-.16.844-.691 1.339-.532.495-1.084.7-1.234.455-.148-.244.16-.844.693-1.339" fill="#FEDBA5"/></g></svg>