<svg width="120" height="35" xmlns="http://www.w3.org/2000/svg" xmlns:xlink="http://www.w3.org/1999/xlink"><defs><path id="a" d="M0 35h120V1H0z"/></defs><g fill="none" fill-rule="evenodd"><path fill="#50C5DA" d="M27 35h6V10h-6z"/><path fill="#BDD63F" d="M14 35h6V10h-6z"/><path fill="#3B3A3B" d="M0 6h6V0H0z"/><path d="M27 29h6V10h-6zm-13 0h6V10h-6z"/><path fill="#20B794" d="M27.727 10L14 35h6.272L34 10z"/><path fill="#E79124" d="M13.728 10L0 35h6.274L20 10z"/><path fill="#3B3A3B" d="M0 35h6V10H0z"/><path fill="#C0922C" d="M20 10l-6 11 .004-11z"/><path fill="#188E8C" d="M27.005 10L27 21l6-11z"/><path fill="#352712" d="M0 33.976V34h6v-.024h-.003L6 23z"/><path fill="#8EB93E" d="M14 33.976V34h6v-.024h-.004L20 23z"/><path fill="#3C3A3C" d="M42 24h2.48l2.022 3.484L48.52 24H51v9h-2.334v-5.169l-2.16 3.524h-.049l-2.145-3.499V33H42zm10 0h6.937v2.122h-4.58v1.362h4.149v1.968h-4.148v1.426H59V33h-7z"/><g transform="translate(0 -1)"><path d="M61 24h3.246c.756 0 1.425.11 2.016.33.59.216 1.088.523 1.493.916.405.396.714.865.927 1.408.213.546.318 1.143.318 1.796v.024c0 .65-.109 1.253-.325 1.807a4.071 4.071 0 0 1-.938 1.432c-.41.403-.913.72-1.511.945-.597.228-1.274.342-2.028.342H61v-9zm2.872 7c.638 0 1.154-.213 1.542-.646.39-.432.586-1.044.586-1.838v-.028c0-.788-.195-1.398-.586-1.832-.388-.438-.904-.656-1.542-.656H63v5h.872z" fill="#3C3A3C"/><mask id="b" fill="#fff"><use xlink:href="#a"/></mask><path fill="#3C3A3C" mask="url(#b)" d="M70 33h2v-9h-2zm6.805-9h2.387L83 33h-2.658l-.65-1.597h-3.449L75.603 33H73l3.805-9zM79 30l-.992-3L77 30h2zm-37-9h2v-9h-2zm12-9h-2.311v4.757L48.196 12H46v9h2.312v-4.94L51.938 21H54zm8 0h-7v9h2.426v-3.216h4.137v-2.082h-4.137v-1.517H62zm7.939 0H63v9h7v-2.123h-4.644V17.45h4.15v-1.967h-4.15V14.12h4.583zm5.459 0c-.635 0-1.22.115-1.756.345a4.158 4.158 0 0 0-1.389.958 4.47 4.47 0 0 0-.918 1.433A4.622 4.622 0 0 0 71 16.498v.024a4.62 4.62 0 0 0 1.258 3.21c.384.4.84.712 1.365.934a4.264 4.264 0 0 0 1.68.334c.462 0 .877-.049 1.247-.147.369-.1.703-.237 1-.409a3.75 3.75 0 0 0 .8-.619c.233-.238.45-.5.65-.78l-1.741-1.288c-.128.159-.256.3-.387.428a2.855 2.855 0 0 1-.419.334 1.76 1.76 0 0 1-.489.217 2.16 2.16 0 0 1-.59.074c-.292 0-.56-.06-.805-.18a1.944 1.944 0 0 1-.624-.488 2.315 2.315 0 0 1-.411-.737c-.1-.282-.15-.586-.15-.907v-.024c0-.314.05-.61.15-.89.1-.28.235-.526.41-.73.177-.205.383-.369.625-.488a1.81 1.81 0 0 1 .805-.178c.407 0 .753.09 1.04.272.284.18.547.427.785.74l1.74-1.398a4.646 4.646 0 0 0-.625-.726 3.745 3.745 0 0 0-.788-.576 3.901 3.901 0 0 0-.959-.37 4.824 4.824 0 0 0-1.169-.13M88 12h-8v2.185h2.737V21h2.527v-6.815H88zm1 9h2v-9h-2zm8.006-2c-.3 0-.572-.069-.82-.203a2.07 2.07 0 0 1-.632-.551 2.624 2.624 0 0 1-.41-.794A3.103 3.103 0 0 1 95 16.5v-.027c0-.336.046-.653.14-.953.093-.3.227-.561.403-.785a2.05 2.05 0 0 1 .627-.538c.244-.132.514-.197.813-.197.298 0 .572.066.817.205.248.138.46.318.64.55.179.228.317.493.414.791.098.302.146.618.146.954v.026c0 .336-.048.654-.146.952a2.647 2.647 0 0 1-.404.789 1.9 1.9 0 0 1-.627.535 1.693 1.693 0 0 1-.817.198m.506-7a4.52 4.52 0 0 0-1.79.352 4.445 4.445 0 0 0-1.432.964 4.384 4.384 0 0 0-.952 1.431 4.555 4.555 0 0 0-.338 1.75v.024a4.48 4.48 0 0 0 1.277 3.166 4.41 4.41 0 0 0 1.42.96c.55.235 1.146.353 1.792.353a4.495 4.495 0 0 0 3.223-1.317 4.46 4.46 0 0 0 .949-1.436c.227-.55.339-1.132.339-1.75v-.025c0-.618-.112-1.2-.34-1.74a4.42 4.42 0 0 0-.936-1.423 4.407 4.407 0 0 0-1.42-.957A4.52 4.52 0 0 0 97.511 12M111 12h-2.428v4.972c0 .624-.142 1.081-.428 1.375-.283.295-.663.443-1.144.443-.479 0-.86-.153-1.144-.463-.283-.305-.426-.778-.426-1.418V12H103v4.96c0 .689.091 1.287.276 1.797.184.51.448.932.79 1.265a3.2 3.2 0 0 0 1.254.739c.49.16 1.042.239 1.657.239.612 0 1.167-.078 1.662-.24a3.23 3.23 0 0 0 1.264-.738c.347-.333.618-.759.811-1.275.191-.52.286-1.136.286-1.851V12zm4.98 0c-.55 0-1.042.068-1.479.205-.438.136-.81.33-1.12.578a2.5 2.5 0 0 0-.707.878 2.59 2.59 0 0 0-.243 1.119v.024c0 .445.09.82.27 1.123.18.302.423.552.735.756.308.2.672.368 1.09.495.421.128.873.245 1.363.353.314.067.569.131.766.193.196.06.352.127.47.192.117.067.2.135.244.205.043.07.065.15.065.243v.024c0 .19-.09.338-.27.44-.178.105-.436.157-.777.157-1.066 0-2.056-.348-2.973-1.046L112 19.548a5.69 5.69 0 0 0 1.958 1.09 7.467 7.467 0 0 0 2.336.362 5.61 5.61 0 0 0 1.518-.193 3.462 3.462 0 0 0 1.168-.558 2.59 2.59 0 0 0 .752-.89c.178-.345.268-.746.268-1.19v-.026c0-.404-.078-.756-.235-1.049a2.138 2.138 0 0 0-.681-.75 4.362 4.362 0 0 0-1.08-.527c-.423-.144-.896-.27-1.421-.377a9.629 9.629 0 0 1-.778-.194 2.718 2.718 0 0 1-.486-.184.655.655 0 0 1-.248-.206.462.462 0 0 1-.073-.26v-.026c0-.156.076-.29.23-.395.153-.108.382-.162.687-.162.409 0 .834.073 1.276.217a5.24 5.24 0 0 1 1.292.64l1.27-1.707a5.383 5.383 0 0 0-1.67-.868c-.617-.196-1.318-.295-2.103-.295"/></g></g></svg>