<svg width="120" height="12" xmlns="http://www.w3.org/2000/svg" xmlns:xlink="http://www.w3.org/1999/xlink"><defs><path id="a" d="M0 12h120V0H0z"/></defs><g fill="none" fill-rule="evenodd"><path fill="#231F20" d="M9.717 1L6.06 7.031h-.034L2.352 1H0v11h2.386V5.615h.086l3.141 5.14H6.3l3.142-5.14h.085V12H12V1zm9.751 9C21.448 10 23 8.17 23 5.963 23 3.793 21.448 2 19.468 2 17.52 2 16 3.793 16 5.963 16 8.171 17.52 10 19.468 10zM26 5.974A5.999 5.999 0 0 1 19.967 12C16.62 12 14 9.334 14 5.974 14 2.684 16.62 0 19.967 0 23.315 0 26 2.684 26 5.974zm9.997 3.216c-.568.517-1.086.81-2.34.81H31V3h2.658c1.286 0 1.871.327 2.423.897.602.637.919 1.535.919 2.604 0 1.138-.368 2.035-1.003 2.689M34.187 1H29v11h5.187c2.079 0 3.278-.555 4.224-1.448C39.442 9.54 40 8.092 40 6.492c0-1.55-.523-2.931-1.487-3.926C37.533 1.574 36.215 1 34.187 1M43 12h8.987V9.928h-6.621V7.3h3.987V5.23h-3.987V3.09H52V1h-9zm22.541-3.757h-.034L61.232 1H60v11h1.065V3.005h.084l4.176 7.076h.3L69.8 3.005h.084V12H71V1h-1.2zM77.11 6.678h4.559v-.995h-4.56V2.011h7.526V1H76v11h9v-1.01h-7.89zm19.582 3.106c-.863.76-1.624 1.216-3.33 1.216H90V2h3.363c1.688 0 2.533.473 3.362 1.249C97.537 4.077 98 5.225 98 6.492c0 1.283-.497 2.465-1.308 3.292M93.394 1H89v11h4.394c2.02 0 3.054-.572 4.056-1.515C98.434 9.49 99 8.058 99 6.492c0-1.534-.533-2.915-1.47-3.908C96.512 1.605 95.397 1 93.394 1"/><mask id="b" fill="#fff"><use xlink:href="#a"/></mask><path fill="#231F20" mask="url(#b)" d="M103 12h1V1h-1zm9-5l2.448-5h.103L117 7h-5zm1.96-6L109 12h1.13l1.571-3.571h5.517L118.806 12H120l-4.96-11h-1.08z"/></g></svg>