<svg width="120" height="44" xmlns="http://www.w3.org/2000/svg" xmlns:xlink="http://www.w3.org/1999/xlink"><defs><path id="a" d="M10 0H0v31h10V0z"/><path id="c" d="M4 5H0V0h4v5z"/><path id="e" d="M5 5H0V0h5v5z"/><path id="g" d="M5 5H0V0h5z"/><path id="i" d="M5 5H0V0h5v5z"/><path id="k" d="M4 5H0V0h4v5z"/><path id="m" d="M5 5H0V0h5v5z"/><path id="o" d="M5 5H0V0h5v5z"/><path id="q" d="M4 5H0V0h4v5z"/><path id="s" d="M5 5H0V0h5v5z"/></defs><g fill="none" fill-rule="evenodd"><path d="M7 15.892c.732-.745 1.35-1.277 1.949-1.664.595-.386 1.341-.58 2.238-.58 1.41 0 2.413.49 3.01 1.47.596.98.896 2.271.896 3.872v10.437c0 .441-.217.724-.652.848-.434.124-1.017.215-1.75.27V31H21v-.373c-.245-.027-.51-.06-.794-.104a6.12 6.12 0 0 1-.794-.165 1.83 1.83 0 0 1-.63-.31c-.176-.14-.265-.304-.265-.497V17.376c0-1.877-.422-3.41-1.261-4.596-.842-1.187-2.049-1.78-3.623-1.78-.732 0-1.437.144-2.116.434a8.443 8.443 0 0 0-1.871 1.097 9.754 9.754 0 0 0-1.527 1.47c-.448.539-.82 1.042-1.118 1.511m-1.239 1.143v12.854c.055.277.152.476.29.6.137.125.304.215.497.27.193.055.415.09.664.104.25.013.511.048.787.104V31H0v-.413c.635-.056 1.18-.18 1.637-.373.456-.194.685-.51.685-.953V15.015c0-.221-.022-.386-.064-.496-.041-.11-.158-.236-.35-.374-.25-.138-.54-.296-.872-.475-.332-.18-.663-.339-.995-.477v-.248L5.472 11h.281l.009 5.655z" fill="#00ADEE"/><path d="M106 15.892c.733-.745 1.351-1.276 1.948-1.663.596-.386 1.343-.58 2.238-.58 1.412 0 2.416.49 3.013 1.469.596.98.894 2.272.894 3.872v10.437c0 .441-.217.724-.65.848-.435.125-1.018.215-1.751.27V31H120v-.373a19.96 19.96 0 0 1-.793-.104 6.112 6.112 0 0 1-.793-.164 1.84 1.84 0 0 1-.63-.31c-.177-.14-.265-.305-.265-.498V17.376c0-1.877-.422-3.409-1.262-4.596-.841-1.187-2.049-1.78-3.623-1.78-.731 0-1.438.144-2.117.435a8.458 8.458 0 0 0-1.871 1.097 9.64 9.64 0 0 0-1.528 1.47 14.895 14.895 0 0 0-1.117 1.51m-1.241 1.143v12.854c.056.277.153.476.292.6.137.125.304.214.496.27.194.056.415.09.664.104.248.013.51.048.788.103V31h-8v-.414c.635-.055 1.18-.18 1.637-.372.456-.194.684-.51.684-.953V15.015c0-.221-.021-.386-.062-.495-.043-.111-.159-.237-.353-.374a67.728 67.728 0 0 0-.87-.476c-.332-.18-.664-.339-.996-.477v-.248L104.47 11h.283l.008 5.655zM22 32v-.434c.335-.03.669-.065 1.004-.11.335-.044.635-.116.898-.219.266-.1.49-.238.67-.41a.87.87 0 0 0 .272-.654V15.262c0-.232-.02-.435-.062-.608-.041-.175-.16-.335-.356-.48a7.233 7.233 0 0 0-.9-.52 10.994 10.994 0 0 0-1.107-.479v-.26L28.073 11h.249v19.434c.056.29.174.501.356.63.182.132.397.226.65.283.25.06.522.094.814.11.293.013.58.05.858.109V32h-9zm5.426-25.579C27.043 6.807 26.566 7 26 7a1.913 1.913 0 0 1-1.408-.598A1.945 1.945 0 0 1 24 4.982c0-.574.19-1.047.574-1.42C24.957 3.186 25.432 3 26 3c.567 0 1.043.187 1.426.561.382.374.574.847.574 1.42s-.192 1.054-.574 1.44m56.362 11.142c.057-.346.216-.846.478-1.496a8.422 8.422 0 0 1 1.105-1.932 8.138 8.138 0 0 1 1.695-1.67 3.615 3.615 0 0 1 2.193-.718c1.244 0 2.237.385 2.976 1.151.737.766 1.106 1.686 1.106 2.757 0 .404-.05.708-.152.91-.102.204-.254.42-.456.652-.29.115-.622.187-1 .217-.375.03-.78.043-1.213.043-.669 0-1.275.007-1.825.022s-1.08.028-1.584.043c-.508.013-.813.021-1.334.021l-.194.592h12.069c-.086-1.214-.363-2.27-.825-3.165a6.858 6.858 0 0 0-1.805-2.234c-.739-.592-1.608-1.035-2.608-1.322-1-.29-2.065-.434-3.196-.434-1.392 0-2.66.296-3.805.889a9.359 9.359 0 0 0-2.912 2.322 10.675 10.675 0 0 0-1.848 3.233A10.57 10.57 0 0 0 80 21.067c0 1.503.232 2.928.696 4.275.463 1.344 1.124 2.516 1.979 3.514a8.805 8.805 0 0 0 3.107 2.322c1.218.548 2.567.822 4.044.822 1.189 0 2.269-.216 3.24-.65.97-.435 1.804-.984 2.499-1.65a8.146 8.146 0 0 0 1.653-2.191c.406-.796.667-1.511.782-2.15l-.348-.086c-.347 1.071-1.065 1.974-2.15 2.712-1.088.74-2.356 1.109-3.804 1.109-1.334 0-2.507-.248-3.52-.738a7.065 7.065 0 0 1-2.522-2.02c-.668-.853-1.174-1.836-1.523-2.95a11.68 11.68 0 0 1-.52-3.495c0-.318.014-.63.044-.932.028-.304.043-.572.043-.804l.088-.592zm-47.001.001c.057-.347.217-.847.478-1.497a8.432 8.432 0 0 1 1.106-1.931 8.114 8.114 0 0 1 1.695-1.67 3.613 3.613 0 0 1 2.193-.718c1.244 0 2.238.384 2.975 1.15.738.767 1.107 1.686 1.107 2.758 0 .404-.05.707-.152.91-.101.202-.254.42-.455.651a3.441 3.441 0 0 1-1 .217c-.376.03-.781.043-1.214.043-.669 0-1.276.007-1.826.022-.55.014-1.08.028-1.584.043a41.7 41.7 0 0 1-1.334.022l-.193.591h12.07c-.088-1.214-.364-2.269-.825-3.165a6.86 6.86 0 0 0-1.806-2.234c-.74-.591-1.609-1.034-2.61-1.322A11.413 11.413 0 0 0 42.218 11c-1.392 0-2.66.297-3.805.89a9.352 9.352 0 0 0-2.913 2.322 10.622 10.622 0 0 0-1.847 3.233A10.54 10.54 0 0 0 33 21.067c0 1.503.232 2.929.695 4.274.464 1.345 1.124 2.516 1.98 3.514a8.798 8.798 0 0 0 3.107 2.323C40 31.725 41.35 32 42.825 32c1.19 0 2.269-.216 3.24-.65.972-.435 1.805-.985 2.5-1.65a8.14 8.14 0 0 0 1.652-2.191c.406-.795.668-1.512.783-2.15l-.348-.086c-.347 1.07-1.064 1.974-2.151 2.712-1.086.739-2.355 1.108-3.803 1.108-1.334 0-2.507-.248-3.52-.738a7.065 7.065 0 0 1-2.523-2.019 9.19 9.19 0 0 1-1.523-2.95 11.674 11.674 0 0 1-.52-3.494c0-.319.014-.63.044-.933.028-.304.043-.572.043-.804l.088-.591z" fill="#545861"/><g transform="translate(51)"><mask id="b" fill="#fff"><use xlink:href="#a"/></mask><path d="M0 31v-.473c1.315-.085 2.187-.221 2.616-.406.43-.187.645-.508.645-.965V4.503c0-.23-.023-.4-.065-.515-.044-.115-.164-.244-.364-.387a58.929 58.929 0 0 1-1.16-.663 11.6 11.6 0 0 0-1.285-.666v-.256L6.525 0h.3v29.37c0 .287.065.501.193.643.128.144.323.244.58.301.258.057.586.092.987.106.4.015.871.05 1.415.107V31H0z" fill="#545861" mask="url(#b)"/></g><path d="M76.365 28.514a5.656 5.656 0 0 1-1.698 2.013 6.98 6.98 0 0 1-2.436 1.126c-.914.232-1.876.347-2.887.347-1.198 0-2.332-.115-3.396-.347A13.316 13.316 0 0 1 63 30.657v-5.716h.302c.218.694.493 1.422.822 2.187.33.765.725 1.474 1.19 2.122a6.099 6.099 0 0 0 1.684 1.604c.658.418 1.438.626 2.342.626 1.313 0 2.36-.396 3.14-1.191.78-.793 1.17-2.013 1.17-3.659 0-.894-.267-1.637-.798-2.23-.535-.592-1.265-.988-2.196-1.19a40.974 40.974 0 0 1-2.131-.476c-.684-.174-1.3-.36-1.845-.564a5.139 5.139 0 0 1-2.524-1.947c-.641-.924-.963-2.036-.963-3.335 0-.895.177-1.703.535-2.424a5.858 5.858 0 0 1 1.44-1.862 6.34 6.34 0 0 1 2.093-1.191 7.708 7.708 0 0 1 2.54-.411c1.145 0 2.156.108 3.03.325a18.99 18.99 0 0 1 2.498.8l.491 5.37-.326.086a43.828 43.828 0 0 0-1.149-2.403 9.728 9.728 0 0 0-1.269-1.906 5.032 5.032 0 0 0-1.577-1.234c-.586-.288-1.263-.432-2.027-.432-.464 0-.921.086-1.372.26-.45.172-.846.425-1.188.757a3.9 3.9 0 0 0-.84 1.255c-.218.506-.327 1.09-.327 1.754 0 1.069.288 1.833.86 2.295.573.463 1.297.809 2.169 1.039.6.146 1.256.297 1.964.456.71.158 1.325.31 1.843.454 1.227.318 2.271.981 3.13 1.991C76.57 22.878 77 24.12 77 25.592c0 1.125-.212 2.099-.635 2.922" fill="#545861"/><g transform="translate(1 39)"><mask id="d" fill="#fff"><use xlink:href="#c"/></mask><path d="M4 2.5C4 3.88 3.105 5 2 5S0 3.88 0 2.5.895 0 2 0s2 1.12 2 2.5" fill="#545861" mask="url(#d)"/></g><g transform="translate(15 39)"><mask id="f" fill="#fff"><use xlink:href="#e"/></mask><path d="M5 2.5a2.5 2.5 0 1 1-5.001-.001 2.5 2.5 0 0 1 5.001 0" fill="#545861" mask="url(#f)"/></g><g transform="translate(30 39)"><mask id="h" fill="#fff"><use xlink:href="#g"/></mask><path d="M5 2.5a2.5 2.5 0 1 1-5 0 2.5 2.5 0 0 1 5 0" fill="#545861" mask="url(#h)"/></g><g transform="translate(44 39)"><mask id="j" fill="#fff"><use xlink:href="#i"/></mask><path d="M5 2.5a2.5 2.5 0 1 1-5.002-.001 2.5 2.5 0 0 1 5.002 0" fill="#545861" mask="url(#j)"/></g><g transform="translate(57 39)"><mask id="l" fill="#fff"><use xlink:href="#k"/></mask><path d="M4 2.5C4 3.88 3.105 5 2 5S0 3.88 0 2.5.895 0 2 0s2 1.12 2 2.5" fill="#545861" mask="url(#l)"/></g><g transform="translate(71 39)"><mask id="n" fill="#fff"><use xlink:href="#m"/></mask><path d="M5 2.5a2.5 2.5 0 1 1-5 0 2.5 2.5 0 0 1 5 0" fill="#545861" mask="url(#n)"/></g><g transform="translate(86 39)"><mask id="p" fill="#fff"><use xlink:href="#o"/></mask><path d="M5 2.5a2.5 2.5 0 1 1-5.002-.001 2.5 2.5 0 0 1 5.002 0" fill="#545861" mask="url(#p)"/></g><g transform="translate(113 39)"><mask id="r" fill="#fff"><use xlink:href="#q"/></mask><path d="M4 2.5C4 3.88 3.105 5 2 5S0 3.88 0 2.5.895 0 2 0s2 1.12 2 2.5" fill="#545861" mask="url(#r)"/></g><g transform="translate(100 39)"><mask id="t" fill="#fff"><use xlink:href="#s"/></mask><path d="M5 2.5a2.501 2.501 0 0 1-5 0 2.5 2.5 0 0 1 5 0" fill="#545861" mask="url(#t)"/></g></g></svg>