<svg width="258" height="27" xmlns="http://www.w3.org/2000/svg"><path d="M144.168 10.384c1.32 0 2.392-.335 3.21-1.004.819-.669 1.227-1.695 1.227-3.073 0-1.377-.408-2.399-1.227-3.069-.818-.67-1.89-1.004-3.21-1.004h-6.533v8.15h6.533zm.418-9.77c.894 0 1.703.124 2.43.377a5.135 5.135 0 0 1 1.87 1.115 4.939 4.939 0 0 1 1.199 1.802c.28.707.418 1.508.418 2.4 0 .896-.137 1.695-.418 2.403a4.882 4.882 0 0 1-1.2 1.798 5.058 5.058 0 0 1-1.87 1.117c-.726.253-1.535.378-2.43.378h-6.95v8.542h-1.898V.613h8.849zm18.453 19.932v-2.595h-.055c-.466.967-1.14 1.708-2.023 2.22-.884.51-1.866.766-2.945.766-.914 0-1.69-.125-2.331-.376-.644-.25-1.165-.61-1.565-1.075-.4-.465-.694-1.034-.88-1.702-.185-.672-.277-1.435-.277-2.292v-9.35h1.758v9.381c.037 1.301.34 2.29.906 2.96.568.668 1.55 1.003 2.947 1.003.76 0 1.413-.162 1.953-.488a4.138 4.138 0 0 0 1.34-1.297 5.842 5.842 0 0 0 .78-1.858 9.09 9.09 0 0 0 .254-2.136V6.142h1.758v14.404h-1.62zm4.968 0h1.758V.613h-1.758zm13.43-11.599c-.206-.4-.48-.73-.824-.991a3.374 3.374 0 0 0-1.187-.571 5.421 5.421 0 0 0-1.422-.18c-.391 0-.787.04-1.187.125a3.566 3.566 0 0 0-1.102.418 2.361 2.361 0 0 0-.811.768c-.206.316-.306.706-.306 1.172 0 .39.098.722.293.992.195.268.44.496.739.68.298.19.623.342.976.462.353.123.682.22.979.296l2.344.53a6.645 6.645 0 0 1 1.495.403c.49.196.93.454 1.312.769.38.315.692.706.934 1.172.244.466.364 1.015.364 1.648 0 .782-.178 1.448-.531 1.995a4.312 4.312 0 0 1-1.355 1.34 5.747 5.747 0 0 1-1.856.742 9.664 9.664 0 0 1-2.038.22c-1.692 0-3.065-.398-4.117-1.2-1.052-.798-1.652-2.083-1.8-3.853h1.758c.075 1.192.506 2.09 1.297 2.694.79.606 1.773.909 2.947.909.426 0 .869-.048 1.325-.14a4.263 4.263 0 0 0 1.27-.473c.393-.226.713-.51.963-.852.25-.346.379-.768.379-1.271 0-.426-.09-.787-.266-1.075a2.306 2.306 0 0 0-.713-.726 4.464 4.464 0 0 0-1.02-.488c-.38-.131-.766-.241-1.156-.336l-2.262-.501a12.947 12.947 0 0 1-1.592-.516 5.136 5.136 0 0 1-1.27-.725 3.078 3.078 0 0 1-.851-1.063c-.206-.42-.308-.937-.308-1.55 0-.726.162-1.35.488-1.87a3.822 3.822 0 0 1 1.272-1.257 5.974 5.974 0 0 1 1.743-.697 8.394 8.394 0 0 1 1.913-.225c.726 0 1.4.095 2.023.28a4.62 4.62 0 0 1 1.648.867c.476.39.85.874 1.132 1.452.278.576.436 1.255.473 2.036h-1.758c-.02-.538-.13-1.01-.335-1.41m15.144 1.468a5.225 5.225 0 0 0-.909-1.633 4.492 4.492 0 0 0-1.422-1.146c-.559-.288-1.192-.431-1.898-.431-.727 0-1.37.143-1.928.43a4.507 4.507 0 0 0-1.423 1.146 5.711 5.711 0 0 0-.936 1.646 8.054 8.054 0 0 0-.46 1.914h9.324a6.322 6.322 0 0 0-.348-1.926m-8.71 5.374a5.42 5.42 0 0 0 .85 1.827c.39.541.884.986 1.48 1.34.596.354 1.312.53 2.151.53 1.284 0 2.29-.335 3.015-1.003.726-.672 1.227-1.566 1.507-2.681h1.758c-.373 1.639-1.057 2.901-2.05 3.799-.998.89-2.407 1.335-4.23 1.335-1.137 0-2.119-.2-2.945-.598a5.421 5.421 0 0 1-2.026-1.648 7.164 7.164 0 0 1-1.157-2.428 10.954 10.954 0 0 1-.378-2.918c0-.95.125-1.877.378-2.791a7.492 7.492 0 0 1 1.157-2.443 5.845 5.845 0 0 1 2.026-1.732c.826-.436 1.808-.657 2.945-.657 1.152 0 2.138.236 2.957.7a5.902 5.902 0 0 1 2 1.83c.51.752.877 1.617 1.1 2.595.223.976.316 1.967.281 2.973h-11.086c0 .632.09 1.287.266 1.97m29.721-5.405c1.32 0 2.392-.335 3.21-1.004.82-.669 1.227-1.695 1.227-3.073 0-1.377-.408-2.399-1.227-3.069-.818-.67-1.89-1.004-3.21-1.004h-6.533v8.15h6.533zm.418-9.77c.894 0 1.703.124 2.43.377a5.14 5.14 0 0 1 1.87 1.115 4.951 4.951 0 0 1 1.2 1.802c.28.707.417 1.508.417 2.4 0 .896-.137 1.695-.418 2.403a4.894 4.894 0 0 1-1.199 1.798 5.062 5.062 0 0 1-1.87 1.117c-.727.253-1.536.378-2.43.378h-6.95v8.542h-1.899V.613h8.85zm8.429 19.932h1.758V.613h-1.758zm15.187 0v-2.595h-.055c-.466.967-1.139 1.708-2.023 2.22-.884.51-1.866.766-2.945.766-.914 0-1.69-.125-2.33-.376-.645-.25-1.166-.61-1.566-1.075a4.38 4.38 0 0 1-.879-1.702c-.186-.672-.278-1.435-.278-2.292v-9.35h1.758v9.381c.037 1.301.34 2.29.906 2.96.57.668 1.55 1.003 2.948 1.003.761 0 1.412-.162 1.953-.488.54-.325.986-.759 1.34-1.297a5.82 5.82 0 0 0 .78-1.858 9.09 9.09 0 0 0 .253-2.136V6.142h1.76v14.404h-1.622zM254.86 8.947c-.205-.4-.478-.73-.824-.991a3.374 3.374 0 0 0-1.187-.571 5.416 5.416 0 0 0-1.422-.18c-.391 0-.786.04-1.187.125a3.566 3.566 0 0 0-1.102.418 2.37 2.37 0 0 0-.811.768c-.205.316-.306.706-.306 1.172 0 .39.098.722.294.992.195.268.44.496.738.68.298.19.623.342.976.462.354.123.682.22.98.296l2.344.53a6.674 6.674 0 0 1 1.495.403 4.93 4.93 0 0 1 1.312.769c.38.315.69.706.934 1.172.243.466.363 1.015.363 1.648 0 .782-.178 1.448-.531 1.995a4.312 4.312 0 0 1-1.355 1.34 5.75 5.75 0 0 1-1.855.742 9.68 9.68 0 0 1-2.04.22c-1.691 0-3.064-.398-4.115-1.2-1.052-.798-1.653-2.083-1.801-3.853h1.758c.075 1.192.506 2.09 1.297 2.694.792.606 1.773.909 2.947.909.426 0 .869-.048 1.325-.14a4.263 4.263 0 0 0 1.27-.473 3.07 3.07 0 0 0 .964-.852c.25-.346.378-.768.378-1.271 0-.426-.09-.787-.265-1.075a2.32 2.32 0 0 0-.714-.726 4.476 4.476 0 0 0-1.02-.488 13.055 13.055 0 0 0-1.156-.336l-2.262-.501a12.947 12.947 0 0 1-1.592-.516 5.11 5.11 0 0 1-1.27-.725 3.08 3.08 0 0 1-.851-1.063c-.206-.42-.308-.937-.308-1.55 0-.726.163-1.35.488-1.87a3.822 3.822 0 0 1 1.272-1.257 5.974 5.974 0 0 1 1.743-.697 8.4 8.4 0 0 1 1.913-.225c.726 0 1.4.095 2.024.28a4.624 4.624 0 0 1 1.647.867c.476.39.852.874 1.132 1.452.278.576.436 1.255.474 2.036h-1.76c-.02-.538-.128-1.01-.334-1.41M126.32 4.13c.16 0 .313-.006.456-.017.144-.01.27-.04.382-.089a.599.599 0 0 0 .267-.225c.067-.1.1-.242.1-.424a.669.669 0 0 0-.09-.367.608.608 0 0 0-.23-.209 1.031 1.031 0 0 0-.324-.099 2.488 2.488 0 0 0-.361-.027h-.942V4.13h.743zm.314-2.032c.545 0 .949.108 1.21.324.262.217.393.545.393.984 0 .412-.115.714-.346.906a1.55 1.55 0 0 1-.858.34l1.309 2.021h-.765l-1.245-1.968h-.754v1.968h-.712V2.098h1.768zm-3.23 3.606c.165.41.392.763.682 1.063a3.184 3.184 0 0 0 2.308.964 3.13 3.13 0 0 0 2.287-.964c.29-.3.517-.654.68-1.063.165-.408.247-.853.247-1.334 0-.468-.082-.904-.246-1.309a3.213 3.213 0 0 0-.681-1.052 3.22 3.22 0 0 0-1.02-.702 3.129 3.129 0 0 0-1.267-.256 3.184 3.184 0 0 0-2.99 2.01 3.453 3.453 0 0 0-.245 1.31c0 .48.082.925.246 1.333zm-.643-2.873c.209-.475.494-.887.854-1.236a3.944 3.944 0 0 1 1.256-.82c.478-.2.985-.3 1.523-.3a3.87 3.87 0 0 1 1.518.3c.474.197.89.471 1.246.82.356.35.639.761.848 1.236.21.474.314.987.314 1.54 0 .564-.104 1.086-.314 1.564a3.982 3.982 0 0 1-.848 1.246 3.825 3.825 0 0 1-1.246.822 3.958 3.958 0 0 1-1.518.293 3.99 3.99 0 0 1-1.523-.293 3.848 3.848 0 0 1-1.256-.822 3.932 3.932 0 0 1-.854-1.246c-.21-.478-.314-1-.314-1.565 0-.552.104-1.065.314-1.539zM2.535.53L14.15 17.391h.057V.53h1.898v19.933h-2.122L2.369 3.6h-.057v16.862H.415V.53zm27.235 9.799a5.3 5.3 0 0 0-.907-1.634 4.505 4.505 0 0 0-1.424-1.144c-.56-.288-1.191-.433-1.898-.433-.726 0-1.37.145-1.927.433a4.528 4.528 0 0 0-1.424 1.144 5.723 5.723 0 0 0-.935 1.648 8.092 8.092 0 0 0-.461 1.912h9.325a6.364 6.364 0 0 0-.35-1.926m-8.71 5.374c.178.68.46 1.289.853 1.829.39.54.883.986 1.479 1.34.595.353 1.312.53 2.15.53 1.284 0 2.289-.335 3.014-1.005.727-.67 1.229-1.563 1.508-2.68h1.759c-.372 1.638-1.057 2.903-2.052 3.797-.996.893-2.405 1.339-4.23 1.339-1.135 0-2.117-.2-2.945-.6a5.423 5.423 0 0 1-2.024-1.647 7.16 7.16 0 0 1-1.158-2.428 11.052 11.052 0 0 1-.377-2.917c0-.95.126-1.88.377-2.792a7.504 7.504 0 0 1 1.158-2.444 5.831 5.831 0 0 1 2.024-1.731c.828-.437 1.81-.655 2.946-.655 1.153 0 2.139.232 2.958.697a5.893 5.893 0 0 1 1.997 1.829c.51.754.879 1.619 1.103 2.597.223.977.316 1.967.278 2.973H20.794c0 .633.088 1.289.266 1.968m18.914-9.646v1.48h-2.932v9.716c0 .577.079 1.028.238 1.353.158.326.553.508 1.186.545.503 0 1.005-.028 1.508-.084v1.48c-.261 0-.521.009-.782.028a11.34 11.34 0 0 1-.781.027c-1.173 0-1.993-.227-2.458-.683-.464-.456-.688-1.3-.67-2.527V7.537h-2.512v-1.48h2.513V1.73h1.758v4.327h2.932zm8.207 6.477h6.086L51.28 3.963h-.083l-3.016 8.57zM49.41.53h3.712L60.8 20.463h-3.741l-1.87-5.277h-7.957l-1.87 5.277H41.76L49.41.53zm21.663 10.329c-.13-.894-.488-1.567-1.074-2.024-.587-.455-1.326-.684-2.22-.684a4.56 4.56 0 0 0-1.312.209c-.465.14-.893.4-1.285.782-.39.382-.716.912-.976 1.59-.261.68-.391 1.569-.391 2.668 0 .596.07 1.19.209 1.786.14.596.363 1.126.67 1.592.308.465.702.842 1.187 1.13.483.289 1.07.433 1.758.433.93 0 1.699-.29 2.304-.866.605-.576.982-1.386 1.13-2.43h3.183c-.298 1.88-1.01 3.32-2.136 4.315-1.126.996-2.62 1.493-4.481 1.493-1.135 0-2.135-.19-3.001-.572a6.356 6.356 0 0 1-2.191-1.563 6.634 6.634 0 0 1-1.354-2.36 9.218 9.218 0 0 1-.46-2.958c0-1.08.148-2.095.446-3.044.298-.95.744-1.772 1.34-2.471a6.285 6.285 0 0 1 2.219-1.647c.884-.4 1.922-.6 3.113-.6.838 0 1.634.107 2.387.32a6.282 6.282 0 0 1 2.01.964 5.134 5.134 0 0 1 1.438 1.62c.372.652.595 1.423.67 2.317h-3.183zm17.533 9.603h-3.127v-2.01h-.056c-.39.726-.972 1.308-1.745 1.745-.772.437-1.558.656-2.358.656-1.9 0-3.272-.47-4.118-1.41-.847-.939-1.271-2.359-1.271-4.257V6.028h3.183v8.851c0 1.266.242 2.16.726 2.68.484.521 1.162.782 2.037.782.67 0 1.229-.103 1.676-.308.447-.204.81-.478 1.089-.823a3.17 3.17 0 0 0 .6-1.242 6.445 6.445 0 0 0 .18-1.564V6.028h3.184v14.434zm3.433.001h3.183V6.029h-3.183v14.434zm0-16.919h3.183V.529h-3.183v3.015zm5.194 2.485h2.4V1.702h3.183v4.327h2.876v2.373h-2.876v7.706c0 .335.015.623.042.865.028.243.093.447.195.615a.94.94 0 0 0 .46.377c.205.083.485.125.839.125.223 0 .446-.004.67-.014.223-.01.446-.042.67-.098v2.457c-.354.037-.698.074-1.033.112-.335.037-.68.055-1.033.055-.837 0-1.512-.08-2.024-.237-.513-.158-.912-.391-1.201-.698-.288-.307-.483-.693-.586-1.16a8.671 8.671 0 0 1-.182-1.59V8.403h-2.4V6.029zm9.017 0h3.488l3.77 10.776h.055l3.658-10.776h3.322l-5.61 15.216c-.263.65-.518 1.274-.77 1.87a6.671 6.671 0 0 1-.92 1.577 3.987 3.987 0 0 1-1.354 1.089c-.54.269-1.229.405-2.067.405-.744 0-1.479-.055-2.205-.168v-2.68c.26.038.512.08.753.126.242.046.493.07.754.07.372 0 .68-.047.922-.14.241-.094.441-.228.6-.405a2.53 2.53 0 0 0 .405-.628c.111-.242.214-.521.306-.837l.364-1.117-5.472-14.378z" fill="#FFF" fill-rule="evenodd"/></svg>