<svg width="138" height="32" xmlns="http://www.w3.org/2000/svg"><g fill="#FFF" fill-rule="evenodd"><path d="M12.213 18.855l.064.002c-.02-.002-.043-.002-.064-.002zm46.855-15.06h4.658l5.162 8.306 5.163-8.306h4.659v19.642h-4.266V10.613l-5.527 8.39h-.113l-5.471-8.305v12.74h-4.265zm28.778 16.304a3.439 3.439 0 0 0 2.581-1.137c.337-.365.604-.8.8-1.304.196-.506.295-1.076.295-1.712v-.056c0-.618-.099-1.183-.295-1.698a4.044 4.044 0 0 0-.8-1.32 3.507 3.507 0 0 0-1.164-.84 3.423 3.423 0 0 0-1.417-.295 3.42 3.42 0 0 0-1.417.295 3.36 3.36 0 0 0-1.15.84 4.194 4.194 0 0 0-.787 1.32 4.734 4.734 0 0 0-.294 1.698v.056c0 .617.098 1.183.294 1.697.197.515.458.954.786 1.319a3.389 3.389 0 0 0 2.568 1.137zM79.99 8.397h4.265v2.16a6.756 6.756 0 0 1 1.894-1.752c.74-.458 1.67-.688 2.792-.688.88 0 1.73.169 2.553.505a6.311 6.311 0 0 1 2.19 1.5c.635.665 1.144 1.479 1.528 2.442.383.964.575 2.073.575 3.326v.056c0 1.254-.192 2.36-.575 3.325-.384.964-.888 1.777-1.514 2.44a6.195 6.195 0 0 1-2.175 1.502 6.74 6.74 0 0 1-2.582.506c-1.14 0-2.08-.225-2.82-.674a7.516 7.516 0 0 1-1.866-1.571v6.454H79.99V8.397zm17.04 0h4.265v3.03c.429-1.028 1.019-1.851 1.767-2.47.748-.616 1.758-.897 3.03-.841v4.462h-.224c-1.421 0-2.54.43-3.353 1.29-.814.862-1.22 2.199-1.22 4.014v5.555H97.03V8.397zm10.297 15.04h4.265V8.397h-4.265zm5.563-15.04h4.265v2.15c.243-.32.508-.626.8-.918a5.59 5.59 0 0 1 .967-.777 4.8 4.8 0 0 1 1.18-.537c.43-.132.915-.2 1.458-.2 1.627 0 2.885.498 3.774 1.489.888.992 1.332 2.357 1.332 4.096v9.737h-4.264v-8.37c0-1.006-.225-1.767-.673-2.28-.449-.513-1.086-.77-1.909-.77-.824 0-1.473.257-1.95.77-.477.513-.715 1.274-.715 2.28v8.37h-4.266V8.397zm21.202 15.293c-.655 0-1.248-.07-1.78-.211a3.178 3.178 0 0 1-1.377-.743c-.384-.355-.683-.818-.898-1.39-.215-.57-.323-1.294-.323-2.174v-7.127h-1.796V8.397h1.796V4.553h4.266v3.844h3.535v3.648h-3.535v6.449c0 .976.458 1.464 1.375 1.464.748 0 1.45-.186 2.104-.561v3.423a6.61 6.61 0 0 1-1.487.632c-.543.158-1.169.238-1.88.238M36.51 14.704c-.13-.954-.468-1.726-1.01-2.315-.543-.589-1.262-.884-2.16-.884-.898 0-1.624.29-2.176.87-.55.58-.91 1.357-1.08 2.33h6.426zm-2.75 9.036c-1.122 0-2.165-.188-3.128-.562a7.23 7.23 0 0 1-2.498-1.599 7.406 7.406 0 0 1-1.64-2.456c-.394-.944-.59-1.996-.59-3.156v-.056c0-1.066.182-2.077.546-3.03a7.725 7.725 0 0 1 1.53-2.498A7.153 7.153 0 0 1 30.323 8.7c.908-.412 1.913-.618 3.016-.618 1.254 0 2.34.225 3.255.674a6.61 6.61 0 0 1 2.287 1.81 7.534 7.534 0 0 1 1.347 2.61 10.795 10.795 0 0 1 .422 3.605c-.01.187-.025.383-.043.59H30.141c.205.972.631 1.706 1.276 2.202.646.495 1.446.743 2.4.743.711 0 1.346-.12 1.907-.364.561-.244 1.141-.637 1.74-1.179l2.442 2.16a7.573 7.573 0 0 1-2.582 2.063c-1.01.496-2.198.744-3.564.744zm16.153-3.677c.618 0 1.165-.107 1.642-.322a3.63 3.63 0 0 0 1.22-.885c.337-.373.594-.808.772-1.304a4.651 4.651 0 0 0 .266-1.585v-.056c0-.562-.093-1.09-.28-1.586a4.03 4.03 0 0 0-.813-1.319 4.004 4.004 0 0 0-1.264-.912 3.777 3.777 0 0 0-1.6-.337c-.616 0-1.164.108-1.64.323a3.63 3.63 0 0 0-1.221.884 3.87 3.87 0 0 0-.771 1.305 4.633 4.633 0 0 0-.267 1.586v.056c0 .561.093 1.09.28 1.585a4.021 4.021 0 0 0 2.063 2.231c.476.224 1.014.336 1.613.336m-.056 3.676c-1.16 0-2.236-.2-3.227-.603a7.89 7.89 0 0 1-2.568-1.656 7.7 7.7 0 0 1-1.697-2.469 7.526 7.526 0 0 1-.617-3.044v-.056c0-1.085.205-2.1.617-3.045a7.741 7.741 0 0 1 1.712-2.483 8.127 8.127 0 0 1 2.58-1.684c.992-.41 2.077-.617 3.256-.617 1.16 0 2.235.201 3.228.603a7.878 7.878 0 0 1 2.566 1.655 7.707 7.707 0 0 1 1.698 2.47c.41.944.617 1.96.617 3.045v.056c0 1.085-.206 2.1-.617 3.044a7.746 7.746 0 0 1-1.712 2.483 8.116 8.116 0 0 1-2.581 1.684c-.992.411-2.077.617-3.255.617"/><path d="M24.43 9.78l-.036.022c-.835 3.126-2.775 5.728-5.524 7.337-1.712 1.001-3.722 1.697-5.84 1.728-.09.003-.18.013-.272.013-.164 0-.32-.013-.48-.023-.022 0-.043-.002-.065-.003-.088-.006-.176-.01-.262-.019a6.234 6.234 0 0 1-1.923-.514 6.749 6.749 0 0 1-3.545-3.752 7.445 7.445 0 0 1-.495-2.714v-.065c0-.662.084-1.296.243-1.903-.368 1.286-.632 2.55-.632 3.953-.022 4.143 1.752 6.971 1.752 6.971l.84 1.337c.142.21.28.388.433.59.014.004.036.037.05.041l4.052 8.823 4.07-8.846c.227-.077.451-.16.672-.252 1.457-.606 2.714-1.437 3.77-2.49a11.55 11.55 0 0 0 2.472-3.673c.33-.77.56-1.577.706-2.41.12-.673.19-1.363.19-2.076v-.065c0-.69-.067-1.359-.177-2.01m-3.161-6.116a11.63 11.63 0 0 0-2.988-2.098c-.25-.125-.5-.25-.764-.361-1.448-.606-3.034-.91-4.758-.91-1.724 0-3.316.304-4.774.91-.084.035-.16.078-.242.114 1.664.842 3.54.511 5.087 1.261 2.26 1.096 4.127 2.823 5.31 5.032l3.923-3.076a11.071 11.071 0 0 0-.794-.872"/><path d="M12.726 9.78v4.15h6.47a7.102 7.102 0 0 1-1.6 2.906 6.211 6.211 0 0 1-2.124 1.501c-.752.33-1.568.5-2.442.53a11.817 11.817 0 0 0 5.812-1.617c2.75-1.609 4.823-4.29 5.587-7.47H12.726z"/><path d="M12.85 2.509A11.79 11.79 0 0 0 7.742 1.32C6.39 1.916 5.21 2.703 4.215 3.696a11.591 11.591 0 0 0-2.474 3.672 10.948 10.948 0 0 0-.57 1.77 11.694 11.694 0 0 0-.324 2.717v.064c0 1.597.292 3.093.878 4.486a10.973 10.973 0 0 0 2.46 3.64c1.053 1.034 2.303 1.854 3.751 2.46.228.095.502.195.738.274-1.862-2.454-3.01-5.527-3.01-8.845 0-1.404.2-2.761.567-4.046.052-.194.11-.385.177-.573.003-.006.154-.398.188-.476a6.997 6.997 0 0 1 1.26-1.965 6.257 6.257 0 0 1 2.107-1.502c.82-.361 1.731-.542 2.731-.542.978 0 1.884.186 2.714.559a6.748 6.748 0 0 1 2.156 1.516c.21.222.397.46.574.708l.018-.015a11.924 11.924 0 0 0-5.306-5.09"/></g></svg>