<svg width="197" height="27" xmlns="http://www.w3.org/2000/svg"><path fill="#FFF" d="M150.219.884v1.62h-11.865v7.202h11.11v1.62h-11.11v7.872h12.005v1.62h-13.904V.883zm3.866 14.95c.177.735.456 1.392.838 1.968a4.6 4.6 0 0 0 1.465 1.41c.595.363 1.312.544 2.15.544.93 0 1.717-.181 2.359-.544a4.66 4.66 0 0 0 1.563-1.41c.4-.576.688-1.233.866-1.968a9.5 9.5 0 0 0 .265-2.22 9.51 9.51 0 0 0-.265-2.22 5.823 5.823 0 0 0-.866-1.967 4.66 4.66 0 0 0-1.563-1.41c-.642-.363-1.429-.544-2.359-.544-.838 0-1.555.18-2.15.544a4.6 4.6 0 0 0-1.465 1.41 6.132 6.132 0 0 0-.838 1.968 9.458 9.458 0 0 0-.266 2.22c0 .744.089 1.484.266 2.219zm9.646 4.983v-2.735h-.056a4.174 4.174 0 0 1-.823 1.284c-.364.39-.778.72-1.244.99-.464.27-.962.48-1.493.629a5.809 5.809 0 0 1-1.577.224c-1.099 0-2.052-.201-2.862-.601a5.719 5.719 0 0 1-2.024-1.647 7.057 7.057 0 0 1-1.2-2.43 10.615 10.615 0 0 1-.391-2.916c0-1.024.129-1.996.391-2.918.26-.921.66-1.731 1.2-2.428a5.857 5.857 0 0 1 2.024-1.662c.81-.41 1.763-.614 2.862-.614.539 0 1.066.066 1.577.195a5.31 5.31 0 0 1 1.438.6c.447.27.842.6 1.186.992.345.39.61.847.796 1.368h.056V.884h1.759v19.933h-1.619zm12.757-2.135a4.566 4.566 0 0 0 1.452-1.284c.391-.53.684-1.14.88-1.83a7.747 7.747 0 0 0 .293-2.12c0-.708-.084-1.415-.252-2.122a6.105 6.105 0 0 0-.81-1.927 4.397 4.397 0 0 0-1.437-1.396c-.586-.353-1.298-.53-2.136-.53-.838 0-1.554.172-2.149.517a4.572 4.572 0 0 0-1.48 1.354 5.658 5.658 0 0 0-.85 1.912 9.059 9.059 0 0 0-.267 2.192c0 .725.093 1.433.28 2.12.185.69.474 1.3.865 1.83.39.53.883.959 1.48 1.284.595.326 1.302.489 2.121.489.763 0 1.433-.163 2.01-.49m4.034 3.84c-.232.856-.599 1.58-1.102 2.177-.503.596-1.159 1.052-1.968 1.368-.81.317-1.8.475-2.974.475a8.98 8.98 0 0 1-2.122-.251 6.086 6.086 0 0 1-1.856-.781 4.65 4.65 0 0 1-1.368-1.355c-.363-.55-.573-1.205-.628-1.968h1.758c.093.539.275.99.545 1.354.27.363.595.656.977.88.382.222.805.386 1.27.488.465.102.94.153 1.424.153 1.638 0 2.82-.465 3.546-1.395.726-.932 1.09-2.272 1.09-4.021V17.69h-.058a5.142 5.142 0 0 1-1.8 2.15c-.79.54-1.717.809-2.778.809-1.154 0-2.14-.19-2.959-.572a5.478 5.478 0 0 1-2.024-1.578 6.422 6.422 0 0 1-1.158-2.36 11.067 11.067 0 0 1-.364-2.888c0-.987.144-1.922.433-2.806a6.94 6.94 0 0 1 1.257-2.317 5.853 5.853 0 0 1 2.037-1.563c.81-.382 1.735-.572 2.778-.572.54 0 1.047.074 1.522.223.474.149.907.358 1.298.628s.74.582 1.046.935c.308.354.545.726.712 1.117h.057V6.412h1.76v13.233c0 1.06-.118 2.02-.35 2.876m13.707-11.838a5.284 5.284 0 0 0-.906-1.633 4.494 4.494 0 0 0-1.425-1.145c-.559-.288-1.19-.432-1.898-.432-.726 0-1.369.144-1.927.432a4.517 4.517 0 0 0-1.424 1.145 5.705 5.705 0 0 0-.935 1.647 8.092 8.092 0 0 0-.46 1.912h9.325a6.364 6.364 0 0 0-.35-1.926m-8.71 5.375c.177.68.46 1.288.852 1.828.39.54.883.986 1.48 1.34.594.354 1.311.53 2.15.53 1.284 0 2.288-.335 3.013-1.005.728-.67 1.23-1.563 1.509-2.68h1.758c-.371 1.638-1.056 2.904-2.052 3.797-.995.894-2.404 1.34-4.228 1.34-1.137 0-2.119-.2-2.947-.6a5.42 5.42 0 0 1-2.024-1.647 7.165 7.165 0 0 1-1.157-2.429 11.052 11.052 0 0 1-.377-2.917c0-.95.125-1.88.376-2.792a7.499 7.499 0 0 1 1.159-2.443 5.81 5.81 0 0 1 2.023-1.73c.828-.438 1.81-.657 2.946-.657 1.154 0 2.14.233 2.958.698a5.89 5.89 0 0 1 1.998 1.828c.51.754.879 1.62 1.103 2.597.222.977.315 1.968.278 2.973h-11.083c0 .633.088 1.29.266 1.97M126.857 4.484c.16 0 .312-.005.455-.016.144-.01.271-.04.382-.089a.599.599 0 0 0 .267-.225c.067-.1.1-.242.1-.424a.669.669 0 0 0-.089-.367.608.608 0 0 0-.23-.209 1.031 1.031 0 0 0-.325-.099 2.488 2.488 0 0 0-.361-.027h-.942v1.456h.743zm.313-2.03c.545 0 .949.107 1.21.323.262.217.393.545.393.984 0 .412-.115.714-.346.906a1.55 1.55 0 0 1-.858.34l1.309 2.021h-.765l-1.245-1.968h-.754v1.968h-.712V2.453h1.768zm-3.229 3.605c.164.41.391.763.681 1.063a3.152 3.152 0 0 0 2.308.963 3.129 3.129 0 0 0 2.287-.963c.29-.3.517-.654.681-1.063.164-.408.246-.853.246-1.334 0-.468-.082-.904-.246-1.309a3.213 3.213 0 0 0-.681-1.052 3.22 3.22 0 0 0-1.02-.702 3.129 3.129 0 0 0-1.267-.256 3.184 3.184 0 0 0-2.989 2.01 3.453 3.453 0 0 0-.246 1.31c0 .48.082.925.246 1.333zm-.644-2.873c.209-.475.494-.887.854-1.236a3.944 3.944 0 0 1 1.256-.82c.478-.2.985-.3 1.523-.3a3.87 3.87 0 0 1 1.518.3c.474.197.89.471 1.246.82.356.35.639.761.848 1.236.21.474.314.987.314 1.54 0 .564-.104 1.086-.314 1.564a3.982 3.982 0 0 1-.848 1.246 3.842 3.842 0 0 1-1.246.822 3.958 3.958 0 0 1-1.518.293 3.99 3.99 0 0 1-1.523-.293 3.864 3.864 0 0 1-1.256-.822 3.932 3.932 0 0 1-.854-1.246c-.21-.478-.314-1-.314-1.565 0-.552.104-1.065.314-1.539zM3.072.884l11.614 16.862h.056V.884h1.898v19.933h-2.122L2.905 3.955h-.056v16.862H.95V.884zm27.234 9.799A5.284 5.284 0 0 0 29.4 9.05a4.494 4.494 0 0 0-1.424-1.145c-.559-.288-1.19-.432-1.898-.432-.726 0-1.369.144-1.927.432a4.517 4.517 0 0 0-1.424 1.145 5.705 5.705 0 0 0-.935 1.647 8.092 8.092 0 0 0-.46 1.912h9.324a6.364 6.364 0 0 0-.349-1.926m-8.71 5.375c.177.68.46 1.288.852 1.828.39.54.883.986 1.48 1.34.594.354 1.311.53 2.15.53 1.283 0 2.288-.335 3.013-1.005.727-.67 1.23-1.563 1.508-2.68h1.76c-.373 1.638-1.058 2.904-2.053 3.797-.996.894-2.405 1.34-4.229 1.34-1.136 0-2.118-.2-2.946-.6a5.42 5.42 0 0 1-2.024-1.647 7.165 7.165 0 0 1-1.158-2.429 11.052 11.052 0 0 1-.377-2.917c0-.95.126-1.88.377-2.792a7.499 7.499 0 0 1 1.158-2.443 5.81 5.81 0 0 1 2.024-1.73c.828-.438 1.81-.657 2.946-.657 1.153 0 2.14.233 2.958.698a5.89 5.89 0 0 1 1.997 1.828c.511.754.88 1.62 1.103 2.597.223.977.316 1.968.278 2.973H21.33c0 .633.088 1.29.266 1.97M40.51 6.412v1.48h-2.932v9.715c0 .577.08 1.029.238 1.354.158.326.553.508 1.186.545.503 0 1.005-.028 1.508-.084v1.48c-.26 0-.52.009-.782.028a11.34 11.34 0 0 1-.78.027c-1.174 0-1.994-.227-2.459-.684-.464-.455-.688-1.298-.669-2.526V7.892h-2.513v-1.48h2.513V2.085h1.758v4.327h2.932zm8.207 6.477h6.086l-2.987-8.571h-.083l-3.016 8.57zM49.947.885h3.711l7.678 19.933h-3.74l-1.87-5.277h-7.958l-1.87 5.277h-3.602L49.946.885zm21.662 10.329c-.13-.894-.488-1.568-1.074-2.024-.587-.456-1.326-.684-2.22-.684a4.56 4.56 0 0 0-1.312.209c-.465.14-.893.4-1.285.782-.39.382-.716.912-.976 1.59-.261.68-.391 1.569-.391 2.668 0 .595.07 1.19.209 1.786.14.596.363 1.126.67 1.59a3.61 3.61 0 0 0 1.187 1.132c.483.289 1.07.433 1.758.433.93 0 1.699-.29 2.304-.866.605-.576.982-1.386 1.13-2.43h3.183c-.298 1.88-1.01 3.319-2.136 4.315-1.126.996-2.62 1.494-4.481 1.494-1.135 0-2.135-.192-3.001-.573a6.356 6.356 0 0 1-2.191-1.563 6.634 6.634 0 0 1-1.354-2.36 9.222 9.222 0 0 1-.46-2.958c0-1.08.148-2.095.446-3.044.298-.95.744-1.772 1.34-2.471a6.285 6.285 0 0 1 2.219-1.647c.884-.4 1.922-.6 3.113-.6.838 0 1.634.107 2.387.32a6.282 6.282 0 0 1 2.01.964 5.134 5.134 0 0 1 1.438 1.62c.372.65.595 1.423.67 2.317h-3.183zm17.533 9.603h-3.127v-2.01h-.056c-.39.726-.972 1.308-1.745 1.745-.772.437-1.558.656-2.358.656-1.899 0-3.272-.47-4.118-1.41-.847-.939-1.27-2.359-1.27-4.257V6.383h3.182v8.851c0 1.265.242 2.16.726 2.68.484.521 1.162.781 2.037.781.671 0 1.23-.102 1.676-.307.447-.204.81-.479 1.09-.823.278-.345.478-.759.6-1.243a6.43 6.43 0 0 0 .18-1.563V6.383h3.183v14.434zm3.434.001h3.183V6.384h-3.183v14.434zm0-16.919h3.183V.884h-3.183v3.015zm5.194 2.485h2.4V2.057h3.182v4.327h2.876v2.373h-2.876v7.706c0 .335.015.623.042.865.028.242.093.447.195.614a.936.936 0 0 0 .461.377c.204.084.484.126.838.126.223 0 .446-.005.67-.015.223-.008.446-.041.67-.097v2.457c-.354.037-.698.074-1.033.112a9.67 9.67 0 0 1-1.033.055c-.837 0-1.512-.08-2.024-.237-.513-.158-.912-.391-1.2-.698-.289-.307-.484-.693-.587-1.16a8.683 8.683 0 0 1-.182-1.59V8.757h-2.4V6.384zm9.016 0h3.489l3.77 10.776h.055l3.658-10.776h3.322l-5.611 15.215a113.25 113.25 0 0 1-.77 1.87 6.698 6.698 0 0 1-.92 1.579 3.984 3.984 0 0 1-1.353 1.088c-.54.27-1.23.405-2.067.405-.744 0-1.48-.056-2.205-.167v-2.681c.26.037.512.079.753.126.242.046.493.069.754.069.372 0 .68-.046.922-.14.24-.092.44-.227.599-.404a2.5 2.5 0 0 0 .406-.627c.11-.243.214-.522.306-.838l.364-1.117-5.472-14.378z" fill-rule="evenodd"/></svg>