<svg width="199" height="26" xmlns="http://www.w3.org/2000/svg"><path d="M125.946 3.67c.16 0 .312-.005.455-.016.144-.01.27-.04.382-.09a.599.599 0 0 0 .267-.224c.067-.101.1-.242.1-.424a.669.669 0 0 0-.09-.367.608.608 0 0 0-.23-.21 1.031 1.031 0 0 0-.324-.098 2.488 2.488 0 0 0-.361-.027h-.942V3.67h.743zm.313-2.031c.545 0 .949.108 1.21.324.262.217.393.545.393.984 0 .412-.115.714-.346.906a1.55 1.55 0 0 1-.858.34l1.309 2.02h-.765l-1.245-1.967h-.754v1.967h-.712V1.639h1.768zm-3.23 3.606c.165.409.392.762.682 1.063a3.184 3.184 0 0 0 2.308.963 3.13 3.13 0 0 0 1.267-.257 3.178 3.178 0 0 0 1.7-1.769c.165-.408.247-.853.247-1.334 0-.468-.082-.904-.246-1.31a3.213 3.213 0 0 0-.681-1.051 3.22 3.22 0 0 0-1.02-.702 3.129 3.129 0 0 0-1.267-.256 3.184 3.184 0 0 0-2.99 2.01 3.453 3.453 0 0 0-.245 1.309c0 .48.082.926.246 1.334zm-.643-2.873c.209-.475.494-.887.854-1.236a3.944 3.944 0 0 1 1.256-.821c.478-.2.985-.3 1.523-.3a3.87 3.87 0 0 1 1.518.3c.474.198.89.472 1.246.82.356.35.639.762.848 1.237.21.474.314.987.314 1.539 0 .565-.104 1.087-.314 1.565a3.966 3.966 0 0 1-.848 1.245 3.828 3.828 0 0 1-1.246.823 3.958 3.958 0 0 1-1.518.293 3.99 3.99 0 0 1-1.523-.293 3.85 3.85 0 0 1-1.256-.823 3.917 3.917 0 0 1-.854-1.245c-.21-.478-.314-1-.314-1.565 0-.552.104-1.065.314-1.54zM2.16.07l11.615 16.862h.056V.07h1.898v19.933h-2.122L1.994 3.14h-.056v16.862H.04V.07zm27.235 9.799a5.3 5.3 0 0 0-.907-1.634 4.505 4.505 0 0 0-1.424-1.144c-.559-.288-1.19-.433-1.898-.433-.726 0-1.369.145-1.927.433a4.528 4.528 0 0 0-1.424 1.144 5.723 5.723 0 0 0-.935 1.648 8.092 8.092 0 0 0-.46 1.912h9.324a6.364 6.364 0 0 0-.349-1.926m-8.71 5.374c.177.68.46 1.289.852 1.829.39.54.883.986 1.48 1.34.594.353 1.311.53 2.15.53 1.283 0 2.288-.335 3.013-1.005.727-.67 1.23-1.563 1.508-2.68h1.76c-.373 1.638-1.058 2.903-2.053 3.797-.996.893-2.405 1.339-4.229 1.339-1.136 0-2.118-.2-2.946-.6a5.423 5.423 0 0 1-2.024-1.647 7.16 7.16 0 0 1-1.158-2.428 11.052 11.052 0 0 1-.377-2.917c0-.95.126-1.88.377-2.792a7.504 7.504 0 0 1 1.158-2.444 5.818 5.818 0 0 1 2.024-1.73c.828-.437 1.81-.656 2.946-.656 1.153 0 2.14.233 2.958.698a5.88 5.88 0 0 1 1.997 1.828c.511.754.88 1.619 1.103 2.597.223.977.316 1.967.278 2.973H20.42c0 .633.088 1.289.266 1.968M39.6 5.597v1.48h-2.933v9.715c0 .577.08 1.03.238 1.354.158.326.553.508 1.186.545.503 0 1.005-.029 1.508-.084v1.48c-.26 0-.52.008-.782.028-.26.017-.52.027-.78.027-1.174 0-1.994-.228-2.459-.684-.464-.456-.688-1.298-.669-2.526V7.076h-2.513V5.597h2.513V1.27h1.758v4.327H39.6zm8.206 6.477h6.086l-2.987-8.57h-.083l-3.016 8.57zM49.036.07h3.711l7.678 19.933h-3.74l-1.87-5.277h-7.958l-1.87 5.277h-3.602L49.035.07zm21.662 10.329c-.13-.894-.488-1.567-1.074-2.024-.587-.455-1.326-.684-2.22-.684a4.56 4.56 0 0 0-1.312.209c-.465.14-.893.4-1.285.782-.39.382-.716.912-.976 1.59-.261.68-.391 1.569-.391 2.668 0 .596.07 1.19.209 1.786.14.596.363 1.126.67 1.592.308.465.702.842 1.187 1.13.483.289 1.07.433 1.758.433.93 0 1.699-.29 2.304-.866.605-.576.982-1.386 1.13-2.43h3.183c-.298 1.88-1.01 3.32-2.136 4.315-1.126.996-2.62 1.493-4.481 1.493-1.135 0-2.135-.19-3.001-.572a6.356 6.356 0 0 1-2.191-1.563 6.634 6.634 0 0 1-1.354-2.36 9.218 9.218 0 0 1-.46-2.958c0-1.08.148-2.095.446-3.044.298-.95.744-1.772 1.34-2.471a6.27 6.27 0 0 1 2.219-1.646c.884-.4 1.922-.6 3.113-.6.838 0 1.634.107 2.387.32a6.301 6.301 0 0 1 2.01.963 5.134 5.134 0 0 1 1.438 1.62c.372.652.595 1.423.67 2.317h-3.183zm17.533 9.603h-3.127v-2.01h-.056c-.39.726-.972 1.308-1.745 1.745-.772.437-1.558.656-2.358.656-1.899 0-3.272-.47-4.118-1.41-.847-.939-1.271-2.359-1.271-4.257V5.57h3.183v8.85c0 1.266.242 2.16.726 2.68.484.521 1.162.782 2.037.782.671 0 1.229-.103 1.676-.308.447-.204.81-.478 1.089-.823a3.17 3.17 0 0 0 .6-1.242 6.445 6.445 0 0 0 .181-1.564V5.57h3.183v14.433zm3.434 0h3.183V5.569h-3.183v14.433zm0-16.917h3.183V.07h-3.183v3.015zm5.193 2.485h2.4V1.241h3.183V5.57h2.876v2.373h-2.876v7.706c0 .335.015.623.042.865.028.242.093.446.195.614a.94.94 0 0 0 .461.377c.204.083.484.125.838.125.223 0 .446-.004.67-.014.223-.008.446-.042.67-.097v2.457c-.354.037-.698.074-1.033.111-.335.037-.68.056-1.033.056-.837 0-1.512-.079-2.024-.238-.513-.158-.912-.39-1.201-.698-.288-.306-.483-.692-.586-1.158a8.683 8.683 0 0 1-.182-1.59V7.941h-2.4V5.57zm9.017 0h3.489l3.77 10.775h.055l3.658-10.776h3.322l-5.611 15.215c-.262.652-.517 1.275-.77 1.87a6.678 6.678 0 0 1-.92 1.578 3.972 3.972 0 0 1-1.353 1.088c-.54.27-1.23.406-2.067.406-.744 0-1.48-.056-2.205-.168v-2.68c.26.037.512.08.753.125.242.047.493.07.754.07.372 0 .68-.046.922-.139.24-.094.44-.229.599-.406.159-.176.294-.385.406-.627a6.21 6.21 0 0 0 .306-.837l.364-1.118-5.472-14.377zm37.918 4.27c1.321 0 2.392-.335 3.21-1.005.82-.67 1.229-1.693 1.229-3.07 0-1.378-.41-2.402-1.228-3.07-.819-.67-1.89-1.006-3.21-1.006h-6.534V9.84h6.534zm.42-9.77c.893 0 1.703.125 2.429.376a5.128 5.128 0 0 1 1.87 1.117 4.92 4.92 0 0 1 1.2 1.8c.279.708.419 1.508.419 2.401 0 .893-.14 1.694-.42 2.401a4.916 4.916 0 0 1-1.2 1.801 5.126 5.126 0 0 1-1.87 1.116c-.725.252-1.535.377-2.428.377h-6.952v8.543h-1.9V.07h8.852zm18.453 19.932v-2.596h-.056c-.465.968-1.14 1.707-2.024 2.22-.884.511-1.866.767-2.945.767-.912 0-1.69-.125-2.331-.376-.643-.252-1.164-.61-1.564-1.076-.4-.464-.693-1.033-.88-1.703-.185-.67-.278-1.432-.278-2.289V5.597h1.759v9.38c.037 1.303.339 2.29.907 2.96.567.67 1.549 1.004 2.945 1.004.763 0 1.414-.163 1.954-.488.54-.326.987-.759 1.34-1.299a5.839 5.839 0 0 0 .782-1.856 9.136 9.136 0 0 0 .25-2.136V5.597h1.76v14.405h-1.62zm4.968 0h1.759V.069h-1.759zm13.429-11.599c-.205-.4-.479-.73-.823-.991a3.427 3.427 0 0 0-1.187-.572 5.39 5.39 0 0 0-1.424-.182 5.75 5.75 0 0 0-1.186.126 3.65 3.65 0 0 0-1.104.419 2.37 2.37 0 0 0-.809.767c-.205.317-.307.707-.307 1.173 0 .39.098.72.293.99.195.27.443.499.74.685.297.187.623.34.977.46.353.122.68.22.977.294l2.345.53c.503.074 1 .209 1.494.405.493.196.93.452 1.312.768s.693.707.935 1.172c.242.466.364 1.015.364 1.647 0 .782-.178 1.448-.532 1.997a4.312 4.312 0 0 1-1.353 1.339 5.77 5.77 0 0 1-1.857.74 9.682 9.682 0 0 1-2.038.223c-1.694 0-3.066-.4-4.118-1.2-1.052-.8-1.65-2.084-1.8-3.853h1.758c.074 1.192.507 2.09 1.3 2.695.79.604 1.772.907 2.944.907.428 0 .87-.046 1.327-.14a4.242 4.242 0 0 0 1.27-.474 3.05 3.05 0 0 0 .963-.852c.251-.344.376-.767.376-1.27 0-.428-.088-.786-.265-1.074a2.285 2.285 0 0 0-.712-.727 4.519 4.519 0 0 0-1.019-.488 12.74 12.74 0 0 0-1.158-.335l-2.262-.503a12.816 12.816 0 0 1-1.59-.516 5.088 5.088 0 0 1-1.27-.726 3.046 3.046 0 0 1-.853-1.061c-.205-.42-.307-.936-.307-1.55 0-.725.162-1.348.49-1.87.324-.52.748-.94 1.27-1.256a5.922 5.922 0 0 1 1.744-.698 8.438 8.438 0 0 1 1.912-.223c.726 0 1.401.093 2.024.279a4.638 4.638 0 0 1 1.647.865c.475.39.852.875 1.131 1.452.28.577.438 1.256.475 2.038h-1.759c-.019-.54-.13-1.01-.335-1.41m15.145 1.466a5.3 5.3 0 0 0-.907-1.634 4.505 4.505 0 0 0-1.424-1.144c-.56-.288-1.191-.433-1.898-.433-.726 0-1.37.145-1.927.433a4.528 4.528 0 0 0-1.424 1.144 5.723 5.723 0 0 0-.935 1.648 8.092 8.092 0 0 0-.461 1.912h9.325a6.364 6.364 0 0 0-.35-1.926m-8.71 5.374c.178.68.46 1.289.853 1.829.39.54.883.986 1.479 1.34.595.353 1.312.53 2.15.53 1.284 0 2.289-.335 3.014-1.005.727-.67 1.229-1.563 1.508-2.68h1.759c-.372 1.638-1.057 2.903-2.052 3.797-.996.893-2.405 1.339-4.23 1.339-1.135 0-2.117-.2-2.945-.6a5.423 5.423 0 0 1-2.024-1.647 7.16 7.16 0 0 1-1.158-2.428 11.052 11.052 0 0 1-.377-2.917c0-.95.126-1.88.377-2.792a7.504 7.504 0 0 1 1.158-2.444 5.818 5.818 0 0 1 2.024-1.73c.828-.437 1.81-.656 2.946-.656 1.153 0 2.139.233 2.958.698a5.88 5.88 0 0 1 1.997 1.828c.51.754.879 1.619 1.103 2.597.223.977.316 1.967.278 2.973h-11.083c0 .633.088 1.289.266 1.968" fill="#FFF" fill-rule="evenodd"/></svg>