<svg width="242" height="27" xmlns="http://www.w3.org/2000/svg"><path d="M126.32 4.388c.16 0 .312-.005.455-.016.144-.01.271-.04.382-.089a.599.599 0 0 0 .267-.225c.067-.1.1-.242.1-.424a.669.669 0 0 0-.089-.367.608.608 0 0 0-.23-.209 1.031 1.031 0 0 0-.325-.099 2.488 2.488 0 0 0-.36-.027h-.943v1.456h.743zm.313-2.03c.545 0 .95.107 1.21.323.262.217.393.545.393.984 0 .412-.115.714-.346.906a1.55 1.55 0 0 1-.858.34l1.31 2.021h-.766l-1.245-1.968h-.754v1.968h-.712V2.357h1.768zm-3.229 3.605c.164.41.391.763.681 1.063a3.152 3.152 0 0 0 2.308.963 3.129 3.129 0 0 0 2.287-.963c.29-.3.517-.654.681-1.063.164-.408.246-.853.246-1.334 0-.468-.082-.904-.246-1.309a3.213 3.213 0 0 0-.68-1.052 3.22 3.22 0 0 0-1.02-.702 3.129 3.129 0 0 0-1.268-.256 3.184 3.184 0 0 0-2.989 2.01 3.453 3.453 0 0 0-.246 1.31c0 .48.082.925.246 1.333zm-.644-2.873c.21-.475.494-.887.854-1.236a3.944 3.944 0 0 1 1.256-.82c.478-.2.985-.3 1.523-.3a3.87 3.87 0 0 1 1.518.3c.474.197.89.471 1.246.82.356.35.64.761.848 1.236.21.474.314.987.314 1.54 0 .564-.104 1.086-.314 1.564a3.982 3.982 0 0 1-.848 1.246 3.842 3.842 0 0 1-1.246.822 3.958 3.958 0 0 1-1.518.293 3.99 3.99 0 0 1-1.523-.293 3.864 3.864 0 0 1-1.256-.822 3.932 3.932 0 0 1-.854-1.246c-.21-.478-.314-1-.314-1.565 0-.552.104-1.065.314-1.539zM2.535.788L14.149 17.65h.056V.788h1.898v19.933H13.98L2.368 3.859h-.056v16.862H.414V.788zm27.235 9.799a5.284 5.284 0 0 0-.908-1.633 4.494 4.494 0 0 0-1.424-1.145c-.559-.288-1.19-.432-1.898-.432-.726 0-1.369.144-1.927.432a4.517 4.517 0 0 0-1.424 1.145 5.705 5.705 0 0 0-.935 1.647 8.092 8.092 0 0 0-.46 1.912h9.324a6.364 6.364 0 0 0-.349-1.926m-8.71 5.375c.177.679.46 1.288.852 1.828.39.54.883.987 1.48 1.34.594.354 1.311.53 2.15.53 1.283 0 2.288-.334 3.013-1.004.727-.67 1.23-1.564 1.508-2.681h1.76c-.373 1.638-1.058 2.904-2.053 3.797-.996.894-2.405 1.34-4.229 1.34-1.136 0-2.118-.2-2.946-.6a5.42 5.42 0 0 1-2.024-1.647 7.165 7.165 0 0 1-1.158-2.43 11.052 11.052 0 0 1-.377-2.916c0-.95.126-1.88.377-2.792a7.499 7.499 0 0 1 1.158-2.443 5.81 5.81 0 0 1 2.024-1.731c.828-.437 1.81-.656 2.946-.656 1.153 0 2.14.233 2.958.698a5.89 5.89 0 0 1 1.997 1.828c.511.754.88 1.62 1.103 2.597.223.977.316 1.968.278 2.973H20.793c0 .633.088 1.289.266 1.969m18.914-9.647v1.48h-2.932v9.715c0 .578.08 1.03.238 1.354.158.326.553.508 1.186.545.503 0 1.005-.028 1.508-.084v1.48c-.26 0-.52.01-.782.028a11.34 11.34 0 0 1-.78.027c-1.174 0-1.994-.227-2.459-.683-.464-.456-.688-1.299-.669-2.527V7.795H32.77v-1.48h2.513V1.988h1.758v4.327h2.932zm8.207 6.477h6.086l-2.987-8.57h-.083l-3.016 8.57zM49.41.788h3.711L60.8 20.721h-3.74l-1.87-5.277h-7.96l-1.87 5.277h-3.6L49.41.788zm21.662 10.33c-.13-.894-.488-1.568-1.074-2.024-.587-.456-1.326-.684-2.22-.684a4.56 4.56 0 0 0-1.312.209c-.465.14-.893.4-1.285.782-.39.382-.716.912-.976 1.59-.261.68-.391 1.569-.391 2.668 0 .595.07 1.19.209 1.786.14.596.363 1.126.67 1.59a3.61 3.61 0 0 0 1.187 1.132c.483.289 1.07.433 1.758.433.931 0 1.699-.29 2.304-.866.605-.576.982-1.386 1.13-2.43h3.183c-.298 1.88-1.01 3.32-2.136 4.315-1.126.996-2.619 1.493-4.481 1.493-1.135 0-2.135-.19-3.001-.572a6.356 6.356 0 0 1-2.191-1.563 6.634 6.634 0 0 1-1.354-2.36 9.222 9.222 0 0 1-.46-2.958c0-1.08.148-2.095.446-3.044.298-.95.744-1.772 1.34-2.471a6.285 6.285 0 0 1 2.219-1.647c.884-.4 1.922-.6 3.113-.6.838 0 1.634.107 2.387.32a6.282 6.282 0 0 1 2.01.964 5.134 5.134 0 0 1 1.438 1.62c.372.65.595 1.423.67 2.317h-3.183zm17.533 9.603h-3.127v-2.01h-.056c-.39.726-.972 1.308-1.745 1.745-.772.437-1.558.656-2.358.656-1.899 0-3.272-.47-4.118-1.41-.847-.939-1.27-2.359-1.27-4.257V6.287h3.182v8.851c0 1.265.242 2.16.726 2.68.484.521 1.162.782 2.037.782.671 0 1.23-.103 1.676-.308.447-.204.81-.479 1.09-.823.278-.345.478-.759.6-1.243a6.43 6.43 0 0 0 .18-1.563V6.287h3.183v14.434zm3.434.001h3.183V6.288h-3.183v14.434zm0-16.919h3.183V.788h-3.183v3.015zm5.193 2.485h2.4V1.96h3.183v4.327h2.876V8.66h-2.876v7.706c0 .335.015.623.042.865.028.242.093.447.195.614a.937.937 0 0 0 .461.378c.204.083.484.125.838.125.223 0 .446-.004.67-.014.223-.01.446-.042.67-.098v2.457c-.354.037-.698.074-1.033.112-.335.037-.68.055-1.033.055-.837 0-1.512-.08-2.024-.237-.513-.158-.912-.391-1.2-.698-.289-.307-.484-.693-.587-1.16a8.672 8.672 0 0 1-.182-1.59V8.66h-2.4V6.288zm9.017 0h3.489l3.77 10.776h.055l3.658-10.776h3.322l-5.611 15.216c-.262.65-.517 1.274-.77 1.87a6.671 6.671 0 0 1-.92 1.577 3.987 3.987 0 0 1-1.353 1.089c-.54.269-1.23.405-2.067.405-.744 0-1.48-.055-2.205-.168v-2.68c.26.038.512.08.753.126.242.046.493.07.754.07.372 0 .68-.047.922-.14.24-.094.44-.228.599-.405.159-.177.294-.386.406-.628.11-.242.214-.521.306-.837l.364-1.117-5.472-14.378zm30.59 10.442a4.208 4.208 0 0 0 1.382 1.646c.587.41 1.279.702 2.08.88.8.177 1.656.265 2.568.265.52 0 1.089-.075 1.703-.224a5.91 5.91 0 0 0 1.717-.712c.53-.325.973-.744 1.326-1.256.354-.512.53-1.13.53-1.856 0-.559-.124-1.042-.376-1.452a3.448 3.448 0 0 0-.977-1.033 5.789 5.789 0 0 0-1.326-.683 13.038 13.038 0 0 0-1.424-.434l-4.44-1.088a13.199 13.199 0 0 1-1.688-.558 4.789 4.789 0 0 1-1.438-.893 4.251 4.251 0 0 1-.991-1.369c-.251-.54-.376-1.2-.376-1.982 0-.484.092-1.051.279-1.702.185-.652.534-1.266 1.047-1.843.51-.577 1.214-1.065 2.107-1.466.894-.4 2.038-.6 3.434-.6.986 0 1.926.13 2.82.39a6.955 6.955 0 0 1 2.345 1.173 5.81 5.81 0 0 1 1.605 1.94c.4.773.6 1.67.6 2.694h-1.898c-.038-.763-.21-1.428-.516-1.995a4.475 4.475 0 0 0-1.201-1.425 5.281 5.281 0 0 0-1.704-.865 6.916 6.916 0 0 0-2.023-.294c-.651 0-1.28.07-1.885.21a4.715 4.715 0 0 0-1.591.67 3.46 3.46 0 0 0-1.103 1.214c-.278.503-.418 1.127-.418 1.872 0 .465.079.87.237 1.214.157.345.377.638.656.878.279.244.6.439.963.588.363.149.749.27 1.159.362l4.857 1.2a14.13 14.13 0 0 1 1.996.684c.624.27 1.173.605 1.648 1.005.474.402.846.89 1.117 1.466.269.577.404 1.275.404 2.094 0 .223-.023.521-.07.893a4.507 4.507 0 0 1-.334 1.186 6.012 6.012 0 0 1-.754 1.271c-.326.428-.773.814-1.34 1.158-.568.346-1.27.625-2.108.838-.837.215-1.843.32-3.015.32-1.173 0-2.262-.134-3.267-.404s-1.861-.684-2.568-1.242a5.476 5.476 0 0 1-1.634-2.15c-.381-.875-.544-1.926-.488-3.154h1.898c-.018 1.024.14 1.88.475 2.569m21.608-10.414v1.48h-2.932v9.715c0 .577.079 1.029.238 1.354.158.326.553.508 1.186.545.503 0 1.005-.03 1.508-.084v1.479c-.261 0-.521.009-.782.029-.261.017-.521.027-.781.027-1.173 0-1.993-.228-2.458-.684-.464-.456-.688-1.298-.669-2.526V7.796h-2.513v-1.48h2.513V1.989h1.758v4.327h2.932zm11.697 6.533c-.11.205-.326.354-.642.447a6.57 6.57 0 0 1-.837.195 52.58 52.58 0 0 1-2.304.349c-.79.103-1.512.257-2.163.46-.652.206-1.187.499-1.606.88-.419.382-.628.926-.628 1.633 0 .447.088.843.265 1.187.177.345.414.64.712.893a3.11 3.11 0 0 0 1.033.573c.391.13.791.195 1.2.195.671 0 1.313-.103 1.927-.308a4.753 4.753 0 0 0 1.606-.892 4.353 4.353 0 0 0 1.088-1.424c.27-.56.405-1.191.405-1.898v-2.29h-.056zm-8.794-4.3a4.132 4.132 0 0 1 1.214-1.507 5.135 5.135 0 0 1 1.801-.865 8.772 8.772 0 0 1 2.29-.28c.632 0 1.264.06 1.898.182.632.122 1.2.349 1.702.684.503.335.912.805 1.23 1.41.315.605.473 1.39.473 2.359v7.65c0 .707.345 1.06 1.034 1.06.205 0 .39-.037.558-.111v1.479a8.576 8.576 0 0 1-.545.084 5.194 5.194 0 0 1-.599.028c-.448 0-.806-.06-1.075-.182a1.43 1.43 0 0 1-.628-.516 1.915 1.915 0 0 1-.293-.796 6.752 6.752 0 0 1-.07-1.02h-.056c-.317.467-.638.88-.963 1.244-.326.362-.69.665-1.089.907a5.032 5.032 0 0 1-1.368.558c-.512.13-1.12.195-1.828.195a7.215 7.215 0 0 1-1.885-.237 4.211 4.211 0 0 1-1.536-.753 3.6 3.6 0 0 1-1.033-1.313c-.25-.53-.376-1.158-.376-1.884 0-1.005.223-1.791.67-2.36.446-.567 1.037-1 1.772-1.297a10.141 10.141 0 0 1 2.485-.628 233.71 233.71 0 0 1 2.806-.35c.372-.036.697-.083.976-.14.28-.054.512-.152.7-.292.184-.14.33-.33.431-.572.103-.242.154-.56.154-.95 0-.595-.098-1.083-.293-1.465a2.326 2.326 0 0 0-.81-.907 3.26 3.26 0 0 0-1.2-.461 8.095 8.095 0 0 0-1.466-.126c-1.117 0-2.029.265-2.736.796-.707.53-1.079 1.382-1.116 2.554h-1.759c.055-.837.232-1.563.53-2.177zm15.858-2.233V8.8h.056c.335-.875.93-1.577 1.787-2.108a5.25 5.25 0 0 1 2.819-.795c1.005 0 1.847.13 2.526.39.68.26 1.224.629 1.633 1.103.409.475.699 1.056.867 1.745a9.9 9.9 0 0 1 .25 2.317v9.268h-1.758v-8.99c0-.613-.056-1.186-.168-1.716a3.646 3.646 0 0 0-.586-1.382 2.853 2.853 0 0 0-1.131-.921c-.475-.223-1.066-.335-1.773-.335-.708 0-1.335.126-1.884.377a4.076 4.076 0 0 0-1.396 1.033c-.382.437-.68.959-.893 1.563a6.353 6.353 0 0 0-.35 1.968v8.403h-1.758V6.316h1.759zm14.67 9.422c.177.735.456 1.392.838 1.968a4.587 4.587 0 0 0 1.465 1.41c.595.363 1.312.544 2.15.544.93 0 1.717-.18 2.359-.545a4.648 4.648 0 0 0 1.563-1.409c.4-.576.688-1.233.866-1.968a9.5 9.5 0 0 0 .265-2.219 9.51 9.51 0 0 0-.265-2.22 5.823 5.823 0 0 0-.866-1.968 4.66 4.66 0 0 0-1.563-1.41c-.642-.363-1.43-.544-2.36-.544-.837 0-1.554.181-2.15.544a4.6 4.6 0 0 0-1.464 1.41 6.132 6.132 0 0 0-.838 1.968 9.458 9.458 0 0 0-.266 2.22c0 .744.089 1.484.266 2.22zm9.646 4.983v-2.735h-.056a4.198 4.198 0 0 1-.823 1.284c-.364.39-.778.72-1.244.991a6.47 6.47 0 0 1-1.493.628 5.846 5.846 0 0 1-1.577.223c-1.1 0-2.052-.2-2.862-.6a5.71 5.71 0 0 1-2.024-1.648 7.052 7.052 0 0 1-1.2-2.428 10.615 10.615 0 0 1-.391-2.917c0-1.024.129-1.996.39-2.918.26-.92.66-1.73 1.2-2.428a5.857 5.857 0 0 1 2.025-1.662c.81-.409 1.763-.614 2.862-.614.539 0 1.066.066 1.577.195a5.31 5.31 0 0 1 1.438.601c.447.27.842.6 1.186.991.345.39.61.847.796 1.368h.056V.788h1.759v19.933h-1.62zm14.126-7.872c-.112.205-.327.354-.643.447a6.57 6.57 0 0 1-.837.195 52.58 52.58 0 0 1-2.304.349c-.79.103-1.512.257-2.163.46-.652.206-1.187.499-1.606.88-.419.382-.628.926-.628 1.633 0 .447.088.843.265 1.187.177.345.414.64.712.893a3.11 3.11 0 0 0 1.033.573c.391.13.791.195 1.2.195.671 0 1.313-.103 1.927-.308a4.753 4.753 0 0 0 1.606-.892 4.353 4.353 0 0 0 1.088-1.424c.27-.56.405-1.191.405-1.898v-2.29h-.056zm-8.795-4.3a4.132 4.132 0 0 1 1.214-1.507 5.135 5.135 0 0 1 1.801-.865 8.772 8.772 0 0 1 2.29-.28c.632 0 1.264.06 1.898.182.632.122 1.2.349 1.702.684.503.335.912.805 1.23 1.41.315.605.473 1.39.473 2.359v7.65c0 .707.345 1.06 1.034 1.06.205 0 .39-.037.558-.111v1.479a8.576 8.576 0 0 1-.545.084 5.194 5.194 0 0 1-.599.028c-.448 0-.806-.06-1.075-.182a1.43 1.43 0 0 1-.628-.516 1.915 1.915 0 0 1-.293-.796 6.752 6.752 0 0 1-.07-1.02h-.056c-.317.467-.638.88-.963 1.244-.326.362-.69.665-1.089.907a5.032 5.032 0 0 1-1.368.558c-.512.13-1.12.195-1.828.195a7.215 7.215 0 0 1-1.885-.237 4.211 4.211 0 0 1-1.536-.753 3.6 3.6 0 0 1-1.033-1.313c-.25-.53-.376-1.158-.376-1.884 0-1.005.223-1.791.67-2.36.446-.567 1.037-1 1.772-1.297a10.141 10.141 0 0 1 2.485-.628 233.71 233.71 0 0 1 2.806-.35c.372-.036.697-.083.976-.14.28-.054.512-.152.7-.292.184-.14.33-.33.431-.572.103-.242.154-.56.154-.95 0-.595-.098-1.083-.293-1.465a2.326 2.326 0 0 0-.81-.907 3.26 3.26 0 0 0-1.2-.461 8.095 8.095 0 0 0-1.466-.126c-1.117 0-2.029.265-2.736.796-.707.53-1.079 1.382-1.116 2.554h-1.759c.055-.837.232-1.563.53-2.177zM222.6 6.316v3.378h.057c.446-1.172 1.14-2.075 2.08-2.708.938-.632 2.06-.921 3.363-.865v1.758c-.8-.037-1.526.07-2.178.322a4.907 4.907 0 0 0-1.688 1.074 4.849 4.849 0 0 0-1.103 1.662 5.543 5.543 0 0 0-.39 2.108v7.676h-1.76V6.316h1.62zm8.083 9.422c.177.735.456 1.392.838 1.968a4.587 4.587 0 0 0 1.465 1.41c.595.363 1.312.544 2.15.544.93 0 1.717-.18 2.36-.545a4.648 4.648 0 0 0 1.562-1.409c.4-.576.688-1.233.866-1.968a9.5 9.5 0 0 0 .265-2.219 9.51 9.51 0 0 0-.265-2.22 5.823 5.823 0 0 0-.866-1.968 4.66 4.66 0 0 0-1.563-1.41c-.642-.363-1.429-.544-2.359-.544-.838 0-1.555.181-2.15.544a4.6 4.6 0 0 0-1.465 1.41 6.132 6.132 0 0 0-.838 1.968 9.458 9.458 0 0 0-.266 2.22c0 .744.09 1.484.266 2.22zm9.645 4.983v-2.735h-.055a4.198 4.198 0 0 1-.823 1.284c-.364.39-.778.72-1.244.991a6.47 6.47 0 0 1-1.493.628 5.846 5.846 0 0 1-1.577.223c-1.099 0-2.052-.2-2.862-.6a5.71 5.71 0 0 1-2.024-1.648 7.052 7.052 0 0 1-1.2-2.428 10.615 10.615 0 0 1-.39-2.917c0-1.024.128-1.996.39-2.918.26-.92.66-1.73 1.2-2.428a5.857 5.857 0 0 1 2.024-1.662c.81-.409 1.763-.614 2.862-.614.54 0 1.066.066 1.577.195a5.31 5.31 0 0 1 1.438.601c.447.27.842.6 1.186.991.345.39.61.847.796 1.368h.056V.788h1.76v19.933h-1.62z" fill="#FFF" fill-rule="evenodd"/></svg>