<svg width="119" height="30" xmlns="http://www.w3.org/2000/svg" xmlns:xlink="http://www.w3.org/1999/xlink"><defs><path id="a" d="M0 15v15h23V0H0v15z"/></defs><g fill="none" fill-rule="evenodd"><path d="M27.062 11c1.36 0 2.665-1.127 2.891-2.518C30.223 7.127 29.3 6 27.941 6c-1.36 0-2.664 1.127-2.894 2.482-.265 1.39.619 2.518 2.015 2.518m34.315 3c1.205 0 1.623.736 1.623 1.613C63 17.096 61.856 18 60.065 18c-.64 0-1.537-.152-2.065-.33.222-1.364 1.093-3.67 3.377-3.67m28 0c1.1 0 1.623.736 1.623 1.613C91 17.096 89.855 18 88.065 18c-.64 0-1.536-.152-2.065-.33.222-1.364 1.205-3.67 3.376-3.67m25.56.56h2.897c.397 0 .63-.162.72-.535.127-.537.36-1.475.427-1.731.086-.336-.108-.59-.478-.59h-2.86c.206-.826 1.008-3.504 1.008-5.25 0-3.488-2.94-6.454-7.115-6.454-4.714 0-7.78 3.185-7.78 7.666 0 1.306.484 2.83 1.085 3.775a13.94 13.94 0 0 0-.777-.022c-3.582 0-5.838 1.957-5.838 4.802 0 2.672 2.092 3.71 4.062 4.4 1.75.614 3.36.9 3.36 2.275 0 .928-.887 1.472-2.622 1.472-2.057 0-3.188-.976-3.476-1.346.195-.154.485-.52.485-1.133 0-.856-.597-1.554-1.706-1.554-.94 0-1.733.77-1.932 1.784-1.507 1.242-3.152 2.045-5.485 2.045-2.297 0-3.49-1.202-3.49-3.762.539.165 1.941.363 2.868.363 3.89 0 6.541-1.779 6.541-5.342 0-1.916-1.67-3.928-4.976-3.928h-.008c-4.347 0-6.782 2.772-7.845 5.822a56.147 56.147 0 0 0-.896-.21 7.01 7.01 0 0 0 .409-2.33c0-1.505-.927-3.282-3.406-3.282-1.727 0-3.365 1.139-4.5 2.846l.482-1.905c.073-.291-.047-.615-.497-.615h-2.545c-.363 0-.62.128-.722.544l-1.795 7.093c-.536 2.097-3.31 4.706-6.795 4.706-2.297 0-3.49-1.282-3.49-3.842.602.241 1.942.443 2.868.443 4.048 0 6.541-1.779 6.541-5.342 0-1.916-1.67-3.928-4.976-3.928h-.008c-4.895 0-7.894 3.828-8.402 8.168-.211 1.804-1.724 4.282-3.364 4.282-.798 0-1.244-.505-1.244-1.363 0-.74.518-2.552 1.086-4.821l.798-3.2h2.662c.396 0 .628-.163.719-.536.127-.537.36-1.475.427-1.731.085-.336-.108-.59-.479-.59h-2.617s1.205-4.84 1.234-4.965c.116-.492-.293-.776-.721-.685 0 0-2.023.398-2.398.477-.377.077-.67.286-.806.833l-1.072 4.34h-2.102c-.395 0-.628.162-.717.535a200.37 200.37 0 0 1-.427 1.73c-.087.337.107.591.478.591h2.06c-.014.059-.744 2.854-1.334 5.357-.278 1.203-1.209 4.019-2.732 4.019-.91 0-1.295-.463-1.295-1.454 0-1.561 1.527-5.47 1.527-7.244 0-2.369-1.263-3.741-3.849-3.741-1.631 0-3.321 1.06-4.038 1.99 0 0 .218-.762.292-1.054.08-.31-.086-.613-.489-.613H33.34c-.539 0-.687.289-.766.608l-1.818 7.188c-.599 2.368-2.052 4.347-3.606 4.347-.8 0-1.156-.505-1.156-1.363 0-.741.475-2.57 1.043-4.839.69-2.763 1.3-5.038 1.365-5.304.085-.34-.066-.637-.502-.637h-2.545c-.46 0-.625.243-.722.581 0 0-.716 2.73-1.475 5.767-.55 2.205-1.158 4.45-1.158 5.505 0 1.883.84 3.302 3.148 3.302 1.782 0 3.192-.91 4.27-2.069l-.27 1.065c-.093.359.019.677.439.677h2.603c.453 0 .628-.184.722-.582.091-.38 2.036-8.079 2.036-8.079.514-2.069 1.785-3.438 3.574-3.438.847 0 1.581.565 1.496 1.664-.094 1.208-1.542 5.55-1.542 7.455 0 1.443.531 3.308 3.228 3.308 1.839 0 3.192-.887 4.176-2.032.36 1.215 1.315 2.032 3.066 2.032 2.91 0 4.664-1.737 5.694-3.482.855 2.027 2.858 3.482 5.795 3.482 2.994 0 5.31-1.27 6.952-2.998l-.512 2.021c-.094.365.065.651.49.651h2.576c.353 0 .604-.18.696-.554.045-.183.417-1.632.943-3.69 1.005-3.938 2.622-8.024 5.05-8.024.857 0 1.208.482 1.208 1.242 0 .358-.103.667-.192.833-1.178-.236-2.125.35-2.125 1.615 0 .824.862 1.574 2.025 1.574.889 0 1.624-.22 2.21-.617.546.114 1.134.242 1.726.378-.09.593-.135 1.174-.135 1.726 0 3.162 2.242 5.843 6.26 5.843 3.15 0 5.311-1.16 7.177-2.647.897 1.477 3.161 2.671 6.132 2.671 4.072 0 6.381-2.131 6.381-4.949 0-2.55-2.08-3.488-4.224-4.27-1.743-.633-3.197-.978-3.197-2.218 0-1.017.795-1.482 2.158-1.482.884 0 1.547.192 1.902.292.351.886 1.078 1.866 2.32 1.866 1.05 0 1.522-.836 1.522-1.607 0-2.192-3.628-2.423-3.628-7.125 0-2.924 1.643-5.337 5.048-5.337 2.365 0 3.91 1.51 3.91 3.948 0 2.009-1.211 5.586-1.211 5.586h-2.057c-.396 0-.629.162-.719.535-.127.536-.362 1.474-.428 1.73-.086.337.108.591.48.591h2.008s-2.077 7.71-2.077 9.113c0 1.883 1.054 3.301 3.363 3.301 3.268 0 5.308-2.136 6.196-5.244.07-.24-.066-.436-.308-.436h-1.246c-.249 0-.393.142-.456.387-.281 1.103-.98 2.264-2.353 2.264-.798 0-1.245-.505-1.245-1.363 0-.74.488-2.475 1.087-4.821.285-1.117.793-3.2.793-3.2" fill="#CA2026"/><mask id="b" fill="#fff"><use xlink:href="#a"/></mask><path d="M12.196 0C4.088 0 0 5.87 0 10.765c0 2.963 1.111 5.6 3.494 6.583.391.161.742.005.855-.431.079-.303.265-1.066.349-1.384.114-.431.07-.583-.246-.96-.687-.819-1.126-1.878-1.126-3.38 0-4.354 3.227-8.252 8.402-8.252 4.582 0 7.1 2.827 7.1 6.603 0 4.969-2.178 9.163-5.41 9.163-1.785 0-3.122-1.491-2.694-3.32.514-2.183 1.507-4.539 1.507-6.115 0-1.41-.75-2.586-2.301-2.586-1.825 0-3.291 1.906-3.291 4.46 0 1.626.544 2.726.544 2.726l-2.195 9.39c-.652 2.787-.098 6.203-.051 6.549.027.204.287.253.406.098.168-.222 2.341-2.931 3.08-5.639.21-.767 1.2-4.737 1.2-4.737.594 1.142 2.326 2.148 4.17 2.148 5.485 0 9.207-5.05 9.207-11.81C23 4.762 18.713 0 12.196 0" fill="#CA2026" mask="url(#b)"/></g></svg>