<svg xmlns="http://www.w3.org/2000/svg" width="126" height="122.995" viewBox="0 -1.998 126 122.995"><path d="M108.167 78.541V61.166l.476-.293C119.074 54.462 125 44.875 125 34.48 125 16.078 105.979 1 82.502 1 59.022 1 40 16.077 40 34.48c0 18.4 19.022 33.476 42.502 33.476 4.446 0 8.843-.546 13.074-1.622l.56-.142 12.031 12.349zM11.64 116.582l7.128-7.146.549.137c2.648.659 5.396.992 8.181.992 14.659 0 26.501-9.164 26.501-20.281C54 79.164 42.158 70 27.499 70S1 79.164 1 90.283c0 6.271 3.669 12.067 10.155 15.96l.485.291v10.048z" fill="none" stroke="#284E7B" stroke-width="2"/></svg>