<svg width="45" height="45" xmlns="http://www.w3.org/2000/svg" xmlns:xlink="http://www.w3.org/1999/xlink"><defs><path id="a" d="M0 22.5V45h45V0H0z"/></defs><g fill="none" fill-rule="evenodd"><mask id="b" fill="#fff"><use xlink:href="#a"/></mask><path d="M0 33.554v.002c.027 1 .035 2.004.204 2.996.179 1.051.434 2.075.921 3.029a9.688 9.688 0 0 0 2.706 3.27c.82.639 1.716 1.146 2.708 1.466 1.446.466 2.938.645 4.451.653.944.006 1.888.03 2.833.026 6.86-.029 13.72.05 20.581-.042a16.13 16.13 0 0 0 2.7-.287 9.144 9.144 0 0 0 4.52-2.197c1.51-1.346 2.527-2.991 2.987-4.978.3-1.299.376-2.616.389-3.938v-.264c0-.102-.039-22.462-.043-22.758-.01-.812-.07-1.618-.222-2.417-.185-.973-.447-1.921-.913-2.802a9.721 9.721 0 0 0-1.873-2.498C40.779 1.695 39.43.902 37.86.483c-1.418-.378-2.865-.462-4.323-.46-.002 0-.008-.016-.008-.023H11.465l-.002.022c-.827.016-1.656.01-2.479.111C8.082.245 7.19.414 6.336.73a9.325 9.325 0 0 0-3.51 2.304c-1.13 1.17-1.927 2.524-2.35 4.1C.1 8.54.016 9.973.015 11.418" fill="#F6EB20" mask="url(#b)"/><path d="M22.707 38c-.093 0-.183-.003-.25-.007a1.92 1.92 0 0 1-.165.007c-1.965 0-3.279-.93-4.438-1.75-.831-.588-1.615-1.142-2.533-1.295a8.202 8.202 0 0 0-1.333-.112c-.78 0-1.398.12-1.848.209-.278.054-.517.1-.701.1-.194 0-.43-.043-.527-.377-.078-.264-.134-.52-.187-.767-.135-.615-.232-.991-.463-1.027-2.464-.38-3.92-.941-4.21-1.62A.607.607 0 0 1 6 31.147a.395.395 0 0 1 .33-.413c1.957-.322 3.698-1.357 5.173-3.077 1.143-1.332 1.704-2.604 1.764-2.744a.164.164 0 0 1 .009-.019c.284-.578.34-1.077.169-1.483-.318-.749-1.37-1.083-2.066-1.303-.173-.056-.337-.107-.467-.159-.617-.244-1.63-.76-1.496-1.47.099-.518.784-.88 1.338-.88a.95.95 0 0 1 .405.082c.625.293 1.188.442 1.672.442.602 0 .893-.23.964-.295a118.116 118.116 0 0 0-.06-.987c-.141-2.25-.318-5.05.398-6.655 2.143-4.806 6.686-5.18 8.027-5.18L22.745 7h.08c1.344 0 5.897.374 8.04 5.183.716 1.607.54 4.409.398 6.661l-.007.108c-.02.306-.037.595-.053.876.067.06.333.271.874.292.462-.017.992-.166 1.576-.439.18-.085.38-.103.516-.103.206 0 .415.04.589.113l.01.004c.495.176.82.528.826.897.007.345-.25.86-1.508 1.357-.129.051-.293.103-.467.159-.696.22-1.747.554-2.065 1.303-.172.406-.116.905.169 1.483l.008.018c.089.206 2.208 5.042 6.937 5.822.2.033.343.21.331.413a.648.648 0 0 1-.052.216c-.288.675-1.744 1.235-4.21 1.616-.23.035-.328.41-.461 1.022-.056.253-.112.5-.188.762-.072.245-.232.364-.488.364h-.039a3.94 3.94 0 0 1-.7-.088 9.19 9.19 0 0 0-1.85-.196 8.17 8.17 0 0 0-1.333.113c-.917.152-1.7.706-2.53 1.293-1.162.821-2.476 1.751-4.44 1.751" fill="#FEFEFE"/><path d="M23.327 7h-.085l-.584.006c-.755 0-2.265.107-3.887.824a8.653 8.653 0 0 0-2.48 1.646c-.855.813-1.552 1.816-2.071 2.98-.76 1.706-.58 4.578-.435 6.887v.004l.047.756a1.322 1.322 0 0 1-.558.106c-.429 0-.938-.137-1.514-.408a1.357 1.357 0 0 0-.577-.118c-.343 0-.705.1-1.018.285-.395.232-.65.56-.72.923-.045.24-.043.716.485 1.198.29.265.716.51 1.266.727.144.057.315.112.497.17.63.2 1.583.503 1.83 1.088.127.296.073.687-.16 1.16l-.018.038c-.058.135-.6 1.364-1.71 2.66a9.63 9.63 0 0 1-2.067 1.83 7.595 7.595 0 0 1-2.9 1.133.797.797 0 0 0-.667.831c.007.118.035.235.083.348v.002c.163.38.54.703 1.152.988.748.348 1.867.64 3.324.87.074.14.15.492.204.733.055.257.113.52.195.8.089.304.32.667.912.667.224 0 .483-.05.781-.109.438-.086 1.037-.203 1.784-.203.415 0 .844.036 1.276.108.833.14 1.552.647 2.382 1.235 1.217.86 2.593 1.835 4.697 1.835.057 0 .115-.002.172-.006.07.004.156.006.246.006 2.105 0 3.48-.975 4.696-1.834l.002-.002c.831-.588 1.549-1.095 2.381-1.234a7.796 7.796 0 0 1 1.276-.108c.714 0 1.28.091 1.784.19.33.065.585.096.782.096h.039c.433 0 .752-.238.873-.654.08-.275.138-.532.195-.793.05-.226.129-.589.202-.73 1.46-.23 2.578-.521 3.326-.87.61-.283.986-.606 1.15-.985.049-.113.077-.23.084-.35a.797.797 0 0 0-.666-.832c-4.546-.75-6.593-5.424-6.678-5.623a.69.69 0 0 0-.018-.038c-.232-.473-.286-.863-.16-1.16.248-.585 1.2-.888 1.83-1.088.182-.058.355-.112.498-.169.62-.245 1.063-.511 1.356-.813.349-.36.417-.705.412-.931-.01-.546-.427-1.032-1.091-1.27a1.944 1.944 0 0 0-.74-.141c-.177 0-.44.024-.688.14-.532.25-1.008.386-1.417.405a1.281 1.281 0 0 1-.469-.103l.04-.661.007-.097c.145-2.31.326-5.185-.434-6.892-.52-1.169-1.22-2.174-2.08-2.99a8.686 8.686 0 0 0-2.488-1.645A9.89 9.89 0 0 0 23.327 7m-.005 1c1.258 0 5.589.338 7.63 4.914.672 1.507.5 4.237.361 6.43-.022.348-.043.685-.06 1.007l-.007.139.092.103c.037.041.387.406 1.164.436l.012.001h.013c.514-.02 1.092-.18 1.72-.474a.844.844 0 0 1 .347-.064c.148 0 .306.028.437.082l.019.008c.33.116.562.334.566.53.002.112-.081.513-1.25.975a6.832 6.832 0 0 1-.438.148c-.76.241-1.908.605-2.295 1.516-.218.514-.158 1.119.177 1.8.138.322 2.307 5.21 7.19 6.014a.223.223 0 0 1-.02.078c-.083.195-.609.869-3.882 1.374-.512.078-.638.652-.783 1.32-.052.239-.106.48-.18.73-.022.074-.026.079-.107.079h-.038c-.145 0-.366-.03-.62-.08a9.6 9.6 0 0 0-1.913-.202c-.454 0-.92.04-1.39.117-1 .167-1.815.743-2.678 1.353-1.158.819-2.355 1.666-4.183 1.666-.08 0-.157-.003-.235-.007h-.02l-.021.001a1.53 1.53 0 0 1-.136.006c-1.827 0-3.025-.847-4.183-1.666-.862-.61-1.677-1.186-2.678-1.353a8.488 8.488 0 0 0-1.39-.117c-.811 0-1.447.124-1.911.215-.256.05-.477.093-.621.093-.12 0-.121-.007-.146-.093-.074-.249-.127-.496-.18-.735-.145-.668-.271-1.246-.783-1.324-3.273-.505-3.799-1.18-3.882-1.374a.246.246 0 0 1-.02-.08c4.883-.804 7.052-5.692 7.19-6.015.335-.68.395-1.286.176-1.8-.386-.91-1.534-1.275-2.294-1.516a6.687 6.687 0 0 1-.44-.148c-.985-.39-1.289-.783-1.244-1.02.053-.275.528-.554.943-.554.094 0 .175.015.236.043.674.316 1.29.476 1.83.476.847 0 1.225-.394 1.266-.44l.091-.102-.007-.138c-.017-.322-.038-.66-.06-1.006-.138-2.194-.31-4.922.361-6.429 2.033-4.56 6.343-4.91 7.616-4.91L23.248 8h.074" fill="#040505"/></g></svg>