<svg xmlns="http://www.w3.org/2000/svg" width="126" height="122.995" viewBox="-20 -6.498 126 122.995"><g fill="none" stroke="#284E7B"><path stroke-width="2" d="M1 109h84V1H31.779L1 32.043V109z"/><path d="M1.181 31.5H30.5V1.235L1.181 31.5z"/></g><path d="M21 73.499a4.5 4.5 0 1 1-9 0 4.5 4.5 0 0 1 9 0zm19-14a4.5 4.5 0 1 1-9 0C31 57.014 33.014 55 35.5 55s4.5 2.014 4.5 4.499zm19 7a4.5 4.5 0 1 1-9 .003 4.5 4.5 0 0 1 9-.003zm19-27.998a4.5 4.5 0 1 1-9-.001 4.5 4.5 0 0 1 9 .001zM71 42L57 62m-25 0l-12 9m30-6l-10-4" fill="none" stroke="#578BC1" stroke-width="2"/></svg>