<svg width="120" height="35" xmlns="http://www.w3.org/2000/svg" xmlns:xlink="http://www.w3.org/1999/xlink"><defs><path id="a" d="M0 36h120V1H0z"/></defs><g fill="none" fill-rule="evenodd"><path fill="#80B9E4" d="M88.163 0L78 21.828 81.005 28 95 0z"/><path fill="#293D49" d="M78 22l.803-1.369-.391-.631z"/><path fill="#557C98" d="M69 0l10.236 20L82 12.822 75.731 0z"/><path fill="#1F5373" d="M78 19.9l.05.1L81 13.846 80.597 13z"/><path fill="#557C98" d="M20.18 0l-7.607 19.077L4.927 0H0l10.543 25h3.913L25 0zM26 0v25h19v-3.928H30.46v-6.714h12.73v-3.93H30.46v-6.5h14.36V0z"/><g transform="translate(0 -1)"><path d="M58.112 13C61.099 13 63 11.434 63 9.017v-.07C63 6.397 61.168 5 58.076 5H52v8h6.112zM48 1h11.03c3.114 0 5.551.929 7.141 2.5 1.31 1.357 2.051 3.214 2.051 5.393v.072c0 4.107-2.438 6.57-5.904 7.57L69 26h-5.126l-6.08-8.715h-5.446V26H48V1zm49 0h18.82v3.929h-14.361v6.5h12.728v3.929H101.46v6.714H116V26H97z" fill="#557C98"/><path d="M118.267 23.895c.361 0 .6-.173.6-.453 0-.294-.213-.442-.588-.442H118v.895h.267zm-.267-.013h.156v-.765H118V23h.449c.259 0 .433.106.433.297 0 .129-.104.225-.233.27l.209.315H119V24h-.247l-.26-.4h-.187v.282h.156V24H118v-.118zm-1-.387c0 .84.645 1.505 1.5 1.505s1.5-.665 1.5-1.505c0-.83-.635-1.495-1.5-1.495-.855 0-1.5.666-1.5 1.495zm0 .008c0-.831.635-1.503 1.496-1.503.86 0 1.504.672 1.504 1.503 0 .823-.644 1.497-1.504 1.497S117 24.326 117 23.503z" fill="#FEFEFE"/><path fill="#80B9E4" d="M48 36v-5h.718v4.319H51V36zm6.717-3.669a.938.938 0 0 0-1.433 0c-.236.288-.284.59-.284 1.67s.048 1.38.284 1.668A.929.929 0 0 0 54 36a.929.929 0 0 0 .717-.331c.236-.287.283-.588.283-1.667 0-1.08-.047-1.383-.283-1.67m-.115 3.144A1.397 1.397 0 0 1 53.5 36c-.445 0-.809-.185-1.095-.524-.41-.485-.405-1.03-.405-1.975 0-.948-.006-1.493.405-1.976.286-.34.65-.525 1.095-.525.445 0 .815.186 1.102.525.409.483.398 1.028.398 1.976 0 .944.011 1.49-.398 1.975m2.904.524a1.41 1.41 0 0 1-1.1-.525c-.412-.483-.406-1.03-.406-1.976s-.006-1.49.405-1.976A1.417 1.417 0 0 1 57.506 31c.771 0 1.347.53 1.494 1.512h-.646c-.1-.498-.383-.843-.848-.843-.247 0-.47.11-.617.297-.206.263-.254.546-.254 1.533 0 .99.048 1.272.254 1.535.147.185.37.295.617.295.465 0 .754-.344.854-.84H59c-.14.98-.735 1.511-1.494 1.511m4-4L61 34h1l-.494-2zm1.74 4l-.323-1.004h-1.846L60.755 36H60l1.715-5h.57L64 36h-.755zm3.577-4.32V36h-.647v-4.32H65V31h3v.68z"/><mask id="b" fill="#fff"><use xlink:href="#a"/></mask><path fill="#80B9E4" mask="url(#b)" d="M69 36h1v-5h-1zm4.716-3.669a.939.939 0 0 0-1.433 0c-.237.288-.283.59-.283 1.67s.046 1.38.283 1.668A.928.928 0 0 0 73 36a.93.93 0 0 0 .717-.331c.237-.287.284-.588.284-1.667 0-1.08-.047-1.383-.284-1.67m-.115 3.144A1.393 1.393 0 0 1 72.5 36c-.445 0-.807-.185-1.095-.524-.41-.485-.404-1.03-.404-1.975 0-.948-.006-1.493.404-1.976.288-.34.65-.525 1.095-.525.447 0 .816.186 1.102.525.41.483.399 1.028.399 1.976 0 .944.011 1.49-.399 1.975m5.659.524l-2.456-3.517V36H76v-5h.739l2.456 3.51V31H80v5zm5.845-4H84v2h1.106c.533 0 .894-.363.894-.994 0-.634-.361-1.006-.894-1.006m-.48 2.034h-.975V36H83v-5h1.626c.838 0 1.374.647 1.374 1.517 0 .87-.536 1.517-1.374 1.517m6.09-1.703a.939.939 0 0 0-1.433 0c-.237.288-.283.59-.283 1.67s.046 1.38.283 1.668c.17.205.433.331.716.331a.93.93 0 0 0 .717-.331c.236-.287.284-.588.284-1.667 0-1.08-.048-1.383-.284-1.67m-.113 3.144a1.4 1.4 0 0 1-1.104.524c-.445 0-.809-.185-1.095-.524-.41-.485-.404-1.03-.404-1.975 0-.948-.006-1.493.404-1.976.286-.34.65-.525 1.095-.525.446 0 .816.186 1.104.525.41.483.397 1.028.397 1.976 0 .944.013 1.49-.397 1.975m6.082.524h-.664l-1.025-3.504L93.979 36h-.665L92 31h.806l.876 3.575L94.692 31h.616l1.01 3.575.878-3.575H98zM99 36v-5h3v.682h-2.288v1.46h1.951v.673h-1.95v1.504H102V36zm6.138-4H104v2h1.138c.512 0 .862-.367.862-.995 0-.627-.35-1.005-.862-1.005zm.89 4l-1.156-2.106h-1.04V36H103v-5h2.127c1.04 0 1.704.611 1.704 1.46 0 .718-.48 1.173-1.094 1.329L107 36h-.972zM108 36v-5h3v.682h-2.287v1.46h1.95v.673h-1.95v1.504H111V36zm6.737-3.629c-.206-.255-.482-.371-.833-.371H113v4h.904c.351 0 .627-.116.833-.372.256-.316.263-.91.263-1.666 0-.757-.007-1.274-.263-1.59m-.165 3.158c-.267.316-.652.47-1.09.47H112v-5h1.482c.438 0 .823.153 1.09.47.456.54.428 1.271.428 1.995 0 .723.028 1.524-.428 2.065"/></g></g></svg>