<svg width="120" height="22" xmlns="http://www.w3.org/2000/svg"><g fill="#EE3D42" fill-rule="evenodd"><path d="M32.992 5.393c-.591.058-3.053.595-3.882.767-.886.23-8.985 6.318-9.517 7.814-.118.518-.178 1.314-.178 2.062l-.059 1.208c0 .863.246 2.254.365 3.001.532.114 4.386.015 5.095.13l-.088 1.544c-.692-.047-5.587-.036-8.382-.036-1.418 0-5.981.152-7.383.11l.265-1.47c.769-.058 3.951.134 4.652-.585.346-.357.236-.739.236-2.81v-.978c0-.459 0-1.322-.118-2.128-.296-.864-7.43-9.53-9.262-10.91-.532-.173-3.867-.498-4.695-.67L0 1.116c.413-.201 4.122.05 7.72-.08 2.364-.086 7.759 0 8.426.077l-.172 1.168c-.71.172-4.126.236-5.012.466 2.306 3.336 5.952 7.633 7.134 9.3.65-.92 6.364-4.746 6.542-6.07-.887-.172-3.823-.584-4.296-.584l-.281-1.506c.805-.122 5.036 0 7.142 0 1.815 0 5.695 0 6.797.089l-1.008 1.417z"/><path d="M35.257 10.255L35.215 10c-.73 1.694-1.971 4.355-2.215 5l4-.002a184.975 184.975 0 0 1-1.743-4.743zM44.926 22c-.258-.038-3.187-.036-4.258-.036-.627 0-3.819-.02-4.373-.02l.168-1.382c.736-.037 2.108-.337 2.735-.412-.406-.93-1.743-3.883-2.039-4.44-.774 0-3.558.088-4.332.235-.147.261-1.205 1.308-1.389 2.721.516.112 1.507.328 2.096.402l-.217 1.412c-.627-.037-3.127.037-3.717 0-.553 0-3.121.006-3.6.08l.455-1.492c.59-.074 1.95-.5 2.465-.612.774-1.117 4.361-8.19 4.655-8.859-.48-.112-1.294-.501-1.81-.575L31.694 8c.626.037 3.742.132 4.074.115.74-.037 3.492-.023 4.119-.06l-.232 1.004c-.553.037-1.453.31-1.968.42.257.782 1.283 3.301 2.058 5.16.59 1.34 1.569 3.965 2.49 5.49.626.113 2.065.539 2.728.575l.037.372-.074.924z"/><path d="M65.805 17.868c-.501-.038-2.917-.034-4.152 0-.991.029-3.344-.09-4.463-.04l-.087-1.381c.388-.039 2.796-.205 3.26-.282.154-.738.08-1.785.08-2.677l-.06-1.625c-1.236 0-9.403.427-9.75.465l-.595.078c0 2.214.114 2.914.27 3.73.655.116 3.01.272 3.513.349l-.031 1.505c-.579-.039-4.202 0-5.322 0-1.35 0-4.638-.029-5.41.01l.104-1.553c.619-.039 2.955-.271 3.457-.349.076-1.01.116-2.602.116-4.273v-2.06c0-.698-.04-2.719-.078-3.417-.501-.078-2.838-.235-3.533-.274L43 4.898c.465.04 3.688-.05 5.387-.05 1.585 0 5.174.032 5.6-.007l-.127 1.233c-.733.04-3.167.233-3.592.311-.116.583-.23 1.088-.23 2.953l-.06.972c.697 0 9.312-.034 10.384-.189V8.783c0-1.709.264-3.557.071-4.062-.425-.116-2.727-.442-3.46-.48L57.077 3c.462.04 2.63.026 4.253.064 1.698 0 4.167.07 4.67-.007l-.114 1.021c-.501.04-2.741.61-2.741.61s-.154 1.062-.041 2.595c.092 1.271.12 3.771.12 3.771.064 2.785.236 5.036.082 5.152-.186.14 1.773.26 2.313.336l.212.37-.026.956zm18.19-5.998c.142-4.03-2.935-5.103-6.822-4.83C75.139 7.184 71 8.286 71 11.87c0 3.543 3.175 5.46 7.41 5.083 3.28-.294 5.002-1.53 5.423-3.251l.162-1.832zm3-.798c.187 4.63-4.23 6.928-9.966 6.928-2.387 0-5.292-.436-7.773-1.861C67.32 15.026 67 13.584 67 11.78 67 8.052 71.24 4.96 77.73 5c2.47 0 4.852.36 6.778 1.798 1.717 1.283 2.008 1.919 2.321 3.323l.165.95zm26.267 7.826l-1.25-.111L112 16l1.581.203 1.419.068-.393 2.729-1.345-.102zM114.98 14l-2.85-.237c.3-1.238.037-10.75.014-11.765L112 0c.791.135.672.065 4.023.367 2.04.184 2.305.263 2.977.286l-.877 2.368c-.746 1.895-2.914 10.347-3.143 10.979zm-7.992-3.504c.268-4.222-3.858-5.76-8.309-5.46C96.351 5.194 92 6.551 92 10.496c0 3.9 3.64 5.866 8.493 5.449 3.752-.322 5.314-1.715 6.17-3.6 0 0 .243-.563.325-1.849zm3.996-.563c.342 4.407-4.94 8.067-11.56 8.067-2.752 0-5.097-.32-7.813-2.051-2.233-1.424-3.3-2.655-3.58-5.083-.494-4.3 4.893-7.912 12.38-7.866 2.852 0 5.599.42 7.82 2.086 1.981 1.488 2.327 2.9 2.689 4.527l.064.32zM118 19h.37c.32 0 .63-.02.63-.52 0-.43-.283-.48-.528-.48H118v1zm0-1h.502c.317 0 .466.189.466.57 0 .363-.153.515-.351.547L119 20h-.218l-.363-.86h-.216V20H118v-2zm0 2c.556 0 1-.652 1-1.501 0-.848-.444-1.499-1-1.499-.558 0-1 .65-1 1.499 0 .85.442 1.501 1 1.501zm.501-3A1.49 1.49 0 0 1 120 18.5c0 .854-.684 1.5-1.499 1.5A1.49 1.49 0 0 1 117 18.5c0-.855.681-1.5 1.501-1.5z"/></g></svg>