<?xml version="1.0" standalone="no"?>
<!DOCTYPE svg PUBLIC "-//W3C//DTD SVG 20010904//EN"
 "http://www.w3.org/TR/2001/REC-SVG-20010904/DTD/svg10.dtd">
<svg version="1.0" xmlns="http://www.w3.org/2000/svg"
 width="512.000000pt" height="512.000000pt" viewBox="0 0 512.000000 512.000000"
 preserveAspectRatio="xMidYMid meet">
<metadata>
Created by potrace 1.14, written by Peter Selinger 2001-2017
</metadata>
<g transform="translate(0.000000,512.000000) scale(0.100000,-0.100000)"
fill="#000000" stroke="none">
<path d="M0 2657 l0 -333 69 0 69 1 -1 223 c0 122 2 224 4 227 2 2 24 -53 47
-123 24 -70 60 -173 80 -229 l36 -101 56 2 55 2 18 49 c11 28 48 133 83 235
l63 185 1 -235 0 -235 68 0 67 0 3 333 2 332 -104 0 -105 0 -61 -192 c-34
-106 -66 -208 -72 -226 -5 -18 -12 -31 -16 -28 -5 6 -34 86 -108 309 l-46 137
-104 0 -104 0 0 -333z"/>
<path d="M1949 2986 c-2 -2 -2 -26 -1 -54 l4 -49 64 -1 64 -1 0 55 0 54 -63 0
c-35 0 -66 -2 -68 -4z"/>
<path d="M2995 2658 l1 -333 72 0 c43 -1 72 3 73 10 0 5 2 66 2 135 l2 125
139 5 139 5 0 48 c0 26 -4 51 -8 55 -3 4 -66 7 -138 7 l-132 0 -2 76 -2 77
155 -1 c85 0 158 3 162 7 4 4 7 32 7 62 l1 54 -236 0 -235 0 0 -332z"/>
<path d="M3540 2657 l0 -333 65 0 c63 -1 65 0 65 25 1 260 1 619 1 629 -1 8
-21 12 -66 12 l-65 0 0 -333z"/>
<path d="M4369 2938 c-1 -7 -1 -39 -1 -70 l0 -58 -38 0 c-42 0 -49 -11 -42
-62 4 -25 8 -28 42 -28 l37 0 1 -164 c0 -187 6 -205 71 -224 21 -7 66 -12 99
-12 l61 0 -2 53 c-2 52 -2 52 -33 49 -57 -6 -64 12 -64 164 l0 136 48 -3 47
-3 2 46 2 46 -37 0 c-20 0 -43 0 -49 1 -9 1 -13 22 -13 71 l0 70 -65 0 c-45 0
-65 -4 -66 -12z"/>
<path d="M950 2805 c-54 -17 -87 -46 -106 -91 -22 -52 -19 -54 51 -54 39 0 65
4 65 10 0 6 11 22 25 35 42 43 140 29 145 -20 7 -60 0 -64 -131 -80 -132 -15
-189 -64 -184 -156 5 -71 39 -113 106 -129 76 -18 186 4 211 43 4 6 9 0 13
-14 6 -23 10 -25 67 -24 l61 0 -2 190 c-2 220 -10 247 -76 279 -52 26 -182 31
-245 11z m185 -300 c-7 -74 -39 -105 -108 -105 -48 0 -77 24 -77 65 0 39 26
58 94 69 22 4 41 8 42 9 2 1 14 3 28 5 23 2 24 -1 21 -43z"/>
<path d="M1490 2807 c-82 -38 -129 -114 -134 -217 -3 -47 16 -129 38 -166 53
-89 211 -114 285 -45 l31 29 0 -49 c0 -28 -7 -63 -15 -78 -30 -60 -128 -67
-175 -13 -23 26 -31 29 -85 28 -33 -1 -59 -4 -57 -8 1 -5 2 -17 2 -28 0 -29
49 -76 102 -99 34 -14 64 -18 124 -17 85 3 128 19 177 64 47 44 54 92 53 357
l-1 240 -62 2 -63 2 0 -32 0 -32 -18 22 c-36 46 -143 67 -202 40z m159 -100
c40 -21 63 -74 58 -140 -4 -70 -29 -108 -81 -121 -73 -19 -125 25 -134 112
-11 120 68 195 157 149z"/>
<path d="M2327 2806 c-57 -21 -100 -58 -127 -112 -20 -41 -25 -63 -24 -134 0
-92 11 -125 61 -178 43 -44 99 -67 172 -68 114 -2 198 52 225 144 l13 47 -55
3 c-66 4 -82 -1 -82 -27 0 -10 -14 -31 -31 -45 -64 -54 -147 -19 -168 72 -20
82 7 172 60 200 50 27 139 -8 139 -55 0 -7 6 -13 13 -14 30 -3 118 -1 122 2 9
10 -27 86 -56 116 -56 57 -176 79 -262 49z"/>
<path d="M4797 2806 c-53 -19 -106 -66 -132 -116 -47 -92 -29 -237 38 -308 83
-89 279 -91 355 -5 20 23 52 82 52 95 0 2 -24 3 -53 3 -44 0 -58 -5 -80 -27
-31 -31 -85 -44 -130 -31 -34 9 -77 63 -77 94 0 18 11 19 175 19 l175 0 0 36
c0 179 -160 298 -323 240z m145 -106 c14 -11 31 -33 36 -50 l11 -30 -42 -1
c-179 -3 -180 -3 -172 24 19 65 115 99 167 57z"/>
<path d="M1949 2787 c-1 -30 -1 -383 0 -428 l1 -36 65 1 65 0 0 242 0 242 -65
1 c-60 0 -65 -1 -66 -22z"/>
<path d="M3779 2796 c-4 -44 2 -346 7 -370 10 -45 33 -75 74 -96 68 -34 191
-14 223 37 12 19 27 7 22 -17 -4 -23 -7 -22 68 -25 l57 -2 0 243 0 243 -60 0
c-33 0 -62 -4 -65 -9 -3 -5 -6 -71 -7 -147 0 -76 -5 -153 -10 -171 -17 -62
-106 -88 -151 -43 -21 20 -22 32 -25 196 l-4 174 -64 -1 c-39 -1 -64 -5 -65
-12z"/>
</g>
</svg>
