<svg xmlns="http://www.w3.org/2000/svg" width="1177" height="504" viewBox="0 0 1177 504"><defs><linearGradient id="a" x1="588.5" x2="588.5" y1="167.32" y2="307.71" gradientUnits="userSpaceOnUse"><stop offset="0"/><stop offset="1"/></linearGradient></defs><path fill="#231f20" d="M141.196 493.051v10.14h-2.02v-27.194h9.866c5.984 0 10.103 3.068 10.103 8.312v.082c0 5.708-4.934 8.66-10.607 8.66zm15.927-8.625c0-4.31-3.34-6.566-8.234-6.566h-7.693v13.328h7.46c5.048 0 8.467-2.645 8.467-6.683zm29.514 18.765l-8.663-11.264h-8.896v11.264h-2.02v-27.194h11.421c5.865 0 9.711 3.185 9.711 7.731v.076c0 4.546-3.38 7.15-7.963 7.77l8.972 11.617zm-.466-19.387c0-3.653-2.875-5.944-7.808-5.944h-9.285v12.24h9.168c4.545 0 7.925-2.296 7.925-6.217zm9.696 5.866v-.076c0-7.42 5.48-14.064 13.714-14.064 8.237 0 13.636 6.566 13.636 13.985.038.04.038.04 0 .079 0 7.422-5.477 14.064-13.713 14.064-8.236 0-13.637-6.566-13.637-13.988zm25.253-.076c0-6.721-4.896-12.24-11.616-12.24s-11.538 5.443-11.538 12.16v.08c0 6.72 4.894 12.236 11.615 12.236 6.722 0 11.54-5.436 11.54-12.16zm20.766 13.79H240.1l-11.966-27.387h2.253l10.645 25.019 10.684-25.02h2.137zm19.916-27.387h2.02v27.194h-2.02zm12.308 27.193v-27.193h9.053c8.546 0 14.45 5.866 14.45 13.518v.079c0 7.652-5.904 13.597-14.45 13.597zm21.408-13.596c0-6.447-4.78-11.734-12.355-11.734h-7.032v23.465h7.032c7.575 0 12.355-5.165 12.355-11.655zm11.173-13.597h2.02v27.194h-2.02zm33.402 27.193l-19.153-24.162v24.163h-1.942v-27.194h1.904l18.765 23.658v-23.658h1.94v27.194zm23.994.468c-8.584 0-13.676-6.333-13.676-13.988v-.076c0-7.343 5.323-14.064 13.442-14.064 4.43 0 7.227 1.322 9.948 3.573l-1.323 1.52c-2.137-1.867-4.622-3.269-8.741-3.269-6.602 0-11.227 5.595-11.227 12.161v.08c0 7.03 4.392 12.276 11.656 12.276 3.457 0 6.683-1.437 8.663-3.109v-7.808h-9.092v-1.865h11.033v10.49c-2.446 2.175-6.254 4.08-10.683 4.08zm35.527-10.607v10.14h-2.02v-27.194h9.865c5.983 0 10.102 3.068 10.102 8.312v.082c0 5.708-4.934 8.66-10.607 8.66zm15.927-8.625c0-4.31-3.34-6.566-8.236-6.566h-7.691v13.328h7.457c5.05 0 8.47-2.645 8.47-6.683zm9.929 18.764v-27.193h19.35v1.863h-17.33v10.683h15.58v1.866h-15.58v10.916h17.523v1.866zm50.687.001l-3.457-7.612h-16.044l-3.46 7.612H451.1l12.663-27.39h1.944l12.663 27.39zm-11.46-25.174l-7.188 15.734h14.335zm32.111 25.641c-7.77 0-13.518-6.178-13.518-13.988v-.076c0-7.69 5.749-14.064 13.597-14.064 4.855 0 7.769 1.79 10.566 4.353l-1.436 1.474c-2.371-2.292-5.09-4.003-9.171-4.003-6.526 0-11.46 5.326-11.46 12.161v.08c0 6.875 5.013 12.235 11.5 12.235 3.925 0 6.605-1.512 9.364-4.233l1.358 1.32c-2.876 2.837-5.982 4.741-10.8 4.741zm18.283-.468v-27.193h19.346v1.863h-17.326v10.683h15.58v1.866h-15.58v10.916h17.522v1.866zm40.344-13.52v-.076c0-7.42 5.481-14.064 13.714-14.064 8.237 0 13.635 6.566 13.635 13.985.041.04.041.04 0 .079 0 7.422-5.477 14.064-13.711 14.064-8.236 0-13.638-6.566-13.638-13.988zm25.253-.076c0-6.721-4.896-12.24-11.615-12.24-6.721 0-11.538 5.443-11.538 12.16v.08c0 6.72 4.893 12.236 11.614 12.236 6.721 0 11.539-5.436 11.539-12.16zm12.922-11.734v11.153h15.382v1.863H593.61v12.315h-2.02v-27.194h19.15v1.863zm62.602 25.33v-23.62l-10.759 15.656h-.158l-10.762-15.655v23.62h-1.941v-27.194h1.906l10.914 16.082 10.917-16.082h1.904v27.194zm12.298-27.193h2.023v27.194h-2.023zm33.407 27.193l-19.153-24.162v24.163h-1.942v-27.194h1.904l18.765 23.658v-23.658h1.941v27.194zm11.521 0v-27.193h9.051c8.546 0 14.452 5.866 14.452 13.518v.079c0 7.652-5.906 13.597-14.452 13.597zm21.404-13.596c0-6.447-4.777-11.734-12.353-11.734h-7.034v23.465h7.034c7.576 0 12.353-5.165 12.353-11.655zm45.588 13.596l-19.15-24.162v24.163h-1.941v-27.194h1.904l18.762 23.658v-23.658h1.944v27.194zm34.252.001l-3.46-7.612h-16.044l-3.46 7.612h-2.093l12.663-27.39h1.941l12.663 27.39zm-11.463-25.174l-7.185 15.734h14.332zm27.413-.157v25.33h-2.023v-25.33h-9.478v-1.863h20.978v1.863zm17.816-1.863h2.021v27.194h-2.021zm11.107 13.673v-.076c0-7.42 5.477-14.064 13.71-14.064 8.237 0 13.638 6.566 13.638 13.985.038.04.038.04 0 .079 0 7.422-5.48 14.064-13.714 14.064-8.236 0-13.634-6.566-13.634-13.988zm25.25-.076c0-6.721-4.894-12.24-11.616-12.24-6.72 0-11.538 5.443-11.538 12.16v.08c0 6.72 4.893 12.236 11.614 12.236 6.722 0 11.54-5.436 11.54-12.16zm31.993 13.596l-19.15-24.162v24.163h-1.942v-27.194h1.904l18.765 23.658v-23.658h1.941v27.194zm38.488.194h-1.635l-7.962-23.617-7.965 23.617h-1.63l-9.868-27.387h2.254l8.546 24.205 7.965-24.284h1.553l7.962 24.284 8.549-24.205h2.1zm18.044-27.387h2.021v27.194h-2.021zm12.306 27.193v-27.193h9.054c8.546 0 14.45 5.866 14.45 13.518v.079c0 7.652-5.904 13.597-14.45 13.597zm21.404-13.596c0-6.447-4.774-11.734-12.35-11.734h-7.034v23.465h7.034c7.576 0 12.35-5.165 12.35-11.655zm10.906 13.596v-27.193h19.346v1.863h-17.326v10.683h15.577v1.866h-15.577v10.916h17.519v1.866z"/><path fill="url(#a)" d="M45.893 170.801c5.927-.385 11.046-.58 15.363-.58 1.03 0 1.547.888 1.547 2.657 0 1.774-.517 2.658-1.547 2.658-5.41.645-9.533 1.499-12.367 2.562-2.835 1.065-4.798 2.498-5.894 4.304s-1.642 4.995-1.642 9.572v90.99c0 4.448.546 7.591 1.642 9.43 1.096 1.836 3.044 3.288 5.845 4.351 2.803 1.059 6.909 1.915 12.319 2.56 1.096.128 1.644.998 1.644 2.608 0 1.803-.517 2.706-1.547 2.706-4.317 0-9.436-.193-15.363-.578-5.669-.389-10.467-.581-14.395-.581-3.931 0-8.729.192-14.396.581-5.991.385-11.176.578-15.557.578-1.031 0-1.545-.903-1.545-2.706 0-1.61.514-2.48 1.545-2.608 7.794-.905 13.093-2.353 15.894-4.35 2.804-2 4.203-5.994 4.203-11.991v-90.99c0-4.512-.564-7.687-1.69-9.525-1.128-1.836-3.109-3.286-5.943-4.351-2.834-1.063-6.989-1.917-12.464-2.562-1.031 0-1.545-.884-1.545-2.658 0-1.769.514-2.657 1.545-2.657 4.381 0 9.566.195 15.557.58 5.667.388 10.465.58 14.396.58 3.928 0 8.726-.192 14.395-.58zm180.192 0c5.282-.385 9.373-.58 12.271-.58 1.029 0 1.547.905 1.547 2.706 0 1.61-.518 2.482-1.547 2.609-8.052.902-13.575 2.386-16.57 4.45-2.994 2.066-4.558 6.034-4.687 11.903l-2.124 113.889c0 1.288-.773 1.933-2.319 1.933-.773 0-1.804-.517-3.092-1.545L109.95 193.604l-1.353 89.372a11.694 11.694 0 00-.097 1.451c0 4.896 1.546 8.359 4.638 10.387 3.092 2.027 8.664 3.525 16.716 4.491 1.029.128 1.545.998 1.545 2.608 0 1.803-.516 2.706-1.545 2.706-3.35 0-7.957-.193-13.817-.578-5.475-.389-9.695-.581-12.657-.581-3.222 0-7.569.192-13.044.581-5.282.385-9.371.578-12.27.578-1.032 0-1.546-.903-1.546-2.706 0-1.61.579-2.48 1.738-2.608 7.987-.966 13.462-2.464 16.425-4.496 2.963-2.029 4.543-5.977 4.736-11.845l3.38-90.99v-.871c0-5.22-1.513-8.862-4.54-10.925-3.029-2.062-8.664-3.61-16.908-4.642-.903 0-1.353-.884-1.353-2.658 0-1.769.515-2.657 1.546-2.657 2.253 0 5.409.195 9.468.58 3.607.388 6.313.58 8.116.58 2.254 0 4.96-.192 8.117-.58 3.22-.385 5.99-.58 8.309-.58l93.045 104.058v-82.383c0-5.484-1.564-9.339-4.688-11.568-3.123-2.226-8.905-3.823-17.342-4.792-1.032-.127-1.546-.999-1.546-2.609 0-1.801.514-2.706 1.546-2.706 3.478 0 8.116.195 13.914.58 5.41.388 9.596.58 12.559.58 3.22 0 7.567-.192 13.043-.58zm208.694.58c17.136 0 33.783-.386 49.953-1.16a221.646 221.646 0 006.473 29.566c0 1.289-1.127 1.933-3.381 1.933-1.098 0-1.772-.451-2.03-1.352-4.767-15.201-14.945-22.803-30.53-22.803h-19.519c-7.471 0-11.205 3.864-11.205 11.594v42.996h24.346c6.477 0 10.862-1.482 13.163-4.446 2.298-2.96 3.9-8.213 4.809-15.747 0-1.031.884-1.545 2.656-1.545 1.77 0 2.657.514 2.657 1.545 0 3.22-.192 7.279-.58 12.174-.386 4.703-.579 8.535-.579 11.495 0 3.031.193 6.895.579 11.597.388 5.024.58 9.147.58 12.367 0 1.031-.887 1.545-2.657 1.545-1.772 0-2.656-.514-2.656-1.545-.972-7.859-2.672-13.365-5.102-16.522-2.429-3.156-6.717-4.735-12.87-4.735H424.54v47.538c0 7.602 3.734 11.4 11.205 11.4h21.063c7.665 0 15.267-2.497 22.803-7.486 7.535-4.993 13.074-11.225 16.619-18.699.257-.578.805-.869 1.641-.869.901 0 1.704.242 2.417.727.709.482 1.063 1.078 1.063 1.785-5.217 11.145-9.469 21.771-12.753 31.885-24.287-.77-41.583-1.159-51.886-1.159-10.179 0-27.44.389-51.787 1.159-1.034 0-1.548-.903-1.548-2.706 0-1.61.514-2.48 1.548-2.608 5.346-.645 9.433-1.501 12.268-2.56 2.835-1.063 4.815-2.497 5.945-4.304 1.124-1.807 1.691-4.963 1.691-9.477v-90.99c0-4.449-.532-7.59-1.595-9.428-1.062-1.837-3.012-3.304-5.845-4.399-2.835-1.098-6.99-1.966-12.464-2.611-1.034 0-1.548-.884-1.548-2.658 0-1.769.514-2.657 1.548-2.657 16.231.774 32.849 1.16 49.854 1.16zm274.008 63.769c3.735.516 8.438.772 14.105.772 10.374 0 17.939-2.453 22.71-7.364 4.762-4.912 7.147-12.764 7.147-23.556 0-18.872-8.216-28.306-24.639-28.306-5.408 0-9.515.434-12.319 1.307-2.8.872-4.671 2.249-5.602 4.121-.938 1.874-1.402 5.17-1.402 9.888zm4.636-64.349c5.992-.385 11.142-.58 15.461-.58 14.361 0 25.474 3.006 33.334 9.017 7.857 6.012 11.786 14.453 11.786 25.328 0 6.871-2.598 13.247-7.787 19.13-5.194 5.884-12.215 10.416-21.062 13.595l29.76 48.451c2.581 4.233 5.904 7.359 9.971 9.377 4.067 2.023 9.329 3.415 15.782 4.186.901.128 1.357.998 1.357 2.608 0 1.803-.517 2.706-1.547 2.706-2.384 0-6.28-.228-11.689-.674-3.929-.328-6.542-.485-7.827-.485-1.868 0-4.803.192-8.794.581-3.994.385-6.923.578-8.791.578l-29.276-47.663c-4.123-6.597-7.458-10.836-10-12.712-2.546-1.874-7.65-2.813-15.314-2.813v41.545c0 4.445.564 7.584 1.691 9.421 1.124 1.837 3.124 3.285 5.991 4.348 2.864 1.062 6.972 1.915 12.318 2.56 1.095.128 1.641.998 1.641 2.608 0 1.803-.517 2.706-1.544 2.706-4.319 0-9.469-.193-15.461-.578-5.733-.389-10.563-.581-14.49-.581-3.933 0-8.73.192-14.4.581-5.927.385-11.045.578-15.361.578-1.033 0-1.547-.903-1.547-2.706 0-1.61.514-2.48 1.547-2.608 5.346-.645 9.434-1.501 12.272-2.56 2.835-1.063 4.815-2.497 5.941-4.304 1.127-1.807 1.692-4.963 1.692-9.477v-90.99c0-4.449-.53-7.59-1.595-9.428-1.063-1.837-3.01-3.304-5.845-4.399-2.836-1.098-6.99-1.966-12.465-2.611-1.033 0-1.547-.884-1.547-2.658 0-1.769.514-2.657 1.547-2.657 4.316 0 9.434.195 15.361.58 5.67.388 10.467.58 14.4.58 3.927 0 8.757-.192 14.49-.58zm147.15 0c5.928-.385 11.049-.58 15.364-.58 1.031 0 1.545.888 1.545 2.657 0 1.774-.514 2.658-1.545 2.658-5.407.645-9.533 1.499-12.365 2.562-2.838 1.065-4.803 2.498-5.898 4.304-1.095 1.806-1.64 4.995-1.64 9.572v90.99c0 4.448.545 7.591 1.64 9.43 1.095 1.836 3.045 3.288 5.846 4.351 2.803 1.059 6.91 1.915 12.321 2.56 1.094.128 1.641.998 1.641 2.608 0 1.803-.514 2.706-1.545 2.706-4.315 0-9.436-.193-15.364-.578-5.667-.389-10.469-.581-14.393-.581-3.931 0-8.73.192-14.398.581-5.991.385-11.173.578-15.555.578-1.032 0-1.545-.903-1.545-2.706 0-1.61.513-2.48 1.545-2.608 7.795-.905 13.091-2.353 15.894-4.35 2.801-2 4.205-5.994 4.205-11.991v-90.99c0-4.512-.57-7.687-1.691-9.525-1.13-1.836-3.113-3.286-5.941-4.351-2.839-1.063-6.993-1.917-12.467-2.562-1.032 0-1.545-.884-1.545-2.658 0-1.769.513-2.657 1.545-2.657 4.382 0 9.564.195 15.555.58 5.668.388 10.467.58 14.398.58 3.924 0 8.726-.192 14.393-.58zm304.248 0c3.738-.385 7.285-.58 10.634-.58 1.03 0 1.544.888 1.544 2.657 0 .697-.228 1.313-.674 1.852-.45.536-.937.806-1.448.806-6.379.713-11.194 2.041-14.444 3.986-3.258 1.945-7.107 6.156-11.547 12.634l-36.138 51.979v38.841c0 4.382.371 7.472 1.11 9.275.739 1.805 2.447 3.27 5.121 4.398 2.672 1.126 6.748 2.011 12.224 2.656 1.026.128 1.546.998 1.546 2.608 0 1.803-.52 2.706-1.546 2.706-4.318 0-9.179-.193-14.589-.578-5.232-.389-9.819-.581-13.77-.581-3.885 0-8.667.192-14.347.581-5.991.385-11.144.578-15.46.578-1.03 0-1.544-.903-1.544-2.706 0-1.61.514-2.48 1.544-2.608 7.793-.902 13.093-2.35 15.895-4.347 2.8-1.998 4.201-5.992 4.201-11.982v-38.455l-33.427-52.464c-4.578-6.478-8.602-10.689-12.078-12.633-3.481-1.944-8.15-3.239-14.013-3.888-1.03 0-1.544-.884-1.544-2.658 0-1.769.514-2.657 1.542-2.657 3.022 0 7.139.195 12.353.58 5.656.388 10.222.58 13.696.58 3.282 0 7.816-.192 13.603-.58 6.756-.385 12.386-.58 16.897-.58 1.03 0 1.547.888 1.547 2.657 0 1.774-.517 2.658-1.547 2.658-8.369 1.17-12.555 3.378-12.555 6.627 0 2.6 1.32 5.946 3.956 10.038l27.968 43.535 29.191-43.689c2.061-3.044 3.095-5.697 3.095-7.963 0-2.46-1.147-4.321-3.433-5.585-2.286-1.261-6.167-2.25-11.642-2.963-.773 0-1.162-.884-1.162-2.658 0-1.769.518-2.657 1.548-2.657 3.798 0 8.438.195 13.915.58 5.346.388 9.793.58 13.337.58 3.285 0 6.768-.192 10.441-.58zm-854.244.58c32.167 0 52.634-.901 61.402-2.706.899 8.374 2.832 19.488 5.796 33.336 0 1.223-1.159 1.833-3.478 1.833-1.03 0-1.676-.451-1.933-1.352-2.77-9.081-6.729-15.508-11.883-19.275-5.153-3.768-12.788-5.652-22.899-5.652h-9.083c-3.157 0-5.314.515-6.473 1.546-1.159 1.031-1.741 2.962-1.741 5.797v98.068c0 4.445.564 7.584 1.694 9.421 1.124 1.837 3.121 3.285 5.988 4.348 2.867 1.062 6.972 1.915 12.318 2.56 1.032.128 1.548.998 1.548 2.608 0 1.803-.516 2.706-1.548 2.706-4.314 0-9.465-.193-15.456-.578-5.685-.389-10.432-.581-14.252-.581-3.95 0-8.797.192-14.542.581-5.99.385-11.143.578-15.458.578-1.032 0-1.547-.903-1.547-2.706 0-1.61.515-2.48 1.547-2.608 7.793-.902 13.09-2.35 15.893-4.347 2.802-1.998 4.203-5.992 4.203-11.982v-98.068c0-2.835-.58-4.766-1.739-5.797-1.159-1.031-3.349-1.546-6.569-1.546h-7.538c-9.081 0-17.328 2.303-24.735 6.909-7.407 4.605-12.239 10.58-14.491 17.922-.323.967-1.032 1.448-2.125 1.448-2.192 0-3.287-.707-3.287-2.124 3.607-9.725 7.022-20.74 10.242-33.045 8.768 1.805 28.815 2.706 60.146 2.706zm648.499 0c32.167 0 52.633-.901 61.401-2.706.902 8.374 2.833 19.488 5.795 33.336 0 1.223-1.156 1.833-3.476 1.833-1.034 0-1.677-.451-1.931-1.352-2.77-9.081-6.733-15.508-11.886-19.275-5.154-3.768-12.786-5.652-22.899-5.652h-9.084c-3.156 0-5.313.515-6.47 1.546-1.161 1.031-1.739 2.962-1.739 5.797v98.068c0 4.445.56 7.584 1.69 9.421 1.127 1.837 3.121 3.285 5.991 4.348 2.865 1.062 6.97 1.915 12.318 2.56 1.031.128 1.545.998 1.545 2.608 0 1.803-.514 2.706-1.545 2.706-4.318 0-9.471-.193-15.459-.578-5.682-.389-10.433-.581-14.251-.581-3.95 0-8.797.192-14.543.581-5.989.385-11.142.578-15.46.578-1.028 0-1.545-.903-1.545-2.706 0-1.61.517-2.48 1.545-2.608 7.792-.902 13.094-2.35 15.898-4.347 2.802-1.998 4.201-5.992 4.201-11.982v-98.068c0-2.835-.578-4.766-1.74-5.797-1.159-1.031-3.349-1.546-6.57-1.546h-7.535c-9.083 0-17.329 2.303-24.733 6.909-7.41 4.605-12.242 10.58-14.493 17.922-.325.967-1.034 1.448-2.129 1.448-2.19 0-3.284-.707-3.284-2.124 3.609-9.725 7.021-20.74 10.242-33.045 8.767 1.805 28.814 2.706 60.146 2.706zm-409.004 5.024c11.796-6.054 25.171-9.083 40.129-9.083 5.801 0 13.6 1.032 23.401 3.094 8.636 1.803 15.244 2.703 19.821 2.703.835 9.02 2.319 19.97 4.447 32.851 0 1.032-1.03 1.546-3.091 1.546-1.352 0-2.161-.514-2.415-1.546-5.676-21.643-20.765-32.463-45.265-32.463-15.149 0-27.868 6.249-38.151 18.744-10.283 12.496-15.427 27.794-15.427 45.894 0 17.584 5.088 32.544 15.266 44.879 10.176 12.334 22.607 18.503 37.296 18.503 21.577 0 32.369-5.355 32.369-16.068v-25.553c0-3.549-1.708-6.08-5.125-7.599-3.413-1.515-11.594-2.919-24.537-4.211-1.034 0-1.548-.948-1.548-2.848 0-1.771.514-2.659 1.548-2.659 4.312 0 10.689.162 19.127.484 8.117.322 14.14.484 18.07.484 3.863 0 8.987-.162 15.358-.484 6.829-.322 12.406-.484 16.718-.484 1.031 0 1.545.904 1.545 2.706 0 1.61-.511 2.48-1.536 2.609-7.761.902-13.037 2.351-15.825 4.348-2.791 1.997-4.184 5.991-4.184 11.98v11.402c0 9.919.71 16.749 2.126 20.483-8.573 3.413-17.822 6.198-27.749 8.356-9.927 2.16-18.695 3.238-26.301 3.238-14.698 0-27.591-2.897-38.68-8.695-11.086-5.798-19.725-14.09-25.912-24.879-6.188-10.789-9.279-22.786-9.279-35.992 0-13.142 3.349-25.201 10.052-36.183 6.704-10.982 15.956-19.501 27.752-25.557z"/><path fill="#5a5758" d="M642.662 362.312h5.57l9.215 27.915 8.949-27.807h6.91l-13.073 37.772h-5.68l-9.211-26.952-9.217 26.952h-5.68l-13.071-37.772h7.124l8.946 27.807zm95.238 37.612h-6.964l-3.805-9.057h-17.734l-3.857 9.057h-6.75l16.502-37.772h6.105zm-19.665-29.895l-6.426 14.998h12.911zm76.926 29.895l-9.215-13.075h-8.25v13.075h-6.59V362.42h16.714c8.628 0 13.93 4.555 13.93 11.892 0 6.216-3.696 9.965-8.946 11.413l10.123 14.2zm-17.466-31.504v12.59h9.644c4.715 0 7.716-2.465 7.716-6.32 0-4.127-2.893-6.27-7.769-6.27zm82.978 31.504l-9.217-13.075h-8.248v13.075h-6.593V362.42h16.718c8.625 0 13.93 4.555 13.93 11.892 0 6.216-3.697 9.965-8.95 11.413l10.126 14.2zm-17.466-31.504v12.59h9.643c4.713 0 7.717-2.465 7.717-6.32 0-4.127-2.896-6.27-7.772-6.27zm94.817 31.504h-6.966l-3.805-9.057h-17.73l-3.858 9.057h-6.75l16.502-37.772h6.105zm-19.66-29.895l-6.43 14.998h12.911zm79.065-7.609h6.479v37.504h-5.516l-20.68-26.684v26.684h-6.485V362.42h6.112l20.09 25.93zm58.759 37.504h-6.645v-31.396h-11.889v-6.108h30.429v6.108h-11.895zm63.317 0h-6.642v-14.788l-14.897-22.716h7.77l10.502 16.61 10.607-16.61h7.556l-14.896 22.555z"/><path fill="#00adef" d="M881.125 139.714l6.36-15.658c.239-.566-.015-1.32-.812-1.32h-24.925c29.956-15.491 26.753-50.706 7.775-71.286-9.32-10.103-15.778-21.723-16.923-33.156-3.43 9.832-3.5 20.234 5.034 32.928 9.375 13.948 17.147 30.869 11.889 46.876-2.52 7.668-10.061 16.92-19.436 19.436 9.602-10.976 14.005-16.844 13.264-29.954-.69-12.12-4.564-24.14-12.123-37.96-8.003-14.634-7.775-36.357 7.775-49.62-15.81.234-29.46 22.894-26.982 40.246 2.286 16.007 9.054 27.48 13.948 37.5 9.606 19.666 4.344 35.444-1.6 40.703 2.286-8.232 2.058-22.182-2.745-33.156-5.576-12.745-8.003-16.007-11.66-24.696-3.219-7.64-3.432-18.522-.229-26.982-10.978 10.518-14.73 23.093-12.35 33.612 2.692 11.893 5.968 19.048 15.781 30.64 5.028 5.948 7.544 11.893 7.544 19.896-3.203-6.518-6.633-11.205-15.78-18.751-3.63-2.995-14.175-15.32-10.972-34.3-16.01 24.925-7.317 51.622 17.15 58.024h-27.67c-.8 0-1.054.754-.811 1.32l6.359 15.658c.39.819.67 1.029 1.597 1.029h4.63c.744 0 .963.409.858.858-1.73 7.22 1.921 11.26 7.375 11.26 1.034 0 1.086.72.686 1.145-.914.972-1.095 1.176-1.83 1.829-1.037.922-.99 1.693-.684 3.316h46.873c.307-1.623.351-2.394-.686-3.316-.733-.653-.914-.857-1.828-1.83-.399-.424-.35-1.143.684-1.143 6.406 0 8.73-4.553 7.378-11.261-.09-.452.114-.858.858-.858h4.631c.925 0 1.206-.21 1.597-1.03l6.36-15.657c.238-.566-.016-1.32-.813-1.32h-24.925z"/></svg>