<svg xmlns="http://www.w3.org/2000/svg" width="536" height="101" viewBox="0 0 536 101"><path fill="#fff" d="M249.334 68.096c.225 0 .425.06.603.18.176.12.264.27.264.446-1.3 2.777-2.36 5.425-3.178 7.946-6.052-.193-10.362-.29-12.93-.29-2.536 0-6.837.097-12.904.29-.258 0-.386-.225-.386-.675 0-.401.128-.618.386-.65 1.332-.16 2.35-.374 3.057-.638.707-.265 1.2-.622 1.48-1.072.282-.45.423-1.237.423-2.362V48.597c0-1.108-.133-1.891-.398-2.35-.264-.457-.75-.823-1.456-1.095-.707-.274-1.742-.49-3.106-.651-.258 0-.386-.22-.386-.662 0-.441.128-.663.386-.663 4.044.193 8.186.29 12.423.29 4.27 0 8.419-.097 12.448-.29a55.299 55.299 0 001.613 7.368c0 .32-.281.482-.842.482-.274 0-.442-.112-.506-.337-1.188-3.788-3.725-5.682-7.608-5.682h-4.864c-1.862 0-2.793.962-2.793 2.889V58.61h6.068c1.613 0 2.706-.37 3.28-1.108.572-.738.972-2.046 1.198-3.924 0-.257.22-.385.662-.385.44 0 .662.128.662.385 0 .803-.048 1.814-.145 3.034a36.55 36.55 0 00-.144 2.864c0 .755.048 1.718.144 2.89.097 1.252.145 2.279.145 3.082 0 .257-.221.385-.662.385-.442 0-.662-.128-.662-.385-.242-1.96-.666-3.331-1.271-4.118-.605-.786-1.674-1.18-3.207-1.18h-6.068v11.847c0 1.894.93 2.84 2.793 2.84h5.249c1.909 0 3.804-.621 5.682-1.865 1.878-1.244 3.258-2.797 4.14-4.66.065-.144.202-.216.41-.216zm-64.67-24.92c.257 0 .386.226.386.675 0 .4-.13.618-.385.65-2.007.225-3.383.594-4.13 1.109-.745.515-1.135 1.503-1.167 2.966l-.53 28.38c0 .32-.192.482-.577.482-.193 0-.45-.13-.771-.385l-24.823-28.05-.337 22.27a2.97 2.97 0 00-.024.363c0 1.22.385 2.083 1.155 2.588.77.505 2.159.879 4.166 1.119.256.032.385.249.385.65 0 .45-.13.675-.385.675-.835 0-1.983-.05-3.443-.145-1.365-.096-2.416-.144-3.154-.144-.803 0-1.886.048-3.251.144-1.316.096-2.335.145-3.057.145-.257 0-.385-.225-.385-.675 0-.401.144-.618.433-.65 1.99-.24 3.354-.614 4.093-1.12.738-.506 1.13-1.49 1.18-2.952l.842-22.674v-.217c0-1.301-.377-2.208-1.131-2.722-.755-.514-2.16-.9-4.214-1.157-.225 0-.337-.22-.337-.662 0-.441.128-.663.386-.663.56 0 1.347.049 2.359.145.899.097 1.573.145 2.022.145.562 0 1.236-.048 2.023-.145a17.823 17.823 0 012.07-.145l23.187 25.93V48.579c0-1.367-.39-2.328-1.17-2.883-.777-.555-2.218-.953-4.32-1.194-.257-.032-.385-.25-.385-.65 0-.45.128-.675.385-.675.867 0 2.022.049 3.467.145 1.348.097 2.39.145 3.13.145.802 0 1.886-.048 3.25-.145 1.316-.096 2.336-.145 3.058-.145zm17.998.29c8.016 0 13.116-.225 15.3-.675.225 2.087.707 4.856 1.445 8.307 0 .305-.29.457-.867.457-.256 0-.417-.112-.481-.337-.691-2.263-1.677-3.864-2.961-4.803-1.285-.94-3.187-1.408-5.707-1.408h-2.263c-.787 0-1.324.128-1.613.385-.29.257-.434.738-.434 1.444v24.438c0 1.108.14 1.89.422 2.348.28.458.778.818 1.492 1.083.715.265 1.738.478 3.07.638.257.032.386.249.386.65 0 .45-.13.675-.386.675-1.075 0-2.36-.05-3.852-.145a54.075 54.075 0 00-3.551-.144c-.984 0-2.192.048-3.624.144a61.352 61.352 0 01-3.852.145c-.257 0-.385-.225-.385-.675 0-.401.128-.618.385-.65 1.942-.224 3.262-.585 3.96-1.083.699-.498 1.048-1.493 1.048-2.986V46.836c0-.706-.145-1.187-.434-1.444-.288-.257-.834-.385-1.637-.385h-1.878c-2.263 0-4.318.573-6.164 1.72-1.845 1.149-3.05 2.638-3.611 4.467-.08.24-.257.36-.53.36-.545 0-.818-.175-.818-.528.899-2.424 1.749-5.168 2.552-8.235 2.185.45 7.18.675 14.988.675zm-66.68 2.746c-.273.45-.41 1.245-.41 2.385V71.27c0 1.109.137 1.892.41 2.35.273.458.759.819 1.457 1.084.698.264 1.72.478 3.07.638.272.032.409.249.409.65 0 .45-.13.675-.385.675-1.076 0-2.352-.05-3.828-.145a54.298 54.298 0 00-3.588-.144c-.98 0-2.175.048-3.587.144a61.621 61.621 0 01-3.877.145c-.257 0-.385-.225-.385-.675 0-.401.128-.618.385-.65 1.942-.225 3.263-.586 3.96-1.084.699-.498 1.048-1.493 1.048-2.988V48.597c0-1.124-.14-1.915-.421-2.373-.281-.458-.775-.82-1.481-1.085-.706-.264-1.742-.477-3.106-.638-.257 0-.385-.22-.385-.662 0-.441.128-.663.385-.663 1.092 0 2.384.049 3.877.145 1.412.097 2.608.145 3.587.145a53.7 53.7 0 003.588-.145 60.184 60.184 0 013.828-.145c.256 0 .385.222.385.663 0 .442-.13.662-.385.662-1.348.16-2.376.374-3.082.638-.707.266-1.196.623-1.47 1.073zm203.013 0c-.273.45-.41 1.245-.41 2.385V71.27c0 1.109.137 1.892.41 2.35.273.458.759.819 1.456 1.084.699.264 1.723.478 3.07.638.274.032.41.249.41.65 0 .45-.128.675-.385.675-1.076 0-2.352-.05-3.83-.145a54.271 54.271 0 00-3.586-.144c-.98 0-2.175.048-3.587.144a61.621 61.621 0 01-3.877.145c-.257 0-.385-.225-.385-.675 0-.401.128-.618.385-.65 1.943-.225 3.263-.586 3.96-1.084.699-.498 1.049-1.493 1.049-2.988V48.597c0-1.124-.142-1.915-.421-2.373-.282-.458-.776-.82-1.481-1.085-.707-.264-1.743-.477-3.107-.638-.257 0-.385-.22-.385-.662 0-.441.128-.663.385-.663 1.092 0 2.384.049 3.877.145 1.412.097 2.608.145 3.587.145.978 0 2.175-.048 3.587-.145a60.239 60.239 0 013.829-.145c.257 0 .385.222.385.663 0 .442-.128.662-.385.662-1.348.16-2.376.374-3.082.638-.707.266-1.196.623-1.47 1.073zm-14.206 29.13c.225.033.338.25.338.65 0 .45-.128.676-.385.676-.594 0-1.565-.057-2.913-.17-.98-.08-1.63-.12-1.95-.12-.466 0-1.197.049-2.192.145-.995.096-1.725.145-2.191.145L308.2 64.79c-1.027-1.644-1.858-2.7-2.492-3.168-.634-.467-1.906-.7-3.816-.7v10.352c0 1.108.14 1.89.42 2.348.28.458.78.818 1.494 1.083s1.738.478 3.07.638c.273.032.409.249.409.65 0 .45-.13.675-.385.675-1.076 0-2.36-.05-3.853-.145a55.31 55.31 0 00-3.61-.144c-.981 0-2.176.048-3.59.144a60.21 60.21 0 01-3.827.145c-.257 0-.385-.225-.385-.675 0-.401.128-.618.385-.65 1.333-.16 2.35-.374 3.058-.638.707-.265 1.2-.622 1.48-1.072.282-.45.422-1.237.422-2.362V48.597c0-1.108-.131-1.891-.397-2.35-.265-.457-.75-.823-1.457-1.095-.706-.274-1.741-.49-3.106-.651-.257 0-.385-.22-.385-.662 0-.441.128-.663.385-.663 1.076 0 2.35.049 3.828.145 1.413.097 2.608.145 3.589.145a54.7 54.7 0 003.61-.145 61.354 61.354 0 013.853-.145c3.579 0 6.348.75 8.307 2.247 1.958 1.499 2.937 3.602 2.937 6.312 0 1.712-.648 3.3-1.941 4.767-1.294 1.466-3.044 2.596-5.248 3.388l7.416 12.073c.643 1.055 1.47 1.834 2.484 2.337 1.014.504 2.325.85 3.933 1.043zM305.408 59.55c2.585 0 4.47-.612 5.659-1.835 1.187-1.224 1.78-3.181 1.78-5.87 0-4.703-2.046-7.054-6.14-7.054-1.346 0-2.37.108-3.068.326-.698.217-1.165.56-1.397 1.026-.233.468-.35 1.289-.35 2.464v10.75c.932.129 2.104.193 3.516.193zm58.855-16.083c8.016 0 13.116-.225 15.3-.675.226 2.087.707 4.856 1.445 8.307 0 .305-.288.457-.866.457-.258 0-.418-.112-.481-.337-.691-2.263-1.678-3.864-2.962-4.803-1.284-.94-3.186-1.408-5.706-1.408h-2.264c-.786 0-1.324.128-1.612.385-.29.257-.434.738-.434 1.444v24.438c0 1.108.14 1.89.42 2.348.282.458.779.818 1.494 1.083.714.265 1.737.478 3.07.638.257.032.385.249.385.65 0 .45-.128.675-.385.675-1.076 0-2.36-.05-3.852-.145a54.102 54.102 0 00-3.552-.144c-.984 0-2.192.048-3.624.144a61.298 61.298 0 01-3.852.145c-.256 0-.385-.225-.385-.675 0-.401.129-.618.385-.65 1.942-.224 3.263-.585 3.96-1.083.7-.498 1.048-1.493 1.048-2.986V46.836c0-.706-.144-1.187-.433-1.444-.29-.257-.835-.385-1.637-.385h-1.878c-2.264 0-4.318.573-6.163 1.72-1.847 1.149-3.051 2.638-3.612 4.467-.081.24-.258.36-.53.36-.546 0-.82-.175-.82-.528.9-2.424 1.75-5.168 2.553-8.235 2.185.45 7.18.675 14.988.675zm53.92-.29c.257 0 .385.222.385.663a.699.699 0 01-.168.46c-.112.135-.233.202-.361.202-1.59.178-2.79.508-3.6.993-.811.485-1.77 1.534-2.876 3.148l-9.005 12.953v9.679c0 1.092.092 1.862.276 2.312.184.449.61.814 1.276 1.095.666.28 1.682.502 3.046.662.256.032.385.249.385.65 0 .45-.13.675-.385.675-1.076 0-2.287-.05-3.635-.145a47.426 47.426 0 00-3.431-.144c-.97 0-2.161.048-3.576.144a61.352 61.352 0 01-3.852.145c-.257 0-.385-.225-.385-.675 0-.401.128-.618.385-.65 1.942-.224 3.262-.585 3.96-1.083s1.048-1.493 1.048-2.986v-9.582l-8.33-13.074c-1.141-1.614-2.144-2.664-3.01-3.148-.867-.485-2.031-.807-3.492-.97-.257 0-.385-.22-.385-.661 0-.441.128-.663.384-.663.753 0 1.779.049 3.079.145 1.409.097 2.547.145 3.413.145.818 0 1.948-.048 3.39-.145a76.36 76.36 0 014.21-.145c.257 0 .386.222.386.663 0 .442-.13.662-.386.662-2.085.29-3.13.842-3.13 1.65 0 .649.33 1.483.987 2.503l6.97 10.848 7.274-10.887c.514-.758.77-1.42.77-1.984 0-.613-.285-1.077-.854-1.392-.57-.314-1.537-.56-2.901-.738-.193 0-.29-.22-.29-.662 0-.441.129-.663.386-.663.946 0 2.102.049 3.467.145a47.23 47.23 0 003.324.145c.818 0 1.686-.048 2.602-.145a25.907 25.907 0 012.65-.145zM289.254 61.21c.257 0 .385.225.385.674 0 .4-.127.618-.383.65-1.934.225-3.248.587-3.943 1.084-.696.498-1.043 1.493-1.043 2.985v2.842c0 2.47.177 4.173.53 5.104-2.136.85-4.441 1.544-6.915 2.082-2.474.539-4.66.807-6.554.807-3.663 0-6.875-.722-9.64-2.167-2.761-1.445-4.914-3.511-6.456-6.2-1.542-2.688-2.312-5.678-2.312-8.968 0-3.275.834-6.28 2.505-9.017 1.67-2.737 3.976-4.86 6.915-6.368 2.94-1.51 6.273-2.264 10-2.264 1.446 0 3.389.257 5.832.77 2.152.45 3.798.675 4.939.675.208 2.247.578 4.976 1.108 8.186 0 .257-.257.385-.77.385-.337 0-.54-.128-.602-.385-1.414-5.393-5.175-8.09-11.28-8.09-3.775 0-6.944 1.557-9.507 4.67-2.562 3.115-3.844 6.927-3.844 11.438 0 4.38 1.268 8.109 3.804 11.183 2.536 3.074 5.634 4.61 9.294 4.61 5.377 0 8.066-1.333 8.066-4.003v-6.368c0-.884-.426-1.515-1.277-1.893-.85-.378-2.89-.728-6.114-1.05-.258 0-.386-.236-.386-.71 0-.441.128-.662.386-.662 1.074 0 2.663.04 4.766.12 2.023.08 3.524.12 4.503.12.963 0 2.239-.04 3.827-.12a93.845 93.845 0 014.166-.12zm-3.839 29.834h1.388L289.099 98l2.23-6.929h1.723l-3.258 9.412h-1.416l-2.295-6.716-2.297 6.716h-1.415l-3.258-9.412h1.776L283.118 98zm23.732 9.373h-1.735l-.948-2.257h-4.419l-.96 2.257H299.4l4.113-9.413h1.521zm-4.9-7.45l-1.6 3.738h3.216zm19.169 7.449l-2.296-3.258h-2.056v3.258h-1.642v-9.345h4.165c2.15 0 3.471 1.135 3.471 2.963 0 1.55-.92 2.483-2.229 2.844l2.523 3.538zm-4.352-7.85v3.137h2.403c1.175 0 1.923-.614 1.923-1.575 0-1.028-.72-1.562-1.936-1.562zm20.678 7.85l-2.297-3.258h-2.055v3.258h-1.643v-9.345h4.166c2.149 0 3.47 1.135 3.47 2.963 0 1.55-.92 2.483-2.23 2.844l2.524 3.538zm-4.352-7.85v3.137h2.403c1.174 0 1.923-.614 1.923-1.575 0-1.028-.722-1.562-1.937-1.562zm23.627 7.851h-1.736l-.948-2.257h-4.418l-.961 2.257h-1.682l4.112-9.413h1.52zm-4.9-7.45l-1.601 3.738h3.217zm19.703-1.897h1.614v9.347h-1.374l-5.153-6.65v6.65h-1.616V91.07h1.523l5.006 6.462zm14.643 9.346h-1.656v-7.823h-2.963V91.07h7.583v1.523h-2.964zm15.777 0h-1.654v-3.684l-3.712-5.662h1.936l2.617 4.14 2.643-4.14h1.883l-3.712 5.622zm-59.401-64.842l1.585-3.902c.059-.141-.004-.33-.203-.33h-6.211c7.465-3.86 6.667-12.634 1.938-17.763-2.323-2.517-3.932-5.413-4.217-8.262-.855 2.45-.873 5.042 1.254 8.205 2.336 3.476 4.273 7.693 2.963 11.682-.628 1.91-2.508 4.216-4.844 4.843 2.393-2.735 3.49-4.198 3.306-7.464-.172-3.021-1.138-6.016-3.021-9.46-1.995-3.646-1.938-9.06 1.937-12.364-3.94.058-7.341 5.704-6.723 10.028.569 3.989 2.256 6.848 3.475 9.345 2.394 4.9 1.083 8.832-.398 10.143.569-2.051.513-5.528-.684-8.262-1.39-3.176-1.995-3.99-2.906-6.154-.802-1.904-.855-4.616-.057-6.724-2.737 2.62-3.672 5.754-3.079 8.376.671 2.963 1.488 4.746 3.933 7.635 1.253 1.482 1.88 2.964 1.88 4.958-.798-1.624-1.653-2.792-3.933-4.673-.904-.746-3.532-3.817-2.734-8.547-3.989 6.21-1.823 12.864 4.274 14.459h-6.895c-.2 0-.262.188-.201.329l1.584 3.902c.098.204.168.256.398.256h1.154c.186 0 .24.102.214.214-.431 1.8.479 2.807 1.838 2.807.257 0 .27.179.17.284-.227.243-.272.294-.455.456-.26.23-.247.422-.171.827h11.68c.077-.405.088-.597-.17-.827-.183-.162-.228-.213-.456-.456-.1-.105-.087-.284.17-.284 1.597 0 2.176-1.135 1.839-2.807-.022-.112.029-.214.214-.214h1.154c.23 0 .3-.052.398-.256l1.585-3.902c.059-.141-.004-.33-.203-.33h-6.211z"/><text dominant-baseline="text-before-edge" transform="translate(0 47)"><tspan fill="#fff" font-family="'Hoefler Text','HoeflerText-Regular'" font-size="22.55" letter-spacing=".23">Authorized</tspan></text><text dominant-baseline="text-before-edge" transform="translate(432 46)"><tspan fill="#fff" font-family="'Hoefler Text','HoeflerText-Regular'" font-size="22.55" letter-spacing=".23">dealership</tspan></text></svg>