<svg id="Layer_1" xmlns="http://www.w3.org/2000/svg" viewBox="0 0 192.2 54.1"><style>.st0{fill:#fff}</style><path class="st0" d="M86.6 20s4.7 3 4.5 3.7c-.3.6-2.1.1-2.9-1-.9-1.2-1.6-2.7-1.6-2.7m6.3 11.2s2.3 2.8 2.7 2.8c.4.1.3-.7.1-.9 0-.2-.6-1.3-2.8-1.9m8.7-8.6s-4.8-1.4-5.1-1.5c-.4-.1-2.6-.5-2.6 1-.1 1.6 3.8 1.5 3.8 1.5s3.7-.5 3.9-1m-13.4-8.5s-4.3 1.7-4 3.1c.3 1.4 1.6 1.7 2.1 1.5.5-.1.8-1.5.8-1.9 0-.4.6-2.4 1.1-2.7m-4.1 3.4s1.8 4.7 1.3 5.1c-.5.3-1.6-1-1.6-2.3 0-1.3.3-2.8.3-2.8m10.1 15.4s-3.2-3.6-3.9-3.7c-.7-.1-.3 1.3.3 1.9.6.5 1.2 1.1 3.6 1.8m-.8-19.3s-4 2.1-5 2.1c-1 .1 1.3 0 2.3.7 1 .8 2.7-2.3 2.7-2.8m20.3-2.3s1.5-3.3 1.4-3.8c-.1-.5-1 .2-1.2.8-.3.6-.5 1.2-.2 3"/><path class="st0" d="M91.5 17.4s-2-1.7-2.6-1.2c-.6.5-.4 1.2-.2 1.5.2.2 1 0 1.2-.1.2-.1 1.4-.3 1.6-.2m24.2-5.6s.5-2.1-.1-2.3c-.6-.3-1.1.1-1.2.4-.1.2.3.7.5.8.2.1.8.9.8 1.1m-5.6 9s2.5-3.5 1.6-4.4c-.9-.9-2.1-.5-2.4-.1-.3.4.1 1.5.3 1.9.2.2.7 2.1.5 2.6m-20.4-.4s-2.7-.1-2.8-.9c-.1-.8.5-1.2.8-1.2.3 0 .7.6.8.9.1.2.9 1.1 1.2 1.2m4.7 13s.7 1.7.6 2.1c0 .4.1-.5.4-.9.4-.4-.7-1.2-1-1.2"/><path class="st0" d="M87.6 15.6s-.4 2.5-.7 3c-.3.5.4-.6 1.1-.8.7-.2-.2-2-.4-2.2m26.7-.1s.8-.3.9-.3c.1 0 .5-.1.5.2 0 .3-.7.3-.7.3s-.6-.1-.7-.2m-2.3-4.6s-1.9-2.5-1.9-2.9c0-.5.9 0 1.2.4.3.5.6.9.7 2.5m-19 2.6s-4.8 2.5-5.2 2c-.4-.5.9-1.8 2.2-1.9 1.4-.2 3-.1 3-.1m-3.4 14.9s1.2-4.9 1.9-4.8c.6 0 .7 1.7 0 2.7-.8 1.1-1.9 2.1-1.9 2.1m8.9-15.2s2.3-.8 2.5-.9c.2-.1 1.2-.3 1.3.4.1.8-1.8.9-1.8.9s-1.9-.1-2-.4m-2.3 20.2s.9 1.7.5 2c-.5.4-.9.1-1.1-.1-.1-.2.1-.7.2-.8.1-.1.4-.9.4-1.1m-3.8-14.9s-.1-1.9-.3-2.1c-.2-.2-.4.3-.4.7.1.3.1.6.7 1.4m21-9.4s-1.3-2.7-.6-3.2c.7-.5 1.5-.1 1.7.2.2.3-.3 1-.5 1.2-.1.3-.7 1.5-.6 1.8M93.3 20.8s-1-2.9-.7-3.1c.3-.2.9.6.9 1.4 0 .8-.2 1.7-.2 1.7m10.5.5s-1 0-1.2-.1c-.2-.1.3.1.4.4.1.3.7-.2.8-.3m-17.1 2.2s-1.2 0-1.3-.4c-.1-.4.2-.6.4-.6.1 0 .3.3.4.4 0 .2.3.6.5.6m20.9-5.2s-2.5-2.9-3.5-2.3c-1 .6-.9 1.7-.7 2 .3.4 1.4.2 1.7.1.4-.1 2.2-.1 2.5.2m-22 .6s.6.8.9.7c.3-.1.3-.4.2-.5-.1-.1-.4-.1-.5-.1-.1 0-.5 0-.6-.1m8.3-5.3s2.1 2.5 1.8 2.8c-.3.3-1.2-.3-1.4-1.1-.2-.7-.4-1.7-.4-1.7"/><path class="st0" d="M93.2 22.7s-.3-4.7-1.8-4.9c-1.5-.1-2.2 1-2.2 1.6 0 .6 1.2 1.2 1.6 1.4.4.1 2.2 1.3 2.4 1.9m.6-9.1s-2 2.9-1.2 3.6c.8.7 1.7.4 2 .1.3-.3-.1-1.3-.3-1.5-.2-.3-.7-1.8-.5-2.2m-4.5 14.5s-.5-3.9-.1-4.1c.5-.1 1 1 .8 2-.2 1-.7 2.1-.7 2.1m6.6-8.8s.7-2.1.1-2.5c-.6-.3-1.1.1-1.2.3-.1.2.3.8.5.9.1.2.7 1 .6 1.3"/><path class="st0" d="M87.7 20.4s4.3 3.3 4.9 3.2c.7-.1.1-1.1-.1-1.3-.2-.2-1.3-1.7-4.8-1.9m.8 3s.9 2.8.1 4c-.8 1.2-1.2.5-1.1-.2.1-.7.9-3.7 1-3.8m5.9-2.8s-1 1.2-1.1 1.6c-.1.3.1-.4-.1-.8-.1-.4 1-.8 1.2-.8m17.3-14.7s-.1 2.2.1 2.7-.3-.6-.8-.9c-.6-.2.5-1.7.7-1.8m-18 7.5s5.7-.2 5.8.4c.2.7-1.6 1.3-3 .8-1.3-.4-2.8-1.2-2.8-1.2M88 18s1.7 0 2.1-.1c.4-.1-.4.2-.7.6-.2.4-1.4-.4-1.4-.5m-.4 7.7s-.6-1.5-.9-1.8c-.3-.3.3.3.8.3.5.1.2 1.4.1 1.5M116 12.5s1.2-2.1 1.1-2.4c-.1-.3-.5 0-.6.1-.1.2-.7.8-.5 2.3M90.3 31.2s-2.9-1.2-2.7-2.1c.2-.9 1.1-1.1 1.4-1 .4.1.5 1 .5 1.3.1.2.5 1.6.8 1.8m3.9-10.7s1.2-1.4 1.4-1.4c.2 0 .1.4.1.5 0 0-.3.6-1.5.9M87.4 22s1 1.4.6 1.8c-.4.4-.8.2-1 0-.1-.2.1-.6.2-.7.1-.1.3-.9.2-1.1m-2.6-3.5s1.2 4.3 1.7 4.6c.5.4.8-1 .5-1.7-.2-.6-.4-1.3-2.2-2.9m5.8 9.1s.1 1.6.3 1.9c.2.3-.2-.4-.7-.5-.3-.3.3-1.4.4-1.4m2.9-6.9s2.2-1.6 1.8-2.3c-.4-.7-1.1-.7-1.4-.6-.3.2-.3.9-.2 1.2.1.2 0 1.5-.2 1.7m1.2.1s1.8-1.8 2.5-1.3c.6.5.5 1.2.3 1.4-.2.2-.9.1-1.1 0-.3-.2-1.4-.3-1.7-.1m14.6 4.7s-1-4.8-1.1-5.2c-.1-.4-.7-2.5-2.2-1.8-1.4.7.5 4.1.5 4.1s2.2 3 2.8 2.9m.6.9s-1.5-5.5-.9-5.8c.6-.3 1.7 1.3 1.5 2.7-.2 1.5-.6 3.1-.6 3.1"/><path class="st0" d="M111.7 28.8s-2.1-1.9-1.7-2.6c.5-.7 1.3-.6 1.5-.4.3.2.2 1 .1 1.3 0 .2-.1 1.4.1 1.7m-1.1-4.9s.8 1.5 1 1.7c.3.2-.4-.3-.8-.3-.5 0-.3-1.3-.2-1.4m-7.4-1.5s1.8-2.6 1.9-3.3c.1-.7-.1.9.3 1.7.5.8-1.9 1.7-2.2 1.6m-5.7-1.3s4.5 1.6 5.2 1.3c.7-.2-.4-1.3-1.2-1.5-.8-.1-1.5-.4-4 .2m-1.3-1.7s.5-1.5.4-1.8c0-.4.1.4.4.7.3.3-.7 1.1-.8 1.1m-1.6-5.3s5 2.6 4.8 3.2c-.2.6-2 .3-3-.7-.9-1.1-1.8-2.5-1.8-2.5m4.2 4.2s-1.6-1-1.9-.9c-.3 0 .1.5.4.7.2 0 .5.2 1.5.2m1.1 1.4s-1.2-1.3-.9-1.7c.3-.4.8-.3 1-.2.2.1 0 .6 0 .8-.2.2-.3.9-.1 1.1m11.9-3.4s-4.4-3.6-4-4.1c.3-.6 2.1.1 2.8 1.3.6 1.2 1.2 2.8 1.2 2.8m-.9-.5s-1.9-1.9-2.5-1.4c-.7.5-.5 1.2-.3 1.4.2.2 1 .1 1.2 0 .1-.1 1.3-.2 1.6 0M100 13.7s0 2.5-.7 2.6c-.7.1-1.2-.4-1.2-.7 0-.3.6-.7.8-.8.2-.1 1-.8 1.1-1.1M96.7 15s1.3.1 1.6 0c.3-.1-.3.1-.5.5-.2.2-1-.4-1.1-.5"/><path class="st0" d="M99.1 20.5s3.3-3 4.4-2.1c1.1.8.8 2.1.4 2.5-.4.4-1.6.1-2-.1-.4-.3-2.4-.5-2.8-.3m-.9.3s.7-2 .1-2.3c-.6-.3-1.1.1-1.2.3-.1.2.3.7.4.9.2 0 .7.9.7 1.1m.3-.1s.4-1.8.3-2.2c-.1-.4.1.5.5.8.4.4-.6 1.4-.8 1.4m15.8-10.3s-1 2-1 2.3c.1.3.6-.1.8-.5.1-.3.3-.7.2-1.8m.1 0s1.8 1.8 1.4 2.4c-.5.6-1.2.5-1.4.3-.2-.2-.1-.9 0-1.1.1-.2.2-1.3 0-1.6m.4 21.1s.8 2.3.8 2.5c.1.2.5 1.2 1.2.8.7-.4-.5-2-.5-2s-1.2-1.4-1.5-1.3m-2.9-5.2s2.1 4.6 1.6 4.9c-.5.4-1.6-.9-1.7-2.1 0-1.3.1-2.8.1-2.8"/><path class="st0" d="M113.9 30.4s1.3 1.6.9 2.1-1 .3-1.2.1c-.2-.2 0-.8.1-.9.1-.1.3-1 .2-1.3m2 4.5s-.5-.9-.5-1.1c0-.3 0 .3-.1.6-.2.2.5.5.6.5m-1.5-2s.7.4.9.6c.1.2-.1-.2-.1-.5s-.7-.2-.8-.1m-11.1-21.6s-.7 1.5-.7 1.8c0 .4 0-.5-.3-.8-.3-.3.8-1 1-1m8.1 3.6s1.2-2.7.5-3.2-1.5-.1-1.6.2c-.2.3.3 1 .5 1.2.1.3.6 1.4.6 1.8m-3.4-3.5s2 0 2.1.3c0 .2-.6.4-1.1.2-.5-.2-1-.5-1-.5m-4.6-.1s4.2-.1 4.3.4c.1.5-1.2.9-2.2.6-1-.3-2.1-1-2.1-1"/><path class="st0" d="M103.4 11.6s1.8 4.2 3.2 3.9c1.4-.3 1.6-1.6 1.5-2.1-.2-.5-1.5-.8-1.9-.7-.5 0-2.5-.6-2.8-1.1m6.6 8.9s-3.4-3.5-3.5-4.2c-.1-.7 1.4-.2 1.9.5.6.6 1.1 1.2 1.6 3.7m-2-1.4s.6 1.6.6 2c0 .4 0-.5.4-.9.3-.5-.8-1.1-1-1.1m3.9-3.2s4.8-1.3 5.2-1.9c.4-.6-1.1-.9-1.9-.6-.8.4-1.5.6-3.3 2.5m3.1-.1s-2.8 2.1-3.2 2.8c-.4.7.4-.9.3-1.9-.2-1 2.6-1.1 2.9-.9m4 3.8s-3.2-3.7-3.2-4.4c0-.7 1.4-.1 1.9.6s.9 1.3 1.3 3.8m-1.2-4s.1-1.3-.3-1.4c-.4-.1-.6.2-.7.3 0 .2.3.4.4.5.1.1.6.5.6.6m-.2 2.7s2 1.9 1.5 2.6c-.5.7-1.3.6-1.5.4-.3-.2-.1-1 0-1.2.1-.3.2-1.6 0-1.8"/><path class="st0" d="M118.9 21.3s-1.6 2.5-2.4 2.2c-.8-.3-.9-1.2-.7-1.5.2-.3 1-.3 1.3-.3.2.1 1.6-.1 1.8-.4m-8-19.4s-.6-.2-.5.5c0 .6-.2 1.2-.6 1.3-.3.2.7-.5-.4-.9-1.2-.4-1.1 1.2-.9 1.6.2.4-1.2 0-1.2-1s.3-1.2.3-1.2-.8 1.1-.4 2.4c.4 1.3-.4.9-.4.9s.5.6 0 1.4c-.5.7-.5.8-.4 1.2.1.4-.7-.5-.4-1.2.2-.7-.9.1-.8-.7.1-.7-.2 1.5-.5 2s-.7.6-.7 1.4c0 .8-.5 1-.8 1.1-.2.1.4-.3 0-1.1s-.7-1.4-.2-1.8c.5-.4.8-.8.7-1.1-.1-.3-.3-1.1.4-1.4.7-.2-.1-.4.4-1s.1-1.7 1.1-1.6c1 0 .9.1 1.3-.3.3-.4 1-1 1.9-1 .9 0 0-1 1.5-1.2 1.6-.2.5.8 1.7.5 1.2-.3 1.1-.8 1.9-.5.8.3 1.6.7 1.6 1.2s.1.5.8.5c.6.1 1.1.6 1 1.1-.1.5.1.4.4.4.3 0-.8.8-1.1 1.1-.3.3-.5-1.1-1-.8-.5.4-1.2-.1-1 .6.2.8-.8-.3-.5-1 .3-.8-.8-.6-.9 0 0 .5-.5-.9-.5.2s-.8.9-.8 0 .6-1.6-.1-1.2c-.8.2-.3-1.1-.9-.4"/><path class="st0" d="M118.5 3.1s-2 1.4-2.1 1.6c-.1.3.5.2.6.2.1 0 .9-.3 1.5-1.8"/><path class="st0" d="M119 3.3s-.1.9-.4.9c-.3 0-.4-.2-.4-.3 0-.1.2-.2.3-.2.1 0 .5-.3.5-.4m-2 1.9s.9-.5 1.1-.9c.2-.4 0 .2.5.3.5.1.4.6.2.9-.2.3-.2.4 0 .8.2.3.7 1.4-.3 2.2-1 .8-1 1.1-.9 1.5.2.4-.6-.7 0-1.3.6-.7 0-.4 0-.8s.6-.8-.3-.7c-.9.1 1-.5.1-.9-.8-.5.6-1.1-.4-1.1m-11.4 13.1s-1.3.1-1.4.5c0 .4.3.6.5.6s.3-.3.4-.5c0-.1.3-.6.5-.6m-3.5 0s-1.6-.6-1.9-.1c-.3.5 0 .9.2 1 .2.1.6-.2.7-.3.1-.2.8-.6 1-.6m1.2-.2s-3.6-.2-3.7-.7c-.1-.4 1.1-.7 1.9-.3.9.4 1.8 1 1.8 1m8.8-6.9s-6.6 0-6.7-.7c-.1-.7 2-1.4 3.5-.8 1.6.6 3.2 1.5 3.2 1.5m.8 3.5s-.8.9-1.1.7c-.3-.2-.3-.5-.2-.7.1-.1.4-.1.5 0 .1.1.7.1.8 0M80.6 25.3s4.3-2.3 4.7-1.9c.4.5-.8 1.6-2 1.8-1.2.2-2.7.1-2.7.1m4.6-2.3s-2.6 0-2.8-.8c-.1-.8.5-1.2.8-1.3.3 0 .7.6.8.8.1.3.9 1.2 1.2 1.3m-.3.2s-4.3 1.7-4.6 1.2c-.3-.5.9-1.4 2.1-1.4 1.1-.1 2.5.2 2.5.2m-4-.2s1.1-1.3 1.2-1.7c.1-.4-.1.5.1.9.2.5-1.1.9-1.3.8m-4.6 4.7s4-2 4.3-2.6c.3-.6-1.2-.6-1.8-.2-.7.4-1.3.8-2.5 2.8M78 27s-.7 1.3-1.5 1.5c-.8.1-.6-.3-.3-.5.3-.3 1.8-1.1 1.8-1"/><path class="st0" d="M75.8 28.1s-1.8 1.6-1.4 2.2c.4.6 1.1.5 1.3.4.2-.2.1-.9 0-1.1-.1-.1-.1-1.2.1-1.5m.3 2.2s.8 2.2.2 2.6c-.6.4-1.2 0-1.3-.3-.1-.3.3-.8.5-1 .1-.1.6-1 .6-1.3"/><path class="st0" d="M76.3 30.2s-.6-.8-.4-1.3c.1-.5.3-.3.4-.1 0 .3.1 1.4 0 1.4m9.5-15.4s-4.8-.5-6.5 1.6c-1.8 2.1-2.9 5.2-4.3 4.6-1.4-.6-.4 1.2.2 1.2.5 0 2 .2 2.6-1.3.6-1.5.6.4.7-1.2.1-1.6.5-1.6.5-1.6s-.3.8-.1 1.3c.2.5 1.6 2.2 1.2 3.7-.4 1.5.8-1.4-.2-3.4s1.8-2.8 1.8-2.8-1.1.7-1.1 1.3c0 .6.4-.4 1.5-.8s1.9-.9 2.1-1.3c0-.4 1.6-1.3 1.6-1.3"/><path class="st0" d="M77.3 21.9s-.9.5-1.6.5c-.6 0 .6.8-.1 1.3s-1.1 1.5-.7 2.9c.4 1.4-.6 1.5-.6 1.5s1.1 0 1.1-1.5 1.2-2.5 1.4-3.5c.1-1 .5-1.2.5-1.2"/><path class="st0" d="M75.6 26.2s.3-.9.6-1.3c.4-.4.9-1.6.9-2.1-.1-.5.7-1.6.9-1.7.2-.2-.2.6 0 1.4.2.7.6 1.8.4 2.4-.2.6-1.1.5-1.4 1.4-.3.9-.3-1.1.2-1.4.5-.4-1.5.7-1.5 2.3.1 1.3-.1-.9-.1-1m2.8-5.5s-.3.6 0 1.5.8 1.5.8 2 .1-.4 0-1.2c-.1-.8.1-2.2-.2-2.8-.2-.5-.4-.1-.6.5m5.5-3.7s-.2 1.1-1 1.2c-.9.1-1 .7-.8 1.5.2.8.1 1.2-.4 2-.4.8.1-.9-.2-1.3-.3-.4-.1 2.1-.7 2.3-.5.2 0-1.8-.5-2.7-.5-.9.8-2 1.2-2.1.5-.2 1.9-.5 2.4-.9m-6.5 1.7s-1.4 2.2-1.9 2.1c-.5-.1-1-.1-.9-.9.1-.8.1.8 1.1.2 1.1-.7 1.7-1.4 1.7-1.4m38.8-8.4s.7-.9.5-1.2c-.2-.3-.6-.2-.7-.1s0 .4.1.5c0 .1.1.6.1.8m-1.5-1s.5-.8.7-.7c.3.1.3.4.2.5 0 .1-.3.1-.4.1 0 0-.4 0-.5.1m2.2.5s.6-1.4.5-1.5c-.1-.2-.3.1-.4.1 0 0-.3.4-.1 1.4M115.5 6s-.5 2.3.2 2.5c.7.3 1.2-.2 1.2-.5.1-.3-.4-.7-.6-.9-.1 0-.8-.9-.8-1.1m-.4-.6s-.5 1.4-.4 1.6c.1.2.3-.1.3-.1.1-.1.4-.6.1-1.5"/><path class="st0" d="M115.4 3.9s1.7 2.8 1.4 3c-.3.3-1.1-.5-1.3-1.3-.1-.7-.1-1.7-.1-1.7m-4.2 6.4s-3.9-2-4.2-2.6c-.3-.6 1.1-.5 1.8-.1s1.3.8 2.4 2.7M106.9 7s2.6-2.1 3.3-1.4c.7.7.5 1.6.2 1.8-.3.3-1.2 0-1.5-.2-.2-.1-1.7-.4-2-.2m1.5 2.3s-1.4-1.5-1.9-1.2c-.5.3-.5.9-.3 1.1.1.2.7.1.9 0 .2-.1 1.1-.1 1.3.1m3.5-2.1s0-1.6-.2-1.9c-.1-.3.2.4.6.6.4.2-.2 1.3-.4 1.3m-.5-3.3s.7 2 1.3 1.9c.6-.1.8-.7.8-.9-.1-.2-.7-.4-.9-.4-.2-.1-1.1-.4-1.2-.6"/><path class="st0" d="M111.1 3.9s.8 1.5.4 1.8c-.4.3-.8.1-.9-.1-.1-.2.1-.6.2-.7.1-.1.3-.8.3-1m-5.9 2.6s-.6 3.1-.3 3.5c.2.4.8-.4.9-.9-.1-.5 0-1-.6-2.6m-.8 2.3s.2 1.5.3 1.6c0 .1.1.8-.4.8S104 10 104 10s.2-1.2.4-1.2m9.4-4.8s.6 1.6.8 1.9c.3.3-.3-.3-.8-.4-.5-.1-.2-1.4 0-1.5m-6.7 2.3s1.8-2.6 2.3-2.7c.5-.1.3.8-.1 1.2-.3.5-.6.9-2.2 1.5m4.1-3.5s-1.8 2-1.8 2.3c0 .3.6.1.7 0 .1 0 .9-.6 1.1-2.3m4 1.1s.2 1.2-.2 1.4c-.4.1-.6-.1-.7-.3 0-.1.2-.4.3-.4.2-.1.6-.5.6-.7m-8.9 12.6s-1.2-2-1.5-2.1c-.3-.1-.3.6 0 .9.2.4.4.7 1.5 1.2m-3.2.4s-.6-4.4 0-4.6c.5-.2 1.1 1.2.9 2.3-.3 1.1-.9 2.3-.9 2.3m.6-.8s.6-1.2.6-1.5c0-.3 0 .4.2.6.2.4-.7.9-.8.9m-2.8.7s-.9-.8-1.2-.6c-.3.2-.2.6-.1.7.1.1.5 0 .6 0 .1-.1.6-.2.7-.1m2.1.8s-3.2-1.6-3.1-2c.1-.4 1.3-.2 1.9.4.6.7 1.2 1.6 1.2 1.6m-.1-.4s-.1-3.4-.5-3.7c-.3-.4-.8.6-.7 1.2.1.5.2 1 1.2 2.5"/><path class="st0" d="M101.8 15.8s-.6-1.7-1.1-1.6c-.6.1-.7.6-.7.8 0 .2.6.4.7.4.2-.1 1 .2 1.1.4m0-2.3s-.3.9-.3 1.1c0 .2 0-.3-.2-.5-.3-.2.4-.6.5-.6m-.6.3s-1.1.5-1.2.4c-.1-.1.2-.4.5-.4.3-.1.7 0 .7 0m5-2.6h-1c-.1 0-.5 0-.4-.3.1-.3.8-.1.8-.1s.6.3.6.4M1.3 42.3c.3 1 .7 1.9 1 2.8.3.9.6 1.7.9 2.6l.9 2.4c.3.8.7 1.6 1 2.4.4-.8.7-1.6 1-2.4l.9-2.4c.3-.8.6-1.7.9-2.6.3-.9.6-1.8 1-2.8h1.2c-.5 1.5-1 2.8-1.4 3.9-.4 1.1-.8 2.1-1.2 3-.4.9-.7 1.7-1 2.5-.3.8-.7 1.5-1 2.3h-.9c-.3-.8-.7-1.5-1-2.3-.3-.8-.7-1.6-1-2.5-.4-.9-.7-1.9-1.2-3C1 45 .5 43.7 0 42.3h1.3m21.1 11.6c-.2-.6-.4-1.1-.6-1.6-.2-.5-.4-1-.5-1.5h-5.7l-.6 1.5c-.2.5-.4 1.1-.6 1.6h-1.2c.4-1.2.9-2.3 1.3-3.4l1.2-3c.4-.9.8-1.8 1.1-2.7.4-.9.8-1.7 1.2-2.6h1c.4.9.8 1.7 1.2 2.6.4.9.7 1.8 1.1 2.7.4.9.8 1.9 1.2 3 .4 1 .8 2.2 1.3 3.4h-1.4m-4.1-10.3c-.4 1-.8 1.9-1.2 2.9-.4 1-.8 2.1-1.2 3.2h5c-.4-1.2-.9-2.2-1.3-3.2s-.8-2-1.3-2.9zm17-1.3v1h-3.8v10.6h-1.1V43.3h-3.8v-1h8.7m15.5 5.8c0 1-.1 1.9-.4 2.6-.3.8-.7 1.4-1.2 1.9s-1.1.9-1.8 1.1c-.7.3-1.4.4-2.1.4-.7 0-1.5-.1-2.1-.4-.7-.3-1.3-.6-1.8-1.1-.5-.5-.9-1.1-1.2-1.9-.3-.8-.4-1.6-.4-2.6s.1-1.9.4-2.6c.3-.8.7-1.4 1.2-1.9s1.1-.9 1.8-1.1c.7-.3 1.4-.4 2.1-.4.7 0 1.5.1 2.1.4.7.3 1.3.6 1.8 1.1.5.5.9 1.1 1.2 1.9.2.7.4 1.6.4 2.6m-1.2 0c0-.8-.1-1.5-.3-2.1-.2-.6-.5-1.1-.9-1.6-.4-.4-.8-.8-1.3-1-.5-.2-1.1-.3-1.8-.3s-1.2.1-1.8.3c-.5.2-1 .6-1.3 1-.4.4-.7 1-.9 1.6-.2.6-.3 1.3-.3 2.1s.1 1.5.3 2.1c.2.6.5 1.1.9 1.6.4.4.8.8 1.3 1 .5.2 1.1.4 1.8.4s1.2-.1 1.8-.4c.5-.2 1-.6 1.3-1 .4-.4.7-1 .9-1.6.1-.7.3-1.4.3-2.1zm15-2.3c0 .9-.2 1.6-.7 2.1-.5.5-1.1.9-1.8 1.1.2.2.4.5.7.9l.9 1.2c.3.5.6.9.9 1.4.3.5.5 1 .7 1.4H64c-.2-.4-.5-.9-.8-1.3-.3-.4-.6-.9-.8-1.3-.3-.4-.6-.8-.8-1.2-.3-.4-.5-.7-.7-.9-.4 0-.7.1-1.1.1h-1.9V54h-1.2V42.5c.4-.1.9-.2 1.4-.2.5-.1 1.1-.1 1.5-.1 1.6 0 2.8.3 3.7.9.9.6 1.3 1.5 1.3 2.7m-4.8-2.6h-1.1c-.3 0-.6.1-.8.1v4.9h1.6c.5 0 1 0 1.5-.1s.9-.2 1.2-.3c.4-.2.6-.4.8-.7.2-.3.3-.8.3-1.3s-.1-.9-.3-1.3c-.2-.3-.5-.6-.8-.8-.3-.2-.7-.3-1.1-.4-.4-.1-.8-.1-1.3-.1zm20.6 9.9c.9 0 1.6-.2 2.1-.5s.8-.9.8-1.6c0-.4-.1-.8-.2-1.1-.2-.3-.4-.5-.7-.7-.3-.2-.6-.4-.9-.5-.4-.1-.7-.3-1.1-.4-.5-.2-.9-.4-1.3-.6s-.7-.4-1-.7c-.3-.3-.5-.5-.6-.9-.1-.3-.2-.7-.2-1.1 0-1 .3-1.7 1-2.3.7-.5 1.6-.8 2.8-.8.3 0 .6 0 .9.1.3 0 .6.1.9.2.3.1.5.2.7.2.2.1.4.2.5.3l-.4 1c-.3-.2-.7-.4-1.2-.5-.5-.1-1-.2-1.5-.2-.4 0-.7 0-1 .1-.3.1-.6.2-.8.4-.2.2-.4.4-.5.6-.1.2-.2.5-.2.9s.1.7.2.9c.1.2.3.5.6.6.2.2.5.3.9.5.3.1.7.3 1.1.5.5.2.9.4 1.3.6.4.2.8.4 1.1.7.3.3.5.6.7.9.2.4.3.8.3 1.4 0 1.1-.4 1.8-1.1 2.4-.7.5-1.7.8-3 .8-.5 0-.9 0-1.2-.1-.4-.1-.7-.1-1-.2-.3-.1-.5-.2-.7-.3-.2-.1-.4-.2-.5-.2l.4-1c.1.1.3.1.5.2s.4.2.7.3c.3.1.6.2.9.2-.1-.1.3-.1.7-.1m9.6.8V42.3h6.7v1h-5.6v4h5v1h-5v4.6h6.1v1H90m17.4.2c-.8 0-1.5-.1-2.1-.4-.7-.3-1.2-.7-1.7-1.2s-.9-1.1-1.1-1.9c-.3-.8-.4-1.6-.4-2.6s.1-1.8.4-2.6c.3-.8.7-1.4 1.2-1.9s1.1-.9 1.7-1.2c.7-.3 1.3-.4 2.1-.4.4 0 .8 0 1.2.1.4.1.7.1.9.2.3.1.5.2.7.3.2.1.3.2.4.2l-.4 1c-.3-.2-.6-.3-1.1-.5-.4-.2-1-.2-1.6-.2-.7 0-1.4.1-1.9.4-.5.2-1 .6-1.4 1-.4.4-.7 1-.8 1.6-.2.6-.3 1.3-.3 2 0 .8.1 1.5.3 2.1.2.6.5 1.1.8 1.6.4.4.8.8 1.3 1 .5.2 1.1.4 1.8.4s1.4-.1 1.9-.2.9-.3 1.1-.4l.3 1c-.1.1-.2.1-.4.2s-.4.1-.7.2c-.3.1-.6.1-1 .2h-1.2m13 0c-.8 0-1.4-.1-2-.4s-1-.6-1.3-1c-.3-.4-.6-.9-.7-1.5-.2-.6-.2-1.1-.2-1.8v-7.3h1.2v7.2c0 .6.1 1.2.2 1.7.2.5.4.8.6 1.1.3.3.6.5 1 .7.4.1.8.2 1.3.2s.9-.1 1.3-.2.7-.4 1-.7c.3-.3.5-.7.6-1.1.2-.5.2-1 .2-1.7v-7.2h1.2v7.3c0 .6-.1 1.2-.2 1.8-.2.6-.4 1-.7 1.5-.3.4-.8.7-1.3 1-.8.3-1.4.4-2.2.4m18.5-8.3c0 .9-.2 1.6-.7 2.1-.5.5-1.1.9-1.8 1.1.2.2.4.5.7.9l.9 1.2c.3.5.6.9.9 1.4.3.5.5 1 .7 1.4h-1.2c-.2-.4-.5-.9-.8-1.3-.3-.4-.6-.9-.8-1.3-.3-.4-.6-.8-.8-1.2-.3-.4-.5-.7-.7-.9-.4 0-.7.1-1.1.1h-1.9V54h-1.2V42.5c.4-.1.9-.2 1.4-.2.5-.1 1.1-.1 1.5-.1 1.6 0 2.8.3 3.7.9.8.6 1.2 1.5 1.2 2.7m-4.8-2.6H133c-.3 0-.6.1-.8.1v4.9h1.6c.5 0 1 0 1.5-.1s.9-.2 1.2-.3c.3-.2.6-.4.8-.7.2-.3.3-.8.3-1.3s-.1-.9-.3-1.3c-.2-.3-.5-.6-.8-.8-.3-.2-.7-.3-1.1-.4-.4-.1-.8-.1-1.3-.1zm10.8-.9h1.2v11.6h-1.2zm15.1 0v1h-3.8v10.6h-1.1V43.3h-3.8v-1h8.7m5.2 0h1.2v11.6h-1.2zm7.6 11.6V42.3h6.8v1h-5.7v4h5.1v1h-5.1v4.6h6.1v1h-7.2m15.3-.8c.9 0 1.6-.2 2.1-.5s.8-.9.8-1.6c0-.4-.1-.8-.2-1.1-.2-.3-.4-.5-.7-.7-.3-.2-.6-.4-.9-.5-.4-.1-.7-.3-1.1-.4-.5-.2-.9-.4-1.3-.6-.4-.2-.7-.4-1-.7-.3-.3-.5-.5-.6-.9-.1-.3-.2-.7-.2-1.1 0-1 .3-1.7 1-2.3.7-.5 1.6-.8 2.8-.8.3 0 .6 0 .9.1.3 0 .6.1.9.2.3.1.5.2.7.2l.6.3-.4 1c-.3-.2-.7-.4-1.2-.5-.5-.1-1-.2-1.5-.2-.4 0-.7 0-1 .1-.3.1-.6.2-.8.4-.2.2-.4.4-.5.6-.1.2-.2.5-.2.9s.1.7.2.9c.1.2.3.5.6.6.2.2.5.3.9.5.3.1.7.3 1.1.5.5.2.9.4 1.3.6.4.2.8.4 1.1.7.3.3.5.6.7.9s.3.8.3 1.4c0 1.1-.4 1.8-1.1 2.4-.7.5-1.7.8-3 .8-.5 0-.9 0-1.2-.1-.4-.1-.7-.1-1-.2-.3-.1-.5-.2-.7-.3-.2-.1-.4-.2-.5-.2l.4-1c.1.1.3.1.5.2s.4.2.7.3c.3.1.6.2.9.2s.2-.1.6-.1"/></svg>