<svg xmlns="http://www.w3.org/2000/svg" width="1417.892" height="215.563" viewBox="0.152 600.751 1417.892 215.563"><path d="M980.609 776.738h-34.763l-14.485-21.003h49.248c5.07 0 8.691-1.448 12.312-3.621 2.897-2.897 5.07-5.794 5.07-10.139 0-6.518-4.345-13.036-15.209-20.278l-13.036-7.967c-7.967-5.07-14.485-10.863-18.106-15.933-3.621-5.794-5.794-11.588-5.794-18.83 0-10.139 3.621-18.83 10.863-25.348s15.933-10.139 27.521-10.139h30.418v21.003H984.23c-5.794 0-9.415 1.448-12.312 3.621-2.897 2.173-4.345 5.07-4.345 8.691s1.448 6.518 3.621 9.415 6.518 6.518 12.312 10.139l13.036 7.967c15.209 9.415 23.175 21.727 23.175 36.936 0 10.863-3.621 19.554-10.139 26.072-9.415 5.793-18.106 9.414-28.969 9.414zm121.671 0c-18.83 0-34.763-6.518-47.075-18.83s-18.83-28.245-18.83-47.075 6.518-35.487 18.83-47.799c12.312-12.312 28.969-18.83 47.799-18.83 19.554 0 35.487 6.518 47.799 18.83 13.036 12.312 19.554 28.245 19.554 47.799 0 18.83-6.518 34.763-19.554 47.075-12.312 13.036-28.969 18.83-48.523 18.83zm1.448-110.808c-13.036 0-23.9 4.345-32.59 13.036-7.967 8.691-12.312 19.554-12.312 32.59 0 13.036 4.345 23.175 13.036 31.866s18.83 13.036 31.866 13.036c13.036 0 23.175-4.345 31.866-13.036 8.691-8.691 13.036-19.554 13.036-32.59s-4.345-23.175-13.036-31.866c-8.691-8.69-18.83-13.036-31.866-13.036zm189.024 110.808v-84.735l-38.384 34.039-38.384-34.039v84.735h-21.003V641.306l59.387 54.317 60.111-54.317v135.431h-21.727v.001zm48.524 0V644.203h74.596v21.003h-52.145v48.523h50.696v21.003h-50.696v21.003h54.317v21.003h-76.768zm-835.039 0h-34.763v-21.003h34.763c5.07 0 8.691-1.448 12.312-3.621 2.897-2.897 5.07-5.794 5.07-10.139 0-6.518-4.345-13.036-15.209-20.278l-13.036-7.967c-7.967-5.07-14.485-10.863-18.106-15.933-3.621-5.794-5.794-11.588-5.794-18.83 0-10.139 3.621-18.83 10.863-25.348s15.933-10.139 27.521-10.139h30.418v21.003h-30.418c-5.794 0-9.415 1.448-12.312 3.621-2.897 2.173-4.345 5.07-4.345 8.691s1.448 6.518 3.621 9.415c2.173 2.897 6.518 6.518 12.312 10.139l13.036 7.967c15.209 9.415 23.175 21.727 23.175 36.936 0 10.863-3.621 19.554-10.139 26.072-9.414 6.517-18.105 9.414-28.969 9.414zm121.671-59.387c-6.518 2.897-15.933 4.345-27.521 4.345h-10.863v55.766h-22.451V644.203h41.281c12.312 0 22.451 3.621 29.693 10.863s11.588 16.657 11.588 28.245c0 7.966-2.173 15.209-5.794 21.003-3.621 5.794-9.415 10.14-15.933 13.037zm-38.384-52.145v35.487h16.657c6.518 0 11.588-1.448 15.209-4.345 2.897-2.897 5.07-7.242 5.07-13.76 0-11.588-6.518-17.382-21.003-17.382h-15.933zm81.114 111.532V644.203h74.596v21.003h-52.145v48.523h50.696v21.003h-50.696v21.003h54.317v21.003h-76.768zm97.771 0V644.203h22.451v111.532h45.627v21.003h-68.078z" fill="#FFF"/><g fill="#FFF"><path d="M181.782 786.877c31.866-29.693 62.284-61.56 93.426-93.426 10.863-10.863 28.245-15.933 39.108-4.345s9.415 22.451 6.518 31.142c-3.621 11.588-21.003 25.348-54.317 4.345l-13.036 11.588c16.657 9.415 31.142 13.036 32.59 13.036 23.175 4.345 44.902-6.518 51.42-28.245 7.242-21.003-4.345-45.627-26.072-52.869-18.83-6.518-34.763-.724-49.248 13.036a5504.64 5504.64 0 0 1-91.977 91.977c-19.554 19.554-43.454 28.245-70.975 26.072-37.66-2.897-70.975-31.142-79.665-67.354-9.415-39.108 5.07-78.217 39.108-99.944 32.59-21.003 74.596-18.83 107.186 5.794 5.07 3.621 13.036 13.76 19.554 7.242 5.07-4.345-5.07-15.209-10.139-20.278-33.315-28.969-86.908-31.866-125.292-7.242-52.869 34.039-65.905 106.462-28.245 156.434 38.385 50.697 112.257 57.215 160.056 13.037z"/><path d="M341.113 610.165c-39.833-17.382-86.183-10.139-118.05 21.003-30.418 29.693-59.387 60.835-90.529 89.805-7.242 7.242-20.278 13.76-29.693 12.312-14.485-1.448-23.9-13.76-20.278-30.418 3.621-16.657 18.83-23.9 37.66-17.382 16.657 5.07 34.039 4.345 39.833-12.312 5.07-15.209-5.794-26.797-23.9-34.039-48.523-18.83-101.392 14.485-103.565 65.905-1.448 30.418 15.933 59.387 42.73 71.699 28.969 13.036 60.835 8.691 84.011-13.76 32.59-31.866 63.732-64.457 97.047-96.323 22.451-21.003 52.145-22.451 75.32-5.794 26.072 19.554 31.142 47.075 19.554 72.423-10.863 24.624-42.73 34.763-70.25 28.969-4.345-.724-34.039-12.312-38.384-15.209l-10.863 11.588c2.897 2.897 34.763 16.657 39.108 18.106 34.763 9.415 72.423 2.173 90.529-28.969 18.83-31.866 14.485-71.699-15.933-96.323-28.969-23.175-69.526-24.624-97.047.724-21.003 18.83-39.833 39.108-60.111 59.387-14.485 14.485-28.245 28.969-43.454 42.005-20.278 17.382-50.696 18.106-72.423 2.897-21.005-15.209-29.695-42.729-20.28-67.353 8.691-24.624 33.315-42.005 59.387-39.833 13.036 1.448 20.278 3.621 30.418 10.139 5.794 3.621 1.448 14.485-4.345 12.312-7.242-1.448-13.036-3.621-20.278-4.345-25.348-4.345-47.075 10.139-51.42 34.763-4.345 24.624 11.588 47.799 36.936 48.523 15.933 0 27.521-5.07 39.833-15.933 31.142-28.969 60.835-60.111 91.253-89.805 26.072-25.348 57.214-32.59 91.977-21.727 36.212 11.588 58.663 35.487 63.008 73.147 4.345 39.833-12.312 73.147-47.075 92.702-32.59 18.106-91.253 2.173-120.947-17.382l-13.036 10.139c33.315 23.9 96.323 41.281 133.983 23.9 39.108-18.106 60.835-50.696 62.284-94.15 1.446-44.177-17.384-81.113-63.01-101.391z"/></g><path fill="#FFF" d="M878.492 755.735V644.203h-22.451v132.535h95.598l-14.484-21.003z"/></svg>