<?xml version="1.0" standalone="no"?>
<!DOCTYPE svg PUBLIC "-//W3C//DTD SVG 20010904//EN"
 "http://www.w3.org/TR/2001/REC-SVG-20010904/DTD/svg10.dtd">
<svg version="1.0" xmlns="http://www.w3.org/2000/svg"
 width="700.000000pt" height="700.000000pt" viewBox="0 0 700.000000 700.000000"
 preserveAspectRatio="xMidYMid meet">
<metadata>
Created by potrace 1.11, written by Peter Selinger 2001-2013
</metadata>
<g transform="translate(0.000000,700.000000) scale(0.100000,-0.100000)"
fill="#000000" stroke="none">
<path d="M3278 6995 c-2 -1 -41 -5 -88 -9 -87 -7 -105 -9 -225 -27 -116 -18
-123 -19 -192 -35 -184 -42 -248 -59 -369 -99 -264 -88 -538 -216 -759 -356
-346 -217 -655 -497 -910 -824 -238 -304 -432 -668 -559 -1047 -31 -94 -79
-267 -91 -329 -3 -13 -11 -58 -20 -99 -29 -147 -36 -200 -52 -370 -15 -165 -8
-592 12 -711 2 -13 6 -46 9 -74 9 -78 23 -156 51 -285 30 -141 110 -393 173
-551 50 -125 156 -337 226 -453 36 -60 66 -111 66 -113 0 -2 5 -9 10 -16 6 -7
40 -55 76 -107 63 -90 204 -270 249 -316 164 -173 266 -272 360 -349 33 -28
62 -52 65 -55 31 -33 389 -280 407 -280 3 0 14 -6 22 -14 26 -23 327 -171 446
-219 256 -104 568 -189 820 -222 22 -2 56 -7 75 -10 188 -26 697 -27 837 -1
17 3 104 16 148 21 184 24 541 126 772 221 120 49 314 144 395 194 37 22 70
40 73 40 3 0 11 5 18 10 7 6 64 45 127 86 240 159 531 416 695 614 21 25 41
47 45 50 21 15 210 278 278 388 232 374 380 750 466 1182 13 69 28 152 31 185
4 33 9 69 11 80 19 94 26 576 11 720 -5 39 -10 90 -13 115 -2 25 -7 56 -9 70
-3 14 -7 43 -10 65 -19 131 -81 383 -136 547 -262 779 -798 1451 -1500 1878
-117 71 -320 178 -409 214 -36 15 -83 35 -105 45 -153 70 -557 181 -745 206
-19 3 -46 7 -60 10 -13 2 -52 7 -86 11 -33 3 -74 8 -90 10 -32 5 -540 14 -546
9z"/>
</g>
</svg>
