<svg version="1.0" xmlns="http://www.w3.org/2000/svg" width="358.667" height="358.667" viewBox="0 0 269 269"><path d="M125.6 1.5c-.8 2.3-.8 2.7.4 2 .6-.3 1-.1 1 .4 0 1.5-1.3 1.4-2.9-.2-1-1-1.1-.8-.5.7.5 1.4.4 1.7-.5 1.2-.7-.5-2.2 0-3.4 1.1-1.2 1-1.6 1.1-1 .3.9-1.2.7-1.5-1.4-1.7-1.9-.1-2.2.1-1.2.8 1.2.8 1.1 1.2-.3 2.3-1.1.8-1.4 1.6-.8 2.2.6.6-.4.9-2.8.9-3.5 0-3.7.2-3.7 3.2.1 1.9-.3 2.9-.9 2.6-1.4-.9-5.5-1-5-.1.2.3 0 .9-.6 1.3-.5.3-1 .2-1-.3 0-1.2-3.8-.4-4.6.9-.3.5.3.6 1.2.2 1.2-.5 1.5-.3.9.6-.5 1-.1 1.2 1.6.7 1.3-.3 1.8-.3 1.1 0-.6.3-.9 1-.6 1.6.4.6-.2.6-1.4-.1-1.3-.7-2.3-.7-2.7-.1-.3.5-1.3.6-2.2.3-1.2-.5-1.4-.3-.8.8.8 1.2.6 1.2-.8 0-1.7-1.4-2.2-.8-1.8 2.5.1.7-.5 1.4-1.2 1.7-.8.3-1.4-.1-1.4-.9 0-.7.4-1.1.9-.8.4.3.5-.1.2-.9-.8-2.1-3-1.6-2.9.7 0 1.2-.4 2.2-.9 2.3-.5.1-1.3.7-1.7 1.5-.6.9-.9 1-.9.1 0-.7-.7-1-1.6-.6-.8.3-1.3 1.2-1 2 .3.8.1 1.1-.4.8-.6-.3-1-.2-1 .4 0 .5.3 1.1.8 1.4.4.2.2.2-.5.1-.7-.2-1.5.1-1.8.5-.2.5-2.5.8-5 .6-3.2-.1-4.2.1-3.6.9.6.7.4 2-.4 3.6-.8 1.4-1.4 2-1.5 1.4 0-.6-1-1.1-2.2-1-1.3.1-2.2.7-2.1 1.3.1.6-.6.9-1.7.6-1.1-.3-2-1-2-1.7 0-.6-.4-.5-.9.3s-.8 2.3-.7 3.5c.2 1.7-.3 2.1-2.8 2.2-5.2.2-9.9 1.6-8.5 2.5.7.4 1.9.3 2.5-.2.8-.6 1.4-.4 1.8.6.3 1 .2 1.3-.5 1-.5-.4-1.7-.1-2.6.7-1.4 1.1-1.6 1.1-.9-.2.4-.8.1-.7-.7.3-1.1 1.4-1.6 1.5-2 .5-.3-.8-.6-.5-.6.7-.1 1.7-.3 1.8-1.1.5-.9-1.3-1.1-1.3-2 0-.9 1.3-1.1 1.3-2 0-.7-1.1-1-1.1-1-.2 0 .7-.5 1-1.2.6s-.8-.3-.4.5c.4.6 1.3.8 1.9.5.9-.5.9-.3 0 .6-1 1.1-1.5 1.1-3 0-1.5-1.2-1.6-1.2-.6 0 1.8 1.9 1.6 3.3-.3 2.6-.9-.3-1.2-.2-.9.4.4.7-.3.9-1.7.6-1.5-.2-3.4.4-4.9 1.6-1.3 1.1-1.7 1.8-.8 1.5.9-.3 2.2-.1 3 .4 1.1.7 1 .9-.6 1-1.1.1-2.6.1-3.4 0-.8-.2-1 .2-.5 1.1.6 1 .4 1-.9-.1-1.2-.9-1.7-1-1.7-.2s-.5.9-1.8.2c-1.5-.8-1.8-.5-2 1.5-.1 1.7.2 2.3 1 1.8.7-.4.8-.3.4.4-.4.6-1.3.9-2.1.5-.8-.3-1.5 0-1.5.6s-.5 1.1-1.1 1.1c-.5 0-.8-.4-.5-.9.4-.5-.3-.7-1.3-.4-1.1.3-2.2 1.1-2.5 1.9-.3.8-1.1 1.4-1.8 1.4-1 0-1-.2.1-.9.7-.5.9-1.1.4-1.4-.6-.4-1.5.5-2.2 1.9-.9 2-.9 2.4.1 1.8.9-.6.9-.3-.1.9-.7.9-1.8 1.4-2.5 1C.3 72.2.2 73.1.4 97.4c.1 19.4.4 24 1.4 23.8.8-.1 1.1.2.7.8-.3.6-1 .8-1.5.5-.4-.3-.8 2.1-.7 5.2.2 4.2.6 5.7 1.5 5.5.8-.1 1.1.2.7.8-.3.6-1 .8-1.5.5-.5-.3-.8 4.8-.7 11.2.2 9.2.5 11.7 1.5 11.5.8-.1 1.1.2.7.8-.3.6-1 .8-1.5.5-.5-.3-.8 4.8-.7 11.2.2 9.2.5 11.7 1.5 11.5.8-.1 1.1.2.7.8-.3.6-1 .8-1.5.5-.5-.3-.8 4.8-.7 11.2.2 9.2.5 11.7 1.5 11.5.8-.1 1.1.2.7.8-.3.6-1 .8-1.5.5-.5-.3-.8 4.8-.7 11.2.2 9.2.5 11.7 1.5 11.5.8-.1 1.1.2.7.8-.3.6-1 .8-1.5.5-.4-.3-.8 8.3-.8 19v19.4l39.8.1c35.3 0 39.8-.1 40.4-1.5.4-1.1.2-1.4-.7-.9-.9.6-.9.4.1-.8 1-1.3 1-1.7 0-2.1-1-.4-1-.6.1-.6 1.1-.1 1.1-.4.1-1.6-1-1.2-1-1.5 0-1.5s1-.3 0-1.5c-.7-.8-.8-1.5-.3-1.5s1-.7 1-1.5-.3-1.5-.7-1.5c-.8 0-.6-3.2.3-4.7.4-.6.3-1.5-.3-1.8-.8-.5-.7-1.1.1-2.1.9-1.1.8-1.4-.2-1.4-1.1 0-1.1-.2.1-1 1.1-.7 1.1-1 .2-1-1 0-1-.5-.2-2s.8-2-.2-2c-.9 0-.9-.3.2-1s1.1-1 .2-1c-1 0-1-.5-.1-2.3.7-1.2 1.2-2.2 1.2-2.2s-.5-.9-1.1-2.1c-.8-1.6-.8-2.4 0-3.2.9-.9.9-1.2-.1-1.2-1.1 0-1.1-.3-.1-1.5.7-.8.8-1.5.3-1.5-1.1 0-1.1-2.9 0-4.7.4-.6.3-1.5-.3-1.8-.8-.5-.7-1.1.1-2.1.9-1.1.8-1.4-.2-1.4-1.2 0-1.2-.2 0-.9.9-.6 1-1 .2-1.6-.9-.5-.9-1 0-2.1s.8-1.4-.2-1.4c-1.1 0-1.1-.2.1-1 1.1-.7 1.1-1 .2-1-1 0-1-.5-.1-2.3.7-1.2 1.2-2.2 1.2-2.2s-.5-.9-1.1-2.1c-.8-1.6-.8-2.4 0-3.2.9-.9.9-1.2 0-1.2-.8 0-.9-.7-.1-2.8.6-1.5 1.1-2.7 1.1-2.7.1 0-.4-1-1.1-2.3-.9-1.6-.9-2.2 0-2.2.8 0 .8-.4-.1-1.5-1-1.2-1-1.5 0-1.5s1-.3 0-1.5-1-1.5 0-1.5 1-.3.1-1.4c-.9-1.1-.9-1.6 0-2.1.8-.6.7-1-.2-1.6-1.2-.7-1.2-.9 0-.9 1 0 1.1-.3.2-1.3-.8-1-.7-1.7.1-2.5.9-.9.9-1.2-.1-1.2-1.1 0-1.1-.3-.1-1.5.7-.8.8-1.5.3-1.5s-.9-.9-.9-2 .4-2 .9-2 .4-.7-.3-1.5c-1-1.2-1-1.5 0-1.5s1-.3 0-1.5c-.7-.9-.8-1.5-.2-1.5 1.1 0 1.1-1.8-.1-3.7-.4-.6-.1-1.4.5-1.6 1-.4 1-.6 0-.6-.8-.1-1-.6-.6-1.3 1.2-1.9 1.2-4.8.1-4.8-.5 0-.4-.7.3-1.5 1-1.2 1-1.5 0-1.5s-1-.3 0-1.5 1-1.5 0-1.5-1-.3 0-1.5 1-1.5 0-1.5-1-.3 0-1.5c.7-.8.8-1.5.3-1.5s-1-.7-1-1.5.5-1.5 1-1.5.4-.6-.2-1.4c-.9-1.1-.9-1.5.1-1.8 1.1-.4 1.1-.8 0-2-1.1-1.4-.8-1.6 2.2-1.3 2 .1 3.3-.2 3-.7-.3-.5 0-1.5.6-2.3.6-.8.8-2 .4-2.7-.6-1-.3-.9.9.1.9.7 1.7 1 1.7.6s.7-.2 1.4.5c1.3 1 1.4.7 1-1.6l-.5-2.7 1.8 2.1c1.3 1.6 2.2 1.9 3.3 1.2 1-.6 1.1-1 .3-1-.7 0-1.3-.4-1.3-1 0-.5.8-.7 1.8-.4 1 .4 1.3.2.7-.3-2.4-2-1-2.8 4.5-2.8 3.2.1 5.7-.2 5.4-.6-.2-.4.2-.9.8-1.2.8-.2.9-.8.4-1.3s-1.1-.4-1.3.4c-.3.6-1 .9-1.5.6-.7-.5-.8-.2-.3.6.5.9.4 1.1-.4.6-.6-.4-.9-1.1-.6-1.6.3-.4-.1-1.1-.7-1.4-.7-.2-.2-.4 1.2-.3 1.6.1 2.4-.3 2.2-1.1-.1-.9.2-1.1 1-.6 2.4 1.5 6.3.9 6.1-1-.1-1.4.4-1.7 2.5-1.2 2.6.5 2.6.5.5-.6-2.8-1.4-3-2.7-.4-2.5 1.1 0 1.7.5 1.5.9-.3.4 0 .8.5.8.6 0 1.1-.5 1.1-1.1 0-.6.7-.8 1.6-.5 1.1.4 1.5.2 1.1-.8-.4-1-.1-1.3.8-.9.8.3 1.2 1 .8 1.7-.4.6.1.5 1-.3 1.3-1 1.4-1.8.6-3.2-.5-1-.7-2-.4-2 2.1-.5 3.2-.4 4.9.4 1.6.8 1.8.6 1.4-1.1-.6-2-.5-2.1 2-.4 1.9 1.2 2.4 1.3 1.7.3-.6-1.1-.4-1.3.7-.9.8.4 1.5 0 1.5-.8 0-.7-.5-1.1-1-.7-.5.3-.3-.5.4-1.8.7-1.5 1.4-1.9 1.7-1.1.2.6.8 1.2 1.3 1.2.6 0 .8-.4.5-.9-.3-.4.6-.7 2-.5 1.4.1 2.8-.4 3-1.1.3-.8 1.3-1.1 2.2-.7 1.5.5 1.5.4-.1-1.2-1.5-1.5-1.6-3.6-.1-3.6.3 0 .2.4-.1 1-.8 1.3.1 1.3 2.7-.1 1.1-.6 1.8-.7 1.5-.2-.9 1.5 3.2.8 4.6-.7.6-.7.7-1 .2-.7-.6.3-1.7.2-2.5-.4-1.2-.7-1.2-.9.3-.9 1 0 1.6-.4 1.2-.9-.3-.5-.1-1.2.5-1.6.5-.3 1 .1 1 .9 0 1.9 1.6 2.1 2.6.4.4-.7.3-.8-.4-.4s-1.2.3-1.2-.2c0-1.5 4.3-2.3 5.2-.9.6.9.8.9.8-.2 0-.8.6-1.1 1.5-.7 1.2.4 1.3.2.6-1.2-.6-1.1-.6-2.4-.1-3.3.8-1.2 1.3-1.2 3.1-.1 1.1.8 1.8.9 1.4.3-.3-.6.2-1.1 1.2-1.1 1.5 0 1.6-.2.3-1-1-.6-1.1-1-.2-1 .6 0 1.1-.5 1-1.1-.2-.6.4-1.4 1.2-1.6 1.3-.4 1.3-.3 0 .6-.9.7-1.1 1.1-.3 1.1.7 0 1.7-.8 2.2-1.8.8-1.3 1-1.4 1.1-.2 0 1.3.1 1.3 1 0 .5-.8 1-1.1 1-.6 0 .5.8.2 1.7-.5 1.5-1.2 1.6-1.2.9.6-.6 1.6-.5 1.8.6.7 1-1 1-1.7 0-3.2-1-1.6-.9-1.8.5-1.3 1.2.5 1.4.3.8-.7-.6-1-.4-1.2.7-.7.9.3 2.1 0 2.8-.6 1-.9 1.1-.9.6 0-.4.7-.2 1.3.3 1.3.6 0 1.1-.5 1.1-1.2 0-.6.3-.8.7-.5.3.4 1.2.2 2-.4 1-.9 1.3-.8 1.3 0 0 .7.4.9 1 .6.6-.4.5-1.1-.3-2-.7-.8-1.6-1-2.1-.4-.6.5-1.5.9-2 .9-.6 0-.3-.7.7-1.5 1.1-.7 2.5-1.1 3.3-.8.8.3 1.4.1 1.4-.4s.9-.9 2-1c1.3-.1 1.8.2 1.4 1-.4.7.3.2 1.5-1.1 2.3-2.3 4.1-3.1 2.3-1-.8 1-.5 1.3 1.3 1.3 1.5 0 2.1-.4 1.7-1.4-.4-1-.1-1.2.9-.6.8.5 1.1.5.6-.1-.5-.5-1.3-.9-1.8-.9-1.2 0-.7-1.9.6-2.1 2.5-.3 2.7-.5 1.4-2.2-1.1-1.4-1.1-1.5.1-.5 1.7 1.5 5.4 1.7 4.5.3-.4-.6-1-.8-1.5-.5-.4.3-1.4-.3-2.1-1.3-1.2-1.5-1.2-1.6.1-.5 1 .8 2.1.9 3 .3 1.2-.8 1.1-1-.5-1.1-1.1-.1-2.8-.2-3.7-.1-1 .1-1.8-.3-1.8-.9 0-.5-.4-.7-1-.4-.5.3-1 0-1.1-.7 0-.7-.4-.4-.9.7-.8 1.9-.9 1.9-.9-.4-.1-1.8-.5-2.2-1.8-1.7-1.5.5-1.5.4.1-.9 1.9-1.5 1.9-1.5-.5-1.6-1.3-.1-2.8-.2-3.4-.4-.5-.1-1.8-.3-2.8-.3-1-.1-1.5-.6-1.2-1.2.3-.6-.1-.7-.9-.4-.9.3-1.3 1.1-.9 1.7.3.5.1.7-.5.4-1.1-.8-1.1-2.5.2-4.6.7-1.1.3-1.3-1.8-.9-1.8.4-3 0-3.6-1.1-.8-1.3-.9-1.4-1-.1 0 1.3-.2 1.3-.9.1-.5-.8-.8-2.2-.6-3.1.2-1.1-.4-1.6-1.8-1.7-8.1-.3-8.7-.6-8.7-4.1v-3.3l-2.6 2.8c-1.5 1.5-2.1 2-1.4 1.1 1-1.5.9-1.9-.4-2.4-1-.4-1.4-1.3-1.1-2.3.6-2.1-3.6-4.2-5.9-2.9-1.1.6-1.8.5-2.2-.6-.4-1.1-1.1-1.3-2.3-.6-1.3.6-1.8.5-1.8-.6 0-.7.4-1.4.9-1.4.4 0 .8-.5.8-1.1 0-.6-.7-.8-1.5-.5-2 .8-4.2 1.4-3.3.9.4-.2.4-1.1.1-1.8-.4-1.1-1-1.2-2.5-.4-1.5.8-1.9.8-1.4 0 .4-.7-.1-1.1-1.2-1.1-1.1 0-2.2-.7-2.6-1.5-.3-.8-.1-1.5.4-1.5.6 0 1-.4 1-.9 0-.4-4-.9-8.9-1-7.4-.2-9 .1-9.5 1.4zm15.4-.1c0 .3-.4.8-1 1.1-.5.3-1 .1-1-.4 0-.6.5-1.1 1-1.1.6 0 1 .2 1 .4zm-22 8c0 .3-.4.8-1 1.1-.5.3-1 .1-1-.4 0-.6.5-1.1 1-1.1.6 0 1 .2 1 .4zm45.4 4.9c.4-.4.4 0 .1.8-.9 2.5-3.1 1.8-3.3-1-.1-2.4 0-2.4 1.2-.9.7 1 1.6 1.5 2 1.1zm16.1 12.5c-.2.9-.4 1.9-.4 2.1-.1.3-.7-.4-1.5-1.5-1-1.3-1.1-2.1-.3-2.6 1.6-1 2.6-.1 2.2 2zM62 44.1c0 .3-.7.6-1.5.6s-1.3-.3-1-.5c.3-.3-.1-1.2-.8-2-1.1-1.3-.9-1.4 1.1-.1 1.2.8 2.2 1.6 2.2 2zM39.7 55.5c0 .8-.4 1.2-.9.9-.5-.3-.6-1-.3-1.5.9-1.3 1.2-1.1 1.2.6zM10.5 72c-.3.5-1.2 1-1.8 1-.7 0-.6-.4.3-1 1.9-1.2 2.3-1.2 1.5 0zm134.8 11.6c-.4 1.2-.8 1.3-1.4.3-.9-1.5-.2-3.2 1.1-2.4.5.3.6 1.3.3 2.1zM135 88.2c0 .4-.4.8-.9.8-.6 0-1.2-.4-1.5-.8-.3-.5.1-.9.9-.9s1.5.4 1.5.9zM4.1 109.3c-1 .9-1.1.8-.5-.6.3-1 .9-1.5 1.2-1.2.3.3 0 1.1-.7 1.8zm90.5 2.3c-.1 2.5-1.1 2.3-1.8-.4-.3-1.1 0-1.9.7-1.9s1.2 1 1.1 2.3zM3 114c0 .5-.2 1-.4 1-.3 0-.8-.5-1.1-1-.3-.6-.1-1 .4-1 .6 0 1.1.4 1.1 1zm82 2.5c-.7.8-1.7 1.5-2.3 1.5-.6 0-.2-.7.9-1.5 2.5-1.9 3-1.9 1.4 0zm-82.4 26c-.1.8-.5 1.7-.8 2.1-.5.4-.4-1.6.1-3.4.3-.9.9.1.7 1.3zm0 24c-.1.8-.5 1.7-.8 2.1-.5.4-.4-1.6.1-3.4.3-.9.9.1.7 1.3zm0 24c-.1.8-.5 1.7-.8 2.1-.5.4-.4-1.6.1-3.4.3-.9.9.1.7 1.3zm0 24c-.1.8-.5 1.7-.8 2.1-.5.4-.4-1.6.1-3.4.3-.9.9.1.7 1.3zm0 24c-.1.8-.5 1.7-.8 2.1-.5.4-.4-1.6.1-3.4.3-.9.9.1.7 1.3zm0 12c-.1.8-.5 1.7-.8 2.1-.5.4-.4-1.6.1-3.4.3-.9.9.1.7 1.3z"/><path d="M152 6c-.9.6-1 1-.3 1 .6 0 1.5-.5 1.8-1 .8-1.2.4-1.2-1.5 0zm-48 8c-.9.6-1 1-.3 1 .6 0 1.5-.5 1.8-1 .8-1.2.4-1.2-1.5 0zM77.5 30c.3.5.8 1 1.1 1 .2 0 .4-.5.4-1 0-.6-.5-1-1.1-1-.5 0-.7.4-.4 1zm-2.3.4c.4.5.3 1.5-.3 2.2-.7.9-.6 1.2.5 1 2.5-.3 2.8-1.2.9-2.7-1-.7-1.5-.9-1.1-.5zm118.3 1.5c-.3.5-.2 1.2.3 1.5.5.3.9-.1.9-.9 0-1.7-.3-1.9-1.2-.6zm16 16.1c.3.5.8 1 1.1 1 .2 0 .4-.5.4-1 0-.6-.5-1-1.1-1-.5 0-.7.4-.4 1zm-24.2 12.5c0 .8.4 1.2.9.9.5-.3.6-1 .3-1.5-.9-1.3-1.2-1.1-1.2.6zM167 70.1c0 .5.5.7 1 .4.6-.3 1-.8 1-1.1 0-.2-.4-.4-1-.4-.5 0-1 .5-1 1.1zm100.2 5.4c.4.4.4 1.3-.1 1.9-1.5 2-2.2 4.8-.9 4 .7-.4.8-.3.4.4-.5.8-.1 1 .9.5 1.3-.5 1.4-.7.3-1.4-1-.7-1.1-1.2-.1-2.8 1-1.6 1-2.2 0-2.7-.6-.4-.9-.4-.5.1z"/><path d="M262.2 79.7c-.7 1-1 1.2-.6.5.8-1.8-2.7-1.2-4.4.8-.8.8-1.1 1-.8.3.4-.7-.1-1-1.1-.8-1 .2-2.5.4-3.3.4-1.3.1-1.3.3 0 1 .8.6 1.8.7 2.4.4.5-.3.6-.1.2.5-.4.6-1.4.8-2.4.5-1.4-.6-1.5-.4-.4.9 1.1 1.4.9 1.6-1.5 1.7-6.5.1-6.4.1-5.2 2.4.7 1.2.8 1.9.4 1.5-.5-.4-1.4-.3-2.2.4-.7.6-1.6.8-2 .4-.3-.3-1.5.2-2.6 1.1-1.1 1-1.7 1.2-1.3.5.4-.7.1-1.2-.9-1.2s-1.3.5-.9 1.2c.5.7.2.9-.8.6-.8-.4-1.5 0-1.5.8 0 .7.4 1.1.9.8.4-.3.5.2.2 1.1-.4.9-1.3 1.4-2 1.1-.8-.3-1.4-.1-1.4.4s-.6.7-1.4.4c-.8-.3-1.7-.1-2.1.5-.4.7-1.2.8-2.3.2-1.4-.7-1.8-.5-1.8 1 0 1 .4 1.9.8 1.9s.8-.6.8-1.3c0-.8.4-.7 1 .3s1 1.1 1 .2c0-.6.5-1.2 1.2-1.2.9 0 .9.3.1 1.1-.6.6-.9 1.9-.6 2.8.4 1.4.3 1.3-.7-.1-1.2-1.9-4.4-1.3-3.3.6.4.6-.1.5-1-.3-.9-.7-1.7-1-1.7-.5s-1.1 1-2.5 1c-1.5.1-2.2-.2-1.8-.9.3-.6.1-.7-.5-.3-.7.4-1.2 1.4-1.2 2.2 0 .8.4 1.3.8 1 .5-.3.9.1.9.9 0 1.9-1.7.8-2.6-1.7-.7-1.9-.8-1.9-2.2-.2-.7 1-.9 1.5-.3 1.1.7-.4 1.5 0 1.8.9.9 2.4.7 3.1-.4 1.4-.9-1.3-1.1-1.3-2 0-.8 1.3-1.1 1.2-2.5-.5-1.3-1.8-1.4-1.8-.9-.2.6 1.6.2 1.8-2.2 1.6-1.6-.2-3.8.2-4.9.9-1.1.6-1.4 1.2-.7 1.2 1.3 0 1.7 2.9.5 3.1-.5 0-1.6.2-2.5.4-1 .2-1.8-.2-1.8-.8 0-.7-.5-.4-1.1.5-.5 1-1.5 1.8-2 1.8-.6 0-.7-.5-.4-1 .3-.6.2-1-.4-1-.5 0-.9.9-.8 2 .1 1.2.7 1.8 1.4 1.6.7-.3 1.3-.2 1.3.3s-.9 1.1-2 1.4c-1.1.3-1.8.1-1.4-.4.3-.5 0-.9-.5-.9-1.2 0-1.2 0-1.5 5.5-.1 2.2-.6 4.6-1 5.4-.6.9-.5 1.2.2.7 1.2-.7 1.1 4.2-.2 6.3-.6.9-.5 1.2.2.7.6-.3 1.4-.1 1.8.5.5.8.3.9-.6.4-.9-.6-1-.2-.5 1.5.4 1.4.3 2-.3 1.6-.5-.3-1.2.1-1.5.9-.4.9-.1 1.2.7.9.7-.3 1.3.2 1.3 1s-.5 1.2-1.1.9c-.6-.4-.6-.1.1.8.6.8 1 2.4.9 3.4-.2 1.1.1 3 .5 4.3.6 1.4.5 2.1 0 1.7-.5-.3-1.2-.1-1.6.5-.4.6-1 .8-1.4.6-.4-.3-.8.2-.8 1 0 1 .4 1.1 1.1.4 1.8-1.8 2.2-1.1 2.2 4.4 0 3.6-.3 5.3-1 4.9-.6-.4-.5.1.3 1 1.1 1.4 1.1 1.7 0 1.7-.9 0-1 .3-.4.8 1.3.9 1.5 6.2.3 6.2-.5 0-.6.5-.3 1 .4.6 1.2.7 1.8.4.9-.5.9-.4 0 .6-.6.7-.9 1.9-.6 2.8.4 1 .2 1.3-.5.8-.6-.3-1.4-.1-1.8.5-.4.7-.3.9.4.5.6-.3 1.3-.2 1.7.4.3.5 0 1-.7 1-.9 0-.9.3.2 1 1.3.9 1.3 1 0 1-.9 0-1.1.3-.5.8 1.3.9 1.9 4.2.8 4.3-2.3.2-4.6.8-5.1 1.4-.4.3.7.4 2.4.1l3-.6v7.8c0 4.3-.4 8-1 8.4-.7.5-.5.8.4.8 1.3 0 1.3.1 0 1-1 .6-1.1 1-.2 1 .6 0 1.2.5 1.2 1.1 0 .5-.4.8-.9.5-.8-.5-.8 1.7 0 3.4.6 1.4.3 3.6-.6 4.2-.6.5-.4.8.5.8 1.3 0 1.3.1 0 1-1 .6-1.1 1-.2 1 .6 0 1.2.5 1.2 1.1 0 .5-.4.8-.9.5-.8-.5-.8 1.7 0 3.4.7 1.6.3 9.6-.6 10.2-.6.5-.5.8.3.8.6 0 1.2.6 1.2 1.4 0 .8-.6 1.7-1.2 1.9-1 .4-.9.6.1.6 1.1.1 1.1.4 0 1.8-.8.9-.9 1.4-.3 1 1.4-.8 1.3 3.5-.1 4.5-.6.5-.6.8.1.8.6 0 1.1 1.6 1.2 3.5.1 2.3-.2 3.3-.9 2.9-.6-.3-.5.3.2 1.4 1.1 1.7 1 2.4-.2 3.8-1 1.3-1 1.6-.1 1 .9-.5 1.3-.3 1.1.5-.6 4.7-.1 5.1 5.8 4.7 3.7-.2 5.8-.8 6.1-1.7.3-.8 0-1.1-.6-.7-.6.3-.9-.1-.8-1.1.2-1.4 1.2-1.8 4.3-1.8 2.3 0 3.9-.3 3.7-.6-.2-.4.3-1 1.2-1.3 2.5-.9 2.7-.7 1.3 1.1-1.3 1.5-1.2 1.5.7.3 2.9-1.8 1-4.2-2.4-2.9-1.5.6-2.1.5-1.7-.1.3-.6 1.3-1 2.1-1 1 0 1.2-.5.8-1.2-.6-1-.4-1 .8 0 1.1.9 1.8 1 2.3.2.3-.5 1.2-1 1.8-1 .7 0 .6.4-.3 1-.9.6-1 1-.3 1 1.9 0 5.5-4.3 4.2-5.1-.7-.4-.5-.8.6-1.2.9-.4 1.3-.3 1 .3-.3.6-.1 1 .5 1 .7 0 .5.7-.4 1.6-1.9 1.9-2.1 3.1-.3 1.5.8-.6 1.8-.7 2.2-.3.5.4.5.2.2-.5-.4-.6-.1-1.4.5-1.6 1-.4 1-.6.1-.6-.7-.1-1.3-.5-1.3-1 0-.6.9-.8 2.1-.6 1.6.3 1.9 0 1.5-1.2-.5-1.2-.3-1.3.6-.6.8.6 2.2.7 3.3.2 1.3-.5 1.5-.8.5-.8-1-.1-1.1-.4-.4-.9.6-.4 1.3-1.5 1.7-2.5.3-.9 1.2-1.7 1.9-1.7.9 0 .9.3-.2 1.1-1.2.8-1.2 1 .5.7 1.1-.2 2.1-1.2 2.3-2.3.2-1.1.9-2.5 1.4-3 .7-.7.8-.3.4 1.2-.7 2.2.8 4.1 1.9 2.3.4-.6 1.2-.7 1.8-.3.7.3.5-.2-.5-1.3-1.5-1.8-1.5-2 1-3.9 2.1-1.5 2.4-1.5 1.3-.2-1.2 1.5-1.1 1.7 1 1.5 2.3-.3 5.9-3.7 5.9-5.5 0-.4-.5 0-1.1.9-.5 1-1.5 1.8-2.1 1.8-.6 0-.3-.9.6-1.9 1-1.1 2.5-1.7 3.7-1.4 1.2.3 1.9 0 1.9-.8 0-.9.3-1 .8-.4 1.3 1.9 3.8 1.2 5-1.3 1.1-2.3 1.1-2.4-.7-.8-1.3 1.2-2.1 1.4-2.6.6-.4-.6-.4-1.4-.1-1.7.3-.4.6 0 .6.7 0 .9.6.7 2.1-.6 1.6-1.5 2.4-1.6 3.9-.6 1.6 1 1.8.9 1.3-.5-.5-1.2-.3-1.4.7-.8 1 .6 1.2.4.8-.7-.4-.8-.2-2.1.2-2.9.6-.8.4-1.6-.3-2.1-.9-.6-.9-.8.1-.8.7 0 1.1-.4.7-.9-.3-.6.6-.8 2-.5 1.4.2 2.5 0 2.5-.6s-.4-.8-1-.5c-.5.3-1 .1-1-.4 0-.6.6-1.1 1.3-1.1.9 0 .8-.3-.2-.9-1.1-.7-1.1-.9 0-1.3.9-.3.9-.6-.3-1.1-1.2-.4-1.6-.1-1.3 1.3.5 2.4-.6 3.2-2.5 1.9-1.2-.7-1.2-.9-.1-.9 1 0 1.1-.3.2-1.4-.8-1-.9-1.6-.1-2.1.6-.3.8-1.1.5-1.6-.4-.5-.1-.9.5-.9s.8-.5.5-1c-.4-.6-1.2-.7-1.8-.3-.7.4-.6 0 .2-1 1-1.3 1-1.7.1-1.7s-.9-.4.1-1.7c1.5-1.8 1.6-2.3.1-3.2-.6-.3.1-1.2 1.4-1.8 2.1-1 2.3-.9 1.5.1-.6.7-.8 1.6-.4 1.9.3.4.2.7-.3.7-1.8 0-1.3 3.6.5 3.7 1.5.1 1.7-.8 1.7-6.3-.1-3.5-.5-6.4-1.1-6.4-.5 0-.3-.5.5-1 1.3-.9 1.3-1 0-1-1.2 0-1.2-.2-.2-.9 1.1-.7 1.1-.9-.1-1.4-1.1-.4-1.5 0-1.2 1.4.2 1.1 0 1.7-.6 1.3-.6-.3-.5.4.3 1.5 1.1 1.8 1.1 2.3 0 3-.8.4-1.3 1.1-1.3 1.5.1.3-.1.6-.4.6-.4 0-.6-.6-.4-1.3.7-2.5.7-4.7-.1-4.2-.6.3-.7-.1-.4-.9.3-.9 1-1.6 1.6-1.6.5 0 .6-.5.3-1-.4-.6-1.1-.7-1.7-.4-.7.4-.8.2-.4-.5.4-.6 1.2-.9 1.7-.6.5.4.9.2.9-.4 0-.5-.6-1.4-1.4-1.8-1.1-.7-1-1.1.4-2.6 1.7-1.7 1.7-1.7 1.5.7-.2 1.9.1 2.3 1.3 1.8 1-.3 1.2-.7.4-1-.7-.2-1.2-.8-1.2-1.3 0-.6.4-.8.8-.5.4.2.8-.8.7-2.4 0-1.5-.3-2.6-.7-2.4-.3.2-.9-.2-1.2-.8-.3-.7-.4-.4-.1.7.3 1.3-.2 2.5-1.6 3.3-1.7 1.1-2 1.1-1.3 0 1.3-2.1 1.5-5 .3-4.2-.7.4-.7-.1.1-1.6 1-1.8.9-2.4-.1-3.1-1.2-.7-1.2-.9 0-.9 1.1 0 1.1-.3 0-1.7-1.3-1.5-1.2-1.5.9-.2 1.3.8 2.1 2.1 1.9 3.1-.3 1 0 1.5.7 1.2.7-.3 1.1-2.8 1.1-6.3 0-3.3-.3-5.7-.7-5.5-.3.2-.9-.2-1.2-.8-.3-.7-.4-.4-.1.7.3 1.3-.2 2.5-1.6 3.3-1.7 1.1-2 1.1-1.3 0 1.3-2.1 1.5-5 .3-4.2-.8.5-.8.1 0-1.4 1.4-2.7 1.4-3.5-.1-2.6-1 .6-1 .5-.1-.7 1-1.2 1-1.8 0-2.8-.9-1-.7-1 1 0 1.3.8 2.2 1.8 2.2 2.4-.3 2.4.2 4.5.9 4.5.4 0 .8-3.4.8-7.5-.1-4.3-.5-7.5-1.1-7.5-.5 0-.3-.5.5-1 1.3-.9 1.3-1 0-1-1.2 0-1.2-.2-.2-.9 1.1-.7 1.1-.9-.1-1.4-1.2-.4-1.4.2-1.1 3.4.2 2.1 0 3.9-.5 3.9s-.8.8-.6 1.7c.2 1 .4 2 .4 2.3.1.3.6-.2 1.1-1 .6-.9 1-1 1-.3 0 .6-.4 1.4-.9 1.7-1.1.7-4.3-2.8-3.4-3.8.4-.3.8-1.6 1-2.7.2-1.4-.1-1.8-.9-1.3-.9.5-.9.2.1-.9 1.1-1.4 1.1-1.7 0-1.7-.8 0-.5-.5.6-1.4 1.1-.8 2.5-1.2 3.2-.9.7.3 1.3 0 1.3-.7 0-.6-.4-.8-1-.5-.5.3-1 .2-1-.4 0-.5.6-1.2 1.3-1.4.9-.4.9-.6-.1-.6-.8-.1-1-.6-.5-1.4 1.4-2.2 1.5-5.9.1-5.5-.7.3-1.3 2-1.3 4.1 0 2-.6 4.2-1.4 4.9-1 1-1.2 1-.7 0 .4-.7.2-1.2-.6-1.2-1 0-1-.2.1-.9.9-.6 1-1 .2-1.6-.9-.5-.9-1 0-2.1.8-1 .8-1.8.1-2.7-.7-.8-.7-1.8-.2-2.7.6-.9.4-2-.3-2.9-.9-1.2-.9-1.3.1-.7 1.3.8 1.7-.6.5-1.8-1-1-1.1-4.6-.1-4 .4.3.8-.4.8-1.5s-.5-2.3-1-2.6c-.8-.5-.7-1.1.1-2.1.9-1.1.8-1.4-.2-1.4-1.2 0-1.2-.2-.1-.9 1.6-.9 1.5-2-.1-4-1-1.2-.9-1.2.9-.1 1.8 1.1 2 2.2 1.9 11.1-.1 5.4.2 9.6.7 9.3.4-.3.5.2.2 1-.3.9-.2 1.6.3 1.6.4 0 .8-7.7.8-17 0-10.8-.3-17-1-17s-.7-.3 0-.8c1.2-.8 1.6-6.2.5-6.2-.4 0-1.3.7-2 1.5-1 1.2-1 1.5 0 1.5.7 0 1 .8.7 1.9-.2 1 0 2.6.6 3.6.5 1 .5 1.5 0 1.2-.5-.3-.9 1.1-.9 3.3 0 2.1.4 3.6 1 3.3.5-.4.6-.1.2.6-.6.9-1.3.8-2.7-.5-2-1.8-2.5-2.9-.9-1.9.6.3 1-.3 1-1.4 0-1.1-.5-2.3-1-2.6-.7-.4-.7-1.2 0-2.5 1.3-2.5 1.3-3.3-.2-2.4-1 .6-1 .4 0-.8.9-1.2 1-1.8.2-2.3-.8-.5-.8-1 0-2s.7-1.4-.2-1.8c-1.1-.4-1-.6 0-.6.7-.1 1.1-.5.8-.9-.2-.4.4-.8 1.4-.8 1.4 0 1.6.4.9 1.8-.7 1.3-.6 1.6.4 1.3 1.6-.7 2-4.6.4-4.4-1.7.3-4.7-1.2-4.7-2.3 0-.5.4-.7.8-.4.5.3.9-.1.9-.9 0-2-.9-1.9-2.5.2zM203 110c0 .5-.5 1-1.1 1-.5 0-.7-.5-.4-1 .3-.6.8-1 1.1-1 .2 0 .4.4.4 1zm64.6 58c0 2.7-.1 2.9-1.4 1.6-1.3-1.2-1.3-1.8-.2-3 1.6-2.1 1.6-2.1 1.6 1.4zM239 243.4c0 .3-.4.8-1 1.1-.5.3-1 .1-1-.4 0-.6.5-1.1 1-1.1.6 0 1 .2 1 .4z"/><path d="M242 86.6c0 .9-.5 1.2-1.2.8-.9-.5-.9-.3.1.9 1.7 2.1 3.1 1.3 2.4-1.3-.6-2.4-1.3-2.6-1.3-.4zm22.7 9.9c-.4.8-.3 1.6.1 1.9.4.3.9-.4.9-1.5.2-2.3-.3-2.5-1-.4zm-.2 16.4c-.3.5-.2 1.2.3 1.5.5.3.9-.1.9-.9 0-1.7-.3-1.9-1.2-.6zM189 116c0 .5.5 1 1.1 1 .5 0 .7-.5.4-1-.3-.6-.8-1-1.1-1-.2 0-.4.4-.4 1zm75.7 4.5c-.4.8-.3 1.6.1 1.9.4.3.9-.4.9-1.5.2-2.3-.3-2.5-1-.4zm-79.3 3.4c0 1.1.5 1.7 1.3 1.4 1-.4 1.1-.9.2-1.9-1.5-1.8-1.5-1.8-1.5.5zm79.3 4.5c-.3.8-.2 1.8.3 2.1 1.3.8 2-.9 1.1-2.4-.6-1-1-.9-1.4.3zm-79.3 3.5c0 1.1.5 1.7 1.3 1.4 1-.4 1.1-.9.2-1.9-1.5-1.8-1.5-1.8-1.5.5zm79.1 2c-.3.5-.2 1.2.3 1.5.5.3.9-.1.9-.9 0-1.7-.3-1.9-1.2-.6zm-79 5.1c-.4.6-1.1.7-1.7.4-.7-.4-.8-.2-.4.5.6.9 1.1.9 2.2 0 1.4-1.1 1.8-1.9 1-1.9-.3 0-.8.5-1.1 1zm-.5 6.5c0 .5.5 1.7 1 2.5s1 1 1 .5c0-.6-.5-1.7-1-2.5s-1-1.1-1-.5zm.9 4.7c-.8 2.7-.5 3.6.9 3 1-.4 1.2-.7.4-1-.7-.2-1-.8-.6-1.3.3-.5.3-.9 0-.9s-.6.1-.7.2zm-1.5 9.9c-.4.7-.3.9.4.5.5-.3 1.3 0 1.5.6.4.9.6 1 .6.1.1-1.7-1.6-2.5-2.5-1.2zm1.1 15c-.4.6-.5 1.2-.2 1.5.2.3.7-.2 1-1.1.7-1.7.1-2-.8-.4zm81.5.9c0 .5.5 1 1 1 .6 0 1-.5 1-1 0-.6-.4-1-1-1-.5 0-1 .4-1 1zm-83.5 4.9c-.3.5-.2 1.2.3 1.5.5.3.9-.1.9-.9 0-1.7-.3-1.9-1.2-.6zM267 188c0 .5.5 1 1 1 .6 0 1-.5 1-1 0-.6-.4-1-1-1-.5 0-1 .4-1 1zm-81.6 7.1c-.3.6-.2 1.5.3 2s.9.1.9-1.1c0-2.3-.2-2.4-1.2-.9zm.2 5.6c-.6 1.4-.5 1.5.5.6.7-.7 1-1.5.7-1.8-.3-.3-.9.2-1.2 1.2zm0 3.1c-.3.5.1.9.9.9s1.2-.4.9-.9c-.3-.4-.7-.8-.9-.8-.2 0-.6.4-.9.8zm79.9 4.2c-.3.5-.1 1.2.5 1.5.8.5.6 1.4-.4 3-1 1.5-1.2 2.6-.6 3 .6.4.9.1.8-.7-.2-.8.4-1.2 1.6-1 1.7.3 1.8.2.7-1.2-1.1-1.3-1.1-1.6 0-1.6 1.2 0 1.2-.2 0-.9-1.1-.7-1.1-.9 0-1.3.9-.3.8-.6-.4-1.1-.9-.3-1.9-.2-2.2.3zm0 14c-.3.5 0 1.2.5 1.5.8.5.6 1.1-.4 1.8-1.2.9-1.3 1.6-.5 2.7.9 1.3 1 1.2.5-.3s-.2-1.7 1.7-1.2c1.7.5 1.9.4.7-.4-1.3-1-1.3-1.1 0-1.1 1.2 0 1.3-.2.1-.9-1.1-.7-1.1-.9 0-1.3.9-.3.8-.6-.4-1.1-.9-.3-1.9-.2-2.2.3zm-80 13.1c-.4.6-.5 1.2-.2 1.5.2.3.7-.2 1-1.1.7-1.7.1-2-.8-.4zm0 18.9c-.3.5-.1 1 .4 1 .6 0 1.1-.5 1.1-1 0-.6-.2-1-.4-1-.3 0-.8.4-1.1 1z"/></svg>