<svg xmlns="http://www.w3.org/2000/svg" viewBox="0 0 446.3 48.69"><defs><style>.a{fill:#21368b}</style></defs><path class="a" d="M25.22 42.93c-3.22 3.33-7.14 4.86-12.55 4.86a25.35 25.35 0 0 1-5.47-.58 19.71 19.71 0 0 1-5.47-2L0 32.25h2.36a16.72 16.72 0 0 0 1.67 3.9A11.87 11.87 0 0 0 13.58 42a5.48 5.48 0 0 0 5.82-5.44c0-2.75-1.38-4.16-5.35-5.57l-2.19-.77C4.78 27.72 1.44 23.69 1.44 17.3c0-8.83 6.85-15 16.58-15a17.45 17.45 0 0 1 7 1.22l.56.26a2.72 2.72 0 0 0 1.21.26c.69 0 1.15-.38 1.61-1.34V16h-2.3a10.37 10.37 0 0 0-1.15-3.52 9.25 9.25 0 0 0-8.23-4.67c-3.17 0-5.3 1.86-5.3 4.74 0 2.49 1.61 4.09 5.58 5.25l2.48.7a14.18 14.18 0 0 1 6.51 3.58 13.18 13.18 0 0 1 3.86 9.47 16.84 16.84 0 0 1-4.63 11.38zm42.36 2.31c-.81.32-1.38.51-1.78.64a31.34 31.34 0 0 1-10.71 1.85c-6.16 0-11.4-1.79-15-5-4.2-3.78-6.68-9.92-6.68-16.51 0-14.14 10-24.06 24.24-24.06a26.55 26.55 0 0 1 7.31.9l.69.19.63.19a3.2 3.2 0 0 0 .75.06c.92 0 1.44-.38 2-1.54v14.2h-2.35C65.29 10.43 62.01 7 57.81 7 51.3 7 46.7 13.72 46.7 23.25c0 10.3 5.12 18.43 11.63 18.43 4.32 0 7.48-3.13 9.9-9.92h2.88zm32.67 1.47v-3l3.4-.51c1.21-.19 1.44-.51 1.44-1.54v-15.3H88.96v15.29c0 1 .29 1.34 1.44 1.54l3.18.51v3H72.09v-3l3.28-.51c1.15-.19 1.44-.51 1.44-1.54V8.38c0-1.09-.29-1.34-1.44-1.54l-3.22-.51v-3h21.76v3l-3.51.51c-1.15.19-1.44.45-1.44 1.54v13.31h16.12V8.38c0-1-.29-1.34-1.44-1.54l-3.34-.51v-3h21.65v3l-3.37.52c-1.15.19-1.44.45-1.44 1.54v33.26c0 1.09.29 1.34 1.44 1.54l3.34.51v3h-21.67zm66.44-39.86c-1.21.19-1.44.45-1.44 1.47v.06l.23 16.83v1.15a27.23 27.23 0 0 1-1 8.64 19.16 19.16 0 0 1-3.57 6.53c-3.57 4.35-8.18 6.27-14.62 6.27-6.1 0-11.11-1.92-14.45-5.5-2.25-2.5-3.17-5.82-3.17-11.39 0-1.21 0-3 .06-5.31l.29-17.21v-.07c0-1-.29-1.28-1.44-1.47l-3.11-.51v-3h21.76v3l-3.51.51c-1.15.19-1.44.45-1.44 1.54v22.39a19.61 19.61 0 0 0 .58 5.31 7.5 7.5 0 0 0 7.54 5.76 7.64 7.64 0 0 0 5.7-2.5c1.73-2 2.48-4.74 2.48-9.47V8.38c0-1.09-.35-1.41-1.44-1.54l-4.09-.51v-3h17.53v3zm41.17 9.98c-.06-6.34-1.9-8.32-7.77-8.32h-2.71v33.14a1.31 1.31 0 0 0 1.44 1.54l3.76.51v3h-22.81v-3l4-.51a1.31 1.31 0 0 0 1.44-1.54V8.51h-2.63c-3.4 0-5.07.64-6.39 2.3-1 1.41-1.44 2.94-1.56 6.08h-2.59V1.79a5.28 5.28 0 0 0 1.09.77 16.87 16.87 0 0 0 5.59.77h26.66c.23 0 .75-.06 1.38-.13a9.37 9.37 0 0 0 1.82-.32 3.74 3.74 0 0 0 1.84-1.09v15h-2.59zm40.89 0c-.06-6.34-1.9-8.32-7.77-8.32h-2.71v33.14a1.31 1.31 0 0 0 1.44 1.54l3.8.51v3h-22.86v-3l4-.51a1.31 1.31 0 0 0 1.44-1.54V8.51h-2.59c-3.4 0-5.07.64-6.39 2.3-1 1.41-1.44 2.94-1.56 6.08h-2.59V1.79a5.26 5.26 0 0 0 1.09.77 16.87 16.87 0 0 0 5.58.77h26.66c.23 0 .75-.06 1.38-.13a9.36 9.36 0 0 0 1.84-.32 3.74 3.74 0 0 0 1.84-1.09v15h-2.59zm38.69 29.88h-33.57v-3l3.28-.51c1.09-.19 1.44-.51 1.44-1.54V8.38c0-1-.29-1.34-1.44-1.54l-3.34-.51v-3h27.87a20.29 20.29 0 0 0 3.9-.39 5.2 5.2 0 0 0 2.71-1.22v13.96h-2.36c-.52-5.69-2.82-7.74-8.87-7.74h-6.39v13.94h8.91c.92 0 1.44-.58 1.79-2.17l.46-2.11h2.19v14.07h-2.19l-.81-3.9c-.23-1.21-.58-1.53-1.67-1.53h-8.64V39c0 1.79.86 2.56 2.88 2.56h3.57c4.26 0 6.45-.77 8.41-2.88a8.93 8.93 0 0 0 1.18-1.68 17.08 17.08 0 0 0 1.73-4h2.76zm41.28-40.06c-.92.19-1.21.51-1.73 1.92l-14.56 40.12h-3.28l-14-40.63a1.81 1.81 0 0 0-1.38-1.34l-2-.38v-3h20.09v3l-2.76.58a1 1 0 0 0-.81 1.08 1.66 1.66 0 0 0 .11.7l6 22.46 6.84-22.46a3.63 3.63 0 0 0 .12-.7c0-.64-.4-.9-1.44-1.09l-3.28-.58v-3h13.59v3zm13.54 40.06v-3l3.45-.64a1 1 0 0 0 1.1-1.07 4.07 4.07 0 0 0-.12-.64l-3.05-10.49h-11.23l-3.23 10.3a3 3 0 0 0-.11.7c0 .58.63 1 1.9 1.22l4 .64v3h-14.65v-3l1.27-.19c.92-.13 1.5-.83 2.07-2.37l13.65-38.1 8-3.07 13.76 40.5c.69 2.11 1.38 2.94 2.59 3.07l1.09.13v3h-20.5zm-3.86-34.36L333.58 27h8.87zm60 34.36h-33.57v-3l3.28-.51c1.09-.19 1.44-.51 1.44-1.54V8.38c0-1-.29-1.34-1.44-1.54l-3.34-.51v-3h27.87a20.27 20.27 0 0 0 3.94-.39 5.21 5.21 0 0 0 2.71-1.22v13.96h-2.36c-.52-5.69-2.82-7.74-8.87-7.74h-6.39v13.94h8.87c.92 0 1.44-.58 1.79-2.17l.46-2.11h2.19v14.07h-2.19l-.81-3.9c-.23-1.21-.58-1.53-1.67-1.53h-8.64V39c0 1.79.86 2.56 2.88 2.56h3.57c4.26 0 6.45-.77 8.41-2.88a8.9 8.9 0 0 0 1.18-1.68 17.06 17.06 0 0 0 1.73-4h2.76zm46.35.29a48.22 48.22 0 0 1-6.16.51 8.88 8.88 0 0 1-5.12-1.15c-2.42-1.41-3.57-3.26-5.12-8.38l-3.22-10.43h-5.07v14.1c0 1 .29 1.34 1.44 1.54l3.46.51v3h-21.49v-3l3.34-.51c1.15-.19 1.44-.51 1.44-1.54V8.38c0-1.09-.29-1.34-1.44-1.54l-3.34-.51v-3c7.77-.26 10.88-.33 16.81-.33 8.18 0 10.83.19 13.93 1.09a8.72 8.72 0 0 1 6.5 8.51c0 4.35-2.88 8.38-7.43 10.56l8.46 15.36a24.41 24.41 0 0 0 2.76 4.29 2.41 2.41 0 0 0 1.79 1v2.94c-.71.15-1.2.25-1.54.25zM425.23 8.25a11.67 11.67 0 0 0-5.18-1.34v17.66a15.28 15.28 0 0 0 2.3.13c4.43 0 6.91-2.82 6.91-7.93 0-3.85-1.44-6.92-4.03-8.52z"/></svg>