<svg width="26" height="26" viewBox="0 0 26 26" fill="none" xmlns="http://www.w3.org/2000/svg">
<path d="M16.128 10.2873V5.93374L14.6055 5.93968V10.9311L18.9934 15.208L20.0583 14.1184L16.128 10.2873Z" fill="#0CCA4A"/>
<path d="M15.3463 0C9.47192 0 4.6927 4.7578 4.6927 10.6059C4.6927 11.9253 4.92863 13.1965 5.39419 14.3999H0V24.3017H1.72468C1.96112 25.2749 2.84187 26 3.88984 26C4.93782 26 5.81857 25.2749 6.055 24.3017H13.0039H13.0904C13.3269 25.2749 14.2076 26 15.2556 26C16.3036 26 17.1843 25.2749 17.4208 24.3017H19.0694V20.5452C20.9725 19.8359 22.6692 18.572 23.8903 16.9427C25.2704 15.1011 26 12.9099 26 10.6059C26 4.7578 21.2208 0 15.3463 0ZM3.88984 24.4766C3.50152 24.4766 3.18556 24.1637 3.18556 23.7792C3.18556 23.3947 3.50147 23.0818 3.88984 23.0818C4.27822 23.0818 4.59413 23.3947 4.59413 23.7792C4.59413 24.1637 4.27817 24.4766 3.88984 24.4766ZM11.4801 22.7783H5.87773C5.50987 22.0553 4.75719 21.5584 3.88979 21.5584C3.0224 21.5584 2.26977 22.0554 1.90186 22.7783H1.52369V15.9234H11.4801V22.7783ZM15.2556 24.4766C14.8672 24.4766 14.5513 24.1637 14.5513 23.7792C14.5513 23.3947 14.8672 23.0818 15.2556 23.0818C15.6439 23.0818 15.9598 23.3947 15.9598 23.7792C15.9598 24.1637 15.6439 24.4766 15.2556 24.4766ZM17.5455 22.7783H17.2434C16.8756 22.0553 16.1229 21.5584 15.2555 21.5584C14.3881 21.5584 13.6355 22.0554 13.2676 22.7783H13.0039V20.2771H17.5455V22.7783ZM13.0039 18.7536V15.9225H13.6991L16.4878 18.7536H13.0039ZM22.6708 16.0292C22.5656 16.1695 22.4562 16.3066 22.343 16.4405L21.0137 15.1175L19.9388 16.1972L21.2654 17.5175C20.5443 18.1277 19.7303 18.6274 18.8598 18.9905L14.3371 14.399H12.242V14.3999H7.04966C6.60385 13.4412 6.33542 12.4267 6.24843 11.3709H8.0565V9.84745H6.24853C6.41128 7.89857 7.19509 6.12259 8.40227 4.71616L9.70242 6.01006L10.7774 4.93035L9.48711 3.6463C10.894 2.47218 12.6605 1.71158 14.5962 1.55421V3.3604H16.1199V1.55634C18.0522 1.71844 19.8149 2.48163 21.2182 3.65706L19.9388 4.9304L21.0137 6.01011L22.3011 4.72885C23.5022 6.13326 24.2819 7.90441 24.4441 9.8475H22.6418V11.3709H24.4444C24.304 13.0612 23.6981 14.6585 22.6708 16.0292Z" fill="#0CCA4A"/>
</svg>
