<svg width="20" height="26" viewBox="0 0 20 26" xmlns="http://www.w3.org/2000/svg"><title>Page 1</title><g fill="none" fill-rule="evenodd"><path d="M19.225 12.765a9.626 9.626 0 0 0-4.127-7.895l-.572.821a8.624 8.624 0 0 1 3.7 7.074c0 4.75-3.865 8.612-8.614 8.612-.14 0-.282-.01-.423-.019l2.426-2.426-.707-.707-3.652 3.652 3.652 3.653.707-.707-2.466-2.466c.155.007.308.02.463.02 5.301 0 9.613-4.312 9.613-9.612" fill="#D6405A"/><path d="M8.316 0L7.61.707l2.471 2.471c-.157-.008-.31-.026-.468-.026C4.312 3.152 0 7.465 0 12.765a9.657 9.657 0 0 0 3.93 7.755l.592-.806A8.651 8.651 0 0 1 1 12.765c0-4.749 3.863-8.613 8.612-8.613.142 0 .28.016.42.023L7.608 6.598l.707.707 3.652-3.653L8.316 0z" fill="#FFF"/></g></svg>