<svg width="24" height="17" viewBox="0 0 24 17" xmlns="http://www.w3.org/2000/svg" xmlns:xlink="http://www.w3.org/1999/xlink"><title>Page 1</title><defs><path id="a" d="M14.522.616H0V17h14.522z"/></defs><g fill="none" fill-rule="evenodd"><path d="M20.829 15.099a.5.5 0 0 1-.364-.843 8.813 8.813 0 0 0 2.405-6.064 8.812 8.812 0 0 0-2.407-6.066.5.5 0 0 1 .728-.685 9.808 9.808 0 0 1 2.679 6.75 9.815 9.815 0 0 1-2.677 6.75.5.5 0 0 1-.364.158m-4.045-3.293a.5.5 0 0 1-.332-.874 3.664 3.664 0 0 0 1.233-2.74c0-1.046-.45-2.045-1.234-2.74a.502.502 0 0 1-.042-.707.502.502 0 0 1 .707-.042 4.671 4.671 0 0 1 1.569 3.489 4.668 4.668 0 0 1-1.57 3.488.501.501 0 0 1-.331.126" fill="#D6405A"/><path d="M18.817 13.458a.502.502 0 0 1-.354-.853 6.226 6.226 0 0 0 1.82-4.414 6.221 6.221 0 0 0-1.834-4.426.5.5 0 0 1 .707-.707 7.213 7.213 0 0 1 2.127 5.133 7.22 7.22 0 0 1-2.112 5.12.497.497 0 0 1-.354.147" fill="#D6405A"/><g transform="translate(0 -.616)"><mask id="b" fill="#fff"><use xlink:href="#a"/></mask><path d="M1 10.22V7.396l12.522-4.631V14.85L1 10.22zm5.712 3.896a.265.265 0 0 1-.136.152.277.277 0 0 1-.204.012l-2.631-.923a.269.269 0 0 1-.164-.34l.24-.69 3.117 1.154-.222.635zm7.31-13.5a.5.5 0 0 0-.5.5v.583L.961 6.343A.5.5 0 0 0 0 6.536v4.544a.5.5 0 0 0 .961.193l1.918.709-.246.706A1.27 1.27 0 0 0 3.41 14.3l2.63.923a1.255 1.255 0 0 0 .969-.054c.306-.146.535-.404.647-.723l.216-.62 5.65 2.09v.584a.5.5 0 1 0 1 0V1.116a.5.5 0 0 0-.5-.5z" fill="#FFF" mask="url(#b)"/></g></g></svg>