<svg width="21" height="21" viewBox="0 0 21 21" xmlns="http://www.w3.org/2000/svg" xmlns:xlink="http://www.w3.org/1999/xlink"><title>Page 1</title><defs><path id="a" d="M20.113 21H0V.18h20.113V21z"/></defs><g fill="none" fill-rule="evenodd"><g transform="translate(0 -.18)"><mask id="b" fill="#fff"><use xlink:href="#a"/></mask><path d="M2.412 1.18c-.773 0-1.402.633-1.402 1.411L1 18.584l3.116-3.114h13.586c.778 0 1.41-.633 1.41-1.412V2.591a1.41 1.41 0 0 0-1.41-1.41H2.412zM0 21L.01 2.591A2.41 2.41 0 0 1 2.412.181h15.29a2.414 2.414 0 0 1 2.41 2.41v11.467a2.414 2.414 0 0 1-2.41 2.412H4.53L0 21z" fill="#FFF" mask="url(#b)"/></g><path d="M7.12 8.086a1.187 1.187 0 1 1-2.375 0 1.187 1.187 0 0 1 2.374 0m4.125 0a1.187 1.187 0 1 1-2.374 0 1.187 1.187 0 0 1 2.374 0m4.126 0a1.187 1.187 0 1 1-2.375 0 1.187 1.187 0 0 1 2.374 0" fill="#D6405A"/></g></svg>