<svg width="19" height="19" viewBox="0 0 19 19" xmlns="http://www.w3.org/2000/svg" xmlns:xlink="http://www.w3.org/1999/xlink"><title>Page 1</title><defs><path id="a" d="M18.609 19V.39H0V19h18.609z"/></defs><g fill="none" fill-rule="evenodd"><g transform="translate(0 -.39)"><mask id="b" fill="#fff"><use xlink:href="#a"/></mask><path d="M10.496 1.31v.002-.002zm7.208 7.218zm-11.49 6.507l.28.142c.29.149.613.28.96.394l.293.095.357 2.347L10.519 18c.07-.29.172-.857.308-2.012l.037-.321.307-.097c.33-.106.655-.24.964-.403l.286-.15 1.823 1.429c.022-.035.238-.18.729-.663.527-.52.89-.916 1.082-1.178a17.557 17.557 0 0 1-1.244-1.55l-.177-.253.147-.272c.14-.258.279-.584.415-.971l.1-.283 2.316-.351-.002-2.411-2.315-.354-.092-.298a6.518 6.518 0 0 0-.437-1.042l-.142-.273.18-.25c.14-.195.35-.47.63-.827.27-.34.46-.587.572-.743-.165-.185-.623-.71-1.812-1.807l-1.801 1.437-.278-.144a6.608 6.608 0 0 0-.96-.393l-.292-.096-.357-2.345-2.415.012c-.093.389-.195 1.06-.307 2.012l-.038.319-.306.099a6.098 6.098 0 0 0-.965.402l-.284.149-1.826-1.416c-.033.034-.252.183-.733.658-.66.652-.95.996-1.075 1.17.502.545.924 1.088 1.242 1.54l.178.255-.148.27a5.34 5.34 0 0 0-.41.964l-.09.3-2.332.35L1 10.878l2.324.343.089.31c.095.338.239.685.428 1.034l.15.276-.184.255c-.142.195-.352.47-.632.824-.27.34-.46.588-.57.744.265.33.877.952 1.808 1.793l1.802-1.421zm1.9 3.045zm2.464.92H8.033a.933.933 0 0 1-.597-.21.843.843 0 0 1-.315-.595L6.85 16.42a8.063 8.063 0 0 1-.524-.214l-1.373 1.042c-.28.25-.873.286-1.228-.067-.98-.885-1.621-1.54-1.944-1.988a.94.94 0 0 1 .01-1.112c.117-.164.316-.423.6-.782.167-.212.308-.393.424-.546a6.09 6.09 0 0 1-.265-.636l-1.79-.264a.854.854 0 0 1-.565-.336.925.925 0 0 1-.195-.572V8.4c0-.196.065-.39.189-.56a.847.847 0 0 1 .525-.343l1.852-.28c.069-.187.149-.375.24-.561a27.23 27.23 0 0 0-1.028-1.307.919.919 0 0 1-.23-.595c0-.18.065-.364.193-.548.224-.31.61-.734 1.189-1.303.813-.803 1.15-.964 1.434-.964a.98.98 0 0 1 .602.217l1.338 1.037c.17-.08.346-.153.525-.22.11-.9.21-1.52.307-1.888.107-.432.443-.694.896-.694h2.545c.22 0 .428.072.597.21a.827.827 0 0 1 .315.597l.27 1.772c.183.068.359.14.527.216l1.384-1.043c.059-.067.262-.204.576-.204.216 0 .426.08.607.23 1.039.957 1.68 1.62 1.98 2.045.059.063.172.25.172.54a.946.946 0 0 1-.188.558 22.69 22.69 0 0 1-.597.778c-.17.214-.311.398-.427.55.099.21.187.418.262.624l1.798.275a.855.855 0 0 1 .562.334.934.934 0 0 1 .195.573v2.545a.944.944 0 0 1-.185.556.86.86 0 0 1-.552.35l-1.838.278c-.076.198-.153.38-.231.547.254.346.6.785 1.03 1.312.15.18.228.384.228.603a.883.883 0 0 1-.233.6c-.191.266-.58.692-1.154 1.258-.81.797-1.146.958-1.428.958a1.05 1.05 0 0 1-.568-.183l-1.372-1.072c-.172.08-.348.153-.525.218-.11.897-.211 1.516-.307 1.888-.11.435-.445.696-.897.696z" fill="#FFF" mask="url(#b)"/></g><path d="M9.305 6.87c-.678 0-1.24.232-1.722.713a2.324 2.324 0 0 0-.713 1.722c0 .677.233 1.241.713 1.721s1.043.713 1.722.713a2.32 2.32 0 0 0 1.721-.713c.48-.48.714-1.044.714-1.72 0-.68-.234-1.243-.714-1.723a2.322 2.322 0 0 0-1.72-.714m0 5.87a3.327 3.327 0 0 1-2.43-1.006A3.323 3.323 0 0 1 5.87 9.305a3.32 3.32 0 0 1 1.006-2.429 3.326 3.326 0 0 1 2.43-1.007 3.32 3.32 0 0 1 2.427 1.007 3.323 3.323 0 0 1 1.007 2.43 3.33 3.33 0 0 1-1.006 2.427 3.323 3.323 0 0 1-2.429 1.006" fill="#D6405A"/></g></svg>