<svg width="20" height="15" viewBox="0 0 20 15" xmlns="http://www.w3.org/2000/svg" xmlns:xlink="http://www.w3.org/1999/xlink"><title>Page 1</title><defs><path id="a" d="M0 14.784h19.225V0H0z"/></defs><g fill="none" fill-rule="evenodd"><path d="M9.612 8.28c-.735 0-1.333.598-1.333 1.333s.598 1.333 1.333 1.333a1.335 1.335 0 0 0 0-2.667zm0 3.666A2.336 2.336 0 0 1 7.28 9.613 2.336 2.336 0 0 1 9.612 7.28a2.336 2.336 0 0 1 2.333 2.334 2.336 2.336 0 0 1-2.333 2.333z" fill="#D6405A"/><mask id="b" fill="#fff"><use xlink:href="#a"/></mask><path fill="#FFF" mask="url(#b)" d="M9.112 3.28h1V.5h-1zM3.864 6.911L1.45 5.541l.495-.87 2.412 1.371z"/><path d="M17.731 14.784l-2.85-1.612.494-.869 1.964 1.117a8.618 8.618 0 0 0 .886-3.807C18.225 4.864 14.361 1 9.612 1S1 4.864 1 9.613a8.63 8.63 0 0 0 .884 3.807l1.97-1.119.494.87-2.838 1.611-.262-.428A9.614 9.614 0 0 1 0 9.614C0 4.311 4.312 0 9.612 0s9.613 4.312 9.613 9.613a9.606 9.606 0 0 1-1.25 4.742l-.244.43z" fill="#FFF" mask="url(#b)"/><path fill="#D6405A" mask="url(#b)" d="M11.447 9.136l-.494-.87 6.724-3.821.494.869z"/></g></svg>