<svg width="20" height="20" viewBox="0 0 20 20" fill="none" xmlns="http://www.w3.org/2000/svg">
<g clip-path="url(#clip0_1241_7132)">
<path fill-rule="evenodd" clip-rule="evenodd" d="M10 0C4.48438 0 0 4.48438 0 10C0 15.5156 4.48438 20 10 20C15.5156 20 20 15.5156 20 10C20 4.48438 15.5156 0 10 0Z" fill="#4F9D69"/>
<path fill-rule="evenodd" clip-rule="evenodd" d="M14.8379 6.62891C15.0801 6.87109 15.0801 7.26953 14.8379 7.51172L8.97852 13.3711C8.85742 13.4922 8.69727 13.5547 8.53711 13.5547C8.37695 13.5547 8.2168 13.4922 8.0957 13.3711L5.16602 10.4414C4.92383 10.1992 4.92383 9.80078 5.16602 9.55859C5.4082 9.31641 5.80664 9.31641 6.04883 9.55859L8.53711 12.0469L13.9551 6.62891C14.1973 6.38281 14.5957 6.38281 14.8379 6.62891Z" fill="white"/>
</g>
<defs>
<clipPath id="clip0_1241_7132">
<rect width="20" height="20" fill="white"/>
</clipPath>
</defs>
</svg>
