<svg width="30" height="30" viewBox="0 0 30 30" fill="none" xmlns="http://www.w3.org/2000/svg">
<path d="M2.78926 26.8589C3.0247 27.1161 3.38986 27.2098 3.7201 27.0977L7.48274 25.8201L9.05577 29.469C9.19417 29.7901 9.50971 29.9986 9.85928 30H9.86291C10.2111 30 10.5266 29.7945 10.6671 29.4756L13.5993 22.8246C14.0585 22.8809 14.5258 22.9105 14.9999 22.9105C15.474 22.9105 15.9413 22.881 16.4005 22.8246L19.3327 29.4756C19.4732 29.7945 19.7887 30.0001 20.1369 30H20.1406C20.4902 29.9986 20.8057 29.7901 20.9441 29.469L22.5172 25.8201L26.2798 27.0977C26.6098 27.2098 26.9752 27.1162 27.2107 26.8589C27.4461 26.6017 27.5073 26.2297 27.3665 25.9106L24.0661 18.4297C25.5452 16.5036 26.4259 14.0952 26.4259 11.4845C26.4259 5.15193 21.3002 0 15 0C8.6997 0 3.57402 5.15193 3.57402 11.4845C3.57402 14.0952 4.45475 16.5036 5.9338 18.4297L2.6334 25.9106C2.49266 26.2297 2.55377 26.6017 2.78926 26.8589ZM24.9508 24.79L22.3139 23.8946C21.88 23.7472 21.4056 23.9581 21.2242 24.379L20.1279 26.9219L18.163 22.4647C19.9056 21.962 21.4779 21.0545 22.7721 19.8515L24.9508 24.79ZM5.33186 11.4845C5.33186 6.1212 9.66897 1.75784 15 1.75784C20.3309 1.75784 24.6681 6.1212 24.6681 11.4845C24.6681 16.8155 20.3309 21.1526 15 21.1526C9.66897 21.1526 5.33186 16.8155 5.33186 11.4845ZM7.2278 19.8515C8.52204 21.0545 10.0944 21.9621 11.8369 22.4647L9.87194 26.9218L8.77575 24.3789C8.59428 23.958 8.11996 23.7472 7.68607 23.8946L5.04914 24.7899L7.2278 19.8515Z" fill="#00C24E"/>
<path d="M11.5478 12.6061L11.0339 15.6022C10.9773 15.9319 11.1129 16.2652 11.3835 16.4618C11.6537 16.6581 12.0125 16.6847 12.3091 16.5287L14.9998 15.1142L17.6905 16.5287C17.9867 16.6844 18.3456 16.6585 18.6161 16.4618C18.8868 16.2652 19.0224 15.932 18.9658 15.6022L18.4519 12.6061L20.6287 10.4842C20.8683 10.2507 20.9545 9.90141 20.8511 9.58324C20.7477 9.26507 20.4727 9.03316 20.1416 8.98505L17.1333 8.54793L15.788 5.822C15.6399 5.52199 15.3344 5.33203 14.9998 5.33203C14.6653 5.33203 14.3598 5.52194 14.2117 5.822L12.8664 8.54793L9.85805 8.98505C9.52699 9.03316 9.25189 9.26507 9.14853 9.58324C9.04511 9.90141 9.13136 10.2507 9.3709 10.4843L11.5478 12.6061ZM13.5764 10.221C13.8627 10.1794 14.1101 9.99961 14.2382 9.74016L14.9998 8.19684L15.7615 9.74016C15.8895 9.99956 16.137 10.1794 16.4233 10.221L18.1264 10.4685L16.894 11.6698C16.6869 11.8717 16.5924 12.1626 16.6413 12.4478L16.9322 14.1441L15.4088 13.3432C15.1528 13.2086 14.8469 13.2085 14.5909 13.3432L13.0675 14.1441L13.3584 12.4478C13.4072 12.1626 13.3127 11.8717 13.1056 11.6698L11.8731 10.4685L13.5764 10.221Z" fill="#00C24E"/>
</svg>
