<svg width="59" height="51" viewBox="0 0 59 51" fill="none" xmlns="http://www.w3.org/2000/svg">
<path d="M12.4258 35.5813V50.9927C12.4258 50.9927 -0.00378227 51.5969 -0.00378227 42.8199V42.5626C-0.00378227 42.502 -0.00378323 42.4413 0.0108051 42.3976C0.132378 40.8713 1.37243 35.5837 12.4234 35.5837L12.4258 35.5813Z" fill="#266DBB"/>
<path d="M41.1751 0H8.33015C3.72985 0 0 3.72241 0 8.31355V42.5603C0 42.4996 0 42.4389 0.0145874 42.3953C0.136158 40.8689 1.37621 35.5813 12.4271 35.5813H41.1751C51.02 35.5813 59 27.6172 59 17.7919C59 7.96412 51.02 0 41.1751 0Z" fill="#3590F3"/>
</svg>
