<svg width="580" height="150" viewBox="0 0 580 150" xmlns="http://www.w3.org/2000/svg"><defs><linearGradient x1="50%" y1="0%" x2="50%" y2="100%" id="a"><stop stop-color="#0299FE" offset="0%"/><stop stop-color="#896EFF" offset="100%"/></linearGradient></defs><g fill="none" fill-rule="evenodd"><path d="M60 0v30l.992.008C93.672 30.538 120 57.194 120 90s-26.328 59.462-59.008 59.992L60 150c-33.137 0-60-26.863-60-60h30c0-16.569-13.431-30-30-30V0l30 30L60 0zm0 60c-.328 0-.655.005-.98.016l-.502.02a30.288 30.288 0 00-2.87.277l-.254.038a29.94 29.94 0 00-.513.084l-.176.03-.359.067a29.916 29.916 0 00-.765.156l-.306.069a29.802 29.802 0 00-.451.107l-.293.073a29.741 29.741 0 00-1.624.466l-.3.097-.09.03a29.767 29.767 0 00-.739.256l-.065.024a29.8 29.8 0 00-1.17.455l-.139.058a29.827 29.827 0 00-2.315 1.09l-.227.12a29.924 29.924 0 00-.84.468l-.085.05c-.102.059-.204.118-.305.179l-.152.091a30.013 30.013 0 00-.865.544l-.057.038a30.057 30.057 0 00-2.292 1.664l-.152.123-.13.105-.156.13a30.162 30.162 0 00-2.608 2.444l-.128.136c-.168.18-.334.362-.498.546l-.138.155-.176.202-.09.104c-.164.193-.327.388-.487.585l-.124.154a30.143 30.143 0 00-.425.542l-.081.108-.082.108a30.227 30.227 0 00-1.081 1.538l-.019.029a30.023 30.023 0 00-1.138 1.884l-.124.226a29.955 29.955 0 00-.223.418l-.084.161a29.886 29.886 0 00-2.458 6.558 29.805 29.805 0 00-.39 1.837l-.009.047a29.908 29.908 0 00-.437 3.978l-.012.33-.012.489L30 90c0 16.403 13.164 29.731 29.504 29.996L60 120l.496-.004C76.836 119.731 90 106.403 90 90c0-16.239-12.902-29.464-29.015-29.984l-.489-.012L60 60zm0 15l.314.003C68.454 75.17 75 81.821 75 90c0 8.18-6.547 14.83-14.686 14.997L60 105c-8.284 0-15-6.716-15-15 0-8.284 6.716-15 15-15zM20.455 45c-.153 0-.305.006-.454.017a6.027 6.027 0 00-.456-.017v.07C16.966 45.465 15 47.521 15 50c0 2.478 1.966 4.534 4.546 4.93V55l.228-.004.226-.013c.15.011.302.017.455.017v-.07C23.034 54.535 25 52.479 25 50c0-2.478-1.966-4.534-4.546-4.93zm20 0c-.153 0-.305.006-.454.017a6.027 6.027 0 00-.456-.017v.07C36.966 45.465 35 47.521 35 50c0 2.478 1.966 4.534 4.546 4.93V55l.228-.004.226-.013c.15.011.302.017.455.017v-.07C43.034 54.535 45 52.479 45 50c0-2.478-1.966-4.534-4.546-4.93z" fill="url(#a)"/><path d="M166.08 130.2l6.48-19.2h33.96l6.72 19.2h15.96l-31.8-85.56h-16.32L150 130.2h16.08zm35.76-32.52H177l11.4-33.6.84-4.68.84 4.68 11.76 33.6zm42.08-43.92c3.52 0 6.14-.82 7.86-2.46 1.72-1.64 2.58-4.3 2.58-7.98 0-3.84-.88-6.52-2.64-8.04-1.76-1.52-4.36-2.28-7.8-2.28-3.44 0-6.04.76-7.8 2.28-1.76 1.52-2.64 4.2-2.64 8.04 0 3.92.8 6.64 2.4 8.16 1.6 1.52 4.28 2.28 8.04 2.28zm7.8 76.44v-69h-15.96v69h15.96zm26.96 0V93.24c0-5.92 1.24-10.74 3.72-14.46 2.48-3.72 6.28-5.58 11.4-5.58 3.6 0 6.42.78 8.46 2.34 2.04 1.56 3.46 3.66 4.26 6.3.48 1.36.82 2.78 1.02 4.26.2 1.48.3 3.02.3 4.62v39.48h15.6V91.08c0-5.2 1.12-9.48 3.36-12.84 2.24-3.36 5.92-5.04 11.04-5.04 5.28 0 9 1.66 11.16 4.98 2.16 3.32 3.24 7.7 3.24 13.14v38.88h15.72V87c0-8.56-2.06-15.28-6.18-20.16-4.12-4.88-10.22-7.32-18.3-7.32-5.6 0-10.28 1.3-14.04 3.9-3.76 2.6-6.52 6.1-8.28 10.5-1.52-4.48-4.04-8-7.56-10.56-3.52-2.56-8.24-3.84-14.16-3.84-5.44 0-9.98 1.3-13.62 3.9-3.64 2.6-6.38 6.06-8.22 10.38l-1.44-12.6h-13.2v69h15.72zm115.88 0V96.6h38.88V82.44h-38.88V58.68h41.28V44.64H379.2v85.56h15.36zm81.48 1.8c6.96 0 13.04-1.36 18.24-4.08 5.2-2.72 9.28-6.68 12.24-11.88 1.44-2.56 2.52-5.42 3.24-8.58.72-3.16 1.08-6.62 1.08-10.38v-1.8c0-7.6-1.48-14.06-4.44-19.38-2.96-5.32-7.08-9.38-12.36-12.18-2.56-1.44-5.34-2.5-8.34-3.18-3-.68-6.22-1.02-9.66-1.02-6.72 0-12.7 1.38-17.94 4.14-5.24 2.76-9.34 6.78-12.3 12.06-1.52 2.64-2.66 5.6-3.42 8.88-.76 3.28-1.14 6.84-1.14 10.68v1.8c0 11.2 3.02 19.82 9.06 25.86 6.04 6.04 14.62 9.06 25.74 9.06zm0-13.8c-5.84 0-10.42-1.86-13.74-5.58-3.32-3.72-4.98-8.98-4.98-15.78v-1.56c0-7.28 1.74-12.82 5.22-16.62 3.48-3.8 8.02-5.7 13.62-5.7 5.68 0 10.22 1.96 13.62 5.88 3.4 3.92 5.1 9.4 5.1 16.44v1.56c0 6.8-1.66 12.06-4.98 15.78-3.32 3.72-7.94 5.58-13.86 5.58zm51.04 12l17.28-24.72 17.16 24.72H580l-26.64-36.24 24.96-32.76h-18.24l-15.6 21.96-15.12-21.96h-18.48l24.6 32.88L508 130.2h19.08z" fill="#0A1753" fill-rule="nonzero"/></g></svg>