<svg xmlns="http://www.w3.org/2000/svg" width="190.742" height="63.759" viewBox="0 0 190.742 63.759"><g transform="translate(0 0)"><path d="M175.553,0H15.2c-.585,0-1.162,0-1.745,0-.488,0-.972.012-1.465.02A21.064,21.064,0,0,0,8.794.305a10.624,10.624,0,0,0-3.03,1,10.262,10.262,0,0,0-2.58,1.879A9.976,9.976,0,0,0,1.306,5.767,10.522,10.522,0,0,0,.31,8.8a20.71,20.71,0,0,0-.286,3.191c-.015.489-.016.979-.024,1.468V50.3c.008.495.009.974.024,1.469A20.71,20.71,0,0,0,.31,54.964a10.5,10.5,0,0,0,1,3.035,9.9,9.9,0,0,0,1.878,2.573,10,10,0,0,0,2.58,1.879,10.681,10.681,0,0,0,3.03,1.005,21.447,21.447,0,0,0,3.194.282c.493.011.977.017,1.465.017.583,0,1.16,0,1.745,0H175.553c.573,0,1.155,0,1.728,0,.486,0,.984-.006,1.469-.017a21.166,21.166,0,0,0,3.188-.282,10.846,10.846,0,0,0,3.042-1.005,10.006,10.006,0,0,0,2.578-1.879A10.194,10.194,0,0,0,189.441,58a10.528,10.528,0,0,0,.987-3.035,21.526,21.526,0,0,0,.3-3.191c.006-.5.006-.975.006-1.469.012-.579.012-1.155.012-1.743V15.2c0-.584,0-1.163-.012-1.74,0-.489,0-.979-.006-1.468a21.527,21.527,0,0,0-.3-3.191,10.549,10.549,0,0,0-.987-3.034A10.307,10.307,0,0,0,184.98,1.3a10.787,10.787,0,0,0-3.042-1A20.791,20.791,0,0,0,178.75.023c-.486-.008-.984-.017-1.47-.02-.573,0-1.155,0-1.728,0Z" transform="translate(0 0)" fill="#fff"/><path d="M12.942,61.845c-.486,0-.96-.006-1.441-.017a20.224,20.224,0,0,1-2.979-.26,9.379,9.379,0,0,1-2.641-.873,8.617,8.617,0,0,1-2.227-1.62,8.481,8.481,0,0,1-1.627-2.226,9.12,9.12,0,0,1-.866-2.642A19.787,19.787,0,0,1,.9,51.218c-.01-.336-.023-1.455-.023-1.455V12.94s.014-1.1.023-1.426A19.718,19.718,0,0,1,1.16,8.53a9.174,9.174,0,0,1,.866-2.649A8.565,8.565,0,0,1,3.645,3.653,8.871,8.871,0,0,1,5.88,2.023a9.282,9.282,0,0,1,2.635-.867A20.062,20.062,0,0,1,11.5.894L12.943.875H176.754L178.21.9a19.742,19.742,0,0,1,2.962.259,9.465,9.465,0,0,1,2.663.873,8.916,8.916,0,0,1,3.849,3.857,9.185,9.185,0,0,1,.853,2.628,20.709,20.709,0,0,1,.277,3.008c0,.451,0,.936,0,1.419.013.6.013,1.167.013,1.74v33.36c0,.579,0,1.144-.013,1.714,0,.518,0,.993-.006,1.482a20.289,20.289,0,0,1-.272,2.954,9.147,9.147,0,0,1-.861,2.662,8.735,8.735,0,0,1-1.619,2.209,8.627,8.627,0,0,1-2.231,1.63,9.343,9.343,0,0,1-2.659.876,19.994,19.994,0,0,1-2.979.26c-.467.011-.956.017-1.43.017l-1.728,0Z" transform="translate(0.519 0.52)" fill="none"/><g transform="translate(15.894 13.9)"><path d="M33.558,24.059a7.888,7.888,0,0,1,3.756-6.618A8.075,8.075,0,0,0,30.953,14c-2.677-.281-5.272,1.6-6.636,1.6-1.39,0-3.49-1.574-5.752-1.527a8.472,8.472,0,0,0-7.13,4.348c-3.083,5.337-.783,13.181,2.17,17.5,1.477,2.113,3.2,4.472,5.464,4.389,2.211-.092,3.037-1.41,5.705-1.41,2.644,0,3.419,1.41,5.724,1.357,2.372-.039,3.867-2.122,5.293-4.255a17.473,17.473,0,0,0,2.42-4.929A7.622,7.622,0,0,1,33.558,24.059Z" transform="translate(-9.972 -5.6)"/><path d="M23.966,14.284A7.767,7.767,0,0,0,25.742,8.72a7.9,7.9,0,0,0-5.113,2.645,7.39,7.39,0,0,0-1.823,5.358A6.534,6.534,0,0,0,23.966,14.284Z" transform="translate(-4.733 -8.72)"/><g transform="translate(38.982 14.586)"><path d="M46.98,32.522H39.435l-1.812,5.35h-3.2l7.146-19.794h3.32L52.04,37.872H48.79Zm-6.764-2.469H46.2L43.249,21.37h-.083Z" transform="translate(-34.427 -17.748)"/><path d="M60.225,28.716c0,4.485-2.4,7.366-6.023,7.366a4.892,4.892,0,0,1-4.541-2.525h-.069v7.148H46.631V21.5H49.5v2.4h.054a5.119,5.119,0,0,1,4.6-2.551C57.811,21.349,60.225,24.244,60.225,28.716Zm-3.045,0c0-2.922-1.51-4.843-3.814-4.843-2.263,0-3.786,1.961-3.786,4.843,0,2.908,1.522,4.855,3.786,4.855C55.671,33.571,57.181,31.664,57.181,28.716Z" transform="translate(-27.178 -15.807)"/><path d="M70.19,28.716c0,4.485-2.4,7.366-6.023,7.366a4.892,4.892,0,0,1-4.541-2.525h-.069v7.148H56.6V21.5h2.867v2.4h.054a5.119,5.119,0,0,1,4.6-2.551C67.776,21.349,70.19,24.244,70.19,28.716Zm-3.045,0c0-2.922-1.51-4.843-3.814-4.843-2.263,0-3.786,1.961-3.786,4.843,0,2.908,1.522,4.855,3.786,4.855,2.3,0,3.814-1.907,3.814-4.855Z" transform="translate(-21.259 -15.807)"/><path d="M72.84,32.48c.219,1.963,2.126,3.252,4.732,3.252,2.5,0,4.293-1.289,4.293-3.059,0-1.536-1.083-2.456-3.649-3.087l-2.565-.618c-3.635-.878-5.322-2.578-5.322-5.336,0-3.415,2.976-5.761,7.2-5.761,4.183,0,7.05,2.346,7.146,5.761h-2.99c-.179-1.975-1.812-3.168-4.2-3.168s-4.019,1.206-4.019,2.962c0,1.4,1.043,2.223,3.594,2.853l2.181.535c4.061.96,5.749,2.592,5.749,5.487,0,3.7-2.95,6.023-7.641,6.023-4.39,0-7.353-2.265-7.545-5.845Z" transform="translate(-13.412 -17.871)"/><path d="M85.237,19.3v3.415h2.744v2.346H85.237v7.956c0,1.236.549,1.812,1.756,1.812a9.256,9.256,0,0,0,.974-.069v2.332a8.134,8.134,0,0,1-1.645.137c-2.922,0-4.061-1.1-4.061-3.9V25.061h-2.1V22.715h2.1V19.3Z" transform="translate(-7.261 -17.022)"/><path d="M86.065,28.725c0-4.541,2.674-7.394,6.844-7.394s6.846,2.853,6.846,7.394-2.648,7.394-6.846,7.394S86.065,33.278,86.065,28.725Zm10.672,0c0-3.115-1.427-4.953-3.828-4.953s-3.826,1.852-3.826,4.953c0,3.127,1.426,4.952,3.826,4.952s3.828-1.824,3.828-4.952Z" transform="translate(-3.755 -15.816)"/><path d="M96.186,21.5h2.825v2.456h.069a3.442,3.442,0,0,1,3.471-2.607,4.568,4.568,0,0,1,1.015.111V24.23a4.141,4.141,0,0,0-1.331-.179,2.985,2.985,0,0,0-3.087,3.32v8.56H96.186Z" transform="translate(2.256 -15.807)"/><path d="M114.235,31.7c-.4,2.62-2.95,4.418-6.214,4.418-4.2,0-6.8-2.813-6.8-7.325s2.62-7.462,6.679-7.462c3.993,0,6.5,2.743,6.5,7.118v1.015H104.208v.179a3.759,3.759,0,0,0,3.882,4.088,3.265,3.265,0,0,0,3.333-2.03Zm-10.014-4.307h7.215a3.471,3.471,0,0,0-3.54-3.663,3.653,3.653,0,0,0-3.675,3.663Z" transform="translate(5.245 -15.816)"/></g></g></g><g transform="translate(56.859 13.449)"><path d="M39.106,8.735a4.208,4.208,0,0,1,4.475,4.726c0,3.039-1.642,4.785-4.475,4.785H35.671V8.735ZM37.148,16.9h1.793a2.99,2.99,0,0,0,3.137-3.421,3,3,0,0,0-3.137-3.4H37.148Z" transform="translate(-35.671 -8.266)"/><path d="M41.687,13.832a3.4,3.4,0,1,1,6.77,0,3.4,3.4,0,1,1-6.77,0Zm5.313,0c0-1.556-.7-2.466-1.926-2.466s-1.924.91-1.924,2.466.693,2.471,1.924,2.471S47,15.394,47,13.832Z" transform="translate(-32.107 -7.444)"/><path d="M54.545,17.372H53.076l-1.483-5.286H51.48L50,17.372H48.548l-1.978-7.178h1.437l1.286,5.477H49.4l1.476-5.477h1.359l1.476,5.477h.112l1.28-5.477h1.417Z" transform="translate(-29.197 -7.393)"/><path d="M53.854,10.249h1.364v1.14h.106a2.149,2.149,0,0,1,2.142-1.279,2.334,2.334,0,0,1,2.484,2.67v4.646H58.533V13.136c0-1.153-.5-1.727-1.549-1.727a1.646,1.646,0,0,0-1.714,1.819v4.2H53.854Z" transform="translate(-24.871 -7.447)"/><path d="M59.094,8.437H60.51v9.979H59.094Z" transform="translate(-21.758 -8.437)"/><path d="M61.224,13.832a3.4,3.4,0,1,1,6.771,0,3.4,3.4,0,1,1-6.771,0Zm5.313,0c0-1.556-.7-2.466-1.926-2.466s-1.924.91-1.924,2.466S63.38,16.3,64.611,16.3,66.536,15.394,66.536,13.832Z" transform="translate(-20.503 -7.445)"/><path d="M66.4,15.394c0-1.292.962-2.037,2.67-2.143l1.944-.112v-.62c0-.758-.5-1.186-1.469-1.186-.791,0-1.339.29-1.5.8H66.678c.145-1.233,1.3-2.024,2.933-2.024,1.8,0,2.814.9,2.814,2.412v4.9H71.061V16.415h-.112a2.415,2.415,0,0,1-2.156,1.127A2.168,2.168,0,0,1,66.4,15.394Zm4.614-.613v-.6l-1.753.112c-.988.066-1.437.4-1.437,1.035s.56,1.022,1.331,1.022a1.692,1.692,0,0,0,1.859-1.569Z" transform="translate(-17.418 -7.445)"/><path d="M71.348,14.825c0-2.268,1.166-3.7,2.979-3.7a2.365,2.365,0,0,1,2.2,1.259h.106V8.437h1.417v9.979H76.694V17.282h-.112a2.491,2.491,0,0,1-2.254,1.252C72.5,18.535,71.348,17.1,71.348,14.825Zm1.463,0c0,1.522.718,2.438,1.918,2.438s1.932-.929,1.932-2.432-.746-2.438-1.932-2.438-1.918.922-1.918,2.432Z" transform="translate(-14.479 -8.437)"/><path d="M79.236,13.832a3.4,3.4,0,1,1,6.77,0,3.4,3.4,0,1,1-6.77,0Zm5.313,0c0-1.556-.7-2.466-1.926-2.466s-1.924.91-1.924,2.466.693,2.471,1.924,2.471S84.549,15.394,84.549,13.832Z" transform="translate(-9.804 -7.444)"/><path d="M84.669,10.249h1.364v1.14h.106a2.149,2.149,0,0,1,2.142-1.279,2.334,2.334,0,0,1,2.484,2.67v4.646H89.349V13.136c0-1.153-.5-1.727-1.549-1.727a1.647,1.647,0,0,0-1.714,1.819v4.2H84.669Z" transform="translate(-6.567 -7.447)"/><path d="M94.468,9.074v1.82h1.555v1.193H94.468v3.691c0,.752.31,1.081,1.015,1.081a4.728,4.728,0,0,0,.54-.033v1.18a4.647,4.647,0,0,1-.771.072c-1.575,0-2.2-.554-2.2-1.938V12.087H91.911V10.893H93.05V9.074Z" transform="translate(-2.266 -8.059)"/><path d="M95.7,8.437h1.4v3.955h.112a2.209,2.209,0,0,1,2.189-1.286,2.364,2.364,0,0,1,2.472,2.676v4.634h-1.418V14.132c0-1.146-.534-1.727-1.535-1.727a1.677,1.677,0,0,0-1.807,1.82v4.192H95.7Z" transform="translate(-0.012 -8.437)"/><path d="M107.167,15.486a2.914,2.914,0,0,1-3.11,2.077,3.26,3.26,0,0,1-3.316-3.7,3.31,3.31,0,0,1,3.309-3.75c2,0,3.2,1.364,3.2,3.618v.494h-5.068V14.3a1.9,1.9,0,0,0,1.912,2.056,1.72,1.72,0,0,0,1.708-.87Zm-4.983-2.313h3.625a1.732,1.732,0,0,0-1.767-1.859,1.836,1.836,0,0,0-1.859,1.859Z" transform="translate(2.961 -7.445)"/></g></svg>