<svg xmlns="http://www.w3.org/2000/svg" width="56" height="56" viewBox="0 0 56 56"><g transform="translate(-198.333 -4356)"><rect width="56" height="56" rx="10" transform="translate(198.333 4356)" fill="#fff"/><g transform="translate(203.333 4361.635)"><circle cx="22.701" cy="22.701" r="22.701"/><g transform="translate(8.408 8.408)"><path d="M24.565,24.564a14.394,14.394,0,1,0-20.355,0A14.409,14.409,0,0,0,24.565,24.564ZM5.779,5.779A12.173,12.173,0,1,1,5.779,23,12.187,12.187,0,0,1,5.779,5.779Zm10.189,5.527a2.361,2.361,0,0,1,4.721,0,.678.678,0,1,1-1.357,0,1,1,0,0,0-2.008,0,.678.678,0,0,1-1.357,0ZM8.447,11.3a2.361,2.361,0,0,1,4.722,0,.678.678,0,0,1-1.357,0,1,1,0,0,0-2.009,0,.678.678,0,0,1-1.357,0Zm-.3,6.064a.814.814,0,1,1,1.5-.624A5.049,5.049,0,0,0,14.4,19.723a5.09,5.09,0,0,0,4.726-2.987.814.814,0,1,1,1.494.646,6.717,6.717,0,0,1-6.22,3.969A6.67,6.67,0,0,1,8.146,17.362Z" transform="translate(0 0)" fill="#fff"/></g></g></g></svg>