<svg xmlns="http://www.w3.org/2000/svg" width="49.693" height="49.693"><g transform="translate(-140 -37)"><circle data-name="Ellipse 52" cx="24.846" cy="24.846" r="24.846" transform="translate(140 37)"/><path data-name="Path 783" d="M176.089 73.088a15.754 15.754 0 1 0-22.279 0 15.771 15.771 0 0 0 22.279 0zm-20.561-20.561a13.324 13.324 0 1 1 0 18.844 13.34 13.34 0 0 1 0-18.844zm11.152 6.049a2.584 2.584 0 0 1 5.168 0 .743.743 0 1 1-1.485 0 1.1 1.1 0 0 0-2.2 0 .743.743 0 0 1-1.485 0zm-8.232-.008a2.584 2.584 0 0 1 5.168 0 .743.743 0 0 1-1.485 0 1.1 1.1 0 0 0-2.2 0 .743.743 0 0 1-1.485 0zm-.33 6.634a.891.891 0 1 1 1.645-.683 5.526 5.526 0 0 0 5.2 3.268 5.571 5.571 0 0 0 5.173-3.27.891.891 0 1 1 1.635.707 7.352 7.352 0 0 1-6.808 4.344 7.3 7.3 0 0 1-6.845-4.366z" fill="#fff"/></g></svg>