<?xml version="1.0" encoding="utf-8"?>
<!-- Generator: Adobe Illustrator 23.0.1, SVG Export Plug-In . SVG Version: 6.00 Build 0)  -->
<svg version="1.1" xmlns="http://www.w3.org/2000/svg" xmlns:xlink="http://www.w3.org/1999/xlink" x="0px" y="0px"
	 viewBox="0 0 508 70" style="enable-background:new 0 0 508 70;" xml:space="preserve">
<style type="text/css">
	.st0{enable-background:new    ;}
	.st1{fill-rule:evenodd;clip-rule:evenodd;fill:#2F455C;}
	.st2{fill-rule:evenodd;clip-rule:evenodd;fill:#75B823;}
	.st3{fill-rule:evenodd;clip-rule:evenodd;fill:#FFFFFF;}
</style>
<g id="Top_1_" class="st0">
	<g id="Top">
		<g>
			<path class="st1" d="M0.2,20.6h12.1V52h2.4V20.6h12.1v-2.2H0.2V20.6z M55.6,20.4c-2.7-1.5-5.6-2.2-8.9-2.2
				c-3.3,0-6.3,0.7-8.9,2.2c-2.7,1.5-4.7,3.5-6.3,6.1c-1.5,2.6-2.3,5.5-2.3,8.7c0,3.2,0.8,6.1,2.3,8.7c1.5,2.6,3.6,4.6,6.3,6.1
				c2.7,1.5,5.6,2.2,8.9,2.2c3.3,0,6.3-0.7,8.9-2.2c2.7-1.5,4.7-3.5,6.3-6.1c1.5-2.6,2.3-5.5,2.3-8.7c0-3.2-0.8-6.1-2.3-8.7
				C60.3,23.9,58.2,21.8,55.6,20.4z M59.7,42.8c-1.3,2.3-3.1,4-5.4,5.3C52,49.3,49.5,50,46.7,50c-2.8,0-5.4-0.6-7.7-1.9
				c-2.3-1.3-4.1-3-5.4-5.3c-1.3-2.3-2-4.8-2-7.6s0.7-5.3,2-7.6c1.3-2.3,3.1-4,5.4-5.3c2.3-1.3,4.8-1.9,7.7-1.9
				c2.8,0,5.4,0.6,7.6,1.9c2.3,1.3,4.1,3,5.4,5.3c1.3,2.3,2,4.8,2,7.6S61,40.5,59.7,42.8z M94.6,21.4c-2.4-2-5.7-3-9.9-3h-12V52h2.4
				V41h9.6c4.2,0,7.5-1,9.9-3c2.4-2,3.6-4.8,3.6-8.3C98.2,26.2,97,23.4,94.6,21.4z M92.9,36.4c-1.9,1.6-4.6,2.4-8.2,2.4h-9.6V20.6
				h9.6c3.6,0,6.3,0.8,8.2,2.4c1.9,1.6,2.8,3.8,2.8,6.7C95.7,32.6,94.8,34.9,92.9,36.4z"/>
		</g>
	</g>
</g>
<g id="Ellipse_2_1_" class="st0">
	<g id="Ellipse_2">
		<g>
			<circle class="st2" cx="150" cy="35" r="35"/>
		</g>
	</g>
</g>
<g id="_x35__1_" class="st0">
	<g id="_x35_">
		<g>
			<path class="st3" d="M139.7,18c-0.6,5.4-1.1,10.8-1.7,16.3c0.1,0,0.2-0.1,0.3-0.1c0.1,0,0.3-0.1,0.4-0.1l3.9-3.6l0.9-8.6h14V18
				H139.7z"/>
		</g>
	</g>
</g>
<g id="Shape_1_1_" class="st0">
	<g id="Shape_1">
		<g>
			<path class="st3" d="M138.7,46.6l0,6.3l6.3,0C145.1,49.5,142.2,46.7,138.7,46.6z M138.7,38.3l0,4.2c5.8,0,10.6,4.7,10.6,10.5
				l4.2,0C153.5,44.9,146.9,38.3,138.7,38.3z M138.7,29.9l0,4.2c10.5,0,19,8.5,19.1,18.9l4.2,0C161.9,40.3,151.5,30,138.7,29.9z"/>
		</g>
	</g>
</g>
<g id="Wifi_Boosters_1_" class="st0">
	<g id="Wifi_Boosters">
		<g>
			<path class="st1" d="M235.8,49.7l-10.9-31.3h-1.6l-10.9,31.2l-10.6-31.2h-1.7L211.5,52h1.7l10.9-31.3L235.1,52h1.6l11.5-33.6
				h-1.6L235.8,49.7z M255.2,17.4c-0.4,0-0.8,0.2-1.1,0.5c-0.3,0.3-0.5,0.7-0.5,1.1c0,0.4,0.2,0.8,0.5,1.1c0.3,0.3,0.7,0.5,1.1,0.5
				c0.4,0,0.8-0.2,1.1-0.5c0.3-0.3,0.5-0.7,0.5-1.1c0-0.4-0.2-0.8-0.5-1.1C256,17.6,255.6,17.4,255.2,17.4z M254.4,52h1.6V27.1h-1.6
				V52z M273.5,16.2c-2,0-3.6,0.6-4.7,1.7c-1.1,1.2-1.7,2.7-1.7,4.7v4.4h-4.7v1.4h4.7V52h1.6V28.5h8.2v-1.4h-8.2v-4.2
				c0-1.7,0.4-3,1.2-3.9c0.8-0.9,2-1.3,3.7-1.3c1.6,0,2.9,0.5,4,1.5l0.8-1.2c-0.6-0.5-1.3-1-2.2-1.2
				C275.4,16.4,274.5,16.2,273.5,16.2z M285.8,52h1.6V27.1h-1.6V52z M286.6,17.4c-0.4,0-0.8,0.2-1.1,0.5c-0.3,0.3-0.5,0.7-0.5,1.1
				c0,0.4,0.2,0.8,0.5,1.1c0.3,0.3,0.7,0.5,1.1,0.5c0.4,0,0.8-0.2,1.1-0.5c0.3-0.3,0.5-0.7,0.5-1.1c0-0.4-0.2-0.8-0.5-1.1
				C287.3,17.6,287,17.4,286.6,17.4z M329.9,34.7c1.9-0.5,3.4-1.5,4.5-2.8c1.1-1.3,1.6-3,1.6-5c0-2.8-1-4.9-3-6.3
				c-2-1.5-4.8-2.2-8.4-2.2H311V52h14.6c4.1,0,7.1-0.8,9.2-2.3c2-1.5,3.1-3.7,3.1-6.6c0-2.4-0.7-4.3-2-5.7
				C334.5,36.1,332.5,35.1,329.9,34.7z M312.6,19.8h12c3.1,0,5.5,0.6,7.2,1.8c1.7,1.2,2.5,3,2.5,5.4c0,2.3-0.8,4.1-2.5,5.4
				c-1.7,1.2-4.1,1.8-7.2,1.8h-12V19.8z M333.6,48.7c-1.8,1.2-4.4,1.8-7.9,1.8h-13.1V35.6h13.1c3.5,0,6.1,0.6,7.9,1.8
				c1.8,1.2,2.6,3.1,2.6,5.7C336.2,45.6,335.3,47.5,333.6,48.7z M361.9,28.5c-1.9-1.1-4-1.6-6.3-1.6c-2.3,0-4.4,0.5-6.3,1.6
				c-1.9,1.1-3.3,2.6-4.4,4.5c-1.1,1.9-1.6,4.1-1.6,6.5c0,2.4,0.5,4.6,1.6,6.5c1.1,1.9,2.5,3.4,4.4,4.5c1.9,1.1,4,1.6,6.3,1.6
				c2.3,0,4.4-0.5,6.3-1.6c1.9-1.1,3.3-2.6,4.4-4.5c1.1-1.9,1.6-4.1,1.6-6.5c0-2.4-0.5-4.6-1.6-6.5
				C365.2,31.1,363.7,29.6,361.9,28.5z M364.8,45.3c-0.9,1.7-2.2,3-3.8,4c-1.6,0.9-3.4,1.4-5.4,1.4s-3.8-0.5-5.4-1.4
				c-1.6-0.9-2.9-2.3-3.8-4c-0.9-1.7-1.4-3.6-1.4-5.8c0-2.2,0.5-4.1,1.4-5.8c0.9-1.7,2.2-3,3.8-3.9c1.6-0.9,3.4-1.4,5.4-1.4
				s3.8,0.5,5.4,1.4c1.6,0.9,2.9,2.3,3.8,3.9c0.9,1.7,1.4,3.6,1.4,5.8C366.2,41.7,365.8,43.6,364.8,45.3z M391.3,28.5
				c-1.9-1.1-4-1.6-6.3-1.6c-2.3,0-4.4,0.5-6.3,1.6c-1.9,1.1-3.3,2.6-4.4,4.5c-1.1,1.9-1.6,4.1-1.6,6.5c0,2.4,0.5,4.6,1.6,6.5
				c1.1,1.9,2.5,3.4,4.4,4.5c1.9,1.1,4,1.6,6.3,1.6c2.3,0,4.4-0.5,6.3-1.6c1.9-1.1,3.3-2.6,4.4-4.5c1.1-1.9,1.6-4.1,1.6-6.5
				c0-2.4-0.5-4.6-1.6-6.5C394.7,31.1,393.2,29.6,391.3,28.5z M394.3,45.3c-0.9,1.7-2.2,3-3.8,4c-1.6,0.9-3.4,1.4-5.4,1.4
				s-3.8-0.5-5.4-1.4c-1.6-0.9-2.9-2.3-3.8-4c-0.9-1.7-1.4-3.6-1.4-5.8c0-2.2,0.5-4.1,1.4-5.8c0.9-1.7,2.2-3,3.8-3.9
				c1.6-0.9,3.4-1.4,5.4-1.4s3.8,0.5,5.4,1.4c1.6,0.9,2.9,2.3,3.8,3.9c0.9,1.7,1.4,3.6,1.4,5.8C395.7,41.7,395.2,43.6,394.3,45.3z
				 M416.4,40.1c-1.2-0.4-2.7-0.8-4.7-1.1c-1.8-0.4-3.2-0.7-4.2-1c-1-0.3-1.9-0.9-2.6-1.6c-0.7-0.7-1.1-1.7-1.1-2.9
				c0-1.5,0.6-2.8,1.9-3.7c1.2-0.9,3.1-1.4,5.6-1.4c1.4,0,2.8,0.2,4.1,0.6c1.3,0.4,2.5,1,3.5,1.8l0.8-1.2c-1-0.8-2.2-1.4-3.7-1.8
				c-1.5-0.5-3.1-0.7-4.6-0.7c-3,0-5.2,0.6-6.8,1.9c-1.6,1.3-2.3,2.8-2.3,4.7c0,1.6,0.4,2.8,1.2,3.7c0.8,0.9,1.8,1.5,3,1.9
				c1.2,0.4,2.8,0.8,4.8,1.2c1.7,0.3,3.1,0.6,4.1,1c1,0.3,1.9,0.8,2.6,1.5c0.7,0.7,1,1.6,1,2.7c0,1.6-0.6,2.9-1.9,3.8
				c-1.3,0.9-3.3,1.4-6,1.4c-1.8,0-3.5-0.3-5.2-0.9c-1.6-0.6-2.9-1.4-4-2.3l-0.8,1.2c1,1,2.4,1.8,4.2,2.4c1.8,0.6,3.7,0.9,5.7,0.9
				c3.1,0,5.4-0.6,7.1-1.8c1.6-1.2,2.4-2.8,2.4-4.8c0-1.5-0.4-2.7-1.2-3.6C418.6,41.1,417.6,40.5,416.4,40.1z M434.6,50.8
				c-1.6,0-2.8-0.4-3.6-1.3c-0.8-0.9-1.2-2.2-1.2-3.9v-17h8.2v-1.4h-8.2v-5.5h-1.6v5.5h-4.7v1.4h4.7v17.3c0,2,0.6,3.5,1.7,4.7
				c1.1,1.1,2.7,1.7,4.7,1.7c1,0,1.9-0.2,2.8-0.5c0.9-0.3,1.6-0.7,2.2-1.3l-0.8-1.2C437.5,50.3,436.2,50.8,434.6,50.8z M460.3,28.5
				c-1.8-1.1-3.8-1.6-5.9-1.6c-2.2,0-4.2,0.5-6,1.6c-1.8,1.1-3.2,2.6-4.2,4.5s-1.5,4.1-1.5,6.5c0,2.4,0.5,4.6,1.6,6.5
				c1.1,1.9,2.6,3.4,4.5,4.5c1.9,1.1,4.1,1.6,6.5,1.6c1.9,0,3.6-0.4,5.2-1.1c1.6-0.7,3-1.7,4.1-3l-1-1.1c-0.9,1.2-2.1,2.1-3.6,2.8
				s-3,0.9-4.7,0.9c-2.1,0-4-0.5-5.6-1.4c-1.7-0.9-3-2.2-4-3.9c-1-1.7-1.5-3.6-1.5-5.7h21.8v-0.4c0-2.4-0.5-4.5-1.5-6.4
				C463.5,31,462.1,29.5,460.3,28.5z M444.3,38.5c0.1-1.9,0.6-3.7,1.5-5.2c0.9-1.6,2.1-2.8,3.6-3.6c1.5-0.9,3.2-1.3,5-1.3
				c1.9,0,3.5,0.4,5,1.3c1.5,0.9,2.7,2.1,3.6,3.6c0.9,1.6,1.4,3.3,1.6,5.2H444.3z M475.4,33.1v-6h-1.5V52h1.6V38.8
				c0-3.2,0.8-5.7,2.4-7.5s3.9-2.7,6.8-2.7h0.4v-1.6c-2.4,0-4.5,0.5-6.1,1.6C477.4,29.6,476.2,31.1,475.4,33.1z M506.6,42
				c-0.8-0.9-1.8-1.5-3-1.9c-1.2-0.4-2.7-0.8-4.7-1.1c-1.8-0.4-3.2-0.7-4.2-1c-1-0.3-1.9-0.9-2.6-1.6c-0.7-0.7-1.1-1.7-1.1-2.9
				c0-1.5,0.6-2.8,1.9-3.7c1.2-0.9,3.1-1.4,5.6-1.4c1.4,0,2.8,0.2,4.1,0.6c1.3,0.4,2.5,1,3.5,1.8l0.8-1.2c-1-0.8-2.2-1.4-3.7-1.8
				c-1.5-0.5-3.1-0.7-4.6-0.7c-3,0-5.2,0.6-6.8,1.9c-1.6,1.3-2.3,2.8-2.3,4.7c0,1.6,0.4,2.8,1.2,3.7c0.8,0.9,1.8,1.5,3,1.9
				c1.2,0.4,2.8,0.8,4.8,1.2c1.7,0.3,3.1,0.6,4.1,1c1,0.3,1.9,0.8,2.6,1.5c0.7,0.7,1,1.6,1,2.7c0,1.6-0.6,2.9-1.9,3.8
				c-1.3,0.9-3.3,1.4-6,1.4c-1.8,0-3.5-0.3-5.2-0.9c-1.6-0.6-2.9-1.4-4-2.3l-0.8,1.2c1,1,2.4,1.8,4.2,2.4c1.8,0.6,3.7,0.9,5.7,0.9
				c3.1,0,5.4-0.6,7.1-1.8c1.6-1.2,2.4-2.8,2.4-4.8C507.8,44,507.4,42.8,506.6,42z"/>
		</g>
	</g>
</g>
</svg>
