<svg width="196" height="34" fill="none" xmlns="http://www.w3.org/2000/svg"><path d="M0 .712v25.566h5.263V8.338h.072l6.266 17.94h4.333L22.2 8.16h.071v18.118h5.264V.712h-7.913l-5.658 17.58h-.071L7.913.713H0zM31.732 13.46c.072-1.194.37-2.185.895-2.973a6.096 6.096 0 012.006-1.898 8.432 8.432 0 012.72-1.002 14.995 14.995 0 013.08-.322c.931 0 1.874.071 2.829.215.955.119 1.826.37 2.614.751a5.086 5.086 0 011.933 1.612c.502.668.752 1.563.752 2.685v9.632c0 .835.048 1.635.143 2.399.096.764.263 1.337.502 1.719H44.05c-.096-.287-.18-.573-.251-.86a12.26 12.26 0 01-.108-.93 6.626 6.626 0 01-2.864 1.754c-1.098.334-2.22.501-3.366.501a9.095 9.095 0 01-2.47-.322 5.657 5.657 0 01-2.005-1.003 4.837 4.837 0 01-1.361-1.718c-.31-.693-.466-1.516-.466-2.471 0-1.05.18-1.91.538-2.578.381-.692.859-1.241 1.432-1.647a6.36 6.36 0 012.005-.895 19.662 19.662 0 012.291-.502 39.533 39.533 0 012.256-.286c.74-.072 1.397-.179 1.97-.322.572-.144 1.026-.346 1.36-.609.334-.286.49-.692.466-1.217 0-.55-.096-.979-.287-1.29a1.683 1.683 0 00-.716-.751 2.336 2.336 0 00-1.038-.358 6.804 6.804 0 00-1.254-.108c-1.002 0-1.79.215-2.363.645-.573.43-.907 1.146-1.002 2.148h-5.085zm11.745 3.759c-.215.19-.49.346-.824.465-.31.096-.656.18-1.038.25-.358.072-.74.132-1.146.18a21.28 21.28 0 00-1.218.179 10.04 10.04 0 00-1.145.286c-.358.12-.68.287-.967.502-.263.19-.477.441-.645.752-.167.31-.25.704-.25 1.181 0 .454.083.836.25 1.146.168.31.394.56.68.752.287.167.621.286 1.003.358a6.4 6.4 0 001.182.107c1.002 0 1.778-.167 2.327-.5.55-.335.955-.729 1.218-1.182.262-.478.417-.955.465-1.433a8.09 8.09 0 00.108-1.146V17.22zm17.66 4.691c-.788 0-1.444-.168-1.97-.502a4.153 4.153 0 01-1.288-1.289 5.967 5.967 0 01-.68-1.755 11.38 11.38 0 01-.18-2.005c0-.692.072-1.348.215-1.969a5.166 5.166 0 01.752-1.683 4.041 4.041 0 011.289-1.181c.525-.287 1.146-.43 1.862-.43.835 0 1.528.155 2.077.465.549.31.99.728 1.324 1.254.335.525.573 1.133.717 1.826.143.668.214 1.384.214 2.148 0 .668-.095 1.313-.286 1.934a4.828 4.828 0 01-.788 1.61 3.97 3.97 0 01-1.36 1.147c-.55.286-1.182.43-1.898.43zm9.166 3.186V7.766H65.47v2.47h-.071C64.778 9.163 64 8.4 63.07 7.946c-.907-.454-1.969-.68-3.186-.68-1.29 0-2.435.25-3.438.752a7.315 7.315 0 00-2.47 2.04c-.669.836-1.182 1.815-1.54 2.937a11.74 11.74 0 00-.501 3.437c0 1.265.143 2.47.43 3.616.31 1.122.787 2.113 1.432 2.972.644.836 1.468 1.504 2.47 2.006 1.003.477 2.196.716 3.58.716a7.644 7.644 0 003.188-.68 5.117 5.117 0 002.363-2.185h.071v2.435c.024 1.313-.298 2.399-.966 3.258-.645.86-1.683 1.29-3.115 1.29-.908 0-1.707-.192-2.4-.574-.692-.358-1.157-1.014-1.396-1.969h-5.049c.072 1.05.358 1.946.86 2.686a6.525 6.525 0 001.933 1.861 8.722 8.722 0 002.578 1.039c.955.239 1.886.358 2.793.358 2.125 0 3.82-.287 5.085-.86 1.265-.572 2.232-1.277 2.9-2.112.668-.812 1.098-1.695 1.289-2.65.215-.955.322-1.802.322-2.542zm9.321-20.195V.712H74.54v4.19h5.084zM74.54 7.766v18.512h5.084V7.766H74.54zm21.692 6.517h4.977c-.072-1.194-.358-2.22-.859-3.08a6.667 6.667 0 00-1.97-2.184 8.03 8.03 0 00-2.721-1.325 11.414 11.414 0 00-3.151-.43c-1.504 0-2.84.251-4.01.753a8.335 8.335 0 00-2.972 2.112c-.812.883-1.432 1.946-1.862 3.187-.406 1.217-.609 2.542-.609 3.974 0 1.385.227 2.662.68 3.832a8.928 8.928 0 001.898 2.971c.812.836 1.79 1.492 2.936 1.97 1.17.453 2.447.68 3.832.68 2.458 0 4.475-.644 6.05-1.933 1.576-1.29 2.531-3.163 2.865-5.622h-4.905c-.167 1.146-.585 2.065-1.253 2.757-.645.668-1.576 1.003-2.793 1.003-.788 0-1.456-.18-2.005-.537a4.24 4.24 0 01-1.325-1.361 6.891 6.891 0 01-.68-1.898 10.059 10.059 0 01-.215-2.04c0-.693.071-1.385.215-2.077a6.23 6.23 0 01.716-1.934 4.351 4.351 0 011.36-1.432c.55-.382 1.23-.573 2.041-.573 2.172 0 3.426 1.062 3.76 3.187zM114.691.712v25.566h5.622V15.715h10.706v-4.368h-10.706V5.439h12.353V.712h-17.975zm20.831 0v25.566h5.085V.712h-5.085zm26.454 25.566V7.766h-5.084v9.703c0 1.886-.311 3.247-.931 4.082-.621.812-1.623 1.218-3.008 1.218-1.217 0-2.065-.37-2.542-1.11-.478-.764-.716-1.91-.716-3.438V7.766h-5.085v11.386c0 1.146.096 2.196.287 3.151.215.931.573 1.73 1.074 2.4.501.644 1.182 1.145 2.041 1.503.883.358 2.005.537 3.366.537a7.4 7.4 0 003.151-.716c1.026-.477 1.861-1.253 2.506-2.327h.107v2.578h4.834zM172.28 7.766v-5.55h-5.084v5.55h-3.08v3.402h3.08v10.92c0 .931.155 1.683.465 2.256a3.362 3.362 0 001.253 1.325c.549.31 1.17.513 1.862.609a13.75 13.75 0 002.256.179c.501 0 1.015-.012 1.54-.036a12.114 12.114 0 001.432-.143v-3.939a7.086 7.086 0 01-.752.107 9.078 9.078 0 01-.823.036c-.86 0-1.433-.143-1.719-.43-.287-.286-.43-.859-.43-1.718v-9.166h3.724V7.766h-3.724zm18.604 7.269h-8.271c.023-.358.095-.764.214-1.218.144-.453.37-.883.681-1.289a3.9 3.9 0 011.289-1.002c.549-.287 1.229-.43 2.041-.43 1.241 0 2.16.334 2.757 1.002.62.669 1.05 1.648 1.289 2.937zm-8.271 3.222h13.355a13.06 13.06 0 00-.358-4.118 9.896 9.896 0 00-1.647-3.509 7.896 7.896 0 00-2.864-2.434c-1.17-.621-2.543-.931-4.118-.931-1.409 0-2.698.25-3.867.752a9.013 9.013 0 00-2.972 2.076c-.836.86-1.48 1.886-1.934 3.08-.453 1.193-.68 2.482-.68 3.867 0 1.432.215 2.745.645 3.938.453 1.194 1.086 2.22 1.897 3.08.812.859 1.803 1.527 2.972 2.005 1.17.453 2.483.68 3.939.68 2.1 0 3.891-.477 5.371-1.432 1.48-.955 2.578-2.542 3.294-4.762h-4.476c-.167.573-.62 1.122-1.36 1.647-.74.501-1.624.752-2.65.752-1.432 0-2.53-.37-3.294-1.11-.764-.74-1.182-1.934-1.253-3.58z" fill="#fff"/></svg>