<?xml version="1.0" encoding="UTF-8"?>
<svg width="94px" height="75px" viewBox="0 0 94 75" version="1.1" xmlns="http://www.w3.org/2000/svg" xmlns:xlink="http://www.w3.org/1999/xlink">
    <!-- Generator: Sketch 47 (45396) - http://www.bohemiancoding.com/sketch -->
    <title>Group 22</title>
    <desc>Created with Sketch.</desc>
    <defs></defs>
    <g id="Page-1" stroke="none" stroke-width="1" fill="none" fill-rule="evenodd" opacity="1">
        <g id="Desktop-Copy" transform="translate(-553.000000, -801.000000)" fill="#FFFFFF">
            <g id="Group-5" transform="translate(505.000000, 743.000000)">
                <g id="Group-22" transform="translate(48.697479, 58.277311)">
                    <g id="Group-17">
                        <g id="Group-14">
                            <g id="Group-24">
                                <path d="M12.3058072,29.0595897 C13.3832125,46.0458427 28.399307,59.5538556 46.7016807,59.5538556 C65.0021235,59.5538556 80.0201488,46.0458427 81.0956233,29.0595897 L12.3058072,29.0595897 Z M46.7016807,63.4663866 C25.5725663,63.4663866 8.38235294,47.1530889 8.38235294,27.1033243 C8.38235294,26.0234657 9.24736649,25.1470588 10.3131867,25.1470588 L83.0901746,25.1470588 C84.1579257,25.1470588 85.0210084,26.0234657 85.0210084,27.1033243 C85.0210084,47.1530889 67.830795,63.4663866 46.7016807,63.4663866 L46.7016807,63.4663866 Z" id="Fill-1"></path>
                                <path d="M55.6827731,19.1596639 C54.6876681,19.1596639 53.8865546,18.3602631 53.8865546,17.3752872 L53.8865546,7.77177167 C53.8865546,6.78679573 54.6876681,5.98739496 55.6827731,5.98739496 C56.6760819,5.98739496 57.4789916,6.78679573 57.4789916,7.77177167 L57.4789916,17.3752872 C57.4789916,18.3602631 56.6760819,19.1596639 55.6827731,19.1596639" id="Fill-3"></path>
                                <path d="M47.3004202,19.1596639 C46.3089076,19.1596639 45.5042017,18.3057513 45.5042017,17.253609 L45.5042017,1.9060549 C45.5042017,0.853912596 46.3089076,0 47.3004202,0 C48.293729,0 49.0966387,0.853912596 49.0966387,1.9060549 L49.0966387,17.253609 C49.0966387,18.3057513 48.293729,19.1596639 47.3004202,19.1596639" id="Fill-5"></path>
                                <path d="M37.7205882,19.1596639 C36.7290756,19.1596639 35.9243697,18.3602631 35.9243697,17.3752872 L35.9243697,7.77177167 C35.9243697,6.78679573 36.7290756,5.98739496 37.7205882,5.98739496 C38.7121008,5.98739496 39.5168067,6.78679573 39.5168067,7.77177167 L39.5168067,17.3752872 C39.5168067,18.3602631 38.7121008,19.1596639 37.7205882,19.1596639" id="Fill-7"></path>
                                <path d="M12.7426095,74.2436975 C11.6577647,74.2436975 10.7773109,73.442584 10.7773109,72.447479 C10.7773109,71.4541702 11.6577647,70.6512605 12.7426095,70.6512605 L81.8582308,70.6512605 C82.9450409,70.6512605 83.8235294,71.4541702 83.8235294,72.447479 C83.8235294,73.442584 82.9450409,74.2436975 81.8582308,74.2436975 L12.7426095,74.2436975 Z" id="Fill-9"></path>
                                <path d="M1.99559874,33.5234244 C0.893918067,33.5234244 -0.00019957983,32.6293067 -0.00019957983,31.5276261 C-0.00019957983,30.4259454 0.893918067,29.5318277 1.99559874,29.5318277 L9.69538866,29.5318277 C10.7970693,29.5318277 11.691187,30.4259454 11.691187,31.5276261 C11.691187,32.6293067 10.7970693,33.5234244 9.69538866,33.5234244 L1.99559874,33.5234244 Z" id="Fill-13"></path>
                                <path d="M83.4243697,33.5294118 C82.3226891,33.5294118 81.4285714,32.6352941 81.4285714,31.5336134 C81.4285714,30.4319328 82.3226891,29.5378151 83.4243697,29.5378151 L91.1241597,29.5378151 C92.2258403,29.5378151 93.119958,30.4319328 93.119958,31.5336134 C93.119958,32.6352941 92.2258403,33.5294118 91.1241597,33.5294118 L83.4243697,33.5294118 Z" id="Fill-13"></path>
                            </g>
                        </g>
                    </g>
                </g>
            </g>
        </g>
    </g>
</svg>
