<?xml version="1.0" encoding="UTF-8"?>
<svg width="133px" height="21px" viewBox="0 0 133 21" version="1.1" xmlns="http://www.w3.org/2000/svg" xmlns:xlink="http://www.w3.org/1999/xlink">
    <!-- Generator: Sketch 47 (45396) - http://www.bohemiancoding.com/sketch -->
    <title>Page 1</title>
    <desc>Created with Sketch.</desc>
    <defs>
        <polygon id="path-1" points="13.9902523 13.0917121 13.9902523 0.087964301 0.0884680034 0.087964301 0.0884680034 13.0917121 13.9902523 13.0917121"></polygon>
        <polygon id="path-3" points="21.3149969 20.6047967 4.72165113e-05 20.6047967 4.72165113e-05 0.0865249954 21.3149969 0.0865249954 21.3149969 20.6047967"></polygon>
    </defs>
    <g id="Page-1" stroke="none" stroke-width="1" fill="none" fill-rule="evenodd" opacity="1">
        <g id="Desktop-Copy" transform="translate(-865.000000, -826.000000)">
            <g id="Group-6" transform="translate(835.000000, 743.000000)">
                <g id="Page-1" transform="translate(30.336134, 83.025210)">
                    <path d="M31.439177,8.74735736 L38.0705786,8.74735736 C39.1757598,8.74735736 39.9863099,8.17981641 40.2812557,6.92671146 C40.502229,5.86283733 40.182888,5.10621708 38.2178941,5.10621708 L32.2497271,5.10621708 L31.439177,8.74735736 Z M29.9164445,15.6984461 L36.9408449,15.6984461 C38.4144722,15.6984461 39.1757598,14.7763815 39.421443,13.7125073 C39.7162314,12.3881946 39.0038917,11.6789957 37.3338437,11.6789957 L30.800495,11.6789957 L29.9164445,15.6984461 Z M28.172424,2.03261774 L41.3374891,2.03261774 C43.8915875,2.03261774 46.0286068,3.16739661 45.3408197,6.28841729 C45.0461886,7.58879206 44.0145079,9.17293731 42.2460921,9.66942201 L42.2460921,9.71669184 C44.2109285,10.0477321 44.8496106,11.9864011 44.4566118,13.807047 C43.9652453,16.0529698 42.2460921,18.9138549 36.9408449,18.9138549 L24.4391718,18.9138549 L28.172424,2.03261774 Z" id="Fill-1" fill="#FFFFFF"></path>
                    <polygon id="Fill-3" fill="#FFFFFF" points="50.1319735 2.03257229 54.4546451 2.03257229 50.7327249 18.9138095 46.4100533 18.9138095"></polygon>
                    <path d="M65.6360344,17.2115654 L65.5869292,17.2115654 C64.5801158,18.2754396 62.2712284,19.3868865 59.7413677,19.3868865 C57.5064528,19.3868865 54.2642524,18.5593615 55.0993551,14.8236816 L56.9905338,6.24102625 L61.3132054,6.24102625 L59.6921051,13.5704251 C59.2991064,15.3201663 60.0851039,16.1711747 62.0746503,16.1711747 C64.4079329,16.1711747 66.0044805,14.9182212 66.5203996,12.5776073 L67.9203692,6.24102625 L72.2431982,6.24102625 L69.4431017,18.9138852 L65.2675882,18.9138852 L65.6360344,17.2115654 Z" id="Fill-5" fill="#FFFFFF"></path>
                    <path d="M86.5314181,11.2298869 L86.5559707,11.1826171 C86.7034436,10.49675 86.2611823,8.36900178 83.0929544,8.36900178 C79.6788859,8.36900178 78.4016792,10.8750602 78.3525741,11.1826171 L78.3280215,11.2298869 L86.5314181,11.2298869 Z M89.8963815,15.1310112 C87.9806503,18.1335543 84.7138972,19.3868108 80.7595144,19.3868108 C75.5526349,19.3868108 72.5070126,17.3532991 73.5632459,12.577683 C74.6193219,7.80161234 78.5491521,5.76840373 83.7560316,5.76840373 C89.4542776,5.76840373 91.5909821,8.53444618 90.5349061,13.3105168 L90.4614058,13.688827 L77.7877072,13.688827 L77.7877072,13.7359453 C77.5176287,14.9417804 78.3771266,16.7859097 81.3245387,16.7859097 C83.0684018,16.7859097 84.4192662,16.2185203 85.2789215,15.1310112 L89.8963815,15.1310112 Z" id="Fill-7" fill="#FFFFFF"></path>
                    <path d="M104.711616,12.7430971 C103.827251,13.1214072 102.918491,13.2157954 102.058678,13.2868516 L99.5042648,13.4997174 C97.9569797,13.6177404 97.0974818,14.0196855 96.8517986,15.1546158 C96.6061153,16.2895462 97.563981,16.9278404 99.1850812,16.9278404 C101.371048,16.9278404 104.023514,15.9112361 104.490643,13.7833363 L104.711616,12.7430971 Z M94.174465,10.1185611 C95.549882,6.21743679 99.3816593,5.76837343 102.918491,5.76837343 C109.107946,5.76837343 110.016549,7.70689088 109.476077,10.0712913 L108.100818,16.360451 C107.855449,17.4717464 107.879844,18.275485 108.026845,18.9137792 L103.704646,18.9137792 C103.654911,18.4645643 103.630673,18.015501 103.704646,17.5661346 C101.91152,18.9848354 99.0867134,19.386932 97.1464296,19.386932 C93.7079659,19.386932 91.5467088,18.2283667 92.2094712,15.2727904 C92.8727058,12.1993426 95.8446704,11.537262 98.5218466,11.3716661 L103.188412,11.0644122 C104.514881,10.969721 105.005775,10.7570068 105.226906,9.740251 C105.472747,8.72364669 104.686906,8.22701049 102.181441,8.22701049 C100.339525,8.22701049 99.3571067,8.36897148 98.3499785,10.1185611 L94.174465,10.1185611 Z" id="Fill-9" fill="#FFFFFF"></path>
                    <path d="M114.616476,2.03257229 L118.938833,2.03257229 L118.36106,4.68059167 L114.038231,4.68059167 L114.616476,2.03257229 Z M113.694495,6.24110201 L118.017166,6.24110201 L115.217227,18.9138095 L110.894556,18.9138095 L113.694495,6.24110201 Z" id="Fill-11" fill="#FFFFFF"></path>
                    <g id="Group-15" transform="translate(118.513443, 5.822219)">
                        <mask id="mask-2" fill="white">
                            <use xlink:href="#path-1"></use>
                        </mask>
                        <g id="Clip-14"></g>
                        <path d="M2.88840712,0.418853095 L7.064078,0.418853095 L6.52360633,2.90142808 L6.5727115,2.90142808 C8.56210051,0.962607618 9.98693743,0.087964301 12.4431404,0.087964301 C12.9340347,0.087964301 13.5231394,0.111599215 13.990268,0.20613887 L13.1306128,4.10741471 C12.393563,3.89454898 11.6324329,3.72910458 10.821568,3.72910458 C7.87447072,3.72910458 6.15547493,5.17128884 5.61484588,7.63007741 L4.41113961,13.0917121 L0.0884680034,13.0917121 L2.88840712,0.418853095 Z" id="Fill-13" fill="#FFFFFF" mask="url(#mask-2)"></path>
                    </g>
                    <g id="Group-18" transform="translate(0.000000, 0.064996)">
                        <mask id="mask-4" fill="white">
                            <use xlink:href="#path-3"></use>
                        </mask>
                        <g id="Clip-17"></g>
                        <path d="M21.3149969,10.3455927 C21.3149969,16.0116087 16.5434537,20.6048118 10.6576008,20.6048118 C4.77159046,20.6048118 4.72165113e-05,16.0116087 4.72165113e-05,10.3455927 C4.72165113e-05,4.67972809 4.77159046,0.0865249954 10.6576008,0.0865249954 C16.5434537,0.0865249954 21.3149969,4.67972809 21.3149969,10.3455927" id="Fill-16" fill="#FFFFFF" mask="url(#mask-4)"></path>
                    </g>
                </g>
            </g>
        </g>
    </g>
</svg>
