<svg width="203" height="55" viewBox="0 0 203 55" fill="none" xmlns="http://www.w3.org/2000/svg"><g clip-path="url(#clip0)" fill-rule="evenodd" clip-rule="evenodd"><path d="M26.77 51.568c-8.685.319-17.369-3.752-22.468-11.495-7.887-11.815-4.62-27.94 7.17-35.762C16.253 1.118 21.67-.24 27.008.08c-4.541.16-9.162 1.596-13.225 4.31-11.791 7.903-15.058 23.948-7.17 35.762 4.62 7.025 12.269 11.016 20.156 11.416z" fill="#000"/><path d="M22.308 18.999c1.354-1.198 3.107-1.996 5.019-2.076l.16 3.433c-1.116.08-2.152.478-2.869 1.197l-2.31-2.554zm-2.629 5.587c.08-1.915.876-3.672 2.071-5.029l2.55 2.315c-.718.799-1.116 1.756-1.196 2.874l-3.425-.16z" fill="#D5DBE3"/><path d="M21.75 30.494c-1.195-1.358-1.992-3.114-2.071-5.03l3.425-.16c.08 1.118.478 2.156 1.195 2.875l-2.549 2.315z" fill="#FFD400"/><path d="M27.327 33.128c-1.912-.08-3.665-.878-5.02-2.076l2.311-2.554c.797.718 1.753 1.117 2.868 1.197l-.16 3.433zm5.895-2.076c-1.354 1.198-3.107 1.996-5.019 2.076l-.159-3.433c1.115-.08 2.151-.479 2.868-1.197l2.31 2.554z" fill="#D5DBE3"/><path d="M33.78 19.557c1.195 1.357 1.992 3.114 2.072 5.03l-3.346.159c-.08-1.117-.478-2.155-1.196-2.874l2.47-2.315z" fill="#FFD400"/><path d="M28.203 16.923c1.912.08 3.665.878 5.02 2.076l-2.31 2.554c-.798-.719-1.754-1.118-2.869-1.197l.16-3.433zm-15.376 7.344c.16-3.592 1.593-6.785 3.824-9.26l2.55 2.315c-1.753 1.916-2.789 4.39-2.948 7.105l-3.426-.16z" fill="#D5DBE3"/><path d="M16.651 35.044c-2.23-2.475-3.665-5.668-3.824-9.26l3.426-.16c.16 2.714 1.195 5.269 2.948 7.105l-2.55 2.315z" fill="#FFD400"/><path d="M27.008 39.993c-3.585-.16-6.772-1.597-9.241-3.832l2.31-2.554c1.912 1.756 4.382 2.794 7.09 2.953l-.159 3.433zm10.756-3.832c-2.47 2.235-5.657 3.672-9.242 3.832l-.16-3.433c2.71-.16 5.259-1.197 7.091-2.953l2.31 2.554z" fill="#D5DBE3"/><path d="M38.88 15.007c2.23 2.475 3.664 5.668 3.823 9.26l-3.425.16c-.16-2.714-1.196-5.269-2.948-7.105l2.55-2.315z" fill="#FFD400"/><path d="M27.168 13.49c-2.71.16-5.259 1.198-7.091 2.954l-2.31-2.554c2.47-2.235 5.656-3.672 9.241-3.832l.16 3.433zm1.354-3.432c3.585.16 6.772 1.597 9.242 3.832l-2.31 2.554c-1.913-1.756-4.383-2.794-7.091-2.953l.159-3.433zM13.146 8.78A21.393 21.393 0 0126.61 3.194l.16 3.433c-4.383.239-8.287 1.995-11.394 4.71l-2.23-2.555z" fill="#D5DBE3"/><path d="M11.552 39.673a21.478 21.478 0 01-5.577-13.49l3.426-.16c.24 4.39 1.992 8.302 4.7 11.415l-2.549 2.235z" fill="#FFD400"/><path d="M26.61 46.858a21.394 21.394 0 01-13.464-5.588l2.31-2.555a18.584 18.584 0 0011.393 4.71l-.24 3.433z" fill="#D5DBE3"/><path d="M43.978 10.377a21.478 21.478 0 015.577 13.49l-3.426.16c-.239-4.39-1.992-8.301-4.7-11.415l2.549-2.235z" fill="#FFD400"/><path d="M60.788 40.392c0 .08-.08.16-.08.24a.597.597 0 01-.318.08h-.797c-.08 0-.159-.08-.239-.08-.08-.08-.08-.16-.08-.24v-9.5c0-.718.24-1.356.718-1.835.478-.48 1.115-.719 1.832-.799h11.154c.717 0 1.354.24 1.832.799.478.479.718 1.117.797 1.836v9.499c0 .08 0 .16-.08.24-.159.08-.239.08-.398.08h-.797c-.159 0-.239-.08-.318-.08-.08-.08-.08-.16-.08-.24v-9.26c0-.399-.16-.639-.398-.958-.24-.24-.558-.399-.877-.399H62.063c-.398 0-.637.16-.876.4-.24.239-.398.558-.398.957v9.26zm-20.236-2.395v-7.184c0-.798.24-1.437.797-1.916.478-.479 1.115-.718 1.832-.718h11.234c.797 0 1.434.239 1.912.798.478.479.717 1.117.717 1.836v1.517c0 .718-.24 1.357-.717 1.836-.478.478-1.115.718-1.832.718H43.34c-.956 0-1.275.32-1.275.958v1.995c0 .4.16.64.398.958.24.24.558.4.877.4h10.835c.319 0 .637-.16.796-.4.24-.24.32-.479.32-.798v-.639c0-.08.079-.16.079-.239.08-.08.16-.08.239-.08h.797c.08 0 .159.08.239.08.08.08.08.16.08.24v.798c0 .718-.24 1.357-.718 1.836-.478.479-1.115.718-1.832.798H43.102c-.717 0-1.355-.24-1.833-.798-.478-.639-.717-1.198-.717-1.996zm1.514-4.47c.319-.16.797-.24 1.275-.24h10.595c.4 0 .797-.16 1.036-.399.24-.24.399-.558.399-.878v-1.038c0-.319-.08-.638-.319-.878s-.557-.399-1.035-.399H43.34c-.399 0-.717.16-.956.4-.24.239-.32.558-.32.877v2.555zm108.83 4.47v-7.184c0-.798.239-1.437.796-1.916.478-.479 1.116-.718 1.833-.718h11.233c.797 0 1.434.239 1.912.798.478.479.717 1.117.717 1.836v1.517c0 .718-.239 1.357-.717 1.836-.478.478-1.115.718-1.832.718h-10.995c-.956 0-1.274.32-1.274.958v1.995c0 .4.159.639.398.958.239.24.558.4.876.4h10.836c.318 0 .637-.16.796-.4.239-.24.319-.479.319-.798v-.639c0-.08.08-.16.08-.239.079-.08.159-.08.239-.08h.796c.08 0 .16.08.239.08.08.08.08.16.08.24v.798c0 .718-.239 1.357-.717 1.836-.478.479-1.115.718-1.832.798h-11.234c-.717 0-1.354-.24-1.832-.798-.478-.639-.717-1.198-.717-1.996zm1.513-4.47c.319-.16.797-.24 1.275-.24h10.596c.399 0 .797-.16 1.036-.399.239-.24.398-.558.398-.878v-1.038c0-.319-.079-.638-.318-.878s-.558-.399-1.036-.399h-10.596c-.399 0-.717.16-.956.4-.239.239-.319.558-.319.877v2.555h-.08zM203 40.232c0 .08-.08.16-.08.24-.079.08-.159.08-.239.08h-.796c-.08 0-.16-.08-.239-.08-.08-.08-.08-.16-.08-.24v-9.18c0-.399-.159-.638-.398-.958-.16-.16-.319-.24-.558-.319h-10.995c-.398 0-.637.16-.876.4-.239.239-.398.558-.398.877v9.26c0 .08-.08.16-.08.24-.08.08-.159.08-.239.08h-.797c-.079 0-.159-.08-.239-.08-.079-.08-.079-.16-.079-.24V24.826c0-.08.079-.16.079-.24.08-.08.16-.08.239-.08h.797c.08 0 .159.08.239.08.08.08.08.16.08.24V26.9c0 .4.159.639.398.878.239.24.478.32.717.4h11.074c.717 0 1.355.239 1.833.798.478.479.717 1.117.717 1.836l-.08 9.42zm-68.437-13.33c0 .398.16.638.399.877.239.24.557.4.876.4h13.146c.079 0 .159.08.239.08.079.08.079.159.079.239v.798c0 .16 0 .24-.079.24-.08.08-.16.08-.239.08h-13.146c-.398 0-.637.159-.876.399-.239.239-.399.558-.399.878v6.785c0 .399.16.638.399.958.239.24.557.399.876.399h10.676c.318 0 .637-.16.876-.4a1.32 1.32 0 00.398-.957v-.559c0-.08 0-.16.08-.24.08-.08.159-.08.319-.08h.797c.159 0 .239.08.318.08.08.08.08.16.08.24v.798c0 .719-.239 1.357-.797 1.836-.478.48-1.115.719-1.832.798h-11.154c-.717 0-1.355-.239-1.833-.798-.478-.479-.717-1.117-.717-1.836V24.826c0-.08.08-.16.08-.24.08-.08.159-.08.239-.08h.797c.079 0 .159.08.239.08.08.08.08.16.08.24V26.9h.079zm50.591 11.095c0 .718-.239 1.357-.717 1.836-.478.479-1.116.798-1.833.798h-11.153c-.717 0-1.355-.319-1.833-.798-.478-.479-.717-1.117-.797-1.836v-7.264c0-.718.239-1.357.797-1.836.478-.479 1.116-.718 1.833-.798h11.153c.717 0 1.355.24 1.833.798.478.479.717 1.118.717 1.836v.878c0 .08 0 .16-.08.24-.079.08-.159.08-.239.08h-.797c-.079 0-.159-.08-.239-.08-.079-.08-.079-.16-.079-.24v-.639c0-.319-.08-.638-.319-.878s-.558-.399-.956-.399h-10.676c-.398 0-.637.16-.876.4-.239.239-.399.558-.399.877v6.786c0 .399.16.638.399.957.239.24.558.4.876.4h10.676c.398 0 .637-.16.876-.4.239-.239.399-.558.399-.957v-.56c0-.079.079-.159.079-.239.08-.08.16-.08.239-.08h.797c.08 0 .16.08.239.08.08.08.08.16.08.24v.798z" fill="#000"/><path d="M79.59 40.392v5.268c0 .08-.079.16-.079.24-.08.08-.16.08-.239.08h-.797c-.08 0-.16-.08-.239-.08-.08-.08-.08-.16-.08-.24V30.733c0-.718.24-1.357.797-1.836.478-.479 1.116-.718 1.833-.798H91.94c.717 0 1.354.24 1.832.798.478.479.717 1.118.717 1.836v7.265c0 .718-.239 1.356-.717 1.835-.478.479-1.115.798-1.832.798H80.786c-.558 0-.877-.08-1.195-.24zm13.226-8.701v-.639c0-.32-.08-.638-.319-.878s-.557-.399-.956-.399H80.865c-.398 0-.637.16-.876.4-.239.239-.398.558-.398.877v6.785c0 .4.159.639.398.958.239.24.558.4.876.4h10.676c.399 0 .638-.16.877-.4.239-.24.398-.558.398-.958v-6.146zm37.923 6.306c0 .718-.239 1.357-.717 1.836-.478.479-1.115.798-1.832.798h-11.154c-.717 0-1.355-.319-1.833-.798-.478-.479-.717-1.117-.796-1.836v-7.264c0-.718.239-1.357.796-1.836.478-.479 1.116-.718 1.833-.798h11.154c.717 0 1.354.24 1.832.798.478.479.717 1.118.717 1.836v7.265zm-1.514-6.306v-.639c0-.32-.079-.638-.318-.878s-.558-.399-.956-.399h-10.676c-.399 0-.638.16-.877.4-.239.239-.398.558-.398.877v6.785c0 .4.159.639.398.958.239.24.558.4.877.4h10.676c.398 0 .637-.16.876-.4.239-.24.398-.558.398-.958v-6.146zm-31.23 8.541c0 .08-.08.16-.08.24-.08.08-.16.08-.24.08h-.796c-.08 0-.16-.08-.239-.08-.08-.08-.08-.16-.08-.24v-9.5c0-.717.24-1.356.718-1.835.477-.479 1.115-.718 1.832-.798h11.154c.717 0 1.354.24 1.832.798.478.479.717 1.118.797 1.836v.878c0 .08 0 .16-.08.24-.079.08-.159.08-.318.08h-.797c-.16 0-.239-.08-.319-.08-.08-.08-.08-.16-.08-.24v-.639c0-.399-.159-.638-.398-.957-.239-.24-.558-.4-.876-.4H99.349c-.398 0-.638.16-.877.4a1.324 1.324 0 00-.398.957v9.26h-.08zm3.027 11.176l-1.832 2.315h-1.275l1.832-2.315-1.832-2.395h1.275l1.832 2.395z" fill="#FFD400"/><path d="M202.761 49.891v-.16c0-.798-.558-1.037-2.071-1.037-1.674 0-2.152.24-2.152 1.197 0 .719.239 1.038.877 1.118.319.08 1.195.16 1.992.16.637 0 .717.159.717.718 0 .32-.08.479-.239.638-.16.16-.638.16-1.275.16-.558 0-.956-.08-1.036-.16-.159-.08-.318-.319-.318-.638v-.24h-.797v.24c0 .878.557 1.197 2.151 1.197 1.036 0 1.514-.08 1.832-.32.239-.159.399-.558.399-.957 0-.4-.08-.639-.239-.878-.239-.24-.558-.32-1.116-.4-1.513-.08-1.513-.08-1.752-.08-.319-.079-.478-.239-.478-.718 0-.558.159-.638 1.354-.638s1.275.08 1.354.718h.797v.08zm-9.003.639c0-1.118.239-1.357 1.514-1.357.797 0 1.115.08 1.275.399.079.16.079.32.159.958h-2.948zm2.948 1.277c0 .718-.159.798-1.434.798s-1.514-.24-1.514-1.596h3.745c0-.878 0-1.198-.16-1.437-.239-.719-.717-.878-2.151-.878-1.832 0-2.23.399-2.23 2.235 0 1.756.398 2.235 2.31 2.235 1.673 0 2.231-.32 2.231-1.197v-.16h-.797zm-5.019-3.033h-.717v4.31h.717v-4.31zm0-1.836h-.717v.718h.717v-.718zm-4.462 2.314c1.195 0 1.434.32 1.434 1.597 0 1.437-.239 1.756-1.434 1.756-1.195 0-1.434-.24-1.434-1.756 0-1.357.239-1.596 1.434-1.596zm2.231-.478h-.717v.558c-.319-.479-.717-.638-1.593-.638-.797 0-1.275.16-1.594.479-.398.319-.478.798-.478 1.836 0 .958.16 1.437.558 1.756.319.24.797.399 1.514.399.478 0 .876-.08 1.115-.16a.72.72 0 00.478-.479v.879c0 .798-.319 1.037-1.434 1.037-1.195 0-1.354-.16-1.354-.878h-.717c0 .48.079.639.159.878.239.4.797.559 1.912.559 1.036 0 1.593-.16 1.912-.559.159-.24.239-.559.239-1.117v-4.55zm-7.887.478c1.354 0 1.513.16 1.513 1.677 0 1.517-.159 1.676-1.513 1.676-1.355 0-1.514-.16-1.514-1.756 0-.878.08-1.277.319-1.437.239-.08.637-.16 1.195-.16zm0-.558c-1.912 0-2.311.399-2.311 2.155 0 1.197.16 1.676.558 1.996.319.24.797.319 1.753.319 1.912 0 2.23-.4 2.23-2.235.08-1.836-.318-2.235-2.23-2.235zm-3.585-1.756h-.718v6.146h.718v-6.146zm-4.303 2.314c1.355 0 1.514.16 1.514 1.677 0 1.517-.159 1.676-1.514 1.676-1.354 0-1.513-.16-1.513-1.756 0-.878.079-1.277.318-1.437.239-.08.638-.16 1.195-.16zm0-.558c-1.912 0-2.31.399-2.31 2.155 0 1.197.159 1.676.558 1.996.318.24.796.319 1.752.319 1.912 0 2.231-.4 2.231-2.235.08-1.836-.319-2.235-2.231-2.235zm-7.967.08v4.31h.797V50.45c0-.878.478-1.277 1.593-1.277.638 0 .956.08 1.116.319.079.16.159.32.159.798v2.794h.717V50.29c0-.559 0-.798-.159-.958-.239-.399-.797-.558-1.673-.558-.956 0-1.514.16-1.753.638v-.638h-.797zm-5.019-1.836h-.717v6.146h.717V50.69c0-.24 0-.638.08-.718.159-.479.557-.639 1.513-.639.638 0 .877.08 1.036.32.16.16.16.24.16.798v2.794h.717V50.45c0-.559 0-.719-.16-.958-.239-.479-.796-.639-1.832-.639-.956 0-1.434.16-1.594.639l.08-2.554zm-2.709 4.63c0 .957-.159 1.117-1.274 1.117-.638 0-1.036-.08-1.196-.16-.239-.16-.398-.718-.398-1.516 0-.719.08-1.198.239-1.357.159-.24.478-.32 1.116-.32 1.195 0 1.513.16 1.513.799v.08h.717c0-1.118-.478-1.437-2.151-1.437-.956 0-1.514.16-1.832.638-.239.32-.319.719-.319 1.597 0 1.836.398 2.235 2.231 2.235 1.673 0 2.231-.4 2.231-1.437v-.24h-.877zm-8.524-1.038c0-1.118.239-1.357 1.513-1.357.797 0 1.116.08 1.275.399.08.16.08.32.159.958h-2.947zm2.947 1.277c0 .718-.159.798-1.434.798-1.274 0-1.513-.24-1.513-1.596h3.744c0-.878 0-1.198-.159-1.437-.239-.719-.717-.878-2.151-.878-1.833 0-2.231.399-2.231 2.235 0 1.756.398 2.235 2.31 2.235 1.673 0 2.231-.32 2.231-1.197v-.16h-.797zm-4.86-3.033h-1.991v-1.038h-.717v1.038h-.717v.558h.717v2.635c0 .399 0 .479.079.638.16.4.558.559 1.434.559 1.036 0 1.514-.4 1.514-1.277v-.32h-.717v.24c0 .639-.159.798-.717.798-.637 0-.717-.16-.717-.638v-2.635h1.992v-.558h-.16zm-6.931 1.117v-.16c0-.798-.558-1.037-2.071-1.037-1.673 0-2.151.24-2.151 1.197 0 .719.239 1.038.876 1.118.319.08 1.195.16 1.992.16.637 0 .717.159.717.718 0 .32-.08.479-.239.638-.16.16-.638.16-1.275.16-.558 0-.956-.08-1.036-.16-.159-.08-.318-.319-.318-.638v-.24h-.797v.24c0 .878.558 1.197 2.151 1.197 1.036 0 1.514-.08 1.832-.32.239-.159.399-.558.399-.957 0-.4-.08-.639-.239-.878-.239-.24-.558-.32-1.116-.4-1.513-.08-1.513-.08-1.752-.08-.319-.079-.478-.239-.478-.718 0-.558.159-.638 1.354-.638s1.275.08 1.354.718h.797v.08zm-5.338 0v-.16c0-.798-.557-1.037-2.071-1.037-1.673 0-2.151.24-2.151 1.197 0 .719.239 1.038.876 1.118.319.08 1.195.16 1.992.16.637 0 .717.159.717.718 0 .32-.08.479-.239.638-.16.16-.638.16-1.275.16-.558 0-.956-.08-1.036-.16-.159-.08-.318-.319-.318-.638v-.24h-.797v.24c0 .878.558 1.197 2.151 1.197 1.036 0 1.514-.08 1.833-.32.239-.159.398-.558.398-.957 0-.4-.08-.639-.239-.878-.239-.24-.558-.32-1.116-.4-1.513-.08-1.513-.08-1.752-.08-.319-.079-.478-.239-.478-.718 0-.558.159-.638 1.354-.638s1.275.08 1.355.718h.796v.08zm-9.003.639c0-1.118.239-1.357 1.514-1.357.797 0 1.116.08 1.275.399.08.16.08.32.159.958h-2.948zm2.869 1.277c0 .718-.16.798-1.434.798-1.275 0-1.514-.24-1.514-1.596h3.744c0-.878 0-1.198-.159-1.437-.239-.719-.717-.878-2.151-.878-1.833 0-2.231.399-2.231 2.235 0 1.756.398 2.235 2.311 2.235 1.673 0 2.23-.32 2.23-1.197v-.16h-.796zm-5.498-.24c0 .958-.159 1.118-1.274 1.118-.638 0-1.036-.08-1.195-.16-.239-.16-.399-.718-.399-1.516 0-.719.08-1.198.239-1.357.16-.24.478-.32 1.116-.32 1.195 0 1.513.16 1.513.799v.08h.717c0-1.118-.478-1.437-2.151-1.437-.956 0-1.513.16-1.832.638-.239.32-.319.719-.319 1.597 0 1.836.399 2.235 2.231 2.235 1.673 0 2.231-.4 2.231-1.437v-.24h-.877zm-7.09-2.315c1.354 0 1.513.16 1.513 1.677 0 1.517-.159 1.676-1.513 1.676-1.355 0-1.514-.16-1.514-1.756 0-.878.08-1.277.319-1.437.159-.08.557-.16 1.195-.16zm0-.558c-1.912 0-2.311.399-2.311 2.155 0 1.197.16 1.676.558 1.996.319.24.797.319 1.753.319 1.912 0 2.23-.4 2.23-2.235 0-1.836-.318-2.235-2.23-2.235zm-6.852.08v4.31h.717V50.53c0-.4 0-.639.159-.799.16-.319.558-.479 1.116-.479.637 0 .876.16.876.64v.319h.717v-.32c0-.878-.478-1.197-1.434-1.197-.717 0-1.115.16-1.434.638l.08-.479h-.797v-.08zm-3.585.478c1.195 0 1.434.32 1.434 1.757 0 1.357-.239 1.676-1.434 1.676-1.195 0-1.514-.32-1.514-1.676.08-1.437.319-1.757 1.514-1.757zm-2.231-.478v6.146h.717v-2.395c.319.4.797.56 1.753.56 1.514 0 1.992-.56 1.992-2.156 0-.958-.16-1.517-.478-1.836-.239-.24-.877-.4-1.514-.4-.956 0-1.434.16-1.673.64v-.56h-.797zm-12.03.478c1.195 0 1.434.32 1.434 1.597 0 1.437-.24 1.756-1.434 1.756-1.195 0-1.434-.24-1.434-1.756 0-1.357.239-1.596 1.434-1.596zm2.23-.478h-.716v.558c-.32-.479-.717-.638-1.594-.638-.796 0-1.275.16-1.593.479-.398.319-.478.798-.478 1.836 0 .958.16 1.437.557 1.756.32.24.797.399 1.514.399.478 0 .877-.08 1.116-.16a.719.719 0 00.478-.479v.879c0 .798-.32 1.037-1.434 1.037-1.195 0-1.355-.16-1.355-.878h-.717c0 .48.08.639.16.878.238.4.796.559 1.912.559 1.035 0 1.593-.16 1.912-.559.159-.24.239-.559.239-1.117v-4.55zm-10.118 0v4.31h.797V50.45c0-.878.478-1.277 1.594-1.277.637 0 .956.08 1.115.319.08.16.16.32.16.798v2.794h.716V50.29c0-.559 0-.798-.159-.958-.239-.399-.797-.558-1.673-.558-.956 0-1.514.16-1.753.638v-.638h-.797zm-1.433 0h-.718v4.31h.718v-4.31zm0-1.836h-.718v.718h.718v-.718zm-5.18 1.836v4.31h.718V50.53c0-.4 0-.639.16-.799.159-.319.557-.479 1.115-.479.637 0 .876.16.876.64v.319h.717v-.32c0-.878-.478-1.197-1.434-1.197-.717 0-1.115.16-1.434.638l.08-.479h-.797v-.08zm-5.098 1.756c0-1.118.239-1.357 1.514-1.357.796 0 1.115.08 1.274.399.08.16.08.32.16.958H72.26zm2.948 1.277c0 .718-.16.798-1.434.798-1.275 0-1.514-.24-1.514-1.596h3.745c0-.878 0-1.198-.16-1.437-.239-.719-.717-.878-2.15-.878-1.833 0-2.232.399-2.232 2.235 0 1.756.399 2.235 2.31 2.235 1.674 0 2.231-.32 2.231-1.197v-.16h-.796zm-8.605-1.277c0-1.118.24-1.357 1.514-1.357.797 0 1.116.08 1.275.399.08.16.08.32.16.958h-2.949zm2.868 1.277c0 .718-.159.798-1.433.798-1.275 0-1.514-.24-1.514-1.596h3.744c0-.878 0-1.198-.16-1.437-.238-.719-.716-.878-2.15-.878-1.833 0-2.231.399-2.231 2.235 0 1.756.398 2.235 2.31 2.235 1.674 0 2.231-.32 2.231-1.197v-.16h-.797zm-9.4-3.033v4.31h.796V50.45c0-.878.478-1.277 1.593-1.277.638 0 .957.08 1.116.319.08.16.16.32.16.798v2.794h.716V50.29c0-.559 0-.798-.159-.958-.24-.399-.797-.558-1.673-.558-.956 0-1.514.16-1.753.638v-.638h-.797zm-1.435 0h-.717v4.31h.717v-4.31zm0-1.836h-.717v.718h.717v-.718zm-4.382 2.314c1.195 0 1.435.32 1.435 1.597 0 1.437-.24 1.756-1.434 1.756-1.196 0-1.435-.24-1.435-1.756 0-1.357.24-1.596 1.434-1.596zm2.231-.478h-.717v.558c-.318-.479-.717-.638-1.593-.638-.797 0-1.275.16-1.594.479-.398.319-.478.798-.478 1.836 0 .958.16 1.437.558 1.756.319.24.797.399 1.514.399.478 0 .876-.08 1.115-.16a.719.719 0 00.478-.479v.879c0 .798-.319 1.037-1.434 1.037-1.195 0-1.354-.16-1.354-.878h-.717c0 .48.08.639.16.878.238.4.796.559 1.911.559 1.036 0 1.594-.16 1.912-.559.16-.24.24-.559.24-1.117v-4.55zm-10.118 0v4.31h.797V50.45c0-.878.478-1.277 1.593-1.277.638 0 .956.08 1.116.319.08.16.159.32.159.798v2.794h.717V50.29c0-.559 0-.798-.16-.958-.238-.399-.796-.558-1.672-.558-.956 0-1.514.16-1.753.638v-.638h-.797zm-5.02 1.756c0-1.118.24-1.357 1.515-1.357.796 0 1.115.08 1.274.399.08.16.08.32.16.958h-2.948zm2.869 1.277c0 .718-.16.798-1.434.798-1.275 0-1.514-.24-1.514-1.596h3.745c0-.878 0-1.198-.16-1.437-.239-.639-.717-.878-2.071-.878-1.832 0-2.23.399-2.23 2.235 0 1.756.398 2.235 2.31 2.235 1.673 0 2.23-.32 2.23-1.197v-.16h-.876z" fill="#000"/></g><defs><clipPath id="clip0"><path fill="#fff" d="M0 0h203v55H0z"/></clipPath></defs></svg>