<?xml version="1.0" encoding="UTF-8" standalone="no"?>
<svg
   xmlns:dc="http://purl.org/dc/elements/1.1/"
   xmlns:cc="http://creativecommons.org/ns#"
   xmlns:rdf="http://www.w3.org/1999/02/22-rdf-syntax-ns#"
   xmlns:svg="http://www.w3.org/2000/svg"
   xmlns="http://www.w3.org/2000/svg"
   viewBox="0 0 359.46667 59.853333"
   height="59.853333"
   width="359.46667"
   xml:space="preserve"
   id="svg2"
   version="1.1"><metadata
     id="metadata8"><rdf:RDF><cc:Work
         rdf:about=""><dc:format>image/svg+xml</dc:format><dc:type
           rdf:resource="http://purl.org/dc/dcmitype/StillImage" /></cc:Work></rdf:RDF></metadata><defs
     id="defs6" /><g
     transform="matrix(1.3333333,0,0,-1.3333333,0,59.853333)"
     id="g10"><g
       transform="scale(0.1)"
       id="g12"><path
         id="path14"
         style="fill:#ffffff;fill-opacity:1;fill-rule:nonzero;stroke:none"
         d="m 2300.01,311.43 h 7.57 c -0.03,5.14 1.97,11.812 5.37,17.687 3.39,5.891 8.16,10.961 12.63,13.512 l 150.68,86.984 c 4.44,2.59 11.21,4.192 18,4.18 6.8,0.012 13.57,-1.59 18,-4.18 l 150.69,-86.984 c 4.46,-2.551 9.23,-7.621 12.63,-13.512 3.4,-5.875 5.39,-12.547 5.37,-17.687 V 137.445 c 0.02,-5.152 -1.97,-11.808 -5.37,-17.687 -3.4,-5.903 -8.17,-10.973 -12.63,-13.492 L 2512.26,19.2656 c -4.43,-2.6054 -11.2,-4.2226 -18,-4.1797 -6.79,-0.0429 -13.56,1.5743 -18,4.1797 l -150.68,87.0004 c -4.47,2.519 -9.24,7.589 -12.63,13.492 -3.4,5.879 -5.4,12.535 -5.37,17.687 V 311.43 h -7.57 -7.53 V 137.445 c 0.05,-8.699 2.96,-17.425 7.4,-25.234 4.52,-7.77 10.66,-14.6329 18.16,-19.0196 L 2468.72,6.19141 c 7.54,-4.3125 16.55,-6.175785 25.54,-6.19141 8.99,0.015625 18,1.87891 25.54,6.19141 l 150.71,86.99999 c 7.48,4.3867 13.62,11.2496 18.14,19.0196 4.44,7.809 7.37,16.535 7.4,25.234 V 311.43 c -0.03,8.703 -2.96,17.414 -7.4,25.222 -4.52,7.77 -10.66,14.649 -18.14,19.02 l -150.71,86.984 c -7.54,4.344 -16.55,6.192 -25.54,6.207 -8.99,-0.015 -18,-1.863 -25.54,-6.207 l -150.68,-86.984 c -7.5,-4.371 -13.64,-11.25 -18.16,-19.02 -4.44,-7.808 -7.35,-16.519 -7.4,-25.222 h 7.53" /><path
         id="path16"
         style="fill:#ffffff;fill-opacity:1;fill-rule:nonzero;stroke:none"
         d="m 2298.78,333.145 192.09,-110.29 2.51,4.36 -192.11,110.289" /><path
         id="path18"
         style="fill:#ffffff;fill-opacity:1;fill-rule:nonzero;stroke:none"
         d="m 2493.36,222.855 196.38,111.54 -2.49,4.371 -196.36,-111.551" /><path
         id="path20"
         style="fill:#ffffff;fill-opacity:1;fill-rule:nonzero;stroke:none"
         d="m 2489.63,0.152344 h 5.0195 V 225.03534 h -5.0195 z" /><path
         id="path22"
         style="fill:#ffffff;fill-opacity:1;fill-rule:nonzero;stroke:none"
         d="M 161.645,352.965 V 143.504 c 0,-6.406 -5.051,-11.457 -11.45,-11.457 -4.043,0 -7.07,1.691 -9.429,4.719 L 22.2266,315.582 V 143.16 c 0,-6.062 -5.0547,-11.113 -11.1133,-11.113 C 5.05078,132.047 0,137.098 0,143.16 v 209.805 c 0,6.058 5.05078,11.113 11.1133,11.113 4.039,0 7.4062,-2.359 9.0937,-4.715 l 119.211,-179.16 v 172.762 c 0,6.058 5.051,11.113 11.113,11.113 6.063,0 11.114,-5.055 11.114,-11.113" /><path
         id="path24"
         style="fill:#ffffff;fill-opacity:1;fill-rule:nonzero;stroke:none"
         d="m 264.727,272.813 c -29.297,0 -45.457,-18.856 -47.481,-48.829 h 90.586 c 0,24.246 -8.418,48.829 -43.105,48.829 z m 0,19.535 c 53.882,0 64.328,-42.77 64.328,-65.672 0,-9.766 0,-21.551 -13.473,-21.551 h -98.336 c 0,-33.34 19.195,-54.895 50.852,-54.895 19.531,0 30.98,7.415 40.41,14.485 2.019,1.348 3.367,2.019 6.062,2.019 5.387,0 9.766,-4.375 9.766,-9.765 0,-3.699 -1.684,-5.723 -3.707,-7.742 -5.047,-5.051 -22.563,-18.86 -52.531,-18.86 -44.793,0 -72.743,24.582 -72.743,81.153 0,51.867 25.598,80.828 69.372,80.828" /><path
         id="path26"
         style="fill:#ffffff;fill-opacity:1;fill-rule:nonzero;stroke:none"
         d="m 469.723,211.52 c 0,42.437 -17.852,61.293 -48.832,61.293 -30.985,0 -48.828,-18.856 -48.828,-61.293 0,-43.106 17.843,-61.622 48.828,-61.622 30.98,0 48.832,18.516 48.832,61.622 z m 21.886,0 c 0,-55.223 -26.941,-81.153 -70.718,-81.153 -43.446,0 -70.719,25.93 -70.719,81.153 0,55.234 27.273,80.828 70.719,80.828 43.777,0 70.718,-25.594 70.718,-80.828" /><path
         id="path28"
         style="fill:#ffffff;fill-opacity:1;fill-rule:nonzero;stroke:none"
         d="m 617.465,177.848 -70.379,131 V 143.16 c 0,-6.062 -5.055,-11.113 -11.113,-11.113 -6.067,0 -11.114,5.051 -11.114,11.113 v 209.805 c 0,6.058 5.047,11.113 11.114,11.113 5.047,0 8.418,-3.031 10.101,-6.402 l 81.492,-152.551 81.836,152.551 c 1.352,2.359 4.039,6.402 10.106,6.402 6.058,0 11.113,-5.055 11.113,-11.113 V 143.16 c 0,-6.062 -5.055,-11.113 -11.113,-11.113 -6.067,0 -11.113,5.051 -11.113,11.113 v 165.688 l -70.723,-131 c -2.356,-4.375 -6.063,-6.395 -10.106,-6.395 -3.363,0 -7.742,1.68 -10.101,6.395" /><path
         id="path30"
         style="fill:#ffffff;fill-opacity:1;fill-rule:nonzero;stroke:none"
         d="m 870.867,193.004 v 14.141 h -47.484 c -21.891,0 -37.039,-9.09 -37.039,-28.622 0,-17.511 12.125,-28.625 38.386,-28.625 23.575,0 46.137,14.485 46.137,43.106 z m -78.801,61.965 c -3.367,-3.707 -5.722,-4.719 -8.753,-4.719 -5.387,0 -9.766,4.383 -9.766,9.766 0,2.359 0.672,4.043 1.683,5.726 9.426,14.817 27.614,26.606 55.903,26.606 39.062,0 60.613,-22.899 60.613,-57.25 v -92.61 c 0,-5.722 -4.711,-10.441 -10.437,-10.441 -5.723,0 -10.442,4.719 -10.442,10.441 v 12.129 c -8.418,-15.832 -27.945,-24.25 -48.152,-24.25 -35.699,0 -58.262,17.168 -58.262,48.156 0,29.637 22.563,47.485 58.93,47.485 h 47.484 v 9.09 c 0,22.902 -15.152,37.043 -39.734,37.043 -17.852,0 -28.629,-5.387 -39.067,-17.172" /><path
         id="path32"
         style="fill:#ffffff;fill-opacity:1;fill-rule:nonzero;stroke:none"
         d="m 1158.87,232.742 v -89.914 c 0,-6.062 -4.71,-10.781 -10.77,-10.781 -6.06,0 -10.78,4.719 -10.78,10.781 v 85.531 c 0,26.61 -9.43,44.793 -42.1,44.793 -28.96,0 -42.09,-15.488 -42.09,-40.41 v -89.914 c 0,-6.062 -4.71,-10.781 -10.78,-10.781 -6.06,0 -10.77,4.719 -10.77,10.781 v 85.531 c 0,26.61 -8.42,44.793 -41.424,44.793 -31.316,0 -41.422,-18.859 -41.422,-47.144 v -83.18 c 0,-6.062 -4.714,-10.781 -10.773,-10.781 -6.063,0 -10.777,4.719 -10.777,10.781 v 136.727 c 0,6.058 4.714,10.773 10.777,10.773 6.059,0 10.773,-4.715 10.773,-10.773 v -10.778 c 5.723,12.453 21.891,23.571 43.782,23.571 27.614,0 45.464,-10.106 53.544,-23.571 8.42,13.129 23.24,23.571 49.16,23.571 51.87,0 63.65,-30.985 63.65,-59.606" /><path
         id="path34"
         style="fill:#ffffff;fill-opacity:1;fill-rule:nonzero;stroke:none"
         d="m 1352.11,345.219 c -35.35,0 -48.82,-17.512 -48.82,-36.707 0,-55.903 127.29,-31.992 127.29,-113.153 0,-42.089 -28.96,-65.332 -80.82,-65.332 -38.39,0 -67.02,19.532 -78.47,41.426 -1.34,2.695 -1.68,4.043 -1.68,6.063 0,6.054 4.71,10.773 10.78,10.773 4.03,0 7.4,-2.023 9.42,-5.391 10.78,-17.511 30.31,-31.992 59.95,-31.992 37.04,0 57.92,14.824 57.92,44.453 0,62.977 -127.29,33.34 -127.29,113.153 0,30.98 22.56,57.59 71.72,57.59 32,0 57.93,-13.473 72.07,-34.688 1.35,-2.023 2.02,-4.043 2.02,-6.402 0,-6.059 -4.71,-10.778 -10.78,-10.778 -3.02,0 -6.05,1.012 -8.75,4.379 -10.1,12.461 -26.26,26.606 -54.56,26.606" /><path
         id="path36"
         style="fill:#ffffff;fill-opacity:1;fill-rule:nonzero;stroke:none"
         d="m 1465,322.996 c 0,5.723 5.05,10.774 10.78,10.774 6.06,0 10.77,-5.051 10.77,-10.774 v -35.363 h 21.89 c 5.73,0 10.1,-4.379 10.1,-10.102 0,-5.726 -4.37,-10.101 -10.1,-10.101 h -21.89 v -92.95 c 0,-14.484 8.08,-22.226 19.53,-22.226 5.73,0 10.44,-4.375 10.44,-10.098 0,-5.734 -4.71,-10.109 -10.44,-10.109 -26.6,0 -41.08,17.851 -41.08,42.433 v 92.95 h -13.13 c -5.73,0 -10.11,4.375 -10.11,10.101 0,5.723 4.38,10.102 10.11,10.102 H 1465 v 35.363" /><path
         id="path38"
         style="fill:#ffffff;fill-opacity:1;fill-rule:nonzero;stroke:none"
         d="m 1563.66,279.555 v -87.899 c 0,-21.894 7.07,-40.75 41.08,-40.75 34.01,0 41.09,18.856 41.09,40.75 v 87.899 c 0,6.058 5.05,10.773 11.11,10.773 5.73,0 10.44,-4.715 10.44,-10.773 v -87.899 c 0,-31.992 -10.44,-61.289 -62.64,-61.289 -51.86,0 -62.64,29.297 -62.64,61.289 v 87.899 c 0,6.058 4.72,10.773 10.78,10.773 5.73,0 10.78,-4.715 10.78,-10.773" /><path
         id="path40"
         style="fill:#ffffff;fill-opacity:1;fill-rule:nonzero;stroke:none"
         d="m 1808.43,243.18 c 0,0 -12.8,29.633 -44.46,29.633 -30.64,0 -47.49,-19.868 -47.49,-61.293 0,-42.09 16.51,-61.622 47.49,-61.622 25.93,0 44.46,14.817 44.46,46.809 z m 0,27.277 v 93.285 c 0,6.059 4.7,10.778 10.77,10.778 6.06,0 10.78,-4.719 10.78,-10.778 V 196.707 c 0,-44.453 -27.62,-66.34 -66.01,-66.34 -43.44,0 -69.04,25.93 -69.04,81.153 0,55.234 24.25,80.828 67.7,80.828 21.55,0 38.05,-11.118 45.8,-21.891" /><path
         id="path42"
         style="fill:#ffffff;fill-opacity:1;fill-rule:nonzero;stroke:none"
         d="m 1887.77,142.828 c 0,-6.062 -4.71,-10.781 -10.77,-10.781 -6.06,0 -10.78,4.719 -10.78,10.781 v 136.727 c 0,6.058 4.72,10.773 10.78,10.773 6.06,0 10.77,-4.715 10.77,-10.773 z m -23.57,191.949 c 0,9.77 4.72,13.473 12.8,13.473 8.08,0 12.79,-3.703 12.79,-13.473 0,-8.082 -4.71,-12.793 -12.79,-12.793 -8.08,0 -12.8,4.711 -12.8,12.793" /><path
         id="path44"
         style="fill:#ffffff;fill-opacity:1;fill-rule:nonzero;stroke:none"
         d="m 2036.01,211.52 c 0,42.437 -17.86,61.293 -48.83,61.293 -30.99,0 -48.84,-18.856 -48.84,-61.293 0,-43.106 17.85,-61.622 48.84,-61.622 30.97,0 48.83,18.516 48.83,61.622 z m 21.88,0 c 0,-55.223 -26.93,-81.153 -70.71,-81.153 -43.45,0 -70.72,25.93 -70.72,81.153 0,55.234 27.27,80.828 70.72,80.828 43.78,0 70.71,-25.594 70.71,-80.828" /><path
         id="path46"
         style="fill:#ffffff;fill-opacity:1;fill-rule:nonzero;stroke:none"
         d="m 2103.96,251.262 c 0,-35.356 88.58,-22.227 88.58,-76.11 0,-30.644 -25.26,-44.453 -57.26,-44.453 -27.61,0 -48.82,13.137 -57.58,24.25 -1.68,2.352 -2.36,4.043 -2.36,6.395 0,5.39 4.38,9.765 9.77,9.765 2.02,0 4.71,-0.671 7.41,-3.367 10.44,-10.441 23.91,-16.496 42.76,-16.496 19.2,0 35.71,6.399 35.71,23.906 0,34.688 -88.58,20.879 -88.58,76.11 0,27.953 22.9,40.746 51.53,40.746 22.9,0 40.75,-7.742 51.19,-21.551 1,-1.344 2.35,-3.363 2.35,-6.398 0,-5.391 -4.37,-9.766 -9.77,-9.766 -1.67,0 -4.37,0.34 -7.07,3.031 -9.09,8.758 -19.19,14.145 -36.7,14.145 -15.16,0 -29.98,-4.715 -29.98,-20.207" /></g></g></svg>