<?xml version="1.0" encoding="utf-8"?>
<!-- Generator: Adobe Illustrator 16.0.0, SVG Export Plug-In . SVG Version: 6.00 Build 0)  -->
<!DOCTYPE svg PUBLIC "-//W3C//DTD SVG 1.1//EN" "http://www.w3.org/Graphics/SVG/1.1/DTD/svg11.dtd">
<svg version="1.1" id="Layer_1" xmlns="http://www.w3.org/2000/svg" xmlns:xlink="http://www.w3.org/1999/xlink" x="0px" y="0px"
	 width="269px" height="44px" viewBox="0 0 269 44" enable-background="new 0 0 269 44" xml:space="preserve">
<g id="Layer_x0020_1">
	<path fill="#FFFFFF" d="M229.975,12.892h0.792c0-0.504,0.216-1.152,0.505-1.8c0.359-0.576,0.791-1.08,1.295-1.368l15.049-8.712
		c0.432-0.288,1.152-0.432,1.801-0.432c0.647,0,1.367,0.144,1.799,0.432l15.049,8.712c0.432,0.288,0.936,0.792,1.297,1.368
		c0.359,0.576,0.504,1.224,0.504,1.8v17.425c0,0.504-0.217,1.152-0.504,1.8c-0.361,0.576-0.793,1.08-1.297,1.368l-15.049,8.712
		c-0.432,0.288-1.151,0.433-1.799,0.433c-0.648,0-1.369-0.145-1.801-0.433l-15.049-8.712c-0.432-0.288-0.936-0.792-1.295-1.368
		c-0.361-0.576-0.576-1.224-0.505-1.8V12.892h-1.512v17.425c0,0.863,0.288,1.729,0.72,2.52c0.432,0.793,1.08,1.44,1.801,1.873
		l15.048,8.711c0.72,0.433,1.656,0.648,2.521,0.648c0.863,0,1.8-0.216,2.52-0.648l15.049-8.711c0.72-0.433,1.367-1.152,1.8-1.873
		c0.433-0.72,0.72-1.512,0.72-2.304V12.748c-0.072-0.792-0.287-1.584-0.72-2.304c-0.433-0.792-1.08-1.44-1.8-1.872l-15.049-8.712
		c-0.72-0.432-1.656-0.648-2.52-0.648c-0.864,0-1.801,0.216-2.521,0.648l-15.048,8.712c-0.721,0.432-1.369,1.152-1.801,1.872
		c-0.432,0.792-0.72,1.656-0.72,2.521h0.72V12.892z"/>
	<polygon fill="#FFFFFF" points="229.902,10.66 249.127,21.748 249.344,21.316 230.119,10.228 	"/>
	<polygon fill="#FFFFFF" points="249.344,21.748 269,10.587 268.712,10.156 249.127,21.316 	"/>
	<polygon fill="#FFFFFF" points="248.983,43.996 249.487,43.996 249.487,21.532 248.983,21.532 	"/>
	<path fill="#FFFFFF" d="M16.201,8.715v20.953c0,0.648-0.504,1.152-1.152,1.152c-0.432,0-0.72-0.145-0.936-0.504L2.232,12.459
		v17.208c0,0.576-0.504,1.08-1.08,1.08c-0.576,0-1.08-0.504-1.08-1.08V8.715c0-0.576,0.504-1.08,1.08-1.08
		c0.432,0,0.72,0.216,0.936,0.504l11.953,17.929V8.788c0-0.576,0.504-1.08,1.08-1.08c0.576,0,1.08,0.504,1.08,1.08V8.715z"/>
	<path fill="#FFFFFF" d="M26.497,16.708c-2.952,0-4.536,1.872-4.752,4.896h9.072C30.817,19.156,29.953,16.708,26.497,16.708z
		 M26.497,14.764c5.4,0,6.408,4.248,6.408,6.552c0,1.008,0,2.161-1.368,2.161h-9.864c0,3.312,1.944,5.472,5.112,5.472
		c1.944,0,3.096-0.72,4.032-1.44c0.216-0.144,0.36-0.216,0.576-0.216c0.504,0,1.008,0.433,1.008,1.009
		c0,0.359-0.144,0.575-0.36,0.791c-0.504,0.504-2.232,1.873-5.256,1.873c-4.464,0-7.272-2.449-7.272-8.137
		c0-5.184,2.592-8.064,6.912-8.064H26.497z"/>
	<path fill="#FFFFFF" d="M46.945,22.828c0-4.248-1.8-6.12-4.896-6.12s-4.896,1.872-4.896,6.12c0,4.32,1.8,6.191,4.896,6.191
		S46.945,27.148,46.945,22.828z M49.105,22.828c0,5.544-2.664,8.137-7.056,8.137c-4.32,0-7.056-2.593-7.056-8.137
		c0-5.544,2.736-8.064,7.056-8.064C46.441,14.764,49.105,17.356,49.105,22.828z"/>
	<path fill="#FFFFFF" d="M61.778,26.212l-7.056-13.104v16.56c0,0.576-0.504,1.08-1.08,1.08s-1.08-0.504-1.08-1.08V8.715
		c0-0.576,0.504-1.08,1.08-1.08c0.504,0,0.864,0.288,1.008,0.648l8.136,15.264l8.208-15.264c0.144-0.216,0.432-0.648,1.008-0.648
		c0.576,0,1.08,0.504,1.08,1.08v20.953c0,0.576-0.504,1.08-1.08,1.08c-0.576,0-1.08-0.504-1.08-1.08v-16.56l-7.056,13.104
		c-0.216,0.433-0.576,0.647-1.008,0.647c-0.36,0-0.792-0.143-1.008-0.647H61.778z"/>
	<path fill="#FFFFFF" d="M87.123,24.7v-1.44h-4.752c-2.16,0-3.672,0.936-3.672,2.881c0,1.728,1.224,2.879,3.816,2.879
		C84.891,29.02,87.123,27.58,87.123,24.7z M79.274,18.508c-0.36,0.36-0.576,0.504-0.864,0.504c-0.504,0-1.008-0.432-1.008-1.008
		c0-0.216,0.072-0.432,0.144-0.576c0.936-1.512,2.736-2.664,5.616-2.664c3.888,0,6.048,2.304,6.048,5.76v9.289
		c0,0.576-0.504,1.08-1.008,1.08c-0.576,0-1.08-0.504-1.08-1.08v-1.225c-0.864,1.584-2.808,2.448-4.824,2.448
		c-3.6,0-5.832-1.728-5.832-4.824c0-2.952,2.232-4.752,5.904-4.752h4.752v-0.936c0-2.304-1.512-3.672-3.96-3.672
		c-1.8,0-2.88,0.504-3.888,1.729V18.508z"/>
	<path fill="#FFFFFF" d="M115.923,20.74v9c0,0.576-0.504,1.08-1.08,1.08c-0.576,0-1.08-0.504-1.08-1.08v-8.568
		c0-2.664-0.936-4.464-4.176-4.464c-2.88,0-4.176,1.584-4.176,4.032v9c0,0.576-0.504,1.08-1.08,1.08s-1.08-0.504-1.08-1.08v-8.568
		c0-2.664-0.864-4.464-4.176-4.464c-3.096,0-4.176,1.872-4.176,4.68v8.353c0,0.576-0.504,1.08-1.08,1.08
		c-0.576,0-1.08-0.504-1.08-1.08V16.06c0-0.576,0.504-1.08,1.08-1.08c0.576,0,1.08,0.504,1.08,1.08v1.08
		c0.576-1.224,2.16-2.376,4.392-2.376c2.736,0,4.536,1.008,5.328,2.376c0.864-1.296,2.304-2.376,4.896-2.376
		c5.184,0,6.336,3.096,6.336,5.976H115.923z"/>
	<path fill="#FFFFFF" d="M135.221,9.508c-3.529,0-4.897,1.728-4.897,3.672c0,5.616,12.745,3.168,12.745,11.305
		c0,4.176-2.881,6.552-8.064,6.552c-3.816,0-6.696-1.944-7.848-4.177c-0.144-0.287-0.144-0.432-0.144-0.575
		c0-0.576,0.504-1.08,1.08-1.08c0.432,0,0.72,0.216,0.936,0.504c1.08,1.728,3.024,3.168,5.976,3.168c3.672,0,5.76-1.512,5.76-4.464
		c0-6.264-12.744-3.312-12.744-11.304c0-3.096,2.232-5.76,7.201-5.76c3.168,0,5.76,1.368,7.199,3.456
		c0.145,0.216,0.217,0.432,0.217,0.648c0,0.576-0.504,1.08-1.08,1.08c-0.289,0-0.576-0.072-0.864-0.432
		c-1.009-1.224-2.593-2.664-5.472-2.664V9.508z"/>
	<path fill="#FFFFFF" d="M146.524,11.74c0-0.576,0.504-1.08,1.08-1.08c0.575,0,1.08,0.504,1.08,1.08v3.528h2.159
		c0.576,0,1.009,0.432,1.009,1.008c0,0.576-0.433,1.008-1.009,1.008h-2.159v9.289c0,1.439,0.792,2.232,1.944,2.232
		c0.576,0,1.08,0.432,1.08,1.008s-0.504,1.008-1.08,1.008c-2.664,0-4.104-1.801-4.104-4.248v-9.289h-1.296
		c-0.576,0-1.008-0.432-1.008-1.008c0-0.576,0.432-1.008,1.008-1.008h1.296V11.74z"/>
	<path fill="#FFFFFF" d="M156.389,16.06v8.784c0,2.16,0.72,4.104,4.104,4.104c3.385,0,4.104-1.872,4.104-4.104V16.06
		c0-0.576,0.505-1.08,1.08-1.08c0.576,0,1.08,0.504,1.08,1.08v8.784c0,3.168-1.08,6.121-6.265,6.121
		c-5.184,0-6.264-2.953-6.264-6.121V16.06c0-0.576,0.504-1.08,1.08-1.08S156.389,15.484,156.389,16.06z"/>
	<path fill="#FFFFFF" d="M180.869,19.66c0,0-1.296-2.952-4.464-2.952c-3.097,0-4.753,2.016-4.753,6.12
		c0,4.176,1.656,6.191,4.753,6.191c2.592,0,4.464-1.512,4.464-4.68V19.66z M180.869,16.924v-9.36c0-0.576,0.504-1.08,1.08-1.08
		s1.08,0.504,1.08,1.08v16.704c0,4.465-2.736,6.625-6.624,6.625c-4.32,0-6.912-2.592-6.912-8.137c0-5.544,2.448-8.064,6.769-8.064
		c2.16,0,3.815,1.08,4.607,2.16V16.924z"/>
	<path fill="#FFFFFF" d="M188.789,29.74c0,0.576-0.504,1.08-1.08,1.08s-1.08-0.504-1.08-1.08V16.06c0-0.576,0.504-1.08,1.08-1.08
		s1.08,0.504,1.08,1.08V29.74z M186.414,10.516c0-1.008,0.504-1.368,1.295-1.368c0.793,0,1.297,0.36,1.297,1.368
		c0,0.792-0.504,1.296-1.297,1.296C186.918,11.812,186.414,11.308,186.414,10.516z"/>
	<path fill="#FFFFFF" d="M203.622,22.828c0-4.248-1.8-6.12-4.896-6.12c-3.097,0-4.896,1.872-4.896,6.12
		c0,4.32,1.8,6.191,4.896,6.191C201.822,29.02,203.622,27.148,203.622,22.828z M205.782,22.828c0,5.544-2.664,8.137-7.056,8.137
		c-4.32,0-7.057-2.593-7.057-8.137c0-5.544,2.736-8.064,7.057-8.064C203.118,14.764,205.782,17.356,205.782,22.828z"/>
	<path fill="#FFFFFF" d="M210.391,18.868c0,3.528,8.855,2.232,8.855,7.632c0,3.096-2.52,4.465-5.76,4.465
		c-2.736,0-4.896-1.297-5.76-2.449c-0.145-0.215-0.217-0.432-0.217-0.647c0-0.504,0.432-1.009,1.008-1.009
		c0.217,0,0.504,0.072,0.721,0.361c1.08,1.08,2.376,1.655,4.248,1.655c1.943,0,3.6-0.647,3.6-2.376c0-3.456-8.855-2.088-8.855-7.632
		c0-2.808,2.304-4.104,5.184-4.104c2.305,0,4.104,0.792,5.112,2.16c0.072,0.144,0.216,0.36,0.216,0.648
		c0,0.504-0.432,1.008-1.008,1.008c-0.145,0-0.432,0-0.721-0.288c-0.936-0.864-1.943-1.44-3.672-1.44
		c-1.512,0-3.023,0.504-3.023,2.016H210.391z"/>
</g>
</svg>
