<svg xmlns="http://www.w3.org/2000/svg" width="255.275" height="299.762" viewBox="0 0.858 255.275 299.762"><path fill="#FFF" d="M78.389.858a8.821 8.821 0 0 0-4.19 1.088c-4.218 2.338-5.764 7.758-3.428 11.972l9.523 17.196C57.35 45.311 42.147 69.558 42.147 97.233v5.143c-4.406-5.07-10.884-8.272-18.121-8.272C10.767 94.104 0 104.87 0 118.129v74.008c0 13.259 10.767 24.026 24.026 24.026 7.237 0 13.715-3.202 18.121-8.272v10.367c0 13.977 11.437 25.413 25.413 25.413h6.449v32.923c0 13.259 10.767 24.026 24.026 24.026s24.026-10.767 24.026-24.026v-32.923h11.156v32.923c0 13.259 10.767 24.026 24.026 24.026s24.026-10.767 24.026-24.026v-32.923h6.449c13.977 0 25.413-11.437 25.413-25.413v-10.367c4.406 5.07 10.884 8.272 18.121 8.272 13.259 0 24.026-10.767 24.026-24.026v-74.008c0-13.259-10.767-24.026-24.026-24.026-7.237 0-13.715 3.202-18.121 8.272v-4.517c.002-.261 0-.469 0-.626 0-27.669-15.237-51.893-38.174-66.091l9.55-17.223c2.336-4.214.789-9.634-3.428-11.972a8.821 8.821 0 0 0-4.19-1.088c-3.115-.03-6.171 1.612-7.782 4.517l-9.986 18.04c-9.764-3.603-20.388-5.578-31.481-5.578-11.082 0-21.725 1.954-31.481 5.551L86.171 5.375C84.56 2.47 81.504.829 78.389.858z"/><path fill="#666" d="M24.026 100.362c-9.894 0-17.767 7.873-17.767 17.767v74.008c0 9.894 7.873 17.767 17.767 17.767s17.767-7.873 17.767-17.767v-74.008c.001-9.894-7.873-17.767-17.767-17.767zm207.224 0c-9.894 0-17.767 7.873-17.767 17.767v74.008c0 9.894 7.873 17.767 17.767 17.767 9.894 0 17.767-7.873 17.767-17.767v-74.008c0-9.894-7.873-17.767-17.767-17.767zM98.034 184.818c-9.894 0-17.767 7.873-17.767 17.767v74.008c0 9.894 7.873 17.767 17.767 17.767s17.767-7.873 17.767-17.767v-74.008c0-9.894-7.873-17.767-17.767-17.767zm59.207 0c-9.894 0-17.767 7.873-17.767 17.767v74.008c0 9.894 7.873 17.767 17.767 17.767 9.894 0 17.767-7.873 17.767-17.767v-74.008c0-9.894-7.873-17.767-17.767-17.767z"/><path fill="#666" d="M78.443 7.117c-.42.004-.811.113-1.197.327-1.267.702-1.684 2.158-.98 3.428l12.516 22.611c-24.08 12.53-40.346 36.341-40.378 63.669H206.87c-.033-27.328-16.298-51.139-40.378-63.669l12.516-22.611c.704-1.27.287-2.726-.98-3.428a2.476 2.476 0 0 0-1.197-.327 2.486 2.486 0 0 0-2.231 1.306l-12.679 22.856c-10.372-4.601-22.006-7.183-34.283-7.183s-23.911 2.582-34.283 7.183L80.675 8.423a2.485 2.485 0 0 0-2.232-1.306zm-30.038 96.292v114.849a19.113 19.113 0 0 0 19.155 19.155h120.155a19.113 19.113 0 0 0 19.155-19.155V103.409H48.405z"/><path fill="#FFF" d="M91.068 54.923c-3.617 0-6.612 2.994-6.612 6.612 0 3.617 2.994 6.612 6.612 6.612s6.612-2.994 6.612-6.612-2.994-6.612-6.612-6.612zm73.138 0c-3.617 0-6.612 2.994-6.612 6.612 0 3.617 2.994 6.612 6.612 6.612 3.617 0 6.612-2.994 6.612-6.612s-2.995-6.612-6.612-6.612z"/></svg>