<svg xmlns="http://www.w3.org/2000/svg" width="496.253" height="608.729"><path fill-rule="evenodd" clip-rule="evenodd" fill="#666" d="M273.809 52.973C313.806.257 369.41 0 369.41 0s8.27 49.562-31.463 97.306c-42.426 50.98-90.649 42.638-90.649 42.638s-9.055-40.094 26.511-86.971zm-21.424 121.689c20.577 0 58.764-28.284 108.471-28.284 85.562 0 119.222 60.883 119.222 60.883s-65.833 33.659-65.833 115.33c0 92.134 82.009 123.885 82.009 123.885s-57.328 161.358-134.761 161.358c-35.566 0-63.215-23.968-100.688-23.968-38.187 0-76.084 24.862-100.765 24.862C89.33 608.729 0 455.665 0 332.629c0-121.053 75.612-184.555 146.533-184.555 46.105 0 81.883 26.588 105.852 26.588z"/></svg>