<svg xmlns="http://www.w3.org/2000/svg" width="363.39" height="55.356" viewBox="22.419 1.61 363.39 55.356"><path fill="#666" d="M22.472 37.573h14.42c-2.736 13.301 10.387 12.837 10.244 5.372-.213-11.138-24.32-9.972-24.32-26.758 0-14.93 15.349-14.514 18.028-14.514S61.347-.106 59.021 18.87H45.744c2.364-10.433-9.077-10.547-9.566-4.319-.699 8.909 24.487 10.229 24.201 26.439-.285 16.21-14.594 15.973-18.353 15.973s-20.672.717-19.554-19.39zm168.672-.004h14.42c-2.736 13.301 10.387 12.837 10.244 5.372-.213-11.138-24.32-9.972-24.32-26.758 0-14.93 15.349-14.514 18.028-14.514s20.503-1.779 18.177 17.198h-13.278c2.364-10.433-9.077-10.547-9.566-4.319-.699 8.909 24.487 10.228 24.201 26.438-.286 16.21-14.594 15.973-18.353 15.973-3.759-.001-20.672.717-19.553-19.39zM77.867 3.023l-9.28 52.496H82.65l7.317-47.108 6.871 47.108h13.83l-9.387-52.496H77.867zm44.315 0l-1.125 52.496h13.25l.375-46.111 8.75 46.111h13l8.625-46.611.875 46.611h13.125l-1.625-52.496h-20.75l-6.625 41.51-6.625-41.51h-21.25zm117.75 0v38.885c0 8.64 7.474 15.025 19.25 15.025s18.375-6.238 18.375-15.025V3.023h-14v38.885c0 4.217-2.007 5.875-4.5 5.875s-4.75-1.57-4.75-5.875V3.023h-14.375zm51.5 0v52.496h12.625l-.5-43.236 13.75 43.236h18.25V3.023h-13l.5 41.385-12.25-41.385h-19.375zm94.125 38.885v-16.25h-18.875v7.625h5.625v8.625c0 3.108-1.797 4.875-5.125 4.875s-4.875-1.577-4.875-4.875v-24.75c0-3.478 1.106-6.125 5-6.125s5 2.416 5 8.5h13.5c.167-16.51-10.431-17.923-18.625-17.923s-18.5 3.243-18.5 15.548v24.75c0 8.338 6.236 13.611 18.75 13.611s18.125-3.931 18.125-13.611z"/></svg>