<svg width="211" height="40" viewBox="0 0 211 40" fill="none" xmlns="http://www.w3.org/2000/svg">
<g clip-path="url(#clip0_2029_1630)">
<path d="M174.753 26.3146C173.461 26.3146 172.41 25.8329 171.605 24.864C170.795 23.895 170.396 22.6141 170.396 21.0266C170.396 19.439 170.795 18.2019 171.605 17.2329C172.41 16.2366 173.461 15.7385 174.753 15.7385C176.581 15.7385 178.01 16.4939 179.034 17.9993L184.24 14.9721C183.298 13.3298 181.979 12.0653 180.282 11.1785C178.585 10.2643 176.647 9.80444 174.468 9.80444C172.29 9.80444 170.259 10.2752 168.534 11.2168C166.843 12.131 165.524 13.4503 164.582 15.1746C163.64 16.8662 163.17 18.8314 163.17 21.0704C163.17 23.3093 163.629 25.2143 164.544 26.884C165.485 28.5536 166.805 29.8455 168.502 30.7597C170.193 31.6739 172.158 32.1282 174.392 32.1282C176.625 32.1282 178.722 31.6684 180.446 30.7597C182.171 29.8455 183.463 28.5536 184.322 26.884L179.034 23.8567C178.174 25.499 176.746 26.3201 174.753 26.3201V26.3146Z" fill="#EE0074"/>
<path d="M150.19 9.80444C147.929 9.80444 145.937 10.2752 144.218 11.2168C142.494 12.131 141.163 13.4503 140.222 15.1746C139.28 16.8662 138.809 18.8314 138.809 21.0704C138.809 23.3093 139.264 25.2143 140.178 26.884C141.12 28.5536 142.466 29.8455 144.218 30.7597C145.97 31.6739 148.012 32.1282 150.355 32.1282C152.369 32.1282 154.176 31.8053 155.763 31.1593C157.378 30.486 158.752 29.517 159.88 28.2525L156.124 24.4972C155.396 25.2253 154.592 25.7782 153.699 26.1504C152.84 26.5281 151.937 26.7143 150.995 26.7143C149.758 26.7143 148.707 26.3913 147.847 25.7453C146.988 25.072 146.38 24.1195 146.03 22.8823H161.204C161.232 22.5867 161.243 22.1542 161.243 21.5904C161.243 17.9282 160.285 15.0487 158.38 12.9521C156.469 10.85 153.738 9.80444 150.185 9.80444H150.19ZM145.871 19.0504C146.112 17.7585 146.61 16.7348 147.366 15.9793C148.148 15.2239 149.101 14.8517 150.229 14.8517C151.438 14.8517 152.407 15.2403 153.135 16.0231C153.891 16.7786 154.269 17.7858 154.269 19.0504H145.871Z" fill="#EE0074"/>
<path d="M140.227 3.59131H115.971V9.68957H124.368V31.8875H131.753V9.6841H140.227V3.59131Z" fill="#EE0074"/>
<path d="M208.031 12.0269C206.602 10.5215 204.681 9.7661 202.261 9.7661C200.673 9.7661 199.261 10.0891 198.024 10.735C196.814 11.381 195.818 12.3335 195.04 13.598V1.93799H187.858V31.8874H195.04V21.1086C195.04 19.658 195.418 18.4865 196.168 17.5997C196.951 16.6855 197.996 16.2147 199.316 16.1873C200.471 16.1873 201.374 16.5486 202.02 17.2767C202.693 17.9774 203.027 18.9463 203.027 20.1835V31.8874H210.209V18.1252C210.209 15.5688 209.481 13.5378 208.031 12.0269Z" fill="#EE0074"/>
<path d="M66.5335 10.0508H59.3896V31.8874H66.5335V10.0508Z" fill="white"/>
<path d="M94.6983 9.8042C92.4374 9.8042 90.4448 10.275 88.7259 11.2165C87.007 12.1307 85.6713 13.45 84.7297 15.1744C83.7882 16.8659 83.3174 18.8312 83.3174 21.0701C83.3174 23.3091 83.7772 25.2141 84.6914 26.8837C85.633 28.5533 86.9796 29.8453 88.7259 30.7594C90.4776 31.6736 92.5195 32.128 94.8625 32.128C96.8825 32.128 98.6835 31.805 100.271 31.1591C101.886 30.4857 103.26 29.5168 104.388 28.2523L100.632 24.497C99.9097 25.225 99.0995 25.7779 98.2127 26.1502C97.3532 26.5279 96.45 26.714 95.5084 26.714C94.2713 26.714 93.2202 26.391 92.3608 25.7451C91.5013 25.0718 90.8937 24.1192 90.5433 22.8821H105.723C105.751 22.5865 105.762 22.154 105.762 21.5902C105.762 17.9279 104.809 15.0485 102.899 12.9519C100.988 10.8498 98.2565 9.8042 94.7092 9.8042H94.6983ZM90.3736 19.0501C90.6145 17.7582 91.1127 16.7345 91.8681 15.9791C92.6509 15.2237 93.6034 14.8514 94.7366 14.8514C95.9464 14.8514 96.9153 15.2401 97.6434 16.0229C98.3988 16.7783 98.7711 17.7856 98.7711 19.0501H90.3736Z" fill="white"/>
<path d="M46.9797 12.711C46.2571 11.7694 45.3375 11.0578 44.2372 10.5706C43.1587 10.0615 41.9489 9.8042 40.6023 9.8042C38.8232 9.8042 37.2357 10.2367 35.8397 11.0961C34.4383 11.9556 33.349 13.1654 32.5716 14.731C31.8162 16.2911 31.4385 18.0921 31.4385 20.1395C31.4385 22.1868 31.8271 24.0535 32.61 25.6684C33.4201 27.256 34.5205 28.4931 35.9219 29.3854C37.3506 30.2449 38.96 30.6773 40.7665 30.6773C43.4544 30.6773 45.5291 29.7194 46.9797 27.8089V30.1518C46.9797 31.4437 46.509 32.4674 45.5674 33.2228C44.6258 33.9783 43.3503 34.3505 41.7355 34.3505C40.553 34.3505 39.3815 34.1644 38.221 33.7867C37.066 33.409 35.9875 32.8834 34.9912 32.2101L32.4895 37.1752C33.7814 38.0347 35.2759 38.7189 36.9674 39.2335C38.6644 39.7426 40.4271 39.9999 42.2555 39.9999C44.5985 39.9999 46.6513 39.5839 48.4304 38.7518C50.2314 37.9416 51.6328 36.7756 52.6291 35.2428C53.6254 33.7374 54.1236 31.9747 54.1236 29.9547V10.0505H46.9797V12.711ZM45.7699 24.0152C44.9598 24.9568 43.8978 25.4276 42.584 25.4276C41.2701 25.4276 40.1863 24.9568 39.3542 24.0152C38.544 23.0737 38.1444 21.8474 38.1444 20.342C38.1444 18.8366 38.544 17.6104 39.3542 16.6689C40.1863 15.6999 41.2647 15.2182 42.584 15.2182C43.9032 15.2182 44.9652 15.689 45.7699 16.6305C46.5746 17.5721 46.9797 18.8093 46.9797 20.342C46.9797 21.8748 46.5746 23.0737 45.7699 24.0152Z" fill="white"/>
<path d="M12.1473 3.59106L0 31.8872H7.58725L9.56343 26.8838H21.7928L23.7307 31.8872H31.6026L19.7345 3.59106H12.1473ZM11.786 21.2289L15.7438 11.14L19.6195 21.2289H11.7914H11.786Z" fill="white"/>
<path d="M79.387 1.93799H72.2048V31.8874H79.387V1.93799Z" fill="white"/>
<path d="M62.9041 0C61.7983 0 60.8896 0.361297 60.1615 1.08937C59.4608 1.79006 59.1105 2.70426 59.1105 3.83742C59.1105 4.97058 59.4608 5.85192 60.1615 6.57999C60.8896 7.30806 61.8038 7.66936 62.9041 7.66936C64.0044 7.66936 64.9077 7.30806 65.6083 6.57999C66.3364 5.85192 66.6977 4.93773 66.6977 3.83742C66.6977 2.7371 66.3364 1.79006 65.6083 1.08937C64.9077 0.366772 64.0044 0 62.9041 0Z" fill="white"/>
</g>
<defs>
<clipPath id="clip0_2029_1630">
<rect width="210.209" height="40" fill="white"/>
</clipPath>
</defs>
</svg>
