<?xml version="1.0" encoding="utf-8"?>
<!-- Generator: Adobe Illustrator 21.0.2, SVG Export Plug-In . SVG Version: 6.00 Build 0)  -->
<svg version="1.1" id="Layer_1" xmlns="http://www.w3.org/2000/svg" xmlns:xlink="http://www.w3.org/1999/xlink" x="0px" y="0px"
	 viewBox="0 0 192.2 54.1" style="enable-background:new 0 0 192.2 54.1;" xml:space="preserve">
<style type="text/css">
	.st0{fill:#FFFFFF;}
</style>
<g>
	<g>
		<path class="st0" d="M86.6,20c0,0,4.7,3,4.5,3.7c-0.3,0.6-2.1,0.1-2.9-1C87.3,21.5,86.6,20,86.6,20"/>
		<path class="st0" d="M92.9,31.2c0,0,2.3,2.8,2.7,2.8c0.4,0.1,0.3-0.7,0.1-0.9C95.7,32.9,95.1,31.8,92.9,31.2"/>
		<path class="st0" d="M101.6,22.6c0,0-4.8-1.4-5.1-1.5c-0.4-0.1-2.6-0.5-2.6,1c-0.1,1.6,3.8,1.5,3.8,1.5S101.4,23.1,101.6,22.6"/>
		<path class="st0" d="M88.2,14.1c0,0-4.3,1.7-4,3.1c0.3,1.4,1.6,1.7,2.1,1.5c0.5-0.1,0.8-1.5,0.8-1.9
			C87.1,16.4,87.7,14.4,88.2,14.1"/>
		<path class="st0" d="M84.1,17.5c0,0,1.8,4.7,1.3,5.1c-0.5,0.3-1.6-1-1.6-2.3C83.8,19,84.1,17.5,84.1,17.5"/>
		<path class="st0" d="M94.2,32.9c0,0-3.2-3.6-3.9-3.7c-0.7-0.1-0.3,1.3,0.3,1.9C91.2,31.6,91.8,32.2,94.2,32.9"/>
		<path class="st0" d="M93.4,13.6c0,0-4,2.1-5,2.1c-1,0.1,1.3,0,2.3,0.7C91.7,17.2,93.4,14.1,93.4,13.6"/>
		<path class="st0" d="M113.7,11.3c0,0,1.5-3.3,1.4-3.8c-0.1-0.5-1,0.2-1.2,0.8C113.6,8.9,113.4,9.5,113.7,11.3"/>
		<path class="st0" d="M91.5,17.4c0,0-2-1.7-2.6-1.2c-0.6,0.5-0.4,1.2-0.2,1.5c0.2,0.2,1,0,1.2-0.1C90.1,17.5,91.3,17.3,91.5,17.4"
			/>
		<path class="st0" d="M115.7,11.8c0,0,0.5-2.1-0.1-2.3c-0.6-0.3-1.1,0.1-1.2,0.4c-0.1,0.2,0.3,0.7,0.5,0.8
			C115.1,10.8,115.7,11.6,115.7,11.8"/>
		<path class="st0" d="M110.1,20.8c0,0,2.5-3.5,1.6-4.4c-0.9-0.9-2.1-0.5-2.4-0.1c-0.3,0.4,0.1,1.5,0.3,1.9
			C109.8,18.4,110.3,20.3,110.1,20.8"/>
		<path class="st0" d="M89.7,20.4c0,0-2.7-0.1-2.8-0.9c-0.1-0.8,0.5-1.2,0.8-1.2c0.3,0,0.7,0.6,0.8,0.9
			C88.6,19.4,89.4,20.3,89.7,20.4"/>
		<path class="st0" d="M94.4,33.4c0,0,0.7,1.7,0.6,2.1c0,0.4,0.1-0.5,0.4-0.9C95.8,34.2,94.7,33.4,94.4,33.4"/>
		<path class="st0" d="M87.6,15.6c0,0-0.4,2.5-0.7,3c-0.3,0.5,0.4-0.6,1.1-0.8C88.7,17.6,87.8,15.8,87.6,15.6"/>
		<path class="st0" d="M114.3,15.5c0,0,0.8-0.3,0.9-0.3c0.1,0,0.5-0.1,0.5,0.2c0,0.3-0.7,0.3-0.7,0.3S114.4,15.6,114.3,15.5"/>
		<path class="st0" d="M112,10.9c0,0-1.9-2.5-1.9-2.9c0-0.5,0.9,0,1.2,0.4C111.6,8.9,111.9,9.3,112,10.9"/>
		<path class="st0" d="M93,13.5c0,0-4.8,2.5-5.2,2c-0.4-0.5,0.9-1.8,2.2-1.9C91.4,13.4,93,13.5,93,13.5"/>
		<path class="st0" d="M89.6,28.4c0,0,1.2-4.9,1.9-4.8c0.6,0,0.7,1.7,0,2.7C90.7,27.4,89.6,28.4,89.6,28.4"/>
		<path class="st0" d="M98.5,13.2c0,0,2.3-0.8,2.5-0.9c0.2-0.1,1.2-0.3,1.3,0.4c0.1,0.8-1.8,0.9-1.8,0.9S98.6,13.5,98.5,13.2"/>
		<path class="st0" d="M96.2,33.4c0,0,0.9,1.7,0.5,2c-0.5,0.4-0.9,0.1-1.1-0.1c-0.1-0.2,0.1-0.7,0.2-0.8
			C95.9,34.4,96.2,33.6,96.2,33.4"/>
		<path class="st0" d="M92.4,18.5c0,0-0.1-1.9-0.3-2.1c-0.2-0.2-0.4,0.3-0.4,0.7C91.8,17.4,91.8,17.7,92.4,18.5"/>
		<path class="st0" d="M113.4,9.1c0,0-1.3-2.7-0.6-3.2c0.7-0.5,1.5-0.1,1.7,0.2c0.2,0.3-0.3,1-0.5,1.2
			C113.9,7.6,113.3,8.8,113.4,9.1"/>
		<path class="st0" d="M93.3,20.8c0,0-1-2.9-0.7-3.1c0.3-0.2,0.9,0.6,0.9,1.4C93.5,19.9,93.3,20.8,93.3,20.8"/>
		<path class="st0" d="M103.8,21.3c0,0-1,0-1.2-0.1c-0.2-0.1,0.3,0.1,0.4,0.4C103.1,21.9,103.7,21.4,103.8,21.3"/>
		<path class="st0" d="M86.7,23.5c0,0-1.2,0-1.3-0.4c-0.1-0.4,0.2-0.6,0.4-0.6c0.1,0,0.3,0.3,0.4,0.4C86.2,23.1,86.5,23.5,86.7,23.5
			"/>
		<path class="st0" d="M107.6,18.3c0,0-2.5-2.9-3.5-2.3c-1,0.6-0.9,1.7-0.7,2c0.3,0.4,1.4,0.2,1.7,0.1C105.5,18,107.3,18,107.6,18.3
			"/>
		<path class="st0" d="M85.6,18.9c0,0,0.6,0.8,0.9,0.7c0.3-0.1,0.3-0.4,0.2-0.5c-0.1-0.1-0.4-0.1-0.5-0.1C86.1,19,85.7,19,85.6,18.9
			"/>
		<path class="st0" d="M93.9,13.6c0,0,2.1,2.5,1.8,2.8c-0.3,0.3-1.2-0.3-1.4-1.1C94.1,14.6,93.9,13.6,93.9,13.6"/>
		<path class="st0" d="M93.2,22.7c0,0-0.3-4.7-1.8-4.9c-1.5-0.1-2.2,1-2.2,1.6c0,0.6,1.2,1.2,1.6,1.4C91.2,20.9,93,22.1,93.2,22.7"
			/>
		<path class="st0" d="M93.8,13.6c0,0-2,2.9-1.2,3.6c0.8,0.7,1.7,0.4,2,0.1c0.3-0.3-0.1-1.3-0.3-1.5C94.1,15.5,93.6,14,93.8,13.6"/>
		<path class="st0" d="M89.3,28.1c0,0-0.5-3.9-0.1-4.1c0.5-0.1,1,1,0.8,2C89.8,27,89.3,28.1,89.3,28.1"/>
		<path class="st0" d="M95.9,19.3c0,0,0.7-2.1,0.1-2.5c-0.6-0.3-1.1,0.1-1.2,0.3c-0.1,0.2,0.3,0.8,0.5,0.9
			C95.4,18.2,96,19,95.9,19.3"/>
		<path class="st0" d="M87.7,20.4c0,0,4.3,3.3,4.9,3.2c0.7-0.1,0.1-1.1-0.1-1.3C92.3,22.1,91.2,20.6,87.7,20.4"/>
		<path class="st0" d="M88.5,23.4c0,0,0.9,2.8,0.1,4c-0.8,1.2-1.2,0.5-1.1-0.2C87.6,26.5,88.4,23.5,88.5,23.4"/>
		<path class="st0" d="M94.4,20.6c0,0-1,1.2-1.1,1.6c-0.1,0.3,0.1-0.4-0.1-0.8C93.1,21,94.2,20.6,94.4,20.6"/>
		<path class="st0" d="M111.7,5.9c0,0-0.1,2.2,0.1,2.7c0.2,0.5-0.3-0.6-0.8-0.9C110.4,7.5,111.5,6,111.7,5.9"/>
		<path class="st0" d="M93.7,13.4c0,0,5.7-0.2,5.8,0.4c0.2,0.7-1.6,1.3-3,0.8C95.2,14.2,93.7,13.4,93.7,13.4"/>
		<path class="st0" d="M88,18c0,0,1.7,0,2.1-0.1c0.4-0.1-0.4,0.2-0.7,0.6C89.2,18.9,88,18.1,88,18"/>
		<path class="st0" d="M87.6,25.7c0,0-0.6-1.5-0.9-1.8c-0.3-0.3,0.3,0.3,0.8,0.3C88,24.3,87.7,25.6,87.6,25.7"/>
		<path class="st0" d="M116,12.5c0,0,1.2-2.1,1.1-2.4c-0.1-0.3-0.5,0-0.6,0.1C116.4,10.4,115.8,11,116,12.5"/>
		<path class="st0" d="M90.3,31.2c0,0-2.9-1.2-2.7-2.1c0.2-0.9,1.1-1.1,1.4-1c0.4,0.1,0.5,1,0.5,1.3C89.6,29.6,90,31,90.3,31.2"/>
		<path class="st0" d="M94.2,20.5c0,0,1.2-1.4,1.4-1.4c0.2,0,0.1,0.4,0.1,0.5C95.7,19.6,95.4,20.2,94.2,20.5"/>
		<path class="st0" d="M87.4,22c0,0,1,1.4,0.6,1.8c-0.4,0.4-0.8,0.2-1,0c-0.1-0.2,0.1-0.6,0.2-0.7C87.3,23,87.5,22.2,87.4,22"/>
		<path class="st0" d="M84.8,18.5c0,0,1.2,4.3,1.7,4.6c0.5,0.4,0.8-1,0.5-1.7C86.8,20.8,86.6,20.1,84.8,18.5"/>
		<path class="st0" d="M90.6,27.6c0,0,0.1,1.6,0.3,1.9c0.2,0.3-0.2-0.4-0.7-0.5C89.9,28.7,90.5,27.6,90.6,27.6"/>
		<path class="st0" d="M93.5,20.7c0,0,2.2-1.6,1.8-2.3c-0.4-0.7-1.1-0.7-1.4-0.6c-0.3,0.2-0.3,0.9-0.2,1.2
			C93.8,19.2,93.7,20.5,93.5,20.7"/>
		<path class="st0" d="M94.7,20.8c0,0,1.8-1.8,2.5-1.3c0.6,0.5,0.5,1.2,0.3,1.4c-0.2,0.2-0.9,0.1-1.1,0C96.1,20.7,95,20.6,94.7,20.8
			"/>
		<path class="st0" d="M109.3,25.5c0,0-1-4.8-1.1-5.2c-0.1-0.4-0.7-2.5-2.2-1.8c-1.4,0.7,0.5,4.1,0.5,4.1S108.7,25.6,109.3,25.5"/>
		<path class="st0" d="M109.9,26.4c0,0-1.5-5.5-0.9-5.8c0.6-0.3,1.7,1.3,1.5,2.7C110.3,24.8,109.9,26.4,109.9,26.4"/>
		<path class="st0" d="M111.7,28.8c0,0-2.1-1.9-1.7-2.6c0.5-0.7,1.3-0.6,1.5-0.4c0.3,0.2,0.2,1,0.1,1.3
			C111.6,27.3,111.5,28.5,111.7,28.8"/>
		<path class="st0" d="M110.6,23.9c0,0,0.8,1.5,1,1.7c0.3,0.2-0.4-0.3-0.8-0.3C110.3,25.3,110.5,24,110.6,23.9"/>
		<path class="st0" d="M103.2,22.4c0,0,1.8-2.6,1.9-3.3c0.1-0.7-0.1,0.9,0.3,1.7C105.9,21.6,103.5,22.5,103.2,22.4"/>
		<path class="st0" d="M97.5,21.1c0,0,4.5,1.6,5.2,1.3c0.7-0.2-0.4-1.3-1.2-1.5C100.7,20.8,100,20.5,97.5,21.1"/>
		<path class="st0" d="M96.2,19.4c0,0,0.5-1.5,0.4-1.8c0-0.4,0.1,0.4,0.4,0.7C97.3,18.6,96.3,19.4,96.2,19.4"/>
		<path class="st0" d="M94.6,14.1c0,0,5,2.6,4.8,3.2c-0.2,0.6-2,0.3-3-0.7C95.5,15.5,94.6,14.1,94.6,14.1"/>
		<path class="st0" d="M98.8,18.3c0,0-1.6-1-1.9-0.9c-0.3,0,0.1,0.5,0.4,0.7C97.5,18.1,97.8,18.3,98.8,18.3"/>
		<path class="st0" d="M99.9,19.7c0,0-1.2-1.3-0.9-1.7c0.3-0.4,0.8-0.3,1-0.2c0.2,0.1,0,0.6,0,0.8C99.8,18.8,99.7,19.5,99.9,19.7"/>
		<path class="st0" d="M111.8,16.3c0,0-4.4-3.6-4-4.1c0.3-0.6,2.1,0.1,2.8,1.3C111.2,14.7,111.8,16.3,111.8,16.3"/>
		<path class="st0" d="M110.9,15.8c0,0-1.9-1.9-2.5-1.4c-0.7,0.5-0.5,1.2-0.3,1.4c0.2,0.2,1,0.1,1.2,0
			C109.4,15.7,110.6,15.6,110.9,15.8"/>
		<path class="st0" d="M100,13.7c0,0,0,2.5-0.7,2.6c-0.7,0.1-1.2-0.4-1.2-0.7c0-0.3,0.6-0.7,0.8-0.8C99.1,14.7,99.9,14,100,13.7"/>
		<path class="st0" d="M96.7,15c0,0,1.3,0.1,1.6,0c0.3-0.1-0.3,0.1-0.5,0.5C97.6,15.7,96.8,15.1,96.7,15"/>
		<path class="st0" d="M99.1,20.5c0,0,3.3-3,4.4-2.1c1.1,0.8,0.8,2.1,0.4,2.5c-0.4,0.4-1.6,0.1-2-0.1
			C101.5,20.5,99.5,20.3,99.1,20.5"/>
		<path class="st0" d="M98.2,20.8c0,0,0.7-2,0.1-2.3c-0.6-0.3-1.1,0.1-1.2,0.3c-0.1,0.2,0.3,0.7,0.4,0.9
			C97.7,19.7,98.2,20.6,98.2,20.8"/>
		<path class="st0" d="M98.5,20.7c0,0,0.4-1.8,0.3-2.2c-0.1-0.4,0.1,0.5,0.5,0.8C99.7,19.7,98.7,20.7,98.5,20.7"/>
		<path class="st0" d="M114.3,10.4c0,0-1,2-1,2.3c0.1,0.3,0.6-0.1,0.8-0.5C114.2,11.9,114.4,11.5,114.3,10.4"/>
		<path class="st0" d="M114.4,10.4c0,0,1.8,1.8,1.4,2.4c-0.5,0.6-1.2,0.5-1.4,0.3c-0.2-0.2-0.1-0.9,0-1.1
			C114.5,11.8,114.6,10.7,114.4,10.4"/>
		<path class="st0" d="M114.8,31.5c0,0,0.8,2.3,0.8,2.5c0.1,0.2,0.5,1.2,1.2,0.8c0.7-0.4-0.5-2-0.5-2S115.1,31.4,114.8,31.5"/>
		<path class="st0" d="M111.9,26.3c0,0,2.1,4.6,1.6,4.9c-0.5,0.4-1.6-0.9-1.7-2.1C111.8,27.8,111.9,26.3,111.9,26.3"/>
		<path class="st0" d="M113.9,30.4c0,0,1.3,1.6,0.9,2.1c-0.4,0.5-1,0.3-1.2,0.1c-0.2-0.2,0-0.8,0.1-0.9
			C113.8,31.6,114,30.7,113.9,30.4"/>
		<path class="st0" d="M115.9,34.9c0,0-0.5-0.9-0.5-1.1c0-0.3,0,0.3-0.1,0.6C115.1,34.6,115.8,34.9,115.9,34.9"/>
		<path class="st0" d="M114.4,32.9c0,0,0.7,0.4,0.9,0.6c0.1,0.2-0.1-0.2-0.1-0.5C115.2,32.7,114.5,32.8,114.4,32.9"/>
		<path class="st0" d="M103.3,11.3c0,0-0.7,1.5-0.7,1.8c0,0.4,0-0.5-0.3-0.8C102,12,103.1,11.3,103.3,11.3"/>
		<path class="st0" d="M111.4,14.9c0,0,1.2-2.7,0.5-3.2c-0.7-0.5-1.5-0.1-1.6,0.2c-0.2,0.3,0.3,1,0.5,1.2
			C110.9,13.4,111.4,14.5,111.4,14.9"/>
		<path class="st0" d="M108,11.4c0,0,2,0,2.1,0.3c0,0.2-0.6,0.4-1.1,0.2C108.5,11.7,108,11.4,108,11.4"/>
		<path class="st0" d="M103.4,11.3c0,0,4.2-0.1,4.3,0.4c0.1,0.5-1.2,0.9-2.2,0.6C104.5,12,103.4,11.3,103.4,11.3"/>
		<path class="st0" d="M103.4,11.6c0,0,1.8,4.2,3.2,3.9c1.4-0.3,1.6-1.6,1.5-2.1c-0.2-0.5-1.5-0.8-1.9-0.7
			C105.7,12.7,103.7,12.1,103.4,11.6"/>
		<path class="st0" d="M110,20.5c0,0-3.4-3.5-3.5-4.2c-0.1-0.7,1.4-0.2,1.9,0.5C109,17.4,109.5,18,110,20.5"/>
		<path class="st0" d="M108,19.1c0,0,0.6,1.6,0.6,2c0,0.4,0-0.5,0.4-0.9C109.3,19.7,108.2,19.1,108,19.1"/>
		<path class="st0" d="M111.9,15.9c0,0,4.8-1.3,5.2-1.9c0.4-0.6-1.1-0.9-1.9-0.6C114.4,13.8,113.7,14,111.9,15.9"/>
		<path class="st0" d="M115,15.8c0,0-2.8,2.1-3.2,2.8c-0.4,0.7,0.4-0.9,0.3-1.9C111.9,15.7,114.7,15.6,115,15.8"/>
		<path class="st0" d="M119,19.6c0,0-3.2-3.7-3.2-4.4c0-0.7,1.4-0.1,1.9,0.6C118.2,16.5,118.6,17.1,119,19.6"/>
		<path class="st0" d="M117.8,15.6c0,0,0.1-1.3-0.3-1.4c-0.4-0.1-0.6,0.2-0.7,0.3c0,0.2,0.3,0.4,0.4,0.5
			C117.3,15.1,117.8,15.5,117.8,15.6"/>
		<path class="st0" d="M117.6,18.3c0,0,2,1.9,1.5,2.6c-0.5,0.7-1.3,0.6-1.5,0.4c-0.3-0.2-0.1-1,0-1.2
			C117.7,19.8,117.8,18.5,117.6,18.3"/>
	</g>
	<g>
		<g>
			<path class="st0" d="M118.9,21.3c0,0-1.6,2.5-2.4,2.2c-0.8-0.3-0.9-1.2-0.7-1.5c0.2-0.3,1-0.3,1.3-0.3
				C117.3,21.8,118.7,21.6,118.9,21.3"/>
			<path class="st0" d="M110.9,1.9c0,0-0.6-0.2-0.5,0.5c0,0.6-0.2,1.2-0.6,1.3c-0.3,0.2,0.7-0.5-0.4-0.9c-1.2-0.4-1.1,1.2-0.9,1.6
				c0.2,0.4-1.2,0-1.2-1c0-1,0.3-1.2,0.3-1.2s-0.8,1.1-0.4,2.4c0.4,1.3-0.4,0.9-0.4,0.9s0.5,0.6,0,1.4c-0.5,0.7-0.5,0.8-0.4,1.2
				c0.1,0.4-0.7-0.5-0.4-1.2c0.2-0.7-0.9,0.1-0.8-0.7c0.1-0.7-0.2,1.5-0.5,2c-0.3,0.5-0.7,0.6-0.7,1.4c0,0.8-0.5,1-0.8,1.1
				c-0.2,0.1,0.4-0.3,0-1.1c-0.4-0.8-0.7-1.4-0.2-1.8c0.5-0.4,0.8-0.8,0.7-1.1c-0.1-0.3-0.3-1.1,0.4-1.4c0.7-0.2-0.1-0.4,0.4-1
				c0.5-0.6,0.1-1.7,1.1-1.6c1,0,0.9,0.1,1.3-0.3c0.3-0.4,1-1,1.9-1c0.9,0,0-1,1.5-1.2c1.6-0.2,0.5,0.8,1.7,0.5
				c1.2-0.3,1.1-0.8,1.9-0.5c0.8,0.3,1.6,0.7,1.6,1.2c0,0.5,0.1,0.5,0.8,0.5c0.6,0.1,1.1,0.6,1,1.1c-0.1,0.5,0.1,0.4,0.4,0.4
				c0.3,0-0.8,0.8-1.1,1.1c-0.3,0.3-0.5-1.1-1-0.8c-0.5,0.4-1.2-0.1-1,0.6c0.2,0.8-0.8-0.3-0.5-1c0.3-0.8-0.8-0.6-0.9,0
				c0,0.5-0.5-0.9-0.5,0.2c0,1.1-0.8,0.9-0.8,0c0-0.9,0.6-1.6-0.1-1.2C111,2.5,111.5,1.2,110.9,1.9"/>
		</g>
	</g>
	<g>
		<path class="st0" d="M118.5,3.1c0,0-2,1.4-2.1,1.6c-0.1,0.3,0.5,0.2,0.6,0.2C117.1,4.9,117.9,4.6,118.5,3.1"/>
		<path class="st0" d="M119,3.3c0,0-0.1,0.9-0.4,0.9c-0.3,0-0.4-0.2-0.4-0.3c0-0.1,0.2-0.2,0.3-0.2C118.6,3.7,119,3.4,119,3.3"/>
		<path class="st0" d="M117,5.2c0,0,0.9-0.5,1.1-0.9c0.2-0.4,0,0.2,0.5,0.3c0.5,0.1,0.4,0.6,0.2,0.9c-0.2,0.3-0.2,0.4,0,0.8
			c0.2,0.3,0.7,1.4-0.3,2.2c-1,0.8-1,1.1-0.9,1.5c0.2,0.4-0.6-0.7,0-1.3c0.6-0.7,0-0.4,0-0.8c0-0.4,0.6-0.8-0.3-0.7
			c-0.9,0.1,1-0.5,0.1-0.9C116.6,5.8,118,5.2,117,5.2"/>
		<path class="st0" d="M105.6,18.3c0,0-1.3,0.1-1.4,0.5c0,0.4,0.3,0.6,0.5,0.6c0.2,0,0.3-0.3,0.4-0.5
			C105.1,18.8,105.4,18.3,105.6,18.3"/>
		<path class="st0" d="M102.1,18.3c0,0-1.6-0.6-1.9-0.1c-0.3,0.5,0,0.9,0.2,1c0.2,0.1,0.6-0.2,0.7-0.3
			C101.2,18.7,101.9,18.3,102.1,18.3"/>
		<path class="st0" d="M103.3,18.1c0,0-3.6-0.2-3.7-0.7c-0.1-0.4,1.1-0.7,1.9-0.3C102.4,17.5,103.3,18.1,103.3,18.1"/>
		<path class="st0" d="M112.1,11.2c0,0-6.6,0-6.7-0.7c-0.1-0.7,2-1.4,3.5-0.8C110.5,10.3,112.1,11.2,112.1,11.2"/>
		<path class="st0" d="M112.9,14.7c0,0-0.8,0.9-1.1,0.7c-0.3-0.2-0.3-0.5-0.2-0.7c0.1-0.1,0.4-0.1,0.5,0
			C112.2,14.8,112.8,14.8,112.9,14.7"/>
		<path class="st0" d="M80.6,25.3c0,0,4.3-2.3,4.7-1.9c0.4,0.5-0.8,1.6-2,1.8C82.1,25.4,80.6,25.3,80.6,25.3"/>
		<path class="st0" d="M85.2,23c0,0-2.6,0-2.8-0.8c-0.1-0.8,0.5-1.2,0.8-1.3c0.3,0,0.7,0.6,0.8,0.8C84.1,22,84.9,22.9,85.2,23"/>
		<path class="st0" d="M84.9,23.2c0,0-4.3,1.7-4.6,1.2C80,23.9,81.2,23,82.4,23C83.5,22.9,84.9,23.2,84.9,23.2"/>
		<path class="st0" d="M80.9,23c0,0,1.1-1.3,1.2-1.7c0.1-0.4-0.1,0.5,0.1,0.9C82.4,22.7,81.1,23.1,80.9,23"/>
		<path class="st0" d="M76.3,27.7c0,0,4-2,4.3-2.6c0.3-0.6-1.2-0.6-1.8-0.2C78.1,25.3,77.5,25.7,76.3,27.7"/>
		<path class="st0" d="M78,27c0,0-0.7,1.3-1.5,1.5c-0.8,0.1-0.6-0.3-0.3-0.5C76.5,27.7,78,26.9,78,27"/>
		<path class="st0" d="M75.8,28.1c0,0-1.8,1.6-1.4,2.2c0.4,0.6,1.1,0.5,1.3,0.4c0.2-0.2,0.1-0.9,0-1.1
			C75.6,29.5,75.6,28.4,75.8,28.1"/>
		<path class="st0" d="M76.1,30.3c0,0,0.8,2.2,0.2,2.6c-0.6,0.4-1.2,0-1.3-0.3c-0.1-0.3,0.3-0.8,0.5-1
			C75.6,31.5,76.1,30.6,76.1,30.3"/>
		<path class="st0" d="M76.3,30.2c0,0-0.6-0.8-0.4-1.3c0.1-0.5,0.3-0.3,0.4-0.1C76.3,29.1,76.4,30.2,76.3,30.2"/>
		<path class="st0" d="M85.8,14.8c0,0-4.8-0.5-6.5,1.6c-1.8,2.1-2.9,5.2-4.3,4.6c-1.4-0.6-0.4,1.2,0.2,1.2c0.5,0,2,0.2,2.6-1.3
			c0.6-1.5,0.6,0.4,0.7-1.2c0.1-1.6,0.5-1.6,0.5-1.6s-0.3,0.8-0.1,1.3c0.2,0.5,1.6,2.2,1.2,3.7c-0.4,1.5,0.8-1.4-0.2-3.4
			c-1-2,1.8-2.8,1.8-2.8s-1.1,0.7-1.1,1.3c0,0.6,0.4-0.4,1.5-0.8c1.1-0.4,1.9-0.9,2.1-1.3C84.2,15.7,85.8,14.8,85.8,14.8"/>
		<path class="st0" d="M77.3,21.9c0,0-0.9,0.5-1.6,0.5c-0.6,0,0.6,0.8-0.1,1.3c-0.7,0.5-1.1,1.5-0.7,2.9c0.4,1.4-0.6,1.5-0.6,1.5
			s1.1,0,1.1-1.5c0-1.5,1.2-2.5,1.4-3.5C76.9,22.1,77.3,21.9,77.3,21.9"/>
		<path class="st0" d="M75.6,26.2c0,0,0.3-0.9,0.6-1.3c0.4-0.4,0.9-1.6,0.9-2.1c-0.1-0.5,0.7-1.6,0.9-1.7c0.2-0.2-0.2,0.6,0,1.4
			c0.2,0.7,0.6,1.8,0.4,2.4c-0.2,0.6-1.1,0.5-1.4,1.4c-0.3,0.9-0.3-1.1,0.2-1.4c0.5-0.4-1.5,0.7-1.5,2.3
			C75.8,28.5,75.6,26.3,75.6,26.2"/>
		<path class="st0" d="M78.4,20.7c0,0-0.3,0.6,0,1.5c0.3,0.9,0.8,1.5,0.8,2c0,0.5,0.1-0.4,0-1.2c-0.1-0.8,0.1-2.2-0.2-2.8
			C78.8,19.7,78.6,20.1,78.4,20.7"/>
		<path class="st0" d="M83.9,17c0,0-0.2,1.1-1,1.2c-0.9,0.1-1,0.7-0.8,1.5c0.2,0.8,0.1,1.2-0.4,2c-0.4,0.8,0.1-0.9-0.2-1.3
			c-0.3-0.4-0.1,2.1-0.7,2.3c-0.5,0.2,0-1.8-0.5-2.7c-0.5-0.9,0.8-2,1.2-2.1C82,17.7,83.4,17.4,83.9,17"/>
		<path class="st0" d="M77.4,18.7c0,0-1.4,2.2-1.9,2.1c-0.5-0.1-1-0.1-0.9-0.9c0.1-0.8,0.1,0.8,1.1,0.2
			C76.8,19.4,77.4,18.7,77.4,18.7"/>
		<path class="st0" d="M116.2,10.3c0,0,0.7-0.9,0.5-1.2c-0.2-0.3-0.6-0.2-0.7-0.1s0,0.4,0.1,0.5C116.1,9.6,116.2,10.1,116.2,10.3"/>
		<path class="st0" d="M114.7,9.3c0,0,0.5-0.8,0.7-0.7c0.3,0.1,0.3,0.4,0.2,0.5c0,0.1-0.3,0.1-0.4,0.1
			C115.2,9.2,114.8,9.2,114.7,9.3"/>
		<path class="st0" d="M116.9,9.8c0,0,0.6-1.4,0.5-1.5c-0.1-0.2-0.3,0.1-0.4,0.1C117,8.4,116.7,8.8,116.9,9.8"/>
		<path class="st0" d="M115.5,6c0,0-0.5,2.3,0.2,2.5c0.7,0.3,1.2-0.2,1.2-0.5c0.1-0.3-0.4-0.7-0.6-0.9C116.2,7.1,115.5,6.2,115.5,6"
			/>
		<path class="st0" d="M115.1,5.4c0,0-0.5,1.4-0.4,1.6c0.1,0.2,0.3-0.1,0.3-0.1C115.1,6.8,115.4,6.3,115.1,5.4"/>
		<path class="st0" d="M115.4,3.9c0,0,1.7,2.8,1.4,3c-0.3,0.3-1.1-0.5-1.3-1.3C115.4,4.9,115.4,3.9,115.4,3.9"/>
		<path class="st0" d="M111.2,10.3c0,0-3.9-2-4.2-2.6c-0.3-0.6,1.1-0.5,1.8-0.1C109.5,8,110.1,8.4,111.2,10.3"/>
		<path class="st0" d="M106.9,7c0,0,2.6-2.1,3.3-1.4c0.7,0.7,0.5,1.6,0.2,1.8c-0.3,0.3-1.2,0-1.5-0.2C108.7,7.1,107.2,6.8,106.9,7"
			/>
		<path class="st0" d="M108.4,9.3c0,0-1.4-1.5-1.9-1.2C106,8.4,106,9,106.2,9.2c0.1,0.2,0.7,0.1,0.9,0
			C107.3,9.1,108.2,9.1,108.4,9.3"/>
		<path class="st0" d="M111.9,7.2c0,0,0-1.6-0.2-1.9c-0.1-0.3,0.2,0.4,0.6,0.6C112.7,6.1,112.1,7.2,111.9,7.2"/>
		<path class="st0" d="M111.4,3.9c0,0,0.7,2,1.3,1.9c0.6-0.1,0.8-0.7,0.8-0.9c-0.1-0.2-0.7-0.4-0.9-0.4
			C112.4,4.4,111.5,4.1,111.4,3.9"/>
		<path class="st0" d="M111.1,3.9c0,0,0.8,1.5,0.4,1.8c-0.4,0.3-0.8,0.1-0.9-0.1c-0.1-0.2,0.1-0.6,0.2-0.7
			C110.9,4.8,111.1,4.1,111.1,3.9"/>
		<path class="st0" d="M105.2,6.5c0,0-0.6,3.1-0.3,3.5c0.2,0.4,0.8-0.4,0.9-0.9C105.7,8.6,105.8,8.1,105.2,6.5"/>
		<path class="st0" d="M104.4,8.8c0,0,0.2,1.5,0.3,1.6c0,0.1,0.1,0.8-0.4,0.8c-0.5,0-0.3-1.2-0.3-1.2S104.2,8.8,104.4,8.8"/>
		<path class="st0" d="M113.8,4c0,0,0.6,1.6,0.8,1.9c0.3,0.3-0.3-0.3-0.8-0.4C113.3,5.4,113.6,4.1,113.8,4"/>
		<path class="st0" d="M107.1,6.3c0,0,1.8-2.6,2.3-2.7c0.5-0.1,0.3,0.8-0.1,1.2C109,5.3,108.7,5.7,107.1,6.3"/>
		<path class="st0" d="M111.2,2.8c0,0-1.8,2-1.8,2.3c0,0.3,0.6,0.1,0.7,0C110.2,5.1,111,4.5,111.2,2.8"/>
		<path class="st0" d="M115.2,3.9c0,0,0.2,1.2-0.2,1.4c-0.4,0.1-0.6-0.1-0.7-0.3c0-0.1,0.2-0.4,0.3-0.4
			C114.8,4.5,115.2,4.1,115.2,3.9"/>
		<path class="st0" d="M106.3,16.5c0,0-1.2-2-1.5-2.1c-0.3-0.1-0.3,0.6,0,0.9C105,15.7,105.2,16,106.3,16.5"/>
		<path class="st0" d="M103.1,16.9c0,0-0.6-4.4,0-4.6c0.5-0.2,1.1,1.2,0.9,2.3C103.7,15.7,103.1,16.9,103.1,16.9"/>
		<path class="st0" d="M103.7,16.1c0,0,0.6-1.2,0.6-1.5c0-0.3,0,0.4,0.2,0.6C104.7,15.6,103.8,16.1,103.7,16.1"/>
		<path class="st0" d="M100.9,16.8c0,0-0.9-0.8-1.2-0.6c-0.3,0.2-0.2,0.6-0.1,0.7c0.1,0.1,0.5,0,0.6,0
			C100.3,16.8,100.8,16.7,100.9,16.8"/>
		<path class="st0" d="M103,17.6c0,0-3.2-1.6-3.1-2c0.1-0.4,1.3-0.2,1.9,0.4C102.4,16.7,103,17.6,103,17.6"/>
		<path class="st0" d="M102.9,17.2c0,0-0.1-3.4-0.5-3.7c-0.3-0.4-0.8,0.6-0.7,1.2C101.8,15.2,101.9,15.7,102.9,17.2"/>
		<path class="st0" d="M101.8,15.8c0,0-0.6-1.7-1.1-1.6c-0.6,0.1-0.7,0.6-0.7,0.8c0,0.2,0.6,0.4,0.7,0.4
			C100.9,15.3,101.7,15.6,101.8,15.8"/>
		<path class="st0" d="M101.8,13.5c0,0-0.3,0.9-0.3,1.1c0,0.2,0-0.3-0.2-0.5C101,13.9,101.7,13.5,101.8,13.5"/>
		<path class="st0" d="M101.2,13.8c0,0-1.1,0.5-1.2,0.4c-0.1-0.1,0.2-0.4,0.5-0.4C100.8,13.7,101.2,13.8,101.2,13.8"/>
	</g>
	<g>
		<g>
			<path class="st0" d="M106.2,11.2c0,0-0.9,0-1,0c-0.1,0-0.5,0-0.4-0.3c0.1-0.3,0.8-0.1,0.8-0.1S106.2,11.1,106.2,11.2"/>
			<path class="st0" d="M1.3,42.3c0.3,1,0.7,1.9,1,2.8c0.3,0.9,0.6,1.7,0.9,2.6c0.3,0.8,0.6,1.6,0.9,2.4c0.3,0.8,0.7,1.6,1,2.4
				c0.4-0.8,0.7-1.6,1-2.4c0.3-0.8,0.6-1.6,0.9-2.4c0.3-0.8,0.6-1.7,0.9-2.6c0.3-0.9,0.6-1.8,1-2.8h1.2c-0.5,1.5-1,2.8-1.4,3.9
				c-0.4,1.1-0.8,2.1-1.2,3c-0.4,0.9-0.7,1.7-1,2.5c-0.3,0.8-0.7,1.5-1,2.3H4.6c-0.3-0.8-0.7-1.5-1-2.3c-0.3-0.8-0.7-1.6-1-2.5
				c-0.4-0.9-0.7-1.9-1.2-3C1,45,0.5,43.7,0,42.3H1.3"/>
		</g>
	</g>
	<g>
		<path class="st0" d="M22.4,53.9c-0.2-0.6-0.4-1.1-0.6-1.6c-0.2-0.5-0.4-1-0.5-1.5h-5.7c-0.2,0.5-0.4,1-0.6,1.5
			c-0.2,0.5-0.4,1.1-0.6,1.6h-1.2c0.4-1.2,0.9-2.3,1.3-3.4c0.4-1,0.8-2,1.2-3c0.4-0.9,0.8-1.8,1.1-2.7c0.4-0.9,0.8-1.7,1.2-2.6h1
			c0.4,0.9,0.8,1.7,1.2,2.6c0.4,0.9,0.7,1.8,1.1,2.7c0.4,0.9,0.8,1.9,1.2,3c0.4,1,0.8,2.2,1.3,3.4H22.4 M18.3,43.6
			c-0.4,1-0.8,1.9-1.2,2.9c-0.4,1-0.8,2.1-1.2,3.2h5c-0.4-1.2-0.9-2.2-1.3-3.2C19.2,45.5,18.8,44.5,18.3,43.6z"/>
		<polyline class="st0" points="35.3,42.3 35.3,43.3 31.5,43.3 31.5,53.9 30.4,53.9 30.4,43.3 26.6,43.3 26.6,42.3 35.3,42.3 		"/>
		<path class="st0" d="M50.8,48.1c0,1-0.1,1.9-0.4,2.6c-0.3,0.8-0.7,1.4-1.2,1.9c-0.5,0.5-1.1,0.9-1.8,1.1c-0.7,0.3-1.4,0.4-2.1,0.4
			c-0.7,0-1.5-0.1-2.1-0.4c-0.7-0.3-1.3-0.6-1.8-1.1c-0.5-0.5-0.9-1.1-1.2-1.9c-0.3-0.8-0.4-1.6-0.4-2.6c0-1,0.1-1.9,0.4-2.6
			c0.3-0.8,0.7-1.4,1.2-1.9c0.5-0.5,1.1-0.9,1.8-1.1c0.7-0.3,1.4-0.4,2.1-0.4c0.7,0,1.5,0.1,2.1,0.4c0.7,0.3,1.3,0.6,1.8,1.1
			c0.5,0.5,0.9,1.1,1.2,1.9C50.6,46.2,50.8,47.1,50.8,48.1 M49.6,48.1c0-0.8-0.1-1.5-0.3-2.1c-0.2-0.6-0.5-1.1-0.9-1.6
			c-0.4-0.4-0.8-0.8-1.3-1c-0.5-0.2-1.1-0.3-1.8-0.3c-0.7,0-1.2,0.1-1.8,0.3c-0.5,0.2-1,0.6-1.3,1c-0.4,0.4-0.7,1-0.9,1.6
			c-0.2,0.6-0.3,1.3-0.3,2.1c0,0.8,0.1,1.5,0.3,2.1c0.2,0.6,0.5,1.1,0.9,1.6c0.4,0.4,0.8,0.8,1.3,1c0.5,0.2,1.1,0.4,1.8,0.4
			c0.7,0,1.2-0.1,1.8-0.4c0.5-0.2,1-0.6,1.3-1c0.4-0.4,0.7-1,0.9-1.6C49.4,49.5,49.6,48.8,49.6,48.1z"/>
		<path class="st0" d="M64.6,45.8c0,0.9-0.2,1.6-0.7,2.1c-0.5,0.5-1.1,0.9-1.8,1.1c0.2,0.2,0.4,0.5,0.7,0.9c0.3,0.4,0.6,0.8,0.9,1.2
			c0.3,0.5,0.6,0.9,0.9,1.4c0.3,0.5,0.5,1,0.7,1.4H64c-0.2-0.4-0.5-0.9-0.8-1.3c-0.3-0.4-0.6-0.9-0.8-1.3c-0.3-0.4-0.6-0.8-0.8-1.2
			c-0.3-0.4-0.5-0.7-0.7-0.9c-0.4,0-0.7,0.1-1.1,0.1h-1.9v4.7h-1.2V42.5c0.4-0.1,0.9-0.2,1.4-0.2c0.5-0.1,1.1-0.1,1.5-0.1
			c1.6,0,2.8,0.3,3.7,0.9C64.2,43.7,64.6,44.6,64.6,45.8 M59.8,43.2c-0.4,0-0.8,0-1.1,0c-0.3,0-0.6,0.1-0.8,0.1v4.9h1.6
			c0.5,0,1,0,1.5-0.1c0.5-0.1,0.9-0.2,1.2-0.3c0.4-0.2,0.6-0.4,0.8-0.7c0.2-0.3,0.3-0.8,0.3-1.3c0-0.5-0.1-0.9-0.3-1.3
			c-0.2-0.3-0.5-0.6-0.8-0.8c-0.3-0.2-0.7-0.3-1.1-0.4C60.7,43.2,60.3,43.2,59.8,43.2z"/>
		<path class="st0" d="M80.4,53.1c0.9,0,1.6-0.2,2.1-0.5c0.5-0.3,0.8-0.9,0.8-1.6c0-0.4-0.1-0.8-0.2-1.1c-0.2-0.3-0.4-0.5-0.7-0.7
			c-0.3-0.2-0.6-0.4-0.9-0.5c-0.4-0.1-0.7-0.3-1.1-0.4c-0.5-0.2-0.9-0.4-1.3-0.6s-0.7-0.4-1-0.7c-0.3-0.3-0.5-0.5-0.6-0.9
			c-0.1-0.3-0.2-0.7-0.2-1.1c0-1,0.3-1.7,1-2.3c0.7-0.5,1.6-0.8,2.8-0.8c0.3,0,0.6,0,0.9,0.1c0.3,0,0.6,0.1,0.9,0.2
			c0.3,0.1,0.5,0.2,0.7,0.2c0.2,0.1,0.4,0.2,0.5,0.3l-0.4,1c-0.3-0.2-0.7-0.4-1.2-0.5c-0.5-0.1-1-0.2-1.5-0.2c-0.4,0-0.7,0-1,0.1
			c-0.3,0.1-0.6,0.2-0.8,0.4c-0.2,0.2-0.4,0.4-0.5,0.6c-0.1,0.2-0.2,0.5-0.2,0.9c0,0.4,0.1,0.7,0.2,0.9c0.1,0.2,0.3,0.5,0.6,0.6
			c0.2,0.2,0.5,0.3,0.9,0.5c0.3,0.1,0.7,0.3,1.1,0.5c0.5,0.2,0.9,0.4,1.3,0.6c0.4,0.2,0.8,0.4,1.1,0.7c0.3,0.3,0.5,0.6,0.7,0.9
			c0.2,0.4,0.3,0.8,0.3,1.4c0,1.1-0.4,1.8-1.1,2.4c-0.7,0.5-1.7,0.8-3,0.8c-0.5,0-0.9,0-1.2-0.1c-0.4-0.1-0.7-0.1-1-0.2
			c-0.3-0.1-0.5-0.2-0.7-0.3c-0.2-0.1-0.4-0.2-0.5-0.2l0.4-1c0.1,0.1,0.3,0.1,0.5,0.2c0.2,0.1,0.4,0.2,0.7,0.3
			c0.3,0.1,0.6,0.2,0.9,0.2C79.6,53.1,80,53.1,80.4,53.1"/>
		<polyline class="st0" points="90,53.9 90,42.3 96.7,42.3 96.7,43.3 91.1,43.3 91.1,47.3 96.1,47.3 96.1,48.3 91.1,48.3 91.1,52.9 
			97.2,52.9 97.2,53.9 90,53.9 		"/>
		<path class="st0" d="M107.4,54.1c-0.8,0-1.5-0.1-2.1-0.4c-0.7-0.3-1.2-0.7-1.7-1.2c-0.5-0.5-0.9-1.1-1.1-1.9
			c-0.3-0.8-0.4-1.6-0.4-2.6c0-1,0.1-1.8,0.4-2.6c0.3-0.8,0.7-1.4,1.2-1.9c0.5-0.5,1.1-0.9,1.7-1.2c0.7-0.3,1.3-0.4,2.1-0.4
			c0.4,0,0.8,0,1.2,0.1c0.4,0.1,0.7,0.1,0.9,0.2c0.3,0.1,0.5,0.2,0.7,0.3c0.2,0.1,0.3,0.2,0.4,0.2l-0.4,1c-0.3-0.2-0.6-0.3-1.1-0.5
			c-0.4-0.2-1-0.2-1.6-0.2c-0.7,0-1.4,0.1-1.9,0.4c-0.5,0.2-1,0.6-1.4,1c-0.4,0.4-0.7,1-0.8,1.6c-0.2,0.6-0.3,1.3-0.3,2
			c0,0.8,0.1,1.5,0.3,2.1c0.2,0.6,0.5,1.1,0.8,1.6c0.4,0.4,0.8,0.8,1.3,1c0.5,0.2,1.1,0.4,1.8,0.4c0.7,0,1.4-0.1,1.9-0.2
			c0.5-0.1,0.9-0.3,1.1-0.4l0.3,1c-0.1,0.1-0.2,0.1-0.4,0.2c-0.2,0.1-0.4,0.1-0.7,0.2c-0.3,0.1-0.6,0.1-1,0.2
			C108.3,54.1,107.8,54.1,107.4,54.1"/>
		<path class="st0" d="M120.4,54.1c-0.8,0-1.4-0.1-2-0.4s-1-0.6-1.3-1c-0.3-0.4-0.6-0.9-0.7-1.5c-0.2-0.6-0.2-1.1-0.2-1.8v-7.3h1.2
			v7.2c0,0.6,0.1,1.2,0.2,1.7c0.2,0.5,0.4,0.8,0.6,1.1c0.3,0.3,0.6,0.5,1,0.7c0.4,0.1,0.8,0.2,1.3,0.2c0.5,0,0.9-0.1,1.3-0.2
			c0.4-0.1,0.7-0.4,1-0.7c0.3-0.3,0.5-0.7,0.6-1.1c0.2-0.5,0.2-1,0.2-1.7v-7.2h1.2v7.3c0,0.6-0.1,1.2-0.2,1.8
			c-0.2,0.6-0.4,1-0.7,1.5c-0.3,0.4-0.8,0.7-1.3,1C121.8,54,121.2,54.1,120.4,54.1"/>
		<path class="st0" d="M138.9,45.8c0,0.9-0.2,1.6-0.7,2.1c-0.5,0.5-1.1,0.9-1.8,1.1c0.2,0.2,0.4,0.5,0.7,0.9
			c0.3,0.4,0.6,0.8,0.9,1.2c0.3,0.5,0.6,0.9,0.9,1.4c0.3,0.5,0.5,1,0.7,1.4h-1.2c-0.2-0.4-0.5-0.9-0.8-1.3c-0.3-0.4-0.6-0.9-0.8-1.3
			c-0.3-0.4-0.6-0.8-0.8-1.2c-0.3-0.4-0.5-0.7-0.7-0.9c-0.4,0-0.7,0.1-1.1,0.1h-1.9v4.7h-1.2V42.5c0.4-0.1,0.9-0.2,1.4-0.2
			c0.5-0.1,1.1-0.1,1.5-0.1c1.6,0,2.8,0.3,3.7,0.9C138.5,43.7,138.9,44.6,138.9,45.8 M134.1,43.2c-0.4,0-0.8,0-1.1,0
			c-0.3,0-0.6,0.1-0.8,0.1v4.9h1.6c0.5,0,1,0,1.5-0.1c0.5-0.1,0.9-0.2,1.2-0.3c0.3-0.2,0.6-0.4,0.8-0.7c0.2-0.3,0.3-0.8,0.3-1.3
			c0-0.5-0.1-0.9-0.3-1.3c-0.2-0.3-0.5-0.6-0.8-0.8c-0.3-0.2-0.7-0.3-1.1-0.4C135,43.2,134.6,43.2,134.1,43.2z"/>
		<rect x="144.9" y="42.3" class="st0" width="1.2" height="11.6"/>
		<polyline class="st0" points="160,42.3 160,43.3 156.2,43.3 156.2,53.9 155.1,53.9 155.1,43.3 151.3,43.3 151.3,42.3 160,42.3 		
			"/>
		<rect x="165.2" y="42.3" class="st0" width="1.2" height="11.6"/>
		<polyline class="st0" points="172.8,53.9 172.8,42.3 179.6,42.3 179.6,43.3 173.9,43.3 173.9,47.3 179,47.3 179,48.3 173.9,48.3 
			173.9,52.9 180,52.9 180,53.9 172.8,53.9 		"/>
		<path class="st0" d="M188.1,53.1c0.9,0,1.6-0.2,2.1-0.5c0.5-0.3,0.8-0.9,0.8-1.6c0-0.4-0.1-0.8-0.2-1.1c-0.2-0.3-0.4-0.5-0.7-0.7
			c-0.3-0.2-0.6-0.4-0.9-0.5c-0.4-0.1-0.7-0.3-1.1-0.4c-0.5-0.2-0.9-0.4-1.3-0.6c-0.4-0.2-0.7-0.4-1-0.7c-0.3-0.3-0.5-0.5-0.6-0.9
			c-0.1-0.3-0.2-0.7-0.2-1.1c0-1,0.3-1.7,1-2.3c0.7-0.5,1.6-0.8,2.8-0.8c0.3,0,0.6,0,0.9,0.1c0.3,0,0.6,0.1,0.9,0.2
			c0.3,0.1,0.5,0.2,0.7,0.2c0.2,0.1,0.4,0.2,0.6,0.3l-0.4,1c-0.3-0.2-0.7-0.4-1.2-0.5c-0.5-0.1-1-0.2-1.5-0.2c-0.4,0-0.7,0-1,0.1
			c-0.3,0.1-0.6,0.2-0.8,0.4c-0.2,0.2-0.4,0.4-0.5,0.6c-0.1,0.2-0.2,0.5-0.2,0.9c0,0.4,0.1,0.7,0.2,0.9c0.1,0.2,0.3,0.5,0.6,0.6
			c0.2,0.2,0.5,0.3,0.9,0.5c0.3,0.1,0.7,0.3,1.1,0.5c0.5,0.2,0.9,0.4,1.3,0.6c0.4,0.2,0.8,0.4,1.1,0.7c0.3,0.3,0.5,0.6,0.7,0.9
			s0.3,0.8,0.3,1.4c0,1.1-0.4,1.8-1.1,2.4c-0.7,0.5-1.7,0.8-3,0.8c-0.5,0-0.9,0-1.2-0.1c-0.4-0.1-0.7-0.1-1-0.2
			c-0.3-0.1-0.5-0.2-0.7-0.3c-0.2-0.1-0.4-0.2-0.5-0.2l0.4-1c0.1,0.1,0.3,0.1,0.5,0.2c0.2,0.1,0.4,0.2,0.7,0.3
			c0.3,0.1,0.6,0.2,0.9,0.2S187.7,53.1,188.1,53.1"/>
	</g>
</g>
</svg>
