<svg version="1.1" id="logo" xmlns="http://www.w3.org/2000/svg" x="0" y="0" viewBox="0 0 301.3 64.3" xml:space="preserve"><style>.st1{fill:#2c55a2}</style><path d="M7.9 0c4.3 0 7.7 3.4 7.7 7.6 0 4.2-3.5 7.6-7.7 7.6-4.3 0-7.7-3.4-7.7-7.6C.2 3.4 3.7 0 7.9 0zm-.2 18.1c4.3 0 7.7 3.4 7.7 7.6 0 4.2-3.5 7.6-7.7 7.6C3.5 33.4 0 30 0 25.7c0-4.2 3.5-7.6 7.7-7.6zm18.1-.1c4.3 0 7.7 3.4 7.7 7.6 0 4.2-3.5 7.6-7.7 7.6-4.3 0-7.7-3.4-7.7-7.6-.1-4.2 3.4-7.6 7.7-7.6zm0 18.1c4.3 0 7.7 3.4 7.7 7.6 0 4.2-3.5 7.6-7.7 7.6-4.3 0-7.7-3.4-7.7-7.6-.1-4.2 3.4-7.6 7.7-7.6zm18 0c4.3 0 7.7 3.4 7.7 7.6 0 4.2-3.5 7.6-7.7 7.6-4.3 0-7.7-3.4-7.7-7.6 0-4.2 3.4-7.6 7.7-7.6zm-36.1.2c4.3 0 7.7 3.4 7.7 7.6 0 4.2-3.5 7.6-7.7 7.6-4.3 0-7.7-3.4-7.7-7.6 0-4.2 3.5-7.6 7.7-7.6z" fill="#2c55a2" fill-rule="evenodd" clip-rule="evenodd"/><path class="st1" d="M61.5.4h11.2v49.5H61.5zm29.4 14.5c-2.6 0-5 .3-7.3.9-2.2.6-4.1 1.3-5.8 2.3l2 7.8c1.3-.7 2.7-1.2 4.2-1.5 1.5-.4 3.1-.6 4.7-.6 4.2 0 6.2 1.9 6.2 5.6v1.1c-1.2 0-2.5.1-4 .1s-3 .1-4.3.2c-3.6.3-6.5 1.2-8.4 2.8-2 1.6-3 4-3 7.2 0 1.4.2 2.6.7 3.8.4 1.2 1.1 2.2 1.9 3.1.8.9 1.8 1.6 3 2.1s2.6.8 4.1.8c2.2 0 4.2-.4 6.1-1.2 1.8-.8 3.3-1.8 4.4-2.8V50h10.8V30c0-5-1.4-8.7-4.1-11.2-2.6-2.7-6.3-3.9-11.2-3.9zm4.2 26.8c-.8.5-1.7.8-2.6 1.1-1 .3-2 .4-3 .4-1.1 0-1.9-.3-2.5-.8-.6-.5-.9-1.2-.9-2 0-1.9 1.1-2.9 3.4-3.2.8-.1 1.7-.2 2.6-.3.9-.1 1.9-.2 3-.3v5.1zm45.2-21.9c-1.3-1.6-2.8-2.8-4.7-3.6-1.8-.9-3.9-1.3-6.1-1.3-2.1 0-3.8.3-5.2.9-1.4.6-2.6 1.4-3.5 2.4V.4h-11.2v46.7c2.1 1.1 4.4 1.9 7 2.5 2.5.6 5.2.9 8 .9 3.3 0 6.2-.5 8.7-1.4 2.5-1 4.5-2.3 6.2-3.9 1.6-1.6 2.9-3.6 3.7-5.8s1.2-4.6 1.2-7c0-2.6-.4-4.9-1.1-7.1-.7-2.1-1.7-3.9-3-5.5zm-7.6 16.6c-.3 1.2-.8 2.2-1.5 3.1-.7.9-1.5 1.6-2.6 2.1s-2.3.8-3.8.8c-.7 0-1.5-.1-2.2-.2-.7-.1-1.3-.3-1.8-.6V25.3c1.6-1.3 3.4-1.9 5.5-1.9 2.3 0 4.1.8 5.1 2.5s1.6 3.9 1.6 6.7c.2 1.3 0 2.6-.3 3.8zm32.3-3.6c-1.2-.8-2.4-1.5-3.6-2-1.2-.5-2.1-.9-2.7-1.2-.7-.3-1.4-.7-2.1-1-.7-.3-1.4-.7-2.1-1.1-.6-.4-1.1-.8-1.5-1.3-.4-.5-.6-1.1-.6-1.8 0-1.5.6-2.5 1.7-3.1 1.1-.6 2.5-.8 4.1-.8 1.5 0 3 .2 4.4.5 1.5.3 2.9.9 4.2 1.5l1.1-4.8c-1.4-.7-2.9-1.2-4.6-1.6-1.7-.4-3.4-.6-5.2-.6-1.5 0-3 .2-4.5.5-1.4.4-2.7.9-3.8 1.6-1.1.7-2 1.7-2.7 2.9-.7 1.2-1 2.6-1 4.2 0 1.5.3 2.8.9 3.9.6 1.1 1.4 2 2.5 2.8 1 .8 2.1 1.5 3.3 2.1 1.2.6 2.4 1.1 3.6 1.6.9.4 1.7.7 2.6 1.1.8.4 1.5.8 2.1 1.2.6.4 1.1 1 1.5 1.5.4.6.6 1.3.6 2 0 1.6-.7 2.7-2.1 3.5-1.4.7-3.1 1.1-5.1 1.1-1.9 0-3.7-.2-5.2-.6-1.6-.4-3-.9-4.2-1.4l-1.1 5c.6.3 1.3.5 2.2.8.9.3 1.8.5 2.7.7.9.2 1.9.3 2.8.4.9.1 1.8.1 2.7.1 1.9 0 3.7-.2 5.3-.7 1.6-.5 3-1.2 4.2-2.1 1.2-.9 2.1-2 2.8-3.2.7-1.3 1-2.7 1-4.3 0-1.7-.4-3.2-1.3-4.4-.7-1.1-1.7-2.2-2.9-3zm23-12.2c1.4 0 2.7.1 4.1.4 1.4.3 2.7.7 3.9 1.2l.9-4.9c-1.2-.6-2.6-1-4.2-1.3-1.6-.3-3.4-.5-5.3-.5-2.8 0-5.3.5-7.4 1.4-2.1.9-3.9 2.2-5.3 3.8-1.4 1.6-2.5 3.5-3.2 5.6-.7 2.1-1.1 4.4-1.1 6.7s.4 4.6 1.1 6.7c.7 2.1 1.8 4 3.2 5.6 1.4 1.6 3.2 2.9 5.3 3.8 2.1.9 4.6 1.4 7.4 1.4 1.6 0 3.3-.2 5-.5 1.8-.3 3.2-.8 4.4-1.3l-.9-4.9c-1.2.5-2.5.9-3.9 1.2-1.4.3-2.7.4-4.1.4-3.8 0-6.6-1.2-8.4-3.5-1.8-2.3-2.7-5.3-2.7-9s.9-6.7 2.7-9c1.9-2.1 4.7-3.3 8.5-3.3zm112.3 5.3c-.7-2.1-1.6-3.9-2.7-5.5-1.2-1.5-2.6-2.7-4.2-3.6-1.6-.8-3.5-1.3-5.5-1.3-2.7 0-4.8.5-6.5 1.5-1.7 1-3.1 2.3-4.1 3.7v-4.6h-6v48.1h6.3V49.7c1 .3 2 .5 3 .7 1.1.2 2.3.2 3.6.2 2.4 0 4.7-.4 6.8-1.2 2.1-.8 3.9-1.9 5.4-3.5 1.5-1.5 2.7-3.4 3.6-5.6.9-2.2 1.3-4.7 1.3-7.5 0-2.5-.4-4.8-1-6.9zm-8.5 16.3c-2.1 2.2-4.9 3.3-8.4 3.3-1.1 0-2.2-.1-3.2-.2s-1.9-.4-2.7-.7V25.2c.9-1.1 2.1-2.2 3.5-3.1 1.4-1 3.2-1.4 5.3-1.4 1.4 0 2.7.3 3.8.9 1.1.6 2 1.4 2.7 2.5.7 1.1 1.3 2.4 1.6 3.8.3 1.5.5 3.1.5 4.8.1 4.2-1 7.3-3.1 9.5z"/><path class="st1" d="M214.2 15.5c-9.7 0-17.5 7.8-17.5 17.5s7.8 17.5 17.5 17.5 17.5-7.8 17.5-17.5c0-9.6-7.9-17.5-17.5-17.5zm0 29.6c-6.6 0-12-5.4-12-12s5.4-12 12-12 12 5.4 12 12-5.4 12-12 12zm37-29.6c-9.7 0-17.5 7.8-17.5 17.5s7.8 17.5 17.5 17.5 17.5-7.8 17.5-17.5c0-9.6-7.8-17.5-17.5-17.5zm0 29.6c-6.6 0-12-5.4-12-12s5.4-12 12-12 12 5.4 12 12-5.4 12-12 12z"/><path d="M43.8 18c4.3 0 7.7 3.4 7.7 7.6 0 4.2-3.5 7.6-7.7 7.6-4.3 0-7.7-3.4-7.7-7.6 0-4.2 3.4-7.6 7.7-7.6z" fill-rule="evenodd" clip-rule="evenodd" fill="#fec81e"/><path d="M25.8 0c4.3 0 7.7 3.4 7.7 7.6 0 4.2-3.5 7.6-7.7 7.6-4.3 0-7.7-3.4-7.7-7.6C18 3.4 21.5 0 25.8 0z" fill-rule="evenodd" clip-rule="evenodd" fill="#d8422e"/><path d="M43.6 0c4.3 0 7.7 3.4 7.7 7.6 0 4.2-3.5 7.6-7.7 7.6-4.3 0-7.7-3.4-7.7-7.6-.1-4.2 3.4-7.6 7.7-7.6z" fill-rule="evenodd" clip-rule="evenodd" fill="#41a048"/></svg>