<svg xmlns="http://www.w3.org/2000/svg" viewBox="0 0 147.2 75.3"><style>.st0{fill:#ebebec}.st1{fill:#2b56a7}.st2{fill:#ac9959}.st3{fill:#c6b481}.st4{fill:#6d6e71}.st5{fill:#d1d3d4}</style><g id="Layer_2"><path class="st0" d="M31.6 1.4h71.2v49H31.6z"/><path class="st1" d="M68.9 23.2c.1 0 .2.1.3.2.1.1.1.3.1.4 0 .5-.1 1-.1 1.5s-.1 1-.3 1.5c-.2.6-.4 1.2-.8 1.8-.4.5-.9.9-1.5 1.2-.3.1-.7.2-1 .2-.4 0-.7 0-1.1-.1s-.7-.2-1.1-.3c-.4-.1-.7-.3-1-.4-.6-.3-1.1-.7-1.6-1.2-.4-.5-.8-1-1.1-1.5-.3-.6-.6-1.2-.7-1.8-.2-.6-.3-1.3-.3-2-.1-1.3 0-2.7.3-4 .2-.7.4-1.4.7-2.1.3-.7.6-1.3 1.1-1.9.4-.5.9-.9 1.5-1.2.6-.3 1.2-.5 1.8-.5.7-.1 1.4 0 2.1.1.7.1 1.4.3 2 .5.2.1.3.2.4.3.1.2.1.3 0 .5 0 .2-.1.3-.3.4-.2.2-.4.2-.6.2-.6-.2-1.3-.4-1.9-.5-.6-.1-1.3-.2-2-.1h-.5c-.1 0-.1 0-.2.1H63s-.1 0-.1.1c-.1 0-.1.1-.2.1s-.1.1-.2.1c-.2.1-.4.3-.6.5-.2.2-.4.4-.5.7-.3.6-.6 1.2-.8 1.8-.2.6-.3 1.3-.4 1.9-.1.6-.2 1.2-.2 1.8 0 .6 0 1.3.1 1.8.1.6.3 1.2.5 1.7s.5 1 .9 1.5.9.9 1.4 1.2c.5.3 1.1.5 1.7.7.2 0 .3.1.5.1h.9l.2-.1h.1c.1 0 .1 0 0 0 .4-.2.8-.5 1-1 .3-.5.4-1 .5-1.5.1-.5.2-1.1.2-1.6-.5-.1-1.1-.2-1.6-.2h-1.6c-.2 0-.4-.1-.5-.2-.1-.1-.2-.3-.2-.5s.1-.3.2-.5c.1-.1.3-.2.5-.2.7 0 1.4 0 2.1.1.6 0 1.3.1 2 .4zm11.9-8.9c.2 1.2.2 2.5.2 3.7 0 1.3-.1 2.5-.2 3.8-.1 1.3-.2 2.5-.2 3.7-.1 1.2-.1 2.5-.1 3.7 0 .2 0 .4-.2.5-.1.1-.3.2-.4.2-.2 0-.3-.1-.5-.2-.1-.1-.2-.3-.2-.5v-3.3c.1-1.1.1-2.2.2-3.3.1-1.1.1-2.2.2-3.3.1-1.1.1-2.2 0-3.3-.6 1-1.1 2.1-1.6 3.2-.3.8-.6 1.5-.9 2.3-.3.8-.7 1.4-1.3 2-.1.2-.3.2-.5.2s-.4-.1-.5-.3c-.5-1.1-1-2.1-1.5-3.2s-1-2.1-1.5-3.2c0 2.1 0 4.2-.1 6.2 0 2.1-.2 4.1-.5 6.2 0 .2-.1.3-.3.4-.2.1-.3.1-.5.1-.2-.1-.3-.2-.4-.3-.1-.2-.1-.3-.1-.5.2-1.2.3-2.5.3-3.7.1-1.2.1-2.5.1-3.7v-7.4c0-.2 0-.3.1-.4.1-.1.2-.2.3-.2h.4c.1 0 .2.1.3.3.6 1.3 1.2 2.7 1.9 4 .6 1.3 1.3 2.6 1.9 4 .3-.5.6-1 .8-1.6s.4-1.1.6-1.7c.3-.9.7-1.7 1.2-2.5s1-1.6 1.5-2.3c.1-.1.2-.2.4-.2s.3 0 .4.1c.1.1.2.2.2.3.5-.1.5.1.5.2zm11.6 5.6c.1.6.2 1.3.2 1.9 0 .6 0 1.3-.1 1.9-.1.6-.3 1.2-.5 1.8-.2.6-.5 1.2-.9 1.7s-.8 1.1-1.3 1.6-1.1.9-1.7 1.1c-.6.3-1.2.4-1.8.4-.6 0-1.2-.2-1.7-.6-.6-.4-1-1-1.3-1.6-.3-.7-.5-1.3-.7-2-.2-.7-.3-1.4-.4-2.1-.1-.7-.1-1.4-.1-2.2 0-.7.1-1.4.2-2.1.1-.7.2-1.4.5-2.1s.5-1.3.9-1.9c.4-.6.8-1.1 1.4-1.6.2-.2.4-.2.7-.2.1-.1.2-.1.4-.1.8 0 1.6.1 2.4.4.8.3 1.4.8 2 1.4.5.6 1 1.2 1.3 2s.3 1.5.5 2.3zm-1.2 2.5c0-.6 0-1.2-.1-1.8-.1-.6-.2-1.1-.4-1.7-.2-.5-.4-1-.7-1.5-.3-.5-.6-.9-1.1-1.3-.2-.1-.4-.3-.6-.4-.2-.1-.5-.3-.7-.3-.3-.1-.6-.2-.9-.2h-1.1c-.4.4-.8.8-1.1 1.3-.3.5-.5 1-.7 1.5-.2.5-.3 1.1-.4 1.6-.1.6-.2 1.1-.2 1.7-.1 1.4 0 2.8.3 4.2.1.3.2.6.2.9l.3.9c0 .1.1.3.2.4.1.2.2.3.2.4l.3.3.2.2c.1.1.2.2.3.2.1 0 .2.1.3.1h1.3c.1 0 .1 0 .2-.1.1 0 .2-.1.3-.1.1-.1.3-.1.4-.2.5-.3 1-.7 1.4-1.2.4-.5.8-1 1.1-1.6.1-.2.2-.3.2-.4 0-.1.1-.2.1-.3 0-.1.1-.3.1-.4 0-.1.1-.3.1-.4.1-.3.1-.6.2-.8.3-.4.3-.7.3-1zM62.9 39.1c.1 0 .2 0 .2.1s.1.1.1.2 0 .2-.1.2c-.1.1-.1.1-.2.1h-3c-.1 0-.1.1-.2.1s-.2 0-.2-.1c-.1-.1-.1-.1-.1-.2.1-1.3.2-2.5.2-3.8v-3.8c0-.1 0-.2.1-.2.1-.1.1-.1.2-.1s.2 0 .2.1c.1.1.1.1.1.2v3.6c0 1.2-.1 2.4-.2 3.6h2.9zm4.4.8v.2c0 .1-.1.1-.2.1h-.2c-.1 0-.1-.1-.2-.2-.1-.4-.2-.8-.4-1.2-.1-.4-.2-.8-.4-1.2h-1.7c0 .3-.1.7-.1 1 0 .3-.1.6-.1 1 0 .1-.1.2-.1.2h-.2c-.1 0-.2-.1-.2-.1v-.2c.1-.3.1-.7.1-1 0-.3.1-.6.1-1 0-.1-.1-.1 0-.2s0-.1.1-.2c.1-.8.2-1.7.2-2.5.1-.8.2-1.7.4-2.5 0-.1 0-.1.1-.2.1 0 .1-.1.2 0 .1 0 .1 0 .2.1s.1.1.1.2c.2.6.4 1.3.6 1.9.2.6.4 1.3.6 1.9.2.6.4 1.3.6 1.9.1.7.3 1.3.5 2zm-1.5-2.8c-.2-.6-.3-1.2-.5-1.7-.2-.6-.3-1.2-.5-1.8-.1.6-.2 1.2-.2 1.8-.1.6-.1 1.2-.2 1.7h1.4zm3-.1c.2 0 .4.1.7.1.2.1.5.1.7.2.2.1.4.2.5.4.1.2.2.4.2.6 0 .4-.1.7-.3.9-.2.2-.5.4-.8.5-.3.1-.6.2-.9.2-.3 0-.6 0-.9.1h-.3c-.1 0-.2-.1-.2-.3 0-1.3 0-2.5.1-3.8 0-1.3.1-2.5 0-3.8 0-.1 0-.2.1-.3h.3c.1 0 .3-.1.4-.1h.5c.3.1.6.2.9.4.3.2.5.4.7.7.2.3.2.5.3.9 0 .3 0 .6-.2.9-.1.3-.3.6-.5.9-.2.3-.4.6-.7.8l-.3.3c-.1.2-.2.3-.3.4zm1.3 1.4v-.3h-.4c-.1 0-.2-.1-.3-.1-.1 0-.2-.1-.3-.1H68v1.8h.6c.2 0 .3 0 .5-.1.1 0 .3 0 .4-.1.1 0 .3-.1.3-.2l.2-.2c0-.1.1-.1.1-.2v-.5c0 .1 0 .1 0 0zm-1.8-5.9c-.1 0-.1 0 0 0h-.2v4.2h.1c.1 0 .1-.1.2-.1s.1-.1.2-.1c.1-.1.2-.2.4-.3l.3-.3c.2-.2.4-.5.5-.8.2-.3.3-.6.3-.9v-.3c0-.1 0-.2-.1-.3-.1-.1-.1-.2-.3-.3l-.3-.3c-.1-.1-.3-.2-.4-.2-.1-.1-.3-.1-.4-.1h-.3v-.2zm6.6 3.2c.2.3.4.7.5 1.1.1.4.1.8 0 1.2-.1.4-.2.7-.5 1.1-.2.3-.5.6-.9.8l-.9.3c-.3 0-.6 0-.9-.1-.3-.1-.6-.3-.8-.5s-.4-.5-.4-.9v-.3c0-.1.1-.1.2-.1h.2c.1 0 .1.1.1.2 0 .2.1.3.2.5 0 0 .1.1.1.2l.1.1c.2.2.4.2.7.3h.4c.1 0 .3-.1.4-.1.3-.1.5-.3.7-.5.1-.2.2-.3.3-.5.1-.2.2-.4.2-.6.1-.4 0-.7-.1-1-.1-.3-.3-.6-.5-.9l-.7-.7c-.3-.2-.5-.4-.8-.5-.2-.1-.5-.3-.7-.5-.2-.2-.5-.3-.6-.5-.1-.1-.2-.2-.2-.3-.1-.1-.1-.2-.2-.3v-.4c0-.1.1-.2.1-.3.1-.1.2-.3.4-.3.1-.1.3-.2.4-.2.2-.1.4-.1.6-.2h.6c.4.1.7.3 1 .6.3.3.5.6.6.9v.2c0 .1-.1.1-.1.2h-.2c-.1 0-.2-.1-.2-.1l-.3-.6c-.1-.2-.3-.3-.4-.4-.1-.1-.3-.2-.4-.2h-.5c-.2 0-.4.1-.5.2-.1 0-.1.1-.2.1s-.1.1-.1.1v.1l.1.1.1.1c.2.2.4.3.6.5.2.1.5.3.7.4l.9.6c.4.6.7.8.9 1.1zm1.6 3.8v.6c0 .1 0 .2-.1.2 0 .1-.1.2-.1.2l-.2.2h-.3c-.1 0-.1-.1-.1-.2v-1c0-.1.1-.1.2-.2h.2c.4 0 .4.1.4.2zm3.5-7.4c0 1.3 0 2.5.1 3.7 0 1.2.1 2.5.1 3.7 0 .1 0 .2-.1.2-.1.1-.1.1-.2.1s-.2 0-.2-.1c-.1-.1-.1-.1-.1-.2 0-1.3 0-2.5-.1-3.7 0-1.2-.1-2.5-.1-3.7 0-.1 0-.2.1-.2.1-.1.1-.1.2-.1s.2 0 .2.1c0 0 .1.1.1.2zm5.9 0c-.1.7-.2 1.3-.3 2-.1.7-.1 1.4-.2 2v1.8c0 .3 0 .6-.1.9 0 .3-.1.6-.2.9 0 .1-.1.1-.1.2s-.1.1-.1.1h-.2c-.1 0-.1-.1-.1-.1-.1-.3-.3-.5-.5-.8-.2-.2-.4-.5-.5-.8-.4-.5-.7-1.1-1-1.6-.2-.5-.4-.9-.6-1.4v4.2c0 .1 0 .2-.1.2-.1.1-.1.1-.2.1s-.2 0-.2-.1c-.1-.1-.1-.1-.1-.2v-6.4c0-.1 0-.2.1-.2.1-.1.1-.1.2-.1h.2c.1 0 .1.1.1.2.1.6.3 1.2.5 1.8.2.6.4 1.2.7 1.7.1.3.3.6.5.8.2.3.3.5.5.8.1.1.2.3.3.4s.2.3.3.4c.1-.5.1-1 .1-1.4v-1.4c0-.3 0-.7.1-1 0-.3.1-.7.1-1l.3-2.1c0-.1.1-.1.1-.2.1 0 .2-.1.2 0 .1 0 .1.1.2.1v.2zm5.5 7.2c.1 0 .2 0 .2.1.1.1.1.1.1.2s0 .2-.1.2-.1.1-.2.1c-.4.1-.8.1-1.1.1h-1.1c-.2 0-.4-.1-.6-.1-.2 0-.4-.1-.5-.1-.2-.1-.3-.1-.5-.2s-.3-.1-.4-.2c-.5-.4-.8-.9-.9-1.5-.1-.3-.1-.6-.1-.9v-.9c0-.3.1-.6.1-.9.1-.3.1-.6.3-.9.1-.3.2-.6.4-.8.2-.3.4-.5.6-.7.3-.2.5-.4.8-.5.3-.1.6-.2.9-.2h.9c.3 0 .6.1.9.2.1 0 .2.1.2.2v.2c0 .1-.1.1-.1.2-.1.1-.1.1-.2 0-.2-.1-.5-.1-.7-.2-.2 0-.5-.1-.7 0-.2 0-.4 0-.6.1-.2 0-.4.1-.5.2-.3.2-.6.4-.9.7-.2.3-.4.7-.5 1-.1.3-.2.6-.2 1 0 .3-.1.7-.1 1v1c0 .2 0 .3.1.5 0 .2.1.3.2.4l.6.6c.4.2.7.3 1.1.4.4.1.8.1 1.3.1.5-.3.9-.3 1.3-.4zm.9.1c.1 0 .2 0 .2.1.1.1.1.1.1.2s0 .2-.1.2c0 .1-.1.1-.2.1s-.2 0-.2-.1-.1-.1-.1-.2 0-.2.1-.2.1-.1.2-.1zm-36.8-4.8c-1.3-2.5-3.2-5.3-3.2-8.2v-6.7c0-.1 0-.2-.1-.3-.1-.2-.3-.4-.6-.3-1.6.1-3.2-.1-4.7-.1-.3 0-.7.3-.7.7.1 2.2.2 4.6.4 6.8.2 3-1.9 5.8-3.3 8.4-.8 1.5-2.7 4-.4 5.1.6.3 1.4.1 2.1.1h4.5c2 0 4.5.5 6.4-.1 2.6-.9.4-4.1-.4-5.4zM47.9 26c-.1-1.9-.2-3.9-.3-5.8 1.1 0 2.3.1 3.4.1 0 3.9-.2 7.6 1.5 11.2-.8.2-1.7-.3-2.4.2-.9.6-1.3.7-2.2.1-.5-.3-.9-.4-1.3-.4.8-1.7 1.4-3.4 1.3-5.4z"/><circle class="st1" cx="49" cy="14.5" r="1.8"/><circle class="st1" cx="51.5" cy="10.9" r="1.1"/><path class="st2" d="M116.3 49.7l15.1 7.2 14.9-7.4-.2 14.4-15 7.3-14.7-7.5z"/><path class="st3" d="M146.3 49.5l-14.9 7.4-15.1-7.2 15.1-8.3z"/><path class="st2" d="M103.2 24.4l7.8 4.1 14.8-7.5-.1 14.5-15 7.2-7.4-4.3z"/><path class="st3" d="M125.8 21L111 28.5l-8.2-4.4-.3-6.6 8.5-4.6z"/><path class="st1" d="M102.9 50.4l-70.6.3-.5-29.3-22.9 2.3L1.3 46l.8 18.2 10.5.3s-.2-10.7 10-10.7 9.9 8.5 10.2 10.5l35.7.1s.4-10 10.1-10.1S88.9 64 88.9 64h4.6l9.7-6.3-.3-7.3z"/><path class="st0" d="M21.8 41.5l.4-13-11.3 1.4-5 13.4z"/><circle class="st4" cx="78.7" cy="64.2" r="10.1"/><circle class="st4" cx="22.7" cy="63.9" r="10.1"/><circle class="st5" cx="22.7" cy="63.9" r="5"/><circle class="st5" cx="78.8" cy="64.3" r="5"/><path d="M12.5 62.8c-3.5.1-6.9.4-10.3.2-1.4-.1-1.3 2.1.1 2.2 3.4.2 6.9-.1 10.3-.2 1.3 0 1.3-2.2-.1-2.2zm55.8.3c-11.9 0-23.8.3-35.7-.1-1.3 0-1.2 2 0 2 11.9-.1 23.8-.1 35.7 0 1.2 0 1.2-1.9 0-1.9zm26 .4c-1.8-.2-3.6-.4-5.4-.5-1.2-.1-1.1 1.9 0 1.8 1.8-.1 3.6-.4 5.4-.6.5 0 .5-.6 0-.7zm9.6-13.4c-10.6-1.1-21.7-.6-32.4-.5-13 .1-26.1.4-39 .1-1.4 0-1.4 2.1.1 2.2 12.9.6 26.1-.8 39-.5 10.8.2 21.7.7 32.4-.5.4-.1.4-.8-.1-.8zM31.4 1.9c12.2 1.5 24.9.3 37.2.5 10.9.2 21.8 0 32.7.1 1.4 0 1.4-2.2-.1-2.2C91 .1 80.6.6 70.3.7c-12.8.1-26-1.2-38.8.5-.4 0-.5.7-.1.7z"/><path d="M31.2 1.6c-.3 5.1-.2 10.1-.1 15.2.1 5.7 0 11.4.1 17.1.1 5.5.1 11 0 16.5 0 1.2 1.9 1.4 2.1.2 1-4.6.2-10.2-.2-14.9-.5-5.7-1-11.4-.5-17.1.6-5.6.3-11.6-.7-17.1-.1-.4-.7-.3-.7.1zM101.8.5c-1.7 5-.5 10.9-.5 16.1 0 6.9.1 13.7.4 20.6.3 6.8-.1 13.6.7 20.3.1 1 1.5 1 1.5 0 .1-6.7.3-13.5.1-20.3-.2-6.3-.2-12.6-.1-18.9.1-5.8 1.2-12.2-.8-17.8-.2-.7-1.1-.6-1.3 0zM115.5 50c3.8 4.2 10.6 4.8 15.3 7.8 1.1.7 2.1-1.1 1-1.8-2.1-1.3-4.4-2.3-6.7-3.2-3.1-1.2-5.8-2.6-8.7-4.1-.8-.3-1.5.7-.9 1.3zm.5 14.2c4.6 3.4 9.7 5.7 15 7.7.8.3 1.2-1.1.3-1.4-5.3-1.7-9.6-5.8-15.1-7-.4-.1-.6.5-.2.7zM130.8 42c4.6 3.4 9.7 5.7 15 7.7.8.3 1.2-1.1.3-1.4-5.3-1.7-9.6-5.8-15.1-7-.4-.1-.5.5-.2.7zm-6.9 3.5c4.6 3.4 9.7 5.7 15 7.7.8.3 1.2-1.1.3-1.4-5.3-1.7-9.6-5.8-15.1-7-.4 0-.5.5-.2.7z"/><path d="M130.5 57.4c-1 4.2-.6 9.3-.1 13.5.1.6 1.1.9 1.2.1.6-4.3.9-9.4-.1-13.7-.1-.4-.9-.4-1 .1zm-15-7.5c-.4 4.6-.4 9.1-.3 13.7 0 1.4 2.2 1.3 2.1-.1-.2-4.6-.2-9.2-1.2-13.8 0-.3-.6-.1-.6.2z"/><path d="M146.1 48.8c-5.3 2.1-10.6 4.7-15.6 7.4-1.2.6-.1 2.3 1.1 1.7 4.9-2.6 11.1-4.2 15.3-7.9.5-.5-.1-1.5-.8-1.2zm-.1 14.7c-5.3 1.4-10 5.1-15.1 7-.9.3-.4 1.7.4 1.4 4.9-2.1 11.2-3.8 15.1-7.8.3-.2 0-.7-.4-.6zm-14.7-22.3c-5.3 1.4-10 5.1-15.1 7-.9.3-.4 1.7.4 1.4 4.9-2.1 11.2-3.8 15.1-7.8.3-.3 0-.7-.4-.6z"/><path d="M145.8 49.8c-.4 4.6-.6 9.2-.9 13.8-.1 1.4 2.1 1.3 2.1-.1.2-4.6.3-9.4-.6-13.9 0-.4-.6-.2-.6.2zM1.1 45c-1 2.9-.7 6-.6 9.1.1 3.5.2 7 .4 10.5.1 1.3 1.9 1.2 1.9 0 .1-3.5-.2-7-.4-10.5-.2-3-.1-6.1-.9-9.1 0-.2-.3-.2-.4 0z"/><path d="M9 22.9c-2.2 2.6-3 6.1-4 9.3-1.4 4.6-3.4 9-5 13.5-.4 1.2 1.6 1.8 2 .5 2.4-7.5 6.5-15.1 7.5-23 0-.3-.3-.6-.5-.3z"/><path d="M8.5 23.8c3.1.8 6.4.1 9.5-.2 4.2-.4 8.3-.7 12.5-.7 1.4 0 1.4-2.2-.1-2.2-3.7 0-7.3.2-10.9.6-3.6.3-7.7.3-11 1.7-.4.1-.4.7 0 .8zm1.8 5.3c-1 4.8-4.3 8.7-5 13.6-.2 1.2 1.6 1.6 1.8.4.6-4.8 4.4-9 4.1-13.9 0-.5-.8-.6-.9-.1zm11.8-1.4c-.8 4.6-1 9.7-.9 14.4 0 .8 1.4 1 1.5.2.7-4.7.7-9.9-.1-14.5-.1-.3-.5-.3-.5-.1z"/><path d="M5.5 44c5.4-.2 11.3-.3 16.5-1.6 1-.3.8-1.9-.3-1.8-2.7.1-5.5.7-8.2 1-2.8.3-5.8 0-8.3 1.5-.5.2-.2 1 .3.9zm4.9-13.5c3.8-.3 7.8-.6 11.6-1.1 1-.1 1-1.8 0-1.6-3.8.5-8.1.2-11.7 1.8-.6.1-.6.9.1.9zM102 51c-.3 2.2.1 4.4-.1 6.6-.1 1.2 1.8 1.2 1.9 0 .1-2.2-.3-4.4-.9-6.5-.1-.5-.8-.6-.9-.1z"/><path d="M93.3 64.5c1.7-.8 3.3-1.5 5-2.4 1.7-.9 3-2 4.5-3.2.6-.4.1-1.3-.6-.9-1.6.9-3.3 1.5-4.9 2.4-1.6 1-3.1 2.1-4.6 3.3-.5.4.1 1 .6.8zM23 53.8c-6.1-1.6-10.7 3.5-11.1 9.4-.5 6.8 3.6 11.5 10.5 11.9 7.5.4 12.2-6.4 11.2-13.4-.9-6.6-9.2-11.4-15.2-7.9-.6.4-.2 1.3.5 1.1 6.3-1.8 12 2.1 12.7 8.6.6 5.9-5.2 9.7-10.5 9.1-5-.6-7.4-4.9-7.4-9.6.1-5.4 3.8-9 9.1-8.5.6.2.6-.6.2-.7z"/><path d="M20.3 67.6c-.4-.8-1.4-1.2-1.7-2.1-.3-.8-.4-2.1-.2-2.9.6-2.3 2.5-4 4.9-3.3 2.9.8 4.8 4.4 3.3 7-.6 1.1-2 1.8-3.2 1.9-1.8.2-2.8-1.1-4.3-1.5-.5-.1-1.1.4-.9.9.8 1.7 3.1 2.5 4.9 2.5 1.8 0 3.3-1.1 4.3-2.6 2.2-3.4.6-7.8-3-9.4-2.9-1.3-5.8 1-6.9 3.6-.6 1.4-.8 2.8-.3 4.2.4 1 1.6 2.6 2.9 2.1.2 0 .3-.2.2-.4zm58.1 6.5c6.1 1.6 10.7-3.5 11.1-9.4C90 58 85.9 53.3 79 52.9c-7.5-.4-12.2 6.4-11.2 13.4.9 6.6 9.2 11.4 15.2 7.9.6-.4.2-1.3-.5-1.1-6.3 1.8-12-2.1-12.7-8.6-.6-5.9 5.2-9.7 10.5-9.1 5 .6 7.4 4.9 7.4 9.6-.1 5.4-3.8 9-9.1 8.5-.5-.2-.6.5-.2.6z"/><path d="M81.2 60.3c.4.8 1.4 1.2 1.7 2.1.3.8.4 2.1.2 2.9-.6 2.3-2.5 4-4.9 3.3-2.9-.8-4.8-4.4-3.3-7 .6-1.1 2-1.8 3.2-1.9 1.8-.2 2.8 1.1 4.3 1.5.5.1 1.1-.4.9-.9-.8-1.7-3.1-2.5-4.9-2.5-1.8 0-3.3 1.1-4.3 2.6-2.2 3.4-.6 7.8 3 9.4 2.9 1.3 5.8-1 6.9-3.6.6-1.4.8-2.8.3-4.2-.4-1-1.6-2.6-2.9-2.1-.3.1-.3.3-.2.4zm21-36.1c.4 1 1.5 1.4 2.5 1.8 2.1.9 4.1 2 6.1 3.3 1.1.7 2.1-1.1 1-1.8-2.7-1.7-5.8-2.7-8.5-4.4-.8-.3-1.4.5-1.1 1.1zm.3 14.9c.1.7 1.5 1.3 2.1 1.7.8.5 1.6 1 2.4 1.3 1.2.6 2.6.6 3.8 1.3.9.5 1.5-1.1.5-1.3-1.3-.3-2.5-1.3-3.7-1.9-.9-.4-1.8-.7-2.7-1-.4-.2-2.5-1.2-2.4-.1zm8.2-25.6c4.6 3.4 9.7 5.7 15 7.7.8.3 1.2-1.1.3-1.4-5.3-1.7-9.6-5.8-15.1-7-.3-.1-.5.4-.2.7zm-6.9 3.5c4.6 3.4 9.7 5.7 15 7.7.8.3 1.2-1.1.3-1.4-5.3-1.7-9.6-5.8-15.1-7-.4-.1-.5.4-.2.7z"/><path d="M110.4 28.9c-1 4.2-.6 9.3-.1 13.5.1.6 1.1.9 1.2.1.6-4.3.9-9.4-.1-13.7-.1-.5-.9-.4-1 .1z"/><path d="M126 20.2c-5.3 2.1-10.6 4.7-15.6 7.4-1.2.6-.1 2.3 1.1 1.7 4.9-2.6 11.1-4.2 15.3-7.9.5-.4-.1-1.5-.8-1.2zm0 14.8c-5.3 1.4-10 5.1-15.1 7-.9.3-.4 1.7.4 1.4 4.9-2.1 11.2-3.8 15.1-7.8.2-.3-.1-.7-.4-.6zm-14.8-22.4c-3.4.7-6.1 3-9.3 4.1-.9.3-.4 1.7.4 1.4 3.2-1.3 6.8-2.1 9.2-4.8.4-.4.1-.8-.3-.7z"/><path d="M125.7 21.2c-.4 4.6-.6 9.2-.9 13.8-.1 1.4 2.1 1.3 2.1-.1.2-4.6.3-9.4-.6-13.9 0-.3-.6-.1-.6.2z"/></g></svg>