<?xml version="1.0" encoding="utf-8"?>
<!-- Generator: Adobe Illustrator 23.0.1, SVG Export Plug-In . SVG Version: 6.00 Build 0)  -->
<svg version="1.1" id="Capa_1" xmlns="http://www.w3.org/2000/svg" xmlns:xlink="http://www.w3.org/1999/xlink" x="0px" y="0px"
	 viewBox="0 0 548.3 548.3" style="enable-background:new 0 0 548.3 548.3;" xml:space="preserve">
<style type="text/css">
	.st0{fill:#35A248;}
</style>
<g>
	<path class="st0" d="M486.2,196.1H473v-63.5c0-0.4-0.1-0.8-0.1-1.2c0-2.5-0.8-5-2.6-7L364.7,3.7c0,0-0.1,0-0.1-0.1
		c-0.6-0.7-1.4-1.3-2.1-1.8c-0.2-0.2-0.5-0.3-0.7-0.4c-0.7-0.4-1.4-0.7-2.1-0.9c-0.2-0.1-0.4-0.1-0.6-0.2c-0.8-0.2-1.6-0.3-2.5-0.3
		H96.8C84.9,0,75.3,9.6,75.3,21.5v174.6H62.1c-17,0-30.7,13.8-30.7,30.7v159.8c0,17,13.8,30.7,30.7,30.7h13.2v109.4
		c0,11.9,9.6,21.5,21.5,21.5h354.8c11.9,0,21.5-9.6,21.5-21.5V417.4h13.2c17,0,30.7-13.8,30.7-30.7V226.9
		C516.9,209.9,503.2,196.1,486.2,196.1z M96.8,21.5h249.1v110c0,5.9,4.8,10.8,10.8,10.8h95v53.9H96.8V21.5z M314.6,314.7
		c-21.1-7.4-34.9-19-34.9-37.5c0-21.7,18.1-38.3,48.1-38.3c14.3,0,24.9,3,32.4,6.4l-6.4,23.2c-5.1-2.4-14.1-6-26.6-6
		s-18.5,5.7-18.5,12.3c0,8.1,7.2,11.7,23.6,17.9c22.4,8.3,33,20,33,37.9c0,21.3-16.4,39.4-51.3,39.4c-14.5,0-28.9-3.8-36-7.7
		l5.8-23.8c7.7,4,19.6,7.9,31.9,7.9c13.2,0,20.2-5.5,20.2-13.8C335.9,324.7,329.9,320.1,314.6,314.7z M265.9,343.9v24.2h-79.4V240.9
		h28.9v103H265.9z M94.2,368.1H61.4l36.8-64.4l-35.5-62.8h33l11.1,23.2c3.8,7.7,6.6,14,9.6,21.1h0.4c3-8.1,5.5-13.8,8.7-21.1
		l10.8-23.2h32.8l-35.8,62.1L171,368h-33.2l-11.5-23c-4.7-8.9-7.7-15.5-11.3-22.8h-0.4c-2.6,7.4-5.8,14-9.8,22.8L94.2,368.1z
		 M451.5,521H96.8V417.4h354.8L451.5,521L451.5,521z M451.7,368.1l-11.5-23c-4.7-8.9-7.7-15.5-11.3-22.8h-0.4
		c-2.6,7.4-5.9,14-9.8,22.8l-10.6,23h-32.8l36.8-64.4l-35.5-62.8h33l11.1,23.2c3.8,7.7,6.6,14,9.6,21.1h0.4c3-8.1,5.5-13.8,8.7-21.1
		l10.8-23.2H483l-35.8,62.1l37.7,65.1L451.7,368.1L451.7,368.1L451.7,368.1z"/>
</g>
</svg>
