<?xml version="1.0" encoding="UTF-8" standalone="no"?>
<!-- Created with Inkscape (http://www.inkscape.org/) -->

<svg
   version="1.1"
   id="svg2"
   width="666.66669"
   height="202.66667"
   viewBox="0 0 666.66669 202.66667"
   sodipodi:docname="ever-loan.ai"
   xmlns:inkscape="http://www.inkscape.org/namespaces/inkscape"
   xmlns:sodipodi="http://sodipodi.sourceforge.net/DTD/sodipodi-0.dtd"
   xmlns="http://www.w3.org/2000/svg"
   xmlns:svg="http://www.w3.org/2000/svg">
  <defs
     id="defs6">
    <clipPath
       clipPathUnits="userSpaceOnUse"
       id="clipPath16">
      <path
         d="M 0,152 H 500 V 0 H 0 Z"
         id="path14" />
    </clipPath>
  </defs>
  <sodipodi:namedview
     id="namedview4"
     pagecolor="#ffffff"
     bordercolor="#000000"
     borderopacity="0.25"
     inkscape:showpageshadow="2"
     inkscape:pageopacity="0.0"
     inkscape:pagecheckerboard="0"
     inkscape:deskcolor="#d1d1d1" />
  <g
     id="g8"
     inkscape:groupmode="layer"
     inkscape:label="ever-loan"
     transform="matrix(1.3333333,0,0,-1.3333333,0,202.66667)">
    <g
       id="g10">
      <g
         id="g12"
         clip-path="url(#clipPath16)">
        <g
           id="g18"
           transform="translate(371.2011,33.8746)">
          <path
             d="m 0,0 c 0,5.138 3.788,9.057 8.958,9.057 4.347,0 7.212,-2.702 8.068,-5.5 L 13.898,2.306 C 13.273,4.545 11.494,5.928 9.057,5.928 5.895,5.928 3.491,3.557 3.491,0 c 0,-3.557 2.404,-5.928 5.566,-5.928 2.469,0 4.315,1.383 4.94,3.59 L 17.124,-3.59 C 16.268,-6.323 13.404,-9.057 8.99,-9.057 3.854,-9.057 0,-5.203 0,0"
             style="fill:#f15a29;fill-opacity:1;fill-rule:nonzero;stroke:none"
             id="path20" />
        </g>
        <g
           id="g22"
           transform="translate(404.7276,33.9068)">
          <path
             d="m 0,0 c 0,3.493 -2.239,5.962 -5.564,5.962 -3.162,0 -5.534,-2.568 -5.534,-5.962 0,-3.456 2.338,-5.992 5.534,-5.992 C -2.271,-5.992 0,-3.523 0,0 M 3.36,8.664 V -8.693 H 0.134 v 2.832 c -1.319,-2.009 -3.427,-3.228 -6.126,-3.228 -4.975,0 -8.565,3.886 -8.565,9.089 0,5.138 3.625,8.827 8.565,8.827 2.699,0 4.807,-1.118 6.126,-3.095 v 2.932 z"
             style="fill:#f15a29;fill-opacity:1;fill-rule:nonzero;stroke:none"
             id="path24" />
        </g>
        <g
           id="g26"
           transform="translate(426.8247,33.8746)">
          <path
             d="m 0,0 c 0,3.459 -2.338,5.994 -5.532,5.994 -3.292,0 -5.598,-2.469 -5.598,-5.994 0,-3.523 2.271,-5.96 5.598,-5.96 C -2.37,-5.96 0,-3.424 0,0 m 3.459,0 c 0,-5.17 -3.622,-9.057 -8.563,-9.057 -2.503,0 -4.512,0.99 -5.863,2.702 v -8.202 h -3.491 V 8.696 h 3.229 V 5.962 c 1.383,1.942 3.523,3.095 6.192,3.095 4.973,0 8.496,-3.886 8.496,-9.057"
             style="fill:#f15a29;fill-opacity:1;fill-rule:nonzero;stroke:none"
             id="path28" />
        </g>
        <path
           d="m 433.608,42.57 h 3.491 V 25.213 h -3.491 z m -0.789,5.433 c 0,1.45 1.118,2.504 2.536,2.504 1.415,0 2.536,-1.054 2.536,-2.504 0,-1.45 -1.121,-2.437 -2.536,-2.437 -1.418,0 -2.536,0.987 -2.536,2.437"
           style="fill:#f15a29;fill-opacity:1;fill-rule:nonzero;stroke:none"
           id="path30" />
        <g
           id="g32"
           transform="translate(442.6974,31.2745)">
          <path
             d="m 0,0 v 8.298 h -3.095 v 2.998 h 1.68 c 1.118,0 1.613,0.559 1.613,1.68 v 2.798 H 3.59 V 11.296 H 8.431 V 8.298 H 3.459 V 0.361 c 0,-2.174 1.152,-3.359 3.228,-3.359 H 8.629 V -6.061 H 5.994 C 2.076,-6.061 0,-3.723 0,0"
             style="fill:#f15a29;fill-opacity:1;fill-rule:nonzero;stroke:none"
             id="path34" />
        </g>
        <g
           id="g36"
           transform="translate(467.0358,33.9068)">
          <path
             d="m 0,0 c 0,3.493 -2.239,5.962 -5.564,5.962 -3.162,0 -5.534,-2.568 -5.534,-5.962 0,-3.456 2.338,-5.992 5.534,-5.992 C -2.271,-5.992 0,-3.523 0,0 M 3.36,8.664 V -8.693 H 0.134 v 2.832 c -1.319,-2.009 -3.427,-3.228 -6.126,-3.228 -4.975,0 -8.565,3.886 -8.565,9.089 0,5.138 3.625,8.827 8.565,8.827 2.699,0 4.807,-1.118 6.126,-3.095 v 2.932 z"
             style="fill:#f15a29;fill-opacity:1;fill-rule:nonzero;stroke:none"
             id="path38" />
        </g>
        <path
           d="m 474.675,49.287 h 3.491 V 25.213 h -3.491 z"
           style="fill:#f15a29;fill-opacity:1;fill-rule:nonzero;stroke:none"
           id="path40" />
        <g
           id="g42"
           transform="translate(170.0614,68.8806)">
          <path
             d="m 0,0 v -7.803 h -37.747 v 58.298 h 37.242 v -7.8 H -28.856 V 26.085 H -3.357 V 18.369 H -28.856 V 0 Z"
             style="fill:#002c51;fill-opacity:1;fill-rule:nonzero;stroke:none"
             id="path44" />
        </g>
        <g
           id="g46"
           transform="translate(215.6137,105.2843)">
          <path
             d="M 0,0 -17.446,-44.206 H -27.597 L -45.045,0 h 9.228 L -22.481,-35.733 -9.228,0 Z"
             style="fill:#002c51;fill-opacity:1;fill-rule:nonzero;stroke:none"
             id="path48" />
        </g>
        <g
           id="g50"
           transform="translate(250.9339,86.9971)">
          <path
             d="M 0,0 C -1.175,7.466 -6.291,12.08 -13.085,12.08 -19.965,12.08 -25.667,7.635 -27.01,0 Z m -12.498,-19.039 c 6.627,0 10.316,2.432 12.33,7.045 l 7.298,-4.613 c -3.355,-5.874 -9.312,-10.319 -19.881,-10.319 -13.923,0 -23.151,9.898 -23.151,23.069 0,12.832 9.983,23.151 22.481,23.151 13.673,0 22.144,-10.737 22.144,-22.146 0,-1.51 -0.084,-3.103 -0.168,-3.941 h -35.649 c 1.343,-7.551 7.129,-12.246 14.596,-12.246"
             style="fill:#002c51;fill-opacity:1;fill-rule:nonzero;stroke:none"
             id="path52" />
        </g>
        <g
           id="g54"
           transform="translate(287.5949,106.2912)">
          <path
             d="m 0,0 v -8.305 c -7.884,-0.084 -13.085,-4.782 -13.085,-10.989 v -25.919 h -8.891 v 44.206 h 8.389 V -6.628 C -10.653,-2.852 -5.786,0 0,0"
             style="fill:#002c51;fill-opacity:1;fill-rule:nonzero;stroke:none"
             id="path56" />
        </g>
        <g
           id="g58"
           transform="translate(331.7222,73.5761)">
          <path
             d="M 0,0 V -12.498 H -39.929 V 45.8 h 14.01 V 0 Z"
             style="fill:#002c51;fill-opacity:1;fill-rule:nonzero;stroke:none"
             id="path60" />
        </g>
        <g
           id="g62"
           transform="translate(365.6991,83.2244)">
          <path
             d="m 0,0 c 0,6.289 -3.941,10.653 -10.064,10.653 -6.125,0 -10.15,-4.364 -10.15,-10.737 0,-6.207 4.025,-10.737 10.15,-10.737 C -4.025,-10.821 0,-6.375 0,0 m -34.306,-0.084 c 0,13.253 10.064,23.151 24.158,23.151 14.176,0 24.242,-9.898 24.242,-23.151 0,-13.171 -10.066,-23.154 -24.242,-23.154 -14.094,0 -24.158,9.983 -24.158,23.154"
             style="fill:#002c51;fill-opacity:1;fill-rule:nonzero;stroke:none"
             id="path64" />
        </g>
        <g
           id="g66"
           transform="translate(416.2858,83.1403)">
          <path
             d="m 0,0 c 0,6.457 -4.109,10.903 -10.232,10.903 -5.873,0 -10.151,-4.612 -10.151,-10.903 0,-6.291 4.194,-10.821 10.151,-10.821 C -4.109,-10.821 0,-6.375 0,0 M 13.421,22.144 V -22.062 H 0.505 v 4.027 c -3.105,-3.273 -7.298,-5.118 -12.751,-5.118 -12.835,0 -22.06,9.898 -22.06,23.153 0,13.253 9.225,22.312 22.06,22.312 5.453,0 9.646,-1.677 12.751,-4.782 v 4.614 z"
             style="fill:#002c51;fill-opacity:1;fill-rule:nonzero;stroke:none"
             id="path68" />
        </g>
        <g
           id="g70"
           transform="translate(478.7003,89.1791)">
          <path
             d="m 0,0 v -28.101 h -14.007 v 25.333 c 0,4.782 -3.271,7.55 -7.467,7.55 -4.193,0 -7.632,-3.021 -7.632,-7.048 v -25.835 h -14.007 v 44.206 h 13.169 v -3.523 c 3.018,2.769 7.382,4.614 12.75,4.614 C -6.793,17.196 0,10.15 0,0"
             style="fill:#002c51;fill-opacity:1;fill-rule:nonzero;stroke:none"
             id="path72" />
        </g>
        <g
           id="g74"
           transform="translate(42.7049,98.0012)">
          <path
             d="M 0,0 37.079,21.407 15.27,33.999 -21.587,12.72 V -30.06 L 0,-42.302 Z"
             style="fill:#f15a29;fill-opacity:1;fill-rule:nonzero;stroke:none"
             id="path76" />
        </g>
        <g
           id="g78"
           transform="translate(72.8685,98.0669)">
          <path
             d="m 0,0 0.114,-42.368 21.587,12.463 v 42.434 z"
             style="fill:#f15a29;fill-opacity:1;fill-rule:nonzero;stroke:none"
             id="path80" />
        </g>
      </g>
    </g>
  </g>
</svg>
