<svg width="107" height="21" viewBox="0 0 107 21" fill="none" xmlns="http://www.w3.org/2000/svg">
<mask id="mask0_0_698" style="mask-type:alpha" maskUnits="userSpaceOnUse" x="0" y="1" width="17" height="18">
<rect y="1.65918" width="16.9756" height="16.9756" fill="#D9D9D9"/>
</mask>
<g mask="url(#mask0_0_698)">
<path d="M3.53656 13.6838V8.73255H4.9512V13.6838H3.53656ZM7.78047 13.6838V8.73255H9.1951V13.6838H7.78047ZM1.41461 16.513V15.0984H15.561V16.513H1.41461ZM12.0244 13.6838V8.73255H13.439V13.6838H12.0244ZM1.41461 7.31792V5.90328L8.48778 2.3667L15.561 5.90328V7.31792H1.41461ZM4.56217 5.90328H12.4134L8.48778 3.95816L4.56217 5.90328Z" fill="#1C1B1F"/>
</g>
<path d="M23.6576 5.6777H28.0713V6.55478H24.6139V8.97663H28.0034V9.83107H24.6139V12.2699H28.0713V13.147H23.6576V5.6777ZM29.1056 8.50131H30.1637L31.6802 12.2359L33.1967 8.50131H34.2492L32.263 13.147H31.103L29.1056 8.50131ZM35.7896 11.025C35.7934 11.3042 35.8538 11.5588 35.9707 11.7889C36.0876 12.019 36.2612 12.202 36.4913 12.3378C36.7252 12.4736 37.0119 12.5415 37.3514 12.5415C37.6381 12.5415 37.8814 12.5 38.0813 12.417C38.285 12.3303 38.451 12.2284 38.5793 12.1115C38.7076 11.9907 38.8 11.8832 38.8566 11.7889L39.3375 12.3831C39.213 12.5641 39.0603 12.7226 38.8792 12.8584C38.7019 12.9942 38.485 13.0979 38.2285 13.1696C37.9719 13.2451 37.6588 13.2828 37.2891 13.2828C36.7912 13.2828 36.3593 13.1772 35.9933 12.9659C35.6312 12.7509 35.352 12.4547 35.1559 12.0775C34.9597 11.6965 34.8616 11.2608 34.8616 10.7704C34.8616 10.3177 34.9541 9.91029 35.1389 9.54814C35.3237 9.18222 35.5916 8.89364 35.9424 8.68239C36.297 8.47114 36.7233 8.36551 37.2212 8.36551C37.6777 8.36551 38.0738 8.4617 38.4095 8.65409C38.749 8.84271 39.0112 9.11055 39.1961 9.45761C39.3847 9.80466 39.479 10.2196 39.479 10.7025C39.479 10.7327 39.4771 10.7874 39.4733 10.8666C39.4696 10.942 39.4658 10.9948 39.462 11.025H35.7896ZM38.5397 10.2838C38.5359 10.1291 38.4906 9.95933 38.4039 9.77448C38.3209 9.58964 38.1851 9.4312 37.9965 9.29917C37.8078 9.16714 37.5532 9.10112 37.2326 9.10112C36.9006 9.10112 36.6328 9.16525 36.429 9.29351C36.2291 9.42177 36.082 9.57832 35.9877 9.76317C35.8934 9.94424 35.8387 10.1178 35.8236 10.2838H38.5397ZM41.5338 13.147H40.5548V8.50131H41.5338V9.30483H41.5055C41.5243 9.20674 41.5941 9.08414 41.7148 8.93702C41.8355 8.7899 42.0015 8.65787 42.2128 8.54092C42.424 8.42398 42.6768 8.36551 42.971 8.36551C43.186 8.36551 43.3747 8.39569 43.5369 8.45605C43.7029 8.51263 43.8198 8.56922 43.8877 8.6258L43.4859 9.44063C43.4331 9.38782 43.3407 9.33501 43.2087 9.28219C43.0766 9.22561 42.9126 9.19731 42.7164 9.19731C42.4674 9.19731 42.2543 9.27465 42.077 9.42931C41.8997 9.58398 41.7639 9.77071 41.6696 9.98951C41.579 10.2045 41.5338 10.4045 41.5338 10.5893V13.147ZM47.3692 5.6777H48.3368V12.2699H51.2736V13.147H47.3692V5.6777ZM54.6745 13.2828C54.1954 13.2828 53.7691 13.1753 53.3956 12.9602C53.0259 12.7452 52.7355 12.4547 52.5242 12.0888C52.313 11.7191 52.2073 11.3023 52.2073 10.8383C52.2073 10.3743 52.313 9.95556 52.5242 9.58209C52.7355 9.20863 53.0259 8.9125 53.3956 8.6937C53.7691 8.47491 54.1954 8.36551 54.6745 8.36551C55.1498 8.36551 55.5704 8.47491 55.9363 8.6937C56.306 8.9125 56.5946 9.20863 56.8021 9.58209C57.0096 9.95556 57.1133 10.3743 57.1133 10.8383C57.1133 11.3023 57.0096 11.7191 56.8021 12.0888C56.5946 12.4547 56.306 12.7452 55.9363 12.9602C55.5704 13.1753 55.1498 13.2828 54.6745 13.2828ZM54.6745 12.4397C54.9763 12.4397 55.2384 12.3699 55.461 12.2303C55.6873 12.0907 55.8628 11.9002 55.9872 11.6588C56.1117 11.4136 56.174 11.1382 56.174 10.8326C56.174 10.5271 56.1117 10.2517 55.9872 10.0065C55.8628 9.76128 55.6873 9.56701 55.461 9.42366C55.2384 9.28031 54.9763 9.20863 54.6745 9.20863C54.3689 9.20863 54.103 9.28031 53.8766 9.42366C53.6503 9.56701 53.473 9.76128 53.3447 10.0065C53.2202 10.2517 53.158 10.5271 53.158 10.8326C53.158 11.1382 53.2202 11.4136 53.3447 11.6588C53.473 11.9002 53.6503 12.0907 53.8766 12.2303C54.103 12.3699 54.3689 12.4397 54.6745 12.4397ZM61.9395 13.147V12.2416C61.9093 12.3359 61.8207 12.4661 61.6735 12.632C61.5302 12.798 61.3321 12.9489 61.0794 13.0847C60.8304 13.2168 60.5362 13.2828 60.1967 13.2828C59.7666 13.2828 59.3762 13.1809 59.0254 12.9772C58.6783 12.7735 58.401 12.4887 58.1935 12.1228C57.9898 11.7531 57.888 11.3212 57.888 10.827C57.888 10.3328 57.9898 9.90275 58.1935 9.53683C58.401 9.16714 58.6783 8.88044 59.0254 8.67673C59.3762 8.46925 59.7666 8.36551 60.1967 8.36551C60.5324 8.36551 60.8229 8.42587 61.0681 8.54658C61.3171 8.6673 61.5151 8.80688 61.6622 8.96531C61.8131 9.12375 61.9018 9.25956 61.9282 9.37273V8.50131H62.9014V13.147H61.9395ZM58.8613 10.827C58.8613 11.1627 58.9348 11.4532 59.0819 11.6984C59.2291 11.9436 59.4196 12.1341 59.6534 12.2699C59.8911 12.4019 60.1439 12.4679 60.4117 12.4679C60.6984 12.4679 60.9549 12.4 61.1813 12.2642C61.4076 12.1284 61.5868 11.9379 61.7188 11.6927C61.8508 11.4438 61.9169 11.1552 61.9169 10.827C61.9169 10.4988 61.8508 10.2121 61.7188 9.96687C61.5868 9.7179 61.4076 9.52551 61.1813 9.3897C60.9549 9.25013 60.6984 9.18034 60.4117 9.18034C60.1439 9.18034 59.8911 9.24824 59.6534 9.38405C59.4196 9.51985 59.2291 9.71035 59.0819 9.95556C58.9348 10.2008 58.8613 10.4912 58.8613 10.827ZM66.8143 8.36551C67.1199 8.36551 67.416 8.42964 67.7027 8.5579C67.9932 8.68616 68.2308 8.88987 68.4157 9.16902C68.6043 9.4444 68.6986 9.80466 68.6986 10.2498V13.147H67.7027V10.4422C67.7027 9.98196 67.5952 9.64811 67.3802 9.44063C67.1652 9.22938 66.8879 9.12375 66.5484 9.12375C66.3258 9.12375 66.1108 9.18788 65.9033 9.31614C65.6996 9.44063 65.5317 9.61416 65.3997 9.83673C65.2677 10.0555 65.2016 10.3045 65.2016 10.5837V13.147H64.2171V8.50131H65.2016V9.32746C65.2356 9.1992 65.328 9.05962 65.4789 8.90873C65.6298 8.75783 65.8222 8.62957 66.0561 8.52395C66.29 8.41832 66.5427 8.36551 66.8143 8.36551ZM76.4597 12.3265C76.9237 12.3265 77.3255 12.2624 77.665 12.1341C78.0083 12.0058 78.2516 11.8813 78.395 11.7606L78.8194 12.5924C78.6496 12.7433 78.3535 12.8961 77.931 13.0508C77.5122 13.2054 77.0086 13.2828 76.4201 13.2828C75.8694 13.2828 75.3582 13.1847 74.8867 12.9885C74.4151 12.7924 74.0021 12.5189 73.6475 12.168C73.2966 11.8172 73.0212 11.4079 72.8213 10.9401C72.6251 10.4724 72.5271 9.96688 72.5271 9.42366C72.5271 8.88044 72.6251 8.37305 72.8213 7.90151C73.0175 7.42996 73.291 7.01878 73.6418 6.66795C73.9964 6.31335 74.4095 6.03796 74.881 5.8418C75.3563 5.64187 75.8694 5.5419 76.4201 5.5419C77.0086 5.5419 77.5122 5.61923 77.931 5.7739C78.3535 5.92857 78.6496 6.08135 78.8194 6.23224L78.395 7.06405C78.2516 6.93956 78.0083 6.81507 77.665 6.69058C77.3255 6.56232 76.9237 6.49819 76.4597 6.49819C76.0372 6.49819 75.6506 6.56987 75.2997 6.71322C74.9489 6.85657 74.6434 7.06027 74.3831 7.32434C74.1265 7.58463 73.9266 7.89208 73.7833 8.24668C73.6437 8.60128 73.5739 8.98795 73.5739 9.40668C73.5739 9.82918 73.6437 10.2196 73.7833 10.578C73.9266 10.9326 74.1265 11.2419 74.3831 11.506C74.6434 11.7663 74.9489 11.9681 75.2997 12.1115C75.6506 12.2548 76.0372 12.3265 76.4597 12.3265ZM83.6895 13.147V12.2416C83.6593 12.3359 83.5707 12.4661 83.4235 12.632C83.2802 12.798 83.0821 12.9489 82.8294 13.0847C82.5804 13.2168 82.2862 13.2828 81.9467 13.2828C81.5166 13.2828 81.1262 13.1809 80.7754 12.9772C80.4283 12.7735 80.151 12.4887 79.9435 12.1228C79.7398 11.7531 79.638 11.3212 79.638 10.827C79.638 10.3328 79.7398 9.90275 79.9435 9.53683C80.151 9.16714 80.4283 8.88044 80.7754 8.67673C81.1262 8.46925 81.5166 8.36551 81.9467 8.36551C82.2824 8.36551 82.5729 8.42587 82.8181 8.54658C83.0671 8.6673 83.2651 8.80688 83.4122 8.96531C83.5631 9.12375 83.6518 9.25956 83.6782 9.37273V8.50131H84.6514V13.147H83.6895ZM80.6113 10.827C80.6113 11.1627 80.6848 11.4532 80.8319 11.6984C80.9791 11.9436 81.1696 12.1341 81.4034 12.2699C81.6411 12.4019 81.8939 12.4679 82.1617 12.4679C82.4484 12.4679 82.7049 12.4 82.9313 12.2642C83.1576 12.1284 83.3368 11.9379 83.4688 11.6927C83.6008 11.4438 83.6669 11.1552 83.6669 10.827C83.6669 10.4988 83.6008 10.2121 83.4688 9.96687C83.3368 9.7179 83.1576 9.52551 82.9313 9.3897C82.7049 9.25013 82.4484 9.18034 82.1617 9.18034C81.8939 9.18034 81.6411 9.24824 81.4034 9.38405C81.1696 9.51985 80.9791 9.71035 80.8319 9.95556C80.6848 10.2008 80.6113 10.4912 80.6113 10.827ZM86.963 15.5009H85.984V8.50131H86.9799V9.37273C87.0139 9.25579 87.1082 9.11809 87.2629 8.95966C87.4175 8.80122 87.625 8.66353 87.8853 8.54658C88.1494 8.42587 88.4512 8.36551 88.7907 8.36551C89.2207 8.36551 89.6017 8.46925 89.9337 8.67673C90.2694 8.88044 90.5316 9.16714 90.7202 9.53683C90.9126 9.90275 91.0088 10.3328 91.0088 10.827C91.0088 11.3212 90.9107 11.7531 90.7146 12.1228C90.5184 12.4887 90.2506 12.7735 89.9111 12.9772C89.5753 13.1809 89.1905 13.2828 88.7567 13.2828C88.4059 13.2828 88.0984 13.2168 87.8344 13.0847C87.5741 12.9527 87.3685 12.8037 87.2176 12.6377C87.0705 12.4717 86.9856 12.3397 86.963 12.2416V15.5009ZM90.0355 10.827C90.0355 10.4912 89.9658 10.2008 89.8262 9.95556C89.6904 9.71035 89.5093 9.51985 89.283 9.38405C89.0566 9.24824 88.8114 9.18034 88.5474 9.18034C88.2569 9.18034 87.9928 9.25013 87.7552 9.3897C87.5175 9.52551 87.3289 9.7179 87.1893 9.96687C87.0497 10.2121 86.9799 10.4988 86.9799 10.827C86.9799 11.1552 87.0497 11.4438 87.1893 11.6927C87.3289 11.9379 87.5175 12.1284 87.7552 12.2642C87.9928 12.4 88.2569 12.4679 88.5474 12.4679C88.8114 12.4679 89.0566 12.4019 89.283 12.2699C89.5093 12.1341 89.6904 11.9436 89.8262 11.6984C89.9658 11.4532 90.0355 11.1627 90.0355 10.827ZM92.142 13.147V8.50131H93.1266V13.147H92.142ZM92.6456 6.91127C92.4683 6.91127 92.3156 6.84902 92.1873 6.72453C92.0628 6.59627 92.0006 6.44349 92.0006 6.26619C92.0006 6.08889 92.0628 5.93611 92.1873 5.80785C92.3156 5.67959 92.4683 5.61546 92.6456 5.61546C92.7626 5.61546 92.8701 5.64564 92.9682 5.706C93.07 5.76635 93.1511 5.84557 93.2115 5.94366C93.2718 6.03796 93.302 6.14548 93.302 6.26619C93.302 6.44349 93.2379 6.59627 93.1096 6.72453C92.9814 6.84902 92.8267 6.91127 92.6456 6.91127ZM94.2356 8.50131H95.1466V6.59439H96.1256V8.50131H97.3195V9.34444H96.1256V11.6418C96.1256 11.9134 96.1727 12.1133 96.267 12.2416C96.3651 12.3699 96.4952 12.434 96.6575 12.434C96.8008 12.434 96.9121 12.4076 96.9913 12.3548C97.0705 12.302 97.1177 12.2661 97.1328 12.2473L97.5232 12.9716C97.5006 12.9904 97.4402 13.0263 97.3421 13.0791C97.2441 13.1319 97.1177 13.179 96.963 13.2205C96.8083 13.262 96.6273 13.2828 96.4198 13.2828C96.0576 13.2828 95.754 13.1734 95.5088 12.9546C95.2673 12.732 95.1466 12.3812 95.1466 11.9021V9.34444H94.2356V8.50131ZM102.113 13.147V12.2416C102.083 12.3359 101.994 12.4661 101.847 12.632C101.704 12.798 101.506 12.9489 101.253 13.0847C101.004 13.2168 100.71 13.2828 100.37 13.2828C99.94 13.2828 99.5496 13.1809 99.1988 12.9772C98.8517 12.7735 98.5744 12.4887 98.3669 12.1228C98.1632 11.7531 98.0614 11.3212 98.0614 10.827C98.0614 10.3328 98.1632 9.90275 98.3669 9.53683C98.5744 9.16714 98.8517 8.88044 99.1988 8.67673C99.5496 8.46925 99.94 8.36551 100.37 8.36551C100.706 8.36551 100.996 8.42587 101.241 8.54658C101.49 8.6673 101.689 8.80688 101.836 8.96531C101.987 9.12375 102.075 9.25956 102.102 9.37273V8.50131H103.075V13.147H102.113ZM99.0347 10.827C99.0347 11.1627 99.1082 11.4532 99.2553 11.6984C99.4025 11.9436 99.593 12.1341 99.8269 12.2699C100.065 12.4019 100.317 12.4679 100.585 12.4679C100.872 12.4679 101.128 12.4 101.355 12.2642C101.581 12.1284 101.76 11.9379 101.892 11.6927C102.024 11.4438 102.09 11.1552 102.09 10.827C102.09 10.4988 102.024 10.2121 101.892 9.96687C101.76 9.7179 101.581 9.52551 101.355 9.3897C101.128 9.25013 100.872 9.18034 100.585 9.18034C100.317 9.18034 100.065 9.24824 99.8269 9.38405C99.593 9.51985 99.4025 9.71035 99.2553 9.95556C99.1082 10.2008 99.0347 10.4912 99.0347 10.827ZM105.415 13.147H104.424V5.36083H105.415V13.147Z" fill="black"/>
</svg>
