<svg width="196" height="34" viewBox="0 0 196 34" fill="none" xmlns="http://www.w3.org/2000/svg">
<path d="M0 0.712158V26.2777H5.26349V8.33885H5.3351L11.6012 26.2777H15.9337L22.1997 8.15982H22.2714V26.2777H27.5349V0.712158H19.6217L13.9644 18.2929H13.8927L7.91314 0.712158H0Z" fill="white"/>
<path d="M31.7323 13.4591C31.8039 12.2656 32.1023 11.2749 32.6274 10.4872C33.1526 9.69948 33.821 9.0669 34.6326 8.58949C35.4442 8.11208 36.3512 7.77789 37.3538 7.58692C38.3803 7.37208 39.4067 7.26467 40.4331 7.26467C41.3641 7.26467 42.307 7.33628 43.2618 7.4795C44.2166 7.59885 45.0879 7.8495 45.8757 8.23143C46.6634 8.61336 47.3079 9.15045 47.8092 9.8427C48.3105 10.5111 48.5611 11.4062 48.5611 12.5282V22.16C48.5611 22.9955 48.6089 23.7951 48.7043 24.559C48.7998 25.3228 48.9669 25.8957 49.2056 26.2777H44.0496C43.9541 25.9912 43.8705 25.7048 43.7989 25.4183C43.7512 25.108 43.7154 24.7977 43.6915 24.4874C42.8799 25.3228 41.9251 25.9077 40.827 26.2419C39.729 26.5761 38.607 26.7432 37.4612 26.7432C36.578 26.7432 35.7545 26.6357 34.9906 26.4209C34.2268 26.2061 33.5584 25.8719 32.9855 25.4183C32.4126 24.9648 31.959 24.3919 31.6249 23.6996C31.3145 23.0074 31.1594 22.1839 31.1594 21.229C31.1594 20.1787 31.3384 19.3194 31.6965 18.651C32.0784 17.9587 32.5558 17.4097 33.1287 17.0039C33.7255 16.5981 34.3939 16.2997 35.1338 16.1088C35.8977 15.8939 36.6616 15.7268 37.4254 15.6075C38.1893 15.4881 38.9412 15.3926 39.6812 15.321C40.4212 15.2494 41.0776 15.142 41.6505 14.9988C42.2234 14.8555 42.677 14.6526 43.0112 14.3901C43.3454 14.1036 43.5005 13.6978 43.4767 13.1727C43.4767 12.6236 43.3812 12.194 43.1902 11.8836C43.0231 11.5495 42.7844 11.2988 42.4741 11.1317C42.1876 10.9408 41.8415 10.8214 41.4357 10.7737C41.0538 10.702 40.636 10.6662 40.1825 10.6662C39.1799 10.6662 38.3922 10.8811 37.8193 11.3107C37.2464 11.7404 36.9122 12.4565 36.8167 13.4591H31.7323ZM43.4767 17.2187C43.2618 17.4097 42.9873 17.5649 42.6531 17.6842C42.3428 17.7797 41.9967 17.8633 41.6147 17.9349C41.2567 18.0065 40.8747 18.0662 40.4689 18.1139C40.0631 18.1616 39.6573 18.2213 39.2515 18.2929C38.8696 18.3645 38.4877 18.46 38.1057 18.5794C37.7477 18.6987 37.4254 18.8658 37.139 19.0807C36.8764 19.2716 36.6616 19.5223 36.4945 19.8326C36.3274 20.1429 36.2438 20.5368 36.2438 21.0142C36.2438 21.4677 36.3274 21.8497 36.4945 22.16C36.6616 22.4703 36.8883 22.7209 37.1748 22.9119C37.4612 23.079 37.7954 23.1984 38.1774 23.27C38.5593 23.3416 38.9532 23.3774 39.359 23.3774C40.3615 23.3774 41.1373 23.2103 41.6863 22.8761C42.2354 22.5419 42.6412 22.148 42.9038 21.6945C43.1663 21.2171 43.3215 20.7397 43.3692 20.2623C43.4408 19.7848 43.4767 19.4029 43.4767 19.1165V17.2187Z" fill="white"/>
<path d="M61.1369 21.9093C60.3491 21.9093 59.6927 21.7422 59.1675 21.4081C58.6424 21.0739 58.2127 20.6442 57.8785 20.119C57.5682 19.5939 57.3414 19.009 57.1982 18.3645C57.0788 17.6962 57.0192 17.0278 57.0192 16.3594C57.0192 15.6672 57.0908 15.0107 57.234 14.3901C57.4011 13.7456 57.6517 13.1846 57.9859 12.7072C58.344 12.2059 58.7737 11.812 59.275 11.5256C59.8001 11.2391 60.4207 11.0959 61.1369 11.0959C61.9723 11.0959 62.6646 11.2511 63.2136 11.5614C63.7626 11.8717 64.2042 12.2894 64.5384 12.8146C64.8726 13.3398 65.1113 13.9485 65.2546 14.6407C65.3978 15.3091 65.4694 16.0252 65.4694 16.7891C65.4694 17.4575 65.3739 18.102 65.183 18.7226C65.0159 19.3194 64.7533 19.8565 64.3952 20.3339C64.0372 20.8113 63.5836 21.1932 63.0346 21.4797C62.4856 21.7661 61.853 21.9093 61.1369 21.9093ZM70.3032 25.0961V7.76595H65.4694V10.2366H65.3978C64.7771 9.16239 64.0014 8.39852 63.0704 7.94498C62.1633 7.49144 61.1011 7.26467 59.8837 7.26467C58.5946 7.26467 57.4488 7.51531 56.4463 8.01659C55.4676 8.51788 54.644 9.19819 53.9757 10.0575C53.3073 10.893 52.7941 11.8717 52.436 12.9936C52.1018 14.0917 51.9347 15.2375 51.9347 16.431C51.9347 17.6962 52.0779 18.9016 52.3644 20.0474C52.6747 21.1693 53.1521 22.16 53.7966 23.0193C54.4411 23.8548 55.2647 24.5232 56.2672 25.0245C57.2698 25.5019 58.4633 25.7406 59.8478 25.7406C60.9698 25.7406 62.032 25.5138 63.0346 25.0603C64.061 24.5829 64.8488 23.8548 65.3978 22.8761H65.4694V25.3109C65.4933 26.6238 65.171 27.7099 64.5026 28.5693C63.8581 29.4286 62.8198 29.8583 61.3875 29.8583C60.4804 29.8583 59.6808 29.6673 58.9885 29.2854C58.2963 28.9273 57.8308 28.2709 57.5921 27.3161H52.5434C52.615 28.3664 52.9015 29.2615 53.4028 30.0015C53.9279 30.7654 54.5724 31.386 55.3363 31.8634C56.124 32.3408 56.9834 32.687 57.9143 32.9018C58.8691 33.1405 59.8001 33.2599 60.7072 33.2599C62.8317 33.2599 64.5265 32.9734 65.7917 32.4005C67.0568 31.8276 68.0236 31.1234 68.6919 30.288C69.3603 29.4764 69.79 28.5931 69.981 27.6383C70.1958 26.6835 70.3032 25.8361 70.3032 25.0961Z" fill="white"/>
<path d="M79.6245 4.90147V0.712158H74.5401V4.90147H79.6245ZM74.5401 7.76595V26.2777H79.6245V7.76595H74.5401Z" fill="white"/>
<path d="M96.2318 14.2827H101.209C101.137 13.0891 100.851 12.0627 100.35 11.2033C99.8482 10.3201 99.1918 9.59206 98.3802 9.01916C97.5925 8.42239 96.6854 7.98079 95.6589 7.69434C94.6564 7.40789 93.606 7.26467 92.508 7.26467C91.0041 7.26467 89.6674 7.51531 88.4977 8.01659C87.3281 8.51788 86.3374 9.22206 85.5258 10.1291C84.7142 11.0124 84.0936 12.0746 83.6639 13.3159C83.2581 14.5333 83.0552 15.8581 83.0552 17.2904C83.0552 18.6749 83.282 19.9519 83.7355 21.1216C84.1891 22.2674 84.8216 23.258 85.6332 24.0935C86.4448 24.929 87.4235 25.5854 88.5693 26.0628C89.739 26.5164 91.0161 26.7432 92.4006 26.7432C94.8593 26.7432 96.8763 26.0986 98.4518 24.8096C100.027 23.5206 100.982 21.6468 101.316 19.1881H96.4109C96.2438 20.3339 95.826 21.2529 95.1576 21.9451C94.5131 22.6135 93.5822 22.9477 92.3648 22.9477C91.577 22.9477 90.9087 22.7687 90.3596 22.4106C89.8106 22.0526 89.369 21.599 89.0348 21.05C88.7245 20.4771 88.4977 19.8445 88.3545 19.1523C88.2113 18.46 88.1397 17.7797 88.1397 17.1113C88.1397 16.4191 88.2113 15.7268 88.3545 15.0346C88.4977 14.3185 88.7364 13.6739 89.0706 13.1011C89.4287 12.5043 89.8822 12.0269 90.4313 11.6688C90.9803 11.2869 91.6606 11.0959 92.4722 11.0959C94.6444 11.0959 95.8976 12.1582 96.2318 14.2827Z" fill="white"/>
<path d="M114.691 0.712158V26.2777H120.313V15.7149H131.019V11.3466H120.313V5.43856H132.666V0.712158H114.691Z" fill="white"/>
<path d="M135.522 0.712158V26.2777H140.607V0.712158H135.522Z" fill="white"/>
<path d="M161.976 26.2777V7.76595H156.892V17.4694C156.892 19.3552 156.581 20.7158 155.961 21.5513C155.34 22.3629 154.338 22.7687 152.953 22.7687C151.736 22.7687 150.888 22.3987 150.411 21.6587C149.933 20.8948 149.695 19.749 149.695 18.2213V7.76595H144.61V19.1523C144.61 20.2981 144.706 21.3484 144.897 22.3032C145.112 23.2342 145.47 24.0338 145.971 24.7022C146.472 25.3467 147.153 25.848 148.012 26.2061C148.895 26.5641 150.017 26.7432 151.378 26.7432C152.452 26.7432 153.502 26.5044 154.529 26.027C155.555 25.5496 156.39 24.7738 157.035 23.6996H157.142V26.2777H161.976Z" fill="white"/>
<path d="M172.28 7.76595V2.21601H167.196V7.76595H164.116V11.1675H167.196V22.0884C167.196 23.0193 167.351 23.7713 167.661 24.3442C167.972 24.917 168.389 25.3587 168.914 25.669C169.463 25.9793 170.084 26.1822 170.776 26.2777C171.492 26.397 172.244 26.4567 173.032 26.4567C173.533 26.4567 174.047 26.4448 174.572 26.4209C175.097 26.397 175.574 26.3493 176.004 26.2777V22.339C175.765 22.3868 175.515 22.4226 175.252 22.4464C174.99 22.4703 174.715 22.4822 174.429 22.4822C173.569 22.4822 172.996 22.339 172.71 22.0526C172.423 21.7661 172.28 21.1932 172.28 20.3339V11.1675H176.004V7.76595H172.28Z" fill="white"/>
<path d="M190.884 15.0346H182.613C182.636 14.6765 182.708 14.2707 182.827 13.8172C182.971 13.3636 183.197 12.934 183.508 12.5282C183.842 12.1224 184.272 11.7882 184.797 11.5256C185.346 11.2391 186.026 11.0959 186.838 11.0959C188.079 11.0959 188.998 11.4301 189.595 12.0985C190.215 12.7669 190.645 13.7456 190.884 15.0346ZM182.613 18.2571H195.968C196.064 16.8249 195.944 15.4523 195.61 14.1394C195.276 12.8265 194.727 11.6569 193.963 10.6304C193.223 9.60399 192.268 8.79239 191.099 8.19562C189.929 7.57499 188.556 7.26467 186.981 7.26467C185.572 7.26467 184.283 7.51531 183.114 8.01659C181.968 8.51788 180.977 9.21013 180.142 10.0933C179.306 10.9527 178.662 11.9791 178.208 13.1727C177.755 14.3662 177.528 15.6552 177.528 17.0397C177.528 18.472 177.743 19.7848 178.173 20.9784C178.626 22.1719 179.259 23.1984 180.07 24.0577C180.882 24.917 181.873 25.5854 183.042 26.0628C184.212 26.5164 185.525 26.7432 186.981 26.7432C189.081 26.7432 190.872 26.2657 192.352 25.3109C193.832 24.3561 194.93 22.7687 195.646 20.5487H191.17C191.003 21.1216 190.55 21.6706 189.81 22.1958C189.07 22.6971 188.186 22.9477 187.16 22.9477C185.728 22.9477 184.63 22.5777 183.866 21.8377C183.102 21.0977 182.684 19.9042 182.613 18.2571Z" fill="white"/>
</svg>
