<svg xmlns="http://www.w3.org/2000/svg" viewBox="0 0 144 44"><path fill="none" d="M79.234 2.89H150v20.252H79.234z"/><path d="M84.076 14.716c.396 0 .723-.033.981-.099a1.79 1.79 0 0 0 .621-.27.901.901 0 0 0 .323-.405c.061-.156.091-.33.091-.522 0-.408-.192-.747-.576-1.017-.385-.27-1.044-.561-1.98-.873a14.93 14.93 0 0 1-1.224-.495 4.482 4.482 0 0 1-1.098-.702 3.343 3.343 0 0 1-.792-1.026c-.205-.402-.307-.891-.307-1.467s.108-1.095.324-1.557c.216-.461.521-.855.918-1.179a4.2 4.2 0 0 1 1.44-.747c.563-.174 1.199-.261 1.907-.261.84 0 1.566.09 2.179.27.613.18 1.117.379 1.513.594l-.811 2.214a7.658 7.658 0 0 0-1.16-.477c-.426-.137-.939-.207-1.538-.207-.673 0-1.155.093-1.449.279s-.441.471-.441.855c0 .228.055.42.162.576.108.156.261.297.459.423s.426.24.685.342c.258.102.542.207.854.315.648.24 1.212.477 1.692.711.479.234.879.507 1.196.819.318.312.556.678.712 1.098.155.42.233.93.233 1.53 0 1.164-.408 2.067-1.224 2.709-.816.642-2.046.963-3.69.963-.552 0-1.05-.033-1.494-.099a9.682 9.682 0 0 1-1.179-.243 6.762 6.762 0 0 1-1.503-.612l.792-2.232c.372.204.831.387 1.377.549.546.162 1.215.243 2.007.243zm15.443 2.142a56.64 56.64 0 0 0-.447-1.335l-.478-1.365h-4.872l-.474 1.369c-.158.457-.306.901-.442 1.332H89.89c.47-1.344.915-2.586 1.336-3.726.422-1.14.834-2.214 1.237-3.222.403-1.008.8-1.964 1.191-2.871s.798-1.791 1.219-2.655h2.662a95.275 95.275 0 0 1 2.414 5.526c.403 1.008.816 2.083 1.238 3.222.422 1.14.868 2.382 1.339 3.726h-3.007zM96.145 7.21c-.063.182-.155.428-.275.74-.121.312-.258.672-.412 1.081s-.327.858-.517 1.35c-.19.491-.385 1.006-.581 1.545h3.567c-.191-.541-.376-1.058-.555-1.55s-.35-.944-.51-1.353c-.161-.409-.303-.769-.424-1.081-.121-.31-.218-.554-.293-.732zm13.617-.666c-1.309 0-2.254.363-2.835 1.089-.583.726-.873 1.719-.873 2.979 0 .612.071 1.167.216 1.665.144.498.359.927.647 1.287s.648.639 1.08.837c.433.198.937.297 1.513.297.312 0 .578-.006.801-.018.222-.012.417-.036.585-.072V10.27h2.808v6.174c-.336.132-.876.273-1.62.423s-1.662.225-2.754.225c-.936 0-1.785-.144-2.547-.432a5.325 5.325 0 0 1-1.953-1.26c-.54-.552-.957-1.23-1.251-2.034-.294-.804-.44-1.722-.44-2.754 0-1.044.161-1.968.485-2.772a5.986 5.986 0 0 1 1.332-2.043 5.616 5.616 0 0 1 1.989-1.269 6.84 6.84 0 0 1 2.439-.432 9.881 9.881 0 0 1 2.817.387 5.68 5.68 0 0 1 1.324.567l-.811 2.25a7.338 7.338 0 0 0-1.322-.531 5.678 5.678 0 0 0-1.63-.225zm14.92 10.314a56.64 56.64 0 0 0-.447-1.335l-.478-1.365h-4.872l-.474 1.369c-.158.457-.306.901-.442 1.332h-2.916c.47-1.344.915-2.586 1.336-3.726.422-1.14.834-2.214 1.237-3.222.403-1.008.8-1.964 1.191-2.871s.798-1.791 1.219-2.655h2.662a95.275 95.275 0 0 1 2.414 5.526c.403 1.008.816 2.083 1.238 3.222.422 1.14.868 2.382 1.339 3.726h-3.007zm-3.374-9.648c-.063.181-.154.428-.274.739-.121.312-.258.672-.412 1.081s-.327.858-.517 1.35c-.19.491-.385 1.006-.581 1.545h3.567c-.191-.541-.376-1.058-.555-1.55s-.35-.944-.51-1.353c-.161-.409-.303-.769-.424-1.081a38.535 38.535 0 0 0-.294-.731zm11.636-2.97c1.872 0 3.306.333 4.303.999.995.666 1.493 1.701 1.493 3.105 0 .876-.201 1.587-.603 2.133-.402.546-.981.975-1.737 1.287.252.313.516.669.792 1.071.276.402.549.822.819 1.26.27.438.531.894.783 1.368s.485.939.702 1.395h-3.14l-.695-1.242c-.235-.42-.476-.828-.723-1.224s-.491-.771-.732-1.125a11.72 11.72 0 0 0-.723-.963h-1.386v4.554h-2.808V4.564c.611-.12 1.244-.204 1.898-.252s1.242-.072 1.757-.072zm.162 2.394a7.5 7.5 0 0 0-.549.018l-.459.036v3.384h.792c1.056 0 1.812-.132 2.268-.396.456-.264.685-.714.685-1.35 0-.612-.231-1.046-.693-1.305-.462-.257-1.143-.387-2.044-.387z" fill="#fff"/><path fill="none" d="M79.234 24.874h68.848v18.641H79.234z"/><path d="M84.418 26.224c1.86 0 3.288.327 4.284.981s1.494 1.725 1.494 3.213c0 1.5-.504 2.583-1.512 3.249s-2.448.999-4.32.999h-.882v4.176h-2.808V26.548a15.87 15.87 0 0 1 1.943-.252 26.177 26.177 0 0 1 1.801-.072zm.181 2.394c-.204 0-.405.006-.604.018a23.62 23.62 0 0 0-.513.036v3.6h.882c.972 0 1.704-.132 2.196-.396s.738-.756.738-1.477c0-.348-.063-.636-.189-.863a1.44 1.44 0 0 0-.54-.55 2.44 2.44 0 0 0-.854-.287 7.08 7.08 0 0 0-1.116-.081zm14.812 10.224a55.14 55.14 0 0 0-.447-1.335l-.478-1.365h-4.872l-.474 1.368c-.158.458-.306.901-.442 1.332h-2.916c.47-1.344.915-2.586 1.336-3.726.422-1.141.834-2.215 1.237-3.223s.8-1.965 1.191-2.871c.392-.905.798-1.791 1.219-2.654h2.662a95.275 95.275 0 0 1 2.414 5.525c.403 1.008.816 2.082 1.238 3.223.422 1.14.868 2.382 1.339 3.726h-3.007zm-3.374-9.649c-.063.182-.154.428-.274.74-.121.312-.258.672-.412 1.08-.154.409-.327.859-.517 1.351-.19.491-.385 1.007-.581 1.546h3.567c-.191-.541-.376-1.059-.555-1.551-.179-.493-.35-.943-.51-1.353-.161-.409-.303-.769-.424-1.08a29.955 29.955 0 0 0-.294-.733zm15.76-2.825v2.394h-3.763v10.08h-2.808v-10.08h-3.762v-2.394h10.333zm1.8 0h2.808v12.474h-2.808V26.368zm14.021 10.062v2.412h-8.334V26.368h2.808V36.43h5.526z" fill="#fff"/><path fill="#fff" stroke="#fff" stroke-miterlimit="10" d="M63.131 2.338V41.5"/><path fill="none" stroke="#fff" stroke-width="2.5" stroke-miterlimit="10" d="M5.74 3.946h39.568v34.773H5.74z"/><path fill="none" d="M14.017 13.364h85.928v24.471H14.017z"/><path d="M19.176 25.965c.422 0 .771-.035 1.045-.105s.496-.166.662-.288a.959.959 0 0 0 .345-.432c.064-.166.096-.352.096-.556 0-.435-.205-.796-.614-1.084-.41-.287-1.113-.598-2.11-.93a15.67 15.67 0 0 1-1.304-.527 4.777 4.777 0 0 1-1.17-.748 3.574 3.574 0 0 1-.844-1.093c-.217-.428-.326-.949-.326-1.563s.115-1.167.345-1.659c.23-.492.556-.911.978-1.256s.933-.61 1.534-.796c.601-.185 1.279-.278 2.033-.278.895 0 1.668.096 2.321.288.652.192 1.189.403 1.611.633l-.863 2.359a8.195 8.195 0 0 0-1.237-.508c-.454-.147-1-.221-1.64-.221-.716 0-1.231.099-1.544.297-.313.198-.47.502-.47.911 0 .243.058.447.173.613.115.167.278.317.489.451.211.134.454.256.729.364.275.109.579.221.911.335.69.256 1.292.508 1.803.758.511.249.937.54 1.275.873s.591.723.758 1.17c.166.448.25.991.25 1.63 0 1.241-.435 2.203-1.304 2.887-.87.685-2.18 1.026-3.932 1.026-.588 0-1.119-.035-1.592-.105s-.892-.157-1.256-.259c-.364-.103-.678-.211-.94-.326s-.482-.224-.662-.326l.844-2.378c.396.217.885.412 1.467.585.583.171 1.296.258 2.139.258zm11.527-11.163c1.981 0 3.503.349 4.564 1.045 1.061.697 1.592 1.838 1.592 3.423 0 1.599-.537 2.752-1.611 3.462s-2.608 1.065-4.603 1.065h-.94v4.449h-2.992v-13.1a17.27 17.27 0 0 1 2.072-.269 29.125 29.125 0 0 1 1.918-.075zm.192 2.551c-.217 0-.431.007-.643.019a24.02 24.02 0 0 0-.546.039v3.836h.94c1.036 0 1.815-.141 2.34-.422.524-.281.786-.806.786-1.573 0-.371-.067-.678-.201-.921a1.526 1.526 0 0 0-.576-.585 2.62 2.62 0 0 0-.911-.307 7.596 7.596 0 0 0-1.189-.086z" fill="#fff"/></svg>