<svg xmlns="http://www.w3.org/2000/svg" viewBox="0 0 160 53.333"><path fill="none" d="M65.207 2.443h89.603v25.518H65.207z"/><path d="M71.759 18.446c.536 0 .978-.045 1.328-.134.349-.089.629-.211.84-.365a1.22 1.22 0 0 0 .438-.548 1.96 1.96 0 0 0 .122-.707c0-.552-.26-1.011-.779-1.376-.52-.365-1.413-.759-2.679-1.181a20.303 20.303 0 0 1-1.657-.67 6.087 6.087 0 0 1-1.486-.95 4.557 4.557 0 0 1-1.072-1.388c-.276-.545-.414-1.206-.414-1.986 0-.779.146-1.481.438-2.107a4.492 4.492 0 0 1 1.243-1.595c.536-.439 1.185-.776 1.948-1.012.763-.235 1.624-.353 2.582-.353 1.137 0 2.119.122 2.947.365.828.244 1.51.512 2.046.804L76.509 8.24a10.387 10.387 0 0 0-1.571-.646c-.577-.187-1.271-.28-2.083-.28-.91 0-1.563.126-1.961.377-.398.252-.597.638-.597 1.157 0 .309.073.568.219.779.146.211.353.402.621.572a5.4 5.4 0 0 0 .926.463c.349.138.734.28 1.157.426.877.325 1.64.646 2.29.962.649.316 1.189.686 1.62 1.108.43.423.751.918.962 1.486.211.569.317 1.259.317 2.071 0 1.575-.552 2.797-1.656 3.666-1.104.869-2.769 1.303-4.994 1.303a13.86 13.86 0 0 1-2.021-.134 12.982 12.982 0 0 1-1.596-.329 8.682 8.682 0 0 1-2.033-.829l1.072-3.02c.503.276 1.124.523 1.863.743.738.221 1.643.331 2.715.331zm20.897 2.898a73.942 73.942 0 0 0-.606-1.807l-.646-1.847h-6.593l-.641 1.852a71.54 71.54 0 0 0-.599 1.802h-3.946a301.81 301.81 0 0 1 1.808-5.042 171.751 171.751 0 0 1 1.673-4.36 154.572 154.572 0 0 1 1.613-3.885 87.99 87.99 0 0 1 1.651-3.593h3.602a132.408 132.408 0 0 1 3.268 7.478 183.525 183.525 0 0 1 1.676 4.36 300.518 300.518 0 0 1 1.811 5.042h-4.071zM88.091 8.288c-.085.245-.209.579-.372 1.001s-.349.909-.558 1.462-.442 1.162-.699 1.827c-.258.665-.52 1.362-.786 2.092h4.827c-.258-.732-.509-1.431-.75-2.098a75.625 75.625 0 0 0-.69-1.83L88.49 9.28a59.293 59.293 0 0 0-.399-.992zm18.428-.901c-1.771 0-3.049.491-3.836 1.474-.788.982-1.182 2.326-1.182 4.031 0 .828.098 1.579.292 2.253.195.674.487 1.254.877 1.742s.877.865 1.462 1.133c.584.268 1.267.402 2.046.402.422 0 .783-.008 1.084-.024.3-.016.563-.049.791-.098v-5.87h3.801v8.355c-.455.179-1.186.369-2.192.572-1.008.203-2.25.305-3.728.305-1.267 0-2.415-.195-3.446-.585s-1.912-.958-2.643-1.705c-.731-.747-1.295-1.664-1.693-2.752-.397-1.088-.597-2.33-.597-3.727 0-1.413.22-2.663.658-3.751.438-1.087 1.039-2.009 1.802-2.765a7.605 7.605 0 0 1 2.692-1.717 9.244 9.244 0 0 1 3.3-.584 13.41 13.41 0 0 1 3.812.524 7.722 7.722 0 0 1 1.791.767l-1.096 3.045a9.956 9.956 0 0 0-1.791-.719 7.58 7.58 0 0 0-2.204-.306zm20.191 13.957a73.942 73.942 0 0 0-.606-1.807l-.646-1.847h-6.593l-.641 1.852a71.54 71.54 0 0 0-.599 1.802h-3.946a301.377 301.377 0 0 1 1.809-5.042 171.751 171.751 0 0 1 1.673-4.36 154.572 154.572 0 0 1 1.613-3.885 85.945 85.945 0 0 1 1.649-3.593h3.602a132.408 132.408 0 0 1 3.268 7.478 183.525 183.525 0 0 1 1.676 4.36 300.518 300.518 0 0 1 1.811 5.042h-4.07zm-4.565-13.056c-.085.245-.209.579-.372 1.001s-.349.909-.558 1.462-.442 1.162-.699 1.827c-.258.665-.52 1.362-.786 2.092h4.827c-.258-.732-.509-1.431-.75-2.098a75.625 75.625 0 0 0-.69-1.83l-.573-1.462a59.293 59.293 0 0 0-.399-.992zm15.748-4.019c2.533 0 4.474.451 5.821 1.352s2.021 2.302 2.021 4.202c0 1.186-.271 2.148-.815 2.887-.545.739-1.328 1.319-2.351 1.741.341.423.698.906 1.071 1.45.374.544.743 1.112 1.108 1.705s.719 1.209 1.06 1.851.658 1.271.95 1.888h-4.248c-.31-.552-.624-1.112-.941-1.681s-.644-1.121-.978-1.656a46.672 46.672 0 0 0-.99-1.522 16.132 16.132 0 0 0-.979-1.303h-1.875v6.163h-3.801V4.708a21.63 21.63 0 0 1 2.57-.341 32.851 32.851 0 0 1 2.377-.098zm.218 3.24c-.276 0-.523.008-.742.024-.22.016-.427.033-.621.049v4.579h1.071c1.429 0 2.452-.178 3.069-.536.617-.357.926-.966.926-1.827 0-.828-.313-1.417-.938-1.766-.625-.348-1.547-.523-2.765-.523z" fill="#fff"/><path fill="none" d="M65.207 28.831H158v23.488H65.207z"/><path d="M72.222 30.657c2.517 0 4.449.442 5.797 1.327 1.348.886 2.021 2.335 2.021 4.349 0 2.03-.682 3.495-2.046 4.396s-3.313 1.352-5.846 1.352h-1.193v5.651h-3.8V31.095a21.78 21.78 0 0 1 2.63-.341 35.933 35.933 0 0 1 2.437-.097zm.243 3.239c-.276 0-.548.009-.816.024-.268.017-.5.033-.694.049v4.872h1.193c1.315 0 2.306-.179 2.972-.536.666-.356.999-1.022.999-1.997 0-.471-.085-.86-.256-1.169s-.414-.557-.731-.743c-.316-.187-.703-.316-1.157-.39a9.555 9.555 0 0 0-1.51-.11zM92.51 47.732a72.427 72.427 0 0 0-.605-1.807l-.646-1.847h-6.592c-.213.615-.428 1.232-.641 1.852a74.47 74.47 0 0 0-.6 1.802H79.48a292.685 292.685 0 0 1 1.809-5.042 162.438 162.438 0 0 1 3.285-8.245 84.785 84.785 0 0 1 1.65-3.593h3.602a128.525 128.525 0 0 1 1.639 3.593 128.581 128.581 0 0 1 1.629 3.885 186.225 186.225 0 0 1 1.676 4.36 319.43 319.43 0 0 1 1.811 5.042H92.51zm-4.565-13.056a33.21 33.21 0 0 1-.373 1c-.162.422-.348.91-.557 1.463s-.443 1.162-.699 1.827c-.258.665-.52 1.362-.787 2.092h4.828c-.258-.732-.51-1.432-.75-2.099a72.894 72.894 0 0 0-.691-1.83c-.217-.553-.408-1.04-.572-1.462a58.564 58.564 0 0 0-.399-.991zm21.326-3.824v3.239h-5.091v13.641h-3.8V34.091h-5.091v-3.239h13.982zm2.435 0h3.801v16.88h-3.801v-16.88zm18.976 13.616v3.264h-11.278v-16.88h3.801v13.616h7.477z" fill="#fff"/><path fill="#424071" stroke="#fff" stroke-width="3" stroke-miterlimit="10" d="M55.348 3.603v44.656"/><path fill="none" stroke="#fff" stroke-width="4" stroke-miterlimit="10" d="M2.571 5.633h40.597V46.23H2.571z"/><path fill="none" d="M8.371 14.622h89.603V40.14H8.371z"/><path d="M14.923 30.625c.536 0 .978-.045 1.328-.134.349-.09.629-.211.84-.366a1.21 1.21 0 0 0 .438-.548c.081-.211.122-.446.122-.706 0-.552-.26-1.011-.779-1.376-.52-.365-1.413-.759-2.679-1.181a20.303 20.303 0 0 1-1.657-.67 6.087 6.087 0 0 1-1.486-.95 4.557 4.557 0 0 1-1.072-1.388c-.276-.544-.414-1.206-.414-1.985 0-.779.146-1.481.438-2.107a4.492 4.492 0 0 1 1.243-1.595c.536-.438 1.185-.775 1.948-1.011.763-.235 1.624-.353 2.582-.353 1.137 0 2.119.122 2.947.365.828.244 1.51.512 2.046.804l-1.096 2.996a10.387 10.387 0 0 0-1.571-.646c-.577-.187-1.271-.28-2.083-.28-.91 0-1.563.126-1.961.377-.398.252-.597.638-.597 1.157 0 .309.073.568.219.779.146.211.353.402.621.572a5.4 5.4 0 0 0 .926.463c.349.138.734.28 1.157.426.877.325 1.64.646 2.29.962.649.316 1.189.686 1.62 1.108.43.423.751.918.962 1.486.211.569.317 1.258.317 2.071 0 1.575-.552 2.797-1.656 3.666-1.104.869-2.769 1.303-4.994 1.303a13.86 13.86 0 0 1-2.021-.134c-.601-.09-1.133-.199-1.596-.329s-.861-.268-1.193-.414a8.7 8.7 0 0 1-.84-.414l1.072-3.021c.503.276 1.124.524 1.863.743.739.22 1.644.33 2.716.33zm14.639-14.177c2.517 0 4.449.443 5.797 1.328 1.348.885 2.021 2.334 2.021 4.348 0 2.03-.682 3.495-2.046 4.396s-3.313 1.352-5.846 1.352h-1.193v5.651h-3.8V16.886a21.582 21.582 0 0 1 2.63-.341 35.982 35.982 0 0 1 2.437-.097zm.244 3.24c-.276 0-.548.008-.816.024-.268.016-.5.033-.694.049v4.872h1.193c1.315 0 2.306-.179 2.972-.536.666-.357.999-1.023.999-1.997 0-.471-.085-.861-.256-1.169a1.945 1.945 0 0 0-.731-.743c-.316-.187-.703-.317-1.157-.39a9.455 9.455 0 0 0-1.51-.11z" fill="#fff"/></svg>