<svg xmlns="http://www.w3.org/2000/svg" width="1392.354" height="446.474" viewBox="17.171 498.406 1392.354 446.474"><path fill="none" d="M578.866 498.406h802.112v228.425H578.866z"/><path fill="#FFF" d="M637.521 641.664c4.797 0 8.758-.382 11.884-1.199 3.125-.799 5.633-1.89 7.523-3.271s3.198-3.016 3.925-4.906c.727-1.89 1.09-3.998 1.09-6.323 0-4.942-2.326-9.049-6.978-12.32s-12.647-6.796-23.985-10.575a180.766 180.766 0 0 1-14.827-5.996c-4.942-2.253-9.376-5.088-13.301-8.504-3.925-3.416-7.123-7.559-9.594-12.429-2.471-4.87-3.707-10.793-3.707-17.771 0-6.978 1.308-13.246 3.925-18.861s6.323-10.357 11.121-14.282c4.797-3.925 10.612-6.941 17.444-9.049s14.537-3.162 23.113-3.162c10.176 0 18.97 1.09 26.384 3.271s13.519 4.579 18.316 7.196l-9.812 26.82c-4.216-2.18-8.904-4.107-14.064-5.778-5.161-1.672-11.375-2.508-18.643-2.508-8.141 0-13.991 1.127-17.553 3.38s-5.342 5.706-5.342 10.357c0 2.762.654 5.088 1.963 6.978 1.308 1.89 3.162 3.598 5.56 5.124 2.399 1.526 5.161 2.907 8.286 4.143a255.688 255.688 0 0 0 10.357 3.816c7.85 2.907 14.682 5.778 20.497 8.613 5.815 2.835 10.648 6.142 14.5 9.921s6.723 8.213 8.613 13.301c1.89 5.088 2.835 11.266 2.835 18.534 0 14.101-4.942 25.039-14.827 32.816-9.885 7.777-24.785 11.666-44.7 11.666-6.687 0-12.72-.4-18.098-1.199-5.378-.799-10.139-1.781-14.282-2.944-4.143-1.163-7.704-2.398-10.684-3.707s-5.488-2.544-7.523-3.707l9.594-27.038c4.506 2.471 10.067 4.688 16.681 6.65 6.611 1.962 14.715 2.943 24.309 2.943zm187.068 25.948a706.998 706.998 0 0 0-5.415-16.172 6455.423 6455.423 0 0 1-5.778-16.535h-59.019c-1.908 5.506-3.834 11.03-5.742 16.572a790.771 790.771 0 0 0-5.36 16.136h-35.306c5.687-16.281 11.084-31.326 16.19-45.136a1651.95 1651.95 0 0 1 14.973-39.031c4.906-12.211 9.685-23.804 14.446-34.779a725.051 725.051 0 0 1 14.773-32.162h32.235a1314.46 1314.46 0 0 1 14.646 32.162c4.815 10.975 9.667 22.568 14.573 34.779 4.888 12.211 9.885 25.221 14.991 39.031a2821.674 2821.674 0 0 1 16.227 45.136h-36.434zm-40.866-116.874c-.763 2.199-1.89 5.179-3.343 8.958-1.454 3.78-3.125 8.141-4.979 13.101-1.872 4.942-3.961 10.394-6.269 16.354s-4.652 12.193-7.032 18.716h43.21a3799.04 3799.04 0 0 0-6.723-18.789c-2.162-5.978-4.216-11.429-6.178-16.372s-3.652-9.322-5.124-13.083c-1.472-3.797-2.653-6.741-3.562-8.885zm164.955-8.068c-15.845 0-27.292 4.397-34.361 13.192-7.05 8.795-10.575 20.824-10.575 36.087 0 7.414.89 14.137 2.635 20.17 1.744 6.033 4.361 11.23 7.85 15.591 3.489 4.361 7.85 7.741 13.101 10.139 5.215 2.399 11.32 3.598 18.316 3.598 3.78 0 7.014-.073 9.685-.218 2.689-.145 5.051-.436 7.105-.872v-52.55h34.016v74.791c-4.07 1.599-10.612 3.307-19.624 5.124-9.013 1.817-20.133 2.726-33.362 2.726-11.339 0-21.623-1.744-30.854-5.233-9.231-3.489-17.099-8.577-23.658-15.263-6.542-6.687-11.593-14.9-15.154-24.64s-5.342-20.86-5.342-33.362c0-12.647 1.944-23.84 5.887-33.58 3.925-9.74 9.303-17.989 16.136-24.749 6.832-6.76 14.846-11.884 24.094-15.372 9.231-3.489 19.079-5.233 29.546-5.233 7.123 0 13.555.472 19.315 1.417 5.724.945 10.684 2.035 14.809 3.271 4.125 1.236 7.559 2.508 10.23 3.816 2.689 1.308 4.615 2.326 5.778 3.053l-9.812 27.256c-4.652-2.471-9.994-4.615-16.027-6.432s-12.611-2.727-19.734-2.727zm180.744 124.942c-1.708-5.251-3.489-10.648-5.433-16.172-1.926-5.542-3.87-11.048-5.778-16.535h-59.019a8718.098 8718.098 0 0 0-5.724 16.572 693.531 693.531 0 0 0-5.36 16.136h-35.324c5.687-16.281 11.084-31.326 16.19-45.136a1734.667 1734.667 0 0 1 14.973-39.031c4.906-12.211 9.703-23.804 14.446-34.779s9.631-21.714 14.755-32.162h32.253a1271.154 1271.154 0 0 1 14.664 32.162c4.833 10.975 9.685 22.568 14.591 34.779 4.888 12.211 9.885 25.221 14.991 39.031a2655.194 2655.194 0 0 1 16.208 45.136h-36.433zm-40.884-116.874c-.745 2.199-1.872 5.179-3.343 8.958-1.454 3.78-3.125 8.141-4.961 13.101a4104.745 4104.745 0 0 1-6.287 16.354 1019.72 1019.72 0 0 0-7.032 18.716h43.228a2535.394 2535.394 0 0 0-6.741-18.789c-2.162-5.978-4.216-11.429-6.178-16.372s-3.652-9.322-5.106-13.083c-1.49-3.797-2.653-6.741-3.58-8.885zm140.969-35.978c22.677 0 40.067 4.034 52.132 12.102 12.047 8.068 18.08 20.606 18.08 37.613 0 10.612-2.435 19.225-7.286 25.839-4.888 6.614-11.884 11.811-21.042 15.591 3.053 3.78 6.251 8.104 9.576 12.974a351.645 351.645 0 0 1 9.939 15.263 288.323 288.323 0 0 1 9.467 16.572 434.027 434.027 0 0 1 8.522 16.899h-38.05c-2.762-4.942-5.578-9.958-8.413-15.045a384.126 384.126 0 0 0-8.758-14.827 380.516 380.516 0 0 0-8.867-13.628c-2.907-4.288-5.815-8.177-8.74-11.666h-16.79v55.166h-34.016V518.685c7.414-1.454 15.082-2.471 23.004-3.053 7.923-.582 14.991-.872 21.242-.872zm1.962 29c-2.471 0-4.688.073-6.65.218-1.944.145-3.798.291-5.56.436v40.993h9.594c12.774 0 21.932-1.599 27.474-4.797 5.524-3.198 8.286-8.649 8.286-16.354 0-7.414-2.798-12.683-8.395-15.809-5.597-3.124-13.828-4.687-24.749-4.687z"/><path fill="none" d="M578.866 734.626h830.659V944.88H578.866z"/><path fill="#FFF" d="M641.664 750.961c22.532 0 39.83 3.979 51.896 11.884 12.065 7.941 18.098 20.896 18.098 38.94 0 18.171-6.105 31.29-18.316 39.358-12.211 8.05-29.655 12.102-52.332 12.102h-10.684v50.569H596.31V754.905c7.414-1.454 15.263-2.489 23.549-3.053 8.286-.582 15.555-.891 21.805-.891zm2.181 29.019c-2.471 0-4.906.073-7.305.218-2.399.164-4.47.309-6.214.436v43.61h10.684c11.775 0 20.642-1.599 26.602-4.815 5.96-3.198 8.94-9.158 8.94-17.862 0-4.216-.763-7.704-2.289-10.466s-3.707-4.979-6.542-6.65c-2.835-1.69-6.287-2.835-10.357-3.489-4.07-.655-8.577-.982-13.519-.982zm179.454 123.834c-1.708-5.251-3.489-10.648-5.433-16.172-1.926-5.542-3.87-11.048-5.778-16.517h-59.019c-1.908 5.506-3.816 11.011-5.724 16.572-1.908 5.542-3.707 10.902-5.36 16.117h-35.324c5.687-16.281 11.084-31.308 16.19-45.118a1619.828 1619.828 0 0 1 14.973-39.013c4.906-12.229 9.703-23.822 14.446-34.779 4.743-10.975 9.649-21.714 14.773-32.18h32.253a1220.426 1220.426 0 0 1 14.664 32.18c4.833 10.975 9.685 22.55 14.591 34.779a1572.262 1572.262 0 0 1 14.991 39.013c5.106 13.81 10.484 28.855 16.172 45.118h-36.415zm-40.884-116.856c-.745 2.199-1.872 5.179-3.343 8.958a1067.905 1067.905 0 0 0-4.961 13.101 3294.583 3294.583 0 0 1-6.287 16.336 1022.81 1022.81 0 0 0-7.032 18.734h43.228c-2.326-6.56-4.561-12.81-6.741-18.789-2.162-5.978-4.216-11.429-6.178-16.372a1263.349 1263.349 0 0 1-5.106-13.101c-1.49-3.761-2.671-6.723-3.58-8.867zm190.884-34.234v29.001h-45.572v122.108H893.73V781.725h-45.572v-29.001h125.141zm21.841 0h33.997v151.09H995.14v-151.09zm169.842 121.89v29.2h-100.975v-151.09h34.034v121.89h66.941z"/><path fill="none" stroke="#FFF" stroke-miterlimit="10" d="M490.611 508.781v399.757"/><path fill="none" stroke="#FFF" stroke-width="2" stroke-miterlimit="10" d="M18.171 526.952h363.415v363.415H18.171z"/><path fill="none" d="M70.085 607.431h802.112v228.425H70.085z"/><path fill="#FFF" d="M128.74 750.689c4.797 0 8.758-.382 11.884-1.199 3.125-.781 5.633-1.89 7.523-3.271 1.89-1.381 3.198-3.016 3.925-4.906.727-1.89 1.09-4.016 1.09-6.323 0-4.942-2.326-9.067-6.978-12.338-4.652-3.271-12.647-6.796-23.985-10.575-4.942-1.744-9.885-3.743-14.827-5.996s-9.376-5.088-13.301-8.504c-3.925-3.416-7.123-7.559-9.594-12.429-2.471-4.87-3.707-10.793-3.707-17.771s1.308-13.246 3.925-18.861 6.323-10.357 11.121-14.282c4.797-3.925 10.612-6.941 17.444-9.049 6.832-2.108 14.537-3.162 23.113-3.162 10.176 0 18.97 1.09 26.384 3.271 7.414 2.18 13.519 4.579 18.316 7.196l-9.812 26.82c-4.216-2.18-8.904-4.107-14.064-5.778-5.161-1.654-11.375-2.489-18.643-2.489-8.141 0-13.991 1.127-17.553 3.38-3.561 2.253-5.342 5.706-5.342 10.357 0 2.762.654 5.088 1.962 6.978s3.162 3.598 5.56 5.124c2.399 1.526 5.16 2.907 8.286 4.143a255.688 255.688 0 0 0 10.357 3.816c7.85 2.907 14.682 5.778 20.497 8.613 5.815 2.835 10.648 6.142 14.5 9.921 3.852 3.78 6.723 8.213 8.613 13.301s2.835 11.266 2.835 18.534c0 14.082-4.942 25.039-14.827 32.816-9.885 7.795-24.785 11.666-44.7 11.666-6.687 0-12.72-.382-18.098-1.181-5.379-.8-10.139-1.799-14.282-2.944-4.143-1.145-7.704-2.398-10.684-3.707-2.98-1.308-5.488-2.544-7.523-3.689l9.594-27.038c4.506 2.471 10.067 4.688 16.681 6.632 6.612 1.943 14.716 2.924 24.31 2.924zm131.047-126.905c22.532 0 39.83 3.961 51.896 11.884 12.065 7.922 18.098 20.896 18.098 38.922 0 18.171-6.105 31.29-18.316 39.358s-29.655 12.102-52.332 12.102h-10.684v50.587h-34.016V627.709c7.414-1.454 15.263-2.471 23.549-3.053 8.286-.581 15.555-.872 21.805-.872zm2.181 29.001c-2.471 0-4.906.073-7.305.218-2.399.145-4.47.291-6.214.436v43.61h10.684c11.775 0 20.642-1.599 26.602-4.797 5.96-3.198 8.94-9.158 8.94-17.88 0-4.216-.763-7.704-2.29-10.466s-3.707-4.979-6.541-6.65c-2.835-1.672-6.287-2.835-10.357-3.489-4.07-.655-8.595-.982-13.519-.982z"/></svg>