<svg xmlns="http://www.w3.org/2000/svg" viewBox="0 0 20 20"><path fill="none" stroke="#fff" stroke-width="2" stroke-miterlimit="10" d="M0 0h20v20H0z"/><path fill="none" d="M2.857 4.429H20V17H2.857z"/><path d="M6.085 12.313c.264 0 .482-.021.654-.066.172-.043.31-.104.414-.18s.176-.166.216-.27a.966.966 0 0 0 .06-.348c0-.272-.128-.499-.384-.679-.256-.18-.696-.374-1.32-.582-.272-.096-.544-.206-.816-.33s-.516-.28-.732-.468a2.222 2.222 0 0 1-.528-.683c-.136-.268-.204-.594-.204-.978s.072-.729.216-1.038.348-.57.612-.786.584-.382.96-.498a4.31 4.31 0 0 1 1.272-.174c.56 0 1.044.06 1.452.18.408.12.744.252 1.008.396l-.54 1.476a5.114 5.114 0 0 0-.774-.318 3.352 3.352 0 0 0-1.026-.138c-.448 0-.77.062-.966.186-.196.124-.294.314-.294.57 0 .152.036.28.108.384.072.104.174.198.306.281.132.084.284.16.456.228.172.068.362.138.57.21.432.16.808.318 1.128.474.32.156.586.338.798.546.212.208.37.452.474.732.104.28.156.62.156 1.02 0 .775-.272 1.378-.816 1.806-.544.429-1.364.642-2.46.642-.368 0-.7-.021-.996-.065s-.558-.099-.786-.162a4.364 4.364 0 0 1-1.002-.407l.528-1.488c.248.136.554.258.918.365.364.108.81.162 1.338.162zm7.212-6.984c1.24 0 2.191.218 2.855.654s.996 1.15.996 2.142c0 1-.336 1.722-1.008 2.166-.672.444-1.632.666-2.88.666h-.588v2.784H10.8V5.545c.408-.08.84-.136 1.296-.168.457-.032.857-.048 1.201-.048zm.12 1.596a6.62 6.62 0 0 0-.402.012c-.132.008-.245.016-.342.024v2.4h.588c.647 0 1.136-.088 1.464-.264.328-.176.492-.504.492-.984a1.18 1.18 0 0 0-.126-.576.958.958 0 0 0-.36-.366 1.621 1.621 0 0 0-.57-.192 4.717 4.717 0 0 0-.744-.054z" fill="#fff"/></svg>