<svg xmlns="http://www.w3.org/2000/svg" viewBox="0 0 446.3 48.69"><defs><style>.a{fill:#21368b;}</style></defs><path class="a" d="M117.64,43.93c-3.22,3.33-7.14,4.86-12.55,4.86a25.35,25.35,0,0,1-5.47-.58,19.71,19.71,0,0,1-5.47-2L92.42,33.25h2.36a16.72,16.72,0,0,0,1.67,3.9A11.87,11.87,0,0,0,106,43a5.48,5.48,0,0,0,5.82-5.44c0-2.75-1.38-4.16-5.35-5.57l-2.19-.77c-7.08-2.5-10.42-6.53-10.42-12.92,0-8.83,6.85-15,16.58-15a17.45,17.45,0,0,1,7,1.22L118,4.78a2.72,2.72,0,0,0,1.21.26c0.69,0,1.15-.38,1.61-1.34V17h-2.3a10.37,10.37,0,0,0-1.15-3.52,9.25,9.25,0,0,0-8.23-4.67c-3.17,0-5.3,1.86-5.3,4.74,0,2.49,1.61,4.09,5.58,5.25l2.48,0.7a14.18,14.18,0,0,1,6.51,3.58,13.18,13.18,0,0,1,3.86,9.47A16.84,16.84,0,0,1,117.64,43.93Z" transform="translate(-92.42 -1)"/><path class="a" d="M160,46.24c-0.81.32-1.38,0.51-1.78,0.64a31.34,31.34,0,0,1-10.71,1.85c-6.16,0-11.4-1.79-15-5-4.2-3.78-6.68-9.92-6.68-16.51,0-14.14,10-24.06,24.24-24.06a26.55,26.55,0,0,1,7.31.9l0.69,0.19,0.63,0.19a3.2,3.2,0,0,0,.75.06c0.92,0,1.44-.38,2-1.54v14.2H159.1C157.71,11.43,154.43,8,150.23,8c-6.51,0-11.11,6.72-11.11,16.25,0,10.3,5.12,18.43,11.63,18.43,4.32,0,7.48-3.13,9.9-9.92h2.88Z" transform="translate(-92.42 -1)"/><path class="a" d="M192.67,47.71v-3l3.4-.51c1.21-.19,1.44-0.51,1.44-1.54V27.36H181.38V42.65c0,1,.29,1.34,1.44,1.54L186,44.7v3H164.51v-3l3.28-.51c1.15-.19,1.44-0.51,1.44-1.54V9.38c0-1.09-.29-1.34-1.44-1.54l-3.22-.51v-3h21.76v3l-3.51.51c-1.15.19-1.44,0.45-1.44,1.54V22.69H197.5V9.38c0-1-.29-1.34-1.44-1.54l-3.34-.51v-3h21.65v3L211,7.85c-1.15.19-1.44,0.45-1.44,1.54V42.65c0,1.09.29,1.34,1.44,1.54l3.34,0.51v3H192.67Z" transform="translate(-92.42 -1)"/><path class="a" d="M259.11,7.85c-1.21.19-1.44,0.45-1.44,1.47V9.38l0.23,16.83v1.15a27.23,27.23,0,0,1-1,8.64,19.16,19.16,0,0,1-3.57,6.53c-3.57,4.35-8.18,6.27-14.62,6.27-6.1,0-11.11-1.92-14.45-5.5-2.25-2.5-3.17-5.82-3.17-11.39,0-1.21,0-3,.06-5.31l0.29-17.21V9.32c0-1-.29-1.28-1.44-1.47l-3.11-.51v-3h21.76v3l-3.51.51c-1.15.19-1.44,0.45-1.44,1.54V31.78a19.61,19.61,0,0,0,.58,5.31,7.5,7.5,0,0,0,7.54,5.76,7.64,7.64,0,0,0,5.7-2.5c1.73-2,2.48-4.74,2.48-9.47V9.38c0-1.09-.35-1.41-1.44-1.54l-4.09-.51v-3H262v3Z" transform="translate(-92.42 -1)"/><path class="a" d="M300.28,17.83c-0.06-6.34-1.9-8.32-7.77-8.32h-2.71V42.65a1.31,1.31,0,0,0,1.44,1.54L295,44.7v3H272.19v-3l4-.51a1.31,1.31,0,0,0,1.44-1.54V9.51H275c-3.4,0-5.07.64-6.39,2.3-1,1.41-1.44,2.94-1.56,6.08h-2.59V2.79a5.28,5.28,0,0,0,1.09.77,16.87,16.87,0,0,0,5.59.77h26.66c0.23,0,.75-0.06,1.38-0.13A9.37,9.37,0,0,0,301,3.88a3.74,3.74,0,0,0,1.84-1.09v15h-2.59Z" transform="translate(-92.42 -1)"/><path class="a" d="M341.17,17.83c-0.06-6.34-1.9-8.32-7.77-8.32h-2.71V42.65a1.31,1.31,0,0,0,1.44,1.54l3.8,0.51v3H313.07v-3l4-.51a1.31,1.31,0,0,0,1.44-1.54V9.51h-2.59c-3.4,0-5.07.64-6.39,2.3-1,1.41-1.44,2.94-1.56,6.08h-2.59V2.79a5.26,5.26,0,0,0,1.09.77,16.87,16.87,0,0,0,5.58.77h26.66c0.23,0,.75-0.06,1.38-0.13a9.36,9.36,0,0,0,1.84-.32,3.74,3.74,0,0,0,1.84-1.09v15h-2.59Z" transform="translate(-92.42 -1)"/><path class="a" d="M379.86,47.71H346.29v-3l3.28-.51c1.09-.19,1.44-0.51,1.44-1.54V9.38c0-1-.29-1.34-1.44-1.54l-3.34-.51v-3H374.1A20.29,20.29,0,0,0,378,3.94a5.2,5.2,0,0,0,2.71-1.22V16.68h-2.36c-0.52-5.69-2.82-7.74-8.87-7.74h-6.39V22.88H372c0.92,0,1.44-.58,1.79-2.17l0.46-2.11h2.19V32.67h-2.19l-0.81-3.9c-0.23-1.21-.58-1.53-1.67-1.53h-8.64V40c0,1.79.86,2.56,2.88,2.56h3.57c4.26,0,6.45-.77,8.41-2.88A8.93,8.93,0,0,0,379.17,38a17.08,17.08,0,0,0,1.73-4h2.76Z" transform="translate(-92.42 -1)"/><path class="a" d="M421.14,7.65c-0.92.19-1.21,0.51-1.73,1.92L404.85,49.69h-3.28l-14-40.63a1.81,1.81,0,0,0-1.38-1.34l-2-.38v-3h20.09v3l-2.76.58A1,1,0,0,0,400.71,9a1.66,1.66,0,0,0,.11.7l6,22.46L413.66,9.7a3.63,3.63,0,0,0,.12-0.7c0-.64-0.4-0.9-1.44-1.09l-3.28-.58v-3h13.59v3Z" transform="translate(-92.42 -1)"/><path class="a" d="M434.68,47.71v-3l3.45-.64A1,1,0,0,0,439.23,43a4.07,4.07,0,0,0-.12-0.64l-3.05-10.49H424.83l-3.23,10.3a3,3,0,0,0-.11.7c0,0.58.63,1,1.9,1.22l4,0.64v3H412.74v-3l1.27-.19c0.92-.13,1.5-0.83,2.07-2.37L429.73,4.07l8-3.07,13.76,40.5c0.69,2.11,1.38,2.94,2.59,3.07l1.09,0.13v3h-20.5Zm-3.86-34.36L426,28h8.87Z" transform="translate(-92.42 -1)"/><path class="a" d="M490.82,47.71H457.25v-3l3.28-.51c1.09-.19,1.44-0.51,1.44-1.54V9.38c0-1-.29-1.34-1.44-1.54l-3.34-.51v-3h27.87A20.27,20.27,0,0,0,489,3.94a5.21,5.21,0,0,0,2.71-1.22V16.68h-2.36c-0.52-5.69-2.82-7.74-8.87-7.74h-6.39V22.88h8.87c0.92,0,1.44-.58,1.79-2.17l0.46-2.11h2.19V32.67h-2.19l-0.81-3.9c-0.23-1.21-.58-1.53-1.67-1.53h-8.64V40c0,1.79.86,2.56,2.88,2.56h3.57c4.26,0,6.45-.77,8.41-2.88A8.9,8.9,0,0,0,490.13,38a17.06,17.06,0,0,0,1.73-4h2.76Z" transform="translate(-92.42 -1)"/><path class="a" d="M537.17,48a48.22,48.22,0,0,1-6.16.51,8.88,8.88,0,0,1-5.12-1.15c-2.42-1.41-3.57-3.26-5.12-8.38l-3.22-10.43h-5.07V42.65c0,1,.29,1.34,1.44,1.54l3.46,0.51v3H495.89v-3l3.34-.51c1.15-.19,1.44-0.51,1.44-1.54V9.38c0-1.09-.29-1.34-1.44-1.54l-3.34-.51v-3C503.66,4.07,506.77,4,512.7,4c8.18,0,10.83.19,13.93,1.09a8.72,8.72,0,0,1,6.5,8.51c0,4.35-2.88,8.38-7.43,10.56l8.46,15.36a24.41,24.41,0,0,0,2.76,4.29,2.41,2.41,0,0,0,1.79,1v2.94C538,47.9,537.51,48,537.17,48ZM517.65,9.25a11.67,11.67,0,0,0-5.18-1.34V25.57a15.28,15.28,0,0,0,2.3.13c4.43,0,6.91-2.82,6.91-7.93C521.68,13.92,520.24,10.85,517.65,9.25Z" transform="translate(-92.42 -1)"/></svg>