<svg version="1.0" xmlns="http://www.w3.org/2000/svg" width="1365.333" height="1365.333" viewBox="0 0 1024 1024"><path d="M536 176.7c-124.9 7.1-219.5 62.1-283.1 164.5-36.3 58.4-54.4 121-56.5 194.8-2.7 95.3 25.2 171.5 83.7 228.5 14.7 14.4 25.5 23.1 40.4 33 39.4 26.1 80.9 40.4 135 46.7 16.8 1.9 63.7 1.6 81.5-.5 47.9-5.8 93.2-21.2 132.9-45.1 47.1-28.4 87-72.3 118-129.8l5.2-9.7-3.3-.6c-1.8-.3-36.4-5.9-76.8-12.5s-74.7-12.2-76.1-12.5c-2.3-.5-3 .2-7.7 7.9-26.9 43.9-62.3 70.3-105.2 78.3-13.5 2.5-42.3 2.5-54-.1-23.9-5.2-43.3-15.4-60.8-32-28-26.6-42.2-63.5-42.2-109.7V564h446.7l1.6-7.8c5-23.5 8.1-46.7 9.7-72.2 5.5-89-11.8-160.6-51.4-213.4-8-10.6-28.9-32.1-39.6-40.6-39.7-31.6-85.3-48.4-143.9-52.9-12.3-1-40.4-1.2-54.1-.4zm20.6 123.4c29.5 3 52 13.3 70.4 32.5 17.8 18.5 27.3 38.5 32.5 68.4 1.9 10.9 3.5 32.4 3.5 46.7V459H384l.6-2.8c6.5-28.9 13.1-48.3 23.1-68.2 9.1-18.2 18-30.7 30.8-43.5 21.6-21.7 45.2-35.4 71.4-41.4 16.6-3.9 29.6-4.7 46.7-3z"/></svg>