<?xml version="1.0" standalone="no"?>
<!DOCTYPE svg PUBLIC "-//W3C//DTD SVG 20010904//EN"
 "http://www.w3.org/TR/2001/REC-SVG-20010904/DTD/svg10.dtd">
<svg version="1.0" xmlns="http://www.w3.org/2000/svg"
 width="270.000000pt" height="270.000000pt" viewBox="0 0 270.000000 270.000000"
 preserveAspectRatio="xMidYMid meet">
<metadata>
Created by potrace 1.11, written by Peter Selinger 2001-2013
</metadata>
<g transform="translate(0.000000,270.000000) scale(0.100000,-0.100000)"
fill="#000000" stroke="none">
<path d="M3 1372 c2 -1095 4 -1327 15 -1324 8 1 11 -2 7 -8 -3 -6 -11 -7 -17
-4 -6 4 -8 -1 -6 -12 3 -16 14 -19 76 -21 39 -1 72 3 72 8 0 5 5 9 11 9 5 0 8
-4 5 -8 -2 -4 6 -8 18 -8 14 0 23 6 23 15 1 37 -39 50 -58 20 -5 -8 -9 -10 -9
-5 0 5 8 18 17 28 15 17 15 21 3 30 -12 8 -11 9 3 4 12 -4 17 -2 14 6 -2 7
-11 13 -20 13 -22 0 -31 12 -10 12 10 0 24 -5 32 -11 11 -9 13 -7 7 12 -5 14
-3 22 4 22 6 0 8 -5 5 -10 -3 -6 -2 -10 4 -10 6 0 1 -16 -10 -35 -16 -27 -17
-34 -6 -29 8 3 18 1 22 -5 3 -6 11 -11 18 -11 6 0 1 7 -11 16 -19 13 -20 18
-10 37 7 12 11 26 10 30 -1 5 2 5 8 2 6 -4 9 -13 6 -21 -3 -8 0 -11 10 -7 11
4 12 9 5 16 -16 16 -13 31 2 18 8 -6 17 -8 20 -4 11 11 8 20 -9 27 -8 3 -13 2
-10 -2 2 -4 -5 -9 -17 -9 -21 -2 -21 -1 3 17 14 11 29 20 33 20 5 0 5 5 2 10
-4 6 -1 9 5 8 7 -2 14 5 15 15 2 11 7 22 11 25 4 4 5 0 1 -9 -3 -9 0 -22 6
-29 9 -10 9 -11 -2 -5 -10 6 -12 4 -7 -4 4 -7 2 -10 -5 -9 -6 2 -14 -4 -16
-12 -4 -13 -3 -13 6 0 9 13 11 12 11 -5 1 -18 2 -17 11 4 6 14 15 21 24 18 9
-4 12 -1 8 8 -3 8 -9 12 -14 9 -15 -9 -10 6 6 23 12 11 13 19 5 28 -8 9 -8 15
0 20 6 3 8 11 5 16 -4 5 -1 9 4 9 13 0 14 -13 2 -26 -6 -5 -4 -14 6 -23 12
-11 14 -10 11 5 -2 13 3 19 17 19 12 0 19 -6 17 -14 -3 -12 0 -12 12 -1 17 13
22 25 7 16 -5 -3 -14 1 -21 9 -7 8 -16 12 -21 9 -5 -3 -6 3 -2 12 5 13 3 15
-7 9 -8 -5 -11 -4 -6 3 4 6 14 8 23 5 12 -5 14 -3 8 8 -4 8 -4 11 0 6 5 -4 19
0 31 8 17 11 25 12 30 3 5 -7 3 -8 -6 -3 -8 5 -11 4 -6 -3 6 -10 -21 -32 -36
-29 -3 1 -10 -1 -14 -5 -4 -4 11 -7 34 -5 29 1 38 5 31 14 -7 7 -6 14 1 18 14
9 32 -4 24 -18 -4 -7 -3 -8 1 -4 12 10 16 39 5 32 -9 -6 -40 21 -40 35 0 5 4
11 9 14 5 3 8 -2 7 -11 0 -10 7 -19 17 -21 9 -2 17 2 17 8 0 6 -5 8 -10 5 -6
-3 -10 -2 -10 3 0 6 7 12 15 16 8 3 15 1 15 -4 0 -5 9 -8 19 -7 12 1 17 6 13
16 -4 10 -1 12 7 6 10 -6 11 -3 2 12 -16 31 7 48 33 25 19 -15 20 -16 7 0 -14
19 -6 42 11 32 7 -4 8 -2 4 4 -10 16 6 15 24 -1 12 -10 12 -9 2 4 -10 13 -9
19 2 29 9 6 20 9 26 5 6 -4 9 -1 8 6 -2 7 7 18 20 24 22 12 22 13 3 18 -11 2
-22 2 -26 -1 -3 -3 -16 -7 -28 -9 -20 -2 -20 -2 -4 8 10 6 14 15 10 22 -5 9
-3 9 8 0 13 -10 20 -10 35 1 21 16 25 37 9 48 -6 5 -6 8 3 9 21 3 26 4 50 17
12 7 19 18 16 24 -4 7 -3 8 4 4 7 -4 12 -3 12 3 0 5 -6 11 -12 14 -7 2 -5 3 5
2 9 -2 17 1 17 6 0 6 6 4 14 -3 8 -7 12 -17 9 -22 -3 -4 -9 -3 -13 4 -5 8 -10
6 -15 -7 -5 -10 -7 -22 -6 -26 1 -5 -3 -6 -8 -3 -5 4 -12 2 -15 -3 -4 -5 -2
-12 4 -16 6 -4 7 -11 4 -17 -4 -7 -2 -8 5 -4 6 4 9 11 6 16 -3 5 3 13 12 19
11 6 13 11 5 11 -7 0 -11 4 -8 9 4 5 17 8 31 7 13 -2 22 1 19 6 -3 5 0 15 6
23 7 8 9 15 4 15 -5 0 2 7 14 16 12 8 22 22 22 31 0 9 3 13 7 10 3 -4 13 2 20
13 8 11 18 18 23 15 5 -3 7 8 5 25 -5 35 8 39 29 8 9 -12 16 -17 16 -11 0 7
-5 15 -11 19 -8 4 -7 9 2 15 22 13 29 11 23 -9 -5 -14 -4 -14 4 -2 17 22 -5
43 -30 29 -11 -6 -22 -8 -25 -6 -2 3 5 8 16 12 20 6 24 15 19 33 -2 4 -7 6
-11 4 -5 -1 -6 2 -2 8 9 14 38 -9 31 -25 -2 -6 5 -17 16 -24 11 -7 17 -8 14
-3 -8 14 20 35 36 27 7 -4 6 -1 -3 7 -16 13 -15 43 2 32 5 -3 12 2 15 10 3 9
11 13 18 9 6 -4 4 2 -4 12 -14 17 -13 18 4 12 10 -4 25 -2 32 4 7 6 17 8 22 5
5 -3 9 1 9 9 0 7 -8 13 -18 12 -10 -1 -15 -5 -12 -11 4 -5 -1 -7 -11 -3 -12 5
-15 3 -10 -6 4 -6 3 -8 -1 -4 -16 14 -14 36 3 30 11 -3 9 3 -7 16 -13 12 -19
21 -13 21 5 0 15 -7 22 -15 7 -9 20 -15 29 -13 9 1 21 -1 28 -5 6 -4 15 -2 19
4 4 7 3 9 -4 5 -6 -3 -13 -2 -17 4 -6 9 7 14 28 11 4 0 7 3 7 9 0 14 -12 12
-39 -7 -16 -10 -21 -12 -16 -3 6 10 4 12 -9 7 -10 -4 -15 -3 -11 3 4 6 12 10
18 9 28 -3 35 2 31 23 -3 15 -2 18 3 8 9 -18 43 -26 43 -10 0 20 2 25 12 37 6
7 14 11 18 8 4 -3 11 2 14 10 4 12 10 13 25 6 14 -8 22 -7 30 3 8 9 8 16 2 20
-5 4 -12 2 -16 -3 -7 -12 -45 -10 -45 2 0 4 -5 5 -12 1 -6 -4 -8 -3 -5 3 4 6
19 9 34 7 15 -1 34 3 42 9 12 9 13 9 7 0 -4 -7 -3 -13 2 -13 19 0 21 14 5 34
-14 15 -14 18 -2 8 9 -6 19 -10 22 -7 4 3 5 2 2 -2 -6 -8 14 -33 27 -33 6 0 4
8 -3 18 -12 15 -12 16 2 4 13 -10 19 -9 29 3 7 8 17 15 22 15 5 0 -3 -10 -17
-23 -17 -14 -24 -28 -20 -39 7 -18 21 -18 50 1 13 8 15 11 3 7 -19 -5 -33 20
-16 30 7 4 8 3 4 -4 -11 -19 15 -14 31 6 13 15 13 15 4 -5 -7 -14 -8 -24 -1
-28 5 -3 10 -1 10 6 0 7 9 2 20 -11 11 -13 20 -27 20 -33 0 -5 8 -3 18 4 14
11 15 11 5 -1 -17 -18 -17 -33 0 -23 25 15 37 12 27 -7 -13 -24 -13 -33 0 -25
16 10 12 -5 -7 -23 -13 -13 -16 -14 -11 -2 4 10 -1 15 -17 16 -22 2 -21 1 6
-26 16 -15 25 -31 21 -35 -4 -5 -2 -5 5 -1 7 4 21 -2 33 -14 11 -11 20 -15 20
-10 0 6 0 12 0 15 0 3 -3 5 -6 4 -8 -1 -24 22 -24 34 0 4 10 -1 22 -12 11 -11
25 -18 31 -14 5 3 3 9 -4 14 -10 6 -10 9 -2 9 17 0 29 -23 15 -28 -17 -5 -15
-42 3 -42 8 0 15 6 15 13 0 9 3 8 9 -2 7 -11 10 -11 15 0 3 8 3 3 -1 -11 -5
-22 -4 -23 10 -11 14 11 18 11 23 -3 3 -9 10 -14 14 -11 5 3 12 0 16 -7 4 -7
4 -10 -1 -6 -4 4 -16 -3 -27 -15 -11 -12 -17 -17 -14 -10 4 6 -3 14 -14 18
-11 4 -18 10 -16 14 3 4 1 13 -3 19 -6 10 -11 9 -21 -3 -11 -13 -10 -14 4 -9
9 4 16 3 15 -2 -4 -21 2 -35 11 -29 14 9 12 -8 -2 -24 -11 -11 -10 -12 2 -5 8
5 23 7 33 6 9 -2 17 2 17 7 0 6 5 11 11 11 5 0 7 -5 4 -10 -3 -6 -2 -10 4 -10
5 0 12 6 15 13 4 8 5 7 5 -3 -2 -30 1 -41 11 -35 16 10 11 -1 -7 -16 -14 -12
-16 -12 -8 0 5 10 4 12 -3 7 -19 -12 -14 -29 5 -21 27 11 63 14 63 5 0 -4 -7
-13 -15 -20 -13 -11 -14 -10 -9 4 8 21 -10 21 -27 -1 -8 -9 -9 -14 -2 -10 6 4
13 2 15 -5 3 -9 15 -6 40 9 25 15 35 17 35 7 0 -7 -4 -11 -9 -8 -4 3 -7 -5 -5
-17 4 -22 34 -41 50 -32 4 2 7 -1 7 -7 0 -7 -8 -9 -20 -5 -26 8 -23 -12 5 -38
20 -18 20 -18 -5 -3 -28 18 -40 20 -40 6 0 -6 3 -9 7 -9 20 3 33 -2 31 -12 -3
-12 22 -21 58 -21 29 0 49 -34 32 -56 -8 -10 -9 -13 -1 -9 11 7 57 -46 48 -55
-7 -7 50 -2 62 5 16 10 10 -32 -7 -44 -13 -9 -12 -10 3 -5 9 3 23 9 31 12 11
4 14 -3 12 -30 -3 -28 0 -34 9 -26 9 8 14 6 19 -5 3 -8 1 -15 -4 -15 -6 0 -10
-5 -10 -11 0 -8 6 -7 17 2 15 12 16 12 11 -2 -4 -9 -2 -21 4 -27 13 -13 38 -5
34 11 -1 7 -1 9 1 4 3 -4 10 -4 16 0 8 5 8 2 0 -9 -7 -8 -10 -18 -6 -21 3 -4
12 1 20 11 12 16 13 16 6 -2 -4 -14 -3 -17 6 -12 8 5 14 1 18 -13 3 -11 8 -19
12 -17 4 3 13 -4 20 -16 7 -11 8 -17 2 -13 -12 7 -15 -8 -4 -19 5 -4 8 -11 8
-14 0 -4 10 -17 21 -28 12 -12 24 -28 26 -35 4 -11 13 -8 39 10 19 14 28 18
21 9 -7 -9 -9 -18 -5 -20 4 -3 2 -3 -5 -2 -7 2 -15 -3 -18 -11 -4 -8 -11 -12
-17 -8 -6 3 -7 1 -3 -6 6 -8 12 -9 20 -2 7 6 16 8 19 4 4 -3 15 0 24 8 17 13
17 13 0 -7 -9 -11 -24 -21 -32 -22 -8 -1 -22 -3 -30 -4 -8 -1 -12 -4 -10 -8 5
-8 42 -6 51 3 4 4 12 7 18 7 6 0 5 -5 -2 -12 -7 -7 -12 -17 -12 -22 0 -6 4 -5
9 3 7 11 10 9 16 -8 4 -13 12 -20 20 -17 8 3 19 -2 25 -10 10 -11 9 -18 -1
-31 -12 -15 -12 -16 1 -8 8 5 23 8 33 7 9 -2 17 3 17 10 0 9 3 9 8 2 4 -6 14
-14 22 -17 11 -5 9 -6 -5 -6 -38 2 -44 -1 -39 -18 5 -15 3 -15 -11 2 l-17 20
4 -20 c2 -12 -2 -19 -9 -18 -7 2 -13 -2 -13 -7 0 -14 13 -13 28 2 7 7 12 8 12
2 0 -6 -5 -15 -11 -21 -9 -9 -5 -14 15 -19 20 -5 30 -2 41 12 7 11 17 16 21
11 4 -4 2 -7 -5 -7 -7 0 -9 -4 -6 -10 3 -5 35 -10 70 -10 l64 0 1 1349 0 1349
-1349 1 -1350 0 2 -1327z m1267 -152 c0 -5 -5 -10 -11 -10 -5 0 -7 5 -4 10 3
6 8 10 11 10 2 0 4 -4 4 -10z m240 -16 c0 -8 -19 -13 -24 -6 -3 5 1 9 9 9 8 0
15 -2 15 -3z m-273 -34 c11 0 7 -7 -11 -21 -14 -11 -24 -24 -21 -29 3 -5 1
-11 -4 -15 -6 -3 -15 3 -21 14 -9 17 -8 20 5 15 10 -4 15 -2 13 7 -2 8 3 13
10 11 9 -2 12 5 8 20 -3 13 -3 17 0 11 3 -7 13 -13 21 -13z m176 6 c4 -10 1
-13 -9 -9 -15 6 -19 23 -5 23 5 0 11 -7 14 -14z m-229 -18 c-2 -3 -13 -6 -24
-5 -24 2 -18 13 9 13 11 0 18 -4 15 -8z m-34 -38 c0 -5 -5 -10 -11 -10 -5 0
-7 5 -4 10 3 6 8 10 11 10 2 0 4 -4 4 -10z m457 -56 c-3 -3 -12 -4 -19 -1 -8
3 -5 6 6 6 11 1 17 -2 13 -5z m-34 -25 c4 -16 3 -18 -9 -8 -7 6 -11 15 -8 20
8 13 11 11 17 -12z m-503 -17 c0 -4 -5 -13 -12 -20 -9 -9 -9 -12 0 -12 6 0 9
-7 6 -15 -4 -8 -10 -13 -14 -10 -4 2 -15 -4 -24 -14 -12 -13 -14 -20 -6 -23 8
-2 7 -8 -4 -17 -15 -13 -16 -12 -12 12 2 14 1 28 -2 30 -4 2 -2 2 5 1 7 -2 15
1 18 6 6 9 -8 14 -28 11 -5 -1 -6 3 -2 8 3 6 13 7 22 4 12 -5 14 -3 8 8 -4 8
-5 11 0 7 10 -10 37 11 29 23 -3 5 0 9 5 9 6 0 11 -4 11 -8z m615 -13 c-4 -5
-12 -9 -18 -8 -9 0 -8 2 1 6 6 2 9 10 6 15 -4 7 -2 8 5 4 6 -4 9 -12 6 -17z
m-772 -173 c7 3 -4 -10 -23 -29 -45 -45 -65 -70 -65 -79 0 -5 -4 -8 -10 -7 -5
0 -9 7 -7 16 2 10 -1 12 -9 7 -8 -4 -10 -3 -5 4 4 6 14 8 24 5 14 -6 15 -4 5
8 -8 10 -9 19 -1 29 8 12 9 12 4 -2 -3 -10 -1 -20 4 -23 12 -7 19 17 9 36 -4
8 -3 22 2 30 8 12 10 12 8 -1 -3 -28 1 -41 10 -36 5 4 8 17 7 31 -2 13 1 22 5
19 5 -3 9 1 9 8 0 8 5 6 11 -5 6 -9 16 -15 22 -11z m-145 -101 c-3 -3 -9 2
-12 12 -6 14 -5 15 5 6 7 -7 10 -15 7 -18z m1160 -13 c-2 -21 3 -32 14 -26 7
4 8 3 4 -4 -4 -6 -13 -9 -22 -5 -8 3 -13 8 -10 11 3 2 1 13 -5 23 -7 15 -6 17
5 13 9 -3 15 -9 14 -12z m-1203 -44 c-9 -6 -19 -7 -22 -4 -4 3 -1 6 6 6 7 0 9
4 6 10 -4 6 1 7 11 3 15 -6 15 -7 -1 -15z m1283 -24 c-4 -3 -12 5 -18 18 -12
22 -12 22 6 6 10 -10 15 -20 12 -24z m32 -29 c0 -7 -6 -15 -14 -18 -18 -7 -42
18 -26 28 5 3 10 -1 10 -10 0 -9 5 -13 11 -10 6 4 8 14 5 22 -3 8 -1 11 4 8 6
-3 10 -12 10 -20z m-1362 -10 c-2 -5 -8 -10 -15 -11 -6 -1 -9 4 -6 12 6 16 27
15 21 -1z m1412 -10 c0 -7 -30 -13 -34 -7 -3 4 4 9 15 9 10 1 19 0 19 -2z
m-25 -27 c5 4 5 1 1 -6 -5 -9 -12 -9 -27 -2 -11 6 -16 16 -13 22 5 7 11 6 19
-5 7 -9 16 -13 20 -9z m-1480 -17 c3 -5 2 -12 -3 -15 -5 -3 -9 1 -9 9 0 17 3
19 12 6z m85 5 c0 -2 -35 -30 -77 -61 -99 -74 -97 -71 -82 -80 8 -5 10 -4 5 3
-4 7 -2 12 3 12 13 0 14 -10 2 -29 -7 -11 -11 -9 -21 9 -9 18 -9 24 0 30 7 4
9 13 5 20 -5 9 -4 11 3 6 7 -4 12 -1 12 6 0 9 3 9 10 -2 5 -8 10 -12 11 -7 1
4 3 12 4 17 1 6 3 15 4 21 0 5 6 7 11 4 6 -3 10 -1 10 5 0 7 8 9 20 5 16 -5
19 -3 13 11 -5 13 -3 16 9 11 9 -3 24 1 35 8 19 15 23 17 23 11z m1490 -50
c-20 -20 -10 -29 12 -10 19 15 20 16 9 2 -10 -13 -10 -18 -2 -18 7 0 10 -4 6
-9 -3 -5 -1 -12 3 -15 5 -3 7 -17 5 -31 -3 -13 -9 -22 -14 -20 -4 3 -6 12 -3
19 3 8 1 17 -5 20 -6 4 -8 13 -4 22 3 8 2 14 -3 13 -26 -4 -36 1 -25 14 6 8 9
16 6 19 -3 2 2 5 10 5 11 0 12 -4 5 -11z m65 -56 c3 -5 1 -10 -4 -10 -6 0 -11
5 -11 10 0 6 2 10 4 10 3 0 8 -4 11 -10z m-1740 -40 c3 -5 1 -10 -4 -10 -6 0
-11 5 -11 10 0 6 2 10 4 10 3 0 8 -4 11 -10z m-61 -42 c-2 -3 -13 -6 -24 -5
-24 2 -18 13 9 13 11 0 18 -4 15 -8z m1903 -51 c-7 -18 2 -29 35 -46 22 -11
25 -17 17 -28 -9 -10 -16 -8 -38 15 -15 15 -26 34 -25 42 2 8 3 18 3 23 1 4 4
7 7 7 3 0 4 -6 1 -13z m58 -6 c-3 -2 -16 -6 -28 -8 -15 -2 -18 0 -9 5 14 9 45
12 37 3z m-2075 -41 c0 -5 -5 -10 -11 -10 -5 0 -7 5 -4 10 3 6 8 10 11 10 2 0
4 -4 4 -10z m20 -24 c0 -3 -4 -8 -10 -11 -5 -3 -10 -1 -10 4 0 6 5 11 10 11 6
0 10 -2 10 -4z m2122 -68 c-4 -16 -2 -20 10 -16 8 4 21 2 29 -4 11 -8 10 -9
-4 -4 -12 4 -17 2 -14 -6 2 -7 13 -12 23 -10 14 2 16 1 6 -6 -11 -8 -11 -10 2
-15 8 -3 17 -1 20 6 3 8 5 8 5 1 1 -6 -7 -18 -16 -25 -10 -7 -15 -9 -11 -5 8
9 -28 40 -47 41 -5 1 -9 6 -7 13 1 7 -2 12 -8 12 -12 0 -9 22 5 32 14 11 14
11 7 -14z m-2251 -21 c-10 -9 -11 -8 -5 6 3 10 9 15 12 12 3 -3 0 -11 -7 -18z
m-87 -85 c3 -5 -1 -9 -9 -9 -8 0 -12 4 -9 9 3 4 7 8 9 8 2 0 6 -4 9 -8z m2572
-4 c3 -4 -1 -5 -10 -4 -8 1 -18 5 -22 8 -3 4 1 5 10 4 8 -1 18 -5 22 -8z
m-144 -20 c-18 -18 -14 -32 5 -17 15 13 15 12 2 -8 -9 -16 -16 -19 -21 -10 -6
9 -8 8 -8 -2 0 -8 -2 -12 -5 -9 -8 8 17 58 29 58 6 0 5 -5 -2 -12z m-2418 -28
c-6 -6 -10 -3 -10 10 0 13 4 16 10 10 7 -7 7 -13 0 -20z m70 -10 c-8 -8 -15
-6 -25 6 -9 12 -10 15 -1 10 7 -4 12 -2 12 5 0 10 3 10 12 1 8 -8 9 -15 2 -22z
m-130 2 c3 -5 -1 -9 -9 -9 -8 0 -12 4 -9 9 3 4 7 8 9 8 2 0 6 -4 9 -8z m2560
0 c3 -5 -1 -9 -9 -9 -8 0 -12 4 -9 9 3 4 7 8 9 8 2 0 6 -4 9 -8z m46 -2 c0 -5
-5 -10 -11 -10 -5 0 -7 5 -4 10 3 6 8 10 11 10 2 0 4 -4 4 -10z"/>
<path d="M884 832 c3 -5 0 -13 -6 -15 -9 -4 -10 -6 -1 -6 17 -1 25 16 12 25
-7 4 -9 3 -5 -4z"/>
<path d="M566 505 c-11 -8 -15 -15 -9 -15 6 0 16 7 23 15 16 19 11 19 -14 0z"/>
<path d="M2356 267 c3 -10 9 -15 12 -12 3 3 0 11 -7 18 -10 9 -11 8 -5 -6z"/>
<path d="M1339 1199 c-8 -41 -8 -52 0 -40 7 11 9 11 13 0 3 -10 6 -9 11 3 3 9
-1 22 -9 28 -8 7 -14 11 -15 9z"/>
<path d="M1440 1155 c-7 -9 -6 -14 4 -18 11 -4 13 -1 10 11 -4 10 2 7 15 -8
11 -14 21 -31 21 -39 0 -7 6 -11 15 -8 8 4 17 1 21 -5 4 -7 9 -6 15 3 13 21
11 33 -5 20 -11 -9 -18 -5 -34 22 -20 35 -45 43 -62 22z m50 -15 c6 -11 8 -20
6 -20 -3 0 -10 9 -16 20 -6 11 -8 20 -6 20 3 0 10 -9 16 -20z"/>
<path d="M1370 1151 c0 -6 4 -13 10 -16 6 -3 7 1 4 9 -7 18 -14 21 -14 7z"/>
<path d="M1230 1119 c0 -5 5 -7 10 -4 6 3 10 8 10 11 0 2 -4 4 -10 4 -5 0 -10
-5 -10 -11z"/>
<path d="M1516 1027 c3 -10 9 -15 12 -12 3 3 0 11 -7 18 -10 9 -11 8 -5 -6z"/>
<path d="M1130 980 c0 -5 5 -10 11 -10 5 0 7 5 4 10 -3 6 -8 10 -11 10 -2 0
-4 -4 -4 -10z"/>
<path d="M1616 957 c3 -10 9 -15 12 -12 3 3 0 11 -7 18 -10 9 -11 8 -5 -6z"/>
<path d="M1695 950 c-4 -7 -2 -16 6 -21 18 -11 23 -4 11 17 -7 12 -11 13 -17
4z"/>
<path d="M1630 926 c0 -2 7 -7 16 -10 8 -3 12 -2 9 4 -6 10 -25 14 -25 6z"/>
<path d="M1719 879 c-9 -5 -10 -9 -2 -9 6 0 14 -8 16 -17 4 -17 5 -17 6 0 0
10 6 15 11 12 6 -3 10 -2 10 3 0 15 -25 21 -41 11z"/>
<path d="M1691 864 c0 -11 3 -14 6 -6 3 7 2 16 -1 19 -3 4 -6 -2 -5 -13z"/>
<path d="M941 824 c0 -11 3 -14 6 -6 3 7 2 16 -1 19 -3 4 -6 -2 -5 -13z"/>
<path d="M1821 796 c-10 -12 -8 -13 8 -9 12 3 18 9 15 14 -7 12 -10 11 -23 -5z"/>
<path d="M1827 773 c-4 -3 -7 -11 -7 -17 0 -6 4 -4 10 4 5 8 12 11 16 7 4 -3
1 -15 -7 -24 -12 -16 -12 -17 2 -6 9 7 19 9 24 5 4 -4 2 3 -4 16 -12 22 -22
27 -34 15z"/>
<path d="M870 746 c0 -2 7 -7 16 -10 8 -3 12 -2 9 4 -6 10 -25 14 -25 6z"/>
<path d="M846 698 c3 -5 10 -6 15 -3 13 9 11 12 -6 12 -8 0 -12 -4 -9 -9z"/>
<path d="M1947 663 c-10 -16 11 -39 23 -27 8 8 7 14 -4 23 -8 7 -17 8 -19 4z"/>
<path d="M706 627 c2 -11 8 -25 14 -31 8 -8 9 -6 4 8 -5 13 -4 17 3 13 7 -4
10 0 9 10 -2 9 -10 17 -19 19 -11 1 -14 -4 -11 -19z"/>
<path d="M1895 640 c-2 -3 5 -7 16 -7 10 -1 19 2 19 6 0 9 -29 10 -35 1z"/>
<path d="M1975 589 c-4 -6 -5 -12 -2 -15 2 -3 7 2 10 11 7 17 1 20 -8 4z"/>
<path d="M2035 540 c-3 -5 -1 -10 4 -10 6 0 11 5 11 10 0 6 -2 10 -4 10 -3 0
-8 -4 -11 -10z"/>
<path d="M2065 540 c-3 -5 1 -10 9 -10 9 0 16 5 16 10 0 6 -4 10 -9 10 -6 0
-13 -4 -16 -10z"/>
<path d="M670 519 c0 -5 5 -7 10 -4 6 3 10 8 10 11 0 2 -4 4 -10 4 -5 0 -10
-5 -10 -11z"/>
<path d="M2050 511 c0 -6 4 -13 10 -16 6 -3 7 1 4 9 -7 18 -14 21 -14 7z"/>
<path d="M2100 505 c-9 -11 -9 -15 -1 -15 7 0 9 -5 5 -12 -4 -7 -3 -10 1 -5 8
6 16 47 10 47 -2 0 -8 -7 -15 -15z"/>
<path d="M635 500 c3 -5 8 -10 11 -10 2 0 4 5 4 10 0 6 -5 10 -11 10 -5 0 -7
-4 -4 -10z"/>
<path d="M550 441 c0 -6 4 -13 10 -16 6 -3 7 1 4 9 -7 18 -14 21 -14 7z"/>
<path d="M2199 396 c-1 -3 -2 -9 -3 -13 -1 -5 -4 -13 -8 -18 -4 -6 2 -11 12
-11 12 0 16 5 12 16 -5 12 -3 13 9 3 8 -6 17 -12 22 -12 4 -1 10 -1 15 -2 4 0
-2 -5 -13 -10 -19 -9 -18 -9 3 -5 15 3 22 -1 22 -12 0 -15 2 -15 10 -2 6 10 5
17 -5 23 -8 4 -15 14 -15 22 0 7 -8 12 -17 10 -10 -1 -24 2 -30 8 -7 5 -14 7
-14 3z"/>
<path d="M2270 300 c0 -5 5 -10 10 -10 6 0 10 5 10 10 0 6 -4 10 -10 10 -5 0
-10 -4 -10 -10z"/>
<path d="M340 235 c0 -5 5 -17 10 -25 5 -8 10 -10 10 -5 0 6 -5 17 -10 25 -5
8 -10 11 -10 5z"/>
<path d="M215 80 c3 -5 8 -10 11 -10 2 0 4 5 4 10 0 6 -5 10 -11 10 -5 0 -7
-4 -4 -10z"/>
</g>
</svg>
