<svg width="285" height="19" viewBox="0 0 285 19" fill="none" xmlns="http://www.w3.org/2000/svg">
<path d="M269.469 18.7361V0.263889H276.948C278.559 0.263889 279.935 0.527778 281.078 1.05556C282.238 1.58333 283.129 2.33982 283.753 3.325C284.376 4.31019 284.688 5.48009 284.688 6.83472C284.688 8.18935 284.376 9.35926 283.753 10.3444C283.129 11.312 282.238 12.0597 281.078 12.5875C279.935 13.0977 278.559 13.3528 276.948 13.3528H271.339L272.845 11.7958V18.7361H269.469ZM281.363 18.7361L276.767 12.0333H280.376L284.999 18.7361H281.363ZM272.845 12.1653L271.339 10.5292H276.792C278.281 10.5292 279.398 10.2037 280.143 9.55278C280.905 8.90185 281.285 7.99583 281.285 6.83472C281.285 5.65602 280.905 4.75 280.143 4.11667C279.398 3.48333 278.281 3.16667 276.792 3.16667H271.339L272.845 1.47778V12.1653Z" fill="#2F455C"/>
<path d="M255.187 7.94306H264.225V10.7667H255.187V7.94306ZM255.447 15.8597H265.705V18.7361H252.07V0.263889H265.341V3.14028H255.447V15.8597Z" fill="#2F455C"/>
<path d="M232.316 18.7361V0.263889H240.835C243.016 0.263889 244.678 0.703705 245.821 1.58333C246.964 2.44537 247.535 3.60648 247.535 5.06667C247.535 6.05185 247.31 6.8963 246.86 7.6C246.41 8.28611 245.804 8.82269 245.042 9.20972C244.298 9.57917 243.484 9.76389 242.601 9.76389L243.068 8.81389C244.09 8.81389 245.007 9.00741 245.821 9.39444C246.635 9.76389 247.276 10.3093 247.743 11.0306C248.228 11.7519 248.47 12.6491 248.47 13.7222C248.47 15.3056 247.873 16.537 246.678 17.4167C245.484 18.2963 243.709 18.7361 241.354 18.7361H232.316ZM235.693 16.0444H241.146C242.41 16.0444 243.38 15.8333 244.055 15.4111C244.73 14.9889 245.068 14.3116 245.068 13.3792C245.068 12.4644 244.73 11.7958 244.055 11.3736C243.38 10.9338 242.41 10.7139 241.146 10.7139H235.433V8.04861H240.471C241.649 8.04861 242.549 7.8375 243.172 7.41528C243.813 6.99306 244.133 6.35972 244.133 5.51528C244.133 4.65324 243.813 4.01111 243.172 3.58889C242.549 3.16667 241.649 2.95556 240.471 2.95556H235.693V16.0444Z" fill="#2F455C"/>
<path d="M218.034 7.94306H227.072V10.7667H218.034V7.94306ZM218.294 15.8597H228.553V18.7361H214.918V0.263889H228.189V3.14028H218.294V15.8597Z" fill="#2F455C"/>
<path d="M203.346 19C201.926 19 200.619 18.7713 199.424 18.3139C198.247 17.8389 197.217 17.1792 196.334 16.3347C195.451 15.4727 194.767 14.4611 194.282 13.3C193.797 12.1389 193.555 10.8722 193.555 9.5C193.555 8.12778 193.797 6.86111 194.282 5.7C194.767 4.53889 195.451 3.53611 196.334 2.69167C197.234 1.82963 198.281 1.16991 199.476 0.7125C200.671 0.2375 201.978 0 203.398 0C204.939 0 206.324 0.255093 207.553 0.765277C208.8 1.27546 209.847 2.02315 210.695 3.00833L208.566 5.11944C207.856 4.39815 207.085 3.87037 206.254 3.53611C205.441 3.18426 204.54 3.00833 203.553 3.00833C202.601 3.00833 201.718 3.16667 200.904 3.48333C200.091 3.8 199.389 4.24861 198.801 4.82917C198.212 5.40972 197.753 6.09583 197.424 6.8875C197.113 7.67917 196.957 8.55 196.957 9.5C196.957 10.4324 197.113 11.2944 197.424 12.0861C197.753 12.8778 198.212 13.5727 198.801 14.1708C199.389 14.7514 200.082 15.2 200.878 15.5167C201.675 15.8333 202.558 15.9917 203.527 15.9917C204.428 15.9917 205.293 15.8509 206.125 15.5694C206.973 15.2704 207.778 14.7778 208.54 14.0917L210.462 16.6514C209.509 17.4255 208.401 18.0148 207.137 18.4194C205.891 18.8065 204.627 19 203.346 19ZM207.267 16.2028V9.28889H210.462V16.6514L207.267 16.2028Z" fill="#2F455C"/>
<path d="M183.174 18.7361V3.16667H177.148V0.263889H192.575V3.16667H186.55V18.7361H183.174Z" fill="#2F455C"/>
<path d="M158.375 18.7361L166.556 0.263889H169.88L178.087 18.7361H174.555L167.517 2.08472H168.867L161.855 18.7361H158.375ZM162.141 14.4611L163.05 11.7694H172.867L173.776 14.4611H162.141Z" fill="#2F455C"/>
<path d="M141.949 18.7361V0.263889H149.429C151.039 0.263889 152.415 0.527778 153.558 1.05556C154.718 1.58333 155.61 2.33982 156.233 3.325C156.856 4.31019 157.168 5.48009 157.168 6.83472C157.168 8.18935 156.856 9.35926 156.233 10.3444C155.61 11.312 154.718 12.0597 153.558 12.5875C152.415 13.0977 151.039 13.3528 149.429 13.3528H143.819L145.325 11.7958V18.7361H141.949ZM153.844 18.7361L149.247 12.0333H152.857L157.48 18.7361H153.844ZM145.325 12.1653L143.819 10.5292H149.273C150.762 10.5292 151.879 10.2037 152.623 9.55278C153.385 8.90185 153.766 7.99583 153.766 6.83472C153.766 5.65602 153.385 4.75 152.623 4.11667C151.879 3.48333 150.762 3.16667 149.273 3.16667H143.819L145.325 1.47778V12.1653Z" fill="#2F455C"/>
<path d="M122.838 18.7361V3.16667H116.812V0.263889H132.239V3.16667H126.214V18.7361H122.838Z" fill="#2F455C"/>
<path d="M104.411 14.3819L104.229 10.3181L113.76 0.263889H117.552L109.631 8.81389L107.761 10.8986L104.411 14.3819ZM101.398 18.7361V0.263889H104.775V18.7361H101.398ZM114.072 18.7361L107.112 10.3181L109.345 7.81111L118.02 18.7361H114.072Z" fill="#2F455C"/>
<path d="M88.723 19C86.2298 19 84.2734 18.2875 82.8536 16.8625C81.4512 15.4375 80.75 13.3792 80.75 10.6875V0.263889H84.1262V10.5556C84.1262 12.4556 84.5244 13.8366 85.3208 14.6986C86.1346 15.5606 87.2773 15.9917 88.749 15.9917C90.2206 15.9917 91.3547 15.5606 92.1511 14.6986C92.9476 13.8366 93.3458 12.4556 93.3458 10.5556V0.263889H96.67V10.6875C96.67 13.3792 95.9602 15.4375 94.5404 16.8625C93.138 18.2875 91.1989 19 88.723 19Z" fill="#2F455C"/>
<path d="M59.4492 18.7361V0.263889H67.3963C69.37 0.263889 71.1014 0.650926 72.5904 1.425C74.0794 2.19907 75.2394 3.27222 76.0705 4.64444C76.9015 6.01667 77.3171 7.63519 77.3171 9.5C77.3171 11.3472 76.9015 12.9657 76.0705 14.3556C75.2394 15.7278 74.0794 16.8009 72.5904 17.575C71.1014 18.3491 69.37 18.7361 67.3963 18.7361H59.4492ZM62.8254 15.8333H67.2404C68.6082 15.8333 69.7856 15.5694 70.7724 15.0417C71.7766 14.5139 72.5471 13.775 73.0838 12.825C73.6379 11.875 73.9149 10.7667 73.9149 9.5C73.9149 8.21574 73.6379 7.10741 73.0838 6.175C72.5471 5.225 71.7766 4.48611 70.7724 3.95833C69.7856 3.43056 68.6082 3.16667 67.2404 3.16667H62.8254V15.8333Z" fill="#2F455C"/>
<path d="M46.106 19C44.6863 19 43.3791 18.7625 42.1844 18.2875C40.9898 17.8125 39.9509 17.1528 39.0679 16.3083C38.1849 15.4463 37.501 14.4435 37.0162 13.3C36.5315 12.1389 36.2891 10.8722 36.2891 9.5C36.2891 8.12778 36.5315 6.86991 37.0162 5.72639C37.501 4.56528 38.1849 3.5625 39.0679 2.71805C39.9509 1.85602 40.9898 1.1875 42.1844 0.7125C43.3791 0.2375 44.6776 0 46.08 0C47.4997 0 48.7983 0.2375 49.9756 0.7125C51.1703 1.1875 52.2091 1.85602 53.0921 2.71805C53.9751 3.5625 54.659 4.56528 55.1438 5.72639C55.6286 6.86991 55.871 8.12778 55.871 9.5C55.871 10.8722 55.6286 12.1389 55.1438 13.3C54.659 14.4611 53.9751 15.4639 53.0921 16.3083C52.2091 17.1528 51.1703 17.8125 49.9756 18.2875C48.7983 18.7625 47.5084 19 46.106 19ZM46.08 15.9917C46.9976 15.9917 47.846 15.8333 48.6252 15.5167C49.4043 15.2 50.0795 14.7514 50.6509 14.1708C51.2222 13.5727 51.6637 12.8866 51.9754 12.1125C52.3043 11.3208 52.4688 10.45 52.4688 9.5C52.4688 8.55 52.3043 7.68796 51.9754 6.91389C51.6637 6.12222 51.2222 5.43611 50.6509 4.85556C50.0795 4.25741 49.4043 3.8 48.6252 3.48333C47.846 3.16667 46.9976 3.00833 46.08 3.00833C45.1624 3.00833 44.314 3.16667 43.5349 3.48333C42.7731 3.8 42.0978 4.25741 41.5092 4.85556C40.9378 5.43611 40.4877 6.12222 40.1587 6.91389C39.8471 7.68796 39.6912 8.55 39.6912 9.5C39.6912 10.4324 39.8471 11.2944 40.1587 12.0861C40.4877 12.8778 40.9378 13.5727 41.5092 14.1708C42.0805 14.7514 42.7558 15.2 43.5349 15.5167C44.314 15.8333 45.1624 15.9917 46.08 15.9917Z" fill="#2F455C"/>
<path d="M18.5898 18.7361V0.263889H26.0694C27.6796 0.263889 29.056 0.527778 30.1988 1.05556C31.3588 1.58333 32.2504 2.33982 32.8737 3.325C33.497 4.31019 33.8087 5.48009 33.8087 6.83472C33.8087 8.18935 33.497 9.35926 32.8737 10.3444C32.2504 11.312 31.3588 12.0597 30.1988 12.5875C29.056 13.0977 27.6796 13.3528 26.0694 13.3528H20.4597L21.966 11.7958V18.7361H18.5898ZM30.4844 18.7361L25.8876 12.0333H29.4975L34.1203 18.7361H30.4844ZM21.966 12.1653L20.4597 10.5292H25.9136C27.4026 10.5292 28.5193 10.2037 29.2638 9.55278C30.0256 8.90185 30.4065 7.99583 30.4065 6.83472C30.4065 5.65602 30.0256 4.75 29.2638 4.11667C28.5193 3.48333 27.4026 3.16667 25.9136 3.16667H20.4597L21.966 1.47778V12.1653Z" fill="#2F455C"/>
<path d="M0 18.7361V0.263889H7.47956C9.08975 0.263889 10.4662 0.527778 11.6089 1.05556C12.7689 1.58333 13.6606 2.33982 14.2839 3.325C14.9072 4.31019 15.2188 5.48009 15.2188 6.83472C15.2188 8.18935 14.9072 9.35926 14.2839 10.3444C13.6606 11.3296 12.7689 12.0861 11.6089 12.6139C10.4662 13.1417 9.08975 13.4056 7.47956 13.4056H1.86989L3.37619 11.7958V18.7361H0ZM3.37619 12.1653L1.86989 10.5028H7.32374C8.81273 10.5028 9.92947 10.1861 10.674 9.55278C11.4358 8.90185 11.8167 7.99583 11.8167 6.83472C11.8167 5.65602 11.4358 4.75 10.674 4.11667C9.92947 3.48333 8.81273 3.16667 7.32374 3.16667H1.86989L3.37619 1.47778V12.1653Z" fill="#2F455C"/>
</svg>
