<svg version="1" xmlns="http://www.w3.org/2000/svg" width="346.667" height="346.667" viewBox="0 0 260.000000 260.000000"><path d="M13.6 2c-2 .9-5.2 3.1-7.1 5-6.9 6.7-6.6.2-6.3 125.7l.3 113 2.9 4.2c3.8 5.5 7.2 7.8 13.5 9.3 10.8 2.4 22-3.1 25.7-12.8 1.6-4.3 1.8-10.6 1.8-83 0-43.1.3-78 .7-77.6.4.4 15.1 22.4 32.7 48.9 30.9 46.4 35.2 52 40.9 53.7 7.1 2.2 15.4.5 20.7-4.2 1-.9 16.7-24 34.7-51.2L207 83.5V162c0 54.3.4 79.7 1.1 82.5 1.6 5.6 9.1 12.9 14.9 14.5 11.1 3 22.3-2.1 27.1-12.5 1.8-3.8 1.9-9 1.9-115.6 0-123.2.3-116.9-6.3-123.7C241 2.3 237.3.8 228.9.3c-13.2-.9-19 2.3-26.9 14.5-24.8 38.6-30.4 47.4-33 51.7-1.7 2.7-8.4 13.3-15 23.5-6.5 10.2-15.4 24-19.7 30.7-4.3 6.8-8 12.3-8.3 12.3-.4 0-10.5-15.6-48.2-74.7-5.9-9.3-13.1-20.5-16-25.1-2.9-4.5-7.1-11.3-9.3-15C46.9 8.8 40.3 2.6 34.4 1.1 28.1-.5 18-.1 13.6 2z"/></svg>