<?xml version="1.0" encoding="utf-8"?>
<!-- Generator: Adobe Illustrator 17.0.0, SVG Export Plug-In . SVG Version: 6.00 Build 0)  -->
<!DOCTYPE svg PUBLIC "-//W3C//DTD SVG 1.1//EN" "http://www.w3.org/Graphics/SVG/1.1/DTD/svg11.dtd">
<svg version="1.1" id="Слой_1" xmlns="http://www.w3.org/2000/svg" xmlns:xlink="http://www.w3.org/1999/xlink" x="0px" y="0px"
	 width="277.994px" height="194.003px" viewBox="0 0 277.994 194.003" enable-background="new 0 0 277.994 194.003"
	 xml:space="preserve">
<line fill="none" stroke="#45557A" stroke-miterlimit="10" x1="124.218" y1="68.336" x2="133.641" y2="68.336"/>
<line fill="none" stroke="#45557A" stroke-miterlimit="10" x1="124.218" y1="151.031" x2="133.641" y2="151.031"/>
<circle fill="none" stroke="#45557A" stroke-width="2" stroke-miterlimit="10" cx="192.77" cy="79.21" r="23.264"/>
<circle fill="none" stroke="#45557A" stroke-miterlimit="10" cx="241.839" cy="128.111" r="28.774"/>
<line fill="none" stroke="#45557A" stroke-miterlimit="10" x1="221.754" y1="107.615" x2="209.337" y2="95.199"/>
<line fill="none" stroke="#45557A" stroke-miterlimit="10" x1="213.594" y1="128.935" x2="161.241" y2="128.935"/>
<circle fill="none" stroke="#45557A" stroke-width="2" stroke-miterlimit="10" cx="52.182" cy="127.403" r="28.774"/>
<circle fill="none" stroke="#45557A" stroke-miterlimit="10" cx="30.65" cy="59.769" r="23.264"/>
<circle fill="none" stroke="#45557A" stroke-miterlimit="10" cx="30.65" cy="59.769" r="23.264"/>
<line fill="none" stroke="#45557A" stroke-miterlimit="10" x1="43.559" y1="99.953" x2="37.768" y2="81.92"/>
<line fill="none" stroke="#45557A" stroke-miterlimit="10" x1="79.335" y1="118.629" x2="96.615" y2="112.703"/>
<g>
	<path fill="none" stroke="#6F8CBF" stroke-linecap="round" stroke-linejoin="round" stroke-miterlimit="10" d="M67,116.859H36.891
		c-1.188,0-2.151,0.896-2.151,2.084v21.506c0,1.188,0.963,2.218,2.151,2.218H67c1.188,0,2.151-1.03,2.151-2.218v-21.506
		C69.151,117.755,68.187,116.859,67,116.859z"/>
	<path fill="none" stroke="#6F8CBF" stroke-miterlimit="10" d="M60.118,135.731c0,1.426-1.155,2.634-2.581,2.634H42.052
		c-1.426,0-2.581-1.209-2.581-2.634v-12.044c0-1.426,1.155-2.527,2.581-2.527h8.2h2.517h4.768c1.426,0,2.581,1.101,2.581,2.527
		V135.731z"/>
	
		<line fill="none" stroke="#6F8CBF" stroke-linecap="round" stroke-linejoin="round" stroke-miterlimit="10" x1="65.133" y1="120.823" x2="65.133" y2="123.036"/>
	
		<line fill="none" stroke="#6F8CBF" stroke-linecap="round" stroke-linejoin="round" stroke-miterlimit="10" x1="65.133" y1="126.744" x2="65.133" y2="128.957"/>
	
		<line fill="none" stroke="#6F8CBF" stroke-linecap="round" stroke-linejoin="round" stroke-miterlimit="10" x1="65.133" y1="132.665" x2="65.133" y2="134.879"/>
	<polyline fill="none" stroke="#6F8CBF" stroke-linecap="round" stroke-linejoin="round" stroke-miterlimit="10" points="
		61.493,107.478 52.112,116.859 42.731,107.478 	"/>
</g>
<g>
	<polyline fill="none" stroke="#6F8CBF" stroke-miterlimit="10" points="25.631,69.25 25.631,52.208 42.674,47.412 42.674,64.454 	
		"/>
	<line fill="none" stroke="#6F8CBF" stroke-miterlimit="10" x1="25.631" y1="55.456" x2="42.674" y2="50.66"/>
	<ellipse fill="none" stroke="#6F8CBF" stroke-miterlimit="10" cx="20.685" cy="69.25" rx="4.946" ry="2.875"/>
	<ellipse fill="none" stroke="#6F8CBF" stroke-miterlimit="10" cx="37.727" cy="64.454" rx="4.946" ry="2.875"/>
</g>
<g>
	<path fill="none" stroke="#6F8CBF" stroke-miterlimit="10" d="M251.856,116.018h-20.033c-5.885,0-10.701,4.815-10.701,10.701v8.563
		c0,2.719,2.204,4.923,4.923,4.923c2.719,0,4.923-2.204,4.923-4.923h21.742c0,2.719,2.204,4.923,4.923,4.923
		c2.719,0,4.923-2.204,4.923-4.923v-8.563C262.556,120.833,257.741,116.018,251.856,116.018z"/>
	
		<line fill="none" stroke="#6F8CBF" stroke-width="2" stroke-linecap="round" stroke-miterlimit="10" x1="232.108" y1="122.462" x2="232.108" y2="130.592"/>
	
		<line fill="none" stroke="#6F8CBF" stroke-width="2" stroke-linecap="round" stroke-miterlimit="10" x1="228.043" y1="126.527" x2="236.173" y2="126.527"/>
	<g>
		<circle fill="none" stroke="#6F8CBF" stroke-linecap="round" stroke-miterlimit="10" cx="249.052" cy="124.025" r="1.563"/>
		<circle fill="none" stroke="#6F8CBF" stroke-linecap="round" stroke-miterlimit="10" cx="254.25" cy="124.025" r="1.563"/>
		<circle fill="none" stroke="#6F8CBF" stroke-linecap="round" stroke-miterlimit="10" cx="249.052" cy="129.029" r="1.563"/>
		<circle fill="none" stroke="#6F8CBF" stroke-linecap="round" stroke-miterlimit="10" cx="254.25" cy="129.029" r="1.563"/>
	</g>
</g>
<g>
	<path fill="none" stroke="#6F8CBF" stroke-linecap="round" stroke-linejoin="round" stroke-miterlimit="10" d="M192.769,62.46
		c-6.032,0-10.923,4.89-10.923,10.924c0,6.031,10.923,22.577,10.923,22.577s10.925-16.545,10.925-22.577
		C203.694,67.349,198.803,62.46,192.769,62.46L192.769,62.46z"/>
	<path fill="none" stroke="#6F8CBF" stroke-linecap="round" stroke-linejoin="round" stroke-miterlimit="10" d="M192.77,66.157
		c-3.985,0-7.227,3.242-7.227,7.227c0,3.985,3.242,7.227,7.227,7.227c3.985,0,7.228-3.242,7.228-7.227
		C199.998,69.399,196.755,66.157,192.77,66.157z"/>
</g>
<rect x="100.596" y="71.816" fill="none" stroke="#45557A" stroke-miterlimit="10" width="56.667" height="73.546"/>
<path fill="none" stroke="#45557A" stroke-miterlimit="10" d="M155.241,157.504h-52.626c-3.3,0-6-2.7-6-6V69.677c0-3.3,2.7-6,6-6
	h52.626c3.3,0,6,2.7,6,6v81.827C161.241,154.804,158.541,157.504,155.241,157.504z"/>
<polygon fill="none" stroke="#E2924F" stroke-width="2" stroke-linecap="round" stroke-linejoin="round" stroke-miterlimit="10" points="
	119.439,93.411 119.439,123.768 147.843,108.589 "/>
</svg>
