<?xml version="1.0" encoding="utf-8"?>
<!-- Generator: Adobe Illustrator 17.0.0, SVG Export Plug-In . SVG Version: 6.00 Build 0)  -->
<!DOCTYPE svg PUBLIC "-//W3C//DTD SVG 1.1//EN" "http://www.w3.org/Graphics/SVG/1.1/DTD/svg11.dtd">
<svg version="1.1" id="Слой_1" xmlns="http://www.w3.org/2000/svg" xmlns:xlink="http://www.w3.org/1999/xlink" x="0px" y="0px"
	 width="278px" height="194px" viewBox="0 0 278 194" enable-background="new 0 0 278 194" xml:space="preserve">
<g>
	<rect x="0" y="0" fill="#FFFFFF" width="278" height="194"/>
	<g>
		<circle fill="none" stroke="#6F8CBF" stroke-miterlimit="10" cx="183.324" cy="41.976" r="16.75"/>
		<line fill="none" stroke="#6F8CBF" stroke-miterlimit="10" x1="183.324" y1="58.726" x2="183.324" y2="25.226"/>
		<line fill="none" stroke="#6F8CBF" stroke-miterlimit="10" x1="198.899" y1="48.138" x2="183.324" y2="41.976"/>
	</g>
	<g>
		<path fill="none" stroke="#45557A" stroke-miterlimit="10" d="M162.201,72.814H87.676c-1.221,0-2.213,0.993-2.213,2.213v44.271
			h78.951V75.027C164.414,73.807,163.421,72.814,162.201,72.814z"/>
		<path fill="none" stroke="#45557A" stroke-miterlimit="10" d="M166.247,67.114H83.618c-2.034,0-3.689,1.655-3.689,3.689v60.642
			c0,2.034,1.655,3.689,3.689,3.689l32.645-0.001l-2.056,9.276h-5.727v1.476h32.905v-1.476h-5.728l-2.056-9.276l32.646-0.001
			c2.035,0,3.689-1.654,3.689-3.689v-60.64C169.936,68.769,168.282,67.114,166.247,67.114z"/>
		<line fill="none" stroke="#45557A" stroke-miterlimit="10" x1="79.929" y1="124.829" x2="169.936" y2="124.829"/>
		<line fill="none" stroke="#45557A" stroke-miterlimit="10" x1="116.173" y1="135.13" x2="133.692" y2="135.13"/>
		<line fill="none" stroke="#45557A" stroke-miterlimit="10" x1="114.207" y1="144.406" x2="135.656" y2="144.406"/>
		<line fill="none" stroke="#45557A" stroke-miterlimit="10" x1="122.035" y1="129.002" x2="128.029" y2="129.002"/>
	</g>
	<circle fill="none" stroke="#45557A" stroke-miterlimit="10" cx="94.676" cy="30.084" r="23.264"/>
	<circle fill="none" stroke="#45557A" stroke-width="2" stroke-miterlimit="10" cx="45.607" cy="78.985" r="28.774"/>
	<line fill="none" stroke="#45557A" stroke-miterlimit="10" x1="65.693" y1="58.489" x2="78.109" y2="46.072"/>
	<line fill="none" stroke="#45557A" stroke-miterlimit="10" x1="65.103" y1="100.033" x2="79.828" y2="114.757"/>
	<circle fill="none" stroke="#45557A" stroke-width="0.75" stroke-miterlimit="10" cx="46.294" cy="163.916" r="23.264"/>
	<line fill="none" stroke="#45557A" stroke-width="0.75" stroke-miterlimit="10" x1="63" y1="147.732" x2="79.828" y2="130.904"/>
	<circle fill="none" stroke="#45557A" stroke-width="0.75" stroke-miterlimit="10" cx="183.324" cy="41.976" r="23.264"/>
	<circle fill="none" stroke="#45557A" stroke-width="2" stroke-miterlimit="10" cx="232.393" cy="90.877" r="28.774"/>
	
		<line fill="none" stroke="#45557A" stroke-width="0.75" stroke-miterlimit="10" x1="212.307" y1="70.381" x2="199.891" y2="57.965"/>
	
		<line fill="none" stroke="#45557A" stroke-width="0.75" stroke-miterlimit="10" x1="204.147" y1="91.701" x2="170.493" y2="91.701"/>
	<g>
		
			<circle fill="none" stroke="#E2924F" stroke-width="2" stroke-linecap="round" stroke-linejoin="round" stroke-miterlimit="10" cx="124.799" cy="96.629" r="20.351"/>
		
			<line fill="none" stroke="#E2924F" stroke-width="2" stroke-linecap="round" stroke-linejoin="round" stroke-miterlimit="10" x1="124.799" y1="116.98" x2="124.799" y2="76.278"/>
		
			<line fill="none" stroke="#E2924F" stroke-width="2" stroke-linecap="round" stroke-linejoin="round" stroke-miterlimit="10" x1="144.134" y1="90.278" x2="124.799" y2="96.629"/>
		
			<line fill="none" stroke="#E2924F" stroke-width="2" stroke-linecap="round" stroke-linejoin="round" stroke-miterlimit="10" x1="143.722" y1="104.116" x2="124.799" y2="96.629"/>
		
			<line fill="none" stroke="#E2924F" stroke-width="2" stroke-linecap="round" stroke-linejoin="round" stroke-miterlimit="10" x1="139.33" y1="110.872" x2="124.799" y2="96.629"/>
	</g>
	<g>
		<rect x="34.691" y="69.317" fill="none" stroke="#6F8CBF" stroke-miterlimit="10" width="5.976" height="18.68"/>
		<rect x="43.375" y="76.278" fill="none" stroke="#6F8CBF" stroke-miterlimit="10" width="5.976" height="11.719"/>
		<rect x="52.058" y="71.588" fill="none" stroke="#6F8CBF" stroke-miterlimit="10" width="5.976" height="16.41"/>
		<line fill="none" stroke="#6F8CBF" stroke-miterlimit="10" x1="31.728" y1="90.929" x2="62.828" y2="90.929"/>
		<line fill="none" stroke="#6F8CBF" stroke-miterlimit="10" x1="31.728" y1="90.929" x2="31.728" y2="63.175"/>
		<polyline fill="none" stroke="#6F8CBF" stroke-miterlimit="10" points="28.239,66.386 31.728,62.896 35.218,66.386 		"/>
		<polyline fill="none" stroke="#6F8CBF" stroke-miterlimit="10" points="59.878,87.44 63.368,90.929 59.878,94.418 		"/>
	</g>
	<g>
		<rect x="222.024" y="81.521" fill="none" stroke="#6F8CBF" stroke-miterlimit="10" width="3.644" height="11.391"/>
		<rect x="227.319" y="85.766" fill="none" stroke="#6F8CBF" stroke-miterlimit="10" width="3.644" height="7.146"/>
		<rect x="232.614" y="88.825" fill="none" stroke="#6F8CBF" stroke-miterlimit="10" width="3.644" height="4.087"/>
		<rect x="237.909" y="82.906" fill="none" stroke="#6F8CBF" stroke-miterlimit="10" width="3.644" height="10.006"/>
		<rect x="216.475" y="77.839" fill="none" stroke="#6F8CBF" stroke-miterlimit="10" width="30.628" height="19.984"/>
		<line fill="none" stroke="#6F8CBF" stroke-miterlimit="10" x1="231.788" y1="97.824" x2="231.788" y2="107.344"/>
		<line fill="none" stroke="#6F8CBF" stroke-miterlimit="10" x1="231.788" y1="72.701" x2="231.788" y2="78.13"/>
		<line fill="none" stroke="#6F8CBF" stroke-miterlimit="10" x1="226.99" y1="97.823" x2="221.448" y2="107.344"/>
		<line fill="none" stroke="#6F8CBF" stroke-miterlimit="10" x1="236.588" y1="97.825" x2="242.127" y2="107.344"/>
	</g>
	<g>
		<circle fill="none" stroke="#6F8CBF" stroke-miterlimit="10" cx="41.922" cy="159.545" r="9.811"/>
		<circle fill="none" stroke="#6F8CBF" stroke-miterlimit="10" cx="41.922" cy="159.545" r="7.848"/>
		<line fill="none" stroke="#6F8CBF" stroke-miterlimit="10" x1="48.859" y1="166.482" x2="51.602" y2="169.225"/>
		
			<rect x="53.49" y="167.662" transform="matrix(0.7071 -0.7071 0.7071 0.7071 -106.1082 89.8241)" fill="none" stroke="#6F8CBF" stroke-miterlimit="10" width="3.766" height="10.667"/>
	</g>
	<g>
		<path fill="none" stroke="#6F8CBF" stroke-linecap="round" stroke-linejoin="round" stroke-miterlimit="10" d="M94.675,13.333
			c-6.032,0-10.923,4.89-10.923,10.924c0,6.031,10.923,22.577,10.923,22.577S105.6,30.288,105.6,24.257
			C105.6,18.223,100.709,13.333,94.675,13.333L94.675,13.333z"/>
		<path fill="none" stroke="#6F8CBF" stroke-linecap="round" stroke-linejoin="round" stroke-miterlimit="10" d="M94.676,17.031
			c-3.985,0-7.227,3.242-7.227,7.227c0,3.985,3.242,7.227,7.227,7.227c3.985,0,7.228-3.242,7.228-7.227
			C101.904,20.273,98.661,17.031,94.676,17.031z"/>
	</g>
</g>
</svg>
