<?xml version="1.0" encoding="utf-8"?>
<!-- Generator: Adobe Illustrator 17.0.0, SVG Export Plug-In . SVG Version: 6.00 Build 0)  -->
<!DOCTYPE svg PUBLIC "-//W3C//DTD SVG 1.1//EN" "http://www.w3.org/Graphics/SVG/1.1/DTD/svg11.dtd">
<svg version="1.1" id="Слой_1" xmlns="http://www.w3.org/2000/svg" xmlns:xlink="http://www.w3.org/1999/xlink" x="0px" y="0px"
	 width="399.3px" height="99.65px" viewBox="0 0 399.3 99.65" enable-background="new 0 0 399.3 99.65" xml:space="preserve">
<path fill="#FFFFFF" d="M25.55,64.9h-3.12v-5.25h-0.1c-1.45,3.6-5.84,6.06-9.87,6.06C4.03,65.71,0,58.89,0,51.05
	C0,43.22,4.03,36.4,12.45,36.4c4.13,0,8.16,2.1,9.61,6.07h0.11V26.59h3.39V64.9H25.55z M12.45,62.88c7.19,0,9.71-6.08,9.71-11.82
	s-2.52-11.8-9.71-11.8c-6.44,0-9.07,6.06-9.07,11.8C3.39,56.8,6.01,62.88,12.45,62.88z M32.05,26.59h3.38v5.42h-3.38V26.59z
	 M32.05,37.22h3.38V64.9h-3.38V37.22z M65.33,62.64c-0.07,8.27-3.23,13.32-12.31,13.32c-5.53,0-11-2.48-11.48-8.37h3.38
	c0.75,4.07,4.34,5.52,8.1,5.52c6.23,0,8.91-3.69,8.91-10.47v-3.75h-0.11c-1.56,3.39-4.82,5.7-8.8,5.7c-8.85,0-12.5-6.33-12.5-14.22
	c0-7.61,4.51-13.96,12.5-13.96c4.03,0,7.46,2.53,8.8,5.58h0.11v-4.76h3.39L65.33,62.64L65.33,62.64z M61.93,50.73
	c0-5.42-2.52-11.48-8.91-11.48c-6.44,0-9.12,5.75-9.12,11.48c0,5.59,2.89,11,9.12,11C58.88,61.73,61.93,56.37,61.93,50.73z
	 M71.81,26.59h3.38v5.42h-3.38V26.59z M71.81,37.22h3.38V64.9h-3.38V37.22z M87.06,37.22h5.63v2.84h-5.63v18.67
	c0,2.2,0.31,3.49,2.73,3.65c0.97,0,1.93-0.05,2.9-0.17v2.91c-1.02,0-1.99,0.1-3.01,0.1c-4.51,0-6.06-1.5-6-6.23V40.05h-4.84v-2.84
	h4.83v-8.32h3.39V37.22z M97.26,45.69c0.32-6.49,4.88-9.29,11.21-9.29c4.89,0,10.19,1.51,10.19,8.91v14.7
	c0,1.29,0.65,2.04,1.99,2.04c0.37,0,0.8-0.1,1.07-0.21v2.85c-0.74,0.15-1.28,0.2-2.2,0.2c-3.43,0-3.96-1.92-3.96-4.82h-0.12
	c-2.36,3.58-4.78,5.63-10.09,5.63c-5.11,0-9.3-2.52-9.3-8.1c0-7.78,7.58-8.05,14.88-8.92c2.79-0.32,4.35-0.69,4.35-3.75
	c0-4.56-3.29-5.69-7.26-5.69c-4.17,0-7.3,1.94-7.4,6.44h-3.36V45.69z M115.29,49.77h-0.12c-0.43,0.81-1.93,1.08-2.84,1.24
	c-5.75,1.01-12.88,0.97-12.88,6.39c0,3.37,3.01,5.48,6.17,5.48c5.15,0,9.71-3.27,9.67-8.69V49.77L115.29,49.77z M125.47,26.59h3.38
	V64.9h-3.38C125.47,64.9,125.47,26.59,125.47,26.59z"/>
<path fill="#FFFFFF" d="M145.31,52.61c0,4.35,2.37,8.22,7.47,8.22c3.53,0,5.69-1.55,6.76-4.61h5.8c-1.34,6.06-6.49,9.45-12.55,9.45
	c-8.7,0-13.58-6.06-13.58-14.61c0-7.88,5.15-14.65,13.41-14.65c8.75,0,14.11,7.9,13.09,16.21L145.31,52.61L145.31,52.61z
	 M159.59,48.59c-0.21-3.86-2.84-7.36-6.98-7.36c-4.24,0-7.14,3.23-7.3,7.36H159.59z M170.54,26.59h6.12V64.9h-6.12V26.59z
	 M188.09,52.61c0,4.35,2.36,8.22,7.46,8.22c3.54,0,5.68-1.55,6.76-4.61h5.8c-1.35,6.06-6.49,9.45-12.56,9.45
	c-8.68,0-13.57-6.06-13.57-14.61c0-7.88,5.15-14.65,13.41-14.65c8.75,0,14.12,7.9,13.1,16.21L188.09,52.61L188.09,52.61z
	 M202.36,48.59c-0.21-3.86-2.84-7.36-6.98-7.36c-4.24,0-7.13,3.23-7.29,7.36H202.36z M213.15,37.16h5.79v3.87h0.17
	c1.83-2.74,4.13-4.62,8.53-4.62c3.39,0,6.55,1.45,7.79,4.62c2.04-2.84,4.67-4.62,8.7-4.62c5.85,0,9.28,2.59,9.28,9.35v19.15h-6.11
	V48.69c0-4.39-0.28-7.47-5.05-7.47c-4.13,0-5.91,2.75-5.91,7.42v16.25h-6.1V47.08c0-3.8-1.18-5.86-4.89-5.86
	c-3.16,0-6.06,2.59-6.06,7.2V64.9h-6.12L213.15,37.16L213.15,37.16z M264.62,52.61c0,4.35,2.37,8.22,7.46,8.22
	c3.53,0,5.69-1.55,6.76-4.61h5.8c-1.35,6.06-6.49,9.45-12.56,9.45c-8.69,0-13.59-6.06-13.59-14.61c0-7.88,5.16-14.65,13.43-14.65
	c8.75,0,14.11,7.9,13.09,16.21L264.62,52.61L264.62,52.61z M278.89,48.59c-0.22-3.86-2.85-7.36-6.97-7.36
	c-4.25,0-7.15,3.23-7.3,7.36H278.89z M289.68,37.16h5.8v4.07l0.11,0.1c1.83-3.05,4.99-4.93,8.64-4.93c6.02,0,9.81,3.23,9.81,9.44
	v19.05h-6.11V47.46c-0.1-4.34-1.83-6.23-5.43-6.23c-4.07,0-6.7,3.23-6.7,7.32V64.9h-6.12V37.16L289.68,37.16z M317.69,37.16h4.63
	v-8.33h6.12v8.33h5.52v4.56h-5.52v14.82c0,2.52,0.21,3.81,2.94,3.81c0.87,0,1.72,0,2.58-0.21v4.72c-1.35,0.11-2.63,0.33-3.98,0.33
	c-6.39,0-7.56-2.48-7.66-7.09V41.73h-4.63v-4.56l0,0V37.16z"/>
<path fill="#FFFFFF" d="M388.05,19.84c-1.88-11.61-13.03-19.53-24.92-17.69c-11.88,1.85-20,12.77-18.11,24.4
	c1.51,9.46,9.21,16.48,18.44,17.74c-6.87-1.97-12.46-8.12-13.75-16.11c-1.72-10.69,4.91-20.62,14.83-22.17
	c5.23-0.81,9.97,0.96,13.73,4.32c-3.17-1.82-6.9-2.64-10.74-2.06c-9.2,1.38-15.47,10.19-13.98,19.65
	c1.49,9.47,10.16,16.03,19.36,14.65c4.19-0.63,7.75-2.8,10.27-5.87c-0.17,0.24-0.31,0.5-0.49,0.73
	C386.93,32.82,389.1,26.44,388.05,19.84z M369.91,40.47c-1.86,0.22-3.67,0-5.35-0.58c3.51,0.47,7.08-1.2,8.97-4.57
	c2.54-4.53,1.08-10.41-3.3-13.14c-3.99-2.48-8.96-1.45-11.75,2.18c0.72-0.62,1.57-1.1,2.55-1.36c3.46-0.89,6.98,1.28,7.86,4.84
	c0.88,3.58-1.2,7.2-4.66,8.09c-3.22,0.82-6.51-0.98-7.62-4.15c0.01,0.09,0.05,0.17,0.06,0.25c-0.36-0.98-0.63-2.01-0.76-3.1
	c-0.87-7.19,3.99-13.68,10.88-14.51c6.86-0.81,13.13,4.36,13.99,11.55C381.64,33.16,376.76,39.66,369.91,40.47z"/>
<path fill="#FFFFFF" d="M99.59,81.63v16.55h10.09v1.46h-11.8V81.63H99.59z M119.49,86.81c0.77,0.37,1.41,0.87,1.93,1.49
	s0.92,1.35,1.19,2.18c0.27,0.83,0.4,1.72,0.4,2.66s-0.13,1.83-0.4,2.66c-0.27,0.83-0.66,1.56-1.19,2.18s-1.16,1.11-1.93,1.48
	c-0.77,0.36-1.64,0.54-2.64,0.54c-0.99,0-1.87-0.18-2.64-0.54s-1.41-0.85-1.93-1.47s-0.92-1.35-1.18-2.18
	c-0.27-0.83-0.4-1.72-0.4-2.66s0.14-1.83,0.41-2.66c0.27-0.83,0.66-1.56,1.19-2.18c0.52-0.62,1.17-1.12,1.93-1.49
	c0.77-0.37,1.64-0.56,2.64-0.56C117.84,86.25,118.72,86.44,119.49,86.81z M114.86,88.07c-0.57,0.32-1.05,0.74-1.43,1.26
	c-0.38,0.52-0.66,1.11-0.86,1.78c-0.19,0.66-0.29,1.34-0.29,2.03s0.1,1.37,0.29,2.03c0.19,0.66,0.48,1.25,0.86,1.78
	c0.38,0.52,0.85,0.94,1.43,1.26c0.57,0.32,1.24,0.48,1.99,0.48c0.76,0,1.42-0.16,1.99-0.48s1.05-0.74,1.43-1.26
	c0.38-0.52,0.66-1.11,0.86-1.78c0.19-0.67,0.29-1.34,0.29-2.03s-0.1-1.37-0.29-2.03c-0.19-0.66-0.48-1.26-0.86-1.78
	s-0.85-0.94-1.43-1.26c-0.57-0.32-1.24-0.48-1.99-0.48C116.09,87.59,115.43,87.75,114.86,88.07z M133.58,88.42
	c-0.59-0.56-1.41-0.83-2.47-0.83c-0.76,0-1.42,0.16-1.99,0.48s-1.05,0.74-1.42,1.26c-0.38,0.52-0.67,1.11-0.86,1.78
	c-0.19,0.66-0.29,1.34-0.29,2.03s0.1,1.37,0.29,2.03c0.19,0.66,0.48,1.25,0.86,1.78c0.38,0.52,0.85,0.94,1.43,1.26
	c0.57,0.32,1.24,0.48,1.99,0.48c0.49,0,0.95-0.09,1.39-0.28s0.82-0.44,1.16-0.77c0.34-0.33,0.61-0.72,0.83-1.17s0.35-0.95,0.4-1.49
	h1.59c-0.22,1.58-0.8,2.81-1.74,3.7s-2.15,1.32-3.63,1.32c-0.99,0-1.87-0.18-2.64-0.54c-0.76-0.36-1.41-0.85-1.93-1.47
	s-0.92-1.35-1.19-2.18c-0.27-0.83-0.4-1.72-0.4-2.66s0.14-1.83,0.4-2.66c0.27-0.83,0.66-1.56,1.19-2.18s1.17-1.12,1.93-1.49
	c0.77-0.37,1.64-0.56,2.64-0.56c1.4,0,2.58,0.37,3.54,1.11c0.97,0.74,1.54,1.86,1.73,3.36h-1.59
	C134.57,89.74,134.17,88.98,133.58,88.42z M139.25,88.65c0.27-0.56,0.64-1.01,1.1-1.36s1-0.61,1.63-0.78
	c0.62-0.17,1.31-0.25,2.07-0.25c0.57,0,1.14,0.05,1.72,0.16c0.57,0.11,1.09,0.31,1.54,0.62c0.46,0.3,0.83,0.73,1.11,1.27
	s0.43,1.26,0.43,2.13v6.91c0,0.64,0.31,0.96,0.93,0.96c0.19,0,0.35-0.03,0.51-0.1v1.34c-0.19,0.04-0.35,0.06-0.49,0.08
	c-0.14,0.02-0.32,0.02-0.54,0.02c-0.4,0-0.73-0.05-0.97-0.16s-0.43-0.27-0.57-0.47c-0.13-0.2-0.22-0.44-0.26-0.72
	s-0.06-0.58-0.06-0.92h-0.05c-0.29,0.42-0.58,0.8-0.87,1.12s-0.62,0.6-0.98,0.82s-0.77,0.39-1.24,0.5
	c-0.46,0.12-1.01,0.18-1.65,0.18c-0.6,0-1.17-0.07-1.7-0.21s-0.99-0.37-1.39-0.68c-0.39-0.31-0.71-0.71-0.93-1.19
	c-0.23-0.48-0.34-1.05-0.34-1.7c0-0.91,0.2-1.62,0.61-2.13c0.4-0.51,0.94-0.9,1.6-1.17c0.67-0.27,1.41-0.46,2.25-0.57
	s1.68-0.22,2.54-0.32c0.34-0.03,0.63-0.07,0.88-0.12s0.46-0.14,0.63-0.27s0.3-0.3,0.39-0.52c0.09-0.22,0.14-0.5,0.14-0.86
	c0-0.54-0.09-0.98-0.26-1.32c-0.18-0.34-0.42-0.62-0.73-0.82s-0.67-0.34-1.08-0.41c-0.41-0.08-0.85-0.11-1.33-0.11
	c-1.01,0-1.83,0.24-2.47,0.72s-0.98,1.25-1.01,2.31h-1.59C138.82,89.86,138.98,89.2,139.25,88.65z M147.2,92.53
	c-0.1,0.19-0.29,0.32-0.58,0.4c-0.29,0.09-0.54,0.14-0.76,0.18c-0.67,0.12-1.37,0.23-2.08,0.32s-1.37,0.23-1.95,0.42
	c-0.59,0.19-1.07,0.45-1.45,0.8c-0.38,0.34-0.57,0.84-0.57,1.48c0,0.4,0.08,0.76,0.24,1.07s0.37,0.58,0.64,0.81s0.58,0.4,0.93,0.52
	c0.35,0.12,0.71,0.18,1.09,0.18c0.61,0,1.19-0.09,1.74-0.28c0.56-0.19,1.04-0.45,1.45-0.81c0.41-0.35,0.74-0.78,0.98-1.28
	c0.24-0.51,0.37-1.08,0.37-1.72v-2.07L147.2,92.53L147.2,92.53z M157.42,86.63v1.34h-2.65v8.78c0,0.52,0.07,0.93,0.21,1.22
	c0.14,0.3,0.5,0.46,1.07,0.49c0.45,0,0.91-0.02,1.36-0.07v1.34c-0.24,0-0.47,0.01-0.71,0.03s-0.47,0.02-0.71,0.02
	c-1.06,0-1.8-0.2-2.22-0.62c-0.42-0.41-0.62-1.17-0.6-2.28v-8.91h-2.27v-1.34h2.27v-3.91h1.59v3.91
	C154.76,86.63,157.42,86.63,157.42,86.63z M161.56,81.63v2.55h-1.59v-2.55H161.56z M161.56,86.63v13.02h-1.59V86.63
	C159.97,86.63,161.56,86.63,161.56,86.63z M172.98,86.81c0.77,0.37,1.41,0.87,1.93,1.49c0.52,0.62,0.92,1.35,1.19,2.18
	s0.4,1.72,0.4,2.66s-0.13,1.83-0.4,2.66c-0.27,0.83-0.66,1.56-1.19,2.18c-0.52,0.62-1.16,1.11-1.93,1.48
	c-0.77,0.36-1.64,0.54-2.64,0.54c-0.99,0-1.87-0.18-2.64-0.54s-1.41-0.85-1.93-1.47s-0.92-1.35-1.18-2.18
	c-0.27-0.83-0.4-1.72-0.4-2.66s0.13-1.83,0.4-2.66c0.27-0.83,0.66-1.56,1.19-2.18s1.17-1.12,1.93-1.49
	c0.77-0.37,1.64-0.56,2.64-0.56C171.33,86.25,172.21,86.44,172.98,86.81z M168.35,88.07c-0.57,0.32-1.05,0.74-1.43,1.26
	c-0.38,0.52-0.67,1.11-0.86,1.78c-0.19,0.66-0.29,1.34-0.29,2.03s0.1,1.37,0.29,2.03c0.19,0.66,0.48,1.25,0.86,1.78
	s0.85,0.94,1.43,1.26c0.57,0.32,1.24,0.48,1.99,0.48c0.76,0,1.42-0.16,1.99-0.48s1.05-0.74,1.43-1.26c0.38-0.52,0.67-1.11,0.86-1.78
	s0.29-1.34,0.29-2.03s-0.1-1.37-0.29-2.03c-0.19-0.66-0.48-1.26-0.86-1.78s-0.85-0.94-1.43-1.26c-0.57-0.32-1.24-0.48-1.99-0.48
	C169.58,87.59,168.92,87.75,168.35,88.07z M180.66,86.63v2.25h0.05c0.3-0.79,0.84-1.43,1.62-1.9c0.77-0.48,1.62-0.72,2.55-0.72
	c0.91,0,1.67,0.12,2.28,0.35c0.61,0.24,1.11,0.57,1.48,1s0.63,0.96,0.78,1.58s0.23,1.32,0.23,2.09v8.38h-1.59v-8.12
	c0-0.56-0.05-1.07-0.15-1.55c-0.1-0.48-0.28-0.89-0.53-1.25c-0.25-0.35-0.59-0.63-1.02-0.83c-0.43-0.2-0.96-0.3-1.6-0.3
	s-1.21,0.11-1.7,0.34c-0.5,0.23-0.92,0.54-1.26,0.94s-0.61,0.87-0.81,1.41c-0.19,0.55-0.3,1.14-0.31,1.78v7.6h-1.59V86.66h1.57
	V86.63z M201.73,81.63v2.55h-1.59v-2.55H201.73z M201.73,86.63v13.02h-1.59V86.63C200.14,86.63,201.73,86.63,201.73,86.63z
	 M212.5,89.17c-0.19-0.36-0.43-0.66-0.74-0.9c-0.31-0.23-0.67-0.41-1.07-0.52c-0.4-0.11-0.83-0.16-1.29-0.16
	c-0.35,0-0.71,0.04-1.07,0.11s-0.69,0.2-1,0.38c-0.3,0.18-0.55,0.41-0.73,0.69c-0.19,0.29-0.28,0.64-0.28,1.06
	c0,0.35,0.09,0.65,0.26,0.9c0.18,0.24,0.4,0.45,0.67,0.62c0.27,0.17,0.56,0.31,0.89,0.42c0.32,0.11,0.61,0.2,0.88,0.26l2.12,0.48
	c0.46,0.07,0.9,0.19,1.35,0.37c0.44,0.18,0.84,0.41,1.18,0.69c0.35,0.29,0.63,0.64,0.85,1.06s0.33,0.92,0.33,1.49
	c0,0.71-0.16,1.31-0.48,1.81c-0.32,0.5-0.73,0.9-1.22,1.21c-0.5,0.31-1.06,0.53-1.68,0.67s-1.24,0.2-1.84,0.2
	c-1.53,0-2.77-0.36-3.72-1.08s-1.49-1.88-1.63-3.48h1.59c0.07,1.08,0.46,1.89,1.17,2.44c0.72,0.55,1.6,0.82,2.66,0.82
	c0.39,0,0.79-0.04,1.2-0.12c0.41-0.09,0.79-0.23,1.15-0.43c0.35-0.2,0.64-0.46,0.87-0.77s0.34-0.69,0.34-1.15
	c0-0.39-0.08-0.71-0.24-0.97s-0.37-0.48-0.64-0.65c-0.27-0.18-0.58-0.32-0.92-0.44c-0.35-0.12-0.69-0.22-1.05-0.31l-2.04-0.45
	c-0.52-0.13-1-0.29-1.44-0.46c-0.44-0.18-0.82-0.4-1.15-0.66c-0.33-0.26-0.59-0.58-0.77-0.96c-0.18-0.38-0.28-0.85-0.28-1.4
	c0-0.65,0.15-1.22,0.44-1.69c0.29-0.47,0.68-0.85,1.15-1.14c0.47-0.28,1-0.49,1.58-0.63c0.58-0.13,1.16-0.2,1.73-0.2
	c0.65,0,1.26,0.08,1.83,0.25c0.56,0.17,1.06,0.43,1.49,0.78c0.43,0.35,0.77,0.79,1.02,1.31s0.4,1.13,0.43,1.84h-1.59
	C212.79,89.95,212.69,89.53,212.5,89.17z M237.35,81.63v1.46h-10.73v6.51h10.04v1.46h-10.04v7.11h10.85v1.46h-12.56v-18H237.35z
	 M241.42,81.63v18.02h-1.59V81.63H241.42z M245.87,95.35c0.16,0.61,0.41,1.17,0.77,1.65c0.35,0.49,0.8,0.9,1.34,1.21
	c0.54,0.32,1.19,0.48,1.94,0.48c1.16,0,2.07-0.3,2.72-0.91c0.66-0.6,1.11-1.41,1.36-2.42h1.59c-0.34,1.48-0.95,2.63-1.85,3.43
	c-0.9,0.81-2.17,1.21-3.82,1.21c-1.03,0-1.91-0.18-2.66-0.54s-1.36-0.86-1.83-1.49s-0.82-1.36-1.05-2.19s-0.34-1.71-0.34-2.64
	c0-0.86,0.11-1.7,0.34-2.52s0.57-1.56,1.05-2.21c0.47-0.65,1.08-1.17,1.83-1.57c0.75-0.39,1.64-0.59,2.66-0.59
	c1.04,0,1.94,0.21,2.67,0.63c0.74,0.42,1.34,0.97,1.81,1.65c0.46,0.68,0.79,1.46,1,2.35c0.2,0.88,0.29,1.78,0.25,2.69h-10.02
	C245.63,94.14,245.71,94.73,245.87,95.35z M253.74,90.49c-0.19-0.56-0.47-1.05-0.82-1.47c-0.35-0.43-0.78-0.77-1.29-1.03
	s-1.07-0.39-1.71-0.39c-0.65,0-1.24,0.13-1.74,0.39c-0.51,0.26-0.93,0.61-1.29,1.03c-0.35,0.43-0.64,0.92-0.84,1.49
	c-0.21,0.56-0.35,1.14-0.42,1.73h8.43C254.04,91.62,253.93,91.05,253.74,90.49z M259.48,86.63v2.19h0.07
	c0.42-0.81,0.97-1.44,1.65-1.89s1.55-0.68,2.61-0.68c0.86,0,1.64,0.21,2.33,0.63c0.7,0.42,1.16,1.06,1.4,1.92
	c0.39-0.86,0.96-1.5,1.72-1.92s1.56-0.63,2.42-0.63c2.88,0,4.31,1.52,4.31,4.56v8.83h-1.59v-8.75c0-1.08-0.22-1.9-0.68-2.46
	c-0.45-0.56-1.25-0.84-2.4-0.84c-0.69,0-1.26,0.13-1.72,0.39c-0.45,0.26-0.81,0.61-1.08,1.05c-0.27,0.44-0.46,0.94-0.57,1.5
	c-0.11,0.56-0.17,1.15-0.17,1.75v7.37h-1.59v-8.83c0-0.44-0.05-0.85-0.14-1.25c-0.09-0.4-0.24-0.74-0.45-1.03
	c-0.21-0.29-0.49-0.52-0.85-0.69c-0.35-0.17-0.78-0.25-1.29-0.25c-0.67,0-1.26,0.12-1.75,0.37c-0.5,0.24-0.9,0.58-1.21,1.01
	s-0.54,0.93-0.69,1.52c-0.15,0.58-0.23,1.22-0.23,1.91v7.27h-1.59V86.66L259.48,86.63L259.48,86.63z M280.44,95.35
	c0.16,0.61,0.42,1.17,0.77,1.65c0.35,0.49,0.8,0.9,1.34,1.21c0.54,0.32,1.19,0.48,1.94,0.48c1.16,0,2.07-0.3,2.73-0.91
	c0.66-0.6,1.11-1.41,1.36-2.42h1.59c-0.33,1.48-0.95,2.63-1.85,3.43c-0.9,0.81-2.17,1.21-3.82,1.21c-1.02,0-1.91-0.18-2.66-0.54
	s-1.36-0.86-1.83-1.49c-0.47-0.63-0.82-1.36-1.05-2.19c-0.23-0.83-0.34-1.71-0.34-2.64c0-0.86,0.12-1.7,0.34-2.52
	c0.23-0.82,0.57-1.56,1.05-2.21c0.47-0.65,1.08-1.17,1.83-1.57c0.75-0.39,1.64-0.59,2.66-0.59c1.04,0,1.94,0.21,2.68,0.63
	s1.34,0.97,1.81,1.65c0.46,0.68,0.8,1.46,1,2.35s0.28,1.78,0.25,2.69h-10.02C280.2,94.14,280.27,94.73,280.44,95.35z M288.31,90.49
	c-0.19-0.56-0.47-1.05-0.82-1.47c-0.35-0.43-0.78-0.77-1.28-1.03c-0.51-0.26-1.08-0.39-1.72-0.39c-0.65,0-1.23,0.13-1.74,0.39
	c-0.5,0.26-0.93,0.61-1.29,1.03c-0.35,0.43-0.63,0.92-0.85,1.49c-0.21,0.56-0.35,1.14-0.41,1.73h8.43
	C288.61,91.62,288.5,91.05,288.31,90.49z M294.15,86.63v2.25h0.05c0.3-0.79,0.84-1.43,1.62-1.9c0.77-0.48,1.62-0.72,2.55-0.72
	c0.91,0,1.67,0.12,2.28,0.35c0.61,0.24,1.11,0.57,1.48,1c0.37,0.43,0.63,0.96,0.78,1.58c0.15,0.62,0.23,1.32,0.23,2.09v8.38h-1.59
	v-8.12c0-0.56-0.05-1.07-0.15-1.55c-0.1-0.48-0.28-0.89-0.53-1.25c-0.25-0.35-0.59-0.63-1.02-0.83c-0.43-0.2-0.96-0.3-1.6-0.3
	s-1.21,0.11-1.7,0.34c-0.5,0.23-0.92,0.54-1.26,0.94c-0.35,0.4-0.61,0.87-0.81,1.41c-0.19,0.55-0.3,1.14-0.31,1.78v7.6h-1.59V86.66
	h1.57V86.63z M311.53,86.63v1.34h-2.65v8.78c0,0.52,0.07,0.93,0.22,1.22c0.14,0.3,0.5,0.46,1.07,0.49c0.45,0,0.91-0.02,1.36-0.07
	v1.34c-0.24,0-0.47,0.01-0.7,0.03c-0.24,0.02-0.47,0.02-0.71,0.02c-1.06,0-1.8-0.2-2.22-0.62c-0.42-0.41-0.62-1.17-0.6-2.28v-8.91
	h-2.27v-1.34h2.27v-3.91h1.59v3.91C308.89,86.63,311.53,86.63,311.53,86.63z M314.38,88.65c0.27-0.56,0.64-1.01,1.1-1.36
	c0.47-0.35,1.01-0.61,1.63-0.78s1.31-0.25,2.07-0.25c0.57,0,1.14,0.05,1.72,0.16c0.57,0.11,1.08,0.31,1.54,0.62
	c0.45,0.3,0.82,0.73,1.11,1.27c0.28,0.55,0.43,1.26,0.43,2.13v6.91c0,0.64,0.31,0.96,0.94,0.96c0.18,0,0.35-0.03,0.5-0.1v1.34
	c-0.19,0.04-0.35,0.06-0.49,0.08c-0.14,0.02-0.32,0.02-0.54,0.02c-0.4,0-0.73-0.05-0.97-0.16s-0.43-0.27-0.57-0.47
	c-0.14-0.2-0.22-0.44-0.27-0.72c-0.04-0.28-0.06-0.58-0.06-0.92h-0.05c-0.28,0.42-0.58,0.8-0.87,1.12c-0.29,0.33-0.62,0.6-0.98,0.82
	s-0.77,0.39-1.24,0.5c-0.46,0.12-1.02,0.18-1.65,0.18c-0.6,0-1.17-0.07-1.7-0.21c-0.53-0.14-0.99-0.37-1.39-0.68
	c-0.39-0.31-0.7-0.71-0.93-1.19s-0.34-1.05-0.34-1.7c0-0.91,0.2-1.62,0.61-2.13c0.4-0.51,0.94-0.9,1.6-1.17
	c0.66-0.27,1.41-0.46,2.25-0.57c0.83-0.11,1.68-0.22,2.54-0.32c0.34-0.03,0.63-0.07,0.88-0.12s0.46-0.14,0.63-0.27
	c0.17-0.13,0.3-0.3,0.39-0.52c0.09-0.22,0.14-0.5,0.14-0.86c0-0.54-0.09-0.98-0.26-1.32c-0.18-0.34-0.42-0.62-0.73-0.82
	s-0.68-0.34-1.09-0.41c-0.41-0.08-0.85-0.11-1.33-0.11c-1.01,0-1.83,0.24-2.47,0.72s-0.98,1.25-1.01,2.31h-1.59
	C313.96,89.86,314.11,89.2,314.38,88.65z M322.33,92.53c-0.1,0.19-0.29,0.32-0.58,0.4c-0.29,0.09-0.54,0.14-0.76,0.18
	c-0.67,0.12-1.37,0.23-2.08,0.32c-0.71,0.09-1.36,0.23-1.95,0.42c-0.59,0.19-1.07,0.45-1.45,0.8c-0.38,0.34-0.57,0.84-0.57,1.48
	c0,0.4,0.08,0.76,0.24,1.07c0.16,0.31,0.38,0.58,0.65,0.81c0.27,0.23,0.58,0.4,0.93,0.52c0.36,0.12,0.72,0.18,1.09,0.18
	c0.61,0,1.19-0.09,1.74-0.28c0.56-0.19,1.04-0.45,1.45-0.81c0.41-0.35,0.74-0.78,0.98-1.28c0.24-0.51,0.37-1.08,0.37-1.72v-2.07
	L322.33,92.53L322.33,92.53z M328.99,81.63v18.02h-1.59V81.63H328.99z"/>
<path fill="#FFFFFF" d="M393.85,0c3.05,0,5.45,2.37,5.45,5.38c0,3.08-2.4,5.45-5.48,5.45c-3.08,0-5.52-2.37-5.52-5.45
	c0-3.01,2.44-5.38,5.52-5.38H393.85z M393.78,0.95c-2.44,0-4.3,2-4.3,4.44c0,2.51,1.86,4.47,4.37,4.47
	c2.44,0.03,4.23-1.96,4.23-4.43s-1.79-4.47-4.26-4.47L393.78,0.95L393.78,0.95z M392.83,8.36h-1.05V2.71
	c0.58-0.1,1.19-0.17,1.96-0.17c0.95,0,1.42,0.17,1.8,0.44c0.34,0.24,0.58,0.68,0.58,1.19c0,0.71-0.51,1.15-1.12,1.35v0.07
	c0.51,0.2,0.78,0.64,0.95,1.35c0.17,0.88,0.27,1.22,0.41,1.42h-1.08c-0.17-0.2-0.3-0.71-0.44-1.49c-0.14-0.61-0.51-0.88-1.32-0.88
	h-0.68v2.37H392.83z M392.83,5.18h0.71c0.78,0,1.46-0.23,1.46-0.91c0-0.54-0.34-0.91-1.35-0.91c-0.4,0-0.64,0.03-0.81,0.07v1.75
	H392.83z"/>
<path fill="#FFFFFF" d="M341.06,82.44h-2.78v-0.93h6.65v0.93h-2.77v7.61h-1.1V82.44z M346.45,81.51h1.76l2.76,6.92l2.67-6.92h1.76
	v8.54h-1.1V82.5h-0.04l-3.02,7.55h-0.62l-3.02-7.55h-0.04v7.55h-1.1v-8.54H346.45z"/>
</svg>
