<?xml version="1.0" encoding="utf-8"?>
<!-- Generator: Adobe Illustrator 17.0.0, SVG Export Plug-In . SVG Version: 6.00 Build 0)  -->
<!DOCTYPE svg PUBLIC "-//W3C//DTD SVG 1.1//EN" "http://www.w3.org/Graphics/SVG/1.1/DTD/svg11.dtd">
<svg version="1.1" id="Слой_1" xmlns="http://www.w3.org/2000/svg" xmlns:xlink="http://www.w3.org/1999/xlink" x="0px" y="0px"
	 width="182px" height="46px" viewBox="0 0 182 46" enable-background="new 0 0 182 46" xml:space="preserve">
<title>↳ 🎨Color</title>
<desc>Created with Sketch.</desc>
<g id="Logo_x2F_Mono">
	<g id="_x21B3_-_xD83C__xDFA8_Color">
		<g id="Mask">
			<path id="path-1_1_" fill="#FFFFFF" d="M5.665,28.657c3.271,0,4.418-2.769,4.418-5.388c0-2.617-1.147-5.38-4.418-5.38
				c-2.931,0-4.125,2.762-4.125,5.38C1.541,25.888,2.734,28.657,5.665,28.657z M11.624,29.58h-1.418v-2.394h-0.049
				c-0.659,1.64-2.658,2.761-4.492,2.761C1.832,29.947,0,26.84,0,23.27c0-3.569,1.832-6.677,5.665-6.677
				c1.881,0,3.713,0.955,4.37,2.765h0.048V12.12h1.541V29.58z M14.578,29.579V16.963h1.536v12.616H14.578z M14.578,14.588V12.12
				h1.536v2.468H14.578z M29.715,28.552c-0.028,3.769-1.467,6.069-5.595,6.069c-2.514,0-5.003-1.129-5.223-3.814h1.538
				c0.34,1.856,1.976,2.516,3.685,2.516c2.833,0,4.052-1.681,4.052-4.771V26.84h-0.051c-0.708,1.543-2.193,2.595-4.002,2.595
				c-4.025,0-5.686-2.885-5.686-6.481c0-3.471,2.05-6.362,5.686-6.362c1.834,0,3.393,1.152,4.002,2.543h0.051v-2.172h1.543V28.552z
				 M28.172,23.122c0-2.469-1.144-5.233-4.052-5.233c-2.929,0-4.147,2.62-4.147,5.233c0,2.547,1.316,5.012,4.147,5.012
				C26.784,28.135,28.172,25.692,28.172,23.122z M32.667,29.579V16.963h1.536v12.616H32.667z M32.667,14.588V12.12h1.536v2.468
				H32.667z M39.602,16.963h2.561v1.295h-2.561v8.511c0,1.001,0.141,1.59,1.24,1.665c0.439,0,0.879-0.025,1.322-0.075v1.324
				c-0.466,0-0.905,0.046-1.37,0.046c-2.052,0-2.76-0.683-2.732-2.839v-8.632h-2.198v-1.295h2.198V13.17h1.54V16.963z M44.24,20.825
				c0.145-2.959,2.22-4.234,5.098-4.234c2.223,0,4.636,0.688,4.636,4.061v6.701c0,0.588,0.296,0.928,0.907,0.928
				c0.169,0,0.363-0.044,0.485-0.094v1.299c-0.337,0.071-0.58,0.092-0.999,0.092c-1.562,0-1.803-0.877-1.803-2.197h-0.053
				c-1.073,1.632-2.172,2.565-4.587,2.565c-2.324,0-4.228-1.15-4.228-3.69c0-3.548,3.447-3.672,6.765-4.064
				c1.271-0.145,1.981-0.315,1.981-1.709c0-2.078-1.495-2.593-3.301-2.593c-1.9,0-3.32,0.881-3.369,2.935H44.24z M52.443,22.682
				H52.39c-0.194,0.367-0.879,0.495-1.293,0.564c-2.614,0.463-5.86,0.441-5.86,2.912c0,1.538,1.367,2.499,2.809,2.499
				c2.344,0,4.416-1.493,4.398-3.962V22.682z M57.077,29.579V12.12h1.538v17.459H57.077z M66.102,23.979
				c0,1.984,1.078,3.743,3.398,3.743c1.608,0,2.586-0.708,3.074-2.104h2.637c-0.607,2.764-2.951,4.308-5.711,4.308
				c-3.957,0-6.177-2.762-6.177-6.658c0-3.592,2.344-6.677,6.1-6.677c3.981,0,6.419,3.601,5.957,7.387H66.102z M72.598,22.146
				c-0.094-1.76-1.293-3.355-3.174-3.355c-1.929,0-3.248,1.47-3.322,3.355H72.598z M77.578,29.579V12.12h2.783v17.459H77.578z
				 M85.564,23.979c0,1.984,1.073,3.743,3.391,3.743c1.613,0,2.587-0.708,3.077-2.104h2.637c-0.615,2.764-2.951,4.308-5.713,4.308
				c-3.952,0-6.174-2.762-6.174-6.658c0-3.592,2.343-6.677,6.099-6.677c3.979,0,6.422,3.601,5.959,7.387H85.564z M92.054,22.146
				c-0.095-1.76-1.294-3.355-3.174-3.355c-1.929,0-3.245,1.47-3.316,3.355H92.054z M96.96,16.936h2.632v1.763h0.079
				c0.83-1.249,1.876-2.107,3.879-2.107c1.54,0,2.982,0.66,3.544,2.107c0.927-1.295,2.126-2.107,3.956-2.107
				c2.66,0,4.221,1.18,4.221,4.26v8.728h-2.781v-7.387c0-2-0.127-3.402-2.296-3.402c-1.881,0-2.691,1.253-2.691,3.382v7.408h-2.776
				v-8.119c0-1.734-0.539-2.67-2.225-2.67c-1.439,0-2.758,1.179-2.758,3.28v7.51H96.96V16.936z M120.373,23.979
				c0,1.984,1.078,3.743,3.393,3.743c1.605,0,2.588-0.708,3.074-2.104h2.639c-0.615,2.764-2.954,4.308-5.713,4.308
				c-3.953,0-6.178-2.762-6.178-6.658c0-3.592,2.347-6.677,6.106-6.677c3.981,0,6.419,3.601,5.955,7.387H120.373z M126.866,22.146
				c-0.1-1.76-1.295-3.355-3.172-3.355c-1.934,0-3.252,1.47-3.321,3.355H126.866z M131.774,16.936h2.635v1.854l0.051,0.048
				c0.833-1.388,2.272-2.246,3.93-2.246c2.739,0,4.465,1.472,4.465,4.305v8.683h-2.781v-7.95c-0.048-1.978-0.83-2.84-2.468-2.84
				c-1.853,0-3.048,1.47-3.048,3.336v7.454h-2.783V16.936z M144.516,16.936h2.105V13.14h2.782v3.796h2.512v2.078h-2.512v6.754
				c0,1.147,0.093,1.735,1.337,1.735c0.396,0,0.782,0,1.175-0.098v2.152c-0.612,0.05-1.198,0.149-1.809,0.149
				c-2.905,0-3.438-1.131-3.486-3.231v-7.46h-2.105V16.936z M176.522,9.043c0.478,3.01-0.508,5.914-2.441,8.018
				c0.08-0.108,0.148-0.223,0.223-0.333c-1.144,1.399-2.767,2.391-4.671,2.677c-4.187,0.63-8.131-2.36-8.809-6.677
				c-0.676-4.313,2.175-8.329,6.362-8.957c1.745-0.262,3.444,0.111,4.884,0.939c-1.708-1.533-3.864-2.339-6.243-1.969
				c-4.515,0.704-7.532,5.23-6.748,10.103c0.589,3.64,3.13,6.444,6.256,7.341c-4.197-0.574-7.7-3.772-8.388-8.084
				c-0.856-5.302,2.833-10.277,8.24-11.12C170.595,0.143,175.665,3.752,176.522,9.043z M168.268,18.446
				c3.121-0.37,5.337-3.333,4.944-6.607c-0.396-3.278-3.243-5.629-6.366-5.262c-3.13,0.375-5.341,3.336-4.948,6.613
				c0.06,0.495,0.182,0.966,0.346,1.413c-0.007-0.039-0.023-0.075-0.03-0.113c0.507,1.446,2,2.266,3.466,1.892
				c1.572-0.406,2.519-2.055,2.118-3.687c-0.402-1.624-2-2.615-3.574-2.207c-0.447,0.116-0.834,0.336-1.162,0.619
				c1.268-1.654,3.532-2.127,5.346-0.996c1.994,1.242,2.66,3.922,1.504,5.988c-0.859,1.534-2.484,2.295-4.079,2.082
				C166.597,18.445,167.421,18.549,168.268,18.446z M45.303,37.207v7.544h4.591v0.667h-5.371v-8.211H45.303z M54.353,39.565
				c0.348,0.168,0.641,0.395,0.878,0.679s0.416,0.615,0.539,0.995c0.122,0.379,0.184,0.784,0.184,1.213
				c0,0.429-0.061,0.834-0.184,1.213c-0.123,0.38-0.303,0.711-0.539,0.995s-0.53,0.508-0.878,0.673
				c-0.348,0.164-0.748,0.247-1.199,0.247c-0.452,0-0.852-0.083-1.199-0.247c-0.348-0.165-0.641-0.389-0.878-0.673
				c-0.238-0.283-0.417-0.615-0.539-0.995c-0.122-0.38-0.184-0.784-0.184-1.213c0-0.43,0.061-0.834,0.184-1.213
				c0.122-0.38,0.302-0.711,0.539-0.995c0.237-0.283,0.53-0.51,0.878-0.679c0.348-0.168,0.748-0.253,1.199-0.253
				C53.605,39.312,54.005,39.397,54.353,39.565z M52.247,40.14c-0.26,0.145-0.476,0.338-0.648,0.575
				c-0.172,0.237-0.303,0.508-0.39,0.811c-0.089,0.303-0.132,0.611-0.132,0.926c0,0.315,0.043,0.623,0.132,0.926
				c0.088,0.303,0.218,0.573,0.39,0.811c0.172,0.237,0.389,0.43,0.648,0.575s0.562,0.218,0.907,0.218
				c0.344,0,0.647-0.073,0.907-0.218c0.26-0.145,0.476-0.338,0.648-0.575s0.303-0.508,0.39-0.811
				c0.088-0.303,0.132-0.611,0.132-0.926c0-0.315-0.044-0.623-0.132-0.926c-0.088-0.303-0.218-0.573-0.39-0.811
				s-0.389-0.43-0.648-0.575c-0.26-0.145-0.562-0.218-0.907-0.218C52.809,39.922,52.507,39.995,52.247,40.14z M60.763,40.301
				c-0.268-0.253-0.643-0.38-1.125-0.38c-0.344,0-0.647,0.073-0.907,0.219c-0.26,0.145-0.476,0.338-0.648,0.575
				s-0.303,0.508-0.39,0.811c-0.089,0.303-0.132,0.611-0.132,0.926c0,0.315,0.043,0.623,0.132,0.926
				c0.088,0.303,0.218,0.573,0.39,0.811s0.389,0.43,0.648,0.575c0.26,0.145,0.562,0.218,0.907,0.218
				c0.221,0,0.432-0.042,0.631-0.126c0.199-0.085,0.375-0.201,0.528-0.351c0.153-0.15,0.279-0.328,0.379-0.535
				c0.099-0.207,0.161-0.433,0.184-0.678h0.723c-0.1,0.721-0.363,1.282-0.792,1.685c-0.429,0.403-0.98,0.604-1.653,0.604
				c-0.452,0-0.852-0.082-1.199-0.247c-0.348-0.165-0.641-0.389-0.878-0.673c-0.238-0.283-0.417-0.615-0.539-0.995
				c-0.122-0.38-0.184-0.784-0.184-1.213s0.061-0.834,0.184-1.213c0.122-0.38,0.302-0.711,0.539-0.995
				c0.237-0.283,0.53-0.509,0.878-0.679c0.348-0.168,0.748-0.253,1.199-0.253c0.635,0,1.172,0.168,1.613,0.506
				c0.439,0.338,0.702,0.847,0.786,1.529h-0.723C61.214,40.903,61.032,40.554,60.763,40.301z M63.346,40.404
				c0.122-0.253,0.289-0.46,0.499-0.621c0.211-0.161,0.457-0.279,0.74-0.356c0.283-0.076,0.597-0.115,0.941-0.115
				c0.26,0,0.52,0.025,0.78,0.075c0.26,0.05,0.494,0.144,0.7,0.282s0.375,0.332,0.505,0.581c0.13,0.249,0.195,0.573,0.195,0.972
				v3.151c0,0.292,0.142,0.437,0.425,0.437c0.084,0,0.161-0.015,0.23-0.046v0.609c-0.084,0.016-0.159,0.027-0.224,0.035
				c-0.066,0.008-0.148,0.012-0.247,0.012c-0.184,0-0.331-0.025-0.442-0.075c-0.111-0.049-0.198-0.121-0.258-0.213
				c-0.061-0.092-0.102-0.201-0.121-0.328c-0.02-0.126-0.029-0.266-0.029-0.42h-0.023c-0.13,0.192-0.262,0.362-0.396,0.512
				c-0.134,0.15-0.283,0.274-0.448,0.374c-0.165,0.1-0.353,0.177-0.562,0.23c-0.211,0.053-0.462,0.08-0.752,0.08
				c-0.275,0-0.534-0.033-0.775-0.098c-0.241-0.065-0.452-0.168-0.631-0.311c-0.18-0.141-0.321-0.322-0.425-0.541
				c-0.103-0.218-0.155-0.477-0.155-0.776c0-0.414,0.092-0.738,0.275-0.972c0.184-0.233,0.426-0.412,0.729-0.535
				c0.302-0.122,0.643-0.209,1.021-0.259s0.763-0.098,1.153-0.144c0.153-0.015,0.287-0.035,0.402-0.057
				c0.115-0.023,0.211-0.063,0.287-0.121c0.076-0.058,0.135-0.136,0.178-0.236c0.042-0.099,0.063-0.23,0.063-0.391
				c0-0.246-0.04-0.446-0.121-0.604c-0.08-0.157-0.192-0.282-0.333-0.374c-0.142-0.092-0.306-0.155-0.494-0.19
				c-0.188-0.035-0.389-0.052-0.603-0.052c-0.459,0-0.834,0.109-1.125,0.328c-0.291,0.219-0.444,0.569-0.459,1.052h-0.723
				C63.151,40.956,63.223,40.657,63.346,40.404z M66.961,42.175c-0.046,0.085-0.134,0.146-0.264,0.184
				c-0.13,0.039-0.245,0.066-0.344,0.081c-0.307,0.054-0.621,0.102-0.947,0.144c-0.325,0.043-0.622,0.105-0.89,0.19
				c-0.268,0.085-0.488,0.205-0.66,0.362c-0.172,0.158-0.258,0.382-0.258,0.673c0,0.184,0.036,0.347,0.109,0.489
				c0.073,0.142,0.17,0.264,0.293,0.368c0.122,0.104,0.264,0.182,0.425,0.236c0.161,0.054,0.325,0.081,0.494,0.081
				c0.275,0,0.539-0.042,0.792-0.126c0.253-0.084,0.472-0.207,0.66-0.368c0.187-0.161,0.336-0.357,0.448-0.587
				c0.111-0.23,0.166-0.49,0.166-0.782v-0.943H66.961z M71.61,39.484v0.61h-1.205v4.002c0,0.237,0.033,0.424,0.098,0.558
				c0.065,0.135,0.228,0.209,0.488,0.224c0.207,0,0.413-0.012,0.62-0.035v0.609c-0.107,0-0.214,0.004-0.321,0.012
				c-0.107,0.008-0.214,0.012-0.321,0.012c-0.482,0-0.819-0.094-1.01-0.282c-0.192-0.187-0.283-0.535-0.275-1.041v-4.059h-1.033
				v-0.61h1.033v-1.783h0.723v1.783H71.61z M72.769,45.418v-5.934h0.723v5.934H72.769z M72.769,38.369v-1.161h0.723v1.161H72.769z
				 M78.686,39.565c0.348,0.168,0.641,0.395,0.878,0.679c0.237,0.283,0.416,0.615,0.539,0.995c0.122,0.379,0.184,0.784,0.184,1.213
				c0,0.429-0.061,0.834-0.184,1.213c-0.123,0.38-0.303,0.711-0.539,0.995c-0.237,0.283-0.53,0.508-0.878,0.673
				c-0.348,0.164-0.748,0.247-1.199,0.247c-0.452,0-0.852-0.083-1.199-0.247c-0.348-0.165-0.641-0.389-0.878-0.673
				c-0.238-0.283-0.417-0.615-0.539-0.995s-0.184-0.784-0.184-1.213c0-0.43,0.061-0.834,0.184-1.213
				c0.122-0.38,0.302-0.711,0.539-0.995c0.237-0.283,0.53-0.51,0.878-0.679c0.348-0.168,0.748-0.253,1.199-0.253
				C77.937,39.312,78.337,39.397,78.686,39.565z M76.579,40.14c-0.26,0.145-0.476,0.338-0.648,0.575
				c-0.172,0.237-0.303,0.508-0.39,0.811c-0.089,0.303-0.132,0.611-0.132,0.926c0,0.315,0.043,0.623,0.132,0.926
				c0.088,0.303,0.218,0.573,0.39,0.811c0.172,0.237,0.389,0.43,0.648,0.575c0.26,0.145,0.562,0.218,0.907,0.218
				c0.344,0,0.647-0.073,0.907-0.218c0.26-0.145,0.476-0.338,0.648-0.575c0.172-0.237,0.303-0.508,0.39-0.811
				c0.088-0.303,0.132-0.611,0.132-0.926c0-0.315-0.044-0.623-0.132-0.926c-0.088-0.303-0.218-0.573-0.39-0.811
				c-0.172-0.237-0.389-0.43-0.648-0.575c-0.26-0.145-0.562-0.218-0.907-0.218C77.142,39.922,76.839,39.995,76.579,40.14z
				 M82.181,39.484v1.023h0.023c0.138-0.36,0.383-0.65,0.735-0.868c0.352-0.219,0.739-0.328,1.159-0.328
				c0.413,0,0.759,0.053,1.039,0.161c0.28,0.108,0.503,0.259,0.671,0.454c0.168,0.195,0.287,0.435,0.356,0.719
				c0.069,0.284,0.103,0.602,0.103,0.955v3.818h-0.723v-3.703c0-0.253-0.023-0.489-0.069-0.707
				c-0.046-0.219-0.126-0.408-0.241-0.569c-0.115-0.161-0.27-0.287-0.465-0.379c-0.195-0.092-0.438-0.138-0.729-0.138
				s-0.549,0.052-0.775,0.155c-0.226,0.104-0.417,0.246-0.574,0.425s-0.28,0.395-0.367,0.644c-0.089,0.25-0.136,0.52-0.143,0.811
				v3.461h-0.723v-5.934H82.181z M91.041,45.418v-5.934h0.723v5.934H91.041z M91.041,38.369v-1.161h0.723v1.161H91.041z
				 M96.665,40.64c-0.084-0.165-0.197-0.301-0.339-0.408c-0.142-0.108-0.304-0.186-0.488-0.236c-0.184-0.05-0.379-0.075-0.585-0.075
				c-0.161,0-0.323,0.017-0.488,0.052c-0.165,0.035-0.316,0.092-0.453,0.173c-0.138,0.08-0.248,0.186-0.333,0.316
				c-0.084,0.131-0.126,0.292-0.126,0.483c0,0.161,0.04,0.297,0.121,0.408c0.08,0.111,0.181,0.205,0.304,0.282
				c0.122,0.076,0.256,0.14,0.402,0.19c0.145,0.05,0.279,0.09,0.402,0.121l0.964,0.219c0.207,0.03,0.412,0.086,0.614,0.167
				c0.202,0.081,0.382,0.186,0.539,0.316c0.157,0.131,0.285,0.292,0.384,0.483s0.149,0.418,0.149,0.679
				c0,0.322-0.073,0.596-0.218,0.822c-0.146,0.226-0.331,0.41-0.557,0.552c-0.225,0.142-0.48,0.243-0.763,0.305
				c-0.283,0.062-0.562,0.092-0.838,0.092c-0.696,0-1.261-0.165-1.693-0.494c-0.432-0.329-0.679-0.858-0.74-1.587h0.723
				c0.03,0.49,0.208,0.861,0.534,1.11c0.325,0.249,0.729,0.374,1.211,0.374c0.176,0,0.357-0.019,0.545-0.058
				c0.187-0.039,0.362-0.104,0.522-0.195s0.293-0.209,0.396-0.351c0.103-0.142,0.155-0.316,0.155-0.523
				c0-0.177-0.037-0.324-0.109-0.443c-0.073-0.119-0.171-0.218-0.293-0.299s-0.262-0.148-0.419-0.201
				c-0.157-0.053-0.316-0.099-0.476-0.138l-0.93-0.207c-0.237-0.061-0.456-0.132-0.654-0.213c-0.199-0.081-0.373-0.18-0.522-0.299
				c-0.149-0.119-0.266-0.264-0.35-0.437c-0.084-0.173-0.126-0.385-0.126-0.638c0-0.299,0.067-0.556,0.201-0.771
				c0.134-0.214,0.308-0.387,0.522-0.517c0.214-0.13,0.453-0.226,0.717-0.288c0.264-0.062,0.526-0.092,0.786-0.092
				c0.298,0,0.576,0.039,0.832,0.115c0.256,0.076,0.482,0.195,0.677,0.356c0.195,0.161,0.35,0.361,0.465,0.598
				c0.115,0.237,0.18,0.518,0.195,0.84h-0.723C96.795,40.999,96.749,40.805,96.665,40.64z M107.971,37.207v0.667h-4.878v2.967h4.568
				v0.667h-4.568v3.243h4.935v0.667h-5.716v-8.211H107.971z M109.095,45.418v-8.211h0.723v8.211H109.095z M111.844,43.458
				c0.073,0.28,0.189,0.531,0.35,0.753s0.363,0.407,0.608,0.552c0.245,0.145,0.539,0.218,0.884,0.218
				c0.528,0,0.941-0.138,1.24-0.414c0.298-0.276,0.505-0.644,0.62-1.104h0.723c-0.153,0.674-0.434,1.196-0.844,1.564
				c-0.41,0.368-0.989,0.552-1.739,0.552c-0.466,0-0.871-0.082-1.211-0.247s-0.618-0.391-0.832-0.679
				c-0.215-0.287-0.373-0.621-0.476-1c-0.103-0.379-0.155-0.78-0.155-1.202c0-0.391,0.052-0.775,0.155-1.15
				c0.103-0.375,0.262-0.711,0.476-1.006c0.214-0.295,0.492-0.533,0.832-0.713s0.744-0.27,1.211-0.27
				c0.475,0,0.88,0.096,1.217,0.287c0.337,0.191,0.61,0.443,0.821,0.753c0.211,0.311,0.362,0.667,0.453,1.069
				s0.13,0.811,0.115,1.225h-4.557C111.735,42.907,111.771,43.177,111.844,43.458z M115.425,41.244
				c-0.088-0.253-0.212-0.477-0.373-0.673c-0.161-0.195-0.356-0.352-0.585-0.471c-0.23-0.119-0.489-0.178-0.78-0.178
				c-0.298,0-0.562,0.059-0.792,0.178c-0.23,0.119-0.425,0.276-0.585,0.471c-0.161,0.196-0.289,0.421-0.384,0.679
				s-0.159,0.52-0.189,0.788h3.833C115.561,41.761,115.513,41.497,115.425,41.244z M118.036,39.484v1h0.034
				c0.191-0.368,0.442-0.655,0.752-0.862s0.706-0.311,1.188-0.311c0.39,0,0.744,0.096,1.062,0.288
				c0.317,0.192,0.53,0.483,0.637,0.874c0.176-0.391,0.436-0.682,0.78-0.874c0.344-0.191,0.712-0.288,1.102-0.288
				c1.308,0,1.963,0.694,1.963,2.082v4.025h-0.723v-3.99c0-0.49-0.103-0.864-0.31-1.121c-0.207-0.257-0.57-0.385-1.09-0.385
				c-0.314,0-0.574,0.059-0.78,0.178s-0.371,0.278-0.494,0.477s-0.208,0.428-0.258,0.684c-0.05,0.257-0.075,0.523-0.075,0.799v3.358
				H121.1v-4.025c0-0.199-0.021-0.389-0.063-0.569c-0.042-0.18-0.111-0.337-0.207-0.471c-0.096-0.134-0.224-0.239-0.384-0.316
				c-0.161-0.076-0.356-0.115-0.585-0.115c-0.306,0-0.572,0.056-0.798,0.167c-0.225,0.112-0.409,0.265-0.551,0.46
				c-0.142,0.195-0.247,0.425-0.316,0.69c-0.069,0.264-0.103,0.554-0.103,0.868v3.312h-0.723v-5.934H118.036z M127.568,43.458
				c0.073,0.28,0.189,0.531,0.35,0.753s0.363,0.407,0.608,0.552c0.245,0.145,0.539,0.218,0.884,0.218
				c0.528,0,0.941-0.138,1.24-0.414c0.298-0.276,0.505-0.644,0.62-1.104h0.723c-0.153,0.674-0.434,1.196-0.844,1.564
				c-0.41,0.368-0.989,0.552-1.739,0.552c-0.466,0-0.871-0.082-1.211-0.247c-0.34-0.165-0.618-0.391-0.832-0.679
				c-0.215-0.287-0.373-0.621-0.476-1c-0.103-0.379-0.155-0.78-0.155-1.202c0-0.391,0.052-0.775,0.155-1.15
				c0.103-0.375,0.262-0.711,0.476-1.006c0.214-0.295,0.492-0.533,0.832-0.713c0.34-0.18,0.744-0.27,1.211-0.27
				c0.475,0,0.88,0.096,1.217,0.287c0.337,0.191,0.61,0.443,0.821,0.753s0.362,0.667,0.453,1.069
				c0.092,0.403,0.13,0.811,0.115,1.225h-4.557C127.459,42.907,127.495,43.177,127.568,43.458z M131.149,41.244
				c-0.088-0.253-0.212-0.477-0.373-0.673c-0.161-0.195-0.356-0.352-0.585-0.471c-0.23-0.119-0.489-0.178-0.78-0.178
				c-0.298,0-0.562,0.059-0.792,0.178c-0.23,0.119-0.425,0.276-0.585,0.471c-0.161,0.196-0.289,0.421-0.385,0.679
				c-0.096,0.257-0.159,0.52-0.189,0.788h3.833C131.285,41.761,131.237,41.497,131.149,41.244z M133.806,39.484v1.023h0.023
				c0.138-0.36,0.383-0.65,0.735-0.868c0.352-0.219,0.739-0.328,1.159-0.328c0.413,0,0.759,0.053,1.039,0.161
				c0.28,0.108,0.503,0.259,0.671,0.454s0.287,0.435,0.356,0.719c0.069,0.284,0.103,0.602,0.103,0.955v3.818h-0.723v-3.703
				c0-0.253-0.023-0.489-0.069-0.707c-0.046-0.219-0.126-0.408-0.241-0.569c-0.115-0.161-0.27-0.287-0.465-0.379
				s-0.438-0.138-0.729-0.138c-0.291,0-0.549,0.052-0.775,0.155c-0.226,0.104-0.417,0.246-0.574,0.425s-0.28,0.395-0.367,0.644
				c-0.089,0.25-0.136,0.52-0.143,0.811v3.461h-0.723v-5.934H133.806z M141.714,39.484v0.61h-1.205v4.002
				c0,0.237,0.033,0.424,0.098,0.558c0.065,0.135,0.228,0.209,0.488,0.224c0.207,0,0.413-0.012,0.62-0.035v0.609
				c-0.107,0-0.214,0.004-0.321,0.012c-0.107,0.008-0.214,0.012-0.321,0.012c-0.482,0-0.819-0.094-1.01-0.282
				c-0.192-0.187-0.283-0.535-0.275-1.041v-4.059h-1.033v-0.61h1.033v-1.783h0.723v1.783H141.714z M143.011,40.404
				c0.122-0.253,0.289-0.46,0.499-0.621c0.211-0.161,0.457-0.279,0.74-0.356c0.283-0.076,0.597-0.115,0.941-0.115
				c0.26,0,0.52,0.025,0.78,0.075c0.26,0.05,0.494,0.144,0.7,0.282c0.207,0.138,0.375,0.332,0.505,0.581
				c0.13,0.249,0.195,0.573,0.195,0.972v3.151c0,0.292,0.142,0.437,0.425,0.437c0.084,0,0.161-0.015,0.23-0.046v0.609
				c-0.084,0.016-0.159,0.027-0.224,0.035c-0.066,0.008-0.148,0.012-0.247,0.012c-0.184,0-0.331-0.025-0.442-0.075
				c-0.111-0.049-0.198-0.121-0.258-0.213c-0.061-0.092-0.102-0.201-0.121-0.328c-0.02-0.126-0.029-0.266-0.029-0.42h-0.023
				c-0.13,0.192-0.262,0.362-0.396,0.512c-0.134,0.15-0.283,0.274-0.448,0.374c-0.165,0.1-0.353,0.177-0.562,0.23
				c-0.211,0.053-0.462,0.08-0.752,0.08c-0.275,0-0.534-0.033-0.775-0.098c-0.241-0.065-0.452-0.168-0.631-0.311
				c-0.18-0.141-0.321-0.322-0.425-0.541s-0.155-0.477-0.155-0.776c0-0.414,0.092-0.738,0.275-0.972
				c0.184-0.233,0.426-0.412,0.729-0.535c0.302-0.122,0.643-0.209,1.021-0.259s0.763-0.098,1.153-0.144
				c0.153-0.015,0.287-0.035,0.402-0.057c0.115-0.023,0.211-0.063,0.287-0.121c0.076-0.058,0.135-0.136,0.178-0.236
				c0.042-0.099,0.063-0.23,0.063-0.391c0-0.246-0.04-0.446-0.121-0.604c-0.08-0.157-0.192-0.282-0.333-0.374
				c-0.142-0.092-0.306-0.155-0.494-0.19c-0.188-0.035-0.389-0.052-0.603-0.052c-0.459,0-0.834,0.109-1.125,0.328
				c-0.291,0.219-0.444,0.569-0.459,1.052h-0.723C142.816,40.956,142.888,40.657,143.011,40.404z M146.627,42.175
				c-0.046,0.085-0.134,0.146-0.264,0.184c-0.13,0.039-0.245,0.066-0.344,0.081c-0.307,0.054-0.621,0.102-0.947,0.144
				c-0.325,0.043-0.622,0.105-0.889,0.19c-0.268,0.085-0.488,0.205-0.66,0.362c-0.172,0.158-0.258,0.382-0.258,0.673
				c0,0.184,0.036,0.347,0.109,0.489c0.073,0.142,0.17,0.264,0.293,0.368c0.122,0.104,0.264,0.182,0.425,0.236
				c0.161,0.054,0.325,0.081,0.494,0.081c0.275,0,0.539-0.042,0.792-0.126c0.253-0.084,0.472-0.207,0.66-0.368
				c0.187-0.161,0.336-0.357,0.448-0.587c0.111-0.23,0.166-0.49,0.166-0.782v-0.943H146.627z M148.933,45.418v-8.211h0.723v8.211
				H148.933z M179.158,0c1.386,0,2.48,1.08,2.48,2.454c0,1.404-1.094,2.484-2.495,2.484c-1.402,0-2.51-1.08-2.51-2.484
				c0-1.373,1.108-2.454,2.51-2.454H179.158z M179.128,0.432c-1.108,0-1.955,0.91-1.955,2.022c0,1.142,0.847,2.036,1.986,2.036
				c1.109,0.016,1.926-0.895,1.926-2.022c0-1.126-0.817-2.036-1.941-2.036H179.128z M178.697,3.811h-0.477V1.235
				c0.262-0.047,0.539-0.077,0.893-0.077c0.431,0,0.647,0.077,0.817,0.2c0.153,0.108,0.262,0.309,0.262,0.54
				c0,0.324-0.23,0.524-0.508,0.617v0.031c0.231,0.092,0.354,0.293,0.431,0.617c0.077,0.401,0.123,0.555,0.185,0.648h-0.493
				c-0.077-0.093-0.139-0.324-0.201-0.679c-0.061-0.278-0.23-0.401-0.6-0.401h-0.308V3.811z M178.697,2.361h0.324
				c0.354,0,0.662-0.108,0.662-0.416c0-0.247-0.153-0.416-0.616-0.416c-0.184,0-0.293,0.015-0.37,0.03V2.361z M157.599,37.15h0.802
				l1.254,3.155l1.216-3.155h0.802v3.892h-0.5v-3.438h-0.019l-1.376,3.438h-0.282l-1.377-3.438h-0.019v3.438h-0.499V37.15z
				 M155.147,37.575h-1.263V37.15h3.026v0.425h-1.263v3.466h-0.499V37.575z"/>
		</g>
		<defs>
			<filter id="Adobe_OpacityMaskFilter" filterUnits="userSpaceOnUse" x="0" y="0" width="183" height="46">
				<feColorMatrix  type="matrix" values="1 0 0 0 0  0 1 0 0 0  0 0 1 0 0  0 0 0 1 0"/>
			</filter>
		</defs>
		<mask maskUnits="userSpaceOnUse" x="0" y="0" width="183" height="46" id="mask-2">
			<g filter="url(#Adobe_OpacityMaskFilter)">
				<path id="path-1" fill="#FFFFFF" d="M5.665,28.657c3.271,0,4.418-2.769,4.418-5.388c0-2.617-1.147-5.38-4.418-5.38
					c-2.931,0-4.125,2.762-4.125,5.38C1.541,25.888,2.734,28.657,5.665,28.657z M11.624,29.58h-1.418v-2.394h-0.049
					c-0.659,1.64-2.658,2.761-4.492,2.761C1.832,29.947,0,26.84,0,23.27c0-3.569,1.832-6.677,5.665-6.677
					c1.881,0,3.713,0.955,4.37,2.765h0.048V12.12h1.541V29.58z M14.578,29.579V16.963h1.536v12.616H14.578z M14.578,14.588V12.12
					h1.536v2.468H14.578z M29.715,28.552c-0.028,3.769-1.467,6.069-5.595,6.069c-2.514,0-5.003-1.129-5.223-3.814h1.538
					c0.34,1.856,1.976,2.516,3.685,2.516c2.833,0,4.052-1.681,4.052-4.771V26.84h-0.051c-0.708,1.543-2.193,2.595-4.002,2.595
					c-4.025,0-5.686-2.885-5.686-6.481c0-3.471,2.05-6.362,5.686-6.362c1.834,0,3.393,1.152,4.002,2.543h0.051v-2.172h1.543V28.552z
					 M28.172,23.122c0-2.469-1.144-5.233-4.052-5.233c-2.929,0-4.147,2.62-4.147,5.233c0,2.547,1.316,5.012,4.147,5.012
					C26.784,28.135,28.172,25.692,28.172,23.122z M32.667,29.579V16.963h1.536v12.616H32.667z M32.667,14.588V12.12h1.536v2.468
					H32.667z M39.602,16.963h2.561v1.295h-2.561v8.511c0,1.001,0.141,1.59,1.24,1.665c0.439,0,0.879-0.025,1.322-0.075v1.324
					c-0.466,0-0.905,0.046-1.37,0.046c-2.052,0-2.76-0.683-2.732-2.839v-8.632h-2.198v-1.295h2.198V13.17h1.54V16.963z
					 M44.24,20.825c0.145-2.959,2.22-4.234,5.098-4.234c2.223,0,4.636,0.688,4.636,4.061v6.701c0,0.588,0.296,0.928,0.907,0.928
					c0.169,0,0.363-0.044,0.485-0.094v1.299c-0.337,0.071-0.58,0.092-0.999,0.092c-1.562,0-1.803-0.877-1.803-2.197h-0.053
					c-1.073,1.632-2.172,2.565-4.587,2.565c-2.324,0-4.228-1.15-4.228-3.69c0-3.548,3.447-3.672,6.765-4.064
					c1.271-0.145,1.981-0.315,1.981-1.709c0-2.078-1.495-2.593-3.301-2.593c-1.9,0-3.32,0.881-3.369,2.935H44.24z M52.443,22.682
					H52.39c-0.194,0.367-0.879,0.495-1.293,0.564c-2.614,0.463-5.86,0.441-5.86,2.912c0,1.538,1.367,2.499,2.809,2.499
					c2.344,0,4.416-1.493,4.398-3.962V22.682z M57.077,29.579V12.12h1.538v17.459H57.077z M66.102,23.979
					c0,1.984,1.078,3.743,3.398,3.743c1.608,0,2.586-0.708,3.074-2.104h2.637c-0.607,2.764-2.951,4.308-5.711,4.308
					c-3.957,0-6.177-2.762-6.177-6.658c0-3.592,2.344-6.677,6.1-6.677c3.981,0,6.419,3.601,5.957,7.387H66.102z M72.598,22.146
					c-0.094-1.76-1.293-3.355-3.174-3.355c-1.929,0-3.248,1.47-3.322,3.355H72.598z M77.578,29.579V12.12h2.783v17.459H77.578z
					 M85.564,23.979c0,1.984,1.073,3.743,3.391,3.743c1.613,0,2.587-0.708,3.077-2.104h2.637c-0.615,2.764-2.951,4.308-5.713,4.308
					c-3.952,0-6.174-2.762-6.174-6.658c0-3.592,2.343-6.677,6.099-6.677c3.979,0,6.422,3.601,5.959,7.387H85.564z M92.054,22.146
					c-0.095-1.76-1.294-3.355-3.174-3.355c-1.929,0-3.245,1.47-3.316,3.355H92.054z M96.96,16.936h2.632v1.763h0.079
					c0.83-1.249,1.876-2.107,3.879-2.107c1.54,0,2.982,0.66,3.544,2.107c0.927-1.295,2.126-2.107,3.956-2.107
					c2.66,0,4.221,1.18,4.221,4.26v8.728h-2.781v-7.387c0-2-0.127-3.402-2.296-3.402c-1.881,0-2.691,1.253-2.691,3.382v7.408h-2.776
					v-8.119c0-1.734-0.539-2.67-2.225-2.67c-1.439,0-2.758,1.179-2.758,3.28v7.51H96.96V16.936z M120.373,23.979
					c0,1.984,1.078,3.743,3.393,3.743c1.605,0,2.588-0.708,3.074-2.104h2.639c-0.615,2.764-2.954,4.308-5.713,4.308
					c-3.953,0-6.178-2.762-6.178-6.658c0-3.592,2.347-6.677,6.106-6.677c3.981,0,6.419,3.601,5.955,7.387H120.373z M126.866,22.146
					c-0.1-1.76-1.295-3.355-3.172-3.355c-1.934,0-3.252,1.47-3.321,3.355H126.866z M131.774,16.936h2.635v1.854l0.051,0.048
					c0.833-1.388,2.272-2.246,3.93-2.246c2.739,0,4.465,1.472,4.465,4.305v8.683h-2.781v-7.95c-0.048-1.978-0.83-2.84-2.468-2.84
					c-1.853,0-3.048,1.47-3.048,3.336v7.454h-2.783V16.936z M144.516,16.936h2.105V13.14h2.782v3.796h2.512v2.078h-2.512v6.754
					c0,1.147,0.093,1.735,1.337,1.735c0.396,0,0.782,0,1.175-0.098v2.152c-0.612,0.05-1.198,0.149-1.809,0.149
					c-2.905,0-3.438-1.131-3.486-3.231v-7.46h-2.105V16.936z M176.522,9.043c0.478,3.01-0.508,5.914-2.441,8.018
					c0.08-0.108,0.148-0.223,0.223-0.333c-1.144,1.399-2.767,2.391-4.671,2.677c-4.187,0.63-8.131-2.36-8.809-6.677
					c-0.676-4.313,2.175-8.329,6.362-8.957c1.745-0.262,3.444,0.111,4.884,0.939c-1.708-1.533-3.864-2.339-6.243-1.969
					c-4.515,0.704-7.532,5.23-6.748,10.103c0.589,3.64,3.13,6.444,6.256,7.341c-4.197-0.574-7.7-3.772-8.388-8.084
					c-0.856-5.302,2.833-10.277,8.24-11.12C170.595,0.143,175.665,3.752,176.522,9.043z M168.268,18.446
					c3.121-0.37,5.337-3.333,4.944-6.607c-0.396-3.278-3.243-5.629-6.366-5.262c-3.13,0.375-5.341,3.336-4.948,6.613
					c0.06,0.495,0.182,0.966,0.346,1.413c-0.007-0.039-0.023-0.075-0.03-0.113c0.507,1.446,2,2.266,3.466,1.892
					c1.572-0.406,2.519-2.055,2.118-3.687c-0.402-1.624-2-2.615-3.574-2.207c-0.447,0.116-0.834,0.336-1.162,0.619
					c1.268-1.654,3.532-2.127,5.346-0.996c1.994,1.242,2.66,3.922,1.504,5.988c-0.859,1.534-2.484,2.295-4.079,2.082
					C166.597,18.445,167.421,18.549,168.268,18.446z M45.303,37.207v7.544h4.591v0.667h-5.371v-8.211H45.303z M54.353,39.565
					c0.348,0.168,0.641,0.395,0.878,0.679s0.416,0.615,0.539,0.995c0.122,0.379,0.184,0.784,0.184,1.213
					c0,0.429-0.061,0.834-0.184,1.213c-0.123,0.38-0.303,0.711-0.539,0.995s-0.53,0.508-0.878,0.673
					c-0.348,0.164-0.748,0.247-1.199,0.247c-0.452,0-0.852-0.083-1.199-0.247c-0.348-0.165-0.641-0.389-0.878-0.673
					c-0.238-0.283-0.417-0.615-0.539-0.995c-0.122-0.38-0.184-0.784-0.184-1.213c0-0.43,0.061-0.834,0.184-1.213
					c0.122-0.38,0.302-0.711,0.539-0.995c0.237-0.283,0.53-0.51,0.878-0.679c0.348-0.168,0.748-0.253,1.199-0.253
					C53.605,39.312,54.005,39.397,54.353,39.565z M52.247,40.14c-0.26,0.145-0.476,0.338-0.648,0.575
					c-0.172,0.237-0.303,0.508-0.39,0.811c-0.089,0.303-0.132,0.611-0.132,0.926c0,0.315,0.043,0.623,0.132,0.926
					c0.088,0.303,0.218,0.573,0.39,0.811c0.172,0.237,0.389,0.43,0.648,0.575s0.562,0.218,0.907,0.218
					c0.344,0,0.647-0.073,0.907-0.218c0.26-0.145,0.476-0.338,0.648-0.575s0.303-0.508,0.39-0.811
					c0.088-0.303,0.132-0.611,0.132-0.926c0-0.315-0.044-0.623-0.132-0.926c-0.088-0.303-0.218-0.573-0.39-0.811
					s-0.389-0.43-0.648-0.575c-0.26-0.145-0.562-0.218-0.907-0.218C52.809,39.922,52.507,39.995,52.247,40.14z M60.763,40.301
					c-0.268-0.253-0.643-0.38-1.125-0.38c-0.344,0-0.647,0.073-0.907,0.219c-0.26,0.145-0.476,0.338-0.648,0.575
					s-0.303,0.508-0.39,0.811c-0.089,0.303-0.132,0.611-0.132,0.926c0,0.315,0.043,0.623,0.132,0.926
					c0.088,0.303,0.218,0.573,0.39,0.811s0.389,0.43,0.648,0.575c0.26,0.145,0.562,0.218,0.907,0.218
					c0.221,0,0.432-0.042,0.631-0.126c0.199-0.085,0.375-0.201,0.528-0.351c0.153-0.15,0.279-0.328,0.379-0.535
					c0.099-0.207,0.161-0.433,0.184-0.678h0.723c-0.1,0.721-0.363,1.282-0.792,1.685c-0.429,0.403-0.98,0.604-1.653,0.604
					c-0.452,0-0.852-0.082-1.199-0.247c-0.348-0.165-0.641-0.389-0.878-0.673c-0.238-0.283-0.417-0.615-0.539-0.995
					c-0.122-0.38-0.184-0.784-0.184-1.213s0.061-0.834,0.184-1.213c0.122-0.38,0.302-0.711,0.539-0.995
					c0.237-0.283,0.53-0.509,0.878-0.679c0.348-0.168,0.748-0.253,1.199-0.253c0.635,0,1.172,0.168,1.613,0.506
					c0.439,0.338,0.702,0.847,0.786,1.529h-0.723C61.214,40.903,61.032,40.554,60.763,40.301z M63.346,40.404
					c0.122-0.253,0.289-0.46,0.499-0.621c0.211-0.161,0.457-0.279,0.74-0.356c0.283-0.076,0.597-0.115,0.941-0.115
					c0.26,0,0.52,0.025,0.78,0.075c0.26,0.05,0.494,0.144,0.7,0.282s0.375,0.332,0.505,0.581c0.13,0.249,0.195,0.573,0.195,0.972
					v3.151c0,0.292,0.142,0.437,0.425,0.437c0.084,0,0.161-0.015,0.23-0.046v0.609c-0.084,0.016-0.159,0.027-0.224,0.035
					c-0.066,0.008-0.148,0.012-0.247,0.012c-0.184,0-0.331-0.025-0.442-0.075c-0.111-0.049-0.198-0.121-0.258-0.213
					c-0.061-0.092-0.102-0.201-0.121-0.328c-0.02-0.126-0.029-0.266-0.029-0.42h-0.023c-0.13,0.192-0.262,0.362-0.396,0.512
					c-0.134,0.15-0.283,0.274-0.448,0.374c-0.165,0.1-0.353,0.177-0.562,0.23c-0.211,0.053-0.462,0.08-0.752,0.08
					c-0.275,0-0.534-0.033-0.775-0.098c-0.241-0.065-0.452-0.168-0.631-0.311c-0.18-0.141-0.321-0.322-0.425-0.541
					c-0.103-0.218-0.155-0.477-0.155-0.776c0-0.414,0.092-0.738,0.275-0.972c0.184-0.233,0.426-0.412,0.729-0.535
					c0.302-0.122,0.643-0.209,1.021-0.259s0.763-0.098,1.153-0.144c0.153-0.015,0.287-0.035,0.402-0.057
					c0.115-0.023,0.211-0.063,0.287-0.121c0.076-0.058,0.135-0.136,0.178-0.236c0.042-0.099,0.063-0.23,0.063-0.391
					c0-0.246-0.04-0.446-0.121-0.604c-0.08-0.157-0.192-0.282-0.333-0.374c-0.142-0.092-0.306-0.155-0.494-0.19
					c-0.188-0.035-0.389-0.052-0.603-0.052c-0.459,0-0.834,0.109-1.125,0.328c-0.291,0.219-0.444,0.569-0.459,1.052h-0.723
					C63.151,40.956,63.223,40.657,63.346,40.404z M66.961,42.175c-0.046,0.085-0.134,0.146-0.264,0.184
					c-0.13,0.039-0.245,0.066-0.344,0.081c-0.307,0.054-0.621,0.102-0.947,0.144c-0.325,0.043-0.622,0.105-0.89,0.19
					c-0.268,0.085-0.488,0.205-0.66,0.362c-0.172,0.158-0.258,0.382-0.258,0.673c0,0.184,0.036,0.347,0.109,0.489
					c0.073,0.142,0.17,0.264,0.293,0.368c0.122,0.104,0.264,0.182,0.425,0.236c0.161,0.054,0.325,0.081,0.494,0.081
					c0.275,0,0.539-0.042,0.792-0.126c0.253-0.084,0.472-0.207,0.66-0.368c0.187-0.161,0.336-0.357,0.448-0.587
					c0.111-0.23,0.166-0.49,0.166-0.782v-0.943H66.961z M71.61,39.484v0.61h-1.205v4.002c0,0.237,0.033,0.424,0.098,0.558
					c0.065,0.135,0.228,0.209,0.488,0.224c0.207,0,0.413-0.012,0.62-0.035v0.609c-0.107,0-0.214,0.004-0.321,0.012
					c-0.107,0.008-0.214,0.012-0.321,0.012c-0.482,0-0.819-0.094-1.01-0.282c-0.192-0.187-0.283-0.535-0.275-1.041v-4.059h-1.033
					v-0.61h1.033v-1.783h0.723v1.783H71.61z M72.769,45.418v-5.934h0.723v5.934H72.769z M72.769,38.369v-1.161h0.723v1.161H72.769z
					 M78.686,39.565c0.348,0.168,0.641,0.395,0.878,0.679c0.237,0.283,0.416,0.615,0.539,0.995c0.122,0.379,0.184,0.784,0.184,1.213
					c0,0.429-0.061,0.834-0.184,1.213c-0.123,0.38-0.303,0.711-0.539,0.995c-0.237,0.283-0.53,0.508-0.878,0.673
					c-0.348,0.164-0.748,0.247-1.199,0.247c-0.452,0-0.852-0.083-1.199-0.247c-0.348-0.165-0.641-0.389-0.878-0.673
					c-0.238-0.283-0.417-0.615-0.539-0.995s-0.184-0.784-0.184-1.213c0-0.43,0.061-0.834,0.184-1.213
					c0.122-0.38,0.302-0.711,0.539-0.995c0.237-0.283,0.53-0.51,0.878-0.679c0.348-0.168,0.748-0.253,1.199-0.253
					C77.937,39.312,78.337,39.397,78.686,39.565z M76.579,40.14c-0.26,0.145-0.476,0.338-0.648,0.575
					c-0.172,0.237-0.303,0.508-0.39,0.811c-0.089,0.303-0.132,0.611-0.132,0.926c0,0.315,0.043,0.623,0.132,0.926
					c0.088,0.303,0.218,0.573,0.39,0.811c0.172,0.237,0.389,0.43,0.648,0.575c0.26,0.145,0.562,0.218,0.907,0.218
					c0.344,0,0.647-0.073,0.907-0.218c0.26-0.145,0.476-0.338,0.648-0.575c0.172-0.237,0.303-0.508,0.39-0.811
					c0.088-0.303,0.132-0.611,0.132-0.926c0-0.315-0.044-0.623-0.132-0.926c-0.088-0.303-0.218-0.573-0.39-0.811
					c-0.172-0.237-0.389-0.43-0.648-0.575c-0.26-0.145-0.562-0.218-0.907-0.218C77.142,39.922,76.839,39.995,76.579,40.14z
					 M82.181,39.484v1.023h0.023c0.138-0.36,0.383-0.65,0.735-0.868c0.352-0.219,0.739-0.328,1.159-0.328
					c0.413,0,0.759,0.053,1.039,0.161c0.28,0.108,0.503,0.259,0.671,0.454c0.168,0.195,0.287,0.435,0.356,0.719
					c0.069,0.284,0.103,0.602,0.103,0.955v3.818h-0.723v-3.703c0-0.253-0.023-0.489-0.069-0.707
					c-0.046-0.219-0.126-0.408-0.241-0.569c-0.115-0.161-0.27-0.287-0.465-0.379c-0.195-0.092-0.438-0.138-0.729-0.138
					s-0.549,0.052-0.775,0.155c-0.226,0.104-0.417,0.246-0.574,0.425s-0.28,0.395-0.367,0.644c-0.089,0.25-0.136,0.52-0.143,0.811
					v3.461h-0.723v-5.934H82.181z M91.041,45.418v-5.934h0.723v5.934H91.041z M91.041,38.369v-1.161h0.723v1.161H91.041z
					 M96.665,40.64c-0.084-0.165-0.197-0.301-0.339-0.408c-0.142-0.108-0.304-0.186-0.488-0.236
					c-0.184-0.05-0.379-0.075-0.585-0.075c-0.161,0-0.323,0.017-0.488,0.052c-0.165,0.035-0.316,0.092-0.453,0.173
					c-0.138,0.08-0.248,0.186-0.333,0.316c-0.084,0.131-0.126,0.292-0.126,0.483c0,0.161,0.04,0.297,0.121,0.408
					c0.08,0.111,0.181,0.205,0.304,0.282c0.122,0.076,0.256,0.14,0.402,0.19c0.145,0.05,0.279,0.09,0.402,0.121l0.964,0.219
					c0.207,0.03,0.412,0.086,0.614,0.167c0.202,0.081,0.382,0.186,0.539,0.316c0.157,0.131,0.285,0.292,0.384,0.483
					s0.149,0.418,0.149,0.679c0,0.322-0.073,0.596-0.218,0.822c-0.146,0.226-0.331,0.41-0.557,0.552
					c-0.225,0.142-0.48,0.243-0.763,0.305c-0.283,0.062-0.562,0.092-0.838,0.092c-0.696,0-1.261-0.165-1.693-0.494
					c-0.432-0.329-0.679-0.858-0.74-1.587h0.723c0.03,0.49,0.208,0.861,0.534,1.11c0.325,0.249,0.729,0.374,1.211,0.374
					c0.176,0,0.357-0.019,0.545-0.058c0.187-0.039,0.362-0.104,0.522-0.195s0.293-0.209,0.396-0.351
					c0.103-0.142,0.155-0.316,0.155-0.523c0-0.177-0.037-0.324-0.109-0.443c-0.073-0.119-0.171-0.218-0.293-0.299
					s-0.262-0.148-0.419-0.201c-0.157-0.053-0.316-0.099-0.476-0.138l-0.93-0.207c-0.237-0.061-0.456-0.132-0.654-0.213
					c-0.199-0.081-0.373-0.18-0.522-0.299c-0.149-0.119-0.266-0.264-0.35-0.437c-0.084-0.173-0.126-0.385-0.126-0.638
					c0-0.299,0.067-0.556,0.201-0.771c0.134-0.214,0.308-0.387,0.522-0.517c0.214-0.13,0.453-0.226,0.717-0.288
					c0.264-0.062,0.526-0.092,0.786-0.092c0.298,0,0.576,0.039,0.832,0.115c0.256,0.076,0.482,0.195,0.677,0.356
					c0.195,0.161,0.35,0.361,0.465,0.598c0.115,0.237,0.18,0.518,0.195,0.84h-0.723C96.795,40.999,96.749,40.805,96.665,40.64z
					 M107.971,37.207v0.667h-4.878v2.967h4.568v0.667h-4.568v3.243h4.935v0.667h-5.716v-8.211H107.971z M109.095,45.418v-8.211
					h0.723v8.211H109.095z M111.844,43.458c0.073,0.28,0.189,0.531,0.35,0.753s0.363,0.407,0.608,0.552
					c0.245,0.145,0.539,0.218,0.884,0.218c0.528,0,0.941-0.138,1.24-0.414c0.298-0.276,0.505-0.644,0.62-1.104h0.723
					c-0.153,0.674-0.434,1.196-0.844,1.564c-0.41,0.368-0.989,0.552-1.739,0.552c-0.466,0-0.871-0.082-1.211-0.247
					s-0.618-0.391-0.832-0.679c-0.215-0.287-0.373-0.621-0.476-1c-0.103-0.379-0.155-0.78-0.155-1.202
					c0-0.391,0.052-0.775,0.155-1.15c0.103-0.375,0.262-0.711,0.476-1.006c0.214-0.295,0.492-0.533,0.832-0.713
					s0.744-0.27,1.211-0.27c0.475,0,0.88,0.096,1.217,0.287c0.337,0.191,0.61,0.443,0.821,0.753
					c0.211,0.311,0.362,0.667,0.453,1.069s0.13,0.811,0.115,1.225h-4.557C111.735,42.907,111.771,43.177,111.844,43.458z
					 M115.425,41.244c-0.088-0.253-0.212-0.477-0.373-0.673c-0.161-0.195-0.356-0.352-0.585-0.471
					c-0.23-0.119-0.489-0.178-0.78-0.178c-0.298,0-0.562,0.059-0.792,0.178c-0.23,0.119-0.425,0.276-0.585,0.471
					c-0.161,0.196-0.289,0.421-0.384,0.679s-0.159,0.52-0.189,0.788h3.833C115.561,41.761,115.513,41.497,115.425,41.244z
					 M118.036,39.484v1h0.034c0.191-0.368,0.442-0.655,0.752-0.862s0.706-0.311,1.188-0.311c0.39,0,0.744,0.096,1.062,0.288
					c0.317,0.192,0.53,0.483,0.637,0.874c0.176-0.391,0.436-0.682,0.78-0.874c0.344-0.191,0.712-0.288,1.102-0.288
					c1.308,0,1.963,0.694,1.963,2.082v4.025h-0.723v-3.99c0-0.49-0.103-0.864-0.31-1.121c-0.207-0.257-0.57-0.385-1.09-0.385
					c-0.314,0-0.574,0.059-0.78,0.178s-0.371,0.278-0.494,0.477s-0.208,0.428-0.258,0.684c-0.05,0.257-0.075,0.523-0.075,0.799
					v3.358H121.1v-4.025c0-0.199-0.021-0.389-0.063-0.569c-0.042-0.18-0.111-0.337-0.207-0.471
					c-0.096-0.134-0.224-0.239-0.384-0.316c-0.161-0.076-0.356-0.115-0.585-0.115c-0.306,0-0.572,0.056-0.798,0.167
					c-0.225,0.112-0.409,0.265-0.551,0.46c-0.142,0.195-0.247,0.425-0.316,0.69c-0.069,0.264-0.103,0.554-0.103,0.868v3.312h-0.723
					v-5.934H118.036z M127.568,43.458c0.073,0.28,0.189,0.531,0.35,0.753s0.363,0.407,0.608,0.552
					c0.245,0.145,0.539,0.218,0.884,0.218c0.528,0,0.941-0.138,1.24-0.414c0.298-0.276,0.505-0.644,0.62-1.104h0.723
					c-0.153,0.674-0.434,1.196-0.844,1.564c-0.41,0.368-0.989,0.552-1.739,0.552c-0.466,0-0.871-0.082-1.211-0.247
					c-0.34-0.165-0.618-0.391-0.832-0.679c-0.215-0.287-0.373-0.621-0.476-1c-0.103-0.379-0.155-0.78-0.155-1.202
					c0-0.391,0.052-0.775,0.155-1.15c0.103-0.375,0.262-0.711,0.476-1.006c0.214-0.295,0.492-0.533,0.832-0.713
					c0.34-0.18,0.744-0.27,1.211-0.27c0.475,0,0.88,0.096,1.217,0.287c0.337,0.191,0.61,0.443,0.821,0.753s0.362,0.667,0.453,1.069
					c0.092,0.403,0.13,0.811,0.115,1.225h-4.557C127.459,42.907,127.495,43.177,127.568,43.458z M131.149,41.244
					c-0.088-0.253-0.212-0.477-0.373-0.673c-0.161-0.195-0.356-0.352-0.585-0.471c-0.23-0.119-0.489-0.178-0.78-0.178
					c-0.298,0-0.562,0.059-0.792,0.178c-0.23,0.119-0.425,0.276-0.585,0.471c-0.161,0.196-0.289,0.421-0.385,0.679
					c-0.096,0.257-0.159,0.52-0.189,0.788h3.833C131.285,41.761,131.237,41.497,131.149,41.244z M133.806,39.484v1.023h0.023
					c0.138-0.36,0.383-0.65,0.735-0.868c0.352-0.219,0.739-0.328,1.159-0.328c0.413,0,0.759,0.053,1.039,0.161
					c0.28,0.108,0.503,0.259,0.671,0.454s0.287,0.435,0.356,0.719c0.069,0.284,0.103,0.602,0.103,0.955v3.818h-0.723v-3.703
					c0-0.253-0.023-0.489-0.069-0.707c-0.046-0.219-0.126-0.408-0.241-0.569c-0.115-0.161-0.27-0.287-0.465-0.379
					s-0.438-0.138-0.729-0.138c-0.291,0-0.549,0.052-0.775,0.155c-0.226,0.104-0.417,0.246-0.574,0.425s-0.28,0.395-0.367,0.644
					c-0.089,0.25-0.136,0.52-0.143,0.811v3.461h-0.723v-5.934H133.806z M141.714,39.484v0.61h-1.205v4.002
					c0,0.237,0.033,0.424,0.098,0.558c0.065,0.135,0.228,0.209,0.488,0.224c0.207,0,0.413-0.012,0.62-0.035v0.609
					c-0.107,0-0.214,0.004-0.321,0.012c-0.107,0.008-0.214,0.012-0.321,0.012c-0.482,0-0.819-0.094-1.01-0.282
					c-0.192-0.187-0.283-0.535-0.275-1.041v-4.059h-1.033v-0.61h1.033v-1.783h0.723v1.783H141.714z M143.011,40.404
					c0.122-0.253,0.289-0.46,0.499-0.621c0.211-0.161,0.457-0.279,0.74-0.356c0.283-0.076,0.597-0.115,0.941-0.115
					c0.26,0,0.52,0.025,0.78,0.075c0.26,0.05,0.494,0.144,0.7,0.282c0.207,0.138,0.375,0.332,0.505,0.581
					c0.13,0.249,0.195,0.573,0.195,0.972v3.151c0,0.292,0.142,0.437,0.425,0.437c0.084,0,0.161-0.015,0.23-0.046v0.609
					c-0.084,0.016-0.159,0.027-0.224,0.035c-0.066,0.008-0.148,0.012-0.247,0.012c-0.184,0-0.331-0.025-0.442-0.075
					c-0.111-0.049-0.198-0.121-0.258-0.213c-0.061-0.092-0.102-0.201-0.121-0.328c-0.02-0.126-0.029-0.266-0.029-0.42h-0.023
					c-0.13,0.192-0.262,0.362-0.396,0.512c-0.134,0.15-0.283,0.274-0.448,0.374c-0.165,0.1-0.353,0.177-0.562,0.23
					c-0.211,0.053-0.462,0.08-0.752,0.08c-0.275,0-0.534-0.033-0.775-0.098c-0.241-0.065-0.452-0.168-0.631-0.311
					c-0.18-0.141-0.321-0.322-0.425-0.541s-0.155-0.477-0.155-0.776c0-0.414,0.092-0.738,0.275-0.972
					c0.184-0.233,0.426-0.412,0.729-0.535c0.302-0.122,0.643-0.209,1.021-0.259s0.763-0.098,1.153-0.144
					c0.153-0.015,0.287-0.035,0.402-0.057c0.115-0.023,0.211-0.063,0.287-0.121c0.076-0.058,0.135-0.136,0.178-0.236
					c0.042-0.099,0.063-0.23,0.063-0.391c0-0.246-0.04-0.446-0.121-0.604c-0.08-0.157-0.192-0.282-0.333-0.374
					c-0.142-0.092-0.306-0.155-0.494-0.19c-0.188-0.035-0.389-0.052-0.603-0.052c-0.459,0-0.834,0.109-1.125,0.328
					c-0.291,0.219-0.444,0.569-0.459,1.052h-0.723C142.816,40.956,142.888,40.657,143.011,40.404z M146.627,42.175
					c-0.046,0.085-0.134,0.146-0.264,0.184c-0.13,0.039-0.245,0.066-0.344,0.081c-0.307,0.054-0.621,0.102-0.947,0.144
					c-0.325,0.043-0.622,0.105-0.889,0.19c-0.268,0.085-0.488,0.205-0.66,0.362c-0.172,0.158-0.258,0.382-0.258,0.673
					c0,0.184,0.036,0.347,0.109,0.489c0.073,0.142,0.17,0.264,0.293,0.368c0.122,0.104,0.264,0.182,0.425,0.236
					c0.161,0.054,0.325,0.081,0.494,0.081c0.275,0,0.539-0.042,0.792-0.126c0.253-0.084,0.472-0.207,0.66-0.368
					c0.187-0.161,0.336-0.357,0.448-0.587c0.111-0.23,0.166-0.49,0.166-0.782v-0.943H146.627z M148.933,45.418v-8.211h0.723v8.211
					H148.933z M179.158,0c1.386,0,2.48,1.08,2.48,2.454c0,1.404-1.094,2.484-2.495,2.484c-1.402,0-2.51-1.08-2.51-2.484
					c0-1.373,1.108-2.454,2.51-2.454H179.158z M179.128,0.432c-1.108,0-1.955,0.91-1.955,2.022c0,1.142,0.847,2.036,1.986,2.036
					c1.109,0.016,1.926-0.895,1.926-2.022c0-1.126-0.817-2.036-1.941-2.036H179.128z M178.697,3.811h-0.477V1.235
					c0.262-0.047,0.539-0.077,0.893-0.077c0.431,0,0.647,0.077,0.817,0.2c0.153,0.108,0.262,0.309,0.262,0.54
					c0,0.324-0.23,0.524-0.508,0.617v0.031c0.231,0.092,0.354,0.293,0.431,0.617c0.077,0.401,0.123,0.555,0.185,0.648h-0.493
					c-0.077-0.093-0.139-0.324-0.201-0.679c-0.061-0.278-0.23-0.401-0.6-0.401h-0.308V3.811z M178.697,2.361h0.324
					c0.354,0,0.662-0.108,0.662-0.416c0-0.247-0.153-0.416-0.616-0.416c-0.184,0-0.293,0.015-0.37,0.03V2.361z M157.599,37.15h0.802
					l1.254,3.155l1.216-3.155h0.802v3.892h-0.5v-3.438h-0.019l-1.376,3.438h-0.282l-1.377-3.438h-0.019v3.438h-0.499V37.15z
					 M155.147,37.575h-1.263V37.15h3.026v0.425h-1.263v3.466h-0.499V37.575z"/>
			</g>
		</mask>
		<g id="Mixin_x2F_Fill_x2F_Black" mask="url(#mask-2)">
			<rect id="Rectangle" fill="#FFFFFF" width="183" height="46"/>
		</g>
	</g>
</g>
</svg>
