<?xml version="1.0" encoding="utf-8"?>
<!-- Generator: Adobe Illustrator 17.0.0, SVG Export Plug-In . SVG Version: 6.00 Build 0)  -->
<!DOCTYPE svg PUBLIC "-//W3C//DTD SVG 1.1//EN" "http://www.w3.org/Graphics/SVG/1.1/DTD/svg11.dtd">
<svg version="1.1" id="Слой_1" xmlns="http://www.w3.org/2000/svg" xmlns:xlink="http://www.w3.org/1999/xlink" x="0px" y="0px"
	 width="278px" height="194px" viewBox="0 0 278 194" enable-background="new 0 0 278 194" xml:space="preserve">
<g>
	<rect x="0" y="0" fill="#FFFFFF" width="278" height="194"/>
	<g>
		<g>
			<g>
				<path fill="none" stroke="#45557A" stroke-miterlimit="10" d="M106.836,79.066c-5.186,0.967-10.735,0.814-15.852-0.461
					l-8.87,8.87v-12.48c-7.192-4.293-11.307-10.758-11.307-17.789c0-12.401,13.076-22.491,29.147-22.491
					c12.088,0,22.744,5.606,27.148,14.282"/>
				<path fill="#45557A" d="M83.508,84.11"/>
			</g>
		</g>
		<path fill="none" stroke="#45557A" stroke-miterlimit="10" d="M195.39,65.941l-4.74-4.74c-1.531,0.38-3.122,0.572-4.731,0.572
			c-8.519,0-15.45-5.351-15.45-11.929c0-6.579,6.931-11.931,15.45-11.931c8.519,0,15.449,5.352,15.449,11.931
			c0,3.725-2.176,7.15-5.978,9.427V65.941z"/>
		<circle fill="none" stroke="#45557A" stroke-miterlimit="10" cx="192.958" cy="49.843" r="2.004"/>
		<circle fill="none" stroke="#45557A" stroke-miterlimit="10" cx="185.919" cy="49.843" r="2.004"/>
		<circle fill="none" stroke="#45557A" stroke-miterlimit="10" cx="178.88" cy="49.843" r="2.004"/>
		<polygon fill="none" stroke="#E2924F" stroke-miterlimit="10" points="169.248,97.25 164.17,99.92 165.14,94.265 161.032,90.26 
			166.71,89.434 169.248,84.289 171.788,89.434 177.466,90.26 173.358,94.265 174.328,99.92 		"/>
		<g>
			<path fill="none" stroke="#45557A" stroke-miterlimit="10" d="M154.617,73.027V60.522c0-6.476-5.268-11.744-11.743-11.744
				h-24.489c-6.475,0-11.744,5.268-11.744,11.744v66.862c0,6.475,5.268,11.742,11.744,11.742h24.489
				c6.475,0,11.743-5.267,11.743-11.742v-6.01"/>
			<line fill="none" stroke="#45557A" stroke-miterlimit="10" x1="106.642" y1="64.077" x2="154.617" y2="64.077"/>
			<line fill="none" stroke="#45557A" stroke-miterlimit="10" x1="106.642" y1="124.028" x2="154.617" y2="124.028"/>
			<line fill="none" stroke="#45557A" stroke-miterlimit="10" x1="125.918" y1="55.845" x2="135.341" y2="55.845"/>
			<line fill="none" stroke="#45557A" stroke-miterlimit="10" x1="125.918" y1="132.479" x2="135.341" y2="132.479"/>
		</g>
		<g>
			<path fill="none" stroke="#E2924F" stroke-width="2" stroke-linecap="round" stroke-linejoin="round" stroke-miterlimit="10" d="
				M169.247,68.369c-13.911,0-25.192,11.277-25.192,25.194c0,13.91,25.192,52.07,25.192,52.07s25.196-38.159,25.196-52.07
				C194.443,79.646,183.162,68.369,169.247,68.369L169.247,68.369z"/>
			<path fill="none" stroke="#E2924F" stroke-linecap="round" stroke-linejoin="round" stroke-miterlimit="10" d="M169.249,76.897
				c-9.192,0-16.669,7.477-16.669,16.667c0,9.191,7.477,16.668,16.669,16.668c9.191,0,16.67-7.477,16.67-16.668
				C185.919,84.374,178.44,76.897,169.249,76.897z"/>
		</g>
		<circle fill="none" stroke="#45557A" stroke-width="2" stroke-miterlimit="10" cx="242.786" cy="144.138" r="17.595"/>
		<circle fill="none" stroke="#45557A" stroke-miterlimit="10" cx="227.606" cy="93.991" r="21.762"/>
		<line fill="none" stroke="#45557A" stroke-miterlimit="10" x1="234.139" y1="114.688" x2="238.009" y2="127.392"/>
		<line fill="none" stroke="#45557A" stroke-miterlimit="10" x1="206.622" y1="99.514" x2="192.448" y2="103.831"/>
		<circle fill="none" stroke="#45557A" stroke-width="2" stroke-miterlimit="10" cx="62.417" cy="123.166" r="28.774"/>
		<circle fill="none" stroke="#45557A" stroke-miterlimit="10" cx="40.885" cy="55.533" r="23.264"/>
		<line fill="none" stroke="#45557A" stroke-miterlimit="10" x1="53.794" y1="95.717" x2="48.003" y2="77.684"/>
		<line fill="none" stroke="#45557A" stroke-miterlimit="10" x1="89.57" y1="114.393" x2="106.85" y2="108.467"/>
		<g>
			<path fill="none" stroke="#6F8CBF" stroke-linecap="round" stroke-linejoin="round" stroke-miterlimit="10" d="M41.276,39.069
				c-5.982,0-10.833,4.85-10.833,10.834c0,5.982,10.833,22.392,10.833,22.392s10.835-16.41,10.835-22.392
				C52.111,43.918,47.26,39.069,41.276,39.069L41.276,39.069z"/>
			<path fill="none" stroke="#6F8CBF" stroke-linecap="round" stroke-linejoin="round" stroke-miterlimit="10" d="M41.277,42.736
				c-3.953,0-7.168,3.215-7.168,7.167c0,3.952,3.215,7.168,7.168,7.168c3.953,0,7.169-3.216,7.169-7.168
				C48.446,45.951,45.23,42.736,41.277,42.736z"/>
		</g>
		<g>
			<path fill="none" stroke="#6F8CBF" stroke-linecap="round" stroke-linejoin="round" stroke-miterlimit="10" d="M227.606,78.319
				c-5.687,0-10.298,4.61-10.298,10.299c0,5.686,10.298,21.285,10.298,21.285s10.299-15.598,10.299-21.285
				C237.905,82.929,233.294,78.319,227.606,78.319L227.606,78.319z"/>
			<path fill="none" stroke="#6F8CBF" stroke-linecap="round" stroke-linejoin="round" stroke-miterlimit="10" d="M227.606,81.805
				c-3.757,0-6.814,3.056-6.814,6.813c0,3.757,3.056,6.813,6.814,6.813c3.757,0,6.814-3.057,6.814-6.813
				C234.421,84.861,231.364,81.805,227.606,81.805z"/>
		</g>
		<g>
			<path fill="none" stroke="#6F8CBF" stroke-linecap="round" stroke-linejoin="round" stroke-miterlimit="10" d="M62.416,102.627
				c-7.429,0-13.453,6.023-13.453,13.454c0,7.429,13.453,27.807,13.453,27.807s13.455-20.378,13.455-27.807
				C75.871,108.649,69.847,102.627,62.416,102.627L62.416,102.627z"/>
			<path fill="none" stroke="#6F8CBF" stroke-linecap="round" stroke-linejoin="round" stroke-miterlimit="10" d="M62.417,107.181
				c-4.909,0-8.902,3.993-8.902,8.901c0,4.908,3.993,8.901,8.902,8.901c4.908,0,8.902-3.993,8.902-8.901
				C71.319,111.174,67.325,107.181,62.417,107.181z"/>
		</g>
		<g>
			<path fill="none" stroke="#6F8CBF" stroke-linecap="round" stroke-linejoin="round" stroke-miterlimit="10" d="M242.785,131.467
				c-4.563,0-8.263,3.699-8.263,8.264c0,4.562,8.263,17.078,8.263,17.078s8.264-12.516,8.264-17.078
				C251.049,135.166,247.349,131.467,242.785,131.467L242.785,131.467z"/>
			<path fill="none" stroke="#6F8CBF" stroke-linecap="round" stroke-linejoin="round" stroke-miterlimit="10" d="M242.786,134.264
				c-3.015,0-5.467,2.452-5.467,5.467c0,3.014,2.452,5.467,5.467,5.467c3.015,0,5.468-2.453,5.468-5.467
				C248.253,136.716,245.8,134.264,242.786,134.264z"/>
		</g>
	</g>
</g>
</svg>
