<?xml version="1.0" encoding="UTF-8"?>
<svg width="200px" height="39px" viewBox="0 0 200 39" version="1.1" xmlns="http://www.w3.org/2000/svg" xmlns:xlink="http://www.w3.org/1999/xlink">
    <!-- Generator: Sketch 48.2 (47327) - http://www.bohemiancoding.com/sketch -->
    <title>Logo/Full Color</title>
    <desc>Created with Sketch.</desc>
    <defs>
        <path d="M6.22531532,18.4678325 C9.81990991,18.4678325 11.0802703,15.3978147 11.0802703,12.4944575 C11.0802703,9.59292182 9.81990991,6.53018967 6.22531532,6.53018967 C3.00459459,6.53018967 1.69288288,9.59292182 1.69288288,12.4944575 C1.69288288,15.3978147 3.00459459,18.4678325 6.22531532,18.4678325 Z M12.773964,19.4905647 L11.2154054,19.4905647 L11.2154054,16.8367432 L11.1613514,16.8367432 C10.437027,18.6554397 8.24063063,19.897654 6.22531532,19.897654 C2.0136036,19.897654 9.00900901e-05,16.4533325 9.00900901e-05,12.4944575 C9.00900901e-05,8.53740396 2.0136036,5.0912611 6.22531532,5.0912611 C8.29198198,5.0912611 10.3054955,6.15042182 11.0271171,8.15672539 L11.0802703,8.15672539 L11.0802703,0.133332531 L12.773964,0.133332531 L12.773964,19.4905647 Z M16.0198198,19.4902004 L16.0198198,5.50253967 L17.7081081,5.50253967 L17.7081081,19.4902004 L16.0198198,19.4902004 Z M16.0198198,2.86966467 L16.0198198,0.132968245 L17.7081081,0.132968245 L17.7081081,2.86966467 L16.0198198,2.86966467 Z M32.6542342,18.3509879 C32.6236036,22.529345 31.0425225,25.079345 26.5055856,25.079345 C23.7425225,25.079345 21.0073874,23.8271129 20.7659459,20.8508986 L22.456036,20.8508986 C22.8299099,22.9082022 24.6272072,23.6404165 26.5055856,23.6404165 C29.6190991,23.6404165 30.9587387,21.7761843 30.9587387,18.3509879 L30.9587387,16.4530593 L30.9028829,16.4530593 C30.1254054,18.1633807 28.492973,19.3300057 26.5055856,19.3300057 C22.0821622,19.3300057 20.2569369,16.1315772 20.2569369,12.14447 C20.2569369,8.29670217 22.5091892,5.09098789 26.5055856,5.09098789 C28.5209009,5.09098789 30.2344144,6.36872003 30.9028829,7.91055932 L30.9587387,7.91055932 L30.9587387,5.50263075 L32.6542342,5.50263075 L32.6542342,18.3509879 Z M30.9587387,12.3311665 C30.9587387,9.59355932 29.7010811,6.52991646 26.5055856,6.52991646 C23.2866667,6.52991646 21.9479279,9.43418432 21.9479279,12.3311665 C21.9479279,15.1552915 23.3938739,17.888345 26.5055856,17.888345 C29.4335135,17.888345 30.9587387,15.1807915 30.9587387,12.3311665 Z M35.8981982,19.4902004 L35.8981982,5.50253967 L37.5864865,5.50253967 L37.5864865,19.4902004 L35.8981982,19.4902004 Z M35.8981982,2.86966467 L35.8981982,0.132968245 L37.5864865,0.132968245 L37.5864865,2.86966467 L35.8981982,2.86966467 Z M43.519009,5.50263075 L46.3334234,5.50263075 L46.3334234,6.93882717 L43.519009,6.93882717 L43.519009,16.3747379 C43.519009,17.4848986 43.673964,18.1378807 44.8811712,18.2207557 C45.3640541,18.2207557 45.8469369,18.1934343 46.3334234,18.1378807 L46.3334234,19.6059522 C45.8217117,19.6059522 45.3388288,19.6569522 44.828018,19.6569522 C42.5730631,19.6569522 41.7955856,18.8992379 41.8262162,16.5095236 L41.8262162,6.93882717 L39.4109009,6.93882717 L39.4109009,5.50263075 L41.8262162,5.50263075 L41.8262162,1.29695217 L43.519009,1.29695217 L43.519009,5.50263075 Z M48.6159459,9.78471825 C48.7754054,6.50432539 51.0555856,5.09089682 54.2177477,5.09089682 C56.660991,5.09089682 59.3123423,5.85407539 59.3123423,9.59346825 L59.3123423,17.0230754 C59.3123423,17.6751468 59.6375676,18.0521825 60.3087387,18.0521825 C60.4943243,18.0521825 60.7078378,18.003004 60.8420721,17.9483611 L60.8420721,19.3882004 C60.4718018,19.4665218 60.2042342,19.4902004 59.7447748,19.4902004 C58.0285586,19.4902004 57.7636937,18.5175575 57.7636937,17.0549504 L57.7051351,17.0549504 C56.5258559,18.8645397 55.3186486,19.8982004 52.6645946,19.8982004 C50.1105405,19.8982004 48.0186486,18.6232004 48.0186486,15.8072718 C48.0186486,11.8738968 51.806036,11.736379 55.4528829,11.3010575 C56.8492793,11.1407718 57.6294595,10.9513432 57.6294595,9.4058611 C57.6294595,7.10175396 55.9871171,6.5307361 54.0024324,6.5307361 C51.915045,6.5307361 50.3537838,7.50793253 50.3006306,9.78471825 L48.6159459,9.78471825 Z M57.6294595,11.8429325 L57.5709009,11.8429325 C57.3573874,12.2500218 56.6051351,12.3920932 56.1501802,12.4685932 C53.2772072,12.9822361 49.7105405,12.9576468 49.7105405,15.6970754 C49.7105405,17.4019325 51.2132432,18.4674682 52.797027,18.4674682 C55.3727027,18.4674682 57.6492793,16.8127004 57.6294595,14.0750932 L57.6294595,11.8429325 Z M62.7216216,19.4902004 L62.7216216,0.132968245 L64.4117117,0.132968245 L64.4117117,19.4902004 L62.7216216,19.4902004 Z" id="path-1"></path>
        <path d="M3.40905059,26.5854804 C3.40905059,28.7848554 4.59373527,30.7356054 7.14328482,30.7356054 C8.90995149,30.7356054 9.98472626,29.9505696 10.5216632,28.4032661 L13.4189605,28.4032661 C12.7513929,31.4678196 10.1757173,33.1799625 7.14328482,33.1799625 C2.79463617,33.1799625 0.355897436,30.1172304 0.355897436,25.7986232 C0.355897436,21.8160696 2.93157311,18.3954268 7.05950104,18.3954268 C11.4342758,18.3954268 14.1135551,22.3879982 13.605447,26.5854804 L3.40905059,26.5854804 Z M10.5468884,24.5527661 C10.4432848,22.6020161 9.12616771,20.8334089 7.05950104,20.8334089 C4.93968122,20.8334089 3.49013167,22.4635875 3.40905059,24.5527661 L10.5468884,24.5527661 Z M16.0196812,32.7945482 L16.0196812,13.4373161 L19.0782398,13.4373161 L19.0782398,32.7945482 L16.0196812,32.7945482 Z M24.795447,26.5854804 C24.795447,28.7848554 25.9747263,30.7356054 28.5215731,30.7356054 C30.2936452,30.7356054 31.3639155,29.9505696 31.9026542,28.4032661 L34.7999515,28.4032661 C34.1242758,31.4678196 31.5567082,33.1799625 28.5215731,33.1799625 C24.1792308,33.1799625 21.7368884,30.1172304 21.7368884,25.7986232 C21.7368884,21.8160696 24.3116632,18.3954268 28.4395911,18.3954268 C32.8125641,18.3954268 35.4963479,22.3879982 34.9882398,26.5854804 L24.795447,26.5854804 Z M31.9278794,24.5527661 C31.8233749,22.6020161 30.5062578,20.8334089 28.4395911,20.8334089 C26.3197713,20.8334089 24.8738254,22.4635875 24.795447,24.5527661 L31.9278794,24.5527661 Z M37.3192308,18.7771982 L40.2120236,18.7771982 L40.2120236,20.7315911 L40.29851,20.7315911 C41.2111227,19.3463946 42.3597713,18.3956089 44.5615731,18.3956089 C46.2543659,18.3956089 47.8381497,19.1278232 48.4561677,20.7315911 C49.4750866,19.2963054 50.7922037,18.3956089 52.8030146,18.3956089 C55.726438,18.3956089 57.4417533,19.7033946 57.4417533,23.1185732 L57.4417533,32.7949125 L54.3858974,32.7949125 L54.3858974,24.6048589 C54.3858974,22.3872696 54.2462578,20.8326804 51.862474,20.8326804 C49.7958073,20.8326804 48.9057173,22.2224304 48.9057173,24.5820911 L48.9057173,32.7949125 L45.8552668,32.7949125 L45.8552668,23.7934125 C45.8552668,21.8708946 45.2633749,20.8326804 43.4102218,20.8326804 C41.8291407,20.8326804 40.3795911,22.1395554 40.3795911,24.4691625 L40.3795911,32.7949125 L37.3192308,32.7949125 L37.3192308,18.7771982 Z M63.0471587,26.5854804 C63.0471587,28.7848554 64.2318434,30.7356054 66.7759875,30.7356054 C68.5399515,30.7356054 69.6201317,29.9505696 70.1543659,28.4032661 L73.0543659,28.4032661 C72.3786902,31.4678196 69.80842,33.1799625 66.7759875,33.1799625 C62.4318434,33.1799625 59.9867983,30.1172304 59.9867983,25.7986232 C59.9867983,21.8160696 62.5660776,18.3954268 66.6967082,18.3954268 C71.071483,18.3954268 73.7507623,22.3879982 73.2408524,26.5854804 L63.0471587,26.5854804 Z M70.1822938,24.5527661 C70.0723839,22.6020161 68.7588704,20.8334089 66.6967082,20.8334089 C64.571483,20.8334089 63.1228344,22.4635875 63.0471587,24.5527661 L70.1822938,24.5527661 Z M75.5762578,18.7771982 L78.4717533,18.7771982 L78.4717533,20.8326804 L78.5276091,20.8855018 C79.4429245,19.3463946 81.0240055,18.3956089 82.8465281,18.3956089 C85.856438,18.3956089 87.7528344,20.0276089 87.7528344,23.1686625 L87.7528344,32.7949125 L84.6969785,32.7949125 L84.6969785,23.9810196 C84.6438254,21.7880196 83.7843659,20.8326804 81.9843659,20.8326804 C79.9483299,20.8326804 78.6348164,22.4628589 78.6348164,24.5310911 L78.6348164,32.7949125 L75.5762578,32.7949125 L75.5762578,18.7771982 Z M89.5776091,18.7771982 L91.8911227,18.7771982 L91.8911227,14.5687875 L94.9487803,14.5687875 L94.9487803,18.7771982 L97.7091407,18.7771982 L97.7091407,21.0813054 L94.9487803,21.0813054 L94.9487803,28.5691982 C94.9487803,29.8405554 95.0505821,30.4926268 96.4181497,30.4926268 C96.8532848,30.4926268 97.2776091,30.4926268 97.7091407,30.3842518 L97.7091407,32.7703232 C97.0361677,32.8258768 96.3929245,32.9351625 95.7217533,32.9351625 C92.5289605,32.9351625 91.9442758,31.6811089 91.8911227,29.3524125 L91.8911227,21.0813054 L89.5776091,21.0813054 L89.5776091,18.7771982 Z M124.74896,10.0264179 C125.274186,13.363275 124.190402,16.5835607 122.066979,18.9159 C122.154366,18.7965964 122.229141,18.6690964 122.312024,18.54615 C121.054366,20.0970964 119.271483,21.1972393 117.17869,21.5141679 C112.577789,22.2126857 108.243555,18.8976857 107.49851,14.1118821 C106.756168,9.32972143 109.8886,4.87723929 114.489501,4.18145357 C116.407519,3.89093571 118.274186,4.3044 119.857069,5.2224 C117.979591,3.52300714 115.611123,2.62868571 112.996708,3.03941786 C108.035447,3.8199 104.720132,8.83793571 105.581393,14.2402929 C106.229141,18.2756679 109.021033,21.3848464 112.456168,22.3793464 C107.843555,21.7427571 103.994906,18.1973464 103.23815,13.4170071 C102.297609,7.53834643 106.351663,2.02306071 112.293105,1.08775714 C118.236348,0.158828571 123.807519,4.15959643 124.74896,10.0264179 Z M115.67869,20.4513643 C119.10842,20.0415429 121.543555,16.7556857 121.111123,13.1264893 C120.675988,9.49273929 117.547159,6.88536429 114.115627,7.29245357 C110.675988,7.70865 108.246258,10.9908643 108.677789,14.6237036 C108.743555,15.1728643 108.877789,15.6947036 109.05797,16.1901321 C109.050762,16.1473286 109.032744,16.1072571 109.025537,16.0644536 C109.582294,17.6673107 111.223735,18.5762036 112.834546,18.1618286 C114.562474,17.7119357 115.603015,15.8832214 115.162474,14.0745429 C114.721033,12.2740607 112.964276,11.1757393 111.235447,11.6274536 C110.744456,11.7558643 110.319231,11.9999357 109.95887,12.3132214 C111.352564,10.4799536 113.839951,9.95447143 115.833645,11.2094357 C118.024636,12.5864357 118.757069,15.5580964 117.485897,17.8485429 C116.541753,19.5497571 114.756168,20.3930786 113.003915,20.1572036 C113.842654,20.4495429 114.74806,20.5652036 115.67869,20.4513643 Z M127.646438,-9.10714285e-05 C129.169861,-9.10714285e-05 130.371663,1.19749821 130.371663,2.7202125 C130.371663,4.27662321 129.169861,5.4742125 127.630222,5.4742125 C126.089681,5.4742125 124.871663,4.27662321 124.871663,2.7202125 C124.871663,1.19749821 126.089681,-9.10714285e-05 127.630222,-9.10714285e-05 L127.646438,-9.10714285e-05 Z M127.613105,0.478944643 C126.395087,0.478944643 125.464456,1.48801607 125.464456,2.7202125 C125.464456,3.98610536 126.395087,4.97787321 127.646438,4.97787321 C128.865357,4.99517679 129.762654,3.98610536 129.762654,2.73660536 C129.762654,1.48801607 128.865357,0.478944643 127.630222,0.478944643 L127.613105,0.478944643 Z M127.139231,4.22562321 L126.614906,4.22562321 L126.614906,1.3687125 C126.902294,1.31680179 127.206798,1.28310536 127.595988,1.28310536 C128.069861,1.28310536 128.306798,1.3687125 128.493285,1.50531964 C128.661753,1.62553393 128.780672,1.84774821 128.780672,2.10456964 C128.780672,2.46339107 128.527519,2.68560536 128.222114,2.78851607 L128.222114,2.82312321 C128.476168,2.92512321 128.611303,3.14824821 128.695988,3.50706964 C128.780672,3.95149821 128.831123,4.1227125 128.899591,4.22562321 L128.35815,4.22562321 C128.273465,4.1227125 128.205897,3.86589107 128.137429,3.4724625 C128.069861,3.16464107 127.884276,3.02803393 127.47797,3.02803393 L127.139231,3.02803393 L127.139231,4.22562321 Z M127.139231,2.61730179 L127.495087,2.61730179 C127.884276,2.61730179 128.222114,2.49799821 128.222114,2.15556964 C128.222114,1.88144464 128.053645,1.6938375 127.545537,1.6938375 C127.342834,1.6938375 127.223915,1.71023036 127.139231,1.72753393 L127.139231,2.61730179 Z" id="path-3"></path>
    </defs>
    <g id="Nav/Primary" stroke="none" stroke-width="1" fill="none" fill-rule="evenodd" transform="translate(-54.000000, -60.000000)">
        <g id="Logo/Full-Color" transform="translate(54.000000, 60.000000)">
            <rect id="Bounding-Box" x="0" y="0" width="200" height="51"></rect>
            <g id="↳-🎨Digital-Color" stroke-width="1" fill-rule="evenodd" transform="translate(0.000000, 13.304348)">
                <mask id="mask-2" fill="white">
                    <use xlink:href="#path-1"></use>
                </mask>
                <use id="Mask" fill="#7E8083" xlink:href="#path-1"></use>
                <g id="Mixin/Fill/Black---Disabled" mask="url(#mask-2)" opacity="0.25">
                    <g transform="translate(0.000000, -13.304348)" id="Mixin/Fill/Black">
                        <g>
                            <rect id="Rectangle" fill="#0B1724" x="0" y="0" width="201" height="51"></rect>
                        </g>
                    </g>
                </g>
            </g>
            <g id="↳-🎨Element-Color" stroke-width="1" fill-rule="evenodd" transform="translate(69.230769, 0.000000)">
                <mask id="mask-4" fill="white">
                    <use xlink:href="#path-3"></use>
                </mask>
                <use id="Mask" fill="#7E8083" xlink:href="#path-3"></use>
                <g id="Mixin/Fill/Active" mask="url(#mask-4)" fill="#284E7B">
                    <g transform="translate(-69.230769, 0.000000)" id="Box">
                        <rect x="0" y="0" width="201" height="51"></rect>
                    </g>
                </g>
            </g>
        </g>
    </g>
</svg>