<?xml version="1.0" encoding="utf-8"?>
<!-- Generator: Adobe Illustrator 17.0.0, SVG Export Plug-In . SVG Version: 6.00 Build 0)  -->
<!DOCTYPE svg PUBLIC "-//W3C//DTD SVG 1.1//EN" "http://www.w3.org/Graphics/SVG/1.1/DTD/svg11.dtd">
<svg version="1.1" id="Layer_1" xmlns="http://www.w3.org/2000/svg" xmlns:xlink="http://www.w3.org/1999/xlink" x="0px" y="0px"
	 width="1417.675px" height="269.763px" viewBox="0 573.779 1417.675 269.763" enable-background="new 0 573.779 1417.675 269.763"
	 xml:space="preserve">
<path fill="#808285" d="M90.513,804.142H79.509v-18.812h-0.355c-5.324,12.778-20.587,21.652-35.14,21.652
	C14.198,806.981,0,782.845,0,754.804c0-27.686,14.198-51.823,44.014-51.823c14.553,0,29.106,7.454,34.075,21.652h0.355v-56.437
	h12.068V804.142L90.513,804.142z M44.014,797.043c25.556,0,34.43-21.652,34.43-41.884c0-20.232-8.874-41.884-34.43-41.884
	c-22.717,0-32.301,21.652-32.301,41.884C12.068,775.391,21.297,797.043,44.014,797.043z M113.584,668.195h12.068v19.167h-12.068
	V668.195z M113.584,705.82h12.068v98.322h-12.068V705.82z M231.783,795.978c0,29.461-11.358,47.563-43.659,47.563
	c-19.522,0-39.045-8.874-40.819-29.816h12.068c2.84,14.553,15.263,19.522,28.751,19.522c22.007,0,31.591-13.133,31.591-37.27V782.49
	h-0.355c-5.679,12.068-17.038,20.232-31.236,20.232c-31.236,0-44.369-22.362-44.369-50.403c0-26.976,15.973-49.693,44.369-49.693
	c14.198,0,26.621,8.874,31.236,19.877h0.355v-17.038h12.068V795.978L231.783,795.978z M219.715,753.739
	c0-19.167-8.874-40.819-31.591-40.819s-32.301,20.587-32.301,40.819c0,19.877,10.294,39.045,32.301,39.045
	C209.066,792.783,219.715,773.971,219.715,753.739z M254.855,668.195h12.068v19.167h-12.068V668.195z M254.855,705.82h12.068v98.322
	h-12.068V705.82z M309.162,705.82h19.877v9.939h-19.877v66.376c0,7.809,1.065,12.423,9.584,13.133c3.55,0,6.744,0,10.294-0.71
	v10.294c-3.55,0-7.099,0.355-10.649,0.355c-15.973,0-21.652-5.324-21.297-22.007v-67.086h-17.038v-9.939h17.038v-29.461h12.068
	V705.82z M345.367,735.991c1.065-23.072,17.393-33.01,39.755-33.01c17.393,0,36.205,5.324,36.205,31.591v52.178
	c0,4.614,2.485,7.099,7.099,7.099c1.42,0,2.84-0.355,3.904-0.71v10.294c-2.485,0.71-4.614,0.71-7.809,0.71
	c-12.068,0-14.198-6.744-14.198-17.038h-0.355c-8.519,12.778-17.038,19.877-35.85,19.877c-18.103,0-33.01-8.874-33.01-28.751
	c0-27.686,26.976-28.396,52.888-31.591c9.939-1.065,15.263-2.485,15.263-13.488c0-16.328-11.713-20.232-25.911-20.232
	c-14.908,0-25.911,6.744-26.266,22.717L345.367,735.991L345.367,735.991z M409.259,750.544h-0.355
	c-1.42,2.84-6.744,3.904-9.939,4.259c-20.587,3.549-45.789,3.549-45.789,22.717c0,12.068,10.649,19.522,22.007,19.522
	c18.457,0,34.43-11.713,34.43-30.881v-15.618H409.259z M445.464,668.195h12.068v135.946h-12.068
	C445.464,804.142,445.464,668.195,445.464,668.195z"/>
<path fill="#002E63" d="M515.744,760.483c0,15.263,8.519,29.106,26.621,29.106c12.423,0,20.232-5.324,24.137-16.328h20.587
	c-4.614,21.652-23.072,33.365-44.724,33.365c-30.881,0-48.273-21.652-48.273-51.823c0-28.041,18.103-52.178,47.563-52.178
	c31.236,0,50.048,28.041,46.499,57.502L515.744,760.483L515.744,760.483z M566.502,746.285c-0.71-13.843-9.939-26.266-24.847-26.266
	c-14.908,0-25.202,11.358-25.911,26.266H566.502z M605.192,668.195h21.652v135.946h-21.652V668.195z M667.663,760.483
	c0,15.263,8.519,29.106,26.621,29.106c12.423,0,20.232-5.324,24.137-16.328h20.587c-4.969,21.652-23.072,33.365-44.724,33.365
	c-30.881,0-48.273-21.652-48.273-51.823c0-28.041,18.103-52.178,47.563-52.178c31.236,0,50.048,28.041,46.499,57.502
	L667.663,760.483L667.663,760.483z M718.421,746.285c-0.71-13.843-9.939-26.266-24.847-26.266
	c-14.908,0-25.202,11.358-25.911,26.266H718.421z M756.401,705.82h20.587v13.488h0.71c6.389-9.584,14.553-16.328,30.171-16.328
	c12.068,0,23.427,5.324,27.686,16.328c7.099-9.939,16.683-16.328,30.881-16.328c20.942,0,33.01,9.229,33.01,33.365v68.151h-21.652
	V746.64c0-15.618-1.065-26.621-18.103-26.621c-14.553,0-20.942,9.939-20.942,26.266v57.857h-21.652v-63.181
	c0-13.488-4.259-20.942-17.393-20.942c-11.358,0-21.652,9.229-21.652,25.557v58.567h-21.652L756.401,705.82L756.401,705.82z
	 M939.201,760.483c0,15.263,8.519,29.106,26.621,29.106c12.423,0,20.232-5.324,24.137-16.328h20.587
	c-4.969,21.652-23.072,33.365-44.724,33.365c-30.881,0-48.273-21.652-48.273-51.823c0-28.041,18.458-52.178,47.563-52.178
	c31.236,0,50.048,28.041,46.499,57.502L939.201,760.483L939.201,760.483z M989.959,746.285
	c-0.71-13.843-10.294-26.266-24.847-26.266c-15.263,0-25.202,11.358-25.911,26.266H989.959z M1028.294,705.82h20.587v14.553
	l0.355,0.355c6.389-10.648,17.748-17.393,30.526-17.393c21.297,0,34.785,11.358,34.785,33.365v67.796h-21.652V742.38
	c-0.355-15.263-6.389-22.007-19.167-22.007c-14.553,0-23.782,11.358-23.782,25.911v58.212h-21.652L1028.294,705.82L1028.294,705.82z
	 M1127.68,705.82h16.328v-29.461h21.652v29.461h19.522v16.328h-19.522v52.533c0,8.874,0.71,13.488,10.294,13.488
	c3.195,0,6.034,0,9.229-0.71v16.683c-4.969,0.355-9.229,1.065-14.198,1.065c-22.717,0-26.976-8.874-27.331-25.202v-58.212h-16.328
	L1127.68,705.82L1127.68,705.82L1127.68,705.82z"/>
<path fill="#002E63" d="M1377.211,644.059c-6.744-41.174-46.144-69.215-88.383-62.826c-42.239,6.389-70.99,45.434-64.246,86.608
	c5.324,33.72,32.656,58.567,65.311,62.826c-24.492-7.099-44.369-28.751-48.983-57.147c-5.679-37.625,17.748-72.765,52.888-78.444
	c18.458-2.84,35.495,3.549,48.628,15.263c-11.359-6.389-24.492-9.229-37.98-7.454c-32.656,4.969-55.017,36.205-49.693,69.57
	c5.324,33.72,36.205,56.792,68.861,51.823c14.908-2.13,27.686-9.939,36.56-20.942c-0.71,0.71-1.065,1.775-1.775,2.485
	C1373.306,690.202,1381.115,667.486,1377.211,644.059z M1312.964,717.534c-6.744,0.71-13.133,0-19.167-2.13
	c12.423,1.775,25.202-4.259,31.946-16.328c8.874-15.973,3.905-36.915-11.713-46.499c-14.198-8.874-31.946-5.324-41.884,7.809
	c2.485-2.13,5.679-3.904,8.874-4.969c12.423-3.195,24.847,4.614,28.041,17.038c3.195,12.778-4.259,25.556-16.683,28.751
	c-11.358,2.84-23.072-3.549-26.976-14.553c0,0.355,0,0.71,0.355,0.71c-1.42-3.549-2.13-7.099-2.84-11.003
	c-3.194-25.556,14.198-48.628,38.69-51.468s46.499,15.618,49.693,40.819C1354.494,691.622,1337.456,714.694,1312.964,717.534z"/>
<path fill="#002E63" d="M1398.153,573.779c10.649,0,19.522,8.519,19.522,19.167c0,11.003-8.519,19.167-19.522,19.167
	c-11.003,0-19.522-8.519-19.522-19.167C1378.275,582.297,1386.794,573.779,1398.153,573.779L1398.153,573.779z M1397.798,576.973
	c-8.519,0-15.263,7.099-15.263,15.618c0,8.874,6.744,15.973,15.618,15.973c8.519,0,14.908-7.099,14.908-15.618
	C1413.061,584.427,1406.671,577.328,1397.798,576.973L1397.798,576.973L1397.798,576.973z M1394.248,603.594h-3.55v-20.232
	c2.13-0.355,4.26-0.71,7.099-0.71c3.55,0,4.969,0.71,6.389,1.42c1.065,0.71,2.13,2.485,2.13,4.259c0,2.485-1.775,4.259-3.904,4.614
	v0.355c1.775,0.71,2.84,2.13,3.549,4.614c0.71,3.195,1.065,4.259,1.42,4.969h-3.904c-0.71-0.71-1.065-2.485-1.42-5.324
	c-0.355-2.13-1.775-3.195-4.614-3.195h-2.485L1394.248,603.594L1394.248,603.594z M1394.248,592.236h2.485
	c2.84,0,5.324-0.71,5.324-3.195c0-1.775-1.065-3.195-4.969-3.195c-1.42,0-2.13,0-2.839,0.355L1394.248,592.236L1394.248,592.236z"/>
</svg>
