<?xml version="1.0" encoding="utf-8"?>
<!-- Generator: Adobe Illustrator 17.0.0, SVG Export Plug-In . SVG Version: 6.00 Build 0)  -->
<!DOCTYPE svg PUBLIC "-//W3C//DTD SVG 1.1//EN" "http://www.w3.org/Graphics/SVG/1.1/DTD/svg11.dtd">
<svg version="1.1" id="Слой_1" xmlns="http://www.w3.org/2000/svg" xmlns:xlink="http://www.w3.org/1999/xlink" x="0px" y="0px"
	 width="278px" height="194px" viewBox="0 0 278 194" enable-background="new 0 0 278 194" xml:space="preserve">
<g>
	<rect fill="#FFFFFF" width="278" height="194"/>
	<g>
		<g>
			<path fill="none" stroke="#E2924F" stroke-linecap="round" stroke-linejoin="round" stroke-miterlimit="10" d="M105.937,90.885
				c-2.632,0.777-5.419,1.194-8.303,1.194c-16.176,0-29.289-13.113-29.289-29.289s13.113-29.289,29.289-29.289
				c15.004,0,27.374,11.283,29.086,25.827"/>
			<g>
				<path fill="none" stroke="#E2924F" stroke-linecap="round" stroke-linejoin="round" stroke-miterlimit="10" d="M119.512,43.315
					c-5.364,3.746-13.178,6.104-21.878,6.104S81.12,47.06,75.756,43.314"/>
				<path fill="none" stroke="#E2924F" stroke-linecap="round" stroke-linejoin="round" stroke-miterlimit="10" d="M75.755,82.261
					c5.364-3.746,13.178-6.104,21.878-6.104c2.884,0,5.671,0.259,8.304,0.743"/>
				<path fill="none" stroke="#E2924F" stroke-linecap="round" stroke-linejoin="round" stroke-miterlimit="10" d="M98.274,92.079
					c-9.617,0-17.412-13.113-17.412-29.289s7.796-29.289,17.412-29.289"/>
				<path fill="none" stroke="#E2924F" stroke-linecap="round" stroke-linejoin="round" stroke-miterlimit="10" d="M105.938,88.16
					c-2.561,2.493-5.535,3.919-8.707,3.919"/>
				<path fill="none" stroke="#E2924F" stroke-linecap="round" stroke-linejoin="round" stroke-miterlimit="10" d="M97.231,33.502
					c8.92,0,16.273,11.282,17.292,25.825"/>
				
					<line fill="none" stroke="#E2924F" stroke-linecap="round" stroke-linejoin="round" stroke-miterlimit="10" x1="68.345" y1="62.789" x2="106.599" y2="62.789"/>
				
					<line fill="none" stroke="#E2924F" stroke-linecap="round" stroke-linejoin="round" stroke-miterlimit="10" x1="97.634" y1="92.078" x2="97.634" y2="33.501"/>
			</g>
		</g>
		<circle fill="none" stroke="#45557A" stroke-width="2" stroke-miterlimit="10" cx="183.424" cy="34.665" r="23.264"/>
		<circle fill="none" stroke="#45557A" stroke-miterlimit="10" cx="232.493" cy="83.566" r="28.774"/>
		<line fill="none" stroke="#45557A" stroke-miterlimit="10" x1="212.408" y1="63.07" x2="199.991" y2="50.654"/>
		<line fill="none" stroke="#45557A" stroke-miterlimit="10" x1="204.248" y1="84.39" x2="170.593" y2="84.39"/>
		<g>
			<path fill="none" stroke="#6F8CBF" stroke-linecap="round" stroke-linejoin="round" stroke-miterlimit="10" d="M40.001,69.432
				c-6.044,0-10.944,4.899-10.944,10.945c0,6.043,10.944,22.621,10.944,22.621S50.947,86.42,50.947,80.377
				C50.947,74.332,46.047,69.432,40.001,69.432L40.001,69.432z"/>
			<path fill="none" stroke="#6F8CBF" stroke-linecap="round" stroke-linejoin="round" stroke-miterlimit="10" d="M40.002,73.137
				c-3.993,0-7.241,3.248-7.241,7.241c0,3.993,3.248,7.241,7.241,7.241s7.242-3.248,7.242-7.241S43.995,73.137,40.002,73.137z"/>
		</g>
		<circle fill="none" stroke="#45557A" stroke-width="2" stroke-miterlimit="10" cx="61.534" cy="153.82" r="28.774"/>
		<circle fill="none" stroke="#45557A" stroke-miterlimit="10" cx="40.002" cy="86.186" r="23.264"/>
		<line fill="none" stroke="#45557A" stroke-miterlimit="10" x1="52.911" y1="126.37" x2="47.121" y2="108.337"/>
		<line fill="none" stroke="#45557A" stroke-miterlimit="10" x1="88.688" y1="145.047" x2="105.967" y2="139.12"/>
		<path fill="#45557A" d="M107.593,146.645"/>
		<g>
			<path fill="none" stroke="#45557A" stroke-miterlimit="10" d="M127.17,59.291h-13.543h-1.218h-0.274
				c-2.359,0-4.388,1.414-5.425,3.463c-0.193,0.381-0.348,0.782-0.466,1.203c-0.162,0.579-0.276,1.179-0.276,1.813v10.791v1.215
				v8.267v2.084v2.95v1.242v54.327c0,3.569,2.767,6.473,6.168,6.473h52.295c1.005,0,1.975-0.26,2.851-0.742"/>
			<path fill="none" stroke="#45557A" stroke-miterlimit="10" d="M170.593,102.029V65.77c0-3.573-2.765-6.479-6.163-6.479h-37.26"/>
			<path fill="none" stroke="#45557A" stroke-miterlimit="10" d="M166.615,97.794V67.43h-56.667v22.287v1.311v49.938l0.811,0.001
				c5.13,0.007,16.127,0.01,27.187,0.01c3.556,0,7.115,0,10.49-0.001"/>
			<line fill="none" stroke="#45557A" stroke-miterlimit="10" x1="133.57" y1="63.951" x2="142.993" y2="63.951"/>
			<line fill="none" stroke="#45557A" stroke-miterlimit="10" x1="133.57" y1="146.645" x2="142.993" y2="146.645"/>
		</g>
		<path fill="none" stroke="#E2924F" stroke-width="2" stroke-linecap="round" stroke-linejoin="round" stroke-miterlimit="10" d="
			M149.884,130.756c-2.605-0.768-5.282-0.983-7.453-0.197c-2.105,0.761-3.538,2.342-4.259,4.698
			c-0.415,1.355,1.148,1.874,3.737,2.734c2.606,0.866,6.547,2.175,10.535,4.775c1.227,0.798,2.469,1.793,3.765,2.856
			c0.222,0.182,0.442,0.362,0.667,0.547c0.334,0.276,0.67,0.551,1.006,0.825c3.362,2.743,6.819,5.297,10.309,4.906
			c4.649-0.524,6.585,0.329,7.866,1.233c0.255,0.181,0.632,0.509,1.08,0.925c0.356,0.332,0.758,0.72,1.184,1.143
			c1.716,1.7,3.812,3.924,4.793,4.985l0.575,0.622l16.795-16.853l-6.83-6.837c-1.001-1.358-1.696-2.825-2.067-4.363l-0.307-1.269
			c-1.97-8.193-3.604-11.349-14.381-23.294l-9.991-9.991c-1.711-1.711-4.485-1.711-6.196,0s-1.711,4.485,0,6.196l7.822,7.822
			l-1.153-1.153l-7.822-7.822c-1.711-1.711-4.485-1.711-6.196,0s-1.711,4.485,0,6.196l8.975,8.975l-0.267-0.267l-9.991-9.991
			c-1.711-1.711-4.485-1.711-6.196,0s-1.711,4.485,0,6.196l9.769,9.769l0.445,0.445l-25.294-25.294
			c-1.711-1.711-4.485-1.711-6.196,0s-1.711,4.485,0,6.196l30.868,30.868l0.181,0.18"/>
		<g>
			<circle fill="none" stroke="#6F8CBF" stroke-linecap="round" stroke-miterlimit="10" cx="232.346" cy="83.704" r="20.499"/>
			<circle fill="none" stroke="#6F8CBF" stroke-linecap="round" stroke-miterlimit="10" cx="232.346" cy="83.704" r="3.075"/>
			
				<line fill="none" stroke="#6F8CBF" stroke-linejoin="round" stroke-miterlimit="10" x1="232.346" y1="98.054" x2="232.346" y2="104.204"/>
			
				<line fill="none" stroke="#6F8CBF" stroke-linejoin="round" stroke-miterlimit="10" x1="232.346" y1="62.731" x2="232.346" y2="69.355"/>
			
				<line fill="none" stroke="#6F8CBF" stroke-linejoin="round" stroke-miterlimit="10" x1="246.692" y1="83.467" x2="253.082" y2="83.467"/>
			
				<line fill="none" stroke="#6F8CBF" stroke-linejoin="round" stroke-miterlimit="10" x1="211.61" y1="83.467" x2="217.996" y2="83.467"/>
			
				<line fill="none" stroke="#6F8CBF" stroke-linejoin="round" stroke-miterlimit="10" x1="246.445" y1="75.326" x2="250.301" y2="73.099"/>
			
				<line fill="none" stroke="#6F8CBF" stroke-linejoin="round" stroke-miterlimit="10" x1="214.385" y1="93.835" x2="217.996" y2="91.751"/>
			
				<line fill="none" stroke="#6F8CBF" stroke-linejoin="round" stroke-miterlimit="10" x1="240.442" y1="69.44" x2="242.711" y2="65.51"/>
			
				<line fill="none" stroke="#6F8CBF" stroke-linejoin="round" stroke-miterlimit="10" x1="221.975" y1="101.425" x2="224.041" y2="97.847"/>
			
				<line fill="none" stroke="#6F8CBF" stroke-linejoin="round" stroke-miterlimit="10" x1="224.244" y1="69.439" x2="221.975" y2="65.51"/>
			
				<line fill="none" stroke="#6F8CBF" stroke-linejoin="round" stroke-miterlimit="10" x1="242.711" y1="101.425" x2="240.646" y2="97.849"/>
			
				<line fill="none" stroke="#6F8CBF" stroke-linejoin="round" stroke-miterlimit="10" x1="218.246" y1="75.328" x2="214.385" y2="73.099"/>
			
				<line fill="none" stroke="#6F8CBF" stroke-linejoin="round" stroke-miterlimit="10" x1="250.301" y1="93.835" x2="246.694" y2="91.753"/>
			
				<line fill="none" stroke="#6F8CBF" stroke-linecap="round" stroke-miterlimit="10" x1="240.646" y1="90.299" x2="234.752" y2="85.616"/>
			
				<line fill="none" stroke="#6F8CBF" stroke-linecap="round" stroke-miterlimit="10" x1="237.122" y1="70.253" x2="233.373" y2="80.81"/>
		</g>
		<g>
			<path fill="none" stroke="#6F8CBF" stroke-linecap="round" stroke-miterlimit="10" d="M63.802,156.467
				c0-0.67,0.092-1.318,0.265-1.933c0.843-3.004,3.601-5.206,6.874-5.206c3.943,0,7.139,3.196,7.139,7.139s-3.196,7.139-7.139,7.139
				H49.355c-3.943,0-7.139-3.196-7.139-7.139s3.196-7.139,7.139-7.139c3.273,0,6.031,2.202,6.874,5.206"/>
			<path fill="none" stroke="#6F8CBF" stroke-linecap="round" stroke-miterlimit="10" d="M49.323,149.328
				c1.352-4.133,5.24-7.118,9.824-7.118c4.682,0,8.637,3.114,9.907,7.383"/>
			<path fill="none" stroke="#6F8CBF" stroke-linecap="round" stroke-miterlimit="10" d="M65.547,144.428
				c1-0.68,2.207-1.078,3.508-1.078c3.448,0,6.243,2.795,6.243,6.243c0,0.389-0.036,0.77-0.104,1.14"/>
			<g>
				
					<line fill="none" stroke="#6F8CBF" stroke-linecap="round" stroke-miterlimit="10" x1="69.706" y1="136.516" x2="69.706" y2="141.047"/>
				
					<line fill="none" stroke="#6F8CBF" stroke-linecap="round" stroke-miterlimit="10" x1="77.684" y1="149.066" x2="82.256" y2="149.066"/>
				
					<line fill="none" stroke="#6F8CBF" stroke-linecap="round" stroke-miterlimit="10" x1="78.58" y1="140.192" x2="75.377" y2="143.395"/>
				
					<line fill="none" stroke="#6F8CBF" stroke-linecap="round" stroke-miterlimit="10" x1="60.832" y1="140.192" x2="64.034" y2="143.394"/>
			</g>
		</g>
		<g>
			<path fill="none" stroke="#6F8CBF" stroke-linecap="round" stroke-miterlimit="10" d="M177.946,33.748
				c-1.56,0-2.652,5.751-2.652,6.26c0,1.393,1.502,2.249,2.579,2.249c0.994,0,2.431-0.801,2.431-2.249
				C180.304,39.946,179.607,33.748,177.946,33.748z"/>
			<path fill="none" stroke="#6F8CBF" stroke-linecap="round" stroke-miterlimit="10" d="M189.235,33.748
				c-1.56,0-2.652,5.751-2.652,6.26c0,1.393,1.502,2.249,2.579,2.249c0.994,0,2.431-0.801,2.431-2.249
				C191.592,39.946,190.896,33.748,189.235,33.748z"/>
			<path fill="none" stroke="#6F8CBF" stroke-linecap="round" stroke-miterlimit="10" d="M185.196,43.447
				c-1.56,0-2.652,5.751-2.652,6.26c0,1.393,1.502,2.249,2.579,2.249c0.993,0,2.431-0.801,2.431-2.249
				C187.554,49.645,186.857,43.447,185.196,43.447z"/>
			<path fill="none" stroke="#6F8CBF" stroke-linecap="round" stroke-miterlimit="10" d="M174.316,36.997h-0.791
				c-3.616,0-6.548-2.931-6.548-6.548s2.931-6.548,6.548-6.548c3.002,0,5.532,2.02,6.305,4.775"/>
			
				<line fill="none" stroke="#6F8CBF" stroke-linecap="round" stroke-miterlimit="10" x1="185.474" y1="36.997" x2="181.492" y2="36.997"/>
			<path fill="none" stroke="#6F8CBF" stroke-linecap="round" stroke-miterlimit="10" d="M186.775,30.449
				c0-0.614,0.085-1.209,0.243-1.773c0.773-2.755,3.303-4.775,6.305-4.775c3.616,0,6.548,2.931,6.548,6.548
				s-2.931,6.548-6.548,6.548h-0.557"/>
			<path fill="none" stroke="#6F8CBF" stroke-linecap="round" stroke-miterlimit="10" d="M173.496,23.901
				c1.24-3.79,4.806-6.528,9.01-6.528c4.294,0,7.921,2.856,9.086,6.771"/>
		</g>
		<g>
			<g>
				<path fill="none" stroke="#45557A" stroke-linecap="round" stroke-miterlimit="10" d="M121.264,99.44
					c0.061-1.101,0.55-2.115,1.373-2.854c0.824-0.738,1.883-1.113,2.986-1.049"/>
			</g>
			<g>
				<path fill="none" stroke="#45557A" stroke-linecap="round" stroke-miterlimit="10" d="M116.672,99.569
					c0.137-2.429,1.209-4.659,3.019-6.277c1.811-1.619,4.144-2.435,6.573-2.305"/>
			</g>
			<g>
				<path fill="none" stroke="#45557A" stroke-linecap="round" stroke-miterlimit="10" d="M112.081,99.698
					c0.206-3.749,1.863-7.194,4.663-9.7c2.8-2.505,6.409-3.769,10.155-3.56"/>
			</g>
		</g>
	</g>
</g>
</svg>
