<?xml version="1.0" encoding="utf-8"?>
<!-- Generator: Adobe Illustrator 17.0.0, SVG Export Plug-In . SVG Version: 6.00 Build 0)  -->
<!DOCTYPE svg PUBLIC "-//W3C//DTD SVG 1.1//EN" "http://www.w3.org/Graphics/SVG/1.1/DTD/svg11.dtd">
<svg version="1.1" id="Слой_1" xmlns="http://www.w3.org/2000/svg" xmlns:xlink="http://www.w3.org/1999/xlink" x="0px" y="0px"
	 width="278px" height="194px" viewBox="0 0 278 194" enable-background="new 0 0 278 194" xml:space="preserve">
<g>
	<g>
		<g>
			<path fill="none" stroke="#6F8CBF" stroke-linecap="round" stroke-linejoin="round" stroke-miterlimit="10" d="M231.578,132.642
				c-4.563,0-8.263,3.699-8.263,8.264c0,4.563,8.263,17.079,8.263,17.079s8.264-12.516,8.264-17.079
				C239.842,136.341,236.142,132.642,231.578,132.642L231.578,132.642z"/>
			<path fill="none" stroke="#6F8CBF" stroke-linecap="round" stroke-linejoin="round" stroke-miterlimit="10" d="M231.578,135.439
				c-3.015,0-5.467,2.452-5.467,5.467c0,3.015,2.453,5.467,5.467,5.467c3.015,0,5.468-2.453,5.468-5.467
				C237.046,137.892,234.593,135.439,231.578,135.439z"/>
		</g>
		<circle fill="none" stroke="#45557A" stroke-miterlimit="10" cx="231.584" cy="145.313" r="17.595"/>
		<circle fill="none" stroke="#45557A" stroke-miterlimit="10" cx="213.933" cy="95.982" r="21.762"/>
		<line fill="none" stroke="#45557A" stroke-miterlimit="10" x1="221.486" y1="116.329" x2="225.981" y2="128.826"/>
		<line fill="none" stroke="#45557A" stroke-miterlimit="10" x1="193.249" y1="102.54" x2="179.307" y2="107.556"/>
		<circle fill="none" stroke="#45557A" stroke-miterlimit="10" cx="142.123" cy="46.123" r="23.264"/>
		<line fill="none" stroke="#45557A" stroke-miterlimit="10" x1="141.754" y1="69.38" x2="141.754" y2="77.503"/>
		<circle fill="none" stroke="#45557A" stroke-width="2" stroke-miterlimit="10" cx="73.618" cy="142.361" r="28.774"/>
		<circle fill="none" stroke="#45557A" stroke-miterlimit="10" cx="52.086" cy="74.728" r="23.264"/>
		<line fill="none" stroke="#45557A" stroke-miterlimit="10" x1="64.995" y1="114.912" x2="59.205" y2="96.878"/>
		<line fill="none" stroke="#45557A" stroke-miterlimit="10" x1="100.771" y1="133.588" x2="107.802" y2="131.177"/>
		<g>
			<g>
				<circle fill="none" stroke="#45557A" stroke-width="2" stroke-miterlimit="10" cx="142.123" cy="115.327" r="37.823"/>
				<circle fill="none" stroke="#45557A" stroke-miterlimit="10" cx="142.123" cy="115.327" r="26.476"/>
				<circle fill="none" stroke="#45557A" stroke-width="0.75" stroke-miterlimit="10" cx="142.123" cy="115.327" r="15.886"/>
				<circle fill="none" stroke="#45557A" stroke-width="0.5" stroke-miterlimit="10" cx="142.123" cy="115.327" r="6.354"/>
			</g>
			<g>
				<polygon fill="none" stroke="#E2924F" stroke-width="2" stroke-miterlimit="10" points="185.423,85.987 171.59,85.533 
					171.137,71.701 187.084,55.754 187.539,69.585 201.37,70.04 				"/>
				
					<line fill="none" stroke="#E2924F" stroke-width="2" stroke-linecap="round" stroke-miterlimit="10" x1="142.092" y1="115.009" x2="189.863" y2="67.238"/>
			</g>
		</g>
		<g>
			<path fill="none" stroke="#6F8CBF" stroke-miterlimit="10" d="M154.512,35.287c-0.216-0.305-0.458-0.593-0.725-0.861
				c-0.28-0.279-0.583-0.528-0.904-0.753c-4.634-3.239-13.258-0.757-18.628,4.613c-5.394,5.393-7.875,14.069-4.568,18.691
				c0.213,0.298,0.448,0.581,0.711,0.844c0.282,0.281,0.588,0.532,0.911,0.757c4.636,3.233,13.254,0.752,18.621-4.617
				C155.315,48.575,157.799,39.914,154.512,35.287z"/>
			<path fill="none" stroke="#6F8CBF" stroke-miterlimit="10" d="M152.301,33.307c-4.915,0.024-10.756,2.613-14.873,6.731
				c-5.219,5.217-7.982,13.201-6.18,18.566"/>
			
				<line fill="none" stroke="#6F8CBF" stroke-linecap="round" stroke-miterlimit="10" x1="132.465" y1="43.228" x2="135.753" y2="45.096"/>
			
				<line fill="none" stroke="#6F8CBF" stroke-linecap="round" stroke-miterlimit="10" x1="134.625" y1="40.404" x2="137.913" y2="42.273"/>
			
				<line fill="none" stroke="#6F8CBF" stroke-linecap="round" stroke-miterlimit="10" x1="137.165" y1="37.797" x2="140.453" y2="39.665"/>
		</g>
		<g>
			<path fill="none" stroke="#6F8CBF" stroke-linecap="round" stroke-miterlimit="10" d="M67.775,77.603
				c0.212-1.333-0.108-4.095-0.441-6.505c0.947-1.639,1.196-2.87,0.739-3.657c-0.382-0.659-1.106-0.762-1.341-0.778
				c-0.058-0.147-0.14-0.256-0.218-0.33c-0.303-0.29-0.732-0.308-0.904-0.302c-4.451-0.863-6.812-1.736-8.225-2.258
				c-2.121-0.785-2.341-0.703-3.353,1.239c-0.297,0.569-0.703,1.348-1.304,2.343c-3.65,6.039-11.481,8.065-11.481,8.065
				s-4.086-0.069-4.861,1.477c-0.308,0.613-0.504,1.068-0.501,1.367c-0.382,0.384-0.568,0.786-0.553,1.197
				c0.022,0.59,0.455,0.936,0.49,0.962c0.092,0.077,2.382,1.874,15.191,2.267c1.64,0.05,3.133,0.072,4.491,0.072
				c9.193,0,12.159-1.003,12.297-1.053l0.224-0.079l0.037-0.234c0.316-2.014,0.239-3.238-0.234-3.74
				C67.81,77.637,67.793,77.619,67.775,77.603z"/>
			<path fill="none" stroke="#6F8CBF" stroke-miterlimit="10" d="M67.786,77.614c-4.97,1.03-11.125,1.64-17.79,1.64
				c-5.104,0-9.909-0.357-14.111-0.987"/>
			<path fill="none" stroke="#6F8CBF" stroke-miterlimit="10" d="M51.749,68.771c0.301,0.126,0.602,0.262,0.9,0.407
				c4.256,2.071,7.198,5.642,8.298,9.498"/>
			<g>
				<path fill="#6F8CBF" d="M52.242,70.631c0.224,0,0.406,0.182,0.406,0.406c0,0.224-0.182,0.406-0.406,0.406
					c-0.224,0-0.406-0.182-0.406-0.406C51.836,70.813,52.017,70.631,52.242,70.631 M52.242,69.631c-0.775,0-1.406,0.631-1.406,1.406
					s0.631,1.406,1.406,1.406s1.406-0.631,1.406-1.406S53.017,69.631,52.242,69.631L52.242,69.631z"/>
			</g>
			<g>
				<path fill="#6F8CBF" d="M52.242,70.631c0.224,0,0.406,0.182,0.406,0.406c0,0.224-0.182,0.406-0.406,0.406
					c-0.224,0-0.406-0.182-0.406-0.406C51.836,70.813,52.017,70.631,52.242,70.631 M52.242,69.631c-0.775,0-1.406,0.631-1.406,1.406
					s0.631,1.406,1.406,1.406s1.406-0.631,1.406-1.406S53.017,69.631,52.242,69.631L52.242,69.631z"/>
			</g>
			<g>
				<path fill="#6F8CBF" d="M54.953,67.582c0.224,0,0.406,0.182,0.406,0.406c0,0.224-0.182,0.406-0.406,0.406
					c-0.224,0-0.406-0.182-0.406-0.406C54.547,67.764,54.729,67.582,54.953,67.582 M54.953,66.582c-0.775,0-1.406,0.631-1.406,1.406
					s0.631,1.406,1.406,1.406s1.406-0.631,1.406-1.406S55.728,66.582,54.953,66.582L54.953,66.582z"/>
			</g>
			<g>
				<path fill="#6F8CBF" d="M54.953,67.582c0.224,0,0.406,0.182,0.406,0.406c0,0.224-0.182,0.406-0.406,0.406
					c-0.224,0-0.406-0.182-0.406-0.406C54.547,67.764,54.729,67.582,54.953,67.582 M54.953,66.582c-0.775,0-1.406,0.631-1.406,1.406
					s0.631,1.406,1.406,1.406s1.406-0.631,1.406-1.406S55.728,66.582,54.953,66.582L54.953,66.582z"/>
			</g>
			<g>
				<path fill="#6F8CBF" d="M50.074,72.629c0.224,0,0.406,0.182,0.406,0.406s-0.182,0.406-0.406,0.406
					c-0.224,0-0.406-0.182-0.406-0.406S49.849,72.629,50.074,72.629 M50.074,71.629c-0.775,0-1.406,0.631-1.406,1.406
					s0.631,1.406,1.406,1.406s1.406-0.631,1.406-1.406S50.849,71.629,50.074,71.629L50.074,71.629z"/>
			</g>
			<g>
				<path fill="#6F8CBF" d="M47.721,74.287c0.224,0,0.406,0.182,0.406,0.406c0,0.224-0.182,0.406-0.406,0.406
					s-0.406-0.182-0.406-0.406C47.315,74.469,47.497,74.287,47.721,74.287 M47.721,73.287c-0.775,0-1.406,0.631-1.406,1.406
					s0.631,1.406,1.406,1.406s1.406-0.631,1.406-1.406S48.497,73.287,47.721,73.287L47.721,73.287z"/>
			</g>
			<g>
				<path fill="#6F8CBF" d="M45.168,75.715c0.224,0,0.406,0.182,0.406,0.406c0,0.224-0.182,0.406-0.406,0.406
					c-0.224,0-0.406-0.182-0.406-0.406C44.762,75.897,44.944,75.715,45.168,75.715 M45.168,74.715c-0.775,0-1.406,0.631-1.406,1.406
					s0.631,1.406,1.406,1.406s1.406-0.631,1.406-1.406S45.944,74.715,45.168,74.715L45.168,74.715z"/>
			</g>
			<g>
				<path fill="#6F8CBF" d="M54.953,67.582c0.224,0,0.406,0.182,0.406,0.406c0,0.224-0.182,0.406-0.406,0.406
					c-0.224,0-0.406-0.182-0.406-0.406C54.547,67.764,54.729,67.582,54.953,67.582 M54.953,66.582c-0.775,0-1.406,0.631-1.406,1.406
					s0.631,1.406,1.406,1.406s1.406-0.631,1.406-1.406S55.728,66.582,54.953,66.582L54.953,66.582z"/>
			</g>
		</g>
		<g>
			<polygon fill="none" stroke="#6F8CBF" stroke-linecap="round" stroke-linejoin="round" stroke-miterlimit="10" points="
				220.515,90.077 208.72,90.077 203.93,97.767 214.064,97.767 			"/>
			<polyline fill="none" stroke="#6F8CBF" stroke-linecap="round" stroke-miterlimit="10" points="223.219,87.511 219.698,87.511 
				223.936,98.083 			"/>
			<polyline fill="none" stroke="#6F8CBF" stroke-linecap="round" stroke-miterlimit="10" points="208.717,88.298 208.717,90.08 
				214.064,97.767 			"/>
			<circle fill="none" stroke="#6F8CBF" stroke-linecap="round" stroke-miterlimit="10" cx="203.93" cy="97.767" r="1.417"/>
			<circle fill="none" stroke="#6F8CBF" stroke-linecap="round" stroke-miterlimit="10" cx="203.93" cy="97.767" r="5.669"/>
			<circle fill="none" stroke="#6F8CBF" stroke-linecap="round" stroke-miterlimit="10" cx="223.936" cy="97.767" r="1.417"/>
			<circle fill="none" stroke="#6F8CBF" stroke-linecap="round" stroke-miterlimit="10" cx="223.936" cy="97.767" r="5.669"/>
			<circle fill="none" stroke="#6F8CBF" stroke-linecap="round" stroke-miterlimit="10" cx="214.064" cy="97.767" r="1.417"/>
			
				<line fill="none" stroke="#6F8CBF" stroke-linecap="round" stroke-miterlimit="10" x1="207.304" y1="88.077" x2="211.719" y2="88.077"/>
		</g>
		<path fill="none" stroke="#6F8CBF" stroke-width="0.75" stroke-miterlimit="10" d="M56.817,138.539"/>
		<path fill="none" stroke="#6F8CBF" stroke-width="0.75" stroke-miterlimit="10" d="M70.237,155.707"/>
		<path fill="none" stroke="#6F8CBF" stroke-width="0.75" stroke-miterlimit="10" d="M83.722,138.539"/>
		<path fill="none" stroke="#6F8CBF" stroke-width="0.75" stroke-miterlimit="10" d="M70.302,155.707"/>
		<path fill="none" stroke="#6F8CBF" stroke-miterlimit="10" d="M73.584,161.49l-16.027-20.67c-1.141-1.588-1.737-3.436-1.737-5.361
			c0-5.064,4.119-9.183,9.183-9.183c3.946,0,7.318,2.501,8.615,6.002c1.297-3.5,4.669-6.002,8.615-6.002
			c5.064,0,9.183,4.12,9.183,9.183c0,1.924-0.597,3.772-1.725,5.344L73.584,161.49z"/>
	</g>
	<rect x="0" y="0" fill="none" width="278" height="194"/>
</g>
</svg>
