<?xml version="1.0" encoding="UTF-8"?>
<svg width="182px" height="35px" viewBox="0 0 182 35" version="1.1" xmlns="http://www.w3.org/2000/svg" xmlns:xlink="http://www.w3.org/1999/xlink">
    <!-- Generator: Sketch 48.2 (47327) - http://www.bohemiancoding.com/sketch -->
    <title>Logo/Mono</title>
    <desc>Created with Sketch.</desc>
    <defs>
        <path d="M5.66503694,28.6572607 C8.93611802,28.6572607 10.0830459,25.888225 10.0830459,23.2695107 C10.0830459,20.6524393 8.93611802,17.889975 5.66503694,17.889975 C2.73418108,17.889975 1.54052342,20.6524393 1.54052342,23.2695107 C1.54052342,25.888225 2.73418108,28.6572607 5.66503694,28.6572607 Z M11.6243072,29.579725 L10.2060189,29.579725 L10.2060189,27.1860821 L10.1568297,27.1860821 C9.49769459,28.826475 7.49897387,29.9469036 5.66503694,29.9469036 C1.83237928,29.9469036 8.1981982e-05,26.8402607 8.1981982e-05,23.2695107 C8.1981982e-05,19.7004036 1.83237928,16.5921179 5.66503694,16.5921179 C7.5457036,16.5921179 9.3780009,17.5474393 10.0346766,19.3570464 L10.0830459,19.3570464 L10.0830459,12.1202607 L11.6243072,12.1202607 L11.6243072,29.579725 Z M14.578036,29.5793964 L14.578036,16.963075 L16.1143784,16.963075 L16.1143784,29.5793964 L14.578036,29.5793964 Z M14.578036,14.588325 L14.578036,12.1199321 L16.1143784,12.1199321 L16.1143784,14.588325 L14.578036,14.588325 Z M29.7153532,28.5518714 C29.6874793,32.3205857 28.2486955,34.6205857 24.1200829,34.6205857 C21.6056955,34.6205857 19.1167225,33.4911214 18.8970108,30.8066929 L20.4349928,30.8066929 C20.775218,32.6623 22.4107586,33.3227286 24.1200829,33.3227286 C26.9533802,33.3227286 28.1724523,31.6412643 28.1724523,28.5518714 L28.1724523,26.8400143 L28.1216234,26.8400143 C27.4141189,28.3826571 25.9286054,29.4349071 24.1200829,29.4349071 C20.0947676,29.4349071 18.4338126,26.55005 18.4338126,22.9538357 C18.4338126,19.4833 20.4833622,16.5918714 24.1200829,16.5918714 C25.9540198,16.5918714 27.5133171,17.7443357 28.1216234,19.1350143 L28.1724523,19.1350143 L28.1724523,16.9631571 L29.7153532,16.9631571 L29.7153532,28.5518714 Z M28.1724523,23.1222286 C28.1724523,20.6530143 27.0279838,17.8897286 24.1200829,17.8897286 C21.1908667,17.8897286 19.9726144,20.5092643 19.9726144,23.1222286 C19.9726144,25.6694786 21.2884252,28.1345857 24.1200829,28.1345857 C26.7844973,28.1345857 28.1724523,25.6924786 28.1724523,23.1222286 Z M32.6673604,29.5793964 L32.6673604,16.963075 L34.2037027,16.963075 L34.2037027,29.5793964 L32.6673604,29.5793964 Z M32.6673604,14.588325 L32.6673604,12.1199321 L34.2037027,12.1199321 L34.2037027,14.588325 L32.6673604,14.588325 Z M39.6022982,16.9631571 L42.1634153,16.9631571 L42.1634153,18.25855 L39.6022982,18.25855 L39.6022982,26.7693714 C39.6022982,27.7706929 39.7433072,28.3596571 40.8418658,28.4344071 C41.2812892,28.4344071 41.7207126,28.4097643 42.1634153,28.3596571 L42.1634153,29.6838 C41.6977577,29.6838 41.2583342,29.7298 40.7934964,29.7298 C38.7414874,29.7298 38.0339829,29.0463714 38.0618568,26.8909429 L38.0618568,18.25855 L35.8639198,18.25855 L35.8639198,16.9631571 L38.0618568,16.9631571 L38.0618568,13.1698 L39.6022982,13.1698 L39.6022982,16.9631571 Z M44.2405108,20.8254321 C44.3856189,17.8666464 46.4605829,16.5917893 49.3381505,16.5917893 C51.5615018,16.5917893 53.9742315,17.2801464 53.9742315,20.6529321 L53.9742315,27.3541464 C53.9742315,27.9422893 54.2701865,28.2823607 54.8809523,28.2823607 C55.0498351,28.2823607 55.2441324,28.2380036 55.3662856,28.1887179 L55.3662856,29.4873964 C55.0293396,29.5580393 54.7858532,29.5793964 54.367745,29.5793964 C52.8059883,29.5793964 52.5649613,28.7021107 52.5649613,27.3828964 L52.511673,27.3828964 C51.4385288,29.015075 50.3399703,29.9473964 47.9247811,29.9473964 C45.6005919,29.9473964 43.6969703,28.7973964 43.6969703,26.2575393 C43.6969703,22.7097893 47.1434928,22.5857536 50.4621234,22.1931107 C51.7328441,22.0485393 52.4428081,21.8776821 52.4428081,20.4837179 C52.4428081,18.4055036 50.9482766,17.8904679 49.1422135,17.8904679 C47.242691,17.8904679 45.8219432,18.7718607 45.7735739,20.8254321 L44.2405108,20.8254321 Z M52.4428081,22.6818607 L52.3895198,22.6818607 C52.1952225,23.0490393 51.510673,23.1771821 51.096664,23.2461821 C48.4822586,23.7094679 45.2365919,23.6872893 45.2365919,26.1581464 C45.2365919,27.6958607 46.6040514,28.6569321 48.0452946,28.6569321 C50.3891595,28.6569321 52.4608441,27.1643964 52.4428081,24.6951821 L52.4428081,22.6818607 Z M57.0766757,29.5793964 L57.0766757,12.1199321 L58.6146577,12.1199321 L58.6146577,29.5793964 L57.0766757,29.5793964 Z M66.102236,23.9790607 C66.102236,25.9628107 67.1802991,27.7223107 69.5003892,27.7223107 C71.1080559,27.7223107 72.0861009,27.0142393 72.5747135,25.6186321 L75.2112541,25.6186321 C74.6037676,28.3827393 72.2599027,29.927025 69.5003892,29.927025 C65.5431189,29.927025 63.3238667,27.1645607 63.3238667,23.2693464 C63.3238667,19.6772393 65.6677315,16.5919536 69.4241459,16.5919536 C73.405191,16.5919536 75.8433351,20.1930964 75.3809568,23.9790607 L66.102236,23.9790607 Z M72.5976685,22.1456321 C72.5033892,20.3861321 71.3048126,18.7909179 69.4241459,18.7909179 C67.4951099,18.7909179 66.1760198,20.261275 66.102236,22.1456321 L72.5976685,22.1456321 Z M77.5779099,29.5793964 L77.5779099,12.1199321 L80.3611982,12.1199321 L80.3611982,29.5793964 L77.5779099,29.5793964 Z M85.5638568,23.9790607 C85.5638568,25.9628107 86.6370009,27.7223107 88.9546315,27.7223107 C90.5672171,27.7223107 91.5411631,27.0142393 92.0314153,25.6186321 L94.6679559,25.6186321 C94.053091,28.3827393 91.7166045,29.927025 88.9546315,29.927025 C85.0031,29.927025 82.7805685,27.1645607 82.7805685,23.2693464 C82.7805685,19.6772393 85.1236135,16.5919536 88.8800279,16.5919536 C92.8594333,16.5919536 95.3016766,20.1930964 94.8392982,23.9790607 L85.5638568,23.9790607 Z M92.0543703,22.1456321 C91.9592712,20.3861321 90.7606946,18.7909179 88.8800279,18.7909179 C86.9509919,18.7909179 85.6351811,20.261275 85.5638568,22.1456321 L92.0543703,22.1456321 Z M96.9605,16.9362964 L99.5929414,16.9362964 L99.5929414,18.6990821 L99.6716441,18.6990821 C100.502122,17.4496893 101.547392,16.5921179 103.551032,16.5921179 C105.091473,16.5921179 106.532716,17.2525464 107.095113,18.6990821 C108.022329,17.4045107 109.220905,16.5921179 111.050743,16.5921179 C113.711059,16.5921179 115.271995,17.7716893 115.271995,20.8520464 L115.271995,29.579725 L112.491167,29.579725 L112.491167,22.1926179 C112.491167,20.1924393 112.364095,18.7902607 110.194851,18.7902607 C108.314185,18.7902607 107.504203,20.0437607 107.504203,22.1720821 L107.504203,29.579725 L104.728293,29.579725 L104.728293,21.460725 C104.728293,19.7266893 104.189671,18.7902607 102.503302,18.7902607 C101.064518,18.7902607 99.7454279,19.9690107 99.7454279,22.070225 L99.7454279,29.579725 L96.9605,29.579725 L96.9605,16.9362964 Z M120.372914,23.9790607 C120.372914,25.9628107 121.450977,27.7223107 123.766149,27.7223107 C125.371356,27.7223107 126.35432,27.0142393 126.840473,25.6186321 L129.479473,25.6186321 C128.864608,28.3827393 126.525662,29.927025 123.766149,29.927025 C119.812977,29.927025 117.587986,27.1645607 117.587986,23.2693464 C117.587986,19.6772393 119.935131,16.5919536 123.694005,16.5919536 C127.67505,16.5919536 130.113194,20.1930964 129.649176,23.9790607 L120.372914,23.9790607 Z M126.865887,22.1456321 C126.765869,20.3861321 125.570572,18.7909179 123.694005,18.7909179 C121.76005,18.7909179 120.441779,20.261275 120.372914,22.1456321 L126.865887,22.1456321 Z M131.774395,16.9362964 L134.409295,16.9362964 L134.409295,18.7902607 L134.460124,18.8379036 C135.293061,17.4496893 136.731845,16.5921179 138.390341,16.5921179 C141.129359,16.5921179 142.855079,18.0641179 142.855079,20.897225 L142.855079,29.579725 L140.07425,29.579725 L140.07425,21.6299393 C140.025881,19.6519393 139.243773,18.7902607 137.605773,18.7902607 C135.75298,18.7902607 134.557683,20.2606179 134.557683,22.1260821 L134.557683,29.579725 L131.774395,29.579725 L131.774395,16.9362964 Z M144.515624,16.9362964 L146.620922,16.9362964 L146.620922,13.140475 L149.40339,13.140475 L149.40339,16.9362964 L151.915318,16.9362964 L151.915318,19.0145107 L149.40339,19.0145107 L149.40339,25.7682964 C149.40339,26.9150107 149.49603,27.5031536 150.740516,27.5031536 C151.136489,27.5031536 151.522624,27.5031536 151.915318,27.4054036 L151.915318,29.5575464 C151.302913,29.6076536 150.717561,29.706225 150.106795,29.706225 C147.201354,29.706225 146.669291,28.5751179 146.620922,26.474725 L146.620922,19.0145107 L144.515624,19.0145107 L144.515624,16.9362964 Z M176.521554,9.04343571 C176.999509,12.05315 176.013266,14.9577214 174.08095,17.0614 C174.160473,16.9537929 174.228518,16.8387929 174.303941,16.7279 C173.159473,18.1267929 171.53705,19.1190786 169.632608,19.4049357 C165.445788,20.0349714 161.501635,17.0449714 160.823644,12.7283643 C160.148113,8.41504286 162.998626,4.39907857 167.185446,3.77150714 C168.930842,3.50947143 170.629509,3.8824 172.069932,4.7104 C170.361428,3.17761429 168.206122,2.37097143 165.827005,2.74143571 C161.312257,3.4454 158.29532,7.97147143 159.079068,12.8441857 C159.668518,16.4839357 162.20914,19.2882929 165.335113,20.1852929 C161.137635,19.6111143 157.635365,16.4132929 156.946716,12.1016143 C156.090824,6.79929286 159.780014,1.82472143 165.186725,0.981114286 C170.595077,0.143257143 175.664842,3.75179286 176.521554,9.04343571 Z M168.267608,18.4463286 C171.388662,18.0766857 173.604635,15.1129714 173.211122,11.8395786 C172.815149,8.56207857 169.967914,6.21032857 166.845221,6.57750714 C163.715149,6.9529 161.504095,9.91332857 161.896788,13.1900071 C161.956635,13.6853286 162.078788,14.1560071 162.242752,14.6028643 C162.236194,14.5642571 162.219797,14.5281143 162.213239,14.4895071 C162.719887,15.9352214 164.213599,16.7550071 165.679437,16.3812571 C167.251851,15.9754714 168.198743,14.3260429 167.797851,12.6946857 C167.39614,11.0707214 165.797491,10.0800786 164.224257,10.4875071 C163.777455,10.6033286 163.3905,10.8234714 163.062572,11.1060429 C164.330833,9.45250714 166.594356,8.97854286 168.408617,10.1104714 C170.402419,11.3524714 171.068932,14.0327929 169.912167,16.0986857 C169.052995,17.6331143 167.428113,18.3937571 165.833563,18.1810071 C166.596815,18.4446857 167.420734,18.5490071 168.267608,18.4463286 Z M179.158259,-8.21428571e-05 C180.544574,-8.21428571e-05 181.638214,1.08009643 181.638214,2.453525 C181.638214,3.85734643 180.544574,4.937525 179.143502,4.937525 C177.74161,4.937525 176.633214,3.85734643 176.633214,2.453525 C176.633214,1.08009643 177.74161,-8.21428571e-05 179.143502,-8.21428571e-05 L179.158259,-8.21428571e-05 Z M179.127925,0.431989286 C178.019529,0.431989286 177.172655,1.34213214 177.172655,2.453525 C177.172655,3.59531071 178.019529,4.48984643 179.158259,4.48984643 C180.267475,4.50545357 181.084015,3.59531071 181.084015,2.46831071 C181.084015,1.34213214 180.267475,0.431989286 179.143502,0.431989286 L179.127925,0.431989286 Z M178.6967,3.81134643 L178.219565,3.81134643 L178.219565,1.234525 C178.481087,1.18770357 178.758186,1.15731071 179.112349,1.15731071 C179.543574,1.15731071 179.759186,1.234525 179.928889,1.35773929 C180.082195,1.46616786 180.190412,1.66659643 180.190412,1.89823929 C180.190412,2.22188214 179.960042,2.42231071 179.682123,2.51513214 L179.682123,2.54634643 C179.913313,2.63834643 180.036286,2.83959643 180.113349,3.16323929 C180.190412,3.56409643 180.236322,3.718525 180.298628,3.81134643 L179.805916,3.81134643 C179.728853,3.718525 179.667367,3.48688214 179.60506,3.132025 C179.543574,2.85438214 179.374691,2.73116786 179.004952,2.73116786 L178.6967,2.73116786 L178.6967,3.81134643 Z M178.6967,2.36070357 L179.020529,2.36070357 C179.374691,2.36070357 179.682123,2.25309643 179.682123,1.94423929 C179.682123,1.69698929 179.528817,1.527775 179.066439,1.527775 C178.881979,1.527775 178.773763,1.54256071 178.6967,1.55816786 L178.6967,2.36070357 Z" id="path-1"></path>
    </defs>
    <g id="Page-1" stroke="none" stroke-width="1" fill="none" fill-rule="evenodd">
        <g id="Logo/Mono">
            <rect id="Bounding-Box" x="0" y="0" width="182" height="46"></rect>
            <g id="↳-🎨Color" stroke-width="1" fill-rule="evenodd">
                <mask id="mask-2" fill="white">
                    <use xlink:href="#path-1"></use>
                </mask>
                <use id="Mask" fill="#7E8083" xlink:href="#path-1"></use>
                <g id="Mixin/Fill/White" mask="url(#mask-2)" fill="#FFFFFF">
                    <rect id="Box" x="0" y="0" width="183" height="46"></rect>
                </g>
            </g>
        </g>
    </g>
</svg>