<?xml version="1.0" encoding="utf-8"?>
<!-- Generator: Adobe Illustrator 23.0.1, SVG Export Plug-In . SVG Version: 6.00 Build 0)  -->
<svg version="1.1" id="Слой_1" xmlns="http://www.w3.org/2000/svg" xmlns:xlink="http://www.w3.org/1999/xlink" x="0px" y="0px"
	 viewBox="0 0 97 28" style="enable-background:new 0 0 97 28;" xml:space="preserve">
<title>D626D725-A343-4204-ADCF-9F713A1B05CD</title>
<g id="Page-2">
	<g id="Nitreo-Landing-Page" transform="translate(-240.000000, -36.000000)">
		<g id="nitreo-logo-small" transform="translate(240.000000, 36.000000)">
			<path id="nitreo" d="M8.8,13.3c0.8-0.7,1.8-1.1,2.8-1c1.1,0,1.9,0.3,2.4,1c0.5,0.7,0.6,1.6,0.5,2.8l-1.9,11.5H18l2.1-12.4
				c0.4-2.3,0.1-4.1-1-5.4c-1-1.3-2.5-2-4.6-2c-1.5,0-2.7,0.3-3.9,1c-1.1,0.6-2,1.6-2.6,2.7H7.8L8.4,8H3.3L0,27.5h5.4l1.9-11.3
				C7.5,15,8,14,8.8,13.3z M26.7,27.5L30,8h-5.4l-3.3,19.5H26.7z M30,4.7c0.6-0.5,1-1.2,1.1-1.9c0.1-0.7-0.1-1.4-0.6-1.9
				c-0.5-0.5-1.2-0.8-2-0.8c-0.8,0-1.6,0.3-2.1,0.8c-0.6,0.5-1,1.2-1.1,1.9c-0.1,0.7,0.1,1.4,0.6,1.9c0.5,0.5,1.2,0.8,2,0.8
				C28.6,5.5,29.4,5.2,30,4.7z M40.1,8l0.8-4.7h-5.4L34.7,8H32l-0.7,4.1H34l-1.7,10.2c-0.3,1.9,0,3.3,1,4.3s2.5,1.4,4.5,1.3
				c0.6,0,1.2-0.1,1.8-0.2c0.5-0.1,0.9-0.2,1.2-0.3l-0.2-4c-0.1,0-0.3,0.1-0.6,0.1c-0.3,0-0.5,0.1-0.8,0.1c-0.5,0-1-0.1-1.3-0.4
				c-0.3-0.3-0.4-0.8-0.3-1.5l1.6-9.4h3.7L43.8,8H40.1z M48.6,27.5l1.8-11c0.4-2.3,2.4-4.1,4.8-4.1c0.4,0,0.8,0,1.2,0.1
				c0.3,0,0.7,0.1,1,0.2l0.8-4.8c-0.5-0.1-1.1-0.2-1.7-0.2c-1.1,0-2.2,0.3-3.1,0.9c-0.9,0.6-1.7,1.5-2.3,2.8h-0.2L51.6,8h-5.2
				l-3.3,19.5L48.6,27.5L48.6,27.5z M71,26.3c1.7-1.1,2.9-2.5,3.6-4.3l-4.9-0.3c-0.4,0.7-1,1.3-1.7,1.7c-0.8,0.4-1.6,0.6-2.4,0.6
				c-1.4,0-2.4-0.4-3-1.1c-0.7-0.8-0.9-1.9-0.6-3.4l0-0.1h13.3l0.2-1.5c0.4-2.2,0.3-4-0.3-5.5c-0.6-1.5-1.5-2.6-2.7-3.3
				c-1.3-0.7-2.8-1.1-4.5-1.1c-1.9,0-3.6,0.4-5.2,1.3c-1.6,0.8-2.9,2.1-3.9,3.5c-1,1.5-1.7,3.3-2.1,5.3c-0.5,3.1-0.1,5.5,1.4,7.3
				c1.4,1.8,3.6,2.7,6.6,2.7C67.2,27.9,69.3,27.4,71,26.3z M63.5,13.8c0.5-0.6,1.1-1.1,1.7-1.5c0.7-0.4,1.4-0.6,2.2-0.6
				c1.2,0,2.1,0.4,2.7,1.1c0.6,0.8,0.8,1.7,0.6,2.9h-8.1C62.7,15.1,63,14.4,63.5,13.8L63.5,13.8z M90.6,26.7c1.6-0.8,2.9-2,3.9-3.5
				c1-1.5,1.7-3.2,2-5.2c0.3-2,0.2-3.8-0.3-5.3c-0.5-1.5-1.5-2.7-2.8-3.6c-1.3-0.9-2.9-1.3-4.9-1.3c-2,0-3.7,0.4-5.3,1.3
				c-1.6,0.8-2.9,2-3.9,3.5c-1,1.5-1.7,3.2-2,5.2c-0.3,2-0.2,3.8,0.3,5.3c0.5,1.5,1.5,2.7,2.7,3.6c1.3,0.9,2.9,1.3,4.9,1.3
				C87.3,27.9,89.1,27.5,90.6,26.7z M83.1,22.1c-0.5-1.1-0.6-2.5-0.3-4.2c0.3-1.7,0.9-3.1,1.8-4.3s2-1.7,3.4-1.7
				c1.3,0,2.3,0.6,2.7,1.7s0.6,2.5,0.3,4.2c-0.3,1.7-0.9,3.1-1.8,4.3c-0.9,1.1-2,1.7-3.4,1.7C84.5,23.7,83.6,23.2,83.1,22.1z"/>
		</g>
	</g>
</g>
</svg>
