<?xml version="1.0" encoding="UTF-8"?>
<svg width="97px" height="28px" viewBox="0 0 97 28" version="1.1" xmlns="http://www.w3.org/2000/svg" xmlns:xlink="http://www.w3.org/1999/xlink">
    <title>D626D725-A343-4204-ADCF-9F713A1B05CD</title>
    <g id="Page-2" stroke="none" stroke-width="1" fill="none" fill-rule="evenodd">
        <g id="Nitreo-Landing-Page" transform="translate(-240.000000, -36.000000)" fill="#FFFFFF" fill-rule="nonzero">
            <g id="nitreo-logo-small" transform="translate(240.000000, 36.000000)">
                <path d="M8.802625,13.304125 C9.58585976,12.6102062 10.6014065,12.236203 11.647625,12.256375 C12.739875,12.256375 13.5336667,12.5929167 14.029,13.266 C14.5243333,13.9390833 14.674625,14.8724167 14.479875,16.066 L12.562125,27.5215 L17.972625,27.5215 L20.0555,15.10075 C20.4365,12.82325 20.119,11.0304167 19.103,9.72225 C18.087,8.41408333 16.567125,7.75975 14.543375,7.75975 C13.0870417,7.75975 11.7958333,8.08995833 10.66975,8.750375 C9.56260643,9.39105874 8.6564,10.3282196 8.05325,11.45625 L7.83725,11.45625 L8.396125,8.0145 L3.252375,8.0145 L0.001,27.522 L5.39875,27.522 L7.2785,16.24375 C7.49858333,14.9825833 8.006625,14.0027083 8.802625,13.304125 Z M26.717875,27.522 L29.96925,8.0145 L24.558625,8.0145 L21.307375,27.522 L26.717875,27.522 Z M29.96925,4.661625 C30.6044167,4.11995833 30.9642917,3.4765 31.048875,2.73125 C31.1484388,2.02288631 30.9111634,1.30870196 30.4075,0.80075 C29.8951667,0.267416667 29.2368333,0.000731574598 28.4325,0.000731574598 C27.6436628,-0.001904933 26.8807858,0.282435707 26.286125,0.80075 C25.6834061,1.27649136 25.2912571,1.96959612 25.193875,2.73125 C25.0882251,3.43893239 25.323732,4.15486395 25.828875,4.661625 C26.3431545,5.20267857 27.0640436,5.49831134 27.810125,5.474125 C28.6052144,5.4777633 29.3738104,5.18853303 29.96925,4.661625 Z M40.08625,8.0145 L40.86125,3.340875 L35.4505,3.340875 L34.6755,8.0145 L32.021125,8.0145 L31.33525,12.078625 L34.0025,12.078625 L32.326125,22.23875 C31.987375,24.14375 32.3345,25.5640417 33.3675,26.499625 C34.4005,27.4352083 35.9119167,27.8649167 37.90175,27.78875 C38.5120687,27.7820359 39.1202951,27.7161018 39.717875,27.591875 C40.2262083,27.477625 40.632625,27.3739167 40.937125,27.28075 L40.733625,23.25475 C40.5979583,23.27975 40.3989583,23.31575 40.136625,23.36275 C39.8808419,23.4087186 39.6215056,23.4320589 39.361625,23.4325 C38.8199583,23.4325 38.3987083,23.3012917 38.097875,23.038875 C37.7970417,22.7764583 37.7102917,22.2726667 37.837625,21.5275 L39.412625,12.078625 L43.096125,12.078625 L43.76925,8.0145 L40.08625,8.0145 Z M48.552375,27.522 L50.3685,16.4855 C50.768759,14.1409556 52.8036672,12.4282804 55.182125,12.434125 C55.5961951,12.4357904 56.0097546,12.4633861 56.420375,12.51675 C56.7632338,12.5518899 57.1015863,12.6220903 57.430125,12.72625 L58.242625,7.912875 C57.6969613,7.78840456 57.1385186,7.72874224 56.578875,7.735125 C55.4903628,7.73408572 54.4265172,8.05928269 53.524625,8.66875 C52.5805417,9.29108333 51.8290833,10.20775 51.27025,11.41875 L51.067125,11.41875 L51.638625,8.015125 L46.39325,8.015125 L43.141875,27.522625 L48.552375,27.522625 L48.552375,27.522 Z M71.033625,26.277375 C72.7482917,25.1940417 73.95275,23.74625 74.647,21.934 L69.706375,21.60375 C69.3314399,22.3257042 68.7440594,22.9152662 68.0235,23.292875 C67.2679007,23.6814259 66.4281684,23.8777169 65.578625,23.864375 C64.198375,23.864375 63.1823333,23.4855 62.5305,22.72775 C61.8786667,21.97 61.6755417,20.8248333 61.921125,19.29225 L61.946125,19.152625 L75.231125,19.152625 L75.472375,17.666625 C75.844875,15.456875 75.7475,13.6174583 75.18025,12.148375 C74.613,10.6792917 73.6987083,9.58075 72.437375,8.85275 C71.175625,8.12466667 69.6811667,7.7605 67.954,7.7605 C66.0404167,7.7605 64.3046667,8.18383333 62.74675,9.0305 C61.1855936,9.88009361 59.8540749,11.0960518 58.866625,12.573875 C57.837875,14.089625 57.1541667,15.8507083 56.8155,17.857125 C56.2988333,20.9477917 56.7518333,23.3947083 58.1745,25.197875 C59.5971667,27.0010417 61.8113333,27.90275 64.817,27.903 C67.247,27.903 69.3192083,27.361125 71.033625,26.277375 Z M63.496125,13.81875 C63.963442,13.2148441 64.5517565,12.7152153 65.223375,12.351875 C65.8929439,11.9855337 66.6446498,11.7954136 67.407875,11.799375 C68.576375,11.799375 69.4612083,12.1761667 70.062375,12.92975 C70.6635417,13.6833333 70.86675,14.6400833 70.672,15.8 L62.55625,15.8 C62.7143012,15.0765327 63.035797,14.3988218 63.496125,13.81875 L63.496125,13.81875 Z M90.613125,26.652125 C92.1718675,25.821241 93.5022228,24.6195855 94.486875,23.153125 C95.507125,21.6544583 96.1779583,19.9102917 96.499375,17.920625 C96.829625,15.897125 96.7301667,14.1233333 96.201,12.59925 C95.7165423,11.1333562 94.746435,9.87662629 93.451,9.03675 C92.14775,8.18591667 90.505375,7.7605 88.523875,7.7605 C86.559375,7.7605 84.7939583,8.1775 83.227625,9.0115 C81.6672548,9.84000813 80.3363808,11.0420892 79.353875,12.510375 C78.337875,14.0090417 77.669,15.7574583 77.34725,17.755625 C77.017,19.7707917 77.1164583,21.5403333 77.645625,23.06425 C78.1289035,24.5288785 79.0964497,25.7853176 80.389,26.62675 C81.689,27.47775 83.33375,27.903125 85.32325,27.903125 C87.2875,27.903125 89.0507917,27.4860417 90.613125,26.652125 Z M83.132375,22.061 C82.637125,20.9603333 82.5249583,19.57175 82.795875,17.89525 C83.0752917,16.1766667 83.665875,14.7457917 84.567625,13.602625 C85.469375,12.4594583 86.6060833,11.8879583 87.97775,11.888125 C89.3155,11.888125 90.2299583,12.4405833 90.721125,13.5455 C91.2122917,14.6504167 91.3223333,16.0452917 91.05125,17.730125 C90.7633333,19.449125 90.1685417,20.8757917 89.266875,22.010125 C88.3652083,23.1444583 87.2327083,23.71175 85.869375,23.712 C84.5400417,23.712 83.6277083,23.1616667 83.132375,22.061 Z" id="nitreo"></path>
            </g>
        </g>
    </g>
</svg>