<svg width="20" height="20" viewBox="0 0 20 20" fill="none" xmlns="http://www.w3.org/2000/svg">
<g clip-path="url(#clip0_1240_4623)">
<path d="M19.6652 9.99998C19.6652 15.544 15.0018 19.9956 9.3825 19.6476C4.56784 19.3493 0.649171 15.4306 0.351171 10.616C0.00283766 4.99665 4.4545 0.333313 9.9985 0.333313C11.5212 0.333313 12.9628 0.684646 14.2452 1.31365C14.5888 1.48231 14.7148 1.91031 14.5252 2.24298L14.5238 2.24531C14.3485 2.55265 13.9658 2.66698 13.6485 2.51065C12.3758 1.88398 10.9208 1.57898 9.38517 1.68865C5.35184 1.97631 2.05784 5.21131 1.69884 9.23898C1.25217 14.252 5.2695 18.4596 10.2198 18.3303C14.4592 18.2196 17.9978 14.8576 18.3082 10.6283C18.3888 9.52965 18.2565 8.46598 17.9418 7.48531C17.8422 7.17431 17.9872 6.83865 18.2792 6.69265C18.6438 6.51031 19.0908 6.69265 19.2145 7.08098C19.5072 8.00131 19.6652 8.98198 19.6652 9.99998Z" fill="#AEE090"/>
<path d="M5.13678 7.49064L10.4081 14.623C10.8061 15.1616 11.6161 15.115 11.9518 14.5343L19.5691 1.34831C19.9658 0.661641 19.0608 -0.0286925 18.5211 0.549308L10.5851 9.04997L5.98045 6.50131C5.35811 6.15697 4.71145 6.91497 5.13678 7.49064Z" fill="#6BB577"/>
</g>
<defs>
<clipPath id="clip0_1240_4623">
<rect width="20" height="20" fill="white"/>
</clipPath>
</defs>
</svg>
