<svg width="372" height="27" viewBox="0 0 372 27" fill="none" xmlns="http://www.w3.org/2000/svg">
<path d="M364.908 26.1H359.472V4.932H352.488V0.395996H371.892V4.932H364.908V26.1Z" fill="white"/>
<path d="M338.73 0.395996C341.058 0.395996 342.978 0.683996 344.49 1.26C346.002 1.812 347.13 2.664 347.874 3.816C348.618 4.944 348.99 6.372 348.99 8.1C348.99 9.276 348.762 10.308 348.306 11.196C347.874 12.06 347.286 12.804 346.542 13.428C345.822 14.028 345.042 14.52 344.202 14.904L351.762 26.1H345.714L339.594 16.236H336.678V26.1H331.242V0.395996H338.73ZM338.334 4.86H336.678V11.808H338.442C339.642 11.808 340.614 11.676 341.358 11.412C342.102 11.148 342.642 10.752 342.978 10.224C343.314 9.672 343.482 9.012 343.482 8.244C343.482 7.428 343.29 6.78 342.906 6.3C342.546 5.796 341.982 5.436 341.214 5.22C340.47 4.98 339.51 4.86 338.334 4.86Z" fill="white"/>
<path d="M325.894 26.1H311.098V0.395996H325.894V4.86H316.534V10.512H325.246V14.976H316.534V21.6H325.894V26.1Z" fill="white"/>
<path d="M296.7 0.395996C300.012 0.395996 302.424 1.11599 303.936 2.55599C305.472 3.972 306.24 5.928 306.24 8.424C306.24 9.552 306.072 10.632 305.736 11.664C305.4 12.672 304.836 13.584 304.044 14.4C303.276 15.192 302.256 15.816 300.984 16.272C299.712 16.728 298.14 16.956 296.268 16.956H293.928V26.1H288.492V0.395996H296.7ZM296.412 4.86H293.928V12.492H295.728C296.76 12.492 297.648 12.36 298.392 12.096C299.136 11.832 299.712 11.412 300.12 10.836C300.528 10.26 300.732 9.516 300.732 8.604C300.732 7.332 300.384 6.396 299.688 5.796C298.992 5.172 297.9 4.86 296.412 4.86Z" fill="white"/>
<path d="M283.822 18.972C283.822 20.484 283.45 21.804 282.706 22.932C281.962 24.06 280.882 24.936 279.466 25.56C278.074 26.16 276.37 26.46 274.354 26.46C273.466 26.46 272.59 26.4 271.726 26.28C270.886 26.16 270.07 25.992 269.278 25.776C268.51 25.536 267.778 25.248 267.082 24.912V19.836C268.306 20.364 269.566 20.856 270.862 21.312C272.182 21.744 273.49 21.96 274.786 21.96C275.674 21.96 276.382 21.84 276.91 21.6C277.462 21.36 277.858 21.036 278.098 20.628C278.362 20.22 278.494 19.752 278.494 19.224C278.494 18.576 278.266 18.024 277.81 17.568C277.378 17.112 276.79 16.692 276.046 16.308C275.302 15.9 274.45 15.468 273.49 15.012C272.89 14.724 272.242 14.388 271.546 14.004C270.85 13.596 270.178 13.104 269.53 12.528C268.906 11.928 268.39 11.208 267.982 10.368C267.574 9.52801 267.37 8.52001 267.37 7.34401C267.37 5.80801 267.718 4.50001 268.414 3.42001C269.134 2.31601 270.142 1.47601 271.438 0.90001C272.758 0.32401 274.306 0.0360107 276.082 0.0360107C277.426 0.0360107 278.698 0.192011 279.898 0.504011C281.122 0.816011 282.394 1.26001 283.714 1.83601L281.95 6.08401C280.774 5.60401 279.718 5.23201 278.782 4.96801C277.846 4.70401 276.886 4.57201 275.902 4.57201C275.23 4.57201 274.654 4.68001 274.174 4.89601C273.694 5.11201 273.322 5.41201 273.058 5.79601C272.818 6.18001 272.698 6.63601 272.698 7.16401C272.698 7.76401 272.878 8.28001 273.238 8.71201C273.598 9.12001 274.138 9.51601 274.858 9.90001C275.578 10.284 276.478 10.74 277.558 11.268C278.878 11.892 279.994 12.54 280.906 13.212C281.842 13.884 282.562 14.676 283.066 15.588C283.57 16.5 283.822 17.628 283.822 18.972Z" fill="white"/>
<path d="M265.426 26.1H259.198L253.222 16.38L247.246 26.1H241.414L249.946 12.852L241.954 0.395996H247.966L253.51 9.648L258.946 0.395996H264.814L256.75 13.14L265.426 26.1Z" fill="white"/>
<path d="M239.304 26.1H224.508V0.395996H239.304V4.86H229.944V10.512H238.656V14.976H229.944V21.6H239.304V26.1Z" fill="white"/>
<path d="M198.879 0.395996C201.207 0.395996 203.127 0.683996 204.639 1.26C206.151 1.812 207.279 2.664 208.023 3.816C208.767 4.944 209.139 6.372 209.139 8.1C209.139 9.276 208.911 10.308 208.455 11.196C208.023 12.06 207.435 12.804 206.691 13.428C205.971 14.028 205.191 14.52 204.351 14.904L211.911 26.1H205.863L199.743 16.236H196.827V26.1H191.391V0.395996H198.879ZM198.483 4.86H196.827V11.808H198.591C199.791 11.808 200.763 11.676 201.507 11.412C202.251 11.148 202.791 10.752 203.127 10.224C203.463 9.672 203.631 9.012 203.631 8.244C203.631 7.428 203.439 6.78 203.055 6.3C202.695 5.796 202.131 5.436 201.363 5.22C200.619 4.98 199.659 4.86 198.483 4.86Z" fill="white"/>
<path d="M186.042 26.1H171.246V0.395996H186.042V4.86H176.682V10.512H185.394V14.976H176.682V21.6H186.042V26.1Z" fill="white"/>
<path d="M168.004 26.1H161.812L155.08 15.264L152.776 16.92V26.1H147.34V0.395996H152.776V12.168C153.136 11.664 153.496 11.16 153.856 10.656C154.216 10.152 154.576 9.648 154.936 9.144L161.884 0.395996H167.932L158.968 11.772L168.004 26.1Z" fill="white"/>
<path d="M141.045 17.028C141.045 18.804 140.649 20.412 139.857 21.852C139.089 23.268 137.913 24.396 136.329 25.236C134.769 26.052 132.789 26.46 130.389 26.46C126.981 26.46 124.389 25.596 122.613 23.868C120.837 22.116 119.949 19.812 119.949 16.956V0.395996H125.385V16.128C125.385 18.24 125.817 19.728 126.681 20.592C127.545 21.456 128.829 21.888 130.533 21.888C131.733 21.888 132.705 21.684 133.449 21.276C134.193 20.868 134.733 20.232 135.069 19.368C135.429 18.504 135.609 17.412 135.609 16.092V0.395996H141.045V17.028Z" fill="white"/>
<path d="M103.851 0.395996C106.179 0.395996 108.099 0.683996 109.611 1.26C111.123 1.812 112.251 2.664 112.995 3.816C113.739 4.944 114.111 6.372 114.111 8.1C114.111 9.276 113.883 10.308 113.427 11.196C112.995 12.06 112.407 12.804 111.663 13.428C110.943 14.028 110.163 14.52 109.323 14.904L116.883 26.1H110.835L104.715 16.236H101.799V26.1H96.3633V0.395996H103.851ZM103.455 4.86H101.799V11.808H103.563C104.763 11.808 105.735 11.676 106.479 11.412C107.223 11.148 107.763 10.752 108.099 10.224C108.435 9.672 108.603 9.012 108.603 8.244C108.603 7.428 108.411 6.78 108.027 6.3C107.667 5.796 107.103 5.436 106.335 5.22C105.591 4.98 104.631 4.86 103.455 4.86Z" fill="white"/>
<path d="M80.1678 0.395996C82.4478 0.395996 84.3558 0.611996 85.8918 1.044C87.4518 1.452 88.6158 2.136 89.3838 3.096C90.1758 4.032 90.5718 5.304 90.5718 6.912C90.5718 7.872 90.4158 8.748 90.1038 9.54C89.7918 10.332 89.3358 10.98 88.7358 11.484C88.1598 11.988 87.4518 12.312 86.6118 12.456V12.636C87.4758 12.804 88.2558 13.104 88.9518 13.536C89.6478 13.968 90.1998 14.592 90.6078 15.408C91.0158 16.224 91.2198 17.304 91.2198 18.648C91.2198 20.208 90.8358 21.552 90.0678 22.68C89.3238 23.784 88.2438 24.636 86.8278 25.236C85.4118 25.812 83.7318 26.1 81.7878 26.1H72.1758V0.395996H80.1678ZM80.7798 10.584C82.3638 10.584 83.4558 10.332 84.0558 9.828C84.6798 9.324 84.9918 8.592 84.9918 7.632C84.9918 6.648 84.6318 5.94 83.9118 5.508C83.1918 5.076 82.0518 4.86 80.4918 4.86H77.6118V10.584H80.7798ZM77.6118 14.904V21.6H81.1758C82.8078 21.6 83.9478 21.288 84.5958 20.664C85.2438 20.016 85.5678 19.164 85.5678 18.108C85.5678 17.46 85.4238 16.896 85.1358 16.416C84.8718 15.936 84.4038 15.564 83.7318 15.3C83.0598 15.036 82.1478 14.904 80.9958 14.904H77.6118Z" fill="white"/>
<path d="M55.8982 0.395996C58.2262 0.395996 60.1462 0.683996 61.6582 1.26C63.1702 1.812 64.2982 2.664 65.0422 3.816C65.7862 4.944 66.1582 6.372 66.1582 8.1C66.1582 9.276 65.9302 10.308 65.4742 11.196C65.0422 12.06 64.4542 12.804 63.7102 13.428C62.9902 14.028 62.2102 14.52 61.3702 14.904L68.9302 26.1H62.8822L56.7622 16.236H53.8462V26.1H48.4102V0.395996H55.8982ZM55.5022 4.86H53.8462V11.808H55.6102C56.8102 11.808 57.7822 11.676 58.5262 11.412C59.2702 11.148 59.8102 10.752 60.1462 10.224C60.4822 9.672 60.6502 9.012 60.6502 8.244C60.6502 7.428 60.4582 6.78 60.0742 6.3C59.7142 5.796 59.1502 5.436 58.3822 5.22C57.6382 4.98 56.6782 4.86 55.5022 4.86Z" fill="white"/>
<path d="M43.0894 13.212C43.0894 15.204 42.8374 17.016 42.3334 18.648C41.8534 20.256 41.1094 21.648 40.1014 22.824C39.1174 24 37.8454 24.9 36.2854 25.524C34.7494 26.148 32.9374 26.46 30.8494 26.46C28.7614 26.46 26.9374 26.148 25.3774 25.524C23.8414 24.876 22.5694 23.976 21.5614 22.824C20.5774 21.648 19.8334 20.244 19.3294 18.612C18.8494 16.98 18.6094 15.168 18.6094 13.176C18.6094 10.512 19.0414 8.196 19.9054 6.228C20.7934 4.26 22.1374 2.736 23.9374 1.656C25.7614 0.552 28.0774 0 30.8854 0C33.6694 0 35.9614 0.552 37.7614 1.656C39.5614 2.736 40.8934 4.272 41.7574 6.264C42.6454 8.232 43.0894 10.548 43.0894 13.212ZM24.3334 13.212C24.3334 15.012 24.5614 16.56 25.0174 17.856C25.4734 19.152 26.1814 20.148 27.1414 20.844C28.1014 21.54 29.3374 21.888 30.8494 21.888C32.4094 21.888 33.6574 21.54 34.5934 20.844C35.5534 20.148 36.2494 19.152 36.6814 17.856C37.1374 16.56 37.3654 15.012 37.3654 13.212C37.3654 10.5 36.8614 8.376 35.8534 6.84C34.8454 5.304 33.1894 4.536 30.8854 4.536C29.3494 4.536 28.1014 4.884 27.1414 5.58C26.1814 6.276 25.4734 7.272 25.0174 8.568C24.5614 9.864 24.3334 11.412 24.3334 13.212Z" fill="white"/>
<path d="M5.364 26.1H0V0.395996H14.724V4.86H5.364V11.484H14.076V15.948H5.364V26.1Z" fill="white"/>
</svg>
