<svg xmlns="http://www.w3.org/2000/svg" viewBox="0 0 585.3 119.5"><path d="M96.2 23.2c-15.1 0-28.6 9.4-34 23.4 10.6 7.2 17.5 19.3 17.5 33 0 5.9-1.3 11.5-3.7 16.6h20.2c20.1 0 36.5-16.4 36.5-36.5s-16.4-36.5-36.5-36.5zm360.7 28.9c-9.8 0-15.9 7.3-15.9 18.4v.7c0 11.1 6.1 18.3 15.9 18.3s15.9-7.4 15.9-18.3v-.7c0-11.1-6.2-18.4-15.9-18.4zm105.5 0c-9.7 0-15.5 6.8-15.5 18.6v.7c0 12.3 6.6 18.2 14.8 18.2 9 0 16.1-6 16.1-18.4v-.7c.1-12.5-5.9-18.4-15.4-18.4z" fill="none"/><path d="M96.2 0C70.2 0 48 16.6 39.8 39.8 17.8 39.8 0 57.7 0 79.7s17.8 39.8 39.8 39.8h56.3c33 0 59.7-26.7 59.7-59.7C155.9 26.7 129.2 0 96.2 0zm0 96.3H76c2.3-5.1 3.7-10.7 3.7-16.6 0-13.7-6.9-25.8-17.5-33 5.4-14 18.9-23.4 34-23.4 20.1 0 36.5 16.4 36.5 36.5s-16.4 36.5-36.5 36.5zm95.1-67.7h15.2v66.6h-15.2zm42.1 38.3h22.8v-11h-22.8V40.4h28.5V28.6h-43.4v66.6h44.8V83.5h-29.9zM326 28.6h-15.4L298 50.8l-12.7-22.2h-17L287.8 61l-21.1 34.2h15.5l14.3-24.7 14.4 24.7h17.2L307 60.6zm52.9 60.9c-14.3 0-22.9-10.2-22.9-27.2v-.7c0-16.8 9.2-27.5 23-27.5 11.4 0 17.2 5.2 18.9 15.4h8c-1.4-14.4-13.1-21.8-27-21.8-18.1 0-31.3 14.3-31.3 34v.7c0 20.5 11.8 33.7 31.1 33.7 14.9 0 25.5-7.5 27.8-22.9H399c-1.6 10.8-9.2 16.3-20.1 16.3zm36.8-66.3h7.8v72h-7.8zm41.2 22.5c-13.8 0-23.9 10.2-23.9 24.9v.7c0 14.2 10 24.8 23.8 24.8 13.9 0 24-10.2 24-24.9v-.7c0-14.7-10.1-24.8-23.9-24.8zm15.9 25.6c0 11-6.1 18.3-15.9 18.3-9.9 0-15.9-7.3-15.9-18.3v-.7c0-11.2 6.1-18.4 15.9-18.4 9.7 0 15.9 7.3 15.9 18.5v.6zM522 76c0 8.8-6.5 13.3-13.4 13.3-7.6 0-11.3-3.8-11.3-12.4V46.5h-7.7v30.8c0 13.4 7.3 18.7 17 18.7 7.8 0 13.2-4 15.5-8.6v7.7h7.7V46.5H522V76zm55.6-52.8v31.1c-2.8-4.7-7.8-8.7-15.9-8.7-13.4 0-22.7 10.5-22.7 25.4v.7c0 15.2 9.2 24.2 22 24.2 7.1 0 13.9-4.5 16.7-9.2v8.4h7.7v-72h-7.8zm.3 48c0 12.5-7.1 18.4-16.1 18.4-8.2 0-14.8-5.9-14.8-18.2v-.7c0-11.8 5.8-18.6 15.5-18.6 9.5 0 15.5 5.9 15.5 18.4v.7z" fill="#ef0073"/></svg>