<svg width="180" height="29" fill="none" xmlns="http://www.w3.org/2000/svg"><g clip-path="url(#clip0_26_1721)"><path d="M57.945 10.083c-.964-1.006-2.642-1.447-4-1.447-1.703 0-3.085.71-3.085 1.888 0 1.57 1.505 1.865 3.727 2.062 3.406.294 6.64 1.594 6.64 5.569 0 3.975-3.554 5.496-7.282 5.52-2.987.025-6.098-1.13-7.555-3.533l2.297-2.38c1.333 1.694 3.53 2.43 5.283 2.43 2.049 0 3.456-.81 3.456-2.037.025-1.448-1.136-2.11-3.481-2.307-3.654-.343-6.913-1.251-6.863-5.3.025-3.41 3.283-5.225 6.838-5.225 2.666 0 4.666.589 6.443 2.65l-2.42 2.11h.002zm10.073-2.404v3.386h3.085v2.944h-3.11v4.563c0 1.276.716 1.62 1.383 1.62.42 0 1.086-.098 1.48-.295l.815 2.944c-.89.343-1.605.49-2.567.54-2.642.122-4.641-1.03-4.641-4.809V14.01H62.29v-2.944h2.173V8.07l3.554-.392h.001zm4.79 9.397c0-3.656 2.617-6.355 6.665-6.355 4.05 0 6.69 2.699 6.69 6.355 0 3.656-2.542 6.306-6.69 6.306-4.147 0-6.665-2.65-6.665-6.306zm9.75 0c0-1.52-.937-3.19-3.085-3.19-2.147 0-3.06 1.67-3.06 3.19s.912 3.165 3.06 3.165c2.149 0 3.085-1.57 3.085-3.165zm16.614 4.44c-1.457 1.423-3.21 1.865-4.764 1.865-3.555 0-6.665-1.938-6.665-6.306 0-4.073 3.086-6.354 6.64-6.354 1.777 0 3.184.392 4.419 1.668l-1.975 2.233c-.74-.564-1.555-.712-2.296-.712-1.777 0-3.21 1.153-3.21 3.165s1.482 3.043 3.136 3.043c.79 0 1.876-.319 2.468-.908l2.246 2.306h.001zm5.383-15.556v9.79l3.605-4.735h4.196v.221l-4.468 5.472 5.159 6.134v.27h-4.27l-4.222-5.324v5.324h-3.554V5.961h3.554z" fill="#11142D"/><path d="M127.341 15.358h-9.874v7.753h-2.148V5.936h2.148v7.435h9.874V5.936h2.149v17.175h-2.149v-7.753zm16.022 7.802l-.048-2.208c-.963 1.669-2.815 2.454-4.494 2.454-3.505 0-6.245-2.405-6.245-6.354 0-3.95 2.789-6.282 6.27-6.257 1.827 0 3.629.834 4.518 2.404l.025-2.208h1.975v12.12h-1.95l-.05.05h-.001zm-4.443-10.452c-2.42 0-4.37 1.718-4.37 4.416 0 2.699 1.95 4.442 4.37 4.442 5.875 0 5.875-8.883.024-8.883l-.024.025zm11.307-1.718l3.284 9.987 3.234-9.986h1.654l3.234 9.986 3.284-9.986h2.221l-4.27 12.145h-2.322l-1.654-4.516-1.308-4.416-1.332 4.416-1.655 4.515h-2.296l-4.319-12.144h2.246-.001zm21.552 5.104l5.011-5.103h2.517v.122l-5.628 5.594 6.32 6.257v.147h-2.469l-5.752-5.716v5.716h-2V5.936h2v10.158h.001zM39.717 4.054c-1.531-2.925-5.018-6.818-11.485-1.171l-.018.017c-.159.149-.319.304-.48.467-1.249-.972-2.774-1.522-4.484-1.344-1.62.169-3.118.901-4.465 1.824L0 15.363c1.268.467 2.597.89 3.966 1.252 2.836.751 5.842 1.241 8.831 1.315 5.32.133 10.581-1.052 14.722-4.428.966-.787 1.8-1.632 2.38-2.641-.423 1.32-1.257 2.429-2.28 3.48a17.802 17.802 0 01-1.92 1.707c-3.157 2.427-7.002 3.732-11.019 4.245-1.05.135-2.111.215-3.176.247-.422.013-.843.019-1.266.017L1.634 29h5.644a15.52 15.52 0 015.284-2.168c.486-.1.99-.174 1.484-.218 6.733-.593 13.052-3.91 17.34-9.337a12.608 12.608 0 001.406-1.968c2.497-4.344 3.774-6.792 4.618-8.097 1.259-2.049 3.545-.135 3.545-.135.551-1.751-.736-2.72-1.238-3.023z" fill="#057CFF"/></g><defs><clipPath id="clip0_26_1721"><path fill="#fff" d="M0 0h180v29H0z"/></clipPath></defs></svg>