<svg width="76" height="92" fill="none" xmlns="http://www.w3.org/2000/svg"><path d="M3.587 18.128c33.482-15.501 53.72 4.438 58.211 11.825 2.743 4.513 3.552 12.464-1.918 15.406-3.803 2.045-12.353-3.425-7.73-6.885 2.354-1.763 6.612-.22 8.751 1.121 6.132 3.844 7.643 11.668 5.216 18.24-2.144 5.804-8.66 9.194-14.683 7.69-3.676-.917-8.312-5.192-5.48-9.264 4.381-6.3 10.944 5.1 10.345 9.893-2.166 17.333-26.508 13.533-35.966 5.444" stroke="#14B8A6" stroke-width="3.57" stroke-miterlimit="1.5" stroke-linecap="round" stroke-linejoin="round"/><path d="M32.97 53.973c-1.102 2.446-3.093 4.168-4.992 5.988-6.236 5.976-14.862 10.42-23.69 10.463 9.097 2.948 19.914 9.841 22.221 19.622" stroke="#14B8A6" stroke-width="2.79" stroke-miterlimit="1.5" stroke-linecap="round" stroke-linejoin="round"/></svg>