<?xml version="1.0" encoding="utf-8"?>
<!-- Generator: Adobe Illustrator 17.0.0, SVG Export Plug-In . SVG Version: 6.00 Build 0)  -->
<!DOCTYPE svg PUBLIC "-//W3C//DTD SVG 1.1//EN" "http://www.w3.org/Graphics/SVG/1.1/DTD/svg11.dtd">
<svg version="1.1" id="Слой_1" xmlns="http://www.w3.org/2000/svg" xmlns:xlink="http://www.w3.org/1999/xlink" x="0px" y="0px"
	 width="225.208px" height="54.003px" viewBox="0 0 225.208 54.003" enable-background="new 0 0 225.208 54.003"
	 xml:space="preserve">
<g>
	<defs>
		<rect id="SVGID_1_" y="0" width="225.208" height="54.003"/>
	</defs>
	<clipPath id="SVGID_2_">
		<use xlink:href="#SVGID_1_"  overflow="visible"/>
	</clipPath>
	<path clip-path="url(#SVGID_2_)" fill="#45347D" d="M12.938,34.495c-0.032-0.107-0.06-0.225-0.093-0.331l-1.577-5.715
		c-0.225-0.7-0.602-1.269-1.133-1.71c-0.532-0.441-1.252-0.661-2.159-0.661H0l6.758,21.505L12.938,34.495z M43.871,0h-8.435
		c-0.881,0-1.642,0.247-2.281,0.739s-1.101,1.036-1.387,1.632l-0.4,0.864l0.006-0.007L8.67,53.669l0.015,0.048h9.446L43.871,0z"/>
	<path clip-path="url(#SVGID_2_)" fill="#45347D" d="M46.048,53.691h4.913l-6.59-28.409h-6.513l-13.57,28.409h4.991
		c0.507,0,0.968-0.139,1.384-0.419s0.696-0.602,0.839-0.965l7.214-17.511c0.065-0.155,0.172-0.395,0.322-0.72
		c0.149-0.325,0.305-0.676,0.468-1.053c0.162-0.377,0.328-0.763,0.497-1.16c0.169-0.396,0.305-0.751,0.41-1.063
		c0.09,0.572,0.204,1.205,0.341,1.901c0.136,0.696,0.263,1.382,0.38,2.057l1.384,8.112h-4.759l-1.736,4.328h7.236l0.878,5.109
		c0.065,0.416,0.263,0.75,0.594,1.004C45.063,53.564,45.502,53.691,46.048,53.691 M75.373,31.6l2.223-2.574
		c-0.416-0.598-0.904-1.145-1.462-1.638c-0.56-0.494-1.193-0.919-1.902-1.277c-0.708-0.357-1.501-0.637-2.378-0.839
		c-0.878-0.201-1.85-0.302-2.915-0.302c-1.417,0-2.776,0.186-4.075,0.556c-1.3,0.371-2.516,0.9-3.647,1.589
		c-1.131,0.689-2.161,1.528-3.09,2.514c-0.93,0.99-1.726,2.101-2.389,3.336c-0.663,1.235-1.176,2.58-1.54,4.036
		c-0.364,1.456-0.546,2.996-0.546,4.621c0,1.755,0.244,3.389,0.731,4.904c0.488,1.514,1.206,2.824,2.155,3.928
		c0.948,1.105,2.115,1.973,3.5,2.603c1.384,0.631,2.973,0.946,4.767,0.946c2.158,0,4.085-0.38,5.781-1.141
		c1.697-0.76,3.162-1.874,4.397-3.344l-2.223-2.671c-0.065-0.092-0.165-0.172-0.302-0.243c-0.136-0.072-0.309-0.108-0.517-0.108
		s-0.403,0.056-0.585,0.166c-0.182,0.111-0.377,0.251-0.584,0.419c-0.209,0.169-0.443,0.355-0.702,0.556
		c-0.261,0.201-0.579,0.387-0.956,0.556c-0.377,0.169-0.829,0.309-1.355,0.419c-0.526,0.11-1.147,0.166-1.862,0.166
		c-0.819,0-1.579-0.172-2.281-0.517c-0.702-0.344-1.307-0.845-1.814-1.502c-0.507-0.656-0.906-1.458-1.199-2.408
		c-0.292-0.948-0.439-2.027-0.439-3.236c0-1.664,0.215-3.169,0.644-4.514c0.429-1.346,1.024-2.489,1.784-3.432
		c0.76-0.942,1.657-1.667,2.691-2.174c1.033-0.507,2.148-0.76,3.344-0.76c0.611,0,1.14,0.052,1.589,0.156
		c0.448,0.104,0.835,0.231,1.16,0.38c0.325,0.149,0.604,0.315,0.838,0.497c0.234,0.182,0.445,0.348,0.634,0.497
		c0.188,0.15,0.374,0.277,0.556,0.381s0.383,0.156,0.604,0.156c0.338,0,0.611-0.072,0.819-0.215
		C75.035,31.944,75.217,31.782,75.373,31.6 M100.759,31.6l2.223-2.574c-0.416-0.598-0.904-1.145-1.462-1.638
		c-0.559-0.494-1.193-0.919-1.901-1.277c-0.709-0.357-1.502-0.637-2.379-0.839c-0.877-0.201-1.849-0.302-2.915-0.302
		c-1.417,0-2.775,0.186-4.075,0.556c-1.3,0.371-2.516,0.9-3.646,1.589c-1.131,0.689-2.162,1.528-3.091,2.514
		c-0.929,0.99-1.726,2.101-2.388,3.336c-0.663,1.235-1.177,2.58-1.541,4.036s-0.546,2.996-0.546,4.621
		c0,1.755,0.244,3.389,0.731,4.904c0.488,1.514,1.206,2.824,2.155,3.928c0.949,1.105,2.116,1.973,3.5,2.603
		c1.384,0.631,2.973,0.946,4.767,0.946c2.158,0,4.085-0.38,5.781-1.141c1.697-0.76,3.162-1.874,4.397-3.344l-2.223-2.671
		c-0.064-0.092-0.165-0.172-0.302-0.243c-0.136-0.072-0.309-0.108-0.516-0.108c-0.208,0-0.403,0.056-0.585,0.166
		c-0.183,0.111-0.377,0.251-0.585,0.419c-0.208,0.169-0.442,0.355-0.702,0.556c-0.26,0.201-0.579,0.387-0.956,0.556
		c-0.377,0.169-0.828,0.309-1.355,0.419c-0.526,0.11-1.147,0.166-1.862,0.166c-0.819,0-1.579-0.172-2.281-0.517
		c-0.702-0.344-1.306-0.845-1.813-1.502c-0.507-0.656-0.907-1.458-1.2-2.408c-0.292-0.948-0.438-2.027-0.438-3.236
		c0-1.664,0.214-3.169,0.643-4.514c0.429-1.346,1.024-2.489,1.784-3.432c0.761-0.942,1.658-1.667,2.691-2.174
		c1.033-0.507,2.148-0.76,3.344-0.76c0.611,0,1.141,0.052,1.589,0.156s0.835,0.231,1.16,0.38c0.325,0.149,0.605,0.315,0.839,0.497
		c0.234,0.182,0.445,0.348,0.633,0.497c0.188,0.15,0.374,0.277,0.556,0.381c0.182,0.104,0.383,0.156,0.604,0.156
		c0.338,0,0.611-0.072,0.82-0.215C100.421,31.944,100.603,31.782,100.759,31.6 M111.249,53.691l3.471-28.409h-6.396l-3.47,28.409
		H111.249z"/>
	<path clip-path="url(#SVGID_2_)" fill="#D5653E" d="M140.101,30.644l1.248-1.52c-0.468-0.56-0.972-1.067-1.511-1.522
		c-0.54-0.455-1.141-0.845-1.804-1.17c-0.663-0.325-1.397-0.572-2.203-0.741c-0.806-0.169-1.703-0.253-2.691-0.253
		c-2.054,0-3.971,0.4-5.752,1.199c-1.78,0.799-3.331,1.924-4.65,3.373c-1.319,1.45-2.356,3.182-3.11,5.197
		c-0.754,2.014-1.131,4.237-1.131,6.669c0,1.781,0.244,3.412,0.733,4.893c0.486,1.483,1.188,2.76,2.104,3.831
		c0.917,1.073,2.038,1.908,3.364,2.506s2.82,0.896,4.484,0.896c2.119,0,3.974-0.367,5.567-1.101
		c1.592-0.733,2.999-1.764,4.221-3.091l-1.267-1.579c-0.052-0.064-0.117-0.119-0.195-0.165c-0.078-0.046-0.176-0.068-0.293-0.068
		c-0.143,0-0.305,0.071-0.486,0.214c-0.183,0.143-0.408,0.319-0.674,0.527c-0.266,0.208-0.579,0.438-0.936,0.691
		c-0.358,0.254-0.789,0.486-1.296,0.694s-1.091,0.382-1.755,0.525c-0.663,0.144-1.424,0.215-2.281,0.215
		c-1.106,0-2.119-0.215-3.042-0.644c-0.923-0.428-1.719-1.043-2.388-1.842c-0.669-0.799-1.193-1.771-1.57-2.916
		c-0.377-1.143-0.566-2.437-0.566-3.879c0-1.99,0.277-3.783,0.829-5.381c0.552-1.6,1.31-2.961,2.272-4.085
		c0.961-1.124,2.099-1.99,3.412-2.594c1.312-0.605,2.723-0.906,4.231-0.906c1.131,0,2.05,0.13,2.759,0.389
		c0.708,0.26,1.287,0.543,1.735,0.848c0.449,0.307,0.802,0.588,1.064,0.849c0.259,0.259,0.506,0.389,0.74,0.389
		c0.195,0,0.357-0.042,0.487-0.126C139.88,30.881,139.997,30.774,140.101,30.644 M146.643,53.691l3.471-28.721h-3.471l-3.471,28.721
		H146.643z M160.143,40.248c0.013-0.281,0.019-0.549,0.019-0.81c0-1.885-0.403-3.321-1.208-4.31
		c-0.806-0.987-1.957-1.481-3.452-1.481c-1.312,0-2.596,0.394-3.851,1.18c-0.46,0.289-0.901,0.645-1.331,1.036l-0.225,1.958
		c0,0,0.28,0.619,1.009,0.065c0.212-0.162,0.863-0.666,1.308-0.895c0.617-0.319,1.218-0.478,1.804-0.478
		c0.857,0,1.484,0.26,1.881,0.78c0.396,0.52,0.595,1.313,0.595,2.379c0,0.221-0.01,0.452-0.029,0.693
		c-0.02,0.239-0.043,0.489-0.069,0.75l-1.482,12.576h3.471l1.483-12.576C160.105,40.815,160.13,40.526,160.143,40.248
		 M179.976,40.54c0.351-0.721,0.526-1.511,0.526-2.37c0-0.481-0.114-0.988-0.341-1.521c-0.228-0.532-0.575-1.02-1.043-1.462
		c-0.468-0.441-1.066-0.806-1.794-1.092c-0.728-0.286-1.591-0.428-2.592-0.428c-1.054,0-2.039,0.163-2.955,0.488
		c-0.917,0.324-1.754,0.769-2.515,1.335c-0.761,0.565-1.437,1.237-2.028,2.017c-0.592,0.781-1.092,1.625-1.501,2.536
		c-0.41,0.91-0.722,1.869-0.936,2.875c-0.215,1.007-0.322,2.018-0.322,3.033c0,1.221,0.168,2.327,0.508,3.314
		c0.337,0.988,0.818,1.829,1.442,2.526c0.623,0.694,1.384,1.23,2.281,1.607c0.898,0.377,1.911,0.565,3.042,0.565
		c0.831,0,1.609-0.074,2.33-0.223c0.721-0.15,1.413-0.388,2.076-0.712c0.663-0.324,1.31-0.731,1.94-1.219
		c0.63-0.486,1.277-1.075,1.94-1.764l-0.858-1.073c-0.194-0.22-0.409-0.331-0.643-0.331c-0.208,0-0.416,0.066-0.624,0.195
		c-0.208,0.13-0.436,0.29-0.682,0.478s-0.517,0.396-0.81,0.623c-0.292,0.229-0.63,0.437-1.014,0.624
		c-0.383,0.19-0.819,0.349-1.306,0.479c-0.487,0.129-1.043,0.194-1.667,0.194c-1.533,0-2.681-0.458-3.441-1.375
		c-0.688-0.827-1.062-1.996-1.128-3.5c0,0-0.082-1.21,0.082-2.523c0.126-1.003,0.628-2.429,0.628-2.429
		c0.147-0.436,0.315-0.855,0.505-1.258c0.377-0.799,0.832-1.493,1.365-2.086c0.533-0.591,1.144-1.056,1.833-1.394
		c0.689-0.337,1.443-0.506,2.262-0.506c0.519,0,0.961,0.067,1.326,0.204c0.364,0.136,0.66,0.308,0.887,0.516
		c0.227,0.208,0.393,0.44,0.497,0.693c0.104,0.254,0.156,0.498,0.156,0.731c0,0.468-0.104,0.916-0.312,1.346
		c-0.208,0.429-0.637,0.828-1.287,1.198c-0.65,0.371-1.579,0.715-2.788,1.034c-0.925,0.243-2.088,0.466-3.478,0.668
		c-0.209,0.565-0.297,1.423-0.311,1.57c-0.041,0.417,0.451,0.704,0.692,0.671c1.664-0.22,3.088-0.485,4.267-0.793
		c1.638-0.429,2.925-0.934,3.86-1.511C178.982,41.912,179.625,41.261,179.976,40.54 M197.336,37.683l1.091-1.306
		c-0.662-0.884-1.436-1.556-2.319-2.019c-0.885-0.461-1.977-0.691-3.277-0.691c-1.481,0-2.84,0.337-4.075,1.013
		c-1.234,0.676-2.3,1.579-3.197,2.71c-0.897,1.131-1.596,2.432-2.096,3.901c-0.501,1.468-0.751,3.002-0.751,4.601
		c0,1.195,0.153,2.29,0.458,3.285c0.305,0.994,0.754,1.846,1.345,2.554c0.593,0.709,1.326,1.258,2.204,1.648
		c0.877,0.39,1.889,0.584,3.032,0.584c0.753,0,1.459-0.057,2.115-0.174c0.658-0.118,1.29-0.323,1.901-0.615
		c0.611-0.293,1.219-0.685,1.823-1.178c0.605-0.495,1.245-1.113,1.921-1.854l-0.858-1.053c-0.182-0.22-0.403-0.331-0.663-0.331
		c-0.182,0-0.36,0.063-0.536,0.186c-0.176,0.123-0.371,0.275-0.585,0.457c-0.214,0.183-0.455,0.382-0.72,0.596
		c-0.268,0.213-0.577,0.413-0.928,0.593c-0.35,0.183-0.754,0.335-1.208,0.459c-0.456,0.123-0.976,0.185-1.56,0.185
		c-0.702,0-1.316-0.127-1.843-0.38c-0.526-0.254-0.972-0.61-1.335-1.071c-0.365-0.462-0.637-1.022-0.819-1.679
		c-0.182-0.655-0.273-1.387-0.273-2.192c0-1.327,0.173-2.568,0.516-3.725c0.344-1.156,0.816-2.157,1.414-3.003
		c0.598-0.845,1.296-1.511,2.096-1.999c0.799-0.486,1.649-0.73,2.544-0.73c0.663,0,1.206,0.082,1.629,0.244
		c0.422,0.163,0.773,0.344,1.052,0.546c0.28,0.202,0.507,0.382,0.683,0.546c0.175,0.163,0.354,0.244,0.536,0.244
		c0.143,0,0.273-0.034,0.39-0.099C197.16,37.872,197.258,37.788,197.336,37.683 M203.873,53.691l3.509-28.721h-3.412l-3.529,28.721
		H203.873z M218.087,33.939h-3.061c-0.312,0-0.566,0.065-0.761,0.195c-0.195,0.13-0.396,0.299-0.604,0.507l-5.713,5.851
		c0,0-0.692,0.585-0.869,1.783c-0.1,0.69-0.27,2.33-0.106,2.642l5.03,8.091c0.144,0.247,0.303,0.422,0.479,0.528
		c0.175,0.103,0.405,0.155,0.691,0.155h2.984l-5.927-9.749c-0.144-0.246-0.287-0.475-0.43-0.683
		c-0.143-0.208-0.317-0.389-0.526-0.546c0.221-0.129,0.425-0.283,0.614-0.458c0.188-0.175,0.38-0.367,0.575-0.575L218.087,33.939z"
		/>
	<path clip-path="url(#SVGID_2_)" fill="#D5653E" d="M220.286,26.864c0.29-0.396,0.648-0.706,1.076-0.934
		c0.426-0.225,0.865-0.34,1.316-0.34c0.464,0,0.874,0.118,1.232,0.355c0.355,0.235,0.613,0.547,0.771,0.934
		c0.158,0.388,0.203,0.804,0.133,1.25c-0.071,0.456-0.253,0.879-0.542,1.27c-0.29,0.39-0.646,0.697-1.07,0.925
		c-0.424,0.226-0.865,0.34-1.321,0.34c-0.456,0-0.862-0.115-1.215-0.342c-0.355-0.229-0.614-0.537-0.78-0.925
		c-0.166-0.39-0.214-0.812-0.142-1.268C219.815,27.68,219.995,27.258,220.286,26.864 M219.538,29.555
		c0.18,0.444,0.473,0.8,0.881,1.065c0.406,0.264,0.876,0.398,1.407,0.398c0.532,0,1.045-0.134,1.535-0.4
		c0.491-0.267,0.895-0.622,1.214-1.066c0.318-0.443,0.516-0.918,0.597-1.423c0.081-0.517,0.028-1.002-0.161-1.45
		s-0.487-0.802-0.896-1.057c-0.407-0.257-0.868-0.385-1.381-0.385c-0.519,0-1.021,0.13-1.512,0.388
		c-0.489,0.259-0.897,0.614-1.224,1.062c-0.326,0.448-0.531,0.93-0.611,1.442C219.307,28.636,219.358,29.113,219.538,29.555
		 M223.234,26.675c-0.178-0.158-0.449-0.238-0.816-0.238h-0.811l-0.532,3.385h0.389l0.217-1.385h0.646l0.591,1.385h0.464
		l-0.673-1.512c0.198-0.088,0.358-0.208,0.482-0.363c0.122-0.156,0.2-0.334,0.232-0.537
		C223.475,27.08,223.412,26.834,223.234,26.675 M221.943,26.768h0.423c0.505,0,0.723,0.221,0.654,0.661
		c-0.036,0.229-0.13,0.401-0.282,0.522c-0.152,0.119-0.345,0.178-0.578,0.178h-0.431L221.943,26.768z"/>
</g>
</svg>
