<?xml version="1.0" encoding="UTF-8"?>
<svg width="1031px" height="800px" viewBox="0 0 1031 800" version="1.1" xmlns="http://www.w3.org/2000/svg" xmlns:xlink="http://www.w3.org/1999/xlink">
    <title>Group 3</title>
    <defs>
        <rect id="path-1" x="0" y="0" width="834" height="456" rx="8"></rect>
        <filter x="-9.3%" y="-15.9%" width="118.6%" height="134.0%" filterUnits="objectBoundingBox" id="filter-2">
            <feOffset dx="0" dy="5" in="SourceAlpha" result="shadowOffsetOuter1"></feOffset>
            <feGaussianBlur stdDeviation="25" in="shadowOffsetOuter1" result="shadowBlurOuter1"></feGaussianBlur>
            <feColorMatrix values="0 0 0 0 0.0392156863   0 0 0 0 0.0901960784   0 0 0 0 0.325490196  0 0 0 0.1 0" type="matrix" in="shadowBlurOuter1"></feColorMatrix>
        </filter>
        <rect id="path-3" x="0" y="0" width="418" height="438" rx="8"></rect>
        <filter x="-18.5%" y="-16.6%" width="137.1%" height="135.4%" filterUnits="objectBoundingBox" id="filter-4">
            <feOffset dx="0" dy="5" in="SourceAlpha" result="shadowOffsetOuter1"></feOffset>
            <feGaussianBlur stdDeviation="25" in="shadowOffsetOuter1" result="shadowBlurOuter1"></feGaussianBlur>
            <feColorMatrix values="0 0 0 0 0.0392156863   0 0 0 0 0.0901960784   0 0 0 0 0.325490196  0 0 0 0.1 0" type="matrix" in="shadowBlurOuter1"></feColorMatrix>
        </filter>
    </defs>
    <g id="Page-2" stroke="none" stroke-width="1" fill="none" fill-rule="evenodd">
        <g id="Home---updated" transform="translate(171.000000, -1405.000000)">
            <g id="Group-3" transform="translate(-121.000000, 1450.000000)">
                <g id="Group-11">
                    <g id="Rectangle-Copy-65">
                        <use fill="black" fill-opacity="1" filter="url(#filter-2)" xlink:href="#path-1"></use>
                        <use fill="#FFFFFF" fill-rule="evenodd" xlink:href="#path-1"></use>
                    </g>
                    <line x1="92" y1="36" x2="793" y2="36" id="Path-2-Copy-3" stroke="#0A1753" stroke-width="2" opacity="0.0508488246" stroke-linecap="round" stroke-linejoin="round" stroke-dasharray="0,4"></line>
                    <line x1="92" y1="216" x2="793" y2="216" id="Path-2-Copy-6" stroke="#0A1753" stroke-width="2" opacity="0.0508488246" stroke-linecap="round" stroke-linejoin="round" stroke-dasharray="0,4"></line>
                    <line x1="92" y1="96" x2="793" y2="96" id="Path-2-Copy-4" stroke="#0A1753" stroke-width="2" opacity="0.0508488246" stroke-linecap="round" stroke-linejoin="round" stroke-dasharray="0,4"></line>
                    <line x1="92" y1="276" x2="793" y2="276" id="Path-2-Copy-7" stroke="#0A1753" stroke-width="2" opacity="0.0508488246" stroke-linecap="round" stroke-linejoin="round" stroke-dasharray="0,4"></line>
                    <line x1="92" y1="156" x2="793" y2="156" id="Path-2-Copy-5" stroke="#0A1753" stroke-width="2" opacity="0.0508488246" stroke-linecap="round" stroke-linejoin="round" stroke-dasharray="0,4"></line>
                    <line x1="92" y1="336" x2="793" y2="336" id="Path-2-Copy-8" stroke="#0A1753" stroke-width="2" opacity="0.0508488246" stroke-linecap="round" stroke-linejoin="round" stroke-dasharray="0,4"></line>
                    <line x1="84" y1="396" x2="793" y2="396" id="Path-2-Copy-9" stroke="#0A1753" stroke-width="2" opacity="0.0508488246" stroke-linecap="round" stroke-linejoin="round" stroke-dasharray="0,4"></line>
                    <text id="3000" opacity="0.297318958" font-family="SharpGroteskBook20-Regular, Sharp Grotesk Book 20" font-size="12" font-style="expanded" font-weight="normal" line-spacing="12" fill="#0A1753">
                        <tspan x="24" y="46">3000</tspan>
                    </text>
                    <text id="2500" opacity="0.297318958" font-family="SharpGroteskBook20-Regular, Sharp Grotesk Book 20" font-size="12" font-style="expanded" font-weight="normal" line-spacing="12" fill="#0A1753">
                        <tspan x="24" y="106">2500</tspan>
                    </text>
                    <text id="2000" opacity="0.297318958" font-family="SharpGroteskBook20-Regular, Sharp Grotesk Book 20" font-size="12" font-style="expanded" font-weight="normal" line-spacing="12" fill="#0A1753">
                        <tspan x="24" y="166">2000</tspan>
                    </text>
                    <text id="1500" opacity="0.297318958" font-family="SharpGroteskBook20-Regular, Sharp Grotesk Book 20" font-size="12" font-style="expanded" font-weight="normal" line-spacing="12" fill="#0A1753">
                        <tspan x="24" y="226">1500</tspan>
                    </text>
                    <text id="1000" opacity="0.297318958" font-family="SharpGroteskBook20-Regular, Sharp Grotesk Book 20" font-size="12" font-style="expanded" font-weight="normal" line-spacing="12" fill="#0A1753">
                        <tspan x="24" y="286">1000</tspan>
                    </text>
                    <text id="500" opacity="0.297318958" font-family="SharpGroteskBook20-Regular, Sharp Grotesk Book 20" font-size="12" font-style="expanded" font-weight="normal" line-spacing="12" fill="#0A1753">
                        <tspan x="24" y="346">500</tspan>
                    </text>
                    <text id="0" opacity="0.297318958" font-family="SharpGroteskBook20-Regular, Sharp Grotesk Book 20" font-size="12" font-style="expanded" font-weight="normal" line-spacing="12" fill="#0A1753">
                        <tspan x="24" y="406">0</tspan>
                    </text>
                    <text id="Mar-1" opacity="0.297318958" font-family="SharpGroteskBook20-Regular, Sharp Grotesk Book 20" font-size="12" font-style="expanded" font-weight="normal" line-spacing="12" fill="#0A1753">
                        <tspan x="159.996" y="418">Mar 1</tspan>
                    </text>
                    <text id="Mar-2" opacity="0.297318958" font-family="SharpGroteskBook20-Regular, Sharp Grotesk Book 20" font-size="12" font-style="expanded" font-weight="normal" line-spacing="12" fill="#0A1753">
                        <tspan x="257.776" y="418">Mar 2</tspan>
                    </text>
                    <text id="Mar-3" opacity="0.297318958" font-family="SharpGroteskBook20-Regular, Sharp Grotesk Book 20" font-size="12" font-style="expanded" font-weight="normal" line-spacing="12" fill="#0A1753">
                        <tspan x="357.512" y="418">Mar 3</tspan>
                    </text>
                    <text id="Mar-4" opacity="0.297318958" font-family="SharpGroteskBook20-Regular, Sharp Grotesk Book 20" font-size="12" font-style="expanded" font-weight="normal" line-spacing="12" fill="#0A1753">
                        <tspan x="457.644" y="418">Mar 4</tspan>
                    </text>
                    <text id="Mar-5" opacity="0.297318958" font-family="SharpGroteskBook20-Regular, Sharp Grotesk Book 20" font-size="12" font-style="expanded" font-weight="normal" line-spacing="12" fill="#0A1753">
                        <tspan x="557.428" y="418">Mar 5</tspan>
                    </text>
                    <text id="Mar-6" opacity="0.297318958" font-family="SharpGroteskBook20-Regular, Sharp Grotesk Book 20" font-size="12" font-style="expanded" font-weight="normal" line-spacing="12" fill="#0A1753">
                        <tspan x="657.284" y="418">Mar 6</tspan>
                    </text>
                    <text id="Mar-7" opacity="0.297318958" font-family="SharpGroteskBook20-Regular, Sharp Grotesk Book 20" font-size="12" font-style="expanded" font-weight="normal" line-spacing="12" fill="#0A1753">
                        <tspan x="758.556" y="418">Mar 7</tspan>
                    </text>
                    <line x1="192" y1="36" x2="192" y2="397" id="Path-4" stroke="#0A1753" stroke-width="2" opacity="0.0463743664" stroke-linecap="round" stroke-linejoin="round" stroke-dasharray="0,4"></line>
                    <line x1="92" y1="36" x2="92" y2="397" id="Path-4-Copy-7" stroke="#0A1753" stroke-width="2" opacity="0.0463743664" stroke-linecap="round" stroke-linejoin="round" stroke-dasharray="0,4"></line>
                    <line x1="292" y1="36" x2="292" y2="397" id="Path-4-Copy" stroke="#0A1753" stroke-width="2" opacity="0.0463743664" stroke-linecap="round" stroke-linejoin="round" stroke-dasharray="0,4"></line>
                    <line x1="392" y1="36" x2="392" y2="397" id="Path-4-Copy-2" stroke="#0A1753" stroke-width="2" opacity="0.0463743664" stroke-linecap="round" stroke-linejoin="round" stroke-dasharray="0,4"></line>
                    <line x1="492" y1="36" x2="492" y2="397" id="Path-4-Copy-3" stroke="#0A1753" stroke-width="2" opacity="0.0463743664" stroke-linecap="round" stroke-linejoin="round" stroke-dasharray="0,4"></line>
                    <line x1="592" y1="36" x2="592" y2="397" id="Path-4-Copy-4" stroke="#0A1753" stroke-width="2" opacity="0.0463743664" stroke-linecap="round" stroke-linejoin="round" stroke-dasharray="0,4"></line>
                    <line x1="692" y1="36" x2="692" y2="397" id="Path-4-Copy-5" stroke="#0A1753" stroke-width="2" opacity="0.0463743664" stroke-linecap="round" stroke-linejoin="round" stroke-dasharray="0,4"></line>
                    <line x1="792" y1="36" x2="792" y2="397" id="Path-4-Copy-6" stroke="#0A1753" stroke-width="2" opacity="0.0463743664" stroke-linecap="round" stroke-linejoin="round" stroke-dasharray="0,4"></line>
                    <g id="Group-4" transform="translate(86.000000, 62.000000)">
                        <polyline id="Path-3-Copy-3" stroke="#0299FE" stroke-width="2" points="6 334 106 254 206 170 306 192 406 144 506 114 606 6 706 14"></polyline>
                        <circle id="Oval-Copy" fill="#0299FE" cx="106" cy="254" r="6"></circle>
                        <circle id="Oval-Copy-20" fill="#0299FE" cx="6" cy="334" r="6"></circle>
                        <circle id="Oval-Copy-8" fill="#0299FE" cx="206" cy="170" r="6"></circle>
                        <circle id="Oval-Copy-9" fill="#0299FE" cx="306" cy="191" r="6"></circle>
                        <circle id="Oval-Copy-10" fill="#0299FE" cx="406" cy="145" r="6"></circle>
                        <circle id="Oval-Copy-11" fill="#0299FE" cx="506" cy="115" r="6"></circle>
                        <circle id="Oval-Copy-12" fill="#0299FE" cx="606" cy="6" r="6"></circle>
                        <circle id="Oval-Copy-13" fill="#0299FE" cx="706" cy="14" r="6"></circle>
                    </g>
                    <g id="Group-4" transform="translate(86.000000, 90.000000)">
                        <polyline id="Path-3-Copy-2" stroke="#3FD48D" stroke-width="2" points="6 306 106 246 206 202 306 114 406 146 506 106 606 38 706 6"></polyline>
                        <circle id="Oval" fill="#3FD48D" cx="6" cy="306" r="6"></circle>
                        <circle id="Oval-Copy" fill="#3FD48D" cx="106" cy="246" r="6"></circle>
                        <circle id="Oval-Copy-2" fill="#3FD48D" cx="206" cy="202" r="6"></circle>
                        <circle id="Oval-Copy-3" fill="#3FD48D" cx="306" cy="114" r="6"></circle>
                        <circle id="Oval-Copy-4" fill="#3FD48D" cx="406" cy="146" r="6"></circle>
                        <circle id="Oval-Copy-5" fill="#3FD48D" cx="506" cy="106" r="6"></circle>
                        <circle id="Oval-Copy-6" fill="#3FD48D" cx="606" cy="38" r="6"></circle>
                        <circle id="Oval-Copy-7" fill="#3FD48D" cx="706" cy="6" r="6"></circle>
                    </g>
                </g>
                <g id="Group-14" transform="translate(513.000000, 262.000000)">
                    <g id="Rectangle-Copy-65">
                        <use fill="black" fill-opacity="1" filter="url(#filter-4)" xlink:href="#path-3"></use>
                        <use fill="#FFFFFF" fill-rule="evenodd" xlink:href="#path-3"></use>
                    </g>
                    <rect id="Rectangle-Copy-80" stroke="#0A1753" stroke-width="2" opacity="0.05" x="36" y="74" width="346" height="48" rx="8"></rect>
                    <rect id="Rectangle-Copy-81" stroke="#0A1753" stroke-width="2" opacity="0.05" x="36" y="196" width="346" height="48" rx="8"></rect>
                    <text id="Campaign" font-family="SharpGroteskMedium20-Regular, Sharp Grotesk Medium 20" font-size="14" font-style="expanded" font-weight="normal" line-spacing="14" fill="#0A1753">
                        <tspan x="36" y="47">Campaign</tspan>
                    </text>
                    <text id="Timeframe" font-family="SharpGroteskMedium20-Regular, Sharp Grotesk Medium 20" font-size="14" font-style="expanded" font-weight="normal" line-spacing="14" fill="#0A1753">
                        <tspan x="36" y="169">Timeframe</tspan>
                    </text>
                    <text id="Filters" font-family="SharpGroteskMedium20-Regular, Sharp Grotesk Medium 20" font-size="14" font-style="expanded" font-weight="normal" line-spacing="14" fill="#0A1753">
                        <tspan x="36" y="291">Filters</tspan>
                    </text>
                    <g id="Group-6" transform="translate(36.000000, 318.000000)">
                        <rect id="Rectangle-Copy-72" fill="#0A1753" opacity="0.0535307385" x="93" y="0" width="88" height="36" rx="8"></rect>
                        <rect id="Rectangle-Copy-73" fill="#0A1753" opacity="0.0535307385" x="193" y="0" width="105" height="36" rx="8"></rect>
                        <rect id="Rectangle-Copy-74" stroke="#0A1753" stroke-width="2" opacity="0.0535307385" x="1" y="49" width="104" height="34" rx="8"></rect>
                        <rect id="Rectangle-Copy-75" stroke="#0A1753" stroke-width="2" opacity="0.0535307385" x="119" y="49" width="113" height="34" rx="8"></rect>
                        <rect id="Rectangle-Copy-76" stroke="#0A1753" stroke-width="2" opacity="0.0535307385" x="246" y="49" width="88" height="34" rx="8"></rect>
                        <rect id="Rectangle-Copy-71" stroke="#0A1753" stroke-width="2" opacity="0.0535307385" x="1" y="1" width="79" height="34" rx="8"></rect>
                        <text id="Views-Copy-2" opacity="0.302033924" font-family="SharpGroteskBook20-Regular, Sharp Grotesk Book 20" font-size="12" font-style="expanded" font-weight="normal" line-spacing="12" fill="#0A1753">
                            <tspan x="32" y="21">Views</tspan>
                        </text>
                        <circle id="Oval-Copy-14" fill="#0A1753" opacity="0.302033924" cx="18" cy="18" r="6"></circle>
                        <text id="Invites-Copy" font-family="SharpGroteskBook20-Regular, Sharp Grotesk Book 20" font-size="12" font-style="expanded" font-weight="normal" line-spacing="12" fill="#0A1753">
                            <tspan x="125" y="21">Invites</tspan>
                        </text>
                        <text id="Accepted-Copy" font-family="SharpGroteskBook20-Regular, Sharp Grotesk Book 20" font-size="12" font-style="expanded" font-weight="normal" line-spacing="12" fill="#0A1753">
                            <tspan x="225" y="21">Accepted</tspan>
                        </text>
                        <text id="Messages-Copy" opacity="0.297343663" font-family="SharpGroteskBook20-Regular, Sharp Grotesk Book 20" font-size="12" font-style="expanded" font-weight="normal" line-spacing="12" fill="#0A1753">
                            <tspan x="32" y="69">Messages</tspan>
                        </text>
                        <text id="Sequences-Copy-2" opacity="0.297343663" font-family="SharpGroteskBook20-Regular, Sharp Grotesk Book 20" font-size="12" font-style="expanded" font-weight="normal" line-spacing="12" fill="#0A1753">
                            <tspan x="150" y="69">Sequences</tspan>
                        </text>
                        <text id="Replies-Copy-2" opacity="0.297343663" font-family="SharpGroteskBook20-Regular, Sharp Grotesk Book 20" font-size="12" font-style="expanded" font-weight="normal" line-spacing="12" fill="#0A1753">
                            <tspan x="277" y="69">Replies</tspan>
                        </text>
                        <circle id="Oval-Copy-15" fill="#0299FE" cx="111" cy="18" r="6"></circle>
                        <circle id="Oval-Copy-16" fill="#3FD48D" cx="211" cy="18" r="6"></circle>
                        <circle id="Oval-Copy-17" fill="#0A1753" opacity="0.297343663" cx="18" cy="66" r="6"></circle>
                        <circle id="Oval-Copy-18" fill="#0A1753" opacity="0.297343663" cx="136" cy="66" r="6"></circle>
                        <circle id="Oval-Copy-19" fill="#0A1753" opacity="0.297343663" cx="263" cy="66" r="6"></circle>
                    </g>
                    <text id="Campaign-#1" font-family="SharpGroteskBook20-Regular, Sharp Grotesk Book 20" font-size="14" font-style="expanded" font-weight="normal" line-spacing="14" fill="#0A1753">
                        <tspan x="60" y="101">Campaign #1</tspan>
                    </text>
                    <text id="May-1-to-May-7" opacity="0.298276629" font-family="SharpGroteskBook20-Regular, Sharp Grotesk Book 20" font-size="14" font-style="expanded" font-weight="normal" line-spacing="14" fill="#0A1753">
                        <tspan x="60" y="223">May 1 to May 7</tspan>
                    </text>
                    <g id="Group" opacity="0.299120948" transform="translate(350.250000, 96.437000)" stroke="#0A1753" stroke-linecap="round" stroke-linejoin="round" stroke-width="2">
                        <path d="M7.5,-1.24344979e-14 L3.92666667,3.573 C3.8798349,3.61989851 3.81627733,3.64625144 3.75,3.64625144 C3.68372267,3.64625144 3.6201651,3.61989851 3.57333333,3.573 L0,-1.24344979e-14" id="Path"></path>
                    </g>
                    <g id="Group" opacity="0.3" transform="translate(340.000000, 211.000000)" fill="#0A1753" fill-rule="nonzero">
                        <path d="M5.625,7.875 L4.875,7.875 C4.46078644,7.875 4.125,8.21078644 4.125,8.625 C4.125,9.03921356 4.46078644,9.375 4.875,9.375 L5.625,9.375 C6.03921356,9.375 6.375,9.03921356 6.375,8.625 C6.375,8.21078644 6.03921356,7.875 5.625,7.875 Z" id="Path"></path>
                        <path d="M9.375,7.875 L8.625,7.875 C8.21078644,7.875 7.875,8.21078644 7.875,8.625 C7.875,9.03921356 8.21078644,9.375 8.625,9.375 L9.375,9.375 C9.78921356,9.375 10.125,9.03921356 10.125,8.625 C10.125,8.21078644 9.78921356,7.875 9.375,7.875 Z" id="Path"></path>
                        <path d="M13.125,7.875 L12.375,7.875 C11.9607864,7.875 11.625,8.21078644 11.625,8.625 C11.625,9.03921356 11.9607864,9.375 12.375,9.375 L13.125,9.375 C13.5392136,9.375 13.875,9.03921356 13.875,8.625 C13.875,8.21078644 13.5392136,7.875 13.125,7.875 Z" id="Path"></path>
                        <path d="M5.625,10.875 L4.875,10.875 C4.46078644,10.875 4.125,11.2107864 4.125,11.625 C4.125,12.0392136 4.46078644,12.375 4.875,12.375 L5.625,12.375 C6.03921356,12.375 6.375,12.0392136 6.375,11.625 C6.375,11.2107864 6.03921356,10.875 5.625,10.875 Z" id="Path"></path>
                        <path d="M9.375,10.875 L8.625,10.875 C8.21078644,10.875 7.875,11.2107864 7.875,11.625 C7.875,12.0392136 8.21078644,12.375 8.625,12.375 L9.375,12.375 C9.78921356,12.375 10.125,12.0392136 10.125,11.625 C10.125,11.2107864 9.78921356,10.875 9.375,10.875 Z" id="Path"></path>
                        <path d="M13.125,10.875 L12.375,10.875 C11.9607864,10.875 11.625,11.2107864 11.625,11.625 C11.625,12.0392136 11.9607864,12.375 12.375,12.375 L13.125,12.375 C13.5392136,12.375 13.875,12.0392136 13.875,11.625 C13.875,11.2107864 13.5392136,10.875 13.125,10.875 Z" id="Path"></path>
                        <path d="M5.625,13.875 L4.875,13.875 C4.46078644,13.875 4.125,14.2107864 4.125,14.625 C4.125,15.0392136 4.46078644,15.375 4.875,15.375 L5.625,15.375 C6.03921356,15.375 6.375,15.0392136 6.375,14.625 C6.375,14.2107864 6.03921356,13.875 5.625,13.875 Z" id="Path"></path>
                        <path d="M9.375,13.875 L8.625,13.875 C8.21078644,13.875 7.875,14.2107864 7.875,14.625 C7.875,15.0392136 8.21078644,15.375 8.625,15.375 L9.375,15.375 C9.78921356,15.375 10.125,15.0392136 10.125,14.625 C10.125,14.2107864 9.78921356,13.875 9.375,13.875 Z" id="Path"></path>
                        <path d="M13.125,13.875 L12.375,13.875 C11.9607864,13.875 11.625,14.2107864 11.625,14.625 C11.625,15.0392136 11.9607864,15.375 12.375,15.375 L13.125,15.375 C13.5392136,15.375 13.875,15.0392136 13.875,14.625 C13.875,14.2107864 13.5392136,13.875 13.125,13.875 Z" id="Path"></path>
                        <path d="M16.125,2.25 L14.0625,2.25 C13.9589466,2.25 13.875,2.16605339 13.875,2.0625 L13.875,0.75 C13.875,0.335786438 13.5392136,0 13.125,0 C12.7107864,0 12.375,0.335786438 12.375,0.75 L12.375,4.3125 C12.375,4.62316017 12.1231602,4.875 11.8125,4.875 C11.5018398,4.875 11.25,4.62316017 11.25,4.3125 L11.25,2.625 C11.25,2.41789322 11.0821068,2.25 10.875,2.25 L6.1875,2.25 C6.0842388,2.25000083 6.00041304,2.16651038 6,2.06325 L6,0.75 C6,0.335786438 5.66421356,0 5.25,0 C4.83578644,0 4.5,0.335786438 4.5,0.75 L4.5,4.3125 C4.5,4.62316017 4.24816017,4.875 3.9375,4.875 C3.62683983,4.875 3.375,4.62316017 3.375,4.3125 L3.375,2.625 C3.375,2.41789322 3.20710678,2.25 3,2.25 L1.875,2.25 C1.04657288,2.25 0.375,2.92157288 0.375,3.75 L0.375,16.5 C0.375,17.3284271 1.04657288,18 1.875,18 L16.125,18 C16.9534271,18 17.625,17.3284271 17.625,16.5 L17.625,3.75 C17.625,2.92157288 16.9534271,2.25 16.125,2.25 Z M16.125,16.125 C16.125,16.3321068 15.9571068,16.5 15.75,16.5 L2.25,16.5 C2.04289322,16.5 1.875,16.3321068 1.875,16.125 L1.875,7.125 C1.875,6.91789322 2.04289322,6.75 2.25,6.75 L15.75,6.75 C15.9571068,6.75 16.125,6.91789322 16.125,7.125 L16.125,16.125 Z" id="Shape"></path>
                    </g>
                </g>
            </g>
        </g>
    </g>
</svg>