<?xml version="1.0" encoding="UTF-8"?>
<svg width="1460px" height="730px" viewBox="0 0 1460 730" version="1.1" xmlns="http://www.w3.org/2000/svg" xmlns:xlink="http://www.w3.org/1999/xlink">
    <title>Group 19</title>
    <defs>
        <rect id="path-1" x="0" y="0" width="1360" height="630" rx="8"></rect>
        <filter x="-5.7%" y="-11.5%" width="111.4%" height="124.6%" filterUnits="objectBoundingBox" id="filter-2">
            <feOffset dx="0" dy="5" in="SourceAlpha" result="shadowOffsetOuter1"></feOffset>
            <feGaussianBlur stdDeviation="25" in="shadowOffsetOuter1" result="shadowBlurOuter1"></feGaussianBlur>
            <feColorMatrix values="0 0 0 0 0.0392156863   0 0 0 0 0.0901960784   0 0 0 0 0.325490196  0 0 0 0.1 0" type="matrix" in="shadowBlurOuter1"></feColorMatrix>
        </filter>
        <rect id="path-3" x="60" y="156" width="1240" height="308" rx="8"></rect>
        <filter x="-1.4%" y="-4.1%" width="102.8%" height="111.4%" filterUnits="objectBoundingBox" id="filter-4">
            <feOffset dx="0" dy="5" in="SourceAlpha" result="shadowOffsetOuter1"></feOffset>
            <feGaussianBlur stdDeviation="5" in="shadowOffsetOuter1" result="shadowBlurOuter1"></feGaussianBlur>
            <feColorMatrix values="0 0 0 0 0.0392156863   0 0 0 0 0.0901960784   0 0 0 0 0.325490196  0 0 0 0.03 0" type="matrix" in="shadowBlurOuter1"></feColorMatrix>
        </filter>
    </defs>
    <g id="Page-2" stroke="none" stroke-width="1" fill="none" fill-rule="evenodd">
        <g id="Home---updated" transform="translate(-690.000000, -3755.000000)">
            <g id="Group-19" transform="translate(740.000000, 3800.000000)">
                <g id="Rectangle-Copy-3">
                    <use fill="black" fill-opacity="1" filter="url(#filter-2)" xlink:href="#path-1"></use>
                    <use fill="#F6F9FB" fill-rule="evenodd" xlink:href="#path-1"></use>
                </g>
                <text id="Send-InMails-to-your-Copy" font-family="SharpGroteskMedium20-Regular, Sharp Grotesk Medium 20" font-size="24" font-style="expanded" font-weight="normal" fill="#0A1753">
                    <tspan x="60" y="79">Send InMails to your audience</tspan>
                </text>
                <text id="If-the-user-allows-I-Copy" opacity="0.5" font-family="SharpGroteskBook20-Regular, Sharp Grotesk Book 20" font-size="14" font-style="expanded" font-weight="normal" line-spacing="24" letter-spacing="-0.2" fill="#0A1753">
                    <tspan x="60" y="107">If the user allows InMails we will send them instead of Notes.</tspan>
                </text>
                <g id="Rectangle-Copy-38">
                    <use fill="black" fill-opacity="1" filter="url(#filter-4)" xlink:href="#path-3"></use>
                    <use fill="#FFFFFF" fill-rule="evenodd" xlink:href="#path-3"></use>
                </g>
                <rect id="Rectangle-Copy-90" stroke="#0A1753" stroke-width="2" opacity="0.0985819499" x="432" y="220" width="172" height="48" rx="8"></rect>
                <text id="Add-variable-Copy" font-family="SharpGroteskBook20-Regular, Sharp Grotesk Book 20" font-size="14" font-style="expanded" font-weight="normal" line-spacing="14" fill="#0A1753">
                    <tspan x="456" y="247">Add variable</tspan>
                </text>
                <text id="Variable-Copy" opacity="0.503515334" font-family="SharpGroteskBook20-Regular, Sharp Grotesk Book 20" font-size="12" font-style="expanded" font-weight="normal" line-spacing="12" fill="#0A1753">
                    <tspan x="432" y="202">Variable</tspan>
                </text>
                <g id="Group-2-Copy" opacity="0.29300508" transform="translate(572.000000, 241.000000)" stroke="#0A1753" stroke-linecap="round" stroke-width="2">
                    <line x1="0" y1="4" x2="8" y2="4" id="Path-2"></line>
                    <line x1="4" y1="8" x2="4" y2="0" id="Path-2"></line>
                </g>
                <text id="Subject-Copy" opacity="0.3" font-family="SharpGroteskBook20-Regular, Sharp Grotesk Book 20" font-size="14" font-style="expanded" font-weight="normal" line-spacing="14" fill="#0A1753">
                    <tspan x="120" y="247">Subject</tspan>
                </text>
                <text id="Message-Copy-5" opacity="0.3" font-family="SharpGroteskBook20-Regular, Sharp Grotesk Book 20" font-size="14" font-style="expanded" font-weight="normal" line-spacing="22" fill="#0A1753">
                    <tspan x="120" y="359">Message</tspan>
                </text>
                <rect id="Rectangle-Copy-92" stroke="#0A1753" stroke-width="2" opacity="0.0985819499" x="96" y="220" width="300" height="48" rx="8"></rect>
                <rect id="Rectangle-Copy-93" stroke="#0A1753" stroke-width="2" opacity="0.0985819499" x="96" y="332" width="1168" height="96" rx="8"></rect>
                <text id="Subject-Copy-2" opacity="0.503515334" font-family="SharpGroteskBook20-Regular, Sharp Grotesk Book 20" font-size="12" font-style="expanded" font-weight="normal" line-spacing="12" fill="#0A1753">
                    <tspan x="96" y="202">Subject</tspan>
                </text>
                <text id="Message-Copy-6" opacity="0.503515334" font-family="SharpGroteskBook20-Regular, Sharp Grotesk Book 20" font-size="12" font-style="expanded" font-weight="normal" line-spacing="12" fill="#0A1753">
                    <tspan x="96" y="314">Message</tspan>
                </text>
                <rect id="Rectangle-Copy-23" fill="#0A1753" opacity="0.1" x="1228" y="192" width="36" height="36" rx="8"></rect>
                <g id="Group-Copy-6" transform="translate(1238.000000, 201.000000)" fill="#0A1753" fill-rule="nonzero">
                    <path d="M13.875,5.625 L2.625,5.625 C2.41789322,5.625 2.25,5.79289322 2.25,6 L2.25,16.5 C2.25,17.3284271 2.92157288,18 3.75,18 L12.75,18 C13.5784271,18 14.25,17.3284271 14.25,16.5 L14.25,6 C14.25,5.79289322 14.0821068,5.625 13.875,5.625 Z M6.9375,15.375 C6.9375,15.6856602 6.68566017,15.9375 6.375,15.9375 C6.06433983,15.9375 5.8125,15.6856602 5.8125,15.375 L5.8125,8.625 C5.8125,8.31433983 6.06433983,8.0625 6.375,8.0625 C6.68566017,8.0625 6.9375,8.31433983 6.9375,8.625 L6.9375,15.375 Z M10.6875,15.375 C10.6875,15.6856602 10.4356602,15.9375 10.125,15.9375 C9.81433983,15.9375 9.5625,15.6856602 9.5625,15.375 L9.5625,8.625 C9.5625,8.31433983 9.81433983,8.0625 10.125,8.0625 C10.4356602,8.0625 10.6875,8.31433983 10.6875,8.625 L10.6875,15.375 Z" id="Shape"></path>
                    <path d="M15.75,3 L12.1875,3 C12.0839466,3 12,2.91605339 12,2.8125 L12,1.875 C12,0.839466094 11.1605339,0 10.125,0 L6.375,0 C5.33946609,0 4.5,0.839466094 4.5,1.875 L4.5,2.8125 C4.5,2.86222809 4.48024559,2.90991945 4.44508252,2.94508252 C4.40991945,2.98024559 4.36222809,3 4.3125,3 L0.75,3 C0.335786438,3 0,3.33578644 0,3.75 C0,4.16421356 0.335786438,4.5 0.75,4.5 L15.75,4.5 C16.1642136,4.5 16.5,4.16421356 16.5,3.75 C16.5,3.33578644 16.1642136,3 15.75,3 Z M6,2.8125 L6,1.875 C6,1.66789322 6.16789322,1.5 6.375,1.5 L10.125,1.5 C10.3321068,1.5 10.5,1.66789322 10.5,1.875 L10.5,2.8125 C10.5,2.91605339 10.4160534,3 10.3125,3 L6.1875,3 C6.08394661,3 6,2.91605339 6,2.8125 Z" id="Shape"></path>
                </g>
                <rect id="Rectangle-Copy-18" stroke="#0A1753" stroke-width="2" opacity="0.05" x="60" y="494" width="1240" height="48" rx="8"></rect>
                <text id="Add-InMail-for-A/B-t-Copy" opacity="0.2957008" font-family="SharpGroteskMedium20-Regular, Sharp Grotesk Medium 20" font-size="14" font-style="expanded" font-weight="normal" line-spacing="14" fill="#0A1753">
                    <tspan x="574.031" y="520">Add InMail for A/B testing</tspan>
                </text>
                <g id="info-icon-copy" opacity="0.298957461" transform="translate(769.000000, 509.000000)" fill="#0A1753" fill-rule="nonzero">
                    <path d="M9,0 C4.02943725,0 0,4.02943725 0,9 C0,13.9705627 4.02943725,18 9,18 C13.9705627,18 18,13.9705627 18,9 C17.9946264,4.03166479 13.9683352,0.00537363571 9,0 Z M9.1875,3.75 C9.80882034,3.75 10.3125,4.25367966 10.3125,4.875 C10.3125,5.49632034 9.80882034,6 9.1875,6 C8.56617966,6 8.0625,5.49632034 8.0625,4.875 C8.0625,4.25367966 8.56617966,3.75 9.1875,3.75 Z M10.875,13.875 L7.875,13.875 C7.46078644,13.875 7.125,13.5392136 7.125,13.125 C7.125,12.7107864 7.46078644,12.375 7.875,12.375 L8.4375,12.375 C8.54105339,12.375 8.625,12.2910534 8.625,12.1875 L8.625,8.8125 C8.625,8.70894661 8.54105339,8.625 8.4375,8.625 L7.875,8.625 C7.46078644,8.625 7.125,8.28921356 7.125,7.875 C7.125,7.46078644 7.46078644,7.125 7.875,7.125 L8.625,7.125 C9.45342712,7.125 10.125,7.79657288 10.125,8.625 L10.125,12.1875 C10.125,12.2910534 10.2089466,12.375 10.3125,12.375 L10.875,12.375 C11.2892136,12.375 11.625,12.7107864 11.625,13.125 C11.625,13.5392136 11.2892136,13.875 10.875,13.875 Z" id="Shape"></path>
                </g>
                <rect id="Rectangle-Copy-94" stroke="#E6E7ED" stroke-width="2" fill="#FFFFFF" x="640" y="220" width="239" height="192" rx="8"></rect>
                <text id="No-template-selected-Copy" opacity="0.499681745" font-family="SharpGroteskBook20-Regular, Sharp Grotesk Book 20" font-size="14" font-style="expanded" font-weight="normal" line-spacing="14" fill="#0A1753">
                    <tspan x="664" y="247">No template selected</tspan>
                </text>
                <text id="Template-1-Copy" font-family="SharpGroteskBook20-Regular, Sharp Grotesk Book 20" font-size="14" font-style="expanded" font-weight="normal" line-spacing="14" fill="#0A1753">
                    <tspan x="664" y="295">Template 1</tspan>
                </text>
                <text id="Template-2-Copy" font-family="SharpGroteskBook20-Regular, Sharp Grotesk Book 20" font-size="14" font-style="expanded" font-weight="normal" line-spacing="14" fill="#0A1753">
                    <tspan x="664" y="343">Template 2</tspan>
                </text>
                <text id="Create-template-Copy" opacity="0.499681745" font-family="SharpGroteskBook20-Regular, Sharp Grotesk Book 20" font-size="14" font-style="expanded" font-weight="normal" line-spacing="14" fill="#0A1753">
                    <tspan x="700" y="391">Create template</tspan>
                </text>
                <g id="Group-Copy" opacity="0.299120948" transform="translate(847.000000, 244.000000)" stroke="#0A1753" stroke-linecap="round" stroke-linejoin="round" stroke-width="2">
                    <path d="M7.75,0.437 L4.17666667,4.01 C4.1298349,4.05689851 4.06627733,4.08325144 4,4.08325144 C3.93372267,4.08325144 3.8701651,4.05689851 3.82333333,4.01 L0.25,0.437" id="Path"></path>
                </g>
                <text id="Template-Copy" opacity="0.503515334" font-family="SharpGroteskBook20-Regular, Sharp Grotesk Book 20" font-size="12" font-style="expanded" font-weight="normal" line-spacing="12" fill="#0A1753">
                    <tspan x="640" y="202">Template</tspan>
                </text>
                <rect id="Rectangle-Copy-75" fill="#0A1753" opacity="0.0955389114" x="664" y="376" width="24" height="24" rx="6"></rect>
                <g id="add-icon-copy" transform="translate(671.999764, 384.000000)" stroke="#0A1753" stroke-linecap="round" stroke-linejoin="round">
                    <line x1="1.17157288" y1="6.82842712" x2="6.82842712" y2="1.17157288" id="Path" transform="translate(4.000000, 4.000000) rotate(-45.000000) translate(-4.000000, -4.000000) "></line>
                    <line x1="0" y1="4" x2="8" y2="4" id="Path"></line>
                </g>
            </g>
        </g>
    </g>
</svg>