<?xml version="1.0" encoding="UTF-8"?>
<svg width="970px" height="736px" viewBox="0 0 970 736" version="1.1" xmlns="http://www.w3.org/2000/svg" xmlns:xlink="http://www.w3.org/1999/xlink">
    <title>Group 18</title>
    <defs>
        <rect id="path-1" x="0" y="0" width="800" height="362" rx="8"></rect>
        <filter x="-9.7%" y="-20.0%" width="119.4%" height="142.8%" filterUnits="objectBoundingBox" id="filter-2">
            <feOffset dx="0" dy="5" in="SourceAlpha" result="shadowOffsetOuter1"></feOffset>
            <feGaussianBlur stdDeviation="25" in="shadowOffsetOuter1" result="shadowBlurOuter1"></feGaussianBlur>
            <feColorMatrix values="0 0 0 0 0.0392156863   0 0 0 0 0.0901960784   0 0 0 0 0.325490196  0 0 0 0.1 0" type="matrix" in="shadowBlurOuter1"></feColorMatrix>
        </filter>
        <rect id="path-3" x="0" y="0" width="800" height="362" rx="8"></rect>
        <filter x="-9.7%" y="-20.0%" width="119.4%" height="142.8%" filterUnits="objectBoundingBox" id="filter-4">
            <feOffset dx="0" dy="5" in="SourceAlpha" result="shadowOffsetOuter1"></feOffset>
            <feGaussianBlur stdDeviation="25" in="shadowOffsetOuter1" result="shadowBlurOuter1"></feGaussianBlur>
            <feColorMatrix values="0 0 0 0 0.0392156863   0 0 0 0 0.0901960784   0 0 0 0 0.325490196  0 0 0 0.1 0" type="matrix" in="shadowBlurOuter1"></feColorMatrix>
        </filter>
    </defs>
    <g id="Page-2" stroke="none" stroke-width="1" fill="none" fill-rule="evenodd">
        <g id="Home---updated" transform="translate(-20.000000, -4585.000000)">
            <g id="Group-18" transform="translate(70.000000, 4630.000000)">
                <g id="Group-16-Copy">
                    <g id="Rectangle-Copy-37">
                        <use fill="black" fill-opacity="1" filter="url(#filter-2)" xlink:href="#path-1"></use>
                        <use fill="#FFFFFF" fill-rule="evenodd" xlink:href="#path-1"></use>
                    </g>
                    <text id="Message" opacity="0.3" font-family="SharpGroteskBook20-Regular, Sharp Grotesk Book 20" font-size="14" font-style="expanded" font-weight="normal" line-spacing="22" fill="#0A1753">
                        <tspan x="60" y="257">Message</tspan>
                    </text>
                    <rect id="Rectangle-Copy-88" stroke="#0A1753" stroke-width="2" opacity="0.0985819499" x="244" y="118" width="160" height="48" rx="8"></rect>
                    <rect id="Rectangle-Copy-87" stroke="#0A1753" stroke-width="2" opacity="0.0985819499" x="36" y="230" width="728" height="96" rx="8"></rect>
                    <text id="05h" font-family="SharpGroteskBook20-Regular, Sharp Grotesk Book 20" font-size="14" font-style="expanded" font-weight="normal" line-spacing="14" fill="#0A1753">
                        <tspan x="268" y="145">05h</tspan>
                    </text>
                    <g id="Group" opacity="0.299120948" transform="translate(372.000000, 142.000000)" stroke="#0A1753" stroke-linecap="round" stroke-linejoin="round" stroke-width="2">
                        <path d="M7.75,0.437 L4.17666667,4.01 C4.1298349,4.05689851 4.06627733,4.08325144 4,4.08325144 C3.93372267,4.08325144 3.8701651,4.05689851 3.82333333,4.01 L0.25,0.437" id="Path"></path>
                    </g>
                    <text id="Delay" opacity="0.503515334" font-family="SharpGroteskBook20-Regular, Sharp Grotesk Book 20" font-size="12" font-style="expanded" font-weight="normal" line-spacing="12" fill="#0A1753">
                        <tspan x="244" y="100">Delay</tspan>
                    </text>
                    <rect id="Rectangle-Copy-89" stroke="#0A1753" stroke-width="2" opacity="0.0985819499" x="36" y="118" width="172" height="48" rx="8"></rect>
                    <text id="Add-variable" font-family="SharpGroteskBook20-Regular, Sharp Grotesk Book 20" font-size="14" font-style="expanded" font-weight="normal" line-spacing="14" fill="#0A1753">
                        <tspan x="60" y="145">Add variable</tspan>
                    </text>
                    <text id="Variable" opacity="0.503515334" font-family="SharpGroteskBook20-Regular, Sharp Grotesk Book 20" font-size="12" font-style="expanded" font-weight="normal" line-spacing="12" fill="#0A1753">
                        <tspan x="36" y="100">Variable</tspan>
                    </text>
                    <g id="Group-2" opacity="0.29300508" transform="translate(176.000000, 139.000000)" stroke="#0A1753" stroke-linecap="round" stroke-width="2">
                        <line x1="0" y1="4" x2="8" y2="4" id="Path-2"></line>
                        <line x1="4" y1="8" x2="4" y2="0" id="Path-2"></line>
                    </g>
                    <text id="Message" opacity="0.503515334" font-family="SharpGroteskBook20-Regular, Sharp Grotesk Book 20" font-size="12" font-style="expanded" font-weight="normal" line-spacing="12" fill="#0A1753">
                        <tspan x="36" y="212">Message</tspan>
                    </text>
                    <text id="Message-1" font-family="SharpGroteskMedium20-Regular, Sharp Grotesk Medium 20" font-size="18" font-style="expanded" font-weight="normal" line-spacing="18" fill="#0A1753">
                        <tspan x="36" y="50">Message 1</tspan>
                    </text>
                    <rect id="Rectangle-Copy-22" fill="#0A1753" opacity="0.1" x="728" y="36" width="36" height="36" rx="8"></rect>
                    <g id="Group-Copy-5" transform="translate(738.000000, 45.000000)" fill="#0A1753" fill-rule="nonzero">
                        <path d="M13.875,5.625 L2.625,5.625 C2.41789322,5.625 2.25,5.79289322 2.25,6 L2.25,16.5 C2.25,17.3284271 2.92157288,18 3.75,18 L12.75,18 C13.5784271,18 14.25,17.3284271 14.25,16.5 L14.25,6 C14.25,5.79289322 14.0821068,5.625 13.875,5.625 Z M6.9375,15.375 C6.9375,15.6856602 6.68566017,15.9375 6.375,15.9375 C6.06433983,15.9375 5.8125,15.6856602 5.8125,15.375 L5.8125,8.625 C5.8125,8.31433983 6.06433983,8.0625 6.375,8.0625 C6.68566017,8.0625 6.9375,8.31433983 6.9375,8.625 L6.9375,15.375 Z M10.6875,15.375 C10.6875,15.6856602 10.4356602,15.9375 10.125,15.9375 C9.81433983,15.9375 9.5625,15.6856602 9.5625,15.375 L9.5625,8.625 C9.5625,8.31433983 9.81433983,8.0625 10.125,8.0625 C10.4356602,8.0625 10.6875,8.31433983 10.6875,8.625 L10.6875,15.375 Z" id="Shape"></path>
                        <path d="M15.75,3 L12.1875,3 C12.0839466,3 12,2.91605339 12,2.8125 L12,1.875 C12,0.839466094 11.1605339,0 10.125,0 L6.375,0 C5.33946609,0 4.5,0.839466094 4.5,1.875 L4.5,2.8125 C4.5,2.86222809 4.48024559,2.90991945 4.44508252,2.94508252 C4.40991945,2.98024559 4.36222809,3 4.3125,3 L0.75,3 C0.335786438,3 0,3.33578644 0,3.75 C0,4.16421356 0.335786438,4.5 0.75,4.5 L15.75,4.5 C16.1642136,4.5 16.5,4.16421356 16.5,3.75 C16.5,3.33578644 16.1642136,3 15.75,3 Z M6,2.8125 L6,1.875 C6,1.66789322 6.16789322,1.5 6.375,1.5 L10.125,1.5 C10.3321068,1.5 10.5,1.66789322 10.5,1.875 L10.5,2.8125 C10.5,2.91605339 10.4160534,3 10.3125,3 L6.1875,3 C6.08394661,3 6,2.91605339 6,2.8125 Z" id="Shape"></path>
                    </g>
                </g>
                <g id="Group-17-Copy" transform="translate(70.000000, 274.000000)">
                    <g id="Rectangle-Copy-38">
                        <use fill="black" fill-opacity="1" filter="url(#filter-4)" xlink:href="#path-3"></use>
                        <use fill="#FFFFFF" fill-rule="evenodd" xlink:href="#path-3"></use>
                    </g>
                    <text id="Message-Copy" opacity="0.3" font-family="SharpGroteskBook20-Regular, Sharp Grotesk Book 20" font-size="14" font-style="expanded" font-weight="normal" line-spacing="22" fill="#0A1753">
                        <tspan x="60" y="257">Message</tspan>
                    </text>
                    <rect id="Rectangle-Copy-90" stroke="#0A1753" stroke-width="2" opacity="0.0985819499" x="244" y="118" width="160" height="48" rx="8"></rect>
                    <rect id="Rectangle-Copy-91" stroke="#0A1753" stroke-width="2" opacity="0.0985819499" x="36" y="230" width="728" height="96" rx="8"></rect>
                    <text id="05h-copy" font-family="SharpGroteskBook20-Regular, Sharp Grotesk Book 20" font-size="14" font-style="expanded" font-weight="normal" line-spacing="14" fill="#0A1753">
                        <tspan x="268" y="145">05h</tspan>
                    </text>
                    <g id="Group-Copy" opacity="0.299120948" transform="translate(372.000000, 142.000000)" stroke="#0A1753" stroke-linecap="round" stroke-linejoin="round" stroke-width="2">
                        <path d="M7.75,0.437 L4.17666667,4.01 C4.1298349,4.05689851 4.06627733,4.08325144 4,4.08325144 C3.93372267,4.08325144 3.8701651,4.05689851 3.82333333,4.01 L0.25,0.437" id="Path"></path>
                    </g>
                    <text id="Delay-Copy" opacity="0.503515334" font-family="SharpGroteskBook20-Regular, Sharp Grotesk Book 20" font-size="12" font-style="expanded" font-weight="normal" line-spacing="12" fill="#0A1753">
                        <tspan x="244" y="100">Delay</tspan>
                    </text>
                    <rect id="Rectangle-Copy-92" stroke="#0A1753" stroke-width="2" opacity="0.0985819499" x="36" y="118" width="172" height="48" rx="8"></rect>
                    <text id="Add-variable-Copy" font-family="SharpGroteskBook20-Regular, Sharp Grotesk Book 20" font-size="14" font-style="expanded" font-weight="normal" line-spacing="14" fill="#0A1753">
                        <tspan x="60" y="145">Add variable</tspan>
                    </text>
                    <text id="Variable-Copy" opacity="0.503515334" font-family="SharpGroteskBook20-Regular, Sharp Grotesk Book 20" font-size="12" font-style="expanded" font-weight="normal" line-spacing="12" fill="#0A1753">
                        <tspan x="36" y="100">Variable</tspan>
                    </text>
                    <g id="Group-2-Copy" opacity="0.29300508" transform="translate(176.000000, 139.000000)" stroke="#0A1753" stroke-linecap="round" stroke-width="2">
                        <line x1="0" y1="4" x2="8" y2="4" id="Path-2"></line>
                        <line x1="4" y1="8" x2="4" y2="0" id="Path-2"></line>
                    </g>
                    <text id="Message-Copy-2" opacity="0.503515334" font-family="SharpGroteskBook20-Regular, Sharp Grotesk Book 20" font-size="12" font-style="expanded" font-weight="normal" line-spacing="12" fill="#0A1753">
                        <tspan x="36" y="212">Message</tspan>
                    </text>
                    <text id="Message-2" font-family="SharpGroteskMedium20-Regular, Sharp Grotesk Medium 20" font-size="18" font-style="expanded" font-weight="normal" line-spacing="18" fill="#0A1753">
                        <tspan x="36" y="50">Message 2</tspan>
                    </text>
                    <rect id="Rectangle-Copy-23" fill="#0A1753" opacity="0.1" x="728" y="36" width="36" height="36" rx="8"></rect>
                    <g id="Group-Copy-6" transform="translate(738.000000, 45.000000)" fill="#0A1753" fill-rule="nonzero">
                        <path d="M13.875,5.625 L2.625,5.625 C2.41789322,5.625 2.25,5.79289322 2.25,6 L2.25,16.5 C2.25,17.3284271 2.92157288,18 3.75,18 L12.75,18 C13.5784271,18 14.25,17.3284271 14.25,16.5 L14.25,6 C14.25,5.79289322 14.0821068,5.625 13.875,5.625 Z M6.9375,15.375 C6.9375,15.6856602 6.68566017,15.9375 6.375,15.9375 C6.06433983,15.9375 5.8125,15.6856602 5.8125,15.375 L5.8125,8.625 C5.8125,8.31433983 6.06433983,8.0625 6.375,8.0625 C6.68566017,8.0625 6.9375,8.31433983 6.9375,8.625 L6.9375,15.375 Z M10.6875,15.375 C10.6875,15.6856602 10.4356602,15.9375 10.125,15.9375 C9.81433983,15.9375 9.5625,15.6856602 9.5625,15.375 L9.5625,8.625 C9.5625,8.31433983 9.81433983,8.0625 10.125,8.0625 C10.4356602,8.0625 10.6875,8.31433983 10.6875,8.625 L10.6875,15.375 Z" id="Shape"></path>
                        <path d="M15.75,3 L12.1875,3 C12.0839466,3 12,2.91605339 12,2.8125 L12,1.875 C12,0.839466094 11.1605339,0 10.125,0 L6.375,0 C5.33946609,0 4.5,0.839466094 4.5,1.875 L4.5,2.8125 C4.5,2.86222809 4.48024559,2.90991945 4.44508252,2.94508252 C4.40991945,2.98024559 4.36222809,3 4.3125,3 L0.75,3 C0.335786438,3 0,3.33578644 0,3.75 C0,4.16421356 0.335786438,4.5 0.75,4.5 L15.75,4.5 C16.1642136,4.5 16.5,4.16421356 16.5,3.75 C16.5,3.33578644 16.1642136,3 15.75,3 Z M6,2.8125 L6,1.875 C6,1.66789322 6.16789322,1.5 6.375,1.5 L10.125,1.5 C10.3321068,1.5 10.5,1.66789322 10.5,1.875 L10.5,2.8125 C10.5,2.91605339 10.4160534,3 10.3125,3 L6.1875,3 C6.08394661,3 6,2.91605339 6,2.8125 Z" id="Shape"></path>
                    </g>
                </g>
            </g>
        </g>
    </g>
</svg>